<?xml version="1.0" encoding="iso-8859-1"?>
<!-- Generator: Adobe Illustrator 19.0.0, SVG Export Plug-In . SVG Version: 6.00 Build 0)  -->
<svg version="1.1" id="Capa_1" xmlns="http://www.w3.org/2000/svg" xmlns:xlink="http://www.w3.org/1999/xlink" x="0px" y="0px"
	 viewBox="0 0 512 512" style="enable-background:new 0 0 512 512;" xml:space="preserve">
<g>
	<g>
		<path d="M374.284,118.284l-59.588,59.588L392.823,256l-78.127,78.127l59.588,59.588L512,256L374.284,118.284z M335.883,334.127
			L414.01,256l-78.127-78.127l38.402-38.402L490.813,256L374.284,372.529L335.883,334.127z"/>
	</g>
</g>
<g>
	<g>
		<rect x="441.484" y="248.513" width="14.982" height="14.982"/>
	</g>
</g>
<g>
	<g>
		<path d="M59.588,118.284L0,177.874l78.127,78.127L0,334.127l59.588,59.588L197.304,256L59.588,118.284z M21.187,334.127
			L99.314,256l-78.127-78.127l38.401-38.402L176.117,256L59.588,372.529L21.187,334.127z"/>
	</g>
</g>
<g>
	<g>
		<rect x="126.783" y="248.513" width="14.981" height="14.982"/>
	</g>
</g>
<g>
	<g>
		<path d="M216.937,118.284l-59.588,59.588L235.476,256l-78.127,78.127l59.588,59.588L354.652,256L216.937,118.284z
			 M178.535,334.127L256.663,256l-78.127-78.127l38.401-38.402L333.465,256L216.937,372.529L178.535,334.127z"/>
	</g>
</g>
<g>
	<g>
		<rect x="284.129" y="248.513" width="14.982" height="14.982"/>
	</g>
</g>
<g>
</g>
<g>
</g>
<g>
</g>
<g>
</g>
<g>
</g>
<g>
</g>
<g>
</g>
<g>
</g>
<g>
</g>
<g>
</g>
<g>
</g>
<g>
</g>
<g>
</g>
<g>
</g>
<g>
</g>
</svg>
