<?xml version="1.0"?>
<svg xmlns="http://www.w3.org/2000/svg" id="Layer_6" data-name="Layer 6" viewBox="0 0 32 32" width="512" height="512"><path d="M31.62,7.67,26.91.91A2.14,2.14,0,0,0,25.16,0H9.6A1.07,1.07,0,0,0,8.53,1.07V6.72a3.2,3.2,0,0,0,3.2,3.2h8.53a3.2,3.2,0,0,0,3.2-3.2V5.33a1.07,1.07,0,0,0-2.13,0V6.72a1.06,1.06,0,0,1-1.07,1.07H11.73a1.06,1.06,0,0,1-1.07-1.07V2.13h14.5l4.7,6.76V26.67a3.2,3.2,0,0,1-3.2,3.2H5.33a3.2,3.2,0,0,1-3.2-3.2V5.33a3.2,3.2,0,0,1,3.2-3.2A1.07,1.07,0,1,0,5.33,0,5.34,5.34,0,0,0,0,5.33V26.67A5.34,5.34,0,0,0,5.33,32H26.67A5.34,5.34,0,0,0,32,26.67V8.9A2.11,2.11,0,0,0,31.62,7.67Z"/><path d="M21.33,26.67H10.67a3.2,3.2,0,0,1-3.2-3.2V16a3.2,3.2,0,0,1,3.2-3.2H21.33a3.2,3.2,0,0,1,3.2,3.2v7.47A3.2,3.2,0,0,1,21.33,26.67ZM10.67,14.93A1.07,1.07,0,0,0,9.6,16v7.47a1.07,1.07,0,0,0,1.07,1.07H21.33a1.07,1.07,0,0,0,1.07-1.07V16a1.07,1.07,0,0,0-1.07-1.07Z"/></svg>
