<?xml version="1.0"?>
<svg xmlns="http://www.w3.org/2000/svg" viewBox="0 0 64 64" width="512" height="512"><g id="_8-learning" data-name="8-learning"><path d="M59,41.1V24.9a5,5,0,1,0-4.657-8.283L36.933,5.662A4.964,4.964,0,0,0,37,5,5,5,0,0,0,27,5a4.964,4.964,0,0,0,.067.662L9.657,16.616A4.992,4.992,0,1,0,5,24.9V41.1a5,5,0,1,0,4.855,8.044l17.193,9.379c-.015.159-.048.313-.048.476a5,5,0,0,0,10,0c0-.163-.033-.317-.048-.476l17.193-9.379A4.989,4.989,0,1,0,59,41.1ZM58,17a3,3,0,1,1-3,3A3,3,0,0,1,58,17ZM32,2a3,3,0,1,1-3,3A3,3,0,0,1,32,2ZM3,20a3,3,0,1,1,3,3A3,3,0,0,1,3,20ZM6,49a3,3,0,1,1,3-3A3,3,0,0,1,6,49ZM32,62a3,3,0,1,1,3-3A3,3,0,0,1,32,62Zm4.346-5.424a4.954,4.954,0,0,0-8.692,0l-16.87-9.2A4.922,4.922,0,0,0,11,46a5.009,5.009,0,0,0-4-4.9V24.9A5.009,5.009,0,0,0,11,20a4.94,4.94,0,0,0-.309-1.672L27.748,7.6a4.963,4.963,0,0,0,8.5,0L53.309,18.328A4.94,4.94,0,0,0,53,20a5.009,5.009,0,0,0,4,4.9V41.1A5.009,5.009,0,0,0,53,46a4.922,4.922,0,0,0,.216,1.374ZM58,49a3,3,0,1,1,3-3A3,3,0,0,1,58,49Z"/><path d="M24.876,31.051a3.367,3.367,0,0,1-2.316-3.057,1,1,0,0,0-2,.006A5.452,5.452,0,0,0,22.5,32a5.452,5.452,0,0,0-1.943,4,1,1,0,0,0,.992,1h.008a1,1,0,0,0,1-.989,3.368,3.368,0,0,1,2.316-3.058,1,1,0,0,0,0-1.9Z"/><path d="M49.021,27.192a7.3,7.3,0,0,0-.7-5,7.442,7.442,0,0,0-5.447-3.786A5.958,5.958,0,0,0,37.14,14,5.794,5.794,0,0,0,32,16.358,5.794,5.794,0,0,0,26.86,14a5.957,5.957,0,0,0-5.737,4.411A7.44,7.44,0,0,0,15.678,22.2a7.3,7.3,0,0,0-.7,4.994A5.892,5.892,0,0,0,13,32a5.9,5.9,0,0,0,1.979,4.808,7.3,7.3,0,0,0,.7,4.995,7.442,7.442,0,0,0,5.447,3.786A5.958,5.958,0,0,0,26.86,50,5.794,5.794,0,0,0,32,47.642,5.794,5.794,0,0,0,37.14,50a5.957,5.957,0,0,0,5.737-4.411A7.44,7.44,0,0,0,48.322,41.8a7.3,7.3,0,0,0,.7-4.994A5.892,5.892,0,0,0,51,32,5.9,5.9,0,0,0,49.021,27.192ZM26.86,48a4.09,4.09,0,0,1-3.99-3.542,5.849,5.849,0,0,1-.16-1.408,5.185,5.185,0,0,1,1.063-3.386A1,1,0,1,0,22.227,38.4,7.146,7.146,0,0,0,20.71,43.05c0,.131.016.253.021.382A5.162,5.162,0,0,1,17.462,40.9a5.493,5.493,0,0,1-.624-3.073,5.6,5.6,0,0,0,1.424.275h.029a1,1,0,0,0,.034-2,3.931,3.931,0,0,1-1.682-.543A3.85,3.85,0,0,1,15,32a3.85,3.85,0,0,1,1.641-3.557,3.948,3.948,0,0,1,1.683-.544,1,1,0,0,0,.966-1.027.989.989,0,0,0-1.028-.972,5.6,5.6,0,0,0-1.424.275,5.5,5.5,0,0,1,.623-3.072,5.165,5.165,0,0,1,3.27-2.535c-.005.128-.021.251-.021.382A7.146,7.146,0,0,0,22.227,25.6a1,1,0,0,0,1.546-1.268A5.185,5.185,0,0,1,22.71,20.95a5.929,5.929,0,0,1,.166-1.435A4.079,4.079,0,0,1,26.86,16C29.685,16,31,17.3,31,20.1v6.954a8.478,8.478,0,0,0-2.96-1.948,1,1,0,1,0-.66,1.888C27.416,27.006,31,28.3,31,32a5.537,5.537,0,0,1-3.62,5.006,1,1,0,1,0,.66,1.888A8.478,8.478,0,0,0,31,36.946V43.9C31,46.7,29.685,48,26.86,48Zm19.679-7.1a5.165,5.165,0,0,1-3.27,2.535c.005-.128.021-.251.021-.382A7.146,7.146,0,0,0,41.773,38.4a1,1,0,1,0-1.546,1.268A5.185,5.185,0,0,1,41.29,43.05a5.929,5.929,0,0,1-.166,1.435A4.079,4.079,0,0,1,37.14,48C34.315,48,33,46.7,33,43.9V36.946a8.478,8.478,0,0,0,2.96,1.948,1,1,0,1,0,.66-1.888C36.584,36.994,33,35.7,33,32a5.537,5.537,0,0,1,3.62-5.006,1,1,0,1,0-.66-1.888A8.478,8.478,0,0,0,33,27.054V20.1c0-2.8,1.315-4.1,4.14-4.1a4.09,4.09,0,0,1,3.99,3.542,5.849,5.849,0,0,1,.16,1.408,5.185,5.185,0,0,1-1.063,3.386A1,1,0,0,0,41.773,25.6,7.146,7.146,0,0,0,43.29,20.95c0-.131-.016-.253-.021-.382A5.162,5.162,0,0,1,46.538,23.1a5.493,5.493,0,0,1,.624,3.073,5.6,5.6,0,0,0-1.424-.275,1,1,0,0,0-.063,2,3.931,3.931,0,0,1,1.682.543A3.85,3.85,0,0,1,49,32a3.85,3.85,0,0,1-1.641,3.557,3.948,3.948,0,0,1-1.683.544,1,1,0,0,0,.033,2h.029a5.6,5.6,0,0,0,1.424-.275A5.5,5.5,0,0,1,46.539,40.9Z"/><path d="M43.44,28a1,1,0,0,0-.992-1H42.44a1,1,0,0,0-1,.989,3.368,3.368,0,0,1-2.316,3.058,1,1,0,0,0,0,1.9,3.367,3.367,0,0,1,2.316,3.057,1,1,0,0,0,2-.006A5.452,5.452,0,0,0,41.5,32,5.452,5.452,0,0,0,43.44,28Z"/></g></svg>
