<svg id="Layer_1" enable-background="new 0 0 512 512" height="512" viewBox="0 0 512 512" width="512" xmlns="http://www.w3.org/2000/svg"><circle cx="428.444" cy="330.751" r="10"/><path d="m511.962 242.522c-.23-2.67-1.49-5.09-3.55-6.8l-83.74-70.029 6.5-17.79c.91-2.49.79-5.25-.33-7.66-1.12-2.4-3.15-4.26-5.65-5.17l-141.901-51.469c-5.18-1.88-10.91.79-12.8 5.97l-14.492 39.685-14.494-39.686c-1.893-5.18-7.618-7.852-12.804-5.97l-141.891 51.469c-2.496.905-4.53 2.768-5.653 5.174-1.122 2.407-1.241 5.162-.33 7.657l6.494 17.782-83.737 70.037c-2.038 1.705-3.314 4.152-3.546 6.8-.231 2.647.601 5.278 2.312 7.311l147.84 175.607c1.979 2.349 4.807 3.56 7.655 3.56 2.264 0 4.539-.765 6.41-2.329l91.74-76.725 91.745 76.724c1.81 1.5 4.08 2.33 6.42 2.33 2.95 0 5.74-1.3 7.65-3.56l45.3-53.819c1.73-2.05 2.55-4.64 2.32-7.3s-1.48-5.07-3.53-6.79c-1.8-1.51-4.08-2.35-6.43-2.35-2.95 0-5.74 1.29-7.64 3.55-.01 0-.01 0-.01.01l-38.89 46.189-65.13-54.469 55.014 20.04c1.872 1.565 4.148 2.33 6.412 2.33 2.849 0 5.678-1.211 7.655-3.56l96.42-114.529c1.711-2.033 2.543-4.664 2.312-7.311s-1.508-5.094-3.546-6.799l-41.949-35.089 7.262-19.891 70.511 58.969-38.11 45.27c-1.72 2.04-2.54 4.63-2.32 7.29.23 2.67 1.48 5.08 3.53 6.8 1.8 1.51 4.08 2.35 6.43 2.35 2.96 0 5.75-1.3 7.66-3.56l44.57-52.939c1.721-2.05 2.541-4.65 2.311-7.31zm-285.821-136.716 19.212 52.605-10.635 29.124-17.114-46.862c-1.893-5.179-7.618-7.851-12.804-5.97l-66.719 24.199c-2.497.905-4.531 2.767-5.653 5.174-1.123 2.407-1.242 5.162-.331 7.656l51.3 140.489c1.481 4.056 5.313 6.573 9.395 6.573 1.133 0 2.284-.194 3.411-.603l1.126-.561 29.353 10.659-51.821 18.798-71.81-196.632zm-29.203 185.189-42.616-116.709 47.918-17.38 21.833 59.782zm-50.28 37.171-66.198-78.63 28.712-24.016zm12.413 76.769-134.96-160.308 70.503-58.968 7.263 19.889-41.944 35.084c-2.038 1.705-3.314 4.151-3.546 6.799-.231 2.647.601 5.278 2.312 7.311l96.42 114.529c1.979 2.35 4.807 3.56 7.655 3.56 2.264 0 4.54-.765 6.412-2.33l55.015-20.037zm54.98-102.504 71.81-196.628 123.091 44.649-71.81 196.628zm217.491-52.895-66.192 78.624 37.477-102.643z"/><path d="m379.576 164.075c-1.123-2.406-3.156-4.269-5.653-5.174l-66.719-24.203c-5.187-1.881-10.911.79-12.804 5.97l-51.303 140.488c-.911 2.494-.792 5.249.33 7.656 1.123 2.406 3.156 4.269 5.653 5.174l66.718 24.203c1.126.408 2.277.603 3.409.603 4.081 0 7.913-2.518 9.395-6.572l51.304-140.487c.911-2.496.792-5.251-.33-7.658zm-66.338 131.91-47.916-17.383 44.443-121.7 47.917 17.383z"/></svg>