<?xml version="1.0" encoding="iso-8859-1"?>
<!-- Generator: Adobe Illustrator 18.0.0, SVG Export Plug-In . SVG Version: 6.00 Build 0)  -->
<!DOCTYPE svg PUBLIC "-//W3C//DTD SVG 1.1//EN" "http://www.w3.org/Graphics/SVG/1.1/DTD/svg11.dtd">
<svg version="1.1" id="Capa_1" xmlns="http://www.w3.org/2000/svg" xmlns:xlink="http://www.w3.org/1999/xlink" x="0px" y="0px"
	 viewBox="0 0 46.489 46.489" style="enable-background:new 0 0 46.489 46.489;" xml:space="preserve">
<g>
	<path style="fill:#231F20;" d="M14.529,41.699c-1.926-0.578-3.482-1.996-5.053-3.645c-1.999-2.098-4.473-3.747-6.764-5.562
		c-1.698-1.346-2.985-2.555-2.519-5.253c0.486-2.813,0.03-5.811-0.176-8.716c-0.178-2.495,0.951-4.127,3.137-4.902
		c3.688-1.309,7.444-2.432,11.188-3.58c5.386-1.65,10.801-3.208,16.171-4.905c1.649-0.522,2.977-0.531,4.502,0.518
		c2.813,1.936,5.756,3.703,8.75,5.349c1.864,1.025,2.542,2.383,2.33,4.431c-0.457,4.413-0.625,8.827,0.319,13.214
		c0.4,1.859-0.923,2.501-2.297,2.991c-3.321,1.184-6.655,2.332-9.995,3.463C27.747,37.261,21.363,39.399,14.529,41.699z
		 M15.753,12.444c2.286,1.837,3.98,3.255,5.732,4.598c7.083,5.428,6.125,4.359,6.375,12.739c0.041,1.351,0.279,2.696,0.469,4.434
		c1.824-0.64,3.221-1.129,4.735-1.66c0.209-3.898,0.492-7.709,0.562-11.523c0.017-0.909-0.442-2.08-1.093-2.702
		c-2.546-2.436-5.232-4.728-7.927-7.001c-0.483-0.407-1.311-0.764-1.881-0.65C20.57,11.107,18.455,11.739,15.753,12.444z
		 M4.653,15.889c2.949,2.992,5.585,5.716,8.298,8.36c0.352,0.344,1.19,0.525,1.656,0.361c2.792-0.981,5.54-2.086,8.677-3.293
		c-3.17-2.524-5.97-4.794-8.827-6.992c-0.521-0.4-1.347-0.824-1.9-0.691C9.959,14.264,7.406,15.083,4.653,15.889z M26.412,9.775
		c2.722,2.362,5.004,4.443,7.413,6.366c0.629,0.502,1.738,0.863,2.479,0.683c2.199-0.537,4.324-1.376,6.961-2.259
		c-2.855-2.457-5.579-4.192-8.48-5.745c-1.666-0.892-3.201-1.001-4.885-0.386C28.962,8.778,28.034,9.15,26.412,9.775z M14.51,31.761
		c0.323,0.157,0.522,0.343,0.647,0.302c3.227-1.05,6.457-2.094,9.651-3.239c0.323-0.116,0.416-0.871,0.93-2.051
		c-3.935,1.304-7.219,2.35-10.458,3.52C14.898,30.431,14.762,31.254,14.51,31.761z M14.971,38.712
		c3.365-1.147,6.653-2.213,9.885-3.43c0.469-0.177,0.664-1.077,1.223-2.058C15.2,36.762,15.2,36.762,14.971,38.712z M15.62,27.995
		c3.244-0.957,6.488-1.915,9.732-2.872C22.816,24.459,19.122,25.594,15.62,27.995z M35.543,31.607
		c2.825-0.684,5.266-1.521,8.011-3.294C38.28,28.908,36.304,29.678,35.543,31.607z M42.862,18.63
		c-0.096-0.247-0.192-0.493-0.288-0.739c-1.191,0.376-2.481,0.577-3.546,1.178c-1.031,0.582-2.939-0.016-3.16,2.231
		C38.609,21.014,40.881,20.19,42.862,18.63z M3.16,21.662c-0.203,0.229-0.407,0.456-0.61,0.684c2.011,2.214,4.066,4.376,6.636,5.957
		C9.323,28.152,9.462,28,9.6,27.848C7.453,25.786,5.306,23.725,3.16,21.662z M42.889,21.466c-2.466,0.95-4.691,1.641-6.622,3.01
		C39.771,24.546,42.175,23.503,42.889,21.466z M20.979,32.718c-4.53,0.424-5.179,0.688-6.029,2.34
		C17.068,34.236,19.024,33.477,20.979,32.718z M8.604,24.153c0.086-0.094,0.172-0.188,0.258-0.281
		c-1.221-1.183-2.441-2.365-3.927-3.806C6.33,21.619,7.467,22.886,8.604,24.153z M42.673,25.815
		c-0.045-0.145-0.088-0.289-0.133-0.434c-0.817,0.247-1.64,0.475-2.449,0.747c-0.729,0.245-1.442,0.539-2.162,0.812
		c0.046,0.124,0.093,0.247,0.14,0.37C39.604,26.812,41.138,26.313,42.673,25.815z M3.703,28.315
		c-0.203,0.208-0.405,0.416-0.608,0.624c0.893,0.766,1.785,1.53,2.677,2.296C5.879,31.118,5.985,31,6.09,30.883
		C5.295,30.027,4.499,29.17,3.703,28.315z M3.17,25.411c-0.15,0.172-0.301,0.343-0.452,0.514c0.559,0.352,1.118,0.702,1.677,1.053
		c0.088-0.125,0.177-0.251,0.266-0.376C4.164,26.205,3.667,25.808,3.17,25.411z M10.777,33.26c0.132-0.157,0.264-0.314,0.396-0.472
		c-0.439-0.313-0.878-0.626-1.318-0.94c-0.075,0.107-0.149,0.214-0.225,0.321C10.013,32.534,10.395,32.897,10.777,33.26z"/>
</g>
<g>
</g>
<g>
</g>
<g>
</g>
<g>
</g>
<g>
</g>
<g>
</g>
<g>
</g>
<g>
</g>
<g>
</g>
<g>
</g>
<g>
</g>
<g>
</g>
<g>
</g>
<g>
</g>
<g>
</g>
</svg>
