<?xml version="1.0" encoding="iso-8859-1"?>
<!-- Generator: Adobe Illustrator 18.0.0, SVG Export Plug-In . SVG Version: 6.00 Build 0)  -->
<!DOCTYPE svg PUBLIC "-//W3C//DTD SVG 1.1//EN" "http://www.w3.org/Graphics/SVG/1.1/DTD/svg11.dtd">
<svg version="1.1" id="Capa_1" xmlns="http://www.w3.org/2000/svg" xmlns:xlink="http://www.w3.org/1999/xlink" x="0px" y="0px"
	 viewBox="0 0 144.259 144.259" style="enable-background:new 0 0 144.259 144.259;" xml:space="preserve">
<g>
	<path d="M134.871,65.213c0-0.206-47.891-50.447-52.738-55.287c-0.402-0.401-0.805-0.735-1.207-1
		c-3.428-3.557-5.916-6.131-6.84-7.054c-4.488-4.472-8.627,0.077-12.5,3.163c-0.043,0.018-45.574,44.24-53.158,54.295
		c-0.086,0.086-0.162,0.18-0.213,0.299c-0.539,0.727-0.838,1.257-0.856,1.522c0,0.085-4.063,71.173,1.658,73.037
		c1.822,0.59,3.797,0.992,5.85,1.249c0.478,3.941,1.187,6.473,2.205,6.806c6.404,2.086,14.801,1.761,21.23,1.958
		c8.721,0.282,17.555-0.564,26.275-0.812c13.525-0.385,27.182-1.129,40.707-0.71c7.859,0.248,20.435,2.104,28.037-0.753
		c3.703-1.385,3.779-11.603,3.873-18.264C137.324,114.31,140.736,73.413,134.871,65.213z M85.586,100.518
		c2.453-3.437,27.139-26.703,31.191-29.9c3.352-2.642,6.73-5.173,9.783-8.148c1.051,3.608,1.428,8.601,1.367,11.774
		c0.008,0.094,0,0.188,0,0.273c-0.018,0.47-0.025,1.061-0.043,1.753c-0.111,6.652-0.137,22.479-0.197,26.608
		c-0.152,9.653,0.359,25.6-2.582,28.285c-0.486,0.437-1.17,0.795-2,1.095c-0.01-0.009-0.01-0.017-0.025-0.026
		c-6.02-3.369-17.768-14.407-28.926-24.3c-0.436-0.393-0.863-0.769-1.291-1.146C90.365,104.587,87.92,102.467,85.586,100.518z
		 M62.176,6.737c2.018-1.59,5.027-4.31,7.602-4.293c1.137,0.009,3.941,2.181,7.711,5.67c2.891,2.676,6.353,6.122,10.072,9.952
		c16.066,16.579,36.912,40.443,37.135,40.657c0.471,0.462,0.881,1.146,1.24,1.966c-3.805,3.865-36.621,31.774-41.666,38.742
		c-6.242-5.122-11.543-8.816-14.459-9.064c-4.926-0.419-9.277,2.48-13.219,5.054c-1.213,0.795-2.42,1.599-3.617,2.411
		c-0.033-0.068-0.076-0.146-0.152-0.214c-1.438-1.351-2.857-2.736-4.275-4.13c-1.762-1.727-3.508-3.48-5.25-5.241
		c-0.104-0.094-0.197-0.188-0.301-0.291c-7.574-7.636-15.193-15.399-23.666-21.906c-0.359-0.291-0.719-0.564-1.086-0.83
		c-2.686-2.026-5.473-3.915-8.363-5.635C15.994,52.191,62.047,6.84,62.176,6.737z M7.428,111.197
		C7.172,97.021,8.65,65.975,9.137,61.135c2.772,1.65,5.439,3.463,8.021,5.395c0.35,0.256,0.701,0.521,1.043,0.795
		c0.982,0.744,1.949,1.513,2.906,2.3C28.299,75.499,34.926,82.22,41.5,88.855c0.051,0.051,0.104,0.103,0.146,0.146
		c2.19,2.206,4.377,4.412,6.574,6.558c1.094,1.102,2.182,2.206,3.275,3.3c-3.686,2.548-7.301,5.173-10.877,7.883
		c-8.422,6.37-16.596,13.057-24.906,19.572c-0.479,0.376-0.967,0.761-1.453,1.137c-1.668,1.299-3.352,2.599-5.037,3.882
		C7.932,128.059,7.521,116.268,7.428,111.197z M14.609,132.941c-1.248-0.18-2.521-0.385-3.891-0.607
		c1.223-0.932,2.438-1.864,3.643-2.805c0.496-0.376,0.975-0.752,1.463-1.137c7.771-6.054,15.424-12.279,23.223-18.298
		c4.473-3.454,9.012-6.806,13.654-10.021c0.471-0.342,0.941-0.667,1.42-0.992c0.076-0.06,0.154-0.111,0.23-0.162
		c4.643-3.189,10.398-7.807,16.35-6.661c1.4,0.265,5.129,3.053,9.977,7.063c12.775,10.56,33.363,29.593,40.102,33.543
		c-0.65,0.12-1.342,0.222-2.068,0.299c-7.26,0.787-18.17-0.282-23.992-0.265c-14.998,0.043-29.986,0.487-44.984,0.923
		c-7.584,0.214-15.16,0.496-22.777,0.206c-0.863-0.026-1.727-0.06-2.6-0.12c-0.514-0.017-1.017-0.051-1.531-0.085
		c-2.496-0.163-4.582-0.385-6.635-0.649C15.662,133.095,15.14,133.026,14.609,132.941z"/>
</g>
<g>
</g>
<g>
</g>
<g>
</g>
<g>
</g>
<g>
</g>
<g>
</g>
<g>
</g>
<g>
</g>
<g>
</g>
<g>
</g>
<g>
</g>
<g>
</g>
<g>
</g>
<g>
</g>
<g>
</g>
</svg>
