<?xml version="1.0"?>
<svg xmlns="http://www.w3.org/2000/svg" width="512" height="512" viewBox="0 0 128 128"><path d="M126.25,55H91.528L122.5,24.034h0l3.952-3.952a5.3,5.3,0,0,0,0-7.492L115.411,1.553a5.3,5.3,0,0,0-7.491,0L54.471,55H23.745V29.5A1.749,1.749,0,0,0,22,27.752h-7.12A14.892,14.892,0,0,0,0,42.627v70.621A14.767,14.767,0,0,0,14.75,128h111.5a1.749,1.749,0,0,0,1.75-1.75v-69.5A1.749,1.749,0,0,0,126.25,55ZM105.205,9.217l2.166,2.167-53.28,53.28-3.274-1.058,5.617-5.617h0ZM118.784,22.8,64.4,77.184,63.338,73.91l53.28-53.28ZM53.03,68l.83,4.722a1.752,1.752,0,0,0,1.421,1.421L60,74.971l1.35,4.178-7.174,1.577-6.9-6.9,1.577-7.174Zm-6.647,9.88,3.739,3.74-4.793,1.054Zm14.367-6.33L57.1,70.906l-.643-3.654,53.394-53.394,4.3,4.3ZM110.394,4.027a1.8,1.8,0,0,1,2.542,0l11.038,11.038a1.8,1.8,0,0,1,0,2.542l-2.715,2.715-3.4-3.4,0,0-.005,0L107.679,6.743ZM3.5,103.548V42.627A11.387,11.387,0,0,1,14.875,31.252h5.37v67h-5.37A15.045,15.045,0,0,0,3.5,103.548Zm121,20.95H14.75A11.263,11.263,0,0,1,3.5,113.248v-.125a11.387,11.387,0,0,1,11.375-11.375H22a1.749,1.749,0,0,0,1.75-1.75V58.5H50.971l-4.652,4.651a2.1,2.1,0,0,0-.471.862L41.322,84.594c-.222.59.571,2.5,2.086,2.085l6.27-1.379H98.2a5.258,5.258,0,1,1,0,10.515H75.882a8.767,8.767,0,0,0-8.757,8.756v.611a8.768,8.768,0,0,0,8.757,8.758H89.875a1.75,1.75,0,0,0,0-3.5H75.882a5.263,5.263,0,0,1-5.257-5.258v-.611a5.262,5.262,0,0,1,5.257-5.256H98.2a8.758,8.758,0,1,0,0-17.515H64.711c.035-.029.067-.059.1-.09.011-.011.026-.017.038-.028L88.028,58.5H124.5Z"/></svg>
