<?xml version="1.0" encoding="iso-8859-1"?>
<!-- Generator: Adobe Illustrator 18.0.0, SVG Export Plug-In . SVG Version: 6.00 Build 0)  -->
<!DOCTYPE svg PUBLIC "-//W3C//DTD SVG 1.1//EN" "http://www.w3.org/Graphics/SVG/1.1/DTD/svg11.dtd">
<svg version="1.1" id="Capa_1" xmlns="http://www.w3.org/2000/svg" xmlns:xlink="http://www.w3.org/1999/xlink" x="0px" y="0px"
	 viewBox="0 0 78.915 78.915" style="enable-background:new 0 0 78.915 78.915;" xml:space="preserve">
<g>
	<path d="M40.374,27.524c-7.789,0-14.125,6.337-14.125,14.125s6.336,14.125,14.125,14.125s14.125-6.337,14.125-14.125
		S48.162,27.524,40.374,27.524z M40.374,53.774c-6.686,0-12.125-5.439-12.125-12.125c0-6.686,5.44-12.125,12.125-12.125
		s12.125,5.439,12.125,12.125C52.499,48.335,47.059,53.774,40.374,53.774z"/>
	<path d="M77.317,37.615c-1.8-2.357-4.717-2.402-7.106-3.866c-0.617-2.313-1.504-4.517-2.612-6.584
		c0.251-0.101,0.463-0.301,0.553-0.64c0.53-1.991,2.115-3.466,1.999-5.626c-0.105-1.956-1.947-3.69-3.032-5.176
		c-0.829-1.136-2.079-2.898-3.664-2.936c-2.362-0.057-3.074,2.124-5.052,2.902c-0.285,0.112-0.461,0.309-0.562,0.536
		c-2.667-1.841-5.631-3.279-8.811-4.212c-0.611-2.756,0.203-6.922-1.787-9.191c-1.879-2.142-5.277-2.195-7.905-2.709
		c-6.358-1.242-6.904,7.984-8.608,12.002c-0.035,0.082-0.035,0.159-0.05,0.239c-3.48,1.155-6.691,2.906-9.5,5.144
		c-1.936-1.22-4.49-2.74-6.807-2.72c-1.63,0.015-2.788,2.681-3.746,3.676c-1.244,1.292-2.654,2.772-1.975,4.68
		c0.642,1.805,2.416,3.155,3.586,4.607c0.135,0.167,0.286,0.254,0.439,0.298c-1.293,2.624-2.214,5.46-2.717,8.437
		c-0.254-0.125-6.268,0.799-8.442,2.882c-1.572,1.505-0.297,4.407-0.217,6.17c0.089,1.955-0.006,4.438,1.977,5.571
		c2.315,1.324,5.528,1.486,8.185,1.355c1.094,2.917,2.618,5.623,4.492,8.047c-0.812,1.683-1.883,3.255-2.504,5.021
		c-0.655,1.863,0.404,2.916,1.909,3.927c1.851,1.242,4.147,2.341,6.209,3.167c2.329,0.933,4.471-1.577,6.257-2.612
		c0.058-0.033,0.098-0.074,0.144-0.113c1.675,0.738,3.422,1.34,5.237,1.772c0.016,0.043,0.015,0.084,0.038,0.128
		c1.056,2.007,1.335,4.382,2.993,6.034c1.467,1.462,4.187,1.063,6.023,0.968c1.941-0.101,4.705,0.487,6.28-1.058
		c1.942-1.903,2.297-4.908,3.195-7.377c0.002-0.006,0.001-0.011,0.003-0.017c2.062-0.823,4.01-1.87,5.827-3.098
		c2.639,2.178,5.514,3.979,8.631,1.476c1.146-0.92,3.117-2.205,3.126-3.904c0.013-2.436-1.705-4.629-2.013-7.057
		c-0.031-0.246-0.145-0.429-0.286-0.578c1.011-1.727,1.855-3.56,2.52-5.478c2.213-0.432,4.787-0.592,6.776-1.697
		c1.815-1.009,1.808-2.789,1.729-4.696C77.957,43.132,78.732,39.468,77.317,37.615z M73.529,48.857
		c-1.092,0.303-2.212,0.496-3.328,0.696c0.028-0.107,0.062-0.213,0.09-0.32c-0.708,0.338-1.484,0.546-2.27,0.707
		c-0.765,2.531-1.865,4.92-3.253,7.109c0.232,0.898,0.448,1.776,0.59,2.683c0.085-0.117,0.163-0.238,0.246-0.356
		c0.205,0.861,0.471,1.7,0.807,2.553c0.47,1.196,1.379,2.497,0.383,3.629c-1.094,1.241-2.964,3.031-4.735,2.285
		c-1.009-0.425-1.946-1.104-2.816-1.807c0.024-0.019,0.049-0.036,0.073-0.055c-0.22-0.104-0.432-0.229-0.646-0.35
		c-0.176-0.1-0.351-0.203-0.522-0.313c-0.224-0.145-0.448-0.289-0.663-0.447c-2.163,1.598-4.545,2.914-7.108,3.863
		c-0.112,0.322-0.247,0.633-0.38,0.943c-0.1,0.232-0.208,0.457-0.321,0.68c-0.152,0.298-0.301,0.598-0.48,0.875
		c0.056-0.017,0.111-0.037,0.167-0.055c-0.303,0.929-0.592,1.86-0.897,2.787c-1.037,3.151-3.636,2.755-6.237,2.828
		c-2.538,0.07-4.61,0.435-5.792-2.371c-0.32-0.76-0.581-1.537-0.878-2.301c0.109,0.017,0.214,0.045,0.324,0.062
		c-0.201-0.685-0.387-1.366-0.538-2.053c-0.005-0.02-0.01-0.038-0.016-0.058c-2.44-0.435-4.776-1.17-6.965-2.175
		c-0.662,0.366-1.33,0.722-2.005,1.065c-0.206,0.105-0.407,0.22-0.615,0.321c-0.217,0.105-0.428,0.185-0.634,0.244
		c-0.958,0.729-2.004,1.397-3.038,1.151c-1.523-0.362-3.216-1.62-4.627-2.346c-0.652-0.335-1.274-0.711-1.849-1.168
		c-0.8-0.637,0.064-1.748,0.38-2.387c0.433-0.875,0.925-1.722,1.378-2.588c0.063,0.07,0.121,0.146,0.185,0.215
		c0.266-0.658,0.631-1.29,0.969-1.932c-2.458-2.851-4.37-6.183-5.572-9.835c-0.19-0.004-0.378-0.004-0.566-0.005l0,0
		c-0.262,0-0.521-0.007-0.78-0.022c-0.048-0.003-0.097-0.005-0.145-0.009c-0.284-0.023-0.567-0.063-0.852-0.139
		c-1.55,0-3.09-0.171-4.618-0.467c-2.969-0.577-2.603-2.921-2.708-5.239c-0.105-2.301-1.382-4.52,2.138-5.035
		c1.581-0.231,5.654-1.544,6.337-1.807c0.466-3.586,1.594-6.968,3.255-10.02c-0.114-0.057-1.461-1.487-1.461-1.487
		c-0.052-0.112-1.616-1.986-2.296-2.843c-1.246-1.568-0.399-2.433,0.822-3.72c0.813-0.857,1.505-1.707,2.161-2.69
		c0.682-1.021,3.477,0.528,5.14,1.554c0.154,0.084,0.302,0.184,0.45,0.282c0.377,0.253,0.739,0.532,1.083,0.791
		c0.125,0.095,0.24,0.188,0.359,0.282c3.17-2.81,6.946-4.951,11.122-6.157c0.205-0.76,0.458-1.506,0.739-2.266
		c-0.029,0.007-0.058,0.017-0.087,0.024c0.683-1.859,1.217-3.759,1.806-5.658c0.833-2.688,1.831-4.384,4.783-3.808
		c2.51,0.491,5.74,0.4,6.659,3.311c0.376,1.189,0.438,2.471,0.494,3.758c0.11,0.324,0.221,0.649,0.321,0.988
		c0.184,0.36,0.296,0.762,0.318,1.171c0.024,0.097,0.038,0.199,0.061,0.296c0.155,0.667,0.288,1.348,0.397,2.035
		c3.471,0.934,6.676,2.511,9.502,4.577c0.505-0.289,1.018-0.587,1.532-0.864c0.501-0.271,1.004-0.519,1.505-0.69
		c0.3-0.227,0.59-0.472,0.89-0.75c0.871-0.809,1.559-1.851,2.989-0.608c0.587,0.51,1.024,1.198,1.478,1.821
		c0.911,1.247,2.679,2.861,2.34,4.6c-0.234,1.199-1.09,2.259-1.606,3.414c-0.025-0.04-0.047-0.081-0.073-0.121
		c-0.211,0.79-0.548,1.544-0.971,2.25c1.5,2.628,2.614,5.504,3.228,8.563c0.687,0.088,1.365,0.253,2.023,0.581
		c0.047,0.023,0.082,0.061,0.127,0.086c-0.02-0.118-0.046-0.232-0.067-0.35c0.841,0.353,1.71,0.634,2.61,0.927
		c3.355,1.093,2.472,4.049,2.577,6.776C76.043,46.322,76.262,48.1,73.529,48.857z"/>
</g>
<g>
</g>
<g>
</g>
<g>
</g>
<g>
</g>
<g>
</g>
<g>
</g>
<g>
</g>
<g>
</g>
<g>
</g>
<g>
</g>
<g>
</g>
<g>
</g>
<g>
</g>
<g>
</g>
<g>
</g>
</svg>
