<?xml version="1.0" encoding="iso-8859-1"?>
<!-- Generator: Adobe Illustrator 18.0.0, SVG Export Plug-In . SVG Version: 6.00 Build 0)  -->
<!DOCTYPE svg PUBLIC "-//W3C//DTD SVG 1.1//EN" "http://www.w3.org/Graphics/SVG/1.1/DTD/svg11.dtd">
<svg version="1.1" id="Capa_1" xmlns="http://www.w3.org/2000/svg" xmlns:xlink="http://www.w3.org/1999/xlink" x="0px" y="0px"
	 viewBox="0 0 78.396 78.396" style="enable-background:new 0 0 78.396 78.396;" xml:space="preserve">
<g>
	<path d="M74.197,66.202c-7.527-7.247-14.559-15.147-21.628-22.839c2.675-4.665,3.708-10.069,3.799-15.867
		c0.144-9.08-5.147-16.866-12.093-22.248C30.263-5.609,9.295,1.396,2.482,16.943c-0.112,0.255-0.117,0.498-0.054,0.716
		c-0.013,0.042-0.039,0.07-0.047,0.118c-1.099,6.135-1.942,11.899,0.143,17.853c0.654,2.432,1.394,4.807,2.622,6.681
		c13.539,20.656,38.225,10.651,39.766,9.922c4.584,6.665,10.035,12.668,15.898,18.229c3.089,2.932,7.602,11.099,12.543,6.619
		C77.906,72.954,78.582,70.425,74.197,66.202z M39.989,51.709c-0.36,0.166-0.73,0.314-1.1,0.47
		c-8.837,2.186-19.167,0.328-26.082-5.047c-3.236-2.516-6.653-8.044-8.208-11.838c-0.013-0.031-0.023-0.063-0.035-0.094
		c-0.919-3.297-1.382-6.897-1.157-10.322c0.078-0.833,0.091-1.685,0.303-2.5C9.274,0.964,31.607-0.226,41.754,6.007
		c14.087,8.652,17.151,29.863,5.013,41.459C44.748,49.392,42.446,50.737,39.989,51.709z M48.073,50.672
		c0.715,1.022,1.453,2.032,2.218,3.023C49.329,52.802,48.481,51.833,48.073,50.672z M68.659,65.917
		c0.663,0.631,1.39,1.301,2.061,1.992c0.668,0.93,1.328,1.862,1.995,2.777c0.033,0.046,0.07,0.084,0.108,0.121
		c0.013,0.035,0.028,0.068,0.042,0.103C71.17,69.566,69.91,67.707,68.659,65.917z"/>
	<path d="M26.52,9.885c-10.49,0.938-16.221,8.743-15.744,19.464c0.189,4.272,3.243,9.51,6.573,11.935
		c4.443,3.237,9.528,3.873,14.87,3.511c9.842-0.668,14.673-9.59,14.747-18.152C47.064,15.186,35.993,9.038,26.52,9.885z
		 M36.506,41.221c-4.35,1.687-8.688,2.024-12.912,0.548c-5.218-1.823-7.8-4.542-9.98-9.593c-1.792-4.153,0.745-18.723,11.512-19.614
		c9.009-0.747,16.696,1.996,19.363,11.372C46.289,30.266,42.848,38.762,36.506,41.221z"/>
</g>
<g>
</g>
<g>
</g>
<g>
</g>
<g>
</g>
<g>
</g>
<g>
</g>
<g>
</g>
<g>
</g>
<g>
</g>
<g>
</g>
<g>
</g>
<g>
</g>
<g>
</g>
<g>
</g>
<g>
</g>
</svg>
