<?xml version="1.0" encoding="iso-8859-1"?>
<!-- Generator: Adobe Illustrator 18.0.0, SVG Export Plug-In . SVG Version: 6.00 Build 0)  -->
<!DOCTYPE svg PUBLIC "-//W3C//DTD SVG 1.1//EN" "http://www.w3.org/Graphics/SVG/1.1/DTD/svg11.dtd">
<svg version="1.1" id="Capa_1" xmlns="http://www.w3.org/2000/svg" xmlns:xlink="http://www.w3.org/1999/xlink" x="0px" y="0px"
	 viewBox="0 0 83.041 83.041" style="enable-background:new 0 0 83.041 83.041;" xml:space="preserve">
<g>
	<path d="M35.173,28.879c0.036,0.847-0.111,2.341-0.252,4.062c0.076,1.1,0.13,2.202,0.134,3.309c0.014,4.443,1.125,7.86,6.303,7
		c7.107-1.181,14.452-0.318,21.628-0.864c6.45-0.491,12.873-1.273,19.324-1.704c-0.147-1.321-0.368-2.61-0.595-3.869l-0.279-1.581
		c-0.388-2.233-0.789-4.542-1.59-6.742c-0.17-0.466-0.334-0.934-0.498-1.4c-0.664-1.892-1.35-3.847-2.385-5.635
		c-1.186-2.05-2.531-4.373-4.217-6.381c-1.414-1.683-3.157-3.378-5.486-5.335c-1.637-1.375-3.819-3.128-6.193-4.502
		c-1.485-0.858-3.127-1.318-4.716-1.762C55.479,3.231,54.657,3,53.857,2.711c-2.492-0.907-4.756-1.694-7.248-2.131
		c-2.26-0.395-4.655-0.579-7.537-0.579L37.787,0c-1.426,0-2.832,0.023-4.229,0.141c0.017,1.878,0.016,3.756,0.004,5.634
		C35.315,13.168,34.866,21.471,35.173,28.879z M63.387,30.945c0.386-0.442,0.782-0.89,1.184-1.345
		c0.661-0.577,1.304-1.168,1.945-1.764C65.481,28.908,64.419,29.94,63.387,30.945z M79.9,38.686
		c0.043,0.258,0.091,0.523,0.131,0.781c-0.061-0.008-0.113-0.034-0.182-0.032c-1.569,0.041-3.137,0.109-4.706,0.188
		C76.734,39.333,78.32,39.019,79.9,38.686z M69.213,16.56c0.029-0.09,0.036-0.171,0.059-0.26c0.367,0.472,0.132,1.25-0.536,2.23
		c-0.357,0.293-0.722,0.579-1.069,0.88C68.344,18.463,68.903,17.507,69.213,16.56z M79.097,34.082c0.091,0.498,0.18,1,0.268,1.511
		l0.15,0.844c-1.863-0.359-3.623-0.37-5.574-0.154c-0.852,0.095-1.146,0.982-0.902,1.575c-2.536,0.42-5.081,0.758-7.639,0.941
		C69.877,37.404,74.868,36.115,79.097,34.082z M63.531,27.702c-0.517,0.466-1.042,0.928-1.588,1.382
		c-2.052,1.703-4.415,4.027-6.962,6.1c-0.251,0.109-0.49,0.224-0.718,0.341c1.486-1.418,2.873-2.948,4.221-4.598
		c1.114-0.991,2.195-2.011,3.259-3.047c1.788-1.407,3.553-2.847,5.223-4.395C65.932,24.95,64.729,26.358,63.531,27.702z
		 M56.027,30.08c0.981-1.44,1.913-2.829,2.831-3.977c1.406-1.759,4.275-4.681,6.299-7.726c-2.016,4.082-6.179,8.603-7.659,10.541
		C56.99,29.321,56.498,29.709,56.027,30.08z M65.192,10.757c-0.182,0.234-0.263,0.535-0.123,0.87
		c0.366,0.875,0.147,1.828-0.304,2.75c0.312-1.347,0.348-2.684-0.01-3.978C64.91,10.523,65.045,10.638,65.192,10.757z M61.36,8.711
		c0.552,1.164,0.432,2.542-0.094,4.003C61.597,11.267,61.676,9.892,61.36,8.711z M62.139,15.51
		c-1.727,4.717-6.403,9.852-8.147,12.443c-0.804,1.194-1.94,3.464-3.292,5.713c1.355-2.594,2.506-5.372,3.805-7.729
		c1.871-2.678,3.816-5.292,5.742-7.834C60.913,17.224,61.568,16.366,62.139,15.51z M57.899,9.417
		c0.084,2.387-1.071,5.439-2.45,8.265C56.455,15.127,57.544,12.2,57.899,9.417z M52.067,4.963c0.323,0.112,0.618,0.236,0.891,0.368
		c-0.353,0.753-0.684,1.515-0.996,2.286C51.979,6.735,52.017,5.85,52.067,4.963z M51.126,21.826
		c0.107-0.507,0.181-1.013,0.261-1.519c1.473-4.094,2.948-8.363,3.792-12.589c0.305,1.001,0.259,2.278-0.139,3.935
		c-0.898,3.738-2.365,7.274-3.767,10.84c-0.35,0.887-0.709,1.883-1.084,2.932C50.541,24.252,50.866,23.06,51.126,21.826z
		 M47.419,9.246c-0.038-1.568-0.149-3.135-0.352-4.704C48.204,5.378,47.866,7.504,47.419,9.246z M46.881,19.816
		c0.369-1.451,0.74-2.902,1.106-4.353c0.324-1.278,1.234-3.51,1.822-5.794c-0.017,1.49-0.028,2.976-0.07,4.463
		c-0.905,2.65-1.71,5.338-2.528,8.022c-0.272,0.704-0.543,1.406-0.812,2.113C46.563,22.784,46.729,21.299,46.881,19.816z
		 M45.328,8.516c0.155,3.587-0.102,7.19-0.47,10.773c-0.736,2.896-1.473,5.791-2.189,8.692c-0.146,0.593-0.302,1.19-0.458,1.79
		C43.389,22.706,43.867,15.524,45.328,8.516z M40.015,3.868c0.082,0.19,0.156,0.388,0.218,0.592c-0.152,0.38-0.287,0.766-0.408,1.16
		C39.838,5.02,39.899,4.435,40.015,3.868z M36.304,2.111c-0.021,0.097-0.045,0.19-0.035,0.308c0.314,3.364-0.431,6.407,0.535,9.717
		c0.116,0.399,0.215,0.789,0.311,1.177c-0.003,2.797-0.033,5.591-0.118,8.39c-0.204-6.497-0.186-13.375-2.281-19.541
		C35.241,2.134,35.77,2.12,36.304,2.111z"/>
	<path d="M76.805,45.343c-0.611,0.042-1.223,0.083-1.834,0.132c0.01,0.502,0.021,1.005,0.041,1.506
		c0.063,1.505,0.121,2.926-0.116,4.279c-0.365,2.086-1.071,4.173-1.779,6.117c-0.449,1.231-1.191,2.332-1.979,3.497
		c-0.423,0.628-0.861,1.276-1.252,1.95c-0.432,0.746-0.79,1.533-1.136,2.294c-0.558,1.223-1.084,2.378-1.87,3.313
		c-1.041,1.24-2.365,2.322-3.646,3.368c-0.362,0.297-0.725,0.593-1.08,0.892c-1.347,1.13-3.146,2.575-5.126,3.721l-0.951,0.557
		c-1.51,0.889-3.07,1.809-4.694,2.399c-1.931,0.703-4.067,1.271-6.178,1.64c-0.758,0.132-1.614,0.194-2.693,0.194
		c-0.597,0-1.199-0.018-1.802-0.036c-0.623-0.018-1.248-0.036-1.873-0.036c-2.174,0-4.293-0.177-6.297-0.528
		c-1.678-0.294-3.237-0.878-4.887-1.497c-0.372-0.139-0.743-0.278-1.115-0.414c-0.53-0.193-1.064-0.374-1.596-0.554
		c-1.527-0.517-2.969-1.005-4.277-1.761c-2.132-1.234-3.796-2.373-5.235-3.581c-1.41-1.185-2.641-2.658-3.832-4.084l-0.471-0.563
		c-1.641-1.953-2.782-3.532-3.7-5.119c-1.012-1.749-1.737-3.654-2.513-5.785c-0.62-1.705-1.093-3.583-1.533-6.093l-0.176-0.98
		c-0.312-1.718-0.633-3.493-0.633-5.274l-0.003-0.89c-0.008-1.912-0.015-3.719,0.289-5.455c0.24-1.373,0.783-2.662,1.356-4.025
		c0.273-0.648,0.544-1.294,0.782-1.946C5.247,31.9,5.46,31.2,5.675,30.501c0.427-1.397,0.83-2.715,1.504-3.879
		c0.782-1.352,1.862-2.588,2.907-3.784c0.348-0.398,0.695-0.795,1.032-1.197c0.404-0.481,0.795-0.978,1.187-1.476
		c0.965-1.229,1.877-2.39,2.99-3.324c1.958-1.644,3.604-2.836,5.181-3.747c1.029-0.595,2.246-0.89,3.533-1.203
		c0.842-0.205,1.712-0.415,2.552-0.721c0.532-0.194,1.06-0.402,1.59-0.61c0.658-0.258,1.298-0.505,1.94-0.729
		c-0.024-0.084-0.063-0.156-0.074-0.251c-0.066-0.537-0.126-1.07-0.188-1.603c-0.804,0.267-1.584,0.572-2.351,0.873
		c-0.515,0.203-1.03,0.406-1.547,0.594c-0.744,0.27-1.528,0.46-2.356,0.662c-1.358,0.33-2.762,0.67-4.02,1.398
		c-1.671,0.966-3.401,2.215-5.442,3.93c-1.258,1.057-2.272,2.348-3.253,3.595c-0.38,0.483-0.759,0.965-1.149,1.43
		c-0.33,0.393-0.67,0.781-1.009,1.17C7.6,22.892,6.46,24.197,5.588,25.702c-0.778,1.346-1.23,2.829-1.67,4.262
		c-0.205,0.669-0.408,1.337-0.646,1.992c-0.228,0.624-0.488,1.241-0.748,1.862c-0.588,1.397-1.197,2.844-1.473,4.419
		c-0.333,1.897-0.325,3.872-0.316,5.78L0.737,44.9c0,1.946,0.337,3.804,0.664,5.602l0.174,0.969
		c0.459,2.619,0.956,4.595,1.616,6.403c0.805,2.214,1.562,4.199,2.647,6.077c0.974,1.682,2.172,3.342,3.884,5.38l0.467,0.559
		c1.243,1.486,2.525,3.024,4.059,4.312c1.523,1.279,3.271,2.476,5.498,3.764c1.466,0.849,3.063,1.389,4.607,1.912
		c0.52,0.176,1.041,0.352,1.557,0.54c0.367,0.134,0.732,0.271,1.098,0.408c1.657,0.621,3.369,1.263,5.215,1.587
		c2.11,0.369,4.334,0.555,6.615,0.555c0.607,0,1.214,0.018,1.82,0.036c0.622,0.018,1.24,0.036,1.855,0.036
		c1.188,0,2.145-0.071,3.01-0.222c2.246-0.395,4.429-0.974,6.489-1.724c1.783-0.649,3.418-1.611,4.999-2.543l0.938-0.55
		c2.104-1.215,3.984-2.725,5.388-3.904c0.35-0.294,0.705-0.584,1.062-0.876c1.346-1.1,2.738-2.237,3.89-3.609
		c0.947-1.127,1.55-2.452,2.135-3.734c0.343-0.753,0.668-1.466,1.055-2.135c0.357-0.619,0.759-1.213,1.184-1.843
		c0.814-1.206,1.656-2.452,2.182-3.896c0.737-2.023,1.473-4.201,1.862-6.427c0.271-1.548,0.206-3.136,0.143-4.672
		C76.827,46.386,76.813,45.864,76.805,45.343z"/>
</g>
<g>
</g>
<g>
</g>
<g>
</g>
<g>
</g>
<g>
</g>
<g>
</g>
<g>
</g>
<g>
</g>
<g>
</g>
<g>
</g>
<g>
</g>
<g>
</g>
<g>
</g>
<g>
</g>
<g>
</g>
</svg>
