<?xml version="1.0" encoding="iso-8859-1"?>
<!-- Generator: Adobe Illustrator 19.0.0, SVG Export Plug-In . SVG Version: 6.00 Build 0)  -->
<svg version="1.1" id="Layer_1" xmlns="http://www.w3.org/2000/svg" xmlns:xlink="http://www.w3.org/1999/xlink" x="0px" y="0px"
	 viewBox="0 0 511.998 511.998" style="enable-background:new 0 0 511.998 511.998;" xml:space="preserve">
<g>
	<g>
		<path d="M410.575,198.35c-0.557-8.086-2.355-16.133-3.711-24.114c-0.539-3.176-1.082-6.389-2.045-9.468
			c-0.532-1.699-1.501-3.311-1.98-4.999c-0.614-2.174-0.388-4.482-0.88-6.736c-0.683-3.131-2.346-5.754-3.517-8.686
			c-1.551-3.885-2.886-7.718-4.679-11.525c-3.47-7.37-5.821-14.863-10.481-21.652c-8.541-12.44-20.214-24.092-33.115-31.814
			c-6.403-3.831-12.278-8.196-19.024-11.506c-7.312-3.588-15.188-5.571-22.668-8.757c-6.735-2.87-13.565-6.109-20.619-8.132
			c-3.829-1.098-7.611-1.29-11.534-1.736c-3.926-0.446-7.471-1.264-11.422-0.796c-8.561,1.016-17.094,0.898-25.608,2.491
			c-8.48,1.587-16.593,3.403-24.77,6.211c-6.841,2.351-13.581,5.098-20.277,7.826c-7.401,3.017-13.169,8.227-20.16,11.961
			c-13.787,7.365-25.521,19.651-35.43,31.537c-10.561,12.668-19.422,25.896-25.621,41.2c-2.885,7.125-4.881,14.563-7.676,21.719
			c-1.384,3.545-3.077,6.989-3.901,10.728c-0.878,3.989-1.053,8.169-1.593,12.212c-1.089,8.185-1.149,15.866-1.298,24.102
			c-0.152,8.35,1.267,16.523,1.139,24.846c-0.279,18.128,5.802,35.589,12.864,52.104c3.507,8.203,7.278,15.992,12.627,23.172
			c5.169,6.938,10.723,13.614,16.061,20.423c5.478,6.991,11.229,12.897,18.687,17.746c3.622,2.354,7.195,4.99,11.046,6.929
			c3.489,1.759,5.216,3.551,8.05,6.169c5.752,5.311,7.491,12.506,8.785,20.164c0.787,4.668,1.625,9.407,2.126,14.112
			c0.168,1.576,0.54,3.058,0.989,4.512c-2.73,1.635-4.873,4.646-6.018,8.117c-3.162,9.572,3.7,17.797,6.747,26.377
			c2.025,5.702-2.021,7.842-4.11,12.629c-1.61,3.689-1.671,7.619-0.341,11.427c2.041,5.843,6.248,8.932,11.228,10.637
			c3.076,4.514,7.735,8.674,11.436,11.44c7.319,5.47,14.612,10.886,21.831,16.477c6.711,5.199,13.17,5.928,21.471,6.235
			c4.744,0.175,9.447,0,14.152-0.605c3.962-0.511,8.747-1.783,12.762-1.288c3.466,0.428,5.629,1.588,9.111-0.075
			c2.318-1.108,4.779-2.309,6.841-3.818c7.261-5.316,11.365-13.642,17.407-20.074c3.08-3.279,5.542-6.347,7.903-10.162
			c2.354-3.804,5.351-6.738,8.142-10.191c2.73-3.377,7.1-8.309,7.54-13.063c5.652-6.043,7.082-13.995,0.704-20.739
			c-3.091-3.268-4.214-4.887-3.722-9.711c0.48-4.705,3.536-8.647,3.555-13.498c0.018-4.479-1.764-9-5.11-11.994
			c-2.03-1.817-3.611-2.367-5.464-2.513c-0.208-1.13-0.453-2.259-0.699-3.388c0.891-1.367,1.327-3.085,0.964-5.074
			c-1.332-7.339-2.152-14.679-3.629-22.031c-0.51-2.535-1.761-6.605-0.665-9.149c1.261-2.933,4.998-3.913,7.779-4.722
			c13.957-4.064,26.391-11.355,36.917-21.39c22.207-21.17,33.743-53.07,39.454-82.559c1.481-7.649,2.338-15.341,2.402-23.118
			C409.596,214.604,411.14,206.549,410.575,198.35z M304.207,479.583c-5.086,5.566-8.693,13.026-15.157,17.23
			c-0.996,0.647-2.279,0.806-3.237,1.489c-0.274,0.133-0.543,0.279-0.813,0.419c-2.028-1.55-6.889-0.882-9.078-0.8
			c-7.651,0.283-15.03,1.491-22.739,1.328c-3.744-0.08-7.895,0.533-11.388-1.026c-3.14-1.401-5.789-3.917-8.527-5.943
			c-5.869-4.345-12.38-7.792-18.313-12.069c9.347,0.637,18.628,0.815,28.099,0.744c11.108-0.084,22.654,0.753,33.686-0.42
			c10.432-1.109,20.968-1.145,30.761-5.418c0.22-0.096,0.438-0.205,0.658-0.302C306.907,476.443,305.614,478.045,304.207,479.583z
			 M324.916,408.658c-0.332,1.611-1.069,3.215-1.81,4.97c-1.043,2.466-1.788,5.238-2.126,8.072
			c-5.214,3.581-10.81,6.725-16.092,10.116c-3.105,1.995-5.469,4.711-8.75,6.151c-2.644,1.161-5.172,2.478-7.909,3.712
			c-0.944,0.426-0.857,1.93,0,2.382c9.643,5.086,17.717-1.892,25.909-6.772c2.508-1.494,5.237-3.051,7.891-4.731
			c0.094,0.259,0.186,0.519,0.292,0.773c1.343,3.208,3.934,4.526,5.743,7.245c1.152,1.73,1.588,0.125,0.448,2.648
			c-0.609,1.347-2.879,2.679-3.983,3.464c-5.462,3.877-13.067,6.896-15.939,13.436c-0.075,0.174-0.126,0.347-0.178,0.519
			c-0.388,0.21-0.782,0.417-1.164,0.629c-7.438,4.093-14.805,5.582-23.217,6.02c-4.635,0.241-9.125,1.118-13.784,1.164
			c-4.531,0.045-9.062,0.027-13.593,0.067c-9.066,0.081-18.132,0.224-27.199,0.197c-4.486-0.013-9.12,0.255-13.586-0.184
			c-3.594-0.354-7.876-0.419-11.351-1.209c-3.206-0.729-6.476-3.295-5.395-6.801c0.937-3.037,4.008-5.337,4.96-8.603
			c0.378-1.299,0.541-2.527,0.551-3.707c2.52,1.75,5.344,3.093,8.415,3.877c6.658,1.698,13.699,0.723,20.452,0.306
			c7.192-0.444,14.593-0.67,21.594-2.535c1.094-0.292,1.095-1.924,0-2.216c-11.917-3.177-23.965-0.912-35.934-2.68
			c-10.303-1.521-16.049-10.853-23.005-17.62c-0.383-0.372-0.799-0.553-1.203-0.586c-0.882-2.207-1.408-4.48-0.969-6.5
			c0.204-0.942,0.48-1.703,0.813-2.351c0.986,0.618,2.238,0.849,3.377,0.633c0.661,0.493,1.357,0.911,2.088,1.23
			c3.837,1.675,7.783,3.212,12.01,3.321c4.827,0.124,9.699-0.605,14.519-0.218c4.698,0.378,9.049,1.521,13.806,1.548
			c4.973,0.028,9.949,0.032,14.921,0.139c9.891,0.213,19.616,1.331,29.369-0.942c8.463-1.973,17.337-3.056,25.648-5.605
			C316.213,416.275,321.747,413.498,324.916,408.658z M221.988,249.774c4.937,4.782,11.389,7.825,18.289,8.016
			c6.54,0.18,14.099-1.418,19.434-5.29c3.882-2.817,8.556-6.528,11.773-10.622c4.56,2.892,9.718,5.477,14.878,5.716
			c6.811,0.317,14.717-2.269,19.823-6.801c3.07-2.724,5.497-6.206,8.154-9.321c0.185-0.218,0.364-0.431,0.541-0.646
			c0.172,0.32,0.361,0.624,0.565,0.902c0,0.173-0.036,0.383-0.153,0.633c-0.467,1.012-0.536,2.414-0.843,3.517
			c-0.473,1.706-1.086,3.37-1.537,5.081c-1.043,3.967-1.694,8.049-3.065,11.93c-1.409,3.993-3.065,7.592-4.057,11.744
			c-3.923,16.426-8.993,32.414-12.396,48.913c-1.56,7.564-3.862,15.326-6.053,22.732c-2.532,8.568-4.024,16.923-5.819,25.648
			c-1.784,8.667-3.598,17.177-4.947,25.942c-1.211,7.863-3.21,16.12-3.211,24.094c-6.255,0.432-12.644-0.204-18.866-0.198
			c-6.682,0.005-13.414,0.501-20.043-0.228c0.291-1.043,0.527-2.087,0.632-3.122c0.3-2.963-0.996-6.007-1.573-8.901
			c-1.71-8.587-4.149-17.037-5.965-25.612c-1.819-8.587-3.529-16.851-6.011-25.291c-2.557-8.693-4.774-17.468-6.919-26.268
			c-4.067-16.679-9.817-32.815-15.26-49.076c-2.592-7.743-5.286-15.448-7.77-23.225c2.572,1.382,5.491,2.096,8.735,2.227
			c6.798,0.271,13.463-1.84,19.009-5.619C220.095,247.737,220.968,248.784,221.988,249.774z M224.387,214.144
			c1.687,0.234,0.336,7.453,0.074,8.628c-0.62,2.783-1.611,5.411-3.016,7.831c-0.268-1.611-0.448-3.22-0.549-4.765
			C220.775,223.935,221.081,213.686,224.387,214.144z M268.189,217.538c1.013,3.013,0.762,7.583-0.075,11.24
			c-0.556-0.835-1.032-1.794-1.421-2.972c-0.74-2.246-3.542-13.666-0.866-15.011C264.487,211.467,267.707,216.109,268.189,217.538z
			 M395.038,212.629c-0.724,7.905-0.603,15.821-1.723,23.689c-2.315,16.246-7.085,31.926-13.675,46.931
			c-6.981,15.889-15.839,29.229-29.394,40.244c-3.504,2.846-6.868,4.489-10.942,6.317c-3.348,1.501-6.221,3.754-9.672,5.03
			c-6.181,2.285-12.362,4.09-16.704,9.432c-5.094,6.266-4.461,13.881-2.85,21.296c1.031,4.742,1.776,9.443,2.51,14.158
			c-0.616,2.751-0.833,5.599-0.776,8.408c0.073,3.627,1.747,7.085,1.699,10.658c-0.077,5.637-8.852,6.472-13.214,7.46
			c-7.015,1.591-14.085,3.577-21.133,4.943c3.123-8.411,5.109-16.664,6.595-25.586c1.554-9.338,4.168-18.4,5.691-27.725
			c1.524-9.337,4.493-18.213,6.74-27.381c1.119-4.566,2.838-8.96,3.85-13.554c0.924-4.195,1.349-8.484,2.334-12.668
			c2.146-9.122,5.579-17.974,7.83-27.117c1.163-4.721,1.93-9.697,3.427-14.325c1.369-4.235,3.299-8.134,4.419-12.477
			c1.017-3.949,6.828-19.003,2.927-24.044c-0.079-0.674-0.235-1.396-0.347-2.017c-0.336-1.868-1.303-3.682-2.979-4.674
			c-0.476-0.281-0.988-0.47-1.517-0.583c-1.232-1.17-3.131-1.509-4.573,0.095c-2.264,2.521-5.179,4.29-7.485,6.833
			c-2.887,3.184-5.337,7.283-9.113,9.481c-7.75,4.512-14.206,2.047-21.439-1.398c2.836-9.335,1.131-21.334-5.419-28.271
			c-2.448-2.592-6.207-3.901-9.046-1.077c-3.963,3.942-3.248,12.512-2.601,17.455c0.731,5.59,2.152,10.404,5.736,14.227
			c-1.458,1.567-3.156,2.931-4.83,4.36c-3.565,3.043-5.991,5.588-10.62,7.015c-8.365,2.58-18.518,1.221-23.534-6.226
			c2.258-2.49,4.148-5.325,5.522-8.443c3.039-6.894,6.296-25.308-5.032-26.936c-12.716-1.827-12.402,19.139-11.249,26.436
			c0.271,1.72,0.59,3.399,0.997,5.031c-5.671,4.785-13.76,8.185-20.618,4.767c-7.314-3.648-7.572-14.271-13.452-19.203
			c-2.634-2.209-6.379,1.358-3.837,3.836c0.056,0.055,0.096,0.118,0.151,0.174c-0.739,0.345-1.412,0.891-1.924,1.635
			c-4.054,5.894,0.951,13.003,3.492,18.521c3.567,7.743,5.809,16.454,8.548,24.544c5.608,16.561,11.726,33.051,15.985,50.026
			c4.319,17.218,9.843,34.171,13.341,51.554c1.695,8.43,3.607,17.166,6.483,25.273c1.496,4.217,2.993,8.147,4.327,12.219
			c-6.48-0.058-13.281,1.178-19.244-0.63c-1.185-0.36-2.547-0.82-3.658-1.317c-0.064-0.022-0.111-0.036-0.165-0.053
			c-0.42-0.674-0.84-1.349-1.261-2.025c-0.616-1.064-1.056-2.08-1.384-3.103c0.423-10.266-0.656-20.825-3.488-30.383
			c-1.75-5.907-4.533-10.191-8.767-14.595c-2.547-2.648-4.724-5.446-7.968-7.331c-3.133-1.819-6.19-3.293-9.251-5.305
			c-6.302-4.143-11.813-7.562-16.895-13.301c-4.885-5.518-9.38-11.394-14.126-17.034c-10.424-12.384-17.52-26.535-22.721-41.847
			c-2.255-6.639-4.335-13.512-5.406-20.452c-1.217-7.882-0.647-16.204-1.449-24.204c-0.747-7.448-0.541-15.436-0.4-22.927
			c0.137-7.255,1.012-15.647,2.899-22.654c1.889-7.019,5.201-13.897,7.626-20.773c2.766-7.845,5.847-15.693,10.375-22.678
			c8.559-13.195,17.903-25.964,29.871-36.332c5.591-4.845,10.855-9.873,17.348-13.489c2.887-1.607,5.991-2.881,8.726-4.739
			c3.277-2.227,5.837-4.883,9.49-6.55c14.44-6.593,29.574-11.162,45.141-14.034c7.162-1.322,14.399-0.902,21.621-1.79
			c7.239-0.891,16.031,0.703,22.886,3.192c7.007,2.546,13.741,5.762,20.661,8.52c6.975,2.78,13.86,4.804,20.487,8.433
			c6.271,3.436,12.494,7.509,18.459,11.465c6.177,4.096,11.108,10.141,15.986,15.629c4.586,5.161,8.947,10.252,11.904,16.57
			c3.498,7.47,6.29,15.397,9.352,23.035c1.305,3.257,2.295,5.123,2.704,8.613c0.433,3.711,1.7,6.461,2.911,9.909
			c2.352,6.698,2.841,14.333,4.043,21.316C395.547,197.659,395.737,205,395.038,212.629z"/>
	</g>
</g>
<g>
	<g>
		<path d="M80.666,280.973c-6.33-4.027-14.937-2.527-21.672-0.178c-4.14,1.444-13.738,4.281-13.686,10.232
			c0.051,5.851,8.756,7.336,12.885,6.59c4.088-0.738,8.077-2.531,12.005-3.851c3.641-1.224,7.303-2.221,10.468-4.455
			C83.643,287.208,83.895,283.027,80.666,280.973z"/>
	</g>
</g>
<g>
	<g>
		<path d="M84.564,182.724c-1.171-0.167-3.268-2.211-4.75-2.937c-2.963-1.451-6.197-2.467-9.287-3.617
			c-5.303-1.972-10.443-4.446-15.782-6.293c-2.322-0.804-5.276,0.098-6.939,1.834c0.028-0.077,0.059-0.153,0.088-0.231
			c-2.36,1.165-3.085,4.555-1.828,6.738c1.431,6.474,9.979,10.677,15.544,12.791c6.36,2.417,16.101,5.315,22.952,3.508
			C89.997,193.087,90.77,183.615,84.564,182.724z"/>
	</g>
</g>
<g>
	<g>
		<path d="M121.745,96.574c-3.498-10.29-9.707-18.239-15.562-27.125c-4.307-6.536-14.3-3.968-14.641,3.966
			c-0.208,4.852,2.608,8.52,5.858,11.831c3.052,3.111,5.676,6.523,8.687,9.678c3.047,3.193,5.366,5.472,9.772,6.261
			c1.266,0.226,4.704-0.071,1.495,0.327c0.678-0.084,1.062,0.394,1.84,0c0.241-0.099,0.471-0.22,0.69-0.363
			C121.33,100.233,122.332,98.299,121.745,96.574z"/>
	</g>
</g>
<g>
	<g>
		<path d="M230.212,24.939c-0.86-3.443-2.211-6.682-2.812-10.21c-0.699-4.099-0.564-7.393-2.705-11.113
			c-2.623-4.552-10.309-5.085-12.784,0c-3.349,6.876-1.295,14.715,1.25,21.659c2.238,6.111,4.096,12.55,5.352,18.953
			c1.126,5.751,10.037,5.47,11.351,0C231.391,37.86,231.835,31.425,230.212,24.939z"/>
	</g>
</g>
<g>
	<g>
		<path d="M375.89,22.503c-8.527,1.064-12.465,6.885-18.195,12.482c-4.541,4.438-10.974,8.763-11.474,15.654
			c-0.326,4.481,4.316,6.821,8.077,6.153c0.315-0.055,0.63-0.112,0.945-0.168c1.51-0.268,2.716-1.309,3.477-2.648
			c3.525-2.464,7.39-4.487,10.77-7.194c4.033-3.229,8.509-7.135,11.891-11.021C385.253,31.313,383.177,21.593,375.89,22.503z"/>
	</g>
</g>
<g>
	<g>
		<path d="M452.694,101.393c-4.498-0.972-9.898,0.496-14.292,1.44c-6.344,1.362-13.136,1.859-18.974,4.991
			c-3.253,1.746-3.208,6.818,0,8.576c6.895,3.778,16.245,3.577,23.722,1.638c5.117-1.325,13.568-5.677,13.224-11.812
			C456.255,104.116,454.911,101.872,452.694,101.393z"/>
	</g>
</g>
<g>
	<g>
		<path d="M466.672,218.271c-0.657-6.733-6.13-10.075-11.453-13.389c-2.592-1.615-5.389-2.481-8.354-3.07
			c-2.442-0.485-5.827-0.385-8.066-1.394c-4.332-1.952-11.003,2.534-7.424,7.424c3.694,5.043,8.283,6.846,13.164,10.424
			c5.488,4.023,9.909,7.543,17.142,6.56C464.366,224.46,466.931,220.928,466.672,218.271z"/>
	</g>
</g>
<g>
	<g>
		<path d="M454.602,318.234c-1.296-2.737-3.551-3.935-5.868-5.672c-1.638-1.229-2.994-2.939-4.574-4.292
			c-4.385-3.756-9.887-5.024-14.5-8.277c-5.968-4.212-11.185,4.527-7.243,9.388c3.521,4.342,7.632,8.025,11.194,12.292
			c3.663,4.388,8.597,7.68,14.484,7.901C454.235,329.803,456.912,323.108,454.602,318.234z"/>
	</g>
</g>
<g>
	<g>
		<path d="M146.876,198.665c-4.122,1.122-7.244,4.088-9.718,7.444c-2.205,2.989-5.533,8.627-2.161,11.97
			c3.24,3.213,5.511-2.046,6.47-4.388c1.453-3.547,4.193-7.795,7.73-9.52C152.311,202.651,150.109,197.786,146.876,198.665z"/>
	</g>
</g>
<g>
	<g>
		<path d="M150.32,211.276c-1.721,1.902-3.262,3.999-5.046,5.836c-1.334,1.374-2.992,2.331-4.395,3.622
			c-3.086,2.837-5.61,6.811-6.678,10.862c-0.977,3.713,4.073,5.742,6.098,2.571c2.249-3.521,4.095-6.882,7.263-9.67
			c3.133-2.758,4.871-6.397,7.344-9.684C156.898,212.165,152.527,208.836,150.32,211.276z"/>
	</g>
</g>
<g>
	<g>
		<path d="M146.725,230.41c-0.553,1.494-1.935,2.378-2.891,3.584c-0.995,1.255-1.647,2.711-2.673,3.95
			c-2.042,2.465-4.433,4.372-5.947,7.255c-1.238,2.354,1.462,5.821,3.983,3.982c3.151-2.298,6.023-5.086,7.999-8.494
			c1.636-2.82,3.509-6.436,3.864-9.691C151.349,228.362,147.528,228.244,146.725,230.41z"/>
	</g>
</g>
<g>
	<g>
		<path d="M149.715,246.613c-0.53-0.611-1.527-0.379-1.913,0.247c-0.474,0.767-0.973,1.643-1.835,2.711
			c-0.883,1.094-2.194,1.875-3.184,2.897c-1.641,1.693-3.801,5.795-0.221,6.763c2.912,0.789,6.111-2.918,7.062-5.272
			C150.646,251.431,151.735,248.937,149.715,246.613z"/>
	</g>
</g>
<g>
	<g>
		<path d="M158.943,278.469c-1.104,5.375-7.589,8.78-5.818,14.914c0.783,2.712,4.628,2.651,5.44,0
			c0.762-2.49,1.609-4.475,3.032-6.679c1.338-2.075,2.659-4.181,3.065-6.659C165.268,276.347,159.721,274.681,158.943,278.469z"/>
	</g>
</g>
<g>
	<g>
		<path d="M163.916,291.489c-0.544,2.859-7.853,14.998-1.209,15.673c2.987,0.304,3.555-3.753,4.197-5.827
			c0.957-3.083,1.873-5.927,2.295-9.131C169.594,289.218,164.481,288.521,163.916,291.489z"/>
	</g>
</g>
<g>
	<g>
		<path d="M341.481,130.182c-1.071-0.906-2.408,0.453-1.528,1.528c2.412,2.944,1.279,7.773,1.004,11.262
			c-0.317,3.982-0.847,7.704-1.988,11.557c-1.415,4.772-2.877,9.413-4.76,14.013c-1.055,2.58-2.333,10.169-6.209,6.164
			c-2.1-2.168-3.172-7.542-4.549-10.189c-2.228-4.283-4.725-8.588-7.712-12.384c-4.485-5.697-10.5-9.912-16.945-13.12
			c-7.695-3.829-15.583-7.126-23.251-11.054c-3.732-1.913-10.116-5.08-6.115-10.068c1.952-2.434,6.68-4.173,9.414-5.57
			c9.341-4.774,19.096-8.17,29.615-6.404c5.071,0.851,9.167,1.142,13.498,4.249c3.867,2.774,8.768,5.808,9.794,10.709
			c0.524,2.501,4.281,1.43,3.813-1.051c-1.343-7.131-9.83-13.196-15.951-16.401c-3.69-1.933-7.934-1.912-11.944-2.707
			c-4.079-0.81-8.046-0.613-12.153,0.064c-9.259,1.527-18.37,6.091-26.096,11.345c-4.568,3.105-8.195,7.806-4.634,13.148
			c1.764,2.646,4.825,4.413,7.585,5.81c4.461,2.256,8.85,4.805,13.42,6.833c9.021,4.003,18.025,7.21,24.854,14.742
			c3.698,4.077,6.553,9.171,9.019,14.074c1.92,3.817,3.004,8.417,5.5,11.936c3.158,4.448,8.061,4.208,10.737-0.556
			c4.529-8.059,8.721-19.544,9.647-28.716C346.141,143.526,346.448,134.38,341.481,130.182z"/>
	</g>
</g>
<g>
	<g>
		<path d="M365.912,213.523c-0.314-2.838-1.129-5.493-2.464-8.03c-1.686-3.202-5.106-4.732-6.655-7.908
			c-0.39-0.802-1.707-0.412-1.67,0.453c0.118,2.752,1.803,4.691,2.899,7.186c1.372,3.128,2.371,6.299,2.622,9.713
			c0.303,4.084-2.986,8.998-7.807,6.828c-5.393-2.426-5.284-10.76-3.86-15.16c0.499-1.541-1.84-2.131-2.394-0.66
			c-2.123,5.632-2.372,12.203,1.39,17.228c3.273,4.373,7.936,5.315,12.617,2.607C365.575,222.898,366.521,219.058,365.912,213.523z"
			/>
	</g>
</g>
<g>
</g>
<g>
</g>
<g>
</g>
<g>
</g>
<g>
</g>
<g>
</g>
<g>
</g>
<g>
</g>
<g>
</g>
<g>
</g>
<g>
</g>
<g>
</g>
<g>
</g>
<g>
</g>
<g>
</g>
</svg>
