<svg id="Capa_1" enable-background="new 0 0 299.933 299.933" height="512" viewBox="0 0 299.933 299.933" width="512" xmlns="http://www.w3.org/2000/svg"><path d="m257.063 286.305c-.191 0-.385-.01-.577-.031l-124.578-13.461c-.647-.068-1.339-.262-1.921-.561-.359-.168-.663-.309-.949-.466-63.946-29.112-109.089-77.257-110.982-79.293-1.075-1.158-1.586-2.734-1.394-4.303l22.403-183.472c.356-2.912 2.941-5.003 5.905-4.686l239.014 25.813c2.941.317 5.071 2.956 4.762 5.899l-26.345 249.754c-.149 1.421-.857 2.72-1.968 3.617-.959.771-2.149 1.19-3.37 1.19zm-123.103-24.065 118.33 12.784 25.218-239.082-228.429-24.669-21.452 175.682c8.806 8.987 50.784 50.039 106.062 75.155.092.041.181.083.271.13z"/><path d="m131.493 271.843c-.747 0-1.499-.157-2.215-.477-64.048-29.055-109.307-76.835-111.202-78.855-1.444-1.536-1.853-3.777-1.046-5.727.807-1.947 2.681-3.242 4.791-3.31.385-.013 38.804-1.36 62.483-13.303 1.502-.755 3.273-.763 4.783-.024 1.51.742 2.584 2.146 2.904 3.8 4.55 23.559 19.811 60.25 43.642 89.111 1.591 1.924 1.643 4.697.123 6.678-1.039 1.363-2.63 2.107-4.263 2.107zm-97.272-78.486c13.526 12.777 42.549 38.075 79.689 58.332-16.304-24.649-26.405-50.433-31.002-69.109-16.411 6.699-36.238 9.569-48.687 10.777z"/><path d="m152.89-9.626h10.736v181.015h-10.736z" transform="matrix(.114 -.994 .994 .114 59.927 228.931)"/><path d="m127.2 44.485h10.732v139.587h-10.732z" transform="matrix(.11 -.994 .994 .11 4.346 233.414)"/><path d="m140.046 64.865h10.735v175.907h-10.735z" transform="matrix(.117 -.993 .993 .117 -23.351 279.376)"/><path d="m240.452 299.933c-.259 0-.519-.021-.778-.058l-223.927-32.765c-1.426-.21-2.707-.98-3.559-2.149-.849-1.164-1.195-2.621-.957-4.041l10.924-65.542 10.588 1.766-10.022 60.138 213.086 31.177 1.229-9.797 10.651 1.331-1.911 15.237c-.178 1.431-.928 2.731-2.076 3.606-.939.715-2.082 1.097-3.248 1.097z"/></svg>