<?xml version="1.0" encoding="iso-8859-1"?>
<!-- Generator: Adobe Illustrator 17.1.0, SVG Export Plug-In . SVG Version: 6.00 Build 0)  -->
<!DOCTYPE svg PUBLIC "-//W3C//DTD SVG 1.1//EN" "http://www.w3.org/Graphics/SVG/1.1/DTD/svg11.dtd">
<svg version="1.1" id="Capa_1" xmlns="http://www.w3.org/2000/svg" xmlns:xlink="http://www.w3.org/1999/xlink" x="0px" y="0px"
	 viewBox="0 0 442.001 442.001" style="enable-background:new 0 0 442.001 442.001;" xml:space="preserve">
<g>
	<path d="M426.672,228.675l-138.979,87.514l-20.036-12.615c-4.674-2.942-10.848-1.539-13.79,3.134
		c-2.943,4.674-1.54,10.848,3.134,13.79l25.364,15.971c1.628,1.025,3.478,1.538,5.328,1.538c1.85,0,3.7-0.513,5.328-1.538
		l144.307-90.869c4.674-2.942,6.077-9.117,3.134-13.79C437.521,227.135,431.346,225.731,426.672,228.675z"/>
	<path d="M426.672,268.675l-138.979,87.514l-20.036-12.615c-4.674-2.941-10.848-1.539-13.79,3.134
		c-2.943,4.674-1.54,10.848,3.134,13.79l25.364,15.971c1.628,1.025,3.478,1.538,5.328,1.538c1.85,0,3.7-0.513,5.328-1.538
		l144.307-90.869c4.674-2.942,6.077-9.117,3.134-13.79C437.521,267.135,431.346,265.732,426.672,268.675z"/>
	<path d="M176.544,119.384L233.15,83.74l180.083,113.397l-125.54,79.052l-20.036-12.615c-4.674-2.942-10.848-1.54-13.79,3.134
		c-2.943,4.674-1.54,10.848,3.134,13.79l25.364,15.971c1.628,1.025,3.478,1.538,5.328,1.538c1.85,0,3.7-0.513,5.328-1.538
		l144.307-90.869c2.908-1.831,4.672-5.026,4.672-8.462s-1.764-6.631-4.672-8.462L238.479,63.46c-3.256-2.051-7.4-2.051-10.656,0
		l-61.935,39c-4.674,2.942-6.077,9.117-3.134,13.79C165.696,120.924,171.87,122.328,176.544,119.384z"/>
	<path d="M237.657,176.395l-222.329-140c-3.08-1.94-6.974-2.051-10.161-0.293C1.979,37.862,0,41.215,0,44.857v212.287
		c0,3.436,1.764,6.631,4.672,8.462l222.329,140c1.624,1.023,3.475,1.538,5.328,1.538c1.662,0,3.326-0.414,4.833-1.245
		c3.188-1.76,5.167-5.113,5.167-8.755V184.857C242.329,181.421,240.565,178.226,237.657,176.395z M222.329,379.03L20,251.623V62.971
		l202.329,127.406V379.03z"/>
	<path d="M82.75,233.628c4.209,2.65,8.506,3.995,12.771,3.995h0.001c9.939,0,20.637-8.158,20.64-26.069
		c0.002-17.113-9.991-36.813-22.751-44.849c-4.21-2.65-8.507-3.994-12.771-3.994c-9.94,0-20.639,8.158-20.639,26.071
		C60,205.897,69.993,225.596,82.75,233.628z M81.095,182.814c0.37,0.118,0.934,0.359,1.658,0.816
		c6.331,3.986,13.41,16.774,13.408,27.922c0,3.302-0.654,5.181-1.096,5.969c-0.37-0.119-0.933-0.36-1.658-0.816
		C87.078,212.719,80,199.932,80,188.783C80,185.48,80.654,183.602,81.095,182.814z"/>
	<path d="M130.836,218.908L167,241.68c1.654,1.042,3.497,1.539,5.318,1.539c3.322,0,6.571-1.654,8.472-4.673
		c2.943-4.673,1.54-10.848-3.134-13.79l-36.164-22.772c-4.672-2.941-10.848-1.539-13.79,3.134
		C124.759,209.79,126.162,215.965,130.836,218.908z"/>
	<path d="M130.835,258.907l36.164,22.773c1.655,1.042,3.498,1.539,5.319,1.539c3.322,0,6.571-1.654,8.472-4.672
		c2.943-4.674,1.54-10.848-3.133-13.791l-36.164-22.773c-4.674-2.942-10.849-1.539-13.791,3.133
		C124.759,249.789,126.162,255.963,130.835,258.907z"/>
</g>
<g>
</g>
<g>
</g>
<g>
</g>
<g>
</g>
<g>
</g>
<g>
</g>
<g>
</g>
<g>
</g>
<g>
</g>
<g>
</g>
<g>
</g>
<g>
</g>
<g>
</g>
<g>
</g>
<g>
</g>
</svg>
