<?xml version="1.0" encoding="iso-8859-1"?>
<!-- Generator: Adobe Illustrator 16.0.0, SVG Export Plug-In . SVG Version: 6.00 Build 0)  -->
<!DOCTYPE svg PUBLIC "-//W3C//DTD SVG 1.1//EN" "http://www.w3.org/Graphics/SVG/1.1/DTD/svg11.dtd">
<svg version="1.1" id="Capa_1" xmlns="http://www.w3.org/2000/svg" xmlns:xlink="http://www.w3.org/1999/xlink" x="0px" y="0px"
	 width="373.917px" height="373.916px" viewBox="0 0 373.917 373.916" style="enable-background:new 0 0 373.917 373.916;"
	 xml:space="preserve">
<g>
	<g>
		<path d="M111.392,282.606c-0.584,0.177-1.19,0.268-1.79,0.268c-1.096,0-2.189-0.292-3.154-0.864l-72.421-42.479l-15.89,4.08
			l97.515,57.214l240.12-72.022l-24.953-11.996L111.392,282.606z"/>
		<path d="M318,203.715l-4.433,1.328l-4.433,1.327l-173.562,52.062c-0.584,0.171-1.19,0.256-1.79,0.256
			c-1.096,0-2.186-0.292-3.154-0.853l-16.748-9.828l-14.578,4.372c-0.584,0.177-1.19,0.262-1.79,0.262
			c-1.096,0-2.189-0.292-3.154-0.853L61.442,232.48l-3.818-2.24l-3.815-2.241l-22.871-13.421l-18.849,4.848l22.871,13.42
			l3.815,2.241l3.815,2.24l67.011,39.312l212.88-63.851l4.433-1.327l4.427-1.328l18.383-5.517l-13.348-6.418L318,203.715z"/>
		<path d="M331.152,159.873l-5.735,1.721l14.931,7.179c2.313,1.114,3.715,3.541,3.52,6.11c-0.207,2.561-1.961,4.744-4.434,5.486
			l-15.855,4.759l-4.427,1.331l-4.433,1.327l-18.384,5.505l-4.421,1.333l-4.433,1.327l-165.433,49.621l11.749,6.893l167.019-50.102
			l4.434-1.327l4.42-1.327l18.39-5.505l4.433-1.333l4.421-1.328l37.004-11.098L331.152,159.873z"/>
		<path d="M35.694,210.146l3.818,2.241l22.871,13.42l3.815,2.241l3.818,2.234l27.496,16.13l9.03-2.703l4.077-1.225l4.08-1.224
			l164.428-49.321l4.434-1.328l4.433-1.327l18.383-5.511l4.433-1.328l4.428-1.328l22.408-6.722l-21.087-10.138l-22.402,6.722
			l-4.427,1.328l-4.433,1.327l-18.384,5.514l-4.433,1.328l-8.159,2.445l-130.826,39.245c-0.584,0.17-1.19,0.262-1.791,0.262
			c-1.096,0-2.186-0.299-3.154-0.859l-4.451-2.605l-3.83-2.247l-3.814-2.235l-22.871-13.42l-3.815-2.241l-3.818-2.24l-13.667-8.014
			l-3.815-2.241l-3.818-2.237l-10.58-6.205L0,189.205l31.879,18.699L35.694,210.146z"/>
		<path d="M306.735,141.219l-4.421,1.328l-4.433,1.327l-5.736,1.72l-4.433,1.331l-4.433,1.327l-22.402,6.723l-4.427,1.327
			l-7.775,2.333l-131.179,39.345c-0.584,0.171-1.19,0.262-1.79,0.262c-1.096,0-2.189-0.298-3.154-0.858l-4.469-2.619l-3.818-2.24
			l-3.814-2.24l-13.667-8.017l-3.818-2.241l-3.814-2.238l-10.583-6.211l-3.815-2.238l-3.815-2.237L40.103,154.88l-15.923,4.101
			l20.831,12.221l3.815,2.241l3.818,2.237l10.58,6.211l3.818,2.238l3.815,2.237l13.667,8.02l3.818,2.24l3.815,2.235l22.871,13.421
			l3.815,2.234l2.856,1.674l56.044-16.812l74.903-22.466l24.308-7.289l4.434-1.327l4.427-1.328l22.401-6.722l4.434-1.328
			l4.427-1.328l5.735-1.723l4.434-1.328l4.42-1.327l30.154-9.042l-24.93-11.99L306.735,141.219z"/>
		<polygon points="44.862,150.447 48.676,152.685 69.511,164.906 73.326,167.144 77.14,169.382 87.723,175.593 91.538,177.833 
			95.356,180.071 109.017,188.078 112.832,190.319 115.706,192.012 172.085,175.093 247.012,152.621 274.944,144.242 
			279.376,142.915 283.809,141.585 289.54,139.864 293.972,138.537 298.405,137.209 328.546,128.167 332.979,126.84 
			337.412,125.506 355.826,119.98 258.32,73.091 18.194,134.801 41.047,148.207 		"/>
	</g>
</g>
<g>
</g>
<g>
</g>
<g>
</g>
<g>
</g>
<g>
</g>
<g>
</g>
<g>
</g>
<g>
</g>
<g>
</g>
<g>
</g>
<g>
</g>
<g>
</g>
<g>
</g>
<g>
</g>
<g>
</g>
</svg>
