<?xml version="1.0" encoding="iso-8859-1"?>
<!-- Generator: Adobe Illustrator 16.0.0, SVG Export Plug-In . SVG Version: 6.00 Build 0)  -->
<!DOCTYPE svg PUBLIC "-//W3C//DTD SVG 1.1//EN" "http://www.w3.org/Graphics/SVG/1.1/DTD/svg11.dtd">
<svg version="1.1" id="Capa_1" xmlns="http://www.w3.org/2000/svg" xmlns:xlink="http://www.w3.org/1999/xlink" x="0px" y="0px"
	 width="365.88px" height="365.88px" viewBox="0 0 365.88 365.88" style="enable-background:new 0 0 365.88 365.88;"
	 xml:space="preserve">
<g>
	<path d="M301.606,166.71c0,0,0.35,4.096,0.078,10.282H63.06c-1.03-6.18-1.159-10.282-1.159-10.282H0v139.848h365.88V166.71H301.606
		z M249.157,236.636H127.302c-19.123,0.778-32.638-5.329-42.22-14.194h200.382C277.629,230.771,266.12,236.636,249.157,236.636z
		 M295.345,206.948H73.135c-2.666-4.807-4.734-9.753-6.28-14.459H299.78C298.823,197.195,297.393,202.141,295.345,206.948z
		 M304.341,161.925H63.066v-14.816h241.275V161.925z M304.341,132.929H63.066v-14.815h241.275V132.929z M304.341,103.134H63.066
		V88.321h241.275V103.134z M304.341,74.138H63.066V59.322h241.275V74.138z"/>
</g>
<g>
</g>
<g>
</g>
<g>
</g>
<g>
</g>
<g>
</g>
<g>
</g>
<g>
</g>
<g>
</g>
<g>
</g>
<g>
</g>
<g>
</g>
<g>
</g>
<g>
</g>
<g>
</g>
<g>
</g>
</svg>
