<svg id="Layer_1" data-name="Layer 1" xmlns="http://www.w3.org/2000/svg" viewBox="0 0 46.44 121.22"><path d="M188.92,124.79c-5.51,0-10.88.11-16.22-.14-.7,0-1.87-1.93-1.86-3,0-7.32-.1-14.67.59-21.94.92-9.59,5.33-17.25,13.8-22.55,5.6-3.5,7.16-8.91,5.3-14.72-1.32-4.11-4.16-6-8.36-5.42-4.47.58-4.64,4.08-4.69,7.54,0,.33.12.66.11,1q-.14,4.56-.29,9.12c-4.1-.14-8.21-.11-12.29-.51a3.82,3.82,0,0,1-2.71-2.4c-.62-6.54-1.81-13.22-1.08-19.65.78-6.82,10.74-12.89,19-12.48,10.08.51,19.69,2.13,24.19,13.22,4.74,11.67,4.53,22.43-5.18,31.65C187.53,95.67,186.61,110.3,188.92,124.79Zm-13.85-5.09,1.29,1.07c1.74-1.37,4.91-2.66,5-4.14.7-11.62,6.2-21.28,11.54-31.1,3.4-6.27,7.58-12.5,9.2-19.27,3-12.58-1.26-18.76-12.12-20.88-5.29-1-10.87-.65-16.32-.71a6.42,6.42,0,0,0-6.87,6C166,57,166,63.46,165.56,70.45l6.28-.48c.57-4.19.68-8.06,1.67-11.69,2-7.48,9.75-10.45,15.59-5.52a18.35,18.35,0,0,1,5.72,10.42c1.44,9.5-4.08,16.25-11.3,21.34-4.63,3.26-6.49,7.37-6.59,12.65-.08,4.06,0,8.13,0,12.19l-.8.1c-.57-1.4-1.14-2.79-2.25-5.53Z" transform="translate(-160.99 -39.66)"/><path d="M192.94,143.42a82.38,82.38,0,0,1-2.63,9c-3,7.31-7.81,9.78-14.48,7.81-6.31-1.87-11.18-9.68-10-16s9.38-13.11,15.9-13.12C188.55,131.1,192.61,135.7,192.94,143.42Zm-3.72,3.26c0-6.06-5.19-11.69-10.69-11.67-4.55,0-7.08,3.45-7.24,9.77-.12,4.9,5.25,9.81,10.65,9.74A7.56,7.56,0,0,0,189.22,146.68Z" transform="translate(-160.99 -39.66)"/></svg>