<svg id="Capa_1" enable-background="new 0 0 512 512" height="512" viewBox="0 0 512 512" width="512" xmlns="http://www.w3.org/2000/svg"><g><path d="m512 226c0-38.599-31.401-70-70-70h-47.077c12.993-12.716 21.077-30.428 21.077-50 0-38.598-31.402-70-70-70-25.561 0-48.438 13.528-60.764 35.195-9.348-3.414-19.291-5.195-29.236-5.195s-19.888 1.781-29.236 5.195c-12.327-21.668-35.203-35.195-60.764-35.195-38.598 0-70 31.402-70 70 0 19.572 8.084 37.284 21.077 50h-47.077c-5.523 0-10 4.478-10 10s4.477 10 10 10h20v100h-20c-38.598 0-70 31.402-70 70s31.402 70 70 70h86v50c0 4.305 2.754 8.126 6.838 9.487 4.082 1.356 8.58-.044 11.162-3.487l37-49.333 37 49.333c2.568 3.424 7.052 4.855 11.162 3.487 4.084-1.361 6.838-5.183 6.838-9.487v-50h49.999c5.522 0 10-4.478 10-10s-4.478-10-10-10h-49.999v-40h196v40h-56c-5.522 0-10 4.478-10 10s4.478 10 10 10h96c5.522 0 10-4.478 10-10s-4.478-10-10-10h-20v-100h20c5.522 0 10-4.478 10-10s-4.478-10-10-10h-11.077c12.993-12.716 21.077-30.428 21.077-50zm-166-170c27.57 0 50 22.43 50 50s-22.43 50-50 50-50-22.43-50-50c0-25.506 19.928-50 50-50zm-68.115 33.806c-1.252 5.276-1.885 10.693-1.885 16.194 0 19.572 8.084 37.284 21.077 50h-82.155c12.994-12.716 21.078-30.428 21.078-50 0-5.5-.633-10.917-1.885-16.194 7.012-2.5 14.447-3.806 21.885-3.806s14.874 1.306 21.885 3.806zm-161.885 16.194c0-27.57 22.43-50 50-50 27.759 0 50 22.492 50 50 0 27.57-22.43 50-50 50s-50-22.43-50-50zm326 70c27.57 0 50 22.43 50 50s-22.43 50-50 50h-86v-40h50c5.522 0 10-4.478 10-10s-4.478-10-10-10h-296v-40zm-106 60v80l-27-36c-3.995-5.325-11.999-5.333-16 0l-27 36v-80zm-35 66.667 25 33.333h-50zm-191-66.667h136v40h-136zm-40 160c-27.57 0-50-22.43-50-50s22.43-50 50-50h176v40h-146c-5.523 0-10 4.478-10 10s4.477 10 10 10h56v40zm176 40-27-36c-1.889-2.518-4.853-4-8-4s-6.111 1.482-8 4l-27 36v-80h70zm216-100h-106v-40h106z"/><circle cx="361" cy="406" r="10"/></g></svg>