<svg id="Layer_5" enable-background="new 0 0 64 64" height="512" viewBox="0 0 64 64" width="512" xmlns="http://www.w3.org/2000/svg"><g><path d="m63 13h-8v-1c0-1.654-1.346-3-3-3s-3 1.346-3 3v1h-2v-12h-14v12.101c-1.226.25-2.278.96-3 1.93-.912-1.225-2.359-2.031-4-2.031h-21v6h-4v36h12v3c0 2.757 2.243 5 5 5s5-2.243 5-5v-3h2.101c.465 2.279 2.484 4 4.899 4 1.13 0 2.162-.391 3-1.026v5.026h14v-8h12v-22.586l4-4zm-12-1c0-.551.448-1 1-1s1 .449 1 1v1h-2zm1 9c1.654 0 3-1.346 3-3v-1h-2v1c0 .551-.448 1-1 1s-1-.449-1-1v-3h10v12h-6v6h-14v-18h8v3c0 1.654 1.346 3 3 3zm-18.63 28c2.466-1.296 5.228-2 8.033-2h1.193c2.805 0 5.567.704 8.033 2zm-17.752-14 1.829-3.658c.211-.423.895-.422 1.105 0l1.83 3.658zm4.724-4.553c-.447-.892-1.344-1.447-2.342-1.447s-1.895.555-2.342 1.447l-.776 1.553h-3.882v-13h14v13h-3.882zm-7.342 18.553h-3.651c1.158-.611 2.384-1.089 3.651-1.424zm2-12h2v18h-2zm4 0h2v18h-2zm4 10.576c1.266.335 2.492.813 3.65 1.424h-3.65zm36.586-18.576-2.586 2.586v-2.586zm-14.586-26v10h-5-1-4v-2h6v-2h-6v-2h4v-2h-4v-2zm-11 12h5v20h14v13.067c-3.091-1.982-6.714-3.067-10.403-3.067h-1.193c-3.689 0-7.312 1.085-10.403 3.067v-30.067c-.001-1.654 1.345-3 2.999-3zm-8 0c1.654 0 3 1.346 3 3v30.062c-1.839-1.179-3.873-2.043-6-2.544v-9.755l-.882-1.763h4.882v-17h-18v17h4.882l-.882 1.764v9.755c-2.127.501-4.162 1.365-6 2.544v-33.063zm-23 38v-32h2v30h8v2zm15 8c-1.654 0-3-1.346-3-3v-1h6v1c0 1.654-1.346 3-3 3zm12-4c-1.654 0-3-1.346-3-3v-1h-4v-2h6 2 2v3c0 1.654-1.346 3-3 3zm5 4v-2h4v-2h-4v-2h6v-2h-6v-2h10v10zm22-8h-10v-2h8v-16h1.414l.586-.586z"/><path d="m43 17h4v2h-4z"/><path d="m43 21h4v2h-4z"/><path d="m43 25h10v2h-10z"/><path d="m43 29h10v2h-10z"/><path d="m57 21h2v2h-2z"/><path d="m57 17h2v2h-2z"/><path d="m33 17h4v2h-4z"/><path d="m33 21h4v2h-4z"/><path d="m33 25h4v2h-4z"/><path d="m33 29h4v2h-4z"/><path d="m33 33h4v2h-4z"/><path d="m33 37h18v2h-18z"/><path d="m33 41h18v2h-18z"/></g></svg>