<?xml version="1.0" encoding="iso-8859-1"?>
<!-- Generator: Adobe Illustrator 19.0.0, SVG Export Plug-In . SVG Version: 6.00 Build 0)  -->
<svg version="1.1" id="Capa_1" xmlns="http://www.w3.org/2000/svg" xmlns:xlink="http://www.w3.org/1999/xlink" x="0px" y="0px"
	 viewBox="0 0 512.061 512.061" style="enable-background:new 0 0 512.061 512.061;" xml:space="preserve">
<g transform="translate(1 1)">
	<g>
		<g>
			<path d="M489.697-0.97c-11.782,0-21.333,9.551-21.333,21.333v469.333c0,11.782,9.551,21.333,21.333,21.333
				s21.333-9.551,21.333-21.333V20.364C511.03,8.582,501.479-0.97,489.697-0.97z"/>
			<path d="M457.311,236.338L30.645,1.671C16.427-6.149-0.97,4.138-0.97,20.364v469.333c0,16.226,17.397,26.512,31.614,18.693
				l426.667-234.667C472.048,265.618,472.048,244.443,457.311,236.338z M41.697,453.617V56.444L402.763,255.03L41.697,453.617z"/>
		</g>
	</g>
</g>
<g>
</g>
<g>
</g>
<g>
</g>
<g>
</g>
<g>
</g>
<g>
</g>
<g>
</g>
<g>
</g>
<g>
</g>
<g>
</g>
<g>
</g>
<g>
</g>
<g>
</g>
<g>
</g>
<g>
</g>
</svg>
