<svg id="Layer_1" enable-background="new 0 0 91 91" height="512" viewBox="0 0 91 91" width="512" xmlns="http://www.w3.org/2000/svg"><g><g><path d="m47.2 84.3c-2-5.6-28.6-24.5-38.2-43.7-1.9-3.7-7.2-12.6-1.8-25.2 1.4-3.2 10.2-14.7 26-9.8 4.9 1.6 8.2 4 11.6 9.1 3.7-6 10.3-10 17.3-10.6s14.3 2.2 19 7.5c6.5 7.3 7.5 18.3 4.4 27.5s-9.8 16.3-17.1 22.8c-4.1 3.7-8.6 7.6-12.4 11.6s-7.6 7.1-8.7 12.4" fill="#fff"/></g><g><path d="m47.2 84.5c-2-4.9-26.1-21.8-35.7-38.9-1.8-3.3-6.2-7.7-1.8-21.8.9-3 7.1-13.7 22.9-9.3 4.9 1.4 8.8 5.4 12.2 10 3.7-5.3 10.3-10.8 17.3-11.3s13.7 2.6 18.4 7.3c6.5 6.5 4.4 15.6 1.3 23.8s-6.1 14.5-13.4 20.3c-4.1 3.3-8.6 6.8-12.4 10.3-3.8 3.6-7.6 6.3-8.7 11.1" fill="#f1afad"/></g><path d="m23.6 49.5c4.3 4.9 16.1 16.4 21.4 20.1.6.4 1.3.9 2.1.9 1.3.1 2.4-.2 3.3-1.1 8.6-7.9 17.5-14.2 25.6-22.8 2-2.2 8.2-10.4 9.5-13.1-.4 1-3.1 10.6-3.7 11.5-8.5 14-22.1 23.6-32.1 36.5-.5.6-1.1 1.4-1.9 1.2-.5-.1-.8-.4-1.2-.8-8.7-9-17.3-18.3-25.7-27.7-2.5-2.7-4.9-5.5-6.9-8.6-2.5-3.8-4.3-8-5.4-12.4-.2-1-1.5-4.6-.1-4.5.7.1 7.8 12.5 15.1 20.8z" fill="#e09b9c"/><g><path d="m68.1 1.5c-8.7-1.2-17.3 2.2-22.9 8.7-6.3-6.9-15.3-10.2-24.7-8-6.5 1.5-13.1 6.2-15.7 12.4-8.8 20.6 8.9 39.9 22.6 53.2 3.8 3.7 7.8 7.2 11.8 10.7 2.1 1.8 5.1 3.7 6.6 6.2-.1.2-.1.4-.2.5-.7 2.7 3.5 3.9 4.2 1.1 1.2-5 5-8.3 8.5-11.9 3.8-3.9 7.9-7.6 11.9-11.2 7-6.3 13.3-12.9 17.2-21.6 7.3-16.3-.2-37.4-19.3-40.1zm16 34.2c-2.1 10.6-9.9 18.5-17.6 25.4-4.5 4-8.8 8-13 12.3-2.2 2.3-4.3 4.5-5.8 7.1-2.3-3.7-6.3-7-9.1-9.8-6.8-6.8-13.6-13.4-19.6-20.9-4.6-5.8-9.6-13.2-10.6-20.8-.9-7.3 1.6-14.5 7.8-18.6 3.8-2.6 8.3-3.5 12.8-2.9 6 .9 10.3 3.8 13.7 8.7 1.2 1.8 3.7 1.9 4.9 0 5.9-9.1 17.9-11.9 27.2-6.4 9 5.4 11.2 16.3 9.3 25.9z" fill="#4e7a9f"/><g fill="#fff"><path d="m74.4 21.5c4 10-4.5 21.6-12.3 27-1.1.8-1.9 2.5-1 3.7.1.2.3.4.4.6 1 1.2 2.8.9 3.9 0 5.6-4.6 10-10.8 11.9-17.8 1.2-4.5 1.7-10.2-1.2-14.2-.5-.8-2.1-.4-1.7.7z"/><path d="m60 55.9c-.1-.5-.2-1-.5-1.4-.5-.9-1.5-1.5-2.6-1.5-1.3 0-2.9.8-3.1 2.3v.3c-.1.3-.2.6-.2 1 0 .7.3 1.3.8 1.9 1 1.1 2.7 1.4 4 .7 1.2-.7 1.8-2 1.6-3.3z"/></g></g></g></svg>