<svg id="Layer_1" enable-background="new 0 0 91 91" height="512" viewBox="0 0 91 91" width="512" xmlns="http://www.w3.org/2000/svg"><g><g><path d="m36 82.3c4.9 4.4 12 5.1 18.6 5.1 3.6 0 7.2-.1 10.6-1.2 5.3-1.8 9.5-6.2 12.2-11.2s3.4-9.4 4.4-15c1.2-6.5 1.9-14.2 2.3-20.8.3-5.8.5-17-4.4-17.5-2.8-.3-4.2 4.5-4.9 7.2-1.4 5.8-3.7 17.9-3.7 17.9.9-9.1.5-18.3 0-27.5-.2-2.9-.4-5.8-1.7-8.4s-3.1-4.3-6.2-3.2c-4.8 1.6-5.3 24.9-7.4 34.7.3-10.2.5-19.4.6-28.9 0-3.5-.5-7.7-3.6-9.3-2.7-1.3-6.6-.2-7.8 2.5-1.5 3.3-1.3 35.6-1.3 35.6s.4-28-3.5-31.2c-.8-.7-1.9-.9-3-.7-2.1.4-3.9 2.1-4.9 4s-1.3 4.1-1.6 6.3c-1.1 8.3-1.1 16.7-.2 25 .2 2.2.6 4.5.2 6.6-.3 2.2-1.5 4.4-3.4 5.5-2.1 1.1-4.7.7-7.1.7-3.3 0-7.2-.4-10.2 1.1-2.2 1.1-4.5 4.2-4.3 6.6.1 1.6 1.2 3.6 2.5 4.7 5.9 5.1 12.6 5.3 20.4 5.8 2.7.3 5.3 3.8 7.4 5.6z" fill="#fff"/></g><g><path d="m36 82.7c4.9 4.1 12 4.7 18.6 4.8 3.6 0 7.2-.1 10.6-1.2 5.3-1.7 9.5-5.7 12.2-10.4 2.7-4.6 3.4-8.8 4.4-13.9 1.2-6 1.9-13.2 2.3-19.3.3-5.4.5-15.7-4.4-16.2-2.8-.3-4.2 4.1-4.9 6.6-1.4 5.4-3.7 12.9-3.7 12.9.9-8.5.5-13.3 0-21.8-.2-2.7-.4-5.4-1.7-7.8s-3.1-4-6.2-3c-4.7 1.6-5.2 19.6-7.3 28.6.3-9.4.5-14.3.6-23.1 0-3.3-.5-7.1-3.6-8.6-2.7-1.2-6.6-.2-7.8 2.3-1.5 3.1-1.3 28.1-1.3 28.1s.4-21.1-3.5-24.1c-.8-.6-1.9-.8-3-.6-2.1.4-3.9 1.9-4.9 3.7s-1.3 3.9-1.6 5.9c-1.1 7.7-1.1 15.5-.2 23.3.2 2.1.6 4.1.2 6.2-.3 2-1.5 5.9-3.4 6.9-2.1 1.1-4.7.7-7.1.7-3.3 0-7.2-.4-10.2 1-2.2 1-3.2 2.6-3.1 4.9.1 1.5 0 2.7 1.2 3.7 5.9 4.8 12.6 4.9 20.4 5.4 2.7.1 5.3 3.3 7.4 5z" fill="#f9e7cf"/></g><path d="m17.9 69.3c4 .4 8.1.3 11.8 1.6 4.8 1.6 8.6 5.2 13.3 7 5.7 2.2 12.1 2.2 18 .6 3.5-1 7.1-3 9.7-5.6 2.8-2.8 4.6-5.6 8.2-9.2 1.2 1.2.6 3.7-.1 5.2-.8 1.8-1.6 3.6-2.4 5.4-.7 1.6-1.5 3.3-2.6 4.7-1.6 2-3.9 3.4-6.2 4.4-9.7 4.3-21.2 3.4-30.9-1.1-4.4-2-8.5-4.8-13.2-5.9-2.1-.5-4.3-.6-6.4-1-4.2-.7-12.5-3.4-12.3-9 .1-3 3.2-.8 4.6 0 2.6 1.8 5.4 2.6 8.5 2.9z" fill="#e2c5b4"/><path d="m47.3 54.9c1.4.4 4 1.3 5.3 1.9 4.1 2 6.7 6.5 6.6 11.1 0 .3 0 .7-.2.9-.3.6-1.2.6-1.8.3s-1-.9-1.3-1.4c-1.7-2.6-3.3-5.1-5.4-7.4s-4.6-4.2-7.5-5c0-.3 1.1-1.3 4.3-.4z" fill="#e2c5b4"/><g><g><path d="m27.9 75.1c-5.2-.7-10.7-1.2-15.3-3.7-1.9-1.1-4.9-2.7-5.2-5.2-.4-3.2 3.2-5.1 5.8-5.5 4.7-.6 10.4 1.3 14.7-1.1 4.2-2.4 5-7.5 4.6-11.9-.5-6.1-1.1-12.2-.8-18.3.1-3.1.3-6.3.8-9.4.4-2.5 1-6.3 3.8-7.3s2.9 2.8 3.3 4.9c.5 3.1.8 6.3.9 9.5.3 5 .4 10 .3 15.1h4.6c-.1-9.4 0-18.8.5-28.2.1-1.9 0-4 .5-5.8.3-1.1.8-1.7 2-2.1 2.6-.9 4.2 1 4.8 3.4 1.1 4.7.3 10.4.2 15.3-.1 5.5-.2 11.3-.4 17.2-.1 2.6 4 3.2 4.5.6 2.1-9.9 1.6-20.5 4.6-30.2.4-1.3.8-3.2 2.3-3.1 3.8.3 3.8 8.3 3.9 10.8.5 8.8.7 17.5-.1 26.3-.2 2.5 4 3.1 4.4.6 1-5.1 2-10.3 3.2-15.4.3-1.4 1.4-8.2 3.3-7.9 2.1.3 2.2 6.7 2.3 8.1.3 8.5-.7 17.3-2.1 25.6-1.5 9.1-3.7 19.2-12.1 24.6-4.7 2.9-10.3 2.9-15.6 2.7-5.2-.2-10.6-1-14.7-4.5-2.2-1.9-5.4 1.3-3.2 3.2 4 3.4 8.8 4.9 14 5.5 5.6.6 12 .8 17.4-1 10.8-3.7 15.8-14.5 17.7-25s3.7-21.8 2.8-32.6c-.3-3.4-.7-7.7-3.5-10-3-2.5-6.6-.8-8.3 2.3-2.1 3.9-2.6 8.7-3.5 13-.7 3.4-1.4 6.8-2 10.2 1.5.2 3 .4 4.4.6.5-5.6.6-11.1.5-16.7-.1-5.2-.1-10.6-.9-15.6-.6-3.3-2.1-7.2-5.3-8.7-2.3-1.1-5.3-.6-7.1 1.3-3.3 3.7-3.6 10.4-4.3 15-.9 6.6-1.3 13.3-2.6 19.8 1.5.2 3 .4 4.5.6.2-5.5.3-10.9.4-16.4.1-4.8.4-9.7.1-14.5-.2-3.2-1.1-6.9-4-8.8-2.8-1.9-6.8-1.6-9.5.3-3.5 2.5-3.2 7.3-3.4 11.1-.3 5.7-.4 11.3-.4 17v11.2c0 3 4.6 3 4.6 0 .1-5.7-.1-11.3-.5-17-.2-5 .2-16.4-6.6-17.3-5.7-.8-9.1 5.1-10 9.8-1.4 7.1-1.5 14.7-1.1 21.9.2 3.6 1 7.3.8 10.9-.1 1.5-.4 3.3-1.6 4.4-1.6 1.5-4.2 1.1-6.2 1-5.4-.2-11.4-.5-15.2 4.1-4.4 5.3-1.5 11.1 3.8 14.4 5.8 3.6 12.7 3.4 19.3 3.3 1.6.1 1.5-2.2-.1-2.4z" fill="#4e7a9f"/><g><path d="" fill="#f9e7cf"/><g><path d="m32.1 80.1c2.2 0 2.2-3.4 0-3.4-2.1 0-2.1 3.4 0 3.4z" fill="#4e7a9f"/></g></g><g><path d="m38.9 55.7c7.7.3 15 5.4 17.8 12.5" fill="#f9e7cf"/><path d="m38.7 56.7c3.2 1.3 6.4 1.6 9.4 3.6s5.4 5 6.8 8.4c1.1 2.6 4.8 1.1 3.6-1.5-1.8-3.9-4.6-7.2-8.3-9.6-3.2-2-7.7-4-11.5-3-1.1.3-1 1.8 0 2.1z" fill="#4e7a9f"/></g></g></g></g></svg>