<svg id="Layer_1" enable-background="new 0 0 91 91" height="512" viewBox="0 0 91 91" width="512" xmlns="http://www.w3.org/2000/svg"><g><g><path d="m14.6 23.4c-1.8 3.2-2.3 7-2.5 10.7-.4 8.4.6 16.9 1.6 25.2.4 3.6.9 7.3 2.1 10.7.6 1.8 1.5 3.6 2.4 5.3 1.5 3 3.2 6 6 7.9 2.4 1.6 5.3 2.1 8 2.8 16.9 4.1 41.9 2.2 44.3 1.6 2.4-.7 4.8-1.8 6.3-3.9 1.4-2.1 1.6-5.1 0-7-.9-1-2.2-1.5-3.5-2-4.3-1.6-8.7-2.7-13.1-3.5-5.6-.9-11.2-1.1-16.7-2.2-5.5-1-11.4-2.7-15.1-6.9-8.6-9.5-6.2-37.6-6.5-38.5-1.9-4.8-3.7-5.4-5.9-5.6-3-.4-6.2 3.1-7.4 5.4z" fill="#f9e7cf"/><path d="m30.3 37.1c-1.9 5-2.1 10.7-.2 15.7.8 2.2 2.1 4.2 3.3 6.2 1.1 1.8 2.2 3.7 3.9 5 1.7 1.4 3.8 2.2 5.8 3 4.7 1.6 9.5 2.9 14.4 3.8 2.7.5 5.6.9 8.3.3 2.4-.5 4.6-1.8 6.6-3.2 4.7-3.2 9.1-7.4 11.2-12.7 1.1-3 1.5-6.3 1.6-9.5.1-3.1.1-6.1-.6-9.1-1.9-8.4-9.2-15.1-17.5-17.3-14.2-3.6-31.6 4-36.8 17.8z" fill="#c9bbdc"/><path d="m49.6 25.1c7.9-1.8 16.6.3 22.8 5.5s9.3 14.5 9.1 22.6c.8.3 1.7-.3 2.1-1s.5-1.6.5-2.5c.3-8.3.2-17.5-5.3-23.8-3-3.6-7.4-5.7-12-6.9-7.6-1.8-15.8-.8-22.7 2.8-3.6 1.9-6.8 4.6-9.5 7.7-1 1.2-6.4 8.1-4.8 9.2 1.7 1.2 6.6-5.8 7.8-6.8 3.4-2.7 7.9-5.9 12-6.8z" fill="#fff"/><path d="m49.1 58c3.6 4.3 9.7 6.5 15.3 5.5 3.6-.7 7.6-2.6 10.5-4.8 2-1.5 5.9-5.2 5.9-5.2.6 2-.4 6-1.6 7.7-3.9 5.6-10.6 9.4-17.4 9.4-6.9 0-13.7-3.9-16.8-10-1.1-2.1-4.6-11.5-1.6-12.8 2.3-1 2.1 1.8 2.4 3.2.4 2.4 1.6 4.9 3.3 7z" fill="#b8a8d2"/><path d="m56.9 50.3c.9-.8 1.9-1.2 2.9-1.8 2.8-1.9 4.3-5.4 3.8-8.7.6-.3 1.4 0 1.8.5s.6 1.2.8 1.9c.6 2.8 1 5.8 0 8.5-.9 2.6-3.7 5.4-6.6 5.3-3-.3-5.4-3.4-2.7-5.7z" fill="#b8a8d2"/><path d="m16.6 26.3c1.4-1.2 3.6-1.6 5.3-.7 2.3 1.3 2.7 4.4 3 7 .3 2.7.8 5.5 1.6 8.1.4 1.4.9 2.9 2.3 3.4.8-7.3.8-14.7-.3-21.9-.2-1.7-.6-3.5-2-4.6-1.1-.9-2.7-1-4.1-.8-4 .6-7.4 3.5-8.9 7.2-.4 1-1.7 4.7-.6 5.5 1.5 1.3 2.8-2.4 3.7-3.2z" fill="#fff"/><path d="m29.7 75c18.4 7.7 40.6 6.2 46.4 4.4 4.1-1.3 4.3-3.1 5.4-2.3 1 .7 1.8 1.7 1.8 2.9 0 1.9-2 3-3.8 3.7-11.8 4.4-24.8 3-37.2 1.5-4.3-.5-8.7-1.1-12.9-2.5-5-1.6-15.1-7.2-13.9-13.8.7-3.6 2.2-3.3 4.2-1.3 2.7 2.7 6.4 5.9 10 7.4z" fill="#e2c5b4"/><path d="m81 72.1c-2.2-1.4-4.4-1.9-6.8-2.1 13.1-8.4 16.2-30.5 7.4-43-12.7-18-40.5-12.7-51 4.8-.1.2-.2.4-.3.6 0-3.8.5-8-.5-11.6-.5-1.8-1.5-3.2-2.7-4.2 0-.1.1-.2.1-.3 1.3-3.7 3.7-7.4 5.8-10.7 1.5-2.3-2-5.1-3.9-3-3.3 3.7-4.8 7.6-6.1 12.3-1.6-.2-3.3.1-4.9.9-2.3-4.7-4.4-9-7.7-13.1-1.8-2.2-4.8.5-3.6 2.7 2.4 4.6 5.4 8.6 7.8 13.1 0 0 0 .1.1.1-4.4 5.4-4.9 14.3-5 20.6-.2 8.3.7 16.9 2.1 25.1 1.2 6.9 3.8 13.7 9.7 18 6.1 4.5 14 5.4 21.3 6.2 8.9 1 18 1.2 27 .7 5.8-.4 16-2.2 16.2-9.8-.1-3.2-2.5-5.7-5-7.3zm-49.5-28.7c2.4-15.8 21-27.1 36.1-21.6 16.6 6 19.2 28.6 7.9 40.8-3.7 4-8.7 6.1-13.8 5.8-.2 0-.5 0-.7-.1-1.5-.2-3.1-.5-4.7-1.1-1.8-.7-3.5-1.7-5-2.8-.9-.9-1.8-1.9-2.7-2.8-.2-.2-.4-.3-.6-.4-2.2-2.8-3.6-6.3-3.6-10.1.1-7.4 5.7-15.8 13.9-14.2 9.3 1.8 8.7 13.2 1.2 17-1.8.9-.2 3.4 1.5 2.6 7-3 10.4-12.5 6-19-5.1-7.5-16.2-6.5-22-.6-6 6.2-7.2 16.3-3.2 23.9.8 1.5 1.8 2.9 2.9 4.2.3.4.6.9.9 1.3-2.3-.8-4.5-1.8-6.5-3.2-6.4-4.5-8.8-12.3-7.6-19.7zm42.9 40.3c-6.8 1.2-14.2.6-21.1.2-11.3-.7-27.9-.4-33.7-12.2-2.7-5.5-3.2-11.9-3.8-17.9-.7-7-1.2-14.1-.3-21.2.5-3.6 1-7.9 3.1-10.9 2.4-3.4 7-3.9 7.8 1 .6 3.5.2 7.3.2 10.9 0 3.1 0 6.1.1 9.2-1 6.8.4 14 4.6 19.4 5.4 7 14.2 9.7 22.8 10.7.5.2 1.1.3 1.6.4 2.8.6 5.8.6 8.7.8 3.2.3 6.4.5 9.6.5 2.3 0 5.1.7 6.6 2.6 3.2 4-3.4 6-6.2 6.5z" fill="#4e7a9f"/></g></g></svg>