<svg id="Layer_1" enable-background="new 0 0 91 91" height="512" viewBox="0 0 91 91" width="512" xmlns="http://www.w3.org/2000/svg"><g><path d="m61.7 21.8c1.1 1.9 2.4 3.7 3.3 5.7 1.5 3.1 2 6.5 2.4 9.9.9 6.9 1.3 14.1-1 20.6-.9 2.5-2.7 5.1-5.3 5.4-.7.1-1.4 0-2 .4s-.7 1.2-.8 2c-.3 3-.4 6.2-.3 9.3s.5 6.3-.8 9.1-5 4.7-7.5 3c-2-1.4-2.3-4.1-2.3-6.6-.1-4.6-.3-9.1-.4-13.7-.1-1.6-.6-3.6-2.1-3.7-.7 0-1.4.5-2.1.8-1.5.6-3.4-.3-4-1.9-.5-1.3-.1-2.9-1-3.9-1.4-1.5-3.9-.3-5.8-1-2.5-.9-2.5-2.9-3.9-3.9-2-1.5-4.5-.3-6.5-1.7-1.6-1.1-1.9-3.2-2-5.1-.3-4.6-.1-9.2.5-13.8.3-2.4.8-4.7 1.6-7 .9-2.4 2.2-4.7 3.2-7 1.7-3.7 2.7-7.7 3.1-11.7.1-1.4.1-3 1.1-4.1 1.9-2 26.3-2.6 28.5-.4 1.8 1.8.4 5.8.6 8.1.5 4 1.6 7.8 3.5 11.2z" fill="#f9e7cf"/><g fill="#e2c5b4"><path d="m22.8 46.4c.6.6 1.4 1 2.2 1.1 1.9.1 4-2 5.5-.9 1.2.9.7 2.8 1.6 4 1.8 2.3 6.1-.9 8.2 1.1 1.4 1.4.8 4.3 2.6 5 .9.3 1.8-.1 2.7 0 2.4.1.9 4.7-.4 5.1.2 2-2.6 3.2-4.3 2.2s-2.3-3.2-2.4-5.2c0-.5 0-.9-.3-1.3-.5-.8-1.7-.9-2.6-.5-.9.3-1.8.8-2.8.7-1.6-.2-2.5-1.9-3.2-3.4s-1.8-3.1-3.4-3c-.8.1-1.4.6-2.2.7-1.7.4-3.5-.9-4.2-2.6s-.5-3.5-.3-5.3c.3-.2 1.4.6 3.3 2.3z"/><path d="m65.1 52.8c-.4.6-1 1.2-1.7 1.4s-1.6 0-2-.6c-.2-.3-.3-.7-.3-1.1-.2-1.9.3-3.9-.3-5.8-.1-.3-.3-.7-.6-.7-.5 0-.6.6-.7 1.1-.2 4-.4 8-.5 12 0 1.2 0 2.6.9 3.4.6.5 1.6.6 2.4.4s1.5-.8 2.1-1.4c1.7-1.7 2.7-3.9 3.3-6.2s.8-4.7 1-7.1c.1-.8.2-2.4-.8-2.8-1.1-.4-1.1.9-1.1 1.6-.2 2.1-.5 4.1-1.7 5.8z"/><path d="m48.7 76.5c.2 1.5.8 3.1 1.8 4s2.4 1.2 3.5.3 1.5-2.6 1.8-4.2c.1-.3.2-.6.4-.6s.8 1.1.8 1.4c-.1 3.1 0 5.7-1.4 8.5-.2.4-1 1.6-1.3 1.7-1 .3-2.1.4-3-.1-1.1-.6-1.7-2-2.3-3.4-.7-1.9-1.3-3.9-1.6-5.9-.1-1.5 1.1-2.9 1.3-1.7z"/></g><path d="m21.1 38.9c.8-4.1 1.9-8.2 4.4-11.5.8-1.1 1.8-2.1 2.5-3.3.8-1.3 1.3-2.7 1.7-4.1 1.1-3.9 1.7-8.1 1.7-12.2 0-.5 0-1-.3-1.5-.3-.4-.9-.7-1.3-.4-.3.2-.4.5-.4.8-.5 2.1-.8 4.3-1.4 6.5-1.1 4-3.2 7.5-4.9 11.3s-2.9 7.9-2 11.9c0 .1.1.3.2.3s.3-.1.2-.2" fill="#fff"/><g fill="#4e7a9f"><path d="m56.2 4.2c-.2 4.8.3 9.9 1.8 14.5 1.6 5 4.9 9.1 6.3 14.1s1.3 10.2.9 15.3c-.4 4.5-.2 12.3-5.9 13.3-3 .5-1.7 5 1.2 4.5 5.1-.9 7.7-5.6 8.5-10.3 1-5.7 1.4-11.9.9-17.7-.6-5.9-2.8-10.7-5.5-15.9-3-5.8-3.2-11.9-4.2-18.3-.4-2.4-3.9-1.7-4 .5z"/><path d="m57.3 42.2c-1.6 5.7-1 12.2-1 18-.1 6.3 0 12.5-.3 18.8-.1 2-1.3 9.5-4.8 6.3-1.7-1.5-1.6-4.7-1.6-6.7-.1-6.3-.6-12.5 0-18.8.3-2.8-4-3.1-4.8-.6-.8 2.4-3.5 3-4 .3-.3-1.4-.2-2.8-.3-4.2-.1-2-2.6-3.2-4.1-1.7-2.7 2.7-5.5.7-5.7-2.7-.1-2-2.5-3.2-4.1-1.7-1.3 1.3-3.4.1-4.1-1.1-1.1-1.9-.9-4.5-.9-6.6-.1-4.8 0-9.9 2.1-14.3 1.8-3.7 4.4-6.9 5.6-10.9 1.3-4.2 1.6-8.7 1.7-13 .1-2.8-4.5-2.8-4.4 0 .3 6.7-.7 12.5-4.1 18.3-3.1 5.1-4.8 10.2-5.3 16.2-.4 4.6-1.1 11 2.5 14.6 2.7 2.7 7.5 3.1 10.2.3-1.4-.6-2.7-1.1-4.1-1.7.4 7.5 8.1 11.9 13.9 6.1-1.4-.6-2.7-1.1-4.1-1.7.2 3.7-.2 8.6 3.9 10.2 4.6 1.9 8.5-.7 10-5-1.6-.2-3.2-.4-4.8-.6-.4 4.2-.4 8.5-.1 12.7.2 3.4.1 7 .8 10.4 1.1 5.1 6.3 10.4 11.4 5.9 5.4-4.8 3.7-14.7 3.6-21.1-.1-4.3-.2-8.5-.2-12.8-.1-4.2.2-8.7-.8-12.8-.3-1.2-1.8-1.1-2.1-.1z"/></g></g></svg>