<svg id="Layer_1" enable-background="new 0 0 91 91" height="512" viewBox="0 0 91 91" width="512" xmlns="http://www.w3.org/2000/svg"><g><path d="m34.1 6.5c-1.9 2.1-2.8 5-3.4 7.8-3.2 13.5-3.2 27.6-3.2 41.5 0 1.9.6 4.5 2.5 4.6.7 0 1.3-.4 1.8-.8 1.7-1.4 2.6-3.6 3.4-5.6 4.5-11.9 7.5-24.3 9-37 .4-3.2 1.1-8.7-1.2-11.4-2.3-2.9-6.6-1.7-8.9.9z" fill="#fff"/><path d="m36.1 16.4c-1.6 1.8-2.3 4.1-2.8 6.4-2.6 11.2-3.6 22.8-3.6 34.2 0 1.6.5 3.7 2.1 3.8.6 0 1.1-.3 1.5-.6 1.4-1.2 2.1-2.9 2.8-4.6 3.6-9.8 7.1-20.1 8.3-30.5.3-2.7.9-7.2-1-9.4-2-2.4-5.5-1.4-7.3.7z" fill="#b0ddca"/><path d="m59.2 7.1c-1.9 2.1-2.8 5-3.4 7.8-3.2 13.5-3.2 27.6-3.2 41.5 0 1.9.6 4.5 2.5 4.6.7 0 1.3-.4 1.8-.8 1.7-1.4 2.6-3.6 3.4-5.6 4.5-11.9 7.5-24.3 9-37 .4-3.2 1.1-8.7-1.2-11.4-2.3-2.8-6.6-1.6-8.9.9z" fill="#fff"/><path d="m61.2 17c-1.6 1.7-2.3 4.1-2.8 6.4-2.6 11-2.6 22.5-2.6 33.8 0 1.6.5 3.7 2.1 3.7.6 0 1.1-.3 1.5-.6 1.4-1.1 2.1-2.9 2.8-4.6 3.6-9.7 6.1-19.9 7.3-30.2.3-2.6.9-7.1-1-9.3-2-2.3-5.5-1.3-7.3.8z" fill="#f1afad"/><g fill="#4e7a9f"><g><path d="m68.5 2.9c-3.1-2.3-7.1-.6-9.5 1.8-5.9 5.7-5.9 16.2-6.7 23.8-1.2 11.4-1.5 23.3-.4 34.8-2 2.9 2.7 5.7 4.7 2.8 5.2-7.4 8.3-15.9 10.3-24.6 2.2-9.1 4.3-19.1 4.5-28.5 0-3.4 0-7.9-2.9-10.1zm-2.5 11.8c-.2 2.9-.6 5.7-1.1 8.5-.8 4.6-1.5 9.2-2.5 13.8-1.5 6.7-3.4 13.2-6.4 19.3.1-7.9.3-15.7 1.1-23.6.6-5.4 1-10.9 2.1-16.3.4-1.9 3.4-11.7 6.5-8.7 1 1.2.4 5.4.3 7z"/><path d="m43 2.9c-3.1-2.3-7.1-.6-9.5 1.8-5.9 5.7-5.9 16.2-6.7 23.8-1.2 11.4-1.5 23.3-.4 34.8-2 2.9 2.7 5.7 4.7 2.8 5.2-7.4 8.3-15.9 10.3-24.6 2.2-9.1 4.3-19.1 4.5-28.5 0-3.4 0-7.9-2.9-10.1zm-2.5 11.8c-.2 2.9-.6 5.7-1.1 8.5-.8 4.6-1.5 9.2-2.5 13.8-1.5 6.7-3.4 13.2-6.4 19.3.1-7.9.3-15.7 1.1-23.6.6-5.4 1-10.9 2.1-16.3.4-1.9 3.4-11.7 6.5-8.7 1.1 1.2.4 5.4.3 7z"/></g><g><path d="m56 73.6c-2.6-2.4-7.1.1-8.8 2.7-2.3 3.5-3.4 9.5.7 12.1 8.7 5.5 16.7-10.4 8.1-14.8zm-1.8 8.6c-.6 1.2-3 3.2-4 1.3-.6-1.3.6-4.5 1.3-5.5.2-.3.5-.5.7-.7.2.2.3.3.5.4 1.9 1 2.4 2.6 1.5 4.5z"/><path d="m30.5 73.6c-2.6-2.4-7.1.1-8.8 2.7-2.3 3.5-3.4 9.5.7 12.1 8.7 5.5 16.7-10.4 8.1-14.8zm-1.8 8.6c-.6 1.2-3 3.2-4 1.3-.6-1.3.6-4.5 1.3-5.5.2-.3.5-.5.7-.7.2.2.3.3.5.4 1.9 1 2.5 2.6 1.5 4.5z"/></g></g></g></svg>