<svg height="512" viewBox="0 0 60 60" width="512" xmlns="http://www.w3.org/2000/svg"><g id="002---Sprint" fill="none"><path id="Path" d="m27.909 8.965c-.1908558-.00024914-.3649222-.10912745-.4486566-.2806342s-.0625292-.37572213.0546566-.5263658l.492-.633-1.083.625c-.2166955.12495309-.4923876.07054354-.6453641-.12736655-.1529764-.1979101-.1361605-.47841644.0393641-.65663345l.689-.7-1.3.749c-.2164748.11764339-.486383.06006017-.6359981-.13568619-.149615-.19574636-.134338-.47130559.0359981-.64931381l1.874-1.89-2.913 1.684c-.2203354.12444915-.4989119.06466237-.6487785-.13923777s-.1237692-.48762234.0607785-.66076223l2-1.837-1.98 1.144c-.2394154.13807117-.5454288.05591542-.6835-.18350001s-.0559154-.5454288.1835-.68349999l5.932-3.424c.2203354-.12444915.4989119-.06466237.6487785.13923777s.1237692.48762234-.0607785.66076223l-2 1.836 2.2-1.272c.2164748-.11764339.486383-.06006017.6359981.13568619.149615.19574636.134338.47130559-.0359981.64931381l-1.87 1.891 1.271-.733c.2166127-.12338948.4910237-.06836746.6433231.12899241.1522993.19735987.1359526.47675491-.0383231.65500759l-.689.7.085-.05c.2073289-.11983773.4705164-.07584722.6276039.10490094.1570875.18074815.1639632.44749812.0163961.63609906l-.521.67c.2425619-.06436356.4952559.06104843.5906801.29315442s.0040114.49898824-.2136801.62384558l-2.063 1.191c-.0762015.04319022-.1624118.06560492-.25.065z" fill="#006dd9"/><path id="Path" d="m52.21 59.072c-.2058444.0001752-.3907608-.1258204-.4659121-.3174561-.0751512-.1916356-.0251778-.4097448.1259121-.5495439l2.069-1.915-1.66.958c-.2192049.1250239-.4972153.0671074-.6482603-.1350489-.1510451-.2021563-.1277753-.4851803.0542603-.6599511l1.162-1.107-.568.327c-.2144477.1242599-.4875608.0726667-.6419004-.1212601-.1543397-.1939268-.1433197-.4716518.0259004-.6527399l.675-.723-.06.034c-.1865025.1080132-.4212303.0843648-.5824392-.0586797-.1612088-.1430445-.2126169-.3732913-.1275608-.5713203l.587-1.367c-.2316006.014341-.4426328-.1325447-.5096163-.3547107-.0669835-.2221659.0276865-.4612215.2286163-.5772893l1.05-.606c.1865025-.1080132.4212303-.0843648.5824392.0586797.1612088.1430445.2126169.3732913.1275608.5713203l-.553 1.288 1.652-.954c.2142281-.1242304.4871181-.0729283.6416053.120619.1544873.1935473.1440221.4710204-.0246053.652381l-.675.724 1.3-.748c.2208953-.136633.509623-.0813788.6644625.1271591.1548394.208538.1242214.5009064-.0704625.6728409l-1.169 1.102 1.9-1.1c.2205392-.1280792.5021318-.0696485.6535046.1356028.1513729.2052513.124009.4915375-.0635046.6643972l-2.069 1.914 2.844-1.641c.1549945-.0985297.351531-.1041539.5119064-.0146489.1603754.0895049.2587712.2597296.2562855.4433739s-.1054527.3511436-.2681919.436275l-6.705 3.877c-.0758031.044382-.1621615.067526-.25.067z" fill="#006dd9"/><path id="Shape" d="m.939 55.542h50.333v1.848c0 .719-.061 1.445.663 1.865 1.491.865 3.906-1.282 5.061-1.982 1.083-.655 4.012-1.962 2.1-3.465-1.6123556-1.1123725-3.2896717-2.127511-5.023-3.04-.0320471-.0138718-.0656093-.0239404-.1-.03-.016-.007-.02-.017-.038-.023-.9647499-.4123997-2.0846363-.0179634-2.578.908-.1600636.7438642-.1905106 1.5097773-.09 2.264v.571h-15.3c12.819-3.366 22.555-16.333 19.023-30.658-2.781-11.274-12.89-18.677-24.263-19.091.0620057-.9429818.0620057-1.8890182 0-2.832-.181-1.358-1.445-1.452-2.522-1.039-.1043565.03824164-.2019229.09293279-.289.162-1.548.933-3.135 1.821-4.645 2.813-.639.419-1.269 1-.867 1.83.28.575 1.122.911 1.638 1.223l3.045 1.843c.581868.49286342 1.3347466.73615639 2.095.677 1.892-.33 1.652-2.417 1.565-3.993 11.1212102.6568283 20.4734269 8.5768556 22.953 19.438 2.624 12-4.2 24.725-15.971 28.651-1.3851843.4595791-2.8109361.7863836-4.258.976h-6.126c-8.9415796-1.2206374-16.5395952-7.1474713-19.9-15.523-4.56578103-11.9550592.59364513-25.4309151 11.976-31.28.849-.446-.483-.411-.843-.222-8.986 4.724-14.823 13.804-14.265 24.133.6404457 10.2797956 7.4344626 19.1512989 17.192 22.449.5.167 1 .309 1.506.443h-21.95c-.836 0-1.105 1.084-.122 1.084zm52.1-3.965 4.2 2.54c.683.414 1.291.811.586 1.589-.7335373.5785723-1.5359944 1.063943-2.389 1.445-.493.3-1.665 1.351-2.238 1.355-.621 0-.461-1.361-.461-1.851v-3.062c-.009-.088-.154-2.074.297-2.016zm-24.031-43.117c-.4.074-1.709-1.034-2.062-1.247-.831-.5-1.712-.966-2.511-1.52-.763-.53-.76-1.131.037-1.614l4.344-2.629c.61-.154.459 2.135.459 2.312v3.186c0 .352.162 1.432-.267 1.512z" fill="#262626"/></g></svg>