<svg id="Layer_1" enable-background="new 0 0 91 91" height="512" viewBox="0 0 91 91" width="512" xmlns="http://www.w3.org/2000/svg"><g><path d="m13.2 12.1c-.1-.9-.2-1.9.3-2.7.4-.9 1.5-1.4 2.3-.9.6.4.7 1.2 1 1.8.2.7.9 1.3 1.5 1.1.3-.1.5-.3.7-.5.7-.8 1.5-1.6 2.2-2.4.2-.2.4-.4.7-.5.6-.1 1 .5 1.1 1.1s0 1.2.2 1.7c.3.7 1.2 1 1.9 1 .8-.1 1.5-.4 2.1-.8.4-.2 1-.4 1.3 0 .1.1.1.2.1.4.2 2.7.3 5.5.3 8.2 0 .5 0 1-.3 1.4s-.9.6-1.4.6c-2.3.1-4.4-1.5-6.7-1.8-1.6-.2-3.2.1-4.5 1-2.3 1.6-2-.8-2.1-2.5-.3-2.2-.5-4.2-.7-6.2z" fill="#f1afad"/><g><path d="m74.3 19.8c-.1 2.9-.6 8.9-1.5 11.7 4.1-2.7 8.3-5.3 12.4-8 0 9.6-2.1 19.7-6 28.4-3.5 7.8-8.7 14.7-16.1 19.1-8.8 5.3-20.2 5.7-29.6 1.4s-15.3-12.9-18.1-22.8c-1.6-5.8-3.4-12-3.3-18 .1-3.2.2-7.5 1.6-10.4s4.9-4.7 8-4.4c2.6.2 4.8 2.4 6.7 4.1 16.2 14.3 32.8 10.9 44.1.3.4-.2 1.3-1 1.8-1.4z" fill="#b0ddca"/></g><path d="m16.6 25c.9-1.6 2.4-2.8 4.2-2.9 2.6-.1 4.6 2.2 6.3 4.2 3.3 3.9 7.2 8.2 11.9 10.1 6 2.5 13 2.7 18.9.1s13.1-8 14.5-13.8c-7.1 3.9-14.6 7.9-22.6 7.3-2.2-.1-4.4-.6-6.6-1.2-4.3-1.1-8.6-2.6-11.8-5.7-2.4-2.3-3.9-5.6-6.9-7-2.5-1.2-8.9-.6-11.2 3.9-.8 1.6-1.5 3.5-1.7 5.3-.5 3.7-.6 12 1.6 17 1.6 3.8 2.8 5.4 2.4 1.5-.7-5.3-1.8-13.7 1-18.8z" fill="#fff"/><path d="m33.7 63.9c3.1 2.5 7.1 3.6 11.1 3.9 3.7.3 7.5-.1 11-1.3 7.8-2.8 13.8-9.9 15.2-18-2 1.2-4 2.4-6.1 3.5-7 3.4-15.2 4.3-22.8 2.7-3.8-.8-7.3-2.3-10.7-4.2-1.1-.6-3.4-2.1-4.5-.8-.8.9.1 3 .4 3.9 1.1 3.8 3.1 7.7 6.4 10.3z" fill="#96ccb2"/><g fill="#4e7a9f"><path d="m18.5 26.5c-.1.8.2 1.7.9 2.3 1.1 1 2.8 1 3.9 0 .6-.6.9-1.4.9-2.3-.1-.8-.3-1.4-.8-2-.5-.5-1.3-.9-2-.8-.7 0-1.5.3-2 .8-.6.6-.8 1.2-.9 2z"/><g><path d="m84 21.3c-2.6 1.9-5.3 3.7-8 5.4.1-2.4-.2-4.8-.7-7.2-.1-.6-.7-.8-1.2-.7-.6-.3-1.4-.2-2.1.4-5.1 4.6-11.4 8.3-18.3 9-7.7.7-15-2.2-21.1-6.8-.1-.1-.2-.2-.4-.3-2.2-3.6-1.4-7.4-1.9-11.4-.2-1.5-1.7-2.2-2.9-1.2-.7.5-1.4 1-2.2 1.5 0-1.3-.2-2.7-.4-4-.2-1.5-2.6-2.1-3.6-.9-.6.9-1.4 1.8-2.2 2.7-1.2-2.9-3.1-6-5.4-3.3-1.3 1.5-1.6 4.6-1.9 6.4-.4 2.8-.9 6.4.1 9.2-.6.3-1.2.6-1.9.9-2.3 1.2-4.2 2.8-6.7 3.5-1.9.5-2.2 3.1-.5 4.1 2.5 1.5 5 3 7.4 4.6 0 .6.1 1.2.1 1.7 1.2 13.7 6.4 29.2 18.4 37.1 5.1 3.3 10.9 5.1 16.7 5.3-.3 1.6-.3 3.2-.3 4.7-2.9.3-5.6.9-7.7 2.3-.7.5-.6 1.5.2 1.8 2.5.7 5.3.3 7.9.3 3 0 5.9 0 8.9.1 2.9.2 2.9-4.5 0-4.6-1.4 0-3.1-.1-4.8-.1.1-1.5 0-3.1-.3-4.6 6.9-.5 13.7-3 19.3-7.4 13.4-10.7 19-29.8 19.1-46.4.1-1.7-2.1-3.2-3.6-2.1zm-68.2-9.1c0-.1 0-.1 0-.2.1.2.2.5.2.7.4 1.4 2.5 2.2 3.6.9.7-.8 1.3-1.6 2-2.4.2.7.4 1.3.6 2 .3.8 1.3 1.5 2.2.9.8-.5 1.5-1 2.3-1.4 0 1.3-.1 2.6 0 3.9-.7-.6-1.7-1.2-2.7-1.5-2.9-1-6.1-.3-8.6 1.3.1-1.4.2-2.8.4-4.2zm-5.7 15.5c-.5-.3-1-.6-1.5-1 .6-.5 1.3-1 1.8-1.5-.1.8-.2 1.7-.3 2.5zm59.1 35.5c-9.6 10.3-25.4 13.2-37.7 5.7-5.2-3.2-9.2-8.1-11.8-13.6-3-6.4-5.1-14.4-5.5-21.4-.2-3.1-.2-6.7.6-9.7 1-3.6 4.5-6.2 8.3-4.5 2.9 1.3 5.3 4.4 7.9 6.3 2.7 1.9 5.6 3.6 8.7 4.8 11.3 4.4 23.3 1.5 32.3-6 0 .2-.1.3-.1.5-.5 1.9-.6 3.9-1.2 5.8s1.7 3.8 3.5 2.7c2.8-1.9 5.6-3.7 8.5-5.5-1.1 12.3-4.8 25.6-13.5 34.9z"/><path d="m68.9 45.1c-2.8 1.3-5.7 2.1-8.6 2.6.8-.8 1.6-1.7 2.3-2.7 2-2.6-2.4-5.1-4.4-2.6-2.1 2.8-4.9 4.7-8.2 5.8-2.9.9-2.2 4.8.7 5.1 4.5.4 8.9 0 13.2-1-3.5 3.8-8.2 6.4-13.5 7.1-8.4.9-16.4-3.4-21.3-9.9-1.3-1.7-3.8-.3-2.8 1.7 4.2 8.9 14.3 14.3 24.1 13.5 9.7-.7 18.4-7 22.2-15.9 1-2.6-1.2-4.9-3.7-3.7z"/></g></g></g></svg>