<svg id="Layer_1" enable-background="new 0 0 91 91" height="512" viewBox="0 0 91 91" width="512" xmlns="http://www.w3.org/2000/svg"><g><path d="m23.3 37.8c-2.1.8-4.4 1.8-5.8 3.7-2.9 3.8-.7 9.6 3.1 12.4 3.9 2.7 8.9 3.2 13.6 3.6 13.3 1.1 26.9 2.1 39.9-1.1 5.3-1.3 11.2-4.2 12.2-9.6.7-4.1-1.9-8.2-5.3-10.5s-7.6-3.2-11.7-4c-14.8-3.1-32 .1-46 5.5z" fill="#f1afad"/><path d="m58.6 51.4c19.3 1.1 24.4-5.7 24.9-5.8 1.7-.6 2 2.8 1.3 4.4-2 4.6-7.8 6.1-12.8 6.7-15.1 1.7-30.4.6-45.6-.5-4.6-.3-11.8-1.4-12.2-7.3-.5-6.8 4.9-5 8.6-3.4 10.6 4.4 23.6 5.3 35.8 5.9z" fill="#e09b9c"/><g><path d="m88.2 41.1c-2.1-4.6-6.6-7.3-11.2-8.8-.8-.3-1.5-.5-2.3-.7-.9-.9-1.7-1.8-2.6-2.7-.5-.6-1.2-1.2-1.8-1.8.8-.8 2.1-1.7 2.6-2.2 1.1-1.2 2.2-2.4 3.2-3.7 1.8-2.4 3.8-5.5 3.6-8.6-.1-1.4-2.1-2.7-3.2-1.3-1.8 2.2-2.8 5-4.8 7.2-1.9 2.2-4.6 3.9-6.4 6.2-1.4 1.7-1.1 3.6.2 5.2-1.6-.2-3.1-.3-4.7-.4-.8-.8-1.5-1.6-2.3-2.4-.5-.6-1.2-1.2-1.8-1.8.8-.8 2.1-1.7 2.6-2.2 1.1-1.2 2.2-2.4 3.2-3.7 1.8-2.4 3.8-5.5 3.6-8.6-.1-1.7-2.1-2.9-3.2-1.6-1.8 2.2-2.8 5-4.8 7.2-1.9 2.2-4.6 3.9-6.4 6.2-1.5 1.8-1.1 3.8.4 5.5.3.4.7.8 1 1.1-2 .1-4.1.2-6.1.4-.9-.9-1.7-1.8-2.5-2.7-.5-.6-1.2-1.2-1.8-1.8.8-.8 2.1-1.7 2.6-2.2 1.1-1.2 2.2-2.4 3.2-3.7 1.8-2.4 3.8-5.5 3.6-8.6-.1-1.5-2.1-2.7-3.2-1.4-1.8 2.2-2.8 5-4.8 7.2-1.9 2.2-4.6 3.9-6.4 6.2-1.5 1.8-1.1 3.8.4 5.5.7.8 1.4 1.6 2.1 2.3-.5.1-.9.1-1.4.2-2.6.4-5.4 1-8 1.7-.7-.7-1.3-1.4-1.9-2.1-.5-.6-1.2-1.2-1.8-1.8.8-.8 2.1-1.7 2.6-2.2 1.1-1.2 2.2-2.4 3.2-3.7 1.8-2.4 3.8-5.5 3.6-8.6-.1-1.4-2.1-2.7-3.2-1.3-1.8 2.2-2.8 5-4.8 7.2-1.9 2.2-4.6 3.9-6.4 6.2-1.5 1.8-1.1 3.8.4 5.5.8.9 1.7 1.9 2.5 2.8-2.1.8-4.2 1.9-6.1 3.1-1.5 1-3.3 2.1-4.2 3.8-2.1-.7-4.1-1.5-5.7-3-1.4-1.3-2.6-2.9-2.8-4.9-.1-1.5.6-2.9.1-4.3-.1-.4-.6-.9-1.1-.8-5 .2-3.2 8.1-1.5 10.8 2.2 3.3 5.2 5 8.5 6.4-6.1 3.7-11 9.2-10.6 16.8.3 4.4 7.3 4.4 6.9 0-.5-7.3 5.6-12.1 11.7-14.8 2.2-1 1.4-4-.5-4.8.3-.2.6-.5.8-.6.8-.5 1.7-1 2.7-1.5 2.1-1 4.4-1.7 6.6-2.2.2 0 .4-.1.5-.1.2 0 .3-.1.5-.1 4.6-1.1 9.3-2 14-2.4 9.3-.8 19.2-.4 28.3 2 3.5.9 7.6 2.5 9.4 6 1.8 3.6.5 6.5-2.8 8.3-4.1 2.2-9.3 1.9-13.8 2-4.9.2-9.7.2-14.6.1-5.7-.1-11.4-.4-17-.7-2.6-.1-5.2-.3-7.9-.4-2-.1-4.1 0-5.5-1.5-2.9-3.1-7.6 1.6-4.7 4.7 1.9 2 4.4 2.9 7 3.3-.1.2-.3.3-.4.5-1.6 1.7-2.3 3.7-.6 5.7 1.7 2.2 4.2 3.8 6.1 5.8 2.1 2.3 3.1 5.2 5.1 7.5 1.1 1.3 3.1.1 3.2-1.3.2-3.2-1.8-6.2-3.6-8.6-1-1.5-2-2.6-3-3.7-.6-.6-2.1-1.6-3-2.5.6-.6 1.4-1.3 1.9-1.8s.9-1 1.4-1.5h.9c3.3.2 6.5.3 9.8.5-.9 1-1.7 1.9-2.6 2.9-1.6 1.7-2.3 3.7-.6 5.7 1.7 2.2 4.2 3.8 6.1 5.8 2.1 2.3 3.1 5.2 5.1 7.5 1.1 1.3 3.1.1 3.2-1.3.2-3.2-1.8-6.2-3.6-8.6-.9-1.2-1.8-2.3-2.8-3.3-.6-.6-2.1-1.6-3-2.5.6-.6 1.4-1.3 1.9-1.8 1-1.1 2.1-2.3 3.2-3.3.2-.2.4-.5.5-.7 1 0 2 .1 3 .1h3.4c-.8.8-1.5 1.7-2.3 2.5-1.6 1.7-2.3 3.7-.6 5.7 1.7 2.2 4.2 3.8 6.1 5.8 2.1 2.3 3.1 5.2 5.1 7.5 1.1 1.3 3.1.1 3.2-1.3.2-3.2-1.8-6.2-3.6-8.6-.9-1.2-1.8-2.3-2.8-3.3-.6-.6-2.1-1.6-3-2.5.6-.6 1.4-1.3 1.9-1.8 1-1.1 2.1-2.3 3.2-3.3.2-.2.4-.4.5-.6 1.5 0 3-.1 4.4-.1-.2.2-.4.5-.6.7-1.6 1.7-2.3 3.7-.6 5.7 1.7 2.2 4.2 3.8 6.1 5.8 2.1 2.3 3.1 5.2 5.1 7.5 1.1 1.3 3.1.1 3.2-1.3.2-3.2-1.8-6.2-3.6-8.6-.9-1.2-1.8-2.3-2.8-3.3-.6-.6-2.1-1.6-3-2.5.6-.6 1.4-1.3 1.9-1.8.8-.9 1.6-1.8 2.5-2.7 4.6-.5 9.1-1.8 12.4-5.4 2.6-3.9 2.6-9.4.7-13.6z" fill="#4e7a9f"/><path d="m66.5 42.4c2.3.3 4.8 2 5.5 4.2 1.1 3.2 5.8 1.3 4.3-1.8-1.8-3.9-6.3-5.8-10.3-3.9-.7.3-.2 1.4.5 1.5z" fill="#fff"/></g></g></svg>