<svg id="Layer_1" enable-background="new 0 0 91 91" height="512" viewBox="0 0 91 91" width="512" xmlns="http://www.w3.org/2000/svg"><g><path d="m47.7 63.7c-1.1-1.1-2.7-2.1-4.2-1.6-.7.2-1.3.7-1.8 1.2-4.3 3.8-8.6 7.5-12.9 11.3-2.2-10.7-10.1-20-20.3-23.9-.4-.2-.9-.4-1.2-.8-.5-.9.3-1.9 1-2.7 6.5-6.4 12.9-12.8 19.4-19.3.3-.3.7-.7.8-1.2.1-.8-.5-1.5-1-2-3.3-3.5-4.8-8.7-3.7-13.4 11.9 6.4 23.8 11 35.7 17.5 3 1.6 6 4.5 8.8 6.4 4.9 3.4 9.1 8.5 12.3 13.6 4.2 6.8 5.2 11 4.5 21-.1 1.5-.9 2.8-2 3.8-.9.8-2.2 1.2-3.4 1.5-4.5 1.3-9.1 2.3-13.7 3.1-2.9.5-8.8 2.3-11.5.3-2-1.5-1.4-4.8-1.8-7-.8-3.5-2.3-5.2-5-7.8z" fill="#b1d6e9"/><path d="m2.8 64.5c.5 5.9 4.3 11.8 10 13.4 2.8.8 5.8.5 8.7 0 3.5-.7 9.8-2.2 8.6-5.5-3.8-10.8-22-25.1-24-22.3-2.7 3.7-3.7 9.9-3.3 14.4z" fill="#c9bbdc"/><path d="m13.5 53.5c-1.4-.7-2.8-1.4-4.2-2.2-.4-.2-.9-.5-1.4-.4-.8.1-1.3.7-1.7 1.4-2 3.2-3 7.1-2.6 10.8.2 2.1 1.6 9 4.3 9.3.3-1.4-.2-3.3-.2-4.8.1-1.7.4-3.4.8-5.1 1-3.3 2.7-6.5 5-9z" fill="#fff"/><path d="m7.1 50.4c1.3-1.7 2.8-3.4 4.2-5 5.1-5.7 10.3-11.4 15.8-16.6.8-.7 1.6-1.5 1.8-2.5.6-2.1-1.4-4-3-5.5-1.4-1.2-2.7-2.7-3-4.5s.9-4 2.8-4c.8 0 1.6.4 2.3.8 1.1.6 2.1 1.3 3 2.1.3.2.6.5.5.9s-.4.5-.7.8c-.6.5-.7 1.5-.5 2.2s.7 1.4 1.2 2.1c1.2 1.6 2.2 3.4 3.1 5.2.5 1 .9 2.1.6 3.1-.2.8-.9 1.5-1.5 2.1-7.3 6.4-15.3 13.3-20.2 21.9-2.1-1.5-3.9-2.3-6.4-3.1z" fill="#fff"/><path d="m11.3 74.1c2.1-.2 3.4-2.3 4.7-4 .1-.1.1-.2.2-.2.3-.2.7.1.8.4s.1.7.2 1c.2.8 4.5 3 9.2-1.2.7-.6 1.3 0 2.1.5 1.1.6 1 2.2.5 3.4-.8 1.7-2.3 3-4.1 3.7-1.7.7-3.6 1-5.5 1.1-2.6.2-5.3.1-7.7-1-1.9-.8-3.5-2.2-5-3.7-.9-.9-2.2-3.4.2-2.7 1.8.5 2.1 2.9 4.4 2.7z" fill="#b8a8d2"/><path d="m48 55.9c9.5 3.6 14.5 19.2 14.2 21.6-.1.6-.3 1.2-.8 1.5-.4.3-3 1.3-6.8.5-.3-.1-.6 0-.8-.2s-.2-.5-.2-.8c-.3-6.3-3.2-12.5-8-16.6-.3-.3-.7-.6-1.2-.6-.6-.1-1.2.4-1.6.8-3.6 3-7 6.2-10.3 9.5-1.2 1.2-2.4 2.5-3.9 3.3-.8-2.6-1.3-5 .5-7.1 2-2.5 9.9-15.4 18.9-11.9z" fill="#91bfd1"/><path d="m48.6 24.8c2 .6 4.1 1.1 6.1 1.9 2.8 1.2 8.8 5.1 11 7.2 8.5 8 14.1 13.5 18.8 24.8 1.7-.3 2.6-2.2 2.8-3.9.2-3.1-.8-7.2-2.3-9.9-1.7-3-3.6-4.7-5.8-7.7 1-.3 2.1-.8 3-1.4.2-.1.3-.2.4-.4.1-.4-.2-.7-.5-1-1.3-1.2-2.6-2.4-3.9-3.6-1-.9-2-1.8-3.1-2.6-2.2-1.4-4.9-2.2-7.5-2 .3-1.6 2.5-1.7 4-2.4.4-.2.8-.6.7-1-.1-.3-.4-.4-.7-.6-5.8-2.5-12-4.1-18.2-4.8 1-.8 2.1-1.7 3.1-2.5.1-.1.3-.2.3-.4.3-.6-.6-1.1-1.3-1.1-4.4-.4-8.9-.2-13.3.4-2.8.4-8.6 1.8-4.6 5.1 2.9 2.6 7.2 4.7 11 5.9z" fill="#fbe488"/><path d="m48.5 16.6c-3 2.1.3 4.8 2.8 4.5 7.1 0 11.8 1.4 18.5 4 .8.3 1.6-.6 2.3-.8.8-.2 1.4-1.2.9-1.8-.2-.2-.4-.3-.6-.4-5.3-2.8-11.2-4.6-17.1-5.1.7-1.1 2.7-1.7 2.4-3-.2-.8-1.2-1.1-2.1-1.2-6.8-.9-14.2-.8-19.8 3.3-.9.6-2 2.1-.5 2.5.8.2 3.2-.9 4.1-1.1 1.7-.4 8.8-.6 9.1-.9z" fill="#fff"/><g fill="#4e7a9f"><path d="m27.8 25.8c-3.5 3-6.6 6.6-9.9 9.9-3.6 3.5-7.1 7.1-10.3 10.9-5.4 6.4-8.7 14.7-5.3 22.9 3.3 7.8 11.7 12.1 20 10.4 4.9-1 8.6-4.2 12.1-7.5 3.6-3.3 7.2-6.6 10.2-10.4-.8.1-1.6.2-2.5.3 5.2 3.4 8.8 9.3 8.1 15.7-.3 2.8 4.6 3 4.5 0-.4-8-3.7-14.7-10.5-19.2-.7-.4-1.9-.4-2.5.3-2.4 3.1-5.1 5.8-8 8.4-3.2 3-6.4 6.6-10.7 8-8.1 2.7-16.7-2.7-17.9-11.1-1.2-8.1 4.7-14.5 9.8-20 2.8-3 5.6-6.1 8.3-9.2 2.2-2.5 4.7-5.1 6.4-8 .7-1.2-.8-2.2-1.8-1.4z"/><path d="m16.6 69.9c-1.1-.4-2.3.6-3.1 1.3-1 .8-1.9 1.6-2.8 2.5-1.6 1.6 1 4.1 2.4 2.4.7-.8 5.7-5.5 3.5-6.2z"/><path d="m7.5 52c5.2 3 9.8 5.7 13.9 10.2 1.4 1.6 4.3-.6 3-2.3-3.8-5-9.8-8.7-15.7-10.6-1.7-.5-2.7 1.9-1.2 2.7z"/><path d="m29.9 74.9c.8-1.3.2-3.3-.1-4.7-.4-1.8-1-3.4-1.6-5.1-1.1-3.3-5.8-.4-3.5 2 1 1 1.6 2.6 2 4 .4 1.2.5 2.9 1.2 3.9.7.5 1.6.6 2-.1z"/><path d="m31.8 45.6c.5-.6.8-1.4 1.4-2 .5-.6 1.1-.9 1.8-1.3 2.3-1.5.2-5.1-2.2-3.7-2 1.1-3.9 4.1-3.3 6.4.2 1 1.6 1.4 2.3.6z"/><path d="m32.3 27.3c-1.4-2.6-3.2-4.8-4.7-7.2-.5-.8-2.1-2.8-2.1-3.7 0-1.9 1.2-.8 2-.1 3.7 2.8 7.8 4.8 12.1 6.6 7.8 3.3 15.7 6.1 22.7 11 5.4 3.8 10.4 8.5 13.8 14.1 4.6 7.5 5.8 16 4.7 24.7-.4 3.3 4.8 3.3 5.2 0 2-15.5-4.2-29.8-16.3-39.5-5.3-4.3-11.1-7.8-17.5-10.4-4.4-1.8-9-3.3-13.3-5.3-2-.9-4-1.9-5.9-3.1-2-1.2-3.7-3.1-5.7-4.1-4-1.9-7.4 2.1-6.6 6 1 4.8 5.6 10.4 9.5 13.1 1.3.9 2.8-.9 2.1-2.1z"/><path d="m34.8 17.7c3.4-.6 6.6-2.1 10-2.6 3.8-.6 7.7-.3 11.4.6-.1-1.1-.3-2.3-.4-3.4-1.8 1.3-3.5 2.7-5.1 4.3-1.3 1.2-.3 3.2 1.4 3.3 6.6.3 13 1.7 19 4.5 0-1.1 0-2.1 0-3.2-2.1 1.1-3.9 2.4-5.7 3.8-1.3 1.1-.1 2.8 1.2 3 5.8.6 11 3.6 14.7 8.1.1-.9.2-1.8.3-2.7-1.3.7-2.2 1.5-3.1 2.7-.5.6-.2 1.6.3 2.1 3.9 4.4 6.4 9.7 7.1 15.6.3 2.2 3.7 2.2 3.5 0-.8-6.8-3.5-12.9-8.2-18 .1.7.2 1.4.3 2.1.5-.7 1.1-1.2 1.9-1.4 1.1-.5 1-1.9.3-2.7-4.4-5.3-10.4-8.3-17.1-9.2.3 1.1.6 2.2.9 3.3 1.7-1.3 3.5-2.4 5.5-3.4 1.2-.6 1.2-2.6 0-3.2-6.7-3.3-13.7-5.2-21-5.4.5 1.1.9 2.2 1.4 3.3 1.3-1.4 2.7-2.6 4.3-3.8 1.2-.9 1.3-3-.4-3.4-7.2-1.6-17.7-1.5-23.3 4.2-.7.7 0 1.6.8 1.5z"/></g></g></svg>