<svg id="Layer_1" enable-background="new 0 0 91 91" viewBox="0 0 91 91" xmlns="http://www.w3.org/2000/svg"><g><g><path d="m71 14.5c5.1 7 7 11.8 7.3 20.5s-4 17.2-11.6 21.4c5.1 1.2 10.5 1.6 15.2-.8l-1 7.6c-2 2.2-5.1 2.1-8 2.1-3 .1-5.9-.1-8.8-.9 2 7.1 7.4 7.7 12.2 9.9-1.5 1.3-2 3.9-4 4.3-.7.2-10.2-.4-16-8.9-.6-.9-3.3 0-3.7 1 .8 4.8 3.5 9.3 7.3 12.2.4 2.1-4.8 4.5-6.3 3-6.6-6.7-7.4-13.3-7.4-13.3l-3.2-.1c-1.9 4.5-2.1 9.1-3.9 13.6l-7-1c2.4-4.3 3-9.1 3.5-13.9.1-1.4-1.6-2.3-2.7-1.4l-10.6 9.1c-.4.4-.9.7-1.4.8-.5 0-.9-.3-1.3-.5-1.3-.9-2.5-2.5-3.5-3.7 4.9-3.6 9.3-7.4 12.9-12.4-4.9 0-16.2-.5-16.4-.8-.3-.3-.6-4.3-.5-5.5 4.9.5 11-.1 16-.7-6.6-4.8-10.9-12.8-11.1-21-.3-10.9 4.6-21.4 13.8-27.3 7.9-5.1 20.1-7.1 28.4-2.6 3.2 2 8.8 5.2 11.8 9.3z" fill="#c9bbdc"/></g><path d="m23.7 22.1c4.2-4.4 10.2-7.8 16.2-8.6 6.4-.9 13.1.1 19 2.9 9.7 4.5 15.7 15.4 17.6 25.9 1-.5 1.2-1.8 1.3-2.9.3-7.1.3-14.4-2.9-20.7-2.4-4.8-6.5-8.6-11.2-11.1s-10.2-3.8-15.5-4c-1.7-.1-15.9.1-26.2 13.8-2 2.6-3.2 5.7-4 8.9-.4 1.7-.7 3.4-.9 5.1-.1 1-.8 4.1-.2 5 1.5 2.4 2-4.7 2.2-5.5.7-3.3 2.3-6.4 4.6-8.8z" fill="#fff"/><path d="m42.2 52.9c.1.4.1.9.1 1.3 0 1.2-.2 2.6-1.4 3.2-.7.4-1.6.4-2.3.1s-1.4-.7-1.9-1.3-1-1.3-1.2-2c-.2-.4-.3-.8-.3-1.3 0-1 .7-2 1.7-2.6 2.3-1 4.8.5 5.3 2.6z" fill="#a899c3"/><path d="m32.1 66.1c0 .3-.1.5 0 .8.2.6 1 .7 1.6.5s1.1-.6 1.8-.6c1.2-.1 2.1 1.1 2.4 2.3.2.9.5 2 1.4 2.1 1.3.1 1.6-1.9 2.7-2.4 1.5-.6 2.7 1.8 4.3 1.9 1.4.1 2.4-1.4 3.4-2.5 1.2-1.2 3.1-1.7 4.8-1.4 1.5.3 3.4 1.3 4.5.2.7-.7.7-1.8.7-2.8s.4-2.1 1.3-2.4c.4-.1.8 0 1.1-.2s.4-.6.5-1c.2-1.6-.3-3.3.4-4.8.8-1.7 3.1-2.4 4.7-1.5 1.4.8 2.1 2.6 3.6 3.3.7.4 1.6.4 2.4.5 2.4.2 4.7.3 7.1.5.5 0 1 .1 1.3.5.2.3.2.7.1 1-.2 1.5-.5 2.9-1 4.3-.3.8-.6 1.5-1.3 2-.5.4-1.1.6-1.8.7-4 .7-8-.6-12.1-.9-.2 0-.5 0-.7.1-.7.4-.3 1.4.2 2 2.3 2.7 5 5.1 7.9 7.1.4.3.7.5 1 .9.9 1.3-.3 3.2-1.8 3.6s-3.1-.2-4.6-.8c-3.3-1.3-6.6-2.7-9-5.3-.9-1-1.7-2.2-3-2.7-1.2-.5-3.1.1-3.1 1.5 0 .7.4 1.3.8 1.8 1.7 2.3 3.2 4.7 4.4 7.2.8 1.7 1.5 3.7.6 5.3-1.1 1.8-4 1.9-5.7.6-1.8-1.2-2.7-3.3-3.5-5.3-.6-1.5-1.3-2.9-1.9-4.4-.7-1.7-2-3.8-3.9-3.6-.6.1-1.2.4-1.4.9-.2.3-.2.7-.2 1.1-.2 3.6-1 7.2-2.2 10.5-.2.6-.5 1.3-1.1 1.6-.5.3-1.1.2-1.7.1-1.3-.2-2.6-.4-4-.6-.3 0-.5-.1-.7-.3-.5-.4-.2-1.2.1-1.7 1.8-3.2 2.9-6.7 3.3-10.3.1-1 .1-2.2-.6-2.9-.7-.8-2-.8-3-.4s-1.7 1.2-2.5 2c-2.5 2.5-5.1 4.9-7.8 7.1-.3.3-.7.5-1.1.6-.5.1-.9-.1-1.4-.3-1.1-.6-2.2-1.3-3-2.2-.4-.4-.8-.9-1-1.5-.4-1.5.9-2.8 2.1-3.8 3-2.6 6.1-5.1 9.1-7.7.3-.3.7-.6.6-1.1-.1-.6-.9-.8-1.5-.8-2.5-.1-4.9 0-7.4.1-1.7.1-3.6.2-4.8-.9-1.3-1.2-1.4-3.2-1.4-5 0-.3 0-.7.2-.9s.5-.3.8-.4c2.4-.5 4.8-.2 7.2.2 2.4.3 5.9.1 8.2 1.1 2.6 1.3 4 4.7 3.6 7.4z" fill="#b8a8d2"/><path d="m36.5 61c-.3.1-.7.1-.9.3-.5.4-.4 1.2-.3 1.8s.3 1.3.7 1.7c.3.3.7.4 1.1.5.9.1 1.8 0 2.7-.1 2-.3 4-.7 5.8-1.6 2.2-1.2 2.7-4.4-.3-4.9-1.2-.2-2.6.7-3.7 1.1-1.7.5-3.4.9-5.1 1.2z" fill="#b8a8d2"/><g fill="#4e7a9f"><path d="m80.9 55.6c-3.3 1.6-6.4 1.9-9.6 1.5 5.5-4.6 8.4-11.3 9.2-18.6 1-9.2-1-17.7-7.1-24.7-2.8-3.2-7.8 1.6-4.7 4.7 10.2 10.4 10.5 30-2.9 37.9-1.3.8-1.1 3 .4 3.3 4.3.9 9 1.4 13.3.3-.1.4-.1.9-.2 1.3-.1.9-.1 1.9-.4 2.8-.3.1-.9.3-.9.4-4.4.9-9.1.6-13.4-.4-1.5-.3-3 1-2.5 2.5 1 3 2.5 5.6 5.1 7.4 1.8 1.3 4 2 6 2.8-.6.9-1.3 1.6-2.5 1.5-2.3-.3-4.5-1.1-6.6-2.2-1.6-.9-3-1.9-4.2-3.2-1-1-1.8-2.6-3-3.3-1.8-1-4.6-.2-5.8 1.4-1.5 2.1.4 5.8 1.5 7.9.8 1.6 1.8 3.1 3 4.4.2.2 1.3 1.2 1.8 1.8-.3-.1-.8.5-1.2.6-2.7.8-5.5-5.2-6.5-7.4-.7-1.4-1.3-3-1.5-4.6-.2-.9-1.2-1.6-2.1-1.6-1.1 0-2.2 0-3.2.1-.9 0-1.7.6-1.9 1.5-1.3 4-2 8.1-3.3 12.1-1-.1-2-.3-3-.4.7-1.7 1.3-3.5 1.6-5.3.5-2.3 1.5-5.8.9-8.1-.8-3.2-4.1-3.2-6.2-1.5-2.3 1.8-4.5 3.9-6.7 5.8-.8.7-2 2.3-3 2.6-.9.4-1.8-.4-2.6-1.4 4.5-3.5 8.5-7.2 11.9-11.8.9-1.2-.3-2.9-1.7-2.9-3.1 0-6.1-.3-9.2-.5-1.4-.1-2.8-.1-4.1-.2-.4 0-.9-.1-1.3-.1 0-.3-.1-.7-.1-1 4.6.4 9.2-.2 13.8-.7 2.5-.3 3.4-3.1 1.3-4.7-11.2-8.5-12.7-24.8-4.8-36 7.3-10.5 21.7-15.3 33.7-10.3 2.7 1.1 4.1-3.1 1.9-4.5-13.4-8.6-33.5-.7-41 12.2-7.3 12.6-6.4 28.3 3 38.8-3.4.3-6.8.4-10.2.5-1.2 0-2.2 1-2.2 2.2 0 1.8-.1 4.4.6 6.1.7 1.6 2.1 1.7 3.6 1.9 3.6.3 7.2.3 10.8.3-2.9 3.3-6.3 6.1-9.8 8.8-1.1.8-1.2 2-.4 3 2.4 2.9 5.2 6.5 8.9 3.5 1.5-1.2 2.9-2.5 4.4-3.8 1.9-1.6 3.7-3.5 5.7-4.9.1 1.2-.5 3.3-.6 4.2-.5 2.9-1.3 5.7-2.7 8.3-.5 1-.1 2.6 1.1 2.7 2.3.4 4.7.7 7 1.1 1.1.2 1.9-.3 2.3-1.3 1.5-3.9 2-8.1 3.5-12h.2c.3 1.2.7 2.4 1.2 3.5 1.4 3.2 4 8.2 7.2 9.9 2.5 1.3 5.8-.1 7.6-2 .8-.8 1.4-1.8 1.4-3 0-1.8-2-2.7-3.1-3.9-1.6-1.8-2.9-3.9-3.7-6.2-.2-.5-.3-1-.4-1.4.1 0 .3-.1.5-.2.6.5 1 1.3 1.5 1.8 2.4 2.6 5.4 4.6 8.6 5.8 2 .8 4.3 1.5 6.5 1.4 3.2-.1 3.9-3 5.8-4.9.8-.8.8-2.5-.4-3.1-3.6-1.6-7.1-2.6-9.4-5.4 4.2.6 8.8.8 12.2-.8 3.9-1.9 3.3-7.2 3.8-10.9.4-1.4-1.6-2-2.7-1.4zm-2 8.9c-.1.3-.1.2 0 0z"/><path d="m66.9 11.6c.2-.5.3-.9.3-1.5-.1-1.1-1.1-2-2.2-2-1.3 0-2.4.9-2.8 2.2-.3 1.2.4 2.6 1.6 2.9.6.1 1.3.1 1.8-.2 0 0 1.1-.7 1.3-1.4z"/><path d="m50.8 41.7c.2.2.4.5.7.7.8.9 2.4.9 3.2 0 .4-.4.7-1 .7-1.6s-.2-1.2-.7-1.6c-.3-.2-.5-.4-.8-.6-.5-.4-.9-.6-1.5-.6-.5 0-1.2.2-1.5.6-.9.9-.9 2.2-.1 3.1z"/><path d="m33.4 39.2c-.4.3-.7 1.1-.7 1.6 0 .6.2 1.2.7 1.6.9.8 2.3.9 3.2 0 .2-.2.4-.5.7-.7.8-.8.9-2.3 0-3.1-.4-.4-1-.7-1.5-.6-.8.1-1.7.6-2.4 1.2z"/><path d="m44.7 57.4c-.5.1-1 .3-1.6.4.6-2.3.5-4.9-.4-6.9h1.7c2.6-.1 2.6-4.1 0-4.1-4.1.2-10.3-.8-12.6 3.6-2 3.8-.3 9.7 3.5 11.8 1.5.8 2.8.9 4 .5 2.2-.2 4.4-.7 6.5-1.1 2.7-.5 1.6-4.9-1.1-4.2zm-7.3-6.1h.3c2 .9 2.1 2.2 2 4.3-.1.8-.1 2-.7 2.6-1.4 1.4-2.8-.2-3.3-1.5-.9-2.1-1-5 1.7-5.4z"/></g></g></svg>