<svg id="Flat" height="512" viewBox="0 0 64 64" width="512" xmlns="http://www.w3.org/2000/svg"><path d="m41 23h20v24l-14 14h-24v-20h4l14-14z" fill="#ff7bac"/><path d="m47 61v-14h14z" fill="#ed1e79"/><path d="m41 23h20v4h-20z" fill="#ed1e79"/><g fill="#29485a"><path d="m29 41h25v2h-25z"/><path d="m32 35h22v2h-22z"/><path d="m29 47h18v2h-18z"/></g><path d="m27 41h-24v-38h38v24z" fill="#ffcf01"/><path d="m27 41v-14h14z" fill="#f8991d"/><path d="m3 3h38v4h-38z" fill="#f8991d"/><path d="m6 16h32v2h-32z" fill="#29485a"/><path d="m6 20h25v2h-25z" fill="#29485a"/><path d="m6 24h15v2h-15z" fill="#29485a"/></svg>