<svg enable-background="new 0 0 24 24" height="512" viewBox="0 0 24 24" width="512" xmlns="http://www.w3.org/2000/svg"><g id="line" display="none"><g fill="none" stroke="#000" stroke-linecap="round" stroke-linejoin="round" stroke-miterlimit="10"><path d="m12 .5-11.5 5.5 11.5 5.5 11.5-5.5z" display="inline"/><path d="m10 3.4 2-.9 1.5.7" display="inline"/><path d="m19.3 8 4.2 2-11.5 5.5-11.5-5.5 4.2-2" display="inline"/><path d="m19.3 16 4.2 2-11.5 5.5-11.5-5.5 4.2-2" display="inline"/><path d="m19.3 12 4.2 2-11.5 5.5-11.5-5.5 4.2-2" display="inline"/></g><circle cx="15.5" cy="4.1" display="inline" r=".5"/></g><g id="line_expanded" display="none"><g display="inline"><path d="m13.3 3.7c.2.1.5 0 .7-.2.1-.3 0-.5-.2-.7l-1.6-.8c-.1 0-.3 0-.4 0l-2 1c-.3.1-.4.4-.3.6s.3.3.5.3h.2l1.8-.8z"/><path d="m24 10c0-.2-.1-.4-.3-.5l-3.2-1.5 3.2-1.5c.2-.1.3-.3.3-.5s-.1-.4-.3-.5l-11.5-5.5c-.1 0-.3 0-.4 0l-11.5 5.5c-.2.1-.3.3-.3.5s.1.4.3.5l3.2 1.5-3.2 1.5c-.2.1-.3.3-.3.5s.1.4.3.5l3.2 1.5-3.2 1.5c-.2.1-.3.3-.3.5s.1.4.3.5l3.2 1.5-3.2 1.5c-.2.1-.3.3-.3.5s.1.4.3.5l11.5 5.5h.2s.1 0 .2 0l11.5-5.5c.2-.1.3-.3.3-.5s-.1-.4-.3-.5l-3.2-1.5 3.2-1.5c.2-.1.3-.3.3-.5s-.1-.4-.3-.5l-3.2-1.5 3.2-1.5c.2-.1.3-.3.3-.5zm-12-8.9 10.3 4.9-10.3 4.9-10.3-4.9zm10.3 16.9-10.3 4.9-10.3-4.9 3-1.4 7.1 3.4h.2s.1 0 .2 0l7.1-3.4zm0-4-10.3 4.9-10.3-4.9 3-1.4 7.1 3.4h.2s.1 0 .2 0l7.1-3.4zm-10.3.9-10.3-4.9 3-1.4 7.1 3.4h.2s.1 0 .2 0l7.1-3.4 3 1.4z"/><circle cx="15.5" cy="4.1" r=".5"/></g></g><g id="colored_line" display="none"><g display="inline"><path d="m24 10c0-.2-.1-.4-.3-.5l-3.2-1.5 3.2-1.5c.2-.1.3-.3.3-.5s-.1-.4-.3-.5l-11.5-5.5c-.1 0-.3 0-.4 0l-11.5 5.5c-.2.1-.3.3-.3.5s.1.4.3.5l3.2 1.5-3.2 1.5c-.2.1-.3.3-.3.5s.1.4.3.5l3.2 1.5-3.2 1.5c-.2.1-.3.3-.3.5s.1.4.3.5l3.2 1.5-3.2 1.5c-.2.1-.3.3-.3.5s.1.4.3.5l11.5 5.5h.2s.1 0 .2 0l11.5-5.5c.2-.1.3-.3.3-.5s-.1-.4-.3-.5l-3.2-1.5 3.2-1.5c.2-.1.3-.3.3-.5s-.1-.4-.3-.5l-3.2-1.5 3.2-1.5c.2-.1.3-.3.3-.5zm-12-8.9 10.3 4.9-10.3 4.9-10.3-4.9zm10.3 16.9-10.3 4.9-10.3-4.9 3-1.4 7.1 3.4h.2s.1 0 .2 0l7.1-3.4zm0-4-10.3 4.9-10.3-4.9 3-1.4 7.1 3.4h.2s.1 0 .2 0l7.1-3.4zm-10.3.9-10.3-4.9 3-1.4 7.1 3.4h.2s.1 0 .2 0l7.1-3.4 3 1.4z" fill="#1689fc"/><g><path d="m10 3.9c-.2 0-.4-.1-.5-.3s0-.5.3-.6l2-.9c.1-.1.3-.1.4-.1l1.5.7c.3.2.4.5.3.7-.1.3-.4.4-.7.2l-1.3-.5-1.8.8c-.1 0-.1 0-.2 0z" fill="#3e5959"/></g><g><circle cx="15.5" cy="4.1" fill="#3e5959" r=".5"/></g></g></g><g id="filled_line"><g><path d="m12 12.5-11 5.5 11 5.5 11-5.5z" fill="#b7e0f6"/><path d="m12 8.5-11 5.5 11 5.5 11-5.5z" fill="#32d736"/><path d="m12 4.5-11 5.5 11 5.5 11-5.5z" fill="#fcbf29"/><path d="m12 .5-11 5.5 11 5.5 11-5.5z" fill="#e63950"/><path d="m12 10-7.5-3.8c-.8-.4-.8-1.6 0-2l-3.5 1.8 11 5.5 11-5.5-3.5-1.8c.8.4.8 1.6 0 2z" fill="#cc2e43"/><path d="m12 14-7.5-3.8c-.8-.4-.8-1.6 0-2l-3.5 1.8 11 5.5 11-5.5-3.5-1.8c.8.4.8 1.6 0 2z" fill="#fea832"/><path d="m12 18-7.5-3.8c-.8-.4-.8-1.6 0-2l-3.5 1.8 11 5.5 11-5.5-3.5-1.8c.8.4.8 1.6 0 2z" fill="#10bb67"/><path d="m12 22-7.5-3.8c-.8-.4-.8-1.6 0-2l-3.5 1.8 11 5.5 11-5.5-3.5-1.8c.8.4.8 1.6 0 2z" fill="#81c8ee"/><g><path d="m13.3 3.7c.2.1.5 0 .7-.2.1-.3 0-.5-.2-.7l-1.6-.8c-.1 0-.3 0-.4 0l-2 1c-.3.1-.4.4-.3.6s.3.3.5.3h.2l1.8-.8z" fill="#e2566e"/><path d="m24 10c0-.2-.1-.4-.3-.5l-3.2-1.5 3.2-1.5c.2-.1.3-.3.3-.5s-.1-.4-.3-.5l-11.5-5.5c-.1 0-.3 0-.4 0l-11.5 5.5c-.2.1-.3.3-.3.5s.1.4.3.5l3.2 1.5-3.2 1.5c-.2.1-.3.3-.3.5s.1.4.3.5l3.2 1.5-3.2 1.5c-.2.1-.3.3-.3.5s.1.4.3.5l3.2 1.5-3.2 1.5c-.2.1-.3.3-.3.5s.1.4.3.5l11.5 5.5h.2s.1 0 .2 0l11.5-5.5c.2-.1.3-.3.3-.5s-.1-.4-.3-.5l-3.2-1.5 3.2-1.5c.2-.1.3-.3.3-.5s-.1-.4-.3-.5l-3.2-1.5 3.2-1.5c.2-.1.3-.3.3-.5zm-12-8.9 10.3 4.9-10.3 4.9-10.3-4.9zm10.3 16.9-10.3 4.9-10.3-4.9 3-1.4 7.1 3.4h.2s.1 0 .2 0l7.1-3.4zm0-4-10.3 4.9-10.3-4.9 3-1.4 7.1 3.4h.2s.1 0 .2 0l7.1-3.4zm-10.3.9-10.3-4.9 3-1.4 7.1 3.4h.2s.1 0 .2 0l7.1-3.4 3 1.4z" fill="#384949"/><circle cx="15.5" cy="4.1" fill="#e2566e" r=".5"/></g></g></g><g id="duo_tone_1_" display="none"><path d="m23.5 10-11.5 5.5-11.5-5.5 4.2-2 7.3 3.5 7.3-3.5z" display="inline" fill="#00ecce"/><path d="m23.5 18-11.5 5.5-11.5-5.5 4.2-2 7.3 3.5 7.3-3.5z" display="inline" fill="#00ecce"/><g display="inline" fill="#01a28e"><path d="m13.3 3.7c.2.1.5 0 .7-.2.1-.3 0-.5-.2-.7l-1.6-.8c-.1 0-.3 0-.4 0l-2 1c-.3.1-.4.4-.3.6s.3.3.5.3h.2l1.8-.8z"/><path d="m24 10c0-.2-.1-.4-.3-.5l-3.2-1.5 3.2-1.5c.2-.1.3-.3.3-.5s-.1-.4-.3-.5l-11.5-5.5c-.1 0-.3 0-.4 0l-11.5 5.5c-.2.1-.3.3-.3.5s.1.4.3.5l3.2 1.5-3.2 1.5c-.2.1-.3.3-.3.5s.1.4.3.5l3.2 1.5-3.2 1.5c-.2.1-.3.3-.3.5s.1.4.3.5l3.2 1.5-3.2 1.5c-.2.1-.3.3-.3.5s.1.4.3.5l11.5 5.5h.2s.1 0 .2 0l11.5-5.5c.2-.1.3-.3.3-.5s-.1-.4-.3-.5l-3.2-1.5 3.2-1.5c.2-.1.3-.3.3-.5s-.1-.4-.3-.5l-3.2-1.5 3.2-1.5c.2-.1.3-.3.3-.5zm-12-8.9 10.3 4.9-10.3 4.9-10.3-4.9zm10.3 16.9-10.3 4.9-10.3-4.9 3-1.4 7.1 3.4h.2s.1 0 .2 0l7.1-3.4zm0-4-10.3 4.9-10.3-4.9 3-1.4 7.1 3.4h.2s.1 0 .2 0l7.1-3.4zm-10.3.9-10.3-4.9 3-1.4 7.1 3.4h.2s.1 0 .2 0l7.1-3.4 3 1.4z"/><circle cx="15.5" cy="4.1" r=".5"/></g></g><g id="flat" display="none"><g display="inline"><path d="m12 12c-.1 0-.1 0-.2 0l-11.5 5.5c-.2.1-.3.3-.3.5s.1.4.3.5l11.5 5.5h.2z" fill="#cae8f9"/><path d="m12 8c-.1 0-.1 0-.2 0l-11.5 5.5c-.2.1-.3.3-.3.5s.1.4.3.5l11.5 5.5h.2z" fill="#32d736"/><path d="m12 4c-.1 0-.1 0-.2 0l-11.5 5.5c-.2.1-.3.3-.3.5s.1.4.3.5l11.5 5.5h.2z" fill="#fedb41"/><path d="m12 0c-.1 0-.1 0-.2 0l-11.5 5.5c-.2.1-.3.3-.3.5s.1.4.3.5l11.5 5.5h.2z" fill="#fd3c65"/><path d="m12 1c-.1 0-.1 0-.2 0l-2 1c-.3.1-.4.4-.3.6s.3.3.5.3h.2l1.8-.8z" fill="#fd003a"/><path d="m23.7 17.5-11.5-5.5c-.1 0-.1 0-.2 0v12h.2l11.5-5.5c.2-.1.3-.3.3-.5s-.1-.4-.3-.5z" fill="#b7e0f6"/><path d="m23.7 13.5-11.5-5.5c-.1 0-.1 0-.2 0v12h.2l11.5-5.5c.2-.1.3-.3.3-.5s-.1-.4-.3-.5z" fill="#10bb67"/><path d="m23.7 9.5-11.5-5.5c-.1 0-.1 0-.2 0v12h.2l11.5-5.5c.2-.1.3-.3.3-.5s-.1-.4-.3-.5z" fill="#fcbf29"/><path d="m23.7 5.5-11.5-5.5c-.1 0-.1 0-.2 0v12h.2l11.5-5.5c.2-.1.3-.3.3-.5s-.1-.4-.3-.5z" fill="#fd003a"/><g fill="#e61e14"><path d="m13.7 1.7-1.5-.7c-.1 0-.1 0-.2 0v1.1l1.3.6c.2.1.5 0 .7-.2.1-.3 0-.6-.3-.8z"/><circle cx="15.5" cy="3.1" r=".5"/></g></g></g></svg>