<svg id="Capa_1" enable-background="new 0 0 281.846 281.846" height="512" viewBox="0 0 281.846 281.846" width="512" xmlns="http://www.w3.org/2000/svg"><path d="m15.215 134.585c-1.294 0-2.342-1.05-2.342-2.343 0-.801.41-1.547 1.086-1.976l29.162-18.559-34.081 19.678c-1.134.624-2.558.21-3.182-.924-.585-1.063-.261-2.396.745-3.073l43.949-28.192-44.131 25.475c-1.106.677-2.552.328-3.228-.778s-.328-2.552.778-3.228l58.872-38.42-56.422 32.605c-1.11.665-2.549.304-3.213-.806-.652-1.089-.318-2.5.754-3.181l64.077-42.206-61.618 35.553c-1.133.625-2.558.214-3.183-.919-.581-1.053-.271-2.375.719-3.059l59.668-39.516-57.209 33.027c-1.133.625-2.558.214-3.183-.919-.581-1.053-.271-2.375.719-3.059l45.973-30.563-43.509 25.114c-1.151.59-2.563.136-3.154-1.016-.517-1.008-.239-2.241.661-2.93l39.662-27.053-37.169 21.431c-1.123.643-2.554.252-3.196-.871-.603-1.055-.299-2.396.699-3.088l26.903-18.442-24.406 14.099c-1.11.665-2.549.304-3.213-.806-.652-1.089-.318-2.5.754-3.181l2.066-1.359c-1.221.427-2.558-.216-2.985-1.438-.34-.972-.005-2.052.825-2.662l30.263-22.134-27.71 15.987c-1.125.639-2.555.246-3.194-.879-.582-1.024-.314-2.32.627-3.029l24.832-18.399-22.265 12.866c-1.128.634-2.556.233-3.19-.896-.553-.985-.325-2.223.542-2.946l18.232-14.829-15.584 9c-1.118.651-2.552.273-3.203-.845-.567-.973-.361-2.212.491-2.95l8.935-7.778-6.227 3.589c-1.139.614-2.56.188-3.174-.951-.505-.938-.314-2.099.465-2.825l1.56-1.382c-.615.002-1.204-.241-1.64-.675-.753-.738-.92-1.889-.408-2.811l2.076-3.748c-1.277-.209-2.142-1.414-1.933-2.69.113-.692.53-1.297 1.137-1.648l5.271-3.027c1.119-.649 2.553-.267 3.201.852.413.713.421 1.59.022 2.31l-1.579 2.839 10.406-6.002c1.125-.64 2.555-.247 3.195.878.544.956.349 2.162-.468 2.899l-.389.347 7.146-4.124c1.127-.635 2.556-.237 3.191.891.541.96.34 2.167-.483 2.9l-8.94 7.768 20.054-11.559c1.128-.634 2.556-.233 3.19.896.553.985.325 2.223-.542 2.946l-18.236 14.816 32.343-18.658c1.125-.639 2.555-.246 3.194.879.582 1.024.314 2.32-.627 3.029l-24.832 18.395 29.78-17.205c1.127-.636 2.556-.238 3.192.889.579 1.026.306 2.323-.638 3.028l-30.268 22.138 30.558-17.645c1.101-.681 2.545-.34 3.226.761s.34 2.545-.761 3.226l-1.518.993 7.703-4.432c1.133-.624 2.558-.212 3.182.922.572 1.039.278 2.341-.685 3.033l-26.904 18.437 38.814-22.391c1.131-.629 2.557-.222 3.186.909.581 1.045.282 2.359-.693 3.05l-39.671 27.062 53.736-31.022c1.136-.62 2.559-.202 3.179.934.571 1.046.266 2.355-.71 3.04l-45.958 30.548 59.036-34.091c1.119-.649 2.553-.268 3.202.852.623 1.074.299 2.448-.737 3.131l-59.627 39.502 64.133-37.014c1.11-.665 2.549-.304 3.213.806.652 1.089.318 2.5-.754 3.181l-64.081 42.206 62.259-35.946c1.133-.624 2.558-.211 3.182.922.583 1.058.266 2.385-.732 3.065l-58.904 38.42 56.477-32.596c1.129-.631 2.557-.227 3.188.902.599 1.072.269 2.424-.756 3.099l-43.92 28.173 41.498-23.961c1.106-.671 2.547-.319 3.219.787s.319 2.547-.787 3.219l-43.443 27.644c1.241.367 1.948 1.671 1.581 2.912-.155.524-.489.978-.944 1.282l-52.378 35.182c.017.854-.432 1.649-1.171 2.076l-13.752 7.923c-1.138.615-2.56.192-3.175-.946-.562-1.04-.262-2.336.701-3.022l9.839-6.62-18.343 10.589c-.353.211-.758.326-1.171.331z" fill="#f5ab01"/><path d="m45.066 64.441c-1.294 0-2.343-1.049-2.342-2.343 0-.613.241-1.202.67-1.64l10.823-11.057-14.993 8.663c-1.119.649-2.553.268-3.202-.852-.561-.967-.36-2.196.479-2.934l2.193-1.935c-.794.237-1.654.028-2.249-.548-.749-.715-.94-1.837-.469-2.76l2.399-4.831c-1.294-.026-2.321-1.096-2.295-2.39.017-.824.465-1.578 1.18-1.987l5.294-3.031c1.112-.662 2.55-.297 3.211.815.414.695.439 1.554.069 2.272l-2.146 4.25 12.697-7.337c1.124-.641 2.555-.249 3.195.875.547.959.349 2.17-.473 2.906l-1.93 1.705 9.507-5.487c1.124-.641 2.555-.249 3.195.875.516.904.372 2.041-.351 2.789l-10.828 11.05 25.512-14.712c1.068-.619 2.433-.303 3.12.722.688 1.026.46 2.41-.52 3.163l-2.197 1.687 9.657-5.571c1.123-.642 2.554-.253 3.197.871.511.893.379 2.015-.325 2.765l-10.922 11.497 25.994-14.993c1.121-.647 2.553-.262 3.2.858.571.989.345 2.245-.534 2.974l-6.232 5.154 7.6-4.386c1.12-.649 2.553-.267 3.201.853.568.981.353 2.228-.512 2.961l-2.23 1.874c1.226-.414 2.555.243 2.97 1.469.257.76.107 1.599-.397 2.223l-2.343 2.914c1.019-.251 2.082.197 2.614 1.101.644 1.119.26 2.549-.857 3.195l-10.195 5.885c-1.124.642-2.554.251-3.196-.873-.477-.835-.395-1.877.207-2.627l2.202-2.727-10.823 6.25c-1.125.639-2.555.246-3.194-.879-.552-.972-.341-2.199.505-2.93l2.043-1.738-9.657 5.552c-1.121.647-2.553.262-3.2-.858-.571-.989-.345-2.245.534-2.974l6.236-5.154-15.579 8.991c-1.126.637-2.556.24-3.192-.886-.503-.889-.371-2.002.325-2.75l10.917-11.512-26.299 15.182c-1.122.644-2.554.257-3.198-.866-.582-1.014-.327-2.303.598-3.019l2.188-1.682-9.68 5.599c-.354.214-.759.327-1.172.329z" fill="#f0f2f5"/><path d="m15.623 134.581c-1.294 0-2.343-1.049-2.343-2.343 0-.808.416-1.559 1.101-1.987l9.732-6.091c-.86.06-1.681-.372-2.118-1.115-.664-1.084-.342-2.5.726-3.191l20.751-13.386-18.31 10.57c-1.128.634-2.556.233-3.19-.895-.583-1.038-.295-2.348.669-3.045l39.357-27.77-36.841 21.281c-1.118.651-2.552.272-3.203-.847-.616-1.059-.313-2.413.696-3.108l21.37-14.824-18.862 10.875c-1.118.651-2.552.271-3.203-.847-.596-1.024-.333-2.332.612-3.047l22.237-16.966-19.646 11.344c-1.129.632-2.556.229-3.189-.899-.562-1.003-.313-2.266.588-2.98l10.58-8.162-7.965 4.606c-1.123.642-2.554.251-3.196-.872-.566-.99-.336-2.244.544-2.97l4.685-3.805-2.01 1.162c-1.123.643-2.554.254-3.197-.869-.414-.722-.413-1.61.002-2.331l4.653-8.054-.07.037c-1.146.6-2.562.157-3.162-.99-.564-1.079-.208-2.41.819-3.063l7.647-4.418c1.121-.647 2.553-.263 3.2.858.418.725.418 1.618 0 2.342l-4.677 8.059 19.575-11.301c1.118-.65 2.552-.271 3.203.847.58.997.348 2.267-.546 2.995l-4.653 3.79 13.236-7.637c1.129-.632 2.556-.229 3.189.899.562 1.003.313 2.266-.588 2.98l-10.593 8.167 20.873-12.041c1.126-.637 2.555-.241 3.193.885.572 1.012.316 2.29-.602 3.004l-22.242 16.965 36.125-20.855c1.129-.631 2.557-.227 3.188.902.582 1.041.289 2.353-.681 3.047l-21.394 14.844 32.559-18.793c1.128-.634 2.556-.233 3.19.895.583 1.038.295 2.348-.669 3.045l-39.358 27.757 54.927-31.696c1.129-.631 2.557-.227 3.188.902.596 1.066.273 2.41-.742 3.089l-20.784 13.424 30.178-17.416c1.144-.604 2.561-.165 3.165.979.557 1.056.231 2.361-.757 3.031l-3.378 2.113 10.608-6.124c1.129-.632 2.557-.228 3.188.901.593 1.061.277 2.399-.728 3.082l-45.776 30.071 51.637-29.836c1.137-.617 2.559-.196 3.177.941.573 1.055.255 2.372-.735 3.051l-30.108 19.449 29.255-16.881c1.125-.639 2.555-.246 3.194.879.608 1.069.285 2.427-.739 3.108l-29.232 19.21 26.777-15.462c1.137-.617 2.559-.196 3.176.941.573 1.055.255 2.372-.735 3.051l-9.305 6.021 6.869-3.959c1.122-.644 2.554-.256 3.198.866.595 1.037.314 2.357-.654 3.061l-32.231 23.291 29.686-17.111c1.129-.633 2.556-.231 3.189.898.592 1.056.282 2.389-.715 3.075l-2.001 1.34c1.234-.388 2.549.298 2.938 1.532.305.97-.051 2.027-.881 2.615l-8.555 6.091 6.025-3.477c1.14-.612 2.56-.183 3.172.957.495.923.318 2.063-.436 2.792l-14.403 12.908 11.667-6.733c1.121-.646 2.553-.262 3.2.859.534.925.374 2.094-.389 2.842l-5.121 5.023 2.315-1.34c1.125-.639 2.555-.246 3.194.879.633 1.114.254 2.53-.852 3.179l-18.376 10.603c-1.121.646-2.553.262-3.2-.859-.534-.925-.374-2.094.389-2.842l5.13-5.023-15.124 8.724c-1.14.612-2.56.183-3.172-.957-.495-.923-.318-2.063.436-2.792l14.403-12.908-28.89 16.656c-1.132.626-2.558.215-3.184-.917-.567-1.027-.288-2.315.653-3.014l8.565-6.091-17.397 10.022c-1.138.615-2.56.192-3.175-.946-.562-1.04-.262-2.336.701-3.022l1.26-.848-8.349 4.817c-1.122.644-2.554.256-3.198-.866-.595-1.037-.314-2.357.654-3.061l32.226-23.291-47.135 27.217c-1.137.617-2.559.196-3.176-.941-.573-1.055-.255-2.372.735-3.051l9.286-6.011-17.336 10.003c-1.136.618-2.559.198-3.177-.938-.572-1.05-.26-2.363.722-3.045l29.241-19.21-40.191 23.193c-1.129.631-2.557.227-3.188-.902-.596-1.066-.273-2.41.742-3.089l30.141-19.435-40.627 23.427c-1.129.632-2.557.228-3.188-.901-.593-1.061-.277-2.399.728-3.082l45.785-30.075-59.003 34.058c-.352.209-.756.322-1.169.327z" fill="#fcc10a"/><path d="m87.103 209.546c-1.294-.004-2.34-1.056-2.336-2.349.002-.755.368-1.462.982-1.9l18.086-12.852-28.605 16.52c-1.105.674-2.547.325-3.221-.78s-.325-2.547.78-3.221l38.837-24.978-42.796 24.72c-1.106.672-2.547.319-3.219-.787-.671-1.106-.319-2.547.787-3.219l38.889-24.767-37.951 21.899c-1.121.646-2.553.261-3.2-.859-.63-1.092-.282-2.487.787-3.156l20.541-12.866-18.132 10.462c-1.118.65-2.552.271-3.203-.847-.629-1.081-.297-2.465.752-3.145l58.806-38.354-56.356 32.535c-1.127.635-2.556.236-3.191-.891-.612-1.086-.266-2.462.787-3.129l4.217-2.614-1.823 1.045c-1.133.624-2.558.211-3.182-.922-.583-1.058-.266-2.385.732-3.065l55.03-35.941-52.574 30.347c-1.119.649-2.553.267-3.202-.852-.619-1.068-.303-2.434.723-3.121l53.535-36.03-51.07 29.476c-1.144.604-2.561.167-3.166-.977-.555-1.051-.236-2.351.743-3.024l6.199-3.94-3.776 2.179c-1.129.631-2.557.227-3.188-.902-.596-1.066-.273-2.41.742-3.089l13.456-8.734-11.011 6.358c-1.125.639-2.555.246-3.194-.879-.608-1.07-.285-2.427.739-3.108l9.024-5.913-6.56 3.79c-1.126.637-2.556.24-3.192-.887-.585-1.035-.302-2.343.657-3.044l27.644-19.819-25.104 14.482c-1.132.627-2.558.217-3.184-.915-.573-1.035-.285-2.335.673-3.03l21.023-14.707-18.512 10.687c-1.128.634-2.556.234-3.19-.894-.591-1.052-.287-2.38.702-3.07l9.333-6.358-6.845 3.954c-1.119.649-2.553.269-3.202-.85-.617-1.063-.307-2.423.709-3.114l1.916-1.307c-1.252.325-2.531-.426-2.856-1.678-.231-.888.078-1.829.79-2.407l14.112-11.409-11.47 6.62c-1.126.637-2.555.241-3.193-.885-.502-.888-.373-1.998.321-2.746l9.399-9.966-6.527 3.748c-1.12.647-2.553.263-3.2-.857-.388-.673-.418-1.494-.08-2.193l2.591-5.346c-1.293.045-2.378-.966-2.423-2.259-.03-.867.421-1.679 1.172-2.112l5.29-3.05c1.121-.645 2.554-.259 3.199.862.385.67.416 1.487.081 2.183l-2.371 4.901 13.775-7.965c1.126-.637 2.555-.241 3.193.885.502.888.373 1.998-.321 2.746l-9.404 10.003 23.567-13.588c1.127-.635 2.556-.236 3.191.891.557.988.326 2.233-.548 2.956l-14.12 11.412 26.44-15.26c1.131-.629 2.557-.222 3.186.909.581 1.045.282 2.359-.693 3.05l-.975.665 7.651-4.414c1.137-.618 2.559-.197 3.177.94.563 1.036.268 2.329-.689 3.019l-9.371 6.367 10.603-6.119c1.122-.644 2.554-.256 3.198.866.603 1.051.305 2.388-.687 3.084l-21.028 14.707 19.416-11.221c1.126-.637 2.556-.24 3.192.887.585 1.035.302 2.343-.657 3.044l-27.644 19.838 37.389-21.567c1.129-.632 2.557-.228 3.188.901.593 1.061.277 2.399-.728 3.082l-8.963 5.857 17.083-9.839c1.133-.624 2.558-.211 3.182.922.582 1.058.266 2.385-.732 3.065l-13.428 8.719 22.021-12.707c1.144-.604 2.561-.167 3.166.977.555 1.051.236 2.351-.743 3.024l-6.227 3.959 13.794-7.965c1.132-.627 2.558-.218 3.184.914.581 1.049.276 2.367-.706 3.054l-53.582 36.04 67.226-38.809c1.118-.65 2.552-.271 3.203.848.629 1.081.297 2.465-.752 3.144l-55.011 35.938 57.021-32.915c1.133-.624 2.558-.211 3.182.922.592 1.075.254 2.424-.774 3.094l-4.039 2.502 1.916-1.101c1.133-.624 2.558-.211 3.182.922.582 1.058.266 2.385-.732 3.065l-58.834 38.383 56.407-32.568c1.138-.616 2.559-.194 3.176.944.577 1.066.246 2.396-.763 3.067l-20.559 12.875 18.156-10.476c1.138-.616 2.559-.194 3.176.943.575 1.06.251 2.383-.749 3.058l-38.842 24.729 34.339-19.824c1.105-.674 2.547-.325 3.221.78s.325 2.547-.78 3.221l-49.876 32.09c.595.14 1.114.504 1.448 1.017.676 1.054.404 2.453-.618 3.177l-47.135 33.463c.08.908-.373 1.779-1.162 2.235l-10.687 6.157c-.354.21-.758.323-1.171.327z" fill="#f5ab01"/><path d="m108.553 134.721c-1.294.001-2.343-1.048-2.344-2.342 0-.598.228-1.173.638-1.608l10.992-11.713-17.715 10.228c-1.122.644-2.554.255-3.198-.867-.489-.854-.393-1.922.241-2.675l6.681-7.871-3.748 2.146c-1.122.644-2.554.256-3.198-.866-.431-.752-.412-1.68.049-2.414l1.541-2.404c-.503-.19-.924-.548-1.195-1.012-.649-1.119-.267-2.553.852-3.202.002-.001.004-.002.005-.003l5.285-3.045c1.122-.644 2.554-.256 3.198.866.431.752.412 1.68-.049 2.414l-.52.815 7.131-4.09c1.122-.644 2.554-.255 3.198.867.489.854.393 1.922-.241 2.675l-6.677 7.862 19.791-11.404c1.123-.643 2.554-.253 3.197.869.51.891.38 2.011-.32 2.762l-10.987 11.713 26.533-15.345c1.128-.633 2.556-.231 3.189.897.544.97.331 2.189-.509 2.917l-7.375 6.203 17.387-10.017c1.022-.589 2.323-.326 3.036.614.713.942.613 2.268-.234 3.092l-10.402 10.134 22.401-12.95c1.123-.642 2.554-.253 3.197.87.552.965.35 2.185-.484 2.92l-7.445 6.508 6.723-3.879c1.123-.642 2.554-.252 3.196.871.511.895.378 2.019-.329 2.769l-3.922 4.132 1.106-.633c1.12-.647 2.553-.264 3.2.856.308.533.394 1.167.239 1.763l-1.218 4.62c.433.201.795.527 1.04.937.646 1.121.26 2.554-.861 3.199 0 0-.001.001-.001.001l-2.343 1.349c-.821.467-1.842.401-2.596-.169-.749-.575-1.079-1.543-.839-2.455l.853-3.28-10.219 5.899c-1.123.642-2.554.253-3.197-.871-.511-.893-.379-2.015.325-2.765l3.922-4.137-13.508 7.796c-1.123.642-2.554.253-3.197-.87-.552-.965-.35-2.185.484-2.92l7.445-6.508-17.879 10.308c-1.117.653-2.552.277-3.205-.84-.545-.932-.382-2.115.394-2.866l10.411-10.134-24.027 13.869c-1.123.642-2.554.252-3.196-.872-.559-.979-.342-2.217.516-2.947l7.375-6.222-17.43 10.064c-.343.236-.746.37-1.163.391z" fill="#f0f2f5"/><path d="m135.653 209.546c-1.294-.002-2.341-1.053-2.339-2.347.001-.785.396-1.517 1.05-1.95l15.607-10.308-24.771 14.277c-1.133.624-2.558.211-3.182-.922-.583-1.058-.266-2.385.732-3.065l17.481-11.367-26.599 15.354c-1.141.609-2.561.178-3.17-.964-.554-1.038-.252-2.326.705-3.009l41.208-27.381-54.313 31.354c-1.133.625-2.558.214-3.183-.919-.581-1.053-.271-2.375.719-3.059l50.513-33.336-64.63 37.314c-1.133.624-2.558.211-3.182-.922-.583-1.058-.266-2.385.732-3.065l47.791-31.059-40.749 23.516c-1.135.622-2.558.206-3.18-.928-.571-1.042-.272-2.347.697-3.036l45.5-30.75-43.016 24.832c-1.122.644-2.554.256-3.198-.866-.603-1.051-.305-2.388.687-3.084l38.636-27.02-36.129 20.855c-1.119.649-2.553.268-3.202-.852-.605-1.044-.319-2.377.662-3.079l28.314-20.339-25.77 14.881c-1.125.639-2.555.244-3.194-.881-.571-1.005-.323-2.277.584-2.994l22.649-17.645-20.039 11.568c-1.124.64-2.555.247-3.195-.877-.579-1.016-.319-2.304.609-3.016l7.965-6.058-5.388 3.106c-1.13.629-2.557.223-3.186-.908-.542-.974-.323-2.196.525-2.92l4.685-3.875-2.019 1.162c-1.126.638-2.555.243-3.193-.883-.41-.724-.406-1.612.012-2.331l4.381-7.295c-1.176.539-2.567.023-3.106-1.153-.502-1.094-.093-2.39.946-2.998l7.647-4.418c1.119-.65 2.553-.269 3.202.85.43.74.422 1.656-.021 2.388l-4.376 7.281 18.32-10.57c1.126-.637 2.556-.24 3.192.886.554.98.333 2.215-.526 2.942l-4.657 3.856 13.325-7.698c1.118-.651 2.552-.271 3.203.847.596 1.024.333 2.332-.612 3.047l-7.965 6.068 17.237-9.961c1.125-.639 2.555-.244 3.194.881.571 1.005.323 2.277-.584 2.994l-22.649 17.64 37.272-21.515c1.119-.649 2.553-.268 3.202.852.605 1.044.319 2.377-.662 3.08l-28.332 20.349 42.065-24.28c1.132-.627 2.558-.217 3.184.915.573 1.035.284 2.335-.673 3.03l-38.626 27.02 53.624-30.966c1.135-.622 2.558-.206 3.18.928.571 1.042.272 2.347-.697 3.036l-45.495 30.745 60.141-34.709c1.133-.624 2.558-.211 3.182.922.582 1.058.266 2.385-.732 3.065l-47.793 31.061 55.756-32.193c1.129-.632 2.557-.228 3.188.901.593 1.061.277 2.399-.728 3.082l-50.508 33.336 51.052-29.476c1.141-.609 2.561-.178 3.17.964.554 1.038.252 2.326-.705 3.009l-41.189 27.367 38.725-22.363c1.14-.612 2.56-.184 3.172.956.563 1.048.25 2.352-.726 3.031l-17.533 11.409 15.092-8.705c1.139-.613 2.56-.187 3.173.952.562 1.044.256 2.343-.714 3.026l-15.607 10.308 13.147-7.586c1.119-.649 2.553-.268 3.202.852.623 1.074.299 2.447-.737 3.131l-6.039 3.997 3.575-2.062c1.126-.637 2.556-.24 3.192.887.585 1.035.302 2.343-.657 3.044l-17.584 12.599 15.049-8.663c1.126-.637 2.555-.24 3.192.886.554.98.333 2.215-.526 2.942l-17.903 14.853 15.237-8.794c1.13-.63 2.557-.224 3.187.906.522.936.342 2.106-.437 2.843l-8.785 7.965 6.035-3.481c1.12-.648 2.553-.265 3.201.855.436.754.418 1.689-.048 2.425l-4.039 6.414c1.245-.352 2.54.372 2.892 1.617.291 1.028-.151 2.122-1.074 2.661l-7.586 4.381c-1.12.648-2.553.265-3.201-.855-.436-.754-.418-1.689.048-2.425l3.954-6.283-16.675 9.638c-1.13.63-2.557.224-3.187-.906-.522-.936-.342-2.106.437-2.843l8.78-7.993-20.358 11.742c-1.126.637-2.555.24-3.192-.886-.554-.98-.333-2.215.526-2.942l17.898-14.848-32.357 18.676c-1.126.637-2.556.24-3.192-.887-.585-1.035-.302-2.343.657-3.044l17.575-12.594-28.628 16.525c-1.125.64-2.555.247-3.195-.878-.605-1.064-.289-2.415.725-3.1l6.049-4.006-13.831 7.965c-.354.215-.758.334-1.172.344z" fill="#fcc10a"/><path d="m139.111 279.832c-1.294 0-2.343-1.048-2.343-2.342 0-.793.4-1.531 1.064-1.964l20.489-13.33-26.411 15.246c-1.129.631-2.557.227-3.188-.902-.596-1.066-.273-2.41.742-3.09l52.846-34.348-54.064 31.209c-1.141.61-2.56.179-3.17-.962-.565-1.058-.24-2.372.753-3.044l28.951-18.273-26.538 15.321c-1.138.616-2.559.194-3.176-.943-.575-1.06-.25-2.383.749-3.058l39.259-24.987-36.832 21.286c-1.116.654-2.551.28-3.206-.837-.639-1.09-.298-2.49.769-3.165l48.845-31.42-46.409 26.791c-1.129.631-2.557.227-3.188-.902-.596-1.066-.273-2.41.742-3.09l52.832-34.362-50.391 29.091c-1.134.623-2.558.21-3.182-.924-.588-1.068-.257-2.409.759-3.082l21.731-13.756-19.308 11.146c-1.144.604-2.561.167-3.166-.977-.555-1.051-.236-2.351.743-3.024l13.766-8.757-11.357 6.56c-1.123.642-2.554.252-3.196-.872-.619-1.083-.281-2.461.769-3.134l6.292-4.001-3.865 2.226c-1.137.617-2.559.196-3.177-.941-.573-1.055-.255-2.372.735-3.051l10.659-6.887-8.204 4.737c-1.122.644-2.554.256-3.198-.866-.603-1.051-.305-2.388.687-3.084l27.288-19.06-24.776 14.304c-1.121.646-2.553.262-3.2-.859-.604-1.047-.312-2.382.674-3.081l24.083-17.05-21.553 12.44c-1.125.639-2.555.246-3.194-.879-.582-1.024-.314-2.32.627-3.029l30.127-22.363-27.559 15.93c-1.129.632-2.556.23-3.189-.898-.572-1.021-.303-2.308.631-3.014l15.996-11.77-13.438 7.754c-1.119.649-2.553.268-3.202-.852-.561-.967-.36-2.196.479-2.934l15.152-13.353-12.435 7.164c-1.108.667-2.548.31-3.215-.799-.57-.946-.401-2.161.404-2.917l5.772-5.547-2.98 1.72c-1.114.658-2.551.288-3.208-.826-.407-.689-.434-1.539-.071-2.252l2.465-4.915c-1.294-.018-2.328-1.081-2.31-2.375.011-.825.456-1.584 1.171-1.996l5.29-3.05c1.115-.656 2.551-.284 3.207.832.404.686.431 1.531.073 2.242l-2.188 4.376 12.927-7.45c1.108-.667 2.548-.31 3.215.799.57.946.401 2.161-.404 2.917l-5.777 5.552 16.043-9.268c1.124-.641 2.555-.249 3.195.875.547.959.349 2.17-.473 2.906l-15.157 13.363 29.701-17.144c1.129-.633 2.556-.23 3.189.898.572 1.021.303 2.308-.631 3.014l-15.977 11.756 26.205-15.124c1.13-.629 2.557-.223 3.186.907.566 1.016.3 2.294-.624 3.001l-30.132 22.354 30.122-17.392c1.111-.662 2.549-.298 3.212.813.631 1.059.333 2.426-.682 3.127l-24.097 17.064 28.365-16.361c1.132-.627 2.558-.217 3.184.915.573 1.035.284 2.335-.673 3.03l-27.25 19.013 39.788-22.958c1.137-.617 2.559-.196 3.177.941.573 1.055.255 2.372-.735 3.051l-10.697 6.934 18.929-10.926c1.129-.631 2.557-.228 3.188.902.599 1.072.269 2.424-.756 3.1l-6.274 3.964 13.822-7.965c1.144-.604 2.561-.167 3.166.977.555 1.051.236 2.351-.743 3.024l-13.817 8.776 22.171-12.777c1.134-.623 2.558-.21 3.182.924.587 1.068.257 2.409-.759 3.082l-21.693 13.733 27.545-15.902c1.118-.65 2.552-.271 3.203.847.629 1.081.297 2.465-.752 3.145l-52.832 34.334 54.289-31.336c1.105-.674 2.547-.325 3.221.78s.325 2.547-.78 3.221l-48.873 31.439 46.558-26.875c1.138-.616 2.559-.194 3.176.943.575 1.06.251 2.383-.749 3.058l-39.259 24.992 36.832-21.257c1.141-.61 2.561-.179 3.17.962.565 1.058.24 2.372-.753 3.044l-28.965 18.273 26.557-15.335c1.118-.65 2.552-.271 3.203.847.629 1.081.297 2.465-.752 3.145l-52.874 34.334 25.376-14.642c1.129-.631 2.557-.227 3.188.902.596 1.066.273 2.41-.742 3.09l-42.515 27.676c.257.192.473.434.633.712.647 1.12.263 2.553-.857 3.2l-51.206 29.546c-.362.211-.773.326-1.192.329z" fill="#f5ab01"/><path d="m169.964 205.002c-1.294.016-2.355-1.02-2.371-2.314-.009-.747.339-1.454.937-1.903l2.441-1.874-9.933 5.721c-1.123.642-2.554.253-3.197-.871-.511-.893-.379-2.015.325-2.765l10.931-11.531-8.064 4.653c-1.121.645-2.554.259-3.199-.862-.374-.649-.414-1.438-.109-2.122l2.858-6.391c-.941.128-1.867-.326-2.343-1.148-.649-1.119-.267-2.553.852-3.202.002-.001.004-.002.005-.003l5.285-3.046c1.121-.645 2.554-.259 3.199.862.374.649.414 1.438.109 2.122l-2.732 6.119 15.757-9.09c1.12-.648 2.553-.265 3.201.854.519.897.387 2.028-.324 2.781l-10.931 11.535 26.276-15.171c1.124-.641 2.555-.25 3.196.873.576 1.01.325 2.289-.591 3.006l-2.465 1.898 10.017-5.777c1.123-.643 2.554-.255 3.197.868.575 1.004.331 2.277-.574 2.997l-4.132 3.28 12.355-7.145c1.129-.632 2.557-.229 3.188.9.541.967.331 2.181-.504 2.909l-7.614 6.466 17.804-10.275c1.127-.635 2.556-.236 3.191.891.557.988.326 2.233-.548 2.956l-5.421 4.385 7.792-4.498c1.124-.64 2.555-.247 3.195.877.562.987.335 2.234-.538 2.96l-1.898 1.556c1.243-.359 2.542.358 2.901 1.601.231.802.019 1.666-.558 2.269l-2.127 2.216c1.266-.265 2.508.546 2.773 1.813.104.494.045 1.009-.168 1.467l-1.143 2.441c.462.198.848.54 1.101.975.648 1.12.265 2.553-.855 3.201-.002.001-.005.003-.007.004l-3.631 2.094c-1.126.637-2.555.24-3.192-.886-.371-.656-.404-1.452-.087-2.136l.436-.937-6.883 3.969c-1.12.647-2.553.264-3.2-.857-.521-.902-.384-2.041.338-2.793l1.832-1.902-9.666 5.576c-1.124.64-2.555.247-3.195-.877-.562-.987-.335-2.234.538-2.96l1.616-1.321-8.968 5.154c-1.122.644-2.554.255-3.198-.867-.57-.994-.337-2.255.55-2.98l5.421-4.386-14.281 8.265c-1.12.649-2.553.267-3.201-.853-.568-.981-.353-2.228.512-2.961l7.623-6.47-17.858 10.308c-1.123.643-2.554.255-3.197-.868-.575-1.004-.331-2.277.573-2.997l4.132-3.28-12.383 7.15c-.352.218-.757.338-1.171.347z" fill="#f0f2f5"/><path d="m150.201 279.827c-1.294.001-2.344-1.047-2.345-2.341-.001-.805.412-1.554 1.094-1.984l22.687-14.328-31.757 18.324c-1.134.624-2.558.21-3.182-.924-.585-1.063-.261-2.396.745-3.073l37.281-23.849-27.742 16.024c-1.123.642-2.554.252-3.196-.872-.619-1.083-.281-2.461.769-3.134l12.96-8.232-10.533 6.091c-1.129.631-2.557.227-3.188-.902-.599-1.072-.269-2.424.756-3.099l9.371-5.988-6.934 3.997c-1.117.653-2.552.276-3.204-.841-.616-1.055-.318-2.406.684-3.104l35.955-25.301-33.435 19.304c-1.124.641-2.555.249-3.195-.875-.604-1.059-.294-2.404.712-3.093l13.588-9.207-11.09 6.4c-1.125.639-2.555.244-3.194-.881-.571-1.005-.323-2.277.584-2.994l23.029-17.968-20.442 11.779c-1.125.64-2.555.247-3.195-.878-.587-1.032-.309-2.339.646-3.044l3.467-2.521-.937.529c-1.121.646-2.553.262-3.2-.859-.534-.925-.374-2.094.389-2.842l9.956-9.722-7.117 4.109c-1.121.646-2.553.261-3.199-.861-.447-.776-.413-1.738.088-2.48l3.575-5.276c-1.288.121-2.431-.825-2.552-2.113-.085-.906.362-1.779 1.146-2.24l7.646-4.418c1.121-.646 2.553-.261 3.199.861.447.776.413 1.738-.088 2.48l-3.317 4.896 14.342-8.279c1.121-.646 2.553-.262 3.2.859.534.925.374 2.094-.389 2.842l-9.928 9.703 23.249-13.405c1.125-.64 2.555-.247 3.195.878.587 1.032.309 2.339-.646 3.044l-3.453 2.516 11.146-6.438c1.12-.648 2.553-.266 3.201.853.586 1.012.336 2.302-.587 3.021l-23.033 17.954 37.839-21.829c1.135-.622 2.558-.206 3.18.928.571 1.042.272 2.347-.697 3.036l-13.588 9.225 22.846-13.189c1.128-.634 2.556-.233 3.19.895.583 1.038.295 2.348-.669 3.045l-35.955 25.301 50.649-29.241c1.141-.611 2.56-.181 3.171.96.564 1.053.245 2.361-.739 3.037l-9.371 5.988 17.317-9.985c1.137-.616 2.559-.194 3.176.943.575 1.06.251 2.383-.749 3.058l-12.988 8.256 21.229-12.257c1.134-.624 2.558-.21 3.182.924.585 1.063.261 2.396-.745 3.073l-37.281 23.849 44.867-25.901c1.141-.61 2.561-.179 3.17.962.565 1.058.24 2.372-.753 3.044l-22.658 14.309 23.455-13.541c1.102-.678 2.546-.334 3.224.768s.334 2.546-.768 3.224l-40.05 26.163 38.284-22.115c1.127-.636 2.556-.239 3.192.888.592 1.048.293 2.373-.69 3.066l-46.385 32.113 43.883-25.329c1.121-.646 2.553-.262 3.2.859.604 1.047.312 2.382-.674 3.081l-34.611 24.476 32.085-18.521c1.119-.649 2.553-.268 3.202.852.623 1.074.299 2.447-.737 3.131l-3.28 2.183.829-.469c1.13-.631 2.557-.226 3.187.904.552.99.317 2.233-.559 2.952l-23.572 18.812 20.944-12.088c1.123-.643 2.554-.254 3.197.869.541.945.36 2.138-.437 2.879l-14.525 13.377 11.77-6.789c1.123-.643 2.554-.254 3.197.869.472.825.399 1.853-.184 2.603l-6.138 7.834 2.68-1.546c1.092-.694 2.54-.372 3.234.72s.372 2.54-.72 3.234c-.056.035-.112.068-.171.099l-13.175 7.581c-1.123.643-2.554.254-3.197-.869-.472-.825-.399-1.853.184-2.603l6.133-7.829-19.575 11.301c-1.123.643-2.554.254-3.197-.869-.541-.945-.36-2.138.437-2.879l14.525-13.381-29.677 17.13c-1.13.631-2.557.226-3.187-.904-.552-.99-.317-2.233.559-2.952l23.581-18.816-39.282 22.672c-1.133.625-2.558.214-3.183-.919-.581-1.053-.271-2.375.719-3.059l3.28-2.165-10.659 6.143c-1.13.63-2.557.224-3.187-.907-.575-1.032-.291-2.33.661-3.029l34.611-24.486-49.229 28.421c-1.129.631-2.557.227-3.188-.902-.582-1.041-.288-2.353.681-3.047l46.385-32.109-62.479 36.059c-1.125.639-2.555.246-3.194-.879-.608-1.07-.285-2.427.739-3.109l40.041-26.158-52.218 30.146c-.36.213-.764.327-1.176.331z" fill="#fcc10a"/><path d="m1.689 109.842c0 11.877-1.621 19.435 10.776 24.626.818.258 1.699.229 2.497-.084h47.618v47.243c0 12.679-2.483 22.443 10.856 28.028.551.196 1.145.242 1.72.131h48.381v39.31c0 12.552-3.308 24.364 9.867 29.986.625.799 1.614 1.225 2.624 1.129 40.894 0 81.806.365 122.696 0 11.545-.103 19.168-1.073 21.585-13.897 3.458-18.367 0-40.453 0-59.204 0-.08-.047-.131-.056-.206.021-.155.021-.313 0-.469-2.511-9.244-10.214-11.376-18.69-11.61.469-12.838 4.357-31.626-10.088-35.876-9.113-2.685-21.239-1.448-32.062-.675.262-16.061 3.28-31.631-16.375-33.022-.773-.052-1.551-.075-2.319-.127.511-10.669 3.748-29.551-5.875-35.773-7.937-5.154-24.725-3.036-36.363-2.057.356-15.181 3.28-30.455-15.368-31.889-1.11-.089-2.235-.127-3.345-.197.469-10.172 3.814-29.841-5.463-35.815-10.041-6.466-31.762-1.691-42.946-1.691-13.227 0-10.486 1.368-17.233-7.497-4.179-5.477.262-3.898-6.864-6.56-12.477-4.685-35.609-.408-49.131 0-7.675.234-13.32-.661-16.441 7.487-3.8 9.924 0 29.827 0 40.214v58.495zm271.751 98.318c.056 17.495 2.497 36.766 0 53.989-2.394 16.46-13.503 12.885-27.934 12.885h-100.108c15.607-17.528-12.407-67.722 13.227-74.469 17.851-4.685 43.279 0 61.702 0 3.28 0 9.225-.661 16.019-1.139 1.106 1.443 4.311 1.059 5.735-.328 4.266-.218 8.542-.191 12.805.08.389.623 1.874.698 3.402.328 7.59.975 13.634 3.402 15.134 8.654zm-110.284-23.774c2.193-3.954 1.79-2.043 5.871-2.811 9.291-1.776 20.751 0 30.188 0 9.773-.574 19.571-.574 29.344 0 4.685.567 4.882-1.541 7.389 3.411.816 3.409.88 6.956.187 10.392h-69.718c-1.167 0-2.296 0-3.411 0-.777-3.629-.725-7.386.15-10.992zm79.97-22.138c14.853 3.889 12.299 19.477 11.713 32.685-3.575.173-7.089.469-10.219.469h-1.757c.333-8.223 1.837-16.708-8.007-18.498-10.875-1.977-23.938 0-34.962 0-10.945 0-24.181-2.09-34.962 0-10.125 1.963-8.987 10.537-8.687 18.835-7.535.073-13.695 6.031-14.019 13.559-1.973 11.596 8.368 59.504-5.622 65.534-9.633-6.091-6.302-19.721-6.302-29.382v-48.156c0-12.814-2.675-28.951 0-41.536.337-1.584-.937-6.269.426-7.567 1.982-1.916 15.64 0 18.395 0 11.203 0 32.123-4.428 39.99 3.837 2.113 2.221-.094 6.733 3.697 9.314 2.179 1.49 4.854.656 7.262.904 4.347.349 8.716.324 13.058-.075 1.705 1.116 3.948.941 5.458-.426 8.151-1.191 16.443-1.022 24.538.503zm-38.467-32.114c10.5 3.917 8.26 18.676 7.9 28.51-1.087.042-2.197.089-3.233.089-1.705 0-7.117.975-8.78 0-5.21-3.055-2.254-5.187-4.629-8.523-2.999-4.217-1.696-3.748-7.211-5.533-12.44-4.025-37.23-1.148-50.096 0-7.211.647-12.055-.23-15.073 7.351-3.552 8.902 0 26.468 0 35.984v16.867h-39.475c7.529-8.265 4.132-23.825 4.132-35.379 0-8.616-2.788-23.394 0-31.659 1.003-4.467 4.933-7.668 9.511-7.745.484.044.971.02 1.448-.07 2.272-.07 4.728.084 7.309.084h74.722c3.537 0 8.373-.661 13.035-.909 1.586 1.313 3.882 1.313 5.468 0 1.694.074 3.367.388 4.972.933zm-102.408-15.991c2.188-3.861 1.874-1.991 5.89-2.75 9.315-1.752 20.737 0 30.188 0 9.775-.569 19.574-.569 29.349 0 4.582.553 4.863-1.495 7.356 3.28.815 3.187.9 6.517.248 9.741-17.936 0-35.993.825-53.722.825-5.562 0-12.73-.886-19.51-.703-.746-3.433-.677-6.992.201-10.393zm79.562-21.417c15.213 3.926 12.491 18.348 12.018 32.029-3.936-.159-7.884-.261-11.845-.305.37-8.026 1.518-16.16-8.068-17.94-10.847-2.015-23.966 0-34.962 0s-24.191-2.094-34.962 0c-10.027 1.949-8.991 10.453-8.677 18.681-6.81.571-12.468 5.482-13.991 12.144-2.853 12.046 8.804 60.038-5.056 67.146-10.556-5.515-6.813-20.836-6.813-30.52v-48.559c0-11.929-2.727-27.587 0-39.263 2.624-11.245 9.867-7.468 22.124-7.468h24.448c9.708 0 6.653-.553 12.144 5.932 4.685 5.515 2.16 6.953 10.94 8.124 13.613 1.803 29.469-3.421 42.7-.001zm-30.118-5.041h-.375c-3.474.52-7.007.52-10.481 0-4.948-1.949-2.525-3.388-5.786-7.103-3.894-4.442-.159-4.217-6.958-6.93-11.428-4.545-34.133-.023-46.493-.023-8.56 0-15.687-1.406-19.023 7.689-3.894 10.603 0 28.871 0 40.107v8.94h-32.071c-1.743 0-4.629.408-7.45.595.809-.819 1.56-1.692 2.249-2.614 12.402-16.066-8.621-49.904 4.409-65.455 5.496-6.56 18.845-3.481 27.288-3.481h47.322c3.252 0 6.883-.244 10.636-.511.997.147 2.013.077 2.98-.206 5.03-.424 10.081-.531 15.124-.319.614 1.584 3.355 1.56 5.154.609.773.136 1.574.239 2.31.426 13.503 3.429 11.554 16.619 11.165 28.276zm-110.396-44.46c2.038-4.521.061-2.197 5.679-2.961 10.287-.675 20.608-.675 30.895 0 8.949 0 20.747-2.062 29.476 0 7.623 1.794 7.22 7.337 6.92 14.234-17.584.056-35.295.909-52.631.909-4.882 0-12.805-1.031-20.438-.834-.71-3.752-.677-7.608.099-11.348zm-32.77-28.37c.89-3.673-.787-4.578 1.954-6.756 2.558-2.033 16.399 0 19.243 0h24.448c8.284 0 7.965-.586 13.119 5.154s.984 7.731 11.114 8.902c13.663 1.602 29.804-3.486 43.04 0 14.571 3.837 11.948 19.641 11.503 32.652-3.969-.164-7.965-.244-11.952-.281.272-8.476 1.804-16.075-8.251-17.448-12.74-1.738-26.922 0-39.769 0-9.371 0-20.541-1.705-29.813.089-9.994 1.93-9.066 9.839-8.724 17.992-5.037.333-9.656 2.914-12.58 7.028-7.379 12.561 8.734 60.038-6.124 67.713-10.997-5.407-7.206-21.37-7.206-31.134v-48.082c-.002-10.818-2.564-25.282-.002-35.829z" fill="#262626"/></svg>