<svg height="502pt" viewBox="0 -2 502.99049 502" width="502pt" xmlns="http://www.w3.org/2000/svg"><path d="m94.480469 494.929688c-1.875-.003907-3.519531-1.246094-4.03125-3.050782-.511719-1.800781.230469-3.726562 1.824219-4.714844l121.042968-74.976562-142.328125 82.144531c-1.96875 1.039063-4.410156.359375-5.554687-1.550781-1.148438-1.910156-.601563-4.382812 1.242187-5.632812l167.203125-104.230469-191.972656 110.835937c-1.976562 1.089844-4.464844.417969-5.625-1.519531-1.160156-1.933594-.582031-4.441406 1.308594-5.675781l181.074218-112.328125-194.265624 112.152343c-1.992188 1.1875-4.570313.535157-5.753907-1.457031-1.1875-1.988281-.535156-4.566406 1.453125-5.75l150.707032-92.328125-154.507813 89.179688c-1.988281 1.132812-4.519531.460937-5.6875-1.507813s-.542969-4.507812 1.40625-5.710937l125.902344-76.675782-125.0625 72.183594c-1.988281 1.132813-4.519531.464844-5.6875-1.503906s-.542969-4.511719 1.40625-5.714844l113.582031-68.992187-109.855469 63.421875c-1.980469 1.09375-4.476562.417968-5.636719-1.527344-1.160156-1.949219-.5625-4.464844 1.347657-5.683594l183.0625-112.707031-178.78125 103.238281c-1.976563 1.074219-4.449219.394532-5.605469-1.539062-1.152344-1.933594-.574219-4.429688 1.308594-5.660156l201.066406-124.382813-196.761719 113.585937c-1.984375 1.078126-4.464843.394532-5.617187-1.546874-1.148438-1.945313-.554688-4.449219 1.347656-5.671876l63.789062-38.550781-59.550781 34.414063c-1.980469 1.074218-4.453125.394531-5.605469-1.539063-1.152343-1.933593-.578124-4.429687 1.304688-5.664062l164.816406-102.046875-160.484375 92.691406c-1.992187 1.183594-4.570312.527344-5.753906-1.464844-1.183594-1.996094-.527344-4.570312 1.464844-5.753906l101.949219-62.464844-97.660157 56.378906c-1.988281 1.199219-4.570312.558594-5.769531-1.429687-1.199219-1.992187-.558594-4.574219 1.429688-5.773437l169.707031-107.519532-165.367188 95.492188c-1.980469 1.097656-4.476562.421875-5.636719-1.527344-1.160156-1.945312-.5625-4.460938 1.347657-5.683594l65.09375-40.042968-60.804688 35.101562c-1.988281 1.1875-4.566406.535156-5.753906-1.457031-1.1875-1.992188-.535156-4.566407 1.457031-5.753907l51.074219-31.464843-46.777344 27c-1.976562 1.15625-4.515625.519531-5.707031-1.4375s-.59375-4.507813 1.34375-5.730469l120.363281-77.277344-116 66.988282c-1.941406.945312-4.28125.261718-5.414062-1.578126-1.128907-1.839843-.679688-4.238281 1.042969-5.539062l99.65625-64.320312-95.292969 54.96875c-1.972657 1.101562-4.460938.445312-5.632813-1.484376-1.171875-1.929687-.609375-4.441406 1.277344-5.683593l65.46875-41.96875-61.085938 35.253906c-1.933593.992187-4.304687.34375-5.464843-1.492187-1.160157-1.835938-.726563-4.253907.996093-5.574219l87.09375-58.753907-82.652343 47.679688c-1.96875 1.070312-4.425781.402344-5.585938-1.511719-1.164062-1.914062-.617187-4.402343 1.238281-5.65625l9.695313-6.183593-5.347656 3.078124c-1.960938 1.238282-4.558594.652344-5.796875-1.3125-1.234375-1.960937-.648438-4.558593 1.316406-5.796874l56.519531-39.144532-52.039062 30.039063c-1.933594 1.128906-4.410157.539062-5.632813-1.335938-1.21875-1.875-.753906-4.378906 1.058594-5.6875l47.558594-34.648437-42.984375 24.808594c-1.886719 1.070312-4.28125.527343-5.515625-1.253907-1.238282-1.785156-.914063-4.214843.75-5.609375l39.019531-32.25-34.253906 19.757813c-1.886719 1.085937-4.289063.550781-5.535157-1.234375-1.242187-1.785156-.917968-4.226563.75-5.621094l16.285157-13.589844-11.078125 6.394532c-1.789063 1.03125-4.0625.609374-5.359375-.996094-1.296875-1.605469-1.238281-3.914063.144531-5.449219l10.457031-11.589844c-1.863281-.074219-3.453125-1.371093-3.902343-3.183593-.449219-1.8125.351562-3.703126 1.964843-4.640626l19.371094-11.1875c1.789063-1.019531 4.046875-.59375 5.34375 1.003907 1.292969 1.597656 1.238281 3.898437-.128906 5.433593l-9.058594 10.070313 30.277344-17.449219c1.882812-1.058594 4.261719-.519531 5.5 1.253906 1.238281 1.773438.929687 4.195313-.71875 5.597657l-16.296875 13.570312 35.460937-20.472656c1.886719-1.089844 4.296875-.550781 5.542969 1.238281 1.246094 1.792969.910156 4.238282-.765625 5.628906l-39.03125 32.246094 67.785156-39.128906c1.933594-1.128906 4.410157-.539062 5.632813 1.335938 1.21875 1.875.753906 4.378906-1.058594 5.691406l-47.617188 34.6875 72.304688-41.730469c1.949219-1.136719 4.445312-.527344 5.652344 1.378906 1.210937 1.90625.695312 4.425781-1.164063 5.703125l-56.480469 39.105469 80.050782-46.214844c1.96875-1.101562 4.460937-.445312 5.632812 1.484375 1.171875 1.929688.609375 4.441406-1.277344 5.683594l-9.71875 6.210938 23.179688-13.429688c1.957031-1.113281 4.445312-.484375 5.636719 1.421875 1.195312 1.90625.671875 4.417969-1.1875 5.6875l-87.121094 58.855469 114.234375-65.9375c1.972656-1.160156 4.515625-.519532 5.707031 1.4375 1.1875 1.957031.59375 4.507812-1.34375 5.730468l-65.386719 41.898438 85.027344-49.082031c1.96875-1.125 4.476563-.476563 5.65625 1.457031 1.183594 1.9375.613282 4.460938-1.285156 5.699219l-99.570312 64.261719 123.738281-71.4375c1.277343-.78125 2.878906-.820313 4.195312-.101563 1.316407.71875 2.152344 2.085937 2.1875 3.585937.035157 1.5-.730469 2.902344-2.011719 3.683594l-120.386718 77.269532 146.289062-84.460938c1.992188-1.191406 4.570313-.539062 5.757813 1.453125 1.191406 1.988281.539062 4.566406-1.453125 5.757813l-51.15625 31.507812 67.097656-38.726562c1.984375-1.097657 4.476562-.421876 5.636719 1.527343 1.160156 1.945313.5625 4.460938-1.347657 5.679688l-65.09375 40.046875 81.878907-47.273438c1.976562-1.128906 4.492187-.476562 5.671875 1.472656 1.179687 1.945313.59375 4.476563-1.324219 5.707032l-169.765625 107.558594 198.742188-114.753907c1.992187-1.1875 4.570312-.53125 5.757812 1.460938 1.183594 1.992187.53125 4.570312-1.460938 5.757812l-101.78125 62.371094 120.566407-69.605469c1.980469-1.117187 4.492187-.449218 5.660156 1.503906 1.167969 1.953126.566406 4.480469-1.355469 5.695313l-164.847656 102.015625 189.195312-109.230469c1.996094-1.179687 4.570313-.519531 5.75 1.476563 1.179688 1.996094.519532 4.570312-1.476562 5.75l-63.855469 38.558594 68.445313-39.507813c1.980468-1.074219 4.453125-.394531 5.605468 1.539063 1.152344 1.929687.578126 4.429687-1.304687 5.660156l-200.941406 124.308594 196.640625-113.53125c1.976562-1.039063 4.421875-.351563 5.5625 1.566406 1.144531 1.917968.585937 4.394531-1.273438 5.636718l-183.183594 112.789063 178.894532-103.238281c1.996094-1.179688 4.570312-.519532 5.75 1.476562 1.179687 1.996094.519531 4.570313-1.476563 5.75l-113.671875 69.003906 109.398438-63.152343c1.976562-1.027344 4.414062-.332031 5.550781 1.582031 1.132813 1.917969.574219 4.386719-1.277344 5.628906l-125.785156 76.621094 121.511719-70.160156c1.984375-1.097656 4.480468-.417969 5.640625 1.527344 1.15625 1.949218.558593 4.464843-1.351563 5.683593l-150.636718 92.328125 146.347656-84.503906c1.976562-1.054688 4.429687-.375 5.578125 1.542969 1.152343 1.921875.589843 4.40625-1.269531 5.648437l-181.148438 112.386719 176.839844-102.097656c1.972656-1.039063 4.410156-.355469 5.558594 1.554687 1.144531 1.90625.601562 4.378906-1.242188 5.632813l-167.105469 104.1875 162.789063-94.007813c1.976562-1.054687 4.429687-.375 5.578125 1.546875 1.152343 1.917969.589843 4.40625-1.269531 5.644531l-121.09375 75.039063 116.785156-67.425781c1.976562-1.054688 4.429687-.371094 5.578125 1.546875 1.152343 1.921875.589843 4.40625-1.269531 5.648437l-104.917969 65.183594 100.609375-58.109375c1.976562-1.027344 4.414062-.332031 5.550781 1.585937 1.132813 1.914063.574219 4.386719-1.277344 5.625l-6.335937 3.867188 2.0625-1.179688c1.964844-1.054687 4.410156-.386718 5.566406 1.515626 1.160156 1.90625.628906 4.382812-1.207031 5.640624l-122.46875 78.226563 118.121093-68.1875c1.980469-1.09375 4.476563-.417969 5.636719 1.527344 1.15625 1.949219.5625 4.464843-1.347656 5.683593l-9.585937 5.875 5.296874-3.046874c1.964844-1.082032 4.4375-.421876 5.605469 1.492187 1.167969 1.917969.621094 4.414063-1.242187 5.667969l-86.351563 55.398437 81.988281-47.214843c1.953126-1.097657 4.425782-.460938 5.613282 1.441406 1.183594 1.90625.664062 4.40625-1.183594 5.675781l-99.042969 66.351563 94.601563-54.609376c1.976562-1.15625 4.515625-.515624 5.707031 1.4375 1.191406 1.957032.59375 4.507813-1.339844 5.730469l-34.832031 22.386719 30.464844-17.585938c1.945312-1.085937 4.398437-.464843 5.59375 1.414063 1.191406 1.882813.707031 4.367187-1.101563 5.664063l-69.816406 48.546874 65.335937-37.769531c1.949219-1.070312 4.390626-.433593 5.570313 1.449219 1.183594 1.886719.6875 4.363281-1.125 5.648438l-31.660156 21.4375 27.214843-15.703126c1.945313-1.097656 4.414063-.480468 5.609376 1.410157 1.195312 1.890625.699218 4.386719-1.128907 5.671875l-23.316406 16.175781 18.835937-10.910156c1.929688-1.070313 4.363282-.457031 5.558594 1.402343 1.195313 1.855469.746094 4.320313-1.027344 5.640626l-15.234374 10.824218 10.703124-6.175781c1.914063-1.070313 4.328126-.484375 5.542969 1.34375 1.210938 1.828125.808594 4.28125-.917969 5.628906l-13.515624 10.257813 8.890624-5.128906c1.898438-1.0625 4.296876-.496094 5.519532 1.304687 1.226562 1.800781.867187 4.238281-.820313 5.613281l-4.769531 3.785156c1.84375-.558593 3.828125.203126 4.820312 1.851563.992188 1.648437.734376 3.757813-.621093 5.125l-8.394531 8.507813c.894531.339843 1.644531.984374 2.117187 1.816406 1.152344 2.003906.464844 4.5625-1.539063 5.722656l-19.40625 11.1875c-1.816406.988281-4.082031.503906-5.335937-1.136719-1.257813-1.644531-1.128906-3.957031.300781-5.453125l4.246094-4.277344-20.5625 11.824219c-1.902344 1.085938-4.316406.527344-5.546875-1.285156-1.230469-1.808594-.867187-4.257813.839844-5.628906l4.195312-3.359375-17.769531 10.273437c-1.917969 1.089844-4.351562.511719-5.570312-1.324219-1.222657-1.835937-.8125-4.304687.9375-5.648437l13.53125-10.25-29.855469 17.222656c-1.933594 1.070313-4.363281.457031-5.558594-1.402343-1.195313-1.855469-.746094-4.320313 1.027344-5.640626l15.222656-10.824218-30.953125 17.867187c-1.941406 1.0625-4.375.433594-5.558594-1.4375-1.183594-1.867187-.710937-4.335937 1.074219-5.636719l23.285156-16.109374-40.164062 23.183593c-1.949219 1.070313-4.390625.433594-5.574219-1.453125-1.179688-1.882812-.683594-4.359375 1.128906-5.648437l31.675782-21.4375-49.429688 28.539062c-1.9375 1.050781-4.359375.421875-5.542969-1.4375-1.179687-1.863281-.722656-4.320312 1.050781-5.628906l69.828126-48.566406-96.382813 55.632812c-1.96875 1.082031-4.4375.425781-5.605469-1.492187-1.167968-1.917969-.621094-4.414063 1.242188-5.667969l34.832031-22.382813-51.199219 29.542969c-1.953125 1.082031-4.414062.445313-5.59375-1.449219-1.183594-1.890624-.675781-4.378906 1.152344-5.660156l99.042969-66.347656-127.261719 73.457031c-1.972656 1.121094-4.476562.476563-5.660156-1.460937-1.179688-1.933594-.609375-4.457032 1.285156-5.699219l86.242188-55.394531-108.273438 62.53125c-1.980469 1.070312-4.453125.394531-5.605469-1.539063-1.152343-1.933593-.574219-4.433593 1.308594-5.664062l9.566406-5.875-22.660156 13.09375c-1.964844 1.050781-4.410156.386719-5.566406-1.519531-1.160157-1.902344-.628907-4.378907 1.210937-5.640626l122.457032-78.234374-147.984376 85.402343c-1.976562 1.058594-4.441406.371094-5.585937-1.558593-1.144531-1.929688-.570313-4.417969 1.308594-5.652344l6.554687-4.003906-19.421875 11.214843c-1.980469 1.089844-4.464843.417969-5.625-1.515625-1.160156-1.9375-.582031-4.445312 1.308594-5.675781l104.917969-65.160156-125.320313 72.351562c-.636719.378907-1.359375.585938-2.101562.597657zm0 0" fill="#cad0d7"/><path d="m385.976562 154.945312c-1.757812 0-3.328124-1.097656-3.9375-2.746093-.605468-1.648438-.125-3.5 1.210938-4.640625l17.886719-15.300782-17.675781 10.230469c-1.875 1.058594-4.242188.53125-5.488282-1.222656s-.964844-4.167969.652344-5.585937l16.585938-14.335938-19.113282 11.03125c-1.835937 1.085938-4.195312.625-5.484375-1.078125-1.289062-1.699219-1.097656-4.097656.449219-5.570313l22.964844-22.167968-32.207032 18.59375c-1.902343 1.105468-4.335937.550781-5.574218-1.265625-1.242188-1.816407-.867188-4.285157.859375-5.652344l10.070312-8.066406-18.363281 10.601562c-1.910156 1.105469-4.347656.542969-5.582031-1.285156s-.84375-4.300781.898437-5.65625l10.910156-8.46875-27.210937 15.703125c-1.300781.828125-2.949219.875-4.296875.125-1.347656-.753906-2.171875-2.183594-2.152344-3.722656.023438-1.542969.886719-2.949219 2.253906-3.664063l79.359376-45.816406c1.90625-1.105469 4.347656-.546875 5.582031 1.28125 1.234375 1.832031.839843 4.300781-.898438 5.660156l-10.871093 8.476563 14.640624-8.429688c1.890626-1.078125 4.296876-.53125 5.535157 1.261719 1.234375 1.792969.894531 4.238281-.785157 5.621094l-10.074218 8.035156 13.371094-7.714844c1.835937-1.089843 4.199218-.625 5.484374 1.074219 1.289063 1.703125 1.097657 4.101562-.449218 5.574219l-22.953125 22.175781 28.269531-16.316406c1.871094-1.0625 4.242188-.53125 5.484375 1.222656 1.246094 1.753906.964844 4.164062-.652344 5.582031l-16.71875 14.371094 18.382813-10.601563c1.875-1.0625 4.25-.53125 5.492187 1.226563 1.246094 1.757813.957031 4.175781-.667969 5.589844l-17.886718 15.300781 19.105468-11.019531c1.992188-1.042969 4.453126-.328125 5.578126 1.617187 1.125 1.945313.515624 4.433594-1.382813 5.640625l-58.476563 33.785157c-.644531.371093-1.378906.558593-2.125.546874zm0 0" fill="#46ceac"/><path d="m330.328125 284.554688c-1.847656 0-3.476563-1.210938-4.011719-2.980469s.148438-3.683594 1.6875-4.707031l10.164063-6.78125-20.847657 12.027343c-1.9375 1.105469-4.402343.5-5.609374-1.375-1.207032-1.878906-.734376-4.371093 1.074218-5.675781l65.757813-46.800781-81.738281 47.1875c-1.960938 1.113281-4.449219.480469-5.640626-1.433594-1.1875-1.917969-.652343-4.429687 1.21875-5.691406l46.859376-31.058594-56.285157 32.457031c-1.957031 1.117188-4.441406.488282-5.636719-1.417968-1.191406-1.910157-.667968-4.417969 1.1875-5.691407l74.121094-50.125-83.378906 48.144531c-1.976562 1.160157-4.515625.519532-5.707031-1.4375-1.191407-1.957031-.59375-4.503906 1.34375-5.730468l33.445312-21.460938-37.644531 21.730469c-1.949219 1.097656-4.421875.46875-5.609375-1.425781-1.191406-1.898438-.683594-4.394532 1.152344-5.675782l92.328125-62.621093-99.496094 57.417969c-1.941406 1.101562-4.40625.488281-5.609375-1.394532-1.199219-1.882812-.714844-4.375 1.101563-5.671875l39.5-27.699219-42.585938 24.585938c-1.953125 1.113281-4.433594.496094-5.632812-1.40625-1.199219-1.898438-.6875-4.40625 1.15625-5.6875l17.578124-12.09375-18.128906 10.457031c-1.949218 1.132813-4.449218.523438-5.65625-1.378906-1.207031-1.90625-.695312-4.425781 1.164063-5.707031l8.234375-5.714844-7.292969 4.195312c-1.921875 1.101563-4.363281.523438-5.585937-1.320312-1.222657-1.847656-.800782-4.324219.960937-5.660156l17.414063-13.085938-17.035157 9.835938c-1.921875 1.128906-4.390625.558594-5.621093-1.300782-1.230469-1.855468-.800782-4.347656.984374-5.683593l7.808594-5.875-6.160156 3.550781c-1.9375 1.109375-4.398438.515625-5.613281-1.355469-1.210938-1.871093-.75-4.367187 1.054687-5.675781l2.339844-1.679688c-1.898438.804688-4.105469.128907-5.226562-1.605468-1.207032-1.902344-.691407-4.417969 1.164062-5.695313l2.519531-1.746093c-1.984375.625-4.128906-.300782-5.039062-2.171876-.90625-1.871093-.308594-4.128906 1.414062-5.300781l82.574219-57.300781-77.917969 44.988281c-1.941406 1.085938-4.398437.464844-5.589843-1.414062-1.191407-1.878907-.710938-4.363281 1.101562-5.660157l64.710938-45.007812-56.839844 32.820312c-1.941406 1.136719-4.433594.542969-5.652344-1.347656s-.726562-4.40625 1.113281-5.703125l50.359375-35.933593-37.929687 21.898437c-1.945313 1.117187-4.425781.507813-5.628907-1.386719-1.207031-1.894531-.707031-4.398437 1.128907-5.6875l13.851562-9.652344c-1.945312.546876-4.003906-.367187-4.902343-2.179687-.894532-1.808594-.375-4.003906 1.242187-5.214844l19.523437-14.707031c-.332031-.304688-.617187-.65625-.839843-1.046875-1.160157-2.007813-.472657-4.574219 1.535156-5.734375l35.925781-20.742188c1.917969-1.097656 4.363282-.519531 5.582032 1.324219 1.222656 1.847657.804687 4.324219-.957032 5.660157l-.757812.570312 23.394531-13.503906c1.9375-1.074219 4.378906-.453125 5.570313 1.417968 1.191406 1.871094.722656 4.347657-1.074219 5.648438l-12.589844 8.773438 27.96875-16.21875c1.933594-1.09375 4.386719-.488282 5.589844 1.378906 1.207031 1.871094.746093 4.351562-1.050781 5.664062l-50.359376 35.941406 68.144532-39.316406c1.933594-1.066406 4.363281-.453125 5.5625 1.402344 1.195312 1.859375.746094 4.324219-1.027344 5.640625l-64.738281 45.015625 78.839843-45.519531c1.949219-1.132813 4.445313-.523438 5.652344 1.382812 1.210938 1.902344.695313 4.421875-1.164062 5.703125l-82.582032 57.308594.839844-.484375c1.941406-1.0625 4.371094-.433594 5.554688 1.4375 1.183594 1.867187.714844 4.335937-1.074219 5.636719l-18.1875 12.589844c.789063.328124 1.460937.882812 1.929687 1.59375 1.21875 1.878906.75 4.382812-1.066406 5.691406l-5.875 4.195312c1.460938-.03125 2.84375.671875 3.675782 1.875 1.226562 1.847656.804687 4.328125-.964844 5.664063l-7.832032 5.875 18.199219-10.5c1.917969-1.097657 4.363281-.519531 5.585938 1.324219 1.21875 1.84375.800781 4.320312-.960938 5.660156l-17.417969 13.195312 34.941407-20.144531c1.949219-1.136719 4.449219-.527344 5.65625 1.378906s.695312 4.425781-1.164063 5.703125l-8.242187 5.726563 22.277343-12.867188c1.949219-1.117187 4.429688-.496093 5.628907 1.402344 1.199219 1.902344.6875 4.410156-1.15625 5.6875l-17.628907 12.113281 33.382813-19.304687c1.9375-1.066407 4.367187-.445313 5.558594 1.417969 1.1875 1.863281.730469 4.332031-1.050781 5.640624l-39.449219 27.699219 117.15625-67.636719c1.949219-1.097656 4.421875-.46875 5.609375 1.429688 1.191406 1.894531.683594 4.390625-1.152344 5.671875l-92.328125 62.65625 92.921875-53.640625c1.96875-1.082031 4.4375-.425781 5.605469 1.492188 1.167969 1.917968.621093 4.414062-1.238281 5.667968l-33.382813 21.425782 30.417969-17.558594c1.957031-1.160156 4.484375-.546875 5.695312 1.382812 1.210938 1.929688.660156 4.46875-1.238281 5.726563l-74.113281 50.109375 70.847656-40.902344c1.964844-1.136719 4.480469-.507812 5.675781 1.421875 1.195313 1.933594.636719 4.464844-1.261719 5.714844l-46.933593 31.113281 41.246093-23.8125c1.9375-1.105469 4.402344-.5 5.609376 1.375 1.207031 1.878906.730468 4.371094-1.078126 5.675781l-65.746093 46.800781 56.152343-32.414062c1.953126-1.066406 4.398438-.421875 5.574219 1.46875s.671875 4.371094-1.152343 5.648438l-10.332032 6.910156c1.957032-.867188 4.25-.125 5.328125 1.722656 1.074219 1.851562.589844 4.210938-1.128906 5.484375l-20.53125 14.839844 3.433594-1.980469c2.003906-1.140625 4.554687-.449219 5.707031 1.550781 1.152344 1.996094.476562 4.550781-1.511719 5.71875l-75.222656 43.417969c-1.925781 1.050781-4.339844.441406-5.53125-1.402344-1.195313-1.84375-.765625-4.292968.980469-5.621094l20.53125-14.816406-39.382813 22.738282c-.636719.371093-1.359375.566406-2.097656.5625zm0 0" fill="#46ceac"/><path d="m330.898438 216.914062c-1.804688 0-3.410157-1.15625-3.980469-2.871093-.570313-1.714844.019531-3.601563 1.464843-4.683594l3.617188-2.761719-11.492188 6.628906c-1.910156 1.097657-4.347656.527344-5.574218-1.304687-1.226563-1.832031-.828125-4.300781.917968-5.652344l17.917969-13.773437-24.820312 14.328125c-1.898438 1.082031-4.3125.523437-5.546875-1.285157-1.230469-1.808593-.867188-4.261718.839844-5.632812l15.621093-12.371094-19.15625 11.054688c-1.835937 1.089844-4.195312.625-5.484375-1.074219-1.289062-1.703125-1.09375-4.101563.449219-5.574219l16.445313-15.835937-18.398438 10.605469c-1.777344 1.023437-4.035156.609374-5.335938-.972657-1.300781-1.585937-1.265624-3.875.078126-5.421875l7.503906-8.570312-5.445313 3.140625c-1.449219.835937-3.257812.734375-4.601562-.265625-1.34375-.996094-1.964844-2.695313-1.585938-4.324219l1.957031-8.292969c-1.546874-.546875-2.632812-1.941406-2.785156-3.574218-.148437-1.636719.667969-3.207032 2.089844-4.023438l4.4375-2.519531c1.449219-.832031 3.253906-.722657 4.59375.273437s1.964844 2.691406 1.585938 4.320313l-1.476563 6.320312 18.992187-10.960937c1.777344-1.023438 4.03125-.609375 5.332032.972656 1.300781 1.585938 1.269531 3.875-.078125 5.421875l-7.503907 8.570313 26.019532-15.023438c1.835937-1.089844 4.199218-.628906 5.488281 1.074219 1.289063 1.699219 1.09375 4.097656-.449219 5.570312l-16.410156 15.847657 39.070312-22.5625c1.902344-1.082032 4.316407-.523438 5.546876 1.285156 1.234374 1.808594.867187 4.261718-.839844 5.632812l-15.636719 12.386719 30.453125-17.574219c1.914062-1.097656 4.347656-.527344 5.578125 1.304688 1.226563 1.832031.824219 4.304687-.917969 5.652344l-17.945312 13.792968 12.789062-7.378906c1.917969-1.105469 4.363282-.535156 5.589844 1.304688 1.230469 1.839843.816406 4.316406-.9375 5.660156l-5.960938 4.550781c1.480469-.09375 2.910157.566406 3.800782 1.753906 1.253906 1.765625.960937 4.191407-.679688 5.605469l-10.835937 9.34375c.429687.339844.792969.757812 1.066406 1.234375 1.152344 2.003906.46875 4.566406-1.535156 5.722656l-23.359375 13.488281c-1.875 1.082032-4.265625.558594-5.515625-1.207031-1.253907-1.765625-.957031-4.195312.679687-5.609375l.296875-.25-13.824219 7.972656c-.644531.363282-1.371093.542969-2.109374.53125zm0 0" fill="#cad0d7"/><path d="m366.160156 53.863281c-2.09375-.003906-3.867187-1.546875-4.152344-3.621093l-1.210937-8.527344-14.351563 8.285156c-1.734374 1-3.933593.636719-5.253906-.871094-1.320312-1.507812-1.390625-3.734375-.167968-5.324218l3.40625-4.398438-19.203126 11.089844c-1.867187 1.050781-4.230468.527344-5.476562-1.214844-1.246094-1.746094-.976562-4.148438.625-5.574219l1.921875-1.679687-13.429687 7.761718c-1.902344 1.085938-4.316407.527344-5.546876-1.28125-1.234374-1.808593-.867187-4.261718.839844-5.632812l6.8125-5.421875c-1.101562-.023437-2.152344-.484375-2.910156-1.285156-1.339844-1.378907-1.566406-3.492188-.554688-5.128907l10.15625-16.367187c-1.679687-.390625-2.945312-1.769531-3.195312-3.472656-.253906-1.703125.5625-3.386719 2.054688-4.25l10.15625-5.875c1.671874-.9843752 3.800781-.691407 5.148437.703125 1.347656 1.398437 1.558594 3.539062.515625 5.171875l-8.914062 14.3125 28.863281-16.660157c1.90625-1.105468 4.339843-.554687 5.578125 1.261719 1.238281 1.820313.863281 4.285157-.859375 5.652344l-3.601563 2.863281 2.519532-1.425781c1.867187-1.054687 4.226562-.53125 5.476562 1.214844 1.246094 1.746093.976562 4.148437-.625 5.574219l-1.941406 1.679687c1.738281-.921875 3.882812-.507813 5.160156.988281 1.273438 1.496094 1.339844 3.675782.15625 5.246094l-3.402344 4.390625 1.269532-.730469c1.207031-.710937 2.691406-.757812 3.945312-.132812 1.25.613281 2.113281 1.808594 2.308594 3.1875l1.375 9.839844c1.644531.4375 2.859375 1.820312 3.082031 3.507812.21875 1.6875-.597656 3.339844-2.074219 4.1875l-2.402344 1.375c-.636718.375-1.359374.574219-2.097656.582031zm0 0" fill="#35ba9b"/><path d="m230.050781 101.207031c-1.703125.003907-3.242187-1.023437-3.890625-2.605469-.644531-1.578124-.273437-3.390624.945313-4.585937l17.570312-17.257813-19.011719 10.960938c-1.820312 1-4.097656.519531-5.359374-1.128906-1.257813-1.652344-1.121094-3.976563.320312-5.464844l11.609375-11.617188-12.152344 7.015626c-1.707031.988281-3.871093.65625-5.199219-.800782-1.332031-1.453125-1.46875-3.640625-.332031-5.25l11.75-16.6875c-1.898437 0-3.5625-1.273437-4.054687-3.109375-.492188-1.835937.3125-3.769531 1.957031-4.722656l13.628906-7.863281c1.707031-.996094 3.878907-.667969 5.214844.789062 1.332031 1.460938 1.46875 3.652344.328125 5.261719l-10.996094 15.605469 23.300782-13.429688c1.816406-1 4.09375-.519531 5.355468 1.132813 1.257813 1.648437 1.121094 3.972656-.320312 5.464843l-11.609375 11.589844 19.953125-11.515625c1.828125-1.039062 4.140625-.566406 5.414062 1.105469 1.273438 1.675781 1.113282 4.035156-.378906 5.515625l-23.039062 22.664063c1.367187.699218 2.242187 2.09375 2.28125 3.628906.039062 1.539062-.765626 2.972656-2.097657 3.742187l-19.085937 11.035157c-.640625.359374-1.367188.542968-2.101563.527343zm0 0" fill="#35ba9b"/><path d="m211.511719 195.609375c-.984375 0-1.941407-.347656-2.695313-.980469-1.347656-1.128906-1.851562-2.980468-1.257812-4.632812l4.347656-12.105469-18.214844 10.519531c-1.800781 1.03125-4.089844.585938-5.375-1.042968-1.289062-1.628907-1.191406-3.957032.230469-5.472657l8.394531-8.847656-15.109375 8.746094c-1.84375.992187-4.136719.46875-5.375-1.222657-1.234375-1.691406-1.03125-4.035156.472657-5.492187l12.382812-11.121094-9.023438 5.207031c-1.691406.976563-3.832031.660157-5.167968-.765624-1.335938-1.425782-1.511719-3.582032-.421875-5.203126l6-8.964843c-2.023438.679687-4.234375-.265625-5.140625-2.199219-.902344-1.933594-.210938-4.238281 1.605468-5.355469l14.867188-8.585937c1.6875-.976563 3.828125-.660156 5.160156.761718 1.335938 1.425782 1.515625 3.582032.429688 5.207032l-5.933594 8.855468 28.210938-16.285156c1.84375-.988281 4.136718-.46875 5.371093 1.222656 1.234375 1.691407 1.035157 4.035157-.472656 5.492188l-12.378906 11.121094 5.4375-3.140625c1.804687-1.03125 4.09375-.585938 5.382812 1.046875 1.285157 1.636718 1.179688 3.964844-.246093 5.476562l-8.390626 8.839844 3.070313-1.773438c1.523437-.875 3.429687-.710937 4.78125.410157 1.347656 1.125 1.855469 2.972656 1.269531 4.625l-4.347656 12.097656.246094-.136719c1.992187-1.039062 4.453125-.328125 5.578125 1.621094 1.125 1.945312.515625 4.433594-1.382813 5.640625l-10.164062 5.875c-.652344.375-1.390625.570313-2.140625.5625zm0 0" fill="#35ba9b"/><path d="m240.527344 289.617188c-1.675782 0-3.195313-1-3.855469-2.539063-.664063-1.542969-.34375-3.328125.808594-4.546875l6.371093-6.714844-13.226562 7.632813c-1.820312.996093-4.097656.515625-5.359375-1.132813-1.257813-1.652344-1.121094-3.976562.320313-5.464844l6.714843-6.714843-9.5 5.480469c-1.851562 1.125-4.261719.65625-5.550781-1.085938-1.292969-1.746094-1.042969-4.183594.574219-5.628906l4.3125-4.097656-4.867188 2.8125c-1.773437 1.019531-4.027343.613281-5.328125-.964844-1.304687-1.578125-1.28125-3.863282.058594-5.414063l11.640625-13.472656c-1.210937.097656-2.402344-.359375-3.242187-1.242187-1.328126-1.355469-1.582032-3.441407-.609376-5.078126l9.15625-15.351562c-.707031-1.914062.070313-4.0625 1.835938-5.085938l2.78125-1.601562c1.652344-.945312 3.734375-.660156 5.070312.695312 1.335938 1.351563 1.59375 3.4375.628907 5.078126l-4.011719 6.714843 4.851562-2.792969c1.773438-1.023437 4.023438-.617187 5.328126.960938 1.304687 1.578125 1.277343 3.867188-.058594 5.417969l-10.742188 12.429687 14.074219-8.132812c1.855469-1.148438 4.277344-.683594 5.578125 1.066406 1.296875 1.75 1.042969 4.203125-.59375 5.648438l-4.328125 4.09375 6.445313-3.707032c1.820312-1 4.097656-.519531 5.355468 1.128906 1.261719 1.652344 1.125 3.976563-.320312 5.464844l-6.714844 6.714844 10.601562-6.125c1.804688-1.042969 4.101563-.605469 5.394532 1.03125 1.292968 1.640625 1.1875 3.976562-.25 5.488281l-6.371094 6.714844 11.070312-6.394531c1.300782-.828125 2.953126-.875 4.296876-.121094 1.347656.75 2.171874 2.179688 2.152343 3.71875-.019531 1.542969-.886719 2.949219-2.25 3.664062l-36.144531 20.863282c-.632812.382812-1.359375.585937-2.097656.589844zm0 0" fill="#35ba9b"/><path d="m331.421875 326.839844c-1.671875.003906-3.183594-.988282-3.851563-2.519532-.667968-1.535156-.363281-3.316406.777344-4.539062l16.03125-17.1875-24.808594 14.316406c-1.851562 1.078125-4.214843.585938-5.488281-1.136718-1.269531-1.722657-1.039062-4.125.535157-5.578126l8.15625-7.550781-6.714844 3.84375c-1.742188 1-3.953125.625-5.269532-.902343-1.3125-1.523438-1.359374-3.765626-.109374-5.34375l3.492187-4.382813-1.394531.839844c-1.195313.691406-2.65625.75-3.902344.15625s-2.125-1.761719-2.339844-3.125l-1.679687-10.71875c-1.621094-.460938-2.808594-1.847657-3.015625-3.523438-.207032-1.671875.605468-3.304687 2.066406-4.148437l2.25-1.300782c1.195312-.691406 2.660156-.75 3.90625-.15625 1.25.597657 2.121094 1.769532 2.339844 3.136719l1.492187 9.367188 15.300781-8.839844c1.746094-1.003906 3.957032-.625 5.269532.898437 1.316406 1.527344 1.359375 3.769532.113281 5.347657l-3.492187 4.386719 19.90625-11.488282c1.851562-1.074218 4.214843-.585937 5.488281 1.136719 1.269531 1.722656 1.039062 4.125-.535157 5.578125l-8.167968 7.554688 16.679687-9.621094c1.796875-1.03125 4.078125-.59375 5.371094 1.027344 1.289063 1.617187 1.203125 3.9375-.199219 5.460937l-16.023437 17.191406 3.667969-2.117187c1.992187-1.042969 4.453124-.328125 5.578124 1.621094 1.125 1.945312.515626 4.433593-1.382812 5.640624l-27.949219 16.113282c-.636719.375-1.363281.570312-2.097656.5625zm0 0" fill="#35ba9b"/><path d="m434.046875 289.609375c-1.683594 0-3.203125-1.007813-3.863281-2.554687-.65625-1.550782-.328125-3.34375.839844-4.554688l4.398437-4.59375-10.472656 6.054688c-1.769531 1.019531-4.015625.621093-5.324219-.949219-1.308594-1.566407-1.296875-3.851563.027344-5.40625l13.65625-16.023438-24.652344 14.269531c-1.800781 1.03125-4.085938.589844-5.375-1.035156-1.289062-1.628906-1.195312-3.953125.222656-5.46875l20.144532-21.335937c-1.664063.058593-3.203126-.863281-3.933594-2.359375-.726563-1.496094-.5-3.28125.574218-4.550782l13.355469-15.777343c-.136719-1.621094.671875-3.175781 2.082031-3.988281l3.148438-1.820313c1.765625-1.015625 4.003906-.613281 5.308594.949219 1.304687 1.5625 1.296875 3.839844-.015625 5.394531l-1.929688 2.292969.738281-.429688c1.800782-1.03125 4.085938-.589844 5.375 1.035156 1.289063 1.628907 1.195313 3.953126-.21875 5.46875l-18.929687 20.054688 20.984375-12.121094c1.769531-1.023437 4.015625-.625 5.324219.945313 1.308593 1.570312 1.296875 3.851562-.027344 5.410156l-13.648437 16.003906 14.972656-8.644531c1.8125-1.058594 4.128906-.617188 5.421875 1.035156s1.167969 4.007813-.292969 5.511719l-9.800781 10.207031c.605469.363282 1.105469.878906 1.449219 1.492188 1.160156 2.007812.476562 4.570312-1.527344 5.734375l-15.945313 9.183593c-.628906.367188-1.339843.566407-2.066406.570313zm0 0" fill="#35ba9b"/><path d="m451.890625 193.753906c-1.710937 0-3.25-1.039062-3.890625-2.625-.640625-1.585937-.253906-3.40625.980469-4.59375l18.203125-17.625-10.574219 6.09375c-1.851563 1.058594-4.203125.5625-5.464844-1.152344-1.265625-1.71875-1.039062-4.109374.519531-5.5625l3.828126-3.535156c-1.769532.277344-3.519532-.597656-4.355469-2.175781-.839844-1.582031-.582031-3.523437.636719-4.832031l2.148437-2.308594c-.609375-.039062-1.203125-.207031-1.746094-.492188-1.28125-.703124-2.105469-2.023437-2.171875-3.484374l-.679687-13.824219c-1.429688-.652344-2.375-2.050781-2.449219-3.621094-.074219-1.566406.734375-3.046875 2.09375-3.832031l2.199219-1.277344c1.269531-.730469 2.832031-.746094 4.113281-.039062 1.28125.699218 2.105469 2.015624 2.175781 3.472656l.585938 11.84375 14.269531-8.234375c1.796875-1.03125 4.078125-.59375 5.371094 1.027343 1.289062 1.617188 1.207031 3.9375-.199219 5.460938l-.511719.5625 6.023438-3.484375c1.851562-1.058594 4.203125-.5625 5.464844 1.15625 1.265624 1.714844 1.042968 4.105469-.519532 5.558594l-2.863281 2.644531 7.414063-4.28125c1.835937-1.089844 4.195312-.625 5.484374 1.078125 1.289063 1.699219 1.09375 4.097656-.449218 5.570313l-18.214844 17.625 15.109375-8.726563c1.714844-.980469 3.878906-.628906 5.199219.839844 1.320312 1.46875 1.4375 3.660156.28125 5.261719l-4.808594 6.621093c1.941406-.121093 3.710938 1.105469 4.277344 2.96875.5625 1.859375-.222656 3.867188-1.902344 4.847657l-14.796875 8.535156c-1.71875.984375-3.890625.636718-5.214844-.839844-1.320312-1.472656-1.433593-3.671875-.269531-5.269531l4.199219-5.71875-27.421875 15.796875c-.628906.371094-1.34375.566406-2.074219.570312zm0 0" fill="#35ba9b"/><path d="m438.066406 107.300781c-1.53125 0-2.9375-.832031-3.675781-2.175781-.738281-1.339844-.6875-2.976562.132813-4.269531l6.714843-10.617188-8.785156 5.035157c-1.851563 1.09375-4.230469.609374-5.507813-1.121094-1.277343-1.726563-1.042968-4.144532.546876-5.59375l1.9375-1.804688-2.910157 1.679688c-1.816406 1.046875-4.125.59375-5.410156-1.058594-1.289063-1.65625-1.15625-4.003906.304687-5.503906l7.789063-7.964844-10.910156 6.285156c-1.816407 1.035156-4.117188.574219-5.398438-1.078125-1.277343-1.652343-1.144531-3.996093.3125-5.492187l7.496094-7.613282-11.375 6.5625c-1.746094 1.003907-3.957031.625-5.269531-.898437-1.3125-1.527344-1.359375-3.769531-.109375-5.347656l5.144531-6.4375-10.230469 5.875c-1.300781.761719-2.910156.769531-4.214843.019531-1.304688-.75-2.109376-2.140625-2.105469-3.648438.003906-1.503906.8125-2.894531 2.121093-3.636718l29.480469-17.015625c1.742188-.992188 3.945313-.609375 5.253907.910156 1.308593 1.523437 1.359374 3.757813.117187 5.335937l-5.136719 6.445313 18.941406-10.910156c1.816407-1.035157 4.117188-.578125 5.398438 1.078125 1.277344 1.652344 1.148438 3.992187-.3125 5.492187l-7.484375 7.605469 10.53125-6.078125c1.816406-1.046875 4.125-.59375 5.414063 1.058594 1.285156 1.65625 1.152343 4.003906-.308594 5.507812l-7.796875 7.964844 8.578125-4.945313c1.851562-1.074218 4.214844-.585937 5.484375 1.136719 1.269531 1.722657 1.039062 4.128907-.535157 5.578125l-6.871093 6.394532c1.191406.4375 2.125 1.390624 2.53125 2.597656.40625 1.203125.25 2.527344-.433594 3.597656l-11.230469 17.625.191406.296875c.558594.964844.710938 2.113281.421876 3.191406-.289063 1.074219-.996094 1.992188-1.964844 2.546875l-4.816406 2.78125c-.621094.375-1.324219.585938-2.050782.609375zm0 0" fill="#35ba9b"/><g fill="#262626"><path d="m334.996094 217.675781c.28125-.011719.5625-.042969.839844-.101562.25 0 .402343.058593.671874 0 29.847657-1.609375 56.871094-23.054688 57.226563-54.671875-.175781-14.371094-6.070313-28.078125-16.382813-38.089844-10.308593-10.007812-24.183593-15.496094-38.554687-15.242188-28.808594-.257812-53.410156 20.734376-57.6875 49.226563-3.515625 32.933594 22.65625 57.191406 53.886719 58.878906zm2.734375-100.117187c55.011719 3.105468 58.363281 88.550781 1.378906 92.699218-57.015625-3.628906-61.816406-96.105468-1.378906-92.699218zm0 0"/><path d="m191.460938 139.347656c-8.636719 2.878906-14.574219 5.035156-17.519532 11.15625-38.609375-.074218-77.351562-.964844-115.953125 0-30.644531.78125-52.039062 9.675782-54.214843 43.964844-5.03125 85.933594-5.03125 172.089844 0 258.023438 3.660156 64.949218 106.597656 43.183593 150.242187 43.183593h162.582031c30.796875 0 64.125 3.683594 94.746094 0 42.292969-5.101562 41.21875-38.609375 41.21875-72.898437v-142.199219c3.558594-3.359375 6.949219-7.335937 10.398438-11.25.121093-.164063.222656-.335937.3125-.519531.160156-.148438.308593-.308594.445312-.476563.148438-.285156.207031-.554687.34375-.839843v-.058594c4.003906-8.503906-1.820312-16-5.707031-23.769532-4.097657-8.195312-8.195313-16.386718-12.296875-24.585937-.171875-.308594-.386719-.59375-.636719-.839844 3.589844-6.425781 6.589844-13.171875 8.953125-20.144531l28.296875-9.425781c3.738281-1.050781 7.40625-2.328125 10.992187-3.820313 8.714844-4.195312 9.015626-11 9.125-19.972656.09375-6.976562 1.484376-16.746094-4.589843-21.539062-3.632813-2.136719-7.578125-3.6875-11.691407-4.589844l-32.066406-10.6875c-2.34375-7.210938-5.3125-14.203125-8.871094-20.898438.050782-.074218.152344-.132812.195313-.210937l14.914063-29.769531c2.09375-3.382813 3.753906-7.011719 4.945312-10.804688 1.886719-9.121094-8.152344-16.5-14.109375-22.03125-9.988281-9.234375-17.820313-7.285156-28.925781-1.730469l-27.179688 13.582031c-6.476562-3.574218-13.269531-6.542968-20.292968-8.863281-3.429688-10.320312-6.859376-20.621093-10.289063-30.90625-.800781-3.976562-2.355469-7.765625-4.578125-11.164062-5.636719-6.140625-19.019531-4.210938-26.3125-3.933594-13.429688.492187-19.730469 4.355469-23.851562 16.71875l-9.722657 29.167969c-7.050781 2.25-13.878906 5.140625-20.402343 8.636718l-24.695313-12.371093c-8.160156-5.726563-19-5.851563-27.292969-.320313-8.0625 4.960938-14.621094 12.023438-18.96875 20.429688-.449218 4.648437.863282 9.296875 3.675782 13.027344l15.617187 31.238281c-3.761719 7.113281-6.832031 14.570312-9.164063 22.269531zm74.179687-62.4375c73.863281-62.675781 175.046875-4.859375 182.601563 82.492188.117187 2.550781.148437 5.105468.097656 7.667968-2.8125 41.4375-27.597656 78.195313-64.957032 96.34375-3.832031.683594-7.457031 2.246094-10.589843 4.5625-17.386719 6.582032-36.148438 8.679688-54.558594 6.09375-3.359375-.652343-6.65625-1.332031-10.074219-1.929687-1.886718-.46875-3.757812-1.058594-5.621094-1.679687-.183593-.132813-.285156-.273438-.46875-.410157-4.976562-4.148437-11.050781-6.753906-17.484374-7.503906-17.796876-10.394531-32.671876-25.117187-43.242188-42.804687-.628906-1.085938-1.234375-2.179688-1.824219-3.273438 1.507813-8.757812-2.03125-17.617188-9.15625-22.921875-1.4375-5.277344-2.492187-10.648437-3.15625-16.074219-1.082031-13.625-.351562-27.335937 2.164063-40.769531 5.382812-23.296875 18.097656-44.253906 36.269531-59.792969zm-10.515625 196.925782c-1.429688.714843-2.980469 1.621093-4.566406 2.519531-.667969.273437-1.363282.480469-2.074219.621093l-6.714844 3.355469c-.257812.050781-.511719.078125-.753906.101563l-18.574219-22.433594c.109375-.414062.15625-.839844.308594-1.234375 1.894531-4.453125 4.058594-8.78125 6.480469-12.96875l3.355469-6.714844c.757812-1.207031 1.4375-2.382812 2.015624-3.492187 8.777344 13.480468 20.449219 24.835937 34.160157 33.246094-2.097657 1.015624-4.289063 2.109374-6.714844 3.359374-.628906.316407-1.382813.769532-2.113281 1.207032zm63.855469 24.929687-5.1875-15.503906c6.882812 1.445312 13.875 2.308593 20.902343 2.578125 8.539063-.0625 17.050782-1.011719 25.398438-2.835938-4.667969 10.472656-8.773438 28.183594-16.074219 34.875-.777343.199219-1.570312.347656-2.367187.441406-3.753906.464844-7.5625.179688-11.207032-.835937-3.0625-2.464844-5.78125-5.324219-8.082031-8.511719-.285156-.386718-.453125-.765625-.722656-1.140625-.988281-3.007812-1.71875-6.273437-2.660156-9.066406zm-129.878907-152.761719c4.453126-1.914062 9.058594-3.453125 13.773438-4.589844l14.46875-4.820312c-3.996094 16.023438-4.625 32.699219-1.84375 48.976562-16.585938-5.253906-32.105469-2.238281-31.25-30.695312-.023438-.351562-.101562-.703125-.234375-1.03125.316406-3.285156 2.214844-6.210938 5.085937-7.839844zm153.390626 340.253906h-202.753907c-35.796875 0-117.707031 16.308594-123.609375-33.398437-6.570312-55.453125 0-115.675781 0-171.503906 0-42.886719-17.367187-121.402344 46.457032-121.402344h92.378906c5.085937-.792969 10.265625-.792969 15.351562 0l1.503906.671875v.738281c-.640624.261719-.933593.976563-.144531 2.644531v.050782c-.367187 6.890625-.839843 15.234375 4.617188 19.566406 1.054687.789062 2.210937 1.429688 3.441406 1.90625.578125.519531 1.015625.988281 1.71875 1.550781 6.421875 5.101563 16.789063 5.289063 25.558594 7.460938l6.128906 2.039062c1.328125.617188 2.582031 1.386719 3.726563 2.300781.929687.75 1.808593 1.5625 2.636718 2.425782 1.695313 5.453125 3.730469 10.792968 6.101563 15.988281-.914063 8.816406-3.675781 17.339844-8.109375 25.015625-.292969.585938-.5625 1.191406-.839844 1.792969l-2.777344 5.542969c-2.097656 3.4375-3.738281 7.132812-4.886718 10.992187-.667969 4.082031.5 8.246094 3.191406 11.382813 2.675781 8.691406 9.917968 15.207031 18.84375 16.945312 20.804687 6.128906 35.988281-14.394531 51.140625-15.023438 3.886719 1.671876 7.863281 3.125 11.910156 4.355469 3.136719 2.722657 5.835937 5.902344 8.015625 9.4375l7.679688 23.0625c.902343 4.144531 2.503906 8.101563 4.742187 11.703125 1.757813 2.050782 4.101563 3.515625 6.714844 4.195313 5.722656 5.035156 14.269531 6.402343 28.898437.417969 1.847656-.773438 3.59375-1.773438 5.195313-2.976563 2.183593-1.417969 4.03125-3.292969 5.414062-5.5 9.695313-13.679687 6.414063-35.933594 24.449219-42.65625 14.269531-5.304687 27.617188 7.335937 41.382812 11.859375 2.3125.886719 4.757813 1.402344 7.234376 1.519531h.242187c.800781.023438 1.601563-.003906 2.402344-.082031 1.296875-.082031 2.585937-.289062 3.84375-.621094v150.066406c-.058594 59.726563-56.480469 47.53125-97.800781 47.53125zm109.792968-219c-1.9375 2.308594-4.363281 5.488282-7.015625 8.28125-.253906.050782-.496093.09375-.738281.160157-.085938 0-.175781 0-.261719.058593-1.09375.375-2.078125 1.023438-2.851562 1.882813-2.203125 1.828125-4.917969 2.925781-7.773438 3.144531-3.433593-1.570312-6.757812-3.371094-9.945312-5.394531l-20.261719-10.132813c13.757812-8.835937 25.71875-20.199218 35.25-33.488281 1.769531 3.558594 3.546875 7.117188 5.332031 10.675781 2.878907 5.78125 11.96875 17.710938 8.265625 24.8125zm31.835938-119.984374c7.554687 3.816406 6.605468 11.261718 6.523437 19.011718-.066406 5.773438.988281 10.976563-3.710937 13.90625-4.417969 2.003906-9.035156 3.542969-13.773438 4.589844l-15.578125 5.195312c1.632813-7.285156 2.621094-14.703124 2.953125-22.164062.128906-1.527344.363282-3.007812.4375-4.566406-.082031-1.914063-.257812-3.804688-.425781-5.691406-.246094-6.332032-.96875-12.636719-2.160156-18.859376l11.953125 3.984376c4.699218 1.207031 9.308594 2.738281 13.789062 4.59375zm-51.878906-101.152344c5.664062-1.28125 9.453124 4.417968 13.5625 8.636718 11.140624 11.425782 5.710937 17.082032-.292969 29.078126l-5.730469 11.472656c-9.652344-13.9375-22.042969-25.757813-36.414062-34.75l15.890624-7.9375c4.085938-2.621094 8.4375-4.800782 12.984376-6.5zm-113.3125-20.144532c3.023437-9.054687 2.921874-18.707031 13.910156-18.839843 18.414062-.238281 18.253906 7.878906 22.761718 21.386719 1.679688 4.996093 3.34375 9.988281 4.996094 14.972656-15.757812-3.03125-31.964844-2.871094-47.660156.46875zm-89.488282 56.582032c-2.160156-4.3125-4.535156-8.585938-6.496094-12.992188-2.949218-6.589844-.671874-10.46875 4.363282-16.417968 3.675781-4.347657 6.90625-8.871094 11.816406-7.90625 4.574219 1.640624 8.9375 3.820312 12.992188 6.496093l18.871093 9.441407c-13.859375 8.960937-25.8125 20.570312-35.175781 34.164062-2.121094-4.277344-4.246094-8.539062-6.371094-12.785156zm0 0"/><path d="m337.976562 243.644531c-6.507812.167969-9.703124 8.058594-1.359374 7.839844 32.421874-.558594 62.289062-17.726563 79.089843-45.464844 3.257813-5.324219-9.039062-4.820312-11.480469-.839843-13.839843 23.519531-38.960937 38.105468-66.25 38.464843zm0 0"/><path d="m426.894531 171.277344c.261719-2.796875.394531-5.582032.421875-8.394532 0-5.109374-12.136718-2.601562-12.171875 1.496094 0 2.800782-.160156 5.589844-.417969 8.390625-.453124 4.960938 11.792969 2.703125 12.167969-1.492187zm0 0"/><path d="m41.066406 200.300781h8.394532c3.019531.164063 5.960937-.996093 8.066406-3.171875 1.417968-2.339844-1.21875-3.019531-3.148438-3.019531h-8.394531c-3.023437-.167969-5.964844.992187-8.066406 3.171875-1.417969 2.339844 1.21875 3.019531 3.148437 3.019531zm0 0"/><path d="m42.996094 243.664062h8.394531c2.644531 0 6.394531-2.050781 6.714844-4.945312.328125-3.191406-3.214844-4.039062-5.632813-4.039062h-8.394531c-2.644531 0-6.394531 2.050781-6.714844 4.945312-.324219 3.191406 3.214844 4.039062 5.632813 4.039062zm0 0"/><path d="m52.464844 276.714844h-8.394532c-2.617187 0-6.402343 2.023437-6.714843 4.894531-.328125 3.171875 3.242187 3.953125 5.617187 3.953125h8.390625c2.621094 0 6.40625-2.023438 6.714844-4.894531.328125-3.171875-3.238281-3.953125-5.613281-3.953125zm0 0"/><path d="m52.496094 318.808594h-8.390625c-2.519531 0-6.414063 1.980468-6.714844 4.800781-.351563 3.148437 3.28125 3.792969 5.570313 3.792969h8.394531c2.519531 0 6.414062-1.980469 6.714843-4.800782.351563-3.144531-3.28125-3.792968-5.574218-3.792968zm0 0"/><path d="m54.261719 361.523438h-8.394531c-3.058594-.238282-6.046876 1.011718-8.023438 3.355468-1.359375 2.4375 1.164062 3.746094 3.355469 3.746094h8.394531c3.058594.238281 6.046875-1.011719 8.023438-3.359375 1.34375-2.433594-1.183594-3.742187-3.355469-3.742187zm0 0"/><path d="m54.4375 404.144531h-8.394531c-3.003907-.128906-5.929688.988281-8.082031 3.089844-1.460938 2.28125 1.257812 2.703125 3.0625 2.703125h8.394531c3.003906.128906 5.929687-.992188 8.082031-3.089844 1.453125-2.28125-1.265625-2.703125-3.0625-2.703125zm0 0"/><path d="m52.414062 444.375h-8.394531c-3.109375-.039062-5.851562 2.03125-6.664062 5.035156-.300781 3.214844 3.171875 4.199219 5.675781 4.199219h8.390625c3.113281.035156 5.855469-2.035156 6.664063-5.039063.304687-3.195312-3.171876-4.195312-5.671876-4.195312zm0 0"/><path d="m150.296875 200.730469c4.675781 0 12.867187-7.050781 4.683594-7.050781h-67.144531c-4.675782 0-12.867188 7.050781-4.683594 7.050781zm0 0"/><path d="m83.132812 242.648438h100.722657c4.609375 0 12.902343-6.953126 4.71875-6.953126h-100.722657c-4.609374 0-12.902343 6.953126-4.71875 6.953126zm0 0"/><path d="m180.339844 278.109375h-92.328125c-4.03125 0-13.085938 6.058594-4.953125 6.058594h92.328125c3.988281 0 13.042969-6.058594 4.953125-6.058594zm0 0"/><path d="m178.40625 360.792969h-92.328125c-6.820313 0-9.441406 8.5625-1.171875 8.5625h92.328125c6.824219 0 9.441406-8.5625 1.171875-8.5625zm0 0"/><path d="m124.941406 409.976562c3.910156 0 13.121094-5.875 5.035156-5.875h-41.964843c-3.914063 0-13.121094 5.875-5.039063 5.875zm0 0"/><path d="m82.972656 326.0625h41.96875c3.9375 0 13.109375-5.878906 5.035156-5.878906h-41.964843c-3.953125-.03125-13.128907 5.878906-5.039063 5.878906zm0 0"/><path d="m238.789062 319.109375h-75.539062c-5.28125 0-12.589844 7.992187-4.433594 7.992187h75.542969c5.277344 0 12.632813-7.992187 4.429687-7.992187zm0 0"/><path d="m131.445312 446.675781h-41.964843c-3.046875-.179687-6.066407.640625-8.605469 2.332031-1.191406 1.308594-2.324219 2.367188.628906 2.367188h41.96875c3.050782.167969 6.070313-.664062 8.601563-2.367188 1.195312-1.277343 2.328125-2.332031-.628907-2.332031zm0 0"/><path d="m238.875 445.324219h-75.542969c-4.882812 0-12.789062 7.367187-4.597656 7.367187h75.539063c4.886718 0 12.792968-7.367187 4.601562-7.367187zm0 0"/></g></svg>