<svg height="508pt" viewBox="0 0 508 508.89265" width="508pt" xmlns="http://www.w3.org/2000/svg"><path d="m68.722656 505.953125c-1.910156.003906-3.59375-1.265625-4.113281-3.109375-.519531-1.839844.253906-3.804688 1.886719-4.800781l16.964844-10.390625-30.703126 17.695312c-2.007812 1.128906-4.550781.453125-5.738281-1.519531-1.191406-1.972656-.597656-4.53125 1.335938-5.785156l110.78125-69.316407-132.71875 76.621094c-2.023438 1.152344-4.597657.472656-5.785157-1.53125-1.1875-2-.550781-4.585937 1.429688-5.804687l17.066406-10.351563-26.820312 15.496094c-2.019532 1.210938-4.640625.554688-5.851563-1.46875-1.210937-2.019531-.554687-4.640625 1.46875-5.851562l118.9375-73.636719-117.574219 67.875c-2.011718 1.074219-4.515624.378906-5.679687-1.585938-1.164063-1.960937-.578125-4.492187 1.328125-5.746093l56.21875-34.292969-51.875 29.941406c-2.011719 1.09375-4.523438.402344-5.699219-1.5625-1.171875-1.964844-.585937-4.503906 1.328125-5.757813l116.207032-71.824218-111.84375 64.5625c-2.003907 1.054687-4.484376.363281-5.648438-1.578125-1.167969-1.941407-.613281-4.453125 1.261719-5.726563l149.554687-93.421875-145.175781 83.8125c-2.023437 1.128907-4.574219.4375-5.753906-1.558593-1.175781-1.992188-.546875-4.5625 1.417969-5.789063l3.8125-2.300781c-2.058594.84375-4.417969-.03125-5.425782-2.015625-1.007812-1.988281-.320312-4.410157 1.578125-5.570313l98.738281-60.769531-94.386718 54.539063c-2.011719 1.0625-4.503906.355468-5.664063-1.605469-1.15625-1.960938-.570312-4.484375 1.328125-5.734375l17.640625-10.691406-13.3125 7.679687c-2.003906 1.042969-4.472656.34375-5.632812-1.597656-1.160157-1.9375-.605469-4.445313 1.265625-5.714844l120.566406-74.675781-116.207031 67.089844c-2.015625 1.160156-4.589844.496093-5.789063-1.5-1.199218-1.992188-.578125-4.578126 1.394532-5.8125l153.804687-96.214844-149.417969 86.253906c-2.003906 1.070312-4.492187.386719-5.664062-1.558594-1.175782-1.941406-.621094-4.464844 1.257812-5.738281l173.457032-109.402344-169.058594 97.601563c-2.011719 1.128906-4.550782.453125-5.742188-1.519532-1.1875-1.972656-.597656-4.53125 1.335938-5.785156l161.042968-101.023437-156.648437 90.425781c-2.007813 1.125-4.550781.453125-5.738281-1.519531-1.191406-1.972657-.597656-4.53125 1.335937-5.785157l157.5-98.660156-153.105469 88.386719c-2.019531 1.214844-4.640624.566406-5.859374-1.453125-1.214844-2.019531-.5625-4.644531 1.457031-5.859375l154.5625-96.726563-150.175781 86.714844c-2.023438 1.210938-4.644532.550782-5.855469-1.476562-1.207031-2.023438-.546875-4.644532 1.476562-5.851563l108.253907-66.765625-103.882813 59.972656c-2.023437 1.152344-4.597656.472657-5.785156-1.53125-1.1875-2-.550781-4.585937 1.429687-5.808593l29.289063-17.773438-24.945313 14.386719c-2.007812 1.105469-4.535156.425781-5.714844-1.542969-1.179687-1.96875-.59375-4.519531 1.332032-5.769531l125.4375-77.722656-121.0625 69.855468c-2.007813 1.105469-4.535156.425782-5.714844-1.542968-1.183594-1.96875-.59375-4.519532 1.328125-5.769532l123.113281-76.238281-118.734375 68.566407c-2.007812 1.125-4.550781.453124-5.738281-1.519532-1.191406-1.972656-.597656-4.535156 1.335938-5.785156l156.851562-98.246094-152.457031 88.03125c-2.023438 1.214844-4.644531.558594-5.859375-1.464844-1.214844-2.019531-.558594-4.644531 1.464844-5.855468l138.769531-86.394532-134.382813 77.578126c-2.015625 1.222656-4.640625.582031-5.863281-1.433594s-.582031-4.640625 1.433594-5.863282l160.664062-102.117187-156.253906 90.207031c-2.007813 1.105469-4.535156.421875-5.714844-1.542968-1.183593-1.96875-.59375-4.519532 1.328125-5.773438l84.132813-52.308594-79.753907 46.082032c-2.03125 1.210937-4.660156.546874-5.871093-1.484376-1.210938-2.03125-.546875-4.660156 1.484375-5.871093l63.0625-39.253907-58.683594 33.875c-1.308594.785157-2.9375.808594-4.269531.0625-1.332031-.742187-2.164063-2.136718-2.1875-3.664062-.023438-1.523438.769531-2.945312 2.078125-3.726562l22.851562-14.113282-18.480468 10.664063c-2.003907 1.140625-4.550782.484375-5.753907-1.484375-1.199219-1.964844-.621093-4.53125 1.308594-5.792969l88.488281-56.917969-84.050781 48.527344c-1.949219 1.101562-4.414063.515625-5.652344-1.347656-1.242187-1.859375-.835937-4.359375.933594-5.734375l15.445313-11.757813-10.738282 6.195313c-1.824218 1.046875-4.144531.605469-5.457031-1.042969s-1.226563-4.003906.203125-5.554688l17.5-18.875-12.253906 7.082032c-1.453125.839844-3.265625.75-4.628906-.230469-1.359376-.980469-2.019532-2.671875-1.683594-4.316406l2.789062-13.765625c-1.589844-.535156-2.714844-1.953125-2.878906-3.625-.164062-1.667969.664062-3.277344 2.121094-4.113282l4.265625-2.476562c1.453125-.839844 3.265625-.746094 4.628906.234375 1.359375.980469 2.019531 2.671875 1.683594 4.316406l-2.394531 11.859375 28.578124-16.492187c1.824219-1.039063 4.128907-.59375 5.4375 1.046875 1.308594 1.640625 1.230469 3.988281-.183593 5.539062l-17.476563 18.902344 44.273438-25.558594c1.945312-1.101562 4.410156-.511718 5.652344 1.347656 1.238281 1.859376.832031 4.363282-.933594 5.734376l-15.429688 11.761718 180.078125-103.945312c2.003907-1.140625 4.550781-.484375 5.753907 1.484375 1.199218 1.964843.621093 4.53125-1.308594 5.792969l-88.53125 56.910156 111.238281-64.1875c2.011719-1.089844 4.527344-.402344 5.699219 1.5625s.585937 4.503906-1.328125 5.757812l-22.894531 14.121094 37.195312-21.441406c2.011719-1.109375 4.539062-.425782 5.71875 1.542968s.589844 4.515626-1.332031 5.769532l-63.0625 39.253906 80.589843-46.566406c2.007813-1.074219 4.503907-.382813 5.671876 1.570312 1.167968 1.953125.597656 4.480469-1.292969 5.742188l-84.15625 52.316406 103.339843-59.628906c2.003907-1.121094 4.535157-.453125 5.726563 1.507812 1.191406 1.960938.617187 4.515625-1.300781 5.777344l-160.648438 102.101562 183.273438-105.804687c2.011718-1.160156 4.589844-.496094 5.785156 1.5 1.199219 1.992187.578125 4.578125-1.390625 5.8125l-138.632813 86.308594 135.847657-78.429688c2.007812-1.085937 4.511719-.402343 5.691406 1.550781 1.175781 1.957032.605469 4.488282-1.296875 5.753907l-157.011719 98.328125 152.617188-88.097656c2.015625-1.136719 4.570312-.457032 5.757812 1.527343s.574219 4.554688-1.378906 5.792969l-123.035156 76.195312 118.613281-68.503906c2.015625-1.136718 4.570312-.460937 5.757812 1.527344 1.1875 1.984375.574219 4.554688-1.378906 5.792969l-125.355468 77.652343 121.019531-69.8125c2.019531-1.09375 4.542969-.398437 5.710937 1.578126 1.171875 1.976562.566406 4.523437-1.367187 5.761718l-29.386719 17.851563 25.042969-14.507813c2.027343-1.203125 4.644531-.542968 5.851562 1.484375 1.207031 2.023438.542969 4.640625-1.480469 5.847657l-108.160156 66.757812 103.789063-59.949219c2.007812-1.085937 4.511719-.402343 5.691406 1.554688 1.175781 1.953125.605469 4.488281-1.296875 5.75l-154.648438 96.804687 150.253907-86.742187c2.007812-1.085938 4.511719-.402344 5.691406 1.550781 1.175781 1.957031.605469 4.488281-1.296875 5.753906l-157.4375 98.636719 153.042969-88.320313c2.007812-1.085937 4.511719-.402343 5.691406 1.550782 1.175781 1.957031.605469 4.488281-1.296875 5.753906l-161.074219 101.015625 156.679688-90.453125c2.011719-1.125 4.550781-.453125 5.742187 1.519531 1.1875 1.972657.597656 4.535157-1.335937 5.785157l-173.441407 109.398437 169.035157-97.597656c2.015625-1.160157 4.589843-.492188 5.789062 1.5 1.199219 1.996093.578125 4.582031-1.394531 5.816406l-153.847656 96.238281 149.453125-86.273437c2.003906-1.042969 4.476562-.34375 5.636719 1.597656 1.15625 1.9375.601562 4.445313-1.265626 5.714844l-120.492187 74.574219 116.121094-67.019532c2.019531-1.097656 4.542969-.402344 5.710937 1.574219 1.171875 1.976563.566406 4.523437-1.367187 5.761719l-17.765625 10.753906 13.421875-7.742188c2.011719-1.058593 4.496093-.355468 5.65625 1.59375 1.160156 1.949219.59375 4.46875-1.292969 5.730469l-98.644531 60.714844 94.28125-54.433594c2.019531-1.097656 4.542969-.402343 5.710937 1.574219 1.171875 1.976562.566406 4.523438-1.367187 5.761719l-3.847657 2.320312c2.050782-.84375 4.40625.023438 5.421876 1.992188 1.011718 1.972656.347656 4.394531-1.53125 5.570312l-149.496094 93.386719 145.109375-83.777344c1.3125-.78125 2.9375-.804687 4.269531-.058594 1.328125.742188 2.160156 2.140626 2.183594 3.664063.019531 1.523437-.773438 2.941406-2.082032 3.722656l-116.277343 71.859375 111.90625-64.597656c2.023437-1.152344 4.597656-.46875 5.785156 1.53125 1.1875 2.003906.550781 4.585938-1.429687 5.808594l-56.320313 34.347656 51.957031-29.996094c2.015625-1.136718 4.570313-.457031 5.757813 1.527344 1.1875 1.988281.574219 4.554688-1.378907 5.792969l-118.785156 73.550781 114.414063-66.058594c2.019531-1.09375 4.542969-.398437 5.710937 1.578125 1.171875 1.976563.566406 4.523438-1.367187 5.761719l-17.167969 10.4375 12.800781-7.40625c2.015625-1.164062 4.589844-.496094 5.789063 1.496094 1.195312 1.996094.578125 4.582031-1.394532 5.816406l-110.746093 69.316406 106.375-61.441406c2.015625-1.074219 4.515625-.375 5.679687 1.585938 1.167969 1.960937.582032 4.492187-1.324218 5.746093l-16.957032 10.390625 12.601563-7.277344c2.003906-1.121093 4.535156-.453124 5.730469 1.507813 1.191406 1.960937.617187 4.515625-1.300782 5.78125l-109.226562 69.835937 104.796875-60.460937c2.007812-1.101563 4.523437-.425781 5.707031 1.53125 1.1875 1.960937.613281 4.503906-1.292969 5.765625l-68.820312 43.613281 64.40625-37.179687c2.003906-1.054688 4.484375-.363282 5.648437 1.578125 1.167969 1.941406.613282 4.457031-1.261718 5.726562l-15.4375 9.644531 11.09375-6.375c2.019531-1.21875 4.640624-.570312 5.859374 1.445313 1.21875 2.019531.570313 4.640625-1.445312 5.859375l-27.761719 17.550781 23.304688-13.445312c2.003906-1.121094 4.535156-.453125 5.730469 1.507812 1.191406 1.960938.617187 4.515625-1.300782 5.777344l-29.011718 18.578125 24.582031-14.191406c1.984375-1.117188 4.496093-.476563 5.707031 1.449218 1.210938 1.929688.691406 4.46875-1.175781 5.769532l-62.820313 42.828125 58.289063-33.644531c1.980469-1.101563 4.476562-.464844 5.6875 1.453124 1.207031 1.917969.703125 4.445313-1.144531 5.757813l-40.78125 27.917969 36.238281-20.914063c1.980469-1.117187 4.488281-.484375 5.703125 1.433594 1.21875 1.921875.714844 4.460937-1.144532 5.769531l-24.292968 16.792969 19.746094-11.390625c1.972656-1.121094 4.480468-.5 5.703124 1.414062 1.21875 1.917969.726563 4.453126-1.121093 5.769532l-12.441407 8.746094 7.902344-4.554688c1.9375-1.101562 4.398438-.523438 5.644532 1.324219 1.246093 1.851562.855468 4.347656-.894532 5.730469l-19.027344 14.867187 14.277344-8.242187c1.816406-1.050782 4.128906-.617188 5.449219 1.019531 1.316406 1.632812 1.25 3.984375-.160156 5.539062l-16.855469 18.5625 11.566406-6.671875c1.65625-.957031 3.75-.6875 5.113282.652344 1.367187 1.34375 1.671874 3.429688.746093 5.105469l-4.332031 7.84375c1.929688 0 3.621094 1.296875 4.121094 3.160156.496094 1.867187-.316406 3.835937-1.988282 4.800781l-10.652343 6.144532c-1.65625.949218-3.742188.679687-5.105469-.660157-1.363281-1.335937-1.671875-3.417969-.753906-5.09375l3.804687-6.894531-21.898437 12.628906c-1.816406 1.035156-4.117188.601563-5.429688-1.027344-1.316406-1.625-1.253906-3.964843.140625-5.523437l16.84375-18.5625-43.554687 25.113281c-1.9375 1.125-4.417969.554688-5.671875-1.304687-1.257813-1.859375-.855469-4.371094.910156-5.75l19.023437-14.847657-37.972656 21.902344c-1.972656 1.082032-4.441406.453125-5.652344-1.441406-1.207031-1.894531-.742187-4.402344 1.066407-5.734375l12.503906-8.789063-27.664063 15.964844c-1.976562 1.078125-4.449218.441406-5.652343-1.460937-1.203125-1.898438-.722657-4.40625 1.09375-5.730469l24.25-16.777344-41.511719 23.96875c-1.976562 1.066406-4.4375.417969-5.632812-1.480468-1.199219-1.898438-.71875-4.398438 1.09375-5.71875l40.753906-27.914063-60.84375 35.113281c-1.976563 1.074219-4.449219.429688-5.648438-1.476562-1.199218-1.90625-.707031-4.417969 1.117188-5.734375l62.855468-42.863281-86.738281 50.074218c-2 1.070313-4.484375.390625-5.660156-1.542968-1.175781-1.933594-.636719-4.453126 1.230469-5.734376l29.011718-18.558593-44.796874 25.835937c-2.007813 1.105469-4.523438.429688-5.707032-1.53125-1.1875-1.957031-.613281-4.5 1.292969-5.761718l27.726563-17.539063-43.027344 24.832031c-2.003906 1.089844-4.511719.402344-5.6875-1.550781-1.175782-1.953125-.605469-4.488281 1.292968-5.753906l15.53125-9.699219-29.464843 17.003906c-2 1.058594-4.472657.371094-5.644531-1.5625-1.167969-1.933594-.628907-4.441406 1.230468-5.722656l68.839844-43.625-88.199219 50.910156c-1.996093 1.070313-4.480469.390625-5.660156-1.542968-1.175781-1.933594-.636719-4.453126 1.230469-5.734376l109.160156-69.820312-133.546875 77.097656c-.648437.386719-1.382813.597656-2.136719.605469zm0 0" fill="#cad0d7"/><path d="m92.5 93.25c-1.855469-.003906-3.496094-1.203125-4.0625-2.96875-.5625-1.765625.078125-3.695312 1.585938-4.773438l42.324218-30.164062-37.714844 21.75c-1.929687 1.089844-4.371093.527344-5.621093-1.300781-1.253907-1.828125-.898438-4.308594.816406-5.710938l39.109375-31.507812-34.304688 19.816406c-1.953124 1.101563-4.425781.503906-5.660156-1.367187-1.234375-1.875-.808594-4.382813.972656-5.742188l5.285157-3.933594-.597657.339844c-1.820312 1.0625-4.140624.636719-5.464843-1s-1.257813-3.992188.15625-5.550781l15.070312-16.792969-9.761719 5.628906c-1.464843.851563-3.292968.753906-4.660156-.246094-1.367187-1.003906-2.011718-2.722656-1.640625-4.378906l2.621094-11.664062c-.90625-.347656-1.667969-1-2.148437-1.84375-1.171876-2.039063-.476563-4.640625 1.558593-5.820313l4.269531-2.429687c1.46875-.855469 3.300782-.757813 4.671876.25 1.367187 1.003906 2.007812 2.726562 1.632812 4.382812l-2.140625 9.539063 24.539063-14.171875c1.816406-1.035156 4.113281-.605469 5.429687 1.015625 1.316406 1.621093 1.265625 3.957031-.121094 5.519531l-15.070312 16.769531 40.421875-23.304687c1.953125-1.105469 4.429687-.507813 5.664062 1.367187 1.234375 1.871094.804688 4.378907-.976562 5.738281l-5.292969 3.953126 19.160156-11.058594c1.925781-1.113282 4.386719-.550782 5.644531 1.28125 1.261719 1.835937.898438 4.332031-.832031 5.730468l-39.136719 31.488282 66.707032-38.5c1.96875-1.125 4.476562-.511719 5.703125 1.398437 1.226562 1.90625.746093 4.441407-1.09375 5.769531l-42.316407 30.15625 64.707032-37.324218c1.320312-.839844 3-.890625 4.367187-.125 1.367188.761718 2.207031 2.214844 2.1875 3.78125s-.898437 2.996094-2.289062 3.722656l-141.566407 81.707031c-.648437.378907-1.386718.578125-2.132812.574219zm0 0" fill="#cad0d7"/><path d="m23.191406 96.347656c-1.820312 0-3.4375-1.15625-4.03125-2.871094-.59375-1.71875-.035156-3.625 1.394532-4.75l22.1875-17.492187-20.234376 11.714844c-1.953124 1.101562-4.425781.503906-5.660156-1.367188-1.234375-1.875-.808594-4.382812.976563-5.742187l28.789062-21.484375c-1.121093-.703125-1.855469-1.882813-1.984375-3.199219s.355469-2.621094 1.320313-3.527344l35.949219-33.902344c-.105469-1.621093.71875-3.164062 2.125-3.976562l5.839843-3.363281c1.882813-1.125 4.3125-.640625 5.617188 1.125 1.308593 1.765625 1.0625 4.230469-.566407 5.703125l-16.519531 15.546875 11.519531-6.648438c1.949219-1.078125 4.402344-.472656 5.628907 1.390625 1.226562 1.863282.808593 4.355469-.953125 5.71875l-13.226563 9.875 8.574219-4.949218c1.9375-1.109376 4.398438-.542969 5.652344 1.304687 1.253906 1.84375.871094 4.34375-.871094 5.734375l-22.25 17.527344 17.519531-10.121094c1.851563-1.082031 4.21875-.621094 5.53125 1.078125 1.308594 1.695313 1.15625 4.101563-.359375 5.621094l-17.007812 17.152343 11.886718-6.871093c1.527344-.882813 3.441407-.738281 4.816407.367187 1.375 1.105469 1.925781 2.945313 1.390625 4.625l-4.164063 13.023438c1.574219-.035156 3.046875.78125 3.855469 2.132812.566406.980469.714844 2.144532.421875 3.238282s-1.011719 2.023437-1.992187 2.589843l-7.332032 4.265625c-1.527344.886719-3.445312.742188-4.820312-.367187s-1.925782-2.949219-1.382813-4.632813l3.925781-12.296875-29.960937 17.230469c-1.851563 1.066406-4.207031.597656-5.507813-1.09375-1.304687-1.691406-1.15625-4.085938.347657-5.605469l17.003906-17.136719-41.316406 23.835938c-.644531.386719-1.382813.589844-2.132813.597656zm0 0" fill="#a9b0bb"/><path d="m324.878906 428.632812c-1.882812.003907-3.542968-1.226562-4.089844-3.027343-.546874-1.800781.152344-3.746094 1.714844-4.789063l55.980469-37.339844-73.8125 42.613282c-2.007813 1.105468-4.523437.429687-5.707031-1.53125-1.183594-1.957032-.613282-4.5 1.292968-5.761719l2.5625-1.632813-10.292968 5.976563c-2.015625 1.222656-4.636719.578125-5.863282-1.433594-1.222656-2.015625-.578124-4.640625 1.433594-5.863281l44.058594-28.085938-54.425781 31.40625c-1.992188 1.097657-4.5.433594-5.691407-1.503906-1.195312-1.941406-.652343-4.476562 1.230469-5.761718l96.511719-63.144532-109.296875 63.113282c-1.992187 1.113281-4.511719.460937-5.710937-1.484376-1.203126-1.941406-.65625-4.488281 1.230468-5.769531l116.90625-76.664062-129.183594 74.605469c-2.007812 1.148437-4.566406.488281-5.765624-1.492188-1.199219-1.980469-.601563-4.554688 1.34375-5.800781l83.40625-52.847657-90.949219 52.503907c-2.007813 1.179687-4.589844.527343-5.800781-1.460938-1.210938-1.988281-.605469-4.582031 1.363281-5.824219l111.105469-71.117187-118.382813 68.34375c-2.011719 1.148437-4.566406.484375-5.765625-1.496094-1.199219-1.976562-.601562-4.550781 1.34375-5.800781l100.300781-63.523438-106.035156 61.21875c-2.007813 1.125-4.550781.453126-5.738281-1.519531-1.191406-1.972656-.597656-4.535156 1.335937-5.785156l85.035157-53.332031-88.746094 51.199218c-2.015625 1.222657-4.640625.582032-5.863282-1.433593-1.222656-2.015625-.582031-4.640625 1.433594-5.863281l122.496094-78.148438-127.148438 73.429688c-2.007812 1.179687-4.589843.527343-5.800781-1.460938-1.210937-1.988281-.601562-4.582031 1.363281-5.824219l130.5-83.628906-134.355468 77.601563c-2.023438 1.207031-4.644532.542968-5.851563-1.480469-1.203125-2.023438-.542969-4.640625 1.480469-5.847657l13.050781-7.996093-12.800781 7.398437c-1.988281.992188-4.402344.292969-5.554688-1.605468-1.148437-1.898438-.652343-4.359376 1.140626-5.664063l78.507812-49.078125-78.738281 45.449219c-2.015625 1.117187-4.550781.429687-5.730469-1.550781-1.175781-1.980469-.570312-4.539063 1.371094-5.777344l9.4375-5.785156-8.53125 4.921874c-2.011719 1.109376-4.539063.425782-5.71875-1.542968-1.179688-1.96875-.59375-4.515625 1.332031-5.769532l60.3125-37.503906-58.878906 33.980469c-2.011719 1.089844-4.527344.398437-5.699219-1.566406-1.171875-1.964844-.585938-4.503907 1.328125-5.757813l36.609375-22.59375-34.644531 19.976563c-2.007813 1.085937-4.511719.402343-5.6875-1.554688-1.175781-1.953125-.609375-4.488281 1.292969-5.75l75.449218-47.386719-73.195312 42.257813c-2.003906 1.082031-4.503906.40625-5.683594-1.539063-1.179688-1.945312-.625-4.476562 1.261719-5.75l90.453125-57.472656-87.183594 50.347656c-2.011719 1.109376-4.539062.425782-5.71875-1.542968s-.59375-4.515625 1.332031-5.769532l18.15625-11.246093-14.171875 8.175781c-2 1.132812-4.535156.484375-5.742187-1.472656-1.203125-1.957032-.644531-4.519532 1.269531-5.789063l103.570312-67.492187-97.621093 56.320312c-1.996094 1.097656-4.5.4375-5.695313-1.503906-1.191406-1.941406-.648437-4.472656 1.230469-5.757812l89.113281-58.257813-81.066406 46.816406c-2.007812 1.175781-4.589844.523438-5.800781-1.464843-1.210938-1.988282-.601563-4.582032 1.363281-5.824219l39.945312-25.539063-31.898437 18.40625c-1.984375 1.082032-4.472656.429688-5.667969-1.492187-1.195312-1.925781-.679687-4.445313 1.171875-5.746094l61.789063-41.191406-48.785156 28.160156c-1.980469 1.074219-4.457032.417969-5.648438-1.496094-1.191406-1.910156-.691406-4.421875 1.144531-5.730469l36.230469-24.3125-20.101562 11.605469c-1.929688 1.113281-4.390626.554688-5.648438-1.28125-1.257812-1.835937-.894531-4.332031.835938-5.730469l38.398437-30.925781c-1.984375.140625-3.800781-1.105469-4.382813-3.007812-.582031-1.902344.226563-3.953125 1.949219-4.945313l43.617188-25.171875c1.925781-1.113281 4.386719-.554687 5.644531 1.28125 1.261719 1.835938.898438 4.332031-.832031 5.730469l-36.175781 29.160156 82.347656-47.539062c1.988281-1.117188 4.503906-.46875 5.710937 1.464844 1.203125 1.9375.671875 4.476562-1.203125 5.769531l-36.242187 24.304687 54.613281-31.523437c1.992188-1.132813 4.523438-.488281 5.734375 1.457031 1.210937 1.949219.664063 4.503906-1.238281 5.789062l-61.859375 41.191407 79.199219-45.730469c2.007812-1.179688 4.589843-.527344 5.800781 1.460938 1.210937 1.988281.605469 4.582031-1.363281 5.824218l-39.925782 25.507813 50.414063-29.109375c1.996093-1.132813 4.535156-.484375 5.742187 1.472656 1.203125 1.957031.644532 4.519531-1.269531 5.789062l-89.019531 58.292969 102.289062-59.058593c1.996094-1.136719 4.535156-.484376 5.738282 1.472656 1.207031 1.957031.644531 4.515625-1.269532 5.789062l-103.609375 67.488282 115.789063-66.839844c2.003906-1.074219 4.5-.382813 5.667968 1.570312 1.171876 1.953125.601563 4.480469-1.292968 5.742188l-18.15625 11.246094 22.636718-13.0625c2.007813-1.148438 4.566407-.488282 5.765626 1.492187 1.199218 1.980469.601562 4.554687-1.34375 5.800781l-90.53125 57.523438 98.132812-56.660156c2.015625-1.160157 4.589844-.496094 5.789062 1.5 1.199219 1.992187.578126 4.578124-1.394531 5.8125l-75.332031 47.300781 80.453125-46.445313c2.015625-1.136718 4.570313-.460937 5.753906 1.527344 1.1875 1.984375.578125 4.554688-1.375 5.792969l-36.804687 22.75 40.257812-23.246094c2.011719-1.105469 4.539063-.425781 5.71875 1.542969 1.179688 1.96875.59375 4.519531-1.332031 5.769531l-60.246094 37.464844 63.054688-36.40625c2.027343-1.203125 4.644531-.535157 5.847656 1.492187 1.207031 2.023438.539063 4.644532-1.488281 5.847656l-9.464844 5.792969 10.941406-6.3125c2.015625-1.164062 4.589844-.496093 5.789063 1.496094 1.199219 1.996094.578125 4.582031-1.394531 5.816406l-78.507813 49.050781 81.066406-46.808593c2.027344-1.203125 4.648438-.539063 5.855469 1.488281 1.207031 2.023438.542969 4.644531-1.484375 5.851562l-12.886719 7.894532 13.226563-7.636719c2.003906-1.121094 4.535156-.453125 5.730469 1.507813 1.191406 1.960937.617187 4.515624-1.300782 5.777343l-130.507812 83.628907 133.699218-77.175782c2.015626-1.222656 4.640626-.582031 5.863282 1.433594s.582031 4.636719-1.433594 5.863281l-122.480469 78.105469 123.929688-71.546875c2.015625-1.160156 4.589843-.492187 5.789062 1.5 1.199219 1.996094.578125 4.582031-1.394531 5.816406l-85.050781 53.339844 84.652343-48.871094c2.015626-1.21875 4.640626-.574219 5.859376 1.441407 1.222656 2.019531.578124 4.644531-1.441407 5.863281l-100.367187 63.558593 99.285156-57.320312c2.003906-1.121094 4.535156-.453125 5.726562 1.507812 1.191407 1.964844.617188 4.515626-1.296874 5.78125l-111.039063 71.082032 109.03125-62.941406c2-1.085938 4.5-.40625 5.679687 1.539062 1.183594 1.945312.628907 4.472656-1.257812 5.746094l-83.492188 52.90625 80.214844-46.300782c1.992188-1.082031 4.480469-.421874 5.671875 1.507813 1.1875 1.929687.660157 4.453125-1.199219 5.746094l-116.910156 76.664062 111.789063-64.53125c1.996093-1.097656 4.5-.433593 5.691406 1.503907 1.195313 1.941406.652344 4.476562-1.230469 5.761718l-96.578125 63.109375 89.71875-51.796875c2.003907-1.121094 4.535157-.453125 5.726563 1.507813 1.195312 1.964843.621094 4.515625-1.296875 5.78125l-44.03125 28.074219 36.070312-20.796876c2.003907-1.101562 4.523438-.425781 5.707031 1.53125 1.183594 1.957032.609376 4.503907-1.296874 5.765626l-7.175782 4.523437c1.757813-.359375 3.558594.402344 4.523438 1.917969 1.214844 1.960937.65625 4.527344-1.265625 5.804687l-55.960938 37.339844 42.949219-24.789063c1.988281-1.070312 4.464844-.40625 5.652344 1.511719 1.1875 1.921875.671875 4.433594-1.171875 5.734375l-18.261719 12.066406 2.796875-1.605468c1.984375-1.152344 4.523437-.53125 5.75 1.402344 1.230469 1.9375.707031 4.5-1.183594 5.800781l-19.566406 13.550781c1.875.117188 3.449219 1.449219 3.882813 3.277344.429687 1.828125-.382813 3.722656-2.003907 4.667968l-80.453125 46.453126c-1.984375 1.15625-4.523437.535156-5.75-1.402344-1.226562-1.9375-.707031-4.5 1.183594-5.796875l12.492188-8.664063-35.429688 20.480469c-1.992188 1.117187-4.511719.460937-5.710938-1.480469-1.203124-1.945312-.660156-4.488281 1.230469-5.773437l18.246094-12.097657-34.628906 19.992188c-.648438.375-1.382813.574219-2.132813.570312zm0 0" fill="#89c053"/><path d="m366.445312 214.363281c-1.722656.003907-3.277343-1.03125-3.945312-2.617187-.664062-1.585938-.3125-3.417969.898438-4.644532l17.851562-18.109374-28.742188 16.640624c-1.933593 1.101563-4.386718.535157-5.640624-1.304687-1.25-1.839844-.878907-4.332031.855468-5.726563l7.234375-5.75-8.363281 4.828126c-1.9375 1.117187-4.40625.546874-5.660156-1.304688-1.253906-1.855469-.863282-4.359375.890625-5.742188l5.121093-3.996093-3.558593 2.046875c-1.902344 1.105468-4.328125.585937-5.609375-1.203125-1.28125-1.785157-.996094-4.253907.660156-5.699219l11.945312-10.496094-7.269531 4.199219c-1.847656 1.003906-4.148437.511719-5.425781-1.15625-1.277344-1.671875-1.148438-4.023437.304688-5.542969l8.585937-8.652344c-1.535156-.59375-2.589844-2.015624-2.71875-3.652343-.125-1.640625.703125-3.207031 2.128906-4.027344l19.703125-11.375c1.851563-1.066406 4.207032-.601563 5.511719 1.089844 1.304687 1.695312 1.15625 4.089843-.347656 5.609375l-4.308594 4.34375 16.964844-9.796875c1.898437-1.105469 4.328125-.585938 5.609375 1.203125 1.28125 1.785156.996094 4.253906-.660156 5.699218l-12.058594 10.523438 18.039062-10.410156c1.9375-1.117188 4.410156-.546875 5.664063 1.304687 1.253906 1.851563.863281 4.359375-.894531 5.742188l-5.117188 3.992187 6.355469-3.667968c1.933593-1.125 4.410156-.5625 5.667969 1.285156 1.261718 1.847656.878906 4.355468-.871094 5.746094l-7.230469 5.734374 6.246094-3.601562c1.847656-1.066406 4.199219-.601562 5.503906 1.082031 1.308594 1.6875 1.167969 4.078125-.324219 5.601563l-17.832031 18.089844 12.433594-7.167969c1.320312-.839844 3-.890625 4.367187-.125 1.367188.761719 2.207032 2.214843 2.1875 3.78125-.023437 1.570312-.902344 3-2.289062 3.726562l-39.75 22.953125c-.644532.367188-1.375.554688-2.113282.546875zm0 0" fill="#f4f6f8"/><path d="m368.183594 368.5c-1.765625.007812-3.355469-1.078125-3.992188-2.726562-.640625-1.648438-.195312-3.519532 1.117188-4.707032l9.046875-8.140625-17.28125 9.96875c-1.855469 1.042969-4.195313.558594-5.484375-1.136719-1.292969-1.691406-1.136719-4.078124.363281-5.589843l23.390625-23.105469-29.3125 16.910156c-1.871094 1.148438-4.308594.683594-5.628906-1.066406-1.324219-1.75-1.101563-4.21875.507812-5.707031l20.660156-19.753907-19.421874 11.238282c-1.792969 1.027344-4.070313.621094-5.398438-.96875-1.324219-1.589844-1.320312-3.902344.015625-5.484375l11.953125-14.027344c-1.800781.355469-3.632812-.460937-4.574219-2.039063-1.179687-2.039062-.484375-4.648437 1.554688-5.828124l19.773437-11.417969c1.796875-1.03125 4.074219-.621094 5.398438.972656 1.324218 1.59375 1.3125 3.90625-.023438 5.484375l-11.511718 13.5625 28.757812-16.597656c1.871094-1.148438 4.308594-.683594 5.628906 1.066406 1.324219 1.75 1.105469 4.21875-.507812 5.707031l-20.738282 19.753907 27.359376-15.785157c1.855468-1.058593 4.210937-.578125 5.507812 1.125 1.292969 1.703125 1.128906 4.101563-.390625 5.609375l-23.386719 23.132813 23.652344-13.652344c1.878906-1.019531 4.21875-.496094 5.480469 1.230469 1.261719 1.722656 1.054687 4.113281-.488281 5.59375l-9.035157 8.140625 2.363281-1.363281c1.320313-.839844 3-.890626 4.367188-.125 1.367188.761718 2.207031 2.214843 2.1875 3.78125-.023438 1.570312-.898438 2.996093-2.289062 3.722656l-37.488282 21.683594c-.648437.367187-1.386718.554687-2.132812.539062zm0 0" fill="#f4f6f8"/><path d="m260.664062 291.402344c-1.660156 0-3.171874-.964844-3.871093-2.472656-.699219-1.507813-.460938-3.28125.613281-4.550782l11.679688-13.765625-29.011719 16.742188c-1.882813 1.128906-4.316407.640625-5.621094-1.121094-1.304687-1.765625-1.058594-4.234375.570313-5.703125l19.746093-18.535156-26.15625 15.085937c-1.902343 1.078125-4.3125.539063-5.578125-1.242187-1.269531-1.785156-.980468-4.234375.664063-5.679688l16.304687-13.984375-16.210937 9.34375c-1.914063 1.074219-4.328125.527344-5.585938-1.269531-1.257812-1.796875-.949219-4.253906.710938-5.683594l8.578125-7.210937-4.183594 2.40625c-1.832031 1.046875-4.160156.59375-5.46875-1.066407-1.304688-1.660156-1.203125-4.027343.25-5.566406l9.496094-10c-1.714844-.382812-3.023438-1.78125-3.289063-3.519531s.5625-3.460937 2.085938-4.339844l19.703125-11.375c1.835937-1.0625 4.171875-.613281 5.484375 1.050781 1.3125 1.664063 1.207031 4.042969-.253907 5.582032l-6.757812 7.113281 20.746094-11.945313c1.910156-1.074218 4.324218-.527343 5.585937 1.269532 1.257813 1.796875.949219 4.253906-.714843 5.683594l-8.585938 7.230468 13.65625-7.878906c1.90625-1.097656 4.335938-.566406 5.609375 1.230469 1.273437 1.792969.972656 4.261719-.695313 5.699219l-16.316406 14.019531 18.621094-10.742188c1.882812-1.125 4.3125-.640625 5.621094 1.125 1.304687 1.761719 1.058594 4.230469-.570313 5.703125l-19.746093 18.535156 18.3125-10.566406c1.796874-1.039062 4.082031-.636718 5.410156.957032 1.332031 1.589843 1.324218 3.910156-.019532 5.496093l-12.046874 14.207031c1.816406-.386718 3.671874.433594 4.617187 2.03125 1.175781 2.039063.476563 4.648438-1.5625 5.828126l-19.695313 11.367187c-.648437.355469-1.382812.53125-2.125.511719zm0 0" fill="#f4f6f8"/><g fill="#262626"><path d="m508.046875 253.777344c0-.203125-.113281-.324219-.144531-.511719-.035156-.1875.125-.289063.117187-.453125-1.925781-80.597656-57.929687-149.769531-136.363281-168.429688.734375-19.039062 9.140625-65.707031-4.121094-78.558593-10.84375-10.519531-47.367187-3.574219-59.792968-3.574219h-215.039063c-2.808594.109375-5.304687 1.8125-6.433594 4.386719l-81.742187 81.695312c-2.003906.855469-3.898438 2.425781-3.898438 4.414063 0 128.382812-.410156 256.765625 0 385.152344.042969 13.796874-2.058594 23.234374 12.730469 28.730468 13.484375 5.007813 37.699219.058594 51.796875.058594h240.921875c13.714844 0 47.164063 6.769531 59.519531-3.414062 15.632813-12.847657 6.761719-59.441407 6.058594-79.640626 78.441406-19.578124 134.21875-89.039062 136.390625-169.855468zm-422.015625-196.933594v30.105469c-2.734375.453125-5.5.664062-8.269531.632812-9.0625-.851562-18.585938 0-27.699219 0h-32.019531l67.917969-67.917969v26.15625c0 1.859376.007812 6.015626.070312 11.023438zm268.796875 440.320312c-13.113281 8.433594-59.730469 0-74.886719 0h-233.777344c-16.566406 0-27.625 4.875-32.957031-9.871093-6.714843-18.5625 0-52.429688 0-71.859375v-242.484375c0-24.414063-3.34375-51.652344-.230469-76.039063 7.679688-.675781 15.886719.179688 23.5.179688h55.296876c2.558593 0 6.765624-2.175782 6.765624-5.164063v-55.296875c0-.714844-.050781-1.476562-.066406-2.199218v-22.75c38.585938-2.800782 78.503906.074218 117.128906.074218 40.71875 0 86.5625-6.058594 126.855469 0 15.28125 2.296875 14.925781-1.097656 16.589844 17.128906.957031 17.691407.988281 35.421876.09375 53.117188-12.863281-1.941406-25.898437-2.457031-38.871094-1.535156-91.066406 6.484375-165.980469 82.886718-165.9375 175.179687 1.210938 96.289063 79.808594 173.601563 176.101563 173.230469 9.636718-.117188 19.246094-1.007812 28.738281-2.664062.921875 18.832031 6.769531 63.777343-4.382813 70.972656zm13.613281-79.828124c-2.660156-.734376-5.515625-.15625-7.679687 1.554687-12.824219 2.261719-25.878907 2.953125-38.871094 2.054687-87.277344-7.265624-154.503906-80.074218-154.792969-167.652343.042969-97.648438 85.921875-176.949219 184.089844-163.839844 3.410156.457031 6.722656 1.175781 10.050781 1.824219 1.175781.566406 2.480469.804687 3.78125.691406 76.621094 16.886719 127.726563 85.648438 130.558594 163.617188-2.722656 77.191406-54.117187 145.015624-127.179687 161.765624zm0 0"/><path d="m343.976562 305.730469-54.09375-34.785157c2.898438-5.242187 4.554688-11.082031 4.839844-17.066406-.261718-5.921875-1.835937-11.71875-4.601562-16.964844l52.488281-33.644531c20.582031 21.433594 69.53125 10.53125 71.527344-26.453125 0-.136718-.09375-.214844-.109375-.34375-.019532-.125.136718-.289062.125-.449218-2.652344-49.359376-80.375-44.578126-80.613282 2.910156-.117187 5.8125 1.140626 11.574218 3.679688 16.808594l-52.542969 33.773437c-21.5625-22.851563-70.277343-13.652344-70.679687 25.507813-.394532 39.5625 46.933594 46.285156 69.324218 24.429687l54.332032 34.929687c-2.746094 5.402344-4.183594 11.378907-4.191406 17.441407-.5 50.867187 78.132812 47.691406 80.761718-1.09375-2.101562-38.859375-48.855468-46.394531-70.246094-25zm37.316407-157.015625c12.265625 5.105468 20.304687 17.035156 20.4375 30.320312-1.171875 17.066406-14.507813 34.449219-33.75 28.160156-13.160157-4.523437-21.976563-16.917968-21.929688-30.832031 0-18.269531 16.117188-34.902343 35.273438-27.613281zm-128.429688 135.441406c-15.019531-2.234375-26.195312-15.046875-26.375-30.234375-.597656-15.300781 11.167969-28.257813 26.453125-29.140625 16.277344.632812 29.179688 13.945312 29.304688 30.234375-.828125 15.769531-11.75 31.085937-29.382813 29.140625zm119.46875 76.800781c-15.019531-2.234375-26.195312-15.042969-26.367187-30.226562-.589844-15.292969 11.171875-28.246094 26.453125-29.132813 16.273437.628906 29.175781 13.941406 29.292969 30.226563-.828126 15.761719-11.757813 31.0625-29.386719 29.125zm0 0"/><path d="m34.789062 451.238281v17.066407c0 6.332031 12.507813 4.394531 12.507813-1.007813v-17.066406c0-6.320313-12.507813-4.394531-12.507813 1.007812zm0 0"/><path d="m34.863281 179.324219v238.933593c0 2.066407 12.355469.296876 12.355469-3.3125v-238.933593c0-2.0625-12.355469-.296875-12.355469 3.3125zm0 0"/><path d="m47.28125 142.972656v-17.066406c0-6.078125-12.476562-3.953125-12.476562 1.125v17.066406c0 6.078125 12.476562 3.953125 12.476562-1.125zm0 0"/></g></svg>