<svg id="Capa_1" enable-background="new 0 0 465.593 465.593" height="512" viewBox="0 0 465.593 465.593" width="512" xmlns="http://www.w3.org/2000/svg"><g><path d="m24.017 337.152c-2.14 0-3.875-1.734-3.875-3.874 0-1.175.533-2.288 1.45-3.023l33.88-27.239-44.008 25.41c-1.808 1.147-4.204.611-5.351-1.197s-.611-4.204 1.197-5.351l30.594-21.396-28.355 16.39c-1.866 1.048-4.228.385-5.276-1.48-.964-1.716-.488-3.883 1.107-5.037l56.872-40.126-52.695 30.424c-1.868 1.044-4.229.376-5.272-1.492-.985-1.763-.451-3.987 1.227-5.11l19.319-12.593-15.282 8.819c-1.851 1.073-4.222.443-5.295-1.409-1.03-1.776-.495-4.048 1.219-5.178l52.974-35.127-48.898 28.23c-1.86 1.059-4.225.409-5.284-1.45-1.013-1.779-.467-4.039 1.247-5.16l41.257-26.634-37.197 21.481c-1.875 1.031-4.231.347-5.262-1.528-.967-1.758-.432-3.963 1.233-5.082l50.533-32.469-46.496 26.851c-1.85 1.076-4.222.448-5.297-1.402-1.04-1.788-.492-4.077 1.244-5.201l87.512-57.027-83.498 48.178c-1.875 1.031-4.231.347-5.262-1.528-.967-1.758-.432-3.963 1.233-5.082l95.037-61.297-91.007 52.54c-1.875 1.031-4.231.347-5.262-1.528-.972-1.767-.426-3.984 1.256-5.097l83.739-52.997-79.734 46.03c-1.914.958-4.241.183-5.199-1.73-.856-1.71-.336-3.789 1.224-4.895l49.719-30.827-45.721 26.401c-1.864 1.05-4.227.39-5.278-1.474-1.012-1.797-.44-4.071 1.302-5.175l56.159-34.872-52.206 30.122c-1.836 1.108-4.223.519-5.331-1.317s-.519-4.223 1.317-5.331l106.754-67.822-102.74 59.343c-1.881 1.02-4.233.321-5.253-1.56-.95-1.753-.414-3.942 1.239-5.057l102.182-65.233-98.168 56.677c-1.881 1.02-4.233.322-5.253-1.559-.961-1.773-.402-3.986 1.285-5.09l7.889-4.867-3.921 2.263c-1.827 1.115-4.213.537-5.328-1.29s-.537-4.213 1.29-5.328l78.957-51.037-74.92 43.287c-1.851 1.073-4.222.442-5.295-1.409-1.024-1.767-.501-4.025 1.196-5.162l85.451-57.538-81.366 46.969c-1.858 1.062-4.225.416-5.287-1.442-1.024-1.791-.464-4.07 1.272-5.184l11.198-7.129-7.184 4.146c-1.815 1.134-4.205.583-5.339-1.232s-.583-4.205 1.232-5.339l53.726-36.786-49.595 28.634c-1.867 1.046-4.228.381-5.274-1.485-.954-1.702-.494-3.848 1.074-5.008l46.976-33.795-42.784 24.681c-1.87 1.041-4.229.369-5.27-1.5-.936-1.681-.497-3.794 1.031-4.963l30.672-22.698-26.433 15.258c-1.863 1.053-4.227.396-5.279-1.467-.936-1.656-.531-3.746.955-4.933l19.792-15.499-15.499 8.935c-1.845 1.083-4.22.465-5.303-1.38-.975-1.662-.581-3.788.925-4.99l6.905-5.603-2.527 1.465c-1.881 1.02-4.233.321-5.253-1.56-.632-1.166-.624-2.574.022-3.733l7.68-13.329-.108.062c-1.86 1.058-4.226.407-5.283-1.453-1.048-1.843-.42-4.185 1.409-5.258l12.577-7.284c1.85-1.076 4.221-.449 5.298 1.4.7 1.203.701 2.689.003 3.893l-7.68 13.329 32.422-18.699c1.848-1.079 4.221-.456 5.3 1.391.967 1.655.578 3.768-.914 4.971l-6.912 5.61 20.729-11.972c1.863-1.053 4.227-.396 5.279 1.467.936 1.656.531 3.746-.955 4.933l-19.8 15.499 37.94-21.899c1.857-1.064 4.224-.421 5.288 1.436.975 1.702.524 3.864-1.049 5.034l-30.679 22.675 50.525-29.145c1.851-1.073 4.222-.443 5.295 1.409 1.001 1.726.527 3.931-1.095 5.093l-46.96 33.794 69.798-40.296c1.851-1.074 4.222-.444 5.296 1.406 1.021 1.759.508 4.007-1.173 5.15l-53.726 36.77 75.098-43.326c1.858-1.062 4.225-.416 5.287 1.442 1.024 1.791.464 4.07-1.272 5.184l-11.205 7.137 23.829-13.763c1.815-1.134 4.205-.583 5.339 1.232s.583 4.205-1.232 5.339l-85.459 57.484 111-64.055c1.86-1.059 4.225-.409 5.284 1.451 1.013 1.779.467 4.039-1.247 5.16l-78.95 51.005 99.826-57.616c1.864-1.05 4.227-.39 5.278 1.474 1.012 1.797.44 4.071-1.302 5.175l-7.92 4.89 19.442-11.245c1.868-1.044 4.229-.376 5.273 1.492.991 1.773.445 4.009-1.251 5.126l-102.212 65.241 110.435-63.761c1.83-1.113 4.215-.532 5.328 1.298s.532 4.215-1.298 5.328l-106.732 67.806 104.584-60.351c1.864-1.05 4.227-.39 5.278 1.474 1.012 1.797.44 4.071-1.302 5.175l-56.221 34.872 48.193-27.835c1.836-1.1 4.216-.503 5.316 1.333s.503 4.216-1.333 5.316l-49.658 30.81 31.47-18.18c1.832-1.108 4.215-.522 5.324 1.31 1.108 1.832.522 4.215-1.31 5.324l-83.793 53.005 62.366-36.034c1.86-1.059 4.225-.409 5.284 1.451 1.013 1.779.467 4.039-1.247 5.16l-95.029 61.32 71.293-41.172c1.823-1.121 4.21-.552 5.331 1.271s.552 4.21-1.271 5.331l-87.567 57.042 63.668-36.755c1.827-1.115 4.213-.537 5.328 1.29s.537 4.213-1.29 5.328l-50.517 32.446 30.842-17.785c1.86-1.059 4.225-.409 5.284 1.45 1.013 1.779.467 4.039-1.247 5.16l-41.234 26.603 22.109-12.763c1.851-1.073 4.222-.443 5.295 1.408 1.03 1.777.495 4.048-1.219 5.179l-52.966 35.127 31.617-18.257c1.823-1.121 4.21-.552 5.331 1.271s.552 4.21-1.271 5.331l-19.373 12.624 2.015-1.162c1.848-1.079 4.221-.456 5.3 1.391 1.019 1.744.527 3.979-1.131 5.134l-56.895 40.141 31.958-18.451c1.856-1.065 4.224-.424 5.289 1.432.997 1.738.505 3.95-1.136 5.101l-30.61 21.403 10.229-5.905c1.863-1.053 4.227-.397 5.28 1.465.928 1.64.541 3.71-.917 4.905l-33.864 27.223 8.315-4.774c1.854-1.068 4.223-.43 5.291 1.424.822 1.427.651 3.218-.425 4.465l-18.753 21.698c1.023 1.847.378 4.173-1.449 5.231l-6.742 3.875c-1.859 1.061-4.225.414-5.286-1.445-.81-1.419-.642-3.194.419-4.437l10.88-12.592-31.981 18.443c-.589.358-1.267.548-1.958.55z" fill="#dadfe5"/><path d="m89.18 368.149c-2.14.005-3.878-1.726-3.883-3.866-.002-1.063.432-2.08 1.202-2.814l14.584-13.949-33.206 19.172c-1.857 1.064-4.224.421-5.288-1.436-.975-1.702-.524-3.864 1.049-5.034l21.791-16.103-27.332 15.777c-1.878 1.026-4.232.334-5.258-1.544-.933-1.708-.454-3.843 1.12-4.989l22.543-15.568-20.458 11.802c-1.884 1.015-4.234.31-5.249-1.574-.93-1.727-.423-3.876 1.18-5.005l6.881-4.541-2.813 1.62c-1.821 1.126-4.21.562-5.335-1.259-1.126-1.821-.562-4.21 1.259-5.335l25.673-17.048-21.597 12.5c-1.851 1.073-4.222.442-5.295-1.409-1.024-1.767-.501-4.025 1.196-5.162l55.059-37.072-50.959 29.447c-1.868 1.044-4.229.376-5.272-1.492-.985-1.763-.451-3.987 1.227-5.11l36.956-23.961-32.911 18.978c-1.851 1.073-4.222.443-5.295-1.409-1.03-1.776-.495-4.048 1.219-5.178l77.888-51.587-73.819 42.621c-1.882 1.019-4.233.32-5.252-1.561-.955-1.762-.408-3.962 1.261-5.072l14.817-9.299-10.849 6.246c-1.882 1.019-4.233.32-5.252-1.561-.955-1.762-.408-3.962 1.261-5.072l22.775-14.235-18.761 10.849c-1.891 1.002-4.236.281-5.238-1.61-.917-1.73-.398-3.872 1.208-4.992l93.712-60.359-89.682 51.742c-1.875 1.031-4.231.347-5.262-1.528-.967-1.758-.432-3.963 1.233-5.082l113.914-73.3-109.885 63.423c-1.854 1.069-4.223.433-5.292-1.421-1.042-1.807-.467-4.114 1.301-5.22l86.133-54.082-82.142 47.425c-1.838 1.098-4.218.498-5.316-1.341s-.498-4.218 1.341-5.316l49.549-30.679-45.573 26.309c-1.846 1.082-4.22.462-5.302-1.384-1.056-1.802-.493-4.118 1.272-5.234l119.137-76.477-115.108 66.45c-1.836 1.1-4.216.503-5.316-1.333s-.503-4.216 1.333-5.316l49.378-30.765-45.395 26.208c-1.864 1.05-4.227.39-5.278-1.474-1.012-1.797-.44-4.071 1.302-5.175l21.527-13.367-17.552 10.136c-1.85 1.076-4.222.448-5.297-1.402-1.04-1.788-.492-4.077 1.244-5.201l83.956-54.865-79.903 46.131c-1.841 1.091-4.218.483-5.309-1.358-1.052-1.776-.527-4.065 1.194-5.205l84.25-57.345-80.135 46.263c-1.868 1.044-4.229.376-5.273-1.492-.991-1.773-.445-4.009 1.251-5.126l13.546-8.687-9.524 5.494c-1.85 1.076-4.222.448-5.297-1.402-1.04-1.788-.492-4.077 1.244-5.201l17.575-11.469-13.522 7.804c-1.857 1.064-4.224.421-5.288-1.436-.975-1.702-.524-3.864 1.049-5.034l51.145-37.809-46.906 27.068c-1.841 1.091-4.218.483-5.309-1.358-1.047-1.767-.534-4.044 1.171-5.19l9.942-6.866-5.804 3.355c-1.856 1.064-4.224.422-5.289-1.434-.943-1.644-.558-3.729.91-4.928l25.27-20.536-20.921 12.061c-1.859 1.06-4.225.413-5.285-1.445-.85-1.489-.619-3.36.566-4.599l15.948-16.506-11.198 6.463c-1.854 1.068-4.223.431-5.291-1.423-.768-1.333-.674-2.995.239-4.234l4.975-6.742c-2.129-.217-3.679-2.119-3.461-4.248.126-1.236.837-2.336 1.912-2.959l12.639-7.284c1.85-1.076 4.222-.448 5.297 1.402.778 1.338.685 3.011-.237 4.255l-3.875 5.239 19.055-10.973c1.859-1.06 4.225-.413 5.285 1.445.85 1.489.619 3.36-.566 4.599l-15.948 16.49 39.033-22.535c1.858-1.061 4.225-.415 5.286 1.443.936 1.638.556 3.712-.9 4.912l-25.247 20.535 46.627-26.89c1.863-1.052 4.227-.395 5.279 1.469.978 1.733.485 3.925-1.141 5.072l-9.95 6.874 23.248-13.414c1.857-1.064 4.224-.421 5.288 1.436.975 1.702.524 3.864-1.049 5.034l-51.145 37.793 76.702-44.264c1.823-1.121 4.21-.552 5.331 1.271s.552 4.21-1.271 5.331l-17.614 11.461 31.346-18.064c1.846-1.082 4.22-.462 5.302 1.384 1.056 1.802.493 4.118-1.272 5.234l-13.499 8.625 26.456-15.243c1.865-1.049 4.228-.387 5.276 1.478.978 1.739.475 3.937-1.162 5.078l-84.265 57.345 110.714-63.9c1.85-1.076 4.222-.448 5.297 1.402 1.04 1.788.492 4.077-1.244 5.201l-83.925 54.849 106.444-61.452c1.864-1.05 4.227-.39 5.278 1.474 1.012 1.797.44 4.071-1.302 5.175l-21.605 13.406 34.748-20.055c1.874-1.032 4.231-.35 5.263 1.525.979 1.778.421 4.009-1.28 5.116l-49.386 30.741 57.833-33.392c1.827-1.115 4.213-.537 5.328 1.29s.537 4.213-1.29 5.328l-119.137 76.485 120.734-69.743c1.838-1.098 4.218-.498 5.316 1.341 1.098 1.838.498 4.218-1.341 5.316l-49.44 30.61 45.496-26.262c1.882-1.019 4.233-.32 5.252 1.561.955 1.762.408 3.962-1.262 5.072l-86.118 54.129 67.93-39.219c1.875-1.031 4.231-.347 5.262 1.528.967 1.758.432 3.963-1.233 5.082l-113.914 73.308 88.745-51.238c1.846-1.082 4.22-.462 5.302 1.384 1.056 1.802.493 4.118-1.272 5.234l-93.65 60.343 70.193-40.529c1.834-1.104 4.216-.513 5.32 1.321s.513 4.216-1.321 5.32l-22.752 14.228 5.889-3.402c1.834-1.104 4.216-.513 5.32 1.321s.513 4.216-1.321 5.32l-15.87 9.942c1.986-.796 4.242.169 5.038 2.156.687 1.716.067 3.678-1.481 4.687l-77.865 51.556 53.811-31.075c1.825-1.119 4.212-.547 5.331 1.279 1.119 1.825.547 4.212-1.279 5.331l-37.01 24.023 18.141-10.477c1.851-1.073 4.222-.442 5.295 1.41 1.024 1.767.501 4.025-1.196 5.162l-55.106 37.041 32.795-18.931c1.851-1.073 4.222-.442 5.295 1.409 1.03 1.776.495 4.048-1.219 5.178l-25.611 16.994 7.261-4.192c1.868-1.045 4.228-.377 5.273 1.49.981 1.754.458 3.967-1.205 5.097l-14.274 9.454c2.14.003 3.872 1.741 3.869 3.88-.002 1.269-.625 2.457-1.668 3.179l-22.535 15.553 3.673-2.116c1.857-1.064 4.224-.421 5.288 1.436.975 1.702.524 3.864-1.049 5.034l-21.806 16.111 1.627-.938c1.825-1.117 4.21-.543 5.327 1.283.965 1.577.681 3.617-.678 4.87l-19.474 18.598c1.952.878 2.822 3.171 1.945 5.123-.333.742-.892 1.36-1.596 1.766l-19.52 11.236c-.585.356-1.254.546-1.938.551z" fill="#c3c9d1"/><path d="m120.224 399.146c-2.14 0-3.875-1.735-3.875-3.875 0-1.22.574-2.368 1.55-3.1l12.895-9.849-22.132 12.779c-1.846 1.083-4.22.465-5.303-1.38-1.02-1.738-.537-3.968 1.11-5.129l25.278-18.064-26.533 15.32c-1.868 1.044-4.229.376-5.272-1.493-.962-1.722-.477-3.892 1.127-5.04l37.375-26.007-33.903 19.567c-1.851 1.074-4.222.445-5.296-1.406-1.021-1.759-.508-4.007 1.173-5.15l46.697-31.896-42.574 24.581c-1.86 1.058-4.226.408-5.284-1.452-1.001-1.76-.478-3.994 1.2-5.127l46.953-31.26-42.869 24.736c-1.825 1.117-4.211.543-5.328-1.283-1.117-1.825-.543-4.211 1.283-5.328l37.196-24.092-33.151 19.125c-1.881 1.02-4.233.321-5.253-1.56-.95-1.753-.414-3.942 1.239-5.057l23.248-14.77-19.226 11.089c-1.892 1-4.236.276-5.236-1.616-.918-1.738-.39-3.888 1.23-5.002l35.36-22.473-31.354 18.102c-1.874 1.032-4.231.35-5.263-1.525-.963-1.749-.439-3.944 1.21-5.07l90.721-59.158-86.683 50.029c-1.885 1.012-4.234.304-5.246-1.581-.931-1.734-.414-3.89 1.201-5.013l107.521-69.829-103.476 59.739c-1.86 1.059-4.225.409-5.284-1.451-1.013-1.779-.467-4.039 1.247-5.16l126.638-81.956-122.601 70.766c-1.874 1.032-4.231.35-5.263-1.525-.979-1.777-.421-4.009 1.28-5.116l76.625-47.921-72.642 41.939c-1.882 1.019-4.233.32-5.252-1.561-.955-1.762-.408-3.962 1.262-5.072l79.097-49.557-75.106 43.396c-1.854 1.069-4.223.433-5.292-1.421-1.042-1.807-.467-4.114 1.301-5.22l81.088-50.959-77.097 44.504c-1.846 1.082-4.22.462-5.302-1.384-1.056-1.802-.493-4.118 1.272-5.234l98.594-63.42-94.541 54.594c-1.864 1.05-4.227.39-5.278-1.474-1.012-1.797-.44-4.071 1.302-5.175l16.483-10.245-12.507 7.215c-1.868 1.045-4.228.377-5.273-1.49-.981-1.754-.458-3.967 1.205-5.097l83.382-55.159-79.337 45.806c-1.86 1.058-4.226.408-5.284-1.452-1.001-1.76-.478-3.994 1.2-5.127l65.745-43.938-61.661 35.6c-1.868 1.045-4.228.377-5.273-1.49-.981-1.754-.458-3.967 1.205-5.097l36.91-24.41-32.841 18.955c-1.853 1.07-4.223.436-5.293-1.417-.989-1.711-.531-3.892 1.062-5.062l55.826-41.04-51.595 29.788c-1.828 1.113-4.212.533-5.324-1.295-1.077-1.77-.572-4.073 1.147-5.23l23.403-16.56-19.226 11.12c-1.866 1.047-4.228.383-5.275-1.483-.941-1.677-.51-3.791 1.013-4.965l19.536-14.724-15.274 8.819c-1.825 1.117-4.21.543-5.327-1.282-.965-1.577-.681-3.617.678-4.87l19.303-18.536-14.685 8.478c-1.855 1.067-4.224.428-5.29-1.427-.706-1.227-.686-2.742.052-3.951l6.974-11.422c-1.98.812-4.243-.134-5.055-2.114-.746-1.819-.012-3.908 1.708-4.861l12.655-7.253c1.851-1.073 4.222-.443 5.295 1.408.714 1.232.695 2.756-.049 3.97l-6.974 11.345 29.176-16.8c1.825-1.117 4.21-.543 5.327 1.282.965 1.577.681 3.617-.678 4.87l-19.303 18.536 42.729-24.689c1.857-1.064 4.224-.421 5.288 1.436.968 1.689.532 3.834-1.018 5.012l-19.551 14.724 36.662-21.171c1.854-1.069 4.223-.433 5.292 1.421.999 1.732.516 3.939-1.115 5.096l-23.38 16.552 39.94-23.07c1.853-1.07 4.223-.436 5.293 1.417.989 1.711.531 3.892-1.062 5.062l-55.795 41.009 82.243-47.487c1.868-1.045 4.228-.377 5.273 1.49.981 1.754.458 3.967-1.205 5.097l-36.917 24.41 53.71-30.997c1.84-1.093 4.217-.487 5.31 1.352 1.061 1.787.524 4.093-1.218 5.227l-65.752 43.938 87.497-50.517c1.851-1.073 4.222-.443 5.295 1.408 1.03 1.777.495 4.048-1.219 5.179l-83.413 55.136 106.955-61.723c1.864-1.05 4.227-.39 5.278 1.474 1.012 1.797.44 4.071-1.302 5.175l-16.374 10.183 29.16-16.831c1.875-1.031 4.231-.347 5.262 1.528.967 1.758.432 3.963-1.233 5.082l-98.664 63.428 116.495-67.264c1.834-1.104 4.216-.513 5.32 1.321s.513 4.216-1.321 5.32l-81.073 50.967 83.165-48.045c1.834-1.104 4.216-.513 5.32 1.321s.513 4.216-1.321 5.32l-79.042 49.51 75.881-43.807c1.874-1.032 4.231-.35 5.263 1.525.979 1.778.421 4.009-1.28 5.116l-76.663 47.945 64.094-37.01c1.825-1.117 4.211-.543 5.328 1.283 1.117 1.825.543 4.211-1.283 5.328l-126.631 81.979 99.779-57.6c1.868-1.044 4.229-.375 5.272 1.493.985 1.763.451 3.986-1.227 5.11l-107.521 69.821 82.08-47.379c1.85-1.076 4.222-.448 5.297 1.402 1.04 1.788.492 4.077-1.244 5.2l-90.721 59.142 66.512-38.398c1.83-1.111 4.213-.528 5.324 1.302s.528 4.213-1.302 5.324l-35.275 22.403 17.196-9.927c1.83-1.111 4.213-.528 5.324 1.302s.528 4.213-1.302 5.324l-23.294 14.817 6.075-3.51c1.868-1.044 4.229-.375 5.272 1.493.985 1.763.451 3.986-1.227 5.11l-37.196 24.116 18.288-10.555c1.86-1.058 4.226-.408 5.284 1.452 1.001 1.76.478 3.994-1.2 5.127l-46.922 31.237 26.069-15.049c1.851-1.074 4.222-.445 5.296 1.406 1.021 1.759.508 4.007-1.173 5.15l-46.658 31.873 24.798-14.297c1.881-1.02 4.233-.321 5.253 1.561.921 1.699.449 3.817-1.107 4.964l-37.421 26.053 16.149-9.299c1.846-1.083 4.22-.465 5.303 1.381 1.02 1.738.537 3.968-1.11 5.129l-25.255 18.04 5.176-2.983c1.853-1.07 4.223-.436 5.293 1.417.974 1.686.546 3.832-1 5.015l-16.684 12.732c2.138.087 3.801 1.891 3.713 4.029-.036.891-.379 1.742-.97 2.41l-16.273 18.49c.959 1.839.3 4.107-1.496 5.146l-6.742 3.875c-1.856 1.064-4.224.422-5.289-1.434-.823-1.435-.644-3.234.445-4.479l7.928-8.997-25.914 14.886c-.591.349-1.26.539-1.943.545z" fill="#dadfe5"/><path d="m189.487 430.136c-2.14 0-3.874-1.736-3.874-3.875 0-.927.333-1.823.937-2.525l12.027-13.949-34.352 19.807c-1.853 1.07-4.223.434-5.293-1.419-.98-1.698-.537-3.86 1.031-5.036l17.172-12.848-23.968 13.832c-1.869 1.041-4.229.37-5.27-1.5-.951-1.707-.482-3.854 1.093-5.01l28.099-19.885-28.052 16.18c-1.856 1.065-4.224.424-5.289-1.432-.985-1.716-.519-3.898 1.081-5.062l61.777-44.605-57.569 33.237c-1.884 1.015-4.234.311-5.249-1.573-.919-1.705-.438-3.826 1.126-4.968l60.529-41.49-56.407 32.547c-1.881 1.02-4.233.321-5.253-1.56-.95-1.753-.414-3.942 1.239-5.057l5.091-3.247-1.077.62c-1.86 1.058-4.226.407-5.283-1.453-1.006-1.769-.472-4.015 1.223-5.141l58.042-38.049-53.981 31.183c-1.868 1.045-4.228.377-5.273-1.49-.981-1.754-.458-3.967 1.205-5.096l84.134-55.508-80.073 46.263c-1.86 1.059-4.225.409-5.284-1.45-1.013-1.779-.467-4.039 1.247-5.16l78.818-50.827-74.78 43.163c-1.83 1.111-4.213.528-5.324-1.302s-.528-4.213 1.302-5.324l82.917-52.966-78.926 45.566c-1.887 1.009-4.235.296-5.244-1.591-.935-1.749-.398-3.923 1.245-5.035l74.594-46.976-70.596 40.753c-1.898.988-4.238.251-5.226-1.647-.908-1.743-.367-3.889 1.259-4.994l40.939-25.325-36.972 21.341c-1.882 1.019-4.233.32-5.252-1.561-.955-1.762-.408-3.962 1.261-5.072l83.622-52.447-79.6 45.938c-1.875 1.031-4.231.347-5.262-1.528-.972-1.767-.426-3.984 1.256-5.097l102.352-64.846-98.346 56.74c-1.888 1.008-4.235.295-5.243-1.592-.939-1.758-.391-3.943 1.268-5.049l39.01-24.162-35.042 20.226c-1.86 1.059-4.225.409-5.284-1.45-1.013-1.779-.467-4.039 1.247-5.16l97.106-62.699-93.069 53.733c-1.86 1.059-4.225.409-5.284-1.45-1.013-1.779-.467-4.039 1.247-5.16l72.161-46.558-68.124 39.335c-1.85 1.076-4.222.448-5.297-1.402-1.04-1.788-.492-4.077 1.244-5.201l63.35-41.428-59.3 34.237c-1.851 1.073-4.222.443-5.295-1.408-1.03-1.777-.495-4.048 1.219-5.179l53.47-35.515-49.386 28.525c-1.84 1.093-4.217.487-5.31-1.353-1.045-1.759-.542-4.027 1.148-5.179l56.407-39.521-52.246 30.16c-1.853 1.07-4.223.434-5.293-1.419-.98-1.698-.537-3.86 1.031-5.036l47.921-35.988-43.659 25.208c-1.86 1.058-4.226.407-5.283-1.453-.963-1.693-.519-3.838 1.037-5.009l23.124-17.157-18.877 10.895c-1.85 1.076-4.221.449-5.298-1.4-.993-1.707-.544-3.887 1.043-5.063l6.626-4.936-2.371 1.372c-1.849 1.076-4.221.45-5.298-1.4-.851-1.463-.655-3.309.485-4.559l14.724-16.273-9.919 5.719c-1.858 1.062-4.225.416-5.286-1.442-.798-1.397-.65-3.143.373-4.385l3.813-4.603c-.806-.319-1.478-.905-1.906-1.658-1.071-1.851-.44-4.22 1.41-5.293l12.608-7.284c1.849-1.077 4.221-.45 5.298 1.399.821 1.411.67 3.184-.377 4.436l-1.1 1.317 12.569-7.253c1.849-1.077 4.221-.452 5.298 1.397.851 1.46.657 3.303-.478 4.554l-14.724 16.273 38.467-22.163c1.85-1.076 4.221-.449 5.298 1.4.993 1.707.544 3.887-1.043 5.063l-6.633 4.929 19.745-11.391c1.86-1.058 4.226-.407 5.283 1.453.963 1.693.519 3.837-1.037 5.009l-23.124 17.165 40.963-23.627c1.853-1.07 4.223-.434 5.293 1.419.98 1.698.537 3.86-1.031 5.036l-47.914 35.98 73.502-42.435c1.84-1.093 4.217-.487 5.31 1.353 1.044 1.759.542 4.027-1.148 5.179l-56.399 39.521 79.701-46.054c1.819-1.128 4.208-.567 5.335 1.252s.567 4.208-1.251 5.335l-53.516 35.53 72.952-42.117c1.823-1.121 4.21-.552 5.331 1.271s.552 4.21-1.271 5.331l-63.358 41.397 83.188-48.045c1.825-1.117 4.211-.543 5.328 1.283 1.117 1.825.543 4.211-1.283 5.328l-72.138 46.542 92.077-53.106c1.825-1.117 4.211-.543 5.328 1.283 1.117 1.825.543 4.211-1.283 5.328l-97.16 62.769 117.789-68.015c1.864-1.05 4.227-.39 5.278 1.474 1.012 1.797.44 4.071-1.302 5.175l-38.917 24.1 42.946-24.798c1.832-1.108 4.215-.522 5.324 1.31 1.108 1.832.522 4.215-1.31 5.324l-102.352 64.807 100.74-58.119c1.854-1.069 4.223-.433 5.292 1.421 1.042 1.807.467 4.114-1.301 5.22l-83.692 52.493 75.749-43.729c1.864-1.05 4.227-.39 5.278 1.474 1.012 1.797.44 4.071-1.302 5.175l-40.839 25.247 23.248-13.422c1.834-1.106 4.217-.517 5.324 1.317s.516 4.217-1.317 5.324l-74.571 46.953 54.105-31.237c1.846-1.082 4.22-.462 5.302 1.384 1.056 1.802.493 4.118-1.272 5.234l-83.018 52.966 60.987-35.213c1.827-1.115 4.213-.537 5.328 1.29s.537 4.213-1.29 5.328l-78.826 50.827 56.5-32.617c1.821-1.126 4.21-.562 5.335 1.259 1.126 1.821.562 4.21-1.259 5.335l-84.118 55.485 59.708-34.469c1.868-1.045 4.228-.377 5.273 1.49.981 1.754.458 3.967-1.205 5.097l-57.972 38.01 36.631-21.163c1.858-1.062 4.225-.416 5.287 1.441 1.024 1.791.464 4.07-1.272 5.184l-14.042 8.943c1.357.016 2.623.689 3.394 1.806 1.11 1.761.631 4.084-1.085 5.262l-60.545 41.49 36.592-21.117c1.856-1.065 4.224-.424 5.289 1.432.985 1.716.519 3.898-1.081 5.062l-61.762 44.605 34.686-20.024c1.869-1.041 4.229-.37 5.27 1.5.951 1.707.482 3.854-1.093 5.01l-28.114 19.908 7.804-4.502c1.863-1.052 4.227-.395 5.279 1.469.951 1.685.514 3.813-1.025 4.986l-18.327 13.716c2.09-.46 4.157.861 4.617 2.951.263 1.193-.053 2.44-.851 3.365l-19.722 22.922c1.052 1.852.411 4.205-1.434 5.27l-6.742 3.875c-.588.347-1.258.534-1.94.538z" fill="#c3c9d1"/><path d="m225.59 461.141c-2.14 0-3.875-1.735-3.875-3.875 0-1.336.688-2.578 1.821-3.286l50.928-31.935-65.799 37.971c-1.881 1.02-4.233.321-5.253-1.56-.95-1.753-.414-3.942 1.239-5.057l92.216-58.453-99.439 57.399c-1.888 1.008-4.235.295-5.243-1.592-.939-1.758-.391-3.943 1.268-5.049l56.949-35.383-54.873 31.671c-1.858 1.062-4.225.416-5.287-1.442-1.024-1.791-.464-4.07 1.272-5.184l112.848-71.866-108.831 62.831c-1.887 1.009-4.235.297-5.244-1.591-.945-1.768-.385-3.966 1.291-5.066l8.354-5.115-4.402 2.534c-1.875 1.031-4.231.347-5.262-1.528-.972-1.767-.426-3.984 1.256-5.097l103.677-65.683-99.671 57.546c-1.881 1.02-4.233.322-5.253-1.559-.961-1.773-.402-3.986 1.285-5.09l44.047-27.231-40.079 23.17c-1.882 1.019-4.233.32-5.252-1.561-.955-1.762-.408-3.962 1.261-5.072l85.242-53.47-81.259 46.837c-1.874 1.032-4.231.35-5.263-1.525-.979-1.777-.421-4.009 1.28-5.116l67.597-42.086-63.614 36.724c-1.888 1.008-4.235.295-5.243-1.592-.939-1.758-.391-3.943 1.268-5.049l48.882-30.269-44.946 25.921c-1.881 1.02-4.233.322-5.253-1.559-.961-1.773-.402-3.986 1.285-5.09l43.117-26.642-39.149 22.597c-1.858 1.062-4.225.416-5.287-1.442-1.024-1.791-.464-4.07 1.272-5.184l114.774-73.192-110.719 63.909c-1.867 1.046-4.228.381-5.274-1.486-.999-1.784-.441-4.037 1.275-5.147l92.503-58.243-88.504 51.075c-1.882 1.019-4.233.32-5.252-1.562-.955-1.762-.408-3.962 1.261-5.072l77.376-48.402-73.386 42.365c-1.868 1.044-4.229.376-5.273-1.492-.991-1.772-.445-4.009 1.251-5.126l114.224-73.13-110.202 63.606c-1.868 1.044-4.229.376-5.273-1.492-.991-1.772-.445-4.009 1.251-5.126l95.494-61.281-91.441 52.811c-1.888 1.008-4.235.295-5.243-1.592-.939-1.758-.391-3.943 1.268-5.049l16.816-10.461-12.841 7.408c-1.874 1.032-4.231.35-5.263-1.525-.964-1.749-.439-3.945 1.21-5.07l74.393-48.572-70.332 40.606c-1.85 1.076-4.222.448-5.297-1.402-1.04-1.788-.492-4.077 1.244-5.201l53.966-35.337-49.952 28.843c-1.836 1.099-4.215.502-5.315-1.334-1.079-1.802-.526-4.135 1.246-5.261l39.033-25.712-34.965 20.148c-1.86 1.058-4.226.408-5.284-1.452-.971-1.706-.512-3.869 1.068-5.034l58.507-42.505-54.291 31.377c-1.861 1.056-4.226.404-5.282-1.457-.944-1.663-.534-3.766.966-4.952l43.667-34.097-39.351 22.721c-1.856 1.065-4.224.424-5.289-1.432-.985-1.716-.519-3.898 1.081-5.062l8.811-6.378-4.603 2.658c-1.857 1.064-4.224.422-5.288-1.435-.931-1.624-.567-3.681.863-4.888l13.949-11.686-9.547 5.51c-1.88 1.022-4.233.325-5.254-1.555-.833-1.534-.538-3.435.721-4.644l3.875-3.503c-2.017.715-4.232-.34-4.947-2.357-.461-1.299-.197-2.744.693-3.796l3.689-4.378c-.755-.331-1.382-.896-1.79-1.612-1.071-1.851-.44-4.22 1.41-5.293l12.608-7.284c1.851-1.074 4.222-.444 5.296 1.407.821 1.415.665 3.194-.391 4.444l-.705.837 11.794-6.781c1.88-1.022 4.233-.325 5.254 1.555.833 1.534.538 3.435-.721 4.644l-3.65 3.293 16.475-9.493c1.857-1.064 4.224-.422 5.288 1.435.931 1.624.567 3.681-.863 4.888l-13.949 11.686 31.222-18.009c1.856-1.065 4.224-.424 5.289 1.432.985 1.716.519 3.898-1.081 5.062l-8.826 6.385 22.287-12.879c1.852-1.072 4.222-.44 5.295 1.411.97 1.674.555 3.807-.971 4.997l-43.69 34.05 70.139-40.459c1.86-1.058 4.226-.408 5.284 1.452.971 1.706.512 3.869-1.068 5.034l-58.507 42.497 84.893-48.983c1.836-1.1 4.215-.503 5.315 1.333 1.079 1.802.526 4.135-1.247 5.261l-39.033 25.704 55.888-32.299c1.823-1.121 4.21-.552 5.331 1.271s.552 4.21-1.271 5.331l-54.005 35.344 72.68-41.947c1.85-1.076 4.222-.448 5.297 1.402 1.039 1.788.492 4.077-1.244 5.2l-74.393 48.565 95.572-55.167c1.864-1.05 4.227-.39 5.278 1.474 1.012 1.797.44 4.071-1.302 5.175l-16.762 10.4 29.579-17.048c1.868-1.044 4.229-.376 5.273 1.492.991 1.773.445 4.009-1.251 5.126l-95.541 61.273 112.953-65.218c1.846-1.082 4.22-.462 5.302 1.384 1.056 1.802.493 4.118-1.272 5.234l-114.201 73.13 117.014-67.558c1.834-1.104 4.216-.513 5.32 1.321s.513 4.216-1.321 5.32l-77.384 48.402 73.486-42.427c1.867-1.046 4.228-.381 5.274 1.486.999 1.784.441 4.037-1.276 5.147l-92.425 58.22 88.435-51.06c1.858-1.062 4.225-.416 5.287 1.441 1.024 1.791.464 4.07-1.272 5.184l-114.774 73.2 110.76-63.955c1.838-1.096 4.216-.494 5.312 1.344s.494 4.216-1.344 5.312l-43.117 26.65 39.149-22.605c1.864-1.05 4.227-.39 5.278 1.474 1.012 1.797.44 4.071-1.302 5.175l-48.968 30.315 45-25.976c1.874-1.032 4.231-.35 5.263 1.525.979 1.778.421 4.009-1.28 5.116l-67.597 42.125 63.614-36.724c1.882-1.019 4.233-.32 5.252 1.561.955 1.762.408 3.962-1.262 5.072l-85.157 53.47 81.166-46.86c1.881-1.02 4.233-.322 5.253 1.559.961 1.773.402 3.986-1.285 5.09l-44.047 27.231 40.079-23.132c1.875-1.031 4.231-.347 5.262 1.528.972 1.767.426 3.984-1.256 5.097l-103.677 65.667 99.671-57.546c1.859-1.059 4.225-.411 5.285 1.448 1.034 1.814.444 4.12-1.333 5.216l-8.524 5.238 4.603-2.65c1.881-1.02 4.233-.321 5.253 1.56.95 1.753.414 3.942-1.239 5.058l-112.798 71.828 108.753-62.769c1.888-1.008 4.235-.295 5.243 1.592.939 1.758.391 3.943-1.268 5.049l-56.965 35.391 52.989-30.586c1.892-1 4.236-.276 5.236 1.616.918 1.738.39 3.888-1.23 5.002l-92.216 58.468 88.187-50.913c1.882-1.019 4.233-.32 5.252 1.561.955 1.762.408 3.962-1.262 5.072l-50.99 31.966 47.023-27.122c1.86-1.059 4.225-.409 5.284 1.451 1.013 1.779.467 4.039-1.247 5.16l-77.733 50.269 73.695-42.543c1.874-1.032 4.231-.35 5.263 1.525.963 1.749.439 3.944-1.21 5.07l-63.335 41.319 59.282-34.221c1.868-1.044 4.229-.376 5.273 1.492.991 1.773.445 4.009-1.251 5.126l-24.594 15.786 20.574-11.872c1.87-1.04 4.229-.367 5.269 1.503.961 1.728.467 3.903-1.147 5.045l-54.578 37.313 50.455-29.129c1.851-1.073 4.222-.442 5.295 1.409 1.024 1.767.501 4.025-1.196 5.162l-24.65 16.552 20.551-11.856c1.86-1.058 4.226-.407 5.283 1.453.963 1.693.519 3.837-1.037 5.009l-38.746 28.796 34.507-19.916c1.865-1.049 4.228-.388 5.277 1.478.928 1.649.528 3.728-.945 4.916l-25.487 20.063 21.155-12.205c1.862-1.054 4.227-.398 5.28 1.464.947 1.673.523 3.788-.995 4.968l-3.875 2.952c1.962-.855 4.245.043 5.1 2.005.592 1.359.357 2.936-.605 4.063l-10.709 12.717 5.51-3.177c1.896-.992 4.237-.259 5.229 1.637.933 1.784.345 3.986-1.355 5.066l-24.619 14.189c-1.851 1.074-4.222.444-5.296-1.407-.821-1.415-.665-3.194.391-4.444l10.702-12.709-32.198 18.559c-1.862 1.054-4.227.398-5.28-1.464-.947-1.673-.523-3.788.995-4.968l3.658-2.797-15.971 9.229c-1.857 1.064-4.224.421-5.288-1.436-.951-1.66-.548-3.766.949-4.957l25.487-20.063-45.829 26.456c-1.87 1.041-4.229.369-5.27-1.5-.936-1.681-.497-3.794 1.031-4.963l38.746-28.804-61.08 35.267c-1.859 1.06-4.225.411-5.285-1.448-.998-1.752-.486-3.977 1.178-5.116l24.689-16.537-40.102 23.101c-1.87 1.04-4.229.367-5.269-1.503-.961-1.728-.467-3.903 1.147-5.045l54.594-37.32-75.997 43.869c-1.887 1.01-4.235.299-5.245-1.587-.932-1.741-.405-3.905 1.223-5.023l24.511-15.723-38.692 22.333c-1.86 1.058-4.226.407-5.283-1.453-1.006-1.769-.472-4.014 1.223-5.141l63.373-41.35-83.049 47.945c-1.881 1.021-4.233.324-5.254-1.557-.947-1.745-.422-3.924 1.216-5.045l77.779-50.324-98.617 56.926c-.586.349-1.255.539-1.938.549z" fill="#dadfe5"/><path d="m301.239 213.164c-2.14.003-3.877-1.729-3.881-3.869-.002-1.245.594-2.415 1.602-3.145l3.262-2.325-15.344 8.788c-1.852 1.072-4.223.439-5.294-1.413-.923-1.595-.595-3.618.784-4.84l23.395-20.807-46.868 27.06c-1.863 1.052-4.227.395-5.279-1.468-.878-1.555-.58-3.509.723-4.731l24.154-22.124-43.001 24.798c-1.838 1.096-4.216.494-5.312-1.345-.993-1.667-.601-3.811.918-5.018l14.879-12.135-11.709 6.757c-1.853 1.07-4.223.435-5.293-1.418-.918-1.59-.594-3.606.775-4.828l6.471-5.781-1.953 1.124c-1.86 1.059-4.225.41-5.284-1.45-.623-1.095-.676-2.424-.14-3.564l4.409-9.299c-2.136.137-3.978-1.483-4.115-3.619-.094-1.47.653-2.867 1.93-3.604l8.741-5.045c1.86-1.059 4.225-.41 5.284 1.45.623 1.095.676 2.424.14 3.564l-4.099 8.671 23.713-13.685c1.891-1.002 4.236-.282 5.238 1.608.806 1.52.513 3.39-.72 4.591l-6.471 5.789 20.83-11.934c1.85-1.076 4.221-.448 5.297 1.402.959 1.648.575 3.749-.903 4.953l-14.871 12.135 32.02-18.49c1.863-1.052 4.227-.395 5.279 1.468.878 1.555.58 3.509-.723 4.731l-24.154 22.132 49.099-28.331c1.852-1.072 4.223-.439 5.294 1.413.923 1.595.595 3.618-.784 4.84l-23.387 20.807 46.86-27.06c1.843-1.087 4.219-.475 5.306 1.368 1.022 1.733.549 3.959-1.09 5.126l-3.262 2.325 15.344-8.857c1.842-1.09 4.218-.48 5.308 1.362 1.013 1.712.565 3.914-1.038 5.093l-10.353 7.796 24.674-14.212c1.854-1.068 4.223-.43 5.291 1.425.95 1.651.56 3.747-.921 4.945l-18.017 14.429 30.424-17.568c1.857-1.064 4.224-.422 5.288 1.435.931 1.624.567 3.681-.863 4.888l-16.731 13.949 13.786-7.958c1.855-1.067 4.223-.429 5.291 1.425.799 1.389.661 3.126-.347 4.371l-11.5 14.212 6.556-3.782c1.86-1.057 4.226-.407 5.283 1.454 1.047 1.843.42 4.185-1.409 5.257l-24.612 14.212c-1.854 1.069-4.223.433-5.292-1.421-.8-1.386-.664-3.122.34-4.368l11.515-14.228-34.678 20.016c-1.855 1.067-4.224.427-5.29-1.428-.937-1.63-.569-3.697.873-4.903l16.715-13.918-35.12 20.249c-1.854 1.068-4.223.43-5.291-1.425-.95-1.651-.56-3.747.921-4.945l17.978-14.445-36.065 20.815c-1.853 1.07-4.223.434-5.293-1.419-.98-1.698-.537-3.86 1.03-5.036l10.361-7.804-24.689 14.259c-.584.354-1.252.544-1.935.553z" fill="#ec3a48"/><path d="m245.281 321.654c-2.14.007-3.88-1.723-3.887-3.862-.004-1.256.601-2.436 1.624-3.166l1.286-.922-8.067 4.65c-1.869 1.042-4.229.371-5.271-1.498-.921-1.652-.514-3.728.962-4.911l10.988-8.524-8.648 4.991c-1.865 1.049-4.228.387-5.276-1.479-.799-1.421-.623-3.19.441-4.426l13.732-15.622-8.896 5.138c-1.857 1.064-4.224.421-5.288-1.436-.673-1.175-.684-2.617-.028-3.803l3.417-6.199c-2.113-.34-3.55-2.328-3.21-4.441.185-1.153.881-2.16 1.893-2.743l8.741-5.037c1.853-1.07 4.223-.435 5.293 1.418.681 1.18.693 2.63.031 3.821l-2.596 4.65 17.172-9.842c1.861-1.057 4.226-.406 5.283 1.455.81 1.427.634 3.209-.44 4.45l-13.724 15.607 37.289-21.512c1.869-1.042 4.229-.371 5.271 1.498.921 1.652.514 3.728-.962 4.911l-11.004 8.524 25.914-14.933c1.851-1.073 4.222-.443 5.295 1.408 1.001 1.726.527 3.931-1.095 5.093l-1.294.922 12.872-7.424c1.859-1.06 4.225-.413 5.285 1.446.943 1.653.545 3.747-.938 4.939l-16.901 13.414 34.314-19.799c1.86-1.058 4.226-.407 5.283 1.453.963 1.693.519 3.837-1.037 5.009l-8.16 6.068 21.698-12.531c1.866-1.047 4.228-.384 5.275 1.483.941 1.677.51 3.791-1.013 4.965l-10.074 7.587 24.302-14.034c1.857-1.064 4.224-.421 5.288 1.436.968 1.689.532 3.834-1.018 5.012l-10.787 8.137 25.278-14.584c1.859-1.061 4.225-.414 5.286 1.445.953 1.67.537 3.787-.977 4.972l-13.724 10.585 23.906-13.801c1.825-1.117 4.21-.543 5.327 1.283.965 1.577.681 3.617-.678 4.87l-21.489 20.52 18.412-10.632c1.857-1.063 4.225-.419 5.287 1.438.691 1.208.682 2.694-.026 3.893l-8.33 14.057 3.1-1.767c1.896-.992 4.237-.259 5.229 1.637.933 1.784.345 3.986-1.355 5.066l-15.956 9.129c-1.856 1.066-4.224.425-5.289-1.431-.693-1.207-.685-2.693.02-3.893l8.33-14.049-33.578 19.373c-1.859 1.06-4.225.412-5.285-1.447-.877-1.538-.599-3.475.674-4.706l21.504-20.528-46.232 26.681c-1.867 1.046-4.228.38-5.274-1.488-.929-1.659-.517-3.747.973-4.929l13.716-10.578-29.447 16.994c-1.866 1.047-4.228.384-5.275-1.483-.941-1.677-.51-3.791 1.013-4.965l10.787-8.137-25.286 14.584c-1.866 1.047-4.228.384-5.275-1.483-.941-1.677-.51-3.791 1.013-4.965l10.074-7.587-24.294 14.034c-1.86 1.058-4.226.407-5.283-1.453-.963-1.693-.519-3.837 1.037-5.009l8.16-6.068-21.698 12.531c-1.859 1.06-4.225.413-5.285-1.446-.943-1.653-.545-3.747.938-4.939l16.901-13.422-34.321 19.807c-.585.354-1.257.544-1.943.55z" fill="#faa116"/><path d="m265.429 430.143c-2.14-.021-3.857-1.773-3.836-3.913.012-1.206.585-2.338 1.55-3.061l4.371-3.185-16.754 9.609c-1.861 1.056-4.226.402-5.282-1.459-.909-1.603-.563-3.623.826-4.833l21.985-18.838-33.531 19.373c-1.867 1.045-4.228.379-5.274-1.488-.895-1.599-.547-3.607.833-4.812l14.77-12.554-10.849 6.199c-1.85 1.075-4.222.446-5.296-1.405-.912-1.57-.611-3.564.724-4.795l4.572-4.231c-1.856 1.066-4.224.426-5.29-1.43-.671-1.169-.687-2.602-.042-3.786l3.534-6.478c-2.121-.284-3.61-2.233-3.327-4.354.16-1.193.865-2.245 1.909-2.845l8.741-5.037c1.852-1.072 4.222-.44 5.295 1.412.679 1.173.696 2.615.045 3.803l-2.782 5.099 17.823-10.307c1.85-1.075 4.222-.446 5.296 1.405.912 1.57.611 3.564-.724 4.795l-4.564 4.239 18.141-10.368c1.867-1.045 4.228-.379 5.274 1.488.895 1.599.548 3.607-.833 4.812l-14.77 12.554 32.663-18.854c1.861-1.056 4.226-.402 5.282 1.459.909 1.602.563 3.623-.826 4.833l-21.992 18.815 43.559-25.108c1.848-1.078 4.221-.454 5.299 1.394 1.004 1.721.539 3.924-1.076 5.092l-4.371 3.185 16.738-9.671c1.858-1.061 4.225-.415 5.286 1.444.908 1.591.578 3.601-.791 4.818l-22.977 20.148 45.798-26.44c1.856-1.065 4.224-.424 5.289 1.432.985 1.716.519 3.898-1.081 5.062l-2.774 2.007 14.724-8.524c1.861-1.056 4.226-.404 5.282 1.457.944 1.663.534 3.766-.966 4.952l-14.724 11.461 30.997-17.87c1.875-1.031 4.231-.348 5.262 1.527.848 1.541.552 3.459-.721 4.672l-24.069 21.977 28.184-16.273c1.858-1.062 4.225-.416 5.286 1.442.798 1.397.65 3.143-.373 4.385l-14.499 17.506 9.594-5.533c1.857-1.063 4.225-.418 5.287 1.439.68 1.188.682 2.647.006 3.838l-3.208 5.587c1.07.228 1.993.898 2.542 1.844 1.073 1.851.442 4.222-1.409 5.295-.003.002-.006.003-.009.005l-8.702 5.014c-1.852 1.073-4.222.441-5.295-1.411-.694-1.198-.696-2.674-.006-3.874l2.201-3.836-15.839 9.144c-1.853 1.07-4.223.434-5.293-1.419-.81-1.403-.661-3.161.372-4.409l14.499-17.49-40.412 23.318c-1.869 1.042-4.229.371-5.271-1.498-.863-1.548-.565-3.484.722-4.701l24.069-21.977-48.82 28.184c-1.861 1.056-4.226.404-5.282-1.457-.944-1.663-.534-3.766.966-4.952l14.724-11.461-30.958 17.862c-1.856 1.065-4.224.424-5.289-1.432-.985-1.716-.519-3.898 1.081-5.062l2.782-2.007-14.724 8.524c-1.858 1.061-4.225.415-5.286-1.444-.908-1.591-.578-3.601.791-4.818l22.977-20.148-45.814 26.386c-.587.356-1.256.546-1.94.552z" fill="#31b791"/><g fill="#262626"><path d="m453.69 131.642c-7.377-4.65-21.698-2.433-29.501-2.433h-8.253c-.077-18.769-1.899-27.339-21.481-30.315-8.29-1.138-16.657-1.607-25.022-1.403-.108-17.909-1.899-27.223-21.031-30.579-8.425-1.319-16.957-1.838-25.48-1.55-.178-17.172-2.271-26.154-21-29.447-8.408-1.312-16.92-1.83-25.425-1.55-.109-15.646-1.511-26.332-19.931-30.028-18.249-3.696-40.901 0-59.437 0-55.516 0-113.976-5.424-169.244 0-34.772 3.41-26.163 37.739-26.163 64.303v193.329c0 17.273-3.875 39.521 0 56.446 5.099 22.473 25.852 19.559 44.829 18.9.179 4.219.752 8.411 1.713 12.523 5.424 21.744 26.092 18.536 44.736 17.823.16 4.438.749 8.849 1.759 13.174 5.424 21.853 26.216 18.598 44.946 17.885.212 4.055.73 8.089 1.55 12.066 4.905 22.116 25.123 18.598 43.969 17.924.501 4.981 1.345 9.921 2.526 14.786 8.005 31.338 85.8 16.808 108.164 16.808h143.137c.124 0 .279-.054.411-.062.849-.022 1.692-.147 2.511-.372 30.013-8.121 20.474-45.124 20.474-69.829v-167.678c0-18.947 11.236-78.19-8.757-90.721zm-440.654 170.042v-81.964c0-59.793-6.199-123.213 0-182.728 1.713-16.374 1.279-21.899 19.094-25.263 26.526-5.006 58.662 0 85.645 0h100.655c23.023 0 44.458-5.2 46.558 23.132-9.694.465-19.311 1.116-28.192 1.116-53.082 0-111.202-6.912-163.866 0-32.841 4.309-24.666 36.499-24.666 61.824v192.957c0 11.624-1.806 25.72-1.899 38.979-19.613-.512-33.329-3.937-33.329-28.053zm46.449 33.578c-.116-1.007-.17-2.038-.279-3.053.145-.434.103-.908-.116-1.31-2.247-24.069.395-49.843.395-73.858v-188.246c0-20.009 4.068-24.023 22.798-26.712 28.424-4.107 60.793 0 89.504 0h94.913c2.066.925 4.428.925 6.494 0 21.295-.101 36.367-.705 38.32 23.713-9.71.465-19.373 1.124-28.238 1.124-53.075 0-111.21-6.928-163.866 0-32.834 4.316-24.65 36.569-24.65 61.886v192.957c0 11.794-1.852 26.161-1.891 39.599-19.025-.582-30.726-4.1-33.384-26.1zm46.496 30.997c-.147-1.24-.217-2.511-.341-3.766 0 0 0-.077 0-.108-2.325-24.209.349-50.176.349-74.346v-188.247c0-20.009 4.099-23.953 22.814-26.65 28.432-4.099 60.785 0 89.504 0h98.501c23.093 0 39.521-1.852 41.257 24.674-10.338.426-20.652 1.077-30.408 1.077-52.362 0-108.745-6.199-160.766 0-32.717 3.875-25.635 32.547-25.635 58.119v189.229c0 13.801-2.077 30.571-1.837 46.038-19.056-.541-30.78-4.02-33.438-26.02zm46.495 30.997c-.147-1.224-.225-2.472-.341-3.704 0-.07 0-.155 0-.217-2.379-24.17.364-50.176.364-74.3v-188.245c-.62-5.148-.62-10.351 0-15.499 5.378-17.901 8.524-10.074 21.326-12.135 28.145-4.487 61.025 0 89.512 0h95.192c.899 1.403 4.65 1.24 7.548 0 21.287-.07 36.948.209 38.491 26.069h-57.895c-43.334 0-91.255-5.928-134.194 0-26.572 3.673-24.728 21.698-24.728 43.822v161.549c0 26.293-5.208 60.537-2.898 89.535-18.072-.923-29.719-5.387-32.377-26.875zm289.288 57.422h-166.849c-17.048 0-39.095 3.689-55.795 0-16.18-3.565-20.466-15.39-21.155-29.261.55-.434.612-.775 0-.922-.403-10.299 1.038-21.628 1.038-31.516v-141.812c0-30.261-8.137-73.463 0-102.778 7.137-25.681 68.364-13.546 89.434-13.546h133.342c33.058 0 29.447 21.698 29.447 47.852v155.659c0 15.498 12.019 107.427-9.462 116.324z"/><path d="m390.038 160.446h-94.742c-15.971 0-39.568-4.417-55.244.31-15.816 4.766-18.807 23-13.553 38.584 5.084 15.096 11.298 12.748 26.533 12.748h154.985c.634-.034 1.262-.149 1.868-.341.863-.089 1.709-.292 2.519-.604 13.53-5.61 18.009-28.727 11.322-41.846-6.504-12.788-20.732-8.851-33.688-8.851zm-141.665 46.496c-9.625-3.03-19.489-28.2-10.554-38.653 5.138-6.021 26.805-2.697 36.553-2.697h73.618c15.127 0 39.312-4.758 53.842 0 9.361 3.1 19.931 33.554 8.082 41.35h-107.714c-15.46 0-39.041 4.657-53.819 0z"/><path d="m226.482 310.061c5.138 13.608 13.476 11.252 26.743 11.252h154.985c.63-.015 1.254-.125 1.852-.325.877-.035 1.742-.218 2.557-.542 13.468-5.579 17.358-30.021 11.105-42.691-6.618-13.429-20.396-9.555-33.857-9.555h-94.773c-15.677 0-39.901-4.65-55.268.209-15.94 5.021-19.048 26.533-13.344 41.652zm11.438-33.322c4.247-5.424 28.835-1.883 36.654-1.883h73.618c14.724 0 39.808-5.006 53.842 0 8.524 3.038 19.373 32.376 7.532 39.878h-107.545c-15.127 0-39.521 4.905-53.842 0-9.206-3.185-18.606-27.332-10.26-38.033v.038z"/><path d="m389.999 377.27h-94.75c-15.909 0-39.63-4.456-55.244.294-15.801 4.805-18.707 23.248-13.507 38.746 5.084 15.173 11.298 12.895 26.572 12.895h154.985c.633-.029 1.258-.143 1.86-.341.866-.07 1.717-.266 2.526-.581 13.546-5.61 17.823-28.967 11.283-42.047-6.502-12.895-20.699-8.966-33.725-8.966zm-141.664 46.496c-9.501-3.1-19.544-27.944-10.492-38.429 5.145-5.951 26.944-2.619 36.577-2.619h73.618c15.15 0 39.281-4.743 53.842 0 9.423 3.1 19.846 33.322 7.974 41.071h-107.678c-15.328-.023-39.242 4.743-53.841-.023z"/><path d="m245.529 244.099c2.852.279 5.643-.945 7.37-3.231 1.162-2.325-1.007-3.944-3.216-3.944h-7.749c-2.852-.279-5.643.945-7.37 3.231-1.162 2.325 1.007 3.944 3.216 3.944z"/><path d="m412.665 237.838h-131.737c-3.572 0-12.12 5.347-4.65 5.347h131.737c3.581 0 12.128-5.347 4.65-5.347z"/><path d="m248.164 345.126h-7.749c-2.325 0-5.92 1.79-6.199 4.363-.341 2.883 3.053 3.386 5.115 3.386h7.749c2.325 0 5.92-1.79 6.199-4.363.341-2.882-3.054-3.386-5.115-3.386z"/><path d="m282.284 346.847c-2.24 0-12.631 4.309-7.362 4.309h131.738c2.24 0 12.631-4.309 7.362-4.309z"/></g></g></svg>