<svg id="Icons" height="512" viewBox="0 0 60 60" width="512" xmlns="http://www.w3.org/2000/svg"><path d="m7.6 55.471a.5.5 0 0 1 -.257-.929l.457-.274-1.878 1.082a.5.5 0 0 1 -.512-.859l23.19-14.276-24.951 14.403a.5.5 0 0 1 -.512-.858l25.644-15.795-26.573 15.342a.5.5 0 0 1 -.511-.86l23.988-14.687-24.196 13.969a.5.5 0 0 1 -.511-.859l27.132-16.689-26.83 15.49a.5.5 0 0 1 -.509-.859l21.289-12.962-20.78 12a.5.5 0 0 1 -.509-.861l16.823-10.189-16.314 9.419a.5.5 0 0 1 -.507-.862l4.835-2.9-4.328 2.5a.5.5 0 0 1 -.507-.857l1.88-1.124-1.373.792a.5.5 0 0 1 -.507-.868l.463-.275a.5.5 0 0 1 -.465-.884l15.257-9.228-14.748 8.517a.5.5 0 0 1 -.509-.86l15.309-9.27-14.8 8.545a.5.5 0 0 1 -.511-.858l23.812-14.638-23.301 13.451a.5.5 0 0 1 -.51-.859l17.43-10.641-16.92 9.77a.5.5 0 0 1 -.509-.859l12.359-7.519-11.85 6.841a.5.5 0 0 1 -.513-.858l18.833-11.665-18.32 10.577a.5.5 0 0 1 -.514-.857l17.877-11.147-17.363 10.023a.5.5 0 0 1 -.517-.855l18.107-11.451-17.591 10.159a.5.5 0 0 1 -.512-.859l7.812-4.823-7.3 4.214a.5.5 0 0 1 -.515-.857l10.51-6.591-9.995 5.77a.5.5 0 0 1 -.515-.856l7.669-4.807-7.154 4.13a.5.5 0 0 1 -.513-.858l3.028-1.883-2.515 1.451a.5.5 0 0 1 -.514-.858l1.49-.928-.976.563a.5.5 0 0 1 -.515-.856l.748-.468-.233.134a.5.5 0 0 1 -.526-.85l8-5.306-7.474 4.315a.5.5 0 0 1 -.529-.848l6.35-4.272-5.821 3.358a.5.5 0 0 1 -.541-.839l6.525-4.673-5.984 3.454a.5.5 0 0 1 -.54-.84l3.412-2.427-2.872 1.658a.5.5 0 0 1 -.55-.832l2.627-1.975-2.077 1.2a.5.5 0 0 1 -.57-.817l1.927-1.605-1.131.652a.5.5 0 0 1 -.652-.13.5.5 0 0 1 .062-.67l1.217-1.125a.494.494 0 0 1 -.183-.183.5.5 0 0 1 .183-.683l2.544-1.468a.5.5 0 0 1 .59.8l-.389.36 2.308-1.331a.5.5 0 0 1 .57.816l-1.926 1.603 4.194-2.419a.5.5 0 0 1 .551.832l-2.628 1.968 4.862-2.8a.5.5 0 0 1 .54.84l-3.411 2.422 5.656-3.262a.5.5 0 0 1 .541.839l-6.526 4.672 9.551-5.511a.5.5 0 0 1 .529.847l-6.348 4.272 8.871-5.119a.5.5 0 0 1 .526.849l-8 5.309 10.663-6.158a.5.5 0 0 1 .516.856l-.741.464 2.287-1.32a.5.5 0 0 1 .515.857l-1.484.924 3.086-1.781a.5.5 0 0 1 .514.857l-3.017 1.875 4.736-2.732a.5.5 0 0 1 .516.856l-7.669 4.804 9.811-5.66a.5.5 0 0 1 .515.856l-10.512 6.59 12.903-7.446a.5.5 0 0 1 .513.858l-7.81 4.821 9.839-5.679a.5.5 0 0 1 .518.855l-18.104 11.445 21.306-12.3a.5.5 0 0 1 .514.856l-17.873 11.144 20.788-12a.5.5 0 0 1 .514.857l-18.841 11.667 21.699-12.524a.5.5 0 0 1 .51.859l-12.356 7.514 14.507-8.373a.5.5 0 0 1 .51.859l-17.431 10.641 19.321-11.157a.5.5 0 0 1 .512.859l-23.812 14.636 24.959-14.409a.5.5 0 0 1 .509.861l-15.314 9.272 15.66-9.041a.5.5 0 0 1 .508.86l-15.256 9.229 15.265-8.81a.5.5 0 0 1 .507.863l-.329.2a.5.5 0 0 1 .5.866l-1.852 1.108 1.363-.786a.5.5 0 0 1 .507.861l-4.835 2.9 4.328-2.5a.5.5 0 0 1 .509.861l-16.847 10.2 16.338-9.444a.5.5 0 0 1 .509.86l-21.269 12.95 20.76-11.985a.5.5 0 0 1 .511.858l-27.139 16.693 26.628-15.373a.5.5 0 0 1 .51.86l-23.988 14.688 23.478-13.555a.5.5 0 0 1 .512.859l-25.641 15.793 25.129-14.508a.5.5 0 0 1 .511.858l-23.193 14.281 22.682-13.095a.5.5 0 0 1 .507.861l-.477.286a.5.5 0 0 1 .484.873l-22.69 14.155 22.176-12.8a.5.5 0 0 1 .514.857l-18.882 11.765 18.368-10.6a.5.5 0 0 1 .513.858l-13.56 8.4 13.047-7.539a.5.5 0 0 1 .517.855l-17.05 10.816 16.534-9.55a.5.5 0 0 1 .51.86l-2.588 1.59 2.078-1.2a.5.5 0 0 1 .518.855l-12.533 7.977 12.015-6.932a.5.5 0 0 1 .515.856l-5.88 3.683 5.365-3.1a.5.5 0 0 1 .519.854l-8.373 5.367 7.854-4.534a.5.5 0 0 1 .517.855l-3.2 2.024 2.686-1.549a.5.5 0 0 1 .518.854l-2.7 1.724 2.186-1.262a.5.5 0 0 1 .524.851l-4.474 2.929 3.95-2.279a.5.5 0 0 1 .541.84l-7.22 5.156 6.679-3.855a.5.5 0 0 1 .537.841l-3.665 2.574 3.125-1.8a.5.5 0 0 1 .561.823l-4.09 3.267 3.529-2.037a.5.5 0 0 1 .55.832l-.637.48a.5.5 0 0 1 .541.815l-1.488 1.527a.5.5 0 0 1 .182.928l-2.544 1.469a.5.5 0 0 1 -.608-.782l1.215-1.251-3.823 2.2a.5.5 0 0 1 -.551-.832l.6-.451-2.225 1.283a.5.5 0 0 1 -.561-.823l4.09-3.266-7.084 4.089a.5.5 0 0 1 -.537-.841l3.66-2.573-5.915 3.414a.5.5 0 0 1 -.541-.839l7.22-5.157-10.387 6a.5.5 0 0 1 -.525-.85l4.478-2.933-6.554 3.779a.5.5 0 0 1 -.518-.854l2.705-1.724-4.468 2.578a.5.5 0 0 1 -.678-.173.5.5 0 0 1 .16-.682l3.193-2.019-4.975 2.874a.5.5 0 0 1 -.519-.853l8.371-5.366-10.775 6.219a.5.5 0 0 1 -.515-.856l5.881-3.683-7.866 4.539a.5.5 0 0 1 -.518-.854l12.528-7.976-15.299 8.83a.5.5 0 0 1 -.511-.859l2.6-1.595-4.248 2.454a.5.5 0 0 1 -.517-.854l17.039-10.8-20.195 11.654a.5.5 0 0 1 -.513-.857l13.561-8.4-16.033 9.257a.5.5 0 0 1 -.515-.857l18.893-11.772-21.879 12.629a.5.5 0 0 1 -.515-.856l22.684-14.144-25.992 15a.5.5 0 0 1 -.247.071z" fill="#dbdbdb"/><path d="m6.371 35.471a.5.5 0 0 1 -.32-.884l3.164-2.643-3.935 2.271a.5.5 0 0 1 -.545-.836l1.476-1.079-.931.537a.5.5 0 0 1 -.551-.837l2.345-1.763-1.795 1.04a.5.5 0 0 1 -.568-.818l4.189-3.459-3.621 2.09a.5.5 0 0 1 -.56-.824l1.751-1.383-1.191.687a.5.5 0 0 1 -.618-.77l1.568-1.706-.95.548a.5.5 0 0 1 -.686-.676l.44-.792a.5.5 0 0 1 -.169-.927l1.128-.65a.5.5 0 0 1 .687.676l-.332.6 2.208-1.273a.5.5 0 0 1 .618.77l-1.568 1.703 4.295-2.473a.5.5 0 0 1 .56.824l-1.75 1.386 2.9-1.672a.5.5 0 0 1 .568.818l-4.199 3.454 3.744-2.161a.5.5 0 0 1 .55.832l-2.342 1.761 1.794-1.035a.5.5 0 0 1 .545.836l-1.477 1.081.934-.539a.5.5 0 0 1 .573.815l-3.166 2.645.042-.024a.5.5 0 0 1 .6.787l-1.843 1.84a.5.5 0 0 1 -.222.6l-.961.552a.494.494 0 0 1 -.646-.129.5.5 0 0 1 .042-.658l.221-.219-1.746 1.006a.493.493 0 0 1 -.25.071z" fill="#faa116"/><path d="m9.029 34.5a.5.5 0 0 1 -.352-.855l1.711-1.7-1.109.64a.5.5 0 0 1 -.594-.794l.391-.374a.515.515 0 0 1 -.408-.153.5.5 0 0 1 -.06-.615l.325-.5a.5.5 0 0 1 -.069-.9l1.128-.65a.5.5 0 0 1 .671.7l-.1.16 1.494-.862a.5.5 0 0 1 .594.794l-.253.242.822-.474a.5.5 0 0 1 .6.787l-2.92 2.904a.472.472 0 0 1 .035.052.5.5 0 0 1 -.183.683l-1.471.85a.5.5 0 0 1 -.252.065z" fill="#f28f02"/><path d="m28.823 35.471a.5.5 0 0 1 -.337-.869l1.514-1.381-3.352 1.934a.5.5 0 0 1 -.554-.829l2.488-1.907-2.3 1.327a.5.5 0 0 1 -.57-.816l4.5-3.76-3.931 2.269a.5.5 0 0 1 -.565-.82l4.03-3.28-3.465 2a.5.5 0 0 1 -.567-.818l2.472-2.035-1.905 1.1a.5.5 0 0 1 -.628-.761l1.624-1.869-1 .575a.5.5 0 0 1 -.681-.685l.4-.679a.5.5 0 0 1 -.132-.919l1.128-.65a.5.5 0 0 1 .682.686l-.256.436 1.943-1.12a.5.5 0 0 1 .628.76l-1.625 1.871 4.558-2.631a.5.5 0 0 1 .567.818l-2.47 2.033 3.641-2.1a.5.5 0 0 1 .566.82l-4.026 3.273 3.525-2.034a.5.5 0 0 1 .57.817l-4.5 3.759 3.933-2.27a.5.5 0 0 1 .553.829l-2.491 1.909.683-.393a.5.5 0 0 1 .587.8l-2.649 2.422a.518.518 0 0 1 .109.131.5.5 0 0 1 -.183.683l-2.262 1.3a.49.49 0 0 1 -.252.074z" fill="#2bb6e8"/><path d="m30.03 34.785a.5.5 0 0 1 -.364-.843l2.355-2.506-1.742 1a.5.5 0 0 1 -.713-.621l.674-1.654a.5.5 0 0 1 -.376-.918l1.128-.65a.5.5 0 0 1 .713.622l-.662 1.627 3.41-1.969a.5.5 0 0 1 .614.775l-3.58 3.812a.5.5 0 0 1 -.191.667l-1.016.587a.489.489 0 0 1 -.25.071z" fill="#25a3da"/><path d="m29.029 51.471a.5.5 0 0 1 -.346-.861l1.923-1.853-4.033 2.328a.5.5 0 0 1 -.557-.827l2.959-2.3-2.695 1.55a.5.5 0 0 1 -.567-.819l4.271-3.515-3.705 2.139a.5.5 0 0 1 -.563-.823l3.858-3.112-3.3 1.9a.5.5 0 0 1 -.555-.828l1.663-1.286-1.108.639a.5.5 0 0 1 -.575-.813l.961-.821-.386.222a.5.5 0 0 1 -.712-.624l.663-1.6a.5.5 0 0 1 -.366-.92l1.128-.65a.5.5 0 0 1 .712.625l-.649 1.569 3.8-2.194a.5.5 0 0 1 .576.812l-.962.823 2.836-1.632a.5.5 0 0 1 .555.828l-1.655 1.279 2.446-1.407a.5.5 0 0 1 .563.822l-3.86 3.113 3.374-1.947a.5.5 0 0 1 .567.819l-4.272 3.515 3.708-2.139a.5.5 0 0 1 .557.827l-2.955 2.3 1.32-.761a.5.5 0 0 1 .6.793l-3 2.894a.471.471 0 0 1 .086.111.5.5 0 0 1 -.182.682l-1.873 1.071a.49.49 0 0 1 -.25.071z" fill="#2bb6e8"/><path d="m30.029 50.061a.5.5 0 0 1 -.358-.849l1.892-1.944-1.284.741a.5.5 0 0 1 -.7-.648l.563-1.181a.49.49 0 0 1 -.46-.249.5.5 0 0 1 .183-.684l1.128-.65a.5.5 0 0 1 .7.648l-.52 1.094 3.016-1.739a.5.5 0 0 1 .609.781l-2.4 2.462a.5.5 0 0 1 .058.894l-2.18 1.258a.49.49 0 0 1 -.247.066z" fill="#25a3da"/><path d="m47.835 51.471a.5.5 0 0 1 -.316-.888l1.908-1.557-3.05 1.761a.5.5 0 0 1 -.57-.817l4.354-3.624-3.881 2.24a.5.5 0 0 1 -.559-.825l3.547-2.8-2.989 1.725a.5.5 0 0 1 -.551-.831l2.481-1.884-1.93 1.114a.5.5 0 0 1 -.562-.823l1.867-1.493-1.3.753a.5.5 0 0 1 -.6-.793l1.256-1.209-.66.38a.5.5 0 0 1 -.7-.655l.528-1.061a.5.5 0 0 1 -.246-.934l1.128-.65a.5.5 0 0 1 .7.656l-.471.948 2.781-1.604a.5.5 0 0 1 .6.793l-1.264 1.207 3.47-2a.5.5 0 0 1 .562.823l-1.868 1.491 3.1-1.789a.5.5 0 0 1 .551.831l-2.478 1.881 2.049-1.183a.5.5 0 0 1 .559.825l-3.547 2.8 2.991-1.726a.5.5 0 0 1 .66.146.5.5 0 0 1 -.09.671l-4.356 3.63 3.366-1.942a.5.5 0 0 1 .566.82l-2.718 2.217a.5.5 0 0 1 .093.907l-4.161 2.4a.493.493 0 0 1 -.25.069z" fill="#9e82ec"/><path d="m50.03 50.744a.5.5 0 0 1 -.355-.851l.935-.947-.331.192a.5.5 0 0 1 -.6-.791l.9-.869-.3.17a.5.5 0 0 1 -.687-.674l.443-.8a.5.5 0 0 1 -.171-.928l1.128-.65a.5.5 0 0 1 .688.675l-.338.609 2.223-1.28a.5.5 0 0 1 .6.791l-.9.87.066-.038a.5.5 0 0 1 .6.784l-2.377 2.4a.5.5 0 0 1 -.2.647l-1.08.624a.489.489 0 0 1 -.244.066z" fill="#866adc"/><g fill="#262626"><path d="m.287 50.536a5.368 5.368 0 0 0 5.426 4.839c.5.011 1 0 1.5 0h46.5c2.79-.094 5.574-1.849 5.967-4.8a15.622 15.622 0 0 0 .048-2.03v-35.42c0-2.627.375-5.526-1.993-7.356-1.866-1.442-4.312-1.144-6.524-1.144h-24.656c-6.644 0-13.29-.039-19.934 0-3.453.02-6.316 2.235-6.345 5.836-.021 2.583 0 5.168 0 7.751v26.375c0 1.967-.133 3.985.011 5.949zm1.575-41.806a4.237 4.237 0 0 1 4.176-3.355c.791-.009 1.583 0 2.374 0h44.194a10.76 10.76 0 0 1 1.786.063 4.865 4.865 0 0 1 3.884 4.921c.077 6.526 0 13.058 0 19.585 0 6.665.111 13.341 0 20.006-.039 2.314-1.466 4.59-3.985 4.675h-41.236c-2.165 0-4.334.036-6.5 0a4.777 4.777 0 0 1 -4.555-3.177 7.794 7.794 0 0 1 -.276-2.631v-34.106c0-1.894-.306-4.111.138-5.981z"/><path d="m4.276 33.013c0 .949-.155 2.138 1.112 2.344a10.769 10.769 0 0 0 1.7.026h1.353.01a.407.407 0 0 0 .073.042c.019.008.029.022.05.028a.637.637 0 0 0 .078.011.8.8 0 0 0 .109.016 1.185 1.185 0 0 0 .134 0h.03s.041-.009.06-.012a1.085 1.085 0 0 0 .425-.141.647.647 0 0 0 .252-.229l4.32-5.184.616-.739a.431.431 0 0 0 .1-.307.31.31 0 0 0 .023-.071v-2.965c0-.845.3-2.37-.505-2.943-.667-.478-1.941-.272-2.709-.272h-3.94c-.993 0-2.208-.145-2.944.677-.5.554-.347 1.47-.347 2.162zm5.609-3.533c-.026.021-.051.015-.03 0zm-.141.291a.545.545 0 0 1 .145-.291c.153-.008.328.01.453.01h2.5l-3.111 3.731v-2.472c0-.247 0-.494 0-.741a1.346 1.346 0 0 1 .013-.237zm0-.281h.026c-.023.001-.036.002-.029 0zm-4.02-5.522c0-.051-.006-.1 0-.155a3.215 3.215 0 0 1 .139-.4c.015-.059-.23.022-.1-.025a3.189 3.189 0 0 1 .91 0h5.157a4.991 4.991 0 0 1 .847 0c.909.163.6 2.088.6 2.721v2.401q-1.507 0-3.014 0a1.933 1.933 0 0 0 -1.943 1.24 2.4 2.4 0 0 0 -.051.692v4.188c-.594.01-1.189.017-1.779-.013-.833-.042-.766-.866-.766-1.487v-6.784c0-.79-.037-1.589 0-2.378z"/><path d="m32.491 22.465h-4.054c-.993 0-2.154-.161-2.851.727a3.662 3.662 0 0 0 -.32 2.25v7.51c0 1.076-.091 2.348 1.322 2.565a11.626 11.626 0 0 0 1.731.018h1.618a.724.724 0 0 0 .743-.535l4.376-5.251.246-.3a.592.592 0 0 0 .432-.507v-2.97c0-.888.278-2.439-.469-3.1-.681-.602-1.926-.407-2.774-.407zm-1.767 8.156c0-.247-.007-.494 0-.741a.694.694 0 0 1 .028-.215c.015-.059.109-.194.14-.266h3.1l-3.264 3.916zm0-1.222h.044a.059.059 0 0 1 -.048.001zm-3.456 5.066c-.637-.053-.53-.788-.53-1.327v-6.757c0-.767-.015-1.537 0-2.3 0-.228 0-.472.236-.542a3.373 3.373 0 0 1 .846 0h5.115a4.931 4.931 0 0 1 .941 0c.656.136.394 1.952.394 2.487v2.574c-.994-.006-1.987-.014-2.98 0a2 2 0 0 0 -1.98 1.253 2.938 2.938 0 0 0 -.03.683v3.941a18.229 18.229 0 0 1 -2.016-.012z"/><path d="m55.724 40.144a1.272 1.272 0 0 0 -.514-1.229c-.636-.4-1.866-.186-2.566-.186h-3.936c-1 0-2.186-.114-3.008.586-.591.5-.424 1.446-.424 2.141v7.476c0 .871-.208 2.115.962 2.318a9.976 9.976 0 0 0 1.667.021h1.561a1.6 1.6 0 0 0 .31-.01l.085-.008.079-.017a1.169 1.169 0 0 0 .746-.344c.008-.009.02-.014.027-.024q2.193-2.629 4.384-5.26l.549-.659a.221.221 0 0 0 .025-.03l.042-.051a.053.053 0 0 0 .01-.058v-4.666zm-5 6.523c0-.257 0-.513 0-.77 0-.057 0-.116 0-.173a.885.885 0 0 1 .17-.431c.5.015 1.013-.008 1.509-.008h1.752l-3.435 4.121zm.222-1.434c.1-.11.119-.055 0 0zm-4.016-5.974c.1-.034.226-.015 0 0zm.718 11.47c-.948-.049-.924-.891-.924-1.6v-6.783c0-.8-.025-1.6 0-2.394 0-.048 0-.1 0-.144.008-.1.156-.41.14-.47-.008-.032.015-.052.044-.067h4.117a18.926 18.926 0 0 1 2.475 0c1.1.151.776 2.01.776 2.775v2.664c-.934-.005-1.869-.01-2.8.005-.744.012-1.867.292-2.136 1.1a2.239 2.239 0 0 0 -.062.721v4.207c-.546.01-1.09.013-1.63-.014z"/><path d="m32.6 38.557h-3.953c-1.008 0-2.236-.168-2.992.649-.538.581-.382 1.491-.382 2.22v7.514c0 .988-.154 2.207 1.128 2.467a8.848 8.848 0 0 0 1.707.036h1.462c.024.007.053 0 .079.01a.807.807 0 0 0 .11.014 1.17 1.17 0 0 0 .133 0h.027c.014 0 .036-.008.052-.011a1.129 1.129 0 0 0 .438-.141.649.649 0 0 0 .255-.232l4.314-5.177.616-.74a.362.362 0 0 0 .131-.248v-2.973c0-.857.286-2.427-.466-3.045-.659-.541-1.872-.343-2.659-.343zm-1.855 7.209a.585.585 0 0 1 .138-.3h2.99l-3.142 3.77v-2.5c0-.247 0-.494 0-.741a1.336 1.336 0 0 1 .012-.229zm-.007-.294a.205.205 0 0 1 .1-.005c-.067.015-.138.033-.102.005zm-3.262 5.085c-.828-.03-.747-.769-.747-1.379v-6.772c0-.78-.013-1.561 0-2.341 0-.047 0-.095 0-.141.01-.125.117-.327.109-.418 0-.018.022-.046.041-.07a5.79 5.79 0 0 1 .77.007h3.524a18.028 18.028 0 0 1 2.514 0c.914.133.588 1.978.588 2.606v2.478c-1 0-2-.006-3.007 0a1.955 1.955 0 0 0 -1.944 1.229 2.291 2.291 0 0 0 -.051.692v4.118c-.602.007-1.202.013-1.799-.009z"/><path d="m4.938 19.539h14.331v31.529c0 .706 1.462.454 1.462-.136v-31.393h19.545v31.655c0 .257 1.448.045 1.448-.388v-31.267h13.214c.834 0 1.107-1.078.124-1.078h-13.338v-10.655c0-.257-1.448-.045-1.448.388v10.267h-19.545v-10.529c0-.706-1.462-.454-1.462.136v10.393h-14.207c-.834 0-1.107 1.078-.124 1.078z"/><path d="m7.943 12.559h6a.808.808 0 0 0 .793-.606c.035-.385-.377-.512-.679-.512h-6a.808.808 0 0 0 -.793.606c-.035.385.377.512.679.512z"/><path d="m26.723 12.429h6a1.136 1.136 0 0 0 .954-.4c.177-.288-.15-.455-.4-.455h-6a1.136 1.136 0 0 0 -.954.4c-.177.288.15.455.4.455z"/><path d="m46.53 12.3h6a1.937 1.937 0 0 0 1.024-.275c.217-.14.211-.315-.084-.315h-6a1.937 1.937 0 0 0 -1.024.275c-.217.135-.211.315.084.315z"/></g></svg>