<svg height="512" viewBox="0 0 60 60" width="512" xmlns="http://www.w3.org/2000/svg"><g id="045---Decision-Tree" fill="none"><path id="Path" d="m25.645 13.471c-.218082.0008634-.4115667-.1397199-.4781246-.3473989-.066558-.207679.0091665-.4345398.1871246-.5606011l2.9-2.068-4.606 2.659c-.2288588.1292299-.518701.0592157-.6633326-.1602346-.1446317-.2194502-.0946742-.513414.1143326-.6727654l6.792-5.074-6.611 3.815c-.2292793.1356576-.5246567.0677215-.6716308-.1544735-.1469742-.2221949-.0939218-.520605.1206308-.6785265l6.2-4.665-5.647 3.26c-.2313261.13338821-.5266402.06146595-.670727-.16335216-.1440867-.22481812-.0860887-.52317941.131727-.67764784l1.533-1.083-1 .576c-.2262036.12844093-.5131028.06198425-.6597948-.15283334-.1466919-.21481759-.1041677-.50622684.0977948-.67016666l2.386-1.911-1.821 1.049c-.2219765.12818296-.5049351.06773868-.6551637-.13995295-.1502285-.20769162-.1190618-.49535068.0721637-.66604705l1.232-1.1-.649.374c-.1868433.10810598-.4219692.08409759-.5831073-.05954028-.161138-.14363787-.2119017-.3744704-.1258927-.57245972l.63-1.454c-.239469.04309068-.4751907-.0924586-.5584014-.32110284s.0102509-.4839935.2214014-.60489716l1.129-.647c.1873146-.1060353.4212085-.08196388.583.06.160968.14353776.2117591.37411326.126.572l-.61 1.407 3.532-2.039c.2216051-.12589587.5024401-.06495716.6519354.14146421.1494952.20642137.1197998.4922535-.0689354.66353579l-1.232 1.095 3.303-1.9c.2259042-.12776206.5120042-.06144377.6586593.15267798.1466552.21412174.1051039.50485322-.0956593.66932202l-2.381 1.906 4.732-2.728c.2313261-.13338821.5266402-.06146595.670727.16335216.1440867.22481812.0860887.52317941-.131727.67764784l-1.53 1.081 3.332-1.922c.2287194-.13104292.5198877-.06201267.6654353.15776159.1455476.21977425.0954752.5147944-.1144353.67423841l-6.192 4.658 6.829-3.943c.2288588-.12922991.518701-.05921567.6633326.16023456.1446317.21945024.0946742.51341403-.1143326.67276544l-6.8 5.078 6.248-3.607c.2312043-.13568612.5282776-.06488787.6734329.16049201.1451554.22537988.0867349.525133-.1324329.67950799l-2.9 2.072 2.363-1.363c.2251719-.12814755.5109328-.06306634.6584056.14994995s.107801.50339711-.0914056.66905005l-3.267 2.681 2.7-1.558c.2231941-.12824745.5072862-.06607757.6565145.14366969s.1148202.49851967-.0795145.66733031l-1.32 1.147.743-.428c.1878251-.10762604.4235769-.08215934.5840851.06309485.1605081.14525418.2093125.37730073.1209149.57490515l-.748 1.652c.2386924-.1195249.5291796-.0304652.6598626.2023056s.0554653.5271459-.1708626.6686944l-1.338.772c-.1875568.1036979-.4203423.0763327-.578738-.0680336-.1583956-.1443663-.2071708-.3736236-.121262-.5699664l.748-1.651-3.972 2.284c-.2228025.1258076-.5046322.0631099-.6530847-.1452897-.1484525-.2083995-.1156192-.4952461.0760847-.6647103l1.322-1.14-3.383 1.95c-.2253151.1304911-.5130605.0662242-.6614447-.1477312-.1483843-.2139555-.1077334-.5059746.0934447-.6712688l3.268-2.681-6.067 3.5c-.0770782.046145-.1651651.0706711-.255.071z" fill="#92d149"/><path id="Path" d="m27.465 32.471c-.2119324.0006938-.4012793-.1322994-.4725318-.3318963s-.0089298-.4224316.1555318-.5561037l3.7-3.021-6.213 3.586c-.2292016.1303039-.5201978.0602449-.6649792-.1600976s-.0935911-.5152436.1169792-.6739024l4.594-3.409-4.4 2.542c-.22978.1349572-.525025.0659893-.6712375-.156798s-.0920063-.5210957.1232375-.678202l4.874-3.607-4.327 2.5c-.2280542.1290416-.517047.0601323-.6623353-.1579314-.1452882-.2180638-.0975826-.5113034.1093353-.6720686l4.346-3.317-3.793 2.19c-.2222396.1285782-.5057439.0679309-.6559297-.1403165-.1501859-.2082474-.1182322-.4963997.0739297-.6666835l3.172-2.816-2.59 1.5c-.2148145.122858-.4871855.0700952-.640583-.1240916-.1533976-.1941868-.1416695-.4713733.027583-.6519084l1.383-1.461-.77.444c-.1948509.1121182-.4405713.0804111-.6005787-.0774971s-.1949566-.4031884-.0854213-.5995029l.434-.775c-.2073409-.0362815-.3697555-.198532-.4062464-.4058362s.0607574-.4152622.2432464-.5201638l1.128-.65c.1948982-.1130323.4413194-.0817533.6017966.0763881.1604773.1581413.195366.4040773.0852034.6006119l-.323.575 2.167-1.256c.2148894-.1243392.4884665-.0721685.6425166.1225268.1540502.1946953.1419081.4729375-.0285166.6534732l-1.385 1.462 3.878-2.238c.2218647-.1262356.5031961-.0650788.6526317.1418714.1494355.2069502.1189881.4932377-.0706317.6641286l-3.173 2.815 6.278-3.621c.228242-.1318458.5196375-.063862.6659708.1553737.1463332.2192358.0973404.5144185-.1119708.6746263l-4.345 3.314 5.193-3c.22978-.1349572.525025-.0659893.6712375.156798s.0920063.5210957-.1232375.678202l-4.868 3.605 4.324-2.5c.2286618-.1265879.5162385-.0557088.6598832.1626417.1436447.2183504.0948861.5104922-.1118832.6703583l-4.6 3.412 4.049-2.329c.2254634-.1287726.5119753-.0635416.6594703.1501437.1474949.2136853.1068861.5047094-.0934703.6698563l-3.7 3.021 3.136-1.81c.2150358-.1228992.4876397-.0698481.6408929.1247234.1532532.1945714.1409636.4720174-.0288929.6522766l-2.286 2.402 1.672-.966c.2046318-.1173741.4634625-.0757527.6209807.0998572.1575183.17561.1708642.4374259.0320193.6281428l-.579.79c.2426323-.0884661.5127161.0224077.6232056.255836.1104894.2334284.0250247.5125951-.1972056.644164l-1.975 1.138c-.2046318.1173741-.4634625.0757527-.6209807-.0998572-.1575183-.17561-.1708642-.4374259-.0320193-.6281428l.568-.776-2.605 1.5c-.2151117.1243892-.4889299.0719324-.6428382-.1231521s-.1411987-.4735922.0298382-.6538479l2.286-2.406-5.514 3.187c-.0754832.0456007-.1618163.0701194-.25.071z" fill="#92d149"/><path id="Path" d="m14.359 32.471c-.2078159-.0002986-.3937816-.1291122-.4671158-.3235592-.0733343-.1944469-.0187465-.4139836.1371158-.5514408l.837-.738-2.677 1.542c-.220007.1195261-.4945025.0578939-.6422936-.1442135-.147791-.2021073-.1233056-.4823693.0572936-.6557865l3.549-3.213-6.939 4.006c-.23240668.1328499-.52821577.0590851-.67103328-.1673329s-.08196881-.5251514.13803328-.6776671l.523-.36-.855.494c-.23028726.1343427-.52547493.0643663-.67095179-.1590541-.14547685-.2234204-.0900639-.5216852.12595179-.6779459l4.274-3.116-3.8 2.193c-.23004825.1308569-.52222067.059778-.6664488-.1621318-.14422813-.2219099-.09054634-.5177734.1224488-.6748682l4.266-3.106-3.721 2.148c-.23174266.1353654-.52902013.0636298-.67352428-.1625272-.14450415-.2261571-.08468698-.5260601.13552428-.6794728l1.778-1.25-1.24.715c-.22819429.1273484-.51596639.0574929-.66037808-.1603041-.14441168-.2177969-.09674814-.5100652.10937808-.6706959l1.945-1.476-1.394.8c-.21386359.1213482-.48421523.0691846-.63757991-.1230191-.15336467-.1922038-.14421419-.4673898.02157991-.6489809l2.183-2.353-1.567.9c-.18916547.1073426-.4260249.0800844-.58586176-.0674222-.15983687-.1475066-.20598208-.3814212-.11413824-.5785778l.569-1.2c-.23160061.014341-.44263275-.1325447-.50961627-.3547107-.06698351-.2221659.02768651-.4612215.22861627-.5772893l1.127-.64c.18916547-.1073426.4260249-.0800844.58586176.0674222.15983687.1475066.20598208.3814212.11413824.5785778l-.528 1.114 3.054-1.76c.2138636-.1213482.4842152-.0691846.6375799.1230191.1533647.1922038.1442142.4673898-.0215799.6489809l-2.184 2.351 5.416-3.123c.2283835-.1299972.5184238-.0610156.6638282.1578813.1454044.2188968.0965443.5129964-.1118282.6731187l-1.945 1.469 4-2.307c.2310609-.1298083.523268-.0567757.6660866.1664779.1428185.2232536.086628.5191613-.1280866.6745221l-1.775 1.25 2.235-1.284c.2294759-.1268358.5179525-.0548652.6609568.1648989.1430044.219764.0919582.5126682-.1169568.6711011l-4.262 3.1 3.765-2.173c.2302873-.1343427.5254749-.0643663.6709518.1590541.1454768.2234204.0900639.5216852-.1259518.6779459l-4.276 3.116 3.732-2.154c.2324067-.1328499.5282158-.0590851.6710333.1673329s.0819688.5251514-.1380333.6776671l-.528.362c.2225048-.1289965.5065753-.0681522.6567253.1406622.15015.2088145.1173946.4974755-.0757253.6673378l-3.55 3.212 2.964-1.71c.2220099-.1247109.5022812-.0626525.6508926.1441224.1486115.2067749.1180855.4922068-.0708926.6628776l-.835.735.255-.146c.2113234-.1216732.4795951-.0731604.6349231.1148162.155328.1879765.1524028.4605836-.0069231.6451838l-.439.507c.2349945-.0275557.4571337.1133758.5323171.3377175.0751835.2243417-.0171734.4706701-.2213171.5902825l-2.308 1.33c-.2110506.1204235-.4781242.0716789-.6330266-.115536-.1549024-.1872148-.1527817-.458692.0050266-.643464l.359-.414-2.035 1.173c-.0754237.0457373-.1617951.0702668-.25.071z" fill="#ee3a48"/><path id="Path" d="m2.308 59.471c-.21184394-.001535-.39972631-.1364078-.46893961-.336632s-.00473226-.4223338.16093961-.554368l3.472-2.772-4.192 2.417c-.23041837.1322364-.52401892.0611893-.66848638-.1617642-.14446747-.2229535-.0893536-.5199576.12548638-.6762358l1.963-1.413-1.416.817c-.2314518.1313128-.52520132.0583356-.66829177-.1660259-.14309045-.2243616-.08538078-.5214879.13129177-.6759741l.591-.415-.054.03c-.22575092.1255439-.50997115.0584606-.655761-.1547765-.14578985-.2132372-.10515191-.5024254.093761-.6672235l2.5-2-1.943 1.113c-.21989257.1179958-.49312141.0557887-.64025961-.1457705-.14713819-.2015592-.12312958-.4807496.05625961-.6542295l1.326-1.19-.742.428c-.18645512.1072233-.42058932.083189-.58137223-.0596787-.16078291-.1428678-.21218203-.3725515-.12762777-.5703213l.639-1.486c-.2087277.0395708-.41967105-.0570781-.526-.241-.13823272-.2388784-.05677133-.5445824.182-.683l1.129-.653c.18645512-.1072233.42058932-.083189.58137223.0596787.1607829.1428678.21218203.3725515.12762777.5703213l-.62 1.443 3.593-2.073c.21989257-.1179958.49312141-.0557887.64025961.1457705.14713819.2015592.12312958.4807496-.05625961.6542295l-1.326 1.192 3.456-1.992c.22575092-.1255439.50997115-.0584606.655761.1547765.14578985.2132372.10515191.5024254-.093761.6672235l-2.5 2 4.107-2.371c.2317427-.1353654.5290201-.0636298.6735243.1625272.1445041.2261571.084687.5260601-.1355243.6794728l-.591.415.211-.121c.2298251-.1278768.5194281-.0558458.6625685.1647961s.0908781.5144564-.1195685.6722039l-1.955 1.414 1.416-.818c.226047-.126152.5110038-.0589101.6568083.1549885.1458046.2138986.1042381.5037159-.0958083.6680115l-3.473 2.775 2.912-1.681c.2267918-.1258849.5121894-.0574365.6572109.1576223.1450215.2150589.1015044.5053056-.1002109.6683777l-.783.614.226-.13c.2062518-.1182441.4672436-.0749051.6242099.1036531.1569663.1785583.1664952.4429523.0227901.6323469l-1.3 1.7.655-.378c.2374252-.1242009.5305531-.0391619.6646466.1928199.1340935.2319817.0614797.5284321-.1646466.6721801l-2.823 1.63c-.20625177.1182441-.46724363.0749051-.62420991-.1036531-.15696629-.1785583-.16649518-.4429523-.02279009-.6323469l1.3-1.7-4.226 2.436c-.22679183.1258849-.51218938.0574365-.6572109-.1576223-.14502152-.2150589-.10150437-.5053056.1002109-.6683777l.786-.615-2.498 1.441c-.07561844.0452887-.16186523.0697828-.25.071z" fill="#92d149"/><path id="Path" d="m18.733 59.471c-.2152152 0-.4062846-.137715-.4743416-.3418861-.0680571-.2041711.0021694-.4289848.1743416-.5581139l.392-.3-1.967 1.129c-.226047.126152-.5110038.0589101-.6568083-.1549885-.1458046-.2138986-.1042381-.5037159.0958083-.6680115l3.14-2.5-4.147 2.393c-.226507.1291681-.5142486.0625855-.6609917-.1529516-.1467432-.2155372-.103215-.5076567.0999917-.6710484l4.579-3.626-4.029 2.325c-.2248836.1275609-.509928.0626394-.65739-.1497267-.1474621-.2123662-.1087026-.5021295.08939-.6682733l3.734-3.09-3.166 1.827c-.2155591.1245112-.4898785.0714871-.6435094-.1243861-.153631-.1958731-.1397727-.4749262.0325094-.6546139l2.175-2.271-1.564.9c-.187959.1045765-.4217365.0772265-.5804811-.0679113-.1587445-.1451379-.2068784-.3755355-.1195189-.5720887l.594-1.3c-.2340948.0230256-.4525837-.1202321-.5247983-.3440973s.0213755-.4677936.2247983-.5859027l1.129-.651c.1882192-.1085551.4250019-.0831269.5858794.062918.1608775.1460448.20902.3792721.1191206.577082l-.563 1.229 3.24-1.87c.215258-.1229472.4881008-.0696094.6412115.1253499.1531108.1949593.1402554.4726694-.0302115.6526501l-2.175 2.272 5.28-3.042c.2244594-.1249402.5070739-.0594585.6537137.1514653s.1095839.4986487-.0857137.6655347l-3.736 3.083 4.788-2.76c.2263468-.1267998.5120755-.0594093.6579064.1551704.1458308.2145797.1033101.5050523-.0979064.6688296l-4.58 3.627 4.02-2.32c.226047-.126152.5110038-.0589101.6568083.1549885.1458046.2138986.1042381.5037159-.0958083.6680115l-3.142 2.506 2.582-1.49c.2274132-.1273482.5145055-.05864.6596263.1578646.1451209.2165046.0995839.5081708-.1046263.6701354l-.458.355c.2111666-.0673035.441441.0124381.5657638.1959182.1243228.1834802.1130225.4269084-.0277638.5980818l-1.209 1.468.574-.331c.2374252-.1242009.5305531-.0391619.6646466.1928199.1340935.2319817.0614797.5284321-.1646466.6721801l-2.966 1.711c-.2094231.1210892-.4754979.0748836-.6318351-.1097222-.1563373-.1846058-.1580911-.454657-.0041649-.6412778l1.21-1.468-3.846 2.219c-.0754832.0456007-.1618163.0701194-.25.071z" fill="#ee3a48"/><path id="Path" d="m42.872 32.471c-.218082.0008634-.4115667-.1397199-.4781246-.3473989-.066558-.207679.0091665-.4345398.1871246-.5606011l1.69-1.207-2.806 1.621c-.2285233.1282497-.5172952.0583047-.6618051-.1602995-.14451-.2186041-.095725-.5116937.1118051-.6717005l5.106-3.833-4.741 2.737c-.2328603.1351428-.5309189.0616362-.6742423-.1662803-.1433233-.2279164-.080443-.5283964.1422423-.6797197l1.15-.787-.619.357c-.2263468.1267998-.5120755.0594093-.6579064-.1551704-.1458308-.2145797-.1033101-.5050523.0979064-.6688296l5.144-4.075-4.584 2.647c-.2227723.1294397-.5074311.0684047-.6575526-.1409889s-.1165485-.4985799.0775526-.6680111l3.1-2.725-2.521 1.455c-.2125801.1214168-.481811.0710563-.6361309-.1189903-.1543198-.1900467-.1483392-.4638818.0141309-.6470097l1.475-1.644-.853.492c-.1964775.1122799-.4438726.0785993-.6031841-.0821178-.1593114-.1607172-.1908174-.4083986-.0768159-.6038822l.4-.671c-.197666-.0493795-.3456013-.2137566-.3739529-.4155148-.0283517-.2017582.0685514-.4005407.2449529-.5024852l1.129-.651c.1968997-.1140323.4459612-.0807419.606.081.1592688.1613417.190051.4096517.075.605l-.25.425 1.923-1.109c.2125801-.1214168.481811-.0710563.6361309.1189903.1543198.1900467.1483392.4638818-.0141309.6470097l-1.474 1.641 4.175-2.41c.2223898-.1269737.5047663-.065395.6540994.1426415.1493332.2080365.1173442.4952735-.0740994.6653585l-3.1 2.725 6.12-3.533c.226507-.1291681.5142486-.0625855.6609917.1529516.1467432.2155372.103215.5076567-.0999917.6710484l-5.147 4.079 6.031-3.481c.2321092-.1290838.5246372-.0541763.6661393.170578.1415021.2247542.0825963.5209195-.1341393.674422l-1.137.778.6-.349c.2285233-.1282497.5172952-.0583047.6618051.1602995.14451.2186041.095725.5116937-.1118051.6717005l-5.112 3.837 4.563-2.634c.2312043-.1356861.5282776-.0648879.6734329.160492.1451554.2253799.0867349.525133-.1324329.679508l-1.693 1.208 1.152-.664c.2240372-.1259992.5071082-.0616068.6545964.1489061s.1113381.4985559-.0835964.6660939l-2.575 2.163 2-1.157c.2221262-.1265945.5039712-.0652242.6533525.1422642.1493814.2074884.1181698.4942439-.0723525.6647358l-.819.726.238-.137c.2093617-.1198333.4744325-.0730979.6301877.1111103.1557553.1842081.1577794.4533598.0048123.6398897l-.458.555c.2005575-.0235565.3962774.0727377.5.246.1375532.2386555.0561721.5436114-.182.682l-2.14 1.237c-.2093617.1198333-.4744325.0730979-.6301877-.1111103-.1557553-.1842081-.1577794-.4533598-.0048123-.6398897l.394-.478-2.132 1.229c-.2217499.124383-.5015352.0625469-.6502105-.143705-.1486753-.2062518-.1188941-.491237.0692105-.662295l.82-.727-2.657 1.533c-.2240372.1259992-.5071082.0616068-.6545964-.1489061s-.1113381-.4985559.0835964-.6660939l2.574-2.161-5.157 2.976c-.0754832.0456007-.1618163.0701194-.25.071z" fill="#ee3a48"/><path id="Path" d="m39.472 59.471c-.2038232.0003993-.3874864-.1229627-.4642069-.3117961-.0767204-.1888333-.0311389-.4053343.1152069-.5472039l2.615-2.541-5.68 3.28c-.227445.1317107-.5180356.064845-.6650404-.1530278-.1470048-.2178727-.1002333-.512366.1070404-.6739722l3.546-2.773-3.766 2.174c-.2257509.1255439-.5099711.0584606-.655761-.1547765-.1457898-.2132372-.1051519-.5024254.093761-.6672235l4.725-3.791-4.164 2.4c-.2309306.1317312-.5245674.0597083-.6683337-.1639283-.1437664-.2236366-.0873821-.520673.1283337-.6760717l.424-.3c-.194519.055702-.40334-.0128483-.527-.173-.1534106-.1956383-.1397771-.4742731.032-.654l2.425-2.537-1.814 1.047c-.1867957.1073125-.4213248.0829172-.5820357-.0605422-.1607109-.1434595-.2114678-.3737263-.1259643-.5714578l.63-1.448c-.239224.0423185-.4742484-.0934409-.5571125-.3218102-.082864-.2283692.0104149-.4832538.2211125-.6041898l1.129-.651c.1866008-.1068734.4206358-.0824666.5811702.0606086.1605344.1430751.2116083.3727695.1268298.5703914l-.609 1.4 3.524-2.029c.2153349-.1244465.4894005-.0717052.6431691.1237719.1537685.1954771.1404869.4742551-.0311691.6542281l-2.429 2.534 5.747-3.312c.2309306-.1317312.5245674-.0597083.6683337.1639283.1437664.2236366.0873821.520673-.1283337.6760717l-.288.206.813-.47c.2259042-.1277621.5120042-.0614438.6586593.152678.1466552.2141217.1051039.5048532-.0956593.669322l-4.725 3.79 4.271-2.465c.2267918-.1258849.5121894-.0574365.6572109.1576223.1450215.2150589.1015044.5053056-.1002109.6683777l-3.548 2.772 2.991-1.721c.2184203-.1276802.4977941-.0720852.6506935.1294872s.1311343.4855915-.0506935.6615128l-2.621 2.536 2.017-1.164c.1990945-.1132785.4497027-.0767785.6082143.0885839.1585116.1653623.1843818.4172898.0627857.6114161l-.926 1.44.255-.148c.23893-.1358451.5427102-.0533708.6801373.1846528.137427.2380237.0569695.5423443-.1801373.6813472l-2.038 1.179c-.1990945.1132785-.4497027.0767785-.6082143-.0885839-.1585116-.1653623-.1843818-.4172898-.0627857-.6114161l.926-1.438-3.712 2.138c-.0754237.0457373-.1617951.0702668-.25.071z" fill="#92d149"/><path id="Path" d="m51.786 59.471c-.2090383-.0000532-.3959807-.1301413-.4686699-.3261344-.0726891-.1959931-.0157811-.4165194.1426699-.5528656l3.159-2.723-5.219 3.012c-.2256086.1271264-.5109479.0609576-.657579-.1524896-.1466312-.2134471-.106025-.5035297.093579-.6685104l4.869-3.942-4.428 2.557c-.2271002.1265913-.5133226.0580067-.6583864-.1577626-.1450637-.2157693-.100553-.506709.1023864-.6692374l3.473-2.7-2.917 1.683c-.2237606.125536-.506225.0613343-.6537387-.148589s-.1121964-.4974311.0817387-.665411l2.059-1.738-1.487.858c-.2135746.1241805-.4858285.073761-.6407697-.118666-.1549412-.1924269-.1461164-.4691694.0207697-.651334l1.178-1.292-.558.322c-.1991965.1152477-.4513319.0796452-.6108298-.0862515-.1594978-.1658967-.1851601-.4192369-.0621702-.6137485l.341-.541c-.1115379-.0392965-.2052343-.1173768-.264-.22-.1382327-.2388784-.0567713-.5445824.182-.683l1.129-.651c.1991965-.1152477.4513319-.0796452.6108298.0862515.1594978.1658967.1851601.4192369.0621702.6137485l-.139.22 1.595-.92c.2132902-.1227487.4841863-.0720462.6386451.1195326.1544588.1915787.14655.4670654-.0186451.6494674l-1.178 1.292 3.574-2.063c.2237606-.125536.506225-.0613343.6537387.148589s.1121964.4974311-.0817387.665411l-2.061 1.736 4.322-2.494c.2271002-.1265913.5133226-.0580067.6583864.1577626.1450637.2157693.100553.506709-.1023864.6692374l-3.471 2.7 3.665-2.113c.2260575-.1301558.5141897-.0646595.6617686.1504288.1475789.2150884.1050107.5074886-.0977686.6715712l-4.869 3.94 4.306-2.485c.2230711-.126215.5054574-.0633143.6538691.1456472.1484117.2089616.1147824.4963073-.0778691.6653528l-3.161 2.725 2.585-1.492c.2218647-.1262356.5031961-.0650788.6526317.1418714.1494355.2069502.1189881.4932377-.0706317.6641286l-1 .885.414-.238c.1924778-.1107495.4349376-.0812796.5952808.0723537.1603433.1536334.2001446.3946128.0977192.5916463l-.625 1.2c.2419824-.0647478.4945325.0595596.5908229.2908082.0962904.2312485.0066006.4980624-.2098229.6241918l-1.358.784c-.1925248.1116249-.4356516.0825702-.5964512-.0712784-.1607996-.1538487-.2005627-.3954551-.0975488-.5927216l.611-1.168-3.17 1.825c-.2218647.1262356-.5031961.0650788-.6526317-.1418714-.1494355-.2069502-.1189881-.4932377.0706317-.6641286l1-.887-2.937 1.693c-.0754832.0456007-.1618163.0701194-.25.071z" fill="#ee3a48"/><g fill="#262626"><path id="Shape" d="m58.475 48.722c-1.2426575-.1080082-2.4923425-.1080082-3.735 0 .065-1.765.8-5.787-.572-6.9-.6590632-.3477104-1.4141055-.469276-2.149-.346-1.432 0-2.8653333 0-4.3 0v-8.915h4.22c.0654573-.0029126.1302936-.0139986.193-.033h.006c.065012-.0149607.1278518-.0381476.187-.069 1.463-.5 1.406-1.67 1.406-3.067v-6.876c0-1.35.191-2.752-1.492-3.07-1.4925476-.1343454-2.9940405-.1366879-4.487-.007h-.023c.041-3.456.5-7.252-.01-10.633-.344-2.273-2.266-2.235-4.092-2.235h-5.903v-3.5c0-1.381 0-2.159-1.548-2.4-2.0455689-.15049907-4.0994311-.15049907-6.145 0-2.086 0-7.351-1.1-7.755 1.868-.1480722 1.32799222-.1815291 2.66626775-.1 4h-5.263c-1.673 0-3.767-.126-4.494 1.785-.593 1.559-.148 3.861-.148 5.482v5.707c-2.381-.178-5.811-.4-6 2.021-.158 2.065 0 4.2 0 6.274 0 1.069-.5 3.58.546 4.338 1.095.794 3.751.26 4.962.26h.492v9.314h-.419c-1.47 0-4.624-.591-5.963.446-1.312 1.016-.8 4.352-.654 6.29-2.084-.136-4.806-.239-4.969 2-.124 1.7 0 3.464 0 5.173 0 .979-.358 2.838.557 3.532.941.714 3.047.307 4.111.307h4.8c.011 0 .023-.006.034-.006.11670792.009588.2341915-.0015848.347-.033 1.473-.4 1.613-1.26 1.613-2.609v-5.489c0-1.184.176-2.474-1.3-2.775-1.231357-.1315682-2.47267443-.1416166-3.706-.03v-2.456c0-.692-.4-2.893-.083-3.5.374-.7 4.045-.382 5.676-.307.113.135.529.121.888 0 1.71-.1 5.468-.677 6.071.93.5 1.341.132 3.609.026 5.284-2.086-.137-4.866-.26-5.03 1.988-.124 1.7 0 3.465 0 5.174 0 .976-.358 2.828.554 3.52.93.705 3.063.294 4.109.294h4.8c.012 0 .025-.006.037-.006.115544.007363.2315026-.0048076.343-.036 1.473-.4 1.618-1.24 1.618-2.593v-5.492c0-1.2.174-2.427-1.294-2.755-1.2289315-.1394332-2.4691646-.1484836-3.7-.027.077-1.7.772-5.836-.629-6.677-.69-.414-2.092-.147-2.82-.147h-3.564v-9.315h3.993c.013 0 .03-.006.044-.007.1127945.0025319.2253439-.0116211.334-.042 1.576-.426 1.629-1.356 1.629-2.776v-6.65c0-1.4.374-2.982-1.36-3.327-1.534165-.1441814-3.0783441-.1468594-4.613-.008h-.027c-.026-3.333-.421-6.914 0-10.2.315-2.433 2.157-1.936 4.012-1.936h4.475c.031.725.06 1.444.06 2.14 0 1.442-.491 3.31 1.263 3.726 1.707.405 3.953.029 5.726.007v6.298c-2.243-.16-5.643-.438-5.989 1.811-.1500023 2.0449196-.1500023 4.0980804 0 6.143 0 1.052-.48 3.5.359 4.352.922.931 3.841.373 4.966.373h5.933c.0248744-.0025926.049581-.0065991.074-.012.1543132.0086701.3089573-.009603.457-.054 1.554-.42 1.659-1.22 1.659-2.663v-6.65c0-1.328.389-2.905-1.258-3.239-1.5726578-.1635438-3.1579324-.1655543-4.731-.006v-6.354h4.97c.017 0 .041-.007.061-.009.1062393-.0059258.2115221-.0233611.314-.052 1.574-.426 1.652-1.266 1.652-2.726v-3.154c2.983-.184 8.1-.849 8.55 2.168.467 3.119.07 6.6.012 9.805-2.526-.189-5.866-.478-6.022 2.34-.121 2.189 0 4.419 0 6.611 0 1.1-.422 3.244.677 3.983 1.161.781 3.814.264 5.07.264h.265v8.875c-1.919-.14-5.022-.6-6.324.43-1.46 1.151-.8 4.856-.7 6.78-1.981-.121-4.742-.186-4.977 1.711-.0930011 1.5425995-.0930011 3.0894005 0 4.632 0 .942-.394 2.91.176 3.757.683 1.014 3.3.535 4.279.535h4.8c.0309541-.0025287.0616949-.0072067.092-.014.1478733-.0007684.2949311-.021969.437-.063.5255887-.0556978 1.0042255-.3278051 1.3209193-.750949s.4428213-.9590799.3480807-1.479051v-5.44c0-1.24.291-2.537-1.25-2.815-1.2443057-.1085051-2.4956943-.1085051-3.74 0v-2.51c0-.722-.37-2.586 0-3.235.625-1.1 4.725-.446 5.928-.446h4.082c.408 0 1.813-.244 2.159 0 1.017.717.479 4.493.379 6.123-1.982-.121-4.769-.2-5.006 1.706-.0935001 1.5425845-.0935001 3.0894155 0 4.632 0 .941-.394 2.91.176 3.756.682 1.011 3.3.533 4.278.533h4.8c.031963-.0028976.0636991-.0079085.095-.015.1466106-.0010498.2923546-.0225916.433-.064.5258008-.0533001 1.0053804-.3239778 1.3227511-.7465689.3173707-.4225912.4436326-.9586144.3482489-1.4784311v-5.44c-.012-1.24.28-2.534-1.261-2.812zm-48.204 1.378c.423 1.124 0 3.2 0 4.373 0 .605.433 3.655-.314 4.056h-3.692c-.937 0-4.087.566-4.536-.625-.423-1.124 0-3.195 0-4.373 0-.925-.437-3.017.016-3.829.333-.6 3.167-.227 3.99-.227.937-.002 4.087-.569 4.536.625zm14 .006c.416 1.14 0 3.182 0 4.373 0 .6.428 3.656-.3 4.069h-3.7c-.957 0-4.1.572-4.542-.65-.416-1.14 0-3.182 0-4.373v-2.5c0-.281-.145-1.067.014-1.338.355-.605 3.139-.234 3.988-.234.956.001 4.095-.571 4.541.647zm-6-28.91c.467 1.3 0 3.627 0 5 0 .631.485 4.9-.292 5.4h-4.7c-1.259 0-5.013.732-5.559-.789-.467-1.3 0-3.627 0-5v-3.439c0-.333-.2-1.447.011-1.748.436-.631 3.55-.274 4.745-.221.2657929.1000457.5602329.091787.82-.023 1.574-.119 4.504-.511 4.98.818zm17 0c.483 1.269 0 3.656 0 5 0 .564.452 4.914-.241 5.5h-4.564c-1.337 0-5.116.755-5.742-.885-.483-1.269 0-3.656 0-5v-3.443c-.0904198-.5954629-.117571-1.1988226-.081-1.8.2-.4.717-.263 1.453-.263h3.246c.239.36.982.278 1.27-.068 1.672-.137 4.166-.349 4.664.957zm-4.641-8.525c-.3368316-.2818038-.8271684-.2818038-1.164 0h-2.53c-.7812626.1220421-1.5767374.1220421-2.358 0-1.509-.645-.859-3.689-.859-5.033v-3.719c0-.411-.264-1.971 0-2.33.54-.729 4.037-.258 5.154-.258h4.178c.7812626-.12204207 1.5767374-.12204207 2.358 0 1.509.645.859 3.689.859 5.033 0 .147.018.446.043.834-.0087318.03319568-.0062714.06834453.007.1.108 1.694.306 4.9-.307 5.368h-5.376zm12.984 18.77c-.281 0-1.3.173-1.534 0-.985-.715-.349-4.458-.349-5.486v-3.439c0-.429-.191-1.384.118-1.745.643-.748 4.1-.21 5.09-.21 1.072 0 4.426-.559 5.145.257.766.868.175 4.14.175 5.229 0 .686.518 4.968-.35 5.392h-8.3zm.657 18.755c.343 1.116 0 2.849 0 4 0 .548.378 3.941-.2 4.525h-3.6c-1.159 0-4.275.629-4.75-.913-.343-1.116 0-2.849 0-4v-2.6c-.0818643-.5466058-.1106651-1.0998485-.086-1.652.0257955-.0661833.0445652-.1348938.056-.205.0790652-.0013017.1559708-.0260089.221-.071.336257-.0530095.678743-.0530095 1.015 0h2.4c.221.386 1.019.293 1.3-.069 1.394-.106 3.287-.191 3.649.983zm5.448 7.612c-.342-1.117 0-2.848 0-4v-2.6c-.0818626-.5472775-.110663-1.1011837-.086-1.654.0253498-.0666729.0441061-.1356692.056-.206.0785497-.0025145.1547993-.0271224.22-.071.3362164-.0535249.6787836-.0535249 1.015 0h2.4c.22.39 1.025.3 1.306-.07 1.394-.107 3.284-.19 3.645.986.342 1.117 0 2.848 0 4 0 .546.377 3.938-.2 4.528h-3.6c-1.162.001-4.275.631-4.751-.915z"/><path id="Path" d="m32.264 4.523c-.3686838-.0355417-.7289654.12504746-.949.423l-2.315 3.085-.333-.331c-.416-.416-1.792.15-1.334.608l1 1c.379.379 1.073.122 1.352-.25l3-4c.221-.299-.191-.505-.421-.535z"/><path id="Path" d="m29.045 27.116-.362-.362c-.262-.262-1.585.273-1.366.492l1 1c.271.271 1.214-.129 1.4-.374l3-4c.158-.21-.532-.145-.579-.138-.3206575.0269176-.6214287.1664981-.849.394z"/><path id="Path" d="m13.192 25.219-1.526-1.526c-.426-.426-1.8.146-1.332.614l1.885 1.885-1.872 1.872c-.226.226.2.217.335.211.3512082-.008377.6908924-.1269692.971-.339l1.155-1.155 1.526 1.526c.426.426 1.8-.146 1.332-.614l-1.885-1.885 1.872-1.872c.226-.226-.2-.217-.335-.212-.3512214.0092024-.6907568.1280923-.971.34z"/><path id="Path" d="m4.746 54.823.574.433c.49911416.1766263 1.05546223.0280019 1.4-.374.33333333-.6666667.66666667-1.3333333 1-2 .129-.257-.5-.2-.592-.184-.264.04-.708.152-.842.42l-.568 1.136c-.495.061-1.17.419-.972.569z"/><path id="Path" d="m19.671 52.711c-.373-.373-1.747.173-1.342.578l.815.815-.736.737c-.1049573.082645-.1505736.2198808-.1159765.3489128s.142752.2250374.2749765.2440872c.3661568.0855539.7508407-.017654 1.025-.275l.3-.3.433.433c.373.373 1.747-.173 1.342-.578l-.815-.815.736-.737c.1049573-.082645.1505736-.2198808.1159765-.3489128s-.142752-.2250374-.2749765-.2440872c-.3661568-.0855539-.7508407.017654-1.025.275l-.3.3z"/><path id="Path" d="m48.338 28.323c.475.475 1.844-.127 1.324-.646l-1.811-1.812 1.733-1.733c.6-.6-.812-.62-1.168-.264l-1.281 1.281-1.473-1.472c-.475-.476-1.844.127-1.324.646l1.811 1.812-1.733 1.733c-.6.6.812.62 1.168.264l1.281-1.281z"/><path id="Path" d="m40.3 52.9-.565 1.129c-.592-.112-1.459.519-.868.965l.574.434c.2095122.1273236.4616807.1643027.6989281.102494.2372475-.0618087.4393176-.217128.5600719-.430494.3333333-.6666667.6666667-1.3333333 1-2 .372-.755-1.094-.8-1.4-.2z"/><path id="Path" d="m54.787 53.812.868-.868c.229-.229-.2-.241-.34-.233-.3517892.0089497-.6915682.129799-.97.345l-.157.157-.522-.523c-.434-.433-1.808.143-1.332.62l.879.878-.868.868c-.229.228.2.241.34.233.3517892-.0089497.6915682-.129799.97-.345l.157-.157.522.523c.434.433 1.808-.143 1.332-.62z"/></g></g></svg>