<svg height="496pt" viewBox="0 -6 496.05672 496" width="496pt" xmlns="http://www.w3.org/2000/svg"><path d="m33.480469 345.96875c-1.796875 0-3.390625-1.164062-3.933594-2.875-.546875-1.714844.078125-3.582031 1.546875-4.621094l18.289062-12.964844-30.445312 17.570313c-1.917969 1.097656-4.363281.488281-5.542969-1.378906-1.179687-1.871094-.675781-4.339844 1.140625-5.597657l21.082032-14.492187-23.0625 13.3125c-1.886719 1.023437-4.246094.433594-5.425782-1.363281-1.175781-1.792969-.78125-4.191406.90625-5.515625l54.066406-39.828125-51.125 29.488281c-1.910156 1.082031-4.335937.480469-5.519531-1.371094-1.179687-1.851562-.703125-4.308593 1.085938-5.582031l38.273437-26.832031-33.855468 19.53125c-1.898438 1.097656-4.324219.523437-5.527344-1.3125-1.199219-1.835938-.753906-4.292969 1.015625-5.589844l54.976562-40.40625-50.457031 29.132813c-1.898438 1.09375-4.316406.515624-5.515625-1.3125-1.199219-1.832032-.761719-4.28125.996094-5.582032l55.742187-41.09375-51.199218 29.574219c-1.238282.796875-2.8125.875-4.125.199219-1.3125-.671875-2.167969-1.996094-2.238282-3.472656-.070312-1.472657.648438-2.875 1.886719-3.671876l41.917969-29.648437-37.464844 21.628906c-1.898438 1.082031-4.3125.492188-5.503906-1.339843-1.191406-1.832032-.746094-4.273438 1.011718-5.574219l51.5625-37.507813-47.070312 27.171875c-1.917969 1.09375-4.363281.488281-5.542969-1.382812-1.179687-1.871094-.675781-4.335938 1.140625-5.597657l29.804688-20.527343-25.402344 14.691406c-1.902344 1.0625-4.304688.46875-5.488281-1.359375-1.179688-1.832031-.738281-4.265625 1.011719-5.5625l48.113281-34.683594-43.636719 25.226563c-1.914062 1.101562-4.355469.5-5.539062-1.363281-1.183594-1.863282-.695313-4.328126 1.113281-5.597657l16.746093-11.707031-12.320312 7.109375c-1.871094 1.066406-4.246094.515625-5.460938-1.265625-1.210937-1.777344-.851562-4.191406.828126-5.539062l25.367187-20.242188-20.734375 11.964844c-1.757812 1.003906-3.984375.582031-5.257812-.992188-1.269532-1.574218-1.214844-3.839844.136718-5.347656l18.027344-19.886719-12.90625 7.433594c-1.710938.980469-3.875.621094-5.167969-.863281-1.296875-1.488282-1.363281-3.679688-.160156-5.238282l4.773437-6.152343c-1.65625-.378907-2.917968-1.730469-3.171874-3.414063-.25-1.679687.550781-3.34375 2.023437-4.195312l13.4375-7.742188c1.710937-1.011718 3.902344-.65625 5.210937.839844 1.304688 1.5 1.359376 3.71875.125 5.277344l-2.984374 3.832031 17.46875-10.101563c1.757812-1.011718 3.992187-.597656 5.269531.984376 1.277343 1.578124 1.21875 3.851562-.140625 5.359374l-17.996094 19.894532 45.585938-26.320313c1.867187-1.058593 4.234374-.511719 5.445312 1.261719 1.214844 1.777344.863281 4.183594-.804688 5.535156l-25.363281 20.234375 46.949219-27.105469c1.914062-1.097656 4.355469-.496093 5.539062 1.367188 1.183594 1.863281.695313 4.328125-1.113281 5.59375l-16.773437 11.738281 32.472656-18.746093c1.898438-1.066407 4.300781-.472657 5.484375 1.359374 1.183594 1.828126.742187 4.261719-1.007813 5.558594l-48.121093 34.644532 44.039062-25.429688c1.921875-1.09375 4.363281-.484375 5.542969 1.382812 1.179688 1.871094.675781 4.335938-1.140625 5.597657l-29.820313 20.539062 25.4375-14.675781c1.898438-1.082031 4.3125-.496094 5.5 1.339844 1.191407 1.832031.75 4.273437-1.007812 5.570312l-51.539062 37.46875 47.070312-27.160156c1.910156-1.101562 4.347656-.507812 5.539062 1.347656 1.1875 1.855469.710938 4.320313-1.089843 5.597656l-41.933594 29.652344 37.5-21.644531c1.894531-1.058594 4.285156-.472656 5.476563 1.34375 1.1875 1.816406.765624 4.242187-.96875 5.550781l-55.742188 41.09375 51.242188-29.589844c1.898437-1.09375 4.324218-.515624 5.523437 1.320313s.753906 4.289063-1.011719 5.585937l-54.976562 40.414063 50.492187-29.152344c1.910157-1.082031 4.335938-.480469 5.515625 1.371094 1.183594 1.855469.707032 4.308594-1.082031 5.582031l-38.277344 26.839844 33.859375-19.546875c1.894532-1.085937 4.308594-.507813 5.503906 1.320313 1.199219 1.828124.765626 4.269531-.988281 5.574218l-54.066406 39.839844 49.550781-28.625c1.917969-1.097656 4.363282-.488281 5.539063 1.382812 1.179687 1.871094.679687 4.335938-1.136719 5.597657l-21.035156 14.464843 16.640625-9.601562c1.910156-1.101562 4.347656-.507812 5.539062 1.347656 1.191407 1.855469.710938 4.320313-1.089843 5.597656l-18.304688 12.972657 13.871094-8.011719c1.894531-1.085938 4.308594-.507812 5.507812 1.320312 1.195313 1.828126.761719 4.273438-.988281 5.578126l-11.636719 8.59375 7.160156-4.128907c1.875-1.058593 4.246094-.5 5.453126 1.285157 1.203124 1.78125.835937 4.195312-.847657 5.535156l-6.035156 4.734375 1.4375-.828125c1.683594-.964844 3.8125-.625 5.117187.816406 1.300782 1.441406 1.421876 3.59375.292969 5.171875l-10.582031 14.691406 5.195312-2.996093c1.480469-.859376 3.339844-.714844 4.671876.363281 1.328124 1.078125 1.855468 2.863281 1.324218 4.492187l-1.777344 5.425782c1.25.753906 2.007813 2.113281 1.992188 3.574218-.011719 1.460938-.800781 2.804688-2.066406 3.535156l-4.128906 2.378907c-1.480469.859375-3.34375.714843-4.675782-.363281-1.328125-1.082032-1.855468-2.875-1.316406-4.503907l.773438-2.367187-12.535157 7.199218c-1.683593.96875-3.8125.632813-5.113281-.808593-1.304688-1.4375-1.429688-3.589844-.304688-5.167969l10.605469-14.667969-35.832031 20.644531c-1.875 1.058594-4.246094.5-5.453125-1.28125-1.203125-1.785156-.835937-4.195312.84375-5.539062l6.039063-4.722656-20.003907 11.542968c-1.894531 1.085938-4.308593.507813-5.503906-1.320312-1.199219-1.828125-.765625-4.269531.988281-5.574219l11.617188-8.5625-26.796875 15.457031c-.621094.378907-1.335938.578126-2.0625.585938zm0 0" fill="#35ba9b"/><path d="m263.152344 481.203125c-1.675782 0-3.183594-1.011719-3.820313-2.5625-.632812-1.550781-.269531-3.328125.921875-4.503906l3.164063-3.125-5.277344 3.039062c-1.746094.996094-3.953125.589844-5.230469-.957031-1.277344-1.550781-1.253906-3.792969.050782-5.316406l16.945312-19.515625-23.996094 13.859375c-1.804687 1.070312-4.128906.613281-5.398437-1.058594-1.265625-1.675781-1.078125-4.035156.445312-5.484375l21.363281-20.703125-27.855468 16.089844c-1.832032 1.058594-4.171875.558594-5.410156-1.15625-1.242188-1.714844-.984376-4.09375.59375-5.5l26.988281-24.140625-33.757813 19.488281c-1.886718 1.0625-4.273437.484375-5.464844-1.320312-1.195312-1.808594-.792968-4.226563.921876-5.550782l14.675781-11.0625-17.894531 10.371094c-1.863282 1.0625-4.230469.523438-5.449219-1.242188-1.214844-1.761718-.878907-4.164062.773437-5.53125l36.824219-30.132812-43.96875 25.34375c-1.90625 1.089844-4.332031.492188-5.515625-1.351562-1.1875-1.847657-.722656-4.300782 1.058594-5.585938l18.167968-12.945312-21.414062 12.386718c-1.90625 1.105469-4.34375.519532-5.539062-1.332031-1.195313-1.851563-.726563-4.316406 1.0625-5.597656l28.382812-20.398438-32.609375 18.828125c-1.890625 1.082032-4.292969.511719-5.496094-1.300781-1.203125-1.816406-.789062-4.253906.945313-5.570313l50.613281-38.167968-57.929687 33.445312c-1.898438 1.097656-4.324219.519532-5.523438-1.316406s-.753906-4.289062 1.015625-5.585938l55.441406-40.671874-62.636719 36.152343c-1.902343 1.0625-4.304687.460938-5.484374-1.375-1.175782-1.835937-.722657-4.269531 1.035156-5.558593l53.542968-37.765626-59.628906 34.417969c-1.902344 1.039063-4.285156.429688-5.453125-1.398437-1.171875-1.824219-.730469-4.242188 1.007813-5.535156l63.976562-45.117188-70.921875 40.945312c-1.921875 1.117188-4.382812.507813-5.566406-1.375-1.183594-1.878906-.664063-4.363281 1.175781-5.613281l60.546875-41.414062-66.4375 38.359375c-1.933593 1.101562-4.390625.46875-5.554687-1.421875-1.167969-1.894531-.621094-4.375 1.230468-5.605469l38.777344-25.457031-38.984375 22.492187c-1.257812.769532-2.832031.8125-4.128906.105469-1.296875-.703125-2.117187-2.046875-2.15625-3.519531-.035156-1.476563.714844-2.859375 1.972656-3.628906l30.390625-19.695313-26.078125 15.054687c-1.941406 1.101563-4.40625.46875-5.566406-1.4375-1.164063-1.902343-.605469-4.386718 1.261719-5.605468l29.789062-19.300782-25.492187 14.714844c-1.933594 1.101563-4.390625.46875-5.558594-1.421875-1.164063-1.894531-.621094-4.375 1.230469-5.605469l42.851562-28.078124-38.523437 22.230468c-1.929688 1.082032-4.367188.449219-5.53125-1.433594-1.160157-1.878906-.632813-4.34375 1.195312-5.585937l48.433594-31.933594-44.105469 25.460938c-1.9375 1.050781-4.355468.394531-5.5-1.488281-1.140625-1.882813-.605468-4.332032 1.21875-5.5625l3.644532-2.332032c-1.972657.710938-4.164063-.164062-5.097657-2.039062-.933593-1.878906-.316406-4.15625 1.4375-5.300782l19.820313-12.757812-15.535156 8.96875c-1.914063 1.082031-4.339844.46875-5.519532-1.390625-1.175781-1.859375-.6875-4.3125 1.113282-5.582031l80.40625-55.507813-75.972657 43.882813c-1.917969 1.082031-4.34375.46875-5.519531-1.386719-1.175781-1.859375-.6875-4.316406 1.109375-5.582031l80.101563-55.238282-75.675782 43.683594c-1.929687 1.117188-4.394531.503906-5.574218-1.386718-1.179688-1.890626-.644532-4.375 1.207031-5.617188l64.328125-43.246094-59.960938 34.617188c-1.929687 1.117187-4.394531.503906-5.574218-1.386719-1.179688-1.890625-.644532-4.375 1.207031-5.617187l64.527343-43.378907-60.167968 34.734375c-1.917969 1.097656-4.363282.488282-5.542969-1.382812s-.675781-4.335938 1.140625-5.597656l76.949219-52.773438-72.554688 41.882812c-1.917969 1.050782-4.324219.425782-5.484375-1.429687-1.160156-1.851563-.675781-4.289063 1.105469-5.554687l69.863281-47.355469-65.492187 37.816406c-1.933594 1.148437-4.429688.539063-5.617188-1.371094-1.1875-1.90625-.628906-4.414062 1.253907-5.640625l60.285156-40.292968-55.914063 32.28125c-1.921875 1.066406-4.339843.4375-5.503906-1.421876-1.164063-1.863281-.664063-4.3125 1.132813-5.570312l61.796874-41.398438-50.183593 28.96875c-1.925781 1.097657-4.371094.480469-5.546875-1.398437-1.171875-1.875-.65625-4.34375 1.167968-5.597656l61.300782-41.460938-12.253906 7.074219c-1.890626 1.070312-4.285157.492188-5.480469-1.320312-1.191407-1.8125-.78125-4.242188.945312-5.558594l54.089844-40.4375c-1.375-.023438-2.65625-.691406-3.46875-1.800782-1.21875-1.78125-.859375-4.207031.828125-5.558593l26.648438-21.171875c-.730469-1.894532.027343-4.039063 1.785156-5.054688l17.007812-9.785156c1.875-1.097656 4.277344-.5546875 5.5 1.242188 1.21875 1.796874.84375 4.230468-.867187 5.570312l-1.261719 1 6.960938-4.039062c1.890624-1.066407 4.285156-.488282 5.476562 1.324218 1.195312 1.8125.785156 4.238282-.941406 5.554688l-50.582032 37.738281 51.992188-29.992187c1.925781-1.097657 4.371094-.480469 5.546875 1.398437 1.171875 1.875.660156 4.34375-1.167969 5.597656l-61.332031 41.476563 56.980469-32.875c1.917968-1.035156 4.3125-.402344 5.464844 1.449218 1.15625 1.851563.671874 4.28125-1.105469 5.546876l-61.789063 41.398437 57.402344-33.15625c1.933594-1.148437 4.429688-.539063 5.617188 1.367187 1.1875 1.910157.628906 4.417969-1.253907 5.644532l-60.285156 40.304687 55.921875-32.289062c1.917969-1.050781 4.324219-.421875 5.484375 1.429687 1.160156 1.855469.675781 4.292969-1.105469 5.558594l-69.78125 47.269531 65.410156-37.765625c1.914063-1.054687 4.316407-.433594 5.484376 1.414063 1.167968 1.847656.691406 4.28125-1.082032 5.558593l-76.957031 52.785157 72.546875-41.8125c1.921875-1.0625 4.339844-.4375 5.503906 1.425781 1.164063 1.863281.664063 4.308594-1.132812 5.570312l-64.496094 43.363282 60.125-34.683594c1.929688-1.117188 4.394531-.503906 5.574219 1.386719 1.179687 1.890625.648437 4.375-1.203125 5.613281l-64.414063 43.28125 60.019531-34.640625c1.914063-1.082031 4.34375-.472656 5.519532 1.386719 1.175781 1.859375.6875 4.3125-1.109375 5.582031l-80.105469 55.253906 75.6875-43.691406c1.914062-1.082031 4.34375-.472656 5.519531 1.386719s.6875 4.3125-1.109375 5.582031l-80.402344 55.5 75.976563-43.875c1.933594-1.0625 4.363281-.414063 5.515625 1.46875 1.148438 1.886719.609375 4.34375-1.222656 5.578125l-19.769532 12.714844 15.476563-8.933594c1.941406-1.109375 4.417969-.46875 5.578125 1.445312 1.160156 1.914063.582031 4.40625-1.300781 5.617188l-3.644531 2.320312c1.964843-.714843 4.152343.152344 5.09375 2.015626.945312 1.867187.347656 4.140624-1.394532 5.300781l-48.464844 31.957031 44.1875-25.523438c1.933594-1.101562 4.390626-.472656 5.558594 1.421876 1.164063 1.894531.621094 4.371093-1.230468 5.605468l-42.941407 28.140625 38.605469-22.296875c1.933594-1.046875 4.347656-.398437 5.492188 1.476563 1.148437 1.875.625 4.320312-1.1875 5.5625l-29.640626 19.199219 25.335938-14.617188c1.9375-1.082031 4.378906-.441406 5.535156 1.445312 1.160156 1.890626.617188 4.355469-1.222656 5.589844l-30.480469 19.761719 26.167969-15.105469c1.929688-1.046875 4.339844-.40625 5.488281 1.460938 1.152344 1.867187.640625 4.308594-1.160156 5.558594l-38.8125 25.445312 34.492187-19.929688c1.925782-1.113281 4.386719-.507812 5.570313 1.375 1.183594 1.882813.664063 4.363282-1.175781 5.613282l-60.546875 41.40625 56.152343-32.414063c1.910157-1.070312 4.324219-.46875 5.503907 1.375 1.175781 1.84375.714843 4.289063-1.058594 5.570313l-63.96875 45.105468 59.523437-34.371093c1.910157-1.070313 4.324219-.46875 5.503907 1.375 1.175781 1.84375.714843 4.289062-1.058594 5.570312l-53.546875 37.765625 49.101562-28.34375c1.898438-1.09375 4.324219-.515625 5.523438 1.320313 1.199219 1.835937.753906 4.289062-1.011719 5.585937l-55.453125 40.679688 50.941406-29.40625c1.890626-1.0625 4.273438-.484375 5.46875 1.320312 1.191407 1.808594.789063 4.226563-.925781 5.546875l-50.605469 38.164063 46.0625-26.59375c1.90625-1.105469 4.34375-.519532 5.539063 1.332031 1.199219 1.851563.730469 4.3125-1.0625 5.597656l-28.390625 20.398438 23.949219-13.800781c1.90625-1.085938 4.332031-.492188 5.519531 1.355468 1.1875 1.84375.722656 4.296875-1.0625 5.582032l-18.164062 12.933593 13.671874-7.886719c1.863282-1.066406 4.230469-.527343 5.449219 1.238282 1.214844 1.765625.882813 4.167968-.773437 5.53125l-36.832032 30.132812 32.15625-18.554687c1.890626-1.058594 4.273438-.480469 5.46875 1.324219 1.191407 1.804687.789063 4.226562-.925781 5.546874l-14.625 11.074219 10.09375-5.78125c1.832031-1.058593 4.167969-.558593 5.410157 1.15625 1.238281 1.714844.980468 4.089844-.597657 5.5l-27.019531 24.097657 22.195312-12.800782c1.808594-1.070312 4.128907-.617187 5.398438 1.058594 1.269531 1.671875 1.078125 4.03125-.441406 5.480469l-21.363282 20.695312 16.433594-9.480469c1.746094-1.003906 3.960938-.601562 5.242188.953126 1.28125 1.558593 1.253906 3.808593-.066406 5.332031l-16.9375 19.507812 11.777343-6.789062c1.796875-1.011719 4.0625-.542969 5.308594 1.097656 1.25 1.636719 1.097656 3.945313-.355469 5.410156l-3.738281 3.699219c1.980469-.410156 3.964844.679688 4.6875 2.570312.722656 1.890626-.03125 4.027344-1.78125 5.042969l-26.046875 15.027344c-.632812.375-1.359375.570313-2.097656.5625zm0 0" fill="#46ceac"/><path d="m448.191406 279.90625c-1.867187 0-3.503906-1.257812-3.988281-3.0625s.304687-3.707031 1.921875-4.644531l39.210938-22.625c1.664062-.964844 3.777343-.648438 5.085937.757812 1.3125 1.410157 1.476563 3.535157.398437 5.128907l-5.261718 7.738281c2.007812-1.050781 4.484375-.289063 5.554687 1.707031 1.070313 1.992188.335938 4.476562-1.648437 5.570312l-15.359375 8.84375c-1.664063.957032-3.773438.640626-5.082031-.765624-1.3125-1.40625-1.476563-3.53125-.402344-5.125l5.261718-7.734376-23.625 13.625c-.625.371094-1.339843.574219-2.066406.585938zm0 0" fill="#b4df80"/><path d="m385.59375 329.460938c-1.738281.007812-3.292969-1.078126-3.890625-2.710938-.597656-1.628906-.105469-3.460938 1.226563-4.578125l17.429687-14.660156-26.027344 15.023437c-1.929687 1.117188-4.394531.503906-5.574219-1.386718-1.179687-1.890626-.644531-4.378907 1.203126-5.617188l15.691406-10.570312-11.347656 6.546874c-1.914063 1.082032-4.339844.472657-5.519532-1.386718-1.175781-1.859375-.6875-4.3125 1.113282-5.582032l30.628906-21.089843-26.203125 15.128906c-1.898438 1.070313-4.300781.484375-5.488281-1.34375-1.191407-1.824219-.757813-4.257813.988281-5.5625l52.023437-37.984375-49.828125 28.710938c-1.882812 1.066406-4.269531.496093-5.46875-1.304688s-.808593-4.222656.902344-5.546875l38.714844-29.515625-57.71875 33.289062c-1.875 1.042969-4.238281.476563-5.4375-1.304687-1.195313-1.78125-.828125-4.183594.847656-5.527344l44.503906-34.558593-63.589843 36.699218c-1.921876 1.078125-4.355469.453125-5.523438-1.417968-1.164062-1.875-.652344-4.335938 1.164062-5.585938l13.214844-8.886719-8.886718 5.128907c-1.90625 1.089843-4.332032.496093-5.519532-1.351563s-.722656-4.300781 1.058594-5.585937l43.917969-31.214844-39.425781 22.800781c-1.714844.976563-3.878907.605469-5.167969-.890625-1.292969-1.492188-1.34375-3.691406-.125-5.246094l14.097656-17.761718-8.8125 5.085937c-1.554687.867187-3.488281.644531-4.800781-.558594s-1.707032-3.109375-.980469-4.734375l2.742187-6.011718c-1.636718-.40625-2.859374-1.765626-3.09375-3.4375-.230468-1.667969.574219-3.3125 2.039063-4.152344l7.273437-4.183594c1.554688-.867188 3.488282-.644531 4.800782.558594s1.707031 3.109375.980468 4.734375l-1.90625 4.175781 16.414063-9.445312c1.71875-.996094 3.898437-.625 5.195313.875 1.292968 1.5 1.339843 3.707031.109374 5.261718l-14.097656 17.761719 96.339844-55.617187c1.90625-1.089844 4.332031-.492188 5.515625 1.351562 1.1875 1.847656.722656 4.300781-1.058594 5.585938l-43.914062 31.214843 39.457031-22.777343c1.921875-1.078126 4.355469-.453126 5.523438 1.421874 1.164062 1.871094.652343 4.332032-1.164063 5.582032l-13.214844 8.851562 9.53125-5.492187c1.875-1.042969 4.238281-.476563 5.4375 1.304687 1.195313 1.78125.828125 4.183594-.847656 5.527344l-44.507813 34.582031 61.363282-35.433593c1.882812-1.066407 4.269531-.496094 5.46875 1.304687 1.203125 1.800781.808594 4.222656-.902344 5.550781l-38.671875 29.480469 60.53125-34.925781c1.894531-1.039063 4.265625-.445313 5.445313 1.363281 1.179687 1.808594.769531 4.21875-.945313 5.535156l-52.023437 37.984375 48.539062-28.027344c1.917969-1.082031 4.34375-.46875 5.519531 1.390626 1.175781 1.855468.6875 4.3125-1.109375 5.582031l-30.613281 21.121093 26.203125-15.121093c1.921875-1.0625 4.339844-.4375 5.503906 1.425781 1.164063 1.863281.664063 4.3125-1.132812 5.570312l-48.21875 32.453126c.285156.238281.535156.515624.742187.828124 1.230469 1.75.917969 4.152344-.71875 5.53125l-17.433593 14.617188 11.695312-6.746094c1.820312-1.058594 4.144531-.574218 5.394531 1.121094 1.25 1.691406 1.023438 4.058594-.523437 5.484375l-5.699219 5.285156.828125-.46875c1.511719-.867187 3.410156-.6875 4.734375.449219s1.792969 2.980469 1.167969 4.613281l-3.460938 8.941407c1.792969.171874 3.265625 1.484374 3.644532 3.242187.375 1.761719-.429688 3.5625-1.992188 4.453125l-7.273438 4.1875c-1.519531.859375-3.414062.6875-4.75-.4375-1.332031-1.140625-1.800781-2.996094-1.164062-4.632812l3.023438-7.8125-22.296876 12.882812c-1.820312 1.058594-4.148437.574219-5.398437-1.117188-1.25-1.695312-1.023437-4.0625.523437-5.488281l5.667969-5.253906-20.546875 11.851563c-.625.378906-1.335937.582031-2.066406.59375zm0 0" fill="#b4df80"/><path d="m371.472656 208.804688c-1.757812-.003907-3.320312-1.121094-3.894531-2.785157-.570313-1.660156-.03125-3.503906 1.351563-4.589843l9.910156-7.746094-4.5 2.601562c-1.699219.976563-3.855469.625-5.152344-.84375-1.300781-1.46875-1.386719-3.652344-.207031-5.21875l11.941406-15.878906-6.605469 3.789062c-1.59375.914063-3.59375.664063-4.917968-.605468-1.320313-1.269532-1.644532-3.261719-.796876-4.886719l2.070313-3.980469c-.84375-.347656-1.550781-.964844-2.003906-1.757812-.550781-.949219-.703125-2.078125-.417969-3.136719.285156-1.0625.976562-1.964844 1.925781-2.511719l7.300781-4.203125c1.59375-.925781 3.605469-.683593 4.933594.59375 1.328125 1.277344 1.648438 3.277344.789063 4.90625l-.683594 1.296875 11.800781-6.746094c1.699219-.980468 3.851563-.632812 5.152344.835938 1.300781 1.464844 1.390625 3.644531.214844 5.214844l-11.972656 15.863281 38.042968-21.914063c1.875-1.042968 4.230469-.476562 5.425782 1.300782 1.199218 1.773437.839843 4.171875-.824219 5.519531l-9.851563 7.703125 15.265625-8.8125c1.960938-1.023438 4.382813-.320312 5.492188 1.59375 1.105469 1.917969.507812 4.363281-1.363281 5.550781l-66.359376 38.328125c-.628906.351563-1.34375.53125-2.066406.519532zm0 0" fill="#b4df80"/><g fill="#262626"><path d="m2.683594 302.988281c0 12.757813-3.457032 30.554688 8.582031 39.101563 10.386719 7.429687 33.5625 3.121094 44.824219 3.121094h63.234375l91.050781 88.9375c13.972656 13.652343 42.886719 56.363281 67.121094 50.523437 24.421875-5.878906 17.988281-38.769531 17.988281-56.980469v-313.410156c0-28.820312 5.269531-63.15625 0-91.613281-5.648437-30.5-27.011719-24.773438-45.535156-9.8125-37.871094 30.554687-72.234375 66.941406-107.933594 100.015625-7.800781 5.816406-15.003906 12.394531-21.511719 19.628906h-59.625c-12.726562 0-33.351562-3.742188-45.535156 2.957031-24.019531 13.226563-12.660156 67.113281-12.660156 88.832031zm198.707031-232.507812 47.824219-44.320313c10.5625-9.785156 23.121094-30.117187 34.171875-3.007812 7.214843 17.714844 0 53.679687 0 72.410156v274.769531c0 24.261719 7.894531 64.3125 0 87.535157-.539063 1.585937.824219 4.394531 0 5.878906-8.257813 15.226562-14.957031 7.910156-22.917969 3.425781-16.167969-9.082031-31.429688-30.695313-44.652344-43.609375l-85.484375-83.53125v-163.003906c0-.5625-.050781-1.246094-.074219-1.859375v-39.347657c0-.074218 0-.175781.074219-.257812 6.730469-16.640625 53.847657-49.136719 71.058594-65.082031zm-171.253906 68.277343c12.0625-3.574218 29.679687 0 42.207031 0 7.851562 0 37.035156-4.464843 45.417969-.371093-4.476563 14.304687.503906 39.761719.503906 53.679687v146.882813h-71.996094c-30.785156 0-31.625-16.515625-31.625-42.113281v-98.910157c0-20.5625-7.484375-52.386719 15.492188-59.167969zm0 0"/><path d="m444.0625 184.589844c0-32.289063-5.78125-27.078125-36.550781-27.078125-17.820313 0-36.804688-5.78125-41.472657 13.3125-3.433593 14.039062 6.476563 30.917969-6.976562 36.238281-10.117188 3.996094-24.578125-4.128906-34.683594.988281-6.886718 3.503907-5.953125 3.933594-7.894531 10.835938-3.324219 16.972656-3.324219 34.425781 0 51.398437 7.429687 21.191406 40.554687-3.980468 49.546875 16.863282 10.96875 25.433593-13.742188 41.289062 21.800781 41.289062 12.824219 0 48.816407 7.597656 56.15625-7.925781 5.039063-10.613281-6.605469-34.445313 2.839844-41.621094 8.457031-6.402344 28.515625 4.269531 38.8125-.992187 17.21875-8.761719 7.894531-48.722657 7.894531-65.4375-9.546875-23.230469-49.472656 14.75-49.472656-27.871094zm37.210938 88.535156c-13.214844 8.777344-37.988282-9.628906-47.898438 9.132812-4.128906 7.855469-1.648438 22.605469-1.246094 31.140626.175782 3.601562-.148437 11.085937 2.289063 9.277343-2.882813 2.136719-13.964844 0-17.78125 0-6.367188 0-32.386719 3.929688-37.160157 0-6.605468-5.445312.207032-27.527343-1.453124-35.3125-5.664063-26.65625-26.171876-4.882812-44.246094-14.238281-8.539063-4.417969-10.183594-49.5-5.304688-59.804688.046875-.105468.074219-.222656.074219-.339843l.308594-.140625c3.589843-.382813 7.210937-.382813 10.800781 0 6.222656.394531 12.464844.394531 18.6875 0 5.886719.277344 11.679688-1.527344 16.367188-5.101563 4.898437-5.410156 3.304687-13.652343 3.304687-20.214843-.777344-6.613282-.777344-13.292969 0-19.902344.601563-2.121094.214844-3.179688-.355469-3.699219 1.742188-.070313 3.476563-.277344 5.183594-.628906 8.160156-1.484375 38.507812-4.203125 45.460938 0 8.101562 4.890625 2.890624 23.273437 3.816406 32.84375 1.039062 10.816406.910156 13.460937 11.777344 16.703125 7.941406 2.371094 34.335937-5.441406 37.769531 2.84375v31.984375c.609375 8.480469.476562 17-.394531 25.457031zm0 0"/><path d="m242.144531 392.3125v16.519531c0 5.265625 12.007813 2.871094 12.007813-1.371093v-16.515626c0-5.269531-12.007813-2.875-12.007813 1.367188zm0 0"/><path d="m254.191406 358.101562v-231.226562c0-6.078125-12.089844-4.128906-12.089844.992188v231.226562c0 6.109375 12.089844 4.160156 12.089844-.992188zm0 0"/><path d="m254.125 92.738281v-16.519531c0-2.113281-11.957031-.371094-11.957031 3.207031v16.515625c0 2.113282 11.957031.371094 11.957031-3.203125zm0 0"/></g></svg>