<svg id="Icons" height="512" viewBox="0 0 60 60" width="512" xmlns="http://www.w3.org/2000/svg"><path d="m43.339 16.128a.5.5 0 0 1 -.334-.872l1.16-1.038-3.034 1.751a.5.5 0 1 1 -.5-.865l7.21-4.164a.5.5 0 0 1 .584.8l-1.159 1.038 2.116-1.221a.5.5 0 0 1 .611.778l-.763.8 1.666-.961a.5.5 0 0 1 .5.865l-4.689 2.707a.5.5 0 0 1 -.611-.778l.761-.8-3.268 1.887a.5.5 0 0 1 -.25.073z" fill="#a389e1"/><path d="m29.377 37.373a.5.5 0 0 1 -.3-.9l5.723-4.283-8.08 4.665a.5.5 0 0 1 -.538-.841l6-4.222-8.073 4.66a.5.5 0 0 1 -.534-.844l7.289-5.029-9.45 5.456a.5.5 0 0 1 -.529-.847l7.867-5.288-9.929 5.732a.5.5 0 0 1 -.525-.85l8.616-5.7-8.962 5.174a.5.5 0 0 1 -.523-.852l7.571-4.928-6.384 3.684a.5.5 0 0 1 -.517-.854l2.18-1.385-1.168.674a.5.5 0 0 1 -.519-.854l3.477-2.229-2.425 1.4a.5.5 0 0 1 -.525-.85l12.574-8.262-11.215 6.474a.5.5 0 0 1 -.527-.849l10.49-6.944-9.173 5.3a.5.5 0 0 1 -.517-.855l.927-.586a.5.5 0 0 1 -.472-.877l6.337-4.2-5.156 2.976a.5.5 0 0 1 -.528-.848l4.571-3.041-3.442 1.986a.5.5 0 0 1 -.541-.839l6.681-4.797-5.328 3.081a.5.5 0 0 1 -.551-.832l5.4-4.07-4.034 2.328a.5.5 0 0 1 -.553-.829l3.189-2.448-1.962 1.133a.5.5 0 0 1 -.569-.818l2.28-1.889-1.04.6a.5.5 0 0 1 -.58-.809l.978-.857a.5.5 0 0 1 -.468-.831l.821-.877a.5.5 0 0 1 -.018-.876l1.887-1.089a.5.5 0 0 1 .615.775l-.274.293 1.23-.71a.5.5 0 0 1 .581.808l-.88.772 1.754-1.015a.5.5 0 0 1 .57.817l-2.276 1.889 3.492-2.016a.5.5 0 0 1 .553.83l-3.194 2.448 4.458-2.573a.5.5 0 0 1 .551.832l-5.4 4.07 7.031-4.059a.5.5 0 0 1 .541.839l-6.68 4.793 8.305-4.794a.5.5 0 0 1 .527.849l-4.577 3.046 5.648-3.261a.5.5 0 0 1 .675.17.5.5 0 0 1 -.148.68l-6.328 4.19 7.527-4.346a.5.5 0 0 1 .519.856l-.846.535 1.554-.9a.5.5 0 0 1 .675.169.5.5 0 0 1 -.148.68l-10.5 6.948 12.054-6.959a.5.5 0 0 1 .525.851l-12.569 8.262 6.083-3.512a.5.5 0 0 1 .519.854l-3.47 2.224 3.106-1.793a.5.5 0 0 1 .517.855l-2.2 1.4 1.826-1.054a.5.5 0 0 1 .524.852l-7.556 4.924 7.225-4.171a.5.5 0 0 1 .525.85l-8.625 5.7 8.312-4.8a.5.5 0 0 1 .673.168.5.5 0 0 1 -.144.68l-7.86 5.287 7.549-4.359a.5.5 0 0 1 .534.844l-7.287 5.027 6.974-4.026a.5.5 0 0 1 .538.842l-6.008 4.222 5.682-3.28a.5.5 0 0 1 .55.833l-5.724 4.282 5.414-3.125a.5.5 0 0 1 .543.838l-1.932 1.4 1.55-.9a.5.5 0 0 1 .575.814l-1.806 1.538 1.416-.818a.5.5 0 0 1 .7.641l-.625 1.377.157-.09a.5.5 0 1 1 .5.865l-1.512.873a.5.5 0 0 1 -.7-.64l.629-1.376-4.831 2.789a.5.5 0 0 1 -.574-.814l1.806-1.535-5.131 2.962a.5.5 0 0 1 -.543-.838l1.937-1.4-4.349 2.51a.491.491 0 0 1 -.255.067z" fill="#a389e1"/><path d="m16.583 45.5a.5.5 0 0 1 -.277-.916l2.06-1.374-3.086 1.779a.5.5 0 0 1 -.543-.838l5.269-3.808-4.727 2.728a.5.5 0 0 1 -.556-.828l4-3.1-3.441 1.987a.5.5 0 0 1 -.55-.832l.969-.731-.419.242a.5.5 0 0 1 -.633-.753l1.829-2.185-1.2.69a.5.5 0 0 1 -.662-.715l.407-.594a.491.491 0 0 1 -.282-.227.5.5 0 0 1 .183-.682l1.3-.751a.5.5 0 0 1 .662.716l-.2.284 1.733-1a.5.5 0 0 1 .634.754l-1.83 2.185 5.095-2.931a.5.5 0 0 1 .551.832l-.971.73 2.707-1.562a.5.5 0 0 1 .557.828l-4 3.095 6.8-3.923a.5.5 0 0 1 .543.838l-5.269 3.808 8.048-4.646a.5.5 0 0 1 .528.848l-2.061 1.374 3.849-2.222a.5.5 0 0 1 .529.847l-2.823 1.9 4.764-2.747a.5.5 0 0 1 .525.85l-.424.279 1.955-1.129a.5.5 0 0 1 .537.842l-4.92 3.451 7.439-4.293a.5.5 0 0 1 .524.85l-.36.237 1.883-1.087a.5.5 0 0 1 .53.846l-3.11 2.1 3.908-2.255a.5.5 0 0 1 .526.85l-.6.4.242-.139a.5.5 0 0 1 .557.827l-4.8 3.757 4.253-2.456a.5.5 0 0 1 .591.8l-3.24 3.019 2.657-1.533a.5.5 0 0 1 .614.776l-1.167 1.23.559-.322a.5.5 0 0 1 .736.55l-.285 1.172a.5.5 0 0 1 .054.892l-.5.289a.5.5 0 0 1 -.736-.549l.219-.908-2.537 1.46a.5.5 0 0 1 -.613-.776l1.17-1.23-3.483 2.01a.5.5 0 0 1 -.59-.8l3.24-3.018-6.624 3.821a.5.5 0 0 1 -.558-.826l4.8-3.757-7.942 4.587a.5.5 0 0 1 -.526-.85l.61-.4-2.176 1.256a.5.5 0 0 1 -.531-.847l3.108-2.1-5.114 2.952a.5.5 0 0 1 -.525-.851l.359-.234-1.884 1.087a.5.5 0 0 1 -.537-.842l4.921-3.452-7.444 4.3a.5.5 0 0 1 -.524-.851l.433-.284-1.969 1.137a.5.5 0 0 1 -.53-.848l2.822-1.9-4.764 2.75a.494.494 0 0 1 -.246.06z" fill="#45738a"/><path d="m30.313 56.447a.5.5 0 0 1 -.273-.919l2.26-1.477-3.976 2.295a.5.5 0 0 1 -.539-.841l8.769-6.2-11.954 6.895a.5.5 0 0 1 -.538-.842l8.859-6.209-11.97 6.914a.5.5 0 0 1 -.536-.842l8.464-5.9-11.127 6.422a.5.5 0 0 1 -.537-.842l8.246-5.787-10.888 6.286a.5.5 0 0 1 -.532-.845l6.537-4.462-8.691 5.017a.5.5 0 0 1 -.539-.84l7.705-5.47-10.116 5.841a.5.5 0 0 1 -.526-.85l3.373-2.235-4.779 2.758a.5.5 0 0 1 -.522-.852l.323-.209-1.377.8a.5.5 0 0 1 -.529-.853l4.033-2.728-5.586 3.228a.5.5 0 0 1 -.53-.847l3.148-2.123-4.265 2.464a.5.5 0 0 1 -.534-.843l4.021-2.784-3.787 2.182a.5.5 0 0 1 -.5-.865l14.358-8.284a.5.5 0 0 1 .534.843l-4.021 2.784 6.285-3.627a.5.5 0 0 1 .529.847l-3.15 2.12 5.14-2.967a.5.5 0 0 1 .53.846l-4.034 2.73 6.2-3.576a.5.5 0 0 1 .521.852l-.323.209 1.84-1.061a.5.5 0 0 1 .526.849l-3.367 2.232 5.332-3.081a.5.5 0 0 1 .539.841l-7.704 5.459 10.929-6.3a.5.5 0 0 1 .533.845l-6.536 4.455 9.194-5.307a.5.5 0 0 1 .537.842l-8.246 5.788 11.483-6.63a.5.5 0 0 1 .536.843l-8.464 5.9 11.684-6.745a.5.5 0 0 1 .537.842l-8.855 6.207 11.487-6.63a.5.5 0 0 1 .539.841l-8.769 6.2 10.211-5.9a.5.5 0 0 1 .523.852l-2.258 1.484 2.882-1.663a.5.5 0 0 1 .522.853l-.012.007.487-.281a.5.5 0 0 1 .524.852l-.055.035.532-.307a.5.5 0 0 1 .55.833l-5.53 4.135 6.786-3.918a.5.5 0 0 1 .531.846l-.473.321.98-.564a.5.5 0 0 1 .536.843l-.689.481 1.22-.7a.5.5 0 0 1 .555.829l-1.895 1.456 2.649-1.531a.5.5 0 0 1 .6.793l-2 1.915 3.039-1.755a.5.5 0 0 1 .6.791l-.524.511.964-.557a.5.5 0 0 1 .672.7l-.286.447a.536.536 0 0 1 .443.25.5.5 0 0 1 -.183.683l-1.462.845a.5.5 0 0 1 -.672-.7l.215-.335-2.657 1.533a.5.5 0 0 1 -.6-.791l.523-.509-3.142 1.813a.5.5 0 0 1 -.6-.793l1.995-1.916-5.635 3.261a.5.5 0 0 1 -.555-.829l1.894-1.456-4.672 2.7a.5.5 0 0 1 -.536-.842l.683-.478-2.656 1.525a.5.5 0 0 1 -.531-.845l.476-.325-2.384 1.376a.5.5 0 0 1 -.55-.833l5.528-4.134-8.993 5.191a.5.5 0 0 1 -.523-.852l.048-.031-1.643.948a.5.5 0 0 1 -.522-.852l.016-.01-1.607.927a.494.494 0 0 1 -.25.067z" fill="#a389e1"/><path d="m25.848 43.5a.5.5 0 0 1 -.294-.9l1.473-1.073-1.747 1.001a.5.5 0 0 1 -.541-.839l1.573-1.126-1.032.6a.5.5 0 0 1 -.547-.835l.546-.4a.5.5 0 0 1 -.628-.76l1.929-2.238-1.3.75a.5.5 0 0 1 -.737-.543l.306-1.348a.488.488 0 0 1 -.251-.216.5.5 0 0 1 .182-.682l.5-.29a.5.5 0 0 1 .738.543l-.249 1.1 2.862-1.651a.5.5 0 0 1 .629.759l-1.925 2.228 5.209-3.008a.5.5 0 0 1 .547.835l-.552.406 2.161-1.247a.5.5 0 0 1 .541.839l-1.573 1.126 1.058-.61a.5.5 0 0 1 .544.837l-1.47 1.071.932-.538a.5.5 0 0 1 .556.828l-.908.7.357-.206a.5.5 0 0 1 .594.8l-1.066 1.007.478-.275a.5.5 0 0 1 .732.568l-.389 1.373a.494.494 0 0 1 .347.242.5.5 0 0 1 -.183.683l-.686.4a.5.5 0 0 1 -.731-.568l.344-1.213-3.1 1.791a.5.5 0 0 1 -.593-.8l1.065-1.007-3.138 1.812a.5.5 0 0 1 -.555-.828l.906-.7-2.662 1.532a.491.491 0 0 1 -.252.07z" fill="#ffcd7b"/><g fill="#262626"><path d="m57.873 49.714c-3.879-2.575-8.115-4.721-12.149-7.054v-6.522a2.656 2.656 0 0 0 -2.291-1.517q-1.1-9.285-2.209-18.57a17.656 17.656 0 0 0 11.24-2.875c.231-.155.287-.291.252-.4.016-.119-.056-.231-.284-.3-7.479-2.4-14.664-5.976-22.042-8.7a.536.536 0 0 0 -.053-.02l-.078-.03a.56.56 0 0 0 -.119-.026c-.018 0-.026-.009-.045-.011h-.04a.281.281 0 0 0 -.029 0c-4.362-.337-4.638 3.508-5.757 7.047q-3.785 11.964-7.569 23.932a4.316 4.316 0 0 0 -.723.222c-2.761 1.137-1.815 5.223-1.711 7.884l-12.974 7.5c-.009.005-.012.011-.02.016a.667.667 0 0 0 -.263.206c-3.621 5.111 15.514 5.415 18.169 5.631a146.6 146.6 0 0 0 34.951-1.791c2.976-.47 8.222-1.649 3.744-4.622zm-13.6-13.188v6.194h-8.549v-7.442h1.658a31.871 31.871 0 0 1 4.618-.113v.028c.039.329.541.347.945.189a2.066 2.066 0 0 1 1.331 1.144zm-13.549 6.194v-3.915c0-.243-1.448-.035-1.448.388v3.527h-3.552v-7.344c2.853.016 5.715.083 8.563 0a1.253 1.253 0 0 1 -.011.378 11.177 11.177 0 0 0 0 2.674v4.3zm-8.133-22.22c.757-2.393 3.576-15.933 6.885-15.877 7.142 2.635 14.108 6.059 21.326 8.46a15.867 15.867 0 0 1 -10.085 1.969 1.148 1.148 0 0 0 -.367.043 18.083 18.083 0 0 1 -4.761-1.4c-.347-.159-1.673.384-1.178.611a18.975 18.975 0 0 0 5.3 1.5c0 .015-.009.028-.007.044q1.11 9.343 2.222 18.687c-1.15.023-2.324.18-3.189.18h-3.061a.716.716 0 0 0 -.384-.091h-10a1.811 1.811 0 0 0 -.519.091h-2.155c-1.265 0-2.936-.248-4.459-.207zm-6.867 15.793c.535-1.149.3-.919.956-.936a1.255 1.255 0 0 0 1.084-.14 32.014 32.014 0 0 1 6.512-.022v7.525h-5.682c-2.6 0-3.029.671-2.87-1.918.076-1.178-.503-3.426 0-4.509zm35.693 17.349a146.641 146.641 0 0 1 -23.637 1.78c-4.251-.066-8.5-.371-12.72-.856-1.26-.145-13.677-1.785-12.86-3.514l13.13-7.593a.916.916 0 0 0 .223-.18h8.77c.122.127.514.114.858 0h4.238a1.333 1.333 0 0 0 .381 0h4.523c.122.127.514.114.858 0h9.1a.479.479 0 0 0 .167.156l7.482 4.342a33.111 33.111 0 0 1 4.331 2.514c.268.218 1.042.4 1.23.714 1.056 1.755-4.866 2.459-6.074 2.637z"/><path d="m30.123 9.892.492-1.555c.133-.419-1.3-.229-1.441.211l-.492 1.552c-.132.422 1.302.232 1.441-.208z"/><path d="m24.753 26.918q2.055-6.5 4.112-13c.175-.554-1.287-.368-1.455.161q-2.055 6.5-4.112 13c-.175.554 1.287.368 1.455-.161z"/><path d="m11.6 50.282-1-.125a1.849 1.849 0 0 0 -1.012.188c-.1.048-.516.324-.18.366s.666.084 1 .125a1.86 1.86 0 0 0 1.012-.187c.093-.049.512-.325.18-.367z"/><path d="m50.319 50.163-1 .125c-.275.034-.789.1-.972.338s.158.226.334.2c.333-.041.666-.082 1-.125.275-.035.789-.1.972-.337s-.153-.223-.334-.201z"/><path d="m45.317 50.794a134.607 134.607 0 0 1 -29.717.006c-.335-.036-1.549.509-1.194.548a137.226 137.226 0 0 0 30.28.006c.364-.041 1.57-.664.631-.56z"/></g></svg>