<svg height="498pt" viewBox="0 -5 498.45192 498" width="498pt" xmlns="http://www.w3.org/2000/svg"><g fill-rule="evenodd"><path d="m106.675781 287.742188c-.691406.003906-1.371093-.164063-1.980469-.496094-1.289062-.683594-2.109374-2.007813-2.148437-3.464844v-2.644531h-.660156c-1.378907.90625-3.164063.90625-4.542969 0-1.328125-.992188-1.917969-2.695313-1.484375-4.292969l1.816406-7.597656-6.195312 3.550781c-1.585938.902344-3.582031.632813-4.871094-.660156-1.324219-1.261719-1.660156-3.246094-.828125-4.875l5.121094-9.578125-10.40625 5.945312c-1.566406.863282-3.511719.59375-4.789063-.660156-1.308593-1.402344-1.480469-3.523438-.410156-5.121094l9.660156-14.121094-16.515625 9.664063c-1.820312 1.058594-4.148437.574219-5.398437-1.121094-1.25-1.695312-1.023438-4.058593.527343-5.484375l6.027344-5.78125-10.40625 5.449219c-1.832031.941406-4.078125.390625-5.265625-1.296875-1.183593-1.683594-.945312-3.984375.558594-5.390625l3.140625-2.726563-5.699219 3.304688c-1.820312 1.054688-4.148437.574219-5.398437-1.121094-1.25-1.695312-1.023438-4.058594.527344-5.488281l14.035156-12.882813-18.910156 11.148438c-1.839844 1.085938-4.207032.582031-5.449219-1.15625-1.253907-1.6875-1.003907-4.058594.578125-5.449219l21.882812-20.644531-29.234375 17.09375c-1.839843 1.082031-4.203125.582031-5.449219-1.15625-1.246093-1.738281-.957031-4.136719.660157-5.53125l25.765625-22.546875-33.03125 19.242187c-1.878906 1.007813-4.214844.417969-5.394532-1.359374-1.175781-1.777344-.808593-4.15625.851563-5.496094l40.464844-30.882813c-1.074219-2.015625-.386719-4.519531 1.570312-5.699219l27.085938-15.609374c1.847656-1.15625 4.28125-.601563 5.449219 1.242187 1.242187 1.8125.839843 4.28125-.90625 5.613281l-17.425782 12.71875 14.699219-8.257812c1.816406-1.074219 4.152344-.570313 5.367187 1.15625 1.226563 1.726562.980469 4.09375-.578124 5.53125l-26.011719 22.378906 24.03125-13.871094c1.820312-1.058594 4.144531-.578125 5.394531 1.117188 1.25 1.695312 1.023438 4.058594-.523438 5.488281l-22.214843 20.5625 20.316406-11.644531c1.800781-1.050782 4.105469-.589844 5.367187 1.074218 1.210938 1.714844 1 4.058594-.496093 5.53125l-14.121094 12.882813 11.394531-6.769531c1.875-.988282 4.191406-.464844 5.453125 1.238281 1.183594 1.765625.867188 4.140625-.746093 5.53125l-3.136719 2.644531c1.816406-1.074218 4.152343-.570312 5.367187 1.15625 1.257813 1.660156 1.082032 3.996094-.410156 5.449219l-6.03125 5.78125 3.058594-1.816406c1.6875-.964844 3.820312-.621094 5.117187.824219 1.15625 1.511718 1.15625 3.609374 0 5.121093l-8.671875 14.039063 7.1875-4.128906c1.609375-.917969 3.636719-.648438 4.953125.660156 1.351563 1.253906 1.660157 3.273437.742188 4.871094l-5.035157 9.578124 1.980469-1.152343c1.378907-.910157 3.164063-.910157 4.542969 0 1.328125.988281 1.917969 2.691406 1.484375 4.292969l-1.898437 8.257812c.832031-.085938 1.667968.085938 2.394531.496094 1.246093.730468 2.046875 2.027344 2.148437 3.46875v5.777344c.347656.320312.652344.679687.910156 1.074218 1.132813 1.988282.472657 4.519532-1.488281 5.699219l-1.320312.742187c-.65625.371094-1.394531.570313-2.148438.578126zm0 0" fill="#f2a149"/><path d="m391.167969 282.375c-1.382813-.011719-2.671875-.6875-3.46875-1.816406-1.179688-1.84375-.75-4.285156.988281-5.617188l17.34375-13.292968-10.40625 6.027343c-1.894531 1.148438-4.359375.558594-5.53125-1.320312-1.164062-1.867188-.695312-4.3125 1.074219-5.617188l20.808593-14.863281-13.789062 8.257812c-1.898438 1.148438-4.363281.558594-5.535156-1.320312-1.121094-1.875-.660156-4.289062 1.074218-5.617188l8.257813-5.863281-1.570313.910157c-1.839843 1.089843-4.214843.589843-5.460937-1.148438-1.246094-1.742188-.953125-4.148438.671875-5.542969l29.152344-25.1875-20.644532 11.894531c-1.847656 1.15625-4.285156.601563-5.453124-1.238281-1.246094-1.769531-.882813-4.207031.828124-5.535156l6.441407-5.121094c-1.738281.691407-3.722657.152344-4.875-1.320312-1.40625-1.542969-1.40625-3.90625 0-5.449219l13.214843-12.71875-4.625 2.644531c-1.722656.929688-3.863281.523438-5.125-.976562-1.261718-1.5-1.292968-3.679688-.078124-5.21875l7.433593-9.25c-1.46875.503906-3.097656.140625-4.210937-.9375-1.117188-1.082031-1.53125-2.695313-1.074219-4.179688l4.128906-13.625c-.039062-.21875-.039062-.445312 0-.664062-.566406-.9375-.726562-2.0625-.445312-3.121094s.976562-1.957031 1.929687-2.492187l2.398438-1.40625c1.394531-.941407 3.226562-.941407 4.621094 0 1.367187 1.039062 1.929687 2.828124 1.40625 4.460937l-2.644532 8.917969 9.25-5.367188c1.734375-.957031 3.898438-.578125 5.203125.910156 1.273438 1.53125 1.273438 3.753907 0 5.285157l-7.351562 9.082031 13.460937-7.761719c1.8125-1.011719 4.089844-.558593 5.367188 1.074219 1.257812 1.660156 1.082031 3.996094-.410156 5.449219l-12.71875 12.882812 19.324218-11.148437c1.867188-1.160156 4.3125-.652344 5.566406 1.152344 1.253907 1.804687.878907 4.273437-.859374 5.621093l-6.359376 5.035157 10.488282-6.027344c1.816406-1.074219 4.152344-.570313 5.367187 1.15625 1.246094 1.738281.960938 4.136718-.660156 5.53125l-29.152344 25.1875 38.730469-22.378906c1.933594-1.070313 4.363281-.496094 5.617188 1.320312 1.160156 1.867188.695312 4.3125-1.074219 5.617188l-8.257813 5.863281 12.304688-7.101563c1.894531-1.148437 4.363281-.5625 5.53125 1.320313 1.222656 1.835937.789062 4.308593-.988282 5.617187l-23.867187 17.007813c1.855469-.199219 3.617187.871093 4.292969 2.609375.679687 1.742187.101562 3.71875-1.402344 4.824218l-47.980469 36.089844c.867188 1.917969.109375 4.183594-1.734375 5.199219l-22.296875 12.96875c-.703125.289063-1.46875.402344-2.226562.328125zm0 0" fill="#f2a149"/><path d="m206.1875 438.207031c-1.425781-.007812-2.742188-.757812-3.46875-1.984375-1.160156-1.917968-.570312-4.414062 1.320312-5.613281l46.246094-29.316406-63.257812 36.335937c-1.917969.960938-4.253906.292969-5.371094-1.539062-1.121094-1.828125-.652344-4.210938 1.078125-5.480469l105.535156-69.039063-132.128906 76.058594c-1.917969.960938-4.25.292969-5.371094-1.539062-1.121093-1.828125-.652343-4.210938 1.078125-5.480469l100.171875-63.835937-122.46875 70.855468c-1.917969.960938-4.253906.292969-5.371093-1.539062-1.121094-1.828125-.652344-4.210938 1.078124-5.480469l132.128907-84.648437-156.902344 91.003906c-1.917969.964844-4.253906.296875-5.375-1.535156-1.117187-1.828126-.652344-4.210938 1.078125-5.484376l138.820312-87.945312-147.160156 84.972656c-1.941406 1.144532-4.441406.519532-5.617187-1.402344-.574219-.941406-.75-2.070312-.484375-3.140624.261718-1.070313.945312-1.992188 1.890625-2.558594l22.542969-13.707032-19.902344 11.644532c-1.941406 1.140625-4.4375.515625-5.613282-1.40625-.574218-.9375-.75-2.070313-.488281-3.140625.265625-1.070313.945313-1.992188 1.890625-2.554688l108.757813-67.222656-104.546875 59.953125c-.9375.566406-2.0625.726562-3.121094.445312s-1.957031-.976562-2.492188-1.929687c-1.144531-1.941406-.519531-4.441406 1.402344-5.617187l43.933594-26.835938-39.722656 22.957031c-.9375.5625-2.0625.722657-3.121094.441407-1.058594-.277344-1.957031-.976563-2.492188-1.929688-1.144531-1.941406-.519531-4.441406 1.402344-5.613281l26.589844-16.519531-22.378906 12.882812c-1.941406 1.144531-4.4375.519531-5.613282-1.402344-.574218-.941406-.75-2.070312-.488281-3.140625.265625-1.070312.945313-1.992187 1.890625-2.558593l81.671875-50.289063-77.460937 44.757813c-1.78125 1.304687-4.28125.933593-5.613282-.828126-1.15625-1.917968-.570312-4.410156 1.320313-5.613281l159.710937-101.738281-155.417968 90.011719c-1.941406 1.140625-4.4375.515625-5.613282-1.40625-.667968-.960938-.90625-2.15625-.65625-3.300781.253907-1.144532.96875-2.132813 1.976563-2.726563l144.929687-90.839844-140.386718 81.179688c-1.878906 1.007812-4.21875.417969-5.394532-1.359375-1.179687-1.777344-.808593-4.160156.851563-5.496094l134.855469-84.5625-130.5625 75.394531c-2.027344 1.1875-4.636719.503907-5.820313-1.527343-1.1875-2.027344-.503906-4.632813 1.527344-5.820313l162.847656-103.0625-158.554687 91.582031c-1.957032 1.117188-4.445313.457032-5.59375-1.480468-1.148438-1.9375-.535156-4.4375 1.382812-5.621094l56.15625-34.433594-51.945312 30.058594c-.976563.539062-2.136719.652344-3.199219.308594-1.0625-.347657-1.9375-1.113282-2.414063-2.125-1.15625-1.921876-.570312-4.414063 1.320313-5.617188l68.707031-42.117188-64.414062 37.164063c-.9375.5625-2.0625.722656-3.121094.445313-1.058594-.28125-1.957031-.976563-2.492188-1.933594-1.15625-1.917969-.570312-4.410156 1.320313-5.613282l90.839844-55.992187-86.546875 50.292969c-.925782.570312-2.046875.742187-3.101563.480468-1.058593-.265624-1.964843-.945312-2.511719-1.882812-1.15625-1.921875-.570312-4.414062 1.320313-5.617188l47.898437-29.234374-43.605468 25.1875c-.9375.566406-2.0625.726562-3.121094.445312s-1.957031-.976562-2.492188-1.929688c-1-1.867187-.429687-4.183593 1.320313-5.371093l115.613281-71.925781-111.320312 63.667968c-.9375.566406-2.0625.726563-3.121094.445313-1.058594-.277344-1.957031-.976563-2.492188-1.929688-1.15625-1.921875-.570312-4.414062 1.320313-5.617187l51.53125-31.378906-47.648437 27.5c-1.941407 1.140624-4.441407.515624-5.617188-1.40625-1.105469-1.972657-.492188-4.464844 1.402344-5.695313l90.839844-55.992187-86.542969 49.550781c-1.964844 1.125-4.46875.464843-5.617188-1.488281-1.09375-1.949219-.480469-4.414063 1.40625-5.617188l10.484375-5.859375-6.109375 3.550781c-2.03125 1.136719-4.597656.417969-5.738281-1.613281-1.140625-2.027344-.421875-4.597656 1.609375-5.738281l84.976563-52.605469-80.765626 46.824219c-1.941406 1.144531-4.4375.519531-5.613281-1.402344-1.152343-1.96875-.53125-4.492188 1.402344-5.699219l98.1875-61.441406-93.976563 54.09375c-1.96875 1.078125-4.4375.425781-5.613281-1.488281-1.144531-1.941406-.519531-4.441406 1.402344-5.617188l65.570313-41.289062-61.359376 35.59375c-1.914062 1.132812-4.386718.507812-5.53125-1.40625-1.171874-1.898438-.625-4.382813 1.238282-5.613282l93.730468-60.285156-89.4375 51.695313c-1.914062 1.136719-4.386718.507812-5.53125-1.402344-1.171874-1.898437-.625-4.386719 1.238282-5.617187l90.839844-59.703126-86.464844 49.546876c-1.898438.820312-4.113282.109374-5.179688-1.664063-1.0625-1.777344-.648437-4.066406.96875-5.355469l11.066406-7.019531-6.855468 3.964844c-1.78125.601562-3.746094-.078125-4.773438-1.652344-1.03125-1.574219-.867187-3.644531.398438-5.039063l43.355468-28.488281-39.308593 22.625c-1.917969 1.136719-4.390625.507813-5.535157-1.402343-1.1875-1.878907-.675781-4.359376 1.15625-5.617188l41.292969-27.828125-37.328125 21.554687c-1.9375 1.207032-4.488281.617188-5.699218-1.320312-1.207032-1.941406-.617188-4.492188 1.324218-5.699219l26.257813-17.507812c-1.636719.257812-3.273438-.449219-4.210938-1.816407-1.25-1.847656-.769531-4.359374 1.074219-5.617187l29.730469-21.636719c-.480469-.445312-.875-.976562-1.15625-1.566406-1.160157-1.730469-.878907-4.046875.660156-5.449219l23.535156-20.730469c-.421875-1.785156.382813-3.636718 1.980469-4.542968l9.664062-5.613282c1.839844-1.082031 4.207032-.582031 5.449219 1.15625 1.246094 1.738282.957031 4.136719-.660156 5.53125l-3.46875 2.972657 16.515625-9.660157c1.902344-1.101562 4.335938-.523437 5.535156 1.320313 1.210938 1.8125.773438 4.257813-.992187 5.535156l-17.671875 12.964844 34.433594-19.820313c1.929687-1.113281 4.386718-.535156 5.617187 1.320313 1.128906 1.90625.585937 4.363281-1.238281 5.617187l-22.875 15.441407 38.894531-22.378907c1.917969-1.132812 4.390625-.507812 5.535156 1.402344 1.171875 1.898438.621094 4.386719-1.242187 5.617188l-41.289063 27.910156 60.035157-34.929688c1.941406-1.140624 4.441406-.519531 5.617187 1.402344 1.128906 1.90625.585937 4.363282-1.238281 5.617188l-43.601563 28.40625 61.851563-35.425782c1.917968-.960937 4.253906-.292968 5.371094 1.535157 1.121093 1.832031.652343 4.214843-1.078126 5.484375l-11.230468 7.101562 24.773437-14.121094c1.917969-1.132812 4.390625-.507812 5.535157 1.402344.585937.910156.78125 2.011719.550781 3.066406-.234375 1.054688-.878907 1.972657-1.789063 2.550782l-90.839844 59.707031 115.035157-66.726563c1.917969-.960937 4.253906-.292968 5.371093 1.535157 1.121094 1.832031.652344 4.214843-1.078124 5.484375l-93.644532 60.285156 116.601563-67.304688c1.917969-1.132812 4.390625-.507812 5.535156 1.402344 1.15625 1.921875.570313 4.414063-1.324219 5.617188l-66.0625 41.289062 83.734375-48.308594c1.917969-.960937 4.253907-.292968 5.375 1.535157 1.117188 1.832031.648438 4.214843-1.078125 5.484375l-98.273437 61.6875 119.082031-68.707032c1.917969-.960937 4.253906-.292968 5.375 1.535157 1.117188 1.832031.648438 4.214843-1.078125 5.484375l-84.8125 52.519531 93.398437-53.925781c.9375-.5625 2.066407-.722656 3.121094-.441406 1.058594.277343 1.960938.976562 2.496094 1.929687 1.140625 1.941406.515625 4.441406-1.40625 5.617187l-10.402344 6.355469 9.992188-5.777343c1.941406-1.144532 4.4375-.519532 5.613281 1.402343.574219.941407.75 2.070313.488281 3.140625-.265625 1.070313-.945312 1.992188-1.890625 2.558594l-90.839843 55.90625 87.207031-50.375c1.957031-1.113281 4.445312-.457031 5.59375 1.480469 1.148437 1.9375.535156 4.441406-1.382813 5.621093l-51.199218 31.792969 47.648437-27.582031c1.96875-1.078125 4.4375-.425781 5.613281 1.488281.574219.925781.746094 2.046875.480469 3.101563-.261719 1.058594-.941406 1.964844-1.882813 2.511718l-115.613281 71.929688 110.988281-64.332031c.9375-.5625 2.0625-.722657 3.121094-.441407 1.058594.277344 1.957032.976563 2.496094 1.929688 1.140625 1.941406.515625 4.441406-1.40625 5.613281l-47.894531 29.234375 43.683593-24.773437c.9375-.5625 2.0625-.722657 3.121094-.445313 1.058594.28125 1.957032.976563 2.496094 1.933594 1.140625 1.941406.515625 4.4375-1.40625 5.613281l-90.835938 55.90625 86.378907-49.546875c1.957031-1.113281 4.445312-.457031 5.59375 1.480469 1.148437 1.9375.535156 4.4375-1.382813 5.621094l-68.378906 41.457031 64.414062-37.246094c.9375-.5625 2.0625-.722656 3.121094-.445312 1.058594.28125 1.957032.976562 2.496094 1.933594 1.140625 1.941406.515625 4.4375-1.40625 5.613281l-56.152344 34.4375 51.941406-30.058594c1.960938-1.1875 4.511719-.558594 5.699219 1.402344 1.183594 1.960937.554688 4.511719-1.40625 5.699219l-162.847656 103.308593 158.554687-91.253906c1.960938-1.183594 4.511719-.554687 5.699219 1.40625 1.183594 1.960937.554688 4.511719-1.40625 5.699219l-134.933593 84.148437 130.640624-75.398437c1.917969-.960938 4.253907-.292969 5.371094 1.539062 1.121094 1.828125.652344 4.210938-1.078125 5.480469l-144.925781 90.839844 140.386719-81.257813c1.96875-1.082031 4.4375-.429687 5.613281 1.484375 1.15625 1.921875.570312 4.414063-1.320312 5.617188l-159.464844 101.492187 155.417968-89.765625c1.957032-1.117187 4.445313-.457031 5.597657 1.480469 1.148437 1.9375.53125 4.4375-1.386719 5.621094l-81.589844 50.292968 77.378906-44.679687c1.941407-1.140625 4.441407-.515625 5.617188 1.40625 1.148438 1.964844.527344 4.492187-1.40625 5.699219l-26.835938 16.515625 22.625-13.296875c.9375-.5625 2.0625-.726563 3.121094-.445313s1.957032.976563 2.496094 1.933594c1.140625 1.941406.515625 4.4375-1.40625 5.613281l-43.933594 26.839844 39.722656-22.957031c1.96875-1.082031 4.441407-.429688 5.617188 1.484375.570312.929687.742188 2.046875.480469 3.105468-.265625 1.054688-.945313 1.960938-1.886719 2.511719l-108.675781 67.46875 104.464843-60.285156c1.941407-1.140625 4.441407-.515625 5.617188 1.402344 1.148438 1.96875.527344 4.492187-1.40625 5.699219l-22.707031 13.792968 18.496093-10.652344c1.917969-.964843 4.253907-.296874 5.371094 1.535157 1.121094 1.828125.652344 4.210937-1.078125 5.480469l-139.230469 87.867187 134.9375-77.875c1.917969-.960937 4.253907-.292969 5.371094 1.539063 1.121094 1.828124.652344 4.210937-1.078125 5.480468l-132.128906 84.648438 128.082031-74.324219c1.96875-1.082031 4.441406-.425781 5.617188 1.488281 1.15625 1.917969.570312 4.410156-1.320313 5.613282l-100.417969 64.164062 95.875-55.410156c1.949219-1.097656 4.414063-.480469 5.617188 1.402344 1.15625 1.921874.570312 4.414062-1.324219 5.617187l-105.535156 69.121094 101.242187-58.46875c1.960938-1.183594 4.511719-.558594 5.699219 1.40625 1.183594 1.960937.554688 4.511719-1.40625 5.695312l-46.242187 29.398438 41.949218-24.277344c1.9375-1.207031 4.488282-.617187 5.699219 1.320313 1.207031 1.9375.617188 4.488281-1.324219 5.699218l-66.804687 44.179688 62.429687-36.085938c1.253907-.78125 2.828126-.835937 4.132813-.140625 1.304687.695313 2.140625 2.03125 2.1875 3.507813.050781 1.476562-.691406 2.867187-1.945313 3.652344l-59.867187 40.464843 55.410156-31.960937c1.90625-1.085938 4.332031-.492188 5.519531 1.355468 1.1875 1.84375.722657 4.296876-1.0625 5.582032l-57.226562 41.289062 52.769531-30.472656c1.9375-1.207031 4.488281-.617188 5.699219 1.324219 1.207031 1.9375.617188 4.488281-1.324219 5.695312l-13.292969 9.085938 8.917969-5.203125c1.90625-1.058594 4.308594-.488282 5.53125 1.320312 1.171875 1.820313.738281 4.234375-.988281 5.535156l-28.738281 21.964844 24.277343-13.789062c1.863282-1.066406 4.230469-.53125 5.449219 1.238281 1.25 1.765625.886719 4.203125-.824219 5.53125l-15.527343 12.222656 10.902343-6.277343c1.707032-1.007813 3.890626-.664063 5.203126.828124 1.199218 1.523438 1.199218 3.675782 0 5.199219l-12.71875 16.519531 6.773437-3.882812c1.984375-1.140625 4.515625-.457031 5.65625 1.527344s.457031 4.515625-1.527344 5.65625l-24.773437 14.121094c-1.683594 1-3.839844.652343-5.121094-.824219-1.230469-1.515625-1.230469-3.6875 0-5.203125l12.71875-16.515625-39.226562 22.710937c-1.882813 1.117188-4.308594.574219-5.535157-1.242187-1.164062-1.785157-.808593-4.164063.828125-5.53125l15.605469-12.550781-33.527344 19.324218c-1.847656 1.15625-4.28125.601563-5.449219-1.242187-1.242187-1.8125-.839843-4.28125.90625-5.613281l28.738282-21.882813-49.546875 28.738281c-1.894531 1.148438-4.363281.558594-5.53125-1.324218-1.191407-1.875-.679688-4.359376 1.15625-5.613282l13.292969-9.085937-28.160157 16.023437c-1.894531 1.148438-4.359375.558594-5.53125-1.324218-1.121093-1.871094-.660156-4.289063 1.074219-5.613282l57.226562-41.292968-83.242187 48.230468c-1.886719.902344-4.15625.25-5.273437-1.523437-1.117188-1.769531-.730469-4.097657.898437-5.414063l59.707031-40.546875-82.582031 47.484375c-1.917969 1.132813-4.390625.503906-5.53125-1.40625-1.175781-1.898437-.625-4.386718 1.238281-5.613281l66.804688-44.101563-88.277344 51.121094c-.617188.390625-1.335938.589844-2.0625.578125zm0 0" fill="#e4e8eb"/><path d="m108.742188 91.367188c-1.347657.019531-2.617188-.628907-3.386719-1.734376-1.207031-1.746093-.921875-4.121093.660156-5.535156l23.949219-20.476562-37.742188 21.550781c-1.878906 1.007813-4.214844.421875-5.390625-1.355469-1.179687-1.777344-.808593-4.160156.851563-5.496094l31.710937-23.867187c-.683593-.242187-1.265625-.707031-1.652343-1.320313-1.257813-1.660156-1.078126-4 .414062-5.453124l38.398438-36.332032c-.117188-1.484375.539062-2.917968 1.734374-3.800781l5.617188-3.21875c1.800781-1.050781 4.105469-.589844 5.367188 1.070313 1.273437 1.671874 1.058593 4.039062-.496094 5.453124l-19.488282 18.828126 14.945313-8.257813c1.882813-1.121094 4.308594-.578125 5.535156 1.238281 1.179688 1.84375.746094 4.285156-.992187 5.613282l-20.644532 15.445312 16.101563-9.25c1.835937-1.125 4.230469-.617188 5.449219 1.15625 1.207031 1.746094.925781 4.117188-.660156 5.53125l-23.949219 20.066406 19.160156-11.0625c1.179687-.886718 2.742187-1.074218 4.101563-.496094 1.355468.582032 2.300781 1.839844 2.476562 3.304688s-.441406 2.910156-1.621094 3.796875l-10.242187 9.742187 5.285156-3.054687c1.734375-.957031 3.898437-.578125 5.203125.910156 1.273438 1.53125 1.273438 3.753907 0 5.285157l-4.542969 5.78125c1.019531.285156 1.882813.96875 2.394531 1.898437.566407.9375.726563 2.0625.445313 3.121094-.28125 1.058593-.976563 1.957031-1.929687 2.492187l-13.378907 7.765625c-1.730469.957031-3.898437.578125-5.203125-.910156-1.230468-1.515625-1.230468-3.6875 0-5.203125l2.476563-3.21875-16.183594 9.414062c-1.804687 1.050782-4.109375.589844-5.367187-1.074218-1.257813-1.660156-1.082032-3.996094.410156-5.449219l10.242187-9.828125-28.324219 16.515625c-.539062.277344-1.132812.417969-1.734374.414063zm0 0" fill="#5e8faa"/><path d="m379.523438 282.789062c-1.433594.03125-2.769532-.730468-3.46875-1.984374-1.1875-1.875-.679688-4.359376 1.15625-5.613282l85.882812-57.3125c.09375-1.375.867188-2.617187 2.066406-3.300781l21.140625-12.222656c1.9375-1.210938 4.488281-.617188 5.695313 1.320312 1.210937 1.9375.617187 4.488281-1.320313 5.699219l-4.046875 2.640625c1.949219-.832031 4.210938-.089844 5.285156 1.734375.566407.9375.726563 2.066406.445313 3.125-.28125 1.054688-.976563 1.957031-1.929687 2.492188l-109.171876 62.84375c-.523437.332031-1.117187.53125-1.734374.578124zm0 0" fill="#fab153"/><path d="m134.753906 487.753906c-1.867187.019532-3.515625-1.21875-4.015625-3.015625-.503906-1.800781.261719-3.710937 1.867188-4.664062l35.015625-20.976563-49.136719 28.078125c-1.941406 1.140625-4.4375.515625-5.613281-1.402343-.578125-.941407-.75-2.074219-.488282-3.144532.265626-1.070312.945313-1.988281 1.890626-2.554687l86.214843-52.6875-103.558593 59.789062c-1.898438.820313-4.113282.109375-5.175782-1.664062-1.066406-1.777344-.652344-4.066407.964844-5.355469l191.09375-119.328125-218.921875 126.347656c-1.957031 1.113281-4.445313.457031-5.597656-1.480469-1.148438-1.9375-.53125-4.4375 1.386719-5.621093l51.859374-31.214844-66.0625 38.316406c-1.917968.960938-4.253906.292969-5.375-1.535156-1.117187-1.832031-.648437-4.214844 1.078126-5.484375l104.546874-68.460938-120.566406 69.285157c-1.917968 1.136719-4.390625.507812-5.53125-1.402344-1.175781-1.898437-.625-4.386719 1.238282-5.617187l110.988281-72.667969-117.265625 67.714843c-1.003906.589844-2.203125.746094-3.324219.433594s-2.066406-1.0625-2.621094-2.085937c-1.128906-1.90625-.585937-4.359375 1.238281-5.613281l92.902344-62.515626-91.828125 53.015626c-1.253906.785156-2.832031.835937-4.132812.140624-1.304688-.695312-2.140625-2.03125-2.191407-3.507812-.050781-1.476562.691407-2.867188 1.945313-3.652344l86.214844-58.546875-81.835938 47.648438c-1.960937 1.183593-4.511719.558593-5.699219-1.402344-1.1875-1.964844-.558593-4.515625 1.402344-5.699219l26.757813-17.671875-22.460938 13.046875c-1.253906.78125-2.832031.835938-4.132812.140625-1.304688-.695312-2.140625-2.035156-2.191407-3.511719-.050781-1.476562.691407-2.867187 1.945313-3.648437l68.128906-46.328125-63.75 36.582031c-1.917969 1.136719-4.390625.507813-5.535156-1.402343-1.1875-1.878907-.675781-4.359376 1.15625-5.617188l50.789063-34.433594-46.410157 26.835938c-1.9375 1.210937-4.492187.617187-5.699219-1.320313-1.207031-1.9375-.617187-4.488281 1.320313-5.695312l50.871094-35.265625-46.492188 26.839844c-1.910156 1.058593-4.3125.488281-5.535156-1.320313-1.179687-1.84375-.746094-4.285156.992187-5.617187l58.714844-43.269532-54.171875 31.296875c-1.890625.90625-4.15625.25-5.277343-1.519531-1.117188-1.773438-.730469-4.101562.898437-5.417969l13.710937-9.332031-9.332031 5.367188c-1.882812 1.121093-4.308593.578124-5.535156-1.238282-1.179687-1.84375-.746094-4.285156.992187-5.613281l44.925782-34.355469-40.382813 23.289063c-1.839843 1.152343-4.257812.683593-5.535156-1.074219-1.160156-1.863281-.691406-4.308594 1.074219-5.613281l22.214844-16.519531-17.753907 10.324218c-1.882812 1.117188-4.308593.574219-5.535156-1.238281-1.179687-1.84375-.746094-4.285156.992187-5.617187l20.726563-15.605469-16.183594 9.496093c-1.882812 1.117188-4.308593.574219-5.535156-1.238281-1.179687-1.847656-.746094-4.285156.992187-5.617187l9.828126-7.347656-5.285157 3.054687c-1.804687 1.050781-4.109375.589844-5.367187-1.074219-1.285156-1.695312-1.074219-4.089844.492187-5.53125l24.28125-22.214844-19.40625 11.066407c-1.871093 1.023437-4.210937.492187-5.453125-1.238281-1.222656-1.757813-.902344-4.164063.746094-5.535157l4.210938-3.386719c-1.671876.65625-3.574219.15625-4.707032-1.238281-1.308594-1.515625-1.308594-3.765625 0-5.285156l14.367188-16.929687-9.164063 5.285156c-1.574219 1.035156-3.664062.792968-4.957031-.578125-1.363281-1.285157-1.640625-3.351563-.660156-4.953125l8.257812-13.789063-2.3125 1.320313c-1.3125.820312-2.980468.820312-4.292968 0-1.3125-.832032-2.046876-2.335938-1.898438-3.882813l1.074219-14.039062c-.359375-.285157-.644531-.652344-.828125-1.074219-1.125-1.960938-.464844-4.464844 1.488281-5.613281l1.816406-1.074219c1.324219-.785156 2.96875-.785156 4.292969 0 1.296875.878906 1.996094 2.40625 1.816406 3.964844l-.988281 10.402344 8.257813-4.953126c1.589843-1.015624 3.683593-.734374 4.953124.660157 1.308594 1.316406 1.578126 3.34375.660157 4.957031l-8.257813 13.789062 16.515625-9.578124c1.734375-.957032 3.898438-.578126 5.203125.90625 1.289063 1.558593 1.289063 3.8125 0 5.367187l-14.367187 16.519531 24.03125-12.964844c1.878906-1.121093 4.304687-.578124 5.53125 1.238282 1.167969 1.785156.8125 4.164062-.824219 5.53125l-3.964844 3.222656 7.515625-4.214844c1.820313-1.03125 4.128907-.535156 5.367188 1.15625 1.210937 1.71875 1 4.058594-.496094 5.535156l-24.363281 22.046876 33.035156-19.238282c1.871094-1.167968 4.332031-.613281 5.53125 1.238282 1.222656 1.835937.785156 4.308593-.992188 5.613281l-9.742187 7.269531 14.039063-8.257812c1.90625-1.0625 4.308593-.488282 5.53125 1.320312 1.171874 1.816406.738281 4.230469-.992188 5.53125l-20.394531 15.773438 26.507812-15.277344c1.902344-1.101563 4.335938-.523438 5.53125 1.320312 1.214844 1.8125.777344 4.257813-.988281 5.535156l-21.886719 16.183594 27.832031-16.019531c1.878907-1.117187 4.308594-.574219 5.53125 1.238281 1.242188 1.816406.839844 4.285156-.90625 5.617188l-45.253906 34.351562 54.5-31.460937c1.890625-.90625 4.160156-.253907 5.277344 1.519531s.730469 4.097656-.898438 5.414062l-13.710937 9.332032 17.921875-10.402344c1.238281-.8125 2.816406-.902344 4.140625-.234375 1.320313.667969 2.1875 1.988281 2.269531 3.46875.082032 1.480469-.628906 2.890625-1.867187 3.699219l-58.714844 43.273437 69.117187-39.886719c1.898438-1.148437 4.363282-.558593 5.535157 1.320313 1.25 1.847656.769531 4.363281-1.074219 5.617187l-50.953125 35.261719 58.714844-33.859375c1.925781-1.085937 4.363281-.46875 5.535156 1.40625 1.1875 1.878906.675781 4.359375-1.15625 5.613282l-50.871094 34.519531 57.808594-33.527344c1.898437-1.101563 4.332031-.523437 5.53125 1.320313 1.1875 1.878906.675781 4.359374-1.15625 5.617187l-67.550781 46.410156 76.632812-44.265625c1.917969-.960937 4.253906-.292968 5.375 1.539063 1.117188 1.828125.648438 4.210937-1.078125 5.480469l-26.34375 17.011718 30.96875-17.917968c1.945313-1.097657 4.410157-.480469 5.613281 1.402343 1.171876 1.898438.625 4.386719-1.238281 5.617188l-86.132812 58.550781 96.289062-55.578125c1.941407-1.140625 4.441407-.519531 5.617188 1.402344 1.128906 1.90625.585937 4.363281-1.238281 5.617187l-92.574219 62.511719 138.074219-79.773437c1.941406-1.207032 4.492187-.617188 5.699218 1.324218 1.207032 1.9375.617188 4.488282-1.320312 5.695313l-110.90625 72.921875 124.863281-72.011719c.925781-.570313 2.042969-.746094 3.101563-.480469 1.058593.265625 1.960937.945313 2.511718 1.882813 1.15625 1.921875.570313 4.414062-1.320312 5.617187l-104.546875 68.460938 316.945312-183c.9375-.566406 2.0625-.726563 3.121094-.445313s1.957031.976563 2.492187 1.929688c1.144532 1.941406.519532 4.441406-1.402343 5.617187l-52.027344 31.378906 47.816406-27.582031c1.941407-1.140625 4.4375-.515625 5.613281 1.40625.570313.925781.746094 2.046875.480469 3.101563-.265625 1.058594-.941406 1.964844-1.882812 2.511718l-190.925781 119.246094 186.714843-108.015625c.9375-.5625 2.0625-.722656 3.121094-.441406 1.058594.277344 1.957031.976563 2.492187 1.929687 1.144532 1.941407.519532 4.441407-1.402343 5.617188l-86.214844 52.933594 82.003906-47.402344c.9375-.5625 2.0625-.726562 3.121094-.445312s1.957031.976562 2.492187 1.933593c1.144532 1.941407.519532 4.4375-1.402343 5.613281l-34.933594 21.554688 30.722656-17.753906c1.960938-1.128906 4.464844-.464844 5.613281 1.484375.570313.929687.746094 2.046875.480469 3.105469-.265625 1.054687-.941406 1.960937-1.882812 2.511718l-120.652344 74.898438 116.441406-67.21875c.9375-.566406 2.0625-.726563 3.121094-.445313s1.957031.976563 2.492187 1.929688c1.15625 1.921875.570313 4.414062-1.320312 5.617187l-122.136719 77.046875 117.84375-68.046875c1.917969-.960937 4.25-.292968 5.371094 1.539063 1.121094 1.828125.652344 4.210937-1.078125 5.480469l-117.59375 75.148437 113.050781-65.320313c1.917969-.960937 4.253907-.292968 5.375 1.535157 1.117188 1.832031.648438 4.214843-1.078125 5.484375l-116.109375 76.304687 112.0625-64.742187c1.265625-.769532 2.847657-.800782 4.148438-.085938 1.296875.714844 2.117187 2.070313 2.144531 3.550782.03125 1.484374-.730469 2.867187-2 3.636718l-74.324219 47.8125 69.78125-40.300781c1.960938-1.183594 4.511719-.554687 5.699219 1.40625 1.183594 1.960937.558594 4.511719-1.402344 5.699219l-14.039062 9 9.992187-5.78125c1.917969-.960938 4.25-.292969 5.371094 1.535156 1.121094 1.832031.652344 4.214844-1.078125 5.484375l-43.273438 28.078125 38.8125-22.378906c1.890626-.90625 4.15625-.25 5.277344 1.519531 1.117188 1.773437.730469 4.101563-.898437 5.414063l-49.550781 33.035156 45.007812-25.929688c1.863281-.871094 4.085938-.238281 5.207031 1.488282 1.121094 1.722656.804688 4.011718-.746093 5.363281l-49.550782 35.511719 45.335938-26.179688c1.910156-1.058594 4.3125-.484375 5.535156 1.320312 1.167969 1.820313.738281 4.234376-.992188 5.535157l-37.324218 27.992187 33.03125-18.910156c1.90625-1.085938 4.332031-.492188 5.519531 1.355469 1.1875 1.847656.722656 4.300781-1.0625 5.582031l-4.210937 2.972656c1.878906-1.007812 4.21875-.417968 5.394531 1.359375 1.179687 1.777344.808593 4.15625-.851563 5.496094l-17.011718 14.617187 11.480468-6.855468c1.78125-1 4.03125-.542969 5.285156 1.074218 1.355469 1.53125 1.355469 3.835938 0 5.367188l-9.332031 10.074219c1.179688.222656 2.203125.945312 2.808594 1.984375 1.132813 1.984375.472656 4.515625-1.488281 5.695312l-19.820313 11.398438c-1.765625 1.019531-4.007812.597656-5.285156-.992188-1.332031-1.570312-1.332031-3.878906 0-5.449218l6.691406-6.9375-24.777343 14.367187c-1.839844 1.085937-4.203126.582031-5.449219-1.15625-1.203125-1.746094-.921875-4.117187.660156-5.53125l17.011719-14.617187-36.828125 21.058593c-1.902344 1.101563-4.335938.523438-5.535157-1.320312-1.160156-1.867188-.695312-4.3125 1.074219-5.617188l4.210938-2.972656-17.175781 9.910156c-1.882813 1.117188-4.308594.574219-5.535157-1.238281-1.179687-1.84375-.746093-4.285156.992188-5.617188l37.574219-27.992187-60.613282 34.847656c-1.90625 1.085938-4.332031.492188-5.519531-1.355469-1.1875-1.84375-.722656-4.296874 1.058594-5.582031l49.550781-35.425781-73.25 42.363281c-1.917969 1.132813-4.390625.507813-5.535156-1.402343-1.171875-1.902344-.621094-4.386719 1.242187-5.617188l49.546875-33.03125-69.945312 40.050781c-1.917969.960938-4.253906.292969-5.375-1.535156-1.117188-1.832031-.648438-4.214844 1.082031-5.484375l43.4375-28.160156-61.113281 35.179687c-1.917969.960938-4.25.292969-5.371094-1.535156-1.121094-1.832031-.652344-4.214844 1.078125-5.484375l14.203125-9-27.746094 16.019531c-1.917968.960938-4.253906.292969-5.371094-1.535156-1.121093-1.832031-.652343-4.214844 1.078126-5.484375l74.320312-47.8125-95.296875 54.832031c-1.941406 1.140625-4.441406.515625-5.617187-1.402343-1.125-1.90625-.585938-4.363282 1.242187-5.617188l116.851563-76.304688-144.765626 83.324219c-1.917968.960938-4.253906.292969-5.371093-1.535156-1.121094-1.832031-.652344-4.214844 1.078125-5.484375l117.429687-75.066406-142.289062 82.085937c-1.917969.960938-4.25.292969-5.371094-1.535156-1.121094-1.832031-.652344-4.214844 1.078125-5.484375l122.054688-77.046875-145.671876 84.066406c-1.257812 1-2.980468 1.183594-4.417968.464844-1.4375-.714844-2.328125-2.203125-2.28125-3.808594.042968-1.605469 1.011718-3.039062 2.488281-3.675781l120.566406-75.230469-142.453125 82.25c-.617187.382813-1.335937.582031-2.0625.578125zm0 0" fill="#fab153"/><path d="m86.277344 487.753906c-1.828125-.003906-3.433594-1.210937-3.949219-2.964844-.515625-1.757812.183594-3.640624 1.722656-4.632812l62.511719-40.21875-81.835938 47.238281c-1.902343.820313-4.117187.109375-5.179687-1.664062-1.066406-1.777344-.652344-4.066407.964844-5.355469l33.035156-20.5625-48.144531 27.582031c-1.917969.960938-4.253906.292969-5.375-1.535156-1.117188-1.832031-.648438-4.214844 1.078125-5.484375l96.375-62.347656-110.578125 63.585937c-.925782.5625-2.039063.71875-3.082032.4375-1.046874-.277343-1.929687-.972656-2.449218-1.921875-.578125-.917968-.765625-2.03125-.515625-3.085937.246093-1.054688.910156-1.96875 1.835937-2.53125l57.804688-36.003907c-.933594-.277343-1.730469-.898437-2.226563-1.734374-1.191406-1.878907-.679687-4.359376 1.15625-5.617188l125.273438-83.40625c-.277344-1.746094.542969-3.480469 2.066406-4.375l34.105469-19.820312c1.917968-.960938 4.25-.292969 5.371094 1.535156 1.121093 1.832031.652343 4.214844-1.078126 5.484375l-53.761718 35.839843 69.453125-40.050781c1.898437-.824219 4.113281-.109375 5.179687 1.664063 1.0625 1.773437.648438 4.0625-.96875 5.355468l-22.628906 14.121094 27.417969-15.855468c1.917969-.960938 4.253906-.296876 5.371093 1.535156 1.121094 1.832031.652344 4.214844-1.078124 5.484375l-96.039063 62.84375 105.125-60.699219c1.957031-1.113281 4.445313-.453125 5.59375 1.480469 1.148437 1.9375.535156 4.441406-1.382813 5.621093l-33.03125 20.480469 37.324219-21.46875c1.917969-1.136719 4.390625-.507812 5.535157 1.402344 1.125 1.90625.585937 4.359375-1.238282 5.617187l-62.515625 40.214844 68.957031-39.804687c1.917969-.960938 4.25-.292969 5.371094 1.539062 1.121094 1.828125.652344 4.210938-1.078125 5.480469l-80.1875 53.265625 88.859375-51.363281c1.9375-1.210938 4.488282-.617188 5.695313 1.320312 1.210937 1.9375.617187 4.488282-1.320313 5.695313l-61.6875 40.714843 68.871094-39.722656c1.917969-.960937 4.253906-.292968 5.375 1.539063 1.117188 1.828125.648438 4.210937-1.078125 5.480469l-34.519531 22.378906 40.050781-23.121094c1.917969-1.132812 4.390625-.507812 5.53125 1.402344 1.175781 1.898437.625 4.386718-1.238281 5.617187l-34.929688 22.957031 40.300782-23.289062c1.914062-1.132812 4.386718-.503906 5.53125 1.40625 1.171874 1.898438.625 4.382812-1.238282 5.613281l-35.59375 23.453125 41.292969-23.617187c1.917969-.960938 4.25-.292969 5.371094 1.535156 1.121093 1.832031.652343 4.214844-1.078125 5.484375l-.910156.578125 4.210937-2.394531c1.925781-1.089844 4.363281-.46875 5.535156 1.402344 1.1875 1.878906.675781 4.359374-1.15625 5.617187l-27.914062 18.828125 33.035156-19.160156c1.941406-1.140625 4.4375-.515625 5.613281 1.40625 1.128906 1.90625.585938 4.359375-1.238281 5.613281l-13.789063 9.25 18-10.40625c1.925782-1.085937 4.363282-.46875 5.535157 1.40625 1.1875 1.875.675781 4.359375-1.15625 5.613281l-7.679688 5.121094 11.394531-6.523438c1.902344-1.105468 4.335938-.523437 5.53125 1.320313 1.207032 1.855469.734376 4.335937-1.070312 5.617187l-24.777344 18.082032 30.96875-17.835938c1.894532-1.148437 4.363282-.558594 5.535156 1.320313 1.203126 1.859375.730469 4.335937-1.074218 5.617187l-10.488282 7.429688 14.617188-8.257813c1.921875-1.085937 4.359375-.46875 5.53125 1.40625.597656.875.820312 1.949219.617188 2.988281-.199219 1.039063-.808594 1.957032-1.691407 2.542969l-1.484375 1.074219 4.707032-2.726562c1.867187-1.023438 4.207031-.492188 5.449218 1.238281 1.226563 1.757812.902344 4.164062-.742187 5.535156l-18.582031 15.195313 24.773437-14.371094c1.804687-1.046875 4.109375-.589844 5.371094 1.074218 1.367187 1.558594 1.367187 3.890626 0 5.449219l-17.261719 16.519531 24.773438-14.453124c1.722656-1.027344 3.933593-.640626 5.203124.90625 1.308594 1.519531 1.308594 3.769531 0 5.285156l-11.066406 13.546875 18.746094-10.820313c1.601562-.980468 3.667969-.703125 4.957031.660156 1.335938 1.296876 1.640625 3.324219.742188 4.957032l-5.121094 8.835937 11.148437-6.441406c1.992188-1.066406 4.46875-.375 5.617188 1.566406.5625.941407.722656 2.066407.445312 3.125-.28125 1.058594-.976562 1.957031-1.933593 2.492188l-24.773438 14.039062c-1.609375.894531-3.621093.613281-4.925781-.6875-1.304688-1.304687-1.585938-3.316406-.6875-4.929687l5.035156-8.835938-24.773437 14.453125c-1.71875 1.027344-3.933594.640625-5.203125-.910156-1.273438-1.53125-1.273438-3.753906 0-5.285156l10.902344-13.625-34.191407 19.820312c-1.800781 1.050781-4.105469.589844-5.367187-1.074219-1.253906-1.660156-1.078125-3.996093.414062-5.449218l17.175782-16.515625-40.296876 23.039062c-1.867187 1.160157-4.316406.652344-5.570312-1.152343-1.253906-1.804688-.875-4.273438.863281-5.621094l18.578125-15.109375-37.984375 21.882812c-1.902343 1.101563-4.335937.523438-5.535156-1.320312-1.203125-1.859375-.730469-4.335938 1.074219-5.617188l1.488281-.992187-13.875 8.257812c-1.902344 1.105469-4.335937.523438-5.535156-1.320312-1.144531-1.886719-.640625-4.335938 1.15625-5.613282l10.40625-7.433593-24.773438 14.367187c-1.902343 1.105469-4.335937.523438-5.53125-1.320312-1.164062-1.863282-.695312-4.308594 1.070313-5.613282l24.777344-18.085937-43.355469 24.773437c-1.253907.78125-2.832031.835938-4.136719.140626-1.300781-.695313-2.136719-2.03125-2.1875-3.507813-.050781-1.480469.691406-2.871094 1.945312-3.652344l7.515626-5.035156-20.726563 11.972656c-1.917969 1.183594-4.429687.59375-5.617187-1.320312-1.183594-1.917969-.59375-4.429688 1.320312-5.617188l13.792969-9.332031-28.242188 16.515625c-1.902343 1.105469-4.335937.523437-5.535156-1.320313-1.1875-1.878906-.675781-4.359374 1.15625-5.613281l27.914063-18.832031-44.757813 25.519531c-1.917969.960938-4.253906.292969-5.375-1.535156-1.117187-1.832031-.648437-4.214844 1.078125-5.484375l.910156-.578125-13.214844 7.597656c-1.941406 1.140625-4.4375.515625-5.613281-1.402343-1.128906-1.90625-.585937-4.363282 1.238281-5.617188l35.34375-23.453125-52.851562 30.472656c-1.914062 1.132813-4.386719.507813-5.53125-1.402343-1.171875-1.902344-.625-4.386719 1.238281-5.617188l34.929688-22.875-51.859375 29.894531c-1.917969.960938-4.253906.292969-5.371094-1.535156-1.121094-1.832031-.652344-4.214844 1.078125-5.484375l34.847656-22.628906-51.363281 29.648437c-1.941406 1.140625-4.441406.515625-5.617188-1.402343-1.128906-1.90625-.585937-4.363282 1.238282-5.617188l61.769531-40.628906-82.578125 47.648437c-1.917969 1.132813-4.390625.507813-5.535156-1.402343-1.1875-1.878907-.675782-4.363282 1.15625-5.617188l80.269531-53.265625-104.546875 60.285156c-.617188.390625-1.335938.59375-2.066406.578125zm0 0" fill="#ffba6e"/></g><path d="m494.640625 203.097656c.492187-1.367187-.109375-2.886718-1.40625-3.550781-23.945313-15.910156-47.867187-31.875-71.761719-47.898437-.660156-11.808594-1.15625-23.449219-1.15625-34.515626v-96.207031c.042969-.246093.042969-.496093 0-.742187-5.367187-19.820313-18.167968-18.996094-34.765625-19.492188-30.140625-.90625-60.367187 0-90.839843 0h-100.25c-11.398438 0-23.539063-2.226562-33.035157 3.058594-21.964843 11.558594-42.859375 42.445312-60.117187 59.785156-6.332032 5.625-12.136719 11.816406-17.34375 18.5l-4.457032 4.460938c-1.320312 1.320312-1.40625 2.226562-.828124 2.886718.578124.664063 0 .992188 1.15625 1.242188-.652344 2.308594-1.175782 4.648438-1.566407 7.019531-2.316406 18.792969-2.757812 37.769531-1.324219 56.648438l-71.019531 47.070312c-.660156.496094-2.476562 2.066407-2.226562 3.304688v140.386719c0 35.34375-13.792969 104.050781 11.890625 133.121093.566406.574219 1.339844.898438 2.148437.90625 22.542969 12.058594 51.527344 7.433594 76.46875 7.433594h315.871094c22.792969 0 43.765625 2.394531 64.082031-6.441406 2.96875.832031 6.152344-.0625 8.257813-2.3125 26.011719-29.398438 12.550781-94.886719 12.550781-130.644531zm-354.519531-165.988281c7.1875-6.132813 14.027344-12.667969 20.480468-19.570313v21.140626c1.363282 11.714843 1.363282 23.546874 0 35.261718-4.046874 15.527344-27.25 10.074219-39.308593 10.074219h-26.921875l1.980468-3.136719zm342.460937 402.167969v11.976562c-.742187 27.003906 1.15625 19.816406-14.53125 11.808594l-4.875-2.644531-112.554687-77.707031c-13.628906-9.414063-34.023438-27.417969-54.753906-41.289063 6.9375-5.121094 14.121093-9.910156 21.222656-14.867187l26.839844-18.496094c7.679687-5.203125 15.359374-10.40625 22.957031-15.691406l18.332031-12.550782c9.179688-4.976562 17.789062-10.929687 25.683594-17.753906l71.679687-49.550781v143.527343c0 27.746094.25 55.492188 0 83.238282zm-2.890625-235.601563c-19.761718 13.707031-39.554687 27.472657-59.375 41.289063v-1.402344c3.472656-25.945312 4.21875-52.183594 2.230469-78.285156zm-294.152344-194.558593h165.824219c16.019531 0 50.785157-7.679688 56.898438 13.707031v229.820312s-1.15625 0-3.882813 2.890625l-116.933594 80.765625c-7.953124-4.984375-16.574218-8.820312-25.601562-11.394531-7.296875-3.621094-15.734375-4.1875-23.453125-1.570312-5.058594 1.546874-9.789063 4.007812-13.953125 7.265624-3.636719 1.816407-7.351562 3.882813-11.066406 6.03125l-2.230469-1.40625-3.304687-1.238281-43.105469-29.8125c-4.046875-2.972656-8.257813-5.945312-11.808594-8.257812-7.761719-5.367188-15.609375-10.488281-23.535156-15.691407l-20.644531-15.109374c-3.222657-2.3125-6.441407-4.625-9.5-7.101563-5.695313-4.460937-8.257813-6.113281-8.917969-8.257813v-13.214843c0-1.320313 0-2.726563 0-4.375v-69.78125c0-.992188 0-1.984375 0-2.972657v-7.433593c.046875-.191407.046875-.386719 0-.578125-.90625-18.664063-3.386719-39.886719 0-56.816406.324219-1.230469.707031-2.441407 1.15625-3.632813h33.03125c11.8125 0 27.75 2.476563 38.238281-4.292969 12.964844-8.257812 9.824219-24.773437 9.824219-38.152344v-39.96875c4.296875-.082031 9.167969.578126 12.964843.578126zm-107.351562 182.335937c0 11.230469-3.882812 34.023437-2.890625 50.621094l-57.808594-39.882813 59.789063-39.804687c.164062 9.910156.660156 19.734375.660156 29.066406zm-62.597656 21.886719 62.84375 43.351562c8.257812 15.03125 41.949218 29.398438 55.492187 38.730469l69.203125 48.0625c-17.421875 11.808594-34.433594 26.34375-47.730468 36.417969l-46.246094 31.878906-66.476563 45.417969c-2.476562 1.734375-4.707031 3.300781-6.6875 4.871093l-14.617187 10.242188c-4.128906.824219-5.367188-4.957031-5.78125-23.289062-1.652344-78.453126-.164063-157.152344 0-235.683594zm391.347656 267.890625h-343.449219c-5.914062.371093-11.84375.371093-17.757812 0-14.121094-1.734375-18.828125-3.386719-18.578125-5.617188l185.476562-127.917969c1.613282-.152343 3.171875-.691406 4.539063-1.566406 22.710937-15.691406 41.292969-14.121094 63.09375.660156l188.859375 130.3125c-18 8.421876-43.519532 4.128907-62.183594 4.128907zm0 0" fill="#262626"/><path d="m133.019531 149.917969h231.226563c7.019531 0 9.082031-9.25.988281-9.25h-231.222656c-7.019531 0-8.753907 9.25-.992188 9.25zm0 0" fill="#262626" fill-rule="evenodd"/><path d="m366.886719 182.617188h-41.289063c-2.476562 0-6.773437.742187-7.84375 3.46875-.425781 1.09375-.234375 2.332031.496094 3.246093.730469.917969 1.890625 1.378907 3.054688 1.214844h41.289062c2.476562 0 6.769531-.746094 7.84375-3.46875.421875-1.09375.234375-2.332031-.496094-3.246094-.730468-.917969-1.894531-1.378906-3.054687-1.214843zm0 0" fill="#262626" fill-rule="evenodd"/><path d="m278.277344 189.058594c2.644531 0 13.542968-4.953125 7.765625-4.953125h-148.648438c-2.640625 0-13.542969 4.953125-7.761719 4.953125zm0 0" fill="#262626" fill-rule="evenodd"/><path d="m175.382812 223.660156h-41.289062c-6.691406 0-9.332031 8.257813-1.15625 8.257813h41.289062c6.691407.164062 9.332032-8.257813 1.15625-8.257813zm0 0" fill="#262626" fill-rule="evenodd"/><path d="m365.152344 223.164062h-148.644532c-7.019531 0-9 9.414063-.824218 9.414063h149.058594c6.605468 0 8.257812-9.414063.410156-9.414063zm0 0" fill="#262626" fill-rule="evenodd"/><path d="m299.171875 264.621094h-99.097656c-6.9375 0-9.082031 9.082031-.992188 9.082031h99.097657c6.9375 0 8.753906-9.082031.992187-9.082031zm0 0" fill="#262626" fill-rule="evenodd"/></svg>