<svg height="512" viewBox="0 0 60 60" width="512" xmlns="http://www.w3.org/2000/svg"><g id="023---Object-Tracking" fill="none"><path id="Path" d="m30.034 50.461c-.2213642.000073-.4164276-.1454192-.4794639-.3576185-.0630363-.2121992.0209607-.4405897.2064639-.5613815l1.748-1.142-2.619 1.512c-.2342478.1308833-.5300435.0535271-.6702262-.1752769s-.074765-.527467.1482262-.6767231l1.428-.922-1.98 1.142c-.2330829.1306613-.5277074.0549657-.6689423-.1718661-.1412349-.2268319-.0791592-.5246238.1409423-.6761339l6.77-4.527-7.758 4.482c-.2335451.1328438-.5303244.0573638-.6720248-.1709163s-.0776546-.5277351.1450248-.6780837l8.015-5.344-9.093 5.249c-.2329061.1254293-.5232086.0477402-.6623373-.1772508s-.0789338-.5194187.1373373-.6717492l8.717-5.761-9.807 5.661c-.2327769.1270897-.524286.0503218-.6642741-.174934-.139988-.2252559-.0797468-.5206233.1372741-.673066l11.357-7.585-12.703 7.339c-.2369302.1419372-.5440628.0649301-.686-.172-.1419372-.2369302-.0649301-.5440628.172-.686l.288-.18-.776.449c-.2337734.1287456-.5274505.051198-.667188-.1761759-.1397374-.2273739-.07627-.5244122.144188-.6748241l12-7.851-13.259 7.65c-.2369302.1419372-.5440628.0649301-.686-.172-.1419372-.2369302-.0649301-.5440628.172-.686l2.278-1.414-2.839 1.639c-.2347034.1364868-.5354374.0607325-.6774741-.1706544-.1420368-.2313868-.073465-.5338394.1544741-.6813456l13.818-8.974-15.138 8.743c-.2354116.1379583-.5379577.061708-.6798637-.1713453-.1419059-.2330532-.070765-.5368414.1598637-.6826547l13.578-8.7-14.663 8.462c-.2350866.127347-.5287583.0472199-.6665908-.1818764-.1378325-.2290964-.071048-.5260868.1515908-.6741236l9.973-6.258-10.068 5.812c-.2343611.1288923-.5286543.0505227-.6678755-.1778537-.1392213-.2283764-.0740613-.5258734.1478755-.6751463l14.249-9.149-13.739 7.932c-.234481.1270728-.5274228.0477401-.6657366-.1802909-.1383139-.2280309-.0733058-.5244809.1477366-.6737091l11.373-7.252-10.855 6.266c-.234481.1270728-.5274228.0477401-.6657366-.1802909-.1383139-.2280309-.0733058-.5244809.1477366-.6737091l9.7-6.18-9.183 5.3c-.2350866.127347-.5287583.0472199-.6665908-.1818764-.1378325-.2290964-.071048-.5260868.1515908-.6741236l5.279-3.319-4.764 2.75c-.233204.1287421-.5263939.0520483-.6666872-.1743946-.1402933-.226443-.0784231-.5231151.1406872-.6746054l12.64-8.4-12.114 6.995c-.2334572.1253051-.5241289.0467367-.6626677-.1791186-.1385388-.2258554-.0768365-.5205686.1406677-.6718814l8.284-5.375-7.762 4.481c-.2330372.1238601-.5222123.0452782-.6605113-.1794907s-.0780959-.5183212.1375113-.6705093l7.824-5.119-7.3 4.215c-.2343611.1288923-.5286543.0505227-.6678755-.1778537-.1392213-.2283764-.0740613-.5258734.1478755-.6751463l3.762-2.414-3.242 1.871c-.2343611.1288923-.5286543.0505227-.6678755-.1778537-.1392213-.2283764-.0740613-.5258734.1478755-.6751463l3.135-2.018-2.615 1.508c-.2321092.1290838-.5246372.0541763-.6661393-.170578-.1415021-.2247542-.0825963-.5209195.1341393-.674422l7.82-5.335-7.288 4.207c-.2324067.1328499-.5282158.0590851-.6710333-.1673329s-.0819688-.5251514.1380333-.6776671l6.328-4.341-5.322 3.073c-.23893.1358451-.5427102.0533708-.6801373-.1846528-.137427-.2380237-.0569695-.5423443.1801373-.6813472l16.467-9.511c.2324067-.13284986.5282158-.05908515.6710333.16733285s.0819688.52515145-.1380333.67766715l-6.33 4.342 7.664-4.424c.2328603-.1351428.5309189-.0616362.6742423.1662803.1433233.2279164.080443.5283964-.1422423.6797197l-7.819 5.335 8.981-5.185c.2358256-.1438702.5436298-.0693256.6875.1665s.0693256.5436298-.1665.6875l-3.135 2.017 3.783-2.183c.2347713-.1336383.5332399-.0566316.6740509.1739091.1408109.2305408.0730402.5312411-.1530509.6790909l-3.762 2.414 4.44-2.563c.2333291-.1269664.5252099-.0493179.6646076.1768043.1393976.2261221.0776459.5217747-.1406076.6731957l-7.823 5.117 8.8-5.082c.2337734-.1287456.5274505-.051198.667188.1761759.1397374.2273739.07627.5244122-.144188.6748241l-8.273 5.373 9.255-5.343c.2335451-.1328438.5303244-.0573638.6720248.1709163s.0776546.5277351-.1450248.6780837l-12.644 8.4 14.053-8.113c.2355125-.13196.5332497-.0531389.6726204.1780652.1393708.2312042.0700423.5312938-.1566204.6779348l-5.277 3.317 5.984-3.454c.234481-.1270728.5274228-.0477401.6657366.1802909.1383139.2280309.0733058.5244809-.1477366.6737091l-9.696 6.179 10.664-6.156c.234481-.1270728.5274228-.0477401.6657366.1802909.1383139.2280309.0733058.5244809-.1477366.6737091l-11.381 7.256 12.44-7.181c.2343611-.1288923.5286543-.0505227.6678755.1778537.1392213.2283764.0740613.5258734-.1478755.6751463l-14.245 9.147 15.256-8.809c.2355125-.13196.5332497-.0531389.6726204.1780652.1393708.2312042.0700423.5312938-.1566204.6779348l-9.979 6.261 9.775-5.642c.234023-.1252853.5251579-.0458598.6631351.1809119.1379772.2267718.0746978.5218373-.1441351.6720881l-13.573 8.698 13.054-7.534c.2342478-.1308833.5300435-.0535271.6702262.1752769s.074765.527467-.1482262.6767231l-13.825 8.976 13.3-7.68c.2352087-.125628.5276152-.0445694.664573.1842276.1369579.228797.070267.5248112-.151573.6727724l-2.281 1.419 1.772-1.022c.2330372-.1238601.5222123-.0452782.6605113.1794907s.0780959.5183212-.1375113.6705093l-11.995 7.848 11.472-6.623c.2352087-.125628.5276152-.0445694.664573.1842276.1369579.228797.070267.5248112-.151573.6727724l-.446.278c.2374664-.0921975.5062846.0088726.6241871.2346815s.0471922.5041585-.1641871.6463185l-11.361 7.585 10.834-6.255c.2336556-.130691.5287926-.0541466.6694787.1736308.140686.2277774.0769932.5259521-.1444787.6763692l-8.71 5.761 8.185-4.726c.2335451-.1328438.5303244-.0573638.6720248.1709163s.0776546.5277351-.1450248.6780837l-8.019 5.346 7.492-4.325c.2340027-.1389988.5362016-.0652981.6799386.1658244s.0762078.5347601-.1519386.6831756l-6.77 4.526 6.242-3.6c.2338963-.1269547.5262491-.04845.6650871.1785941.1388379.227044.0755015.5230536-.1440871.6734059l-1.421.918.9-.519c.2337734-.1287456.5274505-.051198.667188.1761759.1397374.2273739.07627.5244122-.144188.6748241l-1.756 1.147.553-.318c.1549945-.0985297.351531-.1041539.5119064-.0146489.1603754.0895049.2587712.2597296.2562855.4433739s-.1054527.3511436-.2681919.436275l-16.257 9.379c-.0760084.0438886-.1622305.0669961-.25.067z" fill="#ffc306"/><path id="Path" d="m29.933 30.434c-.2213642.000073-.4164276-.1454192-.4794639-.3576185-.0630363-.2121992.0209607-.4405897.2064639-.5613815l.319-.207-.9.52c-.2317427.1353654-.5290201.0636298-.6735243-.1625272-.1445041-.2261571-.084687-.5260601.1355243-.6794728l6.632-4.665-7.928 4.579c-.23265.1288599-.5254615.0530472-.6663444-.1725252s-.0805297-.5219566.1373444-.6744748l4.274-2.883-5.068 2.93c-.2355494.1441463-.5433537.0700494-.6875-.1655s-.0700494-.5433537.1655-.6875l.1-.064-.561.323c-.2324067.1328499-.5282158.0590851-.6710333-.1673329s-.0819688-.5251514.1380333-.6776671l5.494-3.773-6.439 3.717c-.2298251.1278768-.5194281.0558458-.6625685-.1647961s-.0908781-.5144564.1195685-.6722039l7.742-5.608-9.135 5.274c-.2318603.1330617-.527371.0602043-.6708066-.1653857-.1434357-.22559-.0840493-.5240996.1348066-.6776143l6.21-4.325-7.274 4.2c-.2329673.1327691-.5291919.0581284-.6714287-.1691822-.1422368-.2273105-.0798406-.5263539.1414287-.6778178l4.477-3.028-5.3 3.057c-.232368.1256461-.5223842.0488566-.6621282-.1753162-.1397441-.2241727-.0809951-.5183743.1341282-.6716838l3.786-2.538-4.53 2.615c-.2330829.1306613-.5277074.0549657-.6689423-.1718661-.1412349-.2268319-.0791592-.5246238.1409423-.6761339l3.8-2.551-4.551 2.627c-.2334572.1253051-.5241289.0467367-.6626677-.1791186-.1385388-.2258554-.0768365-.5205686.1406677-.6718814l.5-.325-.982.567c-.2300482.1308569-.5222207.059778-.6664488-.1621318-.1442281-.2219099-.0905463-.5177734.1224488-.6748682l7.418-5.381-8.139 4.7c-.23893.1358451-.5427102.0533708-.6801373-.1846528-.137427-.2380237-.0569695-.5423443.1801373-.6813472l16.468-9.513c.2300482-.13085689.5222207-.05977797.6664488.16213184.1442281.22190982.0905463.51777336-.1224488.67486816l-7.423 5.384 9.1-5.251c.2347034-.1364868.5354374-.0607325.6774741.1706544.1420368.2313868.073465.5338394-.1544741.6813456l-.5.322.993-.573c.232368-.1256461.5223842-.0488566.6621282.1753162.1397441.2241727.0809951.5183743-.1341282.6716838l-3.8 2.551 4.569-2.637c.232368-.1256461.5223842-.0488566.6621282.1753162.1397441.2241727.0809951.5183743-.1341282.6716838l-3.782 2.542 4.55-2.626c.2329673-.1327691.5291919-.0581284.6714287.1691822.1422368.2273105.0798406.5263539-.1414287.6778178l-4.48 3.026 5.314-3.068c.2318603-.1330617.527371-.0602043.6708066.1653857.1434357.22559.0840493.5240996-.1348066.6776143l-6.214 4.327 7.3-4.215c.2304184-.1322364.5240189-.0611893.6684864.1617642.1444674.2229535.0893536.5199576-.1254864.6762358l-7.738 5.607 9.159-5.29c.2324067-.1328499.5282158-.0590851.6710333.1673329s.0819688.5251514-.1380333.6776671l-5.49 3.769 6.46-3.73c.2347713-.1336383.5332399-.0566316.6740509.1739091.1408109.2305408.0730402.5312411-.1530509.6790909l-.108.07.584-.337c.2334461-.1352991.5321345-.0609722.6749447.1679561.1428102.2289282.0782242.5298733-.1459447.6800439l-4.275 2.882 5.092-2.94c.2317427-.1353654.5290201-.0636298.6735243.1625272.1445041.2261571.084687.5260601-.1355243.6794728l-6.632 4.665 7.748-4.477c.2342478-.1308833.5300435-.0535271.6702262.1752769s.074765.527467-.1482262.6767231l-3.3 2.142c.1798278.0694203.3037345.236031.3184697.428229.0147351.192198-.0823258.3757495-.2494697.471771l-13.11 7.569c-.0750334.0449513-.1605461.0694328-.248.071z" fill="#f7ad00"/><g fill="#2885ee"><path id="Path" d="m57.04 32.462c-.1814767.0002751-.3488551-.0978026-.4373229-.2562555s-.0841342-.3524013.0113229-.5067445l.668-1.081-1.6.924c-.19117.1124463-.4335684.0855195-.5954002-.06614s-.2044163-.3918024-.1045998-.58986l.793-1.583-.158.091c-.23893.1358451-.5427102.0533708-.6801373-.1846528-.137427-.2380237-.0569695-.5423443.1801373-.6813472l1.6-.925c.19117-.1124463.4335684-.0855195.5954002.06614s.2044163.3918024.1045998.58986l-.794 1.584 1.877-1.082c.19933-.1182962.4538286-.0840869.6148454.0826464.1610168.1667334.1863301.4222702.0611546.6173536l-.677 1.1c.2410311-.0810383.5044956.0317397.6122411.2620745.1077454.2303347.025449.504852-.1912411.6379255l-1.63.941c-.0766789.0414493-.1628613.0621331-.25.06z"/><path id="Path" d="m29.129 33.3c-.200318.0000205-.3813126-.1195173-.4599325-.3037623-.0786199-.1842449-.0396876-.3976286.0989325-.5422377l1.226-1.284-1.994 1.144c-.214298.1213709-.4850627.0686169-.6381217-.1243272-.1530591-.1929441-.1428239-.4686101.0241217-.6496728l1.66-1.77-1.7.984c-.2073289.1198377-.4705164.0758472-.6276039-.1049009-.1570875-.1807482-.1639632-.4474982-.0163961-.6360991l1.012-1.289c-.2318039.0148772-.4433262-.1318427-.5105967-.3541692s.0274291-.4617016.2285967-.5778308l1.937-1.118c.2073289-.1198377.4705164-.0758472.6276039.1049009.1570875.1807482.1639632.4474982.0163961.6360991l-.926 1.18 2.392-1.381c.214298-.1213709.4850627-.0686169.6381217.1243272.1530591.1929441.1428239.4686101-.0241217.6496728l-1.659 1.77 2.084-1.2c.215258-.1229472.4881008-.0696094.6412115.1253499.1531108.1949593.1402554.4726694-.0302115.6526501l-1.229 1.282.69-.4c.2374252-.1242009.5305531-.0391619.6646466.1928199.1340935.2319817.0614797.5284321-.1646466.6721801l-3.71 2.142c-.0755142.046863-.1621547.0727516-.251.075z"/><path id="Path" d="m29.592 59.359c-.190668-.0001635-.3646461-.1087522-.4485532-.2799652-.0839072-.1712131-.0631358-.3752435.0535532-.5260348l.565-.728-1.151.664c-.193289.1151338-.4399571.0851225-.6-.073-.1603593-.1553287-.1983123-.3981461-.093-.595l.791-1.479-.155.089c-.1547852.0907422-.3463247.0915917-.5019087.0022259-.155584-.0893657-.2513568-.2552442-.2509624-.4346667.0003945-.1794226.0968957-.3448784.2528711-.4335592l1.672-.964c.193289-.1151338.4399571-.0851225.6.073.1603593.1553287.1983123.3981461.093.595l-.791 1.479 1.845-1.064c.2068255-.1177772.4680042-.0734377.6243729.1059978.1563687.1794354.1645788.4442239.0196271.6330022l-.564.726.011-.005c.1549945-.0985297.351531-.1041539.5119064-.0146489.1603754.0895049.2587712.2597296.2562855.4433739s-.1054527.3511436-.2681919.436275l-2.222 1.283c-.0758031.044382-.1621615.067526-.25.067z"/><path id="Path" d="m3.037 32.463c-.18396687.0001537-.35315834-.1007281-.44048913-.2626452-.0873308-.1619172-.07869275-.3587122.02248913-.5123548l.6-.912-1.47.848c-.18876342.106398-.42457713.0791011-.58404197-.0676066-.15946483-.1467076-.20628423-.3794331-.11595803-.5763934l.8-1.719-.27.155c-.23742522.1242009-.53055313.0391619-.66464661-.1928199-.13409349-.2319817-.06147969-.5284321.16464661-.6721801l1.639-.951c.18856234-.1059344.42386024-.0786212.5831421.0676906.15928186.1463117.20643403.3784491.1168579.5753094l-.8 1.72 1.918-1.103c.2005172-.1155234.45410791-.0783538.61303766.0898548.15892976.1682086.18166561.4234984.05496234.6171452l-.642.982c.20156771-.0313612.40126817.066492.5.245.13806467.2391402.05613408.5449248-.183.683l-1.592.923c-.07639331.042493-.16259224.0642151-.25.063z"/><path id="Path" d="m29.772 5.411c-.1781921-.00005747-.3428873-.09494431-.4323142-.24907171s-.0900691-.3442001-.0016858-.49892829l.841-1.471-1.694.977c-.1991787.11719386-.4529887.08063858-.611-.088-.1589285-.16646544-.1836957-.41991656-.06-.614l.641-1c-.2417.06369049-.4933021-.0608897-.5891682-.29172522s-.0065416-.49700274.2091682-.62327478l1.643-.952c.1989535-.11744203.452734-.08130635.611.087.1594392.16663039.184226.42069497.06.615l-.622.969 1.513-.871c.1948225-.11169079.4402101-.07979041.6.078.1591136.1588216.1926635.40430888.082.6l-.84 1.47.384-.222c.2374252-.12420086.5305531-.03916186.6646466.19281988.1340935.23198173.0614797.52843213-.1646466.67218012l-1.984 1.153c-.0758031.04438197-.1621615.06752603-.25.067z"/></g><path id="Shape" d="m59.724 29.806c-.16-2.983-4.651-2.781-5.349-.332h-6.651v-4.793c0-1.348.447-3.819-.306-5.092-.913-1.547-3.947-2.625-5.372-3.463l-8.154-4.8c-.954289-.6297825-2.0301551-1.0522252-3.158-1.24v-4.848c1.0970364-.2594939 1.9018702-1.19638028 1.993-2.32 0-.024-.013-.038-.016-.059s.014-.034.013-.053c-.174-3.235-5.453-2.729-5.45.332-.0417079 1.15515659.8390169 2.13580302 1.992 2.218v4.825c-1.3300892.4281737-2.5936859 1.0404492-3.754 1.819-3.734 2.2-8.54 4.092-11.79 6.934-.3240178.2850493-.6013802.619099-.822.99-.332.139-.582.332-.438.42l.167.1c-.994 2.251-.353 5.367-.353 7.795 0 .4-.023.854-.057 1.353h-6.529c-.4-2.9-5.43-2.216-5.414.6.016 2.945 4.524 2.545 5.324.213h6.557c-.293 3.6-.885 8.734 1.209 10.769 3.229 3.138 8.856 5.208 12.742 7.493.9514285.6660271 2.0298276 1.1289762 3.168 1.36v4.8c-1.1340928.2269958-1.9625747 1.2050186-2 2.361.034 3.217 5.292 2.515 5.448-.388-.0344049-1.1030168-.8990324-2.0005002-2-2.076v-4.809c.4653709-.1191609.9176301-.2846543 1.35-.494 4.6266313-2.3159784 9.0914692-4.9419606 13.364-7.86 3.033-2.01 2.286-4.469 2.286-7.927v-3.108h6.591c.417 2.83 5.256 2.295 5.412-.608 0-.024-.013-.038-.016-.059s.014-.034.013-.053zm-57.051 1.672c-.59086575-.3492031-.95211127-.9856652-.949-1.672 0-.781.576-1.757 1.459-1.352.66630596.3241445 1.09024728.9990373 1.093 1.74-.047.862-.635 1.835-1.603 1.284zm27.45-29.978c.6876967.25072207 1.1449493.90502498 1.144 1.637-.046.566-.315 1.235-.871 1.376-.1665736-.05062104-.3435955-.05614219-.513-.016-.6932003-.24503658-1.1538172-.90380714-1.146-1.639.003-.753.535-1.609 1.386-1.358zm-14.532 16.981c3.3-2.529 7.428-4.368 11.019-6.48.80151-.5899941 1.7005366-1.0344301 2.656-1.313v12.368c0 .755 1.468.538 1.468-.112v-12.144c.037.01.068.013.106.024 1.66.5 3.437 2.022 4.926 2.9 2.773 1.631 7.339 3.259 9.559 5.622.2535755.2801124.4626746.5974709.62.941l-12.836 7.8c-.7233624-.9169532-1.8128118-1.470109-2.9799508-1.513037-1.167139-.0429279-2.2942805.4287007-3.0830492 1.290037l-12.761-7.764c.3060051-.6323064.7527594-1.1861312 1.306-1.619zm14.254 9.076c1.3466456.0493416 2.4144663 1.1524621 2.42 2.5.0339383.6359664-.200371 1.2570199-.6459298 1.7120829-.4455588.4550631-1.0615292.7024267-1.6980702.6819171-1.2449465-.1811993-2.1725179-1.2420083-2.186-2.5-.0637471-1.238675.8731284-2.3016514 2.11-2.394zm-.176 30.909c-.5904638-.3432648-.9512556-.9770365-.945-1.66.008-.8.589-1.716 1.463-1.334.6660928.3143941 1.0904648.9854397 1.089 1.722-.047.871-.649 1.799-1.607 1.272zm15.09-17.152c-3.241 2.727-7.808 4.591-11.462 6.74-.7860465.5803036-1.6529333 1.0422164-2.573 1.371v-12.619c0-.391-1.448-.137-1.448.388v12.155c-1.228065-.6070154-2.3965117-1.3278366-3.49-2.153-3.285-1.931-8.157-3.723-10.877-6.4-2.235-2.2-1.185-7.174-1.185-10.012 0-.122 0-.254-.007-.381h9c.54 0 1.54-.814.566-.814h-9.6c-.134-2.6-.555-5.885.177-8.4l12.621 7.669c-.1387477.3810486-.2130972.7825357-.22 1.188-.055 4.692 7.228 4.393 7.47-.1-.0248266-.4621257-.1346633-.9157108-.324-1.338l12.766-7.757c.815 2.384.387 6.006.185 8.621h-9.3c-.824 0-1.115 1.052-.13 1.052h9.358c-.011.23-.017.45-.017.65.007 3.096 1.054 7.981-1.51 10.14zm12.249-9.778c-.761115-.1949677-1.2876761-.8884872-1.271-1.674 0-.757.535-1.612 1.386-1.357.6870075.2504715 1.1441081.9037577 1.144 1.635-.055.686-.434 1.537-1.259 1.396z" fill="#262626"/><path id="Path" d="m2.266 11.956v9.1c0 .751 1.468.531 1.468-.114v-7.073c0-2.264-.47-5.452.628-7.546 2.4-4.572 12.313-2.8 16.572-2.8.824 0 1.116-1.05.132-1.05h-8.777c-2.874 0-5.767-.231-8.011 1.956-2.154 2.101-2.012 4.771-2.012 7.527z" fill="#262626"/><path id="Path" d="m56.276 21.194c0 .265 1.448.051 1.448-.388v-8.454c0-2.933.335-6.025-2.15-8.147-2.174-1.86-4.994-1.516-7.654-1.516h-8.454c-.328 0-1.646.622-.932.622h7.075c3.313 0 7.251-.628 9.475 2.412 1.657 2.267 1.192 5.379 1.192 8.046z" fill="#262626"/><path id="Path" d="m4.394 53.563c-1.137-2.172-.67-5.329-.67-7.682v-7.075c0-.315-1.448-.085-1.448.388v8.454c0 3.089-.315 6.375 2.5 8.455 2.154 1.59 4.952 1.234 7.466 1.234h8.458c.451 0 1.567-.674.6-.674-4.637 0-14.322 1.837-16.906-3.1z" fill="#262626"/><path id="Path" d="m56.276 39.194v6.36c0 2.295.447 5.22-.305 7.439-1.836 5.421-12.271 3.615-16.684 3.615-.52 0-1.547.784-.574.784h9.1c2.552 0 5.139.184 7.307-1.446 2.61-1.963 2.6-4.8 2.6-7.738v-9.4c.004-.415-1.444-.154-1.444.386z" fill="#262626"/></g></svg>