<svg height="503pt" viewBox="-22 0 503 503.57413" width="503pt" xmlns="http://www.w3.org/2000/svg"><path d="m61.464844 502.691406c-1.90625 0-3.578125-1.257812-4.101563-3.089844-.527343-1.828124.226563-3.785156 1.839844-4.792968l.367187-.222656-13.066406 7.5c-1.996094 1.070312-4.480468.390624-5.65625-1.542969-1.179687-1.933594-.640625-4.453125 1.226563-5.734375l62.125-39.714844-79.464844 45.890625c-2.003906 1.105469-4.519531.429687-5.707031-1.527344-1.183594-1.960937-.609375-4.503906 1.296875-5.765625l51.917969-32.660156-57.414063 33.179688c-2.007813 1.234374-4.636719.609374-5.871094-1.398438s-.605469-4.636719 1.398438-5.871094l123.085937-80.425781-121.34375 70.039063c-2 1.070312-4.492187.386718-5.664062-1.558594-1.171875-1.941406-.617188-4.464844 1.261718-5.738282l71.132813-44.824218-66.730469 38.476562c-2.015625 1.21875-4.640625.570313-5.859375-1.445312-1.214843-2.019532-.570312-4.640625 1.449219-5.859375l78.035156-49.417969-73.625 42.507812c-2.003906 1.117188-4.535156.453126-5.726562-1.511718-1.191406-1.960938-.621094-4.515625 1.296875-5.777344l91.460937-58.460938-87.03125 50.242188c-2.003906 1.105469-4.523437.429688-5.707031-1.53125-1.183594-1.957031-.613281-4.5 1.296875-5.761719l68.914062-43.617187-64.503906 37.25c-2.015625 1.160156-4.589844.496094-5.789062-1.5-1.195313-1.992188-.578125-4.578125 1.394531-5.8125l45.527344-28.5625-41.132813 23.714844c-2.003906 1.164062-4.570312.519531-5.78125-1.457032-1.210937-1.972656-.625-4.554687 1.320313-5.8125l99.582031-64.914062-95.121094 54.929687c-1.992187 1.082031-4.480468.421875-5.671875-1.507812-1.1875-1.929688-.660156-4.453125 1.199219-5.746094l95.429688-62.652344-90.957032 52.507813c-2 1.066406-4.492187.382812-5.664062-1.558594-1.171875-1.945312-.617188-4.464844 1.261718-5.738281l26.878907-16.929688-22.476563 12.933594c-2 1.101563-4.511718.433594-5.699218-1.515625s-.632813-4.488281 1.261718-5.761719l48.980469-31.53125-44.542969 25.710938c-2 1.117187-4.523437.457031-5.71875-1.496094-1.195312-1.953125-.636718-4.5 1.265625-5.773437l45.585938-29.644532-41.132813 23.746094c-1.984375 1.117188-4.496094.480469-5.703125-1.449219-1.210937-1.929687-.695312-4.464843 1.171875-5.769531l60.792969-41.453125-56.261719 32.46875c-1.964844 1.101563-4.445312.484375-5.667968-1.40625-1.222657-1.890625-.765626-4.40625 1.042968-5.746094l54.886719-39.441406-48.640625 28.066406c-1.949219 1.121094-4.4375.53125-5.675781-1.34375-1.242188-1.875-.816407-4.394531.976562-5.753906l38.234375-28.808594-27.6875 16c-1.878906 1.019531-4.222656.492188-5.484375-1.230469-1.257812-1.726562-1.050781-4.117187.492188-5.597656l23.507812-21.1875c-1.507812-.015625-2.890625-.835937-3.625-2.148437-1.179687-2.042969-.480469-4.652344 1.558594-5.828125l30.679687-17.707032c1.875-1.023437 4.21875-.496093 5.480469 1.230469 1.261719 1.722657 1.050781 4.113281-.488281 5.59375l-21.335938 19.183594 53.222657-30.632813c1.953125-1.121093 4.4375-.53125 5.679687 1.34375 1.242188 1.875.816406 4.394532-.976562 5.753907l-38.273438 28.824219 62.226563-35.921876c1.96875-1.144531 4.488281-.539062 5.722656 1.375 1.238281 1.910157.753906 4.457032-1.097656 5.78125l-54.878907 39.453126 80.726563-46.609376c1.984375-1.117187 4.496094-.480468 5.703125 1.449219 1.210938 1.929688.695312 4.464844-1.171875 5.769531l-60.792969 41.417969 82.21875-47.476562c2.011719-1.230469 4.636719-.597657 5.867188 1.410156 1.230468 2.011719.597656 4.636719-1.410156 5.867187l-45.613282 29.644532 57.59375-33.28125c2.003906-1.136719 4.550782-.480469 5.75 1.484375 1.203125 1.96875.625 4.535156-1.304687 5.796875l-49.042969 31.574218 57.824219-33.390624c2.015625-1.21875 4.640625-.574219 5.855469 1.445312 1.21875 2.015625.574218 4.640625-1.445313 5.859375l-26.871094 16.953125 31.769531-18.347656c2.007813-1.234375 4.636719-.605469 5.871094 1.402344 1.234375 2.007812.609375 4.636718-1.398437 5.871093l-95.371094 62.660157 102.8125-59.359376c2-1.164062 4.566406-.519531 5.78125 1.457032 1.210937 1.972656.625 4.554687-1.320313 5.8125l-99.582031 64.914062 104.496094-60.332031c2.011719-1.125 4.550781-.453125 5.742187 1.519531 1.1875 1.972656.597657 4.535156-1.335937 5.785156l-45.425781 28.519532 46.714844-26.949219c1.304687-.789063 2.929687-.820313 4.265624-.085937 1.335938.734374 2.179688 2.125 2.210938 3.652343.03125 1.523438-.753906 2.949219-2.058594 3.738281l-69.015625 43.667969 68.683594-39.65625c2.003906-1.121093 4.535156-.453125 5.726563 1.507813 1.195312 1.960937.621093 4.515625-1.296876 5.78125l-91.519531 58.503906 90.253907-52.140625c2.007812-1.101563 4.523437-.425781 5.707031 1.53125 1.1875 1.957031.613281 4.503906-1.292969 5.765625l-77.976562 49.382812 75.015624-43.308593c2.007813-1.125 4.550782-.453125 5.738282 1.519531 1.191406 1.972656.597656 4.535156-1.335938 5.785156l-71.132812 44.871094 66.722656-38.519531c1.992188-1.101563 4.5-.4375 5.691406 1.503906 1.191406 1.9375.652344 4.472656-1.230468 5.757813l-123.144532 80.460937 118.691406-68.523437c2-1.070313 4.492188-.386719 5.664063 1.558593 1.171875 1.941407.617187 4.464844-1.261719 5.738281l-51.941406 32.671876 47.546875-27.441407c1.996094-1.070312 4.480469-.390625 5.660156 1.542969 1.175781 1.933594.636719 4.453125-1.230469 5.734375l-62.15625 39.742187 57.726563-33.324218c2.015625-1.164063 4.589844-.496094 5.789063 1.5 1.199218 1.992187.578124 4.578125-1.394532 5.8125l-3.414062 2.140625c2.011718-.5 4.089844.515625 4.929687 2.410156.84375 1.890625.203125 4.113281-1.515625 5.273437l-10.820312 6.824219 6.410156-3.703125c1.996094-1.082031 4.488281-.414062 5.675781 1.523438 1.183594 1.9375.640625 4.464844-1.230469 5.746094l-25.234374 16.417968 20.804687-12.003906c1.988281-1.117188 4.503906-.46875 5.707031 1.464844 1.207032 1.9375.675782 4.476562-1.203125 5.769531l-36.972656 24.789063 32.425781-18.773438c1.964844-1.117188 4.457032-.507812 5.6875 1.382812 1.230469 1.894532.773438 4.421876-1.046875 5.761719l-47.445312 34.550781 42.882812-24.746093c1.957031-1.105469 4.441407-.5 5.671875 1.382812 1.226563 1.886719.78125 4.402344-1.023437 5.75l-25.898438 18.960938 21.25-12.269531c1.878907-1.0625 4.257813-.554688 5.535157 1.1875 1.277343 1.738281 1.054687 4.160156-.519532 5.636718l-27.699218 25.328125 22.648437-13.066406c1.78125-1.011719 4.03125-.617187 5.359375.941406 1.332031 1.5625 1.363281 3.847657.078125 5.445313l-11.890625 14.640625 5.976562-3.414063c2.039063-1.15625 4.628907-.453125 5.800782 1.578125 1.175781 2.03125.488281 4.628907-1.535156 5.8125l-26 14.941407c-1.78125 1.027343-4.042969.636718-5.375-.929688-1.335938-1.5625-1.363282-3.855469-.070313-5.453125l11.894531-14.632813-36.417968 21.015626c-1.882813 1.046874-4.246094.53125-5.519532-1.203126-1.273437-1.734374-1.054687-4.144531.507813-5.621093l27.648437-25.3125-55.707031 32.136719c-1.957031 1.082031-4.417969.46875-5.636719-1.40625-1.222656-1.875-.785156-4.375.996094-5.726563l25.90625-18.960937-45.226562 26.09375c-1.960938 1.117187-4.453126.511718-5.6875-1.382813-1.230469-1.894531-.769532-4.417969 1.046874-5.757813l47.511719-34.519531-72.140625 41.660157c-1.980468 1.074218-4.457031.417968-5.648437-1.496094-1.191407-1.910156-.691407-4.421875 1.144531-5.730469l36.992188-24.796875-55.46875 32.023438c-1.996094 1.117187-4.519532.457031-5.71875-1.496094-1.195313-1.949219-.636719-4.5 1.265624-5.773438l25.277344-16.367187-40.960937 23.636719c-2 1.085937-4.5.410156-5.679688-1.539063-1.183593-1.945313-.628906-4.472656 1.257813-5.746094l10.769531-6.828125-24.480469 14.113282c-.644531.386718-1.382812.597656-2.132812.605468zm0 0" fill="#61ddbc"/><path d="m128.679688 177.375c-1.867188 0-3.519532-1.214844-4.070313-3-.554687-1.785156.117187-3.722656 1.65625-4.78125l.273437-.1875-8.996093 5.195312c-1.980469 1.136719-4.507813.507813-5.722657-1.425781-1.21875-1.933593-.703124-4.480469 1.175782-5.78125l16.554687-11.375-24.472656 14.121094c-1.980469 1.136719-4.5.511719-5.726563-1.410156-1.222656-1.925781-.714843-4.472657 1.152344-5.785157l37.007813-25.792968-44.800781 25.863281c-1.988282 1.261719-4.625.667969-5.886719-1.324219-1.261719-1.988281-.667969-4.625 1.324219-5.886718l42.246093-29.117188-48.332031 27.898438c-1.992188 1.113281-4.511719.460937-5.710938-1.484376-1.203124-1.941406-.660156-4.488281 1.230469-5.769531l19.738281-13.03125-22.542968 13.011719c-1.976563 1.140625-4.496094.527344-5.726563-1.394531-1.226562-1.917969-.734375-4.460938 1.125-5.78125l63.582031-45.140625-67.824218 39.167968c-1.984375 1.152344-4.527344.527344-5.753906-1.417968-1.222657-1.945313-.683594-4.511719 1.214843-5.800782l46.207031-31.574218-46.933593 27.101562c-2.003907 1.234375-4.632813.609375-5.867188-1.398437-1.238281-2.007813-.609375-4.636719 1.398438-5.871094l7.796875-5.121094-6.421875 3.710938c-1.972657 1.109375-4.46875.484375-5.6875-1.417969-1.21875-1.90625-.738281-4.429688 1.09375-5.757812l51.730469-36.316407-49.273438 28.398438c-1.988281 1.132812-4.515625.496093-5.726562-1.445313-1.214844-1.9375-.683594-4.488281 1.207031-5.78125l22.9375-15.53125-18.375 10.613282c-1.957031 1.160156-4.476563.578124-5.730469-1.316407s-.800781-4.441406 1.03125-5.789062l46.273438-34.875-37.546876 21.671875c-1.972656 1.09375-4.453124.460937-5.664062-1.441406-1.210938-1.902344-.734375-4.417969 1.089844-5.742188l8.535156-6.023438c-1.523438.117188-2.996094-.574218-3.882812-1.820312-1.265626-1.816406-.933594-4.296875.769531-5.714844l18.515625-15.363281c-.738282-.382813-1.34375-.976563-1.75-1.703125-1.175782-2.042969-.476563-4.652344 1.5625-5.828125l30.703125-17.675781c1.921875-1.105469 4.367187-.558594 5.636719 1.261718 1.265624 1.820313.925781 4.304688-.78125 5.71875l-9.609376 7.972657 33.425782-19.304688c1.976562-1.152343 4.515625-.5429685 5.746094 1.386719 1.234374 1.929688.722656 4.488281-1.15625 5.800781l-4.941407 3.488281 15.464844-8.933593c1.953125-1.128907 4.449219-.539063 5.691406 1.34375 1.246094 1.882812.804688 4.410156-1 5.765625l-46.257812 34.855468 61.285156-35.386718c2-1.25 4.632813-.640625 5.878906 1.359375 1.25 1.996093.644531 4.628906-1.355469 5.878906l-22.996093 15.5625 28.515625-16.453125c1.980468-1.152344 4.515625-.542969 5.75 1.390625 1.230468 1.929687.722656 4.488281-1.15625 5.796875l-51.738282 36.386719 58.878907-33.980469c2.003906-1.164062 4.570312-.519531 5.78125 1.457031 1.210937 1.972657.628906 4.554688-1.316407 5.8125l-7.824218 5.121094 9.972656-5.761719c1.988281-1.152344 4.53125-.523437 5.753906 1.421875 1.222656 1.941407.6875 4.507813-1.214844 5.796875l-46.214843 31.523438 48.683593-28.074219c1.96875-1.097656 4.449219-.472656 5.664063 1.421875 1.21875 1.898438.75 4.414062-1.066406 5.746094l-63.597657 45.148437 65.757813-37.964843c1.996094-1.15625 4.554687-.515626 5.769531 1.445312 1.214844 1.964844.644532 4.539062-1.28125 5.808594l-19.625 12.988281 18.507813-10.699219c1.984375-1.179687 4.546875-.5625 5.78125 1.390625 1.234375 1.949219.691406 4.53125-1.226563 5.820313l-42.28125 29.15625 39.3125-22.714844c1.980469-1.136719 4.5-.515625 5.722656 1.410156 1.226563 1.925782.71875 4.472656-1.148437 5.78125l-37.007813 25.796875 32.058594-18.480469c1.984375-1.136718 4.507813-.503906 5.726563 1.425782 1.21875 1.933594.699219 4.480468-1.179688 5.785156l-16.492187 11.320312 10.023437-5.785156c1.984375-1.132812 4.507813-.503906 5.726563 1.429688 1.21875 1.929687.699218 4.480468-1.175782 5.78125l-6.785156 4.652344c1.835938 0 3.46875 1.175781 4.046875 2.917968.582031 1.742188-.015625 3.660156-1.488281 4.761719l-13.882812 10.597656c2.027343-.316406 3.992187.855469 4.679687 2.789063.6875 1.929687-.097656 4.078125-1.871094 5.113281l-54.441406 31.4375c-1.949219 1.125-4.4375.542969-5.683594-1.328125-1.25-1.871094-.832031-4.386719.953125-5.753906l12.109375-9.3125-29.070312 16.777344c-.652344.378906-1.390625.574218-2.144531.570312zm0 0" fill="#61ddbc"/><g fill="#262626"><path d="m3.53125 482.707031c5.75 23.765625 28.269531 19.054688 47.785156 19.054688h129.535156c21.234376 0 47.566407 4.378906 68.464844-.476563 25.71875-5.972656 22.546875-26.179687 22.546875-48.070312v-126.179688c0-45.226562-15.789062-87.613281-63.839843-101.128906-34.046876-9.574219-75.613282-3.414062-110.488282-3.414062-39.253906 2.636718-75.675781 22.109374-89.125 61.371093-10.058594 29.382813-4.90625 66.714844-4.90625 97.074219.027344 30.816406-7.269531 71.65625.027344 101.769531zm88.992188-254.011719c35.527343 0 82.664062-7.765624 116.054687 6.367188 49.886719 21.09375 50.925781 69.042969 50.925781 114.398438v116.050781c0 36.40625-21.503906 30.074219-51.371094 30.074219h-128.75c-23.664062 0-56.320312 8.746093-63.496093-20.414063-8.21875-33.578125 0-79.359375 0-113.875 0-56.78125-3.378907-127.214844 76.636719-132.601563zm0 0"/><path d="m135.371094 178.160156c.285156-.015625.570312-.050781.851562-.101562.257813 0 .410156.058594.691406 0 48.972657-2.636719 91.863282-38.09375 92.304688-89.726563-.546875-49.1875-40.765625-88.671875-89.957031-88.3124998-46.65625-.1562502-86.230469 34.2304688-92.585938 80.4531248-5.761719 54.246094 36.941407 94.898438 88.695313 97.6875zm4.589844-169.554687c98.332031 5.597656 101.359374 155.441406-.410157 161.996093-102.226562-6.042968-107.492187-168.148437.410157-161.996093zm0 0"/><path d="m280.445312 144.070312h81.441407v82.175782c0 5.753906 12.441406 3.414062 12.441406-1.277344v-80.898438h76.800781c5.035156 0 12.988282-7.59375 4.660156-7.59375h-81.460937v-82.175781c0-5.75-12.441406-3.414062-12.441406 1.28125v80.894531h-76.796875c-5.019532 0-12.972656 7.59375-4.644532 7.59375zm0 0"/></g></svg>