<svg height="512" viewBox="0 0 60 50" width="512" xmlns="http://www.w3.org/2000/svg"><g id="009---Happy-Brain" fill="none"><path id="Path" d="m40.028 49.445c-.1923855-.0004254-.3674631-.1111937-.4502426-.2848598-.0827794-.1736661-.0585762-.3794233.0622426-.5291402l.243-.3-.98.566c-.2164748.1176434-.486383.0600602-.6359981-.1356862-.149615-.1957464-.134338-.4713056.0359981-.6493138l.697-.712-.991.572c-.213258.1123453-.4763133.0565486-.625601-.1326962-.1492877-.1892449-.1423073-.4580619.016601-.6393038l1.791-1.869-2.322 1.34c-.2184203.1276802-.4977941.0720852-.6506935-.1294872s-.1311343-.4855915.0506935-.6615128l2.462-2.389-3.084 1.781c-.2280542.1290416-.517047.0601323-.6623353-.1579314-.1452882-.2180638-.0975826-.5113034.1093353-.6720686l.3-.233-.452.261c-.2231941.1282474-.5072862.0660776-.6565145-.1436697s-.1148202-.4985197.0795145-.6673303l3.324-2.882-3.97 2.292c-.2266681.1317558-.5166136.0660514-.6643416-.1505461-.1477279-.2165976-.1030619-.5105201.1023416-.6734539l3.228-2.565-3.811 2.2c-.2256086.1271264-.5109479.0609576-.657579-.1524896-.1466312-.2134471-.106025-.5035297.093579-.6685104l4.709-3.814-6.8 3.923c-.2319831.1309881-.5259285.0570795-.6683699-.1680527-.1424414-.2251321-.0833463-.52241.1343699-.6759473l2.28-1.579-2.956 1.706c-.2313261.1333882-.5266402.061466-.670727-.1633522-.1440867-.2248181-.0860887-.5231794.131727-.6776478l4.709-3.334-5.123 2.957c-.2304184.1322364-.5240189.0611893-.6684864-.1617642-.1444674-.2229535-.0893536-.5199576.1254864-.6762358l4.305-3.119-4.2 2.425c-.2314518.1313128-.5252013.0583356-.6682918-.1660259-.1430904-.2243616-.0853808-.5214879.1312918-.6759741l1.018-.713-.523.3c-.2271002.1265913-.5133226.0580067-.6583864-.1577626-.1450637-.2157693-.100553-.506709.1023864-.6692374l1.945-1.51-1.389.8c-.2145941.1228235-.486738.0703506-.6402819-.1234548-.1535438-.1938053-.142373-.4707366.0262819-.6515452l1.86-1.978-1.246.72c-.170506.0980281-.3826431.0869919-.5420565-.0281999-.1594134-.1151919-.2364885-.3131398-.1969435-.5058001l.321-1.55c-.1118354-.0393077-.2056295-.1178247-.264-.221-.1375532-.2386555-.0561721-.5436114.182-.682l.5-.289c.1705588-.098654.3831531-.0879416.5429311.0273577.159778.1152992.2369438.313684.1970689.5066423l-.274 1.318 3.223-1.86c.2145941-.1228235.486738-.0703506.6402819.1234548.1535438.1938053.142373.4707366-.0262819.6515452l-1.861 1.978 4.781-2.76c.2272713-.1290292.5155715-.0612656.6615658.155498.1459944.2167636.1004262.5093938-.1045658.671502l-1.944 1.509 4.057-2.342c.2314518-.1313128.5252013-.0583356.6682918.1660259.1430904.2243616.0853808.5214879-.1312918.6759741l-1.025.719 2.71-1.565c.2304184-.1322364.5240189-.0611893.6684864.1617642.1444674.2229535.0893536.5199576-.1254864.6762358l-4.3 3.114 6.08-3.509c.2306836-.128482.5215078-.0554404.6641078.1667933s.0878131.5170425-.1251078.6732067l-4.711 3.337 4.172-2.408c.2319831-.1309881.5259285-.0570795.6683699.1680527.1424414.2251321.0833463.52241-.1343699.6759473l-2.278 1.578 1.75-1.009c.2260575-.1301558.5141897-.0646595.6617686.1504288.1475789.2150884.1050107.5074886-.0977686.6715712l-4.709 3.813 4.146-2.393c.2269806-.1326577.5179234-.0668764.6657567.1505254.1478333.2174019.1020535.5121545-.1047567.6744746l-3.225 2.563 2.664-1.538c.2231941-.1282474.5072862-.0660776.6565145.1436697s.1148202.4985197-.0795145.6673303l-3.325 2.882 2.748-1.585c.227871-.1265147.5147039-.056766.6590373.1602571s.0977476.5085154-.1070373.6697429l-.424.324c.2190801-.054518.4475168.0445359.5574541.2417213s.0740999.4435809-.0874541.6012787l-2.462 2.389 1.864-1.075c.215258-.1229472.4881008-.0696094.6412115.1253499.1531108.1949593.1402554.4726694-.0302115.6526501l-1.789 1.868 1.178-.679c.2166127-.1233895.4910237-.0683675.6433231.1289924.1522993.1973599.1359526.4767549-.0383231.6550076l-.7.71.1-.056c.2085042-.1190529.4721949-.0730928.628127.1094799.1559322.1825726.1600769.4502065.009873.6375201l-.55.68c.1816503.0660821.308939.2309487.326902.4234091.017963.1924605-.0766179.3780349-.242902.4765909l-1.615.932c-.0769583.0463091-.1651844.070528-.255.07z" fill="#ed75b7"/><path id="Path" d="m45.433 42.383c-.2152152 0-.4062846-.137715-.4743416-.3418861-.0680571-.2041711.0021694-.4289848.1743416-.5581139l3.048-2.314-5.281 3.049c-.2324067.1328499-.5282158.0590851-.6710333-.1673329s-.0819688-.5251514.1380333-.6776671l1.957-1.348-3.115 1.8c-.23265.1288599-.5254615.0530472-.6663444-.1725252s-.0805297-.5219566.1373444-.6744748l1.653-1.111-2.594 1.5c-.2321092.1290838-.5246372.0541763-.6661393-.170578-.1415021-.2247542-.0825963-.5209195.1341393-.674422l3.98-2.718-4.8 2.77c-.2321092.1290838-.5246372.0541763-.6661393-.170578-.1415021-.2247542-.0825963-.5209195.1341393-.674422l4.176-2.857-4.877 2.816c-.2329673.1327691-.5291919.0581284-.6714287-.1691822-.1422368-.2273105-.0798406-.5263539.1414287-.6778178l3.545-2.405-3.98 2.3c-.2301828.1290216-.5210052.0569569-.6643125-.1646141-.1433073-.2215711-.0897614-.5163656.1223125-.6733859l6.307-4.571-6.766 3.907c-.2295527.1314921-.521805.0614183-.6667704-.1598726-.1449654-.2212908-.0924688-.5172061.1197704-.6751274l6.119-4.512-3.71 2.142c-.2271495.1357121-.5207051.070954-.6696751-.1477298-.1489701-.2186837-.1017701-.5155687.1076751-.6772702l4.825-3.838c-.1487935-.0065986-.2866283-.0801105-.375-.2-.1557915-.2060946-.1289175-.4969411.062-.671l2.9-2.72c-.0380119-.2079631.0588785-.4173586.242-.523l.867-.5c.2207276-.1320893.5056598-.0751513.6586724.1316224.1530126.2067738.124171.4959044-.0666724.6683776l-.761.715 1.374-.794c.2271495-.1357121.5207051-.070954.6696751.1477298.1489701.2186837.1017701.5155687-.1076751.6772702l-4.4 3.5 5.624-3.256c.2295527-.1314921.521805-.0614183.6667704.1598726.1449654.2212908.0924688.5172061-.1197704.6751274l-6.119 4.513 7.389-4.266c.2304184-.1322364.5240189-.0611893.6684864.1617642.1444674.2229535.0893536.5199576-.1254864.6762358l-6.309 4.572 7.539-4.352c.2322377-.1273115.5234633-.0514462.664069.1729923.1406056.2244384.0818101.5195841-.134069.6730077l-3.539 2.4 4.3-2.481c.2328603-.1351428.5309189-.0616362.6742423.1662803.1433233.2279164.080443.5283964-.1422423.6797197l-4.179 2.857 4.9-2.828c.2328603-.1351428.5309189-.0616362.6742423.1662803.1433233.2279164.080443.5283964-.1422423.6797197l-3.98 2.718 3.879-2.24c.1514806-.0946754.3419632-.1013451.4996948-.0174967.1577316.0838483.258749.2454762.265.424.006251.1785237-.0832142.3468213-.2346948.4414967l-1.66 1.115 1.265-.73c.2324067-.1328499.5282158-.0590851.6710333.1673329s.0819688.5251514-.1380333.6776671l-1.956 1.346 1.262-.727c.2285788-.1329729.5211739-.064966.667677.1551861.1465031.220152.0962484.5163129-.114677.6758139l-3.048 2.314 1.75-1.009c.2268147-.12995.5154475-.0632557.6622581.1530278.1468106.2162836.1022433.50915-.1022581.6719722l-1.763 1.396c.0547909.0414459.1006988.0934749.135.153.1373847.2389169.0555349.543953-.183.682l-3.768 2.176c-.2268147.12995-.5154475.0632557-.6622581-.1530278-.1468106-.2162836-.1022433-.50915.1022581-.6719722l.143-.113-2.675 1.544c-.0761051.0435393-.1623213.0663003-.25.066z" fill="#d75da6"/><path id="Path" d="m52.308 31.43c-.2064157.0002477-.391767-.1263742-.4665923-.3187506s-.0237427-.41096.1285923-.5502494l3.158-2.891-5.477 3.162c-.2305507.1302945-.5227069.0582293-.6662193-.1643342-.1435123-.2225634-.0886-.5184238.1252193-.6746658l1.182-.846-1.882 1.086c-.2290632.1321979-.5214568.063148-.6671806-.1575572-.1457237-.2207053-.094369-.5167199.1171806-.6754428l3.717-2.778-4.429 2.557c-.23893.1358451-.5427102.0533708-.6801373-.1846528-.137427-.2380237-.0569695-.5423443.1801373-.6813472l11.739-6.778c.2296475-.1373145.5266959-.0695008.6740021.1538691.1473063.2233699.0926557.5231193-.1240021.6801309l-3.722 2.782 3.454-1.994c.2312043-.1356861.5282776-.0648879.6734329.160492.1451554.2253799.0867349.525133-.1324329.679508l-1.177.841.56-.323c.2203354-.1244491.4989119-.0646624.6487785.1392378.1498666.2039001.1237692.4876223-.0607785.6607622l-3.159 2.891 1.59-.918c.1549945-.0985297.351531-.1041539.5119064-.0146489.1603754.0895049.2587712.2597296.2562855.4433739s-.1054527.3511436-.2681919.436275l-5.554 3.207c-.0755826.0452501-.1619093.0694216-.25.07z" fill="#f289ca"/><path id="Path" d="m34.865 36.459c-.2206812.000052-.4152989-.1445779-.4789014-.355895s.0188533-.439341.2029014-.561105l9.682-6.416-11.953 6.9c-.2350866.127347-.5287583.0472199-.6665908-.1818764-.1378325-.2290964-.071048-.5260868.1515908-.6741236l1.63-1.021-2.556 1.476c-.2348642.1312813-.531504.0531604-.6712412-.1767732-.1397372-.2299337-.0724576-.5292187.1522412-.6772268l6.467-4.119-7.477 4.317c-.1549945.0985297-.351531.1041539-.5119064.0146489-.1603754-.0895049-.2587712-.2597296-.2562855-.4433739s.1054527-.3511436.2681919-.436275l27.381-15.81c.2361017-.1433179.5436821-.0681017.687.168s.0681017.5436821-.168.687l-6.459 4.114 6.9-3.984c.1530883-.0921745.3437223-.0956757.5000919-.0091846s.2547187.2498344.258.4285c.0032813.1786657-.0890036.3455101-.2420919.4376846l-1.638 1.024 1.746-1.008c.234721-.145527.542973-.073221.6885.1615s.073221.542973-.1615.6885l-11.965 7.929c.1721679.0574814.2996628.2037523.3331005.3821558.0334376.1784035-.0324342.3609166-.1721005.4768442l-3.036 2.52c.2016794.0437877.3557338.2069881.3878302.4108552.0320963.2038671-.064361.4065074-.2428302.5101448l-4.164 2.4c-.225024.1298327-.5119893.0657046-.6603401-.147566s-.108657-.5046224.0913401-.670434l2.445-2.029-6.242 3.6c-.0751024.0469608-.1614498.072865-.25.075z" fill="#f289ca"/><path id="Path" d="m13.135 4.554c-.226294-.00000996-.4243705-.15200579-.4829405-.37058883-.0585699-.21858305.0369699-.4492542.2329405-.56241117l3.079-1.778c.23893-.13584515.5427102-.05337078.6801373.18465285.137427.23802363.0569695.54234426-.1801373.68134715l-3.079 1.778c-.0758978.04415489-.1621931.06728203-.25.067z" fill="#f289ca"/><path id="Path" d="m21.388 39.415c-.2238015.0001026-.4204126-.1485273-.4813425-.363875-.0609299-.2153478.0286636-.4449556.2193425-.562125l3.227-1.984-4.7 2.712c-.2361735.1361818-.537908.0580681-.6783318-.1756081-.1404239-.2336761-.0677709-.5367718.1633318-.6813919l10.987-6.882-12.4 7.159c-.2361017.1433179-.5436821.0681017-.687-.168s-.0681017-.5436821.168-.687l16.767-10.665-18.1 10.451c-.2356087.1297647-.5316571.04988-.6700067-.1807924-.1383496-.2306723-.0694166-.5294607.1560067-.6762076l11.331-7.034-11.917 6.88c-.2369888.1350471-.5384839.055235-.6776156-.1793791-.1391316-.2346142-.0645535-.5374465.1676156-.6806209l3.966-2.422-4.2 2.425c-.2352087.125628-.5276152.0445694-.664573-.1842276-.1369579-.228797-.070267-.5248112.151573-.6727724l12.089-7.5-12.337 7.124c-.2372063.141661-.544339.0642063-.686-.173s-.0642063-.544339.173-.686l9.493-5.851-9.471 5.468c-.2372063.1413849-.5441151.0637063-.6855-.1735s-.0637063-.5441151.1735-.6855l9.547-5.889-10.219 5.9c-.2356087.1297647-.5316571.04988-.6700067-.1807924-.1383496-.2306723-.0694166-.5294607.1560067-.6762076l11.879-7.367-13.77 7.947c-.23617349.1361818-.537908.0580681-.67833183-.1756081-.14042384-.2336761-.06777083-.5367718.16333183-.6813919l16.843-10.569-18.441 10.646c-.23508655.127347-.52875831.0472199-.66659082-.1818764-.13783251-.2290964-.071048-.5260868.15159082-.6741236l16.169-10.114-17.2 9.927c-.23486629.1223119-.52436539.0402957-.66017777-.1870309-.13581237-.2273266-.07083392-.5211193.14817777-.6699691l11.734-7.259-12.262 7.081c-.23583577.1260453-.52910097.0442222-.66561588-.1857118-.13651492-.2299339-.06795177-.5265795.15561588-.6732882l1.945-1.183-2.11 1.217c-.23560872.1297647-.5316571.04988-.67000668-.1807924-.13834959-.2306723-.06941665-.5294607.15600668-.6762076l13.26-8.26-13.453 7.766c-.23473446.1238045-.5252986.0426548-.6619149-.1848618-.13661629-.2275167-.07168534-.5221296.1479149-.6711382l13.007-8.116-13.018 7.515c-.15344557.09146-.34402845.0941103-.49995791.0069525s-.25351611-.2508822-.256-.4295.09051234-.3449925.24395791-.4364525l5.391-3.311-5.1 2.944c-.2372063.1413849-.5441151.0637063-.6855-.1735s-.0637063-.5441151.1735-.6855l5.705-3.516-5.254 3.036c-.15344557.09146-.34402845.0941103-.49995791.0069525s-.25351611-.2508822-.256-.4295.09051234-.3449925.24395791-.4364525l1.212-.745-1.122.648c-.23470337.1364868-.53543738.0607325-.67747413-.1706544-.14203676-.2313868-.07346495-.5338394.15447413-.6813456l13.772-8.948-13.736 7.931c-.23693016.1419372-.5440628.0649301-.68599998-.172-.14193717-.2369302-.06493016-.5440628.17199998-.686l2.752-1.709-2.292 1.323c-.23610173.1433179-.54368211.0681017-.687-.168s-.06810173-.5436821.168-.687l7.928-5.049-7.024 4.055c-.23541159.1379583-.53795774.061708-.67986369-.1713453-.14190596-.2330532-.07076502-.5368414.15986369-.6826547l5.881-3.765-4.083 2.36c-.23211371.1412643-.53455656.0713001-.68105198-.1575481-.14649542-.2288481-.08341271-.5328008.14205198-.6844519l8.276-5.852-6.189 3.572c-.21654401.1264521-.49326122.0729453-.64705637-.1251165-.15379514-.1980619-.13709247-.4794093.03905637-.6578835l2.4-2.454c-.1563037.08663691-.34695451.08330568-.50013611-.00873884-.15318161-.09204452-.24562209-.25881858-.2425-.4375.00312208-.17868142.10133241-.34212425.25763611-.42876116l3.132-1.808c.21623774-.12475173.49135924-.07089051.64459048.12619308.15323123.1970836.13761383.47699246-.03659048.65580692l-2.395 2.454 12.453-7.193c.2313261-.13338821.5266402-.06146595.670727.16335216.1440867.22481812.0860887.52317941-.131727.67764784l-8.277 5.854 13.536-7.816c.2354116-.13795832.5379577-.06170795.6798637.17134529.1419059.23305325.070765.53684142-.1598637.68265471l-5.884 3.767 8.051-4.648c.2354379-.13454995.5352149-.05690217.6757281.17502611.1405133.23192829.0705395.53358878-.1577281.67997389l-7.929 5.05 9.224-5.325c.1532669-.09181726.3438754-.09489296.5000249-.00806853s.2541174.25035831.257.429-.089758.34525127-.2430249.43706853l-2.75 1.708 3.385-1.952c.2355494-.14414631.5433537-.07004943.6875.16550001s.0700494.54335367-.1655.68749999l-13.777 8.948 17.455-10.076c.2374824-.1413849.5446151-.06348244.686.174s.0634824.5446151-.174.686l-1.212.743 2.6-1.5c.2372063-.14166104.544339-.0642063.686.173s.0642063.54433896-.173.686l-5.713 3.518 6.926-4c.2372063-.1413849.5441151-.0637063.6855.1735s.0637063.5441151-.1735.6855l-5.384 3.307 6.293-3.634c.2356087-.12976469.5316571-.04987998.6700067.18079237.1383496.23067236.0694166.52946069-.1560067.67620763l-13 8.114 14.039-8.105c.2361735-.13618181.537908-.05806811.6783318.17560806.1404239.23367616.0677709.53677186-.1633318.68139194l-13.269 8.264 14.045-8.109c.2369888-.13504713.5384839-.05523499.6776156.17937913.1391316.23461413.0645535.53744647-.1676156.68062087l-1.92 1.168 3.009-1.737c.2362075-.13307102.5354329-.05365088.6745599.17904108.1391271.23269196.0674613.53386873-.1615599.67895892l-11.739 7.261 13.144-7.588c.236654-.14248947.5440105-.06615402.6865.1705s.066154.54401053-.1705.6865l-16.17 10.114 17.4-10.049c.236654-.14248944.5440105-.06615398.6865.17050002.1424894.236654.066154.5440105-.1705.68649998l-16.839 10.57 17.828-10.291c.2369302-.14193718.5440628-.06493016.686.172s.0649302.54406282-.172.686l-11.883 7.369 12.464-7.2c.1534456-.09145999.3440284-.09411027.4999579-.0069525.1559295.08715776.2535161.25088224.256.4295.0024839.17861775-.0905123.34499251-.2439579.4364525l-9.542 5.885 9.793-5.654c.2372063-.14166104.544339-.0642063.686.173s.0642063.544339-.173.686l-9.475 5.84 9.667-5.582c.2369302-.1419372.5440628-.0649302.686.172s.0649302.5440628-.172.686l-12.11 7.513 12.129-7c.2369888-.1350471.5384839-.055235.6776156.1793791.1391316.2346142.0645535.5374465-.1676156.6806209l-3.965 2.42 3.81-2.2c.1532669-.0918173.3438754-.094893.5000249-.0080685.1561495.0868244.2541174.2503583.257.429s-.089758.3452512-.2430249.4370685l-11.339 7.038 11.015-6.362c.2354379-.13455.5352149-.0569022.6757281.1750261.1405133.2319283.0705395.5335888-.1577281.6799739l-16.759 10.664 16.3-9.41c.1530883-.0921745.3437223-.0956757.5000919-.0091846s.2547187.2498344.258.4285c.0032813.1786657-.0890036.3455101-.2420919.4376846l-10.982 6.879 11.973-6.913c.2372063-.1413849.5441151-.0637063.6855.1735s.0637063.5441151-.1735.6855l-26.659 16.392c-.0049074.1736069-.099552.3322312-.25.419l-7.131 4.118c-.0758978.0441549-.1621931.067282-.25.067z" fill="#f289ca"/><g fill="#262626"><path id="Path" d="m4.53 25.62c.307 0 1.638-.588.94-.588-.307 0-1.638.588-.94.588z"/><path id="Shape" d="m1.276 23.194c.06403776 2.5908174 1.20509232 5.0376924 3.14867767 6.7520178s4.51378389 2.5409344 7.09232233 2.2809822c0 .007.006.011.008.017 1.366 5.133 6.231 7.769 11.341 6.8.028-.005.057-.016.085-.024s.069-.009.11-.019c1.15915-.2858657 2.2639642-.7587303 3.271-1.4.1050542.9696041.5358517 1.8749134 1.222 2.568 1.328 1.315 3.147.894 4.513 1.964 2.075 1.624 3.474 4.269 5.352 6.13 1.277 1.264 3.162 1.723 4.556.283 1.3-1.349.89-4.211.779-6.171 1.8129129.2140753 3.6502746.0669096 5.406-.433 2.2961622-.6150689 4.3410915-1.9359127 5.846-3.776.7593616-.9578576 1.2895506-2.0767273 1.55-3.271.356-1.7-.434-2.736-.461-4.31.8253513-.3533589 1.5860913-.8417059 2.251-1.445 4.211-3.838 2.355-10.246-2.69-12.095.04-.373.066-.749.071-1.13-.003145-.0421394-.0154296-.0830883-.036-.12-.1013842-5.84030107-4.6500658-10.63428244-10.477-11.042-.04-.036-.082-.067-.123-.1-.137-.127-.265-.262-.408-.383-.0321474-.02059904-.0682583-.03422577-.106-.04-2.8274615-2.18273057-6.4881472-2.97474645-9.965-2.156-.2206766-.12154588-.4812553-.1482534-.722-.074-.221.065-.436.14-.652.216-.4950173-.33447553-1.0152459-.63002958-1.556-.884-.0190998-.00480578-.0384669-.00847885-.058-.011-.014-.007-.011-.017-.029-.024-.9970078-.38786084-2.0562418-.59116873-3.126-.6-.0945703-.00040256-.1890777.00494062-.283.016-1.1773728.0369476-2.3399124.27364852-3.438.7-.094007.03515111-.1855464.07657771-.274.124-.5625954.24752329-1.0986659.55140828-1.6.907-.1-.055-.205-.115-.31-.166-.2000834-.09056618-.424865-.11100087-.638-.058-3.655605-1.24308123-7.684554.21357077-9.7 3.507-4.2113191-.02039292-7.70251144 3.25773433-7.947 7.462.02.41-1.3 1.355-1.539 1.669-1.09231789 1.4226662-1.60474338 3.2065073-1.434 4.992.11 1.11 1.021 2.331.97 3.344zm39.995 23.606c-1.343 3.385-3.855-.675-4.72-1.665-.9847726-1.3224409-2.071774-2.565588-3.251-3.718-.5735845-.4394849-1.2392211-.7434144-1.947-.889-2.126-.766-3.626-1.409-3.626-3.91 0-.026-.015-.042-.019-.065.4598857-.4180645.8790951-.878793 1.252-1.376.2.1.4.194.6.282.1618963.0563938.3381037.0563938.5 0 1.1879935.3982592 2.4219664.6432391 3.672.729 1.4459804 3.0474116 4.2363921 5.2411734 7.539 5.927.065 1.385.459 3.53 0 4.685zm12.929-13.176c-.055588 2.5538305-1.4138328 4.9017077-3.6 6.223-4.994 3.193-12.442 1.653-15.2-3.656 4.6640762-.2232861 8.9247654-2.7115196 11.411-6.664 1.9346813 1.5200206 4.4534665 2.0825285 6.851 1.53.2522879.8387386.4322789 1.6975435.538 2.567zm-52.108-17.019c.3213454-.936753.84391727-1.7917775 1.531-2.505.342-.356.81-.531 1.008-.876.6695509-.4567871 1.43108678-.7612649 2.231-.892.152-.024.851-.174.852-.388 0-.241-.425-.15-.576-.126-.82246186.1324067-1.62376318.373167-2.383.716.351-3.348 2.594-6.392 6.443-6.2.032 0 .078 0 .116-.005.046.129.175.234.437.275.6339748.10166944 1.2506145.2915083 1.832.564.61.28 1.672-.6.834-.984-.5952659-.26682183-1.2209006-.45991897-1.863-.575 1.492-2.83 4.2176667-3.62433333 8.177-2.383.1.056.209.107.311.167.8002077.49493844 1.4926215 1.14586187 2.036 1.914.341.477 1.734-.05 1.334-.61-.5127503-.71099371-1.143143-1.32921143-1.864-1.828l1.811-1.144c.693488-.26789655 1.428684-.41175395 2.172-.425.9646167.01290314 1.919085.19885172 2.818.549.689.324 1.15.661 1.655.873-.5050167.2349092-.9943647.50212997-1.465.8-.235.15-.387.444-.109.631.341092.1390855.7296088.0941986 1.03-.119.821274-.52758864 1.7135901-.93536026 2.65-1.211.012 0 .029-.011.042-.015 1.0550002-.31002128 2.1484033-.46992476 3.248-.475.8035213.0712321 1.5966862.23120661 2.365.477 2.8686126.96648344 5.2189544 3.06113349 6.508 5.8.165.349 1.563-.147 1.449-.389-.4391792-.91654696-.996227-1.77178514-1.657-2.544 5.1302418 1.36000424 8.5557871 6.1917861 8.141 11.483-.1011172 1.0005795-.3317111 1.9837969-.686 2.925-.2.524 1.26.354 1.454-.162.2245441-.5999067.399138-1.2173403.522-1.846 2.7708791 1.4155545 4.2546047 4.5078434 3.625 7.555-.2935932 1.3986516-1.0257601 2.667157-2.09 3.621-.3973543.3412946-.833726.634335-1.3.873-.4061012-.1023081-.832493.0633549-1.063.413-2.2366339.4543801-4.5464344-.3118737-6.068-2.013-.7232267-.7774352-1.2634125-1.706787-1.581-2.72-.132-.422-1.575-.016-1.449.388.2974928.941631.7783979 1.8150771 1.415 2.57-2.0985084 4.2260981-6.4485908 6.8604576-11.166 6.762-.104744-.0179456-.2115659-.0203045-.317-.007-1.3313854-.076278-2.6424491-.361776-3.885-.846-.0552166-.0569587-.1216037-.1018976-.195-.132-1.1390335-.4945585-2.2027984-1.1469561-3.16-1.938-.454-.371-1.747.288-1.128.794.5960382.4831096 1.2316061.9152958 1.9 1.292-.34836.5674989-.7563409 1.0961644-1.217 1.577-.291.086-.54.262-.54.5v.021c-.9277254.8234874-2.0357666 1.4177537-3.235 1.735-4.637743.7908738-9.080596-2.1950754-10.1-6.788-.1647806-.7836129-.226303-1.5854209-.183-2.385.041-.748-1.432-.539-1.467.112-.0341734.7380464.0110866 1.477628.135 2.206-4.08151533-.0785869-7.57576102-2.9477816-8.447-6.936.44390748.3647855.92724958.6787398 1.441.936.4.2 1.735-.4 1.158-.681-1.19849076-.5935862-2.20406293-1.5148983-2.9-2.657-.165-.727-.688-1.506-.824-2.226-.22123296-1.1670938-.13963667-2.3714137.237-3.498z"/><path id="Path" d="m19.729 14.926c.074-1.365 1.02-2.742 2.558-2.389 1.1889347.3319701 2.0054418 1.4226988 1.989 2.657.029.554 1.482.237 1.448-.388-.245-4.543-7.219-4.055-7.453.268-.036.67 1.429.416 1.458-.148z"/><path id="Path" d="m31.724 14.806c.085-1.566 1.446-3.11 3.107-2.147.8855752.5402618 1.431348 1.4977248 1.445 2.535.014.267 1.471.023 1.448-.388-.243-4.5-7.225-3.755-7.448.388-.012.222 1.424.049 1.448-.388z"/><path id="Path" d="m20.672 21.712c-.347-.385-1.732.144-1.344.576 4.921 5.476 12.393 5.254 17.256-.158.572-.637-.831-.635-1.168-.26-4.344 4.83-10.516 4.543-14.744-.158z"/></g></g></svg>