<svg height="512" viewBox="0 0 60 60" width="512" xmlns="http://www.w3.org/2000/svg"><g id="018---Molecules" fill="none"><g fill="#ec3a48"><path id="Path" d="m16.7 13.422c-.2052814.0001135-.3897746-.1252577-.4652526-.3161597-.075478-.1909019-.0266029-.4085413.1232526-.5488403l3.069-2.867-5.034 2.91c-.2245855.1309436-.5120466.0679354-.6612702-.144943-.1492235-.2128783-.1104168-.5045939.0892702-.671057l4.113-3.454-5.156 2.976c-.2248836.1275609-.509928.0626394-.65739-.1497267-.1474621-.2123662-.1087026-.5021295.08939-.6682733l4.546-3.761-5.016 2.895c-.2272713.12902923-.5155715.06126562-.6615658-.15549798-.1459944-.21676359-.1004262-.50939379.1045658-.67150202l3.309-2.577-3.118 1.8c-.2217155.12780937-.5041476.06757352-.6544252-.13957286-.1502777-.20714639-.1198841-.49432665.0704252-.66542714l3.51-3.149-2.737 1.58c-.220439.12622335-.5004889.06709988-.6510942-.13745749-.1506054-.20455737-.1238973-.48953139.0620942-.66254251l1.633-1.514c-.1794725-.07007533-.3027146-.23703562-.3168058-.42918758-.0140911-.19215196.083476-.37530493.2508058-.47081242l2.779-1.602c.2205392-.12807919.5021318-.06964847.6535046.13560283.1513729.2052513.124009.49153743-.0635046.66439717l-1.01.938 3.07-1.772c.2217155-.12780937.5041476-.06757352.6544252.13957286.1502777.20714639.1198841.49432665-.0704252.66542714l-3.513 3.147 5.213-3.009c.227445-.13171071.5180356-.06484496.6650404.15302777s.1002333.51236608-.1070404.67397223l-3.312 2.576 3.908-2.256c.2244594-.12494022.5070739-.05945853.6537137.15146528s.1095839.49864875-.0857137.66553472l-4.542 3.763 4.946-2.856c.2244518-.12863856.5099659-.06482023.6582866.14714074s.1104625.50206066-.0872866.66885926l-4.113 3.452 3.87-2.233c.2207276-.13208931.5056598-.07515133.6586724.13162243s.124171.49590434-.0666724.66837757l-3.066 2.865 1.745-1.008c.1549945-.09852969.351531-.10415386.5119064-.01464894s.2587712.25972968.2562855.44337398c-.0024857.18364429-.1054527.35114356-.2681919.43627496l-5.527 3.191c-.0765063.0443345-.1635836.0671405-.252.066z"/><path id="Path" d="m46.324 15.419c-.2072059-.0022987-.3915221-.1321701-.4634054-.3265213s-.0164358-.4129023.1394054-.5494787l1.634-1.432-3.363 1.939c-.228242.1318458-.5196375.063862-.6659708-.1553737-.1463332-.2192358-.0973404-.5144185.1119708-.6746263l1.771-1.357-2.574 1.487c-.2287194.1310429-.5198877.0620127-.6654353-.1577616-.1455476-.2197742-.0954752-.5147944.1144353-.6742384l2.478-1.868-2.991 1.727c-.2254634.1287726-.5119753.0635416-.6594703-.1501437-.1474949-.2136853-.1068861-.5047094.0934703-.6698563l4.36-3.552-4.819 2.782c-.2313261.1333882-.5266402.061466-.670727-.1633522-.1440867-.2248181-.0860887-.5231794.131727-.6776478l.735-.521-.532.306c-.226507.1291681-.5142486.0625855-.6609917-.1529516-.1467432-.2155372-.103215-.5076567.0999917-.6710484l3.037-2.413-2.615 1.506c-.2263606.13092511-.5153721.06531659-.6630162-.15051137-.1476442-.21582796-.1040467-.5089685.1000162-.67248863l1.621-1.3-.685.4c-.222272.1250569-.5030453.06278062-.6515981-.14452625s-.1172703-.49319734.0725981-.66347375l1.362-1.193c-.0608778-.0417793-.1114817-.09682808-.148-.161-.1373847-.23891688-.0555349-.54395304.183-.682l2.779-1.6c.2226556-.12737455.5055829-.06559282.6548741.14300234s.1165111.49632815-.0758741.66599766l-.252.22 1.953-1.129c.2266681-.13175582.5166136-.0660514.6643416.15054615.1477279.21659755.1030619.51052002-.1023416.67345385l-1.619 1.294 2.77-1.6c.2266681-.13175582.5166136-.0660514.6643416.15054615.1477279.21659755.1030619.51052002-.1023416.67345385l-3.042 2.417 3.922-2.263c.2306836-.12848205.5215078-.05544038.6641078.16679332.1426.22223371.0878131.51704248-.1251078.67320668l-.73.518.984-.567c.2253165-.12652975.5099298-.06052016.6565485.15227149.1466186.21279165.1069324.50225149-.0915485.66772851l-4.359 3.551 4.664-2.691c.2287194-.13104292.5198877-.06201267.6654353.15776159.1455476.21977425.0954752.5147944-.1144353.67423841l-2.482 1.868 2.166-1.25c.228242-.1318458.5196375-.06386204.6659708.15537372.1463332.21923576.0973404.51441845-.1119708.67462628l-1.771 1.357 1.1-.637c.2226556-.12737455.5055829-.06559282.6548741.14300234s.1165111.49632816-.0758741.66599766l-1.632 1.429.233-.133c.2374252-.1242009.5305531-.0391619.6646466.1928199.1340935.2319817.0614797.5284321-.1646466.6721801l-4.644 2.682c-.0754207.0435509-.160909.0666466-.248.067z"/><path id="Path" d="m24.737 59.352c-.2074013.0000112-.3932776-.1280198-.4671946-.3218021-.0739169-.1937823-.0205268-.4130798.1341946-.5511979l1.409-1.26-3.3 1.9c-.2268147.12995-.5154475.0632557-.6622581-.1530278-.1468106-.2162836-.1022433-.50915.1022581-.6719722l2.172-1.709-3.125 1.809c-.2287194.1310429-.5198877.0620127-.6654353-.1577616-.1455476-.2197742-.0954752-.5147944.1144353-.6742384l2.434-1.836-2.969 1.713c-.2294759.1268358-.5179525.0548652-.6609568-.1648989-.1430044-.219764-.0919582-.5126682.1169568-.6711011l1.841-1.34-2.045 1.179c-.2253165.1265297-.5099298.0605202-.6565485-.1522715-.1466186-.2127916-.1069324-.5022515.0915485-.6677285l4.18-3.394-4.3 2.479c-.2308022.1338179-.5260112.0628564-.670779-.1612399s-.0880924-.5223777.128779-.6777601l.68-.488-.322.185c-.2230711.126215-.5054574.0633143-.6538691-.1456472-.1484117-.2089616-.1147824-.4963073.0778691-.6653528l2.865-2.454-1.932 1.11c-.2219765.128183-.5049351.0677387-.6551637-.1399529-.1502285-.2076917-.1190618-.4953507.0721637-.6660471l1.467-1.304c-.1532325-.089703-.247398-.253942-.247398-.4315s.0941655-.341797.247398-.4315l2.779-1.6c.2219765-.128183.5049351-.0677387.6551637.1399529.1502285.2076917.1190618.4953507-.0721637.6660471l-.538.479 2.357-1.359c.2230711-.126215.5054574-.0633143.6538691.1456472.1484117.2089616.1147824.4963073-.0778691.6653528l-2.855 2.447 4.36-2.521c.2308022-.1338179.5260112-.0628564.670779.1612399s.0880924.5223777-.128779.6777601l-.688.494 1.083-.625c.2254634-.1287726.5119753-.0635416.6594703.1501437.1474949.2136853.1068861.5047094-.0934703.6698563l-4.182 3.4 4.779-2.756c.2298251-.1278768.5194281-.0558458.6625685.1647961s.0908781.5144564-.1195685.6722039l-1.843 1.336 1.829-1.056c.2285233-.1282497.5172952-.0583047.6618051.1602995.14451.2186041.095725.5116937-.1118051.6717005l-2.435 1.837 2.119-1.223c.2272986-.1336432.5193131-.0678079.6672772.1504392.1479641.218247.1010173.5138867-.1072772.6755608l-2.168 1.709 1.445-.834c.2197759-.1165123.4917776-.0537473.6382794.1472845.1465019.2010317.1229447.4791853-.0552794.6527155l-1.427 1.276c.2485281-.1203981.5476019-.0165281.668.232.120398.2485281.0165281.5476019-.232.668l-4.105 2.37c-.0755239.0453866-.1618887.0695687-.25.07z"/><path id="Path" d="m5.718 34.354c-.19893624-.0002688-.37878722-.1184453-.45798933-.3009357-.07920211-.1824903-.04268549-.3945719.09298933-.5400643l.872-.931-2.533 1.462c-.22053922.1280792-.50213181.0696485-.65350464-.1356028s-.12400893-.4915375.06350464-.6643972l2.066-1.923-2.902 1.679c-.21842027.1276802-.49779411.0720852-.65069351-.1294872-.15289941-.2015724-.13113426-.4855915.05069351-.6615128l2.746-2.669-3 1.731c-.22346694.1287231-.50817637.0663691-.65738482-.1439733-.14920845-.2103425-.11396118-.4996608.08138482-.6680267l1.22-1.051-.676.39c-.21623774.1247517-.49135924.0708905-.64459048-.1261931-.15323123-.1970836-.13761383-.4769924.03659048-.6558069l1.038-1.061c-.18569578-.0630645-.31737861-.2288649-.33676455-.4240168-.01938594-.1951518.07710477-.3836185.24676455-.4819832l2.31-1.334c.21623774-.1247517.49135924-.0708905.64459048.1261931.15323123.1970836.13761383.4769924-.03659048.6558069l-.6.61 2.12-1.223c.22307115-.126215.50545745-.0633143.65386911.1456472.14841167.2089616.11478235.4963073-.07786911.6653528l-1.218 1.05 1.873-1.081c.21842027-.1276802.49779411-.0720852.65069351.1294872.15289941.2015724.13113426.4855915-.05069351.6615128l-2.747 2.67 3.242-1.871c.22063558-.1300292.50385102-.072325.65602439.1336626.15217338.2059876.12410138.4936554-.06502439.6663374l-2.063 1.92 1.634-.944c.21466809-.1242961.48801021-.0724133.64220413.1218961.15419393.1943094.142615.4722908-.02720413.6531039l-1.147 1.223c.20687113.0364424.36890704.1982998.40557758.4051306s-.05984427.4145284-.24157758.5198694l-2.31 1.334c-.07580312.044382-.16216154.067526-.25.067z"/><path id="Path" d="m54.2 46.342c-.208118-.0002419-.3943229-.1293732-.4674955-.3242037-.0731727-.1948305-.0180095-.4146127.1384955-.5517963l.9-.784-1.753 1.011c-.217123.1206668-.4899085.063641-.6405105-.1338986s-.1333491-.4756874.0405105-.6531014l2.8-2.786-3.493 2.016c-.2206356.1300292-.503851.072325-.6560244-.1336626s-.1241014-.4936554.0650244-.6663374l2.264-2.106-2.106 1.215c-.2100291.1208078-.4764517.0736423-.6322418-.1119276-.1557901-.18557-.1561096-.4561351-.0007582-.6420724l1.441-1.728c-.2188672.0565101-.4486674-.0390018-.563-.234-.1373847-.2389169-.0555349-.543953.183-.682l2.31-1.334c.2100291-.1208078.4764517-.0736423.6322418.1119276.1557901.18557.1561096.4561351.0007582.6420724l-1.423 1.692 3.462-2c.2206356-.1300292.503851-.072325.6560244.1336626s.1241014.4936554-.0650244.6663374l-2.265 2.106 2.986-1.722c.217123-.1206668.4899085-.063641.6405105.1338986s.1333491.4756874-.0405105.6531014l-2.794 2.784 2.848-1.644c.2226556-.1273746.5055829-.0655928.6548741.1430023.1492912.2085952.1165111.4963282-.0758741.6659977l-.9.784.17-.1c.1549945-.0985297.351531-.1041539.5119064-.0146489.1603754.0895049.2587712.2597296.2562855.4433739s-.1054527.3511436-.2681919.436275l-4.576 2.642c-.0727002.0445606-.1557704.0693783-.241.072z"/><path id="Path" d="m29.286 40.388c-.2163244.0026172-.4097947-.134187-.4794352-.339012-.0696405-.2048251.0003472-.431205.1734352-.560988l4.609-3.563-6.656 3.842c-.2325262.1307666-.5267591.0559509-.6685809-.1700024s-.0812744-.5234503.1375809-.6759976l1.64-1.11-2.442 1.412c-.2308022.1338179-.5260112.0628564-.670779-.1612399s-.0880924-.5223777.128779-.6777601l6.289-4.52-7.409 4.277c-.2335451.1328438-.5303244.0573638-.6720248-.1709163s-.0776546-.5277351.1450248-.6780837l2.8-1.866-3.163 1.826c-.2324067.1328499-.5282158.0590851-.6710333-.1673329s-.0819688-.5251514.1380333-.6776671l5.613-3.852-6.057 3.5c-.2310609.1298083-.523268.0567757-.6660866-.1664779-.1428185-.2232536-.086628-.5191613.1280866-.6745221l7.233-5.105-7.589 4.381c-.2322938.1351768-.5298928.0625367-.6737842-.164462-.1438914-.2269988-.0825928-.5271392.1387842-.679538l6.081-4.214-6.1 3.519c-.2319831.1309881-.5259285.0570795-.6683699-.1680527-.1424414-.2251321-.0833463-.52241.1343699-.6759473l5.225-3.607-4.929 2.846c-.2324067.1328499-.5282158.0590851-.6710333-.1673329s-.0819688-.5251514.1380333-.6776671l3.739-2.566-3.238 1.865c-.2312043.1356861-.5282776.0648879-.6734329-.160492-.1451554-.2253799-.0867349-.525133.1324329-.679508l3.971-2.825-3.177 1.834c-.2296891.1296297-.5205695.0585592-.6646041-.1623819s-.0916869-.5157667.1196041-.6736181l2.739-2.006-1.459.842c-.2240205.1297641-.5100442.0670649-.6592395-.1445117s-.1122125-.502047.0852395-.6694883l2.395-2.037c-.1108389-.0396305-.203796-.1176861-.262-.22-.1373847-.2389169-.0555349-.543953.183-.682l3.6-2.075c.2236156-.1271011.5071788-.0638125.6555296.1463081s.1130835.4985123-.0815296.6666919l-1.641 1.395 4.661-2.691c.2299138-.1328235.5235501-.0627731.6687427.1595365s.0912979.5193359-.1227427.6764635l-2.742 2.006 4.337-2.5c.2309306-.1317312.5245674-.0597083.6683337.1639283.1437664.2236366.0873821.520673-.1283337.6760717l-3.971 2.825 5.213-3.01c.2324067-.1328499.5282158-.0590851.6710333.1673329s.0819688.5251514-.1380333.6776671l-3.745 2.571 4.5-2.6c.2313246-.1263251.5209869-.0513891.6620294.1712679.1410425.2226569.0850249.5165645-.1280294.6717321l-5.215 3.605 5.9-3.408c.23158-.1294027.5239091-.0554223.6660571.1685604.142148.2239828.0846277.5199909-.1310571.6744396l-6.09 4.221 6.638-3.831c.2310609-.1298083.523268-.0567757.6660866.1664779.1428185.2232536.086628.5191613-.1280866.6745221l-7.23 5.1 7.64-4.412c.2324067-.1328499.5282158-.0590851.6710333.1673329s.0819688.5251514-.1380333.6776671l-5.614 3.854 5.605-3.236c.2335451-.1328438.5303244-.0573638.6720248.1709163s.0776546.5277351-.1450248.6780837l-2.789 1.864 2.541-1.467c.2308022-.1338179.5260112-.0628564.670779.1612399s.0880924.5223777-.128779.6777601l-6.29 4.522 5.888-3.4c.2329673-.1327691.5291919-.0581284.6714287.1691822.1422368.2273105.0798406.5263539-.1414287.6778178l-1.648 1.11.952-.548c.2274132-.1273482.5145055-.05864.6596263.1578646.1451209.2165046.0995839.5081708-.1046263.6701354l-4.607 3.562 3.28-1.893c.2296891-.1296297.5205695-.0585592.6646041.1623819s.0916869.5157667-.1196041.6736181l-1.271.93c.1211881.0362369.2236684.1179344.286.228.1373847.2389169.0555349.543953-.183.682l-6.42 3.711c-.2296891.1296297-.5205695.0585592-.6646041-.1623819s-.0916869-.5157667.1196041-.6736181l.078-.056-1.693.976c-.0769491.0452438-.1647385.0687465-.254.068z"/></g><path id="Shape" d="m59.728 41.921c0-.025-.013-.04-.016-.063s.013-.033.012-.052c-.256-4.764-6.393-5.3-8.635-2.25l-11.446-5.391c.6455834-1.3312577 1.0133856-2.7800104 1.081-4.258 0-.019-.012-.03-.014-.048s.015-.034.014-.053c-.0627571-3.0000366-1.4685909-5.8135396-3.83-7.665l5.645-7.59c3.887 1.739 9.9-.412 10.185-5.745-.448-8.333-13.415-7.65-13.448.388-.1059827 1.8997177.768919 3.7212342 2.318 4.826l-5.587 7.512c-3.2813123-1.929573-7.2856521-2.1802621-10.782-.675-1.5333333-2.8666667-3.0666667-5.7366667-4.6-8.61 1.8676952-1.1242419 3.0356079-3.12099594 3.1-5.3-.457-8.483-13.411-8.328-13.468.108-.037 5.4 5.1 7.252 9.047 5.828 1.538 2.8833333 3.0766667 5.7663333 4.616 8.649-2.8563499 1.7379214-4.6084614 4.8315524-4.63 8.175h-9.581c-.417-5.663-9.4-5.079-9.432.443-.031 5.7 8.661 5.247 9.381.145h9.624c-.2007282 4.5748459 2.9586773 8.6149988 7.447 9.523-.604 2.3073333-1.2076667 4.6146667-1.811 6.922-3.63-.464-7.618 1.662-7.651 6.321-.059 8.578 13.019 8.174 13.466-.12-.0487989-2.7294921-1.8537362-5.1154681-4.467-5.905.61-2.3333333 1.2196667-4.6643333 1.829-6.993 4.3045156.5521427 8.5565104-1.3484403 11.016-4.924l11.47 5.4c-.2016763.514615-.3057833 1.062279-.307 1.615-.004 5.905 9.152 5.381 9.454-.213zm-19-33.115c.024-3.552 3.462-6.653 7.07-5.031 2.0991189.99449069 3.4497367 3.09644304 3.482 5.419-.0273667 1.2492459-.4267233 2.4619389-1.147 3.483-1.47902 1.8681314-4.0598152 2.4533891-6.2 1.406-1.9672766-1.025896-3.2032064-3.0583053-3.209-5.277zm-24.128 3.629c-2.7597785-.3667246-4.8310753-2.7051344-4.862-5.489-.0448647-2.88468104 2.2258316-5.27537892 5.109-5.379 3.083-.088 5.267 2.594 5.423 5.487-.17 3.017-2.385 5.727-5.67 5.381zm12.667 40.625c-.162 3.011-2.371 5.749-5.666 5.394-2.7660583-.3755064-4.8382879-2.7227277-4.868-5.514-.0526334-2.8885859 2.2178731-5.2871837 5.105-5.393 3.088-.083 5.273 2.618 5.429 5.513zm-24.948-19.591c-1.54314531-.5316435-2.57732597-1.985847-2.573-3.618 0-2.141 1.882-4.106 4.129-3.244 1.44030907.6000368 2.38436436 2.0007789 2.4 3.561-.141 1.998-1.697 4.044-3.956 3.301zm23.981 5.912c-.055-.012-.108-.03-.162-.043-.1318296-.1026116-.2994895-.1476815-.465-.125-4.1005303-1.2693658-6.8946235-5.0634929-6.89-9.356 0-6.063 5.766-10.921 11.843-8.929 4.106 1.346 6.4 5.046 6.644 9.222-.329 5.571-4.9 10.561-10.97 9.231zm27.452-.758c1.4919934.5202887 2.4977751 1.9199848 2.515 3.5-.122 1.933-1.54 3.789-3.69 3.364-1.6724047-.3972514-2.8464188-1.9001722-2.827-3.619-.0618591-1.020335.3725697-2.0077913 1.1665629-2.6515963.7939931-.643805 1.8499118-.864789 2.8354371-.5934037z" fill="#262626"/><path id="Path" d="m17.061 4.459c-1.4677055-.00061141-2.6881052 1.12956592-2.8 2.593-.026.766 1.447.565 1.47-.1-.0295304-.34616715.0807304-.68975167.3061807-.95409216s.5473296-.42744017.8938193-.45290784c.838-.032 1.117-1.12.13-1.086z" fill="#262626"/><path id="Path" d="m44.734 8.945c-.0301317-.34722631.0796689-.69210542.3050019-.95799838s.5475321-.43077339.8949981-.45800162c.822-.028 1.117-1.092.13-1.058-1.4645047-.00097669-2.6836538 1.12412379-2.8 2.584-.023.753 1.448.545 1.47-.11z" fill="#262626"/><path id="Path" d="m21.276 53.194c-.008.234 1.434.047 1.448-.388.018-.519.33-1.484.965-1.5.3547367.006391.6993784-.1182212.968-.35.178-.252-.157-.258-.346-.252-1.454.044-2.982.903-3.035 2.49z" fill="#262626"/><path id="Path" d="m30.079 23.523c-3.6514217.0198049-6.6460081 2.8991641-6.809 6.547-.019.692 1.444.44 1.46-.14-.0523148-2.9314939 2.2604824-5.3610225 5.191-5.453.779-.022 1.151-.977.158-.954z" fill="#262626"/></g></svg>