<svg height="508pt" viewBox="0 -1 508.48275 508" width="508pt" xmlns="http://www.w3.org/2000/svg"><path d="m213.304688 460.179688c-1.777344 0-3.367188-1.105469-3.992188-2.769532-.621094-1.667968-.144531-3.542968 1.195312-4.714844l25.359376-22.082031-47.476563 27.417969c-1.90625 1.078125-4.320313.542969-5.589844-1.246094-1.265625-1.789062-.96875-4.246094.683594-5.683594l22.808594-19.574218-17.921875 10.332031c-1.898438 1.105469-4.328125.585937-5.609375-1.203125-1.28125-1.785156-.996094-4.253906.660156-5.699219l5.308594-4.660156-.359375.214844c-1.449219.832031-3.25.742187-4.613282-.230469-1.359374-.972656-2.023437-2.652344-1.699218-4.292969l2.832031-14.457031c-1.589844-.53125-2.722656-1.945312-2.894531-3.613281-.167969-1.671875.65625-3.285157 2.109375-4.125l4.265625-2.464844c1.449218-.835937 3.25-.746094 4.609375.226563 1.359375.972656 2.027343 2.644531 1.707031 4.285156l-2.441406 12.578125 29.746094-17.167969c1.898437-1.082031 4.308593-.558594 5.582031 1.21875 1.273437 1.773438 1.003906 4.222656-.632813 5.675781l-5.332031 4.675781 20.113281-11.605468c1.90625-1.078125 4.320313-.542969 5.585938 1.246094 1.265625 1.789062.972656 4.246093-.679688 5.683593l-22.785156 19.558594 45.980469-26.546875c1.902343-1.089844 4.320312-.5625 5.59375 1.222656 1.273437 1.785156.988281 4.246094-.664063 5.6875l-25.359375 22.09375 50.347657-29.011718c1.96875-1.144532 4.488281-.539063 5.722656 1.375 1.234375 1.910156.75 4.457031-1.097656 5.785156l-1.707032 1.21875 14.574219-8.414063c1.882813-1.109375 4.300781-.617187 5.597656 1.140625 1.296875 1.757813 1.058594 4.210938-.554687 5.6875l-27.382813 25.496094 25.335938-14.625c1.867187-1.125 4.285156-.660156 5.601562 1.078125 1.316407 1.742187 1.109375 4.195313-.484375 5.6875l-9.332031 8.976563 4.308594-2.484376c1.699219-1 3.863281-.703124 5.234375.71875 1.371094 1.417969 1.585937 3.59375.523437 5.257813l-3.890625 6.289063c1.632813-.097657 3.183594.722656 4.027344 2.125 1.171875 2.039062.476562 4.640624-1.5625 5.816406l-12.429688 7.179687c-1.703124 1-3.867187.703125-5.238281-.71875-1.367187-1.417969-1.585937-3.59375-.523437-5.257812l3.414062-5.535157-19.96875 11.519532c-1.871094 1.125-4.285156.660156-5.601562-1.082032-1.316406-1.738281-1.109375-4.191406.480468-5.6875l9.335938-8.976562-27.304688 15.789062c-1.882812 1.109376-4.300781.617188-5.597656-1.140624-1.300781-1.757813-1.0625-4.214844.554688-5.6875l27.363281-25.546876-56.164063 32.425782c-1.96875 1.140625-4.488281.535156-5.722656-1.375-1.238281-1.914063-.753906-4.460938 1.097656-5.785156l1.707032-1.21875-14.574219 8.414062c-.660156.390625-1.414063.59375-2.179687.585938zm0 0" fill="#365972"/><path d="m208.972656 502.652344c-1.808594-.003906-3.421875-1.148438-4.019531-2.855469s-.054687-3.609375 1.355469-4.738281l9.046875-7.273438-24.746094 14.261719c-1.878906 1.03125-4.234375.511719-5.5-1.21875s-1.054687-4.128906.496094-5.609375l16.921875-15.359375-38.441406 22.1875c-1.878907 1.046875-4.242188.53125-5.515626-1.203125-1.273437-1.734375-1.054687-4.148438.507813-5.625l17.066406-15.523438-38.785156 22.351563c-1.925781 1.117187-4.386719.570313-5.652344-1.261719-1.269531-1.832031-.914062-4.332031.816407-5.738281l10.691406-8.710937-27.1875 15.710937c-1.859375 1.054687-4.214844.574219-5.507813-1.125-1.292969-1.703125-1.128906-4.101563.386719-5.609375l19.03125-18.773438-26.882812 15.546876c-1.722657 1.019531-3.929688.6875-5.273438-.800782-1.351562-1.472656-1.5-3.683594-.355469-5.324218l11.023438-15.777344c-2.042969 1.019531-4.53125.246094-5.636719-1.753906-1.105469-1.996094-.441406-4.511719 1.507812-5.707032l16.492188-9.523437c1.734375-.996094 3.925781-.660157 5.277344.8125 1.351562 1.472656 1.5 3.683593.355468 5.324219l-11.023437 15.761718 39.105469-22.546875c1.859375-1.058593 4.214844-.574219 5.507812 1.125 1.296875 1.703125 1.128906 4.101563-.386718 5.609375l-19.019532 18.773438 44.132813-25.507813c1.925781-1.117187 4.386719-.570312 5.65625 1.261719 1.265625 1.832031.910156 4.332031-.816407 5.738281l-10.675781 8.703125 27.210938-15.703125c1.882812-1.046875 4.246093-.53125 5.519531 1.203125s1.054688 4.148438-.507812 5.625l-17.066407 15.511719 38.765625-22.339844c1.878906-1.03125 4.230469-.511719 5.5 1.21875 1.265625 1.730469 1.050782 4.128907-.5 5.609375l-16.921875 15.359375 38.460938-22.1875c1.925781-1.070312 4.351562-.496093 5.597656 1.320313 1.242187 1.820312.894531 4.289062-.800781 5.695312l-9.046875 7.269532 24.730469-14.285157c1.910156-1.074219 4.328124-.523437 5.585937 1.273438s.949219 4.253906-.714844 5.683593l-12.925781 10.863282 30.871094-17.820313c1.84375-1.050781 4.179687-.585937 5.480468 1.085938 1.304688 1.675781 1.179688 4.050781-.292968 5.578125l-19.539063 20.046875 46.257813-26.710938c1.933594-1.117187 4.398437-.554687 5.660156 1.285157 1.257812 1.84375.886719 4.34375-.855469 5.738281l-8.53125 6.828125 23.953125-13.824219c1.839844-1.0625 4.179688-.609375 5.488282 1.0625 1.3125 1.671875 1.195312 4.050781-.277344 5.585937l-19.625 20.417969 45.03125-26c1.878906-1.09375 4.285156-.59375 5.574218 1.15625 1.292969 1.753907 1.058594 4.195313-.539062 5.671875l-16.503906 15.289063 25.011718-14.4375c1.789063-1.03125 4.0625-.632813 5.390626.949219 1.332031 1.582031 1.339843 3.886718.019531 5.476562l-12.503907 14.949219 13.058594-7.535157c1.660156-.964843 3.765625-.695312 5.132813.652344 1.371093 1.351563 1.667969 3.449219.726562 5.125l-3.847656 6.828125c1.585937-.050781 3.070313.765625 3.875 2.132813.566406.980468.714844 2.148437.421875 3.238281-.292969 1.09375-1.011719 2.027344-1.992188 2.589844l-11.023437 6.359375c-1.664063.953125-3.761719.683594-5.125-.664063-1.367187-1.347656-1.664063-3.441406-.730469-5.113281l3.414063-6.035156-20.480469 11.800781c-1.792969 1.03125-4.0625.632813-5.394531-.949219-1.332031-1.578125-1.335938-3.886718-.015625-5.476562l12.476562-14.941406-37.054687 21.335937c-1.878907 1.089844-4.285157.59375-5.574219-1.160156-1.292969-1.75-1.058594-4.191407.542969-5.667969l16.492187-15.28125-38.296875 22.109375c-1.839843 1.046875-4.167969.589844-5.472656-1.078125-1.308594-1.664062-1.191406-4.039062.265625-5.570312l19.628906-20.414063-46.839844 27.0625c-1.929687 1.117187-4.398437.554687-5.65625-1.285156-1.261718-1.84375-.890624-4.34375.851563-5.738281l8.535156-6.828126-23.972656 13.851563c-1.839844 1.050781-4.175781.585937-5.480469-1.085937-1.300781-1.675782-1.175781-4.050782.292969-5.578126l19.542969-20.046874-46.261719 26.710937c-1.910156 1.074219-4.324219.523437-5.585937-1.273437-1.257813-1.796876-.949219-4.253907.714843-5.683594l12.945313-10.871094-30.890625 17.828125c-.644531.386719-1.382813.597656-2.132813.605469zm0 0" fill="#457393"/><path d="m162.816406 408.785156c-1.828125-.023437-3.4375-1.203125-4.007812-2.941406-.566406-1.738281.035156-3.644531 1.496094-4.738281l15.90625-11.554688-32.425782 18.695313c-1.945312 1.101562-4.410156.515625-5.652344-1.347656-1.238281-1.859376-.832031-4.363282.933594-5.734376l24.628906-18.773437-44.726562 25.789063c-1.953125 1.128906-4.449219.539062-5.691406-1.34375-1.242188-1.886719-.804688-4.410157 1-5.765626l21.742187-16.253906-40.472656 23.363282c-1.949219 1.09375-4.414063.496093-5.648437-1.367188-1.230469-1.867188-.816407-4.367188.953124-5.734375l22.8125-17.167969-42.011718 24.269532c-1.96875 1.09375-4.449219.472656-5.667969-1.425782-1.214844-1.894531-.746094-4.410156 1.070313-5.742187l8.386718-5.972657-22.757812 13.140626c-1.933594 1.109374-4.398438.539062-5.652344-1.308594-1.25-1.84375-.871094-4.34375.875-5.730469l28.558594-22.480469-48.757813 28.160156c-1.929687 1.09375-4.371093.527344-5.621093-1.300781s-.898438-4.308593.816406-5.710937l28.917968-23.296875-37.117187 21.425781c-1.898437 1.082031-4.300781.558594-5.578125-1.210938-1.273438-1.773437-1.007812-4.21875.617188-5.675781l23.605468-20.84375-23.894531 13.804688c-1.777344 1.027343-4.035156.644531-5.371094-.914063-1.339843-1.558594-1.375-3.851562-.089843-5.449218l13.902343-17.257813-8.695312 5.019531c-1.492188.859375-3.351563.742188-4.722657-.300781-1.367187-1.042969-1.976562-2.804687-1.542968-4.46875l2.332031-9.019531c-1.445313-.671875-2.394531-2.089844-2.464844-3.679688-.074219-1.585937.746094-3.085937 2.121094-3.882812l4.265625-2.464844c1.492188-.863281 3.351562-.742188 4.722656.296875 1.367188 1.039063 1.980469 2.800781 1.550782 4.464844l-1.707032 6.542969 19.628906-11.3125c1.777344-1.027344 4.035157-.644532 5.371094.914062 1.335938 1.558594 1.375 3.847656.089844 5.449219l-13.945312 17.308593 41.054687-23.691406c1.894531-1.078125 4.300781-.554687 5.574219 1.214844 1.277344 1.769531 1.007812 4.21875-.617188 5.671875l-23.59375 20.832031 48.042969-27.734375c1.925781-1.089843 4.367187-.523437 5.621094 1.300781 1.25 1.828126.894531 4.308594-.816407 5.714844l-28.921874 23.292969 52.523437-30.324219c1.9375-1.109375 4.398437-.542968 5.652344 1.304688 1.253906 1.84375.871093 4.34375-.871094 5.734375l-28.570313 22.476562 51.148438-29.527343c1.972656-1.136719 4.492188-.523438 5.722656 1.394531 1.230469 1.917969.734375 4.464843-1.125 5.785156l-8.371094 5.921875 22.726563-13.117188c1.949219-1.117187 4.433594-.527343 5.675781 1.347657 1.242188 1.875.816406 4.390625-.976562 5.753906l-22.824219 17.183594 42.066406-24.292969c1.957031-1.128906 4.453125-.539062 5.695313 1.34375 1.242187 1.882812.804687 4.410156-1 5.765625l-21.71875 16.210937 40.464844-23.355468c1.949218-1.101563 4.414062-.511719 5.652343 1.347656 1.242188 1.859375.832031 4.363281-.933593 5.734375l-24.632813 18.773437 44.796875-25.863281c1.964844-1.089843 4.433594-.476562 5.65625 1.40625 1.222656 1.882813.773438 4.390625-1.019531 5.734375l-15.925781 11.589844 32.429687-18.722656c1.953125-1.113282 4.4375-.515625 5.671875 1.367187 1.234375 1.878907.800781 4.394531-.996094 5.75l-20.097656 14.890625 38.152344-22.023437c1.972656-1.109375 4.464844-.484375 5.683594 1.417969 1.21875 1.90625.738281 4.433593-1.09375 5.757812l-7.148438 5.042969 21.1875-12.226563c1.957031-1.140625 4.464844-.550781 5.710938 1.339844 1.242187 1.890625.792968 4.425781-1.027344 5.773438l-20.980469 15.609374 39.386719-22.734374c1.917968-1.097657 4.351562-.550782 5.617187 1.257812s.945313 4.285156-.742187 5.707031l-33.460938 28.101563 60.757813-35.082032c1.949219-1.136718 4.449219-.554687 5.699219 1.324219 1.25 1.878907.820312 4.40625-.980469 5.765625l-24.285157 18.449219 44.269532-25.597656c1.941406-1.109375 4.410156-.53125 5.65625 1.324219 1.25 1.859374.851562 4.363281-.910156 5.738281l-26.914063 20.867187 48.324219-27.90625c1.964844-1.109375 4.460937-.496094 5.683594 1.402344 1.226562 1.898438.757812 4.425781-1.066407 5.757812l-11.769531 8.414063 27-15.582031c1.9375-1.148438 4.429688-.597656 5.699219 1.261718 1.273437 1.859376.878906 4.382813-.894531 5.769532l-30.421876 24.355468 54.398438-31.402343c1.972656-1.144531 4.492188-.539063 5.726562 1.375 1.234376 1.910156.75 4.457031-1.097656 5.785156l-13.375 9.613281 29.074219-16.78125c1.933594-1.125 4.410156-.566406 5.667969 1.28125 1.261718 1.851563.878906 4.359375-.871094 5.75l-30.125 24.046875 44.734375-25.824219c1.964844-1.144531 4.484375-.546874 5.722656 1.359376 1.242188 1.90625.769531 4.449218-1.074219 5.785156l-9.828124 7.148437 5.1875-2.976562c1.925781-1.089844 4.367187-.523438 5.621093 1.300781 1.25 1.828125.894531 4.308594-.816406 5.714844l-10.242187 8.265625 5.472656-3.148438c1.847656-1.050781 4.1875-.582031 5.488281 1.101563s1.160156 4.070312-.328125 5.589844l-8.097656 8.183593 1.179687-.675781c2.023438-1.058594 4.527344-.332031 5.671875 1.648438 1.140625 1.976562.523438 4.507812-1.40625 5.734374l-28.722656 16.546876c-1.847656 1.050781-4.191406.582031-5.492188-1.101563-1.296874-1.683594-1.160156-4.070313.328126-5.589844l8.140624-8.167969-25.8125 14.859376c-1.929687 1.109374-4.386718.550781-5.648437-1.285157-1.257813-1.835937-.894531-4.328125.835937-5.730469l10.238282-8.25-26.453125 15.265626c-1.964844 1.144531-4.484375.546874-5.726563-1.359376-1.238281-1.90625-.765625-4.449218 1.078125-5.785156l9.835938-7.167968-24.789063 14.3125c-1.929687 1.09375-4.378906.527343-5.628906-1.304688s-.890625-4.320312.835938-5.71875l30.121093-24.03125-53.8125 31.054688c-1.96875 1.140624-4.488281.535156-5.722656-1.375-1.234375-1.914063-.75-4.460938 1.097656-5.785157l13.363281-9.589843-29.011718 16.75c-1.929688 1.09375-4.378906.527343-5.628906-1.304688-1.253907-1.832031-.890626-4.320312.832031-5.71875l30.398437-24.347656-54.394531 31.371094c-1.964844 1.109374-4.460937.496093-5.683594-1.402344-1.226562-1.898438-.757812-4.425782 1.066407-5.757813l11.71875-8.378906-26.949219 15.539063c-1.941407 1.109374-4.410157.527343-5.65625-1.328126-1.246094-1.855468-.847657-4.359374.910156-5.738281l26.933594-20.789062-48.324219 27.855469c-1.949219 1.109374-4.425781.519531-5.664062-1.347657-1.242188-1.867187-.824219-4.378906.953124-5.746093l24.3125-18.464844-44.261718 25.558594c-1.914063 1.09375-4.34375.550781-5.609375-1.253907-1.265625-1.804687-.953125-4.273437.726562-5.703125l33.492188-28.03125-60.765625 34.988282c-1.957032 1.136718-4.464844.550781-5.707032-1.34375-1.246093-1.890626-.796874-4.425782 1.023438-5.773438l20.957031-15.589844-39.339843 22.707032c-1.964844 1.070312-4.425782.441406-5.632813-1.445313s-.753906-4.386719 1.042969-5.722656l7.144531-5.035157-21.121094 12.203126c-1.957031 1.109374-4.4375.511718-5.675781-1.367188-1.234375-1.878906-.796875-4.398438 1-5.75l20.121094-14.910156-38.203125 22.027344c-.644531.386718-1.382813.597656-2.132813.605468zm0 0" fill="#457393"/><path d="m384.46875 252.597656c-1.835938 0-3.46875-1.171875-4.046875-2.917968-.582031-1.742188.015625-3.660157 1.488281-4.761719l54.347656-39.890625-37.078124 21.390625c-1.949219 1.074219-4.394532.46875-5.621094-1.386719-1.222656-1.855469-.816406-4.34375.9375-5.710938l48.007812-36.070312-20.984375 12.140625c-1.929687 1.097656-4.378906.53125-5.628906-1.304687-1.253906-1.832032-.890625-4.316407.832031-5.71875l37.496094-29.863282-20.753906 11.925782c-1.945313 1.128906-4.433594.546874-5.679688-1.324219-1.25-1.871094-.832031-4.390625.953125-5.757813l17.84375-13.652344-11.273437 6.511719c-1.9375 1.117188-4.40625.546875-5.660156-1.304687-1.253907-1.855469-.867188-4.359375.890624-5.746094l20.847657-16.332031-16.734375 9.660156c-1.949219 1.109375-4.421875.519531-5.664063-1.347656-1.242187-1.867188-.824219-4.375.953125-5.742188l14.320313-10.863281-11.664063 6.722656c-1.894531 1.078125-4.296875.554688-5.570312-1.210937-1.277344-1.765625-1.015625-4.207031.601562-5.664063l32.070313-28.417968-33.714844 19.457031c-1.945313 1.117187-4.421875.535156-5.671875-1.328125-1.246094-1.863282-.839844-4.375.933594-5.746094l8.890625-6.828125-9.84375 5.683594c-1.898438 1.082031-4.308594.558593-5.582031-1.21875-1.277344-1.773438-1.003907-4.222657.632812-5.675781l13.054688-11.503907-16.359376 9.4375c-1.832031 1.050781-4.152343.601563-5.464843-1.050781-1.308594-1.65625-1.214844-4.019531.226562-5.5625l9.199219-9.804688-14.363281 8.296876c-1.59375.917968-3.59375.710937-4.96875-.511719-1.371094-1.222657-1.808594-3.1875-1.082031-4.875l4.71875-10.894531-10.734376 6.183593c-1.46875.839844-3.292968.734375-4.652343-.269531-1.363281-1.007812-2-2.722656-1.628907-4.371094l1.203126-5.53125c-.828126-.359375-1.519532-.980468-1.96875-1.765625-1.179688-2.039062-.480469-4.648437 1.5625-5.828125l3.984374-2.234375c1.460938-.839843 3.28125-.742187 4.640626.253907 1.363281.992187 2.011718 2.695312 1.65625 4.34375l-.699219 3.226562 13.558593-7.824219c1.59375-.917969 3.59375-.714843 4.96875.507813s1.808594 3.1875 1.082032 4.875l-4.71875 10.898437 28.226562-16.28125c1.824219-.980469 4.082032-.511719 5.367188 1.109375s1.21875 3.929688-.152344 5.476563l-9.164062 9.789062 28.40625-16.375c1.894531-1.066406 4.285156-.535156 5.554687 1.230469 1.269531 1.761719 1.007813 4.199219-.605469 5.65625l-13.097656 11.5 29.054688-16.773438c1.945312-1.117187 4.421874-.539062 5.671874 1.324219 1.246094 1.863281.839844 4.375-.933593 5.75l-8.917969 6.824219 13.976562-8.0625c1.894532-1.078125 4.292969-.554688 5.570313 1.210938 1.273437 1.765624 1.015625 4.207031-.605469 5.667968l-32.023437 28.421875 34.011719-19.625c1.949218-1.109375 4.425781-.519531 5.667968 1.347657 1.238282 1.867187.824219 4.375-.957031 5.742187l-14.316406 10.863281 10.058593-5.8125c1.941407-1.121094 4.421876-.550781 5.675782 1.308594s.855468 4.371094-.914063 5.75l-20.804687 16.308594 16.0625-9.269532c1.945312-1.101562 4.410156-.511718 5.648437 1.347657 1.242188 1.863281.835938 4.363281-.929687 5.734375l-17.871094 13.65625 13.167969-7.59375c1.929687-1.078125 4.359375-.503906 5.605469 1.320312 1.242187 1.824219.890624 4.296875-.820313 5.699219l-37.542969 29.867187 32.730469-18.890624c1.953125-1.09375 4.414063-.5 5.648437 1.367187 1.234376 1.863281.816407 4.367187-.953124 5.730469l-47.957032 36.132812 43.324219-25.011718c1.957031-1.109376 4.441406-.5 5.671875 1.382812 1.226562 1.886719.78125 4.402344-1.023438 5.75l-54.347656 39.882812 49.707032-28.6875c1.320312-.839843 3-.886718 4.367187-.125 1.371094.765626 2.207031 2.214844 2.1875 3.785157-.019531 1.566406-.898437 2.996093-2.289063 3.722656l-117.09375 67.566406c-.648437.375-1.382812.578125-2.132812.578125zm0 0" fill="#4fc0e8"/><path d="m321.75 307.136719c-1.699219-.003907-3.230469-1.007813-3.90625-2.5625-.679688-1.554688-.371094-3.363281.78125-4.605469l13.472656-14.507812-7.175781 4.136718c-1.394531.824219-3.136719.773438-4.480469-.132812-1.34375-.890625-2.074218-2.460938-1.882812-4.0625l1.765625-14.839844c-1.1875-.839844-1.863281-2.226562-1.796875-3.679688.066406-1.453124.871094-2.769531 2.128906-3.496093l2.414062-1.390625c1.402344-.8125 3.140626-.761719 4.488282.128906 1.351562.890625 2.082031 2.46875 1.886718 4.078125l-1.398437 11.75 24.351563-14.082031c1.828124-1.046875 4.148437-.605469 5.460937 1.042968 1.3125 1.648438 1.226563 4.007813-.203125 5.554688l-13.492188 14.503906 155.308594-89.648437c1.320313-.839844 3-.890625 4.367188-.125 1.367187.761719 2.207031 2.214843 2.1875 3.78125-.019532 1.570312-.898438 2.996093-2.289063 3.722656l-179.855469 103.851563c-.648437.382812-1.382812.582031-2.132812.582031zm0 0" fill="#4fc0e8"/><path d="m34.867188 349.296875c-1.878907.023437-3.550782-1.183594-4.117188-2.976563-.566406-1.789062.101562-3.738281 1.648438-4.804687l78.953124-54.972656-102.164062 59c-1.992188 1.132812-4.523438.492187-5.734375-1.457031-1.207031-1.949219-.660156-4.503907 1.238281-5.785157l61.84375-41.242187-57.347656 33.089844c-1.996094 1.136718-4.535156.488281-5.738281-1.46875-1.207031-1.957032-.644531-4.519532 1.269531-5.792969l36.863281-24.214844-32.425781 18.703125c-1.984375 1.132812-4.507812.503906-5.726562-1.425781-1.21875-1.933594-.699219-4.484375 1.175781-5.785157l59.777343-40.960937-55.195312 31.847656c-1.96875 1.125-4.472656.511719-5.703125-1.398437-1.226563-1.910156-.742187-4.441406 1.097656-5.769532l68.453125-48.640624-63.847656 36.855468c-1.996094 1.160156-4.550781.519532-5.765625-1.445312-1.214844-1.960938-.648437-4.535156 1.277344-5.808594l24.875-16.5-20.386719 11.765625c-1.964844 1.144531-4.480469.550781-5.722656-1.355469-1.242188-1.910156-.769532-4.453125 1.074218-5.785156l64-46.621094-59.351562 34.246094c-1.988281 1.113281-4.5.46875-5.707031-1.464844-1.203125-1.9375-.675781-4.480468 1.203125-5.769531l7.039062-4.730469-2.558594 1.46875c-1.941406 1.101563-4.398437.523438-5.644531-1.328125-1.246093-1.847656-.859375-4.34375.890625-5.730469l45.6875-35.574218-40.960937 23.628906c-1.925781 1.109375-4.386719.550781-5.644531-1.285156-1.261719-1.832032-.898438-4.328125.832031-5.730469l39.613281-32.03125-34.757812 20.085937c-1.945313 1.085938-4.402344.492188-5.632813-1.367187-1.234375-1.859375-.828125-4.351563.933594-5.722656l20.238281-15.308594-15.539062 8.96875c-1.972657 1.15625-4.507813.550781-5.746094-1.371094-1.238282-1.921875-.738282-4.480469 1.128906-5.796875l3.046875-2.167968c-1.882813.25-3.707031-.773438-4.472656-2.515626-.761719-1.742187-.28125-3.777343 1.179687-4.996093l30.652344-25.597657-25.789062 14.855469c-1.921876 1.097657-4.367188.542969-5.625-1.28125-1.261719-1.824219-.914063-4.308593.796874-5.714843l28.160157-23.042969-23.332031 13.511719c-1.957032 1.105468-4.441407.496093-5.671876-1.386719-1.226562-1.886719-.78125-4.402344 1.023438-5.75l9.324219-6.824219-4.675781 2.6875c-1.972657 1.089844-4.453126.460938-5.664063-1.441406s-.734375-4.417969 1.089844-5.746094l3.191406-2.226562c-1.960937.34375-3.902344-.71875-4.671875-2.558594s-.160156-3.964844 1.464844-5.121094l3.804687-2.695312c-1.925781.640624-4.035156-.164063-5.046875-1.925782-1.011718-1.757812-.640625-3.988281.882813-5.328125l19.714843-17.304687-14.765624 8.53125c-1.753907 1.007812-3.96875.644531-5.3125-.867188-1.339844-1.511718-1.4375-3.757812-.234376-5.378906l9.875-13.199219c-2.054687.449219-4.132812-.660156-4.894531-2.621093-.761719-1.960938.019531-4.183594 1.839844-5.238282l16.492187-9.523437c1.753907-1.015625 3.980469-.65625 5.328126.855469 1.34375 1.515624 1.441406 3.765624.230468 5.390624l-9.574218 12.792969 34.132812-19.707031c1.898438-1.082031 4.304688-.554688 5.582031 1.21875 1.273438 1.777344 1 4.226562-.632812 5.679688l-19.679688 17.285156 41.890625-24.164063c1.964844-1.074219 4.425782-.441406 5.636719 1.445313 1.207031 1.886718.75 4.382812-1.046875 5.722656l-3.085938 2.183594 1.875-1.074219c1.980469-1.136719 4.5-.515625 5.726563 1.410156 1.222656 1.925781.714844 4.472657-1.152344 5.78125l-11.050781 7.679688c1.65625.339843 2.957031 1.621093 3.320312 3.273437.359376 1.652344-.289062 3.359375-1.65625 4.355469l-9.328124 6.828125.539062-.308594c1.925781-1.097656 4.367188-.539062 5.628906 1.28125 1.257813 1.824219.910156 4.308594-.800781 5.71875l-28.160156 23.039063 22.691406-13.160157c1.917969-1.101562 4.359375-.554687 5.625 1.257813 1.265625 1.816406.9375 4.296875-.761719 5.714844l-30.667968 25.601562 29.261718-16.886719c1.972656-1.160156 4.507813-.554687 5.746094 1.367188 1.238281 1.925781.738281 4.480469-1.128906 5.800781l-.777344.542969c1.988281-.769531 4.238281.046875 5.273438 1.90625 1.035156 1.863281.535156 4.207031-1.167969 5.484375l-20.207031 15.335937 22.183593-12.800781c1.929688-1.105469 4.378907-.546875 5.640625 1.28125 1.257813 1.832031.902344 4.320313-.816406 5.726563l-39.535156 31.988281 47.28125-27.304687c1.941406-1.101563 4.402344-.523438 5.648437 1.328124 1.242188 1.847657.855469 4.34375-.894531 5.726563l-45.703125 35.59375 59.621094-34.421875c1.992187-1.15625 4.542969-.519531 5.761719 1.433594 1.214843 1.953125.664062 4.519531-1.246094 5.800781l-6.980469 4.6875 18.226563-10.523437c1.960937-1.105469 4.441406-.5 5.671874 1.386718 1.226563 1.882813.78125 4.398438-1.023437 5.746094l-64 46.628906 69.402344-40.058594c2-1.15625 4.554687-.515624 5.769531 1.445313 1.214844 1.964844.648438 4.539063-1.28125 5.808594l-24.832031 16.488281 23.714843-13.65625c1.972657-1.121094 4.476563-.507812 5.703126 1.402344 1.226562 1.90625.746093 4.441406-1.09375 5.765625l-68.445313 48.640625 72.039063-41.640625c1.976562-1.089844 4.457031-.449219 5.664062 1.457031 1.207031 1.910156.714844 4.425781-1.117188 5.746094l-59.777343 41 65.5625-37.84375c1.992187-1.117188 4.511719-.460938 5.710937 1.480468 1.203125 1.945313.660156 4.488282-1.230468 5.773438l-36.832032 24.199219 43.070313-24.867188c1.992187-1.132812 4.523437-.488281 5.734375 1.460938 1.207031 1.945312.660156 4.5-1.238282 5.785156l-61.847656 41.265625 75.339844-43.519531c1.976562-1.132813 4.5-.511719 5.722656 1.414062 1.222656 1.921875.71875 4.46875-1.148437 5.78125l-78.960938 54.972657 117.921875-68.070313c1.984375-1.074219 4.457032-.417969 5.652344 1.496094 1.191406 1.910156.691406 4.421875-1.144531 5.730469l-71.101563 47.683593 74.308594-42.898437c1.988281-1.097656 4.492188-.441406 5.6875 1.488281 1.199219 1.933594.671875 4.464844-1.199219 5.757813l-42.964843 28.390624 44.175781-25.507812c2-1.132812 4.539062-.484375 5.742187 1.472656 1.207032 1.957032.644532 4.519532-1.269531 5.789063l-19.992187 13.125 19.769531-11.417969c1.964843-1.144531 4.484375-.546875 5.726562 1.359375 1.242188 1.90625.769531 4.449219-1.074219 5.785156l-55.246093 40.328125 56.277343-32.496094c1.972657-1.105468 4.464844-.484374 5.683594 1.421876s.738282 4.429687-1.09375 5.753906l-25.597656 18.023437 24.257812-13.996093c1.960938-1.105469 4.445313-.496094 5.671876 1.386718 1.230468 1.886719.785156 4.402344-1.019532 5.75l-19.191406 14.042969 17.175781-9.90625c1.953125-1.117187 4.4375-.527344 5.679688 1.347656 1.242187 1.875.816406 4.390625-.976563 5.753907l-9.957031 7.484374 8.027344-4.636718c1.933593-1.09375 4.378906-.527344 5.632812 1.304687 1.25 1.835938.886719 4.320313-.835937 5.71875l-5.878906 4.703125 10.121093-5.835937c1.828125-1.046875 4.144531-.605469 5.457031 1.042969 1.3125 1.644531 1.226563 4.003906-.199218 5.550781l-12.316406 13.238281 33.964843-19.628906c1.796875-1.027344 4.074219-.613282 5.398438.980468s1.308593 3.910157-.03125 5.488282l-12.671875 14.753906 200.882812-115.96875c1.996094-1.183594 4.574219-.554688 5.800782 1.417969 1.226562 1.96875.652343 4.5625-1.296876 5.828125l-83.695312 55.902344 79.207031-45.730469c2-1.25 4.632813-.640625 5.878907 1.355469 1.25 2 .644531 4.632812-1.355469 5.878906l-61.03125 40.960937 56.527343-32.640625c1.988282-1.179687 4.558594-.554687 5.789063 1.40625 1.230469 1.960938.671875 4.542969-1.257813 5.824219l-43.019531 29.164063 38.496094-22.226563c1.953125-1.113281 4.4375-.515625 5.671875 1.363281 1.238281 1.882813.800781 4.398438-.996094 5.753906l-49.929687 37.125 45.269531-26.128906c1.960938-1.132812 4.46875-.535156 5.707031 1.363282 1.238281 1.898437.777344 4.429687-1.046875 5.773437l-23.089844 16.921875 18.445313-10.652344c1.878906-1.019531 4.222656-.492187 5.484375 1.230469 1.257812 1.726563 1.050781 4.117187-.492188 5.597656l-25.144531 22.707031 20.171875-11.640624c1.804688-1.027344 4.085938-.605469 5.402344 1 1.320312 1.601562 1.292969 3.921874-.0625 5.496093l-10.921875 12.507813 5.597656-3.234375c1.492188-.859375 3.355469-.738281 4.722657.308593 1.367187 1.046876 1.972656 2.816407 1.53125 4.480469l-2.285157 8.652344c1.433594.675781 2.375 2.09375 2.441407 3.679687.066406 1.585938-.75 3.078126-2.125 3.871094l-4.265626 2.46875c-1.492187.855469-3.351562.734375-4.71875-.308594-1.367187-1.046874-1.972656-2.808593-1.539062-4.472656l1.632812-6.167968-18.996093 10.921874c-1.804688 1.027344-4.085938.605469-5.40625-.996093-1.316407-1.605469-1.292969-3.925781.0625-5.496094l10.921875-12.503906-32.9375 19.011719c-1.875 1.023437-4.21875.496093-5.480469-1.230469-1.261719-1.722657-1.050781-4.113281.488281-5.59375l25.15625-22.683594-51.199218 29.550781c-1.960938 1.132813-4.46875.535156-5.707032-1.359375-1.238281-1.898437-.777344-4.433593 1.046875-5.773437l23.101563-16.921875-41.703125 24.074219c-1.957031 1.109374-4.4375.511718-5.675781-1.367188-1.234376-1.878906-.796876-4.398438 1-5.75l49.929687-37.070312-76.5625 44.203124c-1.988281 1.152344-4.53125.519532-5.75-1.425781-1.222656-1.949219-.679687-4.515625 1.226563-5.800781l42.984374-29.140625-63.027343 36.382813c-1.992188 1.15625-4.542969.523437-5.761719-1.429688-1.21875-1.957031-.667969-4.523438 1.246094-5.804688l61.074218-41.019531-83.628906 48.265625c-1.992187 1.132813-4.523437.488282-5.734375-1.460937-1.207031-1.945313-.660156-4.503907 1.238281-5.785157l83.710938-55.902343-109.429688 63.148437c-1.800781 1.039063-4.089843.625-5.417968-.976562-1.324219-1.601563-1.304688-3.925782.050781-5.5l12.671875-14.753906-36.761719 21.261718c-1.824219 1.035156-4.132812.589844-5.441406-1.046875-1.308594-1.640625-1.230469-3.988281.183594-5.539062l12.253906-13.191407-34.371094 19.796876c-1.929687 1.09375-4.378906.527343-5.628906-1.304688-1.253906-1.832031-.890625-4.320312.832031-5.71875l5.871094-4.703125-20.324219 11.734375c-1.953125 1.09375-4.414062.496094-5.648437-1.367188-1.234375-1.867187-.816406-4.367187.953125-5.734374l9.984375-7.507813-25.316406 14.617187c-1.96875 1.148438-4.484376.550782-5.726563-1.355468s-.769531-4.453125 1.074219-5.785156l19.25-14.046876-36.691406 21.195313c-1.972657 1.109375-4.464844.484375-5.683594-1.417969-1.21875-1.90625-.742188-4.433594 1.089844-5.757812l25.558593-18.011719-43.671875 25.207031c-1.964844 1.144532-4.484375.546875-5.726562-1.359375-1.242188-1.90625-.769532-4.449219 1.074218-5.785156l55.261719-40.34375-82.269531 47.503906c-1.996094 1.136719-4.535156.484375-5.742188-1.472656-1.203124-1.957031-.644531-4.515625 1.269532-5.789063l19.988281-13.089843-35.269531 20.359375c-1.996094 1.117187-4.511719.460937-5.714844-1.480469-1.199219-1.945313-.65625-4.488281 1.234375-5.773437l42.929687-28.363282-61.738281 35.636719c-1.992187 1.152344-4.539062.519531-5.757812-1.433594s-.667969-4.523437 1.246093-5.804687l71.117188-47.691406-95.15625 54.9375c-.648438.382812-1.382812.585937-2.132812.585937zm0 0" fill="#4fc0e8"/><path d="m348.578125 272.140625c-1.753906-.003906-3.328125-1.078125-3.96875-2.707031-.640625-1.632813-.214844-3.488282 1.066406-4.683594l20.078125-18.644531-38.953125 22.476562c-1.324219.839844-3 .890625-4.367187.125-1.371094-.765625-2.210938-2.214843-2.1875-3.785156.019531-1.566406.898437-2.996094 2.289062-3.722656l71.730469-41.417969c1.878906-1.09375 4.285156-.597656 5.574219 1.15625 1.292968 1.75 1.058594 4.195312-.539063 5.667969l-20.089843 18.65625 3.585937-2.082031c2.039063-1.160157 4.628906-.457032 5.800781 1.574218 1.175782 2.03125.488282 4.628906-1.535156 5.8125l-36.371094 21.003906c-.640625.375-1.371094.570313-2.113281.570313zm0 0" fill="#d56fac"/><path d="m308.359375 314.910156c-1.535156 0-2.953125-.824218-3.714844-2.15625-.757812-1.335937-.742187-2.976562.046875-4.296875l5.570313-9.386719-26.300781 15.242188c-1.878907 1.078125-4.269532.570312-5.554688-1.171875-1.285156-1.746094-1.058594-4.179687.53125-5.65625l12.636719-11.722656-17.917969 10.351562c-1.976562 1.15625-4.511719.550781-5.75-1.371093-1.238281-1.921876-.738281-4.480469 1.132812-5.796876l53.570313-38.121093-52.324219 30.199219c-2 1.136718-4.539062.484374-5.742187-1.472657-1.207031-1.957031-.644531-4.515625 1.269531-5.789062l31.042969-20.386719-29.335938 16.941406c-2.007812 1.175782-4.589843.527344-5.800781-1.464844-1.210938-1.988281-.605469-4.578124 1.363281-5.824218l2.429688-1.550782-.917969.527344c-1.988281 1.085938-4.476562.429688-5.671875-1.492187-1.191406-1.921875-.679687-4.441407 1.171875-5.742188l60.683594-40.5-61.167969 35.300781c-2.003906 1.121094-4.535156.453126-5.730469-1.507812-1.191406-1.960938-.617187-4.515625 1.300782-5.777344l8.183593-5.207031-7.601562 4.386719c-1.984375 1.132812-4.507813.503906-5.726563-1.429688-1.21875-1.929687-.699218-4.480468 1.175782-5.78125l86.339843-59.339844-90.453125 52.207032c-1.988281 1.082031-4.480468.417968-5.671875-1.511719-1.1875-1.929687-.660156-4.449219 1.203125-5.742187l56.789063-37.316407-69.898438 40.34375c-2.003906 1.121094-4.535156.453125-5.726562-1.507812-1.195313-1.960938-.621094-4.515625 1.296875-5.777344l22.246094-14.132813-43.152344 24.925782c-2.003906 1.242187-4.632813.625-5.875-1.378906-1.242188-2-.625-4.632813 1.378906-5.875l91.820312-60.808594-109.117187 63.003906c-1.996094 1.113281-4.511719.460938-5.714844-1.484375-1.199219-1.941406-.65625-4.488281 1.234375-5.769531l98.59375-65.230469-109.089844 62.976563c-1.996093 1.097656-4.5.4375-5.691406-1.503907-1.195312-1.9375-.652344-4.472656 1.230469-5.757812l89.28125-58.195313-94.394531 54.507813c-2.003906 1.105469-4.523438.429687-5.707032-1.53125-1.183593-1.957031-.613281-4.5 1.296876-5.761719l51.777343-32.769531-52.683593 30.414062c-1.992188 1.054688-4.464844.375-5.640626-1.550781-1.171874-1.921875-.648437-4.429688 1.203126-5.722656l83.992187-54.152344-83.683594 48.316406c-1.992187 1.097656-4.492187.445313-5.691406-1.488281-1.195313-1.929687-.667969-4.464844 1.203125-5.753906l108.125-71.503907-115.199219 66.5625c-2.003906 1.199219-4.597656.566407-5.824219-1.421874-1.226562-1.988282-.628906-4.589844 1.34375-5.839844l102.203126-67.242188-121.019532 69.792969c-2.023437 1.210937-4.644531.554687-5.855468-1.46875-1.210938-2.019531-.554688-4.640625 1.46875-5.851563l17.542968-10.882812-22.851562 13.195312c-2.007813 1.144532-4.566406.484376-5.765625-1.496093-1.199219-1.976563-.601563-4.550781 1.347656-5.800781l53.972656-34.132813-58.878906 33.960937c-2 1.070313-4.484375.390626-5.660156-1.542968-1.175781-1.9375-.636719-4.453125 1.230469-5.734375l61.3125-39.410157-64.0625 36.984376c-2 1.070312-4.488282.386718-5.664063-1.558594-1.171875-1.941406-.617187-4.464844 1.261719-5.738282l28.9375-18.257812-29.011719 16.75c-2.007813 1.121094-4.539063.453125-5.730469-1.507812-1.191406-1.964844-.617187-4.515626 1.300782-5.78125l50.523437-32.425782-49.789063 28.78125c-1.980468 1.101563-4.476562.464844-5.6875-1.453125-1.207031-1.917969-.703124-4.445312 1.144532-5.757812l75.792968-51.933594-72.488281 41.816406c-1.996093 1.113281-4.511719.460938-5.714843-1.484375-1.199219-1.941406-.65625-4.488281 1.234374-5.769531l34.746094-22.90625-27.722656 16.042969c-1.960938 1.109375-4.441406.5-5.671875-1.382813-1.230469-1.886719-.78125-4.402343 1.019531-5.75l53.632813-39.253906-29.25 16.914063c-1.914063 1.074218-4.328125.527343-5.585938-1.269532-1.261719-1.796875-.953125-4.253906.710938-5.683594l30.019531-25.226562c-.457031-.34375-.839844-.78125-1.125-1.28125-1.175781-2.035156-.480469-4.636719 1.554688-5.816406l25.980468-15.003906c1.914063-1.09375 4.34375-.550782 5.609375 1.253906 1.265625 1.804687.953125 4.273437-.726562 5.703125l-18.628907 15.648437 55.671876-32.109375c1.957031-1.082031 4.421874-.46875 5.640624 1.40625s.785157 4.375-1 5.726563l-53.605468 39.253906 84.285156-48.640625c2.003906-1.238281 4.636719-.617187 5.875 1.386719s.617188 4.636718-1.386719 5.875l-34.757812 22.800781 43.257812-24.96875c1.980469-1.101563 4.476563-.460937 5.683594 1.457031 1.207031 1.917969.703125 4.445313-1.144531 5.753906l-75.800782 51.941407 111.949219-64.613281c2-1.101563 4.507813-.429688 5.699219 1.519531 1.1875 1.945312.628906 4.484375-1.261719 5.757812l-50.585937 32.429688 59.730468-34.492188c2.011719-1.128906 4.550782-.453125 5.742188 1.519531 1.1875 1.972657.597656 4.53125-1.335938 5.785157l-28.726562 18.140625 33.1875-19.164063c1.996094-1.070312 4.480469-.394531 5.660156 1.542969 1.175782 1.933594.636719 4.453125-1.230468 5.734375l-61.3125 39.339844 82.066406-47.378907c2.007812-1.148437 4.566406-.484374 5.765625 1.492188 1.199219 1.980469.601562 4.554688-1.347657 5.804688l-54.074218 34.242187 65.945312-38.074219c2.011719-1.105468 4.535156-.425781 5.71875 1.542969 1.179688 1.96875.589844 4.519531-1.332031 5.769531l-17.460937 10.863282 23.3125-13.449219c1.992187-1.082031 4.484374-.417969 5.671874 1.511719 1.191407 1.925781.664063 4.449218-1.199218 5.742187l-102.230469 67.261719 110.449219-63.761719c1.992187-1.117187 4.511718-.460937 5.710937 1.480469 1.203125 1.945312.65625 4.488281-1.230469 5.773437l-108.085937 71.441407 112.640625-65.027344c1.996094-1.082032 4.492188-.410156 5.675781 1.527344 1.183594 1.9375.644531 4.460937-1.230469 5.746093l-84.042968 54.183594 84.070312-48.484375c2.015625-1.21875 4.640625-.570312 5.859375 1.445312 1.214844 2.019532.570313 4.640626-1.449219 5.859376l-51.738281 32.734374 48.878907-28.222656c2.007812-1.234375 4.636718-.605468 5.871093 1.402344 1.238281 2.007812.609375 4.636719-1.398437 5.871094l-89.285156 58.195312 93.867187-54.203125c1.988281-1.070312 4.464844-.40625 5.652344 1.511719 1.1875 1.921875.675781 4.433594-1.171875 5.734375l-98.578125 65.246094 108.136719-62.464844c1.996093-1.160156 4.550781-.519531 5.765624 1.445313 1.214844 1.964843.648438 4.535156-1.277343 5.808593l-91.828125 60.808594 97.449218-56.261719c1.304688-.789062 2.929688-.828125 4.269532-.09375 1.335937.734375 2.179687 2.125 2.214844 3.648438.03125 1.523437-.75 2.949218-2.054688 3.742187l-22.1875 14.105469 23.042969-13.285156c2-1.199219 4.597656-.566406 5.820312 1.417968 1.226563 1.988282.628907 4.589844-1.339843 5.84375l-56.800782 37.324219 56.832032-32.8125c1.984374-1.132812 4.507812-.503906 5.726562 1.429688 1.21875 1.929687.699219 4.480469-1.175781 5.78125l-86.359375 59.332031 84.855468-48.988281c2.003907-1.121094 4.535157-.453125 5.730469 1.507812 1.191407 1.960938.617188 4.515625-1.300781 5.777344l-8.140625 5.191406 3.414063-1.964843c1.992187-1.132813 4.523437-.488282 5.734374 1.460937 1.207032 1.945313.660157 4.5-1.238281 5.785156l-60.742187 40.542969 52.773437-30.464844c2.011719-1.222656 4.636719-.582031 5.859375 1.433594s.582032 4.636719-1.433594 5.863281l-8.328124 5.316407c1.976562-.273438 3.875.859374 4.578124 2.722656.699219 1.867187.015626 3.96875-1.648437 5.066406l-31.046875 20.386719 1.273438-.792969c1.96875-1.125 4.476562-.511719 5.703124 1.398438 1.226563 1.90625.746094 4.441406-1.097656 5.769531l-75.875 53.996093c.324219.238282.613282.527344.851563.855469 1.292969 1.746094 1.066406 4.1875-.527344 5.664063l-12.640625 11.761718 7.621094-4.394531c1.679687-.960937 3.796875-.671875 5.15625.703125 1.359375 1.378906 1.621094 3.5.636718 5.167969l-5.757812 9.683594c2.054688-.46875 4.144531.636719 4.917969 2.597656.773437 1.960937-.003907 4.195313-1.828125 5.253906l-12.800782 7.371094c-.640624.378906-1.371093.578125-2.117187.582031zm0 0" fill="#d56fac"/><g fill="#262626"><path d="m507.785156 343.761719c0-.136719.125-.25.125-.386719v-256c-8.695312-43.226562-85.765625-26.289062-117.921875-26.289062-.144531 0-.410156 0-.640625.042968-.589844-7.351562-2.710937-14.5-6.226562-20.984375-19.722656-30.003906-55.390625-25.0625-84.738282-34.535156-23.839843-7.679687-55.464843-4.984375-80.210937-4.597656-26.253906 1.863281-52.023437 8.007812-76.289063 18.191406-11.816406 6.148437-21.949218 15.085937-29.515624 26.042969-5.019532 5.597656-10.441407 10.820312-16.214844 15.632812-23.945313-.996094-55.464844-6.066406-76.550782 3.679688-23.894531 11.050781-18.980468 36.566406-18.980468 58.4375v222.335937c0 .074219-.074219.125-.074219.203125 0 22.1875-5.695313 51.386719 19.710937 61.628906 11.324219 4.554688 28.203126 2.023438 39.839844 2.023438h119.722656v39.722656c-17.074218-.109375-34.136718.941406-51.070312 3.136719-33.144531 4.660156-50.722656 47.6875-10.742188 50.503906 62.0625 4.375 126.027344 0 188.226563 0 23.203125 0 107.84375 16.699219 107.84375-21.632812 0-.144531-.085937-.222657-.101563-.351563.050782-.214844.074219-.433594.066407-.65625-6.390625-31.753906-49.210938-32.519531-85.332031-30.257812v-40.464844h118.613281c12.117187 0 28.203125 2.34375 39.9375-2.296875 26.121093-10.351563 20.769531-39.679687 20.769531-62.363281-.054688-.261719-.136719-.519532-.246094-.765625zm-494.808594-247.605469c4.488282-27.09375 19.5-30.378906 44.5625-30.378906 4.15625 0 29.125-2.832032 33.722657-.425782l-.273438.246094c-1.542969.910156-2.839843 2.183594-3.769531 3.714844-3.304688 3.300781-6.234375 6.953125-8.738281 10.894531-3.734375 6.105469-6.382813 12.808594-7.824219 19.816407-.246094.632812-.445312 1.28125-.589844 1.945312-3.179687 17 .753906 34.558594 10.878906 48.582031l.085938.117188c1.066406 1.476562 2.203125 2.894531 3.414062 4.265625 6.246094 7.355468 14.234376 13.027344 23.234376 16.503906 6.921874 2.671875 15.488281 1.382812 21.921874 3.984375 1.597657.101563 3.191407-.152344 4.679688-.742187 2.453125 2.304687 4.3125 5.167968 5.417969 8.347656 0 2.429687.285156 4.855468.851562 7.21875 2.820313 6.890625 6.199219 13.535156 10.105469 19.875 1.371094 2.554687 3.058594 4.929687 5.023438 7.066406.625.648438 1.289062 1.203125 1.929687 1.808594 5.328125 5.550781 11.816406 9.851562 19.003906 12.59375 5.152344 1.988281 10.605469 3.101562 16.128907 3.285156 1.433593.152344 2.867187.308594 4.34375.382812 1.363281.011719 2.722656-.097656 4.070312-.324218 3.976562-.109375 8.046875-.296875 12.414062-.238282 16.214844.207032 20.644532-3.632812 32.121094 11.894532 2.085938 2.875 3.886719 5.945312 5.375 9.167968 7.679688 21.683594 5.914063 49.867188 26.863282 57.488282.539062.195312 1.347656.332031 2.03125.496094 9.953124 3.753906 20.957031 3.605468 30.804687-.421876.546875-.167968.988281-.382812 1.511719-.5625 3.777344-.777343 7.320312-2.425781 10.351562-4.8125 8.957032-8.351562 7.242188-24.832031 6.398438-37.835937.390625.078125.785156.128906 1.175781.195313.808594.144531 1.613281.269531 2.40625.386718 1.519531.203125 3.023437.398438 4.550781.484375 1.527344.085938 3.140625.078125 4.691406.042969 3.953126-.035156 7.890626-.441406 11.769532-1.210938-.324219-.058593-.632813-.101562-.964844-.171874 1.390625-.332032 2.78125-.691407 4.136719-1.132813-5.941407.09375-11.859375-.789063-17.515625-2.613281-3.636719-1.238282-7.503906-2.671875-11.726563-4.429688-2.507812-1.046875-11.210937.691406-11.210937 4.214844 0 20.132812 6.160156 44.757812-20.738282 42.25-3.273437-.203125-6.488281-.988281-9.488281-2.3125-7.296875-3.925781-8.535156-11.734375-12.535156-22.511719-6.515625-20.65625-15.667969-40.390625-27.230469-58.707031-1.289062-1.929688-4.992187-1.078125-6.777344-.589844-42.484374 11.589844-92.355468-5.574218-88.882812-54.195312.09375-1.203125-3.042969-1.167969-3.574219-1.117188-13.992187 1.671875-28.140625-1.476562-40.105469-8.917968-25.886718-19.492188-32.09375-55.785157-14.15625-82.773438 7.3125-9.71875 14.941407-10.238281 25.144532-21.015625 2.886718-3.433594 5.289062-7.242187 7.144531-11.324219 3.800781-12.035156 15.886719-19.425781 28.332031-17.324218 6.960938-4.964844 15.34375-7.539063 23.890625-7.347657 2.390625-.5625 5.121094-1.9375 7.398438-2.363281 19.316406-2.734375 38.800781-4.082031 58.308593-4.035156 1.128907 0 2.210938-.855469 3.285157-.855469 21.859375-8.695313 39.84375-6.890625 53.957031 5.417969 1.253906 1.449218 2.800781 2.613281 4.539062 3.414062 9.636719 1.382813 16.980469 1.503906 28.484376 3.234375 24.882812 3.730469 42.027343 17.664063 46.472656 40.226563v.101562c.40625 2.042969.691406 4.105469.855468 6.179688.125 1.476562.238282 2.960937.261719 4.488281.082031 2.046875.039063 4.101563-.117187 6.144531l.332031.382813c.144531.058593.265625.136719.410156.207031.144531.066406.210938.28125.398438.3125 3.027343 1.398438 5.972656 2.960938 8.824219 4.6875.804687.492188 1.621093.964844 2.398437 1.484375 1.21875.777344 2.304687 1.644531 3.414063 2.472656 2.746093 2.003907 5.363281 4.179688 7.832031 6.511719l.496093.480469c1.707032 1.703125 3.328126 3.410156 4.871094 5.1875 1.695313 1.964843 3.277344 4.023437 4.738282 6.167969 7.613281 12.140624 11.996093 26.027343 12.738281 40.335937-.101563 10.636719-2.53125 21.121094-7.117188 30.722656-7.285156 12.183594-21.117187 19.804688-26.964843 30.515625l-.195313.167969c-1.015625 1.742187-1.816406 3.601563-2.378906 5.539063-4.269531 11.945312-5.976563 28.160156-12.65625 39.167968 3.175781-2.773437 6.136719-5.78125 8.867187-8.992187-.25 1.851562-.566406 3.652343-.957031 5.382812.128906-.128906.28125-.222656.402344-.351562 13.53125-13.464844 16.953125-32.570313 27.519531-48.039063 12.261719-17.527344 26-32.429687 25.835938-57.464844-.066407-18.800781-7.167969-36.890624-19.898438-50.722656-1.640625-1.730468-3.378906-3.367187-5.203125-4.898437-.964844-.871094-1.980469-1.6875-3.039063-2.441407-8.746093-6.773437-16.265624-10.914062-18.714843-23.421874 34.050781-1.972657 95.777343-9.386719 102.769531 25.316406v249.960937h-484.03125c-4.222656-13.457031 1.476562-82.152343 1.476562-95.574219 0-47.386718-7.738281-102.117187 0-148.882812zm388.625 386.792969c-.5 19.335937-19.949218 11.765625-37.621093 11.765625h-191.957031c-12.425782 0-46.515626 6.339844-57.636719 0-15-8.53125-1.832031-29.96875 11.09375-34.832032 6.605469-.964843 13.3125-.964843 19.917969 0h182.828124c21.742188 0 66.601563-9.191406 73.375 23.066407zm-85.246093-32.429688c-10.078125.777344-19.175781 1.527344-26.035157 1.527344-31.761718 0-65.578124-2.667969-98.851562-3.136719-1.527344-13.210937-1.359375-26.558594.496094-39.722656h124.390625zm158.96875-50.175781c-7.5 1-15.097657 1-22.597657 0h-371.398437c-29.753906 0-60.941406 9.601562-68.265625-30.53125-.964844-5.265625 1.980469-16.503906 0-20.480469 9.164062-.6875 18.367188-.648437 27.519531.121094h455c.570313 19.472656 4.519531 42.742187-20.257812 50.890625zm0 0"/><path d="m385.882812 252.710938c-3.863281 3.75-8.175781 7.011718-12.839843 9.703124 1.929687-1.804687 3.597656-3.867187 4.957031-6.128906-6.160156 5.496094-13.355469 9.703125-21.164062 12.382813.777343 0 1.476562-.136719 2.210937-.222657-1.792969.546876-3.558594 1.144532-5.382813 1.527344 22.144532 4.234375 29.378907-4.675781 32.21875-17.261718zm0 0"/><path d="m135.066406 134.257812c-21.71875-1.296874-25.601562-31.667968-8.945312-42.570312 6.996094-4.574219-3.257813-8.414062-8.097656-5.25-23.75 15.480469-17.355469 54.589844 12.65625 56.355469 5.777343.375 12.738281-8.066407 4.386718-8.535157zm0 0"/><path d="m229.023438 190.117188c-8.96875 3.769531-18.726563 5.28125-28.414063 4.394531-8.667969-2.921875-14.796875-10.683594-15.625-19.796875-.851563-4.8125-13.285156-1.765625-12.363281 3.3125 5.484375 30.199218 35.949218 25.878906 58.308594 19.191406 7.378906-2.210938 5.605468-9.355469-1.90625-7.101562zm0 0"/><path d="m385.882812 182.683594c12.910157-8.242188 20.246094-22.910156 19.097657-38.183594-1.148438-15.273438-10.59375-28.679688-24.589844-34.902344-3.183594-1.347656-14.507813 3.515625-9.992187 5.433594 12.5625 5.722656 21.070312 17.761719 22.269531 31.511719s-5.101563 27.082031-16.484375 34.886719c-5.410156 3.6875 6.9375 3.175781 9.699218 1.253906zm0 0"/><path d="m320.765625 47.21875c-7.421875 2.328125-5.410156 10.386719 2.152344 8.011719 13.429687-4.265625 23.472656 8.851562 23.894531 21.207031.226562 6.238281 12.6875 4.148438 12.492188-1.058594.148437-9.488281-4.320313-18.457031-11.980469-24.054687-7.660157-5.597657-17.5625-7.128907-26.558594-4.105469zm0 0"/><path d="m222.488281 34.9375c-9.113281-.910156-18.21875 1.828125-25.316406 7.613281-2.074219 1.707031-1.28125 3.097657.980469 3.6875 3.109375.40625 6.253906-.4375 8.746094-2.347656 7.730468-6.210937 16.015624-.09375 23.210937 3.925781 3.046875 1.707032 14.507813-2.960937 9.964844-5.488281-5.308594-3.609375-11.289063-6.121094-17.585938-7.390625zm0 0"/><path d="m233.445312 103.34375c-5.335937 1.113281-10.539062 2.785156-15.523437 4.992188-8.117187 3.902343-13.707031 11.648437-14.855469 20.582031-.578125 4.871093 11.863282 2.628906 12.355469-1.5625.28125-6.933594 4.632813-13.042969 11.09375-15.574219 2.78125-.921875 5.691406-1.527344 8.535156-2.285156 1.800781-.480469 6.039063-2.175782 5.359375-4.738282-.683594-2.558593-5.285156-1.867187-6.964844-1.414062zm0 0"/><path d="m300.953125 135.453125c-5.667969-2.023437-14.507813 6.109375-7.023437 8.78125 11.589843 4.148437 12.441406 14.625 12.800781 25.191406.253906 6.824219 12.800781 5.179688 12.570312-.769531.195313-5.320312-.269531-10.644531-1.375-15.855469-2.542969-8.171875-8.859375-14.625-16.972656-17.347656zm0 0"/><path d="m47.207031 122.730469v-8.535157c0-6.601562-12.546875-4.871093-12.546875.855469v8.53125c0 6.625 12.546875 4.890625 12.546875-.851562zm0 0"/><path d="m34.753906 158.953125v136.535156c0 3.335938 12.359375 1.167969 12.359375-3.3125v-136.53125c0-3.335937-12.359375-1.171875-12.359375 3.308594zm0 0"/></g></svg>