<svg height="502pt" viewBox="0 -4 502.82185 502" width="502pt" xmlns="http://www.w3.org/2000/svg"><path d="m290.054688 493.9375c-1.828126-.003906-3.445313-1.1875-3.996094-2.933594-.550782-1.742187.09375-3.644531 1.589844-4.695312l5.546874-3.902344-18.992187 10.933594c-1.910156 1.085937-4.328125.515625-5.554687-1.304688-1.226563-1.816406-.84375-4.273437.878906-5.636718l27.453125-21.445313-49.167969 28.386719c-1.878906 1.074218-4.265625.539062-5.507812-1.230469-1.246094-1.765625-.945313-4.191406.699218-5.601563l33.289063-28.175781-60.644531 35.007813c-1.902344 1.09375-4.328126.53125-5.558594-1.28125-1.230469-1.816406-.859375-4.273438.859375-5.640625l28.328125-22.320313-50.621094 29.242188c-1.875 1.066406-4.25.535156-5.496094-1.222656-1.246094-1.757813-.957031-4.175782.667969-5.589844l33.816406-29.015625-62.109375 35.828125c-1.898437 1.074218-4.296875.515625-5.527344-1.28125-1.230468-1.796875-.882812-4.234375.800782-5.617188l29.882812-23.960937-53.476562 30.859375c-1.941406 1.089844-4.398438.46875-5.589844-1.414063-1.191406-1.878906-.710938-4.363281 1.101562-5.660156l.636719-.445313-13.035156 7.554688c-1.886719 1.089844-4.292969.558594-5.539063-1.226562-1.246093-1.785157-.917968-4.226563.753907-5.621094l32.492187-27.113282-57.796875 33.355469c-1.898437 1.078125-4.308593.523438-5.539062-1.28125-1.230469-1.804687-.875-4.25.820312-5.625l28.707031-22.921875-39.03125 22.527344c-1.898437 1.09375-4.316406.542969-5.554687-1.261719-1.238281-1.804687-.878906-4.261719.820313-5.636719l20.421874-16.460937-24.003906 13.839844c-1.816406.976562-4.070312.492187-5.320312-1.144531-1.253906-1.636719-1.132813-3.9375.285156-5.433594l18.464844-18.617188-22.992188 13.253906c-1.832031 1.058594-4.167968.582032-5.445312-1.109374-1.277344-1.695313-1.089844-4.074219.4375-5.546876l5.292968-5.097656-6.636718 3.828125c-1.773438 1.027344-4.03125.625-5.339844-.957031-1.300781-1.578125-1.277344-3.863281.058594-5.414062l1.914062-2.214844-.191406.101562c-1.511719.871094-3.40625.71875-4.753906-.386718-1.351563-1.105469-1.878906-2.929688-1.324219-4.582032l1.738281-5.179687c-.578125-.363281-1.054687-.859375-1.394531-1.453125-1.152344-2.003906-.464844-4.5625 1.535156-5.722656l4.199219-2.425782c1.507812-.84375 3.378906-.679687 4.714844.417969 1.335937 1.09375 1.863281 2.898437 1.328125 4.542969l-.664063 1.972656 12.070313-6.910156c1.769531-1.007813 4.011719-.601563 5.3125.964844 1.300781 1.570312 1.289062 3.847656-.03125 5.398437l-1.925781 2.234375 14.917968-8.597656c1.835938-1.058594 4.171875-.582032 5.445313 1.109375 1.277343 1.695312 1.089843 4.074219-.433594 5.546875l-5.289063 5.089844 20.378907-11.753907c1.816406-1.035156 4.121093-.574219 5.398437 1.082031 1.28125 1.660157 1.140625 4.003907-.320312 5.5l-18.457032 18.609376 43.6875-25.183594c1.898438-1.089844 4.316407-.539063 5.554688 1.265625 1.238281 1.804687.882812 4.257812-.820312 5.636719l-20.421876 16.457031 40.515626-23.441407c1.898437-1.078124 4.304687-.519531 5.539062 1.28125 1.230469 1.804688.871094 4.25-.824219 5.625l-28.710937 22.933594 51.695312-29.855468c1.882813-1.082032 4.277344-.546876 5.523438 1.234374 1.246094 1.777344.929687 4.214844-.730469 5.613282l-32.492187 27.101562 58.855468-33.976562c1.945313-1.097656 4.414063-.476563 5.609375 1.410156 1.195313 1.890625.699219 4.386719-1.128906 5.675781l-.636719.433594 13.050782-7.550781c1.898437-1.074219 4.296874-.515625 5.527343 1.28125s.882813 4.234375-.800781 5.617187l-29.871094 23.960938 53.472656-30.851563c1.878907-1.105468 4.289063-.585937 5.550782 1.191406 1.257812 1.777344.949218 4.226563-.714844 5.632813l-33.816406 29.023437 62.109375-35.867187c1.902343-1.066406 4.308593-.5 5.53125 1.304687 1.226562 1.808594.859375 4.25-.839844 5.621094l-28.328125 22.320313 50.6875-29.261719c1.886719-1.113281 4.308594-.59375 5.570312 1.195312 1.257813 1.789063.933594 4.246094-.75 5.644532l-33.289062 28.167968 60.667969-35.023437c1.910156-1.105469 4.347656-.542969 5.582031 1.285156s.839844 4.300781-.898438 5.65625l-27.464843 21.445313 49.203125-28.402344c1.941406-1.105469 4.410156-.492188 5.609375 1.390625s.714843 4.378906-1.101563 5.675781l-5.558594 3.902344 19.011719-10.980469c1.921875-1.109375 4.378907-.527343 5.601563 1.324219s.792968 4.335938-.984375 5.667969l-21.824219 16.351562 40.476562-23.359375c1.898438-1.097656 4.324219-.546875 5.5625 1.265625 1.238282 1.808594.875 4.269531-.839843 5.644531l-30.214844 24.253907 54.003906-31.179688c1.890625-1.117187 4.324219-.585937 5.578125 1.21875 1.253906 1.804688.902344 4.269531-.804687 5.65625l-32.078125 26.511719 55.488281-32.035156c1.886719-1.085938 4.289063-.546875 5.535156 1.234375 1.246094 1.785156.917969 4.226562-.75 5.621093l-31.148437 26.019532 22.832031-13.160156c1.835937-1.105469 4.214844-.648438 5.507813 1.0625 1.296874 1.710937 1.089843 4.125-.472657 5.59375l-21.824219 20.933593c.335938.296875.617188.644531.839844 1.03125 1.160156 2.007813.476563 4.570313-1.527344 5.734375l-16.324218 9.46875c-1.839844 1.105469-4.21875.648438-5.511719-1.066406-1.296875-1.710938-1.089844-4.121094.472656-5.589844l13.136719-12.648437-34.890625 20.140625c-1.882813 1.0625-4.265625.523437-5.503906-1.25-1.234375-1.773438-.925781-4.195313.71875-5.597656l31.164062-26.019532-57.015625 32.867188c-1.886718 1.089844-4.296875.554687-5.542968-1.238282-1.246094-1.789062-.910157-4.234374.765624-5.625l32.097657-26.5-57.796875 33.363282c-1.898438 1.09375-4.316406.542968-5.554688-1.261719-1.238281-1.804687-.878906-4.257813.820313-5.636719l30.21875-24.265625-54.023438 31.164063c-1.917969 1.085937-4.351562.5-5.566406-1.34375-1.214844-1.839844-.792969-4.308594.960937-5.644532l21.820313-16.359374-40.453125 23.347656c-.636719.382812-1.359375.589844-2.101562.597656zm0 0" fill="#636c77"/><path d="m57.273438 427.035156c-1.882813 0-3.539063-1.25-4.046876-3.0625-.511718-1.808594.246094-3.742187 1.855469-4.71875l127.699219-78.160156-136.980469 79.066406c-1.996093 1.179688-4.570312.515625-5.75-1.476562-1.179687-1.996094-.519531-4.570313 1.476563-5.75l41.128906-24.820313-36.855469 21.292969c-1.980469 1.058594-4.441406.371094-5.589843-1.558594-1.144532-1.929687-.570313-4.417968 1.308593-5.648437l113.65625-69.230469-109.375 63.144531c-1.976562 1.039063-4.421875.351563-5.5625-1.566406-1.144531-1.917969-.585937-4.394531 1.273438-5.636719l148.6875-91.136718-144.398438 83.324218c-1.980469 1.070313-4.453125.390625-5.605469-1.539062-1.152343-1.933594-.578124-4.433594 1.304688-5.664063l155.320312-95.375-151.019531 87.183594c-1.980469 1.074219-4.453125.394531-5.605469-1.539063-1.152343-1.933593-.578124-4.429687 1.304688-5.664062l171.160156-105.503906-166.859375 96.332031c-1.984375 1.09375-4.480469.417969-5.640625-1.527344-1.15625-1.949219-.558594-4.464843 1.351563-5.683593l134.535156-82.257813-130.246094 75.199219c-1.980469 1.058594-4.441406.371094-5.589843-1.558594-1.144532-1.929688-.570313-4.421875 1.308593-5.652344l103.523438-62.949218-99.242188 57.292968c-1.992187 1.191406-4.570312.542969-5.761719-1.445312-1.1875-1.988282-.542968-4.566406 1.445313-5.757813l194.03125-120.511719-189.714844 109.535157c-1.996093 1.179687-4.570312.515625-5.75-1.476563-1.179687-1.996094-.519531-4.570312 1.476563-5.75l49.417968-29.875-45.144531 26.019532c-1.984375 1.097656-4.480469.421874-5.640625-1.527344-1.15625-1.945313-.558594-4.460938 1.351563-5.679688l101.128906-61.808594-96.839844 55.921876c-1.984375 1.082031-4.46875.394531-5.617187-1.546876-1.152344-1.945312-.558594-4.449218 1.34375-5.667968l7.621094-4.609375-3.359376 1.929687c-1.972656 1.070313-4.4375.398438-5.59375-1.527344-1.15625-1.921874-.597656-4.414062 1.273438-5.65625l143.410156-89.902343-139.089844 80.300781c-1.976562 1.128906-4.492187.476562-5.671874-1.46875-1.179688-1.949219-.589844-4.480469 1.324218-5.707031l142.523438-90.652344-138.175782 79.789063c-1.980468 1.117187-4.492187.449218-5.660156-1.503907-1.167968-1.953125-.566406-4.480469 1.355469-5.699219l64.261719-39.910156-59.957032 34.617188c-1.285156.765625-2.886718.789062-4.195312.058594-1.308594-.734376-2.128906-2.109376-2.148438-3.605469-.019531-1.5.761719-2.898438 2.046876-3.664063l12.429687-7.648437-8.132813 4.703125c-1.984374 1.195312-4.5625.558594-5.761718-1.425782-1.195313-1.980468-.558594-4.5625 1.421875-5.761718l68.972656-43.644532-64.632813 37.316407c-1.972656 1.160156-4.515624.519531-5.703124-1.4375-1.191407-1.957031-.597657-4.503907 1.339843-5.730469l72.746094-46.765625-68.382813 39.449219c-1.957031 1.113281-4.449218.480468-5.640624-1.4375-1.1875-1.914063-.648438-4.429688 1.21875-5.691406l81.507812-54.28125-77.085938 44.488281c-1.964843 1.136719-4.476562.507812-5.671874-1.421875-1.195313-1.933594-.636719-4.464844 1.257812-5.714844l54.019531-35.855469-49.605469 28.636719c-1.976562 1.210938-4.558593.589844-5.769531-1.386719-1.210937-1.976562-.585937-4.5625 1.390625-5.769531l10.070313-6.53125-5.699219 3.296875c-1.964844 1.230469-4.554688.632813-5.78125-1.332031-1.230469-1.96875-.632812-4.554688 1.332031-5.785156l29.152344-19.730469-24.703125 14.265625c-1.945312 1.101562-4.414062.480468-5.609375-1.410156-1.195313-1.890626-.699219-4.382813 1.128906-5.671876l21.703125-14.972656-17.214844 9.925782c-1.9375 1.089843-4.390624.476562-5.589843-1.394532-1.199219-1.875-.726563-4.359375 1.074219-5.664062l10.300781-7.257813-5.785157 3.355469c-1.925781 1.121094-4.390624.542969-5.613281-1.320312-1.226562-1.859376-.785156-4.351563 1.007813-5.679688l9.230468-6.875-4.605468 2.664062c-1.90625 1.113282-4.347656.558594-5.589844-1.265624-1.242188-1.824219-.855469-4.296876.878906-5.660157l4.03125-3.183593c-1.53125.550781-3.242187.167968-4.390625-.980469-1.328125-1.339844-1.597656-3.398438-.664062-5.035157l8.300781-14.429687-.101562.058594c-1.296876.761719-2.90625.769531-4.210938.019531s-2.109375-2.140625-2.105469-3.648438c.003907-1.507812.8125-2.894531 2.121094-3.640624l13.699219-7.914063c1.644531-.953125 3.730468-.679687 5.074218.664063 1.34375 1.347656 1.613282 3.433593.65625 5.078124l-8.308593 14.378907 35-20.1875c1.90625-1.089844 4.328125-.53125 5.558593 1.285156 1.234376 1.816406.859376 4.273437-.855468 5.640625l-3.652344 2.886719 17.003906-9.8125c1.925782-1.121094 4.390625-.542969 5.617188 1.320312 1.222656 1.859375.78125 4.355469-1.007813 5.679688l-9.234375 6.875 24.039063-13.875c1.941406-1.089844 4.394531-.476563 5.589843 1.398437 1.199219 1.871094.730469 4.355469-1.074218 5.660156l-10.28125 7.210938 24.785156-14.269531c1.941406-1.058594 4.375-.429688 5.558594 1.4375 1.183594 1.867187.710937 4.335937-1.074219 5.636719l-21.691406 15.027343 38.332031-22.101562c1.957031-1.113281 4.445312-.488281 5.636719 1.421875 1.195312 1.90625.671875 4.414062-1.1875 5.6875l-29.140625 19.75 46.492187-26.859375c1.976563-1.210938 4.558594-.589844 5.769531 1.390625 1.210938 1.976562.585938 4.558594-1.390624 5.769531l-10.128907 6.554687 23.761719-13.714843c1.957031-1.082031 4.417969-.4375 5.59375 1.464843 1.179688 1.898438.660156 4.390626-1.179688 5.660157l-53.996093 35.847656 74.433593-42.972656c1.964844-1.167969 4.5-.546875 5.707032 1.390625 1.207031 1.941406.640625 4.488281-1.273438 5.734375l-81.5 54.273437 106.335938-61.398437c1.976562-1.15625 4.515625-.519531 5.707031 1.4375s.59375 4.507812-1.34375 5.730469l-72.796875 46.808593 93.496094-53.976562c1.984375-1.199219 4.566406-.566407 5.765625 1.417969 1.199219 1.984374.566406 4.566406-1.417969 5.765624l-69.011719 43.648438 88.015625-50.832031c1.988282-1.1875 4.566406-.535157 5.753906 1.457031 1.183594 1.988281.53125 4.566406-1.457031 5.753906l-12.3125 7.554688 25.605469-14.765625c1.289062-.769531 2.886719-.796875 4.199219-.066407 1.308593.726563 2.132812 2.101563 2.15625 3.597657.023437 1.5-.753907 2.898437-2.039063 3.671875l-64.304687 39.933594 81.636719-47.136719c1.28125-.777344 2.882812-.8125 4.195312-.09375 1.316406.722656 2.144531 2.089843 2.179688 3.589843.03125 1.5-.738282 2.902344-2.019532 3.679688l-142.511718 90.648438 169.40625-97.824219c1.980468-1.144531 4.511718-.488281 5.691406 1.472656 1.179687 1.960937.570312 4.507813-1.371094 5.71875l-143.433594 89.902344 168.210938-97.09375c1.992187-1.109375 4.5-.425781 5.65625 1.535156 1.160156 1.960937.539062 4.484375-1.390625 5.691406l-7.429688 4.492188 20.296875-11.753907c1.988282-1.132812 4.519532-.460937 5.6875 1.507813 1.167969 1.96875.539063 4.511719-1.40625 5.710937l-101.109375 61.828126 117.851563-68.046876c1.992187-1.109374 4.5-.425781 5.65625 1.535157 1.160156 1.960937.539062 4.488281-1.390625 5.691406l-49.386719 29.855469 54.269531-31.332032c1.992188-1.191406 4.566407-.546874 5.757813 1.445313 1.191406 1.988281.546875 4.566406-1.441406 5.757813l-194.039063 120.519531 193.449219-111.691407c1.984375-1.078124 4.46875-.394531 5.617187 1.550782 1.152344 1.941406.558594 4.449218-1.34375 5.667968l-103.492187 62.949219 99.269531-57.308593c1.992187-1.132813 4.519531-.464844 5.6875 1.503906s.542969 4.511718-1.40625 5.714844l-134.605469 82.238281 130.273438-75.214844c1.289062-.765625 2.890625-.789063 4.199218-.058594 1.308594.734375 2.125 2.105469 2.148438 3.605469.019531 1.5-.761719 2.894531-2.046875 3.664062l-171.167969 105.546876 166.902344-96.363282c1.992188-1.1875 4.570312-.53125 5.753906 1.464844 1.183594 1.992188.527344 4.566406-1.464844 5.753906l-155.328124 95.375 151.082031-87.203125c1.980469-1.09375 4.476562-.417969 5.636719 1.527344 1.160156 1.949219.5625 4.464844-1.347657 5.683594l-148.664062 91.136719 144.367187-83.339844c1.984375-1.078125 4.464844-.394532 5.613282 1.550781 1.152343 1.945313.558593 4.449219-1.34375 5.667969l-113.585938 69.179687 109.304688-63.085937c1.988281-1.0625 4.457031-.371094 5.601562 1.570312 1.140625 1.941406.546875 4.4375-1.34375 5.65625l-41.171875 24.804688 36.933594-21.3125c1.980469-1.058594 4.441406-.371094 5.585937 1.558594 1.144532 1.929687.570313 4.421874-1.304687 5.652343l-127.75 78.210938 123.46875-71.285157c1.988281-1.136718 4.519531-.464843 5.6875 1.503907s.542969 4.511719-1.40625 5.710937l-82.257813 50.109375 77.957032-45.003906c1.980468-1.109375 4.476562-.445313 5.648437 1.496094 1.167969 1.9375.585937 4.457031-1.316406 5.6875l-163.417969 102.726562 159.121094-91.871093c1.988281-1.136719 4.519531-.464844 5.6875 1.503906 1.167968 1.96875.542968 4.511718-1.40625 5.710937l-28.328125 17.25 24.054687-13.882812c1.976563-1.105469 4.476563-.445313 5.648438 1.496093 1.167968 1.9375.585937 4.457032-1.316406 5.6875l-117.917969 74.132813 113.605469-65.613281c1.984374-1.195313 4.5625-.554688 5.761718 1.433594 1.195313 1.984374.554688 4.566406-1.433594 5.761718l-85.4375 53.507813 81.117188-46.828125c1.972656-1.054688 4.425781-.375 5.578125 1.546875 1.148437 1.921875.589844 4.40625-1.273437 5.648437l-29.679688 18.363282 25.382812-14.65625c1.96875-1.179688 4.523438-.554688 5.726563 1.398437 1.207031 1.953125.617187 4.515625-1.320313 5.746094l-108.957031 71.417969 104.558594-60.371094c1.273437-.792969 2.875-.84375 4.195313-.132813 1.320312.707031 2.164062 2.066407 2.210937 3.566407s-.707031 2.910156-1.984375 3.699218l-89.070312 58.980469 84.664062-48.875c1.960938-1.136719 4.46875-.511719 5.667969 1.410156 1.195312 1.921875.65625 4.449219-1.226563 5.707031l-69.910156 46.785157 65.46875-37.769531c1.953125-1.097657 4.421875-.46875 5.613281 1.425781 1.191407 1.898437.683594 4.394531-1.15625 5.675781l-54.839843 37.339844 50.410156-29.097656c1.972656-1.214844 4.558594-.597657 5.773437 1.375 1.214844 1.976562.597657 4.5625-1.375 5.777343l-3.769531 2.449219c1.976562-.75 4.203125.09375 5.195312 1.960938.988282 1.871093.429688 4.183593-1.300781 5.398437l-33.085937 23.394531 28.535156-16.503906c1.9375-1.105469 4.402344-.5 5.609375 1.378906 1.207031 1.875.734375 4.367188-1.074219 5.671875l-14.839844 10.550781 10.3125-5.949218c1.855469-1.09375 4.230469-.609375 5.507813 1.121094 1.277344 1.730468 1.042969 4.144531-.546875 5.59375l-26.859375 25.070312 21.917969-12.648438c1.726562-.996093 3.917968-.636718 5.238281.855469 1.320313 1.496094 1.40625 3.710938.207031 5.304688l-10.945312 14.460937 5.550781-3.203125c1.492187-.863281 3.363281-.726562 4.710937.351563 1.351563 1.074218 1.90625 2.867187 1.398438 4.515625l-1.9375 6.269531c.652344.371094 1.191406.910156 1.566406 1.5625 1.15625 2.003906.46875 4.5625-1.535156 5.722656l-4.195312 2.425782c-1.496094.863281-3.367188.722656-4.714844-.351563-1.351563-1.074219-1.902344-2.867187-1.398438-4.515625l1.050782-3.359375-14.269532 8.242187c-1.726562.988282-3.910156.625-5.226562-.867187s-1.402344-3.699219-.210938-5.292969l10.917969-14.488281-35.796875 20.667969c-1.851562 1.089844-4.230469.605468-5.507812-1.125-1.277344-1.726563-1.039063-4.140625.546874-5.589844l26.859376-25.074219-55.070313 31.796875c-1.9375 1.105469-4.402344.5-5.609375-1.375-1.207031-1.878906-.730469-4.371094 1.078125-5.675781l14.839844-10.558594-30.519531 17.625c-1.945313 1.160157-4.457032.566407-5.679688-1.335937-1.222656-1.90625-.714844-4.4375 1.148438-5.722656l33.035156-23.382813-52.71875 30.464844c-1.964844 1.121093-4.460938.480469-5.648438-1.445313-1.183594-1.925781-.632812-4.445312 1.25-5.695312l2.945313-1.921875-15.71875 9.074219c-1.953125 1.097656-4.421875.46875-5.613281-1.429688-1.1875-1.894531-.679688-4.390625 1.15625-5.671875l54.851562-37.335937-77.003906 44.488281c-1.953125 1.09375-4.425782.460937-5.613282-1.445313-1.183593-1.902344-.664062-4.402344 1.183594-5.675781l69.925782-46.808594-93.4375 53.910157c-1.964844 1.140624-4.476563.507812-5.671876-1.421876-1.195312-1.929687-.636718-4.460937 1.257813-5.710937l89.03125-58.957031-114.511719 66.109375c-1.96875 1.117187-4.464844.476562-5.648437-1.449219-1.1875-1.925781-.632813-4.445312 1.25-5.695312l108.960937-71.421876-136.113281 78.589844c-1.992187 1.191406-4.570313.542969-5.757813-1.445312-1.191406-1.988282-.546874-4.566406 1.441407-5.757813l29.773437-18.414062-44.386718 25.625c-1.984376 1.195312-4.566407.554687-5.761719-1.429688-1.195313-1.988281-.554688-4.566406 1.429687-5.761719l85.386719-53.433593-105.136719 60.640625c-1.976562 1.109375-4.472656.449218-5.644531-1.492188-1.167969-1.941406-.585937-4.460937 1.316406-5.691406l117.894531-74.097656-140.777343 81.300781c-1.988281 1.132813-4.519531.460937-5.6875-1.507813s-.539063-4.511718 1.40625-5.710937l28.421875-17.308594-42.496094 24.535157c-1.984375 1.195312-4.566406.554687-5.761719-1.429688-1.195312-1.988281-.554687-4.566406 1.429688-5.765625l163.480469-102.734375-190.429688 109.945312c-1.988281 1.132813-4.519531.464844-5.6875-1.503906s-.542969-4.511718 1.40625-5.714844l82.164062-50.109374-99.238281 57.34375c-.640625.378906-1.375.578124-2.121093.574218zm0 0" fill="#636c77"/><path d="m116.226562 351.25c-1.878906.003906-3.535156-1.25-4.046874-3.058594-.507813-1.8125.25-3.742187 1.859374-4.722656l9.097657-5.539062-22.101563 12.722656c-1.980468 1.117187-4.492187.449218-5.660156-1.503906-1.167969-1.949219-.566406-4.480469 1.355469-5.695313l85.511719-52.730469-99.964844 57.714844c-1.984375 1.144531-4.515625.488281-5.695313-1.472656-1.175781-1.960938-.566406-4.507813 1.371094-5.722656l156.722656-98.371094-155.304687 89.660156c-1.976563 1.089844-4.460938.417969-5.621094-1.515625-1.164062-1.9375-.582031-4.445313 1.308594-5.675781l134.582031-83.71875-130.269531 75.222656c-1.972656 1.070312-4.4375.398438-5.59375-1.527344-1.15625-1.921875-.597656-4.414062 1.273437-5.65625l140.957031-87.871094-136.636718 78.882813c-1.984375 1.078125-4.464844.394531-5.613282-1.550781-1.152343-1.945313-.558593-4.449219 1.34375-5.667969l16.324219-9.949219-12.054687 6.960938c-1.964844 1.066406-4.425782.398437-5.585938-1.515625-1.160156-1.914063-.617187-4.402344 1.238282-5.652344l143.261718-90.769531-138.914062 80.191406c-1.972656 1.070312-4.4375.398438-5.59375-1.523438-1.15625-1.925781-.597656-4.417968 1.273437-5.660156l82.992188-51.777344-78.671875 45.40625c-1.976563 1.089844-4.460938.417969-5.621094-1.515624-1.164062-1.9375-.582031-4.445313 1.308594-5.675782l50.832031-31.59375-46.519531 26.867188c-1.96875 1.121094-4.472656.476562-5.65625-1.460938-1.183594-1.933594-.613282-4.457031 1.285156-5.699218l95.046875-61.09375-90.648437 52.355468c-1.976563 1.210938-4.5625.589844-5.769532-1.386718-1.210937-1.976563-.589844-4.5625 1.386719-5.773438l83.097656-54.042969-78.75 45.449219c-1.96875 1.222656-4.554687.613281-5.777343-1.355469-1.222657-1.96875-.613282-4.558593 1.355468-5.777343l76.984375-51.199219-72.5625 41.898437c-1.964843 1.167969-4.5.546875-5.707031-1.390625-1.207031-1.941406-.636719-4.488281 1.277344-5.734375l57.375-38.46875-52.945313 30.570313c-1.964843 1.164062-4.5.546875-5.707031-1.394531-1.207031-1.9375-.636719-4.488282 1.277344-5.734376l33.421875-22.351562-28.992188 16.738281c-1.960937 1.113281-4.449219.480469-5.640625-1.433593-1.1875-1.917969-.652344-4.429688 1.21875-5.691407l9.734375-6.464843-5.3125 3.0625c-1.898437 1.085937-4.316406.527343-5.546875-1.28125-1.230468-1.808594-.867187-4.261719.839844-5.632813l43.8125-34.925781-39.105469 22.578125c-1.910156 1.132812-4.371093.578125-5.613281-1.261719s-.839844-4.328125.921875-5.679688l18.296875-14.378906-13.585938 7.847656c-1.847656 1.019532-4.164062.507813-5.410156-1.195312-1.246094-1.699219-1.035156-4.0625.488282-5.519531l11.863281-10.742188-6.941407 4.011719c-1.570312.90625-3.539062.703125-4.890624-.5-1.347657-1.203125-1.777344-3.132812-1.0625-4.796875l5.347656-12.414063c-2.007813.371094-3.988282-.753906-4.699219-2.667968-.707031-1.914063.0625-4.0625 1.828125-5.085938l9.460938-5.480468c1.566406-.902344 3.535156-.703126 4.886718.5 1.351563 1.203124 1.777344 3.136718 1.0625 4.796874l-5.195312 12.042969 30.039062-17.339843c1.847656-1.015626 4.164063-.503907 5.410156 1.195312 1.246094 1.703125 1.035157 4.0625-.492187 5.519531l-11.851563 10.742188 30.277344-17.457031c1.90625-1.097657 4.335938-.539063 5.570313 1.285156 1.230469 1.820312.847656 4.285156-.878907 5.648437l-18.289062 14.394531 36.929688-21.328124c1.902343-1.085938 4.316406-.527344 5.550781 1.285156 1.230469 1.808594.863281 4.257812-.839844 5.628906l-43.816406 34.925781 72.480469-41.839843c1.957031-1.117188 4.449218-.480469 5.640624 1.433593 1.1875 1.917969.648438 4.429688-1.21875 5.691407l-9.746093 6.472656 23.5625-13.597656c1.957031-1.097657 4.429687-.460938 5.613281 1.441406 1.1875 1.90625.664062 4.402344-1.183594 5.675781l-33.4375 22.359375 51.054688-29.476562c1.957031-1.097657 4.429687-.460938 5.617187 1.441406 1.183594 1.90625.664063 4.402344-1.183593 5.675781l-57.308594 38.433594 78.898437-45.550781c1.957031-1.117188 4.449219-.480469 5.636719 1.433593 1.191406 1.917969.652344 4.429688-1.214844 5.691407l-76.992187 51.199218 101.046875-58.324218c1.96875-1.144532 4.496094-.511719 5.6875 1.433593 1.191406 1.941407.617187 4.480469-1.296875 5.71875l-83.144531 54.042969 106.042968-61.195312c1.96875-1.121094 4.472656-.476563 5.65625 1.460937 1.183594 1.933594.613282 4.457031-1.285156 5.699219l-94.980469 61.027344 118.136719-68.1875c1.289062-.769532 2.886719-.796876 4.199219-.066407 1.308593.726563 2.132812 2.097657 2.15625 3.597657.023437 1.5-.753907 2.898437-2.039063 3.667968l-50.847656 31.570313 67.199219-38.769531c1.980469-1.144532 4.511719-.488282 5.691406 1.472656 1.179687 1.960937.570313 4.507812-1.371094 5.71875l-83.09375 51.824218 102.25-59.015624c1.972657-1.128907 4.492188-.476563 5.667969 1.46875 1.179688 1.945312.59375 4.476562-1.320312 5.707031l-143.292969 90.800781 169.203125-97.691406c1.996094-1.179688 4.570312-.519532 5.75 1.476562 1.179687 1.996094.515625 4.570313-1.480469 5.75l-16.222656 9.84375 18.53125-10.699218c1.984375-1.144532 4.515625-.488282 5.695312 1.472656 1.179688 1.960937.566407 4.507812-1.371093 5.71875l-140.984376 87.890625 137.0625-79.144531c1.984376-1.117188 4.496094-.449219 5.664063 1.503906s.566406 4.480468-1.355469 5.699218l-134.574218 83.714844 130.265624-75.222656c1.976563-1.066406 4.441407-.394531 5.597657 1.527344s.59375 4.417968-1.273438 5.660156l-156.636719 98.328125 152.3125-87.945313c1.992188-1.1875 4.570313-.535156 5.753907 1.453126 1.1875 1.992187.535156 4.570312-1.453125 5.753906l-85.671875 52.878906 81.414062-47.003906c1.984375-1.078125 4.46875-.390625 5.617188 1.550781 1.148437 1.945313.554687 4.449219-1.34375 5.667969l-9.058594 5.53125 4.785156-2.769532c1.984375-1.140624 4.515625-.484374 5.695313 1.476563 1.175781 1.960937.566406 4.503906-1.371094 5.71875l-87.957031 54.992187 83.601562-48.261718c1.96875-1.085938 4.445313-.421875 5.613281 1.507812 1.164063 1.925782.601563 4.425782-1.277343 5.667969l-90.539063 57.351563 86.203125-49.773438c1.96875-1.101562 4.460938-.445312 5.632813 1.484375s.609375 4.441406-1.277344 5.683594l-86.175781 55.296875 81.820312-47.238282c1.964844-1.097656 4.445313-.449218 5.625 1.472657 1.175781 1.921875.625 4.425781-1.246093 5.679687l-77.480469 50.359375 73.101562-42.199219c1.953125-1.136718 4.453125-.519531 5.65625 1.394532 1.203125 1.914062.675781 4.433594-1.191406 5.703125l-87.183594 59.679687 82.71875-47.757812c1.96875-1.125 4.472657-.476563 5.65625 1.457031 1.179688 1.9375.613281 4.460937-1.285156 5.699219l-17.792969 11.5 13.429688-7.753906c1.953125-1.136719 4.457031-.519532 5.65625 1.394531 1.203125 1.914062.675781 4.433593-1.191406 5.707031l-43.648438 29.863281 39.148438-22.597656c1.9375-1.105469 4.402343-.5 5.609374 1.378906 1.207032 1.875.734376 4.367188-1.078124 5.671875l-36.804688 26.230469 32.300781-18.648437c1.917969-1.078126 4.339844-.492188 5.554688 1.34375 1.210937 1.835937.800781 4.292968-.941407 5.636718l-28.015624 21.09375 23.402343-13.511718c1.910157-1.117188 4.359375-.554688 5.59375 1.28125 1.234375 1.835937.832031 4.316406-.921875 5.667968l-13.8125 10.757813 9.140625-5.269531c1.851563-1.148438 4.277344-.683594 5.574219 1.066406 1.300781 1.75 1.042969 4.207031-.589844 5.648437l-11.878906 11.273438 6.859375-3.964844c1.585937-.894531 3.570313-.667969 4.910156.570313 1.339844 1.234374 1.730469 3.191406.964844 4.84375l-4.777344 10.167968c1.585938-.082031 3.082031.722656 3.886719 2.089844 1.160156 2.003906.476562 4.570312-1.527344 5.730469l-9.433594 5.441406c-1.585937.894531-3.570312.667969-4.910156-.570313-1.339844-1.234374-1.730468-3.191406-.964844-4.84375l4.449219-9.46875-25.742187 14.863282c-1.855469 1.167968-4.296875.714844-5.605469-1.046875-1.308594-1.757813-1.042969-4.226563.609375-5.667969l11.851562-11.273438-31.097656 17.988282c-1.910156 1.105468-4.347656.546875-5.582031-1.285156-1.234375-1.828126-.839844-4.300782.898437-5.65625l13.808594-10.75-30.671875 17.691406c-1.917969 1.078125-4.339843.488281-5.554687-1.34375-1.210938-1.835938-.800782-4.296875.941406-5.640625l28.03125-21.089844-48.679688 28.074219c-1.9375 1.105468-4.402343.503906-5.609374-1.375-1.207032-1.878906-.734376-4.371094 1.074218-5.675782l36.847656-26.253906-57.652343 33.304688c-1.945313 1.046875-4.367188.410156-5.542969-1.457032-1.175781-1.867187-.707031-4.324218 1.078125-5.625l43.601563-29.847656-64.007813 36.929688c-1.960937 1.066406-4.417969.40625-5.582031-1.5-1.164063-1.902344-.632813-4.386719 1.210937-5.652344l17.808594-11.503906-32.332031 18.65625c-1.945313 1.085937-4.402344.457031-5.589844-1.429688-1.1875-1.886718-.695312-4.375 1.125-5.660156l87.199219-59.695312-115.675781 66.785156c-1.964844 1.082031-4.429688.429687-5.601563-1.476563-1.171875-1.910156-.640625-4.402343 1.210937-5.664062l77.488282-50.363281-99.65625 57.503906c-1.96875 1.082031-4.4375.425781-5.605469-1.492188-1.167969-1.917968-.621094-4.414062 1.242187-5.667968l86.183594-55.292969-108.183594 62.453125c-1.972656 1.085937-4.449218.421875-5.613281-1.503906-1.164062-1.925782-.601562-4.429688 1.273438-5.671876l90.566406-57.359374-111.800781 64.535156c-1.972656 1.070312-4.4375.398437-5.597656-1.527344-1.15625-1.921875-.59375-4.414062 1.273437-5.65625l87.871094-54.925781-107.664063 62.109375c-.628906.382812-1.351562.589844-2.089844.597656zm0 0" fill="#4fc0e8"/><path d="m304.367188 258.835938c-1.125 0-2.199219-.449219-2.988282-1.25-1.339844-1.355469-1.59375-3.445313-.621094-5.085938l7.628907-12.875-16.886719 9.753906c-1.816406 1.046875-4.125.59375-5.410156-1.058594-1.285156-1.65625-1.15625-4.003906.308594-5.507812l9.515624-9.761719-11.042968 6.382813c-1.855469 1.167968-4.296875.710937-5.605469-1.046875-1.308594-1.761719-1.042969-4.230469.609375-5.667969l12.054688-11.5-13.859376 8.007812c-1.824218 1.0625-4.152343.605469-5.441406-1.066406-1.289062-1.671875-1.132812-4.042968.363282-5.53125l22.160156-22.359375-26.296875 15.25c-1.878907 1.082031-4.273438.558594-5.527344-1.210937-1.25-1.769532-.949219-4.203125.699219-5.613282l18.859375-16.132812-27.160157 15.6875c-1.917968 1.132812-4.386718.570312-5.625-1.28125-1.238281-1.851562-.8125-4.347656.96875-5.683594l16.230469-12.484375-27.101562 15.648438c-1.894531 1.101562-4.316407.558593-5.5625-1.242188-1.246094-1.800781-.894531-4.257812.804687-5.640625l37.945313-31.058594-42.261719 24.351563c-1.890625 1.082031-4.296875.53125-5.535156-1.261719-1.238282-1.792968-.894532-4.234375.785156-5.621094l23.695312-19.355468-19.546874 11.289062c-1.816407 1.058594-4.132813.613282-5.425782-1.039062-1.292968-1.65625-1.164062-4.011719.304688-5.515625l17.449218-18.070313-12.355468 7.140625c-1.769532 1.035157-4.027344.636719-5.339844-.9375-1.3125-1.578125-1.292969-3.871093.042969-5.425781l4.507812-5.277344c-1.46875.492188-3.09375.132813-4.21875-.933594-1.128906-1.066406-1.574219-2.667968-1.160156-4.160156l1.761719-6.398437c-1.230469-.789063-1.960938-2.167969-1.925782-3.632813.035157-1.464844.832032-2.804687 2.101563-3.535156l3.636719-2.097656c1.472656-.851563 3.316406-.726563 4.664062.316406 1.347656 1.039062 1.929688 2.792969 1.476563 4.433594l-.90625 3.273437 11.359375-6.554687c1.769531-1.023438 4.019531-.621094 5.324218.953125 1.308594 1.570312 1.289063 3.855469-.039062 5.410156l-4.347656 5.085937 17.082031-9.878906c1.8125-1.046875 4.121094-.597656 5.40625 1.054688 1.289063 1.648437 1.160156 3.996094-.296875 5.5l-17.441406 18.070312 38.613281-22.300781c1.894531-1.105469 4.324219-.566406 5.570313 1.242187 1.246093 1.808594.886718 4.269532-.820313 5.648438l-23.679687 19.304688 41.910156-24.207032c1.890625-1.078125 4.296875-.53125 5.535156 1.261719s.894531 4.238281-.785156 5.621094l-37.9375 31.058593 37.484375-21.640624c1.910156-1.074219 4.328125-.496094 5.546875 1.328124 1.21875 1.820313.828125 4.277344-.898438 5.632813l-16.222656 12.488281 11.582031-6.714844c1.878907-1.085937 4.273438-.558593 5.527344 1.210938 1.25 1.769531.949219 4.203125-.699219 5.613281l-18.878906 16.148438 14.050781-8.117188c1.824219-1.0625 4.152344-.609375 5.441407 1.066407 1.289062 1.671874 1.132812 4.039062-.363282 5.53125l-22.160156 22.351562 17.082031-9.863281c1.839844-1.046875 4.171875-.5625 5.441407 1.132812 1.269531 1.699219 1.074218 4.074219-.457032 5.539063l-12.035156 11.652344 7.058594-4.078126c1.816406-1.050781 4.128906-.59375 5.414062 1.0625s1.148438 4.011719-.320312 5.507813l-9.523438 9.761719 4.429688-2.519532c1.652344-.945312 3.734375-.660156 5.070312.695313 1.339844 1.355469 1.597656 3.441406.628906 5.082031l-7.644531 12.890625c2.039063-.949219 4.464844-.117187 5.496094 1.882813s.304687 4.457031-1.652344 5.570312l-13.523437 7.816406c-.644532.335938-1.367188.503907-2.097656.484376zm0 0" fill="#eb86be"/><path d="m335.699219 206.738281c-1.664063 0-3.171875-.988281-3.839844-2.515625-.667969-1.523437-.371094-3.300781.761719-4.527344l15.234375-16.484374-37.707031 21.765624c-1.914063 1.082032-4.335938.503907-5.558594-1.324218-1.21875-1.832032-.816406-4.292969.917968-5.640625l10.351563-7.933594-17.015625 9.820313c-1.894531 1.101562-4.316406.5625-5.5625-1.242188-1.246094-1.800781-.894531-4.257812.804688-5.640625l28.703124-23.425781-34.992187 20.203125c-1.941406 1.136719-4.4375.535156-5.652344-1.363281-1.210937-1.898438-.710937-4.417969 1.136719-5.703126l1.773438-1.25-1.519532.878907c-1.851562 1.058593-4.203125.5625-5.464844-1.152344-1.265624-1.71875-1.039062-4.109375.519532-5.5625l26.078125-24.230469-23.5 13.570313c-1.851563 1.09375-4.230469.609375-5.507813-1.121094-1.277344-1.726563-1.039062-4.144531.546875-5.59375l7.460938-6.949219-2.515625 1.445313c-1.4375.828125-3.226563.734375-4.566406-.242188-1.339844-.972656-1.980469-2.644531-1.636719-4.265625l2.667969-12.589844c-1.519532-.566406-2.578126-1.953124-2.71875-3.566406-.144532-1.617187.65625-3.167968 2.054687-3.988281l4.199219-2.433594c1.433594-.835937 3.226562-.742187 4.570312.230469 1.34375.976562 1.988282 2.652344 1.640625 4.277344l-2.242187 10.632812 26.289062-15.175781c1.851563-1.089844 4.226563-.605469 5.503906 1.121094 1.277344 1.730469 1.042969 4.144531-.542968 5.59375l-7.464844 6.949219 23.730469-13.695313c1.851562-1.078125 4.214843-.585937 5.484375 1.136719 1.269531 1.722656 1.042968 4.125-.53125 5.578125l-26.078125 24.246093 49.378906-28.535156c1.941406-1.136718 4.4375-.535156 5.652344 1.363282 1.210937 1.898437.710937 4.414062-1.136719 5.703124l-1.773438 1.242188c1.894532-1.101562 4.316407-.5625 5.5625 1.242188 1.246094 1.800781.894532 4.257812-.804687 5.640624l-28.652344 23.390626 27.78125-16.039063c1.914063-1.105469 4.363281-.535156 5.589844 1.304687 1.226563 1.839844.816406 4.316407-.941406 5.664063l-10.339844 7.921875 5.800781-3.359375c1.796875-1.027344 4.074219-.59375 5.367188 1.023437 1.292968 1.617188 1.210937 3.933594-.1875 5.457032l-15.570313 16.863281c2.027344-.515625 4.125.546875 4.914063 2.484375.792968 1.9375.035156 4.160156-1.777344 5.210938l-22.542969 13.019531c-.648437.378906-1.382812.574219-2.132812.570312zm0 0" fill="#d56fac"/><path d="m319.871094 404.875c-1.492188 0-2.871094-.785156-3.625-2.070312-.753906-1.285157-.769532-2.875-.042969-4.175782l4.449219-7.9375c-1.738282-.3125-3.097656-1.675781-3.398438-3.414062-.304687-1.738282.515625-3.480469 2.046875-4.359375l9.425781-5.429688c1.632813-.949219 3.703126-.6875 5.050782.640625s1.636718 3.390625.714844 5.039063l-3.5 6.246093 20.65625-11.917968c1.992187-1.042969 4.453124-.328125 5.578124 1.617187 1.125 1.949219.515626 4.4375-1.382812 5.640625l-33.875 19.558594c-.636719.371094-1.363281.566406-2.097656.5625zm0 0" fill="#a9b0bb"/><path d="m285.464844 451.96875c-1.828125.003906-3.449219-1.175781-4.003906-2.917969-.558594-1.742187.078124-3.644531 1.570312-4.703125l21.175781-15.039062-38.273437 22.066406c-1.863282 1.058594-4.222656.546875-5.476563-1.191406-1.253906-1.738282-1-4.140625.589844-5.574219l15.816406-14.035156-36.042969 20.800781c-1.800781 1.03125-4.082031.59375-5.371093-1.03125-1.289063-1.625-1.203125-3.945312.210937-5.464844l19.511719-20.867187-47.414063 27.363281c-1.816406.988281-4.082031.503906-5.335937-1.140625-1.257813-1.640625-1.128906-3.953125.300781-5.449219l18.976563-19.035156-44.433594 25.625c-1.863281 1.0625-4.230469.546875-5.484375-1.195312-1.253906-1.742188-.992188-4.148438.609375-5.578126l15.625-13.816406-35.671875 20.589844c-1.832031 1.058594-4.171875.582031-5.445312-1.109375-1.277344-1.691406-1.089844-4.074219.4375-5.546875l18.65625-17.910156-42.664063 24.566406c-1.929687 1.113281-4.394531.527344-5.613281-1.339844-1.21875-1.867187-.765625-4.359375 1.03125-5.675781l3.476562-2.519531-16.570312 9.535156c-1.898438 1.078125-4.304688.519531-5.539063-1.285156-1.230469-1.800782-.871093-4.246094.820313-5.625l36.394531-29.054688-62.304687 35.964844c-1.890626 1.066406-4.289063.511719-5.519532-1.28125-1.230468-1.789062-.886718-4.226562.785156-5.609375l40.652344-32.8125-68.777344 39.703125c-1.9375 1.050781-4.359374.421875-5.542968-1.441406-1.179688-1.859375-.722656-4.316406 1.054687-5.625l14.023438-9.722656-27.175781 15.699218c-1.941407 1.085938-4.394532.476563-5.59375-1.398437-1.199219-1.875-.726563-4.359375 1.074218-5.664063l17.183594-12.117187-22.082031 12.714843c-1.917969 1.105469-4.363281.535157-5.589844-1.304687-1.230469-1.839844-.816406-4.316406.9375-5.660156l25.859375-19.785157-24.085938 13.90625c-1.898437 1.109376-4.328124.566407-5.574218-1.238281-1.246094-1.808593-.886719-4.273437.820312-5.652343l16.050782-13.050782-11.308594 6.523438c-1.867188 1.054687-4.234375.527344-5.480469-1.222656-1.246094-1.746094-.96875-4.15625.640625-5.578126l4.566406-3.945312c-1.742187.839844-3.828125.378906-5.058594-1.109375-1.230468-1.488281-1.285156-3.625-.128906-5.175781l5.363282-7.234375c-1.789063-.21875-3.238282-1.554688-3.605469-3.316407-.363281-1.765624.4375-3.566406 1.992187-4.472656l13.699219-7.917968c1.722656-.988282 3.902344-.632813 5.222656.847656 1.324219 1.484375 1.421875 3.691406.242188 5.289062l-4.113281 5.539063 20.410156-11.75c1.871094-1.054688 4.238281-.527344 5.484375 1.21875 1.246093 1.75.96875 4.15625-.640625 5.582031l-4.488282 3.882812 18.523438-10.683593c1.890625-1.082031 4.296875-.53125 5.535156 1.261719 1.238282 1.792968.898438 4.234374-.785156 5.621093l-16.074219 13.042969 34.574219-19.925781c1.914062-1.105469 4.359375-.535157 5.589844 1.304687 1.226562 1.839844.816406 4.316406-.941406 5.664063l-25.859376 19.765625 46.347657-26.734375c1.941406-1.117188 4.421875-.515625 5.632812 1.371093 1.207031 1.886719.722657 4.390626-1.105469 5.6875l-17.175781 12.078126 33.207031-19.136719c1.9375-1.050781 4.359376-.421875 5.539063 1.441406 1.183594 1.859375.722656 4.316406-1.050781 5.625l-14.066406 9.796875 29.191406-16.863281c1.894531-1.066407 4.289062-.511719 5.519531 1.28125 1.230469 1.789062.890625 4.226562-.785156 5.609375l-40.648438 32.8125 63.933594-36.933594c1.898437-1.078125 4.304687-.519531 5.535156 1.285156 1.230469 1.800782.875 4.246094-.820312 5.625l-36.375 29.039063 34.613281-19.984375c1.929688-1.113282 4.394531-.527344 5.613281 1.339844 1.21875 1.867187.765625 4.359374-1.03125 5.675781l-3.523437 2.585937 5.964844-3.449218c1.839843-1.105469 4.21875-.648438 5.511718 1.0625 1.296875 1.710937 1.089844 4.125-.472656 5.59375l-18.601562 17.980468 42.144531-24.34375c1.863281-1.0625 4.230469-.546875 5.484375 1.195313 1.253906 1.742187.992187 4.148437-.609375 5.578125l-15.628907 13.792968 35.664063-20.566406c1.816406-.988281 4.082031-.503906 5.339844 1.140625 1.253906 1.640625 1.125 3.957031-.304688 5.449219l-18.976562 19.042969 44.453125-25.632813c1.796875-1.03125 4.082031-.589844 5.371094 1.03125 1.289062 1.625 1.199218 3.945313-.210938 5.464844l-19.515625 20.867188 47.417969-27.363282c1.859375-1.058594 4.222656-.546875 5.476562 1.191406 1.253906 1.738282 1 4.140626-.59375 5.574219l-15.804687 14.027344 79.636719-45.972656c1.9375-1.105469 4.402343-.5 5.609374 1.375 1.207032 1.878906.734376 4.371093-1.078124 5.675781l-21.183594 15.042969 38.28125-22.09375c1.910156-1.089844 4.339844-.519531 5.566406 1.304687 1.226562 1.828125.835938 4.289063-.898438 5.644532l-36.710937 28.304687 61.101563-35.253906c1.929687-1.101563 4.382812-.515625 5.597656 1.34375 1.21875 1.855469.777344 4.339843-1.003906 5.664062l-30.570313 22.605469 51.300781-29.613281c1.921875-1.085938 4.355469-.496094 5.566406 1.34375 1.214844 1.84375.796876 4.3125-.957031 5.648437l-32.148437 23.996094 53.179687-30.703125c1.917969-1.089844 4.351563-.511719 5.574219 1.324219 1.21875 1.839844.808594 4.308594-.941406 5.652344l-34.109375 25.851562 42.808593-24.6875c1.871094-1.0625 4.246094-.53125 5.492188 1.226562 1.246094 1.757813.957031 4.175782-.667969 5.589844l-33.523437 28.691406 30.921875-17.847656c1.847656-1 4.148437-.484375 5.390625 1.210938 1.242187 1.695312 1.035156 4.050781-.480469 5.503906l-15.484375 13.992188 10.574219-6.109376c1.777343-1.03125 4.042969-.621093 5.347656.96875 1.304687 1.589844 1.265625 3.890626-.09375 5.433594l-5.992187 6.808594c2.039062-.949219 4.464843-.117188 5.496093 1.882812 1.035157 2 .304688 4.457032-1.652343 5.570313l-21.730469 12.515625c-1.777344 1.019531-4.03125.609375-5.332031-.976562-1.300782-1.582032-1.269532-3.875.078124-5.417969l5.949219-6.765625-22.8125 13.160156c-1.847656 1.003906-4.152343.484375-5.390625-1.210938-1.242187-1.695312-1.035156-4.046874.480469-5.503906l15.503906-14-35.941406 20.714844c-1.875 1.078125-4.265625.554688-5.519531-1.207031-1.25-1.765625-.957032-4.195313.683594-5.609375l33.523437-28.679688-61.515625 35.496094c-1.914062 1.066406-4.328125.480469-5.542969-1.347656-1.210937-1.828125-.8125-4.28125.917969-5.628906l34.09375-25.84375-56.847656 32.820312c-1.921875 1.085938-4.351563.496094-5.566406-1.34375-1.214844-1.84375-.796876-4.3125.957031-5.648438l32.148437-23.996093-53.71875 30.988281c-1.925781 1.078125-4.355468.480469-5.5625-1.363281-1.207031-1.847657-.78125-4.316407.980469-5.644531l30.5625-22.605469-51.261719 29.613281c-1.910156 1.089844-4.335937.519531-5.5625-1.304688-1.226562-1.828124-.835937-4.289062.898438-5.644531l36.710937-28.304687-61.113281 35.253906c-.632812.382812-1.355469.589844-2.097656.59375zm0 0" fill="#a9b0bb"/><path d="m367.914062 152.972656c-1.664062-.003906-3.167968-.988281-3.839843-2.511718-.667969-1.523438-.375-3.296876.75-4.523438l8.722656-9.484375-23.738281 13.6875c-1.875 1.082031-4.265625.558594-5.515625-1.207031-1.253907-1.765625-.957031-4.195313.683593-5.605469l12.488282-10.769531-18.316406 10.574218c-2.003907 1.140626-4.554688.449219-5.707032-1.550781-1.152344-1.996093-.480468-4.550781 1.511719-5.71875l56.90625-32.851562c1.875-1.078125 4.265625-.554688 5.519531 1.210937 1.25 1.765625.957032 4.191406-.683594 5.605469l-12.472656 10.777344 8.878906-5.128907c1.796876-1.03125 4.070313-.597656 5.367188 1.015626 1.292969 1.613281 1.21875 3.929687-.179688 5.457031l-10.421874 11.3125c1.832031.148437 3.355468 1.472656 3.757812 3.265625.402344 1.796875-.410156 3.640625-2.003906 4.558594l-19.609375 11.3125c-.636719.371093-1.359375.570312-2.097657.574218zm0 0" fill="#f199ce"/><path d="m282.921875 177.75c-1.824219-.003906-3.441406-1.1875-3.992187-2.929688-.550782-1.742187.085937-3.636718 1.574218-4.691406l32.199219-22.757812-49.050781 28.320312c-1.957032 1.066406-4.402344.421875-5.578125-1.46875s-.667969-4.367187 1.152343-5.648437l15.6875-10.492188-22.980468 13.269531c-2.003906 1.140626-4.554688.449219-5.707032-1.550781-1.15625-1.996093-.480468-4.550781 1.511719-5.71875l133.964844-77.335937c1.960937-1.113282 4.453125-.480469 5.640625 1.433594 1.191406 1.917968.652344 4.429687-1.214844 5.691406l-15.707031 10.5 17.460937-10.070313c1.9375-1.089843 4.390626-.476562 5.589844 1.398438 1.199219 1.871093.726563 4.355469-1.074218 5.660156l-59.542969 42.078125c.273437.265625.507812.570312.695312.90625 1.160157 2.003906.476563 4.570312-1.527343 5.730469l-47.003907 27.128906c-.636719.367187-1.363281.554687-2.097656.546875zm0 0" fill="#f199ce"/><path d="m203.847656 192.328125c-1.84375-.003906-3.472656-1.210937-4.007812-2.976563-.535156-1.765624.144531-3.675781 1.675781-4.703124l61.269531-40.976563-73.609375 42.46875c-1.957031 1.097656-4.429687.460937-5.613281-1.441406-1.1875-1.902344-.664062-4.402344 1.179688-5.675781l75.257812-50.285157-82.484375 47.625c-1.964844 1.140625-4.476563.507813-5.671875-1.421875-1.195312-1.929687-.636719-4.460937 1.257812-5.710937l73.132813-48.433594-75.660156 43.648437c-1.96875 1.179688-4.519531.554688-5.726563-1.398437-1.207031-1.953125-.617187-4.515625 1.320313-5.746094l67.988281-44.871093-77.949219 45.015624c-1.984375 1.203126-4.5625.570313-5.765625-1.410156-1.203125-1.984375-.574218-4.5625 1.410156-5.765625l29.476563-18.785156-38.398437 22.175781c-1.964844 1.164063-4.503907.546875-5.707032-1.394531-1.207031-1.9375-.640625-4.488281 1.273438-5.734375l81.644531-54.605469-90.296875 52.171875c-1.976562 1.210938-4.5625.589844-5.773438-1.386718-1.207031-1.976563-.585937-4.5625 1.390626-5.773438l56.402343-36.761719-58.753906 33.953125c-1.984375 1.199219-4.5625.5625-5.765625-1.417968-1.199219-1.984376-.566406-4.566407 1.417969-5.769532l13.320312-8.441406-12.503906 7.207031c-1.972656 1.148438-4.496094.511719-5.6875-1.429687s-.617187-4.480469 1.296875-5.71875l42.621094-27.773438-39.886719 23.03125c-1.960937 1.136719-4.476563.507813-5.671875-1.421875-1.195312-1.933593-.636719-4.464843 1.257812-5.714843l34.472657-22.820313-33.84375 19.523437c-1.945313 1.082032-4.402344.453126-5.589844-1.433593s-.691406-4.371094 1.125-5.660157l48.371094-33.171874-44.03125 25.425781c-1.949219 1.132812-4.445313.523437-5.65625-1.378907-1.207031-1.90625-.691407-4.425781 1.167969-5.707031l30.308593-20.980469-13.664062 7.886719c-1.757813 1.019531-3.992188.628907-5.304688-.917969-1.3125-1.550781-1.328125-3.816406-.035156-5.382812l14.765625-17.902344c-2.003906.78125-4.273438-.074218-5.261719-1.984375-.984375-1.914062-.367187-4.261719 1.433594-5.4375l19.699219-11.363281c1.757812-1.007812 3.980468-.613281 5.289062.929688 1.308594 1.546874 1.324219 3.808593.039063 5.371093l-14.710938 17.8125 82.347657-47.539062c1.957031-1.25 4.554687-.671875 5.800781 1.285156 1.25 1.960937.671875 4.558594-1.285157 5.804687l-30.300781 20.984376 48.957031-28.300782c1.953126-1.117187 4.433594-.496094 5.632813 1.402344 1.199219 1.902344.6875 4.410156-1.160156 5.6875l-48.378907 33.171875 58.949219-34.027344c1.273438-.789062 2.871094-.839843 4.195313-.132812 1.320312.710937 2.164062 2.070312 2.210937 3.570312.046875 1.496094-.710937 2.90625-1.984375 3.695313l-34.472656 22.816406 55.851562-32.222656c1.972657-1.214844 4.558594-.597656 5.773438 1.375 1.214844 1.976562.597656 4.5625-1.375 5.773437l-42.648438 27.785157 53.023438-30.613282c1.976562-1.128906 4.492188-.476562 5.671875 1.46875 1.179687 1.949219.589844 4.480469-1.324219 5.710938l-13.1875 8.390625 17.742188-10.296875c1.972656-1.148438 4.496094-.511719 5.6875 1.429687 1.191406 1.945313.617187 4.484375-1.296875 5.71875l-56.511719 36.832031 66.140625-38.179687c1.964844-1.167969 4.5-.550781 5.707031 1.390625 1.207032 1.9375.640625 4.488281-1.277344 5.734375l-81.601562 54.554687 94.847656-54.738281c1.980469-1.203125 4.5625-.574219 5.765625 1.40625 1.203125 1.984375.574219 4.566407-1.410156 5.769531l-29.527344 18.800782 33.203125-19.171875c1.972656-1.21875 4.5625-.609375 5.78125 1.363281s.609375 4.5625-1.363281 5.78125l-67.988281 44.863281 72.175781-41.699219c1.273437-.789062 2.875-.835937 4.195313-.128906 1.320312.710938 2.164062 2.074219 2.207031 3.574219.046875 1.5-.710938 2.90625-1.988281 3.695313l-73.15625 48.449218 74.699218-43.144531c1.960938-1.132813 4.46875-.511719 5.667969 1.410156s.65625 4.449219-1.226563 5.707031l-75.230468 50.296876 73.359375-42.328126c1.957031-1.097656 4.429687-.464843 5.613281 1.441407 1.1875 1.902343.664062 4.402343-1.183594 5.675781l-61.269531 41 65.15625-37.617188c2.007813-1.140624 4.554687-.449218 5.710937 1.546876 1.152344 2 .476563 4.554687-1.511718 5.71875l-175.558594 101.335937c-.632812.371094-1.355469.566406-2.089844.5625zm0 0" fill="#f199ce"/><path d="m168.25 24.675781c-1.898438 0-3.5625-1.273437-4.050781-3.109375-.492188-1.835937.308593-3.769531 1.953125-4.71875l19.566406-11.300781c1.296875-.761719 2.90625-.765625 4.210938-.015625 1.304687.75 2.109374 2.140625 2.105468 3.648438 0 1.503906-.8125 2.894531-2.121094 3.636718l-19.566406 11.332032c-.640625.359374-1.363281.542968-2.097656.527343zm0 0" fill="#f199ce"/><g fill="#262626"><path d="m29.433594 452.089844c.527344.058594 1.074218.074218 1.609375.132812 22.417969 27.992188 33.273437 40.230469 69.773437 40.230469h169.339844c47.75 0 96.332031 2.632813 144.015625 0 30.851563-1.679687 42.058594-18.40625 59.820313-41.0625 27.351562-3.472656 28.828124-20.570313 28.828124-54.304687 0-.109376-.066406-.167969-.074218-.277344.039062-.257813.039062-.523438 0-.78125-3.675782-13.511719-17.082032-19.363282-33.574219-21.527344v-237.335938c0-18.019531 8.570313-61.226562-2.703125-77.585937-14.328125-20.800781-71.703125-10.074219-95.316406-9.234375-5.605469-10.976562-14.730469-19.757812-25.917969-24.9375-5.597656-2.566406-11.582031-2.929688-17.214844-4.890625-1.550781-.589844-3.066406-1.265625-4.539062-2.023437-.210938-.1875-.386719-.394532-.605469-.570313-.835938-.652344-1.847656-1.042969-2.902344-1.125-6.179687-4.046875-12.816406-7.34375-19.769531-9.828125-11.074219-2.171875-22.503906-1.691406-33.355469 1.398438-7.246094-4.902344-15.730468-7.65625-24.472656-7.9375-.078125 0-.21875 0-.304688.039062-.339843-.042969-.679687-.0625-1.023437-.058594-9.714844.304688-19.183594 3.125-27.480469 8.195313-.46875-.148438-.960937-.21875-1.453125-.203125-7.519531-2.875-15.6875-3.613282-23.601562-2.140625-.457031.023437-.910157.078125-1.359375.167969-.566406.082031-1.125.199218-1.679688.351562-10.007812 2.585938-18.847656 8.476562-25.085937 16.71875-2.003907.097656-3.914063.890625-5.398438 2.242188-10.113281 1.351562-19.445312 6.164062-26.414062 13.613281-2.933594 3.34375-5.132813 7.261719-6.453125 11.507812-22.78125-1.535156-59.234375-7.335937-75.878906 5.53125-17.902344 13.867188-8.871094 58.226563-8.871094 77.113281v240.890626c-13.949219 1.5625-25.757813 5.546874-30.953125 14.335937-14.109375 23.828125-4.296875 60.296875 23.015625 63.355469zm398.6875 35.425781c-8.863282 2.671875-22.957032 0-32.082032 0h-274.890624c-37.074219 0-51.394532-6.933594-74.25-34.117187 31.390624 1.527343 64.152343-1.308594 95.074218-1.308594h171.34375 148.847656 1.109376c-9.542969 12.714844-20.296876 30.945312-35.1875 35.425781zm-4.640625-156.652344c-.992188 5.621094 1.46875 9.726563-2.4375 12.714844-3.902344 2.988281-22.332031 0-27.277344 0h-233.539063c-15.476562 0-56.3125 7.722656-70.085937 0s-7.015625-42.058594-7.015625-56.546875v-137.5c0-13.75-3.359375-32.628906 0-46.007812 3.515625-14.117188 6.957031-13.023438 21.546875-12.757813-.167969 2-.144531 4.007813.066406 6.003906.636719 5.640625 3.675781 10.507813 4.699219 15.738281 1.011719 11.160157 5.265625 21.78125 12.238281 30.558594 10.800781 8.828125 25.75 7.921875 34.90625 14.621094 1.890625 1.421875 3.613281 3.046875 5.148438 4.84375.191406.585938.308593 1.148438.535156 1.738281.46875 1.105469 1.433594 1.929688 2.601563 2.214844 4.3125 8.324219 10.785156 15.339844 18.734374 20.3125 12.21875 5.886719 26.273438 6.675781 39.074219 2.191406 5.242188 21.921875 26.539063 14.269531 39.683594 27.695313 10.441406 10.71875 14.5625 27.765625 26.117187 37.570312 5.453126 4.265625 12.480469 5.980469 19.28125 4.707032 6.804688-1.273438 12.734376-5.414063 16.273438-11.363282 6.027344-11.085937 2.964844-28.824218 2.628906-41.554687 28.539063-2.519531 55.269532-23.988281 48.734375-57.292969 10.890625-3.484375 19.554688-11.8125 23.460938-22.558594s2.617187-22.695312-3.496094-32.359375c-.066406-.128906-.226563-.167969-.316406-.277343-.09375-.109376 0-.175782-.058594-.261719-.972656-1.191407-2.011719-2.328125-3.117187-3.398438 10.914062-.839843 23.378906-1.226562 28.40625 3.75 5.875 5.875 3.171874 18.179688 3.171874 26.289063v110.367187c0 31.734375 5.503907 69.234375 0 100.5625zm-166.394531-155.992187c1.511718-.09375 3.015624-.085938 4.5 0 3.761718.058594 7.511718.417968 11.214843 1.074218 0 .089844-.117187.191407-.078125.273438 7.183594 16.9375 23.222656 28.441406 41.566406 29.816406.617188 9.65625.617188 19.339844 0 29-1.320312 10.765625-8.847656 19.714844-18.535156 9.632813-2.566406-3.226563-4.859375-6.664063-6.855468-10.273438-5.050782-8.585937-10.582032-16.878906-16.578126-24.835937-11.363281-13.351563-33.574218-5.5625-37.769531-25.09375 12.472657-5.835938 9.5-8.765625 22.535157-9.59375zm79.292968-29.722656c8.046875 4.871093 17.417969 7.085937 26.792969 6.328124 2.082031 8.019532 1.824219 16.464844-.746094 24.339844-3.882812 11.382813-13.535156 19.832032-25.332031 22.167969-4 1.355469-8.132812 2.269531-12.332031 2.726563-2.21875-1.046876-4.789063-1.046876-7.007813 0-5.921875-.824219-11.550781-3.117188-16.367187-6.664063-6.402344-4.511719-11.519531-10.617187-14.847657-17.707031.90625-.09375 1.8125-.167969 2.738282-.335938 19.175781-3.621094 36.125-14.722656 47.101562-30.855468zm-181.574218-114.453126c.769531.730469 1.777343 1.148438 2.835937 1.183594 4.625.066406 9.183594 1.09375 13.386719 3.011719 4.820312 2.167969 14.070312-4.765625 7.101562-7.898437-2.429687-1.082032-4.960937-1.925782-7.554687-2.515626 3.316406-6.175781 8.894531-10.828124 15.5625-12.976562 6.367187-1.046875 12.902343.011719 18.617187 3.011719 4.777344 2.511719 8.910156 6.097656 12.070313 10.476562 2.074219 2.835938 13.824219-1.125 11.363281-4.5-2.449219-3.332031-5.441406-6.226562-8.855469-8.5625 4.683594-3.5625 10.332031-5.640625 16.210938-5.957031 5.761719.171875 11.410156 1.664062 16.507812 4.355469 2.046875 1.628906 4.285157 3.003906 6.664063 4.085937 1.6875.210938 3.402344.074219 5.035156-.394531 8.65625-2.339844 17.675781-3.015625 26.582031-1.988281 5.910157 1.46875 11.539063 3.890625 16.664063 7.175781 2.070312 1.378906 4.261718 3.953125 6.46875 5.304687 5.199218 4.660157 9.441406 10.285157 12.492187 16.5625 2.121094 4.449219 14.039063.695313 12.160157-3.257812-1.351563-2.773438-2.90625-5.445312-4.648438-7.992188.226562.09375.46875.128907.6875.226563 14.066406 6.457031 24.667969 18.664063 29.082031 33.5 1.199219 4.558594 1.847657 9.246094 1.929688 13.957031-.046875 6.160156-1.164063 12.261719-3.296875 18.039063-2.433594 6.460937 9.734375 6.246093 11.597656 1.300781.785156-2.109375 1.460938-4.257812 2.023438-6.4375.257812.082031.515624.140625.78125.183594 2.71875 2 5.15625 4.359375 7.242187 7.007812 4.539063 5.390625 6.257813 12.609375 4.636719 19.464844 3.511718 22.226562-12.027344 28.589844-46.617188 19.085938-3.101562-3.570313-5.460937-7.71875-6.941406-12.210938-.789062-2.433594-12.867188 1.074219-12.164062 3.265625 1.511718 4.472656 3.875 8.609375 6.96875 12.179687-19.054688 22.683594-38.082032 33.121094-57.078126 31.304688-1.191406-.796875-2.820312-.058594-4.875-.71875-2.886718-.609375-5.710937-1.46875-8.445312-2.570312-.214844-.429688-.574219-.773438-1.015625-.964844-5.835937-2.496094-11.292969-5.789063-16.222656-9.785156-3.550781-2.871094-14.5625 2.332031-9.542969 6.394531 2.632812 2.113281 5.417969 4.03125 8.332031 5.742187-3.277343 4.257813-7.050781 8.113282-11.238281 11.480469-2.976562.007813-5.695312 1.699219-7.023438 4.367187-23.175781 11.363282-42.472656-10.789062-49.699218-29.757812-5.875-25.019531 11.171875-45.867188 38.125-46.757812 1.382812-.042969 2.726562-.484376 3.867187-1.269532 12.0625 1.738282 24.347657 1.109375 36.167969-1.855468 8.117188-3.164063 8.496094-8.746094 8.613281-16.542969.097657-6.300781-.679687-6.949219 5.679688-6.949219h10.914062c3.699219 0 13.167969-5.539062 5.09375-5.539062-12.164062 0-31.9375-3.082032-33.808593 13.226562-.253907 2.140625 1.105468 10.980469 0 11.953125-1.335938 1.132813-8.210938 0-10.074219 0h-20.8125c-1.171875-1.140625-2.808594-1.671875-4.425781-1.433594-28.992188.949219-53.71875 21.300781-52.878907 48.679688l-26.019531-9.609375c-3.398438-3.847656-5.992188-8.339844-7.621094-13.210938h.066406c2.847657 1.269532 6.152344.929688 8.679688-.890625 1.679688-1.214843 3.566406-4.320312.839844-5.691406-5.738282-2.789063-10.5625-7.15625-13.90625-12.589844-.070313-.109375-.203125-.140625-.277344-.242187-3.820312-8.992188-4.460938-19.015625-1.824219-28.421875 2.148438-3.859375 4.84375-7.386719 8-10.472657.847657-.289062 1.65625-.683593 2.410157-1.167968 3.066406-2.070313 6.539062-3.46875 10.1875-4.09375 2.710937-.445313 6.363281-1.804688 6.714843-5.039063.269531-2.894531-3.164062-4.605469-5.679687-4.195312-2.683594.449219-5.328125 1.113281-7.90625 1.980469.109375-2.417969.578125-4.808594 1.382812-7.09375 3.304688-8.996094 11.234375-15.492188 20.707032-16.953126zm-105.277344 47.917969c1.675781-13.429687 2.75-19.152343 17.070312-22.761719 15.695313-3.964843 37.191406-.3125 53.996094-.050781-.351562 1.234375-.699219 2.449219-1.082031 3.75-2.199219 7.402344-8.914063 12.480469-12.53125 20.128907-.394531 1.207031-.742188 2.410156-1.050781 3.609374-19.179688-.394531-32.558594-.972656-35.007813 21.59375-4.566406 42.09375 0 87.21875 0 129.546876v67.148437c0 9.96875-3.460937 27.527344 0 37.113281 6.015625 16.695313 21.285156 12.347656 37.074219 12.347656h275.949218c11.828126 0 39.398438 5.128907 48.839844-5.875 12.785156-14.921874 2.863282-66.511718 2.863282-83.933593 0-50.488281 2.207031-101.511719 0-151.921875-1.46875-33.632813-21.871094-25.953125-52.632813-25.878906-1.855469-.984376-3.785156-1.828126-5.769531-2.515626.144531-1.554687.261718-3.113281.277344-4.703124-.03125-.304688-.109376-.601563-.226563-.886719.011719-5.042969-.621094-10.0625-1.886719-14.941407-.453125-1.394531-.992187-2.738281-1.535156-4.078124 27.832031-1.839844 75.261719-7.890626 83.167969 17.625 7.90625 25.515624 0 66.015624 0 92.53125v207.0625c-23.367188-.835938-49.460938 3.273437-63.015625 3.273437-27.210938 0-62.691406-9.433594-79.738282 13.035156-2.777343 3.667969 1.476563 9.152344-3.0625 12.148438-2.402343 1.585937-8.109374-.722657-10.996093 0-11.828125 2.96875-28.371094 0-40.566407 0h-39.632812c-16.285156 0-16.789062 1.171875-27.765625-9.089844-7.933594-7.414063.410156-11.753906-14.691406-16.09375-19.5625-5.597656-48.882813 0-68.976563 0-11.566406 0-36.425781-3.734375-59.070312-3.210937v-194.730469c0-32.5-4.089844-68.019531 0-100.242188zm-33.523438 327.175781c4.480469-23.003906 12.914063-20.847656 33.65625-20.847656h71.082032c11.140624 0 43-5.992187 52.4375 0 10.824218 6.875 4.121093 19.078125 17.765624 24.917969 9.996094 4.28125 28.851563.261719 39.550782.261719 22.59375 0 45.617187 1.242187 68.179687 0 7.832031-.4375 18.148438 1.601562 24.300781-5.035156 4.195313-4.5 1.300782-17.785157 4.253907-20.144532 2.585937-2.074218 15.285156 0 18.464843 0h81.207032c7.125 0 19.113281-1.578125 30.820312-1.4375 1.683594.628906 3.523438.695313 5.246094.195313 12.933594.839843 24.542969 4.429687 27.617188 15.511719.207031 14.265624 4.789062 37.601562-10.300782 44.734374-5.488281 2.59375-19.304687 0-25.070312 0h-385.476563c-28.070312 0-62.273437 5.75-53.734375-38.15625zm0 0"/><path d="m39.527344 417.027344h8.394531c3.035156.121094 6.035156-.683594 8.605469-2.308594 1.675781-1.242188 1.828125-2.859375-.765625-2.859375h-8.394531c-3.035157-.121094-6.035157.683594-8.601563 2.308594-1.6875 1.242187-1.832031 2.859375.761719 2.859375zm0 0"/><path d="m81.445312 416.820312h8.394532c3.023437.042969 5.996094-.753906 8.59375-2.300781 1.773437-1.183593 1.839844-2.453125-.652344-2.453125h-8.394531c-3.023438-.042968-6 .753906-8.59375 2.300782-1.773438 1.183593-1.839844 2.453124.652343 2.453124zm0 0"/><path d="m125.199219 242.3125h100.722656c5.449219 0 12.589844-8.261719 4.363281-8.261719h-100.71875c-5.449218 0-12.558594 8.261719-4.367187 8.261719zm0 0"/><path d="m389.9375 234.707031h-25.179688c-2.457031 0-6.808593.839844-8.023437 3.355469-1.21875 2.519531 1.007813 3.617188 3.304687 3.617188h25.183594c2.457032 0 6.804688-.839844 8.023438-3.355469 1.214844-2.519531-1.007813-3.617188-3.308594-3.617188zm0 0"/><path d="m124.804688 274.425781h125.902343c3.59375 0 13.203125-5.339843 5.15625-5.339843h-125.902343c-3.59375 0-13.203126 5.339843-5.15625 5.339843zm0 0"/><path d="m345.035156 276.050781h41.964844c6.824219 0 9.433594-8.59375 1.160156-8.59375h-41.96875c-6.824218 0-9.433594 8.59375-1.15625 8.59375zm0 0"/><path d="m196.847656 301.695312c-4.816406 0-12.824218 7.269532-4.632812 7.269532h193.046875c4.820312 0 12.828125-7.269532 4.632812-7.269532zm0 0"/><path d="m163.191406 301.390625h-33.574218c-2.519532 0-6.910157.738281-7.976563 3.527344-.957031 2.515625.839844 4.347656 3.511719 4.347656h33.570312c2.519532 0 6.910156-.746094 7.976563-3.527344.972656-2.515625-.847657-4.347656-3.507813-4.347656zm0 0"/></g></svg>