<svg height="511pt" viewBox="0 -70 511.6456 511" width="511pt" xmlns="http://www.w3.org/2000/svg"><path d="m30.082031 369.570312c-1.914062-.003906-3.59375-1.28125-4.105469-3.125-.515624-1.84375.265626-3.804687 1.902344-4.796874l99.074219-59.808594-109.375 63.148437c-2.023437 1.203125-4.644531.535157-5.847656-1.492187-1.203125-2.023438-.539063-4.644532 1.488281-5.847656l206.003906-126.140626-208.28125 120.253907c-2.03125 1.191406-4.648437.515625-5.839844-1.515625-1.195312-2.03125-.519531-4.648438 1.511719-5.839844l14.875-8.894531-10.546875 6.085937c-2.019531 1.082032-4.53125.375-5.691406-1.597656s-.558594-4.511719 1.363281-5.75l40.203125-24.082031-35.839844 20.710937c-2.03125 1.199219-4.648437.527344-5.847656-1.5-1.199218-2.03125-.527344-4.648437 1.503906-5.847656l166.910157-101.410156-162.601563 93.867187c-2.019531 1.097657-4.542968.402344-5.710937-1.574219-1.167969-1.976562-.566407-4.523437 1.367187-5.765624l159.214844-96.636719-154.871094 89.402343c-2.011718 1.074219-4.515625.375-5.679687-1.585937-1.164063-1.960937-.582031-4.492187 1.328125-5.746094l194.335937-119.046875-189.984375 109.679688c-2.019531 1.097656-4.542968.398437-5.710937-1.574219-1.167969-1.976563-.566407-4.523437 1.367187-5.765625l105.8125-64.101562-101.46875 58.582031c-2.03125 1.199219-4.644531.527343-5.847656-1.503907-1.199219-2.027343-.523438-4.644531 1.503906-5.84375l84.25-51.03125-79.90625 46.125c-2.007812 1.070313-4.503906.378907-5.671875-1.574218s-.597656-4.476563 1.292969-5.738282l173.457031-107.683593-169.078125 97.613281c-2.015625 1.113281-4.554687.425781-5.730468-1.554688-1.179688-1.980468-.574219-4.535156 1.371093-5.777343l113.558594-69.828125-109.199219 63.046875c-2.03125 1.199219-4.644531.523437-5.847656-1.503907-1.199219-2.027343-.523438-4.644531 1.503906-5.84375l9.941406-5.976562-5.597656 3.226562c-2.007812 1.085938-4.511718.402344-5.6875-1.550781-1.175781-1.957031-.609375-4.488281 1.292969-5.753906l131.089844-82.175781-126.695313 73.097656c-2.011718 1.074219-4.515625.378906-5.679687-1.585938-1.164063-1.960937-.582031-4.492187 1.328125-5.746093l29.378906-17.988281-25.027344 14.449218c-2.011718 1.105469-4.539062.425782-5.71875-1.542968-1.179687-1.96875-.589844-4.519532 1.332032-5.769532l82.210937-51.421875-77.824219 44.945313c-2.003906 1.140625-4.550781.480468-5.753906-1.484375-1.199219-1.96875-.621094-4.535157 1.308594-5.796875l114.542968-74.078125-110.097656 63.550781c-1.992187 1.132812-4.527344.488281-5.734375-1.460938-1.210937-1.949218-.664062-4.503906 1.238281-5.785156l110.992188-73.890625-106.496094 61.484375c-2.003906 1.117188-4.535156.453125-5.726562-1.511718-1.195313-1.960938-.621094-4.515626 1.296875-5.777344l42.480469-27.171875-38.050782 21.964843c-2 1.085938-4.5.410157-5.679687-1.535156-1.183594-1.949218-.628907-4.476562 1.257812-5.75l19.140625-12.210937-14.71875 8.53125c-1.96875 1.097656-4.449218.472656-5.667968-1.421875-1.214844-1.898438-.75-4.414063 1.066406-5.746094l73.292968-51.96875-68.691406 39.613281c-1.992187 1.15625-4.542968.519531-5.761718-1.433593-1.21875-1.953126-.664063-4.519532 1.246093-5.800782l25.796875-17.417968-21.28125 12.289062c-1.929687 1.042969-4.335937.457031-5.566406-1.359375s-.882812-4.269531.804688-5.671875l45.78125-35.917969-41.019532 23.671875c-1.921875 1.105469-4.371094.558594-5.636718-1.261718-1.265626-1.816407-.925782-4.304688.78125-5.71875l26.078124-21.648438-21.222656 12.253906c-1.851562 1.015625-4.164062.527344-5.445312-1.152344-1.28125-1.675781-1.144532-4.039062.324218-5.554687l14.507813-14.558594-9.386719 5.410157c-1.761718 1.007812-3.988281.632812-5.328125-.890626-1.335937-1.527343-1.414062-3.785156-.183593-5.398437l5.117187-6.621094c-1.746094-.34375-3.097656-1.730469-3.390625-3.488281s.535156-3.507812 2.078125-4.398438l13.925781-8.046874c1.765625-1.027344 4.007813-.660157 5.355469.875 1.34375 1.535156 1.414063 3.808593.167969 5.421874l-3.414063 4.4375 18.722657-10.800781c1.847656-1.019531 4.164062-.527343 5.445312 1.148438 1.28125 1.679687 1.140625 4.039062-.328125 5.558593l-14.503906 14.546876 36.84375-21.253907c1.921875-1.109375 4.371093-.5625 5.636719 1.257813 1.265624 1.820312.925781 4.304687-.78125 5.722656l-26.078126 21.621094 49.632813-28.601563c1.9375-1.117187 4.40625-.546875 5.660156 1.304688 1.253907 1.851562.867188 4.359375-.890625 5.742187l-45.816406 35.882813 74.394531-42.929688c1.988281-1.132812 4.515625-.496093 5.730469 1.441407 1.210938 1.941406.679688 4.492187-1.207031 5.785156l-25.867188 17.433594 42.769531-24.660157c1.976563-1.140625 4.496094-.527343 5.722657 1.390625 1.230469 1.921875.738281 4.464844-1.121094 5.785156l-73.285156 51.925782 102.398437-59.128906c2.003906-1.121094 4.535156-.453126 5.730469 1.507812 1.191406 1.964844.617187 4.515625-1.300781 5.78125l-19.105469 12.210938 33.773437-19.472657c2.003907-1.121093 4.535157-.457031 5.730469 1.507813 1.191407 1.960937.617188 4.515625-1.300781 5.777344l-42.417969 27.101562 59.621094-34.386719c1.992187-1.136719 4.527344-.492187 5.734375 1.457031 1.210938 1.949219.664062 4.503907-1.238281 5.785157l-111.015625 73.875 140.558594-81.117188c1.300781-.796875 2.925781-.839843 4.265624-.109375 1.339844.726563 2.1875 2.113282 2.226563 3.636719.039063 1.527344-.738281 2.953125-2.035156 3.75l-114.554688 74.050781 140.921875-81.328125c2.015625-1.164062 4.589844-.496093 5.789063 1.496094 1.195312 1.996094.578125 4.582031-1.394531 5.816406l-82.203126 51.414063 101.710938-58.726563c2.023438-1.207031 4.644531-.539062 5.847656 1.488281 1.203125 2.027344.539063 4.644532-1.488281 5.847657l-29.363281 17.980469 43.84375-25.316407c1.308594-.789062 2.933594-.816406 4.269531-.078125 1.332031.734375 2.171875 2.128906 2.199219 3.65625.027344 1.523438-.757813 2.945313-2.066406 3.734375l-131.148438 82.15625 155.058594-89.46875c2.023437-1.128906 4.574218-.4375 5.753906 1.558594 1.175781 1.992187.546875 4.5625-1.417969 5.785156l-10.058593 6.09375 23.277343-13.4375c2.023438-1.207031 4.644531-.546875 5.847657 1.480469 1.207031 2.023438.546874 4.640625-1.480469 5.847656l-113.492188 69.777344 133.5625-77.105469c2.023438-1.210937 4.644531-.554687 5.855469 1.464844 1.210938 2.023437.554688 4.644531-1.46875 5.855469l-173.457031 107.648437 199.1875-114.96875c2.019531-1.128906 4.574219-.4375 5.75 1.558594 1.175781 1.992187.546875 4.5625-1.417969 5.785156l-84.246094 51.039063 101.136719-58.382813c2.027344-1.199219 4.644531-.527343 5.84375 1.5 1.199219 2.027344.527344 4.644531-1.5 5.84375l-105.816406 64.078125 123.734375-71.421875c2.015625-1.117187 4.554687-.429687 5.730468 1.550781 1.179688 1.980469.570313 4.539063-1.371093 5.777344l-194.355469 119.050782 206.847656-119.46875c2.023438-1.152344 4.597656-.472657 5.785156 1.53125 1.1875 2 .550782 4.585937-1.429687 5.808593l-159.199219 96.683594 158.496094-91.511719c2.019531-1.097656 4.542969-.402344 5.710938 1.574219 1.171874 1.976563.566406 4.523437-1.367188 5.761719l-166.851562 101.359375 162.507812-93.824219c2.019531-1.082031 4.53125-.375 5.691406 1.597656 1.164063 1.972656.5625 4.511719-1.363281 5.75l-40.386719 24.191406 36.058594-20.8125c2.03125-1.195312 4.648438-.515624 5.84375 1.515626s.515625 4.644531-1.515625 5.839843l-14.875 8.894531 10.546875-6.09375c2.023438-1.152343 4.597656-.472656 5.785156 1.53125 1.1875 2 .550782 4.585938-1.429687 5.808594l-205.996094 126.136719 201.640625-116.417969c2.03125-1.199218 4.648438-.527344 5.847656 1.5 1.199219 2.03125.527344 4.648438-1.503906 5.847656l-99.234375 59.894532 94.890625-54.777344c2.019531-1.113281 4.554688-.425781 5.734375 1.554688 1.175781 1.980468.570313 4.535156-1.371094 5.777343l-177.707031 109.15625 173.34375-100.078125c2.015625-1.136718 4.570312-.457031 5.757812 1.527344 1.1875 1.988281.574219 4.558594-1.378906 5.792969l-184.480468 114.433593 180.101562-103.988281c2.015625-1.160156 4.59375-.496093 5.789062 1.5 1.199219 1.992188.578126 4.582031-1.390624 5.8125l-182.972657 114.742188 178.574219-103.109375c2.019531-1.21875 4.640625-.570313 5.859375 1.445312 1.21875 2.019532.570313 4.640625-1.445313 5.859375l-172.816406 109.535157 168.402344-97.222657c2.011719-1.089843 4.527344-.398437 5.699219 1.566407 1.171875 1.964843.585937 4.503906-1.328125 5.757812l-79.359375 49.03125 75.015625-43.316406c2.023437-1.207032 4.644531-.542969 5.851562 1.480468 1.203125 2.023438.542969 4.644532-1.480468 5.851563l-55.417969 34.183594 51.019531-29.464844c2.023438-1.210937 4.644531-.554687 5.855469 1.46875 1.210937 2.019531.554687 4.640625-1.46875 5.851563l-71.183594 44.449218 66.796875-38.570312c2.015625-1.160156 4.59375-.496094 5.789062 1.5 1.199219 1.992187.578126 4.578125-1.390624 5.8125l-60.230469 37.761718 55.832031-32.230468c2.007812-1.101563 4.523438-.425782 5.707031 1.53125 1.1875 1.957031.613281 4.5-1.292969 5.765625l-56.550781 35.746093 52.136719-30.089843c2.007812-1.085938 4.515625-.402344 5.691406 1.550781 1.175782 1.957031.605469 4.492188-1.292968 5.753906l-20.019532 12.5625 15.621094-9.019531c1.992188-1.117187 4.503906-.46875 5.710938 1.464844 1.203124 1.9375.675781 4.476562-1.203126 5.769531l-81.542968 54.683594 77.035156-44.476563c2-1.136719 4.539062-.484375 5.742188 1.472657 1.207031 1.957031.644531 4.515624-1.269532 5.789062l-40.480468 26.582031 36.007812-20.789062c1.972656-1.105469 4.46875-.484375 5.6875 1.421875s.738281 4.429687-1.09375 5.753906l-57.746094 40.722656 53.152344-30.71875c1.953125-1.121094 4.4375-.53125 5.679688 1.34375 1.242187 1.875.816406 4.394532-.976563 5.753906l-47.09375 35.414063 42.390625-24.472656c1.929688-1.089844 4.371094-.523438 5.621094 1.300781 1.253906 1.828125.898437 4.308594-.816406 5.710938l-31.425782 25.328124 26.597656-15.359374c1.902344-1.089844 4.320313-.5625 5.59375 1.222656 1.273438 1.785156.988282 4.246094-.660156 5.6875l-15.761718 13.699218 10.828124-6.246093c1.882813-1.113281 4.300782-.617188 5.597657 1.140625 1.296875 1.757812 1.058593 4.210937-.554688 5.683594l-3.761719 3.492187c2.050782-.421875 4.101563.707031 4.84375 2.664063.742188 1.957031-.046874 4.164062-1.859374 5.210937l-30.496094 17.605469c-1.882813 1.109375-4.300782.617187-5.597656-1.140625-1.300782-1.757813-1.0625-4.214844.554687-5.6875l3.019531-2.816407-16.683594 9.644532c-1.902343 1.097656-4.328124.574218-5.605468-1.214844-1.273438-1.785156-.980469-4.25.675781-5.691406l15.769531-13.703125-35.714844 20.609375c-1.925781 1.089844-4.367187.523437-5.621093-1.304688-1.25-1.828125-.894531-4.308594.816406-5.710937l31.386719-25.320313-56.011719 32.335938c-1.953125 1.117187-4.4375.527344-5.679687-1.347656-1.242188-1.875-.8125-4.394532.976562-5.753907l47.085938-35.371093-73.582032 42.472656c-1.964844 1.070312-4.425781.441406-5.636718-1.445313-1.207032-1.886719-.75-4.386719 1.046874-5.722656l57.746094-40.707031-82.960937 47.875c-1.996094 1.113281-4.515625.460937-5.714844-1.484375-1.199219-1.941407-.65625-4.488281 1.234375-5.769531l40.4375-26.566407-58.570312 33.820313c-1.984376 1.070312-4.460938.414062-5.652344-1.496094-1.191406-1.914062-.691406-4.425781 1.144531-5.734375l81.5625-54.699219-107.273437 61.929688c-2.007813 1.125-4.550782.453125-5.738282-1.519532-1.191406-1.972656-.597656-4.535156 1.335938-5.785156l20.113281-12.613281-34.507813 19.917969c-2.011718 1.148437-4.570312.484375-5.769531-1.496094-1.199219-1.976562-.601562-4.550781 1.347657-5.800781l56.449218-35.6875-74.445312 42.984375c-2.011719 1.125-4.550782.453125-5.742188-1.519532-1.1875-1.972656-.597656-4.535156 1.339844-5.785156l60.3125-37.820312-78.15625 45.125c-2.007812 1.085937-4.511719.402344-5.6875-1.554688-1.179688-1.953125-.609375-4.488281 1.292969-5.75l71.21875-44.46875-89.6875 51.773438c-2.015625 1.132812-4.566407.457031-5.753907-1.527344-1.1875-1.988281-.578124-4.558594 1.378907-5.796875l55.363281-34.132813-71.851562 41.457032c-2.015626 1.132812-4.566407.457031-5.753907-1.527344-1.1875-1.988281-.578125-4.558594 1.378907-5.796875l79.417968-48.996094-97.636718 56.320313c-2 1.054687-4.472657.367187-5.644532-1.5625-1.171875-1.933594-.628906-4.445313 1.230469-5.726563l172.835937-109.535156-202.394531 116.824219c-2.011719 1.125-4.550781.453125-5.738281-1.519532-1.191406-1.972656-.597656-4.535156 1.335938-5.785156l182.980468-114.722656-211.398437 122.027344c-2.007813 1.105468-4.535157.425781-5.714844-1.542969-1.183594-1.96875-.59375-4.519531 1.328125-5.773437l184.5-114.414063-210.925781 121.730469c-2.011719 1.089844-4.527344.398437-5.699219-1.566406-1.171875-1.964844-.585938-4.503907 1.328125-5.757813l177.675781-109.140625-201.695312 116.464844c-.644532.386718-1.382813.59375-2.132813.605468zm0 0" fill="#cad0d6"/><path d="m177.769531 318.371094c-1.914062-.003906-3.59375-1.273438-4.109375-3.117188-.515625-1.839844.253906-3.800781 1.890625-4.796875l11.089844-6.746093-24.402344 14.050781c-2.007812 1.105469-4.523437.429687-5.707031-1.527344-1.183594-1.960937-.613281-4.503906 1.292969-5.765625l154.652343-97.367188-181.300781 104.660157c-2.011719 1.09375-4.523437.402343-5.699219-1.5625-1.171874-1.964844-.585937-4.503907 1.328126-5.757813l106.855468-65.605468-126.371094 72.925781c-2.007812 1.09375-4.523437.402343-5.695312-1.5625-1.171875-1.964844-.585938-4.503907 1.328125-5.757813l149.792969-92.398437-172.78125 99.71875c-2.023438 1.128906-4.574219.4375-5.75-1.558594-1.179688-1.992187-.550782-4.5625 1.414062-5.785156l27.972656-16.839844-41.898437 24.183594c-2.011719 1.109375-4.535156.425781-5.71875-1.542969-1.179687-1.964844-.589844-4.515625 1.332031-5.769531l211.890625-131.667969-240.792969 138.980469c-2.007812 1.074219-4.503906.382812-5.671874-1.570313-1.167969-1.953125-.597657-4.476562 1.292968-5.742187l213.871094-132.820313-225.125 129.972656c-2.007812 1.070313-4.503906.378907-5.671875-1.574218s-.597656-4.476563 1.292969-5.738282l199.679687-124.121093-197.109375 113.785156c-2.019531 1.097656-4.542968.402344-5.710937-1.574219-1.167969-1.976562-.566407-4.523437 1.367187-5.765625l88.285156-53.757812-83.941406 48.46875c-2.003906 1.054687-4.484375.363281-5.648437-1.578125-1.167969-1.941406-.613281-4.457032 1.261719-5.726563l160.582031-100.199219-156.195313 90.171876c-2.023437 1.207031-4.644531.542968-5.851562-1.480469-1.203125-2.023438-.542969-4.644531 1.480468-5.847657l95.226563-58.632812-90.863281 52.410156c-2.003906 1.085938-4.5.40625-5.683594-1.539062-1.179688-1.945313-.625-4.472656 1.261719-5.746094l151.894531-96.828125-147.472656 85.128906c-2.003906 1.066407-4.492188.382813-5.664063-1.558593-1.175781-1.945313-.621093-4.464844 1.257813-5.738282l100.847656-63.496094-96.425781 55.679688c-2.003907 1.140625-4.550781.480469-5.75-1.484375-1.203125-1.96875-.625-4.535156 1.304687-5.796875l114.773438-74.121094-110.34375 63.710938c-2.003906 1.121094-4.535156.453125-5.730469-1.507813-1.191406-1.960937-.617187-4.515625 1.300781-5.777343l77.796875-49.863282-73.386719 42.371094c-2.007812 1.175781-4.589843.523438-5.800781-1.464844-1.210937-1.988281-.601562-4.578125 1.363281-5.824218l56.808594-36.453126-52.351562 30.230469c-2 1.136719-4.539063.488281-5.742188-1.46875-1.207031-1.957031-.644531-4.519531 1.269532-5.792969l58.539062-38.355468-54.066406 31.214844c-1.980469 1.15625-4.515625.542968-5.75-1.386719-1.230469-1.929688-.722656-4.488281 1.15625-5.796875l74.429687-52.488282-69.835937 40.300782c-1.96875 1.140625-4.488282.535156-5.726563-1.375-1.234375-1.914063-.75-4.457032 1.101563-5.785156l52.792968-38.066407-48.167968 27.828125c-1.941406 1.125-4.421875.550782-5.675782-1.304687-1.253906-1.859375-.855468-4.375.914063-5.753907l41.878906-32.871093-37.117187 21.4375c-1.953125 1.117187-4.4375.527343-5.679688-1.347657-1.242187-1.875-.816406-4.390624.976563-5.753906l13.304687-10.078125-8.601562 4.96875c-1.9375 1.09375-4.390625.515625-5.636719-1.328125-1.242187-1.84375-.863281-4.332031.875-5.722656l3.589844-2.8125c-1.652344.367188-3.363281-.277344-4.367188-1.640625-1.003906-1.363281-1.101562-3.191406-.257812-4.660156l8.535156-14.710938-.324219.1875c-1.320312.777344-2.957031.78125-4.285156.019531-1.324219-.761718-2.144531-2.175781-2.140625-3.707031s.828125-2.945312 2.160156-3.703125l14.164063-8.171875c1.671875-.964843 3.785156-.683593 5.148437.683594s1.640625 3.480469.671875 5.152344l-8.535156 14.703125 36.234375-20.90625c1.9375-1.117188 4.410156-.546875 5.660156 1.304687 1.253907 1.851563.867188 4.359375-.890625 5.742188l-2.558594 2.007812 15.683594-9.054687c1.949219-1.109375 4.421875-.523438 5.664063 1.347656 1.242187 1.867188.824219 4.375-.953125 5.742188l-13.320313 10.0625 29.753907-17.152344c1.9375-1.09375 4.390624-.519532 5.632812 1.324218 1.246094 1.84375.867188 4.335938-.871094 5.722657l-41.882812 32.84375 69.121094-39.917969c1.96875-1.140625 4.488281-.535156 5.722656 1.375 1.238281 1.914062.753906 4.460938-1.097656 5.785156l-52.761719 38.09375 78.335937-45.226562c1.972656-1.109375 4.464844-.484375 5.683594 1.417968 1.21875 1.90625.738281 4.433594-1.09375 5.757813l-74.453125 52.503906 103.382813-59.679687c2.003906-1.199219 4.597656-.566406 5.824218 1.417968 1.226563 1.988282.625 4.589844-1.34375 5.84375l-58.523437 38.339844 78.996093-45.601562c2.011719-1.230469 4.636719-.59375 5.863282 1.417968 1.230468 2.015626.59375 4.640626-1.417969 5.867188l-56.816406 36.457031 75.757812-43.742187c2.011719-1.179688 4.59375-.527344 5.804688 1.460937 1.210937 1.988281.601562 4.582031-1.367188 5.824219l-77.8125 49.863281 98.984375-57.175781c1.300782-.796875 2.925782-.835938 4.265625-.109375 1.339844.730469 2.1875 2.117187 2.226563 3.640625.039062 1.523438-.738282 2.953125-2.039063 3.75l-114.746093 74.085938 140.945312-81.339844c1.304688-.789063 2.933594-.820313 4.269531-.082032 1.335938.734376 2.175781 2.128907 2.207031 3.65625.027344 1.523438-.757812 2.949219-2.066406 3.738282l-100.914062 63.511718 122.691406-70.824218c2.011719-1.148438 4.570312-.488282 5.765625 1.492187 1.199219 1.980469.605469 4.554688-1.34375 5.804688l-151.902344 96.808593 180.359375-104.105468c2.027344-1.210938 4.644532-.550782 5.855469 1.476562 1.207031 2.023438.546875 4.644532-1.476563 5.851563l-95.113281 58.574219 114.203125-65.902344c1.308594-.785156 2.933594-.8125 4.269532-.074219 1.332031.742187 2.171874 2.136719 2.195312 3.660156.027344 1.527344-.761719 2.949219-2.070312 3.734375l-160.554688 100.140625 186.179688-107.460937c2.027343-1.199219 4.644531-.527344 5.84375 1.5 1.199218 2.03125.527343 4.648437-1.5 5.847656l-88.40625 53.808594 105.933593-61.15625c2.023438-1.210938 4.640625-.554688 5.855469 1.464844 1.210938 2.023437.550781 4.644531-1.46875 5.855468l-199.636719 124.09375 227.625-131.414062c1.308594-.785156 2.933594-.8125 4.265625-.070313 1.332032.742188 2.171875 2.136719 2.195313 3.660157.023437 1.527343-.765625 2.949218-2.074219 3.730468l-213.957031 132.863282 238.824219-137.878907c2.015624-1.136719 4.566406-.460937 5.753906 1.527344 1.1875 1.984375.578125 4.554687-1.378906 5.792969l-211.882813 131.695312 216.320313-124.894531c1.316406-.773437 2.941406-.789063 4.269531-.039063s2.152343 2.152344 2.167969 3.679688c.011718 1.523438-.789063 2.941406-2.101563 3.714844l-27.9375 16.820312 23.703125-13.652344c2.027344-1.207031 4.644531-.546874 5.851562 1.480469 1.207032 2.023438.542969 4.640625-1.480468 5.847657l-149.734375 92.355468 145.363281-83.925781c2.019531-1.113281 4.554688-.425781 5.734375 1.554687 1.175781 1.980469.570313 4.535157-1.371094 5.777344l-106.933593 65.65625 102.570312-59.195312c2.019531-1.21875 4.644531-.566406 5.859375 1.453125s.566406 4.640625-1.453125 5.859375l-154.675781 97.371094 150.28125-86.757813c2.027343-1.199219 4.644531-.527344 5.84375 1.503906 1.199219 2.027344.527343 4.644531-1.5 5.84375l-11.09375 6.757813 6.75-3.898438c2.003906-1.101562 4.523437-.425781 5.707031 1.53125 1.183594 1.957032.609375 4.5-1.296875 5.765625l-118.859375 75.203125 114.449219-66.082031c2.015625-1.136719 4.566406-.457031 5.753906 1.527344s.578125 4.554687-1.378906 5.792969l-54.671875 34.007812 50.296875-29.015625c2.007812-1.125 4.550781-.453125 5.738281 1.519531s.597656 4.535156-1.335938 5.785156l-67.414062 42.503907 63-36.367188c2.011719-1.148437 4.570312-.484375 5.769531 1.492188 1.199219 1.980469.601563 4.554687-1.347656 5.804687l-63.375 40.363282 58.953125-34.042969c2.011719-1.144531 4.570312-.484375 5.769531 1.496093 1.199219 1.976563.601563 4.550782-1.347656 5.800782l-42.878906 27.308594 38.457031-22.1875c2-1.101563 4.511719-.429688 5.699219 1.515624 1.191406 1.949219.632812 4.488282-1.261719 5.761719l-33.925781 21.785157 29.488281-17.066407c2-1.132812 4.539062-.484375 5.742188 1.472657 1.207031 1.957031.644531 4.519531-1.269532 5.789062l-39.570312 25.96875 35.097656-20.257812c2.003906-1.199219 4.597656-.566407 5.824219 1.417968 1.226562 1.988282.628906 4.589844-1.34375 5.84375l-22.714844 14.957032 18.234375-10.519532c1.984375-1.101562 4.480469-.460937 5.6875 1.453125 1.207031 1.917969.703125 4.445313-1.144531 5.757813l-28.757813 19.625 24.214844-13.976563c1.972656-1.125 4.476562-.507812 5.703125 1.398438 1.230469 1.910156.746094 4.441406-1.09375 5.769531l-25.597656 18.261719 21.015625-12.136719c1.96875-1.109375 4.460937-.496094 5.683594 1.402344 1.226562 1.902344.757812 4.425781-1.066407 5.757812l-8.703125 6.238282 4.085938-2.355469c1.898437-1.066407 4.292968-.535157 5.558594 1.234375 1.269531 1.769531 1.003906 4.207031-.617188 5.660156l-19.644531 17.28125 14.6875-8.535156c1.882812-1.109375 4.296875-.617188 5.597656 1.140625 1.296875 1.757812 1.058594 4.214843-.554687 5.6875l-5.121094 4.761719c2.039062-1.160157 4.632812-.453126 5.804687 1.574218 1.171875 2.03125.484375 4.628906-1.539062 5.816406l-32.160157 18.566407c-1.882812 1.109375-4.300781.617187-5.597656-1.140625-1.300781-1.757813-1.058594-4.210938.554688-5.683594l5.117187-4.761719-20.070312 11.585938c-1.894531 1.070312-4.292969.539062-5.558594-1.230469-1.269531-1.769531-1-4.210938.621094-5.664062l19.625-17.183594-41.753907 24.078125c-1.96875 1.113281-4.460937.5-5.683593-1.402344-1.226563-1.898437-.757813-4.421875 1.066406-5.753906l8.695313-6.238281-23.199219 13.394531c-1.96875 1.113281-4.460938.5-5.6875-1.402344-1.222657-1.898437-.753907-4.421875 1.070312-5.753906l25.597657-18.238281-44.015626 25.394531c-1.980468 1.101562-4.476562.464843-5.683593-1.453125-1.207031-1.917969-.703125-4.445313 1.144531-5.753906l28.777344-19.628907-46.566406 26.835938c-1.996094 1.117187-4.515626.464843-5.714844-1.480469-1.199219-1.941406-.65625-4.488281 1.234375-5.769531l22.757812-14.933594-38.511719 22.183594c-1.992187 1.085937-4.480468.421875-5.671874-1.507813-1.1875-1.929687-.660157-4.453125 1.199218-5.742187l39.570313-25.976563-57.601563 33.226563c-2 1.101562-4.507812.433593-5.699218-1.515625-1.1875-1.949219-.628907-4.488282 1.261718-5.761719l33.871094-21.734375-50.269531 29.011719c-2.003907 1.121093-4.535157.457031-5.730469-1.507813-1.191406-1.960937-.617188-4.515625 1.300781-5.777344l42.90625-27.308593-59.988281 34.59375c-2.003906 1.085937-4.503906.410156-5.683594-1.535157-1.179687-1.949218-.625-4.476562 1.261719-5.75l63.386719-40.371093-82.550782 47.65625c-2.007812 1.105469-4.523437.429687-5.707031-1.527344-1.1875-1.960937-.613281-4.503906 1.292969-5.765625l67.414062-42.515625-86.28125 49.808594c-2.007812 1.074219-4.5.382812-5.671874-1.570313-1.167969-1.953125-.597657-4.476562 1.292968-5.742187l54.761719-34.054688-71.679687 41.367188c-2.007813 1.105469-4.523438.429687-5.707032-1.527344-1.1875-1.960937-.613281-4.503906 1.292969-5.765625l118.859375-75.195312-142.878906 82.488281c-.648438.386719-1.382813.597656-2.132813.609375zm0 0" fill="#767d84"/><path d="m227.226562 250.101562c-1.835937 0-3.464843-1.175781-4.046874-2.917968-.582032-1.742188.019531-3.660156 1.488281-4.761719l36.351562-27.816406-54.894531 31.683593c-1.929688 1.074219-4.363281.5-5.605469-1.324218-1.246093-1.824219-.890625-4.296875.816407-5.699219l36.394531-29.011719-39.003907 22.507813c-1.878906 1.007812-4.210937.476562-5.464843-1.242188-1.253907-1.71875-1.050781-4.101562.480469-5.582031l26.402343-23.699219-21.445312 12.382813c-1.910157 1.105468-4.351563.570312-5.625-1.234375-1.273438-1.804688-.957031-4.28125.726562-5.710938l3.714844-3.15625c-1.742187.394531-3.546875-.332031-4.523437-1.828125-.976563-1.492187-.917969-3.4375.144531-4.871094l5.453125-7.367187c-1.824219-.210937-3.308594-1.570313-3.683594-3.367187-.371094-1.800782.445312-3.636719 2.035156-4.558594l13.882813-8.023438c1.753906-1.023437 3.988281-.671875 5.339843.839844 1.351563 1.515625 1.449219 3.773438.234376 5.398438l-4.207032 5.667968 20.785156-12.007812c1.914063-1.105469 4.355469-.570313 5.628907 1.234375 1.269531 1.804687.957031 4.285156-.730469 5.710937l-2.910156 2.476563 16.316406-9.386719c1.878906-1.007812 4.210938-.476562 5.464844 1.242188 1.253906 1.722656 1.050781 4.105468-.480469 5.585937l-26.386719 23.6875 52.910156-30.566406c1.929688-1.101563 4.386719-.535157 5.640626 1.304687 1.25 1.839844.878906 4.332032-.855469 5.726563l-36.394531 29.011719 62.429687-36.027344c1.949219-1.125 4.433594-.542969 5.683594 1.328125 1.25 1.871093.832031 4.386719-.957031 5.753906l-36.351563 27.820313 46.125-26.625c1.941406-1.078126 4.390625-.484376 5.621094 1.367187 1.234375 1.851563.835937 4.339844-.914063 5.714844l-26.640625 20.574219 24.21875-13.984376c1.925781-1.105468 4.378907-.546874 5.636719 1.28125 1.257812 1.832032.90625 4.320313-.816406 5.722657l-14.640625 11.886719 9.828125-5.671876c1.828125-1.046874 4.148437-.605468 5.460937 1.042969 1.3125 1.644531 1.226563 4.003907-.203125 5.550781l-10.949218 11.761719 5.691406-3.285156c2.039062-1.160156 4.632812-.457031 5.804687 1.574219s.484375 4.628906-1.535156 5.8125l-30.3125 17.46875c-1.828125 1.046875-4.144531.605468-5.457031-1.042969-1.3125-1.644531-1.226563-4.003906.199218-5.550781l10.941407-11.753906-31.839844 18.347656c-1.925781 1.113281-4.382813.5625-5.648437-1.269532-1.257813-1.84375-.882813-4.339843.855468-5.734374l14.652344-11.886719-32.71875 18.890625c-1.941406 1.109375-4.410156.53125-5.65625-1.328125-1.246094-1.855469-.847656-4.359375.914062-5.738281l26.65625-20.582032-47.898437 27.648438c-.644531.390625-1.378906.597656-2.132813.605468zm0 0" fill="#fff"/><path d="m373.972656 229.179688c-1.640625 0-3.136718-.945313-3.847656-2.429688-.707031-1.480469-.5-3.238281.53125-4.515625l6.183594-7.679687-6.757813 3.898437c-1.777343 1.015625-4.027343.625-5.359375-.929687-1.332031-1.554688-1.371094-3.835938-.09375-5.4375l3.808594-4.734376c-1.023438-.316406-1.890625-1.011718-2.414062-1.945312-1.175782-2.039062-.480469-4.640625 1.550781-5.820312l13.96875-8.066407c1.78125-1.035156 4.046875-.652343 5.386719.914063 1.34375 1.5625 1.371093 3.863281.074218 5.460937l-1.414062 1.757813 6.773437-3.90625c1.777344-1.019532 4.027344-.628906 5.359375.925781 1.332032 1.554687 1.371094 3.839844.09375 5.4375l-6.195312 7.683594 6.496094-3.746094c1.320312-.84375 2.996093-.890625 4.367187-.125 1.367187.761719 2.207031 2.214844 2.1875 3.78125-.023437 1.566406-.902344 2.996094-2.289063 3.722656l-26.273437 15.164063c-.648437.382812-1.382813.589844-2.136719.589844zm0 0" fill="#f67a8d"/><path d="m452.695312 232.941406c-1.53125 0-2.949218-.820312-3.707031-2.148437-.761719-1.328125-.75-2.964844.027344-4.285157l6.09375-10.324218-14.703125 8.480468c-1.648438.945313-3.71875.6875-5.085938-.628906-1.367187-1.320312-1.695312-3.382812-.808593-5.0625l6.707031-12.644531-1.109375.628906c-2.027344 1.0625-4.527344.335938-5.671875-1.644531s-.527344-4.507812 1.402344-5.734375l13.96875-8.066406c1.648437-.945313 3.722656-.6875 5.085937.632812 1.367188 1.316407 1.699219 3.378907.8125 5.058594l-6.707031 12.65625 15.90625-9.171875c1.675781-.96875 3.792969-.683594 5.15625.691406 1.363281 1.371094 1.632812 3.492188.65625 5.160156l-6.101562 10.335938c2.054687-1.011719 4.539062-.222656 5.632812 1.789062 1.09375 2.011719.402344 4.53125-1.5625 5.703126l-13.859375 8.003906c-.648437.375-1.382813.570312-2.132813.570312zm0 0" fill="#f67a8d"/><path d="m123.554688 216.214844c-1.929688 0-3.621094-1.296875-4.121094-3.160156-.5-1.867188.316406-3.832032 1.988281-4.800782l38.347656-22.132812c1.617188-.917969 3.636719-.683594 5 .574218 1.363281 1.257813 1.757813 3.253907.976563 4.9375l-4.855469 10.308594c1.605469-.070312 3.125.746094 3.957031 2.125.570313.980469.722656 2.144532.429688 3.242188-.292969 1.09375-1.007813 2.027344-1.992188 2.59375l-9.605468 5.539062c-1.617188.914063-3.636719.683594-5-.578125-1.363282-1.257812-1.757813-3.253906-.976563-4.9375l4.523437-9.597656-26.539062 15.359375c-.652344.359375-1.386719.542969-2.132812.527344zm0 0" fill="#656d77"/><path d="m102.863281 258.636719c-1.570312 0-3.015625-.859375-3.761719-2.242188-.742187-1.382812-.667968-3.0625.195313-4.371093l6.5-9.898438-17.40625 10.042969c-1.917969 1.097656-4.351563.554687-5.617187-1.253907-1.265626-1.8125-.945313-4.285156.742187-5.710937l37.921875-31.800781-33.816406 19.523437c-1.960938 1.117188-4.457032.507813-5.6875-1.382812-1.230469-1.894531-.773438-4.417969 1.046875-5.761719l4.351562-3.164062c-1.839843.925781-4.078125.410156-5.324219-1.234376-1.242187-1.640624-1.136718-3.9375.253907-5.457031l18.585937-20.257812-34.132812 19.722656c-1.917969 1.082031-4.34375.53125-5.601563-1.277344-1.257812-1.804687-.933593-4.273437.746094-5.695312l16.085937-13.347657-30.429687 17.546876c-1.910156 1.082031-4.328125.542968-5.59375-1.25-1.265625-1.792969-.964844-4.253907.695313-5.6875l1.511718-1.289063c-1.609375.460937-3.335937-.054687-4.425781-1.324219-1.085937-1.269531-1.332031-3.058594-.628906-4.574218l4.941406-10.632813c-1.992187.171875-3.835937-1.066406-4.433594-2.980469-.597656-1.910156.214844-3.976562 1.949219-4.972656l9.609375-5.546875c1.613281-.90625 3.625-.671875 4.984375.578125 1.359375 1.253906 1.761719 3.238281.988281 4.917969l-4.613281 9.992187 27.183594-15.699218c1.914062-1.109376 4.355468-.574219 5.628906 1.230468 1.273438 1.808594.957031 4.285156-.730469 5.714844l-.972656.851562 33.648437-19.429687c1.917969-1.101563 4.359376-.554687 5.625 1.257813 1.265626 1.816406.9375 4.296874-.761718 5.714843l-16.085938 13.347657 14.628906-8.441407c1.820313-1.046875 4.136719-.609375 5.453126 1.03125 1.316406 1.640625 1.238281 3.996094-.179688 5.546875l-18.59375 20.257813 45.746094-26.453125c1.960937-1.089844 4.433594-.476563 5.652344 1.40625 1.222656 1.882812.777343 4.390625-1.019532 5.738281l-4.328125 3.15625 6.085938-3.515625c1.917969-1.121094 4.378906-.582031 5.652343 1.238281 1.273438 1.824219.933594 4.316407-.78125 5.734375l-43.886718 36.796875c.714844.21875 1.355468.617188 1.871094 1.160157 1.355468 1.433593 1.550781 3.613281.46875 5.265624l-6.503907 9.886719.804688-.449219c2.023437-1.0625 4.527343-.335937 5.671875 1.644532 1.144531 1.980468.523437 4.507812-1.40625 5.734375l-16.394532 9.457031c-.636718.386719-1.367187.59375-2.113281.605469zm0 0" fill="#656d77"/><path d="m85.609375 179.019531c-1.65625 0-3.164063-.957031-3.863281-2.457031-.703125-1.5-.472656-3.269531.585937-4.539062l15.46875-18.585938-10.066406 5.8125c-1.640625.9375-3.699219.6875-5.066406-.613281-1.367188-1.300781-1.714844-3.347657-.859375-5.027344l4.269531-8.390625c-1.886719-.097656-3.488281-1.421875-3.929687-3.257812-.445313-1.839844.375-3.746094 2.007812-4.695313l9.625-5.554687c1.640625-.945313 3.703125-.699219 5.074219.605468 1.371093 1.300782 1.71875 3.351563.859375 5.035156l-3.730469 7.261719 18.234375-10.53125c1.792969-1.03125 4.0625-.628906 5.394531.949219 1.332031 1.582031 1.339844 3.890625.015625 5.476562l-15.46875 18.59375 12.988282-7.507812c1.320312-.773438 2.953124-.78125 4.28125-.019531 1.328124.761719 2.144531 2.179687 2.140624 3.710937-.003906 1.53125-.824218 2.941406-2.15625 3.699219l-33.707031 19.464844c-.640625.367187-1.363281.566406-2.097656.570312zm0 0" fill="#656d77"/><path d="m215.125 147.703125c-1.699219-.003906-3.238281-1.015625-3.910156-2.578125-.671875-1.566406-.351563-3.378906.8125-4.617188l11.753906-12.457031-16.574219 9.566407c-1.59375.925781-3.601562.722656-4.976562-.5-1.378907-1.226563-1.8125-3.195313-1.082031-4.886719l5.445312-12.679688c-2.046875.390625-4.074219-.75-4.800781-2.703125-.722657-1.949218.0625-4.140625 1.863281-5.179687l9.628906-5.558594c1.589844-.917969 3.59375-.71875 4.96875.503906 1.375 1.21875 1.8125 3.183594 1.089844 4.875l-5.292969 12.320313 30.660157-17.671875c1.832031-1.046875 4.15625-.597657 5.46875 1.058593 1.308593 1.65625 1.207031 4.023438-.238282 5.5625l-11.742187 12.460938 33.050781-19.082031c1.902344-1.109375 4.339844-.585938 5.617188 1.207031 1.28125 1.789062.988281 4.261719-.675782 5.703125l-5.675781 4.960937 20.566406-11.871093c1.882813-1.128907 4.316407-.640625 5.621094 1.125 1.304687 1.761719 1.058594 4.230469-.570313 5.703125l-8.882812 8.335937 26.230469-15.164062c1.800781-1.039063 4.085937-.628907 5.417969.96875 1.328124 1.597656 1.308593 3.921875-.039063 5.5l-12.597656 14.738281 15.640625-9.03125c1.621094-.929688 3.664062-.699219 5.03125.574219 1.371094 1.269531 1.753906 3.289062.945312 4.972656l-4.710937 9.804687c1.558593-.003906 3.007812.804688 3.820312 2.132813 1.179688 2.039063.484375 4.648437-1.550781 5.828125l-9.582031 5.53125c-1.621094.933594-3.660157.703125-5.03125-.570312-1.371094-1.273438-1.753907-3.289063-.945313-4.976563l4.320313-8.992187-25.199219 14.503906c-1.796875 1.03125-4.074219.621094-5.398438-.972656-1.324218-1.589844-1.316406-3.90625.023438-5.484376l12.59375-14.738281-36.691406 21.207031c-1.886719 1.125-4.316406.640626-5.621094-1.125-1.308594-1.765624-1.0625-4.230468.566406-5.703124l8.894532-8.347657-26.277344 15.140625c-1.902344 1.109375-4.335938.585938-5.617188-1.207031s-.988281-4.265625.679688-5.707031l5.65625-4.949219-20.546875 11.863281c-.648438.386719-1.382813.59375-2.136719.605469zm0 0" fill="#aab0ba"/><path d="m204.816406 318.617188c-1.640625 0-3.136718-.941407-3.847656-2.421876-.707031-1.480468-.507812-3.234374.523438-4.515624l12.941406-16.042969-15.742188 9.078125c-1.777344 1.019531-4.027344.628906-5.359375-.925782-1.332031-1.554687-1.371093-3.839843-.09375-5.4375l4.539063-5.660156c-1.609375-.507812-2.765625-1.921875-2.949219-3.597656-.1875-1.679688.636719-3.308594 2.097656-4.15625l13.882813-8.023438c1.777344-1.027343 4.035156-.640624 5.371094.917969 1.339843 1.558594 1.375 3.847657.089843 5.449219l-2.140625 2.671875 15.835938-9.148437c1.777344-1.027344 4.035156-.644532 5.375.914062 1.335937 1.558594 1.375 3.847656.085937 5.449219l-12.945312 16.042969 38.835937-22.40625c1.875-1.148438 4.308594-.683594 5.632813 1.066406s1.101562 4.21875-.511719 5.707031l-9.738281 9.242187 27.785156-16.042968c1.828125-1.046875 4.148437-.605469 5.460937 1.042968 1.3125 1.648438 1.226563 4.007813-.203124 5.554688l-12.050782 12.945312 33.863282-19.542968c1.824218-1.035156 4.128906-.589844 5.4375 1.050781 1.308593 1.640625 1.230468 3.988281-.183594 5.539063l-12.023438 12.96875 21.933594-12.671876c1.75-1.027343 3.984375-.675781 5.335938.839844 1.351562 1.515625 1.449218 3.773438.234374 5.398438l-7.613281 10.238281 5.804688-3.351563c1.511719-.867187 3.402343-.726562 4.769531.355469s1.9375 2.886719 1.441406 4.558594l-1.851562 6.179687c1.351562.742188 2.195312 2.152344 2.210937 3.691407.015625 1.542969-.800781 2.96875-2.132812 3.738281l-4.265625 2.449219c-1.515625.871093-3.40625.730469-4.777344-.355469-1.367188-1.082031-1.9375-2.894531-1.4375-4.566406l.980469-3.285156-14.273438 8.242187c-1.75 1.007813-3.96875.652344-5.3125-.855469-1.34375-1.503906-1.449219-3.746094-.253906-5.375l7.613281-10.238281-28.671875 16.554687c-1.824219 1.035157-4.132812.589844-5.441406-1.050781s-1.230469-3.988281.183594-5.535156l12.035156-12.972656-33.980469 19.628906c-1.832031 1.058594-4.160156.617187-5.480468-1.035156-1.316407-1.65625-1.222657-4.027344.222656-5.570313l12.050781-12.9375-33.9375 19.625c-1.875 1.148438-4.308594.683594-5.632813-1.066406-1.324218-1.75-1.101562-4.21875.511719-5.707031l9.703125-9.269531-27.863281 16.085937c-.632813.359375-1.347656.542969-2.074219.539063zm0 0" fill="#aab0ba"/><path d="m251.519531 79.4375c-1.800781.007812-3.417969-1.121094-4.03125-2.820312-.613281-1.695313-.089843-3.59375 1.300781-4.742188l1.800782-1.484375-14.660156 8.472656c-1.824219 1.074219-4.160157.644531-5.484376-1.003906-1.328124-1.648437-1.246093-4.023437.195313-5.574219l12.226563-13.371094-28.515626 16.503907c-1.746093 1.003906-3.953124.648437-5.300781-.847657-1.34375-1.496093-1.464843-3.726562-.28125-5.355468l10.136719-13.980469-11.699219 6.757813c-1.484375.859374-3.339843.742187-4.707031-.296876-1.367188-1.035156-1.980469-2.792968-1.554688-4.453124l2.378907-9.320313c-.820313-.359375-1.5-.976563-1.9375-1.757813-1.179688-2.039062-.484375-4.648437 1.554687-5.828124l4.265625-2.464844c1.488281-.863282 3.347657-.75 4.71875.289062 1.367188 1.039063 1.980469 2.796875 1.554688 4.464844l-1.765625 6.902344 20.289062-11.71875c1.746094-1 3.953125-.648438 5.300782.847656 1.34375 1.496094 1.464843 3.730469.28125 5.359375l-10.15625 13.976563 35.074218-20.242188c1.824219-1.058594 4.148438-.625 5.46875 1.019531 1.320313 1.644531 1.242188 4.007813-.1875 5.558594l-12.226562 13.363281 34.652344-20c1.921874-1.109375 4.371093-.5625 5.636718 1.257813 1.265625 1.820312.925782 4.308593-.78125 5.722656l-1.800781 1.484375 14.738281-8.535156c1.757813-1.007813 3.984375-.640625 5.324219.878906 1.34375 1.523438 1.425781 3.777344.203125 5.394531l-12.902344 17.066407 21.257813-12.261719c1.742187-1.007813 3.949219-.660157 5.300781.832031 1.347656 1.492188 1.472656 3.722656.296875 5.355469l-5.742187 7.96875c1.882812.113281 3.464843 1.453125 3.894531 3.289062.429687 1.835938-.398438 3.734375-2.035157 4.671875l-13.773437 7.953125c-1.742187 1.015625-3.957031.675781-5.308594-.820312-1.355469-1.492188-1.480469-3.730469-.296875-5.367188l4.738282-6.570312-22.308594 12.820312c-1.757813 1.019531-3.992188.65625-5.339844-.867187-1.34375-1.527344-1.429688-3.789063-.199219-5.40625l12.894531-17.023438-40.351562 23.296875c-.648438.382813-1.382812.59375-2.136719.605469zm0 0" fill="#aab0ba"/><g fill="#262626"><path d="m2.332031 211.507812c0 26.117188-4.269531 56.320313 0 82.175782.125.792968.367188 1.449218.527344 2.191406-.363281.570312-.558594 1.230469-.5625 1.902344 0 18.5625-8.703125 57.609375 11.144531 69.539062 8.824219 5.308594 25.394532 2.679688 34.789063 2.679688h412.347656c10.703125 0 27.164063 2.628906 37.15625-3.226563 20.972656-12.269531 12.003906-50.347656 12.003906-69.972656.015625-.855469-.289062-1.683594-.851562-2.328125.460937-3.492188.691406-7.296875.851562-11.53125 1.179688-30.949219 0-62.191406 0-93.15625v-116.925781c0-15.027344 3.839844-35.589844-.042969-50.269531-8.769531-33.195313-76.183593-19.4375-101.1875-19.4375h-229.792968c-48.324219 0-101.476563-6.316407-149.488282 0-40.957031 5.394531-26.894531 62.464843-26.894531 92.484374zm302.472657-138.777343c-14.425782 1.328125-28.941407 1.328125-43.367188 0-11.402344.804687-22.851562.804687-34.253906 0-16.101563-2.390625-16.433594-14.910157-16.210938-27.480469h107.152344c.125 12.648438.835938 24.628906-13.320312 27.480469zm-86.546876 5.375c18.753907 1.203125 37.566407 1.203125 56.320313 0 12.175781 0 27.546875 2.320312 39.449219-1.707031 15.566406-5.230469 16.488281-17.621094 16.488281-31.179688h167.414063c2.652343 28.097656-.664063 58.578125-.664063 86.476562v113.535157c0 13.125 8.25 58.574219-11.042969 65.125h-147.21875c0-15.519531.09375-28.960938-18.210937-32.65625-.199219-.011719-.402344-.011719-.605469 0-.59375-.132813-1.207031-.195313-1.816406-.1875h-91.066406c-26.054688 0-35.679688 8.789062-36.941407 32.835937h-101.308593c-16.460938 0-37.835938 3.679688-53.957032 0-35.992187-8.207031-20.324218-87.832031-20.324218-116.402344v-103.253906c0-13.40625-2.238282-30.132812-2.023438-45.40625h185.882812c-.019531 15.964844.210938 30.242188 19.625 32.820313zm93.160157 204.800781c15.980469 3.589844 15.726562 15.476562 15.359375 27.425781h-126.15625c.324218-5.214843 3.523437-24.585937 11.5-27.425781 7.980468-2.84375 23.304687 0 31.636718 0zm173.019531 78.179688c-10.058594 4.132812-30.992188 0-41.640625 0h-364.273437c-13.480469 0-34.335938 4.039062-47.316407 0-18.507812-5.742188-18.292969-28.160157-17.183593-47.71875 15.238281 10.242187 41.539062 4.96875 61.660156 4.96875h408.464844c.09375 0 .195312-.050782.296874-.050782.996094.074219 1.996094-.027344 2.953126-.292968 3.792968-.960938 7.414062-2.492188 10.746093-4.546876 1.414063 18.613282 2.472657 41.011719-13.707031 47.660157zm-374.152344-349.933594h202.589844c51.199219 0 106.164062-5.777344 157.074219 0 18.703125 2.125 24.386719 7.425781 27.101562 26.164062h-483.898437c.257812-3.589844.800781-7.152344 1.621094-10.660156 7.242187-28.78125 72.4375-15.503906 95.511718-15.503906zm0 0"/><path d="m319.371094 175.164062c-19.5625-1.394531-39.199219-1.394531-58.761719 0-14.863281-.78125-29.757813-.78125-44.621094 0-15.4375 1.644532-24.695312 8.78125-25.882812 24.917969-1.40625 19.054688-4.546875 44.824219 19.269531 48.636719 32.265625 5.179688 69.070312.070312 101.855469 0 1.136719.160156 2.296875.09375 3.410156-.195312 19.816406-4 24.347656-13.824219 24.347656-33.203126.007813-17.875 2.59375-36.847656-19.617187-40.15625zm-2.007813 68.265626h-76.570312c-15.527344 0-33.175781 2.875-38.328125-16.070313-2.5625-9.273437-2.5625-36.957031 4.265625-43.519531 7.039062-6.824219 23.636719-3.371094 33.21875-3.371094h50.550781c15.363281 0 31.351562-2.445312 36.132812 16.546875 2.5 9.925781 2.925782 43-9.269531 46.414063zm0 0"/><path d="m407.28125 211.234375c0-.199219-.101562-.308594-.128906-.488281-.027344-.179688.121094-.289063.109375-.453125-1.476563-27.5625-46.515625-23.199219-46.496094 2.84375.007813 27.828125 45.132813 23.867187 46.515625-1.902344zm-22.1875-12.09375c5.878906 2.167969 9.78125 7.773437 9.769531 14.039063-.46875 5.84375-3.683593 13.167968-10.726562 11.945312-6.507813-1.6875-11-7.625-10.863281-14.34375-.015626-6.511719 4.5-13.851562 11.785156-11.632812zm0 0"/><path d="m475.625 211.507812c-.144531-5.867187-2.644531-11.425781-6.941406-15.425781-4.292969-3.996093-10.019532-6.09375-15.878906-5.816406-12.535157-.03125-22.964844 9.625-23.890626 22.128906-.453124 28.902344 45.226563 26.582031 46.710938-.886719zm-24.664062-11.949218c6.777343.417968 12.074218 6.011718 12.117187 12.800781-.3125 5.855469-3.652344 12.535156-10.539063 11.945313-6.316406-1-10.996093-6.402344-11.089843-12.796876-.535157-5.882812 3.660156-11.140624 9.511719-11.929687zm0 0"/><path d="m157.203125 173.695312c-.390625-.066406-.789063-.089843-1.1875-.070312-.597656-.160156-1.214844-.25-1.835937-.261719h-28.371094c.578125-21.929687 4.957031-43.027343-22.828125-42.667969-27.921875.359376-24.59375 20.394532-23.96875 42.488282-20.609375-.855469-41.8125-3.78125-42.582031 22.1875-.769532 25.964844 22.519531 22.089844 42.597656 21.195312-.605469 21.863282-4.898438 42.863282 22.828125 42.503906 27.851562-.359374 24.609375-20.300781 23.976562-42.324218 12.871094.929687 31.019531 3.046875 38.785157-5.71875 8.832031-9.972656 6.289062-33.621094-7.414063-37.332032zm-7.621094 33.800782c-7.832031 2.722656-21.085937 0-29.535156 0-2.371094 0-6.824219 2.074218-6.824219 4.941406 0 11.996094 5.800782 35.769531-8.191406 37.726562-20.148438 2.804688-13.433594-25.378906-13.433594-38.699218 0-3.199219-3.003906-3.96875-5.691406-3.96875-7.957031.488281-15.9375.488281-23.894531 0-10.539063-1.347656-13.949219-2.304688-13.105469-15.15625 1.101562-16.640625 22.1875-10.070313 35.839844-10.070313 2.371094 0 6.828125-2.070312 6.828125-4.9375 0-12.007812-5.804688-35.773437 8.191406-37.726562 20.144531-2.808594 13.429687 25.378906 13.429687 38.699219 0 3.199218 3.003907 3.964843 5.691407 3.964843h31.761719c10.53125 3.765625 5.886718 22.800781-1.066407 25.226563zm0 0"/><path d="m210.28125 147.214844c12.664062 1.3125 25.429688 1.335937 38.101562.078125 19.113282 0 38.246094.246093 57.359376 0 8.53125-.101563 18.261718.394531 23.355468-8.113281 6.050782-10.089844 2.789063-27.308594-7.550781-32.128907-.230469-.46875-.964844-.75-1.988281-.929687h-.222656c-.398438-.085938-.804688-.136719-1.210938-.15625-31.984375 0-64.078125-.792969-96.0625 0-8.421875.207031-17.542969.050781-22.269531 8.535156-6.222657 11.261719-2.089844 29.910156 10.488281 32.714844zm.722656-28.609375c2.714844-7.621094-1.015625-3.023438 4.121094-5.445313 7.390625-3.480468 25.140625 0 33.28125 0h63.898438c9.15625 2.984375 7.183593 24.191406 2.558593 26.914063-6.023437 3.550781-24.984375 0-31.886719 0h-44.742187c-8.15625 0-19.351563 2.609375-24.746094-3.464844-3.179687-5.4375-4.074219-11.910156-2.484375-18.003906zm0 0"/><path d="m249.941406 208.65625h-17.066406c-3.082031-.179688-6.082031 1.023438-8.183594 3.285156-1.476562 2.40625 1.273438 3.300782 3.269532 3.300782h17.066406c3.082031.183593 6.085937-1.027344 8.183594-3.292969 1.476562-2.398438-1.273438-3.292969-3.269532-3.292969zm0 0"/><path d="m302.660156 209.304688h-17.066406c-3.085938-.132813-6.136719.683593-8.746094 2.339843-1.707031 1.269531-1.851562 2.949219.792969 2.949219h17.066406c3.085938.136719 6.140625-.679688 8.75-2.335938 1.703125-1.273437 1.851563-2.953124-.796875-2.953124zm0 0"/></g></svg>