<svg height="512" viewBox="0 0 61 60" width="512" xmlns="http://www.w3.org/2000/svg"><g id="030---Play" fill="none"><path id="Path" d="m23.022 59.471c-.2239038-.000508-.4201726-.1498079-.4804231-.3654535-.0602505-.2156457.0302082-.445056.2214231-.5615465l.782-.477-2.316 1.333c-.2350866.127347-.5287583.0472199-.6665908-.1818764-.1378325-.2290964-.071048-.5260868.1515908-.6741236l15.686-9.828-18.515 10.684c-.2346058.1253855-.5263122.0451285-.6637604-.18262-.1374483-.2277485-.0725112-.523243.1477604-.67238l19.793-12.44-23.032 13.295c-.2357179.1278172-.530297.0469384-.667702-.1833224-.137405-.2302607-.0687118-.5279174.155702-.6746776l14.164-8.691-16.539 9.549c-.2362845.1306359-.5336041.0500916-.6716393-.181948s-.0669238-.5317553.1606393-.677052l15.4-9.422-17.806 10.281c-.23628449.1306359-.5336041.0500916-.67163931-.181948s-.06692381-.5317553.16063931-.677052l16.085-9.805-17.745 10.247c-.23486629.1223119-.52436539.0402957-.66017777-.1870309-.13581237-.2273266-.07083392-.5211193.14817777-.6699691l26.027-16.1-27.353 15.792c-.23638246.1285498-.53210687.0469768-.6691568-.184581-.13704993-.2315579-.06627089-.5300498.1601568-.675419l16.661-10.108-17.152 9.9c-.23583577.1260453-.52910097.0442222-.66561588-.1857118-.13651492-.2299339-.06795177-.5265795.15561588-.6732882l23.209-14.191-23.451 13.535c-.23649337.126689-.53082268.0441496-.66695642-.1870361s-.06554462-.5286074.15995642-.6739639l10.442-6.281-10.139 5.85c-.23596019.1244074-.52802952.041678-.66369597-.1879935-.13566644-.2296716-.06715011-.5253981.15569597-.6720065l17.307-10.483-16.88 9.743c-.23831087.1400042-.54499582.0603109-.685-.178s-.06031087-.5449958.178-.685l.463-.275c-.24201084.1118524-.52921347.0141431-.65280207-.22209-.12358859-.236233-.04008448-.5278827.18980207-.66291l2.96-1.771-2.453 1.416c-.23698876.1350471-.53848394.055235-.67761558-.1793791-.13913163-.2346142-.06455352-.5374465.16761558-.6806209l22.282-13.585-21.772 12.569c-.23628449.1306359-.5336041.0500916-.67163931-.181948s-.06692381-.5317553.16063931-.677052l27.91-17.187-27.399 15.818c-.23775858.1405564-.54444351.0617586-.68499997-.176-.14055647-.2377586-.0617586-.5444435.17599997-.685l21.347-13-20.838 12.033c-.23701856.1320316-.53608427.0509486-.6739531-.1827228-.13786884-.2336714-.06422739-.5346559.1659531-.6782772l12.428-7.487-11.92 6.878c-.23831087.1400042-.54499579.0603108-.68499997-.178-.14000417-.2383109-.06031088-.5449958.17799997-.685l6.278-3.764-5.771 3.333c-.23831087.1400042-.54499579.0603108-.68499997-.178-.14000417-.2383109-.06031088-.5449958.17799997-.685l.463-.275c-.2418161.1126835-.52950603.0156699-.65370372-.2204392-.12419769-.2361092-.04115065-.5281371.18870372-.6635608l17.1-10.364-16.591 9.581c-.23698876.1350471-.53848394.055235-.67761558-.1793791-.13913163-.2346142-.06455352-.5374465.16761558-.6806209l22.8-13.94-22.29 12.868c-.23486629.1223119-.52436539.0402957-.66017777-.1870309-.13581237-.2273266-.07083392-.5211193.14817777-.6699691l27.032-16.72-26.52 15.313c-.23620749.133071-.53543293.0536509-.67455995-.1790411-.13912701-.2326919-.06746125-.5338687.16155995-.6789589l26.019-16.149-25.506 14.725c-.23638246.1285498-.53210687.0469768-.6691568-.184581-.13704993-.2315579-.06627089-.5300498.1601568-.675419l11.129-6.75-10.62 6.124c-.23638246.1285498-.53210687.0469768-.6691568-.184581-.13704993-.2315579-.06627089-.5300498.1601568-.675419l8.322-5.04-7.813 4.506c-.23701856.1320316-.53608427.0509486-.6739531-.1827228-.13786884-.2336714-.06422739-.5346559.1659531-.6782772l.431-.26c-.23907518.0850501-.50394798-.0224699-.61609927-.2500936-.1121513-.2276237-.03601295-.5031616.17709927-.6409064l20.136-12.687-19.621 11.327c-.23583577.1260453-.52910097.0442222-.66561588-.1857118-.13651492-.2299339-.06795177-.5265795.15561588-.6732882l6.124-3.746-5.614 3.24c-.23508655.127347-.52875831.0472199-.66659082-.1818764-.13783251-.2290964-.071048-.5260868.15159082-.6741236l13.824-8.686-13.309 7.683c-.23541159.1379583-.53795774.061708-.67986369-.1713453-.14190596-.2330532-.07076502-.5368414.15986369-.6826547l15.179-9.756-14.659 8.457c-.23486629.1223119-.52436539.0402957-.66017777-.1870309-.13581237-.2273266-.07083392-.5211193.14817777-.6699691l1.381-.853-.869.5c-.23436107.1288923-.5286543.0505227-.66787555-.1778537-.13922124-.2283764-.07406124-.5258734.14787555-.6751463l9.626-6.177-9.106 5.258c-.23477127.1336383-.53323995.0566316-.67405087-.1739091-.14081092-.2305408-.07304023-.5312411.15305087-.6790909l8.148-5.277-7.627 4.4c-.22984132.1073514-.50364993.0255734-.63697103-.1902433-.13332109-.2158168-.0838996-.4972707.11497103-.6547567l5.889-3.826-5.367 3.1c-.23448097.1270728-.52742279.0477401-.66573664-.1802909-.13831386-.2280309-.07330581-.5244809.14773664-.6737091l.739-.48-.225.129c-.23344605.1352991-.53213452.0609722-.67494472-.1679561-.1428102-.2289282-.07822416-.5298733.14594472-.6800439l4.874-3.276-4.341 2.506c-.22933911.1285228-.51903511.0574922-.66291212-.1625395-.143877-.2200317-.09278581-.5139004.11691212-.6724605l6.039-4.444-5.493 3.171c-.22744501.13171071-.51803557.06484496-.66504038-.15302777-.14700482-.21787273-.10023334-.51236608.10704038-.67397223l4.219-3.3-3.607 2.084c-.22575858.1294404-.51305935.0640705-.66058916-.15030466-.1475298-.21437517-.10595655-.50607128.09558916-.67069534l2.072-1.691-1.076.621c-.22253618.12542207-.50382855.06293257-.65232827-.14491565s-.11644841-.49420996.07432827-.66408435l1.37-1.19c-.05016588-.03894528-.09199391-.08757462-.123-.143-.13755324-.23865551-.05617205-.54361136.182-.682l2.704-1.561c.22331438-.13040868.50922305-.06901362.65931209.14157844.15008903.21059206.1148283.50088467-.08131209.66942156l-.116.1 1.971-1.135c.22531652-.12652975.50992982-.06052016.65654846.15227149s.10693245.50225149-.09154846.66772851l-2.075 1.687 4.349-2.507c.2269587-.12823252.5143539-.06057953.6602778.15542976.145924.21600929.1014061.50788441-.1022778.67057024l-4.218 3.3 7.151-4.126c.2293391-.12852278.5190351-.05749218.6629121.1625395s.0927858.51390037-.1169121.6724605l-6.038 4.441 9.143-5.276c.2329673-.1327691.5291919-.0581284.6714287.16918215.1422368.22731056.0798406.52635392-.1414287.67781785l-4.874 3.277 7.148-4.124c.2348642-.13128134.531504-.05316042.6712412.17677323.1397372.22993366.0724576.52921865-.1522412.67722677l-.734.468 2.291-1.322c.2337734-.12874562.5274505-.05119801.667188.1761759.1397374.22737391.07627.52441224-.144188.6748241l-5.892 3.826 8.107-4.677c.2338963-.12695469.5262491-.04844997.6650871.17859405.1388379.22704402.0755015.5230536-.1440871.67340595l-8.146 5.274 10.615-6.126c.2343611-.12889228.5286543-.05052268.6678755.17785371.1392213.22837639.0740613.52587341-.1478755.67514629l-9.629 6.177 12.181-7.03c.2362075-.13307102.5354329-.05365088.6745599.17904108.1391271.23269196.0674613.53386873-.1615599.67895892l-1.377.849 2.958-1.707c.2343611-.12889228.5286543-.05052268.6678755.17785371.1392213.22837639.0740613.52587341-.1478755.67514629l-15.174 9.756 18.382-10.609c.2355125-.13195996.5332497-.0531389.6726204.17806525.1393708.23120415.0700423.53129378-.1566204.67793475l-13.818 8.68 16.522-9.536c.2362845-.13063592.5336041-.05009164.6716393.18194798s.0669238.53175531-.1606393.67705202l-6.119 3.741 7.972-4.6c.2349709-.1292146.5300387-.05006202.6687925.17940502.1387537.22946704.0717837.52753611-.1517925.67559498l-20.136 12.684 23.456-13.539c.2370186-.13203157.5360843-.0509486.6739531.18272279s.0642274.53465591-.1659531.67827721l-.095.057 1.591-.918c.2369888-.13504713.5384839-.05523499.6776156.17937913.1391316.23461413.0645535.53744647-.1676156.68062087l-8.33 5.05 10.241-5.91c.2369888-.13504713.5384839-.05523499.6776156.17937913.1391316.23461413.0645535.53744647-.1676156.68062087l-11.153 6.765 13.018-7.516c.2356087-.12976469.5316571-.04987998.6700067.18079238.1383496.23067235.0694166.52946068-.1560067.67620762l-26.018 16.149 27.977-16.152c.2348663-.12231188.5243654-.04029567.6601778.1870309.1358123.22732657.0708339.52111934-.1481778.6699691l-27.029 16.716 28.038-16.188c.1536242-.09128136.3442768-.09367127.5001409-.00626949s.2532602.25131686.2555.43c.0022399.17868314-.0910167.34498813-.2446409.43626949l-22.806 13.944 23.115-13.345c.2370186-.13203157.5360843-.0509486.6739531.18272279s.0642274.53465591-.1659531.67827721l-17.1 10.36 16.929-9.773c.2383109-.14000418.5449958-.06031087.685.178s.0603109.54499582-.178.685l-.374.222c.2400653-.12569827.5365693-.0372823.668584.19936835.1320148.23665065.0514858.53539313-.181584.67363165l-6.278 3.765 5.771-3.331c.2370186-.13203157.5360843-.0509486.6739531.18272279s.0642274.53465591-.1659531.67827721l-12.423 7.492 11.915-6.883c.2354667-.12251985.5256326-.0396943.6609447.18866143.135312.22835577.0686058.52264567-.1519447.67033857l-21.329 12.987 20.82-12.019c.2353357-.1240261.5265799-.04207.6626998.1864836.1361199.2285535.0694507.5236725-.1516998.6715164l-27.923 17.198 27.412-15.828c.2369888-.1350471.5384839-.055235.6776156.1793791.1391316.2346142.0645535.5374465-.1676156.6806209l-22.282 13.586 21.772-12.57c.2380347-.1400042.5444958-.0605347.6845.1775s.0605347.5444958-.1775.6845l-2.961 1.771 2.454-1.416c.2376866-.1365411.5409944-.0562537.68.18.139778.2365305.0625231.5415311-.173.683l-.463.272c.2418161-.1126835.529506-.0156699.6537037.2204392.1241977.2361092.0411507.5281371-.1887037.6635608l-17.31 10.489 16.8-9.7c.2370186-.1320316.5360843-.0509486.6739531.1827228s.0642274.5346559-.1659531.6782772l-10.415 6.266 9.908-5.72c.2358358-.1260453.529101-.0442222.6656159.1857118.1365149.2299339.0679517.5265795-.1556159.6732882l-23.215 14.2 22.705-13.106c.2377586-.1405565.5444435-.0617586.685.176.1405564.2377586.0617586.5444435-.176.685l-16.656 10.106 16.147-9.322c.2348663-.1223119.5243654-.0402957.6601778.1870309.1358123.2273266.0708339.5211193-.1481778.6699691l-26.02 16.1 25.508-14.735c.2363825-.1285498.5321069-.0469768.6691568.184581.1370499.2315579.0662709.5300498-.1601568.675419l-16.1 9.814 15.589-9c.2369888-.1350471.5384839-.055235.6776156.1793791.1391316.2346142.0645535.5374465-.1676156.6806209l-15.388 9.418 14.88-8.591c.2353357-.1240261.5265799-.04207.6626998.1864836.1361199.2285535.0694507.5236725-.1516998.6715164l-14.169 8.694 13.658-7.885c.234285-.1222281.52323-.0410463.6595757.1853141.1363457.2263603.0730104.5197344-.1445757.6696859l-19.8 12.446 19.286-11.129c.2350866-.127347.5287583-.0472199.6665908.1818764.1378325.2290964.071048.5260868-.1515908.6741236l-15.678 9.824 15.163-8.754c.2363825-.1285498.5321069-.0469768.6691568.184581.1370499.2315579.0662709.5300498-.1601568.675419l-.787.48.278-.16c.2356087-.1297647.5316571-.04988.6700067.1807924.1383496.2306723.0694166.5294607-.1560067.6762076l-9.05 5.64 8.536-4.928c.2348642-.1312813.531504-.0531604.6712412.1767732.1397372.2299337.0724576.5292187-.1522412.6772268l-12.474 7.984 11.955-6.9c.2357179-.1278172.530297-.0469384.667702.1833224.137405.2302607.0687118.5279174-.155702.6746776l-.412.254c.2202385-.0655398.4570786.0246069.578.22.1408917.2337219.0683489.5372447-.163.682l-3.032 1.9 2.517-1.453c.2341527-.123715.5241564-.0433988.6613045.1831476.1371481.2265465.0738659.5207372-.1443045.6708524l-4.017 2.55 3.5-2.02c.234023-.1252853.5251579-.0458598.6631351.1809119.1379772.2267718.0746978.5218373-.1441351.6720881l-3.76 2.409 3.241-1.87c.2325262-.1307666.5267591-.0559509.6685809.1700024s.0812744.5234503-.1375809.6759976l-7.238 4.918 6.707-3.871c.2302873-.1343427.5254749-.0643663.6709518.1590541.1454768.2234204.0900639.5216852-.1259518.6779459l-7.109 5.187 6.564-3.788c.23158-.1294027.5239091-.0554223.6660571.1685604.142148.2239828.0846277.5199909-.1310571.6744396l-2.441 1.7 1.906-1.1c.2292016-.1303039.5201978-.0602449.6649792.1600976s.0935911.5152436-.1169792.6739024l-2.448 1.814 1.811-1.045c.2198926-.1179958.4931214-.0557887.6402596.1457705s.1231296.4807496-.0562596.6542295l-2.464 2.212 1.133-.654c.23893-.1358451.5427102-.0533708.6801373.1846528.137427.2380237.0569695.5423443-.1801373.6813472l-5.285 3.051c-.2198926.1179958-.4931214.0557887-.6402596-.1457705s-.1231296-.4807496.0562596-.6542295l2.463-2.213-5.222 3.013c-.2292016.1303039-.5201978.0602449-.6649792-.1600976s-.0935911-.5152436.1169792-.6739024l2.446-1.813-4.587 2.647c-.2309506.1251572-.5193699.0502601-.6602447-.1714532-.1408749-.2217132-.0861633-.5146329.1252447-.6705468l2.443-1.7-4.407 2.542c-.2302873.1343427-.5254749.0643663-.6709518-.1590541-.1454768-.2234204-.0900639-.5216852.1259518-.6779459l7.109-5.188-10.433 6.025c-.2318412.125947-.5216461.0500755-.6620287-.1733204-.1403825-.223396-.0830243-.5174256.1310287-.6716796l7.231-4.914-9.982 5.759c-.2343611.1288923-.5286543.0505227-.6678755-.1778537-.1392213-.2283764-.0740613-.5258734.1478755-.6751463l3.749-2.4-5.647 3.253c-.234481.1270728-.5274228.0477401-.6657366-.1802909-.1383139-.2280309-.0733058-.5244809.1477366-.6737091l4.031-2.558-5.913 3.412c-.2350866.127347-.5287583.0472199-.6665908-.1818764-.1378325-.2290964-.071048-.5260868.1515908-.6741236l3.035-1.9-4.771 2.756c-.2362075.133071-.5354329.0536509-.6745599-.1790411-.1391271-.2326919-.0674613-.5338687.1615599-.6789589l.048-.029-1.538.887c-.2343611.1288923-.5286543.0505227-.6678755-.1778537-.1392213-.2283764-.0740613-.5258734.1478755-.6751463l12.468-7.981-15.303 8.834c-.2356087.1297647-.5316571.04988-.6700067-.1807924-.1383496-.2306723-.0694166-.5294607.1560067-.6762076l9.056-5.643-11.261 6.5c-.0756184.0452887-.1618652.0697828-.25.071z" fill="#346d94"/><path id="Path" d="m12.542 53.471c-.223241.000448-.4197315-.1471482-.4814898-.3616772-.0617583-.2145289.0261806-.4440064.2154898-.5623228l17.439-10.907-20.115 11.616c-.23665402.1424895-.54401053.066154-.6865-.1705s-.06615402-.5440105.1705-.6865l20.862-13.061-21.61 12.476c-.23583577.1260453-.52910097.0442222-.66561588-.1857118-.13651492-.2299339-.06795177-.5265795.15561588-.6732882l9.079-5.527-8.625 4.979c-.23638246.1285498-.53210687.0469768-.6691568-.184581-.13704993-.2315579-.06627089-.5300498.1601568-.675419l7.555-4.589-7.046 4.067c-.23520866.125628-.52761522.0445694-.66457305-.1842276-.13695782-.228797-.07026696-.5248112.15157305-.6727724l19.279-11.968-18.766 10.836c-.23560872.1297647-.5316571.04988-.67000668-.1807924-.13834959-.2306723-.06941665-.5294607.15600668-.6762076l20.728-12.916-20.214 11.67c-.23693016.1419372-.54406281.0649302-.68599999-.172s-.06493016-.5440628.17199999-.686l20.658-12.87-20.144 11.63c-.23520866.125628-.52761522.0445694-.66457305-.1842276-.13695782-.228797-.07026696-.5248112.15157305-.6727724l20.133-12.522-19.62 11.324c-.23571786.1278172-.53029699.0469384-.66770199-.1833224-.13740501-.2302607-.06871185-.5279174.15570199-.6746776l16.832-10.388-16.32 9.424c-.2353357.1240261-.52657993.04207-.66269982-.1864836-.13611989-.2285535-.06945065-.5236725.15169982-.6715164l15.983-9.845-15.472 8.933c-.23638246.1285498-.53210687.0469768-.6691568-.184581-.13704993-.2315579-.06627089-.5300498.1601568-.675419l9.53-5.806-9.021 5.208c-.23638246.1285498-.53210687.0469768-.6691568-.184581-.13704993-.2315579-.06627089-.5300498.1601568-.675419l3.635-2.2-3.126 1.8c-.23698876.1350471-.53848394.055235-.67761558-.1793791-.13913163-.2346142-.06455352-.5374465.16761558-.6806209l11.016-6.745-10.506 6.072c-.23775858.1405565-.54444353.0617586-.685-.176s-.06175858-.5444435.176-.685l.441-.266c-.24112581.0937747-.51396484-.011883-.62904347-.2435989-.11507864-.2317159-.03438482-.512951.18604347-.6484011l8.116-4.984-7.6 4.39c-.23402298.1252853-.52515789.0458598-.66313509-.1809119-.13797721-.2267718-.07469786-.5218373.14413509-.6720881l17.234-11.028-16.72 9.657c-.15326694.0918173-.34387535.094893-.5000249.0080685-.15614954-.0868244-.25411739-.2503583-.257-.429s.08975796-.3452512.2430249-.4370685l7.922-4.942-7.408 4.277c-.23389628.1269547-.52624912.04845-.66508708-.1785941-.13883795-.227044-.07550148-.5230536.14408708-.6734059l12.69-8.193-12.169 7.026c-.23551248.13196-.53324972.0531389-.67262044-.1780652-.13937073-.2312042-.07004227-.5312938.15662044-.6779348l4.793-3.014-4.277 2.468c-.2327769.1270897-.52428602.0503218-.66427406-.174934-.13998804-.2252559-.07974688-.5206233.13727406-.673066l10.623-7.082-10.1 5.829c-.23198312.1309881-.52592847.0570795-.6683699-.1680527-.14244144-.2251321-.0833463-.52241.1343699-.6759473l9.458-6.521-8.921 5.149c-.23055066.1302945-.52270695.0582293-.66621925-.1643342-.14351231-.2225634-.08860007-.5184238.12521925-.6746658l7.537-5.388-7 4.039c-.23119233.1280141-.52208151.054013-.66399472-.1689178-.14191321-.2229309-.08584005-.5178012.12799472-.6730822l3.544-2.469-3.004 1.734c-.22590421.1277621-.51200417.0614438-.65865933-.152678-.14665516-.2141217-.10510389-.5048532.09565933-.669322l4.421-3.562-3.858 2.227c-.22072755.1320893-.5056598.0751513-.65867239-.1316224-.15301258-.2067738-.12417106-.4959044.06667239-.6683776l2.65-2.478-2.058 1.189c-.19796929.1129155-.44724526.0776689-.60614815-.0857068-.15890288-.1633757-.18721793-.4135338-.06885185-.6082932l1.035-1.685-.031.017c-.23742522.12420086-.53055313.03916186-.66464661-.19281988-.13409349-.23198173-.06147969-.52843213.16464661-.67218012l1.739-1c.1979693-.1129155.4472453-.07766893.6061481.08570677.1589029.16337571.187218.41353384.0688519.60829323l-1.034 1.681 4.12-2.376c.2207276-.13208931.5056598-.07515133.6586724.13162243s.124171.49590434-.0666724.66837757l-2.649 2.474 5.676-3.274c.2259042-.12776206.5120042-.06144377.6586593.15267798.1466552.21412174.1051039.50485322-.0956593.66932202l-4.421 3.561 7.595-4.383c.2311923-.12801413.5220815-.05401297.6639947.16891785s.0858401.51780111-.1279947.67308215l-3.541 2.466 5.734-3.308c.2312043-.13568612.5282776-.06488787.6734329.16049201.1451554.22537988.0867349.525133-.1324329.67950799l-7.534 5.385 10.784-6.225c.23158-.12940266.5239091-.05542235.6660571.16856044.142148.2239828.0846277.51999085-.1310571.67443956l-9.451 6.517 12.753-7.36c.2330829-.13066131.5277074-.05496574.6689423.17186612.1412349.22683187.0791592.52462377-.1409423.67613388l-10.625 7.081 13.739-7.929c.2346058-.12538552.5263122-.0451285.6637604.18262002.1374483.22774852.0725112.52324301-.1477604.67237998l-4.788 3.012 6.699-3.867c.2338963-.12695469.5262491-.04844997.6650871.17859405.1388379.22704402.0755015.5230536-.1440871.67340595l-12.679 8.183 15.655-9.035c.2356087-.12976469.5316571-.04987998.6700067.18079237.1383496.23067236.0694166.52946069-.1560067.67620763l-7.928 4.943 10.043-5.8c.234023-.12528526.5251579-.04585984.6631351.18091194s.0746978.5218373-.1441351.67208806l-17.235 11.025 20.577-11.878c.2357179-.12781718.530297-.04693838.667702.18332235.137405.23026074.0687118.52791741-.155702.67467765l-8.123 4.988 10.127-5.846c.2359602-.12440737.5280295-.041678.663696.18799355.1356664.22967154.0671501.52539802-.155696.67200645l-.247.149 1.718-.991c.2374824-.14110873.5443912-.06298241.6855.17450002.1411087.23748243.0629824.54439122-.1745.68549998l-11.015 6.74 11.879-6.858c.2377586-.14055647.5444435-.06175858.685.176s.0617586.54444353-.176.685l-3.587 2.17 3.52-2.033c.2369888-.13504713.5384839-.05523499.6776156.17937913.1391316.23461413.0645535.53744647-.1676156.68062087l-9.552 5.818 9.073-5.236c.2353357-.12402605.5265799-.04207.6626998.18648356.1361199.22855354.0694507.52367254-.1516998.67151644l-15.983 9.842 15.472-8.931c.2372063-.1413849.5441151-.0637063.6855.1735s.0637063.5441151-.1735.6855l-16.832 10.387 16.32-9.423c.2352087-.125628.5276152-.0445694.664573.1842276.1369579.228797.070267.5248112-.151573.6727724l-20.133 12.522 19.62-11.325c.2369302-.1419372.5440628-.0649302.686.172s.0649302.5440628-.172.686l-20.658 12.87 20.144-11.63c.2356087-.1297647.5316571-.04988.6700067.1807924.1383496.2306723.0694166.5294607-.1560067.6762076l-20.728 12.916 20.214-11.67c.2362075-.133071.5354329-.0536509.6745599.1790411.1391271.2326919.0674613.5338687-.1615599.6789589l-19.279 11.966 18.766-10.834c.2363825-.1285498.5321069-.0469768.6691568.184581.1370499.2315579.0662709.5300498-.1601568.675419l-7.555 4.589 7.046-4.067c.2354667-.1225198.5256326-.0396943.6609447.1886614.135312.2283558.0686058.5226457-.1519447.6703386l-9.081 5.528 8.572-4.948c.2350866-.127347.5287583-.0472199.6665908.1818764.1378325.2290964.071048.5260868-.1515908.6741236l-20.864 13.06 20.349-11.748c.2350866-.127347.5287583-.0472199.6665908.1818764.1378325.2290964.071048.5260868-.1515908.6741236l-17.435 10.906 16.92-9.769c.2354379-.13455.5352149-.0569022.6757281.1750261.1405133.2319283.0705395.5335888-.1577281.6799739l-17.9 11.382 17.382-10.035c.2369888-.1350471.5384839-.055235.6776156.1793791.1391316.2346142.0645535.5374465-.1676156.6806209l-.816.5.306-.181c.2357179-.1278172.530297-.0469384.667702.1833224.137405.2302607.0687118.5279174-.155702.6746776l-3.5 2.159 2.991-1.727c.2341527-.123715.5241564-.0433988.6613045.1831476.1371481.2265465.0738659.5207372-.1443045.6708524l-10.191 6.47 9.671-5.583c.2355125-.13196.5332497-.0531389.6726204.1780652.1393708.2312042.0700423.5312938-.1566204.6779348l-6.457 4.079 5.941-3.43c.2347713-.1336383.5332399-.0566316.6740509.1739091.1408109.2305408.0730402.5312411-.1530509.6790909l-7.741 4.995 7.224-4.17c.234481-.1270728.5274228-.0477401.6657366.1802909.1383139.2280309.0733058.5244809-.1477366.6737091l-3.042 1.937 2.525-1.457c.2334461-.1352991.5321345-.0609722.6749447.1679561.1428102.2289282.0782242.5298733-.1459447.6800439l-7.166 4.816 6.637-3.831c.2325262-.1307666.5267591-.0559509.6685809.1700024s.0812744.5234503-.1375809.6759976l-5.188 3.528 4.657-2.688c.2285233-.1282497.5172952-.0583047.6618051.1602995.14451.2186041.095725.5116937-.1118051.6717005l-6.053 4.567 5.5-3.177c.2248836-.1275609.509928-.0626394.65739.1497267.1474621.2123662.1087026.5021295-.08939.6682733l-4.166 3.442 3.6-2.076c.2187434-.1297091.5000021-.0745628.6535686.128145s.1305136.4883932-.0535686.663855l-2.324 2.251 1.726-1c.2026343-.1161316.4586712-.0765116.6167274.0954344s.176021.4304067.0432726.6225656l-.846 1.215c.2414373-.0602336.490423.0662405.5841808.2967389s.0037497.494862-.2111808.6202611l-1.793 1.034c-.2026343.1161316-.4586712.0765116-.6167274-.0954344s-.176021-.4304067-.0432726-.6225656l.82-1.179-3.288 1.9c-.2187434.1297091-.5000021.0745628-.6535686-.128145s-.1305136-.4883932.0535686-.663855l2.322-2.249-5.266 3.038c-.2248836.1275609-.509928.0626394-.65739-.1497267-.1474621-.2123662-.1087026-.5021295.08939-.6682733l4.166-3.441-7.38 4.259c-.2287194.1310429-.5198877.0620127-.6654353-.1577616-.1455476-.2197742-.0954752-.5147944.1144353-.6742384l6.053-4.565-9.35 5.4c-.2318412.125947-.5216461.0500755-.6620287-.1733204-.1403825-.223396-.0830243-.5174256.1310287-.6716796l5.193-3.533-7.58 4.375c-.2329673.1327691-.5291919.0581284-.6714287-.1691822-.1422368-.2273105-.0798406-.5263539.1414287-.6778178l7.165-4.816-9.814 5.663c-.2348642.1312813-.531504.0531604-.6712412-.1767732-.1397372-.2299337-.0724576-.5292187.1522412-.6772268l3.032-1.931-4.824 2.785c-.2338963.1269547-.5262491.04845-.6650871-.1785941-.1388379-.227044-.0755015-.5230536.1440871-.6734059l7.741-4.993-10.125 5.845c-.2349709.1292146-.5300387.050062-.6687925-.179405-.1387537-.2294671-.0717837-.5275361.1517925-.675595l6.456-4.078-8.544 4.933c-.2341527.123715-.5241564.0433988-.6613045-.1831476-.1371481-.2265465-.0738659-.5207372.1443045-.6708524l10.183-6.464-12.679 7.318c-.2362075.133071-.5354329.0536509-.6745599-.1790411-.1391271-.2326919-.0674613-.5338687.1615599-.6789589l3.5-2.158-5.222 3.016c-.2358358.1260453-.529101.0442222-.6656159-.1857118-.1365149-.2299339-.0679517-.5265795.1556159-.6732882l.82-.5-2.357 1.359c-.234481.1270728-.5274228.0477401-.6657366-.1802909-.1383139-.2280309-.0733058-.5244809.1477366-.6737091l17.9-11.381-21.195 12.235c-.0756184.0452887-.1618652.0697828-.25.071z" fill="#4d8aab"/><path id="Path" d="m19.232 49.287c-.2209281-.0001611-.4155623-.145297-.4787493-.3569964-.0631869-.2116995.0200533-.4397739.2047493-.5610036l11.894-7.791-12.5 7.216c-.2354379.13455-.5352149.0569022-.6757281-.1750261-.1405133-.2319283-.0705395-.5335888.1577281-.6799739l7.842-4.979-7.4 4.269c-.2338963.1269547-.5262491.04845-.6650871-.1785941-.1388379-.227044-.0755015-.5230536.1440871-.6734059l9.806-6.339-9.281 5.362c-.2264876.1252235-.5111005.0569226-.656093-.157448s-.1024398-.5039544.098093-.667552l5.531-4.35-4.973 2.869c-.2072709.1186494-.4695147.0741485-.6260418-.106235-.156527-.1803835-.1636307-.4462813-.0169582-.634765l.427-.545c-.1895199.0099745-.3689571-.085905-.466-.249-.1382327-.2388784-.0567713-.5445824.182-.683l1.941-1.12c.2072709-.1186494.4695147-.0741485.6260418.106235.156527.1803835.1636307.4462813.0169582.634765l-.343.438 8.79-5.076c.2269587-.1282325.5143539-.0605795.6602778.1554298.145924.2160093.1014061.5078844-.1022778.6705702l-5.533 4.351 20.464-11.815c.2338963-.1269547.5262491-.04845.6650871.1785941.1388379.227044.0755015.5230536-.1440871.6734059l-9.815 6.345 10.713-6.185c.2349709-.1292146.5300387-.050062.6687925.179405.1387537.2294671.0717837.5275361-.1517925.675595l-7.833 4.975 7.316-4.224c.2333291-.1269664.5252099-.0493179.6646076.1768043.1393976.2261221.0776459.5217747-.1406076.6731957l-11.891 7.791 5.391-3.112c.1549945-.0985297.351531-.1041539.5119064-.0146489.1603754.0895049.2587712.2597296.2562855.4433739s-.1054527.3511436-.2681919.436275l-20.761 11.987c-.0758978.0441549-.1621931.067282-.25.067z" fill="#bbc1ce"/><path id="Path" d="m19.906 45.429c-.2223284-.0000763-.4179003-.1469477-.4799566-.36044-.0620563-.2134922.0243114-.4423157.2119566-.56156l6.155-3.907-7.046 4.067c-.2361735.1361818-.537908.0580681-.6783318-.1756081-.1404239-.2336761-.0677709-.5367718.1633318-.6813919l1.889-1.176-1.8 1.037c-.2356087.1297647-.5316571.04988-.6700067-.1807924-.1383496-.2306723-.0694166-.5294607.1560067-.6762076l1.711-1.066-1.241.716c-.2336556.130691-.5287926.0541466-.6694787-.1736308-.140686-.2277774-.0769932-.5259521.1444787-.6763692l11.448-7.565-10.92 6.305c-.2349709.1292146-.5300387.050062-.6687925-.179405-.1387537-.2294671-.0717837-.5275361.1517925-.675595l3.278-2.073-2.761 1.594c-.2347713.1336383-.5332399.0566316-.6740509-.1739091-.1408109-.2305408-.0730402-.5312411.1530509-.6790909l6.038-3.9-5.518 3.185c-.234481.1270728-.5274228.0477401-.6657366-.1802909-.1383139-.2280309-.0733058-.5244809.1477366-.6737091l2.388-1.521-1.87 1.079c-.2338963.1269547-.5262491.04845-.6650871-.1785941-.1388379-.227044-.0755015-.5230536.1440871-.6734059l4.115-2.663-3.594 2.074c-.2342478.1308833-.5300435.0535271-.6702262-.1752769s-.074765-.527467.1482262-.6767231l3.71-2.414-3.188 1.84c-.2335451.1328438-.5303244.0573638-.6720248-.1709163s-.0776546-.5277351.1450248-.6780837l5.2-3.466-4.672 2.7c-.2309306.1317312-.5245674.0597083-.6683337-.1639283-.1437664-.2236366-.0873821-.520673.1283337-.6760717l7.818-5.58-7.278 4.2c-.2340027.1389988-.5362016.0652981-.6799386-.1658244s-.0762078-.5347601.1519386-.6831756l2.463-1.646-1.935 1.117c-.2319831.1309881-.5259285.0570795-.6683699-.1680527-.1424414-.2251321-.0833463-.52241.1343699-.6759473l3.63-2.505-3.1 1.786c-.2318603.1330617-.527371.0602043-.6708066-.1653857-.1434357-.22559-.0840493-.5240996.1348066-.6776143l3.078-2.152-2.542 1.467c-.2306836.128482-.5215078.0554404-.6641078-.1667933s-.0878131-.5170425.1251078-.6732067l2.5-1.773-1.965 1.134c-.2267918.1258849-.5121894.0574365-.6572109-.1576223-.1450215-.2150589-.1015044-.5053056.1002109-.6683777l4.045-3.161-3.481 2.011c-.2233421.1266456-.5063058.0635478-.6546834-.1459871-.1483776-.209535-.1139372-.4973954.0796834-.6660129l3.748-3.208-3.173 1.831c-.2234669.1287231-.5081764.0663691-.6573848-.1439733-.1492085-.2103425-.1139612-.4996608.0813848-.6680267l2.3-1.97-1.72.992c-.2187434.1297091-.5000021.0745628-.6535686-.128145s-.1305136-.4883932.0535686-.663855l1.887-1.825-1.29.745c-.2190652.1318893-.5023394.0772423-.6566242-.1266708s-.1298566-.4913741.0566242-.6663292l.7-.672-.1.057c-.2016303.1151457-.4559976.0763322-.614112-.0937065-.1581145-.1700386-.1783641-.426552-.048888-.6192935l.731-1.072c-.1935478.0150464-.3788535-.0810955-.478-.248-.1373847-.2389169-.0555349-.543953.183-.682l1.632-.943c.2018619-.1159573.4570425-.0772592.6154493.0933328.1584069.1705919.1781225.427936.0475507.6206672l-.67.984 1.743-1.011c.2190652-.1318893.5023394-.0772423.6566242.1266708s.1298566.4913741-.0566242.6663292l-.7.671 1.27-.733c.2187434-.1297091.5000021-.0745628.6535686.128145s.1305136.4883932-.0535686.663855l-1.891 1.829 2.847-1.643c.2230711-.126215.5054574-.0633143.6538691.1456472.1484117.2089616.1147824.4963073-.0778691.6653528l-2.3 1.972 3.208-1.852c.2237424-.1292278.5090949-.0666972.6582921.1442547.1491972.2109518.1130922.5008356-.0832921.6687453l-3.748 3.208 4.993-2.882c.2269587-.1282325.5143539-.0605795.6602778.1554298.145924.2160093.1014061.5078844-.1022778.6705702l-4.044 3.16 5.128-2.96c.2313261-.1333882.5266402-.061466.670727.1633522.1440867.2248181.0860887.5231794-.131727.6776478l-2.5 1.773 3.193-1.844c.2318603-.1330617.527371-.0602043.6708066.1653857.1434357.22559.0840493.5240996-.1348066.6776143l-3.085 2.157 3.82-2.2c.2319831-.1309881.5259285-.0570795.6683699.1680527.1424414.2251321.0833463.52241-.1343699.6759473l-3.626 2.5 4.396-2.537c.2344449-.1460793.5429207-.0744449.689.16s.0744449.5429207-.16.689l-2.46 1.644 3.072-1.775c.2309306-.1317312.5245674-.0597083.6683337.1639283.1437664.2236366.0873821.520673-.1283337.6760717l-7.816 5.579 9.121-5.265c.2327769-.1270897.524286-.0503218.6642741.174934.139988.2252559.0797468.5206233-.1372741.673066l-5.213 3.474 6.031-3.476c.2347034-.1364868.5354374-.0607325.6774741.1706544.1420368.2313868.073465.5338394-.1544741.6813456l-3.7 2.409 4.364-2.519c.2338963-.1269547.5262491-.04845.6650871.1785941.1388379.227044.0755015.5230536-.1440871.6734059l-4.108 2.659 4.785-2.762c.2348642-.1312813.531504-.0531604.6712412.1767732.1397372.2299337.0724576.5292187-.1522412.6772268l-2.386 1.519 2.944-1.7c.2355494-.1441463.5433537-.0700494.6875.1655s.0700494.5433537-.1655.6875l-6.039 3.9 6.819-3.936c.2354379-.13455.5352149-.0569022.6757281.1750261.1405133.2319283.0705395.5335888-.1577281.6799739l-3.285 2.077 3.872-2.244c.2336556-.130691.5287926-.0541466.6694787.1736308.140686.2277774.0769932.5259521-.1444787.6763692l-11.446 7.56 12.665-7.309c.2356087-.1297647.5316571-.04988.6700067.1807924.1383496.2306723.0694166.5294607-.1560067.6762076l-1.719 1.073 1.885-1.087c.2361735-.1361818.537908-.0580681.6783318.1756081.1404239.2336761.0677709.5367718-.1633318.6813919l-1.875 1.167 1.51-.871c.234481-.1270728.5274228-.0477401.6657366.1802909.1383139.2280309.0733058.5244809-.1477366.6737091l-16.725 10.626c.1167917.2368884.0291981.5237574-.2.655l-9.113 5.26c-.0753244.0439006-.1608186.0673426-.248.068z" fill="#f2f4f7"/><g fill="#262626"><path id="Shape" d="m46.653 27.691c-.0623593-.6361191-.3866123-1.2176007-.895-1.605l-16.133-10.094c-2.247-1.406-8.01-6.868-11.1-4.844-1.526 1-1.253 2.579-1.253 4.152v22.861c-.1439049 1.5265024-.1973317 3.0601842-.16 4.593-.206 2.968-.226 6.694 2.88 6.58 2.923-.108 6.7-3.734 8.991-5.165l14.348-8.969c3.352-2.1 3.393-3.27 3.393-7.389.0001979-.050012-.0270693-.0960974-.071-.12zm-25.953-15.915c2.021.182 5.467 3.42 7.173 4.488l16.527 10.342c2.179 1.952-.2 3.187-1.662 4.1l-4.794 3-7.508 4.7c-2.694 1.685-5.48 4.015-8.391 5.25-1.462.62-2.469 1.342-3.321-.976-.0876076-.2868407-.126811-.5862738-.116-.886.051-.7.1-1.333.112-1.822 0-.043 0-.091 0-.13v-22.742c.004-1.766-.797-5.573 1.98-5.324zm20.645 23.767-11.221 7.02-5.606 3.508c-.88.55-2.333 1.942-3.329 2.083-1.882.267-2.5-1.228-2.645-3.085 3.394 1.38 11.2-5.411 13.02-6.55l9.346-5.848c1.5002704-.7793991 2.942348-1.6660346 4.315-2.653-.187 2.844-1.004 3.725-3.88 5.525z"/><path id="Shape" d="m3.2 57.551c.52761215.5877996 1.17564025 1.055062 1.9 1.37 2.233.968 5.188.561 7.551.561h41.086c.012 0 .024-.005.036-.006.0494405.0058169.0992808.0074893.149.005 1.6263204-.0857269 3.1786115-.7069949 4.415-1.767.424-.091.784-.388.629-.688 2.359-2.993 1.764-8.1 1.764-12.245v-29.7c0-4.035.677-9.314-1.734-12.3.088-.233-.113-.4-.4-.463-1.1926913-1.10368133-2.74202-1.7424334-4.366-1.8-7.038-.625-14.411 0-21.472 0-8 0-16.158-.462-24.15 0-1.98013881-.03119887-3.88644308.75098589-5.274 2.164-.2.106-.315.223-.26.308-1.7 2.194-1.804 5.561-1.804 8.992v29.161c0 4.212-1.442 12.356 1.776 16.213-.000168.0928717.06361794.1736396.154.195zm9.663.967c-2.1 0-4.121.219-6.124-.468-.72605884-.2356894-1.40359474-.6005425-2-1.077l4.05-4.05c3.023 1.576 9.463.439 11.807.439h25.809c2.015 0 4.763.462 6.561-.408l4.356 4.356c-.9340048.7164702-2.0609777 1.1371696-3.236 1.208zm40.413-38.435v23.587c.1670024 2.1480923.1670024 4.3059077 0 6.454-.367 2.224-.854 2.284-2.841 2.514-7.32.849-15.255 0-22.626 0h-12.209c-2.016 0-6.118.949-6.871-1.832v-36.7c0-1.427-.472-3.807 0-5.176.759-2.2 2.486-1.568 4.375-1.568h31.85c1.78 0 4.772-.595 6.474 0 3.509 1.226 1.848 9.938 1.848 12.721zm5.994 14.95v13.123c0 2.517.408 5.89-1.018 8.108l-4.181-4.181h-.009c.3449431-.4538908.5723531-.9860027.662-1.549.429-2.38 0-5.241 0-7.648v-26.155c0-2.349.451-5.226 0-7.544-.0945942-.5155637-.3240389-.99688001-.665-1.395l3.958-3.959c.9180898 1.56107479 1.3540358 3.35878675 1.253 5.167.098 8.673 0 17.356 0 26.033zm-48.398-33.551h36.228c2.1494884-.12600066 4.3045116-.12600066 6.454 0 1.3391933.10110158 2.6156746.60834506 3.659 1.454l-4.107 4.107c-2.315-1.2-6.441-.405-8.736-.405h-26.15c-2.222 0-6.689-.823-9.215.436l-3.791-3.791c.80514425-.81464947 1.78872004-1.43088213 2.873-1.8.92543928-.10333356 1.85948675-.10366894 2.785-.001zm-8.142 5.563c.2913734-1.04962154.83204835-2.01329918 1.576-2.809 1.2 1.2 2.4 2.4 3.6 3.6.011.012.034.014.049.022-.32895452.36763221-.56217304.81071305-.679 1.29-.477 1.882 0 4.5 0 6.424v35.62c.12035131.4336914.35604734.8266333.682 1.137l-3.925 3.928c-1.391-1.75-1.3-4.221-1.3-6.738v-36.319c-.003-1.921-.362-4.253-.003-6.155z"/></g></g></svg>