<svg height="511pt" viewBox="0 -3 511.19277 511" width="511pt" xmlns="http://www.w3.org/2000/svg"><path d="m232.871094 170.800781c-1.789063 0-3.386719-1.113281-4.003906-2.792969-.617188-1.679687-.121094-3.566406 1.242187-4.726562l26.171875-22.347656-31.882812 18.398437c-1.9375 1.09375-4.386719.515625-5.632813-1.328125s-.867187-4.332031.871094-5.722656l40.882812-31.972656-36.121093 20.847656c-1.953126 1.128906-4.449219.539062-5.691407-1.34375-1.246093-1.882812-.804687-4.410156 1-5.765625l35.148438-26.28125-31.992188 18.457031c-1.972656 1.09375-4.457031.460938-5.667969-1.441406-1.210937-1.902344-.730468-4.417969 1.09375-5.742188l11.863282-8.269531-10.855469 6.261719c-1.980469 1.101562-4.476563.464844-5.683594-1.453125s-.707031-4.445313 1.144531-5.757813l1.613282-1.101562-1.488282.855469c-1.976562 1.175781-4.53125.574219-5.773437-1.359375-1.242187-1.9375-.726563-4.511719 1.167969-5.816406l21.273437-15.0625-22.640625 13.066406c-1.941406 1.09375-4.398437.503906-5.640625-1.347656-1.238281-1.855469-.839843-4.351563.914063-5.726563l41.589844-31.863281-43.578126 25.144531c-1.957031 1.113281-4.4375.515625-5.675781-1.363281-1.234375-1.882813-.796875-4.398438 1-5.753906l30.71875-22.765626-28.808593 16.605469c-1.921876 1.097657-4.367188.542969-5.625-1.28125-1.261719-1.824219-.914063-4.304687.796874-5.714843l34.753907-28.304688-28.679688 16.546875c-1.835937 1.058594-4.171875.613281-5.484375-1.050781-1.3125-1.667969-1.207031-4.042969.253906-5.582032l20.949219-22.039062c-2.058593.984375-4.527343.171875-5.605469-1.839844-1.074218-2.011718-.375-4.515625 1.585938-5.679687l25.242188-14.574219c1.835937-1.0625 4.171874-.613281 5.484374 1.050781 1.316407 1.664063 1.207032 4.039063-.253906 5.578125l-20.914062 22.015625 49.28125-28.441406c1.921875-1.078125 4.347656-.515625 5.601562 1.300781 1.25 1.816406.910156 4.285156-.78125 5.699219l-34.738281 28.292969 46.929687-27.101563c1.957032-1.109375 4.441407-.511719 5.675782 1.367188 1.234375 1.878906.800781 4.398437-.996094 5.75l-30.722656 22.777343 35.925781-20.746093c1.945313-1.09375 4.402344-.503907 5.640625 1.347656 1.238281 1.855469.839844 4.351563-.914062 5.726563l-41.523438 31.863281 45.449219-26.230469c1.96875-1.097656 4.453125-.472656 5.667969 1.421875 1.21875 1.898437.75 4.414063-1.066407 5.746094l-21.25 15.050781 20.632813-11.945312c1.984375-1.101563 4.480468-.460938 5.6875 1.457031 1.207031 1.917969.703125 4.445312-1.144532 5.753906l-1.972656 1.347656c2.015625-.890625 4.375-.101562 5.453125 1.820313 1.074219 1.921875.507813 4.347656-1.304687 5.597656l-11.898438 8.277344 7.273438-4.191406c1.953125-1.101563 4.425781-.503907 5.660156 1.367187s.808594 4.382813-.976562 5.742187l-35.140626 26.28125 26.523438-15.308593c1.933594-1.074219 4.371094-.488281 5.605469 1.34375 1.238281 1.835937.867187 4.3125-.855469 5.703125l-40.875 31.984375 19.628906-11.339844c1.910156-1.109375 4.351563-.574219 5.625 1.234375 1.273438 1.804688.957032 4.28125-.726562 5.710938l-26.148438 22.339843 16.734375-9.617187c1.78125-1.015625 4.03125-.625 5.359375.933594 1.332032 1.558593 1.367188 3.84375.085938 5.441406l-12.132813 14.960937 6.824219-3.9375c1.496094-.863281 3.371094-.742187 4.742188.3125 1.371093 1.054688 1.96875 2.832031 1.515624 4.503907l-2.160156 7.949218c1.421875.691406 2.347656 2.109375 2.402344 3.6875.058594 1.578125-.761719 3.058594-2.128906 3.847656l-4.269532 2.46875c-1.492187.859376-3.359374.734376-4.722656-.320312-1.367187-1.050781-1.96875-2.820312-1.523437-4.484375l1.46875-5.402344-17.824219 10.265625c-1.78125 1.027344-4.039062.640625-5.375-.921875s-1.367188-3.851562-.078125-5.453125l12.132813-14.976562-37.1875 21.472656c-.648438.394531-1.390626.605469-2.152344.613281zm0 0" fill="#f5b945"/><path d="m90.683594 477.933594c-1.75 0-3.324219-1.066406-3.96875-2.695313-.644532-1.625-.234375-3.480469 1.039062-4.679687l27.511719-25.855469-53 30.59375c-1.902344 1.101563-4.328125.582031-5.609375-1.203125-1.28125-1.789062-.996094-4.257812.660156-5.703125l23.261719-20.410156-18.3125 10.574219c-1.882813 1.125-4.316406.640624-5.621094-1.125-1.304687-1.765626-1.058593-4.230469.570313-5.703126l7.398437-6.964843-2.347656 1.359375c-1.460937.84375-3.285156.75-4.652344-.246094-1.363281-.996094-2.011719-2.703125-1.652343-4.355469l2.679687-12.296875c-1.542969-.578125-2.609375-1.996094-2.746094-3.636718-.136719-1.640626.679688-3.214844 2.105469-4.042969l4.265625-2.464844c1.464844-.847656 3.289063-.75 4.65625.246094 1.367187 1 2.011719 2.710937 1.648437 4.363281l-2.234374 10.238281 25.832031-14.90625c1.882812-1.128906 4.3125-.644531 5.621093 1.121094 1.304688 1.765625 1.058594 4.230469-.570312 5.703125l-7.390625 6.945312 23.894531-13.796874c1.898438-1.105469 4.328125-.582032 5.609375 1.203124 1.28125 1.789063.996094 4.253907-.660156 5.699219l-23.261719 20.40625 47.417969-27.367187c1.882813-1.128906 4.316406-.640625 5.621094 1.121094 1.304687 1.765624 1.058593 4.234374-.570313 5.703124l-27.476562 25.789063 56.550781-32.640625c1.894531-1.09375 4.308594-.578125 5.589844 1.195312 1.285156 1.773438 1.019531 4.226563-.613281 5.683594l-26.164063 23.371094 21.273437-12.277344c1.734376-1.003906 3.933594-.664062 5.285157.8125 1.355469 1.480469 1.492187 3.703125.339843 5.339844l-12.074218 17.066406 6.550781-3.78125c1.523437-.875 3.425781-.730468 4.796875.367188s1.929688 2.921875 1.40625 4.601562l-1.882812 6.046875c1.324218.761719 2.140624 2.171875 2.140624 3.699219s-.816406 2.941406-2.140624 3.699219l-4.269532 2.460937c-1.523437.878906-3.429687.734375-4.800781-.367187-1.375-1.101563-1.929687-2.929688-1.402344-4.609375l.957031-3.046875-13.960937 8.054687c-1.734375 1.003906-3.933594.667969-5.285156-.8125-1.355469-1.480468-1.492188-3.699218-.339844-5.339844l12.074219-17.066406-40.335938 23.289063c-1.894531 1.09375-4.308594.578125-5.589844-1.195313-1.28125-1.773437-1.015624-4.226562.617188-5.683594l26.179688-23.355468-52.5 30.300781c-.640626.378906-1.375.578125-2.121094.574219zm0 0" fill="#a9b0bb"/><path d="m246.996094 238.675781c-1.800782.003907-3.410156-1.125-4.019532-2.816406-.613281-1.695313-.097656-3.589844 1.289063-4.738281l4.496094-3.726563-11.871094 6.824219c-1.933594 1.125-4.40625.566406-5.667969-1.28125-1.261718-1.851562-.878906-4.359375.875-5.75l10.527344-8.386719-13.652344 7.875c-1.878906 1.035157-4.230468.511719-5.5-1.214843-1.265625-1.730469-1.050781-4.132813.5-5.609376l13.847656-12.578124-13.0625 7.542968c-1.792968.957032-4.015624.511719-5.304687-1.058594-1.289063-1.574218-1.292969-3.835937-.003906-5.410156l7.066406-8.132812-2.074219 1.203125c-1.519531.878906-3.425781.738281-4.796875-.359375-1.375-1.09375-1.9375-2.921875-1.414062-4.597656l1.988281-6.402344c-.671875-.371094-1.226562-.921875-1.605469-1.585938-1.179687-2.039062-.480469-4.648437 1.5625-5.828125l4.265625-2.472656c1.523438-.878906 3.425782-.734375 4.796875.363281 1.371094 1.097656 1.929688 2.925782 1.40625 4.601563l-1.074219 3.414062 14.710938-8.484375c1.804688-1.046875 4.105469-.636718 5.433594.972656 1.332031 1.613282 1.296875 3.949219-.074219 5.523438l-7.058594 8.113281 25.507813-14.695312c1.878906-1.019531 4.21875-.492188 5.480468 1.234375 1.261719 1.722656 1.050782 4.113281-.488281 5.59375l-13.839843 12.570312 28.6875-16.5625c1.929687-1.078125 4.359374-.503906 5.605468 1.320313 1.242188 1.828125.890625 4.300781-.816406 5.703125l-10.558594 8.421875 5.777344-3.335938c1.917969-1.085937 4.34375-.53125 5.601562 1.273438 1.257813 1.808593.9375 4.273437-.746093 5.695312l-4.566407 3.808594c1.835938-.820313 3.988282-.25 5.175782 1.367187 1.191406 1.617188 1.09375 3.839844-.234375 5.347657l-7.097657 7.976562c1.542969.578125 2.617188 1.988281 2.761719 3.632813.140625 1.640625-.675781 3.214844-2.097656 4.050781l-16.101563 9.300781c-1.8125 1.035156-4.109374.609375-5.425781-1.011718-1.320312-1.617188-1.273437-3.953126.109375-5.519532l3.875-4.359375-20.019531 11.5625c-.65625.402344-1.40625.617188-2.175781.625zm0 0" fill="#cad0d7"/><path d="m64.144531 503.371094c-1.691406 0-3.226562-.996094-3.910156-2.542969s-.386719-3.351563.75-4.601563l12.1875-13.363281-26.554687 15.359375c-1.71875 1.015625-3.914063.683594-5.257813-.792968-1.351563-1.457032-1.519531-3.652344-.402344-5.296876l12.988281-19.054687c-1.046874-.902344-1.59375-2.257813-1.464843-3.632813.128906-1.378906.917969-2.605468 2.113281-3.296874l7.550781-4.351563c1.722657-.992187 3.902344-.660156 5.253907.796875 1.351562 1.453125 1.519531 3.648438.40625 5.292969l-9.277344 13.578125 34.175781-19.730469c1.820313-1.046875 4.132813-.613281 5.449219 1.023437 1.320312 1.632813 1.253906 3.984376-.15625 5.539063l-12.179688 13.363281 34.554688-19.949218c1.800781-1.050782 4.101562-.640626 5.429687.964843 1.332031 1.609375 1.304688 3.945313-.0625 5.519531l-12.597656 14.582032 36.523437-21.09375c1.859376-1.070313 4.230469-.59375 5.53125 1.117187 1.296876 1.710938 1.121094 4.121094-.410156 5.625l-10.34375 10.128907 29.261719-16.886719c1.796875-1.03125 4.070313-.621094 5.398437.96875 1.324219 1.585937 1.320313 3.898437-.015624 5.480469l-12.6875 15.003906 18.628906-10.753906c1.71875-.988282 3.898437-.664063 5.25.789062 1.355468 1.453125 1.527344 3.648438.414062 5.296875l-5.203125 7.679687 6.773438-3.910156c1.324219-.839844 3-.886718 4.371093-.125 1.367188.765625 2.207032 2.21875 2.183594 3.785156-.019531 1.566407-.898437 2.996094-2.285156 3.722657l-22.878906 13.140625c-1.722656.992187-3.898438.664062-5.253906-.789063-1.351563-1.453125-1.523438-3.648437-.414063-5.292969l5.214844-7.679687-23.894531 13.769531c-1.792969 1.019532-4.0625.609375-5.382813-.976562-1.320313-1.585938-1.316406-3.890625.007813-5.472656l12.714843-14.890626-37.085937 21.332032c-1.859375 1.074218-4.230469.597656-5.53125-1.113282-1.296875-1.710937-1.121094-4.121093.410156-5.628906l10.328125-10.128906-29.21875 16.871094c-1.800781 1.039062-4.089844.628906-5.417969-.972656-1.328125-1.601563-1.304687-3.925782.050782-5.503907l12.59375-14.582031-36.496094 21.101562c-.648438.382813-1.382813.582032-2.132813.582032zm0 0" fill="#cad0d7"/><path d="m144.996094 435.085938c-1.789063.003906-3.394532-1.109376-4.011719-2.789063-.621094-1.679687-.125-3.570313 1.238281-4.726563l14.046875-11.949218-32.726562 18.859375c-1.851563 1.03125-4.179688.542969-5.464844-1.140625-1.285156-1.6875-1.136719-4.0625.34375-5.574219l19.355469-19.269531-45.023438 25.984375c-1.882812 1.128906-4.3125.640625-5.617187-1.125-1.308594-1.761719-1.0625-4.230469.566406-5.703125l18.074219-16.902344-41.089844 23.730469c-1.882812 1.109375-4.296875.617187-5.597656-1.140625-1.296875-1.757813-1.058594-4.210938.554687-5.6875l18-16.800782-40.917969 23.628907c-1.832031 1.046875-4.15625.601562-5.464843-1.054688-1.308594-1.652343-1.214844-4.015625.222656-5.558593l19.859375-21.035157-36.34375 20.984375c-1.773438 1.007813-4.011719.625-5.34375-.921875-1.332031-1.542969-1.386719-3.8125-.125-5.417969l14.25-17.921874-12.714844 7.332031c-1.472656.851562-3.308594.75-4.675781-.257813-1.367187-1.011718-2.003906-2.738281-1.621094-4.394531l2.558594-11.09375c-1.53125-.601563-2.578125-2.027344-2.695313-3.667969-.113281-1.636718.71875-3.199218 2.148438-4.011718l4.265625-2.464844c1.472656-.847656 3.304687-.742188 4.667969.265625 1.367187 1.007812 2.003906 2.730469 1.621094 4.382812l-2.0625 8.9375 23.601562-13.65625c1.773438-1.007812 4.011719-.625 5.34375.921875 1.332031 1.542969 1.386719 3.816406.128906 5.421875l-14.253906 17.960938 42.171875-24.335938c1.832031-1.050781 4.15625-.601562 5.464844 1.050781 1.308593 1.65625 1.214843 4.019532-.222657 5.5625l-19.832031 21.058594 48.007813-27.714844c1.882812-1.109374 4.300781-.617187 5.597656 1.140626 1.296875 1.757812 1.058594 4.210937-.554688 5.683593l-17.988281 16.8125 40.960938-23.65625c1.882812-1.125 4.3125-.640625 5.621093 1.125 1.304688 1.765625 1.058594 4.230469-.570312 5.703125l-18.074219 16.90625 41.132813-23.75c1.851562-1.03125 4.179687-.542968 5.464844 1.144532 1.285156 1.683593 1.136718 4.058593-.347657 5.570312l-19.328125 19.242188 45.074219-26.023438c1.910156-1.109375 4.351563-.574219 5.625 1.230469 1.273437 1.804687.957031 4.285156-.726563 5.714843l-14.046874 11.945313 32.777343-18.917969c1.835938-1.0625 4.171875-.613281 5.484375 1.050782 1.316406 1.664062 1.207032 4.042968-.253906 5.578124l-20 21.136719 26.621094-15.359375c1.785156-1.035156 4.054687-.644531 5.390625.925782 1.335937 1.570312 1.359375 3.871093.054687 5.46875l-9.796875 12.074218 3.457031-2c1.324219-.839844 3-.886718 4.367188-.125 1.371094.765625 2.210938 2.21875 2.1875 3.785156-.019531 1.566407-.898438 2.996094-2.289062 3.722657l-23.421876 13.5c-1.78125 1.023437-4.042968.636719-5.375-.929688-1.335937-1.5625-1.363281-3.855469-.070312-5.453125l9.789062-12.074218-31.976562 18.457031c-1.832031 1.046875-4.15625.597656-5.464844-1.058594s-1.210937-4.023437.234375-5.5625l19.992188-21.144531-48.109375 27.765625c-.640625.390625-1.375.597656-2.125.605469zm0 0" fill="#cad0d7"/><path d="m22.390625 392.667969c-1.875.003906-3.53125-1.214844-4.085937-3.003907-.554688-1.789062.121093-3.730468 1.671874-4.789062l81.515626-55.6875-90.425782 52.191406c-1.992187 1.152344-4.542968.519532-5.761718-1.433594-1.21875-1.953124-.664063-4.523437 1.246093-5.804687l55.886719-37.46875-51.371094 29.671875c-1.996094 1.15625-4.554687.515625-5.769531-1.449219-1.214844-1.960937-.648437-4.535156 1.28125-5.804687l25.136719-16.632813-20.625 11.945313c-1.992188 1.136718-4.523438.492187-5.734375-1.457032-1.207031-1.949218-.660157-4.503906 1.238281-5.785156l9.574219-6.367187-5.121094 2.933593c-1.941406 1.082032-4.390625.488282-5.621094-1.367187-1.234375-1.851563-.835937-4.335937.914063-5.714844l39.679687-30.25-34.988281 20.183594c-1.941406 1.09375-4.402344.503906-5.640625-1.347656-1.238281-1.855469-.839844-4.351563.914063-5.726563l18.261718-14.011718-13.507812 7.816406c-1.859375 1.054687-4.214844.574218-5.507813-1.125-1.296875-1.703125-1.128906-4.101563.386719-5.609375l17.246094-16.972657-12.117188 6.988282c-1.730468 1-3.921875.660156-5.273437-.808594-1.351563-1.472656-1.5-3.6875-.359375-5.328125l6.167968-8.855469c-1.570312.03125-3.035156-.785156-3.839843-2.132812-1.171875-2.039063-.472657-4.644532 1.5625-5.820313l13.925781-8.046875c1.734375-1 3.925781-.660156 5.277344.808594 1.351562 1.472656 1.5 3.6875.355468 5.328125l-5.503906 7.898437 24.484375-14.113281c1.855469-1.058593 4.210938-.574219 5.503907 1.125 1.296874 1.703125 1.128906 4.101563-.386719 5.609375l-17.21875 16.929688 41.035156-23.664063c1.945313-1.117187 4.421875-.535156 5.671875 1.328125 1.246094 1.863282.839844 4.375-.933594 5.746094l-18.246094 13.988281 36.507813-21.0625c1.945313-1.101562 4.410156-.511719 5.652344 1.347657 1.238281 1.863281.832031 4.363281-.933594 5.734374l-39.707031 30.210938 64.648437-37.292969c1.988281-1.082031 4.472657-.429687 5.667969 1.492188s.679688 4.445312-1.171875 5.746093l-9.539063 6.339844 23.535157-13.578125c1.988281-1.097656 4.492187-.441406 5.6875 1.488281 1.199219 1.933594.671875 4.464844-1.199219 5.757813l-25.148438 16.648437 41.394532-23.894531c1.984375-1.070312 4.460937-.414062 5.652344 1.496094 1.191406 1.914063.691406 4.425781-1.144532 5.734375l-55.902344 37.476562 77.414063-44.707031c1.980469-1.101562 4.476563-.460937 5.683594 1.457031 1.207031 1.917969.707031 4.445313-1.144531 5.753907l-81.507813 55.6875 103.105469-59.527344c2.003906-1.140625 4.550781-.484375 5.753906 1.484375 1.199219 1.96875.621094 4.535156-1.308594 5.796875l-33.277344 21.46875 34.832032-20.105469c1.980468-1.152344 4.523437-.535156 5.75 1.402344 1.226562 1.9375.703125 4.5-1.183594 5.800781l-68.269531 47.164063 65.066406-37.546875c1.996094-1.097657 4.503906-.4375 5.695313 1.503906 1.191406 1.9375.652343 4.472656-1.230469 5.757813l-7.03125 4.582031 2.558593-1.484375c1.960938-1.070313 4.414063-.449219 5.625 1.425781 1.214844 1.875.777344 4.363281-1 5.714844l-42.578124 30.722656 37.988281-21.933594c1.984375-1.132812 4.507812-.503906 5.726562 1.429688 1.21875 1.929687.699219 4.480469-1.179687 5.78125l-3.257813 2.226562c1.714844-.378906 3.484375.351563 4.4375 1.828125 1.242188 1.886719.796875 4.417969-1.015625 5.769532l-14.199218 10.597656 9.546874-5.511719c1.871094-1.082031 4.257813-.59375 5.550782 1.136719 1.296875 1.730468 1.09375 4.15625-.472656 5.644531l-17.980469 17.136719 12.945312-7.46875c1.699219-.980469 3.851563-.679688 5.214844.738281 1.359375 1.414063 1.578125 3.578125.527344 5.238281l-6.738281 10.683594 1.03125-.589844c1.324218-.839844 3-.890625 4.367187-.125 1.371094.761719 2.210937 2.214844 2.1875 3.78125-.019531 1.570313-.898437 3-2.289063 3.726563l-15.964843 9.144531c-1.699219.984375-3.851563.679688-5.210938-.734375-1.363281-1.414063-1.582031-3.578125-.53125-5.238281l6.742188-10.683594-28.9375 16.726562c-1.886719 1.414063-4.558594 1.03125-5.972657-.855468-1.414062-1.882813-1.03125-4.558594.851563-5.972656l17.972656-17.125-41.480469 23.945312c-1.953124 1.101562-4.425781.503906-5.660156-1.367188-1.234375-1.875-.808594-4.382812.972656-5.742187l14.199219-10.597656-30.71875 17.730469c-1.988281 1.152343-4.53125.527343-5.753906-1.417969-1.222656-1.945313-.683594-4.507813 1.214844-5.800781l.9375-.640626-13.652344 7.886719c-1.964844 1.128907-4.472656.519531-5.703125-1.382812-1.234375-1.902344-.761719-4.4375 1.070312-5.769531l42.554688-30.71875-65.550781 37.945312c-2.003907 1.167969-4.570313.519531-5.78125-1.453125-1.214844-1.976563-.628907-4.558594 1.316406-5.816406l7.03125-4.589844-20.566406 11.878906c-1.980469 1.152344-4.519531.53125-5.75-1.40625-1.226563-1.933593-.703125-4.496093 1.1875-5.796875l68.332031-47.199218-94.292969 54.4375c-2.003906 1.136718-4.550781.480468-5.75-1.484376-1.203125-1.96875-.625-4.535156 1.304688-5.796874l33.28125-21.433594-49.808594 28.738281c-.644531.382813-1.378906.585937-2.125.589844zm0 0" fill="#4fc0e8"/><path d="m271.726562 196.152344c-1.703124 0-3.242187-1.007813-3.917968-2.570313-.675782-1.558593-.363282-3.375.800781-4.613281l8.535156-9.140625-27.308593 15.746094c-1.757813 1.007812-3.984376.640625-5.324219-.878907-1.34375-1.523437-1.425781-3.777343-.203125-5.394531l12.746094-16.734375-37.605469 21.734375c-1.808594 1.050781-4.109375.636719-5.4375-.980469-1.324219-1.613281-1.289063-3.949218.085937-5.519531l11.367188-13.015625-16.613282 9.59375c-1.71875.996094-3.898437.671875-5.257812-.777344-1.351562-1.460937-1.515625-3.664062-.390625-5.308593l5.238281-7.679688c-1.996094.195313-3.863281-1.027343-4.476562-2.9375-.617188-1.910156.179687-3.992187 1.917968-5l14.027344-8.097656c1.726563-1.003906 3.917969-.679687 5.277344.78125 1.355469 1.464844 1.519531 3.675781.390625 5.320313l-4.761719 6.953124 22.628906-13.046874c1.804688-1.035157 4.097657-.621094 5.417969.988281 1.324219 1.605469 1.296875 3.933593-.066406 5.507812l-11.375 13.019531 33.824219-19.515624c1.757812-1 3.976562-.628907 5.3125.890624 1.339844 1.519532 1.425781 3.765626.210937 5.382813l-12.742187 16.726563 33.777344-19.492188c1.828124-1.046875 4.148437-.601562 5.460937 1.046875 1.308594 1.652344 1.21875 4.011719-.214844 5.558594l-8.535156 9.140625 9.628906-5.558594c1.773438-1.027344 4.03125-.644531 5.371094.910156 1.339844 1.558594 1.378906 3.847656.097656 5.449219l-4.097656 5.121094c1.042969.304687 1.921875 1.003906 2.460937 1.945312 1.175782 2.039063.484376 4.644531-1.554687 5.828125l-13.976563 8.0625c-1.777343 1.027344-4.035156.648438-5.375-.910156-1.335937-1.554688-1.378906-3.84375-.097656-5.445312l1.777344-2.21875-14.890625 8.523437c-.644531.390625-1.382813.601563-2.132813.605469zm0 0" fill="#e4e8eb"/><path d="m354.667969 477.949219c-1.820313-.003907-3.4375-1.160157-4.027344-2.878907-.589844-1.722656-.023437-3.628906 1.410156-4.75l16.484375-12.800781-33.203125 19.167969c-1.898437 1.085938-4.3125.558594-5.585937-1.222656-1.277344-1.777344-.996094-4.234375.644531-5.683594l24.738281-21.648438-19.796875 11.4375c-1.878906 1.03125-4.230469.511719-5.5-1.21875-1.265625-1.730468-1.050781-4.128906.5-5.609374l7.058594-6.410157-2.058594 1.1875c-1.453125.839844-3.261719.746094-4.621093-.230469-1.363282-.980468-2.023438-2.664062-1.691407-4.308593l2.789063-13.652344c-1.582032-.546875-2.699219-1.964844-2.859375-3.628906-.160157-1.664063.667969-3.269531 2.117187-4.105469l4.265625-2.464844c1.453125-.839844 3.265625-.75 4.628907.234375 1.363281.980469 2.023437 2.667969 1.6875 4.3125l-2.390626 11.734375 28.320313-16.347656c1.878906-1.023438 4.222656-.496094 5.484375 1.230469 1.257812 1.722656 1.050781 4.113281-.492188 5.59375l-7.0625 6.417969 23.039063-13.3125c1.898437-1.085938 4.3125-.558594 5.585937 1.21875 1.277344 1.78125.996094 4.238281-.644531 5.683593l-24.746093 21.632813 49.535156-28.601563c1.9375-1.082031 4.378906-.496093 5.617187 1.34375 1.238281 1.84375.859375 4.324219-.875 5.710938l-16.492187 12.800781 34.507812-19.917969c1.953125-1.117187 4.4375-.527343 5.679688 1.347657 1.242187 1.875.8125 4.394531-.976563 5.753906l-12.367187 9.328125 16.617187-9.585938c1.847657-1.015625 4.164063-.527343 5.445313 1.152344 1.28125 1.675781 1.140625 4.039063-.328125 5.554687l-21.289063 21.335938 16.210938-9.386719c1.644531-.953125 3.71875-.707031 5.089844.605469 1.375 1.3125 1.714843 3.375.832031 5.058594l-6.492188 12.441406.65625-.375c1.324219-.839844 3-.886719 4.371094-.125 1.367187.765625 2.207031 2.21875 2.183594 3.785156-.019531 1.566406-.898438 2.996094-2.285157 3.722656l-13.347656 7.679688c-1.644531.953125-3.71875.703125-5.089844-.609375-1.371093-1.3125-1.710937-3.375-.832031-5.058594l6.492188-12.441406-31.488281 18.175781c-1.847657 1.019532-4.164063.527344-5.445313-1.148437-1.28125-1.679688-1.140625-4.039063.328125-5.558594l21.289062-21.332031-48.707031 28.117187c-1.953125 1.117188-4.4375.527344-5.679687-1.347656-1.242188-1.875-.8125-4.390625.976562-5.753906l12.433594-9.265625-28.476562 16.445312c-.65625.382813-1.40625.582032-2.167969.570313zm0 0" fill="#a9b0bb"/><path d="m331.628906 503.371094c-1.75.003906-3.324218-1.058594-3.972656-2.683594s-.242188-3.480469 1.027344-4.683594l9.464844-9.007812-18.652344 10.757812c-1.730469.992188-3.914063.652344-5.265625-.8125-1.347657-1.46875-1.5-3.671875-.367188-5.3125l13.039063-18.679687c-.996094-.921875-1.496094-2.257813-1.34375-3.605469.148437-1.347656.929687-2.542969 2.101562-3.222656l7.554688-4.351563c1.726562-.992187 3.914062-.652343 5.261718.816407 1.347657 1.464843 1.5 3.671874.367188 5.3125l-9 12.882812 32.980469-19.035156c1.882812-1.414063 4.558593-1.035156 5.972656.851562 1.414063 1.886719 1.03125 4.558594-.851563 5.972656l-9.464843 9.019532 27.410156-15.820313c1.742187-.996093 3.941406-.640625 5.285156.851563 1.34375 1.488281 1.464844 3.714844.292969 5.34375l-12.738281 17.398437 41.011719-23.679687c1.867187-1.105469 4.265624-.636719 5.574218 1.09375 1.3125 1.730468 1.117188 4.167968-.457031 5.664062l-9.914063 9.558594 28.355469-16.367188c1.902344-1.089843 4.320313-.5625 5.597657 1.222657 1.273437 1.785156.984374 4.246093-.664063 5.691406l-5.351563 4.648437 9.6875-5.589843c1.738282-1.003907 3.949219-.660157 5.296876.832031 1.351562 1.492188 1.472656 3.722656.300781 5.355469l-8.371094 11.648437 11.289063-6.519531c1.558593-.902344 3.519531-.722656 4.890624.441406 1.375 1.164063 1.871094 3.070313 1.234376 4.753907l-2.03125 5.378906c1.941406-.6875 4.09375.109375 5.121093 1.894531 1.179688 2.039063.480469 4.648437-1.5625 5.828125l-9.554687 5.511719c-1.558594.890625-3.511719.710937-4.878906-.449219-1.371094-1.160156-1.867188-3.054688-1.242188-4.738281l1.980469-5.265625-18.148438 10.46875c-1.742187 1-3.941406.652344-5.289062-.835938-1.34375-1.484375-1.476563-3.707031-.308594-5.339844l8.371094-11.65625-30.902344 17.832032c-1.898437 1.070312-4.296875.539062-5.566406-1.234375-1.265625-1.773438-.992188-4.21875.636719-5.667969l5.339843-4.652344-20.035156 11.554688c-1.867187 1.109375-4.265625.636718-5.578125-1.09375-1.308594-1.726563-1.113281-4.167969.457031-5.664063l9.925781-9.589843-28.296874 16.347656c-1.742188.996094-3.945313.644531-5.285157-.847656-1.34375-1.492188-1.46875-3.71875-.296875-5.347657l12.691406-17.414062-40.960937 23.652343c-.65625.386719-1.40625.589844-2.167969.582032zm0 0" fill="#cad0d7"/><path d="m431.929688 435.085938c-1.835938 0-3.46875-1.175782-4.046876-2.917969-.582031-1.742188.019532-3.660157 1.488282-4.761719l3.410156-2.609375-16.867188 9.683594c-1.910156 1.097656-4.335937.566406-5.609374-1.230469-1.273438-1.792969-.972657-4.261719.691406-5.699219l14.507812-12.449219-33.5625 19.378907c-1.902344 1.101562-4.328125.574219-5.605468-1.210938-1.28125-1.792969-.984376-4.269531.683593-5.710937l14.890625-12.796875-34.253906 19.71875c-1.882812 1.09375-4.285156.59375-5.574219-1.15625-1.292969-1.753907-1.058593-4.195313.539063-5.671875l17.921875-16.679688-40.703125 23.507813c-1.886719 1.164062-4.351563.695312-5.671875-1.085938-1.320313-1.777343-1.058594-4.273437.601562-5.742187l18.320313-17.320313-41.8125 24.113281c-1.9375 1.117188-4.410156.546876-5.664063-1.304687-1.253906-1.851563-.863281-4.359375.894531-5.742187l6.425782-5.035157-18.089844 10.445313c-1.894531 1.078125-4.296875.554687-5.570312-1.210938-1.277344-1.765625-1.015626-4.210937.601562-5.667968l14.414062-12.800782-18.507812 10.683594c-1.867188 1.089844-4.25.617188-5.554688-1.105469-1.304687-1.71875-1.117187-4.140625.433594-5.644531l7.796875-7.558594-4.367187 2.558594c-1.464844.84375-3.285156.742188-4.648438-.253906-1.363281-.996094-2.007812-2.703125-1.648437-4.351563l2.671875-12.324219c-1.542969-.582031-2.609375-1.996093-2.746094-3.636718s.679688-3.214844 2.105469-4.042969l4.265625-2.464844c1.460937-.847656 3.285156-.75 4.652344.246094 1.363281.996094 2.011718 2.703125 1.652343 4.351563l-2.226562 10.242187 25.824219-14.910156c1.863281-1.089844 4.246093-.613281 5.550781 1.105469 1.304687 1.71875 1.121093 4.144531-.433594 5.644531l-7.796875 7.570312 24.847656-14.34375c1.894532-1.078125 4.292969-.554687 5.570313 1.210938 1.273437 1.765625 1.015625 4.207031-.605469 5.664062l-14.410156 12.800781 34.191406-19.738281c1.9375-1.113281 4.410156-.542969 5.664062 1.308594 1.253907 1.851563.863282 4.355469-.894531 5.742187l-6.457031 5.066407 21.015625-12.132813c1.886719-1.164062 4.347656-.695312 5.671875 1.085938 1.320312 1.777344 1.058594 4.273437-.601562 5.742187l-18.332032 17.320313 41.816406-24.148438c1.882813-1.109375 4.296876-.617187 5.597657 1.140625 1.296875 1.757813 1.058593 4.210938-.554688 5.6875l-17.921875 16.671875 40.738282-23.527344c1.910156-1.117187 4.355468-.589843 5.632812 1.210938 1.28125 1.804688.972656 4.285156-.707031 5.71875l-14.824219 12.894531 34.320312-19.8125c1.910157-1.105469 4.34375-.570312 5.617188 1.230469s.964844 4.273438-.710938 5.707031l-14.503906 12.433594 33.601563-19.40625c1.945312-1.09375 4.402343-.507813 5.640625 1.347656 1.238281 1.855469.84375 4.347657-.910156 5.726563l-3.414063 2.609375 14.8125-8.53125c1.894531-1.09375 4.308594-.578125 5.589844 1.195312 1.28125 1.769531 1.015625 4.226563-.613281 5.683594l-15.242188 13.523437 10.292969-5.972656c1.84375-1.050781 4.183593-.585937 5.484375 1.09375 1.300781 1.683594 1.167968 4.0625-.316406 5.585938l-4.65625 4.738281c1.859374-.46875 3.800781.347656 4.769531 2.003906 1.171875 2.039063.472656 4.640625-1.5625 5.820313l-25.726563 14.890625c-1.847656 1.066406-4.199218.601562-5.503906-1.082031-1.308594-1.683594-1.167969-4.078126.324219-5.597657l4.265625-4.335937-19.070313 11.015625c-1.878906.996093-4.199219.457031-5.449219-1.257813s-1.046874-4.089844.472657-5.570312l15.214843-13.652344-35.472656 20.480469c-.628906.378906-1.34375.585937-2.074218.605469zm0 0" fill="#cad0d7"/><path d="m288.289062 392.667969c-1.890624 0-3.554687-1.242188-4.09375-3.050781-.535156-1.8125.179688-3.761719 1.761719-4.792969l47.25-30.71875-49.074219 28.320312c-1.988281 1.132813-4.515624.496094-5.730468-1.441406-1.214844-1.941406-.679688-4.492187 1.207031-5.785156l61.867187-41.746094-57.34375 33.09375c-1.988281 1.085937-4.472656.429687-5.667968-1.492187-1.195313-1.921876-.679688-4.445313 1.171875-5.746094l29.097656-19.367188-24.601563 14.199219c-1.953124 1.125-4.449218.539063-5.695312-1.347656-1.242188-1.882813-.804688-4.40625 1-5.761719l51.363281-38.476562-46.675781 26.9375c-1.917969 1.117187-4.371094.582031-5.644531-1.234376-1.273438-1.816406-.941407-4.308593.761719-5.726562l37.351562-31.394531-32.425781 18.773437c-1.847657 1.003906-4.152344.511719-5.429688-1.15625-1.277343-1.671875-1.144531-4.023437.308594-5.542968l20.121094-20.179688-14.96875 8.625c-1.714844.988281-3.886719.667969-5.238281-.777344-1.355469-1.445312-1.539063-3.632812-.445313-5.28125l6.683594-10.007812c-1.710938.214844-3.386719-.605469-4.265625-2.089844-1.175782-2.039062-.480469-4.640625 1.550781-5.820312l13.925781-8.046876c1.71875-.988281 3.886719-.667968 5.242188.777344 1.355468 1.445313 1.539062 3.628906.441406 5.28125l-6.296875 9.445313 26.90625-15.617188c1.847656-1.003906 4.152344-.511719 5.425781 1.160157 1.277344 1.667968 1.148438 4.019531-.304687 5.539062l-20.054688 20.15625 46.558594-26.878906c1.914063-1.09375 4.34375-.550782 5.609375 1.253906 1.265625 1.800781.949219 4.273438-.730469 5.699219l-37.355469 31.410156 66.457032-38.398437c1.953125-1.128907 4.449218-.539063 5.691406 1.34375 1.246094 1.882812.804688 4.410156-1 5.765624l-51.363281 38.484376 78.976562-45.535157c1.992188-1.113281 4.503907-.46875 5.710938 1.46875 1.203125 1.933594.675781 4.476563-1.203125 5.769531l-29.097656 19.371094 46.078124-26.609375c1.980469-1.085937 4.46875-.4375 5.667969 1.476563 1.199219 1.914062.695313 4.433594-1.144531 5.742187l-61.867188 41.816407 84.898438-49.035157c1.996094-1.097656 4.5-.4375 5.691406 1.503907 1.195313 1.941406.652344 4.476562-1.230468 5.757812l-47.246094 30.722656 63.144531-36.449218c2.007813-1.238282 4.636719-.617188 5.875 1.386718 1.242187 2.007813.621094 4.636719-1.386719 5.878906l-57.378906 37.785157 62.398438-36.027344c1.980468-1.121094 4.488281-.488281 5.703124 1.433594 1.214844 1.917969.710938 4.457031-1.148437 5.765625l-70.175781 48.4375 67.359375-38.886719c2.003906-1.164063 4.570312-.519531 5.78125 1.457031 1.214843 1.972656.628906 4.554688-1.316407 5.8125l-9.832031 6.410156 5.402344-3.117187c1.984375-1.152344 4.523437-.53125 5.75 1.402344 1.226563 1.9375.703125 4.5-1.183594 5.800781l-32.425781 22.460938 27.851562-16.085938c1.925782-1.105469 4.378907-.546875 5.636719 1.28125 1.257813 1.828125.902344 4.320312-.816406 5.722656l-41.207031 33.28125 36.429687-21.035156c1.902344-1.074219 4.304688-.539062 5.574219 1.238281 1.265625 1.78125.984375 4.226563-.652344 5.675781l-22.015625 19.0625 17.152344-9.898437c1.839844-1.0625 4.175781-.613281 5.488281 1.054687 1.3125 1.667969 1.199219 4.046876-.265625 5.582032l-10.238281 10.667968 5.015625-2.894531c1.476563-.847656 3.316406-.738281 4.679687.277344 1.367188 1.019531 1.996094 2.753906 1.601563 4.410156l-2.464844 10.359375c1.488281.628906 2.496094 2.042969 2.597657 3.660156.105468 1.613282-.714844 3.144532-2.113282 3.960938l-4.265625 2.464844c-1.476562.851562-3.316406.742187-4.679687-.277344-1.367188-1.019531-1.996094-2.75-1.601563-4.40625l1.929688-8.109375-22.1875 12.800781c-1.835938 1.0625-4.175781.613282-5.488281-1.054687s-1.199219-4.046875.265624-5.582031l10.238282-10.667969-30.050782 17.355469c-1.902343 1.074218-4.308593.539062-5.574218-1.238282s-.988282-4.226562.648437-5.671875l22.015625-19.089843-45.089844 26.035156c-1.925781 1.085937-4.359374.519531-5.609374-1.300782-1.253907-1.820312-.90625-4.296874.796874-5.707031l41.214844-33.277343-69.84375 40.328124c-1.984375 1.152344-4.523437.53125-5.75-1.402343-1.226562-1.9375-.703125-4.5 1.183594-5.800781l32.425781-22.46875-51.429687 29.695312c-2 1.167969-4.566406.519531-5.78125-1.453125-1.210938-1.976563-.625-4.558594 1.320312-5.816406l9.90625-6.460938-23.816406 13.75c-1.980469 1.117188-4.488281.484375-5.703125-1.433593-1.214844-1.921876-.710937-4.460938 1.144531-5.769532l70.136719-48.410156-96.425781 55.65625c-2.007813 1.238281-4.636719.617188-5.875-1.386719-1.242188-2.007812-.621094-4.636719 1.386718-5.875l57.453126-37.820312-78.140626 45.105469c-.652343.386718-1.398437.585937-2.15625.582031zm0 0" fill="#4fc0e8"/><g fill="#262626"><path d="m483.128906 265.988281c-25.945312-1.429687-51.945312-1.539062-77.898437-.324219-.085938 0-.128907-.074218-.222657-.101562-1.5625-.328125-3.183593-.253906-4.710937.214844h-1.417969c0-24.746094.105469-50.414063-31.742187-51.644532-23.738281-.921874-47.667969-.136718-71.449219 0 1.074219-6.980468 1.347656-14.0625.808594-21.101562 9.648437-1.628906 16.796875-9.847656 17.066406-19.628906-.289062-9.355469-7.644531-16.957032-16.988281-17.550782-1.390625-12.910156-.421875-25.960937 2.859375-38.519531 8.933594-23.203125 22.910156-32.683593 22.476562-59.605469 0-.230468-.128906-.375-.152344-.589843.019532-.226563.023438-.457031.007813-.683594-3.691406-24.019531-20.199219-44.109375-43.046875-52.382813-22.847656-8.277343-48.394531-3.417968-66.609375 12.667969-17.410156 15.285157-25.234375 38.765625-20.476563 61.441407 3.453126 15.941406 14.835938 26.300781 20.382813 41.171874 3.558594 12.316407 4.816406 25.1875 3.707031 37.957032-18.980468 7.535156-22.972656 32.734375.066406 37.019531-.332031 6.667969-.105468 13.351563.675782 19.984375-22.683594-.257812-45.585938-1.179688-68.148438.101562-13.539062-.40625-26.125 6.9375-32.425781 18.925782-3.152344 10.503906-4.027344 21.558594-2.5625 32.429687-1.320313 0-2.660156 0-3.976563 0-29.113281 0-99.558593-15.746093-106.84375 24.625-5.640624 31.222657 0 68.558594 0 100.292969 0 20.984375-3.414062 38.167969 21 43.519531 9.910157 1.957031 19.996094 2.859375 30.097657 2.6875v28.691407.167968c-7.550781 4.355469-12.972657 11.628906-14.984375 20.105469-8.449219 29.339844 72.300781 17.1875 87.40625 17.1875 13.40625 0 84.480468 10.742187 74.488281-19.550781-.0625-.179688-.230469-.273438-.324219-.425782-.09375-.15625 0-.265624-.136718-.402343-3.914063-6.546875-8.855469-12.425781-14.636719-17.40625 0-.171875.171875-.316407.171875-.496094v-30.53125h25.359375c.128906 0 .292969-.050781.4375-.070313.941406-.011718 1.875-.148437 2.78125-.398437 20.933593-5.660156 21.980469-17.46875 22.519531-36.941406 1.859375-34.765625 1.859375-69.601563 0-104.363281-1.535156-19.054688-8.089844-25.15625-26.734375-26.691407-25.816406-1.480469-51.691406-1.59375-77.519531-.34375-.21875-.164062-.453125-.304687-.699219-.425781-2.003906-.59375-4.164063-.386719-6.023437.570312-.886719-9.402343-.703126-18.875.546874-28.234374 4.121094-18.332032 20.660157-16.28125 34.414063-16.28125h57.601563c1.40625 3.800781 3.730468 7.199218 6.765624 9.890624 10.367188 9.121094 24.429688 7.371094 37.207032 7.371094.210937 0 .46875-.085937.707031-.109375.238281-.027343.503906.058594.851563 0 11.949218-.328125 22.914062-6.707031 29.109374-16.933593h57.171876c12.921874 0 27.90625-1.167969 34.390624 13.707031 2.828126 10.058593 3.539063 20.59375 2.089844 30.941406-1.363281 0-2.746094 0-4.105468 0-28.851563 0-99.546876-15.667969-106.90625 24.40625-5.722657 31.152344 0 68.605469 0 100.292969 0 21.007812-3.460938 38.015625 20.941406 43.320312 9.96875 1.945313 20.109375 2.835938 30.261718 2.664063v30.183593c0 .160157.144532.253907.21875.375-7.085937 4.089844-12.351562 10.726563-14.726562 18.558594-5.539062 16.152344 6.671875 15.691406 18.464844 15.863282 23.1875.332031 46.40625 0 69.589844 0 11.777343 0 82.507812 9.710937 73.300781-18.132813-6.519531-8.667969-9.386719-14.582031-15.84375-18.089844.511719-.496093.820312-1.171875.851562-1.886719v-29.464843h25.371094c.144531 0 .332031-.058594.492187-.078125.921876-.039063 1.835938-.183594 2.722657-.425782 20.925781-5.667968 22.035156-17.160156 22.589843-36.695312 1.871094-34.761719 1.871094-69.597656 0-104.359375-1.535156-19.066406-8.066406-24.96875-26.660156-26.464844zm-468.898437 124.75h65.707031c.460938.683594 1.132812 1.191407 1.914062 1.449219 2.601563.660156 5.367188.128906 7.542969-1.449219h67.300781c.476563.835938 1.199219 1.5 2.074219 1.902344 2.867188.933594 6.015625.203125 8.175781-1.902344h59.585938c.109375-.007812.21875-.027343.324219-.050781-.691407 18.046875-3.949219 33.722656-13.121094 37.214844h-29.269531c-1.144532-1.050782-2.660156-1.601563-4.207032-1.527344-.15625 0-.25-.0625-.410156-.0625h-119.46875c-2.425781.125-4.675781 1.328125-6.125 3.277344-4.882812-.382813-9.695312-.851563-14.371094-1.707032-23.183593-3.898437-25.914062-18.949218-25.652343-37.144531zm154.933593 69.710938c-11.835937-1.011719-23.734374-1.011719-35.566406 0h-47.738281c-3.148437-.105469-6.269531-.113281-9.386719 0h-10.316406v-23.757813c5.648438-.222656 11.316406-.511718 16.941406-.855468h89.964844v24.628906zm-3.472656 35.148437h-99.839844c-18.773437 0-13.476562-8.535156-6.085937-22.273437.671875-1.183594 1.4375-2.3125 2.296875-3.371094h111.980469c5.121093 2.558594 7.816406 8.535156 14.191406 17.152344 4.308594 13.679687-11.453125 8.492187-22.542969 8.492187zm30.796875-223.863281-65.511719 65.515625c-3.328124 3.320312 8.832032 2.484375 11.417969-.101562l63.402344-63.445313c24.394531 7.859375 18.535156 32.683594 18.535156 57.414063 0 8.269531 2.898438 32.621093 2.558594 54.945312h-55.210937l29.867187-29.867188c.886719-.941406 1.21875-2.277343.882813-3.527343-.335938-1.246094-1.292969-2.234375-2.53125-2.609375-3.121094-.984375-6.535157-.066406-8.746094 2.347656l-33.679688 33.691406h-63.148437l21.871093-21.847656c.898438-.746094 1.277344-1.945312.976563-3.070312-.304687-1.125-1.234375-1.972657-2.382813-2.167969-3.121093-.769531-6.417968.113281-8.738281 2.339843l-24.746093 24.746094h-64.949219l66.238281-66.238281c2.847656-2.855469-8.980469-1.707031-11.28125.617187l-56.664062 56.589844c.09375-2.710937.171874-5.441406.171874-8.179687 0-21.027344-9.53125-73.003907 4.453126-90.308594 12.230468-15.132813 57.679687-6.476563 76.640624-6.476563 5.851563 0 11.945313-.207031 18.039063-.453124 1.320313.652343 2.828125.828124 4.265625.503906l-20.796875 20.785156c-.894531.8125-1.257813 2.054688-.945313 3.21875s1.25 2.058594 2.429688 2.3125c3.121094.84375 6.457031-.050781 8.738281-2.339844l25.398438-25.394531c21.125-1.71875 42.371093-1.386719 63.433593 1zm11.304688-186.105469c-6.359375-14.109375-6.4375-30.257812-.207031-44.429687 6.230468-14.167969 18.183593-25.027344 32.882812-29.878907 34.421875-10.289062 63.050781 15.90625 68.804688 47.789063.136718 27.457031-19.558594 40.890625-24.449219 65.578125-1.34375 9.441406-1.652344 19-.929688 28.507812h-55.542969c.300782-6.914062.246094-13.839843-.164062-20.753906-1.613281-19.171875-13.074219-29.796875-20.402344-46.8125zm8.039062 79.105469c1.023438-.910156 2.171875-1.660156 3.414063-2.238281.738281.1875 1.496094.285156 2.261718.292968h68.265626c.910156-.050781 1.804687-.269531 2.636718-.640624.632813.359374 1.3125.777343 2.117188 1.339843 7.492187 5.265625 10.050781 21.332031-.855469 25.222657-.324219-.050782-.652344-.082032-.980469-.09375h-67.328125c-11.035156-3.054688-20.179687-13.875-9.539062-23.882813zm50.160157 66.558594c-11.164063.101562-23.851563 1.605469-31.949219-7.730469-5.429688-8.226562-7.539063-18.203125-5.914063-27.921875h55.996094c.179688 14.566406 1.3125 33.902344-18.144531 35.660156zm26.359374 47.164062c12.167969-15.242187 57.5625-6.585937 76.609376-6.585937 5.921874 0 12.042968-.214844 18.238281-.472656 1.253906.988281 2.871093 1.394531 4.445312 1.109374l-20.984375 20.992188c-1.859375 1.851562-1.355468 3.714844 1.179688 4.394531 3.117187.578125 6.328125-.285156 8.738281-2.34375l25.035156-25.03125c21.375-1.769531 42.871094-1.429687 64.179688 1.015625l-65.707031 65.707032c-3.25 3.261718 8.855468 2.363281 11.398437-.167969l63.566406-63.574219c24.234375 7.96875 18.421875 32.902344 18.421875 57.574219 0 7.882812 2.707032 30.855469 2.5625 52.566406h-54.539062l29.636718-29.648437c2.09375-2.082032-1.808593-2.636719-3.085937-2.660157-3.035156-.011719-5.964844 1.101563-8.226563 3.121094l-29.195312 29.1875h-66.011719l21.171875-21.171875c2.039063-2.039062-1.777344-2.5625-3.039062-2.492188-3.023438.023438-5.941406 1.109376-8.242188 3.070313l-20.59375 20.59375h-65.378906l62.453125-62.457031c5.121094-5.121094-6.953125-5.179688-9.949219-2.183594l-57.257812 57.257812c.074218-2.457031.144531-4.933593.144531-7.414062 0-21.085938-9.53125-72.894531 4.417969-90.378906zm-5.0625 114.652344h212.480469c-.851562 17.066406-4.191406 31.625-12.859375 34.988281h-30.191406c-.550781-.0625-1.101562-.078125-1.65625-.042968h-119.578125c-2.386719.050781-4.730469.679687-6.824219 1.835937-5.335937-.386719-10.609375-.90625-15.710937-1.777344-22.160157-3.753906-25.632813-17.800781-25.667969-34.992187zm49.160157 69.121094c3.945312 2.824219 2.679687-7.125 2.679687-11.152344v-14.636719c16.582032-.636718 33.332032-2.191406 48.28125-2.371094h58.832032v28.09375c-14.667969-1.488281-29.445313-1.488281-44.109376 0h-29.9375c-.449218 0-1.160156.058594-1.773437.09375-10.632813-1.117187-21.363281-.875-31.933594.714844-.714843-.15625-1.40625-.417968-2.046875-.777344zm121.300781 34.816406c-7.328125.917969-14.742188.917969-22.074219 0h-59.210937c-11.5625 0-32.335938 4.027344-43.332032 0-15.898437-5.820313-5.386718-18.832031 2.636719-28.808594h109.378907c6.523437 5.109375 11.992187 11.441407 16.101562 18.636719 5.734375 17.289062 4.898438 7.59375-3.507812 10.136719zm0 0"/><path d="m254.027344 43.125c8.257812.304688 15.652344 5.199219 19.152344 12.683594 3.503906 7.484375 2.527343 16.296875-2.53125 22.832031-4.75 6.28125 6.878906 8.449219 10.394531 3.804687 7.085937-8.890624 8.511719-21.03125 3.675781-31.320312s-15.09375-16.9375-26.460938-17.15625c-6.152343-.382812-12.578124 8.667969-4.230468 9.15625zm0 0"/><path d="m127.5625 68.554688h34.132812c6.988282 0 9.558594-8.839844 1.160157-8.839844h-34.132813c-6.988281 0-9.554687 8.839844-1.160156 8.839844zm0 0"/><path d="m171.613281 28.292969-32.078125-11.714844c-4.609375-1.707031-14.507812 4.957031-7.347656 7.558594l32.078125 11.675781c4.605469 1.671875 14.480469-4.957031 7.347656-7.519531zm0 0"/><path d="m165.785156 94.777344-32.078125 11.671875c-1.304687.472656-4.863281 1.769531-3.660156 3.585937 1.066406 1.621094 6.824219-.238281 7.96875-.65625l32.078125-11.675781c1.304688-.476563 4.863281-1.765625 3.660156-3.589844-1.066406-1.625-6.816406.238281-7.96875.664063zm0 0"/><path d="m344.140625 63.585938c-.457031 1.148437-.277344 2.449218.472656 3.425781.75.980469 1.960938 1.492187 3.1875 1.347656h34.132813c2.753906 0 6.824218-.742187 8.082031-3.679687.457031-1.144532.273437-2.445313-.476563-3.425782-.75-.976562-1.960937-1.488281-3.1875-1.34375h-34.132812c-2.753906 0-6.851562.742188-8.078125 3.675782zm0 0"/><path d="m375.199219 15.800781-32.066407 11.640625c-2.5625.921875-5.828124 3.003906-4.96875 6.210938.777344 2.894531 4.90625 3.804687 7.410157 2.894531l32.066406-11.667969c2.558594-.910156 5.828125-3.003906 4.964844-6.203125-.773438-2.867187-4.90625-3.777343-7.40625-2.875zm0 0"/><path d="m339.394531 99.121094 32.078125 11.671875c2.953125.871093 6.136719.414062 8.726563-1.246094 1.339843-.851563 4.046875-3.410156 1.179687-4.496094l-32.078125-11.671875c-2.949219-.871094-6.136719-.421875-8.730469 1.234375-1.339843.878907-4.042968 3.449219-1.175781 4.507813zm0 0"/></g></svg>