<svg height="512" viewBox="0 0 60 60" width="512" xmlns="http://www.w3.org/2000/svg"><g id="015---Level-Design" fill="none"><path id="Path" d="m28.563 58.875c-.2204964-.0003885-.4147083-.1451693-.4780465-.3563732-.0633381-.2112039.0191519-.438965.2030465-.5606268l12.2-8.064-13.688 7.906c-.2363779.1430418-.5439582.0673779-.687-.169s-.0673779-.5439582.169-.687l6.013-3.807-6.878 3.97c-.2330372.1238601-.5222123.0452782-.6605113-.1794907s-.0780959-.5183212.1375113-.6705093l11.15-7.3-12.498 7.216c-.2354379.13455-.5352149.0569022-.6757281-.1750261-.1405133-.2319283-.0705395-.5335888.1577281-.6799739l5.538-3.518-6.387 3.687c-.2341443.133112-.5316521.0568382-.672871-.1725078-.1412189-.2293459-.075396-.5293391.148871-.6784922l8.545-5.58-9.695 5.6c-.2348642.1312813-.531504.0531604-.6712412-.1767732-.1397372-.2299337-.0724576-.5292187.1522412-.6772268l3.47-2.207-4.211 2.43c-.2330829.1306613-.5277074.0549657-.6689423-.1718661-.1412349-.2268319-.0791592-.5246238.1409423-.6761339l8.434-5.642-9.693 5.6c-.2324067.1328499-.5282158.0590851-.6710333-.1673329s-.0819688-.5251514.1380333-.6776671l8.748-6.022-10.185 5.873c-.2347713.1336383-.5332399.0566316-.6740509-.1739091-.1408109-.2305408-.0730402-.5312411.1530509-.6790909l2.254-1.458-2.95 1.7c-.23171.1276221-.5227312.0526794-.6639792-.1709853s-.08384-.5186462.1309792-.6730147l6.284-4.313-7.456 4.3c-.2325262.1307666-.5267591.0559509-.6685809-.1700024s-.0812744-.5234503.1375809-.6759976l4.587-3.123-5.566 3.214c-.2333681.1382671-.5344194.0652417-.6785003-.1645824-.144081-.2298241-.078635-.5326135.1475003-.6824176l3.227-2.187-4.066 2.353c-.23158002.1294027-.52390906.0554223-.6660571-.1685604-.14214803-.2239828-.08462774-.5199909.1310571-.6744396l3.178-2.194-4.045 2.337c-.23296731.1327691-.52919188.0581284-.67142871-.1691822-.14223683-.2273105-.07984054-.5263539.14142871-.6778178l1.119-.757-1.762 1.016c-.23004825.1308569-.52222067.059778-.6664488-.1621318-.14422813-.2219099-.09054634-.5177734.1224488-.6748682l3.245-2.354-4.212 2.433c-.22605753.1301558-.5141897.0646595-.6617686-.1504288-.1475789-.2150884-.10501073-.5074886.0977686-.6715712l3.939-3.169-5.275 3.041c-.22665062.1274915-.51319057.0599635-.65906069-.1553189-.14587011-.2152823-.1023667-.5064398.10006069-.6696811l2.51-1.977-3.509 2.024c-.21357462.1241805-.4858285.073761-.64076969-.118666-.15494119-.1924269-.14611644-.4691694.02076969-.651334l1.3-1.421-1.455.84c-.23742522.1242009-.53055313.0391619-.66464661-.1928199-.13409349-.2319817-.06147969-.5284321.16464661-.6721801l4.256-2.456c.21350539-.1227461.48459646-.071745.63889852.1201978s.14585892.4676604-.01989852.6498022l-1.3 1.418 6.73-3.879c.2266506-.1274915.5131906-.0599635.6590607.1553189.1458701.2152823.1023667.5064398-.1000607.6696811l-2.51 1.975 4.855-2.8c.2260575-.1301558.5141897-.0646595.6617686.1504288.1475789.2150884.1050107.5074886-.0977686.6715712l-3.94 3.171 6.925-4c.2300482-.1308569.5222207-.059778.6664488.1621318.1442281.2219099.0905463.5177734-.1224488.6748682l-3.238 2.349 5.517-3.179c.2325262-.1307666.5267591-.0559509.6685809.1700024s.0812744.5234503-.1375809.6759976l-1.117.756 2.777-1.6c.2313246-.1263251.5209869-.0513891.6620294.1712679.1410425.2226569.0850249.5165645-.1280294.6717321l-3.182 2.2 5.263-3.045c.2322377-.1273115.5234633-.0514462.664069.1729923.1406056.2244384.0818101.5195841-.134069.6730077l-3.227 2.184 5.256-3.03c.2321092-.1290838.5246372-.0541763.6661393.170578.1415021.2247542.0825963.5209195-.1341393.674422l-4.591 3.125 6.879-3.97c.23171-.1276221.5227312-.0526794.6639792.1709853s.08384.5186462-.1309792.6730147l-6.282 4.312 8.933-5.157c.2342478-.1308833.5300435-.0535271.6702262.1752769s.074765.527467-.1482262.6767231l-2.254 1.449 4-2.31c.23171-.1276221.5227312-.0526794.6639792.1709853s.08384.5186462-.1309792.6730147l-8.744 6.026 11.894-6.866c.2330829-.1306613.5277074-.0549657.6689423.1718661.1412349.2268319.0791592.5246238-.1409423.6761339l-8.439 5.645 11.248-6.493c.2348642-.1312813.531504-.0531604.6712412.1767732.1397372.2299337.0724576.5292187-.1522412.6772268l-3.457 2.2 5.291-3.053c.2337734-.1287456.5274505-.051198.667188.1761759.1397374.2273739.07627.5244122-.144188.6748241l-8.544 5.58 11.14-6.431c.234481-.1270728.5274228-.0477401.6657366.1802909.1383139.2280309.0733058.5244809-.1477366.6737091l-5.539 3.519 7.506-4.334c.2333291-.1269664.5252099-.0493179.6646076.1768043.1393976.2261221.0776459.5217747-.1406076.6731957l-11.157 7.3 12.5-7.217c.2363779-.1427656.5437344-.0668778.6865.1695.1427656.2363779.0668779.5437344-.1695.6865l-5.992 3.794 6.857-3.958c.2329061-.1254293.5232086-.0477402.6623373.1772508s.0789338.5194187-.1373373.6717492l-12.205 8.068 13.7-7.908c.23171-.1276221.5227312-.0526794.6639792.1709853s.08384.5186462-.1309792.6730147l-8.753 6.011 10.145-5.856c.2205392-.1280792.5021318-.0696485.6535046.1356028.1513729.2052513.124009.4915375-.0635046.6643972l-.567.525.358-.206c.2374252-.1242009.5305531-.0391619.6646466.1928199.1340935.2319817.0614797.5284321-.1646466.6721801l-4.213 2.432c-.2205392.1280792-.5021318.0696485-.6535046-.1356028-.1513729-.2052513-.124009-.4915375.0635046-.6643972l.565-.524-17.364 10.023c-.1509447.0955685-.3414086.1033495-.4996457.0204118-.1582372-.0829377-.2602076-.2439938-.2675-.4225-.0072925-.1785062.081201-.3473433.2321457-.4429118l8.75-6.009-16.939 9.78c-.0753116.0438129-.1608713.0669278-.248.067z" fill="#0970de"/><path id="Path" d="m29.056 50.122c-.2208664.0004946-.4158916-.143984-.479759-.3554152s.0185554-.4397191.202759-.5615848l12.614-8.375-14.171 8.182c-.2347029.1405531-.538787.0663884-.6824238-.1664401-.1436368-.2328284-.0734897-.5378644.1574238-.6845599l11.309-7.409-12.672 7.315c-.2324996.1240701-.5213839.0463844-.6602955-.1775644-.1389116-.2239487-.0801563-.5172694.1342955-.6704356l12.5-8.308-14.055 8.115c-.2342478.1308833-.5300435.0535271-.6702262-.1752769s-.074765-.527467.1482262-.6767231l8.392-5.435-9.488 5.478c-.2354116.1379583-.5379577.061708-.6798637-.1713453-.1419059-.2330532-.070765-.5368414.1598637-.6826547l5.467-3.5-6.337 3.658c-.2327769.1270897-.524286.0503218-.6642741-.174934-.139988-.2252559-.0797468-.5206233.1372741-.673066l8.882-5.918-10.158 5.864c-.233204.1287421-.5263939.0520483-.6666872-.1743946-.1402933-.226443-.0784231-.5231151.1406872-.6746054l7.195-4.77-8.311 4.8c-.2347029.1405531-.538787.0663884-.6824238-.1664401-.1436368-.2328284-.0734897-.5378644.1574238-.6845599l5.042-3.312-5.96 3.441c-.2312043.1356861-.5282776.0648879-.6734329-.160492-.1451554-.2253799-.0867349-.525133.1324329-.679508l8.451-6.014-10.037 5.788c-.2335451.1328438-.5303244.0573638-.6720248-.1709163s-.0776546-.5277351.1450248-.6780837l3.485-2.318-4.312 2.489c-.2324067.1328499-.5282158.0590851-.6710333-.1673329s-.0819688-.5251514.1380333-.6776671l4.55-3.124-5.548 3.2c-.230817.1267753-.52040052.0527915-.66212318-.1691615-.14172267-.221953-.08699929-.5157856.12512318-.6718385l4.336-3.037-5.363 3.1c-.23093065.1317312-.52456739.0597083-.66833375-.1639283s-.0873821-.520673.12833375-.6760717l3.88-2.765-4.9 2.826c-.23004825.1308569-.52222067.059778-.6664488-.1621318-.14422813-.2219099-.09054634-.5177734.1224488-.6748682l3.412-2.484-4.41 2.546c-.23081697.1267753-.52040052.0527915-.66212318-.1691615-.14172267-.221953-.08699929-.5157856.12512318-.6718385l1.058-.744-1.714.99c-.23004825.1308569-.52222067.059778-.6664488-.1621318-.14422813-.2219099-.09054634-.5177734.1224488-.6748682l1.458-1.06-2.182 1.259c-.22590838.1319558-.51534561.0674504-.66384119-.1479469s-.10583645-.5088509.09784119-.6730531l2.54-2.061-3.528 2.039c-.2217499.124383-.5015352.0625469-.65021052-.143705-.14867531-.2062518-.11889405-.491237.06921052-.662295l.245-.218c-.24201084.1118524-.52921347.0141431-.65280207-.22209-.12358859-.236233-.04008448-.5278827.18980207-.66291l4.256-2.457c.22265563-.1273746.50558289-.0655928.65487411.1430023.14929122.2085952.11651109.4963282-.07587411.6659977l-.238.212 4.7-2.713c.2259084-.1319558.5153456-.0674504.6638412.1479469s.1058364.5088509-.0978412.6730531l-2.54 2.06 4.993-2.88c.2300482-.1308569.5222207-.059778.6664488.1621318.1442281.2219099.0905463.5177734-.1224488.6748682l-1.457 1.058 3.283-1.895c.2314518-.1313128.5252013-.0583356.6682918.1660259.1430904.2243616.0853808.5214879-.1312918.6759741l-1.066.747 2.753-1.589c.2300482-.1308569.5222207-.059778.6664488.1621318.1442281.2219099.0905463.5177734-.1224488.6748682l-3.413 2.485 5.755-3.322c.2309306-.1317312.5245674-.0597083.6683337.1639283.1437664.2236366.0873821.520673-.1283337.6760717l-3.877 2.76 6.242-3.6c.2317427-.1353654.5290201-.0636298.6735243.1625272.1445041.2261571.084687.5260601-.1355243.6794728l-4.336 3.036 6.718-3.878c.2319831-.1309881.5259285-.0570795.6683699.1680527.1424414.2251321.0833463.52241-.1343699.6759473l-4.554 3.126 6.879-3.97c.2327769-.1270897.524286-.0503218.6642741.174934.139988.2252559.0797468.5206233-.1372741.673066l-3.48 2.316 5.48-3.164c.2309306-.1317312.5245674-.0597083.6683337.1639283.1437664.2236366.0873821.520673-.1283337.6760717l-8.451 6.01 11.875-6.85c.2333291-.1269664.5252099-.0493179.6646076.1768043.1393976.2261221.0776459.5217747-.1406076.6731957l-5.043 3.314 7.214-4.165c.2335451-.1328438.5303244-.0573638.6720248.1709163s.0776546.5277351-.1450248.6780837l-7.195 4.774 9.74-5.623c.2327769-.1270897.524286-.0503218.6642741.174934.139988.2252559.0797468.5206233-.1372741.673066l-8.881 5.917 11.719-6.765c.234023-.1252853.5251579-.0458598.6631351.1809119.1379772.2267718.0746978.5218373-.1441351.6720881l-5.478 3.508 7.554-4.361c.2342478-.1308833.5300435-.0535271.6702262.1752769s.074765.527467-.1482262.6767231l-8.393 5.435 10.892-6.287c.2324996-.1240701.5213839-.0463844.6602955.1775644.1389116.2239487.0801563.5172694-.1342955.6704356l-12.5 8.307 14.243-8.222c.2341443-.133112.5316521-.0568382.672871.1725078.1412189.2293459.075396.5293391-.148871.6784922l-11.3 7.407 12.667-7.313c.2335451-.1328438.5303244-.0573638.6720248.1709163s.0776546.5277351-.1450248.6780837l-12.621 8.374 14.171-8.181c.2349709-.1292146.5300387-.050062.6687925.179405.1387537.2294671.0717837.5275361-.1517925.675595l-2.151 1.357 2.813-1.631c.2154812-.1230022.4885691-.0693794.6415393.1259712.1529702.1953505.1395447.4733291-.0315393.6530288l-1.12 1.163 1.146-.661c.2374252-.1242009.5305531-.0391619.6646466.1928199.1340935.2319817.0614797.5284321-.1646466.6721801l-4.212 2.432c-.2158593.1261512-.4917204.0734664-.6458975-.1233553-.154177-.1968218-.1392724-.477273.0348975-.6566447l1.121-1.162-21.928 12.664c-.2349709.1292146-.5300387.050062-.6687925-.179405-.1387537-.2294671-.0717837-.5275361.1517925-.675595l2.165-1.366-5.848 3.377c-.0759958.0438054-.162285.0665858-.25.066z" fill="#2885ee"/><path id="Path" d="m29.4 41.3c-.2233334-.0001747-.4194687-.1484382-.4805471-.3632574-.0610783-.2148192.0277136-.4440945.2175471-.5617426l.872-.542-1.466.846c-.2369302.1422133-.5442867.0654301-.6865-.1715-.1422133-.2369302-.0654301-.5442867.1715-.6865l1.574-.98-2.2 1.268c-.2349709.1292146-.5300387.050062-.6687925-.179405-.1387537-.2294671-.0717837-.5275361.1517925-.675595l5.941-3.761-6.8 3.927c-.2337734.1287456-.5274505.051198-.667188-.1761759-.1397374-.2273739-.07627-.5244122.144188-.6748241l11.142-7.29-12.48 7.204c-.2350866.127347-.5287583.0472199-.6665908-.1818764-.1378325-.2290964-.071048-.5260868.1515908-.6741236l2.207-1.378-2.857 1.651c-.2349709.1292146-.5300387.050062-.6687925-.179405-.1387537-.2294671-.0717837-.5275361.1517925-.675595l5.245-3.31-6.061 3.5c-.2350866.127347-.5287583.0472199-.6665908-.1818764-.1378325-.2290964-.071048-.5260868.1515908-.6741236l2.094-1.307-2.746 1.579c-.2348642.1312813-.531504.0531604-.6712412-.1767732-.1397372-.2299337-.0724576-.5292187.1522412-.6772268l7.452-4.753-8.422 4.862c-.2348642.1312813-.531504.0531604-.6712412-.1767732-.1397372-.2299337-.0724576-.5292187.1522412-.6772268l6.888-4.381-7.815 4.512c-.2354379.13455-.5352149.0569022-.6757281-.1750261-.1405133-.2319283-.0705395-.5335888.1577281-.6799739l7.553-4.821-8.53 4.927c-.2369302.1419372-.5440628.0649301-.686-.172-.1419372-.2369302-.0649301-.5440628.172-.686l1.475-.919-2.094 1.209c-.2338963.1269547-.5262491.04845-.6650871-.1785941-.1388379-.227044-.0755015-.5230536.1440871-.6734059l9.971-6.462-11.174 6.448c-.2340569.1357068-.5336008.0606207-.6759704-.1694442s-.0759129-.5316408.1499704-.6805558l12.333-8.159-13.845 7.992c-.234481.1270728-.5274228.0477401-.6657366-.1802909-.1383139-.2280309-.0733058-.5244809.1477366-.6737091l6.226-3.947-7.107 4.1c-.23402298.1252853-.52515789.0458598-.66313509-.1809119-.13797721-.2267718-.07469786-.5218373.14413509-.6720881l7.9-5.05-8.9 5.14c-.23610173.1433179-.54368211.0681017-.687-.168s-.06810173-.5436821.168-.687l6.784-4.319-7.716 4.455c-.23354514.1328438-.53032442.0573638-.6720248-.1709163s-.07765459-.5277351.1450248-.6780837l10.821-7.193-12.242 7.065c-.23345719.1253051-.52412895.0467367-.66266771-.1791186-.13853877-.2258554-.07683646-.5205686.14066771-.6718814l7.042-4.572-8.061 4.653c-.23343911.1195795-.51960174.038452-.65555001-.1858495-.13594826-.2243015-.075468-.515528.13855001-.6671505l.423-.265-1 .575c-.21201481.1228806-.48184194.0739979-.63727417-.1154507-.15543222-.1894485-.15065865-.4636262.01127417-.6475493l1.367-1.557-1.6.923c-.23742522.1242009-.53055313.0391619-.66464661-.1928199-.13409349-.2319817-.06147969-.5284321.16464661-.6721801l4.226-2.439c.21173957-.1215681.48031415-.0724346.63530053.1162229.15498639.1886576.15105457.4616611-.00930053.6457771l-1.363 1.553 21.057-12.157c.2349709-.1292146.5300387-.050062.6687925.179405.1387537.2294671.0717837.5275361-.1517925.675595l-.441.278 1.963-1.133c.2337734-.1287456.5274505-.051198.667188.1761759.1397374.2273739.07627.5244122-.144188.6748241l-7.045 4.575 9.4-5.427c.2327769-.1270897.524286-.0503218.6642741.174934.139988.2252559.0797468.5206233-.1372741.673066l-10.818 7.191 13.928-8.04c.234481-.1270728.5274228-.0477401.6657366.1802909.1383139.2280309.0733058.5244809-.1477366.6737091l-6.782 4.319 8.067-4.658c.2348642-.1312813.531504-.0531604.6712412.1767732.1397372.2299337.0724576.5292187-.1522412.6772268l-7.9 5.05 8.9-5.14c.2354379-.13455.5352149-.0569022.6757281.1750261.1405133.2319283.0705395.5335888-.1577281.6799739l-6.226 3.947 7.106-4.1c.1518379-.0941395.3423647-.1001234.4998108-.0156977s.2578918.2464348.2635.425-.0844729.3465582-.2363108.4406977l-12.329 8.16 13.84-7.99c.2338963-.1269547.5262491-.04845.6650871.1785941.1388379.227044.0755015.5230536-.1440871.6734059l-9.971 6.462 11.174-6.451c.1532669-.0919959.3439707-.0952367.5002749-.0085015.1563042.0867351.2544627.250269.2575.429s-.089508.3455056-.2427749.4375015l-1.461.913 2.087-1.2c.234481-.1270728.5274228-.0477401.6657366.1802909.1383139.2280309.0733058.5244809-.1477366.6737091l-7.559 4.824 8.538-4.928c.2313419-.1087294.5074408-.0254582.6400881.19305.1326474.2185083.0791226.5018804-.1240881.65695l-6.88 4.375 7.81-4.51c.2361017-.1433179.5436821-.0681017.687.168s.0681017.5436821-.168.687l-7.462 4.759 8.433-4.868c.2356087-.1297647.5316571-.04988.6700067.1807924.1383496.2306723.0694166.5294607-.1560067.6762076l-2.094 1.306 2.742-1.582c.2355125-.13196.5332497-.0531389.6726204.1780652.1393708.2312042.0700423.5312938-.1566204.6779348l-5.235 3.305 6.051-3.494c.2356087-.1297647.5316571-.04988.6700067.1807924.1383496.2306723.0694166.5294607-.1560067.6762076l-2.207 1.378 2.86-1.651c.2337734-.1287456.5274505-.051198.667188.1761759.1397374.2273739.07627.5244122-.144188.6748241l-11.146 7.293 12.489-7.21c.2349709-.1292146.5300387-.050062.6687925.179405.1387537.2294671.0717837.5275361-.1517925.675595l-5.933 3.756 6.794-3.922c.2369302-.1419372.5440628-.0649302.686.172s.0649302.5440628-.172.686l-1.562.972 2.185-1.26c.2352087-.125628.5276152-.0445694.664573.1842276.1369579.228797.070267.5248112-.151573.6727724l-.885.55 1.48-.854c.2280989-.1338167.5209547-.0668721.6682583.1527586.1473036.2196308.0981078.515985-.1122583.6762414l-4.232 3.265 5.155-2.975c.1549945-.0985297.351531-.1041539.5119064-.0146489.1603754.0895049.2587712.2597296.2562855.4433739s-.1054527.3511436-.2681919.436275l-11.622 6.71c-.2274132.1273482-.5145055.05864-.6596263-.1578646-.1451209-.2165046-.0995839-.5081708.1046263-.6701354l4.228-3.266-21.546 12.44c-.0767866.0459723-.1645049.070492-.254.071z" fill="#439cf8"/><path id="Path" d="m28.492 7.476c-.2087291-.00011927-.3954224-.12988784-.4682725-.32549135-.07285-.19560352-.0165268-.4158805.1412725-.55250865l2.028-1.758-4.118 2.378c-.2231941.12824745-.5072862.06607757-.6565145-.14366969s-.1148202-.49851967.0795145-.66733031l2.686-2.326-2.905 1.676c-.2166955.12495309-.4923876.07054354-.6453641-.12736655-.1529764-.1979101-.1361605-.47841644.0393641-.65663345l1.638-1.66-1.032.595c-.2074647.11850825-.4697832.07367696-.626115-.10700561s-.162987-.44672114-.015885-.63499439l.553-.7c-.1942932-.05361312-.3373984-.21864205-.3629628-.4185687s.0714113-.39565444.2459628-.4964313l1.627-.94c.2076737-.11979968.4711534-.07532698.628.106.157165.18124085.1634598.44856233.015.637l-.3.383 1.973-1.137c.2166955-.12495309.4923876-.07054354.6453641.12736655.1529764.1979101.1361605.47841644-.0393641.65663345l-1.64 1.661 4.238-2.445c.2228025-.12580765.5046322-.06310991.6530847.14528965.1484525.20839957.1156192.4952461-.0760847.66471035l-2.684 2.321 4.12-2.377c.2229237-.12779857.5064223-.06581962.6556784.14334552s.11567.49740953-.0776784.66665448l-2.03 1.758 1.94-1.122c.217772-.12398428.4936884-.06761168.6453756.13185696.1516872.19946865.1322878.48041599-.0453756.65714304l-1.009 1 .414-.239c.2014527-.11537337.4558187-.0769091.6141518.09286969.158333.1697788.1789789.42620686.0498482.61913031l-.526.78c.1721467.07594578.2870833.24210339.2974267.4299737s-.0856578.36564135-.2484267.4600263l-1.164.668c-.2014527.11537337-.4558187.0769091-.6141518-.09286969-.158333-.1697788-.1789789-.42620686-.0498482-.61913031l.266-.395-1.922 1.112c-.217772.12398428-.4936884.06761168-.6453756-.13185696-.1516872-.19946865-.1322878-.48041599.0453756-.65714304l1.009-.994-3.096 1.786c-.0757806.0445497-.1620945.0680271-.25.068z" fill="#db2936"/><path id="Path" d="m26.8 26.491c-.2152152 0-.4062846-.137715-.4743416-.3418861-.0680571-.2041711.0021694-.4289848.1743416-.5581139l1-.737-2.179 1.257c-.2280542.1290416-.517047.0601323-.6623353-.1579314-.1452882-.2180638-.0975826-.5113034.1093353-.6720686l3.7-2.825-3.188 1.844c-.2304184.1322364-.5240189.0611893-.6684864-.1617642-.1444674-.2229535-.0893536-.5199576.1254864-.6762358l2.035-1.472-1.492.862c-.2266681.1317558-.5166136.0660514-.6643416-.1505461-.1477279-.2165976-.1030619-.5105201.1023416-.6734539l4.792-3.835-4.23 2.437c-.2269587.1282325-.5143539.0605795-.6602778-.1554298-.145924-.2160093-.1014061-.5078844.1022778-.6705702l4.378-3.433-3.82 2.205c-.2292016.1303039-.5201978.0602449-.6649792-.1600976s-.0935911-.5152436.1169792-.6739024l3-2.226-2.452 1.413c-.2310609.1298083-.523268.0567757-.6660866-.1664779-.1428185-.2232536-.086628-.5191613.1280866-.6745221l1.014-.717-.476.275c-.2290632.1321979-.5214568.063148-.6671806-.1575572-.1457237-.2207053-.094369-.5167199.1171806-.6754428l3.27-2.45-2.72 1.569c-.2306836.128482-.5215078.0554404-.6641078-.1667933s-.0878131-.5170425.1251078-.6732067l1.259-.892-.72.415c-.2251719.1281476-.5109328.0630663-.6584056-.14995-.1474728-.2130162-.107801-.5033971.0914056-.66905l2.82-2.318-2.253 1.3c-.2174475.1222843-.4917629.0655717-.6428937-.1329134-.1511308-.1984852-.1328285-.4780031.0428937-.6550866l1.61-1.59-1.01.582c-.1698759.09778116-.3812183.08728585-.5405706-.02684484s-.2373216-.31084513-.1994294-.50315516l.33-1.657c-.1153527-.03827094-.2123201-.11812643-.272-.224-.1375532-.23865551-.0561721-.54361136.182-.682l.5-.29c.1698759-.09778116.3812183-.08728585.5405706.02684484s.2373216.31084513.1994294.50315516l-.286 1.436 3.427-1.978c.2174475-.12228432.4917629-.06557167.6428937.13291344s.1328285.47800309-.0428937.65508656l-1.61 1.589 4.134-2.387c.2256098-.13119678.5141774-.06680355.6626093.14785982.1484318.21466336.1067938.50738169-.0956093.67214018l-2.823 2.32 4.687-2.7c.2306836-.12848205.5215078-.05544038.6641078.16679332.1426.22223371.0878131.51704248-.1251078.67320668l-1.252.889.713-.411c.2290632-.13219788.5214568-.06314799.6671806.15755725.1457237.22070523.094369.51671981-.1171806.67544275l-3.266 2.441 2.72-1.568c.2310609-.12980827.523268-.05677568.6660866.16647793.1428185.2232536.086628.51916126-.1280866.67452207l-1.021.722.483-.279c.2292016-.1303039.5201978-.0602449.6649792.1600976s.0935911.5152436-.1169792.6739024l-3 2.227 2.449-1.413c.2269587-.1282325.5143539-.0605795.6602778.1554298.145924.2160093.1014061.5078844-.1022778.6705702l-4.375 3.432 3.821-2.205c.2266681-.1317558.5166136-.0660514.6643416.1505461.1477279.2165976.1030619.5105201-.1023416.6734539l-4.791 3.834 4.23-2.442c.2304184-.1322364.5240189-.0611893.6684864.1617642.1444674.2229535.0893536.5199576-.1254864.6762358l-2.035 1.472 1.492-.862c.2285788-.1329729.5211739-.064966.667677.1551861.1465031.220152.0962484.5163129-.114677.6758139l-3.7 2.825 3.15-1.819c.2295527-.1314921.521805-.0614183.6667704.1598726.1449654.2212908.0924688.5172061-.1197704.6751274l-1 .739.453-.262c.2250277-.1259685.5089467-.060127.6555632.1520265.1466165.2121536.1078274.5010142-.0895632.6669735l-.995.815.429-.247c.2085042-.1190529.4721949-.0730928.628127.1094799.1559322.1825726.1600769.4502065.009873.6375201l-.995 1.227.353-.2c.1857776-.1070669.4191402-.0837604.5800735.0579333.1609332.1416938.2136048.370226.1309265.5680667l-.233.553c.1546881.0893197.249978.2543763.249978.433s-.0952899.3436803-.249978.433l-.628.363c-.1857776.1070669-.4191402.0837604-.5800735-.0579333-.1609332-.1416938-.2136048-.370226-.1309265-.5680667l.074-.174-1.4.8c-.2085649.1202746-.4732297.0748336-.6297325-.1081204s-.1603978-.4514631-.0092675-.6388796l.991-1.225-3.431 1.98c-.2250277.1259685-.5089467.060127-.6555632-.1520265-.1466165-.2121536-.1078274-.5010142.0895632-.6669735l.994-.814-2.841 1.64c-.0733996.0432815-.1567994.0667162-.242.068z" fill="#ffc306"/><path id="Path" d="m29.813 33.425c-.1977763-.000109-.376902-.1167863-.4569455-.2976414-.0800434-.180855-.0459603-.3918951.0869455-.5383586l.372-.41-.643.371c-.2247363.1292165-.510959.0652384-.6592891-.1473681-.1483301-.2126064-.1095663-.5033193.0892891-.6696319l.134-.112-.114.066c-.2240205.1297641-.5100442.0670649-.6592395-.1445117s-.1122125-.502047.0852395-.6694883l1.958-1.667-2.168 1.251c-.2208953.136633-.509623.0813788-.6644625-.1271591-.1548394-.208538-.1242214-.5009064.0704625-.6728409l1.13-1.067-1.26.726c-.1941713.1124668-.4394874.0818022-.6-.075-.1614443-.1571135-.1978859-.4027875-.089-.6l.709-1.288-.93.537c-.1379618.0795793-.3055828.0886713-.4513428.0244816-.1457601-.0641897-.2522196-.1939812-.2866572-.3494816l-.181-.811c-.2348404.0240988-.4545386-.1193399-.5269434-.344036-.0724047-.224696.0222147-.4694186.2269434-.586964l.4-.231c.1379618-.0795793.3055828-.0886713.4513428-.0244816.1457601.0641897.2522196.1939812.2866572.3494816l.171.766 1.891-1.09c.1941713-.1124668.4394874-.0818022.6.075.1614443.1571135.1978859.4027875.089.6l-.709 1.289 3.4-1.962c.2208953-.136633.509623-.0813788.6644625.1271591.1548394.208538.1242214.5009064-.0704625.6728409l-1.13 1.065 3.227-1.86c.2236156-.1271011.5071788-.0638125.6555296.1463081s.1130835.4985123-.0815296.6666919l-1.957 1.667.4-.232c.2244518-.1286386.5099659-.0648202.6582866.1471407.1483207.211961.1104625.5020607-.0872866.6688593l-1.261 1.052c.0539232.0302398.1014681.0706529.14.119.1538141.1918242.1453338.4670108-.02.649l-1.311 1.446c.014.019.029.04.042.061.066536.1150507.084529.2518576.0500041.3801999-.0345248.1283423-.1187262.2376584-.2340041.3038001l-1.189.685c-.0756125.0428524-.1610891.0652556-.248.065z" fill="#82624b"/><path id="Shape" d="m.308 34.918c-.06556305.1283329-.05438839.2824661.029.4 1.045 1.673 3.143 2.237 4.874 3.1l2.426 1.214c-2.488 1.118-5.913 2.142-7.306 4.368-.07072327.0743164-.07374729.190093-.007.268 1.023 1.636 3.173 2.217 4.864 3.063l11.112 5.561c3.32 1.6606667 6.6396667 3.322 9.959 4.984 1.4.7 2.512 1.565 4.116 1.374 1.274-.15 2.685-1.25 3.804-1.812l10.274-5.138 10.547-5.281c1.71-.855 3.64-1.379 4.669-3.025.0713236-.0744573.0743546-.1909339.007-.269-1.306-2.089-4.815-3.183-7.206-4.257l3.03-1.515c1.7-.853 3.184-1.259 4.193-2.873.0655631-.1283329.0543884-.2824661-.029-.4-1.347-2.156-4.908-3.243-7.321-4.344l2.657-1.328c1.7-.852 3.644-1.378 4.67-3.021.0477812-.047597.0690947-.1156506.057-.182-1.932-3.092-7.974-4.668-11.107-6.236l-12.785-6.4c-.046-2.406-.1-4.809-.106-7.195 0-.01.008-.019.008-.03 0-1.434.41-3.611-.709-4.73-1.17-1.165-3.484-.748-4.965-.748-1.571 0-3.687-.378-4.959.786-1.255 1.148-.838 3.281-.838 4.8.0038897.02976363.011274.05896508.022.087-.0055289.01728537-.0095441.03501885-.012.053 0 2.389-.035 4.786-.064 7.183l-12.683 6.349c-3.146 1.576-9.25 3.176-11.196 6.287-.04762987.0476887-.06891809.1156616-.057.182 1.016 1.626 2.88 2.119 4.58 2.97l2.666 1.337c-2.551 1.121-5.784 2.129-7.214 4.418zm57.362 9.963c-1.032 1.667-6.313 3.159-8 4l-12.9 6.458c-1.538.769-5.082 3.328-6.694 3.271-1.67-.059-5.185-2.666-6.694-3.421l-12.494-6.246c-1.937-.97-7.106-2.389-8.417-4.212-1.379-1.918 3.6-3.726 5.945-4.707l7.9 3.955 9.959 4.983c1.342.671 2.581 1.626 4.137 1.453 1.414-.157 3.019-1.422 4.262-2.044l10.548-5.277 6.009-3.007c2.179.941 7.574 2.96 6.439 4.794zm-23.459-19.291h-8.374c-.2321167-1.6478706-.2700428-3.3172884-.113-4.974v-14.082h3.552v15.66c0 .381 1.448.13 1.448-.388v-15.272h3.552v14.05c.1216267 1.6674522.0998802 3.3422679-.065 5.006zm-.2.82c-.025.078-.041.16-.07.237-.5893323 1.1641251-1.2927821 2.2668663-2.1 3.292-.726 1.14-1.036 2.533-2.181 2.063-.971-.4-2.837-3.851-3.552-5.592zm-8.277-23.464c.5-1.967 2.59-1.412 4.007-1.412 1.263 0 3.876-.52 4.463 1.128.1978895.92045696.2266917 1.86923432.085 2.8h-8.576c-.1096524-.83558601-.1025847-1.68236072.021-2.516zm-23.565 22.237c.4-.826 3.745-1.874 4.533-2.269l7.9-3.95 9.598-4.808c-.035 3.249-.048 6.5.073 9.735.0470283.684506.162607 1.3625676.345 2.024-.265.219-.348.466.132.488.889 3.1 2.927 7.133 5.326 6.89 2.005-.2 3.259-3.649 4.126-5.01.4516941-.6667524.8226239-1.3847785 1.105-2.139.266-.192.417-.431.156-.519.1438859-.6011062.2302749-1.2145349.258-1.832.192-3.11.183-6.255.131-9.4 6.752 3.272 14.083 6.171 20.336 10.2 3.248 2.092.538 2.776-2.068 4.08l-2.732 1.367c-.3139286.0346901-.6051152.1804607-.821.411l-10.511 5.259-6.136 3.07c-.891.446-2.622 1.785-3.64 1.821-1.607.058-5.282-2.591-6.9-3.4l-14.062-7.037c-.10377266-.0949613-.23444072-.155404-.374-.173-1.873-.815-7.715-2.847-6.775-4.808zm6.541 5.908 6.69 3.349 10.274 5.141c1.451.727 2.9 1.867 4.6 1.664 1.307-.156 2.771-1.254 3.9-1.818l10.276-5.141 6.495-3.25c1.8.822 7.7 3.034 6.845 4.6-.862 1.59-6.451 3.228-8 4l-12.905 6.464c-1.583.792-4.956 3.347-6.765 3.35s-5.217-2.567-6.766-3.343l-12.489-6.249c-1.9-.952-7.153-2.4-8.417-4.212-1.248-1.792 4.2-3.641 6.262-4.555z" fill="#262626"/></g></svg>