<svg height="508pt" viewBox="0 -3 508.73173 508" width="508pt" xmlns="http://www.w3.org/2000/svg"><path d="m290.695312 429.28125c-1.882812.007812-3.546874-1.226562-4.09375-3.03125-.542968-1.804688.160157-3.753906 1.730469-4.792969l41.421875-27.425781-50.5 29.152344c-1.96875 1.078125-4.441406.449218-5.652344-1.445313-1.207031-1.894531-.742187-4.402343 1.070313-5.734375l71.875-50.34375-79.359375 45.796875c-1.964844 1.128907-4.472656.523438-5.703125-1.378906-1.234375-1.902344-.765625-4.4375 1.070313-5.773437l38.132812-27.535157-43.390625 25.105469c-1.890625 1.058594-4.28125.53125-5.546875-1.226562-1.269531-1.761719-1.015625-4.191407.589844-5.652344l14.683594-13.03125-18.941407 10.949218c-1.472656.851563-3.308593.75-4.675781-.257812-1.367188-1.011719-2.003906-2.738281-1.621094-4.394531l.75-3.207031-1.605468.921874c-1.320313.839844-3 .890626-4.367188.125-1.371094-.765624-2.207031-2.214843-2.1875-3.785156.019531-1.566406.898438-2.996094 2.289062-3.722656l10.128907-5.851562c1.472656-.855469 3.3125-.753907 4.679687.257812 1.367188 1.011719 2.003906 2.742188 1.617188 4.402344l-.75 3.242187 47.113281-27.25c1.890625-1.058593 4.277344-.53125 5.546875 1.226563 1.269531 1.761718 1.015625 4.191406-.589844 5.652344l-14.679687 13.03125 79.15625-45.703126c1.96875-1.128906 4.472656-.523437 5.707031 1.378907 1.230469 1.902343.761719 4.4375-1.074219 5.769531l-38.125 27.546875 91.75-52.976563c1.96875-1.082031 4.441407-.449218 5.648438 1.445313 1.210937 1.894531.742187 4.402344-1.066407 5.734375l-71.894531 50.34375 86.015625-49.65625c1.996094-1.132812 4.527344-.488281 5.738282 1.460938 1.207031 1.949218.660156 4.503906-1.238282 5.785156l-41.414062 27.402344 3.355468-1.9375c2.039063-1.160157 4.628907-.457032 5.804688 1.574218 1.171875 2.03125.484375 4.628906-1.539062 5.816406l-123.734376 71.429688c-.644531.375-1.378906.566406-2.125.5625zm0 0" fill="#937661"/><path d="m328.328125 222.519531c-1.929687 0-3.621094-1.296875-4.121094-3.160156-.5-1.867187.316407-3.835937 1.988281-4.800781l173.96875-100.4375c1.992188-1.152344 4.542969-.519532 5.757813 1.433594 1.21875 1.953124.667969 4.523437-1.242187 5.804687l-46.082032 30.964844 41.53125-23.96875c1.996094-1.097657 4.503906-.4375 5.695313 1.503906 1.191406 1.9375.648437 4.472656-1.230469 5.757813l-4.464844 2.925781c1.96875-1.128907 4.472656-.519531 5.707032 1.382812 1.230468 1.902344.761718 4.433594-1.070313 5.769531l-37.863281 27.398438 33.226562-19.179688c1.964844-1.136718 4.46875-.539062 5.707032 1.359376 1.238281 1.898437.78125 4.433593-1.046876 5.773437l-20.324218 14.949219 15.664062-9.042969c1.949219-1.101563 4.414063-.515625 5.652344 1.347656 1.242188 1.859375.832031 4.363281-.933594 5.734375l-9.761718 7.464844 5.042968-2.917969c1.875-1.144531 4.308594-.683593 5.632813 1.066407s1.101562 4.222656-.511719 5.710937l-12.089844 11.628906 7.003906-4.078125c1.761719-1.007812 3.988282-.640625 5.328126.882813 1.339843 1.523437 1.417968 3.78125.191406 5.398437l-5.117188 6.742188c1.746094.339844 3.09375 1.730468 3.386719 3.488281.289063 1.753906-.539063 3.507813-2.082031 4.394531l-13.816406 7.980469c-1.761719 1.027344-4.003907.660156-5.351563-.871094s-1.421875-3.804687-.175781-5.417969l3.488281-4.566406-19.019531 10.980469c-1.871094 1.148437-4.308594.683594-5.632813-1.066406s-1.101562-4.21875.511719-5.707031l12.109375-11.632813-31.847656 18.40625c-1.953125 1.164063-4.472657.59375-5.734375-1.296875-1.261719-1.890625-.816406-4.4375 1.007812-5.792969l9.761719-7.449219-25.191406 14.507813c-1.960938 1.132813-4.464844.535156-5.707031-1.363281-1.238282-1.898438-.777344-4.429688 1.050781-5.773438l20.367187-14.898437-38.296875 22.066406c-1.964843 1.128906-4.472656.523437-5.703125-1.378906-1.234375-1.902344-.765625-4.4375 1.070313-5.769531l37.871093-27.402344-59.863281 34.550781c-2.003906 1.164063-4.570312.519531-5.78125-1.453125-1.210937-1.976562-.625-4.558594 1.320313-5.816406l4.503906-2.945313-17.699219 10.242188c-1.996093 1.25-4.628906.640625-5.878906-1.355469-1.25-2-.640625-4.632812 1.359375-5.882812l46.027344-30.957032-66.160156 38.167969c-.644532.386719-1.378907.59375-2.132813.597656zm0 0" fill="#457393"/><path d="m247.457031 276.1875c-1.902343-.003906-3.570312-1.265625-4.09375-3.09375-.523437-1.832031.230469-3.785156 1.84375-4.792969l47.886719-29.933593-44.160156 25.488281c-2 1.070312-4.492188.386719-5.664063-1.558594-1.171875-1.941406-.617187-4.464844 1.261719-5.738281l73.695312-46.539063-69.292968 40.003907c-2.007813 1.125-4.550782.453124-5.738282-1.519532-1.191406-1.972656-.597656-4.535156 1.335938-5.785156l65.921875-41.480469-61.519531 35.515625c-1.308594.78125-2.933594.804688-4.265625.058594-1.332031-.742188-2.164063-2.140625-2.183594-3.664062-.023437-1.523438.773437-2.945313 2.082031-3.722657l6.484375-4.003906-3.082031 1.785156c-2.019531 1.214844-4.640625.5625-5.855469-1.457031-1.21875-2.019531-.566406-4.640625 1.453125-5.859375l56.125-35.15625-64.453125 37.1875c-2.019531 1.21875-4.644531.570313-5.863281-1.449219-1.21875-2.019531-.566406-4.644531 1.453125-5.863281l80.355469-50.578125-99.105469 57.234375c-2.015625 1.222656-4.640625.574219-5.863281-1.441406-1.21875-2.015625-.574219-4.640625 1.445312-5.863281l112.398438-71.039063-120.320313 69.476563c-1.304687.785156-2.933593.8125-4.265625.074218-1.335937-.742187-2.171875-2.136718-2.199218-3.660156-.027344-1.527344.765624-2.949219 2.070312-3.734375l76.921875-47.742187-74.53125 43.023437c-2.015625 1.113281-4.554687.425781-5.730469-1.550781-1.179687-1.980469-.570312-4.539063 1.371094-5.78125l24.488281-15.007813-20.128906 11.621094c-2.023437 1.207031-4.644531.542969-5.847656-1.480469-1.207031-2.023437-.546875-4.640625 1.480469-5.847656l51.199218-31.683594-46.832031 27.058594c-2.003906 1.117188-4.535156.453125-5.726563-1.507812-1.195312-1.964844-.621093-4.519532 1.296876-5.78125l107.121093-68.617188-102.691406 59.300781c-2.011719 1.226563-4.636719.597657-5.867187-1.414062-1.230469-2.011719-.597657-4.636719 1.414062-5.867188l99.199219-64.535156-94.71875 54.695313c-1.992188 1.117187-4.503907.46875-5.710938-1.464844-1.203125-1.9375-.675781-4.476563 1.203125-5.769532l94.738282-63.472656-90.265626 52.113282c-1.992187 1.15625-4.542968.523437-5.761718-1.433594-1.21875-1.953125-.667969-4.519532 1.246094-5.800782l69.394531-46.660156-64.855469 37.453125c-1.996094 1.15625-4.550781.515625-5.765625-1.445312-1.214844-1.964844-.648437-4.539063 1.277344-5.808594l34.6875-22.972656-30.222657 17.441406c-1.976562 1.179687-4.53125.578125-5.773437-1.359375-1.246094-1.9375-.730469-4.507812 1.164063-5.816406l49.136718-34.984375-44.527344 25.71875c-1.957031 1.125-4.449218.539062-5.695312-1.34375-1.242188-1.886719-.804688-4.410157 1-5.765625l36.695312-27.441406-32 18.488281c-1.945312 1.101562-4.414062.515625-5.652343-1.347657-1.238281-1.859374-.832031-4.363281.933593-5.734374l19.128907-14.683594-14.410157 8.320312c-1.824218 1.058594-4.148437.625-5.472656-1.019531-1.320312-1.644531-1.238281-4.007813.191406-5.5625l18.917969-20.648437-13.65625 7.875c-1.757812 1.019531-3.992187.652343-5.335937-.871094-1.347656-1.527344-1.425782-3.792969-.191406-5.410156l5.179687-6.824219c-1.765625-.316407-3.144531-1.699219-3.457031-3.460938-.308594-1.765625.515625-3.535156 2.066406-4.433593l13.941406-8.003907c1.761719-1.019531 3.996094-.652343 5.339844.871094 1.34375 1.527344 1.425781 3.792969.191406 5.410156l-3.609375 4.75 19.269531-11.101562c1.824219-1.070313 4.160157-.644531 5.484376 1.007812 1.328124 1.648438 1.242187 4.019531-.195313 5.574219l-18.925781 20.648438 47.164062-27.230469c1.945313-1.125 4.433594-.542969 5.679688 1.328125 1.25 1.871094.832031 4.390625-.953125 5.757812l-19.140625 14.632813 37.664062-21.71875c1.957032-1.125 4.453125-.539063 5.695313 1.347656 1.242187 1.882813.804687 4.40625-1 5.761719l-36.695313 27.445312 59.785156-34.554687c1.972657-1.15625 4.507813-.550781 5.746094 1.371093 1.238282 1.921876.742188 4.480469-1.128906 5.796876l-49.125 34.988281 73.019531-42.15625c2.003907-1.242188 4.632813-.625 5.875 1.378906 1.242188 2.003906.625 4.632813-1.378906 5.875l-34.714844 22.945313 52.371094-30.199219c1.992187-1.152344 4.539063-.519531 5.757813 1.433593 1.21875 1.953126.667968 4.523438-1.246094 5.804688l-69.375 46.660156 93.339844-53.898437c1.996093-1.183594 4.574218-.554688 5.800781 1.417969 1.226562 1.972656.648437 4.5625-1.296875 5.828124l-94.796875 63.453126 122.503906-70.699219c2.003906-1.164063 4.570313-.515625 5.78125 1.457031 1.210937 1.976562.628906 4.554688-1.316406 5.816406l-99.140625 64.476563 124.320312-71.75c2.011719-1.175781 4.589844-.523438 5.800782 1.464843 1.210937 1.988282.605468 4.578126-1.363282 5.824219l-107.1875 68.617188 130.84375-75.546875c2.015625-1.136719 4.566406-.457032 5.753906 1.527344 1.1875 1.988281.578126 4.554687-1.378906 5.792968l-51.199218 31.660156 57.667968-33.28125c2.015625-1.113281 4.554688-.425781 5.734375 1.554688 1.175781 1.980469.570313 4.535156-1.371093 5.777344l-24.476563 14.992187 24.039063-13.875c1.308593-.785156 2.933593-.808593 4.269531-.070312 1.332031.742187 2.167969 2.136719 2.191406 3.664062.023437 1.523438-.765625 2.945313-2.074219 3.726563l-76.96875 47.789062 73.214844-42.308594c2.015625-1.21875 4.640625-.570312 5.859375 1.445313 1.214844 2.019531.570313 4.640625-1.449219 5.859375l-112.332031 70.996094 107.921875-62.292969c2.019531-1.214844 4.640625-.5625 5.859375 1.457031 1.214844 2.015625.5625 4.640625-1.457031 5.855469l-80.417969 50.628906 76.023437-43.894531c2.015626-1.164062 4.589844-.496094 5.789063 1.496094 1.199219 1.996094.578125 4.582031-1.394531 5.816406l-56.097656 35.164062 51.703124-29.863281c1.308594-.78125 2.9375-.804687 4.265626-.0625 1.332031.746094 2.164062 2.140625 2.183593 3.667969.023438 1.523438-.769531 2.941406-2.078125 3.722656l-6.496094 4.003906 2.125-1.222656c2.011719-1.125 4.550782-.453125 5.738282 1.519532 1.191406 1.972656.597656 4.535156-1.335938 5.785156l-65.917968 41.464844 61.515624-35.515626c2.003907-1.070312 4.492188-.386718 5.664063 1.558594 1.171875 1.941406.617187 4.464844-1.261719 5.738282l-73.703125 46.566406 69.273438-39.996094c2.011719-1.109375 4.539062-.425781 5.71875 1.542969 1.179687 1.96875.59375 4.515625-1.332031 5.769531l-206.574219 129.117188c-.058594 1.460937-.863281 2.792968-2.132813 3.523437l-46.226562 26.683594c-.644532.378906-1.382813.578125-2.132813.582031zm0 0" fill="#457393"/><path d="m49.117188 469.996094c-1.757813-.003906-3.332032-1.082032-3.972657-2.71875-.636719-1.636719-.203125-3.5 1.089844-4.6875l15.136719-13.875-35.421875 20.480468c-1.9375 1.097657-4.398438.519532-5.644531-1.328124-1.246094-1.851563-.855469-4.347657.890624-5.730469l19.859376-15.445313-27.410157 15.769532c-1.960937 1.117187-4.457031.511718-5.6875-1.382813s-.773437-4.417969 1.046875-5.761719l14.992188-10.878906-13.996094 8.074219c-1.957031 1.121093-4.453125.523437-5.6875-1.363281-1.238281-1.890626-.789062-4.414063 1.019531-5.761719l23.613281-17.410157-18.945312 10.921876c-1.976562 1.136718-4.5.515624-5.722656-1.410157s-.71875-4.472656 1.148437-5.78125l4.269531-2.988281c-1.996093.960938-4.394531.234375-5.523437-1.667969-1.125-1.902343-.613281-4.355469 1.1875-5.644531l17.066406-12.328125-12.449219 7.183594c-1.929687 1.074219-4.363281.503906-5.605468-1.324219-1.246094-1.824219-.890625-4.296875.816406-5.699219l40.175781-32.007812-35.371093 20.417969c-1.960938 1.136718-4.46875.539062-5.707032-1.359376-1.238281-1.898437-.777344-4.433593 1.046875-5.773437l21.820313-15.992187-17.160156 9.898437c-1.925782 1.085937-4.359376.523437-5.609376-1.300781-1.253906-1.820313-.90625-4.296875.796876-5.703125l36.273437-29.3125-31.460937 18.152343c-1.917969 1.230469-4.464844.742188-5.785157-1.117187-1.320312-1.855469-.949219-4.425781.84375-5.832031l23.894531-20.605469-18.953124 10.914063c-1.917969 1.085937-4.351563.535156-5.609376-1.277344-1.257812-1.8125-.925781-4.285156.761719-5.703125l3.003907-2.484375c-1.285157.070312-2.539063-.433594-3.414063-1.382813-1.351563-1.480469-1.488281-3.703125-.332031-5.339843l5.972656-8.398438c-1.914062-.027344-3.574219-1.332031-4.0625-3.183594-.484375-1.855468.328125-3.804687 1.980469-4.769531l13.886719-8.019531c1.734374-1.003906 3.933593-.660156 5.285156.820312 1.351562 1.480469 1.488281 3.703125.328125 5.339844l-5.121094 7.226562 23.339844-13.480468c1.917969-1.089844 4.351562-.535156 5.609375 1.277344 1.257812 1.8125.929687 4.285156-.761719 5.703124l-1.023437.851563 13.566406-7.824219c1.902344-1.074218 4.304687-.539062 5.574218 1.238282 1.265626 1.777343.984376 4.226562-.648437 5.671874l-23.828125 20.601563 39.9375-23.042969c1.925781-1.082031 4.359375-.519531 5.609375 1.304688 1.253906 1.820312.90625 4.296875-.796875 5.703125l-36.273438 29.3125 37.546876-21.691407c1.960937-1.132812 4.464843-.535156 5.703124 1.359376 1.242188 1.898437.78125 4.433593-1.046874 5.773437l-21.785157 15.992187 17.160157-9.898437c1.929687-1.078125 4.363281-.503906 5.605468 1.320313 1.246094 1.828124.890625 4.300781-.816406 5.703124l-40.167969 32.007813 35.386719-20.429687c1.96875-1.128907 4.472656-.523438 5.707031 1.378906 1.230469 1.902344.761719 4.4375-1.070312 5.773437l-17.066407 12.320313 12.414063-7.167969c1.980469-1.136719 4.5-.511719 5.722656 1.410156 1.226563 1.925781.71875 4.472657-1.148437 5.785157l-4.265625 2.984374c1.984375-.953124 4.371093-.238281 5.503906 1.652344s.640625 4.332032-1.136719 5.636719l-23.609375 17.425781 18.933594-10.933594c1.964844-1.117187 4.457031-.507812 5.6875 1.382813 1.230469 1.894531.773437 4.421875-1.046875 5.761719l-14.964844 10.863281 10.339844-5.976563c1.945312-1.105468 4.414062-.527343 5.660156 1.328126 1.246094 1.855468.847656 4.359374-.914062 5.738281l-19.882813 15.453125 15.136719-8.726563c1.882812-1.0625 4.257812-.554687 5.539062 1.1875 1.277344 1.738281 1.054688 4.160157-.519531 5.636719l-15.085937 13.875 10.066406-5.808594c1.730469-.992187 3.914062-.660156 5.265625.804688s1.507813 3.671875.375 5.3125l-6.824219 9.832031c2.078125-.589844 4.265625.464844 5.101563 2.457031.832031 1.992188.042969 4.292969-1.835938 5.359375l-15.179687 8.746094c-1.726563 1-3.917969.671875-5.273438-.796875-1.355468-1.46875-1.511718-3.679688-.375-5.324219l6.597656-9.554687-27.164062 15.675781c-.640625.390625-1.378906.597656-2.132812.605469zm0 0" fill="#ac92ea"/><path d="m240.101562 384.652344c-1.929687 0-3.621093-1.296875-4.121093-3.160156-.5-1.867188.316406-3.835938 1.988281-4.800782l75.09375-43.332031c1.878906-1.0625 4.257812-.550781 5.535156 1.1875 1.28125 1.742187 1.058594 4.164063-.519531 5.640625l-18.625 17.125 35.128906-20.285156c1.816407-1.046875 4.125-.617188 5.445313 1.011718 1.324218 1.628907 1.265625 3.972657-.136719 5.535157l-17.6875 19.625 36.691406-21.195313c1.882813-1.144531 4.332031-.667968 5.644531 1.105469 1.3125 1.769531 1.058594 4.25-.582031 5.722656l-10.089843 9.460938 14.644531-8.445313c1.664062-.953125 3.757812-.683594 5.121093.664063 1.355469 1.355469 1.644532 3.449219.699219 5.121093l-7.46875 13.0625.855469-.476562c1.324219-.839844 3-.890625 4.367188-.125 1.371093.761719 2.207031 2.214844 2.1875 3.785156-.019532 1.566406-.898438 2.996094-2.289063 3.722656l-14.507813 8.378907c-1.667968.96875-3.78125.699219-5.148437-.664063-1.371094-1.359375-1.65625-3.472656-.695313-5.148437l7.476563-13.082031-32.898437 18.96875c-1.882813 1.148437-4.328126.667968-5.644532-1.101563-1.3125-1.773437-1.058594-4.253906.585938-5.722656l10.085937-9.386719-28.160156 16.265625c-1.828125 1.140625-4.21875.742187-5.574219-.933594-1.359375-1.671875-1.253906-4.097656.242188-5.648437l17.679687-19.625-45.3125 26.152344c-1.878906 1.0625-4.257812.554687-5.535156-1.1875-1.277344-1.738282-1.054687-4.160157.519531-5.636719l18.636719-17.066407-41.457031 23.890626c-.65625.390624-1.410156.597656-2.175782.597656zm0 0" fill="#a38671"/><path d="m284.945312 502.96875c-1.878906 0-3.535156-1.226562-4.082031-3.023438-.546875-1.796874.144531-3.738281 1.699219-4.785156l27.15625-18.269531-36.941406 21.332031c-2.007813 1.105469-4.523438.429688-5.707032-1.53125-1.183593-1.957031-.613281-4.5 1.292969-5.761718l15.941407-10.097657-23.5 13.570313c-1.996094 1.097656-4.5.433594-5.695313-1.503906-1.191406-1.941407-.648437-4.476563 1.230469-5.757813l106.574218-69.191406-121.601562 70.214843c-2.023438 1.207032-4.640625.542969-5.847656-1.480468-1.207032-2.023438-.542969-4.644532 1.480468-5.851563l2.082032-1.277343-8.78125 5.066406c-2.007813 1.230468-4.636719.597656-5.867188-1.410156-1.230468-2.011719-.597656-4.636719 1.414063-5.867188l115.34375-74.617188-130.808594 75.519532c-1.925781 1.144531-4.40625.601562-5.683594-1.238282-1.273437-1.84375-.910156-4.355468.839844-5.757812l36.921875-30.269531-52.964844 30.578125c-1.972656 1.105468-4.464844.484375-5.683594-1.421875s-.742187-4.429688 1.089844-5.757813l11.898438-8.394531-19.96875 11.527344c-1.949219 1.109375-4.425782.519531-5.664063-1.347657-1.242187-1.867187-.824219-4.375.953125-5.742187l33.894532-25.71875-46.933594 27.117187c-1.945313 1.09375-4.402344.507813-5.640625-1.347656-1.238281-1.855468-.839844-4.347656.914062-5.726562l39.96875-30.71875-54.707031 31.574218c-1.984375 1.132813-4.507812.503907-5.726562-1.429687s-.699219-4.480469 1.179687-5.78125l79.257813-54.402344-95.320313 55.023438c-1.984375 1.101562-4.480469.453125-5.683594-1.472657-1.203125-1.925781-.6875-4.453124 1.171875-5.753906l67.25-45.414062-87.226562 50.34375c-1.996094 1.101562-4.5.4375-5.695313-1.5-1.191406-1.941406-.648437-4.476563 1.230469-5.761719l38.214844-24.796875-41.816406 24.132812c-1.976563 1.089844-4.460938.449219-5.664063-1.457031-1.207031-1.910156-.714844-4.425781 1.117187-5.746093l67.414063-46.003907-64.230469 37.078125c-2 1.101563-4.511718.433594-5.699218-1.515625s-.632813-4.488281 1.261718-5.761719l3.15625-2.039062c-2 .828125-4.304687.023438-5.359375-1.867188-1.050781-1.894531-.519531-4.277343 1.238281-5.539062l53.25-37.820312-50.007812 28.859374c-1.992188 1.179688-4.558594.554688-5.789062-1.40625-1.230469-1.960937-.671876-4.542968 1.257812-5.820312l16.460938-11.164062-12.84375 7.40625c-1.980469 1.15625-4.519532.535156-5.746094-1.402344-1.230469-1.9375-.707032-4.496094 1.183594-5.796875l13.652343-9.472657-10.035156 5.785157c-1.90625 1.09375-4.328125.5625-5.601563-1.226563-1.273437-1.789062-.980468-4.253906.675782-5.695312l29.867187-25.820313-26.359375 15.238281c-1.464844.855469-3.296875.757813-4.664062-.246093-1.371094-1.003907-2.011719-2.722657-1.640625-4.378907l1.878906-8.328124c-1.644531-.476563-2.84375-1.886719-3.046875-3.582032-.207031-1.695312.617188-3.351562 2.097656-4.207031l4.710938-2.722656c1.464844-.851563 3.296875-.753907 4.667968.25 1.367188 1 2.011719 2.71875 1.636719 4.375l-1.484375 6.585937 56.976563-32.878906c1.902343-1.070312 4.308593-.535156 5.574219 1.242188 1.265624 1.777343.988281 4.226562-.648438 5.671874l-29.867188 25.820313 60.832032-35.121094c1.984375-1.15625 4.523437-.535156 5.75 1.402344 1.230468 1.9375.707031 4.5-1.183594 5.796875l-13.652344 9.472656 24.378906-14.070312c1.992188-1.179688 4.5625-.558594 5.789063 1.40625 1.230469 1.960937.671875 4.542968-1.257813 5.820312l-16.460937 11.15625 27.308594-15.753906c1.96875-1.125 4.476562-.511719 5.703125 1.398438 1.226562 1.910156.746094 4.441406-1.097656 5.769531l-53.246094 37.820312 71.246094-41.132812c1.992187-1.054688 4.460937-.375 5.636718 1.546875 1.175782 1.925781.648438 4.433594-1.203125 5.722656l-2.558593 1.707031 11.511718-6.65625c1.988282-1.152343 4.53125-.523437 5.753906 1.421875 1.222657 1.945313.6875 4.507813-1.214843 5.800782l-67.414063 46.019531 85.539063-49.375c1.992187-1.070313 4.472656-.398438 5.65625 1.527343 1.179687 1.929688.65625 4.445313-1.203125 5.734376l-38.277344 24.765624 50.574219-29.195312c1.984375-1.085938 4.46875-.4375 5.667969 1.476562 1.199218 1.917969.699218 4.433594-1.144532 5.742188l-67.234375 45.390625 84.652344-48.871094c1.984375-1.132812 4.507813-.503906 5.726563 1.429688 1.21875 1.929687.699218 4.480469-1.179688 5.78125l-79.25 54.410156 16.011719-9.242187c1.941406-1.09375 4.398437-.507813 5.636719 1.347656 1.242187 1.851562.84375 4.347656-.910157 5.726562l-39.980469 30.71875 49.828126-28.757812c1.945312-1.085938 4.402343-.488282 5.632812 1.367187 1.234375 1.859375.828125 4.355469-.933594 5.726563l-33.902344 25.734375 42.53125-24.542969c1.972657-1.105469 4.464844-.484375 5.683594 1.421875s.738282 4.429687-1.09375 5.757813l-11.867187 8.378906 16.757812-9.675782c1.925781-1.121093 4.386719-.570312 5.65625 1.261719 1.265625 1.828125.910157 4.328125-.816406 5.734375l-36.917969 30.265625 231.707032-133.785156c2-1.117187 4.523437-.457031 5.71875 1.496094 1.195312 1.953125.636718 4.5-1.265626 5.777343l-115.386718 74.648438 125.910156-72.695312c2.011719-1.089844 4.523438-.402344 5.699219 1.5625 1.171875 1.964843.585937 4.507812-1.332031 5.757812l-2.242188 1.382812h.074219c1.992187-1.070312 4.472656-.398437 5.65625 1.527344 1.183593 1.929688.65625 4.441406-1.199219 5.734375l-106.554688 69.152344 63.035157-36.394531c2.003906-1.101563 4.523437-.425782 5.707031 1.53125 1.183594 1.960937.613281 4.503906-1.296875 5.765625l-48.640625 30.78125c.863281.324219 1.59375.925781 2.082031 1.707031 1.222657 1.949219.679688 4.515625-1.226562 5.800781l-55.46875 37.308594c.566406.363281 1.035156.855469 1.367187 1.441406 1.171875 2.039063.472656 4.640625-1.5625 5.820313l-74.972656 43.289062c-.644531.378906-1.371094.582032-2.117188.589844zm0 0" fill="#a38671"/><g fill="#262626"><path d="m211.097656 221.136719c12.988282 2.296875 21.777344-5.117188 29.269532 9.386719 4.214843 8.167968-1.964844 25.191406 0 34.132812 3.003906 13.757812 5.820312 18.417969 20.480468 13.835938 10.367188-3.246094 18.773438-15.097657 26.453125-22.1875 9.566407-8.832032 19.308594-17.519532 28.714844-26.53125 9.257813-8.875 6.109375-7.285157 11.355469-8.617188 19.5-4.960938 45.910156 0 66.007812 0 26.214844 0 53.152344 1.707031 79.308594 0 34.566406-2.304688 36.042969-17.683594 36.042969-49.367188v-151.203124c-8.019531-29.457032-61.164063-18.046876-83.992188-18.046876h-164.0625c-16.921875 0-57.011719-7.132812-68.609375 11.488282-5.167968 8.300781-2.898437 22.800781-2.898437 31.84375v84.335937c0 27.265625-13.679688 84.640625 21.929687 90.929688zm-9.574218-200.035157c5.878906-18.085937 15.574218-13.289062 31.164062-13.289062h149.476562c21.230469 0 105.949219-14.234375 114.203126 16.085938v106.308593c0 24.847657 10.582031 76.9375-15.726563 85.648438-15.496094 5.121093-41.710937 0-58.027344 0h-73.582031c-17.683594 0-25.941406.050781-39.929688 10.648437-15.664062 11.886719-28.558593 33.445313-45.949218 42.472656-10.097656 5.238282-5.667969 9.386719-10.429688-2.773437-3.730468-9.550781 2.117188-24.125 0-34.132813-2.558594-12.289062-1.441406-12.324218-13.398437-16.214843-16.59375-5.367188-26.078125 11.988281-37.800781-16.339844-1.3125-3.183594.632812-8.109375 0-11.496094-7.578126-41.257812 0-90.894531 0-132.878906 0-9.660156-3.003907-24.789063 0-34.039063zm0 0"/><path d="m12.21875 466.777344c15.140625 7.742187 42.667969 1.9375 59.207031 1.835937 1.113281.128907 2.246094.054688 3.335938-.222656 15.144531-3.0625 21.332031-9.546875 23.492187-21.972656 15.257813-.308594 31.375 7.867187 45.226563 12.296875l83.292969 26.648437c30.992187 9.917969 62.292968 27.539063 92.484374 8.03125 37.546876-24.242187 71.59375-57.394531 106.425782-85.332031 22.625-18.136719 75.019531-44.800781 82.773437-75.511719.058594-.125.101563-.253906.128907-.386719 0-.144531.101562-.28125.136718-.425781s-.058594-.253906-.050781-.410156c.007813-.152344.09375-.316406 0-.484375-6.296875-24.515625-28.859375-21.042969-52.480469-10.011719-31.417968-23.703125-76.484375 3.5-109.746094 17.253907l-1.074218-.167969c-48.148438-8.148438-96.292969-16.375-144.445313-24.6875-39.578125-6.757813-66.851562 2.320312-101.792969 17.132812-.300781-10.332031-7.96875-18.960937-18.195312-20.480469-17.785156-2.453124-35.820312-2.476562-53.613281-.066406-15.921875 1.828125-23.894531 8.738282-25.890625 24.671875-3.226563 25.691407 0 53.828125 0 79.714844 0 14.976563-5.699219 44.144531 10.785156 52.574219zm297.472656-60.933594c-19.566406 7.097656-39.644531-8.484375-57.660156-21.222656 32 1.296875 66.75 4.855468 97.28125.152344l-8.945312 5.050781c-3.574219 2.023437-7.882813 4.957031-12.464844 7.988281-5.914063 3.023438-11.992188 5.703125-18.210938 8.03125zm82.773438-80.855469c19.3125-7.304687 35.542968-14.234375 53.667968 1.007813-19.800781 10.71875-38.8125 24.695312-48.070312 29.933594-6.441406 3.636718-13.019531 7.679687-19.6875 11.886718 1.921875-3.355468 2.167969-7.417968.667969-10.980468-2.644531-12.988282-16.734375-16.214844-27.640625-17.921876 13.398437-5.453124 27.109375-10.105468 41.0625-13.925781zm-277.820313 5.972657c20.679688-10.257813 43.75-14.734376 66.765625-12.953126 35.78125 3.363282 71.851563 12.273438 107.273438 18.3125 15.925781 1.335938 31.710937 4.03125 47.179687 8.066407 2.21875.808593 5.230469.136719 7.332031 1.210937 13.207032 6.773438 21.878907 25.128906 7.535157 31.488282-4.265625 1.652343-8.777344 2.578124-13.347657 2.738281-7.910156-.488281-16.015624-1.605469-20.890624-1.605469h-13.796876c-6.46875-.605469-12.449218-1.132812-17.066406-1.132812h-46.507812c-.660156.054687-1.316406.171874-1.953125.355468h-32.085938c-2.175781 0-7.238281.855469-8.191406 3.253906-.957031 2.398438.851563 3.148438 3.222656 3.148438h31.984375c17.015625 10.667969 41.078125 34.132812 61.976563 34.492188 13.65625.222656 28.417969-11.613282 39.5625-17.921876l20.042969-11.324218c9.5-5.222656 18.945312-10.589844 28.347656-16.023438l40.550781-22.90625c13.507813-7.679687 65.375-46.078125 73.625-16.398437-5.785156 23.414062-44.601563 43.449219-61.71875 57.171875l-95.003906 76.167968c-20.019531 16.042969-32.273438 30.933594-60.015625 25.910157-34.5-6.25-69.816406-22.34375-103.191406-33.007813-20.4375-6.546875-54.75-10.359375-72.875-21.546875-5.769532-3.566406-.101563 5.699219-4.265626-.855469.671876-15.503906.546876-31.128906.316407-46.734374.28125-12.101563.433593-24.226563-.265625-36.15625.179687-5.582032.597656-11.546876.46875-17.289063 1.824218-2.125 5.972656-2.578125 14.949218-6.460937zm-96.339843-12.609376c7.40625-7.222656 41.171874-5.976562 51.523437-3.371093 10.433594 1.53125 17.941406 10.808593 17.273437 21.332031-.261718.3125-.410156.703125-.429687 1.109375 0 35.613281.03125 71.226563.085937 106.835937-.011718.574219.175782 1.136719.53125 1.589844-1.785156 9.496094-4.855468 16.210938-9.867187 17.535156-15.125 1.621094-30.378906 1.601563-45.5-.058593-21.28125-4.585938-18.132813-20.386719-18.132813-37.027344v-62.105469c0-11.417968-4.46875-37.042968 4.515626-45.839844zm0 0"/><path d="m300.5625 118.667969c3.335938 3.339843 15.078125-1.390625 11.433594-5.03125l-32.582032-32.625 31.890626-31.886719c5.230468-5.234375-6.828126-5.789062-10.050782-2.5625l-34.136718 34.132812c-.929688.929688-1.851563 2.628907-.691407 3.796876 11.386719 11.378906 22.761719 22.769531 34.136719 34.175781zm0 0"/><path d="m417.960938 82.609375c-10.523438 10.511719-21.046876 21.035156-31.570313 31.570313-5.496094 5.496093 6.347656 7.953124 10.410156 3.894531 11.378907-11.378907 22.753907-22.757813 34.132813-34.136719 1.261718-1.261719 1.445312-3.242188.445312-4.71875l-34.136718-34.132812c-4.085938-4.085938-15.757813 1.074218-11.296876 5.546874zm0 0"/><path d="m346.65625 115.589844 17.070312-68.265625c1.433594-5.726563-11.1875-4.191407-12.496093 1.039062-5.6875 22.757813-11.375 45.511719-17.066407 68.265625-1.433593 5.726563 11.1875 4.191406 12.492188-1.039062zm0 0"/><path d="m428.03125 150.789062c-.375 3.167969 3.371094 3.703126 5.625 3.703126h17.066406c2.558594 0 6.527344-1.96875 6.824219-4.796876.378906-3.171874-3.367187-3.703124-5.621094-3.703124h-17.066406c-2.507813-.015626-6.484375 1.972656-6.828125 4.796874zm0 0"/><path d="m389.222656 153.800781c4.71875 0 13.097656-7.117187 4.777344-7.117187h-145.066406c-4.71875 0-13.097656 7.117187-4.777344 7.117187zm0 0"/><path d="m453.640625 180.460938h-8.535156c-3.136719-.300782-6.203125 1.042968-8.113281 3.546874-1.296876 2.519532 1.109374 4.269532 3.523437 4.269532h8.535156c3.136719.296875 6.203125-1.042969 8.113281-3.550782 1.296876-2.5-1.109374-4.265624-3.523437-4.265624zm0 0"/><path d="m410.921875 180.253906h-102.398437c-5.445313 0-12.800782 8.246094-4.480469 8.246094h102.398437c5.4375 0 12.808594-8.246094 4.480469-8.246094zm0 0"/><path d="m272.769531 180.109375h-25.601562c-6.828125 0-9.660157 8.535156-1.238281 8.535156h25.601562c6.859375 0 9.652344-8.535156 1.238281-8.535156zm0 0"/><path d="m41.191406 351.007812h17.066406c2.660157 0 6.511719-2.058593 6.824219-4.976562.335938-3.226562-3.292969-4.019531-5.707031-4.019531h-17.066406c-2.664063 0-6.511719 2.058593-6.828125 4.976562-.332031 3.226563 3.296875 4.019531 5.710937 4.019531zm0 0"/><path d="m41.207031 436.410156h17.066407c2.6875 0 6.503906-2.082031 6.828124-5.027344.332032-3.242187-3.269531-4.105468-5.726562-4.105468h-17.066406c-2.6875 0-6.503906 2.082031-6.828125 5.027344-.332031 3.242187 3.269531 4.105468 5.726562 4.105468zm0 0"/></g></svg>