<svg height="509pt" viewBox="0 -1 509.44289 509" width="509pt" xmlns="http://www.w3.org/2000/svg"><path d="m47.039062 405.1875c-1.914062 0-3.589843-1.273438-4.109374-3.113281-.515626-1.84375.257812-3.800781 1.890624-4.796875l51.507813-31.335938-66.9375 38.640625c-2.015625 1.097657-4.539063.402344-5.710937-1.574219-1.167969-1.976562-.5625-4.523437 1.367187-5.765624l31.632813-19.113282-38.980469 22.511719c-2.023438 1.207031-4.640625.542969-5.847657-1.480469-1.207031-2.023437-.542968-4.644531 1.480469-5.851562l150.902344-93.011719-152.984375 88.300781c-2.023438 1.152344-4.59375.472656-5.78125-1.53125-1.1875-2-.550781-4.585937 1.429688-5.804687l76.875-46.652344-72.746094 41.984375c-2.007813 1.070312-4.503906.378906-5.671875-1.574219s-.597657-4.476562 1.292969-5.738281l176.921874-109.628906-172.550781 99.59375c-2.015625 1.058594-4.507812.355468-5.664062-1.605469s-.574219-4.484375 1.328125-5.734375l48.410156-29.246094-44.074219 25.40625c-2.011719 1.089844-4.527343.398438-5.699219-1.566406-1.171874-1.964844-.585937-4.503906 1.328126-5.757812l161.339843-99.566407-156.96875 90.625c-2.007812 1.058594-4.492187.359375-5.65625-1.589843-1.160156-1.953126-.59375-4.46875 1.296875-5.730469l141.925782-87.152344-137.566407 79.359375c-2.023437 1.207031-4.644531.542969-5.851562-1.480469-1.203125-2.023437-.542969-4.640625 1.480469-5.847656l160.546874-99.191406-156.175781 90.171875c-2.015625 1.160156-4.589843.496094-5.789062-1.5-1.199219-1.992188-.578125-4.578125 1.394531-5.8125l183.203125-115.097656-178.808594 103.234374c-2.023437 1.207032-4.644531.542969-5.851562-1.480468-1.203125-2.023438-.542969-4.644532 1.480469-5.847656l106.097656-65.519532-101.734375 58.75c-2.003907 1.058594-4.484375.363282-5.648438-1.578125-1.167969-1.941406-.613281-4.453125 1.261719-5.726562l118.511719-74.066407-114.125 65.882813c-2.015625 1.136719-4.570313.460937-5.757813-1.527344-1.1875-1.984375-.574218-4.554687 1.378906-5.792969l68.828126-42.667968-64.449219 37.25c-2.019531 1.21875-4.640625.570312-5.859375-1.445313-1.21875-2.019531-.570313-4.640625 1.445312-5.859375l100.636719-63.734375-96.222656 55.550781c-2 1.097657-4.511719.429688-5.699219-1.519531s-.632812-4.484375 1.261719-5.761719l96.109375-61.695312-91.671875 52.90625c-1.992188 1.085938-4.484375.421875-5.671875-1.507812-1.191406-1.929688-.664063-4.453126 1.199218-5.742188l96.042969-63.199219-91.570312 52.90625c-2 1.15625-4.554688.515625-5.769531-1.445312-1.214844-1.964844-.648438-4.539063 1.28125-5.808594l74.109374-49.058594-69.628906 40.191407c-1.996094 1.117187-4.515625.464843-5.714844-1.480469-1.199218-1.941407-.65625-4.488281 1.234376-5.769531l48.433593-32.035157-43.953125 25.34375c-1.992187 1.082031-4.484375.421875-5.671875-1.507812-1.191406-1.929688-.664062-4.453125 1.199219-5.746094l19.890625-13.039063-15.417969 8.933594c-1.980468 1.136719-4.503906.515625-5.726562-1.410156s-.714844-4.472656 1.152344-5.78125l39.96875-27.921875-35.394532 20.429687c-1.945312 1.078126-4.394531.484376-5.625-1.367187-1.230468-1.851563-.835937-4.339844.914063-5.714844l38.578125-29.40625-33.867188 19.546875c-1.929687 1.074219-4.355468.5-5.597656-1.320312-1.242188-1.820313-.898438-4.285156.800781-5.691406l22.375-17.921876-17.578125 10.15625c-1.808594 1.046876-4.109375.632813-5.4375-.980468-1.328125-1.613282-1.292968-3.953125.085938-5.523438l16.390625-18.773437-11.09375 6.375c-1.722657.996093-3.910157.664062-5.261719-.800781-1.351562-1.460938-1.511719-3.667969-.386719-5.308594l7.050781-10.582032c-.171874-.195312-.324218-.40625-.453124-.632812-.574219-.980469-.730469-2.152344-.4375-3.25.292968-1.101562 1.011718-2.035156 2-2.601562l5.972656-3.414063c1.714844-.996094 3.894531-.679687 5.253906.769531 1.359375 1.445313 1.539062 3.636719.4375 5.289063l-2.714844 4.070312 17.605469-10.128906c1.804687-1.039063 4.09375-.621094 5.417969.984375 1.324218 1.609375 1.296875 3.9375-.066406 5.507812l-16.375 18.773438 43.738281-25.265625c1.929687-1.070313 4.351562-.5 5.597656 1.320313 1.242187 1.820312.898437 4.289062-.800781 5.695312l-22.40625 17.9375 43.3125-25.003906c1.945312-1.101563 4.414062-.511719 5.652344 1.347656 1.242187 1.859375.832031 4.363281-.933594 5.734375l-38.578125 29.40625 63.222656-36.496094c1.980469-1.136719 4.5-.515625 5.726563 1.410157 1.222656 1.925781.714843 4.472656-1.152344 5.78125l-40.003906 27.9375 60.886718-35.136719c1.992188-1.117188 4.511719-.464844 5.710938 1.480469 1.203125 1.941406.65625 4.488281-1.230469 5.769531l-19.859375 13.015625 35.125-20.277344c1.984375-1.070312 4.464844-.40625 5.652344 1.515625 1.1875 1.917969.671875 4.429687-1.171875 5.730469l-48.429688 32.007812 68.019531-39.253906c1.992188-1.097656 4.492188-.441406 5.691407 1.488281 1.195312 1.933594.667969 4.464844-1.203125 5.757813l-74.050782 49.023437 97.484376-56.320312c1.992187-1.113281 4.511718-.460938 5.714843 1.484375 1.199219 1.941406.65625 4.488281-1.234375 5.769531l-96.015625 63.148437 122.023438-70.445312c2-1.097656 4.511719-.429688 5.699219 1.519531 1.191406 1.949219.632812 4.488281-1.261719 5.761719l-96.21875 61.824219 119.601562-69.054688c2.007813-1.144531 4.566407-.484375 5.765625 1.496094 1.199219 1.976563.601563 4.550781-1.34375 5.800781l-100.585937 63.703125 122.992187-71.007812c2.011719-1.105469 4.539063-.425781 5.71875 1.542969 1.179688 1.96875.589844 4.519531-1.332031 5.769531l-68.90625 42.667969 86.613281-49.988282c2.003906-1.085937 4.511719-.402344 5.6875 1.550782 1.175782 1.957031.605469 4.492187-1.292968 5.753906l-118.476563 74.042968 140.917969-81.355468c2.015625-1.136719 4.570312-.457032 5.757812 1.527344 1.1875 1.984374.574219 4.554687-1.378906 5.792968l-106.121094 65.519532 126.183594-72.847657c2.003906-1.085937 4.511719-.402343 5.6875 1.550781 1.175781 1.953126.605469 4.488282-1.292969 5.753907l-183.117187 115.046875 204.671875-118.171875c2.023437-1.207031 4.644531-.542969 5.847656 1.480469 1.207031 2.023437.546875 4.644531-1.480469 5.851562l-160.628906 99.265625 162.636719-93.867187c2.011719-1.089844 4.523437-.398438 5.695312 1.566406 1.175781 1.964844.589844 4.503906-1.328125 5.757812l-141.898437 87.105469 137.511719-79.359375c2.027343-1.207031 4.644531-.542969 5.851562 1.480469 1.207031 2.027343.542969 4.644531-1.480469 5.851562l-161.296875 99.539063 157.011719-90.628906c2.03125-1.203126 4.648437-.527344 5.847656 1.5 1.199219 2.027343.527344 4.644531-1.503906 5.84375l-48.417969 29.269531 44.074219-25.4375c2.007813-1.070313 4.503906-.378907 5.671875 1.574219 1.167969 1.953124.601562 4.476562-1.292969 5.738281l-176.84375 109.585937 172.421875-99.550781c2.03125-1.199219 4.648438-.527344 5.847656 1.503906 1.199219 2.027344.527344 4.644531-1.503906 5.84375l-77.226562 46.875 72.894531-42.070312c2.007813-1.089844 4.523437-.398438 5.695313 1.566406 1.171874 1.964844.585937 4.503906-1.328126 5.757813l-150.84375 93.011718 146.476563-84.558594c2.011719-1.058593 4.503906-.355468 5.660156 1.605469 1.160157 1.960938.574219 4.484375-1.328125 5.734375l-31.820312 19.199219 27.488281-15.863281c2.007813-1.042969 4.484375-.335938 5.636719 1.609375 1.15625 1.949219.585937 4.460937-1.296875 5.722656l-51.523438 31.34375 47.183594-27.238281c2.015625-1.136719 4.566406-.460938 5.753906 1.527344 1.1875 1.984374.574219 4.554687-1.378906 5.792968l-118.160156 73.402344 113.785156-65.707031c2.007813-1.148438 4.566406-.484375 5.765625 1.496093 1.199219 1.976563.601562 4.550782-1.347656 5.800782l-149.195313 95.105468 144.777344-83.628906c2.003906-1.121094 4.535156-.453125 5.726563 1.507813 1.191406 1.964843.617187 4.519531-1.300782 5.78125l-122.09375 78.046875 117.667969-67.933594c1.996094-1.101562 4.507813-.433594 5.699219 1.515625 1.1875 1.949219.628906 4.488281-1.265625 5.761719l-105.613281 68.078125 101.179687-58.410157c1.996094-1.070312 4.480469-.390624 5.65625 1.542969 1.179687 1.9375.636719 4.453125-1.230469 5.734375l-73.335937 47.019532 68.910156-39.773438c2-1.070312 4.488281-.386719 5.664063 1.558594 1.171874 1.945312.617187 4.464844-1.261719 5.738281l-18.238281 11.484375 13.84375-7.984375c1.992187-1.070313 4.472656-.402344 5.652343 1.527344 1.183594 1.925781.65625 4.441406-1.199219 5.734375l-49.492187 32.175781 45.082031-26.015625c1.976563-1.117188 4.488282-.488281 5.703125 1.433594 1.214844 1.921875.710938 4.457031-1.148437 5.769531l-68.15625 47.035156 63.601562-36.695312c1.980469-1.085938 4.464844-.4375 5.664063 1.476562 1.199219 1.914063.699219 4.433594-1.144531 5.742188l-34.984376 23.722656 30.4375-17.570313c1.972657-1.15625 4.507813-.550781 5.746094 1.371094 1.238282 1.921875.742188 4.480469-1.128906 5.796875l-35.207031 25.105469 30.566406-17.664062c1.957031-1.121094 4.449219-.523438 5.6875 1.367187 1.238281 1.886719.789063 4.410156-1.023437 5.757813l-22.183594 16.375 17.550781-10.136719c1.898437-1.101563 4.324219-.582031 5.605469 1.203125 1.28125 1.78125 1 4.242187-.648438 5.691406l-22.925781 20.269531 17.96875-10.371093c1.832031-1.046876 4.152344-.601563 5.460937 1.050781 1.3125 1.648437 1.222657 4.011719-.210937 5.554687l-9.917969 10.589844 4.667969-2.695312c2.027344-1.058594 4.527344-.335938 5.671875 1.644531s.527344 4.511719-1.402344 5.738281l-29.59375 17.066406c-1.832031 1.046875-4.152344.601563-5.464844-1.050781-1.308593-1.648437-1.21875-4.011719.214844-5.554687l9.917969-10.582032-29.816406 17.203125c-1.894531 1.082031-4.300781.554688-5.578125-1.214843-1.273438-1.769532-1.007813-4.214844.621094-5.671876l22.917968-20.265624-47.0625 27.152343c-1.957031 1.128907-4.457031.535157-5.699218-1.355469-1.238282-1.894531-.785157-4.425781 1.035156-5.769531l22.183594-16.339843-40.660157 23.464843c-1.972656 1.15625-4.507812.554688-5.746093-1.371093-1.238282-1.921876-.742188-4.480469 1.128906-5.796876l35.191406-25.128906-55.945312 32.296875c-1.980469 1.085938-4.464844.4375-5.664063-1.476562-1.199219-1.914063-.699219-4.433594 1.144531-5.742188l34.984375-23.730469-53.632812 30.949219c-1.972657 1.078125-4.445313.4375-5.648438-1.460937-1.203125-1.902344-.726562-4.410156 1.09375-5.734375l68.171875-47.042969-93.960937 54.238281c-1.992188 1.070313-4.472657.398438-5.652344-1.527343-1.183594-1.929688-.65625-4.445313 1.199219-5.734376l49.5625-32.203124-68.363282 39.464843c-2.003906 1.101563-4.523437.425781-5.707031-1.53125-1.183593-1.957031-.609375-4.5 1.296875-5.765625l18.253906-11.476562-32.539062 18.773437c-1.996094 1.070313-4.480469.390625-5.660156-1.542969-1.175782-1.9375-.636719-4.453124 1.230468-5.734374l73.3125-47.003907-94.039062 54.28125c-1.992188 1.054688-4.464844.378907-5.640625-1.546875-1.171875-1.925781-.648437-4.433594 1.203125-5.722656l105.609375-68.046875-130.457031 75.316406c-2 1.070313-4.484375.390625-5.660156-1.542969-1.175782-1.9375-.636719-4.453124 1.230468-5.734374l122.144532-78.054688-147.789063 85.332031c-2.003906 1.121094-4.535156.453125-5.726563-1.507812-1.191406-1.960938-.617187-4.515625 1.300782-5.78125l149.210937-95.109375-177.414062 102.398437c-2.011719 1.105469-4.539063.425781-5.71875-1.542969-1.179688-1.96875-.59375-4.519531 1.332031-5.769531l118.21875-73.386719-139.824219 80.699219c-.65625.390625-1.40625.601563-2.167969.605469zm0 0" fill="#a9b0bb"/><path d="m169.917969 405.433594c-1.898438 0-3.570313-1.257813-4.09375-3.082032-.527344-1.828124.21875-3.78125 1.824219-4.792968l55.542968-34.917969-58.5625 33.773437c-2.003906 1.085938-4.5.410157-5.683594-1.535156-1.179687-1.949218-.625-4.476562 1.261719-5.75l93.234375-59.496094-88.8125 51.277344c-2.003906 1.121094-4.535156.453125-5.730468-1.507812-1.191407-1.960938-.617188-4.515625 1.300781-5.78125l100.410156-64.347656-95.980469 55.414062c-2 1.101562-4.511718.433594-5.699218-1.515625s-.632813-4.488281 1.261718-5.761719l108.210938-69.734375-103.773438 59.929688c-2.003906 1.164062-4.570312.519531-5.78125-1.457031-1.214844-1.972657-.628906-4.554688 1.316406-5.8125l126.207032-82.476563-121.742188 70.28125c-1.996094 1.082031-4.492187.414063-5.675781-1.523437-1.1875-1.9375-.644531-4.464844 1.230469-5.746094l112.40625-72.636719-107.960938 62.292969c-2.011718 1.175781-4.59375.527344-5.804687-1.460938-1.210938-1.988281-.601563-4.582031 1.367187-5.828125l106.390625-68.445312-101.953125 58.855469c-2.007812 1.101562-4.523437.425781-5.707031-1.53125-1.183594-1.957032-.613281-4.5 1.292969-5.765626l78.507812-49.671874-74.070312 42.753906c-1.996094 1.082031-4.488282.410156-5.675782-1.527344-1.183593-1.9375-.644531-4.460938 1.230469-5.746094l116.378907-75.382812-111.957032 64.605468c-2.007812 1.089844-4.511718.402344-5.691406-1.550781-1.175781-1.953125-.605469-4.488281 1.296875-5.753906l51.976563-32.535156-47.582032 27.476562c-2.019531 1.21875-4.640625.570313-5.859375-1.445312-1.21875-2.019531-.570312-4.640625 1.445313-5.859375l77.332031-48.921875-72.917969 42.105469c-2.003906 1.117187-4.535156.453124-5.730468-1.511719-1.191407-1.960938-.617188-4.515625 1.300781-5.777344l86.1875-55.238281-81.757813 47.183594c-2.003906 1.140624-4.550781.480468-5.753906-1.484376-1.199219-1.96875-.621094-4.535156 1.308594-5.796874l71.679687-46.324219-67.269531 38.824219c-1.992188 1.085937-4.480469.421874-5.671875-1.507813-1.1875-1.929687-.664063-4.453125 1.199219-5.746094l65.453125-43.007812-60.945313 35.199219c-2.003906 1.121093-4.535156.457031-5.730468-1.507813-1.191407-1.960937-.617188-4.515625 1.300781-5.777344l11.835937-7.570312-7.40625 4.265625c-1.992187 1.085937-4.484375.421875-5.671875-1.507813-1.191406-1.929687-.664062-4.453125 1.199219-5.742187l25.445312-16.710938-20.972656 12.109375c-1.988281 1.152344-4.53125.527344-5.753906-1.417969-1.222656-1.945312-.6875-4.507812 1.214844-5.800781l33.003906-22.519531-28.464844 16.433594c-1.960937 1.125-4.453125.527344-5.691406-1.363282-1.238281-1.886718-.789062-4.414062 1.023438-5.761718l38.210937-28.21875-33.542969 19.363281c-1.9375 1.074219-4.371094.488281-5.609375-1.347656-1.238281-1.832031-.867187-4.308594.855469-5.703125l25.25-19.746094-20.496094 11.792969c-1.921875 1.09375-4.359375.539062-5.621094-1.277344-1.257812-1.820313-.917968-4.296875.78125-5.710937l11.253907-9.222657-6.414063 3.703125c-1.820312 1.046875-4.132812.613282-5.449218-1.019531-1.320313-1.636719-1.253907-3.988281.15625-5.542969l8.535156-9.4375-3.277344 1.886719c-1.5.863281-3.371094.734375-4.738281-.320313-1.367188-1.054687-1.964844-2.835937-1.507813-4.503906l2.234375-8.097656c-.761719-.371094-1.394531-.964844-1.808593-1.707031-1.171876-2.035157-.480469-4.636719 1.554687-5.816407l4.265625-2.46875c1.5-.867187 3.375-.742187 4.746094.316407 1.367187 1.054687 1.964844 2.835937 1.507812 4.503906l-1.519531 5.496094 17.921875-10.339844c1.816406-1.039063 4.117188-.601563 5.433594 1.027344 1.3125 1.625 1.253906 3.964843-.144532 5.523437l-8.53125 9.472656 27.722657-16.023437c1.921875-1.09375 4.359375-.539063 5.621093 1.277344 1.257813 1.820312.917969 4.296875-.78125 5.710937l-11.246093 9.230469 28.160156-16.210937c1.933594-1.074219 4.371094-.492188 5.605469 1.34375 1.238281 1.835937.867187 4.3125-.855469 5.703124l-25.265625 19.765626 46.550781-26.871094c1.957031-1.125 4.453125-.527344 5.6875 1.363281 1.238281 1.886719.789063 4.414063-1.019531 5.761719l-38.207031 28.199218 61.238281-35.359374c1.988281-1.21875 4.589844-.609376 5.832031 1.367187 1.242188 1.972656.671875 4.578125-1.285156 5.851563l-33.101563 22.5625 51.628907-29.800782c1.996093-1.132812 4.535156-.484375 5.742187 1.472656 1.203125 1.957032.640625 4.519532-1.273437 5.789063l-25.375 16.683594 41.511719-23.96875c2.003906-1.121094 4.535156-.453125 5.730468 1.507812 1.191406 1.960938.617188 4.515625-1.300781 5.777344l-11.828125 7.5625 25.753906-14.867187c2-1.132813 4.539063-.484376 5.742188 1.472656 1.207031 1.957031.644531 4.519531-1.269532 5.792968l-65.460937 43.015626 87.136719-50.347657c2.003906-1.140625 4.550781-.484375 5.75 1.484375 1.203125 1.96875.625 4.53125-1.304688 5.792969l-71.679687 46.328125 92.839843-53.589844c2.011719-1.175781 4.59375-.523437 5.804688 1.464844s.601562 4.578125-1.367188 5.824219l-86.195312 55.269531 96.597656-55.773438c2.019532-1.21875 4.640625-.570312 5.859375 1.445313 1.21875 2.019531.570313 4.640625-1.445312 5.859375l-77.226563 48.84375 72.8125-42.027344c2.007813-1.085937 4.511719-.402344 5.691406 1.554688 1.175782 1.953125.605469 4.488281-1.296874 5.75l-52.121094 32.640625 47.726562-27.542969c1.996094-1.085938 4.492188-.414062 5.675782 1.523438 1.1875 1.9375.644531 4.460937-1.230469 5.746093l-116.402344 75.390625 111.957031-64.605468c2.007813-1.101563 4.523438-.425782 5.707032 1.53125 1.183593 1.957031.613281 4.5-1.292969 5.765624l-78.378907 49.613282 73.964844-42.667969c2-1.101563 4.511719-.429687 5.699219 1.519531 1.1875 1.945313.632813 4.484375-1.261719 5.757813l-106.425781 68.449219 102-58.882813c2-1.140625 4.546875-.480469 5.75 1.484375 1.203125 1.96875.625 4.535156-1.304687 5.796875l-112.410157 72.667969 107.964844-62.292969c2-1.164063 4.566406-.519531 5.777344 1.457031 1.214843 1.972656.628906 4.554688-1.316407 5.8125l-126.207031 82.476563 121.746094-70.289063c1.996094-1.101562 4.507813-.429687 5.699219 1.515625 1.1875 1.949219.628906 4.488281-1.265625 5.761719l-108.199219 69.71875 103.765625-59.914062c2.003906-1.117188 4.535156-.453126 5.726563 1.507812 1.191406 1.964844.617187 4.519531-1.300782 5.78125l-100.402344 64.273438 95.976563-55.40625c2-1.085938 4.5-.410157 5.679687 1.535156 1.179688 1.949218.625 4.476562-1.261718 5.75l-93.242188 59.488281 88.824219-51.277344c1.996094-1.042969 4.464844-.351562 5.625 1.582031 1.164063 1.929688.625 4.433594-1.230469 5.714844l-55.546875 34.917969 51.152344-29.527344c2.007813-1.175781 4.589844-.527343 5.800781 1.460938 1.210938 1.992187.601563 4.582031-1.367187 5.828125l-74.101563 47.707031 69.667969-40.222656c1.988281-1.058594 4.453125-.386719 5.632813 1.53125 1.183593 1.917969.667968 4.421875-1.171876 5.71875l-68.691406 44.972656 64.230469-37.078125c1.992187-1.132812 4.523437-.488281 5.734375 1.457031 1.207031 1.949219.660156 4.503907-1.238281 5.789063l-58.027344 38.59375 53.546875-30.90625c1.972656-1.109375 4.464844-.484375 5.683594 1.421875 1.21875 1.902343.738281 4.429687-1.09375 5.753906l-62.515625 44.09375 57.925781-33.433594c2.003906-1.199219 4.597656-.566406 5.824219 1.417969 1.222656 1.988281.625 4.589844-1.34375 5.84375l-3.335938 2.183594c1.964844-.464844 3.984375.511718 4.84375 2.339844.859375 1.828124.316407 4.007812-1.296875 5.21875l-37.605468 28.308593 32.914062-19.003906c1.914062-1.082031 4.335938-.53125 5.59375 1.273437 1.257812 1.800782.941406 4.261719-.730469 5.6875l-26.871093 22.476563 22.007812-12.695313c1.847656-1.003906 4.148438-.515624 5.425781 1.15625 1.277344 1.671876 1.148438 4.023438-.304687 5.542969l-14.507813 14.605469 9.335938-5.390625c1.761719-1.007813 3.992187-.632813 5.328125.898437 1.335937 1.527344 1.410156 3.785157.175781 5.398438l-5.011719 6.492188c1.714844.386718 3.011719 1.78125 3.277344 3.515624.265625 1.734376-.554688 3.457032-2.070312 4.335938l-13.816407 7.980469c-1.765625 1.023437-4.011719.65625-5.355469-.882813-1.34375-1.539062-1.410156-3.8125-.15625-5.425781l3.171876-4.121094-18.285157 10.566407c-1.847656 1.003906-4.152343.511718-5.429687-1.160157-1.273438-1.667969-1.144532-4.019531.308594-5.539062l14.507812-14.625-36.976562 21.332031c-1.914063 1.097656-4.351563.554688-5.617188-1.257812-1.265625-1.808594-.941406-4.28125.746094-5.707032l26.871094-22.46875-51.054688 29.46875c-1.953125 1.117188-4.4375.527344-5.679688-1.347656-1.242187-1.875-.8125-4.394531.976563-5.753906l37.625-28.246094-61.339844 35.40625c-2 1.199219-4.597656.566406-5.820312-1.421875-1.226563-1.984375-.628907-4.589844 1.339843-5.839844l.90625-.589843-13.652343 7.867187c-1.972657 1.109375-4.464844.484375-5.683594-1.417969-1.21875-1.90625-.742187-4.429687 1.089844-5.757812l62.484375-44.074219-88.824219 51.285156c-1.996094 1.1875-4.578125.558594-5.804687-1.414062-1.226563-1.972657-.648438-4.5625 1.296874-5.832031l58.078126-38.621094-79.488282 45.894531c-1.996094 1.132813-4.535156.484375-5.742187-1.472656-1.203125-1.957031-.640625-4.519531 1.273437-5.789063l68.65625-44.945312-90.453125 52.238281c-2.007812 1.179687-4.589843.527344-5.800781-1.460937-1.210938-1.988282-.601562-4.582032 1.363281-5.824219l74.140625-47.726563-95.320312 55.039063c-.648438.378906-1.386719.578125-2.140625.578125zm0 0" fill="#636c77"/><path d="m24.664062 81.167969c-1.871093-.007813-3.519531-1.234375-4.0625-3.023438-.542968-1.789062.140626-3.726562 1.691407-4.773437l5.972656-4.097656-17.238281 9.941406c-1.972656 1.105468-4.464844.484375-5.683594-1.421875-1.21875-1.902344-.738281-4.429688 1.09375-5.753907l16.859375-11.863281-12.277344 7.082031c-1.910156 1.160157-4.390625.652344-5.6875-1.167968-1.300781-1.820313-.972656-4.332032.746094-5.757813l28.773437-24.550781-23.832031 13.746094c-1.933593 1.101562-4.386719.535156-5.640625-1.304688s-.882812-4.332031.851563-5.726562l3.226562-2.558594c-1.339843.203125-2.695312-.261719-3.625-1.246094-1.382812-1.398437-1.632812-3.558594-.605469-5.234375l7.679688-12.429687c-2.070312.753906-4.375-.191406-5.320312-2.183594-.941407-1.992188-.210938-4.375 1.683593-5.496094l13.933594-8.050781c1.691406-.972656 3.828125-.679687 5.191406.71875 1.367188 1.402344 1.605469 3.554687.578125 5.222656l-7.601562 12.332031 31.820312-18.347656c1.933594-1.101562 4.386719-.535156 5.640625 1.304688 1.25 1.839844.878907 4.332031-.855469 5.726562l-1.550781 1.203125 14.316407-8.234375c1.910156-1.097656 4.339843-.566406 5.613281 1.226563 1.269531 1.796875.96875 4.265625-.695313 5.703125l-28.734375 24.523437 54.539063-31.453125c1.972656-1.109375 4.464844-.484375 5.683594 1.421875 1.21875 1.902344.738281 4.429688-1.09375 5.753907l-16.878907 11.851562 33.015625-19.027344c1.980469-1.101562 4.476563-.464844 5.683594 1.453125s.707031 4.445313-1.144531 5.757813l-5.972657 4.070312 19.558594-11.28125c1.980469-1.101562 4.476563-.464844 5.683594 1.453125s.707031 4.445313-1.144531 5.757813l-5.871094 4 19.441406-11.210938c1.976563-1.089844 4.457031-.449218 5.664063 1.457032 1.207031 1.910156.714844 4.425781-1.117188 5.746093l-10.378906 7.148438 24.867188-14.351563c1.964843-1.117187 4.457031-.511718 5.6875 1.382813 1.230468 1.894531.773437 4.417969-1.042969 5.757812l-28.160157 20.480469 47.886719-27.621094c1.929688-1.097656 4.378907-.53125 5.632813 1.304688 1.25 1.832031.886718 4.320312-.835938 5.71875l-40.976562 32.816406 69.015625-39.839844c1.972656-1.09375 4.457031-.460937 5.667969 1.441406 1.210937 1.902344.730468 4.417969-1.09375 5.742188l-15.8125 11.015625 31.582031-18.199219c1.945312-1.117187 4.421875-.539062 5.671875 1.324219 1.246094 1.867187.839844 4.375-.933594 5.75l-37.324219 28.765625 62.050781-35.839844c1.957032-1.097656 4.429688-.492187 5.660157 1.386719 1.226562 1.878906.789062 4.386719-1 5.738281l-30.277344 22.253906 50.945313-29.378906c1.96875-1.082031 4.441406-.449218 5.652343 1.441406 1.207031 1.894532.742188 4.402344-1.070312 5.734376l-17.5 12.253906 33.707031-19.429688c1.929688-1.117187 4.398438-.558594 5.65625 1.285156 1.261719 1.839844.886719 4.339844-.851562 5.738282l-40.773438 32.5625 68.625-39.585938c1.949219-1.082031 4.40625-.476562 5.628906 1.386719 1.226563 1.863281.8125 4.355469-.953125 5.722656l-32.757812 24.464844 54.671875-31.574219c1.96875-1.070312 4.429687-.429687 5.632812 1.460938 1.203125 1.894531.734375 4.394531-1.066406 5.722656l-13.9375 9.660156 25.824219-14.90625c1.953125-1.113281 4.4375-.515625 5.671875 1.363282 1.238281 1.882812.800781 4.398437-.996094 5.753906l-29.527344 21.964844 33.078125-19.074219c1.917969-1.105469 4.367188-.558594 5.632813 1.261719 1.265625 1.816406.925781 4.304687-.777344 5.71875l-28.085938 23.117187 24.621094-14.207031c1.917969-1.109375 4.367188-.5625 5.632813 1.257812 1.265625 1.820313.929687 4.308594-.777344 5.722656l-9.449219 7.847657 4.644532-2.675781c1.851562-1.070313 4.207031-.601563 5.507812 1.089843 1.304688 1.691407 1.15625 4.089844-.347656 5.605469l-4.972656 4.992188c1.496093-.800782 3.328124-.636719 4.65625.417968 1.332031 1.054688 1.914062 2.796875 1.476562 4.4375l-2.25 8.535156c1.441406.671876 2.386719 2.09375 2.453125 3.679688.070313 1.589844-.753906 3.085938-2.128906 3.878906l-4.265625 2.460938c-1.492188.851562-3.347656.730468-4.714844-.308594-1.363281-1.042969-1.972656-2.800781-1.542969-4.464844l1.597657-6.101562-18.859376 10.882812c-1.847656 1.003906-4.152343.511719-5.425781-1.160156-1.277343-1.667969-1.148437-4.019531.304688-5.539062l4.957031-4.976563-20.246094 11.726563c-1.917968 1.101562-4.363281.554687-5.628906-1.257813-1.265625-1.816406-.933594-4.296875.761719-5.714844l9.472656-7.867187-25.769531 14.847656c-1.917969 1.089844-4.351563.535156-5.609375-1.277344-1.257813-1.8125-.929688-4.285156.761719-5.703125l28.074218-23.125-52.199218 30.132813c-1.957032 1.136718-4.460938.546875-5.707032-1.34375s-.796875-4.425782 1.023438-5.773438l29.535156-21.984375-50.40625 29.117188c-1.976562 1.105469-4.472656.472656-5.683594-1.4375-1.214844-1.914063-.722656-4.4375 1.117188-5.757813l13.953125-9.691406-29.269531 16.894531c-1.953126 1.082031-4.40625.476563-5.632813-1.386719-1.226563-1.863281-.808594-4.355468.957031-5.722656l32.75-24.445312-54.691406 31.570312c-1.929688 1.097656-4.378906.53125-5.628906-1.300781-1.253906-1.835937-.890625-4.320313.832031-5.71875l40.765625-32.589844-68.660156 39.636719c-1.972656 1.121094-4.480469.496094-5.703125-1.417969-1.21875-1.914062-.726563-4.449219 1.121093-5.765625l17.535157-12.296875-33.765625 19.488281c-1.957032 1.097657-4.429688.492188-5.65625-1.386718-1.226563-1.878906-.792969-4.382813.996094-5.738282l30.269531-22.269531-50.960938 29.414063c-1.945312 1.113281-4.421875.535156-5.667969-1.328125-1.25-1.863281-.839843-4.375.933594-5.746094l37.3125-28.75-62.070312 35.839844c-1.976563 1.136719-4.5.511719-5.722656-1.410157-1.226563-1.925781-.71875-4.472656 1.148437-5.785156l15.804687-11.03125-31.574218 18.242188c-1.929688 1.097656-4.378906.53125-5.628906-1.304688-1.253907-1.832031-.890626-4.316406.835937-5.71875l40.976563-32.84375-69.121094 39.886719c-1.957032 1.027344-4.375.394531-5.570313-1.464844-1.199219-1.855469-.78125-4.320312.960938-5.679687l28.160156-20.480469-47.90625 27.640625c-1.980469 1.132812-4.507813.503906-5.726563-1.425781-1.21875-1.933594-.699218-4.484375 1.179688-5.785157l10.425781-7.175781-24.941406 14.394531c-1.988281 1.152344-4.53125.527344-5.753906-1.417968-1.222657-1.945313-.6875-4.507813 1.214843-5.800782l5.800782-3.957031-19.386719 11.195313c-.644531.378906-1.382813.578125-2.132813.578125zm0 0" fill="#cad0d7"/><path d="m365.511719 464.214844c-1.863281.003906-3.515625-1.199219-4.078125-2.976563-.566406-1.773437.085937-3.710937 1.609375-4.78125l12.996093-9.21875-27.507812 15.882813c-1.988281 1.132812-4.515625.496094-5.730469-1.445313-1.214843-1.9375-.683593-4.492187 1.207031-5.78125l10.5625-7.144531-20.300781 11.714844c-1.976562 1.136718-4.5.515625-5.722656-1.410156-1.226563-1.925782-.71875-4.472657 1.148437-5.78125l46.449219-32.425782-58.453125 33.738282c-2.007812 1.234374-4.636718.609374-5.871094-1.398438-1.234374-2.007812-.609374-4.636719 1.398438-5.871094l14.105469-9.199218-19.378907 11.179687c-2.003906 1.164063-4.570312.519531-5.78125-1.457031-1.210937-1.972656-.628906-4.554688 1.316407-5.8125l23.75-15.515625-28.457031 16.46875c-1.976563 1.09375-4.457032.460937-5.667969-1.441407-1.210938-1.902343-.730469-4.417968 1.09375-5.742187l76.527343-53.300781-84.789062 48.941406c-1.992188 1.179688-4.558594.554688-5.789062-1.40625-1.230469-1.960938-.671876-4.542969 1.257812-5.824219l69.503906-47.164062-74.425781 42.898437c-1.980469 1.117188-4.488281.488282-5.707031-1.433594-1.214844-1.921874-.710938-4.457031 1.148437-5.769531l80.460938-55.464843-83.847657 48.402343c-1.984374 1.085938-4.46875.4375-5.667968-1.476562-1.199219-1.917969-.699219-4.433594 1.144531-5.746094l66.757813-45.070313-67.289063 38.835938c-1.980469 1.085938-4.464844.4375-5.664063-1.476562-1.199218-1.917969-.699218-4.433594 1.144532-5.746094l61.039062-41.230469-59.878906 34.558594c-1.996094 1.085937-4.492188.414062-5.675781-1.523438-1.183594-1.9375-.644531-4.464843 1.230469-5.746093l10.546874-6.828126-7.109374 4.097657c-1.96875 1.097656-4.449219.472656-5.667969-1.421875-1.214844-1.898438-.75-4.414063 1.070312-5.746094l65.585938-46.363281-60.339844 34.835937c-1.964844 1.125-4.472656.519532-5.703125-1.382812-1.234375-1.902344-.761719-4.4375 1.070312-5.769532l54.160157-39.253906-44.84375 25.898438c-1.960938 1.132812-4.464844.535156-5.707031-1.359375-1.238282-1.898438-.777344-4.433594 1.050781-5.773438l30.8125-22.589843-16.863281 9.730468c-1.929688 1.074219-4.359376.5-5.605469-1.324218-1.242188-1.824219-.886719-4.296876.820312-5.699219l20.480469-16.332031c-1.355469-.742188-2.203125-2.152344-2.222656-3.695313-.015625-1.542969.800781-2.976563 2.136718-3.746094l34.277344-19.796875c1.929688-1.097656 4.378906-.53125 5.628906 1.304688 1.253907 1.832031.890626 4.316406-.832031 5.71875l-9.789062 7.816406 35.464843-20.480469c1.960938-1.132812 4.46875-.535156 5.707032 1.359375 1.238281 1.898438.777344 4.433594-1.046875 5.773438l-30.824219 22.585937 48.410156-27.9375c1.964844-1.128906 4.472656-.519531 5.703125 1.382813 1.234375 1.902344.765625 4.4375-1.070312 5.769531l-54.125 39.253906 69.613281-40.191406c1.96875-1.097656 4.453125-.472656 5.667969 1.421875 1.21875 1.894531.75 4.410156-1.066407 5.746094l-65.605468 46.335937 77.335937-44.640625c1.996094-1.082031 4.492188-.410156 5.675781 1.527344 1.1875 1.933594.644532 4.460938-1.226562 5.746094l-10.523438 6.78125 13.738282-7.925782c1.988281-1.132812 4.515625-.496093 5.730468 1.441407 1.214844 1.941406.679688 4.492187-1.207031 5.785156l-61.074219 41.257813 67.160157-38.773438c1.984375-1.132812 4.515625-.496094 5.726562 1.441406 1.214844 1.941406.683594 4.492188-1.207031 5.785156l-66.789062 45.132813 71.441406-41.242187c1.980468-1.117188 4.488281-.484376 5.703125 1.433593 1.214843 1.921875.710937 4.460938-1.148438 5.769531l-80.433593 55.46875 83.898437-48.4375c1.984375-1.117187 4.496094-.476562 5.707031 1.449219 1.210938 1.929688.691406 4.46875-1.175781 5.769531l-69.546875 47.164063 70.265625-40.558594c1.976563-1.136719 4.5-.511719 5.722656 1.410157 1.226563 1.925781.71875 4.472656-1.148437 5.785156l-76.542969 53.324218 75.601563-43.65625c2.007812-1.234374 4.636718-.609374 5.871093 1.398438 1.238281 2.007812.609375 4.636719-1.398437 5.871094l-23.746094 15.503906 20.382812-11.765625c2.007813-1.234375 4.636719-.609375 5.871094 1.398437 1.238282 2.007813.609375 4.636719-1.398437 5.871094l-14.15625 9.242188 8.984375-5.1875c1.972656-1.09375 4.457031-.460938 5.667968 1.441406 1.210938 1.902344.730469 4.417969-1.09375 5.742188l-46.394531 32.425781 38.894531-22.449219c1.988282-1.132812 4.515626-.496094 5.730469 1.441406 1.214844 1.941406.679688 4.492188-1.207031 5.785156l-10.597656 7.167969 1.960937-1.136719c1.96875-1.09375 4.449219-.472656 5.667969 1.425782 1.214844 1.894531.75 4.410156-1.066406 5.742187l-13.210938 9.386719c2.070313-.867188 4.457032.019531 5.464844 2.023438 1.003906 2.007812.285156 4.453124-1.652344 5.589843l-78.078125 45.082031c-.648437.378907-1.382812.582032-2.132812.582032zm0 0" fill="#66d4f1"/><path d="m475.710938 507.144531c-1.683594 0-3.210938-.992187-3.898438-2.527343-.683594-1.539063-.402344-3.335938.722656-4.589844l8.722656-9.710938-17.65625 10.238282c-1.871093 1.148437-4.308593.6875-5.632812-1.066407-1.320312-1.75-1.101562-4.21875.511719-5.707031l10.453125-10.027344-14.386719 8.304688c-1.882813 1.125-4.3125.640625-5.621094-1.125-1.304687-1.765625-1.058593-4.230469.570313-5.703125l9.832031-9.191407-13.21875 7.628907c-1.832031 1.050781-4.15625.601562-5.464844-1.050781-1.308593-1.65625-1.214843-4.019532.222657-5.5625l14.917968-15.8125-20.359375 11.761718c-1.832031 1.046875-4.152343.601563-5.460937-1.050781-1.3125-1.648437-1.222656-4.011719.210937-5.554687l15.046875-16.050782-20.628906 11.945313c-1.800781 1.039062-4.089844.625-5.417969-.980469-1.324219-1.601562-1.296875-3.929688.0625-5.503906l16.785157-19.390625-21.113282 12.1875c-1.878906 1.046875-4.246094.53125-5.515625-1.203125-1.273437-1.734375-1.054687-4.144532.507813-5.625l26.769531-24.414063c-.234375-1.714843.597656-3.402343 2.097656-4.265625l7.390625-4.265625c1.878906-1.046875 4.242188-.53125 5.515625 1.203125 1.273438 1.734375 1.054688 4.144532-.507812 5.625l-6.40625 5.851563 8.933593-5.164063c1.800782-1.035156 4.089844-.621094 5.417969.980469 1.324219 1.605469 1.300781 3.929687-.058593 5.507813l-16.785157 19.394531 23.652344-13.652344c1.828125-1.035156 4.140625-.585937 5.445313 1.058594 1.308593 1.648437 1.21875 4-.207032 5.546875l-15.042968 16.042968 20.582031-11.871093c1.832031-1.046875 4.15625-.601563 5.464843 1.054687 1.308594 1.652344 1.214844 4.015625-.222656 5.558594l-14.882812 15.785156 20.300781-11.75c1.882813-1.109375 4.296875-.617187 5.597656 1.140625 1.296875 1.757813 1.058594 4.214844-.554687 5.6875l-9.789063 9.191407 12.664063-7.316407c1.871094-1.144531 4.308594-.683593 5.632812 1.070313 1.320313 1.75 1.101563 4.21875-.511718 5.707031l-10.480469 9.984375 10.324219-5.972656c1.816406-1.039063 4.113281-.605469 5.429687 1.015625 1.316406 1.621093 1.265625 3.957031-.121094 5.519531l-8.71875 9.710938 1.917969-1.101563c2.027344-1.058594 4.527344-.332031 5.671875 1.644531 1.144531 1.980469.523437 4.511719-1.40625 5.738282l-25.164063 14.507812c-.644531.390625-1.386718.601562-2.140624.613281zm0 0" fill="#a38671"/><path d="m281.210938 405.332031c-1.851563-.003906-3.488282-1.199219-4.054688-2.960937-.566406-1.761719.066406-3.6875 1.570312-4.769532l65.894532-47.179687-79.710938 46.011719c-1.980468 1.085937-4.464844.4375-5.664062-1.476563-1.203125-1.914062-.699219-4.433593 1.144531-5.742187l56.410156-38.195313-56.019531 32.339844c-1.984375 1.101563-4.484375.453125-5.6875-1.472656-1.199219-1.925781-.6875-4.453125 1.171875-5.753907l55.46875-37.417968-52.523437 30.308594c-1.984376 1.085937-4.472657.429687-5.667969-1.492188-1.195313-1.921875-.679688-4.441406 1.171875-5.742188l36.777344-24.519531-32.484376 18.773438c-1.960937 1.109375-4.445312.5-5.671874-1.382813-1.230469-1.886718-.785157-4.402344 1.019531-5.75l62.761719-45.910156-54.390626 31.414062c-1.945312 1.097657-4.410156.511719-5.652343-1.347656-1.238281-1.863281-.832031-4.363281.933593-5.738281l44.46875-33.917969-29.773437 17.1875c-1.921875 1.113282-4.378906.5625-5.644531-1.261718-1.265625-1.828126-.921875-4.320313.796875-5.730469l21.09375-17.398438c-.871094-.355469-1.597657-.992187-2.066407-1.808593-1.171874-2.039063-.472656-4.640626 1.5625-5.820313l32.855469-18.96875c1.921875-1.113281 4.378907-.566406 5.644531 1.261719 1.265626 1.824218.917969 4.316406-.796874 5.726562l-13.332032 10.992188 43.035156-24.902344c1.953126-1.164062 4.472657-.59375 5.734376 1.300781 1.261718 1.890625.816406 4.4375-1.007813 5.792969l-44.441406 33.894531 65.253906-37.675781c1.960937-1.105469 4.441406-.5 5.671875 1.386719 1.230469 1.882812.78125 4.398437-1.019531 5.746093l-62.796875 45.960938 78.695312-45.429688c1.984375-1.085937 4.472656-.429687 5.667969 1.492188 1.191406 1.921875.679687 4.441406-1.171875 5.742188l-36.78125 24.523437 43.710938-25.230469c1.984374-1.101562 4.484374-.453125 5.683593 1.472656 1.203125 1.921876.6875 4.453126-1.171875 5.753907l-55.464844 37.410156 53.433594-30.839844c1.984375-1.085937 4.46875-.4375 5.667969 1.476563 1.199219 1.914062.699219 4.433594-1.144531 5.742187l-56.429688 38.203125 51.917969-29.96875c1.964844-1.109375 4.457031-.496094 5.683594 1.402344 1.222656 1.902344.753906 4.425781-1.070313 5.757812l-65.882812 47.179688 61.269531-35.367188c1.980469-1.074218 4.457031-.417968 5.648437 1.496094 1.191407 1.910156.691407 4.421875-1.144531 5.730469l-12.699219 8.53125 8.195313-4.71875c1.96875-1.140625 4.488281-.535156 5.722656 1.378906 1.234375 1.910157.75 4.457031-1.097656 5.78125l-24.988281 17.921875 20.363281-11.75c1.875-1.007812 4.207031-.476562 5.460937 1.242188 1.257813 1.71875 1.050782 4.101562-.480468 5.582031l-30.234375 27.128906 25.253906-14.574219c1.816406-1.035156 4.121094-.597656 5.433594 1.03125 1.3125 1.632813 1.246093 3.972657-.152344 5.53125l-13.398437 14.777344 8.117187-4.683594c2.023437-1.058593 4.527344-.335937 5.667969 1.644532 1.144531 1.980468.527344 4.507812-1.402344 5.738281l-31.914062 18.421875c-1.820313 1.035156-4.121094.597656-5.4375-1.03125-1.3125-1.632812-1.246094-3.976562.152343-5.53125l13.414063-14.71875-36.9375 21.332031c-1.878906 1.007813-4.210938.476563-5.464844-1.242187-1.253906-1.722656-1.050781-4.105469.480469-5.585938l30.226562-27.109375-58.933593 34.023438c-1.96875 1.140625-4.488282.535156-5.722657-1.375-1.234375-1.914063-.753906-4.460938 1.097657-5.785157l25.011718-17.972656-43.597656 25.167969c-1.992188 1.152344-4.539062.519531-5.757812-1.433594s-.667969-4.523437 1.246093-5.804687l12.679688-8.53125-27.308594 15.769531c-.65625.367187-1.398437.554687-2.148437.535156zm0 0" fill="#3aadd9"/><g fill="#262626"><path d="m452.429688 407.945312s-.109376-.050781-.160157-.09375c8.945313-15.28125 14.027344-32.515624 14.796875-50.203124 0-.144532-.09375-.222657-.109375-.351563-.019531-.125.132813-.289063.125-.449219-.621093-32.132812-16.410156-62.078125-42.570312-80.742187v-205.601563c0-31.507812 7.882812-64.097656-31.574219-66.5625-63.394531-3.9179685-128.273438 0-191.777344 0-55.296875 0-117.90625-8.371094-172.691406 0-38.109375 5.855469-26.101562 54.339844-26.101562 83.097656v226.441407c0 28.066406-13.371094 85.332031 23.457031 92.355469 19.941406 3.796874 44.417969 0 64.589843 0h168.703126c24.6875 54.484374 94.207031 68.128906 146.175781 43.9375l40.6875 40.6875c13.796875 13.800781 31.0625 24.355468 50.097656 11.367187 41.25-28.125-24.394531-74.632813-43.648437-93.882813zm-51.726563-11.445312h-129.871094c-5.238281-12.421875-7.941406-25.769531-7.953125-39.253906.039063-6.765625.792969-13.511719 2.246094-20.121094h22.902344c5.574218 0 12.75-8.445312 4.421875-8.445312h-25.113281c3.894531-12.777344 10.328124-24.636719 18.910156-34.867188h35.734375c4.746093 0 13.101562-7.152344 4.78125-7.152344h-33.765625c25.621094-25.726562 64.066406-33.800781 97.875-20.558594 7.476562 2.890626 14.5625 6.695313 21.09375 11.332032v64.734375c0 12.835937 7.042968 48.386719-11.261719 54.332031zm-385.792969-368.871094c8.996094-28.484375 88.449219-14.324218 111.488282-14.324218h202.238281c32.660156 0 79.183593-13.527344 83.296875 26.914062 1.097656 10.800781 1.707031 21.757812 2.183594 32.757812h-249.003907c-1.058593-.183593-2.140625-.183593-3.199219 0h-147.242187c-.863281-14.402343-3.628906-33.117187.238281-45.347656zm66.808594 368.871094c-14.34375 0-38.699219 4.847656-52.386719 0-17.921875-6.332031-14.421875-21.769531-14.421875-37.050781v-278.621094h141.105469v315.671875zm86.742188 0v-315.671875h245.972656c1.585937 52.582031-2.46875 106.664063-2.46875 158.445313v29.210937c-42.460938-21.785156-99.273438-15.429687-133.117188 18.175781h-63.019531c-4.746094 0-13.097656 7.152344-4.777344 7.152344h61.265625c-8.367187 10.246094-14.519531 22.117188-18.0625 34.867188h-38.605468c-5.570313 0-12.75 8.445312-4.421876 8.445312h40.960938c-1.46875 7.457031-2.222656 15.035156-2.253906 22.632812-.164063 12.46875 1.71875 24.882813 5.574218 36.742188zm162.636718 56.320312c-23.835937-8.085937-43.738281-24.875-55.722656-47.007812h125.285156c1.316406 0 2.609375-.382812 3.710938-1.101562 35.074218-12.355469 20.140625-81.699219 20.140625-110.242188v-6.332031c18.449219 19.421875 29.183593 44.910156 30.179687 71.679687-3.558594 61.148438-58.496094 114.910156-123.59375 93.03125zm165.800782 21.886719c3.070312 16.554688-19.070313 27.0625-32 18.042969-1.726563-1.460938-3.328126-3.0625-4.785157-4.789062l-15.363281-15.359376-28.464844-28.46875c-.0625-.058593-.15625-.066406-.214844-.117187 11.429688-6.808594 21.472657-15.71875 29.59375-26.257813l23.894532 23.894532c8.625 8.652344 24.96875 20.289062 27.339844 33.082031zm0 0"/><path d="m42.140625 47.035156h8.53125c2.5625 0 6.53125-1.960937 6.828125-4.777344.382812-3.167968-3.371094-3.671874-5.605469-3.671874h-8.535156c-2.558594 0-6.527344 1.964843-6.824219 4.78125-.386718 3.121093 3.371094 3.667968 5.605469 3.667968zm0 0"/><path d="m84.824219 47.035156h8.53125c2.5625 0 6.53125-1.988281 6.828125-4.828125.367187-3.175781-3.351563-3.757812-5.632813-3.757812h-8.53125c-2.5625 0-6.527343 1.980469-6.828125 4.832031-.367187 3.199219 3.355469 3.753906 5.632813 3.753906zm0 0"/><path d="m125.546875 45.652344h8.53125c3.050781.125 6.019531-1 8.226563-3.113282 1.492187-2.304687-1.289063-2.65625-3.089844-2.65625h-8.53125c-3.050782-.121093-6.023438 1.003907-8.226563 3.117188-1.503906 2.328125 1.277344 2.652344 3.089844 2.652344zm0 0"/><path d="m40.210938 122.613281h8.535156c3.0625.152344 6.046875-1.003906 8.207031-3.179687 1.460937-2.355469-1.253906-2.910156-3.15625-2.910156h-8.535156c-3.0625-.152344-6.046875 1.007812-8.207031 3.183593-1.425782 2.351563 1.289062 2.90625 3.15625 2.90625zm0 0"/><path d="m84.917969 124.183594h42.667969c7.125 0 9.429687-9.230469 1.039062-9.230469h-42.667969c-7.125 0-9.425781 9.230469-1.039062 9.230469zm0 0"/><path d="m40.210938 156.757812h8.535156c3.0625.152344 6.050781-1.003906 8.207031-3.183593 1.460937-2.355469-1.253906-2.925781-3.15625-2.925781h-8.535156c-3.0625-.152344-6.046875 1.003906-8.207031 3.179687-1.425782 2.355469 1.289062 2.929687 3.15625 2.929687zm0 0"/><path d="m130.527344 150.289062h-42.664063c-4.558593 0-13.160156 6.828126-4.847656 6.828126h42.664063c4.558593 0 13.160156-6.828126 4.847656-6.828126zm0 0"/><path d="m40.484375 191.777344h8.535156c3.136719.304687 6.203125-1.042969 8.105469-3.558594 1.289062-2.558594-1.101562-4.324219-3.53125-4.324219h-8.535156c-3.136719-.304687-6.207032 1.042969-8.105469 3.558594-1.289063 2.515625 1.097656 4.324219 3.53125 4.324219zm0 0"/><path d="m130.546875 184.464844h-42.667969c-4.472656 0-13.183594 6.742187-4.882812 6.742187h42.667968c4.472657.042969 13.183594-6.742187 4.882813-6.742187zm0 0"/><path d="m53.863281 218.886719h-8.53125c-3.066406-.148438-6.054687 1.015625-8.210937 3.203125-1.449219 2.351562 1.257812 2.960937 3.175781 2.960937h8.535156c3.066407.148438 6.050781-1.015625 8.207031-3.203125 1.410157-2.355468-1.296874-2.960937-3.175781-2.960937zm0 0"/><path d="m87.9375 218.804688c-4.214844 0-13.269531 6.328124-5 6.328124h42.667969c4.214843 0 13.269531-6.328124 5-6.328124zm0 0"/><path d="m51.851562 251.554688h-8.535156c-2.6875 0-6.507812 2.074218-6.824218 5.007812-.332032 3.242188 3.277343 4.085938 5.714843 4.085938h8.535157c2.6875 0 6.511718-2.082032 6.828124-5.015626.332032-3.234374-3.277343-4.078124-5.71875-4.078124zm0 0"/><path d="m83.125 259.960938h42.667969c2.457031 0 7.117187-.769532 8.125-3.527344.929687-2.558594-.8125-4.1875-3.5-4.1875h-42.667969c-2.457031 0-7.117188.765625-8.121094 3.523437-.933594 2.542969.808594 4.191407 3.496094 4.191407zm0 0"/><path d="m51.851562 285.6875h-8.535156c-2.6875 0-6.507812 2.074219-6.824218 5.007812-.332032 3.242188 3.277343 4.089844 5.726562 4.089844h8.53125c2.679688 0 6.503906-2.074218 6.828125-5.011718.324219-3.242188-3.285156-4.085938-5.726563-4.085938zm0 0"/><path d="m128.582031 285.429688h-42.664062c-7.261719 0-9.320313 9.609374-.957031 9.609374h42.667968c7.304688 0 9.316406-9.609374.953125-9.609374zm0 0"/><path d="m53.566406 320.316406h-8.535156c-3.148438-.324218-6.234375 1.046875-8.105469 3.601563-1.246093 2.558593 1.09375 4.503906 3.59375 4.503906h8.53125c3.148438.320313 6.230469-1.050781 8.097657-3.601563 1.246093-2.535156-1.089844-4.503906-3.582032-4.503906zm0 0"/><path d="m132.117188 321.808594h-42.667969c-3.097657-.246094-6.183594.582031-8.746094 2.339844-1.167969 1.363281-2.339844 2.710937.722656 2.710937h42.667969c3.097656.246094 6.183594-.578125 8.746094-2.335937 1.171875-1.332032 2.339844-2.714844-.722656-2.714844zm0 0"/><path d="m53.726562 355.089844h-8.53125c-3.09375-.207032-6.109374 1.03125-8.167968 3.351562-1.441406 2.433594 1.222656 3.542969 3.320312 3.542969h8.535156c3.09375.207031 6.109376-1.03125 8.164063-3.355469 1.441406-2.464844-1.21875-3.539062-3.320313-3.539062zm0 0"/><path d="m128.609375 353.816406h-42.667969c-7.175781 0-9.386718 9.386719-1.007812 9.386719h42.667968c7.175782-.015625 9.386719-9.386719 1.007813-9.386719zm0 0"/><path d="m244.824219 219.734375-20.148438-20.15625c-7.953125-6.648437-15.4375-13.832031-22.40625-21.503906-.085937-1.238281 18.269531-17.484375 21.101563-20.320313 7.105468-7.109375 14.214844-14.222656 21.332031-21.332031 3.039063-3.039063-8.933594-1.972656-11.332031.425781-14.222656 14.222656-28.441406 28.445313-42.664063 42.667969-.300781.242187-.484375.601563-.507812.984375-.019531.386719.117187.761719.386719 1.039062l42.667968 42.664063c2.558594 2.570313 14.105469-1.945313 11.570313-4.46875zm0 0"/><path d="m355.75 158.820312c3.464844 3.464844 22.183594 18.519532 22.484375 21.789063-6.457031 7.40625-13.488281 14.292969-21.027344 20.597656-7.117187 7.105469-14.226562 14.214844-21.332031 21.332031-2.296875 2.296876 9.078125.855469 11.09375-1.160156l42.664062-42.664062c.539063-.539063.855469-.855469.285157-1.46875l-42.667969-42.667969c-2.117188-2.117187-13.277344 2.507813-11.683594 4.097656zm0 0"/><path d="m279.316406 221.0625c11.378906-28.441406 22.753906-56.886719 34.132813-85.332031 1.296875-3.226563-10.8125-1.878907-12.289063 1.808593-11.375 28.445313-22.753906 56.890626-34.132812 85.335938-1.296875 3.222656 10.8125 1.875 12.289062-1.8125zm0 0"/><path d="m371.089844 287.886719h-8.53125c-3.070313-.015625-6.089844.792969-8.738282 2.347656-1.828124 1.171875-1.867187 2.347656.632813 2.347656h8.53125c3.070313.019531 6.089844-.792969 8.738281-2.347656 1.828125-1.167969 1.871094-2.347656-.632812-2.347656zm0 0"/><path d="m326.855469 329.695312c-4.265625 0-13.253907 6.414063-4.96875 6.414063h42.667969c4.265624 0 13.253906-6.414063 4.96875-6.414063zm0 0"/></g></svg>