<svg height="507pt" viewBox="0 -3 507.45399 507" width="507pt" xmlns="http://www.w3.org/2000/svg"><path d="m300.003906 381.882812c-1.753906.003907-3.332031-1.066406-3.980468-2.695312-.644532-1.628906-.226563-3.488281 1.050781-4.6875l22.539062-21.222656-42.71875 24.671875c-1.960937 1.105469-4.441406.496093-5.671875-1.386719-1.230468-1.886719-.78125-4.402344 1.019532-5.75l8.054687-5.894531-16.835937 9.742187c-1.945313 1.125-4.433594.546875-5.683594-1.324218-1.246094-1.871094-.828125-4.390626.957031-5.757813l29.296875-22.375-41.15625 23.757813c-1.964844 1.117187-4.457031.511718-5.6875-1.382813s-.773438-4.417969 1.042969-5.757813l29.125-21.148437-38.613281 22.28125c-1.96875 1.113281-4.460938.496094-5.683594-1.402344-1.226563-1.898437-.757813-4.421875 1.066406-5.757812l34.695312-24.820313-42.894531 24.746094c-1.976562 1.0625-4.4375.417969-5.632812-1.480469-1.199219-1.898437-.71875-4.398437 1.09375-5.722656l6.601562-4.539063-10.871093 6.28125c-1.976563 1.117188-4.488282.484376-5.703126-1.433593-1.214843-1.921875-.710937-4.460938 1.148438-5.769531l5-3.464844-8.78125 5.058594c-1.953125 1.089843-4.417969.484374-5.644531-1.386719-1.226563-1.871094-.800781-4.371094.976562-5.726563l22.699219-16.828125-27.453125 15.855469c-1.964844 1.125-4.46875.519531-5.703125-1.382812-1.234375-1.902344-.761719-4.4375 1.070312-5.769532l11.886719-8.578125-15.300781 8.832031c-1.945312 1.160157-4.457031.601563-5.722656-1.277343-1.265625-1.878907-.84375-4.417969.960937-5.785157l26.667969-20.773437-31.078125 17.921875c-1.921875 1.074219-4.34375.511719-5.59375-1.296875-1.25-1.8125-.921875-4.277344.765625-5.691406l31.886719-26.121094-37.09375 21.460937c-1.921875 1.113282-4.378907.566407-5.644531-1.261718-1.265626-1.824219-.917969-4.316406.796874-5.726563l32.308594-26.523437-35.960937 20.710937c-1.945313 1.144531-4.445313.570313-5.703125-1.300781-1.253906-1.875-.835938-4.40625.960937-5.773438l23.542969-18.132812-25.371094 14.644531c-1.960937 1.105469-4.441406.5-5.671875-1.386719-1.226562-1.886718-.78125-4.402343 1.023438-5.746093l13.402343-9.816407-13.386718 7.722657c-1.9375 1.132812-4.421875.570312-5.679688-1.28125-1.261718-1.855469-.871094-4.371094.890625-5.757813l31.097657-24.574218-31.914063 18.40625c-1.976563 1.136718-4.496094.523437-5.726563-1.394532-1.226562-1.917968-.734374-4.464844 1.125-5.78125l6.402344-4.53125-5.359375 3.085938c-1.9375 1.117187-4.410156.546875-5.664062-1.304688-1.253907-1.851562-.863281-4.359375.894531-5.742187l36.800781-28.824219-35.753906 20.65625c-1.953125 1.128906-4.449219.539062-5.691406-1.34375-1.246094-1.882812-.804688-4.410156 1-5.761719l33.277343-24.84375-31.820312 18.367188c-1.910156 1.085937-4.335938.546875-5.601562-1.253907-1.265626-1.796874-.957032-4.261718.714843-5.695312l35.882813-30.386719-32.539063 18.773438c-1.945312 1.140625-4.445312.570312-5.703125-1.304688-1.257812-1.871093-.835937-4.402343.957032-5.769531l9.386718-7.253906-5.578125 3.21875c-1.847656 1.066406-4.199219.601562-5.503906-1.082032-1.308594-1.683593-1.167969-4.078124.324219-5.601562l18.464844-18.898438-12.066407 6.953126c-1.753906 1.011718-3.980469.652343-5.324219-.863282-1.347656-1.515625-1.4375-3.769531-.222656-5.390625l8.082032-10.703125h-.050782c-1.589844.914063-3.582031.714844-4.957031-.5-1.371094-1.214844-1.816406-3.167968-1.101563-4.855468l3.164063-7.453126c-.175781-.203124-.335937-.421874-.476563-.65625-.570312-.980468-.726562-2.144531-.433593-3.238281.289062-1.097656 1.003906-2.03125 1.984375-2.597656l3.464844-2.003906c1.589843-.921875 3.589843-.722657 4.964843.492187 1.378907 1.214844 1.820313 3.175782 1.105469 4.867188l-.921875 2.175781 7.175781-4.140625c1.753906-1.011719 3.980469-.652344 5.324219.863281 1.34375 1.519531 1.4375 3.769531.222656 5.390625l-8.074219 10.695313 20.695313-11.949219c1.84375-1.0625 4.191406-.605469 5.5 1.078125 1.308594 1.679687 1.171875 4.070313-.3125 5.597656l-18.40625 18.941407 34.277344-19.789063c1.945312-1.140625 4.445312-.570313 5.703125 1.304687 1.257812 1.875.835937 4.402344-.957032 5.769532l-9.449218 7.269531 18.347656-10.589844c1.914062-1.109375 4.363281-.574219 5.632812 1.238281 1.273438 1.808594.953126 4.292969-.742187 5.71875l-35.984375 30.394532 52.90625-30.53125c1.953125-1.101563 4.425781-.503906 5.660156 1.367187 1.234375 1.871094.808594 4.378907-.976562 5.742188l-33.1875 24.820312 25.753906-14.863281c1.941406-1.117188 4.410156-.546875 5.664062 1.304688 1.253907 1.851562.863282 4.359374-.890624 5.742187l-36.796876 28.820313 32.648438-18.84375c1.972656-1.136719 4.492188-.523438 5.722656 1.394531 1.230469 1.917969.734375 4.464843-1.125 5.78125l-6.449218 4.566406 3.003906-1.707031c1.9375-1.132813 4.417968-.570313 5.679687 1.285156s.871094 4.371094-.894531 5.753906l-31.121094 24.542969 30.824219-17.765625c1.960937-1.105469 4.441406-.5 5.671875 1.386719 1.226562 1.882812.78125 4.398437-1.023438 5.746093l-13.4375 9.832032 12.722657-7.332032c1.945312-1.117187 4.421875-.535156 5.667969 1.328126 1.25 1.863281.839843 4.375-.933594 5.746093l-23.515625 18.117188 25.453125-14.695313c1.925781-1.117187 4.386718-.570312 5.65625 1.261719 1.265625 1.832031.910156 4.332031-.816406 5.734375l-32.308594 26.523438 37.472656-21.625c1.917969-1.074219 4.339844-.511719 5.59375 1.300781 1.25 1.808593.917969 4.273437-.765625 5.691406l-31.890625 26.128906 39.117188-22.589843c1.941406-1.101563 4.402343-.523438 5.644531 1.328124 1.246093 1.847657.859375 4.347657-.890625 5.730469l-26.691406 20.804688 34.472656-19.902344c1.96875-1.128906 4.472656-.519531 5.707031 1.382813 1.230469 1.902343.761719 4.4375-1.070313 5.769531l-11.855468 8.53125 19.335937-11.167969c1.957031-1.113281 4.441407-.515625 5.675781 1.367188 1.234376 1.878906.796876 4.394531-1 5.75l-22.695312 16.84375 34.644531-20c1.980469-1.121094 4.488281-.488282 5.703125 1.433593 1.214844 1.917969.710938 4.457031-1.148437 5.765625l-5.007813 3.464844 16.394532-9.453125c1.972656-1.066406 4.433593-.417969 5.632812 1.480469 1.195312 1.898437.71875 4.398437-1.09375 5.71875l-6.570312 4.515625 23.039062-13.3125c1.96875-1.109375 4.460938-.496094 5.683594 1.402343 1.226562 1.898438.757812 4.425782-1.066406 5.757813l-34.742188 24.839844 33.476562-19.277344c1.964844-1.113281 4.457032-.507813 5.6875 1.386719 1.230469 1.890625.773438 4.417968-1.042968 5.757812l-29.082032 21.121094 27.648438-15.96875c1.945312-1.125 4.433594-.542969 5.683594 1.328125 1.246094 1.871094.828125 4.386719-.957032 5.753906l-29.296874 22.375 28.042968-16.210937c1.960938-1.109375 4.441406-.5 5.671875 1.382812 1.226563 1.886719.78125 4.402344-1.023437 5.75l-8.011719 5.863282 5.871094-3.414063c1.882812-1.128906 4.316406-.640625 5.621093 1.121094 1.304688 1.765625 1.058594 4.234375-.570312 5.707031l-22.527344 21.230469 21.546875-12.441407c1.738281-1 3.941407-.652343 5.285157.832032 1.347656 1.488281 1.476562 3.710937.3125 5.34375l-10.488282 14.585937 8.960938-5.121093c2.027344-1.058594 4.527344-.335938 5.671875 1.644531s.523437 4.507812-1.40625 5.734375l-26.160157 15.082031c-1.742187 1.003906-3.949218.660156-5.300781-.832031-1.347656-1.492188-1.472656-3.722656-.296875-5.355469l10.484375-14.59375-36.101562 20.847656c-.648438.382813-1.382813.582031-2.132813.582031zm0 0" fill="#eb5463"/><path d="m378.578125 128.046875c-1.765625 0-3.347656-1.085937-3.980469-2.734375-.636718-1.644531-.1875-3.511719 1.121094-4.695312l7.449219-6.71875-11.09375 6.386718c-1.964844 1.125-4.472657.519532-5.703125-1.382812-1.234375-1.902344-.761719-4.4375 1.070312-5.769532l3.515625-2.558593-7.117187 4.101562c-1.929688 1.078125-4.359375.503907-5.605469-1.320312-1.242187-1.828125-.890625-4.300781.816406-5.703125l30.664063-24.429688-41.371094 23.894532c-1.953125 1.101562-4.425781.503906-5.660156-1.367188-1.234375-1.875-.808594-4.382812.976562-5.742188l23.335938-17.441406-34.601563 19.96875c-1.964843 1.070313-4.425781.441406-5.636719-1.445312-1.207031-1.886719-.75-4.386719 1.046876-5.722656l11.730468-8.277344-23.804687 13.71875c-1.980469 1.15625-4.515625.542968-5.75-1.386719-1.230469-1.929687-.722657-4.488281 1.15625-5.796875l17.554687-12.363281-43.066406 24.855469c-2.027344 1.0625-4.527344.335937-5.671875-1.644532-1.144531-1.980468-.527344-4.507812 1.402344-5.734375l124.964843-72.152343c1.976563-1.152344 4.511719-.542969 5.746094 1.386718 1.234375 1.929688.722656 4.492188-1.15625 5.800782l-17.597656 12.398437 23.042969-13.285156c1.96875-1.109375 4.464843-.488281 5.683593 1.417969s.738282 4.429687-1.09375 5.757812l-11.726562 8.285156 16.085938-9.285156c1.953124-1.101562 4.425781-.503906 5.660156 1.367188 1.234375 1.875.808594 4.382812-.976563 5.742187l-23.363281 17.433594 28.253906-16.308594c1.929688-1.074219 4.363282-.5 5.605469 1.324219 1.246094 1.824218.890625 4.296875-.816406 5.699218l-30.652344 24.429688 30.285156-17.484375c1.964844-1.128906 4.472657-.519531 5.703125 1.382813 1.234375 1.902343.761719 4.4375-1.070312 5.769531l-25.148438 18.160156c.980469.78125 1.566406 1.953125 1.605469 3.203125.035156 1.253906-.476563 2.457031-1.410156 3.296875l-28.40625 25.601563c.234375 1.714843-.59375 3.398437-2.089844 4.265624l-7.773437 4.480469c-.644532.390625-1.378907.605469-2.132813.621094zm0 0" fill="#fdcd56"/><path d="m208.644531 166.234375c-1.761719.003906-3.34375-1.078125-3.980469-2.71875-.640624-1.640625-.203124-3.507813 1.097657-4.695313l.851562-.75-7.5625 4.359376c-1.996093 1.136718-4.535156.484374-5.738281-1.472657-1.207031-1.957031-.644531-4.515625 1.269531-5.789062l79.359375-52.113281-93.867187 54.167968c-2.007813 1.179688-4.589844.527344-5.800781-1.460937-1.210938-1.988281-.605469-4.582031 1.363281-5.824219l56.277343-36.113281-67.644531 39.046875c-1.292969.804687-2.921875.855468-4.265625.136718-1.339844-.722656-2.199218-2.105468-2.246094-3.628906-.046874-1.523437.71875-2.957031 2.015626-3.761718l91.050781-60.328126-107.203125 61.898438c-2.003906 1.167969-4.570313.519531-5.78125-1.453125-1.214844-1.976563-.628906-4.558594 1.316406-5.816406l72.953125-47.402344-73.992187 42.667969c-1.980469 1.101562-4.476563.460937-5.683594-1.457032-1.210938-1.917968-.707032-4.445312 1.144531-5.753906l92.550781-63.121094-77.21875 44.585938c-2.003906 1.164062-4.570312.519531-5.78125-1.457031-1.210937-1.972657-.625-4.554688 1.320313-5.8125l25.964843-16.972657-11.5625 6.664063c-1.984374 1.058594-4.449218.394531-5.632812-1.515625-1.1875-1.910156-.683594-4.414062 1.144531-5.722656l17.261719-11.484375c-1.839844-.027344-3.453125-1.234375-4.003906-2.988281-.550782-1.757813.085937-3.667969 1.582031-4.742188l24.839844-17.871094c-.335938-.300781-.625-.65625-.851563-1.046875-1.179687-2.042969-.480468-4.652343 1.558594-5.828125l45.152344-26.0625c1.96875-1.140625 4.488281-.535156 5.722656 1.375 1.234375 1.914063.753906 4.457032-1.097656 5.785156l-1.023438.726563 33.03125-19.023437c1.988282-1.097657 4.492188-.441407 5.6875 1.488281 1.199219 1.933593.671875 4.464843-1.199218 5.757812l-9.207032 6.125 27.304688-15.769531c2-1.1328125 4.539062-.484375 5.742187 1.472656 1.207031 1.957032.644531 4.519532-1.269531 5.789063l-25.941406 16.964843 42.429687-24.523437c1.980469-1.101563 4.476563-.460937 5.683594 1.457031 1.207031 1.917969.703125 4.445313-1.144531 5.753906l-92.585938 63.144532 116.121094-67.003906c2-1.113282 4.523438-.453126 5.71875 1.496093 1.195312 1.953125.636719 4.503907-1.265625 5.777344l-72.941406 47.394531 86.800781-50.109375c1.996094-1.15625 4.554688-.515625 5.769531 1.445313 1.214844 1.964844.644531 4.539062-1.28125 5.808594l-91.007812 60.296874 104.832031-60.511718c2-1.097656 4.511719-.429688 5.699219 1.519531s.632812 4.488281-1.261719 5.761719l-56.371094 36.179687 65.332032-37.71875c1.996093-1.132812 4.535156-.484375 5.738281 1.472657 1.207031 1.957031.644531 4.519531-1.269531 5.789062l-160.210938 105.21875c.328125 1.488281-.160156 3.039062-1.28125 4.070312l-9.820312 8.976563c.445312.339844.816406.765625 1.089843 1.253906 1.171875 2.039063.476563 4.640625-1.5625 5.820313l-20.09375 11.605468c-.644531.375-1.378906.574219-2.125.570313zm0 0" fill="#fdcd56"/><path d="m358.925781 371.691406c-1.835937 0-3.46875-1.175781-4.050781-2.917968-.578125-1.742188.019531-3.660157 1.488281-4.761719l54.9375-40.089844-54.332031 31.359375c-1.976562 1.078125-4.449219.429688-5.648438-1.476562-1.195312-1.90625-.707031-4.417969 1.117188-5.734376l36.269531-24.695312-34.808593 20.097656c-1.992188 1.28125-4.640626.703125-5.921876-1.289062-1.28125-1.992188-.703124-4.640625 1.289063-5.921875l63.46875-44.613281-62.921875 36.328124c-1.988281 1.054688-4.457031.386719-5.636719-1.53125-1.179687-1.917968-.667969-4.425781 1.171875-5.722656l22.304688-14.609375-20.476563 11.808594c-1.984375 1.136719-4.507812.507813-5.726562-1.425781s-.699219-4.480469 1.175781-5.78125l64.25-44.128906-63.515625 36.695312c-1.984375 1.265625-4.625.683594-5.890625-1.300781-1.269531-1.988281-.6875-4.625 1.300781-5.894531l77.421875-54.015626-77.167968 44.570313c-1.996094 1.117187-4.523438.457031-5.71875-1.496094-1.195313-1.953125-.636719-4.5 1.265624-5.773437l57.941407-37.699219c-1.332031-.652344-2.230469-1.949219-2.371094-3.425781-.144531-1.472656.488281-2.917969 1.671875-3.8125l49.246094-37.351563-34.304688 19.808594c-1.945312 1.101563-4.410156.511719-5.652344-1.347656-1.238281-1.863281-.832031-4.363281.933594-5.738281l36.691406-28.003907-29.78125 17.195313c-1.9375 1.113281-4.40625.542968-5.660156-1.308594s-.863281-4.355469.890625-5.742188l36.335938-28.550781-32.375 18.6875c-1.929688 1.132813-4.410157.582031-5.675781-1.261719-1.269532-1.847656-.894532-4.355468.855468-5.753906l35.769532-28.9375-34.609376 19.988282c-1.929687 1.132812-4.410156.582031-5.675781-1.265626-1.269531-1.84375-.894531-4.355468.851563-5.75l33.28125-27-34.3125 19.839844c-1.949219 1.136719-4.445313.554688-5.695313-1.324218-1.25-1.878907-.824219-4.40625.976563-5.765626l20.925781-15.949218-22.027344 12.714844c-1.921875 1.097656-4.367187.542968-5.625-1.28125-1.261719-1.824219-.914062-4.308594.796875-5.714844l31.257813-25.480469-36.140625 20.855469c-1.9375 1.078125-4.378906.492187-5.617188-1.347656-1.238281-1.839844-.859375-4.324219.875-5.710938l34.285156-26.683594c-1.367187-.554687-2.351562-1.773437-2.605468-3.226562-.25-1.453125.265625-2.933594 1.367187-3.917969l25.371094-22.644531c-.171875-1.675782.660156-3.292969 2.117187-4.132813l7.5-4.324219c1.890626-1.074218 4.289063-.554687 5.5625 1.207032 1.277344 1.761718 1.023438 4.199218-.585937 5.660156l-3.363281 3.011719 4.53125-2.617188c1.9375-1.101562 4.398437-.523437 5.644531 1.328125 1.246094 1.847656.855469 4.34375-.890625 5.726563l-24.84375 19.371093 28.476562-16.441406c1.925782-1.121094 4.386719-.570312 5.65625 1.261719 1.265626 1.832031.910157 4.328125-.816406 5.734375l-31.257812 25.488281 34.671875-20.019531c1.949219-1.132812 4.445312-.554688 5.695312 1.324219 1.25 1.878906.824219 4.40625-.976562 5.769531l-20.917969 15.878906 22.332031-12.902344c1.929688-1.105468 4.378907-.546874 5.636719 1.28125 1.261719 1.832032.90625 4.320313-.8125 5.726563l-33.28125 26.980469 35.039062-20.230469c1.925782-1.105469 4.375-.546875 5.636719 1.28125 1.257813 1.828125.902344 4.316406-.816406 5.722656l-35.796875 28.960938 37.058594-21.390625c1.9375-1.117188 4.410156-.546875 5.664062 1.304687 1.253906 1.851563.863282 4.359375-.894531 5.742188l-36.289063 28.5625 35.710938-20.609375c1.945312-1.078125 4.390625-.484375 5.625 1.367187 1.230469 1.851563.832031 4.339844-.914062 5.714844l-36.695313 28.007813 35.542969-20.480469c1.945312-1.085938 4.402344-.492188 5.632812 1.367187 1.234375 1.859375.828125 4.355469-.933594 5.722656l-49.234374 37.34375 46.230468-26.683593c1.992188-1.070313 4.472656-.398438 5.65625 1.527343 1.183594 1.929688.65625 4.441407-1.199218 5.734376l-28.160157 18.320312 24.636719-14.234375c1.976562-1.132813 4.5-.511719 5.722656 1.414063 1.222656 1.921874.71875 4.472656-1.148437 5.78125l-77.449219 54.03125 71.628906-41.351563c1.980469-1.132813 4.507813-.503906 5.726563 1.429687 1.21875 1.929688.699219 4.480469-1.179688 5.78125l-64.316406 44.132813 57.601563-33.277344c1.992187-1.097656 4.5-.4375 5.691406 1.503907 1.195312 1.9375.652344 4.472656-1.230469 5.757812l-22.28125 14.601562 14.277344-8.246093c1.976562-1.121094 4.484375-.496094 5.703125 1.417969 1.222656 1.914062.730468 4.449218-1.121094 5.769531l-63.453125 44.59375 51.5-29.730469c1.984375-1.152344 4.53125-.527344 5.753906 1.417969 1.222657 1.945312.683594 4.511719-1.214843 5.800781l-36.257813 24.679688 23.515625-13.578126c1.960938-1.105468 4.445312-.5 5.671875 1.386719 1.230469 1.886719.785156 4.402344-1.019531 5.75l-54.84375 40.105469 29.464844-17.015625c1.96875-1.128906 4.472656-.523437 5.707031 1.378906 1.230469 1.902344.761719 4.4375-1.074219 5.773438l-28.945312 20.957031c.457031.339844.839843.773438 1.121093 1.269531 1.171875 2.039063.472657 4.644531-1.5625 5.820313l-46.335937 26.742187c-1.964844 1.128907-4.472656.523438-5.703125-1.378906-1.234375-1.902344-.765625-4.4375 1.070312-5.769531l8.386719-6.078125-26.710938 15.421875c-.640624.375-1.371093.570312-2.113281.570312zm0 0" fill="#ac92ea"/><g fill="#262626"><path d="m358.457031 377.675781c.949219.101563 1.910157.027344 2.832031-.222656 84.664063-22.972656 144.074219-98.976563 145.917969-186.683594-.929687-49.816406-20.320312-97.515625-54.414062-133.847656-.171875-.179687-.394531-.210937-.574219-.367187-.179688-.152344-.160156-.332032-.332031-.5-49.324219-47.703126-119.902344-66.324219-186.339844-49.164063-66.433594 17.160156-119.164063 67.636719-139.214844 133.257813-.074219.3125-.121093.628906-.136719.949218-.042968.125-.152343.203125-.1875.332032-34.988281 144.945312 90.367188 264.507812 232.449219 236.246093zm93.558594-68.011719c-15.507813 18.597657-34.621094 33.859376-56.191406 44.859376-10.195313 4.753906-20.125 10.050781-29.75 15.871093-4.855469-18.8125-9.714844-37.625-14.574219-56.4375l-7.757812-30.0625c.308593-.796875 16.027343-5.855469 21.335937-9.082031 43.800781-26.441406 60.175781-81.941406 37.742187-127.921875-6.425781-12.800781-15.453124-15.453125-11.945312-24.953125v-.058594l21.722656-21.332031.351563-.324219 33.039062-32.429687c30.222657 34.285156 47.4375 78.097656 48.640625 123.785156-.507812 43.035156-15.523437 84.640625-42.613281 118.085937zm-223.15625-143.300781c22.324219-64.375 95.300781-82.398437 145.921875-37.785156 43.988281 51.199219 27.671875 127.453125-39.367188 149.085937-.296874.09375-.621093.273438-.945312.410157-69.144531 12.722656-118.683594-46.292969-105.609375-111.710938zm-66.953125-76.40625c63.503906-96.855469 194.78125-105.03125 277.28125-29.519531l-61.269531 60.09375c.324219-2.613281-16.671875-16.699219-24.257813-19.933594-36.1875-15.203125-77.890625-8.292968-107.238281 17.773438-5.777344 5.125-10.929687 10.90625-15.359375 17.230468-3.8125 7.085938-6.558594 14.691407-8.152344 22.578126-.441406.394531-.820312.847656-1.132812 1.347656-.792969 0-1.707032.101562-2.9375.230468-.246094 0-.554688-.066406-.851563-.058593l-11.707031-3.261719c-.855469-.304688-1.707031-.628906-2.375-.851562l-38.484375-10.710938c-.65625-.179688-1.613281-.382812-2.722656-.597656l-24.414063-6.824219c-.074218-.085937-.238281-.15625-.289062-.238281-2.746094-4.15625 20.003906-41.304688 23.910156-47.257813zm9.457031 214.730469c-34.457031-44.585938-47.074219-102.285156-34.363281-157.183594l74.9375 20.855469c8.285156 6.5625 2.03125 8.40625 1.109375 23.332031-.144531 8.191406.84375 16.363282 2.9375 24.285156 4.871094 18.960938 15.34375 36.011719 30.054687 48.929688 14.957032 13.066406 33.476563 21.367188 53.1875 23.832031-5.660156-.707031 31.34375 1.957031 25.324219 0 5.976563 1.964844 5.378907-.5625 4.941407-1.507812.316406.503906 1.09375 1.707031 2.894531 4 .128906.164062.238281.367187.367187.539062 4.144532 13.875 9.796875 29.234375 14.257813 44.371094 2.40625 13.894531 4.222656 27.742187 6.734375 37.769531-2.175782 12.851563-101.949219-10.339844-114.449219-16.101562-26.542969-12.0625-49.828125-30.269532-67.933594-53.121094zm0 0"/><path d="m166.695312 206.605469c-.257812-2.421875-.460937-4.835938-.605468-7.269531-.402344-6.765626-12.921875-5.121094-12.570313.785156.191407 3.277344.460938 6.542968.808594 9.796875.640625 6.023437 13.03125 2.960937 12.367187-3.3125zm0 0"/><path d="m174.527344 240.738281c-1.261719-3.367187-13.464844.378907-12.363282 3.3125 15.128907 40.882813 46.277344 73.832031 86.246094 91.238281 2.933594 1.304688 14.222656-3.320312 10.050782-5.171874-38.953126-17.160157-69.253907-49.421876-83.933594-89.378907zm0 0"/><path d="m298.449219 340.117188c-2.398438-.28125-4.769531-.613282-7.144531-1.003907-3.121094-.621093-6.351563.246094-8.746094 2.34375-1.707032 1.707031-1.527344 4.269531 1.273437 4.753907 3.304688.542968 6.613281 1 9.921875 1.375 3.128906.320312 6.203125-.988282 8.140625-3.464844 1.445313-2.671875-1.253906-3.746094-3.445312-4.003906zm0 0"/><path d="m506.558594 461.523438-34.132813-34.132813c-3.992187-3.984375-15.675781 1.109375-11.316406 5.476563 8.945313 8.9375 17.886719 17.878906 26.820313 26.820312h-441.648438v-442.09375c7.394531 7.394531 14.773438 14.773438 22.132812 22.136719 2.304688 2.300781 13.65625-2.238281 11.640626-4.269531l-33.910157-33.910157c-.136719-.445312-.554687-.648437-1.195312-.777343-.109375 0-.230469-.050782-.339844-.078126-3.636719-.195312-7.222656.9375-10.089844 3.183594l-34.132812 34.132813c-2.644531 2.636719 9.019531 1.359375 11.214843-.851563l22.324219-22.324218v444.851562h-27.417969c-7.101562 0-9.464843 9.148438-1.078124 9.148438h28.496093v31.214843c0 2.132813 12.355469.339844 12.355469-3.3125v-27.902343h445.234375c-7.023437 7.722656-25.078125 22.886718-29.867187 27.699218-5.46875 5.46875 6.410156 7.679688 10.359374 3.71875l34.132813-34.132812c.09375-.113282.179687-.234375.257813-.355469.636718-.507813 1.023437-1.269531 1.054687-2.085937.03125-.8125-.296875-1.601563-.894531-2.15625zm0 0"/></g></svg>