<svg id="Icons" height="512" viewBox="0 0 60 60" width="512" xmlns="http://www.w3.org/2000/svg"><path d="m13.825 59.471a.5.5 0 0 1 -.309-.893l.827-.652-2.56 1.474a.5.5 0 0 1 -.568-.818l1.371-1.132-3.379 1.95a.5.5 0 0 1 -.609-.78l2.3-2.38-5.474 3.16a.5.5 0 0 1 -.566-.82l1.2-.977-3.111 1.797a.5.5 0 0 1 -.567-.818l1.327-1.092-2.318 1.341a.5.5 0 0 1 -.619-.77l1.808-1.974-1.3.752a.5.5 0 0 1 -.673-.7l.592-.947a.5.5 0 0 1 -.3-.231.5.5 0 0 1 .183-.684l1.183-.677a.5.5 0 0 1 .674.7l-.421.673 2.376-1.373a.5.5 0 0 1 .619.77l-1.811 1.972 4.756-2.742a.5.5 0 0 1 .567.818l-1.323 1.09 3.308-1.908a.5.5 0 0 1 .565.82l-1.2.978 3.115-1.8a.5.5 0 0 1 .61.78l-2.3 2.379 5.472-3.157a.5.5 0 0 1 .568.818l-1.371 1.132 3.379-1.95a.5.5 0 0 1 .559.825l-.825.651 2.559-1.477a.5.5 0 0 1 .579.809l-1.8 1.573 4.126-2.382a.5.5 0 0 1 .612.777l-2.315 2.424 5.559-3.207a.5.5 0 0 1 .6.787l-2.252 2.242 5.247-3.029a.5.5 0 0 1 .557.827l-.6.465 2.239-1.293a.5.5 0 0 1 .556.828l-.538.416 2.156-1.244a.5.5 0 0 1 .563.823l-1.03.823 2.853-1.646a.5.5 0 0 1 .554.83l-.348.266 1.9-1.1a.5.5 0 0 1 .6.791l-2.205 2.139 5.077-2.93a.5.5 0 0 1 .615.774l-2.329 2.489 5.654-3.264a.5.5 0 0 1 .573.814l-1.584 1.34 3.731-2.154a.5.5 0 0 1 .554.83l-.294.225 1.828-1.056a.5.5 0 0 1 .582.807l-1.9 1.688 4.322-2.5a.5.5 0 0 1 .584.8l-1.948 1.75 3.218-1.858a.5.5 0 0 1 .591.8l-1.363 1.275 1.058-.61a.5.5 0 0 1 .652.73l-.635.86a.5.5 0 0 1 .483.875l-2.059 1.197a.5.5 0 0 1 -.652-.729l.635-.86-2.754 1.589a.5.5 0 0 1 -.592-.8l1.362-1.274-3.59 2.074a.5.5 0 0 1 -.584-.8l1.95-1.75-4.427 2.55a.5.5 0 0 1 -.582-.806l1.9-1.687-4.323 2.493a.5.5 0 0 1 -.554-.83l.3-.227-1.834 1.057a.5.5 0 0 1 -.573-.814l1.582-1.337-3.726 2.151a.5.5 0 0 1 -.615-.774l2.33-2.489-5.656 3.263a.5.5 0 0 1 -.6-.791l2.2-2.138-5.069 2.929a.5.5 0 0 1 -.554-.83l.352-.269-1.9 1.1a.5.5 0 0 1 -.563-.823l1.027-.822-2.852 1.644a.5.5 0 0 1 -.556-.828l.536-.415-2.154 1.243a.5.5 0 0 1 -.557-.827l.6-.468-2.243 1.3a.5.5 0 0 1 -.6-.787l2.252-2.242-5.248 3.024a.5.5 0 0 1 -.612-.777l2.315-2.423-5.554 3.2a.5.5 0 0 1 -.579-.809l1.8-1.572-4.125 2.381a.493.493 0 0 1 -.25.071z" fill="#1b6e8e"/><path d="m1.528 55.509a.5.5 0 0 1 -.286-.91l8.994-6.27-8.231 4.752a.5.5 0 0 1 -.54-.84l6.356-4.525-5.065 2.924a.5.5 0 0 1 -.532-.846l1.122-.767-.115.066a.5.5 0 0 1 -.553-.83l2.49-1.9-1.333.77a.5.5 0 0 1 -.562-.824l.842-.67a.508.508 0 0 1 -.427-.168.5.5 0 0 1 -.019-.635l1.068-1.384a.5.5 0 0 1 -.138-.921l1.615-.931a.5.5 0 0 1 .645.739l-.851 1.1 3.192-1.839a.5.5 0 0 1 .562.824l-.611.485 2.273-1.309a.5.5 0 0 1 .554.83l-2.494 1.9 4.733-2.73a.5.5 0 0 1 .532.845l-1.113.761 2.783-1.606a.5.5 0 0 1 .54.84l-6.359 4.524 9.3-5.364a.5.5 0 0 1 .537.842l-8.99 6.258 12.311-7.1a.5.5 0 0 1 .536.842l-9.009 6.284 12.343-7.126a.5.5 0 0 1 .523.851l-4.628 3.023 6.71-3.874a.5.5 0 0 1 .52.853l-1.879 1.2 3.563-2.053a.5.5 0 0 1 .531.845l-7.932 5.4 10.823-6.245a.5.5 0 0 1 .52.854l-1.479.946 3.119-1.8a.5.5 0 0 1 .528.847l-6.857 4.586 9.417-5.433a.5.5 0 0 1 .525.85l-5.425 3.571 7.658-4.421a.5.5 0 0 1 .521.853l-2.324 1.491 4.062-2.344a.5.5 0 0 1 .536.842l-8.915 6.207 12.209-7.049a.5.5 0 0 1 .523.852l-3.842 2.492 5.794-3.344a.5.5 0 0 1 .526.849l-5.979 3.96 7.513-4.338a.5.5 0 0 1 .536.843l-8.236 5.735 8.585-4.957a.5.5 0 0 1 .524.851l-2.058 1.35 1.882-1.086a.5.5 0 0 1 .543.838l-5.527 3.989 5.5-3.174a.5.5 0 0 1 .547.835l-3.735 2.75 3.65-2.107a.5.5 0 0 1 .539.841l-.551.391.336-.193a.5.5 0 0 1 .558.826l-1.564 1.228 1.394-.8a.5.5 0 0 1 .6.79l-1.581 1.549 1.449-.836a.5.5 0 0 1 .6.788l-.163.161a.5.5 0 0 1 .6.635l-.193.615a.5.5 0 0 1 .357.922l-.96.553a.5.5 0 0 1 -.726-.584l.182-.58-2.019 1.165a.5.5 0 0 1 -.6-.787l.11-.108-1.555.9a.5.5 0 0 1 -.6-.79l1.58-1.549-4.054 2.341a.5.5 0 0 1 -.559-.826l1.567-1.23-3.573 2.05a.5.5 0 0 1 -.539-.841l.546-.386-2.13 1.229a.5.5 0 0 1 -.547-.835l3.735-2.75-6.212 3.587a.5.5 0 0 1 -.543-.838l5.527-3.99-8.366 4.83a.5.5 0 0 1 -.525-.851l2.06-1.353-3.821 2.206a.5.5 0 0 1 -.537-.843l8.238-5.735-11.4 6.58a.5.5 0 0 1 -.526-.85l5.979-3.96-8.334 4.812a.5.5 0 0 1 -.522-.853l3.839-2.49-5.796 3.345a.5.5 0 0 1 -.536-.843l8.918-6.208-12.213 7.053a.5.5 0 0 1 -.521-.854l2.314-1.484-4.054 2.34a.5.5 0 0 1 -.524-.851l5.423-3.569-7.66 4.422a.5.5 0 0 1 -.528-.848l6.856-4.591-9.423 5.441a.5.5 0 0 1 -.52-.855l1.484-.947-3.122 1.8a.5.5 0 0 1 -.532-.846l7.928-5.4-10.823 6.252a.5.5 0 0 1 -.52-.854l1.889-1.209-3.575 2.064a.5.5 0 0 1 -.524-.852l4.626-3.021-6.711 3.874a.5.5 0 0 1 -.536-.842l9.006-6.282-12.344 7.127a.493.493 0 0 1 -.25.068z" fill="#185e89"/><path d="m47.048 49.326a.5.5 0 0 1 -.353-.854l2.2-2.186-3.6 2.079a.5.5 0 0 1 -.572-.815l2.577-2.17-2.86 1.65a.5.5 0 0 1 -.545-.837l.3-.218a.507.507 0 0 1 -.577-.186.5.5 0 0 1 .09-.67l3.457-2.881-2.885 1.667a.5.5 0 0 1 -.562-.823l2.794-2.236-2.232 1.288a.5.5 0 0 1 -.659-.145.5.5 0 0 1 .086-.67l3.7-3.136-3.128 1.8a.5.5 0 0 1 -.57-.816l3.46-2.883-2.89 1.668a.5.5 0 0 1 -.552-.831l1.638-1.245-1.086.627a.5.5 0 0 1 -.558-.826l2.412-1.9-1.854 1.07a.5.5 0 0 1 -.574-.813l3.736-3.175-3.161 1.835a.5.5 0 0 1 -.56-.824l2.58-2.042-2.02 1.166a.5.5 0 0 1 -.558-.827l2.4-1.887-1.842 1.066a.5.5 0 0 1 -.569-.818l3.414-2.836-2.845 1.642a.5.5 0 0 1 -.555-.829l2.013-1.552-1.458.841a.5.5 0 0 1 -.565-.82l3.075-2.5-2.51 1.449a.5.5 0 0 1 -.562-.823l2.844-2.284-2.282 1.317a.5.5 0 0 1 -.559-.826l2.5-1.97-1.94 1.12a.5.5 0 0 1 -.573-.815l3.692-3.126-3.118 1.8a.5.5 0 0 1 -.573-.815l3.684-3.118-3.111 1.8a.5.5 0 0 1 -.551-.831l1.558-1.181-1.007.581a.5.5 0 0 1 -.556-.828l2.168-1.683-1.612.93a.5.5 0 0 1 -.558-.826l2.4-1.887-1.844 1.061a.5.5 0 0 1 -.552-.831l1.672-1.276-1.124.649a.5.5 0 0 1 -.57-.817l2.294-1.909-1.716.991a.5.5 0 0 1 -.607-.783l1.241-1.273-.638.368a.5.5 0 0 1 -.737-.545l.3-1.31a.489.489 0 0 1 -.248-.215.5.5 0 0 1 .182-.683l.5-.29a.5.5 0 0 1 .738.545l-.239 1.06 2.8-1.614a.5.5 0 0 1 .608.782l-1.249 1.271 3.58-2.068a.5.5 0 0 1 .57.817l-2.285 1.912 2.92-1.689a.5.5 0 0 1 .552.831l-1.672 1.276 1.124-.649a.5.5 0 0 1 .558.826l-2.4 1.886 1.838-1.065a.5.5 0 0 1 .556.828l-2.17 1.685 1.614-.929a.5.5 0 0 1 .551.831l-1.558 1.179 1.007-.581a.5.5 0 0 1 .573.815l-3.685 3.119 3.113-1.8a.5.5 0 0 1 .573.814l-3.694 3.13 3.118-1.8a.5.5 0 0 1 .559.826l-2.5 1.97 1.94-1.119a.5.5 0 0 1 .562.823l-2.844 2.282 2.282-1.317a.5.5 0 0 1 .565.821l-3.076 2.5 2.511-1.45a.5.5 0 0 1 .555.829l-2.011 1.552 1.456-.841a.5.5 0 0 1 .569.818l-3.414 2.836 2.849-1.637a.5.5 0 0 1 .558.827l-2.4 1.887 1.846-1.066a.5.5 0 0 1 .56.825l-2.585 2.036 2.018-1.165a.5.5 0 0 1 .574.814l-3.736 3.174 3.162-1.825a.5.5 0 0 1 .558.826l-2.412 1.895 1.854-1.07a.5.5 0 0 1 .552.831l-1.64 1.248 1.091-.629a.5.5 0 0 1 .57.816l-3.457 2.881 2.887-1.667a.5.5 0 0 1 .573.815l-3.7 3.136 3.128-1.8a.5.5 0 0 1 .562.823l-2.794 2.236 2.232-1.288a.5.5 0 0 1 .57.816l-3.46 2.883 2.89-1.668a.5.5 0 0 1 .545.837l-.406.3a.5.5 0 0 1 .433.87l-2.583 2.162 2.01-1.16a.5.5 0 0 1 .6.787l-2.2 2.184 1.595-.92a.5.5 0 0 1 .5.865l-4.916 2.843a.489.489 0 0 1 -.252.067z" fill="#db9837"/><path d="m35.339 49.37a.5.5 0 0 1 -.365-.842l2.331-2.49-4.02 2.32a.5.5 0 0 1 -.578-.81l3.007-2.611-3.32 1.917a.5.5 0 0 1 -.568-.82l3.12-2.561-2.666 1.539a.5.5 0 0 1 -.551-.832l1.476-1.116-.925.535a.5.5 0 0 1 -.564-.822l2.984-2.415-2.42 1.4a.5.5 0 0 1 -.561-.824l2.675-2.127-2.114 1.217a.5.5 0 0 1 -.556-.827l2.157-1.675-1.6.924a.5.5 0 0 1 -.566-.82l3.12-2.543-2.555 1.474a.5.5 0 0 1 -.543-.838l.365-.264a.518.518 0 0 1 -.489-.219.5.5 0 0 1 .116-.676l1.409-1.064-.858.5a.5.5 0 0 1 -.575-.812l3.826-3.275-3.251 1.875a.5.5 0 0 1 -.563-.822l2.913-2.347-2.35 1.357a.5.5 0 0 1 -.554-.83l1.885-1.446-1.331.769a.5.5 0 0 1 -.557-.828l2.258-1.761-1.7.983a.5.5 0 0 1 -.558-.827l2.377-1.868-1.82 1.053a.5.5 0 0 1 -.575-.813l3.861-3.314-3.286 1.9a.5.5 0 0 1 -.548-.835l.87-.643-.322.185a.5.5 0 0 1 -.562-.824l2.752-2.2-2.19 1.265a.5.5 0 0 1 -.567-.819l3.256-2.678-2.689 1.555a.5.5 0 0 1 -.591-.8l2.748-2.56-2.157 1.244a.5.5 0 0 1 -.61-.78l.853-.887-.243.141a.5.5 0 0 1 -.733-.561l.271-1.026a.489.489 0 0 1 -.22-.2.5.5 0 0 1 .182-.683l.5-.29a.5.5 0 0 1 .734.561l-.2.735 2.263-1.307a.5.5 0 0 1 .61.78l-.852.886 2.9-1.676a.5.5 0 0 1 .591.8l-2.747 2.56 4.132-2.386a.5.5 0 0 1 .567.82l-3.255 2.676 2.688-1.552a.5.5 0 0 1 .562.824l-2.752 2.2 2.19-1.264a.5.5 0 0 1 .548.834l-.87.644.322-.186a.5.5 0 0 1 .575.813l-3.862 3.314 3.288-1.9a.5.5 0 0 1 .558.827l-2.37 1.863 1.824-1.053a.5.5 0 0 1 .557.828l-2.261 1.761 1.7-.983a.5.5 0 0 1 .554.83l-1.884 1.446 1.331-.768a.5.5 0 0 1 .563.822l-2.911 2.346 2.348-1.356a.5.5 0 0 1 .575.813l-3.828 3.276 3.253-1.878a.5.5 0 0 1 .55.832l-1.408 1.061.858-.495a.5.5 0 0 1 .543.838l-.366.265a.512.512 0 0 1 .484.211.5.5 0 0 1 -.095.672l-3.117 2.541 2.551-1.473a.5.5 0 0 1 .556.827l-2.161 1.678 1.6-.926a.5.5 0 0 1 .561.824l-2.671 2.124 2.11-1.217a.5.5 0 0 1 .564.821l-2.98 2.415 2.42-1.4a.5.5 0 0 1 .551.832l-1.471 1.122.925-.533a.5.5 0 0 1 .567.819l-3.12 2.561 2.553-1.473a.5.5 0 0 1 .578.81l-3.011 2.606 2.429-1.4a.5.5 0 0 1 .615.775l-2.336 2.489 1.653-.954a.5.5 0 1 1 .5.865l-4.564 2.635a.489.489 0 0 1 -.25.07z" fill="#2dbab3"/><path d="m24.705 49.363a.5.5 0 0 1 -.373-.833l1.184-1.323-3.125 1.8a.5.5 0 0 1 -.58-.809l2.023-1.775-2.822 1.629a.5.5 0 0 1 -.571-.817l2.77-2.314-2.888 1.667a.5.5 0 0 1 -.556-.828l2.089-1.619-1.576.909a.5.5 0 0 1 -.575-.813l3.807-3.252-3.232 1.869a.5.5 0 0 1 -.551-.832l1.381-1.039-.83.479a.5.5 0 0 1 -.568-.818l3.3-2.722-2.732 1.578a.5.5 0 0 1 -.576-.811l3.925-3.389-3.349 1.935a.5.5 0 0 1 -.543-.838l.367-.264a.512.512 0 0 1 -.481-.205.5.5 0 0 1 .08-.668l3.987-3.46-3.41 1.968a.5.5 0 0 1 -.565-.82l3.109-2.534-2.544 1.472a.5.5 0 0 1 -.552-.831l1.622-1.232-1.07.618a.5.5 0 0 1 -.55-.834l1.227-.918-.677.391a.5.5 0 0 1 -.576-.812l3.9-3.362-3.324 1.922a.5.5 0 0 1 -.56-.828l2.609-2.069-2.049 1.186a.5.5 0 0 1 -.559-.826l2.463-1.939-1.9 1.1a.5.5 0 0 1 -.57-.817l1.543-1.287-.973.562a.5.5 0 0 1 -.592-.8l.539-.5a.5.5 0 0 1 -.683-.575l.3-1.25a.487.487 0 0 1 -.243-.213.5.5 0 0 1 .182-.683l.5-.29a.5.5 0 0 1 .737.549l-.236.99 2.687-1.551a.5.5 0 0 1 .591.8l-.525.492 2.25-1.3a.5.5 0 0 1 .57.817l-1.542 1.287 2.901-1.683a.5.5 0 0 1 .559.827l-2.464 1.939 1.9-1.1a.5.5 0 0 1 .56.825l-2.604 2.069 2.049-1.183a.5.5 0 0 1 .576.812l-3.907 3.364 3.332-1.923a.5.5 0 0 1 .55.833l-1.227.919.677-.391a.5.5 0 0 1 .552.831l-1.62 1.23 1.068-.616a.5.5 0 0 1 .565.82l-3.109 2.534 2.544-1.469a.5.5 0 0 1 .577.811l-3.986 3.457 3.409-1.969a.5.5 0 0 1 .543.838l-.367.265a.507.507 0 0 1 .481.205.5.5 0 0 1 -.081.669l-3.927 3.387 3.351-1.934a.5.5 0 0 1 .568.818l-3.3 2.72 2.731-1.576a.5.5 0 0 1 .55.832l-1.385 1.043.835-.482a.5.5 0 0 1 .575.813l-3.806 3.252 3.232-1.87a.5.5 0 0 1 .556.829l-2.084 1.615 1.528-.882a.5.5 0 0 1 .57.816l-2.774 2.322 2.2-1.272a.5.5 0 0 1 .58.809l-2.024 1.774 1.444-.832a.5.5 0 0 1 .623.766l-1.18 1.323.238-.137a.5.5 0 0 1 .5.866l-2.943 1.7a.489.489 0 0 1 -.25.066z" fill="#d83a59"/><path d="m12.955 49.325a.5.5 0 0 1 -.349-.858l.156-.152-1.6.923a.5.5 0 0 1 -.571-.815l.677-.569-1.479.854a.5.5 0 0 1 -.554-.83l.255-.194-.535.308a.5.5 0 0 1 -.582-.806l3.573-3.169-3.666 2.116a.5.5 0 0 1 -.571-.816l3.543-2.969-2.972 1.715a.5.5 0 0 1 -.577-.81l3.943-3.406-3.366 1.943a.5.5 0 0 1 -.569-.817l3.435-2.858-2.866 1.655a.5.5 0 0 1 -.548-.834l.989-.735-.441.254a.5.5 0 0 1 -.669-.159.5.5 0 0 1 .123-.677l.617-.452-.071.04a.5.5 0 0 1 -.556-.827l2.176-1.687-1.615.932a.5.5 0 0 1 -.553-.83l1.764-1.347-1.211.7a.5.5 0 0 1 -.553-.83l1.833-1.4-1.28.738a.5.5 0 0 1 -.562-.822l1.4-1.121-.834.481a.5.5 0 0 1 -.611-.778l1.163-1.218-.552.318a.5.5 0 0 1 -.735-.552l.289-1.181a.489.489 0 0 1 -.236-.21.5.5 0 0 1 .182-.683l.5-.29a.5.5 0 0 1 .736.552l-.224.912 2.556-1.476a.5.5 0 0 1 .611.779l-1.168 1.213 3.477-2.008a.5.5 0 0 1 .563.824l-1.4 1.121 2.28-1.317a.5.5 0 0 1 .553.83l-1.831 1.4 1.278-.73a.5.5 0 0 1 .553.831l-1.764 1.347 1.211-.7a.5.5 0 0 1 .556.828l-2.176 1.686 1.62-.934a.5.5 0 0 1 .546.836l-.617.452.071-.04a.5.5 0 0 1 .548.834l-.983.73.435-.251a.5.5 0 0 1 .569.818l-3.435 2.857 2.866-1.654a.5.5 0 0 1 .577.81l-3.944 3.407 3.367-1.944a.5.5 0 0 1 .571.816l-3.544 2.971 2.974-1.716a.5.5 0 0 1 .582.806l-3.572 3.167 2.99-1.725a.5.5 0 0 1 .553.83l-.407.31a.51.51 0 0 1 .513.2.5.5 0 0 1 -.088.67l-.682.573.111-.064a.5.5 0 0 1 .6.791l-.69.673a.5.5 0 0 1 .255.218.5.5 0 0 1 -.183.682l-2.5 1.441a.489.489 0 0 1 -.248.069z" fill="#1169d3"/><path d="m49.082 7.306a.5.5 0 0 1 -.382-.822l.923-1.1-3.008 1.741a.5.5 0 0 1 -.6-.786l1.952-1.965-2.939 1.7a.5.5 0 0 1 -.582-.807l1.2-1.069-1.239.715a.5.5 0 0 1 -.633-.755l.978-1.161a.5.5 0 0 1 -.533-.24.5.5 0 0 1 .181-.687l2.269-1.309a.5.5 0 0 1 .633.755l-.929 1.1 3.016-1.739a.5.5 0 0 1 .582.807l-1.2 1.069 1.939-1.119a.5.5 0 0 1 .6.785l-1.95 1.966 2.24-1.285a.5.5 0 0 1 .632.756l-.974 1.155a.5.5 0 0 1 .348.924l-2.274 1.304a.5.5 0 0 1 -.25.067z" fill="#fcb544"/><path d="m35.694 15.424a.5.5 0 0 1 -.34-.866l.835-.779-1.978 1.142a.5.5 0 0 1 -.576-.812l1.042-.9-1.6.922a.5.5 0 0 1 -.575-.813l.9-.767-.943.545a.5.5 0 0 1 -.644-.741l1.128-1.444-.042.024a.5.5 0 0 1 -.5-.866l2.269-1.309a.5.5 0 0 1 .643.74l-1.126 1.443 3.4-1.965a.5.5 0 0 1 .575.813l-.9.767 1.5-.863a.5.5 0 0 1 .576.811l-1.042.9 1.193-.689a.5.5 0 0 1 .591.8l-.835.778.328-.19a.5.5 0 0 1 .5.867l-4.131 2.385a.5.5 0 0 1 -.248.067z" fill="#38d6d2"/><path d="m24.041 21.465a.5.5 0 0 1 -.34-.867l.5-.461-1.652.954a.5.5 0 0 1 -.589-.8l1.5-1.387-2.294 1.325a.5.5 0 0 1 -.587-.8l1.439-1.312-1.581.912a.5.5 0 0 1 -.639-.746l1.063-1.324a.5.5 0 0 1 -.462-.886l2.269-1.309a.5.5 0 0 1 .64.746l-1.06 1.319 3.266-1.885a.5.5 0 0 1 .587.8l-1.438 1.311 2.187-1.263a.5.5 0 0 1 .588.8l-1.5 1.387 1.64-.947a.5.5 0 0 1 .59.8l-.552.509a.5.5 0 0 1 .385.915l-3.71 2.144a.5.5 0 0 1 -.25.065z" fill="#f84861"/><path d="m13.082 30.306a.5.5 0 0 1 -.369-.837l.637-.7-2.468 1.431a.5.5 0 0 1 -.587-.8l1.3-1.187-2.2 1.271a.5.5 0 0 1 -.617-.774l2.165-2.328-2.552 1.469a.5.5 0 0 1 -.629-.76l.938-1.091a.5.5 0 0 1 -.3-.93l2.269-1.309a.5.5 0 0 1 .629.76l-.854.989 2.883-1.664a.5.5 0 0 1 .616.774l-2.164 2.326 3.3-1.9a.5.5 0 0 1 .587.8l-1.3 1.187 1.282-.74a.5.5 0 0 1 .62.77l-.859.937a.5.5 0 0 1 .192.93l-2.269 1.309a.5.5 0 0 1 -.25.067z" fill="#186fee"/><path d="m1.824 59.456c1.386.459 3.8 0 5.228 0h46.53a18.5 18.5 0 0 0 4.148 0c2.48-.646 2-2.178 2-4.533 0-.018-.011-.027-.013-.044a.13.13 0 0 0 .009-.073q-1.419-4.614-2.839-9.227c-.818-2.661-1.3-3.8-4.149-3.865v-37.762c0-.007 0-.01 0-.016a.421.421 0 0 0 -.016-.083c0-.017.01-.03.008-.047-.385-4.581-9.198-4.306-9.43.13a.433.433 0 0 0 -.031.112v36.16c0 .493-.013.993-.028 1.5h-2.5v-29.76-.006a.367.367 0 0 0 -.017-.091c0-.016.01-.029.008-.045-.381-4.6-9.235-4.331-9.433.154a.42.42 0 0 0 -.026.092v29.4h-2.32c-.062-1.561-.229-3.112-.229-4.393v-19.105c0-.009 0-.016.006-.025s-.006-.015-.006-.025v-.1c-.382-4.623-9.466-4.257-9.451.327 0 .018.006.033.007.052v.009 19.257c0 1.181-.114 2.659-.149 4.167h-2.396c-.006-.247-.011-.493-.011-.736v-14.074c-.374-4.516-9.49-3.976-9.448.388v14.552a3.663 3.663 0 0 0 -3.663 2.57c-1.391 3.345-2.194 7.062-3.247 10.541a.35.35 0 0 0 -.094.22c0 2.05-.58 3.674 1.552 4.379zm55.181-.912c-1.78.436-4.205 0-6.034 0h-41.402a34.577 34.577 0 0 1 -5.872 0c-2.067-.378-1.986-1.044-1.971-3.251h56.549c.037 2.207.594 2.794-1.27 3.251zm-12.063-11.793a19.778 19.778 0 0 1 -.27-4.871.1.1 0 0 0 0-.109c.027-.806.06-1.607.06-2.382v-32.641a6.285 6.285 0 0 0 6.528-.33v39.63c-.24 3.179-4.974 2.919-6.318.703zm6.316-42.642c-.337 3.326-6.547 3.071-6.5-.237.051-3.42 6.126-2.933 6.5.237zm-17.63 43.5c-1.462-1.869-.893-4.765-.893-6.973v-25.881a6.263 6.263 0 0 0 6.53-.323v31.62c-.199 2.774-3.875 2.833-5.637 1.556zm5.629-35.5c-.335 3.306-6.551 3.066-6.5-.23.059-3.403 6.12-2.927 6.5.221zm-18.533 30.191v-21.573a6.33 6.33 0 0 0 6.552-.348v21.976a15.492 15.492 0 0 1 0 3.157c-.56 2.412-3.5 4.411-5.651 1.955-1.277-1.457-.901-3.285-.901-5.167zm6.537-24.18c-.343 3.37-6.538 3.078-6.5-.253.039-3.467 6.139-2.951 6.5.253zm-18.793 23.826c.215-.126.306-.238 0-.238.057-1.75.252-3.518.252-4.97v-7.064a6.541 6.541 0 0 0 6.552-.487v14.2a10.357 10.357 0 0 1 0 2.038c-.54 2.456-5.057 3.927-6.191 1.225a11.734 11.734 0 0 1 -.613-4.704zm6.808-14.752c-.3 3.579-6.592 3.014-6.552-.388.044-3.614 6.276-2.975 6.552.388zm-12.198 23.244c.737-2.4 1.188-7.822 4.2-8.117.022 3.892.385 8.114 5.884 6.916 3.73-.813 3.684-3.845 3.594-6.853h2.361c-.006 4.008.783 7.91 6.008 6.712 3.221-.738 3.847-3.55 3.849-6.55h2.291v.217c0 2.093-.313 3.834 1.072 5.543.015.019.039.026.056.041s.025.042.05.061c2.5 1.915 8.014 1.406 8.292-2.46v-3.648h2.485a19.576 19.576 0 0 0 .283 4.9.377.377 0 0 0 .056.1c0 .01 0 .019.007.029s.024.031.034.048.016.028.027.039c1.95 3.261 8.782 2.784 9.109-1.461v-3.422c3.588 1.353 4.449 8.64 5.4 12.174h-48.879c-1.721 0-5.4.717-7 0-.467-.209-.629-.1-.517.071-.312-.478 1.132-3.669 1.338-4.34z" fill="#262626"/></svg>