<svg id="Icons" height="512" viewBox="0 0 60 60" width="512" xmlns="http://www.w3.org/2000/svg"><path d="m45.559 52.492a.5.5 0 0 1 -.308-.893l1.809-1.414-3.78 2.181a.5.5 0 0 1 -.538-.842l.927-.653-.389.225a.5.5 0 0 1 -.548-.834l2.958-2.194-2.41 1.391a.5.5 0 0 1 -.535-.844l.37-.256a.5.5 0 0 1 -.383-.894l3.032-2.254-2.484 1.434a.5.5 0 0 1 -.564-.822l5-4.047-4.436 2.563a.5.5 0 0 1 -.551-.832l3.4-2.561-2.849 1.646a.5.5 0 0 1 -.563-.822l4.926-3.97-4.364 2.518a.5.5 0 0 1 -.544-.837l2.244-1.63-1.7.981a.5.5 0 0 1 -.536-.843l.425-.3a.5.5 0 0 1 -.434-.884l2.408-1.757-1.863 1.082a.5.5 0 0 1 -.562-.822l4.851-3.893-4.289 2.476a.5.5 0 0 1 -.564-.822l4.974-4.018-4.41 2.549a.5.5 0 0 1 -.55-.832l3.43-2.586-2.88 1.663a.5.5 0 0 1 -.548-.835l2.869-2.126-2.323 1.341a.5.5 0 0 1 -.555-.829l4.1-3.172-3.543 2.046a.5.5 0 0 1 -.546-.836l2.534-1.856-1.988 1.148a.5.5 0 0 1 -.553-.83l3.855-2.955-3.3 1.907a.5.5 0 0 1 -.556-.828l4.145-3.22-3.591 2.073a.5.5 0 0 1 -.563-.822l4.93-3.975-4.367 2.524a.5.5 0 0 1 -.554-.829l3.968-3.055-3.414 1.971a.5.5 0 0 1 -.561-.824l4.708-3.751-4.147 2.394a.5.5 0 0 1 -.558-.826l4.344-3.4-3.786 2.186a.5.5 0 0 1 -.555-.829l4.042-3.121-3.487 2.014a.5.5 0 0 1 -.544-.838l2.224-1.616-1.68.97a.5.5 0 0 1 -.563-.822l4.257-3.424-3.694 2.133a.5.5 0 0 1 -.548-.835l.442-.327a.5.5 0 0 1 -.5-.83l1.609-1.633-1 .579a.5.5 0 0 1 -.7-.657l.525-1.049a.5.5 0 0 1 -.243-.933l1.128-.648a.5.5 0 0 1 .7.656l-.467.935 2.753-1.591a.5.5 0 0 1 .606.784l-1.609 1.63 4.188-2.414a.5.5 0 0 1 .548.835l-.344.254 1.728-1a.5.5 0 0 1 .563.823l-4.258 3.423 4.32-2.495a.5.5 0 0 1 .544.838l-2.224 1.616 1.682-.971a.5.5 0 0 1 .555.829l-4.042 3.122 3.488-2.014a.5.5 0 0 1 .558.827l-4.344 3.4 3.787-2.187a.5.5 0 0 1 .561.825l-4.709 3.752 4.15-2.4a.5.5 0 0 1 .554.829l-3.969 3.055 3.416-1.972a.5.5 0 0 1 .563.822l-4.93 3.975 4.368-2.522a.5.5 0 0 1 .556.828l-4.146 3.216 3.591-2.074a.5.5 0 0 1 .553.83l-3.855 2.954 3.3-1.907a.5.5 0 0 1 .546.837l-2.533 1.856 1.988-1.149a.5.5 0 0 1 .556.829l-4.1 3.173 3.546-2.048a.5.5 0 0 1 .548.835l-2.868 2.126 2.323-1.341a.5.5 0 0 1 .551.833l-3.429 2.584 2.879-1.663a.5.5 0 0 1 .565.823l-4.975 4.018 4.411-2.547a.5.5 0 0 1 .563.823l-4.851 3.891 4.289-2.476a.5.5 0 0 1 .545.837l-2.41 1.759 1.866-1.077a.5.5 0 0 1 .536.843l-.425.3a.5.5 0 0 1 .434.884l-2.241 1.629 1.7-.981a.5.5 0 0 1 .564.822l-4.926 3.967 4.363-2.518a.5.5 0 0 1 .551.832l-3.4 2.557 2.849-1.644a.5.5 0 0 1 .565.821l-5 4.046 4.438-2.563a.5.5 0 0 1 .548.834l-3.034 2.256 2.487-1.435a.5.5 0 0 1 .535.843l-.37.257a.492.492 0 0 1 .5.218.5.5 0 0 1 -.12.676l-2.96 2.2 2.413-1.392a.5.5 0 0 1 .538.841l-.92.648.382-.22a.5.5 0 0 1 .558.826l-1.802 1.405 1.251-.721a.5.5 0 0 1 .641.745l-1.769 2.208 1.13-.653a.5.5 0 0 1 .734.556l-.28 1.1a.5.5 0 0 1 .047.89l-.5.29a.506.506 0 0 1 -.552-.035.5.5 0 0 1 -.182-.521l.209-.825-2.406 1.389a.5.5 0 0 1 -.64-.745l1.769-2.208-5.136 2.965a.494.494 0 0 1 -.257.071z" fill="#f84861"/><path d="m38.252 53.493a.5.5 0 0 1 -.319-.885l3.221-2.676-4.874 2.813a.5.5 0 0 1 -.554-.829l3.968-3.054-3.414 1.972a.5.5 0 0 1 -.542-.834l1.87-1.346-1.328.767a.5.5 0 0 1 -.557-.827l4.3-3.354-3.743 2.16a.5.5 0 0 1 -.535-.843l.4-.278a.5.5 0 0 1 -.4-.894l1.474-1.051-.935.539a.5.5 0 0 1 -.555-.828l4.038-3.115-3.483 2.01a.5.5 0 0 1 -.551-.832l3.5-2.643-2.948 1.7a.5.5 0 0 1 -.55-.832l3.425-2.581-2.875 1.659a.5.5 0 0 1 -.558-.826l4.363-3.416-3.8 2.2a.5.5 0 0 1 -.539-.84l1.229-.872-.69.4a.5.5 0 0 1 -.56-.824l4.594-3.639-4.034 2.329a.5.5 0 0 1 -.55-.832l3.434-2.589-2.884 1.664a.5.5 0 0 1 -.544-.837l2.2-1.595-1.654.955a.5.5 0 0 1 -.562-.824l4.832-3.875-4.27 2.466a.5.5 0 0 1 -.56-.825l4.561-3.631-4.014 2.318a.5.5 0 0 1 -.56-.825l4.643-3.687-4.083 2.357a.5.5 0 0 1 -.55-.832l3.411-2.571-2.861 1.652a.5.5 0 0 1 -.545-.838l2.275-1.657-1.73 1a.5.5 0 0 1 -.552-.831l2.194-1.668-1.642.948a.5.5 0 0 1 -.592-.8l2.076-1.953-1.484.857a.5.5 0 0 1 -.714-.62l.681-1.69a.5.5 0 0 1 -.382-.915l1.128-.651a.5.5 0 0 1 .714.62l-.671 1.664 3.957-2.278a.5.5 0 0 1 .593.8l-2.076 1.953 4.763-2.753a.5.5 0 0 1 .553.831l-2.2 1.671 3.033-1.752a.5.5 0 0 1 .545.838l-2.273 1.655 1.789-1.032a.5.5 0 0 1 .55.832l-3.41 2.567 2.864-1.653a.5.5 0 0 1 .56.825l-4.642 3.686 4.083-2.357a.5.5 0 0 1 .56.825l-4.576 3.621 4.018-2.32a.5.5 0 0 1 .562.824l-4.831 3.874 4.271-2.466a.5.5 0 0 1 .543.838l-2.2 1.593 1.653-.954a.5.5 0 0 1 .55.832l-3.438 2.593 2.894-1.671a.5.5 0 0 1 .561.825l-4.591 3.64 4.034-2.329a.5.5 0 0 1 .54.84l-1.222.868.683-.395a.5.5 0 0 1 .559.826l-4.367 3.419 3.81-2.2a.5.5 0 0 1 .551.832l-3.424 2.58 2.874-1.659a.5.5 0 0 1 .552.832l-3.5 2.645 2.953-1.7a.5.5 0 0 1 .556.828l-4.034 3.112 3.479-2.008a.5.5 0 0 1 .54.84l-1.47 1.049.932-.538a.5.5 0 0 1 .535.842l-.4.279a.492.492 0 0 1 .529.207.5.5 0 0 1 -.107.673l-4.303 3.35 3.74-2.159a.5.5 0 0 1 .542.839l-1.867 1.343 1.326-.765a.5.5 0 0 1 .555.829l-3.971 3.055 3.42-1.975a.5.5 0 0 1 .569.817l-3.221 2.677 2.653-1.531a.5.5 0 0 1 .629.759l-1.918 2.229 1.291-.745a.5.5 0 0 1 .65.732l-.341.456a.5.5 0 0 1 .192.93l-1.656.956a.5.5 0 0 1 -.624-.1.5.5 0 0 1 -.027-.632l.193-.256-1.725 1a.5.5 0 0 1 -.629-.759l1.919-2.232-5.2 3a.491.491 0 0 1 -.248.067z" fill="#186fee"/><path d="m31.323 52.5a.5.5 0 0 1 -.335-.871l3.184-2.88-3.845 2.219a.5.5 0 0 1 -.563-.822l2.9-2.34-2.279 1.315a.5.5 0 0 1 -.573-.815l3.507-2.948-2.866 1.654a.5.5 0 0 1 -.57-.818l3.288-2.736-2.652 1.531a.5.5 0 0 1 -.567-.819l2.961-2.424-2.334 1.347a.5.5 0 0 1 -.57-.817l3.2-2.673-2.563 1.477a.5.5 0 0 1 -.544-.836l.383-.281a.516.516 0 0 1 -.462-.212.5.5 0 0 1 .094-.671l2.867-2.359-2.239 1.293a.5.5 0 0 1 -.551-.832l.978-.738-.383.221a.5.5 0 0 1 -.567-.819l2.731-2.246-2.1 1.214a.5.5 0 0 1 -.576-.812l3.285-2.815-2.642 1.525a.5.5 0 0 1 -.562-.824l2.062-1.641-1.447.835a.5.5 0 0 1 -.581-.807l3.53-3.123-2.876 1.661a.5.5 0 0 1 -.555-.83l1.191-.916-.591.342a.5.5 0 0 1 -.576-.812l2.671-2.3-2.033 1.174a.5.5 0 0 1 -.577-.811l.677-.587-.056.032a.5.5 0 0 1 -.738-.542l.393-1.771a.492.492 0 0 1 -.261-.22.5.5 0 0 1 .183-.683l.509-.294a.5.5 0 0 1 .739.541l-.34 1.535 3.6-2.077a.5.5 0 0 1 .578.811l-.676.586 2.109-1.218a.5.5 0 0 1 .576.812l-2.671 2.3 2.531-1.461a.5.5 0 0 1 .554.829l-1.192.917.64-.369a.5.5 0 0 1 .581.808l-3.531 3.122 2.952-1.7a.5.5 0 0 1 .561.824l-2.066 1.645 1.5-.866a.5.5 0 0 1 .575.813l-3.285 2.817 2.713-1.567a.5.5 0 0 1 .567.819l-2.731 2.242 2.162-1.258a.5.5 0 0 1 .551.832l-.978.737.429-.247a.5.5 0 0 1 .568.819l-2.867 2.359 2.3-1.329a.5.5 0 0 1 .545.836l-.354.26a.494.494 0 0 1 .471.209.5.5 0 0 1 -.09.67l-3.2 2.676 2.636-1.521a.5.5 0 0 1 .567.819l-2.958 2.422 2.393-1.382a.5.5 0 0 1 .571.817l-3.288 2.736 2.719-1.57a.5.5 0 0 1 .572.816l-3.507 2.949 2.937-1.7a.5.5 0 0 1 .564.822l-2.91 2.35 2.342-1.352a.5.5 0 0 1 .585.8l-3.183 2.879 2.6-1.5a.5.5 0 0 1 .636.751l-1.405 1.7.771-.445a.5.5 0 0 1 .69.669l-.291.544a.5.5 0 0 1 .1.91l-.978.564a.493.493 0 0 1 -.6-.073.5.5 0 0 1 -.093-.6l.148-.275-1.652.953a.5.5 0 0 1 -.636-.751l1.406-1.7-4.274 2.467a.489.489 0 0 1 -.243.079z" fill="#fcb544"/><path d="m23.673 52.492a.5.5 0 0 1 -.31-.892l1.872-1.476-3.955 2.283a.5.5 0 0 1 -.556-.827l4.218-3.28-3.662 2.114a.5.5 0 0 1 -.562-.823l4.827-3.866-4.265 2.462a.5.5 0 0 1 -.545-.837l2.374-1.731-1.829 1.056a.5.5 0 0 1 -.536-.843l.493-.345a.5.5 0 0 1 -.511-.851l3.947-3.036-3.394 1.959a.5.5 0 0 1 -.554-.83l3.982-3.065-3.428 1.979a.5.5 0 0 1 -.546-.836l2.63-1.932-2.084 1.2a.5.5 0 0 1 -.551-.831l3.583-2.715-3.032 1.749a.5.5 0 0 1 -.542-.839l1.863-1.331-1.316.759a.5.5 0 0 1 -.548-.834l2.951-2.188-2.4 1.386a.5.5 0 0 1 -.55-.832l3.342-2.511-2.8 1.612a.5.5 0 0 1 -.549-.833l3.118-2.325-2.569 1.482a.5.5 0 0 1 -.538-.841l.845-.595-.307.177a.5.5 0 0 1 -.558-.826l4.4-3.452-3.842 2.213a.5.5 0 0 1 -.554-.83l3.884-2.98-3.33 1.923a.5.5 0 0 1 -.54-.84l1.447-1.031-.907.523a.5.5 0 0 1 -.552-.831l3.635-2.762-3.083 1.78a.5.5 0 0 1 -.559-.826l4.48-3.526-3.919 2.263a.5.5 0 0 1 -.55-.832l2.53-1.9-1.98 1.143a.5.5 0 0 1 -.569-.817l1.853-1.537-1.284.741a.5.5 0 0 1 -.616-.773l1.173-1.263-.557.321a.5.5 0 0 1 -.676-.694l.363-.593a.5.5 0 0 1 -.1-.91l1.128-.651a.5.5 0 0 1 .677.694l-.188.3 1.732-1a.5.5 0 0 1 .616.773l-1.173 1.263 3.524-2.028a.5.5 0 0 1 .569.818l-1.853 1.532 4-2.312a.5.5 0 0 1 .551.833l-2.532 1.9 2.8-1.615a.5.5 0 0 1 .559.825l-4.478 3.533 3.922-2.264a.5.5 0 0 1 .552.831l-3.635 2.762 3.085-1.781a.5.5 0 0 1 .54.84l-1.447 1.031.908-.524a.5.5 0 0 1 .554.83l-3.879 2.979 3.33-1.923a.5.5 0 0 1 .558.827l-4.4 3.452 3.844-2.219a.5.5 0 0 1 .538.841l-.842.593.3-.176a.5.5 0 0 1 .548.834l-3.12 2.327 2.573-1.486a.5.5 0 0 1 .551.833l-3.344 2.512 2.794-1.613a.5.5 0 0 1 .548.835l-2.948 2.187 2.4-1.387a.5.5 0 0 1 .542.839l-1.861 1.339 1.321-.762a.5.5 0 0 1 .552.831l-3.581 2.714 3.03-1.749a.5.5 0 0 1 .546.836l-2.628 1.929 2.083-1.2a.5.5 0 0 1 .555.829l-3.982 3.067 3.429-1.981a.5.5 0 0 1 .555.829l-3.947 3.035 3.393-1.959a.5.5 0 0 1 .536.842l-.491.344a.5.5 0 0 1 .5.86l-2.372 1.729 1.832-1.058a.5.5 0 0 1 .563.824l-4.83 3.869 4.269-2.462a.5.5 0 0 1 .557.827l-4.217 3.273 3.661-2.113a.5.5 0 0 1 .56.825l-1.871 1.475 1.313-.758a.5.5 0 0 1 .571.816l-.634.532.064-.037a.5.5 0 0 1 .667.708l-.748 1.132.082-.046a.5.5 0 1 1 .5.865l-1.918 1.107a.5.5 0 0 1 -.667-.708l.748-1.133-3.206 1.851a.5.5 0 0 1 -.571-.816l.636-.533-2.348 1.356a.491.491 0 0 1 -.25.069z" fill="#2dbab3"/><path d="m15.633 52.5a.5.5 0 0 1 -.309-.893l2.792-2.189-3.836 2.21a.5.5 0 0 1 -.539-.841l1.23-.872-.691.4a.5.5 0 0 1 -.544-.836l2.3-1.677-1.76 1.015a.5.5 0 0 1 -.548-.834l2.964-2.2-2.416 1.4a.5.5 0 0 1 -.562-.823l4.846-3.886-4.281 2.466a.5.5 0 0 1 -.548-.834l2.926-2.168-2.378 1.373a.5.5 0 0 1 -.544-.837l2.308-1.68-1.764 1.018a.5.5 0 0 1 -.555-.829l4.076-3.149-3.519 2.031a.5.5 0 0 1 -.541-.839l1.679-1.2-1.138.656a.5.5 0 0 1 -.548-.833l2.941-2.181-2.393 1.381a.5.5 0 0 1 -.561-.824l4.732-3.774-4.171 2.407a.5.5 0 0 1 -.564-.821l4.972-4.018-4.41 2.541a.5.5 0 0 1 -.54-.839l1.309-.931-.769.444a.5.5 0 0 1 -.546-.836l2.626-1.929-2.08 1.2a.5.5 0 0 1 -.558-.826l3.413-2.685-2.855 1.648a.5.5 0 0 1 -.56-.824l1.175-.933-.615.355a.5.5 0 0 1 -.608-.782l1.129-1.155-.517.3a.5.5 0 0 1 -.682-.683l.411-.713a.5.5 0 0 1 -.144-.921l1.128-.651a.5.5 0 0 1 .683.683l-.28.486 2.021-1.168a.5.5 0 0 1 .608.781l-1.128 1.154 3.361-1.935a.5.5 0 0 1 .56.825l-1.174.932 3.043-1.757a.5.5 0 0 1 .559.826l-3.415 2.686 3.887-2.244a.5.5 0 0 1 .546.836l-2.626 1.929 2.081-1.2a.5.5 0 0 1 .54.841l-1.31.93.772-.446a.5.5 0 0 1 .564.822l-4.971 4.017 4.409-2.545a.5.5 0 0 1 .561.824l-4.733 3.775 4.174-2.409a.5.5 0 0 1 .547.834l-2.941 2.181 2.395-1.382a.5.5 0 0 1 .542.839l-1.674 1.2 1.134-.654a.5.5 0 0 1 .556.828l-4.078 3.152 3.524-2.04a.5.5 0 0 1 .544.837l-2.3 1.679 1.757-1.016a.5.5 0 0 1 .548.834l-2.927 2.166 2.381-1.374a.5.5 0 0 1 .563.822l-4.843 3.885 4.282-2.472a.5.5 0 0 1 .548.834l-2.965 2.2 2.419-1.4a.5.5 0 0 1 .544.837l-2.309 1.682 1.767-1.014a.5.5 0 0 1 .539.841l-1.219.865.681-.393a.5.5 0 0 1 .559.826l-2.794 2.19 2.237-1.292a.5.5 0 0 1 .559.827l-.6.469.041-.023a.5.5 0 0 1 .65.733l-1.188 1.58.54-.311a.5.5 0 0 1 .726.588l-.215.657a.5.5 0 0 1 -.009.861l-.5.29a.5.5 0 0 1 -.726-.589l.095-.289-1.529.883a.5.5 0 0 1 -.65-.733l1.186-1.58-4.025 2.321a.5.5 0 0 1 -.559-.826l.6-.47-2.258 1.3a.491.491 0 0 1 -.25.075z" fill="#f84861"/><path d="m6.957 52.5a.5.5 0 0 1 -.311-.892l3.695-2.927-4.061 2.34a.5.5 0 0 1 -.557-.827l4.313-3.368-3.756 2.168a.5.5 0 0 1 -.564-.821l4.986-4.03-4.423 2.557a.5.5 0 0 1 -.56-.825l4.581-3.626-4.021 2.319a.5.5 0 0 1 -.562-.823l4.8-3.84-4.238 2.446a.5.5 0 0 1 -.535-.843l.4-.277a.5.5 0 0 1 -.408-.89l2.6-1.908-2.057 1.185a.5.5 0 0 1 -.535-.844l.362-.251a.506.506 0 0 1 -.493-.216.5.5 0 0 1 .113-.675l3.832-2.932-3.279 1.891a.5.5 0 0 1 -.552-.831l2.965-2.252-2.413 1.392a.5.5 0 0 1 -.552-.83l.893-.68-.341.2a.5.5 0 0 1 -.616-.773l1.566-1.682-.95.548a.5.5 0 0 1 -.688-.673l.454-.83a.5.5 0 0 1 -.181-.928l1.128-.652a.5.5 0 0 1 .689.673l-.357.651 2.294-1.324a.5.5 0 0 1 .616.774l-1.565 1.678 4.253-2.452a.5.5 0 0 1 .553.831l-.894.681 2.476-1.43a.5.5 0 0 1 .552.831l-2.965 2.253 3.077-1.777a.5.5 0 0 1 .553.83l-3.831 2.933 3.28-1.893a.5.5 0 0 1 .535.844l-.362.25a.5.5 0 0 1 .375.9l-2.6 1.908 2.056-1.187a.5.5 0 0 1 .535.843l-.4.277a.5.5 0 0 1 .427.877l-4.789 3.829 4.236-2.445a.5.5 0 0 1 .561.825l-4.58 3.623 4.022-2.322a.5.5 0 0 1 .565.821l-4.985 4.029 4.423-2.553a.5.5 0 0 1 .558.827l-4.313 3.367 3.758-2.169a.5.5 0 0 1 .561.824l-3.7 2.93 3.139-1.811a.5.5 0 0 1 .606.784l-2.531 2.554 1.928-1.114a.5.5 0 0 1 .623.766l-.583.652a.5.5 0 0 1 .688.609l-.215.655a.49.49 0 0 1 .175.178.5.5 0 0 1 -.184.683l-.5.29a.5.5 0 0 1 -.726-.589l.094-.286-1.525.88a.5.5 0 0 1 -.623-.765l.573-.643-2.461 1.421a.5.5 0 0 1 -.605-.784l2.531-2.557-5.8 3.35a.491.491 0 0 1 -.253.07z" fill="#186fee"/><path d="m6 56.5a.5.5 0 0 1 -.356-.851l2.3-2.335-4.664 2.686a.5.5 0 0 1 -.569-.817l.91-.753-.342.2a.5.5 0 0 1 -.676-.692l.907-1.49a.5.5 0 0 1 -.437-.9l1.627-.94a.5.5 0 0 1 .677.693l-.9 1.48 3.786-2.181a.5.5 0 0 1 .569.817l-.91.754 2.722-1.571a.5.5 0 0 1 .606.783l-2.3 2.337 5.406-3.12a.5.5 0 0 1 .585.8l-2 1.815 4.528-2.615a.5.5 0 0 1 .56.824l-.922.73 2.693-1.554a.5.5 0 0 1 .6.794l-2.19 2.086 5-2.883a.5.5 0 0 1 .6.793l-2.21 2.11 5.038-2.9a.494.494 0 0 1 .647.13.5.5 0 0 1 -.046.658l-2.254 2.226 5.223-3.014a.5.5 0 0 1 .556.828l-.5.388 2.104-1.216a.5.5 0 0 1 .59.8l-2.093 1.945 4.753-2.745a.5.5 0 0 1 .59.8l-2.075 1.918 4.708-2.718a.5.5 0 0 1 .555.828l-.536.415 2.154-1.243a.5.5 0 0 1 .57.816l-1.473 1.228 3.542-2.044a.5.5 0 0 1 .58.808l-1.841 1.618 4.208-2.426a.5.5 0 0 1 .613.776l-2.324 2.453 5.59-3.229a.5.5 0 0 1 .592.8l-2.106 1.969 4.795-2.769a.5.5 0 0 1 .6.789l-2.227 2.187 4.007-2.316a.5.5 0 0 1 .592.8l-1.42 1.34 1.408-.813a.5.5 0 0 1 .656.725l-.77 1.068.131-.075a.5.5 0 1 1 .5.865l-2.144 1.23a.5.5 0 0 1 -.656-.724l.767-1.067-3.104 1.796a.5.5 0 0 1 -.593-.8l1.421-1.338-3.7 2.137a.5.5 0 0 1 -.6-.789l2.229-2.188-5.167 2.982a.5.5 0 0 1 -.591-.8l2.106-1.969-4.8 2.769a.5.5 0 0 1 -.613-.776l2.324-2.453-5.6 3.231a.5.5 0 0 1 -.581-.809l1.842-1.618-4.208 2.429a.5.5 0 0 1 -.569-.813l1.473-1.229-3.544 2.046a.5.5 0 0 1 -.556-.828l.537-.415-2.156 1.244a.5.5 0 0 1 -.59-.8l2.078-1.918-4.71 2.719a.5.5 0 0 1 -.59-.8l2.093-1.944-4.756 2.745a.5.5 0 0 1 -.555-.828l.5-.389-2.111 1.218a.5.5 0 0 1 -.6-.788l2.254-2.228-5.227 3.018a.5.5 0 0 1 -.6-.793l2.2-2.112-5.036 2.907a.5.5 0 0 1 -.6-.794l2.186-2.09-5 2.886a.5.5 0 0 1 -.56-.824l.919-.729-2.683 1.556a.5.5 0 0 1 -.586-.8l2.007-1.816-4.541 2.617a.489.489 0 0 1 -.246.069z" fill="#185e89"/><path d="m15.731 59.471a.5.5 0 0 1 -.326-.879l.538-.463-2.208 1.271a.5.5 0 0 1 -.593-.8l1.088-1.034-3.168 1.834a.5.5 0 0 1 -.609-.781l1.323-1.362-3.714 2.143a.5.5 0 0 1 -.593-.8l1.082-1.025-3.151 1.825a.5.5 0 0 1 -.588-.8l.928-.849-2.74 1.583a.5.5 0 0 1 -.648-.735l1.439-1.9-2.34 1.351a.5.5 0 0 1 -.663-.714l.583-.859a.513.513 0 0 1 -.476-.248.5.5 0 0 1 .182-.682l1.627-.94a.5.5 0 0 1 .663.714l-.527.779 2.6-1.5a.5.5 0 0 1 .648.735l-1.439 1.9 4.551-2.635a.5.5 0 0 1 .588.8l-.93.85 2.864-1.65a.5.5 0 0 1 .593.8l-1.081 1.024 3.155-1.824a.5.5 0 0 1 .608.781l-1.323 1.359 3.714-2.14a.5.5 0 0 1 .593.8l-1.088 1.034 3.169-1.834a.5.5 0 0 1 .576.811l-.537.463 2.207-1.274a.5.5 0 0 1 .586.8l-.894.81 2.8-1.61a.5.5 0 0 1 .626.762l-1.458 1.659 4.19-2.421a.5.5 0 0 1 .651.731l-1.489 1.992 4.724-2.723a.5.5 0 0 1 .585.8l-.86.778 2.739-1.578a.5.5 0 0 1 .625.762l-1.456 1.655 4.187-2.417a.5.5 0 0 1 .626.762l-1.459 1.658 4.2-2.423a.5.5 0 0 1 .65.732l-1.491 1.989 4.71-2.718a.5.5 0 0 1 .6.787l-1.229 1.223 3.489-2.01a.5.5 0 0 1 .586.8l-.883.8 2.778-1.6a.5.5 0 0 1 .594.8l-1.082 1.025 3.155-1.825a.5.5 0 0 1 .6.794l-1.118 1.061 3.22-1.855a.5.5 0 0 1 .634.752l-1.488 1.8 3.214-1.862a.5.5 0 0 1 .65.732l-.97 1.3.79-.455a.5.5 0 0 1 .5.865l-2.9 1.672a.5.5 0 0 1 -.65-.732l.97-1.3-3.516 2.028a.5.5 0 0 1 -.635-.752l1.488-1.8-4.414 2.552a.5.5 0 0 1 -.595-.794l1.112-1.062-3.218 1.856a.5.5 0 0 1 -.594-.8l1.083-1.024-3.157 1.824a.5.5 0 0 1 -.586-.8l.882-.8-2.776 1.6a.5.5 0 0 1 -.6-.787l1.237-1.226-3.493 2.013a.5.5 0 0 1 -.65-.732l1.489-1.989-4.717 2.721a.5.5 0 0 1 -.626-.762l1.459-1.661-4.2 2.423a.5.5 0 0 1 -.625-.762l1.456-1.655-4.182 2.417a.5.5 0 0 1 -.585-.8l.86-.778-2.739 1.578a.5.5 0 0 1 -.651-.731l1.489-1.995-4.724 2.726a.5.5 0 0 1 -.626-.762l1.458-1.659-4.193 2.421a.5.5 0 0 1 -.586-.8l.891-.811-2.795 1.611a.49.49 0 0 1 -.25.071z" fill="#1b6e8e"/><path d="m2.569 59.441c2.086.566 5.044.028 7.174.028h46.991c.011 0 .024-.005.035-.006a1.012 1.012 0 0 0 .346-.033c2.983-.808 3.339-3.779.613-4.718-.067-3.5-1.553-4.137-4-4.245v-44.25c0-1.171.523-3.688-.148-4.765-1.188-1.903-6.504-1.041-8.38-.884-2.153.181-2.662.42-2.923 2.6-.4 3.3-.055 6.856-.009 10.218-.8.059-1.529.14-1.99.14-1.19 0-3.57-.443-4.576.6-1.092 1.129-.632 4.2-.474 6.094-1.21-.012-2.491.151-3.491.216v-3.426c0-4.469-2.6-3.548-6.663-3.548-1.845 0-3.911-.5-4.765 1.451-.653 1.494-.222 4.223-.082 6.2-1.543.006-3.146.245-4.24.35-3.731.361-2.866 3.821-2.734 6.93-1.4.051-2.86.277-3.615.277-4.526 0-4.359 1.265-4.359 5.486v16.416c-1.826.293-2.95 1.249-3 4.257-2.279.982-2.848 3.76.29 4.612zm41.312-58.009c.513-.513 3.978 0 4.834 0 2.966 0 3.367-.006 3.559 2.65.2 2.775 0 5.639 0 8.42v37.941h-.834-4.711v-32.943c0-.84.333-2.65-.3-3.405a3.631 3.631 0 0 0 -2.706-.767v-8.578c.003-.541-.363-2.796.158-3.318zm-6.99 13.038c.326-.326 3.309-.379 5.421-.265.13.307.719.281 1.1.083a3.459 3.459 0 0 1 .949.182c2.043 1.081.912 7.559.912 9.647v26.328h-6.539v-21.979c0-1.632.794-5.539-.156-7.014a2.751 2.751 0 0 0 -1.877-1.1c-.127-1.685-.624-5.067.19-5.882zm.375 8.622c.657 2.855 0 6.627 0 9.55v17.8h-5.532v-28.935c2.323-.149 4.997-.738 5.532 1.585zm-15.532-7.759c.727-1.343 5.335-1.156 6.954-.795 1.872.418 1.473.578 1.578 2.347.124 2.1 0 4.253 0 6.36v27.2h-5.532v-21.368c0-1.689.472-4.21 0-5.847-.372-1.3-1.579-1.845-3.035-2.034-.137-1.796-.599-4.683.035-5.863zm-7 8.238c.806-1.724 3.22-1.033 5.194-1.033.284 0 .535-.009.771-.018a1.05 1.05 0 0 0 .438-.016c1.056-.033 1.616.045 2.129 1.231.433 1 0 3.176 0 4.26v22.45h-6.542v-16.317c0-1.048.573-4.19-.338-5.094a2.791 2.791 0 0 0 -1.672-.605c-.095-1.478-.489-3.769.02-4.858zm-8.01 6.955c.177-.65-.152-.813.416-1.2.65-.436 3.211 0 3.983 0 .8 0 1.554-.089 2.2-.06.153.287.606.329.961.2a1.84 1.84 0 0 1 .993 1.448c.433 2.048 0 4.671 0 6.759v12.772h-6.331c-.8 0-1.538-.012-2.222.006v-12.746c0-2.125-.559-5.121 0-7.179zm4.6 21.029h36.533c1.464 0 3.134-.24 4.6-.19a.951.951 0 0 0 .614.043c1.661.173 2.94.878 3.151 3.006-2.722-.323-5.878.117-8.532.117h-35.613c-2.664 0-5.637-.364-8.314-.049.279-4.072 4.15-2.927 7.565-2.927zm-7.765 3.914a14.452 14.452 0 0 1 3.647 0h43.194a45.063 45.063 0 0 1 4.707 0c1.291.138 6.023 1.881 1.9 3.062h-47.407c-1.629 0-4.724.627-6.272 0-3.141-1.271-1.128-2.649.231-3.062z" fill="#262626"/></svg>