<svg id="Icons" height="512" viewBox="0 0 60 60" width="512" xmlns="http://www.w3.org/2000/svg"><path d="m39.388 33.471a.5.5 0 0 1 -.29-.908l3.043-2.163-4.6 2.656a.5.5 0 0 1 -.541-.842l5.809-4.2-5.529 3.186a.5.5 0 0 1 -.545-.837l6.34-4.62-5.8 3.346a.5.5 0 0 1 -.543-.838l5.286-3.818-4.743 2.738a.5.5 0 0 1 -.534-.844l1.109-.767-.575.331a.5.5 0 0 1 -.58-.809l3.518-3.089-2.938 1.7a.5.5 0 0 1 -.59-.8l1.293-1.2-.7.406a.5.5 0 0 1 -.7-.642l.588-1.278a.531.531 0 0 1 -.482-.248.5.5 0 0 1 .183-.684l1.128-.65a.5.5 0 0 1 .7.642l-.555 1.207 3.2-1.849a.5.5 0 0 1 .59.8l-1.294 1.2 3.46-2a.5.5 0 0 1 .58.808l-3.514 3.095 6.752-3.9a.5.5 0 0 1 .534.843l-1.112.771 2.675-1.544a.5.5 0 0 1 .543.838l-5.283 3.812 5.449-3.145a.5.5 0 0 1 .545.837l-6.34 4.62 5.8-3.346a.5.5 0 0 1 .543.838l-5.811 4.205 5.268-3.041a.5.5 0 0 1 .54.84l-3.046 2.172 2.5-1.444a.5.5 0 0 1 .561.823l-3.156 2.511 2.6-1.5a.5.5 0 0 1 .607.783l-2.192 2.24 1.585-.915a.5.5 0 0 1 .652.729l-.6.816a.5.5 0 0 1 .45.89l-2.026 1.167a.5.5 0 0 1 -.652-.729l.6-.809-2.671 1.538a.5.5 0 0 1 -.608-.782l2.193-2.24-5.236 3.022a.5.5 0 0 1 -.561-.823l3.158-2.517-5.785 3.34a.493.493 0 0 1 -.25.071z" fill="#347584"/><path d="m21.7 33.471a.5.5 0 0 1 -.285-.91l1.467-1.02-3.038 1.759a.5.5 0 0 1 -.536-.843l3.952-2.764-3.98 2.3a.5.5 0 0 1 -.542-.838l5.8-4.17-5.258 3.027a.5.5 0 0 1 -.533-.845l3.3-2.262-2.767 1.6a.5.5 0 0 1 -.539-.84l4.054-2.879-3.515 2.029a.5.5 0 0 1 -.572-.815l4.383-3.68-3.812 2.2a.5.5 0 0 1 -.554-.829l.544-.417a.5.5 0 0 1 -.56-.824l.338-.281a.517.517 0 0 1 -.355-.131.5.5 0 0 1 -.117-.578l.588-1.278a.527.527 0 0 1 -.482-.248.5.5 0 0 1 .183-.684l1.128-.65a.5.5 0 0 1 .7.642l-.555 1.207 3.2-1.849a.5.5 0 0 1 .57.816l-.077.065 1.526-.881a.5.5 0 0 1 .555.829l-.542.416 2.165-1.245a.5.5 0 0 1 .571.815l-4.384 3.681 7.79-4.5a.5.5 0 0 1 .539.84l-4.05 2.876 4.718-2.724a.5.5 0 0 1 .533.845l-3.294 2.258 2.763-1.591a.5.5 0 0 1 .542.839l-5.807 4.174 5.266-3.04a.5.5 0 0 1 .536.843l-3.945 2.76 3.409-1.968a.5.5 0 0 1 .535.843l-1.475 1.025.94-.542a.5.5 0 0 1 .567.82l-3.211 2.634 2.644-1.526a.5.5 0 0 1 .591.8l-1.689 1.57 1.1-.634a.5.5 0 0 1 .616.774l-.448.481a.5.5 0 0 1 .332.926l-2.647 1.521a.5.5 0 0 1 -.616-.773l.373-.4-2.033 1.173a.5.5 0 0 1 -.591-.8l1.689-1.57-4.1 2.369a.5.5 0 0 1 -.567-.819l3.213-2.637-5.993 3.457a.5.5 0 0 1 -.251.071z" fill="#347584"/><path d="m3.407 33.471a.5.5 0 0 1 -.288-.908l2.652-1.875-4.181 2.412a.5.5 0 0 1 -.547-.835l6.43-4.74-6.193 3.575a.5.5 0 0 1 -.547-.835l6.78-5-6.234 3.6a.5.5 0 0 1 -.538-.84l4.207-2.967-3.669 2.114a.5.5 0 0 1 -.554-.829l4.046-3.116-3.492 2.015a.5.5 0 0 1 -.549-.834l.89-.662-.341.2a.5.5 0 0 1 -.614-.775l1.885-2-1.271.729a.5.5 0 0 1 -.7-.655l.529-1.065a.5.5 0 0 1 -.247-.934l1.128-.65a.5.5 0 0 1 .7.656l-.473.953 2.784-1.605a.5.5 0 0 1 .614.775l-1.886 2 4.811-2.775a.5.5 0 0 1 .549.834l-.895.666 2.6-1.5a.5.5 0 0 1 .555.829l-4.048 3.112 6.711-3.874a.5.5 0 0 1 .538.841l-4.21 2.969 4.38-2.529a.5.5 0 0 1 .547.835l-6.776 5 6.23-3.6a.5.5 0 0 1 .547.834l-6.43 4.74 5.883-3.4a.5.5 0 0 1 .538.841l-2.658 1.887 2.119-1.223a.5.5 0 0 1 .578.81l-3.77 3.284 3.192-1.842a.5.5 0 0 1 .568.819l-.729.6.161-.093a.5.5 0 0 1 .644.74l-.838 1.078.194-.112a.5.5 0 0 1 .5.866l-2.406 1.388a.5.5 0 0 1 -.644-.739l.838-1.077-3.15 1.816a.5.5 0 0 1 -.568-.818l.73-.6-2.46 1.418a.5.5 0 0 1 -.579-.809l3.771-3.285-7.094 4.094a.493.493 0 0 1 -.25.071z" fill="#347584"/><path d="m39.464 15.471a.5.5 0 0 1 -.307-.9l5.717-4.435-7.574 4.376a.5.5 0 0 1 -.547-.835l6.724-4.959-6.197 3.582a.5.5 0 0 1 -.542-.839l5.737-4.12-5.2 3a.5.5 0 0 1 -.535-.844l2.909-2.018-2.374 1.37a.5.5 0 0 1 -.545-.836l2.58-1.885-2.031 1.172a.5.5 0 0 1 -.592-.8l3.056-2.858-2.464 1.423a.5.5 0 0 1 -.586-.8l.518-.468a.5.5 0 0 1 -.624-.7l.483-.916a.5.5 0 0 1 -.206-.932l1.128-.649a.5.5 0 0 1 .693.667l-.4.764 2.476-1.431a.5.5 0 0 1 .586.8l-.5.449 2.173-1.249a.5.5 0 0 1 .591.8l-3.057 2.854 6.336-3.654a.5.5 0 0 1 .545.836l-2.581 1.881 4.713-2.717a.5.5 0 0 1 .536.843l-2.914 2.019 3.5-2.019a.5.5 0 0 1 .542.839l-5.731 4.118 5.22-3.016a.5.5 0 0 1 .547.835l-6.725 4.958 6.179-3.567a.5.5 0 0 1 .556.828l-5.716 4.435 5.16-2.973a.5.5 0 0 1 .579.8l-3.744 3.271 3.165-1.828a.5.5 0 0 1 .618.772l-1.824 1.985 1.206-.7a.5.5 0 0 1 .694.662l-.5.958a.5.5 0 0 1 .216.932l-1.122.647a.494.494 0 0 1 -.6-.071.5.5 0 0 1 -.1-.591l.423-.817-2.554 1.48a.5.5 0 0 1 -.618-.771l1.825-1.982-4.77 2.753a.5.5 0 0 1 -.579-.809l3.743-3.27-7.065 4.079a.493.493 0 0 1 -.25.071z" fill="#347584"/><path d="m21.354 15.471a.5.5 0 0 1 -.3-.9l5.115-3.858-6.827 3.941a.5.5 0 0 1 -.541-.84l5.466-3.9-4.987 2.875a.5.5 0 0 1 -.543-.838l5.939-4.283-5.4 3.115a.5.5 0 0 1 -.527-.848l.769-.513-.242.139a.5.5 0 0 1 -.535-.844l1.727-1.2-1.192.687a.5.5 0 0 1 -.553-.829l2.719-2.075-2.163 1.245a.5.5 0 0 1 -.552-.831l.448-.34a.5.5 0 0 1 -.5-.834l1.151-1.14-.547.316a.5.5 0 0 1 -.69-.669l.469-.873a.5.5 0 0 1 -.194-.931l1.128-.643a.5.5 0 0 1 .691.67l-.38.708 2.386-1.378a.5.5 0 0 1 .6.788l-1.147 1.133 3.334-1.921a.5.5 0 0 1 .552.831l-.369.28 1.925-1.111a.5.5 0 0 1 .554.829l-2.716 2.078 5.042-2.907a.5.5 0 0 1 .536.84l-1.726 1.2 3.089-1.787a.5.5 0 0 1 .528.848l-.766.511.595-.343a.5.5 0 0 1 .543.838l-5.943 4.286 5.4-3.117a.5.5 0 0 1 .541.84l-5.461 3.9 4.921-2.841a.5.5 0 0 1 .55.832l-5.116 3.859 4.566-2.635a.5.5 0 0 1 .558.826l-3.019 2.371 2.461-1.42a.5.5 0 0 1 .6.794l-2.161 2.067 1.561-.9a.5.5 0 0 1 .689.672l-.766 1.408.063-.036a.5.5 0 0 1 .5.866l-1.6.924a.5.5 0 0 1 -.6-.074.5.5 0 0 1 -.091-.6l.767-1.408-3.606 2.079a.5.5 0 0 1 -.6-.794l2.158-2.067-4.953 2.861a.5.5 0 0 1 -.559-.826l3.019-2.371-5.542 3.197a.5.5 0 0 1 -.246.071z" fill="#347584"/><path d="m4.626 15.471a.5.5 0 0 1 -.306-.9l4.451-3.438-7.065 4.083a.5.5 0 0 1 -.546-.835l6.256-4.605-6.136 3.542a.5.5 0 0 1 -.533-.844l3.421-2.351-2.889 1.668a.5.5 0 0 1 -.528-.848l1.681-1.129-1.153.665a.5.5 0 0 1 -.55-.832l5.408-4.067-4.858 2.8a.5.5 0 0 1 -.565-.821l3.656-2.973-3.091 1.784a.5.5 0 0 1 -.611-.778l2.276-2.379-1.665.961a.5.5 0 0 1 -.706-.637l.609-1.361a.488.488 0 0 1 -.5-.245.5.5 0 0 1 .183-.684l1.127-.647a.5.5 0 0 1 .706.637l-.582 1.3 3.36-1.937a.5.5 0 0 1 .611.778l-2.276 2.376 5.468-3.154a.5.5 0 0 1 .566.82l-3.66 2.98 6.585-3.8a.5.5 0 0 1 .55.832l-5.408 4.068 6.808-3.93a.5.5 0 0 1 .528.848l-1.681 1.125 1.153-.665a.5.5 0 0 1 .533.845l-3.414 2.345 2.882-1.668a.5.5 0 0 1 .546.835l-6.257 4.61 5.711-3.3a.5.5 0 0 1 .555.828l-4.451 3.437 3.9-2.248a.5.5 0 0 1 .574.814l-2.825 2.4 2.251-1.3a.5.5 0 0 1 .641.745l-1.588 2 .947-.546a.5.5 0 0 1 .67.705l-.313.481a.489.489 0 0 1 .239.211.5.5 0 0 1 -.182.683l-1.122.647a.5.5 0 0 1 -.67-.7l.076-.117-1.423.815a.5.5 0 0 1 -.641-.744l1.586-2-4.752 2.744a.5.5 0 0 1 -.574-.813l2.825-2.4-5.568 3.213a.493.493 0 0 1 -.25.071z" fill="#347584"/><path d="m20.694 51.471a.5.5 0 0 1 -.282-.913l1.349-.921-2.306 1.331a.5.5 0 0 1 -.539-.841l4.884-3.455-4.524 2.61a.5.5 0 0 1 -.545-.837l6.351-4.629-5.807 3.352a.5.5 0 0 1 -.539-.841l4.684-3.317-4.141 2.39a.5.5 0 0 1 -.545-.837l3.327-2.426-2.782 1.6a.5.5 0 0 1 -.58-.808l3.354-2.946-2.774 1.6a.5.5 0 0 1 -.579-.81l.859-.749-.28.161a.5.5 0 0 1 -.707-.635l.615-1.382a.513.513 0 0 1 -.506-.245.5.5 0 0 1 .183-.684l1.128-.65a.5.5 0 0 1 .707.636l-.589 1.335 3.4-1.963a.5.5 0 0 1 .579.809l-.859.749 2.7-1.558a.5.5 0 0 1 .58.808l-3.355 2.948 6.506-3.753a.5.5 0 0 1 .545.837l-3.324 2.424 5.38-3.1a.5.5 0 0 1 .539.841l-4.683 3.308 4.6-2.656a.5.5 0 0 1 .545.837l-6.353 4.632 5.811-3.354a.5.5 0 0 1 .539.841l-4.886 3.454 4.347-2.509a.5.5 0 0 1 .532.846l-1.354.924.822-.474a.5.5 0 0 1 .558.826l-3.494 2.743 2.936-1.7a.5.5 0 0 1 .556.827l-.969.755.413-.238a.5.5 0 0 1 .623.766l-1.381 1.548.758-.437a.5.5 0 0 1 .677.692l-.368.606a.5.5 0 0 1 .1.912l-1.123.647a.5.5 0 0 1 -.678-.693l.2-.322-1.758 1.017a.5.5 0 0 1 -.623-.765l1.381-1.55-4.009 2.315a.5.5 0 0 1 -.557-.827l.971-.756-2.743 1.583a.5.5 0 0 1 -.558-.826l3.5-2.743-6.189 3.569a.5.5 0 0 1 -.25.071z" fill="#347584"/><path d="m5.53 51.471a.5.5 0 0 1 -.287-.909l.168-.119-1.663.96a.5.5 0 0 1 -.551-.832l4.915-3.7-6.742 3.893a.5.5 0 0 1 -.541-.839l5.571-3.988-5.12 2.953a.5.5 0 0 1 -.529-.848l1.723-1.157-1.2.689a.5.5 0 0 1 -.539-.841l4.873-3.447-4.334 2.5a.5.5 0 0 1 -.552-.83l4.7-3.578-4.143 2.393a.5.5 0 0 1 -.563-.822l2.784-2.241-2.221 1.283a.5.5 0 0 1 -.6-.793l1.754-1.69-1.158.668a.5.5 0 0 1 -.706-.637l.61-1.363a.489.489 0 0 1 -.5-.245.5.5 0 0 1 .183-.684l1.128-.65a.5.5 0 0 1 .706.637l-.583 1.3 3.366-1.934a.5.5 0 0 1 .6.793l-1.759 1.688 4.3-2.484a.5.5 0 0 1 .563.822l-2.783 2.242 5.308-3.061a.5.5 0 0 1 .553.83l-4.7 3.578 6.948-4.008a.5.5 0 0 1 .539.841l-4.871 3.446 4.543-2.627a.5.5 0 0 1 .529.848l-1.723 1.157 1.2-.689a.5.5 0 0 1 .541.838l-5.567 3.986 5.025-2.9a.5.5 0 0 1 .55.832l-4.915 3.7 4.365-2.52a.5.5 0 0 1 .537.842l-.393.276a.5.5 0 0 1 .439.862l-2.49 2.226 1.907-1.1a.5.5 0 0 1 .606.783l-.878.892.272-.156a.5.5 0 0 1 .677.691l-.371.613a.5.5 0 0 1 .108.913l-1.123.647a.5.5 0 0 1 -.678-.692l.2-.333-1.778 1.024a.5.5 0 0 1 -.607-.783l.88-.894-2.906 1.677a.5.5 0 0 1 -.583-.8l2.49-2.228-5.254 3.028a.493.493 0 0 1 -.25.071z" fill="#347584"/><path d="m46.43 59.471a.5.5 0 0 1 -.28-.915l.658-.444-1.4.806a.5.5 0 0 1 -.534-.844l3.55-2.448-3.144 1.816a.5.5 0 0 1 -.537-.841l4.68-3.285-4.144 2.392a.5.5 0 0 1 -.538-.841l4.809-3.391-4.271 2.464a.5.5 0 0 1 -.557-.827l5.214-4.071-4.657 2.687a.5.5 0 0 1 -.561-.823l2.645-2.106-2.084 1.2a.5.5 0 0 1 -.6-.794l1.733-1.654-1.138.656a.5.5 0 0 1 -.707-.635l.617-1.4a.5.5 0 0 1 -.325-.928l1.128-.65a.5.5 0 0 1 .707.635l-.593 1.342 3.43-1.972a.5.5 0 0 1 .6.794l-1.734 1.655 4.239-2.449a.5.5 0 0 1 .561.823l-2.647 2.109 5.086-2.932a.5.5 0 0 1 .557.827l-5.214 4.073 7.614-4.4a.5.5 0 0 1 .538.84l-4.8 3.388 4.392-2.535a.5.5 0 0 1 .537.842l-4.68 3.284 4.144-2.392a.5.5 0 0 1 .534.844l-3.558 2.454 3.023-1.744a.5.5 0 0 1 .529.847l-.654.442.125-.072a.5.5 0 0 1 .534.844l-.447.309a.5.5 0 0 1 .5.839l-3.265 3.032 2.675-1.544a.5.5 0 0 1 .609.781l-1.154 1.193.545-.314a.49.49 0 0 1 .6.079.5.5 0 0 1 .08.6l-.412.715a.5.5 0 0 1 .143.922l-1.123.647a.5.5 0 0 1 -.684-.682l.28-.487-2.02 1.168a.5.5 0 0 1 -.609-.78l1.155-1.194-3.42 1.974a.5.5 0 0 1 -.59-.8l3.266-3.033-6.639 3.833a.5.5 0 0 1 -.534-.843l.357-.247-1.89 1.09a.5.5 0 0 1 -.25.071z" fill="#d84557"/><g fill="#262626"><path d="m36.272 22.085v7.365 2.381a1.467 1.467 0 0 0 1.477 1.623c1.728.089 3.485 0 5.215 0h6.766c.019 0 .045-.005.066-.005h.118a1.817 1.817 0 0 0 1.814-1.868v-9.81c0-.606.017-1.216 0-1.822-.028-.98-.8-1.393-1.684-1.4-2.017-.022-4.035 0-6.053 0-1.876 0-3.755-.03-5.632 0-.984.016-2.025.5-2.087 1.6-.036.636 0 1.292 0 1.936zm1.456-2.129c.009-.115.036-.45.047-.461s.009-.024 0-.022c.008 0 .025-.007.058-.019a2.378 2.378 0 0 1 .674 0h9.426a17.053 17.053 0 0 1 1.722 0c.646.066.618.648.618 1.132 0 3.761.053 7.526 0 11.287 0 .178.027.642-.179.673h-10.558a6.777 6.777 0 0 1 -1.266 0c-.7-.142-.542-1.027-.542-1.552v-6.319c0-1.554-.128-3.169 0-4.719z"/><path d="m18.272 31.831a1.467 1.467 0 0 0 1.477 1.623c1.728.089 3.485 0 5.215 0h6.766c.019 0 .044 0 .065-.005h.119a1.817 1.817 0 0 0 1.814-1.868v-9.81c0-.606.017-1.216 0-1.822-.028-.98-.8-1.393-1.684-1.4-2.017-.022-4.035 0-6.053 0-1.876 0-3.755-.03-5.632 0-.985.016-2.025.5-2.087 1.6-.036.643 0 1.3 0 1.943v7.358c0 .794-.002 1.587 0 2.381zm1.456-11.875c.009-.115.036-.45.047-.461s.008-.024 0-.022c.008 0 .025-.007.058-.019a2.378 2.378 0 0 1 .674 0h9.426a17.053 17.053 0 0 1 1.722 0c.646.066.618.648.618 1.132 0 3.761.053 7.526 0 11.286 0 .179.028.643-.179.674h-10.558a6.777 6.777 0 0 1 -1.266 0c-.7-.142-.542-1.027-.542-1.552v-6.319c0-1.554-.128-3.169 0-4.719z"/><path d="m.276 29.388v2.49a1.317 1.317 0 0 0 1.432 1.445c3.86.093 7.732 0 11.593 0h.22a.919.919 0 0 0 .174 0c1.1-.1 2.016-.595 2.029-1.764.01-.793 0-1.587 0-2.38v-7.365c0-.644.037-1.3 0-1.944-.052-.922-.8-1.191-1.605-1.193-2.007 0-4.015 0-6.023 0-1.893 0-3.8-.055-5.688 0-.952.028-2.089.461-2.132 1.551-.024.6 0 1.212 0 1.815zm1.448-9.556c.011-.114.16-.413.12-.509h.591 9.465a9.121 9.121 0 0 1 1.733 0c.649.134.646.8.646 1.32 0 3.775.134 7.574 0 11.346 0 .059.005.12 0 .179-.023.257-.308.54.029.509h-10.825c-.436 0-1.09.144-1.447-.169-.426-.372-.312-1.081-.312-1.591v-6.359c0-1.553-.138-3.177 0-4.726z"/><path d="m42.949 15.4h6.766c.042 0 .1-.008.149-.012h.033s.026 0 .039-.006l.064-.012a1.789 1.789 0 0 0 1.727-1.856v-9.754c0-.633.04-1.279 0-1.911-.061-.933-.852-1.237-1.668-1.249-2.017-.02-4.035 0-6.053 0-1.875 0-3.757-.045-5.632 0-1 .025-2.07.512-2.1 1.635-.016.619 0 1.24 0 1.859v9.806a1.39 1.39 0 0 0 1.458 1.5c1.733.072 3.484 0 5.217 0zm-5.225-13.541a2.476 2.476 0 0 1 .027-.382c.022-.039.026-.058.024-.068a.147.147 0 0 0 .042-.011 2.272 2.272 0 0 1 .674 0h9.426a11.924 11.924 0 0 1 1.722 0c.653.1.637.735.637 1.245 0 3.767.05 7.538 0 11.3 0 .15.014.61-.159.655h-10.566a6.3 6.3 0 0 1 -1.266 0c-.7-.155-.561-1.11-.561-1.647v-9.451c0-.537-.051-1.1 0-1.641z"/><path d="m18.269 2.14c-.038.657 0 1.328 0 1.986v7.374c0 .781-.006 1.562 0 2.343a1.54 1.54 0 0 0 1.671 1.657c3.863.057 7.73 0 11.593 0h.394a.877.877 0 0 0 .287-.048 1.791 1.791 0 0 0 1.517-1.854v-9.865c0-.589.019-1.182 0-1.771-.031-1.073-.889-1.462-1.844-1.462h-6.023c-1.893 0-3.8-.055-5.688 0a1.823 1.823 0 0 0 -1.907 1.64zm1.462-.178c.054-.621.446-.466.936-.466h9.358a7.852 7.852 0 0 1 1.813 0c.475.128.431.676.431 1.077 0 3.761.052 7.526 0 11.286 0 .185.036.624-.2.645h-10.73a3.611 3.611 0 0 1 -1.281-.041c-.473-.242-.327-1.071-.327-1.5v-6.344c0-1.532-.131-3.129 0-4.657z"/><path d="m1.73 15.383c3.852.141 7.733 0 11.587 0h.394c.046 0 .106-.007.163-.013h.019.022l.093-.015a1.781 1.781 0 0 0 1.716-1.838v-9.757c0-.633.04-1.279 0-1.911-.058-.933-.848-1.225-1.661-1.232-2.017-.019-4.035 0-6.053 0-1.875 0-3.757-.05-5.632 0-.993.026-2.071.5-2.1 1.62-.018.619 0 1.24 0 1.859v9.804a1.373 1.373 0 0 0 1.452 1.483zm.048-14c-.057.027-.059 0 0 0zm-.054.458c.012-.111.128-.354.146-.454a4.7 4.7 0 0 0 .617 0h9.426a10.794 10.794 0 0 1 1.734 0c.663.115.629.775.629 1.29 0 3.768.092 7.549 0 11.316 0 .059.006.12 0 .179a1.5 1.5 0 0 1 -.161.449h-10.604a3.546 3.546 0 0 1 -1.361-.066c-.561-.26-.426-1.123-.426-1.634v-9.47a15.74 15.74 0 0 1 0-1.611z"/><path d="m31.486 51.275a1.6 1.6 0 0 0 .186-.009 2.345 2.345 0 0 0 .36-.048c.917-.162 1.681-.637 1.692-1.659.01-.793 0-1.587 0-2.38v-7.312c0-.662.038-1.336 0-2-.048-.864-.713-1.139-1.475-1.145-2.017-.015-4.035 0-6.053 0-1.875 0-3.757-.045-5.632 0-.956.023-2.214.372-2.288 1.5-.039.584 0 1.185 0 1.771v9.861a1.241 1.241 0 0 0 1.268 1.422c3.851.144 7.733 0 11.587 0zm-9.876-.55c-.443 0-1.113.125-1.5-.15-.507-.36-.386-1.114-.386-1.658v-6.427c0-1.538-.121-3.131 0-4.665a.121.121 0 0 0 0-.019 1.1 1.1 0 0 1 .088-.368.539.539 0 0 1 .105-.15c.132 0 .264-.013.383-.013h9.529a13.009 13.009 0 0 1 1.652 0c.78.1.8.8.8 1.4 0 3.777.138 7.58 0 11.354v.148c-.006.071.013-.032-.026.164-.023.117-.072.193-.1.3a.248.248 0 0 1 -.039.085z"/><path d="m.276 47.328v2.525a1.27 1.27 0 0 0 1.275 1.447c1.729.083 3.483 0 5.215 0h6.749a1.113 1.113 0 0 0 .173 0c.017 0 .033 0 .05-.007a2.334 2.334 0 0 0 .281-.038c.936-.162 1.694-.653 1.705-1.693.01-.793 0-1.587 0-2.38v-7.315c0-.662.038-1.336 0-2-.048-.861-.716-1.162-1.481-1.17-2.018-.023-4.036 0-6.053 0-1.877 0-3.756-.03-5.633 0-.976.015-2.213.378-2.281 1.521-.036.585 0 1.184 0 1.771zm2.031-10.028h9.479a16.2 16.2 0 0 1 1.693 0c.77.084.8.752.8 1.343 0 3.776.126 7.573 0 11.346v.179c-.013.147-.224.542.029.532h-10.662a3.444 3.444 0 0 1 -1.469-.085c-.578-.317-.453-1.107-.453-1.66v-6.328c0-1.578-.124-3.213 0-4.787 0-.011 0-.021 0-.032s0 .008-.01.037l.037-.179.027-.141c.128-.14.1-.2-.085-.19a.07.07 0 0 0 -.039-.035 4.907 4.907 0 0 1 .653 0z"/><path d="m50.964 59.454h6.766c.019 0 .044 0 .065-.005h.119a1.817 1.817 0 0 0 1.814-1.868v-9.81c0-.606.017-1.216 0-1.822-.028-.98-.8-1.393-1.684-1.4-2.017-.023-4.036 0-6.053 0-1.876 0-3.756-.03-5.632 0-.985.016-2.025.5-2.087 1.6-.036.643 0 1.3 0 1.943v7.358 2.381a1.466 1.466 0 0 0 1.477 1.623c1.728.09 3.485 0 5.215 0zm-5.236-13.5c.009-.115.036-.45.047-.461s.008-.023 0-.021l.058-.02a2.378 2.378 0 0 1 .674 0h9.426a17.053 17.053 0 0 1 1.722 0c.646.066.618.647.618 1.132 0 3.761.053 7.526 0 11.286 0 .179.028.643-.179.674h-10.558a6.777 6.777 0 0 1 -1.266 0c-.7-.142-.542-1.027-.542-1.552v-6.317c0-1.554-.128-3.169 0-4.719z"/><path d="m42.315 28.238c.125.124.606-.011.736-.048a1.238 1.238 0 0 0 .661-.327l2.626-3.5.374-.5c.142-.189-.528-.106-.569-.1a1.461 1.461 0 0 0 -.855.372l-2.241 2.987-.362-.362c-.061-.061-.3-.03-.363-.024a2.431 2.431 0 0 0 -.564.13c-.1.038-.605.208-.443.37q.5.502 1 1.002z"/><path d="m24.335 28.312a.925.925 0 0 0 1.266-.118l2.626-3.5.374-.5a.448.448 0 0 0 .123-.388.44.44 0 0 0 -.3-.275 1.032 1.032 0 0 0 -1.024.275l-2.407 3.209-.327-.327a.867.867 0 0 0 -.979-.089c-.2.1-.612.452-.351.713z"/><path d="m6.317 28.244c.134.135.6.012.741-.029a1.2 1.2 0 0 0 .656-.345l2.626-3.5.374-.5c.154-.205-.53-.138-.577-.129a1.4 1.4 0 0 0 -.851.389l-2.241 2.988-.362-.362c-.066-.067-.3-.046-.367-.04a2.178 2.178 0 0 0 -.564.128c-.111.042-.612.224-.435.4q.5.501 1 1z"/><path d="m42.324 10.272c.153.153.486.105.664.068a1.156 1.156 0 0 0 .681-.346l2.626-3.5.374-.5c.2-.265-.171-.373-.377-.368a1.3 1.3 0 0 0 -.961.38l-2.3 3.073-.351-.351c-.327-.327-1.691.205-1.352.544z"/><path d="m24.319 10.254c.135.135.509.051.651.02a1.265 1.265 0 0 0 .69-.314l2.626-3.5.374-.5c.186-.249-.166-.29-.353-.276a1.926 1.926 0 0 0 -.565.124.932.932 0 0 0 -.4.232l-2.3 3.066-.36-.36c-.075-.075-.288-.067-.374-.062a1.888 1.888 0 0 0 -.565.124c-.124.049-.618.251-.423.446z"/><path d="m6.321 10.26c.14.14.5.067.655.034a1.219 1.219 0 0 0 .686-.324l2.626-3.5.374-.5c.191-.254-.167-.315-.36-.3a1.417 1.417 0 0 0 -.964.364l-2.301 3.066-.358-.36c-.294-.294-1.643.235-1.358.52z"/><path d="m28.269 41.541a1.115 1.115 0 0 0 -.951.416l-2.312 3.082-.337-.337a.9.9 0 0 0 -.97-.053c-.185.089-.618.4-.368.649l1 1c.365.365 1.083.1 1.351-.255l2.626-3.5.374-.5c.211-.281-.182-.492-.413-.502z"/><path d="m6.333 46.305a.957.957 0 0 0 1.263-.13l2.626-3.5.374-.5a.425.425 0 0 0 .128-.369.41.41 0 0 0 -.295-.255 1.076 1.076 0 0 0 -1.025.274l-2.404 3.204c-.111-.111-.223-.222-.334-.334a.887.887 0 0 0 -.974-.069c-.194.1-.615.423-.36.679q.501.495 1.001 1z"/><path d="m51.546 51.354a1.312 1.312 0 0 0 .536-.047c.235-.068.642-.2.642-.5v-2c0-.1-.211-.151-.27-.16a1.312 1.312 0 0 0 -.536.047c-.235.067-.642.2-.642.5v2c0 .106.211.151.27.16z"/><path d="m51.425 55.357a.54.54 0 0 0 .215.056.807.807 0 0 0 .264 0l.2-.038a1.334 1.334 0 0 0 .352-.15l.13-.1a.439.439 0 0 0 .142-.215v-.084a.16.16 0 0 0 -.027-.153.209.209 0 0 0 -.123-.117.539.539 0 0 0 -.215-.055.807.807 0 0 0 -.264 0l-.2.038a1.331 1.331 0 0 0 -.352.149l-.13.1a.437.437 0 0 0 -.142.216v.083a.162.162 0 0 0 .027.154.2.2 0 0 0 .123.116z"/><path d="m42.561 43.521h.372c.278 0 .8-.243.8-.579v-3c0-.349-.354-.5-.666-.463a1.057 1.057 0 0 0 -.545.2.565.565 0 0 0 -.255.38v1.22l-3.983-3.979q-.312-.312-.623-.623a.839.839 0 0 0 -.99-.131c-.229.114-.6.519-.332.787l4.377 4.377q.312.312.623.623a.805.805 0 0 0 .213.151h-1.485c-.3 0-.782.24-.8.579-.02.377.37.463.666.463z"/></g></svg>