<svg id="Icons" height="512" viewBox="0 0 60 60" width="512" xmlns="http://www.w3.org/2000/svg"><path d="m38.7 43.572a.5.5 0 0 1 -.4-.8l.964-1.3a.5.5 0 0 1 -.185-.929l1.612-.931a.5.5 0 0 1 .653.731l-.81 1.092 4.009-2.314a.5.5 0 1 1 .5.865l-6.091 3.517a.489.489 0 0 1 -.252.069z" fill="#f5ab01"/><path d="m17.08 59.471a.5.5 0 0 1 -.265-.925l6.6-4.108-8.6 4.965a.5.5 0 0 1 -.527-.849l9.073-6.01-11.884 6.856a.5.5 0 0 1 -.517-.855l1.446-.91-3.058 1.765a.5.5 0 0 1 -.518-.855l2.76-1.745-4.506 2.6a.5.5 0 0 1 -.524-.85l8.085-5.3-10.659 6.15a.5.5 0 0 1 -.518-.854l3.956-2.518-5.241 3.029a.5.5 0 0 1 -.519-.855l3.679-2.345-3.881 2.243a.5.5 0 0 1 -.518-.855l1.376-.875-1.04.6a.5.5 0 0 1 -.532-.846l9.276-6.339-8.744 5.048a.5.5 0 0 1 -.525-.85l5.738-3.783-5.214 3.01a.5.5 0 0 1 -.53-.847l6.835-4.615-6.3 3.64a.5.5 0 0 1 -.541-.839l7.326-5.249-6.79 3.92a.5.5 0 0 1 -.535-.843l3.612-2.511-3.077 1.778a.5.5 0 0 1 -.55-.832l4.214-3.179-3.664 2.115a.5.5 0 0 1 -.591-.8l3.031-2.828-2.44 1.41a.5.5 0 0 1 -.673-.7l.863-1.367a.5.5 0 0 1 -.576-.23.5.5 0 0 1 .182-.682l1.63-.942a.5.5 0 0 1 .673.7l-.847 1.343 4.485-2.59a.5.5 0 0 1 .59.8l-3.031 2.828 6.927-4a.5.5 0 0 1 .551.832l-4.219 3.183 6.366-3.676a.5.5 0 0 1 .535.843l-3.605 2.506 5.314-3.068a.5.5 0 0 1 .541.838l-7.328 5.252 9.74-5.624a.5.5 0 0 1 .531.846l-6.846 4.622 7.465-4.308a.5.5 0 0 1 .525.849l-5.736 3.783 5.594-3.228a.5.5 0 0 1 .532.846l-9.275 6.338 10.354-5.978a.5.5 0 0 1 .518.855l-1.375.873 2.894-1.674a.5.5 0 0 1 .519.854l-3.674 2.342 5.538-3.2a.5.5 0 0 1 .518.854l-3.957 2.52 5.843-3.37a.5.5 0 0 1 .525.85l-8.09 5.303 10.664-6.153a.5.5 0 0 1 .517.855l-2.759 1.745 4.506-2.6a.5.5 0 0 1 .516.855l-1.448.911 3.15-1.818a.5.5 0 0 1 .527.85l-9.073 6.002 20.432-11.793a.5.5 0 0 1 .515.858l-6.6 4.107 8.153-4.706a.5.5 0 0 1 .514.858l-5.034 3.124 6.474-3.738a.5.5 0 0 1 .515.858l-5.865 3.653 7.375-4.258a.5.5 0 0 1 .512.859l-.277.17 1.422-.821a.5.5 0 0 1 .522.853l-12.7 8.215 14.048-8.111a.5.5 0 0 1 .521.854l-10.168 6.525 9.961-5.75a.5.5 0 0 1 .524.851l-10.418 6.843 9.894-5.712a.5.5 0 0 1 .527.848l-8.7 5.8 8.176-4.72a.5.5 0 0 1 .537.842l-8.567 6.024 8.03-4.636a.5.5 0 0 1 .547.835l-6.7 4.938 6.15-3.55a.5.5 0 0 1 .533.845l-1.223.841.69-.4a.5.5 0 0 1 .539.84l-.742.527.2-.117a.5.5 0 0 1 .578.809l-2.377 2.066 1.8-1.039a.5.5 0 0 1 .639.746l-1.253 1.562.522-.3a.5.5 0 1 1 .5.866l-2.826 1.634a.5.5 0 0 1 -.64-.745l1.252-1.56-3.994 2.3a.5.5 0 0 1 -.578-.809l2.378-2.067-4.982 2.881a.5.5 0 0 1 -.539-.84l.745-.529-2.372 1.369a.5.5 0 0 1 -.533-.844l1.217-.837-2.915 1.681a.5.5 0 0 1 -.547-.835l6.7-4.938-10 5.773a.5.5 0 0 1 -.537-.841l8.567-6.023-11.896 6.864a.5.5 0 0 1 -.527-.848l8.7-5.8-11.52 6.648a.5.5 0 0 1 -.524-.85l10.417-6.842-13.324 7.692a.5.5 0 0 1 -.521-.853l10.173-6.526-12.788 7.379a.5.5 0 0 1 -.522-.852l12.71-8.213-15.714 9.065a.5.5 0 0 1 -.512-.858l.248-.152-1.752 1.01a.5.5 0 0 1 -.515-.857l5.86-3.65-7.807 4.507a.5.5 0 0 1 -.514-.857l5.044-3.131-6.908 3.988a.5.5 0 0 1 -.25.071z" fill="#f5ab01"/><path d="m34.216 54.471a.5.5 0 0 1 -.354-.854l1.259-1.26-3.545 2.043a.5.5 0 0 1 -.641-.743l1.5-1.887-4.56 2.63a.5.5 0 0 1 -.606-.783l1.29-1.308-3.623 2.091a.5.5 0 0 1 -.648-.736l1.494-1.951-4.615 2.667a.5.5 0 0 1 -.637-.749l1.47-1.8-2.495 1.44a.5.5 0 0 1 -.678-.691l.689-1.136a.5.5 0 0 1 -.445-.893l1.627-.94a.5.5 0 0 1 .678.692l-.685 1.129 3.181-1.832a.5.5 0 0 1 .637.749l-1.472 1.8 4.415-2.549a.5.5 0 0 1 .648.736l-1.5 1.952 4.662-2.688a.5.5 0 0 1 .606.783l-1.29 1.308 3.622-2.091a.5.5 0 0 1 .642.743l-1.5 1.887 4.558-2.63a.5.5 0 0 1 .6.786l-1.259 1.261 2.71-1.565a.5.5 0 0 1 .647.736l-1.125 1.469 1.239-.714a.5.5 0 0 1 .5.866l-3.401 1.961a.5.5 0 0 1 -.648-.736l1.124-1.464-3.821 2.2a.49.49 0 0 1 -.25.071z" fill="#d89000"/><path d="m38.7 24.572a.5.5 0 0 1 -.4-.8l.964-1.3a.5.5 0 0 1 -.185-.929l1.612-.931a.5.5 0 0 1 .653.731l-.81 1.092 4.009-2.314a.5.5 0 1 1 .5.865l-6.091 3.517a.489.489 0 0 1 -.252.069z" fill="#e09500"/><path d="m16.658 40.471a.5.5 0 0 1 -.266-.923l9.644-6.078-12.011 6.93a.5.5 0 0 1 -.519-.853l5.21-3.34-7.263 4.193a.5.5 0 0 1 -.52-.852l5.87-3.78-8.026 4.632a.5.5 0 0 1 -.528-.848l9.775-6.541-12.8 7.389a.5.5 0 0 1 -.528-.848l9.317-6.2-11.744 6.787a.5.5 0 0 1 -.528-.849l9.215-6.152-9.607 5.546a.5.5 0 0 1 -.524-.852l5.529-3.61-5.074 2.929a.5.5 0 0 1 -.533-.844l9.512-6.544-8.98 5.184a.5.5 0 0 1 -.521-.847l2.822-1.829-2.301 1.329a.5.5 0 0 1 -.534-.844l7.46-5.156-6.926 4a.5.5 0 0 1 -.525-.85l2.038-1.35-1.513.873a.5.5 0 0 1 -.53-.846l2.191-1.482-1.661.955a.5.5 0 0 1 -.539-.841l2.8-1.977-2.256 1.3a.5.5 0 0 1 -.548-.834l2.211-1.641-1.663.96a.5.5 0 0 1 -.562-.823l.994-.794-.432.249a.5.5 0 0 1 -.672-.7l.85-1.337a.5.5 0 0 1 -.564-.233.5.5 0 0 1 .182-.682l1.63-.942a.5.5 0 0 1 .672.7l-.837 1.315 4.415-2.549a.5.5 0 0 1 .562.824l-.993.793 3.456-2a.5.5 0 0 1 .548.834l-2.212 1.646 4.092-2.362a.5.5 0 0 1 .539.84l-2.8 1.979 4.417-2.55a.5.5 0 0 1 .531.847l-2.193 1.484 3.614-2.087a.5.5 0 0 1 .526.85l-2.047 1.354 3.41-1.967a.5.5 0 0 1 .534.843l-7.455 5.149 8.836-5.1a.5.5 0 0 1 .522.853l-2.816 1.82 2.686-1.551a.5.5 0 0 1 .533.845l-9.512 6.543 9.906-5.719a.5.5 0 0 1 .524.852l-5.539 3.616 7.12-4.107a.5.5 0 0 1 .527.848l-9.206 6.145 12.118-7a.5.5 0 0 1 .528.848l-9.322 6.2 12.206-7.041a.5.5 0 0 1 .528.848l-9.778 6.543 12.8-7.391a.5.5 0 0 1 .521.852l-5.851 3.77 8.08-4.665a.5.5 0 0 1 .52.853l-5.215 3.343 15.67-9.047a.5.5 0 0 1 .517.856l-9.643 6.078 11.807-6.817a.5.5 0 0 1 .512.858l-4.124 2.553 5.5-3.174a.5.5 0 0 1 .524.851l-14.424 9.4 17.078-9.86a.5.5 0 0 1 .515.857l-5.62 3.5 6.966-4.008a.5.5 0 0 1 .521.852l-11.776 7.579 12.363-7.137a.5.5 0 0 1 .515.856l-4.3 2.7 3.919-2.262a.5.5 0 0 1 .522.851l-8.9 5.786 8.383-4.839a.5.5 0 0 1 .52.853l-4.525 2.9 4.006-2.312a.5.5 0 0 1 .531.846l-7.787 5.3 7.256-4.188a.5.5 0 0 1 .521.853l-.435.281a.5.5 0 0 1 .458.877l-5.726 4.157 5.182-2.991a.5.5 0 0 1 .546.836l-3.286 2.415 2.74-1.581a.5.5 0 0 1 .581.807l-3.171 2.8 2.59-1.5a.5.5 0 0 1 .573.814l-.5.421a.5.5 0 0 1 .537.813l-.458.484a.5.5 0 0 1 .19.929l-2.425 1.4a.5.5 0 0 1 -.614-.776l.218-.23-1.752 1.006a.5.5 0 0 1 -.573-.814l.47-.4-2.097 1.214a.5.5 0 0 1 -.581-.807l3.17-2.8-6.241 3.6a.5.5 0 0 1 -.546-.836l3.287-2.417-5.637 3.26a.5.5 0 0 1 -.544-.837l5.723-4.154-8.649 4.991a.5.5 0 0 1 -.521-.852l.279-.181-1.79 1.033a.5.5 0 0 1 -.531-.845l7.789-5.3-10.647 6.145a.5.5 0 0 1 -.52-.853l4.517-2.9-6.5 3.754a.5.5 0 0 1 -.522-.851l8.9-5.784-11.493 6.634a.5.5 0 0 1 -.515-.856l4.318-2.7-6.169 3.556a.5.5 0 0 1 -.521-.852l11.783-7.588-14.62 8.44a.5.5 0 0 1 -.519-.853l5.6-3.493-7.529 4.346a.5.5 0 0 1 -.523-.851l14.434-9.409-17.782 10.26a.5.5 0 0 1 -.513-.857l4.113-2.543-5.894 3.4a.5.5 0 0 1 -.248.071z" fill="#e09500"/><path d="m30.985 35.471a.5.5 0 0 1 -.325-.88l.508-.436-2.162 1.245a.5.5 0 0 1 -.575-.812l.507-.436-2.162 1.248a.5.5 0 0 1 -.646-.128.5.5 0 0 1 .042-.658l1.263-1.265-3.554 2.051a.5.5 0 0 1 -.649-.734l1.492-1.966-4.3 2.484a.5.5 0 0 1 -.64-.745l1.316-1.639-1.723.994a.5.5 0 0 1 -.643-.742l.459-.581a.492.492 0 0 1 -.3-.233.5.5 0 0 1 .182-.682l1.627-.94a.5.5 0 0 1 .643.743l-.211.267 1.771-1.026a.5.5 0 0 1 .64.745l-1.316 1.639 4.133-2.384a.5.5 0 0 1 .649.734l-1.491 1.966 4.687-2.7a.5.5 0 0 1 .605.786l-1.264 1.266 3.552-2.052a.5.5 0 0 1 .575.812l-.508.436 2.166-1.248a.5.5 0 0 1 .575.812l-.507.435 2.161-1.247a.5.5 0 0 1 .62.769l-1.426 1.568 3.2-1.851a.5.5 0 0 1 .647.736l-1.117 1.468 1.23-.709a.5.5 0 0 1 .5.865l-3.39 1.954a.5.5 0 0 1 -.647-.736l1.121-1.464-3.823 2.2a.5.5 0 0 1 -.621-.769l1.426-1.567-4.047 2.336a.493.493 0 0 1 -.25.071z" fill="#b77500"/><path d="m38.765 4.486a.5.5 0 0 1 -.4-.8l.9-1.214a.5.5 0 0 1 -.185-.929l1.612-.93a.5.5 0 0 1 .652.731l-.744 1.007 3.036-1.751a.5.5 0 0 1 .5.865l-5.121 2.954a.489.489 0 0 1 -.25.067z" fill="#f5ab01"/><path d="m27.1 21.471a.5.5 0 0 1 -.268-.923l10.368-6.568-12.86 7.42a.5.5 0 0 1 -.517-.855l9.977-6.289-12.381 7.144a.5.5 0 0 1 -.516-.856l8.913-5.6-11.176 6.456a.5.5 0 0 1 -.523-.851l14.977-9.749-18.365 10.6a.5.5 0 0 1 -.519-.854l11.79-7.497-14.476 8.351a.5.5 0 0 1 -.524-.846l10.383-6.868-13.369 7.714a.5.5 0 0 1 -.526-.849l10.164-6.706-13.088 7.555a.5.5 0 0 1 -.524-.85l9.66-6.334-11.64 6.719a.5.5 0 0 1 -.529-.848l10.782-7.239-11.033 6.369a.5.5 0 0 1 -.529-.848l8.962-6.04-8.433 4.871a.5.5 0 0 1 -.533-.844l9.319-6.391-8.787 5.07a.5.5 0 0 1 -.522-.851l3.814-2.484-3.292 1.9a.5.5 0 0 1 -.531-.846l6.77-4.615-6.239 3.6a.5.5 0 0 1 -.527-.848l2.512-1.672-1.985 1.144a.5.5 0 0 1 -.547-.835l4.873-3.591-4.326 2.5a.5.5 0 0 1 -.568-.818l3.84-3.177-3.272 1.885a.5.5 0 0 1 -.619-.769l2.265-2.482-1.646.949a.5.5 0 0 1 -.648-.734l.614-.813a.5.5 0 0 1 -.17-.926l1.632-.943a.5.5 0 0 1 .648.735l-.44.583 2.304-1.327a.5.5 0 0 1 .619.769l-2.264 2.479 5.632-3.248a.5.5 0 0 1 .568.817l-3.84 3.175 6.921-3.992a.5.5 0 0 1 .547.835l-4.871 3.587 7.669-4.422a.5.5 0 0 1 .528.848l-2.52 1.675 4.377-2.523a.5.5 0 0 1 .531.845l-6.767 4.612 7.981-4.608a.5.5 0 0 1 .523.852l-3.809 2.478 3.7-2.133a.5.5 0 0 1 .533.844l-9.321 6.389 9.72-5.611a.5.5 0 0 1 .529.847l-8.964 6.042 11.359-6.557a.5.5 0 0 1 .528.847l-10.781 7.24 14.012-8.087a.5.5 0 0 1 .525.85l-9.655 6.336 12.447-7.186a.5.5 0 0 1 .525.849l-10.168 6.706 13.093-7.555a.5.5 0 0 1 .525.849l-10.379 6.863 20.291-11.712a.5.5 0 0 1 .519.854l-11.782 7.497 14.468-8.351a.5.5 0 0 1 .522.851l-14.98 9.749 18.37-10.6a.5.5 0 0 1 .515.856l-8.913 5.6 11.177-6.456a.5.5 0 0 1 .517.855l-9.97 6.287 11.794-6.813a.5.5 0 0 1 .517.855l-10.369 6.57 10.67-6.16a.5.5 0 0 1 .52.854l-10.138 6.485 9.72-5.612a.5.5 0 0 1 .528.848l-12.391 8.306 11.864-6.848a.5.5 0 0 1 .516.855l-.545.343.029-.016a.5.5 0 0 1 .531.846l-8.133 5.537 7.6-4.389a.5.5 0 0 1 .539.841l-6.867 4.856 6.33-3.655a.5.5 0 0 1 .55.832l-5.563 4.2 5.013-2.893a.5.5 0 0 1 .561.823l-3.5 2.79 2.937-1.7a.5.5 0 0 1 .55.832l-.356.268a.5.5 0 0 1 .379.878l-.425.36a.488.488 0 0 1 .5.181.5.5 0 0 1 -.035.656l-.407.421a.494.494 0 0 1 .321.237.5.5 0 0 1 -.182.683l-2.397 1.387a.5.5 0 0 1 -.609-.78l.069-.072-1.477.852a.5.5 0 0 1 -.573-.814l.316-.267-1.873 1.081a.5.5 0 0 1 -.55-.832l.079-.059-1.549.891a.5.5 0 0 1 -.562-.823l3.5-2.79-6.257 3.613a.5.5 0 0 1 -.551-.832l5.562-4.2-8.716 5.032a.5.5 0 0 1 -.539-.84l6.869-4.858-9.87 5.7a.5.5 0 0 1 -.532-.845l8.134-5.538-11.057 6.381a.5.5 0 0 1 -.516-.855l.56-.353-2.093 1.208a.5.5 0 0 1 -.529-.847l12.387-8.3-15.852 9.147a.5.5 0 0 1 -.519-.853l10.143-6.487-12.716 7.34a.5.5 0 0 1 -.246.071z" fill="#f5ab01"/><path d="m25.662 15.471a.5.5 0 0 1 -.319-.885l.185-.153-1.682.97a.5.5 0 0 1 -.613-.776l1.367-1.44-3.683 2.126a.5.5 0 0 1 -.613-.777l1.286-1.36-2.058 1.187a.5.5 0 0 1 -.682-.682l.734-1.272-.011.007a.5.5 0 0 1 -.5-.867l1.627-.938a.5.5 0 0 1 .6.079.5.5 0 0 1 .079.6l-.734 1.27 3.412-1.96a.5.5 0 0 1 .613.776l-1.285 1.359 3.7-2.136a.5.5 0 0 1 .612.776l-1.366 1.44 3.842-2.215a.5.5 0 0 1 .569.817l-.183.152 1.679-.969a.5.5 0 0 1 .649.734l-1.487 1.971 4.69-2.708a.5.5 0 0 1 .62.768l-1.429 1.576 3.874-2.236a.5.5 0 0 1 .66.72l-1.39 1.985 2.187-1.262a.5.5 0 0 1 .649.736l-.492.647a.5.5 0 0 1 .157.924l-1.614.932a.5.5 0 0 1 -.649-.736l.3-.4-1.993 1.149a.5.5 0 0 1 -.659-.719l1.389-1.981-4.687 2.7a.5.5 0 0 1 -.62-.768l1.428-1.576-4.062 2.344a.5.5 0 0 1 -.649-.734l1.49-1.966-4.688 2.7a.493.493 0 0 1 -.25.071z" fill="#d89000"/><g fill="#262626"><path d="m.264 53.724c0 3.931.37 5.828 4.532 5.836 13.852.027 27.706 0 41.559 0h8.323c1.175 0 2.777.228 3.817-.476 2.035-1.378 1.241-5.205 1.241-7.224v-9.907c0-.018-.01-.028-.011-.045a.436.436 0 0 0 0-.1 2.729 2.729 0 0 0 -1.344-1.924c.061-.039.131-.07.188-.112 1.944-1.4 1.156-5.047 1.156-7.057v-9.909a2.523 2.523 0 0 0 -1.253-1.766c.047-.032.1-.057.145-.09 2.032-1.536 1.119-5.886 1.119-8.02v-9.981c0-.017-.01-.027-.011-.043a.372.372 0 0 0 0-.1c-.593-2.178-1.847-2.217-3.762-2.35-3.64-.253-7.387 0-11.036 0-1.494 0-4.058-.457-5.42.474-1.438.982-.342.978-1.242 2.121-1.453 1.849-2.387 1.405-4.554 1.405-2.859 0-7.219.859-9.94 0-2.51-.792-1.948-3.425-4.785-4-2.573-.522-5.788 0-8.405 0-2.322 0-5.455-.572-7.718.033-2.145.574-2.476 1.681-2.598 3.748-.225 3.812 0 7.705 0 11.525 0 2.765.1 4.551 1.86 5.335-3.59 2.009-1.849 9.462-1.849 12.915 0 1.76-.657 4.879 1.126 6.011a1.552 1.552 0 0 0 .225.106c-3.016 2.509-1.363 10.392-1.363 13.595zm1.471-43.773c0-1.68-.7-5.456 0-7 1.037-2.276 4.839-1.4 6.836-1.4 2.816 0 6.758-.685 9.5 0 2.45.612 1.982 3.271 4.512 3.954 1.608.435 3.838.046 5.466.046 2.778 0 6.074.535 8.8 0 2.979-.583 1.791-2.9 4.159-4 1.735-.8 6.071 0 7.925 0 2.044 0 8.519-1.183 9.326 1.626v6.884c0 2.434.741 6.332 0 8.683-.423 1.34-1.776 1.81-3.35 1.93q-1.354-.035-2.71-.038c-1.013-.073-1.961-.173-2.664-.173h-38.589c-.67 0-1.456.068-2.279.135a28.949 28.949 0 0 0 -4.358-.066 3.109 3.109 0 0 1 -2.574-2.264c-.654-2.415 0-5.815 0-8.317zm37.3 11.641c-.425.483-.25.879-.756 1.6-1.372 1.958-2.047 1.486-4.32 1.486-2.868 0-7.206.852-9.94 0-1.734-.54-2.094-1.883-2.958-2.881 5.99-.027 11.988-.139 17.971-.205zm-36.266-.272h.007a7.683 7.683 0 0 0 1.64.228c4.892.21 9.8.268 14.721.26 1.45 1.091 1.177 2.934 3.478 3.515 1.942.491 4.629 0 6.6 0 2.353 0 5.141.393 7.476 0a4.525 4.525 0 0 0 1.876-.549c1.124-.807.916-2.346 1.86-3.195 1.975-.018 3.949-.032 5.92-.032 2.4 0 7.46.926 10.6.138a2.363 2.363 0 0 1 1.329 1.512v6.523c0 2.385.607 5.822 0 8.154a2.408 2.408 0 0 1 -1.476 1.634c-.267-.026-.544-.047-.843-.068-3.638-.257-7.387 0-11.035 0-1.335 0-3.547-.363-4.965.24h-20.217a3.773 3.773 0 0 0 -.758-.24c-2.57-.525-5.791 0-8.406 0-2.162 0-5.024-.486-7.235-.063a2.881 2.881 0 0 1 -1.617-1.892c-.641-2.274 0-5.817 0-8.153 0-1.707-.892-6.879 1.045-8.012zm36.283 19c-.858 1-.583 2.389-2.08 3.12-.814.4-2.8 0-3.694 0-2.737 0-6.9.819-9.512 0-1.808-.569-2.029-2.095-3.071-3.12zm-36.034.24a2.732 2.732 0 0 1 .571-.187c.511-.015 1-.053 1.371-.053h1.605c1.109.1 2.2.24 2.946.24 1.1 0 2.455-.14 3.83-.24h3.759a6.914 6.914 0 0 1 1.207.24c2.248.707 1.866 3.294 4.28 3.95 1.6.437 3.834.05 5.468.05 2.773 0 5.943.454 8.683 0 2.973-.491 1.941-2.892 4.279-4a3.477 3.477 0 0 1 .756-.24h4.513c1.209.111 2.346.24 3.137.24.177 0 .394-.01.625-.024a27.068 27.068 0 0 0 6.265.046 2.462 2.462 0 0 1 1.95 1.584v5.922c0 2.407.741 6.329 0 8.638-.975 3.036-6.979 1.714-9.459 1.714h-38.228c-2.629 0-7.972 1.272-8.84-2-.572-2.158 0-5.269 0-7.479 0-1.961-1.05-7.261 1.282-8.401z"/><path d="m22.693 54.511h16.238a.825.825 0 0 0 .361-.086c1.8-.561 3.449-2.3 1.741-4.107-1.073-1.133-2.884-.829-4.3-.829h-9.66c-1.9 0-4.23-.373-6.1.017-1.694.353-3.575 1.883-2.363 3.817.881 1.407 2.667 1.188 4.083 1.188zm-2.334-3.286c1.528-1.858 7.754-.714 10.007-.714h6.226a7.614 7.614 0 0 1 1.866 0c1.254.377 3.172 2.2.52 2.978h-9.344c-1.252 0-11.734.731-9.275-2.264z"/><path d="m22.7 35.544h16.239a.822.822 0 0 0 .348-.081c1.823-.564 3.445-2.339 1.743-4.154-1.079-1.152-2.874-.853-4.308-.853h-9.658c-1.9 0-4.232-.374-6.1.017-1.714.359-3.563 1.918-2.351 3.859.887 1.419 2.662 1.212 4.087 1.212zm-2.336-3.3c1.526-1.847 7.77-.7 10.01-.7h6.226a7.614 7.614 0 0 1 1.866 0c1.254.374 3.158 2.132.5 2.912h-9.341c-1.252 0-11.677.714-9.26-2.21z"/><path d="m22.463 15.346h16.237c.016 0 .038-.007.056-.009a1.394 1.394 0 0 0 .32-.05c1.723-.466 3.8-2.1 1.969-3.919-1.059-1.055-3.048-.714-4.405-.714-4.965 0-10.618-.785-15.523.018-1.641.269-3.647 1.589-2.569 3.532.772 1.396 2.594 1.142 3.915 1.142zm-2.223-3.27c1.468-1.846 7.624-.73 9.9-.73h6.226a7.87 7.87 0 0 1 1.866 0c1.284.364 3.471 2.482.87 3.308h-9.238c-1.09 0-12.259.736-9.624-2.578z"/></g></svg>