<svg height="506pt" viewBox="-23 0 506 506.5909" width="506pt" xmlns="http://www.w3.org/2000/svg"><path d="m67.566406 505.597656c-1.910156 0-3.582031-1.269531-4.101562-3.109375-.515625-1.835937.246094-3.792969 1.875-4.789062l113.6875-69.769531-133.546875 77.0625c-2.007813 1.074218-4.5.382812-5.671875-1.570313-1.167969-1.953125-.597656-4.480469 1.296875-5.742187l184.085937-114.347657-209.082031 120.738281c-2.023437 1.128907-4.574219.4375-5.75-1.558593-1.175781-1.992188-.550781-4.5625 1.414063-5.785157l41.507812-25.011718-41.90625 24.207031c-2.019531 1.082031-4.53125.378906-5.691406-1.59375-1.164063-1.972656-.5625-4.511719 1.363281-5.753906l8.335937-5-4.007812 2.304687c-2.007812 1.058594-4.496094.359375-5.65625-1.589844-1.160156-1.953124-.59375-4.46875 1.292969-5.730468l186.121093-114.59375-181.757812 104.933594c-2.023438 1.125-4.574219.433593-5.753906-1.558594-1.175782-1.996094-.546875-4.5625 1.417968-5.789063l32.546876-19.566406-28.210938 16.28125c-2.027344 1.207031-4.644531.542969-5.851562-1.480469-1.207032-2.023437-.542969-4.644531 1.480468-5.851562l192.648438-118.78125-188.277344 108.6875c-2.015625 1.136718-4.570312.457031-5.757812-1.527344s-.574219-4.554688 1.378906-5.792969l221.117187-137.472656-216.738281 125.132813c-2.007812 1.058593-4.496094.359374-5.65625-1.59375-1.160156-1.949219-.59375-4.46875 1.292969-5.726563l182.664062-112.378906-178.300781 102.9375c-2.007812 1.058593-4.496094.359375-5.65625-1.589844s-.59375-4.46875 1.292969-5.730469l179.464843-110.320312-175.113281 101.097656c-2.015625 1.113281-4.550781.425781-5.730469-1.554688-1.175781-1.980468-.570312-4.539062 1.371094-5.777343l183.953125-113.195313-179.59375 103.671875c-2.007812 1.089844-4.523437.402344-5.695312-1.5625-1.171875-1.964843-.585938-4.507812 1.328125-5.757812l197.582031-122.027344-193.214844 111.582031c-2.019531 1.125-4.574219.433594-5.75-1.558594-1.175781-1.996093-.546875-4.5625 1.417969-5.789062l34.652344-20.855469-30.320313 17.503907c-2.007812 1.054687-4.492187.355468-5.652343-1.59375-1.164063-1.949219-.59375-4.46875 1.292968-5.730469l157.714844-96.816407-153.355469 88.53125c-2 1.054688-4.480469.363282-5.648437-1.578124-1.164063-1.941407-.609375-4.453126 1.265625-5.726563l207.027343-129.332031-202.644531 116.984375c-2.015625 1.097656-4.539062.402343-5.707031-1.574219-1.171875-1.976562-.566406-4.523438 1.367188-5.765625l69.417968-42.101563-65.078125 37.546876c-2.019531 1.125-4.574219.433593-5.75-1.558594-1.175781-1.996094-.546875-4.5625 1.417969-5.789063l55.355469-33.535156-51.023438 29.464844c-2.007812 1.058593-4.492187.359375-5.652343-1.589844-1.164063-1.953125-.59375-4.46875 1.292968-5.730469l119.050782-73.046875-114.691407 66.21875c-2.015625 1.136719-4.566406.457031-5.753906-1.527343-1.1875-1.984376-.578125-4.554688 1.378906-5.792969l154.050781-95.632813-149.675781 86.382813c-2 1.054687-4.480469.363281-5.648437-1.578125-1.164063-1.941406-.609375-4.457032 1.265625-5.726563l163.285156-102.027343-158.902344 91.71875c-2.003906 1.070312-4.5.378906-5.667969-1.574219-1.171874-1.953125-.601562-4.476563 1.292969-5.738281l134.476563-83.535157-130.101563 75.09375c-2 1.070313-4.488281.386719-5.664062-1.558593-1.171875-1.941407-.617188-4.464844 1.261719-5.738282l150.09375-94.796875-145.691407 84.113281c-2.019531 1.152344-4.59375.472657-5.78125-1.53125-1.1875-2-.550781-4.585937 1.429688-5.804687l23.460937-14.335937-19.109375 11.023437c-2.015625 1.113281-4.550781.425781-5.730469-1.554687-1.175781-1.976563-.570312-4.535157 1.371094-5.777344l20.796875-12.796875-16.4375 9.53125c-2.007812 1.148437-4.566406.484375-5.765625-1.496094-1.199218-1.976563-.601562-4.550781 1.347656-5.800781l104.832032-66.882813-100.414063 57.941407c-2.003906 1.070312-4.5.378906-5.667969-1.574219-1.171874-1.953125-.601562-4.476563 1.292969-5.742188l26.683594-16.59375-22.308594 12.902344c-2.007812 1.105469-4.535156.425781-5.714843-1.542969-1.179688-1.96875-.59375-4.519531 1.332031-5.773437l13.652343-8.53125-9.277343 5.351562c-1.992188 1.152344-4.539063.519531-5.757813-1.433593-1.21875-1.953126-.667968-4.523438 1.246094-5.804688l93.652344-63.019531-89.132813 51.464843c-1.976562 1.117188-4.484375.488282-5.703125-1.433593-1.214844-1.921875-.710937-4.457031 1.148438-5.769531l77.78125-53.757813-73.226563 42.28125c-1.972656 1.121094-4.480469.5-5.699219-1.414063-1.222656-1.917968-.730468-4.453124 1.117188-5.769531l55.851562-39.152343-51.269531 29.59375c-1.976562 1.117187-4.484375.488281-5.703125-1.433594-1.214844-1.921875-.710937-4.457032 1.148438-5.769532l26.613281-18.394531-22.058594 12.730469c-1.933593 1.09375-4.386719.515625-5.632812-1.328125-1.246094-1.839844-.863281-4.332031.871093-5.71875l35.9375-28.160156-31.175781 17.945312c-1.933593 1.09375-4.386719.515625-5.632812-1.328125-1.246094-1.84375-.863281-4.332031.871093-5.722656l13.59375-10.648438-8.832031 5.121094c-1.765625 1.011719-4.003906.632813-5.339843-.90625-1.335938-1.539062-1.398438-3.808594-.144532-5.417968l14.148438-18.039063-8.664063 4.992187c-1.695312.957032-3.828125.640626-5.175781-.765624-1.351562-1.410157-1.570312-3.554688-.539062-5.207032l2.722656-4.199218c-1.53125-.605469-2.574219-2.03125-2.691406-3.671876-.113282-1.640624.722656-3.199218 2.152343-4.007812l9.632813-5.546875c1.699218-.960937 3.832031-.644531 5.179687.765625 1.347657 1.40625 1.570313 3.550781.539063 5.207031l-.757813 1.167969 12.457031-7.140625c1.769532-1.023437 4.015626-.648437 5.355469.894531 1.339844 1.542969 1.398438 3.816406.140625 5.429688l-14.148437 17.984375 42.171875-24.308594c1.9375-1.09375 4.390625-.519531 5.632812 1.324219 1.246094 1.84375.867188 4.335937-.871094 5.722656l-13.652343 10.675781 30.726562-17.722656c1.9375-1.117187 4.410157-.546875 5.664063 1.304687 1.253906 1.851563.863281 4.359376-.894532 5.742188l-35.925781 28.167969 61.074219-35.214844c1.972656-1.078125 4.445312-.4375 5.648438 1.460937 1.203124 1.898438.726562 4.40625-1.089844 5.730469l-26.617188 18.40625 44.375-25.597656c1.972656-1.121094 4.480469-.5 5.703125 1.414063 1.21875 1.917968.726563 4.453124-1.121093 5.769531l-55.859376 39.101562 80.261719-46.335937c1.980469-1.117188 4.488281-.488282 5.707031 1.433594 1.214844 1.921874.710938 4.457031-1.148437 5.765624l-77.773437 53.761719 105.574218-60.972656c1.984375-1.097656 4.484375-.449219 5.6875 1.472656 1.203125 1.925781.6875 4.457031-1.171875 5.757813l-93.644531 63.007812 121.675781-70.246094c2.015625-1.160156 4.589844-.496093 5.789063 1.5 1.199218 1.992188.578125 4.582032-1.394532 5.8125l-13.738281 8.535157 27.496094-15.847657c2.007813-1.105468 4.535156-.425781 5.714844 1.542969 1.179687 1.96875.59375 4.519531-1.332031 5.769531l-26.613282 16.554688 41.367188-23.890625c2.003906-1.085937 4.503906-.410156 5.683594 1.539063 1.179687 1.945312.625 4.472656-1.261719 5.746093l-104.796875 66.902344 128.503906-74.179687c2.007812-1.058594 4.492188-.359376 5.652344 1.589843 1.164062 1.953125.59375 4.46875-1.292969 5.730469l-20.90625 12.800781 34.910156-20.121093c2.015625-1.113282 4.550781-.429688 5.730469 1.550781s.570312 4.539062-1.371094 5.777343l-23.296875 14.242188 37.386719-21.578125c2.003906-1.105469 4.523438-.429687 5.707031 1.53125 1.183594 1.957031.613281 4.5-1.296875 5.765625l-150.210937 94.878906 174.011719-100.453125c2.007812-1.070312 4.5-.378906 5.671874 1.570313 1.167969 1.953125.597657 4.480468-1.296874 5.742187l-134.355469 83.464844 139.945312-80.808594c2.003907-1.058593 4.484375-.367187 5.648438 1.574219 1.167969 1.941406.613281 4.457031-1.261719 5.730469l-163.335938 102.109375 170.15625-98.230469c2.007813-1.105469 4.535157-.421875 5.714844 1.542969 1.183594 1.96875.59375 4.519531-1.328125 5.773437l-154.046875 95.621094 160.15625-92.441406c2.007813-1.054688 4.492188-.355469 5.652344 1.59375 1.164062 1.949219.59375 4.46875-1.292969 5.730469l-118.945312 72.960937 123.605469-71.332031c2.015624-1.097656 4.539062-.402344 5.707031 1.574218 1.171875 1.976563.566406 4.523438-1.363281 5.765626l-55.179688 33.433593 58.046875-33.511719c2.027344-1.203124 4.644531-.53125 5.847656 1.496094 1.203125 2.03125.53125 4.648438-1.496093 5.851563l-69.785157 42.324219 72.976563-42.164063c2.007812-1.105469 4.535156-.425781 5.714844 1.542969 1.183593 1.96875.59375 4.519531-1.328126 5.773437l-207.003906 129.3125 215.082032-124.175781c2.03125-1.203125 4.648437-.53125 5.851562 1.496094 1.199219 2.027344.53125 4.648437-1.5 5.851562l-157.6875 96.773438 163.234375-94.214844c2.03125-1.199219 4.648437-.519531 5.847656 1.511719 1.195313 2.03125.519531 4.648437-1.511719 5.84375l-34.355468 20.667969 35.738281-20.625c2.011719-1.089844 4.523437-.402344 5.699219 1.5625 1.171875 1.964843.585937 4.507812-1.328125 5.757812l-197.574219 122.027344 193.203125-111.589844c2.007813-1.058594 4.492187-.359375 5.65625 1.589844 1.160156 1.953125.589844 4.46875-1.296875 5.730468l-183.953125 113.203126 179.59375-103.6875c2.015625-1.113282 4.554687-.425782 5.730469 1.550781 1.179687 1.980469.570312 4.539062-1.371094 5.78125l-179.515625 110.351562 175.15625-101.121093c2.007813-1.058594 4.492187-.359376 5.65625 1.59375 1.160156 1.949218.589844 4.46875-1.296875 5.730468l-182.527344 112.289063 178.167969-102.863281c2.007813-1.070313 4.503906-.378907 5.671875 1.574218s.597656 4.476563-1.292969 5.742188l-221.296875 137.539062 216.925782-125.191406c2.023437-1.207031 4.644531-.546875 5.851562 1.480469 1.207031 2.023437.542969 4.640625-1.480469 5.847656l-192.523437 118.714844 188.152344-108.628907c2.03125-1.195312 4.648437-.519531 5.847656 1.511719 1.195312 2.03125.519531 4.648438-1.511719 5.84375l-32.871094 19.753907 28.535157-16.46875c2.015624-1.113282 4.554687-.425782 5.730468 1.554687 1.179688 1.980469.574219 4.535156-1.367187 5.777344l-185.984375 114.550781 181.621094-104.898438c2.019531-1.082031 4.53125-.378906 5.691406 1.59375 1.164062 1.972657.558594 4.511719-1.363282 5.75l-8.339843 5.003907 4.011719-2.3125c2.03125-1.199219 4.648437-.523438 5.847656 1.507812 1.195312 2.03125.519531 4.648438-1.511719 5.847657l-41.53125 24.992187 37.195313-21.460937c2.007812-1.070313 4.503906-.378907 5.671874 1.570312 1.167969 1.953125.601563 4.480469-1.292968 5.742188l-184.175782 114.398437 179.796876-103.800781c2.015624-1.113282 4.554687-.425782 5.730468 1.554687 1.179688 1.980469.574219 4.535157-1.367187 5.777344l-113.769531 69.828125 109.371093-63.148438c2.015625-1.058593 4.507813-.355468 5.664063 1.605469 1.160156 1.960938.574218 4.484375-1.328125 5.734375l-18.480469 11.195313 14.144531-8.15625c2-1.054688 4.476563-.371094 5.644531 1.5625 1.171876 1.933593.628907 4.441406-1.230468 5.722656l-160 101.429687 155.621094-89.839843c2.007812-1.085938 4.511718-.402344 5.6875 1.550781 1.179687 1.957031.609374 4.492188-1.292969 5.753906l-111.921875 70.261719 107.519531-62.078125c2.011719-1.109375 4.535156-.425781 5.71875 1.542969 1.179687 1.96875.589844 4.515625-1.332031 5.769531l-77.378906 48.375 72.992187-42.144531c2.003906-1.164063 4.570313-.519531 5.78125 1.457031 1.210937 1.972656.625 4.554688-1.316406 5.8125l-121.710938 79.554688 117.253907-67.695313c2-1.097656 4.511718-.429687 5.699218 1.519531 1.1875 1.949219.632813 4.488282-1.261718 5.761719l-77.207032 49.730469 72.769532-42.007813c2.011718-1.109375 4.539062-.425781 5.71875 1.542969 1.179687 1.96875.59375 4.515625-1.332032 5.769531l-3.472656 2.167969c1.84375-.527344 3.816406.21875 4.847656 1.835938 1.214844 1.953124.660156 4.523437-1.253906 5.800781l-72.535156 48.554687 67.984375-39.253906c1.984375-1.070312 4.457031-.417969 5.652343 1.496094 1.191407 1.914062.691407 4.425781-1.144531 5.730468l-47.566406 31.898438 43.101563-24.839844c1.984374-1.097656 4.484374-.453125 5.6875 1.472656 1.203124 1.925782.6875 4.453126-1.171876 5.753907l-30.480468 20.558593 25.964844-14.992187c1.984374-1.085937 4.46875-.441406 5.667968 1.476563 1.199219 1.914062.699219 4.433593-1.144531 5.742187l-13.652344 9.257813 9.164063-5.28125c1.929687-1.082032 4.371094-.507813 5.613281 1.324218 1.246094 1.832032.882813 4.308594-.835937 5.707032l-36.5625 28.917968 31.785156-18.335937c1.921875-1.101563 4.367187-.542969 5.628906 1.28125 1.257812 1.820312.910156 4.304687-.800781 5.714843l-17.160157 13.996094 12.332032-7.109375c1.785156-1.023437 4.046875-.628906 5.375.941407 1.332031 1.570312 1.351562 3.863281.050781 5.457031l-12.722656 15.472656 7.261719-4.183594c1.707031-.980469 3.867187-.664062 5.222656.765625 1.355468 1.425782 1.554687 3.597656.488281 5.253906l-2.664063 4.09375c.863282.355469 1.582032.988282 2.039063 1.800782 1.179687 2.039062.484375 4.648437-1.550781 5.828125l-9.59375 5.53125c-1.695313.949219-3.824219.628906-5.167969-.777344s-1.566406-3.542969-.539063-5.195313l.628907-.984374-12.082031 6.9375c-1.785157 1.035156-4.054688.644531-5.390626-.929688-1.335937-1.570312-1.355468-3.875-.042968-5.46875l12.695312-15.480469-37.980468 21.878907c-1.925782 1.101562-4.371094.542968-5.628907-1.28125-1.257812-1.820313-.910156-4.304688.796875-5.714844l17.152344-13.984375-36.332031 20.980469c-1.933594 1.101562-4.390625.535156-5.640625-1.304688-1.253906-1.839844-.882813-4.332031.851562-5.726562l36.558594-28.945313-62.371094 35.976563c-1.984375 1.085937-4.46875.441406-5.667968-1.476563-1.199219-1.914063-.699219-4.433594 1.144531-5.742187l13.695312-9.265626-28.550781 16.484376c-1.988281 1.101562-4.484375.453124-5.6875-1.472657-1.203125-1.921875-.6875-4.453125 1.171875-5.753906l30.472656-20.539063-48.101562 27.765626c-1.984375 1.101562-4.484375.453124-5.6875-1.472657-1.203125-1.921875-.6875-4.453125 1.171875-5.753906l47.640625-31.90625-67.785157 39.132813c-1.984374 1.074218-4.460937.417968-5.652343-1.496094-1.191407-1.910156-.691407-4.421875 1.144531-5.730469l72.535156-48.582031-96.683594 55.808594c-2.007812 1.089843-4.511718.402343-5.6875-1.550782-1.175781-1.953125-.609374-4.488281 1.292969-5.753906l.664063-.425781-13.386719 7.730469c-1.996094 1.085937-4.492187.414062-5.675781-1.523438-1.1875-1.9375-.644532-4.460938 1.230468-5.746094l77.148438-49.6875-98.679688 56.957032c-2 1.136718-4.535156.484374-5.742187-1.472657-1.203125-1.957031-.644531-4.515625 1.269531-5.789062l121.730469-79.5625-150.402344 86.824219c-2.003906 1.089843-4.511719.402343-5.6875-1.550782s-.605469-4.488281 1.292969-5.753906l77.421875-48.390625-96.511719 55.695313c-2.007812 1.128906-4.546875.453124-5.738281-1.519532-1.1875-1.972656-.597656-4.53125 1.335937-5.785156l111.941407-70.261719-134.339844 77.566407c-2 1.085937-4.5.410156-5.683594-1.539063-1.179687-1.945313-.625-4.472656 1.261719-5.746094l160.078125-101.445312-188.398437 108.730469c-2.019532 1.097656-4.542969.402343-5.710938-1.574219-1.167969-1.976563-.566406-4.523438 1.367188-5.761719l18.578124-11.25-32.214843 18.585938c-.644531.386718-1.382813.597656-2.132813.605468zm0 0" fill="#5e9cea"/><path d="m100.121094 164.265625c-1.90625.003906-3.582032-1.253906-4.109375-3.085937-.527344-1.832032.222656-3.789063 1.839843-4.796876l45.40625-28.460937-61.953124 35.738281c-2 1.101563-4.511719.429688-5.699219-1.519531-1.1875-1.945313-.632813-4.484375 1.261719-5.757813l84.011718-53.839843-97.382812 56.246093c-1.996094 1.113282-4.511719.460938-5.714844-1.484374-1.199219-1.941407-.65625-4.488282 1.234375-5.769532l99.890625-65.441406-96.332031 55.609375c-1.996094 1.097656-4.5.4375-5.695313-1.503906-1.191406-1.9375-.648437-4.472657 1.230469-5.757813l72.261719-47.257812-67.796875 39.132812c-1.988281 1.085938-4.472657.429688-5.667969-1.492187s-.679688-4.441407 1.171875-5.742188l63.546875-42.367187-59.050781 34.089844c-2.003907 1.164062-4.570313.519531-5.78125-1.457032-1.210938-1.972656-.628907-4.554687 1.316406-5.8125l23.144531-15.105468-18.679687 10.785156c-1.988281 1.085937-4.472657.429687-5.667969-1.492188s-.679688-4.441406 1.171875-5.742187l21.734375-14.457031-17.238281 9.933593c-1.941407 1.085938-4.390625.5-5.628907-1.347656-1.238281-1.847656-.851562-4.335937.890626-5.71875l49.496093-38.347656-44.757812 25.863281c-1.957031 1.140625-4.464844.550781-5.710938-1.339844-1.246093-1.890625-.792969-4.429687 1.027344-5.777344l18.429687-13.726562-13.746093 7.933594c-1.878907 1.046875-4.246094.53125-5.519531-1.203125-1.269532-1.734375-1.054688-4.144531.511718-5.621094l19.625-17.871094-14.601562 8.421875c-1.835938 1.0625-4.175782.613282-5.488282-1.054687s-1.199218-4.046875.265626-5.582031l6.375-6.691407-1.152344.65625c-1.496094.863281-3.367188.738281-4.738282-.316406-1.367187-1.058594-1.964843-2.835937-1.507812-4.503906l2.21875-8.023438c-1.417969-.691406-2.339844-2.109375-2.394531-3.6875-.054688-1.578125.769531-3.058593 2.140625-3.84375l4.265625-2.441406c1.496093-.871094 3.371093-.746094 4.746093.308594 1.371094 1.058593 1.96875 2.839843 1.507813 4.511719l-1.5 5.417968 17.765625-10.238281c1.835938-1.050781 4.160156-.597656 5.46875 1.0625s1.203125 4.027344-.246094 5.566406l-6.382812 6.699219 23.132812-13.390625c1.878906-1.046875 4.246094-.53125 5.515625 1.203125 1.273438 1.734375 1.054688 4.148438-.507812 5.625l-19.625 17.871094 42.878906-24.722656c1.957031-1.113282 4.441406-.515626 5.675781 1.367187 1.234375 1.878906.796875 4.394531-1 5.75l-18.4375 13.730469 36.152344-20.863282c1.941406-1.089843 4.390625-.503906 5.628906 1.34375 1.238282 1.847657.851563 4.339844-.890625 5.71875l-49.492187 38.324219 78.632812-45.421875c1.996094-1.1875 4.574219-.558594 5.800782 1.414063 1.226562 1.972656.652343 4.5625-1.296876 5.828125l-21.671874 14.441406 37.546874-21.703125c2-1.164063 4.566407-.515625 5.78125 1.457031 1.210938 1.976563.625 4.554688-1.320312 5.816406l-23.132812 15.109376 38.816406-22.398438c2-1.1875 4.578125-.558594 5.804687 1.414062 1.226563 1.972657.648438 4.566407-1.296875 5.832032l-63.601562 42.417968 85.984375-49.679687c2.003906-1.164063 4.566406-.519531 5.78125 1.457031 1.210937 1.972656.625 4.554688-1.320313 5.8125l-72.199218 47.230469 94.457031-54.527344c1.996093-1.136719 4.535156-.484375 5.738281 1.472657 1.207031 1.957031.644531 4.515624-1.269531 5.789062l-99.890625 65.484375 125.96875-72.769531c2.003906-1.121094 4.535156-.457032 5.730468 1.507812 1.191407 1.960938.617188 4.515625-1.300781 5.777344l-84.0625 53.863281 105.992188-61.175781c2.015625-1.160156 4.589843-.496094 5.789062 1.5 1.199219 1.992188.578125 4.578125-1.394531 5.8125l-45.464844 28.484375 62.039063-35.839844c2.007812-1.125 4.550781-.453125 5.738281 1.519531 1.1875 1.972657.597656 4.535157-1.335938 5.785157l-57.796874 36.464843 54.785156-31.625c2.007812-1.179687 4.589844-.527343 5.800781 1.460938s.601563 4.582031-1.363281 5.824219l-67.515625 43.34375 63.078125-36.421875c1.984375-1.117188 4.492187-.476563 5.703125 1.449218 1.210937 1.929688.695312 4.46875-1.171875 5.769532l-91.179688 62.027344 86.65625-50.019532c2.003906-1.140625 4.550782-.484375 5.75 1.484375 1.203125 1.964844.625 4.53125-1.304687 5.792969l-22.125 14.277344 17.679687-10.242188c1.976563-1.117187 4.480469-.496094 5.703125 1.417969 1.21875 1.914063.726563 4.449219-1.121093 5.769531l-57.96875 40.625 53.386718-30.8125c1.945313-1.085937 4.402344-.492187 5.636719 1.367188 1.230469 1.859375.824219 4.351562-.933594 5.722656l-50.347656 38.136719 45.652344-26.359375c1.964843-1.117188 4.457031-.511719 5.6875 1.382812 1.230469 1.894532.773437 4.417969-1.046875 5.757813l-17.484375 12.707031 12.800781-7.40625c1.90625-1.082031 4.320312-.542969 5.585938 1.246094 1.265624 1.789062.972656 4.246094-.679688 5.683594l-21.136719 18.074218 16.214844-9.386718c1.902344-1.089844 4.320313-.5625 5.59375 1.222656s.988281 4.242187-.664063 5.6875l-4.152343 3.609375c1.617187-.539063 3.40625-.058594 4.539062 1.21875 1.132813 1.277343 1.394531 3.109375.664063 4.652343l-4.769532 10.003907c1.582032-.03125 3.058594.78125 3.882813 2.132812.566406.980469.722656 2.144531.429687 3.242188-.292968 1.09375-1.007812 2.027343-1.992187 2.59375l-9.582031 5.519531c-1.617188.925781-3.648438.691406-5.015625-.574219-1.367188-1.265625-1.753907-3.269531-.957031-4.953125l4.394531-9.226562-25.507813 14.789062c-1.902344 1.089844-4.320312.5625-5.59375-1.222656-1.273437-1.785156-.988281-4.246094.664063-5.6875l3.839843-3.328125-17.75 10.238281c-1.90625 1.082032-4.320312.542969-5.585937-1.246094-1.269531-1.789062-.972656-4.246093.679687-5.683593l21.117188-18.066407-43.3125 24.996094c-1.964844 1.117188-4.457031.511719-5.6875-1.382812-1.230469-1.894532-.773438-4.417969 1.042969-5.757813l17.484375-12.699219-34.371094 19.839844c-1.949219 1.109375-4.421875.519532-5.664062-1.347656-1.242188-1.867188-.824219-4.378906.953124-5.742188l50.347657-38.136718-78.34375 45.226562c-1.96875 1.082032-4.441407.449219-5.652344-1.445312-1.207031-1.890625-.742187-4.398438 1.070313-5.730469l58.027343-40.671875-82.878906 47.847656c-1.996094 1.117188-4.523437.457032-5.71875-1.496094-1.195313-1.953124-.636719-4.5 1.265625-5.773437l22.109375-14.269531-37.316406 21.539062c-1.976563 1.074219-4.449219.425782-5.648438-1.480468s-.707031-4.414063 1.117188-5.730469l91.128906-62.003907-119.894531 69.214844c-2 1.101563-4.511719.429688-5.699219-1.519531-1.1875-1.945313-.632813-4.484375 1.261719-5.757813l67.515625-43.34375-87.679688 50.621094c-2.003906 1.101563-4.523437.425782-5.707031-1.53125-1.183594-1.957031-.613281-4.5 1.296875-5.765625l57.90625-36.503906-75.886719 43.800781c-.644531.386719-1.382812.59375-2.132812.605469zm0 0" fill="#e4e8eb"/><path d="m132.460938 454.398438c-1.894532 0-3.5625-1.246094-4.097657-3.066407-.53125-1.816406.199219-3.769531 1.792969-4.792969l109.699219-70.125-134.078125 77.378907c-2.003906 1.140625-4.550782.484375-5.75-1.484375-1.203125-1.964844-.625-4.53125 1.304687-5.792969l139.46875-89.601563-167.816406 96.878907c-2.003906 1.140625-4.550781.484375-5.753906-1.484375-1.199219-1.964844-.621094-4.53125 1.308593-5.792969l142.148438-91.4375-148.113281 85.515625c-2 1.097656-4.511719.429688-5.699219-1.519531s-.632812-4.488281 1.261719-5.761719l121.8125-78.394531-117.375 67.746093c-2 1.101563-4.511719.429688-5.699219-1.519531-1.1875-1.945312-.632812-4.484375 1.261719-5.757812l95.386719-61.441407-90.957032 52.480469c-2.015625 1.160157-4.589844.496094-5.789062-1.5-1.199219-1.992187-.578125-4.578125 1.394531-5.8125l23.472656-14.703125-19.078125 11.007813c-2 1.15625-4.554687.515625-5.769531-1.445313-1.214844-1.964844-.648437-4.539062 1.28125-5.808594l78.429687-51.925781-73.941406 42.667969c-1.988281 1.152344-4.53125.523438-5.753906-1.421875-1.222656-1.941406-.6875-4.507813 1.210938-5.796875l71.75-49.050781-67.207032 38.800781c-1.996094 1.113281-4.515625.460938-5.714844-1.480469-1.199218-1.945312-.65625-4.488281 1.234376-5.773437l25.992187-17.175782-21.511719 12.421876c-1.988281 1.15625-4.53125.527343-5.753906-1.417969-1.222656-1.945313-.6875-4.507813 1.210938-5.800781l28.402343-19.402344-23.894531 13.769531c-1.945312 1.117187-4.421875.539063-5.667969-1.324219-1.25-1.863281-.839843-4.375.933594-5.75l40.105469-30.898437-35.335938 20.359375c-1.949218 1.089844-4.402344.492187-5.636718-1.367188-1.230469-1.855468-.824219-4.351562.933593-5.722656l14.824219-11.230469-10.121094 5.839844c-1.882812 1.109375-4.300781.617187-5.597656-1.140625-1.300781-1.757812-1.0625-4.214844.554688-5.6875l15.445312-14.414062-10.402344 5.972656c-1.585937.914062-3.578125.714844-4.953125-.492188-1.371093-1.210937-1.820312-3.160156-1.117187-4.847656l5.601562-13.339844c-2.066406.484375-4.175781-.625-4.945312-2.601562-.773438-1.976563.023437-4.21875 1.871094-5.265625l9.625-5.546875c1.585937-.914063 3.582031-.71875 4.957031.496094 1.375 1.210937 1.824219 3.167968 1.109375 4.855468l-5.460938 13.039063 31.890625-18.277344c1.882813-1.109375 4.300781-.617187 5.597657 1.140625 1.296874 1.757812 1.058593 4.210938-.554688 5.683594l-15.453125 14.414062 36.777344-21.222656c1.949219-1.109375 4.425781-.519531 5.664062 1.347656 1.242188 1.867188.824219 4.378906-.953125 5.742188l-14.863281 11.164062 31.742187-18.269531c1.945313-1.144531 4.445313-.570313 5.703126 1.300781 1.257812 1.875.835937 4.40625-.957032 5.773438l-40.109375 30.898437 65.785157-37.972656c1.984374-1.132813 4.507812-.503906 5.726562 1.425781 1.21875 1.933594.699219 4.484375-1.179688 5.785156l-28.414062 19.421876 46.128906-26.632813c1.988282-1.070313 4.464844-.410156 5.652344 1.511719 1.1875 1.917968.675781 4.433594-1.171875 5.730468l-26 17.195313 42.34375-24.4375c1.980469-1.101563 4.476563-.464844 5.683594 1.453125s.703125 4.445312-1.144531 5.757812l-71.792969 49.074219 97.519531-56.320312c1.992188-1.097657 4.492188-.445313 5.691406 1.488281 1.195313 1.933594.667969 4.464844-1.203125 5.757812l-78.402343 51.90625 102.476562-59.117187c2.003906-1.085937 4.511719-.402344 5.6875 1.550781 1.175781 1.957032.605469 4.488282-1.292969 5.753906l-23.542969 14.761719 38.21875-22.066406c1.996094-1.085937 4.492188-.414063 5.675782 1.523437s.644531 4.464844-1.230469 5.746094l-95.359375 61.441406 119.050781-68.710937c2-1.101563 4.507813-.433594 5.699219 1.515625 1.1875 1.949219.628906 4.488281-1.261719 5.761719l-121.859375 78.386719 148.480469-85.664063c2-1.101563 4.511719-.433594 5.699219 1.515625s.632812 4.488281-1.261719 5.761719l-142.148437 91.445312 170.34375-98.339843c2-1.101563 4.511718-.429688 5.699218 1.519531 1.1875 1.945312.632813 4.484375-1.261718 5.757812l-139.390626 89.542969 141.746094-81.84375c2.003906-1.121094 4.535156-.453125 5.726563 1.507812 1.191406 1.960938.617187 4.515626-1.296875 5.78125l-109.722656 70.160157 105.292968-60.792969c2.003906-1.042969 4.472656-.34375 5.632813 1.597656 1.160156 1.9375.605469 4.445313-1.265625 5.714844l-9.957032 6.164062 5.589844-3.21875c2.003906-1.085937 4.511719-.402343 5.6875 1.550782 1.175782 1.957031.605469 4.492187-1.292968 5.753906l-34.910157 21.914062 30.523438-17.621093c2-1.136719 4.535156-.484375 5.742187 1.472656 1.203125 1.957031.644532 4.515625-1.269531 5.789063l-76.800781 50.347656 72.371094-41.816406c1.980468-1.101563 4.476562-.460938 5.683593 1.457031s.707031 4.445312-1.144531 5.753906l-79.359375 54.246094 74.8125-43.1875c1.996094-1.15625 4.550781-.515625 5.765625 1.449219 1.214844 1.960937.648438 4.535156-1.277344 5.804687l-34.109375 22.570313 29.585938-17.066407c1.992187-1.132812 4.527343-.488281 5.734375 1.460938 1.210937 1.945312.664062 4.5-1.238282 5.785156l-19.105468 12.730469 14.609375-8.429688c1.941406-1.085937 4.390625-.5 5.628906 1.347656 1.238281 1.847657.851563 4.335938-.894531 5.71875l-46.855469 36.238282 42.121094-24.316406c1.902343-1.09375 4.320312-.5625 5.59375 1.222656 1.273437 1.785156.988281 4.242187-.660157 5.6875l-30.96875 26.949218 26.035157-15.019531c1.8125-1.035156 4.109375-.609375 5.425781 1.007813 1.320312 1.621094 1.273438 3.957031-.109375 5.519531l-15.460937 17.304687 10.144531-5.84375c1.769531-1.011718 4.007812-.632812 5.34375.90625 1.335937 1.539063 1.394531 3.808594.144531 5.417969l-2.824219 3.589844c1.816407.230469 3.285157 1.59375 3.648438 3.390625.363281 1.792969-.460938 3.621094-2.046875 4.539062l-15.035156 8.660157c-1.769532 1.023437-4.015626.648437-5.355469-.894531-1.339844-1.542969-1.398438-3.820313-.140625-5.429688l1.402344-1.765625-14.03125 8.089844c-1.8125 1.035156-4.109376.609375-5.425782-1.007813-1.316406-1.621094-1.273437-3.953125.109375-5.519531l15.453125-17.3125-41.300781 23.839844c-1.898437 1.085937-4.3125.558593-5.585937-1.21875-1.273438-1.78125-.996094-4.238281.644531-5.683594l30.953125-26.921875-58.617188 33.824219c-1.941406 1.085937-4.390625.5-5.628906-1.347657-1.238281-1.847656-.847656-4.335937.894531-5.71875l46.871094-36.230468-75.089844 43.324218c-1.988281 1.082032-4.476562.429688-5.671875-1.492187-1.191406-1.925781-.679687-4.445313 1.171875-5.746094l19.105469-12.730469-34.550781 19.941407c-1.988281 1.097656-4.492188.445312-5.6875-1.488281-1.199219-1.933594-.667969-4.464844 1.199219-5.757813l34.058593-22.558594-51.636719 29.804688c-1.980468 1.101562-4.476562.460937-5.683593-1.457031-1.207031-1.914063-.707031-4.441407 1.144531-5.753907l79.359375-54.238281-106.46875 61.449219c-1.992187 1.082031-4.484375.421875-5.671875-1.507813-1.191406-1.929687-.664062-4.453125 1.199219-5.746094l76.800781-50.34375-99.722656 57.597657c-2.003906 1.085937-4.511719.402343-5.6875-1.550781-1.175782-1.957032-.605469-4.488282 1.292968-5.753907l34.910157-21.914062-50.636719 29.21875c-2.007812 1.074219-4.5.378906-5.671875-1.570313-1.167969-1.953125-.597656-4.480468 1.292969-5.742187l10.0625-6.230469-23.433594 13.542969c-.644531.386719-1.378906.597656-2.132812.605469zm0 0" fill="#e4e8eb"/><path d="m140.851562 121.597656c-1.746093.003906-3.320312-1.054687-3.96875-2.675781-.652343-1.621094-.25-3.472656 1.015626-4.679687l21.597656-20.675782-36.695313 21.148438c-1.945312 1.125-4.433593.542968-5.683593-1.328125-1.246094-1.871094-.828126-4.390625.957031-5.757813l14.625-11.175781-10.433594 6.023437c-1.929687 1.09375-4.378906.527344-5.632813-1.304687-1.25-1.832031-.886718-4.320313.835938-5.71875l23.816406-19.054687-18.976562 10.972656c-1.9375 1.089844-4.382813.511718-5.625-1.324219-1.246094-1.835937-.875-4.320313.851562-5.714844l21.410156-16.90625-16.636718 9.609375c-1.902344 1.074219-4.308594.539063-5.574219-1.238281s-.988281-4.226563.648437-5.671875l33.910157-29.371094-29.011719 16.730469c-1.925781 1.074219-4.351562.5-5.597656-1.320313-1.242188-1.816406-.894532-4.285156.800781-5.691406l10.113281-8.082031-5.273437 3.039063c-1.761719 1.003906-3.992188.628906-5.328125-.898438-1.335938-1.527344-1.410156-3.789062-.175782-5.398438l10.667969-13.816406-5.164062 2.96875c-1.523438.878906-3.425781.730469-4.796875-.367187-1.371094-1.097657-1.929688-2.921875-1.40625-4.597657l1.953125-6.246093c-.652344-.386719-1.195313-.929688-1.578125-1.582031-1.179688-2.035157-.492188-4.644532 1.542968-5.828126l4.269532-2.472656c1.523437-.886718 3.433594-.742187 4.808594.359375 1.375 1.101563 1.933593 2.933594 1.402343 4.613281l-1.023437 3.269532 14.421875-8.3125c1.761719-1.015625 4-.644532 5.339843.886718 1.339844 1.53125 1.410157 3.796876.171876 5.414063l-10.660157 13.804687 34.988281-20.222656c1.929688-1.117187 4.398438-.558594 5.65625 1.285156 1.261719 1.839844.890626 4.339844-.851562 5.738282l-10.113281 8.105468 19.347656-11.144531c1.902344-1.09375 4.328125-.5625 5.601563 1.226563 1.273437 1.789062.980468 4.253906-.679688 5.695312l-33.902344 29.351563 29.011719-16.730469c1.933594-1.089844 4.378906-.511719 5.625 1.324219 1.246094 1.835937.875 4.320312-.855469 5.714843l-21.433594 16.902344 16.640626-9.605468c1.929687-1.097657 4.378906-.53125 5.628906 1.300781 1.25 1.835937.890625 4.320312-.835938 5.71875l-23.890625 19.082031 19.054688-10.992188c1.945312-1.101562 4.410156-.511718 5.652343 1.347657 1.238282 1.863281.832032 4.363281-.933593 5.738281l-14.585938 11.175781 9.910157-5.714843c1.867187-1.066407 4.238281-.574219 5.527343 1.148437 1.289063 1.71875 1.097657 4.132813-.453125 5.625l-21.578125 20.683594 16.503907-9.519531c1.796874-1.066407 4.101562-.652344 5.417968.972656 1.328125 1.601562 1.304688 3.925781-.050781 5.503906l-6.980469 8.070312 1.613282-.929687c2.023437-1.058594 4.527343-.335937 5.671874 1.644531 1.144532 1.980469.523438 4.511719-1.40625 5.738282l-23.476562 13.53125c-1.800781 1.039062-4.089844.628906-5.414062-.972657-1.328126-1.601562-1.308594-3.925781.046874-5.503906l6.980469-8.078125-25.25 14.554688c-.636719.386718-1.363281.597656-2.105469.605468zm0 0" fill="#a9b0bb"/><g fill="#262626"><path d="m369.738281 2.960938h-273.289062c-29.121094-2.132813-85.230469-10.640626-93.644531 16.339843-5.648438 18.101563 0 47.164063 0 65.902344v374.101563c0 9.847656-4.769532 34.578124 3.722656 42.609374 8.90625 8.414063 37.546875 2.910157 47.5625 2.910157h362.789062c9.53125 0 29.582032 3.359375 37.671875-4.566407 10.242188-10.078124 4.351563-40.105468 4.351563-52.25v-357.101562c.011718-.074219.011718-.148438 0-.222656v-.359375c-.039063-.507813-.371094-.949219-.851563-1.125-24.542969-24.550781-48.726562-49.496094-73.675781-73.667969-3.261719-3.414062-6.878906-6.464844-10.796875-9.097656v-.503906c0-2.109376-1.882813-2.96875-3.839844-2.96875zm-8.53125 18.441406c-1.140625 18.089844-1.140625 36.230468 0 54.320312 0 12.46875 8.53125 72.21875-.804687 80.835938-8.839844 8.175781-62.761719 0-74.402344 0h-135.855469c-13.851562 0-77.1875 9.25-83.765625-6.484375v-88.226563c0-14.351562 3.890625-34.796875 0-48.640625-.292968-1.097656-.839844-2.109375-1.59375-2.960937l.460938.070312c15.886718 1.824219 32.082031 2.746094 48.425781 3.199219-.1875 30.386719-1.828125 61.234375.066406 91.496094.699219 11.3125 4.214844 14.617187 15.898438 15.300781 15.691406.910156 31.675781 0 47.402343 0 .164063 0 .375-.0625.554688-.078125.308594 0 .675781-.101563 1.023438-.152344h.0625c.527343-.070312 1.050781-.171875 1.570312-.300781 20.1875-5.460938 14.113281-27.304688 14.113281-44.289062v-62.828126c29.429688-1.042968 58.726563-2.332031 87.175781-2.332031 2.746094 0 5.972657-.179687 9.515626-.441406h31.273437c18.039063 0 29.636719-2.015625 39.382813 2.074219-.007813 3.152344-.183594 6.300781-.523438 9.4375zm-179.199219-5.121094c-2.886718 17.066406 0 36.785156 0 54.101562 0 4.136719 3.539063 39.703126-2.136718 44.433594h-39.15625c-15.917969 0-14.617188-9.746094-14.617188-22.65625v-78.386718c18.59375.21875 37.332032-.121094 56.078125-.710938.050781 1.082031-.007812 2.164062-.167969 3.234375zm264.53125 77.601562v379.195313c0 15.003906 3.558594 20.914063-7.679687 25.257813-18.433594 7.152343-54.316406 0-73.863281 0h-245.566406c-27.644532 0-56.652344 2.5625-84.195313 0-15.019531-1.371094-17.316406 0-20.070313-15.128907-4.125-22.664062 0-50.003906 0-72.984375v-345.90625c0-10.003906-5.640624-41.449218 0-50.289062 4.496094-7.054688 24.507813-5.503906 38.824219-4.574219v142.371094c-.203125.496093-.203125 1.050781 0 1.542969 9.199219 22.230468 69.199219 10.566406 87.578125 10.566406h180.257813c21.742187 0 46.3125 6.765625 51.753906-18.289063 4.933594-22.695312 0-52.382812 0-75.535156v-49.167969c24.316406 24.300782 48.636719 48.621094 72.960937 72.957032zm0 0"/><path d="m170.886719 259.703125c-30.15625 0-69.8125-6.972656-99.320313 0-24.96875 5.90625-17.558594 28.355469-17.558594 49.996094v73.726562c0 14.277344-5.921874 45.226563 0 58.710938 7.738282 17.605469 31.964844 11.1875 49.21875 11.1875h287.199219c.691407-.035157 1.378907-.160157 2.039063-.375.953125-.089844 1.886718-.3125 2.78125-.65625 24.261718-10.046875 12.441406-59.574219 12.441406-80.472657v-75.5625c0-7.984374 3.59375-27.398437-3.667969-33.773437-13.152343-11.535156-59.359375-2.78125-74.300781-2.78125zm224.425781 13.652344c5.121094 9.984375 0 36.632812 0 47.574219 0 14.984374 10.242188 113.878906-3.113281 126.472656h-205.140625c-33.066406 0-71.363282 5.425781-104.039063 0-10.898437-1.808594-11.09375 2.953125-16.65625-9.386719-4.726562-10.566406 0-34.585937 0-45.953125v-66.5c0-13.824219-4.8125-38.160156 0-51.257812 4.265625-11.667969-1.316406-6.070313 11.542969-8.714844 14.570312-1.371094 29.234375-1.371094 43.804688 0h251.347656c10.921875 0 16.742187-2.902344 22.28125 7.800781zm0 0"/><path d="m347.757812 316.621094h17.066407c3.046875.101562 6.007812-1 8.242187-3.074219 1.511719-2.261719-1.3125-2.480469-3.035156-2.480469h-17.066406c-3.046875-.101562-6.011719 1.003906-8.246094 3.078125-1.550781 2.261719 1.273438 2.476563 3.039062 2.476563zm0 0"/><path d="m144.902344 318.113281h170.667968c6.878907 0 9.652344-8.53125 1.226563-8.53125h-170.664063c-6.878906 0-9.652343 8.53125-1.230468 8.53125zm0 0"/><path d="m90.351562 316.527344h17.066407c3.085937.140625 6.140625-.679688 8.746093-2.347656 1.707032-1.28125 1.851563-3.011719-.8125-3.011719h-17.066406c-3.085937-.140625-6.144531.679687-8.746094 2.347656-1.699218 1.277344-1.851562 3.011719.8125 3.011719zm0 0"/><path d="m347.84375 359.746094h17.066406c3.074219.179687 6.070313-1 8.191406-3.234375 1.492188-2.386719-1.289062-3.207031-3.242187-3.207031h-17.066406c-3.078125-.171876-6.074219 1.019531-8.191407 3.261718-1.496093 2.363282 1.289063 3.179688 3.242188 3.179688zm0 0"/><path d="m313.574219 359.253906c3.667969 0 13.414062-5.480468 5.222656-5.480468h-170.667969c-3.667968 0-13.414062 5.480468-5.222656 5.480468zm0 0"/><path d="m92.011719 360.394531h17.070312c3.132813.292969 6.195313-1.042969 8.121094-3.53125 1.296875-2.507812-1.125-4.265625-3.515625-4.265625h-17.066406c-3.132813-.289062-6.199219 1.042969-8.125 3.53125-1.296875 2.542969 1.128906 4.265625 3.515625 4.265625zm0 0"/><path d="m348.097656 403.378906h17.066406c3.164063.355469 6.265626-1.050781 8.082032-3.660156 1.210937-2.5625-1.058594-4.738281-3.644532-4.738281h-17.066406c-3.160156-.351563-6.261718 1.050781-8.078125 3.660156-1.214843 2.554687 1.054688 4.738281 3.640625 4.738281zm0 0"/><path d="m313.625 402.167969c3.976562 0 13.335938-5.972657 5.121094-5.972657h-170.667969c-3.976563 0-13.339844 5.972657-5.121094 5.972657zm0 0"/><path d="m113.621094 395.050781h-17.066406c-3.15625-.339843-6.25 1.050781-8.089844 3.632813-1.230469 2.5625 1.074218 4.625 3.617187 4.625h17.066407c3.15625.339844 6.246093-1.050782 8.089843-3.632813 1.230469-2.542969-1.074219-4.625-3.617187-4.625zm0 0"/></g></svg>