<svg id="Icons" height="512" viewBox="0 0 60 60" width="512" xmlns="http://www.w3.org/2000/svg"><g fill="#fcc10a"><path d="m24.66 59.471a.5.5 0 0 1 -.307-.895l2.747-2.145-4.551 2.629a.5.5 0 0 1 -.549-.832l2.015-1.514-1.733 1a.5.5 0 0 1 -.585-.8l1.955-1.761-1.37.79a.5.5 0 0 1 -.735-.553l.393-1.579a.5.5 0 0 1 -.159-.924l.638-.369a.5.5 0 0 1 .736.553l-.355 1.414 4.465-2.578a.5.5 0 0 1 .585.8l-1.956 1.763 4.786-2.763a.5.5 0 0 1 .55.832l-2.011 1.511 3.607-2.082a.5.5 0 0 1 .558.827l-2.754 2.151 4.639-2.676a.5.5 0 0 1 .576.811l-3.247 2.8 5.122-2.957a.5.5 0 0 1 .569.817l-2.208 1.828 1.64-.946a.5.5 0 0 1 .647.736l-1.474 1.933.827-.477a.5.5 0 0 1 .5.865l-2.99 1.72a.5.5 0 0 1 -.647-.736l1.475-1.932-4.623 2.668a.5.5 0 0 1 -.57-.817l2.21-1.83-4.586 2.647a.5.5 0 0 1 -.576-.811l3.247-2.8-6.251 3.611a.493.493 0 0 1 -.25.071z"/><path d="m50.983 59.471a.5.5 0 0 1 -.3-.9l.765-.563-2.424 1.4a.5.5 0 0 1 -.56-.824l2.54-2.012-4.904 2.828a.5.5 0 0 1 -.567-.819l3.3-2.7-5.363 3.1a.5.5 0 0 1 -.54-.84l.327-.233a.5.5 0 0 1 -.581-.8l2.393-2.478-1.789 1.03a.5.5 0 0 1 -.731-.567l.361-1.293a.5.5 0 0 1 -.131-.918l.638-.369a.5.5 0 0 1 .732.567l-.307 1.1 3.805-2.2a.5.5 0 0 1 .61.781l-2.395 2.479 6.068-3.5a.5.5 0 0 1 .54.84l-.316.225 1.484-.857a.5.5 0 0 1 .566.82l-3.3 2.7 5.518-3.185a.5.5 0 0 1 .56.824l-2.54 2.012 4.279-2.47a.5.5 0 0 1 .547.835l-.765.564.219-.126a.5.5 0 0 1 .611.778l-1.991 2.08 1.38-.8a.5.5 0 0 1 .654.728l-.5.689a.5.5 0 0 1 .35.923l-1.866 1.08a.5.5 0 0 1 -.654-.727l.466-.638-2.366 1.365a.5.5 0 0 1 -.612-.778l1.993-2.081-4.954 2.859a.493.493 0 0 1 -.25.071z"/><path d="m4.3 59.471a.5.5 0 0 1 -.3-.9l2.265-1.725-4.297 2.481a.5.5 0 0 1 -.542-.839l1.065-.764-1.211.7a.5.5 0 0 1 -.58-.811l2.773-2.424-2.193 1.266a.5.5 0 0 1 -.593-.8l.55-.517a.5.5 0 0 1 -.676-.627l.271-.74a.491.491 0 0 1 -.232-.205.5.5 0 0 1 .181-.683l.638-.369a.5.5 0 0 1 .721.6l-.163.445 2.474-1.428a.5.5 0 0 1 .593.8l-.542.509 2.905-1.676a.5.5 0 0 1 .579.808l-2.774 2.428 5.479-3.163a.5.5 0 0 1 .542.839l-1.069.767 2.392-1.379a.5.5 0 0 1 .552.83l-2.266 1.726 3.958-2.286a.5.5 0 0 1 .566.82l-2.8 2.29 4.16-2.4a.5.5 0 0 1 .593.8l-2.721 2.578 2.129-1.229a.5.5 0 0 1 .628.76l-.956 1.106.328-.19a.5.5 0 0 1 .5.865l-2.9 1.673a.5.5 0 0 1 -.628-.759l.955-1.1-3.234 1.852a.5.5 0 0 1 -.594-.8l2.723-2.579-5.849 3.379a.5.5 0 0 1 -.566-.82l2.805-2.291-5.388 3.111a.493.493 0 0 1 -.251.071z"/></g><path d="m3.24 53.5a.5.5 0 0 1 -.3-.9l6-4.445-7.66 4.419a.5.5 0 0 1 -.672-.165.5.5 0 0 1 .137-.679l4.326-3-3.791 2.187a.5.5 0 0 1 -.539-.84l4.422-3.14-3.884 2.242a.5.5 0 0 1 -.531-.847l1.007-.684-.476.275a.5.5 0 0 1 -.559-.823l5.392-4.245-4.833 2.79a.5.5 0 0 1 -.539-.845l1.154-.816-.615.355a.5.5 0 0 1 -.564-.821l3.551-2.874-2.987 1.726a.5.5 0 0 1 -.617-.77l2.3-2.486-1.682.971a.5.5 0 0 1 -.7-.643l.585-1.26a.52.52 0 0 1 -.477-.248.5.5 0 0 1 .182-.683l1.124-.651a.5.5 0 0 1 .7.642l-.55 1.188 3.174-1.83a.5.5 0 0 1 .618.772l-2.3 2.486 5.644-3.258a.5.5 0 0 1 .565.821l-3.545 2.87 4.524-2.612a.5.5 0 0 1 .539.841l-1.156.817 1.444-.833a.5.5 0 0 1 .559.825l-5.396 4.244 6.277-3.624a.5.5 0 0 1 .531.847l-1.008.684 1.274-.735a.5.5 0 0 1 .539.84l-4.427 3.142 4.986-2.879a.5.5 0 0 1 .535.843l-4.327 3 4.843-2.8a.5.5 0 0 1 .548.834l-6 4.443 6.133-3.54a.5.5 0 0 1 .544.837l-3.223 2.344 2.684-1.548a.5.5 0 0 1 .568.818l-2.975 2.451 2.413-1.393a.5.5 0 0 1 .576.812l-1.021.872.45-.26a.5.5 0 0 1 .6.79l-.37.364a.46.46 0 0 1 .333.1.5.5 0 0 1 .174.531l-.25.879a.491.491 0 0 1 .206.2.5.5 0 0 1 -.183.682l-.5.289a.5.5 0 0 1 -.731-.569l.16-.564-1.973 1.145a.5.5 0 0 1 -.6-.79l.213-.209-1.737 1a.5.5 0 0 1 -.575-.812l1.019-.871-2.92 1.691a.5.5 0 0 1 -.569-.818l2.976-2.452-5.674 3.276a.5.5 0 0 1 -.544-.837l3.223-2.345-5.522 3.188a.491.491 0 0 1 -.25.071z" fill="#d6dbe3"/><path d="m13.878 44.471a.5.5 0 0 1 -.469-.675l.343-.919-2.6 1.5a.5.5 0 0 1 -.666-.711l1.21-1.808-1.418.819a.5.5 0 0 1 -.65-.733l.749-1-.1.057a.5.5 0 0 1 -.681-.685l.416-.714a.5.5 0 0 1 -.481-.565l.16-1.224a.469.469 0 0 1 -.1-.119.5.5 0 0 1 .181-.683l.235-.136a.5.5 0 0 1 .747.5l-.1.79.41-.236a.5.5 0 0 1 .682.684l-.34.584.594-.341a.5.5 0 0 1 .65.733l-.75 1 1.162-.67a.5.5 0 0 1 .666.711l-1.211 1.809 1.943-1.122a.5.5 0 0 1 .719.608l-.343.918.729-.421a.5.5 0 0 1 .7.218l.3.641a.5.5 0 0 1 .388.914l-.353.205a.506.506 0 0 1 -.4.044.494.494 0 0 1 -.3-.262l-.3-.628-1.466.846a.5.5 0 0 1 -.256.071z" fill="#b9bfcc"/><path d="m24.085 53.5a.5.5 0 0 1 -.283-.912l2.95-2.023-4.472 2.577a.5.5 0 0 1 -.548-.835l7.091-5.248-6.543 3.777a.5.5 0 0 1 -.532-.846l2.394-1.635-1.863 1.075a.5.5 0 0 1 -.535-.844l2.5-1.735-1.965 1.133a.5.5 0 0 1 -.536-.842l1.93-1.348-1.394.8a.5.5 0 0 1 -.54-.84l1.954-1.389-1.414.816a.5.5 0 0 1 -.54-.84l1.2-.858-.663.383a.5.5 0 0 1 -.561-.824l2.8-2.232-2.242 1.294a.5.5 0 0 1 -.618-.771l2.067-2.233-1.443.833a.5.5 0 0 1 -.7-.654l.539-1.1h-.005a.5.5 0 0 1 -.25-.933l1.129-.651a.5.5 0 0 1 .7.653l-.488.993 2.854-1.641a.5.5 0 0 1 .618.771l-2.062 2.239 5.215-3.01a.5.5 0 0 1 .562.824l-2.8 2.23 3.932-2.27a.5.5 0 0 1 .541.84l-1.21.862 1.5-.868a.5.5 0 0 1 .541.84l-1.951 1.386 2.306-1.331a.5.5 0 0 1 .536.843l-1.927 1.344 2.271-1.311a.5.5 0 0 1 .535.844l-2.508 1.741 2.89-1.668a.5.5 0 0 1 .532.846l-2.379 1.627 2.738-1.579a.5.5 0 0 1 .548.835l-7.093 5.25 8.007-4.627a.5.5 0 0 1 .534.845l-2.949 2.022 2.736-1.579a.5.5 0 0 1 .537.842l-2.158 1.512 1.624-.937a.5.5 0 0 1 .568.818l-3.359 2.773 2.8-1.616a.5.5 0 0 1 .612.779l-1.989 2.083 1.385-.8a.5.5 0 0 1 .654.729l-.5.675a.5.5 0 0 1 .348.923l-1.869 1.079a.5.5 0 0 1 -.653-.728l.457-.622-2.349 1.355a.5.5 0 0 1 -.611-.778l1.989-2.081-4.965 2.866a.5.5 0 0 1 -.568-.818l3.36-2.774-6.232 3.6a.5.5 0 0 1 -.537-.842l2.157-1.515-4.09 2.362a.494.494 0 0 1 -.247.069z" fill="#d6dbe3"/><path d="m34.04 44.471a.5.5 0 0 1 -.425-.765l.436-.7-2.222 1.282a.5.5 0 0 1 -.654-.727l1.241-1.708-1.136.656a.5.5 0 0 1 -.642-.742l.6-.758a.5.5 0 0 1 -.615-.742l.314-.452a.474.474 0 0 1 -.178-.072.5.5 0 0 1 -.223-.475l.169-1.45a.473.473 0 0 1 -.1-.126.5.5 0 0 1 .181-.683l.235-.136a.5.5 0 0 1 .748.49l-.12 1.031.568-.328a.5.5 0 0 1 .66.719l-.155.215.266-.153a.5.5 0 0 1 .643.742l-.594.753.917-.53a.5.5 0 0 1 .654.727l-1.241 1.709 1.916-1.106a.5.5 0 0 1 .675.7l-.436.7.734-.423a.492.492 0 0 1 .434-.032.5.5 0 0 1 .294.321l.246.818.084-.049a.5.5 0 1 1 .5.867l-.631.364a.508.508 0 0 1 -.435.032.5.5 0 0 1 -.294-.322l-.245-.817-1.919 1.099a.49.49 0 0 1 -.25.071z" fill="#b9bfcc"/><path d="m45.211 53.5a.5.5 0 0 1 -.3-.9l5.905-4.356-7.536 4.347a.5.5 0 0 1 -.527-.849l1.588-1.059-1.061.617a.5.5 0 0 1 -.529-.848l1.5-1.005-.972.553a.5.5 0 0 1 -.553-.829l6.09-4.669-5.537 3.2a.5.5 0 0 1 -.543-.838l3.3-2.393-2.76 1.594a.5.5 0 0 1 -.541-.839l1.874-1.341-1.333.769a.5.5 0 0 1 -.551-.831l2.751-2.082-2.2 1.271a.5.5 0 0 1 -.553-.83l1.091-.834-.538.31a.5.5 0 0 1 -.637-.749l1.7-2.077-1.06.611a.5.5 0 0 1 -.675-.694l.36-.587a.5.5 0 0 1 -.1-.909l1.129-.651a.5.5 0 0 1 .676.694l-.181.3 1.712-.996a.5.5 0 0 1 .631.108.5.5 0 0 1 .007.641l-1.7 2.076 4.9-2.826a.5.5 0 0 1 .554.83l-1.094.835 2.462-1.421a.5.5 0 0 1 .552.831l-2.752 2.082 3.254-1.879a.5.5 0 0 1 .541.839l-1.873 1.34 2.226-1.285a.5.5 0 0 1 .543.837l-3.307 2.392 3.805-2.2a.5.5 0 0 1 .554.829l-6.089 4.671 6.994-4.037a.5.5 0 0 1 .529.847l-1.491 1 1.784-1.03a.5.5 0 0 1 .528.849l-1.584 1.056 1.878-1.084a.5.5 0 0 1 .547.835l-5.907 4.364 6.031-3.482a.5.5 0 0 1 .539.84l-2.513 1.785 1.979-1.143a.5.5 0 0 1 .558.826l-2.686 2.114 2.137-1.233a.5.5 0 0 1 .611.779l-2.112 2.2 1.509-.87a.5.5 0 0 1 .6.077.5.5 0 0 1 .084.6l-.593 1.05a.5.5 0 0 1 .413.905l-1.489.859a.5.5 0 0 1 -.686-.678l.584-1.035-2.977 1.719a.5.5 0 0 1 -.611-.779l2.111-2.2-5.166 2.982a.5.5 0 0 1 -.559-.826l2.692-2.113-5.1 2.945a.5.5 0 0 1 -.539-.84l2.506-1.782-4.554 2.629a.491.491 0 0 1 -.25.071z" fill="#d6dbe3"/><path d="m54.274 44.471a.493.493 0 0 1 -.345-.14.5.5 0 0 1 -.1-.592l.8-1.531-2.32 1.34a.5.5 0 0 1 -.665-.713l1.208-1.786-.575.332a.5.5 0 0 1 -.722-.6l.572-1.645a.5.5 0 0 1 -.592-.576l.134-.769a.522.522 0 0 1 -.074-.1.5.5 0 0 1 .181-.683l.235-.136a.5.5 0 0 1 .743.519l-.05.285.072-.041a.5.5 0 0 1 .723.6l-.559 1.609 1.294-.747a.5.5 0 0 1 .664.713l-1.205 1.79 1.93-1.115a.5.5 0 0 1 .693.665l-.8 1.532 1.461-.843a.5.5 0 0 1 .68.18l.749 1.274.016-.01a.5.5 0 0 1 .5.867l-.445.257a.5.5 0 0 1 -.681-.18l-.749-1.275-2.523 1.448a.49.49 0 0 1 -.25.071z" fill="#b9bfcc"/><path d="m24.17 23.471a.5.5 0 0 1 -.312-.892l3.079-2.449-4.566 2.636a.5.5 0 0 1 -.558-.828l2.387-1.859-1.92 1.107a.5.5 0 0 1 -.562-.824l.443-.354a.5.5 0 0 1 -.616-.6l.395-1.6a.505.505 0 0 1 -.342-.242.5.5 0 0 1 .181-.683l.638-.369a.5.5 0 0 1 .736.552l-.353 1.439 4.508-2.6a.5.5 0 0 1 .562.824l-.355.284 2.41-1.392a.5.5 0 0 1 .557.827l-2.392 1.862 4.17-2.41a.5.5 0 0 1 .561.825l-3.078 2.448 5.121-2.956a.5.5 0 0 1 .56.825l-2.574 2.03 4.435-2.56a.5.5 0 0 1 .587.8l-3.19 2.905 3.039-1.754a.5.5 0 0 1 .613.775l-1.5 1.588.884-.51a.5.5 0 0 1 .657.724l-.375.529a.5.5 0 0 1 .2.93l-1.564.9a.5.5 0 0 1 -.658-.723l.243-.338-1.839 1.062a.5.5 0 0 1 -.613-.775l1.5-1.588-4.099 2.363a.5.5 0 0 1 -.587-.8l3.19-2.9-6.421 3.7a.5.5 0 0 1 -.56-.825l2.574-2.03-4.946 2.855a.493.493 0 0 1 -.25.071z" fill="#fcc10a"/><path d="m24.567 17.5a.5.5 0 0 1 -.3-.9l6.033-4.513-8.02 4.631a.5.5 0 0 1 -.529-.847l2.593-1.749-2.064 1.191a.5.5 0 0 1 -.551-.833l6.5-4.905-5.952 3.437a.5.5 0 0 1 -.549-.834l4.872-3.626-4.323 2.5a.5.5 0 0 1 -.558-.826l4.8-3.759-4.245 2.45a.5.5 0 0 1 -.57-.816l4.385-3.653-3.815 2.2a.5.5 0 0 1 -.581-.808l2.13-1.88-1.549.894a.5.5 0 0 1 -.605-.785l.732-.74-.127.073a.5.5 0 0 1 -.674-.7l.345-.549a.494.494 0 0 1 -.267-.221.5.5 0 0 1 .182-.683l1.134-.649a.5.5 0 0 1 .674.7l-.147.232 1.614-.932a.5.5 0 0 1 .6.784l-.733.74 2.648-1.524a.5.5 0 0 1 .581.807l-2.131 1.877 4.549-2.625a.5.5 0 0 1 .571.817l-4.384 3.651 5.346-3.086a.5.5 0 0 1 .558.826l-4.805 3.761 5.6-3.233a.5.5 0 0 1 .549.834l-4.867 3.623 5.564-3.212a.5.5 0 0 1 .551.832l-6.5 4.9 7.409-4.272a.5.5 0 0 1 .53.846l-2.598 1.754 2.959-1.708a.5.5 0 0 1 .549.833l-6.035 4.509 6.077-3.508a.5.5 0 0 1 .565.821l-4.658 3.8 4.1-2.367a.5.5 0 0 1 .588.8l-2.606 2.386 2.026-1.17a.5.5 0 0 1 .616.774l-.931.994.32-.184a.5.5 0 0 1 .734.56l-.265.994a.5.5 0 0 1 .037.885l-.5.289a.5.5 0 0 1 -.733-.56l.186-.7-2.194 1.266a.5.5 0 0 1 -.615-.774l.932-1-3.076 1.775a.5.5 0 0 1 -.588-.8l2.605-2.383-5.529 3.192a.5.5 0 0 1 -.565-.82l4.661-3.8-8.015 4.627a.491.491 0 0 1 -.251.069z" fill="#d6dbe3"/><path d="m34.109 8.471a.5.5 0 0 1 -.409-.781l.323-.474-1.971 1.134a.5.5 0 0 1 -.661-.717l1.215-1.757-1.326.766a.5.5 0 0 1 -.663-.715l.847-1.239-.184.106a.5.5 0 0 1 -.7-.65l.426-.878a.5.5 0 0 1 -.259-.087.5.5 0 0 1 -.211-.491l.143-.887a.5.5 0 0 1 .1-.789l.235-.136a.5.5 0 0 1 .745.512l-.069.42.164-.094a.5.5 0 0 1 .7.65l-.364.75.675-.389a.5.5 0 0 1 .663.714l-.845 1.238 1.353-.777a.5.5 0 0 1 .661.716l-1.217 1.755 1.92-1.109a.5.5 0 0 1 .664.713l-.321.474.536-.309a.5.5 0 0 1 .682.18l.566.973a.5.5 0 0 1 .428.9l-.355.207a.5.5 0 0 1 -.682-.181l-.563-.967-1.996 1.148a.49.49 0 0 1 -.25.071z" fill="#b9bfcc"/><path d="m59.731 44.444a.311.311 0 0 0 -.007-.224c-.033-.079-.085-.158-.122-.237.15-.2.127-.384-.218-.423-1.191-2.095-3.747-4.072-5.423-5.574a6.836 6.836 0 0 0 -1.233-.907v-.156c0-.027-.015-.042-.02-.066s.016-.033.016-.051c0-1.914.8-5.637-1.137-6.88-.919-.59-2.651-.332-3.659-.332h-17.2v-6.24c2.04.118 4.578.466 6.343-.1 2.326-.745 1.656-2.9 1.656-4.97v-10.064c-.047-.108-.117-.22-.171-.32.157-.115.187-.21-.091-.21h-.018c-1.15-2.11-3.792-4.144-5.471-5.646a6.02 6.02 0 0 0 -1.252-.891v-.347c0-.17-.562-.15-.986 0a16.138 16.138 0 0 0 -3.2-.12c-1.266 0-4.808-.63-5.9.649-1 1.165-.357 4.219-.357 5.547v11.35c0 1.678-.681 4.3 1.133 5.067 1.682.714 4.885.12 6.866.037v6.261h-.956c-5.7 0-11.581-.411-17.274 0-4.285.31-3.856 3.352-3.779 6.839h-.134c-1.584 0-5.355-.793-6.542.758-.995 1.306-.332 4.454-.332 5.914v11.311c0 1.174-.51 3.845.548 4.765 1.342 1.167 5.336.384 6.831.384 2.344 0 6.158.752 8.4-.017 2.325-.8 1.692-3.029 1.692-5.118v-9.942a.393.393 0 0 0 -.013-.271c-.013-.032-.034-.062-.048-.094l-.009-.016c-.017-.04-.042-.079-.06-.118.152-.213.124-.414-.234-.453-1.151-1.991-3.486-3.643-5.039-5.2a8.136 8.136 0 0 0 -1.6-1.316v-.1c0-.448-.607-.494-1.039-.318a5.877 5.877 0 0 0 -.974-.143c-.067-1.876-.585-5.168 1.2-6.062.813-.407 2.951 0 3.832 0h15.525v6.147c-.513-.007-1.085.007-1.771.007-1.381 0-4.786-.671-5.89.7-1 1.246-.341 4.465-.341 5.884v11.318c0 1.488-.532 3.822.8 4.765 1.472 1.041 5.582.219 7.215.219 2.241 0 5.544.635 7.719-.026 2.36-.716 1.719-2.945 1.719-5.018v-9.989a.247.247 0 0 0 0-.187c-.032-.079-.085-.157-.122-.236.15-.2.128-.387-.22-.425-1.193-2.089-3.754-4.048-5.418-5.559a6.6 6.6 0 0 0 -1.238-.911v-.169c0-.419-.576-.464-1-.306v-6.208h15.255c.926 0 2.732-.357 3.608 0 2.319.943 1.812 4.045 1.7 6.188a19.589 19.589 0 0 0 -2.8-.089c-1.416 0-4.779-.675-5.884.724-1.011 1.28-.336 4.46-.336 5.9v11.31c0 1.162-.508 3.8.53 4.7 1.413 1.227 5.89.357 7.505.357 2.236 0 5.551.638 7.721-.018 2.354-.712 1.706-3.03 1.706-5.064zm-22.95-36.758h-1.452c-.836 0-3.136.43-3.554-.564-.339-.81-.051-2.2-.051-3.044v-1.7a23.2 23.2 0 0 1 5.057 5.308zm-14.008-6.1c.707-.917 5.54-.571 7.5 0v3.15c0 .841-.361 2.727.453 3.325.74.544 2.3.253 3.129.253h3.278c.05.1.1.2.14.294v8.064h-14.549v-7.826c0-1.411-.843-6.106.049-7.26zm-.049 17.851v-2.109h14.559c.039 1.315.362 3.108-.007 4.282-.359 1.138.107.728-1.006 1.073a16.327 16.327 0 0 1 -5.545.33v-.1c0-.533-1.1-.371-1.384 0-1.381-.11-2.716-.23-3.847-.23-2.725 0-2.77-.712-2.77-3.246zm-20.651 18.131c.768-.681 5.273-.285 7.2.189v2.99c0 .934-.326 2.663.472 3.364.74.649 2.3.366 3.185.366h3.286c.016.034.036.072.05.106v7.865h-14.529v-7.448c0-1.385-.825-6.4.336-7.432zm14.19 19.682c-.357 1.208-.12.877-1.246 1.182-2.991.813-7.323 0-10.43 0-2.944 0-2.85-.325-2.85-3.134v-1.746h14.549a12.116 12.116 0 0 1 -.023 3.698zm-.6-13.727h-1.4c-.807 0-2.586.349-3.244-.2s-.29-2.488-.29-3.257v-1.592a23.616 23.616 0 0 1 4.935 5.049zm7.063-5.605c.707-1.057 5.49-.879 7.545-.289v3.124c0 .922-.329 2.664.468 3.352.735.633 2.31.352 3.182.352h3.279c.023.048.051.1.07.147v8.1h-14.543v-8.152c0-1.21-.727-5.545 0-6.634zm14.547 19.582c-.376 1.045.174.683-1.036 1.062-2.721.855-7.232 0-10.085 0-3.121 0-3.425-.238-3.425-3.3v-1.962h14.557c.054 1.244.362 3.164-.011 4.2zm-.6-13.955h-1.4c-.722 0-3.077.42-3.5-.421-.362-.732-.047-2.276-.047-3.062v-1.662a24.552 24.552 0 0 1 4.947 5.143zm21.008 0h-1.411c-.723 0-3.077.42-3.5-.423-.362-.733-.047-2.276-.047-3.063v-1.642a23.8 23.8 0 0 1 4.958 5.128zm-13.813-6.05c.644-.66 5.522-.267 7.4.179v3.08c0 .92-.329 2.664.468 3.35.735.633 2.311.351 3.182.351h3.282c.021.046.047.095.066.139v7.949h-14.535v-7.568c0-1.214-.825-6.494.137-7.48zm14.4 19.775c-.288 1.289.1.882-1.047 1.235-2.873.889-7.413 0-10.43 0-2.971 0-3.061-.375-3.061-3.227v-1.821h14.558a15.867 15.867 0 0 1 -.019 3.813z" fill="#262626"/></svg>