<svg height="496pt" viewBox="0 -35 496.50237 496" width="496pt" xmlns="http://www.w3.org/2000/svg"><path d="m22.011719 424.058594c-1.855469.007812-3.488281-1.226563-3.988281-3.015625-.5-1.785157.253906-3.6875 1.839843-4.648438l143.949219-87.371093-152 87.761718c-1.957031 1.164063-4.492188.523438-5.660156-1.433594-1.167969-1.960937-.527344-4.496093 1.433594-5.660156l226.757812-139.5625-223.042969 128.808594c-1.960937 1.160156-4.496093.511719-5.65625-1.453125-1.160156-1.964844-.507812-4.496094 1.453125-5.65625l113.960938-68.789063-109.757813 63.378907c-1.945312 1.042969-4.367187.367187-5.496093-1.53125-1.128907-1.902344-.5625-4.351563 1.285156-5.5625l189.109375-115.429688-184.898438 106.726563c-1.957031 1.089844-4.425781.421875-5.566406-1.507813-1.136719-1.929687-.527344-4.417969 1.371094-5.601562l85.058593-51.199219-80.863281 46.746094c-1.957031 1.167968-4.492187.527344-5.660156-1.433594-1.167969-1.957031-.527344-4.492188 1.433594-5.660156l237.269531-146.355469-233.042969 134.539063c-1.949219 1.078124-4.40625.414062-5.546875-1.503907-1.136718-1.914062-.550781-4.390625 1.328125-5.589843l220.746094-135.628907-216.527344 125.019531c-1.953125 1.058594-4.394531.386719-5.523437-1.527343-1.132813-1.910157-.550782-4.375 1.320312-5.578125l119.527344-72.191406-115.324219 66.585937c-1.953125 1.0625-4.394531.386719-5.523437-1.523437-1.132813-1.914063-.550782-4.378907 1.320312-5.578126l161.074219-97.84375-156.902344 90.574219c-1.957031 1.117188-4.449219.457031-5.597656-1.480469s-.53125-4.4375 1.386719-5.621093l176.894531-107.949219-172.660156 99.675781c-1.957031 1.089844-4.425781.421875-5.566407-1.507812-1.136718-1.929688-.527343-4.414063 1.371094-5.601563l31.925782-19.160156-27.730469 16.003906c-1.945313 1.011719-4.339844.328125-5.457031-1.558594-1.117188-1.882812-.566407-4.3125 1.253906-5.535156l116.613281-70.933594-112.410156 64.890626c-1.945313 1.054687-4.378907.386718-5.511719-1.515626-1.136719-1.902343-.570312-4.359374 1.285156-5.570312l161.898438-100.03125-157.671875 91.03125c-1.945313 1.054688-4.378907.386719-5.511719-1.515625-1.136719-1.902344-.570312-4.359375 1.285156-5.570313l129.328125-79.742187-125.101562 72.21875c-1.941407 1.066406-4.375.414063-5.523438-1.480469-1.144531-1.898437-.59375-4.359375 1.253907-5.582031l169.289062-107.230469-165.019531 95.257813c-1.941407 1.050781-4.367188.390625-5.503907-1.503907-1.140624-1.890624-.585937-4.34375 1.25-5.566406l118.546876-74.273437-114.292969 65.992187c-1.945313 1.140625-4.441407.507813-5.613281-1.414062-1.171876-1.925782-.585938-4.433594 1.320312-5.640625l138.199219-89.085938-133.90625 77.3125c-1.957031 1.167969-4.496094.53125-5.664063-1.429687-1.171875-1.957032-.53125-4.496094 1.429688-5.664063l34.441406-21.339843-30.207031 17.449218c-1.945313 1.140625-4.441407.511719-5.613281-1.414062-1.171876-1.925782-.585938-4.433594 1.320312-5.636719l88.683594-56.980469-84.390625 48.722656c-1.9375 1.199219-4.484375.601563-5.683594-1.335937-1.203125-1.9375-.605469-4.484375 1.332031-5.683594l95.027344-63.214843-90.675781 52.320312c-1.917969 1.097656-4.363281.488281-5.542969-1.382812-1.175781-1.867188-.675781-4.335938 1.140625-5.59375l84.414063-58.070313-80.011719 46.246094c-1.910157 1.101562-4.347657.503906-5.539063-1.351563-1.1875-1.855468-.710937-4.320312 1.089844-5.59375l65.957031-46.652344-61.507812 35.511719c-1.9375 1.199219-4.484375.605469-5.683594-1.335937-1.203125-1.9375-.605469-4.484375 1.332031-5.683594l12.683594-8.433594-8.332031 4.808594c-1.910157 1.082031-4.335938.480469-5.519531-1.371094-1.179688-1.855468-.703126-4.308594 1.085937-5.582031l22.039063-15.425781-17.605469 10.164062c-1.910157 1.058594-4.3125.445313-5.484375-1.394531s-.707032-4.277344 1.058594-5.558594l4.386718-3.070312c-1.882812 1.121093-4.316406.578125-5.539062-1.242188-1.226563-1.816406-.816406-4.273437.929687-5.597656l17.488281-14.039063-12.839843 7.433594c-1.863281 1.089844-4.253907.554688-5.480469-1.222656s-.875-4.203125.808594-5.558594l3.300781-2.699218c-1.230469.1875-2.480469-.1875-3.410156-1.015626-1.328125-1.175781-1.761719-3.066406-1.074219-4.699218l5.535156-13.097656c-1.992187.453124-4.015625-.621094-4.761718-2.523438-.742188-1.902344.015624-4.0625 1.789062-5.082031l9.371094-5.394531c1.535156-.886719 3.46875-.695313 4.796875.480468 1.332031 1.171875 1.761719 3.066406 1.074219 4.699219l-5.425782 12.792969 31.183594-17.972656c1.863281-1.0625 4.226562-.523438 5.445312 1.242187s.882813 4.167969-.773437 5.53125l-2.078125 1.691406 14.671875-8.464843c1.867187-1.054688 4.230469-.503907 5.441406 1.261718 1.210938 1.769532.867188 4.171875-.789062 5.527344l-17.492188 14.066406 36.164063-20.855468c1.90625-1.054688 4.308594-.445313 5.480468 1.398437 1.171876 1.839844.710938 4.273437-1.054687 5.558594l-4.378906 3.070312 17.34375-10.027343c1.910156-1.082032 4.335937-.480469 5.519531 1.371093 1.179688 1.855469.703125 4.308594-1.085938 5.585938l-22.015624 15.390625 38.753906-22.347656c1.929687-1.09375 4.378906-.472657 5.550781 1.414062 1.167969 1.882812.640625 4.355469-1.199219 5.597656l-12.707031 8.425782 26.789063-15.4375c1.910156-1.101563 4.347656-.503907 5.539062 1.351562 1.1875 1.855469.710938 4.320312-1.089844 5.59375l-65.949218 46.617188 92.773437-53.5625c1.917969-1.09375 4.359375-.484376 5.539063 1.382812 1.179687 1.871094.679687 4.335938-1.136719 5.597656l-84.398438 58.046875 112.621094-65.027343c1.941406-1.203126 4.488281-.605469 5.691406 1.332031s.609375 4.484375-1.328125 5.6875l-95.027344 63.175781 121.640626-70.195312c1.949218-1.1875 4.492187-.570313 5.679687 1.375 1.1875 1.949218.570313 4.492187-1.375 5.679687l-88.667969 56.980469 110.921875-64.035156c1.960938-1.171876 4.496094-.53125 5.667969 1.425781 1.175781 1.960937.535156 4.496093-1.421875 5.667969l-34.453125 21.300781 49.234375-28.394531c1.945313-1.136719 4.441406-.507813 5.613281 1.417968 1.171875 1.921875.585938 4.433594-1.320312 5.636719l-138.214844 89.0625 166.53125-96.117187c1.957031-1.175782 4.492188-.542969 5.671875 1.410156 1.175781 1.953125.546875 4.492187-1.410156 5.667968l-118.566407 74.242188 140.914063-81.320312c1.953125-1.175782 4.488281-.550782 5.667969 1.402343 1.179687 1.953125.554687 4.488281-1.398438 5.667969l-169.25 107.183594 197.945313-114.253906c1.960937-1.167969 4.496093-.527344 5.664062 1.429687 1.171875 1.960937.53125 4.496094-1.425781 5.664063l-129.296875 79.683593 150.378906-86.777343c1.949219-1.097657 4.421875-.441407 5.570313 1.480468 1.148437 1.921875.558594 4.410156-1.335938 5.605469l-161.855468 100.015625 185.46875-107.101562c1.957031-1.113282 4.445312-.453126 5.59375 1.484374 1.148437 1.9375.535156 4.4375-1.382813 5.621094l-116.769531 71.019532 135.324218-78.125c1.273438-.746094 2.847657-.761719 4.132813-.035157 1.285156.726563 2.082031 2.082031 2.097656 3.558594.011719 1.476563-.761719 2.847656-2.035156 3.597656l-31.925781 19.15625 45.519531-26.277343c1.957031-1.113282 4.445313-.453126 5.59375 1.484374s.535156 4.4375-1.382813 5.621094l-176.839843 107.890625 185.15625-106.902343c1.957031-1.113282 4.445312-.453126 5.59375 1.480468 1.148437 1.9375.535156 4.441406-1.382813 5.621094l-160.875 97.726562 156.828125-90.550781c1.964844-1.160156 4.496094-.507812 5.65625 1.457031 1.160157 1.960938.511719 4.496094-1.453125 5.65625l-119.652344 72.25 115.449219-66.644531c1.953125-1.078125 4.40625-.414062 5.546875 1.503907 1.140625 1.914062.550782 4.390624-1.328125 5.589843l-220.703125 135.589844 216.484375-124.984375c1.960938-1.167969 4.492188-.527344 5.660157 1.429688 1.167968 1.960937.527343 4.496093-1.433594 5.664062l-237.269532 146.355469 233.042969-134.539063c1.957031-1.089844 4.425781-.421875 5.566407 1.507813 1.136718 1.929687.53125 4.414062-1.371094 5.601562l-85.214844 51.265625 81.019531-46.773437c1.949219-1.039063 4.371094-.363281 5.496094 1.535156 1.128906 1.898437.5625 4.347656-1.285156 5.558594l-189.050781 115.382812 184.839843-106.679687c1.273438-.75 2.847657-.765625 4.132813-.039063 1.285156.726563 2.089844 2.082031 2.101562 3.558594.015625 1.476563-.757812 2.847656-2.03125 3.601563l-114.101562 68.804687 109.898437-63.445313c1.953125-1.082031 4.40625-.414062 5.546875 1.5 1.140625 1.917969.550782 4.390626-1.328125 5.59375l-226.722656 139.511719 222.511719-128.472656c1.953125-1.0625 4.394531-.386719 5.527344 1.523437 1.132812 1.914063.546874 4.378907-1.324219 5.578126l-144.183594 87.535156 139.980469-80.828125c1.953125-1.101563 4.421875-.445313 5.570312 1.476562 1.148438 1.921875.558594 4.410157-1.332031 5.609375l-208.714844 129.34375 204.476563-118.089844c1.953125-1.097656 4.421875-.441406 5.570312 1.480469 1.148438 1.921875.558594 4.40625-1.332031 5.605469l-181.019531 112.285156 176.78125-102.027344c1.953125-1.101562 4.421875-.445312 5.570312 1.476563 1.148438 1.921875.558594 4.410156-1.332031 5.609375l-155.535156 96.503906 151.296875-87.355468c1.949218-1.054688 4.378906-.386719 5.515625 1.511718 1.132812 1.902344.566406 4.363282-1.285157 5.574219l-117.027343 72.339844 112.796875-65.105469c1.945312-1.089844 4.40625-.441406 5.554687 1.46875 1.152344 1.910156.578125 4.386719-1.292969 5.597656l-145.480468 91.890625 141.210937-81.535156c1.945313-1.070313 4.390625-.410156 5.535157 1.496094 1.140624 1.902343.570312 4.371093-1.289063 5.582031l-92.773437 57.921875 88.535156-51.125c1.941406-1.050781 4.367187-.390625 5.503906 1.503906 1.140625 1.890625.589844 4.34375-1.25 5.566407l-80.003906 50.140624 75.75-43.765624c1.9375-1.050782 4.355468-.394532 5.5 1.488281 1.140625 1.882812.605468 4.332031-1.222656 5.5625l-87.03125 55.4375 82.753906-47.773438c1.945312-1.089843 4.40625-.4375 5.554687 1.46875 1.152344 1.910157.578125 4.390625-1.292969 5.601563l-44.898437 28.28125 40.664063-23.46875c1.9375-1.035156 4.34375-.371094 5.480468 1.507812 1.132813 1.882813.597656 4.320313-1.222656 5.554688l-26.753906 16.851562 22.496094-12.980468c1.925781-1.035157 4.328124-.386719 5.46875 1.480468 1.144531 1.863282.636718 4.296875-1.160157 5.546875l-53.460937 34.742188 49.152344-28.375c1.921874-1.117188 4.382812-.507813 5.566406 1.375 1.183594 1.882812.664062 4.363281-1.175782 5.613281l-66.378906 45.320312 61.988282-35.785156c1.914062-1.0625 4.332031-.445312 5.5 1.410156 1.167968 1.855469.679687 4.300782-1.109376 5.570313l-43.328124 29.664063 38.910156-22.488282c1.902344-1.109375 4.339844-.53125 5.542968 1.3125 1.199219 1.84375.742188 4.308594-1.042968 5.597656l-42.023438 30.664063 37.523438-21.660156c1.878906-1.054688 4.25-.484375 5.449218 1.300781 1.195313 1.789062.820313 4.199219-.863281 5.535156l-29.316406 22.609375 24.730469-14.277343c1.871094-1.085938 4.265625-.542969 5.488281 1.246093 1.21875 1.785157.851563 4.214844-.847656 5.558594l-13.78125 11 9.140625-5.269531c1.734375-.996094 3.933594-.605469 5.222656.925781 1.285156 1.53125 1.289062 3.765625.003906 5.300781l-12.386718 14.683594 7.128906-4.128906c1.644531-.933594 3.710937-.632813 5.023437.730468 1.308594 1.367188 1.519531 3.449219.515625 5.050782l-2.808594 4.386718c1.488282.570313 2.511719 1.949219 2.632813 3.535157.121094 1.585937-.679687 3.101562-2.0625 3.894531l-9.347656 5.394531c-1.644531.964844-3.738281.664063-5.042969-.726562-1.3125-1.375-1.519531-3.46875-.496094-5.070313l1-1.554687-12.679687 7.367187c-1.734375.996094-3.933594.609375-5.21875-.925781-1.289063-1.53125-1.289063-3.765625-.007813-5.300781l12.386719-14.691406-36.316406 20.917968c-1.871094 1.0625-4.238281.511719-5.449219-1.261718-1.210938-1.773438-.859375-4.179688.808594-5.535157l13.765625-10.992187-30.828125 17.789062c-1.878906 1.050782-4.25.484375-5.449219-1.304687-1.195313-1.785157-.820313-4.195313.867187-5.53125l29.316407-22.613281-51.019531 29.449218c-1.902344 1.109375-4.339844.53125-5.542969-1.3125-1.199219-1.847656-.742188-4.308594 1.042969-5.601562l42.007812-30.609375-65.03125 37.523437c-1.914062 1.054688-4.316406.433594-5.484375-1.414062-1.167969-1.84375-.691406-4.28125 1.082031-5.554688l43.347656-29.6875-63.496093 36.65625c-1.917969 1.066406-4.335938.449219-5.503907-1.410156-1.167968-1.855469-.679687-4.300781 1.109376-5.566406l66.351562-45.3125-90.574219 52.289062c-1.925781 1.035156-4.328125.386719-5.472656-1.480468-1.140625-1.863282-.632813-4.296876 1.164063-5.546876l53.46875-34.742187-72.355469 41.769531c-1.941407 1.066406-4.378907.414063-5.523438-1.480468-1.144531-1.894532-.59375-4.359376 1.253907-5.582032l26.746093-16.886718-41.453125 23.949218c-1.941406 1.066406-4.378906.414063-5.523437-1.480468-1.144531-1.894532-.59375-4.359376 1.253906-5.582032l44.972656-28.316406-61.257812 35.378906c-1.9375 1.050782-4.355469.394532-5.5-1.488281-1.140625-1.882813-.605469-4.332031 1.222656-5.5625l86.980469-55.332031-108.128906 62.382812c-1.941407 1.050782-4.367188.390625-5.507813-1.503906-1.136719-1.890625-.585937-4.34375 1.253906-5.566406l80.101563-50.199219-99.203125 57.269531c-1.9375 1.023438-4.335938.351563-5.464844-1.527344-1.128906-1.878906-.59375-4.3125 1.21875-5.542968l92.664063-57.804688-112.421876 64.875c-1.941406 1.066406-4.378906.414063-5.523437-1.480468-1.148437-1.894532-.59375-4.359376 1.253906-5.582032l145.511719-91.910156-171.460938 98.972656c-1.949218 1.097656-4.421874.441406-5.570312-1.480468-1.148438-1.917969-.558594-4.40625 1.335938-5.605469l117.046874-72.347657-137.585937 79.433594c-1.945313 1.070313-4.390625.410156-5.53125-1.492187-1.144531-1.90625-.574219-4.375 1.285156-5.585938l155.566407-96.527343-179.496094 103.605468c-1.945313 1.070313-4.390625.410156-5.535156-1.492187-1.140626-1.90625-.570313-4.375 1.289062-5.585938l181.015625-112.25-206.6875 119.328125c-1.949219 1.070313-4.390625.410156-5.535156-1.492187-1.140625-1.90625-.574219-4.375 1.289062-5.585938l208.753907-129.34375-236.351563 136.421875c-.625.375-1.339844.574219-2.066406.585938zm0 0" fill="#5e8faa"/><path d="m227.878906 291.929688c-1.699218 0-3.226562-1.039063-3.847656-2.621094-.621094-1.582032-.210938-3.382813 1.039062-4.539063l17.035157-15.722656-24.351563 14.039063c-1.753906 1.003906-3.976562.589843-5.253906-.976563-1.273438-1.566406-1.230469-3.828125.109375-5.339844l11.914063-13.378906-6.761719 3.898437c-1.625.9375-3.679688.664063-5-.667968-1.324219-1.332032-1.578125-3.390625-.625-5.007813l3.128906-5.25c-1.042969-.28125-1.9375-.96875-2.476563-1.910156-.550781-.949219-.699218-2.078125-.414062-3.136719.28125-1.058594.976562-1.960937 1.925781-2.511718l9.316407-5.367188c1.628906-.941406 3.6875-.660156 5.007812.679688 1.320312 1.339843 1.566406 3.40625.597656 5.019531l-1.832031 3.054687 15.179687-8.753906c1.753907-1 3.972657-.589844 5.25.976562 1.277344 1.566407 1.230469 3.828126-.105468 5.34375l-11.902344 13.351563 34.132812-19.664063c1.820313-1.054687 4.144532-.574218 5.394532 1.121094 1.25 1.695313 1.023437 4.058594-.523438 5.488282l-17.042968 15.769531 21.46875-12.386719c1.71875-.984375 3.894531-.609375 5.1875.894531 1.289062 1.5 1.332031 3.707031.097656 5.257813l-10.957032 13.71875 5.679688-3.304688c1.972656-1.121094 4.484375-.441406 5.617188 1.527344 1.136718 1.964844.472656 4.476562-1.488282 5.625l-24.675781 14.1875c-1.714844.984375-3.894531.609375-5.183594-.890625-1.289062-1.503906-1.332031-3.710937-.101562-5.261719l10.96875-13.667968-34.445313 19.820312c-.621094.378906-1.335937.578125-2.0625.585938zm0 0" fill="#cad0d7"/><path d="m369.519531 250.640625c-1.707031 0-3.238281-1.054687-3.851562-2.648437s-.183594-3.402344 1.085937-4.546876l15.886719-14.316406-24.21875 13.980469c-1.785156 1.027344-4.054687.585937-5.320313-1.039063-1.265624-1.625-1.144531-3.933593.289063-5.410156l12.238281-12.644531-7.496094 4.328125c-1.59375.914062-3.601562.667969-4.921874-.605469-1.324219-1.273437-1.648438-3.269531-.792969-4.894531l4.011719-7.648438c-1.796876-.148437-3.289063-1.449218-3.683594-3.210937-.398438-1.757813.398437-3.574219 1.957031-4.476563l9.316406-5.375c1.589844-.921874 3.597657-.675781 4.925781.59375 1.324219 1.273438 1.652344 3.269532.796876 4.898438l-3.386719 6.429688 20.648437-11.929688c1.78125-1.042969 4.0625-.605469 5.335938 1.023438 1.273437 1.628906 1.144531 3.945312-.300782 5.425781l-12.261718 12.648437 32.652344-18.851562c1.816406-.988282 4.082031-.476563 5.304687 1.191406 1.21875 1.667969 1.015625 3.984375-.472656 5.414062l-15.847657 14.355469 18.167969-10.488281c1.664063-.960938 3.769531-.644531 5.082031.761719 1.308594 1.40625 1.476563 3.53125.398438 5.125l-10.304688 15.210937 4.832032-2.78125c1.972656-1.125 4.480468-.441406 5.617187 1.523438 1.132813 1.964844.46875 4.480468-1.488281 5.625l-20.390625 11.746094c-1.664063.957031-3.773437.640624-5.082031-.765626s-1.476563-3.53125-.402344-5.125l10.308594-15.210937-36.566406 21.101563c-.625.375-1.335938.578124-2.066407.585937zm0 0" fill="#cad0d7"/><path d="m89.09375 159.800781c-1.765625 0-3.332031-1.117187-3.90625-2.785156-.574219-1.664063-.027344-3.511719 1.363281-4.597656l3.210938-2.527344-10.578125 6.136719c-1.816406 1.128906-4.191406.6875-5.480469-1.019532-1.285156-1.703124-1.058594-4.109374.523437-5.546874l14.445313-13.78125-11.355469 6.554687c-1.535156.890625-3.464844.695313-4.796875-.476563-1.332031-1.171874-1.761719-3.066406-1.074219-4.699218l5.382813-12.785156c-1.75.394531-3.554687-.402344-4.441406-1.964844-1.140625-1.972656-.46875-4.496094 1.503906-5.640625l9.355469-5.351563c1.535156-.886718 3.464844-.695312 4.796875.480469 1.332031 1.171875 1.761719 3.0625 1.074219 4.699219l-5.253907 12.46875 30.558594-17.65625c1.808594-1.03125 4.105469-.554688 5.351563 1.117187 1.246093 1.667969 1.054687 4.003907-.449219 5.449219l-14.410157 13.757812 31.183594-18.003906c1.878906-1.085937 4.277344-.535156 5.492188 1.265625 1.214844 1.796875.828125 4.230469-.882813 5.566407l-3.207031 2.476562 1.304688-.761719c1.722656-.992187 3.910156-.617187 5.203124.894531 1.292969 1.511719 1.324219 3.726563.074219 5.277344l-10.1875 12.699219 4.953125-2.839844c1.976563-1.140625 4.503906-.460937 5.644532 1.515625 1.140624 1.976563.460937 4.503906-1.515626 5.644532l-24.039062 13.847656c-1.71875.984375-3.898438.605468-5.1875-.898438s-1.328125-3.714844-.089844-5.261718l10.191406-12.683594-32.660156 18.84375c-.636718.378906-1.359375.582031-2.097656.585937zm0 0" fill="#cad0d7"/><g fill="#262626"><path d="m494.011719 96.949219c0-23.378907 5.605469-54.808594 0-77.675781-7.101563-28.902344-62.257813-16.277344-86.007813-16.277344h-364.578125c-9.695312 0-28.492187-3.46875-36.476562 4.75-8.992188 9.265625-4.011719 34.675781-4.011719 45.46875v263.308594c0 27.613281-6.609375 64.652343 0 91.664062 6.011719 24.46875 31.132812 16.277344 53.261719 16.277344h404.761719c14.601562 0 27.417968 2.328125 33.03125-13.851563 5.105468-14.65625 0-40.273437 0-55.535156v-258.128906zm-29.914063 318.949219c-35.78125 2.28125-72.460937 0-108.3125 0h-289.34375c-18.109375 0-45.421875 6.996093-51.398437-10.644532-6.21875-18.347656 0-49.859375 0-69.042968v-235.808594c0-23.949219-3.972657-51.835938 0-75.523438 2.558593-15.308594 1.980469-12.386718 18.085937-13.34375 26.011719-1.535156 52.601563 0 78.648438 0h333.105468c12.453126 0 30.664063-4.707031 37.019532 6.09375 6.152344 10.449219 0 42.941406 0 54.753906v318.5625c0 20.445313 2.75 23.648438-17.804688 24.953126zm0 0"/><path d="m278.5 242.925781c-7.921875-1.558593-16.039062-1.839843-24.046875-.824219v-186.890624c0-3.394532-11.957031-1.246094-11.957031 3.207031v183.632812c-6.371094-.429687-12.765625-.324219-19.117188.324219-12.769531 1.730469-14.039062 11.105469-14.039062 21.773438 0 9.027343-2.824219 22.992187 7.6875 27.375 8.335937 1.949218 16.964844 2.316406 25.433594 1.074218v79.625c0 2.179688 11.957031.414063 11.957031-3.203125v-76.460937h18.332031c.976562-.011719 1.933594-.226563 2.816406-.636719 12.097656-3.097656 12.007813-12.867187 12.007813-23.710937 0-9.339844 2.304687-21.800782-9.074219-25.285157zm-56.980469 31.050781c-.3125-4.597656-2.199219-17.277343.933594-21.050781 2.882813-3.476562 12.15625-1.652343 16.738281-1.652343h26.292969c8.070313 0 9.910156 2.25 9.910156 10.582031 0 3.707031 2.476563 19.601562-2.875 21.675781h-41.058593c-7.761719-.007812-9.414063-1.429688-9.949219-9.53125zm0 0"/><path d="m417.226562 201.957031c-7.402343-.890625-14.875-.984375-22.296874-.28125v-145.339843c0-6.21875-12.121094-4.410157-12.121094.925781v144.273437c-5.996094-.339844-12.007813-.253906-17.988282.265625-13.105468 1.460938-14.988281 10.148438-14.988281 21.289063 0 8.257812-2.722656 21.585937 6.335938 26.089844 7.125 3.53125 19.140625 1.269531 26.621093 1.269531h.101563v121.773437c0 3.574219 11.957031 1.371094 11.957031-3.203125v-118.570312h16.515625c.40625-.027344.8125-.09375 1.207031-.199219.648438.019531 1.300782-.03125 1.941407-.148438 13.367187-2.699218 13.359375-12.039062 13.359375-23.417968.023437-10.332032 2.320312-22.132813-10.644532-24.726563zm-43.628906 41.09375c-8.007812 0-11.007812-2.105469-11.765625-10.59375-1.308593-7.058593-1.277343-14.296875.089844-21.339843 1.710937-3.097657 11.613281-3.410157 21.59375-3.046876 2.554687 2.164063 6.242187 2.351563 9.003906.460938 4.953125.3125 9.289063.628906 11.601563.628906 8.316406 0 11.769531 2.839844 11.769531 11.632813 0 3.304687 2.261719 19.960937-2.621094 22.296875zm0 0"/><path d="m137.765625 112.25c-7.875-.828125-15.8125-.882812-23.699219-.164062v-56.875c0-2.039063-11.960937-.320313-11.960937 3.207031v53.453125c-5.40625-.25-10.828125-.164063-16.226563.265625-10.949218 1.054687-16.414062 5.917969-16.804687 16.6875-.289063 7.761719-3.0625 24.296875 5.394531 28.5 6.84375 3.402343 18.738281 1.097656 25.929688 1.097656h1.652343v22.71875c0 6.25 12.121094 4.464844 12.121094-.910156v-21.84375h14.296875c1.101562.144531 2.222656.074219 3.300781-.203125 4.617188-.128906 8.953125-2.246094 11.894531-5.808594 2.9375-3.5625 4.1875-8.226562 3.433594-12.78125 0-9.953125 3.460938-24.792969-9.332031-27.34375zm-45.105469 41.183594c-8.085937 0-11.320312-3.816406-11.628906-11.691406-1.160156-7.890626-1.300781-15.898438-.410156-23.828126.207031-.417968.1875-.585937.128906-.667968.085938-.046875.058594 0 .183594-.082032 1.332031-.160156 2.675781-.160156 4.003906 0h38.574219c8.070312 0 11.3125 3.78125 11.628906 11.695313.074219 1.949219 1.351563 22.550781-.917969 24.574219h-20.644531c-1.800781-2.707032-7.234375-2.304688-9.910156 0zm0 0"/><path d="m102.105469 215.320312v107.355469c0 1.574219 11.960937 0 11.960937-3.207031v-107.351562c0-1.578126-11.960937.007812-11.960937 3.203124zm0 0"/><path d="m102.105469 355.707031v16.515625c0 2.617188 11.960937.71875 11.960937-3.203125v-16.515625c0-2.617187-11.960937-.71875-11.960937 3.203125zm0 0"/></g></svg>