<svg id="Icons" height="512" viewBox="0 0 60 60" width="512" xmlns="http://www.w3.org/2000/svg"><g fill="#42838e"><path d="m29.841 13.418a.5.5 0 0 1 -.317-.887l.368-.3-.892.514a.5.5 0 0 1 -.566-.82l1.458-1.193-2.07 1.2a.5.5 0 0 1 -.563-.823l2.341-1.889-3.1 1.789a.5.5 0 0 1 -.568-.819l3.511-2.9-4.157 2.4a.5.5 0 0 1 -.57-.817l3.325-2.773-2.762 1.594a.5.5 0 0 1 -.557-.828l1.021-.8-.464.268a.5.5 0 0 1 -.592-.8l2.265-2.13a.5.5 0 0 1 -.213-.932l3.171-1.824a.5.5 0 0 1 .593.8l-1.991 1.869 2.979-1.717a.5.5 0 0 1 .558.828l-1.022.8 1.53-.883a.5.5 0 0 1 .57.817l-3.322 2.767 4.326-2.5a.5.5 0 0 1 .568.819l-3.512 2.9 3.533-2.038a.5.5 0 0 1 .563.823l-2.344 1.885 1.782-1.028a.5.5 0 0 1 .566.82l-1.457 1.19.891-.514a.5.5 0 0 1 .566.82l-1.958 1.6a.479.479 0 0 1 .109.131.5.5 0 0 1 -.182.683l-3.165 1.828a.5.5 0 0 1 -.25.07z"/><path d="m12.841 20.418a.5.5 0 0 1 -.346-.861l2.138-2.048-3.195 1.845a.5.5 0 0 1 -.551-.832l.385-.292-.793.458a.5.5 0 0 1 -.563-.822l2.733-2.2-3.564 2.053a.5.5 0 0 1 -.543-.839l.838-.606-1.044.6a.5.5 0 0 1 -.557-.829l2.367-1.832-1.867 1.08a.5.5 0 0 1 -.569-.817l2.372-1.976-1.8 1.041a.5.5 0 0 1 -.6-.79l2.395-2.348a.5.5 0 0 1 -.336-.926l3.172-1.831a.5.5 0 0 1 .6.79l-2.313 2.264 3.449-1.992a.5.5 0 0 1 .57.818l-2.37 1.974 3.179-1.835a.5.5 0 0 1 .557.829l-2.363 1.83 3.078-1.777a.5.5 0 0 1 .543.839l-.843.607.718-.415a.5.5 0 0 1 .563.822l-2.734 2.207 2.172-1.254a.5.5 0 0 1 .551.831l-.455.345a.5.5 0 0 1 .5.837l-2.323 2.225a.549.549 0 0 1 .445.25.5.5 0 0 1 -.182.683l-3.165 1.828a.5.5 0 0 1 -.249.066z"/><path d="m46.4 20.259a.5.5 0 0 1 -.31-.892l.16-.127-.53.306a.5.5 0 0 1 -.569-.818l1.927-1.6-2.639 1.524a.5.5 0 0 1 -.552-.832l1.332-1.006-1.875 1.086a.5.5 0 0 1 -.557-.828l2.62-2.033-3.086 1.781a.5.5 0 0 1 -.563-.82l2.953-2.377-2.432 1.4a.5.5 0 0 1 -.586-.8l2.914-2.641-2.328 1.344a.5.5 0 0 1 -.576-.812l2.048-1.759a.483.483 0 0 1 -.194-.189.5.5 0 0 1 .182-.684l3.171-1.834a.5.5 0 0 1 .576.813l-1.071.92 1.75-1.01a.5.5 0 0 1 .586.8l-2.915 2.641 3.98-2.3a.5.5 0 0 1 .564.822l-2.951 2.376 3.818-2.2a.5.5 0 0 1 .557.828l-2.619 2.033 2.535-1.464a.5.5 0 0 1 .551.832l-1.333 1.007.783-.452a.5.5 0 0 1 .568.819l-1.926 1.594 1.358-.784a.5.5 0 0 1 .559.826l-.435.344a.505.505 0 0 1 .467.249.5.5 0 0 1 -.182.683l-5.484 3.166a.5.5 0 0 1 -.246.068z"/><path d="m29.841 59.419a.5.5 0 0 1 -.314-.89l.048-.039-.513.3a.5.5 0 0 1 -.586-.8l2.686-2.434-3.691 2.131a.5.5 0 0 1 -.559-.827l2.156-1.688-2.849 1.646a.5.5 0 0 1 -.569-.819l3.511-2.9-3.881 2.24a.5.5 0 0 1 -.544-.837l.44-.318a.5.5 0 0 1 -.461-.867l1.884-1.52-1.32.761a.5.5 0 0 1 -.6-.789l2.4-2.362a.5.5 0 0 1 -.344-.924l3.171-1.83a.5.5 0 0 1 .6.789l-2.324 2.284 3.474-2.006a.5.5 0 0 1 .565.821l-1.882 1.519 2.561-1.482a.5.5 0 0 1 .544.837l-.338.245.739-.426a.5.5 0 0 1 .568.819l-3.51 2.9 3.814-2.2a.5.5 0 0 1 .558.826l-2.158 1.69 1.6-.924a.5.5 0 0 1 .586.8l-2.686 2.433 2.1-1.212a.5.5 0 0 1 .563.823l-1.927 1.547a.445.445 0 0 1 .081.106.5.5 0 0 1 -.182.682l-3.165 1.829a.5.5 0 0 1 -.246.066z"/><path d="m12.841 52.419a.5.5 0 0 1 -.329-.876l1.3-1.139-2.043 1.179a.5.5 0 0 1 -.554-.829l.366-.281-.77.444a.5.5 0 0 1 -.578-.811l3.423-2.959-4.518 2.609a.5.5 0 0 1 -.551-.832l1.986-1.5-2.273 1.315a.5.5 0 0 1 -.565-.821l2.965-2.4-2.423 1.4a.5.5 0 0 1 -.587-.8l2.9-2.652-2.311 1.334a.5.5 0 0 1 -.57-.817l1.991-1.662a.5.5 0 0 1 .038-.842l3.172-1.83a.5.5 0 0 1 .57.817l-.689.576 1.277-.737a.5.5 0 0 1 .587.8l-2.9 2.654 3.981-2.3a.5.5 0 0 1 .565.821l-2.961 2.394 3.836-2.215a.5.5 0 0 1 .551.832l-1.987 1.5 1.981-1.143a.5.5 0 0 1 .577.811l-3.424 2.96 2.848-1.644a.5.5 0 0 1 .553.83l-.449.344a.5.5 0 0 1 .475.855l-2.091 1.832a.487.487 0 0 1 .229.207.5.5 0 0 1 -.182.682l-3.165 1.829a.5.5 0 0 1 -.251.065z"/><path d="m46.033 52.008a.5.5 0 0 1 -.332-.874l2.278-2.027-3.154 1.821a.5.5 0 0 1 -.56-.824l2.1-1.666-2.8 1.614a.5.5 0 0 1 -.565-.818l3.545-2.934-4.245 2.443a.5.5 0 0 1 -.578-.809l3.721-3.234-3.164 1.826a.5.5 0 0 1 -.552-.831l.444-.337a.5.5 0 0 1 -.484-.844l2.25-2.1a.5.5 0 0 1 -.2-.93l3.171-1.83a.5.5 0 0 1 .592.8l-1.938 1.81 2.9-1.676a.5.5 0 0 1 .553.831l-.36.273.762-.44a.5.5 0 0 1 .578.81l-3.711 3.228 4.9-2.825a.5.5 0 0 1 .569.817l-3.553 2.941 3.52-2.033a.5.5 0 0 1 .56.825l-2.1 1.665 1.537-.887a.5.5 0 0 1 .582.807l-2.279 2.026 1.7-.979a.5.5 0 0 1 .5.866l-5.937 3.427a.49.49 0 0 1 -.25.068z"/><path d="m5.841 36.419a.5.5 0 0 1 -.32-.884l.683-.571-1.27.733a.5.5 0 0 1 -.556-.828l.449-.348-.867.5a.5.5 0 0 1 -.574-.812l3.114-2.66-4.116 2.377a.5.5 0 0 1 -.577-.811l3.958-3.429-4.485 2.588a.5.5 0 0 1 -.557-.826l2.139-1.672-1.583.914a.5.5 0 0 1 -.579-.809l2.47-2.165-1.891 1.092a.5.5 0 0 1 -.571-.817l2-1.668a.5.5 0 0 1 .036-.844l3.172-1.831a.5.5 0 0 1 .571.817l-.711.594 1.3-.752a.5.5 0 0 1 .579.809l-2.471 2.165 3.37-1.946a.5.5 0 0 1 .557.828l-2.138 1.67 2.827-1.633a.5.5 0 0 1 .577.811l-3.958 3.43 4.3-2.483a.5.5 0 0 1 .574.814l-3.115 2.66 2.542-1.468a.5.5 0 0 1 .555.828l-.484.376a.5.5 0 0 1 .5.851l-1.991 1.665a.485.485 0 0 1 .141.157.5.5 0 0 1 -.182.682l-3.168 1.829a.5.5 0 0 1 -.25.067z"/><path d="m53.609 36.347a.5.5 0 0 1 -.322-.883l1.018-.856-1.606.927a.5.5 0 0 1 -.563-.822l1.494-1.2-2.1 1.212a.5.5 0 0 1 -.55-.832l1.172-.884-1.689.974a.5.5 0 0 1 -.561-.824l3-2.387-3.58 2.067a.5.5 0 0 1 -.578-.81l3.756-3.268-3.225 1.862a.5.5 0 0 1 -.574-.814l2.177-1.853-1.6.925a.5.5 0 0 1 -.574-.814l2.027-1.725a.509.509 0 0 1 -.175-.179.5.5 0 0 1 .182-.684l3.171-1.831a.5.5 0 0 1 .574.814l-.946.8 1.594-.92a.5.5 0 0 1 .574.814l-2.177 1.854 2.972-1.71a.5.5 0 0 1 .578.81l-3.755 3.264 4.938-2.851a.5.5 0 0 1 .56.825l-3.007 2.388 2.905-1.676a.5.5 0 0 1 .551.832l-1.173.884.623-.359a.5.5 0 0 1 .563.822l-1.491 1.2.928-.535a.5.5 0 0 1 .572.816l-1.018.855.069-.039a.5.5 0 0 1 .5.865l-4.985 2.878a.493.493 0 0 1 -.249.068z"/></g><path d="m30.027 12.454a.5.5 0 0 1 -.337-.869l1.547-1.413-.964.557a.5.5 0 0 1 -.565-.822l.331-.268a.5.5 0 0 1 -.355-.869l2.451-2.239a.484.484 0 0 1 -.164-.172.5.5 0 0 1 .182-.683l2.536-1.464a.5.5 0 0 1 .587.8l-1.525 1.396.97-.56a.5.5 0 0 1 .565.821l-.333.27a.471.471 0 0 1 .421.205.5.5 0 0 1 -.066.664l-1.547 1.413.96-.554a.5.5 0 0 1 .5.866l-4.944 2.854a.489.489 0 0 1 -.25.067z" fill="#266677"/><path d="m29.473 7.842a.5.5 0 0 1 -.383-.822l1.823-2.163-2.957 1.707a.5.5 0 0 1 -.585-.8l.82-.741-1.351.777a.5.5 0 0 1 -.634-.754l1.773-2.126-.74.427a.5.5 0 0 1 -.5-.867l3.172-1.832a.5.5 0 0 1 .634.754l-1.773 2.127 3-1.734a.5.5 0 0 1 .585.8l-.819.741 1.343-.776a.5.5 0 0 1 .633.756l-1.821 2.166 2.878-1.661a.5.5 0 0 1 .5.866l-5.348 3.088a.5.5 0 0 1 -.25.067z" fill="#347584"/><path d="m29.257 43.181a.5.5 0 0 1 -.287-.91l2.43-1.706-3.058 1.766a.5.5 0 0 1 -.535-.844l2.93-2.031-3.59 2.072a.5.5 0 0 1 -.541-.839l5.739-4.107-6.755 3.9a.5.5 0 0 1 -.529-.847l3.37-2.263-4.018 2.319a.5.5 0 0 1 -.525-.849l2.76-1.821-3.34 1.928a.5.5 0 0 1 -.531-.846l6.278-4.247-7.168 4.138a.5.5 0 0 1 -.529-.848l6.846-4.585-7.748 4.472a.5.5 0 0 1 -.531-.845l8.275-5.627-8.92 5.148a.5.5 0 0 1 -.521-.853l2.57-1.658-2.049 1.183a.5.5 0 0 1 -.533-.845l7.518-5.165-6.986 4.029a.5.5 0 0 1 -.522-.851l1.382-.9-.86.495a.5.5 0 0 1 -.526-.849l2.562-1.7-2.036 1.176a.5.5 0 0 1 -.535-.844l4.679-3.247-4.144 2.392a.5.5 0 0 1 -.543-.838l5.064-3.653-4.522 2.611a.5.5 0 0 1 -.557-.827l7.356-5.738a.5.5 0 0 1 .075-.814l3.757-2.168a.5.5 0 0 1 .558.827l-5.457 4.257 6.817-3.937a.5.5 0 0 1 .543.839l-5.064 3.654 6.028-3.48a.5.5 0 0 1 .535.843l-4.682 3.252 5.507-3.179a.5.5 0 0 1 .527.849l-2.56 1.7 3.134-1.81a.5.5 0 0 1 .522.852l-1.389.905 1.872-1.083a.5.5 0 0 1 .533.845l-7.51 5.161 8.56-4.943a.5.5 0 0 1 .521.853l-2.573 1.66 3.115-1.8a.5.5 0 0 1 .532.846l-8.273 5.626 8.995-5.189a.5.5 0 0 1 .529.849l-6.849 4.587 6.343-3.662a.5.5 0 0 1 .53.847l-6.274 4.245 5.745-3.317a.5.5 0 0 1 .525.85l-2.769 1.824 2.241-1.293a.5.5 0 0 1 .528.848l-3.363 2.258 2.835-1.637a.5.5 0 0 1 .541.84l-5.743 4.11 5.2-3a.5.5 0 0 1 .535.844l-2.923 2.026 2.388-1.379a.5.5 0 0 1 .537.842l-2.443 1.714.742-.428a.5.5 0 0 1 .5.865l-10.55 6.09a.5.5 0 0 1 -.248.065z" fill="#42838e"/><path d="m30.03 43.324a.5.5 0 0 1 -.289-.908l2.052-1.45-1.515.874a.5.5 0 0 1 -.546-.835l3.66-2.692-3.116 1.8a.5.5 0 0 1 -.54-.84l2.372-1.688-1.834 1.059a.5.5 0 0 1 -.547-.834l3.955-2.935-3.41 1.968a.5.5 0 0 1 -.552-.83l4.68-3.563-4.13 2.384a.5.5 0 0 1 -.551-.834l4.426-3.335-3.877 2.235a.5.5 0 0 1 -.543-.838l7.6-5.5a.5.5 0 0 1 .217-.613l3.137-1.811a.5.5 0 0 1 .543.839l-3.049 2.206 2.542-1.468a.5.5 0 0 1 .551.833l-4.426 3.335 3.876-2.237a.5.5 0 0 1 .552.831l-4.681 3.562 4.129-2.384a.5.5 0 0 1 .548.834l-3.946 2.931 3.4-1.964a.5.5 0 0 1 .54.84l-2.368 1.687 1.831-1.056a.5.5 0 0 1 .546.835l-3.667 2.694 3.117-1.8a.5.5 0 0 1 .539.841l-7.2 5.088a.5.5 0 0 1 -.216.611l-3.566 2.06a.491.491 0 0 1 -.244.068z" fill="#266677"/><path d="m29.586 31.768a.5.5 0 0 1 -.307-.895l4.415-3.434-5.494 3.171a.5.5 0 0 1 -.56-.825l4.7-3.721-5.871 3.39a.5.5 0 0 1 -.55-.833l3.669-2.749-4.548 2.628a.5.5 0 0 1 -.552-.832l3.9-2.952-4.836 2.792a.5.5 0 0 1 -.538-.842l1.586-1.115-2.132 1.231a.5.5 0 0 1 -.541-.84l2.278-1.629-2.915 1.687a.5.5 0 0 1 -.55-.833l3.68-2.756-4.562 2.634a.5.5 0 0 1 -.54-.841l6.636-4.735a.5.5 0 0 1 .2-.652l3.757-2.168a.5.5 0 0 1 .54.84l-2.095 1.5 2.818-1.627a.5.5 0 0 1 .55.834l-3.68 2.755 4.557-2.63a.5.5 0 0 1 .541.839l-2.277 1.628 2.908-1.688a.5.5 0 0 1 .539.842l-1.585 1.114 2.128-1.229a.5.5 0 0 1 .552.832l-3.9 2.951 4.828-2.788a.5.5 0 0 1 .55.833l-3.67 2.75 4.546-2.625a.5.5 0 0 1 .56.825l-4.7 3.723 5.868-3.389a.5.5 0 0 1 .557.828l-4.546 3.533a.5.5 0 0 1 .357.922l-6.021 3.478a.493.493 0 0 1 -.25.068z" fill="#347584"/><path d="m13.027 19.358a.5.5 0 0 1 -.339-.868l1.628-1.5-1.043.6a.5.5 0 0 1 -.566-.82l.375-.307a.493.493 0 0 1 -.468-.2.5.5 0 0 1 .076-.667l2.391-2.1a.492.492 0 0 1 -.11-.133.5.5 0 0 1 .182-.683l2.536-1.464a.5.5 0 0 1 .581.809l-1.128.991.579-.334a.5.5 0 0 1 .566.82l-.377.308a.5.5 0 0 1 .4.864l-1.628 1.5 1.039-.6a.5.5 0 0 1 .5.867l-4.944 2.854a.5.5 0 0 1 -.25.063z" fill="#266677"/><path d="m12.243 14.685a.5.5 0 0 1 -.384-.82l1.84-2.209-3 1.732a.5.5 0 0 1 -.575-.813l.337-.287-.742.428a.5.5 0 0 1 -.626-.763l1.687-1.919-.541.312a.5.5 0 0 1 -.5-.867l3.172-1.831a.5.5 0 0 1 .626.764l-1.686 1.919 2.8-1.62a.5.5 0 0 1 .575.813l-.335.288.734-.425a.5.5 0 0 1 .634.753l-1.839 2.209 2.964-1.712a.5.5 0 0 1 .5.866l-5.4 3.115a.5.5 0 0 1 -.241.067z" fill="#347584"/><path d="m46.788 15.059a.5.5 0 0 1 -.323-.882l.226-.192-.608.351a.5.5 0 0 1 -.57-.816l.045-.039-.392.227a.5.5 0 0 1 -.609-.781l1.513-1.565-2.348 1.356a.5.5 0 0 1 -.626-.763l1.688-1.924-.545.315a.5.5 0 0 1 -.5-.867l3.171-1.831a.5.5 0 0 1 .626.763l-1.689 1.925 2.811-1.623a.5.5 0 0 1 .61.781l-1.514 1.566 2.338-1.351a.5.5 0 0 1 .57.817l-.043.037.381-.222a.5.5 0 0 1 .573.815l-1.822 1.544a.453.453 0 0 1 .076.1.5.5 0 0 1 -.182.683l-2.607 1.505a.5.5 0 0 1 -.25.071z" fill="#347584"/><path d="m47.029 20.2a.5.5 0 0 1 -.341-.867l1.712-1.588-1.122.648a.5.5 0 0 1 -.593-.8l1.864-1.765-1.275.736a.5.5 0 0 1 -.587-.8l2.449-2.236a.5.5 0 0 1 .02-.854l2.536-1.464a.5.5 0 0 1 .587.8l-1.519 1.39.961-.554a.5.5 0 0 1 .593.8l-1.863 1.765 1.27-.734a.5.5 0 0 1 .591.8l-1.71 1.59.079-.046a.5.5 0 0 1 .5.866l-3.9 2.253a.5.5 0 0 1 -.252.06z" fill="#266677"/><path d="m29.089 53.579a.5.5 0 0 1 -.356-.851l1.418-1.428-2.2 1.267a.5.5 0 0 1 -.585-.8l.809-.731-1.336.772a.5.5 0 0 1 -.635-.752l1.775-2.134-.745.43a.5.5 0 0 1 -.5-.866l3.171-1.83a.5.5 0 0 1 .635.752l-1.77 2.127 3.009-1.735a.5.5 0 0 1 .585.8l-.807.728 1.327-.766a.5.5 0 0 1 .6.785l-1.414 1.433 2.187-1.261a.5.5 0 0 1 .5.865l-5.418 3.128a.489.489 0 0 1 -.25.067z" fill="#347584"/><path d="m30.029 59.31a.5.5 0 0 1 -.317-.887l.4-.327a.5.5 0 0 1 -.433-.851l2.109-2.063-1.515.874a.5.5 0 0 1 -.605-.785l2.64-2.672a.5.5 0 0 1 -.153-.923l2.536-1.464a.5.5 0 0 1 .609.788l-2.311 2.339 1.737-1a.5.5 0 0 1 .6.79l-2.109 2.064 1.51-.872a.5.5 0 0 1 .567.82l-1.944 1.587a.469.469 0 0 1 .088.113.5.5 0 0 1 -.182.682l-2.977 1.719a.493.493 0 0 1 -.25.068z" fill="#266677"/><path d="m13.029 52.31a.5.5 0 0 1 -.339-.869l1.616-1.486-1.031.595a.5.5 0 0 1 -.6-.793l1.975-1.9-1.383.8a.5.5 0 0 1 -.591-.8l2.483-2.312a.491.491 0 0 1 -.192-.189.5.5 0 0 1 .182-.682l2.536-1.464a.5.5 0 0 1 .591.8l-1.7 1.582 1.14-.657a.5.5 0 0 1 .6.793l-1.973 1.9 1.377-.8a.5.5 0 0 1 .589.8l-2.156 1.983a.5.5 0 0 1 .1.91l-2.977 1.719a.49.49 0 0 1 -.247.07z" fill="#266677"/><path d="m12.788 47.059a.5.5 0 0 1 -.327-.878l.448-.389-.88.508a.5.5 0 0 1 -.609-.78l1.5-1.546-2.32 1.341a.5.5 0 0 1 -.59-.8l1.011-.94-1.611.925a.5.5 0 0 1 -.6-.787l1.332-1.327a.506.506 0 0 1 -.582-.228.5.5 0 0 1 .182-.683l3.172-1.83a.5.5 0 0 1 .6.788l-1.3 1.291 2.13-1.23a.5.5 0 0 1 .589.8l-1.011.94 1.6-.922a.5.5 0 0 1 .61.781l-1.5 1.546 2.314-1.336a.5.5 0 0 1 .577.81l-1.8 1.562a.47.47 0 0 1 .1.126.5.5 0 0 1 -.182.682l-2.607 1.505a.49.49 0 0 1 -.246.071z" fill="#347584"/><path d="m47.027 51.385a.5.5 0 0 1 -.327-.879l.947-.817-.374.215a.5.5 0 0 1 -.577-.81l1-.865-.423.244a.5.5 0 0 1 -.584-.806l2.411-2.158a.485.485 0 0 1 -.133-.151.5.5 0 0 1 .182-.682l2.536-1.464a.5.5 0 0 1 .583.806l-1.307 1.168.756-.436a.5.5 0 0 1 .577.811l-1 .866.421-.243a.5.5 0 0 1 .585.816l-.943.814.366-.211a.5.5 0 0 1 .5.865l-4.944 2.854a.49.49 0 0 1 -.252.063z" fill="#266677"/><path d="m45.971 46.5a.5.5 0 0 1 -.323-.883l.159-.133-.527.3a.5.5 0 0 1 -.582-.807l.677-.6-1.166.673a.5.5 0 0 1 -.579-.809l.557-.488-1.015.586a.5.5 0 0 1 -.585-.8l1.267-1.143a.5.5 0 0 1 -.115-.915l3.171-1.83a.5.5 0 0 1 .585.8l-.727.657 1.344-.776a.5.5 0 0 1 .579.809l-.56.491 1.012-.584a.5.5 0 0 1 .582.806l-.676.6 1.157-.668a.5.5 0 0 1 .572.816l-.156.13.517-.3a.5.5 0 0 1 .5.865l-5.418 3.129a.489.489 0 0 1 -.25.074z" fill="#347584"/><path d="m6.028 35.983a.5.5 0 0 1 -.318-.883l.43-.356a.488.488 0 0 1 -.508-.178.5.5 0 0 1 .033-.655l2.5-2.6-1.894 1.089a.5.5 0 0 1 -.581-.8l2.392-2.1a.464.464 0 0 1 -.111-.133.5.5 0 0 1 .182-.683l2.536-1.464a.5.5 0 0 1 .581.809l-1.134 1 .585-.337a.5.5 0 0 1 .61.779l-2.5 2.6 1.889-1.091a.5.5 0 0 1 .568.819l-.533.44a.521.521 0 0 1 .483.248.5.5 0 0 1 -.182.682l-4.778 2.747a.491.491 0 0 1 -.25.067z" fill="#266677"/><path d="m5.225 30.672a.5.5 0 0 1 -.381-.824l1.811-2.132-2.928 1.691a.5.5 0 0 1 -.576-.813l.349-.294-.751.433a.5.5 0 0 1 -.627-.761l1.707-1.964-.585.338a.5.5 0 0 1 -.5-.867l3.172-1.831a.5.5 0 0 1 .627.762l-1.712 1.964 2.85-1.645a.5.5 0 0 1 .575.813l-.345.294.745-.43a.5.5 0 0 1 .631.757l-1.811 2.137 2.9-1.673a.5.5 0 1 1 .5.866l-5.4 3.117a.5.5 0 0 1 -.251.062z" fill="#347584"/><path d="m53.788 31.059a.5.5 0 0 1 -.335-.872l.78-.7-1.3.75a.5.5 0 0 1 -.571-.817l.052-.043-.4.23a.5.5 0 0 1 -.612-.778l1.549-1.619-2.404 1.39a.5.5 0 0 1 -.613-.777l1.5-1.591-.2.116a.5.5 0 0 1 -.5-.867l3.171-1.831a.5.5 0 0 1 .613.777l-1.505 1.592 2.466-1.425a.5.5 0 0 1 .612.779l-1.544 1.617 2.4-1.384a.5.5 0 0 1 .571.817l-.051.043.391-.227a.5.5 0 0 1 .585.8l-1.773 1.597a.5.5 0 0 1 -.025.851l-2.607 1.505a.5.5 0 0 1 -.25.067z" fill="#347584"/><path d="m54.028 35.819a.5.5 0 0 1 -.341-.865l1.768-1.654-1.181.681a.5.5 0 0 1 -.585-.8l1.433-1.292-.852.491a.5.5 0 0 1 -.58-.81l2.383-2.08a.483.483 0 0 1 -.1-.126.5.5 0 0 1 .182-.683l2.536-1.464a.5.5 0 0 1 .58.809l-1.061.927.513-.3a.5.5 0 0 1 .585.8l-1.429 1.289.844-.487a.5.5 0 0 1 .591.8l-1.769 1.657 1.107-.639a.5.5 0 1 1 .5.865l-4.872 2.813a.489.489 0 0 1 -.252.068z" fill="#266677"/><path d="m29.817 1.411-.057-.033-.051.036a.092.092 0 0 0 .108-.003z" fill="#262626"/><path d="m19.554 37.006 3.82 2.565 4.21 2.827c.824.553 1.68 1.353 2.754 1.119a8.309 8.309 0 0 0 2.391-1.445l4.442-2.983c1.224-.822 2.5-1.6 3.687-2.476.922-.686.879-1.47.879-2.5v-9.441a.446.446 0 0 0 -.019-.074.374.374 0 0 0 .006-.075 1.6 1.6 0 0 0 -.131-.409.156.156 0 0 0 -.028-.05c-.38-.752-1.291-1.177-1.976-1.638l-4.189-2.815-3.771-2.533a2.268 2.268 0 0 0 -2.724-.237c-2.489 1.465-4.838 3.249-7.235 4.859-.886.6-1.862 1.139-2.693 1.809-.848.682-.71 1.587-.71 2.55 0 3.022-.127 6.073 0 9.092.033.971.558 1.365 1.287 1.855zm7.251 3.25-4.1-2.751a19.1 19.1 0 0 1 -2.6-1.749c-.567-.544-.367-1.43-.367-2.163v-4.742c0-1.132-.083-2.311-.019-3.45l9.55 6.411v10.13c-.844-.52-1.651-1.142-2.464-1.686zm13.458-4.951c-.148.671-1.046 1.024-1.567 1.373l-7.6 5.1c-.095.065-.228.176-.366.285v-10.511l9.531-6.4v7.068a15.438 15.438 0 0 1 .002 3.085zm-12.094-16.586c.543-.365 1.372-1.2 1.948-1.034a5.053 5.053 0 0 1 1.12.752q.98.657 1.958 1.315l4.547 3.053a9.4 9.4 0 0 1 2.276 1.587l-9.824 6.595-10.114-6.787a4.315 4.315 0 0 1 .63-.47z" fill="#262626"/><path d="m1.627 33.924c1.038.722 2.06 1.474 3.116 2.168 1.107.728 2.2.023 3.151-.663.008.028.019.061.026.088.075.307.158.612.247.915q.249.846.566 1.669a21.954 21.954 0 0 0 1.474 3.059l-1.664 1.158a3.082 3.082 0 0 0 -1.136 1.069.14.14 0 0 0 -.042.149 1.283 1.283 0 0 0 -.092.329v3.606a3.019 3.019 0 0 0 .171 1.5 3.675 3.675 0 0 0 1.13.932c1.077.749 2.134 1.542 3.237 2.252a1.731 1.731 0 0 0 .653.247.782.782 0 0 0 .463.1 1.324 1.324 0 0 0 .553-.2 9.113 9.113 0 0 0 1.939-1.2l1.894-1.317c.257-.18.573-.366.835-.587a22.344 22.344 0 0 0 6.128 2.494v2.894a2.275 2.275 0 0 0 .238 1.47 5.025 5.025 0 0 0 1.1.83c1.031.718 2.039 1.521 3.116 2.168a1.657 1.657 0 0 0 .593.212.626.626 0 0 0 .594.207c.216-.021.659-.174.766-.437a12.435 12.435 0 0 0 1.837-1.185l1.908-1.327a4.228 4.228 0 0 0 1.084-.842 2.557 2.557 0 0 0 .209-1.484v-2.286c0-.152.005-.307.009-.461a23.738 23.738 0 0 0 5.793-2.383 4.5 4.5 0 0 0 1.044.821c1.076.749 2.134 1.542 3.237 2.252 1.29.83 2.59-.362 3.6-1.068l1.893-1.318a4.583 4.583 0 0 0 1.172-.923 2.513 2.513 0 0 0 .248-1.531v-2.284c0-.441.011-.883 0-1.323a1.256 1.256 0 0 0 -.128-.52.082.082 0 0 0 -.052-.088 2.5 2.5 0 0 0 -.778-.741l-2.027-1.41a22.053 22.053 0 0 0 1.541-3.2q.325-.85.578-1.728c.041-.142.076-.286.114-.428.278.191.553.388.836.57 1.3.834 2.586-.352 3.606-1.062l1.894-1.318a4.48 4.48 0 0 0 1.17-.929 2.549 2.549 0 0 0 .247-1.535v-2.284c0-.44.012-.882 0-1.322a1.3 1.3 0 0 0 -.113-.5.22.22 0 0 0 -.1-.17 2.667 2.667 0 0 0 -.746-.692l-3.4-2.364c-1.188-.827-2.273-.13-3.27.579-.071-.292-.147-.582-.23-.87q-.26-.9-.6-1.783a22.634 22.634 0 0 0 -1.459-3.038q.758-.528 1.516-1.055a4.267 4.267 0 0 0 1.166-.944 2.631 2.631 0 0 0 .244-1.545v-2.285c0-.44.014-.882 0-1.322a1.384 1.384 0 0 0 -.11-.5.366.366 0 0 0 -.151-.287c-.006-.006-.016 0-.023-.01a3.047 3.047 0 0 0 -.686-.595l-3.4-2.365c-1.391-.968-2.6.1-3.741.894l-2.083 1.449c-.224.156-.445.313-.646.484a22.565 22.565 0 0 0 -6.166-2.545v-2.323c0-.437.031-.887 0-1.323a1.119 1.119 0 0 0 -.11-.421.263.263 0 0 0 -.132-.2h-.011a3.277 3.277 0 0 0 -.724-.609c-1.119-.778-2.226-1.577-3.358-2.336-1.372-.923-2.751.277-3.86 1.052l-2.084 1.449a6.016 6.016 0 0 0 -.709.539c-.246.128-.415.309-.342.482a1.3 1.3 0 0 0 -.114.432v3.323a23.153 23.153 0 0 0 -5.953 2.5 4.472 4.472 0 0 0 -.514-.4c-1.128-.784-2.247-1.581-3.383-2.353-1.4-.954-2.719.182-3.863.978l-2.058 1.424a3.318 3.318 0 0 0 -1.054.923c-.071.059-.106.12-.069.174a1.155 1.155 0 0 0 -.1.348c0 .015.011.023.012.036s-.017.031-.017.048v3.607a2.31 2.31 0 0 0 .244 1.493 5.025 5.025 0 0 0 1.1.83c.534.372 1.064.757 1.6 1.136a22.452 22.452 0 0 0 -1.469 3.065c-.219.569-.417 1.144-.589 1.729-.058.2-.108.393-.16.589l-.581-.4c-1.423-.986-2.668.112-3.829.92q-1.02.708-2.038 1.418a3.748 3.748 0 0 0 -1.06.917c-.106.088-.176.188-.124.273a1.243 1.243 0 0 0 -.095.327c0 .021.012.033.015.052s-.015.031-.015.048v3.607a2.346 2.346 0 0 0 .249 1.509 4.882 4.882 0 0 0 1.102.826zm1.555-.416c-.356-.247-.741-.477-1.078-.75-.477-.386-.38-.968-.38-1.517v-2.728l3.552 2.466v3.986q-1.048-.727-2.094-1.457zm7.094-4.794c0 1.191.084 2.415 0 3.6-.032.445-.207.555-.532.781l-1.524 1.063-1.496 1.042v-4.478l3.559-2.472c-.001.162-.007.321-.007.464zm-.746 14.048 1.689-1.175 1.422-.989c.053-.037.175-.16.243-.169-.113.015.163.156.253.215 1.025.68 2.021 1.407 3.03 2.109a6.263 6.263 0 0 1 .859.606.66.66 0 0 1 .059.093l-3.883 2.7-4.252-2.952a3.661 3.661 0 0 1 .58-.438zm.681 6.748a11.73 11.73 0 0 1 -1.192-.829c-.384-.348-.292-.861-.292-1.327v-2.848l3.541 2.46v3.976q-1.027-.718-2.057-1.432zm6.579-.495-1.534 1.067-1.524 1.061v-4.457l3.55-2.466c0 .161-.009.322-.009.47 0 1.175.035 2.356 0 3.531a.836.836 0 0 1 -.483.794zm12.952-1.667a.228.228 0 0 1 .164.085 1.087 1.087 0 0 0 .158.11c1.042.71 2.071 1.441 3.106 2.161a3.945 3.945 0 0 1 .9.686l-3.908 2.71-4.27-2.967a2.768 2.768 0 0 1 .762-.64l1.665-1.158zm.021-.014.048-.034c.088-.061.185-.117.267-.186a1.557 1.557 0 0 1 -.315.22zm-2.527 9.244c-.369-.256-.775-.492-1.12-.779-.479-.4-.392-.958-.392-1.513v-2.764l3.546 2.463v3.995c-.1-.06-.192-.12-.279-.181zm7.04-1.261a1.16 1.16 0 0 1 -.628.975l-1.492 1.038-1.426.993v-4.563l3.553-2.469v.266a.1.1 0 0 0 0 .057v.141c-.007 1.185.047 2.381-.007 3.562zm9.939-5.791a11.346 11.346 0 0 1 -1.191-.829c-.39-.355-.3-.878-.3-1.351v-2.856l3.551 2.466v3.944c-.675-.478-1.396-.912-2.06-1.374zm7.06-1.3a.851.851 0 0 1 -.478.814l-1.534 1.07-1.539 1.07v-4.548l3.558-2.471c0 .183-.007.367-.007.538 0 1.175.035 2.356 0 3.53zm-.251-4.878a.72.72 0 0 1 .088.141l-3.879 2.694-4.306-2.983a3.1 3.1 0 0 1 .6-.46l1.689-1.175 1.422-.99c.3-.211.219-.13.5.058 1.02.687 2.02 1.406 3.03 2.109a5.843 5.843 0 0 1 .856.609zm.189-9.833a11.5 11.5 0 0 1 -1.191-.829c-.387-.351-.3-.869-.3-1.339v-2.83l3.55 2.466v3.917c-.672-.482-1.392-.918-2.059-1.382zm7.061-1.293a.844.844 0 0 1 -.481.8l-1.534 1.078-1.535 1.068v-4.433l3.559-2.472c0 .148-.009.294-.009.432 0 1.175.035 2.355 0 3.53zm-4.139-7.588c1.02.686 2.02 1.405 3.03 2.108a6.155 6.155 0 0 1 .86.61.655.655 0 0 1 .041.066l-3.888 2.7-4.23-2.938a3.635 3.635 0 0 1 .578-.434l1.384-.963a.8.8 0 0 0 .27-.187l.035-.025 1.422-.99c.302-.207.22-.132.498.056zm-2.864-8.424c-.013.435-.173.56-.487.779l-1.534 1.07-1.515 1.054v-4.23l3.544-2.462c0 .089-.008.179-.008.262 0 1.175.035 2.356 0 3.53zm-7.064 1.29a11.87 11.87 0 0 1 -1.191-.828c-.38-.342-.287-.846-.287-1.306v-2.79l3.536 2.456v3.9zm-.671-6.71 1.689-1.18 1.422-.989c.055-.038.174-.158.243-.169-.106.016.157.144.25.206 1.027.675 2.022 1.406 3.031 2.108a8.023 8.023 0 0 1 .806.562l-3.869 2.687-4.108-2.853a5.424 5.424 0 0 1 .536-.376zm-16.3-.222c-.368-.256-.775-.491-1.119-.779-.44-.366-.4-.871-.39-1.382 0-.006 0-.011 0-.017 0-.033 0-.065 0-.1v-2.758l3.546 2.468v4.029c-.691-.475-1.361-.992-2.041-1.465zm3.5-2.251v-.529l3.561-2.474c0 .172-.012.342-.012.489 0 1.166.062 2.35 0 3.514a1.052 1.052 0 0 1 -.588.9l-1.534 1.067-1.427.993zm-4.1-4.758 1.684-1.179q.695-.483 1.389-.966a.164.164 0 0 1 -.046-.087 1.021 1.021 0 0 1 .1.051h.007a1.113 1.113 0 0 0 .15-.1c.129-.128.016.076-.1.142.112.063.246.142.273.161l3.084 2.145a4.5 4.5 0 0 1 .878.658l-3.9 2.71-4.248-2.956a2.988 2.988 0 0 1 .724-.583zm-9.355 9.159c0 1.194.07 2.411 0 3.6a1.043 1.043 0 0 1 -.595.878l-1.492 1.034-1.47 1.023v-4.6l3.558-2.472c.002.184-.006.368-.006.533zm-7.713-2.087 1.665-1.158 1.467-1.02c.008-.006.109-.082.19-.139a.8.8 0 0 0 .03.148c.017.041.118.075.151.105a13.183 13.183 0 0 0 1.4.972l1.71 1.189a3.934 3.934 0 0 1 .913.694c.011.014.013.033.023.048l-3.891 2.7-4.314-3a2.692 2.692 0 0 1 .656-.539zm-.46 6.143c-.479-.4-.384-.974-.384-1.533v-2.741l3.552 2.467v4.016l-.379-.264-.209-.145a.466.466 0 0 0 -.2-.135l-1.306-.909c-.35-.252-.741-.479-1.074-.756zm.264 7.826c.067-.268.138-.536.215-.8.167-.582.358-1.158.576-1.722a20.943 20.943 0 0 1 1.091-2.332c.162.108.32.226.485.33a1.735 1.735 0 0 0 .658.241.817.817 0 0 0 .34.037 1.7 1.7 0 0 0 .184-.026c.03 0 .058-.008.088-.014a7.012 7.012 0 0 0 2.519-1.394l1.855-1.291a4.766 4.766 0 0 0 1.083-.837 2.34 2.34 0 0 0 .258-1.506v-2.267c0-.438.026-.888 0-1.327a20.944 20.944 0 0 1 5.546-2.426 1.323 1.323 0 0 0 .246.8 5.046 5.046 0 0 0 1.1.829c1.034.72 2.046 1.5 3.116 2.169a1.728 1.728 0 0 0 .615.227.669.669 0 0 0 .561.148 1.248 1.248 0 0 0 .739-.349 11.918 11.918 0 0 0 1.87-1.2l1.893-1.318a4.059 4.059 0 0 0 1.1-.882 1.157 1.157 0 0 0 .158-.375 21.723 21.723 0 0 1 5.6 2.519c0 .008-.005.013-.006.021v3.606a3.052 3.052 0 0 0 .174 1.516 3.682 3.682 0 0 0 1.133.939c1.076.749 2.134 1.542 3.237 2.252a1.753 1.753 0 0 0 .644.248.745.745 0 0 0 .48.124 1.155 1.155 0 0 0 .58-.235 5.052 5.052 0 0 0 1.086-.6 21.579 21.579 0 0 1 1.213 2.575c.211.549.4 1.106.566 1.669q.117.4.219.8.059.229.111.462c.015.064.048.162.073.251l-1.24.862a3.509 3.509 0 0 0 -1.074.955c-.094.085-.153.18-.108.261a1.253 1.253 0 0 0 -.091.322v3.607a3.017 3.017 0 0 0 .168 1.493 3.7 3.7 0 0 0 1.13.928c.412.286.82.58 1.23.872a5.213 5.213 0 0 1 -.192.786q-.1.4-.219.8-.256.873-.587 1.723a21.8 21.8 0 0 1 -1.017 2.194l-.418-.291c-1.372-.954-2.618.137-3.735.915l-2.075 1.456a3.034 3.034 0 0 0 -1.15 1.094.091.091 0 0 0 -.025.09 1.239 1.239 0 0 0 -.1.344v3.607a6.719 6.719 0 0 0 .023 1.038 20.574 20.574 0 0 1 -5.567 2.463c0-.131 0-.263-.007-.392a1.091 1.091 0 0 0 -.111-.418.231.231 0 0 0 -.128-.189h-.008a3.285 3.285 0 0 0 -.726-.609c-1.119-.779-2.226-1.578-3.358-2.337-1.348-.9-2.781.326-3.871 1.085l-2.1 1.463c-.222.154-.438.3-.628.461-.132.063-.566.343-.407.532a1.3 1.3 0 0 0 -.051.189 21.851 21.851 0 0 1 -5.636-2.566 6.967 6.967 0 0 0 .023-.893v-2.282c0-.44.013-.882 0-1.322a1.314 1.314 0 0 0 -.121-.515.151.151 0 0 0 -.079-.134 2.561 2.561 0 0 0 -.764-.725l-3.4-2.364c-1.068-.743-2.043-.265-2.952.352a21.857 21.857 0 0 1 -1.23-2.6c-.211-.549-.4-1.106-.566-1.669-.09-.3-.172-.608-.248-.915-.048-.2-.117-.42-.152-.634l1.122-.781a4.614 4.614 0 0 0 1.137-.891 2.521 2.521 0 0 0 .249-1.537v-2.271c0-.471.036-.956 0-1.425a1.18 1.18 0 0 0 -.111-.426.214.214 0 0 0 -.067-.1 2.493 2.493 0 0 0 -.742-.69l-1.585-1.108c.032-.224.108-.463.158-.67zm-6.854 2.119 1.689-1.175 1.422-.989c.3-.2.182-.147.446.028.577.384 1.146.781 1.713 1.181a.388.388 0 0 0 .217.153c.392.277.783.554 1.176.827a4.454 4.454 0 0 1 .894.662.119.119 0 0 1 .008.016l-3.9 2.707-4.253-2.955a3.08 3.08 0 0 1 .588-.455z" fill="#262626"/><path d="m26.468 24.584 3-2.013.428-.287c.222-.149.4-.5.1-.675a1.045 1.045 0 0 0 -1.034.107l-3 2.013-.428.287c-.222.149-.4.5-.1.675a1.045 1.045 0 0 0 1.034-.107z" fill="#262626"/><path d="m23.069 30.487a1.068 1.068 0 0 0 -.545.2c-.11.087-.257.222-.257.375v3c0 .348.356.486.664.453a1.068 1.068 0 0 0 .545-.2c.11-.087.257-.222.257-.375v-3c0-.348-.356-.486-.664-.453z" fill="#262626"/></svg>