<svg height="506pt" viewBox="-67 0 506 506.29577" width="506pt" xmlns="http://www.w3.org/2000/svg"><path d="m167.894531 392.773438c-1.792969.003906-3.398437-1.113282-4.015625-2.796876-.621094-1.683593-.121094-3.574218 1.25-4.730468l25.625-21.683594-43.691406 25.234375c-1.964844 1.128906-4.46875.519531-5.703125-1.382813-1.230469-1.902343-.761719-4.4375 1.070313-5.769531l16.957031-12.226562-12.324219 7.105469c-1.953125 1.113281-4.4375.515624-5.671875-1.363282-1.234375-1.882812-.800781-4.398437.996094-5.753906l25.269531-18.773438-20.59375 11.914063c-1.921875 1.085937-4.359375.519531-5.609375-1.300781-1.25-1.820313-.90625-4.296875.796875-5.703125l42.351562-34.195313-37.546874 21.675782c-1.972657 1.121093-4.480469.496093-5.703126-1.417969-1.21875-1.914063-.726562-4.449219 1.121094-5.769531l5.761719-4.035157-1.179687.675781c-1.945313 1.125-4.433594.542969-5.683594-1.328124-1.246094-1.871094-.828125-4.386719.957031-5.753907l32.800781-25.117187-28.074218 16.214844c-1.960938 1.117187-4.457032.511718-5.6875-1.382813-1.230469-1.894531-.769532-4.417969 1.046874-5.757813l19.4375-14.140624-14.796874 8.53125c-1.9375 1.132812-4.417969.574218-5.679688-1.28125-1.261719-1.855469-.871094-4.371094.894531-5.757813l39.328125-31.15625-34.535156 19.953125c-1.933594 1.085938-4.378906.511719-5.621094-1.324219-1.246094-1.839843-.875-4.324219.851563-5.714843l38.109375-29.988282-33.339844 19.242188c-1.964844 1.148437-4.480469.550781-5.722656-1.355469-1.242188-1.90625-.769532-4.453125 1.074218-5.785156l19.855469-14.507813-15.207031 8.824219c-1.972656 1.121094-4.480469.496094-5.699219-1.417969-1.222656-1.914062-.730469-4.449218 1.117188-5.765625l6.101562-4.269531-1.519531.855469c-1.941406 1.160156-4.457031.597656-5.722656-1.28125-1.265625-1.878907-.84375-4.417969.964844-5.785157l36.382812-28.363281-31.625 18.277344c-1.972656 1.15625-4.507812.554687-5.746094-1.371094-1.238281-1.921875-.738281-4.480469 1.132813-5.796875l12.796875-9.113281-8.148438 4.710937c-1.941406 1.132813-4.433594.558594-5.6875-1.304687-1.253906-1.867187-.847656-4.390625.933594-5.761719l36.125-28.160156-31.40625 18.148438c-1.929688 1.140624-4.417969.589843-5.6875-1.261719-1.265625-1.851563-.882812-4.367188.875-5.757813l42.242188-34.136718-37.429688 21.652343c-1.972656 1.117188-4.480469.496094-5.699219-1.417969-1.222656-1.914062-.730469-4.449218 1.117188-5.769531l5.789062-4.0625-1.207031.691407c-1.949219 1.136718-4.445312.554687-5.695312-1.324219-1.25-1.878907-.820313-4.40625.976562-5.765625l22.605469-17.21875-17.917969 10.324218c-1.878906 1.046876-4.246094.53125-5.519531-1.203124-1.269531-1.734376-1.054688-4.144532.507812-5.625l18.679688-16.980469-13.652344 7.894531c-1.765625 1.023438-4.011719.648438-5.355469-.890625-1.339844-1.539063-1.402344-3.8125-.148437-5.425781l8.105469-10.425782-2.558594 1.507813c-1.546875.898437-3.492188.734375-4.867188-.40625-1.375-1.144531-1.894531-3.027344-1.292968-4.710937l1.707031-4.910157c-1.25-.808593-1.984375-2.207031-1.945313-3.691406.042969-1.488281.851563-2.84375 2.140625-3.585937l4.265625-2.472657c1.546875-.898437 3.492188-.738281 4.867188.40625 1.378906 1.144531 1.894531 3.027344 1.292968 4.710938l-.535156 1.546875 11.578125-6.691406c1.769531-1.023438 4.015625-.648438 5.355469.894531s1.398438 3.820312.140625 5.429687l-8.097656 10.417969 29.125-16.820313c1.878906-1.046874 4.242187-.53125 5.515625 1.203126 1.273437 1.734374 1.054687 4.144531-.507813 5.625l-18.671875 16.980468 41.414063-23.894531c1.949219-1.132813 4.445312-.550781 5.695312 1.324219 1.25 1.878906.824219 4.40625-.976562 5.769531l-22.613281 17.226563 26.949218-15.554688c1.972656-1.121094 4.480469-.496094 5.703125 1.417969 1.21875 1.914062.726563 4.449219-1.121093 5.765625l-5.796876 4.070312 1.222657-.707031c1.929687-1.109375 4.386719-.550781 5.648437 1.285156 1.257813 1.835938.894532 4.328125-.835937 5.730469l-42.25 34.132812 37.460937-21.625c1.945313-1.132812 4.433594-.558593 5.691406 1.304688 1.253907 1.867188.84375 4.386719-.9375 5.761719l-36.113281 28.058593 31.371094-18.117187c1.976563-1.175781 4.53125-.574219 5.773437 1.359375 1.242188 1.9375.726563 4.511719-1.167968 5.816406l-12.800782 9.105469 8.175782-4.71875c1.945312-1.132813 4.433594-.5625 5.6875 1.304687 1.257812 1.867188.847656 4.386719-.933594 5.761719l-36.386719 28.363281 31.640625-18.277343c1.988282-1.269531 4.625-.683594 5.894532 1.300781 1.265624 1.988281.683593 4.625-1.300782 5.894531l-6.078125 4.265625 1.496094-.855468c1.96875-1.160157 4.5-.5625 5.746094 1.351562 1.242187 1.917969.757812 4.476562-1.105469 5.800781l-19.855469 14.507813 15.222657-8.789063c1.9375-1.140625 4.429687-.578125 5.691406 1.28125 1.265625 1.863281.863281 4.386719-.914063 5.765625l-38.101562 29.96875 33.339843-19.25c1.9375-1.132812 4.421876-.570312 5.683594 1.285156 1.257813 1.855469.867188 4.371094-.894531 5.753907l-39.339844 31.164062 34.570313-19.960937c1.964844-1.160156 4.5-.5625 5.746094 1.351562 1.242187 1.917969.757812 4.476563-1.105469 5.800782l-19.414063 14.070312 14.804688-8.53125c1.953125-1.164062 4.476562-.59375 5.738281 1.296875 1.257813 1.890625.816406 4.4375-1.011719 5.792969l-32.773437 25.089844 28.066406-16.214844c1.96875-1.082032 4.4375-.449219 5.648437 1.445312 1.210938 1.890625.742188 4.398438-1.066406 5.730469l-5.796875 4.070313 1.222657-.699219c1.925781-1.105469 4.378906-.546875 5.636718 1.28125 1.257813 1.832031.902344 4.320312-.816406 5.726562l-42.367188 34.191407 37.546876-21.683594c1.953124-1.109375 4.4375-.511719 5.671874 1.367187 1.238282 1.878907.800782 4.394531-.996093 5.75l-25.277344 18.773438 20.617187-11.894531c1.96875-1.128907 4.472657-.523438 5.703126 1.378906 1.234374 1.902344.765624 4.4375-1.070313 5.769531l-16.921875 12.1875 12.308594-7.101563c1.914062-1.109374 4.359375-.574218 5.632812 1.238282 1.273438 1.808594.949219 4.292968-.746094 5.71875l-25.597656 21.675781 20.761719-11.992187c1.878906-1.0625 4.257813-.550782 5.535156 1.1875 1.277344 1.742187 1.054688 4.164062-.519531 5.640624l-10.410156 9.558594 5.410156-3.117187c1.753906-1.003907 3.972656-.636719 5.3125.875 1.339844 1.515625 1.433594 3.761719.226562 5.378906l-4.507812 5.976563c1.867188-.480469 3.824219.328124 4.804688 1.988281 1.179687 2.039062.480468 4.648437-1.5625 5.828125l-16.917969 9.761718c-1.757813 1.011719-3.984375.652344-5.328125-.863281-1.34375-1.519531-1.4375-3.769531-.21875-5.390625l4.265625-5.675781-20.796875 11.996094c-1.878906 1.078125-4.269532.574219-5.554688-1.171875s-1.058594-4.175782.527344-5.652344l10.402344-9.507812-28.507813 16.425781c-.644531.378906-1.378906.578125-2.125.574219zm0 0" fill="#fdcd56"/><path d="m148.804688 111.242188c-1.789063 0-3.386719-1.109376-4.007813-2.785157-.621094-1.679687-.132813-3.5625 1.226563-4.726562l14.863281-12.738281-13.789063 7.960937c-1.753906 1.015625-3.976562.65625-5.324218-.859375-1.347657-1.511719-1.441407-3.765625-.230469-5.386719l10.566406-14.175781-5.011719 2.894531c-1.53125.886719-3.449218.738281-4.824218-.375s-1.921876-2.960937-1.371094-4.644531l1.871094-5.714844c-1.304688-.777344-2.09375-2.183594-2.082032-3.699218.011719-1.515626.828125-2.910157 2.140625-3.667969l4.265625-2.472657c1.53125-.882812 3.445313-.730468 4.816406.382813 1.375 1.113281 1.917969 2.953125 1.371094 4.632813l-.851562 2.5625 13.292968-7.679688c1.753907-1.015625 3.980469-.65625 5.324219.855469 1.347657 1.515625 1.445313 3.765625.230469 5.390625l-10.5625 14.214844 35.523438-20.480469c1.910156-1.121094 4.363281-.59375 5.640624 1.214843 1.28125 1.804688.964844 4.292969-.726562 5.722657l-14.828125 12.699219 34.183594-19.738282c1.917969-1.101562 4.359375-.554687 5.625 1.257813s.933593 4.296875-.761719 5.714843l-13.132812 10.992188 15.4375-8.917969c1.910156-1.109375 4.351562-.574219 5.625 1.230469 1.273437 1.808594.957031 4.285156-.726563 5.714844l-4.105469 3.5c1.59375-.558594 3.363282-.121094 4.515625 1.109375 1.15625 1.230469 1.476563 3.027343.816407 4.582031l-4.71875 11.203125c2.054687-.4375 4.117187.683594 4.871093 2.644531.75 1.957032-.03125 4.171875-1.847656 5.222656l-9.628906 5.5625c-1.585938.921876-3.585938.722657-4.964844-.492187-1.375-1.214844-1.820313-3.175781-1.101563-4.867187l4.589844-10.894532-28.292968 16.339844c-1.910157 1.105469-4.347657.570312-5.621094-1.230469-1.269532-1.800781-.964844-4.273437.710937-5.707031l3.773438-3.214844-17.691407 10.238282c-1.917968 1.125-4.375.585937-5.648437-1.238282-1.277344-1.820312-.9375-4.316406.777344-5.734375l13.140625-10.988281-31.222656 18.03125c-.648438.367188-1.378907.554688-2.125.554688zm0 0" fill="#cad0d7"/><path d="m154.640625 68.574219c-1.804687 0-3.417969-1.132813-4.023437-2.835938-.605469-1.703125-.074219-3.601562 1.328124-4.742187l19.019532-15.503906-23.890625 13.796874c-1.929688 1.125-4.398438.574219-5.667969-1.261718-1.265625-1.839844-.902344-4.34375.835938-5.742188l16.675781-13.578125-10.898438 6.289063c-1.824219 1.046875-4.140625.605468-5.457031-1.035156-1.3125-1.644532-1.230469-4.003907.191406-5.550782l14.125-15.3125c-2.003906.207032-3.878906-1.015625-4.496094-2.933594-.621093-1.917968.1875-4.007812 1.933594-5.007812l21.746094-12.546875c1.824219-1.046875 4.140625-.605469 5.453125 1.039063 1.316406 1.644531 1.234375 4-.191406 5.550781l-13.242188 14.34375 32.914063-18.96875c1.921875-1.082031 4.351562-.515625 5.601562 1.300781 1.25 1.8125.914063 4.285156-.78125 5.695312l-16.691406 13.550782 23.535156-13.585938c1.925782-1.125 4.398438-.574218 5.664063 1.265625 1.269531 1.835938.902343 4.339844-.835938 5.742188l-19.054687 15.511719 22.546875-13.019532c1.902343-1.105468 4.328125-.585937 5.609375 1.203125 1.28125 1.785157.996094 4.253907-.660156 5.699219l-12.449219 10.921875 12.371093-7.140625c1.660157-.953125 3.753907-.6875 5.117188.65625 1.367188 1.339844 1.671875 3.425781.746094 5.101562l-8.4375 15.242188 4.410156-2.558594c2.039062-1.160156 4.632812-.457031 5.804688 1.574219 1.171874 2.03125.484374 4.628906-1.539063 5.8125l-17.722656 10.242187c-1.660157.953126-3.75.6875-5.117188-.65625-1.367187-1.339843-1.671875-3.429687-.746093-5.105468l8.441406-15.246094-36.539063 21.117188c-1.902343 1.105468-4.332031.585937-5.613281-1.203126-1.28125-1.785156-.996094-4.253906.660156-5.699218l12.460938-10.921875-31.011719 17.917969c-.644531.378906-1.375.578124-2.125.582031zm0 0" fill="#eb5463"/><path d="m183.929688 462.890625c-1.667969 0-3.179688-.96875-3.875-2.480469-.699219-1.515625-.453126-3.292968.632812-4.558594l3.597656-4.214843-3.148437 1.816406c-1.882813 1.164063-4.347657.695313-5.667969-1.085937-1.320312-1.777344-1.0625-4.273438.601562-5.742188l8.941407-8.464844-9.386719 5.402344c-1.878906 1.0625-4.257812.550781-5.535156-1.1875-1.28125-1.742188-1.058594-4.160156.519531-5.640625l27.039063-24.804687-29.984376 17.3125c-1.878906 1.035156-4.230468.515624-5.5-1.214844-1.265624-1.730469-1.050781-4.132813.5-5.609375l11.023438-9.949219-11.621094 6.707031c-1.660156.960938-3.757812.695313-5.128906-.648437-1.367188-1.34375-1.671875-3.433594-.742188-5.113282l7.296876-13.175781-9.046876 5.222657c-1.175781.679687-2.605468.757812-3.847656.210937-1.246094-.542969-2.152344-1.648437-2.449218-2.976563l-1.707032-7.679687c-1.617187.148437-3.167968-.691406-3.933594-2.125-1.179687-2.039063-.480468-4.648437 1.5625-5.828125l3.164063-1.902344c1.171875-.679687 2.597656-.761718 3.839844-.222656 1.25.546875 2.160156 1.652344 2.457031 2.980469l1.621094 7.242187 17.339844-10c1.660156-.949218 3.746093-.679687 5.109374.65625 1.363282 1.339844 1.671876 3.417969.753907 5.09375l-7.285157 13.175782 32.800782-18.925782c1.878906-1.019531 4.21875-.492187 5.480468 1.230469 1.261719 1.726563 1.050782 4.117187-.488281 5.597656l-10.992187 9.984375 29.160156-16.8125c1.878906-1.0625 4.257812-.550781 5.535156 1.1875 1.277344 1.742188 1.054688 4.160156-.519531 5.640625l-27.03125 24.804688 7.132813-4.121094c1.882812-1.164063 4.347656-.695313 5.667968 1.085937 1.324219 1.777344 1.0625 4.273438-.597656 5.742188l-12.605469 11.945312c1.445313.34375 2.609375 1.414063 3.070313 2.824219.460937 1.414063.15625 2.964844-.808594 4.097657l-9.78125 11.441406c.261719.253906.484375.539062.667969.855468 1.171875 2.035157.472656 4.640626-1.5625 5.816407l-10.179688 5.890625c-.640625.351562-1.359375.53125-2.089843.519531zm0 0" fill="#b29580"/><path d="m189.355469 466.542969c-1.894531.003906-3.5625-1.242188-4.097657-3.058594-.535156-1.8125.1875-3.765625 1.777344-4.792969l36.691406-23.730468-22.050781 12.722656c-1.980469 1.117187-4.492187.476562-5.703125-1.449219-1.210937-1.929687-.695312-4.46875 1.175782-5.769531l71.046874-48.324219-52.523437 30.320313c-1.996094 1.15625-4.554687.515624-5.769531-1.449219-1.214844-1.960938-.644532-4.535157 1.28125-5.804688l38.46875-25.515625-23.269532 13.390625c-1.976562 1.101563-4.472656.472657-5.683593-1.441406-1.214844-1.910156-.722657-4.4375 1.117187-5.753906l58.453125-40.617188-47.878906 27.628907c-2 1.117187-4.523437.457031-5.71875-1.496094-1.199219-1.953125-.640625-4.5 1.261719-5.773438l3.859375-2.558594c-2.015625.789063-4.300781-.054687-5.324219-1.964843-1.019531-1.90625-.445312-4.277344 1.328125-5.511719l54.265625-37.75-49.664062 28.660156c-1.984376 1.101563-4.484376.453125-5.6875-1.46875-1.203126-1.925781-.6875-4.457031 1.171874-5.757812l34.398438-23.183594-29.867188 17.246094c-1.992187 1.113281-4.511718.460937-5.710937-1.484375-1.203125-1.941407-.660156-4.488281 1.230469-5.769531l15.359375-10.113282-10.878907 6.273438c-1.976562 1.089844-4.460937.449218-5.664062-1.460938-1.207031-1.90625-.714844-4.425781 1.117188-5.742187l46.984374-32.316407-42.53125 24.507813c-1.996093 1.136719-4.535156.484375-5.742187-1.472656-1.203125-1.957031-.640625-4.515625 1.269531-5.789063l12.144532-7.976562-7.679688 4.4375c-1.984375 1.207031-4.574219.601562-5.820312-1.359375-1.246094-1.960938-.691407-4.5625 1.246093-5.84375l51.761719-35.902344-47.1875 27.25c-1.972656 1.15625-4.507812.550781-5.746094-1.371094-1.238281-1.921875-.742187-4.480469 1.128906-5.796875l64.230469-45.875-59.648437 34.4375c-1.972656 1.109375-4.464844.484375-5.683594-1.417968-1.21875-1.90625-.738281-4.429688 1.09375-5.757813l59.128906-41.691406-54.554687 31.496093c-1.96875 1.109376-4.460938.496094-5.6875-1.402343-1.222657-1.898438-.753907-4.425781 1.070312-5.757813l65.867188-47.25-61.269531 35.378906c-1.96875 1.125-4.472657.511719-5.703126-1.398437-1.226562-1.90625-.742187-4.441406 1.097657-5.769531l61.535156-43.84375-56.945313 32.871094c-1.996093 1.25-4.628906.640624-5.878906-1.355469-1.25-2-.640625-4.632813 1.355469-5.882813l17.359375-11.671875-12.851562 7.414063c-1.980469 1.136718-4.5.515625-5.726563-1.410156-1.222656-1.925782-.714844-4.472657 1.152344-5.78125l18.5-12.9375-13.933594 8.046874c-1.953125 1.132813-4.449219.554688-5.699219-1.324218s-.820312-4.40625.980469-5.765625l21.964844-16.726563-17.265625 9.976563c-1.953125 1.125-4.449219.539062-5.691406-1.347657-1.246094-1.882812-.804688-4.40625 1-5.761718l3.207031-2.414063c-1.542969.21875-3.089844-.402343-4.054688-1.628906-1.296875-1.703125-1.132812-4.105469.386719-5.617187l10.375-10.308594-5.246094 3.039062c-1.464844.84375-3.289062.742188-4.648437-.253906-1.363281-.996094-2.011719-2.703125-1.652344-4.355469l2.636719-12.082031c-1.535156-.585938-2.601563-2.003906-2.734375-3.644531-.132813-1.640625.6875-3.210938 2.113281-4.035157l4.265625-2.457031c1.464844-.84375 3.285156-.746093 4.648437.253907 1.363282.996093 2.011719 2.703124 1.648438 4.351562l-2.183594 10.011719 25.328125-14.601563c1.851563-1.03125 4.179688-.542968 5.464844 1.144532 1.285156 1.683593 1.136719 4.058593-.34375 5.570312l-10.371094 10.300781 29.484375-17.066406c1.953125-1.128906 4.449219-.539063 5.691406 1.34375 1.246094 1.882813.808594 4.410156-1 5.765625l-1.328124 1.003906 14.042968-8.113281c1.953125-1.136719 4.449219-.554687 5.699219 1.324219s.820313 4.40625-.980469 5.765625l-21.953125 16.71875 41.230469-23.808594c1.980469-1.136719 4.5-.515625 5.726562 1.410156 1.222657 1.925781.714844 4.472657-1.152343 5.785157l-18.523438 12.953124 34.898438-20.148437c1.992187-1.15625 4.542969-.519531 5.761719 1.433594s.667968 4.519531-1.246094 5.800781l-17.324219 11.660156 26.914063-15.523437c1.976562-1.179688 4.53125-.578125 5.777343 1.359375 1.242188 1.9375.726563 4.507812-1.167969 5.816406l-61.523437 43.835938 58.792969-33.945313c1.972656-1.160156 4.507812-.554687 5.746094 1.371094 1.238281 1.921875.742187 4.480469-1.128907 5.796875l-65.871093 47.238281 61.253906-35.359375c1.976562-1.15625 4.515625-.542969 5.746094 1.386719 1.234374 1.929687.722656 4.488281-1.15625 5.796875l-59.152344 41.703125 54.5625-31.503907c1.972656-1.160156 4.507812-.554687 5.746094 1.367188 1.238281 1.925781.742187 4.480469-1.128907 5.800781l-64.273437 45.890625 59.65625-34.441406c1.980468-1.152344 4.523437-.53125 5.75 1.40625 1.226562 1.933594.703125 4.496094-1.183594 5.796875l-51.765625 35.917969 47.207031-27.246094c2-1.136719 4.539063-.488281 5.742188 1.46875 1.207031 1.957031.644531 4.519531-1.269532 5.792969l-12.03125 7.898437 7.558594-4.367187c1.992188-1.214844 4.589844-.605469 5.835938 1.367187 1.242187 1.972656.667968 4.582032-1.285156 5.851563l-47.003907 32.332031 42.453125-24.507812c1.996094-1.113282 4.511719-.460938 5.714844 1.484374 1.199219 1.941407.65625 4.488282-1.234375 5.769532l-15.300781 10.078125 10.820312-6.246094c2-1.246094 4.632813-.636719 5.878906 1.367187 1.246094 2 .636719 4.632813-1.363281 5.878907l-34.425781 23.199219 29.867188-17.261719c1.980468-1.136719 4.5-.511719 5.726562 1.410156 1.222656 1.925781.714844 4.472656-1.152344 5.785156l-54.203125 37.792969 49.636719-28.644531c1.992188-1.070313 4.472656-.402344 5.65625 1.527343 1.183594 1.925782.65625 4.441407-1.199219 5.734376l-3.902343 2.558593c2.015624-.796875 4.304687.042969 5.328124 1.949219 1.027344 1.90625.460938 4.277344-1.316406 5.515625l-58.382812 40.59375 53.851562-31.085937c1.992188-1.097657 4.492188-.445313 5.691406 1.488281 1.195313 1.933593.667969 4.464843-1.203124 5.757812l-38.484376 25.53125 33.996094-19.628906c1.980469-1.074219 4.453125-.425781 5.648438 1.480469 1.199218 1.90625.710937 4.414062-1.117188 5.730468l-70.988281 48.28125 66.457031-38.398437c2.003906-1.140625 4.550782-.484375 5.753906 1.484375 1.199219 1.964844.621094 4.53125-1.308593 5.792969l-36.804688 23.835937 32.359375-18.679687c2.039063-1.160157 4.632813-.457031 5.804688 1.574219s.484375 4.628906-1.539063 5.816406l-176.9375 102.183594c-.648437.378906-1.382812.578124-2.132812.582031zm0 0" fill="#e4e8eb"/><path d="m163.242188 503.527344c-1.882813-.003906-3.542969-1.242188-4.082032-3.046875-.542968-1.808594.167969-3.753907 1.746094-4.789063l76.328125-50.003906-99.179687 57.234375c-1.90625 1.078125-4.320313.539063-5.589844-1.246094-1.265625-1.789062-.96875-4.246093.683594-5.683593l12.21875-10.453126-30.113282 17.382813c-1.933594 1.101563-4.390625.53125-5.640625-1.308594-1.253906-1.835937-.882812-4.332031.851563-5.722656l19.480468-15.507813-39.03125 22.539063c-1.921874 1.09375-4.359374.535156-5.617187-1.28125s-.921875-4.296875.78125-5.710937l40.105469-32.859376-69.058594 39.851563c-1.972656 1.121094-4.476562.507813-5.703125-1.398437-1.230469-1.910157-.746094-4.445313 1.09375-5.769532l34.304687-24.363281-54.613281 31.574219c-1.988281 1.097656-4.484375.449218-5.6875-1.472656-1.203125-1.925782-.6875-4.457032 1.171875-5.757813l25.34375-17.066406-39.03125 22.546875c-1.976562 1.085937-4.460937.449218-5.664062-1.460938-1.207032-1.90625-.71875-4.425781 1.117187-5.742187l49.765625-34.175781-48.691406 28.066406c-2.003906 1.199218-4.597656.566406-5.824219-1.421875-1.226562-1.984375-.625-4.589844 1.34375-5.839844l17.449219-11.511719-12.984375 7.5c-1.972656 1.125-4.476563.507813-5.703125-1.398437-1.226562-1.910157-.746094-4.441407 1.09375-5.769531l63.359375-45.148438-58.734375 33.917969c-1.964844 1.128906-4.472656.523437-5.703125-1.378907-1.234375-1.902343-.765625-4.4375 1.070313-5.769531l67.855468-48.957031-63.222656 36.496094c-1.988281 1.132812-4.515625.496094-5.730469-1.441406-1.214843-1.941407-.679687-4.492188 1.207031-5.785157l34.296876-23.117187-29.773438 17.1875c-1.96875 1.140625-4.488281.535156-5.722656-1.378906-1.238282-1.910157-.753906-4.457032 1.097656-5.78125l65.816406-47.214844-61.191406 35.335937c-1.980469 1.175781-4.539062.566407-5.777344-1.375-1.238281-1.945312-.710937-4.519531 1.195313-5.820312l55.527343-38.816407-50.945312 29.398438c-1.996094 1.183594-4.574219.554688-5.800781-1.417969-1.226563-1.972656-.652344-4.5625 1.296875-5.828125l25.15625-16.75-20.644532 11.945313c-1.96875 1.113281-4.460937.496093-5.683593-1.402344-1.226563-1.898437-.757813-4.421875 1.066406-5.757813l63.855469-45.558593-59.246094 34.167969c-1.996094 1.15625-4.554688.515624-5.769531-1.445313-1.214844-1.964844-.648438-4.539063 1.28125-5.808594l16.015625-10.5625-11.527344 6.65625c-1.972656 1.121094-4.476562.507813-5.703125-1.402343-1.226563-1.90625-.746094-4.441407 1.09375-5.765626l62.429687-44.375-57.828124 33.375c-1.972657 1.089844-4.457032.460938-5.667969-1.441406-1.210938-1.902344-.730469-4.421875 1.09375-5.746094l56.082031-39.253906-51.507812 29.707032c-1.980469 1.132812-4.5.511718-5.726563-1.414063-1.222656-1.921875-.714844-4.46875 1.152344-5.78125l53.914062-37.546875-49.339843 28.453125c-1.96875 1.109375-4.460938.496094-5.6875-1.402344-1.222657-1.902343-.753907-4.425781 1.070312-5.757812l65.996094-47.359375-61.378906 35.429687c-1.988282 1.113281-4.503907.46875-5.710938-1.46875-1.203125-1.933593-.671875-4.476562 1.203125-5.769531l29.699219-19.898438-25.191406 14.507813c-1.976563 1.117187-4.484376.496094-5.703126-1.417969-1.222656-1.914062-.730468-4.449218 1.121094-5.769531l57.011719-40.011719-52.429687 30.308594c-1.984376 1.15625-4.523438.535156-5.75-1.402344-1.226563-1.9375-.707032-4.496094 1.183593-5.796875l51.703125-35.839843-47.136718 27.203124c-2 1.117188-4.523438.457032-5.71875-1.496093-1.199219-1.953125-.640626-4.5 1.261718-5.773438l3.414063-2.238281c-1.992188.539062-4.082031-.421875-4.96875-2.289062-.886719-1.863282-.308594-4.09375 1.367187-5.296876l50.167969-36.027343-45.523437 26.257812c-1.945313 1.101563-4.414063.511719-5.652344-1.347656-1.242188-1.859375-.832032-4.363281.933594-5.734375l37.929687-28.972656-33.210937 19.175781c-1.898438 1.082031-4.308594.558594-5.582032-1.21875-1.273437-1.773437-1-4.226563.632813-5.675781l27.117187-23.894532-22.1875 12.800782c-1.882812 1.144531-4.328125.667968-5.644531-1.105469-1.3125-1.769531-1.058594-4.25.585937-5.722656l9.804688-9.179688-4.726562 2.730469c-1.632813.957031-3.699219.730469-5.082032-.566406-1.378906-1.292969-1.742187-3.34375-.890625-5.03125l4.546875-9.148438c-1.929687-.003906-3.617187-1.300781-4.113281-3.167968-.5-1.863282.316406-3.828126 1.988281-4.792969l9.644532-5.574219c1.628906-.957031 3.699218-.730469 5.078124.566406 1.382813 1.292969 1.746094 3.34375.894532 5.03125l-4.089844 8.226563 24.03125-13.875c1.882812-1.144531 4.332031-.667969 5.644531 1.105469 1.3125 1.773437 1.058594 4.253906-.585937 5.722656l-9.792969 9.214844 27.859375-16.085938c1.902344-1.101562 4.332031-.582031 5.609375 1.203125 1.28125 1.789063.996094 4.253906-.660156 5.703125l-27.117188 23.890625 53.398438-30.855469c1.949219-1.125 4.4375-.546875 5.683593 1.324219 1.25 1.871094.832032 4.390625-.953124 5.757813l-37.964844 28.945312 62.546875-36.113281c1.96875-1.140625 4.488281-.535157 5.726562 1.375 1.234375 1.914062.75 4.460937-1.101562 5.785156l-50.148438 36.054687 61.617188-35.585937c2.003906-1.164063 4.570312-.519531 5.78125 1.457031 1.214843 1.972656.628906 4.554688-1.316407 5.8125l-3.414062 2.246094c2-.53125 4.09375.449219 4.964844 2.324219.875 1.878906.273437 4.109375-1.421875 5.296875l-51.703125 35.890625 47.152344-27.222657c1.976562-1.121093 4.484374-.496093 5.703124 1.417969 1.222657 1.914063.730469 4.449219-1.121093 5.769531l-57.011719 40.011719 52.429688-30.269531c1.988281-1.113281 4.503906-.46875 5.710937 1.46875 1.203125 1.933594.675781 4.476562-1.203125 5.769531l-29.695312 19.898438 25.1875-14.507813c1.972656-1.15625 4.507812-.550781 5.746093 1.371094s.742188 4.480469-1.128906 5.796875l-65.988281 47.351563 61.371094-35.429688c1.980468-1.136719 4.5-.511719 5.726562 1.410156 1.222656 1.925782.714844 4.472656-1.152344 5.785156l-53.894531 37.546876 49.328125-28.484376c1.980469-1.136718 4.5-.515624 5.726562 1.410157 1.222657 1.925781.714844 4.472656-1.152343 5.78125l-56.078125 39.253906 51.503906-29.738281c1.976562-1.136719 4.496094-.523438 5.726562 1.394531 1.226563 1.917969.734376 4.464844-1.125 5.78125l-62.40625 44.375 57.804688-33.375c1.992188-1.097656 4.492188-.445313 5.691406 1.488281 1.195313 1.933594.667969 4.464844-1.199218 5.757813l-16.15625 10.632812 11.625-6.707031c1.972656-1.160156 4.507812-.554688 5.746093 1.367188 1.238281 1.925781.738281 4.480468-1.132812 5.800781l-63.855469 45.558593 59.242188-34.203124c1.996093-1.183594 4.574218-.554688 5.800781 1.417968 1.226562 1.96875.648437 4.5625-1.296875 5.828125l-25.171875 16.769531 20.675781-11.949218c1.976562-1.132813 4.5-.511719 5.722656 1.410156 1.222656 1.925781.71875 4.472656-1.148437 5.785156l-55.46875 38.808594 50.910156-29.398438c1.96875-1.109374 4.460937-.496093 5.683594 1.402344 1.226562 1.898438.757812 4.425782-1.066407 5.757813l-65.84375 47.234375 61.210938-35.339844c1.992188-1.152344 4.539062-.519531 5.757812 1.433594s.667969 4.523437-1.246093 5.804687l-34.285157 23.117188 29.773438-17.152344c1.964844-1.128906 4.46875-.523437 5.703125 1.378906 1.234375 1.902344.761719 4.4375-1.070313 5.769531l-67.839843 48.941407 63.214843-36.488281c1.96875-1.125 4.476563-.511719 5.703126 1.398437 1.226562 1.90625.746093 4.441406-1.09375 5.769531l-63.394532 45.175782 61.140625-35.363282c2.003907-1.199218 4.597657-.566406 5.824219 1.421875 1.222656 1.984375.625 4.585938-1.34375 5.839844l-17.511719 11.527344 17.773438-10.238281c1.984375-1.132813 4.507812-.503907 5.726562 1.425781 1.21875 1.933593.699219 4.484375-1.175781 5.785156l-49.734375 34.132813 51.609375-29.800782c1.992188-1.152344 4.542969-.519531 5.761719 1.433594 1.21875 1.957031.667969 4.523438-1.246094 5.804688l-25.335937 17.066406 25.984374-15c1.96875-1.125 4.476563-.511719 5.703126 1.398437 1.226562 1.90625.746093 4.441407-1.09375 5.769531l-34.304688 24.371094 35.746094-20.636718c1.921875-1.089844 4.359375-.535157 5.617187 1.28125 1.257813 1.816406.921875 4.296874-.78125 5.710937l-40.105469 32.859375 43.445313-25.085938c1.929687-1.101562 4.386719-.535156 5.640625 1.304688 1.25 1.839844.878906 4.332031-.855469 5.726562l-19.402343 15.496094 20.597656-11.894531c1.90625-1.085937 4.328125-.546875 5.59375 1.246094s.964844 4.253906-.695313 5.691406l-12.230469 10.453125 190.296876-109.851562c1.996093-1.136719 4.535156-.484376 5.738281 1.472656 1.207031 1.957031.644531 4.515625-1.269531 5.789062l-76.347657 49.996094 71.851563-41.480469c1.984375-1.097656 4.484375-.449219 5.6875 1.472657 1.199218 1.925781.6875 4.457031-1.171875 5.757812l-71.871094 48.417969 67.355469-38.878907c1.996094-1.097656 4.5-.4375 5.695312 1.503907 1.191406 1.941406.648438 4.472656-1.230468 5.757812l-22.1875 14.445313 17.695312-10.238282c1.964844-1.132812 4.46875-.535156 5.707031 1.363282 1.242188 1.894531.78125 4.429687-1.046875 5.769531l-58.46875 42.964844 53.84375-31.078125c1.949219-1.085938 4.402344-.488282 5.636719 1.371094 1.230469 1.855468.824219 4.351562-.933594 5.722656l-37.546875 28.390625 32.851563-18.972657c1.945312-1.113281 4.421875-.535156 5.671875 1.328126 1.246094 1.863281.839844 4.375-.933594 5.746093l-19.105469 14.78125 14.367188-8.292969c1.914062-1.09375 4.34375-.550781 5.609375 1.253907 1.265625 1.800781.953125 4.273437-.726563 5.699219l-10.675781 9.019531 5.792969-3.335938c1.859375-1.058593 4.214843-.578125 5.507812 1.125 1.296875 1.703125 1.128907 4.097657-.386719 5.609375l-4.164062 4.085938c1.707031-.488282 3.539062.132812 4.597656 1.558594 1.058594 1.425781 1.125 3.355468.164063 4.851562l-2.722657 4.222656c1.527344.601563 2.574219 2.03125 2.691407 3.671875.113281 1.636719-.722657 3.195313-2.152344 4.007813l-9.59375 5.53125c-1.695313.957031-3.828125.640625-5.175781-.765625-1.351563-1.410157-1.570313-3.554688-.539063-5.210938l.777344-1.203125-12.496094 7.203125c-1.855469 1.058594-4.210937.578125-5.503906-1.125-1.296875-1.703125-1.128906-4.097656.386719-5.609375l3.796875-3.726562-18.144531 10.394531c-1.910157 1.085937-4.332032.546875-5.601563-1.253906-1.265625-1.796875-.957031-4.261719.714844-5.695313l10.675781-9.027344-27.675781 15.976563c-1.941407 1.105469-4.410157.527344-5.65625-1.328125-1.246094-1.855469-.847657-4.359375.914062-5.738281l19.054688-14.738281-37.796875 21.804687c-1.949219 1.109375-4.421875.519531-5.664063-1.347656-1.242187-1.867188-.824219-4.378907.953125-5.746094l37.546875-28.390625-61.4375 35.484375c-1.964843 1.132813-4.46875.535156-5.707031-1.363281-1.238281-1.898438-.78125-4.429688 1.046875-5.773438l58.496094-42.9375-86.734375 50.074219c-1.992188 1.097656-4.5.433594-5.691406-1.503906-1.191407-1.941407-.652344-4.476563 1.230468-5.757813l22.1875-14.507812-37.640625 21.769531c-1.988281 1.132813-4.515625.496094-5.730469-1.445313-1.214843-1.941406-.683593-4.492187 1.207032-5.785156l71.894531-48.433594-96.421875 55.664063c-.644531.386719-1.378906.59375-2.132812.605469zm0 0" fill="#e4e8eb"/><g fill="#262626"><path d="m1.9375 440.148438c0 13.800781-4.027344 35.773437 0 49.144531 6.203125 20.632812 29.117188 13.96875 47.898438 13.96875h177.441406c39.953125 0 86.433594 6.828125 125.917968 0 24.515626-4.222657 19.550782-20.933594 19.550782-42.121094v-320.09375c.207031-.511719.207031-1.082031 0-1.59375-7.417969-17.84375-36.445313-10.632813-51.941406-10.632813h-84.617188v-22.1875c0-.058593.066406-.101562.066406-.164062v-59.6875c-.472656-15.402344-8.273437-29.652344-20.988281-38.351562-12.71875-8.699219-28.828125-10.804688-43.351563-5.664063-28.953124 9.710937-33.503906 35.328125-33.503906 62.003906v42.742188c0 .253906.128906.390625.164063.613281-.046875.167969-.078125.339844-.09375.511719v20.183593h-51.292969c-19.628906 0-49.109375-5.839843-68.175781 0-25.128907 7.679688-17.066407 32.707032-17.066407 55.566407v255.761719zm215.039062-37.878907c-4.777343 8.617188-9.5625 17.234375-14.351562 25.847657l-14.226562 25.601562-.210938.332031c-11.492188-20.6875-22.984375-41.375-34.476562-62.0625h69.121093c-.265625.851563-.570312 1.707031-.851562 2.558594-1.726563 2.851563-3.917969 5.792969-5.035157 7.722656zm-66.054687-333.386719h72.839844v33.824219h-72.839844zm72.910156 42.398438v211.585938.734374 61.660157c-8.46875.199219-20.167969.582031-31.753906.855469h-38.871094c-.808593.003906-1.605469-.195313-2.320312-.582032-.199219-.414062-.359375-.84375-.484375-1.289062-.316406-1.5-.640625-2.992188-.855469-4.675782-.375-7.234374 1.324219-17.917968 1.324219-22.007812v-35.265625c0-.25 0-.546875 0-.796875v-210.191406zm-64.359375-89.070312c22.960938-28.269532 62.4375-6.296876 64.273438 25.488281v12.035156h-72.832032c-.144531-13.261719-.488281-26.394531 8.558594-37.523437zm-145.128906 118.195312c7.621094-11.75 60.902344-4.078125 76.441406-4.078125 13.65625 0 27.632813-.851563 41.285156 0 2.054688.199219 4.121094.117187 6.152344-.238281-.15625.96875-.070312 1.964844.25 2.890625v87.835937.699219 116.855469c-1.199218 14.359375-1.199218 28.792968 0 43.152344v2.707031c.007813.367187.195313.707031.503906.910156l.425782.777344c7.167968 25.71875 29.183594 52.539062 42.1875 75.949219 1.902344 3.410156 10.0625.390624 11.511718-2.21875 12.722657-22.898438 33.058594-48.640626 40.789063-74.308594l.957031-1.707032c.644532-.5625 1.070313-1.332031 1.210938-2.175781.042968-.167969.074218-.339843.09375-.511719v-4.753906c7.730468-44.867187 0-98.058594 0-143.539062v-74.503906c1.054687-8.324219 1.054687-16.742188 0-25.0625v-4.769532c17.203125-3.210937 44.945312 1.976563 59.65625 1.976563 12.09375 0 58.710937-7.3125 64.496094 6.410156v326.800781c0 8.761719 2.386718 22.339844-3.414063 26.25-9.933594 6.695313-48.597656 0-59.863281 0h-207.820313c-17.628906 0-48.09375 6.269532-64.671875 0-13.371094-5.0625-10.242187-13.484375-10.242187-27.648437v-288c.050781-7.910157-4.445313-32.777344.050781-39.699219zm0 0"/><path d="m36.097656 449.960938v17.066406c0 1.707031 12.355469 0 12.355469-3.308594v-17.066406c0-1.699219-12.355469-.050782-12.355469 3.308594zm0 0"/><path d="m36.097656 219.5625v196.265625c0 3.097656 12.355469 1.007813 12.355469-3.308594v-196.269531c0-3.097656-12.355469-1.003906-12.355469 3.3125zm0 0"/><path d="m48.519531 183.246094v-17.066406c0-6.222657-12.492187-4.207032-12.492187 1.054687v17.070313c0 6.21875 12.492187 4.203124 12.492187-1.058594zm0 0"/></g></svg>