<svg height="507pt" viewBox="-15 0 507 507.50293" width="507pt" xmlns="http://www.w3.org/2000/svg"><path d="m36.605469 149.351562c-1.851563-.003906-3.488281-1.199218-4.054688-2.964843-.566406-1.761719.066407-3.6875 1.570313-4.765625l48.367187-34.707032-72.046875 41.582032c-1.980468 1.085937-4.46875.441406-5.667968-1.476563-1.199219-1.914062-.695313-4.433593 1.144531-5.742187l25.421875-17.1875-20.898438 12.058594c-1.960937 1.132812-4.460937.535156-5.699218-1.355469-1.242188-1.894531-.789063-4.425781 1.03125-5.769531l36.625-26.964844-31.964844 18.449218c-1.90625 1.082032-4.320313.542969-5.585938-1.246093-1.269531-1.789063-.972656-4.246094.679688-5.683594l31.300781-26.792969-26.394531 15.230469c-1.871094 1.054687-4.230469.554687-5.515625-1.167969-1.28125-1.71875-1.085938-4.125.453125-5.617187l14.21875-13.5-9.15625 5.328125c-1.734375.984375-3.917969.640625-5.261719-.828125-1.347656-1.472657-1.492187-3.679688-.355469-5.316407l5.976563-8.464843c-1.925781-.015625-3.597657-1.3125-4.09375-3.171875-.492188-1.855469.316406-3.816406 1.976562-4.78125l13.882813-8.066406c1.734375-.992188 3.925781-.652344 5.273437.828124 1.347657 1.476563 1.488281 3.6875.339844 5.324219l-5.167969 7.324219 23.550782-13.570312c1.882812-1.144532 4.332031-.664063 5.644531 1.105468 1.3125 1.773438 1.058593 4.253906-.585938 5.722656l-14.222656 13.441407 35.148437-20.269531c1.90625-1.078126 4.320313-.542969 5.585938 1.246093 1.265625 1.789063.972656 4.246094-.679688 5.683594l-31.308593 26.785156 58.4375-33.714843c1.957031-1.09375 4.425781-.488282 5.65625 1.386718 1.226562 1.878906.789062 4.386719-1 5.738282l-36.589844 26.925781 59.023437-34.050781c1.984376-1.113282 4.496094-.476563 5.707032 1.453124 1.210937 1.925782.695312 4.464844-1.175782 5.765626l-25.425781 17.1875 42.273438-24.40625c1.964843-1.109376 4.460937-.496094 5.683593 1.402343 1.226563 1.898438.757813 4.425781-1.066406 5.757813l-48.378906 34.65625 72.535156-41.867188c1.953125-1.101562 4.425782-.503906 5.660156 1.367188 1.234376 1.875.808594 4.382812-.976562 5.742187l-55.96875 41.8125 84.726562-48.871093c1.992188-1.132813 4.527344-.488282 5.734376 1.460937 1.210937 1.945313.664062 4.503906-1.238282 5.785156l-13.652344 9.035157 28.238282-16.28125c1.976562-1.089844 4.460937-.449219 5.664062 1.460937 1.207032 1.90625.714844 4.425781-1.117187 5.742187l-34.925781 24.046876 54.117187-31.25c1.953125-1.125 4.445313-.539063 5.691406 1.339843 1.246094 1.886719.808594 4.414063-.996093 5.769531l-56.109376 41.957032 84.992188-49.066406c1.988281-1.152344 4.53125-.523438 5.753906 1.421874 1.222656 1.941407.6875 4.507813-1.214844 5.796876l-28.160156 19.097656 45.621094-26.316406c1.992188-1.082032 4.480469-.417969 5.671875 1.511718 1.1875 1.925782.660156 4.449219-1.199219 5.742188l-2.648437 1.707031 15.59375-8.960937c1.980469-1.085938 4.464843-.4375 5.664062 1.476562s.699219 4.433594-1.144531 5.742188l-25.34375 17.109374 42.15625-24.328124c1.984375-1.082032 4.472656-.429688 5.667969 1.492187 1.195312 1.925781.679687 4.445313-1.171875 5.746094l-15.042969 9.972656 29.867187-17.234375c1.953126-1.105469 4.425782-.507812 5.660157 1.367188 1.234375 1.871093.808593 4.378906-.976563 5.738281l-55.636718 41.507812 84.214843-48.640625c1.988281-1.082031 4.472657-.429687 5.667969 1.492188s.679688 4.445312-1.171875 5.746094l-16.902344 11.304687 32.066407-18.492187c1.984374-1.132813 4.507812-.503907 5.726562 1.429687 1.21875 1.929687.699219 4.480469-1.175781 5.78125l-32.207031 22.035156 50.679687-29.246093c1.964844-1.101563 4.445313-.484376 5.667969 1.40625 1.222656 1.890624.765625 4.40625-1.042969 5.746093l-49.261719 35.515625 60.542969-34.988281c1.988281-1.152344 4.53125-.523437 5.753906 1.421875 1.222657 1.945312.6875 4.507812-1.214843 5.796875l-19.625 13.382813 17.917968-10.367188c1.972656-1.125 4.476563-.511719 5.703125 1.398438 1.226563 1.90625.746094 4.441406-1.09375 5.769531l-21.25 15.136719 16.691407-9.625c1.9375-1.09375 4.390624-.515626 5.636718 1.324218 1.246094 1.84375.863282 4.335938-.875 5.722656l-21.914062 17.253907 17.257812-9.957031c1.902344-1.113282 4.34375-.589844 5.625 1.207031s.980469 4.277343-.695312 5.714843l-12.191406 10.554688 7.3125-4.222656c1.773437-1.019532 4.019531-.636719 5.355468.914062 1.335938 1.550782 1.382813 3.828125.113282 5.433594l-7.160157 8.976562 1.707031-1c1.324219-.839843 3-.886718 4.367188-.125 1.371094.765626 2.210938 2.21875 2.1875 3.785157-.019531 1.566406-.898438 2.996093-2.289062 3.722656l-21.253907 12.261719c-1.777343 1.019531-4.023437.636718-5.359375-.914063-1.335937-1.550781-1.382812-3.828125-.113281-5.433593l7.167969-8.996094-26.589844 15.363281c-1.898438 1.070313-4.304688.535156-5.570312-1.242187-1.269532-1.777344-.988282-4.226563.648437-5.671876l12.203125-10.5625-30.3125 17.492188c-1.9375 1.117188-4.40625.546875-5.660156-1.304688-1.253906-1.855468-.863282-4.359374.890625-5.742187l21.957031-17.238281-42.113281 24.300781c-1.96875 1.125-4.476563.511719-5.703125-1.398437-1.226563-1.90625-.746094-4.441407 1.097656-5.769532l21.265625-15.144531-38.683594 22.347656c-1.988281 1.152344-4.53125.527344-5.753906-1.417969-1.222656-1.945312-.6875-4.507812 1.214844-5.800781l19.574219-13.347656-35.660157 20.582031c-1.964843 1.101563-4.445312.488282-5.667969-1.402344-1.222656-1.890624-.765624-4.40625 1.042969-5.746093l49.28125-35.523438-73.960937 42.664063c-1.984375 1.15625-4.527344.527344-5.753906-1.417969-1.222657-1.945313-.683594-4.507813 1.214843-5.800781l32.164063-22.007813-50.65625 29.246094c-1.992188 1.132813-4.523438.488281-5.734375-1.460937-1.207031-1.945313-.660157-4.503907 1.238281-5.785157l16.964844-11.308593-32.152344 18.5625c-1.953125 1.078124-4.40625.476562-5.632812-1.386719-1.226563-1.863281-.808594-4.359375.953124-5.722657l55.628907-41.496093-84.230469 48.640625c-1.992188 1.097656-4.492188.441406-5.691406-1.488282-1.195313-1.933593-.667969-4.464843 1.203125-5.757812l14.949219-9.976562-29.867188 17.222656c-1.988281 1.132812-4.515625.496094-5.726562-1.445313-1.214844-1.941406-.683594-4.492187 1.203124-5.785156l25.386719-17.140625-42.195312 24.394531c-2 1.136719-4.535157.484375-5.742188-1.472656-1.203125-1.957031-.644531-4.515625 1.269531-5.789063l2.605469-1.707031-15.558593 8.976563c-1.992188 1.179687-4.558594.558594-5.789063-1.402344s-.671875-4.546875 1.257813-5.824219l28.160156-19.082031-45.601563 26.328125c-1.953125 1.101563-4.425781.503906-5.660156-1.367187-1.234375-1.875-.808594-4.382813.976563-5.742188l56.105468-41.96875-85.035156 49.09375c-1.984375 1.132812-4.507812.503906-5.726562-1.425781-1.21875-1.933594-.699219-4.484375 1.179687-5.785157l34.890625-24.011718-54.109375 31.238281c-1.296875.804687-2.921875.855469-4.265625.136719-1.34375-.722656-2.199219-2.105469-2.246094-3.628906-.050781-1.523438.71875-2.957032 2.015625-3.757813l13.652344-9.0625-28.261719 16.324219c-1.953125 1.101562-4.425781.503906-5.660156-1.367188-1.234375-1.875-.808594-4.382812.976562-5.742187l55.960938-41.8125-84.726562 48.9375c-.65625.390625-1.40625.59375-2.167969.589843zm0 0" fill="#cad0d7"/><path d="m129.710938 64.078125c-1.820313 0-3.441407-1.148437-4.039063-2.867187-.59375-1.722657-.035156-3.628907 1.394531-4.753907l18.414063-14.507812-31.511719 18.160156c-1.898438 1.097656-4.316406.578125-5.597656-1.199219s-1.007813-4.234375.628906-5.6875l22.257812-19.78125-10.414062 5.972656c-1.699219.976563-3.84375.667969-5.199219-.746093-1.355469-1.410157-1.578125-3.566407-.535156-5.226563l9.386719-14.769531c-1.613282-.507813-2.773438-1.921875-2.960938-3.605469-.183594-1.683594.644532-3.316406 2.109375-4.160156l10.050781-5.769531c1.699219-.976563 3.847657-.667969 5.203126.746093 1.355468 1.414063 1.574218 3.570313.53125 5.226563l-7.796876 12.28125 31.625-18.253906c1.890626-1.09375 4.308594-.578125 5.589844 1.195312 1.28125 1.773438 1.015625 4.226563-.617187 5.683594l-22.253907 19.761719 46.191407-26.640625c1.933593-1.109375 4.398437-.539063 5.648437 1.304687 1.253906 1.847656.875 4.347656-.871094 5.734375l-18.414062 14.507813 37.382812-21.546875c1.972657-1.140625 4.488282-.535157 5.726563 1.375 1.234375 1.914062.75 4.457031-1.101563 5.785156l-1.707031 1.1875 14.5-8.347656c1.882813-1.125 4.316407-.640625 5.621094 1.125 1.304687 1.761719 1.058594 4.230469-.570313 5.703125l-27.238281 25.496094 55.988281-32.324219c1.90625-1.097657 4.335938-.566407 5.609376 1.230469 1.273437 1.792968.972656 4.261718-.695313 5.699218l-24.53125 21.027344 48.476563-27.957031c1.894531-1.078125 4.292968-.554688 5.570312 1.210937 1.273438 1.765625 1.015625 4.210938-.605469 5.667969l-25.8125 22.886719 51.601563-29.765625c1.878906-1.046875 4.246094-.53125 5.515625 1.203125 1.273437 1.734375 1.058593 4.144531-.507813 5.625l-26.640625 24.277344 43.886719-25.335938c1.855469-1.03125 4.183594-.542969 5.46875 1.140625 1.285156 1.6875 1.136719 4.058594-.347656 5.574219l-21.992188 21.964844 22.265625-12.859376c1.800781-1.039062 4.085938-.628906 5.414063.96875 1.328125 1.597657 1.3125 3.921876-.039063 5.5l-8.746093 10.238282 7.578124-4.367188c1.496094-.863281 3.363282-.734375 4.730469.316406 1.367188 1.054688 1.964844 2.828126 1.515625 4.496094l-1.84375 6.824219c2.0625-.894531 4.464844-.035156 5.492188 1.960937 1.027344 1.996094.332031 4.449219-1.59375 5.609376l-8.582032 4.890624c-1.496093.863282-3.363281.742188-4.734374-.308593-1.371094-1.054688-1.972657-2.828125-1.519532-4.496094l1.839844-6.828125-20.152344 11.699219c-1.800781 1.039062-4.089844.632812-5.417968-.964844-1.328126-1.597656-1.3125-3.921875.039062-5.5l8.738281-10.242187-28.953125 16.742187c-1.851562 1.03125-4.179687.542969-5.464844-1.140625-1.285156-1.6875-1.136718-4.0625.34375-5.574219l22.035157-21.957031-49.75 28.714844c-1.878907 1.046875-4.246094.53125-5.515625-1.203125-1.273438-1.734375-1.054688-4.144531.507812-5.625l26.640625-24.285157-54.015625 31.171876c-1.898437 1.097656-4.316406.582031-5.597656-1.195313s-1.007812-4.238281.628906-5.691406l25.847656-22.902344-51.695312 29.867187c-1.90625 1.101563-4.34375.570313-5.617188-1.230468-1.273437-1.800782-.964843-4.273438.710938-5.707032l24.492188-21.101562-48.546876 28.03125c-1.882812 1.109375-4.300781.617188-5.597656-1.140625s-1.058594-4.214844.554688-5.6875l27.308594-25.539063-56.109376 32.425782c-1.96875 1.140625-4.488281.535156-5.722656-1.375-1.234375-1.914063-.753906-4.457032 1.097656-5.785156l1.621094-1.167969-14.503906 8.34375c-.640625.371093-1.363281.566406-2.101562.566406zm0 0" fill="#a9b0bb"/><path d="m109.351562 507.503906c-1.902343 0-3.578124-1.261718-4.101562-3.089844-.523438-1.832031.226562-3.789062 1.839844-4.796874l124.238281-77.574219-147.023437 84.855469c-2.007813 1.070312-4.5.378906-5.671876-1.574219-1.167968-1.953125-.597656-4.476563 1.296876-5.738281l121.496093-75.15625-142.847656 82.46875c-2.015625 1.160156-4.589844.496093-5.789063-1.5-1.199218-1.992188-.578124-4.582032 1.394532-5.8125l167.6875-104.332032-184.910156 106.753906c-2.007813 1.105469-4.535157.425782-5.714844-1.542968-1.179688-1.96875-.59375-4.519532 1.332031-5.769532l175.359375-108.671874-171.894531 99.242187c-2.015625 1.0625-4.507813.355469-5.664063-1.605469-1.160156-1.960937-.574218-4.484375 1.328125-5.734375l24.3125-14.660156-19.976562 11.527344c-2.03125 1.199219-4.648438.527343-5.847657-1.5-1.199218-2.027344-.527343-4.644531 1.503907-5.84375l81.40625-49.496094-77.0625 44.570313c-2.011719 1.046874-4.488281.339843-5.640625-1.609376-1.15625-1.949218-.585938-4.460937 1.296875-5.71875l102.585937-62.535156-98.242187 56.679688c-2.011719 1.058594-4.496094.359375-5.65625-1.589844-1.164063-1.953125-.59375-4.46875 1.292969-5.730469l143.941406-88.457031-139.578125 80.578125c-2.019531 1.097656-4.542969.402344-5.710938-1.574219-1.171875-1.976562-.566406-4.523437 1.367188-5.761718l84.042969-51.082032-79.699219 46.019532c-2.019531 1.097656-4.542969.402343-5.710938-1.574219-1.171875-1.976563-.566406-4.523438 1.367188-5.765625l85.578125-52.007813-81.234375 46.890625c-2.015625 1.0625-4.507813.355469-5.664063-1.605468-1.160156-1.960938-.574218-4.484376 1.328125-5.734376l23.390625-14.105468-19.054687 10.992187c-2.011719 1.042969-4.488281.335938-5.640625-1.609375-1.15625-1.949218-.585938-4.460937 1.296875-5.722656l92.765625-56.457031-88.421875 51.046875c-2.019531 1.097656-4.542969.402344-5.710938-1.574219-1.171875-1.976563-.566406-4.523437 1.367188-5.761719l39.824219-24.109375-35.480469 20.480469c-2.011719 1.046875-4.488281.339844-5.640625-1.609375-1.15625-1.949219-.585938-4.460937 1.296875-5.71875l59.375-36.164063-55.03125 31.769532c-2.011719 1.042968-4.488281.335937-5.640625-1.613282-1.15625-1.945312-.585938-4.457031 1.296875-5.71875l44.621093-27.230468-40.277343 23.28125c-2.019531 1.09375-4.542969.398437-5.710938-1.578125-1.171875-1.972657-.566406-4.523438 1.367188-5.761719l26.699219-16.230469-22.355469 12.859375c-2.027344 1.207032-4.644531.542969-5.851563-1.480468-1.207031-2.023438-.542968-4.644532 1.480469-5.851563l65.605469-40.515625-61.234375 35.371094c-2.011719 1.125-4.550781.453125-5.742188-1.519532-1.1875-1.972656-.597656-4.53125 1.335938-5.785156l94.925781-59.730468-90.519531 52.300781c-2 1.054687-4.472657.367187-5.644531-1.566407-1.171876-1.929687-.628907-4.441406 1.230468-5.722656l88.601563-56.234375-84.1875 48.640625c-2.007813 1.070313-4.503907.378906-5.671875-1.574218-1.167969-1.953126-.601563-4.476563 1.292968-5.738282l10.195313-6.324218-5.816406 3.351562c-1.992188 1.058594-4.457031.386719-5.636719-1.53125s-.667969-4.421875 1.171875-5.722656l86.792969-56.832032-82.328125 47.480469c-2.019531 1.21875-4.640625.570313-5.859375-1.445312s-.570313-4.640625 1.445312-5.859375l14.976563-9.453125-10.5625 6.09375c-2.007813 1.101562-4.523438.425781-5.707031-1.53125-1.1875-1.960938-.613282-4.503907 1.292968-5.765625l5.828125-3.703125-1.414062.808593c-1.992188 1.070313-4.472657.398438-5.65625-1.527343-1.183594-1.925781-.65625-4.441407 1.199219-5.734375l24.492187-15.949219-20.035156 11.554687c-1.980469 1.15625-4.515625.542969-5.75-1.386718-1.230469-1.929688-.722657-4.488282 1.15625-5.796875l51.847656-36.53125-47.253906 27.304687c-1.960938 1.125-4.453125.523438-5.691407-1.363281-1.238281-1.886719-.789062-4.414063 1.023438-5.761719l39.917969-29.480468-35.25 20.332031c-1.902344 1.074219-4.308594.539062-5.574219-1.238281-1.265625-1.777344-.988281-4.226563.648438-5.671876l33.476562-29.011718-28.550781 16.441406c-1.914063 1.09375-4.34375.550781-5.609375-1.253906-1.265625-1.800782-.953125-4.273438.726562-5.699219l9.027344-7.597656-4.144531 2.390625c-1.796875 1.03125-4.074219.621094-5.398438-.96875-1.328125-1.585938-1.320312-3.898438.011719-5.480469l6.664062-7.84375-1.277343.734375c-1.535157.878906-3.449219.722656-4.816407-.390625-1.371093-1.117187-1.910156-2.957031-1.363281-4.636719l1.824219-5.5625c-.609375-.367187-1.117188-.886718-1.464844-1.511718-1.175781-2.035157-.480468-4.636719 1.550782-5.820313l4.269531-2.464844c1.53125-.882812 3.449219-.730469 4.820312.382813 1.375 1.117187 1.917969 2.964844 1.363281 4.644531l-.785156 2.398437 12.886719-7.433593c1.796875-1.039063 4.082031-.636719 5.414063.953125 1.328124 1.59375 1.320312 3.914062-.019532 5.496094l-6.664062 7.84375 24.804687-14.308594c1.914063-1.09375 4.34375-.550782 5.609375 1.25 1.265625 1.804687.949219 4.277344-.730468 5.703125l-9.042969 7.601562 25.242187-14.566406c1.902344-1.089844 4.320313-.558594 5.59375 1.222656 1.273438 1.785157.988282 4.246094-.664062 5.691407l-33.464844 29.011718 62.292969-35.957031c1.957031-1.125 4.453125-.527344 5.6875 1.363281 1.238281 1.886719.789062 4.414063-1.019531 5.761719l-39.9375 29.488281 63.445312-36.625c1.976562-1.152344 4.515625-.542968 5.746094 1.386719 1.234375 1.933594.722656 4.492187-1.15625 5.800781l-51.847656 36.523438 75.75-43.726563c2.003906-1.164062 4.570312-.519531 5.78125 1.457031 1.210937 1.972657.628906 4.554688-1.316407 5.8125l-24.414062 15.890626 40.15625-23.1875c2-1.082032 4.5-.40625 5.683593 1.539062 1.179688 1.945312.625 4.476562-1.261718 5.75l-5.898438 3.746094 19.140625-11.042969c2.007813-1.101563 4.523438-.425781 5.707031 1.53125 1.183594 1.957031.613282 4.503906-1.292968 5.765625l-15.003906 9.480469 29.082031-16.785157c1.996093-1.097656 4.5-.4375 5.695312 1.503907 1.191407 1.941406.648438 4.476562-1.230469 5.757812l-86.777343 56.832031 111.042969-64.109374c2.015624-1.136719 4.570312-.457032 5.757812 1.527343s.574219 4.554688-1.378906 5.792969l-10.300782 6.382812 23.757813-13.710937c2.003906-1.105469 4.523437-.429687 5.707031 1.527344 1.183594 1.960937.613282 4.503906-1.296875 5.765625l-88.515625 56.183594 109.96875-63.496094c2.011719-1.125 4.550782-.453125 5.742188 1.519531 1.1875 1.972656.597656 4.535156-1.335938 5.785156l-95.003906 59.734375 116.15625-67.0625c2.023438-1.210937 4.644531-.550781 5.855469 1.476563 1.207031 2.023437.546875 4.644531-1.476563 5.851562l-65.648437 40.527344 82.894531-47.867187c2.019531-1.152344 4.59375-.46875 5.78125 1.53125 1.1875 2.003906.550781 4.585937-1.429688 5.808593l-26.523437 16.164063 40.738281-23.519532c2.023438-1.152343 4.597656-.472656 5.785156 1.53125 1.183594 2 .550782 4.585938-1.433593 5.808594l-44.808594 27.304688 60.023437-34.652344c2.023438-1.152344 4.597657-.472656 5.785157 1.53125 1.1875 2 .550781 4.585938-1.433594 5.808594l-59.195313 36.035156 75.171876-43.390625c2.023437-1.128906 4.574218-.4375 5.75 1.558594 1.175781 1.992187.550781 4.5625-1.414063 5.785156l-39.792969 24.089844 52.515625-30.300781c2.015625-1.097657 4.539063-.402344 5.710938 1.574218 1.167969 1.976563.5625 4.523438-1.367188 5.765625l-92.765625 56.445313 88.421875-51.054688c2.023438-1.125 4.574219-.433594 5.75 1.5625 1.175781 1.992188.546875 4.5625-1.414062 5.785156l-23.699219 14.292969 19.363281-11.175781c2.015625-1.097656 4.539063-.402344 5.710938 1.574219 1.167969 1.976562.5625 4.523437-1.367188 5.761719l-85.335937 51.875 81.007812-46.761719c2.019532-1.097657 4.542969-.402344 5.710938 1.574219 1.167968 1.976562.566406 4.523437-1.367188 5.765624l-84.0625 51.078126 79.703125-46.019532c2.007813-1.058594 4.492188-.359375 5.652344 1.589844 1.164063 1.953125.59375 4.46875-1.292969 5.730469l-144.085937 88.550781 139.726562-80.664062c2.015625-1.097657 4.539063-.402344 5.710938 1.574218 1.167969 1.976563.5625 4.523438-1.367188 5.765625l-102.589843 62.53125 98.246093-56.722656c2.027344-1.199219 4.644531-.527344 5.84375 1.503906 1.199219 2.027344.527344 4.644531-1.5 5.84375l-81.535156 49.492188 77.199219-44.492188c2.011718-1.0625 4.503906-.355469 5.664062 1.605469 1.15625 1.960938.574219 4.484375-1.328125 5.734375l-24.003906 14.507813 19.625-11.351563c2.015625-1.132813 4.570313-.457031 5.757813 1.527344 1.1875 1.988281.574218 4.558593-1.378907 5.796875l-175.371093 108.617187 171.035156-98.738281c2.011718-1.105469 4.535156-.425781 5.71875 1.542969 1.179687 1.96875.589844 4.519531-1.332032 5.769531l-167.714843 104.382812 163.328125-94.296874c2.003906-1.042969 4.472656-.34375 5.632812 1.597656s.605469 4.445312-1.265625 5.71875l-121.453125 75.132812 117.09375-67.597656c2.003906-1.058594 4.484375-.367188 5.648438 1.574219 1.167968 1.941406.613281 4.457031-1.261719 5.730469l-124.203125 77.550781 119.808594-69.164063c2.003906-1.058594 4.484375-.363281 5.648437 1.578125 1.164063 1.941407.613281 4.453125-1.261719 5.726563l-102.339843 64 97.953125-56.550782c2.015625-1.21875 4.640625-.570312 5.859375 1.445313 1.21875 2.019531.570312 4.640625-1.449219 5.859375l-103.429688 65.449219 98.984376-57.171875c1.996093-1.054688 4.464843-.378906 5.640624 1.546875 1.175782 1.925781.648438 4.433593-1.203124 5.722656l-104.6875 67.414063 100.25-57.875c2-1.132813 4.539062-.484376 5.742187 1.472656 1.207031 1.957031.644531 4.519531-1.269531 5.792968l-98.714844 64.988282 94.277344-54.425782c1.304687-.789062 2.929687-.820312 4.265625-.085937 1.335937.738281 2.175781 2.128906 2.207031 3.652344.027344 1.527343-.757812 2.949219-2.0625 3.738281l-25.230469 15.972656 20.820313-12.023437c2.007812-1.175781 4.589844-.523438 5.800781 1.464843 1.210937 1.988282.605469 4.578126-1.363281 5.824219l-30.386719 19.523438 25.949219-14.976563c2.003906-1.140625 4.550781-.480468 5.75 1.484375 1.203125 1.96875.625 4.535157-1.304688 5.796875l-19.738281 12.800782 15.292969-8.851563c1.976562-1.074219 4.453125-.425781 5.648437 1.480469 1.199219 1.90625.710938 4.414062-1.117187 5.730468l-42.042969 28.628907 37.546875-21.648438c1.988281-1.097656 4.492188-.445312 5.6875 1.488281 1.199219 1.933594.667969 4.464844-1.199219 5.757813l-4.097656 2.710937c1.972656-.875 4.289063-.136718 5.394531 1.71875 1.105469 1.855469.652344 4.242188-1.058594 5.5625l-38.222656 29.269532 33.445313-19.3125c1.960937-1.132813 4.464843-.535156 5.707031 1.363281 1.238281 1.894531.777344 4.429687-1.050781 5.769531l-8.054688 5.90625 3.414063-1.953125c1.941406-1.074219 4.382812-.480469 5.613281 1.367188 1.230469 1.84375.84375 4.324219-.894531 5.707031l-3.21875 2.464844c1.4375-.1875 2.875.339844 3.84375 1.417968 1.339844 1.535157 1.40625 3.804688.160156 5.417969l-10.554688 13.652344 5.050782-2.902344c2.027344-1.058593 4.527344-.332031 5.671875 1.648438 1.144531 1.976562.523437 4.507812-1.40625 5.734375l-23.738281 13.714844c-1.765626 1.003906-3.992188.628906-5.328126-.898438-1.335937-1.53125-1.410156-3.789062-.175781-5.402344l10.554688-13.652344-34.636719 19.953126c-1.941406 1.09375-4.402344.503906-5.640625-1.347657-1.238281-1.855469-.839844-4.351562.914063-5.726562l1.40625-1.085938-14.136719 8.160157c-1.964844 1.132812-4.46875.535156-5.707031-1.363282-1.242188-1.898437-.78125-4.429687 1.046874-5.773437l7.953126-5.835938-22.476563 12.972657c-1.945313 1.113281-4.421875.535156-5.671875-1.328126-1.246094-1.863281-.839844-4.375.933594-5.746093l38.203125-29.253907-62.992188 36.328126c-1.992187 1.132812-4.523437.488281-5.734375-1.460938-1.207031-1.945312-.660156-4.503906 1.238282-5.785156l3.796874-2.507813-16.914062 9.753907c-1.976562 1.074218-4.449219.425781-5.648438-1.480469-1.199218-1.90625-.707031-4.414063 1.117188-5.730469l42.054688-28.628906-62.105469 35.839844c-1.996094 1.082031-4.492188.410156-5.675781-1.523438-1.183594-1.9375-.644532-4.464844 1.230468-5.75l19.777344-12.796875-34.730469 20.070313c-2 1.097656-4.511719.429687-5.699219-1.519532-1.1875-1.949218-.632812-4.488281 1.261719-5.761718l30.355469-19.507813-46.398438 26.789063c-2.007812 1.148437-4.566406.484374-5.765624-1.496094-1.199219-1.976563-.601563-4.550782 1.347656-5.800782l25.230468-15.976562-40.351562 23.273438c-1.996094 1.113281-4.511719.460937-5.714844-1.484376-1.199218-1.941406-.65625-4.488281 1.234375-5.769531l98.78125-64.980469-125.105469 72.234376c-1.996093 1.054687-4.464843.375-5.640624-1.550782-1.175782-1.921875-.648438-4.429687 1.203124-5.722656l104.632813-67.410156-129.398437 74.683594c-2.003907 1.101562-4.523438.425781-5.707032-1.53125-1.183594-1.960938-.613281-4.503907 1.296875-5.765626l103.492188-65.484374-126.082031 72.78125c-2 1.054687-4.480469.363281-5.648438-1.578126-1.164062-1.941406-.609375-4.457031 1.261719-5.726562l102.289062-63.957031-123.441406 71.261719c-.644531.386718-1.382813.59375-2.132813.605468zm0 0" fill="#a9b0bb"/><g fill="#262626"><path d="m437.226562 56.210938c-21.730468-.054688-43.460937-.054688-65.195312 0-5.972656-19.21875-8.140625-46.566407-28.78125-52.457032-29.652344-8.445312-73.632812 0-104.328125 0-31.105469 0-73.507813-7.976562-103.671875 0-21.386719 5.648438-23.824219 31.71875-29.644531 51.550782-22.058594 0-44.109375.136718-66.101563.90625-51.148437 1.78125-37.640625 48.484374-37.640625 89.640624 0 2.074219 1.90625 2.773438 3.789063 2.773438h21.820312v328.003906c0 34.132813 13.894532 29.234375 44.679688 29.234375h358.519531c1.285156-.15625 2.542969-.484375 3.738281-.972656 1.300782-.097656 2.585938-.355469 3.824219-.757813 16.375-6.828124 11.195313-24.609374 11.195313-39.96875v-315.539062h16.625c3.660156.394531 8.984374-1.605469 8.984374-4.265625 0-19.703125 8.941407-60.878906-2.78125-78.507813-7.867187-11.945312-22.886718-9.609374-35.03125-9.640624zm-313.257812-18.273438c8.933594-26.820312 10.617188-24.546875 37.394531-24.546875h93.53125c22.503907 0 57.679688-6.828125 79.242188 0 16.289062 5.117187 19.242187 23.960937 24.183593 41.519531h-220.773437c-2.042969 0-4.660156.222656-7.441406.445313-4.191407 0-8.382813 0-12.570313 0 1.84375-5.910157 3.992188-11.722657 6.433594-17.417969zm-111.648438 103.605469c2.941407 1.78125 1.945313-29.492188 1.945313-39.808594 0-13.253906-4.089844-31.460937 10.476563-38.398437 5.972656-2.867188 20.957031 0 27.308593 0h53.707031c1.25.871093 2.742188 1.328124 4.265626 1.296874h256c1.21875-.007812 2.414062-.34375 3.457031-.972656 1.011719-.449218 1.890625-1.144531 2.5625-2.023437 20.152343-.984375 40.355469-.414063 60.421875 1.707031 15.90625 1.980469 24.023437-2.507812 30.234375 19.34375 4.734375 16.65625.742187 40.542969.128906 58.878906h-427.109375c-4.867188-.023437-19.191406 2.535156-23.398438-.023437zm424.777344 15.980469c7.410156 56.832031 0 119.589843 0 176.828124v110.730469c0 9.515625 6.027344 46.480469-3.410156 56.019531h-321.257812c-17.628907 0-41.898438 4.414063-59.066407 0-14.507812-3.726562-12.449219-8.472656-13.535156-21.980468-4.648437-58.429688 0-119.066406 0-177.664063v-152.832031h397.21875c-.4375 2.953125-.429687 5.953125.027344 8.898438zm0 0"/><path d="m104.195312 452.796875v17.066406c0 6.289063 12.511719 4.265625 12.511719-1.023437v-17.066406c0-6.316407-12.511719-4.3125-12.511719 1.023437zm0 0"/><path d="m116.628906 416.496094v-187.734375c0-3.21875-12.355468-1.09375-12.355468 3.3125v187.730469c0 3.21875 12.355468 1.09375 12.355468-3.308594zm0 0"/><path d="m116.628906 194.628906v-17.066406c0-2.476562-12.355468-.582031-12.355468 3.308594v17.066406c0 2.46875 12.355468.582031 12.355468-3.308594zm0 0"/><path d="m189.605469 453.9375v17.070312c0 2.300782 12.359375.457032 12.359375-3.3125v-17.066406c0-2.304687-12.359375-.460937-12.359375 3.308594zm0 0"/><path d="m189.546875 230.988281v187.734375c0 6.050782 12.476563 3.917969 12.476563-1.144531v-187.734375c0-6.046875-12.476563-3.914062-12.476563 1.144531zm0 0"/><path d="m202.007812 195.660156v-17.066406c0-5.820312-12.445312-3.550781-12.445312 1.246094v17.066406c0 5.820312 12.445312 3.550781 12.445312-1.246094zm0 0"/><path d="m274.941406 453.9375v17.070312c0 3.078126 12.355469.988282 12.355469-3.3125v-17.066406c0-3.082031-12.355469-.992187-12.355469 3.308594zm0 0"/><path d="m274.941406 232.074219v187.730469c0 2.636718 12.355469.691406 12.355469-3.308594v-187.734375c0-2.609375-12.355469-.691407-12.355469 3.3125zm0 0"/><path d="m274.941406 180.871094v17.066406c0 1.835938 12.355469.136719 12.355469-3.308594v-17.066406c0-1.835938-12.355469-.136719-12.355469 3.308594zm0 0"/><path d="m360.179688 452.726562v17.066407c0 6.5625 12.542968 4.8125 12.542968-.851563v-17.066406c0-6.605469-12.542968-4.847656-12.542968.851562zm0 0"/><path d="m372.691406 417.578125v-187.734375c0-6.058594-12.476562-3.921875-12.476562 1.144531v187.734375c0 6.058594 12.476562 3.925782 12.476562-1.144531zm0 0"/><path d="m372.628906 194.628906v-17.066406c0-2.125-12.355468-.34375-12.355468 3.308594v17.066406c0 2.125 12.355468.34375 12.355468-3.308594zm0 0"/></g></svg>