<svg id="icons" enable-background="new 0 0 60 60" height="512" viewBox="0 0 60 60" width="512" xmlns="http://www.w3.org/2000/svg"><path d="m29.8 20.4c-.3 0-.5-.2-.5-.5 0-.1 0-.2.1-.3l.4-.5-1 .6c-.2.1-.5.1-.7-.2-.1-.2-.1-.4.1-.6l2.6-2.6-2.8 1.7c-.2.1-.5.1-.7-.2-.1-.2-.1-.5.1-.6l.1-.1c-.2.1-.5.1-.7-.2-.1-.2-.1-.5.1-.6l4.5-3.7-4.8 2.8c-.2.1-.5.1-.7-.2-.1-.2-.1-.5.1-.7l5.5-4.3-5.8 3.4c-.2.1-.5 0-.7-.2-.1-.2-.1-.5.1-.6l3.1-2.3-3.2 1.9c-.2.1-.5.1-.7-.2-.1-.2-.1-.5.1-.6l3.3-2.9-3.6 2.1c-.2.1-.5.1-.7-.2-.1-.2-.1-.5.1-.6l.3-.2-.2.1c-.2.1-.5.1-.7-.2-.1-.2-.1-.5.1-.6l.3-.3-.2.1c-.2.1-.5.1-.7-.2-.1-.2-.1-.4.1-.6l.3-.3-.2.1c-.1.1-.3.1-.5 0-.1-.1-.3-.2-.3-.4l.2-1.1c-.3 0-.5-.2-.5-.5 0-.2.1-.4.2-.5l.4-.2c.2-.1.5-.1.7.2 0 0 0 .1.1.2l.2 1 2.4-1.4c.2-.1.5-.1.7.2 0 .2 0 .4-.2.6l-.3.3 1.9-1.1c.2-.1.5-.1.7.2.1.2.1.5-.1.6l-.3.3 1.9-1.1c.2-.1.5-.1.7.2.1.2.1.5-.1.6l-.4.3 1.8-1.1c.2-.1.5-.1.7.2.1.2.1.5-.1.6l-3.3 2.9 6.5-3.7c.2-.1.5-.1.7.2.1.2.1.5-.1.7l-3.2 2.2 4.7-2.7c.2-.1.5-.1.7.2.1.2.1.5-.1.7l-5.5 4.3 3.5-2c.2-.1.5-.1.7.2.1.2.1.5-.1.6l-4.5 3.7 2.4-1.4c.2-.1.5-.1.7.2.1.2.1.5-.1.7l-1 .7c.3.1.4.3.4.6 0 .1-.1.2-.1.3l-2.6 2.6.5-.3c.2-.1.5-.1.7.2.1.2.1.4-.1.6l-1 1.1c.2.1.3.4.2.7 0 .1-.1.1-.2.2l-2.2.9s-.1 0-.2 0z" fill="#5e9cea"/><path d="m6.4 18.3c-.3 0-.5-.2-.5-.5 0-.1.1-.3.2-.4l2.8-2.4-3.2 1.8c-.2.2-.5.1-.7-.2-.1-.2 0-.5.2-.6l2.2-1.6-2 1.1c-.2.1-.5.1-.7-.2-.1-.2-.1-.5.1-.7l3.3-2.3-3.1 1.8c-.2.1-.5.1-.7-.2-.1-.2-.1-.5.1-.7l3.5-2.2-3 1.7c-.2.1-.5.1-.7-.2-.1-.2-.1-.5.1-.6l4.7-3.7-4.5 2.6c-.2.1-.5.1-.7-.2-.1-.2-.1-.5.1-.7l.4-.3-.1.1c-.2.2-.5.1-.7-.1-.1-.3 0-.5.1-.7l2.2-1.8-1.9 1.2c-.2.1-.5 0-.7-.2-.1-.2-.1-.5.1-.7l1.4-1.2-1.1.7c-.2.1-.5 0-.7-.2-.1-.2-.1-.4.1-.6l1.5-1.7-1.3.7c-.2.1-.5.1-.6-.2-.1-.1-.1-.3 0-.4l.6-1.3-.3.1c-.3.2-.6.1-.7-.1-.1-.1-.1-.2-.1-.3v-.6c-.1-.1-.1-.2-.2-.3-.1-.2 0-.5.2-.7l.3-.2c.3-.1.6 0 .7.3 0 .1.1.2.1.3v.4l.8-.6c.2-.1.5 0 .7.2.1.1.1.3 0 .4l-.6 1.4 2.4-1.4c.2-.1.5-.1.6.2.1.2.1.4-.1.6l-1.4 1.7 3.3-1.9c.2-.1.5-.1.7.2.1.1.1.4-.1.6l-1.5 1.2 2.8-1.6c.3-.1.6-.1.7.2.1.2.1.5-.1.6l-2.2 1.8 3.7-2.1c.2-.1.5-.1.7.2.1.2.1.5-.1.7l-.5.2 1.4-.8c.2-.1.5-.1.7.2.1.2.1.5-.1.6l-4.7 3.7 6.8-3.9c.2-.1.5-.1.7.2.1.2.1.5-.1.7l-3.3 2.3 3.6-2.2c.2-.1.5-.1.7.2.1.2.1.5-.1.7l-3.3 2.3.2-.1c.2-.1.5-.1.7.2.1.2 0 .5-.2.6l-2.8 2c.3 0 .5.2.5.5 0 .1-.1.3-.2.4l-3.4 3c.3.1.4.4.3.6 0 .1-.1.2-.2.3l-3.5 2c-.1 0-.2.1-.3.1z" fill="#eb5463"/><path d="m52.7 18.5c-.3 0-.5-.2-.5-.5 0-.1 0-.2.1-.3l.9-1.3-1.9 1.1c-.2.1-.5.1-.7-.2-.1-.2-.1-.4.1-.6l2.1-2.3-2.8 1.6c-.2.1-.5.1-.7-.2-.1-.2-.1-.5.1-.6l2.4-2.2-2.8 1.7c-.2.1-.5.1-.7-.2-.1-.2-.1-.5.1-.6l2.6-2.1-3 1.8c-.2.1-.5.1-.7-.2-.1-.2-.1-.5.1-.6l3.6-2.9-4.2 2.4c-.2.1-.5.1-.7-.2-.1-.2-.1-.5.1-.6l5-3.9-5.6 3.3c-.2.1-.5.1-.7-.2-.1-.2-.1-.5.2-.7l2.6-1.8-2.9 1.7c-.2.1-.5.1-.7-.2-.1-.2-.1-.5.1-.6l3.5-3-4.2 2.4c-.2.1-.5.1-.7-.2 0-.3.1-.5.2-.7l1.5-1.7-2 1.2c-.2.1-.5.1-.7-.2 0 0 0-.1-.1-.1l-.2-.9h-.1c-.1.1-.4.1-.6-.2-.1-.2 0-.5.2-.7l.7-.4c.1-.1.3-.1.5 0 .1.1.3.2.3.4l.2.9 4-2.3c.2-.1.5-.1.7.2.1.2.1.4-.1.6l-1.6 1.6 6.6-3.8c.2-.1.5-.1.7.2.1.2 0 .5-.1.6l-3.5 3 8.1-4.7c.2-.1.5-.1.7.2.1.2.1.5-.1.7l-2.8 1.8 1.7-1c.2-.1.5-.1.7.2.1.2.1.5-.1.6l-5 3.9 3.9-2.2c.2-.1.5-.1.7.2.1.2.1.5-.1.6l-3.6 2.9 2.5-1.5c.2-.1.5-.1.7.2.1.2.1.5-.1.6l-2.6 2.1 1.6-.9c.2-.1.5-.1.7.2.1.2.1.5-.1.6l-2.4 2.2 1.4-.8c.2-.1.5-.1.7.2.1.2.1.4-.1.6l-2.1 2.3.9-.5c.2-.1.5-.1.7.2.1.2.1.4 0 .5l-1 1.5c.3 0 .5.3.5.5s-.1.3-.2.4l-1.6.8c-.1 0-.2.1-.3.1z" fill="#fdcd56"/><path d="m30 40.4c-.3 0-.5-.2-.5-.5 0-.1 0-.2.1-.3l.5-.6-1.3.7c-.2.1-.5.1-.7-.2-.1-.2-.1-.5.1-.6l1.8-1.6-1.9 1.1c-.2.1-.5.1-.7-.2-.1-.2-.1-.5.1-.6l1.8-1.5-1.9 1.1c-.2.1-.5.1-.7-.2-.1-.2-.1-.5.1-.6l3.2-2.5-3.4 1.9c-.2.1-.5.1-.7-.2-.1-.2-.1-.5.1-.6l4-3-4.2 2.4c-.2.1-.5.1-.7-.2-.1-.2-.1-.5.1-.6l4.4-3.3-4.6 2.6c-.2.1-.5.1-.7-.2-.1-.2-.1-.5.1-.6l2-1.5-2 1.2c-.2.1-.5.1-.7-.2-.1-.2-.1-.4.1-.6l2.9-2.8-2.7 1.8c-.2.1-.5.1-.7-.2-.1-.2-.1-.5.1-.6l.2-.1h-.1c-.2.1-.5 0-.7-.2-.1-.1-.1-.3 0-.4l.7-1.5-.8.5c-.2.1-.5.1-.7-.2 0-.1-.1-.1-.1-.2l-.1-.6c-.3 0-.5-.3-.5-.5s.1-.3.2-.4l.4-.2c.2-.1.5-.1.7.2 0 .1.1.1.1.2v.5l1.5-.9c.2-.1.5-.1.7.2.1.1.1.3 0 .5l-.7 1.5 3.8-2.2c.2-.1.5-.1.7.2.1.2.1.5-.1.6l-.2.1 1.7-1c.2-.1.5-.1.7.2.1.2.1.5-.1.6l-2.9 2.8 6.2-3.6c.2-.1.5-.1.7.2.1.2.1.5-.1.7l-2 1.5 4-2.3c.2-.1.5-.1.7.2.1.2.1.5-.1.6l-4.4 3.3 4.2-2.4c.2-.1.5-.1.7.2.1.2.1.5-.1.7l-4 3 2.2-1.3c.2-.1.5-.1.7.2.1.2.1.5-.1.7l-3.2 2.5 1.4-.8c.2-.1.5-.1.7.2.1.2.1.5-.1.6l-1.8 1.5.2-.1c.2-.1.5-.1.7.2.1.2.1.5-.1.6l-1.8 1.6c.2-.1.5 0 .7.2.1.2.1.4-.1.6l-1.1 1.3c.1 0 .1.1.1.2.1.2.1.5-.2.7l-1.5.9c-.1-.4-.2-.4-.3-.4z" fill="#5e9cea"/><path d="m6.7 38.3c-.3 0-.5-.2-.5-.5 0-.1.1-.3.2-.4l1.5-1.3-2 1.1c-.2.1-.5.1-.7-.2-.1-.2-.1-.5.1-.6l3.2-2.4-3 1.7c-.2.1-.5.1-.7-.2-.1-.1-.1-.4.2-.5l5.8-4.2-5.7 3.2c-.2.1-.5 0-.7-.2-.1-.2-.1-.5.1-.7l2.5-1.8-2.3 1.3c-.2.1-.5.1-.7-.2 0-.1.1-.4.3-.5l4.6-3.6-4.4 2.6c-.2.1-.5 0-.7-.2-.1-.2-.1-.5.1-.6l3.6-3-3.5 1.8c-.2.1-.5.1-.7-.2-.1-.2-.1-.4.1-.6l2.7-2.7-2.5 1.4c-.2.1-.5.1-.7-.2-.1-.2-.1-.5.1-.6l.6-.5-.3.2c-.2.1-.5.1-.7-.2-.1-.2-.1-.4.1-.6l.3-.2c-.3.1-.5-.1-.6-.4 0-.1 0-.3.1-.4l.3-.5c-.3.1-.5-.1-.6-.3 0-.1 0-.1 0-.2v-.8c-.1 0-.2-.1-.2-.2-.1-.2-.1-.5.2-.7l.3-.2c.2 0 .5.1.6.4 0 .1.1.2.1.3v.6l1-.6c.2-.1.5-.1.7.2.1.2.1.4 0 .5l-.3.4 1.3-.8c.2-.1.5-.1.7.2.1.2.1.4-.1.6l-.2.2 1.1-.6c.2-.1.5-.1.7.2.1.2.1.5-.1.6l-.6.5 1.7-1c.2-.1.5-.1.7.2.1.2.1.4-.1.6l-2.7 2.7 4.9-2.8c.2-.1.5-.1.7.2.1.2.1.5-.1.6l-3.6 3 5.6-3.2c.2-.1.5-.1.7.2.1.2.1.5-.1.6l-4.6 3.6 6.7-3.8c.2-.1.5-.1.7.2.1.2.1.5-.1.7l-2.8 1.6 3.3-1.9c.2-.1.5-.1.7.2.1.2.1.5-.1.6l-5.8 4.2 1.8-1c.2-.1.5-.1.7.2.1.2.1.5-.1.7l-3.3 2.5c.3-.1.5.1.6.4 0 .2 0 .4-.2.5l-2.7 2.3c.1 0 .1.1.1.2.1.2.1.5-.2.7l-2.9 1.7c-.1-.1-.1-.1-.2-.1z" fill="#eb5463"/><path d="m52.7 38.5c-.3 0-.5-.2-.5-.5 0-.1 0-.2.1-.3l.4-.6-1.1.7c-.2.1-.5.1-.7-.2-.1-.2-.1-.4.1-.6l1.6-1.7-2 1.2c-.2.1-.5.1-.7-.2-.1-.2-.1-.5.1-.6l1.6-1.4-2 1.1c-.2.1-.5.1-.7-.2-.1-.2-.1-.5.1-.6l2.1-1.8-2.5 1.5c-.2.1-.5.1-.7-.2-.1-.2-.1-.5.1-.6l3.8-3.2-4.4 2.6c-.2.1-.5.1-.7-.2-.1-.2-.1-.5.1-.7l.9-.7-1.1.7c-.2.1-.5.1-.7-.2-.1-.2-.1-.5.1-.7l.2-.1-.2.2c-.2.1-.5.1-.7-.2-.1-.2-.1-.5.1-.6l3.5-2.5-3.9 2.2c-.2.1-.5.1-.7-.2-.1-.2-.1-.5.1-.6l4.2-3.5-4.9 2.8c-.2.1-.5.1-.7-.2-.1-.2-.1-.4.1-.6l1.7-1.8-2.2 1.3c-.2.1-.5.1-.7-.2v-.1l-.3-1.1-.1.1c-.2.1-.5.1-.7-.2-.1-.2-.1-.5.2-.7l.7-.4c.2-.1.5-.1.7.2v.1l.3 1.1 4.7-2.7c.2-.1.5-.1.7.2.1.2.1.4-.1.6l-1.7 1.8 6.7-3.9c.2-.1.5-.1.7.2.1.2.1.5-.1.6l-4.2 3.5 7.8-4.5c.2-.1.5-.1.7.2.1.2.1.5-.1.6l-3.5 2.5 2.5-1.5c.2-.1.5-.1.7.2.1.2.1.5-.2.7l-.5.4c.3 0 .5.2.5.4s-.1.4-.2.5l-.9.7.1-.1c.2-.1.5-.1.7.2.1.2.1.5-.1.6l-3.8 3.2 2.7-1.6c.2-.1.5-.1.7.2.1.2.1.5-.1.6l-2.1 1.8 1.1-.7c.2-.1.5-.1.7.2.1.2.1.5-.1.6l-1.6 1.4.6-.4c.2-.1.5-.1.7.2.1.2.1.4-.1.6l-1.6 1.8.5-.3c.2-.1.5-.1.7.2.1.2.1.4 0 .6l-.7.9c.1 0 .2.1.3.2.1.2.1.5-.2.7l-1.6.9c-.1 0-.2.1-.3.1z" fill="#fdcd56"/><path d="m29.4 59.3c-.3 0-.5-.2-.5-.5 0-.1 0-.2.1-.3l2-2.3-2.7 1.6c-.2.1-.5 0-.7-.2-.1-.2-.1-.5.1-.6l2.3-2-2.3 1.3c-.2.1-.5.1-.7-.2-.1-.2-.1-.5.1-.6l3.6-2.9-3.8 2.2c-.2.1-.5 0-.7-.2-.1-.2-.1-.5.1-.6l4.7-3.6-4.9 2.8c-.2.1-.5.1-.7-.2-.1-.2-.1-.5.1-.6l4.2-3.1-4.4 2.5c-.2.1-.5.1-.7-.2-.1-.2-.1-.5.1-.6l3-2.4-3.2 1.8c-.2.1-.5.1-.7-.2-.1-.2-.1-.5.1-.6l1.8-1.4-1.8 1c-.2.1-.5.1-.7-.2-.1-.2-.1-.5.1-.6l1.2-1.1-1 .7c-.2.1-.5.1-.7-.2-.1-.1-.1-.3 0-.5l.7-1.5-.8.5c-.2.1-.5.1-.7-.2 0-.1-.1-.1-.1-.2v-.6c-.3 0-.5-.3-.4-.5 0-.2.1-.3.2-.4l.4-.2c.2-.1.5-.1.7.2 0 .1.1.1.1.2v.5l1.5-.9c.2-.1.5-.1.7.2.1.1.1.3 0 .5l-.7 1.5 3.8-2.2c.2-.1.5-.1.7.2.1.2.1.5-.1.6l-1.2 1.1 3.3-1.9c.2-.1.5-.1.7.2.1.2.1.5-.1.6l-1.8 1.4 3.9-2.3c.2-.1.5 0 .7.2.1.2.1.5-.1.6l-3 2.4 5.5-3.2c.2-.1.5-.1.7.2.1.2.1.5-.1.6l-4.3 3.2 4.2-2.4c.2-.1.5-.1.7.2.1.2.1.5-.1.6l-4.8 3.6 2.7-1.6c.2-.1.5-.1.7.2.1.2.1.5-.1.6l-3.6 2.9 1.7-1c.2-.1.5-.1.7.2.1.2.1.5-.1.6l-2.2 1.9.5-.3c.2-.1.5-.1.7.2.1.2.1.4-.1.6l-2.1 2.3c.2-.1.5 0 .6.2s.1.5-.2.7l-2.5 1.4c-.1.3-.2.3-.3.3z" fill="#5e9cea"/><path d="m7 57.4c-.3 0-.5-.2-.5-.5 0-.1.1-.3.2-.4l1.8-1.7-2.5 1.5c-.2.1-.5.1-.7-.2-.1-.2-.1-.5.1-.6l2.9-2.2-2.7 1.6c-.3.2-.6.1-.8-.1s0-.6.2-.7l.3-.2c-.3.1-.5 0-.7-.3-.1-.2 0-.5.2-.6l5.2-3.7-5 2.9c-.2.1-.5.1-.7-.2-.1-.2-.1-.5.1-.7l1.4-1-1.1.7c-.2.1-.5.1-.7-.2-.1-.2-.1-.5.1-.6l4.2-3.4-4 2.3c-.2.1-.5 0-.7-.2-.1-.2-.1-.4.1-.6l3.3-3-3.2 1.8c-.2.1-.5.1-.7-.2-.1-.2-.1-.5.1-.6l.5-.3h-.1c-.2.1-.5.1-.7-.2-.1-.2-.1-.4 0-.6l1.6-2-1.4.8c-.2.1-.5.1-.7-.2-.1-.2-.1-.4 0-.5l.6-.9-.2.1c-.2.1-.5.1-.7-.2 0-.1-.1-.2-.1-.3v-.9c-.1 0-.2-.1-.2-.2-.1-.2-.1-.5.2-.7l.3-.2c.3 0 .7.1.8.3 0 .1.1.2.1.3v.7l1.2-.7c.2-.1.5-.1.7.2.1.2.1.4 0 .5l-.6.9 2-1.2c.2 0 .5 0 .7.3.1.2.1.4 0 .6l-1.6 2 3.7-2.1c.2-.1.5-.1.7.2.1.2.1.5-.1.6l-.4.3 1.4-.8c.2-.1.5 0 .7.2.1.2.1.4-.1.6l-3.3 3 5.5-3.2c.2-.1.5-.1.7.2.1.2.1.5-.1.6l-4.2 3.4 6.2-3.6c.2-.1.5 0 .7.2.1.2.1.5-.1.6l-1.4 1 2.5-1.4c.2-.1.5-.1.7.2.1.2.1.5-.1.6l-5.2 3.7 3.5-2c.2-.1.5 0 .7.2.1.2.1.5-.1.7l-2.5 1.4c.1 0 .2.1.3.2.1.2.1.5-.1.7l-3.2 2.4c.2 0 .3.1.4.2.2.2.1.5-.1.7l-3 2.8s.1.1.1.1c.1.2.1.5-.2.7l-2 1.2c0-.1-.1-.1-.2-.1z" fill="#eb5463"/><path d="m52.3 57.4c-.1 0-.3-.1-.4-.2-.2-.2-.2-.4 0-.6l1.4-1.9-2.3 1.3c-.2.1-.5.1-.7-.2-.1-.2-.1-.4.1-.6l1.9-1.9-2.4 1.4c-.2.1-.5.1-.7-.2-.1-.2-.1-.5.1-.6l1.8-1.5-2.1 1.2c-.2.1-.5.1-.7-.2-.1-.2-.1-.5.1-.6l2.1-1.6-2.4 1.4c-.2.1-.5.1-.7-.2-.1-.2-.1-.5.1-.6l3.7-2.9-4.2 2.4c-.2.1-.5.1-.7-.2-.1-.2-.1-.5.1-.6l3-2.2-3.4 2c-.2.1-.5.1-.7-.2-.1-.2-.1-.5.1-.7l1.6-1.1-1.8 1c-.2.1-.5.1-.7-.2-.1-.2-.1-.5.1-.6l4.4-3.5-5 2.9c-.2.1-.5.1-.7-.2-.1-.2-.1-.5.1-.6l.5-.4-.6.3c-.2.1-.5 0-.7-.2-.1-.2-.1-.4.1-.6l.6-.6-.8.5c-.1.1-.3.1-.4 0s-.3-.2-.3-.3l-.2-1h-.1c-.2.2-.5.2-.7-.1-.1-.2-.1-.5.2-.7l.7-.4c.2-.1.5-.1.7.2 0 0 0 .1.1.1l.2 1 4.3-2.5c.2-.1.5 0 .7.2.1.2.1.4-.1.6l-.6.6 3.9-2.3c.2-.1.5-.1.7.2.1.2.1.5-.1.6l-.5.4 3.5-2c.2-.1.5-.1.7.2.1.2.1.5-.1.6l-4.4 3.5 6.7-3.8c.2-.1.5 0 .7.2.1.2.1.5-.1.6l-1.6 1.1.7-.4c.2-.1.5-.1.7.2.1.2.1.5-.1.6l-3 2.2 2.1-1.2c.2-.1.5 0 .7.2.1.2.1.5-.1.6l-3.7 2.9 2.6-1.5c.2-.1.5-.1.7.2.1.2.1.5-.1.6l-2.1 1.6 1.1-.7c.2-.1.5-.1.7.2.1.2.1.5-.1.6l-2.2 1.8.9-.5c.2-.1.5-.1.7.2.1.2.1.4-.1.6l-1.9 1.9.9-.5c.2-.1.5-.1.7.2.1.2.1.4 0 .5l-1.5 1.9.2-.1c.2-.1.5-.1.7.2.1.2.1.5-.2.7l-2.2 1.3c-.1-.1-.1 0-.2 0z" fill="#fdcd56"/><g fill="#262626"><path d="m3.8 12.1c.4 2.1.4 6.6 3.5 6.3 2.3-.2 4.2-3.6 5.5-5.1l6.2-7.4c.7.1 1.5.2 2.2.2l4.2 8.6c.9 1.8 1.9 5.8 4.5 5.8 2.5-.1 3.5-3.8 4.4-5.6 1.5-3 2.9-5.9 4.4-8.9.6-.1 1.2-.1 1.8-.2l6.7 7.8c1.4 1.6 3.3 5.3 5.9 4.7s2.6-4.4 3-6.5c.7-3.4 1.5-6.9 2.2-10.3.3-.1.6-.2.8-.3 1-.4.1-.5-.5-.3-.2.1-.5.2-.7.2-.4 0-.7.1-1 .4-4.9 1.7-10 2.9-15.2 3.7v-.2c-.2-.3-1.2 0-1.4.3-.5.1-.9.1-1.4.2 0-.5-1.2-.5-1.4 0l-.1.1c-4.9.4-9.9.5-14.8 0l-.1-.2c-.2-.5-1.2-.3-1.4.1-.5-.1-1-.1-1.5-.2.4-.4-.7-.4-1.2-.2-5.3-.7-10.5-2-15.4-3.9-.1-.1-.3-.2-.6-.2-.2-.1-.5-.1-.7-.2-.5 0-1 .2-1.4.5.4.2.8.3 1.2.5.8 3.4 1.5 6.8 2.3 10.3zm53.1-10.1c-.5 2.5-1.1 5-1.6 7.5-.3 1.2-.7 8.7-3.3 7.7-.5-.2-1.1-1.3-1.5-1.7l-3.5-4.1-4.9-5.8c5.1-.8 10-2 14.8-3.6zm-19.7 4.1c-.9 1.9-1.9 3.9-2.8 5.8-.8 1.6-2.4 7-4.3 6.9-2-.1-3.4-5.1-4.2-6.7-1-1.9-1.9-3.9-2.9-5.8 4.7.3 9.5.3 14.2-.2zm-23.9 5-3.6 4.2c-.9 1.1-1.3 2.2-2.6 1.6-2-1-2-5.7-2.4-7.7-.5-2.3-1-4.5-1.5-6.8 4.7 1.6 9.6 2.7 14.6 3.4-1.5 1.7-3 3.5-4.5 5.3z"/><path d="m30.7 13c-.5-1.1-1.1-2.1-1.6-3.2-.2-.4-1.6.1-1.4.4l1.6 3.2c.2.4 1.6-.1 1.4-.4z"/><path d="m9.2 11.2c-.3-1.4-.6-2.8-.9-4.2-.1-.5-1.6-.1-1.4.4.3 1.4.6 2.7.9 4.1.1.6 1.5.2 1.4-.3z"/><path d="m50.8 11.6c.2.3 1.6-.2 1.4-.5-1-1.1-1.9-2.2-2.9-3.3-.2-.3-1.5.2-1.3.5z"/><path d="m29.3 33.4c.3.6 1.7.2 1.4-.4-.5-1.1-1.1-2.2-1.6-3.2-.3-.6-1.7-.2-1.4.4z"/><path d="m9.2 31.2c-.3-1.4-.6-2.7-.9-4.1-.1-.5-1.6-.2-1.4.4.3 1.4.6 2.7.9 4.1.1.5 1.5.1 1.4-.4z"/><path d="m30.7 52c-.5-1.1-1.1-2.2-1.6-3.2-.2-.4-1.6.1-1.4.4l1.6 3.2c.2.4 1.6-.1 1.4-.4z"/><path d="m9.2 50.2c-.3-1.4-.6-2.7-.9-4.1-.1-.3-1.5 0-1.4.4.3 1.4.6 2.7.9 4.1 0 .3 1.5-.1 1.4-.4z"/><path d="m50.9 50.7c.4.4 1.8-.1 1.3-.6-1-1.1-1.9-2.2-2.9-3.3-.4-.4-1.8.1-1.3.6z"/><path d="m1.6 21.7 2.1 10c.4 2.1.5 6.8 3.5 6.8 2.3 0 4.2-3.5 5.5-5l6.4-7.6c.7.1 1.4.2 2.1.2l4.2 8.5c.9 1.8 1.9 5.8 4.4 5.7 2.6-.1 3.5-3.7 4.4-5.6 1.4-2.9 2.9-5.9 4.3-8.8.6-.1 1.3-.1 1.9-.2l6.6 7.7c1.4 1.7 3.3 5.3 5.9 4.7 2.7-.6 2.6-4.4 3.1-6.5.7-3.4 1.5-6.8 2.2-10.3.3-.1.6-.2.9-.3 1-.4.1-.6-.5-.4-.3.1-.7.2-1 .3-.2 0-.4.1-.5.2-5 1.8-10.2 3-15.4 3.7v.2c-.2-.2-1 0-1.3.3-.5.1-1 .1-1.5.2-.1-.4-1.2-.3-1.4.1-5 .4-10 .5-14.9 0l-.1-.2c-.2-.4-1-.3-1.3 0-.5-.1-1-.1-1.5-.2.1-.5-1-.7-1.4-.2-5.3-.6-10.4-1.9-15.3-3.8-.1-.3-.5-.4-.7-.3-.2-.1-.4-.2-.6-.2-.3-.1-1.7.4-1.2.6.3.2.7.3 1.1.4zm55.3.3c-.5 2.5-1.1 4.9-1.6 7.4-.3 1.2-.7 8.7-3.3 7.7-.5-.2-1.1-1.3-1.5-1.7l-3.5-4.1-4.9-5.7c5.1-.8 10-1.9 14.8-3.6zm-19.7 4.2-3 6.1c-.7 1.5-1.5 3-2.2 4.5-.2.5-.6 1.9-1.1 2.2-2.2 1.4-4.4-5.4-5-6.6-1-2-2-4-3-6 4.8.3 9.6.2 14.3-.2zm-23.9 4.6-3.5 4.2c-.9 1.1-1.3 2.2-2.7 1.7-2-.7-2-5.7-2.4-7.6l-1.4-6.8c4.7 1.6 9.5 2.8 14.4 3.4z"/><path d="m1.6 40.8c.7 3.3 1.4 6.7 2.1 10 .4 2.1.4 6.8 3.5 6.7 2.3-.1 4.2-3.5 5.5-5l6.3-7.5c.8.1 1.5.2 2.3.2 1.4 2.9 2.9 5.9 4.3 8.8.9 1.9 1.9 5.7 4.6 5.3 2.4-.4 3.3-3.7 4.2-5.6 1.4-2.9 2.8-5.8 4.3-8.6.7-.1 1.3-.1 2-.2l6.5 7.6c1.4 1.7 3.3 5.2 5.9 4.7 2.8-.5 2.7-4.3 3.2-6.5l2.2-10.2c.3-.1.6-.2.9-.3 1-.4.1-.7-.5-.5-5.5 2-11.2 3.5-17 4.3-.2-.1-.6 0-1 .1-.6.1-1.2.1-1.8.2-.1-.2-.9-.1-1.3.1-5 .5-10 .5-15 .1l-.1-.2c-.2-.3-.8-.2-1.2 0-.6-.1-1.1-.1-1.7-.2.2-.4-.8-.5-1.2-.2-5.3-.7-10.5-2-15.5-3.9-.3.1-.4 0-.6 0-.3-.1-.6-.2-.9-.3-.4-.2-1.7.4-1.2.6.4.2.8.3 1.2.5zm11.6 9.4-3.5 4.1c-.4.5-1.2 1.7-1.7 1.9-2.5.8-3-6.6-3.3-7.7-.5-2.4-1-4.7-1.5-7.1 4.7 1.6 9.6 2.8 14.5 3.5zm42.2-2.1c-.4 1.8-.6 7.3-2.5 7.8s-4.8-4.4-6-5.8l-4.7-5.5c5-.7 9.9-1.9 14.7-3.5-.5 2.3-1 4.7-1.5 7zm-18.2-2.9-2.9 5.9-2.2 4.6c-.6 1.2-.7 2.4-2.1 2.3-2-.3-3.4-5.1-4.2-6.8-.9-1.9-1.9-3.8-2.8-5.7 4.7.2 9.5.2 14.2-.3z"/></g></svg>