<svg id="Icons" height="512" viewBox="0 0 60 60" width="512" xmlns="http://www.w3.org/2000/svg"><path d="m5.743 19.471a.5.5 0 0 1 -.269-.921l.79-.506-1.976 1.141a.5.5 0 0 1 -.522-.853l3.343-2.168-4.083 2.357a.5.5 0 0 1 -.52-.853l1.532-.989-1.816 1.049a.5.5 0 0 1 -.539-.841l8.617-6.116-8.886 5.129a.5.5 0 0 1 -.528-.848l4.285-2.864-3.777 2.18a.5.5 0 0 1 -.61-.78l1.23-1.271a.5.5 0 0 1 -.142-.921l2.4-1.387a.5.5 0 0 1 .61.78l-.9.928 13.865-8a.5.5 0 0 1 .528.849l-4.275 2.855 4.931-2.848a.5.5 0 0 1 .539.841l-8.615 6.115 10.185-5.88a.5.5 0 0 1 .52.853l-1.535.99 3.175-1.831a.5.5 0 0 1 .522.853l-3.345 2.171 4.392-2.537a.5.5 0 0 1 .52.854l-.783.5 1.311-.756a.5.5 0 0 1 .527.849l-4.877 3.256 5.451-3.151a.5.5 0 0 1 .533.845l-5.318 3.657 5.546-3.2a.5.5 0 0 1 .533.845l-3.312 2.28 2.779-1.605a.5.5 0 0 1 .538.841l-2.38 1.677 1.833-1.058a.5.5 0 0 1 .563.823l-3.1 2.5 2.536-1.464a.5.5 0 0 1 .589.8l-1.776 1.632 1.181-.681a.5.5 0 0 1 .711.626l-.667 1.582a.5.5 0 0 1 .445.892l-1.229.709a.5.5 0 0 1 -.711-.626l.662-1.576-3.816 2.2a.5.5 0 0 1 -.589-.8l1.775-1.632-4.214 2.433a.5.5 0 0 1 -.564-.822l3.1-2.5-5.749 3.322a.5.5 0 0 1 -.538-.84l2.376-1.677-4.363 2.517a.5.5 0 0 1 -.534-.844l3.32-2.279-5.41 3.123a.5.5 0 0 1 -.534-.844l5.318-3.656-7.8 4.5a.5.5 0 0 1 -.527-.848l4.875-3.252-7.107 4.1a.5.5 0 0 1 -.25.071z" fill="#ffcd7b"/><path d="m7.083 9.575a.5.5 0 0 1 -.3-.9l1.663-1.275-.561.325a.5.5 0 0 1 -.574-.813l1.51-1.29a.5.5 0 0 1 -.021-.875l3.277-1.893a.5.5 0 0 1 .574.813l-.545.466 2.526-1.458a.5.5 0 0 1 .554.83l-1.67 1.278 2.963-1.71a.5.5 0 0 1 .5.865l-9.646 5.57a.491.491 0 0 1 -.25.067z" fill="#ffcd7b"/><path d="m29.447 51.426a.5.5 0 0 1 -.283-.912l9.774-6.714-12.516 7.223a.5.5 0 0 1 -.528-.847l12.08-8.113-14.335 8.275a.5.5 0 0 1 -.525-.851l12.756-8.366-14.391 8.308a.5.5 0 0 1 -.523-.851l14.787-9.678-16.325 9.421a.5.5 0 0 1 -.515-.856l7.097-4.428-7.819 4.514a.5.5 0 0 1 -.516-.857l9.531-5.975-10.2 5.888a.5.5 0 0 1 -.514-.856l8.62-5.375-9.188 5.3a.5.5 0 0 1 -.513-.858l6.725-4.163-7.126 4.115a.5.5 0 0 1 -.519-.855l14.855-9.44-15.495 8.945a.5.5 0 0 1 -.518-.856l14.041-8.872-14.5 8.374a.5.5 0 0 1 -.518-.854l16.151-10.3-16.611 9.588a.5.5 0 0 1 -.521-.853l17.427-11.196-17.751 10.249a.5.5 0 0 1 -.513-.858l5.608-3.456-5.562 3.214a.5.5 0 0 1 -.514-.857l10.525-6.583-10.45 6.033a.5.5 0 0 1 -.52-.853l15.27-9.769-15.2 8.778a.5.5 0 0 1 -.519-.855l12.918-8.2-12.631 7.285a.5.5 0 0 1 -.515-.856l7.992-5-7.6 4.384a.5.5 0 0 1 -.523-.851l14.6-9.528-14.013 8.093a.5.5 0 0 1 -.525-.85l12.9-8.45-12.069 6.969a.5.5 0 0 1 -.525-.849l11.144-7.365-10.019 5.781a.5.5 0 0 1 -.528-.849l8.921-5.96-7.4 4.274a.5.5 0 0 1 -.52-.853l1.17-.747a.521.521 0 0 1 -.447-.235.5.5 0 0 1 .145-.68l2.976-2-.783.452a.5.5 0 0 1 -.549-.834l3.551-2.641a.494.494 0 0 1 -.183-.183.5.5 0 0 1 .183-.683l5.224-3.018a.5.5 0 0 1 .548.834l-1.808 1.348 5.89-3.4a.5.5 0 0 1 .529.847l-2.992 2.014 5.438-3.143a.5.5 0 0 1 .52.853l-.107.068 1.367-.789a.5.5 0 0 1 .528.849l-8.92 5.959 11.118-6.417a.5.5 0 0 1 .525.85l-11.144 7.364 13.093-7.559a.5.5 0 0 1 .524.851l-12.9 8.45 14.531-8.39a.5.5 0 0 1 .523.852l-14.6 9.529 16.053-9.27a.5.5 0 0 1 .516.856l-7.984 5 8.755-5.056a.5.5 0 0 1 .519.854l-12.927 8.21 13.745-7.936a.5.5 0 0 1 .52.853l-15.272 9.77 16.169-9.334a.5.5 0 0 1 .515.856l-10.517 6.573 10.952-6.322a.5.5 0 0 1 .512.858l-5.585 3.443 5.861-3.384a.5.5 0 0 1 .52.854l-17.432 11.2 17.981-10.383a.5.5 0 0 1 .519.854l-16.143 10.298 16.546-9.552a.5.5 0 0 1 .518.855l-14.051 8.875 14.18-8.187a.5.5 0 0 1 .519.855l-14.859 9.443 14.947-8.627a.5.5 0 0 1 .513.858l-6.715 4.157 6.511-3.759a.5.5 0 0 1 .515.857l-8.624 5.378 8.445-4.875a.5.5 0 0 1 .516.856l-9.521 5.97 9.134-5.274a.5.5 0 0 1 .515.857l-7.1 4.429 6.7-3.864a.5.5 0 0 1 .523.851l-14.797 9.685 14.168-8.179a.5.5 0 0 1 .524.85l-12.752 8.365 11.879-6.859a.5.5 0 0 1 .529.848l-12.079 8.113 10.79-6.229a.5.5 0 0 1 .533.844l-9.771 6.714 7.889-4.555a.5.5 0 0 1 .5.866l-18.925 10.928a.5.5 0 0 1 -.253.068z" fill="#c1c7ce"/><path d="m40.593 43.646a.5.5 0 0 1 -.25-.932l3.178-1.835a.5.5 0 0 1 .5.865l-3.178 1.835a.494.494 0 0 1 -.25.067z" fill="#ffcd7b"/><path d="m39.679 57.471a.5.5 0 0 1 -.277-.916l.1-.067-1.585.915a.5.5 0 0 1 -.541-.839l6.761-4.839-8.83 5.1a.5.5 0 0 1 -.525-.85l2.6-1.7-3.323 1.918a.5.5 0 0 1 -.521-.853l.788-.509-1.076.621a.5.5 0 0 1 -.534-.843l7.384-5.109-7.9 4.561a.5.5 0 0 1 -.535-.842l7.184-4.992-7.3 4.212a.5.5 0 0 1 -.549-.834l7.268-5.277-6.912 3.992a.5.5 0 0 1 -.543-.838l.515-.372a.531.531 0 0 1 -.417-.2.5.5 0 0 1 .054-.66l1.9-1.828a.5.5 0 0 1 -.223-.932l3.05-1.761a.5.5 0 0 1 .6.793l-1.658 1.592 4.173-2.408a.5.5 0 0 1 .543.838l-.05.036 6.762-3.9a.5.5 0 0 1 .544.837l-7.27 5.279 9.364-5.409a.5.5 0 0 1 .535.842l-7.184 4.991 8.265-4.772a.5.5 0 0 1 .535.844l-7.377 5.094 8.016-4.628a.5.5 0 0 1 .521.852l-.8.519.82-.474a.5.5 0 0 1 .525.851l-2.595 1.7 2.539-1.462a.5.5 0 0 1 .541.839l-6.761 4.836 6.525-3.767a.5.5 0 0 1 .526.849l-.1.07 1.194-.689a.5.5 0 0 1 .536.843l-2.824 1.969 4.081-2.355a.5.5 0 0 1 .553.831l-4.5 3.417 5.42-3.129a.5.5 0 0 1 .563.822l-3.72 2.985 3.985-2.3a.5.5 0 0 1 .55.832l-.815.613.457-.264a.5.5 0 0 1 .569.818l-.772.641a.5.5 0 0 1 .464.885l-5.045 2.91a.5.5 0 0 1 -.57-.817l.762-.633-2.513 1.45a.5.5 0 0 1 -.55-.832l.819-.615-2.509 1.447a.5.5 0 0 1 -.562-.822l3.718-2.978-6.592 3.8a.5.5 0 0 1 -.553-.831l4.494-3.416-7.358 4.247a.5.5 0 0 1 -.536-.842l2.823-1.966-4.871 2.808a.5.5 0 0 1 -.25.071z" fill="#ffcd7b"/><path d="m21.693 41.433a.5.5 0 0 1 -.422-.769l1-1.578-2.41 1.391a.5.5 0 0 1 -.608-.782l.867-.894-.781.451a.5.5 0 0 1 -.64-.746l.733-.909a.5.5 0 0 1 -.17-.926l1.8-1.037a.5.5 0 0 1 .64.746l-.537.666 1.567-.9a.5.5 0 0 1 .609.781l-.867.894 1.07-.618a.5.5 0 0 1 .672.7l-1 1.579.018-.011a.5.5 0 1 1 .5.865l-1.787 1.032a.49.49 0 0 1 -.254.065z" fill="#a0a7b2"/><path d="m37.641 23.3a.5.5 0 0 1 -.361-.847l.68-.706-1.142.659a.5.5 0 0 1 -.589-.8l.251-.231-.1.058a.5.5 0 0 1 -.651-.732l.816-1.1a.493.493 0 0 1 -.461-.249.5.5 0 0 1 .183-.683l1.795-1.037a.5.5 0 0 1 .652.731l-.737.989 1.916-1.105a.5.5 0 0 1 .588.8l-.25.229.3-.17a.5.5 0 0 1 .611.78l-.68.706.178-.1a.5.5 0 0 1 .5.865l-3.249 1.873a.493.493 0 0 1 -.25.07z" fill="#a0a7b2"/><path d="m35.714 38.424a.5.5 0 0 1 -.327-.878l.254-.221-1.1.638a.5.5 0 0 1 -.606-.783l2.641-2.691-3.626 2.093a.5.5 0 0 1 -.565-.82l1.187-.965-1.124.648a.5.5 0 0 1 -.563-.822l.573-.462-.142.082a.5.5 0 0 1 -.625-.763l1.32-1.5a.517.517 0 0 1 -.466-.25.5.5 0 0 1 .183-.682l2.31-1.334a.5.5 0 0 1 .626.763l-1.216 1.381 3.092-1.784a.5.5 0 0 1 .564.823l-.572.46.99-.571a.5.5 0 0 1 .565.82l-1.19.967 1.356-.782a.5.5 0 0 1 .606.783l-2.641 2.69 2.463-1.421a.5.5 0 0 1 .577.81l-.663.575a.5.5 0 0 1 .186.928l-3.812 2.2a.49.49 0 0 1 -.255.068z" fill="#a0a7b2"/><path d="m24.244 27.318a.5.5 0 0 1 -.336-.87l.17-.154-.692.4a.5.5 0 0 1 -.574-.813l.188-.164-.292.168a.5.5 0 0 1 -.6-.794l1.106-1.061-.918.531a.5.5 0 0 1 -.631-.756l.922-1.087a.5.5 0 0 1 -.165-.926l1.937-1.118a.5.5 0 0 1 .641.756l-.7.824 2-1.156a.5.5 0 0 1 .595.794l-1.105 1.059 1.482-.855a.5.5 0 0 1 .575.813l-.2.168a.5.5 0 0 1 .559.818l-.4.36a.5.5 0 0 1 .25.933l-3.574 2.063a.489.489 0 0 1 -.238.067z" fill="#a0a7b2"/><g fill="#262626"><path d="m53.822 48.088a7.543 7.543 0 0 0 -5.322-7.088c9.24-15.961-4.019-33.085-19.761-32.172-.006-.012 0-.024-.01-.037a7.421 7.421 0 0 0 -7.883-3.122c-4.454-5.144-14.573-3.235-14.684 4.253-3.637-.185-7.4 2.995-5.383 6.935 1.83 3.58 7.06 2.712 10.518 2.614a21.151 21.151 0 0 0 -1.951 17.362 21.459 21.459 0 0 0 20.945 14.416 7.332 7.332 0 0 0 .223 1.147c1.6 5.747 7.813 5 12.424 5 4 0 9.814 1.113 13.63-.49 5.795-2.433 2.632-9.206-2.746-8.818zm-46.275-29.549a9.042 9.042 0 0 1 -1.8 0 5.486 5.486 0 0 1 -3.506-2.282c-1.161-2.226-.157-6.477 4.239-5.292.4.109 1.2-.106 1.156-.629-.524-6.781 8.289-8.577 12.075-3.836a.566.566 0 0 0 .468.159 1.07 1.07 0 0 0 .11-.01c.045 0 .087-.008.132-.017.025-.006.045 0 .072-.01a6.11 6.11 0 0 1 6.6 2.372 22.394 22.394 0 0 0 -7.493 2.453 21.162 21.162 0 0 0 -7.721 7.092zm8.676-3.857a19.172 19.172 0 0 1 11.301-5.182 1.043 1.043 0 0 0 .872-.07 20.714 20.714 0 0 1 17.828 8.362c5.015 6.834 5.12 15.648 1.133 22.949a8.765 8.765 0 0 0 -7.978 2.968c-4.446-.606-9.26 2.322-9.117 6.968-17.928-.486-27.675-23.084-14.039-35.995zm38.463 41.918a7.82 7.82 0 0 1 -2.112 0h-8.124a52.461 52.461 0 0 1 -6.079 0 7.749 7.749 0 0 1 -5.387-2.515 6 6 0 0 1 6.189-9.507 1.219 1.219 0 0 0 .642-.132.932.932 0 0 0 .477-.243c3.964-5.119 12.576-2.116 12.075 4.418a.229.229 0 0 0 .1.206c.04.064.136.1.3.1a1.343 1.343 0 0 0 .34-.027c5.512-.85 6.806 5.992 1.579 7.7z"/><path d="m18.276 38.694c.026 3.865 6.259 3.125 6.448-.388-.205-3.822-6.472-3.172-6.448.388zm2.643 1.71a2.425 2.425 0 0 1 -1.2-2.1c0-1.159.942-2.332 2.166-1.8a2.422 2.422 0 0 1 1.386 2.184c-.062 1.237-1.026 2.474-2.352 1.712z"/><path d="m41.724 20.408c0-.02-.012-.031-.014-.049s.015-.034.014-.053c-.207-3.86-6.438-3.325-6.448.337-.011 3.902 6.253 3.386 6.448-.235zm-2.95-1.9a2.293 2.293 0 0 1 1.494 2.144c-.075 1-.685 2.12-1.86 1.9a2.236 2.236 0 0 1 -1.669-2.2c-.001-1.09.835-2.232 2.035-1.843z"/><path d="m40.724 33.806c-.309-5.748-9.426-5.05-9.448.388-.025 5.818 9.16 4.975 9.448-.388zm-3.756-3.206a4.034 4.034 0 0 1 2.308 3.6c-.122 2.252-2.012 4.35-4.427 3.114a3.951 3.951 0 0 1 -2.125-3.5c.016-2.181 1.97-4.234 4.244-3.214z"/><path d="m21.276 24.143c-.014 4.557 7.219 4.022 7.448-.236 0-.019-.012-.03-.014-.048s.015-.034.014-.053c-.242-4.506-7.435-3.97-7.448.337zm3.525 2.4a2.748 2.748 0 0 1 -2.059-2.685c0-1.43 1.155-2.821 2.688-2.321a2.8 2.8 0 0 1 1.84 2.606c-.089 1.289-.957 2.732-2.47 2.399z"/><path d="m13.824 22.957q-.3.675-.552 1.368c-.121.33.455.393.643.377a.924.924 0 0 0 .813-.53c.14-.382.294-.758.459-1.13.307-.689-1.143-.58-1.363-.085z"/><path d="m28.739 12.764a19.074 19.074 0 0 0 -12.4 6.333c-.309.351 1.074.187 1.317-.089a16.247 16.247 0 0 1 10.464-5.628c.397-.045 1.563-.723.619-.616z"/><path d="m37.875 52.446c-2.454-.129-2.959-3.837-.3-3.976.842-.044 1.1-1.173.112-1.122a3.427 3.427 0 0 0 -3.416 3.014 3.131 3.131 0 0 0 3.116 3.192c.741.039 1.464-1.054.488-1.108z"/><path d="m42.316 46.3c-.549.708.829.82 1.192.351 1.719-2.217 4.632-.835 4.87 1.676.056.587 1.51.252 1.449-.388-.365-3.858-5.392-4.374-7.511-1.639z"/><path d="m17.471 7.728c-2.357-2.128-6.737-.937-7.184 2.372-.068.5 1.383.239 1.443-.205a2.521 2.521 0 0 1 4.389-1.625c.346.314 1.694-.233 1.352-.542z"/></g></svg>