<svg id="Icons" height="512" viewBox="0 0 60 60" width="512" xmlns="http://www.w3.org/2000/svg"><path d="m28.933 59.167a.5.5 0 0 1 -.451-.717l.538-1.117-1.71.986a.5.5 0 0 1 -.606-.784l.569-.574-1.352.78a.5.5 0 0 1 -.583-.8l1.047-.941-1.946 1.123a.5.5 0 0 1 -.588-.8l2.985-2.757-4.584 2.647a.5.5 0 0 1 -.542-.839l.467-.336-1.151.664a.5.5 0 0 1 -.554-.829l3.907-3.008-5.266 3.04a.5.5 0 0 1 -.551-.832l5.4-4.067-6.962 4.019a.5.5 0 0 1 -.538-.841l5.013-3.527-6.275 3.62a.5.5 0 0 1 -.532-.844l5.332-3.655-6.54 3.776a.5.5 0 0 1 -.526-.85l3.91-2.58-4.869 2.811a.5.5 0 0 1 -.52-.854l.716-.458-1.4.81a.5.5 0 0 1 -.519-.854l2.428-1.556-3.223 1.862a.5.5 0 0 1 -.524-.851l7.267-4.761-8.267 4.774a.5.5 0 0 1 -.516-.857l.054-.033-.052.03a.5.5 0 0 1 -.525-.85l10.537-6.964-10.151 5.86a.5.5 0 0 1 -.522-.851l8.542-5.546-8.02 4.63a.5.5 0 0 1 -.52-.854l6.945-4.461-6.425 3.709a.5.5 0 0 1 -.521-.852l7.958-5.14-7.437 4.293a.5.5 0 0 1 -.515-.855l2.361-1.486-1.846 1.066a.5.5 0 0 1 -.523-.851l8.63-5.648-8.107 4.68a.5.5 0 0 1 -.533-.844l9.453-6.517-8.92 5.152a.5.5 0 0 1 -.524-.85l2.666-1.748-2.142 1.24a.5.5 0 0 1 -.523-.851l.393-.257a.5.5 0 0 1 -.411-.892l4.128-2.958-3.587 2.066a.5.5 0 0 1 -.544-.837l2.095-1.519-1.551.894a.5.5 0 0 1 -.586-.8l2.806-2.546-2.22 1.282a.5.5 0 0 1 -.6-.788l.909-.9-.308.177a.5.5 0 0 1 -.736-.548l.3-1.242a.486.486 0 0 1 -.241-.212.5.5 0 0 1 .182-.682l.5-.289a.5.5 0 0 1 .737.548l-.233.98 2.653-1.532a.5.5 0 0 1 .6.788l-.911.9 2.934-1.693a.5.5 0 0 1 .586.8l-2.806 2.543 5.8-3.351a.5.5 0 0 1 .543.837l-2.1 1.523 4.095-2.363a.5.5 0 0 1 .541.839l-4.125 2.962 6.583-3.8a.5.5 0 0 1 .523.852l-.093.059 1.585-.914a.5.5 0 0 1 .525.851l-2.67 1.75 4.51-2.6a.5.5 0 0 1 .534.845l-9.454 6.514 12.757-7.369a.5.5 0 0 1 .523.851l-8.638 5.653 9.376-5.413a.5.5 0 0 1 .516.856l-2.365 1.486 1.769-1.021a.5.5 0 0 1 .522.852l-7.958 5.14 7.334-4.235a.5.5 0 0 1 .521.854l-6.933 4.452 6.316-3.642a.5.5 0 0 1 .522.851l-8.547 5.549 7.919-4.572a.5.5 0 0 1 .526.849l-10.536 6.96 9.888-5.709a.5.5 0 0 1 .516.857l-.465.291a.5.5 0 0 1 .405.9l-7.256 4.752 6.628-3.828a.5.5 0 0 1 .52.853l-2.442 1.567 1.844-1.065a.5.5 0 0 1 .52.854l-.714.456.123-.07a.5.5 0 0 1 .525.849l-3.908 2.58 3.295-1.9a.5.5 0 0 1 .532.845l-5.334 3.654 4.7-2.712a.5.5 0 0 1 .538.842l-5.015 3.527 4.37-2.522a.5.5 0 0 1 .551.832l-5.4 4.068 4.722-2.728a.5.5 0 0 1 .555.83l-3.905 3 3.24-1.86a.5.5 0 0 1 .542.839l-.531.382a.5.5 0 0 1 .505.839l-2.987 2.759 2.269-1.31a.5.5 0 0 1 .583.806l-1.048.934.377-.217a.5.5 0 0 1 .605.785l-.6.6a.509.509 0 0 1 .5.109.5.5 0 0 1 .11.583l-.582 1.209a.524.524 0 0 1 .453.25.5.5 0 0 1 -.182.682l-1.129.652a.5.5 0 0 1 -.252.065z" fill="#b78456"/><path d="m30.222 59.447a.5.5 0 0 1 -.281-.914l11.343-7.695-11 6.352a.5.5 0 0 1 -.523-.851l7.806-5.1-7.283 4.2a.5.5 0 0 1 -.518-.854l3.034-1.926-2.52 1.452a.5.5 0 0 1 -.517-.855l1.873-1.184-1.356.782a.5.5 0 0 1 -.526-.849l9.445-6.26-8.919 5.149a.5.5 0 0 1 -.53-.847l11.183-7.553-10.653 6.15a.5.5 0 0 1 -.528-.848l10.533-7.062-10 5.777a.5.5 0 0 1 -.53-.847l11.383-7.708-10.858 6.266a.5.5 0 0 1 -.524-.851l8.376-5.5-7.852 4.529a.5.5 0 0 1 -.524-.85l8.523-5.6-8 4.618a.5.5 0 0 1 -.519-.853l4.44-2.837-3.915 2.26a.5.5 0 0 1 -.523-.852l5.61-3.659-5.092 2.936a.5.5 0 0 1 -.533-.844l7.107-4.88-6.574 3.8a.5.5 0 0 1 -.522-.852l.387-.253a.5.5 0 0 1 -.54-.222.5.5 0 0 1 .148-.68l.5-.332a.5.5 0 0 1 -.523-.847l3.97-3.011-3.42 1.968a.5.5 0 0 1 -.586-.8l3.106-2.81-2.52 1.448a.5.5 0 0 1 -.612-.776l1.222-1.288-.61.351a.5.5 0 0 1 -.736-.55l.292-1.206a.491.491 0 0 1 -.238-.211.5.5 0 0 1 .182-.682l.5-.289a.5.5 0 0 1 .737.549l-.228.94 2.587-1.493a.5.5 0 0 1 .612.776l-1.221 1.288 3.583-2.068a.5.5 0 0 1 .586.8l-3.1 2.811 6.264-3.616a.5.5 0 0 1 .552.831l-3.972 3.013 6.67-3.848a.5.5 0 0 1 .527.849l-.485.323 2.035-1.175a.5.5 0 0 1 .522.852l-.048.031 1.536-.886a.5.5 0 0 1 .533.845l-7.112 4.881 9.929-5.733a.5.5 0 0 1 .524.852l-5.606 3.656 7.015-4.05a.5.5 0 0 1 .519.854l-4.434 2.837 3.915-2.26a.5.5 0 0 1 .524.851l-8.515 5.6 7.991-4.613a.5.5 0 0 1 .524.851l-8.376 5.5 7.852-4.534a.5.5 0 0 1 .53.847l-11.383 7.708 10.853-6.266a.5.5 0 0 1 .528.848l-10.537 7.065 10.01-5.78a.5.5 0 0 1 .53.847l-11.188 7.557 10.658-6.153a.5.5 0 0 1 .526.85l-9.438 6.255 8.912-5.145a.5.5 0 0 1 .517.856l-1.889 1.194 1.372-.794a.5.5 0 0 1 .518.854l-3.034 1.928 2.516-1.452a.5.5 0 0 1 .523.852l-7.8 5.1 7.275-4.2a.5.5 0 0 1 .53.847l-11.349 7.696 10.817-6.244a.5.5 0 0 1 .663.151.5.5 0 0 1 -.1.673l-4.58 3.635 4.026-2.323a.5.5 0 0 1 .5.865l-9.926 5.726a.5.5 0 0 1 -.561-.824l4.584-3.634-16.851 9.73a.494.494 0 0 1 -.25.067z" fill="#d09a62"/><g fill="#e5ae7c"><path d="m37.013 42.106a.5.5 0 0 1 -.284-.912l8.753-6.018-9.656 5.574a.5.5 0 0 1 -.535-.844l9.282-6.429-10.2 5.887a.5.5 0 0 1 -.519-.854l.477-.3-.73.421a.5.5 0 0 1 -.529-.848l7.132-4.775-7.785 4.492a.5.5 0 0 1 -.523-.852l8.454-5.49-9.082 5.242a.5.5 0 0 1 -.515-.856l3.135-1.957-3.47 2a.5.5 0 1 1 -.5-.865l28.651-16.538a.5.5 0 0 1 .515.856l-3.154 1.97.446-.258a.5.5 0 0 1 .522.852l-8.437 5.48 4.287-2.476a.5.5 0 0 1 .528.848l-7.133 4.776 7.722-4.458a.5.5 0 0 1 .519.855l-.486.309.7-.4a.5.5 0 0 1 .535.844l-9.285 6.432 10.122-5.843a.5.5 0 0 1 .533.844l-8.746 6.014 9.518-5.495a.5.5 0 0 1 .523.852l-2.47 1.608 2.772-1.6a.5.5 0 0 1 .587.8l-2.6 2.365 2.6-1.5a.5.5 0 0 1 .5.866l-6.613 3.817a.5.5 0 0 1 -.587-.8l2.6-2.365-14.918 8.608a.5.5 0 0 1 -.523-.851l2.463-1.6-4.346 2.509a.491.491 0 0 1 -.25.063z"/><path d="m36.123 9.664a.5.5 0 0 1 -.25-.933l1.955-1.131a.5.5 0 1 1 .5.865l-1.955 1.135a.494.494 0 0 1 -.25.064z"/><path d="m21.07 42.259a.5.5 0 0 1 -.3-.9l2.3-1.741-3.312 1.912a.5.5 0 0 1 -.51-.859l2.394-1.457-3.116 1.8a.5.5 0 0 1 -.515-.857l15.513-9.714-16.912 9.763a.5.5 0 0 1 -.513-.857l12.721-7.9-13.915 8.037a.5.5 0 0 1 -.514-.856l15.018-9.388-16.376 9.458a.5.5 0 0 1 -.515-.855l16.515-10.385-18 10.393a.5.5 0 0 1 -.511-.86l4.52-2.757-5.313 3.064a.5.5 0 0 1 -.515-.857l15.066-9.42-16.428 9.489a.5.5 0 0 1 -.519-.855l18.979-12.057-20.72 11.959a.5.5 0 0 1 -.513-.859l10.359-6.39-11.413 6.59a.5.5 0 0 1 -.51-.859l6.392-3.912-7.259 4.19a.5.5 0 0 1 -.513-.857l12.912-8.019-13.542 7.817a.5.5 0 0 1 -.513-.86l10.263-6.338-9.755 5.631a.5.5 0 0 1 -.515-.856l7.596-4.737-4.344 2.5a.5.5 0 0 1 -.523-.852l10.686-6.972-7.452 4.3a.5.5 0 0 1 -.526-.849l6.914-4.588-7.468 4.31a.5.5 0 0 1 -.534-.844l9.168-6.335-9.983 5.768a.5.5 0 0 1 -.53-.847l7.593-5.125-8.231 4.753a.5.5 0 0 1 -.522-.852l2.9-1.874-3.213 1.854a.5.5 0 0 1 -.534-.844l4.033-2.776-4.4 2.539a.5.5 0 0 1 -.647-.735l1.165-1.531-.543.312a.5.5 0 1 1 -.5-.865l2.7-1.559a.5.5 0 0 1 .647.736l-1.163 1.53 13.152-7.592a.5.5 0 0 1 .533.845l-4.025 2.77 9.527-5.5a.5.5 0 0 1 .521.853l-2.9 1.876 3.368-1.945a.5.5 0 0 1 .529.846l-7.592 5.124 8.3-4.791a.5.5 0 0 1 .534.844l-9.173 6.339 10.681-6.166a.5.5 0 0 1 .526.849l-6.911 4.586 9.423-5.439a.5.5 0 0 1 .523.851l-10.69 6.976 13.563-7.83a.5.5 0 0 1 .515.856l-7.593 4.742 13.863-8a.5.5 0 0 1 .513.858l-10.261 6.33 11.317-6.531a.5.5 0 0 1 .513.857l-12.922 8.025 14.128-8.157a.5.5 0 0 1 .511.86l-6.369 3.9 7.235-4.177a.5.5 0 0 1 .513.858l-10.377 6.4 11.431-6.6a.5.5 0 0 1 .518.854l-18.971 12.057 20.712-11.958a.5.5 0 0 1 .515.856l-15.078 9.427 16.44-9.491a.5.5 0 0 1 .511.859l-4.5 2.748 5.3-3.057a.5.5 0 0 1 .516.855l-16.531 10.385 18.009-10.4a.5.5 0 0 1 .515.857l-15 9.376 16.356-9.439a.5.5 0 0 1 .514.858l-12.731 7.9 13.925-8.04a.5.5 0 0 1 .516.857l-15.524 9.719 16.319-9.421a.5.5 0 0 1 .51.86l-28.738 17.492a.5.5 0 0 1 -.2.438l-4.108 3.108a.5.5 0 0 1 -.029.848l-4.63 2.672a.493.493 0 0 1 -.246.068z"/></g><path d="m29.9 35.425a.5.5 0 0 1 -.272-.919l2.461-1.6-3.255 1.879a.5.5 0 0 1 -.537-.842l8.314-5.843-9.941 5.74a.5.5 0 0 1 -.524-.851l3.733-2.451-4.642 2.679a.5.5 0 0 1 -.524-.851l3.754-2.466-4.667 2.7a.5.5 0 0 1 -.524-.852l2.905-1.893-3.736 2.156a.5.5 0 0 1 -.527-.849l5.082-3.385-6.135 3.542a.5.5 0 0 1 -.535-.843l7.788-5.407-9.291 5.365a.5.5 0 0 1 -.531-.846l6.718-4.573-8.014 4.625a.5.5 0 0 1 -.533-.845l7.369-5.073-8.784 5.071a.5.5 0 0 1 -.521-.853l.82-.528-1.494.861a.5.5 0 0 1 -.522-.851l1.26-.82-1.969 1.136a.5.5 0 0 1 -.523-.85l1.127-.74-1.83 1.057a.5.5 0 0 1 -.566-.819l4.486-3.666-6.115 3.53a.5.5 0 0 1 -.748-.475l.063-.744-.911.526a.5.5 0 0 1 -.5-.866l1.74-1a.5.5 0 0 1 .748.474l-.063.744 10.637-6.14a.5.5 0 0 1 .566.819l-4.486 3.666 11.978-6.914a.5.5 0 0 1 .523.851l-1.112.728 2.737-1.58a.5.5 0 0 1 .522.852l-1.26.82 2.9-1.673a.5.5 0 0 1 .521.853l-.825.532 2.015-1.163a.5.5 0 0 1 .533.844l-7.369 5.074 8.786-5.078a.5.5 0 0 1 .532.846l-6.722 4.576 8.011-4.622a.5.5 0 0 1 .536.844l-7.788 5.406 9.291-5.364a.5.5 0 0 1 .527.849l-5.078 3.381 6.135-3.542a.5.5 0 0 1 .523.852l-2.9 1.894 3.733-2.16a.5.5 0 0 1 .524.851l-3.753 2.466 4.664-2.693a.5.5 0 0 1 .524.851l-3.732 2.451 4.64-2.679a.5.5 0 0 1 .537.842l-8.314 5.839 9.941-5.739a.5.5 0 0 1 .523.851l-2.461 1.6 3.255-1.879a.5.5 0 0 1 .538.841l-1.694 1.2 2.508-1.453a.5.5 0 0 1 .75.447l-.023.844.963-.556a.5.5 0 0 1 .5.866l-1.74 1a.5.5 0 0 1 -.75-.448l.025-.843-11.26 6.5a.5.5 0 0 1 -.538-.84l1.7-1.2-10.175 5.878a.5.5 0 0 1 -.252.068z" fill="#a0724b"/><path d="m29.077 29.977a.5.5 0 0 1 -.3-.9l1.318-1-1.651.952a.5.5 0 0 1 -.562-.822l2.963-2.378-3.558 2.054a.5.5 0 0 1 -.567-.82l2.242-1.837-2.752 1.587a.5.5 0 0 1 -.57-.816l3.56-2.969-4.307 2.487a.5.5 0 0 1 -.55-.833l2.624-1.963-3.093 1.781a.5.5 0 0 1 -.726-.588l.263-.8-.061.035a.5.5 0 1 1 -.5-.865l1.191-.687a.5.5 0 0 1 .726.588l-.263.8 9.24-5.334a.5.5 0 0 1 .55.833l-2.617 1.958 2.069-1.194a.5.5 0 0 1 .57.816l-3.565 2.973 3-1.731a.5.5 0 0 1 .567.819l-2.242 1.838 3.933-2.27a.5.5 0 0 1 .562.823l-2.961 2.376 2.867-1.655a.5.5 0 0 1 .552.831l-3.229 2.457a.483.483 0 0 1 .135.152.5.5 0 0 1 -.183.682l-4.42 2.552a.493.493 0 0 1 -.255.068z" fill="#31b791"/><path d="m26.03 22.012a.5.5 0 0 1 -.31-.892l2.629-2.084-2.069 1.193a.5.5 0 0 1 -.551-.832l1.4-1.051-.847.488a.5.5 0 0 1 -.553-.834l1.579-1.2-1.029.593a.5.5 0 0 1 -.551-.832l1.5-1.133-.95.547a.5.5 0 0 1 -.552-.83l1.725-1.315-1.173.677a.5.5 0 0 1 -.543-.838l.369-.268a.5.5 0 0 1 -.393-.881l3.262-2.68-2.694 1.56a.5.5 0 0 1 -.545-.837l.448-.325a.5.5 0 0 1 -.448-.88l.488-.358a.5.5 0 0 1 -.513-.846l3.482-2.91-2.912 1.683a.5.5 0 0 1 -.578-.811l2.363-2.052-1.785 1.036a.5.5 0 0 1 -.6-.788l.922-.914-.32.184a.5.5 0 0 1 -.681-.682l.416-.726a.5.5 0 0 1 -.148-.923l1.124-.651a.5.5 0 0 1 .684.682l-.289.5 2.055-1.182a.5.5 0 0 1 .6.788l-.924.915 2.954-1.703a.5.5 0 0 1 .578.81l-2.361 2.05 3.411-1.971a.5.5 0 0 1 .571.817l-3.483 2.909 2.935-1.694a.5.5 0 0 1 .545.835l-.491.359a.5.5 0 0 1 .493.864l-.447.325a.5.5 0 0 1 .471.863l-3.261 2.68 2.7-1.556a.5.5 0 0 1 .543.838l-.368.266a.506.506 0 0 1 .493.217.5.5 0 0 1 -.113.675l-1.73 1.313 1.175-.678a.5.5 0 0 1 .552.832l-1.5 1.131.948-.547a.5.5 0 0 1 .552.831l-1.577 1.2 1.027-.593a.5.5 0 0 1 .551.832l-1.4 1.055.852-.492a.5.5 0 0 1 .561.824l-2.626 2.082 2.067-1.194a.5.5 0 0 1 .5.866l-7.962 4.6a.493.493 0 0 1 -.248.063z" fill="#31b791"/><path d="m.635 19.284a25.368 25.368 0 0 0 2.709 2.856l2.884 3.008-2.781 2.9a18.486 18.486 0 0 0 -2.882 3.106c-1.573 2.746 3.22 3.894 4.9 4.6l.823.347c0 .012-.011.022-.011.034v8.007c0 1.919-.716 5.284 1.411 6.282 5.193 2.438 10.644 4.432 15.939 6.636a40.152 40.152 0 0 0 5.421 2.227 2.658 2.658 0 0 0 .382.043 1.108 1.108 0 0 0 .915-.036 21.141 21.141 0 0 0 4.216-1.678l17-7.078c1.133-.472 2.069-1.078 2.163-2.435.074-1.056 0-2.145 0-3.2v-8.959l3.566-1.505c.985-.416 2.051-.834 2.364-1.987.447-1.647-1.429-2.984-2.42-4.018l-3.364-3.509c1.7-1.764 3.465-3.489 5.092-5.321a2.369 2.369 0 0 0 -.71-3.9c-.532-.261-1.1-.465-1.647-.7l-16.75-7.057a3.271 3.271 0 0 0 -3.37.088 13.272 13.272 0 0 0 -1.716 1.534c.047-2.521.113-5.057-.034-7.556-.116-1.968-2.428-1.556-3.811-1.556h-3.271a2.309 2.309 0 0 0 -2.112.8c-.538.792-.276 2.235-.276 3.125v5.145c-.416-.41-.836-.814-1.278-1.187a3.107 3.107 0 0 0 -3.378-.177c-2.344.946-4.66 1.967-6.988 2.949l-9.334 3.939c-1.587.67-5.353 1.766-3.652 4.233zm24.63 2.147a5.342 5.342 0 0 0 -1.637.1 1.666 1.666 0 0 0 -1.162 2.357 6.7 6.7 0 0 0 1.143 1.189l2.27 2.251 2.113 2.095a3.274 3.274 0 0 0 1.429 1.061c1.562.376 2.836-1.46 3.8-2.413l4.079-4.048a.51.51 0 0 0 .151-.245 1.468 1.468 0 0 0 -.883-2.256 6.168 6.168 0 0 0 -1.832-.086v-3.836l15.238 6.624 2.057.894-19.559 8.5-2.183.949-19.8-8.609-2.548-1.099 16.13-7.012 1.194-.519zm-21.416 12.544c-.93-.392-1.972-.689-2.11-1.9-.165-1.445 1.989-3.008 2.861-3.918l2.47-2.576 19.83 8.619a19.733 19.733 0 0 0 2.253 1.013l-6.009 5.762a1.568 1.568 0 0 1 -2.015.291l-3.4-1.435-10.1-4.261zm25.073 24.149-3.076-1.28-16.382-6.821c-.947-.394-1.669-.838-1.74-2.018s0-2.374 0-3.55v-7.745l8.726 3.683c2.2.929 5.174 2.961 7.4 1.092 1.9-1.594 3.654-3.4 5.424-5.159v21.956c-.12-.055-.239-.111-.352-.158zm23.354-10.349c0 .879-.049 1.651-.944 2.116-1.93 1-4.088 1.7-6.093 2.537l-9.32 3.88-3.641 1.516a15.771 15.771 0 0 1 -1.553.675v-21.867c1.7 1.647 3.392 3.3 5.129 4.906 1.925 1.776 4.55.027 6.543-.814l9.879-4.169zm5.464-16.851c1.033 1.266.372 2.379-.865 2.9l-3.4 1.435-10.1 4.261-3.781 1.6c-.9.38-1.409.72-2.308-.053-2.224-1.913-4.272-4.077-6.385-6.118.354-.161.69-.339.958-.455l11.77-5.118 8.916-3.876c1.731 1.783 3.628 3.5 5.195 5.424zm-20.586-22.012c.69-.6 1.338-.235 2.045.063l7.01 2.956 8.514 3.591c1.38.582 4.893 1.5 3.056 3.659-1.545 1.813-3.3 3.482-4.965 5.194l-15.787-6.863-2.292-1v-4.064c0-.409.009-.821.013-1.232.796-.771 1.571-1.578 2.406-2.304zm-10.208-7.369c.362-.229 1.6 0 2.01 0h3.136c.612 0 1.032-.124 1.173.61a19.192 19.192 0 0 1 0 3.407v5.585a.225.225 0 0 0 0 .213v10.269h-.973a1.574 1.574 0 0 0 -.567.117.924.924 0 0 0 -.394.263c-.183.277.158.366.377.366h1.7a.785.785 0 0 0 .526.17c.51 0 3.139-.259 2.142 1.034l-3.576 3.547-1.97 1.954c-.455.451-.515.358-.971-.057-1.506-1.37-2.9-2.881-4.351-4.315a7.833 7.833 0 0 1 -1.233-1.222c-.79-1.312 1.251-.941 1.96-.941a1.007 1.007 0 0 0 .483-.157h1.29a1.536 1.536 0 0 0 .567-.116.909.909 0 0 0 .396-.27c.053-.085.094-.2 0-.277a.583.583 0 0 0 -.387-.11h-1.549v-19.105c0-.274-.073-.786.211-.965zm-24.278 14.669a18.087 18.087 0 0 1 1.832-.775l15.852-6.688c1.011-.426 1.281-.763 2.265.066.929.783 1.772 1.694 2.648 2.538v5.438l-16.336 7.1-1.467.638-4.831-5.037c-.922-.962-1.423-2.455.037-3.28z" fill="#262626"/></svg>