<svg height="503pt" viewBox="0 -3 503.75288 503" width="503pt" xmlns="http://www.w3.org/2000/svg"><path d="m82.648438 497.292969c-1.882813 0-3.535157-1.25-4.046876-3.0625-.507812-1.8125.25-3.742188 1.855469-4.71875l126.742188-77.488281-146.699219 84.671874c-1.980469 1.089844-4.464844.417969-5.625-1.519531-1.160156-1.933593-.582031-4.441406 1.308594-5.671875l215.769531-134.035156-244.648437 141.226562c-1.980469 1.074219-4.453126.394532-5.605469-1.539062-1.152344-1.933594-.578125-4.429688 1.304687-5.664062l210.433594-129.351563-223.003906 128.75c-1.992188 1.132813-4.519532.460937-5.6875-1.507813-1.167969-1.96875-.542969-4.511718 1.40625-5.710937l172.902344-105.1875-168.707032 97.414063c-1.996094 1.179687-4.570312.519531-5.75-1.476563-1.179687-1.996094-.515625-4.570313 1.476563-5.75l144.890625-87.761719-140.617188 81.179688c-1.988281 1.109375-4.5.429687-5.65625-1.53125-1.15625-1.960938-.539062-4.488282 1.394532-5.695313l67.539062-40.554687-63.277344 36.542968c-1.976562 1.042969-4.417968.355469-5.5625-1.5625-1.140625-1.921874-.582031-4.398437 1.273438-5.636718l216.8125-132.96875-212.523438 122.667968c-1.984375 1.097657-4.476562.421876-5.636718-1.527343-1.160157-1.945313-.5625-4.460938 1.347656-5.683594l212.40625-130.148437-208.117188 120.152343c-1.976562 1.074219-4.449218.394531-5.605468-1.539062-1.152344-1.929688-.574219-4.429688 1.308593-5.660157l241.882813-149.238281-237.585938 137.167969c-1.988281 1.132812-4.519531.464844-5.6875-1.507812-1.167968-1.96875-.542968-4.507813 1.40625-5.710938l210.296875-128.796875-206.015625 118.933594c-1.980468 1.058593-4.441406.371093-5.585937-1.558594s-.570313-4.417969 1.304687-5.652344l198.839844-121.492187-194.558594 112.3125c-1.984375 1.078125-4.464844.394531-5.617187-1.550782-1.148438-1.941406-.554688-4.449218 1.34375-5.667968l102.789062-62.046875-98.515625 56.875c-1.996094 1.179687-4.570312.519531-5.75-1.476563-1.179687-1.996094-.515625-4.570312 1.476563-5.75l127.339843-77.363281-123.066406 71.042969c-1.988281 1.109375-4.5.429687-5.65625-1.53125-1.15625-1.964844-.539062-4.488282 1.394532-5.695313l22.324218-13.429687-18.0625 10.441406c-1.996094 1.179688-4.570312.519531-5.75-1.476562-1.179687-1.996094-.515625-4.570313 1.476563-5.75l50.261719-30.367188-45.988282 26.546875c-1.984375 1.082031-4.464844.394531-5.617187-1.546875-1.148438-1.945312-.554688-4.449219 1.34375-5.667969l56.078125-33.996093-51.804688 29.90625c-1.996094 1.179687-4.570312.519531-5.75-1.476563-1.179687-1.996094-.515625-4.570313 1.476563-5.75l6.714843-4.070313-2.472656 1.425782c-1.992187 1.1875-4.570312.535156-5.753906-1.457032-1.1875-1.988281-.535156-4.566406 1.453125-5.753906l110.332031-68.160156-106 61.210938c-1.984375 1.097656-4.476562.421874-5.636718-1.527344-1.160157-1.945313-.5625-4.460938 1.347656-5.679688l56.320312-34.515625-52.039062 30.039063c-1.984375 1.199218-4.5625.5625-5.761719-1.421875s-.5625-4.5625 1.421875-5.761719l132.542969-84.210938-128.195313 74.011719c-1.976562 1.128907-4.492187.480469-5.671875-1.46875-1.179687-1.945312-.589843-4.476562 1.324219-5.707031l106.640625-67.828125-102.292969 59.058594c-1.980468 1.203125-4.5625.570312-5.765625-1.410157-1.203125-1.984374-.570312-4.5625 1.410157-5.765624l90.320312-57.800782-85.964844 49.632813c-1.980468 1.144531-4.515625.488281-5.691406-1.472657-1.179688-1.964843-.570312-4.507812 1.371094-5.722656l28.324218-17.734375-24.003906 13.859375c-1.972656 1.214844-4.558594.597656-5.773437-1.378906-1.214844-1.972656-.597657-4.558594 1.375-5.773438l77.824219-51.199218-73.425782 42.402344c-1.964844 1.167968-4.5.546874-5.707031-1.390626-1.207031-1.941406-.640625-4.488281 1.277344-5.734374l65.351562-43.714844-60.921875 35.179687c-1.960937 1.09375-4.4375.453125-5.617187-1.457031-1.183594-1.914062-.648438-4.417969 1.210937-5.679688l34.179688-22.609374-29.773438 17.1875c-1.96875 1.179687-4.523437.558593-5.726562-1.394532-1.207032-1.957031-.617188-4.515625 1.320312-5.746094l13.09375-8.648437-8.6875 5.039063c-1.929687 1.144531-4.425781.566406-5.652344-1.3125-1.230468-1.878907-.761718-4.394532 1.0625-5.707032l42.203126-31.164062-37.613282 21.707031c-1.914062 1.015625-4.285156.410156-5.476562-1.402344-1.191406-1.808593-.808594-4.230469.886718-5.582031l19.984376-14.765625-15.394532 8.890625c-1.882812 1.203125-4.378906.71875-5.675781-1.101562-1.296875-1.816407-.941406-4.332032.808594-5.722657l20.394531-17.851562-15.527344 8.972656c-1.847656 1.027344-4.175781.523437-5.425781-1.183594-1.253906-1.707031-1.039063-4.078125.5-5.53125l4.605469-4.199219c-1.445313.675782-3.148438.472657-4.394532-.523437-1.246093-1-1.820312-2.617187-1.480468-4.175781l2.621094-12.027344c-.902344-.339844-1.660157-.984375-2.132813-1.820312-.5625-.964844-.71875-2.109376-.433594-3.183594.28125-1.078125.984375-2 1.945313-2.558594l4.195312-2.425781c1.441406-.835938 3.238282-.738281 4.582032.242187 1.34375.980469 1.980468 2.664063 1.621093 4.289063l-2.171875 9.980469 25.179688-14.519532c1.847656-1.03125 4.171875-.523437 5.425781 1.183594 1.25 1.703125 1.039063 4.074219-.5 5.53125l-4.589844 4.152344 18.851563-10.910156c1.871094-1.089844 4.265625-.578126 5.523437 1.1875 1.261719 1.761718.972657 4.191406-.664062 5.609374l-20.355469 17.878907 42.722656-24.660157c1.925782-1.101562 4.378906-.515624 5.597656 1.34375 1.214844 1.855469.773438 4.339844-1.007812 5.664063l-19.976562 14.765625 37.773437-21.78125c1.925781-1.101562 4.378906-.515625 5.59375 1.34375 1.21875 1.855469.777344 4.339844-1.003906 5.664062l-42.277344 31.175782 66.15625-38.199219c1.972656-1.179687 4.523437-.558594 5.730469 1.394531 1.203125 1.957032.613281 4.515625-1.324219 5.746094l-13.066406 8.621094 27.3125-15.769532c1.964843-1.140624 4.476562-.511718 5.671875 1.421876 1.195312 1.929687.636718 4.460937-1.257813 5.710937l-34.179687 22.613281 51.535156-29.765625c1.964844-1.164062 4.503906-.546875 5.707031 1.394531 1.207031 1.9375.640625 4.488282-1.273437 5.734376l-65.367188 43.71875 88.089844-50.855469c1.96875-1.179688 4.519531-.554688 5.726562 1.398437 1.207032 1.953125.617188 4.515625-1.320312 5.746094l-77.859375 51.199219 101.089844-58.359375c1.988281-1.195313 4.566406-.554688 5.761719 1.429687 1.199218 1.988281.558593 4.566407-1.429688 5.761719l-28.285156 17.710938 43.160156-24.917969c1.972656-1.160157 4.511719-.519531 5.703125 1.4375s.59375 4.503906-1.339844 5.730469l-90.320312 57.804687 112.546875-64.980469c1.980468-1.203125 4.5625-.574218 5.765625 1.40625 1.203125 1.984375.570312 4.566406-1.410157 5.769532l-106.597656 67.824218 129.929688-75.019531c1.984375-1.203125 4.566406-.570313 5.769531 1.410156 1.199219 1.984375.570313 4.5625-1.410156 5.765625l-132.578125 84.222656 158.320312-91.414062c1.289063-.769531 2.890625-.789062 4.199219-.054688 1.308594.730469 2.128906 2.105469 2.148437 3.605469.019532 1.503907-.761718 2.898438-2.050781 3.667969l-56.371093 34.53125 72.335937-41.765625c1.988281-1.191406 4.566406-.539063 5.757813 1.449219 1.1875 1.992187.539062 4.570312-1.453126 5.757812l-110.273437 68.132813 130.5-75.339844c1.996094-1.179687 4.570313-.519531 5.75 1.476563 1.179687 1.996093.519531 4.570312-1.476563 5.75l-6.714843 4.0625 19.574219-11.300782c1.996093-1.179687 4.570312-.515625 5.75 1.480469 1.179687 1.996094.519531 4.566406-1.476563 5.75l-56.101563 34.007813 71.441407-41.253907c1.996093-1.179687 4.570312-.519531 5.75 1.476563 1.179687 1.996094.519531 4.570312-1.476563 5.75l-50.433594 30.476562 65.308594-37.703125c1.988282-1.109375 4.5-.425781 5.65625 1.535157 1.15625 1.960937.539063 4.488281-1.394531 5.691406l-22.199219 13.347656 35.628906-20.582031c1.984376-1.078125 4.46875-.394531 5.617188 1.550781 1.152344 1.941406.554688 4.449219-1.34375 5.667969l-127.34375 77.386719 146.546875-84.621094c1.988281-1.109375 4.5-.429688 5.65625 1.53125 1.160156 1.960937.539063 4.488281-1.390625 5.695312l-102.871094 62.109375 113.589844-65.59375c1.988281-1.132812 4.519531-.464843 5.6875 1.503907 1.167969 1.972656.539062 4.511718-1.40625 5.714843l-198.851562 121.503907 194.570312-112.332032c1.988281-1.132812 4.519531-.460937 5.6875 1.507813s.539062 4.511719-1.40625 5.710937l-210.300781 128.808594 206.019531-118.945312c1.976562-1.070313 4.449219-.394532 5.601562 1.539062 1.15625 1.933594.578126 4.429688-1.304687 5.664062l-241.824219 149.210938 237.535156-137.140625c1.984376-1.097656 4.476563-.421875 5.636719 1.527344 1.160157 1.945312.5625 4.460937-1.347656 5.679687l-212.414063 130.148438 208.117188-120.132813c1.980469-1.097656 4.476562-.421875 5.636719 1.527344 1.15625 1.945313.5625 4.460937-1.347657 5.683594l-216.710937 132.890625 212.421875-122.644532c1.292969-.761718 2.890625-.777343 4.199219-.035156 1.304687.738282 2.117187 2.117188 2.128906 3.617188.015625 1.5-.773437 2.890625-2.066406 3.652344l-67.71875 40.660156 63.464843-36.636719c1.988282-1.109375 4.5-.429687 5.65625 1.53125s.539063 4.488281-1.394531 5.695313l-144.878906 87.761718 140.617187-81.183594c1.984376-1.078124 4.464844-.394531 5.617188 1.550782 1.148438 1.941406.554688 4.449218-1.34375 5.667968l-173.050781 105.269532 168.777343-97.445313c1.984376-1.097656 4.476563-.421875 5.636719 1.527344 1.160157 1.945313.5625 4.460937-1.347656 5.679687l-210.449219 129.386719 206.160156-119.027343c1.980469-1.117188 4.492188-.449219 5.660157 1.503906s.566406 4.480468-1.355469 5.699218l-215.777344 134.066407 211.472656-122.089844c1.988282-1.132813 4.519532-.464844 5.6875 1.503906 1.167969 1.96875.542969 4.511719-1.40625 5.714844l-126.742187 77.460937 122.460937-70.714843c1.988282-1.132813 4.519532-.460938 5.6875 1.507812 1.167969 1.96875.542969 4.511719-1.40625 5.710938l-109.730468 67.148437 105.449218-60.859375c1.96875-1.039062 4.410157-.359375 5.554688 1.550781 1.148438 1.910157.601562 4.382813-1.242188 5.632813l-150.433593 93.863281 146.121093-84.335937c1.972657-1.085938 4.449219-.421875 5.613282 1.503906 1.164062 1.925781.601562 4.429687-1.273438 5.671875l-155.085937 98.203125 150.746093-87.03125c1.992188-1.1875 4.566407-.535156 5.753907 1.457031 1.1875 1.988282.535156 4.566406-1.457031 5.753906l-68.683594 42.425782 64.386718-37.164063c1.964844-1.039062 4.398438-.363281 5.550782 1.535157 1.148437 1.902343.617187 4.371093-1.210938 5.632812l-109.789062 69.664062 105.449218-60.875c1.972657-1.054687 4.429688-.375 5.578126 1.542969 1.148437 1.921875.589843 4.40625-1.273438 5.648438l-39.003906 24.25 34.699218-20.035157c1.96875-1.101562 4.460938-.449218 5.632813 1.480469 1.171875 1.933594.609375 4.445313-1.277344 5.6875l-76.960937 49.183594 72.605468-41.90625c1.972657-1.085937 4.449219-.421875 5.613282 1.503906 1.164062 1.925781.601562 4.429688-1.273438 5.671875l-36.410156 23.089844 32.078125-18.515625c1.941406-1.046875 4.363281-.410156 5.539063 1.457031 1.179687 1.867188.707031 4.324219-1.074219 5.625l-89.910157 61.574219 85.4375-49.328125c1.964844-1.136719 4.476563-.507812 5.671876 1.421875 1.195312 1.933594.636718 4.464844-1.257813 5.714844l-42.914063 28.417969 38.5-22.226563c1.964844-1.097656 4.449219-.449219 5.625 1.472656 1.175782 1.921875.628907 4.425781-1.246093 5.679688l-7.8125 5.09375 3.433593-1.980469c1.914063-1.066406 4.328126-.480469 5.542969 1.347656 1.210938 1.828125.8125 4.28125-.917969 5.628906l-52.578124 39.878907 47.953124-27.699219c1.894532-1.074219 4.296876-.515625 5.527344 1.28125 1.230469 1.796875.882813 4.238281-.800781 5.617188l-33.734375 27.195312 29.007812-16.789062c1.882813-1.09375 4.289063-.566407 5.539063 1.214843 1.253906 1.78125.9375 4.226563-.730469 5.628907l-15.949218 13.503906 11.164062-6.4375c1.75-1 3.960938-.617188 5.273438.910156 1.308593 1.53125 1.347656 3.777344.089843 5.351562l-10.011719 12.472657 4.625-2.671875c1.992188-1.039063 4.453126-.328125 5.578126 1.621094 1.125 1.945312.515624 4.433593-1.382813 5.640624l-24.039063 13.875c-1.746093 1-3.960937.617188-5.269531-.914062-1.3125-1.527344-1.351562-3.773438-.09375-5.347656l9.996094-12.4375-32.398437 18.699218c-1.878907 1.070313-4.261719.539063-5.507813-1.230468-1.246094-1.769532-.941406-4.195313.699219-5.601563l15.988281-13.523437-35.25 20.355468c-1.898437 1.09375-4.316406.542969-5.554687-1.261718-1.238282-1.804688-.882813-4.261719.820312-5.636719l33.722656-27.171875-59.046875 34.070312c-1.917969 1.089844-4.351562.511719-5.570312-1.324218-1.222657-1.839844-.8125-4.308594.9375-5.652344l52.570312-39.867188-81.140625 46.84375c-1.960937 1.082032-4.429687.429688-5.601562-1.480468-1.171875-1.90625-.640625-4.398438 1.210937-5.664063l7.855469-5.117187-21.25 12.261718c-1.941406.964844-4.296875.296876-5.4375-1.542968-1.144531-1.839844-.695312-4.25 1.03125-5.558594l42.863281-28.394531-61.53125 35.496093c-1.941406 1.046876-4.363281.410157-5.542969-1.457031-1.175781-1.867187-.707031-4.324219 1.078126-5.628906l89.953124-61.605469-118.996093 68.691406c-1.972657 1.085938-4.449219.421876-5.613281-1.507812-1.164063-1.925781-.601563-4.425781 1.273437-5.667969l36.371094-22.941406-52.25 30.117187c-1.96875 1.082032-4.4375.425782-5.605469-1.492187s-.621094-4.414063 1.242188-5.667969l76.964843-49.203125-97.574219 56.363281c-1.976562 1.089844-4.460937.417969-5.621093-1.519531-1.160157-1.933593-.582031-4.441406 1.308593-5.671875l39.097657-24.34375-54.558594 31.5c-1.96875 1.066406-4.425781.402344-5.585937-1.511718-1.164063-1.914063-.617188-4.402344 1.238281-5.65625l109.734375-69.65625-133.136719 76.859374c-1.976563 1.074219-4.449219.394532-5.601563-1.539062-1.15625-1.933594-.578124-4.429688 1.304688-5.664062l68.542969-42.320313-85.867188 49.523437c-1.972656 1.085938-4.449219.421876-5.613281-1.507812-1.164062-1.925781-.601562-4.425781 1.273438-5.667969l155.085937-98.203125-182.589844 105.378906c-1.96875 1.039063-4.410156.359376-5.554687-1.550781-1.148438-1.910156-.601563-4.382812 1.242187-5.632812l150.46875-93.824219-175.003906 101.007812c-1.984375 1.097657-4.480469.421876-5.636719-1.527343-1.160156-1.949219-.5625-4.464844 1.347656-5.683594l109.769532-67.148437-128.875 74.359374c-.632813.378907-1.355469.585938-2.097656.597657zm0 0" fill="#cad0d7"/><path d="m22.410156 77.433594c-1.84375 0-3.46875-1.203125-4.011718-2.964844-.539063-1.765625.136718-3.671875 1.660156-4.707031l1.007812-.679688-10.71875 6.1875c-1.949218 1.132813-4.445312.523438-5.65625-1.382812-1.207031-1.902344-.691406-4.421875 1.167969-5.703125l11.210937-7.796875-6.714843 3.886719c-1.886719 1.085937-4.289063.546874-5.53125-1.238282-1.246094-1.785156-.921875-4.222656.75-5.621094l27.09375-22.609374-22.328125 12.890624c-1.851563 1.058594-4.199219.5625-5.464844-1.152343-1.265625-1.71875-1.039062-4.109375.519531-5.5625l12.726563-11.75-7.78125 4.492187c-1.570313.90625-3.546875.703125-4.898438-.507812-1.355468-1.210938-1.773437-3.152344-1.042968-4.816406l5.277343-12.019532c-2 .332032-3.949219-.816406-4.632812-2.722656-.683594-1.90625.09375-4.03125 1.847656-5.046875l9.449219-5.449219c1.566406-.878906 3.515625-.667968 4.855468.527344 1.335938 1.195312 1.769532 3.109375 1.070313 4.761719l-5.035156 11.617187 29.300781-16.90625c1.851562-1.058594 4.203125-.5625 5.464844 1.152344 1.265625 1.71875 1.042968 4.109375-.519532 5.5625l-12.726562 11.75 31.988281-18.464844c1.886719-1.085937 4.289063-.546875 5.535157 1.238282 1.246093 1.785156.917968 4.222656-.75 5.621093l-27.121094 22.585938 51.085937-29.445313c1.945313-1.117187 4.425781-.503906 5.628907 1.390625 1.203124 1.890625.707031 4.398438-1.132813 5.6875l-11.210937 7.753907 25.722656-14.832032c1.957031-1.113281 4.441406-.488281 5.636718 1.421875 1.195313 1.90625.671876 4.417969-1.1875 5.6875l-1.023437.695313 13.523437-7.804688c1.925782-1.101562 4.378907-.515625 5.59375 1.34375 1.21875 1.855469.777344 4.339844-1.003906 5.664063l-30.578125 22.664062 51.367188-29.671875c1.925781-1.121094 4.394531-.539062 5.617187 1.320313 1.226563 1.859375.78125 4.355469-1.007812 5.679687l-31.8125 23.730469 53.234375-30.730469c1.898437-1.082031 4.316406-.523437 5.546875 1.285156 1.230468 1.808594.867187 4.261719-.839844 5.632813l-39.390625 31.339844 66.308594-38.257813c1.921875-1.109375 4.375-.53125 5.601562 1.324219 1.222657 1.851563.789063 4.335937-.984375 5.667969l-32.507812 24.339844 54.320312-31.332032c1.898438-1.105468 4.328125-.566406 5.574219 1.242188s.886719 4.269531-.824219 5.648437l-40.976562 33.398438 69.792968-40.289063c1.898438-1.097656 4.324219-.546875 5.566407 1.265625 1.238281 1.808594.871093 4.269531-.839844 5.644531l-39.988281 32.085938 67.585937-38.996094c1.945313-1.136718 4.4375-.535156 5.652344 1.363282 1.210937 1.898437.710937 4.417968-1.136719 5.703124l-18.585937 13.078126 34.933593-20.144532c1.921876-1.125 4.390626-.554687 5.621094 1.300782 1.230469 1.855468.800782 4.351562-.984375 5.683593l-34.136719 25.851563 56.921876-32.835938c1.914062-1.113281 4.359374-.550781 5.597656 1.285156 1.234375 1.835938.832031 4.3125-.921875 5.664063l-36.988281 28.679687 61.773437-35.628906c1.898437-1.078125 4.308594-.519531 5.539063 1.285156 1.230468 1.800782.875 4.246094-.820313 5.625l-39.660156 31.699219 66.945312-38.609375c1.914063-1.113281 4.363281-.550781 5.597657 1.285156 1.234374 1.835938.832031 4.3125-.921876 5.664063l-37.003906 28.730469 61.847656-35.679688c1.917969-1.121094 4.375-.5625 5.609376 1.28125 1.238281 1.84375.824218 4.332032-.941407 5.675782l-36.300781 27.96875 60.566406-34.925782c1.933594-1.109375 4.398438-.511718 5.613282 1.359375 1.210937 1.871094.75 4.363281-1.054688 5.675781l-24.835938 17.859376 33.085938-19.09375c1.921875-1.109376 4.378906-.53125 5.601562 1.320312 1.222657 1.855469.789063 4.339844-.984374 5.671875l-25.441407 19.195313 21.53125-12.429688c1.925781-1.132812 4.40625-.554688 5.632813 1.316406 1.226562 1.867188.773437 4.371094-1.035156 5.691406l-4.707032 3.5.148438-.09375c1.851562-1.058593 4.203125-.5625 5.464844 1.15625 1.265624 1.714844 1.042968 4.105469-.519532 5.558594l-11.492187 10.59375 6.605469-3.820312c1.644531-.953125 3.722656-.6875 5.070312.652344 1.34375 1.339843 1.625 3.417968.679688 5.0625l-5.320313 9.308593c2.035156-.917969 4.4375-.082031 5.457031 1.90625 1.023438 1.988281.3125 4.425781-1.621094 5.546875l-13.0625 7.554688c-1.640624.949218-3.710937.675781-5.054687-.660156-1.34375-1.335938-1.625-3.410157-.683594-5.054688l5.296875-9.234375-25.972656 14.941406c-1.847656 1.058594-4.199219.5625-5.464844-1.152343-1.261718-1.71875-1.039062-4.109376.523438-5.5625l11.5-10.589844-30.007813 17.320312c-1.929687 1.171875-4.441406.605469-5.679687-1.28125-1.242188-1.886718-.765625-4.417968 1.070312-5.726562l4.710938-3.492188-18.199219 10.511719c-1.921875 1.136719-4.402344.566406-5.636719-1.296875-1.234375-1.867188-.789062-4.371094 1.011719-5.695312l25.46875-19.195313-45.375 26.195313c-1.9375 1.109374-4.398437.511718-5.613281-1.359376-1.210938-1.871093-.75-4.363281 1.054687-5.675781l24.808594-17.902343-43.207031 24.953124c-1.914063 1.125-4.375.5625-5.609375-1.28125-1.238281-1.84375-.824219-4.332031.941406-5.675781l36.269531-27.96875-60.566406 34.941407c-1.910156 1.089843-4.339844.523437-5.566406-1.304688-1.226563-1.824219-.835938-4.289062.898437-5.644531l37.023438-28.773438-61.894531 35.742188c-1.898438 1.097656-4.324219.546875-5.5625-1.265625-1.242188-1.808594-.875-4.269532.839843-5.644532l39.65625-31.742187-66.96875 38.667969c-1.910156 1.089844-4.339843.519531-5.566406-1.304688-1.226563-1.828125-.835937-4.289062.898437-5.644531l36.996094-28.714844-61.808594 35.679688c-1.921874 1.128906-4.386718.558593-5.617187-1.300781-1.234375-1.855469-.800781-4.347657.984375-5.679688l34.144531-25.894531-56.957031 32.882812c-1.945312 1.136719-4.441406.535157-5.652344-1.363281-1.214844-1.898438-.710937-4.414062 1.136719-5.703125l18.539063-13.078125-34.90625 20.144531c-1.902344 1.125-4.347657.582031-5.59375-1.242187-1.25-1.820313-.871094-4.296875.859374-5.664063l39.996094-32.121093-67.628906 39.0625c-1.894531 1.109374-4.324219.566406-5.570312-1.242188-1.246094-1.808594-.886719-4.269531.820312-5.648438l40.976562-33.40625-69.808593 40.289063c-1.921875 1.109375-4.375.53125-5.597657-1.324219-1.222656-1.851562-.792968-4.335937.984376-5.667968l32.523437-24.339844-54.363281 31.363281c-1.902344 1.085937-4.316406.527344-5.550782-1.28125-1.230468-1.808594-.863281-4.261719.839844-5.632813l39.382813-31.367187-66.308594 38.300781c-1.925781 1.121094-4.390625.539063-5.617187-1.320312-1.222657-1.859375-.78125-4.355469 1.007812-5.679688l31.804688-23.730468-53.265626 30.746093c-1.929687 1.132813-4.40625.554688-5.632812-1.316406s-.773438-4.375 1.035156-5.691406l30.59375-22.664063-51.402344 29.679688c-.636718.371094-1.359374.566406-2.097656.5625zm0 0" fill="#eb5463"/><path d="m60.230469 169.945312c-1.65625 0-3.15625-.96875-3.832031-2.480468-.675782-1.507813-.402344-3.277344.703124-4.511719l14.046876-15.753906-26.855469 15.496093c-1.90625 1.097657-4.339844.535157-5.570313-1.285156-1.234375-1.820312-.851562-4.285156.875-5.648437l3.359375-2.644531c-1.820312.519531-3.761719-.242188-4.742187-1.859376-.980469-1.617187-.757813-3.691406.546875-5.0625l11.554687-12.097656-6.402344 3.695313c-1.636718.941406-3.699218.671875-5.042968-.652344-1.339844-1.324219-1.636719-3.382813-.714844-5.03125l3.683594-6.613281c-1.746094-.292969-3.121094-1.648438-3.4375-3.390625-.316406-1.742188.496094-3.496094 2.027344-4.382813l9.46875-5.445312c1.632812-.945313 3.695312-.683594 5.042968.640625 1.34375 1.324219 1.640625 3.382812.722656 5.03125l-2.777343 4.984375 18.464843-10.667969c1.808594-1.042969 4.109376-.601563 5.398438 1.039063 1.289062 1.640624 1.179688 3.980468-.261719 5.492187l-11.53125 12.085937 23.742188-13.707031c1.910156-1.121093 4.359375-.566406 5.601562 1.265625 1.242188 1.832032.847657 4.3125-.898437 5.667969l-3.082032 2.417969c1.804688-.617188 3.800782.058594 4.855469 1.648437 1.058594 1.589844.90625 3.691407-.363281 5.117188l-14.058594 15.753906 8.835938-5.09375c1.636718-.941406 3.699218-.675781 5.042968.648437 1.339844 1.328126 1.636719 3.386719.714844 5.03125l-3.648437 6.539063c1.21875.207031 2.285156.953125 2.894531 2.03125 1.160156 2.007813.476562 4.570313-1.527344 5.734375l-9.425781 5.4375c-1.636719.945312-3.699219.679688-5.042969-.640625-1.34375-1.324219-1.640625-3.382813-.722656-5.03125l2.710938-4.871094-18.257813 10.519531c-.632813.378907-1.359375.585938-2.097656.59375zm0 0" fill="#5e8faa"/><path d="m145.652344 169.945312c-1.679688.003907-3.195313-.996093-3.859375-2.535156-.660157-1.542968-.34375-3.332031.8125-4.546875l18.398437-19.355469-24.71875 14.269532c-1.828125 1.039062-4.144531.566406-5.417968-1.109375-1.273438-1.671875-1.109376-4.03125.378906-5.515625l15.410156-15.105469-10.382812 5.992187c-1.574219.878907-3.539063.648438-4.871094-.570312-1.332032-1.21875-1.734375-3.152344-1.003906-4.800781l5.039062-11.121094c-1.980469.234375-3.847656-.953125-4.480469-2.839844-.628906-1.890625.15625-3.960937 1.875-4.960937l9.46875-5.460938c1.578125-.875 3.535157-.644531 4.867188.570313 1.328125 1.214843 1.734375 3.144531 1.007812 4.792969l-4.824219 10.574218 27.648438-15.945312c1.828125-1.042969 4.140625-.570313 5.414062 1.105468 1.273438 1.671876 1.113282 4.03125-.378906 5.515626l-15.410156 15.109374 21.277344-12.28125c1.804687-1.03125 4.09375-.585937 5.378906 1.046876 1.285156 1.632812 1.183594 3.960937-.242188 5.476562l-18.390624 19.351562 13.261718-7.660156c1.75-1.011718 3.972656-.628906 5.285156.90625s1.347657 3.789063.078126 5.363282l-4.121094 5.109374c2.019531-.425781 4.054687.683594 4.789062 2.613282.734375 1.929687-.042968 4.109375-1.835937 5.136718l-17.84375 10.28125c-1.75 1.011719-3.96875.632813-5.285157-.902343-1.3125-1.53125-1.351562-3.785157-.085937-5.359375l3.742187-4.652344-18.925781 10.914062c-.621093.371094-1.332031.578126-2.054687.59375zm0 0" fill="#5e8faa"/><path d="m248.445312 169.945312c-1.652343 0-3.152343-.96875-3.828124-2.472656-.679688-1.507812-.410157-3.273437.6875-4.507812l10.644531-11.96875-25.761719 14.871094c-1.882812 1.097656-4.296875.570312-5.546875-1.214844-1.253906-1.789063-.929687-4.238282.746094-5.632813l11.15625-9.367187-7.964844 4.597656c-1.878906 1.089844-4.28125.5625-5.535156-1.210938-1.25-1.777343-.941407-4.214843.71875-5.621093l5.824219-4.925781-1.007813.578124c-1.570313.90625-3.542969.707032-4.894531-.5-1.351563-1.203124-1.777344-3.140624-1.058594-4.804687l5.304688-12.253906c-2.003907.355469-3.976563-.777344-4.675782-2.691407-.699218-1.914062.078125-4.050781 1.839844-5.074218l9.46875-5.460938c1.566406-.910156 3.542969-.707031 4.894531.5 1.351563 1.203125 1.777344 3.140625 1.054688 4.804688l-5.136719 11.867187 29.757812-17.179687c1.875-1.070313 4.253907-.539063 5.5 1.226562 1.246094 1.761719.949219 4.183594-.683593 5.59375l-5.816407 4.929688 9.585938-5.53125c1.882812-1.082032 4.277344-.546875 5.523438 1.234375 1.246093 1.777343.929687 4.214843-.730469 5.613281l-11.15625 9.367188 6.882812-3.96875c1.78125-1.03125 4.050781-.617188 5.351563.980468 1.300781 1.59375 1.253906 3.898438-.113282 5.4375l-10.636718 11.960938 5.40625-3.113282c1.671875-.964843 3.789062-.667968 5.128906.726563 1.335938 1.390625 1.550781 3.515625.519531 5.148437l-2.820312 4.492188c.921875.332031 1.691406.984375 2.175781 1.835938 1.160156 2.007812.476562 4.574218-1.527344 5.734374l-9.425781 5.4375c-1.671875.96875-3.789063.671876-5.128906-.722656-1.339844-1.390625-1.554688-3.519531-.519531-5.152344l1.097656-1.746093-13.175782 7.589843c-.644531.382813-1.378906.589844-2.125.59375zm0 0" fill="#5e8faa"/><path d="m343.644531 169.945312c-1.65625 0-3.15625-.96875-3.832031-2.480468-.675781-1.507813-.402344-3.277344.699219-4.511719l7.554687-8.46875-23.417968 13.515625c-1.832032 1.070312-4.175782.605469-5.460938-1.085938-1.285156-1.691406-1.101562-4.078124.425781-5.554687l21.320313-20.882813-20.070313 11.59375c-1.820312 1-4.097656.515626-5.355469-1.132812-1.261718-1.652344-1.125-3.972656.320313-5.464844l10.128906-10.183594-5.035156 2.921876c-1.628906.9375-3.679687.679687-5.027344-.632813-1.34375-1.308594-1.652343-3.355469-.753906-5.007813l3.851563-7.066406c-1.78125-.238281-3.210938-1.578125-3.5625-3.339844-.351563-1.761718.457031-3.546874 2.007812-4.449218l9.46875-5.464844c1.628906-.945312 3.6875-.691406 5.035156.621094 1.351563 1.316406 1.660156 3.367187.757813 5.019531l-3.054688 5.589844 19.472657-11.238281c1.820312-1 4.09375-.519532 5.355468 1.132812 1.261719 1.648438 1.125 3.972656-.320312 5.464844l-10.121094 10.222656 21.527344-12.457031c1.832031-1.070313 4.179687-.605469 5.460937 1.085937 1.285157 1.695313 1.101563 4.078125-.425781 5.554688l-21.351562 20.925781 17.332031-10.074219c1.785156-1.03125 4.054687-.613281 5.355469.988282 1.300781 1.597656 1.246093 3.90625-.125 5.441406l-7.554688 8.460937 2.339844-1.351562c2.007812-1.140625 4.554687-.449219 5.710937 1.550781 1.152344 1.996094.476563 4.550781-1.511719 5.71875l-25.046874 14.445312c-.636719.378907-1.359376.585938-2.097657.59375zm0 0" fill="#5e8faa"/><path d="m438.179688 169.945312c-1.589844 0-3.042969-.898437-3.753907-2.320312-.710937-1.417969-.558593-3.121094.394531-4.394531l11.15625-15.308594-31.054687 17.9375c-1.851563 1.03125-4.175781.523437-5.429687-1.183594-1.25-1.707031-1.035157-4.078125.5-5.53125l18.207031-16.617187-14.933594 8.617187c-1.816406 1.050781-4.132813.59375-5.414063-1.066406-1.285156-1.664063-1.144531-4.015625.328126-5.511719l9.417968-9.628906-4.382812 2.519531c-1.636719.949219-3.710938.679688-5.054688-.65625-1.347656-1.335937-1.628906-3.40625-.691406-5.050781l3.582031-6.320312c-1.722656-.328126-3.058593-1.691407-3.351562-3.421876-.296875-1.726562.515625-3.457031 2.035156-4.335937l9.464844-5.464844c1.640625-.949219 3.714843-.683593 5.0625.648438 1.34375 1.332031 1.632812 3.402343.699219 5.050781l-2.605469 4.574219 17.820312-10.203125c1.820313-1.0625 4.144531-.613282 5.433594 1.054687 1.292969 1.664063 1.144531 4.027344-.339844 5.523438l-9.464843 9.621093 21.664062-12.507812c1.847656-1.03125 4.171875-.523438 5.425781 1.183594 1.25 1.707031 1.035157 4.078125-.5 5.53125l-18.207031 16.617187 14.714844-8.492187c1.714844-.988282 3.886718-.640625 5.210937.832031 1.324219 1.46875 1.441407 3.667969.277344 5.269531l-11.152344 15.308594 5.664063-3.265625c2.003906-1.136719 4.554687-.445313 5.707031 1.550781 1.15625 2 .480469 4.554688-1.511719 5.71875l-22.835937 13.128906c-.632813.375-1.347657.582032-2.082031.59375zm0 0" fill="#5e8faa"/><path d="m60.875 262.273438c-1.714844 0-3.261719-1.046876-3.898438-2.640626-.636718-1.597656-.234374-3.421874 1.011719-4.601562l5.035157-4.800781-16.136719 9.316406c-1.835938 1.070313-4.179688.605469-5.464844-1.085937-1.28125-1.691407-1.097656-4.078126.425781-5.554688l21.394532-20.90625-19.328126 11.214844c-1.847656 1-4.152343.484375-5.390624-1.210938-1.242188-1.699218-1.035157-4.050781.480468-5.503906l5.277344-4.769531-.367188.210937c-1.613281.960938-3.667968.738282-5.03125-.550781-1.367187-1.285156-1.710937-3.324219-.84375-4.988281l4.371094-8.539063c-1.867187-.070312-3.460937-1.367187-3.910156-3.179687-.453125-1.8125.347656-3.703125 1.964844-4.640625l9.433594-5.441407c1.609374-.957031 3.660156-.730468 5.023437.550782 1.363281 1.285156 1.710937 3.316406.851563 4.980468l-3.761719 7.421876 22.394531-12.953126c1.847656-1 4.152344-.484374 5.390625 1.210938 1.242187 1.699219 1.035156 4.050781-.480469 5.503906l-5.277344 4.769532 13.90625-8.023438c1.832032-1.058594 4.160157-.585938 5.4375 1.097656 1.28125 1.679688 1.105469 4.050782-.402343 5.53125l-21.394531 20.902344 18.003906-10.382812c1.855468-1.128907 4.261718-.65625 5.554687 1.085937 1.289063 1.742187 1.039063 4.179687-.578125 5.628906l-5.035156 4.789063h.074219c1.644531-.945313 3.714843-.671875 5.058593.664062 1.34375 1.335938 1.625 3.40625.683594 5.054688l-3.515625 6.160156c1.707031.351562 3.019531 1.71875 3.296875 3.441406s-.535156 3.433594-2.046875 4.304688l-9.425781 5.441406c-1.640625.945312-3.714844.679688-5.058594-.65625s-1.628906-3.40625-.691406-5.054688l2.476562-4.328124-17.425781 9.9375c-.628906.378906-1.347656.585937-2.082031.59375zm0 0" fill="#5e8faa"/><path d="m150.066406 262.273438c-1.722656.003906-3.269531-1.046876-3.902344-2.648438-.636718-1.597656-.230468-3.421875 1.023438-4.601562l7.804688-7.363282-17.542969 10.132813c-1.882813 1.09375-4.289063.566406-5.539063-1.214844-1.253906-1.78125-.9375-4.226563.730469-5.625l12.171875-10.308594-8.578125 4.945313c-1.863281 1.074218-4.238281.566406-5.5-1.175782-1.261719-1.742187-1-4.15625.605469-5.589843l7.4375-6.640625-2.519532 1.46875c-1.585937.894531-3.5625.664062-4.902343-.566406-1.335938-1.230469-1.730469-3.183594-.972657-4.839844l4.84375-10.390625c-1.605468.097656-3.128906-.703125-3.953124-2.082031-1.160157-2.003907-.476563-4.570313 1.527343-5.730469l9.46875-5.464844c1.582031-.894531 3.5625-.664063 4.902344.566406 1.335937 1.234375 1.730469 3.1875.972656 4.839844l-4.566406 9.726563 26.253906-15.109376c1.863281-1.074218 4.238281-.566406 5.5 1.175782 1.261719 1.742187 1 4.160156-.605469 5.589844l-7.429687 6.640624 13.867187-8.007812c1.882813-1.09375 4.289063-.566406 5.539063 1.214844 1.253906 1.78125.9375 4.226562-.730469 5.625l-12.179687 10.308594 8.125-4.691407c1.851562-1.109375 4.246093-.632812 5.527343 1.105469 1.285157 1.734375 1.042969 4.160156-.558593 5.609375l-7.804688 7.359375 2.835938-1.628906c1.613281-.929688 3.652343-.6875 5 .601562 1.347656 1.285156 1.683593 3.308594.824219 4.964844l-4.195313 8.03125c1.84375.125 3.386719 1.441406 3.804687 3.242188.417969 1.796874-.390624 3.660156-1.992187 4.582031l-9.425781 5.4375c-1.617188.976562-3.6875.753906-5.058594-.542969-1.371094-1.300781-1.703125-3.355469-.816406-5.019531l3.558594-6.859375-21.453126 12.339844c-.632812.382812-1.359374.589843-2.097656.59375zm0 0" fill="#5e8faa"/><path d="m237.464844 262.28125c-1.769532.003906-3.351563-1.101562-3.953125-2.769531-.601563-1.664063-.09375-3.527344 1.269531-4.65625l1.511719-1.257813-6.65625 3.84375c-1.839844 1.054688-4.175781.578125-5.449219-1.117187-1.269531-1.695313-1.078125-4.070313.445312-5.539063l20.714844-19.976562-16.785156 9.683594c-1.820312 1.050781-4.132812.59375-5.417969-1.066407-1.285156-1.664062-1.144531-4.015625.328125-5.511719l6.464844-6.546874-1.375.789062c-1.675781.976562-3.796875.679688-5.140625-.714844-1.34375-1.394531-1.554687-3.527344-.519531-5.160156l2.90625-4.660156c-.957032-.324219-1.761719-.984375-2.257813-1.863282-1.160156-2.003906-.476562-4.570312 1.527344-5.730468l9.46875-5.464844c1.671875-.976562 3.792969-.683594 5.136719.710938 1.34375 1.398437 1.558594 3.527343.519531 5.164062l-1.269531 2.046875 13.691406-7.90625c1.820312-1.046875 4.132812-.59375 5.417969 1.070313 1.28125 1.660156 1.140625 4.015624-.332031 5.511718l-6.472657 6.5625 19.640625-11.339844c1.839844-1.105468 4.21875-.648437 5.511719 1.0625 1.296875 1.710938 1.089844 4.125-.472656 5.59375l-20.726563 19.960938 19.070313-11.003906c1.886719-1.085938 4.289062-.550782 5.535156 1.234375 1.246094 1.785156.917969 4.226562-.75 5.621093l-3.128906 2.621094c1.488281-.15625 2.949219.492188 3.828125 1.703125.882812 1.210938 1.050781 2.800781.441406 4.171875l-5.035156 11.09375c1.976562-.226562 3.84375.964844 4.46875 2.855469s-.167969 3.957031-1.890625 4.953125l-9.425781 5.4375c-1.578126.914062-3.566407.703125-4.921876-.519531-1.351562-1.226563-1.757812-3.183594-1.003906-4.84375l4.773438-10.550781-27.578125 15.949218c-.640625.367188-1.367188.5625-2.109375.558594zm0 0" fill="#5e8faa"/><path d="m342.058594 262.273438c-1.675782 0-3.191406-.992188-3.855469-2.53125-.664063-1.539063-.351563-3.324219.796875-4.542969l7.070312-7.511719-21.5625 12.445312c-1.835937 1.089844-4.199218.628907-5.488281-1.074218-1.289062-1.703125-1.09375-4.097656.449219-5.570313l20.902344-20.246093-19.472656 11.238281c-1.773438 1.035156-4.03125.636719-5.34375-.9375-1.308594-1.578125-1.292969-3.871094.046874-5.425781l12.027344-14.109376-6.714844 3.886719c-1.671874.960938-3.78125.65625-5.117187-.734375-1.332031-1.390625-1.550781-3.507812-.523437-5.140625l2.785156-4.398437c-1.515625-.570313-2.566406-1.964844-2.699219-3.578125-.136719-1.613281.671875-3.160157 2.070313-3.976563l9.46875-5.464844c1.671874-.957031 3.78125-.65625 5.117187.734376 1.332031 1.390624 1.550781 3.511718.523437 5.144531l-1.023437 1.617187 13-7.511718c1.769531-1.03125 4.03125-.636719 5.339844.941406 1.3125 1.574218 1.292969 3.867187-.042969 5.421875l-12.035156 14.117187 27.78125-16.054687c1.835937-1.089844 4.195312-.628907 5.484375 1.074219 1.289062 1.699218 1.097656 4.097656-.449219 5.570312l-20.890625 20.246094 16.894531-9.753906c1.804688-1.042969 4.101563-.605469 5.394532 1.027343 1.292968 1.636719 1.191406 3.972657-.238282 5.488281l-7.058594 7.492188 1.902344-1.097656c2.007813-1.140625 4.558594-.449219 5.710938 1.550781 1.152344 1.996094.476562 4.550781-1.511719 5.71875l-26.660156 15.351563c-.625.378906-1.34375.585937-2.078125.59375zm0 0" fill="#5e8faa"/><path d="m428.441406 262.273438c-1.667968.003906-3.175781-.984376-3.847656-2.507813-.667969-1.527344-.371094-3.308594.757812-4.53125l13.933594-15.109375-25.683594 14.839844c-1.816406 1.035156-4.117187.574218-5.394531-1.078125-1.28125-1.652344-1.148437-3.996094.308594-5.496094l20.53125-20.941406-15.820313 9.140625c-1.558593.898437-3.511718.707031-4.863281-.476563-1.351562-1.1875-1.800781-3.097656-1.113281-4.761719l5.589844-13.5625c-2.03125.503907-4.125-.566406-4.902344-2.511718-.78125-1.941406-.011719-4.160156 1.804688-5.203125l9.46875-5.460938c1.554687-.894531 3.503906-.703125 4.855468.476563 1.347656 1.183594 1.800782 3.089844 1.121094 4.75l-5.484375 13.320312 31.777344-18.347656c1.816406-1.035156 4.117187-.574219 5.398437 1.078125s1.148438 3.996094-.308594 5.496094l-20.507812 20.914062 22.855469-13.195312c1.796875-1.039063 4.085937-.613281 5.382812 1.007812 1.300781 1.621094 1.214844 3.949219-.195312 5.472657l-13.941407 15.109374 8.761719-5.035156c1.628907-.941406 3.683594-.6875 5.027344.621094 1.347656 1.3125 1.660156 3.359375.765625 5.011719l-3.886719 7.191406c1.789063.226563 3.230469 1.570313 3.585938 3.335937.355469 1.765626-.457031 3.5625-2.015625 4.460938l-9.425782 5.441406c-1.628906.945313-3.6875.695313-5.039062-.617187s-1.660156-3.363281-.761719-5.015625l3.113281-5.75-19.75 11.339844c-.632812.382812-1.355468.589843-2.097656.59375zm0 0" fill="#5e8faa"/><path d="m57.101562 354.601562c-1.652343 0-3.144531-.96875-3.824218-2.472656-.675782-1.503906-.410156-3.265625.683594-4.5l17.492187-19.785156-27.53125 15.898438c-1.816406 1.035156-4.121094.574218-5.398437-1.082032-1.28125-1.65625-1.140626-4.003906.320312-5.5l17.171875-17.339844-12.101563 6.984376c-1.578124.910156-3.5625.699218-4.914062-.523438-1.347656-1.21875-1.757812-3.171875-1.011719-4.832031l5.085938-11.28125c-1.992188.273437-3.898438-.90625-4.542969-2.8125s.152344-4 1.898438-4.992188l9.46875-5.457031c1.578124-.910156 3.558593-.699219 4.910156.519531 1.351562 1.222657 1.761718 3.175781 1.015625 4.835938l-4.84375 10.785156 27.949219-16.117187c1.820312-1.046876 4.132812-.589844 5.417968 1.070312s1.144532 4.015625-.332031 5.511719l-17.164063 17.296875 22.730469-13.117188c1.78125-1.019531 4.039063-.601562 5.335938.988282 1.296875 1.589843 1.257812 3.882812-.097657 5.425781l-17.5 19.757812 12.269532-7.085937c1.609375-.957032 3.660156-.730469 5.023437.550781 1.363281 1.285156 1.710938 3.316406.851563 4.980469l-4.28125 8.394531c1.875.070313 3.476562 1.375 3.921875 3.195313.445312 1.820312-.371094 3.714843-1.996094 4.644531l-9.425781 5.429687c-1.613282.964844-3.667969.738282-5.035156-.550781-1.363282-1.285156-1.707032-3.324219-.84375-4.988281l3.746093-7.351563-22.351562 12.925781c-.636719.382813-1.359375.585938-2.097657.59375zm0 0" fill="#5e8faa"/><path d="m145.164062 354.601562c-1.746093 0-3.304687-1.082031-3.921874-2.714843-.613282-1.632813-.15625-3.476563 1.152343-4.628907l7.25-6.402343-12.765625 7.367187c-1.894531 1.085938-4.304687.539063-5.542968-1.261718-1.238282-1.796876-.890626-4.246094.800781-5.628907l7.234375-5.875-3.128906 1.804688c-1.835938 1.070312-4.179688.605469-5.460938-1.085938-1.285156-1.691406-1.101562-4.078125.425781-5.554687l9.84375-9.550782-4.828125 2.777344c-1.609375.929688-3.640625.683594-4.988281-.601562-1.34375-1.28125-1.683594-3.300782-.835937-4.953125l4.199218-8.101563c-1.855468-.105468-3.417968-1.417968-3.847656-3.226562-.425781-1.804688.386719-3.679688 2-4.601563l9.46875-5.457031c1.613281-.976562 3.683594-.753906 5.054688.542969 1.375 1.300781 1.707031 3.355469.820312 5.023437l-3.601562 6.941406 21.679687-12.507812c1.832031-1.070312 4.179687-.605469 5.460937 1.085938 1.285157 1.691406 1.101563 4.078124-.425781 5.554687l-9.835937 9.550781 19.683594-11.355468c1.894531-1.109376 4.324218-.566407 5.570312 1.242187 1.246094 1.804687.890625 4.269531-.820312 5.648437l-7.253907 5.875 3.417969-1.964843c1.867188-1.066407 4.238281-.550781 5.492188 1.199219 1.25 1.746093.984374 4.15625-.625 5.582031l-7.257813 6.398437 2.390625-1.378906c1.609375-.953125 3.652344-.726562 5.015625.554688 1.359375 1.277343 1.710937 3.304687.859375 4.96875l-5.136719 10.171874c1.78125-.359374 3.59375.449219 4.515625 2.015626 1.152344 2.003906.464844 4.566406-1.535156 5.722656l-10.820312 6.246094c-1.605469.953124-3.652344.726562-5.011719-.550782-1.363281-1.28125-1.714844-3.308594-.863281-4.972656l4.976562-9.851562-26.707031 15.359374c-.632813.382813-1.359375.585938-2.097657.59375zm0 0" fill="#5e8faa"/><path d="m251.734375 354.601562c-1.664063.003907-3.171875-.980468-3.84375-2.503906-.671875-1.523437-.378906-3.300781.746094-4.527344l6.28125-6.867187-21.546875 12.464844c-1.894532 1.085937-4.308594.535156-5.546875-1.261719-1.238281-1.800781-.886719-4.25.804687-5.628906l3.207032-2.59375-3.257813 1.878906c-1.855469 1.148438-4.277344.683594-5.578125-1.066406s-1.042969-4.203125.59375-5.648438l17.566406-16.734375-12.589844 7.257813c-1.550781.898437-3.5.710937-4.855468-.464844-1.351563-1.171875-1.808594-3.078125-1.136719-4.738281l5.714844-14.144531c-2.042969.570312-4.1875-.46875-5.003907-2.425782-.8125-1.957031-.042968-4.210937 1.796876-5.261718l9.46875-5.457032c1.550781-.898437 3.503906-.710937 4.859374.464844 1.355469 1.179688 1.808594 3.085938 1.132813 4.75l-5.625 13.925781 32.515625-18.769531c1.855469-1.390625 4.488281-1.015625 5.878906.839844 1.390625 1.855468 1.011719 4.484375-.839844 5.875l-17.558593 16.71875 19.320312-11.164063c1.894531-1.066406 4.289063-.511719 5.519531 1.28125 1.230469 1.792969.890626 4.226563-.785156 5.613281l-3.828125 3.085938c1.8125-.546875 3.769531.1875 4.773438 1.792969 1.003906 1.605469.808593 3.683593-.476563 5.074219l-6.277344 6.855468 1.082032-.621094c1.992187-1.039062 4.453125-.328124 5.578125 1.621094 1.125 1.945313.515625 4.433594-1.382813 5.640625l-24.609375 14.144531c-.632812.382813-1.355469.589844-2.097656.59375zm0 0" fill="#5e8faa"/><path d="m338.105469 354.601562c-1.714844.003907-3.257813-1.035156-3.902344-2.621093-.640625-1.589844-.253906-3.40625.980469-4.597657l6.253906-6.050781-17.847656 10.273438c-1.847656 1.058593-4.199219.5625-5.464844-1.152344-1.261719-1.71875-1.039062-4.109375.523438-5.5625l18.40625-16.953125-16.191407 9.339844c-1.832031 1.074218-4.179687.605468-5.460937-1.085938-1.285156-1.691406-1.101563-4.074218.425781-5.550781l9.851563-9.570313-4.832032 2.785157c-1.613281.929687-3.644531.683593-4.988281-.597657-1.347656-1.285156-1.6875-3.300781-.835937-4.957031l4.195312-8.097656c-1.855469-.109375-3.417969-1.421875-3.84375-3.230469-.425781-1.804687.386719-3.679687 1.996094-4.601562l9.46875-5.457032c1.617187-.976562 3.6875-.753906 5.058594.542969 1.371093 1.300781 1.703124 3.355469.816406 5.023438l-3.601563 6.941406 21.679688-12.507813c1.835937-1.070312 4.179687-.605468 5.464843 1.085938 1.28125 1.691406 1.097657 4.078125-.425781 5.554688l-9.847656 9.558593 19.691406-11.363281c1.851563-1.058594 4.203125-.5625 5.464844 1.152344 1.265625 1.71875 1.039063 4.109375-.519531 5.5625l-18.417969 16.960937 14.386719-8.300781c1.835937-1.085938 4.199218-.625 5.488281 1.078125 1.289063 1.699219 1.09375 4.097656-.449219 5.570313l-6.246094 6.058593 1.234376-.703125c1.648437-.976562 3.753906-.691406 5.085937.6875 1.335937 1.363282 1.585937 3.457032.605469 5.09375l-3.394532 5.667969c1.707032.351563 3.019532 1.722656 3.296876 3.445313.273437 1.71875-.542969 3.433593-2.050782 4.300781l-9.914062 5.707031c-1.65625.957031-3.75.671875-5.089844-.691406-1.34375-1.363282-1.59375-3.460938-.609375-5.097656l2.257813-3.761719-16.601563 9.527343c-.632813.382813-1.359375.589844-2.097656.59375zm0 0" fill="#5e8faa"/><path d="m435.855469 354.601562c-1.675781.003907-3.191407-.984374-3.859375-2.515624-.667969-1.535157-.363282-3.320313.777344-4.542969l6.144531-6.597657-21.066407 12.15625c-1.824218 1.011719-4.113281.53125-5.378906-1.125-1.261718-1.660156-1.117187-3.992187.339844-5.480468l21.574219-21.480469-21.160157 12.203125c-1.84375 1.128906-4.238281.675781-5.539062-1.046875-1.304688-1.722656-1.085938-4.152344.5-5.617187l9.425781-9.03125-4.429687 2.519531c-1.613282.960937-3.667969.738281-5.03125-.550781-1.367188-1.285157-1.710938-3.324219-.84375-4.988282l4.261718-8.328125c-1.871093-.074219-3.46875-1.378906-3.910156-3.199219-.445312-1.820312.371094-3.710937 1.996094-4.640624l9.46875-5.457032c1.613281-.964844 3.671875-.742187 5.039062.550782 1.367188 1.289062 1.710938 3.332031.835938 5l-3.707031 7.234374 22.15625-12.785156c1.839843-1.046875 4.167969-.5625 5.4375 1.132813 1.269531 1.691406 1.078125 4.0625-.441407 5.535156l-9.425781 9.039063 18.910157-10.914063c1.820312-1.011719 4.109374-.53125 5.375 1.125 1.265624 1.660156 1.117187 3.992187-.339844 5.480469l-21.554688 21.480468 17.417969-10.070312c1.796875-1.042969 4.089844-.613281 5.386719 1.015625 1.292968 1.628906 1.203125 3.960937-.21875 5.480469l-6.136719 6.585937.96875-.542969c1.992187-1.042968 4.453125-.328124 5.578125 1.617188 1.125 1.949219.515625 4.4375-1.382812 5.640625l-25.179688 14.523437c-.601562.363282-1.285156.570313-1.988281.59375zm0 0" fill="#5e8faa"/><path d="m70.488281 446.929688c-1.609375 0-3.074219-.921876-3.777343-2.367188-.699219-1.449219-.511719-3.167969.484374-4.429688l7.679688-9.746093-26.136719 15.109375c-1.847656 1.015625-4.160156.503906-5.40625-1.199219-1.246093-1.699219-1.039062-4.0625.488281-5.515625l16.109376-14.6875-16.007813 9.230469c-1.757813 1.003906-3.984375.609375-5.289063-.9375-1.308593-1.550781-1.320312-3.808594-.03125-5.375l15.601563-18.824219-10.289063 5.933594c-1.644531.9375-3.710937.65625-5.046874-.679688-1.335938-1.335937-1.613282-3.402344-.679688-5.046875l3.441406-5.972656c-1.695312-.371094-2.988281-1.746094-3.253906-3.460937-.265625-1.714844.550781-3.414063 2.054688-4.28125l9.46875-5.453126c1.644531-.949218 3.722656-.675781 5.066406.664063 1.34375 1.34375 1.617187 3.421875.664062 5.066406l-2.339844 4.070313 16.980469-9.769532c1.757813-1.015624 3.992188-.625 5.304688.925782 1.304687 1.558594 1.304687 3.828125 0 5.386718l-15.613281 18.828126 29.578124-17.074219c1.847657-1.015625 4.164063-.503907 5.410157 1.199219 1.246093 1.699218 1.035156 4.0625-.492188 5.515624l-16.113281 14.648438 11.222656-6.472656c1.742188-.996094 3.941406-.617188 5.253906.898437s1.367188 3.75.132813 5.328125l-7.679687 9.738282 2.292968-1.308594c1.992188-1.042969 4.453125-.328125 5.578125 1.617187 1.125 1.949219.515625 4.4375-1.382812 5.640625l-21.132813 12.207032c-.648437.390624-1.386718.597656-2.140625.59375zm0 0" fill="#5e8faa"/><path d="m170.832031 446.921875c-1.457031 0-2.808593-.75-3.574219-1.984375-.765624-1.238281-.835937-2.78125-.1875-4.082031l6.976563-14.042969-32.507813 18.792969c-1.851562 1.058593-4.203124.5625-5.464843-1.15625-1.265625-1.714844-1.042969-4.109375.519531-5.558594l16.914062-15.636719-17.257812 9.960938c-1.875 1.078125-4.257812.554687-5.511719-1.207032-1.25-1.757812-.960937-4.183593.667969-5.597656l8.949219-7.742187-4.113281 2.367187c-1.558594.898438-3.511719.707032-4.863282-.476562-1.351562-1.183594-1.800781-3.097656-1.113281-4.757813l5.554687-13.390625c-1.800781.429688-3.671874-.375-4.597656-1.980468-.558594-.964844-.710937-2.109376-.425781-3.1875.289063-1.078126.996094-1.996094 1.960937-2.550782l9.46875-5.457031c1.558594-.902344 3.515626-.710937 4.871094.476563 1.351563 1.1875 1.796875 3.105468 1.105469 4.769531l-5.433594 13.101562 31.519531-18.207031c1.875-1.09375 4.273438-.578125 5.535157 1.191406 1.257812 1.765625.960937 4.203125-.683594 5.617188l-8.957031 7.753906 11.675781-6.714844c1.851563-1.058594 4.203125-.5625 5.464844 1.15625 1.265625 1.714844 1.039062 4.109375-.519531 5.558594l-16.90625 15.621094 12.019531-6.933594c1.601562-.9375 3.632812-.710938 4.988281.558594 1.359375 1.269531 1.71875 3.277344.886719 4.941406l-6.964844 14.042969.914063-.53125c1.300781-.824219 2.949218-.875 4.296874-.121094 1.347657.75 2.171876 2.179687 2.152344 3.71875-.023437 1.542969-.886718 2.949219-2.253906 3.664063l-12.957031 7.476562c-.65625.371094-1.398438.5625-2.148438.546875zm0 0" fill="#5e8faa"/><path d="m260.757812 446.929688c-1.503906 0-2.890624-.804688-3.640624-2.109376-.746094-1.308593-.738282-2.914062.023437-4.210937l7.554687-12.917969-30.914062 17.878906c-1.847656 1.015626-4.164062.503907-5.410156-1.195312-1.246094-1.703125-1.035156-4.0625.492187-5.519531l15.6875-14.269531-15.972656 9.160156c-1.78125 1.019531-4.035156.601562-5.335937-.984375-1.296876-1.585938-1.261719-3.878907.089843-5.421875l15.945313-18.019532-10.683594 6.167969c-1.621094.929688-3.664062.675781-5.007812-.625-1.34375-1.304687-1.664063-3.339843-.78125-4.988281l3.960937-7.40625c-1.816406-.179688-3.308594-1.511719-3.691406-3.292969-.382813-1.785156.429687-3.609375 2.011719-4.519531l9.46875-5.457031c1.625-.941407 3.679687-.691407 5.027343.617187 1.347657 1.308594 1.664063 3.355469.773438 5.007813l-3.234375 6.035156 20.203125-11.601563c1.78125-1.019531 4.035156-.605468 5.335937.984376 1.296875 1.585937 1.261719 3.878906-.089844 5.421874l-15.945312 18.019532 27.578125-15.945313c1.847656-1.019531 4.164063-.507812 5.410156 1.195313 1.246094 1.699218 1.035157 4.0625-.492187 5.519531l-15.695313 14.265625 10.785157-6.21875c1.652343-.949219 3.734374-.671875 5.074218.679688 1.34375 1.351562 1.605469 3.4375.644532 5.078124l-7.554688 12.917969 1.847656-1.066406c1.992188-1.042969 4.453125-.328125 5.578125 1.617187 1.125 1.949219.515625 4.4375-1.382812 5.644532l-15.5625 8.964844c-.632813.382812-1.355469.589843-2.097657.59375zm0 0" fill="#5e8faa"/><path d="m333.765625 446.929688c-1.753906.003906-3.324219-1.085938-3.9375-2.726563-.613281-1.644531-.140625-3.496094 1.183594-4.640625l1.871093-1.628906-9.675781 5.589844c-1.851562 1.03125-4.175781.523437-5.429687-1.183594-1.25-1.707032-1.035156-4.078125.5-5.53125l17.902344-16.351563-15.300782 8.832031c-1.769531 1.019532-4.019531.617188-5.328125-.960937-1.304687-1.574219-1.28125-3.859375.050781-5.410156l12.101563-14.035157-6.824219 3.929688c-1.671875.972656-3.792968.679688-5.136718-.714844-1.34375-1.394531-1.558594-3.527344-.519532-5.160156l2.914063-4.667969c-1.558594-.535156-2.660157-1.925781-2.816407-3.566406-.160156-1.636719.652344-3.214844 2.078126-4.039063l9.464843-5.457031c1.675781-.972656 3.796875-.679687 5.140625.714844s1.554688 3.527344.519532 5.164063l-1.277344 2.046874 13.699218-7.90625c1.769532-1.011718 4.007813-.605468 5.3125.960938 1.300782 1.570312 1.285157 3.847656-.035156 5.398438l-12.101562 14.050781 27.4375-15.828125c1.847656-1.015625 4.164062-.503906 5.410156 1.195312 1.246094 1.703125 1.035156 4.0625-.492188 5.519532l-17.878906 16.351562 13.976563-8.066406c1.871093-1.074219 4.25-.554688 5.503906 1.203125 1.253906 1.753906.96875 4.171875-.652344 5.59375l-3.238281 2.804687c1.351562-.140625 2.6875.367188 3.609375 1.367188 1.320313 1.476562 1.429687 3.679687.257813 5.28125l-3.632813 4.96875c1.589844-.132813 3.113281.6875 3.875 2.089844 1.160156 2.003906.476563 4.570312-1.527344 5.730468l-14.738281 8.488282c-1.714844.976562-3.878906.625-5.199219-.84375-1.320312-1.46875-1.4375-3.660157-.28125-5.257813l2.972657-4.082031-17.628907 10.191406c-.640625.382812-1.378906.585938-2.128906.585938zm0 0" fill="#5e8faa"/><path d="m431.691406 446.929688c-1.644531 0-3.132812-.957032-3.816406-2.453126-.683594-1.492187-.429688-3.246093.644531-4.488281l12.949219-14.949219-27.496094 15.875c-1.882812 1.074219-4.273437.539063-5.519531-1.234374-1.242187-1.773438-.933594-4.203126.71875-5.609376l11.96875-10.070312-7.914063 4.566406c-1.835937 1.070313-4.179687.605469-5.464843-1.085937-1.28125-1.695313-1.097657-4.078125.425781-5.554688l8.730469-8.46875-3.710938 2.132813c-1.621093.933594-3.664062.679687-5.011719-.621094-1.34375-1.300781-1.664062-3.332031-.785156-4.984375l3.976563-7.4375c-1.816407-.179687-3.304688-1.511719-3.691407-3.296875-.382812-1.78125.429688-3.609375 2.011719-4.519531l9.46875-5.453125c1.625-.949219 3.679688-.699219 5.03125.605468 1.351563 1.308594 1.667969 3.351563.777344 5.007813l-3.257813 6.085937 20.3125-11.71875c1.832032-1.070312 4.179688-.605468 5.460938 1.089844 1.285156 1.691406 1.101562 4.074219-.425781 5.550782l-8.734375 8.46875 19.363281-11.179688c1.878906-1.074219 4.269531-.542969 5.515625 1.234375 1.246094 1.773437.933594 4.203125-.714844 5.605469l-11.976562 10.132812 8.390625-4.835937c1.773437-1.019531 4.027343-.613281 5.332031.964843 1.300781 1.578126 1.277344 3.863282-.058594 5.414063l-12.953125 14.941406 7.679688-4.441406c1.65625-.949219 3.742187-.660156 5.082031.699219 1.335938 1.363281 1.585938 3.453125.609375 5.09375l-3.171875 5.296875c1.058594.289062 1.964844.980469 2.515625 1.929687.5625.964844.714844 2.109375.425781 3.1875-.289062 1.078125-.992187 1.996094-1.960937 2.550782l-9.425781 5.433593c-1.65625.957031-3.75.671875-5.089844-.691406s-1.589844-3.460937-.609375-5.101563l1.8125-3.019531-15.273438 8.8125c-.652343.367188-1.394531.550781-2.140625.535157zm0 0" fill="#5e8faa"/><g fill="#262626"><path d="m1.921875 377.355469v70.582031c0 8.980469-4.199219 30.140625 0 38.410156 9.105469 18.121094 49.085937 9.414063 66.011719 9.414063h359.03125c14.746094 0 55.398437 8.035156 68.875-4.195313 14.121094-12.75 5.039062-59.15625 5.039062-75.777344v-402.507812c-.015625-.375-.230468-.71875-.5625-.894531-10.433594-20.136719-73.695312-8.863281-91.246094-8.863281h-217.449218c-54.019532 0-109.585938-3.789063-163.480469 0-38.707031 2.710937-26.21875 39.160156-26.21875 71.351562zm481.605469 113.554687c-9.425782 4.769532-32.355469 0-43.109375 0h-340.234375c-17.960938 0-75.464844 10.34375-86.109375-7.820312-2.996094-5.121094 0-20.851563 0-26.550782v-380.296874h474.667969v270.210937c0 43.207031 4.707031 89.449219 0 132.449219-1.152344 10.472656 2.945312 7.878906-5.214844 12.007812zm-469.453125-476.265625c5.035156-7.195312 3.214843-3.667969 14.867187-5.128906 32.019532-3.996094 67.195313 0 99.433594 0h288.316406c13.546875 0 65.535156-8.628906 72.050782 7.023437v53.71875h-429.761719c-6.277344 0-12.875.410157-19.441407.570313h-8.039062c-2.6875-.082031-5.347656-.234375-7.933594-.570313-3.113281-.675781-6.320312-.796874-9.476562-.351562.289062-.183594.96875-.964844 0-3.359375-2.734375-6.8125-4.070313-46.144531-.015625-51.902344zm0 0"/><path d="m36.535156 163.03125c3.476563 7.082031 12.96875 5.53125 19.449219 5.53125h23.753906.796875c1.832032-.027344 3.648438-.332031 5.386719-.90625 6.394531-.773438 11.40625-5.859375 12.085937-12.265625.699219-7.214844 0-14.847656 0-22.089844 0-6.371093 1.679688-15.039062-4.941406-18.71875-5.941406-1.898437-12.238281-2.40625-18.40625-1.484375-11.265625 0-36.722656-3.96875-39.097656 12.003906-.460938 6.117188-.480469 12.257813-.066406 18.378907-.972656 6.523437-.621094 13.171875 1.039062 19.550781zm15.949219-44.828125h12.355469c6.914062 0 18.507812-2.519531 20.796875 6.125.941406 3.550781 1.738281 36.929687-.789063 39.097656h-15.183594c-6.007812 0-18.824218 2.515625-21.585937-4.800781-1.117187-6.09375-1.261719-12.328125-.429687-18.464844v-12.925781c0-1.972656-.839844-6.933594-.546876-8 .097657-.269531.117188-.5625.050782-.839844.40625-.027343.808594-.113281 1.191406-.253906 1.378906-.160156 2.769531-.140625 4.140625.0625zm0 0"/><path d="m185.554688 113.886719c-5.964844-2.632813-12.5625-3.472657-18.996094-2.425781-12.429688 0-36.511719-4.40625-38.792969 13.261718-.453125 7.191406-.453125 14.40625 0 21.597656 0 5.597657-1.402344 14 2.164063 18.832032 4.824218 6.539062 14.578124 5.039062 21.671874 5.039062h20.90625c.910157.164063 1.84375.164063 2.753907 0 1.03125-.011718 2.042969-.246094 2.972656-.6875 16.375-4.703125 12.167969-23.445312 12.167969-37.882812-.007813-6.335938 1.007812-13.46875-4.847656-17.734375zm-44.941407 44.550781c-1.230469-6.3125-1.410156-12.785156-.535156-19.160156 0-3.359375-2.148437-16.953125 1.679687-19.464844 2.769532-1.839844 13.628907 0 16.785157 0 4.472656 0 15.535156-2.164062 18.582031 1.863281 2.519531 3.359375 2.835938 39.609375-.570312 40.15625h-17.792969c-5.347657-.035156-15.855469 2.484375-18.148438-3.394531zm0 0"/><path d="m222.03125 164.566406c4.339844 6.3125 13.570312 4.925782 20.203125 4.925782h22.433594c.917969.113281 1.847656.089843 2.753906-.074219 8.109375-1.308594 14.6875-5.101563 15.292969-13.898438.546875-7.957031 0-16.148437 0-24.125 0-6.074219 1.089844-13.203125-4.691406-17.113281-5.789063-2.390625-12.121094-3.132812-18.304688-2.148438-11.851562 0-37.320312-4.324218-39.535156 12.714844-.433594 6.894532-.433594 13.808594 0 20.699219-.042969 5.457031-1.511719 14.210937 1.847656 19.019531zm10.382812-43.359375c1.125-3.054687 2.332032-2.074219 6.320313-2.074219h11.332031c5.925782 0 17.757813-2.519531 20.226563 4.835938 1.117187 3.355469 1.914062 37.339844-1.191407 38.523438h-16.351562c-5.269531 0-17.121094 2.417968-20.019531-3.867188-1.289063-6.445312-1.433594-13.070312-.417969-19.566406-.855469-5.921875-.832031-11.9375.058594-17.851563zm0 0"/><path d="m313.519531 163.03125c3.457031 6.941406 13.007813 5.320312 19.386719 5.320312h23.863281c.871094-.015624 1.738281-.101562 2.59375-.25 7.714844-1.242187 14.789063-4.199218 15.644531-12.71875.730469-7.199218 0-14.855468 0-22.089843 0-6.3125 1.679688-15.042969-4.925781-18.632813-5.945312-1.816406-12.21875-2.28125-18.363281-1.367187-10.460938 0-34.488281-3.6875-38.796875 9.734375-1.109375 6.761718-1.253906 13.644531-.425781 20.445312-.992188 6.523438-.644532 13.175782 1.023437 19.558594zm11.75-45.039062c1.367188-.183594 2.753907-.183594 4.121094 0h12.371094c7.042969 0 18.527343-2.519532 20.851562 6.335937.898438 3.425781 1.679688 36.496094-.65625 39.296875h-15.25c-6.167969 0-18.84375 2.519531-21.648437-5.035156-1.105469-6.09375-1.25-12.324219-.425782-18.464844 0-6.160156-1.394531-14.101562-.746093-19.992188.125-.660156.125-1.339843 0-2 .464843.078126.941406.03125 1.382812-.140624zm0 0"/><path d="m462.59375 114.121094c-5.777344-2.457032-12.128906-3.238282-18.328125-2.25-12.039063 0-37.300781-4.378906-39.449219 12.902344-.425781 6.890624-.425781 13.800781 0 20.691406-1.0625 6.433594-.417968 13.035156 1.871094 19.144531 4.347656 6.488281 13.527344 5.144531 20.261719 5.144531h22.441406c.914063.152344 1.84375.152344 2.753906 0 19.96875-3.222656 15.234375-22.847656 15.234375-38.242187-.03125-6.167969 1.03125-13.359375-4.785156-17.390625zm-45.207031 44.484375c-1.292969-6.414063-1.429688-13.011719-.402344-19.480469-.867187-5.890625-.835937-11.878906.085937-17.757812 1.140626-2.9375 2.515626-1.992188 6.34375-1.992188h11.375c5.679688 0 17.699219-2.476562 20.144532 4.535156 1.164062 3.355469 1.914062 37.382813-1.300782 38.304688h-16.292968c-5.027344.019531-17.105469 2.394531-19.953125-3.589844zm0 0"/><path d="m37.300781 256.792969c4.28125 5.875 13.707031 4.339843 20.050781 4.339843h22.402344.753906.511719c.160157 0 .371094-.066406.546875-.082031.34375 0 .570313 0 .964844-.078125 7.984375-1.28125 14.699219-4.554687 15.496094-13.285156.695312-7.554688 0-15.46875 0-23.039062 0-6.824219 1.46875-15.109376-6.121094-18.46875-5.445312-1.398438-11.105469-1.757813-16.683594-1.054688-11.609375 0-37.519531-4.199219-39.6875 12.496094-.398437 6.371094-.398437 12.757812 0 19.128906-.039062 5.625-1.785156 15.160156 1.765625 20.042969zm10.507813-45.039063c1.542968-2.515625 14.578125-.980468 18.414062-.980468 6.816406 0 17.132813-2.601563 19.414063 5.875.972656 3.617187 1.804687 37.03125-.90625 38.851562h-16.449219c-5.878906 0-17.460938 2.578125-20.203125-4.554688-1.125-6.09375-1.269531-12.328124-.429687-18.46875 0-4.195312-2.191407-16.960937.160156-20.722656zm0 0"/><path d="m185.410156 206.9375c-5.945312-1.84375-12.226562-2.320312-18.382812-1.402344-10.523438 0-34.503906-3.71875-38.777344 9.796875-1.097656 6.761719-1.242188 13.644531-.425781 20.445313-.992188 6.527344-.644531 13.191406 1.023437 19.582031 3.457032 6.984375 12.992188 5.386719 19.40625 5.386719h23.820313c.886719.007812 1.769531-.070313 2.644531-.226563 7.789062-1.257812 14.769531-4.195312 15.617188-12.808593.722656-7.207032 0-14.855469 0-22.089844 0-6.355469 1.664062-15.066406-4.925782-18.683594zm-45.003906 44.015625c-1.109375-6.097656-1.253906-12.328125-.429688-18.464844 0-6.136719-1.402343-14.09375-.738281-19.96875.125-.648437.125-1.316406 0-1.964843.488281.070312.984375 0 1.433594-.203126 1.367187-.1875 2.753906-.1875 4.121094 0h12.375c7 0 18.515625-2.515624 20.832031 6.269532.90625 3.453125 1.746094 36.613281-.699219 39.242187h-15.265625c-6.121094.03125-18.835937 2.515625-21.628906-4.910156zm0 0"/><path d="m222.03125 256.894531c4.347656 6.3125 13.5625 4.925781 20.203125 4.925781h22.433594c.917969.125 1.847656.097657 2.753906-.074218 8.117187-1.308594 14.6875-5.101563 15.292969-13.898438.546875-7.957031 0-16.148437 0-24.125 0-6.074218 1.089844-13.203125-4.691406-17.113281-5.789063-2.390625-12.121094-3.132813-18.304688-2.148437-11.863281 0-37.328125-4.332032-39.535156 12.714843-.433594 6.894531-.433594 13.804688 0 20.699219-.042969 5.457031-1.511719 14.210938 1.847656 19.019531zm10.382812-43.359375c1.125-3.046875 2.332032-2.074218 6.320313-2.074218h11.332031c5.925782 0 17.757813-2.519532 20.226563 4.835937 1.117187 3.355469 1.914062 37.347656-1.199219 38.523437h-16.34375c-5.269531 0-17.128906 2.417969-20.019531-3.867187-1.289063-6.445313-1.433594-13.070313-.417969-19.566406-.855469-5.921875-.832031-11.9375.058594-17.851563zm0 0"/><path d="m314.601562 257.550781c4.867188 6.644531 14.53125 5.167969 21.714844 5.167969h20.984375c.890625.167969 1.808594.167969 2.703125 0 1.015625-.011719 2.015625-.242188 2.9375-.679688 16.375-4.699218 12.160156-23.660156 12.160156-38.046874 0-6.386719.984376-13.570313-4.894531-17.894532-5.949219-2.707031-12.570312-3.582031-19.019531-2.519531-12.246094 0-36.929688-4.421875-38.75 13.429687-.367188 7.195313-.367188 14.402344 0 21.597657-.035156 5.648437-1.4375 14.042969 2.164062 18.945312zm11.75-45.191406c2.820313-1.839844 13.589844 0 16.789063 0 4.347656 0 15.484375-2.140625 18.539063 1.679687 2.628906 3.289063 2.753906 39.3125-.644532 39.859376h-17.792968c-5.039063 0-15.746094 2.417968-18.054688-3.164063-1.246094-6.292969-1.421875-12.753906-.523438-19.105469.042969-3.390625-2.121093-16.769531 1.730469-19.269531zm0 0"/><path d="m462.613281 206.515625c-5.785156-2.425781-12.128906-3.1875-18.324219-2.207031-11.960937 0-37.308593-4.355469-39.5 12.824218-.425781 6.894532-.425781 13.808594 0 20.699219-1.0625 6.414063-.421874 12.996094 1.855469 19.085938 4.347657 6.414062 13.554688 5.039062 20.246094 5.039062h22.433594c.914062.128907 1.84375.109375 2.753906-.058593 19.992187-3.222657 15.257813-22.722657 15.257813-38.148438 0-6.078125 1.085937-13.269531-4.722657-17.234375zm-45.226562 44.4375c-1.292969-6.429687-1.429688-13.039063-.410157-19.515625-.859374-5.90625-.835937-11.90625.074219-17.804688 1.132813-2.984374 2.417969-2.019531 6.339844-2.019531h11.371094c5.785156 0 17.71875-2.519531 20.144531 4.65625 1.152344 3.359375 1.921875 37.367188-1.25 38.402344h-16.292969c-5.128906 0-17.113281 2.398437-19.976562-3.71875zm0 0"/><path d="m55.957031 353.167969h23.753907c.910156.027343 1.816406-.039063 2.710937-.203125 7.832031-1.265625 14.746094-4.289063 15.585937-12.941406.707032-7.210938 0-14.847657 0-22.09375 0-6.351563 1.679688-15.039063-4.941406-18.699219-5.9375-1.882813-12.230468-2.382813-18.390625-1.460938-11.238281 0-36.738281-3.953125-39.105469 11.976563-.464843 6.113281-.492187 12.25-.074218 18.367187-.980469 6.527344-.628906 13.1875 1.039062 19.574219 3.457032 7.050781 12.960938 5.480469 19.421875 5.480469zm-3.5-50.363281h12.371094c6.941406 0 18.507813-2.515626 20.808594 6.171874.941406 3.53125 1.730469 36.8125-.761719 39.136719h-15.195312c-6.042969 0-18.832032 2.519531-21.601563-4.84375-1.113281-6.09375-1.257813-12.324219-.429687-18.464843v-12.925782c0-1.980468-.839844-6.949218-.554688-8.023437.09375-.269531.113281-.558594.050781-.839844.40625-.027344.808594-.113281 1.191407-.25 1.378906-.167969 2.773437-.15625 4.148437.039063zm0 0"/><path d="m185.738281 299.238281c-5.816406-2.222656-12.113281-2.890625-18.265625-1.929687-11.75 0-37.5-4.261719-39.648437 12.640625-.394531 6.378906-.394531 12.777343 0 19.152343 0 5.632813-1.722657 15.109376 1.8125 20.046876 4.253906 5.972656 13.695312 4.480468 20.085937 4.480468h22.417969.839844.367187c.109375 0 .253906-.050781.363282-.058594.394531 0 .679687 0 1.15625-.085937 8.066406-1.300781 14.664062-4.691406 15.445312-13.46875.679688-7.554687 0-15.460937 0-23.039063.023438-6.152343 1.410156-13.882812-4.574219-17.738281zm-45.761719 41.390625c-.515624-5.921875-.515624-11.875 0-17.796875 0-3.777343-1.964843-15.265625.183594-18.640625 1.535156-2.402344 13.589844-.921875 17.433594-.921875 7.554688 0 18.710938-2.9375 20.589844 7.039063.636718 3.425781 1.621094 35.707031-1.191406 37.359375h-16.425782c-7.554687 0-18.710937 2.980469-20.589844-7.039063zm0 0"/><path d="m277.730469 299.230469c-5.945313-1.867188-12.234375-2.363281-18.398438-1.441407-11.214843 0-36.738281-3.945312-39.105469 11.957032-.460937 6.109375-.488281 12.246094-.074218 18.359375-.988282 6.527343-.640625 13.191406 1.023437 19.582031 3.464844 7.03125 12.976563 5.464844 19.429688 5.464844h23.769531c.902344.019531 1.804688-.050782 2.695312-.210938 7.824219-1.261718 14.753907-4.265625 15.59375-12.910156.714844-7.210938 0-14.847656 0-22.089844 0-6.371094 1.65625-15.058594-4.933593-18.710937zm-45 44.050781c-1.109375-6.097656-1.253907-12.328125-.425781-18.46875v-12.925781c0-1.15625.074218-2.375 0-3.53125-.074219-1.160157-.621094-4.265625-.554688-4.507813.089844-.269531.105469-.558594.050781-.839844.40625-.027343.800781-.113281 1.183594-.25 1.367187-.183593 2.753906-.183593 4.121094 0h12.371093c6.957032 0 18.515626-2.519531 20.816407 6.191407.933593 3.527343 1.679687 36.765625-.746094 39.164062h-15.210937c-6.058594.019531-18.824219 2.535157-21.605469-4.832031zm0 0"/><path d="m334.445312 353.863281h22.417969c.332031.015625.664063.015625 1 0h.382813c.460937 0 .921875-.03125 1.378906-.089843 8-1.285157 14.871094-4.902344 15.367188-13.734376.429687-7.628906 0-15.402343 0-23.039062 0-6.210938 1.367187-13.917969-4.632813-17.871094-5.804687-2.296875-12.113281-2.996094-18.28125-2.03125-11.925781 0-37.476563-4.277344-39.589844 12.84375-.386719 6.390625-.386719 12.796875 0 19.1875 0 5.699219-1.679687 15.050782 1.820313 20.078125 4.289062 6.101563 13.640625 4.65625 20.136718 4.65625zm-9.585937-49.519531c1.550781-2.335938 13.730469-.839844 17.457031-.839844 7.394532 0 18.644532-2.90625 20.523438 6.804688.671875 3.492187 1.679687 35.683594-1.285156 37.125h-16.402344c-7.394532 0-18.640625 2.90625-20.519532-6.804688-.53125-5.921875-.53125-11.875 0-17.796875 0-3.707031-1.964843-15.191406.226563-18.488281zm0 0"/><path d="m462.367188 299.179688c-5.9375-1.929688-12.238282-2.449219-18.414063-1.527344-11.324219 0-36.703125-4.003906-39.078125 12.046875-.464844 6.125-.488281 12.277343-.070312 18.40625-.976563 6.527343-.628907 13.1875 1.027343 19.582031 3.480469 7.125 12.949219 5.597656 19.460938 5.597656h23.714843c.394532.007813.792969-.003906 1.191407-.042968 1.597656-.050782 3.183593-.308594 4.714843-.773438 6.550782-.710938 11.71875-5.898438 12.40625-12.453125.6875-7.21875 0-14.839844 0-22.09375 0-6.394531 1.636719-15.03125-4.953124-18.742187zm-44.980469 44.101562c-1.117188-6.09375-1.261719-12.328125-.425781-18.46875v-12.925781c0-1.953125-.839844-6.898438-.53125-7.945313.089843-.257812.105468-.535156.050781-.800781.410156-.027344.816406-.113281 1.203125-.25 1.363281-.179687 2.746094-.179687 4.109375 0h12.375c6.871093 0 18.464843-2.519531 20.78125 6.058594.957031 3.578125 1.761719 37.023437-.839844 39.03125h-15.109375c-6 .035156-18.882812 2.492187-21.613281-4.699219zm0 0"/><path d="m93.300781 391.148438c-5.78125-2.441407-12.132812-3.210938-18.332031-2.226563-11.992188 0-37.308594-4.363281-39.5 12.851563-.421875 6.894531-.421875 13.804687 0 20.699218-1.046875 6.425782-.390625 13.015625 1.90625 19.109375 4.339844 6.441407 13.539062 5.089844 20.246094 5.089844h22.410156c.914062.128906 1.84375.113281 2.753906-.050781 19.984375-3.222656 15.25-22.773438 15.25-38.183594 0-6.109375 1.074219-13.304688-4.734375-17.289062zm-45.222656 44.484374c-1.296875-6.429687-1.433594-13.039062-.40625-19.515624-.863281-5.898438-.835937-11.894532.078125-17.785157 1.132812-2.960937 2.441406-2.003906 6.335938-2.003906h11.375c5.75 0 17.707031-2.519531 20.144531 4.605469 1.148437 3.359375 1.910156 37.375-1.269531 38.367187h-16.292969c-5.085938-.015625-17.113281 2.375-19.964844-3.691406zm0 0"/><path d="m185.738281 391.566406c-5.816406-2.222656-12.113281-2.890625-18.265625-1.929687-11.75 0-37.5-4.265625-39.648437 12.640625-.394531 6.378906-.394531 12.773437 0 19.152344 0 5.632812-1.722657 15.109374 1.8125 20.046874 4.253906 5.972657 13.695312 4.480469 20.085937 4.480469h22.417969.839844.367187c.109375 0 .253906-.050781.363282-.058593.394531 0 .679687 0 1.15625-.085938 8.058593-1.300781 14.664062-4.691406 15.445312-13.46875.679688-7.554688 0-15.460938 0-23.042969.023438-6.152343 1.410156-13.882812-4.574219-17.734375zm-45.761719 41.390625c-.515624-5.921875-.515624-11.875 0-17.796875 0-3.777344-1.964843-15.265625.183594-18.640625 1.535156-2.410156 13.589844-.921875 17.433594-.921875 7.554688 0 18.710938-2.9375 20.589844 7.039063.636718 3.425781 1.621094 35.699219-1.191406 37.359375h-16.425782c-7.554687 0-18.710937 2.980468-20.589844-7.039063zm0 0"/><path d="m278.015625 391.390625c-5.796875-2.320313-12.113281-3.03125-18.28125-2.054687-11.886719 0-37.601563-4.308594-39.582031 12.898437-.359375 6.394531-.359375 12.804687 0 19.195313 0 5.71875-1.679688 15.042968 1.828125 20.085937 4.304687 6.179687 13.621093 4.742187 20.144531 4.742187h22.425781c.351563.027344.707031.027344 1.058594 0h.269531c.476563.007813.953125-.019531 1.425782-.082031 8.015624-1.292969 14.875-4.996093 15.351562-13.816406.421875-7.628906 0-15.402344 0-23.039063.007812-6.246093 1.367188-13.949218-4.640625-17.929687zm-45.324219 44.21875c-1.242187-6.082031-1.386718-12.335937-.429687-18.46875-1.019531-6.445313-1.019531-13.007813 0-19.453125 1.175781-2.695312 2.519531-1.824219 6.296875-1.824219h11.371094c6.566406 0 17.753906-2.601562 20.289062 5.414063 1.140625 3.617187 1.785156 37.015625-1.109375 38.382812h-16.300781c-5.554688.035156-17.054688 2.476563-20.078125-4.050781zm0 0"/><path d="m370.167969 390.710938c-5.945313-2.742188-12.570313-3.640626-19.027344-2.578126-12.296875 0-36.933594-4.429687-38.746094 13.488282-.714843 7.042968 0 14.523437 0 21.597656 0 5.691406-1.375 14.085938 2.214844 19.011719 4.878906 6.714843 14.511719 5.230469 21.722656 5.230469h20.984375c.886719.15625 1.796875.15625 2.6875 0 1.007813-.011719 2.007813-.246094 2.917969-.679688 16.375-4.703125 12.164063-23.746094 12.164063-38.117188-.007813-6.402343.957031-13.597656-4.917969-17.953124zm-44.898438 44.710937c-1.246093-6.285156-1.417969-12.734375-.511719-19.078125 0-3.421875-2.171874-16.785156 1.679688-19.238281 2.851562-1.835938 13.554688 0 16.785156 0 4.289063 0 15.480469-2.140625 18.523438 1.679687 2.636718 3.273438 2.730468 39.214844-.679688 39.761719h-17.800781c-4.992187-.050781-15.730469 2.347656-17.996094-3.125zm0 0"/><path d="m462.664062 391.359375c-5.796874-2.34375-12.117187-3.066406-18.289062-2.101563-11.914062 0-37.613281-4.3125-39.570312 12.945313-.351563 6.394531-.351563 12.804687 0 19.203125 0 5.722656-1.675782 15.03125 1.832031 20.09375 4.3125 6.210938 13.613281 4.785156 20.144531 4.785156h22.433594c.367187.023438.734375.023438 1.101562 0h.191406c.488282.003906.976563-.023437 1.460938-.085937 8.050781-1.300781 14.855469-5.035157 15.335938-13.875.417968-7.628907 0-15.398438 0-23.039063.015624-6.226562 1.367187-13.925781-4.640626-17.925781zm-45.277343 44.25c-1.246094-6.082031-1.390625-12.335937-.425781-18.46875-1.015626-6.4375-1-12.996094.042968-19.429687 1.171875-2.660157 2.566406-1.796876 6.300782-1.796876h11.367187c6.527344 0 17.75-2.59375 20.277344 5.363282 1.15625 3.628906 1.796875 37.007812-1.125 38.335937h-16.367188c-5.515625.007813-17.046875 2.464844-20.070312-4.003906zm0 0"/><path d="m89.488281 43.246094h16.789063c3.015625.175781 5.960937-.976563 8.058594-3.152344 1.484374-2.34375-1.277344-3.117188-3.175782-3.117188h-16.785156c-3.023438-.160156-5.96875 1.007813-8.058594 3.199219-1.484375 2.300781 1.277344 3.070313 3.171875 3.070313zm0 0"/><path d="m148.46875 44.09375h201.445312c5.285157 0 12.589844-8.003906 4.429688-8.003906h-201.441406c-5.289063 0-12.625 8.003906-4.433594 8.003906zm0 0"/><path d="m381.765625 42.609375h16.789063c3.03125.097656 6.023437-.703125 8.601562-2.300781 1.679688-1.222656 1.828125-2.71875-.730469-2.71875h-16.785156c-3.03125-.097656-6.027344.703125-8.605469 2.300781-1.710937 1.21875-1.828125 2.71875.730469 2.71875zm0 0"/></g></svg>