<svg id="icons" height="512" viewBox="0 0 60 60" width="512" xmlns="http://www.w3.org/2000/svg"><path d="m43.274 40.471a.5.5 0 0 1 -.3-.9l.043-.032-1.209.7a.5.5 0 0 1 -.554-.83l1.342-1.025-1.245.718a.5.5 0 0 1 -.594-.8l2.265-2.147-.609.351a.5.5 0 0 1 -.676-.7l.911-1.479a.5.5 0 0 1 .12-.77l.658-.379a.492.492 0 0 1 .608.084.5.5 0 0 1 .068.61l-.477.775 2.562-1.478a.5.5 0 0 1 .593.8l-2.263 2.145 4.26-2.459a.5.5 0 0 1 .554.83l-1.342 1.027 1.254-.724a.5.5 0 0 1 .554.83l-.089.068a.5.5 0 0 1 .493.851l-.271.231.1-.059a.5.5 0 0 1 .693.665l-.68 1.3.612-.353a.5.5 0 0 1 .5.866l-2.106 1.213a.5.5 0 0 1 -.693-.665l.68-1.3-3.4 1.962a.5.5 0 0 1 -.574-.813l.275-.234-1.813 1.05a.493.493 0 0 1 -.25.071z" fill="#3aadd9"/><path d="m45.806 34.456a.5.5 0 0 1 -.292-.905l2.762-1.991-4.396 2.54a.5.5 0 0 1 -.527-.849l.725-.483-1.519.877a.5.5 0 0 1 -.536-.844l5.891-4.088-7.049 4.067a.5.5 0 0 1 -.537-.842l8.75-6.14-9.878 5.702a.5.5 0 0 1 -.533-.844l9.594-6.608-10.41 6.011a.5.5 0 0 1 -.526-.851l7.435-4.908-7.833 4.522a.5.5 0 0 1 -.524-.852l6.736-4.392-6.969 4.022a.5.5 0 0 1 -.524-.851l8.022-5.264-8.2 4.737a.5.5 0 0 1 -.524-.851l8.116-5.314-8.2 4.733a.5.5 0 0 1 -.52-.854l5.5-3.536-5.413 3.126a.5.5 0 0 1 -.516-.857l.391-.245-.206.119a.5.5 0 0 1 -.526-.85l8.938-5.9-8.752 5.053a.5.5 0 0 1 -.519-.855l3.114-1.982-2.835 1.637a.5.5 0 0 1 -.521-.854l4.757-3.065-4.352 2.507a.5.5 0 0 1 -.528-.848l8.492-5.7-8.08 4.665a.5.5 0 0 1 -.527-.849l6.817-4.554-6.159 3.556a.5.5 0 0 1 -.537-.842l8.08-5.662-7.169 4.139a.5.5 0 0 1 -.539-.841l5.994-4.252-4.759 2.747a.5.5 0 0 1 -.554-.83l4.642-3.563-2.615 1.51a.5.5 0 0 1 -.56-.826l2.079-1.634a.5.5 0 0 1 .046-.836l3.812-2.2a.5.5 0 0 1 .56.825l-.438.345 3.243-1.874a.5.5 0 0 1 .555.831l-4.643 3.559 7.4-4.27a.5.5 0 0 1 .539.841l-5.997 4.253 7.746-4.475a.5.5 0 0 1 .537.843l-8.074 5.664 9.563-5.522a.5.5 0 0 1 .528.849l-6.822 4.557 7.7-4.444a.5.5 0 0 1 .528.849l-8.491 5.7 9.207-5.316a.5.5 0 0 1 .52.854l-4.758 3.06 5.029-2.9a.5.5 0 0 1 .518.855l-3.116 1.981 3.238-1.869a.5.5 0 0 1 .526.85l-8.939 5.9 9.165-5.291a.5.5 0 0 1 .516.856l-.372.234.251-.145a.5.5 0 0 1 .52.854l-5.509 3.54 5.415-3.127a.5.5 0 0 1 .524.852l-8.117 5.315 7.956-4.594a.5.5 0 0 1 .524.851l-8.02 5.263 7.724-4.46a.5.5 0 0 1 .524.852l-6.738 4.393 6.33-3.653a.5.5 0 0 1 .525.85l-7.44 4.912 6.867-3.962a.5.5 0 0 1 .533.845l-9.588 6.605 8.8-5.08a.5.5 0 0 1 .537.842l-8.753 6.143 7.663-4.424a.5.5 0 0 1 .535.843l-5.891 4.089 4.625-2.67a.5.5 0 0 1 .527.849l-1.1.734a.5.5 0 0 1 .382.9l-2.762 1.99.869-.5a.5.5 0 0 1 .562.823l-2.521 2.021a.492.492 0 0 1 .153.164.5.5 0 0 1 -.183.683l-3.713 2.143a.5.5 0 0 1 -.562-.823l1.076-.862-3.772 2.178a.491.491 0 0 1 -.25.063z" fill="#4fc0e8"/><path d="m10.7 40.472a.5.5 0 0 1 -.338-.868l2.98-2.731-4 2.31a.5.5 0 0 1 -.562-.824l1.241-.99a.5.5 0 0 1 -.644-.7l1.3-2.3a.483.483 0 0 1 -.095-.119.5.5 0 0 1 .183-.683l.658-.379a.5.5 0 0 1 .685.677l-.96 1.7 4.15-2.395a.5.5 0 0 1 .561.823l-1.229.981 2.17-1.25a.5.5 0 0 1 .588.8l-2.981 2.732 3.108-1.794a.5.5 0 0 1 .621.767l-1.553 1.718 1.579-.912a.5.5 0 0 1 .69.672l-.514.942.323-.185a.5.5 0 1 1 .5.865l-1.861 1.071a.5.5 0 0 1 -.69-.672l.513-.941-2.8 1.614a.5.5 0 0 1 -.621-.767l1.554-1.718-4.302 2.484a.49.49 0 0 1 -.254.072z" fill="#89c053"/><path d="m12.344 34.323a.5.5 0 0 1 -.293-.905l5.249-3.8-6.878 3.971a.5.5 0 0 1 -.527-.849l2.65-1.762-3.423 1.973a.5.5 0 0 1 -.539-.841l8.839-6.251-10.054 5.8a.5.5 0 0 1 -.528-.848l7.078-4.732-7.711 4.456a.5.5 0 0 1 -.522-.852l5.02-3.262-5.29 3.055a.5.5 0 0 1 -.529-.849l9.594-6.454-10.1 5.833a.5.5 0 0 1 -.517-.856l.286-.18-.231.134a.5.5 0 0 1 -.53-.847l11.208-7.6-11.553 6.673a.5.5 0 0 1 -.53-.848l11.463-7.768-11.59 6.692a.5.5 0 0 1 -.526-.85l9.192-6.076-9.116 5.263a.5.5 0 0 1 -.519-.855l3.118-1.982-2.835 1.638a.5.5 0 0 1 -.527-.849l9.219-6.148-8.957 5.169a.5.5 0 0 1 -.524-.852l5.818-3.79-5.4 3.116a.5.5 0 0 1 -.529-.849l7.3-4.865-6.746 3.894a.5.5 0 0 1 -.528-.848l6.355-4.262-5.7 3.289a.5.5 0 0 1 -.541-.84l7.967-5.709-6.852 3.952a.5.5 0 0 1 -.553-.831l6.144-4.667-4.361 2.518a.5.5 0 0 1 -.578-.811l3.012-2.617a.5.5 0 0 1 -.2-.93l3.812-2.2a.5.5 0 0 1 .578.81l-2.623 2.283 6.725-3.883a.5.5 0 0 1 .552.831l-6.145 4.668 8.756-5.055a.5.5 0 0 1 .541.839l-7.964 5.714 9.808-5.663a.5.5 0 0 1 .528.848l-6.359 4.266 7.29-4.209a.5.5 0 0 1 .527.849l-7.29 4.862 8.024-4.634a.5.5 0 0 1 .524.852l-5.819 3.792 6.309-3.643a.5.5 0 0 1 .527.85l-9.22 6.147 9.645-5.569a.5.5 0 0 1 .519.855l-3.129 1.992 3.224-1.862a.5.5 0 0 1 .526.85l-9.185 6.071 9.306-5.375a.5.5 0 0 1 .53.847l-11.463 7.771 11.538-6.662a.5.5 0 0 1 .531.847l-11.209 7.597 11.093-6.4a.5.5 0 0 1 .517.856l-.377.237a.5.5 0 0 1 .471.877l-9.6 6.456 9.152-5.284a.5.5 0 0 1 .523.853l-5.012 3.25 4.4-2.536a.5.5 0 0 1 .528.849l-7.08 4.733 6.285-3.629a.5.5 0 0 1 .539.841l-8.842 6.254 7.686-4.437a.5.5 0 0 1 .527.849l-2.643 1.754 1.58-.913a.5.5 0 0 1 .543.838l-5.252 3.8 3.506-2.024a.5.5 0 0 1 .563.823l-3.45 2.779.493-.285a.5.5 0 0 1 .5.867l-6.127 3.537a.5.5 0 0 1 -.563-.822l3.455-2.777-6.254 3.61a.491.491 0 0 1 -.25.067z" fill="#9ed26a"/><path d="m29.228 40.471a.5.5 0 0 1 -.369-.839l2.081-2.261-5.025 2.9a.5.5 0 0 1 -.563-.822l2.267-1.826-2.185 1.262a.5.5 0 0 1 -.612-.779l2.213-2.315-.431.249a.5.5 0 0 1 -.667-.709l.681-1.027a.535.535 0 0 1 -.036-.056.5.5 0 0 1 .183-.683l.658-.379a.494.494 0 0 1 .614.089.5.5 0 0 1 .053.62l-.144.215 1.615-.931a.5.5 0 0 1 .611.778l-2.213 2.315 4.76-2.748a.5.5 0 0 1 .563.823l-2.269 1.828 2.259-1.3a.5.5 0 0 1 .619.772l-2.081 2.253 2.19-1.261a.5.5 0 0 1 .694.661l-.713 1.388.673-.388a.5.5 0 1 1 .5.865l-2.143 1.235a.5.5 0 0 1 -.7-.661l.713-1.387-3.546 2.048a.5.5 0 0 1 -.25.071z" fill="#cc485b"/><path d="m29.866 34.46a.5.5 0 0 1 -.3-.9l3.379-2.475-5.182 2.991a.5.5 0 0 1 -.541-.84l5.756-4.112-7.242 4.176a.5.5 0 0 1 -.531-.846l5.573-3.791-6.478 3.743a.5.5 0 0 1 -.527-.849l5.072-3.36-5.677 3.277a.5.5 0 0 1 -.523-.852l4.2-2.732-4.62 2.668a.5.5 0 0 1 -.525-.851l6.636-4.366-6.992 4.037a.5.5 0 0 1 -.524-.851l6.509-4.25-6.839 3.948a.5.5 0 0 1 -.521-.852l6.115-3.962-6.22 3.589a.5.5 0 0 1 -.518-.855l2.979-1.893-2.985 1.727a.5.5 0 0 1 -.525-.852l8.261-5.413-8.312 4.8a.5.5 0 0 1 -.52-.855l4.548-2.907-4.438 2.562a.5.5 0 0 1 -.527-.849l9.777-6.5-9.7 5.6a.5.5 0 0 1 -.525-.85l8.334-5.49-8.138 4.7a.5.5 0 0 1 -.525-.85l7.933-5.236-7.583 4.374a.5.5 0 0 1 -.523-.852l5.577-3.635-5.154 2.974a.5.5 0 0 1 -.519-.855l.733-.466-.159.092a.5.5 0 0 1 -.522-.853l2.105-1.357-1.481.855a.5.5 0 0 1 -.529-.848l5.443-3.666-4.6 2.658a.5.5 0 0 1 -.532-.846l4.273-2.914-3.3 1.907a.5.5 0 0 1 -.546-.836l4.843-3.558-3.178 1.837a.5.5 0 0 1 -.575-.813l2.892-2.477a.5.5 0 0 1 -.161-.925l3.848-2.221a.5.5 0 0 1 .575.813l-2.4 2.055 6.359-3.672a.5.5 0 0 1 .546.836l-4.847 3.561 7.092-4.094a.5.5 0 0 1 .531.846l-4.272 2.91 5.489-3.169a.5.5 0 0 1 .529.847l-5.445 3.667 6.533-3.772a.5.5 0 0 1 .522.854l-2.1 1.356 2.634-1.521a.5.5 0 0 1 .519.855l-.736.468 1.118-.645a.5.5 0 0 1 .523.852l-5.58 3.639 6.044-3.49a.5.5 0 0 1 .525.851l-7.932 5.235 8.345-4.818a.5.5 0 0 1 .526.85l-8.333 5.485 8.678-5.013a.5.5 0 0 1 .528.849l-9.78 6.5 9.941-5.739a.5.5 0 0 1 .519.854l-4.546 2.912 4.465-2.576a.5.5 0 0 1 .525.851l-8.259 5.412 8.106-4.68a.5.5 0 0 1 .519.855l-2.983 1.892 2.7-1.559a.5.5 0 0 1 .521.853l-6.113 3.959 5.7-3.293a.5.5 0 0 1 .523.852l-6.509 4.25 6.065-3.492a.5.5 0 0 1 .525.851l-6.64 4.368 5.991-3.459a.5.5 0 0 1 .523.852l-4.2 2.731 3.5-2.021a.5.5 0 0 1 .527.85l-5.072 3.361 4.169-2.407a.5.5 0 0 1 .532.846l-5.575 3.791 4.44-2.563a.5.5 0 0 1 .541.84l-5.755 4.111 4.2-2.426a.5.5 0 0 1 .546.837l-3.382 2.477 1.419-.819a.5.5 0 0 1 .561.825l-2.44 1.928a.49.49 0 0 1 .149.161.5.5 0 0 1 -.183.683l-3.844 2.219a.5.5 0 0 1 -.56-.825l.9-.715-3.458 2a.5.5 0 0 1 -.248.064z" fill="#eb5463"/><g fill="#262626"><path d="m7.746 32.576a11.045 11.045 0 0 0 2.574 1.244l-1.127 2.743c-.294.714-1.031 1.86-.914 2.694.243 1.742 3.381 1.434 5.035 1.325.249 3.164 1.915 5.85 1.914 9.056 0 3.338-1.823 6.105-1.955 9.444-.025.635 1.433.358 1.454-.164.132-3.369 2.007-6.177 2-9.556-.009-3.111-1.569-5.741-1.923-8.768 1.713.112 4.482.319 4.884-1.364.207-.865-.54-2.008-.851-2.766q-.6-1.446-1.19-2.893a14.168 14.168 0 0 0 4.215-2.582 11.43 11.43 0 0 0 4.465 2.87l-1.127 2.741c-.285.693-1.035 1.857-.92 2.67.229 1.623 3.228 1.4 4.96 1.277-.242 3.2-1.97 5.91-1.965 9.152 0 3.357 1.868 6.147 2 9.5.013.333 1.467.08 1.448-.388-.131-3.348-2-6.148-2-9.5 0-3.1 1.594-5.755 1.93-8.794 1.61.089 4.593.4 5.025-1.314.212-.846-.537-1.989-.843-2.734q-.578-1.4-1.154-2.806a11.976 11.976 0 0 0 4.211-2.627 13.65 13.65 0 0 0 4.446 2.823l-1.134 2.757c-.287.7-1.025 1.843-.923 2.658.2 1.61 3.325 1.364 5.032 1.241.267 3.153 1.945 5.864 1.955 9.057.011 3.34-1.868 6.151-2 9.5-.028.7 1.438.464 1.462-.134.131-3.344 1.99-6.141 2-9.5.009-3.174-1.644-5.835-1.944-8.94 1.632.1 4.478.341 4.887-1.31.21-.844-.532-1.973-.838-2.719l-1.188-2.888c5.66-2.515 9.854-10.02 10.061-16.957.357-11.944-11.18-20.824-21.732-13.449a12.657 12.657 0 0 0 -9.258-2.475 12.9 12.9 0 0 0 -6.5 2.474c-10.23-7.119-21.894 1.292-21.942 12.919-.025 5.958 2.256 13.07 7.47 16.483zm10.3 5.888c.162.839-.034.859-.785.983a19.4 19.4 0 0 1 -3.011 0h-3.016c-.848 0-1.416.113-1.353-.982a10.32 10.32 0 0 1 1.073-2.61l.69-1.679a10.592 10.592 0 0 0 4.584-.156 23.663 23.663 0 0 1 1.821 4.444zm16 0c.233.858.2.893-.584 1.043a17.1 17.1 0 0 1 -3.01 0c-1.209 0-4.621.677-4.582-1.074a9.731 9.731 0 0 1 1.072-2.609l.669-1.628a10.972 10.972 0 0 0 3.742.072c.31-.045.6-.125.9-.192a34.924 34.924 0 0 1 1.796 4.388zm16 0c.239.867.214.915-.577 1.07a16.811 16.811 0 0 1 -3.01 0h-.1a1.115 1.115 0 0 0 -.621.036c-1.5.116-3.9.369-3.87-1.156a9.683 9.683 0 0 1 1.073-2.609l.654-1.59a9.327 9.327 0 0 0 4.663-.131 35.824 35.824 0 0 1 1.791 4.38zm8.137-23.68c.449 6.716-3.461 16.216-9.466 18.383a1.4 1.4 0 0 0 -.231.083 7.507 7.507 0 0 1 -4.774-.028.564.564 0 0 0 -.17-.067 13.191 13.191 0 0 1 -4.722-3.109c3.249-3.772 4.754-9.353 4.9-14.145 0-.017-.012-.026-.014-.042s.017-.034.016-.053c-.152-4.77-1.875-9.147-4.945-11.965 9.35-6.636 18.764 1.222 19.409 10.943zm-23.248-12.257c5.256 2.5 7.161 8.2 7.339 13.643-.148 4.451-1.338 10.018-4.453 13.66-.368.115-.657.357-.536.6a10.637 10.637 0 0 1 -2.575 1.967 13.152 13.152 0 0 1 -1.595.721 1.142 1.142 0 0 0 -.909.3 8.394 8.394 0 0 1 -4.352.13c.078-.449-.589-.531-1.041-.331a10.518 10.518 0 0 1 -4.1-3.112c.012-.094-.047-.161-.161-.2a24.37 24.37 0 0 1 -4.776-14.035c.013-8.861 7.307-18.026 17.159-13.343zm-13.706 1.457a16.376 16.376 0 0 0 -4.952 12.162c0 4.7 1.673 10.378 4.934 14.143a14.014 14.014 0 0 1 -3.995 2.8.954.954 0 0 0 -1.086.4 7.406 7.406 0 0 1 -4.259.042c.054-.457-.59-.582-1.044-.385-5.265-2.366-8.734-10.387-9.06-15.968-.614-10.512 8.817-21.013 19.462-13.194z"/><path d="m28.926 5.539c.333-.029.665-.044 1-.046.3 0 .765-.228.805-.559.045-.368-.4-.429-.657-.427-.334 0-.666.018-1 .047-.3.027-.763.212-.805.559s.394.45.657.426z"/><path d="m20.388 18.194c.04.434 1.5.132 1.449-.388-.376-4.066.366-8.524 3.739-11.2.631-.5-.809-.471-1.152-.2-3.57 2.834-4.437 7.453-4.036 11.788z"/><path d="m12.915 5.5c.272-.024.543-.041.816-.043a1.073 1.073 0 0 0 .951-.415c.151-.293-.13-.5-.413-.5-.4 0-.79.016-1.184.051-.281.025-.766.2-.813.529s.408.399.643.378z"/><path d="m9.483 6.848c.769-.61-.389-1.14-.966-.683-3.656 2.9-4.539 7.59-4.129 12.029.063.676 1.515.324 1.449-.388-.366-3.96.363-8.35 3.646-10.958z"/><path d="m54.163 18.194c-.015.159 1.41.027 1.449-.388.391-4.23-.441-8.775-3.928-11.541-.3-.236-1.552.338-1.368.483 3.456 2.742 4.233 7.275 3.847 11.446z"/></g></svg>