<svg id="Icons" height="512" viewBox="0 0 60 60" width="512" xmlns="http://www.w3.org/2000/svg"><path d="m8.838 27.471a.5.5 0 0 1 -.289-.908l1.245-.88-2.982 1.717a.5.5 0 0 1 -.553-.83l5.771-4.4-8.971 5.18a.5.5 0 0 1 -.541-.839l5.476-3.918-6.471 3.736a.5.5 0 0 1 -.55-.832l5.232-3.941-4.925 2.844a.5.5 0 0 1 -.574-.813l3.973-3.387-3.4 1.962a.5.5 0 0 1 -.571-.816l1.2-1-.625.36a.5.5 0 0 1 -.683-.688l.942-1.585a.5.5 0 0 1 -.469-.882l1.627-.94a.5.5 0 0 1 .606.081.5.5 0 0 1 .074.608l-.942 1.583 3.962-2.283a.5.5 0 0 1 .572.816l-1.2 1 3.148-1.816a.5.5 0 0 1 .574.813l-3.973 3.387 7.279-4.2a.5.5 0 0 1 .551.832l-5.238 3.938 8.269-4.77a.5.5 0 0 1 .541.839l-5.478 3.918 6.841-3.949a.5.5 0 0 1 .554.83l-5.772 4.4 5.652-3.263a.5.5 0 0 1 .539.841l-1.248.882.71-.41a.5.5 0 0 1 .556.828l-1.767 1.374 1.211-.7a.5.5 0 0 1 .59.8l-1.432 1.33.842-.486a.5.5 0 0 1 .657.723l-.689.966a.5.5 0 0 1 .233.933l-1.614.932a.5.5 0 0 1 -.658-.723l.581-.816-2.694 1.551a.5.5 0 0 1 -.59-.8l1.434-1.332-3.691 2.132a.5.5 0 0 1 -.556-.827l1.766-1.373-3.812 2.2a.5.5 0 0 1 -.25.071z" fill="#f84861"/><path d="m28.039 24.471a.5.5 0 0 1 -.352-.856l.579-.572-2.247 1.3a.5.5 0 0 1 -.623-.766l1.386-1.551-2.26 1.3a.5.5 0 0 1 -.68-.686l.717-1.218a.5.5 0 0 1 -.486-.875l1.627-.938a.5.5 0 0 1 .606.081.5.5 0 0 1 .075.606l-.715 1.216 3.32-1.917a.5.5 0 0 1 .623.765l-1.386 1.551 2.9-1.673a.5.5 0 0 1 .6.788l-.579.574.509-.294a.5.5 0 1 1 .5.865l-3.864 2.229a.49.49 0 0 1 -.25.071z" fill="#8991a0"/><path d="m50.705 24.471a.5.5 0 0 1 -.32-.884l.247-.206-1.772 1.019a.5.5 0 0 1 -.655-.724l1.478-2.052-4.809 2.776a.5.5 0 0 1 -.613-.775l1.376-1.459-3.871 2.234a.5.5 0 0 1 -.6-.788l1.223-1.208-3.458 2a.5.5 0 0 1 -.579-.809l.638-.556-1.79 1.033a.5.5 0 0 1 -.607-.782l.987-1.01-1.157.667a.5.5 0 0 1 -.655-.725l.533-.74a.5.5 0 0 1 -.223-.931l1.627-.94a.5.5 0 0 1 .655.726l-.418.579 2.28-1.316a.5.5 0 0 1 .607.782l-.986 1.01 3.1-1.793a.5.5 0 0 1 .579.809l-.639.557 2.373-1.365a.5.5 0 0 1 .6.788l-1.222 1.208 3.458-2a.5.5 0 0 1 .613.775l-1.374 1.459 3.869-2.23a.5.5 0 0 1 .655.724l-1.477 2.052 4.809-2.776a.5.5 0 0 1 .57.816l-.246.2 1.6-.924a.5.5 0 0 1 .62.769l-1.341 1.483 2.1-1.214a.5.5 0 0 1 .678.692l-.687 1.137a.5.5 0 0 1 .438.9l-1.614.932a.5.5 0 0 1 -.678-.692l.682-1.129-3.179 1.83a.5.5 0 0 1 -.62-.768l1.34-1.479-3.9 2.248a.493.493 0 0 1 -.245.07z" fill="#8991a0"/><path d="m4.811 43.471a.5.5 0 0 1 -.3-.9l6.354-4.777-8.844 5.106a.5.5 0 0 1 -.533-.844l3.134-2.15-3.248 1.874a.5.5 0 0 1 -.529-.847l.437-.3a.5.5 0 0 1 -.555-.829l3.369-2.6-2.817 1.634a.5.5 0 0 1 -.589-.8l2.525-2.331-1.936 1.117a.5.5 0 0 1 -.679-.681l1-1.738-.02.011a.5.5 0 0 1 -.5-.865l1.627-.94a.5.5 0 0 1 .684.682l-1 1.737 4.209-2.43a.5.5 0 0 1 .588.8l-2.523 2.329 5.426-3.129a.5.5 0 0 1 .665.154.5.5 0 0 1 -.11.675l-3.368 2.592 5.932-3.421a.5.5 0 0 1 .529.847l-.444.3 1.987-1.147a.5.5 0 0 1 .533.844l-3.132 2.146 4.83-2.788a.5.5 0 0 1 .55.832l-6.356 4.778 6.965-4.02a.5.5 0 0 1 .554.83l-4.506 3.443 4-2.31a.5.5 0 0 1 .541.839l-.448.322a.493.493 0 0 1 .553.17.5.5 0 0 1 -.042.657l-2.3 2.312 1.7-.979a.5.5 0 0 1 .665.712l-.765 1.137a.5.5 0 0 1 .3.93l-1.614.932a.5.5 0 0 1 -.665-.712l.709-1.054-3.089 1.779a.5.5 0 0 1 -.605-.785l2.3-2.313-5.36 3.098a.5.5 0 0 1 -.541-.839l.36-.258-1.9 1.1a.5.5 0 0 1 -.554-.83l4.509-3.446-7.413 4.273a.5.5 0 0 1 -.25.071z" fill="#38d6d2"/><path d="m28.977 40.471a.5.5 0 0 1 -.407-.792l1.023-1.42-3.593 2.075a.5.5 0 0 1 -.633-.754l1.426-1.7-2.3 1.327a.5.5 0 0 1 -.674-.7l.66-1.055a.508.508 0 0 1 -.586-.227.5.5 0 0 1 .183-.683l1.627-.938a.5.5 0 0 1 .674.7l-.645 1.033 3.02-1.737a.5.5 0 0 1 .633.754l-1.426 1.7 3.149-1.818a.5.5 0 0 1 .657.725l-1.022 1.419.9-.519a.5.5 0 0 1 .5.865l-2.916 1.674a.5.5 0 0 1 -.25.071z" fill="#8991a0"/><path d="m43.032 40.471a.5.5 0 0 1 -.341-.866l1.019-.95-3.029 1.745a.5.5 0 0 1 -.6-.791l1.175-1.142-3.239 1.87a.5.5 0 0 1 -.657-.725l1.431-1.991-2.361 1.366a.5.5 0 0 1 -.659-.72l.553-.785a.5.5 0 0 1 -.25-.933l1.627-.938a.5.5 0 0 1 .658.721l-.46.653 2.401-1.385a.5.5 0 0 1 .656.724l-1.431 1.991 4.7-2.716a.5.5 0 0 1 .6.791l-1.177 1.144 3.36-1.934a.5.5 0 0 1 .591.8l-1.019.95 3.029-1.75a.5.5 0 0 1 .623.765l-1.446 1.621 4.136-2.386a.5.5 0 0 1 .606.783l-1.3 1.32 3.645-2.1a.5.5 0 0 1 .624.763l-1.45 1.634 3.065-1.77a.5.5 0 0 1 .674.7l-1 1.6.8-.461a.5.5 0 1 1 .5.865l-2.537 1.466a.5.5 0 0 1 -.674-.7l1-1.6-3.99 2.3a.5.5 0 0 1 -.624-.763l1.454-1.637-4.167 2.4a.5.5 0 0 1 -.607-.783l1.3-1.32-3.641 2.103a.5.5 0 0 1 -.623-.765l1.446-1.621-4.141 2.386a.49.49 0 0 1 -.25.071z" fill="#8991a0"/><path d="m4.58 59.471a.5.5 0 0 1 -.28-.914l2.207-1.494-3.8 2.194a.5.5 0 0 1 -.548-.834l6.241-4.644-7.015 4.05a.5.5 0 0 1 -.531-.847l.889-.6-.466.268a.5.5 0 0 1 -.57-.816l4.142-3.449-3.57 2.06a.5.5 0 0 1 -.6-.788l2.278-2.251-1.677.968a.5.5 0 0 1 -.667-.709l.787-1.187a.5.5 0 0 1 -.326-.927l1.627-.94a.5.5 0 0 1 .667.709l-.746 1.125 3.2-1.848a.5.5 0 0 1 .6.788l-2.276 2.251 5.265-3.036a.5.5 0 0 1 .57.816l-4.141 3.445 7.388-4.261a.5.5 0 0 1 .53.846l-.893.606 2.516-1.452a.5.5 0 0 1 .548.834l-6.244 4.638 8.415-4.855a.5.5 0 0 1 .53.846l-2.214 1.5 2.229-1.287a.5.5 0 0 1 .548.834l-4.218 3.141 3.75-2.164a.5.5 0 0 1 .544.837l-1.137.825.593-.342a.5.5 0 0 1 .567.82l-1.539 1.262.972-.56a.5.5 0 0 1 .615.774l-1.079 1.154.455-.262a.5.5 0 1 1 .5.865l-3.369 1.94a.5.5 0 0 1 -.616-.774l1.079-1.152-3.34 1.926a.5.5 0 0 1 -.568-.819l1.541-1.265-3.61 2.084a.5.5 0 0 1 -.544-.837l1.134-.823-2.876 1.66a.5.5 0 0 1 -.549-.834l4.22-3.141-6.888 3.975a.5.5 0 0 1 -.25.071z" fill="#fcb544"/><path d="m27.735 56.471a.5.5 0 0 1 -.388-.815l1.328-1.641-3.511 2.027a.5.5 0 0 1 -.606-.783l.936-.95-1.08.623a.5.5 0 0 1 -.654-.727l.526-.724a.5.5 0 0 1 -.213-.932l1.627-.938a.5.5 0 0 1 .654.727l-.4.55 2.237-1.288a.5.5 0 0 1 .607.783l-.936.95 2.649-1.533a.5.5 0 0 1 .638.747l-1.328 1.641 1.789-1.033a.5.5 0 0 1 .648.736l-.487.64a.5.5 0 0 1 .151.923l-1.614.932a.5.5 0 0 1 -.648-.736l.291-.382-1.966 1.132a.49.49 0 0 1 -.25.071z" fill="#8991a0"/><path d="m41.793 56.471a.5.5 0 0 1 -.318-.886l.13-.107-1.605.922a.5.5 0 0 1 -.59-.8l.985-.912-2.7 1.561a.5.5 0 0 1 -.652-.73l1.374-1.864-2.028 1.17a.5.5 0 0 1 -.626-.1.5.5 0 0 1 -.02-.635l.478-.619a.508.508 0 0 1 -.328-.24.5.5 0 0 1 .183-.683l1.627-.938a.5.5 0 0 1 .646.739l-.27.349 1.909-1.1a.5.5 0 0 1 .653.729l-1.374 1.864 4.492-2.591a.5.5 0 0 1 .59.8l-.985.912 2.964-1.712a.5.5 0 0 1 .568.818l-.13.107 1.6-.925a.5.5 0 0 1 .588.8l-.944.868 2.89-1.668a.5.5 0 0 1 .612.778l-1.351 1.411 3.795-2.189a.5.5 0 0 1 .567.818l-.114.095 1.582-.913a.5.5 0 0 1 .644.741l-1.495 1.908 3.16-1.827a.5.5 0 0 1 .613.776l-.588.621.381-.219a.5.5 0 1 1 .5.865l-3.352 1.935a.5.5 0 0 1 -.613-.776l.588-.621-2.422 1.4a.5.5 0 0 1 -.643-.741l1.5-1.911-4.6 2.652a.5.5 0 0 1 -.567-.818l.114-.095-1.582.913a.5.5 0 0 1 -.611-.778l1.35-1.411-3.792 2.186a.5.5 0 0 1 -.588-.8l.945-.868-2.89 1.668a.493.493 0 0 1 -.25.071z" fill="#8991a0"/><path d="m4.521 11.471a.5.5 0 0 1 -.279-.914l1.958-1.322-3.5 2.02a.5.5 0 0 1 -.53-.847l2.86-1.934-3.448 1.99a.5.5 0 0 1 -.535-.844l3.119-2.166-2.886 1.666a.5.5 0 0 1 -.543-.838l2.7-1.951-2.158 1.244a.5.5 0 0 1 -.552-.831l1.734-1.316-1.182.681a.5.5 0 0 1 -.593-.8l1.814-1.709-1.221.7a.5.5 0 0 1 -.663-.714l.752-1.108a.517.517 0 0 1 -.477-.248.5.5 0 0 1 .182-.682l1.627-.937a.5.5 0 0 1 .663.714l-.693 1.021 3.03-1.746a.5.5 0 0 1 .594.8l-1.82 1.71 4.355-2.51a.5.5 0 0 1 .553.831l-1.735 1.313 3.721-2.144a.5.5 0 0 1 .543.838l-2.695 1.946 4.828-2.784a.5.5 0 0 1 .535.843l-3.125 2.167 5.221-3.01a.5.5 0 0 1 .53.846l-2.861 1.933 3.75-2.164a.5.5 0 0 1 .529.847l-1.956 1.32 1.966-1.135a.5.5 0 0 1 .538.842l-2.65 1.864 2.2-1.269a.5.5 0 0 1 .547.835l-2.068 1.523 1.524-.879a.5.5 0 0 1 .571.816l-2.027 1.7 1.456-.841a.5.5 0 0 1 .647.735l-1.31 1.727.548-.316a.5.5 0 1 1 .5.865l-2.7 1.558a.5.5 0 0 1 -.647-.735l1.306-1.718-4.253 2.446a.5.5 0 0 1 -.571-.815l2.029-1.7-4.363 2.515a.5.5 0 0 1 -.547-.835l2.065-1.519-4.079 2.354a.5.5 0 0 1 -.538-.841l2.657-1.87-4.697 2.711a.5.5 0 0 1 -.25.071z" fill="#186fee"/><path d="m28.1 8.471a.5.5 0 0 1 -.376-.83l1.071-1.22-3.155 1.818a.5.5 0 0 1 -.594-.8l.9-.854-1.403.815a.5.5 0 0 1 -.685-.678l.751-1.322-.036.02a.5.5 0 0 1 -.5-.865l1.627-.94a.5.5 0 0 1 .685.679l-.751 1.326 3.5-2.019a.5.5 0 0 1 .594.8l-.905.855 2.1-1.209a.5.5 0 0 1 .626.763l-1.07 1.219 1.186-.685a.5.5 0 1 1 .5.865l-3.819 2.191a.49.49 0 0 1 -.246.071z" fill="#8991a0"/><path d="m52.9 8.471a.5.5 0 0 1 -.329-.877l.553-.483-2.237 1.289a.5.5 0 0 1 -.6-.792l1.163-1.127-3.322 1.919a.5.5 0 0 1 -.591-.8l1.012-.941-3.016 1.741a.5.5 0 0 1 -.583-.8l.789-.7-2.615 1.5a.5.5 0 0 1 -.608-.781l1.315-1.349-3.69 2.13a.5.5 0 0 1 -.6-.785l1.259-1.268-3.24 1.871a.5.5 0 0 1 -.633-.754l1.327-1.579-1.838 1.06a.5.5 0 0 1 -.655-.725l.532-.738a.5.5 0 0 1 -.222-.931l1.627-.94a.5.5 0 0 1 .655.726l-.415.575 2.28-1.312a.5.5 0 0 1 .633.754l-1.328 1.577 4.043-2.331a.5.5 0 0 1 .6.785l-1.266 1.268 3.568-2.053a.5.5 0 0 1 .608.781l-1.315 1.346 3.69-2.13a.5.5 0 0 1 .583.805l-.789.7 2.615-1.502a.5.5 0 0 1 .591.8l-1.012.941 3.016-1.741a.5.5 0 0 1 .649.132.5.5 0 0 1 -.051.66l-1.162 1.123 3.173-1.832a.5.5 0 0 1 .58.809l-.552.482 1.117-.645a.5.5 0 0 1 .658.722l-.952 1.349.685-.4a.5.5 0 0 1 .5.865l-2.66 1.535a.5.5 0 0 1 -.658-.721l.952-1.346-3.583 2.067a.49.49 0 0 1 -.251.071z" fill="#8991a0"/><g fill="#262626"><path d="m2.353 27.424c2.1.524 4.742.079 6.876.079h7.7a.846.846 0 0 0 .331-.07c2.929-.677 2.473-3.351 2.473-5.841 0-2.291.322-4.6-2.475-5.094-2.246-.4-4.912 0-7.185 0s-4.868-.371-7.1.017c-2.907.507-2.7 2.782-2.7 5.2-.005 2.177-.608 5.035 2.08 5.709zm0-9.2c1.132-1.231 3.2-.717 4.842-.717h6.994c2.106 0 3.648-.387 4.079 2.371.213 1.362.656 6.066-1.3 6.623h-10.868c-2.174 0-3.919.471-4.364-2.371-.252-1.589-.493-4.703.617-5.91z"/><path d="m31.334 19.727a5.616 5.616 0 0 0 -2.5-.28c-.915 0-1.86-.072-2.772 0-2.482.2-4.071 3.51-1.392 4.826 1.446.709 3.721.28 5.276.28a.863.863 0 0 0 .3-.053c2.268-.467 3.69-3.495 1.088-4.773zm-1.276 3.72h-2.771a7.841 7.841 0 0 1 -1.2 0 1.464 1.464 0 0 1 -.148-2.894 13.8 13.8 0 0 1 2.771 0 7.5 7.5 0 0 1 1.151 0c1.356.219 2.285 2.684.197 2.894z"/><path d="m59.041 20.347c-1.092-1.122-3.151-.761-4.566-.761h-10.715c-1.759 0-3.924-.348-5.662.009-1.623.333-3.668 1.633-2.549 3.609.815 1.44 2.639 1.21 4.03 1.21h17.14c.013 0 .029-.006.043-.007a1.124 1.124 0 0 0 .336-.041c1.788-.483 3.74-2.166 1.943-4.019zm-1.994 3.239h-9.726c-1.2 0-12.463.766-10.07-2.424 1.445-1.926 8.13-.748 10.428-.748h6.571a8.375 8.375 0 0 1 1.97 0c1.243.35 3.591 2.33.827 3.172z"/><path d="m17.471 32.71c-2.421-.4-5.249 0-7.7 0a55.857 55.857 0 0 0 -6.457.006c-2.083.247-2.929 1.261-3.04 3.289-.128 2.374-.91 6.675 2.126 7.271 2 .392 4.406.013 6.426.013h7.639a1.134 1.134 0 0 0 .394-.03c2.614-.527 2.861-1.995 2.861-4.433.004-2.348.786-5.611-2.249-6.116zm-.26 10h-11.284c-2.007 0-3.743.2-4.2-2.286-.247-1.338-.535-5.753.5-6.733.962-.913 3.619-.4 4.9-.4h7.209c2.111 0 3.435.057 3.941 2.5.256 1.246.561 6.427-1.066 6.919z"/><path d="m24.306 40.013c1.373.9 3.866.4 5.414.4.02 0 .043-.008.064-.01a1.162 1.162 0 0 0 .119 0 3.032 3.032 0 0 0 2.665-1.718 2.27 2.27 0 0 0 -1.214-2.885 6.172 6.172 0 0 0 -2.453-.22c-.9 0-1.816-.055-2.712 0-2.157.149-4.301 2.855-1.883 4.433zm1.079-3.354c.859-.547 2.384-.242 3.39-.242a6.084 6.084 0 0 1 .945 0c1.425.238 2.48 2.912.425 3.166h-2.92a6.084 6.084 0 0 1 -.945 0c-1.361-.229-2.244-2.066-.895-2.924z"/><path d="m39.569 40.377h17.14a.471.471 0 0 0 .05-.008 1.286 1.286 0 0 0 .328-.046c1.752-.474 3.761-2.134 1.957-3.964-1.081-1.1-3.171-.736-4.559-.736-5.19 0-11.263-.909-16.376.014-1.645.3-3.641 1.6-2.56 3.567.787 1.43 2.667 1.173 4.02 1.173zm-2.323-3.286c1.5-1.886 8.113-.714 10.423-.714h6.571a8.217 8.217 0 0 1 1.97 0c1.283.371 3.514 2.42.864 3.246h-16.314c-1.27 0-5.549.03-3.514-2.532z"/><path d="m2.354 59.427c2.094.525 4.742.08 6.876.08h7.7a.854.854 0 0 0 .329-.069c2.931-.677 2.474-3.356 2.474-5.845 0-2.291.322-4.6-2.476-5.1-2.246-.4-4.912 0-7.185 0s-4.868-.371-7.1.017c-2.907.507-2.7 2.785-2.7 5.206-.004 2.176-.607 5.036 2.082 5.711zm0-9.2c1.132-1.23 3.2-.716 4.842-.716h6.994c2.1 0 3.646-.388 4.078 2.366.214 1.364.656 6.064-1.3 6.62h-10.868c-2.172 0-3.918.471-4.363-2.366-.253-1.588-.493-4.703.617-5.908z"/><path d="m24.662 56.256c1.445.7 3.722.265 5.271.265a.878.878 0 0 0 .3-.053c2.249-.464 3.727-3.463 1.107-4.724a5.74 5.74 0 0 0 -2.5-.265c-.914 0-1.86-.073-2.771 0-2.451.195-4.108 3.478-1.407 4.777zm1.271-3.735a13.649 13.649 0 0 1 2.771 0 7.134 7.134 0 0 1 1.151 0c1.343.23 2.314 2.746.212 2.958h-2.767a7.593 7.593 0 0 1 -1.2 0 1.5 1.5 0 0 1 -.167-2.958z"/><path d="m35.549 55.2c.816 1.477 2.626 1.266 4.045 1.266h17.14c.011 0 .024-.006.035-.006a1.013 1.013 0 0 0 .346-.034c1.832-.495 3.7-2.239 1.921-4.1-1.105-1.158-3.131-.8-4.576-.8h-10.715c-1.753 0-3.931-.353-5.664 0-1.66.349-3.631 1.69-2.532 3.674zm1.712-2c1.439-1.907 8.162-.728 10.432-.728h6.572a8.375 8.375 0 0 1 1.97 0c1.249.348 3.576 2.227.769 3.06h-9.7c-1.196-.002-12.358.733-10.043-2.332z"/><path d="m2.4 11.264c2 .385 4.4.008 6.425.008h7.655a1.375 1.375 0 0 0 .377-.037c2.6-.525 2.867-1.941 2.867-4.409 0-2.349.784-5.6-2.248-6.1-2.426-.4-5.246 0-7.7 0a55.157 55.157 0 0 0 -6.455.01c-2.071.25-2.935 1.234-3.045 3.269-.129 2.369-.915 6.672 2.124 7.259zm-.253-9.225c.916-1.352 3.353-.767 4.974-.767h7.21c2.116 0 3.44.064 3.945 2.519.224 1.093.6 6.407-1.043 6.937h-11.301c-2.014 0-3.749.19-4.208-2.3-.284-1.553-.485-5.049.423-6.389z"/><path d="m31.354 3.8a6.159 6.159 0 0 0 -2.454-.22c-.9 0-1.815-.055-2.712 0-2.158.142-4.3 2.849-1.882 4.427 1.373.9 3.866.4 5.414.4.02 0 .043-.008.063-.01a.95.95 0 0 0 .12 0 3.03 3.03 0 0 0 2.665-1.707 2.272 2.272 0 0 0 -1.214-2.89zm-1.21 3.78h-2.919a6.084 6.084 0 0 1 -.945 0c-1.361-.228-2.244-2.064-.895-2.922.859-.546 2.384-.242 3.39-.242a6.084 6.084 0 0 1 .945 0c1.426.24 2.48 2.913.424 3.166z"/><path d="m54.474 3.581h-10.715c-1.759 0-3.925-.348-5.662.009-1.626.334-3.666 1.637-2.548 3.614.815 1.443 2.638 1.215 4.031 1.215h17.14c.013 0 .029-.006.043-.007a1.134 1.134 0 0 0 .337-.041c1.791-.484 3.736-2.175 1.94-4.025-1.092-1.125-3.149-.765-4.566-.765zm2.569 4h-9.723c-1.2 0-12.455.765-10.068-2.416 1.444-1.924 8.133-.746 10.428-.746h6.571a8.375 8.375 0 0 1 1.97 0c1.244.35 3.59 2.321.822 3.162z"/></g></svg>