<svg height="508pt" viewBox="-23 0 508 508.21929" width="508pt" xmlns="http://www.w3.org/2000/svg"><path d="m18.226562 504.40625c-1.914062.003906-3.597656-1.265625-4.117187-3.109375-.515625-1.839844.253906-3.804687 1.886719-4.800781l125.246094-76.320313-130.015626 75.09375c-2.007812 1.058594-4.492187.359375-5.652343-1.59375-1.164063-1.949219-.59375-4.46875 1.292969-5.730469l170.460937-104.574218-166.101563 95.890625c-2.015624 1.09375-4.539062.398437-5.710937-1.578125-1.167969-1.972656-.5625-4.523438 1.367187-5.761719l95.507813-57.839844-91.164063 52.625c-2.023437 1.207031-4.640624.542969-5.847656-1.480469-1.207031-2.023437-.542968-4.640624 1.480469-5.847656l184.59375-113.613281-180.226563 104.054687c-2.015624 1.097657-4.539062.402344-5.710937-1.574218-1.167969-1.976563-.5625-4.523438 1.367187-5.765625l82.082032-49.613281-77.738282 44.886718c-2.011718 1.089844-4.523437.402344-5.695312-1.5625-1.175781-1.964844-.585938-4.507812 1.328125-5.757812l184.214844-113.390625-179.847657 103.832031c-1.3125.777344-2.9375.792969-4.265624.042969-1.328126-.746094-2.15625-2.148438-2.171876-3.671875-.015624-1.523438.78125-2.941406 2.09375-3.71875l100.507813-60.910156-96.164063 55.507812c-2.011718 1.078125-4.515624.378906-5.679687-1.582031-1.164063-1.964844-.578125-4.496094 1.328125-5.746094l125.644531-76.441406-121.292969 70.023437c-2.023437 1.128906-4.574218.433594-5.75-1.558594-1.175781-1.996093-.546874-4.5625 1.417969-5.789062l36.375-21.878906-32.042969 18.492187c-2.015624 1.097657-4.539062.402344-5.710937-1.574219-1.167969-1.976562-.5625-4.523437 1.367187-5.765624l56.5-34.054688-52.15625 30.140625c-2.015624 1.09375-4.539062.398437-5.710937-1.578125-1.167969-1.976562-.5625-4.523438 1.367187-5.761719l100.507813-60.929687-96.164063 55.46875c-2.011718 1.074218-4.515624.375-5.679687-1.585938-1.164063-1.960937-.578125-4.492187 1.328125-5.746094l121.941406-74.152343-117.589844 67.914062c-2.011718 1.09375-4.523437.402344-5.695312-1.5625-1.175781-1.964843-.585938-4.503906 1.328125-5.757812l185.359375-114.097657-180.992188 104.488282c-2.027343 1.199218-4.644531.527344-5.84375-1.5-1.199218-2.03125-.527343-4.648438 1.5-5.847656l69.191407-41.761719-64.855469 37.4375c-2.023438 1.207031-4.644531.546875-5.855469-1.476563-1.207031-2.023437-.546875-4.644531 1.476563-5.855468l200.535156-123.910157-196.148438 113.246094c-2.007812 1.105469-4.535156.425781-5.714843-1.542969-1.183594-1.96875-.59375-4.519531 1.328125-5.773437l219.597656-136.464844-215.21875 124.253906c-2.011719 1.0625-4.503906.355469-5.664062-1.601562-1.15625-1.960938-.570313-4.484375 1.328124-5.734375l62.753907-37.871094-58.417969 33.722656c-2.007812 1.058594-4.492188.359375-5.65625-1.589844-1.160156-1.953124-.589844-4.46875 1.296875-5.730468l159.65625-98.203125-155.296875 89.660156c-2.011719 1.105469-4.535156.425781-5.71875-1.542969-1.179688-1.96875-.589844-4.519531 1.332031-5.769531l171.324219-106.609375-166.9375 96.378906c-2.007812 1.070313-4.503906.378906-5.671875-1.574218-1.167969-1.953126-.597656-4.476563 1.292969-5.742188l126.105468-78.019531-121.726562 70.28125c-1.3125.777343-2.9375.800781-4.265625.054687-1.332031-.746094-2.164063-2.144531-2.183594-3.671875-.019531-1.523437.777344-2.941406 2.089844-3.722656l61.558594-37.691406-57.171875 33.023437c-2 1.070313-4.484375.394532-5.660156-1.542968-1.175782-1.933594-.636719-4.453126 1.230468-5.734376l151.707032-97.015624-147.304688 85.042968c-2.015625 1.113282-4.554688.429688-5.730469-1.550781-1.179687-1.980469-.570312-4.539063 1.371094-5.777344l26.230469-16.121093-21.871094 12.585937c-2 1.070313-4.492188.386719-5.664062-1.558594-1.171876-1.941406-.617188-4.464843 1.261718-5.738281l76.570313-48.152344-72.167969 41.695313c-2.015625 1.160156-4.589844.496093-5.789062-1.5-1.199219-1.992188-.578126-4.582031 1.394531-5.8125l43.988281-27.53125-39.59375 22.863281c-2.007812 1.148438-4.566406.484375-5.765625-1.496094-1.199219-1.976562-.601563-4.550781 1.347656-5.800781l53.910157-34.246094-49.492188 28.578125c-1.996094 1.160156-4.554688.519532-5.769531-1.445312-1.214844-1.960938-.644531-4.535156 1.28125-5.808594l80.886719-53.628906-76.398438 44.117187c-2.003906 1.101563-4.523438.425781-5.707031-1.53125-1.183594-1.957031-.613281-4.503906 1.296875-5.765625l3.464844-2.191406c-2.007813.578125-4.140626-.382812-5.039063-2.269531-.898437-1.882813-.296875-4.144531 1.417969-5.335938l64.855468-45.132812-60.289062 34.808593c-1.960938 1.105469-4.441406.5-5.671875-1.386718-1.226563-1.886719-.78125-4.402344 1.023437-5.746094l53.355469-39.066406-48.707031 28.160156c-1.933594 1.101562-4.386719.53125-5.640625-1.304688-1.25-1.839843-.878906-4.332031.855469-5.726562l39.703125-31.539062-34.917969 20.144531c-1.90625 1.054687-4.304688.503906-5.554688-1.28125-1.253906-1.785157-.957031-4.226563.683594-5.664063l21.066406-17.671875-16.210937 9.386719c-1.871094 1.066406-4.238281.574219-5.527344-1.148438-1.289062-1.722656-1.097656-4.132812.449219-5.628906l9.710938-9.308594-4.617188 2.652344c-1.636719.976563-3.71875.746094-5.105469-.558594-1.386719-1.304687-1.742187-3.371093-.867187-5.0625l4.445312-8.652343c-1.90625-.0625-3.535156-1.382813-4-3.230469-.460937-1.851562.359375-3.78125 2.011719-4.730469l9.617187-5.539062c1.636719-.976563 3.71875-.746094 5.105469.558593 1.386719 1.304688 1.742188 3.371094.867188 5.0625l-3.855469 7.605469 22.878906-13.226562c1.871094-1.144531 4.304688-.683594 5.628906 1.066406 1.324219 1.75 1.101563 4.21875-.511718 5.707031l-9.734375 9.261719 27.808593-16.035156c1.914063-1.074219 4.328126-.527344 5.585938 1.269531s.949219 4.253906-.714844 5.683594l-21.066406 17.640625 42.667969-24.613281c1.929687-1.101563 4.386719-.53125 5.636719 1.308593 1.253906 1.835938.882812 4.332031-.851563 5.722657l-39.679687 31.472656 66.714843-38.484375c1.957031-1.105469 4.441407-.5 5.667969 1.386719 1.230469 1.882812.785156 4.398437-1.019531 5.746093l-53.375 39.082031 80.050781-46.214843c1.972656-1.070313 4.433594-.429688 5.632812 1.460937 1.203126 1.894532.738282 4.394532-1.066406 5.722656l-64.90625 45.140626 90.691406-52.324219c2.011719-1.148438 4.570313-.488281 5.769532 1.492187 1.199218 1.980469.601562 4.554688-1.347656 5.804688l-.945313.585937 13.632813-7.882812c1.992187-1.097657 4.492187-.445313 5.691406 1.488281 1.195312 1.929688.667968 4.464844-1.203125 5.753906l-80.859375 53.601563 105.4375-60.84375c2-1.085938 4.5-.410157 5.679687 1.539062 1.179688 1.945313.625 4.472657-1.257812 5.746094l-53.933594 34.253906 71.953125-41.539062c2.011719-1.125 4.550781-.453125 5.742188 1.519531 1.1875 1.972656.597656 4.53125-1.339844 5.785156l-44.003906 27.527344 60.363281-34.832031c2.003906-1.070313 4.492187-.386719 5.664062 1.558593 1.175781 1.941407.621094 4.464844-1.261719 5.738282l-76.59375 48.167968 96.085938-55.464843c2.007812-1.058594 4.492188-.359375 5.65625 1.589843 1.160156 1.949219.589844 4.46875-1.296875 5.730469l-26.128906 16.035157 40.507812-23.355469c1.996094-1.070313 4.480469-.390625 5.660157 1.542969 1.175781 1.933593.636718 4.453124-1.230469 5.734374l-151.800781 97.023438 180.738281-104.300781c2.015625-1.117188 4.550781-.429688 5.730469 1.550781 1.175781 1.980469.570312 4.539062-1.371094 5.777344l-61.542969 37.648437 77.96875-44.976562c2.003906-1.042969 4.476563-.34375 5.632813 1.59375 1.160156 1.941406.605468 4.449219-1.261719 5.71875l-126.117188 78.019531 147.824219-85.332031c2.011719-1.109375 4.539062-.425781 5.71875 1.542969s.589844 4.515624-1.332031 5.769531l-171.402344 106.613281 197.410156-113.925781c2.011719-1.089844 4.527344-.402344 5.699219 1.5625 1.171875 1.964843.585938 4.507812-1.328125 5.757812l-159.53125 98.132813 175.898437-101.546875c2.011719-1.058594 4.503907-.355469 5.664063 1.605469 1.15625 1.960937.570313 4.484374-1.328125 5.734374l-62.976562 38 59.972656-34.664062c2.003906-1.070312 4.5-.378906 5.667968 1.574219 1.171876 1.949219.601563 4.476562-1.292968 5.738281l-219.5 136.398438 215.125-124.160157c2.011718-1.089843 4.523437-.402343 5.695312 1.5625 1.171875 1.964844.585938 4.507813-1.328125 5.757813l-200.53125 123.921875 196.164063-113.324219c2.015625-1.09375 4.539062-.398438 5.707031 1.578125 1.171875 1.976563.566406 4.523437-1.363281 5.761719l-69.464844 41.941406 65.121094-37.5625c2.015625-1.117188 4.550781-.429688 5.730468 1.550781 1.175782 1.980469.570313 4.539063-1.371093 5.777344l-185.234375 114.023437 180.90625-104.421874c2.011718-1.046876 4.488281-.339844 5.640625 1.609374 1.15625 1.949219.585937 4.460938-1.296875 5.71875l-121.941406 74.148438 117.566406-67.890625c2.027344-1.199219 4.644531-.527344 5.84375 1.5 1.199218 2.03125.527344 4.648437-1.5 5.847656l-100.695313 61.046875 96.425781-55.636718c2.015626-1.0625 4.507813-.355469 5.664063 1.601562 1.160156 1.960938.574219 4.484375-1.328125 5.734375l-56.660156 34.132813 52.335937-30.207032c2.019531-1.125 4.574219-.433594 5.75 1.558594 1.175781 1.996094.546875 4.5625-1.417969 5.789062l-36.164062 21.707032 31.71875-18.300782c2.007812-1.046874 4.484375-.339843 5.640625 1.609376 1.15625 1.949218.585937 4.460937-1.296875 5.71875l-125.601562 76.441406 121.292968-70.023438c2.011719-1.0625 4.503906-.355468 5.664063 1.605469 1.15625 1.957031.570312 4.480469-1.328125 5.734375l-100.5 60.917969 96.164062-55.519531c2.015625-1.113282 4.554688-.425782 5.730469 1.554687 1.179687 1.980469.570313 4.539063-1.371094 5.777344l-184.207031 113.367187 179.847656-103.871094c2.011719-1.058593 4.503906-.355468 5.664063 1.605469 1.15625 1.960938.570312 4.484375-1.328125 5.734375l-82.082032 49.65625 77.746094-44.867187c2.007813-1.058594 4.492188-.359375 5.65625 1.589843 1.160156 1.949219.589844 4.46875-1.296875 5.730469l-184.730469 113.671875 180.371094-104.105468c2.023438-1.128907 4.574219-.4375 5.75 1.558593 1.175782 1.992188.546875 4.5625-1.414062 5.789063l-95.507813 57.835937 91.171875-52.625c2.007813-1.058593 4.492188-.355469 5.65625 1.59375 1.160156 1.949219.589844 4.46875-1.296875 5.730469l-170.316406 104.480469 165.957031-95.804688c2.007813-1.042969 4.484375-.335937 5.640625 1.613281 1.152344 1.945313.585938 4.457032-1.296875 5.71875l-125.296875 76.347657 120.953125-69.828125c2.011719-1.089844 4.523438-.402344 5.695313 1.5625 1.175781 1.964844.589843 4.507812-1.328125 5.757812l-152.34375 93.867188 147.976562-85.433594c2.003906-1.058594 4.480469-.367188 5.648438 1.574219 1.164062 1.941406.609375 4.457031-1.261719 5.730469l-167.996094 104.957031 163.609375-94.480469c2.003906-1.101562 4.523438-.425781 5.707032 1.53125 1.183593 1.957031.613281 4.5-1.296876 5.765625l-164.847656 104.3125 160.429688-92.628906c2.023437-1.207031 4.640625-.546875 5.847656 1.480469 1.207031 2.023437.542969 4.640624-1.480469 5.847656l-68.265625 42.070312 63.914063-36.890625c2.011719-1.089843 4.523437-.398437 5.699219 1.566407 1.171874 1.964843.585937 4.503906-1.328126 5.753906l-51.789062 31.957031 47.417969-27.375c2-1.082031 4.5-.40625 5.679687 1.539063 1.183594 1.945312.625 4.476562-1.257812 5.75l-107.25 68.265624 102.828125-59.363281c2-1.101562 4.511719-.433593 5.699219 1.515625 1.1875 1.949219.632812 4.488282-1.261719 5.761719l-92.433594 59.359375 87.988281-50.800781c1.996094-1.15625 4.554688-.515625 5.769532 1.445312 1.214843 1.964844.644531 4.539063-1.28125 5.808594l-98.902344 65.59375 94.414062-54.507813c1.996094-1.085937 4.488282-.414062 5.675782 1.523438 1.183593 1.9375.644531 4.460938-1.230469 5.746094l-47.394531 30.617187 42.949218-24.789062c1.996094-1.136719 4.535156-.484375 5.742188 1.472656 1.203125 1.957031.640625 4.515625-1.269532 5.789063l-44.699218 29.386718 40.226562-23.183594c1.984375-1.132812 4.507813-.503906 5.726563 1.429688 1.21875 1.929688.699219 4.480469-1.179688 5.78125l-51.300781 35.257812 46.753906-26.988281c1.964844-1.128906 4.472656-.523437 5.703125 1.378907 1.234375 1.902343.761719 4.4375-1.070312 5.769531l-45.0625 32.582031 40.429687-23.332031c1.941406-1.085938 4.390625-.5 5.628906 1.347656 1.238282 1.847656.847657 4.335937-.894531 5.71875l-33.996093 26.328125 29.261718-16.898438c1.9375-1.09375 4.386719-.515624 5.632813 1.328126 1.246093 1.84375.867187 4.332031-.871094 5.722656l-14.242187 11.132812 9.480468-5.46875c1.800782-1.039062 4.085938-.628906 5.414063.96875s1.3125 3.921875-.039063 5.5l-14.328125 16.742188 8.953125-5.121094c1.660156-.964844 3.769532-.683594 5.121094.683594 1.34375 1.367187 1.609375 3.460937.65625 5.121094l-3.414062 5.800781c1.128906.277343 2.097656 1 2.679687 2.007812.566406.980469.722656 2.144531.429687 3.242188-.292968 1.09375-1.007812 2.027343-1.992187 2.59375l-9.582031 5.519531c-1.679688.976562-3.800782.695312-5.167969-.679688s-1.636719-3.5-.652344-5.171874l2.175781-3.722657-16.511718 9.53125c-1.796875 1.03125-4.074219.621094-5.398438-.972656-1.324218-1.589844-1.316406-3.90625.023438-5.484375l14.328125-16.753906-40.21875 23.210937c-1.9375 1.09375-4.390625.519531-5.632813-1.324219-1.246094-1.84375-.867187-4.335937.871094-5.722656l14.226562-11.09375-31.480468 18.140625c-1.941406 1.109375-4.410156.53125-5.65625-1.324219-1.25-1.859374-.851563-4.363281.910156-5.738281l33.996094-26.328125-57.878906 33.390625c-1.96875 1.128907-4.472657.523438-5.707032-1.378906-1.230468-1.902344-.761718-4.4375 1.074219-5.769531l45.046875-32.582032-68.8125 39.730469c-1.980469 1.089844-4.460938.449219-5.667969-1.457031-1.203125-1.910156-.714843-4.425781 1.117188-5.742188l51.335937-35.261718-73.605468 42.460937c-1.992188 1.085938-4.484376.421875-5.671876-1.507812-1.191406-1.929688-.664062-4.453125 1.199219-5.746094l44.644531-29.351563-63.410156 36.605469c-2 1.117188-4.523437.457031-5.71875-1.496093-1.195312-1.949219-.636718-4.5 1.265625-5.773438l47.394531-30.617188-65.632812 37.886719c-1.988281 1.101563-4.488281.445313-5.6875-1.488281-1.195312-1.929688-.667969-4.460938 1.199219-5.753906l98.988281-65.621094-126.269531 72.863281c-2 1.101563-4.507813.433594-5.699219-1.515625-1.1875-1.949218-.628906-4.488281 1.261719-5.761718l92.382812-59.28125-115.300781 66.558593c-2 1.085938-4.5.410157-5.683594-1.539062-1.179687-1.945313-.625-4.472657 1.261719-5.746094l107.246094-68.308594-130.941407 75.59375c-2.011718 1.09375-4.527343.402344-5.699218-1.5625-1.171875-1.964843-.585938-4.503906 1.328125-5.757812l51.902343-32.015625-68.148437 39.335937c-2.011719 1.09375-4.527344.402344-5.699219-1.5625-1.171875-1.964843-.585937-4.503906 1.328125-5.757812l68.269531-42.0625-85.566406 49.382812c-2.003906 1.105469-4.519531.429688-5.707031-1.53125-1.183594-1.957031-.609375-4.5 1.296875-5.761719l164.890625-104.296874-193.324219 111.589843c-2.003906 1.089844-4.511718.40625-5.6875-1.550781-1.175781-1.953125-.605468-4.488281 1.292969-5.753906l167.945313-104.890625-194.390626 112.195312c-2.011718 1.09375-4.523437.402344-5.695312-1.5625-1.175781-1.964843-.585938-4.503906 1.328125-5.757812l152.378906-93.867188-175.292969 101.1875c-.652343.394531-1.398437.605469-2.15625.605469zm0 0" fill="#35ba9b"/><path d="m74.902344 171.609375c-1.875 0-3.535156-1.226563-4.082032-3.023437-.546874-1.796876.144532-3.738282 1.703126-4.785157l35.445312-23.84375-53.828125 31.046875c-1.976563 1.085938-4.460937.449219-5.664063-1.460937-1.207031-1.910157-.714843-4.425781 1.117188-5.742188l45.78125-31.429687-50.015625 28.902344c-1.957031 1.121093-4.449219.523437-5.6875-1.363282-1.238281-1.886718-.789063-4.414062 1.019531-5.761718l51.773438-38.09375-47.105469 27.179687c-1.957031 1.121094-4.449219.523437-5.6875-1.363281-1.238281-1.890625-.789063-4.414063 1.019531-5.761719l27.878906-20.574219-23.21875 13.390625c-1.902343 1.089844-4.320312.558594-5.59375-1.226562-1.273437-1.78125-.988281-4.242188.664063-5.6875l25.511719-22.1875-20.582032 11.886719c-1.871093 1.070312-4.242187.574218-5.53125-1.152344-1.289062-1.722656-1.089843-4.136719.464844-5.628906l9.792969-9.328126-4.726563 2.730469c-1.628906.960938-3.699218.730469-5.078124-.5625-1.382813-1.296875-1.746094-3.34375-.894532-5.035156l4.472656-8.933594c-1.917968-.035156-3.578124-1.34375-4.054687-3.199219-.480469-1.855468.335937-3.804687 1.996094-4.761718l9.644531-5.53125c1.628906-.960938 3.699219-.730469 5.078125.566406 1.382813 1.292969 1.746094 3.339844.894531 5.03125l-3.976562 7.945312 23.433594-13.542968c1.882812-1.414063 4.558593-1.03125 5.972656.855468 1.414062 1.882813 1.03125 4.558594-.855469 5.972657l-9.8125 9.324219 27.878906-16.152344c1.898438-1.070313 4.300781-.535156 5.566407 1.238281 1.269531 1.773437.992187 4.214844-.632813 5.664063l-25.515625 22.1875 50.40625-29.089844c1.957031-1.097656 4.429688-.492188 5.65625 1.386718 1.226562 1.878907.792969 4.386719-.996094 5.738282l-27.820312 20.523437 47.933594-27.648437c1.957031-1.121094 4.453124-.523438 5.6875 1.363281 1.238281 1.890625.789062 4.414063-1.019532 5.761719l-51.746094 38.101562 78.335938-45.226562c1.976562-1.089844 4.460938-.449219 5.664062 1.460937 1.207032 1.90625.714844 4.425781-1.117187 5.742188l-45.773437 31.417969 66.910156-38.621094c1.984375-1.097656 4.484375-.453125 5.6875 1.472656s.6875 4.453125-1.171875 5.753906l-35.449219 23.84375 53.828125-31.070312c1.976563-1.089844 4.460937-.449219 5.667969 1.460937 1.203125 1.90625.714844 4.425781-1.117188 5.742188l-46.160156 31.710937 67.414062-38.914062c1.96875-1.113282 4.460938-.496094 5.6875 1.402344 1.222657 1.898437.753907 4.425781-1.070312 5.757812l-59.460938 42.539062 86.136719-49.699218c1.996094-1.082032 4.492188-.414063 5.675781 1.523437 1.183594 1.9375.644532 4.464844-1.230468 5.746094l-3.414063 2.195313 16.4375-9.464844c1.992188-1.070313 4.472657-.398438 5.652344 1.527344 1.183594 1.929687.65625 4.445312-1.199219 5.734374l-7.601562 4.941407 21.152344-12.203125c1.976562-1.089844 4.460937-.449219 5.667968 1.460937 1.203125 1.90625.714844 4.425781-1.121094 5.742188l-46.8125 32.210937 68.265626-39.414062c1.988281-1.070313 4.464843-.40625 5.652343 1.511718 1.1875 1.921876.675781 4.433594-1.171875 5.734376l-21.230468 14.003906 36.820312-21.25c1.976562-1.121094 4.484375-.496094 5.703125 1.417968 1.222656 1.914063.730469 4.449219-1.121094 5.765626l-52.28125 36.457031 75.664063-43.640625c1.988281-1.085938 4.472656-.429688 5.667968 1.492187 1.195313 1.921875.679688 4.445313-1.171874 5.746094l-31.332032 20.921875 40.769532-23.558594c1.992187-1.101562 4.492187-.445312 5.691406 1.484375 1.195312 1.933594.667968 4.464844-1.203125 5.757813l-20.121094 13.363281 16.660156-9.589844c1.964844-1.148437 4.480469-.550781 5.722657 1.355469 1.242187 1.90625.769531 4.453125-1.074219 5.785156l-42 30.636719 37.359375-21.566406c1.941406-1.085938 4.390625-.5 5.628906 1.347656s.847656 4.335937-.894531 5.71875l-29.449219 22.765625 24.746094-14.257812c1.929687-1.109376 4.390625-.550782 5.648437 1.285156 1.261719 1.835937.898438 4.328125-.832031 5.730468l-14.660156 11.871094 9.84375-5.675781c1.746094-1.003906 3.953125-.652344 5.300781.84375s1.464844 3.730469.28125 5.359375l-11.945313 16.46875 6.390626-3.675781c2.027343-1.0625 4.527343-.335938 5.671874 1.644531 1.144532 1.980469.523438 4.507812-1.40625 5.734375l-23.839843 13.707031c-1.746094 1.003906-3.953125.652344-5.300781-.839844-1.347657-1.492187-1.46875-3.726562-.289063-5.355468l11.945313-16.480469-39.253907 22.675781c-1.925781 1.082032-4.359375.519532-5.609375-1.304687-1.253906-1.820313-.90625-4.296875.796875-5.703125l14.644531-11.871094-32.691406 18.878906c-1.941406 1.085938-4.390625.5-5.628906-1.347656s-.851562-4.335938.894531-5.71875l29.429688-22.757812-51.679688 29.863281c-1.964843 1.148437-4.480469.550781-5.722656-1.355469s-.769531-4.453125 1.074219-5.785156l41.984375-30.617188-65.433594 37.71875c-1.984375 1.058594-4.449219.394532-5.636719-1.515625-1.183594-1.914062-.683594-4.414062 1.148438-5.722656l20.179687-13.414063-35.769531 20.652344c-1.992188 1.113282-4.503906.46875-5.710938-1.46875-1.203124-1.933594-.675781-4.476562 1.203126-5.769531l31.367187-20.921875-48.84375 28.160156c-1.972656 1.117188-4.480469.496094-5.703125-1.417968-1.21875-1.914063-.726562-4.449219 1.121094-5.769532l52.234375-36.445312-75.605469 43.632812c-1.992188 1.097656-4.492188.441406-5.691406-1.488281-1.195313-1.933594-.667969-4.464844 1.203125-5.757813l21.28125-14.039062-36.863281 21.285156c-1.980469 1.085938-4.460938.449219-5.667969-1.460937-1.203125-1.910157-.714844-4.425781 1.117187-5.742188l46.824219-32.214843-68.265625 39.417968c-1.992188 1.066406-4.472656.398438-5.65625-1.53125-1.183594-1.925781-.65625-4.441406 1.199219-5.730468l7.578125-4.925782-21.152344 12.1875c-1.996094 1.082032-4.492188.410156-5.675781-1.527344-1.1875-1.9375-.644531-4.460937 1.230469-5.746093l3.410156-2.21875-16.433594 9.492187c-1.96875 1.109375-4.460938.496094-5.683594-1.402344-1.226562-1.902343-.757812-4.425781 1.066406-5.757812l59.460938-42.566406-86.136719 49.726562c-1.976562 1.085938-4.460937.449219-5.664062-1.460937-1.207031-1.910157-.714844-4.425781 1.117187-5.742188l46.148438-31.703125-67.414063 38.90625c-.640625.382813-1.371093.589844-2.117187.605469zm0 0" fill="#66d4f1"/><path d="m55.660156 274.007812c-1.769531.003907-3.355468-1.085937-3.988281-2.738281-.636719-1.648437-.1875-3.519531 1.128906-4.703125l22.792969-20.480468-30.234375 17.441406c-1.832031 1.050781-4.15625.601562-5.464844-1.058594-1.308593-1.65625-1.207031-4.019531.234375-5.5625l18.492188-19.582031-13.269532 7.679687c-1.609374.902344-3.617187.671875-4.976562-.578125s-1.761719-3.230469-.996094-4.910156l4.949219-10.640625c-1.652344.175781-3.246094-.660156-4.042969-2.117188-1.179687-2.039062-.480468-4.648437 1.558594-5.828124l9.617188-5.546876c1.609374-.902343 3.617187-.667968 4.976562.578126 1.359375 1.25 1.761719 3.230468 1 4.910156l-4.644531 9.992187 26.871093-15.488281c1.832032-1.046875 4.160157-.597656 5.46875 1.058594 1.308594 1.65625 1.207032 4.023437-.238281 5.5625l-18.492187 19.578125 40.246094-23.230469c1.875-1.003906 4.207031-.476562 5.460937 1.246094 1.257813 1.71875 1.050781 4.101562-.480469 5.582031l-22.78125 20.480469 20-11.503906c1.867188-1.105469 4.269532-.636719 5.578125 1.09375 1.3125 1.730468 1.113281 4.167968-.457031 5.664062l-8.125 7.851562 3.03125-1.707031c1.652344-.957031 3.742188-.695312 5.109375.632813 1.371094 1.332031 1.6875 3.414062.777344 5.09375l-3.941407 7.269531c1.820313.230469 3.289063 1.597656 3.652344 3.398437.359375 1.796876-.472656 3.625-2.066406 4.539063l-9.582031 5.519531c-1.65625.960938-3.75.703125-5.121094-.632812-1.371094-1.335938-1.683594-3.421875-.765625-5.101563l3.140625-5.792969-19.996094 11.425782c-1.867187 1.105468-4.265625.636718-5.574219-1.09375-1.3125-1.730469-1.117187-4.167969.457032-5.664063l8.121094-7.851562-25.292969 14.609375c-.644531.386718-1.378907.59375-2.132813.605468zm0 0" fill="#e4e8eb"/><path d="m179.617188 274.007812c-1.773438 0-3.363282-1.09375-3.992188-2.75s-.167969-3.53125 1.15625-4.707031l2.066406-1.828125-15.09375 8.679688c-1.863281 1.074218-4.230468.59375-5.53125-1.117188-1.300781-1.710937-1.125-4.121094.410156-5.625l24.960938-24.40625-35.839844 20.6875c-1.902344 1.089844-4.324218.558594-5.597656-1.222656-1.273438-1.785156-.984375-4.246094.664062-5.691406l12.917969-11.253906-7.996093 4.617187c-1.867188 1.125-4.285157.65625-5.601563-1.082031-1.316406-1.738282-1.109375-4.191406.484375-5.6875l3.480469-3.351563c-1.34375.179688-2.691407-.300781-3.617188-1.289062-1.359375-1.425781-1.566406-3.601563-.496093-5.257813l2.714843-4.1875c-1.527343-.605468-2.574219-2.035156-2.6875-3.675781-.109375-1.636719.726563-3.195313 2.15625-4.003906l9.617188-5.546875c1.699219-.960938 3.832031-.644532 5.179687.765625 1.347656 1.40625 1.570313 3.550781.539063 5.207031l-.75 1.160156 12.433593-7.175781c1.867188-1.125 4.285157-.660156 5.601563 1.078125 1.316406 1.742188 1.109375 4.195312-.484375 5.6875l-2.492188 2.398438 15.925782-9.054688c1.898437-1.070312 4.296875-.535156 5.566406 1.238281 1.265625 1.773438.992188 4.214844-.636719 5.664063l-12.910156 11.25 26.878906-15.59375c1.863281-1.070313 4.230469-.59375 5.53125 1.117187 1.300781 1.710938 1.125 4.121094-.410156 5.625l-24.96875 24.421875 22.453125-12.960937c1.894531-1.097657 4.316406-.578125 5.597656 1.199219 1.28125 1.777343 1.007813 4.234374-.632812 5.6875l-3.335938 2.953124c1.605469-.195312 3.1875.539063 4.074219 1.890626.890625 1.351562.9375 3.09375.125 4.492187l-3.996094 6.828125c1.882813.109375 3.46875 1.441406 3.902344 3.273438.4375 1.832031-.382813 3.734374-2.015625 4.679687l-10.785156 6.21875c-1.671875.957031-3.777344.675781-5.140625-.6875-1.359375-1.363281-1.640625-3.46875-.679688-5.140625l3.277344-5.640625-19.890625 11.511719c-.644531.386718-1.382812.59375-2.132812.605468zm0 0" fill="#e4e8eb"/><path d="m273.457031 274.007812c-1.714843.003907-3.261719-1.019531-3.933593-2.59375-.671876-1.574218-.335938-3.402343.851562-4.632812l21.105469-21.921875-40.484375 23.355469c-1.929688 1.109375-4.386719.550781-5.644532-1.285156-1.261718-1.835938-.898437-4.328126.832032-5.730469l13.421875-10.835938-9.453125 5.460938c-1.816406 1.046875-4.121094.621093-5.445313-1.003907-1.320312-1.625-1.265625-3.96875.128907-5.535156l11.863281-13.265625-6.546875 3.777344c-1.6875.96875-3.8125.675781-5.175782-.714844-1.359374-1.390625-1.605468-3.523437-.601562-5.1875l3.175781-5.242187c-1.054687-.304688-1.949219-1.003906-2.5-1.953125-.570312-.980469-.722656-2.148438-.429687-3.242188.292968-1.09375 1.007812-2.027343 1.988281-2.59375l9.628906-5.546875c1.683594-.976562 3.820313-.6875 5.183594.707032 1.363281 1.390624 1.609375 3.53125.601563 5.199218l-1.707032 2.875 15.179688-8.722656c1.8125-1.035156 4.109375-.609375 5.425781 1.011719 1.320313 1.617187 1.273437 3.953125-.109375 5.515625l-11.871094 13.277344 34.296875-19.804688c1.925781-1.089844 4.367188-.523438 5.621094 1.304688 1.25 1.824218.894531 4.308593-.816406 5.710937l-13.421875 10.792969 18.695312-10.785156c1.839844-1.050782 4.167969-.59375 5.472656 1.074218 1.308594 1.667969 1.191407 4.039063-.265624 5.574219l-21.097657 21.921875 16.214844-9.386719c1.601563-.921875 3.613281-.707031 4.984375.53125 1.375 1.234375 1.792969 3.214844 1.039062 4.902344l-5.648437 12.621094c2.066406-.5625 4.230469.496093 5.054687 2.476562.828126 1.976563.058594 4.257813-1.792968 5.332031l-10.308594 5.972657c-1.601562.917969-3.609375.703125-4.980469-.53125-1.371093-1.234375-1.792969-3.207031-1.046875-4.894531l5.554688-12.40625-30.90625 17.816406c-.644532.390625-1.378906.597656-2.132813.605468zm0 0" fill="#e4e8eb"/><path d="m73.09375 359.339844c-1.785156.003906-3.382812-1.105469-4.003906-2.777344-.625-1.671875-.140625-3.558594 1.214844-4.722656l3.328124-2.867188-16.964843 9.761719c-1.921875 1.074219-4.34375.515625-5.59375-1.296875-1.25-1.808594-.921875-4.273438.761719-5.691406l15.285156-12.542969-21.453125 12.40625c-1.914063 1.082031-4.335938.527344-5.59375-1.273437-1.257813-1.800782-.941407-4.261719.730469-5.6875l14.308593-11.949219-9.753906 5.632812c-1.898437 1.105469-4.328125.582031-5.609375-1.203125s-.996094-4.253906.660156-5.699218l3.347656-2.9375c-1.578124.203124-3.136718-.492188-4.042968-1.796876-.90625-1.304687-1.011719-3.007812-.277344-4.414062l4.207031-8.0625c-1.871093-.136719-3.433593-1.476562-3.855469-3.300781-.417968-1.828125.40625-3.71875 2.03125-4.652344l9.617188-5.546875c1.640625-.953125 3.714844-.707031 5.089844.605469 1.371094 1.3125 1.710937 3.375.832031 5.058593l-3.574219 6.828126 21.707032-12.503907c1.898437-1.082031 4.308593-.554687 5.582031 1.21875 1.273437 1.777344 1 4.226563-.632813 5.679688l-2.074218 1.808593 15.097656-8.707031c1.914062-1.097656 4.351562-.550781 5.617187 1.257813s.941407 4.285156-.746093 5.707031l-14.308594 11.945313 23.960937-13.789063c1.925781-1.117187 4.386719-.570313 5.652344 1.261719 1.265625 1.832031.910156 4.332031-.816406 5.734375l-15.308594 12.554687 11.332031-6.535156c1.90625-1.078125 4.316406-.542969 5.582032 1.242188 1.265624 1.78125.976562 4.234374-.664063 5.675781l-3.894531 3.355469c1.617187-.445313 3.34375.09375 4.414062 1.382812 1.074219 1.285156 1.292969 3.082031.5625 4.589844l-4.847656 10.238281c1.621094-.125 3.164062.707031 3.953125 2.125.566406.980469.722656 2.148437.429687 3.242187-.292968 1.097657-1.011718 2.03125-1.992187 2.597657l-9.582031 5.519531c-1.617188.914062-3.636719.683594-5-.574219-1.363282-1.261719-1.757813-3.257812-.972656-4.9375l4.496093-9.550781-26.113281 14.984375c-.640625.390625-1.375.597656-2.125.605469zm0 0" fill="#e4e8eb"/><path d="m173.984375 359.339844c-1.792969.007812-3.398437-1.109375-4.015625-2.792969-.621094-1.683594-.121094-3.574219 1.25-4.730469l3.199219-2.714844-16.734375 9.632813c-1.878906 1.0625-4.253906.554687-5.535156-1.1875-1.277344-1.738281-1.054688-4.160156.519531-5.636719l25.085937-22.957031-29.992187 17.332031c-1.886719 1.167969-4.347657.695313-5.671875-1.085937-1.320313-1.777344-1.058594-4.273438.601562-5.742188l14.070313-13.328125-9.007813 5.199219c-1.601562.917969-3.609375.707031-4.980468-.523437-1.375-1.234376-1.796876-3.210938-1.054688-4.898438l5.25-11.792969c-2.027344.296875-3.980469-.886719-4.652344-2.820312-.667968-1.9375.128906-4.074219 1.902344-5.097657l9.617188-5.546874c1.597656-.917969 3.609374-.707032 4.980468.523437 1.371094 1.234375 1.796875 3.207031 1.054688 4.894531l-5.027344 11.367188 29.011719-16.75c1.886719-1.167969 4.351562-.695313 5.671875 1.085937 1.320312 1.777344 1.058594 4.273438-.601563 5.742188l-14.0625 13.308593 32.496094-18.773437c1.878906-1.046875 4.242187-.53125 5.515625 1.203125s1.054688 4.148438-.507812 5.625l-25.105469 22.964844 23.988281-13.84375c1.910156-1.085938 4.335938-.546875 5.601562 1.253906 1.265626 1.796875.957032 4.261719-.714843 5.695312l-3.828125 3.25c1.769531-.460937 3.640625.257813 4.644531 1.792969 1.003906 1.53125.914063 3.535157-.21875 4.972657l-4.425781 5.625c2.0625-.535157 4.199218.535156 5.011718 2.507812.808594 1.96875.042969 4.234375-1.796874 5.308594l-17.917969 10.351562c-1.773438 1.019532-4.019531.640625-5.359375-.902344-1.335938-1.546874-1.390625-3.824218-.128906-5.429687l4.171874-5.292969-20.199218 11.605469c-.636719.382813-1.363282.59375-2.105469.605469zm0 0" fill="#e4e8eb"/><path d="m264.121094 359.339844c-1.785156 0-3.382813-1.109375-4.003906-2.785156-.617188-1.675782-.125-3.5625 1.230468-4.722657l16.417969-14.089843-26.855469 15.507812c-1.953125 1.125-4.449218.539062-5.691406-1.347656-1.242188-1.882813-.804688-4.40625 1-5.761719l3.257812-2.441406c-1.875.683593-3.976562-.027344-5.050781-1.707031-1.078125-1.683594-.84375-3.890626.5625-5.308594l12.589844-12.714844-7.425781 4.269531c-1.640625.984375-3.734375.753907-5.125-.558593s-1.738282-3.390626-.847656-5.082032l4.324218-8.421875c-1.894531-.085937-3.507812-1.410156-3.953125-3.253906-.449219-1.84375.371094-3.761719 2.019531-4.710937l9.625-5.542969c1.648438-.96875 3.742188-.722657 5.117188.605469 1.375 1.304687 1.722656 3.359374.855469 5.042968l-3.753907 7.292969 22.441407-12.941406c1.84375-.992188 4.136719-.5 5.410156 1.164062 1.269531 1.660157 1.148437 4.003907-.289063 5.523438l-12.585937 12.714843 33.074219-19.089843c1.953125-1.125 4.449218-.539063 5.691406 1.347656 1.246094 1.882813.804688 4.40625-1 5.761719l-2.816406 2.109375 4.839844-2.792969c1.90625-1.078125 4.320312-.542969 5.585937 1.246094 1.265625 1.789062.972656 4.246094-.679687 5.683594l-16.425782 14.097656 11.945313-6.894532c1.847656-1.054687 4.191406-.582031 5.492187 1.101563 1.296875 1.683594 1.160156 4.066406-.328125 5.589844l-7.203125 7.285156 2.039063-1.167969c1.6875-.96875 3.816406-.675781 5.175781.714844s1.605469 3.523438.601562 5.191406l-3.148437 5.1875c1.632813.488282 2.816406 1.902344 3.011719 3.59375.195312 1.691406-.632813 3.335938-2.105469 4.1875l-9.585937 5.519532c-1.6875.984374-3.828126.695312-5.195313-.703126-1.363281-1.394531-1.609375-3.542968-.589844-5.207031l1.707031-2.773437-15.019531 8.675781c-1.847656 1.066406-4.199219.601563-5.503906-1.085937-1.308594-1.6875-1.164063-4.082032.335937-5.601563l7.21875-7.296875-24.253906 13.984375c-.644531.390625-1.378906.597656-2.132812.605469zm0 0" fill="#e4e8eb"/><path d="m70.472656 444.675781c-1.710937.003907-3.265625-1.015625-3.9375-2.589843-.675781-1.578126-.339844-3.40625.851563-4.640626l19.726562-20.546874-40.414062 23.332031c-1.9375 1.121093-4.417969.550781-5.671875-1.308594-1.257813-1.859375-.855469-4.371094.910156-5.75l11.273438-8.824219-7.882813 4.550782c-1.882813 1.074218-4.273437.570312-5.558594-1.175782-1.285156-1.746094-1.054687-4.175781.53125-5.652344l10.238281-9.457031-5.238281 3.015625c-1.609375.902344-3.617187.667969-4.976562-.578125-1.359375-1.25-1.761719-3.230469-.996094-4.910156l4.949219-10.625c-1.648438.164063-3.238282-.667969-4.042969-2.117187-1.179687-2.039063-.480469-4.648438 1.558594-5.828126l9.617187-5.546874c1.609375-.902344 3.617188-.667969 4.976563.578124 1.359375 1.25 1.761719 3.230469.996093 4.910157l-4.640624 9.96875 26.792968-15.464844c1.882813-1.078125 4.273438-.570313 5.558594 1.175781 1.285156 1.742188 1.054688 4.175782-.53125 5.652344l-10.238281 9.488281 27.59375-15.929687c1.941406-1.125 4.421875-.554688 5.675781 1.304687s.855469 4.371094-.914062 5.75l-11.261719 8.796875 13.429687-7.746094c1.839844-1.0625 4.179688-.609374 5.492188 1.0625 1.3125 1.667969 1.191406 4.050782-.277344 5.585938l-19.730469 20.554688 14.507813-8.378907c1.597656-.921875 3.609375-.710937 4.980468.523438 1.371094 1.230469 1.796876 3.207031 1.054688 4.894531l-5.257812 11.90625c1.726562-.21875 3.417968.601562 4.316406 2.089844.570312.980468.722656 2.144531.429687 3.242187-.292969 1.09375-1.007812 2.027344-1.988281 2.59375l-9.585938 5.519531c-1.601562.90625-3.601562.699219-4.980468-.519531-1.375-1.234375-1.796875-3.210937-1.050782-4.898437l5.042969-11.441406-29.203125 16.828124c-.640625.386719-1.375.597657-2.125.605469zm0 0" fill="#e4e8eb"/><path d="m154.023438 444.675781c-1.769532.003907-3.355469-1.085937-3.988282-2.738281-.636718-1.652344-.183594-3.523438 1.128906-4.703125l24.875-22.359375-28.277343 16.335938c-1.839844 1.058593-4.175781.609374-5.488281-1.058594-1.316407-1.671875-1.203126-4.054688.265624-5.589844l15.554688-16.292969-10.339844 5.976563c-1.632812.953125-3.695312.722656-5.074218-.566406-1.378907-1.292969-1.746094-3.335938-.902344-5.023438l4.523437-9.113281c-1.925781-.011719-3.605469-1.3125-4.097656-3.175781-.492187-1.863282.324219-3.824219 1.992187-4.785157l9.617188-5.546875c1.621094-.964844 3.6875-.726562 5.050781.578125 1.375 1.289063 1.742188 3.324219.902344 5.007813l-4.058594 8.167968 23.890625-13.765624c1.839844-1.058594 4.175782-.609376 5.488282 1.058593s1.199218 4.046875-.265626 5.582031l-15.554687 16.28125 37.835937-21.835937c1.875-1.007813 4.207032-.476563 5.464844 1.242187 1.253906 1.722657 1.050782 4.105469-.480468 5.582032l-24.902344 22.402344 24.066406-13.894532c1.824219-1.058594 4.148438-.625 5.46875 1.019532 1.320312 1.644531 1.242188 4.007812-.1875 5.5625l-12.671875 13.824218 7.398437-4.269531c1.707032-.976563 3.867188-.660156 5.21875.769531 1.355469 1.433594 1.554688 3.605469.480469 5.257813l-3.277343 5.007812c1.765624.316407 3.140624 1.699219 3.449218 3.464844.308594 1.761719-.515625 3.53125-2.066406 4.429687l-11.410156 6.5625c-1.707032.976563-3.863282.660157-5.21875-.769531-1.351563-1.433593-1.550782-3.605469-.480469-5.257812l2.050781-3.128907-15.882812 9.15625c-1.820313 1.046876-4.136719.609376-5.453125-1.027343-1.316407-1.636719-1.242188-3.992188.171875-5.542969l12.671875-13.835938-35.355469 20.40625c-.644531.386719-1.378906.59375-2.132812.605469zm0 0" fill="#e4e8eb"/><path d="m273.585938 444.675781c-1.785157 0-3.378907-1.113281-4-2.785156-.621094-1.671875-.136719-3.554687 1.21875-4.714844l7.558593-6.503906-22.1875 12.800781c-1.878906 1.03125-4.230469.511719-5.496093-1.21875-1.269532-1.730468-1.054688-4.128906.496093-5.609375l25.183594-22.773437-26.199219 15.09375c-1.808594 1.046875-4.109375.632812-5.4375-.984375-1.324218-1.617188-1.285156-3.957031.097656-5.527344l14.148438-16.128906-8.816406 5.121093c-1.667969.957032-3.769532.675782-5.132813-.679687-1.359375-1.359375-1.644531-3.460937-.695312-5.132813l3.542969-6.160156c-1.734376-.359375-3.066407-1.753906-3.34375-3.503906-.277344-1.75.550781-3.488281 2.085937-4.371094l9.628906-5.546875c1.667969-.96875 3.78125-.691406 5.148438.671875 1.367187 1.363282 1.648437 3.472656.6875 5.148438l-2.449219 4.265625 17.476562-10.09375c1.804688-1.027344 4.089844-.601563 5.40625 1.003906 1.316407 1.605469 1.285157 3.925781-.074218 5.496094l-14.183594 16.105469 38.53125-22.238282c1.875-1.035156 4.230469-.511718 5.496094 1.214844 1.269531 1.730469 1.054687 4.132812-.496094 5.609375l-25.183594 22.792969 27.015625-15.597656c1.910157-1.097657 4.339844-.566407 5.609375 1.226562 1.273438 1.796875.972656 4.265625-.691406 5.703125l-7.554688 6.484375 2.648438-1.519531c1.765625-1.011719 4.003906-.632813 5.339844.90625 1.335937 1.539062 1.398437 3.808593.144531 5.417969l-5.484375 7.003906c2.023438-1.058594 4.527344-.332032 5.671875 1.648437 1.140625 1.976563.523437 4.507813-1.40625 5.734375l-19.074219 11.035156c-1.765625 1.011719-4.003906.632813-5.339844-.90625-1.335937-1.542968-1.398437-3.808593-.144531-5.417968l5.496094-7.015625-23.109375 13.339843c-.644531.390626-1.382812.597657-2.132812.605469zm0 0" fill="#e4e8eb"/><path d="m385.378906 274.007812c-1.769531 0-3.359375-1.09375-3.988281-2.75s-.167969-3.53125 1.15625-4.707031l1.535156-1.367187-14.285156 8.21875c-1.867187 1.125-4.285156.660156-5.601563-1.082032-1.316406-1.738281-1.109374-4.191406.484376-5.683593l23.671874-22.75-35.84375 20.667969c-1.867187 1.125-4.285156.65625-5.601562-1.082032-1.316406-1.742187-1.109375-4.195312.484375-5.6875l18.226563-17.507812-13.148438 7.585937c-1.582031.90625-3.566406.710938-4.9375-.488281-1.375-1.203125-1.832031-3.140625-1.140625-4.828125l5.691406-13.832031c-2.066406.519531-4.199219-.570313-4.996093-2.546875-.796876-1.976563-.011719-4.238281 1.839843-5.296875l9.625-5.546875c1.582031-.914063 3.570313-.71875 4.945313.488281 1.375 1.203125 1.828125 3.148438 1.132812 4.835938l-5.582031 13.570312 32.820313-18.84375c1.867187-1.125 4.285156-.660156 5.601562 1.082031 1.316406 1.738281 1.109375 4.191407-.484375 5.683594l-18.226563 17.511719 35.753907-20.640625c1.871093-1.125 4.289062-.660157 5.605469 1.078125 1.316406 1.742187 1.105468 4.195312-.484376 5.6875l-23.679687 22.757812 20.164063-11.628906c1.898437-1.097656 4.316406-.582031 5.597656 1.195312 1.28125 1.777344 1.007812 4.238282-.632813 5.691407l-3.121093 2.773437c1.234374-.117187 2.457031.339844 3.308593 1.246094 1.316407 1.378906 1.554688 3.46875.582031 5.109375l-3.796874 6.460937c1.824218.210938 3.3125 1.566407 3.6875 3.367188.375 1.796875-.441407 3.636719-2.03125 4.558594l-10.523438 6.078125c-1.675781.96875-3.792969.6875-5.15625-.683594-1.367188-1.375-1.640625-3.492187-.664062-5.164063l2.945312-5-18.800781 10.863282c-.640625.390625-1.378907.597656-2.132813.605468zm0 0" fill="#e4e8eb"/><path d="m372.273438 444.675781c-1.757813-.003906-3.335938-1.082031-3.972657-2.71875s-.207031-3.5 1.089844-4.6875l17.40625-16-32.886719 18.976563c-1.914062 1.074218-4.328125.527344-5.585937-1.269532-1.257813-1.796874-.949219-4.253906.710937-5.683593l29.21875-24.5625-25.691406 14.859375c-1.9375 1.09375-4.390625.515625-5.636719-1.328125-1.246093-1.84375-.863281-4.332031.875-5.722657l20.546875-16.160156-15.796875 9.121094c-1.957031 1.121094-4.449219.523438-5.6875-1.363281-1.238281-1.890625-.789062-4.414063 1.019531-5.761719l6.042969-4.453125-1.375.792969c-1.953125 1.101562-4.425781.503906-5.660156-1.367188-1.234375-1.875-.804687-4.382812.976563-5.742187l9.4375-7.039063-4.753907 2.738282c-1.925781 1.078124-4.359375.503906-5.601562-1.320313-1.246094-1.828125-.890625-4.300781.816406-5.703125l23.097656-18.40625-18.3125 10.566406c-1.917969 1.101563-4.359375.554688-5.625-1.257812-1.265625-1.816406-.933593-4.296875.761719-5.714844l29.542969-24.652344-24.679688 14.242188c-1.910156 1.105468-4.351562.566406-5.621093-1.238282-1.273438-1.808593-.957032-4.289062.734374-5.71875l19.292969-16.339843-14.40625 8.3125c-1.84375 1.050781-4.183593.582031-5.484375-1.097657-1.300781-1.679687-1.167968-4.0625.316406-5.585937l9.503907-9.640625-4.335938 2.5c-1.667969.960938-3.773437.6875-5.140625-.671875-1.363281-1.359375-1.648437-3.46875-.695312-5.140625l3.601562-6.304688c-1.746094-.34375-3.097656-1.734374-3.386718-3.492187-.289063-1.753906.539062-3.507813 2.082031-4.394531l9.625-5.546875c1.667969-.96875 3.78125-.699219 5.152343.664062 1.371094 1.363281 1.652344 3.472657.691407 5.148438l-2.558594 4.480469 17.835937-10.285157c1.84375-1.050781 4.183594-.582031 5.484376 1.097657 1.300781 1.679687 1.167968 4.0625-.3125 5.585937l-9.507813 9.683594 28.347656-16.367188c1.910157-1.085937 4.335938-.546875 5.601563 1.253907 1.265625 1.796874.957031 4.261718-.710938 5.695312l-19.285156 16.339844 26.582031-15.359375c1.914063-1.101563 4.359375-.558594 5.625 1.257812 1.265625 1.8125.933594 4.292969-.761719 5.714844l-29.527343 24.617187 24.746093-14.285156c1.929688-1.074218 4.363282-.503906 5.605469 1.324219 1.246094 1.824219.890625 4.296875-.816406 5.699219l-23.109375 18.414062 18.339844-10.5625c1.953125-1.105468 4.425781-.507812 5.660156 1.367188 1.234375 1.871094.808594 4.378906-.976562 5.738281l-9.488282 7.074219 4.804688-2.761719c1.957031-1.125 4.453125-.527344 5.6875 1.363281 1.238281 1.886719.789062 4.414063-1.019532 5.761719l-6.042968 4.445313 1.375-.792969c1.941406-1.125 4.417968-.554688 5.675781 1.304687 1.253906 1.859375.851563 4.371094-.914063 5.75l-20.480468 16.085938 15.734375-9.078125c1.914062-1.074219 4.328125-.527344 5.585937 1.269531 1.257813 1.796875.949219 4.253906-.714844 5.683594l-29.226562 24.570312 24.355469-14.054687c1.878906-1.0625 4.257812-.554688 5.535156 1.1875 1.28125 1.738281 1.058594 4.160156-.515625 5.636719l-17.410156 16 12.390625-7.148438c1.730469-.992188 3.914062-.648438 5.261719.820312 1.347656 1.46875 1.496093 3.675782.363281 5.3125l-7.527344 10.652344 1.894531-1.085937c2.039063-1.160157 4.628906-.453125 5.804688 1.574219 1.171875 2.03125.484375 4.628906-1.539063 5.816406l-18.636719 10.761718c-1.730468.988282-3.914062.648438-5.261718-.824218-1.347656-1.46875-1.496094-3.675782-.359375-5.3125l7.515625-10.710938-29.183594 16.847656c-.644531.390626-1.378906.597657-2.132812.605469zm0 0" fill="#e4e8eb"/><g fill="#262626"><path d="m2.609375 417.785156c0 21.070313-5.625 50.988282 0 71.519532 8.277344 30.199218 83.667969 15.179687 108.277344 15.179687h268.972656c26.742187 0 75.945313 12.628906 78.941406-22.621094 7.304688-85.078125 0-173.976562 0-259.328125v-208.375c.214844-.59375.195313-1.246094-.050781-1.828125-6.324219-15.207031-23.246094-10.972656-37.308594-10.972656h-367.8125c-10.742187 0-35.234375-4.710937-44.902344 3.40625-9.667968 8.113281-6.117187 24.933594-6.117187 36.289063zm20.273437-408.234375c21.957032-8.457031 64.769532 0 88.003907 0h272.027343c11.640626 0 57.589844-7.550781 63.429688 6.023438v392.363281c0 24.167969 3.410156 51.203125 0 75.09375-2.1875 15.222656-.242188 12.253906-17.015625 13.246094-72.003906 4.265625-145.5625 0-217.679687 0h-117.1875c-17.492188 0-54.144532 7.234375-70.363282 0-22.46875-10.019532-9.03125-102.402344-9.03125-125.167969v-337.144531c0-14.726563-3.371094-20.113282 7.816406-24.414063zm0 0"/><path d="m55.292969 170.277344c30.550781 5.402344 67.175781 0 98.132812 0h253.859375c.699219-.039063 1.390625-.167969 2.054688-.375.949218-.113282 1.878906-.339844 2.765625-.683594 23.109375-9.574219 15.128906-59.09375 12.511719-79.546875-2.765626-21.539063-12.578126-18.636719-31.941407-18.636719h-263.953125c-22.484375 0-52.285156-5.257812-74.324218 0-25.421876 6.058594-17.605469 29.0625-17.605469 51.277344 0 24.695312-7.304688 43.40625 18.5 47.964844zm-6.144531-83.019532c3.789062-13.65625-2.746094-6.445312 7.511718-10.847656 8.089844-3.472656 25.863282 0 34.574219 0h284.539063c6.457031 0 23.285156-3.183594 29.148437 0 11.160156 6.058594 14.625 78.558594 4.042969 88.492188h-283.78125c-15.507813 0-53.761719 7.328125-67.800782 0-14.617187-7.65625-12.507812-62.167969-8.234374-77.644532zm0 0"/><path d="m110.265625 215.851562c-7.132813-1.777343-14.542969-2.179687-21.828125-1.183593-12.066406 0-40.003906-5.207031-48.820312 6.132812-5.742188 7.382813-2.875 22.113281-2.875 30.722657 0 9.386718-.777344 18.839843 9.632812 21.820312.859375.546875 1.871094.800781 2.886719.734375 16.640625 0 33.476562.851563 50.089843 0 22.410157-1.128906 18.117188-21.464844 18.117188-38.101563 0-7.648437 1.210938-16.285156-7.203125-20.125zm-5.257813 45.917969c-.851562 5.070313.070313 3.320313-4.101562 4.097657-15.378906 1.390624-30.851562 1.390624-46.226562 0-8.960938-2.609376-5.480469-22.289063-5.480469-28.671876-.269531-3.40625-.269531-6.832031 0-10.238281.855469-5.199219-.253907-3.289062 4.105469-4.097656 8.921874-.773437 17.890624-.773437 26.8125 0 6.648437 0 17.851562-2.421875 22.527343 2.636719 5.121094 5.511718 2.363281 18.773437 2.363281 26.007812.273438 3.417969.273438 6.851563 0 10.265625zm0 0"/><path d="m212.84375 216.519531c-7.144531-1.535156-14.5-1.839843-21.75-.898437-12.050781 0-39.613281-5.117188-48.921875 5.734375-5.699219 6.648437-2.976563 20.804687-2.976563 28.699219 0 9.898437-1.433593 19.625 9.589844 22.613281.285156.140625.589844.238281.90625.289062.132813 0 .21875.085938.355469.113281.199219.011719.398437.011719.597656 0 .28125 0 .425781.085938.769531.085938 16.597657 0 33.519532 1.03125 50.082032 0 21.835937-1.359375 18.320312-19.074219 18.320312-35.722656 0-7.746094 1.859375-17.3125-6.972656-20.914063zm-5.382812 32.203125c0 4.269532.117187 8.535156 0 12.714844-.179688 6.246094.808593 4.054688-3.210938 5.386719-9.128906 1.21875-18.378906 1.21875-27.511719 0h-19.164062c-9.011719-2.101563-6.023438-18.714844-6.023438-25.4375 0-4.480469 0-8.960938 0-13.433594s-.574219-4.554687 2.515625-5.972656c6.023438-2.816407 20.277344 0 26.898438 0 6.015625 0 17.585937-2.277344 22.9375.851562 6.324218 3.636719 3.558594 19.960938 3.558594 25.890625zm0 0"/><path d="m315.269531 216.628906c-7.148437-1.5-14.496093-1.785156-21.742187-.851562-12.039063 0-39.542969-5.121094-48.9375 5.675781-5.726563 6.585937-2.996094 20.757813-2.996094 28.609375 0 9.941406-1.449219 19.542969 9.609375 22.511719.242187.105469.496094.1875.757813.238281.171874 0 .273437.101562.453124.144531.265626.023438.527344.023438.792969 0 .222657 0 .308594.070313.5625.070313 16.597657 0 33.527344 1.050781 50.082031 0 21.847657-1.390625 18.363282-18.875 18.363282-35.574219 0-7.722656 1.878906-17.300781-6.945313-20.824219zm-8.53125 50.347656c-9.132812 1.226563-18.382812 1.226563-27.511719 0h-19.117187c-9.128906-2.03125-6.117187-18.859374-6.117187-25.601562 0-4.476562 0-8.957031 0-13.429688 0-4.472656-.640626-4.683593 2.476562-6.144531 5.972656-2.832031 20.300781 0 26.902344 0 6.042968 0 17.597656-2.269531 22.949218.855469 6.355469 3.734375 3.582032 20.058594 3.582032 26.042969v12.714843c-.042969 6.382813.792968 4.222657-3.207032 5.554688zm0 0"/><path d="m111.484375 302.578125c-6.972656-1.605469-14.179687-1.914063-21.265625-.90625-12.542969 0-38.910156-4.878906-49.492188 4.839844-6.40625 5.90625-3.957031 18.371093-3.957031 26.214843 0 9.726563-2.613281 22.09375 9.222657 24.804688l.164062.050781c.09375 0 .144531.070313.230469.085938.082031.019531.21875 0 .304687 0 .25.0625.503906.09375.761719.101562 16.628906 0 33.484375.855469 50.082031 0 6.890625.527344 13.628906-2.222656 18.183594-7.421875 3.960938-6.425781 1.707031-17.828125 1.707031-24.960937-.007812-7.398438 2.386719-19.003907-5.941406-22.808594zm-7.40625 50.296875c-6.46875 2.738281-19.890625 0-26.90625 0h-20.820313c-10.667968-2.476562-7.203124-19.628906-7.203124-27.488281.28125-4.4375.28125-8.890625 0-13.328125.238281-1.855469.125-3.742188-.332032-5.554688.433594.085938.875.109375 1.316406.066406 6.425782-2.695312 19.914063 0 26.902344 0 7.195313 0 18.527344-2.304687 24.40625 2.210938 6.460938 4.964844 3.617188 19.140625 3.617188 26.605469-.25 3.996093-.25 8.003906 0 12 .675781 5.230469 2.023437 4.207031-.980469 5.488281zm0 0"/><path d="m148.785156 358.035156c.300782.148438.625.253906.957032.308594.117187 0 .195312.074219.324218.101562.175782.011719.355469.011719.535156 0 .285157.050782.566407.082032.855469.09375 16.605469 0 33.519531 1.023438 50.089844 0 21.878906-1.347656 18.304687-19.125 18.304687-35.773437 0-7.761719 1.859376-17.320313-6.980468-20.949219-7.148438-1.550781-14.507813-1.859375-21.761719-.910156-12.03125 0-39.652344-5.121094-48.914063 5.75-5.679687 6.671875-2.96875 20.820312-2.96875 28.730469-.03125 9.890625-1.457031 19.644531 9.558594 22.648437zm5.300782-50.695312c6.03125-2.816406 20.273437 0 26.902343 0 5.976563 0 17.582031-2.277344 22.929688.808594 6.316406 3.644531 3.550781 19.996093 3.550781 25.910156 0 4.265625.128906 8.488281 0 12.714844-.1875 6.203124.777344 4-3.21875 5.332031-9.128906 1.214843-18.378906 1.214843-27.511719 0h-19.191406c-8.976563-2.117188-5.972656-18.664063-5.972656-25.386719 0-4.480469 0-8.960938 0-13.433594 0-4.46875-.578125-4.503906 2.5-5.945312zm0 0"/><path d="m315.089844 301.296875c-7.132813-1.738281-14.53125-2.121094-21.808594-1.132813-12.050781 0-39.945312-5.191406-48.835938 6.066407-5.777343 7.3125-2.894531 22.125-2.894531 30.71875 0 9.386719-.792969 18.695312 9.625 21.648437.851563.519532 1.847657.761719 2.84375.691406 16.628907 0 33.484375.855469 50.089844 0 22.433594-1.175781 18.148437-21.289062 18.148437-37.988281 0-7.636719 1.238282-16.230469-7.167968-20.003906zm-5.273438 45.851563c-.851562 5.179687.15625 3.410156-4.070312 4.214843-15.359375 1.410157-30.8125 1.410157-46.171875 0-9.082031-2.5625-5.582031-22.496093-5.582031-28.886719-.261719-3.40625-.261719-6.832031 0-10.238281.855468-5.300781-.332032-3.414062 4.070312-4.207031 8.921875-.785156 17.890625-.785156 26.8125 0 6.75 0 17.875-2.441406 22.554688 2.738281 5.117187 5.648438 2.386718 18.773438 2.386718 26.121094.265625 3.414063.265625 6.84375 0 10.257813zm0 0"/><path d="m110.308594 386.683594c-7.136719-1.726563-14.535156-2.105469-21.8125-1.121094-12.046875 0-39.925782-5.1875-48.84375 6.035156-5.785156 7.289063-2.894532 22.136719-2.894532 30.71875 0 9.386719-.851562 18.644532 9.617188 21.589844.851562.507812 1.839844.738281 2.824219.667969 16.632812 0 33.496093.851562 50.09375 0 22.433593-1.1875 18.15625-21.222657 18.15625-37.941407 0-7.636718 1.246093-16.222656-7.140625-19.949218zm-5.28125 45.824218c-.855469 5.210938.179687 3.410157-4.0625 4.265626-15.351563 1.417968-30.796875 1.417968-46.148438 0-9.140625-2.507813-5.632812-22.570313-5.632812-28.960938-.253906-3.410156-.253906-6.832031 0-10.242188.855468-5.339843-.367188-3.414062 4.0625-4.265624 8.917968-.785157 17.890625-.785157 26.8125 0 6.824218 0 17.917968-2.433594 22.570312 2.789062 5.121094 5.699219 2.398438 18.773438 2.398438 26.15625.253906 3.414062.253906 6.84375 0 10.257812zm0 0"/><path d="m212.828125 387.132812c-7.144531-1.558593-14.507813-1.871093-21.761719-.921874-12.03125 0-39.660156-5.117188-48.910156 5.761718-5.675781 6.683594-2.960938 20.828125-2.960938 28.75 0 9.878906-1.417968 19.625 9.582032 22.664063.304687.15625.632812.261719.972656.316406.117188 0 .195312.074219.316406.101563.117188.023437.339844 0 .503906 0 .28125.050781.566407.085937.851563.101562 16.605469 0 33.519531 1.023438 50.089844 0 21.878906-1.339844 18.296875-19.15625 18.296875-35.796875.007812-7.78125 1.859375-17.332031-6.980469-20.976563zm-5.367187 32.257813c0 4.265625.128906 8.492187 0 12.714844-.195313 6.1875.765624 3.984375-3.226563 5.308593-9.128906 1.214844-18.382813 1.214844-27.511719 0h-19.191406c-8.960938-2.132812-5.972656-18.636718-5.972656-25.363281 0-4.480469 0-8.960937 0-13.429687 0-4.472656-.539063-4.488282 2.558594-5.921875 6.042968-2.808594 20.269531 0 26.90625 0 5.972656 0 17.570312-2.28125 22.921874.800781 6.28125 3.636719 3.515626 19.984375 3.515626 25.890625zm0 0"/><path d="m315.183594 386.964844c-7.144532-1.625-14.519532-1.964844-21.785156-1-12.003907 0-39.765626-5.121094-48.878907 5.871094-5.613281 6.765624-2.925781 20.890624-2.925781 28.886718 0 9.878906-1.449219 19.789063 9.566406 22.84375.375.203125.785156.332032 1.210938.382813l.144531.050781c.078125.003906.152344.003906.230469 0 .378906.082031.765625.128906 1.152344.144531 16.613281 0 33.503906.972657 50.082031 0 21.929687-1.277343 18.234375-19.488281 18.234375-36.042969 0-7.835937 1.785156-17.390624-7.03125-21.136718zm-5.324219 45.753906c-.851563 5.121094.410156 3.636719-3.984375 4.445312-15.3125 1.378907-30.714844 1.378907-46.027344 0-9.269531-2.285156-5.898437-21.835937-5.898437-27.792968-.308594-3.992188-.308594-8.003906 0-11.996094.855469-5.300781-.589844-3.601562 3.984375-4.445312 8.925781-.765626 17.898437-.765626 26.820312 0 7.253906 0 18.050782-2.5625 22.632813 3.351562 4.8125 6.1875 2.472656 16.871094 2.472656 24.421875.304687 4 .304687 8.015625 0 12.015625zm0 0"/><path d="m418.277344 216.945312c-6.503906-1.453124-13.210938-1.742187-19.816406-.851562-10.757813 0-21.519532-.085938-32.28125 0-6.675782-.789062-13.394532 1.074219-18.714844 5.1875-5.910156 6.058594-3.472656 18.523438-3.472656 26.109375 0 9.847656-2.730469 22.617187 9.667968 25.117187.210938.011719.421875.011719.632813 0 .589843.121094 1.191406.183594 1.792969.175782 16.460937 0 33.277343 1.042968 49.664062 0 6.527344-.40625 15.1875-2.105469 18.132812-8.933594 1.714844-8.234375 1.960938-16.707031.734376-25.027344 0-7.457031 2.105468-18.097656-6.339844-21.777344zm-5.972656 33.109376c0 3.984374.152343 8.011718 0 12-.214844 5.3125.59375 3.890624-2.390626 5.238281-6.222656 2.816406-20.078124 0-26.90625 0h-19.625c-10.394531-2.621094-6.992187-19.429688-6.992187-27.238281 0-4.445313-.058594-8.890626 0-13.328126.085937-5.582031-.699219-3.851562 2.390625-5.242187 6.152344-2.78125 20.128906 0 26.90625 0 6.773438 0 18.527344-2.386719 23.695312 2.082031 5.640626 4.949219 2.878907 19.722656 2.878907 26.488282zm0 0"/><path d="m412.003906 299.472656c-17.453125-3.164062-35.335937-3.179687-52.796875-.050781-15.980469 3.207031-15.308593 14.042969-15.308593 27.5v79.363281c0 14.761719-4.625 32.082032 11.273437 38.671875.816406.304688 1.691406.417969 2.558594.332031.171875 0 .285156.066407.460937.066407 16.214844 0 37.265625 3.910156 52.910156-.28125 17.335938-4.648438 13.652344-20.972657 13.652344-35.179688v-75.847656c-.042968-13.984375 3.925782-29.984375-12.75-34.574219zm-6.921875 136.480469c-11.46875 4.078125-30.242187.519531-43.390625.085937-10.238281-5.265624-5.246094-31.121093-5.246094-40.242187v-57.300781c0-11.820313-3.976562-25.730469 7.082032-29.671875 7.277344-2.558594 42.128906-2.945313 46.933594 2.285156 5.972656 6.476563 1.707031 29.75 1.707031 37.871094v59.53125c0 11.707031 3.777343 23.609375-7.085938 27.441406zm0 0"/><path d="m398.8125 42.542969h17.066406c3.058594.132812 6.03125-1.007813 8.21875-3.152344 1.484375-2.320313-1.273437-2.753906-3.117187-2.753906h-17.066407c-3.058593-.136719-6.03125 1.003906-8.21875 3.148437-1.476562 2.363282 1.28125 2.757813 3.117188 2.757813zm0 0"/><path d="m364.832031 43.085938c4.652344 0 13.125-7.003907 4.8125-7.003907h-273.066406c-4.652344 0-13.125 7.003907-4.8125 7.003907zm0 0"/><path d="m40.691406 43.574219h17.070313c3.140625.3125 6.214843-1.042969 8.105469-3.574219 1.28125-2.5625-1.09375-4.40625-3.550782-4.40625h-17.066406c-3.144531-.308594-6.21875 1.050781-8.105469 3.585938-1.28125 2.527343 1.089844 4.394531 3.546875 4.394531zm0 0"/></g></svg>