<svg height="505pt" viewBox="0 -2 505.59806 505" width="505pt" xmlns="http://www.w3.org/2000/svg"><path d="m123.578125 502.203125c-1.796875-.003906-3.394531-1.128906-4.003906-2.816406s-.097657-3.578125 1.28125-4.726563l10.71875-8.910156-19.074219 10.984375c-1.910156 1.105469-4.351562.570313-5.625-1.234375s-.957031-4.28125.726562-5.710938l13.40625-11.394531-16.339843 9.464844c-1.847657 1.066406-4.195313.605469-5.5-1.078125-1.308594-1.679688-1.175781-4.070312.3125-5.59375l19.042969-19.441406-15.792969 9.125c-1.828125 1.058594-4.152344.625-5.472657-1.023438-1.320312-1.648437-1.234374-4.015625.199219-5.566406l21.496094-23.320312c-.980469-2.015626-.234375-4.445313 1.707031-5.5625l7.867188-4.542969c1.824218-1.058594 4.152344-.625 5.472656 1.023437 1.320312 1.648438 1.234375 4.015625-.199219 5.566406l-11.09375 12.046876 18.5-10.671876c1.84375-1.054687 4.179688-.589843 5.484375 1.089844 1.300782 1.675782 1.171875 4.054688-.304687 5.582032l-19.046875 19.464843 30.226562-17.441406c1.910156-1.089844 4.335938-.550781 5.601563 1.25 1.265625 1.796875.957031 4.261719-.714844 5.695313l-13.386719 11.382812 21.605469-12.476562c1.917969-1.082032 4.34375-.53125 5.601563 1.277343 1.257812 1.804688.9375 4.273438-.746094 5.695313l-21.332032 17.707031c.566407.363281 1.035157.863281 1.363282 1.449219 1.179687 2.039062.484375 4.648437-1.550782 5.828125l-28.332031 16.308593c-.636719.371094-1.359375.570313-2.097656.570313zm0 0" fill="#f2a149"/><path d="m369.191406 501.855469c-1.644531-.003907-3.140625-.949219-3.847656-2.433594s-.5-3.246094.539062-4.523437l12.175782-14.957032-22.835938 13.191406c-1.882812 1.109376-4.300781.617188-5.597656-1.140624-1.300781-1.757813-1.058594-4.210938.554688-5.6875l9.703124-9.042969-13.015624 7.5c-1.851563 1.03125-4.179688.542969-5.464844-1.140625-1.285156-1.6875-1.136719-4.0625.347656-5.574219l12.621094-12.535156-16.972656 9.796875c-1.511719.867187-3.398438.730468-4.765626-.347656-1.371093-1.078126-1.945312-2.878907-1.457031-4.550782l2.210938-7.492187-5.316407 3.0625c-2.027343 1.058593-4.527343.332031-5.671874-1.644531-1.144532-1.980469-.523438-4.511719 1.40625-5.738282l14.566406-8.40625c1.507812-.871094 3.398437-.738281 4.773437.339844 1.371094 1.082031 1.945313 2.886719 1.453125 4.558594l-2.21875 7.492187 36.175782-20.878906c1.851562-1.03125 4.179687-.542969 5.464843 1.140625 1.285157 1.6875 1.136719 4.0625-.347656 5.574219l-12.636719 12.554687 16.972656-9.796875c1.882813-1.109375 4.300782-.617187 5.597657 1.140625 1.300781 1.757813 1.058593 4.210938-.554688 5.683594l-9.667969 9.03125 10.53125-6.078125c1.78125-1.023437 4.039063-.632813 5.375.929687 1.332032 1.5625 1.363282 3.855469.066407 5.453126l-12.175781 14.960937 6.527343-3.765625c2.027344-1.058594 4.527344-.332031 5.671875 1.648438 1.144532 1.976562.527344 4.507812-1.402344 5.734374l-26.617187 15.359376c-.65625.386718-1.40625.589843-2.167969.582031zm0 0" fill="#f2a149"/><path d="m81.074219 119.457031c-1.738281 0-3.304688-1.050781-3.957031-2.664062-.652344-1.609375-.261719-3.457031.984374-4.664063l11.734376-11.339844-15.699219 9.078126c-1.882813 1.046874-4.246094.53125-5.519531-1.203126-1.273438-1.734374-1.054688-4.144531.507812-5.625l8.585938-7.832031-11.613282 6.699219c-1.875 1.167969-4.332031.710938-5.664062-1.050781-1.328125-1.765625-1.09375-4.25.542968-5.734375l11.023438-10.453125-14.710938 8.480469c-1.804687 1.039062-4.09375.621093-5.417968-.984376-1.324219-1.605468-1.296875-3.933593.070312-5.507812l25.597656-29.363281c-1.09375-2.027344-.378906-4.558594 1.613282-5.71875l7.40625-4.265625c1.804687-1.039063 4.097656-.621094 5.421875.984375 1.324219 1.609375 1.292969 3.9375-.070313 5.511719l-16.71875 19.164062 23.546875-13.59375c1.882813-1.414062 4.558594-1.03125 5.972657.855469 1.414062 1.882812 1.03125 4.558593-.855469 5.972656l-11.007813 10.390625 14.710938-8.488281c1.878906-1.035157 4.234375-.511719 5.5 1.214843 1.265625 1.730469 1.054687 4.132813-.5 5.609376l-8.589844 7.84375 11.628906-6.707032c1.867188-1.105468 4.265625-.636718 5.578125 1.09375 1.308594 1.730469 1.113281 4.167969-.457031 5.664063l-11.714844 11.308593 10.597656-6.109374c2.039063-1.160157 4.628907-.457032 5.800782 1.574218 1.175781 2.03125.488281 4.628906-1.535156 5.8125l-40.660157 23.476563c-.648437.375-1.386719.570312-2.132812.570312zm0 0" fill="#e4e8eb"/><path d="m260.398438 476.253906c-1.886719.003906-3.558594-1.234375-4.097657-3.046875-.539062-1.8125.175781-3.761719 1.761719-4.796875l51.789062-33.746094-70.476562 40.683594c-2.011719 1.148438-4.566406.488282-5.765625-1.492187s-.601563-4.550781 1.34375-5.800781l38.351563-24.320313-51.398438 29.667969c-2.003906 1.105468-4.523438.429687-5.707031-1.527344-1.183594-1.960938-.613281-4.503906 1.296875-5.765625l56.0625-35.40625-68.523438 39.519531c-2 1.097656-4.511718.429688-5.699218-1.519531s-.632813-4.488281 1.261718-5.761719l106.667969-68.480468-121.234375 69.972656c-2.015625 1.21875-4.640625.574218-5.855469-1.445313-1.21875-2.015625-.570312-4.640625 1.445313-5.855469l88.363281-55.554687-98.917969 57.132813c-2.015625 1.222656-4.640625.578124-5.863281-1.433594-1.222656-2.015625-.582031-4.640625 1.433594-5.863282l131.0625-83.464843-143.625 82.917969c-2.019531 1.210937-4.640625.554687-5.851563-1.46875-1.210937-2.019532-.554687-4.640626 1.464844-5.851563l79.308594-49.117187-85.953125 49.621093c-2.015625 1.160157-4.589844.492188-5.789063-1.5-1.199218-1.992187-.578125-4.582031 1.394532-5.816406l104.695312-65.160156-112.378906 64.855469c-2.015625 1.136718-4.566406.457031-5.753906-1.527344-1.1875-1.988282-.574219-4.558594 1.378906-5.792969l87.132812-53.761719-92.160156 53.214844c-2.027344 1.203125-4.644531.535156-5.847656-1.492188-1.207032-2.023437-.539063-4.644531 1.488281-5.847656l50.226563-30.71875-54.007813 31.179688c-2.015625 1.21875-4.640625.570312-5.859375-1.445313-1.214844-2.019531-.570312-4.640625 1.449219-5.859375l155.648437-97.894531-162.988281 94.097656c-2.007813 1.070313-4.503906.378907-5.671875-1.574219-1.167969-1.949218-.597656-4.476562 1.292969-5.738281l113.101562-69.972656-117.144531 67.683594c-2.019531 1.097656-4.542969.402343-5.710938-1.574219-1.167968-1.976562-.566406-4.523438 1.367188-5.761719l6.476562-3.917969-7.953124 4.582032c-2.007813 1.125-4.550782.453125-5.738282-1.519532-1.191406-1.972656-.597656-4.535156 1.335938-5.785156l174.359375-110.019531-179.546875 103.695313c-2.015625 1.078124-4.515625.378906-5.679688-1.582032-1.167968-1.964844-.582031-4.496094 1.324219-5.746094l47.335937-28.808593-48.214843 27.835937c-2.023438 1.207032-4.644531.546875-5.851563-1.476562-1.210937-2.023438-.546875-4.644532 1.476563-5.855469l112.484375-69.375-114.660156 66.148437c-2.011719 1.09375-4.527344.402344-5.699219-1.5625-1.171875-1.964843-.585938-4.503906 1.328125-5.757812l108.460937-66.832031-108.921875 62.875c-2.007812 1.105469-4.535156.421875-5.714844-1.542969-1.183593-1.96875-.59375-4.519531 1.328126-5.773438l132.652343-82.378906-133.632812 77.167969c-2.007813 1.125-4.550781.453125-5.738281-1.519531-1.191407-1.972656-.597657-4.535156 1.335937-5.785156l156.28125-98.058594-156.777344 90.503906c-2.019531 1.152344-4.59375.472656-5.78125-1.53125-1.1875-2-.550781-4.585938 1.429688-5.804688l24.527343-14.890624-22.488281 12.96875c-2.007812 1.058593-4.492187.359374-5.652343-1.589844-1.164063-1.953125-.59375-4.46875 1.292968-5.730469l85.238282-52.457031-83.726563 48.335937c-2.011719 1.105469-4.539063.425781-5.71875-1.542969s-.59375-4.519531 1.332031-5.769531l120.703125-75.199219-118.195312 68.269532c-1.308594.789062-2.941407.824218-4.28125.082031-1.339844-.738281-2.183594-2.132813-2.214844-3.664063-.03125-1.527343.757813-2.957031 2.066406-3.75l121.6875-76.125-118.488281 68.402344c-2.023438 1.203125-4.644531.539063-5.847656-1.488281s-.539063-4.644531 1.488281-5.851563l28.867187-17.644531-25.289062 14.617188c-2.015625 1.160156-4.59375.496093-5.789062-1.5-1.199219-1.992188-.578126-4.578125 1.390624-5.8125l107.265626-67.269531-101.742188 58.734374c-2 1.101563-4.511719.433594-5.699219-1.515624-1.1875-1.949219-.632812-4.488282 1.261719-5.761719l135.851562-87.390625-129.128906 74.546875c-2.003906 1.074219-4.5.382812-5.667968-1.570313-1.171876-1.953125-.601563-4.480468 1.292968-5.742187l31.570313-19.558594-24.445313 14.132813c-2.015625 1.222656-4.640625.578124-5.863281-1.433594-1.222656-2.015625-.582031-4.640625 1.433594-5.863282l81.578125-51.867187-72.34375 41.773437c-2.003906 1.136719-4.550782.480469-5.753906-1.484374-1.199219-1.96875-.621094-4.535157 1.308593-5.796876l81.609375-52.785156-69.921875 40.359375c-1.996093 1.136719-4.535156.488281-5.742187-1.46875-1.203125-1.957031-.640625-4.519531 1.273437-5.792969l69.554688-45.710937-53.453125 30.882813c-1.984375 1.097656-4.484375.453124-5.6875-1.472657s-.6875-4.453125 1.171875-5.757812l49.230469-33.140625-28.117188 16.210937c-1.953125 1.121094-4.4375.53125-5.679688-1.34375-1.242187-1.875-.8125-4.394531.976563-5.753906l37.179687-27.972656c-1.03125-.320313-1.902343-1.019531-2.441406-1.953125-1.171875-2.039063-.472656-4.644532 1.5625-5.820313l48.503906-28.015625c1.953126-1.117187 4.4375-.53125 5.679688 1.347656 1.242188 1.875.8125 4.390626-.976562 5.75l-28.238282 21.25 74.410156-42.90625c2-1.25 4.632813-.640624 5.878907 1.355469 1.25 2 .644531 4.632813-1.355469 5.882813l-49.230469 33.132812 74.078125-42.761718c2-1.132813 4.539063-.484376 5.742188 1.472656 1.207031 1.957031.644531 4.519531-1.269532 5.789062l-69.519531 45.6875 88.90625-51.359375c2-1.117187 4.523438-.457031 5.71875 1.496094 1.199219 1.953125.640625 4.5-1.261719 5.773437l-81.597656 52.753907 98.519532-56.875c2.003906-1.121094 4.535156-.453125 5.726562 1.507812 1.191406 1.960938.617188 4.515625-1.300781 5.777344l-81.671875 51.925781 94.960937-54.816406c2.011719-1.089844 4.523438-.402344 5.695313 1.5625s.585937 4.507812-1.328125 5.757812l-31.496094 19.492188 39.449219-22.777344c2.007812-1.175781 4.589844-.527344 5.800781 1.460938 1.210937 1.992187.605469 4.582031-1.363281 5.828125l-135.800782 87.355469 150.09375-86.648438c2.011719-1.125 4.550782-.453125 5.738282 1.519531 1.191406 1.972657.601562 4.535157-1.335938 5.785157l-107.398437 67.355468 116.71875-67.414062c2.023437-1.152344 4.59375-.472656 5.78125 1.53125 1.1875 2 .550781 4.585937-1.429688 5.804687l-28.671875 17.527344 33.28125-19.222656c2.019532-1.21875 4.640625-.566407 5.855469 1.453125 1.21875 2.019531.566406 4.644531-1.453125 5.859375l-121.703125 76.175781 130.183594-75.179688c2.015625-1.160156 4.589843-.492187 5.789062 1.5 1.199219 1.996094.578125 4.582032-1.394531 5.816407l-120.746094 75.226562 127.265625-73.46875c2.015625-1.117187 4.554688-.429687 5.734375 1.550781 1.175782 1.980469.570313 4.539063-1.371094 5.777344l-85.335937 52.480469 90.003906-51.960937c2.027344-1.199219 4.644531-.53125 5.847657 1.5 1.203124 2.027343.53125 4.648437-1.496094 5.847656l-24.464844 14.882812 26.605469-15.359375c2.015625-1.164062 4.589843-.496093 5.789062 1.5 1.199219 1.992188.578125 4.578125-1.394531 5.8125l-156.269531 98.039063 162.492187-93.804688c2.007813-1.109375 4.535156-.425781 5.714844 1.542969 1.179688 1.964844.59375 4.515625-1.332031 5.769531l-132.496094 82.277344 136.089844-78.566406c2.011719-1.089844 4.527343-.398438 5.699219 1.566406 1.171874 1.964844.585937 4.503906-1.328126 5.753906l-108.578124 66.917969 111.382812-64.304687c2.015625-1.136719 4.570312-.457032 5.757812 1.527343s.574219 4.554688-1.378906 5.792969l-112.511718 69.402344 114.167968-65.921875c2.019532-1.152344 4.59375-.46875 5.78125 1.53125 1.1875 2.003906.550782 4.585937-1.429687 5.808593l-47.164063 28.707032 47.429688-27.382813c2.003906-1.105469 4.519531-.429687 5.707031 1.53125 1.183594 1.957031.609375 4.5-1.296875 5.765625l-174.457031 110.078125 176.914062-102.144531c2.015625-1.097656 4.539063-.398438 5.710938 1.574219 1.167969 1.976562.566406 4.523437-1.367188 5.765625l-6.101562 3.695312 4.804687-2.765625c2.003906-1.042969 4.472656-.34375 5.632813 1.597657 1.160156 1.9375.605469 4.445312-1.265625 5.714843l-113.285156 70.058594 113.261718-65.390625c1.304688-.789062 2.929688-.820312 4.265625-.085938 1.335938.738282 2.175781 2.128907 2.207031 3.652344.027344 1.527344-.757812 2.949219-2.0625 3.738282l-155.613281 97.894531 154.640625-89.277344c2.023438-1.152344 4.597656-.46875 5.785156 1.53125 1.183594 2.003906.550782 4.585937-1.433593 5.808594l-50.03125 30.574219 47.898437-27.65625c2.023438-1.207032 4.644532-.546876 5.855469 1.476562 1.207031 2.023438.546875 4.644531-1.476563 5.855469l-87.125 53.757812 84.019532-48.503906c2.007812-1.105469 4.535156-.425781 5.714844 1.542969 1.183593 1.96875.59375 4.519531-1.328126 5.773437l-104.78125 65.21875 101.390626-58.566406c2.011718-1.105469 4.539062-.421875 5.71875 1.542969 1.179687 1.96875.59375 4.519531-1.332032 5.773437l-79.28125 49.109375 74.871094-43.222656c2.003906-1.121094 4.535156-.453125 5.726562 1.507812 1.191407 1.960938.617188 4.515626-1.296874 5.78125l-131.066407 83.496094 125.3125-72.335937c2.003907-1.070313 4.492188-.386719 5.664063 1.558593 1.171875 1.941407.621094 4.464844-1.261719 5.738282l-88.207031 55.464844 81.175781-46.871094c2.015625-1.230469 4.640625-.59375 5.867187 1.417968 1.226563 2.011719.59375 4.640626-1.421874 5.867188l-106.664063 68.480469 97.988281-56.574219c2.015625-1.21875 4.640625-.574219 5.855469 1.445312 1.21875 2.015626.574219 4.640626-1.445313 5.855469l-56.105468 35.441407 45.609375-26.335938c2.011719-1.148438 4.566406-.484375 5.765625 1.496094 1.199218 1.976562.601562 4.550781-1.34375 5.800781l-38.28125 24.242187 27.308594-15.742187c1.992187-1.097656 4.5-.4375 5.691406 1.503906 1.191406 1.941407.652344 4.472657-1.230469 5.757813l-51.832031 33.75 36.523437-21.085938c1.992188-1.132812 4.523438-.488281 5.734375 1.457032 1.210938 1.949218.664063 4.503906-1.238281 5.789062l-37.171875 24.804688 16.378906-9.445313c1.980469-1.117187 4.492188-.480469 5.703125 1.449219 1.210938 1.929687.695313 4.46875-1.171875 5.769531l-21.898437 14.890625c1.527343.609375 2.566406 2.039062 2.675781 3.679688.109375 1.636718-.734375 3.191406-2.164062 4l-77.933594 45.003906c-1.976563 1.078125-4.445313.4375-5.652344-1.460938-1.203125-1.898437-.722656-4.40625 1.09375-5.730468l3.285156-2.238282-29.917968 17.273438c-1.992188 1.132812-4.523438.488281-5.734376-1.460938-1.207031-1.945312-.660156-4.503906 1.238282-5.785156l37.171875-24.859375-59.476563 34.339844c-.640625.402343-1.378906.625-2.136718.648437zm0 0" fill="#eb5463"/><path d="m247.703125 408.125c-1.855469 0-3.5-1.195312-4.066406-2.964844-.570313-1.765625.070312-3.699218 1.582031-4.777344l69.121094-49.074218-91.382813 52.71875c-1.992187 1.132812-4.527343.488281-5.734375-1.457032-1.210937-1.949218-.664062-4.503906 1.238282-5.789062l65.703124-43.875-79.707031 46.019531c-1.996093 1.113281-4.511719.460938-5.714843-1.480469-1.199219-1.945312-.65625-4.488281 1.234374-5.773437l76.355469-50.441406-87.261719 50.347656c-1.996093 1.097656-4.5.4375-5.695312-1.503906-1.191406-1.941407-.648438-4.476563 1.230469-5.757813l79.804687-52.121094-88.992187 51.414063c-1.304688.789063-2.929688.824219-4.265625.09375-1.339844-.734375-2.183594-2.125-2.214844-3.648437-.035156-1.527344.746094-2.953126 2.050781-3.742188l55.046875-34.988281-60.808594 35.089843c-1.992187 1.070313-4.472656.398438-5.652343-1.527343-1.183594-1.929688-.65625-4.441407 1.199219-5.734375l92.765624-60.246094-99.4375 57.394531c-2 1.160157-4.554687.519531-5.769531-1.445312-1.214843-1.960938-.648437-4.535157 1.28125-5.808594l116.292969-76.730469-123.617188 71.363282c-1.992187 1.117187-4.511718.464843-5.710937-1.480469-1.199219-1.941407-.65625-4.488281 1.230469-5.769531l118.488281-77.988282-123.792969 71.449219c-1.996094 1.097656-4.503906.4375-5.695312-1.503906-1.191406-1.9375-.648438-4.472657 1.230468-5.757813l113.203126-73.976562-116.28125 67.089844c-2.019532 1.222656-4.644532.574218-5.863282-1.441407-1.222656-2.015625-.574218-4.640625 1.441406-5.863281l64.871094-41.011719-65.441406 37.777344c-2.003906 1.121094-4.535156.453125-5.730469-1.507813-1.191406-1.960937-.617187-4.515624 1.300781-5.777343l69.324219-44.050781-68.453125 39.527343c-1.304687.789063-2.933594.820313-4.265625.085938-1.335937-.738281-2.175781-2.128907-2.207031-3.652344-.03125-1.527344.753906-2.949219 2.058594-3.738281l52.078125-32.90625-50.703125 29.261718c-1.992188 1.070313-4.472656.398438-5.65625-1.527343-1.179688-1.925781-.652344-4.441407 1.203125-5.734375l91.375-59.46875-88.902344 51.320312c-2.015625 1.21875-4.640625.574219-5.863281-1.441406-1.21875-2.019531-.574219-4.644531 1.445312-5.863281l40.480469-25.601563-37.09375 21.421875c-2 1.132813-4.539063.484375-5.742187-1.472656-1.207032-1.957031-.644532-4.519531 1.269531-5.789063l76.3125-49.980468-70.824219 40.875c-1.992188 1.179687-4.5625.554687-5.789062-1.40625-1.230469-1.960938-.671876-4.542969 1.257812-5.824219l86.910156-59.03125-78.90625 45.558594c-1.984375 1.117187-4.496094.476562-5.707031-1.449219-1.207031-1.929688-.691406-4.46875 1.175781-5.769531l63.367188-43.078125-52.496094 30.304687c-1.964844 1.113281-4.457031.507813-5.6875-1.386719-1.230469-1.890624-.773438-4.417968 1.046875-5.757812l56.445313-40.917969-37.289063 21.523438c-1.933594 1.085937-4.378906.511719-5.625-1.328125-1.242187-1.835938-.871094-4.320313.855469-5.714844l29.011718-22.875c-1.175781-.25-2.1875-.988281-2.78125-2.03125-1.179687-2.042969-.480468-4.652344 1.5625-5.828125l42.042969-24.234375c1.933594-1.109375 4.398438-.542969 5.652344 1.304688 1.25 1.84375.871094 4.34375-.875 5.734374l-22.953125 18.109376 57.351562-33.121094c1.96875-1.160156 4.503907-.5625 5.746094 1.351562 1.246094 1.917969.757813 4.476563-1.101562 5.800782l-56.441406 40.910156 81.921874-47.285156c1.976563-1.074219 4.449219-.425782 5.648438 1.480468 1.195312 1.90625.707031 4.414063-1.117188 5.730469l-63.386718 43.128906 79.4375-45.859375c1.988281-1.179687 4.558594-.558594 5.789062 1.40625 1.230469 1.960938.671875 4.542969-1.257812 5.820313l-86.949219 59.050781 102.171875-58.980469c1.988281-1.058593 4.457031-.386719 5.636719 1.53125 1.179687 1.917969.664062 4.421875-1.175781 5.722657l-76.234376 49.882812 86.40625-49.882812c2.019532-1.21875 4.640626-.570313 5.859376 1.445312s.570312 4.640625-1.445313 5.859375l-40.578125 25.683594 45.578125-26.316407c1.996094-1.097656 4.5-.4375 5.691406 1.503907 1.195313 1.941406.652344 4.472656-1.230469 5.757812l-91.355468 59.425781 99.128906-57.25c2.007812-1.101562 4.523438-.425781 5.707031 1.53125 1.1875 1.957032.613281 4.5-1.292969 5.765626l-52.054687 32.871093 55.664063-32.148437c1.304687-.789063 2.929687-.824219 4.265624-.09375 1.335938.734375 2.179688 2.125 2.214844 3.648437.035156 1.527344-.75 2.953125-2.050781 3.742188l-69.324219 44.042969 73.25-42.285157c2.003906-1.101562 4.523438-.425781 5.707032 1.53125 1.183593 1.957031.609374 4.503907-1.296876 5.765625l-64.914062 41.078125 67.261719-38.824219c1.992187-1.097656 4.5-.4375 5.691406 1.503907 1.195313 1.9375.652344 4.472656-1.230469 5.757812l-113.160156 74.027344 117.136719-67.621094c1.996093-1.113281 4.511719-.460937 5.714843 1.484375 1.199219 1.941406.65625 4.488282-1.234374 5.769532l-118.40625 77.9375 121.171874-69.976563c1.988282-1.070313 4.464844-.40625 5.652344 1.515625 1.1875 1.917969.671875 4.429688-1.171875 5.730469l-116.335937 76.800781 116.804687-67.414062c2-1.117188 4.523438-.457032 5.71875 1.496093 1.195313 1.953125.636719 4.5-1.265625 5.773438l-92.789062 60.222656 91.5-52.804687c2.003906-1.121094 4.539062-.453126 5.730468 1.507812 1.191407 1.960938.617188 4.515625-1.300781 5.777344l-54.996093 34.988281 51.695312-29.867187c1.992188-1.097657 4.5-.4375 5.691406 1.503906 1.195313 1.941406.652344 4.472656-1.230468 5.757812l-79.828126 52.148438 75.476563-43.605469c1.996094-1.117187 4.511719-.464844 5.714844 1.480469 1.199219 1.945312.65625 4.488281-1.234375 5.773437l-76.347656 50.4375 70.332031-40.609375c1.992187-1.132812 4.523437-.488281 5.734375 1.460938 1.210937 1.945312.664062 4.5-1.238282 5.785156l-65.707031 43.878906 56.441407-32.589844c1.96875-1.097656 4.449218-.472656 5.667968 1.421876 1.214844 1.898437.746094 4.414062-1.070312 5.746093l-69.078125 49.101563 54.1875-31.257813c1.972656-1.109375 4.464843-.484375 5.683593 1.421875 1.21875 1.902344.742188 4.429688-1.089843 5.753906l-30.203125 21.332032 11.273437-6.5c2.027344-1.0625 4.527344-.335938 5.671875 1.644531 1.144532 1.980469.527344 4.507813-1.402344 5.734375l-92.144531 53.179688c-1.972656 1.109374-4.464843.484374-5.683593-1.417969-1.21875-1.90625-.738282-4.429688 1.09375-5.757813l30.191406-21.332031-51.859375 29.941406c-.636719.367188-1.355469.566407-2.089844.574219zm0 0" fill="#f4f6f8"/><path d="m203.328125 348.972656c-1.726563-.003906-3.28125-1.050781-3.9375-2.648437-.65625-1.597657-.28125-3.433594.945313-4.648438l5.65625-5.605469-12.996094 7.5c-1.9375 1.132813-4.421875.570313-5.683594-1.285156-1.257812-1.855468-.867188-4.371094.894531-5.753906l12.683594-10.089844-12.511719 7.210938c-1.867187 1.050781-4.226562.554687-5.507812-1.160156-1.285156-1.71875-1.097656-4.117188.4375-5.613282l23.042968-21.898437-4.753906 2.742187c-1.789062 1.03125-4.0625.632813-5.394531-.945312s-1.34375-3.882813-.023437-5.472656l18.363281-22.078126c-.640625-1.921874.15625-4.027343 1.910156-5.042968l5.019531-2.890625c1.789063-1.042969 4.070313-.648438 5.40625.9375 1.335938 1.582031 1.339844 3.898437.011719 5.488281l-8.882813 10.691406 15.121094-8.730468c1.882813-1.164063 4.347656-.695313 5.667969 1.085937 1.324219 1.777344 1.0625 4.273437-.601563 5.742187l-22.988281 21.878907 31.035157-17.921875c1.933593-1.101563 4.390624-.53125 5.640624 1.308594 1.253907 1.835937.882813 4.332031-.851562 5.722656l-17.835938 14.160156c1.582032.265625 2.878907 1.394531 3.359376 2.921875.484374 1.527344.070312 3.195313-1.070313 4.320313l-15.089844 14.925781c.207031.222656.386719.46875.539063.734375 1.179687 2.039062.480468 4.648437-1.5625 5.828125l-13.882813 8.011719c-.652343.382812-1.402343.582031-2.160156.574218zm0 0" fill="#cad0d7"/><path d="m411.140625 120.882812c-1.703125.003907-3.246094-1.007812-3.925781-2.570312-.675782-1.566406-.355469-3.382812.8125-4.621094l16.433594-17.460937-21.921876 12.65625c-1.878906 1.046875-4.242187.53125-5.515624-1.203125-1.273438-1.734375-1.054688-4.144532.507812-5.625l9.746094-8.910156-13.910156 8.023437c-1.894532 1.0625-4.285157.535156-5.554688-1.230469s-1.007812-4.199218.605469-5.65625l7.875-6.929687-11.640625 6.707031c-1.835938 1.050781-4.164063.59375-5.46875-1.070312-1.308594-1.664063-1.199219-4.03125.257812-5.566407l29.285156-30.679687c-.71875-1.945313.066407-4.128906 1.859376-5.171875l7.398437-4.265625c1.839844-1.0625 4.175781-.613282 5.488281 1.058594 1.3125 1.667968 1.199219 4.046874-.265625 5.582031l-17.066406 17.824219 23.117187-13.3125c1.898438-1.082032 4.308594-.558594 5.582032 1.21875 1.273437 1.773437 1 4.226562-.632813 5.675781l-7.875 6.929687 10.664063-6.152344c1.882812-1.046874 4.246094-.53125 5.519531 1.203126 1.273437 1.734374 1.054687 4.144531-.507813 5.625l-9.738281 8.890624 13.03125-7.515624c1.832031-1.050782 4.152344-.601563 5.464844 1.050781 1.308594 1.65625 1.214844 4.019531-.226563 5.5625l-16.433593 17.464843 3.414062-1.945312c2.023438-1.058594 4.527344-.332031 5.671875 1.644531 1.144532 1.980469.523438 4.511719-1.40625 5.738281l-28.535156 16.460938c-.640625.371094-1.367188.566406-2.109375.570312zm0 0" fill="#e4e8eb"/><path d="m468.316406 102.785156c-1.714844 0-3.261718-1.027344-3.929687-2.605468-.667969-1.578126-.328125-3.402344.863281-4.632813l9.789062-10.121094-13.585937 7.84375c-1.894531 1.082031-4.300781.558594-5.574219-1.214843-1.273437-1.769532-1.007812-4.214844.617188-5.671876l8.242187-7.3125-11.09375 6.410157c-1.925781 1.074219-4.359375.5-5.601562-1.324219-1.246094-1.824219-.890625-4.296875.816406-5.699219l1.074219-.855469-2.671875 1.527344c-1.910157 1.074219-4.324219.527344-5.585938-1.269531-1.257812-1.796875-.949219-4.253906.714844-5.683594l10.164063-8.535156-13.191407 7.613281c-1.929687 1.089844-4.371093.523438-5.621093-1.304687-1.253907-1.824219-.898438-4.304688.816406-5.710938l6.738281-5.433593-9.144531 5.289062c-1.9375 1.132812-4.421875.570312-5.683594-1.285156-1.261719-1.855469-.871094-4.371094.894531-5.753906l4.574219-3.628907-6.648438 3.839844c-1.855468 1.058594-4.210937.578125-5.507812-1.125-1.292969-1.699219-1.128906-4.097656.390625-5.605469l20.300781-20.003906-26.609375 15.359375c-1.925781 1.105469-4.378906.546875-5.636719-1.28125-1.257812-1.828125-.902343-4.316406.816407-5.722656l3.089843-2.507813-4.949218 2.859375c-1.8125 1.046875-4.117188.625-5.441406-.992187-1.324219-1.621094-1.28125-3.960938.105468-5.527344l9.507813-10.789062-1.84375 1.058593c-2.027344 1.0625-4.527344.335938-5.671875-1.644531-1.144532-1.980469-.523438-4.507812 1.40625-5.734375l24.386718-14.082031c1.808594-1.035156 4.101563-.613282 5.421876 1 1.324218 1.609375 1.285156 3.941406-.089844 5.511718l-9.511719 10.828126 29.011719-16.714844c1.921875-1.082032 4.351562-.519532 5.601562 1.296875 1.253906 1.816406.914063 4.285156-.78125 5.699219l-3.105468 2.558593 8.960937-5.117187c1.859375-1.058594 4.210937-.578125 5.507813 1.125 1.292968 1.699218 1.128906 4.097656-.386719 5.605468l-20.320313 19.875 28.160156-16.214843c1.933594-1.082031 4.371094-.503907 5.617188 1.324219 1.242188 1.832031.878906 4.3125-.835938 5.707031l-4.574218 3.628906 6.417968-3.695313c1.925782-1.089843 4.367188-.523437 5.617188 1.300782 1.253906 1.828125.898438 4.308594-.816406 5.714844l-6.75 5.441406 7.945312-4.589844c1.917969-1.097656 4.351563-.554688 5.617188 1.253906s.945312 4.285156-.742188 5.710938l-10.183594 8.53125 9.730469-5.605469c1.929688-1.078125 4.359375-.503906 5.605469 1.320313 1.242188 1.828124.886719 4.300781-.820312 5.703124l-1.800782 1.433594c1.714844-.457031 3.53125.191406 4.566406 1.628906 1.277344 1.777344 1.003907 4.230469-.632812 5.683594l-8.25 7.3125 3.414062-1.945312c1.839844-1.050782 4.171876-.589844 5.476563 1.082031 1.304687 1.667969 1.183594 4.042969-.28125 5.574219l-9.863281 10.238281c2.066406-.851563 4.4375.03125 5.441406 2.027344 1.003906 1.996093.296875 4.429687-1.617188 5.578125l-25.960937 14.863281c-.636719.378906-1.363281.578125-2.105469.582031zm0 0" fill="#fab153"/><path d="m22.953125 102.492188c-1.816406.003906-3.433594-1.140626-4.03125-2.855469-.597656-1.710938-.050781-3.613281 1.367187-4.746094l28.261719-22.5625-32.425781 18.773437c-1.929688 1.160157-4.429688.617188-5.707031-1.238281-1.277344-1.855469-.894531-4.382812.878906-5.777343l42.296875-34.300782-44.371094 25.597656c-1.964844 1.304688-4.617187.765626-5.917968-1.199218-1.304688-1.964844-.765626-4.613282 1.199218-5.917969l19.011719-13.960937-15.597656 9.03125c-1.957031 1.257812-4.5625.71875-5.859375-1.214844-1.292969-1.933594-.796875-4.550782 1.113281-5.878906l15.835937-11.996094-8.53125 4.941406c-1.882812 1.144531-4.332031.664062-5.644531-1.105469-1.3125-1.773437-1.058593-4.253906.582031-5.722656l20.167969-18.910156c-1.652343-.46875-2.859375-1.878907-3.070312-3.578125-.207031-1.703125.621093-3.363282 2.105469-4.21875l24.457031-14.125c1.882812-1.144532 4.328125-.667969 5.644531 1.105468 1.3125 1.769532 1.058594 4.25-.585938 5.722657l-16.035156 15.035156 36.421875-21.027344c1.949219-1.109375 4.421875-.519531 5.664063 1.347657 1.242187 1.867187.824218 4.378906-.953125 5.746093l-15.847657 11.96875 23.21875-13.394531c1.960938-1.132812 4.46875-.535156 5.707032 1.359375 1.238281 1.898437.777344 4.433594-1.046875 5.773437l-19.003907 13.945313 23.730469-13.65625c1.929688-1.125 4.398438-.574219 5.664063 1.261719 1.269531 1.839844.902344 4.34375-.832032 5.746094l-42.292968 34.261718 34.988281-20.214844c1.929687-1.097656 4.375-.53125 5.628906 1.300782 1.25 1.835937.886719 4.320312-.835937 5.71875l-38.253906 30.550781c.753906.375 1.378906.96875 1.792968 1.707031 1.171875 2.035156.476563 4.636719-1.554687 5.820313l-35.207031 20.308593c-.648438.378907-1.382813.578126-2.132813.578126zm0 0" fill="#fab153"/><path d="m243.027344 296.082031c-1.800782.003907-3.410156-1.125-4.023438-2.816406-.609375-1.691406-.09375-3.585937 1.292969-4.734375l4.265625-3.542969-9.625 5.554688c-1.925781 1.105469-4.378906.546875-5.636719-1.28125-1.261719-1.832031-.90625-4.320313.816407-5.722657l9.121093-7.425781-11.785156 6.828125c-1.910156 1.074219-4.328125.523438-5.585937-1.273437-1.257813-1.796875-.949219-4.253907.714843-5.683594l14.027344-11.792969-14.070313 8.117188c-1.898437 1.097656-4.316406.578125-5.597656-1.199219s-1.007812-4.234375.628906-5.6875l13.65625-12.085937-9.386718 5.402343c-1.835938 1.050781-4.160156.597657-5.46875-1.058593s-1.207032-4.023438.234375-5.5625l9.515625-10.042969c-1.207032-.234375-2.25-.980469-2.859375-2.046875-1.175781-2.042969-.476563-4.652344 1.5625-5.828125l19.875-11.480469c1.835937-1.058594 4.171875-.613281 5.484375 1.050781 1.3125 1.667969 1.207031 4.042969-.253906 5.582031l-6.953126 7.335938 20.386719-11.765625c1.894531-1.097656 4.3125-.578125 5.59375 1.199219 1.285157 1.773437 1.011719 4.234375-.628906 5.6875l-13.609375 12.082031 19.890625-11.484375c1.914063-1.097656 4.351563-.554688 5.617187 1.253906 1.265626 1.808594.941407 4.285156-.746093 5.707032l-14.003907 11.753906 15.777344-9.117188c1.929688-1.101562 4.378906-.546875 5.640625 1.285156 1.257813 1.828126.902344 4.316407-.816406 5.722657l-9.148437 7.441406 7.058593-4.070313c1.914063-1.101562 4.359375-.558593 5.625 1.257813 1.265625 1.8125.933594 4.292969-.761719 5.714844l-4.695312 3.890625c2.078125-.652344 4.3125.359375 5.1875 2.351562.875 1.992188.113281 4.324219-1.773438 5.414063l-42.425781 24.496093c-.644531.375-1.375.574219-2.117187.574219zm0 0" fill="#a9b0bb"/><g fill="#262626"><path d="m254.085938 109.628906c-78.722657.222656-144.476563 60.035156-152.132813 138.382813-6.828125 88.089843 63.078125 157.867187 148.804687 161.339843.15625-.011718.3125-.035156.46875-.066406.375.074219.753907.117188 1.136719.128906 81.652344-3.3125 151.636719-65.707031 151.816407-150.289062-.90625-82.421875-67.671876-148.921875-150.09375-149.496094zm-.410157 290.074219c-68.085937-3.285156-126.644531-49.128906-137.828125-118.351563-6.335937-39.980468 4.980469-80.746093 31.011719-111.746093 26.03125-31.003907 64.226563-49.195313 104.699219-49.875 72.847656.382812 133.289062 56.4375 139.144531 129.050781 6.648437 81.972656-56.320313 147.449219-137.027344 150.921875zm0 0"/><path d="m259 222.105469v-75.1875c0-1.605469-12.355469 0-12.355469 3.3125v72.257812c-17.507812 2.746094-31.226562 16.5-33.929687 34.015625-.6875 5.941406.152344 11.964844 2.433594 17.492188l-26.144532 35.753906c-8.757812 11.949219-16.515625 29.960938 2.625 37.667969 15.8125 6.355469 27.308594-4.515625 35.839844-16.214844l24.867188-33.996094c21.597656-.109375 39.425781-16.910156 40.824218-38.460937-.214844-19.199219-15.019531-35.082032-34.160156-36.640625zm-33.679688 95.769531c-3.847656 5.273438-7.449218 10.941406-11.65625 15.941406-6.503906 7.738282-18.007812 10.777344-21.46875-2.886718-2.773437-10.914063 10.546876-23.695313 16.355469-31.640626l11.949219-16.367187c5.453125 6.378906 12.746094 10.910156 20.878906 12.972656zm29.277344-28.03125c-35.796875-2.558594-40.371094-62.53125-2.234375-60.390625 34.753907 1.953125 38.261719 57.359375 2.234375 60.390625zm0 0"/><path d="m470.875 6.398438c-30.148438-15.519532-57.515625 1.027343-78.667969 22.1875-.304687.261718-.484375.640624-.503906 1.039062-.015625.398438.132813.789062.410156 1.078125l19.429688 19.378906-32.28125 32.28125c-40.589844-28.945312-90.019531-42.796875-139.742188-39.160156-39.84375 2.828125-78.179687 16.390625-110.933593 39.253906l-34.945313-34.941406 19.679687-19.679687c.539063-.527344.851563-.851563.28125-1.449219-10.769531-10.769531-20.976562-21.171875-36.566406-24.261719-14.359375-2.472656-29.132812-.019531-41.921875 6.964844-32.828125 17.738281-48.292969 58.375-21.285156 88.285156l10.601563 10.597656c1.917968 1.917969 9.777343-1 11.40625-2.628906l13.433593-13.429688 33.160157 33.226563c-37.710938 45.40625-54.839844 104.449219-47.285157 162.988281 7.554688 58.535156 39.113281 111.296875 87.117188 145.636719-8.757813 7.558594-16.839844 15.863281-24.15625 24.824219-5.679688 8.398437-6.246094 19.25-1.472657 28.191406 4.773438 8.945312 14.101563 14.515625 24.238282 14.476562 22.929687.851563 40.636718-22.1875 55.679687-38.402343 28.570313 10.585937 59.058594 14.984375 89.457031 12.914062 18.449219-1.257812 36.664063-4.824219 54.226563-10.609375 8.84375 8.882813 17.554687 17.921875 26.609375 26.582032 12.84375 12.777343 33.394531 13.421874 47.007812 1.46875.582032-.273438 1.101563-.65625 1.539063-1.128907.5625-.429687 1-1 1.269531-1.652343 17.449219-22.128907-1.59375-39.390626-17.535156-55.195313 56.914062-41.0625 91.390625-106.34375 93.210938-176.503906 0-.171875-.105469-.265625-.128907-.417969-.027343-.152344.136719-.296875.128907-.460938-1.453126-49.035156-18.867188-96.253906-49.597657-134.492187l30.984375-31.054687 15.871094 15.871093c2.613281 2.613281 9.386719-.324219 11.460938-2.421875l10.582031-10.582031c26.574219-29.371094 12.757812-71.507813-20.761719-88.773437zm-82.996094 79.363281c2.179688-2.566407 4.5625-4.949219 7.125-7.125l22.511719-22.460938 30.148437 30.15625-29.292968 29.320313c-8.097656-10.515625-17.851563-19.636719-28.886719-27.007813-.910156-.597656-1.96875-.929687-3.054687-.964843l-.113282-.09375c.59375-.539063 1.121094-1.148438 1.5625-1.816407zm-372.863281-44.628907c6.167969-15.832031 26.179687-34.714843 43.519531-35.269531 16.214844-.519531 27.164063 9.171875 38.101563 19.300781 6.023437 5.574219 6.058593 3.414063.273437 9.148438l-13.226562 13.234375c-1.554688.855469-2.707032 1.792969-2.765625 2.757813l-31.957031 31.929687c-2.660157.949219-4.742188 2.636719-4.367188 4.371094l-12.871094 12.867187-6.210937-6.210937c-13.296875-13.878907-17.386719-34.1875-10.496094-52.128907zm42.53125 42.476563 28.023437-27.996094 33.671876 33.671875c-10.488282 8.097656-20.238282 17.109375-29.140626 26.921875zm94.128906 393.148437c-7.628906 7.636719-16.886719 21.289063-29.609375 17.878907-20.148437-5.402344-19.449218-29.46875-7.875-41.933594 4.46875-4.832031 9.207032-9.4375 13.925782-14.046875 12.691406 8.4375 26.183593 15.601562 40.285156 21.382812zm233.703125 12.988282c-17.117187 14.746094-40.804687-15.359375-53.007812-28.691406 13.015625-5.109376 25.539062-11.394532 37.417968-18.773438 13.398438 12.800781 31.609376 28.894531 15.589844 47.464844zm-143.648437-20.839844c-101.222657-5.675781-186.882813-90.640625-195.046875-191.207031-10.15625-124.515625 90.460937-235.152344 217.863281-227.546875 111.855469 6.671875 191.695313 102.601562 195.414063 210.574218-3.730469 117.164063-96.476563 215.007813-218.230469 208.179688zm238.539062-373.425781-3.632812 3.644531-16.078125-16.078125c-.058594-.078125 0-.152344-.101563-.230469l-36.183593-36.179687c-.058594-.0625-.167969-.054688-.238282-.113281l-14.394531-14.394532c-1.144531-1.152344-4.265625-3.21875-4.71875-4.726562-.046875-.152344-.113281-.300782-.195313-.4375.773438-.46875 1.449219-1.089844 1.976563-1.824219 13.386719-18.078125 38.34375-22.976563 57.566406-11.300781 28.210938 18.460937 40.457031 54.582031 16 81.640625zm0 0"/><path d="m160.226562 112.554688c7.109376-4.4375 14.523438-8.359376 22.1875-11.742188 2.210938-.980469 4.710938-3.660156 2.996094-6.101562-1.714844-2.441407-6.085937-1.78125-8.363281-.777344-8.609375 3.859375-16.9375 8.320312-24.917969 13.347656-1.128906.527344-1.910156 1.601562-2.058594 2.839844-.152343 1.238281.347657 2.46875 1.316407 3.253906 2.863281 1.417969 6.285156 1.101562 8.839843-.820312zm0 0"/><path d="m124.449219 141.378906c2.949219-3.53125-9.132813-2.269531-11.34375.378906-60 69.085938-59.183594 172.03125 1.902343 240.160157 2.339844 2.707031 14.097657-1.578125 11.574219-4.503907-59.886719-66.980468-60.796875-167.984374-2.132812-236.035156zm0 0"/><path d="m183.394531 417.691406c-7.746093-3.464844-15.234375-7.476562-22.40625-12.007812-4.269531-2.671875-15.308593 3.257812-9.617187 6.828125 7.929687 4.9375 16.199218 9.308593 24.746094 13.078125 4.820312 2.125 14.335937-4.757813 7.277343-7.898438zm0 0"/></g></svg>