<svg id="Icons" height="512" viewBox="0 0 60 60" width="512" xmlns="http://www.w3.org/2000/svg"><path d="m20.81 7.5a.5.5 0 0 1 -.323-.883l2.766-2.331-4.973 2.868a.5.5 0 0 1 -.58-.808l2.693-2.372-2.114 1.22a.5.5 0 0 1 -.584-.8l.579-.518a.5.5 0 0 1 -.634-.749l.532-.663a.492.492 0 0 1 -.281-.226.5.5 0 0 1 .182-.683l1.627-.945a.5.5 0 0 1 .64.746l-.249.311 1.853-1.067a.5.5 0 0 1 .584.805l-.579.518 2.293-1.323a.5.5 0 0 1 .58.808l-2.691 2.368 5.506-3.176a.5.5 0 0 1 .572.815l-2.766 2.329 5.457-3.144a.5.5 0 0 1 .582.807l-3.036 2.682 6.054-3.489a.5.5 0 0 1 .545.837l-.683.5 2.312-1.337a.5.5 0 0 1 .554.83l-1.652 1.259 3.624-2.089a.5.5 0 0 1 .573.814l-2.785 2.359 4.226-2.44a.5.5 0 0 1 .6.791l-2.5 2.45 2.409-1.39a.5.5 0 0 1 .629.759l-.972 1.133.355-.2a.5.5 0 0 1 .73.574l-.234.8a.491.491 0 0 1 .2.191.5.5 0 0 1 -.183.683l-.5.288a.5.5 0 0 1 -.729-.574l.136-.469-1.808 1.038a.5.5 0 0 1 -.63-.759l.972-1.134-3.289 1.897a.5.5 0 0 1 -.6-.79l2.5-2.451-5.62 3.245a.5.5 0 0 1 -.574-.814l2.787-2.363-5.51 3.181a.5.5 0 0 1 -.554-.83l1.653-1.264-3.632 2.1a.5.5 0 0 1 -.545-.836l.682-.5-2.318 1.336a.5.5 0 0 1 -.582-.807l3.029-2.685-6.056 3.497a.5.5 0 0 1 -.25.07z" fill="#ccd0da"/><path d="m16.061 10.5a.5.5 0 0 1 -.306-.9l.536-.414-.012.007a.5.5 0 0 1 -.592-.8l.825-.774-.233.135a.5.5 0 0 1 -.633-.755l.475-.565a.484.484 0 0 1 -.23-.207.5.5 0 0 1 .182-.683l1.627-.934a.5.5 0 0 1 .633.755l-.088.1 1.512-.865a.5.5 0 0 1 .592.8l-.827.775 2.726-1.575a.5.5 0 0 1 .556.829l-.533.411 2.148-1.24a.5.5 0 0 1 .561.824l-.965.767 2.756-1.591a.5.5 0 0 1 .61.78l-2.32 2.4 5.506-3.18a.5.5 0 0 1 .556.829l-.5.384 2.1-1.213a.5.5 0 0 1 .582.807l-1.9 1.685 4.32-2.492a.5.5 0 0 1 .612.778l-2.326 2.444 5.589-3.222a.5.5 0 0 1 .568.819l-1.377 1.129 3.246-1.874a.5.5 0 0 1 .614.776l-2.251 2.399 3.17-1.832a.5.5 0 0 1 .579.81l-.271.236a.5.5 0 0 1 .536.731l-.5.908a.5.5 0 0 1 .326.927l-1.344.776a.5.5 0 0 1 -.688-.674l.467-.85-2.644 1.527a.5.5 0 0 1 -.579-.81l.168-.146-1.659.958a.5.5 0 0 1 -.614-.776l2.254-2.4-5.501 3.18a.5.5 0 0 1 -.569-.819l1.369-1.134-3.386 1.956a.5.5 0 0 1 -.614-.777l2.33-2.449-5.594 3.23a.5.5 0 0 1 -.582-.807l1.9-1.685-4.323 2.495a.5.5 0 0 1 -.556-.829l.5-.383-2.1 1.214a.5.5 0 0 1 -.61-.78l2.321-2.4-5.514 3.183a.5.5 0 0 1 -.562-.825l.966-.767-2.76 1.594a.494.494 0 0 1 -.255.069z" fill="#d6dbe3"/><path d="m16.061 10.5a.5.5 0 0 1 -.306-.9l.536-.414-.012.007a.5.5 0 0 1 -.592-.8l.825-.774-.233.135a.5.5 0 0 1 -.633-.755l.475-.565a.484.484 0 0 1 -.23-.207.5.5 0 0 1 .182-.683l1.627-.934a.5.5 0 0 1 .633.755l-.088.1 1.512-.865a.5.5 0 0 1 .592.8l-.827.775 2.726-1.575a.5.5 0 0 1 .556.829l-.533.411 2.148-1.24a.5.5 0 0 1 .561.824l-.965.767 2.756-1.591a.5.5 0 0 1 .61.78l-2.32 2.4 5.506-3.18a.5.5 0 0 1 .556.829l-.5.384 2.1-1.213a.5.5 0 0 1 .582.807l-1.9 1.685 4.32-2.492a.5.5 0 0 1 .612.778l-2.326 2.444 5.589-3.222a.5.5 0 0 1 .568.819l-1.377 1.129 3.246-1.874a.5.5 0 0 1 .614.776l-2.251 2.399 3.17-1.832a.5.5 0 0 1 .579.81l-.271.236a.5.5 0 0 1 .536.731l-.5.908a.5.5 0 0 1 .326.927l-1.344.776a.5.5 0 0 1 -.688-.674l.467-.85-2.644 1.527a.5.5 0 0 1 -.579-.81l.168-.146-1.659.958a.5.5 0 0 1 -.614-.776l2.254-2.4-5.501 3.18a.5.5 0 0 1 -.569-.819l1.369-1.134-3.386 1.956a.5.5 0 0 1 -.614-.777l2.33-2.449-5.594 3.23a.5.5 0 0 1 -.582-.807l1.9-1.685-4.323 2.495a.5.5 0 0 1 -.556-.829l.5-.383-2.1 1.214a.5.5 0 0 1 -.61-.78l2.321-2.4-5.514 3.183a.5.5 0 0 1 -.562-.825l.966-.767-2.76 1.594a.494.494 0 0 1 -.255.069z" fill="#d6dbe3"/><path d="m15.281 19.5a.5.5 0 0 1 -.295-.9l6.112-4.46-6.818 3.931a.5.5 0 0 1 -.533-.845l2.145-1.477-1.613.931a.5.5 0 0 1 -.537-.843l.9-.63-.364.21a.5.5 0 0 1 -.552-.831l1.6-1.221-1.049.605a.5.5 0 0 1 -.59-.8l1.594-1.47-1 .579a.5.5 0 0 1 -.662-.716l.741-1.078a.529.529 0 0 1 -.465-.249.5.5 0 0 1 .182-.683l1.632-.943a.5.5 0 0 1 .662.717l-.674.98 2.956-1.707a.5.5 0 0 1 .59.8l-1.593 1.469 3.937-2.269a.5.5 0 0 1 .553.83l-1.6 1.221 3.553-2.051a.5.5 0 0 1 .537.842l-.9.631 2.55-1.473a.5.5 0 0 1 .533.844l-2.139 1.474 4.016-2.318a.5.5 0 0 1 .545.837l-6.11 4.46 9.175-5.297a.5.5 0 0 1 .527.849l-2.232 1.492 4.053-2.341a.5.5 0 0 1 .547.835l-6.365 4.701 9.6-5.54a.5.5 0 0 1 .536.843l-4.675 3.261 7.1-4.1a.5.5 0 0 1 .533.845l-4.042 2.78 6.145-3.548a.5.5 0 0 1 .549.834l-6.376 4.746 7.365-4.257a.5.5 0 0 1 .537.843l-2.615 1.821 2.236-1.29a.5.5 0 0 1 .562.824l-3.791 3.028 3.236-1.866a.5.5 0 0 1 .6.793l-2.436 2.347 1.844-1.065a.5.5 0 0 1 .7.641l-.768 1.678.072-.041a.5.5 0 0 1 .5.866l-1.428.824a.5.5 0 0 1 -.705-.641l.768-1.678-4.023 2.323a.5.5 0 0 1 -.6-.793l2.446-2.347-5.45 3.145a.5.5 0 0 1 -.563-.824l3.792-3.028-6.679 3.855a.5.5 0 0 1 -.536-.844l2.616-1.822-4.62 2.668a.5.5 0 0 1 -.549-.834l6.382-4.75-9.68 5.588a.5.5 0 0 1 -.533-.845l4.042-2.78-6.283 3.627a.5.5 0 0 1 -.536-.843l4.672-3.257-7.108 4.1a.5.5 0 0 1 -.547-.835l6.364-4.7-9.6 5.543a.5.5 0 0 1 -.528-.849l2.231-1.491-4.057 2.342a.491.491 0 0 1 -.249.067z" fill="#b9bfcc"/><path d="m15.281 19.5a.5.5 0 0 1 -.295-.9l6.112-4.46-6.818 3.931a.5.5 0 0 1 -.533-.845l2.145-1.477-1.613.931a.5.5 0 0 1 -.537-.843l.9-.63-.364.21a.5.5 0 0 1 -.552-.831l1.6-1.221-1.049.605a.5.5 0 0 1 -.59-.8l1.594-1.47-1 .579a.5.5 0 0 1 -.662-.716l.741-1.078a.529.529 0 0 1 -.465-.249.5.5 0 0 1 .182-.683l1.632-.943a.5.5 0 0 1 .662.717l-.674.98 2.956-1.707a.5.5 0 0 1 .59.8l-1.593 1.469 3.937-2.269a.5.5 0 0 1 .553.83l-1.6 1.221 3.553-2.051a.5.5 0 0 1 .537.842l-.9.631 2.55-1.473a.5.5 0 0 1 .533.844l-2.139 1.474 4.016-2.318a.5.5 0 0 1 .545.837l-6.11 4.46 9.175-5.297a.5.5 0 0 1 .527.849l-2.232 1.492 4.053-2.341a.5.5 0 0 1 .547.835l-6.365 4.701 9.6-5.54a.5.5 0 0 1 .536.843l-4.675 3.261 7.1-4.1a.5.5 0 0 1 .533.845l-4.042 2.78 6.145-3.548a.5.5 0 0 1 .549.834l-6.376 4.746 7.365-4.257a.5.5 0 0 1 .537.843l-2.615 1.821 2.236-1.29a.5.5 0 0 1 .562.824l-3.791 3.028 3.236-1.866a.5.5 0 0 1 .6.793l-2.436 2.347 1.844-1.065a.5.5 0 0 1 .7.641l-.768 1.678.072-.041a.5.5 0 0 1 .5.866l-1.428.824a.5.5 0 0 1 -.705-.641l.768-1.678-4.023 2.323a.5.5 0 0 1 -.6-.793l2.446-2.347-5.45 3.145a.5.5 0 0 1 -.563-.824l3.792-3.028-6.679 3.855a.5.5 0 0 1 -.536-.844l2.616-1.822-4.62 2.668a.5.5 0 0 1 -.549-.834l6.382-4.75-9.68 5.588a.5.5 0 0 1 -.533-.845l4.042-2.78-6.283 3.627a.5.5 0 0 1 -.536-.843l4.672-3.257-7.108 4.1a.5.5 0 0 1 -.547-.835l6.364-4.7-9.6 5.543a.5.5 0 0 1 -.528-.849l2.231-1.491-4.057 2.342a.491.491 0 0 1 -.249.067z" fill="#ccd0da"/><path d="m4.129 46.493a.5.5 0 0 1 -.27-.921l6.783-4.347-8.43 4.866a.5.5 0 0 1 -.518-.855l4.424-2.807-4.161 2.4a.5.5 0 0 1 -.524-.851l7.393-4.858-7.183 4.15a.5.5 0 0 1 -.532-.846l7.71-5.254-7.532 4.349a.5.5 0 0 1 -.542-.838l7.3-5.262-4.641 2.681a.5.5 0 0 1 -.565-.821l4.522-3.679-1.731 1a.5.5 0 0 1 -.632-.749l2.248-2.729a.488.488 0 0 1 -.112-.134.5.5 0 0 1 .182-.683l1.223-.705a.5.5 0 0 1 .636.751l-1.654 2.004 4.777-2.755a.5.5 0 0 1 .565.821l-4.519 3.672 7.787-4.5a.5.5 0 0 1 .542.839l-7.302 5.268 10.566-6.1a.5.5 0 0 1 .532.846l-7.708 5.254 10.562-6.1a.5.5 0 0 1 .525.851l-7.392 4.849 9.886-5.7a.5.5 0 0 1 .517.855l-4.429 2.811 6.349-3.666a.5.5 0 0 1 .52.854l-6.782 4.346 9.01-5.2a.5.5 0 0 1 .515.857l-1.409.882 3.011-1.739a.5.5 0 0 1 .517.856l-5.038 3.2 7.021-4.056a.5.5 0 0 1 .52.854l-7.066 4.534 9.338-5.388a.5.5 0 0 1 .515.857l-1.343.84 2.939-1.7a.5.5 0 0 1 .52.854l-7.118 4.573 9.4-5.427a.5.5 0 0 1 .524.851l-9.938 6.538 12.8-7.389a.5.5 0 0 1 .525.851l-9.562 6.267 12.327-7.115a.5.5 0 0 1 .53.848l-11.543 7.752 12.94-7.471a.5.5 0 0 1 .526.85l-9 5.975 9.374-5.411a.5.5 0 0 1 .537.842l-9.616 6.7 10.154-5.862a.5.5 0 0 1 .529.848l-5.276 3.546 5.518-3.181a.5.5 0 0 1 .547.835l-7.027 5.172 7.535-4.35a.5.5 0 0 1 .554.83l-5.419 4.139 5.872-3.39a.5.5 0 0 1 .534.844l-.414.286.439-.253a.5.5 0 0 1 .575.813l-3.367 2.889 3.657-2.112a.5.5 0 0 1 .586.8l-1.843 1.681.871-.5a.5.5 0 0 1 .684.679l-.791 1.395a.5.5 0 0 1 .19.929l-1.183.677a.5.5 0 0 1 -.684-.679l.693-1.222-3.3 1.9a.5.5 0 0 1 -.587-.8l1.843-1.677-4.3 2.481a.5.5 0 0 1 -.575-.812l3.369-2.89-6.415 3.7a.5.5 0 0 1 -.534-.844l.413-.286-1.959 1.131a.5.5 0 0 1 -.554-.83l5.419-4.139-8.61 4.971a.5.5 0 0 1 -.547-.835l7.034-5.169-10.412 6.011a.5.5 0 0 1 -.529-.848l5.269-3.541-7.606 4.391a.5.5 0 0 1 -.536-.843l9.617-6.706-13.077 7.55a.5.5 0 0 1 -.527-.85l9-5.973-11.824 6.825a.5.5 0 0 1 -.529-.848l11.548-7.755-14.9 8.6a.5.5 0 0 1 -.525-.851l9.568-6.27-12.343 7.127a.5.5 0 0 1 -.525-.851l9.925-6.532-12.79 7.385a.5.5 0 0 1 -.521-.854l7.121-4.574-9.4 5.429a.5.5 0 0 1 -.514-.857l1.345-.841-2.943 1.7a.5.5 0 0 1 -.521-.854l7.068-4.539-9.345 5.393a.5.5 0 0 1 -.518-.855l5.04-3.2-7.022 4.056a.5.5 0 0 1 -.515-.857l1.415-.882-3.016 1.74a.494.494 0 0 1 -.255.067z" fill="#bf8540"/><path d="m10.126 46.5a.5.5 0 0 1 -.277-.916l11-7.329-12.569 7.255a.5.5 0 0 1 -.526-.85l9.107-6.029-8.581 4.954a.5.5 0 0 1 -.531-.846l8.042-5.467-7.511 4.336a.5.5 0 0 1 -.537-.841l6.56-4.6-6.023 3.48a.5.5 0 0 1 -.538-.84l4.077-2.881-3.539 2.043a.5.5 0 0 1 -.562-.823l4.218-3.372-3.656 2.111a.5.5 0 0 1 -.554-.829l1.056-.813-.5.289a.5.5 0 0 1 -.649-.733l1.588-2.106-.939.541a.5.5 0 0 1 -.708-.633l.286-.65a.493.493 0 0 1 -.26-.22.5.5 0 0 1 .182-.683l.781-.451a.5.5 0 0 1 .708.634l-.171.369 1.749-1a.5.5 0 0 1 .649.734l-1.588 2.103 4.918-2.84a.5.5 0 0 1 .555.829l-1.062.817 2.852-1.643a.5.5 0 0 1 .562.823l-4.217 3.371 7.264-4.194a.5.5 0 0 1 .538.841l-4.073 2.878 6.442-3.72a.5.5 0 0 1 .538.843l-6.558 4.594 9.416-5.436a.5.5 0 0 1 .531.847l-8.047 5.47 10.941-6.317a.5.5 0 0 1 .526.85l-9.107 6.03 11.915-6.88a.5.5 0 0 1 .527.849l-11 7.329 14.165-8.178a.5.5 0 0 1 .526.851l-10.036 6.605 12.92-7.46a.5.5 0 0 1 .515.857l-.021.013 1.507-.87a.5.5 0 0 1 .53.847l-11.823 7.978 15.286-8.821a.5.5 0 0 1 .515.857l-1.463.915 3.07-1.772a.5.5 0 0 1 .516.856l-3.166 1.992 4.885-2.82a.5.5 0 0 1 .527.849l-10.951 7.3 10.851-6.264a.5.5 0 0 1 .53.847l-9.021 6.09 8.5-4.9a.5.5 0 0 1 .528.848l-5.517 3.7 4.991-2.881a.5.5 0 0 1 .525.851l-1.424.937.9-.52a.5.5 0 0 1 .527.849l-.379.25a.509.509 0 0 1 .529.224.5.5 0 0 1 -.143.68l-.391.264a.5.5 0 0 1 .426.877l-3.34 2.69 2.78-1.606a.5.5 0 0 1 .583.806l-1.81 1.62 1.23-.71a.5.5 0 0 1 .614.774l-.616.659h.005a.5.5 0 0 1 .73.574l-.242.819a.5.5 0 0 1 .014.873l-.5.289a.5.5 0 0 1 -.729-.574l.144-.491-1.852 1.048a.5.5 0 0 1 -.614-.774l.615-.657-2.483 1.433a.5.5 0 0 1 -.583-.8l1.81-1.62-4.2 2.427a.5.5 0 0 1 -.563-.822l3.341-2.69-6.092 3.513a.5.5 0 0 1 -.53-.847l.13-.088-1.624.937a.5.5 0 0 1 -.523-.849l.062-.041-1.544.891a.5.5 0 0 1 -.525-.85l1.414-.931-3.089 1.783a.5.5 0 0 1 -.528-.848l5.519-3.7-7.881 4.55a.5.5 0 0 1 -.53-.847l9.022-6.092-12.026 6.941a.5.5 0 0 1 -.528-.849l10.948-7.3-14.114 8.152a.5.5 0 0 1 -.516-.856l3.183-2-4.955 2.86a.5.5 0 0 1 -.515-.857l1.438-.9-3.045 1.758a.5.5 0 0 1 -.529-.847l11.823-7.98-15.29 8.828a.5.5 0 0 1 -.515-.858l.025-.014-1.513.873a.5.5 0 0 1 -.525-.851l10.034-6.609-12.924 7.463a.494.494 0 0 1 -.25.068z" fill="#ad763a"/><path d="m12.247 56.5a.5.5 0 0 1 -.261-.927l1.5-.919-1.21.7a.5.5 0 0 1 -.517-.855l15.444-9.787-14.923 8.617a.5.5 0 0 1 -.513-.857l9.5-5.9-8.987 5.188a.5.5 0 0 1 -.514-.857l11.214-7-10.7 6.177a.5.5 0 0 1 -.514-.856l11.68-7.3-11.166 6.448a.5.5 0 0 1 -.515-.856l12.6-7.9-12.085 6.984a.5.5 0 0 1 -.519-.854l17.439-11.159-16.92 9.767a.5.5 0 0 1 -.511-.86l3.631-2.224-3.118 1.8a.5.5 0 0 1 -.519-.853l17.746-11.374-17.23 9.947a.5.5 0 0 1 -.519-.853l17.23-11.011-16.711 9.647a.5.5 0 0 1 -.519-.853l17.34-11.091-16.821 9.714a.5.5 0 0 1 -.519-.855l16.263-10.383-15.744 9.089a.5.5 0 0 1 -.513-.857l5.825-3.606-5.312 3.069a.5.5 0 0 1 -.515-.856l8.236-5.183-7.724 4.46a.5.5 0 0 1 -.52-.854l10.387-6.7-9.867 5.7a.5.5 0 0 1 -.514-.857l.742-.463-.228.131a.5.5 0 0 1 -.528-.848l9.577-6.422-9.049 5.224a.5.5 0 0 1 -.52-.854l2.224-1.428-1.7.982a.5.5 0 0 1 -.522-.853l1.466-.951-.944.545a.5.5 0 0 1 -.534-.844l4.485-3.1-3.872 2.236a.5.5 0 0 1 -.555-.829l4.961-3.825-.592.342a.5.5 0 0 1 -.57-.817l2.835-2.361a.5.5 0 0 1 .2-.653l1.947-1.122a.5.5 0 0 1 .57.817l-.422.351 2.024-1.168a.5.5 0 0 1 .555.829l-4.959 3.821 8.058-4.65a.5.5 0 0 1 .534.844l-4.483 3.1 6.828-3.944a.5.5 0 0 1 .522.852l-1.468.954 3.128-1.806a.5.5 0 0 1 .52.853l-2.221 1.43 3.955-2.283a.5.5 0 0 1 .528.848l-9.575 6.421 12.591-7.269a.5.5 0 0 1 .514.858l-.744.464 2.289-1.322a.5.5 0 0 1 .521.854l-10.389 6.7 13.077-7.554a.5.5 0 0 1 .516.857l-8.238 5.178 10.454-6.035a.5.5 0 0 1 .512.858l-5.817 3.6 6.954-4.014a.5.5 0 0 1 .519.854l-16.266 10.383 16.548-9.554a.5.5 0 0 1 .519.855l-17.339 11.087 16.824-9.713a.5.5 0 0 1 .519.855l-17.233 11.011 16.714-9.65a.5.5 0 0 1 .519.854l-17.743 11.374 17.23-9.947a.5.5 0 0 1 .511.86l-3.619 2.218 3.109-1.795a.5.5 0 0 1 .519.855l-17.441 11.152 16.919-9.768a.5.5 0 0 1 .515.857l-12.6 7.9 12.087-6.979a.5.5 0 0 1 .514.857l-11.682 7.3 11.168-6.45a.5.5 0 0 1 .515.858l-11.208 7 10.694-6.176a.5.5 0 0 1 .514.858l-9.5 5.9 8.985-5.188a.5.5 0 0 1 .518.855l-15.454 9.787 14.94-8.625a.5.5 0 0 1 .511.86l-1.487.909.977-.564a.5.5 0 0 1 .518.854l-12.2 7.733 11.679-6.742a.5.5 0 0 1 .517.856l-8.179 5.159 7.663-4.424a.5.5 0 0 1 .516.857l-3.588 2.245 3.077-1.772a.5.5 0 0 1 .521.854l-6.9 4.428 6.38-3.682a.5.5 0 0 1 .522.852l-5.467 3.538 4.946-2.856a.5.5 0 0 1 .521.854l-1.921 1.23 1.4-.809a.5.5 0 0 1 .528.849l-4.322 2.884 3.8-2.192a.5.5 0 0 1 .524.852l-.386.252a.506.506 0 0 1 .535.22.5.5 0 0 1 -.138.678l-2.63 1.822 2.1-1.21a.5.5 0 0 1 .542.838l-2.083 1.498 1.536-.886a.5.5 0 0 1 .571.815l-2.579 2.171 2.009-1.159a.5.5 0 0 1 .608.781l-1.384 1.426.777-.448a.5.5 0 0 1 .656.725l-.375.522a.5.5 0 0 1 .22.932l-1.611.93a.5.5 0 0 1 -.657-.723l.258-.361-1.881 1.086a.5.5 0 0 1 -.608-.781l1.385-1.43-3.827 2.209a.5.5 0 0 1 -.572-.815l2.581-2.169-5.175 2.987a.5.5 0 0 1 -.542-.838l2.073-1.495-4.045 2.335a.5.5 0 0 1 -.535-.844l2.628-1.82-4.621 2.665a.5.5 0 0 1 -.524-.852l.06-.038-1.546.892a.5.5 0 0 1 -.528-.849l4.315-2.879-6.46 3.73a.5.5 0 0 1 -.521-.854l1.922-1.233-3.618 2.089a.5.5 0 0 1 -.521-.853l5.481-3.547-7.624 4.4a.5.5 0 0 1 -.52-.854l6.884-4.419-9.14 5.278a.5.5 0 0 1 -.516-.857l3.585-2.243-5.372 3.1a.5.5 0 0 1 -.517-.856l8.187-5.164-10.427 6.024a.5.5 0 0 1 -.517-.855l12.191-7.73-14.874 8.588a.494.494 0 0 1 -.253.067z" fill="#d6dbe3"/><path d="m40.7 44.572a.5.5 0 0 1 -.4-.8l.963-1.3a.5.5 0 0 1 -.185-.929l1.614-.932a.5.5 0 0 1 .652.731l-.809 1.093 3.2-1.845a.5.5 0 1 1 .5.865l-5.279 3.048a.489.489 0 0 1 -.256.069z" fill="#d89b4a"/><path d="m19.951 59.471a.5.5 0 0 1 -.264-.925l2.6-1.616-4.287 2.47a.5.5 0 0 1 -.534-.843l10.038-6.938-13.475 7.781a.5.5 0 0 1 -.533-.844l9.793-6.73-13.12 7.574a.5.5 0 0 1 -.533-.844l9.749-6.694-13.057 7.538a.5.5 0 0 1 -.525-.849l7.1-4.686-9.585 5.535a.5.5 0 0 1 -.523-.851l6.122-4-7.129 4.12a.5.5 0 0 1 -.524-.851l5.72-3.762-5.7 3.293a.5.5 0 0 1 -.531-.849l5.83-3.891-5.3 3.062a.5.5 0 0 1 -.523-.852l2.94-1.926-2.424 1.4a.5.5 0 0 1 -.531-.846l6.507-4.435-5.972 3.448a.5.5 0 0 1 -.536-.843l6.189-4.317-5.653 3.263a.5.5 0 0 1 -.543-.838l4.719-3.416-4.176 2.41a.5.5 0 0 1 -.557-.827l3.649-2.851-3.092 1.785a.5.5 0 0 1 -.652-.136.5.5 0 0 1 .062-.664l2.52-2.326-1.93 1.11a.5.5 0 0 1 -.585-.8l.375-.34a.511.511 0 0 1 -.338-.1.5.5 0 0 1 -.189-.515l.3-1.273a.494.494 0 0 1 -.243-.214.5.5 0 0 1 .183-.683l.5-.288a.5.5 0 0 1 .738.548l-.241 1.012 2.7-1.56a.5.5 0 0 1 .585.8l-.207.187 1.717-.99a.5.5 0 0 1 .59.8l-2.52 2.332 5.426-3.126a.5.5 0 0 1 .558.827l-3.651 2.848 6.373-3.675a.5.5 0 0 1 .543.838l-4.718 3.412 7.368-4.25a.5.5 0 0 1 .536.842l-6.18 4.312 7.443-4.3a.5.5 0 0 1 .531.846l-6.507 4.436 6.471-3.736a.5.5 0 0 1 .523.852l-2.943 1.923 3.021-1.744a.5.5 0 0 1 .528.849l-5.831 3.891 7.23-4.174a.5.5 0 0 1 .525.85l-5.728 3.767 8-4.617a.5.5 0 0 1 .524.851l-6.121 4 8.4-4.849a.5.5 0 0 1 .525.849l-7.1 4.686 9.585-5.534a.5.5 0 0 1 .533.844l-9.749 6.691 13.056-7.535a.5.5 0 0 1 .534.844l-9.793 6.73 13.12-7.574a.5.5 0 0 1 .534.843l-10.037 6.935 20.426-11.792a.5.5 0 0 1 .513.857l-2.6 1.617 4.287-2.478a.5.5 0 0 1 .519.854l-9.469 6.056 11.978-6.916a.5.5 0 0 1 .526.85l-13.182 8.692 16.54-9.549a.5.5 0 0 1 .519.854l-9.612 6.15 10.1-5.831a.5.5 0 0 1 .526.85l-11.8 7.813 11.275-6.505a.5.5 0 0 1 .522.852l-6.585 4.278 6.064-3.5a.5.5 0 0 1 .523.852l-4.807 3.142 4.284-2.472a.5.5 0 0 1 .532.845l-5.966 4.08 5.434-3.137a.5.5 0 0 1 .545.836l-5.758 4.207 5.213-3.01a.5.5 0 0 1 .55.832l-3.622 2.725 3.072-1.773a.5.5 0 0 1 .556.827l-1.83 1.425 1.274-.735a.5.5 0 0 1 .593.8l-1.531 1.452.938-.541a.5.5 0 0 1 .655.725l-.665.918a.493.493 0 0 1 .393.248.5.5 0 0 1 -.182.683l-1.614.932a.5.5 0 0 1 -.656-.726l.538-.743-2.571 1.478a.5.5 0 0 1 -.594-.8l1.532-1.451-3.894 2.251a.5.5 0 0 1 -.557-.827l1.832-1.426-3.9 2.253a.5.5 0 0 1 -.551-.832l3.613-2.719-6.156 3.551a.5.5 0 0 1 -.545-.836l5.76-4.209-8.737 5.045a.5.5 0 0 1 -.532-.845l5.965-4.079-8.53 4.924a.5.5 0 0 1 -.523-.851l4.81-3.146-6.923 4a.5.5 0 0 1 -.522-.851l6.581-4.277-8.882 5.125a.5.5 0 0 1 -.526-.849l11.8-7.815-15.01 8.664a.5.5 0 0 1 -.52-.853l9.618-6.147-12.138 7a.5.5 0 0 1 -.526-.849l13.182-8.691-16.528 9.54a.5.5 0 0 1 -.52-.853l9.475-6.058-11.973 6.911a.5.5 0 0 1 -.249.071z" fill="#d89b4a"/><path d="m27.5 54.471a.5.5 0 0 1 -.349-.859l1.179-1.147-3.363 1.935a.5.5 0 0 1 -.648-.735l1.493-1.962-4.635 2.676a.5.5 0 0 1 -.614-.777l1.354-1.431-2.3 1.326a.5.5 0 0 1 -.693-.664l.784-1.5-.136.078a.5.5 0 0 1 -.5-.865l1.627-.94a.5.5 0 0 1 .694.664l-.785 1.5 3.772-2.17a.5.5 0 0 1 .613.776l-1.351 1.431 3.824-2.207a.5.5 0 0 1 .647.735l-1.492 1.962 4.673-2.7a.5.5 0 0 1 .6.791l-1.179 1.147 3.357-1.935a.5.5 0 0 1 .655.727l-1.483 2.033 4.782-2.76a.5.5 0 0 1 .614.776l-1.372 1.45 2.811-1.626a.5.5 0 0 1 .6.077.5.5 0 0 1 .084.6l-.986 1.741.78-.449a.5.5 0 0 1 .5.865l-2.366 1.366a.5.5 0 0 1 -.6-.077.5.5 0 0 1 -.084-.6l.985-1.742-4.192 2.419a.5.5 0 0 1 -.613-.776l1.371-1.449-3.858 2.225a.5.5 0 0 1 -.654-.727l1.482-2.033-4.783 2.76a.49.49 0 0 1 -.245.071z" fill="#ad763a"/><path d="m15.057 21.47a.5.5 0 0 1 -.322-.883l.494-.412-2.129 1.225a.5.5 0 0 1 -.57-.818l2.779-2.3a.5.5 0 0 1 -.385-.868l3.484-3.149a.5.5 0 0 1 .237-.55l1.074-.62a.5.5 0 0 1 .585.8l-1.212 1.1.628-.363a.5.5 0 0 1 .569.818l-2.576 2.137 2.007-1.159a.5.5 0 0 1 .571.817l-.512.427a.5.5 0 0 1 .563.8l-.563.626a.5.5 0 0 1 .281.932l-2.386 1.37a.5.5 0 0 1 -.622-.767l.448-.5-2.193 1.267a.491.491 0 0 1 -.25.07z" fill="#f0f2f5"/><g fill="#262626"><path d="m.274 50.44v5.413c0 1.319-.073 2.7 1.377 3.345 1.236.553 3.151.231 4.449.231h35.238c5.1 0 10.216.139 15.311 0a2.883 2.883 0 0 0 3.077-2.559c.072-1.191 0-2.408 0-3.6v-12.355c0-.012-.008-.018-.009-.028a.3.3 0 0 0 -.036-.137.135.135 0 0 0 -.026-.066l-3.572-5.612-2.311-3.633a6.25 6.25 0 0 0 -1.072-1.507.184.184 0 0 0 -.121-.095 1.434 1.434 0 0 0 -.543-.238 10 10 0 0 0 -1.872-.031h-1.44v-7.116c0-2.5.144-5.04 0-7.534a2.122 2.122 0 0 0 -2-2.134c0-1.74.124-3.761-2-4.031.008-1.334.281-3.027-1.121-3.769a2.3 2.3 0 0 0 -.878-.24c.008-1.1.24-2.5-.587-3.352a2.636 2.636 0 0 0 -2.025-.663c-1.886-.016-3.772 0-5.657 0-4.569 0-9.146-.083-13.714 0a4.165 4.165 0 0 0 -2.691.829c-.972.837-.809 2.189-.781 3.367a3.4 3.4 0 0 0 -.739.3c-1.435.8-1.282 2.293-1.259 3.709a3.789 3.789 0 0 0 -.87.374c-1.551.96-1.126 3.1-1.126 4.658v5.173l-.21.209a8.454 8.454 0 0 0 -1.455 1.628c-.1.079-.147.168-.123.237a2.392 2.392 0 0 0 -.212.88c-.116 2.449-.061 4.922-.024 7.385-.866-.013-1.735-.033-2.6.01a2 2 0 0 0 -.787.194.753.753 0 0 0 -.562.407 6.814 6.814 0 0 0 -.839 1.162l-4.721 7.421-1.434 2.252a.286.286 0 0 0 -.035.249zm56.989 8.131a5.755 5.755 0 0 1 -1.159 0h-47.211c-1.771 0-3.575.1-5.344 0a1.829 1.829 0 0 1 -1.823-1.894c-.064-1.346 0-2.711 0-4.058v-11.19h5.751a.99.99 0 0 0 .853 0h4.853c1.371 0 4.4-.568 4.991 1.133.226.656.094 1.309.541 1.908a2.6 2.6 0 0 0 2.008.959c.389.023.787 0 1.177 0h14.417c1.4 0 3.2.263 4.384-.632a2.607 2.607 0 0 0 1.012-1.72c.145-.744.182-1.475 1.111-1.648a10.482 10.482 0 0 1 1.824 0h13.626v13.9c0 .99.292 2.954-1.011 3.242zm-.27-19.381.879 1.381h-5.148v-8.088zm-7.759-8.758a16.255 16.255 0 0 1 1.873 0 .614.614 0 0 1 .169.053v10.086h-2.552v-10.139zm-1.958-15.238c.139 1.936 0 3.931 0 5.87v19.507h-.459c-1.4 0-3.181-.273-4.552.148a2.989 2.989 0 0 0 -1.556 1.074c-.526.735-.212 1.869-.88 2.488-.458.424-1.166.29-1.729.29h-14.417c-.7 0-1.425.043-2.129 0-.092 0-.186.011-.277 0-1.395-.157-1.359-1.208-1.617-2.243-.5-2.017-2.717-1.757-4.308-1.757h-2.628v-17.424a8.836 8.836 0 0 1 .07-1.834h4.622c1.533 0 3.274-.779 3.308-2.519.019-.914 0-1.829 0-2.742v-2.752a4.006 4.006 0 0 1 .409-.017h20.082c1.827 0 5.867-.777 6.061 1.911zm-28.176-13.512c.393-.521.7-.411 1.273-.411h18.304a2.794 2.794 0 0 1 1.819.352c.935.683.833 2.006.791 3.1h-22.261c-.1 0-.2.006-.3.008-.014-.944-.218-2.266.374-3.049zm-1.551 3.6a.849.849 0 0 1 .159-.028c.05 0 .1-.013.156-.021.308-.011.679.049.923.049h21.48a11.458 11.458 0 0 1 1.257 0c1.855.208 1.793 1.988 1.761 3.439-.183 0-.366.008-.548.008h-22.073c-1.125 0-2.593-.164-3.944-.06-.02-.999-.279-2.993.827-3.392zm-2.823 5.539c.106-1.373.727-1.54 1.794-1.54h24.19c.881 0 1.8-.073 2.675 0 1.973.164 1.929 1.9 1.9 3.409-.532 0-1.059.032-1.523.032h-21.152a9.832 9.832 0 0 0 -2.229.116c-.049.011-.094.031-.142.045-.373.037-.827.188-.929.41a12.455 12.455 0 0 0 -2.11 1.921l-2.491 2.486c-.039-2.289-.159-4.617.015-6.884zm-1.461 9.511a16.178 16.178 0 0 1 1.184-1.252c.161-.073.277-.163.277-.269.472-.45.952-.891 1.4-1.34l3.151-3.15v4.558a2.417 2.417 0 0 1 -.215 1.168 1.434 1.434 0 0 1 -.6.641l-.015.007s0 0-.006 0a.673.673 0 0 1 -.11 0c-.978.011-1.956 0-2.935 0h-2.373a2.168 2.168 0 0 1 .24-.368zm-3.165 10.184h1.163c.006.53.014 1.06.014 1.588v8.467h-2.543v-10.071c.081.008.159.018.207.018zm-2.833 1.8v8.257h-5.256l3.062-4.81z"/><path d="m40.164 49.769a10.815 10.815 0 0 0 -3.087-.12h-12.325c-1.13 0-2.268-.039-3.4 0a3.491 3.491 0 0 0 -2.43.96 2.187 2.187 0 0 0 .086 3.166c.884.768 2.254.576 3.345.576h16.347a3.123 3.123 0 0 0 2.882-1.75 2.189 2.189 0 0 0 -1.418-2.832zm-.866 3.88h-17.01a8.286 8.286 0 0 1 -.919 0 1.824 1.824 0 0 1 -1.6-2.2c.307-1.4 1.528-1.1 2.582-1.1h15.3a7.947 7.947 0 0 1 1.012 0 1.8 1.8 0 0 1 1.419 1c.318.659.237 2.225-.782 2.3z"/><path d="m19.933 26.519h20c.819 0 1.119-1.038.134-1.038h-20c-.819 0-1.119 1.038-.134 1.038z"/><path d="m40.267 29.534h-1a1.33 1.33 0 0 0 -.57.107.75.75 0 0 0 -.226.142.524.524 0 0 0 -.154.17.3.3 0 0 0 .015.347.563.563 0 0 0 .4.166h1a1.345 1.345 0 0 0 .57-.107.75.75 0 0 0 .226-.142.524.524 0 0 0 .154-.17.3.3 0 0 0 -.015-.347.563.563 0 0 0 -.4-.166z"/><path d="m19.525 30.276h15a1.8 1.8 0 0 0 1.024-.276c.183-.148.245-.277-.074-.277h-15a1.8 1.8 0 0 0 -1.024.277c-.183.147-.245.276.074.276z"/><path d="m40.269 33.542h-15c-.309 0-.806.092-.951.415-.133.3.115.5.413.5h15c.309 0 .806-.092.951-.415.133-.297-.115-.5-.413-.5z"/><path d="m19.945 34.567h1a.766.766 0 0 0 .292-.068.715.715 0 0 0 .252-.135.533.533 0 0 0 .167-.193.413.413 0 0 0 .081-.216.445.445 0 0 0 -.184-.392.839.839 0 0 0 -.5-.13h-1a.748.748 0 0 0 -.292.068.715.715 0 0 0 -.252.135.533.533 0 0 0 -.167.193.413.413 0 0 0 -.081.216.445.445 0 0 0 .184.392.838.838 0 0 0 .5.13z"/><path d="m31.3 37.661h-11c-.266 0-.82.107-.964.366s.13.312.362.312h11c.266 0 .82-.107.964-.366s-.129-.312-.362-.312z"/></g></svg>