<svg height="512" viewBox="0 0 61 60" width="512" xmlns="http://www.w3.org/2000/svg"><g id="005---Website-Layout" fill="none"><path id="Path" d="m18.142 59.471c-.2235188.0002724-.4200664-.14784-.4814104-.3627764-.0613441-.2149364.0274191-.4444779.2174104-.5622236l15.422-9.577-18.075 10.431c-.2362075.133071-.5354329.0536509-.6745599-.1790411-.1391271-.2326919-.0674613-.5338687.1615599-.6789589l16.15-9.971-18.757 10.829c-.2356087.1297647-.5316571.04988-.6700067-.1807924-.1383496-.2306723-.0694166-.5294607.1560067-.6762076l22.784-14.189-26.067 15.046c-.23560872.1297647-.5316571.04988-.67000668-.1807924-.13834959-.2306723-.06941665-.5294607.15600668-.6762076l25.867-16.078-29.339 16.935c-.23571786.1278172-.53029699.0469384-.66770199-.1833224-.13740501-.2302607-.06871185-.5279174.15570199-.6746776l26.979-16.65-28.289 16.334c-.2372063.1413849-.5441151.0637063-.6855-.1735s-.0637063-.5441151.1735-.6855l26.32-16.167-26.028 15.029c-.15398147.0905668-.34458304.0921059-.50000695.0040374-.15542391-.0880684-.25205756-.2523647-.2535-.431-.00144244-.1786352.09252548-.3444706.24650695-.4350374l4.588-2.748-4.081 2.356c-.23775858.1405564-.54444351.0617586-.68499997-.176-.14055647-.2377586-.0617586-.5444435.17599997-.685l19.671-11.951-19.162 11.064c-.2372063.1413849-.54411508.0637063-.68549997-.1735s-.06370631-.5441151.17349997-.6855l28.211-17.383-27.699 15.992c-.23698876.1350471-.53848394.055235-.67761558-.1793791-.13913163-.2346142-.06455352-.5374465.16761558-.6806209l23.945-14.638-23.435 13.53c-.23775858.1405564-.54444351.0617586-.68499997-.176-.14055647-.2377586-.0617586-.5444435.17599997-.685l18.137-11-17.628 10.18c-.23546673.1225198-.52563259.0396943-.66094465-.1886614-.13531207-.2283558-.0686058-.5226457.15194465-.6703386l21.5-13.1-20.991 12.123c-.23583577.1260453-.52910097.0442222-.66561588-.1857118-.13651492-.2299339-.06795177-.5265795.15561588-.6732882l24.262-14.841-23.752 13.714c-.23649337.126689-.53082268.0441496-.66695642-.1870361s-.06554462-.5286074.15995642-.6739639l2.089-1.245-1.582.913c-.23638246.1285498-.53210687.0469768-.6691568-.184581-.13704993-.2315579-.06627089-.5300498.1601568-.675419l19.729-12.034-19.22 11.098c-.23620749.133071-.53543293.0536509-.67455995-.1790411-.13912701-.2326919-.06746125-.5338687.16155995-.6789589l25.244-15.68-24.731 14.278c-.23455577.1194599-.52156212.036609-.6563687-.1894756s-.07124209-.517969.1453687-.6675244l16.444-10.087-15.933 9.199c-.23775858.1405564-.54444351.0617586-.68499997-.176-.14055647-.2377586-.0617586-.5444435.17599997-.685l2.587-1.561-2.078 1.2c-.23486629.1223119-.52436539.0402957-.66017777-.1870309-.13581237-.2273266-.07083392-.5211193.14817777-.6699691l15.265-9.443-14.753 8.518c-.2372063.1413849-.54411508.0637063-.68549997-.1735s-.06370631-.5441151.17349997-.6855l11.947-7.379-11.435 6.601c-.23415271.123715-.52415635.0433988-.66130449-.1831476-.13714814-.2265465-.07386591-.5207372.14430449-.6708524l16.779-10.652-16.262 9.389c-.23305531.1137703-.51441205.0304648-.64795743-.1918505s-.07494402-.5098346.13495743-.6621495l7.357-4.563-6.844 3.948c-.23617349.1361818-.537908.0580681-.67833183-.1756081-.14042384-.2336761-.06777083-.5367718.16333183-.6813919l8.5-5.333-7.985 4.611c-.23551248.13196-.53324972.0531389-.67262044-.1780652-.13937073-.2312042-.07004227-.5312938.15662044-.6779348l7.065-4.45-6.549 3.779c-.23470337.1364868-.53543738.0607325-.67747413-.1706544-.14203676-.2313868-.07346495-.5338394.15447413-.6813456l10.176-6.635-9.653 5.574c-.23541159.1379583-.53795774.061708-.67986369-.1713453-.14190596-.2330532-.07076502-.5368414.15986369-.6826547l5.572-3.586-5.052 2.917c-.23158002.1294027-.52390906.0554223-.6660571-.1685604-.14214803-.2239828-.08462774-.5199909.1310571-.6744396l9.266-6.432-8.731 5.039c-.23068362.128482-.52150784.0554404-.66410781-.1667933-.14259996-.2222337-.0878131-.5170425.12510781-.6732067l6.876-4.884-6.337 3.659c-.23354514.1328438-.53032442.0573638-.6720248-.1709163s-.07765459-.5277351.1450248-.6780837l.489-.326c-.2349781.111232-.51599245.0238329-.64643467-.2010495s-.06678498-.512207.14643467-.6609505l2.045-1.443-1.507.871c-.22666814.1317558-.51661365.0660514-.66434159-.1505461-.14772794-.2165976-.10306194-.5105201.10234159-.6734539l2.79-2.229-2.228 1.286c-.21415602.122774-.48586267.0708854-.63970457-.1221662s-.14377368-.4694853.02370457-.6508338l2.014-2.168-1.4.807c-.21258013.1214168-.48181099.0710563-.63613087-.1189903-.15431988-.1900467-.14833924-.4638818.01413087-.6470097l.324-.361c-.21626557-.02141496-.39393287-.18007522-.43957751-.39255102-.04564464-.21247579.05118718-.43010471.23957751-.53844898l2.212-1.274c.21258013-.12141683.48181099-.07105633.63613087.11899034.15431988.19004666.14833924.46388178-.01413087.64700966l-.122.134 1.565-.9c.21415602-.12277399.48586267-.07088539.63970457.12216621.1538419.19305161.14377368.46948526-.02370457.65083379l-2.014 2.165 5.094-2.938c.22620357-.12844093.5131028-.06198425.6597948.15283334.1466919.21481759.1041677.50622684-.0977948.67016666l-2.791 2.227 5.289-3.05c.2321137-.1412643.5345566-.07130005.681052.15754808s.0834127.53280084-.142052.68445192l-2.043 1.437 3.954-2.279c.2335451-.1328438.5303244-.05736382.6720248.17091629s.0776546.52773513-.1450248.67808371l-.472.314 2.015-1.163c.2313261-.13338821.5266402-.06146595.670727.16335216.1440867.22481812.0860887.52317941-.131727.67764784l-6.872 4.879 9.911-5.72c.23158-.12940266.5239091-.05542235.6660571.16856044.142148.2239828.0846277.51999085-.1310571.67443956l-9.266 6.43 12.603-7.273c.2347713-.13363828.5332399-.05663158.6740509.17390914.1408109.23054072.0730402.5312411-.1530509.67909086l-5.572 3.586 7.689-4.439c.2347034-.13648675.5354374-.06073246.6774741.17065437.1420368.23138684.073465.53383942-.1544741.68134563l-10.176 6.63 12.967-7.482c.2363779-.14276561.5437344-.06687787.6865.1695s.0668779.54373439-.1695.6865l-7.065 4.444 9.193-5.3c.236654-.14248947.5440105-.06615402.6865.1705s.066154.54401053-.1705.6865l-8.5 5.334 10.719-6.191c.2369302-.14193715.5440628-.06493012.686.17200002.1419371.23693014.0649301.54406279-.172.68599998l-7.35 4.558 9.381-5.416c.2354379-.13454995.5352149-.05690217.6757281.17502611.1405133.23192829.0705395.53358878-.1577281.67997389l-16.778 10.645 19.928-11.5c.2362075-.13307102.5354329-.05365088.6745599.17904108.1391271.23269196.0674613.53386873-.1615599.67895892l-11.941 7.371 14.263-8.235c.2372063-.14166103.544339-.06420629.686.17300001.141661.23720629.0642063.54433895-.173.68599999l-15.276 9.447 17.85-10.306c.2380347-.14055647.5449435-.06153473.6855.1765s.0615347.54494353-.1765.6855l-2.6 1.566 4.206-2.428c.1536242-.09145999.3443721-.09401497.5003909-.0067025.1560188.08731246.2536054.25122754.256.43s-.0907667.34524251-.2443909.4367025l-16.421 10.071 18.934-10.931c.2362075-.13307102.5354329-.05365088.6745599.17904108.1391271.23269196.0674613.53386873-.1615599.67895892l-25.257 15.689 28.66-16.547c.2369888-.13504713.5384839-.05523499.6776156.17937913.1391316.23461413.0645535.53744647-.1676156.68062087l-19.716 12.016 21.08-12.17c.2380347-.14000416.5444958-.06053469.6845.17750002.1400041.23803471.0605347.54449578-.1775.68449998l-2.08 1.244 2.113-1.22c.2369888-.13504713.5384839-.05523499.6776156.17937913.1391316.23461413.0645535.53744647-.1676156.68062087l-24.279 14.854 23.769-13.725c.2377586-.1405565.5444435-.0617586.685.176.1405564.2377586.0617586.5444435-.176.685l-21.483 13.084 20.974-12.11c.2377586-.1405565.5444435-.0617586.685.176.1405564.2377586.0617586.5444435-.176.685l-18.136 11 17.627-10.18c.2369888-.1350471.5384839-.055235.6776156.1793791.1391316.2346142.0645535.5374465-.1676156.6806209l-23.962 14.649 23.452-13.54c.2372063-.1413849.5441151-.0637063.6855.1735s.0637063.5441151-.1735.6855l-28.206 17.381 27.695-15.991c.2363825-.1285498.5321069-.0469768.6691568.184581.1370499.2315579.0662709.5300498-.1601568.675419l-19.682 11.958 19.173-11.07c.2380347-.1400042.5444958-.0605347.6845.1775s.0605347.5444958-.1775.6845l-4.567 2.735 4.06-2.343c.2362845-.1306359.5336041-.0500916.6716393.181948s.0669238.5317553-.1606393.677052l-26.327 16.168 25.816-14.9c.1534456-.09146.3440284-.0941103.4999579-.0069525s.2535161.2508822.256.4295-.0905123.3449925-.2439579.4364525l-26.985 16.652 26.473-15.284c.2362075-.133071.5354329-.0536509.6745599.1790411.1391271.2326919.0674613.5338687-.1615599.6789589l-25.866 16.077 25.353-14.634c.2356087-.1297647.5316571-.04988.6700067.1807924.1383496.2306723.0694166.5294607-.1560067.6762076l-22.781 14.191 22.267-12.856c.2372063-.1413849.5441151-.0637063.6855.1735s.0637063.5441151-.1735.6855l-16.15 9.97 15.638-9.027c.2352087-.125628.5276152-.0445694.664573.1842276.1369579.228797.070267.5248112-.151573.6727724l-15.429 9.583 14.916-8.611c.2349709-.1292146.5300387-.050062.6687925.179405.1387537.2294671.0717837.5275361-.1517925.675595l-17.47 11.063 16.953-9.788c.2352087-.125628.5276152-.0445694.664573.1842276.1369579.228797.070267.5248112-.151573.6727724l-9.077 5.639 8.564-4.945c.2356087-.1297647.5316571-.04988.6700067.1807924.1383496.2306723.0694166.5294607-.1560067.6762076l-8.435 5.273 7.921-4.572c.2352087-.125628.5276152-.0445694.664573.1842276.1369579.228797.070267.5248112-.151573.6727724l-3.612 2.242 3.1-1.789c.2337734-.1287456.5274505-.051198.667188.1761759.1397374.2273739.07627.5244122-.144188.6748241l-11.476 7.475 10.952-6.324c.2341443-.133112.5316521-.0568382.672871.1725078.1412189.2293459.075396.5293391-.148871.6784922l-9.064 5.944 8.54-4.93c.233204-.1287421.5263939-.0520483.6666872.1743946.1402933.226443.0784231.5231151-.1406872.6746054l-7.2 4.771 6.673-3.853c.2337734-.1287456.5274505-.051198.667188.1761759.1397374.2273739.07627.5244122-.144188.6748241l-3.333 2.182 2.81-1.622c.2322938-.1351768.5298928-.0625367.6737842.164462.1438914.2269988.0825928.5271392-.1387842.679538l-5.239 3.629 4.7-2.716c.2324067-.1328499.5282158-.0590851.6710333.1673329s.0819688.5251514-.1380333.6776671l-2.229 1.529 1.7-.978c.2300482-.1308569.5222207-.059778.6664488.1621318.1442281.2219099.0905463.5177734-.1224488.6748682l-2.426 1.759 1.882-1.086c.2304184-.1322364.5240189-.0611893.6684864.1617642.1444674.2229535.0893536.5199576-.1254864.6762358l-.413.3c.2236547-.0558675.456517.048417.5637666.2524761.1072497.2040591.0610848.4549952-.1117666.6075239l-1.61 1.427 1.028-.592c.2150358-.1228992.4876397-.0698481.6408929.1247234.1532532.1945714.1409636.4720174-.0288929.6522766l-.571.6c.2151301-.0494814.4374681.0465006.549.237.1373847.2389169.0555349.543953-.183.682l-2.821 1.625c-.2151117.1243892-.4889299.0719324-.6428382-.1231521s-.1411987-.4735922.0298382-.6538479l.52-.545-2.291 1.322c-.2218647.1262356-.5031961.0650788-.6526317-.1418714-.1494355-.2069502-.1189881-.4932377.0706317-.6641286l1.61-1.429-3.872 2.235c-.2304184.1322364-.5240189.0611893-.6684864-.1617642-.1444674-.2229535-.0893536-.5199576.1254864-.6762358l.26-.187-1.777 1.025c-.2300482.1308569-.5222207.059778-.6664488-.1621318-.1442281-.2219099-.0905463-.5177734.1224488-.6748682l2.426-1.76-4.5 2.6c-.23171.1276221-.5227312.0526794-.6639792-.1709853s-.08384-.5186462.1309792-.6730147l2.222-1.525-4.106 2.366c-.23158.1294027-.5239091.0554223-.6660571-.1685604-.142148-.2239828-.0846277-.5199909.1310571-.6744396l5.24-3.63-7.748 4.473c-.2330372.1238601-.5222123.0452782-.6605113-.1794907s-.0780959-.5183212.1375113-.6705093l3.335-2.184-5.252 3.034c-.233204.1287421-.5263939.0520483-.6666872-.1743946-.1402933-.226443-.0784231-.5231151.1406872-.6746054l7.2-4.768-9.738 5.617c-.2336556.130691-.5287926.0541466-.6694787-.1736308-.140686-.2277774-.0769932-.5259521.1444787-.6763692l9.072-5.95-11.778 6.8c-.2337734.1287456-.5274505.051198-.667188-.1761759-.1397374-.2273739-.07627-.5244122.144188-.6748241l11.477-7.479-14.429 8.33c-.2352087.125628-.5276152.0445694-.664573-.1842276-.1369579-.228797-.070267-.5248112.151573-.6727724l3.616-2.243-5.371 3.1c-.2350866.127347-.5287583.0472199-.6665908-.1818764-.1378325-.2290964-.071048-.5260868.1515908-.6741236l8.423-5.263-10.599 6.119c-.2356087.1297647-.5316571.04988-.6700067-.1807924-.1383496-.2306723-.0694166-.5294607.1560067-.6762076l9.085-5.643-11.26 6.5c-.2354379.13455-.5352149.0569022-.6757281-.1750261-.1405133-.2319283-.0705395-.5335888.1577281-.6799739l17.478-11.064-20.65 11.919c-.0756184.0452887-.1618652.0697828-.25.071z" fill="#ced2dc"/><path id="Path" d="m3.648 9.5c-.2185449-.00032474-.4115564-.14254843-.47659949-.35119017-.06504308-.20864174.01295514-.43535145.19259949-.55980983l1.379-.953-2.463 1.421c-.22906317.13219788-.52145682.06314799-.66718057-.15755725-.14572375-.22070523-.09436905-.51671981.11718057-.67544275l3.47-2.601-2.921 1.685c-.22941602.13348907-.52315653.06445615-.6690977-.15724684-.14594118-.22170298-.0932171-.51880432.1200977-.67675316l1-.745-.45.26c-.2192992.12676128-.49874674.06950402-.65052221-.13328841-.15177546-.20279243-.12792456-.48704664.05552221-.66171159l1.723-1.647-1.129.653c-.20323275.11656698-.46015353.07638312-.61808769-.0966724-.15793416-.17305551-.17452453-.43257004-.03991231-.6243276l.7-.994c-.22610843-.00046135-.42376794-.1526083-.48207148-.37107095-.05830354-.21846266.03726071-.44886547.23307148-.56192905l1.635-.944c.20346891-.11744382.46125941-.07739424.61950655.09624472.15824715.17363897.17426513.4340297.03849345.62575528l-.609.862 2.762-1.592c.219385-.13425453.50483439-.08016882.65990028.12503505.1550659.20520387.12915517.4945743-.05990028.66896495l-1.73 1.646 4.23-2.44c.22941602-.13348907.5231565-.06445615.6690977.15724684.1459412.22170298.0932171.51880432-.1200977.67675316l-1 .746 2.733-1.58c.2290632-.13219787.5214568-.06314799.6671806.15755725.1457237.22070524.094369.51671981-.1171806.67544275l-3.463 2.597 5.947-3.43c.2319831-.1309881.5259285-.05707946.6683699.16805269.1424414.22513216.0833463.52241-.1343699.67594731l-1.382.956 3.114-1.8c.2285788-.13297291.5211739-.06496595.667677.15518608.1465031.22015204.0962484.51631292-.114677.67581392l-4.182 3.176 6.946-4.007c.2287194-.13104292.5198877-.06201267.6654353.15776159.1455476.21977425.0954752.5147944-.1144353.67423841l-4.077 3.075 6.773-3.907c.23158-.12940266.5239091-.05542235.6660571.16856044.142148.2239828.0846277.51999085-.1310571.67443956l-1.621 1.123 3.411-1.966c.2283835-.12999717.5184238-.06101555.6638282.15788129.1454044.21889685.0965443.51299637-.1118282.67311871l-4.155 3.15 6.902-3.981c.2317427-.13536544.5290201-.06362981.6735243.16252724.1445041.22615705.084687.52606004-.1355243.67947276l-2.294 1.614 4.261-2.456c.2287194-.13104292.5198877-.06201267.6654353.15776159.1455476.21977425.0954752.5147944-.1144353.67423841l-4.1 3.105 6.815-3.937c.228924-.13423085.5228351-.06623618.6695479.15489611.1467128.22113228.0951128.51836025-.1175479.67710389l-4.074 3.073 6.77-3.905c.2318603-.13306172.527371-.0602043.6708066.16538571.1434357.22559001.0840493.52409963-.1348066.67761429l-1.86 1.3 3.71-2.143c.2266681-.13175582.5166136-.0660514.6643416.15054615.1477279.21659755.1030619.51052002-.1023416.67345385l-4.785 3.823 8.055-4.647c.2287843-.1364419.524367-.06956102.6721284.15208105s.0958119.52021113-.1181284.67891895l-4.25 3.246 7.061-4.077c.2285788-.13297291.5211739-.06496595.667677.15518608.1465031.22015204.0962484.51631292-.114677.67581392l-4.164 3.16 6.921-3.991c.2308022-.1338179.5260112-.06285643.670779.16123991.1447678.22409633.0880924.52237765-.128779.67776009l-2.96 2.125 5.142-2.964c.2283835-.12999717.5184238-.06101555.6638282.15788129.1454044.21889685.0965443.51299637-.1118282.67311871l-4.1 3.1 6.815-3.931c.2314518-.1313128.5252013-.05833565.6682918.16602591.1430904.22436156.0853808.52148787-.1312918.67597409l-2.037 1.425 3.139-1.812c.2266506-.12749151.5131906-.05996349.6590607.15531888s.1023667.50643977-.1000607.66968112l-4.058 3.2 4.289-2.475c.2299138-.13282353.5235501-.06277315.6687427.15953646.1451926.2223096.0912979.51933596-.1227427.67646354l-.776.57.237-.136c.2259042-.12776206.5120042-.06144377.6586593.15267798.1466552.21412174.1051039.50485322-.0956593.66932202l-.762.615.2-.119c.220439-.12622335.5004889-.06709988.6510942.13745749.1506054.20455737.1238973.48953139-.0620942.66254251l-.425.393c.2051909-.04021999.4137398.05148845.5227907.22989483s.0955713.40582974-.0337907.57010517l-.282.365c.2011142.04491637.354073.20861671.3852577.41231234s-.065793.40565985-.2442577.50868766l-1.614.928c-.206747.12027705-.4697217.0772839-.6274005-.10257233s-.165894-.44619551-.0195995-.63542767l.071-.091-1.438.83c-.220439.12622335-.5004889.06709988-.6510942-.13745749-.1506054-.20455737-.1238973-.48953139.0620942-.66254251l.331-.3-1.918 1.105c-.2260575.13015584-.5141897.06465955-.6617686-.15042885-.1475789-.21508839-.1050107-.50748857.0977686-.67157115l.762-.614-2.489 1.437c-.2299138.13282353-.5235501.06277315-.6687427-.15953646-.1451926-.2223096-.0912979-.51933596.1227427-.67646354l.774-.571-2.436 1.408c-.2266506.12749151-.5131906.05996349-.6590607-.15531888s-.1023667-.50643977.1000607-.66968112l4.059-3.2-6.979 4.027c-.2314518.13131281-.5252013.05833565-.6682918-.16602591-.1430904-.22436156-.0853808-.52148787.1312918-.67597409l2.039-1.43-3.939 2.274c-.2287194.13104292-.5198877.06201267-.6654353-.15776159-.1455476-.21977425-.0954752-.5147944.1144353-.67423841l4.1-3.1-6.817 3.933c-.2308022.1338179-.5260112.06285643-.670779-.16123991-.1447678-.22409633-.0880924-.52237765.128779-.67776009l2.962-2.132-5.149 2.973c-.228924.13423085-.5228351.06623618-.6695479-.15489611-.1467128-.22113228-.0951128-.51836025.1175479-.67710389l4.164-3.163-6.923 4c-.2287843.1364419-.524367.06956102-.6721284-.15208105s-.0958119-.52021113.1181284-.67891895l4.249-3.249-7.062 4.078c-.2268311.13463929-.5192384.06990751-.6680488-.14788958s-.1028302-.51373298.1050488-.67611042l4.786-3.827-8.059 4.653c-.2318603.13306172-.527371.0602043-.6708066-.16538571-.1434357-.22559001-.0840493-.52409963.1348066-.67761429l1.858-1.3-3.71 2.142c-.228924.13423085-.5228351.06623618-.6695479-.15489611-.1467128-.22113228-.0951128-.51836025.1175479-.67710389l4.075-3.077-6.774 3.913c-.228924.13423085-.5228351.06623618-.6695479-.15489611-.1467128-.22113228-.0951128-.51836025.1175479-.67710389l4.1-3.1-6.819 3.934c-.2321137.1412643-.5345566.07130005-.681052-.15754808s-.0834127-.53280084.142052-.68445192l2.3-1.621-4.261 2.464c-.228924.13423085-.5228351.06623618-.6695479-.15489611-.1467128-.22113228-.0951128-.51836025.1175479-.67710389l4.152-3.153-6.907 3.987c-.2322938.13517681-.5298928.06253672-.6737842-.16446202s-.0825928-.52713916.1387842-.67953798l1.622-1.126-3.414 1.971c-.2273772.12350177-.5114172.05312246-.65482758-.16225292-.14341039-.21537539-.09880759-.50458558.10282758-.66674708l4.076-3.08-6.774 3.911c-.22857883.13297291-.52117387.06496595-.66767697-.15518608-.1465031-.22015204-.09624839-.51631292.11467697-.67581392l4.185-3.18-6.948 4.012c-.0763844.0448495-.16342269.06833602-.252.068z" fill="#2885ee"/><path id="Path" d="m41.74 52.471c-.2176885.000684-.4108031-.1395564-.4775143-.3467721-.0667111-.2072158.0083139-.4337812.1855143-.5602279l5.092-3.664-7.067 4.08c-.2303174.1272935-.5198822.0542782-.6623044-.1670037s-.0889497-.5150841.1223044-.6719963l7.122-5.064-6.775 3.915c-.2308022.1338179-.5260112.0628564-.670779-.1612399s-.0880924-.5223777.128779-.6777601l7.768-5.579-7.227 4.172c-.2324067.1328499-.5282158.0590851-.6710333-.1673329s-.0819688-.5251514.1380333-.6776671l5.138-3.522-4.6 2.658c-.2334461.1352991-.5321345.0609722-.6749447-.1679561-.1428102-.2289282-.0782242-.5298733.1459447-.6800439l2.202-1.489-1.678.969c-.2324067.1328499-.5282158.0590851-.6710333-.1673329s-.0819688-.5251514.1380333-.6776671l1.543-1.062-1.01.583c-.2309306.1317312-.5245674.0597083-.6683337-.1639283-.1437664-.2236366-.0873821-.520673.1283337-.6760717l1.093-.778-.553.319c-.225024.1298327-.5119893.0657046-.6603401-.147566s-.108657-.5046224.0913401-.670434l2.2-1.83-1.633.943c-.2207276.1320893-.5056598.0751513-.6586724-.1316224-.1530126-.2067738-.124171-.4959044.0666724-.6683776l1-.939-.4.233c-.1919667.1146891-.436745.0879692-.5994468-.0654353-.1627017-.1534044-.2037616-.3961893-.1005532-.5945647l.511-1c-.2226746-.0086332-.4127583-.1635845-.4660957-.3799491-.0533375-.2163645.0429473-.4419104.2360957-.5530509l1.129-.651c.191905-.111225.434148-.0827258.595.07.1603325.1528099.2010245.3928923.1.59l-.445.871 2.655-1.522c.2208144-.1342809.5075757-.0781561.6614736.1294633s.1242133.4983097-.0684736.6705367l-1 .939 3.007-1.739c.2245986-.1270093.5089574-.0622563.656419.1494768.1474617.2117332.109592.5009023-.087419.6675232l-2.2 1.83 4.586-2.647c.2309306-.1317312.5245674-.0597083.6683337.1639283.1437664.2236366.0873821.520673-.1283337.6760717l-1.1.784 2.812-1.624c.23171-.1276221.5227312-.0526794.6639792.1709853s.08384.5186462-.1309792.6730147l-1.54 1.056 3.3-1.9c.23265-.1288599.5254615-.0530472.6663444.1725252s.0805297.5219566-.1373444.6744748l-2.209 1.485 3.248-1.875c.2319831-.1309881.5259285-.0570795.6683699.1680527.1424414.2251321.0833463.52241-.1343699.6759473l-5.135 3.52 4.753-2.743c.2308022-.1338179.5260112-.0628564.670779.1612399s.0880924.5223777-.128779.6777601l-7.762 5.576 7.223-4.17c.2309306-.1317312.5245674-.0597083.6683337.1639283.1437664.2236366.0873821.520673-.1283337.6760717l-7.129 5.067 6.587-3.8c.2308022-.1338179.5260112-.0628564.670779.1612399s.0880924.5223777-.128779.6777601l-5.09 3.659 4.548-2.628c.2288588-.1292299.518701-.0592157.6633326.1602346.1446317.2194502.0946742.513414-.1143326.6727654l-3.432 2.567 2.883-1.664c.2263468-.1267998.5120755-.0594093.6579064.1551704.1458308.2145797.1033101.5050523-.0979064.6688296l-2.127 1.687 1.567-.9c.2093617-.1198333.4744325-.0730979.6301877.1111103.1557553.1842081.1577794.4533598.0048123.6398897l-1.785 2.152 1.15-.663c.1972453-.1130462.4459251-.0787945.6052651.0833656.1593399.1621602.1892239.4114026.0727349.6066344l-.387.649c.1301131.0331598.2410209.1180567.307.235.1375532.2386555.0561721.5436114-.182.682l-1.137.657c-.1965985.1163841-.4474018.082447-.606-.082-.1596092-.1621556-.1896113-.4116251-.073-.607l.238-.4-1.889 1.089c-.2094231.1210892-.4754979.0748836-.6318351-.1097222-.1563373-.1846058-.1580911-.454657-.0041649-.6412778l1.785-2.161-5.047 2.912c-.2263468.1267998-.5120755.0594093-.6579064-.1551704-.1458308-.2145797-.1033101-.5050523.0979064-.6688296l2.126-1.686-4.35 2.51c-.2288588.1292299-.518701.0592157-.6633326-.1602346-.1446317-.2194502-.0946742-.513414.1143326-.6727654l3.43-2.56-5.879 3.393c-.0754832.0456007-.1618163.0701194-.25.071z" fill="#2885ee"/><path id="Path" d="m10.721 29.47c-.2223284-.0000763-.4179003-.1469477-.4799566-.36044-.0620563-.2134922.0243114-.4423157.2119566-.56156l1.107-.7-2.626 1.516c-.23344605.1352991-.53213452.0609722-.67494472-.1679561-.1428102-.2289282-.07822416-.5298733.14594472-.6800439l8.18-5.472-9.092 5.25c-.23541159.1379583-.53795774.061708-.67986369-.1713453-.14190596-.2330532-.07076502-.5368414.15986369-.6826547l2.697-1.74-2.39 1.382c-.23400272.1389988-.53620161.0652981-.67993859-.1658244-.14373699-.2311225-.07620784-.5347601.15193859-.6831756l4.759-3.182-4.232 2.443c-.22991383.1328235-.52355008.0627731-.66874271-.1595365-.14519264-.2223096-.09129791-.5193359.12274271-.6764635l6.349-4.667-5.8 3.35c-.22727134.1290292-.5155715.0612656-.66156584-.155498s-.10042617-.5093938.10456584-.671502l4.428-3.453-3.874 2.239c-.23004825.1308569-.52222067.059778-.6664488-.1621318-.14422813-.2219099-.09054634-.5177734.1224488-.6748682l.435-.316c-.21552221.0597347-.44450063-.0309188-.56072629-.2219937-.11622566-.191075-.09142745-.4360938.06072629-.6000063l2.03-2.173-1.418.819c-.20688456.1189418-.4689871.0751042-.62590769-.1046854-.15692059-.1797897-.1649156-.4454126-.01909231-.6343146l.586-.759c-.20228126-.0433732-.35696154-.2068419-.38910172-.4112091s.06489801-.4074228.24410172-.5107909l1.632-.943c.20694057-.1201272.46998341-.0768007.62746412.1033514s.16525124.446626.01853588.6356486l-.379.491 2.146-1.238c.2145941-.1228235.486738-.0703506.6402819.1234548.1535438.1938053.142373.4707366-.0262819.6515452l-2.037 2.166 5.1-2.941c.2300482-.1308569.5222207-.059778.6664488.1621318.1442281.2219099.0905463.5177734-.1224488.6748682l-.326.237 1.864-1.074c.2272713-.1290292.5155715-.0612656.6615658.155498.1459944.2167636.1004262.5093938-.1045658.671502l-4.427 3.452 7.414-4.28c.2299138-.1328235.5235501-.0627731.6687427.1595365s.0912979.5193359-.1227427.6764635l-6.351 4.665 9.534-5.5c.2344449-.1460793.5429207-.0744449.689.16s.0744449.5429207-.16.689l-4.757 3.181 6.979-4.03c.2358256-.1438702.5436298-.0693256.6875.1665.1438701.2358256.0693256.5436298-.1665.6875l-2.694 1.736 4.485-2.59c.2340027-.1389988.5362016-.0652981.6799386.1658244s.0762078.5347601-.1519386.6831756l-8.18 5.471 10.947-6.32c.2349709-.1292146.5300387-.050062.6687925.179405.1387537.2294671.0717837.5275361-.1517925.675595l-1.111.7 1.972-1.138c.2342478-.1308833.5300435-.0535271.6702262.1752769s.074765.527467-.1482262.6767231l-5.175 3.371 5.366-3.1c.232192-.1378754.5319082-.0664712.6769921.1612862.1450839.2277573.0831069.529564-.1399921.6817138l-8.315 5.817 7.894-4.557c.2300482-.1308569.5222207-.059778.6664488.1621318.1442281.2219099.0905463.5177734-.1224488.6748682l-6.425 4.664 5.882-3.4c.2328603-.1351428.5309189-.0616362.6742423.1662803.1433233.2279164.080443.5283964-.1422423.6797197l-1.189.813.657-.379c.229416-.1334891.5231565-.0644561.6690977.1572468.1459412.221703.0932171.5188044-.1200977.6767532l-2.443 1.823 1.894-1.081c.220007-.1195261.4945025-.0578939.6422936.1442135.147791.2021073.1233056.4823693-.0572936.6557865l-2.406 2.177 1.825-1.053c.1964775-.1122799.4438726-.0785993.6031841.0821178.1593114.1607172.1908174.4083986.0768159.6038822l-1.045 1.779.1-.06c.23893-.1358451.5427102-.0533708.6801373.1846528.137427.2380237.0569695.5423443-.1801373.6813472l-1.744 1.005c-.1965273.1132146-.4446422.0799672-.60443-.0809937-.1597877-.1609609-.1912192-.4093125-.07657-.6050063l1.045-1.78-4.271 2.466c-.220007.1195261-.4945025.0578939-.6422936-.1442135-.147791-.2021073-.1233056-.4823693.0572936-.6557865l2.41-2.177-5.164 2.977c-.229416.1334891-.5231565.0644561-.6690977-.1572468-.1459412-.221703-.0932171-.5188044.1200977-.6767532l2.442-1.822-4.6 2.656c-.2324067.1328499-.5282158.0590851-.6710333-.1673329s-.0819688-.5251514.1380333-.6776671l1.191-.815-2.877 1.66c-.2306768.1361239-.5276494.0662929-.6734904-.1583666s-.0887428-.5243409.1294904-.6796334l6.425-4.662-9.525 5.5c-.2314518.1313128-.5252013.0583356-.6682918-.1660259-.1430904-.2243616-.0853808-.5214879.1312918-.6759741l8.314-5.82-11.543 6.662c-.2347034.1364868-.5354374.0607325-.6774741-.1706544-.1420368-.2313868-.073465-.5338394.1544741-.6813456l5.179-3.374-7.319 4.226c-.075602.045205-.1619161.069373-.25.07z" fill="#2885ee"/><path id="Path" d="m22.47 23.058c-.2065219-.0001253-.3917162-.1272105-.4661203-.3198639s-.0227059-.4112281.1301203-.5501361l2.678-2.433c-.0230723-.1983006.0740275-.3913208.247-.491l.853-.493c.2201191-.1211079.4959248-.0600693.6443868.1426092s.1234717.48405-.0583868.6573908l-.242.22.432-.25c.2394154-.1380712.5454288-.0559154.6835.1835s.0559154.5454288-.1835.6835l-4.468 2.58c-.0757164.0449383-.1619569.0690856-.25.07z" fill="#92d149"/><path id="Path" d="m16.887 29.47c-.2123933-.0002713-.4014369-.1346967-.4714307-.3352256-.0699938-.200529-.0056612-.4233944.1604307-.5557744l5.3-4.205-8.71 5.026c-.2221262.1265945-.5039712.0652242-.6533525-.1422642-.1493814-.2074884-.1181698-.4942439.0723525-.6647358l2.676-2.37-4.375 2.529c-.2300482.1308569-.5222207.059778-.6664488-.1621318-.1442281-.2219099-.0905463-.5177734.1224488-.6748682l2.131-1.549c-.0551388-.0314143-.103694-.0731785-.143-.123-.1542249-.1949075-.141871-.4735081.029-.654l3.646-3.844c-.0523477-.2156895.0437578-.4400714.236-.551l.7-.4c.2151117-.1243892.4889299-.0719324.6428382.1231521s.1411987.4735922-.0298382.6538479l-2.095 2.209 2.841-1.642c.2300482-.1308569.5222207-.059778.6664488.1621318.1442281.2219099.0905463.5177734-.1224488.6748682l-.194.141.4-.233c.2221262-.1265945.5039712-.0652242.6533525.1422642.1493814.2074884.1181698.4942439-.0723525.6647358l-2.676 2.371 10.3-5.949c.2268147-.12995.5154475-.0632557.6622581.1530278.1468106.2162836.1022433.50915-.1022581.6719722l-5.3 4.2 6.2-3.578c.2254634-.1287726.5119753-.0635416.6594703.1501437.1474949.2136853.1068861.5047094-.0934703.6698563l-3.745 3.059 4.478-2.586c.220439-.1262233.5004889-.0670999.6510942.1374575.1506054.2045574.1238973.4895314-.0620942.6625425l-2.855 2.635 3.618-2.087c.2262112-.1327757.5165722-.0681745.6651499.1479864.1485778.2161609.1048589.5103912-.1001499.6740136l-.422.342.649-.375c.2160865-.1262428.4922254-.073282.6462727.123949.1540472.197231.1385487.4779753-.0362727.657051l-.945.973 1.327-.766c.2073837-.1210481.4715326-.0775778.6291892.1035439.1576565.1811216.1642943.4487412.0158108.6374561l-.415.531.663-.383c.23893-.1358451.5427102-.0533708.6801373.1846528.137427.2380237.0569695.5423443-.1801373.6813472l-2.889 1.668c-.2070776.118794-.4692493.0746242-.6259727-.1054616-.1567233-.1800859-.1642736-.4458451-.0180273-.6345384l.416-.533-2.2 1.273c-.2160865.1262428-.4922254.073282-.6462727-.123949-.1540472-.197231-.1385487-.4779753.0362727-.657051l.944-.972-3.042 1.753c-.2257586.1294404-.5130594.0640705-.6605892-.1503047-.1475298-.2143751-.1059565-.5060712.0955892-.6706953l.422-.343-2.016 1.164c-.2203354.1244491-.4989119.0646624-.6487785-.1392378-.1498666-.2039001-.1237692-.4876223.0607785-.6607622l2.854-2.634-5.949 3.434c-.2256098.1311968-.5141774.0668035-.6626093-.1478598-.1484318-.2146634-.1067938-.5073817.0956093-.6721402l3.745-3.059-6.717 3.879c-.0755435.0453409-.1618956.0695195-.25.07z" fill="#92d149"/><path id="Path" d="m46.906 52.471c-.2086054.000235-.3954351-.1290652-.4687058-.3243795-.0732707-.1953142-.0175829-.415593.1397058-.5526205l2.023-1.761-4.457 2.567c-.2225048.1289965-.5065753.0681522-.6567253-.1406622-.15015-.2088145-.1173946-.4974755.0757253-.6673378l3.681-3.235-7 4.04c-.228242.1318458-.5196375.063862-.6659708-.1553737-.1463332-.2192358-.0973404-.5144185.1119708-.6746263l3.973-3.029-4.386 2.531c-.2271002.1265913-.5133226.0580067-.6583864-.1577626-.1450637-.2157693-.100553-.506709.1023864-.6692374l4.117-3.2-2.75 1.587c-.2300482.1308569-.5222207.059778-.6664488-.1621318-.1442281-.2219099-.0905463-.5177734.1224488-.6748682l2.929-2.129c-.0385105-.029676-.0722367-.0650886-.1-.105-.1505073-.2057895-.1220721-.4918645.066-.664l3.384-3.094c-.027273-.2009269.0695036-.3984301.245-.5l.867-.5c.2202286-.1227467.4973928-.0623225.6465459.1409526s.1236267.4857984-.0595459.6590474l-1.05.964 1.413-.816c.2300482-.1308569.5222207-.059778.6664488.1621318.1442281.2219099.0905463.5177734-.1224488.6748682l-.589.429.832-.481c.2272713-.1290292.5155715-.0612656.6615658.155498.1459944.2167636.1004262.5093938-.1045658.671502l-4.117 3.2 4.809-2.776c.228242-.1318458.5196375-.063862.6659708.1553737.1463332.2192358.0973404.5144185-.1119708.6746263l-3.974 3.019 4.614-2.663c.2223898-.1269737.5047663-.065395.6540994.1426415.1493332.2080365.1173442.4952735-.0740994.6653585l-3.681 3.236 4.534-2.614c.2230421-.1299097.508313-.0686909.6584139.1412949.150101.2099857.1156933.4997155-.0794139.6687051l-2.018 1.761 2.542-1.471c.2203354-.1244491.4989119-.0646624.6487785.1392378.1498666.2039001.1237692.4876223-.0607785.6607622l-1.038.95 1.4-.807c.2137214-.1227494.4850125-.071451.6391595.1208586.1541469.1923095.1451658.4682619-.0211595.6501414l-.632.688.137-.079c.2374252-.1242009.5305531-.0391619.6646466.1928199.1340935.2319817.0614797.5284321-.1646466.6721801l-2.967 1.712c-.2134326.1213489-.4833915.0697812-.6370683-.1216932-.1536769-.1914744-.1455966-.4661956.0190683-.6483068l.632-.689-2.529 1.459c-.2203354.1244491-.4989119.0646624-.6487785-.1392378-.1498666-.2039001-.1237692-.4876223.0607785-.6607622l1.038-.951-3.035 1.751c-.0754237.0457373-.1617951.0702668-.25.071z" fill="#92d149"/><g fill="#262626"><path id="Shape" d="m3.809 59.388c2.861.557 6.4 0 9.3 0h44.6c.014 0 .032-.007.048-.008.111473.0001611.2224635-.0146377.33-.044 2.546-.689 2.553-2.1 2.634-4.339.134-3.667 0-7.365 0-11.035v-32.716c0-4.2 1.712-10.363-3.744-10.634-9.181-.455-18.5 0-27.69 0-8.057 0-16.688-.9-24.7 0-5.078.571-3.311 7.706-3.311 11.393v32.345c0 3.377-2.076 14.14 2.533 15.038zm54.219-.776h-47.264c-1.653 0-4.866.659-6.415 0-2.321-.986-1.625-4.076-1.625-5.991v-41.375c0-.529-.029-1.1-.067-1.7h56.619v40.984c0 1.533.97 7.27-1.248 8.082zm-55.304-55.331c.615-2.512 2.3-1.893 4.453-1.893h41.528c2.47 0 6.022-.676 8.415 0 2.45.691 2.156 2.259 2.156 4.24v2.822h-56.692c-.20251921-1.72075057-.15536546-3.46173441.14-5.169z"/><path id="Shape" d="m54.319 35.692c-2.186-.556-5.241 0-7.487 0-2.46 0-8.251-1.281-8.556 2.219-.243 2.779 0 5.687 0 8.477 0 1.25-.644 4.588.38 5.589 1.183 1.158 5.517.331 6.925.331h7.952c.0606995-.0037413.1207639-.0144791.179-.032.1858303.0028826.3703882-.031106.543-.1 1.8-.748 1.469-1.925 1.469-3.688v-9.126c0-1.638.467-3.193-1.405-3.67zm-12.006 16c-1.638 0-2.348-.033-2.589-1.753-.038-.274-.066-.552-.088-.833l7.252-7.252 3.443 3.446c.393.393 1.769-.162 1.338-.592-1.3333333-1.3333333-2.6666667-2.6666667-4-4-.316-.317-.978-.137-1.259.144l-6.822 6.818c-.005-1.613.136-3.272.136-4.816 0-1.811-.356-4.03 0-5.811.214-1.068-.343-.459.676-.735 1.0138824-.1185026 2.0381176-.1185026 3.052 0h7.525c1.642 0 2.9-.375 3.3 1.453.487 2.227 0 5.109 0 7.385 0 .917.647 5.61-.351 6.546z"/><path id="Shape" d="m35.032 15.314c-1.176-1.254-3.452-.84-4.995-.84h-12.425c-3.917 0-11-1.8-11.346 3.622-.168 2.617-.852 7.114.146 9.6.77 1.92 2.279 1.766 4.042 1.827 7.436.255 14.921 0 22.362 0h.119c.1246052-.0013539.2473064-.0307475.359-.086 2.758-.833 2.44-2.973 2.44-5.553 0-2.198.973-6.784-.702-8.57zm-2.095 13.16h-18.519c-1.186 0-2.365.142-3.4.1l5.889-6.73 2.769 2.769-.256.256c-.6.6.812.624 1.17.266l5.294-5.294 3.45 3.45c.373.373 1.747-.173 1.342-.578l-4-4c-.3-.3-.991-.109-1.256.156l-4.8 4.8c-.978-.9766667-1.9553333-1.954-2.932-2.932-.279-.279-1.124.04-1.342.289l-6.473 7.389c-1.16947357-.3074376-2.0232896-1.31134-2.139-2.515-.439-2.044-.835-8.146.627-9.669 1.488-1.551 5.622-.709 7.7-.709h11.939c2.906 0 5.543-.864 6.271 2.57.356 1.708.979 9.589-1.334 10.382z"/><path id="Path" d="m6.717 5.405h1c.36271013.02465688.71630018-.12054781.957-.393.167-.286-.143-.417-.391-.417h-1c-.36271013-.02465688-.71630018.12054781-.957.393-.167.286.144.417.391.417z"/><path id="Path" d="m12.726 5.439h1c.3656759.03183391.7231359-.1208274.953-.407.157-.292-.135-.471-.405-.471h-1c-.3656759-.03183391-.7231359.1208274-.953.407-.157.292.135.471.405.471z"/><path id="Path" d="m18.736 5.479h1c.3693758.03842336.7311742-.12322311.949-.424.146-.3-.127-.534-.421-.534h-1c-.3693758-.03842336-.7311742.12322311-.949.424-.146.297.127.534.421.534z"/><path id="Path" d="m54.721 5.421c.557 0 1.533-.842.558-.842h-6c-.557 0-1.533.842-.558.842z"/><path id="Path" d="m39.739 16.489h15c.646 0 1.5-.978.522-.978h-15c-.646 0-1.498.978-.522.978z"/><path id="Path" d="m55.282 20.59h-15c-.543 0-1.539.82-.564.82h15c.543 0 1.539-.82.564-.82z"/><path id="Path" d="m40.476 25.727c-.283 0-1.627.546-.952.546h7c.283 0 1.627-.546.952-.546z"/><path id="Path" d="m33.7 37.34c.454 0 1.566-.68.6-.68h-27c-.454 0-1.566.68-.6.68z"/><path id="Path" d="m34.063 41.464h-27c-.832 0-1.109 1.072-.126 1.072h27c.832 0 1.109-1.072.126-1.072z"/><path id="Path" d="m7.3 46.638c-.482 0-1.558.724-.59.724h27c.482 0 1.558-.724.59-.724z"/><path id="Path" d="m26.261 51.512h-19c-.644 0-1.5.976-.522.976h19c.644 0 1.498-.976.522-.976z"/></g></g></svg>