<svg height="507pt" viewBox="0 -2 507.65944 507" width="507pt" xmlns="http://www.w3.org/2000/svg"><path d="m84.960938 502.257812c-1.914063.003907-3.597657-1.265624-4.113282-3.109374-.519531-1.84375.25-3.804688 1.886719-4.800782l75.808594-46.207031-89.480469 51.667969c-2.027344 1.207031-4.644531.539062-5.847656-1.488282-1.207032-2.027343-.539063-4.644531 1.488281-5.847656l116.503906-71.304687-127.324219 73.503906c-2.015624 1.117187-4.554687.429687-5.730468-1.550781-1.179688-1.980469-.574219-4.539063 1.371094-5.777344l106.84375-65.109375-113.917969 65.773437c-2.03125 1.199219-4.648438.527344-5.847657-1.5-1.199218-2.03125-.527343-4.648437 1.503907-5.847656l78.703125-47.65625-83.160156 48c-2.015626 1.078125-4.527344.375-5.691407-1.597656-1.160156-1.972656-.558593-4.511719 1.367188-5.75l.246093-.144531-2.167968 1.242187c-2.023438 1.207032-4.640625.546875-5.847656-1.480468-1.207032-2.023438-.542969-4.640626 1.480468-5.847657l165.546875-101.445312-168.96875 97.519531c-2.03125 1.199219-4.648437.519531-5.847656-1.511719-1.195313-2.03125-.519531-4.648437 1.511719-5.84375l28.28125-16.988281-28.160156 16.210938c-2.011719 1.089843-4.527344.402343-5.699219-1.5625-1.171875-1.964844-.585938-4.507813 1.328125-5.757813l193.28125-118.894531-193.640625 111.828125c-2.011719 1.074219-4.511719.378906-5.679688-1.585938-1.164062-1.960937-.578125-4.492187 1.328125-5.742187l96.648438-58.882813-93.695313 54.078125c-2.015625 1.113282-4.554687.425782-5.730469-1.554687-1.179687-1.980469-.570312-4.535157 1.371094-5.777344l98.023438-59.953125-94.089844 54.320312c-2.023438 1.152344-4.59375.472657-5.78125-1.527343-1.1875-2.003907-.550781-4.589844 1.429688-5.808594l50.484374-30.722656-46.132812 26.660156c-2.015625 1.160156-4.589844.496094-5.789062-1.5-1.199219-1.992187-.578126-4.578125 1.394531-5.8125l145.46875-90.8125-141.074219 81.441406c-2.019531 1.21875-4.644531.570313-5.863281-1.449219-1.21875-2.019531-.566407-4.644531 1.453125-5.863281l159.707031-100.90625-155.296875 89.660157c-2.015625 1.21875-4.640625.570312-5.859375-1.449219-1.21875-2.015625-.570313-4.636719 1.449219-5.855469l143.160156-90.222656-138.75 80.101562c-1.304688.789063-2.929688.820313-4.265625.082032-1.335937-.734376-2.175781-2.125-2.207031-3.652344-.03125-1.523438.753906-2.945313 2.0625-3.734375l139.664062-88.226563-135.253906 78.121094c-2.011719 1.109375-4.539062.425781-5.71875-1.539062-1.179688-1.96875-.589844-4.519532 1.332031-5.773438l97.828125-60.953125-93.441406 53.929687c-2.011719 1.109376-4.539062.425782-5.71875-1.542968-1.179688-1.964844-.589844-4.515625 1.332031-5.769532l84.480469-52.425781-80.09375 46.214844c-2.015625 1.160156-4.589844.496094-5.789062-1.5-1.199219-1.992187-.578126-4.578125 1.394531-5.8125l93.15625-58.027344-88.746094 51.199219c-2.023437 1.207031-4.640625.542969-5.847656-1.480469-1.207031-2.023437-.542969-4.640625 1.480469-5.847656l35.957031-22.058594-31.570313 18.226563c-2.011718 1.148437-4.570312.484375-5.765625-1.496094-1.199219-1.976562-.605469-4.550781 1.34375-5.800781l130.558594-82.621094-126.171875 72.84375c-2.011719 1.125-4.550781.453125-5.738281-1.519531-1.191407-1.976563-.597657-4.535156 1.335937-5.785156l102.910156-64.523438-98.507812 56.867188c-2 1.117187-4.523438.457031-5.71875-1.496094s-.640625-4.5 1.265625-5.773438l129.210937-83.722656-124.757812 72.015625c-2.003906 1.164063-4.570312.515625-5.78125-1.457031-1.210938-1.976563-.628906-4.554688 1.316406-5.816406l104.109375-67.746094-99.644531 57.515625c-2.003906 1.101562-4.523438.429687-5.707031-1.53125-1.183594-1.957031-.613281-4.5 1.296875-5.765625l37.9375-23.992188-33.527344 19.359375c-2.015625 1.222657-4.640625.574219-5.863281-1.441406-1.21875-2.015625-.574219-4.640625 1.441406-5.863281l21.785156-13.789063-17.363281 10.027344c-1.289062.816406-2.917969.882813-4.269531.175781-1.351563-.707031-2.222657-2.085937-2.289063-3.609375-.0625-1.527343.695313-2.96875 1.984375-3.785156l81.066407-56.320313-76.492188 44.140626c-1.980469 1.121093-4.488281.488281-5.703125-1.433594-1.214844-1.917969-.710937-4.457032 1.144531-5.765625l50.894532-35.183594-46.335938 26.75c-1.972656 1.160156-4.507812.554687-5.746094-1.367187-1.238281-1.925782-.742187-4.480469 1.128906-5.800782l38.921876-27.78125-32.769532 18.917969c-1.933594 1.09375-4.382812.523437-5.632812-1.316406-1.265625-1.84375-.894532-4.355469.855468-5.75l31.914063-24.695313-21.144531 12.191406c-1.90625 1.082032-4.320313.542969-5.585938-1.242187-1.269531-1.789063-.972656-4.246094.679688-5.683594l18.386718-15.71875c-1.492187-.628906-2.5-2.050781-2.601562-3.667969-.101562-1.617187.722656-3.152343 2.125-3.960937l29.3125-16.921875c1.910156-1.101562 4.34375-.570312 5.617188 1.230469 1.273437 1.800781.964843 4.273437-.710938 5.707031l-11.375 9.71875 35.386719-20.394531c1.941406-1.109375 4.410156-.527344 5.65625 1.328125 1.246093 1.855468.851562 4.359375-.910157 5.738281l-31.855468 24.652344 55.074218-31.785157c1.96875-1.125 4.476563-.511718 5.703126 1.398438 1.226562 1.90625.746093 4.441406-1.09375 5.769531l-38.9375 27.78125 60.585937-34.984375c1.976563-1.117187 4.488281-.488281 5.703125 1.433594s.710938 4.457031-1.148438 5.769531l-50.917968 35.199219 73.507812-42.4375c1.976563-1.136719 4.5-.511719 5.722656 1.410156 1.222657 1.925782.71875 4.472656-1.148437 5.785156l-80.984375 56.320313 110.082031-63.539063c2.015625-1.222656 4.640625-.578124 5.863281 1.441407 1.21875 2.015625.574219 4.640625-1.445312 5.859375l-21.800781 13.800781 36.597656-21.128906c2.019531-1.21875 4.640625-.570313 5.859375 1.445312 1.21875 2.019531.570312 4.640625-1.445312 5.859375l-37.972657 23.988282 54.277344-31.34375c2.003906-1.164063 4.570313-.519532 5.78125 1.457031 1.214844 1.972656.628906 4.554687-1.316406 5.8125l-104.105469 67.761719 130.03125-75.089844c2.007812-1.230469 4.636719-.597656 5.863281 1.410156 1.230469 2.011719.597657 4.636719-1.410156 5.867188l-129.160156 83.71875 157.660156-91.015626c2.007813-1.085937 4.511719-.402343 5.6875 1.550782 1.179687 1.957031.609375 4.492187-1.292969 5.753906l-102.910156 64.519531 105.035156-60.636719c2.011719-1.148437 4.566406-.484374 5.765625 1.492188 1.199219 1.980469.601563 4.554688-1.34375 5.804688l-130.527343 82.609374 125.289062-72.328124c2.007812-1.058594 4.492188-.359376 5.652344 1.59375 1.164062 1.949218.59375 4.46875-1.292969 5.730468l-35.902344 22.03125 32.71875-18.902344c2.023438-1.210937 4.644531-.558593 5.859375 1.464844 1.210938 2.023438.558594 4.644532-1.464844 5.859375l-93.140624 58.066407 91.390624-52.75c2.011719-1.109376 4.539063-.425782 5.71875 1.542968 1.179688 1.964844.589844 4.515625-1.332031 5.769532l-84.480469 52.4375 84.070313-48.539063c2.023437-1.210937 4.644531-.554687 5.855469 1.46875 1.210937 2.019531.554687 4.640625-1.46875 5.851563l-97.84375 60.929687 99.285156-57.328125c1.304688-.785156 2.933594-.820312 4.265625-.082031 1.335937.734375 2.175781 2.128906 2.207031 3.652343.03125 1.523438-.753906 2.945313-2.058594 3.734376l-139.691406 88.242187 143.898438-83.035156c2.015625-1.21875 4.636718-.570313 5.855468 1.445312s.570313 4.640625-1.445312 5.859375l-143.121094 90.152344 149.761719-86.457031c2.015625-1.21875 4.636719-.570313 5.855469 1.445312s.570312 4.640625-1.445313 5.859375l-159.71875 100.921875 170.121094-98.226562c2.015625-1.164063 4.589844-.496094 5.789063 1.5 1.199218 1.992187.578124 4.578125-1.394532 5.8125l-145.503906 90.847656 157.714844-91.050781c2.015625-1.097656 4.539062-.402344 5.710937 1.574218 1.167969 1.976563.566407 4.523438-1.367187 5.761719l-50.492188 30.722657 60.007813-34.636719c2.011719-1.078125 4.515625-.378907 5.679687 1.582031 1.164063 1.964844.578125 4.496094-1.328125 5.746094l-97.84375 59.835937 114.535157-66.125c2.007812-1.042969 4.484374-.339843 5.640624 1.609375 1.152344 1.949219.585938 4.460938-1.296874 5.722656l-96.691407 58.878907 145.96875-84.234375c2.019531-1.113282 4.554688-.425782 5.734375 1.554687 1.175782 1.980469.570313 4.539063-1.371094 5.777344l-193.203124 118.851563 188.839843-109.019532c2.023438-1.128906 4.574219-.4375 5.753907 1.558594 1.175781 1.992188.546874 4.5625-1.417969 5.785156l-28.390625 17.066406 24.054687-13.882812c2.027344-1.203125 4.648438-.535156 5.851563 1.488281 1.203125 2.027344.535156 4.648438-1.488282 5.851563l-165.574218 101.460937 161.210937-93.011719c2.019531-1.082031 4.53125-.378906 5.691407 1.59375 1.164062 1.972657.5625 4.511719-1.363282 5.753907l-3.644531 2.183593c2.082031-.800781 4.425781.132813 5.386719 2.144532.957031 2.011718.207031 4.421875-1.726563 5.535156l-78.503906 47.5625 74.238281-42.835938c2.015625-1.097656 4.539063-.402343 5.710938 1.574219 1.167968 1.976563.566406 4.523438-1.367188 5.765625l-107.136718 65.183594 102.714843-59.296875c2.015625-1.074219 4.515625-.378906 5.679688 1.585937 1.167969 1.960938.582031 4.492188-1.328125 5.746094l-116.511719 71.320313 112.160156-64.75c2.011719-1.046875 4.488281-.339844 5.640625 1.609375 1.15625 1.949218.585938 4.460937-1.296875 5.71875l-75.808593 46.21875 71.464843-41.261719c2.019531-1.113281 4.554688-.425781 5.734375 1.554687 1.175782 1.980469.570313 4.539063-1.371094 5.777344l-102.460937 63.144532 98.132813-56.625c2.007812-1.074219 4.503906-.378907 5.671874 1.570312 1.167969 1.953125.597657 4.480469-1.292968 5.742188l-110.398438 68.523437 105.984375-61.140625c2.023438-1.152344 4.597657-.472656 5.785157 1.53125 1.1875 2 .550781 4.585938-1.433594 5.804688l-22.183594 13.542968 17.816406-10.238281c2.007813-1.179687 4.589844-.527344 5.800782 1.460937 1.210937 1.988282.605468 4.582032-1.363282 5.824219l-130.882812 84.011719 126.460937-72.984375c2.007813-1.074219 4.503907-.382813 5.671875 1.570313 1.167969 1.953124.601563 4.480468-1.292968 5.742187l-41.589844 25.863281 37.210937-21.46875c1.996094-1.054687 4.464844-.378906 5.640625 1.546875 1.175782 1.925781.648438 4.433594-1.203125 5.722657l-88.949219 57.378906 84.480469-48.792969c1.996094-1.136719 4.535157-.484375 5.742188 1.472656 1.203125 1.957031.640625 4.515625-1.273438 5.789063l-80.339843 52.640625 75.871093-43.800781c1.992188-1.132813 4.523438-.488282 5.734375 1.457031 1.207032 1.949219.660156 4.503906-1.238281 5.789062l-69.273437 46.207031 64.777343-37.394531c1.984375-1.082031 4.472657-.429687 5.667969 1.496094 1.195312 1.921875.679688 4.441406-1.171875 5.742187l-44.65625 29.773438 40.160156-23.1875c1.96875-1.121094 4.476563-.507812 5.703125 1.398438 1.226563 1.910156.746094 4.445312-1.097656 5.769531l-52.332031 37.214843 47.246093-27.304687c1.960938-1.125 4.453126-.527344 5.691407 1.363281 1.238281 1.886719.789062 4.414063-1.023438 5.761719l-37.066406 27.449219 29.421875-16.988282c1.9375-1.132812 4.417969-.570312 5.679688 1.285157 1.261718 1.855469.871093 4.371093-.894532 5.753906l-23.304687 18.484375 8.859375-5.121094c2.027344-1.058594 4.527344-.332031 5.671875 1.644532 1.144531 1.980468.523437 4.511718-1.40625 5.738281l-58.699219 33.910156c-1.933594 1.125-4.410156.5625-5.667969-1.285156-1.261719-1.847657-.882812-4.355469.871094-5.746094l23.296875-18.507813-45.226562 26.078126c-1.960938 1.121093-4.453126.523437-5.691407-1.367188-1.234375-1.886719-.789062-4.410156 1.023438-5.757812l37.085937-27.386719-59.734375 34.511719c-1.964843 1.085937-4.433593.460937-5.652343-1.425782-1.214844-1.890625-.757813-4.394531 1.046874-5.734375l52.351563-37.230469-76.902344 44.371094c-1.988281 1.117188-4.503906.46875-5.710937-1.464844-1.203125-1.9375-.675782-4.476562 1.203125-5.769531l44.648437-29.757812-64.085937 36.992187c-1.988281 1.085938-4.472657.429688-5.667969-1.492187s-.679688-4.441407 1.171875-5.742188l69.28125-46.21875-92.605469 53.453125c-1.988281 1.085938-4.480468.421875-5.671875-1.507812-1.1875-1.929688-.660156-4.453125 1.203125-5.746094l80.332032-52.632812-103.742188 59.886718c-1.996094 1.085938-4.488281.414063-5.671875-1.523437-1.1875-1.9375-.644531-4.460938 1.226563-5.746094l88.953124-57.351563-111.957031 64.621094c-2.011719 1.109375-4.539062.425782-5.71875-1.542968-1.179687-1.96875-.59375-4.515626 1.332031-5.769532l41.632813-25.890625-57.546875 33.203125c-2 1.101563-4.511719.433594-5.699219-1.515625s-.632812-4.488281 1.261719-5.761719l130.867188-84.027343-158.183594 91.304687c-2.011719 1.078125-4.515625.378906-5.679688-1.582031-1.164062-1.964844-.578125-4.496094 1.328125-5.746094l22.1875-13.578125-36.226562 20.90625c-2.011719 1.164063-4.589844.496094-5.785157-1.496094-1.199218-1.996093-.578124-4.582031 1.390626-5.816406l110.3125-68.574218-131.449219 75.886718c-2.011719 1.09375-4.523438.402344-5.695313-1.5625s-.585937-4.503906 1.328125-5.757812l102.527344-63.148438-122.070313 70.46875c-.644531.390625-1.386718.597656-2.140624.597656zm0 0" fill="#457393"/><path d="m399.429688 194.128906c-1.824219-.023437-3.4375-1.203125-4.003907-2.941406-.566406-1.738281.035157-3.644531 1.496094-4.738281l32.871094-23.84375-47.410157 27.375c-2 1.1875-4.578124.558593-5.804687-1.414063s-.648437-4.5625 1.296875-5.828125l10.839844-7.230469-17.921875 10.34375c-1.964844 1.128907-4.472657.523438-5.703125-1.378906-1.234375-1.90625-.761719-4.4375 1.070312-5.773437l64-46.257813-75.648437 43.671875c-1.992188 1.15625-4.539063.523438-5.757813-1.433593-1.21875-1.953126-.667968-4.519532 1.242188-5.800782l43.019531-29.03125-48.199219 27.820313c-1.980468 1.132812-4.507812.503906-5.726562-1.429688-1.21875-1.929687-.699219-4.480469 1.179687-5.78125l61.703125-42.460937-67.085937 38.746094c-1.980469 1.078124-4.453125.429687-5.652344-1.476563-1.195313-1.90625-.707031-4.414063 1.121094-5.730469l58.304687-39.671875-61.140625 35.300781c-1.988281 1.152344-4.53125.519532-5.75-1.425781-1.222656-1.949219-.679687-4.515625 1.230469-5.800781l55.867188-37.863281-56.636719 32.691406c-1.980469 1.117187-4.488281.488281-5.703125-1.433594s-.710938-4.457031 1.144531-5.769531l60.9375-42.035156-60.535156 34.988281c-1.992188 1.082031-4.480469.417969-5.671875-1.507813-1.1875-1.929687-.660156-4.453124 1.199218-5.746093l16.265626-10.667969-12.960938 7.476562c-1.992188 1.082032-4.484375.421876-5.671875-1.507812-1.191406-1.929688-.664063-4.453125 1.199219-5.746094l9.753906-6.417968-5.972656 3.414062c-1.988282 1.085938-4.476563.429688-5.667969-1.492188-1.195313-1.921874-.683594-4.441406 1.171875-5.742187l13.652344-9.089844-8.125 4.695313c-1.941406 1.105468-4.410156.527344-5.65625-1.328125s-.847656-4.359375.914062-5.738281l50.550782-39.015626-38.128907 22.09375c-1.875 1.007813-4.207031.476563-5.460937-1.246093-1.257813-1.71875-1.050782-4.101563.476562-5.582031l26.054688-23.433594c-1.703125.238281-3.371094-.597656-4.207032-2.097656-1.175781-2.035157-.480468-4.636719 1.550782-5.820313l32.710937-18.875c1.890625-1.089844 4.300781-.578125 5.582031 1.191406 1.285157 1.765625 1.023438 4.21875-.597656 5.679688l-24.808594 22.183593 57.789063-33.320312c1.941406-1.085938 4.390625-.5 5.628906 1.347656s.847657 4.335938-.894531 5.71875l-50.484375 38.988282 70.121094-40.484376c1.992187-1.132812 4.523437-.488281 5.734375 1.460938 1.207031 1.945312.660156 4.503906-1.238282 5.785156l-13.738281 9.113282 20.191407-11.65625c2-1.199219 4.597656-.566407 5.820312 1.421874 1.226562 1.984376.628906 4.589844-1.34375 5.839844l-9.90625 6.484375 14.191406-8.191406c1.996094-1.097656 4.5-.4375 5.695313 1.503906 1.191406 1.941407.648437 4.476563-1.230469 5.757813l-16.035156 10.496094 19.941406-11.519532c1.980469-1.117187 4.488281-.488281 5.703125 1.433594s.710937 4.457031-1.144531 5.769531l-60.945313 42.078125 67.011719-38.691406c1.992188-1.179688 4.558594-.558594 5.789062 1.40625 1.230469 1.960938.671876 4.542969-1.257812 5.820312l-55.859375 37.828126 58.878906-33.96875c1.984375-1.117188 4.496094-.480469 5.707031 1.449218 1.207032 1.929688.691407 4.46875-1.175781 5.769532l-58.308593 39.664062 60.238281-34.773438c1.984375-1.136718 4.507812-.507812 5.726562 1.425782s.699219 4.480468-1.179687 5.78125l-61.722656 42.472656 62.117187-35.839844c1.992187-1.15625 4.539063-.519531 5.757813 1.433594s.667968 4.519531-1.246094 5.800781l-43.058594 29.015625 40.378906-23.304687c1.960938-1.09375 4.433594-.476563 5.65625 1.40625 1.21875 1.882812.773438 4.390625-1.019531 5.734375l-63.941406 46.25 59.398437-34.363282c1.996094-1.132812 4.527344-.488281 5.734375 1.460938 1.210938 1.945312.664063 4.503906-1.234375 5.785156l-10.820312 7.210938 5.007812-2.882813c1.964844-1.117187 4.457032-.511719 5.6875 1.382813 1.230469 1.890625.773438 4.417968-1.046875 5.757812l-32.878906 23.894532 21.921875-12.65625c1.976562-1.136719 4.496094-.523438 5.726562 1.394531 1.226563 1.917969.734376 4.464843-1.125 5.78125l-10.488281 7.425781c1.714844.382812 3.019531 1.78125 3.28125 3.519531.265625 1.738281-.5625 3.460938-2.085937 4.339844l-66.644532 38.476563c-1.96875 1.09375-4.453124.472656-5.667968-1.425782-1.21875-1.894531-.75-4.410156 1.066406-5.742187l.539062-.386719-13.378906 7.722656c-.652344.363282-1.390625.546875-2.136718.53125zm0 0" fill="#9ed26a"/><path d="m333.007812 433.222656c-1.386718.003906-2.6875-.667968-3.488281-1.800781s-1.003906-2.582031-.539062-3.890625l4.070312-11.5-14.855469 8.53125c-1.757812 1.003906-3.972656.636719-5.3125-.875-1.339843-1.511719-1.4375-3.757812-.226562-5.378906l9.675781-12.878906-19.394531 11.1875c-1.804688 1.039062-4.097656.621093-5.421875-.984376-1.324219-1.605468-1.292969-3.933593.070313-5.507812l17.5625-20.128906-30.054688 17.347656c-1.90625 1.09375-4.328125.5625-5.601562-1.226562-1.273438-1.789063-.980469-4.253907.675781-5.695313l16.164062-13.960937-24.390625 14.082031c-1.9375 1.085937-4.390625.5-5.628906-1.347657-1.238281-1.847656-.847656-4.335937.894531-5.71875l10.699219-8.253906-16.792969 9.6875c-1.941406 1.109375-4.410156.527344-5.65625-1.328125-1.246093-1.855469-.847656-4.359375.914063-5.738281l19.914062-15.410156-28.695312 16.585937c-1.960938 1.136719-4.46875.539063-5.707032-1.359375-1.238281-1.898437-.78125-4.433594 1.046876-5.773437l21.332031-15.675781-112.03125 64.667968c-2 1.117188-4.523438.457032-5.71875-1.496094-1.199219-1.953124-.640625-4.503906 1.261719-5.777343l75.640624-48.945313-72.535156 41.863282c-2.007812 1.179687-4.589844.527343-5.800781-1.460938s-.601563-4.582031 1.367187-5.824219l94.878907-60.820312-87.363281 50.449219c-2 1.085937-4.5.410156-5.679688-1.535157-1.179688-1.949219-.625-4.476562 1.261719-5.75l66.140625-41.984375-59.09375 34.132813c-1.996094 1.1875-4.574219.558593-5.800782-1.414063-1.226562-1.972656-.652343-4.5625 1.292969-5.832031l100.398438-67.054687-92.246094 53.25c-1.980469 1.101562-4.476563.460937-5.683594-1.457032-1.210937-1.917968-.707031-4.445312 1.144531-5.753906l86.058594-58.796875-77.875 44.964844c-1.992187 1.179687-4.5625.554687-5.792968-1.40625-1.226563-1.960938-.667969-4.542969 1.261718-5.824219l56.507813-38.328125-52.824219 30.488281c-1.96875 1.140625-4.488281.535156-5.722656-1.375-1.234375-1.914062-.753906-4.460937 1.097656-5.785156l63.71875-45.796875-71.175781 41.085937c-1.976563 1.121094-4.480469.5-5.703125-1.417968-1.222656-1.914063-.726563-4.449219 1.121094-5.765625l59.347656-41.625-65.917969 38.046875c-1.984375 1.136718-4.507813.507812-5.726563-1.425782-1.21875-1.933593-.699218-4.480468 1.175782-5.78125l54.613281-37.546874-60.355469 34.847656c-1.996094 1.136718-4.535156.484375-5.742187-1.472656-1.203125-1.957032-.640625-4.515626 1.273437-5.789063l22.78125-14.925781-25.847656 14.917968c-1.925781 1.105469-4.378906.546876-5.636719-1.28125-1.257812-1.832031-.902343-4.320312.816407-5.722656l20.164062-16.335937-24.746094 14.277343c-1.871094 1.144532-4.308594.683594-5.632812-1.066406-1.320313-1.75-1.101563-4.222656.511718-5.707031l12.605469-12.042969-16.914062 9.761719c-1.402344.808594-3.136719.753906-4.488281-.136719-1.347657-.894531-2.074219-2.472656-1.878907-4.078125l1.554688-12.542969-3.804688 2.199219c-1.324219.84375-3 .890625-4.371093.125-1.367188-.761719-2.207032-2.214843-2.1875-3.78125.023437-1.566406.902343-2.996093 2.289062-3.722656l11.238281-6.496094c1.402344-.804687 3.140625-.753906 4.488281.140625 1.347657.894532 2.074219 2.472656 1.878907 4.078125l-1.554688 12.542969 40.3125-23.253906c1.871094-1.144532 4.308594-.683594 5.632813 1.066406 1.324218 1.75 1.101562 4.222656-.511719 5.707031l-12.628906 12 40.890625-23.601562c1.925781-1.085938 4.359375-.523438 5.613281 1.300781 1.25 1.820312.902344 4.296875-.800781 5.703125l-20.179688 16.339844 109.917969-63.460938c1.996094-1.136719 4.535156-.484375 5.742187 1.472657 1.203126 1.957031.640626 4.515624-1.273437 5.789062l-22.738281 14.898438 22.765625-13.140626c1.984375-1.175781 4.546875-.558593 5.78125 1.390626 1.234375 1.953124.691406 4.53125-1.222657 5.820312l-54.613281 37.546875 56.222657-32.425781c1.976562-1.121094 4.484374-.5 5.703124 1.414062 1.222657 1.917969.730469 4.453125-1.121093 5.769532l-59.296875 41.601562 61.507812-35.507812c1.960938-1.023438 4.378906-.382813 5.570313 1.480468 1.191406 1.863282.765625 4.328125-.988281 5.679688l-63.734376 45.824218 80.570313-46.507812c1.984375-1.085938 4.46875-.4375 5.667969 1.476562 1.199218 1.914063.699218 4.433594-1.144532 5.742188l-56.515624 38.347656 73.558593-42.46875c1.984375-1.152344 4.53125-.527344 5.753907 1.417969 1.222656 1.945313.683593 4.507813-1.214844 5.800781l-86.042969 58.777344 107.785156-62.226562c1.992188-1.132813 4.527344-.488282 5.734375 1.460937 1.210938 1.949219.664063 4.503906-1.238281 5.785156l-100.375 67.0625 122.152344-70.507812c2.003906-1.085938 4.5-.410157 5.683593 1.535156 1.179688 1.949219.625 4.476563-1.261718 5.75l-66.175782 42.011719 70.535157-40.765625c2-1.097657 4.511719-.429688 5.699219 1.519531s.632812 4.484375-1.261719 5.761719l-94.847657 60.824219 58.941407-34.023438c1.996093-1.117188 4.523437-.457031 5.71875 1.496094 1.195312 1.953125.636719 4.5-1.265625 5.773437l-75.683594 48.972657 33.613281-19.402344c1.960938-1.132813 4.46875-.535156 5.707031 1.359375 1.238282 1.898437.78125 4.433593-1.046874 5.773437l-21.332032 15.675782 16.210938-9.386719c1.941406-1.109375 4.410156-.527344 5.65625 1.328125 1.25 1.855468.851562 4.359375-.910156 5.738281l-19.917969 15.359375 17.339843-10.007812c1.945313-1.144532 4.445313-.574219 5.703126 1.300781 1.257812 1.875.835937 4.402343-.957032 5.773437l-10.726562 8.265625 7.859375-4.53125c1.902343-1.09375 4.328125-.5625 5.601562 1.226563 1.273438 1.789062.980469 4.253906-.679687 5.695312l-16.160156 13.984375 13.507812-7.789062c1.808594-1.050781 4.109375-.632813 5.4375.980469 1.324219 1.613281 1.289062 3.949218-.085938 5.523437l-17.554687 20.121094 15.292969-8.824219c1.753906-1.003906 3.972656-.636719 5.3125.875s1.433594 3.757812.222656 5.378906l-9.699219 12.953125 6.773438-3.90625c1.546875-.898437 3.492187-.734375 4.867187.410157 1.378906 1.140624 1.894532 3.023437 1.292969 4.707031l-4.085937 11.539062c2.078124-.910156 4.507812-.027343 5.523437 2 1.015625 2.03125.265625 4.5-1.710937 5.621094l-9.539063 5.511719c-.648437.371094-1.382813.566406-2.132813.570312zm0 0" fill="#ffd67b"/><path d="m197.6875 229.660156c-1.839844 0-3.46875-1.175781-4.050781-2.917968-.578125-1.742188.019531-3.660157 1.488281-4.761719l16.214844-12.382813-2.558594 1.460938c-1.933594 1.140625-4.421875.589844-5.691406-1.261719-1.265625-1.851563-.882813-4.371094.875-5.761719l12.691406-10.238281c-1.910156.578125-3.964844-.242187-4.949219-1.976563-.984375-1.734374-.636719-3.917968.835938-5.261718l13.125-11.945313c-1.40625.183594-2.8125-.324219-3.773438-1.367187-1.347656-1.492188-1.46875-3.726563-.289062-5.359375l13.328125-18.421875c-.554688-.371094-1.019532-.863282-1.355469-1.441406-1.179687-2.042969-.480469-4.652344 1.5625-5.828126l9.480469-5.46875c1.738281-1 3.941406-.648437 5.285156.839844 1.34375 1.488282 1.46875 3.714844.300781 5.34375l-9.941406 13.84375 14.253906-8.21875c1.878907-1.046875 4.242188-.53125 5.515625 1.203125 1.273438 1.734375 1.054688 4.144531-.507812 5.625l-12.109375 11.023438 12.398437-7.160157c1.933594-1.117187 4.398438-.558593 5.660156 1.285157 1.257813 1.839843.886719 4.34375-.855468 5.738281l-12.082032 9.710938 12.132813-6.996094c1.945313-1.101563 4.414063-.515625 5.652344 1.347656 1.242187 1.859375.832031 4.363281-.933594 5.734375l-16.210937 12.390625 16.484374-9.515625c2.027344-1.058594 4.527344-.332031 5.671876 1.644531 1.144531 1.980469.523437 4.511719-1.40625 5.738282l-74.09375 42.785156c-.652344.382812-1.394532.578125-2.148438.570312zm0 0" fill="#ffd67b"/><g fill="#262626"><path d="m311.351562 68.773438h-133.378906c-38.203125 0-87.492187-7.765626-124.191406 6.246093-47.925781 18.269531-53.503906 61.234375-53.503906 105.636719v186.304688c0 47.132812-6.605469 102.078124 44.808594 126.355468 32.519531 15.359375 80.835937 7.738282 115.199218 7.738282h182.742188c36.121094 0 74.117187 4.078124 103.457031-21.921876 39.320313-34.847656 26.949219-101.109374 26.949219-147.984374v-161.28125c20.578125-18.929688 32.875-45.199219 34.226562-73.128907-6.273437-116.582031-169.019531-125.851562-196.308594-27.964843zm146.515626 375.84375c-19.191407 63.949218-101.71875 50.824218-152.15625 50.824218h-181.097657c-12.679687 0-25.785156.914063-38.457031 0-46.882812-3.363281-71.449219-37.28125-73.523438-81.023437-2.320312-49.144531 0-98.988281 0-148.191407 0-42.863281-9.4375-98.925781 3.199219-141.011718 20.566407-68.515625 119.953125-50.824219 173.472657-50.824219h91.863281c5.570312 0 22.5625-2.878906 28.832031-.480469-1.714844 7.785156-2.59375 15.734375-2.617188 23.707032.003907 3.863281.246094 7.71875.714844 11.554687 0 .535156.050782 1.039063.105469 1.449219 2.484375 25.082031 15.511719 47.921875 35.839844 62.824218 17.347656 14.148438 39 21.972657 61.386719 22.183594 19.742187.242188 39.109374-5.367187 55.664062-16.125v121.886719c-.019531 43.921875 9.667969 100.320313-3.226562 143.226563zm-67.480469-260.660157c-14.214844-2.808593-27.453125-9.28125-38.402344-18.773437-23.089844-22.738282-34.175781-54.996094-29.941406-87.125 9.101562-43.539063 49.285156-73.425782 93.601562-69.625 46.574219 4.933594 77.074219 44.519531 79.472657 89.148437-3.117188 55.066407-47.769532 97.203125-104.730469 86.375zm0 0"/><path d="m307.679688 229.0625c-23.175782-12.472656-36.691407-62.691406-48.398438-86.117188-.0625-.121093-.230469-.160156-.324219-.253906s0-.148437 0-.179687l-7.679687-4.761719c-2.707032-1.707031-8.195313.484375-10.558594 1.945312-29.386719 18.117188-26.496094 72.027344-52.605469 89.683594-13.835937 9.34375-52.175781 7.5-68.695312 9.875-14.507813 2.089844-21.613281 1.988282-32.734375 11.296875-.394532.253907-.621094.707031-.585938 1.179688 5.230469 20.957031 31.835938 37.476562 46.929688 52.050781 23.273437 22.453125 23.5625 28.859375 18.066406 60.585938-4.703125 27.144531-25.445312 80.726562 19.03125 61.9375 19.546875-8.261719 52.113281-38.152344 72.941406-37.957032 16.945313.152344 51.199219 26.8125 67.984375 35.363282 8.882813 4.53125 19.515625 12.3125 29.925781 6.765624 15.285157-8.140624 6.050782-27.957031 3.6875-41.566406-4.964843-28.699218-17.917968-55.746094 2.917969-77.96875 17.066407-18.167968 50.953125-37.085937 57.175781-61.933594.105469-.167968.136719-.367187.085938-.558593-.050781-.191407-.179688-.351563-.351562-.441407-25.269532-21.121093-69.121094-4.054687-96.8125-18.945312zm82.441406 30.902344c-1.9375 10.878906-32.742188 31.570312-40.960938 39.515625-9.472656 9.140625-24.839844 18.476562-27.417968 32.25-3.234376 17.261719 25.722656 87.617187 11.949218 93.53125-7.210937 3.105469-47.789062-24.882813-55.1875-28.714844-11.585937-6.03125-21.042968-13.789063-34.457031-12.5-28.320313 2.703125-53.632813 40.25-81.152344 40.652344-15.828125.230469-6.304687-24.609375-3.8125-39.007813 2.703125-15.589844 12.570313-40.675781 9.753907-56.277344-5.582032-30.90625-53.914063-42.9375-66.109376-70.226562-6.230468-13.9375-3.089843-10.753906 8.023438-14.507812 13.410156-3.117188 27.066406-5.078126 40.8125-5.871094 12.042969-1.707032 31.097656-.851563 42.34375-6.878906 16.972656-9.105469 44.3125-89.523438 53.1875-85.253907 11.5625 23.441407 24.578125 73.171875 47.460938 86.578125 15.925781 9.285156 100.398437-.453125 95.566406 26.710938zm0 0"/><path d="m34.410156 406.035156v17.066406c0 2.367188 12.355469.503907 12.355469-3.308593v-17.066407c0-2.363281-12.355469-.503906-12.355469 3.308594zm0 0"/><path d="m34.308594 199.980469v170.667969c0 6.726562 12.558594 5.121093 12.558594-.800782v-170.667968c0-6.722657-12.558594-5.09375-12.558594.800781zm0 0"/><path d="m46.765625 163.792969v-17.066407c0-2.433593-12.355469-.554687-12.355469 3.308594v17.066406c0 2.433594 12.355469.554688 12.355469-3.308593zm0 0"/><path d="m462.714844 94.621094h-48.9375v-49.144532c0-6.339843-12.511719-4.410156-12.511719 1.007813v48.136719h-40.960937c-2.710938 0-14.019532 5.171875-7.984376 5.171875h48.9375v49.117187c0 6.339844 12.507813 4.410156 12.507813-1.007812v-48.160156h40.960937c2.714844 0 14.019532-5.121094 7.988282-5.121094zm0 0"/></g></svg>