<svg height="510pt" viewBox="0 -4 510.93788 510" width="510pt" xmlns="http://www.w3.org/2000/svg"><path d="m48.867188 501.539062c-1.917969.003907-3.605469-1.277343-4.121094-3.125-.511719-1.851562.273437-3.816406 1.921875-4.804687l57.847656-34.839844-73.074219 42.160157c-2.011718 1.0625-4.503906.359374-5.660156-1.601563-1.160156-1.960937-.574219-4.484375 1.328125-5.734375l90.726563-54.714844-100.695313 58.109375c-2.015625 1.082031-4.527344.378907-5.691406-1.59375-1.160157-1.972656-.558594-4.511719 1.367187-5.753906l60.304688-36.195313-61.355469 35.445313c-2.015625 1.113281-4.554687.429687-5.730469-1.550781-1.179687-1.980469-.574218-4.539063 1.371094-5.777344l197.929688-120.886719-194.859376 112.496094c-2.007812 1.058594-4.492187.359375-5.65625-1.589844-1.160156-1.949219-.589843-4.46875 1.296876-5.730469l224.058593-137.53125-219.699219 126.839844c-2.007812 1.058594-4.492187.359375-5.65625-1.59375-1.160156-1.949218-.589843-4.46875 1.296876-5.730468l224.691406-137.929688-220.332032 127.195312c-2.011718 1.078126-4.515624.378907-5.679687-1.585937-1.164063-1.960937-.578125-4.492187 1.328125-5.742187l190.140625-115.933594-185.789063 107.253906c-2.015624 1.097656-4.539062.402344-5.710937-1.574219-1.167969-1.976562-.566406-4.523437 1.367187-5.765625l154.242188-93.625-149.898438 86.542969c-2.027343 1.199219-4.644531.527344-5.84375-1.5-1.199218-2.03125-.527343-4.648437 1.5-5.847656l136.386719-82.867188-132.042969 76.238281c-2.027343 1.199219-4.644531.527344-5.84375-1.503906-1.199218-2.027344-.527343-4.644531 1.5-5.84375l91.734376-55.542968-87.390626 50.449218c-2.011718 1.089844-4.523437.398438-5.699218-1.566406-1.171875-1.964844-.585938-4.503906 1.332031-5.757812l165.605469-102.226563-161.238282 93.082031c-2.007812 1.070313-4.503906.378906-5.671874-1.574218-1.167969-1.953126-.597657-4.476563 1.292968-5.738282l153.601563-95.25-149.222657 86.109375c-2.003906 1.101563-4.523437.425781-5.707031-1.53125-1.183593-1.957031-.613281-4.5 1.296875-5.765625l171.390625-108.371094-166.980469 96.417969c-2.015624 1.132813-4.570312.457031-5.757812-1.53125-1.1875-1.984375-.574219-4.554687 1.378906-5.792969l104.960938-65.3125-100.582032 58.078126c-2 1.082031-4.5.40625-5.679687-1.539063s-.625-4.476563 1.257813-5.75l125.519531-79.742187-121.097657 69.914062c-2.007812 1.125-4.550781.453125-5.738281-1.519531-1.191406-1.972657-.597656-4.535157 1.335938-5.785157l88.574219-55.945312-84.171876 48.589844c-2.007812 1.125-4.550781.453125-5.738281-1.519532-1.191406-1.972656-.597656-4.535156 1.335938-5.785156l56.746093-35.6875-52.34375 30.214844c-2.015624 1.21875-4.640624.570312-5.859374-1.445312-1.21875-2.015626-.570313-4.640626 1.449218-5.859376l47.375-29.949218-42.964844 24.796875c-1.304687.792969-2.9375.832031-4.277343.097656-1.339844-.734375-2.1875-2.128906-2.222657-3.65625-.035156-1.53125.746094-2.960937 2.054688-3.753906l62.035156-40.203125-57.589844 33.289062c-2 1.101563-4.511718.433594-5.699218-1.515625s-.632813-4.488281 1.261718-5.761719l33.210938-21.402343-28.773438 16.613281c-1.984374 1.136719-4.507812.503906-5.726562-1.425781-1.21875-1.933594-.699219-4.480469 1.179688-5.785157l62.746093-43.1875-58.199219 33.605469c-1.96875 1.113281-4.460937.496094-5.683593-1.402343-1.226563-1.898438-.757813-4.421876 1.066406-5.757813l50.945313-36.425781-46.328126 26.742187c-1.976562 1.089844-4.460937.449219-5.664062-1.460937-1.207031-1.90625-.71875-4.425782 1.117188-5.742188l12.183593-8.363281-7.636719 4.414063c-1.976562 1.121093-4.480468.496093-5.703124-1.417969-1.21875-1.914063-.726563-4.449219 1.121093-5.769531l6.289063-4.425782-1.707032.988282c-1.929687 1.132812-4.40625.582031-5.675781-1.261719-1.269531-1.847657-.894531-4.355469.855469-5.753907l18.378906-14.914062-13.558594 7.824219c-1.839843 1.050781-4.171874.589843-5.476562-1.082031-1.304688-1.667969-1.183594-4.042969.28125-5.574219l12.449219-12.902344-7.253907 4.191406c-1.464843.839844-3.285156.742188-4.648437-.253906-1.363281-1-2.007813-2.707031-1.648437-4.355469l2.644531-11.945312c-.914063-.355469-1.675781-1.019532-2.148438-1.878906-1.175781-2.035157-.480469-4.640626 1.550781-5.820313l4.265626-2.464844c1.464843-.847656 3.292968-.75 4.65625.246094 1.367187 1 2.015624 2.710937 1.652343 4.359375l-2.203125 9.925781 25.121094-14.507812c1.84375-1.046875 4.175781-.589844 5.480469 1.082031 1.300781 1.671875 1.183593 4.042969-.28125 5.574219l-12.441407 12.859375 33.894532-19.566406c1.925781-1.125 4.398437-.574219 5.664062 1.261718 1.265625 1.839844.902344 4.34375-.835937 5.746094l-18.390625 14.914062 38.050781-21.9375c1.976563-1.121093 4.484375-.5 5.703125 1.417969 1.222656 1.914063.730469 4.449219-1.121094 5.765625l-6.289062 4.421875 20.132812-11.613281c1.980469-1.132812 4.507813-.503906 5.726563 1.425781 1.21875 1.933594.699219 4.480469-1.179688 5.785157l-12.195312 8.351562 26.941406-15.570312c1.96875-1.113282 4.460937-.5 5.683594 1.402343 1.226562 1.898438.757812 4.421875-1.066407 5.753907l-50.929687 36.449218 75.503906-43.589844c1.984375-1.132812 4.507813-.503906 5.726563 1.425782 1.21875 1.933594.699218 4.484375-1.175782 5.785156l-62.746093 43.179688 87.304687-50.40625c1.996094-1.085938 4.488282-.414063 5.675782 1.523437 1.183593 1.9375.644531 4.460937-1.230469 5.746094l-33.359375 21.496093 49.84375-28.777343c2.011718-1.230469 4.636718-.597657 5.867187 1.414062 1.230469 2.007813.597657 4.636719-1.410156 5.867188l-62.074219 40.175781 82.324219-47.5c2.003906-1.101562 4.519531-.425781 5.707031 1.53125 1.183594 1.960938.609375 4.503906-1.296875 5.765625l-47.1875 29.867187 64.355469-37.164062c2.019531-1.214844 4.640625-.570312 5.859375 1.449219 1.21875 2.015625.570313 4.640625-1.445313 5.855469l-56.902343 35.78125 74.648437-43.09375c2.011719-1.125 4.550782-.453126 5.742188 1.519531 1.1875 1.972656.597656 4.535156-1.335938 5.785156l-88.550781 55.886719 109.523437-63.222656c1.304688-.792969 2.929688-.828126 4.269532-.09375 1.335937.730468 2.179687 2.121093 2.210937 3.644531.035157 1.527343-.746093 2.953125-2.050781 3.742187l-125.601562 79.761719 150.816406-87.039063c2.023437-1.210937 4.644531-.554687 5.855468 1.46875 1.210938 2.019532.554688 4.640626-1.46875 5.851563l-104.992187 65.304687 125.867187-72.667968c1.304688-.789063 2.929688-.824219 4.265626-.089844 1.335937.738281 2.179687 2.128906 2.210937 3.652344.03125 1.527344-.753906 2.953125-2.058594 3.742187l-171.375 108.371094 200.378907-115.691406c1.308593-.785157 2.9375-.8125 4.269531-.070313 1.332031.742188 2.167969 2.136719 2.191406 3.660156.023437 1.523438-.765625 2.945313-2.074219 3.730469l-153.597656 95.242188 177.664062-102.582031c2.023438-1.207032 4.644532-.546876 5.851563 1.476562 1.210937 2.023438.546875 4.644531-1.476563 5.855469l-165.527343 102.175781 189.71875-109.523438c2.023437-1.128906 4.578125-.433593 5.753906 1.558594 1.175781 1.992188.546875 4.5625-1.417969 5.789063l-91.765625 55.566406 108.996094-62.921875c2.027344-1.203125 4.648437-.53125 5.847656 1.496094 1.203125 2.027344.53125 4.648437-1.496093 5.851562l-136.398438 82.867188 156.28125-90.234375c2.027344-1.199219 4.648438-.53125 5.847656 1.5 1.203125 2.027343.53125 4.648437-1.496094 5.847656l-154.410156 93.722656 157.867188-91.160156c2.011718-1.078125 4.515625-.378906 5.679687 1.582031 1.164063 1.964844.578125 4.496094-1.328125 5.746094l-189.925781 115.832031 185.617187-107.1875c2.007813-1.058593 4.492188-.359375 5.652344 1.589844 1.164063 1.953125.59375 4.46875-1.292968 5.730469l-224.691407 137.960937 220.332031-127.199219c2.007813-1.058593 4.492188-.359374 5.652344 1.589844 1.164063 1.953125.59375 4.46875-1.292968 5.730469l-224.058594 137.53125 219.699218-126.835937c2.011719-1.078126 4.511719-.378907 5.679688 1.582031 1.164062 1.964843.578125 4.496093-1.328125 5.746093l-198.179687 121.039063 193.835937-111.898437c2.023437-1.128907 4.574219-.4375 5.75 1.558593 1.175781 1.992188.546875 4.5625-1.414063 5.789063l-60.28125 36.179687 55.945313-32.289062c2.023437-1.128907 4.574219-.4375 5.75 1.558593 1.175781 1.992188.546875 4.5625-1.414063 5.789063l-90.582031 54.613281 86.246094-49.792968c2.023437-1.128907 4.574219-.433594 5.75 1.558593 1.175781 1.996094.546875 4.5625-1.414063 5.789063l-57.859374 34.832031 53.523437-30.890625c2.011719-1.089844 4.523437-.402344 5.695313 1.566406 1.175781 1.964844.589843 4.503906-1.328126 5.753906l-185.027343 114.484376 180.660156-104.292969c2.003906-1.089844 4.511719-.402344 5.6875 1.550781s.605469 4.488281-1.292969 5.753906l-187.8125 117.554688 183.417969-105.898438c2.007813-1.046875 4.484375-.339844 5.640625 1.609375 1.152344 1.949219.585938 4.460938-1.296875 5.71875l-62.414063 38.042969 58.070313-33.527344c2.015625-1.136718 4.566406-.457031 5.753906 1.527344s.578125 4.554688-1.378906 5.792969l-123.089844 76.578125 118.714844-68.539063c2.011719-1.074219 4.515625-.378906 5.679687 1.585938 1.164063 1.960937.578126 4.492187-1.328124 5.746093l-39.449219 24.148438 35.097656-20.285156c2.007813-1.058594 4.492187-.359375 5.652344 1.59375 1.164062 1.949218.59375 4.464844-1.292969 5.726562l-47.300781 29.125 42.941406-24.746094c2.003906-1.042968 4.472656-.34375 5.632813 1.597657 1.160156 1.9375.605468 4.445312-1.265626 5.714843l-43.648437 27 39.253906-22.671874c2.007813-1.101563 4.523438-.429688 5.707031 1.53125 1.183594 1.957031.613282 4.5-1.292968 5.765624l-79.421875 50.207032 75.035156-43.296875c2.007813-1.148438 4.566406-.484375 5.765625 1.492187 1.199219 1.980469.601562 4.554688-1.347656 5.804688l-66.394532 42.195312 61.976563-35.777344c2.003906-1.167968 4.566406-.519531 5.78125 1.453126 1.210937 1.976562.625 4.558593-1.320313 5.816406l-77.472656 50.558594 73.011719-42.152344c2.007813-1.128906 4.550781-.453125 5.738281 1.519531 1.191406 1.972656.597656 4.53125-1.335937 5.785156l-3.847657 2.421875c2.011719-.796875 4.300782.042969 5.328126 1.949219 1.023437 1.90625.457031 4.277344-1.316407 5.515625l-75.273437 52.363281 70.707031-40.824219c1.984375-1.058593 4.449219-.394531 5.632813 1.515626 1.1875 1.910156.683593 4.414062-1.144532 5.71875l-24.832031 16.511718 20.34375-11.738281c1.960937-1.117187 4.457031-.511719 5.6875 1.382813 1.230469 1.894531.769531 4.417968-1.046875 5.757812l-43.476562 31.574219 38.835937-22.417969c1.976563-1.136719 4.5-.511719 5.722656 1.410156 1.226563 1.925782.71875 4.472656-1.148437 5.785156l-9.523438 6.644532 4.949219-2.847656c1.933594-1.089844 4.378906-.511719 5.625 1.324218 1.242187 1.835938.871094 4.320313-.855469 5.714844l-19.625 15.4375 14.847656-8.535156c1.917969-1.085938 4.351563-.535156 5.609376 1.277344 1.257812 1.8125.925781 4.285156-.765626 5.703124l-7.0625 5.835938 2.21875-1.269531c1.6875-.964844 3.8125-.667969 5.171876.722656 1.359374 1.394531 1.601562 3.527344.59375 5.191406l-7.644532 12.421875c2.054688-.679687 4.292969.285156 5.207032 2.246094.914062 1.960938.21875 4.296875-1.621094 5.4375l-13.773438 7.953125c-1.691406.976563-3.832031.683594-5.195312-.714844-1.363282-1.398437-1.605469-3.542969-.582032-5.210937l7.566407-12.363282-31.894531 18.421876c-1.921876 1.089843-4.351563.535156-5.609376-1.277344-1.261718-1.8125-.929687-4.285156.761719-5.699219l7.066407-5.839844-22.1875 12.800781c-1.9375 1.109376-4.398438.539063-5.652344-1.304687-1.253906-1.847656-.871094-4.34375.875-5.734375l19.625-15.410156-38.953125 22.464844c-1.976563 1.09375-4.457031.460937-5.667969-1.441407-1.210938-1.902343-.734375-4.417969 1.09375-5.742187l9.53125-6.664063-23.996094 13.847657c-1.964844 1.117187-4.457031.511718-5.6875-1.382813-1.230468-1.890625-.773437-4.417969 1.042969-5.757813l43.445313-31.574218-67.019532 38.714844c-1.984375 1.0625-4.449218.398437-5.636718-1.511719-1.183594-1.914063-.683594-4.414063 1.148437-5.722657l24.882813-16.546874-41.199219 23.78125c-1.972657 1.070312-4.433594.429687-5.636719-1.460938-1.199219-1.890625-.734375-4.390625 1.070312-5.722656l75.28125-52.359375-103.152343 59.542969c-2.003907 1.105468-4.523438.429687-5.707031-1.527344-1.183594-1.960938-.613282-4.503906 1.296874-5.765625l2.832032-1.785157-15.734375 9.078126c-2 1.136718-4.539063.488281-5.742188-1.46875-1.207031-1.957032-.644531-4.519532 1.269531-5.792969l77.476563-50.558594-100.15625 57.820313c-2.003906 1.121093-4.535156.457031-5.730469-1.507813-1.191406-1.960937-.617187-4.515625 1.300782-5.777344l66.414062-42.207031-85.742188 49.492188c-2.007812 1.148437-4.566406.488281-5.765624-1.492188-1.199219-1.980469-.601563-4.554688 1.34375-5.800781l79.414062-50.195313-99.585938 57.488282c-2.007812 1.074218-4.5.382812-5.671874-1.570313-1.167969-1.953125-.597657-4.476563 1.292968-5.742187l43.777344-27.074219-59.527344 34.386719c-2.011718 1.09375-4.527344.402343-5.699218-1.5625-1.171876-1.964844-.585938-4.503907 1.328124-5.757813l47.308594-29.132813-63.144531 36.453126c-2.015625 1.117187-4.554687.429687-5.730469-1.550782-1.179687-1.980468-.574218-4.539062 1.371094-5.777344l39.25-24.039062-54.355469 31.367188c-2.011719 1.109374-4.539062.425781-5.71875-1.539063-1.179687-1.96875-.589843-4.519531 1.332031-5.773437l123.144532-76.601563-145.347656 83.914063c-2.011719 1.078124-4.515626.378906-5.679688-1.582032-1.164062-1.964844-.582031-4.496094 1.328125-5.746094l62.429687-38.042968-78.601562 45.371094c-2.007812 1.128906-4.550781.457031-5.738281-1.519532-1.191407-1.972656-.597657-4.53125 1.335937-5.78125l187.859375-117.546875-216.320312 124.847657c-2.003907 1.074218-4.5.382812-5.667969-1.570313-1.171875-1.953125-.601562-4.476563 1.292969-5.742187l184.992187-114.421876-210.910156 121.734376c-.644531.386718-1.378906.597656-2.132812.609374zm0 0" fill="#ffd67b"/><path d="m23.960938 126.316406c-1.808594 0-3.421876-1.140625-4.023438-2.84375s-.066406-3.605468 1.34375-4.742187l41.699219-33.679688-52.511719 30.300781c-1.929688 1.097657-4.378906.53125-5.632812-1.304687-1.25-1.832031-.886719-4.316406.835937-5.71875l28.160156-22.578125-23.382812 13.492188c-1.878907 1.078124-4.269531.574218-5.554688-1.171876-1.285156-1.746093-1.058593-4.179687.53125-5.65625l16.792969-15.46875-11.75 6.824219c-1.699219.976563-3.84375.667969-5.203125-.746093-1.355469-1.410157-1.574219-3.566407-.53125-5.226563l7.277344-11.503906c-2.066407.574219-4.238281-.476563-5.070313-2.453125-.832031-1.976563-.066406-4.265625 1.785156-5.34375l13.925782-8.046875c1.699218-.976563 3.847656-.667969 5.203125.746093 1.355469 1.414063 1.574219 3.566407.53125 5.226563l-7.125 11.222656 29.960937-17.273437c1.882813-1.078125 4.269532-.570313 5.558594 1.171875 1.285156 1.746093 1.054688 4.179687-.53125 5.65625l-16.785156 15.460937 38.636718-22.289062c1.933594-1.117188 4.398438-.558594 5.660157 1.285156 1.257812 1.839844.886719 4.34375-.855469 5.738281l-28.160156 22.570313 51.269531-29.59375c1.925781-1.085938 4.359375-.519532 5.613281 1.300781 1.25 1.824219.902344 4.296875-.800781 5.707031l-41.667969 33.636719 70.453125-40.644531c1.933594-1.109375 4.398438-.539063 5.648438 1.304687 1.253906 1.847657.875 4.347657-.871094 5.734375l-39.664063 31.191406 66.277344-38.230468c1.941406-1.101563 4.402344-.523438 5.648438 1.328125 1.246094 1.847656.855468 4.347656-.894532 5.730469l-38.816406 30.234374 64.683594-37.292968c1.960938-1.132813 4.464844-.535156 5.703125 1.363281 1.242187 1.894531.78125 4.429687-1.046875 5.769531l-29.667969 21.71875 50.03125-28.851562c1.964844-1.113282 4.457031-.496094 5.683594 1.402344 1.226563 1.898437.757813 4.425781-1.070313 5.757812l-24.199218 17.3125 42.445312-24.472656c1.976563-1.089844 4.460938-.449219 5.664063 1.460937 1.207031 1.90625.71875 4.425781-1.117188 5.742188l-9.871093 6.824219 24.257812-14.027344c1.960938-1.136719 4.464844-.550782 5.710938 1.34375 1.246093 1.890625.796874 4.425781-1.023438 5.773437l-32.511719 24.199219 54.246094-31.316406c1.941406-1.125 4.417969-.554688 5.675781 1.304687 1.253906 1.859375.855469 4.375-.914062 5.753907l-38.621094 30.105468 64.382812-37.164062c1.96875-1.082032 4.441407-.449219 5.648438 1.445312 1.210938 1.894532.742188 4.398438-1.066406 5.730469l-17.136719 11.992187 33.238281-19.167968c1.953125-1.117188 4.4375-.527344 5.679688 1.347656 1.242187 1.875.8125 4.390625-.976563 5.753906l-33.910156 25.46875 56.453125-32.570312c1.949219-1.109375 4.425781-.519532 5.667969 1.347656 1.238281 1.867188.820312 4.378906-.957031 5.742188l-35.140626 26.617187 58.371094-33.707031c1.964844-1.128906 4.46875-.523438 5.703125 1.382812 1.230469 1.902344.761719 4.433594-1.070312 5.769532l-26.15625 18.859374 45.117187-26.011718c1.96875-1.125 4.476563-.507813 5.703125 1.398437 1.226563 1.910157.746094 4.445313-1.097656 5.769531l-22.234375 15.796876 39.832031-22.964844c1.964844-1.128906 4.472657-.523438 5.703125 1.382812 1.234375 1.902344.761719 4.433594-1.070312 5.769532l-26.929688 19.488281 46.199219-26.640625c1.925781-1.105469 4.378906-.546875 5.636719 1.28125 1.257812 1.832031.902344 4.320312-.816406 5.726562l-41.429688 33.441406 60.929688-35.167968c1.921874-1.078125 4.351562-.515625 5.601562 1.300781s.914062 4.285156-.78125 5.699219l-35.292969 28.679687 35.839844-20.683593c1.914063-1.082032 4.335937-.53125 5.59375 1.273437 1.257813 1.800781.941406 4.261719-.730469 5.6875l-19.003906 15.855469 14.214844-8.210938c1.789062-1.03125 4.058594-.636718 5.394531.9375 1.332031 1.574219 1.347656 3.878906.035156 5.472656l-12.082031 14.652344 6.746094-3.890625c1.496094-.867187 3.367187-.75 4.738281.300781 1.371094 1.050782 1.976563 2.824219 1.527344 4.492188l-2.21875 8.269531c1.429687.683594 2.359375 2.101563 2.421875 3.683594.058594 1.582031-.761719 3.070313-2.132813 3.859375l-4.265625 2.460938c-1.492187.859374-3.355468.734374-4.722656-.308594-1.367188-1.046875-1.972656-2.816406-1.53125-4.480469l1.535156-5.742187-18.261718 10.503906c-1.785157 1.035156-4.058594.640625-5.390626-.9375-1.335937-1.574219-1.351562-3.878906-.035156-5.472656l12.074219-14.640626-36.496094 21.066407c-1.917969 1.097656-4.355469.554687-5.621093-1.253907-1.265626-1.808593-.941407-4.285156.746093-5.707031l19.019531-15.890625-39.617187 22.863282c-1.925781 1.078124-4.351563.515624-5.605469-1.300782-1.25-1.816406-.910156-4.285156.78125-5.699218l35.3125-28.679688-61.832031 35.730469c-1.925781 1.082031-4.359375.519531-5.613281-1.300781-1.25-1.824219-.902344-4.296876.800781-5.707032l41.421875-33.441406-70.09375 40.464844c-1.96875 1.128906-4.472656.523437-5.707031-1.378906-1.230469-1.902344-.761719-4.4375 1.074219-5.773438l26.921874-19.503906-46.21875 26.671875c-1.96875 1.125-4.476562.511719-5.703124-1.398438-1.226563-1.90625-.746094-4.441406 1.097656-5.769531l22.238281-15.828125-39.859375 23.039063c-1.96875 1.128906-4.472656.523437-5.707031-1.378907-1.230469-1.902343-.761719-4.4375 1.070312-5.769531l26.15625-18.886719-45.132812 26.019531c-1.949219 1.109376-4.421875.519532-5.664063-1.347656-1.242187-1.867187-.824218-4.378906.953125-5.742187l35.125-26.609375-58.402343 33.714844c-1.953126 1.121093-4.4375.53125-5.679688-1.34375s-.8125-4.394532.976562-5.753907l33.886719-25.480469-56.449219 32.589844c-1.972656 1.117188-4.480468.496094-5.703124-1.417968-1.21875-1.914063-.726563-4.449219 1.121093-5.769532l17.167969-12.03125-33.277344 19.226563c-1.941406 1.101562-4.402344.523437-5.648437-1.328125-1.242188-1.851563-.855469-4.347656.894531-5.730469l38.621094-30.105469-64.410156 37.179688c-1.953126 1.113281-4.4375.515625-5.671876-1.367188-1.238281-1.878906-.800781-4.394531.996094-5.75l32.476563-24.183594-54.234375 31.316407c-1.984375 1.136719-4.507813.507812-5.726563-1.425781-1.21875-1.933594-.699219-4.480469 1.175781-5.78125l9.882813-6.828126-24.304687 14.046876c-1.964844 1.109374-4.460938.496093-5.683594-1.402344-1.226563-1.902344-.757813-4.425782 1.070312-5.757813l24.179688-17.332031-42.453125 24.507812c-1.960938 1.132813-4.464844.535157-5.703125-1.363281-1.242188-1.894531-.78125-4.429687 1.046875-5.769531l29.695312-21.769531-50.082031 28.910156c-1.941406 1.125-4.421875.554687-5.675781-1.304687-1.253907-1.859376-.855469-4.371094.914062-5.75l38.773438-30.253907-64.65625 37.328125c-1.9375 1.140625-4.429688.578125-5.695313-1.285156-1.261718-1.863281-.859375-4.386719.917969-5.765625l39.652344-31.214844-66.292969 38.28125c-.648438.378907-1.382812.582031-2.132812.578125zm0 0" fill="#4a88da"/><path d="m175.085938 211.402344c-1.820313 0-3.4375-1.152344-4.03125-2.871094-.597657-1.71875-.035157-3.625 1.394531-4.746094l8.351562-6.605468-15.699219 9.070312c-1.949218 1.09375-4.414062.496094-5.648437-1.367188-1.234375-1.867187-.816406-4.367187.953125-5.734374l4.933594-3.71875-1.246094.71875c-1.910156 1.085937-4.335938.546874-5.601562-1.253907-1.265626-1.796875-.957032-4.261719.710937-5.695312l6.382813-5.425781-1.5.851562c-1.585938.917969-3.582032.71875-4.957032-.492188-1.375-1.210937-1.824218-3.167968-1.109375-4.855468l5.546875-13.125c-2.0625.449218-4.140625-.671875-4.894531-2.640625s.039063-4.191407 1.871094-5.234375l9.625-5.546875c1.589843-.921875 3.589843-.722657 4.964843.492187 1.378907 1.214844 1.820313 3.175782 1.105469 4.863282l-5.410156 12.800781 31.445313-18.113281c1.90625-1.070313 4.3125-.523438 5.570312 1.261718 1.257812 1.789063.964844 4.238282-.683594 5.675782l-6.363281 5.410156 20.480469-11.820313c1.949218-1.117187 4.433594-.53125 5.675781 1.347657 1.242187 1.875.816406 4.390624-.976563 5.75l-4.964843 3.757812 6.382812-3.703125c1.933594-1.109375 4.398438-.542969 5.652344 1.304687 1.25 1.84375.871094 4.34375-.875 5.734376l-8.394531 6.636718 3.789062-2.183594c1.839844-1.050781 4.175782-.585937 5.480469 1.085938 1.300781 1.675781 1.175781 4.050781-.292969 5.578125l-9.25 9.53125 4.0625-2.335937c1.726563-1.003907 3.917969-.671876 5.273438.796874 1.355468 1.46875 1.511718 3.679688.375 5.320313l-2.960938 4.265625c1.707032.394531 3 1.792969 3.257813 3.527344.261719 1.730468-.566407 3.449218-2.082031 4.324218l-11.777344 6.828126c-1.726563 1-3.917969.671874-5.273438-.796876-1.355468-1.46875-1.511718-3.679687-.375-5.320312l1.445313-2.085938-14.21875 8.203126c-1.84375 1.0625-4.1875.605468-5.496094-1.074219-1.308594-1.675781-1.179687-4.0625.300781-5.589844l9.265625-9.617187-28.082031 16.210937c-.644531.390625-1.382812.601563-2.132812.605469zm0 0" fill="#f5b945"/><path d="m305.117188 211.402344c-1.796876.003906-3.398438-1.117188-4.015626-2.804688-.613281-1.683594-.109374-3.574218 1.265626-4.726562l6.699218-5.625-20.351562 11.75c-1.925782 1.140625-4.410156.601562-5.683594-1.242188-1.277344-1.839844-.910156-4.351562.835938-5.753906l18.773437-15.359375-19.097656 10.980469c-1.902344 1.109375-4.335938.585937-5.617188-1.207032-1.28125-1.789062-.988281-4.261718.675781-5.703124l11.085938-9.710938-6.1875 3.566406c-1.578125.90625-3.558594.714844-4.929688-.480468-1.375-1.195313-1.835937-3.132813-1.152343-4.820313l5.757812-14.148437c-1.859375.488281-3.816406-.324219-4.777343-1.988282-.570313-.980468-.722657-2.148437-.429688-3.242187s1.007812-2.027344 1.992188-2.59375l9.625-5.546875c1.578124-.914063 3.5625-.71875 4.9375.480468 1.375 1.199219 1.835937 3.136719 1.144531 4.828126l-5.65625 13.910156 33.28125-19.21875c1.898437-1.085938 4.3125-.558594 5.585937 1.21875 1.273438 1.78125.996094 4.238281-.648437 5.683594l-11.089844 9.71875 26.152344-15.101563c1.925781-1.144531 4.410156-.601563 5.683593 1.238281 1.277344 1.84375.910157 4.355469-.835937 5.757813l-18.773437 15.359375 17.605468-10.152344c1.910156-1.078125 4.328125-.527344 5.585938 1.269531 1.257812 1.796875.949218 4.253907-.714844 5.683594l-6.691406 5.625 1.828125-1.050781c1.578125-.914063 3.5625-.71875 4.9375.480468 1.375 1.199219 1.835937 3.136719 1.144531 4.828126l-5.765625 14.105468c2.066406-.550781 4.222656.515625 5.039063 2.492188.820312 1.976562.046874 4.253906-1.804688 5.324218l-9.644531 5.570313c-1.578125.914063-3.5625.722656-4.9375-.476563-1.375-1.199218-1.835938-3.140624-1.144531-4.828124l5.671874-13.886719-33.277343 19.203125c-.632813.375-1.347657.582031-2.082031.59375zm0 0" fill="#f5b945"/><path d="m420.554688 211.402344c-1.742188.003906-3.316407-1.050782-3.964844-2.671875-.652344-1.617188-.253906-3.46875 1.003906-4.671875l21.949219-21.070313-36.175781 20.871094c-1.902344 1.09375-4.320313.5625-5.59375-1.222656-1.273438-1.785157-.988282-4.242188.664062-5.6875l16.988281-14.8125-12.425781 7.175781c-1.871094 1.144531-4.304688.683594-5.628906-1.066406-1.324219-1.753906-1.101563-4.222656.511718-5.710938l4.871094-4.660156c-1.691406.859375-3.746094.5-5.042968-.882812-1.296876-1.382813-1.527344-3.457032-.5625-5.089844l3.414062-5.777344c-1.128906-.273438-2.097656-1-2.679688-2.003906-.570312-.980469-.726562-2.148438-.433593-3.242188s1.011719-2.027344 1.992187-2.59375l9.628906-5.546875c1.675782-.976562 3.800782-.695312 5.167969.679688 1.367188 1.375 1.632813 3.5.648438 5.171875l-2.164063 3.695312 16.554688-9.511718c1.871094-1.148438 4.304687-.6875 5.628906 1.066406 1.324219 1.75 1.101562 4.21875-.511719 5.707031l-4.855469 4.640625 19.722657-11.414062c1.898437-1.070313 4.296875-.539063 5.566406 1.234374 1.265625 1.773438.992187 4.21875-.636719 5.667969l-16.960937 14.789063 28.457031-16.429688c1.871094-1.125 4.285156-.65625 5.601562 1.082032 1.316407 1.742187 1.109376 4.195312-.480468 5.6875l-21.976563 21.078124 17.675781-10.242187c1.675782-.964844 3.792969-.675781 5.15625.699219 1.359376 1.375 1.625 3.496094.644532 5.164062l-8.125 13.765625 2.324218-1.332031c2.023438-1.0625 4.527344-.335938 5.671876 1.644531 1.144531 1.980469.523437 4.507813-1.40625 5.734375l-16.394532 9.480469c-1.675781.96875-3.792968.683594-5.15625-.691406-1.363281-1.371094-1.632812-3.492188-.652344-5.160157l8.121094-13.765624-34.011718 19.628906c-.640626.382812-1.375.589844-2.125.59375zm0 0" fill="#f5b945"/><path d="m79.253906 296.738281c-1.664062.003907-3.183594-.964843-3.882812-2.480469-.695313-1.511718-.449219-3.292968.632812-4.558593l14.855469-17.460938-40.292969 23.296875c-1.957031 1.3125-4.609375.792969-5.921875-1.160156-1.316406-1.957031-.796875-4.609375 1.160157-5.921875l11.273437-8.773437-12.46875 7.183593c-1.867187 1.109375-4.265625.636719-5.578125-1.09375-1.308594-1.726562-1.113281-4.167969.457031-5.664062l17.972657-17.414063-12.886719 7.429688c-1.582031.914062-3.574219.714844-4.949219-.492188-1.371094-1.210937-1.820312-3.160156-1.117188-4.847656l5.589844-13.3125c-2.0625.472656-4.164062-.636719-4.929687-2.609375-.769531-1.976563.027343-4.210937 1.867187-5.257813l9.625-5.546874c1.585938-.917969 3.582032-.71875 4.957032.492187 1.375 1.214844 1.820312 3.167969 1.109374 4.855469l-5.453124 13.007812 31.832031-18.304687c1.863281-1.078125 4.238281-.59375 5.535156 1.125s1.109375 4.132812-.433594 5.632812l-17.980469 17.390625 36.035157-20.804687c1.941406-1.101563 4.402343-.523438 5.648437 1.328125 1.246094 1.847656.855469 4.347656-.894531 5.730468l-11.261719 8.78125 8.34375-4.824218c1.796875-1.039063 4.082032-.632813 5.414063.964844 1.328125 1.59375 1.316406 3.914062-.027344 5.496093l-14.890625 17.449219 9.511719-5.492188c1.671875-.957031 3.777343-.675781 5.140625.6875 1.359375 1.363282 1.640625 3.46875.679687 5.140626l-3.488281 6.058593c1.71875.378907 3.03125 1.777344 3.296875 3.519531.265625 1.742188-.566406 3.46875-2.09375 4.347657l-9.585937 5.519531c-1.671876.964844-3.78125.6875-5.148438-.675781-1.367188-1.367188-1.644531-3.480469-.679688-5.152344l2.355469-4.105469-17.195312 9.910156c-.640625.390626-1.378907.597657-2.132813.605469zm0 0" fill="#f5b945"/><path d="m196.871094 296.738281c-1.761719 0-3.34375-1.085937-3.976563-2.730469-.636719-1.644531-.195312-3.507812 1.109375-4.695312l3.414063-3.121094-17.257813 9.941406c-1.882812 1.1875-4.367187.722657-5.695312-1.066406-1.332032-1.785156-1.058594-4.296875.621094-5.761718l23.890624-22.714844-34.898437 20.199218c-1.839844 1.0625-4.183594.609376-5.492187-1.0625-1.3125-1.671874-1.191407-4.054687.277343-5.585937l18.882813-19.695313-13.652344 7.894532c-1.601562.886718-3.59375.652344-4.945312-.582032-1.355469-1.234374-1.765626-3.195312-1.027344-4.871093l5.121094-11.324219c-2.019532.25-3.929688-.957031-4.574219-2.886719-.640625-1.925781.164062-4.039062 1.925781-5.050781l9.625-5.546875c1.605469-.886719 3.59375-.652344 4.949219.582031 1.351562 1.234375 1.765625 3.195313 1.027343 4.871094l-4.898437 10.785156 28.160156-16.210937c1.835938-1.050781 4.164063-.59375 5.46875 1.070312 1.308594 1.664063 1.199219 4.03125-.257812 5.566407l-18.890625 19.714843 39.917968-23.042969c1.871094-1.078124 4.257813-.589843 5.550782 1.140626 1.296875 1.730468 1.09375 4.15625-.472656 5.644531l-23.894532 22.714843 20.695313-11.945312c1.878906-1.035156 4.230469-.511719 5.496093 1.21875 1.269532 1.726562 1.054688 4.128906-.496093 5.609375l-3.953125 3.589844c1.644531-.429688 3.390625.160156 4.4375 1.496093 1.050781 1.339844 1.203125 3.171876.394531 4.667969l-3.898437 7.15625c1.808593.246094 3.261718 1.617188 3.613281 3.410157.351562 1.792968-.476563 3.609374-2.0625 4.519531l-9.582031 5.519531c-1.65625.96875-3.757813.710938-5.128907-.628906-1.375-1.339844-1.683593-3.433594-.757812-5.113282l3.070312-5.632812-19.703125 11.351562c-.644531.390626-1.382812.597657-2.132812.605469zm0 0" fill="#f5b945"/><path d="m302.050781 296.738281c-1.789062-.003906-3.386719-1.121093-4-2.804687-.617187-1.679688-.113281-3.566406 1.253907-4.722656l10.394531-8.773438-23.238281 13.414062c-1.925782 1.09375-4.367188.527344-5.621094-1.300781-1.25-1.828125-.894532-4.308593.816406-5.710937l16.386719-13.21875-14.507813 8.363281c-1.917968 1.085937-4.351562.535156-5.609375-1.277344-1.257812-1.8125-.929687-4.285156.761719-5.703125l4.925781-4.070312h-.085937c-1.578125.90625-3.558594.714844-4.933594-.480469-1.371094-1.195313-1.835938-3.132813-1.152344-4.820313l5.769532-14.222656c-2.074219.558594-4.238282-.511718-5.054688-2.496094-.820312-1.984374-.035156-4.265624 1.828125-5.332031l9.625-5.546875c1.578125-.90625 3.558594-.714844 4.933594.480469 1.371093 1.195313 1.835937 3.132813 1.152343 4.820313l-5.675781 13.996093 33.441407-19.226562c1.921874-1.089844 4.351562-.535157 5.609374 1.277343 1.261719 1.8125.929688 4.285157-.761718 5.703126l-4.921875 4.070312 17.917969-10.359375c1.929687-1.089844 4.371093-.523437 5.621093 1.300781 1.25 1.828125.898438 4.308594-.816406 5.710938l-16.316406 13.175781 17.238281-9.957031c1.910156-1.070313 4.320312-.523438 5.578125 1.269531 1.257813 1.789063.957031 4.242187-.695313 5.675781l-10.429687 8.808594 5.554687-3.199219c1.628907-.957031 3.695313-.726562 5.074219.5625 1.378907 1.292969 1.746094 3.335938.898438 5.023438l-7.226563 14.507812 1.109375-.632812c1.324219-.839844 3-.886719 4.367188-.125 1.371093.765625 2.210937 2.21875 2.1875 3.785156-.019531 1.566406-.898438 2.996094-2.289063 3.722656l-13.351562 7.679688c-1.632813.945312-3.6875.710937-5.0625-.578125-1.355469-1.300782-1.703125-3.335938-.851563-5.011719l7.21875-14.503906-34.917969 20.121093c-.648437.390626-1.386718.597657-2.144531.605469zm0 0" fill="#f5b945"/><path d="m435.027344 296.738281c-1.667969 0-3.183594-.972656-3.878906-2.488281-.695313-1.515625-.441407-3.296875.644531-4.5625l17.1875-19.949219-42.574219 24.585938c-1.929688 1.117187-4.398438.554687-5.65625-1.285157-1.261719-1.84375-.890625-4.34375.851562-5.738281l16.136719-12.945312-14.726562 8.53125c-1.84375 1.0625-4.1875.609375-5.496094-1.066407-1.308594-1.675781-1.1875-4.058593.289063-5.589843l15.078124-15.664063-9.882812 5.699219c-1.628906.957031-3.699219.730469-5.078125-.566406-1.382813-1.292969-1.746094-3.34375-.894531-5.03125l4.507812-9.039063c-1.933594-.007812-3.617187-1.3125-4.109375-3.179687-.492187-1.867188.332031-3.832031 2.007813-4.789063l9.625-5.546875c1.632812-.960937 3.703125-.730469 5.082031.566407 1.382813 1.292968 1.746094 3.339843.894531 5.03125l-4.019531 8.074218 23.738281-13.679687c1.839844-1.050781 4.167969-.59375 5.472656 1.074219 1.308594 1.667968 1.191407 4.039062-.265624 5.574218l-15.070313 15.675782 37-21.335938c1.925781-1.070312 4.351563-.496094 5.59375 1.320312 1.246094 1.820313.898437 4.289063-.796875 5.695313l-16.078125 12.910156 15.929687-9.199219c1.804688-1.039062 4.089844-.625 5.417969.972657 1.328125 1.601562 1.304688 3.925781-.050781 5.503906l-17.183594 19.945313 11.828125-6.828126c1.683594-1 3.835938-.699218 5.1875.714844 1.363281 1.402344 1.597657 3.550782.570313 5.214844l-3.847656 6.238281c1.886718.101563 3.480468 1.429688 3.921874 3.265625.441407 1.835938-.375 3.742188-2.011718 4.6875l-11.535156 6.65625c-1.703126 1-3.867188.703125-5.234376-.714844-1.371093-1.421874-1.589843-3.59375-.527343-5.257812l3.089843-5-19.003906 10.914062c-.644531.390626-1.378906.597657-2.132812.605469zm0 0" fill="#f5b945"/><path d="m68.273438 382.070312c-1.714844.003907-3.265626-1.019531-3.9375-2.597656-.667969-1.578125-.328126-3.40625.863281-4.636718l20.542969-21.199219-40.109376 23.167969c-1.925781 1.105468-4.378906.546874-5.636718-1.28125-1.257813-1.828126-.902344-4.320313.816406-5.722657l14.796875-12-10.972656 6.332031c-1.835938 1.050782-4.160157.597657-5.46875-1.058593-1.308594-1.65625-1.207031-4.023438.238281-5.5625l11.347656-12.023438-6.167968 3.558594c-1.667969.957031-3.769532.679687-5.132813-.675781-1.363281-1.355469-1.652344-3.453125-.707031-5.128906l3.628906-6.390626c-1.757812-.332031-3.117188-1.71875-3.414062-3.480468-.300782-1.761719.53125-3.523438 2.082031-4.410156l9.625-5.546876c1.667969-.964843 3.777343-.695312 5.144531.664063 1.367188 1.355469 1.652344 3.460937.703125 5.136719l-2.613281 4.589844 18.039062-10.367188c1.835938-1.058594 4.167969-.613281 5.484375 1.046875 1.3125 1.660156 1.210938 4.035156-.242187 5.574219l-11.410156 12.007812 32.324218-18.628906c1.925782-1.085938 4.359375-.519531 5.609375 1.300781 1.253907 1.824219.90625 4.296875-.796875 5.707031l-14.773437 11.945313 19.789062-11.410156c1.84375-1.074219 4.203125-.625 5.515625 1.058593 1.316406 1.683594 1.183594 4.078126-.308594 5.605469l-20.566406 21.207031 15.539063-8.960937c1.777343-1.015625 4.027343-.625 5.359375.929687 1.332031 1.554688 1.371094 3.835938.09375 5.4375l-5.1875 6.433594c2.074218-1.050781 4.609375-.25 5.699218 1.804688 1.089844 2.050781.335938 4.601562-1.695312 5.730468l-19.527344 11.238282c-1.777344 1.027344-4.035156.640625-5.371094-.917969-1.335937-1.558594-1.375-3.847656-.089843-5.449219l5.179687-6.433594-22.1875 12.800782c-.632812.386718-1.363281.59375-2.105468.605468zm0 0" fill="#f5b945"/><path d="m187.449219 382.070312c-1.738281.003907-3.300781-1.046874-3.957031-2.65625-.65625-1.605468-.273438-3.453124.96875-4.664062l18.066406-17.683594-36.574219 21.113282c-1.90625 1.085937-4.328125.542968-5.59375-1.25-1.265625-1.792969-.964844-4.253907.695313-5.6875l20.15625-17.210938-17.160157 9.898438c-1.84375 1.0625-4.1875.605468-5.496093-1.074219-1.308594-1.675781-1.179688-4.0625.300781-5.589844l10.851562-11.214844-5.65625 3.269531c-1.664062.957032-3.757812.6875-5.125-.660156-1.363281-1.347656-1.664062-3.441406-.730469-5.117187l3.730469-6.671875c-1.25-.222656-2.335937-.980469-2.976562-2.074219-.570313-.980469-.722657-2.148437-.429688-3.242187.292969-1.097657 1.007813-2.03125 1.988281-2.59375l9.628907-5.546876c1.660156-.964843 3.765625-.699218 5.132812.652344 1.371094 1.347656 1.667969 3.445313.726563 5.125l-2.789063 4.992188 18.679688-10.746094c1.839843-1.050781 4.171875-.589844 5.476562 1.082031 1.304688 1.667969 1.183594 4.042969-.28125 5.574219l-10.863281 11.214844 30.976562-17.871094c1.90625-1.0625 4.308594-.519531 5.566407 1.261719 1.257812 1.78125.972656 4.226562-.667969 5.667969l-20.144531 17.210937 25.597656-14.789063c1.863281-1.070312 4.230469-.59375 5.53125 1.117188 1.296875 1.710938 1.121094 4.121094-.410156 5.625l-18.074219 17.65625 12.960938-7.476562c1.699218-.964844 3.839843-.652344 5.191406.757812 1.351562 1.410156 1.574218 3.558594.535156 5.21875l-6.167969 9.617188.441407-.25c2.027343-1.058594 4.527343-.332032 5.671874 1.644531 1.144532 1.980469.527344 4.511719-1.402343 5.738281l-15.632813 9.027344c-1.703125 1.003906-3.875.691406-5.222656-.75-1.355469-1.421875-1.5625-3.585938-.503906-5.242188l6.160156-9.613281-27.042969 15.605469c-.644531.386718-1.378906.59375-2.132812.605468zm0 0" fill="#f5b945"/><path d="m316.0625 382.070312c-1.679688 0-3.207031-.988281-3.894531-2.523437s-.40625-3.328125.714843-4.585937l15.417969-17.296876-39.757812 22.949219c-1.9375 1.078125-4.378907.492188-5.617188-1.347656s-.859375-4.324219.875-5.710937l11.355469-8.839844-11.613281 6.707031c-1.902344 1.09375-4.328125.5625-5.601563-1.226563-1.273437-1.789062-.980468-4.253906.679688-5.695312l12.945312-11.195312-8.03125 4.632812c-1.878906 1.0625-4.257812.554688-5.535156-1.1875-1.28125-1.738281-1.058594-4.160156.515625-5.636719l2.886719-2.648437c-1.539063 0-2.957032-.832032-3.714844-2.171875-.753906-1.34375-.726562-2.988281.070312-4.304688l3.175782-5.253906c-1.058594-.300781-1.957032-1-2.5-1.957031-.570313-.980469-.726563-2.144532-.433594-3.242188.292969-1.09375 1.011719-2.027344 1.992188-2.59375l9.625-5.546875c1.6875-.976562 3.824218-.683593 5.1875.707031 1.363281 1.394532 1.609374 3.53125.601562 5.199219l-1.757812 2.910157 15.273437-8.816407c1.878906-1.0625 4.257813-.550781 5.535156 1.1875 1.28125 1.742188 1.058594 4.164063-.519531 5.640625l-.921875.851563 13.304687-7.679688c1.902344-1.074219 4.308594-.539062 5.574219 1.242188 1.265625 1.777343.984375 4.226562-.648437 5.671875l-12.9375 11.175781 26.367187-15.222656c1.945313-1.140625 4.445313-.570313 5.703125 1.304687 1.257813 1.875.835938 4.402344-.957031 5.769532l-11.394531 8.875 9.003906-5.195313c1.816406-1.046875 4.121094-.625 5.445312 1 1.320313 1.628906 1.265626 3.972656-.128906 5.535156l-15.429687 17.289063 10.121093-5.835938c1.652344-.953125 3.734376-.691406 5.101563.636719 1.371094 1.328125 1.691406 3.402344.789063 5.078125l-3.960938 7.324219c1.824219.222656 3.300781 1.589843 3.664062 3.386719.363282 1.800781-.464843 3.632812-2.058593 4.546874l-9.585938 5.523438c-1.652343.964844-3.746093.707031-5.121093-.625-1.371094-1.335938-1.691407-3.421875-.773438-5.101562l3.164062-5.855469-20.0625 11.546875c-.640624.390625-1.378906.601562-2.132812.605468zm0 0" fill="#f5b945"/><path d="m428.113281 382.070312c-1.726562.003907-3.285156-1.035156-3.949219-2.632812-.660156-1.597656-.292968-3.433594.929688-4.652344l17.722656-17.769531-37.441406 21.617187c-1.871094 1.125-4.289062.65625-5.605469-1.082031-1.316406-1.738281-1.105469-4.191406.484375-5.6875l24.492188-23.542969-21.769532 12.554688c-1.84375 1.050781-4.179687.585938-5.480468-1.085938-1.304688-1.675781-1.179688-4.050781.292968-5.578124l7.847657-8.089844-2.660157 1.535156c-1.703124 1-3.867187.703125-5.234374-.714844-1.371094-1.421875-1.589844-3.597656-.527344-5.257812l3.0625-5c-1.613282-.507813-2.773438-1.921875-2.960938-3.605469-.183594-1.683594.644532-3.316406 2.109375-4.160156l9.625-5.546875c1.703125-1.011719 3.875-.71875 5.246094.703125 1.375 1.421875 1.589844 3.605469.523437 5.269531l-1.535156 2.5 14.640625-8.40625c1.84375-1.0625 4.191407-.605469 5.5 1.074219 1.308594 1.675781 1.179688 4.0625-.300781 5.589843l-7.859375 8.097657 25.597656-14.761719c1.871094-1.125 4.289063-.660156 5.605469 1.082031 1.316406 1.738281 1.109375 4.191407-.484375 5.6875l-24.488281 23.550781 35.054687-20.234374c1.847657-1.015626 4.164063-.527344 5.445313 1.152343 1.28125 1.675781 1.140625 4.039063-.328125 5.554688l-17.714844 17.757812 12.578125-7.25c1.835938-1.050781 4.160156-.597656 5.46875 1.0625 1.308594 1.660157 1.203125 4.027344-.246094 5.566407l-3.171875 3.34375c1.527344.058593 2.933594.851562 3.769531 2.132812 1.175782 2.039062.480469 4.640625-1.554687 5.820312l-22.269531 12.800782c-1.828125 1.035156-4.140625.585937-5.445313-1.0625-1.308593-1.644532-1.21875-3.996094.207031-5.542969l1.910157-1.996094-14.949219 8.601563c-.644531.390625-1.382812.601562-2.136719.605468zm0 0" fill="#f5b945"/><path d="m63.664062 467.402344c-1.75.007812-3.324218-1.058594-3.972656-2.6875-.648437-1.625-.238281-3.484375 1.039063-4.683594l19.941406-18.894531-35.261719 20.355469c-1.953125 1.125-4.449218.539062-5.691406-1.347657-1.242188-1.882812-.804688-4.40625 1-5.761719l3.089844-2.296874c-1.917969.640624-4.019532-.148438-5.039063-1.890626-1.019531-1.746093-.675781-3.964843.824219-5.320312l10.058594-9.1875-5.050782 2.90625c-1.609374.902344-3.609374.667969-4.96875-.578125-1.359374-1.242187-1.761718-3.21875-1.003906-4.898437l5.007813-10.871094c-1.652344.109375-3.234375-.707032-4.105469-2.117188-.566406-.980468-.722656-2.148437-.429688-3.242187.292969-1.09375 1.011719-2.027344 1.992188-2.59375l9.625-5.546875c1.609375-.898438 3.613281-.667969 4.96875.578125 1.359375 1.246093 1.765625 3.222656 1.003906 4.898437l-4.726562 10.242188 27.289062-15.691406c1.882813-1.0625 4.257813-.554688 5.539063 1.1875 1.277343 1.738281 1.054687 4.160156-.519531 5.636718l-10.042969 9.175782 27.058593-15.625c1.953126-1.128907 4.449219-.539063 5.691407 1.34375 1.246093 1.882812.804687 4.410156-1 5.761718l-2.5 1.863282 4.269531-2.449219c1.882812-1.167969 4.347656-.695313 5.667969 1.082031 1.320312 1.78125 1.058593 4.277344-.601563 5.742188l-19.941406 18.894531 15.25-8.796875c1.726562-.984375 3.902344-.644532 5.25.816406s1.503906 3.660156.378906 5.300781l-7.78125 11.210938 2.152344-1.246094c2.039062-1.15625 4.628906-.453125 5.800781 1.578125 1.175781 2.03125.488281 4.628906-1.535156 5.8125l-18.714844 10.734375c-1.726562.984375-3.902343.644531-5.25-.816406-1.347656-1.460938-1.503906-3.660157-.382812-5.300781l7.792969-11.222657-30.039063 17.339844c-.640625.390625-1.378906.601563-2.132813.605469zm0 0" fill="#f5b945"/><path d="m184.515625 467.402344c-1.8125.003906-3.433594-1.136719-4.035156-2.84375-.601563-1.710938-.058594-3.613282 1.355469-4.75l2.199218-1.773438-14.097656 8.140625c-1.933594 1.09375-4.386719.515625-5.632812-1.328125-1.246094-1.84375-.867188-4.332031.871093-5.722656l11.949219-9.386719-13.074219 7.554688c-1.832031 1.035156-4.144531.582031-5.449219-1.074219-1.304687-1.652344-1.207031-4.007812.226563-5.546875l18.824219-19.851563-13.609375 7.84375c-1.605469.894532-3.605469.664063-4.960938-.578124-1.355469-1.242188-1.765625-3.214844-1.011719-4.890626l5.035157-10.964843c-2.003907.203125-3.878907-1.019531-4.5-2.9375-.617188-1.917969.191406-4.003907 1.9375-5.007813l9.625-5.546875c1.609375-.902343 3.613281-.667969 4.96875.578125 1.359375 1.246094 1.765625 3.21875 1.007812 4.898438l-4.753906 10.367187 27.476563-15.808593c1.832031-1.050782 4.15625-.601563 5.464843 1.058593 1.308594 1.65625 1.210938 4.019531-.234375 5.5625l-18.773437 19.839844 40.269531-23.253906c1.9375-1.09375 4.390625-.515625 5.632812 1.324219 1.246094 1.84375.867188 4.335937-.871093 5.722656l-12 9.386718 9.242187-5.332031c1.933594-1.117187 4.398438-.558593 5.660156 1.285157 1.257813 1.839843.886719 4.34375-.855468 5.738281l-3.414063 2.765625c1.320313-.226563 2.667969.164062 3.664063 1.058594 1.371094 1.257812 1.765625 3.261718.980468 4.949218l-6.460937 13.8125.058594-.042968c2.042969-1.175782 4.65625-.476563 5.832031 1.566406 1.179688 2.042968.480469 4.65625-1.5625 5.832031l-11.792969 6.828125c-1.613281.910156-3.628906.679688-4.992187-.574219-1.363282-1.257812-1.761719-3.25-.984375-4.929687l6.453125-13.796875-33.535156 19.222656c-.644532.390625-1.382813.601563-2.132813.605469zm0 0" fill="#f5b945"/><path d="m309.3125 467.402344c-1.714844.003906-3.269531-1.023438-3.9375-2.601563-.667969-1.582031-.324219-3.410156.875-4.640625l18.5-19.054687-39.132812 22.585937c-1.910157 1.089844-4.335938.546875-5.601563-1.25s-.957031-4.265625.710937-5.695312l19.882813-16.835938-17.066406 9.855469c-1.789063 1.023437-4.050781.621094-5.378907-.953125-1.328124-1.574219-1.339843-3.875-.03125-5.464844l12.699219-15.359375-7.289062 4.214844c-1.699219.96875-3.835938.65625-5.191407-.753906-1.351562-1.410157-1.570312-3.5625-.535156-5.21875l2.757813-4.265625c-.894531-.359375-1.648438-1.003906-2.132813-1.835938-.570312-.980468-.722656-2.148437-.429687-3.242187s1.007812-2.027344 1.992187-2.59375l9.625-5.546875c1.699219-.964844 3.835938-.65625 5.1875.753906 1.355469 1.414062 1.574219 3.5625.535156 5.21875l-.851562 1.28125 12.628906-7.289062c1.789063-1.03125 4.0625-.632813 5.394532.945312 1.332031 1.578125 1.34375 3.882812.023437 5.472656l-12.714844 15.359375 37.710938-21.714843c1.910156-1.109376 4.351562-.574219 5.625 1.230468 1.273437 1.804688.957031 4.285156-.726563 5.714844l-19.867187 16.808594 24.457031-14.113282c1.84375-1.050781 4.175781-.589843 5.480469 1.085938 1.304687 1.671875 1.179687 4.050781-.292969 5.578125l-18.5 19.03125 13.320312-7.679687c1.601563-.921876 3.613282-.707032 4.988282.527343 1.371094 1.238281 1.789062 3.21875 1.035156 4.90625l-5.117188 11.503907c2.019532-.265626 3.949219.9375 4.597657 2.867187.652343 1.933594-.15625 4.058594-1.925781 5.070313l-9.585938 5.519531c-1.601562.921875-3.613281.707031-4.984375-.53125s-1.792969-3.21875-1.039063-4.90625l4.914063-10.980469-28.472656 16.390625c-.644531.390625-1.382813.601563-2.136719.605469zm0 0" fill="#f5b945"/><g fill="#262626"><path d="m489.929688 51.132812c-12.140626-1.339843-24.394532-1.339843-36.539063 0h-22.597656l-90.410157-27.53125c-25.734374-7.832031-58.726562-24.976562-86.441406-22.972656-24.472656 1.777344-51.515625 15.054688-74.753906 22.128906l-93.011719 28.3125c-14.292969 0-28.585937 0-42.878906.0625-9.472656.050782-21.957031-1.417968-30.398437 4.007813-19.179688 12.355469-11.398438 47.523437-11.023438 67.148437 0 .070313-.066406.121094-.066406.179688v287.351562c0 21.335938-3.808594 46.738282 0 67.796876 6.40625 35.40625 50.039062 24.613281 78.113281 24.613281h405.527344c1.027343-.007813 2.039062-.242188 2.960937-.691407 22.300782-6.675781 20.890625-23.273437 20.890625-43.523437v-336.382813c-.035156-.3125-.113281-.621093-.230469-.914062 0-.109375.128907-.203125.128907-.324219 0-23.941406 10.308593-61.949219-19.269531-69.261719zm-325.597657-19.21875c26.148438-7.960937 61.441407-26.394531 88.984375-26.121093 26.558594.273437 59.804688 17.605469 84.976563 25.269531l65.910156 20.070312h-170.222656c-44.167969 0-88.335938-.105468-132.496094-.085937zm-139.894531 24.523438c6.679688-3.371094 23.585938 0 30.90625 0h25.703125c.695313.113281 1.40625.113281 2.101563 0h373.570312c8.203125-1.222656 16.542969-1.222656 24.746094 0 21.804687 8.585938 16.8125 40.296875 15.609375 60.902344h-482.425781c-3.480469-1.773438-.382813-3.410156-.382813-18.292969 0-13.980469-3.617187-35.652344 10.171875-42.609375zm460.988281 436.371094h-440.441406c-17.6875 0-26.527344-.792969-30.617187-20.550782-4.667969-22.535156 0-51.097656 0-74.007812v-225.339844c0-11.589844 1.042968-23.894531 0-35.414062-.171876-1.867188.453124-7.3125.265624-11.03125.695313.011718 1.386719.113281 2.054688.296875 9.167969 1.105469 18.433594 1.105469 27.597656 0h416.675782c11.894531-1.347657 23.871093-1.863281 35.839843-1.542969-1.578125 1.261719.484375 6.824219 0 13.121094-1.023437 12.691406 0 25.847656 0 38.574218v249.511719c-.0625 13.59375 8.558594 59.871094-11.375 66.382813zm0 0"/><path d="m166.378906 210.550781c16.992188 1.371094 34.058594 1.417969 51.058594.144531 1.023438.144532 2.066406.089844 3.070312-.152343 8.617188-1.707031 14.855469-5 15.625-14.40625.640626-9.984375.640626-20 0-29.984375-.914062-18.398438-24.746093-13.234375-37.847656-13.234375-13.097656 0-40.105468-4.890625-42.777344 13.457031-.605468 8.679688-.605468 17.390625 0 26.066406 0 8.773438.410157 16.496094 10.871094 18.109375zm1.519532-49.152343c1.945312-3.984376 14.976562-1.945313 20.199218-1.945313 9.164063-.535156 18.347656-.535156 27.511719 0 9.164063 1.109375 8.167969 8.636719 8.167969 16.214844 0 2.507812 1.851562 27.160156-1.316406 28.484375-15.113282.074218-30.71875 1.285156-45.730469 0-9.054688-.796875-8.863281-7.195313-8.863281-14.984375v-15.617188c-.609376-4.027343-.597657-8.125.03125-12.152343zm0 0"/><path d="m286.589844 210.796875c17.273437 1.214844 34.613281 1.238281 51.890625.078125.578125-.015625 1.152343-.109375 1.707031-.273438.507812-.007812 1.011719-.054687 1.511719-.136718 19.558593-3.949219 14.804687-29.867188 13.882812-45.132813-1.085937-18.0625-26.691406-12.671875-39.253906-12.671875-13.125 0-38.886719-4.625-41.394531 13.695313-.597656 9.050781-.597656 18.128906 0 27.179687.042968 9.003906 1.101562 15.785156 11.65625 17.261719zm.808594-49.296875c2.324218-3.683594 13.65625-1.824219 18.929687-1.824219 9.363281-.601562 18.753906-.601562 28.117187 0 9.703126 1.296875 8.796876 9.199219 8.796876 17.167969 0 3.746094 2.507812 24.097656-2.40625 27.078125-14.886719 1.027344-29.824219 1.007813-44.707032-.0625-9.230468-1.226563-8.796875-8.277344-8.796875-15.957031v-15.5625c-.558593-3.589844-.535156-7.242188.066407-10.820313zm0 0"/><path d="m404.597656 209.792969c17.078125 1.335937 34.234375 1.359375 51.320313.066406 1.09375.085937 2.199219-.003906 3.265625-.273437 8.347656-1.707032 14.765625-4.1875 15.882812-13.449219.730469-9.710938.730469-19.460938 0-29.175781-.632812-18.839844-24.074218-13.242188-37.617187-13.242188-12.117188 0-39.566407-4.566406-42.921875 12.109375-.816406 8.445313-.847656 16.949219-.085938 25.402344 0 8.808593-.597656 16.863281 10.15625 18.5625zm7.125-51.140625h15.050782c8.949218-.789063 17.949218-.789063 26.898437 0 10.632813 2.019531 9.039063 9.660156 9.039063 18.207031 0 2.296875 1.566406 25.996094-.921876 28.109375-15.285156 1.480469-30.675781 1.464844-45.953124-.050781-10.71875-2.054688-9.039063-9.660157-9.039063-18.210938v-15.582031c0-1.945312-.757813-11.089844-.449219-11.65625.082032-.144531.144532-.304688.1875-.46875.234375-.105469.464844-.21875.691406-.347656.910157-.523438 3.414063 0 4.488282 0zm0 0"/><path d="m46.222656 295.21875c17.039063 1.371094 34.15625 1.398438 51.199219.078125 1.144531.132813 2.300781.054687 3.414063-.230469 8.40625-1.707031 14.746093-4.269531 15.847656-13.59375.71875-9.714844.71875-19.464844 0-29.175781-.640625-18.929687-24.046875-13.347656-37.640625-13.347656-12.023438 0-39.773438-4.625-42.90625 12.167969-.769531 8.464843-.792969 16.980468-.078125 25.449218-.015625 8.8125-.585938 16.902344 10.164062 18.652344zm7.089844-51.140625h15.089844c8.949218-.78125 17.953125-.78125 26.902344 0 10.609374 2.003906 9.003906 9.566406 9.003906 18.109375 0 2.335938 1.628906 26.152344-1.007813 28.003906-15.265625 1.46875-30.636719 1.460938-45.898437-.03125-10.691406-2.03125-9.003906-9.558594-9.003906-18.109375v-15.589843c0-1.9375-.742188-11.015626-.433594-11.589844.074218-.128906.132812-.269532.167968-.417969.246094-.105469.488282-.230469.71875-.367187.921876-.511719 3.414063-.007813 4.460938-.007813zm0 0"/><path d="m196.886719 237.941406c-12.636719 0-38.648438-4.605468-41.386719 13.144532-.710938 9.65625-.710938 19.351562 0 29.011718 0 8.609375 1.84375 14.738282 11.640625 16.144532 17.273437 1.226562 34.613281 1.257812 51.890625.085937.550781-.023437 1.09375-.109375 1.621094-.265625.539062-.003906 1.082031-.054688 1.613281-.144531 19.449219-3.925781 15.085937-30.257813 13.875-45.535157-1.40625-17.789062-26.8125-12.441406-39.253906-12.441406zm-20.242188 51.203125c-9.941406-1.296875-8.769531-9.304687-8.769531-17.488281 0-5.910156-2.65625-19.003906.066406-24.464844 2.058594-4.121094 13.519532-2.097656 18.9375-2.097656 9.363282-.589844 18.753906-.589844 28.117188 0 10.359375 1.347656 8.769531 10.324219 8.769531 18.773438 0 3.328124 2.46875 22.988281-2.71875 25.34375-14.785156 1.015624-29.621094.992187-44.402344-.066407zm0 0"/><path d="m285.164062 295.277344c17.039063 1.386718 34.160157 1.414062 51.199219.085937 1.144531.140625 2.300781.066407 3.414063-.222656 8.414062-1.707031 14.730468-4.332031 15.828125-13.652344.71875-9.710937.71875-19.464843 0-29.175781-.636719-18.953125-24.046875-13.378906-37.648438-13.378906-12.046875 0-39.753906-4.632813-42.894531 12.191406-.769531 8.46875-.796875 16.984375-.078125 25.457031-.007813 8.804688-.570313 16.894531 10.179687 18.695313zm7.125-51.121094h15.054688c8.949219-.78125 17.953125-.78125 26.90625 0 10.605469 1.988281 8.992188 9.53125 8.992188 18.074219 0 2.34375 1.648437 26.203125-1.03125 27.96875-15.261719 1.46875-30.628907 1.453125-45.882813-.050781-10.695313-2.011719-8.996094-9.523438-8.996094-18.074219v-15.613281c0-1.929688-.734375-10.992188-.425781-11.5625.070312-.128907.125-.265626.160156-.410157.1875-.085937.410156-.195312.726563-.367187.921875-.519532 3.414062 0 4.496093 0zm0 0"/><path d="m435.8125 237.917969c-12.664062 0-38.648438-4.617188-41.378906 13.148437-.714844 9.660156-.714844 19.355469 0 29.015625 0 8.609375 1.84375 14.761719 11.648437 16.210938 17.273438 1.230469 34.613281 1.253906 51.890625.078125.527344-.023438 1.046875-.105469 1.554688-.246094.570312-.007812 1.140625-.054688 1.707031-.148438 19.429687-3.925781 15.070313-30.308593 13.855469-45.566406-1.425782-17.84375-26.8125-12.492187-39.277344-12.492187zm-20.242188 51.199219c-9.933593-1.296876-8.761718-9.265626-8.761718-17.449219 0-5.90625-2.65625-19.003907.074218-24.457031 2.058594-4.105469 13.535157-2.089844 18.9375-2.089844 9.363282-.589844 18.753907-.589844 28.117188 0 10.351562 1.347656 8.761719 10.289062 8.761719 18.773437 0 3.34375 2.476562 22.976563-2.738281 25.316407-14.78125 1-29.613282.96875-44.390626-.09375zm0 0"/><path d="m78.957031 324.070312c-12.476562 0-40.226562-4.820312-42.914062 12.96875-.632813 8.679688-.632813 17.390626 0 26.070313 0 8.839844.347656 16.121094 10.769531 17.707031 16.941406 1.324219 33.957031 1.34375 50.902344.058594 1.0625.113281 2.140625.042969 3.179687-.210938 8.535157-1.707031 14.695313-4.523437 15.769531-13.859374.796876-9.980469.796876-20.007813 0-29.984376-.894531-18.03125-24.855468-12.75-37.707031-12.75zm-22.945312 51.199219c-9.320313-2.140625-7.613281-10.121093-7.613281-17.917969 0-5.316406-2.925782-22.734374.273437-27.027343 1.75-2.347657 17.066406-.714844 21.128906-.714844 8.941407-.917969 17.953125-.917969 26.898438 0 9.265625 2.125 7.609375 10.128906 7.609375 17.917969 0 2.398437 1.707031 25.890625-1.066406 27.742187h-19.027344c-9.378906.964844-18.828125.964844-28.203125 0zm0 0"/><path d="m168.113281 382.667969c17.582031 1.105469 35.210938 1.121093 52.796875.050781.957032-.007812 1.902344-.207031 2.78125-.589844 7.890625-1.621094 13.292969-8.925781 12.535156-16.945312.601563-9.847656.601563-19.722656 0-29.566406-1.707031-18.554688-26.804687-13.433594-39.894531-13.433594-13.558593 0-39.140625-4.8125-40.917969 14.6875-.574218 9.714844-.574218 19.457031 0 29.175781.300782 8.738281 3.003907 15.417969 12.699219 16.621094zm.808594-49.433594c3.109375-3.898437 14.875-1.707031 19.832031-1.707031 9.359375-.703125 18.757813-.703125 28.117188 0 8.84375 1.398437 6.828125 9.652344 6.828125 17.355468 0 3.859376 2.738281 22.445313-3.054688 24.550782-15.261719 1.214844-30.597656 1.214844-45.859375 0-8.53125-1.347656-6.824218-8.589844-6.824218-16.066406 0-5.582032-2.714844-19.507813.960937-24.132813zm0 0"/><path d="m316.285156 323.019531c-12.800781 0-38.628906-4.660156-41.34375 13.3125-.699218 9.660157-.699218 19.355469 0 29.011719 0 8.65625 1.878906 14.976562 11.734375 16.460938 17.269531 1.28125 34.613281 1.316406 51.890625.105468.417969-.03125.832032-.097656 1.238282-.207031.675781.019531 1.347656-.035156 2.011718-.160156 19.363282-3.910157 15.011719-30.609375 13.816406-45.757813-1.441406-18.105468-26.691406-12.765625-39.347656-12.765625zm-20.242187 51.199219c-9.871094-1.277344-8.675781-8.976562-8.675781-17.152344 0-5.816406-2.671876-19.019531.085937-24.371094 2.070313-4.007812 13.652344-2.011718 18.960937-2.011718 9.375-.589844 18.78125-.589844 28.160157 0 10.238281 1.332031 8.675781 9.992187 8.675781 18.429687 0 3.457031 2.5625 22.9375-2.824219 25.175781-14.777343 1.007813-29.605469.984376-44.382812-.070312zm0 0"/><path d="m437.3125 324.027344c-12.636719 0-40.105469-4.8125-42.894531 13.011718-.65625 8.679688-.65625 17.394532 0 26.070313 0 8.839844.355469 16.136719 10.777343 17.742187 16.945313 1.351563 33.972657 1.378907 50.925782.074219 1.058594.109375 2.125.039063 3.15625-.210937 8.355468-1.707032 14.925781-4.652344 15.761718-13.910156.683594-9.984376.683594-20.003907 0-29.984376-.878906-18.066406-24.824218-12.792968-37.726562-12.792968zm-21.554688 51.199218c-9.324218-1.144531-8.984374-7.535156-8.984374-15.429687v-15.578125c-.59375-4.105469-.59375-8.273438 0-12.375 1.363281-3.054688 1.972656-2.167969 6.382812-2.167969h13.753906c9.15625-.738281 18.359375-.738281 27.511719 0 9.328125 1.613281 8.289063 8.839844 8.289063 16.640625 0 2.378906 1.703124 27.304688-1.136719 28.9375-15.25.949219-30.542969.941406-45.789063-.027344zm0 0"/><path d="m78.84375 408.992188c-12.941406 0-40.105469-4.878907-42.800781 13.382812-.613281 8.675781-.613281 17.390625 0 26.066406 0 8.75.390625 16.480469 10.855469 18.042969 16.980468 1.324219 34.039062 1.367187 51.027343.125 1.03125.140625 2.078125.085937 3.089844-.160156 8.53125-1.707031 14.875-4.933594 15.648437-14.3125.648438-9.984375.648438-20 0-29.984375-.910156-18.332032-24.769531-13.160156-37.820312-13.160156zm-21.5625 51.203124c-9.054688-.8125-8.882812-7.265624-8.882812-15.0625v-15.582031c-.613282-4.042969-.613282-8.152343 0-12.195312 1.9375-4.035157 14.898437-1.980469 20.183593-1.980469 9.160157-.550781 18.347657-.550781 27.507813 0 9.183594 1.136719 8.195312 8.707031 8.195312 16.273438 0 2.484374 1.816406 27.1875-1.28125 28.570312-15.078125.078125-30.730468 1.324219-45.722656-.023438zm0 0"/><path d="m198.550781 409.828125c-12.03125 0-39.609375-4.519531-42.949219 12.042969-.816406 8.433594-.847656 16.921875-.09375 25.359375 0 8.796875-.613281 16.820312 10.128907 18.476562 17.109375 1.285157 34.289062 1.300781 51.398437.042969 1.066406.046875 2.136719-.054688 3.171875-.308594 8.296875-1.707031 14.789063-4.078125 15.925781-13.304687.738282-9.710938.738282-19.464844 0-29.175781-.632812-18.746094-24.097656-13.132813-37.582031-13.132813zm-21.621093 51.203125c-10.738282-2.082031-9.0625-9.761719-9.0625-18.324219v-15.582031c0-1.953125-.777344-11.152344-.472657-11.730469.089844-.164062.160157-.335937.207031-.511719.226563-.101562.445313-.214843.65625-.34375.914063-.511718 3.414063 0 4.496094 0h15.054688c8.949218-.792968 17.953125-.792968 26.90625 0 10.640625 2.058594 9.0625 9.773438 9.0625 18.320313 0 2.246094 1.515625 25.832031-.855469 28.222656-15.296875 1.492188-30.703125 1.476563-45.992187-.050781zm0 0"/><path d="m315.867188 407.789062c-13.386719 0-39.152344-4.820312-40.960938 14.507813-.582031 9.714844-.582031 19.460937 0 29.175781.257812 8.679688 2.980469 15.164063 12.621094 16.308594 17.582031 1.015625 35.207031 1.015625 52.789062 0 .976563-.011719 1.9375-.214844 2.832032-.609375 7.835937-1.5625 13.238281-8.773437 12.535156-16.730469.597656-9.847656.597656-19.722656 0-29.570312-1.671875-18.226563-26.957032-13.082032-39.816406-13.082032zm-21.554688 51.203126c-8.601562-1.367188-6.902344-8.929688-6.902344-16.421876 0-5.613281-2.714844-19.421874.9375-24.171874 3.070313-4.003907 14.738282-1.820313 19.796875-1.820313 9.375-.703125 18.785157-.703125 28.160157 0 8.917968 1.417969 6.902343 9.992187 6.902343 17.707031 0 3.722656 2.6875 22.613282-2.984375 24.746094-15.28125 1.207031-30.632812 1.191406-45.910156-.039062zm0 0"/><path d="m90.953125 91.210938c4.378906 0 13.21875-6.585938 4.933594-6.585938h-42.667969c-4.375 0-13.214844 6.585938-4.929688 6.585938zm0 0"/><path d="m133.851562 92.058594h238.933594c5.476563 0 12.800782-8.277344 4.472656-8.277344h-238.933593c-5.480469 0-12.800781 8.277344-4.472657 8.277344zm0 0"/><path d="m457.792969 90.828125c3.890625 0 13.355469-5.828125 5.121093-5.828125h-42.667968c-3.890625 0-13.351563 5.828125-5.117188 5.828125zm0 0"/></g></svg>