<svg id="Icons" height="512" viewBox="0 0 60 60" width="512" xmlns="http://www.w3.org/2000/svg"><path d="m29.725 59.4a.5.5 0 0 1 -.267-.922l2.988-1.878-3.809 2.2a.5.5 0 0 1 -.525-.851l12.278-8.084-13.638 7.873a.5.5 0 0 1 -.522-.852l11.854-7.667-13.07 7.546a.5.5 0 0 1 -.522-.853l13.774-8.919-15.118 8.728a.5.5 0 0 1 -.523-.852l16.052-10.423-17.559 10.137a.5.5 0 0 1 -.515-.856l9.338-5.827-10.222 5.9a.5.5 0 0 1 -.512-.859l6.835-4.221-7.58 4.38a.5.5 0 0 1 -.514-.858l11.531-7.184-12.5 7.214a.5.5 0 0 1 -.512-.859l8.316-5.122-9.1 5.254a.5.5 0 0 1 -.516-.856l16.439-10.314-17.657 10.194a.5.5 0 0 1 -.511-.858l9.162-5.617-9.951 5.745a.5.5 0 0 1 -.512-.859l10.773-6.611-11.625 6.709a.5.5 0 0 1 -.513-.857l16.287-10.083-17.387 10.037a.5.5 0 0 1 -.513-.858l18.983-11.785-20.21 11.668a.5.5 0 0 1 -.515-.856l22.653-14.144-24 13.859a.5.5 0 0 1 -.508-.861l4.038-2.433-4.154 2.4a.5.5 0 0 1 -.508-.86l4.957-2.99-4.615 2.66a.5.5 0 0 1 -.511-.86l14.742-9.015-14.231 8.215a.5.5 0 0 1 -.512-.858l16.873-10.392-16.361 9.447a.5.5 0 0 1 -.513-.858l17.467-10.811-16.954 9.788a.5.5 0 0 1 -.511-.86l9.513-5.811-9 5.2a.5.5 0 0 1 -.51-.859l5.832-3.55-5.324 3.069a.5.5 0 0 1 -.509-.86l.752-.455-.243.14a.5.5 0 0 1 -.517-.856l18.215-11.489-17.698 10.219a.5.5 0 0 1 -.518-.855l17.6-11.157-17.083 9.861a.5.5 0 0 1 -.518-.856l16.047-10.186-15.529 8.966a.5.5 0 0 1 -.511-.86l2.371-1.453-1.86 1.074a.5.5 0 0 1 -.52-.854l15.127-9.7-14.607 8.433a.5.5 0 0 1 -.519-.854l13.208-8.463-12.689 7.326a.5.5 0 0 1 -.519-.854l10.693-6.817-10.174 5.873a.5.5 0 0 1 -.521-.853l11-7.092-10.479 6.052a.5.5 0 0 1 -.519-.85l8.031-5.133-7.512 4.333a.5.5 0 0 1 -.536-.844l8.127-5.671-7.33 4.233a.5.5 0 0 1 -.5-.866l17.431-10.064a.5.5 0 0 1 .536.843l-8.126 5.669 16.632-9.6a.5.5 0 0 1 .519.855l-8.032 5.132 8.963-5.175a.5.5 0 0 1 .52.853l-11 7.094 12.15-7.015a.5.5 0 0 1 .518.854l-10.693 6.816 11.751-6.785a.5.5 0 0 1 .52.854l-13.206 8.461 14.436-8.335a.5.5 0 0 1 .52.854l-15.129 9.7 16.474-9.509a.5.5 0 0 1 .511.859l-2.377 1.457 2.955-1.707a.5.5 0 0 1 .518.856l-16.047 10.187 17.355-10.021a.5.5 0 0 1 .518.856l-17.597 11.159 18.971-10.955a.5.5 0 0 1 .516.856l-18.209 11.485 19.562-11.295a.5.5 0 0 1 .509.861l-.747.448 1.271-.733a.5.5 0 0 1 .51.86l-5.835 3.552 6.5-3.754a.5.5 0 0 1 .511.86l-9.519 5.815 10.3-5.948a.5.5 0 0 1 .513.859l-17.454 10.808 18.6-10.739a.5.5 0 0 1 .512.859l-16.893 10.4 17.967-10.37a.5.5 0 0 1 .511.86l-14.738 9.013 15.431-8.909a.5.5 0 0 1 .508.861l-4.942 2.981 4.7-2.716a.5.5 0 0 1 .508.861l-4.034 2.433 3.526-2.036a.5.5 0 0 1 .514.857l-22.647 14.14 22.138-12.781a.5.5 0 0 1 .513.858l-18.985 11.786 18.472-10.665a.5.5 0 0 1 .513.859l-16.288 10.083 15.776-9.108a.5.5 0 0 1 .511.86l-10.78 6.614 10.269-5.928a.5.5 0 0 1 .511.859l-9.151 5.613 8.64-4.989a.5.5 0 0 1 .515.857l-16.436 10.314 15.925-9.194a.5.5 0 0 1 .512.858l-8.311 5.119 7.8-4.5a.5.5 0 0 1 .514.857l-11.53 7.179 11.011-6.356a.5.5 0 0 1 .512.858l-6.833 4.221 6.323-3.65a.5.5 0 0 1 .514.857l-9.337 5.829 8.826-5.1a.5.5 0 0 1 .522.852l-16.054 10.424 15.527-8.964a.5.5 0 0 1 .521.852l-13.773 8.921 13.252-7.65a.5.5 0 0 1 .521.853l-11.856 7.668 11.335-6.543a.5.5 0 0 1 .524.85l-12.275 8.077 11.751-6.784a.5.5 0 0 1 .516.856l-3 1.887 2.417-1.4a.5.5 0 1 1 .5.865l-25.18 14.543a.488.488 0 0 1 -.249.069z" fill="#42838e"/><path d="m29.966 29.156a.5.5 0 0 1 -.267-.923l1.37-.863-1.933 1.117a.5.5 0 0 1 -.53-.848l10.665-7.184-12.055 6.96a.5.5 0 0 1 -.522-.853l6.353-4.1-7.231 4.174a.5.5 0 0 1 -.524-.851l8.471-5.565-9.557 5.517a.5.5 0 0 1 -.529-.848l10.385-6.968-11.729 6.768a.5.5 0 0 1 -.525-.85l9.254-6.127-10.435 6.025a.5.5 0 0 1 -.519-.855l4.092-2.606-4.8 2.773a.5.5 0 0 1 -.529-.848l10.529-7.081-11.9 6.87a.5.5 0 0 1 -.522-.852l7.094-4.607-8.038 4.641a.5.5 0 0 1 -.521-.854l6.131-3.954-6.993 4.036a.5.5 0 0 1 -.525-.851l8.9-5.871-10.036 5.8a.5.5 0 0 1 -.517-.856l2.553-1.622-3.176 1.837a.5.5 0 0 1 -.53-.848l10.822-7.3-12.242 7.062a.5.5 0 0 1 -.517-.856l1.666-1.05-2.243 1.3a.5.5 0 0 1 -.523-.852l7.434-4.839-8.405 4.846a.5.5 0 0 1 -.538-.842l6.678-4.712-7.909 4.57a.5.5 0 0 1 -.5-.866l17.428-10.062a.5.5 0 0 1 .538.842l-6.678 4.712 15.074-8.7a.5.5 0 0 1 .523.852l-7.428 4.834 8.4-4.851a.5.5 0 0 1 .517.856l-1.662 1.047 2.238-1.292a.5.5 0 0 1 .529.848l-10.822 7.305 12.236-7.065a.5.5 0 0 1 .517.856l-2.553 1.613 3.172-1.831a.5.5 0 0 1 .526.851l-8.906 5.874 10.039-5.8a.5.5 0 0 1 .522.853l-6.127 3.951 6.984-4.032a.5.5 0 0 1 .523.852l-7.093 4.611 8.036-4.639a.5.5 0 0 1 .529.848l-10.533 7.08 11.898-6.863a.5.5 0 0 1 .518.855l-4.083 2.6 4.795-2.771a.5.5 0 0 1 .527.85l-9.255 6.127 10.428-6.023a.5.5 0 0 1 .529.848l-10.387 6.97 11.728-6.771a.5.5 0 0 1 .525.851l-8.468 5.564 9.554-5.516a.5.5 0 0 1 .521.853l-6.347 4.1 7.223-4.171a.5.5 0 0 1 .53.847l-10.664 7.187 12.056-6.959a.5.5 0 0 1 .517.856l-1.372.864 1.806-1.043a.5.5 0 0 1 .5.866l-24.431 14.1a.488.488 0 0 1 -.254.072z" fill="#347584"/><path d="m30.03 59.4a.5.5 0 0 1 -.271-.92l7.665-4.937-7.144 4.124a.5.5 0 0 1 -.525-.851l10.469-6.878-9.944 5.741a.5.5 0 0 1 -.518-.855l5.131-3.261-4.613 2.663a.5.5 0 0 1 -.52-.854l6.858-4.4-6.338 3.662a.5.5 0 0 1 -.518-.855l4.626-2.933-4.108 2.371a.5.5 0 0 1 -.517-.856l2.826-1.779-2.309 1.333a.5.5 0 0 1 -.521-.852l8.041-5.193-7.52 4.342a.5.5 0 0 1 -.523-.852l9.455-6.16-8.932 5.154a.5.5 0 0 1 -.518-.855l4.5-2.852-3.981 2.3a.5.5 0 0 1 -.527-.848l11.683-7.761-11.157 6.437a.5.5 0 0 1 -.52-.853l7.175-4.609-6.655 3.842a.5.5 0 0 1 -.522-.852l8.623-5.588-8.1 4.677a.5.5 0 0 1 -.516-.857l2.247-1.411-1.731 1a.5.5 0 0 1 -.524-.852l9.673-6.314-9.15 5.28a.5.5 0 0 1 -.525-.85l10.692-7.039-10.167 5.87a.5.5 0 0 1 -.516-.857l1.91-1.2-1.394.8a.5.5 0 0 1 -.519-.855l5.961-3.8-5.442 3.145a.5.5 0 0 1 -.533-.845l7.874-5.4-7.341 4.242a.5.5 0 0 1 -.5-.866l18.548-10.708a.5.5 0 0 1 .532.845l-7.872 5.4 13.732-7.932a.5.5 0 0 1 .518.854l-5.96 3.8 5.442-3.142a.5.5 0 0 1 .515.857l-1.909 1.2 1.394-.8a.5.5 0 0 1 .525.851l-10.689 7.033 10.164-5.868a.5.5 0 0 1 .523.852l-9.681 6.321 9.159-5.288a.5.5 0 0 1 .515.857l-2.246 1.411 1.731-1a.5.5 0 0 1 .521.852l-8.622 5.589 8.1-4.676a.5.5 0 0 1 .52.854l-7.176 4.608 6.656-3.842a.5.5 0 0 1 .526.849l-11.678 7.759 11.153-6.439a.5.5 0 0 1 .517.856l-4.5 2.851 3.982-2.3a.5.5 0 0 1 .523.851l-9.455 6.162 8.933-5.157a.5.5 0 0 1 .521.853l-8.042 5.196 7.521-4.342a.5.5 0 0 1 .516.856l-2.826 1.779 2.31-1.333a.5.5 0 0 1 .517.855l-4.625 2.933 4.108-2.371a.5.5 0 0 1 .519.854l-6.846 4.389 6.327-3.652a.5.5 0 0 1 .518.854l-5.139 3.271 4.626-2.671a.5.5 0 0 1 .524.851l-10.466 6.873 9.937-5.738a.5.5 0 0 1 .52.853l-7.673 4.947 7.032-4.061a.5.5 0 0 1 .5.865l-24.82 14.329a.494.494 0 0 1 -.25.067z" fill="#266677"/><g fill="#262626"><path d="m4.275 43.809c0 2.106 1.669 2.693 3.252 3.58l9.527 5.335 9.439 5.286c1.791 1 3.178 1.935 5.255.787 5.935-3.283 11.836-6.628 17.753-9.942l3.733-2.09a7.059 7.059 0 0 0 1.874-1.217 3.392 3.392 0 0 0 .617-2.54v-27.22c0-.018-.012-.029-.015-.046s.016-.039.014-.061a2.339 2.339 0 0 0 -.272-.926c0-.008-.01-.014-.013-.022a3.843 3.843 0 0 0 -1.617-1.366l-3.322-1.859-10.35-5.8-7.947-4.45a3.514 3.514 0 0 0 -3.286-.4 16.73 16.73 0 0 0 -1.712.927l-18.859 10.566c-1.176.658-2.828 1.28-3.618 2.429-.129.1-.2.2-.154.3a2.437 2.437 0 0 0 -.3 1.025c-.123 2.443 0 4.924 0 7.369q.001 10.167.001 20.335zm19.163 11.13q-5.148-2.881-10.294-5.765c-2.115-1.184-4.335-2.274-6.381-3.574-1.538-.979-1.038-3.412-1.038-4.995v-21.553a17.1 17.1 0 0 1 .028-3.263l20.982 11.751a17.332 17.332 0 0 0 2.541 1.444v29.242c-2.01-.882-3.934-2.221-5.838-3.287zm30.837-10.73c-.111 1.2-.867 1.494-1.748 1.988l-18.033 10.103-3.149 1.763c-.247.138-.437.258-.621.341v-29.623c.513-.255 1.01-.61 1.372-.813l12.656-7.087 9.434-5.281a2.472 2.472 0 0 1 .089.466v26.5c0 .534.049 1.103 0 1.643zm-47.589-29.965c2.088-1.342 4.371-2.448 6.535-3.66l10.095-5.653 4.075-2.282a12.556 12.556 0 0 1 2.015-1.128c.685-.222 1.348.287 1.906.6l3.23 1.809 17.863 10a4.814 4.814 0 0 1 1.429 1l-21.155 11.847-2.479 1.387-21.228-11.889-2.772-1.555a1.808 1.808 0 0 1 .486-.476z"/><path d="m8.276 22.194v20c0 .23 1.448.027 1.448-.388v-20c0-.23-1.448-.027-1.448.388z"/><path d="m18.341 12.43 10.485-5.871 1.5-.838c.857-.48.081-1.267-.644-.861l-10.489 5.872-1.5.837c-.853.481-.077 1.267.648.861z"/><path d="m13.407 14.54.126.018a1.468 1.468 0 0 0 .337-.024l.2-.043a2.02 2.02 0 0 0 .356-.13l.392-.22.056-.031a.709.709 0 0 0 .187-.117.306.306 0 0 0 .107-.116.073.073 0 0 0 -.012-.1.131.131 0 0 0 -.11-.066l-.127-.018a1.512 1.512 0 0 0 -.336.023l-.2.043a2.064 2.064 0 0 0 -.357.131l-.391.22-.056.031a.706.706 0 0 0 -.187.116.3.3 0 0 0 -.108.117.073.073 0 0 0 .013.1.133.133 0 0 0 .11.066z"/></g></svg>