<svg height="504pt" viewBox="-48 0 504 504.56439" width="504pt" xmlns="http://www.w3.org/2000/svg"><g fill-rule="evenodd"><path d="m117.152344 502.980469c-1.496094-.007813-2.878906-.78125-3.671875-2.046875-1.195313-1.984375-.589844-4.558594 1.367187-5.804688l57.769532-35.839844-74.75 42.667969c-1.984376.992188-4.394532.304688-5.554688-1.585937-1.15625-1.894532-.671875-4.355469 1.117188-5.667969l137.726562-87.210937-160.425781 92.585937c-2.007813 1.179687-4.589844.535156-5.804688-1.449219-.589843-.957031-.769531-2.113281-.496093-3.207031.273437-1.089844.976562-2.027344 1.949218-2.59375l120.660156-75.351563-123.734374 71.507813c-2.035157 1.121094-4.585938.441406-5.800782-1.535156-1.195312-1.984375-.589844-4.558594 1.363282-5.800781l127.0625-79.277344-123.5625 71c-1.980469.992187-4.394532.304687-5.550782-1.589844-1.15625-1.890625-.671875-4.351562 1.113282-5.664062l134.742187-84.222657-130.304687 75.605469c-.925782.613281-2.0625.832031-3.148438.605469-1.089844-.222657-2.042969-.871094-2.65625-1.800781-1.195312-1.984376-.585938-4.5625 1.367188-5.804688l166.570312-105.898438-145.066406 83.628907c-1.980469.992187-4.394532.300781-5.550782-1.589844s-.671874-4.351563 1.113282-5.664063l156.84375-99.839843-128 73.8125c-2.023438 1.152343-4.597656.472656-5.785156-1.53125-1.183594-2-.550782-4.585938 1.433593-5.808594l90.367188-56.488281-67.753907 39.167968c-2.007812 1.179688-4.589843.535157-5.804687-1.453124-1.203125-2.007813-.601563-4.613282 1.367187-5.886719l54.441407-34.132813-34.132813 19.710938c-2.007812 1.179687-4.589844.535156-5.804687-1.449219-1.1875-2.03125-.542969-4.640625 1.453125-5.890625l15.957031-9.726562c-1.703125.21875-3.371094-.585938-4.265625-2.046876-.597656-.949218-.792969-2.097656-.535156-3.1875.257812-1.09375.941406-2.035156 1.898437-2.617187l60.84375-37.972656-39.511719 23.039062c-2.003906 1.179688-4.585937.535157-5.800781-1.449219-1.203125-2.011718-.601562-4.613281 1.367188-5.886718l48.125-30.292969-27.816407 16.039063c-1.984374.996093-4.394531.304687-5.554687-1.585938-1.15625-1.890625-.671875-4.351562 1.117187-5.664062l106.921876-71-77.652344 44.800781c-1.992188 1.148437-4.535156.550781-5.804688-1.363281-1.210937-1.964844-.644531-4.535157 1.28125-5.804688l96.253906-65.28125-66.558593 38.488281c-2.003907 1.269531-4.65625.679688-5.929688-1.324219-1.273437-2.003906-.679687-4.65625 1.320313-5.929687l69.632812-47.019531-43.433594 25.089844c-2.003906 1.246093-4.640624.636718-5.886718-1.367188-1.25-2.003906-.640625-4.640625 1.363281-5.886719l51.796875-35.160156-27.730469 15.957031c-1.984375.996094-4.398437.304688-5.554687-1.585937s-.671875-4.351563 1.117187-5.664063l14.589844-9.558594c-1.214844-.175781-2.300781-.859374-2.984375-1.878906-1.3125-1.886718-.855469-4.476562 1.023438-5.800781l48.894531-36.011719-21.589844 12.460938c-1.957031 1.183594-4.507813.578125-5.714844-1.367188-1.203125-1.925781-.71875-4.453125 1.109375-5.800781l17.578125-12.800781c-1.238281.011718-2.40625-.554688-3.160156-1.535156-1.351563-1.570313-1.351563-3.894532 0-5.464844l23.210937-27.050782c-.582031-.96875-.746093-2.132812-.457031-3.222656.289063-1.09375 1.007813-2.023437 1.996094-2.578125l7.507813-4.265625c1.777343-1.0625 4.0625-.664062 5.375.9375 1.332031 1.609375 1.332031 3.9375 0 5.546875l-14.933594 17.066407 40.621094-23.464844c1.976562-1.296875 4.632812-.742188 5.929687 1.234375 1.296875 1.980469.742187 4.636719-1.238281 5.933593l-12.628906 9.46875 18.859374-10.921874c1.972657-1.09375 4.453126-.5 5.714844 1.367187 1.222656 1.90625.777344 4.425781-1.023437 5.800781l-49.152344 36.011719 48.8125-28.585937c1.980469-.996094 4.394531-.304688 5.550781 1.585937s.671875 4.355469-1.113281 5.667969l-3.414063 2.21875c1.804688-.441406 3.691407.3125 4.695313 1.875 1.226563 1.941406.699219 4.503906-1.195313 5.804687l-51.796874 35.15625 47.273437-26.710937c1.980469-1.171875 4.535156-.523438 5.71875 1.453125 1.226563 1.9375.699219 4.503906-1.195313 5.800781l-69.378906 46.847656 64.855469-37.460937c2.003906-1.25 4.640625-.636719 5.886719 1.367187 1.25 2 .636718 4.636719-1.363282 5.886719l-96 65.109375 91.816407-52.992188c1.980469-1.171874 4.535156-.523437 5.71875 1.449219 1.226562 1.941407.699219 4.507813-1.195313 5.804688l-107.347656 71.082031 102.398438-59.136719c2.007812-1.179687 4.589843-.535156 5.804687 1.453125 1.203125 2.007813.597656 4.613282-1.367187 5.886719l-48.042969 30.207031 43.605469-25.171875c2.007812-1.179687 4.589843-.535156 5.804687 1.449219 1.203125 2.011719.597656 4.613281-1.367187 5.890625l-60.84375 38.226563 56.40625-32.597657c2.023437-1.152343 4.59375-.46875 5.78125 1.53125 1.1875 2.003907.550781 4.585938-1.429688 5.808594l-6.910156 4.265625 2.558594-1.449219c2.007812-1.179687 4.589843-.535156 5.804687 1.449219.589844.960938.765625 2.117188.496094 3.207031-.273438 1.09375-.976563 2.027344-1.949219 2.597657l-54.527344 34.132812 50.175782-28.929688c2.007812-1.179687 4.589843-.535156 5.804687 1.453126 1.203125 2.007812.597656 4.613281-1.367187 5.886718l-90.28125 56.148438 85.929687-49.664063c2.035156-1.117187 4.585937-.441406 5.800781 1.539063 1.195313 1.980468.589844 4.558594-1.363281 5.800781l-156.84375 99.753906 152.40625-87.550781c2.027344-1.226562 4.664063-.578125 5.886719 1.449219 1.226562 2.027343.578125 4.664062-1.449219 5.890625l-166.570313 105.128906 162.132813-93.867188c2.007813-1.179687 4.585937-.535156 5.800781 1.453126 1.207032 2.007812.601563 4.609374-1.363281 5.886718l-134.65625 84.394532 130.21875-75.179688c1.980469-.992188 4.394531-.304688 5.550781 1.589844 1.15625 1.890625.671875 4.351562-1.113281 5.664062l-127.148437 79.273438 122.710937-70.484375c.96875-.582031 2.132813-.75 3.226563-.460938 1.09375.289063 2.023437 1.011719 2.574218 1.996094 1.195313 1.984375.589844 4.5625-1.363281 5.804687l-120.746094 74.921876 116.308594-67.15625c1.3125-.792969 2.945313-.828126 4.285156-.089844 1.34375.742187 2.1875 2.140625 2.21875 3.671875s-.757812 2.960937-2.066406 3.753906l-137.8125 87.640625 133.375-76.800781c2.007813-1.179688 4.585937-.535157 5.800781 1.449219.597656.972656.777344 2.140624.503906 3.246093-.273437 1.105469-.976562 2.058594-1.953124 2.640625l-57.601563 35.757813 53.25-30.722657c1.980469-.992187 4.394531-.300781 5.550781 1.589844s.671875 4.351563-1.113281 5.664063l-112.980469 73.046875 108.542969-62.722656c1.980469-.992188 4.394531-.300782 5.550781 1.589843s.671875 4.351563-1.113281 5.664063l-88.917969 57.515625 84.480469-48.726563c1.980469-.992187 4.394531-.300781 5.550781 1.589844s.671875 4.351562-1.113281 5.664062l-41.472656 26.453126 37.035156-21.332032c2.007813-1.179687 4.585937-.535156 5.800781 1.449219 1.167969 1.972656.609375 4.507813-1.277344 5.804687l-61.269531 40.53125 56.746094-32.765624c2.003906-1.25 4.640625-.636719 5.886719 1.363281 1.25 2.003906.636718 4.640625-1.363282 5.890625l-55.382812 37.972656 51.199219-29.355469c1.953125-.933593 4.296875-.257812 5.453125 1.570313 1.152344 1.832031.753906 4.238281-.929688 5.597656l-39.507812 27.304688 34.644531-20.476563c2.007813-1.179687 4.585937-.535156 5.800781 1.449219 1.15625 1.945312.597656 4.453125-1.277344 5.71875l-3.585937 2.386718c1.835937-.507812 3.785156.257813 4.78125 1.878907.617187.902343.84375 2.015625.636719 3.089843-.207032 1.074219-.835938 2.019532-1.746094 2.628907l-12.460938 8.53125 7.851563-4.523438c1.902344-1.117187 4.347656-.601562 5.632813 1.195313 1.246093 1.804687.953124 4.257812-.683594 5.71875l-25.601563 22.613281 20.738281-12.03125c1.828126-1.019531 4.125-.589844 5.460938 1.023437 1.363281 1.59375 1.363281 3.949219 0 5.546876l-12.03125 13.140624 6.738281-3.839843c1.320313-.957031 3.066407-1.082031 4.507813-.320313 1.4375.761719 2.320312 2.273438 2.269531 3.902344s-1.023437 3.085938-2.507813 3.753906l-30.722656 17.75c-1.808594 1.136719-4.183594.691406-5.460937-1.023437-1.402344-1.582031-1.402344-3.964844 0-5.546875l12.035156-13.140625-34.136719 19.710937c-1.875 1.109375-4.289062.589844-5.546875-1.195312-1.265625-1.78125-1.007812-4.230469.597657-5.714844l25.601562-22.527344-51.199219 29.4375c-1.964843 1.140625-4.480469.539063-5.71875-1.363281-1.183593-1.949219-.660156-4.480469 1.195313-5.804687l12.375-8.53125-27.566406 16.296874c-1.949219.933594-4.292969.257813-5.449219-1.570312-1.15625-1.832031-.753907-4.238281.929687-5.597656l1.960938-1.363282-14.761719 8.53125c-1.972656 1.125-4.476563.511719-5.703125-1.398437-1.226562-1.90625-.746094-4.441406 1.09375-5.769531l39.59375-27.304688-59.730469 34.132813c-1.960937 1.1875-4.507812.578125-5.71875-1.367188-1.226562-1.9375-.699219-4.503906 1.195313-5.800781l55.464844-37.804688-78.078126 45.3125c-1.980468 1.171876-4.535156.523438-5.71875-1.449218-1.210937-1.960938-.644531-4.53125 1.28125-5.804688l61.183594-40.53125-82.773437 47.785156c-1.980469.996094-4.394531.304688-5.550781-1.585937s-.671876-4.355469 1.113281-5.667969l41.472656-26.453125-58.453125 33.707031c-1.980469.996094-4.394531.304688-5.550781-1.585937s-.675781-4.355469 1.113281-5.667969l88.917969-57.769531-112.640625 65.023437c-2.007813 1.179688-4.589844.535157-5.804688-1.449218-1.164062-1.96875-.605468-4.507813 1.28125-5.804688l113.066406-72.957031-138.921874 80.210937c-.761719.480469-1.664063.691407-2.558594.597657zm0 0" fill="#a9b0bb"/><path d="m26.527344 451.78125c-1.488282-.023438-2.867188-.792969-3.667969-2.046875-.59375-.960937-.769531-2.117187-.496094-3.207031.269531-1.09375.972657-2.027344 1.945313-2.597656l119.464844-74.835938-129.363282 74.75c-2.027344 1.226562-4.664062.578125-5.886718-1.449219-1.226563-2.027343-.578126-4.664062 1.449218-5.886719l167.507813-106.414062-166.3125 96c-2.007813 1.183594-4.589844.535156-5.804688-1.449219-.589843-.957031-.769531-2.113281-.496093-3.207031.273437-1.089844.976562-2.027344 1.949218-2.59375l115.539063-71.765625-110.933594 64.167969c-2.019531 1.152344-4.59375.472656-5.78125-1.527344-1.1875-2.003906-.550781-4.589844 1.429687-5.808594l111.617188-69.207031-107.519531 61.867187c-2.007813 1.179688-4.589844.535157-5.804688-1.449218-1.1875-2.035156-.542969-4.640625 1.453125-5.890625l66.984375-41.042969-62.632812 36.179688c-2.035157 1.117187-4.589844.441406-5.804688-1.535157-.589843-.957031-.769531-2.113281-.496093-3.207031.273437-1.09375.976562-2.027344 1.949218-2.597656l21.503906-13.140625-17.066406 9.898437c-1.984375.996094-4.394531.304688-5.554687-1.585937-1.15625-1.890625-.671875-4.355469 1.117187-5.667969l157.523438-99.410156-153.171875 88.402344c-2.027344 1.226562-4.664063.578124-5.890625-1.449219-1.222656-2.027344-.574219-4.664063 1.453125-5.886719l115.882812-71.9375-111.445312 64.339844c-.96875.585937-2.132813.75-3.226563.460937-1.09375-.289062-2.023437-1.007812-2.578125-1.996093-1.195312-1.984376-.589843-4.558594 1.367188-5.800782l170.664062-108.117187-166.226562 95.742187c-1.917969 1.246094-4.480469.757813-5.804688-1.109375-.59375-.972656-.773437-2.140625-.5-3.246093.269531-1.105469.972657-2.058594 1.953125-2.640626l58.367188-35.753906-54.015625 30.890625c-2.023438 1.152344-4.597657.46875-5.785157-1.53125-1.183593-2.003906-.550781-4.585937 1.433594-5.808593l26.023438-16.042969-21.671875 12.714843c-.96875.582032-2.132813.75-3.226563.460938s-2.023437-1.011719-2.578125-1.996094c-1.195312-1.984375-.589843-4.5625 1.367188-5.804687l153.597656-96.679688-149.160156 86.101563c-2.023438 1.152344-4.597657.46875-5.785157-1.53125-1.183593-2.003906-.550781-4.585938 1.433594-5.808594l18.34375-11.179688-13.992187 8.535157c-1.015625.53125-2.207031.632812-3.296875.28125-1.09375-.355469-1.996094-1.132813-2.507813-2.160157-1.203125-2.011718-.601562-4.613281 1.367188-5.886718l158.207031-99.839844-153.769531 88.660156c-1.984375.992188-4.394531.304688-5.550781-1.589844-1.160157-1.890624-.675782-4.351562 1.113281-5.664062l110.25-68.265625-105.8125 61.097656c-1.3125.808594-2.960938.847657-4.308594.101563-1.347656-.75-2.191406-2.164063-2.199219-3.707032-.007812-1.542968.816406-2.96875 2.15625-3.734374l5.972656-3.667969-1.707031.9375c-1.894531 1.238281-4.425781.746093-5.71875-1.109375-1.195312-1.984375-.589843-4.558594 1.367188-5.800782l149.757812-94.71875-145.066406 83.964844c-.960937.558594-2.105469.707032-3.175781.417969-1.074219-.285156-1.988282-.988281-2.539063-1.953125-1.195312-1.984375-.589843-4.558594 1.363281-5.800781l148.054688-94.378907-144.042969 83.113282c-1.980469 1.171875-4.535156.523437-5.71875-1.449219-.664062-.964844-.902343-2.160156-.660156-3.304687.242187-1.148438.941406-2.140626 1.941406-2.753907l134.398438-86.101562-129.960938 75.007812c-2.007812 1.109375-4.535156.429688-5.71875-1.535156-1.164062-1.972656-.605469-4.507813 1.28125-5.804687l96-61.441407-91.5625 52.992188c-1.980469 1.171875-4.535156.523437-5.71875-1.449219-1.210937-1.960938-.644531-4.53125 1.28125-5.800781l97.449219-63.660157-93.011719 53.675782c-1.988281 1.121094-4.507812.484375-5.71875-1.453125-1.144531-1.917969-.582031-4.398438 1.28125-5.632813l55.382813-35.667968-51.203125 29.355468c-1.980469.992188-4.394531.304688-5.550781-1.589844-1.15625-1.890624-.671876-4.351562 1.113281-5.664062l13.226562-8.53125-8.53125 5.03125c-1.980469 1.171875-4.535156.523438-5.71875-1.449219-1.226562-1.941406-.699219-4.503906 1.195313-5.800781l49.835937-33.109375-45.3125 26.109375c-1.972656 1.097656-4.453125.503906-5.71875-1.363281-1.246093-1.921875-.753906-4.480469 1.109375-5.804688l57.257813-40.789062-28.839844 17.066406c-1.964844 1.140625-4.480469.539063-5.71875-1.363281-1.160156-1.9375-.679687-4.433594 1.109375-5.804688l28.84375-20.992187c-.71875-.308594-1.339844-.8125-1.792969-1.449219-1.265625-1.785156-1.011719-4.234375.597657-5.71875l26.367187-23.296875c-.523437-1.851563.285156-3.828125 1.964844-4.777344l10.066406-5.800781c1.90625-1.121094 4.347656-.6015625 5.632813 1.191406 1.320312 1.757813 1.019531 4.242188-.683594 5.632813l-6.140625 5.546875 21.417969-12.371094c1.957031-1.1875 4.503906-.578125 5.714843 1.363281 1.246094 1.917969.757813 4.480469-1.109375 5.804688l-14.503906 10.410156 30.121094-17.578125c1.957031-1.1875 4.507812-.578125 5.71875 1.363281 1.246094 1.917969.753906 4.480469-1.109375 5.804688l-57.003907 40.703125 83.113282-47.871094c1.980468-1.171875 4.535156-.523438 5.71875 1.449219 1.210937 1.960937.644531 4.53125-1.28125 5.804687l-49.746094 33.105469 69.972656-40.359375c1.980469-.996094 4.394532-.304688 5.550782 1.585938 1.15625 1.890624.671874 4.355468-1.113282 5.667968l-13.3125 8.53125 27.21875-15.785156c1.984375-.996094 4.394532-.304688 5.554688 1.585938 1.15625 1.890624.671875 4.355468-1.117188 5.667968l-55.378906 35.667969 74.410156-42.667969c1.980469-.992187 4.394532-.304687 5.550782 1.589844 1.15625 1.890625.671874 4.351562-1.113282 5.664062l-97.453125 63.402344 122.882813-70.910156c1.980468-.996094 4.394531-.304688 5.550781 1.585938 1.15625 1.890624.671875 4.355468-1.113281 5.667968l-96.257813 61.4375 119.46875-68.265625c1.980469-1.171875 4.535157-.523437 5.714844 1.449219.605469.9375.8125 2.078125.570313 3.167969-.238282 1.089843-.90625 2.039062-1.847657 2.636719l-134.742187 86.015624 162.132812-93.867187c1.980469-.992187 4.394532-.304687 5.550782 1.585937 1.15625 1.894532.671874 4.355469-1.113282 5.667969l-148.308594 94.546875 164.4375-94.890625c1.980469-1.171875 4.535157-.523437 5.714844 1.453125 1.207032 2.007813.601563 4.613282-1.363281 5.886719l-149.761719 94.292969 149.25-86.101563c2.003906-1.179687 4.585938-.535156 5.800782 1.453125 1.1875 2.03125.546874 4.640625-1.449219 5.886719l-6.144531 3.667969 1.792968-1.023438c.96875-.582031 2.132813-.75 3.226563-.457031 1.09375.289063 2.023437 1.007813 2.574219 1.992187 1.179687 2.007813.535156 4.589844-1.449219 5.804688l-110.164063 68.265625 105.8125-61.097656c1.980469-.992188 4.394532-.304688 5.550782 1.585937s.671874 4.355469-1.113282 5.667969l-158.210937 99.925781 153.601562-88.75c.96875-.582031 2.132813-.746094 3.226563-.457031s2.023437 1.007813 2.578125 1.996094c1.179687 2.003906.53125 4.585937-1.453125 5.800781l-18.429688 11.265625 14.078125-8.535156c1.3125-.792969 2.945313-.824219 4.289063-.085938 1.339844.738281 2.1875 2.136719 2.21875 3.667969.027344 1.53125-.757813 2.964844-2.070313 3.757812l-153.601562 96.683594 149.335937-85.761718c.96875-.582032 2.132813-.75 3.226563-.460938 1.09375.292969 2.023437 1.011719 2.574219 1.996094 1.179687 2.007812.535156 4.589844-1.449219 5.804687l-26.199219 15.957031 21.847656-12.628906c.96875-.585937 2.132813-.75 3.226563-.460937 1.09375.289062 2.023437 1.011719 2.574219 1.996093 1.179687 2.007813.535156 4.589844-1.449219 5.804688l-58.453125 35.839844 54.101562-31.234375c1.980469-.992188 4.394532-.304688 5.550782 1.589843 1.15625 1.890626.671874 4.351563-1.113282 5.664063l-170.667968 108.203125 166.230468-95.828125c2.019532-1.152344 4.59375-.472656 5.78125 1.527344 1.1875 2.003906.550782 4.589843-1.429687 5.808593l-115.710938 71.851563 110.933594-64.253906c2.003906-1.183594 4.585937-.535157 5.800781 1.449219 1.203125 2.007812.601563 4.613281-1.367187 5.886718l-157.183594 99.414063 153.601563-88.40625c2.007812-1.179688 4.585937-.535157 5.800781 1.453125 1.191406 2.03125.546875 4.640625-1.449219 5.886718l-21.929688 13.054688 17.066407-9.898438c.96875-.582031 2.132812-.75 3.226562-.457031 1.09375.289063 2.023438 1.007813 2.574219 1.992188 1.179688 2.007812.535156 4.589843-1.449219 5.804687l-67.070312 41.128906 62.71875-36.179687c2.003906-1.179687 4.585937-.535156 5.800781 1.449219.589844.960937.769531 2.117187.496094 3.207031-.273438 1.09375-.972656 2.027344-1.945313 2.597656l-111.359375 68.863281 107.09375-61.867187c2.027344-1.164063 4.617188-.480469 5.800782 1.535156.589843.960938.769531 2.117188.496093 3.207031-.273437 1.09375-.972656 2.027344-1.945312 2.597657l-115.457031 72.105469 110.933593-64.171876c1.980469-.992187 4.394531-.300781 5.550781 1.589844s.671876 4.351563-1.113281 5.664063l-167.425781 106.496093 163.160156-93.867187c1.308594-.792969 2.945313-.824219 4.285156-.085937 1.34375.738281 2.1875 2.136718 2.21875 3.671874.03125 1.53125-.757812 2.960938-2.066406 3.753907l-119.46875 74.835937 115.199219-66.558594c.96875-.582031 2.132813-.75 3.226563-.460937 1.09375.292969 2.023437 1.011719 2.578124 1.996094 1.179688 2.007812.535157 4.589843-1.449218 5.804687l-22.101563 13.140625 17.578125-10.15625c1.980469-.992187 4.394532-.300781 5.550782 1.589844s.671874 4.351563-1.113282 5.664063l-104.449218 66.304687 100.011718-57.769531c1.980469-.996094 4.394532-.304688 5.550782 1.585937s.671874 4.355469-1.113282 5.667969l-86.359375 54.953125 81.921875-47.273437c2.035156-1.117188 4.585938-.441407 5.800782 1.535156 1.195312 1.984375.589843 4.558594-1.363282 5.800781l-64 40.789063 59.730469-34.132813c2.007813-1.179687 4.589844-.535156 5.804687 1.453125 1.203126 2.007812.601563 4.613281-1.367187 5.886719l-15.871094 9.898437 11.433594-6.570312c1.984375-.992188 4.394531-.304688 5.554687 1.585937 1.15625 1.894531.671876 4.355469-1.117187 5.667969l-48.042969 31.144531 43.605469-25.171875c2.027344-1.226562 4.664063-.574218 5.890625 1.449219 1.222656 2.027344.574219 4.664063-1.453125 5.890625l-7.421875 4.691406 2.984375-1.707031c1.984375-.992187 4.394531-.300781 5.554687 1.589844 1.15625 1.890625.671876 4.351562-1.117187 5.664062l-5.289063 3.5.851563-.511719c1.960937-1.1875 4.507813-.578124 5.71875 1.363282 1.207031 1.882812.761719 4.375-1.023437 5.71875l-57.089844 41.726562 52.226562-30.121094c1.925782-.898437 4.21875-.242187 5.378906 1.539063 1.160157 1.78125.832032 4.144531-.773437 5.542969l-25.597656 18.175781 20.648437-11.859375c1.898438-1.164062 4.371094-.640625 5.632813 1.191406 1.277343 1.84375.945312 4.355469-.765625 5.804688l-26.285156 21.417968 21.761718-12.371093c1.859375-1.074219 4.230469-.597657 5.527344 1.113281 1.300781 1.710938 1.125 4.121094-.410156 5.625l-14.929688 14.25 9.8125-5.628906c1.761719-1.046875 4.019532-.6875 5.375.851562 1.285156 1.59375 1.285156 3.867188 0 5.460938l-5.546875 7.082031c1.601563-.0625 3.109375.753906 3.925781 2.136719 1.164063 2.027344.480469 4.613281-1.535156 5.800781l-16.300781 9.386719c-1.738281 1.03125-3.964844.671875-5.289063-.851563-1.316406-1.582031-1.316406-3.882812 0-5.464843l4.691407-5.628907-21.503907 11.945313c-1.863281 1.085937-4.242187.609375-5.546874-1.109375-1.296876-1.714844-1.113282-4.128907.429687-5.632813l14.847656-14.25-36.351562 20.992188c-1.917969 1-4.277344.40625-5.496094-1.378906-1.21875-1.78125-.914063-4.195313.714844-5.617188l26.199219-21.417969-49.238282 28.414063c-1.957031 1.1875-4.507812.578125-5.71875-1.367188-1.246094-1.917968-.753906-4.476562 1.109375-5.800781l25.601563-18.089844-43.863282 25.597657c-1.957031 1.1875-4.503906.582031-5.714843-1.363282-1.210938-1.878906-.761719-4.375 1.023437-5.71875l56.917969-41.984375-85.335937 49.066407c-1.980469.996093-4.394532.304687-5.550782-1.585938s-.671875-4.355469 1.113282-5.664062l5.378906-3.414063-18.6875 10.324219c-1.984375.992187-4.394532.304687-5.554688-1.585938-1.15625-1.894531-.671875-4.355468 1.117188-5.667968l7.335937-4.691407-20.734375 11.945313c-1.980468.992187-4.394531.304687-5.550781-1.585938-1.15625-1.894531-.671875-4.355468 1.113281-5.667968l48.042969-31.144532-66.558594 38.398438c-1.984375.992187-4.394531.304687-5.554687-1.585938-1.15625-1.894531-.671875-4.355468 1.117187-5.667968l15.699219-10.070313-30.035156 17.066406c-1.980469 1.175781-4.535156.527344-5.71875-1.449219-1.195313-1.984374-.589844-4.558593 1.363281-5.800781l64-40.789062-83.113281 48.296875c-1.980469 1.171875-4.535156.523437-5.71875-1.449219-1.195313-1.984375-.585938-4.5625 1.367187-5.804687l86.273438-54.953126-107.863281 62.207032c-2.003907 1.179687-4.585938.535156-5.800782-1.449219-1.195312-1.984375-.589844-4.5625 1.363282-5.804687l104.449218-66.21875-127.316406 73.472656c-2.007812 1.179687-4.589844.535156-5.804688-1.449219-.59375-.972656-.773437-2.140625-.503906-3.246094.273438-1.109375.976563-2.058593 1.957032-2.644531l22.097656-13.140625-36.179688 20.480469c-.636718.40625-1.378906.613281-2.132812.597656zm0 0" fill="#e4e8eb"/><path d="m29.855469 93.382812c-1.425781-.015624-2.761719-.714843-3.585938-1.878906-1.203125-1.847656-.835937-4.304687.855469-5.71875l24.320312-20.308594-30.210937 17.578126c-1.964844 1.140624-4.476563.539062-5.714844-1.363282-1.238281-1.894531-.746093-4.425781 1.109375-5.71875l26.878906-19.625c-.460937-.296875-.867187-.671875-1.195312-1.109375-1.203125-1.742187-.949219-4.101562.597656-5.546875l40.960938-38.914062c-.207032-1.546875.445312-3.085938 1.707031-4.007813l5.800781-3.328125c1.855469-.953125 4.121094-.425781 5.367188 1.242188 1.246094 1.667968 1.105468 3.992187-.332032 5.496094l-21.589843 20.824218 17.066406-9.730468c1.972656-1.09375 4.453125-.5 5.71875 1.367187 1.246094 1.917969.757813 4.476563-1.109375 5.800781l-9.472656 6.914063 4.863281-2.816407c1.933594-1.0625 4.351563-.511718 5.632813 1.277344 1.265624 1.816406.933593 4.300782-.765626 5.71875l-24.832031 20.308594 19.796875-11.433594c1.828125-1.015625 4.121094-.585937 5.460938 1.023438 1.316406 1.582031 1.316406 3.878906 0 5.460937l-15.53125 17.410157 10.070312-5.804688c1.992188-.898438 4.34375-.148438 5.445313 1.746094 1.097656 1.890625.589843 4.308594-1.179688 5.59375l-32.171875 18.945312c-1.796875 1.109375-4.136718.707032-5.460937-.941406-1.363281-1.59375-1.363281-3.949219 0-5.546875l15.359375-17.664063-41.726563 24.152344c-.640625.394532-1.378906.601563-2.132812.597656zm0 0" fill="#5e8faa"/><path d="m215.453125 272.582031c-1.910156-.019531-3.578125-1.3125-4.074219-3.160156s.296875-3.800781 1.941406-4.777344l72.535157-41.898437c1.90625-1.050782 4.292969-.496094 5.546875 1.28125 1.296875 1.746094 1.035156 4.195312-.597656 5.632812l-15.191407 13.308594 12.375-7.082031c1.714844-.9375 3.84375-.589844 5.171875.839843 1.332032 1.429688 1.519532 3.578126.460938 5.21875l-9.046875 13.226563 1.707031-1.023437c.96875-.582032 2.132812-.75 3.226562-.460938 1.09375.292969 2.023438 1.011719 2.578126 1.996094 1.171874 2.054687.488281 4.671875-1.539063 5.890625l-18.089844 10.410156c-1.71875 1.023437-3.914062.71875-5.289062-.738281-1.371094-1.453125-1.550781-3.664063-.425781-5.320313l9.128906-13.226562-33.449219 19.285156c-1.90625 1.117187-4.347656.601563-5.632813-1.195313-1.246093-1.804687-.953124-4.257812.683594-5.71875l15.1875-13.566406-35.070312 20.480469c-.636719.402344-1.378906.613281-2.136719.597656zm0 0" fill="#9ed26a"/><path d="m188.488281 357.742188c-1.15625.027343-2.273437-.4375-3.070312-1.277344-1.367188-1.394532-1.613281-3.539063-.597657-5.207032l7.167969-11.433593-26.710937 15.445312c-1.902344.980469-4.242188.394531-5.460938-1.367187-1.414062-1.609375-1.414062-4.019532 0-5.628906l20.394532-20.992188-23.976563 13.824219c-1.90625 1.117187-4.347656.597656-5.632813-1.195313-1.246093-1.808594-.953124-4.257812.683594-5.71875l18.6875-16.554687-13.996094 8.535156c-1.902343 1.117187-4.34375.597656-5.632812-1.195313-1.292969-1.746093-1.035156-4.195312.597656-5.632812l20.90625-18.859375-15.613281 9.046875c-1.957031 1.1875-4.507813.578125-5.71875-1.367188-1.246094-1.917968-.753906-4.476562 1.109375-5.800781l48.726562-34.5625-44.117187 25.601563c-1.957031 1.1875-4.507813.578125-5.71875-1.367188-1.246094-1.917968-.753906-4.476562 1.109375-5.800781l25.601562-17.75-20.824218 11.949219c-1.246094.835937-2.851563.945312-4.203125.28125-1.347657-.664063-2.242188-1.996094-2.34375-3.5-.101563-1.5.605469-2.941406 1.855469-3.78125l27.222656-21.929688-35.328125 20.480469c-1.960938 1.1875-4.507813.578125-5.71875-1.367187-1.207031-1.878907-.761719-4.371094 1.023437-5.714844l6.828125-4.949219-20.992187 12.03125c-1.910156 1.195313-4.425782.621094-5.632813-1.28125-1.28125-1.875-.867187-4.425781.9375-5.800781l28.074219-21.25-49.148438 28.332031c-1.960937 1.1875-4.507812.578125-5.71875-1.367187-1.246093-1.917969-.757812-4.476563 1.109376-5.800782l35.667968-25.601562-51.199218 29.695312c-1.917969 1.148438-4.398438.585938-5.632813-1.277344-1.289063-1.828124-.914063-4.347656.855469-5.71875l17.066406-13.910156-19.199219 11.09375c-1.824219 1.054688-4.144531.617188-5.460937-1.023437-1.378906-1.625-1.378906-4.007813 0-5.632813l15.359375-15.785156-10.925781 6.3125c-1.761719 1.046875-4.019532.6875-5.375-.851562-1.238282-1.578126-1.238282-3.796876 0-5.375l5.207031-6.914063c-1.234375-.191406-2.304688-.949219-2.902344-2.046875-1.171875-2.054688-.492187-4.667969 1.535156-5.886719l13.738281-7.9375c1.777344-.976562 3.992188-.625 5.378907.851563 1.222656 1.617187 1.222656 3.847656 0 5.464844l-3.671875 4.863281 19.542968-11.179688c1.808594-1.132812 4.183594-.6875 5.460938 1.023438 1.414062 1.609375 1.414062 4.023437 0 5.632812l-15.703125 15.785157 39-22.441407c1.917969-1.148437 4.398437-.582031 5.632813 1.28125 1.246093 1.835938.875 4.324219-.855469 5.714844l-17.066407 13.824219 81.75-47.1875c1.972657-1.097656 4.453126-.503906 5.714844 1.363281 1.296875 1.910156.800782 4.507813-1.109375 5.804687l-35.753906 25.597657 31.148437-18.003907c1.972657-1.09375 4.453126-.503906 5.714844 1.367188 1.210938 1.878906.765625 4.371094-1.023437 5.714844l-27.816407 21.25 30.035157-17.066406c1.972656-1.125 4.476562-.511719 5.703125 1.398437 1.226562 1.90625.746094 4.441406-1.09375 5.769531l-6.742188 4.949219 19.96875-11.519531c1.910156-1.195313 4.425782-.625 5.632813 1.277344 1.246093 1.839843.875 4.324218-.855469 5.71875l-27.816406 21.757812 49.664062-28.671875c1.96875-1.121094 4.476563-.507813 5.703125 1.398437 1.226563 1.910157.746094 4.445313-1.097656 5.769532l-25.597656 17.75 41.554687-23.976563c1.988282-1.125 4.507813-.484375 5.71875 1.449219.617188.902344.847656 2.015625.640625 3.089844-.210937 1.074218-.839843 2.019531-1.75 2.628906l-71.851562 51.199219c.296875.242187.558593.53125.769531.851562 1.296875 1.75 1.035156 4.195313-.597656 5.632813l-20.820313 18.859375 15.699219-9.046875c1.90625-1.117188 4.347656-.601563 5.632812 1.195312 1.234376 1.78125.941407 4.199219-.683593 5.632813l-18.6875 16.554687 13.738281-7.9375c1.871094-1.042968 4.222656-.574218 5.546875 1.109375 1.367187 1.597657 1.367187 3.953125 0 5.546875l-19.882813 20.566406 15.105469-8.535156c1.699219-.957031 3.832031-.640625 5.179688.765625 1.347656 1.410157 1.570312 3.554688.539062 5.210938l-7.253906 11.605469c1.855469-.527344 3.828125.285156 4.777344 1.960937 1.171875 2.054687.492187 4.667969-1.535157 5.886719l-13.738281 7.9375c-.808593.34375-1.691406.460937-2.5625.339844zm0 0" fill="#9ed26a"/><path d="m153.246094 216.175781c-1.777344-.019531-3.359375-1.136719-3.96875-2.808593-.605469-1.671876-.113282-3.546876 1.238281-4.699219l15.445313-13.058594-9.726563 5.546875c-1.863281 1.085938-4.246094.609375-5.546875-1.109375-1.289062-1.761719-1.070312-4.210937.511719-5.714844l22.867187-21.164062-17.832031 10.070312c-1.929687 1.058594-4.351563.507813-5.632813-1.28125-1.265624-1.816406-.933593-4.300781.769532-5.71875l8.53125-6.910156-3.5 2.046875c-1.84375 1.035156-4.164063.5625-5.460938-1.109375-1.402344-1.582031-1.402344-3.964844 0-5.546875l13.398438-13.992188-8.53125 4.691407c-1.78125.964843-3.996094.542969-5.296875-1.007813-1.304688-1.550781-1.335938-3.804687-.082031-5.390625l4.097656-4.949219c-.863282-.355468-1.585938-.984374-2.046875-1.792968-.585938-.96875-.75-2.132813-.460938-3.226563.289063-1.09375 1.007813-2.023437 1.996094-2.578125l13.910156-8.019531c1.804688-1.0625 4.109375-.65625 5.445313.953125 1.335937 1.613281 1.308594 3.957031-.070313 5.53125l-.855469 1.023438 13.144532-7.59375c1.84375-1.035157 4.164062-.5625 5.460937 1.109374 1.402344 1.582032 1.402344 3.964844 0 5.546876l-13.226562 14.082031 22.183593-12.800781c1.917969-1 4.277344-.410157 5.496094 1.375 1.21875 1.785156.914063 4.199218-.714844 5.621093l-8.535156 6.914063 6.230469-3.585938c1.882813-1.09375 4.285156-.59375 5.578125 1.15625 1.289062 1.753906 1.054688 4.195313-.542969 5.671875l-22.699219 21.246094 17.835938-10.238281c1.902344-1.121094 4.34375-.601563 5.628906 1.195312 1.269532 1.816406.933594 4.296875-.765625 5.714844l-15.359375 13.058594 10.496094-6.0625c1.324219-.761719 2.957031-.757813 4.28125.011718 1.320312.765626 2.136719 2.179688 2.132812 3.710938-.003906 1.527344-.824218 2.941406-2.148437 3.703125l-51.199219 29.695313c-.71875.519531-1.59375.761718-2.476562.683593zm0 0" fill="#9ed26a"/></g><path d="m2.632812 161.222656v217.769532c0 15.785156-4.179687 37.800781 0 53.078124 4.695313 17.492188 26.878907 22.101563 51.199219 22.441407-.765625 20.992187-3.753906 42.667969 21.25 48.382812 17.578125 3.753907 39.9375 0 57.769531 0h223.914063c34.132813 0 50.773437-3.839843 50.773437-41.214843v-390.230469c.042969-.253907.042969-.511719 0-.765625-6.226562-23.980469-30.460937-20.054688-51.285156-19.457032v-31.746093c-5.546875-20.5625-20.820312-18.855469-38.484375-18.855469h-201.046875c-6.109375-.386719-12.234375-.386719-18.34375 0-2.003906.015625-3.980468.453125-5.804687 1.277344-1.347657.402344-2.660157.914062-3.925781 1.539062-23.039063 12.199219-45.738282 46.25-64.339844 64.59375-5.761719 5.070313-11.152344 10.546875-16.128906 16.386719l-5.121094 5.035156c-.679688.765625-.59375 1.277344 0 1.621094.597656.339844 0 .765625.683594 1.023437-.457032 1.046876-.828126 2.132813-1.109376 3.242188-5.289062 18.773438 0 46.507812 0 65.878906zm35.15625-95.320312c2.390626-2.21875 4.78125-4.4375 7.085938-6.738282l33.707031-34.136718c1.703125-1.703125 5.628907-4.863282 9.386719-8.53125v23.296875c0 10.835937 3.15625 27.476562-.597656 37.972656-5.035156 13.992187-31.0625 8.53125-41.984375 8.53125h-26.710938c1.167969-1.9375 2.511719-3.765625 4.011719-5.460937zm357.292969 7.9375v320.9375c0 20.992187 12.371094 90.285156-12.289062 100.269531-15.871094 6.398437-47.957031 0-64.765625 0h-196.867188c-19.539062 0-46.25 7.25-54.953125-16.300781-2.816406-7.507813 0-18.773438 0-24.40625 13.652344-.511719 26.964844-1.875 37.289063-2.644532h69.632812c50.601563 0 106.753906 6.996094 156.929688 0 34.644531-4.777343 26.453125-38.398437 26.453125-65.109374v-310.867188c.042969-.285156.042969-.570312 0-.855469v-15.699219h.425781c13.226562.339844 32.851562-4.523437 38.144531 14.675782zm-233.726562-66.390625h107.347656c18.175781 0 68.265625-10.324219 75.265625 15.277343v389.546876c0 16.636718.851562 26.707031-17.070312 31.570312-4.757813 1.1875-9.613282 1.960938-14.503907 2.304688-8.535156-.597657-17.066406-1.792969-21.929687-1.792969h-35.074219c-5.035156 0-9.984375-.511719-14.507813-.511719h-178.601562c-2.890625-.058594-5.695312.976562-7.851562 2.902344-7.183594.175781-14.363282-.628906-21.332032-2.390625-32.171875-9.128907-18.175781-78.847657-18.175781-103.765625v-193.023438c0-16.296875-3.328125-37.117187 0-53.160156 0-.597656.511719-1.28125.683594-1.964844h36.519531c12.035156 0 27.734375 2.390625 38.402344-4.691406 12.714844-8.535156 9.726562-24.578125 9.726562-37.890625v-44.03125c19.457032-2.558594 43.4375 1.621094 61.101563 1.621094zm0 0" fill="#262626"/><path d="m62.28125 243.652344c0 39.511718 35.839844 25.089844 62.71875 28.671875 23.722656 3.15625 22.613281 7 22.613281 31.316406 0 11.777344-4.179687 32.515625 2.390625 43.4375 10.242188 17.066406 48.042969 15.015625 58.539063-1.367187 7.851562-12.289063 2.730469-37.800782 2.730469-51.199219 0-23.808594 1.707031-22.015625 25.601562-22.015625 35.15625 0 59.730469 3.925781 59.730469-38.570313.042969-.226562.042969-.457031 0-.683593-10.410157-38.484376-53.929688-5.035157-77.308594-19.199219-24.75-14.933594 8.53125-64.769531-17.75-82.347657-18.945313-12.628906-49.066406-1.449218-53.847656 19.199219-3.667969 16.128907 3.925781 34.902344 0 51.199219-4.265625 17.921875-14.078125 12.121094-34.132813 12.121094-25.257812-.597656-51.027344-3.328125-51.285156 29.4375zm26.199219-22.527344c12.457031-4.777344 32.9375 1.109375 46.417969 0 13.484374-1.109375 20.054687-.9375 25.175781-14.421875 5.121093-13.480469-10.496094-100.265625 29.953125-63.230469 20.308594 18.515625-5.632813 57.085938 12.199218 74.238282 17.835938 17.152343 72.277344-17.066407 81.921876 18.261718-.683594 59.734375-73.472657 1.195313-85.332032 47.019532-3.5 13.652343 2.300782 29.78125 0 43.605468-3.5 20.992188-27.820312 37.035156-38.742187 6.230469-5.804688-16.386719 10.238281-50.605469-2.988281-64.257813-13.226563-13.652343-45.566407.597657-61.097657-3.753906-20.140625-5.632812-31.914062-34.390625-7.507812-43.691406zm0 0" fill="#262626"/></svg>