<svg height="505pt" viewBox="-49 0 505 505.44864" width="505pt" xmlns="http://www.w3.org/2000/svg"><path d="m114.90625 503.628906c-1.929688.019532-3.632812-1.261718-4.152344-3.117187-.519531-1.859375.273438-3.835938 1.933594-4.820313l32.425781-19.882812-47.359375 27.222656c-1.980468 1.171875-4.535156.523438-5.71875-1.449219-1.195312-1.984375-.589844-4.5625 1.367188-5.804687l77.90625-48.382813-95.144532 54.867188c-1.964843.851562-4.253906.113281-5.351562-1.71875-1.101562-1.835938-.675781-4.199219 1-5.535157l134.65625-84.648437-142.59375 82.261719c-2.027344 1.164062-4.617188.480468-5.800781-1.535156-1.179688-2.007813-.535157-4.589844 1.449219-5.804688l41.8125-25.601562-39.167969 22.871093c-2.003907 1.179688-4.585938.535157-5.800781-1.449219-.589844-.960937-.769532-2.117187-.496094-3.207031.273437-1.09375.972656-2.027343 1.945312-2.597656l101.460938-62.804687-97.109375 55.894531c-2.003907 1.179687-4.585938.535156-5.800781-1.453125-1.207032-2.007813-.601563-4.613282 1.363281-5.886719l110.933593-68.777344-106.582031 61.523438c-1.316406.957031-3.0625 1.082031-4.503906.320312-1.4375-.761719-2.320313-2.273437-2.269531-3.902343.050781-1.628907 1.023437-3.085938 2.507812-3.757813l13.824219-8.53125c-1.988281.339844-3.945313-.757813-4.6875-2.636719-.742187-1.875-.066406-4.015625 1.617187-5.128906l135.335938-85.332031-109.394531 63.144531c-1.984375.996094-4.394531.304688-5.554688-1.585938-1.15625-1.890624-.671875-4.355468 1.117188-5.667968l136.53125-86.78125-109.3125 63.65625c-2.019531 1.152344-4.59375.472656-5.78125-1.53125-1.1875-2-.550781-4.585938 1.429687-5.804688l83.371094-52.3125-61.183594 35.328125c-1.980468.996094-4.394531.304688-5.550781-1.585937s-.671875-4.355469 1.113281-5.667969l94.804688-59.730469-70.742188 40.789063c-1.980468.992187-4.394531.304687-5.550781-1.589844-1.15625-1.890625-.671875-4.351563 1.113281-5.664063l101.804688-65.960937-75.691406 43.6875c-1.980469.996094-4.394532.304687-5.550782-1.585937-1.15625-1.890626-.671875-4.355469 1.113282-5.667969l57.003906-36.179688-35.585938 20.480469c-1.980468.992188-4.394531.304688-5.550781-1.589844-1.15625-1.890625-.671875-4.351562 1.113281-5.664062l24.40625-15.1875-5.886718 3.410156c-2.007813 1.183594-4.589844.535156-5.804688-1.449219-1.164062-1.96875-.605469-4.503906 1.28125-5.800781l87.210938-58.453125-59.734376 34.132813c-2.011718 1.132812-4.558593.496093-5.800781-1.453126-1.230469-1.9375-.703125-4.503906 1.195313-5.800781l83.453125-57.429687-54.269531 31.402344c-1.296876.808593-2.925782.863281-4.273438.144531s-2.207031-2.101563-2.261719-3.625c-.050781-1.527344.714844-2.964844 2.011719-3.773438l52.820312-36.011719-28.5 16.472657c-1.941406 1.039062-4.359374.433593-5.574218-1.40625-1.21875-1.835938-.835938-4.296875.878906-5.679688l62.722656-45.480469-32.855468 19.027344c-1.972657 1.097656-4.453126.503906-5.714844-1.363281-1.230469-1.859375-.820313-4.347656.9375-5.71875l42.664062-33.621094-13.394531 7.679688c-1.777344 1.0625-4.0625.664062-5.375-.9375-1.332031-1.609375-1.332031-3.9375 0-5.546875l24.148437-28.246094c-.585937-.96875-.75-2.132812-.460937-3.226562s1.007813-2.023438 1.996094-2.574219l7.507812-4.269531c1.78125-.960938 3.996094-.539063 5.296875 1.011718 1.304688 1.550782 1.335938 3.800782.082032 5.390625l-16.300782 18.601563 42.667969-24.492188c1.917969-1.144531 4.398437-.582031 5.632813 1.28125 1.289062 1.828125.914062 4.347656-.855469 5.71875l-42.667969 33.707032 51.203125-29.441407c1.964844-1.140625 4.476563-.539062 5.714844 1.367188 1.253906 1.867187.800781 4.398437-1.023438 5.714843l-62.546875 45.738282 59.21875-34.132813c2.003906-1.25 4.640625-.636719 5.890625 1.367188 1.246094 2 .636719 4.636719-1.367187 5.886719l-52.90625 36.011718 48.382812-27.734375c1.953125-.933593 4.296875-.257812 5.453125 1.570313 1.152344 1.832031.753907 4.238281-.929687 5.597656l-83.371094 57.429688 78.847656-45.566407c2.003906-1.25 4.640625-.640625 5.890625 1.363281 1.246094 2.003907.636719 4.640626-1.367187 5.886719l-86.871094 58.027344 82.347656-47.53125c2.007813-1.179687 4.589844-.535156 5.804688 1.453125 1.203125 2.007812.597656 4.613281-1.367188 5.886719l-24.832031 15.617187 20.394531-11.777344c1.984375-.992187 4.394532-.304687 5.550782 1.589844 1.160156 1.890625.675781 4.351563-1.113282 5.664063l-57.085937 36.265625 52.648437-30.378906c2.011719-1.132813 4.5625-.496094 5.804688 1.453124 1.195312 1.984376.589844 4.558594-1.367188 5.800782l-101.632812 65.28125 97.195312-56.066406c1.984375-.992188 4.394532-.300782 5.550782 1.589843 1.160156 1.890625.675781 4.351563-1.113282 5.664063l-94.804687 60.246094 90.367187-52.222657c2.027344-1.226562 4.664063-.578125 5.890625 1.449219 1.222657 2.027344.574219 4.664062-1.453125 5.886719l-83.539062 52.3125 79.101562-45.738281c2.035156-1.117188 4.589844-.441407 5.804688 1.535156 1.195312 1.984375.589844 4.558594-1.367188 5.800781l-136.53125 86.699219 132.265625-76.289063c1.980469-.992187 4.394531-.300781 5.550781 1.589844s.671876 4.351563-1.113281 5.664063l-135.425781 85.335937 130.988281-75.605469c2.035157-1.117187 4.585938-.441406 5.800781 1.535156 1.179688 2.003907.535157 4.585938-1.449218 5.800782l-4.265625 2.644531c2.007812-1.105469 4.535156-.429687 5.714843 1.539063.589844.957031.769532 2.113281.496094 3.207031-.273437 1.089843-.972656 2.027343-1.945312 2.59375l-110.933594 68.78125 106.582031-61.527344c2.035157-1.117187 4.585938-.441406 5.800781 1.535156.589844.960938.769532 2.117188.496094 3.207031-.273437 1.09375-.972656 2.027344-1.945312 2.597657l-101.546875 62.804687 97.195312-56.0625c.96875-.585937 2.132813-.75 3.226563-.460937 1.09375.289062 2.023437 1.007812 2.574218 1.996093 1.179688 2.003907.535157 4.585938-1.449218 5.800782l-41.726563 25.601562 37.375-21.503906c1.980469-.996094 4.394531-.304688 5.550781 1.585938 1.15625 1.890624.671876 4.355468-1.113281 5.667968l-134.828125 84.050782 130.21875-75.175782c2.007813-1.183594 4.589844-.535156 5.804688 1.449219.59375.972656.773437 2.140625.5 3.246094-.269532 1.105469-.972656 2.058593-1.953125 2.640625l-77.992188 48.386718 73.640625-42.667968c2.023438-1.152344 4.597656-.472656 5.78125 1.53125 1.1875 2 .550782 4.585937-1.429687 5.808594l-32.339844 19.882812 27.988281-16.128906c1.984375-.996094 4.394532-.304688 5.550782 1.585937 1.160156 1.890625.675781 4.355469-1.113282 5.667969l-107.09375 69.117188 102.402344-59.304688c.96875-.582031 2.132812-.75 3.226562-.460938 1.089844.289063 2.019532 1.011719 2.574219 1.996094 1.195313 1.984375.589844 4.558594-1.363281 5.804688l-28.929688 18.003906 24.492188-14.082031c.957031-.589844 2.113281-.765625 3.207031-.496094 1.089844.273437 2.027344.976563 2.59375 1.949219 1.195313 1.984375.589844 4.558594-1.363281 5.800781l-71.253906 46.167969 66.816406-38.570313c.933594-.59375 2.070312-.785156 3.144531-.527343 1.078125.257812 2.003907.9375 2.570313 1.890624 1.230468 1.941407.703125 4.503907-1.195313 5.804688l-83.625 56.832031 79.105469-45.65625c2.011719-1.132812 4.558594-.496093 5.800781 1.453125 1.167969 1.96875.605469 4.503906-1.28125 5.800782l-45.566406 30.378906 41.300781-23.808594c1.972656-1.09375 4.453125-.5 5.71875 1.367188 1.21875 1.90625.773438 4.429687-1.023437 5.800781l-59.734375 43.4375 54.613281-31.574219c2.003906-1.25 4.640625-.640625 5.886719 1.363281 1.25 2.003907.640625 4.640625-1.363282 5.890625l-10.242187 7.167969 5.890625-3.328125c1.941406-1.15625 4.449219-.597656 5.714844 1.277344 1.21875 1.90625.773437 4.429687-1.023438 5.804687l-24.832031 18.859375 20.140625-11.605468c1.902344-1.121094 4.34375-.601563 5.628906 1.191406 1.246094 1.808594.953125 4.257812-.679687 5.71875l-18.773438 16.214844 14.078125-7.851563c1.835938-.949219 4.082032-.445313 5.339844 1.1875 1.261719 1.636719 1.167969 3.9375-.21875 5.46875l-6.996094 6.996094 1.875-1.109375c.96875-.582032 2.132813-.75 3.226563-.457032 1.09375.289063 2.023437 1.007813 2.578125 1.992188 1.171875 2.054688.488281 4.671875-1.539063 5.890625l-30.71875 17.664063c-1.835937 1.074218-4.1875.59375-5.460937-1.109376-1.453125-1.597656-1.453125-4.039062 0-5.632812l7.082031-6.914062-23.722656 13.65625c-1.902344 1.117187-4.347657.601562-5.632813-1.195313-1.246094-1.804687-.953125-4.257813.683594-5.71875l18.773438-16.210937-39.679688 23.039062c-1.945312 1.15625-4.453125.59375-5.71875-1.28125-1.28125-1.875-.867188-4.425781.941406-5.800781l24.917969-18.859375-44.972656 25.601562c-1.992188 1.148438-4.53125.550782-5.800781-1.367187-1.230469-1.941407-.703126-4.503907 1.191406-5.800781l10.496094-7.167969-24.914063 14.675781c-1.941406 1.039062-4.359375.433594-5.574219-1.402344-1.21875-1.835937-.835937-4.296875.878906-5.679687l59.308594-43.4375-87.554687 50.519531c-1.980469 1.171875-4.535157.523438-5.714844-1.449219-1.214844-1.964843-.644531-4.535156 1.277344-5.804687l45.484375-30.292969-65.195313 37.546875c-1.953125.933594-4.296875.257812-5.449219-1.570312-1.15625-1.832032-.757812-4.238282.925782-5.597657l83.628906-56.917969-110.933594 64.085938c-1.984375.992188-4.394531.304688-5.550781-1.589844-1.160156-1.890625-.675781-4.351562 1.113281-5.664062l71.253906-46.164063-92.589843 53.417969c-1.980469.992188-4.394531.304688-5.550781-1.589844-1.15625-1.890625-.671876-4.351562 1.113281-5.664062l28.929687-18.089844-43.945312 25.597656c-1.984375.996094-4.394532.304688-5.554688-1.585937-1.15625-1.890625-.671875-4.351563 1.117188-5.664063l107.175781-68.949218-132.007813 75.945312c-.640624.394531-1.382812.601562-2.132812.597656zm0 0" fill="#a9b0bb" fill-rule="evenodd"/><path d="m29.65625 452.429688c-1.609375.09375-3.144531-.6875-4.011719-2.050782-1.179687-2.003906-.53125-4.585937 1.453125-5.800781l107.519532-67.074219-118.699219 68.695313c-2.027344 1.164062-4.617188.480469-5.800781-1.535157-1.183594-2.007812-.535157-4.589843 1.449218-5.804687l63.742188-39.082031-63.914063 36.863281c-2.003906 1.179687-4.585937.535156-5.800781-1.449219-1.1875-2.03125-.546875-4.640625 1.449219-5.886718l105.558593-65.367188-101.632812 58.878906c-2.027344 1.226563-4.664062.578125-5.886719-1.449218-1.226562-2.027344-.578125-4.664063 1.449219-5.886719l159.914062-101.121094-155.476562 89.683594c-2.007812 1.179687-4.585938.535156-5.800781-1.449219-.957031-1.902344-.332031-4.214844 1.449219-5.375l96.9375-59.734375-92.585938 52.820313c-2.023438 1.152343-4.59375.472656-5.78125-1.53125-1.1875-2-.550781-4.585938 1.429688-5.804688l58.28125-35.671875-53.929688 31.148437c-2.027344 1.164063-4.617188.480469-5.800781-1.539062-.59375-.957031-.769531-2.113281-.496094-3.203125.269531-1.09375.972656-2.03125 1.945313-2.597656l69.121093-42.667969-64.769531 37.632812c-.96875.582032-2.132812.75-3.226562.460938s-2.023438-1.011719-2.574219-1.996094c-1.199219-1.984375-.589844-4.558594 1.363281-5.804687l131.753906-82.175781-127.316406 73.472656c-2.027344 1.226562-4.664062.578125-5.886719-1.449219-1.226562-2.027344-.578125-4.664063 1.449219-5.886719l159.828125-100.953125-155.390625 89.773438c-2.035156 1.117187-4.585938.441406-5.800781-1.535157-1.199219-1.984374-.589844-4.5625 1.363281-5.804687l147.113281-92.585937-142.675781 82.515624c-2.023438 1.152344-4.59375.472657-5.78125-1.53125-1.1875-2-.550781-4.585937 1.429688-5.804687l13.738281-8.535156-9.386719 5.460937c-.96875.585938-2.132812.75-3.226562.460938-1.09375-.289063-2.023438-1.011719-2.574219-1.996094-1.199219-1.984375-.589844-4.558594 1.363281-5.800781l126.804688-79.019531-122.367188 70.824218c-1.011719.558594-2.207031.675782-3.308594.320313-1.097656-.355469-2-1.152344-2.492187-2.195313-1.199219-1.984375-.589844-4.5625 1.363281-5.804687l87.980469-53.929688-83.542969 48.382813c-2.035156 1.117187-4.585938.441406-5.800781-1.535156-1.199219-1.984376-.589844-4.558594 1.363281-5.800782l161.367188-101.976562-156.929688 90.625c-2.035156 1.117187-4.585938.441406-5.800781-1.535156-1.199219-1.984376-.589844-4.558594 1.363281-5.804688l99.5-61.523438-95.148438 54.953126c-1.960937.851562-4.25.113281-5.351562-1.71875-1.101562-1.835938-.671875-4.199219 1-5.53125l158.636719-100.269532-154.285157 89.089844c-2.035156 1.117188-4.585937.441406-5.800781-1.535156-1.132812-2.015625-.496093-4.5625 1.449219-5.804688l68.265625-41.898437-63.914063 36.863281c-.957031.582031-2.105468.746094-3.1875.453125-1.078124-.289063-1.992187-1.007813-2.527343-1.988281-1.199219-1.984375-.589844-4.558594 1.363281-5.800782l131.242188-82.519531-126.890626 73.214844c-1.980468 1.171875-4.535156.523437-5.714843-1.449219-1.167969-1.96875-.609375-4.507812 1.277343-5.800781l130.132813-83.203125-125.695313 72.707031c-1.003906.539063-2.183593.652344-3.273437.316407-1.09375-.339844-2.003906-1.097657-2.527344-2.109376-1.179687-2.007812-.535156-4.589843 1.449219-5.804687l36.777344-22.78125-32.425782 18.773437c-2.007812 1.105469-4.535156.429688-5.714843-1.539062-1.203125-1.933594-.636719-4.476562 1.277343-5.714844l95.488282-61.441406-91.050782 52.90625c-1.980468 1.171875-4.535156.523438-5.714843-1.449219-1.214844-1.960937-.648438-4.53125 1.277343-5.804687l93.867188-61.949219-89.429688 51.453125c-1.964843 1.140625-4.476562.539062-5.714843-1.363281-1.230469-1.941407-.703125-4.503907 1.191406-5.804688l84.226563-57.171875-79.703126 46.078125c-1.308593.792969-2.945312.828125-4.285156.089844-1.34375-.738281-2.1875-2.140625-2.21875-3.671875s.757813-2.960938 2.066406-3.753906l24.320313-15.789063-19.882813 11.523438c-1.988281 1.121093-4.507812.484375-5.714843-1.453125-.605469-.9375-.8125-2.078125-.570313-3.167969.238282-1.089844.90625-2.039063 1.847656-2.632813l25.601563-17.066406-12.203125 6.996094c-1.917969 1.144531-4.398438.582031-5.632812-1.28125-1.28125-1.875-.867188-4.425781.9375-5.800781l49.582031-38.402344c-1.699219.441406-3.492188-.203125-4.523438-1.621094-1.246093-1.804687-.953125-4.253906.683594-5.714843l23.125-20.3125c-.4375-1.84375.398437-3.757813 2.046875-4.691407l10.070312-5.71875c1.902344-1.125 4.351563-.609375 5.640626 1.1875 1.289062 1.800781.988281 4.285157-.691407 5.726563l-1.964843 1.707031 14.933593-8.535156c1.265625-.851563 2.890625-.964844 4.261719-.296875 1.371094.667968 2.28125 2.019531 2.390625 3.539062.105469 1.523438-.609375 2.988282-1.871094 3.839844l-48.726562 37.632812 77.652343-44.800781c.964844-.617187 2.144532-.8125 3.253907-.539062 1.113281.277343 2.066406.996093 2.632812 1.992187 1.214844 1.960938.644531 4.53125-1.277343 5.800782l-25.601563 17.066406 41.8125-24.320313c1.980469-1.1718748 4.535156-.523437 5.71875 1.453125.605469.9375.808594 2.078125.570313 3.167969-.242188 1.089844-.90625 2.039063-1.851563 2.632813l-24.320313 15.789062 39.9375-23.042969c1.953126-.933593 4.296876-.257812 5.449219 1.574219 1.15625 1.828125.757813 4.234375-.925781 5.59375l-84.226562 57.175781 111.445312-64.34375c1.984375-.992187 4.394531-.300781 5.554688 1.589844 1.15625 1.890625.671874 4.351563-1.117188 5.664063l-93.863281 61.867187 119.464843-69.121094c1.980469-.992187 4.394532-.300781 5.550782 1.589844s.671875 4.351563-1.113282 5.664063l-95.0625 61.441406 119.46875-68.265625c1.980469-1.171875 4.535157-.527344 5.714844 1.449219 1.195313 1.984374.589844 4.558593-1.363281 5.800781l-37.207031 22.359375 52.308594-30.039063c1.980468-1.1718748 4.539062-.523437 5.71875 1.453125 1.167968 1.96875.605468 4.503906-1.28125 5.800782l-130.472657 83.199218 156.671875-90.453125c1.296875-1.03125 3.078125-1.2187498 4.5625-.480469 1.484375.742188 2.40625 2.277344 2.359375 3.933594-.042969 1.660156-1.046875 3.144532-2.570312 3.800782l-131.242188 82.601562 142.164063-82.175781c2.035156-1.117188 4.589844-.441407 5.804687 1.539062 1.195313 1.984375.589844 4.558594-1.367187 5.800781l-68.265625 41.898438 66.730469-38.484375c1.980468-.992187 4.394531-.304687 5.550781 1.585937 1.15625 1.894532.671875 4.355469-1.113281 5.667969l-158.636719 100.179688 154.199219-89c1.296874-1.035157 3.078124-1.222657 4.5625-.484375 1.484374.742187 2.40625 2.277344 2.359374 3.9375-.042968 1.65625-1.046874 3.140625-2.570312 3.796875l-99.5 61.699219 95.148438-55.042969c1.980468-.992188 4.394531-.300781 5.550781 1.589843 1.15625 1.890626.671875 4.351563-1.113281 5.664063l-161.367188 102.402344 156.929688-90.96875c.96875-.582031 2.132812-.746094 3.226562-.457031 1.09375.289062 2.023438 1.007812 2.574219 1.996093 1.183593 2.003907.535156 4.585938-1.449219 5.800781l-87.894531 54.613282 83.542969-48.296875c2.035156-1.117188 4.585937-.441407 5.800781 1.535156.59375.957031.769531 2.113281.496093 3.207031-.269531 1.089844-.972656 2.027344-1.945312 2.59375l-126.804688 78.679688 122.453126-70.742188c2.035156-1.117187 4.585937-.441406 5.800781 1.535156 1.183593 2.007813.535156 4.589844-1.449219 5.804688l-14.078125 8.53125 9.726563-5.546875c1.980468-.992187 4.394531-.300781 5.550781 1.589844s.671875 4.351562-1.113281 5.664062l-147.113282 92.246094 142.933594-82.515625c2.003906-1.183594 4.585938-.535156 5.800781 1.449219 1.203125 2.007812.601563 4.613281-1.367187 5.886719l-160.082032 101.207031 155.390626-89.6875c1.3125-.792969 2.945312-.824219 4.285156-.085938 1.34375.738281 2.191406 2.136719 2.21875 3.667969.03125 1.535156-.753906 2.964844-2.066406 3.757812l-131.753907 81.921876 127.316407-73.558594c2.035156-1.117188 4.585937-.441406 5.800781 1.535156.59375.957031.769531 2.113281.496093 3.207031-.269531 1.09375-.972656 2.027344-1.945312 2.597657l-69.121094 42.664062 64.769532-37.375c2.023437-1.152344 4.59375-.472656 5.78125 1.53125 1.1875 2 .550781 4.585938-1.429688 5.808594l-58.367188 35.753906 54.015626-31.234375c2.035156-1.117187 4.585937-.441406 5.800781 1.539063.59375.957031.769531 2.113281.496093 3.207031-.269531 1.089843-.972656 2.027343-1.945312 2.59375l-96.9375 59.734375 92.585938-53.417969c1.980468-.996094 4.394531-.304687 5.550781 1.585937 1.15625 1.890626.671875 4.355469-1.113281 5.667969l-159.914063 101.289063 155.476563-89.769532c2.027343-1.167968 4.617187-.480468 5.800781 1.535157.59375.957031.769531 2.113281.496093 3.207031-.269531 1.089844-.972656 2.027344-1.945312 2.59375l-105.558594 65.367188 101.207032-58.367188c2.007812-1.179688 4.585937-.535156 5.800781 1.449219.59375.957031.769531 2.113281.496093 3.207031-.269531 1.09375-.972656 2.027344-1.945312 2.597656l-63.828125 39.167969 59.734375-34.136719c.96875-.582031 2.132812-.746094 3.222656-.457031 1.09375.289063 2.023438 1.007813 2.578125 1.996094 1.195313 1.984375.589844 4.558593-1.367187 5.800781l-107.519532 66.988281 103.085938-59.734375c1.980469-.992187 4.394531-.304687 5.550781 1.585938 1.15625 1.894531.671875 4.355468-1.117187 5.667968l-125.011719 79.617188 120.320313-69.464844c1.980468-.992187 4.394531-.300781 5.550781 1.589844s.671875 4.351562-1.113281 5.664062l-110.335938 70.914063 105.898438-61.097656c2.007812-1.183594 4.585937-.535157 5.800781 1.449219 1.167969 1.96875.609375 4.503906-1.277344 5.800781l-110.082031 72.789062 105.558594-61.011719c2.019531-1.089843 4.535156-.460937 5.800781 1.449219 1.167969 1.972657.609375 4.507813-1.277344 5.804688l-75.265625 49.40625 70.742188-40.875c1.296874-.804688 2.925781-.863281 4.269531-.144531 1.347656.71875 2.210937 2.101562 2.261719 3.628906.054687 1.523437-.714844 2.960937-2.007813 3.769531l-68.863281 46.335937 64.339844-37.117187c2.007812-1.183594 4.585937-.535156 5.800781 1.449219 1.167969 1.96875.609375 4.503906-1.277344 5.800781l-42.667969 28.332031 37.804688-21.757812c.957031-.59375 2.113281-.769532 3.207031-.496094 1.089844.269531 2.027344.972656 2.59375 1.945312 1.167969 1.96875.605469 4.503907-1.28125 5.800782l-11.605469 7.597656 7.085938-4.097656c1.96875-1.09375 4.453125-.503906 5.714844 1.367187 1.226562 1.855469.820312 4.347657-.9375 5.714844l-46.933594 36.523437 42.15625-24.320312c1.96875-1.09375 4.453125-.503906 5.714844 1.367188 1.292968 1.90625.796874 4.503906-1.109376 5.800781l-3.15625 2.21875c1.554688-.207031 3.105469.40625 4.097657 1.621093 1.414062 1.609376 1.414062 4.023438 0 5.632813l-22.1875 22.015625 17.066406-9.898438c1.699219-1.003906 3.867187-.683593 5.203125.769532 1.367188 1.390625 1.613281 3.535156.597656 5.203125l-7.507812 11.945312c1.902344-.546875 3.9375.257813 4.949218 1.964844.582032.96875.75 2.132813.460938 3.226563s-1.011719 2.023437-1.996094 2.574218l-13.824218 8.023438c-1.707032.972656-3.855469.652344-5.207032-.769532-1.398437-1.386718-1.613281-3.570312-.511718-5.203124l7.339843-11.777344-31.0625 17.835937c-1.863281 1.082031-4.242187.609375-5.546875-1.109375-1.414062-1.613281-1.414062-4.023437 0-5.632812l22.613282-22.273438-50.003907 29.015625c-1.964843 1.136719-4.480469.539063-5.71875-1.367187-1.226562-1.941406-.699219-4.503906 1.195313-5.800782l.511718-.429687-13.054687 7.597656c-1.910156 1.195313-4.425781.621094-5.632813-1.28125-1.246093-1.835937-.875-4.324219.851563-5.71875l47.445313-36.605469-75.859376 43.605469c-1.980468 1.171875-4.535156.523438-5.71875-1.453125-1.226562-1.9375-.699218-4.503906 1.195313-5.800781l11.691406-7.679687-25.601562 14.933593c-1.976563 1.222657-4.574219.613281-5.800781-1.367187-1.226563-1.980469-.613282-4.578125 1.363281-5.800782l42.667969-28.417968-62.464844 35.585937c-1.964844 1.136719-4.476563.539063-5.714844-1.367187-1.230469-1.941406-.703125-4.503906 1.191406-5.800782l68.867188-46.335937-92.757813 53.503906c-2.007812 1.179688-4.589843.535157-5.804687-1.453125-1.164063-1.96875-.605469-4.503906 1.28125-5.800781l75.265625-49.410156-98.050781 56.664062c-1.292969.808594-2.921876.863281-4.269532.144531s-2.210937-2.101562-2.261718-3.628906c-.050782-1.523437.714843-2.960937 2.007812-3.769531l110.507812-72.960937-139.09375 80.214843c-1.980468.992188-4.394531.300781-5.550781-1.589843-1.15625-1.890626-.671875-4.351563 1.113281-5.664063l110.421876-70.996094-135.59375 78.25c-1.980469.992188-4.394532.300781-5.550782-1.589843-1.15625-1.890626-.671875-4.351563 1.113282-5.664063l124.757812-79.445313-150.273438 86.699219c-.632812.414063-1.375.621094-2.132812.597657zm0 0" fill="#e4e8eb" fill-rule="evenodd"/><path d="m34.179688 94.027344c-1.769532.015625-3.363282-1.066406-4.007813-2.710938-.640625-1.648437-.203125-3.523437 1.105469-4.710937l27.648437-24.578125-38.3125 22.101562c-1.917969 1.148438-4.398437.582032-5.632812-1.28125-1.246094-1.835937-.875-4.320312.851562-5.714844l41.644531-33.621093c-.648437-.269531-1.210937-.714844-1.621093-1.28125-1.320313-1.726563-1.097657-4.171875.511719-5.632813l27.21875-25.597656c-.035157-1.417969.636718-2.761719 1.792968-3.585938l5.804688-3.328124c1.863281-1.085938 4.242187-.609376 5.546875 1.109374 1.285156 1.765626 1.066406 4.210938-.515625 5.71875l-6.652344 6.144532 1.621094-.941406c1.921875-1.101563 4.371094-.542969 5.628906 1.28125 1.292969 1.828124.917969 4.347656-.851562 5.71875l-32.425782 26.195312 27.648438-15.957031c1.902344-1.117188 4.34375-.601563 5.628906 1.195312 1.246094 1.804688.953125 4.257813-.679688 5.71875l-27.394531 24.148438 22.785157-12.800781c1.777343-1.058594 4.0625-.660157 5.375.9375 1.320312 1.582031 1.320312 3.878906 0 5.460937l-13.3125 16.472656 7.765624-4.523437c.96875-.582032 2.132813-.75 3.226563-.460938 1.09375.289063 2.023437 1.011719 2.578125 1.996094 1.171875 2.054688.488281 4.667969-1.535156 5.886719l-27.90625 16.042969c-1.777344 1.0625-4.0625.664062-5.375-.9375-1.316406-1.582032-1.316406-3.878907 0-5.460938l13.398437-16.382812-39.679687 22.78125c-.558594.371093-1.210938.578124-1.878906.597656zm0 0" fill="#5e8faa" fill-rule="evenodd"/><g fill="#262626"><path d="m2.351562 164.257812v220.585938c0 14.164062-3.5 33.023438 0 46.933594 4.777344 19.457031 27.304688 23.808594 51.199219 23.808594-.683593 21.332031-3.328125 42.667968 22.101563 48.382812 15.871094 3.328125 35.839844 0 51.96875 0h225.449218c35.414063 0 54.273438-1.960938 54.273438-41.472656v-390.058594c.042969-.253906.042969-.511719 0-.765625-6.230469-24.320313-30.210938-20.992187-51.203125-20.226563v-30.207031c.042969-.253906.042969-.511719 0-.765625-5.460937-20.394531-18.773437-19.542968-35.925781-20.054687-31.058594-.9375-62.375 0-93.863282 0h-106.328124c-7.496094-.558594-15.027344-.558594-22.527344 0-3.054688-.433594-6.148438.433593-8.53125 2.390625l-.683594.679687c-23.125 12.375-44.886719 44.628907-63.488281 63.574219l-2.304688 2.21875c-4.421875 3.992188-8.636719 8.207031-12.628906 12.628906l-6.230469 6.230469c-2.046875 2.046875-1.621094 3.582031 0 4.4375 0 1.109375-.765625 2.132813-1.023437 3.328125-5.203125 20.394531-.253907 47.699219-.253907 68.351562zm76.796876-138.324218 8.535156-7.167969v20.5625c0 13.484375 3.753906 29.613281-5.121094 40.277344-6.144531 7.339843-5.886719 6.058593-14.503906 6.058593h-47.960938l1.109375-1.535156zm315.734374 48.46875v320.9375c0 22.1875 12.972657 90.28125-13.992187 99.925781-15.875 5.71875-44.460937 0-61.1875 0h-197.375c-17.578125 0-38.996094 5.546875-50.429687-7.851563-9.046876-10.582031-4.269532-17.917968-5.890626-30.632812-.03125-.511719-.03125-1.027344 0-1.535156 14.421876-.769532 28.160157-2.390625 37.546876-2.476563h168.960937c18.261719 0 40.277344 3.414063 58.367187 0 33.28125-6.316406 25.601563-38.742187 25.601563-65.449219v-327.167968h1.960937c12.886719-.34375 31.402344-3.585938 36.4375 14.25zm-231.933593-65.453125h107.347656c17.835937 0 66.472656-10.152344 73.386719 14.335937v389.546875c0 17.066407 0 26.710938-18.515625 31.234375-3.039063.746094-6.113281 1.316406-9.21875 1.707032-8.019531 0-16.296875-1.621094-21.246094-1.621094h-234.328125c-2.070312.191406-4.019531 1.0625-5.542969 2.472656-7.125.027344-14.226562-.773438-21.164062-2.390625-32.597657-8.53125-18.859375-74.75-18.859375-101.800781v-192.683594c0-16.210938-3.5-37.289062 0-53.160156.191406-.613282.417968-1.210938.683594-1.792969h36.691406c13.140625 0 30.125 2.902344 40.789062-6.742187 10.667969-9.640626 7.167969-25.601563 7.167969-37.632813v-42.664063c19.371094-3.074218 44.972656 1.191407 62.808594 1.191407zm0 0"/><path d="m57.390625 153.335938h238.933594c4.777343 0 13.054687-7.167969 4.777343-7.167969h-238.933593c-4.777344 0-13.054688 7.167969-4.777344 7.167969zm0 0" fill-rule="evenodd"/><path d="m62.167969 316.75c-4.949219 0-13.054688 7.335938-4.777344 7.335938h238.933594c4.949219 0 13.054687-7.335938 4.777343-7.335938zm0 0" fill-rule="evenodd"/><path d="m301.1875 189.175781h-42.667969c-4.351562 0-13.226562 6.484375-4.949219 6.484375h42.667969c4.351563 0 13.226563-6.484375 4.949219-6.484375zm0 0" fill-rule="evenodd"/><path d="m62.339844 189.429688c-4.011719 0-13.3125 5.972656-5.121094 5.972656h153.601562c4.011719 0 13.3125-5.972656 5.117188-5.972656zm0 0" fill-rule="evenodd"/><path d="m164.652344 359.757812h-8.53125c-3.214844-.339843-6.394532.902344-8.535156 3.328126-1.449219 2.386718 1.195312 3.328124 3.246093 3.328124h8.53125c3.214844.335938 6.394531-.902343 8.535157-3.328124 1.449218-2.390626-1.195313-3.328126-3.246094-3.328126zm0 0" fill-rule="evenodd"/><path d="m62.167969 359.5c-4.777344 0-13.054688 7.167969-4.777344 7.167969h51.199219c4.777344 0 13.054687-7.167969 4.777344-7.167969zm0 0" fill-rule="evenodd"/><path d="m55.769531 237.558594h42.664063c2.390625 0 7.085937 0 8.535156-2.304688 1.449219-2.304687 2.390625-2.644531-.683594-2.644531h-42.664062c-2.390625 0-7.085938 0-8.535156 2.304687-1.449219 2.304688-2.390626 2.644532.683593 2.644532zm0 0" fill-rule="evenodd"/><path d="m141.101562 237.644531h153.601563c2.644531 0 13.992187-5.121093 8.019531-5.121093h-153.597656c-2.648438 0-13.996094 5.121093-8.023438 5.121093zm0 0" fill-rule="evenodd"/><path d="m57.304688 280.824219h25.601562c2.300781 0 6.910156-.855469 8.53125-3.160157 1.621094-2.300781-1.109375-2.984374-3.242188-2.984374h-25.601562c-2.300781 0-6.910156.851562-8.53125 3.15625-1.621094 2.304687 1.109375 2.988281 3.242188 2.988281zm0 0" fill-rule="evenodd"/><path d="m132.058594 275.277344c-2.5625 0-13.996094 4.949218-8.023438 4.949218h102.398438c2.5625 0 13.996094-4.949218 8.023437-4.949218zm0 0" fill-rule="evenodd"/><path d="m301.101562 274.335938h-25.597656c-2.390625 0-6.914062.855468-8.535156 3.328124-1.621094 2.476563 1.023438 3.5 3.328125 3.5h25.601563c2.386718 0 6.910156-.851562 8.53125-3.328124 1.621093-2.472657-1.023438-3.5-3.328126-3.5zm0 0" fill-rule="evenodd"/></g></svg>