<svg height="509pt" viewBox="0 -3 509.60525 509" width="509pt" xmlns="http://www.w3.org/2000/svg"><g fill-rule="evenodd"><path d="m471.304688 450.621094c-1.683594.0625-3.238282-.890625-3.949219-2.417969-.707031-1.527344-.429688-3.332031.707031-4.578125l13.738281-15.957031-33.28125 18.945312c-1.914062 1.144531-4.394531.582031-5.628906-1.28125-1.265625-1.816406-.933594-4.300781.765625-5.71875l15.875-13.054687-21.503906 12.375c-1.878906 1.109375-4.292969.585937-5.546875-1.195313-1.289063-1.796875-.992188-4.277343.679687-5.71875l32.429688-28.074219-42.242188 24.40625c-1.988281 1.125-4.507812.484376-5.71875-1.453124-1.234375-1.890626-.742187-4.421876 1.109375-5.714844l8.535157-6.058594-12.117188 6.996094c-1.964844 1.140625-4.480469.539062-5.71875-1.363282-1.179688-1.949218-.660156-4.480468 1.195312-5.804687l13.910157-9.898437-18.261719 10.582031c-1.945312 1.085937-4.398438.488281-5.632812-1.367188-1.261719-1.894531-.8125-4.449219 1.023437-5.800781l33.453125-24.492188-40.191406 23.210938c-1.980469 1.171875-4.535156.523438-5.71875-1.449219-1.226563-1.941406-.699219-4.507812 1.195312-5.804687l6.398438-4.519532-9.984375 5.714844c-1.957031 1.1875-4.503907.578125-5.714844-1.363281-1.203125-1.929687-.71875-4.457031 1.109375-5.804687l43.945312-31.230469-51.199218 29.609375c-1.980469 1.296875-4.636719.742187-5.929688-1.238282-1.296875-1.976562-.742187-4.632812 1.234375-5.929687l63.234375-45.566406-72.875 42.066406c-1.972656 1.125-4.476562.511719-5.703125-1.398437-1.226562-1.90625-.746093-4.441407 1.09375-5.769532l66.132813-46.589844-75.433594 43.519532c-1.980469.992187-4.394531.304687-5.550781-1.585938-1.15625-1.894531-.671875-4.355468 1.113281-5.667968l26.453125-17.066407-30.976563 17.921875c-1.980468.992188-4.394531.300782-5.550781-1.589844-1.15625-1.890624-.671875-4.351562 1.113281-5.664062l10.15625-6.484375-13.738281 7.847656c-1.980469 1.171875-4.535156.523438-5.71875-1.449219-1.210937-1.960937-.644531-4.53125 1.28125-5.804687l47.957031-31.402344-53.84375 31.0625c-1.984374.992188-4.398437.304688-5.554687-1.585937-1.15625-1.894532-.671875-4.355469 1.117187-5.667969l71.847657-47.785156-79.613281 45.992187c-2.003907 1.25-4.640626.640625-5.890626-1.363281-1.246093-2.003906-.636718-4.640625 1.367188-5.886719l92.246094-61.953125-102.144532 58.539063c-1.964843.847656-4.253906.113281-5.351562-1.722656-1.101562-1.832032-.675781-4.199219 1-5.53125l72.445312-47.019532-79.445312 45.824219c-1.960938.847656-4.25.113281-5.351562-1.722656-1.097657-1.832031-.671876-4.199219 1-5.53125l45.484374-28.671875-50.175781 29.015625c-1.984375.992187-4.394531.300781-5.550781-1.589844-1.160156-1.890625-.675781-4.351563 1.113281-5.664063l99.753907-65.109374-108.886719 62.632812c-1.980469.996094-4.394531.304688-5.550781-1.585938-1.15625-1.890624-.671876-4.355468 1.113281-5.667968l100.523437-64.851563-109.140625 62.71875c-1.980469 1.171875-4.535156.523438-5.71875-1.449219-1.195312-1.984374-.589843-4.558593 1.367188-5.804687l98.21875-62.546875-105.558594 60.925781c-.96875.585938-2.132813.75-3.226563.460938-1.09375-.289063-2.023437-1.007813-2.574218-1.996094-1.195313-1.984375-.589844-4.558594 1.363281-5.800781l76.800781-47.957032-82.859375 47.527344c-1.980469 1.171875-4.535156.523438-5.714843-1.449218-1.167969-1.96875-.609376-4.507813 1.277343-5.800782l122.453125-79.191406-131.925781 76.203125c-2.023437 1.226563-4.660156.574219-5.886719-1.449219-1.226562-2.027344-.574218-4.664062 1.449219-5.890625l110.933594-71.933593-119.464844 69.289062c-2.011719 1.132812-4.558594.496094-5.804687-1.449219-1.195313-1.984375-.585938-4.5625 1.367187-5.804687l107.179687-70.484375-117.25 67.582031c-2.003906 1.183594-4.585937.535156-5.800781-1.449219-1.167969-1.96875-.605469-4.503906 1.277344-5.800781l88.664063-58.027344-96.855469 55.636719c-2.003907 1.179687-4.585938.535156-5.800781-1.449219-1.167969-1.972656-.605469-4.507812 1.277343-5.804687l81.496094-53.84375-89.6875 51.796875c-2.039063 1.070312-4.558594.402344-5.800781-1.535156-1.195313-1.984376-.589844-4.5625 1.363281-5.804688l24.664063-15.617188-28.757813 16.300782c-2.007813 1.179687-4.589844.535156-5.804687-1.449219-1.164063-1.972656-.605469-4.507813 1.28125-5.804687l35.242187-22.699219-40.019531 23.125c-2.015625 1.132812-4.5625.496093-5.804688-1.449219-1.210937-1.960938-.644531-4.53125 1.28125-5.804688l55.894532-37.117187-62.808594 36.265625c-1.980469 1.171875-4.535156.523438-5.714844-1.449219-1.230469-1.941406-.703125-4.507812 1.195312-5.804687l54.527344-37.546875-62.210937 35.925781c-1.96875 1.125-4.472657.507812-5.703125-1.398438-1.226563-1.910156-.742188-4.445312 1.097656-5.769531l61.867188-45.3125-71.851563 41.558594c-1.972656 1.09375-4.453125.5-5.71875-1.367187-1.199219-1.925782-.714844-4.453126 1.109375-5.800782l40.703125-28.929687-47.699219 27.476562c-1.945312 1.15625-4.453125.597657-5.71875-1.277343-1.195312-1.894532-.792968-4.382813.941406-5.804688l41.984376-32-50.519532 29.183594c-1.945312 1.15625-4.453125.597656-5.71875-1.277344-1.234375-1.886719-.828125-4.40625.941406-5.804688l30.976563-23.976562-38.316406 22.101562c-1.902344 1.117188-4.347657.597657-5.632813-1.195312-1.285156-1.796875-.988281-4.277344.683594-5.71875l27.988281-24.746094-26.28125 15.53125c-1.929687 1.058594-4.347656.511719-5.632812-1.28125-1.265625-1.816406-.933594-4.300781.769531-5.714844l6.996094-5.890624-2.132813 1.195312c-1.699219.957031-3.832031.644531-5.179687-.765625s-1.570313-3.550781-.539063-5.207031l7.082031-10.921875c-2.050781.453125-4.125-.65625-4.890624-2.613281-.765626-1.957032.007812-4.179688 1.820312-5.238282l13.910156-8.023437c1.699219-1.003907 3.867188-.683594 5.203125.769531 1.339844 1.414062 1.550781 3.558594.511719 5.207031l-6.824219 10.578125 28.84375-17.066406c1.902344-1.117188 4.34375-.597656 5.628907 1.195312 1.269531 1.816407.933593 4.300782-.765626 5.71875l-7 5.886719 22.273438-12.800781c1.902344-1.117188 4.347656-.597656 5.632812 1.195312 1.246094 1.804688.953126 4.257813-.683593 5.71875l-27.988281 24.40625 54.441406-30.890624c1.910156-1.195313 4.425781-.625 5.632812 1.277343 1.246094 1.839844.875 4.324219-.855468 5.71875l-30.972657 24.0625 53.84375-31.058593c1.945313-1.15625 4.453125-.597657 5.71875 1.277343 1.21875 1.90625.773438 4.429688-1.023437 5.804688l-41.902344 32 67.585938-39.082031c1.957031-1.1875 4.507812-.582032 5.71875 1.363281 1.242187 1.917969.753906 4.480469-1.109376 5.804687l-40.621093 28.925782 62.550781-36.09375c1.957031-1.1875 4.507812-.582032 5.714844 1.363281 1.210937 1.878906.765625 4.375-1.023438 5.71875l-61.949218 45.394531 90.964843-52.476562c1.964844-1.140626 4.476563-.539063 5.714844 1.363281 1.230469 1.941406.703125 4.503906-1.191406 5.804687l-54.53125 37.460938 76.800781-44.628906c1.953125-.9375 4.296875-.261719 5.453125 1.570312 1.152344 1.832031.753906 4.234375-.929687 5.597656l-55.722657 37.460938 77.3125-44.628906c2.003907-1.183594 4.585938-.535157 5.800781 1.449218 1.167969 1.96875.609376 4.507813-1.277343 5.800782l-35.242188 22.699218 51.964844-29.949218c1.984375-.996094 4.394531-.304688 5.554687 1.585937 1.15625 1.890625.671876 4.355469-1.117187 5.664063l-24.574219 15.617187 39.679688-22.867187c2.003906-1.183594 4.585937-.535157 5.800781 1.449218 1.167969 1.96875.609375 4.507813-1.277344 5.800782l-81.496093 53.847656 106.070312-61.097656c1.984375-.996094 4.394531-.304688 5.550781 1.585937 1.160157 1.890625.675781 4.355469-1.113281 5.664063l-88.574219 58.027343 113.152344-65.277343c1.980469-1.171876 4.535156-.523438 5.714844 1.449218 1.210937 1.960938.644531 4.53125-1.277344 5.800782l-107.179687 70.488281 134.65625-77.738281c1.980468-.996094 4.394531-.304688 5.550781 1.585937s.671875 4.355469-1.113281 5.664063l-110.933594 71.9375 136.53125-78.847657c1.3125-.792969 2.945312-.824219 4.289062-.085937 1.339844.738281 2.1875 2.136718 2.21875 3.667968s-.757812 2.964844-2.070312 3.757813l-122.28125 79.101563 131.667968-76.03125c2.027344-1.164063 4.617188-.480469 5.804688 1.535156 1.179688 2.007812.535156 4.589844-1.453125 5.804687l-76.285156 47.957031 73.554687-42.667968c2.035156-1.117188 4.589844-.441406 5.804688 1.535156 1.195312 1.984375.589844 4.5625-1.367188 5.804688l-97.875 62.632812 93.4375-53.84375c1.984375-.992188 4.394532-.304688 5.554688 1.585938 1.15625 1.894531.671875 4.355468-1.117188 5.667968l-100.4375 64.851563 96-55.464844c2.015625-1.132813 4.5625-.496094 5.804688 1.449219 1.195312 1.984375.589844 4.5625-1.367188 5.804687l-99.753906 65.109375 95.316406-55.042968c2.007813-1.179688 4.589844-.53125 5.804688 1.453124 1.203125 2.007813.601562 4.613282-1.367188 5.886719l-45.3125 28.671875 40.875-23.636718c1.984375-.992188 4.394532-.304688 5.554688 1.585937 1.15625 1.894531.671875 4.355469-1.117188 5.667969l-72.445312 46.847656 68.265625-39.253906c1.953125-.933594 4.292969-.257813 5.449219 1.570312 1.15625 1.832032.757812 4.238282-.925782 5.597656l-92.589844 62.207032 87.808594-50.6875c2.007813-1.179688 4.589844-.535156 5.804688 1.453125 1.164062 1.96875.605468 4.503906-1.28125 5.800781l-71.851563 47.445312 67.328125-38.828124c2.007813-1.179688 4.589844-.53125 5.804688 1.453124 1.164062 1.96875.605468 4.503907-1.28125 5.800782l-47.957032 31.574218 43.433594-25.085937c1.984375-.996094 4.394532-.304687 5.554688 1.585937 1.15625 1.890626.671875 4.351563-1.117188 5.664063l-10.152344 6.570313 5.714844-3.324219c1.984375-.996094 4.394532-.304688 5.554688 1.585937 1.15625 1.890625.671875 4.351563-1.117188 5.664063l-26.453125 17.066406 22.015625-12.714844c1.960938-1.183593 4.507813-.578125 5.71875 1.367188 1.292969 1.910156.796875 4.503906-1.109375 5.800781l-66.132812 47.019531 61.523437-35.496093c1.929688-.902344 4.222656-.246094 5.382813 1.539062 1.160156 1.78125.828125 4.144531-.773438 5.542969l-62.890625 45.480469 58.28125-33.621094c1.960938-1.1875 4.507813-.578125 5.71875 1.367187 1.246094 1.917969.757813 4.476563-1.109375 5.800781l-43.863281 31.234376 39.253906-22.699219c2.003906-1.25 4.640625-.636719 5.890625 1.363281 1.246094 2.003906.636719 4.640625-1.367187 5.890625l-6.484375 4.351563 1.960937-1.109376c1.980469-1.296874 4.636719-.742187 5.933594 1.238282 1.292969 1.976562.742188 4.632812-1.238281 5.929687l-33.535157 24.40625 28.839844-17.066406c1.988282-1.125 4.507813-.488281 5.71875 1.449219.617188.902344.847656 2.015625.636719 3.089844-.207031 1.074218-.835937 2.019531-1.746094 2.628906l-13.996093 9.980468 9.386718-5.460937c1.972656-1.09375 4.453125-.5 5.71875 1.367187 1.292969 1.910157.796875 4.503907-1.109375 5.800782l-8.535156 5.972656 3.757813-2.132812c1.902343-1.117188 4.34375-.601563 5.628906 1.195312 1.246094 1.804688.953125 4.257812-.679688 5.71875l-32.511718 28.328125 27.5625-15.957031c1.929687-1.058594 4.347656-.507813 5.628906 1.28125 1.269531 1.816406.933594 4.300781-.765625 5.71875l-15.871094 13.140625 11.007813-6.398438c1.828124-1.019531 4.121093-.589843 5.460937 1.023438 1.316406 1.582031 1.316406 3.878906 0 5.460937l-13.738281 15.957032 8.53125-4.863282c2.050781-1.179687 4.667968-.472656 5.847656 1.578125 1.175781 2.050781.46875 4.667969-1.582031 5.84375l-30.207031 17.066407c-.578126.710937-1.347657 1.246093-2.21875 1.535156zm0 0" fill="#a9b0bb"/><path d="m107.1875 501.910156c-1.945312.058594-3.683594-1.207031-4.226562-3.078125-.542969-1.867187.25-3.867187 1.921874-4.859375l143.445313-90.027344-159.144531 92.074219c-.96875.585938-2.132813.75-3.226563.460938-1.09375-.289063-2.023437-1.011719-2.578125-1.996094-1.195312-1.984375-.589844-4.558594 1.367188-5.804687l142.25-88.402344-148.136719 85.332031c-2.035156 1.117187-4.589844.441406-5.804687-1.535156-1.179688-2.007813-.535157-4.589844 1.449218-5.804688l87.125-53.332031-90.878906 52.652344c-2.003906 1.179687-4.585938.53125-5.800781-1.453125-1.160157-2.074219-.4375-4.695313 1.621093-5.886719l47.613282-28.84375-50.601563 29.097656c-2.023437 1.152344-4.59375.472656-5.78125-1.527344-1.1875-2.003906-.550781-4.585937 1.429688-5.808593l134.484375-82.859375-139.6875 80.640625c-.972656.582031-2.136719.75-3.226563.457031-1.09375-.289062-2.023437-1.007812-2.578125-1.992188-1.210937-1.964843-.644531-4.535156 1.28125-5.804687l151.292969-93.269531-156.839844 90.539062c-2.007812 1.179688-4.589843.535156-5.804687-1.449218-1.1875-2.035157-.542969-4.640626 1.453125-5.890626l203.007812-126.890624-211.03125 121.855468c-2.035156 1.117188-4.585937.441406-5.800781-1.535156-.589844-.957031-.769531-2.113281-.496094-3.207031.273438-1.089844.972656-2.027344 1.945313-2.59375l41.898437-25.601563-44.542968 25.601563c-2.007813 1.179687-4.589844.535156-5.804688-1.453125-1.1875-2.03125-.542969-4.640625 1.453125-5.886719l93.867187-56.832031-97.539062 56.574218c-2.019531 1.15625-4.59375.472657-5.78125-1.527343-1.1875-2.003907-.550781-4.585938 1.429688-5.808594l185.34375-114.6875-188.328126 108.714844c-2.007812 1.179687-4.589843.53125-5.804687-1.453125-1.1875-2.03125-.542969-4.640625 1.453125-5.886719l172.628906-107.265625-168.277344 97.367188c-2.03125 1.164062-4.617187.480468-5.804687-1.535157-.589844-.960937-.769531-2.117187-.496094-3.207031.273438-1.09375.976563-2.027344 1.949219-2.597656l150.015625-93.269532-145.664063 84.140626c-1.984374.992187-4.394531.300781-5.550781-1.589844-1.160156-1.890625-.675781-4.351563 1.113281-5.664063l167.679688-106.410156-163.242188 94.292969c-.96875.582031-2.132812.75-3.226562.460937-1.09375-.292969-2.023438-1.011719-2.578125-1.996093-1.179687-2.007813-.535156-4.589844 1.453125-5.804688l32.511719-19.882812-28.160157 16.300781c-2.035156 1.117187-4.589843.441406-5.804687-1.539063-1.195313-1.984375-.589844-4.558594 1.367187-5.800781l91.21875-57.003906-86.78125 50.089843c-2.023437 1.152344-4.597656.472657-5.785156-1.527343-1.183594-2.003907-.550781-4.585938 1.433594-5.808594l55.804688-34.730469-51.199219 29.695313c-1.980469.992187-4.394531.304687-5.550781-1.589844-1.15625-1.890625-.671876-4.351563 1.113281-5.664063l86.785156-55.296874-82.601563 47.445312c-1.984374.996094-4.394531.304688-5.550781-1.585938-1.160156-1.890624-.675781-4.355468 1.113281-5.667968l13.3125-8.53125-8.535156 5.121094c-1.980468.992187-4.394531.300781-5.550781-1.589844s-.671875-4.351563 1.113281-5.664063l69.375-44.800781-65.277344 37.375c-1.960937 1.1875-4.507812.578125-5.71875-1.363281-.613281-.929688-.832031-2.0625-.605468-3.152344.222656-1.085937.871094-2.042969 1.800781-2.652344l85.332031-59.050781-80.808594 46.679688c-1.972656 1.121093-4.476562.507812-5.703124-1.398438-1.226563-1.910156-.746094-4.445312 1.09375-5.769531l59.734374-41.304688-55.125 31.660157c-1.882812 1.210937-4.375.761718-5.71875-1.023438-.617187-.902344-.847656-2.015625-.636718-3.089844.207031-1.074218.835937-2.019531 1.746094-2.628906l41.046874-29.097656-36.4375 20.652344c-1.972656 1.09375-4.453124.5-5.71875-1.367188-1.207031-1.878906-.761718-4.375 1.023438-5.71875l35.5-27.21875-30.804688 17.832031c-1.972656 1.097657-4.453124.503907-5.71875-1.363281-1.21875-1.90625-.773437-4.429688 1.023438-5.804688l10.328125-7.679687-5.632813 3.242187c-1.925781 1.105469-4.375.546876-5.632812-1.277343-1.292969-1.828125-.914062-4.347657.851562-5.71875l5.292969-4.351563h-.511719c-1.695312.960938-3.820312.683594-5.207031-.683594-1.367187-1.394531-1.613281-3.535156-.597656-5.203124l8.535156-14.082032c-2.058593 1.101563-4.617187.386719-5.804687-1.621094-1.148438-2.050781-.425782-4.644531 1.621094-5.800781l13.910156-8.023437c1.660156-.980469 3.773437-.695313 5.121094.683594 1.351562 1.359374 1.628906 3.453124.683593 5.121093l-8.535156 14.933594 34.730469-20.480469c1.917968-1.148437 4.398437-.582031 5.632812 1.277344 1.246094 1.839844.875 4.324219-.855468 5.71875l-5.375 4.265625 19.628906-11.261719c1.941406-1.15625 4.449218-.59375 5.714844 1.277344 1.21875 1.90625.773437 4.429688-1.023438 5.804688l-10.324219 7.679687 25.597657-14.761719c1.945312-1.15625 4.453124-.59375 5.71875 1.277344 1.21875 1.90625.773437 4.429688-1.023438 5.804688l-35.414062 27.136718 59.734374-34.132812c1.964844-1.140625 4.476563-.539063 5.71875 1.363281 1.199219 1.929687.714844 4.453125-1.109374 5.804687l-41.132813 29.011719 62.464844-36.265625c.933593-.59375 2.070312-.785156 3.148437-.527344 1.074219.257813 2.003906.941407 2.566406 1.890626 1.296876 1.910156.800782 4.507812-1.105468 5.804687l-59.308594 41.214844 83.882812-48.382813c1.953126-.933594 4.296876-.257812 5.449219 1.570313 1.15625 1.832031.757813 4.238281-.925781 5.597656l-85.335938 59.136719 114.691407-66.304688c2.003906-1.179687 4.585937-.535156 5.800781 1.449219 1.164062 1.96875.605469 4.507813-1.28125 5.804687l-69.800781 45.3125 91.136719-52.566406c1.296874-1.035156 3.078124-1.222656 4.5625-.480468 1.484374.738281 2.40625 2.273437 2.359374 3.933593-.042968 1.660157-1.046874 3.140625-2.570312 3.800781l-13.226562 8.53125 26.625-15.785156c1.980468-.996094 4.394531-.304687 5.550781 1.585938s.671875 4.355468-1.117188 5.667968l-86.527343 55.378907 108.546874-62.632813c1.980469-.996094 4.394532-.304687 5.550782 1.585938s.671875 4.355468-1.113282 5.667968l-55.808593 34.730469 72.789062-41.984375c1.296875-1.035156 3.078125-1.222656 4.5625-.480468 1.484375.738281 2.40625 2.273437 2.359375 3.933593-.042968 1.660157-1.046875 3.140625-2.570312 3.800781l-91.222656 57.085938 111.445312-64.339844c2.007812-1.179687 4.589844-.535156 5.804688 1.449219.59375.972656.773437 2.140625.5 3.246094-.269532 1.105469-.972657 2.058593-1.953126 2.640625l-32.253906 19.714844 46.933594-27.050782c1.980469-1.171875 4.535156-.523437 5.714844 1.449219 1.195312 1.984375.589844 4.558594-1.363282 5.804687l-167.679687 106.410157 196.863281-113.664063c1.980469-.996094 4.394532-.304687 5.550782 1.585938s.671874 4.355468-1.113282 5.667968l-150.101562 93.269532 174.25-100.523438c1.296875-1.035156 3.078125-1.222656 4.5625-.480468 1.484375.738281 2.40625 2.273437 2.363281 3.933593-.046875 1.660157-1.050781 3.140625-2.574219 3.800781l-173.140625 107.09375 196.265625-113.496093c2.011719-1.109375 4.535156-.429688 5.71875 1.535156.597656.949219.789063 2.097656.53125 3.1875-.253906 1.09375-.9375 2.035156-1.898437 2.617187l-185 114.6875 192.167969-110.933593c2.023437-1.152344 4.597656-.472657 5.785156 1.53125 1.1875 2.003906.550781 4.585937-1.429688 5.808593l-93.867187 56.832032 90.621093-52.308594c.96875-.585938 2.132813-.75 3.226563-.460938 1.09375.289063 2.023437 1.007813 2.578125 1.996094 1.179688 2.003906.535156 4.585938-1.449219 5.800782l-41.902343 25.601562 37.546874-21.761719c2.035157-1.117187 4.589844-.441406 5.804688 1.539063.589844.957031.769531 2.113281.496094 3.207031-.273438 1.089844-.976563 2.027344-1.945313 2.59375l-202.667969 126.890625 198.484376-114.601562c2.007812-1.179688 4.589843-.535157 5.804687 1.449218 1.1875 2.03125.542969 4.640625-1.453125 5.890625l-151.039062 93.183594 146.6875-84.652344c2.007812-1.179687 4.589843-.535156 5.804687 1.449219 1.1875 2.035156.542969 4.640625-1.453125 5.890625l-134.65625 82.941406 130.304688-75.261719c.96875-.585937 2.132812-.75 3.226562-.460937s2.023438 1.011719 2.578125 1.996094c1.179687 2.007812.53125 4.589843-1.453125 5.804687l-47.699219 28.925782 43.347657-25.003907c.96875-.582031 2.132812-.746093 3.226562-.457031s2.023438 1.007812 2.578125 1.996094c1.179687 2.003906.53125 4.585937-1.453125 5.800781l-87.296875 53.332031 82.773437-47.785156c2.007813-1.179688 4.589844-.535156 5.804688 1.449219.59375.972656.773438 2.140625.503906 3.25-.273437 1.105469-.976562 2.054687-1.953125 2.640625l-141.824219 88.320312 137.640626-79.53125c2.035156-1.117187 4.589843-.441406 5.804687 1.535156 1.195313 1.984376.589844 4.558594-1.367187 5.804688l-143.617188 89.9375 139.179688-80.296875c2.007812-1.179687 4.589843-.535156 5.804687 1.449219.59375.972656.773437 2.140625.5 3.25-.269531 1.105468-.976563 2.054687-1.953125 2.640625l-73.300781 45.226562 68.949219-39.851562c2.027343-1.164063 4.617187-.480469 5.804687 1.535156.589844.960937.769531 2.117187.496094 3.207031-.273438 1.09375-.976563 2.027344-1.949219 2.597656l-57.085938 35.328126 52.734376-30.464844c1.984374-.992188 4.394531-.304688 5.550781 1.585937 1.160156 1.890625.675781 4.355469-1.113281 5.667969l-125.78125 81.40625 121.34375-70.058594c2.007812-1.179687 4.589843-.535156 5.804687 1.453125 1.164063 1.96875.605469 4.503907-1.28125 5.800781l-110.933594 72.535157 106.410157-61.269531c2.007812-1.183594 4.589843-.535157 5.804687 1.449218 1.203125 2.011719.597656 4.613282-1.367187 5.886719l-62.378907 40.109375 57.941407-33.453125c1.984374-.992187 4.394531-.300781 5.550781 1.589844 1.160156 1.890625.675781 4.351562-1.113281 5.664062l-36.179688 23.382813 32-18.433594c2.003906-1.179688 4.585938-.535156 5.800781 1.449219 1.167969 1.972656.605469 4.507812-1.28125 5.804687l-42.664062 27.820313 37.886719-21.933594c2.003906-1.246094 4.640624-.636719 5.886718 1.367187 1.25 2.003907.640625 4.636719-1.363281 5.886719l-27.734375 18.433594 23.382812-13.484375c1.941407-1.15625 4.453126-.59375 5.714844 1.28125 1.222656 1.90625.777344 4.429688-1.023437 5.800781l-52.992188 38.65625 48.128907-27.730469c1.910156-1.195312 4.425781-.625 5.632812 1.277344 1.265625 1.816406.933594 4.300782-.769531 5.71875l-40.191407 32.765625 35.328126-20.5625c1.972656-1.097656 4.453124-.503906 5.71875 1.363281 1.21875 1.90625.773437 4.429688-1.023438 5.804688l-3.757812 2.816406c1.753906-.578125 3.671874.085938 4.695312 1.621094 1.300781 1.851562.925781 4.398438-.855469 5.800781l-2.984375 2.390625c1.617188-.175781 3.1875.601563 4.027344 1.992188.84375 1.390625.804688 3.140625-.101562 4.492187l-7.59375 12.203125c1.960937-.839844 4.242187-.070312 5.289062 1.792969.582031.96875.75 2.132813.460938 3.226563-.289063 1.09375-1.011719 2.023437-1.996094 2.574218l-14.25 8.535156c-1.707032.972657-3.855469.652344-5.207032-.769531-1.402343-1.386719-1.617187-3.574219-.511718-5.203125l7.507812-12.117187-31.402344 18.089843c-1.917968 1.144532-4.398437.582032-5.632812-1.28125-1.246094-1.835937-.875-4.324218.855469-5.71875l.851562-.59375-13.3125 7.59375c-1.941406 1.15625-4.449219.59375-5.714843-1.28125-1.21875-1.90625-.773438-4.429687 1.023437-5.800781l3.070313-2.21875-16.210938 9.300781c-1.921875 1.171876-4.425781.648438-5.71875-1.195312-1.214844-1.875-.851562-4.359375.855469-5.804688l40.191406-32.679687-68.863281 39.765625c-1.972656 1.09375-4.453125.5-5.71875-1.367188-1.265625-1.898437-.8125-4.453124 1.023437-5.800781l52.820313-39-79.613282 45.996094c-2.015624 1.132813-4.5625.496094-5.804687-1.449219-1.210937-1.964844-.644531-4.535156 1.28125-5.804687l27.902344-18.433594-44.457031 25.601563c-1.296876.808593-2.925782.863281-4.273438.144531s-2.207031-2.101563-2.261719-3.625c-.050781-1.527344.714844-2.964844 2.011719-3.773438l42.667969-27.902343-60.757813 35.15625c-.96875.582031-2.132812.75-3.226562.460937s-2.023438-1.011719-2.578125-1.996094c-1.195313-1.984375-.589844-4.558593 1.367187-5.804687l36.609375-23.464844-53.335937 30.804688c-1.984375 1.125-4.503906.484374-5.714844-1.449219-1.175781-1.996094-.621094-4.5625 1.277344-5.890625l62.207031-40.019532-81.917969 47.359376c-2.011718 1.132812-4.558594.496093-5.804687-1.449219-1.195313-1.984375-.585938-4.5625 1.367187-5.804688l110.933594-72.617187-138.921875 80.128906c-2.007813 1.179688-4.589844.53125-5.804687-1.453125-1.195313-1.984375-.589844-4.558594 1.367187-5.800781l125.78125-81.578125-153.601563 88.574219c-.96875.582031-2.132812.75-3.226562.460937s-2.023438-1.011719-2.574219-1.996094c-1.179687-2.007812-.535156-4.589843 1.449219-5.804687l57.257812-35.410156-73.984374 42.664062c-2.019532 1.152344-4.59375.472656-5.78125-1.53125-1.1875-2-.550782-4.585938 1.429687-5.804688l73.21875-45.230468-90.96875 52.910156c-.613281.378906-1.320313.585938-2.046875.597656zm0 0" fill="#e4e8eb"/><path d="m87.988281 497.8125c-.882812-.003906-1.746093-.273438-2.476562-.769531-1.363281-.996094-2.03125-2.691407-1.703125-4.351563l2.132812-10.75-7 4.09375c-1.703125.878906-3.777344.539063-5.113281-.835937s-1.613281-3.460938-.6875-5.136719l6.3125-10.410156-10.664063 6.230468c-1.871093 1.042969-4.222656.574219-5.546874-1.109374-1.367188-1.597657-1.367188-3.949219 0-5.546876l3.925781-4.011718-5.972657 3.414062c-1.832031 1.015625-4.125.585938-5.464843-1.023437-1.363281-1.597657-1.363281-3.953125 0-5.546875l14.59375-15.445313-19.542969 11.007813c-1.90625 1.390625-4.582031.96875-5.972656-.941406-1.390625-1.90625-.96875-4.582032.941406-5.972657l9.128906-8.53125-12.203125 6.996094c-1.894531.972656-4.214843.402344-5.441406-1.339844-1.222656-1.738281-.976563-4.117187.578125-5.570312l2.304688-1.964844-4.011719 2.304687c-1.886719 1.414063-4.558594 1.03125-5.972657-.851562-1.414062-1.886719-1.03125-4.5625.851563-5.976562l1.453125-1.023438-2.816406 1.707031c-1.695313.964844-3.820313.683594-5.207032-.683593-1.351562-1.359376-1.628906-3.453126-.683593-5.117188l3.585937-6.488281-6.316406 3.671875c-1.960938 1.113281-4.453125.472656-5.628906-1.453125l-5.035156-8.019531c-1.90625.582031-3.960938-.234376-4.949219-1.964844-1.179688-2.003906-.535157-4.585938 1.449219-5.800782l2.644531-1.535156c1.992187-1.148437 4.535156-.550781 5.804687 1.363282l4.949219 7.9375 16.210937-9.300782c1.652344-.953125 3.734376-.691406 5.105469.636719 1.367188 1.328125 1.6875 3.402344.785157 5.078125l-3.585938 6.230469 21.164062-11.945313c1.890626-1.097656 4.296876-.621094 5.632813 1.109375 1.273437 1.734375 1.054687 4.152344-.511719 5.632813l-1.539062 1.449218 12.714844-7.339843c1.894531-.972657 4.214843-.402344 5.441406 1.339843 1.226562 1.742188.980468 4.121094-.578125 5.574219l-2.300781 1.960938 6.484374-3.667969c1.871094-.960938 4.164063-.410156 5.398438 1.292969s1.042969 4.050781-.449219 5.53125l-9.132812 8.535156 8.535156-4.949219c1.828125-1.015625 4.125-.585937 5.460937 1.023438 1.402344 1.582031 1.402344 3.964844 0 5.546875l-14.164062 15.273437 8.53125-5.203125c1.855469-.894531 4.082031-.371093 5.339844 1.257813 1.257812 1.628906 1.203125 3.917968-.132813 5.484375l-4.265625 4.351562c1.515625-.515625 3.191406-.082031 4.265625 1.109375 1.367188 1.394532 1.613281 3.535156.597657 5.203125l-6.402344 10.410157h.597656c1.449219-.832032 3.253906-.742188 4.613281.230468s2.027344 2.652344 1.703125 4.292969l-2.558594 12.886719c.875.328125 1.605469.964844 2.046876 1.792968.582031.96875.75 2.132813.460937 3.222657-.292969 1.09375-1.011719 2.023437-1.996094 2.578125l-3.925781 2.304687c-.546875.316407-1.164062.492188-1.792969.511719zm0 0" fill="#5e8faa"/></g><path d="m505.269531 111.507812c-8.109375-11.859374-25.175781-9.042968-37.546875-9.042968h-130.050781c.941406-25.601563 2.136719-54.019532-12.628906-74.582032-22.410157-28.710937-62.785157-36.050781-93.867188-17.066406-35.496093 20.648438-34.132812 56.320313-34.132812 91.988282h-119.464844c-.894531.035156-1.785156.179687-2.644531.425781-25.601563 6.996093-23.382813 26.28125-22.785156 48.894531h-27.734376c-1.109374 0-2.199218.292969-3.15625.855469-18.347656 5.546875-19.96875 17.066406-20.652343 34.132812-1.363281 31.0625 0 62.464844 0 93.867188v106.496093c-.6171878 7.785157-.214844 15.617188 1.195312 23.296876-1.449219 1.277343-2.132812 2.898437-.597656 4.351562l4.269531 4.351562c15.273438 25.601563 48.636719 48.640626 69.800782 69.800782l3.753906 3.671875 7.511718 7.421875c.136719.039062.285157.039062.425782 0 2.058594 1.550781 4.777344 1.90625 7.167968.941406l3.070313.679688c20.992187 4.011718 46.765625 0 68.269531 0h220.414063c14.507812 0 32.769531 3.074218 46.933593 0 22.355469-4.949219 26.964844-28.160157 26.792969-52.480469 16.386719.855469 37.378907 1.625 45.738281-12.457031 7.167969-12.203126 2.5625-35.414063 2.5625-48.382813v-226.21875c0-12.542969 5.203126-39.339844-2.644531-50.945313zm-220.84375-102.398437c36.949219 13.824219 40.53125 48.640625 40.53125 81.917969v11.09375h-30.375c0-23.210938 0-51.710938-30.722656-51.199219-25 .597656-32.085937 20.820313-32.765625 42.667969v8.53125h-21.761719c.085938-43.007813 6.828125-118.1875 75.09375-92.671875zm40.53125 217.769531c.449219 5.410156.246094 10.851563-.59375 16.214844-.0625 5.527344-1.5 10.953125-4.183593 15.785156-23.464844 23.980469-41.386719 19.199219-59.734376 12.714844-16.382812-8.535156-17.066406-28.929688-17.066406-44.289062-.679687-22.1875 0-44.371094 0-66.558594h82.007813c.167969 22.355468.167969 44.457031-.429688 66.472656zm-81.578125-75.347656v-43.4375h81.664063v43.777344zm-.597656-68.269531c.144531-4.972657 1.15625-9.882813 2.988281-14.503907 9.558594-15.875 29.269531-10.070312 36.609375 2.132813 1.777344 10.4375 1.949219 21.082031.511719 31.574219h-39.511719v-5.71875c0-4.183594-.679687-8.535156-.597656-13.3125zm-167.679688 24.832031h155.648438v43.777344h-169.472656c-.253906-7.765625 4.78125-39.167969 13.824218-43.777344zm11.265626 356.097656v19.027344l-18.773438-18.773438-1.023438-.765624-1.195312-1.195313-45.824219-45.652344h20.820313c11.691406 0 39.253906-5.292969 44.972656 9.8125 3.925781 10.238281.597656 26.964844.597656 37.546875zm358.398437 12.203125c-7.679687 30.035157-74.324219 17.066407-98.816406 17.066407h-193.363281c-16.300782 0-37.972657 3.753906-54.1875 0v-40.363282c0-11.945312 3.328124-30.039062-6.484376-39.082031-9.8125-9.046875-26.796874-5.890625-38.65625-5.890625h-40.789062c-5.546875-17.066406.597656-48.636719.597656-65.789062v-114.773438c0-13.652344-8.535156-59.734375 11.347656-66.476562h206.59375v9.300781c0 28.417969-8.535156 74.753906 10.664063 98.730469 16.992187 19.0625 44.9375 23.78125 67.246094 11.351562 31.742187-17.066406 28.242187-49.75 28.242187-80.554688v-38.914062c5.890625 0 13.824219-.9375 22.957032-1.703125h51.710937 7.59375c6.046875 1.015625 11.84375 3.191406 17.066406 6.398437 4.316407 4.910157 7.054688 11.003907 7.851563 17.492188.683594 4.011719 1.195312 8.109375 1.535156 12.375-.511719 8.53125-1.621094 17.066406-1.621094 23.039062v197.632813 3.328125 28.671875c0 .683594.769532 1.023437 1.621094 1.109375.734375 9.042969.214844 18.144531-1.535156 27.050781zm51.203125-45.484375c-3.671875 8.535156-26.96875 17.921875-36.097656 15.359375 0-17.066406-2.730469-34.132812-2.730469-45.652343v-162.132813c.511719-20.308594 3.753906-44.03125 0-63.488281-3.074219-15.957032-15.105469-21.078125-29.355469-22.355469-4.929687-.546875-9.886718-.800781-14.847656-.769531h-75.691406v-33.195313c0-3.414062 0-6.996093 0-10.582031h53.589844c26.199218 0 95.0625-14.503906 104.875 18.6875 4.523437 15.363281 0 39.167969 0 55.128906v198.058594c-.085938 13.140625 5.035156 38.570312-.085938 50.941406zm0 0" fill="#262626"/></svg>