<svg height="504pt" viewBox="-21 0 504 504.61479" width="504pt" xmlns="http://www.w3.org/2000/svg"><path d="m35.769531 78.195312c-1.835937 0-3.46875-1.175781-4.050781-2.917968-.578125-1.742188.019531-3.660156 1.488281-4.761719l36.234375-27.699219-58.199218 33.621094c-1.964844 1.113281-4.460938.496094-5.683594-1.402344-1.226563-1.898437-.757813-4.421875 1.066406-5.757812l22.640625-16.210938-18.03125 10.402344c-1.914063 1.097656-4.351563.550781-5.617187-1.257812-1.265626-1.808594-.941407-4.285157.746093-5.707032l26.84375-22.535156-21.972656 12.652344c-1.882813 1.09375-4.285156.59375-5.574219-1.15625-1.292968-1.75-1.058594-4.195313.539063-5.667969l12.042969-11.09375-7.03125 4.0625c-1.605469.921875-3.621094.710937-4.996094-.53125-1.371094-1.242187-1.789063-3.226563-1.03125-4.914063l5.199218-11.582031c-1.71875.25-3.414062-.578125-4.269531-2.089843-1.179687-2.039063-.484375-4.644532 1.554688-5.828126l9.667969-5.570312c1.601562-.921875 3.613281-.707031 4.984374.53125 1.375 1.234375 1.792969 3.214844 1.039063 4.902344l-4.964844 11.09375 28.613281-16.527344c1.878907-1.09375 4.285157-.59375 5.574219 1.15625 1.292969 1.75 1.058594 4.195312-.539062 5.667969l-12.078125 11.136719 31.183594-17.960938c1.914062-1.097656 4.351562-.554688 5.617187 1.253906s.941406 4.285156-.746094 5.707032l-26.863281 22.511718 51.097656-29.472656c1.96875-1.113281 4.460938-.496094 5.6875 1.402344 1.222656 1.898437.753906 4.421875-1.070312 5.757812l-22.613282 16.210938 40.472657-23.371094c1.945312-1.101562 4.414062-.515625 5.652343 1.347656 1.242188 1.859375.832032 4.363282-.933593 5.734375l-36.292969 27.683594 60.253906-34.765625c1.949219-1.125 4.4375-.546875 5.683594 1.324219 1.25 1.871093.832031 4.390625-.953125 5.757812l-36.550781 27.902344 60.691406-34.984375c1.9375-1.09375 4.386719-.519531 5.632812 1.324219 1.246094 1.84375.867188 4.335937-.871093 5.722656l-39.203125 30.71875 65.441406-37.765625c1.980469-1.136719 4.5-.515625 5.726562 1.410156 1.222657 1.925782.714844 4.472656-1.152343 5.78125l-15.667969 10.898438 31.386719-18.089844c1.976562-1.179688 4.53125-.578125 5.773437 1.359375 1.242188 1.9375.726563 4.507813-1.164062 5.816406l-21.863282 15.53125 39.339844-22.707031c1.945313-1.109375 4.421875-.523438 5.664063 1.347656 1.238281 1.867188.824219 4.375-.957031 5.742188l-35.839844 27.308594 59.554687-34.398438c1.933594-1.125 4.410157-.566406 5.667969 1.285156 1.261719 1.847656.882812 4.355469-.871094 5.746094l-40.890625 32.683594 68.835938-39.714844c1.933593-1.117188 4.398437-.558594 5.660156 1.285156 1.257813 1.839844.886719 4.339844-.855469 5.738282l-41.019531 32.851562 69.128906-39.875c1.992188-1.179688 4.558594-.558594 5.789063 1.402344 1.230468 1.960937.671875 4.546875-1.257813 5.824218l-3.414062 2.296876 16.519531-9.523438c1.980469-1.136719 4.503906-.515625 5.726562 1.410156 1.222657 1.925782.714844 4.472656-1.152343 5.78125l-16.023438 11.164063 31.855469-18.355469c1.957031-1.171875 4.492188-.59375 5.75 1.3125s.789062 4.464844-1.058594 5.804688l-33.03125 24.652343 55.082032-31.769531c1.949218-1.09375 4.414062-.5 5.648437 1.367188 1.230469 1.863281.816406 4.367187-.957031 5.730468l-34.320313 25.832032 57.105469-32.929688c1.988281-1.152344 4.53125-.527344 5.753906 1.417969 1.222656 1.945312.6875 4.507812-1.214844 5.800781l-2.867187 1.945312 7.5625-4.371093c1.960937-1.148438 4.480469-.5625 5.726563 1.339843 1.25 1.902344.785156 4.445313-1.050782 5.789063l-24.933594 18.4375 21.265626-12.277344c1.894531-1.09375 4.308593-.578125 5.589843 1.191407 1.28125 1.773437 1.015625 4.230468-.617187 5.683593l-24.730469 22.0625 19.824219-11.445312c1.777344-1.027344 4.035156-.640625 5.375.917969 1.335937 1.558593 1.371094 3.847656.085937 5.449218l-11.570312 14.421875 6.1875-3.578125c1.5-.871094 3.382812-.742187 4.753906.320313 1.371094 1.066406 1.960937 2.855469 1.492187 4.527343l-2.117187 7.527344c1.394531.707032 2.292969 2.125 2.332031 3.691406.042969 1.566407-.777344 3.027344-2.136718 3.808594l-4.265626 2.457032c-1.503906.867187-3.382812.738281-4.753906-.328126-1.367187-1.066406-1.957031-2.855468-1.484375-4.527343l1.367188-4.847657-16.828125 9.679688c-1.777344 1.027344-4.035156.640625-5.375-.917969-1.335938-1.558593-1.371094-3.847656-.085938-5.449219l11.578125-14.421874-36.035156 20.847656c-1.894531 1.09375-4.308594.578125-5.589844-1.195313-1.285156-1.773437-1.019531-4.226562.613281-5.683593l24.746094-22.058594-50.164062 28.953125c-1.960938 1.152343-4.480469.5625-5.730469-1.335938-1.246094-1.902343-.785156-4.449219 1.050781-5.789062l24.953125-18.472657-44.375 25.597657c-1.988281 1.179687-4.558593.558593-5.789062-1.402344s-.671875-4.546875 1.257812-5.824219l2.894531-1.960937-15.921874 9.214843c-1.957032 1.15625-4.480469.578126-5.734376-1.320312-1.253906-1.894531-.800781-4.441406 1.03125-5.789062l34.320313-25.863282-57.128906 32.988282c-1.960938 1.171874-4.496094.59375-5.753907-1.3125-1.253906-1.90625-.789062-4.464844 1.058594-5.804688l33.042969-24.6875-55.074219 31.824219c-1.984375 1.175781-4.539062.566406-5.777344-1.378907-1.238281-1.941406-.710937-4.519531 1.195313-5.816406l16-11.203125-31.898437 18.40625c-1.992188 1.179688-4.5625.554688-5.789063-1.40625-1.230469-1.960937-.671875-4.542969 1.257813-5.824219l3.351562-2.277343-16.46875 9.515625c-1.929688 1.117187-4.398438.558594-5.65625-1.285156-1.261719-1.839844-.886719-4.34375.851562-5.738282l41.011719-32.886718-69.121093 39.925781c-1.929688 1.097656-4.375.53125-5.628907-1.304688-1.25-1.832031-.886719-4.316406.835938-5.71875l40.847656-32.722656-68.890625 39.765625c-1.949219 1.109375-4.421875.519531-5.664062-1.347656-1.238282-1.867188-.824219-4.378906.957031-5.746094l35.839843-27.304688-59.523437 34.414063c-1.976563 1.179687-4.527344.578125-5.773437-1.359375-1.242188-1.9375-.726563-4.507812 1.167968-5.816406l21.84375-15.515625-39.355468 22.707031c-1.980469 1.179688-4.539063.570312-5.777344-1.375-1.238282-1.941406-.707032-4.519531 1.195312-5.816406l15.675782-10.949219-31.417969 18.152344c-1.941407 1.113281-4.410157.542969-5.664063-1.308594s-.863281-4.355469.890625-5.742187l39.210938-30.726563-65.464844 37.792969c-1.949219 1.125-4.4375.542968-5.683594-1.324219-1.25-1.871094-.832031-4.390625.953125-5.757813l36.550782-27.949218-60.75 35.046875c-.636719.378906-1.359376.582031-2.097657.589843zm0 0" fill="#457393"/><path d="m37.464844 504.613281c-1.914063.003907-3.597656-1.273437-4.113282-3.117187-.515624-1.847656.265626-3.808594 1.90625-4.800782l45.804688-27.671874-60.652344 34.984374c-2.015625 1.0625-4.507812.355469-5.664062-1.601562-1.160156-1.960938-.574219-4.484375 1.328125-5.734375l68.929687-41.660156-73.316406 42.324219c-2.011719 1.089843-4.527344.402343-5.699219-1.5625-1.171875-1.96875-.585937-4.507813 1.328125-5.757813l173.457032-106.496094-169.53125 97.902344c-2.015626 1.097656-4.539063.398437-5.707032-1.574219-1.171875-1.976562-.566406-4.523437 1.363282-5.765625l64.335937-38.808593-59.992187 34.601562c-2.007813 1.046875-4.484376.339844-5.640626-1.609375-1.152343-1.949219-.582031-4.460937 1.296876-5.71875l131.3125-79.96875-126.96875 73.320313c-2.015626 1.136718-4.566407.457031-5.753907-1.527344-1.1875-1.988282-.578125-4.554688 1.378907-5.792969l207.417968-128.429687-203.042968 117.230468c-2.023438 1.207032-4.640626.546875-5.847657-1.480468-1.207031-2.023438-.542969-4.640626 1.480469-5.847657l200.199219-123.734375-195.832031 113.09375c-2.015626 1.097656-4.539063.398438-5.707032-1.574218-1.171875-1.976563-.566406-4.523438 1.363282-5.765626l116.90625-71.039062-112.5625 64.996094c-2.015626 1.097656-4.539063.402344-5.707032-1.574219-1.171875-1.976563-.566406-4.523437 1.363282-5.761719l106.453124-64.582031-102.109374 58.964844c-2.019532 1.128906-4.574219.4375-5.75-1.558594-1.175782-1.992187-.546876-4.5625 1.417968-5.789063l15.445313-9.265624-11.09375 6.410156c-2.015625 1.074218-4.515625.375-5.679688-1.585938-1.167969-1.960937-.582031-4.492187 1.328125-5.746094l153.0625-93.601562-148.730468 85.863281c-2.007813 1.042969-4.484376.335938-5.640626-1.609375-1.152343-1.949218-.582031-4.460937 1.296876-5.722656l122.71875-74.632812-118.375 68.34375c-2.027344 1.199218-4.644532.527343-5.84375-1.5-1.199219-2.03125-.527344-4.648438 1.5-5.847657l88.917968-53.757812-84.574218 48.800781c-2.011719 1.078125-4.515626.378906-5.679688-1.585938-1.164062-1.960937-.578125-4.492187 1.328125-5.742187l132.949219-81.121094-128.597656 74.242188c-2.011719 1.089843-4.523438.398437-5.695313-1.566407-1.171875-1.964843-.585937-4.503906 1.328125-5.753906l159.898438-98.792968-155.53125 89.796874c-2.003907 1.085938-4.511719.402344-5.6875-1.550781-1.175782-1.957031-.605469-4.488281 1.292968-5.753906l177.742188-111.632813-173.347656 100.078126c-2.007813 1.074218-4.5.382812-5.667969-1.570313-1.171875-1.953125-.601563-4.480469 1.292969-5.742187l113.3125-70.210938-108.9375 62.90625c-2.011719 1.078125-4.515626.378906-5.679688-1.585938-1.164062-1.960937-.578125-4.492187 1.328125-5.742187l32.863281-20.070313-28.511718 16.433594c-2 1.085938-4.5.40625-5.679688-1.539062-1.179688-1.945313-.625-4.476563 1.261719-5.75l129.621093-82.4375-125.203124 72.277344c-2.007813 1.105468-4.535157.425781-5.714844-1.542969-1.183594-1.96875-.59375-4.519531 1.328125-5.769531l64.367187-40.175782-59.980468 34.628906c-1.996094 1.132813-4.535157.484376-5.742188-1.472656-1.203125-1.957031-.640625-4.519531 1.273438-5.789062l117.648437-77.238282-113.179687 65.339844c-2.007813 1.128906-4.550782.453125-5.738282-1.519531-1.191406-1.972656-.597656-4.53125 1.335938-5.785156l36.027344-22.714844-31.625 18.253906c-1.988282 1.113281-4.5.46875-5.707032-1.46875-1.207031-1.933593-.675781-4.476562 1.203125-5.769531l84.148438-56.320312-79.644531 45.96875c-1.976563 1.089843-4.460938.453124-5.664063-1.457032-1.207031-1.910156-.714844-4.425781 1.117187-5.742187l71.910157-49.546875-67.363281 38.894531c-1.988282 1.21875-4.589844.609375-5.832032-1.367187-1.242187-1.972657-.671875-4.578126 1.285156-5.851563l44.296876-30.386719-39.75 22.945313c-1.972657 1.140625-4.492188.527343-5.722657-1.390625-1.230469-1.921875-.734375-4.464844 1.125-5.785156l35.386719-25.121094-30.789062 17.773437c-1.933594 1.125-4.40625.566407-5.667969-1.285156-1.261719-1.847656-.878907-4.355469.875-5.746094l35.128906-28.160156-30.335937 17.5625c-1.882813 1.128906-4.3125.640625-5.621094-1.121094-1.304688-1.765625-1.058594-4.234375.570312-5.707031l21.53125-20.144531-16.480468 9.496093c-1.878907 1.046876-4.242188.53125-5.515626-1.203124-1.273437-1.734376-1.054687-4.144532.507813-5.621094l3.21875-2.945313c-1.035156.070313-2.0625-.234375-2.894531-.855469-1.367188-1.019531-1.996094-2.757812-1.597656-4.417968l2.492187-10.324219c-.859375-.355469-1.574219-.984375-2.03125-1.792969-1.179687-2.039062-.484375-4.648437 1.554687-5.828125l4.265626-2.46875c1.480468-.855469 3.324218-.75 4.695312.273438 1.367188 1.019531 1.996094 2.761719 1.59375 4.421875l-1.945312 8.054687 22.121093-12.722656c1.878907-1.046875 4.242188-.53125 5.515625 1.203125 1.273438 1.734375 1.054688 4.144531-.507812 5.625l-1.800782 1.644531 14.71875-8.53125c1.882813-1.128906 4.316407-.640625 5.621094 1.121094 1.304688 1.765625 1.058594 4.234375-.570312 5.703125l-21.511719 20.121094 46.695313-26.964844c1.9375-1.148438 4.429687-.59375 5.699218 1.261719 1.273438 1.859375.878906 4.386719-.894531 5.769531l-35.140625 28.160156 60.960938-35.199218c1.976562-1.136719 4.496093-.523438 5.726562 1.394531 1.226562 1.917969.734375 4.464843-1.125 5.78125l-35.386719 25.132812 55.96875-32.316406c1.984375-1.175781 4.546875-.5625 5.78125 1.390625s.691407 4.53125-1.226562 5.820312l-44.292969 30.429688 65.160156-37.625c1.980469-1.132812 4.507813-.503906 5.726563 1.429688 1.21875 1.929687.699219 4.480468-1.179688 5.78125l-71.925781 49.554687 98.34375-56.824219c1.996094-1.1875 4.578125-.558594 5.804688 1.414063 1.226562 1.972656.648437 4.5625-1.296876 5.832031l-84.148437 56.320312 110.132813-63.582031c2.015624-1.21875 4.636718-.570312 5.855468 1.445313s.570313 4.640625-1.445312 5.859375l-36.003906 22.714843 51.988281-30.011718c1.996093-1.136719 4.535156-.484375 5.742187 1.472656 1.203125 1.957031.640625 4.515625-1.273437 5.789062l-117.640625 77.21875 146.390625-84.523437c1.308593-.785156 2.933593-.8125 4.269531-.074219 1.332031.742188 2.171875 2.136719 2.195312 3.664063.027344 1.523437-.761718 2.945312-2.070312 3.730469l-64.375 40.167968 82.261719-47.496094c2.007812-1.148437 4.566406-.488281 5.765625 1.492188 1.199218 1.980469.601562 4.554688-1.347656 5.804688l-129.609376 82.429687 155.46875-89.746094c2.019532-1.152343 4.59375-.46875 5.78125 1.53125 1.1875 2.003907.550782 4.585938-1.429687 5.808594l-32.929687 20.113281 47.5625-27.46875c2.023437-1.210937 4.644531-.554687 5.855468 1.46875 1.210938 2.019532.554688 4.640625-1.46875 5.851563l-113.3125 70.203125 134.296875-77.53125c2.003907-1.085938 4.511719-.402344 5.6875 1.550781 1.175781 1.957031.605469 4.488281-1.292969 5.753906l-177.742187 111.632813 206.046875-118.964844c1.308594-.78125 2.933594-.800781 4.265625-.058594 1.332031.742188 2.164063 2.140625 2.183594 3.664063.023437 1.527343-.769531 2.945312-2.082031 3.726562l-159.90625 98.746094 183.765624-106.09375c1.3125-.78125 2.9375-.800781 4.269532-.054687 1.328125.746093 2.160156 2.144531 2.179687 3.671874.019531 1.523438-.777343 2.941407-2.085937 3.722657l-132.867188 81.066406 138.695313-80.070313c2.027343-1.199218 4.644531-.527343 5.84375 1.503907 1.199219 2.027343.527343 4.644531-1.5 5.84375l-88.910157 53.804687 84.566407-48.828125c1.3125-.777343 2.9375-.792969 4.265625-.046875 1.328125.75 2.15625 2.152344 2.171875 3.675782.015625 1.523437-.78125 2.941406-2.09375 3.71875l-122.820313 74.671874 118.476563-68.394531c2.019531-1.152343 4.59375-.46875 5.78125 1.53125 1.1875 2.003907.550781 4.585938-1.429688 5.808594l-153.082031 93.585937 148.730469-85.871093c2.03125-1.199219 4.648437-.519531 5.84375 1.511719 1.199219 2.03125.519531 4.644531-1.511719 5.84375l-15.273438 9.164062 10.941407-6.3125c2.027343-1.199219 4.644531-.527344 5.84375 1.5s.527343 4.644531-1.5 5.84375l-106.566407 64.640625 102.222657-59.015625c2.015625-1.097656 4.539062-.402344 5.710937 1.574219 1.167969 1.976562.5625 4.523437-1.367187 5.765625l-117.054688 71.125 112.71875-65.085938c1.308594-.777344 2.933594-.800781 4.265625-.058594 1.332032.746094 2.164063 2.140626 2.183594 3.664063.023438 1.527344-.769531 2.945313-2.082031 3.726563l-200.140625 123.65625 195.773437-113.023438c2.023438-1.210938 4.644531-.546875 5.851563 1.476562 1.210937 2.023438.550781 4.644532-1.472656 5.851563l-207.421876 128.417969 203.042969-117.230469c1.3125-.773437 2.9375-.792969 4.265625-.042969s2.15625 2.148438 2.171875 3.671875c.015625 1.527344-.78125 2.945313-2.09375 3.71875l-131.3125 79.964844 126.96875-73.308594c2.023438-1.125 4.574219-.433593 5.75 1.558594 1.175781 1.996094.546875 4.5625-1.414062 5.789063l-64.179688 38.722656 59.84375-34.542969c2.015625-1.113281 4.554688-.425781 5.730469 1.554687 1.179688 1.980469.570312 4.539063-1.371094 5.777344l-173.5 106.519532 169.140625-97.636719c2.023438-1.125 4.574219-.433594 5.75 1.558593 1.175781 1.996094.546875 4.5625-1.414062 5.789063l-69.0625 41.71875 64.726562-37.375c2.03125-1.199219 4.648438-.519531 5.84375 1.511719 1.199219 2.027344.523438 4.644531-1.507812 5.84375l-45.800781 27.65625 41.464843-23.9375c2.027344-1.199219 4.644531-.527344 5.84375 1.503906 1.199219 2.027344.527344 4.644531-1.5 5.84375l-66.945312 40.664062 62.601562-36.140624c2.015625-1.136719 4.570313-.457032 5.753907 1.527343 1.1875 1.984375.578124 4.554688-1.375 5.792969l-140.332032 87.125 135.953125-78.503906c2.015625-1.136719 4.570313-.457032 5.753907 1.527344 1.1875 1.984374.578124 4.554687-1.375 5.792968l-111.558594 69.25 107.179687-61.875c2.015625-1.136718 4.570313-.460937 5.753907 1.527344 1.1875 1.984375.578124 4.554688-1.375 5.792969l-93.304688 57.964843 88.925781-51.367187c2.011719-1.078125 4.515625-.378906 5.679688 1.582031 1.164062 1.960938.578125 4.496094-1.328125 5.746094l-11.390625 6.972656 7.039062-4.0625c2.015625-1.113281 4.554688-.425781 5.730469 1.550782 1.179688 1.980468.570312 4.539062-1.371094 5.777343l-8.277344 5.078125 3.917969-2.25c2-1.085937 4.5-.410156 5.679688 1.535156 1.179687 1.949219.625 4.476563-1.261719 5.75l-92.054688 58.675782 87.636719-50.59375c2.015625-1.21875 4.640625-.570313 5.859375 1.445312 1.214844 2.019532.570313 4.640625-1.449218 5.859375l-55.160157 34.902344 50.75-29.296875c1.988281-1.132812 4.515625-.496094 5.730469 1.445312 1.210938 1.9375.679688 4.492188-1.207031 5.78125l-98.714844 66.722657 94.191406-54.382813c1.996094-1.15625 4.554688-.515625 5.769531 1.445313 1.214844 1.964843.644532 4.539062-1.28125 5.808593l-57.429687 38.023438 52.90625-30.554688c1.976563-1.121093 4.480469-.5 5.703125 1.414063s.730469 4.449219-1.121094 5.769531l-62.753906 43.996094 58.25-33.628906c1.976562-1.136719 4.5-.511719 5.722656 1.410156 1.226563 1.925781.71875 4.472656-1.148437 5.785156l-36.199219 25.222656 31.625-18.253906c1.972656-1.089844 4.453125-.460937 5.664062 1.441406 1.210938 1.902344.734376 4.421876-1.089843 5.746094l-15.660157 10.914063 11.09375-6.402344c1.894532-1.078125 4.300782-.554687 5.574219 1.214844 1.277344 1.769531 1.007813 4.21875-.617187 5.671875l-32.398438 28.527344 27.390625-15.804688c1.863281-1.085938 4.246094-.613281 5.550781 1.105469 1.304688 1.722656 1.121094 4.144531-.429687 5.644531l-13.570313 13.167969 8.464844-4.878907c1.777344-1.007812 4.015625-.617187 5.347656.929688 1.328126 1.550781 1.371094 3.824219.105469 5.425781l-3.96875 4.96875c2.027344-.3125 3.992188.867188 4.671875 2.800781.679688 1.933594-.113281 4.082032-1.886718 5.109376l-17.707032 10.238281c-1.777344 1.019531-4.027344.632812-5.359375-.921875-1.335937-1.550782-1.378906-3.832032-.101562-5.433594l3.480469-4.355469-18.578126 10.675781c-1.863281 1.089844-4.246093.617188-5.550781-1.105468-1.304687-1.71875-1.121093-4.140625.429688-5.644532l13.5625-13.164062-34.484375 19.914062c-1.898438 1.097657-4.316406.582032-5.597656-1.195312s-1.007813-4.238281.628906-5.691406l32.34375-28.535156-61.398438 35.421874c-1.972656 1.09375-4.453125.460938-5.664062-1.441406-1.210938-1.902344-.734375-4.417968 1.089844-5.742187l15.667968-10.898438-31.34375 18.082031c-1.972656 1.09375-4.453125.460938-5.664062-1.441406-1.210938-1.902344-.734375-4.417968 1.089844-5.742187l36.234374-25.242188-56.191406 32.425781c-1.972656 1.082032-4.441406.453126-5.652344-1.441406-1.207031-1.894531-.742187-4.402344 1.070313-5.734375l62.828125-43.980469-88.609375 51.15625c-1.992187 1.132813-4.523437.492188-5.734375-1.457031-1.207031-1.949219-.664062-4.503906 1.238281-5.785156l57.453125-37.984375-78.453125 45.226562c-1.984375 1.085938-4.46875.441407-5.667969-1.476562-1.199218-1.914062-.699218-4.433594 1.144532-5.742188l98.695312-66.679687-128 73.898437c-2.003906 1.105469-4.523437.429688-5.707031-1.53125-1.183594-1.957031-.613281-4.5 1.296875-5.761718l55.226562-34.988282-73.179687 42.28125c-2.003906 1.085938-4.503906.410157-5.683594-1.539062-1.179687-1.945312-.625-4.472656 1.261719-5.746094l92.03125-58.695312-114.292969 65.980468c-2.011719 1.058594-4.496093.359376-5.65625-1.589843-1.160156-1.949219-.59375-4.46875 1.292969-5.730469l8.535156-5.265625-21.769531 12.585937c-2.015625 1.117188-4.554687.429688-5.730469-1.550781-1.179687-1.980469-.570312-4.539062 1.371094-5.777343l11.167969-6.828126-24.53125 14.15625c-2.011719 1.109376-4.539063.425782-5.71875-1.542968-1.179688-1.96875-.59375-4.515625 1.332031-5.769532l93.378906-58.027343-113.175781 65.339843c-2.011719 1.109376-4.539063.425782-5.71875-1.542968s-.589844-4.515625 1.332031-5.769532l111.511719-69.144531-132.46875 76.457031c-2.011719 1.109376-4.539063.425782-5.71875-1.542968s-.59375-4.515625 1.332031-5.769532l140.398438-87.148437-163.660156 94.460937c-2.023438 1.152344-4.59375.472657-5.78125-1.53125-1.1875-2-.550782-4.585937 1.429687-5.804687l66.875-40.621094-83.097656 47.957031c-.636719.382813-1.363281.59375-2.109375.605469zm0 0" fill="#5e8faa"/><path d="m104.640625 265.679688c-1.808594.003906-3.425781-1.132813-4.027344-2.839844-.605469-1.707032-.070312-3.609375 1.339844-4.746094l20.394531-16.519531-40.746094 23.5c-1.894531 1.078125-4.292968.558593-5.570312-1.210938-1.273438-1.765625-1.015625-4.207031.601562-5.664062l25.601563-22.707031-46.078125 26.613281c-1.882812 1.046875-4.246094.53125-5.519531-1.203125-1.273438-1.734375-1.054688-4.144532.507812-5.621094l23.167969-21.070312-20.410156 11.785156c-1.90625 1.078125-4.320313.542968-5.585938-1.246094-1.269531-1.789062-.972656-4.246094.679688-5.683594l3.34375-2.875c-1.265625.160156-2.542969-.246094-3.480469-1.109375-1.371094-1.28125-1.746094-3.308593-.921875-4.992187l4.660156-9.542969c-1.949218.046875-3.679687-1.238281-4.207031-3.113281-.523437-1.878906.289063-3.871094 1.976563-4.847656l9.636718-5.535157c1.625-.941406 3.671875-.710937 5.046875.566407 1.375 1.28125 1.75 3.308593.925781 4.996093l-4.265624 8.695313 24.71875-14.257813c1.90625-1.082031 4.320312-.542969 5.585937 1.242188 1.269531 1.789062.972656 4.246093-.679687 5.683593l-2.039063 1.757813 15.046875-8.683594c1.878906-1.050781 4.242188-.535156 5.515625 1.199219 1.273437 1.738281 1.054687 4.148438-.507813 5.625l-23.160156 21.078125 48.367188-27.902344c1.894531-1.097656 4.316406-.582031 5.597656 1.195313s1.007812 4.234375-.632812 5.6875l-25.597657 22.707031 51.234375-29.589844c1.929688-1.136719 4.40625-.582031 5.675782 1.261719 1.265624 1.84375.894531 4.355469-.855469 5.75l-20.402344 16.511719 40.746094-23.523438c1.925781-1.105469 4.378906-.546875 5.636719 1.28125 1.257812 1.828125.902343 4.316407-.816407 5.722657l-20.742187 16.800781 28.160156-16.210938c1.855469-1.058593 4.210938-.578125 5.503906 1.125 1.296875 1.703125 1.128906 4.097657-.386718 5.605469l-19.984376 19.714844 15.054688-8.695313c1.648438-.949219 3.726562-.695312 5.09375.628907 1.367188 1.320312 1.695312 3.390624.800781 5.070312l-6.484375 12.226562.410156-.238281c1.320313-.773437 2.953126-.78125 4.28125-.019531 1.328126.761719 2.144532 2.179688 2.140626 3.710938 0 1.53125-.824219 2.941406-2.15625 3.699218l-13.261719 7.679688c-1.644531.953125-3.726563.699218-5.09375-.621094-1.371094-1.320312-1.703125-3.390625-.808594-5.070312l6.484375-12.238282-31.054688 17.921875c-1.855468 1.058594-4.210937.578125-5.507812-1.125-1.292969-1.703125-1.128906-4.101562.390625-5.609375l19.976563-19.703125-45.800782 26.453125c-1.921875 1.082032-4.351562.515625-5.601562-1.296875-1.25-1.816406-.914063-4.289062.78125-5.699219l20.71875-16.835937-41.285156 23.746094c-.644532.386719-1.378907.597656-2.132813.605469zm0 0" fill="#73b0f4"/><path d="m89.921875 461.949219c-1.902344 0-3.574219-1.257813-4.101563-3.082031-.53125-1.828126.214844-3.78125 1.820313-4.796876l56.875-35.839843-74.769531 43.113281c-1.988282 1.097656-4.488282.441406-5.6875-1.488281-1.195313-1.933594-.667969-4.464844 1.199218-5.757813l112.777344-74.4375-124.125 71.691406c-2.003906 1.066407-4.492187.382813-5.664062-1.558593-1.171875-1.945313-.617188-4.464844 1.261718-5.738281l36.914063-23.230469-32.511719 18.773437c-2.007812 1.242188-4.640625.621094-5.882812-1.386718-1.242188-2.007813-.621094-4.640626 1.386718-5.882813l86.800782-57.863281-82.3125 47.539062c-1.980469 1.101563-4.476563.460938-5.683594-1.457031-1.210938-1.917969-.707031-4.445313 1.144531-5.753906l74.5625-51.070313-70.023437 40.445313c-1.980469 1.074219-4.453125.429687-5.648438-1.476563-1.199218-1.90625-.710937-4.417968 1.117188-5.734375l46.242187-31.519531-41.710937 24.046875c-1.96875 1.082031-4.441406.449219-5.652344-1.445313-1.207031-1.894531-.742188-4.402343 1.070312-5.734374l37.304688-26.238282-32.722656 18.894532c-1.9375 1.09375-4.390625.515624-5.636719-1.328126-1.242187-1.84375-.863281-4.332031.875-5.722656l37.757813-29.652344-32.996094 19.046876c-1.878906 1.007812-4.207032.476562-5.464844-1.246094-1.253906-1.71875-1.050781-4.101563.480469-5.582032l24.132812-21.621093-19.148437 11.089843c-1.902344 1.0625-4.300782.519532-5.558594-1.257812-1.261719-1.777344-.980469-4.214844.652344-5.660156l3.34375-2.886719c-1.265625.160156-2.539063-.246094-3.480469-1.109375-1.414063-1.292969-1.789063-3.367188-.921875-5.074219l4.660156-9.542969c-1.949218.042969-3.679687-1.238281-4.207031-3.113281-.523437-1.878906.289063-3.875 1.976563-4.847656l9.636718-5.539063c1.617188-.957031 3.679688-.722656 5.042969.574219 1.371094 1.28125 1.746094 3.304688.921875 4.992188l-4.269531 8.695312 24.730469-14.261719c1.902343-1.058593 4.300781-.515624 5.558593 1.261719 1.261719 1.777344.980469 4.214844-.652343 5.660157l-2.039063 1.757812 15.046875-8.679688c1.875-1.003906 4.207031-.472656 5.460938 1.246094 1.257812 1.71875 1.050781 4.101563-.480469 5.582032l-24.121094 21.625 49.347656-28.453126c1.9375-1.113281 4.410157-.542968 5.660157 1.308594 1.253906 1.851563.867187 4.355469-.890626 5.742188l-37.792968 29.644531 63.625-36.695313c1.96875-1.105468 4.464844-.484374 5.683594 1.421876s.738281 4.429687-1.09375 5.757812l-37.308594 26.230469 57.882812-33.410157c1.976563-1.074218 4.449219-.425781 5.648438 1.480469 1.199218 1.90625.707031 4.414063-1.117188 5.730469l-46.226562 31.507812 67.074218-38.71875c1.972657-1.0625 4.433594-.414062 5.632813 1.480469 1.195313 1.898438.71875 4.398438-1.09375 5.722657l-74.589844 51.074218 100.992188-58.277344c1.988281-1.113281 4.5-.46875 5.707031 1.46875 1.207031 1.933594.675781 4.476563-1.203125 5.769532l-86.730469 57.796875 112.6875-65.035157c2.003906-1.070312 4.492188-.382812 5.664063 1.558594 1.175781 1.945313.621093 4.464844-1.257813 5.738282l-37.011718 23.289062 52.976562-30.585938c1.988281-1.097656 4.492188-.441406 5.6875 1.488282 1.199219 1.933594.671875 4.464844-1.199219 5.757812l-112.8125 74.453125 141.519531-81.699219c2.003907-1.101562 4.523438-.425781 5.707032 1.53125 1.183594 1.960938.613281 4.503907-1.296875 5.765626l-56.875 35.839843 74.734375-43.136719c2-1.132812 4.539062-.484374 5.742187 1.472657 1.207031 1.957031.644531 4.519531-1.269531 5.789062l-102.398438 66.714844 128.152344-73.976563c2.011719-1.105468 4.535156-.425781 5.71875 1.542969 1.179688 1.96875.589844 4.519531-1.332031 5.773438l-24.796875 15.425781 38.457031-22.1875c2.015625-1.222656 4.640625-.582031 5.867188 1.429688 1.226562 2.015624.585937 4.640624-1.429688 5.867187l-78.085937 49.851563 79.972656-46.164063c1.992188-1.132813 4.527344-.488281 5.734375 1.457031 1.210937 1.949219.664063 4.503906-1.238281 5.789063l-101.605469 67.632812 97.109375-56.070312c1.992188-1.136719 4.527344-.492188 5.734375 1.457031 1.210937 1.949219.664063 4.503906-1.238281 5.785156l-72.933594 48.597656 68.464844-39.515624c1.992187-1.136719 4.523437-.492188 5.734375 1.457031 1.207031 1.949219.660156 4.503906-1.238281 5.785156l-49.160157 32.699219 44.644531-25.769532c1.992188-1.132812 4.527344-.488281 5.734376 1.457032 1.210937 1.949218.664062 4.503906-1.238282 5.789062l-27.867187 18.566406 23.371093-13.480468c1.976563-1.105469 4.472657-.472656 5.683594 1.4375 1.214844 1.910156.722656 4.4375-1.117187 5.753906l-31.914063 22.1875 27.304688-15.792969c1.953125-1.105469 4.425781-.507812 5.660156 1.367188 1.234375 1.871093.808594 4.378906-.972656 5.738281l-30.839844 23.039062 26.152344-15.09375c1.964844-1.101562 4.445312-.484374 5.671875 1.40625 1.222656 1.890626.765625 4.40625-1.046875 5.746094l-3.640625 2.636719c1.929687-.535156 3.96875.34375 4.90625 2.113281.9375 1.769532.519531 3.953125-1.007813 5.25l-11.945312 10.113282 7.089844-4.089844c1.820312-1.046875 4.132812-.613282 5.449218 1.019531 1.316406 1.636719 1.25 3.988281-.160156 5.542969l-7.148438 7.886718 1.859376-1.066406c2.039062-1.160156 4.628906-.457031 5.804687 1.574219 1.171875 2.03125.484375 4.628906-1.539063 5.8125l-25.386718 14.671875c-1.816406 1.035156-4.117188.597656-5.433594-1.027344-1.3125-1.628906-1.253906-3.96875.144531-5.527344l7.140625-7.886718-25.027344 14.441406c-1.910156 1.070312-4.320312.523438-5.578124-1.269531-1.257813-1.792969-.957032-4.246094.695312-5.679688l11.949219-10.117187-29.558594 17.066406c-1.964844 1.097656-4.449219.484375-5.671875-1.40625s-.765625-4.40625 1.042969-5.746094l2.5625-1.828125-15.582031 8.980469c-1.953126 1.101562-4.425782.503906-5.660157-1.367188-1.234375-1.875-.808593-4.382812.976563-5.742187l30.855468-23.039063-52.242187 30.148438c-1.972656 1.117188-4.480469.496094-5.703125-1.417969-1.21875-1.914062-.726562-4.449219 1.121094-5.769531l31.941406-22.1875-50.988281 29.375c-1.984375 1.082031-4.472657.429688-5.667969-1.496094-1.195312-1.921875-.679688-4.441406 1.171875-5.742187l27.871094-18.578125-44.707031 25.816406c-1.988282 1.082031-4.472657.429688-5.667969-1.496094-1.195313-1.921875-.679688-4.441406 1.171875-5.742187l49.132812-32.742188-69.257812 39.980469c-1.984375 1.082031-4.472656.429688-5.667969-1.496094-1.191406-1.921875-.679687-4.441406 1.171875-5.742187l72.902344-48.535157-96.597656 55.773438c-1.988282 1.113281-4.503907.46875-5.710938-1.46875-1.203125-1.933594-.671875-4.476562 1.203125-5.769531l101.691406-67.6875-129.867187 74.925781c-2.003906 1.117188-4.535156.453125-5.726563-1.511719-1.195312-1.960937-.621093-4.515625 1.296875-5.777343l78.097656-49.867188-98.988281 57.171875c-2 1.054687-4.480469.363281-5.644531-1.578125-1.167969-1.941406-.613281-4.453125 1.261719-5.726562l24.8125-15.4375-39.421875 22.726562c-1.996094 1.097656-4.503906.433594-5.695313-1.503906-1.191406-1.941406-.648437-4.476563 1.230469-5.757813l102.402344-66.714843-128.164063 73.976562c-.636719.378906-1.359375.589844-2.097656.605469zm0 0" fill="#73b0f4"/><path d="m300.90625 265.679688c-1.808594.003906-3.421875-1.132813-4.027344-2.839844-.605468-1.707032-.066406-3.609375 1.339844-4.746094l20.394531-16.519531-40.746093 23.5c-1.894532 1.078125-4.292969.558593-5.570313-1.210938-1.273437-1.765625-1.015625-4.207031.605469-5.664062l25.597656-22.707031-46.078125 26.613281c-1.878906 1.046875-4.246094.53125-5.519531-1.203125-1.269532-1.734375-1.054688-4.144532.507812-5.621094l23.167969-21.070312-20.417969 11.785156c-1.90625 1.078125-4.320312.542968-5.585937-1.246094s-.972657-4.246094.679687-5.683594l3.34375-2.875c-1.265625.15625-2.539062-.25-3.480468-1.109375-1.371094-1.28125-1.746094-3.308593-.921876-4.992187l4.660157-9.542969c-1.949219.046875-3.679688-1.238281-4.207031-3.113281-.523438-1.878906.289062-3.871094 1.976562-4.847656l9.636719-5.5625c1.625-.941407 3.671875-.710938 5.046875.570312 1.375 1.277344 1.75 3.304688.925781 4.992188l-4.265625 8.695312 24.746094-14.257812c1.90625-1.082032 4.320312-.542969 5.585937 1.246093 1.265625 1.789063.972657 4.242188-.679687 5.683594l-2.039063 1.757813 15.027344-8.660157c1.878906-1.050781 4.242187-.535156 5.515625 1.199219 1.273438 1.738281 1.054688 4.148438-.507812 5.625l-23.160157 21.078125 48.367188-27.902344c1.898437-1.097656 4.316406-.582031 5.597656 1.195313s1.007813 4.234375-.628906 5.6875l-25.601563 22.707031 51.234375-29.589844c1.929688-1.136719 4.40625-.582031 5.675781 1.261719 1.269532 1.84375.894532 4.355469-.855468 5.75l-20.402344 16.511719 40.746094-23.523438c1.925781-1.105469 4.378906-.546875 5.636718 1.28125 1.261719 1.828125.90625 4.316407-.816406 5.722657l-20.742187 16.792968 35.15625-20.300781c1.882812-1.109375 4.300781-.617187 5.597656 1.140625 1.300781 1.757812 1.058594 4.214844-.554687 5.6875l-23.132813 21.476562 19.769531-11.417968c1.746094-1 3.953125-.648438 5.300782.847656 1.347656 1.496094 1.464843 3.726562.28125 5.359375l-10.1875 14.042969 4.605468-2.660156c2.039063-1.160157 4.632813-.457032 5.804688 1.574218s.488281 4.628906-1.535156 5.816406l-21.941407 12.660157c-1.742187 1.015625-3.960937.667969-5.308593-.832031-1.351563-1.5-1.46875-3.738282-.28125-5.371094l10.242187-14.046875-35.125 20.25c-1.882813 1.109375-4.296875.617187-5.597656-1.140625-1.296875-1.757813-1.058594-4.210938.554687-5.683594l23.109375-21.472656-49.007812 28.296875c-1.921875 1.082031-4.351563.519531-5.601563-1.296875s-.914062-4.285156.78125-5.699219l20.71875-16.835937-41.277344 23.832031c-.644531.386719-1.378906.597656-2.132812.605469zm0 0" fill="#73b0f4"/><path d="m79.46875 171.816406c-1.773438 0-3.363281-1.097656-3.992188-2.753906-.628906-1.65625-.167968-3.53125 1.15625-4.707031l25.601563-22.707031-46.078125 26.617187c-1.882812 1.046875-4.246094.53125-5.519531-1.203125-1.273438-1.734375-1.054688-4.144531.507812-5.625l23.167969-21.066406-20.410156 11.757812c-1.90625 1.082032-4.320313.542969-5.585938-1.246094-1.269531-1.789062-.972656-4.246093.679688-5.683593l3.34375-2.875c-1.558594.210937-3.109375-.457031-4.027344-1.730469-.921875-1.277344-1.066406-2.957031-.375-4.371094l4.660156-9.539062c-1.550781.003906-2.988281-.804688-3.78125-2.136719-1.179687-2.035156-.484375-4.644531 1.550782-5.828125l9.636718-5.535156c1.625-.941406 3.671875-.710938 5.046875.566406 1.375 1.28125 1.75 3.308594.925781 4.996094l-4.265624 8.695312 24.71875-14.257812c1.90625-1.082032 4.320312-.542969 5.585937 1.246094 1.269531 1.785156.972656 4.242187-.679687 5.679687l-2.039063 1.761719 15.046875-8.6875c1.878906-1.046875 4.242188-.53125 5.515625 1.203125s1.054687 4.144531-.507813 5.621093l-23.160156 21.078126 48.359375-27.902344c1.894531-1.097656 4.316407-.582032 5.597657 1.195312s1.007812 4.238282-.632813 5.691406l-25.597656 22.707032 51.234375-29.59375c1.925781-1.105469 4.375-.546875 5.636718 1.28125 1.257813 1.828125.902344 4.320312-.816406 5.722656l-20.414062 16.519531 40.757812-23.523437c1.925782-1.105469 4.378906-.546875 5.636719 1.28125s.902344 4.320312-.816406 5.722656l-20.734375 16.792969 41.292968-23.796875c1.890626-1.09375 4.308594-.578125 5.589844 1.191406 1.28125 1.773438 1.015625 4.226562-.617187 5.683594l-25.789063 22.992187 51.800782-29.867187c1.898437-1.101563 4.320312-.582032 5.601562 1.199218s1.003906 4.246094-.644531 5.695313l-25.574219 22.542969 51.035156-29.4375c1.957032-1.128906 4.453125-.539063 5.695313 1.34375 1.242187 1.882812.804687 4.410156-1 5.761718l-11.152344 8.390626 26.828125-15.496094c1.882812-1.09375 4.285156-.59375 5.578125 1.15625 1.289063 1.75 1.054687 4.195312-.542969 5.667968l-26.878906 24.960938 55.039062-31.785156c1.945313-1.144532 4.445313-.570313 5.703126 1.300781 1.253906 1.875.835937 4.40625-.960938 5.773437l-15.554688 12.023438 33.082032-19.097656c1.902344-1.105469 4.332031-.585938 5.613281 1.203125 1.28125 1.785156.992187 4.253906-.664063 5.699219l-25.375 22.339843 50.652344-29.242187c1.964844-1.167969 4.5-.582032 5.75 1.332031 1.25 1.910156.773438 4.46875-1.082031 5.800781l-7.117187 5.230469 20.480468-11.835937c1.925782-1.125 4.398438-.574219 5.664063 1.261718 1.269531 1.839844.902343 4.34375-.835938 5.746094l-20.359375 16.597656 21.855469-12.621094c1.816406-1.050781 4.125-.621093 5.445313 1.007813 1.320312 1.628906 1.261718 3.976563-.140626 5.535156l-17.269531 19.226563 11.945313-6.902344c1.636718-.976562 3.722656-.746094 5.109375.558594 1.386719 1.304687 1.738281 3.371094.863281 5.0625l-4.359375 8.585937c1.902344.074219 3.523437 1.394531 3.976563 3.242188.457031 1.847656-.363282 3.769531-2.011719 4.71875l-9.59375 5.539062c-1.636719.972657-3.71875.746094-5.105469-.5625-1.386719-1.304687-1.742188-3.371093-.867188-5.0625l3.816407-7.507812-22.683594 13.070312c-1.816406 1.050781-4.125.621094-5.445313-1.007812-1.320312-1.628907-1.261718-3.972657.136719-5.535157l17.253907-19.199218-44.628907 25.769531c-1.921875 1.097656-4.367187.542969-5.625-1.28125-1.261719-1.824219-.914062-4.308594.796875-5.714844l20.359375-16.597656-40.875 23.566406c-1.964843 1.167969-4.496093.582031-5.746093-1.332031-1.253907-1.910156-.777344-4.46875 1.078124-5.800781l7.117188-5.230469-21.453125 12.363281c-1.898437 1.085938-4.304687.558594-5.582031-1.214843-1.273438-1.777344-1-4.226563.632812-5.679688l25.386719-22.347656-50.660156 29.242187c-1.941407 1.089844-4.390625.503907-5.628907-1.34375-1.238281-1.847656-.851562-4.335937.890626-5.71875l15.515624-12.007812-33.042968 19.070312c-1.882813 1.09375-4.285156.597657-5.574219-1.15625-1.292969-1.75-1.058594-4.195312.539063-5.667969l26.890624-24.960937-55.058593 31.785156c-1.957031 1.160157-4.476563.578125-5.730469-1.316406s-.800781-4.441406 1.027344-5.789063l11.144531-8.371093-26.800781 15.476562c-1.898438 1.121094-4.339844.609375-5.628906-1.179687-1.289063-1.789063-1-4.265625.660156-5.714844l25.550781-22.578125-51.054687 29.472656c-1.894532 1.097657-4.308594.578125-5.589844-1.191406-1.285156-1.773437-1.015625-4.226563.613281-5.683594l25.832031-23.039062-51.789062 29.863281c-1.925782 1.105469-4.378906.546875-5.636719-1.28125s-.90625-4.316406.816406-5.722656l20.71875-16.835938-41.285156 23.890625c-1.929687 1.136719-4.40625.582031-5.675781-1.261719-1.269532-1.84375-.894532-4.355468.855468-5.75l20.402344-16.46875-40.746094 23.480469c-.644531.390625-1.382812.601563-2.132812.609375zm0 0" fill="#73b0f4"/><path d="m77.871094 171.816406c-1.765625-.003906-3.347656-1.089844-3.980469-2.738281-.632813-1.644531-.1875-3.511719 1.121094-4.695313l26.179687-23.613281-45.984375 26.558594c-1.894531 1.09375-4.308593.574219-5.589843-1.195313-1.28125-1.773437-1.015626-4.226562.613281-5.683593l21.523437-19.234375-17.851562 10.308594c-1.882813 1.109374-4.300782.617187-5.597656-1.140626-1.300782-1.757812-1.058594-4.214843.554687-5.6875l5.972656-5.5625-.914062.519532c-1.652344.949218-3.734375.6875-5.101563-.644532-1.363281-1.328124-1.683594-3.402343-.777344-5.082031l3.949219-7.285156c-1.816406-.230469-3.285156-1.59375-3.648437-3.386719-.363282-1.796875.460937-3.625 2.046875-4.542968l9.617187-5.527344c1.652344-.957032 3.742188-.699219 5.109375.632812 1.371094 1.332032 1.6875 3.410156.777344 5.089844l-3.164063 5.832031 20.019532-11.554687c1.882812-1.128906 4.3125-.644532 5.617187 1.121094 1.308594 1.765624 1.0625 4.234374-.566406 5.703124l-5.972656 5.582032 21.46875-12.40625c1.894531-1.09375 4.308593-.578125 5.589843 1.191406 1.28125 1.773438 1.015626 4.226562-.617187 5.683594l-21.511719 19.21875 45.226563-26.09375c1.878906-1.019532 4.222656-.496094 5.480469 1.230468 1.261718 1.722657 1.054687 4.113282-.488282 5.59375l-26.1875 23.613282 52.769532-30.4375c1.953124-1.128906 4.449218-.539063 5.695312 1.34375 1.242188 1.882812.804688 4.410156-1 5.761718l-10.601562 7.945313 26.070312-15.050781c1.929688-1.128906 4.398438-.578125 5.664062 1.261718 1.269532 1.835938.902344 4.339844-.832031 5.742188l-20.78125 16.886719 41.386719-23.890625c1.957031-1.140625 4.464844-.550782 5.710938 1.339844 1.246093 1.890624.792968 4.429687-1.023438 5.777343l-10.292969 7.679688 25.652344-14.796875c1.964844-1.128906 4.46875-.523438 5.703125 1.378906s.761719 4.4375-1.070312 5.769531l-3.113282 2.238281 16.261719-9.386718c1.953125-1.121094 4.4375-.53125 5.679687 1.34375 1.242188 1.875.8125 4.394531-.976562 5.753906l-11.863281 8.960938 27.835937-16.058594c1.910156-1.105469 4.34375-.570313 5.617188 1.230468 1.273437 1.800782.964844 4.273438-.710938 5.707032l-24.183594 20.675781 47.890626-27.648437c1.914062-1.097657 4.351562-.554688 5.617187 1.253906s.941406 4.285156-.746094 5.707031l-23.105469 19.414063 45.695313-26.339844c1.90625-1.113282 4.34375-.589844 5.625 1.207031s.980469 4.273437-.691406 5.710937l-24.75 21.488282 49.152343-28.40625c1.964844-1.167969 4.5-.582032 5.75 1.332031 1.25 1.910156.773438 4.46875-1.082031 5.800781l-7.789062 5.75 22.324219-12.882812c1.914062-1.097656 4.351562-.554688 5.617187 1.253906s.941406 4.285156-.746094 5.707031l-23.039062 19.363281 45.4375-26.238281c1.902343-1.105469 4.332031-.585937 5.613281 1.199219 1.28125 1.789062.992188 4.257812-.664062 5.703125l-25.292969 22.203125 28.332031-16.394531c1.820312-1.058594 4.140625-.628907 5.464844 1.007812 1.324218 1.640625 1.253906 4-.164063 5.554688l-16.019531 17.691406 10.726562-6.1875c1.644532-.945313 3.710938-.691406 5.082032.617187 1.367187 1.3125 1.707031 3.367188.832031 5.050782l-4.171875 7.996094c1.863281.144531 3.417969 1.488281 3.828125 3.3125.410156 1.828124-.414063 3.707031-2.035156 4.640624l-9.59375 5.535157c-1.640625.953125-3.714844.707031-5.089844-.605469-1.371094-1.3125-1.710937-3.375-.832031-5.058594l3.535156-6.757812-21.53125 12.429687c-1.820312 1.050781-4.128906.621094-5.449219-1.011719-1.316406-1.632812-1.253906-3.980468.148438-5.539062l16.011719-17.691406-41.996094 24.242187c-1.894532 1.085938-4.304688.558594-5.578125-1.214843-1.277344-1.777344-1.003907-4.226563.628906-5.679688l25.277344-22.246094-50.472657 29.140625c-1.917968 1.097657-4.355468.554688-5.621093-1.253906s-.941407-4.285156.746093-5.707031l23.039063-19.371094-45.550781 26.332031c-1.957032 1.125-4.453125.527344-5.6875-1.363281-1.238282-1.886719-.789063-4.414062 1.019531-5.761719l7.808594-5.765625-22.363281 12.890625c-1.90625 1.097657-4.332032.566407-5.605469-1.222656-1.273438-1.792969-.976563-4.253906.679687-5.695313l24.746094-21.480468-49.183594 28.398437c-1.917968 1.097657-4.351562.554688-5.617187-1.253906s-.945313-4.285156.742187-5.707031l23.101563-19.40625-45.652344 26.367187c-1.914063 1.125-4.363281.597657-5.644531-1.210937s-.964844-4.292969.726562-5.726563l24.191406-20.71875-47.894531 27.65625c-1.953125 1.121094-4.4375.53125-5.679687-1.34375-1.242188-1.875-.816406-4.394531.976562-5.753906l11.859375-8.960937-27.808593 16.058593c-1.964844 1.128907-4.472657.523438-5.703126-1.378906-1.234374-1.902344-.765624-4.4375 1.070313-5.769531l3.097656-2.246094-16.273437 9.386719c-1.960938 1.171875-4.496094.59375-5.75-1.3125-1.257813-1.90625-.792969-4.464844 1.054687-5.804688l10.300781-7.679687-25.652343 14.804687c-1.925781 1.128907-4.394531.578125-5.664063-1.261719-1.265625-1.835937-.902344-4.339843.835938-5.742187l20.789062-16.886719-41.40625 23.890625c-1.953125 1.128907-4.449218.539063-5.691406-1.34375-1.246094-1.882812-.804688-4.40625 1-5.761719l10.589844-7.9375-26.054688 15.042969c-.640625.390625-1.378906.601563-2.132812.609375zm0 0" fill="#fdcd56"/><path d="m117.976562 265.679688c-1.796874.003906-3.402343-1.121094-4.015624-2.808594-.613282-1.6875-.101563-3.582032 1.277343-4.734375l22.878907-19.140625-45.226563 26.105468c-1.882813 1.09375-4.285156.59375-5.578125-1.15625-1.289062-1.753906-1.058594-4.195312.542969-5.671874l26.878906-24.949219-54.238281 31.316406c-1.898438 1.105469-4.328125.582031-5.609375-1.203125s-.996094-4.253906.660156-5.699219l24.722656-21.675781-26.359375 15.230469c-1.839844 1.0625-4.179687.609375-5.492187-1.058594-1.308594-1.671875-1.191407-4.054687.277343-5.585937l14.660157-15.363282-9.453125 5.464844c-1.640625.980469-3.734375.753906-5.125-.558594s-1.738282-3.390625-.847656-5.082031l4.445312-8.570313c-1.898438-.070312-3.519531-1.390624-3.976562-3.230468-.460938-1.84375.355468-3.769532 1.996093-4.722656l9.609375-5.535157c1.636719-.980469 3.726563-.753906 5.113282.554688 1.390624 1.3125 1.738281 3.382812.859374 5.074219l-3.832031 7.535156 22.765625-13.164063c1.839844-1.050781 4.167969-.597656 5.472656 1.066407 1.308594 1.664062 1.199219 4.035156-.257812 5.570312l-14.652344 15.359375 38.058594-21.964844c1.902344-1.105469 4.332031-.582031 5.613281 1.203125 1.28125 1.789063.992188 4.253906-.664062 5.703125l-24.746094 21.65625 49.492187-28.570312c1.882813-1.09375 4.285157-.59375 5.578126 1.15625 1.292968 1.753906 1.058593 4.195312-.542969 5.671875l-26.894531 24.957031 55.089843-31.808594c1.917969-1.125 4.378907-.585937 5.652344 1.238281 1.273437 1.820313.933594 4.316407-.78125 5.730469l-22.875 19.132813 41.292969-23.84375c1.9375-1.128906 4.417968-.570313 5.679687 1.285156s.871094 4.371094-.894531 5.757812l-15.625 12.363282 13.824219-8.011719c1.867187-1.109375 4.269531-.636719 5.578125 1.09375s1.113281 4.167969-.457032 5.664063l-13.441406 13.039062 8.347656-4.820312c1.664063-.964844 3.765626-.695313 5.132813.65625 1.367187 1.351562 1.664063 3.453124.71875 5.128906l-4.957031 8.847656c2.058594-.433594 4.125.699219 4.871094 2.664062.742187 1.964844-.054688 4.183594-1.882813 5.222657l-11.949219 6.875c-1.660156.957031-3.757812.6875-5.125-.660157-1.363281-1.347656-1.660156-3.441406-.726562-5.117187l4.734375-8.472656-24.6875 14.25c-1.863281 1.109375-4.265625.636719-5.574219-1.09375-1.3125-1.726563-1.113281-4.164063.457031-5.664063l13.429688-13.039062-34.269531 19.796875c-1.933594 1.105469-4.386719.535156-5.640626-1.304688-1.25-1.839843-.878906-4.332031.855469-5.726562l15.621094-12.398438-33.652344 19.429688c-.644531.390625-1.382812.601562-2.136719.605469zm0 0" fill="#61ddbc"/><path d="m259.597656 265.691406c-1.855468.003906-3.5-1.191406-4.070312-2.957031-.570313-1.761719.0625-3.691406 1.570312-4.777344l2.738282-1.988281-8.53125 4.941406c-1.941407 1.140625-4.433594.578125-5.695313-1.28125-1.261719-1.863281-.863281-4.386718.914063-5.765625l12.902343-10.242187-9.25 5.34375c-1.867187 1.125-4.285156.660156-5.601562-1.082032-1.316407-1.738281-1.109375-4.191406.484375-5.683593l10.828125-10.402344-5.71875 3.300781c-1.632813.96875-3.714844.742188-5.097657-.5625-1.382812-1.300781-1.742187-3.359375-.875-5.050781l4.480469-8.9375c-1.917969-.027344-3.582031-1.335937-4.0625-3.191406-.484375-1.859375.335938-3.808594 1.996094-4.769531l9.632813-5.5625c1.636718-.964844 3.707031-.734376 5.089843.5625 1.382813 1.296874 1.746094 3.351562.886719 5.042968l-3.988281 7.960938 23.503906-13.566406c1.867187-1.125 4.285156-.660157 5.601563 1.082031 1.316406 1.738281 1.109374 4.191406-.484376 5.683593l-10.820312 10.445313 29.78125-17.183594c1.9375-1.109375 4.398438-.542969 5.652344 1.304688 1.253906 1.84375.871094 4.34375-.871094 5.734375l-12.886719 10.1875 29.867188-17.238282c1.972656-1.179687 4.523437-.585937 5.773437 1.34375 1.25 1.929688.746094 4.5-1.140625 5.816407l-2.722656 1.964843 15.796875-9.113281c1.96875-1.1875 4.519531-.601562 5.773438 1.324219 1.253906 1.921875.761718 4.492188-1.113282 5.816406l-5.976562 4.378906 19.9375-11.519531c1.949218-1.152343 4.457031-.582031 5.714844 1.300781 1.261718 1.882813.828124 4.417969-.980469 5.78125l-14.738281 11.332032 31.898437-18.414063c1.941406-1.101562 4.398437-.523437 5.644531 1.324219 1.246094 1.851562.859375 4.347656-.890625 5.730469l-16.46875 12.824219 30.523438-17.628907c1.933593-1.140625 4.417969-.585937 5.6875 1.261719 1.269531 1.851562.886719 4.371094-.875 5.761719l-16.9375 13.601562 15.078125-8.703125c1.777344-1.027344 4.035156-.640625 5.371094.917969 1.335937 1.558594 1.375 3.847656.089843 5.449219l-15.046875 18.773437 9.59375-5.53125c1.6875-.972656 3.824219-.675781 5.183594.722657 1.359375 1.394531 1.601562 3.535156.585938 5.199218l-3.082032 5.027344c1.613282.507812 2.777344 1.921875 2.960938 3.605469.183594 1.679687-.640625 3.3125-2.109375 4.160156l-9.589844 5.539063c-1.691406.976562-3.832031.683593-5.195313-.714844-1.363281-1.398438-1.605468-3.542969-.582031-5.210938l1.570313-2.558594-14.695313 8.472657c-1.777343 1.03125-4.03125.648437-5.371093-.910157-1.339844-1.554687-1.378907-3.84375-.097657-5.445312l15.050781-18.773438-43.605468 25.128907c-1.925782 1.089843-4.367188.527343-5.617188-1.300781-1.253906-1.828126-.898437-4.308594.816406-5.710938l16.921876-13.601562-35.714844 20.613281c-1.941406 1.125-4.417969.554687-5.675782-1.304688-1.253906-1.859375-.855468-4.371093.914063-5.75l16.496094-12.851562-34.484375 19.90625c-1.945313 1.117187-4.421875.539062-5.667969-1.324219s-.839844-4.375.933594-5.75l14.753906-11.339844-31.914063 18.414063c-1.960937 1.109375-4.441406.5-5.671874-1.382813-1.230469-1.886718-.78125-4.402344 1.019531-5.75l5.972656-4.359375-19.941406 11.492188c-.644531.390625-1.378907.601562-2.132813.617187zm0 0" fill="#61ddbc"/><path d="m234.132812 461.949219c-1.894531 0-3.566406-1.253907-4.09375-3.078125-.53125-1.820313.207032-3.773438 1.808594-4.789063l.851563-.546875-13.566407 7.832032c-1.992187 1.097656-4.492187.445312-5.6875-1.488282-1.199218-1.929687-.671874-4.464844 1.199219-5.753906l73.070313-48.25-96.101563 55.46875c-1.992187 1.097656-4.492187.441406-5.691406-1.488281-1.195313-1.933594-.667969-4.464844 1.203125-5.757813l106.144531-70.410156-134.621093 77.65625c-1.996094 1.082031-4.492188.410156-5.675782-1.527344s-.644531-4.460937 1.230469-5.746094l90.632813-58.402343-113.765626 65.675781c-2 1.054688-4.476562.367188-5.644531-1.5625-1.171875-1.933594-.628906-4.445312 1.230469-5.726562l68.183594-43.246094-87.546875 50.535156c-1.996094 1.082031-4.488281.410156-5.671875-1.527344-1.1875-1.9375-.644532-4.460937 1.226562-5.746094l94.59375-61.121093-118.546875 68.394531c-2 1.097656-4.511719.429688-5.699219-1.519531s-.628906-4.488281 1.261719-5.761719l83.183594-53.28125-100.835937 58.238281c-2.011719 1.128907-4.550782.457031-5.742188-1.519531-1.1875-1.972656-.597656-4.53125 1.335938-5.785156l49.324218-31.023438-47.8125 27.59375c-2.003906 1.058594-4.484375.363282-5.648437-1.578125-1.164063-1.941406-.613281-4.453125 1.261719-5.726562l13.542968-8.464844-9.15625 5.292969c-1.988281 1.113281-4.503906.46875-5.707031-1.46875-1.207031-1.933594-.675781-4.476563 1.203125-5.769532l87.695312-58.828124-83.199218 48.035156c-1.988282 1.113281-4.503906.46875-5.710938-1.46875-1.203125-1.933594-.671875-4.476563 1.203125-5.769532l58.957031-39.414062-54.449218 31.429688c-1.984375 1.132812-4.507813.503906-5.726563-1.429688s-.699219-4.480469 1.175781-5.78125l51.449219-35.433594-46.933593 27.078125c-1.992188 1.179688-4.558594.554688-5.789063-1.40625-1.230469-1.960937-.671875-4.542969 1.257813-5.820312l22.066406-14.984375-17.5 10.128906c-1.960938 1.132812-4.46875.535156-5.707032-1.363281-1.238281-1.894531-.78125-4.429688 1.046876-5.773438l31.078124-22.84375-26.453124 15.25c-1.910157 1.070313-4.320313.523438-5.578126-1.265625-1.257812-1.792968-.957031-4.246094.699219-5.679687l27.195313-22.953125-22.28125 12.875c-1.878906 1.046875-4.246094.53125-5.519532-1.203125-1.269531-1.734375-1.054687-4.144531.507813-5.625l11.230469-10.238281-6.21875 3.582031c-1.597656.921875-3.609375.710937-4.980469-.523438-1.371094-1.230469-1.796875-3.207031-1.054687-4.894531l5.265624-11.902344c-2.023437.296875-3.972656-.882812-4.648437-2.8125-.675781-1.933594.117187-4.070312 1.882813-5.097656l9.636718-5.523438c1.597656-.914062 3.601563-.703124 4.972656.527344 1.371094 1.226563 1.796876 3.199219 1.058594 4.882813l-5.066406 11.445312 29.207031-16.855469c1.878907-1.046874 4.246094-.53125 5.519531 1.203126 1.269532 1.734374 1.054688 4.148437-.507812 5.625l-11.238281 10.238281 29.558593-17.066407c1.910157-1.070312 4.320313-.523437 5.578126 1.269532 1.257812 1.792968.957031 4.246094-.699219 5.679687l-27.167969 22.917969 51.78125-29.867188c1.960938-1.132812 4.464844-.535156 5.703125 1.363282 1.242187 1.898437.78125 4.429687-1.046875 5.773437l-31.101562 22.859375 51.957031-29.996094c1.984375-1.113281 4.496093-.476562 5.707031 1.453126 1.210938 1.925781.691406 4.464843-1.175781 5.769531l-22.09375 14.964843 38.496093-22.1875c1.976563-1.085937 4.460938-.449218 5.664063 1.460938 1.207031 1.910156.71875 4.425781-1.117187 5.742188l-51.429688 35.429687 73.839844-42.664063c1.992187-1.15625 4.539062-.523437 5.757812 1.433594 1.21875 1.953125.667969 4.519532-1.246094 5.800782l-58.980468 39.425781 80.84375-46.628907c1.984375-1.070312 4.457031-.414062 5.652344 1.496094 1.191406 1.914063.691406 4.425782-1.144532 5.734375l-87.691406 58.792969 114.40625-66.023438c2.007812-1.085937 4.515625-.402343 5.691406 1.554688 1.175782 1.953125.605469 4.488281-1.296875 5.75l-13.539062 8.433594 27.304687-15.738282c2.003906-1.101562 4.523438-.425781 5.707032 1.53125 1.183593 1.960938.613281 4.503907-1.292969 5.765626l-49.273438 30.992187 66.339844-38.289063c1.996094-1.066406 4.480469-.390624 5.65625 1.546876 1.179687 1.933593.636719 4.453124-1.230469 5.734374l-83.285156 53.308594 105.039062-60.589844c1.996094-1.117187 4.523438-.457031 5.71875 1.496094 1.195313 1.953125.636719 4.503906-1.265624 5.777344l-94.574219 61.121094 118.519531-68.394532c2-1.082031 4.5-.40625 5.679688 1.539063 1.179687 1.945313.625 4.476563-1.261719 5.75l-68.128907 43.210937 87.492188-50.5c1.996094-1.082031 4.492188-.410156 5.675781 1.527344 1.183594 1.9375.644531 4.460938-1.230469 5.746094l-90.632812 58.347656 101.367188-58.519531c1.992187-1.097656 4.492187-.445313 5.691406 1.488281 1.195312 1.933594.667968 4.464844-1.199219 5.757813l-106.113281 70.476562 101.972656-58.882812c1.988281-1.070313 4.464844-.40625 5.652344 1.515625 1.1875 1.917968.671875 4.429687-1.171875 5.730468l-73.113281 48.238282 68.640624-39.609375c2.007813-1.105469 4.523438-.429688 5.707032 1.53125 1.183594 1.957031.613281 4.5-1.292969 5.761719l-3.464844 2.195312c2.015625-.59375 4.167969.371094 5.0625 2.273438.898438 1.90625.273438 4.175781-1.472656 5.355468l-55.652344 38.039063 51.113281-29.507813c1.964844-1.117187 4.457032-.507812 5.6875 1.382813 1.230469 1.894531.773438 4.421875-1.042968 5.761719l-52.371094 38.132812 47.726562-27.5625c1.949219-1.085938 4.402344-.488281 5.636719 1.371094 1.230469 1.855468.824219 4.351562-.933593 5.722656l-34.988282 26.453125 30.285156-17.484375c1.953126-1.121094 4.4375-.53125 5.679688 1.34375s.8125 4.394531-.976562 5.753906l-13.371094 10.085938 8.667968-4.992188c1.925782-1.097656 4.371094-.539062 5.628907 1.28125 1.257812 1.824219.910156 4.308594-.796875 5.71875l-7.492188 6.109375 2.660156-1.535156c1.832032-1.050781 4.15625-.601563 5.464844 1.050781 1.308594 1.65625 1.214844 4.019532-.222656 5.5625l-6.539062 6.945313 1.296874-.742188c2.027344-1.0625 4.527344-.335937 5.671876 1.644531 1.144531 1.980469.523437 4.507813-1.40625 5.734376l-26.367188 15.226562c-1.832031 1.046875-4.152344.597656-5.460938-1.054688-1.3125-1.652343-1.214843-4.015624.222657-5.558593l6.511719-6.929688-23.46875 13.542969c-1.921876 1.097656-4.367188.539062-5.625-1.28125-1.261719-1.824219-.914063-4.308594.796874-5.71875l7.492188-6.109375-22.707031 13.109375c-1.953125 1.144531-4.460938.5625-5.714844-1.324219-1.25-1.886719-.8125-4.421875 1.003906-5.777343l13.335938-10.058594-29.746094 17.160156c-1.949219 1.109375-4.421875.519531-5.664063-1.347656-1.242187-1.867188-.824218-4.378906.953126-5.746094l34.988281-26.453125-58.148438 33.546875c-1.960937 1.113281-4.453125.507812-5.683593-1.386719-1.234376-1.890625-.773438-4.417969 1.042968-5.757812l52.402344-38.144531-78.453125 45.289062c-1.980469 1.101562-4.476563.460938-5.6875-1.457031-1.207031-1.917969-.703125-4.445313 1.148437-5.753907l55.660157-38.015624-78.402344 45.226562c-.636719.378906-1.359375.589844-2.101563.605469zm0 0" fill="#61ddbc"/><g fill="#262626"><path d="m2.675781 367.347656v76.183594c0 13.28125-3.933593 33.683594 0 46.652344 6.042969 19.960937 31.285157 12.722656 49.699219 12.722656h348.558594c11.625 0 45.578125 5.789062 55.222656-5.972656 13.132812-16.015625 2.609375-70.152344 2.609375-88.421875v-395.972657c-8.652344-20.8125-71.578125-9.4375-88.953125-9.4375h-206.394531c-45.074219 0-93.703125-5.296874-138.53125 0-35.335938 4.140626-22.183594 44.46875-22.183594 72.535157zm443.453125 130.933594c-2.3125 2.152344-17.820312 0-20.796875 0h-322.261719c-22.253906 0-50.660156 4.703125-72.53125 0-15.25-3.285156-14.21875-6.824219-15.523437-21.476562-6.65625-75.09375 0-153.855469 0-229.238282v-171.035156h428.886719c.722656.453125 1.539062.742188 2.386718.855469.050782.074219.050782.101562.121094.195312 2.320313 3.507813 0 16.859375 0 20.90625v320.109375c0 21.480469 4.480469 48.554688 0 69.648438-.929687 4.355468 1.910156 8.007812-.28125 10.035156zm-431.097656-482.445312c4.269531-11.847657-3.675781-4.789063 10.359375-7.570313 26.769531-5.308594 60.230469 0 87.449219 0h265.292968c13.363282 0 61.59375-8.464844 68.269532 7.585937v55.515626h-390.613282c-2.015624 0-4.269531.148437-6.554687.292968h-24.167969c-.691406-.128906-1.492187-.121094-2.140625-.292968-2.167969-.84375-4.515625-1.136719-6.828125-.851563.128906-.359375.085938-1.246094-1.066406-3.414063-3.703125-7.003906-2.933594-43.085937 0-51.265624zm0 0"/><path d="m45.28125 223.152344c-2.640625 10.378906-2.617188 21.261718.0625 31.632812 2.484375 6.234375 8.511719 10.328125 15.222656 10.339844 13.492188 1.519531 27.121094 1.382812 40.585938-.398438h43.089844c7.066406.144532 14.117187.230469 21.164062.1875 12.109375.742188 30.320312 3.164063 39.519531-3.710937 1.882813-1.492187 3.398438-3.394531 4.425781-5.566406.769532-1.226563 1.410157-2.527344 1.914063-3.882813 3.289063-10.09375 3.351563-20.964844.167969-31.09375-.058594-1.128906-.132813-2.296875-.132813-3.320312-.007812-.375-.210937-.722656-.539062-.902344-1.925781-4.167969-5.601563-7.265625-10.035157-8.449219l-.136718-.070312c-11.246094-3.957031-28.902344-1.644531-43.109375-.519531h-66.417969c-10.902344 0-29.582031-3.769532-39.34375 3.523437-1.503906 1.234375-2.726562 2.773437-3.585938 4.515625-1.101562 1.421875-2.015624 2.984375-2.714843 4.640625 0 .085937.070312.136719.078125.207031.007812.066406-.152344.238282-.152344.367188 0 .808594-.035156 1.644531-.0625 2.5zm54.070312-9.625h61.089844c8.753906 0 24.976563-3.152344 33.644532 1.960937 2.472656 3.632813 4.230468 7.699219 5.179687 11.988281.691406 10.652344 1.921875 27.207032-2.054687 30.824219-2.160157 1.042969-4.460938 1.761719-6.828126 2.132813-12 .078125-23.996093-.535156-35.925781-1.835938h-60.824219c-9.769531 0-24.839843 3.472656-32.632812-3.019531-7.191406-8.859375-3.410156-27.46875-3.308594-37.855469.621094-1.296875 1.011719-2.695312 1.152344-4.128906l.050781-.066406c.09375-.0625.191407-.121094.289063-.171875 2.152344.484375 4.398437.363281 6.484375-.351563 7.984375-.773437 16.023437-.773437 24.003906 0h2.347656c3.183594.292969 5.8125.523438 7.332031.523438zm0 0"/><path d="m416.226562 220.214844v-.765625c.214844-.695313.175782-1.441407-.109374-2.109375-.121094-.296875-.292969-.46875-.417969-.75l-.105469-.179688c-2.65625-6.125-8.5625-10.210937-15.230469-10.539062-11.96875-1.59375-24.09375-1.59375-36.0625 0h-65.996093c-12.699219 0-32.675782-3.96875-44.738282.855468-2.515625 1.050782-4.757812 2.664063-6.554687 4.71875-.207031.1875-.394531.425782-.597657.621094l-.164062.195313c-1.929688 1.980469-3.449219 4.324219-4.46875 6.894531-1.546875 4.125-2.4375 8.46875-2.636719 12.871094-.855469 7.464844-.027343 15.027344 2.421875 22.132812 1.574219 5.246094 5.648438 9.367188 10.871094 11l.164062.078125.1875.050781c.597657.171876 1.203126.332032 1.824219.453126 10.945313 1.855468 22.113281 2.019531 33.109375.484374h65.707032c14.257812 0 35.378906 4.027344 49.09375-.289062 5.773437-1.558594 10.445312-5.796875 12.550781-11.390625l.085937-.15625c.550782-.515625.890625-1.21875.945313-1.96875 0-.417969 0-.855469 0-1.28125 1.042969-5.148437 1.363281-10.414063.949219-15.648437.46875-5.105469.191406-10.253907-.828126-15.277344zm-61.710937 36.855468h-61.9375c-9.789063.980469-19.640625 1.128907-29.457031.453126-5.914063-1.84375-6.929688-2.824219-9.128906-10.410157-.863282-4.910156-1.308594-9.882812-1.332032-14.867187.234375-6.472656 2.914063-12.617188 7.5-17.191406 1.351563-.660157 2.789063-1.132813 4.265625-1.402344 7.492188-.503906 16.933594.617187 22.546875.617187h7.953125c4.488281.425781 8.492188.785157 11.316407.785157 2.824218 0 7.867187-.34375 14.179687-.785157h28.160156c6.828125 0 17.238281-1.484375 26.992188-1.921875 7.140625.082032 14.238281 1.148438 21.085937 3.175782 4.722656 3.296874 7.546875 8.691406 7.558594 14.453124.0625.914063.113281 1.851563.171875 2.785157.179687 4.9375-.210937 10.238281-.484375 15.171875-.300781 3.632812-2.171875 6.957031-5.121094 9.105468-2.308594.84375-4.691406 1.464844-7.117187 1.851563-12.410157.121094-24.816407-.484375-37.152344-1.820313zm0 0"/><path d="m53.226562 169.65625c1.421876 1.230469 3.039063 2.210938 4.789063 2.902344 11.070313 2.71875 22.566406 3.234375 33.832031 1.507812 67.78125 3.507813 137.59375-1.433594 205.082032-1.433594 29.816406 0 64.105468 4.488282 94.175781.683594 9.734375 1.277344 19.273437-3.441406 24.175781-11.945312.273438-.378906.480469-.804688.613281-1.253906.179688-.394532.292969-.816407.332031-1.246094 0-.25 0-.496094 0-.742188 0-.105468 0-.222656 0-.316406 0-1.140625.027344-2.277344.078126-3.414062.464843-3.253907.652343-6.539063.5625-9.820313.636718-5.941406.425781-11.941406-.632813-17.820313 0-.324218 0-.65625 0-.980468.222656-.753906.179687-1.5625-.128906-2.285156-.109375-.265626-.261719-.429688-.375-.683594-.058594-.125-.128907-.242188-.203125-.359375-2.554688-5.894531-8.113282-9.9375-14.507813-10.554688l-.289062-.101562c-20.421875-5.734375-50.664063-.148438-71.886719 0h-187.320312c-22.683594 0-49.339844-3.6875-72.355469-.71875-7.535157-.8125-15.0625 1.589843-20.734375 6.613281-8.363282 9.96875-8.261719 31.796875-.855469 45.015625.96875 2.929687 2.980469 5.402344 5.648437 6.953125zm17.597657-48.222656c1.773437-.375 3.644531-.605469 5.496093-.851563 4.53125.261719 9.878907.851563 16.144532.851563h285.40625c29.53125 0 25.804687 7.183594 25.734375 37.488281-2.085938 2.496094-5.007813 4.15625-8.226563 4.667969-3.277344-.222656-6.824218-.753906-8.285156-.617188-24.132812 2.203125-49.542969 0-73.769531 0h-227.515625c-22.503906 0-30.5 2.691406-28-25.273437.855468-9.34375 3.160156-13.765625 7-15.761719 2.007812.125 4.027344-.042969 5.988281-.503906zm0 0"/><path d="m417.15625 394.882812c.546875-24.222656.8125-48.476562-.953125-72.316406 0-.316406-.078125-.523437-.105469-.855468v-10.503907c-.003906-.417969-.21875-.804687-.570312-1.023437-1.324219-2.582032-3.347656-4.746094-5.835938-6.238282-2.773437-1.949218-6.011718-3.125-9.386718-3.414062-5.398438-.953125-10.882813-1.320312-16.359376-1.09375-91.683593-4.058594-184.523437.191406-276.273437.191406-13.339844 0-47.6875-6.75-58.8125 5.261719-3.253906 4.535156-4.753906 10.097656-4.214844 15.652344-3.414062 15.964843.125 38.46875.59375 54.742187v6.234375c-.511719 19.03125-5.578125 47.148438-.074219 64.566407 1.375 8.394531 5.863282 14.429687 18.773438 16.621093 33.765625 5.753907 73.480469 0 107.664062 0h175.957032c17.671875 0 57.378906 8.535157 67.550781-11.09375.65625-.695312 1.046875-1.601562 1.09375-2.558593 0-.265626 0-.519532 0-.777344 0-.09375 0-.1875 0-.273438 0-1.167968 0-2.335937 0-3.496094 2.996094-16.382812 3.320313-33.140624.953125-49.625zm-36.308594 59.785157h-16.921875c-9.464843-.597657-17.917969-1.476563-21.921875-1.476563h-245.957031c-26.144531 0-38.246094 6.769532-38.246094-22.527344v-58.460937c0-1.621094-.09375-3.507813-.238281-5.546875.085938-1.554688.136719-2.953125.136719-4.097656 0-8.214844-2.5-23.550782-2.253907-35.640625.152344-3.511719.953126-6.96875 2.355469-10.191407 7.246094-14.121093 34.988281-7.679687 51.96875-7.679687h247.023438c27.808593 0 46.847656-9.171875 46.847656 22.527344v117.488281c-2.125 3.832031-9.148437 5.480469-17.921875 5.972656-2.25-.195312-4.085938-.367187-4.871094-.367187zm0 0"/><path d="m39.019531 42.457031h17.066407c3.085937.136719 6.136718-.683593 8.738281-2.347656 1.707031-1.269531 1.859375-2.976563-.800781-2.976563h-17.066407c-3.085937-.136718-6.136719.683594-8.738281 2.347657-1.707031 1.269531-1.863281 2.976562.800781 2.976562zm0 0"/><path d="m91.96875 43.976562h273.066406c5.519532 0 12.800782-8.363281 4.4375-8.363281h-273.066406c-5.519531 0-12.765625 8.363281-4.4375 8.363281zm0 0"/><path d="m397.335938 42.140625h17.066406c3.070312.019531 6.089844-.789063 8.738281-2.34375 1.824219-1.171875 1.867187-2.347656-.632813-2.347656h-17.066406c-3.070312-.015625-6.089844.796875-8.738281 2.347656-1.828125 1.167969-1.871094 2.34375.632813 2.34375zm0 0"/></g></svg>