<svg height="506pt" viewBox="0 -2 506.72736 506" width="506pt" xmlns="http://www.w3.org/2000/svg"><path d="m249.78125 502.511719c-1.886719 0-3.546875-1.238281-4.085938-3.046875-.539062-1.804688.171876-3.75 1.746094-4.785156l107.433594-70.546876-131.472656 75.894532c-1.996094 1.085937-4.488282.414062-5.675782-1.523438-1.183593-1.9375-.644531-4.460937 1.230469-5.746094l111.789063-71.59375-129.28125 74.617188c-2.015625 1.113281-4.554688.425781-5.730469-1.554688-1.179687-1.980468-.574219-4.539062 1.371094-5.777343l12.996093-7.960938-21.625 12.484375c-2.015624 1.136719-4.570312.457032-5.757812-1.527344-1.183594-1.988281-.574219-4.558593 1.378906-5.792968l57.046875-35.152344-65.707031 37.941406c-2.007812 1.070313-4.503906.378906-5.671875-1.574218-1.167969-1.949219-.597656-4.476563 1.292969-5.738282l86.726562-53.683594-96.921875 55.925782c-2.003906 1.058594-4.484375.363281-5.648437-1.578125-1.167969-1.941407-.613282-4.453125 1.261718-5.726563l133.613282-83.488281-144.519532 83.429687c-2.011718 1.074219-4.515624.378907-5.679687-1.585937-1.164063-1.960937-.578125-4.492187 1.328125-5.746094l75.65625-46.335937-82.882812 47.847656c-2.015626 1.136719-4.570313.457031-5.757813-1.527344s-.574219-4.554687 1.378906-5.792968l112.128907-69.09375-119.5625 69.058593c-2.011719 1.074219-4.511719.378907-5.679688-1.585937-1.164062-1.960938-.578125-4.492188 1.328125-5.742188l66.457031-40.476562-71.679687 41.363281c-2.003907 1.070313-4.5.378906-5.667969-1.574219-1.171875-1.953125-.601562-4.476562 1.292969-5.738281l150.238281-93.015625-158.105469 91.308594c-2.019531 1.113281-4.554687.425781-5.734375-1.554688-1.175781-1.980468-.570312-4.535156 1.371094-5.777344l130.859375-80.398437-136.53125 78.835937c-2.027344 1.207032-4.644531.546876-5.851563-1.480468-1.207031-2.023438-.542968-4.640625 1.480469-5.847656l129.996094-79.746094-135.601563 78.269531c-2.011718 1.074219-4.515624.378906-5.679687-1.585937-1.164063-1.960938-.582031-4.492188 1.328125-5.746094l103.082031-62.820313-106.285156 61.355469c-2.015625 1.132812-4.566406.457031-5.753906-1.527344-1.1875-1.988281-.574219-4.558594 1.378906-5.796875l163.414063-100.804687-168.398438 97.238281c-2.027344 1.199219-4.644531.527344-5.84375-1.5-1.199219-2.03125-.527344-4.648437 1.5-5.847656l89.191406-54.175781-92.03125 53.128906c-2.011718 1.105468-4.539062.425781-5.71875-1.542969-1.179687-1.96875-.59375-4.519531 1.332032-5.769531l192.316406-119.398438-196.371094 113.363282c-1.3125.773437-2.941406.785156-4.265625.035156-1.328125-.753906-2.152344-2.152344-2.164063-3.679688-.011718-1.523437.789063-2.9375 2.105469-3.710937l12.046875-7.234375-12.363281 7.125c-2.019531 1.09375-4.542969.398437-5.710937-1.578125-1.167969-1.972657-.566407-4.523438 1.367187-5.761719l111.863281-68.148438-113.640625 65.613282c-2.023437 1.203125-4.644531.539062-5.847656-1.488282-1.203125-2.027343-.539063-4.644531 1.488281-5.851562l120.492188-73.511719-121.175782 69.972657c-2.019531 1.125-4.574218.433593-5.75-1.558594-1.175781-1.996094-.546874-4.5625 1.417969-5.789063l30.574219-18.421875-29.867188 17.226563c-2.011718 1.109375-4.535156.425781-5.71875-1.542969-1.179687-1.96875-.589843-4.515625 1.332032-5.769531l184.652344-114.550781-186.308594 107.5625c-2.019532 1.152343-4.59375.46875-5.78125-1.53125-1.1875-2.003907-.550782-4.585938 1.429687-5.808594l79.445313-48.203125-78.351563 45.226562c-2.011719 1.074219-4.515625.375-5.679687-1.585937-1.164063-1.960938-.582032-4.492188 1.328125-5.746094l102.78125-62.660156-101.273438 58.472656c-2.015625 1.160156-4.589843.492188-5.785156-1.5-1.199219-1.996094-.578125-4.582031 1.390625-5.816406l188.339844-117.570313-187.972656 108.527344c-2.015626 1.160156-4.589844.496094-5.789063-1.5-1.195313-1.992187-.578125-4.578125 1.394531-5.8125l191.207032-119.945313-188.925782 109.074219c-2.011718 1.125-4.550781.453125-5.742187-1.519531-1.1875-1.972656-.597657-4.535156 1.335937-5.785156l185.105469-116.488282-182.195313 105.199219c-2.003906 1.101563-4.523437.425781-5.707031-1.53125-1.183593-1.960937-.613281-4.503906 1.296875-5.765625l176.714844-111.566406-172.066406 99.335938c-2.003906 1.085937-4.511719.402343-5.6875-1.550782-1.175782-1.953125-.605469-4.488281 1.292968-5.753906l131.550782-82.054688-126.046875 72.78125c-2.015625 1.160157-4.589844.496094-5.785157-1.5-1.199218-1.992187-.578124-4.578124 1.390626-5.8125l115.839843-72.289062-108.628906 62.714844c-2.003906 1.117187-4.535156.453125-5.726563-1.511719-1.191406-1.960937-.617187-4.515625 1.300782-5.777344l137.863281-87.773437-129.179687 74.582031c-2.023438 1.207031-4.640626.542969-5.847657-1.480469-1.207031-2.027344-.542969-4.644531 1.480469-5.851562l20.769531-12.757813-11.792969 6.828125c-2.011718 1.105469-4.535156.425782-5.71875-1.542968-1.179687-1.96875-.589843-4.519532 1.332032-5.769532l36.265625-22.496094-26.929688 15.523438c-1.996093 1.082031-4.492187.414062-5.675781-1.523438s-.644531-4.464843 1.230469-5.746093l91.707031-59.171875-76.441406 44.136718c-2.007813 1.148438-4.566406.484376-5.765625-1.496093-1.199219-1.976563-.601563-4.550781 1.34375-5.800781l28.160156-17.835938-13.59375 7.851562c-1.996094 1.136719-4.535156.484376-5.738281-1.472656-1.207032-1.957031-.644532-4.515625 1.269531-5.789062l43.996094-28.886719-23.039063 13.3125c-1.929687.945313-4.261718.308594-5.445312-1.488281-1.179688-1.792969-.839844-4.1875.792968-5.585938l43.238282-32.425781c-1.773438-.300781-3.167969-1.679687-3.488282-3.449219-.320312-1.773437.507813-3.554687 2.066407-4.453125l52.050781-30.140625c1.957031-1.128906 4.449219-.539062 5.695312 1.34375 1.242188 1.886719.804688 4.410156-1 5.765625l-36.6875 27.519531 90.710938-52.34375c1.992188-1.082031 4.480469-.421874 5.671875 1.507813 1.1875 1.929687.664063 4.453125-1.199219 5.746094l-44.015625 28.878906 66.363281-38.300781c2.007813-1.148438 4.566407-.484375 5.765626 1.496094 1.199218 1.976562.601562 4.550781-1.34375 5.800781l-28.339844 17.921875 44.433594-25.636719c2.003906-1.140625 4.550781-.480469 5.75 1.484375 1.203124 1.96875.625 4.535156-1.304688 5.796875l-91.683594 59.144531 112.144532-64.753906c1.308593-.78125 2.9375-.808594 4.269531-.066406 1.332031.738281 2.167969 2.136718 2.191406 3.660156s-.765625 2.945312-2.074219 3.730469l-36.230468 22.46875 46.480468-26.839844c2.011719-1.089844 4.523438-.398437 5.695313 1.566406 1.175781 1.964844.589843 4.503907-1.328125 5.757813l-20.640625 12.6875 29.867187-17.238282c2.015625-1.222656 4.636719-.582031 5.863282 1.433594 1.222656 2.015625.578124 4.640625-1.433594 5.863282l-137.882813 87.773437 153.597657-88.679687c2.015624-1.160157 4.59375-.492188 5.789062 1.5 1.199219 1.996093.578125 4.582031-1.394531 5.816406l-115.941407 72.34375 127.777344-73.761719c2.003906-1.054687 4.484375-.363281 5.648438 1.578125 1.167968 1.941406.613281 4.453125-1.261719 5.726562l-131.589844 82.074219 141.976563-81.921875c2.003906-1.101562 4.523437-.425781 5.707031 1.53125 1.183594 1.957032.613281 4.503906-1.296875 5.765625l-176.640625 111.515625 189.382813-109.382812c2.015624-1.21875 4.640624-.570313 5.855468 1.445312 1.21875 2.019532.574219 4.640625-1.445312 5.859375l-185.171875 116.507813 196.265625-113.316406c2.011718-1.125 4.550781-.453126 5.738281 1.519531 1.191406 1.972656.597656 4.535156-1.335937 5.785156l-191.265626 120.023437 201.019532-116.054687c2.003906-1.058594 4.484375-.363281 5.648437 1.578125 1.167969 1.941406.613281 4.453125-1.261719 5.726562l-188.253906 117.511719 196.683594-113.5625c2.023438-1.152343 4.597656-.46875 5.785156 1.53125 1.1875 2.003907.550782 4.585938-1.433594 5.808594l-102.800781 62.660156 106.421875-61.441406c2.027344-1.199219 4.648438-.53125 5.847656 1.5 1.203126 2.027344.53125 4.648437-1.496093 5.847656l-79.496094 48.238281 82.140625-47.425781c1.308594-.785156 2.933594-.808593 4.265625-.070312 1.332031.742187 2.167969 2.136719 2.195313 3.660156.023437 1.527344-.765626 2.949219-2.074219 3.730469l-184.679688 114.550781 190.492188-109.96875c2.019531-1.125 4.574219-.433594 5.75 1.558594 1.175781 1.996093.546875 4.5625-1.417969 5.789062l-30.589844 18.433594 31.574219-18.203125c2.015625-1.113281 4.550781-.425781 5.730469 1.554688 1.175781 1.976562.570312 4.535156-1.371094 5.777343l-120.320312 73.386719 122.257812-70.582031c2.011719-1.074219 4.515625-.375 5.679688 1.585937 1.164062 1.960938.578124 4.492188-1.328126 5.746094l-112.042968 68.265625 113.824218-65.707031c2.03125-1.195313 4.648438-.519532 5.847657 1.511718 1.195312 2.03125.519531 4.648438-1.511719 5.84375l-12.082031 7.253907 12.339843-7.117188c1.304688-.78125 2.933594-.808593 4.265626-.066406 1.332031.738281 2.167968 2.136719 2.191406 3.660156.027344 1.523438-.765625 2.945313-2.070313 3.730469l-192.328125 119.386719 194.101563-112.082031c2.015625-1.097657 4.539062-.402344 5.710937 1.574218 1.167969 1.976563.5625 4.523438-1.367187 5.761719l-89.363281 54.273437 89.277343-51.535156c2.011719-1.089844 4.523438-.398437 5.699219 1.566406 1.171875 1.964844.585938 4.503907-1.332031 5.757813l-163.300781 100.769531 164.070312-94.71875c2.011719-1.078125 4.515625-.378906 5.679688 1.582032 1.164062 1.964843.582031 4.496093-1.328126 5.746093l-103.132812 62.847657 101.605469-58.640626c2.011719-1.089843 4.527343-.398437 5.699219 1.566407 1.171874 1.964843.585937 4.503906-1.328126 5.753906l-130.109374 79.796875 128.851562-74.402344c2.011719-1.089844 4.527344-.398437 5.699219 1.566406 1.171875 1.964844.585937 4.503907-1.328125 5.753907l-130.644532 80.28125 129.132813-74.554688c2.015625-1.132812 4.570313-.457031 5.757813 1.527344 1.1875 1.988281.574218 4.558594-1.378907 5.796875l-150.1875 93.011719 147.089844-84.914063c2.011719-1.078125 4.515625-.378906 5.679687 1.582032 1.164063 1.964843.578126 4.496093-1.328124 5.746093l-66.457032 40.464844 63.027344-36.375c2.015625-1.136719 4.570312-.460937 5.757812 1.527344 1.183594 1.984375.574219 4.554687-1.378906 5.792969l-112.207031 69.121093 108.542969-62.703125c2.019531-1.117187 4.554687-.429687 5.734375 1.550782 1.175781 1.980468.570312 4.539062-1.371094 5.777343l-75.445313 46.199219 70.230469-40.507812c2.011719-1.105469 4.535157-.425782 5.71875 1.542968 1.179688 1.96875.589844 4.519532-1.332031 5.769532l-133.640625 83.484374 128.09375-73.949218c2.007813-1.074219 4.5-.382813 5.671875 1.570312 1.167969 1.953125.597656 4.476563-1.292969 5.742188l-86.84375 53.75 79.527344-45.917969c2.027344-1.207031 4.648437-.546875 5.855469 1.476563 1.207031 2.023437.546875 4.644531-1.476563 5.855468l-57.054687 35.164063 49.878906-28.792969c2.015625-1.113281 4.554688-.425781 5.730469 1.554688 1.179687 1.980468.570312 4.539062-1.371094 5.777343l-13.03125 7.980469 4.976563-2.867188c2-1.101562 4.511718-.433593 5.699218 1.515626 1.1875 1.949218.632813 4.488281-1.261718 5.761718l-111.726563 71.570313 99.957031-57.695313c2.003906-1.199218 4.597656-.566406 5.824219 1.421875 1.226563 1.984375.628906 4.589844-1.34375 5.839844l-107.433594 70.554687 90.222657-52.148437c2.003906-1.140625 4.550781-.484375 5.753906 1.484375 1.199218 1.96875.621094 4.53125-1.308594 5.792969l-48.375 31.25 30.558594-17.644531c1.984375-1.179688 4.546875-.5625 5.78125 1.390624 1.234375 1.949219.691406 4.53125-1.222656 5.820313l-53.011719 36.496094 24.3125-14.039063c1.324219-.839844 3-.886718 4.367187-.125 1.371094.765625 2.207032 2.21875 2.1875 3.785156-.019531 1.566407-.898437 2.996094-2.289062 3.722657l-117.382813 67.769531c-1.984375 1.136719-4.507812.503906-5.726562-1.425781-1.21875-1.933594-.699219-4.480469 1.175781-5.785157l52.960938-36.460937-86.90625 50.175781c-1.996094 1.117188-4.523438.457032-5.71875-1.496094-1.195313-1.953124-.636719-4.5 1.265624-5.773437l48.445313-31.242187-69.410156 40.109374c-.664063.367188-1.410157.554688-2.167969.535157zm0 0" fill="#89c053"/><g fill="#262626"><path d="m326.410156 10.539062c-96.113281-27-199.199218 3.320313-265.386718 78.054688-73.03125 84.609375-81.351563 207.304688-20.414063 300.996094 62.449219 92.394531 177.707031 133.472656 284.515625 101.40625 106.808594-32.070313 180.375-129.839844 181.601562-241.351563-1.246093-110.59375-74.328124-207.5-180.316406-239.105469zm-104.960937 482.527344c-120.15625-18.714844-208.972657-121.855468-209.648438-243.457031.171875-143.265625 129.035157-261.121094 272.957031-240.144531 121.550782 17.699218 206.753907 123.035156 209.621094 243.457031-3.414062 143.164063-126.453125 261.109375-272.953125 240.144531zm0 0"/><path d="m408.925781 247.117188h-149.613281v-150.074219c0-5.828125-12.441406-3.558594-12.441406 1.246093v148.828126h-145.144532c-5.476562 0-12.800781 8.296874-4.472656 8.296874h149.617188v150.074219c0 5.828125 12.441406 3.558594 12.441406-1.246093v-148.828126h145.144531c5.476563 0 12.796875-8.296874 4.46875-8.296874zm0 0"/></g></svg>