<svg height="504pt" viewBox="0 -78 504.73668 504" width="504pt" xmlns="http://www.w3.org/2000/svg"><path d="m240.710938 348.417969c-1.894532 0-3.566407-1.253907-4.09375-3.074219-.53125-1.824219.207031-3.777344 1.808593-4.792969l86.511719-54.972656-103.628906 59.828125c-2 1.097656-4.511719.429688-5.699219-1.519531s-.632813-4.488281 1.261719-5.761719l118.917968-76.132812-135.191406 78.046874c-2.015625 1.113282-4.554687.425782-5.730468-1.554687-1.179688-1.980469-.574219-4.535156 1.371093-5.777344l5.792969-3.539062-12.449219 7.183593c-2.003906 1.121094-4.539062.453126-5.730469-1.507812-1.191406-1.960938-.617187-4.515625 1.300782-5.78125l134.648437-86.183594-148.617187 85.835938c-2.011719 1.125-4.550782.453125-5.742188-1.519532-1.1875-1.972656-.597656-4.535156 1.339844-5.785156l105.289062-66.058594-114.738281 66.21875c-2.015625 1.117188-4.550781.429688-5.730469-1.550781-1.179687-1.980469-.570312-4.539062 1.371094-5.777343l23.132813-14.148438-28.160157 16.214844c-2.027343 1.203125-4.644531.535156-5.847656-1.492188-1.207031-2.023437-.539062-4.644531 1.488282-5.847656l26.289062-16.078125-31.203125 18.015625c-2.007813 1.058594-4.496094.359375-5.65625-1.59375-1.160156-1.949219-.59375-4.46875 1.292969-5.730469l59.070312-36.375-64.273437 37.101563c-2.011719 1.148437-4.566407.484375-5.765625-1.492188-1.199219-1.980468-.601563-4.554687 1.34375-5.804687l146.210937-93.011719-156.253906 90.265625c-2.011719 1.105469-4.535156.425781-5.71875-1.542969-1.179687-1.96875-.589844-4.519531 1.332031-5.769531l84.875-52.574219-90.148437 52.050782c-2.015625 1.117187-4.554688.429687-5.730469-1.550782-1.179688-1.980468-.570312-4.539062 1.371094-5.777344l29.804687-18.21875-33.277343 19.199219c-2.015626 1.136719-4.570313.457031-5.757813-1.527343-1.1875-1.984376-.574219-4.554688 1.378906-5.792969l75.5625-46.660157-80.09375 46.242188c-2.023437 1.207031-4.644531.546875-5.855469-1.476562-1.207031-2.023438-.546874-4.644532 1.476563-5.855469l76.144531-47.019531-80.332031 46.40625c-1.996094 1.070312-4.480469.390624-5.660156-1.542969-1.175781-1.9375-.636719-4.453125 1.230469-5.734375l156.824218-100.328125-165.066406 95.292969c-2.019531 1.214843-4.644531.5625-5.859375-1.457032-1.214844-2.019531-.5625-4.640625 1.457031-5.855468l120.761719-75.835938-126.292969 72.90625c-1.996094.980469-4.410156.257812-5.546875-1.652344-1.132812-1.910156-.609375-4.375 1.203125-5.660156l4.992188-3.039062-6.691406 3.859374c-2.023438 1.207032-4.644532.546876-5.851563-1.476562-1.210937-2.023438-.550781-4.644531 1.476563-5.855469l66.804687-41.273437-69.765625 40.292968c-2.003906 1.070313-4.492188.386719-5.664062-1.558593-1.175782-1.941407-.621094-4.464844 1.257812-5.738281l123.5625-78.027344-128.628906 74.238281c-1.984375.964844-4.378906.253906-5.515625-1.636719-1.140625-1.886718-.652344-4.335937 1.128906-5.640625l106.496094-66.882812-110.574219 63.828125c-2.007812 1.070312-4.503906.378906-5.671875-1.574219-1.167969-1.949219-.601563-4.476563 1.292969-5.738281l60.664062-37.546875-62.882812 36.28125c-2.015625 1.117187-4.554688.429687-5.730469-1.550781-1.179687-1.980469-.570313-4.539063 1.371094-5.777344l16.347656-10.019532-17.441406 10.070313c-1.980469.921875-4.339844.195313-5.460938-1.679687-1.121093-1.878907-.640625-4.300782 1.109375-5.609376l30.183594-18.59375-31.035156 17.863282c-2.003906 1.042968-4.476563.34375-5.636719-1.597656-1.15625-1.941407-.601563-4.445313 1.265625-5.71875l36.695312-22.679688-27.308593 15.753906c-2.007813 1.148438-4.566407.484375-5.765625-1.496094-1.199219-1.976562-.601563-4.550781 1.347656-5.800781l79.539062-50.527343-54.539062 31.496093c-1.988281 1.117188-4.503906.46875-5.707031-1.464843-1.207031-1.9375-.675781-4.476563 1.203125-5.769532l88.984375-59.613281-49.800781 28.730469c-1.972657 1.136718-4.492188.523437-5.722657-1.394532-1.230469-1.917968-.734375-4.464843 1.125-5.78125l50.492188-35.746093c-1.46875-.652344-2.445313-2.070313-2.53125-3.675781-.082031-1.601563.738281-3.117188 2.128906-3.917969l60.390625-34.867188c1.972656-1.140625 4.492188-.527343 5.722656 1.390625 1.230469 1.921875.734375 4.464844-1.125 5.785156l-34.984375 24.746094 80.800781-46.636718c1.992188-1.152344 4.542969-.519532 5.761719 1.433593 1.214844 1.953125.664063 4.523438-1.246093 5.804688l-89.039063 59.640625 118.460937-68.371094c2-1.082031 4.5-.40625 5.679688 1.539062 1.179688 1.945313.625 4.476563-1.257812 5.75l-79.429688 50.449219 96.65625-55.800781c2.007812-1.070312 4.503906-.378906 5.671875 1.570312 1.167969 1.953126.597656 4.480469-1.292969 5.742188l-36.847656 22.792969 46.078125-26.605469c1.3125-.78125 2.9375-.804688 4.269531-.058594 1.328125.742188 2.160156 2.140625 2.183594 3.664063.019531 1.523437-.773438 2.941406-2.082031 3.722656l-30.175781 18.578125 38.972656-22.484375c2.015625-1.117187 4.554687-.429687 5.730468 1.550781 1.179688 1.980469.574219 4.539063-1.371093 5.777344l-16.324219 10 22.90625-13.214844c2.007812-1.074218 4.5-.382812 5.671875 1.570313 1.167969 1.953125.597656 4.480469-1.296875 5.742187l-60.585938 37.546875 68.703126-39.664062c2.015624-1.160157 4.589843-.496094 5.789062 1.5 1.199219 1.992187.578125 4.578125-1.394531 5.8125l-106.460938 66.832031 116.410157-67.207031c2.003906-1.101563 4.523437-.425781 5.707031 1.53125 1.183593 1.957031.613281 4.5-1.292969 5.765625l-123.582031 78.035156 133.726562-77.207031c2.015625-1.136719 4.570313-.457031 5.757813 1.527343 1.183594 1.984376.574218 4.554688-1.378906 5.792969l-66.910157 41.300781 72.933594-42.09375c2.011719-1.074218 4.515625-.378906 5.679687 1.585938 1.164063 1.960938.578126 4.492188-1.328124 5.742188l-4.890626 2.988281 8.433594-4.871094c2.019532-1.21875 4.640625-.566406 5.855469 1.453125 1.21875 2.019531.566406 4.640625-1.453125 5.859375l-120.808594 75.851563 128.90625-74.410157c1.996094-1.070312 4.480469-.390625 5.660156 1.542969 1.175782 1.9375.636719 4.453125-1.230468 5.734375l-156.792969 100.277344 166.460937-96.09375c2.015626-1.136719 4.566407-.457031 5.753907 1.527343 1.1875 1.984376.578125 4.554688-1.378907 5.792969l-76.210937 47.070313 81-46.769532c2.015625-1.136718 4.570313-.460937 5.757813 1.527344 1.183593 1.984375.574218 4.554688-1.378907 5.792969l-75.699219 46.746094 79.894532-46.082031c2.019531-1.113282 4.554687-.425782 5.734375 1.554687 1.175781 1.980469.570312 4.535156-1.371094 5.777344l-29.59375 18.082031 32.425781-18.773438c2.011719-1.109374 4.535156-.425781 5.71875 1.542969 1.179688 1.96875.589844 4.515625-1.332031 5.769531l-84.933594 52.597657 89.113281-51.4375c2.011719-1.148438 4.566407-.484375 5.765626 1.492187 1.199218 1.980469.601562 4.554688-1.34375 5.804688l-146.226563 93.011718 153.308594-88.464843c2.007812-1.058594 4.492187-.359375 5.65625 1.59375 1.160156 1.949219.589843 4.46875-1.296875 5.730469l-58.972656 36.316406 61.796874-35.679688c2.027344-1.203125 4.648438-.535156 5.851563 1.492188 1.203125 2.023437.535156 4.644531-1.488281 5.847656l-26.265625 16.070312 28.210937-16.292968c2.019532-1.152344 4.59375-.46875 5.78125 1.53125 1.1875 2.003906.550782 4.585937-1.429687 5.808594l-23.28125 14.242187 25.0625-14.457031c2.019531-1.214844 4.644531-.5625 5.859375 1.457031s.566406 4.640625-1.453125 5.859375l-105.25 66.003906 109.226562-63.0625c2-1.082031 4.5-.40625 5.679688 1.539063 1.179687 1.945312.625 4.476562-1.261719 5.75l-134.671875 86.1875 140.023437-80.839844c2.015626-1.113281 4.554688-.425781 5.730469 1.554687 1.179688 1.980469.570313 4.539063-1.371093 5.777344l-5.5625 3.414063 6.40625-3.695313c2.007812-1.121094 4.539062-.453125 5.730468 1.507813 1.191406 1.960937.617188 4.515625-1.300781 5.78125l-118.996094 76.15625 116.703125-67.367188c2-1.085937 4.5-.410156 5.679688 1.535157 1.179687 1.949218.625 4.476562-1.261719 5.75l-86.535156 54.988281 61.746093-35.625c1.988282-1.117188 4.503907-.46875 5.707032 1.464843 1.207031 1.9375.675781 4.476563-1.199219 5.769532l-96.394531 64.667968 56.816406-32.804687c1.984375-1.097656 4.484375-.449219 5.683594 1.472656 1.203125 1.925781.6875 4.457031-1.171875 5.757813l-40.191407 27.125c1.839844.207031 3.335938 1.574218 3.707032 3.386718s-.464844 3.65625-2.078125 4.566407l-92.160157 53.171875c-1.980468 1.085937-4.464843.441406-5.664062-1.476563-1.199219-1.914062-.699219-4.433593 1.144531-5.742187l29.753907-20.097656-61.15625 35.296874c-1.992188 1.152344-4.542969.519532-5.761719-1.433593s-.667969-4.523438 1.246093-5.804688l96.425782-64.699219-126.292969 72.890626c-.640625.375-1.371094.574218-2.117187.582031zm0 0" fill="#e4e8eb"/><path d="m264.101562 288.582031c-1.820312.003907-3.441406-1.148437-4.039062-2.867187-.59375-1.71875-.035156-3.628906 1.394531-4.753906l46.140625-36.402344-73.660156 42.519531c-1.984375 1.101563-4.484375.453125-5.6875-1.46875-1.203125-1.925781-.6875-4.457031 1.171875-5.757813l25.097656-16.859374-34.707031 20.035156c-1.984375 1.113281-4.492188.476562-5.703125-1.453125-1.210937-1.925781-.695313-4.464844 1.171875-5.765625l48.71875-33.109375-59.121094 34.132812c-1.996094 1.136719-4.535156.484375-5.738281-1.472656-1.207031-1.957031-.644531-4.515625 1.269531-5.789063l33.277344-21.792968-39.898438 23.039062c-1.984374 1.152344-4.523437.53125-5.75-1.40625-1.230468-1.933594-.707031-4.496094 1.183594-5.796875l83.34375-57.71875-92.84375 53.597657c-1.996094 1.1875-4.574218.558593-5.800781-1.414063s-.648437-4.566406 1.296875-5.832031l66.996094-44.578125-72.011719 41.550781c-1.992187 1.214844-4.59375.605469-5.835937-1.367188-1.242188-1.976562-.671876-4.582031 1.285156-5.851562l89.046875-60.9375-94.40625 54.5c-1.992188 1.136719-4.523438.492188-5.734375-1.457031-1.207032-1.949219-.660156-4.503907 1.238281-5.785157l72.3125-48.144531-74.546875 43.023438c-2.011719 1.148437-4.570312.484375-5.765625-1.492188-1.199219-1.980469-.605469-4.554687 1.34375-5.804687l13.808594-8.753906-12.492188 7.210937c-1.996093 1.132813-4.527343.488281-5.738281-1.457031-1.207031-1.949219-.660156-4.503906 1.238281-5.789063l66.917969-44.585937-66.558594 38.398437c-1.996094 1.136719-4.535156.488281-5.742187-1.46875-1.203125-1.957031-.644531-4.519531 1.269531-5.792969l42.265625-27.59375-39.082031 22.578126c-1.992188 1.132812-4.523438.488281-5.734375-1.457032-1.207031-1.949218-.664063-4.503906 1.238281-5.789062l50.464844-33.613282-46.601563 26.898438c-1.972656 1.078125-4.445312.4375-5.648437-1.460938-1.203125-1.902343-.722656-4.410156 1.09375-5.734374l59.195312-40.914063-52.90625 30.511719c-1.980468 1.0625-4.441406.40625-5.632812-1.496094-1.191406-1.90625-.703125-4.40625 1.117187-5.722656l32.648438-22.183594-23.347657 13.472656c-1.945312 1.125-4.433593.542969-5.679687-1.324218-1.25-1.871094-.832031-4.390626.953125-5.757813l42.207031-32.25-25.359375 14.644531c-1.953125 1.136719-4.449218.554688-5.699218-1.324218-1.25-1.878907-.820313-4.40625.976562-5.765626l19.628906-14.898437c-.367187-.3125-.675781-.683594-.914062-1.101563-1.175782-2.042968-.476563-4.652343 1.5625-5.828124l35.558594-20.539063c1.949218-1.136719 4.445312-.554687 5.695312 1.324219 1.25 1.875.824219 4.402344-.976562 5.765625l-1.535157 1.160156 24.121094-13.960937c1.949219-1.125 4.4375-.542969 5.683594 1.328124 1.25 1.867188.832031 4.386719-.953125 5.753907l-42.214844 32.257812 66.234375-38.246093c1.988281-1.15625 4.53125-.527344 5.753906 1.417968 1.222657 1.945313.6875 4.507813-1.214843 5.800782l-32.664063 22.1875 43.585937-25.15625c1.980469-1.121094 4.488282-.488282 5.707032 1.433593 1.214844 1.921875.710937 4.457031-1.148438 5.765625l-59.160156 40.902344 71.03125-41.011719c1.992188-1.132812 4.523438-.488281 5.734375 1.457031 1.207031 1.949219.660156 4.503907-1.238281 5.789063l-50.570313 33.679687 58.34375-33.671874c2-1.136719 4.535157-.484376 5.742188 1.472656 1.203125 1.957031.644531 4.515625-1.269531 5.789062l-42.179688 27.535156 47.007812-27.132812c1.992188-1.136719 4.527344-.492188 5.734376 1.457031 1.210937 1.949219.664062 4.503907-1.238282 5.785157l-66.882812 44.5625 72.292968-41.730469c2.003907-1.117188 4.535157-.453125 5.730469 1.511719 1.191407 1.960937.617188 4.515624-1.300781 5.777343l-13.773438 8.796875 15.285157-8.824218c1.988281-1.113282 4.503906-.46875 5.707031 1.46875 1.207031 1.933593.675781 4.476562-1.203125 5.769531l-72.394531 48.214843 75.3125-43.480468c1.988281-1.152344 4.53125-.523438 5.753906 1.421875 1.222656 1.945312.6875 4.507812-1.210938 5.800781l-89.011718 60.902344 91.554687-52.847656c1.992188-1.132813 4.523438-.492188 5.734375 1.457031 1.207032 1.949219.660156 4.503906-1.238281 5.785156l-67.003906 44.554687 66.652343-38.402343c1.984376-1.152344 4.523438-.53125 5.75 1.40625 1.226563 1.9375.707032 4.496093-1.183593 5.796875l-83.335938 57.652344 81.066407-46.796876c1.996093-1.136718 4.535156-.484374 5.742187 1.472657 1.203125 1.957031.640625 4.515625-1.269531 5.789062l-33.28125 21.820313 28.84375-16.667969c1.984375-1.152344 4.527344-.523437 5.753906 1.421875 1.222656 1.945312.683594 4.507812-1.214844 5.800781l-48.710937 33.132813 42.574219-24.585938c1.992187-1.152344 4.542968-.519531 5.761718 1.433594s.664063 4.523438-1.246094 5.804688l-25.070312 16.835937 16.066406-9.265625c1.9375-1.109375 4.398438-.542969 5.652344 1.304688 1.25 1.84375.871094 4.34375-.875 5.734374l-46.128906 36.402344 27.058594-15.625c2.039062-1.160156 4.632812-.453125 5.804687 1.578125s.484375 4.625-1.539063 5.8125l-78.179687 45.117188c-.640625.367187-1.363281.5625-2.101563.570312zm0 0" fill="#5e9cea"/><path d="m243.453125 228.558594c-1.839844 0-3.46875-1.175782-4.050781-2.917969-.578125-1.742187.019531-3.660156 1.488281-4.761719l1.136719-.855468-7.859375 4.53125c-1.96875 1.113281-4.460938.5-5.6875-1.402344-1.222657-1.898438-.753907-4.421875 1.070312-5.753906l.144531-.105469-4.539062 2.613281c-1.964844 1.128906-4.472656.519531-5.703125-1.382812-1.234375-1.902344-.765625-4.433594 1.070313-5.769532l10.921874-7.894531-13.695312 7.894531c-1.925781 1.121094-4.390625.570313-5.65625-1.261718-1.265625-1.832032-.910156-4.328126.816406-5.734376l37.332032-30.480468-41.511719 23.960937c-1.957031 1.113281-4.441407.511719-5.675781-1.367187-1.234376-1.878906-.796876-4.394532 1-5.75l19.898437-14.796875-18.671875 10.785156c-1.945312 1.144531-4.445312.570313-5.703125-1.300781-1.253906-1.875-.835937-4.40625.960937-5.773438l21.289063-16.476562-17.433594 10.0625c-1.949219 1.105468-4.425781.519531-5.664062-1.347656-1.242188-1.871094-.824219-4.378907.953125-5.746094l6.066406-4.605469c-1.914062.753906-4.09375.035156-5.183594-1.710937-1.089844-1.746094-.777344-4.019532.738282-5.40625l13.59375-12.425782c-.796876-.359375-1.460938-.953125-1.902344-1.707031-1.171875-2.039063-.472656-4.640625 1.5625-5.820313l23.738281-13.703124c1.878906-1.0625 4.257813-.550782 5.535156 1.1875 1.28125 1.738281 1.058594 4.160156-.515625 5.636718l-7.382812 6.75 24.242187-13.992187c1.949219-1.085938 4.402344-.492188 5.636719 1.367187 1.230469 1.859375.824219 4.351563-.933594 5.722656l-5.769531 4.386719 13.046875-7.535156c1.941406-1.109375 4.410156-.527344 5.660156 1.328125 1.246094 1.855469.847656 4.359375-.914062 5.738281l-21.265625 16.460938 27.902343-16.101563c1.957032-1.113281 4.441407-.515625 5.675782 1.363282 1.234375 1.882812.800781 4.398437-.996094 5.75l-19.882812 14.789062 23.398437-13.507812c1.921875-1.097657 4.367187-.542969 5.625 1.28125 1.257813 1.824218.914063 4.308593-.796875 5.714843l-37.359375 30.472657 39.722656-22.9375c1.96875-1.125 4.472657-.519532 5.707031 1.382812 1.230469 1.902344.761719 4.4375-1.074218 5.769531l-10.871094 7.867188 7.929688-4.582031c1.964843-1.113282 4.460937-.496094 5.683593 1.402343 1.226563 1.898438.757813 4.425781-1.066406 5.757813l-3.089844 2.210937c1.929688-.242187 3.777344.851563 4.496094 2.660157.71875 1.808593.121094 3.871093-1.449219 5.019531l-4.59375 3.414062c1.402344-.019531 2.730469.632813 3.570313 1.757813 1.277343 1.765625 1.019531 4.210937-.597657 5.671875l-13.160156 11.898437c1.386719.714844 2.269532 2.128906 2.308594 3.6875.035156 1.558594-.78125 3.011719-2.128906 3.792969l-23.75 13.714844c-1.875 1.019531-4.21875.492187-5.480469-1.230469-1.261719-1.726562-1.050781-4.117188.488281-5.597656l6.207032-5.613282-22.46875 12.96875c-.648438.378907-1.386719.578126-2.132813.582032zm0 0" fill="#636c77"/><g fill="#262626"><path d="m504.171875 167.332031c-48.265625-68.359375-116.199219-136.679687-198.71875-160.007812-94.054687-26.617188-181.816406 27.253906-246.046875 92.054687-15.824219 15.960938-54.324219 47.753906-59.035156 71.152344-4.769532 23.773438 37.800781 59.222656 51.78125 73.847656 64.714844 67.6875 153.828125 125.082032 250.742187 97.878906 50.5-14.167968 94.53125-45.867187 132.113281-81.605468 21.085938-20.042969 69.707032-59.417969 69.707032-91.230469.089844-.742187-.105469-1.488281-.542969-2.089844zm-83.054687 93.578125c-47.738282 44.449219-109.6875 84.289063-177.554688 79.945313-60.9375-3.921875-115.601562-40.546875-159.019531-80.972657-17.542969-16.324218-71.464844-60.953124-69.324219-87.292968 2.421875-29.816406 55.722656-72.304688 75.996094-90.359375 48.128906-42.882813 108.921875-79.363281 175.855468-72.945313 94.039063 9.027344 172.964844 88.882813 225.058594 162.398438-1.269531 29.976562-51.847656 71.382812-71.011718 89.226562zm0 0"/><path d="m369.660156 173.144531c-7.492187-148.480469-234.921875-144.964843-234.242187 2.832031.699219 150.339844 226.894531 144.117188 234.265625-1.878906 0-.203125-.109375-.324218-.136719-.503906-.023437-.179688.121094-.289062.113281-.449219zm-135.730468 106.785157c-49.984376-10.886719-85.605469-55.15625-85.546876-106.308594 0-66.097656 61.328126-119.65625 128.101563-102.589844 49.074219 12.546875 78.078125 56.226562 80.757813 104.808594-3.359376 63.050781-56.054688 118.160156-123.3125 104.089844zm0 0"/><path d="m254.09375 119.851562c-29.296875-.257812-54.308594 21.09375-58.652344 50.066407-3.589844 33.433593 23.042969 58.136719 54.777344 59.851562.285156-.011719.570312-.042969.851562-.09375.257813 0 .417969.058594.699219.042969 30.355469-1.636719 57.816407-23.464844 58.171875-55.613281-.171875-14.609375-6.164062-28.550781-16.648437-38.734375-10.480469-10.183594-24.589844-15.765625-39.199219-15.519532zm.273438 102.316407c-57.941407-3.695313-62.816407-97.613281-1.367188-94.175781 55.9375 3.132812 59.28125 89.976562 1.367188 94.175781zm0 0"/></g></svg>