<svg height="506pt" viewBox="0 -28 506.76812 506" width="506pt" xmlns="http://www.w3.org/2000/svg"><g fill="#eb5463"><path d="m117.566406 109.214844c-1.8125-.003906-3.425781-1.148438-4.023437-2.863282-.597657-1.710937-.046875-3.609374 1.371093-4.742187l3.796876-3.027344-14.011719 8.082031c-1.957031 1.125-4.449219.539063-5.695313-1.347656-1.242187-1.882812-.804687-4.40625 1-5.761718l8.535156-6.375-14.761718 8.535156c-1.972656 1.121094-4.476563.507812-5.703125-1.402344-1.230469-1.90625-.746094-4.441406 1.09375-5.765625l1.765625-1.257813-4.769532 2.75c-1.949218 1.085938-4.402343.488282-5.636718-1.367187-1.230469-1.859375-.824219-4.355469.933594-5.722656l24.210937-18.324219-27.949219 16.09375c-1.925781 1.078125-4.359375.503906-5.601562-1.320312-1.246094-1.824219-.890625-4.300782.816406-5.703126l34.132812-27.152343-35.976562 20.769531c-1.917969 1.117188-4.371094.582031-5.644531-1.234375-1.273438-1.816406-.941407-4.304687.761719-5.726563l34.136718-28.535156-32.105468 18.542969c-1.941407 1.167969-4.457032.613281-5.726563-1.257813-1.273437-1.875-.859375-4.417968.941406-5.792968l14.8125-11.730469-6.972656 4.019531c-1.882813 1.109375-4.296875.617188-5.597656-1.140625-1.296875-1.757812-1.058594-4.214843.554687-5.6875l12.929688-12.03125c-1.542969-.578125-2.617188-1.988281-2.761719-3.628906-.140625-1.644531.675781-3.21875 2.097656-4.050781l23.890625-13.792969c1.882813-1.109375 4.300782-.617187 5.597656 1.140625 1.300782 1.757812 1.058594 4.214844-.554687 5.6875l-7.917969 7.371094 25.183594-14.503906c1.933594-1.121094 4.40625-.558594 5.664062 1.289062 1.269532 1.84375.894532 4.351562-.851562 5.75l-14.867188 11.671875 23.945313-13.8125c1.914063-1.097656 4.351563-.554687 5.617187 1.253906 1.265626 1.808594.941407 4.285157-.746093 5.707031l-34.132813 28.546876 43.222656-24.953126c1.933594-1.101562 4.386719-.535156 5.640626 1.304688 1.25 1.839844.878906 4.332031-.855469 5.726562l-34.132813 27.152344 37.546875-21.671875c1.949219-1.089843 4.402344-.492187 5.636719 1.367188 1.230469 1.855469.824219 4.351562-.933594 5.722656l-24.21875 18.320313 23.332032-13.449219c1.96875-1.125 4.476562-.507813 5.703124 1.398437 1.226563 1.910156.746094 4.445313-1.097656 5.769532l-2.636718 1.878906c1.988281-.628906 4.136718.269531 5.085937 2.125.949219 1.855468.417969 4.125-1.253906 5.367187l-8.53125 6.367188 1.773437-1.027344c1.929688-1.09375 4.378906-.527344 5.628906 1.304687 1.253907 1.835938.890626 4.320313-.832031 5.71875l-8.167969 6.519532c1.828126.210937 3.3125 1.566406 3.6875 3.367187.378907 1.800781-.441406 3.636719-2.03125 4.5625l-42.257812 24.402344c-.632812.371094-1.355469.570313-2.089844.574219zm0 0"/><path d="m368.15625 278.183594c-1.699219 0-3.238281-1.011719-3.917969-2.570313-.675781-1.5625-.359375-3.375.804688-4.617187l17.988281-19.199219-42.140625 24.328125c-1.945313 1.144531-4.445313.570312-5.699219-1.300781-1.257812-1.875-.839844-4.40625.957032-5.773438l16.964843-13.070312-24.21875 14.011719c-1.917969 1.121093-4.378906.582031-5.652343-1.238282-1.273438-1.824218-.933594-4.320312.78125-5.734375l36.992187-30.824219-44.171875 25.5c-1.964844 1.085938-4.433594.460938-5.648438-1.425781-1.21875-1.890625-.761718-4.394531 1.042969-5.734375l9.617188-6.828125-10.097657 5.828125c-1.949218 1.121094-4.433593.53125-5.675781-1.34375-1.242187-1.875-.816406-4.394531.976563-5.753906l22.5625-16.957031-21.546875 12.433593c-1.964844 1.117188-4.457031.507813-5.6875-1.382812-1.230469-1.894531-.773438-4.417969 1.042969-5.761719l8.449218-6.132812-4.769531 2.746093c-1.949219 1.136719-4.449219.554688-5.699219-1.324218s-.820312-4.40625.980469-5.765625l9.179687-6.972657-2.019531 1.167969c-1.867187 1.089844-4.25.617188-5.554687-1.105469-1.304688-1.71875-1.117188-4.140624.433594-5.644531l14.4375-14.042969c-1.773438-.300781-3.167969-1.679687-3.488282-3.453124-.320312-1.769532.503906-3.550782 2.0625-4.449219l23.894532-13.800781c1.863281-1.089844 4.246093-.613282 5.550781 1.105468 1.308593 1.722656 1.121093 4.144532-.429688 5.644532l-11.570312 11.207031 31.214843-18.023438c1.949219-1.136719 4.445313-.554687 5.695313 1.324219s.820313 4.40625-.976563 5.765625l-9.199218 6.980469 16.210937-9.386719c1.964844-1.117187 4.457031-.507813 5.6875 1.382813 1.230469 1.894531.773438 4.417968-1.042969 5.761718l-8.457031 6.152344 12.464844-7.195312c1.953125-1.117188 4.4375-.527344 5.679687 1.347656 1.242188 1.875.816407 4.390625-.976562 5.753906l-22.570312 17.03125 26.09375-15.070312c1.972656-1.125 4.476562-.507813 5.703124 1.398437 1.226563 1.910156.746094 4.445313-1.09375 5.769531l-9.609374 6.828125 10.121093-5.835937c1.914063-1.097656 4.351563-.554688 5.617188 1.253906s.941406 4.285156-.746094 5.707031l-37.007813 30.847657 36.539063-21.09375c1.941406-1.109376 4.410156-.527344 5.65625 1.328124 1.25 1.855469.851563 4.359376-.910156 5.738282l-16.957031 13.074218 11.675781-6.742187c1.832031-1.074219 4.175781-.636719 5.496093 1.027344 1.320313 1.660156 1.21875 4.042969-.242187 5.585937l-18.210937 19.429688c2.0625-.613282 4.257812.398437 5.125 2.367187.867187 1.96875.136718 4.273438-1.710938 5.382813l-23.890625 13.789062c-.644531.367188-1.371094.558594-2.109375.554688zm0 0"/><path d="m165.839844 450.316406c-1.785156 0-3.378906-1.109375-4-2.78125s-.132813-3.554687 1.21875-4.71875l18.285156-15.746094-31.519531 18.195313c-1.933594 1.082031-4.371094.507813-5.617188-1.324219-1.242187-1.832031-.878906-4.308594.835938-5.707031l24.746093-19.628906-32.503906 18.773437c-1.953125 1.113282-4.4375.515625-5.671875-1.363281-1.234375-1.882813-.800781-4.398437.996094-5.753906l19.628906-14.503907-22.785156 13.148438c-1.921875 1.097656-4.367187.542969-5.628906-1.28125-1.257813-1.824219-.910157-4.304688.800781-5.714844l37.152344-30.261718-39.550782 22.828124c-1.921874 1.109376-4.371093.5625-5.636718-1.257812s-.925782-4.308594.78125-5.722656l33.347656-27.699219-31.316406 18.074219c-1.960938 1.121094-4.453125.523437-5.691406-1.363282-1.238282-1.890624-.789063-4.414062 1.023437-5.761718l5.28125-3.898438c-1.550781.269532-3.125-.351562-4.070313-1.613281-1.300781-1.703125-1.140624-4.105469.375-5.617187l15.265626-15.214844c-1.871094-.125-3.441407-1.457032-3.867188-3.285156-.425781-1.824219.386719-3.714844 2.007812-4.660157l23.894532-13.796875c1.851562-1.03125 4.179687-.542968 5.464844 1.144532 1.285156 1.683593 1.136718 4.058593-.347657 5.570312l-13.277343 13.234375 34.226562-19.828125c1.960938-1.125 4.453125-.527344 5.691406 1.363281 1.238282 1.886719.789063 4.414063-1.023437 5.761719l-3.351563 2.480469 8.917969-5.117188c1.914063-1.085937 4.34375-.53125 5.601563 1.273438 1.257812 1.808593.933593 4.273437-.746094 5.695312l-33.359375 27.710938 42.171875-24.347657c1.929687-1.125 4.398437-.574218 5.664062 1.261719 1.269532 1.839844.90625 4.34375-.832031 5.746094l-37.136719 30.222656 40.957032-23.671875c1.957031-1.109375 4.441406-.511718 5.675781 1.367188s.800781 4.398437-.996094 5.75l-19.628906 14.558594 18.449219-10.640626c1.933593-1.082031 4.371093-.507812 5.613281 1.324219 1.246093 1.832031.882812 4.308594-.835938 5.707031l-24.789062 19.625 20.660156-11.945312c1.902344-1.078125 4.3125-.539062 5.578125 1.242188 1.269531 1.785156.980469 4.238281-.664062 5.679687l-18.234376 15.804687 7.894532-4.558593c1.320312-.839844 3-.890625 4.367187-.125 1.367188.765625 2.207031 2.214843 2.1875 3.785156-.023437 1.566406-.898437 2.996094-2.289062 3.722656l-47.257813 27.304688c-.648437.371093-1.386718.5625-2.132812.554687zm0 0"/></g><path d="m59.582031 57.230469c1.765625 68.640625 104.535157 63.476562 114.058594 1.167969h326.636719c6.886718 0 9.632812-8.601563 1.210937-8.601563h-327.5c-6.3125-66.917969-109.558593-62.730469-114.261719 1.167969h-51.265624c-4.175782 0-13.289063 6.265625-5.019532 6.265625zm72.910157-47.105469c17.804687 8.238281 29.261718 26.007812 29.414062 45.628906-1.707031 31.9375-33.066406 58.800782-65.066406 40.328125-15.445313-9.121093-24.9375-25.707031-24.976563-43.640625.058594-30.769531 30.726563-55.289062 60.628907-42.316406zm0 0" fill="#262626"/><path d="m501.40625 220.140625h-88.519531c-6.550781-65.785156-107.699219-62.125-114.125-.164063h-292.332031c-7.246094 0-9.328126 9.574219-.957032 9.574219h293.121094c3.292969 66.558594 104.171875 61.082031 113.9375-.160156h87.832031c7.125 0 9.429688-9.25 1.042969-9.25zm-110.347656 35.410156c-7.3125 9.992188-8.328125 8.074219-23.890625 12.179688-14.789063 3.90625-19.226563 6.167969-31.402344-.90625-11.554687-6.734375-19.949219-17.789063-23.339844-30.726563-3.390625-12.933594-1.496093-26.6875 5.265625-38.222656 7.679688-12.925781 10.921875-11.902344 26.726563-16.078125 15.527343-4.101563 15.582031-6.277344 26.957031-1.117187 17.777344 8.332031 29.21875 26.105468 29.4375 45.738281-.230469 10.476562-3.632812 20.632812-9.753906 29.132812zm0 0" fill="#262626"/><path d="m225.34375 392.972656c-5.691406-68.785156-109.722656-68.265625-114.476562-1.324218h-102.585938c-5 0-12.996094 7.5625-4.660156 7.5625h107.144531c2.816406 68.769531 107.820313 65.542968 114.464844-1.324219h271.625c2.5625 0 13.953125-4.914063 8.054687-4.914063zm-60.671875 48.949219c-23.59375-3.175781-41.28125-23.183594-41.53125-46.984375-.425781-24.640625 18.953125-45.085938 43.578125-45.980469 26.332031-.722656 44.980469 22.273438 46.308594 46.933594-1.382813 25.730469-20.265625 49.035156-48.355469 46.03125zm0 0" fill="#262626"/></svg>