<svg height="507pt" viewBox="0 -61 507.95142 507" width="507pt" xmlns="http://www.w3.org/2000/svg"><path d="m12.605469 369.054688c-1.820313.007812-3.445313-1.144532-4.046875-2.863282-.597656-1.71875-.039063-3.628906 1.390625-4.757812l29.757812-23.3125-29.757812 17.195312c-1.984375 1.117188-4.492188.476563-5.703125-1.449218-1.210938-1.929688-.695313-4.46875 1.171875-5.769532l16.367187-11.09375-12.796875 7.398438c-1.984375 1.117187-4.496093.476562-5.707031-1.449219-1.210938-1.929687-.691406-4.46875 1.175781-5.769531l71.753907-48.90625-67.285157 38.820312c-2.007812 1.125-4.550781.453125-5.738281-1.519531-1.191406-1.972656-.597656-4.535156 1.335938-5.785156l4.675781-2.945313-.273438.152344c-2 1.085938-4.5.410156-5.679687-1.535156-1.179688-1.949219-.625-4.476563 1.261718-5.75l29.804688-18.960938-25.386719 14.652344c-2.007812 1.125-4.550781.453125-5.738281-1.519531-1.191406-1.972657-.597656-4.535157 1.335938-5.785157l5.972656-3.746093-1.535156.851562c-1.996094 1.054688-4.472657.371094-5.644532-1.5625-1.167968-1.933593-.628906-4.445312 1.234375-5.722656l12.464844-7.921875-8.089844 4.632812c-1.996093 1.160157-4.550781.519532-5.765625-1.445312-1.214844-1.960938-.648437-4.535156 1.277344-5.804688l57.175781-37.855468-52.6875 30.464844c-1.972656 1.089843-4.453125.460937-5.664062-1.441407-1.210938-1.902343-.734375-4.417969 1.089843-5.746093l78.808594-54.96875-74.242187 42.863281c-2.003907 1.140625-4.550781.480469-5.75-1.484375-1.203125-1.96875-.625-4.535156 1.304687-5.796875l13.125-8.53125-8.679687 5.007812c-1.988281 1.097657-4.492188.445313-5.6875-1.488281-1.199219-1.933594-.671875-4.464844 1.199219-5.757812l32.851562-21.84375-28.363281 16.433593c-1.996094 1.136719-4.535157.484375-5.742188-1.472656-1.203125-1.957031-.644531-4.515625 1.269531-5.789063l14.039063-9.199218-9.53125 5.496094c-1.972656 1.09375-4.457031.460937-5.667969-1.441407-1.210937-1.902343-.730468-4.417969 1.09375-5.742187l46.234375-32.289063-41.695312 24.054688c-1.957031 1.121093-4.453125.523437-5.6875-1.367188-1.238281-1.886719-.789063-4.410156 1.019531-5.757812l54.265625-40.066407-49.597656 28.621094c-1.984375 1.117188-4.496094.476563-5.703125-1.449218-1.210938-1.929688-.695313-4.46875 1.171875-5.769532l11.445312-7.773437-6.914062 3.984375c-1.941407 1.09375-4.402344.507812-5.640625-1.347656-1.238282-1.851563-.839844-4.347657.914062-5.726563l44.679688-34.421875-39.953125 23.039062c-1.957031 1.121094-4.453125.523438-5.6875-1.363281-1.238281-1.890625-.789063-4.414062 1.019531-5.761719l24.59375-18.074218-19.925781 11.484375c-1.960938 1.078125-4.421875.457031-5.636719-1.425781-1.214844-1.878907-.769531-4.378907 1.019531-5.722657l8.089844-5.792969-3.472656 1.996094c-1.902344 1.089844-4.320313.558594-5.59375-1.222656-1.273438-1.785156-.988281-4.246094.660156-5.691406l32.597656-28.289063-27.664062 15.96875c-1.890625.984375-4.21875.417969-5.453125-1.324219-1.230469-1.742187-.988282-4.125.574218-5.582031l19.429688-16.390625-14.507812 8.398438c-1.867188 1.0625-4.238282.570312-5.527344-1.148438-1.289063-1.722656-1.097656-4.132812.449218-5.628906l19.210938-18.507812-14.175781 8.183593c-1.792969 1.03125-4.066407.628907-5.394531-.957031-1.328126-1.582031-1.332032-3.890625-.007813-5.476562l16.257813-19.414063-10.855469 6.261719c-1.808594 1.039062-4.101563.617187-5.421875-.996094-1.320313-1.613281-1.285156-3.945312.089844-5.515625l5.863281-6.628906-.53125.300781c-1.628907.953125-3.691407.722656-5.070313-.566406-1.378906-1.292969-1.746094-3.335938-.902344-5.023438l8.132813-16.335937c-.246094-.253907-.460937-.539063-.632813-.851563-1.175781-2.039062-.476562-4.648437 1.5625-5.828125l4.472657-2.558593c1.628906-.957032 3.691406-.726563 5.070312.5625 1.378907 1.292968 1.746094 3.335937.902344 5.023437l-5.53125 11.09375 10.949219-6.238281c1.8125-1.046875 4.113281-.625 5.441406.992187 1.324219 1.621094 1.277344 3.960938-.109375 5.527344l-5.84375 6.605469 9.042969-5.238282c1.792968-1.042968 4.078125-.644531 5.410156.941407 1.335938 1.589843 1.335938 3.90625 0 5.492187l-16.261719 19.421875 23.945313-13.824219c1.871094-1.144531 4.304687-.683593 5.628906 1.066407 1.324219 1.753906 1.101562 4.222656-.511719 5.710937l-19.257812 18.429688 25.515625-14.753906c1.910156-1.09375 4.339844-.550782 5.609375 1.253906 1.265625 1.804687.949219 4.273437-.730469 5.703125l-19.414062 16.367187 24.507812-14.140625c1.902344-1.089843 4.324219-.5625 5.597656 1.222657 1.273438 1.785156.984375 4.246093-.664062 5.6875l-32.597656 28.289062 40.515624-23.390625c1.96875-1.109375 4.460938-.496094 5.6875 1.402344 1.222657 1.898437.753907 4.425781-1.070312 5.757812l-8.082031 5.785157 10.777343-6.21875c1.960938-1.125 4.453126-.527344 5.691407 1.363281 1.238281 1.886719.789062 4.414062-1.023438 5.761719l-24.582031 18.148437 29.097656-16.792969c1.941406-1.09375 4.402344-.507812 5.640625 1.347656 1.238281 1.855469.839844 4.347657-.914062 5.726563l-44.679688 34.371094 52.257813-30.164063c1.984375-1.117187 4.496094-.476562 5.707031 1.449219 1.207031 1.929687.691406 4.46875-1.175781 5.769531l-11.496094 7.816406 14.320312-8.269531c1.960938-1.121093 4.453126-.523437 5.691407 1.367188 1.234375 1.886719.789062 4.410156-1.023438 5.757812l-54.230469 40.046875 61.960938-35.769531c1.980469-1.175781 4.539062-.566406 5.777344 1.375 1.238281 1.945313.710937 4.519531-1.195313 5.816406l-46.25 32.292969 51.976563-30.011719c2.003906-1.199219 4.597656-.566406 5.824218 1.417969 1.226563 1.988281.625 4.589844-1.34375 5.84375l-14.054687 9.230469 16.914063-9.761719c1.988281-1.097656 4.492187-.441406 5.6875 1.488281 1.199218 1.933594.671874 4.464844-1.199219 5.757813l-32.828125 21.828125 36.820312-21.238281c2.003906-1.140626 4.550782-.484376 5.753906 1.484374 1.199219 1.964844.621094 4.53125-1.308593 5.792969l-13.046875 8.449219 15.796875-9.113281c1.972656-1.09375 4.453125-.460938 5.664062 1.441406 1.210938 1.902344.734375 4.417969-1.089843 5.742187l-78.804688 54.945313 87.105469-50.3125c2-1.15625 4.554687-.515625 5.769531 1.445313 1.214844 1.964843.648438 4.539062-1.28125 5.808593l-57.25 37.878907 62.609375-36.113282c2-1.054687 4.472656-.367187 5.644531 1.5625 1.167969 1.933594.628906 4.445313-1.230468 5.726563l-12.460938 7.917969 15.105469-8.710938c2.003906-1.105469 4.523437-.429688 5.707031 1.53125 1.183594 1.957031.613281 4.5-1.296875 5.765625l-6.109375 3.855469 8.535156-4.90625c2.007813-1.148438 4.566406-.484375 5.765625 1.492187 1.199219 1.980469.601563 4.554688-1.347656 5.804688l-29.804687 18.898437 23.191406-13.378906c2.011718-1.125 4.550781-.453125 5.742187 1.519531 1.1875 1.972657.597657 4.535157-1.339843 5.785157l-30.429688 19.140624c1.648438.386719 2.910156 1.710938 3.21875 3.375.308594 1.664063-.394531 3.351563-1.792969 4.304688l-71.722656 48.886719 17.160156-9.90625c1.988281-1.132813 4.515625-.496094 5.730469 1.441406 1.214844 1.941406.679688 4.492187-1.207031 5.785156l-34.074219 23.039063c1.460938.53125 2.515625 1.8125 2.757812 3.34375.242188 1.53125-.363281 3.074218-1.585937 4.03125l-45.910156 36.011718c1.039062.90625 1.574219 2.257813 1.441406 3.628907-.132813 1.371093-.921875 2.59375-2.117187 3.28125l-31.128907 17.921875c-.640625.394531-1.378906.609375-2.132812.621094zm0 0" fill="#457393"/><path d="m254.226562 230.976562c-1.792968 0-3.394531-1.125-4.007812-2.808593-.613281-1.683594-.105469-3.574219 1.269531-4.726563l37.828125-31.683594-50.527344 29.167969c-1.964843 1.070313-4.425781.441407-5.636718-1.445312-1.207032-1.886719-.75-4.386719 1.046875-5.722657l72.855469-51.5-81.117188 46.839844c-1.984375 1.085938-4.472656.429688-5.667969-1.492187-1.195312-1.921875-.679687-4.441407 1.171875-5.742188l106.019532-70.574219-114.347657 66.015626c-2.019531 1.214843-4.644531.5625-5.859375-1.453126-1.214844-2.019531-.5625-4.644531 1.457032-5.859374l64.628906-40.441407-68.886719 39.765625c-2.011719 1.058594-4.496094.359375-5.65625-1.589844-1.164063-1.949218-.59375-4.46875 1.292969-5.730468l26.503906-16.324219-29.40625 16.972656c-2 1.101563-4.507812.429688-5.699219-1.519531-1.1875-1.945312-.628906-4.484375 1.265625-5.757812l113.636719-72.75-120.550781 69.589843c-2.003906 1.164063-4.570313.519531-5.78125-1.457031-1.210938-1.972656-.625-4.554688 1.320312-5.8125l112.910156-73.25-120.429687 69.519531c-2.007813 1.074219-4.503906.382813-5.671875-1.570312s-.597656-4.480469 1.292969-5.742188l19.984375-12.414062-22.765625 13.140625c-2.019531 1.214844-4.640625.5625-5.859375-1.457032-1.214844-2.019531-.5625-4.640624 1.457031-5.855468l33.679687-21.121094-36.984374 21.332031c-1.996094 1.117188-4.519532.457031-5.71875-1.496093-1.195313-1.949219-.636719-4.5 1.265624-5.773438l75.007813-48.640625-80.714844 46.601563c-1.992187 1.15625-4.542969.519531-5.761719-1.433594s-.667968-4.519532 1.246094-5.800782l85.195313-57.03125-92.492188 53.394532c-1.980469 1.132812-4.507812.503906-5.726562-1.429688-1.21875-1.929687-.699219-4.480468 1.179687-5.78125l81.605469-56.046875-89.601563 51.730469c-1.988281 1.113281-4.503906.46875-5.707031-1.46875-1.207031-1.933594-.675781-4.476562 1.203125-5.769531l53.597656-35.984375-59.035156 34.082031c-1.992187 1.261719-4.628906.667969-5.886718-1.324219-1.261719-1.988281-.667969-4.625 1.320312-5.886718l55.289062-38.332032-61.601562 35.558594c-1.996094 1.1875-4.578125.558594-5.804688-1.414062-1.226562-1.972657-.648437-4.5625 1.296876-5.832032l18.707031-12.429687-21.878907 12.628906c-1.984374 1.042969-4.441406.375-5.621093-1.535156-1.179688-1.910157-.675781-4.40625 1.148437-5.710938l10.105469-6.734375-12.800781 7.375c-1.957032 1.113282-4.441406.511719-5.675782-1.367187-1.234374-1.878907-.796874-4.394531 1-5.75l39.183594-29.011719-45.347656 26.152344c-1.980469 1.101562-4.476562.464844-5.683594-1.453125-1.207031-1.917969-.703125-4.445313 1.144532-5.757813l.488281-.332031-2.5625 1.46875c-1.96875 1.125-4.476563.507813-5.703125-1.398437-1.226563-1.910157-.746094-4.445313 1.097656-5.769532l7.160156-5.121094-9.765625 5.632813c-1.878906 1.0625-4.253906.550781-5.535156-1.1875-1.277344-1.742187-1.054687-4.164063.519531-5.640625l26.769532-24.523438-34.332032 19.824219c-1.925781 1.109375-4.386718.550781-5.644531-1.285156-1.261719-1.835937-.898437-4.332031.832031-5.730469l6.410156-5.199218-9.132812 5.277343c-1.871094 1.078125-4.253906.589844-5.550781-1.140625-1.292969-1.730468-1.089844-4.15625.476562-5.644531l7.996094-7.613281-11.402344 6.589844c-1.800781 1.027343-4.082031.605468-5.402343-.992188-1.320313-1.601562-1.300782-3.917969.050781-5.496094l4.636719-5.367187-7.484376 4.320312c-1.667968.953125-3.769531.675781-5.132812-.683593-1.359375-1.355469-1.644531-3.457032-.695312-5.128907l1.125-1.953125-2.304688 1.320313c-2.023438 1.0625-4.527344.335937-5.671875-1.644531-1.144531-1.980469-.523437-4.507813 1.40625-5.734376l16.058594-9.269531c1.660156-.96875 3.769531-.691406 5.121093.675781 1.351563 1.359376 1.632813 3.453126.683594 5.121094l-1.128906 1.945313 15.667969-8.988281c1.800781-1.027344 4.082031-.609376 5.402343.988281 1.320313 1.597656 1.304688 3.914062-.042968 5.488281l-4.640625 5.371094 20.53125-11.847656c1.882812-1.1875 4.367187-.722657 5.695312 1.066406 1.332031 1.789062 1.0625 4.296875-.621093 5.761718l-7.992188 7.601563 24.925781-14.429687c1.925781-1.101563 4.375-.546876 5.636719 1.285156 1.257812 1.828125.902344 4.316406-.816406 5.722656l-6.410156 5.1875 21.136718-12.195312c1.882813-1.058594 4.257813-.550782 5.539063 1.191406 1.277343 1.738281 1.054687 4.160156-.519531 5.636718l-26.726563 24.535157 54.332031-31.363281c1.96875-1.121094 4.476563-.507813 5.703125 1.402343 1.226563 1.90625.746094 4.441407-1.097656 5.765625l-7.148437 5.078125 21.230468-12.246093c1.980469-1.101563 4.476563-.460938 5.683594 1.457031s.707031 4.445312-1.144531 5.753906l-.453125.308594 13.039062-7.519531c1.957032-1.109376 4.441406-.511719 5.675782 1.367187 1.234374 1.882813.796874 4.398437-1 5.75l-39.199219 29.015625 62.660156-36.132812c1.984375-1.082032 4.472656-.429688 5.667969 1.496093 1.195312 1.921875.679687 4.441407-1.171875 5.742188l-9.992188 6.664062 24.097657-13.902343c1.988281-1.113282 4.503906-.46875 5.707031 1.46875 1.207031 1.933593.675781 4.476562-1.203125 5.769531l-18.773438 12.484375 34.136719-19.722656c1.972656-1.101563 4.46875-.472657 5.683594 1.441406 1.210937 1.910156.71875 4.4375-1.121094 5.753906l-55.292969 38.347656 78.914063-45.542968c1.984375-1.070313 4.457031-.414063 5.652343 1.496093 1.191407 1.914063.6875 4.425781-1.144531 5.734375l-53.601562 35.984375 74.875-43.214843c1.976562-1.085938 4.457031-.449219 5.664062 1.460937s.714844 4.425781-1.117187 5.742187l-81.597656 56.039063 109.535156-63.242187c1.984375-1.070313 4.457031-.414063 5.652344 1.496093 1.191406 1.914063.6875 4.425781-1.148438 5.734375l-85.160156 57.011719 111.273437-64.242187c2.003907-1.164063 4.570313-.515626 5.78125 1.457031 1.210938 1.976562.628907 4.554687-1.316406 5.816406l-75.09375 48.699219 96.988281-55.972656c2.011719-1.125 4.550782-.453126 5.742188 1.519531 1.1875 1.972656.597656 4.535156-1.339844 5.785156l-33.585938 21.0625 49.144532-28.367187c2.007812-1.070313 4.5-.378907 5.671875 1.574218 1.167969 1.953125.597656 4.476563-1.296875 5.742188l-19.976563 12.390625 34.1875-19.707031c1.996094-1.113282 4.523438-.457032 5.71875 1.496093 1.195313 1.953125.636719 4.503907-1.265625 5.777344l-112.972656 73.265625 139.554688-80.539062c2-1.097657 4.511718-.429688 5.699218 1.519531s.632813 4.488281-1.261718 5.761719l-113.570313 72.679687 128.851563-74.386719c2.011718-1.089844 4.527343-.402344 5.699218 1.5625s.585938 4.507813-1.328125 5.757813l-26.617187 16.394531 16.15625-9.328125c1.304687-.785156 2.929687-.816406 4.265625-.078125 1.335937.738281 2.171875 2.132812 2.203125 3.65625.027344 1.523438-.761719 2.949219-2.066406 3.734375l-64.613282 40.421875 22.484375-12.96875c1.984375-1.085938 4.472657-.429688 5.667969 1.492188 1.195312 1.921874.679688 4.441406-1.171875 5.742187l-105.976563 70.539063 45.6875-26.378907c1.972657-1.105469 4.464844-.484375 5.683594 1.421875s.742188 4.429688-1.089844 5.753906l-72.859374 51.492188 12.3125-7.109375c1.921874-1.144531 4.398437-.613281 5.683593 1.21875 1.28125 1.832031.929688 4.339844-.800781 5.753906l-56.183594 47.035157.058594.113281c1.179688 2.035156.484375 4.644531-1.550781 5.828125l-18.355469 10.597656c-.644531.375-1.375.570312-2.117188.570312zm0 0" fill="#5e8faa"/><path d="m290.542969 204.269531c-1.929688 0-3.621094-1.300781-4.121094-3.164062-.5-1.867188.316406-3.832031 1.988281-4.800781l8.628906-4.972657c1.320313-.761719 2.949219-.761719 4.269532 0 1.320312.765625 2.132812 2.175781 2.132812 3.699219 0 1.527344-.816406 2.9375-2.136718 3.699219l-8.628907 4.972656c-.648437.371094-1.382812.566406-2.132812.566406zm0 0" fill="#365972"/><path d="m58.136719 385.082031c-1.902344 0-3.574219-1.261719-4.097657-3.09375-.527343-1.828125.222657-3.785156 1.839844-4.792969l51.199219-31.949218-67.023437 38.707031c-2.007813 1.230469-4.636719.597656-5.863282-1.410156-1.230468-2.011719-.597656-4.636719 1.410156-5.867188l131.644532-85.265625-146.773438 84.726563c-2.015625 1.222656-4.640625.582031-5.863281-1.433594s-.582031-4.636719 1.433594-5.863281l65.554687-41.8125-26.515625 15.34375c-1.980469 1.101562-4.476562.460937-5.683593-1.457032-1.207032-1.917968-.703126-4.445312 1.144531-5.753906l89.386719-61.261718-28.226563 16.300781c-1.960937 1.132812-4.46875.535156-5.707031-1.363281-1.238282-1.894532-.78125-4.429688 1.046875-5.769532l53.554687-39.253906c-1.78125 0-3.378906-1.113281-4-2.785156-.617187-1.671875-.132812-3.554688 1.21875-4.71875l41.113282-35.460938c-.230469-1.71875.597656-3.402344 2.101562-4.269531l8.804688-5.117187c1.90625-1.101563 4.335937-.566407 5.609374 1.226562 1.273438 1.796875.972657 4.265625-.695312 5.699219l-17.117188 14.773437 21.980469-12.691406c1.964844-1.132812 4.46875-.535156 5.707031 1.363281 1.238282 1.898438.78125 4.429688-1.046874 5.773438l-49.390626 36.238281 56.457032-32.597656c1.980468-1.097656 4.476562-.460938 5.683594 1.457031 1.207031 1.917969.707031 4.445313-1.144532 5.753906l-89.394531 61.269531 99.242187-57.292968c2.015626-1.222656 4.640626-.578125 5.863282 1.433594 1.222656 2.015624.582031 4.640624-1.433594 5.863281l-65.585938 41.8125 122.640626-70.824219c2.007812-1.230469 4.636718-.597656 5.867187 1.410156 1.226563 2.011719.597656 4.636719-1.414063 5.867188l-131.601562 85.273437 139.945312-80.800781c2.015626-1.164062 4.59375-.496094 5.789063 1.5 1.199219 1.992188.578125 4.578125-1.394531 5.8125l-51.25 31.964844 55.023437-31.769532c2.011719-1.230468 4.636719-.597656 5.867188 1.414063 1.230469 2.007813.597656 4.636719-1.414063 5.867187l-100.574218 65.058594 107.359374-61.980468c2-1.097657 4.511719-.429688 5.699219 1.519531s.632813 4.488281-1.261719 5.761719l-81.59375 52.617187 87.414063-50.46875c1.984375-1.070313 4.457031-.417969 5.648437 1.496094 1.195313 1.914062.691407 4.425781-1.144531 5.734375l-99.695312 66.867187 108.007812-62.363281c1.996094-1.160156 4.554688-.515625 5.769531 1.445312 1.214844 1.964844.648438 4.535157-1.28125 5.808594l-74.855468 49.644532 81.238281-46.933594c2.011719-1.226563 4.636719-.597656 5.867187 1.414062 1.230469 2.011719.597657 4.636719-1.414062 5.867188l-36.503906 23.59375 40.320312-23.269532c1.988282-1.058593 4.457032-.386718 5.636719 1.53125 1.179687 1.917969.664063 4.421876-1.175781 5.722657l-37.628906 24.644531 41.691406-24.066406c1.992187-1.152344 4.542968-.519532 5.761718 1.433594 1.21875 1.953124.667969 4.523437-1.246093 5.804687l-45.03125 30.273437 49.945312-28.816406c1.988281-1.082031 4.476563-.429687 5.667969 1.492188 1.195312 1.925781.683594 4.445312-1.171875 5.746094l-25.777344 17.152343 29.371094-16.949219c1.976563-1.0625 4.4375-.417968 5.632813 1.480469 1.199218 1.898438.71875 4.398438-1.09375 5.722657l-31.53125 21.625 35.84375-20.695313c1.960937-1.132813 4.464843-.535156 5.703124 1.363281 1.242188 1.894532.78125 4.429688-1.046874 5.769532l-41.019532 30.148437 47.242188-27.304687c1.960937-1.105469 4.441406-.5 5.671875 1.386718 1.226562 1.882813.78125 4.398438-1.023438 5.746094l-25.957031 18.945312 30.523438-17.605468c1.898437-1.066406 4.292968-.535156 5.5625 1.234375 1.265624 1.769531 1 4.207031-.621094 5.660156l-32.921875 28.84375 41.078125-23.707031c1.953125-1.101563 4.425781-.503906 5.660156 1.367187 1.234375 1.875.808594 4.382813-.972656 5.742188l-3.414063 2.558593 5.632813-3.25c1.804687-1.039062 4.09375-.621093 5.417968.984376 1.324219 1.609374 1.296876 3.9375-.070312 5.507812l-17.21875 19.808594 24.859375-14.355469c1.632813-.960937 3.703125-.734375 5.085937.5625 1.382813 1.300781 1.746094 3.355469.886719 5.046875l-7.179687 14.34375 14.125-8.148438c1.320312-.84375 3-.890624 4.367187-.125 1.371094.761719 2.207031 2.214844 2.1875 3.78125-.019531 1.566407-.898437 2.996094-2.289062 3.722657l-26.453125 15.265625c-1.632813.960937-3.699219.730468-5.082032-.5625-1.378906-1.292969-1.742187-3.34375-.890624-5.035156l7.203124-14.386719-34.585937 19.996093c-1.804687 1.023438-4.082031.605469-5.402344-.992187-1.320312-1.601563-1.300781-3.921875.050781-5.496094l17.210938-19.8125-45.558594 26.300781c-1.953125 1.125-4.449218.535157-5.691406-1.347656-1.246094-1.882812-.808594-4.40625 1-5.761718l3.410156-2.5625-16.722656 9.671874c-1.898438 1.066407-4.292969.535157-5.5625-1.234374-1.265625-1.769532-1-4.210938.621094-5.664063l32.921875-28.839844-61.917969 35.738281c-1.964844 1.132813-4.472656.53125-5.710938-1.367187-1.238281-1.902344-.773437-4.4375 1.058594-5.777344l25.960938-18.945312-45.226563 26.089843c-1.964843 1.132813-4.46875.539063-5.710937-1.359374-1.242188-1.898438-.78125-4.4375 1.050781-5.777344l40.960937-30.121094-64.480468 37.257812c-1.972656 1.0625-4.4375.414063-5.632813-1.484374-1.195312-1.894532-.71875-4.398438 1.09375-5.71875l31.523438-21.617188-49.921875 28.820312c-1.984375 1.082032-4.472656.425782-5.667969-1.496093s-.679687-4.441407 1.171875-5.742188l25.832031-17.195312-42.328125 24.433593c-1.984375 1.097657-4.484375.449219-5.683594-1.472656-1.203124-1.925781-.6875-4.457031 1.171876-5.757812l45.011718-30.242188-64.914062 37.472656c-1.988282 1.054688-4.457032.382813-5.636719-1.535156-1.179687-1.917968-.664063-4.421875 1.175781-5.71875l37.621094-24.644531-55.25 31.898437c-1.996094 1.082032-4.492188.410157-5.675781-1.527343-1.1875-1.9375-.644531-4.460938 1.226562-5.746094l36.523438-23.617187-53.503907 30.890624c-1.992187 1.132813-4.523437.488282-5.734374-1.460937-1.207032-1.949219-.664063-4.503906 1.238281-5.785156l74.84375-49.648438-98.542969 56.894531c-1.984375 1.097657-4.480469.449219-5.683594-1.472656-1.203125-1.925781-.6875-4.457031 1.171875-5.757812l99.703125-66.910156-128.417968 74.140624c-1.992188 1.054688-4.464844.375-5.640626-1.550781-1.175781-1.925781-.648437-4.429687 1.203126-5.722656l81.648437-52.648437-103.800781 59.921874c-1.996094 1.082032-4.492188.410157-5.675782-1.527343-1.183593-1.9375-.644531-4.460938 1.230469-5.746094l100.605469-65.03125-125.234375 72.304687c-.652344.390626-1.398437.597657-2.160156.605469zm0 0" fill="#365972"/><path d="m488.515625 373.082031c-1.578125 0-3.023437-.871093-3.765625-2.265625-.738281-1.394531-.648438-3.082031.234375-4.390625l1.332031-1.945312-2.714844 1.554687c-1.824218 1.046875-4.136718.609375-5.453124-1.03125-1.316407-1.640625-1.238282-3.996094.179687-5.550781l.800781-.851563-2.226562 1.289063c-1.777344 1.027344-4.035156.640625-5.371094-.917969s-1.375-3.847656-.089844-5.449218l12.152344-15.128907-18.457031 10.660157c-1.820313 1.035156-4.125.59375-5.4375-1.039063-1.3125-1.636719-1.242188-3.980469.164062-5.535156l19.421875-21.152344-27.222656 15.703125c-1.921875 1.113281-4.378906.5625-5.644531-1.261719-1.265625-1.828125-.917969-4.320312.796875-5.730469l11.949218-9.847656-15.589843 9.003906c-1.878907 1.007813-4.210938.476563-5.464844-1.242187-1.257813-1.722656-1.050781-4.105469.480469-5.585937l29.523437-26.640626-37.46875 21.632813c-1.945312 1.117187-4.421875.539063-5.667969-1.324219-1.25-1.867187-.839843-4.375.933594-5.75l21.691406-16.699218-26.300781 15.179687c-1.96875 1.113281-4.460937.5-5.6875-1.402344-1.222656-1.898437-.753906-4.421875 1.070313-5.753906l10.929687-7.820313-13.882812 8.015626c-1.972657 1.121093-4.480469.496093-5.703125-1.417969-1.21875-1.914063-.726563-4.449219 1.121094-5.769531l10.300781-7.226563-13.140625 7.585937c-1.945313 1.109376-4.410156.53125-5.660156-1.328124-1.246094-1.855469-.847657-4.359376.914062-5.738282l46.730469-36.09375-54.613281 31.574219c-1.949219 1.109375-4.425782.519531-5.667969-1.347656-1.238281-1.871094-.824219-4.378907.957031-5.746094l54.757812-41.410156-63.148437 36.460937c-1.988281 1.117188-4.503906.46875-5.707031-1.464844-1.207032-1.9375-.675782-4.476562 1.203125-5.769531l16.65625-11.171875-19.753907 11.402344c-1.96875 1.140625-4.488281.535156-5.722656-1.378906-1.238281-1.910156-.753906-4.457032 1.097656-5.78125l60.882813-43.75-68.5625 39.550781c-1.996094 1.082031-4.492187.414063-5.675781-1.523437s-.644532-4.464844 1.230468-5.746094l2.730469-1.777344-4.992187 2.886719c-1.984375 1.113281-4.496094.476562-5.707032-1.453125-1.210937-1.925782-.691406-4.464844 1.175782-5.765625l53.757812-36.558594-59.5 34.332031c-2.003906 1.136719-4.550781.480469-5.753906-1.484375-1.203125-1.96875-.625-4.535156 1.304688-5.796875l11.09375-7.152344-13.746094 7.929688c-1.996094 1.136719-4.535156.484375-5.742188-1.472656-1.203125-1.957032-.644531-4.515625 1.269532-5.789063l37.402343-24.429687-41.410156 23.890625c-2.003906 1.085937-4.503906.410156-5.683594-1.539063-1.179687-1.945312-.625-4.472656 1.261719-5.746094l7.152344-4.550781-9.585938 5.53125c-1.984375 1.152344-4.527344.527344-5.753906-1.417969-1.222656-1.945312-.683594-4.511718 1.214844-5.800781l88.355468-60.289062-96.5625 55.765625c-2.007812 1.101562-4.523437.425781-5.707031-1.53125-1.183593-1.957032-.613281-4.5 1.292969-5.765625l13.902344-8.789063-16.570313 9.566406c-1.996093 1.113282-4.515625.460938-5.714843-1.480468-1.199219-1.945313-.65625-4.488282 1.234374-5.773438l79.800782-52.539062-35.609375 20.554687c-1.976563 1.105469-4.46875.476563-5.683594-1.4375-1.210937-1.910156-.722656-4.4375 1.121094-5.753906l79.289062-55.175781-18.773437 10.851562c-1.953125 1.128906-4.449219.539063-5.691406-1.34375-1.242188-1.882812-.804688-4.410156 1-5.761718l53.757812-40.363282c-1.605469-.3125-2.894531-1.515625-3.3125-3.101562-.421875-1.582032.105469-3.265625 1.351562-4.332032l35.414063-30.378906c-.136719-1.648437.691406-3.226562 2.125-4.050781l8.371094-4.847656c1.910156-1.105469 4.34375-.570313 5.617187 1.230469 1.273438 1.800781.964844 4.273437-.710937 5.707031l-10.429688 8.976562 11.734375-6.777343c1.953125-1.125 4.449219-.539063 5.695313 1.347656 1.242187 1.882812.804687 4.40625-1 5.761718l-46.773438 35.089844 44.84375-25.882812c1.976563-1.101563 4.46875-.472656 5.683594 1.4375 1.210937 1.914062.722656 4.4375-1.117187 5.757812l-79.285157 55.183594 74.71875-43.136719c1.992188-1.082031 4.480469-.417969 5.671875 1.511719 1.1875 1.929688.660156 4.449219-1.199218 5.742188l-79.738282 52.488281 75.265625-43.46875c2.007813-1.125 4.550781-.453125 5.738281 1.519531 1.191407 1.972656.597657 4.535156-1.335937 5.785156l-13.960937 8.808594 9.523437-5.503906c1.988281-1.15625 4.53125-.527344 5.753906 1.417968 1.222657 1.945313.6875 4.507813-1.214843 5.800782l-88.300782 60.285156 83.820313-48.390625c2.011719-1.148437 4.570312-.484375 5.769531 1.492187 1.199219 1.980469.601562 4.554688-1.347656 5.804688l-7.132813 4.53125 2.710938-1.554688c1.996093-1.097656 4.503906-.4375 5.695312 1.503907 1.191407 1.941406.652344 4.476562-1.230469 5.757812l-37.410156 24.421875 32.921875-18.992187c2-1.101563 4.511719-.433594 5.699219 1.515625 1.1875 1.949218.632812 4.488281-1.261719 5.761718l-11.214843 7.21875 6.777343-3.90625c1.984375-1.117187 4.496094-.480468 5.703125 1.449219 1.210938 1.929688.695313 4.464844-1.171875 5.769531l-53.710937 36.53125 49.1875-28.347656c1.996094-1.085937 4.492187-.414062 5.675781 1.523438s.644531 4.460937-1.230469 5.746094l-3.8125 2.484374c2.003906-.757812 4.253906.089844 5.265625 1.976563s.464844 4.230469-1.273437 5.480469l-60.859375 43.734375 56.234375-32.429688c1.984375-1.070312 4.457031-.414062 5.652344 1.496094 1.191406 1.914063.6875 4.425781-1.144532 5.734375l-16.703125 11.195312 12.195313-7.03125c1.949218-1.085937 4.402344-.492187 5.636718 1.367188 1.230469 1.859375.824219 4.351562-.933593 5.722656l-54.75 41.386719 50.046875-28.875c1.941406-1.089844 4.390625-.503906 5.628906 1.34375s.851562 4.339844-.894531 5.71875l-46.726563 36.003906 41.96875-24.234375c1.972656-1.121094 4.480469-.5 5.699219 1.417969 1.222656 1.914063.730469 4.449219-1.117187 5.765625l-10.402344 7.296875 5.820312-3.355469c1.964844-1.109375 4.457032-.496094 5.683594 1.402344 1.222656 1.902344.753906 4.425781-1.070312 5.757812l-10.886719 7.792969 6.273437-3.617187c1.941406-1.09375 4.398438-.507813 5.636719 1.347656 1.242187 1.851562.84375 4.347656-.910156 5.726562l-21.660157 16.707032 16.957032-9.78125c1.875-1.003906 4.207031-.472656 5.464844 1.246094 1.253906 1.71875 1.050781 4.101562-.480469 5.582031l-29.570313 26.617187 24.585938-14.183594c1.917968-1.089843 4.351562-.535156 5.609375 1.277344 1.257812 1.8125.929687 4.285156-.761719 5.703125l-11.945312 9.847657 7.074218-4.078126c1.820313-1.039062 4.125-.597656 5.433594 1.035157 1.3125 1.636719 1.242188 3.980469-.160156 5.535156l-19.414063 21.152344 14.140625-8.15625c1.777344-1.019531 4.023438-.628907 5.355469.925781 1.335937 1.554688 1.375 3.839844.09375 5.4375l-12.148437 15.113281 6.699218-3.863281c1.824219-1.0625 4.152344-.625 5.472656 1.023438 1.316407 1.648437 1.234376 4.011718-.199218 5.5625l-3.234375 3.5c1.394531.285156 2.550781 1.25 3.089843 2.570312.535157 1.320312.378907 2.820312-.421874 4l-5.289063 7.808594c.285156.277344.53125.597656.726563.945312 1.171874 2.035156.476562 4.640625-1.554688 5.820313l-7.003906 4.078125c-.648438.375-1.386719.566406-2.136719.554687zm0 0" fill="#457393"/><g fill="#262626"><path d="m507.667969 209.636719v-170.667969c0-.144531-.105469-.230469-.121094-.367188-.015625-.136718.136719-.367187.101563-.5625-.820313-9.105468-4.433594-17.730468-10.339844-24.703124-.28125-.742188-.800782-1.363282-1.476563-1.769532-7.175781-4.539062-15.171875-7.625-23.535156-9.085937-1.199219-1.109375-2.804687-1.660157-4.429687-1.527344h-6.75c-11.890626-.605469-23.804688-.605469-35.695313 0h-339.882813c-12.125-.636719-24.277343-.636719-36.402343 0h-7.9375c-1.71875-.027344-3.382813.605469-4.648438 1.765625-8.433593 1.703125-16.46875 4.976562-23.691406 9.652344-.839844.539062-1.46875 1.351562-1.78125 2.304687-13.492187 17.945313-10.777344 37.066407-10.777344 58.65625v241.101563c0 21.476562-3.148437 41.890625 10.964844 59.734375.699219.863281 1.699219 1.433593 2.796875 1.59375 23.410156 13.910156 53.589844 8.925781 80.050781 8.925781h323.671875c26.8125 0 53.050782 3.976562 76.398438-10.828125.160156-.078125.316406-.164063.46875-.257813.085937-.050781.179687-.082031.265625-.144531.722656-.449219 1.359375-1.027343 1.875-1.707031l.042969-.042969c13.886718-17.527343 10.832031-37.460937 10.832031-58.570312zm-12.390625-168.382813v267.632813c0 18.109375 2.832031 37.769531-4.984375 54.160156l-87.101563-80.253906-68.394531-63.011719-.578125-.511719-28.792969-26.53125 55.007813-50.6875 129.269531-119.097656c3.664063 5.394531 5.609375 11.777344 5.574219 18.300781zm-459.300782-32.367187c1.171876.949219 2.660157 1.417969 4.164063 1.316406h423.785156c6.445313 1.179687 12.683594 3.308594 18.507813 6.3125l-163.089844 150.308594c-2.796875 2.558593-6.203125 6.066406-9.992188 10.015625l-16.648437 15.363281c-.132813.136719-.257813.28125-.375.433594-4.746094 4.4375-9.898437 10.367187-15.359375 15.625-6.015625 5.792969-13.648438 9.621093-21.890625 10.972656-6.398437-.574219-12.484375-3.035156-17.484375-7.074219-7.902344-6.441406-15.144531-15.359375-21.332031-21.117187-.09375-.113281-.078125-.230469-.195313-.335938l-19.628906-18.0625c-.621094-.597656-1.261719-1.230469-1.859375-1.777343l-97.585937-89.933594c-.273438-.246094-.785157-.671875-1.195313-1.023438l-73.046875-67.285156v-.074219c.292969-1.640625 5.164062-2.824219 13.226562-3.664062zm-23.199218 292.644531v-217.515625c0-18.355469-3.765625-42.496094 4.90625-60.246094l130.269531 120.066407c9.863281 9.085937 30.328125 32.492187 51.882813 52.90625l-180.769532 166.5c-10.019531-18.019532-6.289062-41.710938-6.289062-61.710938zm10.015625 70.894531 183.886719-169.4375c10.046874 9.59375 21.316406 17.824219 33.519531 24.472657.800781.402343 1.601562.761718 2.421875 1.09375 4.601562 2.320312 9.753906 3.324218 14.890625 2.898437 14.429687-2.3125 28.578125-18.773437 39.832031-30.71875l185.652344 171.085937c-17.542969 8.960938-38.398438 5.640626-57.652344 5.640626h-340.582031c-6.101563 0-59.152344 2.847656-61.96875-5.035157zm0 0"/><path d="m142.550781 52.902344h221.867188c7.148437 0 9.386719-9.28125 1.039062-9.28125h-221.867187c-7.148438 0-9.417969 9.28125-1.039063 9.28125zm0 0"/><path d="m362.316406 341.109375c3.652344 0 13.425782-5.4375 5.242188-5.4375h-221.867188c-3.652344 0-13.421875 5.4375-5.238281 5.4375zm0 0"/></g></svg>