<svg height="508pt" viewBox="0 -2 508.01381 508" width="508pt" xmlns="http://www.w3.org/2000/svg"><path d="m306.835938 281.945312c-1.929688 0-3.621094-1.296874-4.121094-3.164062-.5-1.863281.316406-3.832031 1.988281-4.796875l140.109375-80.890625c1.976562-1.085938 4.460938-.449219 5.664062 1.460938 1.207032 1.910156.714844 4.425781-1.117187 5.742187l-27.492187 18.925781 24.320312-13.992187c1.953125-1.144531 4.460938-.566407 5.710938 1.320312 1.253906 1.886719.8125 4.425781-1.003907 5.777344l-34.542969 26.078125 30.917969-17.84375c1.953125-1.117188 4.4375-.527344 5.679688 1.347656 1.242187 1.875.8125 4.394532-.976563 5.753906l-13.832031 10.402344 8.777344-5.050781c1.921875-1.09375 4.363281-.539063 5.621093 1.277344 1.257813 1.820312.917969 4.296875-.78125 5.710937l-8.535156 6.972656 2.613282-1.496093c1.882812-1.078125 4.269531-.570313 5.554687 1.175781 1.285156 1.742188 1.058594 4.175781-.527344 5.652344l-3.945312 3.617187c1.410156.097657 2.679687.886719 3.394531 2.105469.710938 1.21875.773438 2.710938.164062 3.988281l-3.8125 7.996094c1.207032.828125 1.902344 2.21875 1.847657 3.683594-.058594 1.460937-.863281 2.792969-2.128907 3.527343l-5.480468 3.15625c-1.617188.925782-3.648438.691407-5.015625-.574218-1.367188-1.265625-1.753907-3.269532-.957031-4.957032l1.953124-4.113281-16.671874 9.585938c-1.882813 1.074219-4.273438.570312-5.558594-1.175781-1.285156-1.742188-1.054688-4.175782.53125-5.652344l1.511718-1.390625-14.242187 8.21875c-1.921875 1.113281-4.378906.5625-5.644531-1.261719s-.917969-4.316406.796875-5.726562l8.535156-6.964844-24.21875 13.953125c-1.953125 1.117187-4.4375.527343-5.679687-1.347657-1.242188-1.875-.8125-4.394531.976562-5.753906l13.765625-10.367187-30.277344 17.46875c-1.953125 1.144531-4.460937.5625-5.714843-1.324219-1.25-1.886719-.808594-4.421875 1.003906-5.777344l34.570312-26.09375-57.507812 33.195313c-1.976563 1.085937-4.460938.449219-5.664063-1.460938-1.207031-1.90625-.714843-4.425781 1.117188-5.742187l27.484375-18.925782-47.027344 27.167969c-.648438.378907-1.382812.578125-2.132812.582031zm0 0" fill="#66d4f1"/><path d="m234.859375 451.441406c-1.792969 0-3.394531-1.117187-4.011719-2.800781-.617187-1.679687-.113281-3.570313 1.253906-4.726563l7.851563-6.644531-22.691406 13.097657c-1.957031 1.113281-4.4375.511718-5.675781-1.367188-1.234376-1.878906-.796876-4.394531 1-5.75l4.265624-3.183594-14.839843 8.535156c-1.957031 1.121094-4.453125.523438-5.6875-1.367187-1.238281-1.886719-.789063-4.410156 1.019531-5.757813l18.015625-13.3125-30.960937 17.875c-1.949219 1.121094-4.433594.53125-5.675782-1.34375-1.242187-1.875-.816406-4.394531.976563-5.753906l40.320312-30.320312-55.46875 32.035156c-1.976562 1.089844-4.460937.449219-5.664062-1.460938-1.207031-1.90625-.714844-4.425781 1.117187-5.742187l26.972656-18.542969-36.394531 21.007813c-1.988281 1.15625-4.53125.527343-5.753906-1.417969s-.6875-4.507812 1.214844-5.800781l36.992187-25.257813-45.96875 26.539063c-1.992187 1.097656-4.492187.445312-5.691406-1.488281-1.195312-1.933594-.667969-4.464844 1.203125-5.757813l27.828125-18.363281-35.117188 20.269531c-1.988281 1.132813-4.515624.492187-5.730468-1.445313-1.210938-1.941406-.679688-4.492187 1.207031-5.785156l56.875-38.5-65.707031 37.921875c-1.984375 1.070313-4.464844.40625-5.652344-1.515625-1.183594-1.917968-.671875-4.429687 1.171875-5.730468l51.441406-33.953126-57.6875 33.277344c-2.007812 1.128906-4.550781.453125-5.738281-1.519531s-.597656-4.53125 1.335938-5.785156l2.167968-1.363281-5.351562 3.082031c-2 1.066406-4.488282.382812-5.664063-1.558594-1.171875-1.945313-.617187-4.464844 1.261719-5.738281l162.722656-102.402344-171.316406 98.917969c-2.015625 1.21875-4.636719.574219-5.855469-1.445313-1.21875-2.015625-.570312-4.640625 1.445313-5.855468l174.703125-110.082032-182.402344 105.285156c-2.019531 1.214844-4.640625.5625-5.855469-1.457031-1.21875-2.019531-.566406-4.640625 1.453125-5.855469l172.304688-108.167968-178.667969 103.15625c-2.007812 1.089844-4.515625.402344-5.691406-1.550782-1.175782-1.953124-.605469-4.488281 1.296875-5.753906l169.53125-106.09375-174.480469 100.695313c-2.019531 1.09375-4.542969.398437-5.710938-1.578125-1.171874-1.972656-.566406-4.523438 1.367188-5.761719l28.449219-17.230469-29.621094 17.109375c-2.015625 1.117188-4.550781.429688-5.730469-1.550781-1.175781-1.980469-.570312-4.539062 1.371094-5.777344l78.457031-47.882812-79.574219 45.945312c-2.011718 1.089844-4.527343.398438-5.699218-1.566406s-.585938-4.503906 1.328125-5.753906l102.058593-62.585938-103.117187 59.527344c-2.007813 1.109375-4.535156.425781-5.714844-1.539062-1.179687-1.96875-.59375-4.519532 1.332031-5.773438l147.257813-91.40625-148.566406 85.765625c-2.015625 1.164063-4.589844.496094-5.785157-1.496094-1.199218-1.996093-.582031-4.582031 1.390626-5.816406l163.839843-102.398437-165.367187 95.46875c-2.011719 1.0625-4.503906.355468-5.664063-1.601563-1.15625-1.960937-.570312-4.484375 1.332031-5.734375l4.921876-2.980469-2.925782 1.707031c-2.015625 1.117188-4.554687.429688-5.730468-1.550781-1.179688-1.980469-.574219-4.539062 1.367187-5.777343l70.207031-42.882813-68.703125 39.640625c-2.023437 1.152344-4.59375.46875-5.78125-1.53125-1.1875-2.003906-.550781-4.585938 1.429688-5.808594l54.671875-33.28125-53.042969 30.574219c-2.007813 1.128906-4.550781.453125-5.738281-1.519531-1.191406-1.972656-.597656-4.53125 1.335937-5.785156l156.535157-98.371094-154.113282 88.976562c-2 1.070313-4.488281.386719-5.664062-1.558594-1.171875-1.941406-.617188-4.464843 1.261718-5.738281l155.476563-98.132812-153.035156 88.296875c-2.011719 1.105468-4.539063.425781-5.71875-1.542969-1.179688-1.96875-.589844-4.519531 1.332031-5.769531l94.019531-58.242188-89.703125 51.789063c-2.015625 1.136719-4.566406.457031-5.753906-1.527344s-.578125-4.554687 1.378906-5.792969l62.292969-38.402344-56.773437 32.769532c-2.011719 1.089844-4.523438.398437-5.699219-1.566406-1.171875-1.964844-.585938-4.503907 1.332031-5.753907l46.640625-28.65625-40.847656 23.535157c-2 1.117187-4.523438.457031-5.71875-1.496094-1.195313-1.953125-.640625-4.5 1.265625-5.773438l139.808594-90.507812-131.191407 75.761718c-2.015625 1.132813-4.570312.457032-5.757812-1.527343-1.1875-1.988281-.574219-4.558594 1.378906-5.796875l14.167969-8.703125-6.453125 3.730469c-2.007813 1.175781-4.589844.527343-5.800781-1.460938-1.210938-1.992188-.605469-4.582031 1.363281-5.828125l83.234375-53.253906-71.9375 41.53125c-1.996094 1.082031-4.488282.414062-5.671875-1.523438-1.1875-1.9375-.644531-4.464843 1.226562-5.75l71.945313-46.566406-58.640625 33.8125c-1.304688.785156-2.929688.820313-4.265625.082031-1.335938-.734375-2.175782-2.128906-2.207032-3.652344-.027343-1.523437.757813-2.949218 2.0625-3.734374l12.578126-7.953126c-1.746094.378907-3.542969-.382812-4.480469-1.902343-1.226563-1.945313-.695313-4.511719 1.203125-5.804688l50.636718-34.664062-25.542968 14.746093c-1.96875 1.125-4.472656.511719-5.703125-1.398437-1.226563-1.90625-.742188-4.441406 1.097656-5.769531l32.425781-23.097656c-1-.914063-1.503906-2.25-1.363281-3.59375.140625-1.347657.914063-2.546876 2.082031-3.234376l47.410156-27.375c1.96875-1.125 4.476563-.507812 5.703126 1.398438 1.226562 1.910156.746093 4.445312-1.097657 5.769531l-7.148437 5.121094 44.289062-25.617187c1.984375-1.152344 4.527344-.527344 5.75 1.417968 1.226563 1.945313.6875 4.507813-1.210937 5.800782l-50.679688 34.6875 79.691407-46.003907c2.003906-1.101562 4.523437-.425781 5.707031 1.53125 1.183593 1.960938.613281 4.503907-1.292969 5.765625l-8.160156 5.164063 21.941406-12.664063c2-1.140625 4.546875-.4843748 5.75 1.484375 1.203125 1.964844.625 4.53125-1.304688 5.792969l-71.851562 46.507812 89.011719-51.363281c2.003906-1.117187 4.535156-.453125 5.726562 1.511719 1.191407 1.960938.617188 4.515625-1.296875 5.777344l-83.296875 53.300781 98.894531-57.089844c2.015626-1.136719 4.570313-.457031 5.753907 1.527344 1.1875 1.984375.578125 4.554687-1.375 5.792969l-14.125 8.679687 22.007812-12.671875c2.003907-1.140625 4.550781-.484375 5.753907 1.484375 1.199218 1.96875.621093 4.53125-1.308594 5.792969l-139.800782 90.453125 156.613282-90.425781c2-1.007813 4.441406-.292969 5.585937 1.632812 1.144531 1.929688.601563 4.414063-1.242187 5.6875l-46.789063 28.828125 53.90625-31.113281c1.988281-.972656 4.386719-.261719 5.527344 1.636719 1.140625 1.898437.640625 4.351562-1.152344 5.648437l-62.097656 38.289063 69.378906-40.046875c2.007813-1.105469 4.535157-.425782 5.714844 1.542968 1.183594 1.96875.59375 4.519532-1.332031 5.773438l-94.171875 58.339844 101.675781-58.699219c2.007812-1.125 4.550781-.453125 5.738281 1.519531 1.191407 1.972656.597657 4.53125-1.335937 5.785156l-155.382813 98.140626 164.871094-95.207032c2.007813-1.085937 4.511719-.402344 5.6875 1.554688 1.175781 1.953125.609375 4.488281-1.292969 5.75l-156.542968 98.371094 165.546874-95.570313c2.023438-1.152344 4.59375-.472656 5.78125 1.53125 1.1875 2 .550782 4.585937-1.429687 5.804687l-54.613281 33.28125 57.589844-33.28125c1.3125-.777343 2.9375-.796874 4.269531-.050781 1.328125.746094 2.160156 2.144531 2.179687 3.667969.019532 1.523438-.777344 2.945312-2.085937 3.722656l-70.152344 42.847656 73.53125-42.445312c2.011719-1.0625 4.503906-.355469 5.664063 1.601562 1.15625 1.960938.570312 4.484376-1.332032 5.734376l-5.117187 3.074218 7.125-4.097656c2.003906-1.054688 4.480469-.363281 5.648437 1.578125 1.164063 1.941406.609375 4.457031-1.261718 5.726563l-163.839844 102.402343 168.839844-97.402343c2.015624-1.132813 4.566406-.457032 5.753906 1.53125 1.1875 1.984374.578125 4.554687-1.378906 5.792968l-147.171876 91.304688 151.148438-87.234375c1.3125-.78125 2.9375-.804688 4.269531-.058594 1.328125.742187 2.160157 2.140625 2.183594 3.664063.019531 1.523437-.773437 2.945312-2.082031 3.722656l-102.152344 62.636718 104.105469-60.109374c2.015625-1.113282 4.554687-.429688 5.730469 1.550781 1.179687 1.980469.574218 4.539062-1.371094 5.777343l-78.417969 47.863282 79.445313-45.863282c1.3125-.777343 2.9375-.792968 4.265624-.046874 1.328126.75 2.15625 2.152343 2.171876 3.675781.015624 1.523437-.78125 2.941406-2.09375 3.714843l-28.160157 17.070313 27.585938-15.925781c2.011719-1.125 4.550781-.453125 5.742187 1.519531 1.1875 1.972656.597656 4.535156-1.339844 5.785156l-169.574218 106.128907 171.46875-98.984376c2.007812-1.089843 4.511718-.40625 5.691406 1.550782 1.175781 1.953125.605469 4.488281-1.296875 5.753906l-172.371094 108.234375 173.226563-100.027344c2.015625-1.21875 4.640625-.570312 5.859375 1.445313 1.214843 2.019531.570312 4.640625-1.449219 5.859375l-174.71875 110.082031 174.769531-100.882812c2.007813-1.101563 4.523438-.425782 5.707031 1.53125 1.183594 1.957031.613282 4.5-1.292968 5.765624l-162.621094 102.339844 6.902344-3.984375c2.003906-1.070312 4.492187-.386719 5.664062 1.558594 1.175782 1.941406.621094 4.464844-1.257812 5.734375l-14.441406 9.089844h.0625c1.878906.003906 3.539062 1.238281 4.078124 3.042968.539063 1.800782-.164062 3.742188-1.734374 4.78125l-51.421876 33.9375 45.226563-26.121093c1.984375-1.085938 4.46875-.4375 5.667969 1.476562 1.199218 1.914063.699218 4.433594-1.144532 5.742188l-56.863281 38.503906 52.367188-30.234375c1.996093-1.15625 4.554687-.515625 5.769531 1.445312 1.214844 1.964844.648438 4.539063-1.28125 5.808594l-27.707031 18.347656 23.234375-13.414062c1.988281-1.15625 4.53125-.527344 5.753906 1.417969 1.222656 1.945312.6875 4.507812-1.210938 5.800781l-37.003906 25.257812 32.488282-18.773437c1.984374-1.132813 4.507812-.503906 5.726562 1.429687 1.21875 1.929688.699219 4.480469-1.179688 5.78125l-27.039062 18.585938 22.507812-12.996094c1.953126-1.117187 4.4375-.53125 5.679688 1.347656 1.242188 1.875.816406 4.390626-.976562 5.75l-40.269532 30.320313 35.617188-20.566406c1.960937-1.121094 4.453125-.523438 5.691406 1.367187 1.238281 1.886719.789062 4.410156-1.023438 5.757813l-18.019531 13.304687 13.371094-7.679687c1.957031-1.113281 4.4375-.515625 5.671875 1.367187 1.238281 1.878906.800781 4.394532-.996094 5.75l-4.359375 3.242188c1.9375-.933594 4.265625-.28125 5.433594 1.527344 1.167969 1.804687.808594 4.195312-.835937 5.582031l-7.894532 6.679687 3.023438-1.707031c1.847656-1.015625 4.164062-.527344 5.445312 1.152344 1.28125 1.675781 1.140625 4.039062-.328125 5.554687l-2.761719 2.757813c1.878907.109375 3.464844 1.441406 3.902344 3.273437.433594 1.835938-.386718 3.738282-2.019531 4.679688l-23.890625 13.789062c-1.851562 1.015625-4.167969.527344-5.445312-1.148437-1.28125-1.679688-1.144532-4.042969.324218-5.558594l.851563-.851563-15.929688 9.1875c-.644531.347657-1.367187.519532-2.097656.496094zm0 0" fill="#66d4f1"/><path d="m220.1875 253.792969c-1.738281-.003907-3.300781-1.0625-3.949219-2.675781-.648437-1.609376-.253906-3.457032 1-4.664063l6.5-6.261719-11.894531 6.824219c-1.839844 1.050781-4.167969.59375-5.476562-1.074219-1.304688-1.664062-1.1875-4.039062.269531-5.570312l13.925781-14.457032-14.929688 8.660157c-1.746093 1.003906-3.957031.648437-5.300781-.851563-1.34375-1.496094-1.457031-3.730468-.273437-5.359375l10.113281-13.746093-.308594.167968c-2.027343 1.0625-4.527343.335938-5.671875-1.644531-1.144531-1.980469-.523437-4.507813 1.40625-5.734375l17.875-10.316406c1.75-1.011719 3.964844-.660156 5.3125.839844s1.460938 3.742187.269532 5.371093l-10.09375 13.746094 23.578124-13.601563c1.835938-1.046874 4.167969-.589843 5.472657 1.074219 1.304687 1.667969 1.191406 4.039063-.269531 5.574219l-13.953126 14.429688 16.011719-9.242188c1.867188-1.125 4.285157-.660156 5.601563 1.082031 1.316406 1.738281 1.109375 4.191407-.484375 5.6875l-6.542969 6.296875 1.707031-.992187c2.039063-1.15625 4.628907-.453125 5.804688 1.578125 1.171875 2.03125.484375 4.625-1.539063 5.8125l-32.015625 18.476562c-.652343.378906-1.390625.578125-2.144531.570313zm0 0" fill="#f4f6f8"/><path d="m349.066406 502.796875c-1.863281 0-3.515625-1.210937-4.074218-2.992187-.554688-1.785157.109374-3.71875 1.644531-4.78125l67.265625-46.6875-93.335938 53.855468c-1.988281 1.113282-4.503906.46875-5.707031-1.46875-1.207031-1.933594-.675781-4.476562 1.203125-5.769531l74.179688-49.585937-90.820313 52.460937c-1.992187 1.15625-4.542969.519531-5.761719-1.433594s-.667968-4.519531 1.246094-5.800781l96.300781-64.460938-104.296875 60.21875c-2.007812 1.234376-4.636718.601563-5.871094-1.40625-1.230468-2.011718-.601562-4.640624 1.410157-5.871093l77.234375-50.074219-77.40625 44.695312c-2.019532 1.21875-4.640625.566407-5.859375-1.453124-1.214844-2.019532-.5625-4.640626 1.457031-5.859376l15.921875-9.957031-12.390625 7.152344c-2.007812 1.226563-4.636719.597656-5.867188-1.414063-1.230468-2.011718-.597656-4.636718 1.414063-5.867187l83.183594-53.945313-78.730469 45.445313c-2.003906 1.105469-4.523438.429687-5.707031-1.53125-1.183594-1.957031-.613281-4.5 1.296875-5.761719l43.65625-27.632812-39.253906 22.648437c-2.007813 1.148438-4.566407.484375-5.765626-1.496093-1.199218-1.976563-.601562-4.550782 1.34375-5.800782l46.601563-29.59375-42.171875 24.335938c-2.003906 1.105468-4.523438.429687-5.707031-1.53125-1.183594-1.957032-.613281-4.5 1.296875-5.761719l34.839844-22.070313-30.429688 17.554688c-1.996094 1.054688-4.472656.371094-5.640625-1.5625-1.171875-1.933594-.632813-4.445312 1.230469-5.726562l26.027344-16.503907-21.617188 12.476563c-1.980469 1.101562-4.476562.464844-5.683594-1.453125-1.207031-1.917969-.703125-4.445313 1.144532-5.757813l80.65625-55.003906-76.082032 43.929688c-1.972656 1.136718-4.496094.523437-5.722656-1.394532-1.230469-1.917968-.734375-4.464844 1.121094-5.78125l67.601562-47.976562-63.042968 36.394531c-1.96875 1.113281-4.460938.496094-5.683594-1.402344-1.226563-1.898437-.757813-4.421875 1.066406-5.757812l43.648438-31.265625-39.03125 22.511718c-1.945313 1.101563-4.410157.511719-5.652344-1.347656-1.238282-1.859375-.832032-4.363281.933594-5.734375l33.714843-25.726562-29.011719 16.730469c-1.886718 1.148437-4.332031.667968-5.644531-1.101563-1.316406-1.773437-1.0625-4.253906.582031-5.722656l26.453126-25.070313-20.742188 11.945313c-1.828125 1.046875-4.148438.605469-5.460938-1.042969s-1.226562-4.007812.203126-5.554688l9.855468-10.554687c-1.777344-.292969-3.175781-1.671875-3.5-3.445313-.324218-1.769531.5-3.554687 2.058594-4.457031l19.6875-11.367187c1.824219-1.046875 4.144531-.601563 5.457031 1.042968 1.3125 1.648438 1.226563 4.007813-.203125 5.554688l-7.59375 8.132812 27.246094-15.667968c1.886719-1.164063 4.351562-.695313 5.671875 1.085937 1.320313 1.777344 1.058594 4.273438-.601563 5.742188l-26.453124 25.0625 55.203124-31.890625c1.945313-1.125 4.433594-.542969 5.679688 1.324218 1.25 1.871094.832031 4.390626-.953125 5.757813l-33.699219 25.710937 56.824219-32.792968c1.96875-1.113282 4.460937-.496094 5.683594 1.402344 1.226562 1.898437.757812 4.425781-1.066407 5.757812l-43.664062 31.238281 66.558594-38.398437c1.972656-1.136719 4.492187-.523438 5.722656 1.394531s.734375 4.464844-1.125 5.78125l-67.632812 48.007813 95.570312-55.183594c1.984375-1.101563 4.480469-.460938 5.6875 1.457031s.703125 4.445313-1.144531 5.753906l-80.597657 54.996094 102.484376-59.160156c2.003906-1.101563 4.523437-.425781 5.707031 1.53125 1.183593 1.957031.613281 4.5-1.296875 5.765625l-25.921875 16.425781 30.71875-17.742187c2.003906-1.101563 4.523437-.425782 5.707031 1.53125 1.183594 1.957031.613281 4.503906-1.292969 5.765624l-34.792969 22.074219 36.882813-21.332031c2.003906-1.121094 4.535156-.453125 5.726563 1.507812 1.191406 1.964844.617187 4.515626-1.300782 5.78125l-46.675781 29.660157 46.082031-26.582031c2.015625-1.21875 4.636719-.570313 5.855469 1.449218 1.21875 2.015625.570313 4.636719-1.445313 5.855469l-43.605468 27.605469 40.226562-23.21875c2-1.117188 4.523438-.457032 5.71875 1.496094 1.195313 1.953124.636719 4.5-1.265625 5.773437l-83.183593 53.949219 78.730468-45.449219c2.015625-1.160156 4.589844-.496094 5.789063 1.5 1.199219 1.992187.578125 4.578125-1.394531 5.8125l-15.921876 9.960937 11.519532-6.65625c1.300781-.796874 2.925781-.839843 4.265625-.109374 1.339843.726562 2.1875 2.113281 2.226562 3.636718.039063 1.527344-.738281 2.953125-2.039062 3.75l-77.234375 50.089844 72.78125-42.015625c1.988281-1.117187 4.503906-.46875 5.707031 1.464844 1.207031 1.9375.675781 4.476562-1.203125 5.769531l-96.316406 64.453125 91.8125-53c1.988281-1.117187 4.503906-.46875 5.707031 1.464844 1.207031 1.9375.675781 4.476562-1.203125 5.769531l-74.164062 49.578125 69.660156-40.214844c1.980468-1.15625 4.519531-.535156 5.75 1.402344 1.226562 1.9375.703125 4.5-1.1875 5.796875l-67.273438 46.6875 62.71875-36.207031c1.992188-1.152344 4.539063-.519531 5.757813 1.433593 1.21875 1.953126.667969 4.523438-1.242188 5.804688l-27.308593 18.371094 22.785156-13.148438c1.976562-1.15625 4.511718-.542968 5.746094 1.386719 1.234374 1.929687.722656 4.488281-1.15625 5.796875l-29.089844 20.480469 24.5-14.140625c1.953125-1.128906 4.449218-.539063 5.691406 1.34375 1.246094 1.882812.804688 4.410156-1 5.765625l-24.917969 18.652343 20.226563-11.671874c1.929687-1.132813 4.40625-.582032 5.675781 1.261718 1.265625 1.84375.894531 4.355469-.855469 5.75l-16.640625 13.5 11.785157-6.824218c1.796874-1.042969 4.082031-.636719 5.410156.953124 1.332031 1.59375 1.324218 3.914063-.015625 5.496094l-12.238281 14.4375c1.828124-.421875 3.71875.398438 4.660156 2.023438 1.175781 2.042968.476562 4.652344-1.5625 5.828125l-19.6875 11.394531c-1.796875 1.039062-4.078125.636719-5.410156-.957031-1.332032-1.59375-1.324219-3.914063.019531-5.496094l11.867187-14.011719-37.171875 21.4375c-1.925781 1.101563-4.375.546875-5.636719-1.285156-1.257812-1.828125-.902343-4.316406.816407-5.722656l16.648437-13.472656-35.539062 20.480468c-1.957032 1.125-4.449219.535156-5.695313-1.347656-1.242187-1.882812-.804687-4.40625 1-5.761719l24.925781-18.664062-44.652343 25.773437c-1.972657 1.105469-4.46875.484375-5.6875-1.421875s-.738281-4.429687 1.09375-5.757812l29.015625-20.480469-47.839844 27.660156c-1.984375 1.097656-4.484375.449219-5.683594-1.472656-1.203125-1.925781-.6875-4.457031 1.171875-5.757812l27.253907-18.34375-44.324219 25.597656c-.644531.378906-1.382813.578125-2.132813.582031zm0 0" fill="#35ba9b"/><g fill="#262626"><path d="m507.070312 310.292969c0-.128907-.09375-.195313-.101562-.324219s.128906-.375.09375-.582031c-5.300781-32.878907-29.011719-36.027344-56.738281-36.070313 3.238281-16.234375 5.089843-32.714844 5.539062-49.261718-.769531-38.125-11.285156-75.414063-30.550781-108.324219.578125-.578125.859375-1.386719.761719-2.199219-.097657-.8125-.558594-1.535156-1.257813-1.964844-.714844-.449218-1.539062-.703125-2.386718-.734375-19.671876-31.28125-46.683594-57.292969-78.6875-75.773437l.769531-1.332032c2.082031-3.601562-3.566407-4.019531-7.757813-2.6875-31.683594-17.039062-66.816406-26.6875-102.757812-28.21875v-.632812c0-1.152344-5.121094-.851562-8.789063.433594-37.140625-.265625-73.75 8.804687-106.472656 26.378906-3.316406-.257812-6.445313 1.578125-7.839844 4.597656-18.226562 10.796875-34.875 24.058594-49.476562 39.40625-10.976563 11.636719-20.644531 24.445313-28.824219 38.1875-.363281.179688-.710938.382813-1.042969.605469-1.324219 1.066406-2.066406 2.699219-1.988281 4.394531-18.957031 33.664063-29.007812 71.605469-29.199219 110.234375-.472656.589844-.496093 1.109375 0 1.425781-.085937 38.738282 10.015625 76.820313 29.292969 110.421876l.050781.09375c1.398438 2.421874 2.65625 4.898437 4.15625 7.277343 19.152344 30.484375 45.53125 55.765625 76.800781 73.601563.128907 1.246094 1.644532 1.800781 3.550782 1.886718 33.09375 17.992188 70.050781 27.714844 107.714844 28.328126 1.511718 3.882812 8.847656 3.21875 11.308593-.09375 12.492188-.324219 24.941407-1.585938 37.246094-3.769532 2.269531 29.71875 12.492187 54.824219 45.585937 56.769532 35.898438 2.117187 72.53125 0 108.507813 0 19.320313 0 43.835937 3.902343 61.542969-5.835938 28.554687-15.699219 20.984375-52.863281 20.984375-80.210938zm-239.445312 131.199219c-6.125 4.796874-19.855469 5.417968-33.542969 4.667968v-24.644531c0-6.503906-12.527343-4.703125-12.527343.921875v22.714844c-7.730469-.800782-14.59375-1.792969-18.945313-2.378906-27.789063-3.582032-54.601563-12.613282-78.898437-26.574219l11.714843-20.292969c2.996094-5.1875-9.386719-4.164062-11.550781-.441406l-8.9375 15.460937c-29.625-18.871093-54.390625-44.449219-72.292969-74.667969l18.917969-10.921874c1.816406-1.050782 3.507812-2.839844 1.230469-4.265626-2.28125-1.425781-6.769531.171876-8.714844 1.296876l-14.589844 8.421874c-3.203125-5.792968-6.179687-11.714843-8.84375-17.792968-11.660156-26.765625-17.765625-55.617188-17.945312-84.8125h14.832031c3.082031.101562 6.125-.714844 8.738281-2.347656 1.707031-1.253907 1.953125-2.558594-.699219-2.558594h-22.84375c.5-35.101563 9.128907-69.613282 25.207032-100.820313l15.171875 8.761719c2.828125 1.582031 6.328125 1.3125 8.882812-.679688 1.902344-1.511718 3.363281-5.042968.597657-6.640624l-19.335938-11.144532c17.074219-29.671875 40.992188-54.832031 69.761719-73.386718l11.007812 19.089843c2.6875 4.660157 14.503907.117188 11.332031-5.386719l-11.597656-20.121093c29.941406-16.777344 63.566406-25.898438 97.886719-26.546875v24.746094c0 1.777343 12.355469.105468 12.355469-3.308594v-21.316406c34.425781 1.636718 67.90625 11.804687 97.433594 29.585937l-11.238282 19.472656c-2.925781 5.058594 9.453125 3.90625 11.519532.3125l8.335937-14.4375c28.828125 19.125 52.996094 44.472657 70.734375 74.171875l-16.929688 9.769532c-2.101562 1.214843-3.226562 3.867187-.921874 5.421874 2.910156 1.1875 6.226562.8125 8.796874-1l12.894532-7.449218c17.09375 30.710937 26.878906 64.949218 28.601562 100.054687h-16.679687c-2.425781 0-6.945313.851563-8.183594 3.292969s1.046875 3.34375 3.265625 3.34375h21.839844c-.171875 7.78125-.699219 39.253906.5625 44.289062h-83.019532c-15.429687-1.382812-30.953124-1.285156-46.363281.296876-13.21875-.0625-25.746093 5.90625-34.023437 16.214843-5.625 8.585938-8.730469 18.574219-8.96875 28.835938-3.066406 25.027343-3.101563 50.335937-.101563 75.375-1.328125 15.292969-1.8125 30.644531-1.441406 45.992187-.90625.320313-1.75.804688-2.484375 1.425782zm227.074219 23.894531c-11.019531 43.886719-74.820313 29.789062-106.667969 29.789062-29.304688 0-90.964844 11.484375-101.992188-26.660156-2.1875-8.386719-3.304687-17.023437-3.328124-25.691406 1.367187-.667969 2.449218-1.578125 2.449218-2.886719v-65.277344c0-5.199218-.484375-11.613281-1.039062-18.542968-1.074219-22.230469-.855469-43.699219 14.140625-60.722657 15.359375-17.503906 17.464843-14.902343 38.089843-14.902343h55.46875c5.410157 0 11.800782-.355469 18.652344-.730469h30.679688c1.171875-.050781 2.335937-.226563 3.472656-.523438 24.089844 1.410157 46.078125 8.472657 50.089844 33.425781v80.214844c-.015625 22.117188 5.382812 50.96875-.015625 72.515625zm0 0"/><path d="m309.378906 225.992188c1.179688-1.375 2.296875-2.910157-.777344-2.910157h-49.160156c-.867187-13.625-11.75-24.46875-25.378906-25.285156v-100.625c0-6.1875-12.492188-4.148437-12.492188 1.074219v100.054687c-14.382812 2.023438-25.183593 14.160157-25.523437 28.679688-.210937 37.367187 57.242187 33.964843 62.953125 1.359375h41.632812c3.101563.273437 6.199219-.558594 8.746094-2.347656zm-84.675781 21.222656c-9.722656-3.339844-16.242187-12.496094-16.214844-22.777344-.464843-9.566406 5.808594-18.15625 15.0625-20.625 1.84375.761719 3.898438.835938 5.792969.214844.972656.140625 1.933594.363281 2.867188.664062 9.023437 3.792969 14.929687 12.582032 15.027343 22.367188-.859375 11.542968-9.070312 24.507812-22.535156 20.15625zm0 0"/><path d="m396.128906 385v-67.078125c0-3.703125-12.355468-1.425781-12.355468 3.308594v63.769531h-59.527344c-3.800782 0-13.390625 5.683594-5.171875 5.683594h64.671875v67.082031c0 3.703125 12.359375 1.414063 12.359375-3.3125v-63.769531h59.550781c3.796875 0 13.390625-5.683594 5.171875-5.683594zm0 0"/></g></svg>