<svg height="505pt" viewBox="-38 0 505 505.61821" width="505pt" xmlns="http://www.w3.org/2000/svg"><path d="m62.03125 502.472656c-1.914062.003906-3.59375-1.265625-4.113281-3.109375s.25-3.804687 1.886719-4.800781l65.808593-40.199219-82.355469 47.503907c-2.011718 1.089843-4.523437.402343-5.699218-1.5625-1.171875-1.964844-.585938-4.503907 1.332031-5.757813l105.972656-65.015625-119.023437 68.746094c-2.011719 1.160156-4.589844.492187-5.785156-1.5-1.199219-1.996094-.578126-4.582032 1.390624-5.816406l189.78125-118.613282-196.546874 113.460938c-2.023438 1.207031-4.644532.542968-5.847657-1.480469-1.207031-2.023437-.546875-4.644531 1.480469-5.851563l150.234375-92.5-147.746094 85.292969c-2.015625 1.09375-4.539062.398438-5.707031-1.578125-1.171875-1.976562-.566406-4.523437 1.367188-5.761718l31.527343-19.023438-27.1875 15.6875c-2.007812 1.042969-4.484375.335938-5.636719-1.609375-1.15625-1.949219-.585937-4.460937 1.296876-5.722656l87.933593-53.46875-83.625 48.253906c-2.023437 1.207031-4.644531.546875-5.851562-1.480469-1.207031-2.023437-.542969-4.640625 1.480469-5.847656l158.175781-97.511719-153.773438 88.746094c-2.007812 1.09375-4.523437.402344-5.695312-1.5625s-.585938-4.503906 1.328125-5.757813l148.890625-91.785156-144.523438 83.429688c-2.015625 1.097656-4.539062.402344-5.707031-1.574219-1.171875-1.976563-.566406-4.523437 1.367188-5.761719l28.160156-17.066406-23.820313 13.789062c-2 1.070313-4.488281.382813-5.664062-1.558593-1.171875-1.945313-.617188-4.464844 1.261719-5.738281l170.789062-107.417969-166.386719 96.050781c-2.003906 1.074219-4.5.382812-5.667969-1.570312-1.167968-1.953126-.601562-4.480469 1.292969-5.742188l110.933594-68.863281-106.566406 61.492187c-2.007813 1.148438-4.566407.484375-5.765625-1.496094-1.199219-1.976562-.601563-4.550781 1.347656-5.800781l141.652344-90.386719-137.234375 79.257813c-2.023438 1.207031-4.640625.542969-5.847657-1.480469-1.207031-2.023437-.542968-4.640625 1.480469-5.847656l37.238281-22.980469-32.871093 18.96875c-2.007813 1.070313-4.5.378907-5.667969-1.570312-1.171875-1.953125-.601562-4.480469 1.292969-5.742188l39.105469-24.296875-34.730469 20.054688c-2.003907 1.140625-4.550781.484375-5.75-1.484375-1.203125-1.964844-.625-4.53125 1.304687-5.792969l92.160156-59.460938-87.714843 50.621094c-1.988281 1.070313-4.464844.40625-5.652344-1.515625-1.1875-1.917969-.671875-4.429687 1.171875-5.730469l88.492188-58.445312-84.011719 48.503906c-2.015625 1.21875-4.640625.570313-5.855469-1.445312-1.21875-2.019532-.570312-4.640625 1.445312-5.859375l11.707032-7.40625-7.296875 4.207031c-1.984375 1.113281-4.492188.476562-5.703125-1.453125-1.210938-1.925781-.695313-4.464844 1.171875-5.765625l63.589843-43.1875-59.089843 34.132812c-1.96875 1.144532-4.484375.546876-5.726563-1.359374-1.242187-1.90625-.769531-4.449219 1.074219-5.785157l62.703125-45.753906-58.027344 33.511719c-1.953125 1.125-4.449218.539062-5.691406-1.347656-1.246094-1.882813-.808594-4.40625 1-5.761719l40.898438-30.660157-36.199219 20.878907c-1.9375 1.101562-4.398438.523437-5.644531-1.324219-1.246094-1.851562-.855469-4.347656.894531-5.730469l24.054687-18.773437-19.304687 11.09375c-1.910157 1.074218-4.328125.523437-5.585938-1.273438-1.257812-1.792968-.949219-4.253906.714844-5.683594l12.628906-10.597656-7.757812 4.472656c-1.769531 1.011719-4.003907.632813-5.339844-.90625-1.335937-1.539062-1.398437-3.808593-.144531-5.417968l9.128906-11.621094c-1.613281.113281-3.144531-.714844-3.933594-2.125-1.179687-2.042969-.480468-4.652344 1.5625-5.828125l16.492188-9.523437c1.769531-1.023438 4.015625-.648438 5.359375.894531 1.339843 1.542969 1.398437 3.820312.136719 5.429687l-8.378907 10.65625 30.582031-17.605468c1.914063-1.109376 4.363282-.574219 5.636719 1.238281 1.273438 1.808593.949219 4.292969-.746093 5.71875l-12.628907 10.597656 30.449219-17.554687c1.9375-1.101563 4.398438-.519532 5.644531 1.328124 1.246094 1.851563.855469 4.347657-.894531 5.730469l-24.054688 18.773438 44.730469-25.832031c1.957031-1.125 4.453125-.539063 5.695313 1.347656 1.242187 1.882812.804687 4.40625-1 5.761718l-40.902344 30.652344 65.425781-37.761718c1.964844-1.144532 4.484375-.546876 5.726563 1.359374 1.242187 1.90625.769531 4.449219-1.074219 5.785157l-62.679687 45.761719 91.617187-52.90625c1.984375-1.152344 4.527344-.523438 5.753906 1.421874 1.222657 1.941407.683594 4.507813-1.214843 5.796876l-63.625 43.128906 87.304687-50.347656c2.007813-1.148438 4.566406-.484376 5.765625 1.496093 1.199219 1.976563.601562 4.550781-1.347656 5.800781l-11.679688 7.390626 25.445313-14.6875c1.988281-1.070313 4.464843-.40625 5.652343 1.515624 1.1875 1.917969.671876 4.429688-1.171874 5.730469l-88.5 58.460938 113.816406-65.707031c2-1.117188 4.523437-.457032 5.722656 1.496093 1.195312 1.953125.636719 4.503907-1.265625 5.777344l-92.125 59.414063 115.566406-66.6875c2.007813-1.070313 4.5-.378907 5.671875 1.574218 1.167969 1.953125.597656 4.476563-1.296875 5.738282l-39.175781 24.332031 54.820312-31.644531c2.015626-1.132813 4.566407-.457032 5.753907 1.527343 1.1875 1.988281.578125 4.558594-1.378907 5.796875l-37.179687 22.945313 52.429687-30.269531c2.003907-1.117188 4.535157-.453126 5.726563 1.511718 1.195313 1.960938.621094 4.515625-1.296875 5.777344l-141.757812 90.402344 169.25-97.691406c2.011718-1.105469 4.539062-.425782 5.71875 1.542968 1.179687 1.96875.59375 4.519532-1.332032 5.769532l-110.710937 68.730468 131.761719-76.042968c2.003906-1.070313 4.492187-.382813 5.667968 1.558593 1.171875 1.945313.617188 4.464844-1.261718 5.738281l-170.855469 107.445313 196.105469-113.230469c2.027343-1.199218 4.644531-.527344 5.84375 1.5 1.199218 2.03125.527343 4.648438-1.5 5.847656l-28.316407 17.117188 33.28125-19.21875c2.015625-1.132812 4.570313-.457031 5.757813 1.53125 1.1875 1.984375.574218 4.554688-1.378906 5.792969l-148.824219 91.734375 151.410156-87.398438c2.011719-1.09375 4.523437-.402344 5.695313 1.5625 1.171874 1.964844.585937 4.503906-1.328126 5.757813l-158.15625 97.550781 155.179688-89.582031c2.007812-1.042969 4.484375-.335938 5.640625 1.609375 1.152344 1.949218.582031 4.460937-1.296875 5.722656l-87.894531 53.476562 83.625-48.253906c2.019531-1.097656 4.542969-.402344 5.710937 1.574219 1.171875 1.976563.566406 4.523437-1.367187 5.761719l-31.230469 18.84375 26.886719-15.515625c2.007812-1.058594 4.496093-.359375 5.65625 1.59375 1.160156 1.949219.59375 4.46875-1.292969 5.730469l-150.402344 92.558593 145.964844-84.273437c2.003906-1.058594 4.480469-.363282 5.648438 1.578125 1.164062 1.941406.609374 4.453125-1.261719 5.726562l-189.730469 118.605469 185.34375-107c2.015625-1.117188 4.550781-.429688 5.730469 1.550781 1.175781 1.980469.570312 4.539063-1.371094 5.777344l-106.019531 65.066406 101.660156-58.707031c2.011719-1.078125 4.515625-.378906 5.679688 1.582031 1.164062 1.964844.578124 4.496094-1.328126 5.746094l-65.851562 40.285156 61.5-35.503906c2-1.070313 4.488281-.386719 5.664062 1.558594 1.171876 1.941406.617188 4.464843-1.261718 5.734375l-145.492188 91.871094 141.097656-81.457032c2.007813-1.148437 4.566407-.488281 5.765626 1.492188 1.199218 1.980468.601562 4.554687-1.34375 5.800781l-128 81.367187 123.585937-71.355468c2.007813-1.148438 4.566406-.488282 5.765625 1.492187s.601562 4.554688-1.34375 5.804688l-105.679688 67.410156 101.257813-58.453125c1.996094-1.066406 4.480469-.390625 5.660156 1.546875 1.175781 1.933594.636719 4.453125-1.230469 5.734375l-84.832031 54.253906 80.410157-46.421875c2.011718-1.125 4.550781-.453125 5.742187 1.519531 1.1875 1.972657.597656 4.535157-1.335937 5.785157l-32.652344 20.539062 28.246094-16.296875c1.996093-1.097656 4.503906-.4375 5.695312 1.503906 1.191406 1.9375.648438 4.472657-1.230469 5.757813l-67.253906 43.945313 62.789063-36.25c2.003906-1.082032 4.5-.40625 5.683593 1.539062 1.179688 1.945312.625 4.476562-1.261719 5.75l-12.253906 7.800781 7.832032-4.515625c1.988281-1.132812 4.515624-.496094 5.730468 1.445313 1.214844 1.9375.679688 4.488281-1.207031 5.78125l-54.382813 36.875 49.84375-28.777344c1.96875-1.109375 4.460938-.496094 5.683594 1.402344 1.226563 1.902343.757813 4.425781-1.066406 5.757812l-51.601562 36.941407 46.984374-27.117188c1.960938-1.117188 4.457032-.511719 5.6875 1.382812 1.230469 1.894532.773438 4.417969-1.046874 5.757813l-31.863282 23.160156 27.222656-15.710937c1.917969-1.089844 4.351563-.535156 5.609376 1.277344 1.257812 1.8125.925781 4.285156-.761719 5.703124l-28.417969 23.40625 23.570312-13.59375c1.820313-1.035156 4.121094-.597656 5.433594 1.035157 1.3125 1.628906 1.25 3.972656-.152344 5.527343l-17.320312 19.011719 10.980469-6.332031c2.027343-1.058594 4.527343-.332031 5.671875 1.648438 1.144531 1.976562.523437 4.507812-1.40625 5.734374l-34.78125 20.078126c-1.820313 1.035156-4.121094.597656-5.433594-1.03125-1.3125-1.632813-1.25-3.972657.152344-5.53125l17.332031-19.035157-44.324219 25.597657c-1.917968 1.089843-4.351562.535156-5.609375-1.277344-1.257812-1.8125-.925781-4.285156.761719-5.703125l28.410156-23.398438-52.652344 30.378907c-1.960937 1.117187-4.457031.511718-5.6875-1.382813-1.230468-1.894531-.773437-4.417969 1.046876-5.757813l31.8125-23.144531-52.472657 30.285157c-1.96875 1.113281-4.460937.496093-5.683593-1.402344-1.226563-1.898438-.757813-4.421875 1.066406-5.757813l51.601562-36.949219-76.398437 44.109376c-1.980469 1.085937-4.46875.441406-5.667969-1.476563-1.199219-1.914063-.695312-4.433594 1.144531-5.742187l54.367188-36.878907-76.398438 44.097657c-2.003906 1.121093-4.535156.453124-5.730469-1.507813-1.191406-1.960937-.617187-4.515625 1.300782-5.777344l12.195312-7.757812-26.078125 15.042969c-1.996093 1.097656-4.503906.4375-5.695312-1.503907-1.191407-1.9375-.648438-4.472656 1.230469-5.757812l67.285156-43.9375-88.746094 51.199219c-2.003906 1.105468-4.523438.429687-5.707031-1.53125-1.183594-1.957032-.613281-4.5 1.296875-5.765626l32.585937-20.476562-48.152343 27.773438c-1.996094 1.070312-4.480469.390624-5.660157-1.542969-1.175781-1.933594-.636719-4.453125 1.230469-5.734375l84.804688-54.253906-106.597657 61.53125c-2.003906 1.121093-4.535156.453124-5.726562-1.507813-1.195313-1.960937-.621094-4.515625 1.296875-5.777344l105.710937-67.414062-129.390625 74.699219c-2 1.085937-4.5.410156-5.679687-1.539063-1.179688-1.945313-.625-4.472656 1.261719-5.746094l128-81.351562-153.566407 88.636719c-2.003906 1.070312-4.492187.386718-5.664062-1.558594-1.175781-1.941406-.621094-4.464844 1.257812-5.738282l145.527344-91.894531-171.84375 99.191407c-.644531.390624-1.386719.597656-2.140625.605468zm0 0" fill="#9ed26a"/><path d="m129.546875 169.921875c-28.765625 0-85.777344-11.402344-111.617187 6.417969-28.628907 19.761718-13.761719 98.398437-13.761719 126.703125 0 54.398437-6.527344 113.226562 0 167.25 4.632812 38.332031 38.484375 32.429687 67.992187 32.429687h197.121094c39.917969 0 85.90625 6.613282 125.363281-.144531 49.492188-8.484375 31.625-89.046875 31.625-124.742187v-178.59375c0-.171876-.105469-.273438-.121093-.433594.042968-.222656.058593-.449219.050781-.675782-8.019531-39.851562-61.695313-28.160156-92.066407-28.160156h-112.742187v-152.089844l47.789063 47.785157c3.121093 3.125 14.835937-1.507813 11.46875-4.878907l-59.640626-59.65625c-.40625-.425781-.945312-.703124-1.527343-.777343-3.222657-.882813-6.671875-.101563-9.199219 2.082031l-59.734375 59.734375c-5.121094 5.121094 6.964844 5.121094 9.949219 2.167969l48.582031-48.582032v154.164063zm139.726563 8.53125h87.746093c20.214844 0 50.59375-6.953125 56.746094 22.777344v201.386719c0 18.773437 4.269531 44.152343 0 62.523437-9.300781 40.191406-49.808594 29.074219-82.941406 29.074219h-248.960938c-11.375 0-31.964843 4.171875-42.871093 0-37-14.167969-22.332032-86.1875-22.332032-116.371094 0-53.359375-5.359375-109.761719 0-162.859375 4.199219-41.582031 30.214844-36.519531 64-36.519531h128.375v202.238281c0 3.320313 12.355469 1.160156 12.355469-3.3125v-198.9375zm0 0" fill="#262626"/></svg>