<svg height="506pt" viewBox="0 -11 506.97172 506" width="506pt" xmlns="http://www.w3.org/2000/svg"><path d="m99.367188 481.757812c-1.878907-.003906-3.539063-1.238281-4.078126-3.042968-.539062-1.800782.164063-3.746094 1.730469-4.78125l36.113281-23.894532-29.4375 16.988282c-1.992187 1.101562-4.492187.445312-5.691406-1.488282-1.195312-1.929687-.667968-4.460937 1.203125-5.753906l35.933594-23.808594-29.015625 16.757813c-1.984375 1.085937-4.472656.429687-5.667969-1.492187-1.195312-1.921876-.679687-4.441407 1.171875-5.742188l39.40625-26.273438-32.425781 18.703126c-1.984375 1.132812-4.507813.503906-5.726563-1.425782-1.21875-1.933594-.699218-4.484375 1.179688-5.785156l57.617188-39.601562-50.039063 28.875c-1.988281 1.070312-4.464844.40625-5.652344-1.511719-1.1875-1.921875-.675781-4.433594 1.171875-5.730469l26.972656-17.855469-20.222656 11.675781c-1.988281 1.132813-4.515625.496094-5.730468-1.445312-1.214844-1.9375-.683594-4.492188 1.207031-5.78125l38.023437-25.601562-30.992187 17.921874c-1.988281 1.132813-4.515625.496094-5.730469-1.445312s-.679688-4.492188 1.207031-5.785156l39.636719-26.800782-32.535156 18.773438c-1.976563 1.117188-4.484375.496094-5.703125-1.417969-1.222657-1.914062-.730469-4.449219 1.121093-5.769531l58.324219-41.011719-50.542969 29.246094c-2 1.136719-4.539062.484375-5.742187-1.472656-1.207031-1.957031-.644531-4.515625 1.269531-5.789063l9.839844-6.46875-3.414062 1.953125c-1.980469 1.175781-4.539063.566407-5.777344-1.375-1.238282-1.945312-.707032-4.519531 1.195312-5.816406l48.582032-33.820313-41.082032 23.707032c-1.972656 1.121094-4.480468.496094-5.703125-1.417969-1.21875-1.914063-.726562-4.449219 1.121094-5.769531l49.570313-34.796875-44.007813 25.402343c-1.996094 1.1875-4.574219.558594-5.800781-1.414062-1.226563-1.972656-.648438-4.5625 1.296875-5.828125l18.902343-12.621094-21.582031 12.441407c-1.976562 1.132812-4.5.511718-5.722656-1.414063-1.226563-1.921875-.71875-4.46875 1.148437-5.78125l53.640626-37.484375-59.511719 34.351562c-1.992188 1.15625-4.539063.523438-5.757813-1.429687-1.21875-1.957031-.667968-4.523437 1.246094-5.804687l41.050781-27.578126-45.300781 26.144532c-1.980469 1.117187-4.488281.488281-5.703125-1.433594-1.21875-1.921875-.714844-4.457031 1.144531-5.769531l68.046875-47.09375-74.753906 43.152343c-1.984375 1.132813-4.507813.503907-5.726563-1.429687-1.21875-1.929687-.699218-4.480469 1.179688-5.78125l71.832031-49.050781-78.414062 45.226562c-1.996094 1.117188-4.519531.457032-5.71875-1.496094-1.195313-1.949218-.636719-4.5 1.265625-5.773437l33.597656-21.683594-36.90625 21.335938c-2.007812 1.117187-4.539062.453125-5.730469-1.511719-1.191406-1.960938-.617187-4.515625 1.300781-5.777344l14.882813-9.496094-17.296875 9.992188c-1.996094 1.082031-4.492188.414062-5.675781-1.523438-1.1875-1.9375-.644531-4.464843 1.226562-5.75l49.496094-32-53.539063 30.882813c-1.960937 1.105469-4.441406.5-5.671874-1.382813-1.230469-1.886718-.78125-4.402343 1.019531-5.75l38.222656-27.9375-43.582031 25.164063c-1.910156 1.09375-4.34375.550781-5.609375-1.253906-1.265625-1.800781-.949219-4.273438.730469-5.699219l32.621093-27.53125-39.535156 22.820312c-1.875.992188-4.195313.457032-5.445313-1.257812s-1.050781-4.089844.472657-5.570312l15.785156-14.113282-20.1875 11.65625c-1.828125 1.046875-4.144531.605469-5.457031-1.035156-1.316406-1.644531-1.234375-4.003906.191406-5.550781l6.722656-7.246094-9.761718 5.632813c-1.359376.785156-3.042969.757812-4.378907-.070313-1.335937-.828125-2.109375-2.320313-2.011719-3.890625l.441407-6.910156-2.285157 1.3125c-2.027343 1.058594-4.527343.335937-5.671874-1.644532-1.144532-1.980468-.523438-4.511718 1.40625-5.738281l9.179687-5.289062c1.363281-.785157 3.046875-.761719 4.386719.070312 1.335937.828125 2.105468 2.328125 2.003906 3.898438l-.433594 6.910156 27.390625-15.828125c1.828125-1.035156 4.132813-.589844 5.441407 1.050781 1.308593 1.640625 1.230468 3.988281-.183594 5.535157l-6.707032 7.238281 31.691407-18.261719c1.878906-.996094 4.199219-.457031 5.449219 1.257812 1.25 1.714844 1.046874 4.089844-.472657 5.570313l-15.796875 14.09375 45.082032-26.023437c1.910156-1.074219 4.320312-.523438 5.578124 1.265624 1.261719 1.792969.960938 4.246094-.695312 5.679688l-32.613281 27.519531 70.722656-40.824219c1.960937-1.105468 4.441406-.5 5.671875 1.386719 1.226562 1.886719.78125 4.402344-1.019531 5.746094l-38.207031 27.914063 130.492187-75.332032c1.996094-1.082031 4.492187-.414062 5.675781 1.523438 1.1875 1.9375.644532 4.464844-1.230468 5.746094l-49.492188 32.019531 45.046875-25.996094c2.003906-1.082031 4.5-.40625 5.683594 1.539063 1.179687 1.945312.625 4.476562-1.261719 5.75l-14.839844 9.4375 10.425782-6.023438c2-1.117188 4.523437-.457031 5.722656 1.496094 1.195312 1.953125.636718 4.5-1.265625 5.773437l-33.707031 21.785157 29.234374-16.878907c1.988282-1.152343 4.53125-.523437 5.753907 1.417969 1.222656 1.945312.6875 4.511719-1.214844 5.800781l-71.78125 49.015625 67.242187-38.824218c1.984376-1.15625 4.523438-.535157 5.75 1.402343 1.226563 1.9375.703126 4.5-1.183593 5.796875l-68.097657 47.132813 63.539063-36.695313c1.988281-1.132812 4.515625-.496094 5.730469 1.445313 1.214844 1.9375.679687 4.492187-1.207032 5.78125l-41.070312 27.597656 36.554688-21.101563c1.984374-1.175781 4.539062-.566406 5.777343 1.375 1.238281 1.945313.710938 4.519532-1.191406 5.816407l-53.617187 37.453125 49.042968-28.304688c1.996094-1.183594 4.574219-.554687 5.800782 1.414063 1.226562 1.972656.648437 4.566406-1.296876 5.832031l-18.953124 12.65625 14.457031-8.339844c1.972656-1.105468 4.464843-.484375 5.683593 1.421875s.738282 4.429688-1.09375 5.753907l-49.492187 34.785156 44.945313-25.953125c1.972656-1.117188 4.480468-.496094 5.703124 1.417969 1.21875 1.914062.726563 4.449218-1.121093 5.769531l-48.640625 33.859375 44.066406-25.429688c1.992188-1.113281 4.511719-.460937 5.710938 1.480469 1.203124 1.945313.660156 4.488281-1.230469 5.773437l-9.789063 6.425782 5.308594-3.054688c1.972656-1.109375 4.464844-.484375 5.683594 1.421875 1.21875 1.902344.738281 4.429688-1.09375 5.753907l-58.339844 41.027343 53.757812-31.027343c1.992188-1.179688 4.5625-.554688 5.789063 1.40625 1.230469 1.960937.671875 4.542968-1.257813 5.824218l-39.636718 26.808594 35.113281-20.273438c1.988281-1.132812 4.515625-.496093 5.730469 1.445313 1.214844 1.9375.683594 4.488281-1.207032 5.78125l-38.023437 25.601563 33.511719-19.34375c2-1.242188 4.632812-.625 5.875 1.375 1.238281 2.003906.625 4.636718-1.378906 5.875l-27.015626 17.8125 22.484376-12.980469c1.980468-1.132813 4.507812-.503907 5.726562 1.425781 1.21875 1.933594.699219 4.484375-1.179688 5.785156l-57.589843 39.609375 53.078125-30.640625c1.996094-1.1875 4.574218-.558594 5.800781 1.414063 1.226563 1.972656.648437 4.5625-1.296875 5.828125l-39.355469 26.242187 34.859375-20.078125c1.992188-1.136718 4.523438-.492187 5.734375 1.457032 1.207031 1.949218.660157 4.503906-1.238281 5.785156l-36.011719 23.851562 31.523438-18.203125c1.996093-1.15625 4.554687-.515625 5.769531 1.449219 1.214844 1.960938.644531 4.535156-1.28125 5.804688l-36.15625 23.894531 31.675781-18.285157c1.910157-1.089843 4.335938-.546874 5.601563 1.25 1.265625 1.796876.957031 4.261719-.710938 5.695313l-7.238281 6.144531 2.347656-1.351562c1.324219-.839844 3-.886719 4.367188-.125 1.371093.765625 2.210937 2.21875 2.1875 3.785156-.019531 1.566406-.898438 2.996094-2.289063 3.722656l-43.210937 24.960938c-1.910157 1.085937-4.328125.542968-5.59375-1.25-1.265625-1.792969-.964844-4.253906.695312-5.6875l7.269531-6.179688-113.195312 65.304688c-.648438.375-1.382812.574218-2.132812.574218zm0 0" fill="#fdcd56"/><path d="m180.820312 152.789062c-1.851562-.003906-3.492187-1.199218-4.058593-2.960937-.5625-1.765625.070312-3.691406 1.574219-4.769531l8.773437-6.289063c-1.199219-.136719-2.28125-.78125-2.972656-1.765625-1.273438-1.800781-.964844-4.277344.710937-5.710937l30.554688-26.144531-13.292969 7.679687c-1.929687 1.074219-4.359375.5-5.605469-1.324219-1.242187-1.824218-.890625-4.296875.816406-5.699218l10.925782-8.746094c-1.523438.101562-2.988282-.59375-3.875-1.835938-1.253906-1.839844-.882813-4.332031.851562-5.726562l8.988282-7.296875c-1.582032-.332031-2.839844-1.527344-3.25-3.089844-.410157-1.5625.097656-3.222656 1.3125-4.289063l9.941406-8.765624c-1.566406-.277344-2.847656-1.402344-3.324219-2.921876-.476563-1.515624-.070313-3.171874 1.054687-4.296874l10.597657-10.589844c-.886719-.210938-1.675781-.703125-2.253907-1.40625-1.324218-1.609375-1.292968-3.941406.078126-5.511719l9.292968-10.703125c-.3125-.203125-.601562-.449219-.855468-.726562-1.363282-1.449219-1.542969-3.644532-.433594-5.296876l8.226562-12.289062-.113281-.171875c-.566406-.976563-.722656-2.144531-.433594-3.238281.292969-1.09375 1.007813-2.03125 1.988281-2.597656l5.070313-2.933594c1.714844-1.003906 3.902344-.6875 5.261719.761718 1.363281 1.453126 1.539062 3.652344.429687 5.304688l-3.746093 5.582031c1.347656-.097656 2.65625.484375 3.488281 1.550781 1.332031 1.609376 1.304687 3.945313-.066407 5.523438l-4.855468 5.546875c1.785156-.726563 3.835937-.179687 5.023437 1.335937 1.304688 1.699219 1.148438 4.101563-.367187 5.617188l-7.292969 7.296875 2.15625-1.246094c1.898437-1.101562 4.324219-.582031 5.605469 1.199219s1 4.246094-.644532 5.695312l-6.136718 5.410157 1.175781-.675781c1.925781-1.078126 4.351563-.515626 5.605469 1.300781 1.25 1.816406.910156 4.285156-.78125 5.699219l-4.039063 3.273437c1.8125-.585937 3.796875.082031 4.882813 1.648437 1.257812 1.839844.886718 4.339844-.855469 5.734376l-8.796875 7.023437 4.019531-2.3125c1.90625-1.082031 4.320313-.542969 5.585938 1.246094 1.265625 1.789062.972656 4.242187-.679688 5.683593l-30.558593 26.152344 25.609374-14.804687c1.96875-1.109375 4.460938-.496094 5.683594 1.402343 1.226563 1.898438.757813 4.425782-1.066406 5.757813l-3.414062 2.421875c1.8125-.363281 3.65625.460938 4.601562 2.050781 1.171875 2.035157.476562 4.636719-1.554688 5.820313l-72.449218 41.8125c-.636719.386718-1.367188.59375-2.113282.605468zm0 0" fill="#fdcd56"/><path d="m401.4375 485.453125c-1.257812-.003906-2.453125-.5625-3.265625-1.527344-.808594-.964843-1.148437-2.242187-.929687-3.484375l1.960937-11.160156-11.945313 6.886719c-1.8125 1.035156-4.109374.609375-5.425781-1.007813-1.320312-1.621094-1.273437-3.957031.109375-5.519531l.734375-.855469-4.421875 2.5625c-1.777344.996094-4.011718.59375-5.332031-.957031s-1.359375-3.820313-.09375-5.417969l10.027344-12.238281-18.988281 10.957031c-1.84375 1.066406-4.1875.605469-5.496094-1.070312-1.308594-1.679688-1.183594-4.066406.300781-5.59375l15.554687-16.101563-25.464843 14.660157c-1.902344 1.0625-4.304688.519531-5.5625-1.261719-1.261719-1.78125-.972657-4.226563.664062-5.667969l14.253907-12.167969-21.683594 12.519531c-1.914063 1.105469-4.351563.570313-5.625-1.234374-1.273438-1.804688-.960938-4.285157.726562-5.714844l23.484375-19.933594-33.109375 19.117188c-1.910156 1.101562-4.34375.566406-5.617187-1.230469-1.273438-1.800781-.964844-4.277344.710937-5.707031l35.625-30.40625-48.375 27.921874c-1.957031 1.113282-4.441406.515626-5.675781-1.367187-1.234375-1.878906-.796875-4.394531 1-5.75l26.453125-19.625-34.527344 19.925781c-1.976562 1.074219-4.449218.425782-5.648437-1.480468s-.707031-4.414063 1.117187-5.730469l1.648438-1.128907-6.128906 3.535157c-1.949219 1.109375-4.421876.519531-5.664063-1.347657-1.242187-1.867187-.824219-4.378906.953125-5.746093l50.050781-38.03125-62.414062 36.035156c-1.976563 1.136719-4.5.515625-5.722657-1.410156-1.226562-1.925781-.71875-4.472657 1.148438-5.78125l36.148438-25.132813-41.132813 23.722656c-1.988281 1.132813-4.515625.496094-5.726563-1.445312-1.214843-1.9375-.683593-4.488281 1.207032-5.78125l26.800781-18.125-22.28125 12.859375c-1.992187 1.132813-4.523437.488281-5.734375-1.457031-1.207031-1.949219-.660156-4.503906 1.238281-5.789063l38.800781-25.933593-34.304687 19.816406c-1.984375 1.085937-4.472656.429687-5.667969-1.492188-1.195312-1.921875-.679687-4.445312 1.171875-5.746094l80.90625-54.058593-76.410156 44.109375c-2.015625 1.164062-4.589844.496094-5.785156-1.496094-1.199219-1.996094-.582031-4.582031 1.390625-5.816406l12.640625-7.910156-8.246094 4.753906c-1.996094 1.042968-4.464844.351562-5.628906-1.582032-1.160157-1.929687-.621094-4.433593 1.234375-5.714843l53.121094-33.40625-48.726563 28.160156c-2.007813 1.125-4.550781.453125-5.738281-1.519531s-.597656-4.535156 1.335937-5.785156l47.847657-30.097657-43.445313 25.042969c-1.988281 1.058594-4.453125.386719-5.636719-1.53125-1.179687-1.917969-.664062-4.421875 1.175782-5.71875l88.097656-57.695312-83.625 48.28125c-1.988282 1.152343-4.53125.519531-5.753906-1.425782-1.222657-1.949218-.675782-4.515625 1.230468-5.800781l90.8125-61.507813-86.300781 49.808594c-1.984375 1.082032-4.472656.429688-5.667969-1.492187-1.195312-1.925781-.679687-4.445313 1.171875-5.746094l56.578125-37.632813-52.054687 30.066407c-1.980469 1.175781-4.539063.566406-5.777344-1.378907-1.238281-1.941406-.710937-4.519531 1.195313-5.816406l64-44.757812-59.394532 34.296875c-1.972656 1.121093-4.480468.496093-5.699218-1.417969-1.222657-1.914062-.730469-4.449219 1.117187-5.769531l44.160156-30.984375-39.628906 22.84375c-1.9375 1.101562-4.398437.523437-5.644531-1.324219-1.246094-1.851563-.855469-4.347656.894531-5.730469l48.015625-37.488281-43.265625 24.976563c-1.964844 1.128906-4.46875.523437-5.703125-1.378907-1.234375-1.902343-.761719-4.4375 1.070312-5.769531l12.3125-8.886719-7.679687 4.421875c-1.957031 1.121094-4.453125.523438-5.6875-1.363281-1.238281-1.890625-.789063-4.414063 1.019531-5.761719l12.671875-9.386718-8.003906 4.617187c-1.949219 1.109375-4.421875.519531-5.664063-1.347656-1.238281-1.867188-.824218-4.378907.953126-5.746094l15.257812-11.59375-10.546875 6.125c-1.933594 1.09375-4.386719.519531-5.632813-1.324219-1.246093-1.84375-.867187-4.335937.871094-5.722656l16.8125-13.203125-12.050781 6.957031c-1.949219 1.117188-4.433594.527344-5.675781-1.347656-1.242188-1.875-.816406-4.394531.976562-5.753906l4.265625-3.175782c-1.941406.890626-4.242187.207032-5.382812-1.601562-1.140625-1.804688-.769531-4.175781.867187-5.546875l21.769532-19.199219-16.808594 9.691406c-1.878906 1.019532-4.222656.496094-5.484375-1.230468-1.257813-1.722656-1.050781-4.117188.492187-5.59375l17.875-16.136719-12.882812 7.429687c-1.882813 1.050782-4.246094.535157-5.519532-1.199218-1.273437-1.738282-1.054687-4.148438.507813-5.625l13.234375-12.050782-8.222656 4.753907c-1.816406 1.046875-4.125.621093-5.445313-1.003907-1.324219-1.625-1.269531-3.96875.128907-5.53125l17.515624-19.628906-12.199218 7.050782c-1.828125 1.15625-4.234375.761718-5.597656-.917969-1.363282-1.675781-1.253907-4.113281.253906-5.664063l11.765625-13.308594-6.433594 3.710938c-1.71875.992188-3.894531.667969-5.25-.78125-1.355469-1.453125-1.53125-3.648438-.421875-5.296875l11.3125-16.75-5.640625 3.261719c-1.699219.980468-3.851563.679687-5.210937-.738282-1.359376-1.414062-1.582032-3.578124-.53125-5.238281l6.433593-10.238281-.691406.394531c-1.601563.917969-3.613281.707031-4.984375-.53125s-1.792969-3.21875-1.039062-4.90625l4.4375-9.898437c-1.015626.140625-2.050782-.101563-2.902344-.675782-1.347656-.890624-2.074219-2.472656-1.875-4.078124l1.707031-14.011719c-.472656-.351563-.867187-.789063-1.164063-1.296875-1.179687-2.035156-.488281-4.644532 1.546876-5.828125l2.363281-1.375c1.402343-.8125 3.140625-.761719 4.492187.132812 1.351563.894531 2.082032 2.476563 1.882813 4.085938l-1.332031 10.835937 2.191406-1.253906c1.601562-.917969 3.609375-.703125 4.980468.53125 1.371094 1.234375 1.792969 3.207031 1.046876 4.894531l-4.191407 9.386719 4.191407-2.464844c1.699218-.984375 3.851562-.679687 5.210937.734375 1.363281 1.417969 1.582031 3.578125.53125 5.238281l-6.433594 10.238282 6.691407-3.855469c1.71875-.996094 3.898437-.667969 5.253906.785156 1.355468 1.449219 1.53125 3.640625.425781 5.289063l-11.320313 16.8125 13.097657-7.5625c1.808593-1.046875 4.113281-.628906 5.4375.992187 1.328125 1.621094 1.28125 3.960938-.105469 5.527344l-11.742188 13.289063 12.492188-7.21875c1.8125-1.039063 4.109375-.609376 5.429688 1.007812 1.316406 1.617188 1.269531 3.953125-.113282 5.519531l-17.507812 19.625 19.464844-11.238281c1.878906-1.046875 4.242187-.53125 5.515624 1.203125 1.273438 1.734375 1.054688 4.144531-.507812 5.625l-13.226562 12.03125 13.59375-7.832031c1.875-1.023438 4.21875-.496094 5.480468 1.230468 1.261719 1.722657 1.050782 4.113282-.488281 5.59375l-17.921875 16.171876 18.835938-10.871094c1.898437-1.101563 4.320312-.582032 5.601562 1.199218s1.003906 4.246094-.644531 5.695313l-21.753907 19.183594 23.042969-13.289063c1.949219-1.09375 4.414063-.496094 5.644531 1.371094 1.234376 1.863281.816407 4.363281-.953124 5.730469l-3.960938 2.996093 3.253906-1.886718c1.9375-1.117188 4.410156-.546875 5.660156 1.304687 1.253907 1.851563.867188 4.359375-.890624 5.742188l-16.8125 13.203125 17.066406-9.867188c1.953125-1.132812 4.449218-.550781 5.699218 1.324219 1.25 1.878906.820313 4.40625-.976562 5.769531l-15.257812 11.585938 15.359374-8.847656c1.957032-1.121094 4.453126-.523438 5.6875 1.363281 1.238282 1.890625.789063 4.414062-1.019531 5.761719l-12.691406 9.386718 14.507813-8.34375c1.964843-1.128906 4.472656-.523437 5.703124 1.378906 1.234376 1.902344.765626 4.4375-1.070312 5.769532l-12.320312 8.894531 23.695312-13.65625c1.941406-1.101563 4.398438-.523437 5.644531 1.328125 1.246094 1.851562.859375 4.347656-.890625 5.730469l-48.015625 37.488281 70.253907-40.558594c1.96875-1.082031 4.441406-.453125 5.648437 1.441406 1.210937 1.894532.742187 4.402344-1.066406 5.734376l-44.152344 30.984374 60.679687-35.03125c1.984376-1.175781 4.539063-.566406 5.777344 1.378907 1.238282 1.941406.710938 4.515625-1.195312 5.816406l-64 44.757813 83.78125-48.375c1.988281-1.085938 4.476562-.429688 5.667968 1.492187 1.195313 1.921875.683594 4.441406-1.171874 5.742187l-56.617188 37.65625 72.535156-41.878906c1.988282-1.132812 4.515625-.496094 5.726563 1.441406 1.214843 1.941407.683593 4.492188-1.207031 5.785157l-90.792969 61.542969 112.390625-64.855469c1.996094-1.097657 4.503906-.433594 5.695312 1.503906 1.191406 1.941406.652344 4.476563-1.230468 5.757813l-88.019532 57.601562 106.527344-61.5c2.007812-1.101562 4.523438-.425781 5.707031 1.53125 1.183594 1.957031.613281 4.5-1.292969 5.765625l-47.933593 30.140625 50.425781-29.117188c2.003906-1.085937 4.511719-.402343 5.6875 1.550782 1.175781 1.957031.605469 4.492187-1.292969 5.753906l-53.070312 33.390625 18.203125-10.503906c2.007812-1.125 4.546875-.453125 5.738281 1.519531 1.1875 1.972656.597656 4.535156-1.335937 5.785156l-27.554688 17.28125c1.863281.042969 3.484375 1.292969 4 3.082032.515625 1.792968-.191406 3.714843-1.746094 4.742187l-80.929687 54.066406 34.71875-20.078125c1.992187-1.117187 4.503906-.46875 5.710937 1.464844 1.203125 1.9375.675782 4.476562-1.203125 5.769531l-38.769531 25.898438 13.007812-7.507813c1.980469-1.085937 4.464844-.4375 5.664063 1.476563 1.203125 1.914062.699219 4.433593-1.140625 5.742187l-26.820312 18.152344 24.222656-13.980469c1.972656-1.089843 4.457031-.460937 5.667968 1.441407 1.210938 1.902343.730469 4.417968-1.09375 5.746093l-36.121093 25.15625 33.714843-19.464843c1.957032-1.179688 4.492188-.609376 5.757813 1.292968 1.261719 1.898438.804687 4.457032-1.039063 5.804688l-50.046874 38.042968 48.246093-27.863281c1.988281-1.152343 4.53125-.523437 5.753907 1.421875 1.222656 1.945313.6875 4.507813-1.210938 5.800782l-2.332031 1.578124c1.992187-.730468 4.21875.113282 5.222656 1.980469 1.007813 1.863281.492187 4.1875-1.210937 5.449219l-26.453126 19.628906 23.976563-13.84375c1.90625-1.0625 4.308594-.519531 5.566406 1.265625 1.257813 1.78125.972657 4.226563-.667969 5.664063l-35.625 30.414062 33.765626-19.480468c1.910156-1.085938 4.328124-.546876 5.59375 1.246093 1.265624 1.792969.964843 4.253907-.695313 5.691407l-23.476563 19.925781 21.0625-12.160157c1.910157-1.105468 4.34375-.570312 5.617188 1.230469s.964844 4.273438-.710938 5.707031l-14.300781 12.175782 11.457031-6.621094c1.847657-1.078125 4.203126-.625 5.515626 1.058594 1.316406 1.679687 1.183593 4.078125-.308594 5.605468l-15.546875 16.101563 12.9375-7.464844c1.78125-1.027343 4.042969-.632812 5.375.933594s1.355469 3.859375.058593 5.457031l-10.019531 12.246094 7.066407-4.078125c1.8125-1.039063 4.109374-.609375 5.425781 1.007813 1.320312 1.617187 1.273437 3.953124-.109375 5.519531l-1.792969 2.011719c.917969-.027344 1.816406.246093 2.5625.777343 1.351563.96875 2.015625 2.632813 1.707031 4.265625l-2.050781 11.648438c1.65625-.109375 3.230469.703125 4.097656 2.117187 1.179688 2.039063.484375 4.648438-1.554687 5.828125l-6.109375 3.523438c-.628907.367187-1.34375.566406-2.074219.582031zm0 0" fill="#a9b0bb"/><path d="m68.296875 172.125c-18.925781 2.789062-51.292969.683594-66.910156 13.652344-.570313.46875-1.578125 1.265625-1.355469 2.175781 4.855469 20.421875 40.386719 43.574219 54.722656 57.753906 16.214844 16.042969 58.121094 43.699219 65.324219 65.707031 7.203125 22.007813-10.820313 69.597657-14.632813 92.117188-3.414062 20.15625-18.691406 59.582031-10.925781 79.359375.335938.855469 1.46875 1.152344 2.261719 1.203125 21.539062 1.496094 45.707031-19.191406 63.652344-28.765625 26.726562-14.265625 61.636718-40.105469 89.753906-48.640625 29.4375 7.535156 61.351562 32.480469 88.011719 46.703125 18.191406 9.722656 45.628906 32.957031 67.25 31.464844 2.945312-.082031 5.617187-1.746094 6.988281-4.351563 7.828125-19.925781-7.464844-59.300781-10.886719-79.589844-3.960937-23.441406-21.332031-69.25-14.285156-92.808593l67.046875-66.332031c14.265625-14.113282 47.726562-35.675782 52.609375-56.164063.148437-.628906-.03125-1.289063-.472656-1.757813-15.726563-13.082031-51.675781-10.804687-70.988281-13.65625l-62.652344-9.257812c-8.695313-1.28125-28.269532-.375-35.589844-5.683594-6.757812-4.90625-11.332031-22.144531-14.890625-29.457031-9.230469-18.972656-18.457031-37.941406-27.683594-56.90625-8.824219-18.144531-18.421875-56.550781-36.285156-67.808594-2.394531-1.507812-10.589844-.09375-11.007813 3.550781-16.980468 12.246094-26.453124 49.195313-34.984374 66.867188l-29.167969 59.964844c-2.449219 5.035156-13.730469 27.5625-10.292969 25.214844-7.679688 5.230468-28.535156 4.222656-37.542969 5.546874zm208.625-110.933594c12.414063 25.542969 24.832031 51.082032 37.253906 76.613282 16.847657 34.636718 38.957031 28.371093 77.332031 34.046874 28.066407 4.148438 57.222657 6.441407 84.929688 12.554688 20.394531 4.488281 19.253906 4.214844 3.890625 19.402344l-104.027344 102.886718c-.5625.496094-.96875 1.140626-1.179687 1.859376-5.050782 15.164062 4.660156 39.859374 7.238281 55.125 5.46875 32.429687 9.164063 65.707031 16.496094 97.683593.261719 5.371094 1.324219 10.671875 3.15625 15.726563-6.664063-3.03125-19.054688-11.28125-21.121094-12.382813l-88.925781-47.425781c-6.65625-3.558594-32.117188-16.128906-32.296875-16.480469v-46.898437c0-.109375 0-.257813 0-.359375v-332.800781c7.226562 13.066406 12.703125 31.0625 17.261719 40.425781zm-90.734375 87.382813c16.613281-24.253907 27.382812-56.320313 40.226562-82.722657 5.347657-11 12.117188-33.230468 20.863282-48.164062v384.992188c-4.609375 3.117187-9.542969 5.714843-14.722656 7.746093l-72.371094 38.640625c-5.253906 2.808594-51.300782 33.417969-56.660156 30.25-.136719-.078125 9.171874-48.015625 10.128906-53.683594 4.652344-27.511718 9.300781-55.023437 13.945312-82.535156 1.832032-10.886718 8.300782-26.707031 3.839844-37.441406-4.949219-11.871094-27.308594-27-36.070312-35.679688l-65.964844-65.269531c-3.277344-3.246093-13.53125-10.402343-14.820313-14.660156-.339843-1.402344-.972656-2.71875-1.851562-3.859375 2.113281.066406 4.203125-.472656 6.023437-1.550781 21.203125-10.070313 56.371094-8.339844 79.847656-11.804688 27.414063-4.042969 70.808594.230469 87.585938-24.257812zm0 0" fill="#262626"/></svg>