<svg height="496pt" viewBox="0 -2 496.40476 496" width="496pt" xmlns="http://www.w3.org/2000/svg"><path d="m84.929688 489.746094c-1.855469.003906-3.488282-1.226563-3.988282-3.015625-.5-1.785157.25-3.6875 1.839844-4.648438l68.582031-41.546875-84.253906 48.625c-1.949219 1.027344-4.363281.34375-5.480469-1.554687-1.121094-1.894531-.554687-4.335938 1.285156-5.546875l61.421876-37.085938-76.570313 44.1875c-1.957031 1.113282-4.445313.457032-5.59375-1.480468s-.535156-4.441407 1.382813-5.621094l127.09375-77.222656-140.222657 81.019531c-1.957031 1.089843-4.425781.421875-5.566406-1.507813-1.136719-1.929687-.53125-4.414062 1.371094-5.601562l71.21875-42.867188-75.976563 43.839844c-1.949218 1.015625-4.351562.328125-5.464844-1.570312-1.113281-1.894532-.546874-4.328126 1.289063-5.539063l37.078125-22.222656-38.441406 22.175781c-1.960938 1.164062-4.496094.523438-5.660156-1.433594-1.167969-1.960937-.527344-4.492187 1.429687-5.660156l224.214844-138.019531-224.542969 129.644531c-1.96875 1.152344-4.5.492188-5.652344-1.472656-1.15625-1.96875-.496094-4.5 1.472656-5.652344l5.492188-3.304688-1.421875.824219c-1.917969.910157-4.214844.210938-5.304687-1.613281-1.089844-1.820312-.621094-4.175781 1.085937-5.4375l205.734375-125.992188-201.515625 116.339844c-1.953125 1.042969-4.382813.363282-5.507813-1.546875-1.121093-1.910156-.539062-4.363281 1.320313-5.566406l20.769531-12.386719-16.582031 9.53125c-1.957031 1.113282-4.445313.457032-5.59375-1.480468s-.535156-4.441407 1.382813-5.621094l161.5625-98.140625-157.351563 90.839843c-1.957031 1.167969-4.492187.527344-5.660156-1.433593-1.167969-1.957031-.527344-4.492188 1.433593-5.660157l218.523438-134.167968-214.296875 123.722656c-1.957031 1.113281-4.445313.453125-5.59375-1.484375s-.535156-4.4375 1.382813-5.617187l174.996093-106.53125-170.785156 98.601562c-1.964844 1.160156-4.496094.503906-5.65625-1.460938-1.15625-1.964843-.503906-4.5 1.460937-5.65625l95.199219-57.328124-91.003906 52.539062c-1.945313 1.039062-4.367187.363281-5.496094-1.535156-1.125-1.898438-.558593-4.347656 1.285157-5.558594l179.648437-109.453125-175.4375 101.285156c-1.957031 1.113281-4.445313.457031-5.59375-1.480469s-.535156-4.441406 1.382813-5.621093l188.96875-115.332031-184.757813 106.667968c-1.957031 1.089844-4.425781.421875-5.5625-1.507812-1.140625-1.929688-.53125-4.417969 1.367187-5.601563l49.90625-29.917969-45.710937 26.425782c-1.945313 1.039062-4.367187.363281-5.496094-1.535156-1.125-1.898438-.558593-4.347657 1.285157-5.558594l179.753906-109.585938-175.542969 101.308594c-1.960937 1.167969-4.496094.519531-5.660156-1.441406-1.164063-1.960938-.519531-4.492188 1.441406-5.660156l184.15625-112.523438-179.9375 103.894531c-1.960937 1.160157-4.496094.511719-5.65625-1.453125s-.507813-4.496094 1.453125-5.65625l130.105469-78.921875-125.902344 72.6875c-1.945313 1.070313-4.390625.410157-5.53125-1.496093-1.144531-1.902344-.574219-4.371094 1.289063-5.582032l210.132812-130.59375-205.890625 118.917969c-1.949219 1.097656-4.421875.441406-5.570313-1.480469-1.148437-1.921875-.554687-4.40625 1.335938-5.605468l165.835938-102.574219-161.601563 93.300781c-1.945313 1.039062-4.367187.363281-5.496094-1.535156-1.125-1.898438-.558593-4.347656 1.285157-5.558594l67.082031-40.789062-62.871094 36.296874c-1.9375 1.035157-4.34375.371094-5.480469-1.507812-1.132812-1.882812-.597656-4.324219 1.21875-5.554688l163.710938-103.035156-159.449219 92.050782c-1.949219 1.082031-4.40625.414062-5.546875-1.5-1.136719-1.917969-.550781-4.390626 1.328125-5.59375l49.96875-30.554688-45.75 26.425781c-1.9375 1.070313-4.375.414063-5.523437-1.480469-1.144532-1.894531-.589844-4.355468 1.253906-5.578124l120.402344-75.910157-116.132813 67.023438c-1.949219 1.078125-4.40625.414062-5.546875-1.5-1.136719-1.917969-.550781-4.394531 1.328125-5.59375l7.433594-4.53125-3.195313 1.839843c-1.941406 1.050782-4.367187.390626-5.507812-1.503906-1.136719-1.890625-.585938-4.34375 1.253906-5.566406l38.945312-24.136719-34.710937 20.007813c-1.929687 1.082031-4.367187.449218-5.527344-1.433594-1.160156-1.878906-.636719-4.34375 1.191407-5.585938l114.011718-75.082031-109.675781 63.316407c-1.929687 1.121093-4.40625.5-5.582031-1.398438-1.175782-1.902344-.625-4.390625 1.238281-5.621094l86.882813-57.335937-82.539063 47.632812c-1.917969 1.097657-4.359375.488281-5.539063-1.382812-1.179687-1.871094-.679687-4.335938 1.140626-5.597657l82.355468-56.433593-77.957031 44.996093c-1.929687 1.066407-4.355469.425782-5.507813-1.453124-1.15625-1.878907-.628906-4.332032 1.191407-5.574219l19.347656-12.59375-15.03125 8.699219c-1.914063 1.117187-4.367187.523437-5.5625-1.34375-1.191406-1.867188-.699219-4.34375 1.121094-5.609376l49.117187-34.585937-44.675781 25.789063c-1.921875 1.117187-4.382813.507812-5.566406-1.371094-1.183594-1.882813-.664063-4.367188 1.175781-5.613282l15.136719-10.347656-10.738281 6.199219c-1.910157 1.101563-4.347657.507813-5.539063-1.347656-1.1875-1.855469-.710937-4.320313 1.089844-5.597657l12.964843-9.179687-8.523437 4.910156c-1.859375 1.09375-4.246094.570313-5.476563-1.199219-1.234374-1.769531-.898437-4.1875.769532-5.554687l21.894531-18.167969-17.1875 9.933594c-1.71875.996094-3.902344.625-5.199219-.886719-1.292968-1.507812-1.328125-3.722656-.085937-5.273437l13.007812-16.152344c-1.972656 1.035156-4.414062.316406-5.511719-1.625-1.09375-1.941406-.453124-4.398438 1.449219-5.558594l19.066407-11.007812c1.722656-.984375 3.898437-.609375 5.1875.898437 1.289062 1.503907 1.328124 3.714844.089843 5.261719l-12.972656 16.152344 40.289063-23.253906c1.859374-1.066407 4.222656-.539063 5.445312 1.214843 1.226562 1.757813.90625 4.15625-.738281 5.53125l-21.875 18.125 43.125-24.871093c1.90625-1.0625 4.304687-.457032 5.484375 1.375 1.175781 1.835937.726562 4.273437-1.035156 5.5625l-12.945313 9.15625 27.917969-16.09375c1.917968-1.066407 4.332031-.449219 5.5 1.40625 1.171875 1.859374.683594 4.304687-1.105469 5.570312l-15.1875 10.363281 30.078125-17.339843c1.90625-1.074219 4.320312-.46875 5.5 1.375s.714844 4.285156-1.058594 5.570312l-49.109375 34.566406 71.941407-41.511718c1.929687-1.035157 4.328124-.386719 5.472656 1.480468 1.144531 1.863282.636718 4.296875-1.160156 5.546875l-19.398438 12.59375 33.980469-19.621093c1.914062-1.054688 4.316406-.433594 5.484375 1.410156 1.167968 1.847656.691406 4.285156-1.082032 5.558594l-82.324218 56.445312 109.890625-63.414062c1.921875-1.035157 4.320312-.394532 5.46875 1.464843 1.148437 1.855469.652343 4.289063-1.132813 5.546875l-86.875 57.316406 111.464844-64.328124c1.929688-1.078126 4.367188-.449219 5.53125 1.433593 1.160156 1.878907.636719 4.34375-1.195312 5.585938l-113.960938 75.066406 142.1875-82.085937c1.941406-1.039063 4.359375-.367188 5.488281 1.519531 1.132813 1.890625.582031 4.335937-1.25 5.558593l-39.019531 24.160157 54.15625-31.238281c1.949219-1.078126 4.40625-.414063 5.546875 1.503906 1.136719 1.914062.550781 4.390625-1.328125 5.589844l-7.433594 4.558593 20.175782-11.652343c1.941406-1.066407 4.378906-.414063 5.523437 1.480468 1.144531 1.894532.59375 4.355469-1.253906 5.578125l-120.394531 75.886719 143.699218-82.945312c1.949219-1.078126 4.40625-.414063 5.546875 1.503906 1.140625 1.914062.550781 4.390625-1.328125 5.589844l-49.953125 30.554687 65.214844-37.648437c1.941406-1.066407 4.378906-.414063 5.523437 1.480468 1.144532 1.894532.59375 4.355469-1.253906 5.578125l-163.773437 103.027344 190.761719-110.085937c1.945312-1.011719 4.339843-.328126 5.457031 1.558593 1.117187 1.882813.566406 4.316407-1.253907 5.535157l-66.964843 40.695312 82.820312-47.789062c1.941407-1.039063 4.355469-.367188 5.488281 1.519531 1.128907 1.890625.578126 4.335937-1.253906 5.558593l-165.820312 102.515626 189.867187-109.59375c1.949219-1.070313 4.390625-.414063 5.535157 1.492187 1.140624 1.90625.574218 4.371094-1.289063 5.585937l-210.207031 130.589844 235.445312-135.925781c1.957032-1.117187 4.445313-.457031 5.59375 1.480469 1.148438 1.9375.535156 4.4375-1.382812 5.621094l-130.238282 78.996093 137.199219-79.203125c1.953125-1.078125 4.40625-.414062 5.546875 1.503906 1.140625 1.914063.550782 4.390626-1.328125 5.589844l-184.113281 112.492188 187.9375-108.503906c1.957031-1.113282 4.445312-.457032 5.597656 1.480468 1.148438 1.9375.53125 4.441406-1.386718 5.621094l-179.636719 109.503906 178.472656-103.035156c1.953125-1.046875 4.382813-.367188 5.507813 1.542969 1.125 1.910156.542968 4.367187-1.320313 5.566406l-49.894531 29.917969 45.707031-26.382813c1.949219-1.042969 4.371094-.367187 5.496094 1.53125 1.128906 1.898438.5625 4.351563-1.285157 5.5625l-189.109374 115.421875 184.898437-106.753906c1.945313-1.011719 4.339844-.324219 5.457031 1.558594 1.121094 1.886718.570313 4.316406-1.253906 5.535156l-179.636719 109.453125 175.433594-101.277344c1.957031-1.089843 4.429687-.417969 5.566406 1.511719s.53125 4.414062-1.371093 5.601562l-94.96875 57.167969 90.757812-52.386719c1.953125-1.0625 4.394531-.390624 5.527344 1.523438 1.128906 1.910156.546875 4.375-1.324219 5.578125l-175.136719 106.636719 170.941406-98.703125c1.953126-1.078125 4.40625-.414063 5.546876 1.503906 1.140624 1.917969.550781 4.390625-1.328126 5.589844l-218.390624 134.105469 214.179687-123.65625c1.964844-1.164063 4.496094-.511719 5.65625 1.453124 1.160156 1.960938.511719 4.496094-1.453125 5.65625l-161.558594 98.136719 157.355469-90.835937c1.953125-1.046875 4.382813-.367188 5.507813 1.542968 1.125 1.910157.542968 4.367188-1.320313 5.566407l-21.148437 12.640625 16.960937-9.785156c1.949219-1.039063 4.371094-.363282 5.496094 1.535156 1.128906 1.898437.5625 4.347656-1.285157 5.558594l-205.625 125.886718 201.414063-116.265625c1.964844-1.15625 4.496094-.5 5.652344 1.464844 1.15625 1.96875.5 4.5-1.464844 5.652344l-5.863281 3.503906 1.652344-.964844c1.941406-1.027343 4.347656-.347656 5.472656 1.539063 1.125 1.886718.574218 4.324218-1.253906 5.542968l-224.164063 138.003907 219.96875-126.984375c1.964844-1.15625 4.496094-.5 5.652344 1.464844 1.15625 1.964843.5 4.496093-1.464844 5.652343l-36.738281 22.023438 32.550781-18.796875c1.273437-.746094 2.847656-.761719 4.132813-.035156 1.285156.726562 2.082031 2.082031 2.097656 3.558593.011718 1.476563-.761719 2.847657-2.035156 3.597657l-71.421876 42.980468 67.226563-38.8125c1.953125-1.058594 4.394531-.386718 5.527344 1.527344 1.132812 1.910156.546875 4.375-1.324219 5.574219l-126.992188 77.164062 122.789063-70.886719c1.953125-1.0625 4.394531-.386718 5.527344 1.523438 1.132812 1.914062.546875 4.378906-1.324219 5.578125l-61.347656 37.03125 57.144531-32.984375c1.964844-1.160156 4.496094-.507812 5.65625 1.453125 1.160156 1.964844.511719 4.496094-1.453125 5.65625l-68.589844 41.554687 64.414063-37.160156c1.941406-1.023437 4.347656-.347656 5.472656 1.539063 1.121094 1.886719.570313 4.324219-1.253906 5.546875l-118.578125 72.792968 114.332031-66.003906c1.953125-1.078125 4.40625-.414062 5.546875 1.5 1.140625 1.917969.554688 4.390625-1.328125 5.59375l-88.449219 54.203125 84.230469-48.605469c1.9375-1.035156 4.347656-.371093 5.480469 1.507813 1.136718 1.882813.601562 4.320313-1.21875 5.554687l-147.902344 93.3125 143.648438-82.976562c1.945312-1.089844 4.40625-.4375 5.554687 1.472656 1.152344 1.910156.578125 4.386719-1.292969 5.597656l-121.8125 76.890626 117.550782-67.863282c1.941406-1.070312 4.378906-.414062 5.523437 1.480469 1.148437 1.894531.59375 4.355469-1.253906 5.578125l-103.605469 65.683594 99.335938-57.34375c1.949218-1.054688 4.378906-.386719 5.515624 1.515625 1.132813 1.902343.566407 4.359375-1.285156 5.570312l-18.515625 11.4375 14.285157-8.257812c1.941406-1.023438 4.339843-.351563 5.46875 1.527343 1.125 1.878907.589843 4.3125-1.222657 5.542969l-29.421875 18.355469 25.175782-14.53125c1.933593-1.101562 4.390624-.472656 5.558593 1.421875 1.164063 1.894531.621094 4.371094-1.230469 5.605469l-85.703124 56.210937 81.375-46.972656c1.917968-1.050781 4.324218-.421875 5.484374 1.429687 1.160157 1.855469.675782 4.289063-1.105468 5.558594l-81.441406 55.179688 77.0625-44.496094c1.921874-1.09375 4.363281-.484375 5.542968 1.382812 1.179688 1.871094.675782 4.335938-1.140625 5.597657l-61.242187 42.03125 56.839844-32.808594c1.902343-1.089844 4.328124-.503906 5.523437 1.335937 1.191406 1.84375.734375 4.292969-1.039063 5.585938l-53.253906 38.488281 48.769532-28.148437c1.917968-1.082032 4.34375-.472656 5.519531 1.386718 1.175781 1.859376.6875 4.3125-1.109375 5.582032l-14.609375 10.074218 10.199219-5.878906c1.863281-1.0625 4.230468-.527344 5.445312 1.238282 1.21875 1.765624.882812 4.167968-.769531 5.53125l-30.554688 24.957031 25.90625-14.945313c1.878907-1.074218 4.265625-.515625 5.472657 1.28125 1.207031 1.796875.820312 4.222656-.882813 5.554688l-4.535156 3.519531c1.785156-.707031 3.820312-.089844 4.914062 1.484375 1.089844 1.574219.957031 3.695312-.328125 5.121094l-10.066406 11.039062c1.808594.132813 3.320312 1.429688 3.722656 3.199219.40625 1.769531-.394531 3.59375-1.964844 4.5l-19.058593 11.007813c-1.761719 1-3.988281.578124-5.261719-1-1.269531-1.578126-1.207031-3.84375.148438-5.351563l8.480468-9.316406-28.828125 16.617187c-1.878906 1.09375-4.289062.542969-5.503906-1.261718-1.214844-1.808594-.820313-4.246094.90625-5.578126l4.308594-3.300781-17.628907 10.140625c-1.863281 1.082032-4.246093.550782-5.472656-1.222656-1.226562-1.773438-.882812-4.1875.789063-5.550781l30.554687-24.953125-54.933594 31.726562c-1.910156 1.042969-4.300781.425782-5.464843-1.414062-1.167969-1.839844-.703125-4.265625 1.054687-5.546875l14.59375-10.066407-29.53125 17.027344c-1.902344 1.089844-4.328125.503906-5.519531-1.335937-1.195313-1.839844-.738281-4.292969 1.035156-5.585938l53.257813-38.496093-78.667969 45.417968c-1.914063 1.054688-4.316406.433594-5.484375-1.414062-1.164062-1.84375-.691406-4.28125 1.082031-5.554688l61.21875-42.019531-84.867187 48.988281c-1.917969 1.050782-4.324219.425782-5.484375-1.429687-1.164063-1.851563-.675781-4.289063 1.105469-5.558594l81.425781-55.164063-107.660157 62.152344c-1.929687 1.078125-4.367187.445313-5.53125-1.433594-1.160156-1.882812-.632812-4.34375 1.195313-5.585937l85.71875-56.214844-109.535156 63.234375c-1.941407 1.050782-4.367188.390625-5.503907-1.503906-1.140624-1.890625-.589843-4.34375 1.25-5.566406l29.425782-18.355469-44.042969 25.425781c-1.949219 1.097656-4.421875.441406-5.570313-1.480468-1.148437-1.921876-.554687-4.40625 1.335938-5.605469l18.398438-11.363281-31.976563 18.449218c-1.9375 1.050782-4.355469.394532-5.496094-1.488281-1.144531-1.882813-.605469-4.332031 1.21875-5.566406l103.621094-65.699219-126.015625 72.753906c-1.941406 1.066406-4.378906.414063-5.523438-1.480468-1.144531-1.898438-.59375-4.359376 1.253907-5.582032l121.78125-76.871094-145.382813 83.933594c-1.941406 1.066406-4.378906.414063-5.523437-1.480468-1.144531-1.898438-.59375-4.359376 1.253906-5.582032l147.917969-93.316406-173.832032 100.378906c-1.953124 1.078125-4.40625.414063-5.546874-1.503906-1.140626-1.914062-.554688-4.390625 1.328124-5.589844l88.359376-54.164062-106.089844 61.257812c-1.949219 1.054688-4.378906.386719-5.515625-1.515625-1.132813-1.898437-.566407-4.359375 1.285156-5.570312l118.570313-72.777344-138.378907 79.863281c-.632812.378906-1.355469.582032-2.089843.585938zm0 0" fill="#5e9cea"/><g fill="#262626"><path d="m493.992188 107.117188c0-38.671876 12.882812-100.839844-41.289063-104.710938-65.808594-4.71875-133.714844 0-199.65625 0-68.433594 0-138.910156-4.957031-207.1875 0-53.898437 3.90625-42.972656 60.355469-42.972656 99.449219v253.871093c0 38.945313-18.253907 126.949219 37.050781 134.605469 20.472656 1.371094 41.011719 1.386719 61.484375.042969h350.347656c.863281.160156 1.75.160156 2.617188 0 1.078125-.007812 2.136719-.273438 3.089843-.777344 52.957032-11.5625 36.515626-86.421875 36.515626-127.726562zm-38.597657 374.253906h-367.253906c-13.808594 0-31.867187 3.089844-45.417969 0-33.984375-7.746094-27.699218-40.109375-27.699218-65.847656v-320.414063c0-16.425781-3.609376-37.589844 0-53.742187 11.101562-49.671876 107.199218-29.996094 140.925781-29.996094h229.191406c20.285156 0 44.910156-3.828125 64.917969 0 29.257812 5.609375 31.792968 24.59375 31.792968 48.542968v346.136719c0 22 8.804688 69.632813-26.457031 75.320313zm0 0"/><path d="m442.214844 53.859375h-57.808594c-2.707031 0-13.589844 5.152344-7.679688 5.152344h47.898438c1.988281 0 4.128906.175781 6.101562 0l-162.949218 162.964843c-2.609375 2.601563 8.722656 1.390626 10.871094-.757812l153.746093-153.742188v48.367188c0 2.214844 11.957031.441406 11.957031-3.203125v-57.804687c0-.734376-1.800781-.976563-2.136718-.976563zm0 0"/><path d="m218.617188 269.246094-154.109376 154.121094v-45.550782c0-5.261718-12.007812-2.867187-12.007812 1.371094v56.632812c-.335938.574219-.410156 1.257813-.207031 1.890626.203125.628906.667969 1.144531 1.273437 1.414062.417969.304688.894532.519531 1.402344.636719 1.617188.4375 3.3125.488281 4.953125.148437h54.082031c4.773438 0 12.601563-7.203125 4.542969-7.203125h-49.546875l159.710938-159.660156c5.316406-5.320313-6.144532-7.746094-10.09375-3.800781zm0 0"/></g></svg>