<svg height="508pt" viewBox="0 -2 508.02974 508" width="508pt" xmlns="http://www.w3.org/2000/svg"><path d="m306.761719 282.339844c-1.929688 0-3.621094-1.300782-4.121094-3.164063-.5-1.867187.316406-3.832031 1.988281-4.800781l140.109375-80.886719c1.976563-1.089843 4.460938-.449219 5.664063 1.460938 1.207031 1.90625.714844 4.425781-1.117188 5.742187l-26.605468 18.285156 23.414062-13.515624c1.933594-1.082032 4.371094-.507813 5.613281 1.324218 1.246094 1.832032.882813 4.308594-.835937 5.707032l-40.105469 31.839843 36.472656-21.0625c1.914063-1.082031 4.34375-.53125 5.601563 1.277344 1.257812 1.804687.933594 4.273437-.746094 5.695313l-21.796875 18.125 16.097656-9.285157c1.808594-1.035156 4.101563-.613281 5.421875 1.003907 1.320313 1.617187 1.277344 3.949218-.097656 5.515624l-12.988281 14.636719 5.699219-3.285156c1.597656-.925781 3.609374-.71875 4.980468.515625 1.375 1.230469 1.804688 3.203125 1.0625 4.894531l-3.753906 8.53125c.445312.34375.820312.769531 1.109375 1.253907.566406.984374.71875 2.148437.425781 3.246093-.296875 1.09375-1.015625 2.027344-1.996094 2.589844l-4.753906 2.742187c-1.597656.921876-3.609375.714844-4.984375-.515624-1.371093-1.230469-1.800781-3.207032-1.058593-4.894532l1.964843-4.480468-17.136719 9.878906c-1.808593 1.027344-4.09375.601562-5.40625-1.007813-1.316406-1.609375-1.28125-3.933593.082032-5.5l12.960937-14.644531-36.691406 21.152344c-1.917969 1.085937-4.34375.53125-5.601563-1.273438-1.257812-1.808594-.9375-4.273437.746094-5.695312l21.75-18.089844-43.410156 25.058594c-1.929688 1.105468-4.386719.535156-5.640625-1.304688-1.25-1.835937-.878906-4.332031.855469-5.726562l40.105468-31.828125-67.269531 38.859375c-1.976562 1.121094-4.484375.488281-5.703125-1.433594-1.214844-1.917969-.710937-4.457031 1.148438-5.765625l26.675781-18.304687-45.996094 26.546874c-.648437.378907-1.382812.578126-2.132812.582032zm0 0" fill="#66d4f1"/><path d="m224.609375 451.921875c-1.8125 0-3.429687-1.144531-4.027344-2.855469-.601562-1.714844-.050781-3.617187 1.367188-4.75l9.746093-7.773437-22.972656 13.261719c-1.929687 1.089843-4.371094.523437-5.621094-1.304688-1.25-1.824219-.898437-4.304688.816407-5.710938l29.335937-23.644531-47.835937 27.613281c-1.960938 1.132813-4.46875.535157-5.707031-1.359374-1.238282-1.898438-.777344-4.433594 1.046874-5.773438l32.425782-23.765625-45.300782 26.136719c-1.988281 1.132812-4.515624.496094-5.730468-1.441406-1.214844-1.941407-.679688-4.492188 1.207031-5.785157l14.71875-9.976562-23.253906 13.421875c-1.976563 1.105468-4.46875.476562-5.683594-1.4375-1.210937-1.910156-.722656-4.4375 1.121094-5.753906l42.058593-29.203126-52.050781 30.023438c-1.992187 1.082031-4.484375.417969-5.671875-1.511719-1.191406-1.929687-.664062-4.449219 1.199219-5.742187l13.847656-9.046875-20.085937 11.605469c-1.992188 1.132812-4.527344.488281-5.734375-1.457032-1.210938-1.949218-.664063-4.503906 1.238281-5.789062l42.621094-28.472656-50.300782 29.011718c-1.980468 1.074219-4.453124.425782-5.652343-1.480468-1.195313-1.90625-.707031-4.414063 1.121093-5.730469l69.664063-47.410157-78.761719 45.457032c-2.003906 1.121094-4.535156.453125-5.726562-1.507813-1.195313-1.964843-.621094-4.515625 1.296875-5.78125l14.761719-9.386719-18.480469 10.703126c-2.03125 1.210937-4.664063.550781-5.875-1.480469-1.214844-2.03125-.550781-4.664063 1.480469-5.875l61.488281-37.589844-66.21875 38.226563c-2.023438 1.210937-4.644531.550781-5.851563-1.472657-1.210937-2.027343-.546875-4.648437 1.476563-5.855469l111.972656-69.121093-116.90625 67.484375c-2.003906 1.085937-4.511719.402344-5.6875-1.554688-1.175781-1.953125-.605469-4.488281 1.292969-5.75l164.898437-103.367187-171.886719 99.234375c-2.007812 1.046875-4.484374.339844-5.640624-1.609375-1.152344-1.949219-.585938-4.460938 1.296874-5.71875l49.613282-30.175781-51.839844 29.9375c-2.019531 1.214843-4.644531.5625-5.859375-1.457032-1.214844-2.019531-.5625-4.640625 1.457031-5.859375l173.523438-108.808593-178.671875 103.152343c-2.007813 1.125-4.550781.453125-5.738281-1.519531s-.597657-4.535156 1.335937-5.785156l178.945313-112.339844-183.910157 106.171875c-2.015625 1.113281-4.554687.425781-5.730469-1.554687-1.179687-1.980469-.574218-4.535157 1.367188-5.777344l88.859375-54.332032-90.121094 52.054688c-2.007812 1.125-4.550781.453125-5.738281-1.519531-1.191406-1.972657-.597656-4.535157 1.335938-5.785157l173.039062-108.375-175.25 101.128907c-2.015625 1.117187-4.554688.429687-5.730469-1.550781-1.179687-1.980469-.570312-4.539063 1.371094-5.777344l92.910156-56.902344-93.148437 53.761719c-2.003906 1.070312-4.492188.382812-5.664063-1.558594-1.175781-1.945313-.621093-4.464844 1.257813-5.738281l182.785156-115.269532-183.824219 106.128907c-2.027343 1.207031-4.644531.539062-5.851562-1.488281-1.203125-2.027344-.535157-4.644532 1.492187-5.847657l69.503906-42.4375-67.996093 39.253907c-2.023438 1.207031-4.640625.542968-5.847657-1.480469-1.207031-2.023438-.542968-4.644531 1.480469-5.851563l82.96875-50.855468-81.5625 47.078124c-2.015625 1.132813-4.566406.457032-5.753906-1.527343-1.1875-1.988281-.578125-4.558594 1.378906-5.796875l107.175781-66.207032-104.320312 60.242188c-2.003906 1.105469-4.519531.429688-5.707031-1.53125-1.183594-1.957031-.609375-4.5 1.296875-5.761719l166.683594-105.816406-164.335938 94.902344c-2.015625 1.226562-4.644531.59375-5.875-1.421875s-.59375-4.644532 1.417969-5.875l157.867187-100.445313-153.546875 88.632813c-1.304687.789062-2.933593.820312-4.265625.085937-1.335937-.734375-2.175781-2.128906-2.207031-3.652343-.03125-1.523438.753906-2.949219 2.058594-3.738282l126.492187-79.894531-120.046875 69.304687c-2.003906 1.140626-4.550781.484376-5.753906-1.484374-1.199219-1.964844-.621094-4.53125 1.308594-5.792969l136.863281-88.046875-129.183594 74.582031c-2.027344 1.210937-4.648437.550781-5.859375-1.472656-1.210937-2.023438-.550781-4.648438 1.472657-5.859375l40.257812-24.976563-32.152344 18.578125c-2 1.117188-4.523437.457032-5.71875-1.496094-1.195312-1.953124-.636718-4.5 1.265625-5.773437l106.613281-69.273437-94.617187 54.613281c-2.019531 1.210937-4.640625.550781-5.851563-1.46875-1.210937-2.023438-.554687-4.644531 1.464844-5.855469l8.800782-5.46875c-1.996094.332031-3.953126-.78125-4.683594-2.664062-.730469-1.886719-.039063-4.027344 1.660156-5.125l51.082031-33.007813-36.335937 20.964844c-1.96875 1.082031-4.441406.449219-5.648438-1.441407-1.210937-1.894531-.742187-4.402343 1.066406-5.734374l64.445313-45.125-36.566406 21.09375c-1.96875 1.125-4.476563.511718-5.703125-1.398438-1.226563-1.90625-.746094-4.441406 1.09375-5.769531l32.113281-22.816407c-.996094-.917968-1.496094-2.257812-1.347656-3.601562.144531-1.347656.925781-2.546875 2.097656-3.226562l47.410156-27.375c1.972657-1.125 4.476563-.507813 5.703125 1.398437 1.226563 1.910156.746094 4.445313-1.09375 5.769531l-6.273437 4.457032 42.964843-24.800782c1.976563-1.121094 4.484376-.496094 5.703126 1.417969 1.222656 1.914063.730468 4.449219-1.121094 5.769531l-64.433594 45.113282 98.328125-56.769532c2.011719-1.230468 4.636719-.597656 5.867187 1.410156 1.230469 2.011719.597657 4.636719-1.410156 5.867188l-51.046875 33 68.207031-39.375c2.015626-1.160156 4.589844-.496094 5.789063 1.5 1.195313 1.992188.578125 4.578125-1.394531 5.8125l-1.9375 1.203125 11.9375-6.886719c2-1.113281 4.523437-.453125 5.71875 1.496094 1.199218 1.953125.640625 4.503906-1.261719 5.777344l-106.609375 69.265625 125.015625-72.175781c2.003906-1.074219 4.5-.382813 5.667969 1.570312 1.171875 1.953125.601562 4.480469-1.292969 5.742188l-40.3125 25.011718 49.589844-28.621094c2.003906-1.140624 4.550781-.484374 5.75 1.484376 1.203125 1.964843.625 4.53125-1.304688 5.792968l-136.859375 88.03125 152.117188-87.816406c2.007812-1.125 4.550781-.453125 5.738281 1.519531 1.191406 1.972657.597656 4.53125-1.335937 5.785157l-126.445313 79.871093 138.484375-79.957031c2.015625-1.222656 4.640625-.582031 5.863281 1.433594 1.222657 2.015625.582031 4.640625-1.433593 5.863281l-157.847657 100.429687 169.8125-98.042968c2-1.082032 4.5-.40625 5.679688 1.539062 1.179687 1.945313.625 4.476563-1.257813 5.75l-166.667968 105.8125 177.027343-102.1875c2.023438-1.203125 4.640625-.542968 5.847657 1.480469 1.207031 2.027344.542968 4.644531-1.480469 5.851563l-107.160157 66.140624 113.492188-65.527343c2.015625-1.113281 4.554688-.425781 5.730469 1.554687 1.179687 1.980469.570312 4.535156-1.371094 5.777344l-82.976563 50.859375 86.765626-50.042969c2.011718-1.074218 4.515624-.375 5.679687 1.585938 1.164063 1.960937.582031 4.492187-1.328125 5.746094l-69.535156 42.46875 72.898437-42.085938c2.015625-1.21875 4.640625-.570312 5.859375 1.449219 1.21875 2.015625.570313 4.636719-1.449218 5.855469l-182.789063 115.292968 189.847656-109.625c2.015625-1.117187 4.554688-.429687 5.730469 1.550782 1.179688 1.980468.570312 4.539062-1.371094 5.777343l-92.789062 56.851563 95.207031-54.957032c2.003906-1.085937 4.511719-.402343 5.6875 1.554688 1.175781 1.953125.605469 4.488281-1.292969 5.75l-173.074218 108.398438 177.996093-102.738282c2.023438-1.152344 4.59375-.472656 5.78125 1.527344 1.1875 2.003906.550781 4.585938-1.429687 5.808594l-88.847656 54.308594 90.121093-52.054688c2.015625-1.164062 4.589844-.496094 5.789063 1.5 1.195312 1.992188.578125 4.578125-1.394532 5.8125l-178.9375 112.367188 181.625-104.832032c2.007813-1.125 4.550782-.453125 5.738282 1.519532 1.191406 1.972656.597656 4.535156-1.335938 5.785156l-173.558594 108.808594 175.589844-101.375c2.015625-1.097657 4.539063-.402344 5.710938 1.574218 1.167968 1.976563.566406 4.523438-1.367188 5.761719l-49.554687 30.132813 48.417969-27.953126c2.015624-1.164062 4.589843-.496093 5.789062 1.496094 1.199219 1.996094.578125 4.582032-1.394531 5.816406l-164.800781 103.328126 164.632812-95.042969c2.011719-1.089844 4.523438-.402344 5.695312 1.5625 1.171876 1.964843.585938 4.507812-1.328124 5.757812l-111.992188 69.121094 110.679688-63.898437c2.027343-1.203126 4.644531-.535157 5.847656 1.488281 1.207031 2.027343.539062 4.648437-1.488282 5.851562l-158.992187 97.195313c.328125.296875.617187.644531.851563 1.023437 1.203124 1.984375.601562 4.5625-1.355469 5.808594l-14.746094 9.386719 4.019531-2.320313c1.984375-1.113281 4.496094-.476562 5.707032 1.453125 1.207031 1.925782.691406 4.464844-1.175782 5.765625l-69.605468 47.402344 64-36.957031c1.984374-1.082032 4.472656-.429688 5.667968 1.492187 1.195313 1.921875.679688 4.445313-1.171875 5.746094l-42.667969 28.527344 38.230469-22.070313c2-1.132812 4.535157-.484375 5.742188 1.472656 1.203125 1.957032.644531 4.519532-1.269531 5.789063l-13.707032 8.980469 9.25-5.34375c1.984375-1.152344 4.523438-.535156 5.75 1.402344 1.230469 1.9375.707032 4.5-1.183594 5.800781l-42.09375 29.191406 37.546876-21.664063c1.992187-1.179687 4.558593-.558593 5.789062 1.402344 1.230469 1.960938.671875 4.546875-1.257812 5.824219l-14.753907 9.984375 10.238281-5.90625c1.960938-1.132812 4.46875-.535156 5.707032 1.363281 1.238281 1.894531.777344 4.429688-1.046875 5.769531l-32.425781 23.765626 27.773437-16.042969c1.933594-1.140625 4.421875-.585938 5.6875 1.265625 1.269531 1.851562.886719 4.367187-.875 5.757812l-29.320313 23.621094 24.535157-14.164062c1.929687-1.097657 4.378906-.53125 5.628906 1.304687 1.253906 1.832031.890625 4.316406-.832031 5.71875l-9.773438 7.789063 4.992188-2.875c1.664062-.953126 3.757812-.679688 5.121094.664062 1.363281 1.351562 1.65625 3.445312.714843 5.121094l-8.386719 14.832031 2.558594-1.476563c1.324219-.84375 3-.890624 4.371094-.125 1.367188.761719 2.207031 2.214844 2.1875 3.78125-.023438 1.566407-.902344 2.996094-2.289062 3.722657l-16.09375 9.34375c-1.664063.953125-3.757813.683593-5.121094-.664063-1.363282-1.351562-1.65625-3.445312-.71875-5.121094l8.390625-14.828124-40.703125 23.515624c-.652344.363282-1.390625.546876-2.136719.539063zm0 0" fill="#66d4f1"/><path d="m225.183594 255.203125c-1.695313-.003906-3.230469-1.007813-3.90625-2.5625-.679688-1.554687-.371094-3.363281.78125-4.605469l7.800781-8.40625-16.136719 9.316406c-1.878906 1.035157-4.230468.515626-5.5-1.214843-1.265625-1.730469-1.050781-4.128907.5-5.609375l6.828125-6.152344-8.3125 4.804688c-1.902343 1.089843-4.324219.558593-5.597656-1.222657-1.273437-1.785156-.984375-4.246093.664063-5.691406l2.882812-2.558594-.324219.1875c-1.796875 1.039063-4.085937.628907-5.414062-.96875-1.328125-1.597656-1.3125-3.921875.039062-5.5l7.960938-9.300781c-1.878907-.101562-3.472657-1.425781-3.914063-3.257812-.441406-1.832032.367188-3.738282 1.996094-4.6875l17.875-10.316407c1.800781-1.027343 4.074219-.617187 5.402344.972657 1.324218 1.59375 1.3125 3.90625-.023438 5.488281l-6.613281 7.738281 17.066406-9.855469c1.902344-1.089843 4.320313-.5625 5.59375 1.222657 1.273438 1.785156.988281 4.246093-.664062 5.6875l-2.875 2.511718 4.738281-2.730468c1.878906-1.035157 4.230469-.515626 5.496094 1.214843 1.269531 1.730469 1.054687 4.132813-.496094 5.609375l-6.828125 6.144532 5.972656-3.414063c1.828125-1.035156 4.132813-.589844 5.441407 1.050781 1.308593 1.640625 1.230468 3.988282-.183594 5.539063l-7.800782 8.394531.742188-.417969c1.324219-.839843 3-.886719 4.371094-.125 1.367187.765625 2.207031 2.21875 2.1875 3.785157-.023438 1.566406-.902344 2.996093-2.289063 3.722656l-25.3125 14.617187c-.648437.386719-1.390625.589844-2.148437.589844zm0 0" fill="#f4f6f8"/><path d="m355.078125 503.1875c-1.878906 0-3.539063-1.230469-4.082031-3.03125-.542969-1.796875.152344-3.742188 1.71875-4.785156l33.75-22.433594-51.449219 29.644531c-1.976563 1.105469-4.472656.472657-5.683594-1.4375-1.214843-1.910156-.722656-4.4375 1.117188-5.753906l83.796875-58.214844-110.027344 63.554688c-1.992188 1.117187-4.511719.464843-5.710938-1.480469-1.203124-1.945312-.660156-4.488281 1.230469-5.773438l78.667969-51.890624-87.292969 50.398437c-1.992187 1.117187-4.503906.46875-5.710937-1.464844-1.203125-1.9375-.675782-4.476562 1.203125-5.769531l101.546875-67.714844-105.34375 60.800782c-2.003906 1.164062-4.570313.519531-5.78125-1.457032-1.210938-1.972656-.625-4.554687 1.320312-5.8125l87.472656-57.003906-84.480468 48.777344c-2.003906 1.140625-4.550782.484375-5.75-1.484375-1.203125-1.964844-.625-4.53125 1.304687-5.792969l77.234375-49.878906-72.789062 42.027344c-2.003906 1.054687-4.480469.363281-5.648438-1.578126-1.164062-1.941406-.609375-4.457031 1.261719-5.726562l13.144531-8.21875-8.757812 5.054688c-1.992188 1.132812-4.523438.488281-5.734375-1.460938-1.207031-1.949219-.660157-4.503906 1.238281-5.785156l103.527344-69-98.988282 57.171875c-1.984374 1.101562-4.484374.453125-5.683593-1.472657-1.203125-1.925781-.6875-4.453124 1.171875-5.753906l95.460937-64.144531-91 52.503906c-1.996093 1.054688-4.472656.371094-5.644531-1.5625-1.167969-1.933593-.628906-4.445312 1.234375-5.726562l13.78125-8.761719-9.386719 5.410156c-2.003906 1.085938-4.5.40625-5.683594-1.539062-1.179687-1.945313-.625-4.476563 1.261719-5.75l5.710938-3.640625-1.296875.742187c-1.992188 1.179688-4.5625.554688-5.792969-1.40625-1.226563-1.960937-.667969-4.542968 1.261719-5.824218l45.515625-30.890626-40.960938 23.664063c-1.980469 1.117187-4.488281.488281-5.703125-1.433594s-.710937-4.457031 1.148438-5.769531l32.304687-22.3125-27.75 16.015625c-1.957031 1.113281-4.4375.515625-5.675781-1.367187-1.234375-1.878907-.796875-4.394532 1-5.75l33.28125-24.746094-28.605469 16.511718c-1.949219 1.09375-4.414062.496094-5.648437-1.367187-1.230469-1.867187-.816406-4.367187.957031-5.730469l15.488281-11.699218-10.796875 6.226562c-1.910156 1.078125-4.328125.527344-5.585937-1.269531-1.257813-1.796875-.949219-4.253907.714844-5.683594l11.347656-9.53125-5.453125 3.148437c-1.855469 1.042969-4.195313.558594-5.484375-1.132812-1.289063-1.695312-1.132813-4.082031.367187-5.59375l8.292969-8.222656c-.820312-.375-1.503906-.992188-1.953125-1.769532-1.179687-2.039062-.480469-4.648437 1.558594-5.828124l19.6875-11.363282c1.851562-1.03125 4.179687-.542968 5.464843 1.140625 1.285157 1.6875 1.140626 4.058594-.34375 5.574219l-3.414062 3.414062 19.207031-11.09375c1.914063-1.09375 4.34375-.550781 5.609375 1.253907 1.265625 1.800781.953125 4.273437-.726562 5.699219l-11.339844 9.523437 28.550781-16.46875c1.953125-1.117187 4.4375-.53125 5.679688 1.347656 1.242187 1.875.8125 4.390625-.976563 5.75l-15.496094 11.675781 32.570313-18.773437c1.957031-1.113281 4.4375-.515625 5.675781 1.367187 1.234375 1.878907.796875 4.394532-1 5.75l-33.277344 24.6875 55.140626-31.804687c1.976562-1.105469 4.46875-.472656 5.683593 1.4375 1.214844 1.910156.722657 4.4375-1.117187 5.753906l-32.324219 22.332031 51.199219-29.53125c1.984375-1.117187 4.496094-.480468 5.703125 1.449219 1.210937 1.929688.695312 4.46875-1.171875 5.769531l-45.484375 30.871094 65.945312-38.082031c2.003907-1.121094 4.535157-.453125 5.730469 1.507813 1.191406 1.960937.617188 4.515624-1.300781 5.777343l-5.699219 3.636719 18.925781-10.921875c2-1.085937 4.5-.40625 5.683594 1.539063 1.179687 1.945312.625 4.472656-1.261719 5.746093l-13.945312 8.851563 23.816406-13.738282c1.292969-.808593 2.917969-.867187 4.265625-.148437 1.34375.714844 2.207031 2.09375 2.261719 3.617187.050781 1.523438-.710938 2.957032-2.003906 3.765626l-95.445313 64.113281 105.378906-60.835938c1.992188-1.132812 4.523438-.488281 5.734375 1.457031 1.207032 1.949219.664063 4.503907-1.238281 5.789063l-103.5 68.972656 105.523437-60.925781c2.015626-1.164062 4.589844-.496094 5.789063 1.496094 1.195313 1.996094.578125 4.582031-1.394531 5.816406l-13.132813 8.207031 9.652344-5.570312c2-1.140625 4.546875-.484375 5.75 1.484375 1.203125 1.964844.625 4.53125-1.304687 5.792968l-77.246094 49.878907 72.800781-42.027344c1.992187-1.097656 4.5-.4375 5.691406 1.503906 1.191407 1.941407.652344 4.476563-1.230469 5.757813l-87.464843 57.003906 83.003906-47.914062c1.984375-1.085938 4.472656-.429688 5.667969 1.492187 1.195312 1.921875.679687 4.441406-1.171875 5.742187l-101.546875 67.703126 97.050781-56.011719c1.984375-1.070313 4.464844-.40625 5.652344 1.511719 1.183593 1.921874.671875 4.433593-1.175781 5.734374l-78.71875 51.925782 74.242187-42.855469c1.96875-1.070313 4.429687-.429687 5.632813 1.460937 1.203124 1.894532.734374 4.394532-1.070313 5.722657l-83.789063 58.214843 79.234376-45.746093c1.992187-1.132813 4.523437-.492188 5.734374 1.457031 1.207032 1.949219.664063 4.503906-1.238281 5.785156l-33.75 22.460938 29.253907-16.84375c1.953124-1.101563 4.425781-.507813 5.660156 1.367187 1.234375 1.871094.808594 4.378907-.976563 5.742188l-54.40625 40.601562 49.722657-28.699219c1.960937-1.132812 4.46875-.535156 5.707031 1.363282 1.238281 1.894531.777343 4.429687-1.046875 5.769531l-25.882813 18.996094 21.222657-12.246094c1.878906-1.078125 4.269531-.570313 5.554687 1.175781 1.285156 1.742188 1.058594 4.175782-.53125 5.652344l-27.195313 25.078125 21.828126-12.59375c1.824218-1.058594 4.152343-.628906 5.472656 1.015625 1.320312 1.648438 1.238281 4.011719-.1875 5.5625l-10.445313 11.417969c1.996094-.195313 3.859375 1.027343 4.476563 2.9375.617187 1.910156-.179688 3.992187-1.917969 5l-21.417969 12.3125c-1.824218 1.058593-4.148437.625-5.46875-1.019531-1.324218-1.644532-1.242187-4.007813.1875-5.558594l9.640625-10.53125-31.121093 17.960937c-1.878907 1.0625-4.257813.554688-5.535157-1.1875-1.277343-1.738281-1.054687-4.160156.519531-5.636719l27.175782-25.089843-55.269532 31.914062c-1.960937 1.136719-4.464843.535157-5.707031-1.359375-1.238281-1.898437-.777343-4.433594 1.050781-5.773437l25.878907-18.996094-45.277344 26.128906c-1.953125 1.105469-4.425781.507813-5.660156-1.367187-1.234375-1.871094-.808594-4.378906.976562-5.738282l54.398438-40.585937-82.644531 47.691406c-.644532.386719-1.382813.597657-2.132813.605469zm0 0" fill="#d94452"/><g fill="#262626"><path d="m506.988281 309.78125c-5.375-33.382812-29.976562-35.054688-56.746093-35.140625 3.269531-16.191406 5.140624-32.632813 5.597656-49.144531-.800782-38.691406-11.558594-76.527344-31.234375-109.855469 1.246093-.898437 2.082031-2.023437.300781-3.074219-.738281-.34375-1.554688-.476562-2.363281-.390625-19.589844-31.5625-46.523438-57.910156-78.507813-76.800781l.527344-.921875c1.53125-2.644531-1.355469-4.402344-3.632812-4.667969-1.699219-.148437-3.40625.175782-4.933594.9375-31.539063-17.140625-66.542969-26.941406-102.398438-28.671875-1.589844-2.816406-7.167968-2.492187-10.179687-.375-37.488281-.148437-74.382813 9.371094-107.121094 27.640625-1.613281.351563-3.09375 1.15625-4.265625 2.320313-21.667969 12.808593-41.082031 29.09375-57.464844 48.207031-8.59375 10-16.273437 20.757812-22.945312 32.136719-.050782.03125-.097656.070312-.144532.109375-1.148437.96875-1.871093 2.347656-2.015624 3.839844-19.046876 33.878906-29.117188 72.066406-29.25 110.933593-.2812505.382813-.2812505.90625 0 1.289063-.035157 42.035156 11.796874 83.230468 34.132812 118.84375 19.144531 30.429687 45.488281 55.679687 76.707031 73.515625.515625.558593 1.207031.925781 1.960938 1.03125 48.300781 26.445312 104.214843 35.511719 158.394531 25.675781.292969 5.769531.691406 11.496094 1.402344 17.066406 3.820312 30.609375 23.328125 36.933594 50.191406 37.546875 36.855469.855469 73.839844 0 110.703125 0 18.492187 0 41.378906 3.148438 57.371094-8.59375 22.9375-16.851562 15.957031-52.785156 15.957031-77.464843zm-273.066406 135.101562v-24.167968c0-2.558594-12.355469-.632813-12.355469 3.3125v19.90625c-3.996094-.339844-7.238281-.640625-9.15625-.769532-16.660156-1.214843-33.109375-4.441406-48.992187-9.605468-13.707031-4.4375-26.929688-10.25-39.464844-17.347656l11.460937-19.84375c3.0625-5.3125-9.386718-4.433594-11.605468-.585938-2.914063 5.039062-5.820313 10.078125-8.722656 15.121094-29.65625-18.71875-54.433594-44.230469-72.277344-74.421875l18.695312-10.792969c1.800782-1.03125 3.515625-2.789062 1.246094-4.214844-2.269531-1.425781-6.78125.195313-8.710938 1.3125l-14.363281 8.277344c-1.5-2.710938-2.976562-5.453125-4.367187-8.234375-14.535156-29.246094-22.207032-61.421875-22.425782-94.078125h14.617188c3.089844.167969 6.152344-.652344 8.746094-2.339844 1.613281-1.304687 1.929687-2.953125-.792969-2.953125h-22.621094c.574219-34.949219 9.308594-69.277343 25.515625-100.25l14.699219 8.484375c2.816406 1.636719 6.34375 1.382813 8.894531-.640625 1.910156-1.535156 3.34375-5.1875.554688-6.828125l-18.722656-10.757812c17.179687-29.367188 41.128906-54.199219 69.851562-72.433594l10.34375 17.921875c2.910156 5.050781 14.636719.246094 11.28125-5.5625l-10.761719-18.757813c29.742188-16.457031 63.035157-25.441406 97.015625-26.179687v21.957031c0 6.039063 12.476563 3.898438 12.476563-1.144531v-20.703125c34.09375 1.472656 67.308593 11.246094 96.769531 28.46875-3.574219 6.195312-7.152344 12.390625-10.734375 18.585938-1.527344 2.652343 1.355469 4.402343 3.632813 4.675781 3.164062.359375 6.269531-1.042969 8.089843-3.652344l8.125-14.082031c29.199219 18.949218 53.660157 44.351562 71.5 74.242187l-17.304687 10c-1.65625.957031-3.644532 2.433594-1.367188 3.773438 2.066406 1.21875 6.828125-.375 8.679688-1.433594l12.800781-7.417969c17.628906 31.148438 27.578125 66.050782 29.011719 101.8125h-15.179688c-3.085937-.140625-6.136718.679688-8.738281 2.347656-1.640625 1.277344-1.945313 2.789063.75 2.789063h23.320313c.304687 12.359375-.816407 24.710937-3.335938 36.8125-.839844 2.292969-1.039062 4.769531-.578125 7.167969-.546875.164062-1.109375.339844-1.800781.605468-1.707032.625-3.464844 1.085938-5.257813 1.382813h-23.773437c-7.140625-.613281-14.070313-1.382813-19.5-1.382813-24.496094 0-50.96875-3.011718-75.332032 0-7.566406.820313-14.816406 3.503907-21.09375 7.808594-3.351562 1.804688-6.410156 4.105469-9.070312 6.828125-6.757812 7.882813-10.699219 17.789063-11.203125 28.160157-5.011719 24.171874-2.152344 54.039062-.523437 78.0625-.648438 16.261718-1.261719 32.707031-.679688 48.777343-6.109375 3.257813-22.871094 2.917969-37.265625 1.988281zm236.109375 51.625c-25.363281 7.425782-62.492188 0-88.925781 0-34.03125 0-87.894531 11.453126-95.984375-33.125-1.082032-6.34375-1.710938-12.757812-1.878906-19.191406 1.042968-.582031 1.757812-1.617187 1.929687-2.800781v-65.28125c0-5.460937-.683594-12.6875-1.375-20.410156-1.371094-15.464844-.648437-31.046875 2.144531-46.320313 10.675782-24.113281 39.5-31.035156 70.945313-31.921875 14.976562.9375 29.867187 2.507813 41.761719 2.507813 3.6875 0 7.679687-.144532 11.800781-.324219 11.675781.855469 22.351562 1.707031 30.925781 1.707031 2.507812.0625 4.964844-.722656 6.972656-2.226562 22.425782 1.570312 42.222656 8.789062 46.285156 33.972656v81.066406c0 27.699219 12.148438 91.585938-24.601562 102.347656zm0 0"/><path d="m301.984375 229.003906c3.882813 0 13.363281-5.800781 5.117187-5.800781h-47.871093c-1.414063-13.457031-11.890625-24.175781-25.308594-25.898437v-100.855469c0-3.191407-12.355469-1.066407-12.355469 3.308593v97.546876c-14.75 1.8125-25.796875 14.398437-25.6875 29.257812-.460937 38.742188 57.695313 37.371094 63.199219 2.441406zm-74.890625 18.03125c-10.636719-1.574218-18.550781-10.640625-18.679688-21.390625-.558593-10.582031 7.433594-19.675781 17.996094-20.480469 11.480469.457032 20.578125 9.84375 20.679688 21.332032.320312 5.445312-1.664063 10.773437-5.472656 14.683594-3.804688 3.90625-9.078126 6.035156-14.53125 5.855468zm0 0"/><path d="m435.957031 335.332031-45.449219 45.457031-46.027343-46.039062c-2.636719-2.628906-14.21875 1.886719-11.574219 4.539062l49.554688 49.546876-48.90625 48.894531c-5.410157 5.410156 6.539062 7.117187 10.242187 3.414062l45.449219-45.457031 46.027344 46.035156c2.636718 2.628906 14.21875-1.886718 11.570312-4.539062l-49.550781-49.542969 48.902343-48.898437c5.429688-5.425782-6.519531-7.132813-10.238281-3.410157zm0 0"/></g></svg>