<svg height="507pt" viewBox="0 -2 507.89348 507" width="507pt" xmlns="http://www.w3.org/2000/svg"><path d="m13.027344 368.703125c-1.84375.019531-3.492188-1.152344-4.082032-2.898437-.59375-1.746094.003907-3.675782 1.480469-4.78125l14.070313-10.828126-13.730469 7.925782c-1.980469 1.132812-4.507813.503906-5.726563-1.425782-1.21875-1.933593-.699218-4.484374 1.179688-5.785156l10.667969-7.3125-7.84375 4.523438c-1.984375 1.082031-4.472657.429687-5.667969-1.492188s-.679688-4.445312 1.171875-5.746094l30.820313-20.582031-26.324219 15.214844c-2.015625 1.222656-4.644531.582031-5.867188-1.4375-1.222656-2.015625-.578125-4.644531 1.4375-5.867187l13.65625-8.761719-9.226562 5.347656c-1.988281 1.101563-4.492188.445313-5.6875-1.484375-1.199219-1.933594-.671875-4.464844 1.199219-5.757812l86.238281-57.292969-81.75 47.199219c-2.003907 1.136718-4.550781.480468-5.75-1.484376-1.203125-1.96875-.625-4.535156 1.304687-5.796874l46.078125-29.722657-41.632812 24.015625c-1.964844.933594-4.320313.238282-5.464844-1.613281-1.140625-1.851563-.707031-4.269531 1.011719-5.605469l45.226562-29.40625-40.773437 23.515625c-1.992188 1.085938-4.480469.421875-5.671875-1.507812-1.1875-1.929688-.660156-4.453125 1.199218-5.746094l50.722657-33.382813-46.25 26.695313c-1.984375 1.082031-4.472657.429687-5.667969-1.492187-1.195312-1.925782-.679688-4.445313 1.171875-5.746094l51.703125-34.421875-47.207031 27.246093c-1.988281 1.097657-4.492188.445313-5.6875-1.488281-1.199219-1.933593-.671875-4.464843 1.199219-5.757812l40.960937-27.203125-36.472656 21.042968c-1.984375 1.132813-4.507813.503907-5.726563-1.425781-1.21875-1.933593-.699218-4.484375 1.179688-5.785156l55.132812-37.980469-50.59375 29.207032c-1.972656 1.078124-4.445312.441406-5.648437-1.460938-1.203125-1.898438-.726563-4.40625 1.089843-5.730469l47.164063-32.632812-42.605469 24.585937c-1.96875 1.082032-4.441406.449219-5.652344-1.445312-1.207031-1.894532-.742187-4.398438 1.070313-5.730469l43.628906-30.601563-39.046875 22.535157c-1.960937 1.105469-4.441406.5-5.671875-1.382813-1.230469-1.886718-.78125-4.402344 1.019531-5.75l47.789063-34.945312-43.136719 24.894531c-1.949218 1.085937-4.402344.488281-5.636718-1.371094-1.230469-1.855469-.824219-4.351562.933593-5.722656l44.988281-34.074219-40.277343 23.253906c-1.933594 1.074219-4.371094.492188-5.609375-1.34375-1.234375-1.835937-.863282-4.3125.855468-5.703124l39.613282-30.992188-34.867188 20.128906c-1.960937 1.132813-4.46875.535156-5.707031-1.363281-1.238281-1.894531-.777344-4.429687 1.046875-5.769531l16.675781-12.238282-12.015625 6.921876c-1.90625 1.0625-4.304687.519531-5.566406-1.261719-1.257812-1.78125-.972656-4.226563.667969-5.667969l31.574219-26.921875-26.632813 15.359375c-1.957031 1.128906-4.449219.539062-5.695313-1.34375-1.242187-1.882812-.804687-4.410156 1-5.765625l3.609376-2.695313c-1.894532.46875-3.867188-.40625-4.789063-2.128906s-.554687-3.851562.890625-5.167968l19.140625-17.253907-14.199219 8.191407c-1.878906 1.007812-4.207031.476562-5.464844-1.242188-1.253906-1.722656-1.050781-4.105469.480469-5.585938l10.144531-9.101562-5.117187 2.96875c-1.785156 1.046875-4.058594.664062-5.402344-.90625s-1.371093-3.878906-.058593-5.476562l13.601562-16.574219-8.183594 4.730469c-1.796875 1.039062-4.082031.636718-5.414062-.957032-1.332032-1.59375-1.320313-3.914062.019531-5.496094l4.90625-5.777343c-1.421875.328125-2.910156-.109375-3.933594-1.152344-1.347656-1.359375-1.625-3.453125-.671875-5.117187l6.910156-11.949219c-.097656-.117188-.1875-.242188-.265624-.375-1.175782-2.039063-.476563-4.648438 1.5625-5.828125l4.472656-2.558594c1.660156-.96875 3.765625-.691406 5.121094.671875 1.351562 1.359375 1.628906 3.453125.679687 5.121094l-3.113281 5.359375 5.8125-3.355469c1.796875-1.039063 4.078125-.636719 5.410156.957031s1.324219 3.914063-.019531 5.496094l-4.503907 5.316406 7.320313-4.265625c1.785156-1.023437 4.046875-.628906 5.378906.941407 1.328125 1.566406 1.351563 3.863281.050781 5.457031l-13.585937 16.554687 20.351563-11.742187c1.875-1.007813 4.207031-.476563 5.464843 1.242187 1.253907 1.722656 1.050781 4.105469-.480469 5.585938l-10.148437 9.128906 13.824219-7.976562c1.894531-1.09375 4.304687-.578126 5.585937 1.1875 1.28125 1.769531 1.023438 4.21875-.601562 5.679687l-19.175781 17.246094 24.832031-14.335938c1.957031-1.128906 4.449219-.539062 5.695312 1.34375 1.242188 1.882813.804688 4.410157-1 5.765625l-2.507812 1.875 4.667969-2.6875c1.902343-1.0625 4.304687-.519531 5.5625 1.261719 1.257812 1.78125.972656 4.226563-.667969 5.667969l-31.519531 26.941406 38.988281-22.511719c1.960937-1.132812 4.46875-.535156 5.707031 1.359375 1.238281 1.898438.777344 4.433594-1.046875 5.773438l-16.699219 12.246094 20.339844-11.742188c1.941406-1.125 4.421875-.554688 5.675781 1.304688 1.253907 1.859374.855469 4.375-.914062 5.753906l-39.609375 30.964844 46.804687-27.023438c1.949219-1.109375 4.421875-.519531 5.664063 1.347656 1.242187 1.867188.824218 4.375-.953125 5.742188l-45.003907 34.132812 52.265626-30.171875c1.960937-1.105469 4.441406-.5 5.671874 1.386719 1.226563 1.882812.78125 4.398438-1.023437 5.746094l-47.707031 34.875 54.5625-31.496094c1.976562-1.15625 4.511718-.542969 5.746094 1.386719 1.234374 1.929687.722656 4.488281-1.15625 5.800781l-43.65625 30.605469 49.253906-28.429688c1.980468-1.121093 4.488281-.488281 5.703125 1.433594 1.214843 1.921875.710937 4.457031-1.148438 5.765625l-47.1875 32.632812 52.777344-30.472656c1.984375-1.132812 4.507813-.503906 5.726563 1.429688 1.21875 1.929687.699218 4.480468-1.175782 5.78125l-55.117187 37.964844 61.25-35.363282c1.992187-1.097656 4.492187-.441406 5.691406 1.488282 1.195313 1.933593.667969 4.464843-1.203125 5.757812l-40.957031 27.246094 45.429687-26.207032c1.992188-1.132812 4.527344-.488281 5.734375 1.460938 1.210938 1.949219.664063 4.503906-1.238281 5.785156l-51.625 34.371094 56.753906-32.765625c2-1.136719 4.539063-.484375 5.742188 1.472656 1.207031 1.957031.644531 4.515625-1.269532 5.789063l-50.746093 33.382812 55.601562-32.121094c2-1.117187 4.523438-.457031 5.71875 1.496094 1.195313 1.953125.636719 4.5-1.265625 5.773438l-45.328125 29.441406 49.628907-28.644531c1.996093-1.085938 4.492187-.414063 5.675781 1.523437 1.1875 1.9375.644531 4.460938-1.230469 5.746094l-45.96875 29.667969 50.195312-29.011719c1.988282-1.097656 4.492188-.445312 5.6875 1.488281 1.199219 1.933594.671876 4.464844-1.199218 5.757813l-86.273438 57.335937 52.90625-30.558593c2-1.070313 4.484375-.390626 5.660156 1.542968 1.175782 1.933594.636719 4.453125-1.230468 5.734375l-32.425782 20.769531c1.707032.316407 3.054688 1.636719 3.402344 3.339844.351563 1.703125-.367187 3.445313-1.816406 4.410156l-38.78125 25.898438c1.847656.039062 3.460938 1.269531 3.992188 3.046875.527343 1.773437-.148438 3.6875-1.671876 4.734375l-32.144531 22.085938c1.273438.683593 2.113281 1.96875 2.230469 3.414062.117188 1.441406-.503906 2.84375-1.652344 3.726562l-35.472656 27.308594c.152344.1875.292969.386719.410156.597656 1.171875 2.039063.472656 4.640626-1.5625 5.816407l-29.003906 16.734375c-.65625.386718-1.402344.585937-2.160156.582031zm0 0" fill="#457393"/><path d="m254.394531 230.179688c-1.8125 0-3.425781-1.140626-4.027343-2.851563-.601563-1.707031-.058594-3.609375 1.355468-4.742187l10.359375-8.328126-18.160156 10.480469c-1.96875 1.09375-4.449219.472657-5.664063-1.425781-1.21875-1.894531-.75-4.410156 1.066407-5.742188l31.257812-22.128906-35.953125 20.746094c-1.996094 1.117188-4.523437.457031-5.71875-1.496094-1.195312-1.953125-.636718-4.5 1.265625-5.773437l2.722657-1.75-4.96875 2.859375c-2.007813 1.226562-4.632813.597656-5.863282-1.414063-1.230468-2.011719-.597656-4.636719 1.410156-5.867187l48.367188-31.28125-52.710938 30.453125c-2 1.164062-4.566406.519531-5.78125-1.457031-1.210937-1.972657-.625-4.554688 1.320313-5.8125l124.671875-81.40625-133.070312 76.796874c-2.011719 1.109376-4.535157.425782-5.71875-1.542968-1.179688-1.96875-.589844-4.515625 1.332031-5.769532l53.300781-33.066406-57.039062 32.921875c-2.003907 1.121094-4.535157.453125-5.726563-1.507812-1.191406-1.960938-.617187-4.515625 1.300781-5.78125l111.597656-71.261719-118.347656 68.320312c-1.308594.785157-2.9375.8125-4.269531.070313-1.335937-.738281-2.171875-2.132813-2.199219-3.660156-.023437-1.523438.765625-2.949219 2.074219-3.734375l45.226563-28.160156-48.785157 28.160156c-2 1.085937-4.5.410156-5.683593-1.535156-1.179688-1.949219-.625-4.476563 1.261718-5.75l77.757813-49.453126-82.960938 47.890626c-1.992187 1.097656-4.492187.445312-5.691406-1.488282-1.195313-1.933594-.667969-4.464844 1.203125-5.757812l108.585938-72.105469-116.976563 67.523437c-2 1.070313-4.492187.386719-5.664063-1.558593-1.171874-1.941407-.617187-4.464844 1.261719-5.734375l33.082031-20.898438-36.460937 21.050782c-1.996094 1.15625-4.554687.515624-5.769531-1.445313-1.214844-1.964844-.648438-4.539063 1.28125-5.808594l78.828125-52.257812-85.425781 49.3125c-1.984376 1.101562-4.484376.453125-5.6875-1.472657-1.199219-1.921874-.683594-4.453124 1.175781-5.753906l70.558593-47.300781-77.011718 44.460937c-1.972656 1.105469-4.464844.484376-5.683594-1.421874s-.738281-4.429688 1.09375-5.757813l76.609375-54.039063-85.144531 49.152344c-2.003906 1.164063-4.566406.515625-5.78125-1.457031-1.210938-1.976563-.625-4.554687 1.320312-5.816406l18.421875-12.039063-21.476562 12.390625c-1.972657 1.125-4.476563.507813-5.703125-1.398437-1.226563-1.910156-.746094-4.445313 1.09375-5.769532l52.34375-37.273437-59.027344 34.054687c-1.945312 1.101563-4.410156.515626-5.648438-1.347656-1.242187-1.859375-.835937-4.363281.929688-5.734375l50.203125-38.144531-58.195313 33.546875c-1.972656 1.140625-4.492187.535156-5.726562-1.375-1.234375-1.914063-.75-4.460937 1.101562-5.785156l23.816407-17.109375-28.015625 16.171875c-1.929688 1.09375-4.378906.527343-5.632813-1.304688-1.25-1.832031-.886719-4.320312.835938-5.71875l29.441406-23.457031-35.515625 20.476562c-1.902344 1.042969-4.277344.496094-5.53125-1.269531s-.988281-4.191406.625-5.640625l22.519531-19.371094-28.382812 16.382813c-1.914063 1.128906-4.371094.601563-5.652344-1.210937-1.28125-1.816407-.957031-4.308594.746094-5.734376l10.332031-8.746093-13.804688 7.960937c-1.714843.992188-3.886718.671875-5.242187-.769531-1.359375-1.441406-1.542969-3.628906-.453125-5.28125l10.796875-16.296875-18.101563 10.425781c-1.546874.90625-3.496093.746094-4.875-.398437-1.378906-1.144532-1.894531-3.03125-1.292968-4.71875l2.558594-7.425782-6.140626 3.609376c-2.027343 1.0625-4.527343.335937-5.671874-1.644532-1.144532-1.980468-.527344-4.507812 1.402343-5.734375l16.078125-9.292969c1.546875-.90625 3.496094-.746093 4.875.398438 1.382813 1.144531 1.898438 3.03125 1.292969 4.71875l-2.558594 7.425781 23.832031-13.789062c1.714844-.992188 3.882813-.671875 5.242188.765625 1.359375 1.441406 1.546875 3.632812.453125 5.28125l-10.796875 16.273437 38.707031-22.320312c1.910157-1.105469 4.34375-.570313 5.617188 1.230469 1.273437 1.800781.964843 4.273437-.710938 5.707031l-10.300781 8.746093 27.207031-15.683593c1.902344-1.078125 4.3125-.542969 5.578125 1.242187 1.265625 1.78125.980469 4.234375-.664062 5.675782l-22.519532 19.371093 45.558594-26.289062c1.929688-1.097657 4.378906-.53125 5.632813 1.304687 1.25 1.832032.886719 4.316406-.835938 5.71875l-29.421875 23.429688 52.777344-30.453125c1.96875-1.144531 4.488281-.539063 5.722656 1.375 1.238282 1.910156.753906 4.457031-1.097656 5.78125l-23.824219 17.09375 42.050781-24.25c1.945313-1.101563 4.414063-.515625 5.652344 1.347656 1.242188 1.859375.832032 4.363281-.933594 5.734375l-50.175781 38.144531 78.4375-45.226562c1.972657-1.125 4.476563-.511719 5.703125 1.398437 1.230469 1.90625.746094 4.441406-1.09375 5.769532l-52.351562 37.253906 76.996094-44.421875c1.996093-1.101563 4.5-.4375 5.695312 1.503906 1.191406 1.9375.648438 4.472656-1.230469 5.757813l-18.441406 12.03125 33.476563-19.292969c1.96875-1.109375 4.464843-.484375 5.683593 1.417969 1.21875 1.90625.738281 4.429687-1.09375 5.757812l-76.621093 54.007812 106.042968-61.183593c1.988282-1.101563 4.484375-.453125 5.6875 1.472656 1.203125 1.921875.6875 4.453125-1.171875 5.753906l-70.597656 47.300781 94.5-54.527343c1.992187-1.136719 4.523437-.492188 5.734375 1.457031 1.207031 1.949219.660156 4.503906-1.238281 5.785156l-78.824219 52.234375 103.074219-59.476562c2.003906-1.070313 4.492187-.386719 5.664062 1.558593 1.175781 1.941407.621094 4.464844-1.257812 5.734376l-33.152344 20.910156 48.921875-28.203125c1.988281-1.101563 4.492188-.445313 5.6875 1.488281 1.199219 1.929688.667969 4.460938-1.199219 5.753906l-108.570312 72.117188 137.445312-79.359375c2.003907-1.121094 4.535157-.453125 5.730469 1.507812 1.191406 1.960938.617188 4.515625-1.300781 5.777344l-77.816407 49.441406 98.347657-56.726562c2.011719-1.109375 4.535156-.425781 5.71875 1.542969 1.179687 1.96875.589843 4.515624-1.332031 5.769531l-45.160157 28.082031 61.167969-35.308594c2.007812-1.179687 4.589844-.527344 5.800781 1.460938 1.210938 1.988281.605469 4.582031-1.363281 5.824218l-111.648438 71.3125 125.539063-72.472656c1.308594-.785156 2.9375-.808594 4.269531-.070312 1.332032.742187 2.167969 2.136718 2.191406 3.664062.023438 1.523438-.765624 2.945313-2.074218 3.726563l-53.1875 32.992187 34.371094-19.839844c2-1.136718 4.539062-.484374 5.742187 1.472657 1.207031 1.957031.644531 4.515625-1.269531 5.789062l-124.679688 81.40625 64.203125-37.066406c2.003907-1.140625 4.550781-.484375 5.753907 1.480469 1.199218 1.96875.621093 4.535156-1.308594 5.796875l-48.367188 31.28125 5.558594-3.199219c2-1.140625 4.546875-.480469 5.75 1.484375 1.203125 1.96875.625 4.535156-1.304688 5.796875l-29.917968 19.34375c1.445312.585938 2.457031 1.917969 2.632812 3.46875.179688 1.550781-.503906 3.074219-1.78125 3.972656l-41.855468 29.628906c1.574218.390626 2.789062 1.640626 3.136718 3.222657.34375 1.585937-.234375 3.226562-1.496094 4.242187l-34.136718 27.433594c.910156 2 .152344 4.363281-1.746094 5.460938l-18.210938 10.523437c-.632812.371094-1.351562.566406-2.082031.570313zm0 0" fill="#5e8faa"/><path d="m290.660156 203.472656c-1.929687 0-3.621094-1.296875-4.121094-3.164062-.5-1.863282.316407-3.832032 1.988282-4.796875l8.625-4.976563c1.324218-.761718 2.949218-.761718 4.273437.003906 1.320313.761719 2.132813 2.171876 2.132813 3.699219 0 1.523438-.816406 2.933594-2.136719 3.695313l-8.628906 4.976562c-.648438.371094-1.382813.5625-2.132813.5625zm0 0" fill="#365972"/><path d="m174.292969 384.285156c-1.90625.003906-3.582031-1.25-4.113281-3.078125-.527344-1.828125.214843-3.785156 1.824218-4.796875l14.933594-9.449218-29.011719 16.742187c-1.992187 1.101563-4.492187.445313-5.691406-1.488281-1.195313-1.929688-.667969-4.460938 1.203125-5.753906l83.136719-54.957032-107.714844 62.175782c-2.007813 1.070312-4.503906.378906-5.671875-1.574219s-.597656-4.476563 1.292969-5.738281l2.859375-1.777344-15.726563 9.089844c-2 1.097656-4.511719.429687-5.699219-1.519532-1.1875-1.949218-.632812-4.488281 1.261719-5.761718l75.699219-48.511719-96.671875 55.792969c-1.992187 1.082031-4.484375.417968-5.671875-1.507813-1.191406-1.929687-.664062-4.453125 1.199219-5.746094l118.707031-77.902343-147.507812 85.15625c-1.996094 1.097656-4.5.4375-5.691407-1.503907-1.195312-1.941406-.652343-4.476562 1.230469-5.757812l130.480469-84.984375-152.039063 87.808594c-2.011718 1.222656-4.636718.582031-5.859375-1.433594-1.222656-2.015625-.582031-4.640625 1.433594-5.863282l72.285156-46.003906-60.535156 34.945313c-2.007813 1.175781-4.589844.527343-5.800781-1.460938-1.210938-1.992187-.605469-4.582031 1.363281-5.828125l58.777344-37.734375-14.566407 8.40625c-1.984374 1.132813-4.507812.503907-5.726562-1.429687-1.21875-1.929688-.699219-4.480469 1.179688-5.78125l65.757812-44.886719-12.484375 7.210937c-1.984375 1.15625-4.523437.535157-5.75-1.402343-1.230469-1.9375-.707031-4.496094 1.183594-5.796875l34.984375-24.203125c-.679688-.316407-1.269532-.804688-1.703125-1.414063-1.28125-1.792968-.988281-4.257812.671875-5.703125l46.992187-40.804687c-.230469-1.714844.59375-3.398438 2.09375-4.265625l8.804688-5.121094c1.90625-1.113281 4.34375-.589844 5.625 1.207031s.980469 4.273438-.691407 5.714844l-23.699218 20.574219 29.867187-17.257813c1.980469-1.117187 4.488281-.484375 5.703125 1.4375 1.214844 1.917969.710938 4.457032-1.144531 5.765625l-17.066406 11.8125 20.367187-11.761719c1.988282-1.152343 4.53125-.523437 5.753906 1.421876 1.222657 1.941406.6875 4.507812-1.214843 5.796874l-65.765625 44.886719 72.414062-41.8125c2.011719-1.226562 4.640625-.59375 5.867188 1.421875 1.226562 2.011719.589844 4.636719-1.421875 5.863282l-58.878907 37.789062 75.492188-43.574219c2.003906-1.117187 4.535156-.453125 5.730469 1.507813 1.191406 1.964844.617187 4.519531-1.300781 5.78125l-72.113282 45.925781 118.867188-68.617187c2.003906-1.164063 4.570312-.515626 5.78125 1.457031 1.210937 1.972656.628906 4.554687-1.316406 5.8125l-130.5625 85.011719 139.09375-80.300782c1.996093-1.113281 4.511718-.460937 5.714843 1.484375 1.199219 1.941407.65625 4.488281-1.234375 5.769531l-118.664062 77.894532 127.042968-73.3125c2.011719-1.175782 4.59375-.527344 5.804688 1.464844 1.210938 1.988281.601562 4.578124-1.367188 5.824218l-75.730468 48.527344 81.066406-46.8125c2.003906-1.074219 4.5-.378906 5.667969 1.570312 1.171875 1.953126.601562 4.480469-1.292969 5.742188l-2.753906 1.707031 5.042968-2.910156c1.988282-1.070313 4.464844-.40625 5.652344 1.511719 1.1875 1.921875.671875 4.433594-1.171875 5.734375l-83.125 54.945312 89.855469-51.910156c2.007812-1.101563 4.523438-.425781 5.707031 1.53125 1.183594 1.960937.613281 4.503906-1.292969 5.765625l-15.019531 9.5 17.730469-10.242188c2.003906-1.164062 4.570312-.519531 5.78125 1.457032 1.214844 1.972656.628906 4.554687-1.316406 5.8125l-42.402344 27.546875 46.566406-26.878907c1.988282-1.132812 4.515625-.496093 5.730469 1.441407 1.210937 1.941406.679687 4.492187-1.207031 5.785156l-60.253906 40.78125 66.320312-38.289063c1.980469-1.101562 4.476562-.460937 5.683594 1.457032 1.207031 1.917968.707031 4.445312-1.144532 5.753906l-48.800781 33.203125 54.21875-31.300781c1.980469-1.117188 4.488281-.488282 5.703125 1.433594 1.214844 1.921874.710938 4.457031-1.144531 5.769531l-43.417969 30.054687 48.757813-28.160156c1.96875-1.113281 4.460937-.496094 5.6875 1.402344 1.222656 1.898437.753906 4.421875-1.070313 5.757812l-40.875 29.257813 46.609375-26.90625c1.964844-1.125 4.472657-.519531 5.703125 1.382812 1.234375 1.902344.765625 4.4375-1.070312 5.769531l-29.917969 21.605469 34.742187-20.058593c1.941407-1.109376 4.410157-.53125 5.65625 1.324218 1.246094 1.859375.847657 4.363282-.914062 5.738282l-30.054688 23.253906 35.839844-20.667969c1.929688-1.09375 4.378906-.527344 5.632813 1.304687 1.25 1.832032.886719 4.320313-.835938 5.71875l-21.128906 16.878907 26.011719-15.019531c1.933594-1.121094 4.40625-.5625 5.667968 1.285156 1.261719 1.847656.878907 4.355468-.875 5.746094l-9.597656 7.679687 12.746094-7.355469c1.90625-1.078125 4.320312-.539062 5.589844 1.246094 1.265625 1.789062.96875 4.246094-.683594 5.683594l-7.089844 6.078125 10.035156-5.796875c1.742188-1.003906 3.949219-.660156 5.300782.832031 1.347656 1.492187 1.472656 3.722656.296875 5.355469l-9.164063 12.800781 14.855469-8.578125c1.589844-.917969 3.589844-.714844 4.964844.503906 1.375 1.214844 1.816406 3.175782 1.09375 4.867188l-2.3125 5.417968 4.90625-2.835937c2.027343-1.058594 4.527343-.332031 5.671875 1.648437 1.144531 1.976563.527344 4.507813-1.402344 5.734376l-16.011719 9.25c-1.589843.917968-3.585937.714843-4.960937-.5-1.375-1.21875-1.816406-3.179688-1.097656-4.867188l2.324218-5.425781-20.960937 11.980469c-1.738281.996093-3.9375.648437-5.285157-.835938-1.347656-1.488281-1.476562-3.710938-.3125-5.34375l9.167969-12.800781-32.839843 18.980469c-1.902344 1.078124-4.320313.542968-5.585938-1.246094-1.265625-1.789063-.972656-4.246094.679688-5.683594l7.09375-6.074219-22.527344 13.003907c-1.9375 1.125-4.410156.5625-5.671875-1.285157-1.257813-1.847656-.878907-4.355469.875-5.746093l9.582031-7.613282-25.378906 14.644532c-1.929688 1.09375-4.378906.527343-5.628906-1.304688-1.253907-1.832031-.890626-4.320312.835937-5.71875l21.136719-16.871094-41.414063 23.894532c-1.941406 1.109374-4.410156.527343-5.65625-1.328126-1.246093-1.855468-.847656-4.359374.914063-5.738281l30.070312-23.253906-52.539062 30.320313c-1.96875 1.128906-4.472656.519531-5.707032-1.382813-1.230468-1.902344-.761718-4.433594 1.070313-5.769531l29.867187-21.554688-49.75 28.707032c-1.964843 1.109374-4.457031.496093-5.683593-1.402344-1.222657-1.898438-.753907-4.425782 1.070312-5.757813l40.898438-29.269531-63.113281 36.429688c-1.972657 1.078124-4.445313.4375-5.648438-1.460938-1.203125-1.902344-.726562-4.410156 1.09375-5.734375l43.382812-30.035156-64.519531 37.230469c-1.980469 1.074218-4.453125.425781-5.652343-1.480469-1.195313-1.90625-.707032-4.414063 1.121093-5.730469l48.808594-33.203125-69.972656 40.414063c-1.984375 1.113281-4.496094.476562-5.707031-1.453126-1.207032-1.925781-.691407-4.464843 1.175781-5.765624l60.363281-40.824219-83.25 48.042969c-1.996094 1.097656-4.5.4375-5.691406-1.503907-1.195313-1.941406-.652344-4.476562 1.230468-5.757812l42.359376-27.519531-60.210938 34.78125c-.660156.394531-1.410156.601562-2.175781.605468zm0 0" fill="#365972"/><path d="m489.1875 372.796875c-1.488281 0-2.871094-.777344-3.644531-2.054687-.773438-1.273438-.824219-2.859376-.136719-4.179688l5.34375-10.242188-10.242188 5.972657c-1.820312 1.046875-4.132812.613281-5.449218-1.023438-1.316406-1.640625-1.246094-3.992187.167968-5.546875l4.507813-4.941406-7.210937 4.15625c-1.8125 1.039062-4.109376.609375-5.425782-1.007812-1.320312-1.621094-1.273437-3.953126.109375-5.519532l13.300781-14.925781-19.242187 11.09375c-1.851563 1.03125-4.179687.542969-5.464844-1.140625-1.285156-1.6875-1.136719-4.058594.347657-5.574219l18.960937-18.832031-25.574219 14.726562c-1.882812 1.109376-4.300781.617188-5.597656-1.140624-1.300781-1.757813-1.0625-4.210938.554688-5.683594l26.621093-24.84375-34.40625 19.859375c-1.957031 1.136719-4.464843.550781-5.707031-1.34375-1.246094-1.890625-.796875-4.425781 1.023438-5.773438l7.808593-5.8125-10.554687 6.09375c-1.949219 1.101563-4.414063.511719-5.652344-1.347656-1.242188-1.859375-.835938-4.363281.933594-5.734375l21.410156-16.332031-25.910156 14.949219c-1.925782 1.085937-4.359375.519531-5.609375-1.300782-1.253907-1.820312-.90625-4.296875.796875-5.707031l41.40625-33.558594-49.613282 28.644531c-1.976562 1.140626-4.496093.523438-5.726562-1.394531-1.226562-1.917969-.734375-4.464843 1.125-5.78125l21.292969-15.078125-25.125 14.507813c-1.953125 1.109375-4.4375.511719-5.671875-1.367188-1.238282-1.878906-.800782-4.398437.996094-5.75l45.414062-33.726562-52.316406 30.191406c-1.960938 1.132813-4.46875.535156-5.707032-1.359375-1.238281-1.898438-.777343-4.433594 1.046876-5.773438l53.640624-39.355468-61.148437 35.300781c-1.96875 1.113281-4.460937.5-5.6875-1.402344-1.222656-1.898437-.753906-4.421875 1.070313-5.753906l58.539062-42.003906-65.972656 38.078125c-1.976563 1.152344-4.511719.542968-5.746094-1.386719s-.722656-4.492187 1.15625-5.800781l62.882812-44.242188-70.171874 40.503906c-2 1.203126-4.597657.570313-5.820313-1.417968-1.226563-1.988282-.628906-4.589844 1.339844-5.84375l27.308593-17.917969-30.824218 17.792969c-1.988282 1.097656-4.488282.441406-5.6875-1.488282-1.195313-1.933593-.667969-4.464843 1.199218-5.757812l47.011719-31.207031-51.824219 29.867187c-1.992187 1.097656-4.5.4375-5.691406-1.503906s-.652344-4.472656 1.230469-5.757812l37.273437-24.285157-41.234374 23.796875c-1.980469 1.101563-4.476563.464844-5.683594-1.453125-1.207032-1.917969-.703125-4.445312 1.144531-5.753906l84.796875-57.890625-92.816406 53.628906c-1.992188 1.15625-4.542969.523438-5.761719-1.429687-1.21875-1.957031-.667969-4.523438 1.246094-5.804688l89.242187-60.167969-97.074218 56.046876c-2.011719 1.125-4.550782.453124-5.742188-1.519532-1.1875-1.972656-.597656-4.535156 1.335938-5.785156l32.019531-20.171875c-1.820313-.128906-3.355469-1.398437-3.820313-3.160156-.46875-1.761719.230469-3.625 1.746094-4.640625l69.324219-46.601563-17.066407 9.867188c-1.988281 1.152343-4.53125.523437-5.753906-1.421875-1.222656-1.945313-.6875-4.507813 1.214844-5.800782l39.996094-27.304687c-1.765625-.1875-3.226563-1.449219-3.675782-3.164063-.449218-1.71875.214844-3.53125 1.660157-4.558593l32.359375-22.914063c-1.046875-.769531-1.6875-1.972656-1.738282-3.273437-.050781-1.296875.496094-2.550781 1.480469-3.398438l36.082031-30.992187c-.144531-1.652344.6875-3.234375 2.121094-4.0625l8.371094-4.847656c1.910156-1.097657 4.339844-.566407 5.613281 1.230468 1.273438 1.792969.972657 4.261719-.695312 5.699219l-11.207031 9.59375 12.546874-7.246094c1.972657-1.136719 4.492188-.523437 5.722657 1.394531 1.230469 1.917969.734375 4.464844-1.125 5.78125l-10.121094 7.175782 7.597656-4.375c1.984375-1.15625 4.527344-.527344 5.753907 1.417968 1.222656 1.945313.683593 4.507813-1.214844 5.800782l-30.933594 21.101562 27.042969-15.605468c1.984375-1.101563 4.484375-.453126 5.683593 1.46875 1.203126 1.925781.6875 4.457031-1.171874 5.757812l-69.324219 46.632812 64.8125-37.453124c2.007812-1.125 4.550781-.453126 5.738281 1.519531 1.1875 1.972656.597656 4.535156-1.335938 5.785156l-15.847656 9.984375 11.445313-6.605469c1.992187-1.152343 4.539062-.519531 5.757812 1.433594s.667969 4.523437-1.246093 5.804687l-89.257813 60.183594 84.746094-48.929687c1.984375-1.152344 4.527343-.523438 5.753906 1.421875 1.222656 1.941406.683594 4.507812-1.214844 5.796875l-84.804687 57.882812 80.265625-46.335937c2-1.164063 4.566406-.519532 5.78125 1.457031 1.210937 1.972656.625 4.554687-1.320313 5.8125l-37.296875 24.304687 32.835938-18.953124c1.996093-1.15625 4.550781-.515626 5.765625 1.445312 1.214844 1.964844.648437 4.539062-1.277344 5.808594l-46.984375 31.1875 42.496094-24.523438c1.988281-1.082031 4.480469-.421875 5.667969 1.507813 1.191406 1.929687.664062 4.453125-1.199219 5.746093l-27.390625 18.011719 22.921875-13.226562c1.976562-1.152344 4.511719-.542969 5.746093 1.386719 1.234376 1.933593.722657 4.492187-1.15625 5.800781l-62.898437 44.261719 58.316406-33.664063c1.964844-1.113281 4.460938-.496094 5.683594 1.402344 1.226563 1.898437.757813 4.421875-1.066406 5.757812l-58.515625 41.984375 53.898437-31.113281c1.960938-1.132813 4.46875-.535156 5.707031 1.359375 1.238282 1.898438.777344 4.433594-1.046874 5.773438l-53.660157 39.375 49-28.289063c1.957031-1.113281 4.4375-.515625 5.671875 1.367187 1.238282 1.878907.800782 4.394532-.996094 5.75l-45.433593 33.722657 40.757812-23.519531c1.972657-1.136719 4.492188-.523438 5.722657 1.394531 1.230468 1.917969.734374 4.464843-1.125 5.785156l-21.238282 14.992187 16.640625-9.601562c1.925781-1.082031 4.359375-.519531 5.609375 1.300781 1.253906 1.824219.90625 4.296875-.796875 5.707031l-41.414062 33.5625 36.601562-21.128906c1.945313-1.101562 4.410157-.515625 5.652344 1.347656 1.238281 1.859376.832031 4.363282-.933594 5.734376l-21.445312 16.367187 16.726562-9.652344c1.957031-1.140625 4.464844-.550781 5.707031 1.34375 1.246094 1.890625.796876 4.425781-1.023437 5.773438l-7.808594 5.792969 3.125-1.792969c1.882813-1.109375 4.296875-.613281 5.597657 1.140625 1.296874 1.757812 1.058593 4.214844-.554688 5.6875l-26.632812 24.839844 21.589843-12.457032c1.851563-1.03125 4.179688-.542968 5.464844 1.140625 1.285156 1.6875 1.136719 4.0625-.34375 5.574219l-18.953125 18.816406 13.804688-7.96875c1.8125-1.039062 4.109374-.609375 5.425781 1.007813 1.320312 1.617187 1.273437 3.953125-.109375 5.519531l-13.328125 14.933594 8.011719-4.617188c1.824218-1.046875 4.136718-.613281 5.453124 1.023438 1.316407 1.640625 1.246094 3.992187-.171874 5.546875l-4.625 5.121093c1.527343-.585937 3.253906-.230468 4.421874.910157 1.378907 1.308593 1.730469 3.375.855469 5.0625l-7.683593 14.695312c.421874.332031.777343.742188 1.042968 1.210938 1.179688 2.039062.480469 4.648437-1.5625 5.828125l-5.597656 3.234375c-.648438.363281-1.378906.550781-2.125.535156zm0 0" fill="#457393"/><path d="m209.003906 503.75c-1.890625.003906-3.558594-1.234375-4.097656-3.046875s.175781-3.761719 1.761719-4.792969l24.976562-16.292968-40.816406 23.527343c-1.992187 1.070313-4.472656.398438-5.652344-1.527343-1.183593-1.925782-.65625-4.441407 1.199219-5.734376l39.253906-25.503906-54.460937 31.433594c-2.003907 1.070312-4.492188.386719-5.664063-1.558594-1.171875-1.941406-.617187-4.464844 1.261719-5.734375l4.34375-2.742187-9.941406 5.734375c-1.992188 1.101562-4.492188.445312-5.691407-1.488281-1.195312-1.929688-.667968-4.460938 1.203126-5.753907l91.304687-60.585937-97.550781 56.394531c-1.992188 1.117187-4.503906.46875-5.710938-1.464844-1.203125-1.9375-.675781-4.476562 1.203125-5.769531l105.710938-70.417969-106.019531 61.167969c-1.996094 1.117188-4.519532.457031-5.71875-1.496094-1.195313-1.953125-.636719-4.503906 1.265624-5.777344l87.261719-56.796874-82.847656 47.789062c-1.988281 1.082031-4.476563.425781-5.671875-1.496094-1.191406-1.921875-.679688-4.441406 1.171875-5.742187l108.722656-72.398438-104.222656 60.214844c-1.992187 1.082031-4.484375.417969-5.671875-1.511719-1.191406-1.929687-.664062-4.453125 1.199219-5.742187l89.71875-58.976563-85.246094 49.222656c-2.003906 1.070313-4.492187.382813-5.664063-1.558593-1.175781-1.945313-.621093-4.464844 1.257813-5.738281l20.644531-13.03125-16.214844 9.386718c-1.984374 1.101563-4.484374.453125-5.6875-1.472656-1.199218-1.921875-.683593-4.453125 1.171876-5.753906l82.945312-55.96875-78.453125 45.257812c-1.972656 1.109375-4.46875.484375-5.6875-1.417968-1.21875-1.90625-.738281-4.429688 1.09375-5.757813l73.882813-52.128906-69.28125 40.003906c-1.976563 1.121094-4.484376.496094-5.703126-1.417969-1.222656-1.914062-.730468-4.449218 1.121094-5.765625l44.746094-31.40625-40.183594 23.1875c-1.929687 1.082031-4.367187.507813-5.613281-1.324219-1.242187-1.832031-.882813-4.308593.835937-5.707031l44.5625-35.285156-39.785156 22.960937c-1.929687 1.082032-4.367187.507813-5.613281-1.324218-1.242187-1.828125-.882813-4.308594.835937-5.707032l20.480469-16.210937-15.703125 8.976563c-1.921875 1.078124-4.351562.515624-5.601562-1.300782s-.910156-4.285156.78125-5.699218l5.375-4.367188c-1.765625.621094-3.734375.03125-4.871094-1.460938-1.296875-1.730468-1.089844-4.15625.476562-5.648437l7.503907-7.132813c-1.273438-.792968-2.03125-2.195312-2.007813-3.691406.027344-1.5.835938-2.871094 2.132813-3.621094l19.6875-11.367187c1.886719-1.1875 4.367187-.722656 5.699219 1.0625 1.328124 1.789063 1.058593 4.300781-.621094 5.765625l-.539063.503906 14.355469-8.277344c1.921875-1.101562 4.367188-.542968 5.625 1.28125 1.257812 1.820313.914062 4.304688-.796875 5.714844l-5.042969 4.09375 19.234375-11.089844c1.929688-1.082031 4.371094-.507812 5.613281 1.324219 1.246094 1.828125.882813 4.308594-.835937 5.707031l-20.480469 16.210938 40.355469-23.234375c1.933594-1.101563 4.386719-.535156 5.640625 1.304687 1.253906 1.839844.878906 4.332032-.851562 5.726563l-44.570313 35.257813 73.300781-42.289063c1.96875-1.082031 4.441406-.453125 5.648438 1.441406 1.210937 1.894531.742187 4.402344-1.066406 5.734375l-44.6875 31.34375 66.773437-38.519531c1.96875-1.109375 4.464844-.484375 5.683594 1.417969 1.21875 1.90625.738281 4.433594-1.09375 5.757812l-73.839844 52.105469 102.699219-59.28125c1.980468-1.0625 4.441406-.40625 5.632812 1.496094 1.191406 1.90625.703125 4.40625-1.117187 5.722656l-82.964844 55.996094 99.988281-57.753907c2.015625-1.21875 4.636719-.570312 5.855469 1.445313s.570313 4.640625-1.445313 5.859375l-20.597656 12.988281 23.746094-13.707031c1.996094-1.113281 4.511719-.460938 5.714844 1.484375 1.199218 1.941406.65625 4.488281-1.234375 5.769531l-89.789063 59.007813 92.210938-53.230469c1.996094-1.132812 4.527344-.488281 5.738281 1.457031 1.207031 1.949219.660156 4.503907-1.238281 5.789063l-108.683594 72.363281 105.601562-60.964844c1.992188-1.066406 4.472657-.398437 5.65625 1.53125 1.179688 1.925781.65625 4.441407-1.203124 5.730469l-87.269532 56.800781 82.773438-47.789062c1.992187-1.132813 4.527344-.488281 5.734375 1.460937 1.210937 1.945313.664062 4.5-1.238281 5.785156l-105.65625 70.390626 101.203124-58.417969c1.992188-1.097657 4.492188-.445313 5.6875 1.488281 1.199219 1.929688.671876 4.460938-1.199218 5.753906l-91.375 60.589844 86.886718-50.125c2.003907-1.070312 4.492188-.386719 5.664063 1.558594 1.171875 1.941406.617187 4.464844-1.261719 5.734375l-4.375 2.765625c1.996094-1.066406 4.480469-.390625 5.65625 1.542968 1.179688 1.9375.636719 4.453126-1.230468 5.738282l-39.210938 25.460937 34.757812-20.0625c2.003907-1.164062 4.570313-.515625 5.78125 1.457031 1.210938 1.976563.628907 4.554688-1.316406 5.816407l-25.011718 16.324219 20.554687-11.84375c1.960937-1.125 4.453125-.527344 5.691406 1.363281 1.238281 1.886719.789063 4.414062-1.023437 5.761719l-60.78125 44.839843 56.113281-32.425781c1.976563-1.105469 4.472656-.472656 5.683594 1.4375 1.214843 1.914062.722656 4.4375-1.117188 5.757812l-18.117187 12.601563 13.550781-7.816406c1.972656-1.125 4.476563-.507813 5.703125 1.398437 1.226562 1.910156.746094 4.445313-1.09375 5.769532l-8.996094 6.402343 4.386719-2.5625c1.941406-1.085937 4.390625-.5 5.628906 1.347657 1.238281 1.847656.851563 4.335937-.890625 5.71875l-10.890625 8.5 6.179688-3.558594c1.8125-1.035156 4.109375-.605469 5.425781 1.015625 1.320312 1.621093 1.269531 3.957031-.117188 5.519531l-13.5 15.019531 2.328126-1.339843c1.324218-.839844 3-.886719 4.367187-.125 1.371094.765624 2.210937 2.214843 2.1875 3.785156-.019531 1.566406-.898437 2.996094-2.289063 3.722656l-25.597656 14.769531c-1.816406 1.035157-4.113281.605469-5.429687-1.015625-1.316407-1.621094-1.265625-3.957031.121093-5.519531l13.5-15.027344-38.058593 21.9375c-1.941407 1.109375-4.410157.53125-5.65625-1.328125-1.246094-1.855468-.851563-4.359375.910156-5.738281l10.90625-8.414063-26.828125 15.480469c-1.964844 1.085938-4.4375.464844-5.652344-1.425781-1.214844-1.886719-.757812-4.394531 1.042969-5.734375l8.988281-6.398437-23.503906 13.558593c-1.96875 1.070313-4.429688.429688-5.632812-1.460937-1.203126-1.894532-.734376-4.394532 1.070312-5.722656l18.113281-12.613282-34.3125 19.796875c-1.957031 1.097657-4.425781.492188-5.65625-1.386719-1.226562-1.878906-.789062-4.382812 1-5.738281l60.757813-44.84375-90.046875 51.96875c-.644531.386719-1.378907.597657-2.132813.605469zm0 0" fill="#35ba9b"/><g fill="#262626"><path d="m507.765625 316.769531v-279.492187c-.824219-9.292969-4.601563-18.074219-10.777344-25.0625-.085937-.121094-.25-.164063-.367187-.257813-.121094-.09375-.238282-.398437-.519532-.578125-6.960937-4.414062-14.710937-7.441406-22.820312-8.910156-.210938-.851562-1.175781-1.457031-3.496094-1.457031h-6.828125c-11.917969-.753907-23.871093-.753907-35.789062 0h-353.101563c-6.3125-.164063-12.59375-.222657-18.773437 0h-12.175781c-1.820313.136719-3.566407.777343-5.042969 1.851562-8.472657 1.519531-16.578125 4.628907-23.894531 9.164063-.289063.152344-.546876.273437-.808594.441406l-.128906.070312c-.503907.347657-.96875.75-1.390626 1.195313-.15625.160156-.410156.289063-.546874.460937-14.738282 18.585938-10.835938 41.804688-10.835938 64.261719v235.386719c0 21.332031-3.175781 41.589844 10.859375 59.304688.105469.128906.300781.109374.421875.222656.121094.152344.261719.289062.417969.410156 7.285156 4.5625 15.304687 7.828125 23.703125 9.648438 1.203125 1.074218 2.789062 1.605468 4.394531 1.476562h2.894531c24.4375 2.707031 49.101563 2.707031 73.539063 0h19.78125c-1.917969 26.621094-1.742188 53.351562.527343 79.941406 3.824219 30.609375 23.324219 36.839844 50.160157 37.445313 36.863281.851562 73.839843 0 110.710937 0 18.492188 0 41.34375 3.097656 57.363282-8.609375 22.976562-16.796875 15.988281-52.667969 15.988281-77.347656v-32.265626c39.304687 1.304688 91.035156 9.992188 123.820312-11.390624.761719-.453126 1.414063-1.0625 1.917969-1.792969.382812-.421875.5625-.988281.496094-1.550781 12.355468-16.378907 10.300781-32.984376 10.300781-52.566407zm-17.066406 45.738281-185.667969-171.066406c17.507812-16.125 35.015625-32.25 52.511719-48.386718l131.902343-121.53125c3.902344 5.589843 5.992188 12.246093 5.972657 19.0625v262.359374c-.007813 18.953126 3.386719 41.789063-4.746094 59.5625zm-455.03125-354.558593c.847656.484375 1.820312.707031 2.796875.636719h424.894531c7.078125 1.300781 13.902344 3.738281 20.207031 7.210937l-163.894531 151.042969c-2.738281 2.558594-5.878906 5.742187-9.273437 9.324218l-14.71875 13.550782c-1.042969.40625-2.011719.980468-2.859376 1.707031-10.652343 9.796875-23.261718 27.785156-37.753906 27.683594-7.632812-1.785157-14.71875-5.402344-20.640625-10.539063-6.707031-6.109375-12.878906-13.515625-18.269531-18.484375l-192.324219-177.210937c.410157-2.097656 4.769531-3.738282 11.835938-4.921875zm-22.828125 292.589843v-220.5625c0-18.660156-3.140625-40.027343 4.984375-57.171874l129.65625 119.464843c10.238281 9.507813 31.121093 33.324219 52.964843 53.761719l-181.078124 166.824219c-10.238282-18.121094-6.527344-42.1875-6.527344-62.316407zm321.492187 196.632813c-25.351562 7.441406-62.503906 0-88.933593 0-34.082032 0-87.890626 11.460937-96.007813-33.230469-4.53125-25.09375 0-55.617187 0-81.066406 0-.9375 0-2.011719-.066406-3.035156.035156-.101563.0625-.203125.082031-.308594 0-27.757812-11.996094-86.707031 26.191406-98.023438 21.238282-6.289062 54.253906 0 76.183594 0 14.148438 0 30.859375-1.953124 46.933594-2.300781 13.539062-.820312 27.09375 1.339844 39.707031 6.320313 11.433594 6.644531 19.035156 18.324218 20.480469 31.472656v63.46875.53125 13.695312c-.027344 27.699219 12.125 91.707032-24.570313 102.476563zm101.078125-120.550781c-17.238281 0-44.097656 5.359375-60.40625 0-1.210937-.460938-2.480468-.746094-3.773437-.851563v-21.914062c1.027343-14.488281 1.027343-29.03125 0-43.519531-4.886719-33.058594-29.609375-36.121094-57.324219-36.121094h-111.71875c-20.558594 0-44.023438-1.90625-57.796875 16.945312-4.042969 5.683594-6.40625 12.390625-6.828125 19.355469-1.8125 15.722656-2.011719 31.59375-.597656 47.359375 0 1.800781-.050782 4.316406 0 7.03125 0 3.550781-.074219 7.105469-.179688 10.707031h-95.476562c-.265625.03125-.53125.074219-.792969.128907-8.152344-.851563-17.359375-2.320313-17.445313-4.855469 0 0 0-.085938.054688-.128907l4.476562-4.121093c.679688-.445313 1.296876-.988281 1.828126-1.601563 0-.078125.109374-.15625.152343-.230468l27.179688-25.039063c.484375-.425781 1.03125-.851563 1.484375-1.289063l148.421875-136.746093c7.691406 7.039062 15.925781 13.464843 24.625 19.210937 6.867187 6.289063 16.019531 9.480469 25.3125 8.820313 15.042969-2.15625 29.011719-18.507813 40.34375-30.285157l186.171875 171.523438c-14.898438 7.628906-31.207032 5.621094-47.710938 5.621094zm0 0"/><path d="m142.640625 51.988281h221.867187c7.046876 0 9.488282-9.046875 1.09375-9.046875h-221.867187c-7.050781 0-9.488281 9.046875-1.09375 9.046875zm0 0"/><path d="m260.296875 385.949219v-67.074219c0-1.933594-12.355469-.203125-12.355469 3.3125v63.761719h-59.527344c-3.816406 0-13.390624 5.691406-5.171874 5.691406h64.675781v67.082031c0 1.933594 12.355469.203125 12.355469-3.3125v-63.769531h59.554687c3.8125 0 13.386719-5.691406 5.117187-5.691406zm0 0"/></g></svg>