<svg height="505pt" viewBox="-83 0 505 505.83288" width="505pt" xmlns="http://www.w3.org/2000/svg"><path d="m322.871094 505.832031c-1.527344.003907-2.9375-.8125-3.703125-2.132812-.761719-1.324219-.757813-2.953125.007812-4.273438l1.910157-3.285156-4.726563 2.71875c-1.734375 1.003906-3.929687.667969-5.28125-.808594-1.355469-1.480469-1.492187-3.703125-.332031-5.34375l7.335937-10.375-11.878906 6.828125c-1.84375 1.074219-4.199219.625-5.511719-1.058594-1.316406-1.683593-1.183594-4.078124.308594-5.605468l7.679688-7.964844-11.09375 6.410156c-1.863282 1.089844-4.246094.613282-5.550782-1.105468-1.304687-1.71875-1.121094-4.144532.429688-5.644532l12.945312-12.621094-17.542968 10.128907c-1.867188 1.105469-4.265626.636719-5.578126-1.09375-1.308593-1.730469-1.113281-4.167969.457032-5.664063l22.296875-21.605468-29.242188 16.878906c-1.875 1.003906-4.207031.476562-5.464843-1.246094-1.253907-1.71875-1.050782-4.101562.480468-5.582031l28.519532-25.546875-35.839844 20.691406c-1.917969 1.101562-4.359375.558594-5.625-1.257812-1.265625-1.8125-.9375-4.292969.761718-5.714844l32.75-27.195313-39.671874 22.914063c-1.941407 1.105468-4.410157.527344-5.65625-1.328125-1.246094-1.855469-.847657-4.359375.910156-5.738281l33.425781-25.882813-39.390625 22.734375c-1.960938 1.132812-4.464844.535156-5.703125-1.363281-1.242187-1.894531-.78125-4.429688 1.046875-5.769531l31.007812-22.769532-35.976562 20.769532c-1.957031 1.125-4.453125.527343-5.6875-1.363282-1.238281-1.886718-.789062-4.414062 1.019531-5.761718l43.019531-31.8125-49.308593 28.484374c-1.996094 1.25-4.628907.640626-5.878907-1.355468-1.25-2-.640624-4.628906 1.359376-5.878906l10.84375-7.289063-13.429688 7.757813c-1.960938 1.121093-4.453125.523437-5.691406-1.363282-1.238282-1.890625-.789063-4.414062 1.023437-5.761718l60.859375-44.980469-69.027344 39.859375c-2 1.15625-4.558593.507812-5.769531-1.457032-1.210937-1.96875-.636719-4.546874 1.296875-5.8125l3.074219-1.996093-5.1875 2.996093c-1.988281 1.132813-4.515625.492188-5.730469-1.445312-1.214844-1.941406-.683594-4.492188 1.207032-5.785156l41.898437-28.347656-46.523437 26.855468c-1.992188 1.132813-4.527344.488282-5.734376-1.457031-1.210937-1.949219-.664062-4.503906 1.238282-5.789063l37.785156-25.121093-43.007812 24.824219c-2.027344 1.058593-4.527344.332031-5.671876-1.644532-1.144531-1.980468-.527343-4.511718 1.402344-5.738281l159.925782-92.328125c1.984374-1.0625 4.449218-.398438 5.632812 1.511719 1.1875 1.914062.683594 4.414062-1.144531 5.722656l-37.835938 25.171875 33.347657-19.25c1.980468-1.085938 4.464843-.4375 5.664062 1.476562 1.203125 1.914063.699219 4.433594-1.144531 5.742188l-41.898438 28.398438 37.378907-21.578126c2-1.167968 4.566406-.519531 5.78125 1.453126 1.210937 1.976562.625 4.558593-1.320313 5.816406l-3.855469 2.558594c1.992188-.761719 4.242188.066406 5.265625 1.9375 1.027344 1.871093.511719 4.210937-1.203125 5.480468l-60.828125 44.867188 56.160157-32.425782c1.984374-1.101562 4.484374-.453124 5.683593 1.472657 1.203125 1.921875.6875 4.453125-1.171875 5.753906l-10.957031 7.371094 6.445313-3.71875c1.957031-1.121094 4.453124-.523438 5.6875 1.363281 1.238281 1.890625.789062 4.414062-1.019532 5.761719l-42.976562 31.777343 38.308594-22.109374c1.960937-1.132813 4.464843-.535157 5.707031 1.363281 1.238281 1.894531.777343 4.429687-1.050781 5.769531l-31.058594 22.792969 26.402344-15.230469c1.9375-1.085938 4.390624-.5 5.628906 1.347656 1.238281 1.847656.847656 4.335938-.894532 5.71875l-33.398437 25.855469 28.664063-16.539063c1.914062-1.082031 4.34375-.53125 5.601562 1.277344 1.257812 1.804688.933594 4.273438-.746094 5.695313l-32.769531 27.203125 27.914063-16.101563c1.875-1.007812 4.207031-.476562 5.460937 1.242188 1.257813 1.722656 1.050781 4.105469-.480469 5.585937l-28.507812 25.539063 23.527344-13.578125c1.867187-1.105469 4.265624-.636719 5.574218 1.09375 1.3125 1.730468 1.117188 4.167968-.457031 5.664062l-22.289063 21.609375 17.195313-9.925781c1.863281-1.089844 4.25-.613281 5.554687 1.105469 1.304688 1.71875 1.117188 4.144531-.433593 5.644531l-13.003907 12.636719 7.839844-4.519531c1.84375-1.050782 4.175782-.59375 5.480469 1.078124 1.300781 1.671876 1.183594 4.046876-.28125 5.574219l-7.679687 7.964844 2.492187-1.433594c1.734375-1.003906 3.933594-.660156 5.285156.820313 1.351563 1.480468 1.488281 3.703125.328125 5.339844l-7.355468 10.394531 1.707031-1.007813c1.671875-.964844 3.785156-.683594 5.148437.683594 1.363282 1.367188 1.636719 3.480469.671875 5.152344l-3.277343 5.648437c1.613281.507813 2.777343 1.921875 2.960937 3.605469s-.644531 3.316406-2.109375 4.160156l-9.09375 5.25c-.628906.367188-1.339844.570313-2.066406.578125zm0 0" fill="#eb5463"/><path d="m15.621094 505.644531c-1.789063-.003906-3.386719-1.125-3.996094-2.808593-.613281-1.679688-.113281-3.5625 1.253906-4.71875l8.953125-7.515626-10.648437 6.152344c-1.949219 1.085938-4.40625.488282-5.636719-1.367187-1.234375-1.859375-.824219-4.355469.933594-5.722657l47.667969-36.140624-42.964844 24.765624c-1.988282 1.082032-4.476563.425782-5.671875-1.496093-1.191407-1.921875-.679688-4.441407 1.171875-5.742188l23.988281-16-19.488281 11.246094c-2 1.058594-4.472656.371094-5.644532-1.5625-1.171874-1.933594-.628906-4.441406 1.230469-5.722656l151.039063-95.855469-146.625 84.675781c-2.003906 1.085938-4.503906.40625-5.683594-1.539062-1.179688-1.945313-.625-4.476563 1.261719-5.75l157.097656-99.949219-152.675781 88.105469c-2.027344 1.207031-4.644532.542969-5.851563-1.480469s-.542969-4.640625 1.480469-5.847656l70.117188-43.230469-65.703126 37.957031c-2.011718 1.042969-4.488281.335938-5.640624-1.609375-1.15625-1.949219-.585938-4.460937 1.296874-5.722656l17.066407-10.402344-12.707031 7.332031c-2.007813 1.085938-4.511719.402344-5.6875-1.554687-1.175782-1.953125-.609376-4.488281 1.292968-5.75l121.273438-75.949219-116.90625 67.484375c-2.015625 1.113281-4.550782.425781-5.730469-1.554687-1.175781-1.980469-.570313-4.535156 1.371094-5.777344l60.339843-37.09375-55.980468 32.316406c-2.007813 1.125-4.550782.453125-5.738282-1.519531-1.191406-1.972656-.597656-4.535156 1.335938-5.785156l135.859375-85.53125-131.488281 75.949219c-2.027344 1.207031-4.644532.542968-5.851563-1.480469-1.207031-2.027344-.542969-4.644531 1.480469-5.851563l69.785156-43-65.414062 37.734375c-2.023438 1.152344-4.597656.472657-5.785156-1.53125-1.1875-2-.550782-4.585937 1.429687-5.804687l36.398437-22.265625-32.042968 18.5c-2.007813 1.074219-4.503906.382812-5.671875-1.570313s-.601563-4.480468 1.292969-5.742187l101.109374-62.863281-96.730468 55.847656c-2.007813 1.089844-4.515625.40625-5.691406-1.550782-1.175782-1.953124-.605469-4.488281 1.296874-5.753906l123.730469-77.515625-119.335937 68.882813c-2.003906 1.070312-4.492188.382812-5.664063-1.558594-1.175781-1.945312-.621093-4.464844 1.257813-5.738281l142.132812-89.78125-137.726562 79.507812c-2.015625 1.132813-4.570313.457031-5.757813-1.527343-1.1875-1.988282-.574219-4.558594 1.378907-5.796876l96.75-60.054687-92.371094 53.339844c-2.003906 1.042969-4.476563.34375-5.636719-1.59375-1.15625-1.941407-.601563-4.449219 1.265625-5.71875l87.203125-53.992188-82.832031 47.789063c-2.011719 1.089844-4.527344.398437-5.699219-1.566406-1.171875-1.964844-.585937-4.503907 1.328125-5.753907l77.714844-47.898437-73.386719 42.332031c-2.011719 1.046875-4.488281.339844-5.640625-1.609375-1.15625-1.949219-.585938-4.460938 1.296875-5.71875l12.304687-7.503906-7.960937 4.59375c-2.007813 1.085937-4.511719.402344-5.691406-1.554688-1.175781-1.953125-.605469-4.488281 1.296875-5.75l118.355468-74.105468-113.960937 65.792968c-2.003906 1.070313-4.492187.386719-5.664063-1.558594-1.175781-1.941406-.621093-4.464843 1.257813-5.738281l124.214844-78.191406-119.808594 69.164063c-2.019531 1.113281-4.554687.425781-5.734375-1.550782-1.175781-1.980468-.570312-4.539062 1.371094-5.777344l30.089844-18.441406-25.726563 14.847656c-2.011719 1.175782-4.59375.527344-5.804687-1.460937-1.210938-1.992187-.601563-4.582031 1.367187-5.828125l136.863281-88.054688-132.394531 76.433594c-2 1.164063-4.566406.519532-5.78125-1.457031-1.210937-1.972656-.625-4.554687 1.320313-5.8125l124.457031-81.296875-119.996094 69.273438c-1.996094 1.054687-4.472656.371093-5.640625-1.5625-1.171875-1.933594-.632812-4.445313 1.230469-5.726563l59.664062-37.878906-55.253906 31.890625c-1.996094 1.082031-4.488281.410156-5.675781-1.527344-1.183594-1.9375-.640625-4.460938 1.230468-5.746094l64.050782-41.410156-59.605469 34.414062c-2 1.101563-4.507813.429688-5.699219-1.515624-1.1875-1.949219-.628906-4.488282 1.261719-5.761719l38.085937-24.578125-33.648437 19.414062c-1.984375 1.097656-4.480469.453125-5.683594-1.472656s-.6875-4.453125 1.171875-5.753906l56.089844-37.769532-51.578125 29.847657c-1.972656 1.09375-4.453125.460937-5.664063-1.441407-1.210937-1.902343-.734374-4.417968 1.089844-5.742187l49.027344-34.132813-44.453125 25.652344c-1.96875 1.066406-4.429687.425782-5.632813-1.464844-1.203124-1.890624-.734374-4.390624 1.070313-5.722656l25.460937-17.695312-20.898437 11.996094c-1.921875 1.085937-4.359375.519531-5.609375-1.300782-1.25-1.820312-.90625-4.296875.796875-5.707031l35.59375-28.738281-30.78125 17.757812c-1.917969 1.074219-4.339844.511719-5.59375-1.296875-1.25-1.8125-.917969-4.277343.765625-5.691406l14.507812-11.945313-7.792968 4.496094c-1.882813 1.109375-4.300782.617188-5.597656-1.140625-1.296876-1.757812-1.058594-4.214843.554687-5.6875l10.582031-9.761719c-.679687-.371093-1.238281-.921874-1.621094-1.59375-1.179687-2.042968-.480468-4.652343 1.5625-5.832031l21.714844-12.535156c1.882813-1.089844 4.285156-.59375 5.578125 1.160156 1.292969 1.75 1.058594 4.191407-.542969 5.667969l-3.789062 3.515625 20.464844-11.800781c1.921875-1.09375 4.359375-.539063 5.617187 1.277344 1.257813 1.820312.921875 4.296874-.78125 5.710937l-14.503906 11.945313 32.714844-18.933594c1.925781-1.085938 4.359375-.519532 5.613281 1.300781 1.25 1.820313.902344 4.296875-.800781 5.703125l-35.574219 28.707031 61.910156-35.710937c1.96875-1.070313 4.429688-.429688 5.632813 1.460937 1.203125 1.894531.734375 4.394531-1.070313 5.722657l-25.460937 17.691406 43.117187-24.875c1.972656-1.09375 4.457032-.460938 5.667969 1.441406s.730469 4.417969-1.09375 5.742188l-49.023437 34.132812 71.613281-41.316406c1.984375-1.101563 4.480469-.453125 5.683593 1.472656 1.203126 1.925781.6875 4.453125-1.171874 5.753906l-56.097657 37.761719 77.960938-44.988281c1.992187-1.054688 4.464843-.378906 5.640625 1.546875 1.171875 1.925781.648437 4.433593-1.203125 5.722656l-37.964844 24.449219 55.003906-31.71875c1.996094-1.082032 4.492188-.414063 5.675781 1.523437 1.1875 1.9375.644532 4.464844-1.226562 5.746094l-64.050781 41.371094 84.324219-48.640625c2-1.085938 4.5-.40625 5.679687 1.539062 1.183594 1.945313.628906 4.472656-1.257813 5.746094l-59.667968 37.855469 78.234375-45.140625c2-1.136719 4.539062-.484375 5.742187 1.472656 1.207032 1.957031.644532 4.515625-1.269531 5.789062l-124.519531 81.304688 152.089844-87.800781c2.011718-1.226563 4.640624-.589844 5.867187 1.421875 1.226563 2.011718.589844 4.640625-1.421875 5.867187l-136.824219 88.003907 152.355469-87.953126c2.023438-1.207031 4.644531-.542968 5.851562 1.480469 1.203126 2.023438.542969 4.644531-1.480468 5.851563l-30.117188 18.449218 32.703125-18.878906c2.015625-1.226562 4.644531-.585937 5.875 1.429688 1.226563 2.019531.585938 4.648437-1.429687 5.875l-124.160156 78.160156 127.144531-73.386719c2.015625-1.164062 4.589843-.496093 5.789062 1.496094 1.199219 1.996094.578125 4.582031-1.394531 5.816406l-118.519531 74.152344 117.019531-67.589844c2.019531-1.152343 4.59375-.472656 5.78125 1.527344 1.1875 2.003906.550781 4.589844-1.429688 5.808594l-12.269531 7.484375 8.183594-4.726563c2.007813-1.089843 4.523437-.402343 5.695313 1.5625 1.171874 1.964844.585937 4.507813-1.328126 5.757813l-77.464843 47.863281 73.097656-42.238281c2.007813-1.089844 4.523437-.402344 5.695313 1.5625 1.171874 1.964844.585937 4.507812-1.328126 5.757812l-87.355468 54.117188 82.988281-47.902344c2.003906-1.074219 4.5-.382812 5.667969 1.570312 1.167968 1.953126.601562 4.476563-1.292969 5.742188l-96.613281 59.972656 92.238281-53.25c2.007813-1.125 4.546875-.453125 5.738281 1.519532 1.1875 1.972656.597656 4.535156-1.335937 5.785156l-142.132813 89.769531 137.730469-79.511719c2.003906-1.085937 4.511719-.402344 5.6875 1.550782 1.175781 1.957031.605469 4.488281-1.292969 5.753906l-123.734375 77.550781 119.378907-68.914063c2.007812-1.074218 4.503906-.382812 5.671874 1.570313 1.167969 1.953125.601563 4.476563-1.292968 5.742187l-101.144532 62.855469 96.734376-55.84375c2.011718-1.074219 4.515624-.375 5.679687 1.585938 1.164063 1.960937.578125 4.492187-1.328125 5.746093l-36.394531 22.230469 32.042969-18.5c1.308593-.78125 2.933593-.804687 4.265624-.0625 1.332032.746094 2.164063 2.140625 2.183594 3.667969.023438 1.523438-.773437 2.941406-2.082031 3.722656l-69.972656 43.101563 65.585937-37.863281c2.003906-1.070313 4.492188-.382813 5.664063 1.558593 1.175781 1.945313.621093 4.464844-1.257813 5.738281l-135.878906 85.625 131.492188-75.949218c2.015624-1.113282 4.550781-.425782 5.730468 1.554687 1.175782 1.980469.570313 4.539063-1.371094 5.777344l-60.339843 37.09375 55.980469-32.316406c2.015624-1.160157 4.589843-.496094 5.789062 1.5 1.195312 1.992187.578125 4.578125-1.394531 5.8125l-121.175781 75.847656 116.773437-67.414063c2.007813-1.046874 4.484375-.339843 5.636719 1.609376 1.15625 1.949218.585937 4.460937-1.296875 5.71875l-17.3125 10.589843 12.953125-7.472656c2.011718-1.09375 4.527344-.402344 5.699218 1.5625 1.171876 1.964844.585938 4.503906-1.328124 5.757813l-69.976563 43.101562 65.582031-37.863281c2.007813-1.148438 4.566406-.484375 5.765625 1.496093 1.199219 1.976563.601563 4.550782-1.347656 5.800782l-157.125 100.027344 152.757813-88.15625c2.003906-1.105469 4.523437-.429688 5.707031 1.53125 1.183593 1.957031.613281 4.5-1.296875 5.761718l-190.207032 120.644532c.703126.347656 1.296876.886718 1.707032 1.554687 1.214844 1.957031.660156 4.523437-1.253906 5.800781l-33.9375 22.632813c1.773437.136719 3.273437 1.363281 3.765624 3.074219.492188 1.707031-.128906 3.542968-1.554687 4.605468l-51.601563 39.117188c1.777344.027344 3.355469 1.160156 3.949219 2.839844.59375 1.679687.085938 3.550781-1.28125 4.695312l-31.007812 26.007812c.6875 1.9375-.101563 4.089844-1.878907 5.121094l-14.054687 8.113282c-.640625.382812-1.371094.585937-2.113281.589843zm0 0" fill="#eb5463"/><g fill="#262626"><path d="m2.613281 429.023438c0 19.628906-13.164062 90.402343 24.953125 72.066406 24.378906-11.734375 49.050782-46.59375 68.453125-65.09375l48.257813-45.96875c3.875-3.695313 19.746094-24.183594 25.378906-24.175782 5.058594 0 19.207031 18.101563 22.476562 21.214844l46.804688 44.59375 73.640625 70.152344.050781.050781.292969.273438c.058594.0625.167969.070312.238281.121093.066406.050782.265625.308594.570313.425782.308593.121094.386719.085937.605469.164062l.179687.050782c36.695313 13.148437 24.746094-52.667969 24.746094-71.015626v-345.941406c0-17.015625 2.960937-38.1875-3.667969-54.28125-10.964844-26.519531-35.992188-28.132812-60.46875-28.132812h-114.542969c-38.859375 0-127.65625-17.503906-152.140625 25.472656-8.609375 15.121094-5.828125 36.324219-5.828125 53.074219zm12.359375 17.203124v-315.46875c0-23.140624-.632812-46.386718 0-69.519531-.398437-26.886719 20.445313-49.316406 47.289063-50.886719 64.171875-7.03125 132.898437 0 197.488281 0 31.632812 0 61.847656 2.972657 67.132812 42.539063 1.0625 16.585937 1.0625 33.222656 0 49.808594v237.894531c0 11.425781-4.59375 149.632812-3.414062 155.871094l-124.125-118.265625c-29.210938-27.828125-37.660156-16.042969-64.941406 9.949219l-77.550782 73.890624c-8.855468 8.441407-19.90625 23.5625-30.71875 29.289063-8.160156 4.265625-4.601562 11.773437-11.144531-.328125-4.984375-9.195312-.015625-34.660156-.015625-44.773438zm0 0"/><path d="m57.644531 83.238281c0-23.519531-6.132812-29.792969 17.496094-29.792969h178.917969c27.511718 0 30.148437 1.066407 30.148437 31.285157 0 5.257812 12.371094 2.703125 12.371094-1.492188 0-22.476562 3.808594-34.605469-19.683594-36.984375-36.480469-3.710937-75.292969 0-111.941406 0-32.070313 0-67.773437-4.496094-99.574219 0-23.5625 3.328125-20.105468 16.417969-20.105468 38.476563 0 5.257812 12.371093 2.703125 12.371093-1.492188zm0 0"/><path d="m177.703125 210.367188 58.5625-58.558594c2.558594-2.558594-9.035156-1.285156-11.210937.855468l-52.515626 52.515626-55.6875-55.691407c-3.96875-3.96875-15.660156 1.117188-11.316406 5.472657l58.617188 58.613281-58.566406 58.582031c-2.558594 2.558594 9.035156 1.289062 11.214843-.851562l52.511719-52.523438 55.6875 55.695312c3.96875 3.96875 15.660156-1.117187 11.316406-5.46875zm0 0"/></g></svg>