<svg height="503pt" viewBox="-24 0 503 503.53309" width="503pt" xmlns="http://www.w3.org/2000/svg"><path d="m135.582031 503.53125c-1.90625.003906-3.585937-1.265625-4.105469-3.101562-.519531-1.839844.246094-3.796876 1.871094-4.796876l6.066406-3.746093-19.164062 11.089843c-2 1.058594-4.472656.371094-5.644531-1.5625-1.167969-1.933593-.628907-4.441406 1.230469-5.722656l109.007812-69.207031-128.496094 74.15625c-2.015625 1.160156-4.589844.496094-5.789062-1.5-1.199219-1.992187-.578125-4.578125 1.394531-5.8125l101.972656-63.789063-111.675781 64.429688c-2.023438 1.203125-4.640625.542969-5.847656-1.480469-1.207032-2.027343-.546875-4.644531 1.480468-5.851562l43.363282-26.589844-46.710938 26.964844c-2.011718 1.078125-4.515625.378906-5.679687-1.582031-1.164063-1.964844-.578125-4.496094 1.328125-5.746094l8.492187-5.179688-10 5.777344c-2.003906 1.054688-4.484375.363281-5.648437-1.578125-1.167969-1.941406-.613282-4.457031 1.261718-5.726563l127.144532-79.507812-129.074219 74.472656c-2.023437 1.207032-4.644531.546875-5.855469-1.476562-1.207031-2.023438-.546875-4.644532 1.476563-5.855469l93.40625-57.675781-91.03125 52.582031c-2.027344 1.207031-4.644531.542969-5.851563-1.480469-1.207031-2.023437-.542968-4.644531 1.480469-5.847656l76.878906-47.257812-73.082031 42.1875c-2.007812 1.125-4.550781.453124-5.738281-1.519532-1.191407-1.972656-.597657-4.535156 1.335937-5.785156l149.539063-94.027344-145.136719 83.777344c-2 1.070312-4.488281.386719-5.664062-1.558594-1.171876-1.941406-.617188-4.464844 1.261718-5.734375l150.980469-95.003906-146.578125 84.617187c-2.027344 1.203126-4.644531.539063-5.847656-1.488281-1.203125-2.027343-.539063-4.644531 1.488281-5.851562l63.703125-39.039063-59.34375 34.261719c-2.015625 1.21875-4.640625.570313-5.855469-1.445313-1.21875-2.019531-.574219-4.640624 1.445313-5.859374l162.183594-102.570313-157.773438 91.085937c-2.023438 1.207032-4.640625.542969-5.847656-1.480468-1.207032-2.027344-.542969-4.644532 1.480468-5.851563l87.414063-53.863281-83.046875 47.941406c-2.003906 1.085938-4.511719.402344-5.6875-1.550781-1.175781-1.957031-.605469-4.488281 1.292969-5.753906l148.335937-93.234375-143.941406 83.097656c-2 1.070312-4.488281.382812-5.664062-1.558594-1.171876-1.945312-.617188-4.464844 1.261718-5.738281l150.347656-94.617187-145.917968 84.257812c-2.003906 1.101562-4.523438.425781-5.707032-1.53125-1.183593-1.957031-.613281-4.5 1.292969-5.765625l166.957031-105.8125-162.542968 93.867187c-2.023438 1.152344-4.597656.472657-5.78125-1.53125-1.1875-2-.550782-4.585937 1.429687-5.808593l36.488281-22.246094-32.164062 18.519531c-1.304688.785156-2.929688.820313-4.265625.082032-1.335937-.734376-2.175781-2.128907-2.207031-3.652344-.027344-1.523438.757812-2.949219 2.0625-3.734375l165.296875-104.671875-160.886719 92.851562c-2.015625 1.164063-4.589844.496094-5.789062-1.5-1.195313-1.992187-.578126-4.578125 1.394531-5.8125l142.652343-89.457031-138.257812 79.867187c-2.007812 1.054688-4.492188.355469-5.652344-1.59375-1.164062-1.949218-.59375-4.46875 1.292969-5.730468l66.558594-40.804688-62.199219 35.847656c-2.015625 1.160157-4.589844.496094-5.789062-1.5-1.195313-1.992187-.578126-4.578124 1.394531-5.8125l117.316406-73.5-112.921875 65.195313c-2.007812 1.179687-4.589844.527344-5.800781-1.460937-1.210938-1.988282-.605469-4.582032 1.363281-5.824219l133.890625-85.992188-129.453125 74.734375c-1.996094 1.117188-4.523438.457032-5.71875-1.496094-1.195312-1.949218-.636719-4.5 1.265625-5.773437l116.785156-75.820313-112.332031 64.855469c-2 1.070313-4.488281.386719-5.664062-1.558593-1.171876-1.945313-.617188-4.464844 1.261718-5.738282l42.972656-27.015625-38.570312 22.238281c-1.988281 1.132813-4.515625.496094-5.726562-1.445312-1.214844-1.9375-.683594-4.492188 1.203124-5.78125l98.988282-66.886719-94.464844 54.539063c-1.996094 1.082031-4.488281.410156-5.675781-1.527344-1.183594-1.9375-.644531-4.460938 1.230469-5.746094l32.65625-21.066406-28.210938 16.289062c-1.996094 1.1875-4.574219.558594-5.800781-1.414062-1.226563-1.972656-.652344-4.5625 1.296875-5.832031l46.078125-30.789063-41.574219 23.980469c-2.007812 1.230469-4.636719.597656-5.867188-1.414063-1.226562-2.007812-.597656-4.632812 1.414063-5.863281l3.414063-2.203125c-1.960938.488282-3.996094-.46875-4.875-2.289062-.878907-1.820313-.355469-4.007813 1.246093-5.238282l50.347657-38.347656-45.679688 26.332032c-1.933594 1.089843-4.378906.511718-5.621094-1.324219-1.246094-1.835938-.875-4.320313.851563-5.714844l29.371093-23.183594-24.601562 14.199219c-1.945312 1.085938-4.402344.488281-5.632812-1.367188-1.234376-1.859374-.828126-4.355468.933593-5.722656l3.949219-3.003906c-1.824219.621094-3.835938-.054688-4.914062-1.652344-1.078126-1.597656-.953126-3.71875.304687-5.175781l12.171875-14.082031-6.828125 3.925781c-1.488281.859375-3.34375.738281-4.710937-.296875-1.363282-1.039062-1.976563-2.792969-1.554688-4.453125l2.355469-9.140625c-.792969-.375-1.449219-.984375-1.875-1.75-1.175781-2.035156-.480469-4.636719 1.550781-5.820312l4.269531-2.464844c1.484375-.863282 3.347657-.75 4.71875.289062 1.367188 1.039063 1.980469 2.800782 1.550781 4.464844l-1.707031 6.707031 19.859375-11.4375c1.800782-1.015625 4.070313-.59375 5.386719 1s1.300781 3.902344-.039063 5.480469l-12.15625 14 35.632813-20.574219c1.949219-1.132812 4.449219-.550781 5.699219 1.324219 1.25 1.878906.820312 4.40625-.980469 5.769531l-3.414063 2.558594 16.835938-9.710937c1.9375-1.085938 4.382812-.511719 5.625 1.324218 1.246094 1.839844.875 4.324219-.851562 5.714844l-29.398438 23.261719 52.378906-30.25c1.945313-1.101563 4.410156-.511719 5.648438 1.347656 1.242187 1.863281.835937 4.363281-.929688 5.734375l-50.289062 38.34375 78.71875-45.449219c2.003906-1.164062 4.570312-.519531 5.78125 1.457031 1.214844 1.972657.628906 4.554688-1.316406 5.8125l-.980469.632813 13.710937-7.910156c1.996094-1.1875 4.578125-.558594 5.804688 1.414062 1.226562 1.972657.648437 4.5625-1.296875 5.828125l-46.019531 30.761719 65.867187-38.023437c2.011719-1.230469 4.636719-.597657 5.867187 1.414062 1.230469 2.007812.597657 4.636719-1.414062 5.867188l-32.734375 21.109374 49.203125-28.40625c1.992188-1.179687 4.5625-.558593 5.792969 1.402344 1.226562 1.960938.667969 4.546875-1.261719 5.824219l-98.941406 66.851563 128.347656-74.105469c2.019531-1.21875 4.640625-.570313 5.859375 1.449219 1.21875 2.015624.570313 4.636718-1.445313 5.855468l-42.933593 27.027344 59.460937-34.332031c2.003906-1.164063 4.570313-.515625 5.78125 1.457031 1.210938 1.976562.628906 4.554688-1.316406 5.8125l-116.839844 75.828125 144.007813-83.140625c2.011719-1.226562 4.640625-.589844 5.867187 1.421875 1.226563 2.011719.59375 4.640625-1.421875 5.867187l-133.859375 85.964844 161.570313-93.277344c2.011719-1.164062 4.589843-.496093 5.785156 1.496094 1.199219 1.996094.578125 4.582032-1.390625 5.816406l-117.316406 73.496094 136.027344-78.503906c2.007812-1.058594 4.496093-.359375 5.65625 1.589844 1.160156 1.949218.59375 4.46875-1.292969 5.730468l-66.5625 40.816407 62.199219-35.917969c2.007812-1.085938 4.511718-.402344 5.6875 1.550781 1.179687 1.957031.609374 4.488281-1.292969 5.753907l-142.652344 89.453124 138.242187-79.820312c2.003907-1.101562 4.523438-.425781 5.707032 1.53125s.613281 4.5-1.296875 5.765625l-165.28125 104.710937 160.886719-92.859374c2.011718-1.074219 4.515624-.375 5.679687 1.585937 1.167969 1.960937.582031 4.492187-1.328125 5.746094l-36.488281 22.253906 32.136719-18.578125c2.007812-1.101562 4.523437-.425781 5.707031 1.53125 1.183593 1.957031.613281 4.503906-1.292969 5.765625l-166.957031 105.855469 162.542969-93.867188c2.003906-1.070312 4.492187-.382812 5.664062 1.558594 1.175781 1.945312.621094 4.464844-1.261719 5.738281l-150.441406 94.675781 146.039063-84.308593c2.007812-1.085938 4.511718-.402344 5.6875 1.554687 1.179687 1.953125.609374 4.488282-1.292969 5.75l-148.25 93.21875 143.855469-83.097656c1.308593-.78125 2.9375-.800781 4.265624-.058594 1.332032.742188 2.164063 2.140625 2.1875 3.664063.019532 1.523437-.773437 2.945312-2.082031 3.726562l-87.417969 53.859375 83.046876-47.9375c2.007812-1.105468 4.523437-.429687 5.707031 1.53125 1.183593 1.957032.613281 4.5-1.292969 5.761719l-162.1875 102.582031 157.773438-91.085937c2.015624-1.113281 4.554687-.425781 5.730468 1.554687 1.179688 1.976563.574219 4.535156-1.367187 5.777344l-63.898438 39.15625 59.535157-34.363281c2.003906-1.070313 4.492187-.382813 5.664062 1.558593 1.175781 1.945313.621094 4.464844-1.261719 5.738282l-150.976562 95 146.574219-84.613282c2.011718-1.128906 4.550781-.453124 5.742187 1.519532 1.1875 1.972656.597656 4.53125-1.339844 5.785156l-149.433593 93.96875 145.066406-83.730469c2.007812-1.058593 4.492187-.359375 5.65625 1.589844 1.160156 1.953125.589844 4.46875-1.296875 5.730469l-76.800781 47.234375 72.457031-41.8125c2.011719-1.09375 4.527343-.402344 5.699219 1.5625 1.171874 1.964843.585937 4.503906-1.328126 5.757812l-93.671874 57.804688 89.257812-51.523438c2.003906-1.058593 4.484375-.367187 5.648438 1.578125 1.167968 1.941406.613281 4.453125-1.261719 5.726563l-127.035157 79.460937 122.648438-70.828125c2.011719-1.042969 4.488281-.335937 5.640625 1.613281 1.15625 1.945313.585937 4.457032-1.296875 5.71875l-8.53125 5.195313 4.179688-2.414063c2.015624-1.113281 4.554687-.425781 5.730468 1.554688 1.179688 1.976562.574219 4.535156-1.367187 5.777344l-43.4375 26.640625 39.074219-22.5625c2.015624-1.164063 4.589843-.496094 5.789062 1.496093 1.199219 1.996094.578125 4.582032-1.394531 5.816407l-101.980469 63.855469 97.59375-56.320313c2-1.054687 4.472656-.371094 5.644531 1.5625s.628907 4.445313-1.230469 5.722656l-108.929687 69.121094 104.515625-60.347656c2.019531-1.113281 4.554688-.425781 5.734375 1.554687 1.175781 1.980469.570313 4.535156-1.371094 5.777344l-6.042969 3.71875 1.707032-.964844c2.003906-1.164062 4.570312-.515625 5.78125 1.457032 1.210937 1.976562.625 4.554687-1.316406 5.8125l-103.238282 67.5 98.746094-57.011719c2.007812-1.121094 4.539062-.453125 5.730469 1.507812 1.191406 1.964844.617187 4.519531-1.300781 5.78125l-49.738282 31.777344 45.308594-26.15625c2.003906-1.066406 4.492188-.382813 5.664062 1.558594 1.175782 1.945312.621094 4.464843-1.257812 5.738281l-4.617188 2.910156.210938-.117187c1.984375-1.136719 4.507812-.503907 5.726562 1.425781 1.21875 1.933594.699219 4.480469-1.175781 5.785156l-71.894531 49.378906 67.34375-38.867187c1.996094-1.097656 4.503906-.4375 5.695312 1.503906 1.191407 1.9375.652344 4.472657-1.230468 5.757813l-11.222656 7.320312 6.757812-3.898437c1.96875-1.097657 4.453125-.472657 5.667969 1.421875 1.21875 1.898437.75 4.414062-1.066407 5.746094l-41.976562 29.773437 37.375-21.582031c1.957031-1.128906 4.453125-.539063 5.695312 1.34375 1.242188 1.882812.804688 4.410156-1 5.765625l-32.777343 24.566406 28.082031-16.214844c1.90625-1.074219 4.316406-.539062 5.582031 1.246094 1.265625 1.78125.980469 4.234375-.664062 5.675781l-25.710938 22.109375 17.066407-9.828125c1.894531-1.070312 4.292968-.535156 5.558593 1.230469 1.269531 1.769531 1 4.210937-.617187 5.664063l-11.667969 10.238281c1.203125.832031 1.898437 2.21875 1.84375 3.679687-.058594 1.460938-.859375 2.789063-2.125 3.523438l-23.714844 13.703125c-1.898437 1.089843-4.3125.5625-5.585937-1.21875-1.273438-1.78125-.996094-4.234375.648437-5.683594l2.300781-2.023437-18.898437 10.871093c-1.90625 1.078125-4.3125.542969-5.582031-1.242187-1.265625-1.78125-.976563-4.234375.664062-5.675782l25.738282-22.09375-50.347657 29.011719c-1.953125 1.128907-4.449219.539063-5.691406-1.34375-1.246094-1.882812-.804687-4.410156 1-5.761719l32.851563-24.570312-54.9375 31.675781c-1.96875 1.097657-4.449219.472657-5.667969-1.421875-1.214844-1.894531-.746094-4.410156 1.070312-5.746094l41.949219-29.753906-63.957031 36.921875c-1.996094 1.101563-4.5.4375-5.695313-1.5-1.191406-1.941406-.648437-4.476562 1.230469-5.761719l11.1875-7.292968-25.222656 14.554687c-1.976563 1.089844-4.460938.449219-5.667969-1.457031-1.203125-1.910156-.714844-4.425781 1.117188-5.742188l71.929687-49.410156-98.074219 56.609375c-2.003906 1.105469-4.523437.429688-5.707031-1.53125-1.183594-1.957031-.613281-4.5 1.296875-5.761719l4.496094-2.835937-17.570313 10.128906c-2 1.101563-4.511719.433594-5.699219-1.515625-1.1875-1.949218-.632812-4.488281 1.261719-5.761718l49.699219-31.753907-67.609375 39.03125c-2 1.136719-4.539063.488281-5.742187-1.46875-1.207032-1.957031-.644532-4.519531 1.269531-5.792969l103.253906-67.464843-129.484375 74.726562c-.648438.386719-1.382812.597657-2.136719.605469zm0 0" fill="#457393"/><g fill="#262626"><path d="m136.53125 133.304688v264.535156c0 5.351562 12.390625 2.832031 12.390625-1.453125v-264.53125c0-5.351563-12.390625-2.832031-12.390625 1.449219zm0 0"/><path d="m221.882812 134.234375v264.535156c0 3.371094 12.355469 1.1875 12.355469-3.3125v-264.53125c0-3.371093-12.355469-1.1875-12.355469 3.308594zm0 0"/><path d="m307.214844 134.234375v264.535156c0 1.707031 12.355468 0 12.355468-3.3125v-264.53125c0-1.671875-12.355468-.050781-12.355468 3.308594zm0 0"/><path d="m447.546875 50.847656c4.777344 0 13.082031-7.203125 4.761719-7.203125h-217.984375v-39.535156c0-6.476563-12.527344-4.640625-12.527344.941406v38.59375h-213.222656c-4.777344 0-13.082031 7.203125-4.761719 7.203125h47.394531c0 127.703125-1.808593 255.53125 0 383.207032.902344 63.675781 43.367188 67.855468 95.503907 67.855468h196.769531.273437c.351563.023438.699219.023438 1.050782 0 86.023437-8.667968 60.101562-128.664062 60.101562-189.097656v-261.964844zm-55 3.746094c5.625 14.679688 0 43.007812 0 58.574219v210.882812c0 40.484375 20.917969 166.1875-41.914063 173.066407h-185.71875c-30.371093 0-72.824218 7.226562-92.628906-21.828126-11.316406-16.617187-8.75-37.804687-8.75-56.832031v-367.609375h159.960938c2.386718 1.230469 5.222656 1.230469 7.609375 0h161.101562c-.308593.574219-.488281 1.605469.339844 3.746094zm0 0"/></g></svg>