<svg height="505pt" viewBox="0 -44 505.77456 505" width="505pt" xmlns="http://www.w3.org/2000/svg"><path d="m328.066406 415.175781c-1.695312 0-3.226562-1.007812-3.90625-2.5625-.675781-1.554687-.367187-3.359375.785156-4.605469l7.753907-8.351562-11.167969 6.441406c-1.824219 1.058594-4.148438.625-5.46875-1.019531-1.324219-1.644531-1.242188-4.007813.1875-5.558594l17.066406-18.636719-22.460937 12.960938c-1.90625 1.082031-4.320313.542969-5.585938-1.246094-1.265625-1.789062-.972656-4.246094.679688-5.683594l11.496093-9.855468-14.132812 8.15625c-1.945312 1.132812-4.433594.5625-5.6875-1.304688-1.257812-1.867187-.847656-4.386718.933594-5.757812l5.429687-4.269532-7 4.039063c-1.953125 1.101563-4.425781.503906-5.660156-1.367187-1.234375-1.875-.808594-4.382813.976563-5.742188l2.421874-1.808594-3.675781 2.117188c-1.933593 1.121094-4.410156.5625-5.671875-1.285156-1.257812-1.851563-.878906-4.359376.875-5.75l21.445313-17.066407-25.0625 14.507813c-1.9375 1.117187-4.410157.546875-5.664063-1.304688-1.253906-1.851562-.863281-4.359375.894532-5.742187l26.972656-21.121094-32.238282 18.636719c-1.957031 1.113281-4.441406.515625-5.675781-1.367188-1.234375-1.878906-.796875-4.394531 1-5.75l24.4375-18.097656-37.382812 21.554688c-1.960938 1.011718-4.371094.363281-5.558594-1.5-1.183594-1.859376-.753906-4.320313.992187-5.667969l18.773438-13.03125-25.769531 14.832031c-1.972657 1.082031-4.441407.449219-5.652344-1.445312-1.207031-1.894532-.742187-4.402344 1.070313-5.730469l34.226562-23.996094-37.898438 21.871094c-1.976562 1.085937-4.460937.449219-5.664062-1.460938-1.207031-1.910156-.714844-4.425781 1.117188-5.742187l32.742187-22.519532-32.488281 18.773438c-1.988282 1.113281-4.5.46875-5.707032-1.46875-1.203124-1.933594-.675781-4.476562 1.203126-5.769531l3.125-2.082031c-2.011719.980468-4.4375.238281-5.558594-1.695313-1.121094-1.9375-.558594-4.410156 1.289062-5.667969l3.535156-2.414062c-1.953124.53125-4.011718-.386719-4.925781-2.191406-.914062-1.808594-.433593-4.007813 1.152344-5.265626l19.304687-15.363281-14.507812 8.390625c-1.777344 1.015625-4.027344.625-5.359375-.929687-1.332031-1.554688-1.371094-3.835938-.09375-5.4375l13.652344-16.957031-8.199219 4.738281c-1.535156.878906-3.453125.726562-4.820312-.390625-1.371094-1.117188-1.910157-2.964844-1.359376-4.644532l2.183594-6.597656c-.765625-.375-1.402344-.96875-1.832031-1.707031-1.179687-2.039063-.480469-4.648437 1.5625-5.828125l4.84375-2.789062c1.539063-.871094 3.453125-.714844 4.832031.394531 1.367188 1.117187 1.902344 2.964843 1.347656 4.640625l-1.296874 3.925781 18.277343-10.554687c1.777344-1.027344 4.035157-.644532 5.375.914062 1.335938 1.558594 1.371094 3.847656.085938 5.449219l-13.6875 16.921875 44.734375-25.828125c1.929687-1.082031 4.367187-.507813 5.613281 1.324219 1.242187 1.828124.882813 4.308593-.835937 5.707031l-19.3125 15.359375 42.027343-24.261719c1.980469-1.117187 4.488281-.484375 5.703125 1.433594 1.214844 1.921875.710938 4.460937-1.144531 5.769531l-2.082031 1.425781 17.328125-10.003906c2-1.183594 4.578125-.554687 5.804687 1.417969 1.226563 1.972656.648438 4.5625-1.296875 5.828125l-2.976562 1.980469 14.113281-8.140626c1.980469-1.132812 4.507812-.503906 5.726562 1.425782 1.21875 1.933594.699219 4.484375-1.179687 5.785156l-32.785156 22.542969 28.253906-16.273438c1.976563-1.117187 4.480469-.496093 5.703125 1.417969s.730469 4.449219-1.121094 5.769531l-34.253906 24.011719 29.671875-17.125c1.976563-1.105469 4.472656-.472656 5.683594 1.4375 1.214843 1.910156.722656 4.4375-1.117188 5.753906l-18.714843 13.007813 14.15625-8.167969c1.957031-1.113281 4.441406-.515625 5.675781 1.367188 1.234375 1.878906.796875 4.394531-1 5.75l-24.480469 18.105468 19.832031-11.441406c1.9375-1.09375 4.386719-.515625 5.632813 1.328125 1.246094 1.839844.867187 4.332031-.871094 5.71875l-26.984375 21.113281 22.1875-12.800781c1.933594-1.101563 4.390625-.535156 5.640625 1.304687 1.253906 1.839844.882812 4.332032-.851562 5.726563l-21.4375 17.066406 16.648437-9.609375c1.953125-1.101562 4.425781-.503906 5.660156 1.371094 1.234375 1.871094.808594 4.378906-.976562 5.738281l-3.558594 2.664063c1.738281-.398438 3.539063.300781 4.550781 1.765625 1.253906 1.859375.847656 4.375-.921875 5.75l-5.445312 4.269531.691406-.402344c1.90625-1.082031 4.320313-.542968 5.585937 1.246094 1.265626 1.789062.972657 4.242188-.679687 5.683594l-11.476563 9.820312 6.578126-3.796875c1.824218-1.058593 4.152343-.625 5.472656 1.019531 1.320312 1.644532 1.238281 4.007813-.1875 5.558594l-17.070313 18.628906 11.761719-6.824218c1.824219-1.039063 4.132812-.59375 5.441406 1.046875s1.230469 3.988281-.1875 5.539062l-7.753906 8.363281 2.5-1.433593c2.023438-1.058594 4.527344-.335938 5.671875 1.644531s.523437 4.507812-1.40625 5.734375l-27.035156 15.609375c-.640625.394531-1.378907.605469-2.132813.613281zm0 0" fill="#d56fac"/><path d="m375.855469 358.746094c-1.871094.003906-3.523438-1.210938-4.082031-3-.554688-1.785156.117187-3.722656 1.65625-4.78125l.785156-.539063-10.871094 6.28125c-1.980469 1.152344-4.519531.53125-5.75-1.402343-1.226562-1.9375-.703125-4.5 1.183594-5.800782l17.375-11.945312-27.929688 16.066406c-1.980468 1.085938-4.464844.441406-5.667968-1.476562-1.199219-1.914063-.695313-4.433594 1.144531-5.742188l20.40625-13.824219-28.417969 16.394531c-1.96875 1.066407-4.433594.425782-5.632812-1.464843-1.203126-1.890625-.734376-4.390625 1.066406-5.722657l43.027344-29.941406-51.390626 29.667969c-1.980468 1.101563-4.476562.464844-5.683593-1.453125s-.703125-4.445312 1.144531-5.757812l32.035156-21.707032-37.359375 21.554688c-1.992187 1.15625-4.539062.519531-5.757812-1.433594s-.667969-4.519531 1.246093-5.800781l23.183594-15.617188-26.15625 15.105469c-1.960937 1.113281-4.453125.507812-5.6875-1.386719-1.230468-1.890625-.769531-4.417969 1.046875-5.757812l53.957031-39.253907-57.890624 33.46875c-1.953126 1.117188-4.4375.527344-5.679688-1.347656s-.8125-4.390625.976562-5.753906l55.40625-41.699219-40.402343 23.320313c-1.960938 1.105468-4.445313.5-5.671875-1.386719-1.230469-1.882813-.785156-4.398437 1.019531-5.746094l25.128906-18.363281-3.914062 2.25c-1.957031 1.113281-4.441407.515625-5.675781-1.363281-1.234376-1.882813-.796876-4.398438 1-5.753907l13.855468-10.238281c-1.460937-.484375-2.550781-1.722656-2.84375-3.238281-.292968-1.515625.25-3.070312 1.429688-4.066406l14.027344-11.84375c-1.097657-.632813-1.859376-1.722656-2.078126-2.972656-.214843-1.25.136719-2.53125.960938-3.496094l12.550781-14.726563c-.585937-1.902343.21875-3.953125 1.9375-4.953125l5.121094-2.949218c1.796875-1.042969 4.082031-.636719 5.414063.960937 1.328124 1.59375 1.316406 3.914063-.03125 5.496094l-2.464844 2.894531 6.628906-3.832031c1.914062-1.09375 4.34375-.550781 5.609375 1.253906s.953125 4.273437-.726563 5.699219l-4.804687 4.0625 9.480469-5.46875c1.957031-1.113282 4.441406-.515625 5.675781 1.367187 1.234375 1.878907.796875 4.394531-1 5.75l-3.820313 2.839844 8.183594-4.726563c1.957032-1.105468 4.441406-.5 5.667969 1.386719 1.230469 1.882813.785156 4.402344-1.019531 5.746094l-25.148438 18.324219 32.308594-18.648438c1.953125-1.117187 4.4375-.527344 5.679688 1.347656 1.242187 1.875.8125 4.394532-.976563 5.753907l-55.410156 41.710937 67.601562-39.03125c1.964844-1.117187 4.457031-.511718 5.6875 1.382813s.773438 4.417969-1.042969 5.757812l-53.972656 39.253907 64.792969-37.410157c1.992187-1.152343 4.539063-.519531 5.757813 1.433594s.667968 4.523437-1.246094 5.804687l-23.261719 15.621094 29.132813-16.851562c1.984374-1.117188 4.496093-.476563 5.707031 1.449218 1.210937 1.929688.691406 4.46875-1.175781 5.769532l-31.835938 21.667968 38.664062-22.324218c1.96875-1.066406 4.429688-.429688 5.632813 1.460937 1.203125 1.894531.734375 4.394531-1.066406 5.722657l-43.09375 29.960937 43.03125-24.839844c1.988281-1.132812 4.515625-.496093 5.730469 1.445313 1.214843 1.9375.683593 4.488281-1.207032 5.78125l-20.386718 13.824218 17.066406-9.863281c1.976562-1.078125 4.445312-.4375 5.652344 1.460938 1.203124 1.902343.722656 4.410156-1.09375 5.734375l-17.339844 11.945312 11.367187-6.5625c1.984375-1.175781 4.546875-.5625 5.78125 1.390625s.691407 4.53125-1.226562 5.820313l-6.203125 4.265625h.09375c1.777344.003906 3.371094 1.105469 3.992187 2.773437.625 1.664063.148438 3.542969-1.191406 4.710938l-19.796875 17.195312c1.804688.25 3.25 1.617188 3.601562 3.40625.347657 1.785156-.472656 3.597656-2.050781 4.511719l-32.152343 18.570313c-1.902344 1.089843-4.320313.558593-5.597657-1.226563-1.273437-1.78125-.984375-4.242187.664063-5.6875l16.214844-14.113281-46.53125 26.863281c-.628907.375-1.34375.585937-2.074219.605469zm0 0" fill="#eb5463"/><g fill="#eb86be"><path d="m443.019531 264.664062c-1.773437.003907-3.359375-1.09375-3.988281-2.75s-.171875-3.53125 1.15625-4.707031l24.285156-21.519531-42.410156 24.480469c-1.972656 1.160156-4.507812.554687-5.746094-1.367188-1.238281-1.925781-.742187-4.484375 1.128906-5.800781l8.210938-5.851562-14.089844 8.128906c-1.945312 1.144531-4.445312.574218-5.703125-1.300782-1.257812-1.875-.835937-4.402343.957031-5.769531l37.199219-28.675781-44.511719 25.703125c-1.320312.84375-3 .890625-4.367187.125-1.367187-.761719-2.207031-2.214844-2.1875-3.78125s.898437-2.996094 2.289063-3.722656l99.96875-57.722657c1.945312-1.113281 4.421874-.535156 5.667968 1.328126 1.246094 1.863281.839844 4.375-.933594 5.746093l-37.195312 28.671875 35.0625-20.238281c1.972656-1.160156 4.507812-.554687 5.746094 1.367187 1.238281 1.925782.742187 4.484376-1.128906 5.800782l-8.167969 5.820312 2.492187-1.433594c1.898438-1.097656 4.316406-.582031 5.597656 1.195313s1.007813 4.238281-.628906 5.691406l-24.320312 21.519531 11.363281-6.554687c2.027344-1.058594 4.527344-.332031 5.671875 1.644531 1.144531 1.980469.527344 4.511719-1.402344 5.738282l-47.914062 27.65625c-.636719.375-1.363282.574218-2.101563.578124zm0 0"/><path d="m294.539062 307.511719c-1.882812-.003907-3.539062-1.246094-4.078124-3.050781-.535157-1.804688.175781-3.75 1.75-4.78125l70.824218-46.335938-88.601562 51.199219c-2.03125 1.210937-4.660156.550781-5.875-1.480469-1.210938-2.03125-.550782-4.664062 1.480468-5.875l8.535157-5.308594-15.539063 8.925782c-2.011718 1.230468-4.636718.597656-5.867187-1.414063-1.230469-2.007813-.597657-4.636719 1.414062-5.863281l74.109375-47.855469-85.453125 49.328125c-2.023437 1.0625-4.527343.335938-5.671875-1.644531-1.140625-1.980469-.523437-4.507813 1.40625-5.734375l233.847656-135.039063c2-1.117187 4.523438-.457031 5.71875 1.496094 1.195313 1.949219.640626 4.5-1.265624 5.773437l-74.085938 47.847657 78.746094-45.40625c2.007812-1.089844 4.511718-.40625 5.6875 1.550781 1.175781 1.953125.609375 4.488281-1.292969 5.753906l-8.394531 5.238282 9.050781-5.214844c1.988281-1.054688 4.457031-.386719 5.636719 1.53125 1.179687 1.917968.667968 4.425781-1.171875 5.722656l-102.101563 66.808594c.582032.320312 1.082032.777344 1.449219 1.328125 1.269531 1.847656.898437 4.355469-.851563 5.753906l-20.738281 16.253906c1.957031-.058593 3.703125 1.21875 4.238281 3.101563.535157 1.878906-.28125 3.886718-1.976562 4.863281l-47.351562 27.304687c-1.941407 1.148438-4.441407.589844-5.707032-1.28125-1.261718-1.871093-.851562-4.402343.9375-5.777343l17.921875-14.050781-44.5625 25.726562c-.652343.394531-1.402343.605469-2.167969.605469zm0 0"/><path d="m109.476562 35.035156c-1.925781-.007812-3.605468-1.304687-4.105468-3.164062s.308594-3.820313 1.972656-4.789063l25.761719-14.882812c1.324219-.839844 3-.890625 4.371093-.125 1.367188.761719 2.207032 2.214843 2.183594 3.78125-.019531 1.570312-.898437 3-2.285156 3.722656l-25.765625 14.882813c-.648437.375-1.382813.574218-2.132813.574218zm0 0"/><path d="m170.59375 332.507812c-1.902344 0-3.574219-1.257812-4.101562-3.082031-.527344-1.828125.214843-3.78125 1.824218-4.796875l104.035156-65.585937-119.21875 68.835937c-2.007812 1.179688-4.589843.527344-5.800781-1.460937-1.210937-1.988281-.601562-4.582031 1.363281-5.824219l150.015626-96.085938-163.378907 94.320313c-2.003906 1.085937-4.511719.402344-5.6875-1.554687-1.175781-1.953126-.605469-4.488282 1.292969-5.75l113.238281-70.726563-119.996093 69.273437c-2.019532 1.210938-4.640626.554688-5.851563-1.464843-1.210937-2.023438-.554687-4.644531 1.464844-5.855469l110.933593-69.027344-114.660156 66.175782c-2.007812 1.105468-4.523437.429687-5.707031-1.53125-1.183594-1.957032-.613281-4.5 1.292969-5.761719l149.335937-94.304688-152.695312 88.160157c-2.011719 1.089843-4.527344.398437-5.699219-1.566407-1.171875-1.964843-.585938-4.503906 1.328125-5.757812l57.257813-35.105469-56.566407 32.65625c-2.023437 1.152344-4.59375.472656-5.78125-1.527344-1.1875-2.003906-.550781-4.585937 1.429688-5.808594l18.816406-11.445312-26.027344 14.996094c-2.007812 1.085937-4.511719.402344-5.6875-1.554688-1.175781-1.953125-.605469-4.488281 1.292969-5.75l119.382812-74.445312-135.894531 78.503906c-2.023437 1.210938-4.644531.550781-5.855469-1.472656-1.207031-2.027344-.546874-4.648438 1.476563-5.855469l89.636719-55.261719-98.878906 57.097656c-2.015626 1.160157-4.589844.492188-5.785157-1.5-1.199219-1.996093-.578125-4.582031 1.390625-5.816406l125.980469-78.445312-134.359375 77.566406c-2.007812 1.148438-4.566406.488281-5.765625-1.492188-1.199219-1.980468-.601563-4.554687 1.347656-5.800781l154.691407-97.800781-162.015626 93.550781c-2.007812 1.148438-4.566406.484375-5.765624-1.496093-1.199219-1.976563-.601563-4.550782 1.347656-5.800782l148.050781-93.558594-152.25 87.902344c-1.304687.789063-2.933594.820313-4.269531.085938-1.335938-.734375-2.175782-2.125-2.210938-3.652344-.03125-1.523438.753906-2.949219 2.058594-3.738281l146.089844-92.492188-147.625 85.246094c-2.023438 1.214844-4.644532.558594-5.859375-1.464844-1.210938-2.019531-.558594-4.644531 1.464843-5.855469l96.46875-60.066406-94.488281 54.527344c-2.011719 1.125-4.550781.453125-5.742187-1.519531-1.1875-1.972657-.597656-4.535157 1.339844-5.785157l92.78125-58.027343-89.890626 51.875c-2.015624 1.21875-4.640624.570312-5.855468-1.445313-1.21875-2.019531-.574219-4.640625 1.445312-5.859375l82.722656-52.054687-83.253906 48.050781c-2.007812 1.179687-4.589844.527344-5.800781-1.460937-1.210937-1.988282-.601563-4.582032 1.363281-5.824219l97.878906-62.753907-95.796874 55.269532c-1.996094 1.054687-4.472657.371094-5.640626-1.5625-1.171874-1.933594-.632812-4.445313 1.230469-5.726563l12.929688-8.019531-7.816407 4.515625c-1.996093 1.132813-4.527343.488281-5.738281-1.460937-1.207031-1.949219-.660156-4.503907 1.238281-5.785157l107.375-71.679687-92.839843 53.589844c-1.300781.792968-2.929688.835937-4.265625.109374-1.339844-.730468-2.191406-2.117187-2.230469-3.640624-.039063-1.523438.738281-2.953126 2.039063-3.75l21.914062-14.199219-2.738281 1.578125c-1.964844 1.117187-4.457031.511718-5.6875-1.382813s-.773438-4.417969 1.042969-5.757812l58.96875-42.949219-48.726563 28.160156c-1.910156 1.101563-4.34375.570313-5.617187-1.230468-1.273438-1.800782-.964844-4.273438.710937-5.707032l12.449219-10.675781c-1.308594-.765625-2.109375-2.167969-2.109375-3.679687 0-1.515626.800781-2.917969 2.109375-3.683594l26.742187-15.445313c1.910157-1.101562 4.347657-.570312 5.617188 1.230469 1.273437 1.800781.964843 4.273438-.710938 5.707031l-3.410156 2.933594 78.460937-45.292969c1.964844-1.117187 4.457032-.511718 5.6875 1.382813 1.230469 1.894531.773438 4.417969-1.042968 5.757812l-58.964844 42.933594 76.132812-43.949219c2.003907-1.164062 4.570313-.515625 5.78125 1.457032 1.210938 1.976562.628907 4.554687-1.316406 5.816406l-22.078125 14.316406 63.054688-36.402344c1.992187-1.132812 4.523437-.488281 5.734375 1.457032 1.207031 1.949218.660156 4.503906-1.238282 5.789062l-107.367187 71.679688 130.3125-75.203126c2.011719-1.109374 4.539063-.425781 5.71875 1.539063 1.179687 1.96875.59375 4.519531-1.332031 5.773437l-12.722656 7.890626 18.535156-10.699219c2.003906-1.121094 4.535156-.453125 5.726562 1.507812 1.191406 1.960938.617188 4.515625-1.296875 5.78125l-97.863281 62.742188 117.949219-68.085938c2-1.070312 4.492187-.386719 5.664062 1.558594s.617188 4.464844-1.261719 5.738281l-82.773437 52.113282 105.027344-60.640626c2.015625-1.160156 4.589843-.492187 5.789062 1.5 1.199219 1.996094.578125 4.582032-1.394531 5.816407l-92.78125 58.023437 107.402344-61.976562c2.011718-1.160156 4.589844-.496094 5.785156 1.5 1.199219 1.992187.578125 4.578125-1.390625 5.8125l-96.429687 60.042968 106.871093-61.707031c2.007813-1.101562 4.523438-.425781 5.707031 1.53125 1.1875 1.960938.613282 4.503907-1.292968 5.765625l-146.125 92.535156 156.457031-90.324218c2.011719-1.148438 4.570313-.484375 5.765625 1.492187 1.199219 1.980469.605469 4.554688-1.34375 5.804688l-148.078125 93.601562 161.519531-93.269531c2.003906-1.101562 4.519532-.425781 5.707032 1.53125 1.183593 1.957031.609374 4.5-1.296876 5.765625l-154.648437 97.746094 171.519531-98.984375c2.015625-1.164063 4.589844-.496094 5.789063 1.5 1.195312 1.992187.578125 4.578125-1.394531 5.8125l-125.996094 78.421875 135.886718-78.445313c2.015626-1.136718 4.566407-.460937 5.753907 1.527344 1.1875 1.984375.578125 4.554688-1.378907 5.792969l-89.617187 55.183593 95.078125-54.886718c2.007812-1.085938 4.515625-.402344 5.691406 1.554687 1.175782 1.953125.605469 4.488281-1.296875 5.75l-119.34375 74.445313 125.351563-72.371094c2.023437-1.152344 4.597656-.472656 5.785156 1.53125 1.1875 2 .550781 4.585938-1.433594 5.808594l-18.582031 11.3125 19.503906-11.261719c2.027344-1.207031 4.644531-.542969 5.851563 1.480469 1.207031 2.023437.542968 4.644531-1.480469 5.847656l-57.308594 35.132812 58.957031-34.03125c2.003907-1.101562 4.519532-.425781 5.707032 1.53125 1.183594 1.957032.609375 4.503907-1.296875 5.765626l-149.34375 94.328124 151.042969-87.21875c2.019531-1.214843 4.644531-.558593 5.855468 1.460938 1.214844 2.023438.558594 4.644531-1.460937 5.859375l-111.0625 69.09375 110.371093-63.71875c2.015626-1.160156 4.589844-.496094 5.789063 1.5 1.195313 1.992187.578125 4.582031-1.394531 5.8125l-113.117188 70.71875 110.617188-63.863281c2-1.101563 4.511718-.433594 5.699218 1.515625s.628907 4.488281-1.261718 5.761719l-150.058594 96.078124 149.035156-86.042968c2-1.070313 4.488282-.386719 5.664063 1.558594 1.171875 1.945312.617187 4.464843-1.261719 5.738281l-103.960938 65.542969 113.808594-65.707032c2-1.054687 4.480469-.363281 5.648438 1.578125 1.164062 1.941407.609375 4.457031-1.261719 5.726563l-246.539063 154.136718c-.289062 1.105469-1.007812 2.042969-1.996093 2.613282l-28.6875 16.5625c-2.015625 1.164062-4.589844.496094-5.789063-1.496094-1.199218-1.996094-.578125-4.582031 1.394532-5.816406l70.78125-44.289063-93.292969 53.90625c-.660157.382813-1.40625.582031-2.167969.582031zm0 0"/></g><path d="m35.621094 215.035156c2.613281 0 13.976562-4.992187 8.039062-4.992187-2.613281 0-13.976562 4.992187-8.039062 4.992187zm0 0" fill="#262626"/><path d="m4.167969 134.867188c-9.078125 21.699218-1.210938 38.398437 3.695312 59.476562 6.433594 27.75 10.445313 49.371094 36.402344 66.371094 6.890625 4.421875 14.390625 7.8125 22.265625 10.0625 23.507812 6.824218 21.800781 1.175781 36.691406 21.179687 4.136719 5.539063 8.746094 10.714844 13.773438 15.460938 6.78125 7.183593 14.898437 12.980469 23.894531 17.066406 25.828125 13.753906 57.191406 11.859375 81.175781-4.90625 1.785156 10.460937 8.226563 19.542969 17.5 24.695313 10.242188 5.8125 21.574219 3.617187 30.996094 11.375 17.816406 14.6875 29.703125 37.027343 46.34375 53.085937 5.019531 5.367187 12.019531 8.441406 19.371094 8.503906 7.347656.066407 14.402344-2.882812 19.515625-8.164062 10.4375-11.332031 6.929687-35.839844 5.972656-52.207031 15.65625 1.671874 31.492187.222656 46.582031-4.265626 20.820313-5.554687 39.160156-17.964843 52.054688-35.226562 5.957031-8.289062 9.871094-17.871094 11.425781-27.960938 1.628906-11.460937-3.414063-19.824218-4.566406-29.730468 2.402343-1.058594 4.742187-2.261719 7-3.601563 48.980469-29.304687 37.390625-94.140625-10.863281-115.199219v-.335937c.296874-3.054687.476562-6.140625.519531-9.265625-.011719-.308594-.191407-.585938-.46875-.726562-1.800781-50.507813-34.671875-77.507813-81.375-94.53125-27.136719-9.898438-46.027344-27.050782-76.601563-27.117188-14.628906 0-25.21875 4.007812-40.03125 1.152344-13.125-2.5625-22.066406-9.566406-35.976562-9.671875-21.769532-.152344-37.949219 13.398437-58.878906 11.460937-20.480469-1.875-37.214844-4.265625-55.867188 7.929688-7.050781 4.625-11.835938 13.574218-18.460938 17.773437-5.222656 3.445313-11.125 5.734375-17.304687 6.714844-21.035156 6.453125-37.886719 16.0625-47.785156 36.839844-5.445313 11.390625-6.980469 22.425781-12.664063 32.792969-5.230468 9.480468-10.042968 10.710937-14.335937 20.96875zm345.027343 263.019531c-4.796874 11.019531-15.042968 9.679687-23.226562 3.515625-6.285156-5.929688-11.980469-12.453125-17.007812-19.480469-8.40625-11.472656-17.78125-22.207031-28.015626-32.085937-7.722656-6.132813-15.28125-5.75-24.429687-9.070313-14.191406-4.183594-23.667969-17.546875-22.921875-32.324219 2.324219-2.710937 5.078125-5.019531 8.160156-6.824218 12.542969-4.167969 31.375 5.042968 44.449219 6.039062 12.667969 24.542969 35.890625 41.925781 63.011719 47.164062.101562 11.476563 4.382812 32.929688-.019532 43.066407zm110.933594-113.945313c-.636718 20.828125-11.523437 39.992188-29.089844 51.203125-42.828124 29.15625-105.429687 17.507813-130.621093-27.359375 18.90625-.851562 37.332031-6.195312 53.761719-15.582031 11.980468-6.902344 22.632812-15.890625 31.453124-26.539063 14.949219-17.824218 5.597657-14.753906 25.769532-6.390624 13.820312 5.890624 29.121094 7.382812 43.820312 4.265624 2.335938 6.613282 3.980469 13.453126 4.90625 20.402344zm-365.730468-231.492187c1.40625.078125 2.8125-.132813 4.132812-.621094 4.449219.933594 8.777344 2.367187 12.910156 4.265625 3.105469 1.417969 14.445313-3.363281 10-5.394531-5.210937-2.351563-10.707031-4.003907-16.351562-4.914063 25.203125-27.363281 49.542968-33.789062 73.019531-19.277344 6.167969 4.046876 11.527344 9.207032 15.804687 15.214844 3.03125 4.269532 14.890626-.367187 11.367188-5.28125-4.0625-5.605468-8.992188-10.53125-14.601562-14.589844 48.027343-34.527343 46.789062-9.796874 69.703124-.199218-4.207031 1.96875-8.28125 4.207031-12.203124 6.691406-2.210938 1.40625-1.289063 2.558594.800781 2.996094 3.09375.210937 6.167969-.613282 8.738281-2.347656 3.019531-1.914063 6.15625-3.640626 9.386719-5.171876 1.023437.230469 2.089843.425782 3.199219.597657 12.253906 1.859375 30.234374-7.246094 44-5.582031 23.125 2.792968 30.957031 15.113281 49.621093 24.089843.152344.078125.316407.121094.476563.199219 7.777344 7.761719 14.164062 16.804688 18.875 26.734375 1.707031 3.574219 13.652344-.496094 12.367187-3.320313-2.855469-5.964843-6.285156-11.632812-10.242187-16.929687 10.558594 1.738281 20.628906 5.695313 29.550781 11.605469 25.5625 19.582031 39.132813 51.03125 35.839844 83.0625 0 .136718.070312.214844.070312.339844-.917969 8.015624-2.816406 15.882812-5.648437 23.433593-1.128906 2.996094 10.929687 1.621094 12.261718-1.929687 1.734376-4.699219 3.117188-9.519532 4.128907-14.429688 19.65625 8.898438 32.085937 28.6875 31.574219 50.253906 0 46.234376-56.320313 68.027344-92.160157 35.304688-5.128906-6.046875-8.996093-13.058594-11.375-20.617188-1.570312-5.019531-13.910156-1.621093-12.367187 3.308594 2.445312 7.800782 6.332031 15.074219 11.460937 21.4375-29.457031 52.445313-87.039062 70.375-142.242187 44.722656-.414063-.140624-.847656-.230468-1.289063-.265624-5.144531-2.992188-10.050781-6.382813-14.667969-10.144532-3.128906-2.558594-14.503906 2.234375-11.535156 4.660156 5.136719 4.171876 10.609375 7.914063 16.359375 11.195313-39.058593 53.296875-110.390625 34.703125-128-24.484375-2.28125-10.078125-2.386719-20.527344-.308593-30.652344 9.992187-49.191406 62.035156-57.53125 104.039062-57.75 9.742188-.054687 21.84375 1.140625 30.207031-5.121094 8.644531-6.476562 7.109375-15.617187 14.507813-22.820312 8.53125-8.320312 16.859375-6.195312 28.824218-6.195312 4.035157 0 13.320313-6.039063 5.070313-6.039063-27.878906 0-36.695313-1.425781-51.347656 21.007813-12.148438 18.679687-25.761719 12.800781-46.464844 13.125-12.910156-.410157-25.8125 1.089843-38.289063 4.453124-38.40625 10.367188-62.960937 47.863282-57.101562 87.210938-41.03125 1-61.644531-23.378906-72.433594-55.097656 3.769532 2.960937 7.824219 5.535156 12.109375 7.679687 5.394531 2.644531 14.164063-5.179687 7.050781-8.679687-9.738281-4.839844-17.902343-12.34375-23.546874-21.640625-.484376-.722657-1.183594-1.273438-2.003907-1.570313-.496093-2.558594-.964843-5.078125-1.382812-7.636718-3.523438-21.445313-3.632813-34.664063 9.386719-52.984376 3.835937-4.175781 7.453124-8.550781 10.828124-13.105468 5.949219-3.867188 12.628907-6.453125 19.628907-7.605469 2.492187-.398437 6.585937-1.707031 6.824219-4.769531.273437-2.890625-3.285157-4.027344-5.605469-3.660156-5.855469.929687-11.582031 2.535156-17.066407 4.789062 9.378907-25.449219 5.496094-50 54.109376-47.550781zm0 0" fill="#262626"/></svg>