<svg height="501pt" viewBox="-40 0 501 501.17833" width="501pt" xmlns="http://www.w3.org/2000/svg"><path d="m259.933594 500.621094c-1.875.003906-3.53125-1.21875-4.082032-3.011719-.550781-1.792969.132813-3.734375 1.683594-4.785156l10.507813-7.117188-18.179688 10.484375c-1.960937 1.101563-4.445312.488282-5.667969-1.402344-1.222656-1.890624-.765624-4.40625 1.042969-5.746093l58.34375-41.875-68.777343 39.707031c-2.007813 1.175781-4.589844.527344-5.800782-1.460938-1.210937-1.992187-.605468-4.582031 1.363282-5.828124l11.628906-7.472657-13.898438 8.027344c-2 1.136719-4.539062.484375-5.742187-1.472656-1.207031-1.957031-.644531-4.515625 1.269531-5.789063l62.027344-40.730468-64.929688 37.488281c-1.996094 1.136719-4.535156.484375-5.742187-1.472657-1.203125-1.957031-.640625-4.515624 1.273437-5.789062l68.035156-44.492188-68.746093 39.6875c-1.992188 1.117188-4.511719.464844-5.710938-1.480468-1.203125-1.945313-.65625-4.488282 1.230469-5.773438l78.304688-51.558594-76 43.871094c-1.320313.839844-3 .890625-4.367188.125-1.367188-.761718-2.207031-2.214844-2.1875-3.78125.023438-1.570312.898438-3 2.289062-3.726562l201.71875-116.46875c2.003907-1.242188 4.636719-.621094 5.875 1.386718 1.238282 2.003907.621094 4.636719-1.386718 5.875l-78.222656 51.507813 76.023437-43.886719c1.992187-1.101562 4.5-.4375 5.691406 1.5 1.191407 1.941406.652344 4.476563-1.230469 5.761719l-68.105468 44.535156 60.734375-35.054687c1.988281-1.085938 4.480469-.421875 5.671875 1.507812 1.1875 1.929688.660156 4.453125-1.203125 5.746094l-62.0625 40.753906 40.609375-23.449218c2.011718-1.179688 4.59375-.527344 5.804687 1.460937 1.210938 1.988281.601563 4.582031-1.367187 5.824219l-21.597656 13.875c1.855468 0 3.496093 1.195312 4.0625 2.960937.570312 1.761719-.066407 3.691407-1.570313 4.773438l-58.289063 41.8125 46.078126-26.632813c1.988281-1.132812 4.515624-.496094 5.730468 1.441406 1.214844 1.941407.679688 4.492188-1.207031 5.785157l-39.832031 27.070312c.339844.253907.644531.558594.902344.902344 1.296874 1.746094 1.070312 4.1875-.519532 5.667969l-17.921875 16.691406c1.699219.40625 2.972657 1.808594 3.222657 3.535156.25 1.726563-.574219 3.433594-2.085938 4.304688l-25.523438 14.738281c-1.882812 1.09375-4.285156.59375-5.578124-1.15625-1.289063-1.753906-1.058594-4.195313.542968-5.671875l14.113282-13.148438-36.113282 20.847657c-.644531.375-1.382812.578125-2.132812.578125zm0 0" fill="#eb86be"/><path d="m136.839844 500.347656c-1.847656.027344-3.5-1.140625-4.097656-2.886718-.597657-1.75 0-3.683594 1.480468-4.792969l23.660156-18.328125-34.132812 19.710937c-2.007812 1.109375-4.535156.425781-5.714844-1.542969-1.183594-1.96875-.59375-4.515624 1.328125-5.769531l54.164063-33.5625-59.28125 34.21875c-2.007813 1.101563-4.523438.429688-5.707032-1.53125-1.183593-1.957031-.613281-4.5 1.292969-5.765625l111.191407-70.371094-116.632813 67.328126c-2.011719 1.125-4.550781.453124-5.742187-1.519532-1.1875-1.976562-.597657-4.535156 1.335937-5.785156l102.648437-64.402344-104.898437 60.585938c-2.011719 1.175781-4.59375.527344-5.804687-1.460938-1.210938-1.988281-.601563-4.582031 1.367187-5.828125l151.328125-96.648437-156.6875 90.453125c-2.015625 1.136719-4.570312.460937-5.757812-1.527344-1.1875-1.984375-.574219-4.554687 1.378906-5.792969l84.316406-52.207031-92.808594 53.589844c-2 1.085937-4.5.40625-5.679687-1.539063-1.179688-1.945312-.625-4.476562 1.261719-5.75l158.0625-100.445312-167.109376 96.480468c-2.015624 1.132813-4.566406.457032-5.753906-1.527343-1.1875-1.988281-.578125-4.558594 1.378906-5.796875l100.691407-62.394532-103.449219 59.734376c-2.003906 1.054687-4.484375.363281-5.648438-1.578126-1.164062-1.941406-.613281-4.457031 1.261719-5.726562l129.050781-80.53125-130.039062 75.09375c-1.304688.789062-2.933594.820312-4.265625.085938-1.335937-.738282-2.175781-2.128907-2.207031-3.652344-.03125-1.523438.753906-2.949219 2.058594-3.738282l156.570312-98.6875-154.914062 89.429688c-2 1.070312-4.492188.386719-5.664063-1.558594-1.171875-1.941406-.617187-4.464844 1.261719-5.738281l151.167968-95.144531-160.214843 92.484375c-2.023438 1.210937-4.644531.550781-5.855469-1.472657-1.210938-2.023437-.554688-4.648437 1.46875-5.859374l118.195312-73.386719-123.980468 71.679687c-2.015625 1.117188-4.550782.429688-5.730469-1.550781-1.175781-1.980469-.570313-4.539063 1.371094-5.777344l47.019531-28.679687-48.75 28.160156c-2.003906 1.082031-4.503906.40625-5.683594-1.539062-1.179687-1.945313-.625-4.476563 1.261719-5.75l167.167969-106.136719-169.148438 97.585937c-2 .976563-4.417968.25-5.546875-1.667968-1.132812-1.917969-.59375-4.386719 1.230469-5.660157l40.011719-24.449219-37.339844 21.519532c-2.011719 1.046875-4.488281.339844-5.640625-1.609375-1.15625-1.949219-.585938-4.460938 1.296875-5.71875l20.683594-12.597657-15.214844 8.789063c-2.015625 1.117187-4.554687.429687-5.730469-1.550781-1.179687-1.980469-.570312-4.539063 1.371094-5.777344l69.496094-42.667969-59.921875 34.59375c-2.011719 1.09375-4.527344.402344-5.699219-1.5625-1.171875-1.964843-.585938-4.503906 1.328125-5.757812l55.636719-34.132813-38.851563 22.441406c-2.007812 1.058594-4.492187.359376-5.652343-1.589843-1.164063-1.949219-.59375-4.46875 1.292968-5.730469l69.433594-42.890625-70.613281 40.757813c-2.003907 1.101562-4.519531.425781-5.707031-1.53125-1.183594-1.957032-.609376-4.503907 1.296874-5.765626l131.710938-83.457031-132.359375 76.449219c-2.007813 1.128906-4.550781.457031-5.738281-1.519531-1.191406-1.972657-.597656-4.53125 1.335937-5.785157l100.605469-63.214843-96.210938 55.519531c-2.023437 1.214844-4.644531.558594-5.859374-1.464844-1.214844-2.019531-.558594-4.644531 1.464843-5.855468l58.949219-36.753907-50.691406 29.269531c-2.007813 1.230469-4.636719.597657-5.863282-1.414062-1.230468-2.007812-.597656-4.636719 1.410157-5.867188l98.195312-63.546874-82.179687 47.445312c-1.984375 1.132812-4.515625.496094-5.726563-1.441406-1.214843-1.941406-.683593-4.492188 1.207031-5.785156l94.71875-64.058594-89.992187 51.941406c-2 1.136719-4.539063.484375-5.742187-1.472656-1.207032-1.957032-.644532-4.515625 1.269531-5.789063l41.257812-26.871093-31.988281 18.441406c-1.992188 1.152344-4.542969.519531-5.761719-1.433594s-.667969-4.523438 1.246094-5.804688l47.273437-31.785156c-1.820312-.039062-3.417968-1.226562-3.976562-2.957031-.558594-1.734375.046875-3.632813 1.503906-4.722656l17.808594-13.28125-17.261719 9.96875c-1.921875 1.121093-4.378906.585937-5.652343-1.238281-1.273438-1.824219-.9375-4.316407.777343-5.734376l17.699219-14.804687-13.390625 7.738281c-1.835937 1.0625-4.175781.613282-5.488281-1.054687s-1.199219-4.046875.265625-5.582031l11.28125-11.871094c-1.84375-.183594-3.359375-1.535156-3.75-3.347656-.390625-1.816407.4375-3.671876 2.046875-4.597657l21.144531-12.210937c1.835937-1.074219 4.1875-.628906 5.503906 1.042968 1.320313 1.671876 1.203125 4.0625-.273437 5.597657l-9.386719 9.855469 30.402344-17.554688c1.917969-1.117188 4.371093-.578125 5.644531 1.238281 1.273438 1.816407.941406 4.304688-.761719 5.726563l-17.714843 14.8125 37.71875-21.777344c1.957031-1.136719 4.460937-.546875 5.707031 1.34375 1.246093 1.890625.796875 4.425781-1.023438 5.773438l-17.84375 13.296874 35.371094-20.414062c1.992187-1.152344 4.539063-.519531 5.757813 1.433594s.667968 4.523437-1.246094 5.804687l-39.882813 26.820313 58.980469-34.058594c2-1.132812 4.539062-.484375 5.742188 1.472656 1.207031 1.957032.644531 4.519532-1.269532 5.789063l-41.230468 26.875 59.203124-34.136719c1.992188-1.179688 4.558594-.554688 5.789063 1.40625s.671875 4.542969-1.257813 5.824219l-94.722656 64 123.445313-71.230469c2.003906-1.136719 4.550781-.480469 5.75 1.484375 1.203125 1.96875.625 4.535156-1.304688 5.796875l-98.132812 63.511719 122.597656-70.824219c1.308594-.785156 2.9375-.8125 4.269531-.074219 1.332032.742188 2.171875 2.136719 2.199219 3.660157.023437 1.527343-.765625 2.949218-2.074219 3.734374l-58.964844 36.769532 76.363282-44.058594c2.019531-1.214844 4.644531-.5625 5.859375 1.457031 1.214843 2.019531.566406 4.640625-1.453125 5.859375l-100.574219 63.144532 114.234375-65.953126c2.007812-1.148437 4.566406-.484374 5.765625 1.492188 1.199219 1.980469.601563 4.554688-1.34375 5.804688l-131.796875 83.523437 139.757812-80.691406c2.011719-1.089844 4.523438-.402344 5.695313 1.5625 1.175781 1.964843.589844 4.507812-1.328125 5.757812l-69.324219 42.820313 70.296875-40.582032c2.027344-1.207031 4.648438-.539062 5.851563 1.488282s.535156 4.644531-1.488281 5.847656l-55.664063 34.132812 53.597656-30.949218c2.023438-1.207032 4.644531-.542969 5.847657 1.480468 1.207031 2.023438.546874 4.644532-1.480469 5.851563l-69.640625 42.75 64.351562-37.144531c2.015625-1.097656 4.539063-.402344 5.710938 1.574218 1.167968 1.976563.566406 4.523438-1.367188 5.765626l-20.652344 12.566406 10.328126-5.972656c2.019531-1.152344 4.59375-.46875 5.78125 1.53125 1.1875 2.003906.550781 4.585937-1.429688 5.808593l-39.902344 24.386719 48.742188-28.160156c2.007812-1.148438 4.566406-.484375 5.765625 1.496094 1.199219 1.976562.601562 4.550781-1.34375 5.800781l-167.253907 106.179687 180.050782-103.925781c2.019531-1.117187 4.554687-.429687 5.734375 1.550781 1.175781 1.980469.570312 4.539063-1.371094 5.777344l-46.996094 28.664062 49.570313-28.621093c1.308594-.78125 2.9375-.808594 4.269531-.066407 1.332031.738282 2.167969 2.136719 2.191406 3.660157.023438 1.523437-.765625 2.945312-2.074219 3.730469l-118.144531 73.308593 121.277344-69.972656c2.015625-1.21875 4.640625-.570313 5.859375 1.445313 1.21875 2.015624.570312 4.640624-1.449219 5.859374l-151.140625 95.09375 152.523438-88.0625c2.019531-1.21875 4.640625-.570312 5.859375 1.445313s.570312 4.640625-1.445313 5.859375l-156.714844 98.746094 154.28125-89.078125c2.023438-1.214844 4.644532-.558594 5.859376 1.460937 1.210937 2.023438.558593 4.644532-1.464844 5.859375l-128.902344 80.445313 125.351562-72.378906c2.023438-1.214844 4.644532-.554688 5.855469 1.464843 1.210938 2.023438.554688 4.644531-1.46875 5.855469l-100.8125 62.464844 103.859375-59.964844c2.015625-1.222656 4.640625-.582031 5.863282 1.433594 1.222656 2.015625.582031 4.640625-1.433594 5.863281l-158.046875 100.417969 159.285156-91.953125c2.023437-1.210938 4.644531-.554688 5.855469 1.472656 1.210937 2.023437.554687 4.644531-1.472656 5.855469l-84.324219 52.199218 81.160156-46.863281c2.003906-1.121093 4.535156-.457031 5.726563 1.507813 1.195312 1.960937.621093 4.515625-1.296876 5.777344l-151.28125 96.640624 141.210938-81.519531c2.007812-1.085937 4.511719-.402343 5.6875 1.554688 1.175781 1.953125.605469 4.488281-1.292969 5.75l-102.742187 64.460937 96.964844-55.953125c2.019531-1.21875 4.640624-.570312 5.859374 1.445313 1.21875 2.019531.570313 4.640625-1.445312 5.859375l-111.207031 70.347656 114.953125-66.363281c2.015625-1.132813 4.566406-.457032 5.753906 1.527344 1.1875 1.988281.578125 4.558593-1.378906 5.796874l-196.566406 121.792969c.527343 1.699219-.054688 3.546875-1.457032 4.636719l-23.644531 18.328125 16.101563-9.300781c1.867187-1.105469 4.265624-.636719 5.578124 1.09375 1.308594 1.730468 1.113282 4.167968-.457031 5.664062l-18.066406 17.449219c1.984375-.160156 3.816406 1.074219 4.414063 2.972656.601562 1.898438-.195313 3.960938-1.914063 4.964844l-27.144531 15.675781c-1.867188 1.105469-4.265625.636719-5.578125-1.09375-1.308594-1.730468-1.113281-4.167968.457031-5.664062l16.878906-16.308594-40.40625 23.332031c-.644531.378907-1.382812.578125-2.132812.578125zm0 0" fill="#eb86be"/><path d="m182.835938 263.480469c-1.855469.003906-3.5-1.1875-4.070313-2.953125s.0625-3.695313 1.570313-4.777344l10.480468-7.5625-20.386718 11.71875c-1.976563 1.101562-4.472657.472656-5.683594-1.441406-1.214844-1.910156-.722656-4.433594 1.117187-5.753906l33.28125-23.160157-28.714843 16.582031c-2 1.15625-4.554688.515626-5.769532-1.445312-1.214844-1.964844-.648437-4.539062 1.28125-5.808594l15.058594-9.976562-10.570312 6.101562c-1.980469 1.136719-4.5.515625-5.726563-1.410156-1.222656-1.925781-.714844-4.472656 1.152344-5.78125l59.355469-41.480469-57.367188 33.125c-1.992188 1.214844-4.589844.605469-5.835938-1.367187-1.242187-1.972656-.667968-4.582032 1.285157-5.851563l54.152343-37.070312-54.75 31.574219c-1.980468 1.101562-4.476562.460937-5.683593-1.457032-1.207031-1.917968-.703125-4.445312 1.144531-5.753906l59.597656-40.789062-63.144531 36.488281c-1.988281 1.132812-4.519531.496093-5.730469-1.441407-1.214844-1.941406-.683594-4.492187 1.207032-5.785156l58.554687-39.605468-63.667969 36.753906c-1.992187 1.214844-4.589844.609375-5.832031-1.367188-1.246094-1.972656-.671875-4.582031 1.285156-5.851562l72.132813-49.492188-78.652344 45.4375c-1.980469 1.121094-4.488281.488282-5.703125-1.433594-1.214844-1.921874-.710937-4.457031 1.144531-5.765624l80.660156-55.792969-85.199218 49.195312c-2.007813 1.234375-4.636719.609375-5.871094-1.398437-1.234375-2.007813-.609375-4.636719 1.398438-5.871094l40.246093-26.292969-40.960937 23.671875c-2.003906 1.199219-4.597656.566406-5.824219-1.417968-1.226563-1.988282-.625-4.589844 1.34375-5.84375l46.601563-30.71875-46.082032 26.632812c-1.292968.804688-2.917968.859375-4.265625.140625-1.34375-.714844-2.203125-2.097656-2.253906-3.621094-.054687-1.523437.710937-2.960937 2.007813-3.765625l56.796874-38.125-55.371093 31.957032c-2 1.117187-4.523438.457031-5.722657-1.496094-1.195312-1.953125-.636718-4.503906 1.265626-5.777344l21.890624-14.25-18.65625 10.769531c-2.003906 1.242188-4.632812.625-5.875-1.378906-1.242187-2-.625-4.632813 1.378907-5.875l30.234375-20.019531-25.601563 14.789062c-1.988281 1.152344-4.53125.527344-5.753906-1.417968-1.222656-1.945313-.6875-4.507813 1.214844-5.800782l38.390625-26.257812-32.171875 18.578125c-1.957031 1.105469-4.441407.5-5.667969-1.386719-1.230469-1.882812-.785156-4.398438 1.019531-5.746094l44.765625-32.753906-32.9375 19.015625c-1.878906 1.003906-4.210937.472656-5.464844-1.246094-1.253906-1.71875-1.050781-4.101562.480469-5.582031l29.710938-26.675781c-2.066407.53125-4.207031-.550781-5.011719-2.527344-.800781-1.976563-.019531-4.242187 1.832031-5.304687l33.738281-19.527344c1.894532-1.109375 4.324219-.601563 5.613282 1.179687 1.289062 1.777344 1.015625 4.246094-.628906 5.699219l-29.132813 26.15625 65.878906-38.042969c1.957031-1.105469 4.441407-.4999998 5.667969 1.386719 1.230469 1.886719.785156 4.402344-1.019531 5.746094l-44.757813 32.761718 61.664063-35.609374c1.996093-1.253907 4.628906-.652344 5.882812 1.34375 1.253907 1.996093.652344 4.628906-1.34375 5.882812l-38.496093 26.273438 48.230468-27.84375c2.003906-1.242188 4.636719-.625 5.875 1.378906 1.242188 2.003906.625 4.632812-1.375 5.875l-30.15625 19.96875 36.078125-20.847656c2-1.164063 4.566407-.519532 5.78125 1.457031 1.210938 1.972656.625 4.554687-1.320312 5.8125l-21.878907 14.25 26.597657-15.359375c1.992187-1.152344 4.542969-.519532 5.761719 1.433594 1.21875 1.953124.667968 4.523437-1.246094 5.804687l-56.832032 38.160156 61.933594-35.761719c2.007813-1.242187 4.636719-.621093 5.875 1.386719 1.242188 2.003907.621094 4.632813-1.386718 5.875l-46.566407 30.703125 50.007813-28.871094c1.992187-1.097656 4.5-.4375 5.691406 1.503907 1.191406 1.941406.652344 4.476562-1.230469 5.757812l-40.25 26.300781 41.8125-24.125c1.980469-1.117187 4.488281-.484374 5.703125 1.433594 1.214844 1.921875.710938 4.460938-1.144531 5.769532l-80.675781 55.75 83.207031-48.042969c1.984375-1.132813 4.507813-.503907 5.726563 1.425781 1.21875 1.933594.699218 4.484375-1.175782 5.785156l-72.183594 49.492188 72.386719-41.8125c1.988281-1.132813 4.515625-.496094 5.730469 1.441406 1.214844 1.941406.679688 4.492188-1.207031 5.785156l-58.503907 39.65625 55.890626-32.273437c1.984374-1.136719 4.507812-.503907 5.726562 1.425781 1.21875 1.933594.699219 4.480469-1.175781 5.785156l-59.640625 40.804688 54.496094-31.460938c1.984374-1.15625 4.527343-.527344 5.75 1.417969 1.226562 1.945313.6875 4.507813-1.210938 5.800781l-54.121094 37.050782 46.472656-26.835938c1.980469-1.136719 4.5-.515625 5.726563 1.410156 1.222656 1.925782.714844 4.472656-1.152344 5.78125l-59.375 41.507813 45.277344-26.15625c2-1.15625 4.554687-.515625 5.769531 1.445312 1.214844 1.964844.648438 4.539063-1.28125 5.808594l-17.714844 11.742187c1.75-.378906 3.546876.371094 4.507813 1.878907 1.226563 1.929687.710937 4.488281-1.167969 5.792969l-33.28125 23.152343 5.035156-2.910156c1.964844-1.128906 4.46875-.523437 5.703126 1.378906 1.234374 1.902344.761718 4.4375-1.070313 5.769531l-10.523437 7.605469.265624-.15625c1.953126-1.144531 4.460938-.5625 5.714844 1.324219 1.25 1.886719.8125 4.421875-1.003906 5.777344l-4.609375 3.488281c1.765625.003906 3.34375 1.085937 3.980469 2.730469.632812 1.644531.191406 3.507812-1.113282 4.695312l-4.417968 4.011719c1.507812-.523437 3.179687-.15625 4.335937.945313 1.152344 1.097656 1.597657 2.753906 1.148438 4.285156l-3.113281 10.664062c1.148437.265625 2.128906.996094 2.714843 2.015625 1.179688 2.039063.484375 4.648438-1.554687 5.828125l-5.640625 3.257813c-1.507813.875-3.394531.738281-4.765625-.335938-1.371094-1.078125-1.949219-2.878906-1.464844-4.550781l2.65625-9.054688-24.304688 14.027344c-1.878906 1.035156-4.230468.515625-5.496093-1.214844-1.269531-1.730468-1.054688-4.132812.496093-5.609374l4.164063-3.789063-18.523437 10.699219c-1.953126 1.144531-4.464844.566406-5.714844-1.320313-1.253906-1.886719-.8125-4.425781 1.003906-5.777343l.996094-.753907-13.652344 7.902344c-.648438.382813-1.382812.585937-2.132812.589844zm0 0" fill="#fdcd56"/><g fill="#e4e8eb"><path d="m228.371094 331.5c-1.632813 0-3.121094-.929688-3.835938-2.398438-.71875-1.464843-.53125-3.210937.472656-4.496093l12.535157-16.058594-38.785157 22.347656c-1.785156 1.023438-4.042968.625-5.375-.941406-1.332031-1.570313-1.351562-3.867187-.050781-5.460937l12.714844-15.453126-37.15625 21.503907c-1.828125 1.050781-4.152344.601562-5.460937-1.050781-1.3125-1.65625-1.214844-4.019532.222656-5.5625l11.375-12.058594-18.933594 10.941406c-1.660156.960938-3.757812.699219-5.128906-.644531-1.367188-1.34375-1.671875-3.4375-.742188-5.113281l6.679688-12.058594-1.082032.621094c-2.027343 1.0625-4.527343.335937-5.671874-1.644532-1.144532-1.980468-.527344-4.507812 1.402343-5.734375l14.421875-8.320312c1.660156-.949219 3.746094-.683594 5.109375.65625 1.363281 1.335937 1.671875 3.417969.753907 5.09375l-6.691407 12.066406 30.839844-17.800781c1.832031-1.046875 4.15625-.601563 5.464844 1.054687 1.308593 1.652344 1.214843 4.015625-.222657 5.558594l-11.375 12.058594 32.347657-18.671875c1.785156-1.011719 4.039062-.613282 5.363281.953125 1.324219 1.566406 1.351562 3.855469.054688 5.445312l-12.714844 15.457031 37.351562-21.566406c1.769532-1.023437 4.011719-.648437 5.355469.890625 1.34375 1.539063 1.40625 3.8125.148437 5.425781l-12.535156 16.058594 21.164063-12.21875c1.707031-.988281 3.871093-.675781 5.230469.757813 1.359374 1.433593 1.554687 3.613281.476562 5.265625l-5.511719 8.449218c2.070313-.582031 4.25.464844 5.085938 2.445313.835937 1.980469.070312 4.277344-1.792969 5.355469l-14.359375 8.285156c-1.710937.988281-3.875.671875-5.230469-.761719-1.359375-1.433593-1.558594-3.609375-.480468-5.265625l5.367187-8.207031-24.667969 14.191406c-.644531.390625-1.382812.597657-2.132812.605469zm0 0"/><path d="m224.886719 297.367188c-1.730469.003906-3.292969-1.042969-3.953125-2.644532-.660156-1.601562-.28125-3.445312.949218-4.660156l9.304688-9.257812-27.660156 15.957031c-1.820313 1.035156-4.125.589843-5.4375-1.046875-1.308594-1.636719-1.234375-3.980469.175781-5.535156l12.011719-13.046876-33.976563 19.628907c-1.78125 1.027343-4.039062.640625-5.375-.917969-1.335937-1.558594-1.375-3.847656-.085937-5.449219l12.796875-15.847656-26.453125 15.257813c-1.625.941406-3.671875.710937-5.046875-.566407-1.375-1.28125-1.75-3.308593-.925781-4.996093l6.902343-14.105469-2.3125 1.324219c-2.023437 1.058593-4.527343.332031-5.671875-1.648438-1.144531-1.976562-.523437-4.507812 1.40625-5.734375l14.421875-8.328125c1.625-.945312 3.679688-.714844 5.054688.566406 1.375 1.285156 1.75 3.316406.917969 5.003906l-6.929688 14.105469 34.132812-19.683593c1.78125-1.027344 4.039063-.640626 5.375.921874 1.335938 1.558594 1.367188 3.851563.078126 5.449219l-12.796876 15.875 38.542969-22.1875c1.824219-1.046875 4.144531-.609375 5.457031 1.035157 1.3125 1.644531 1.234376 4.003906-.191406 5.550781l-12.050781 13.039062 31.925781-18.429687c1.855469-1.042969 4.195313-.558594 5.484375 1.132812 1.289063 1.695313 1.132813 4.078125-.367187 5.589844l-9.332032 9.25 14.648438-8.457031c1.75-1.007813 3.96875-.648438 5.3125.855469 1.347656 1.507812 1.453125 3.75.253906 5.375l-6.257812 8.464843 1.296875-.742187c1.324219-.839844 3-.886719 4.371093-.125 1.367188.765625 2.207032 2.214844 2.1875 3.785156-.023437 1.566406-.902343 2.996094-2.289062 3.722656l-18.996094 10.914063c-1.746094 1-3.957031.640625-5.300781-.859375-1.339844-1.5-1.449219-3.738282-.261719-5.363282l6.253906-8.457031-25.457031 14.679688c-.640625.390625-1.378906.597656-2.132812.605469zm0 0"/><path d="m216.765625 373.425781c-1.75.003907-3.324219-1.0625-3.972656-2.683593-.648438-1.625-.242188-3.480469 1.027343-4.683594l1.007813-.953125-11.855469 6.824219c-1.914062 1.105468-4.359375.558593-5.625-1.257813-1.265625-1.8125-.933594-4.292969.761719-5.714844l5.308594-4.410156-10.589844 6.109375c-1.777344 1.019531-4.027344.628906-5.359375-.925781-1.332031-1.554688-1.371094-3.839844-.09375-5.4375l14.183594-17.613281-19.226563 11.09375c-1.789062 1.03125-4.058593.632812-5.390625-.945313-1.335937-1.578125-1.34375-3.882813-.027344-5.472656l3.414063-4.089844-.855469.472656c-1.515625.875-3.414062.738281-4.789062-.351562-1.371094-1.085938-1.941406-2.90625-1.429688-4.582031l1.492188-4.898438c-1.347656-.746094-2.191406-2.15625-2.203125-3.695312-.015625-1.539063.800781-2.96875 2.136719-3.738282l4.265624-2.472656c1.515626-.882812 3.421876-.742188 4.792969.347656 1.375 1.09375 1.941407 2.914063 1.425781 4.59375l-.613281 1.996094 12.132813-7c1.800781-1.167969 4.1875-.820312 5.574218.8125 1.390626 1.632812 1.355469 4.042969-.085937 5.632812l-3.414063 4.078126 18.339844-10.582032c1.777344-1.027344 4.035156-.640625 5.371094.917969 1.339844 1.558594 1.375 3.847656.089844 5.449219l-14.183594 17.601562 34.082031-19.675781c1.917969-1.085937 4.34375-.53125 5.601563 1.273437 1.257812 1.808594.9375 4.277344-.746094 5.699219l-5.425781 4.523438c1.894531-.835938 4.117187-.1875 5.265625 1.535156 1.152344 1.71875.898437 4.019531-.597656 5.453125l-7.945313 7.585938c1.265625.796874 2.023437 2.195312 1.992187 3.691406-.027343 1.492187-.835937 2.863281-2.128906 3.613281l-19.574218 11.296875c-.648438.382812-1.382813.582031-2.132813.582031zm0 0"/></g><path d="m100.113281 357.023438c-1.617187 0-3.09375-.914063-3.816406-2.359376-.722656-1.445312-.566406-3.175781.402344-4.46875l2.988281-3.933593-9.039062 5.222656c-1.847657 1.082031-4.210938.621094-5.523438-1.070313-1.3125-1.695312-1.164062-4.097656.34375-5.621093l1.09375-1.109375-.367188.214844c-1.746093 1.007812-3.964843.65625-5.3125-.847657-1.347656-1.503906-1.453124-3.746093-.257812-5.371093l4.453125-6.058594c-1.847656-.171875-3.375-1.515625-3.777344-3.328125-.402343-1.8125.414063-3.675781 2.019531-4.609375l13.96875-8.074219c1.75-1.007813 3.964844-.65625 5.3125.847656 1.347657 1.503907 1.453126 3.746094.261719 5.375l-3.304687 4.503907 9.96875-5.757813c1.847656-1.066406 4.199218-.601563 5.503906 1.085937 1.308594 1.6875 1.164062 4.082032-.335938 5.601563l-1.089843 1.109375.222656-.125c1.757813-1.011719 3.984375-.644531 5.324219.875 1.339844 1.523438 1.425781 3.777344.203125 5.394531l-4.589844 6.035157c1.226563.230468 2.296875.984374 2.925781 2.0625 1.179688 2.042968.480469 4.652343-1.5625 5.828124l-13.90625 8.03125c-.644531.363282-1.371094.550782-2.109375.546876zm0 0" fill="#ffd67b"/><path d="m323.644531 261.433594c-1.640625 0-3.136719-.9375-3.847656-2.417969-.710937-1.476563-.511719-3.230469.511719-4.511719l5.726562-7.195312-8.757812 5.0625c-1.699219.984375-3.851563.679687-5.210938-.738282-1.363281-1.414062-1.582031-3.578124-.53125-5.234374l5.605469-8.832032c-1.898437.582032-3.953125-.222656-4.949219-1.945312-1.179687-2.039063-.484375-4.648438 1.554688-5.832032l14.019531-8.085937c1.699219-.984375 3.851563-.679687 5.210937.734375 1.363282 1.414062 1.582032 3.578125.53125 5.238281l-5.476562 8.644531 13.226562-7.640624c1.777344-1.027344 4.03125-.644532 5.371094.910156 1.339844 1.558594 1.378906 3.847656.097656 5.449218l-5.71875 7.175782 3.339844-1.929688c2.039063-1.15625 4.628906-.453125 5.800782 1.578125 1.175781 2.03125.488281 4.628907-1.535157 5.8125l-22.835937 13.183594c-.648438.375-1.382813.574219-2.132813.574219zm0 0" fill="#ffd67b"/><path d="m303.011719 390.804688c-1.597657 0-3.058594-.890626-3.792969-2.3125-.730469-1.417969-.605469-3.125.320312-4.425782l5.117188-7.1875-11.417969 6.589844c-1.632812.972656-3.71875.746094-5.105469-.5625-1.386718-1.304688-1.738281-3.371094-.867187-5.0625l6.914063-13.652344-1.621094.929688c-1.324219.839844-3 .890625-4.371094.125-1.367188-.765625-2.207031-2.214844-2.183594-3.785156.019532-1.566407.898438-2.996094 2.285156-3.722657l14.046876-8.113281c1.636718-.96875 3.714843-.742188 5.097656.5625 1.386718 1.300781 1.742187 3.359375.875 5.050781l-6.910156 13.65625 15.972656-9.226562c1.738281-1 3.9375-.65625 5.289062.828125 1.347656 1.484375 1.480469 3.707031.320313 5.339844l-5.121094 7.246093c2.0625-.835937 4.417969.050781 5.417969 2.039063.996094 1.992187.300781 4.414062-1.605469 5.566406l-16.527344 9.546875c-.648437.375-1.386719.570313-2.132812.570313zm0 0" fill="#ffd67b"/><path d="m.367188 345.015625c2.492187 22.1875 13.347656 27.546875 27.308593 41.652344 9.5625 9.675781 6.082031 3.070312 10.5625 12.109375 4.140625 8.371094 3.867188 19.070312 9.445313 27.664062 8.738281 13.449219 23.109375 19.097656 33.929687 30.089844 14.046875 14.265625 19.472657 30.367188 39.382813 39.160156 34.175781 14.613282 73.753906-.949218 88.820312-34.929687 17.128906 42.285156 70.121094 51.148437 108.117188 21.050781.148437-.117188.148437-.1875.265625-.296875.199219-.125.386719-.273437.554687-.433594 6.640625-7.835937 10.472656-20.371093 16.769532-27.214843 6.230468-4.421876 12.84375-8.28125 19.761718-11.527344 7.160156-4.859375 13.328125-11.039063 18.167969-18.210938 5.734375-8.875 5.121094-21.382812 8.378906-30.335937 1.183594-.691407 1.933594-1.933594 1.996094-3.300781 0-.265626-.050781-.511719-.058594-.777344 6.128907-9.609375 22.871094-13.652344 29.996094-25.738282 18.773437-31.835937-8.484375-49.140624-5.539063-79.582031 1.273438-13.105469 7.5-22.527343 4.695313-36.324219-2.980469-14.617187-11.207031-26.378906-14.082031-41.667968-4.503906-23.996094-9.488282-42.539063-32.683594-55.390625-3.777344-2.101563-18.0625-5.273438-19.027344-7.84375-1.441406-3.882813 6.742188-18.859375 5.648438-26.519531-2.910156-20.480469-17.921875-30.5-36.695313-34.066407-8.84375-34.847656-34.328125-63.074219-68.09375-75.421875-33.761719-12.347656-71.449219-7.2187498-100.683593 13.699219-21.320313 15.144531-36.371094 37.554687-42.320313 63.019531-16.289063 4.019532-30.855469 12.578125-35.652344 30.488282-2.890625 10.78125 4.78125 26.328124.421875 32.625-.957031 1.375-20.855468 10.359374-23.425781 12.457031-24.285156 19.867187-27.050781 58.113281-36.085937 86.058593-6.785157 20.976563 7.429687 38.402344 1.824218 58.601563-4.285156 15.445313-13.710937 22.96875-11.699218 40.90625zm161.535156-78.976563c2.222656-1.808593 4.835937-3.082031 7.628906-3.71875h74.453125c12.65625 2.117188 32.308594 22.9375 12.398437 27.722657-1.199218-.21875-2.410156-.378907-3.625-.476563-26.539062-1.953125-53.183593-2.023437-79.734374-.203125-11.417969-3.160156-22.605469-12.65625-11.121094-23.324219zm-.289063 37.359376c3.101563-3.671876 7.480469-6.027344 12.253907-6.59375 18.003906 1.183593 36.523437.449218 54.808593-.105469 4.378907-.160157 8.765625-.027344 13.125.394531 2.628907-.195312 5.273438-.195312 7.902344 0 6.089844.0625 11.515625 3.863281 13.652344 9.566406 2.507812 7.046875-.542969 12.738282-9.15625 17.066406h-4.90625c-1.214844-.707031-2.605469-1.058593-4.011719-1.015624h-68.265625c-.691406.023437-1.375.148437-2.03125.375-13.011719-1.921876-22.375-7.007813-13.371094-19.667969zm21.488281 28.902343c9.675782.351563 19.480469.230469 29.300782-.058593h25.984375c-.851563 16.800781-6.824219 32.015624-27.203125 33.109374-19.78125.015626-26.871094-16.769531-28.082032-33.03125zm151.753907-188.339843c-.289063.199218-.5625.425781-.808594.675781-3.28125 4.207031-7.542969 7.546875-12.40625 9.738281-1.328125.445312-2.394531 1.441406-2.933594 2.730469-.539062 1.292969-.496093 2.753906.117188 4.007812 1.765625 2.6875 5.972656 2.261719 8.445312 1.136719 5.671875-2.609375 10.753907-6.339844 14.933594-10.972656 18.367187 4.660156 33.34375 17.917968 40.203125 35.582031 2.0625 7.46875 2.472656 15.296875 1.203125 22.9375-2.34375-1.347656-4.769531-2.535156-7.273437-3.558594-3.117188-1.070312-6.570313-.144531-8.738282 2.339844-.890625.976563-1.21875 2.34375-.875 3.621094.347656 1.277343 1.320313 2.289062 2.582032 2.683593 5.921874 2.300782 11.371093 5.667969 16.078124 9.933594 2.296876 5.027344 10.605469 21.035156 15.734376 29.953125 1.261718 11.496094-1.128907 23.09375-6.824219 33.160157-4.121094-2.550782-8.539063-4.585938-13.160157-6.050782-3.121093-1.011718-6.546874-.089844-8.746093 2.347656-.898438.953126-1.234375 2.308594-.886719 3.574219s1.332031 2.257813 2.59375 2.621094c6.523438 2.042969 12.570312 5.386719 17.773438 9.820313 23.332031 25.472656 23.46875 64.050781-8.53125 82.832031-1.023438-8.886719-3.792969-17.484375-8.140626-25.300781-2.5625-4.554688-14.371093-.144532-11.351562 5.324218 4.816406 8.726563 7.40625 18.503906 7.542969 28.46875.242187 15.789063-5.722657 31.042969-16.605469 42.488282-4.589844 5.699218-10.621094 10.070312-17.464844 12.660156 1.054688-6.304688 1.230469-12.730469.527344-19.085938-.453125-4.183594-12.875-1.453125-12.363281 3.308594.738281 7.121094.277343 14.316406-1.375 21.285156-6.128907 7.679688-11.988281 23.738282-16.417969 29.199219-43.589844 33.84375-83.0625-.554687-89.898438-40.261719h41.554688c3.6875 0 13.40625-5.511718 5.207031-5.511718h-47.617187v-28.328126c4.269531.050782 8.441406.074219 12.648437-.097656 8.304688-.785156 15.898438-5.023437 20.921875-11.679687 2.109375-2.101563-1.816406-2.722657-3.113281-2.757813-3.039063-.023437-5.972656 1.101563-8.21875 3.148438-1.484375 1.476562-4.503906 3.472656-5.460937 5.367187-1.238282-.074219-2.480469-.074219-3.71875 0h-13.058594v-27.390625c10.382812-1.644531 19.632812-7.46875 25.601562-16.121094 7.820313-.558593 15.667969-.539062 23.484375.0625 5.871094 1.394532 11.4375 3.835938 16.441407 7.210938-.636719 1.820312-1.019532 3.722656-1.140626 5.648438 0 .253906.109376.410156.144532.632812.035156.21875-.101563.28125-.09375.433594 1.5 27.878906 46.667968 23.894531 46.515625-2.773438-.121094-21.46875-26.207031-24.507812-39.253907-13.097656-6.035156-4.050781-12.914062-6.679688-20.113281-7.679688-6.980469-.292968-14.011719-.164062-21.027343-.070312 1.976562-5.445312 3.125-11.160156 3.414062-16.945312.589844.023437 1.179688 0 1.765625-.078126 9.953125-.964843 18.464844-7.5625 21.890625-16.957031h44.824219c5.058593 0 12.96875-7.679687 4.640625-7.679687h-48.777344c-.886719-6.585938-5.3125-12.152344-11.527344-14.503906 4.476563-2.523438 8.007813-6.441407 10.054688-11.15625 9.265625.417968 20.675781 1.707031 27.980468-3.625 6.117188-4.890626 11.761719-10.34375 16.859376-16.289063 13.824218 5.921875 34.929687-1.707031 34.824218-19.917969-.152344-28.160156-45.148437-24.644531-46.566406 1.707032 0 .253906.121094.410156.144531.632812.027344.21875-.101562.28125-.09375.433594.152344 3.902344 1.457031 7.671875 3.757813 10.828125l-6.1875 6.1875c-2.902344 2.902343-6.9375 8.96875-10.675782 10.675781-2.988281.601562-6.058593.6875-9.078124.253906h-9.667969c-1.527344-7.664062-7.773438-13.503906-15.523438-14.503906 0-6.417969-.375-13.320312-.375-20.175781h17.375c2.457031 0 6.925781-.851563 8.164063-3.34375 1.238281-2.492188-1.03125-3.515625-3.320313-3.515625h-21.988281c.128906-4.34375.65625-8.667969 1.570312-12.917969 5.433594-23.042969 22.953126-31.25 35.839844-48.257813 14.347656-19.339843 22.207032-42.726562 22.457032-66.808593-.289063-3.863281-.851563-7.617188-1.457032-11.3125 23.109375 9.136719 26.09375 31.949219 17.039063 53.074219zm-30.667969 213.335937c6.632812 1.300781 11.347656 7.210937 11.144531 13.96875-.050781 6.238281-4.503906 13.054687-11.441406 11.476563-6.023437-1.804688-10.132813-7.367188-10.097656-13.652344.445312-5.710938 3.621093-12.511719 10.394531-11.792969zm15.199219-116.207031c.453125-5.71875 3.617187-12.535156 10.402343-11.8125 6.632813 1.320312 11.34375 7.234375 11.144532 13.996094-.050782 6.230468-4.496094 13.074218-11.433594 11.484374-6.027344-1.816406-10.140625-7.375-10.113281-13.667968zm-170.828125-212.214844c68.640625-59.65625 152.917968 2.925781 158.351562 76.644531.058594 23.019531-7.511718 45.410157-21.519531 63.675781-10.445313 13.21875-24.515625 21.171876-32.019531 36.703126-7.5 15.53125-6.476563 33.167968-6.226563 50.089843-22.78125-1.445312-45.625-1.53125-68.414062-.257812-9.460938-4.394531-3.292969-7.269531-4.503907-23.183594-.367187-15.421875-5.644531-30.324219-15.0625-42.539063-19.164062-24.164062-39.433593-39.347656-43.800781-72.601562-4.292969-33.1875 8.140625-66.347656 33.195313-88.53125zm-116.875 266.402344v-.054688c4.273437-3.351562 9.117187-5.90625 14.292968-7.542968 1.1875-.375 5.054688-1.953126 3.644532-3.667969-1.40625-1.714844-6.570313.164062-7.988282.605469-4.167968 1.347656-8.191406 3.105468-12.011718 5.25-8.679688-11.820313-11.898438-26.78125-8.851563-41.125 2.320313-11.015626 10.054688-15.121094 14.507813-25.207032 6.363281-6.0625 14.382812-10.101562 23.039062-11.605468 2.253906-.367188 6.828125-1.636719 6.921875-4.589844.136719-2.824219-3.21875-3.710938-5.519531-3.335938-8.160156 1.34375-16.003906 4.179688-23.136719 8.363282-1.578125-5.671876-1.816406-11.632813-.691406-17.410157 4.046875-23.164062 22.058594-41.375 45.175781-45.679687.710938-.152344 8.457032-2.03125 7.238282-4.265625-10.140626-18.773438-12.800782-47.785157 15.640624-55.988281-2.757812 14.8125-2.207031 30.050781 1.613282 44.621093 7.296875 27.453125 25.515625 39.902344 42.085937 60.972657 8.179688 10.554687 12.941407 23.355468 13.652344 36.691406h-19.414063c-3.074218-.117188-6.117187.683594-8.738281 2.304687-1.558593 1.273438-2.089843 2.355469.632813 2.355469h27.878906c.375 7.203125.253906 14.625.214844 22.304688-6.484375 2.257812-11.722656 7.136718-14.429688 13.441406h-47.132812c-7.097656 0-9.460938 9.148437-1.074219 9.148437h47.042969c.957031 5.890625 4.976562 10.832031 10.550781 12.96875-4.644531 2.773438-8.15625 7.101563-9.917969 12.210938-5.800781-.117188-11.65625-.324219-17.390625.085937-7.289062 1.320313-13.796875 5.371094-18.203125 11.324219-13.789062-5.75-34.824218 1.894531-34.804687 19.746094 0 27.90625 45.140625 23.972656 46.53125-1.875 0-.207031-.109375-.324219-.136719-.503907-.027344-.179687.121094-.292968.109375-.453124-.136719-3.996094-1.527344-7.847657-3.964844-11.015626 3.15625-3.59375 6.65625-7.929687 10.765625-8.636718 5.414063-.609375 10.878906-.65625 16.300782-.136719 2.039062 9.878906 10.839843 16.890625 20.921874 16.675781 1.085938.117188 2.195313.167969 3.285157.269532-.117188 6.285156.78125 12.546874 2.664062 18.542968-5.851562-.457031-11.730469.507813-17.125 2.816406-7.195312 4.886719-13.617187 10.820313-19.054687 17.605469-2.042969 2.039063 1.789062 2.382813 3.011718 2.382813 3.019532-.019532 5.941407-1.097656 8.25-3.046875 4.632813-4.644531 9.769532-9.070313 14.054688-14.046875h.589844c1.996094.101562 4.027344 0 6.023437 0h6.828125c.886719 1.585937 1.898438 3.097656 3.027344 4.523437 6.484375 7.835938 15.75 12.855469 25.855469 14.003907v42.273437h-44.457031c-7.21875 0-9.34375 9.503906-.972657 9.503906h45.457031v11.476563c.039063.253906.109376.496094.214844.726562-.042968.113282-.15625.222656-.164062.332032-3.667969 41.292968-51.523438 78.140624-91.058594 39.953124-7.679688-7.414062-9.898438-22.601562-16.214844-29.394531-1.605468-6.84375-2.050781-13.910156-1.320312-20.898437.375-3.515625-11.898438-1.144532-12.238282 2.03125-.355468 3.539062-.445312 7.101562-.265624 10.65625-6.109376-1.976563-11.753907-5.167969-16.597657-9.386719-11.082031-11.480469-17.117187-26.917969-16.757812-42.871094.140625-6.664062 1.320312-13.265625 3.5-19.566406.945312-2.75-11.09375-1.347656-12.230469 2.03125-1.078125 3.183594-1.914062 6.445313-2.5 9.753906-30.546875-19.398437-34.644531-58.421875-7.160156-85.648437zm78.902344 41.941406c-.472657 5.851562-3.707032 13.121094-10.746094 11.945312-6.496094-1.667968-10.988282-7.589843-10.84375-14.292968 0-6.460938 4.5625-13.773438 11.824218-11.589844 5.859376 2.136719 9.757813 7.703125 9.765626 13.9375zm0 0" fill="#262626"/><path d="m267.9375 132.296875c-.800781 2.253906 11.09375 1.015625 12.195312-2.167969 10.402344-27.351562 2.890626-58.285156-18.894531-77.824218-2.351562-2.21875-13.539062 2.425781-11.644531 4.21875 21.257812 18.996093 28.5625 49.15625 18.34375 75.773437zm0 0" fill="#262626"/><path d="m211.558594 42.007812c1.878906.089844 3.75.25 5.617187.476563 3.207031.480469 6.386719-1.035156 8.035157-3.832031 1.203124-2.816406-1.109376-5.050782-3.8125-5.367188-1.871094-.222656-3.742188-.378906-5.617188-.46875-3.203125-.457031-6.367188 1.050782-8.035156 3.824219-.464844 1.234375-.28125 2.617187.480468 3.695313.765626 1.074218 2.011719 1.699218 3.332032 1.671874zm0 0" fill="#262626"/></svg>