<svg height="502pt" viewBox="0 0 502.14108 502" width="502pt" xmlns="http://www.w3.org/2000/svg"><path d="m144.996094 194.277344c-1.878906-.003906-3.539063-1.234375-4.082032-3.03125-.542968-1.800782.152344-3.742188 1.71875-4.785156l97.277344-64.855469-111.554687 64.445312c-2 1.117188-4.523438.457031-5.71875-1.496093-1.195313-1.953126-.636719-4.5 1.265625-5.773438l78.777344-51.304688-88.292969 50.980469c-1.996094 1.183594-4.574219.554688-5.800781-1.417969-1.226563-1.96875-.652344-4.5625 1.296874-5.828124l101.800782-68.179688-114.457032 66.082031c-2.003906 1.242188-4.632812.625-5.875-1.378906-1.242187-2.003906-.625-4.632813 1.378907-5.875l93.863281-62.207031-105.308594 60.78125c-1.992187 1.15625-4.539062.519531-5.757812-1.433594s-.667969-4.519531 1.246094-5.804688l100.582031-67.410156-113.136719 65.355469c-2.007812 1.148437-4.566406.484375-5.765625-1.492187-1.199219-1.980469-.601563-4.554688 1.34375-5.804688l40.664063-25.796875-47.105469 27.1875c-1.996094 1.160156-4.554688.519531-5.769531-1.445313-1.214844-1.960937-.644532-4.535156 1.28125-5.808593l92.757812-61.574219-104.210938 60.160156c-2.007812 1.148438-4.566406.484375-5.765624-1.496094-1.199219-1.976562-.601563-4.550781 1.347656-5.800781l7.535156-4.777343-12.28125 7.089843c-1.847656 1.003907-4.148438.511719-5.425781-1.15625-1.277344-1.671875-1.148438-4.023437.308593-5.542969l7.542969-7.59375-6.828125 3.941407c-2.042968 1.179687-4.652344.476562-5.832031-1.566407-1.179687-2.042968-.476563-4.652343 1.566406-5.832031l34.558594-19.949219c1.851563-1.015624 4.164063-.527343 5.445313 1.148438 1.28125 1.679688 1.144531 4.042969-.324219 5.558594l-7.550781 7.59375 162.984374-94.105469c2.019532-1.21875 4.640626-.574219 5.863282 1.441406 1.21875 2.019531.574218 4.640625-1.441406 5.863281l-7.542969 4.777344 44.199219-25.511718c2-1.160157 4.554687-.519532 5.769531 1.445312 1.214843 1.960938.648437 4.535156-1.277344 5.804688l-92.734375 61.550781 105.054688-60.652344c2.015624-1.21875 4.640624-.570313 5.859374 1.445313 1.21875 2.015624.570313 4.640624-1.449218 5.859374l-40.652344 25.796876 47.574219-27.453126c1.996093-1.1875 4.574219-.558593 5.800781 1.414063s.652344 4.5625-1.292969 5.832031l-100.609375 67.410156 113.9375-65.808593c1.996094-1.15625 4.550782-.515625 5.765625 1.445312 1.214844 1.964844.648438 4.539063-1.277343 5.808594l-93.808594 62.191406 105.960937-61.175781c1.988281-1.113281 4.5-.46875 5.707031 1.46875 1.203126 1.933594.675782 4.476562-1.203124 5.769531l-101.84375 68.265625 115.265624-66.558594c2.003907-1.167968 4.570313-.519531 5.78125 1.453126 1.214844 1.976562.628907 4.554687-1.316406 5.816406l-78.761718 51.285156 88.914062-51.335938c2-1.1875 4.578125-.558593 5.804688 1.414063 1.226562 1.972656.648437 4.5625-1.296876 5.828125l-97.28125 64.855469 109.945313-63.566407c2.003906-1.121093 4.535156-.453124 5.726563 1.507813 1.191406 1.964844.617187 4.515625-1.300782 5.78125l-46.726562 29.925781 54.203125-31.300781c1.300781-.796875 2.925781-.84375 4.265625-.117187 1.34375.722656 2.195312 2.109374 2.238281 3.632812.039063 1.523438-.734375 2.957031-2.03125 3.753906l-61.441406 40.21875 70.5625-40.738281c2.003906-1.140625 4.550781-.484375 5.753906 1.484375 1.199219 1.96875.621094 4.53125-1.308594 5.792969l-34.910156 22.46875 41.8125-24.132813c2.015625-1.222656 4.644531-.582031 5.867187 1.429688 1.226563 2.015625.585938 4.644531-1.429687 5.867187l-15.027344 9.582031 20.574219-11.894531c2-1.136719 4.539062-.484375 5.742188 1.472657 1.207031 1.957031.644531 4.515624-1.269532 5.789062l-34.722656 22.707031 41.917969-24.214843c1.996093-1.136719 4.535156-.488282 5.742187 1.46875 1.203125 1.957031.640625 4.519531-1.273437 5.792968l-24.265625 15.84375 30.667968-17.707031c2-1.164063 4.566407-.515625 5.78125 1.457031 1.210938 1.976563.625 4.554688-1.320312 5.816406l-13.976562 9.101563 19.625-11.339844c2.003906-1.246093 4.632812-.632812 5.882812 1.367188 1.246094 2 .632812 4.632812-1.367188 5.878906l-27.597656 18.449219 34.605469-19.917969c1.292969-.800781 2.917969-.855469 4.261719-.132813 1.34375.71875 2.203125 2.101563 2.25 3.625.046875 1.523438-.722656 2.957032-2.015625 3.761719l-15.359375 10.238281 21.304687-12.371093c1.921875-1.125 4.378907-.585938 5.652344 1.238281 1.273437 1.820312.9375 4.316406-.777344 5.734375l-30.378906 25.453125 34.371094-19.839844c2.039062-1.160156 4.632812-.457031 5.804687 1.574219s.484375 4.628906-1.539062 5.816406l-76.910156 44.371094c-1.917969 1.125-4.378907.585937-5.652344-1.238281-1.273438-1.820313-.933594-4.316406.78125-5.730469l30.34375-25.40625-95.402344 55.066406c-2.003906 1.246094-4.636719.628907-5.878906-1.375-1.246094-2-.628906-4.632812 1.375-5.878906l15.359375-10.238281-30.242188 17.492187c-1.996093 1.1875-4.578125.558594-5.804687-1.414062-1.226563-1.972657-.648438-4.5625 1.296875-5.832031l27.589843-18.4375-44.5 25.683593c-2.003906 1.164063-4.570312.519531-5.78125-1.457031-1.214843-1.972656-.628906-4.554688 1.316407-5.8125l13.996093-9.113281-28.390624 16.390625c-2.003907 1.164062-4.570313.519531-5.78125-1.453125-1.214844-1.976563-.628907-4.558594 1.316406-5.816407l24.3125-15.871093-40.105469 23.140625c-2.003906 1.164062-4.570313.519531-5.78125-1.453125-1.214844-1.976563-.628906-4.558594 1.316406-5.816407l34.695313-22.605468-51.863282 29.910156c-2.003906 1.121094-4.535156.453125-5.730468-1.507812-1.191406-1.960938-.617188-4.515626 1.300781-5.78125l15.019531-9.589844-29.253906 16.886718c-1.300781.796876-2.925781.835938-4.265625.105469s-2.1875-2.121093-2.222656-3.644531c-.039063-1.523438.742187-2.953125 2.042969-3.746094l34.859374-22.460937-51.507812 29.746093c-2.003906 1.164063-4.570312.519532-5.78125-1.457031-1.210938-1.972656-.625-4.554687 1.320312-5.8125l61.4375-40.207031-82.242187 47.476562c-2.003906 1.121094-4.535156.453126-5.730469-1.507812-1.191406-1.960938-.617187-4.515625 1.300782-5.777344l46.753906-29.945312-64.496094 37.238281c-.636719.371094-1.359375.566406-2.097656.574219zm0 0" fill="#656d77"/><path d="m146.847656 237.164062c-1.878906 0-3.535156-1.230468-4.082031-3.03125-.542969-1.796874.152344-3.742187 1.71875-4.785156l72.132813-48.203125-74.070313 42.757813c-1.976563 1.105468-4.472656.476562-5.683594-1.4375-1.214843-1.910156-.722656-4.4375 1.117188-5.753906l77.988281-54.230469-73.386719 42.386719c-2 1.15625-4.554687.515624-5.769531-1.445313-1.214844-1.964844-.648438-4.539063 1.28125-5.808594l26.777344-17.722656-22.332032 12.902344c-1.964843 1.117187-4.457031.507812-5.6875-1.382813-1.230468-1.894531-.773437-4.421875 1.042969-5.761718l48.984375-35.507813-44.375 25.601563c-1.941406 1.109374-4.410156.53125-5.65625-1.328126-1.246094-1.855468-.847656-4.359374.910156-5.738281l35.933594-27.9375-31.160156 17.996094c-1.898438 1.054687-4.285156.515625-5.546875-1.25-1.261719-1.769531-.992187-4.203125.621094-5.652344l19.421875-16.855469-14.507813 8.363282c-1.828125 1.0625-4.160156.621094-5.476562-1.035156-1.316407-1.652344-1.222657-4.023438.222656-5.570313l4.65625-5.007813c-1.929687 0-3.621094-1.296874-4.121094-3.160156-.5-1.867187.316407-3.835937 1.988281-4.800781l21.121094-12.195313c1.828125-1.058593 4.160156-.617187 5.476563 1.035157 1.316406 1.65625 1.222656 4.027343-.21875 5.570312l-3.335938 3.585938 28.421875-16.410157c1.902344-1.089843 4.324219-.5625 5.597656 1.222657 1.273438 1.785156.984376 4.246093-.664062 5.6875l-19.414062 16.878906 46.78125-27.007813c1.941406-1.132812 4.429687-.5625 5.6875 1.304688 1.253906 1.867188.847656 4.386719-.9375 5.761719l-35.890626 27.851562 61.441407-35.464843c1.96875-1.160157 4.503906-.5625 5.746093 1.351562 1.246094 1.917969.757813 4.476562-1.105468 5.800781l-48.996094 35.515625 71.960938-41.539062c1.996093-1.160156 4.554687-.519532 5.769531 1.445312 1.214843 1.960938.644531 4.535156-1.28125 5.808594l-26.699219 17.671875 40.371094-23.3125c1.980468-1.15625 4.519531-.535156 5.75 1.402344 1.226562 1.9375.703125 4.496093-1.1875 5.796875l-78.019532 54.257812 98.988282-57.175781c1.992187-1.132813 4.523437-.488281 5.734375 1.460937 1.207031 1.945313.660156 4.5-1.238281 5.785157l-72.148438 48.230469 86.519531-49.953126c1.988281-1.132812 4.515625-.496093 5.726563 1.441407 1.214844 1.941406.683594 4.492187-1.203125 5.785156l-70.425781 47.605469 79.648437-45.957032c2.003906-1.140624 4.550781-.484374 5.753906 1.480469 1.199219 1.96875.621094 4.535157-1.308593 5.796875l-16.699219 10.75 14.191406-8.191406c1.96875-1.109375 4.460937-.496094 5.683594 1.402344 1.226562 1.902344.757812 4.425781-1.066407 5.757812l-63.617187 45.578125 59.050781-34.132812c1.957032-1.113281 4.4375-.515625 5.675782 1.363281 1.234374 1.882812.796874 4.398438-1 5.753906l-45.328126 33.722656 40.6875-23.492187c1.96875-1.164063 4.5-.566406 5.746094 1.351563 1.246094 1.917968.757813 4.472656-1.105468 5.796874l-16.757813 12.160157 12.148437-7.011719c1.898438-1.097656 4.316407-.582031 5.597657 1.195312 1.28125 1.777344 1.011719 4.238282-.628907 5.691407l-22.519531 19.992187 17.59375-10.164062c1.699219-.972656 3.847657-.667969 5.203125.746094 1.355469 1.414062 1.578125 3.570312.53125 5.226562l-10.46875 16.410156 4.789063-2.765625c2.035156-1.15625 4.628906-.453125 5.800781 1.578125 1.175781 2.03125.488281 4.628906-1.535156 5.8125l-19.910156 11.496094c-1.699219.972656-3.84375.667969-5.199219-.746094-1.359375-1.414062-1.578125-3.570312-.535157-5.226562l10.472657-16.410156-38.863281 22.441406c-1.894532 1.097656-4.3125.578125-5.597657-1.195313-1.28125-1.777343-1.007812-4.238281.632813-5.691406l22.527344-19.992187-46.660157 26.949218c-1.96875 1.160156-4.503906.5625-5.746093-1.351562-1.246094-1.917969-.757813-4.476563 1.105468-5.800782l16.765625-12.175781-33.5 19.34375c-1.957031 1.140625-4.464843.550781-5.710937-1.34375-1.246094-1.890625-.792969-4.425781 1.027344-5.773437l45.335937-33.714844-70.828125 40.867188c-1.964844 1.109374-4.460938.496093-5.683594-1.402344-1.226562-1.902344-.757812-4.425782 1.066406-5.757813l63.609376-45.570312-91.347657 52.773437c-1.304687.792969-2.929687.832032-4.269531.101563s-2.183594-2.117188-2.222656-3.644531c-.035156-1.523438.742187-2.953126 2.042968-3.746094l16.777344-10.792969-31.359375 18.097656c-1.988281 1.132813-4.515625.496094-5.730469-1.445312-1.210937-1.9375-.679687-4.488281 1.207032-5.78125l70.410156-47.625-95.019531 54.886719c-.648438.378906-1.382813.578124-2.132813.578124zm0 0" fill="#767d84"/><path d="m421.816406 499.617188c-1.835937 0-3.464844-1.175782-4.046875-2.917969-.582031-1.742188.019531-3.660157 1.488281-4.761719l11.152344-8.125-18.578125 10.71875c-1.941406 1.125-4.417969.550781-5.675781-1.308594-1.253906-1.855468-.855469-4.371094.914062-5.75l38.289063-29.796875-47.613281 27.484375c-1.945313 1.09375-4.402344.507813-5.640625-1.347656-1.238281-1.851562-.84375-4.347656.910156-5.726562l46.304687-35.644532-52.140624 30.089844c-1.953126 1.101562-4.425782.503906-5.660157-1.367188-1.234375-1.871093-.808593-4.382812.976563-5.742187l45.992187-34.34375-48.253906 27.851563c-1.972656 1.09375-4.457031.460937-5.667969-1.441407-1.210937-1.902343-.730468-4.417969 1.09375-5.742187l26.847656-18.773438-26.601562 15.359375c-1.949219 1.109375-4.421875.519531-5.664062-1.347656-1.238282-1.867187-.824219-4.378906.953124-5.746094l53.078126-40.105469-55.363282 31.957032c-1.976562 1.136718-4.5.515625-5.722656-1.410156-1.226562-1.925782-.71875-4.472657 1.148438-5.78125l30.542968-21.335938-62.601562 36.140625c-1.988282 1.132813-4.515625.496094-5.730469-1.445313-1.214844-1.9375-.679687-4.492187 1.207031-5.785156l43.664063-29.386718-57.941407 33.441406c-2.003906 1.140625-4.550781.484375-5.75-1.484375-1.203124-1.964844-.625-4.53125 1.304688-5.792969l13.746094-8.867188-18.582032 10.734376c-2.011718 1.175781-4.59375.527343-5.804687-1.460938s-.601563-4.582031 1.367187-5.824219l9.726563-6.214843-11.800781 6.828124c-1.988282 1.132813-4.515625.496094-5.730469-1.445312-1.214844-1.9375-.679687-4.492188 1.207031-5.78125l72.011719-48.640625-79.675781 45.933594c-1.980469 1.101562-4.476563.460937-5.683594-1.457031-1.207031-1.917969-.703125-4.445313 1.144531-5.753907l87.78125-60.058593-116.539062 67.269531c-1.988281 1.070312-4.464844.40625-5.652344-1.511719-1.1875-1.921875-.671875-4.433594 1.171875-5.734375l89.449219-58.980469-114.730469 66.226563c-1.324219.839843-3 .890625-4.371094.125-1.367187-.765625-2.207031-2.214844-2.1875-3.785157.023438-1.566406.902344-2.996093 2.289063-3.722656l239.171875-138.058594c1.996094-1.117187 4.515625-.460937 5.714844 1.480469 1.199218 1.945313.65625 4.488281-1.234376 5.773438l-89.402343 58.957031 88.695312-51.203125c1.992188-1.214844 4.589844-.605469 5.832031 1.367187 1.246094 1.976563.671876 4.582032-1.285156 5.855469l-87.808594 60.0625 87.484376-50.507812c1.992187-1.179688 4.5625-.554688 5.789062 1.40625 1.230469 1.960937.671875 4.542969-1.257812 5.824219l-71.976563 48.636718 71.167969-41.09375c2.007812-1.179687 4.589844-.527344 5.800781 1.460938 1.210937 1.988281.601563 4.582031-1.363281 5.824218l-9.789063 6.253907 7.679688-4.410157c2-1.097656 4.511719-.429687 5.699219 1.519532 1.1875 1.949218.632812 4.484375-1.261719 5.757812l-13.832031 8.902344 11.757812-6.828125c1.992188-1.152344 4.542969-.519531 5.761719 1.433594s.667969 4.523437-1.246094 5.804687l-43.699219 29.457032 42.230469-24.371094c1.980469-1.136719 4.5-.515625 5.722656 1.410156 1.226563 1.925781.71875 4.472656-1.148437 5.78125l-30.523438 21.335938 28.945313-16.726563c1.949219-1.109375 4.421875-.519531 5.664062 1.347656 1.242188 1.867188.824219 4.378907-.953125 5.742188l-53.078125 40.109375 52.632813-30.371094c1.980468-1.136719 4.5-.515625 5.726562 1.410156 1.222656 1.925782.714844 4.472656-1.152344 5.78125l-26.828124 18.773438 25.128906-14.503906c1.953125-1.105469 4.425781-.507813 5.660156 1.367187 1.234375 1.871094.808594 4.378906-.972656 5.738281l-46.023438 34.375 45.226563-26.097656c1.945312-1.113281 4.421875-.535156 5.671875 1.328125 1.246094 1.863281.839844 4.375-.933594 5.746094l-46.285156 35.636719 45.421875-26.222657c1.941406-1.125 4.421875-.554687 5.675781 1.304688s.855469 4.375-.914062 5.753906l-38.339844 29.761719 34.601562-19.976563c1.964844-1.144531 4.484375-.546875 5.726563 1.359375 1.242187 1.90625.769531 4.449219-1.074219 5.785156l-11.171875 8.132813 4.53125-2.613281c1.863281-1.074219 4.230469-.59375 5.53125 1.117187 1.300781 1.710938 1.125 4.121094-.410156 5.625l-19.675781 19.378907c2.042968-.375 4.058593.773437 4.773437 2.722656.71875 1.949218-.074219 4.132812-1.875 5.171875l-26.84375 15.496093c-1.859375 1.058594-4.214844.574219-5.507813-1.125-1.292968-1.703124-1.128906-4.101562.386719-5.609374l18.988281-18.695313-45.144531 26.050781c-.648437.382813-1.386719.582032-2.140625.582032zm0 0" fill="#ea6370"/><path d="m182.6875 440.148438c-1.894531-.003907-3.558594-1.253907-4.089844-3.070313-.53125-1.820313.199219-3.769531 1.792969-4.789063l116.90625-74.839843-138.109375 79.71875c-2 1.042969-4.464844.351562-5.628906-1.578125-1.164063-1.933594-.625-4.4375 1.234375-5.714844l102.167969-64.222656-111.726563 64.492187c-1.324219.84375-3 .890625-4.367187.125-1.371094-.761719-2.210938-2.214843-2.1875-3.78125.019531-1.566406.898437-2.996093 2.289062-3.722656l308.410156-178.074219c2.019532-1.214844 4.644532-.5625 5.859375 1.453125 1.214844 2.019531.5625 4.644531-1.457031 5.859375l-102.21875 64.257813 102.5-59.1875c2.015625-1.226563 4.644531-.585938 5.867188 1.429687 1.226562 2.011719.585937 4.640625-1.429688 5.867188l-249.070312 159.453125c-.261719 1.144531-.992188 2.125-2.011719 2.703125l-22.597657 13.046875c-.648437.378906-1.382812.574219-2.132812.574219zm0 0" fill="#ea6370"/><path d="m72.257812 500.445312c-1.785156 0-3.382812-1.113281-4.003906-2.789062-.617187-1.675781-.128906-3.558594 1.230469-4.722656l19.113281-16.390625-37.800781 21.808593c-1.964844 1.089844-4.4375.464844-5.652344-1.421874-1.214843-1.890626-.757812-4.398438 1.042969-5.734376l11.410156-8.152343-17.859375 10.308593c-2.011719 1.09375-4.527343.402344-5.699219-1.5625-1.171874-1.964843-.585937-4.503906 1.328126-5.757812l164.617187-101.734375-173.3125 100.054687c-2.019531 1.210938-4.640625.550782-5.851563-1.46875-1.214843-2.023437-.554687-4.644531 1.464844-5.855468l188.953125-117.683594-195.070312 112.640625c-2.023438 1.214844-4.644531.558594-5.859375-1.460937-1.210938-2.023438-.558594-4.644532 1.464844-5.859376l174.609374-108.757812-176.9375 102.160156c-1.304687.789063-2.933593.820313-4.269531.085938-1.332031-.738282-2.175781-2.128906-2.203125-3.652344-.03125-1.523438.753906-2.949219 2.058594-3.738281l180.359375-113.757813-178.90625 103.253906c-2.015625 1.222657-4.640625.582032-5.863281-1.433593s-.5820315-4.640625 1.433594-5.863281l165.546874-105.300782-158.40625 91.453125c-1.996093 1.070313-4.480468.390625-5.65625-1.542969-1.179687-1.9375-.640624-4.453124 1.226563-5.738281l139.949219-89.503906-130.058594 75.09375c-2.007812 1.125-4.550781.453125-5.738281-1.519531-1.191407-1.972656-.597657-4.535156 1.335937-5.785156l70.828125-44.375-62.492187 36.046874c-2 1.097657-4.507813.429688-5.699219-1.519531-1.1875-1.949219-.628906-4.488281 1.261719-5.761719l82.894531-53.066406-74.019531 42.734375c-1.988282 1.113281-4.5.46875-5.707032-1.46875-1.207031-1.933593-.675781-4.476562 1.203126-5.769531l96.691406-64.800781-86.640625 49.988281c-2.011719 1.226562-4.640625.585938-5.867188-1.429688-1.222656-2.015624-.582031-4.640624 1.429688-5.867187l17.460937-11.09375-9.804687 5.652344c-2.003907 1.136719-4.550781.480469-5.753907-1.484375-1.199218-1.96875-.621093-4.535156 1.308594-5.796875l10.066406-6.492188-2.558593 1.457031c-1.972657 1.140626-4.492188.527344-5.722657-1.394531-1.230468-1.917969-.734374-4.464843 1.125-5.78125l50.609376-35.890625-41.121094 23.746094c-1.972656 1.125-4.476563.511719-5.703125-1.398438-1.226563-1.90625-.746094-4.441406 1.09375-5.769531l23.996093-17.066406-15.539062 8.988281c-1.910156 1.140625-4.378906.621094-5.667969-1.195312-1.289062-1.8125-.964843-4.316406.746094-5.742188l28.492187-24.527344-18.304687 10.601563c-1.863281 1.085937-4.25.613281-5.554687-1.105469-1.304688-1.722656-1.117188-4.144531.433593-5.644531l12.238281-11.949219c-1.617187-.507812-2.777343-1.921875-2.960937-3.601562-.1875-1.683594.640625-3.316406 2.105469-4.164063l22.085937-12.800781c1.863281-1.085938 4.246094-.613281 5.550781 1.105469 1.304688 1.722656 1.121094 4.144531-.429687 5.644531l-8.269531 8.066406 28.234375-16.238281c1.910156-1.101563 4.339843-.566406 5.613281 1.226563 1.269531 1.796874.96875 4.265624-.695312 5.699218l-28.484376 24.492188 54.457032-31.417969c1.976562-1.179687 4.53125-.578125 5.777344 1.359375 1.242187 1.933594.726562 4.507812-1.167969 5.816406l-24.039063 17.066406 42.011719-24.242187c1.972656-1.140625 4.492187-.527344 5.722656 1.390625 1.230469 1.921875.734375 4.464844-1.125 5.785156l-50.601562 35.890625 74.597656-43.066406c2-1.101563 4.511719-.433594 5.699219 1.515625s.632812 4.488281-1.261719 5.761719l-9.992187 6.441406 23.765624-13.71875c2.007813-1.179687 4.589844-.527344 5.800782 1.460937 1.210937 1.988282.605468 4.582032-1.363282 5.824219l-17.519531 11.164063 32-18.449219c1.992188-1.15625 4.539063-.523437 5.757813 1.433594 1.21875 1.953125.667968 4.519531-1.242188 5.800781l-96.683594 64.800781 124.765626-72.035156c2.003906-1.121094 4.535156-.453125 5.726562 1.507813 1.195312 1.960937.621094 4.515624-1.296875 5.777343l-82.960937 53.105469 104.609374-60.390625c1.304688-.789063 2.933594-.816406 4.265626-.078125 1.335937.738281 2.175781 2.128906 2.203124 3.65625.027344 1.523438-.757812 2.945312-2.066406 3.734375l-70.742187 44.371094 89.464843-51.683594c2.007813-1.179687 4.589844-.527344 5.800782 1.460937 1.210937 1.988282.605468 4.582032-1.363282 5.824219l-139.945312 89.488281 167.636719-96.773437c2.007812-1.148437 4.566406-.488281 5.765625 1.492187 1.199218 1.980469.601562 4.554688-1.347656 5.800782l-165.535157 105.269531 195.019531-112.5625c2.007813-1.128906 4.550782-.453125 5.738282 1.519531 1.191406 1.972656.597656 4.53125-1.335938 5.785156l-180.394531 113.789063 209.792969-121.09375c2.015625-1.164063 4.589844-.496094 5.789062 1.496094 1.195313 1.996093.578125 4.582031-1.394531 5.816406l-174.558594 108.6875 194.9375-112.546875c2.019531-1.210938 4.640625-.550781 5.851563 1.46875 1.210937 2.023438.554687 4.644531-1.46875 5.855469l-188.984375 117.707031 198.953125-114.882812c1.308594-.78125 2.9375-.808594 4.269531-.0625 1.332031.742187 2.164063 2.140624 2.1875 3.664062s-.769531 2.945312-2.078125 3.726562l-310.289062 191.78125c.589843 1.777344-.050782 3.734376-1.582032 4.820313l-11.414062 8.148437.75-.402343c1.910156-1.101563 4.34375-.566407 5.617187 1.230469 1.273438 1.800781.964844 4.277343-.710937 5.707031l-19.125 16.359375 3.183594-1.824219c1.324218-.84375 3-.890625 4.367187-.125 1.371094.761719 2.210937 2.214844 2.1875 3.78125-.019531 1.566406-.898437 2.996094-2.289063 3.722656l-42.929687 24.746094c-.644531.394531-1.378906.605469-2.132813.617187zm0 0" fill="#ea6370"/><path d="m227.785156 313.71875c-1.871094.003906-3.527344-1.207031-4.085937-2.996094-.558594-1.785156.113281-3.726562 1.65625-4.789062l11.886719-8.183594-26.667969 15.363281c-1.957031 1.109375-4.4375.511719-5.675781-1.367187-1.234376-1.878906-.796876-4.398438 1-5.75l54.988281-40.800782-77.023438 44.503907c-1.964843 1.109375-4.457031.496093-5.683593-1.402344-1.222657-1.898437-.757813-4.425781 1.070312-5.757813l43.144531-30.90625-45.3125 26.117188c-1.953125 1.136719-4.449219.554688-5.699219-1.324219-1.25-1.875-.820312-4.402343.980469-5.765625l38.039063-28.953125-33.714844 19.5c-1.945312 1.101563-4.410156.511719-5.652344-1.347656-1.238281-1.863281-.832031-4.363281.933594-5.738281l16.742188-12.796875-12.023438 6.945312c-1.929688 1.109375-4.386719.550781-5.644531-1.285156-1.261719-1.835937-.898438-4.328125.832031-5.730469l6.9375-5.605468-2.125 1.238281c-1.855469 1.042969-4.195312.558593-5.484375-1.136719-1.289063-1.691406-1.132813-4.078125.367187-5.589844l5.578126-5.554687-.441407.25c-1.488281.855469-3.347656.738281-4.714843-.300781-1.367188-1.039063-1.980469-2.800782-1.550782-4.460938l2.355469-9.132812c-.804687-.367188-1.472656-.980469-1.910156-1.75-1.179688-2.039063-.484375-4.644532 1.550781-5.828126l4.269531-2.472656c1.488281-.867187 3.347657-.75 4.71875.289063 1.371094 1.042969 1.984375 2.804687 1.550781 4.472656l-1.707031 6.707031 19.933594-11.511718c1.855469-1.042969 4.199219-.558594 5.488281 1.132812 1.289063 1.695312 1.132813 4.078125-.367187 5.589844l-5.570313 5.554687 21.332032-12.3125c1.929687-1.109375 4.386718-.550781 5.648437 1.285157 1.257813 1.835937.894531 4.328124-.835937 5.730468l-6.980469 5.632813 21.957031-12.683594c1.953125-1.164063 4.472656-.59375 5.734375 1.300781 1.261719 1.890625.816406 4.4375-1.007813 5.792969l-16.734374 12.796875 34.46875-19.898438c1.949218-1.132812 4.445312-.554687 5.695312 1.324219 1.25 1.878907.820312 4.40625-.976562 5.765625l-38.09375 28.914063 62.53125-36.105469c1.972656-1.15625 4.507812-.554688 5.746093 1.371094 1.238281 1.921875.742188 4.480468-1.128906 5.796875l-43.152344 30.90625 66.019531-38.117188c1.957032-1.113281 4.441407-.515625 5.675782 1.367188 1.234375 1.878906.800781 4.394531-.996094 5.75l-55 40.804687 54.863281-31.664062c1.976563-1.121094 4.488281-.488282 5.703125 1.433594 1.214844 1.917968.710938 4.457031-1.148437 5.765624l-11.894531 8.191407 7.339843-4.265625c1.933594-1.085938 4.378907-.511719 5.621094 1.324218 1.246094 1.839844.875 4.324219-.851563 5.714844l-26.898437 21.351563 22.128906-12.800781c1.941407-1.078126 4.390625-.484376 5.621094 1.367187 1.234375 1.851563.835937 4.339844-.910156 5.714844l-3.457031 2.636719c1.894531-.402344 3.824218.523437 4.695312 2.25.875 1.730468.472656 3.832031-.976562 5.117187l-4.90625 4.375c1.78125-.972656 4-.558594 5.308593.992187 1.308594 1.550782 1.34375 3.808594.085938 5.402344l-4.617188 5.792969c1.023438.3125 1.890625 1.007813 2.421875 1.9375 1.179688 2.039063.484375 4.644531-1.550781 5.828125l-13.773437 7.953125c-1.773438 1.019531-4.023438.632813-5.359376-.914063-1.335937-1.550781-1.382812-3.832031-.109374-5.433593l2.269531-2.851563-16.214844 9.328125c-1.875.992188-4.195313.457031-5.445313-1.257812-1.25-1.714844-1.050781-4.089844.472657-5.570313l4.878906-4.359375-19.445313 11.1875c-1.949218 1.101563-4.414062.511719-5.652343-1.347656-1.242188-1.863281-.835938-4.363281.929687-5.738281l2.125-1.621094-15.078125 8.707031c-1.933593 1.105469-4.398437.539063-5.648437-1.308593-1.253906-1.84375-.875-4.34375.871094-5.734376l26.941406-21.28125-49.078125 28.324219c-.644531.386719-1.378907.59375-2.132813.605469zm0 0" fill="#3c5b72"/><path d="m174.359375 404.207031c-.992187-.039062-1.871094-.648437-2.261719-1.5625-.386718-.910156-.210937-1.96875.453125-2.707031l2.25-2.320312-6.824219 3.917968c-1.089843.539063-2.410156.238282-3.15625-.722656-.75-.960938-.714843-2.3125.074219-3.238281l7.355469-7.558594-9.855469 5.691406c-1.089843.546875-2.414062.253907-3.167969-.707031-.753906-.960938-.722656-2.320312.070313-3.246094l7.269531-7.59375-5.734375 3.300782c-1.085937.542968-2.40625.242187-3.152343-.714844-.75-.957032-.722657-2.308594.066406-3.234375l3.539062-3.660157c-.765625-.464843-1.230468-1.292968-1.230468-2.1875 0-.898437.464843-1.726562 1.230468-2.191406l9.8125-5.664062c1.082032-.605469 2.441406-.347656 3.226563.609375.785156.953125.777343 2.335937-.023438 3.28125l-.285156.28125 5.4375-3.132813c1.085937-.539062 2.402344-.242187 3.152344.710938s.726562 2.304687-.054688 3.230468l-7.269531 7.605469 10.316406-5.972656c1.089844-.542969 2.410156-.238281 3.15625.71875.746094.960937.714844 2.316406-.078125 3.238281l-7.335937 7.5625 6.824218-3.925781c1.09375-.539063 2.410157-.238281 3.160157.722656.746093.960938.714843 2.3125-.078125 3.238281l-3.78125 3.878907c1.035156.203125 1.84375 1.019531 2.03125 2.058593.1875 1.035157-.277344 2.082032-1.175782 2.636719l-12.578124 7.261719c-.414063.265625-.894532.398438-1.382813.394531zm0 0" fill="#656d77"/><path d="m322.847656 402.515625c-.960937.007813-1.835937-.542969-2.25-1.410156-.414062-.867188-.289062-1.894531.320313-2.636719l8.796875-10.808594-13.457032 7.765625c-1.089843.644531-2.496093.363281-3.25-.660156-.753906-1.019531-.613281-2.445313.324219-3.300781l4.445313-4.128906-3.359375 1.9375c-1.042969.613281-2.375.386718-3.152344-.539063-.78125-.929687-.773437-2.28125.011719-3.199219l4.667968-5.605468c-1.058593-.132813-1.914062-.921876-2.128906-1.964844-.214844-1.042969.261719-2.109375 1.179688-2.644532l9.625-5.546874c1.039062-.605469 2.363281-.375 3.136718.546874.773438.917969.777344 2.261719.003907 3.183594l-3.746094 4.503906 10.402344-5.972656c1.09375-.621094 2.476562-.324218 3.222656.6875.746094 1.007813.621094 2.417969-.296875 3.28125l-4.453125 4.128906 6.023437-3.472656c1.039063-.589844 2.347657-.363281 3.121094.546875.773438.90625.792969 2.234375.046875 3.164063l-8.796875 10.804687 7.429688-4.269531c.765625-.53125 1.765625-.589844 2.589844-.144531.820312.441406 1.324218 1.308593 1.300781 2.242187-.023438.929688-.570313 1.769532-1.414063 2.171875l-19.105468 11.03125c-.378907.214844-.804688.320313-1.238282.308594zm0 0" fill="#656d77"/><g fill="#262626"><path d="m53.125 500.84375c22.019531 3.535156 44.40625-3.589844 60.332031-19.199219 10.128907-9.898437 11.945313-21.582031 19.472657-32.476562 9.863281-14.226563-2.558594-11.949219 17.542968-12.324219 5.421875-.109375 15.097656 5.121094 21.335938 5.191406 9.785156.03125 19.402344-2.574218 27.835937-7.546875-3.714843 2.144531 23.628907-18.355469 20.257813-18.335937 7.398437-.71875 14.855468-.621094 22.238281.289062 7.953125-.589844 15.9375-.589844 23.890625 0 19.3125 3.046875 6.828125-2.355468 25.761719 11.359375 9.308593 8.433594 21.207031 13.453125 33.742187 14.234375 7.875.160156 30.34375-11.257812 37.1875-7.066406 5.488282 3.359375 10.847656 27.894531 14.816406 34.320312 17.109376 27.765626 47.359376 36.402344 77.917969 29.542969.503907-.132812.996094-.316406 1.464844-.546875h.136719l.1875-.09375c.273437-.105468.539062-.226562.792968-.367187 60.46875-25.285157 44.964844-78.269531 32.335938-128.445313-7.179688-28.5-14.359375-57.007812-21.539062-85.519531-4.863282-19.335937-7.226563-40.644531-24.046876-53.625-10.0625-6.820313-21.796874-10.765625-33.9375-11.40625v-52.488281l24.566407-13.355469c17.253906-9.386719 41.855469-16.632813 52.207031-34.023437l.09375-.539063c-8.746094-13.855469-26.136719-18.386719-40.582031-25.597656l-84.925781-42.121094-82.148438-40.796875c-8.492188-5.707031-18.394531-8.953125-28.613281-9.386719-12.425781.765625-25.601563 10.027344-36.214844 15.359375l-84.335937 41.847656-84.335938 41.890626c-12.800781 6.375-24.300781 9.480468-31.949219 21.589843l-.09375.535157c10.507813 17.65625 37.488281 25.824218 54.886719 35.210937l62.003906 33.722656c.894532 10.121094 1.980469 19.992188 2.398438 28.800781-27.84375-1.390624-62.082032-3.945312-81.152344 15.878907-11.589844 12.050781-13.933594 28.972656-17.835938 44.476562-8.328124 33.058594-16.648437 66.117188-24.96875 99.175781-11.910156 47.308594-22.621093 110.914063 43.273438 121.835938zm345.429688-282.828125c-10.128907-.289063-20.480469.164063-30.308594.726563v-29.226563l30.308594-16.480469zm-76.800782 16.640625c-2.386718 13.746094 10.054688 65.304688-10.726562 71.339844h-100.835938c-19.484375 0-29.6875-6.980469-29.6875-28.289063v-49.570312h116.308594c7.984375-.621094 16.007812-.621094 23.996094 0l1.269531.195312c.035156 2.097657-.089844 4.195313-.382813 6.273438zm135.679688-126.703125c28.035156 18.515625 1.375 27.023437-20.699219 39.03125l-25.839844 14.054687v-79.742187c15.992188 8 31.527344 16.890625 46.523438 26.632813zm-425.417969 3.773437c7.789063-12.46875 48.636719-24.160156 61.53125-30.566406l92.332031-45.859375c16.007813-7.953125 40.898438-27.214843 58.878906-29.234375 14.507813-1.640625 33.957032 13.0625 46.679688 19.378906 34.984375 17.363282 73.113281 32.921876 109.34375 50.722657-1.3125.613281-2.242188 1.382812-2.242188 2.277343v89.257813l-30.328124 16.554687v-55.378906c-7.125-24.5-65.707032-24.886718-83.753907-26.089844-40.382812-2.710937-88.800781-3.34375-127.496093 11.316407-26.011719 9.855469-28.160157 38.015625-26.34375 66.457031-35.398438-17.109375-108.972657-52.230469-98.601563-68.835938zm114.34375 97.808594c.691406-21.222656-2.15625-43.246094 0-64.359375 1.351563-13.105469-1.996094-16.707031 11.300781-25.515625 17.96875-11.894531 55.40625-10.707031 75.945313-11.425781 22.332031-.777344 113.441406-6.570313 122.308593 23.894531v87.3125c-5.742187.324219-11.144531.582032-15.914062.582032h-190.5c-1.507812 0-3.070312 0-4.648438-.078126.9375-3.382812 1.4375-6.867187 1.492188-10.378906zm-127.488281 182.226563c10.472656-41.574219 16.777344-87.660157 32.148437-127.664063 16.519531-43 49.492188-35.390625 84.367188-35.390625 10.808593 0 21.683593-.097656 32.625-.296875-.921875 27.800782-11.949219 79.753906 22.527343 85.015625 37.546876 5.71875 79.90625 0 117.945313 0 .464844-.027343.925781-.105469 1.375-.230469.625.011719 1.253906-.042968 1.867187-.152343 34.082032-6.878907 23.492188-57.574219 22.46875-85.539063h25.335938c1.574219-.046875 3.128906-.335937 4.617188-.851562 10.835937.488281 21.625 1.171875 32.367187 2.046875.707031.058593 1.3125.195312 2.003906.273437v14.105469c0 1.65625 12.359375 0 12.359375-3.308594v-8.535156c38.714844 10.324219 43.519532 47.488281 52.90625 84.957031 12.953125 51.449219 56.601563 145.921875-11.09375 174.644532-34.347656 7.449218-56.210937-11.160157-69.472656-39.144532-2.769531-5.835937-4.265625-17.3125-8.964844-21.988281-13.824218-13.773437-15.242187-6.828125-22.308594-5.035156-10.359374 4.023437-21.515624 5.566406-32.578124 4.496093-11.46875-2.667968-22.75-17.492187-34.136719-19.292968-21.542969-3.628906-43.476563-4.339844-65.210938-2.117188-3.949219.417969-5.871093 3.183594-9.523437 3.867188l-3.574219 2.183594c-13.8125 12.714843-32.078125 16.414062-54.800781 11.09375-4.992188.316406 10.28125-9.277344-8.765625-2.304688-6.703125 1.46875-12.582031 5.460938-16.417969 11.152344-6.644531 9.242187-8.15625 22.425781-14.734375 32.144531-34.988281 51.738281-103.339844 18.996094-102.265625-33.277344 1.492188-13.898437 4.488281-27.597656 8.933594-40.851562zm0 0"/><path d="m197.542969 384.84375c-1.449219-27.078125-46.71875-21.648438-46.488281 3.308594.246093 27.359375 45.167968 21.328125 46.488281-3.308594zm-21.65625-11.433594c5.683593 2.710938 9.300781 8.445313 9.300781 14.742188-.402344 7.449218-5.488281 15.464844-13.703125 10.890625-5.039063-2.949219-8.117187-8.363281-8.074219-14.199219.050782-6.800781 4.976563-14.753906 12.476563-11.433594zm0 0"/><path d="m351.167969 385.796875c0-.203125-.109375-.324219-.136719-.5-.023438-.179687.121094-.292969.113281-.453125-1.484375-27.597656-46.53125-23.28125-46.507812 2.832031.035156 27.902344 45.140625 23.96875 46.53125-1.878906zm-22.183594-12.0625c5.867187 2.136719 9.769531 7.722656 9.761719 13.96875-.46875 5.851563-3.703125 13.121094-10.746094 11.945313-6.496094-1.671876-10.988281-7.59375-10.84375-14.300782-.007812-6.488281 4.523438-13.808594 11.792969-11.648437zm0 0"/><path d="m211.050781 255.785156c-3.652343 0-13.421875 5.425782-5.238281 5.425782h85.332031c3.652344 0 13.425781-5.425782 5.242188-5.425782zm0 0"/><path d="m241.953125 382.230469h17.066406c2.558594 0 6.527344-1.96875 6.824219-4.804688.375-3.171875-3.359375-3.726562-5.632812-3.726562h-17.066407c-2.558593 0-6.527343 1.96875-6.824219 4.804687-.375 3.171875 3.359376 3.726563 5.632813 3.726563zm0 0"/><path d="m78.222656 305.390625h21.632813v23.039063c0 2.910156 12.355469.851562 12.355469-3.3125v-19.726563h17.210937c5.574219 0 12.75-8.449219 4.421875-8.449219h-21.632812v-23.039062c0-2.910156-12.355469-.855469-12.355469 3.308594v19.722656h-17.214844c-5.570313.007812-12.746094 8.457031-4.417969 8.457031zm0 0"/><path d="m358.023438 303.726562h8.53125c3.082031.085938 6.121093-.730468 8.746093-2.347656 1.757813-1.230468 1.859375-2.707031-.722656-2.707031h-8.535156c-3.082031-.085937-6.121094.730469-8.746094 2.347656-1.757813 1.195313-1.859375 2.707031.726563 2.707031zm0 0"/><path d="m402.429688 305.167969h8.53125c3.144531.316406 6.222656-1.042969 8.109374-3.578125 1.261719-2.558594-1.101562-4.425782-3.566406-4.425782h-8.535156c-3.144531-.316406-6.21875 1.039063-8.105469 3.574219-1.265625 2.535157 1.101563 4.429688 3.566407 4.429688zm0 0"/><path d="m394.152344 322.6875h-8.535156c-3.148438-.328125-6.234376 1.046875-8.097657 3.609375-1.246093 2.558594 1.085938 4.546875 3.59375 4.546875h8.53125c3.152344.328125 6.238281-1.046875 8.101563-3.609375 1.246094-2.542969-1.085938-4.546875-3.59375-4.546875zm0 0"/><path d="m382.769531 279.917969h8.53125c2.5625 0 6.519531-2.007813 6.828125-4.875.367188-3.191407-3.328125-3.828125-5.648437-3.828125h-8.535157c-2.558593 0-6.519531 2.003906-6.824218 4.871094-.367188 3.191406 3.328125 3.832031 5.648437 3.832031zm0 0"/></g></svg>