<svg height="504pt" viewBox="-41 0 504 504.74868" width="504pt" xmlns="http://www.w3.org/2000/svg"><path d="m361.628906 228.742188c-1.933594 0-3.621094-1.296876-4.121094-3.164063-.5-1.863281.316407-3.832031 1.988282-4.796875l19.277344-11.09375c2.035156-1.160156 4.628906-.457031 5.800781 1.574219 1.175781 2.03125.488281 4.628906-1.535157 5.816406l-19.277343 11.09375c-.648438.371094-1.382813.570313-2.132813.570313zm0 0" fill="#e4e8eb"/><path d="m91.222656 255.878906c-1.882812-.003906-3.546875-1.242187-4.085937-3.046875-.539063-1.808593.171875-3.753906 1.75-4.789062l107.714843-70.824219-120.320312 69.484375c-2.003906 1.089844-4.511719.402344-5.6875-1.550781s-.605469-4.488282 1.292969-5.753906l45.988281-28.816407-42.15625 24.347657c-1.996094 1.132812-4.535156.484374-5.742188-1.472657-1.203124-1.957031-.644531-4.519531 1.269532-5.789062l118.445312-77.945313-131.074218 75.675782c-1.996094 1.132812-4.535157.484374-5.742188-1.472657-1.203125-1.957031-.640625-4.519531 1.269531-5.789062l121.867188-80.164063-132.089844 76.1875c-2.015625 1.132813-4.566406.457032-5.753906-1.53125-1.1875-1.984375-.578125-4.554687 1.378906-5.792968l20.734375-12.867188-21.332031 12.296875c-2.023438 1.207031-4.644531.542969-5.851563-1.480469-1.207031-2.023437-.542968-4.644531 1.480469-5.851562l.855469-.519532c-2.03125 1.011719-4.5.257813-5.617188-1.714843-1.117187-1.976563-.496094-4.480469 1.417969-5.699219l99.839844-65.433594-96.179688 55.558594c-2.015625 1.222656-4.640625.582031-5.863281-1.433594s-.578125-4.636718 1.433594-5.863281l46.484375-29.582031-36.816407 21.273437c-2.007812 1.125-4.546874.453125-5.738281-1.519531-1.1875-1.972656-.597656-4.535156 1.335938-5.785156l31.171875-19.585938c-1.65625-.371094-2.933594-1.6875-3.253906-3.351562-.324219-1.667969.371093-3.367188 1.769531-4.328125l75.332031-52.90625-71.347656 41.191406c-1.875 1.167969-4.328125.710937-5.660156-1.050781-1.332032-1.765625-1.09375-4.25.542968-5.734375l7.429688-7.082031c-1.257813-.800782-2.003906-2.203126-1.972656-3.695313.035156-1.492187.84375-2.855469 2.136718-3.601563l19.457032-11.152343c1.21875-.914063 2.832031-1.109375 4.234374-.511719 1.402344.601562 2.378907 1.902344 2.558594 3.414062.183594 1.515626-.453125 3.007813-1.675781 3.925782l-.382813.367187 123.734376-71.433593c1.902343-.773438 4.089843-.078126 5.195312 1.652343 1.109375 1.730469.824219 4.007813-.671875 5.414063l-75.351563 52.90625 85.105469-49.136719c2.011719-1.160156 4.589844-.496094 5.785157 1.5 1.199218 1.992187.578124 4.578125-1.390626 5.8125l-4.949218 3.105469 9.898437-5.65625c2.003907-1.121094 4.535157-.453125 5.726563 1.507812 1.191406 1.964844.617187 4.515625-1.300782 5.78125l-46.4375 29.574219 56.234376-32.46875c2.003906-1.199219 4.597656-.566406 5.824218 1.421875 1.226563 1.984375.628906 4.589844-1.34375 5.839844l-99.839844 65.453125 116.292969-67.175781c2.015625-1.136719 4.570313-.457032 5.757813 1.527343 1.183594 1.984375.574218 4.554688-1.378906 5.792969l-.53125.332031 6.742187-3.898437c2.015625-1.136719 4.570313-.457032 5.757813 1.527344 1.183593 1.988281.574218 4.554687-1.378907 5.792968l-20.710937 12.851563 25.769531-14.871094c2-1.136719 4.535156-.484375 5.742187 1.472656 1.203126 1.957031.644532 4.515625-1.269531 5.789063l-121.875 80.160156 130.671875-75.441406c1.996094-1.136719 4.535156-.484375 5.742188 1.472656 1.203125 1.957031.644531 4.515625-1.269532 5.789062l-118.425781 77.933594 120.457031-69.554687c2.019532-1.214844 4.640626-.5625 5.855469 1.457031 1.21875 2.015625.566407 4.640625-1.453125 5.855469l-45.96875 28.800781 42.605469-24.59375c2-1.136719 4.535156-.484375 5.742187 1.472656 1.203126 1.957032.644532 4.515625-1.269531 5.789063l-107.734375 70.828125 120.242188-69.402344c2.003906-1.140625 4.550781-.484375 5.753906 1.484375 1.199219 1.96875.621094 4.53125-1.308594 5.792969l-78.683594 50.886718 81.109376-46.832031c2.007812-1.230469 4.636718-.597656 5.867187 1.414063 1.230469 2.007812.597656 4.636718-1.414063 5.863281l-63.085937 40.867187 59.734375-34.464843c1.996094-1.160157 4.550781-.519531 5.765625 1.445312 1.214844 1.964844.648437 4.535157-1.277344 5.808594l-57.40625 37.800781 43.453125-25.085937c1.996094-1.160157 4.554688-.519531 5.769532 1.445312 1.214843 1.960938.648437 4.535157-1.28125 5.808594l-31.726563 21.015625 47.164063-27.230469c2.003906-1.242187 4.632812-.625 5.875 1.378907 1.242187 2.003906.625 4.632812-1.378907 5.875l-32.957031 21.914062 42.855469-24.746094c1.980469-1.101562 4.476562-.464844 5.683593 1.453125 1.210938 1.917969.707032 4.445313-1.144531 5.757813l-42.214843 28.867187 47.789062-27.589843c1.96875-1.140626 4.488281-.535157 5.722656 1.378906 1.234375 1.910156.753906 4.457031-1.097656 5.78125l-47.496094 34.261718 49.363282-28.507812c1.992187-1.21875 4.589843-.609375 5.835937 1.367188 1.242187 1.972656.671875 4.578124-1.285156 5.851562l-12.347657 8.464844 9.480469-5.472656c1.929688-1.117188 4.398438-.554688 5.65625 1.285156 1.261719 1.84375.886719 4.34375-.851562 5.738281l-36.933594 29.527344c1.019531.195312 1.933594.757812 2.558594 1.585937 1.300781 1.695313 1.148437 4.089844-.355469 5.605469l-3.542969 3.550781c1.714844.386719 3.019531 1.785156 3.28125 3.523438.265625 1.738281-.5625 3.457031-2.085937 4.335937l-21.742188 12.542969c-1.851562 1.019531-4.167968.527344-5.449218-1.148438-1.28125-1.679687-1.140626-4.039062.328124-5.558593l.453126-.449219-12.460938 7.191406c-1.933594 1.125-4.40625.5625-5.667969-1.285156s-.878906-4.355469.871094-5.746094l31.371094-25.078125-55.699219 32.160157c-1.988281 1.21875-4.589844.609374-5.832031-1.367188-1.242188-1.972656-.671875-4.578125 1.285156-5.851562l12.363281-8.480469-27.339844 15.792969c-1.96875 1.144531-4.488281.539062-5.722656-1.375-1.234375-1.914063-.753906-4.457032 1.097656-5.785157l47.539063-34.3125-71.859375 41.472657c-1.984375 1.152343-4.53125.527343-5.753906-1.417969-1.222656-1.945313-.683594-4.507813 1.214844-5.800781l42.265624-28.875-62.589843 36.136718c-1.296875.804688-2.921875.855469-4.265625.132813-1.34375-.71875-2.203125-2.101563-2.25-3.625-.046875-1.523438.722656-2.957031 2.015625-3.761719l32.957031-21.921875-50.59375 29.210937c-1.296875.804688-2.921875.855469-4.265625.132813-1.34375-.71875-2.199219-2.101563-2.25-3.625-.046875-1.523437.722656-2.957031 2.019531-3.761719l31.699219-20.984375-49.015625 28.304688c-2.003906 1.242187-4.636719.621093-5.875-1.386719-1.238281-2.003906-.617188-4.632812 1.386719-5.875l57.414062-37.808594-78.125 45.105469c-1.996093 1.117187-4.523437.457031-5.71875-1.496094-1.195312-1.953125-.636719-4.5 1.265625-5.773437l63.050782-40.847656-83.421876 48.160156c-2.007812 1.230468-4.636718.597656-5.863281-1.410156-1.230469-2.011719-.597656-4.636719 1.410157-5.867188l78.6875-50.886719-100.824219 58.191407c-.644531.386718-1.378907.59375-2.132813.605468zm0 0" fill="#e4e8eb"/><path d="m109.253906 91.550781c-1.746094 0-3.316406-1.0625-3.964844-2.6875-.644531-1.621093-.238281-3.476562 1.03125-4.675781l17.390626-16.460938-.382813.222657c-2.039063 1.15625-4.632813.453125-5.804687-1.578125-1.171876-2.03125-.488282-4.625 1.535156-5.8125l31.777344-18.347656c1.886718-1.144532 4.332031-.667969 5.644531 1.105468 1.316406 1.773438 1.0625 4.253906-.582031 5.722656l-17.410157 16.425782 78.695313-45.429688c1.320312-.777344 2.957031-.78125 4.285156-.019531s2.144531 2.175781 2.140625 3.707031-.828125 2.945313-2.160156 3.699219l-110.078125 63.558594c-.640625.375-1.371094.574219-2.117188.570312zm0 0" fill="#e4e8eb"/><path d="m186.8125 30.835938c-1.679688 0-3.203125-.984376-3.890625-2.515626-.6875-1.535156-.414063-3.328124.699219-4.582031l11.71875-13.210937c-.800782-1.972656-.027344-4.234375 1.816406-5.300782l6.476562-3.734374c1.8125-1.050782 4.117188-.628907 5.441407.996093 1.324219 1.621094 1.273437 3.964844-.117188 5.53125l-1.527343 1.707031 1.433593-.855468c1.320313-.773438 2.957031-.78125 4.285157-.019532 1.328124.765626 2.144531 2.179688 2.140624 3.710938-.003906 1.53125-.828124 2.941406-2.15625 3.699219l-24.183593 14.003906c-.648438.375-1.386719.570313-2.136719.570313zm0 0" fill="#e4e8eb"/><path d="m37.464844 298.542969c-1.8125.003906-3.425782-1.132813-4.03125-2.839844-.601563-1.707031-.066406-3.609375 1.34375-4.746094l41.8125-33.832031-42.597656 24.582031c-1.910157 1.070313-4.3125.523438-5.574219-1.265625-1.257813-1.785156-.964844-4.234375.683593-5.671875l24.925782-21.144531-20.046875 11.570312c-1.78125 1.027344-4.039063.636719-5.371094-.929687-1.335937-1.5625-1.363281-3.855469-.070313-5.453125l13.25-16.347656c-2.070312 1.066406-4.617187.269531-5.714843-1.785156-1.097657-2.054688-.34375-4.613282 1.695312-5.742188l19.703125-11.375c1.785156-1.035156 4.050782-.652344 5.390625.917969 1.339844 1.566406 1.367188 3.867187.0625 5.464843l-13.242187 16.332032 41.070312-23.679688c1.910156-1.089844 4.335938-.546875 5.601563 1.25 1.265625 1.800782.957031 4.265625-.710938 5.695313l-24.917969 21.128906 48.640626-28.074219c1.925781-1.105468 4.378906-.546875 5.636718 1.28125 1.257813 1.832032.902344 4.320313-.816406 5.726563l-41.8125 33.839843 70.742188-40.847656c1.9375-1.140625 4.429687-.578125 5.691406 1.285156 1.265625 1.859376.863281 4.382813-.914063 5.761719l-39.578125 31.097657 66.117188-38.144532c1.953125-1.128906 4.449218-.539062 5.691406 1.34375 1.246094 1.882813.808594 4.410156-1 5.765625l-33.867188 25.410157 56.320313-32.519532c1.949219-1.109375 4.421875-.519531 5.664063 1.347656 1.242187 1.867188.824218 4.378907-.953126 5.742188l-35.441406 26.890625 58.882813-34.007813c1.941406-1.089843 4.398437-.503906 5.640625 1.347657 1.238281 1.855469.839844 4.351562-.914063 5.726562l-36.90625 28.339844 61.328125-35.414063c1.957032-1.109374 4.4375-.511718 5.675782 1.367188 1.234374 1.882812.796874 4.398438-1 5.75l-32.664063 24.347656 54.527344-31.4375c1.984375-1.132812 4.507812-.503906 5.726562 1.429688 1.21875 1.929687.699219 4.480468-1.179687 5.78125l-9.324219 6.410156 23.59375-13.65625c1.9375-1.128906 4.417969-.570312 5.679687 1.285156 1.261719 1.855469.871094 4.371094-.894531 5.757813l-39.882812 31.519531 66.796875-38.527344c1.96875-1.144531 4.484375-.550781 5.726562 1.355469 1.242188 1.910156.769532 4.453125-1.074218 5.785156l-28.65625 20.917969 44.179687-25.5c1.96875-1.160156 4.5-.5625 5.746094 1.351562 1.246093 1.917969.757812 4.476563-1.105469 5.800782l-24.039062 17.476562 30.261718-17.476562c1.953125-1.144532 4.460938-.566406 5.710938 1.320312 1.253906 1.886719.8125 4.425782-1.003906 5.78125l-22.183594 16.824219 24.539062-14.171875c1.933594-1.101562 4.390625-.535156 5.640625 1.304688 1.253907 1.839843.882813 4.332031-.851562 5.726562l-16.144531 12.894531 14.503906-8.398437c1.800781-1.039063 4.085937-.632813 5.414062.960937 1.332032 1.597657 1.320313 3.917969-.027344 5.5l-15.328124 18.015625 10.480468-6.050781c1.636719-.976563 3.71875-.746094 5.105469.558594 1.386719 1.304687 1.742187 3.371093.867187 5.0625l-3.414062 6.707031c1.878906.125 3.449219 1.460938 3.875 3.292969.429688 1.828125-.394531 3.722656-2.023438 4.660156l-9.445312 5.453125c-1.636719.976562-3.71875.746094-5.105469-.558594-1.386719-1.304687-1.742187-3.371094-.867187-5.0625l2.816406-5.53125-19.398438 11.136719c-1.796874 1.039063-4.082031.632813-5.410156-.960937-1.332031-1.597657-1.320312-3.917969.027344-5.5l15.292969-17.980469-42.335938 24.464843c-1.929687 1.078126-4.359375.503907-5.605469-1.320312-1.242187-1.824219-.886718-4.300781.820313-5.699219l16.136719-12.886719-34.550782 19.925782c-1.949218 1.085937-4.40625.488281-5.636718-1.367188-1.234375-1.859375-.824219-4.355468.933594-5.726562l22.1875-16.835938-41.480469 23.945313c-1.964844 1.117187-4.457031.511719-5.6875-1.382813-1.230469-1.894531-.773438-4.417968 1.042969-5.757812l24.003906-17.453125-42.621094 24.613281c-1.960938 1.105469-4.445312.496094-5.671875-1.386719-1.230469-1.886719-.785156-4.402343 1.019531-5.75l28.679688-20.941406-48.640625 28.09375c-1.933594 1.085937-4.378907.511719-5.621094-1.324219-1.246094-1.839844-.875-4.324218.851563-5.714844l39.859374-31.496093-66.816406 38.578125c-1.980468 1.132812-4.507812.503906-5.726562-1.429688-1.21875-1.929687-.699219-4.480468 1.179687-5.78125l9.386719-6.441406-23.664062 13.652344c-1.957032 1.136718-4.464844.550781-5.707032-1.34375-1.246094-1.890625-.796875-4.425782 1.023438-5.773438l32.648437-24.335937-54.519531 31.476562c-1.945312 1.09375-4.402344.507813-5.640625-1.347656-1.238281-1.851563-.839844-4.347656.914063-5.726563l36.914062-28.335937-61.398438 35.421875c-1.949218 1.132812-4.445312.550781-5.695312-1.324219-1.25-1.878906-.824219-4.40625.976562-5.769531l35.492188-26.929688-58.933594 34.039063c-1.953125 1.128906-4.449218.539063-5.691406-1.34375s-.804688-4.410156 1-5.765625l33.835938-25.394531-56.320313 32.527343c-1.941406 1.117188-4.410156.546876-5.664063-1.304687-1.253906-1.851563-.863281-4.359375.890626-5.742187l39.570312-31.121094-66.183594 38.195312c-.648437.375-1.386718.570313-2.132812.570313zm0 0" fill="#fab153"/><path d="m110.78125 503.097656c-1.910156 0-3.585938-1.269531-4.105469-3.105468-.519531-1.835938.242188-3.796876 1.871094-4.796876l51.515625-31.777343-67.738281 39.074219c-2 1.070312-4.492188.382812-5.664063-1.558594-1.171875-1.945313-.617187-4.464844 1.261719-5.738282l142.925781-90.238281-167.101562 96.46875c-2.007813 1.125-4.550782.453125-5.738282-1.519531-1.191406-1.972656-.597656-4.535156 1.335938-5.785156l148.171875-92.921875-154.820313 89.386719c-2.023437 1.207031-4.644531.542968-5.847656-1.480469-1.207031-2.023438-.546875-4.640625 1.480469-5.847657l76.578125-47.0625-75.09375 43.324219c-2.015625 1.113281-4.554688.425781-5.730469-1.554687-1.179687-1.976563-.574219-4.535156 1.367188-5.777344l25.226562-15.359375-23.039062 13.304687c-2.019531 1.214844-4.644531.5625-5.859375-1.453124-1.214844-2.019532-.5625-4.644532 1.453125-5.859376l104.792969-65.757812-103.46875 59.734375c-2.007813 1.054687-4.492188.355469-5.65625-1.59375-1.160157-1.949219-.589844-4.46875 1.296874-5.730469l28.953126-17.859375-26.804688 15.472657c-2.011719 1.089843-4.523438.398437-5.695312-1.566407-1.171876-1.964843-.585938-4.503906 1.328124-5.757812l3.753907-2.3125-1.425781.855469c-2 1.117187-4.523438.457031-5.71875-1.496094-1.195313-1.953125-.636719-4.5 1.265624-5.777344l105.8125-68.75-104.960937 60.585938c-2 1.082031-4.5.40625-5.679687-1.539063-1.179688-1.945313-.625-4.476563 1.261718-5.75l59.253906-37.800781-57.574218 33.277344c-2 1.101562-4.511719.433593-5.699219-1.515626-1.1875-1.949218-.632813-4.488281 1.261719-5.761718l54.726562-35.277344-52.976562 30.53125c-2 1.117188-4.523438.457031-5.71875-1.492188-1.195313-1.953124-.640625-4.503906 1.265625-5.777343l39.40625-25.472657-37.546875 21.667969c-1.996094 1.113281-4.511719.460938-5.714844-1.480469-1.199219-1.945312-.65625-4.488281 1.234375-5.773437l43.792969-28.945313-42.027344 24.277344c-2 1.117188-4.523438.457032-5.71875-1.496094-1.195312-1.953124-.636719-4.5 1.265625-5.773437l3.507813-2.269531-1.109376.640625c-1.957031 1.109375-4.441406.511719-5.675781-1.367188-1.234375-1.878906-.796875-4.398437 1-5.75l56.507813-42.019531-55.742188 32.1875c-1.941406 1.109375-4.410156.53125-5.65625-1.328125-1.246094-1.855469-.847656-4.359375.914063-5.738281l39.046875-30.15625-37.855469 21.855468c-1.953125 1.128907-4.449219.539063-5.691406-1.34375-1.242188-1.882812-.804688-4.410156 1-5.765624l14.191406-10.605469-11.949219 6.910156c-1.847656 1.066406-4.199218.601563-5.503906-1.085937-1.308594-1.6875-1.164062-4.082032.335938-5.601563l20.058593-20.25-18.625 10.75c-1.660156.949219-3.746093.679687-5.109375-.65625-1.363281-1.339844-1.671875-3.417969-.753906-5.09375l7.269531-13.183594-.382812.21875c-2.039063 1.160157-4.632813.457031-5.804688-1.574219s-.484375-4.628906 1.539063-5.8125l13.652344-7.886718c1.65625-.949219 3.742187-.679688 5.105468.65625 1.363282 1.339844 1.671875 3.421875.757813 5.097656l-7.273438 13.183594 32.878907-18.980469c1.851562-1.066406 4.203124-.601563 5.507812 1.085937 1.304688 1.691407 1.164062 4.085938-.335938 5.605469l-20.0625 20.230469 46.679688-26.9375c1.953125-1.128906 4.449219-.539062 5.691406 1.34375 1.246094 1.882812.804688 4.410156-1 5.765625l-14.191406 10.605469 30.722656-17.714844c1.941406-1.109375 4.410156-.53125 5.65625 1.328125 1.246094 1.855469.847656 4.359375-.914062 5.738281l-39.046875 30.121094 64.425781-37.195312c1.957031-1.113282 4.4375-.515626 5.675781 1.363281 1.234375 1.882812.796875 4.398437-1 5.753906l-56.523437 42.023437 85.136718-49.117187c1.996094-1.082031 4.492188-.414063 5.675782 1.523437s.644531 4.464844-1.230469 5.746094l-3.523437 2.28125 16.5625-9.550781c1.988281-1.070313 4.464843-.40625 5.652343 1.511719 1.1875 1.921875.671875 4.433594-1.171875 5.734375l-43.734375 28.902343 62.625-36.148437c1.996094-1.082031 4.492188-.414063 5.675781 1.523437 1.1875 1.9375.644532 4.464844-1.226562 5.746094l-39.425781 25.480469 56.738281-32.75c1.992188-1.054687 4.464844-.375 5.640625 1.546875 1.171875 1.925781.648437 4.433594-1.203125 5.722656l-54.691406 35.246094 73.667968-42.515625c2.003907-1.082031 4.503907-.40625 5.683594 1.539063 1.179688 1.945312.625 4.476562-1.261718 5.75l-59.316407 37.808593 78.167969-45.097656c1.992188-1.097656 4.5-.4375 5.691406 1.503906 1.191406 1.941407.652344 4.476563-1.230468 5.757813l-105.8125 68.761718 131.675781-76.023437c2.011719-1.089844 4.527343-.398437 5.699219 1.566406 1.171874 1.964844.585937 4.503907-1.328126 5.757813l-3.816406 2.34375 16.753906-9.667969c2.011719-1.089844 4.523438-.398437 5.695313 1.566406 1.171875 1.964844.585937 4.503907-1.328125 5.757813l-28.84375 17.765625 43.460938-25.089844c2.011718-1.125 4.550781-.453125 5.742187 1.519531 1.1875 1.972656.597656 4.535156-1.339844 5.785156l-104.890625 65.800782 126.667969-73.105469c2.019531-1.113281 4.554687-.425781 5.734375 1.554687 1.175781 1.980469.570312 4.535157-1.371094 5.777344l-25.097656 15.316406 39.210938-22.648437c2.011718-1.089844 4.523437-.398437 5.699218 1.566406 1.171875 1.964844.585938 4.503907-1.332031 5.757813l-76.59375 47.085937 88.746094-51.199219c2.011719-1.128906 4.550781-.453124 5.742187 1.519532 1.1875 1.972656.597656 4.53125-1.339844 5.785156l-148.070312 92.808594 150.777344-87.042969c2.003906-1.101563 4.523437-.425781 5.707031 1.53125 1.183594 1.960937.613281 4.503906-1.296875 5.765625l-142.984375 90.28125 135.03125-77.949219c2.015625-1.136719 4.570313-.457031 5.757813 1.527344s.574218 4.554687-1.378907 5.792969l-51.515625 31.777344 43.972656-25.386719c2.003907-1.140625 4.550782-.480469 5.75 1.484375 1.203126 1.96875.625 4.535156-1.304687 5.796875l-124.417969 80.484375 115.039063-66.40625c1.992187-1.070313 4.472656-.398438 5.65625 1.527344 1.179687 1.929687.65625 4.445312-1.199219 5.734374l-94.378906 61.269532 85.492187-49.355469c2-1.117187 4.523438-.457031 5.722657 1.496094 1.195312 1.953125.636718 4.5-1.265626 5.773437l-58.539062 37.785156 50.398438-29.097656c1.976562-1.136718 4.5-.515625 5.722656 1.410156 1.222656 1.925782.71875 4.472657-1.148438 5.78125l-82.433594 57.363282 72.652344-41.941406c1.972656-1.078126 4.445313-.4375 5.648438 1.460937s.726562 4.410156-1.089844 5.730469l-46.933594 32.429687 38.332032-22.136719c1.980468-1.207031 4.558593-.609374 5.808593 1.34375 1.25 1.953126.714844 4.546876-1.210937 5.839844l-28.757813 20.207032 20.59375-11.867188c1.960938-1.09375 4.429688-.476562 5.652344 1.40625s.773437 4.390625-1.019531 5.734375l-15.777344 11.445313 7.898438-4.558594c1.886718-1.164063 4.351562-.695313 5.671874 1.085937 1.320313 1.777344 1.058594 4.273438-.601562 5.742188l-21.972656 20.929687 12.117187-6.988281c1.753907-1.019531 3.984375-.664063 5.332031.855469 1.347657 1.519531 1.433594 3.78125.207032 5.398437l-7.734375 10.171875c1.191406.242188 2.21875.988282 2.816406 2.042969 1.179687 2.035156.484375 4.644531-1.550781 5.828125l-13.652344 7.867188c-1.761719 1.019531-3.996094.652343-5.339844-.875-1.347656-1.527344-1.425781-3.789063-.191406-5.40625l6.023438-7.9375-24.746094 14.277343c-1.882813 1.167969-4.347656.695313-5.667969-1.085937-1.324219-1.777344-1.0625-4.273438.597656-5.742188l21.964844-20.921875-47.957031 27.691407c-1.960938 1.117187-4.453125.507812-5.6875-1.382813-1.230469-1.894531-.769532-4.421875 1.046875-5.761719l15.777343-11.441406-32.203124 18.585938c-1.972657 1.105468-4.464844.484374-5.683594-1.421876s-.742188-4.429687 1.089844-5.753906l28.671874-20.167968-47.375 27.308593c-1.972656 1.078125-4.445312.4375-5.648437-1.460937-1.203125-1.902344-.726563-4.410156 1.089844-5.734375l46.933593-32.425781-68.589843 39.65625c-1.96875 1.066406-4.429688.429687-5.632813-1.464844-1.203125-1.890625-.734375-4.390625 1.066406-5.722656l82.433594-57.351563-111.785156 64.539063c-2 1.117187-4.523438.457031-5.722656-1.496094-1.195313-1.953125-.636719-4.5 1.265625-5.773438l58.539062-37.789062-78.046875 45.058594c-1.992187 1.066406-4.472656.398437-5.652344-1.53125-1.183593-1.925782-.65625-4.441407 1.199219-5.730469l94.34375-61.238281-118.671875 68.5c-2 1.117187-4.523437.457031-5.71875-1.496094-1.195312-1.953125-.636718-4.5 1.265625-5.773438l124.414063-80.53125-152.082032 87.800782c-.644531.386718-1.378906.59375-2.132812.605468zm0 0" fill="#eb5463"/><g fill="#262626"><path d="m32.0625 437.5625c5.886719 25.523438 4.675781 61.027344 35.789062 64.628906 49.613282 5.753906 103.253907 0 153.164063 0h131.679687c.847657-.050781 1.683594-.226562 2.480469-.527344.800781-.066406 1.59375-.226562 2.355469-.480468 32.078125-11.203125 31.726562-65.089844 38.308594-93.609375l18.6875-80.964844c2.242187-9.726563 10.640625-29.625 6.03125-40.328125-3.566406-8.277344-13.191406-11.765625-24.371094-13.054688-.441406-22.808593-5.632812-40.105468-25.308594-47.933593 7.523438-3.199219 14.085938-8.292969 19.054688-14.785157.136718-.179687.136718-.316406.246094-.480468.1875-.171875.359374-.359375.511718-.5625 8.421875-14.597656 6.820313-32.902344-4.007812-45.816406-11.632813-12.183594-26.121094-13.421876-41.398438-14.054688 6.53125-7.617188 9.359375-17.738281 7.722656-27.636719-1.964843-9.613281-8.234374-17.789062-17.003906-22.1875-.257812-.222656-.542968-.402343-.855468-.539062-.351563-.21875-.734376-.386719-1.132813-.503907-7.800781-1.902343-8.917969-20.683593-12.144531-26.035156-6.898438-9.929687-16.6875-17.496094-28.039063-21.664062-19.851562-8.746094-41.472656-8.621094-59.308593-22.1875-10.144532-7.679688-15.445313-22.125-26-28.015625-2.878907-1.351563-6.265626-1.023438-8.832032.855469-5.597656 4.179687-2.9375 5.425781-7.730468 9.984374-12.019532 12.59375-26.136719 23.003907-41.71875 30.769532-14.242188 6.664062-28.675782 11.433594-38.496094 24.644531-3.730469 5.792969-6.898438 11.933594-9.464844 18.328125-.71875.386719-1.460938.730469-2.21875 1.035156-.675781.207032-1.332031.472656-1.960938.800782-8.390624 1.777343-16.574218 4.417968-24.421874 7.882812l-.425782.230469c-.105468.070312-.214844.105469-.316406.171875-.375.246094-.71875.53125-1.03125.855468l-.054688.042969c-.433593.363281-.777343.820313-1.015624 1.339844-7.304688 9.453125-7.089844 15.84375-11.203126 26.921875-8.328124 22.46875 5.5625 4.027344-12.859374 20.308594-18.378907 16.160156-28.902344 39.03125-15.171876 62.566406 5.300782 8.851562 13.59375 15.511719 23.382813 18.773438-17.015625 6.765624-28.683594 20.710937-29.511719 48.289062-13.652344 1.46875-24.625 6.75-25.085937 25.601562-.3750002 15.128907 8.0625 34.984376 11.410156 49.492188zm39.253906-292.855469c1.058594-.269531 2.058594-.730469 2.953125-1.359375l38.65625 1.886719c2.558594.128906 14.019531-4.582031 8.070313-4.871094l-41.726563-2.03125c-1 .058594-1.984375.257813-2.929687.597657-6.90625-12.460938-5.140625-25.417969 5.292968-38.871094 7.03125-5.320313 15.972657-7.460938 24.652344-5.894532 1.152344 0 2.304688-.15625 3.414063-.472656l98.722656 4.875c4.742187.230469 13.121094-6.648437 4.792969-7.058594l-97.925782-4.835937c6.089844-31.574219 41.164063-33.90625 64-48.640625 7.753907-5.027344 22.238282-23.269531 26.171876-22.851562 2.960937.304687 30.90625 28.507812 37.65625 31.214843 30.269531 12.175781 68.265624 10.863281 71.988281 50.789063l-40.59375-2.003906c-3.082031-.15625-14.21875 5.367187-7.851563 5.671874l49.605469 2.449219c.453125.566407 1.085937.960938 1.792969 1.117188l8.097656 1.972656c7.5625 3.644531 12.945312 10.664063 14.503906 18.910156 1.675782 9.128907-1.6875 18.453125-8.804687 24.414063l-152.746094-7.441406c-4.675781-.230469-13.152344 6.535156-4.832031 6.9375l155.308594 7.570312c.753906.527344 1.640624.820312 2.558593.851562 15.429688.761719 31.574219-.851562 43.171875 11.332032 9.378906 10.945312 10.914063 26.582031 3.847656 39.144531-6.796874 7.847656-16.367187 12.765625-26.710937 13.71875h-205.429687c-22.09375 0-47.402344-2.855469-69.207032-.628906-41.785156-8.664063-59.433594-65.671875-6.527344-76.492188zm.664063 85.683594c19.957031 1.265625 39.976562 1.195313 59.921875-.207031h174.285156c15.101562.847656 30.242188.847656 45.34375 0h2.109375c9.835937 1.199218 18.71875 6.46875 24.496094 14.519531 5.773437 8.050781 7.910156 18.15625 5.890625 27.855469-5.84375 0-11.65625.308594-16.945313.667968-1.308593-.085937-2.65625-.195312-3.816406-.195312h-228.847656c-9.792969 0-20.113281.542969-30.566407 1.066406h-50.59375c-2.941406-.292968-5.871093-.597656-8.71875-1.066406-2.199218-.445312-4.445312-.585938-6.683593-.417969.527343-1.457031.527343-3.050781 0-4.507812-5.09375-20.589844 16.589843-34.414063 34.101562-37.714844zm-45.414063 50.003906c.785156.660157 1.78125 1.011719 2.808594.996094h358.398438c.429687-.003906.863281-.035156 1.289062-.082031 11.339844 1.765625 17.671875 4.265625 18.636719 23.355468.914062 18.019532-9.734375 42.1875-13.765625 59.65625-6.136719 26.578126-12.269532 53.152344-18.394532 79.726563-3.414062 14.832031-4.269531 43.835937-20.480468 51.917969h-225.894532c-22.683593 0-61.714843 9.222656-73.910156-14.773438-16.808594-33.109375-19.222656-83.308594-27.550781-119.464844-4.574219-19.78125-27.46875-72.414062-1.136719-81.332031zm0 0"/><path d="m92.691406 463.289062c-11.808594-51.199218-23.625-102.398437-35.449218-153.601562-1.140626-4.972656-13.53125-1.78125-12.363282 3.3125 11.820313 51.199219 23.636719 102.398438 35.449219 153.601562 1.152344 4.972657 13.566406 1.757813 12.363281-3.3125zm0 0"/><path d="m131.644531 463.289062-25.597656-153.601562c-.667969-4-13.097656-1.097656-12.355469 3.3125l25.597656 153.601562c.667969 4 13.097657 1.097657 12.355469-3.3125zm0 0"/><path d="m341.363281 464.558594c11.8125-51.199219 23.628907-102.398438 35.445313-153.597656 1.46875-6.367188-11.222656-5.121094-12.578125.765624-11.808594 51.203126-23.621094 102.402344-35.4375 153.601563-1.460938 6.367187 11.238281 5.09375 12.570312-.769531zm0 0"/><path d="m302.40625 464.519531 25.601562-153.601562c1.058594-6.367188-11.589843-4.890625-12.546874.851562l-25.597657 153.601563c-1.058593 6.398437 11.585938 4.890625 12.542969-.851563zm0 0"/><path d="m259.613281 464.03125 10.929688-153.601562c.300781-4.265626-12.039063-1.703126-12.289063 1.828124l-10.929687 153.601563c-.296875 4.207031 12.03125 1.714844 12.289062-1.828125zm0 0"/><path d="m216.980469 463.289062v-153.601562c0-3.121094-12.355469-1.023438-12.355469 3.3125v153.601562c0 3.121094 12.355469 1.023438 12.355469-3.3125zm0 0"/></g></svg>