<svg height="512" viewBox="0 0 60 60" width="512" xmlns="http://www.w3.org/2000/svg"><g id="047---Research-Customer-Behaviour" fill="none"><path id="Path" d="m54.127 59.29c-.2110877.0000797-.3994859-.1324134-.4707948-.3310917s-.010165-.4207362.1527948-.5549083l.19-.157-.789.455c-.2180963.1257781-.4956948.0697764-.6479698-.1307191-.1522751-.2004955-.1317242-.4829397.0479698-.6592809l2.555-2.5-3.474 2.008c-.2180963.1257781-.4956948.0697764-.6479698-.1307191-.1522751-.2004955-.1317242-.4829397.0479698-.6592809l2.657-2.6-3.461 2c-.2221262.1265945-.5039712.0652242-.6533525-.1422642-.1493814-.2074884-.1181698-.4942439.0723525-.6647358l1.84-1.621-2.346 1.351c-.219385.1342545-.5048344.0801688-.6599003-.1250351-.1550659-.2052038-.1291551-.4945743.0599003-.6689649l2.184-2.087-2.84 1.64c-.2243015.1303348-.511027.0674761-.6602307-.1447421-.1492038-.2122182-.1113211-.5032983.0872307-.6702579l1.078-.91-1.419.819c-.2269806.1326577-.5179234.0668764-.6657567-.1505254-.1478333-.2174019-.1020535-.5121545.1047567-.6744746l.123-.1-.312.179c-.2138636.1213482-.4842152.0691846-.6375799-.1230191-.1533647-.1922038-.1442142-.4673898.0215799-.6489809l2.178-2.347-2.975 1.718c-.2132183.1213577-.4829881.0700899-.6368234-.1210238-.1538354-.1911136-.146285-.465608.0178234-.6479762l3.127-3.425c-.1380647-.2391402-.0561341-.5449248.183-.683l1.009-.583c.2135054-.1227461.4845965-.071745.6388985.1201978.1543021.1919428.1458589.4676604-.0198985.6498022l-2.02 2.214 3.055-1.764c.2138636-.1213482.4842152-.0691846.6375799.1230191.1533647.1922038.1442142.4673898-.0215799.6489809l-2.178 2.346 3.248-1.875c.2266681-.1317558.5166136-.0660514.6643416.1505461.1477279.2165976.1030619.5105201-.1023416.6734539l-.125.1.458-.264c.2241703-.1280952.5090066-.0644456.6573283.1468868.1483216.2113324.1113468.5008421-.0853283.6681132l-1.076.91 1.594-.92c.2189627-.1248229.4965995-.0671571.6477436.1345378.1511442.2016949.1285371.4843546-.0527436.6594622l-2.184 2.087 3.083-1.779c.2221262-.1265945.5039712-.0652242.6533525.1422642.1493814.2074884.1181698.4942439-.0723525.6647358l-1.837 1.62 2.555-1.474c.2180963-.1257781.4956948-.0697764.6479698.1307191.1522751.2004955.1317242.4829397-.0479698.6592809l-2.656 2.6 3.471-2.009c.2180963-.1257781.4956948-.0697764.6479698.1307191.1522751.2004955.1317242.4829397-.0479698.6592809l-2.556 2.5 2.511-1.45c.2254575-.1330437.5153687-.0696598.6647344.1453323.1493656.2149921.1076129.5087994-.0957344.6736677l-.468.386c.1856625-.0138939.3616509.0845336.447.25.1380647.2391402.0561341.5449248-.183.683l-4.647 2.683c-.074767.0432555-.1596221.0660215-.246.066z" fill="#798291"/><path id="Path" d="m28.6 55.422c-.2220643.0001161-.4175972-.1462439-.4800683-.3593399-.0624712-.213096.0230901-.4418614.2100683-.5616601l5.154-3.3-7.064 4.078c-.234481.1270728-.5274228.0477401-.6657366-.1802909-.1383139-.2280309-.0733058-.5244809.1477366-.6737091l6.771-4.3-8.546 4.934c-.2358256.1438702-.5436298.0693256-.6875-.1665-.1438701-.2358256-.0693256-.5436298.1665-.6875l12.322-7.914-14.3 8.257c-.2361017.143594-.5439059.0686017-.6875-.1675-.143594-.2361017-.0686017-.543906.1675-.6875l14.2-9.062-15.953 9.209c-.2354379.13455-.5352149.0569022-.6757281-.1750261-.1405133-.2319283-.0705395-.5335888.1577281-.6799739l16.319-10.394-18 10.392c-.2353357.1240261-.5265799.04207-.6626998-.1864836-.1361199-.2285535-.0694507-.5236725.1516998-.6715164l7.152-4.4-7.959 4.594c-.2349709.1292146-.5300387.050062-.6687925-.179405-.1387537-.2294671-.0717837-.5275361.1517925-.675595l17.401-10.964-18.7 10.8c-.2372063.141661-.5443389.0642063-.686-.173-.141661-.2372063-.0642063-.544339.173-.686l12.026-7.422-12.817 7.4c-.1532669.0918173-.3438754.094893-.5000249.0080685-.1561495-.0868244-.2541174-.2503583-.257-.429s.089758-.3452512.2430249-.4370685l16.356-10.174-17.273 9.971c-.2356087.1297647-.5316571.04988-.6700067-.1807924-.1383496-.2306723-.0694166-.5294607.1560067-.6762076l15.6-9.657-16.325 9.424c-.23693016.1419372-.5440628.0649301-.68599998-.172-.14193717-.2369302-.06493016-.5440628.17199998-.686l17-10.538-17.707 10.221c-.23775858.1405564-.54444351.0617586-.68499997-.176-.14055647-.2377586-.0617586-.5444435.17599997-.685l4.2-2.541-4.418 2.55c-.23571786.1278172-.53029699.0469384-.66770199-.1833224-.13740501-.2302607-.06871185-.5279174.15570199-.6746776l13.282-8.152-13.712 7.916c-.23638246.1285498-.53210687.0469768-.6691568-.184581-.13704993-.2315579-.06627089-.5300498.1601568-.675419l5.8-3.515-6.032 3.481c-.23628449.1306359-.5336041.0500916-.67163931-.181948s-.06692381-.5317553.16063931-.677052l11.365-6.942-11.555 6.671c-.23571786.1278172-.53029699.0469384-.66770199-.1833224-.13740501-.2302607-.06871185-.5279174.15570199-.6746776l14.508-8.911-14.769 8.526c-.2372063.1413849-.54411508.0637063-.68549997-.1735s-.06370631-.5441151.17349997-.6855l17-10.5-17.279 9.979c-.23571786.1278172-.53029699.0469384-.66770199-.1833224-.13740501-.2302607-.06871185-.5279174.15570199-.6746776l17.215-10.642-17.333 10.011c-.23617349.1361818-.537908.0580681-.67833183-.1756081-.14042384-.2336761-.06777083-.5367718.16333183-.6813919l21.938-13.763-22.187 12.809c-.23560872.1297647-.5316571.04988-.67000668-.1807924-.13834959-.2306723-.06941665-.5294607.15600668-.6762076l18.265-11.343-18.209 10.512c-.23665401.1424894-.54401051.066154-.68649997-.1705-.14248945-.236654-.06615402-.5440105.17049997-.6865l20.953-13.165-20.918 12.076c-.23583577.1260453-.52910097.0442222-.66561588-.1857118-.13651492-.2299339-.06795177-.5265795.15561588-.6732882l9.247-5.654-8.969 5.177c-.23571786.1278172-.53029699.0469384-.66770199-.1833224-.13740501-.2302607-.06871185-.5279174.15570199-.6746776l10.105-6.2-9.71 5.607c-.23497088.1292146-.53003872.050062-.66879247-.179405-.13875376-.2294671-.07178369-.5275361.15179247-.675595l18.172-11.424-17.817 10.282c-.23497088.1292146-.53003872.050062-.66879247-.179405-.13875376-.2294671-.07178369-.5275361.15179247-.675595l17.492-11.046-16.883 9.746c-.23571786.1278172-.53029699.0469384-.66770199-.1833224-.13740501-.2302607-.06871185-.5279174.15570199-.6746776l8.334-5.144-7.717 4.456c-.23620749.133071-.53543293.0536509-.67455994-.1790411-.13912702-.2326919-.06746126-.5338687.16155994-.6789589l5.908-3.641-5.122 2.958c-.23508655.127347-.52875831.0472199-.66659082-.1818764-.13783251-.2290964-.071048-.5260868.15159082-.6741236l11.01-6.92-10.1 5.83c-.23610173.1433179-.54368209.0681017-.68699998-.168s-.06810174-.5436821.16799998-.687l11.613-7.4-10.346 5.974c-.23405687.1357068-.53360081.0606207-.67597038-.1694442-.14236958-.2300649-.07591293-.5316408.14997038-.6805558l13.286-8.806-11.443 6.606c-.23551248.13196-.53324972.0531389-.67262044-.1780652-.13937073-.2312042-.07004227-.5312938.15662044-.6779348l1.717-1.084-.231.134c-.23470337.1364868-.53543738.0607325-.67747413-.1706544-.14203676-.2313868-.07346495-.5338394.15447413-.6813456l4.315-2.818-2.15 1.239c-.22564096.1128473-.5000036.0399183-.63982949-.1700748s-.10130647-.4912576.08982949-.6559252l5.27-4.051c-.2225291-.00809555-.4128865-.16237386-.4668934-.37840164-.054007-.21602779.0413538-.44173564.2338934-.55359836l5.886-3.4c.227731-.12816214.5157443-.059345.6609391.15792306.1451949.21726806.0985947.50969906-.1069391.67107694l-4.819 3.7 11.184-6.457c.2337734-.12874562.5274505-.05119801.667188.1761759.1397374.22737391.07627.52441224-.144188.6748241l-4.313 2.82 6.776-3.913c.2363779-.1427656.5437344-.06687786.6865.16950001.1427656.23637786.0668779.54373438-.1695.68649999l-1.722 1.086 3.277-1.889c.2340569-.1357068.5336008-.06062069.6759704.16944421s.0759129.53164078-.1499704.68055579l-13.283 8.801 16.076-9.281c.2354379-.13454995.5352149-.05690217.6757281.17502611.1405133.23192829.0705395.53358878-.1577281.67997389l-11.608 7.4 13.458-7.771c.234285-.12222814.52323-.0410463.6595757.18531407.1363457.22636036.0730104.51973442-.1445757.66968593l-11.024 6.929 12.371-7.138c.2372063-.14166103.544339-.06420629.686.17300001.141661.23720629.0642063.54433895-.173.68599999l-5.9 3.634 6.884-3.973c.2362075-.13307102.5354329-.05365088.6745599.17904108.1391271.23269196.0674613.53386873-.1615599.67895892l-8.333 5.138 9.2-5.31c.2363779-.14276559.5437344-.06687785.6865.16950002.1427656.23637786.0668779.54373436-.1695.68649998l-17.5 11.051 18.898-10.913c.2363779-.14276559.5437344-.06687785.6865.16950002.1427656.23637786.0668779.54373436-.1695.68649998l-18.164 11.423 19.315-11.152c.2372063-.14138487.5441151-.06370627.6855.17350002s.0637063.54411508-.1735.68549998l-10.1 6.193 10.779-6.218c.2369888-.13504713.5384839-.05523499.6776156.17937913.1391316.23461413.0645535.53744647-.1676156.68062087l-9.247 5.654 9.737-5.626c.2355125-.13195996.5332497-.0531389.6726204.17806525.1393708.23120415.0700423.53129378-.1566204.67793475l-20.954 13.168 21.948-12.673c.2356087-.12976469.5316571-.04987998.6700067.18079237.1383496.23067236.0694166.52946069-.1560067.67620763l-18.258 11.343 18.865-10.893c.236654-.14248944.5440105-.06615398.6865.1705.1424894.236654.066154.5440105-.1705.6865l-21.947 13.768 22.723-13.118c.2362075-.133071.5354329-.0536509.6745599.1790411.1391271.2326919.0674613.5338687-.1615599.6789589l-17.205 10.628 17.578-10.145c.2362075-.133071.5354329-.0536509.6745599.1790411.1391271.2326919.0674613.5338687-.1615599.6789589l-17.012 10.504 17.339-10.01c.2372063-.1413849.5441151-.0637063.6855.1735s.0637063.5441151-.1735.6855l-14.5 8.907 14.733-8.506c.1536242-.0912814.3442768-.0936713.5001409-.0062695s.2532602.2513169.2555.43c.0022399.1786832-.0910167.3449881-.2446409.4362695l-11.36 6.937 11.368-6.564c.2363825-.1285498.5321069-.0469768.6691568.184581.1370499.2315579.0662709.5300498-.1601568.675419l-5.777 3.5 5.718-3.3c.2353357-.1240261.5265799-.04207.6626998.1864836.1361199.2285535.0694507.5236725-.1516998.6715164l-13.3 8.16 13.341-7.7c.2363825-.1285498.5321069-.0469768.6691568.184581.1370499.2315579.0662709.5300498-.1601568.675419l-4.2 2.544 3.976-2.294c.2352087-.125628.5276152-.0445694.664573.1842276.1369579.228797.070267.5248112-.151573.6727724l-17 10.538 16.888-9.75c.2362075-.133071.5354329-.0536509.6745599.1790411.1391271.2326919.0674613.5338687-.1615599.6789589l-15.6 9.659 15.457-8.924c.2369302-.1419372.5440628-.0649302.686.172s.0649302.5440628-.172.686l-16.346 10.172 15.984-9.228c.2362075-.133071.5354329-.0536509.6745599.1790411.1391271.2326919.0674613.5338687-.1615599.6789589l-12.021 7.419 11.634-6.717c.2363779-.1427656.5437344-.0668779.6865.1695s.0668779.5437344-.1695.6865l-17.407 10.968 16.881-9.746c.2353357-.1240261.5265799-.04207.6626998.1864836.1361199.2285535.0694507.5236725-.1516998.6715164l-7.145 4.394 6.534-3.773c.2361017-.1433179.5436821-.0681017.687.168s.0681017.5436821-.168.687l-16.322 10.4 15.463-8.932c.2361017-.143594.5439059-.0686017.6875.1675.143594.2361017.0686017.543906-.1675.6875l-14.2 9.063 13.187-7.612c.2354116-.1379583.5379577-.061708.6798637.1713453.1419059.2330532.070765.5368414-.1598637.6826547l-12.317 7.912 10.95-6.322c.2354379-.13455.5352149-.0569022.6757281.1750261.1405133.2319283.0705395.5335888-.1577281.6799739l-6.769 4.3 5.324-3.073c.234023-.1252853.5251579-.0458598.6631351.1809119.1379772.2267718.0746978.5218373-.1441351.6720881l-5.16 3.3 3.514-2.029c.2313261-.1333882.5266402-.061466.670727.1633522.1440867.2248181.0860887.5231794-.131727.6776478l-8.666 6.144 5.075-2.93c.2309306-.1317312.5245674-.0597083.6683337.1639283.1437664.2236366.0873821.520673-.1283337.6760717l-3.572 2.54c.049437.0400989.0911229.0889019.123.144.1373847.2389169.0555349.543953-.183.682l-5.883 3.4c-.2309306.1317312-.5245674.0597083-.6683337-.1639283-.1437664-.2236366-.0873821-.520673.1283337-.6760717l.861-.612-5.215 3.01c-.2313261.1333882-.5266402.061466-.670727-.1633522-.1440867-.2248181-.0860887-.5231794.131727-.6776478l8.667-6.143-13.165 7.6c-.075803.0421551-.1612683.063866-.248.063z" fill="#ced2dc"/><path id="Path" d="m27.168 51.4c-.2218047.0003139-.4173044-.1455359-.4801907-.3582393-.0628862-.2127034.0218744-.4414127.2081907-.5617607l5.041-3.252-6.794 3.922c-.2350866.127347-.5287583.0472199-.6665908-.1818764-.1378325-.2290964-.071048-.5260868.1515908-.6741236l.314-.2-1.342.775c-.2343611.1288923-.5286543.0505227-.6678755-.1778537-.1392213-.2283764-.0740613-.5258734.1478755-.6751463l8.876-5.692-10.446 6.036c-.2348642.1312813-.531504.0531604-.6712412-.1767732-.1397372-.2299337-.0724576-.5292187.1522412-.6772268l9.83-6.253-11.134 6.428c-.2369302.1419372-.5440628.0649301-.686-.172-.1419372-.2369302-.0649301-.5440628.172-.686l4.3-2.668-5.128 2.96c-.234481.1270728-.5274228.0477401-.6657366-.1802909-.1383139-.2280309-.0733058-.5244809.1477366-.6737091l12.52-7.939-13.667 7.89c-.2363779.1427656-.5437344.0668779-.6865-.1695s-.0668779-.5437344.1695-.6865l11.967-7.522-12.924 7.466c-.2362845.1306359-.5336041.0500916-.6716393-.181948s-.0669238-.5317553.1606393-.677052l3.025-1.853-3.479 2.008c-.2372063.1413849-.5441151.0637063-.6855-.1735s-.0637063-.5441151.1735-.6855l7.744-4.781-8.252 4.764c-.2362075.133071-.5354329.0536509-.6745599-.1790411-.1391271-.2326919-.0674613-.5338687.1615599-.6789589l9.033-5.586-9.583 5.524c-.2374824.1411087-.5443912.0629824-.6855-.1745-.1411087-.2374824-.0629824-.5443912.1745-.6855l4.9-3-5.177 2.989c-.2369888.1350471-.5384839.055235-.6776156-.1793791-.1391316-.2346142-.0645535-.5374465.1676156-.6806209l1.414-.861-1.591.919c-.2361017.1433179-.5436821.0681017-.68699997-.168-.14331788-.2361017-.06810174-.5436821.16799997-.687l18.442-11.711-19.136 11.047c-.23497088.1292146-.53003872.050062-.66879247-.179405-.13875376-.2294671-.07178369-.5275361.15179247-.675595l17.241-10.88-17.674 10.204c-.23560872.1297647-.5316571.04988-.67000668-.1807924-.13834959-.2306723-.06941665-.5294607.15600668-.6762076l13.044-8.114-13.294 7.675c-.23698876.1350471-.53848394.055235-.67761558-.1793791-.13913163-.2346142-.06455352-.5374465.16761558-.6806209l.66-.4-.549.316c-.23617349.1361818-.537908.0580681-.67833183-.1756081-.14042384-.2336761-.06777083-.5367718.16333183-.6813919l15.286-9.586-15.422 8.906c-.23628449.1306359-.5336041.0500916-.67163931-.181948s-.06692381-.5317553.16063931-.677052l3.775-2.309-3.633 2.1c-.23497088.1292146-.53003872.050062-.66879247-.179405-.13875376-.2294671-.07178369-.5275361.15179247-.675595l15.9-10.033-15.82 9.13c-.23698876.1350471-.53848394.055235-.67761558-.1793791-.13913163-.2346142-.06455352-.5374465.16761558-.6806209l2.061-1.258-1.81 1.044c-.23497088.1292146-.53003872.050062-.66879247-.179405-.13875376-.2294671-.07178369-.5275361.15179247-.675595l14.036-8.845-13.7 7.912c-.23560872.1297647-.5316571.04988-.67000668-.1807924-.13834959-.2306723-.06941665-.5294607.15600668-.6762076l7.674-4.755-7.278 4.2c-.23520866.125628-.52761522.0445694-.66457305-.1842276-.13695782-.228797-.07026696-.5248112.15157305-.6727724l5.807-3.592-5.306 3.064c-.23617349.1361818-.537908.0580681-.67833183-.1756081-.14042384-.2336761-.06777083-.5367718.16333183-.6813919l6.785-4.222-6.147 3.549c-.23551248.13196-.53324972.0531389-.67262044-.1780652-.13937073-.2312042-.07004227-.5312938.15662044-.6779348l7.449-4.668-6.8 3.926c-.23610173.1433179-.54368209.0681017-.68699998-.168s-.06810174-.5436821.16799998-.687l9.375-5.97-8.365 4.829c-.2327769.1270897-.52428602.0503218-.66427406-.174934-.13998804-.2252559-.07974688-.5206233.13727406-.673066l12.571-8.386-11.121 6.422c-.23336809.1382671-.53441937.0652417-.67850035-.1645824s-.07863493-.5326135.14750035-.6824176l9.9-6.722-7.9 4.558c-.23158002.1294027-.52390906.0554223-.6660571-.1685604-.14214803-.2239828-.08462774-.5199909.1310571-.6744396l6.166-4.291-3.376 1.949c-.2302873.1343427-.5254749.0643663-.6709518-.1590541-.14547684-.2234204-.09006389-.5216852.1259518-.6779459l3.4-2.485c-.0628709-.0419383-.1149506-.0981296-.152-.164-.1375532-.23865551-.0561721-.54361136.182-.682l5.444-3.143c.2300482-.13085689.5222207-.05977797.6664488.16213184.1442281.22190982.0905463.51777331-.1224488.67486816l-1.273.929 5.554-3.206c.2309506-.1251572.5193699-.0502601.6602447.17145316.1408749.22171326.0861633.51463297-.1252447.67054684l-6.168 4.291 9.477-5.465c.2325262-.13076655.5267591-.05595091.6685809.17000241s.0812744.52345026-.1375809.67599759l-9.895 6.72 12.654-7.306c.2335451-.1328438.5303244-.05736382.6720248.17091629s.0776546.52773513-.1450248.67808371l-12.569 8.385 14.9-8.606c.2361017-.14331788.5436821-.06810171.687.16800001s.0681017.54368209-.168.68699999l-9.385 5.976 10.782-6.219c.2355125-.13195996.5332497-.0531389.6726204.17806525.1393708.23120415.0700423.53129378-.1566204.67793475l-7.443 4.664 8.45-4.878c.2369302-.14193716.5440628-.06493013.686.17200002.1419371.23693014.0649301.54406279-.172.68599998l-6.79 4.224 7.658-4.424c.2362075-.13307102.5354329-.05365088.6745599.17904108.1391271.23269196.0674613.53386873-.1615599.67895892l-5.8 3.589 6.451-3.725c.2356087-.12976469.5316571-.04987998.6700067.18079237.1383496.23067236.0694166.52946069-.1560067.67620763l-7.675 4.757 8.4-4.847c.2346058-.12538552.5263122-.0451285.6637604.18262002.1374483.22774852.0725112.52324301-.1477604.67237998l-14.056 8.856 14.893-8.6c.2362845-.13063592.5336041-.05009165.6716393.181948.1380352.2320396.0669238.5317553-.1606393.677052l-2.021 1.234 2.363-1.364c.2355125-.13196.5332497-.0531389.6726204.1780652.1393708.2312042.0700423.5312938-.1566204.6779348l-15.908 10.036 16.663-9.621c.2362845-.1306359.5336041-.0500916.6716393.181948s.0669238.5317553-.1606393.677052l-3.788 2.314 4.013-2.317c.2361735-.1361818.537908-.0580681.6783318.1756081.1404239.2336761.0677709.5367718-.1633318.6813919l-15.281 9.587 15.841-9.146c.2377586-.1408326.5446674-.0622586.6855.1755s.0622586.5446674-.1755.6855l-.642.388.668-.384c.2356087-.1297647.5316571-.04988.6700067.1807924.1383496.2306723.0694166.5294607-.1560067.6762076l-13.057 8.124 13.337-7.7c.2349709-.1292146.5300387-.050062.6687925.179405.1387537.2294671.0717837.5275361-.1517925.675595l-17.229 10.871 17.532-10.126c.2361017-.1433179.5436821-.0681017.687.168s.0681017.5436821-.168.687l-18.444 11.719 18.681-10.786c.2369888-.1350471.5384839-.055235.6776156.1793791.1391316.2346142.0645535.5374465-.1676156.6806209l-1.431.871 1.275-.735c.2358358-.1260453.529101-.0442222.6656159.1857118.1365149.2299339.0679517.5265795-.1556159.6732882l-4.9 3 4.671-2.7c.2348663-.1223119.5243654-.0402957.6601778.1870309.1358123.2273266.0708339.5211193-.1481778.6699691l-9.029 5.584 8.845-5.106c.2362075-.133071.5354329-.0536509.6745599.1790411.1391271.2326919.0674613.5338687-.1615599.6789589l-7.733 4.775 7.438-4.294c.2358358-.1260453.529101-.0442222.6656159.1857118.1365149.2299339.0679517.5265795-.1556159.6732882l-3.032 1.857 2.619-1.511c.2349709-.1292146.5300387-.050062.6687925.179405.1387537.2294671.0717837.5275361-.1517925.675595l-11.962 7.523 11.587-6.69c.2354379-.13455.5352149-.0569022.6757281.1750261.1405133.2319283.0705395.5335888-.1577281.6799739l-12.526 7.947 11.877-6.857c.1532669-.0918173.3438754-.094893.5000249-.0080685.1561495.0868244.2541174.2503583.257.429s-.089758.3452512-.2430249.4370685l-4.306 2.669 3.679-2.123c.234481-.1270728.5274228-.0477401.6657366.1802909.1383139.2280309.0733058.5244809-.1477366.6737091l-9.817 6.245 8.9-5.14c.2343611-.1288923.5286543-.0505227.6678755.1778537.1392213.2283764.0740613.5258734-.1478755.6751463l-8.885 5.7 7.872-4.545c.2350866-.127347.5287583-.0472199.6665908.1818764.1378325.2290964.071048.5260868-.1515908.6741236l-.987.618c.2349254-.0446696.4685931.0832601.5575314.3052404.0889384.2219804.0082463.4758611-.1925314.6057596l-5.049 3.258 3.656-2.11c.2314518-.1313128.5252013-.0583356.6682918.1660259.1430904.2243616.0853808.5214879-.1312918.6759741l-7.809 5.467 5.032-2.905c.2318603-.1330617.527371-.0602043.6708066.1653857.1434357.22559.0840493.5240996-.1348066.6776143l-2.928 2.042c.1975295.0496473.3452028.2141474.3733296.4158691s-.0689152.4003433-.2453296.5021309l-8.4 4.849c-.2311923.1280141-.5220815.054013-.6639947-.1689178-.1419132-.2229309-.0858401-.5178012.1279947-.6730822l1.577-1.1-4.809 2.775c-.230817.1267753-.5204005.0527915-.6621232-.1691615-.1417226-.221953-.0869993-.5157856.1251232-.6718385l7.812-5.472-11.26 6.5c-.0752119.0429442-.1603923.0653601-.247.065z" fill="#1c85ad"/><path id="Path" d="m28 51.47c-.2152152 0-.4062846-.137715-.4743416-.3418861-.0680571-.2041711.0021694-.4289848.1743416-.5581139l5.29-3.97-7.921 4.573c-.2313261.1333882-.5266402.061466-.670727-.1633522-.1440867-.2248181-.0860887-.5231794.131727-.6776478l6.331-4.482-8.361 4.826c-.2352733.1446986-.5433014.0712733-.688-.164s-.0712733-.5433014.164-.688l2.528-1.651-2.224 1.286c-.2335451.1328438-.5303244.0573638-.6720248-.1709163s-.0776546-.5277351.1450248-.6780837l6.189-4.123-5.663 3.269c-.2330829.1306613-.5277074.0549657-.6689423-.1718661-.1412349-.2268319-.0791592-.5246238.1409423-.6761339l9.064-6.087-8.536 4.928c-.2336556.130691-.5287926.0541466-.6694787-.1736308-.140686-.2277774-.0769932-.5259521.1444787-.6763692l8.36-5.523-7.96 4.6c-.2349709.1292146-.5300387.050062-.6687925-.179405-.1387537-.2294671-.0717837-.5275361.1517925-.675595l2.683-1.7-2.737 1.58c-.2338963.1269547-.5262491.04845-.6650871-.1785941-.1388379-.227044-.0755015-.5230536.1440871-.6734059l6.959-4.5-8.253 4.751c-.2348642.1312813-.531504.0531604-.6712412-.1767732-.1397372-.2299337-.0724576-.5292187.1522412-.6772268l5.451-3.457-7.478 4.311c-.2350866.127347-.5287583.0472199-.6665908-.1818764-.1378325-.2290964-.071048-.5260868.1515908-.6741236l3.156-1.971-4.487 2.591c-.2342478.1308833-.5300435.0535271-.6702262-.1752769s-.074765-.527467.1482262-.6767231l13.566-8.82-14.089 8.134c-.2355125.13196-.5332497.0531389-.6726204-.1780652-.1393708-.2312042-.0700423-.5312938.1566204-.6779348l7.007-4.4-5.051 2.916c-.2337734.1287456-.5274505.051198-.667188-.1761759-.1397374-.2273739-.07627-.5244122.144188-.6748241l12.566-8.2-13.371 7.72c-.2341443.133112-.5316521.0568382-.672871-.1725078-.1412189-.2293459-.075396-.5293391.148871-.6784922l14.033-9.233-14.026 8.1c-.2369302.1419372-.5440628.0649301-.686-.172-.1419372-.2369302-.0649301-.5440628.172-.686l.818-.507-.719.415c-.2349709.1292146-.5300387.050062-.6687925-.179405-.1387537-.2294671-.0717837-.5275361.1517925-.675595l5.923-3.73-5.354 3.09c-.2349709.1292146-.5300387.050062-.6687925-.179405-.1387537-.2294671-.0717837-.5275361.1517925-.675595l6.2-3.926-6.332 3.655c-.2338963.1269547-.5262491.04845-.6650871-.1785941-.1388379-.227044-.0755015-.5230536.1440871-.6734059l10-6.479-11.003 6.358c-.2347034.1364868-.5354374.0607325-.6774741-.1706544-.1420368-.2313868-.073465-.5338394.1544741-.6813456l10.716-6.975-7.859 4.537c-.2354379.13455-.5352149.0569022-.6757281-.1750261-.1405133-.2319283-.0705395-.5335888.1577281-.6799739l2.874-1.824-.738.426c-.2341687.1463555-.5426445.0751687-.689-.159s-.0751687-.5426445.159-.689l7.738-5.216-7.318 4.225c-.2337734.1287456-.5274505.051198-.667188-.1761759-.1397374-.2273739-.07627-.5244122.144188-.6748241l3.231-2.115-3.079 1.781c-.2329061.1254293-.5232086.0477402-.6623373-.1772508s-.0789338-.5194187.1373373-.6717492l2.818-1.859-1.693.978c-.2314518.1313128-.5252013.0583356-.6682918-.1660259-.1430904-.2243616-.0853808-.5214879.1312918-.6759741l4.531-3.182-2.616 1.51c-.2259084.1319558-.5153456.0674504-.6638412-.1479469s-.1058364-.5088509.0978412-.6730531l3.51-2.847c-.1348749-.0307458-.2506269-.1167434-.319-.237-.1382327-.2388784-.0567713-.5445824.182-.683l4.441-2.563c.2257553-.1305858.5139639-.0657171.662.149.1473399.2157275.1037694.5085209-.1.672l-2.839 2.306 6.915-3.992c.230817-.12677527.5204005-.05279146.6621232.16916153.1417226.221953.0869993.51578557-.1251232.67183847l-4.532 3.182 6.554-3.783c.233204-.12874209.5263939-.05204834.6666872.1743946.1402933.226443.0784231.5231151-.1406872.6746054l-2.824 1.862 3.957-2.284c.2333291-.1269664.5252099-.0493179.6646076.1768043.1393976.2261221.0776459.5217747-.1406076.6731957l-3.235 2.117 4.268-2.463c.2334461-.1352991.5321345-.0609722.6749447.1679561.1428102.2289282.0782242.5298733-.1459447.6800439l-7.729 5.213 8.976-5.183c.2354379-.13455.5352149-.0569022.6757281.1750261.1405133.2319283.0705395.5335888-.1577281.6799739l-2.883 1.83 3.456-1.995c.2337734-.1287456.5274505-.051198.667188.1761759.1397374.2273739.07627.5244122-.144188.6748241l-10.721 6.972 11.679-6.742c.2338963-.1269547.5262491-.04845.6650871.1785941.1388379.227044.0755015.5230536-.1440871.6734059l-10 6.476 10.662-6.155c.2354379-.13455.5352149-.0569022.6757281.1750261.1405133.2319283.0705395.5335888-.1577281.6799739l-6.208 3.929 6.616-3.819c.2349709-.1292146.5300387-.050062.6687925.179405.1387537.2294671.0717837.5275361-.1517925.675595l-5.934 3.737 6.15-3.55c.2356087-.1297647.5316571-.04988.6700067.1807924.1383496.2306723.0694166.5294607-.1560067.6762076l-.814.5.9-.518c.2347029-.1405531.538787-.0663884.6824238.1664401.1436368.2328284.0734897.5378644-.1574238.6845599l-14.036 9.236 14.421-8.326c.2352733-.1446986.5433014-.0712733.688.164s.0712733.5433014-.164.688l-12.568 8.2 12.73-7.349c.2361735-.1361818.537908-.0580681.6783318.1756081.1404239.2336761.0677709.5367718-.1633318.6813919l-7.014 4.4 6.861-3.96c.2347034-.1364868.5354374-.0607325.6774741.1706544.1420368.2313868.073465.5338394-.1544741.6813456l-13.565 8.822 13.364-7.716c.2361735-.1361818.537908-.0580681.6783318.1756081.1404239.2336761.0677709.5367718-.1633318.6813919l-3.155 1.969 2.756-1.59c.2341527-.123715.5241564-.0433988.6613045.1831476.1371481.2265465.0738659.5207372-.1443045.6708524l-5.444 3.459 4.845-2.8c.1523738-.0932463.3429193-.098119.4998598-.0127826.1569406.0853364.2564332.2479173.261.4265s-.086486.3460363-.2388598.4392826l-6.958 4.5 6.261-3.615c.2349709-.1292146.5300387-.050062.6687925.179405.1387537.2294671.0717837.5275361-.1517925.675595l-2.667 1.7 1.721-1c.2336556-.130691.5287926-.0541466.6694787.1736308.140686.2277774.0769932.5259521-.1444787.6763692l-8.364 5.53 6.934-4c.2330829-.1306613.5277074-.0549657.6689423.1718661.1412349.2268319.0791592.5246238-.1409423.6761339l-9.066 6.088 6.388-3.688c.2340027-.1389988.5362016-.0652981.6799386.1658244s.0762078.5347601-.1519386.6831756l-6.186 4.123 4.429-2.557c.2347034-.1364868.5354374-.0607325.6774741.1706544.1420368.2313868.073465.5338394-.1544741.6813456l-2.539 1.653 2.01-1.16c.2313261-.1333882.5266402-.061466.670727.1633522.1440867.2248181.0860887.5231794-.131727.6776478l-6.327 4.48 5.786-3.341c.2290632-.1321979.5214568-.063148.6671806.1575572.1457237.2207053.094369.5167199-.1171806.6754428l-5.292 3.969 4.742-2.737c.2225362-.1254221.5038286-.0629326.6523283.1449156.1484997.2078483.1164484.49421-.0743283.6640844l-3.432 2.993 2.853-1.648c.1549945-.0985297.351531-.1041539.5119064-.0146489.1603754.0895049.2587712.2597296.2562855.4433739s-.1054527.3511436-.2681919.436275l-7.321 4.227c-.2229237.1277986-.5064223.0658196-.6556784-.1433455-.1492561-.2091652-.11567-.4974096.0776784-.6666545l3.432-2.991-7.491 4.322c-.0752908.0450785-.1612492.0692435-.249.07z" fill="#f0bf93"/><path id="Path" d="m35.823 31.437c-.1428136-.0005968-.2786971-.0616353-.374-.168-.1574472-.1779639-.1678978-.4421554-.025-.632l1.488-1.983-2.9 1.673c-.2237424.1292278-.5090949.0666972-.6582921-.1442547-.1491972-.2109518-.1130922-.5008356.0832921-.6687453l.3-.259-.414.238c-.2136477.1213457-.4838004.0694794-.6373204-.1223584-.15352-.1918377-.1449064-.4667894.0203204-.6486416l.923-1-.356.2c-.1668756.0962685-.3742158.0880994-.533-.021-.1588754-.109031-.2409601-.2996542-.211-.49l.26-1.649c-.0835899-.0431891-.1530106-.1094858-.2-.191-.1384015-.2386168-.0574089-.5442407.181-.683l.376-.218c.1669403-.0970183.3748226-.0892444.5340507.0199711s.2413413.3003513.2109493.4910289l-.213 1.352 2.3-1.327c.2137214-.1227494.4850125-.071451.6391595.1208586.1541469.1923095.1451658.4682619-.0211595.6501414l-.922 1 2.312-1.335c.2240205-.1297641.5100442-.0670649.6592395.1445117s.1122125.502047-.0852395.6694883l-.3.257.265-.153c.2056813-.1187395.4665095-.0764089.6240818.1012842s.1684045.4417118.0259182.6317158l-1.488 1.982.687-.4c.2374252-.1242009.5305531-.0391619.6646466.1928199.1340935.2319817.0614797.5284321-.1646466.6721801l-2.807 1.621c-.0731788.0464707-.1573759.072696-.244.076z" fill="#b7468f"/><path id="Path" d="m32 34.47c-.194134.0003157-.3709029-.1117705-.4534099-.2874996s-.0558363-.3833327.0684099-.5325004l.179-.214-.784.452c-.2102322.1207224-.4767777.0732389-.6323878-.1126561-.1556102-.1858951-.1554467-.4566369.0003878-.6423439l1.36-1.61-1.46.842c-.220521.127688-.5017903.0691082-.653-.136-.1516148-.2054858-.1240211-.4922009.064-.665l.617-.564-.091.052c-.2135054.1227461-.4845965.071745-.6388985-.1201978-.1543021-.1919428-.1458589-.4676604.0198985-.6498022l1.828-2-1.721.993c-.2154812.1230022-.4885691.0693794-.6415393-.1259712-.1529702-.1953505-.1395447-.4733291.0315393-.6530288l2.074-2.159-1.887 1.086c-.217123.1206668-.4899085.063641-.6405105-.1338986s-.1333491-.4756874.0405105-.6531014l1.281-1.274-.679.392c-.171484.098753-.3850747.0870793-.5447748-.0297744s-.2354582-.3168987-.1932252-.5102256l.313-1.427c-.1087741-.0404734-.1997819-.1180248-.257-.219-.1375532-.2386555-.0561721-.5436114.182-.682l.5-.292c.171484-.098753.3850747-.0870793.5447748.0297744s.2354582.3168987.1932252.5102256l-.26 1.187 3.027-1.748c.217123-.1206668.4899085-.063641.6405105.1338986s.1333491.4756874-.0405105.6531014l-1.284 1.275 1.611-.929c.2154812-.1230022.4885691-.0693794.6415393.1259712.1529702.1953505.1395447.4733291-.0315393.6530288l-2.073 2.159 1.469-.844c.2132183-.1213577.4829881-.0700899.6368234.1210238.1538354.1911136.146285.465608-.0178234.6479762l-1.829 2 1.211-.7c.220439-.1262233.5004889-.0670999.6510942.1374575.1506054.2045574.1238973.4895314-.0620942.6625425l-.616.565.027-.014c.2099648-.1195434.4753745-.0718475.6305808.1133195.1552063.1851671.1558037.4548277.0014192.6406805l-1.36 1.61.728-.42c.2095622-.1197327.4747426-.0726762.6303137.1118499.1555712.184526.157122.4538447.0036863.6401501l-.531.639c.1041566.0408508.1912797.1159812.247.213.1382327.2388784.0567713.5445824-.182.683l-1.637.945c-.0757011.0471386-.1628312.0727244-.252.074z" fill="#d75da6"/><path id="Path" d="m29.119 28.374c-.2152152 0-.4062846-.137715-.4743416-.3418861-.0680571-.2041711.0021694-.4289848.1743416-.5581139l3.327-2.516-4.32 2.493c-.2283835.1299972-.5184238.0610156-.6638282-.1578813-.1454044-.2188968-.0965443-.5129964.1118282-.6731187l4.086-3.1-6.5 3.753c-.2300482.1308569-.5222207.059778-.6664488-.1621318-.1442281-.2219099-.0905463-.5177734.1224488-.6748682l4.3-3.132-5.2 3c-.2299138.1328235-.5235501.0627731-.6687427-.1595365s-.0912979-.5193359.1227427-.6764635l5.082-3.731-5.963 3.443c-.2340027.1389988-.5362016.0652981-.6799386-.1658244s-.0762078-.5347601.1519386-.6831756l.454-.3-.089.051c-.2262036.1284409-.5131028.0619842-.6597948-.1528333-.1466919-.2148176-.1041677-.5062269.0977948-.6701667l5.187-4.147-6.011 3.471c-.2296891.1296297-.5205695.0585592-.6646041-.1623819s-.0916869-.5157667.1196041-.6736181l3.156-2.309-2.357 1.362c-.217123.1206668-.4899085.063641-.6405105-.1338986s-.1333491-.4756874.0405105-.6531014l3.559-3.545c-.0365515-.0339903-.0675896-.0734628-.092-.117-.1382327-.2388784-.0567713-.5445824.182-.683l1.757-1.012c.217123-.1206668.4899085-.063641.6405105.1338986s.1333491.4756874-.0405105.6531014l-2.588 2.578 7.061-4.078c.2296891-.1296297.5205695-.0585592.6646041.1623819s.0916869.5157667-.1196041.6736181l-3.157 2.31 3.72-2.148c.2266681-.1317558.5166136-.0660514.6643416.1505461.1477279.2165976.1030619.5105201-.1023416.6734539l-5.188 4.147 7.545-4.357c.2330829-.1306613.5277074-.0549657.6689423.1718661.1412349.2268319.0791592.5246238-.1409423.6761339l-.446.3.653-.377c.2299138-.1328235.5235501-.0627731.6687427.1595365s.0912979.5193359-.1227427.6764635l-5.081 3.729 5.477-3.162c.2294759-.1268358.5179525-.0548652.6609568.1648989.1430044.219764.0919582.5126682-.1169568.6711011l-4.3 3.132 5.256-3.034c.2283835-.1299972.5184238-.0610156.6638282.1578813.1454044.2188968.0965443.5129964-.1118282.6731187l-4.085 3.1 4.376-2.527c.228924-.1342308.5228351-.0662362.6695479.1548961s.0951128.5183603-.1175479.6771039l-3.33 2.519 3.715-2.144c.2187434-.1297091.5000021-.0745628.6535686.128145s.1305136.4883932-.0535686.663855l-1.788 1.72 1.063-.613c.2140804-.1213565.4846359-.0688971.637847.1236754.153211.1925726.14352.4679966-.022847.6493246l-1.568 1.683c.0516919.0396617.0948812.0893124.127.146.1382327.2388784.0567713.5445824-.182.683l-1.624.938c-.2143746.1227956-.4862971.0706141-.6399891-.1228129s-.1430745-.4701074.0249891-.6511871l.847-.909-1.72.993c-.2190652.1318893-.5023394.0772423-.6566242-.1266708s-.1298566-.4913741.0566242-.6663292l1.79-1.721-7.134 4.118c-.0758425.0430703-.1617889.0651609-.249.064z" fill="#ed75b7"/><g fill="#262626"><path id="Shape" d="m56.891 50.708-7.576-5.587c4.0145165-4.8914187 6.2713354-10.9885975 6.409-17.315-.316-12.519-8.657-23.525-21.033-26.382-9.9703913-2.23238717-20.3763284.99702847-27.331 8.482-8.65239443 9.6271205-9.37022941 24.0017659-1.72 34.443 9.0763725 11.7971175 25.8088252 14.4051723 38.045 5.93l6.343 6.321c2.21 2.2 4.975 4.29 8 1.848 3.072-2.485 1.455-5.828-1.137-7.74zm-33.736 3.469c-12.446654-2.6724888-21.36035522-13.6408625-21.431-26.371.04-16.173 14.888-29.292 31.121-25.983 12.592 2.568 21.112 13.777 21.431 26.371-.1788627 8.2450517-4.0251396 15.9808674-10.491 21.1-.1821554.0571852-.3392129.1750666-.445.334-5.7624117 4.345646-13.1155944 6.0027987-20.185 4.549zm34.945 1.879c-.378.927-4.028 2.109-4.918 1.659-.222-.112-.233-.225-.4-.335-.2650929-.2219235-.510353-.4665144-.733-.731l-2.829-2.821-4.385-4.369c1.2929677-.9981258 2.4946928-2.1091609 3.591-3.32l4.674 3.447c1.826 1.347 6.172 3.596 5 6.47z"/><path id="Shape" d="m20.828 23.773c-.1329797.7695875.1439211 1.55294.731 2.068.5295492.4425119 1.2123521.6581339 1.9.6.3168131.6580553.8903516 1.1568281 1.5860047 1.3792556.6956532.2224274 1.4521703.1489252 2.0919953-.2032556.3393184.3130615.7451374.5452022 1.187.679.387825.6749917.6789982 1.4010732.865 2.157.0055389.8176408.0760947 1.6335462.211 2.44.625 1.706 2.9 1.915 4.233.95.8009435-.6322736 1.2172021-1.6343216 1.1-2.648 3 .75 6.578-2.368 4.227-5.377.1365371-.2841191.2179748-.5915466.24-.906 1.833-1.217 2.111-3.858-.024-5.018-.2488863-1.2170853-1.2438973-2.1413685-2.476-2.3-.1401225-.882433-.6619595-1.6582893-1.4264314-2.120788-.7644718-.4624987-1.6938982-.564644-2.5405686-.279212-.6507251-.9172563-1.6685336-1.5057817-2.7881243-1.6121716-1.1195908-.1063899-2.2300315.279897-3.0418757 1.0581716-1.6034695-.3470352-3.2310741.4753159-3.903 1.972-1.2069197.235444-2.1134916 1.239396-2.225 2.464 0 .024.013.039.016.06s-.014.037-.012.058c.0064997.0648289.0165144.129257.03.193-.8457822.3637528-1.4295466 1.1554857-1.527 2.071-.0610911 1.0307673.5704851 1.9764975 1.546 2.315zm12.446 8.313c.0041517.3550813-.0978781.7033059-.293 1l-1.414.276c-.883-.214-.83-1.516-.841-2.186-.0369419-.9785277-.2871014-1.9371883-.733-2.809.7273384-.1382168 1.3941345-.4979863 1.909-1.03.4432981.1472499.9176162.1748466 1.375.08.0046667.9873333.0046667 1.9743333 0 2.961v.015c0 .435 0 .871-.007 1.306.002.126.017.264.004.387zm1.452-2.086v-3.031c.9777655.6572895 2.2580396.6497538 3.228-.019.889 2.099-.905 4.887-3.228 3.05zm-13.026-10.039c.246-.066.687-.284.612-.61-.0453775-.1578515-.0705781-.3208151-.075-.485.037-.547.359-1.472 1.047-1.4.3327068.0262983.6593608-.0998755.888-.343.0212783-.0212165.0409962-.0439423.059-.068.011-.022 0-.038.011-.058s.03-.039.035-.061c.052042-.5068664.3412339-.959073.7795215-1.2189304s.9737985-.2966109 1.4434785-.0990696c.2927978.1145001.6207213.0973752.9-.047.0452358-.0188272.0887354-.0415808.13-.068l.007-.007c.0452929-.0272521.0863883-.0609369.122-.1.5015702-.6462395 1.3160072-.966993 2.1235495-.8363275.8075424.1306656 1.4792696.6918901 1.7514505 1.4633275.1002633.1624092.2814428.2568376.472.246.0519.0045609.1041.0045609.156 0h.014c.0795592-.003915.1582466-.0183746.234-.043.047-.013.089-.03.134-.046h.014c1.432-.728 2.66.649 2.716 2.014.008.211.239.288.512.271 1.0253648.0805036 1.8491037.8778056 1.963 1.9.0043592.0432848.0238331.0836488.055.114.0446942.0775492.1184828.1340605.205.157 1.369.769 1.8 2.923.244 3.759-.271.091-.493.26-.493.472.0756667.5792592-.1535511 1.1564643-.606 1.526-.665.434-1.395-.177-1.737-.73-.226-.354-1.1-.138-1.329.24 0 .007-.014.012-.018.018-.1355597.3038489-.4090506.5239027-.7348726.5912868-.3258219.0673841-.6641636-.026135-.9091274-.2512868l-.012-.007c-.0246854-.0180117-.0515694-.0327979-.08-.044-.194904-.0908863-.4159097-.1089783-.623-.051-.2093145.0318702-.4039539.1267482-.558.272-.0435126.0364981-.0800965.0805343-.108.13-.714 1.282-2.1 1.169-2.949.04-.1186822-.123757-.2888459-.1841855-.459-.163-.0566114.0002709-.1131157.0049517-.169.014l-.07.012c-.0606827.0127701-.1202156.0304962-.178.053-.0435637.0154174-.086289.0331083-.128.053-.022.011-.043.022-.065.035-.0663437.035673-.1278442.079698-.183.131l-.008.006c-.84.782-1.842-.164-2.065-1.022-.077-.3-.506-.332-.88-.219-1.168.25-1.812-1.179-1.576-2.124.009-.035 0-.058-.006-.088.0009886-.0106438.0009886-.0213562 0-.032-.0064676-.0411791-.024501-.0796734-.052-.111-.0086239-.0090953-.0179896-.0174575-.028-.025-.0465368-.0364838-.1004481-.0624158-.158-.076-.02-.007-.026-.017-.048-.023-1.323-.355-1.948-2.622-.323-3.061z"/><path id="Shape" d="m40.676 47.5c6.3989306-3.9695843 10.4953703-10.777133 11.006-18.29.8-13.469-10.076-24.121-23.215-24.515-.327-.009-1.651.594-.934.616 10.7073021.14807741 19.9091052 7.6354336 22.231 18.089 1.8109428 8.8857895-1.7316934 18.0108919-9.064 23.347l.018-5.775c0-.832-.312-2.584.01-3.389.49-1.223 2.288-2.583 2.956-3.771 3.1198124-5.827236 2.4345058-12.9581034-1.7379988-18.0845168-4.1725046-5.1264135-11.0157181-7.24522018-17.3550012-5.3734832-4.1 1.325-13.028 7.955-10.035 12.923.66.946-1.58 3.136-2.078 3.829-.8859787.9795436-1.6176924 2.0882416-2.17 3.288-.0032657.007445-.0059406.0151354-.008.023-.007.021-.017.042-.023.064s.006.03.006.047-.012.032-.008.049.015.03.019.047v.007c.234.856 1.262.8 2.056.769.2850501.7949755.3316249 1.6559129.134 2.477-.0880902.4161902.1324003.836172.525 1 .262.122.5.134.689.36.22.62-.656 1.043-.144 1.722.1735712.1814874.3667544.3431442.576.482.2080006.1760006.4009994.3689994.577.577-.5962393.2797396-1.0635737.7760366-1.307 1.388-.3416887.9756476.0419839 2.0575877.922 2.6.015295.0075083.0309845.0141847.047.02.019.013.022.029.048.042 1.924.909 5.211-.688 6.593 1.158.383702 2.0578212.4769432 4.1592826.277 6.243-6.942228-2.3743083-12.34446588-7.9042165-14.556-14.9-3.63724748-12.1140169 3.22476569-24.88486159 15.334-28.538.829-.25.722-.739-.13-.481-11.565 3.494-19.519 14.504-17.289 26.778 1.66382434 8.6850125 8.1085179 15.6753541 16.63 18.038v.028c0 .112.208.167.276.183 2.2287655.5339916 4.5179971.7730346 6.809.711h.049c.7366667-.0226667 1.47-.078 2.2-.166h.041c.014 0 .027-.006.041-.007 3.4256242-.4394437 6.7302435-1.5532191 9.723-3.277.1358032-.0647466.2327052-.1902366.261-.338zm-25.062-6.095c-.5342582-.3338576-.8646301-.9141697-.879-1.544-.0421826-.6529967.3506081-1.2558185.965-1.481.1451061-.037055.2839393-.0953515.412-.173.0451373-.0287471.0870458-.062274.125-.1.012-.012.028-.023.039-.035.0260896-.0323886.0451599-.069848.056-.11.0084813-.0224056.0132114-.0460559.014-.07 0-.019.016-.035.01-.055s-.028-.027-.038-.044 0-.026-.012-.039c-.3993961-.4382699-.8287635-.8482574-1.285-1.227-.348-.359-.06-.586.11-.927.1265296-.2482265.1309609-.5410587.012-.793-.008-.019-.029-.027-.04-.043s0-.027-.01-.04c-.3-.437-1.248-.392-1.158-1.04.1749995-.7644459.1749995-1.5585541 0-2.323.9571731-.1432399 1.8998978.3361524 2.348 1.194.23.462 1.637-.011 1.448-.388-.9-1.8-2.673-1.554-4.385-1.549-.018 0-.034-.007-.052-.007-.514 0-1.367.22-1.545-.378.432-1.441 1.886-2.851 2.755-4.06.657-.916 2.218-2.289 1.407-3.449-3.584-5.95 9.034-12.3 12.809-12.333 4.7917216.1050769 9.2705616 2.4019935 12.152 6.232 2.7982851 3.5643954 3.9368588 8.1561816 3.128 12.615-.4307805 2.2618904-1.3667195 4.3973217-2.738 6.247-.7810586.6427284-1.4477934 1.4129221-1.972 2.278-.1123713.0811587-.2103882.1805276-.29.294-.7847631.7278861-1.6395901 1.3763755-2.552 1.936-.25.153-.169.255.077.288.3611657.011351.7176724-.0839493 1.025-.274.5350296-.3275049 1.0524148-.6829985 1.55-1.065-.044 1.133.17 2.487.167 3.4-.01 3.224.939 5.085-2.293 6.449-3.6414357 1.5872608-7.6470453 2.150501-11.585 1.629-2.169-.314-2.132-.15-2.66-1.751-.581-1.766.235-3.991-.269-5.861-.007-.025-.03-.038-.044-.058s0-.017-.006-.025c-.0836056-.116757-.1758652-.2270675-.276-.33 3.776.165 7.785.372 10.532-2.429.333-.34-1.055-.2-1.322.072-2.466 2.515-7.094 1.741-10.468 1.65-1.632-.4-3.726.412-5.262-.283z"/></g></g></svg>