<svg height="504pt" viewBox="-48 0 504 504.6425" width="504pt" xmlns="http://www.w3.org/2000/svg"><path d="m144.941406 503.628906c-1.492187-.007812-2.878906-.78125-3.667968-2.050781-.589844-.957031-.769532-2.113281-.496094-3.203125.273437-1.09375.972656-2.03125 1.945312-2.597656l30.804688-19.199219-45.652344 26.453125c-2.003906 1.179688-4.585938.535156-5.800781-1.453125-1.167969-1.96875-.609375-4.503906 1.277343-5.800781l136.789063-88.746094-166.398437 96c-1.980469.992188-4.394532.304688-5.550782-1.589844-1.15625-1.890625-.671875-4.351562 1.113282-5.664062l117.84375-74.15625-136.53125 79.019531c-2.007813 1.179687-4.589844.535156-5.804688-1.449219-.589844-.960937-.765625-2.117187-.496094-3.207031.273438-1.09375.976563-2.027344 1.949219-2.597656l107.691406-67.15625-110.933593 64c-2.007813 1.179687-4.589844.535156-5.804688-1.449219-1.203125-2.011719-.601562-4.613281 1.367188-5.890625l162.132812-102.398437-158.71875 91.5625c-1.984375.992187-4.394531.304687-5.554688-1.585938-1.15625-1.894531-.671874-4.355469 1.117188-5.667969l141.308594-88.574219-136.53125 79.015626c-2.007813 1.183593-4.589844.535156-5.804688-1.449219-1.140625-2.039063-.507812-4.613281 1.453125-5.886719l71.507813-43.863281-55.378906 31.746093c-.964844.554688-2.105469.707032-3.179688.417969-1.070312-.289062-1.984375-.992187-2.539062-1.953125-1.195313-1.984375-.589844-4.5625 1.363281-5.804687l154.539062-97.960938-126.207031 72.789063c-1.980469 1.171875-4.535156.523437-5.714844-1.453125-1.199218-1.984375-.589844-4.558594 1.363282-5.800781l76.117187-47.277344-54.785156 31.40625c-2.019531 1.152344-4.59375.46875-5.78125-1.53125-1.1875-2.003906-.550781-4.585938 1.429687-5.808594l18.089844-11.09375c-2.019531 1.152344-4.59375.472656-5.78125-1.53125-1.1875-2-.550781-4.585938 1.429688-5.808594l16.042968-9.8125c-1.761718.316406-3.535156-.5-4.4375-2.046875-.78125-1.757812-.289062-3.816406 1.195313-5.035156l48.726562-30.378906-28.671875 16.554687c-1.984375.992188-4.394531.304688-5.550781-1.585937-1.160156-1.894531-.675781-4.355469 1.113281-5.667969l82.601563-52.734375-59.050781 34.132813c-1.988282 1.121093-4.507813.484374-5.714844-1.453126-.605469-.9375-.8125-2.078124-.570313-3.167968.238281-1.089844.90625-2.035156 1.847657-2.632813l93.867187-61.183593-67.667969 39.082031c-1.984375.992187-4.394531.304687-5.550781-1.585938-1.160156-1.894531-.675781-4.355469 1.113281-5.667969l61.097656-39.507812-38.65625 21.929688c-1.980468 1.171874-4.535156.523437-5.71875-1.449219-1.226562-1.941407-.699218-4.507813 1.195313-5.804688l86.871094-58.539062-58.367188 33.707031c-2.003906 1.25-4.640625.636719-5.890625-1.363281-1.246094-2.003907-.636718-4.640625 1.367188-5.890625l40.449218-26.621094-19.03125 11.007812c-1.296874.804688-2.925781.863282-4.269531.144532-1.347656-.71875-2.210937-2.101563-2.261719-3.628906-.054687-1.523438.710938-2.960938 2.007813-3.769532l45.570313-30.804687-22.613282 13.054687c-1.929687.898438-4.222656.242188-5.382812-1.539062s-.828125-4.148438.773437-5.542969l59.222657-42.667969-30.808594 17.75c-2.070313 1.390625-4.878906.835938-6.269532-1.238281-1.390624-2.074219-.835937-4.882813 1.238282-6.269531l43.347656-34.136719-14.164062 8.535156c-1.800782 1.042969-4.089844.605469-5.378907-1.023437-1.351562-1.570313-1.351562-3.894532 0-5.460938l24.917969-29.355468c-.582031-.96875-.75-2.132813-.457031-3.226563.289062-1.09375 1.007812-2.023437 1.992187-2.578125l7.511719-4.265625c1.777344-1.058594 4.0625-.660156 5.375.9375 1.316406 1.582031 1.316406 3.882813 0 5.464844l-17.066406 19.796875 44.117187-25.601563c1.945313-1.15625 4.453125-.59375 5.71875 1.28125 1.238282 1.882813.828125 4.402344-.941406 5.800781l-43.261719 34.132813 51.199219-29.523437c1.964844-1.140626 4.480469-.539063 5.71875 1.363281 1.199219 1.929687.714844 4.457031-1.109375 5.804687l-59.308594 42.667969 55.894531-32.257813c1.953126-.933593 4.292969-.257812 5.449219 1.570313 1.15625 1.832031.757813 4.238281-.925781 5.597656l-45.570312 30.804688 41.046874-23.722657c1.308594-.792968 2.945313-.824218 4.285157-.085937 1.34375.738281 2.1875 2.136719 2.21875 3.667969s-.757813 2.964844-2.066407 3.757812l-40.363281 26.539063 35.925781-20.738281c1.980469-1.171876 4.535157-.523438 5.71875 1.453124 1.226563 1.941407.699219 4.503907-1.195312 5.800782l-86.359375 58.625 82.007813-47.359375c1.980468-.996094 4.394531-.304688 5.550781 1.585937s.671875 4.355469-1.113281 5.667969l-61.101563 39.679687 56.664063-32.683593c.957031-.589844 2.113281-.769531 3.203124-.496094 1.09375.273437 2.03125.976563 2.597657 1.945313 1.195312 1.984374.589843 4.5625-1.363281 5.804687l-93.867188 61.097656 89.34375-51.199219c1.980469-.992187 4.394531-.304687 5.550781 1.585938 1.15625 1.894531.671875 4.355469-1.113281 5.667969l-82.6875 52.734375 78.25-45.226563c2.035156-1.117187 4.585938-.441406 5.800781 1.535157 1.195313 1.984374.589844 4.5625-1.363281 5.804687l-48.898438 30.464844 44.460938-25.601563c2.027344-1.164062 4.617188-.480468 5.800781 1.535156.589844.960938.769531 2.117188.496094 3.207032-.273437 1.09375-.972656 2.027344-1.945313 2.597656l-7.59375 4.691406 3.242188-1.875c2.019531-1.152344 4.59375-.472656 5.78125 1.527344 1.1875 2.003906.550781 4.589844-1.429688 5.808594l-18.089843 10.582031 13.824219-8.019531c2.027343-1.167969 4.613281-.480469 5.800781 1.535156.589843.957031.769531 2.113281.496093 3.207031-.273437 1.089844-.976562 2.027344-1.945312 2.59375l-76.117188 47.277344 71.765626-41.472656c2.023437-1.226563 4.660156-.578125 5.886718 1.449219 1.226563 2.027343.574219 4.664062-1.449218 5.890624l-154.625 98.046876 150.1875-86.785157c2.019531-1.152343 4.59375-.472656 5.78125 1.53125 1.1875 2.003907.550781 4.585938-1.429688 5.808594l-71.511719 43.945313 67.160157-38.824219c2.03125-1.117188 4.585937-.441407 5.800781 1.535156 1.195312 1.984375.589843 4.558594-1.363281 5.800781l-141.230469 88.492188 136.535156-79.019532c2.035156-1.117187 4.585937-.441406 5.804687 1.535157 1.195313 1.984375.585938 4.5625-1.367187 5.804687l-162.132813 102.398438 157.953126-90.878906c2.003906-1.179688 4.585937-.535157 5.800781 1.449218.59375.972656.773437 2.140625.503906 3.246094-.273437 1.109375-.976563 2.058594-1.953125 2.644531l-108.117188 67.15625 103.765626-59.734375c2.003906-1.179687 4.585937-.535156 5.800781 1.453125 1.203125 2.007813.601562 4.609375-1.363281 5.886719l-117.847657 73.898438 113.410157-65.449219c.957031-.59375 2.113281-.769531 3.203124-.496094 1.09375.269531 2.03125.972656 2.597657 1.945313 1.195312 1.984374.589843 4.558593-1.363281 5.800781l-136.535157 88.75 132.4375-76.800781c2.023438-1.152344 4.59375-.472657 5.78125 1.53125 1.1875 2 .550781 4.585937-1.429687 5.804687l-30.976563 19.285156 26.285157-15.1875c2.023437-1.226562 4.660156-.574219 5.886718 1.449219 1.226563 2.027344.574219 4.664062-1.449218 5.890625l-56.578126 35.753906 52.140626-30.039062c2.003906-1.179688 4.585937-.53125 5.800781 1.453125 1.164062 1.96875.605469 4.503906-1.28125 5.800781l-78.933594 51.96875 74.753906-43.179687c2.003907-1.246094 4.640625-.636719 5.886719 1.367187 1.25 2.003906.636719 4.636719-1.363281 5.886719l-81.152344 55.636718 76.289063-44.03125c1.984374-1.125 4.503906-.484374 5.714843 1.449219.613281.929688.832031 2.0625.609375 3.152344-.226562 1.085937-.875 2.042969-1.804687 2.652344l-58.023438 40.105469 53.503907-30.976563c1.96875-1.09375 4.453124-.5 5.714843 1.367187 1.21875 1.90625.773438 4.429688-1.023437 5.800782l-54.355469 40.195312 49.664063-28.246094c1.894531-1.164062 4.371093-.640624 5.628906 1.195313 1.277344 1.839844.945312 4.355469-.765625 5.800781l-38.828125 31.914063 34.132812-19.625c1.917969-1.148438 4.398438-.582031 5.632813 1.277343 1.300781 1.855469.925781 4.402344-.851563 5.804688l-11.007812 8.535156 6.226562-3.585937c1.929688-1.195313 4.457032-.675781 5.753906 1.191406 1.296876 1.863281.90625 4.414063-.890624 5.804687l-3.410157 2.816407c1.472657-.253907 2.96875.300781 3.925781 1.453125 1.316407 1.582031 1.316407 3.878906 0 5.460937l-5.207031 6.398438c1.898438.054687 3.53125 1.359375 4.003907 3.199219.476562 1.839843-.320313 3.769531-1.957032 4.738281l-17.066406 9.300781c-1.777344 1.058594-4.0625.660156-5.375-.9375-1.304688-1.554688-1.304688-3.824219 0-5.378906l4.179688-5.203125-19.710938 11.519531c-1.902344 1.117188-4.347656.601562-5.632812-1.195312-1.265626-1.816407-.933594-4.300782.769531-5.71875l2.132812-1.875-15.1875 8.53125c-1.917969 1-4.277343.410156-5.496093-1.375-1.21875-1.785157-.914063-4.199219.714843-5.621094l10.921875-8.535156-27.050781 15.789062c-1.894531 1.164062-4.371094.636719-5.628906-1.195312-1.257813-1.863282-.890625-4.378907.851562-5.800782l38.914063-31.917968-67.671875 38.914062c-1.910157 1.195312-4.425781.621094-5.632813-1.28125-1.308594-1.886719-.851562-4.476562 1.027344-5.800781l54.355469-40.621094-82.6875 47.703125c-1.972657 1.125-4.476563.507812-5.703125-1.398438-1.226563-1.910156-.746094-4.445312 1.09375-5.769531l58.113281-40.105469-81.921875 47.273438c-1.96875 1.125-4.476562.507812-5.703125-1.398438-1.226563-1.910156-.742187-4.445312 1.097656-5.769531l80.894531-55.296875-108.203124 62.464844c-2.003907 1.179688-4.585938.535156-5.800782-1.453125-1.167968-1.96875-.605468-4.503906 1.277344-5.800781l79.277344-51.882813-102.402344 59.136719c-1.980469.992188-4.394531.304688-5.550781-1.589844-1.15625-1.890625-.671875-4.351562 1.113281-5.664062l56.492188-35.753906-74.496094 42.664062c-.648438.550781-1.457032.878906-2.304688.941406zm0 0" fill="#a9b0bb" fill-rule="evenodd"/><path d="m37.679688 452.429688c-1.929688.015624-3.632813-1.261719-4.152344-3.121094-.519532-1.855469.273437-3.832032 1.933594-4.816406l17.832031-10.835938-29.695313 17.066406c-2.035156 1.117188-4.585937.441406-5.800781-1.539062-1.195313-1.984375-.589844-4.558594 1.363281-5.800782l92.929688-57.515624-99.074219 57.257812c-2.003906 1.183594-4.585937.535156-5.800781-1.449219-1.238282-1.964843-.710938-4.558593 1.195312-5.886719l155.648438-98.304687-153.261719 88.746094c-2.03125 1.117187-4.585937.441406-5.800781-1.535157-1.179688-2.007812-.535156-4.589843 1.449218-5.804687l78.761719-48.296875-74.066406 42.667969c-2.027344 1.164062-4.617187.476562-5.804687-1.539063-.675782-.925781-.941407-2.09375-.730469-3.222656.210937-1.132812.875-2.125 1.839843-2.75l84.308594-51.199219-79.957031 45.738281c-.96875.582032-2.132813.75-3.226563.460938-1.089843-.289062-2.019531-1.011719-2.574218-1.996094-1.179688-2.007812-.535156-4.589844 1.449218-5.804687l8.535157-5.203125-4.265625 2.472656c-.964844.558594-2.105469.707031-3.179688.417969-1.070312-.285157-1.984375-.988281-2.539062-1.953125-1.195313-1.984375-.589844-4.558594 1.363281-5.800782l138.582031-86.871093-134.144531 77.566406c-1.980469.996094-4.394531.304687-5.550781-1.585937-1.15625-1.890626-.671875-4.351563 1.113281-5.664063l152.664063-96.171875-148.226563 85.332031c-1.980469.996094-4.394531.304688-5.550781-1.585937s-.671875-4.355469 1.113281-5.667969l149.589844-93.863281-145.066407 83.796875c-1.980468.992187-4.394531.300781-5.550781-1.589844s-.671875-4.351563 1.113281-5.664063l162.988282-103.167968-158.636719 91.5625c-1.324219.792968-2.972656.816406-4.324219.066406-1.347656-.753906-2.195312-2.167969-2.21875-3.714844-.023437-1.542968.78125-2.984375 2.105469-3.777344l159.746094-100.777343-155.308594 89.683593c-2.003906 1.183594-4.585937.535157-5.800781-1.449218-1.203125-2.011719-.601563-4.613282 1.363281-5.886719l161.109375-101.804687-156.671875 90.453124c-1.980469.996094-4.394531.304688-5.550781-1.585937s-.671875-4.355469 1.113281-5.667969l163.160156-103.335937-158.722656 91.730469c-2.023437 1.226562-4.660156.578124-5.886719-1.449219-1.226562-2.027344-.574218-4.664063 1.449219-5.886719l95.148437-58.796875-90.710937 52.480469c-2.03125 1.117187-4.585937.441406-5.800781-1.535156-1.195313-1.984376-.589844-4.558594 1.363281-5.800782l95.917969-59.222656-91.5625 52.820312c-2.03125 1.164063-4.617188.480469-5.804688-1.535156-1.132812-2.011718-.496094-4.558594 1.449219-5.804687l65.621094-40.191407-61.265625 35.328126c-2.03125 1.167968-4.617188.480468-5.804688-1.535157-1.132812-2.011719-.496094-4.558593 1.449219-5.800781l16.042969-9.730469-11.6875 6.742188c-2.03125 1.164062-4.617188.480469-5.804688-1.535157-1.132812-2.015624-.496094-4.5625 1.449219-5.804687l55.042969-33.707031-50.6875 29.183594c-1.980469 1.171874-4.539063.527343-5.71875-1.449219-1.195313-1.984375-.589844-4.558594 1.363281-5.800781l125.269531-79.191407-120.914062 69.804688c-2.035156 1.117187-4.589844.441406-5.804688-1.539063-1.179687-2.003906-.535156-4.585937 1.449219-5.800781l49.835937-30.890625-45.480468 26.28125c-.964844.558594-2.105469.707031-3.179688.417969-1.070312-.289063-1.984375-.988281-2.539062-1.953125-1.210938-1.960938-.644532-4.53125 1.28125-5.800782l104.53125-66.988281-100.09375 57.683594c-2.027344 1.226563-4.664063.578125-5.890625-1.449219-1.222657-2.027344-.574219-4.664062 1.453125-5.886718l87.464844-56.832032-83.027344 48.125c-1.988282 1.125-4.507813.488282-5.71875-1.449218-.671875-.953126-.925782-2.140626-.699219-3.285157s.910156-2.144531 1.894531-2.773437l93.867188-63.574219-89.34375 52.054687c-2.035156 1.117188-4.589844.441407-5.804688-1.535156-1.195312-1.984375-.589844-4.5625 1.367188-5.804687l9.554687-6.058594-5.117187 2.988281c-2.035156 1.117188-4.589844.441406-5.804688-1.535156-1.195312-1.984375-.589844-4.5625 1.367188-5.804688l6.738281-4.265624-2.300781 1.28125c-1.980469 1.171874-4.539063.523437-5.71875-1.453126-1.230469-1.941406-.699219-4.503906 1.195312-5.800781l27.304688-18.175781-9.214844 5.375c-2.011719 1.132812-4.558594.496094-5.804688-1.449219-1.277343-2.007812-.707031-4.667969 1.28125-5.976562l25.601563-17.578125c-.789063-.273438-1.472656-.777344-1.964844-1.449219-1.296875-1.746094-1.035156-4.195313.597657-5.632813l39.59375-36.351562c-.589844-1.929688.222656-4.015625 1.964843-5.035156l10.410157-5.632813c1.890624-1.09375 4.300781-.621093 5.632812 1.109375 1.265625 1.785156 1.011719 4.234375-.597656 5.71875l-22.1875 20.308594 47.019531-27.136719c1.992187-1.148437 4.53125-.550781 5.800781 1.367188 1.214844 1.960937.644532 4.53125-1.277344 5.800781l-7.425781 5.121094 21.332031-12.289063c1.980469-1.1718748 4.539063-.523437 5.71875 1.453125 1.210938 1.960938.644532 4.53125-1.28125 5.800782l-27.21875 18.175781 44.03125-25.597657c1.980469-1.1718745 4.535157-.523437 5.71875 1.449219 1.210938 1.960938.644532 4.53125-1.28125 5.800781l-6.742187 4.867188 20.054687-11.949219c1.980469-.992187 4.394532-.300781 5.550782 1.589844s.671875 4.351563-1.113282 5.664063l-9.558593 6.058593 23.210937-13.3125c1.964844-1.136719 4.480469-.539062 5.71875 1.367188 1.226563 1.941406.699219 4.503906-1.195312 5.800781l-94.207032 63.660156 122.621094-70.828125c2.007813-1.1796872 4.589844-.535156 5.804688 1.453125 1.164062 1.96875.605468 4.503906-1.28125 5.800782l-87.894532 56.917968 111.191407-64.171875c1.980469-1.1718748 4.535156-.523437 5.71875 1.453125 1.210937 1.960938.644531 4.53125-1.28125 5.800782l-104.535157 67.074218 128.941407-74.328125c1.980469-1.1718748 4.535156-.523437 5.714843 1.453125 1.195313 1.984375.589844 4.558594-1.363281 5.800782l-49.835937 30.890624 66.132812-38.144531c1.984375-.992187 4.394532-.300781 5.550782 1.589844 1.160156 1.890625.675781 4.351563-1.113282 5.664063l-125.269531 79.191406 146.601563-84.652344c2.03125-1.164062 4.617187-.480469 5.804687 1.535156 1.179687 2.007813.535156 4.589844-1.449219 5.804688l-55.128906 34.132812 58.625-34.132812c2.027344-1.167969 4.617188-.480469 5.804688 1.535156.589843.957031.769531 2.113281.496093 3.207031-.273437 1.089844-.976562 2.027344-1.949219 2.59375l-16.042968 9.730469 13.824218-8.023438c.96875-.582031 2.132813-.746093 3.226563-.457031 1.09375.289063 2.023437 1.007813 2.578125 1.996094 1.179688 2.003906.535156 4.585937-1.453125 5.800781l-65.621094 40.277344 61.269531-35.414062c.96875-.582032 2.132813-.75 3.226563-.457032 1.09375.289063 2.023437 1.007813 2.578125 1.992188 1.179688 2.007812.535156 4.589844-1.453125 5.804687l-95.828125 59.5625 91.476562-53.164062c2.007813-1.179688 4.589844-.535157 5.804688 1.453125 1.1875 2.03125.546875 4.640625-1.453125 5.886718l-95.144531 58.710938 90.792968-52.394531c1.984376-.996094 4.394532-.304688 5.554688 1.585937 1.15625 1.890625.671875 4.355469-1.117188 5.664063l-163.15625 103.253906 158.71875-91.648437c1.3125-.792969 2.945313-.824219 4.289063-.085938 1.339844.738281 2.1875 2.136719 2.21875 3.671875.03125 1.53125-.757813 2.960937-2.070313 3.753906l-161.195312 101.886719 156.757812-90.535156c1.3125-.792969 2.945313-.828125 4.289063-.089844 1.339844.738281 2.1875 2.140625 2.21875 3.671875s-.757813 2.960937-2.070313 3.753906l-159.742187 100.863281 155.304687-89.683593c1.3125-.792969 2.945313-.824219 4.289063-.085938 1.339844.738281 2.1875 2.136719 2.21875 3.667969s-.757813 2.964844-2.070313 3.757812l-163.15625 103.253907 158.71875-91.648438c1.984376-.996093 4.394532-.304687 5.554688 1.585938 1.15625 1.890625.671875 4.355469-1.117188 5.664062l-149.589843 93.78125 145.070312-83.796875c2.03125-1.117187 4.585938-.441406 5.800781 1.539063 1.195313 1.984375.589844 4.558593-1.367187 5.800781l-152.574219 96.425781 148.222656-85.332031c1.984376-.992188 4.394532-.304688 5.554688 1.585938 1.15625 1.894531.671875 4.355468-1.117188 5.667968l-138.582031 86.613282 134.402344-77.570313c.96875-.582031 2.132813-.746094 3.226563-.457031 1.09375.289062 2.023437 1.007812 2.574218 1.996094 1.179688 2.003906.535156 4.585937-1.449218 5.800781l-8.535157 5.292969 4.269531-2.476563c2.003907-1.179687 4.585938-.535156 5.800782 1.449219.59375.972656.777344 2.140625.503906 3.25-.273438 1.105468-.976562 2.054687-1.953125 2.640625l-84.308594 51.882812 79.613281-45.910156c2.023438-1.152344 4.597657-.472656 5.785157 1.53125 1.1875 2 .550781 4.585937-1.433594 5.808594l-78.164063 48.042969 73.8125-42.667969c2.007813-1.179688 4.589844-.535157 5.804688 1.449219 1.203125 2.011718.601562 4.613281-1.367188 5.890624l-155.648437 97.960938 151.210937-87.296875c2.035157-1.117187 4.589844-.441406 5.804688 1.535156.589844.960938.769531 2.117188.496094 3.207031-.273438 1.09375-.976563 2.03125-1.949219 2.597657l-92.839844 57.515625 88.488281-51.203125c2.035157-1.117188 4.589844-.441407 5.804688 1.539062 1.179688 2.003907.535156 4.585938-1.453125 5.800781l-17.832031 10.921876 13.480468-7.765626c2.023438-1.152343 4.597657-.46875 5.785157 1.53125 1.1875 2.003907.550781 4.585938-1.433594 5.808594l-68.265625 42.667969 63.914062-36.609375c2.03125-1.164062 4.617188-.480469 5.804688 1.535156 1.1875 1.960938.578125 4.507813-1.367188 5.71875l-120.402343 78.078125 115.964843-66.984375c2.003907-1.25 4.640626-.636718 5.890626 1.363282 1.246093 2.003906.636718 4.640624-1.367188 5.890624l-109.398438 72.53125 104.875-60.5c1.953126-.933593 4.296876-.257812 5.453126 1.570313 1.152343 1.832031.753906 4.238281-.929688 5.597656l-87.464844 58.195313 82.601563-47.699219c2.007812-1.179687 4.585937-.535156 5.800781 1.449219 1.167969 1.972656.609375 4.507812-1.277344 5.804687l-48.898437 32.253907 44.375-25.597657c2.007812-1.179687 4.585937-.535156 5.800781 1.449219 1.167969 1.96875.609375 4.507812-1.277344 5.804688l-34.132812 22.78125 29.78125-17.066407c1.953125-.933593 4.292968-.257812 5.449218 1.574219 1.15625 1.828125.757813 4.234375-.929687 5.59375l-23.722656 16.042969 19.371093-11.519531c1.972657-1.125 4.476563-.507813 5.703126 1.398437 1.226562 1.910156.746093 4.445313-1.09375 5.769531l-33.535157 24.320313 28.925781-17.066407c1.972657-1.09375 4.453126-.503906 5.71875 1.363282 1.292969 1.910156.796876 4.507812-1.109374 5.804687l-9.898438 7.082031 5.289062-3.070312c1.886719-1.414062 4.5625-1.035156 5.976563.851562 1.410156 1.886719 1.03125 4.558594-.855469 5.972657l-23.039062 21.933593 17.917968-10.414062c1.832032-1.015625 4.125-.585938 5.460938 1.027344 1.367188 1.59375 1.367188 3.949218 0 5.542968l-7.59375 8.535157 1.535156-.851563c1.320313-.960937 3.066406-1.085937 4.507813-.324218 1.4375.761718 2.320312 2.277343 2.269531 3.90625-.050781 1.628906-1.023438 3.085937-2.507812 3.753906l-24.40625 14.679687c-1.796876 1.109375-4.140626.707031-5.460938-.941406-1.332031-1.609375-1.332031-3.9375 0-5.546875l7.679688-8.53125-26.199219 15.019531c-1.863281 1.082031-4.242188.609375-5.546875-1.109375-1.296875-1.71875-1.113282-4.132812.429687-5.632812l23.039063-22.273438-49.664063 29.015625c-1.957031 1.1875-4.507812.578125-5.71875-1.367187-1.246093-1.917969-.753906-4.476563 1.109375-5.800782l9.898438-7.085937-24.746094 14.253906c-1.957031 1.1875-4.507812.578125-5.714844-1.367187-1.191406-1.902344-.707031-4.398438 1.109375-5.71875l33.621094-24.402344-54.613281 31.488281c-1.96875 1.136719-4.480469.539063-5.71875-1.367187-1.230469-1.941406-.699219-4.503906 1.195312-5.800782l23.808594-16.042968-40.449219 23.210937c-2.007812 1.179688-4.589843.535157-5.804687-1.453125-1.164063-1.96875-.605469-4.503906 1.28125-5.800781l34.132812-22.785156-52.050781 30.039062c-1.980469 1.171875-4.535156.523438-5.71875-1.453125-1.210937-1.960937-.644531-4.53125 1.28125-5.800781l48.894531-32.257813-68.265625 39.511719c-1.953125.933594-4.296875.257813-5.453125-1.574219-1.152344-1.828124-.753906-4.234374.929688-5.59375l87.125-58.453124-113.152344 65.621093c-1.980469 1.171875-4.535156.523438-5.714844-1.453125-1.230468-1.9375-.703125-4.503906 1.191406-5.800781l109.484376-72.535156-138.667969 79.789062c-1.980469 1.171875-4.535157.523438-5.714844-1.453125-1.214844-1.960937-.644531-4.53125 1.277344-5.800781l120.492187-78.167969-148.054687 85.421875c-1.980469.992188-4.394531.300781-5.550781-1.589843-1.15625-1.890626-.671876-4.351563 1.113281-5.664063l68.269531-42.667969-86.1875 49.921875c-.640625.394531-1.382812.601563-2.132812.597657zm0 0" fill="#e4e8eb" fill-rule="evenodd"/><path d="m28.71875 94.027344c-1.316406-.078125-2.519531-.773438-3.242188-1.875-1.28125-1.878906-.871093-4.429688.9375-5.804688l10.753907-8.53125-25.089844 14.675782c-1.910156 1.195312-4.425781.621093-5.632813-1.28125-1.246093-1.835938-.875-4.324219.855469-5.714844l43.773438-34.730469c-.992188-.230469-1.867188-.804687-2.472657-1.621094-1.277343-1.738281-1.058593-4.15625.511719-5.632812l34.132813-32.085938c-.132813-1.597656.621094-3.136719 1.960937-4.011719l5.804688-3.328124c1.863281-1.085938 4.242187-.609376 5.546875 1.109374 1.289062 1.765626 1.070312 4.210938-.511719 5.71875l-14.507813 13.652344 9.472657-5.460937c1.910156-1.195313 4.425781-.621094 5.632812 1.28125 1.289063 1.824219.914063 4.34375-.855469 5.714843l-37.289062 29.78125 32.851562-18.941406c1.945313-1.15625 4.453126-.597656 5.71875 1.277344 1.21875 1.90625.773438 4.429688-1.023437 5.804688l-10.839844 8.191406 6.0625-3.5c1.808594-1.132813 4.183594-.6875 5.460938 1.023437 1.363281 1.597657 1.363281 3.953125 0 5.546875l-15.53125 17.066406 10.238281-5.886718c1.769531-1.101563 4.085938-.695313 5.375.9375 1.355469 1.570312 1.355469 3.894531 0 5.464844l-4.09375 4.949218c.839844.355469 1.53125.988282 1.960938 1.789063.585937.96875.75 2.132812.460937 3.226562s-1.007813 2.023438-1.996094 2.578125l-13.824219 8.019532c-1.785156 1.023437-4.042968.628906-5.375-.9375-1.351562-1.570313-1.351562-3.890626 0-5.460938l.9375-1.195312-13.3125 7.679687c-1.820312 1.058594-4.144531.628906-5.464843-1.011719-1.324219-1.644531-1.25-4.003906.175781-5.558594l15.53125-17.066406-40.960938 23.550782c-.636718.40625-1.378906.613281-2.132812.597656zm0 0" fill="#5e8faa" fill-rule="evenodd"/><g fill="#262626"><path d="m407.085938 250.53125v-179.203125c-6.398438-23.722656-30.804688-19.371094-51.199219-18.773437v-31.316407c.042969-.253906.042969-.511719 0-.769531-5.375-20.3945312-18.6875-19.539062-35.839844-20.050781-31.0625-.9375-62.378906 0-93.867187 0h-106.410157c-7.441406-.558594-14.914062-.558594-22.359375 0-3.054687-.4570315-6.15625.414062-8.53125 2.390625l-.683594.679687c-22.953124 12.375-44.628906 44.203125-63.144531 63.0625l-3.585937 3.582031c-4.03125 3.675782-7.875 7.546876-11.519532 11.605469l-6.398437 6.402344c-2.050781 2.046875-1.625 3.582031 0 4.4375 0 1.109375-.769531 2.132813-1.027344 3.328125-4.949219 20.222656 0 47.53125 0 68.265625v220.671875c0 14.164062-3.496093 33.023438 0 46.933594 4.867188 19.457031 27.394531 23.808594 51.203125 23.808594-.597656 21.417968-3.839844 42.070312 21.671875 47.273437 19.714844 4.011719 44.203125 0 64.171875 0h221.867188c33.109375 0 46.164062-7.253906 46.164062-41.558594zm-324.265626-170.667969c-6.230468 7.339844-5.890624 6.144531-14.507812 6.144531h-48.296875c.261719-.488281.578125-.945312.9375-1.367187l58.710937-58.707031 7.847657-6.828125v20.222656c0 13.484375 3.757812 29.613281-5.117188 40.191406zm-68.183593 262.484375v-192.597656c0-16.210938-3.496094-37.289062 0-53.160156 0-.597656 0-1.195313.597656-1.792969h36.867187c13.054688 0 30.121094 2.984375 40.703126-6.65625 10.582031-9.644531 7.167968-25.601563 7.167968-37.71875v-42.664063c19.371094-3.074218 44.96875 1.191407 62.804688 1.191407h107.347656c17.835938 0 66.476562-10.066407 73.386719 14.335937v306.175782c-.039063.625-.039063 1.253906 0 1.878906v80.554687c0 18.515625 1.28125 28.417969-18.429688 33.28125-1.28125 0-2.730469.511719-4.011719.765625-9.386718 0-20.652343-1.789062-26.625-1.789062h-188.757812c-6.484375 0-13.824219.511718-21.417969 1.023437h-22.1875c-2.003906.058594-3.976562.523438-5.800781 1.363281-7.664062.121094-15.3125-.683593-22.785156-2.386718-32.597656-8.707032-18.859375-74.753906-18.859375-101.804688zm362.753906 153.601563c-20.738281 5.117187-49.410156 0-70.65625 0h-204.457031c-31.148438 0-35.5-13.996094-36.097656-41.132813 15.019531-.765625 29.355468-2.558594 38.65625-2.558594h166.3125c19.117187 1.535157 42.667968 3.5 59.734374-1.535156 7.511719-.855468 14.339844-4.777344 18.859376-10.839844 3.121093-3.78125 5.207031-8.308593 6.058593-13.140624 4.265625-21.164063.425781-47.273438 0-69.203126v-298.667968c15.105469-.769532 34.132813-1.535156 38.828125 15.785156v325.378906c.167969 25.855469 12.96875 88.832032-17.238281 96.339844zm0 0"/><path d="m296.238281 324.171875c4.949219 0 12.96875-7.507813 4.609375-7.507813h-238.933594c-4.949218 0-12.972656 7.507813-4.609374 7.507813zm0 0" fill-rule="evenodd"/><path d="m164.226562 358.988281h-8.53125c-3.300781-.585937-6.640624.816407-8.535156 3.582031-1.195312 2.5625 1.109375 4.609376 3.671875 4.609376h8.53125c3.300781.585937 6.640625-.816407 8.535157-3.582032 1.191406-2.5625-1.109376-4.609375-3.671876-4.609375zm0 0" fill-rule="evenodd"/><path d="m106.796875 365.472656c2.390625 0 13.824219-4.777344 8.023437-4.777344h-51.199218c-2.390625 0-13.824219 4.777344-8.023438 4.777344zm0 0" fill-rule="evenodd"/><path d="m57.132812 280.992188h25.601563c2.390625 0 6.996094-.851563 8.535156-3.242188 1.535157-2.390625-1.027343-3.242188-3.246093-3.242188h-25.597657c-2.390625 0-7 .851563-8.535156 3.242188s1.023437 3.242188 3.242187 3.242188zm0 0" fill-rule="evenodd"/><path d="m125.316406 280.566406h102.398438c3.753906 0 13.398437-5.632812 5.121094-5.632812h-102.398438c-3.757812 0-13.398438 5.632812-5.121094 5.632812zm0 0" fill-rule="evenodd"/><path d="m267.226562 277.75c-1.28125 2.390625 1.109376 2.816406 3.15625 2.816406h25.597657c2.304687 0 7-.851562 8.535156-3.15625 1.535156-2.304687-1.109375-2.816406-3.15625-2.816406h-25.601563c-2.816406.171875-7.253906 1.023438-8.53125 3.15625zm0 0" fill-rule="evenodd"/><path d="m113.625 237.730469c3.667969 3.582031 15.359375-1.28125 11.433594-5.292969l-24.234375-24.148438-18.429688-18.515624c-.941406-.855469-4.269531-4.695313-6.570312-6.488282 1.875-1.535156 4.519531-4.949218 5.972656-6.398437l17.066406-17.066407 25.597657-25.601562c5.292968-5.375-6.65625-6.65625-10.238282-3.070312l-51.199218 51.199218c-.941407.9375-1.792969 2.988282-.597657 4.183594zm0 0" fill-rule="evenodd"/><path d="m257.328125 159.480469 18.429687 18.515625c.9375.851562 4.265626 4.691406 6.570313 6.484375-1.875 1.535156-4.4375 4.949219-5.972656 6.402343-5.632813 5.714844-11.347657 11.347657-17.066407 17.066407l-25.601562 25.597656c-5.289062 5.378906 6.65625 6.570313 10.242188 3.074219l51.199218-51.199219c.9375-1.027344 1.792969-2.988281.597656-4.183594l-51.199218-51.199219c-3.671875-3.585937-15.359375 1.28125-11.4375 5.289063zm0 0" fill-rule="evenodd"/><path d="m159.621094 234.144531 51.199218-102.398437c1.363282-2.730469-10.496093-1.707032-12.289062 1.875l-51.199219 102.402344c-1.367187 2.730468 10.496094 1.707031 12.289063-1.878907zm0 0" fill-rule="evenodd"/></g></svg>