<svg height="512" viewBox="0 0 54 60" width="512" xmlns="http://www.w3.org/2000/svg"><g id="015---Smart-Energy" fill="none"><g id="Colour" transform="translate(11 11)"><path id="Path" d="m13.773 36.49c-.2152152 0-.4062846-.137715-.4743416-.3418861-.0680571-.2041711.0021694-.4289848.1743416-.5581139l6.512-4.867-9.709 5.6c-.234023.1252853-.52515789.0458598-.66313509-.1809119-.13797721-.2267718-.07469786-.5218373.14413509-.6720881l.13-.083c-.23822265.1114541-.52206483.0193022-.64938865-.2108296-.12732383-.2301319-.05459678-.5195609.16638865-.6621704l4.145-2.695-4.96 2.864c-.23610173.1433179-.54368208.0681017-.68699997-.168-.14331788-.2361017-.06810174-.5436821.16799997-.687l2.486-1.582-2.446 1.411c-.23296731.1327691-.52919188.0581284-.67142871-.1691822-.14223683-.2273105-.07984054-.5263539.14142871-.6778178l11.175-7.546-10.935 6.317c-.23448097.1270728-.52742279.0477401-.66573664-.1802909-.13831386-.2280309-.07330581-.5244809.14773664-.6737091l4.208-2.684-3.972 2.293c-.23543794.13455-.53521485.0569022-.67572813-.1750261s-.0705395-.5335888.15772813-.6799739l4.408-2.81-4.395 2.537c-.23477127.1336383-.53323995.0566316-.67405087-.1739091-.14081092-.2305408-.07304023-.5312411.15305087-.6790909l7.363-4.764-7.556 4.361c-.23330389.1209445-.52041712.0406461-.65712887-.1837824s-.07636038-.5163867.13812887-.6682176l.41-.256-.523.3c-.23551248.13196-.53324972.0531389-.67262044-.1780652-.13937073-.2312042-.07004227-.5312938.15662044-.6779348l2.581-1.625-2.752 1.587c-.23497088.1292146-.53003872.050062-.66879247-.179405-.13875376-.2294671-.07178369-.5275361.15179247-.675595l2.906-1.83-3.089 1.784c-.15290967.0925318-.34356916.0964583-.50015887.0103006-.15658972-.0861578-.25531996-.2493105-.259-.428-.00368005-.1786896.0882492-.3457688.24115887-.4383006l4.092-2.587-4.295 2.48c-.23637787.1427656-.54373437.0668778-.68649997-.1695-.1427656-.2363779-.06687788-.5437344.16949997-.6865l4.423-2.8-4.463 2.577c-.23377341.1287456-.52745054.051198-.66718798-.1761759-.13973743-.2273739-.07626999-.5244122.14418798-.6748241l9.842-6.442-10.041 5.799c-.23582559.1438702-.54362981.0693256-.68749998-.1665s-.06932559-.5436298.16649998-.6875l6.768-4.344-6.647 3.839c-.23416873.1463555-.54264454.0751687-.689-.159s-.07516873-.5426445.159-.689l11.406-7.674-11.295 6.52c-.23308287.1306613-.52770735.0549657-.66894229-.1718661-.14123493-.2268319-.07915925-.5246238.14094229-.6761339l9.394-6.264-9.05 5.224c-.23377341.1287456-.52745054.051198-.66718797-.1761759-.13973744-.2273739-.07627-.5244122.14418797-.6748241l5.649-3.683-5 2.885c-.2314518.1313128-.52520132.0583356-.66829177-.1660259-.14309045-.2243616-.08538078-.5214879.13129177-.6759741l9.2-6.453-8.173 4.719c-.23470287.1405531-.53878699.0663884-.6824238-.1664401-.14363681-.2328284-.07348967-.5378644.1574238-.6845599l1.981-1.3-.926.534c-.23093065.1317312-.52456739.0597083-.66833375-.1639283s-.0873821-.520673.12833375-.6760717l4.309-3.067-2.423 1.4c-.22634684.12679976-.51207555.05940926-.6579064-.15517041-.14583084-.21457967-.1033101-.50505233.0979064-.66882959l2.989-2.369c-.17994688-.06920104-.30407599-.23569525-.31902596-.42790909-.01494996-.19221384.08194301-.37589867.24902596-.47209091l4.472-2.582c.226507-.12916814.5142486-.06258554.6609917.15295162.1467432.21553715.103215.50765663-.0999917.67104838l-1.992 1.579 5.625-3.247c.2309306-.13173121.5245674-.05970825.6683337.16392831.1437664.22363655.0873821.52067301-.1283337.67607169l-4.313 3.064 6.6-3.812c.2347029-.14055309.538787-.06638835.6824238.16644007.1436368.23282843.0734897.5378644-.1574238.68455993l-1.969 1.3 3.222-1.86c.2314518-.1313128.5252013-.05833565.6682918.16602591.1430904.22436156.0853808.52148787-.1312918.67597409l-9.2 6.454 11.144-6.437c.2352733-.14469858.5433014-.07127327.688.16400002s.0712733.54330137-.164.68799998l-5.65 3.684 6.5-3.75c.2327769-.12708967.524286-.05032185.6642741.17493404.139988.2252559.0797468.52062324-.1372741.67306596l-9.401 6.263 10.462-6.035c.2341687-.14635543.5426445-.0751687.689.15900002.1463554.23416872.0751687.54264451-.159.68899998l-11.407 7.671 12.442-7.182c.2343611-.12889229.5286543-.05052268.6678755.17785371.1392213.22837639.0740613.52587341-.1478755.67514629l-6.764 4.342 7.13-4.116c.2333291-.12696636.5252099-.04931787.6646076.17680427.1393976.22612213.0776459.5217747-.1406076.67319573l-9.848 6.447 10.329-5.963c.2354379-.13454995.5352149-.05690217.6757281.17502611.1405133.23192829.0705395.53358878-.1577281.67997389l-4.416 2.795 4.486-2.59c.2363779-.14304175.5439582-.06737787.687.169s.0673779.54395825-.169.687l-4.09 2.585 4.145-2.393c.1529097-.09235315.3434739-.09611465.4999089-.00986757.156435.08624709.2549746.24939976.2585.42799997.0035253.1786003-.0884992.3455144-.2414089.4378676l-2.9 1.827 2.75-1.587c.2346058-.1253855.5263122-.0451285.6637604.18262.1374483.2277485.0725112.523243-.1477604.67238l-2.586 1.628 2.429-1.4c.2355125-.13196.5332497-.0531389.6726204.1780652.1393708.2312042.0700423.5312938-.1566204.6779348l-.407.254.113-.064c.2338963-.1269547.5262491-.04845.6650871.1785941.1388379.227044.0755015.5230536-.1440871.6734059l-7.363 4.765 7.041-4.065c.2348642-.1312813.531504-.0531604.6712412.1767732.1397372.2299337.0724576.5292187-.1522412.6772268l-4.416 2.811 3.929-2.269c.2348642-.1312813.531504-.0531604.6712412.1767732.1397372.2299337.0724576.5292187-.1522412.6772268l-4.191 2.675 3.572-2.06c.2329673-.1327691.5291919-.0581284.6714287.1691822.1422368.2273105.0798406.5263539-.1414287.6778178l-11.182 7.553 10.117-5.841c.152731-.0927104.3433208-.0968973.4999759-.0109836.1566551.0859138.2555759.2488758.2595.4275.003924.1786242-.0877449.3457732-.2404759.4384836l-2.487 1.583 1.4-.808c.2347034-.1364868.5354374-.0607325.6774741.1706544.1420368.2313868.073465.5338394-.1544741.6813456l-4.138 2.686 2.584-1.491c.2348642-.1312813.531504-.0531604.6712412.1767732.1397372.2299337.0724576.5292187-.1522412.6772268l-1.843 1.179c.1500994.01559.285407.0973613.369.223.1459052.2210235.0941572.5174785-.118.676l-6.511 4.866 3.715-2.145c.226507-.1291681.5142486-.0625855.6609917.1529516.1467432.2155372.103215.5076567-.0999917.6710484l-2.752 2.194 1.7-.984c.2257586-.1294404.5130594-.0640705.6605892.1503047.1475298.2143751.1059565.5060712-.0955892.6706953l-.538.435c.2090194-.0335844.4165351.0681056.5180656.2538705.1015304.1857648.0750673.4153369-.0660656.5731295l-2.061 2.309c.027273.2009269-.0695036.3984301-.245.5l-.493.285c-.2123689.1214471-.4814292.0713915-.6359136-.1183044-.1544843-.1896959-.1490205-.4633181.0129136-.6466956l.6-.677-2.501 1.452c-.2257586.1294404-.5130594.0640705-.6605892-.1503047-.1475298-.2143751-.1059565-.5060712.0955892-.6706953l.373-.3-1.955 1.128c-.226047.126152-.5110038.0589101-.6568083-.1549885-.1458046-.2138986-.1042381-.5037159.0958083-.6680115l2.756-2.2-5.245 3.027c-.0756431.0449905-.1619887.0688219-.25.069z" fill="#fcc10a"/><path id="Path" d="m9.37 40.5c-.2074013.0000112-.39327759-.1280198-.46719456-.3218021-.07391696-.1937823-.02052681-.4130798.13419456-.5511979l1.947-1.74-2.342 1.352c-.20897592.1253119-.47785108.0817348-.6365501-.1031669s-.16100103-.4572755-.0054499-.6448331l1.361-1.683-1.949 1.124c-.20536939.1190026-.46610195.0772186-.624-.1-.15751544-.1773095-.16879356-.4408833-.027-.631l.539-.723c-.21561688-.0219965-.39251108-.1804032-.43807916-.3922948-.04556807-.2118916.05056711-.4290143.23807916-.5377052l1.645-.949c.2052485-.117948.4650826-.0757972.62251912.1009864.15743651.1767835.16932419.4397458.02848088.6300136l-.393.527 2.19-1.257c.2083683-.1206883.4731622-.0757154.63.107.1570436.1832116.1608296.4524449.009.64l-1.359 1.681 4.209-2.428c.2197759-.1165123.4917776-.0537473.6382794.1472845.1465019.2010317.1229447.4791853-.0552794.6527155l-1.949 1.742 4.412-2.542c.2266506-.1274915.5131906-.0599635.6590607.1553189.1458701.2152823.1023667.5064398-.1000607.6696811l-.866.683 2.614-1.508c.2228025-.1258076.5046322-.0631099.6530847.1452897.1484525.2083995.1156192.4952461-.0760847.6647103l-1.757 1.521 3.991-2.3c.2145165-.1213913.4854956-.0683443.6384044.1249743s.1421256.4692305-.0254044.6500257l-2.3 2.439 3.377-1.949c.2180963-.1257781.4956948-.0697764.6479698.1307191.1522751.2004955.1317242.4829397-.0479698.6592809l-.894.873.288-.166c.1549945-.0985297.351531-.1041539.5119064-.0146489.1603754.0895049.2587712.2597296.2562855.4433739s-.1054527.3511436-.2681919.436275l-3.73 2.149c-.2180963.1257781-.4956948.0697764-.6479698-.1307191-.1522751-.2004955-.1317242-.4829397.0479698-.6592809l.9-.873-2.9 1.668c-.2145165.1213913-.4854956.0683443-.6384044-.1249743s-.1421256-.4692305.0254044-.6500257l2.3-2.439-5.582 3.223c-.2231941.1282474-.5072862.0660776-.6565145-.1436697s-.1148202-.4985197.0795145-.6673303l1.758-1.522-4.051 2.339c-.2268147.12995-.5154475.0632557-.6622581-.1530278-.1468106-.2162836-.1022433-.50915.1022581-.6719722l.863-.682-2.618 1.512c-.07570376.0447318-.16206851.0682231-.25.068z" fill="#ccd0da"/><path id="Path" d="m14.91 48.313c-.2129196.0002641-.4026498-.13434-.472747-.3353904-.0700971-.2010503-.0051823-.4244375.161747-.5566096l1.756-1.4-2.855 1.655c-.2203354.1244491-.4989119.0646624-.6487785-.1392378-.1498666-.2039001-.1237692-.4876223.0607785-.6607622l2.346-2.145-3.239 1.869c-.2263606.1309251-.5153721.0653166-.6630162-.1505114-.1476442-.2158279-.1040467-.5089685.1000162-.6724886l.066-.053-.134.077c-.210704.121866-.4785513.0742927-.6344017-.1126784-.1558503-.186971-.1544141-.4590066.0034017-.6443216l.972-1.143-1.024.591c-.1576639.0912064-.3524523.0894604-.5084559-.0045577-.1560035-.0940182-.24853859-.2654324-.2415441-.4474423l.045-1.24c-.21561688-.0219965-.39251108-.1804032-.43807916-.3922948-.04556807-.2118916.05056711-.4290143.23807916-.5377052l.477-.276c.1576639-.0912064.3524523-.0894604.5084559.0045577.1560035.0940182.2485386.2654324.2415441.4474423l-.045 1.121 2.743-1.582c.210704-.121866.4785513-.0742927.6344017.1126784.1558503.186971.1544141.4590066-.0034017.6443216l-.97 1.14 3.3-1.906c.2259042-.1277621.5120042-.0614438.6586593.152678.1466552.2141217.1051039.5048532-.0956593.669322l-.068.055 1.529-.882c.2203354-.1244491.4989119-.0646624.6487785.1392378.1498666.2039001.1237692.4876223-.0607785.6607622l-2.335 2.149 4.737-2.735c.2266681-.1317558.5166136-.0660514.6643416.1505461.1477279.2165976.1030619.5105201-.1023416.6734539l-1.758 1.4.819-.473c.220439-.1262233.5004889-.0670999.6510942.1374575.1506054.2045574.1238973.4895314-.0620942.6625425l-1.464 1.348c.1745362.073852.2923166.2400346.304178.4291809.0118613.1891463-.0842354.3687411-.248178.4638191l-2.8 1.617c-.220439.1262233-.5004889.0670999-.6510942-.1374575-.1506054-.2045574-.1238973-.4895314.0620942-.6625425l.8-.737-2.754 1.59c-.0762703.0440229-.1629403.0668126-.251.066z" fill="#ccd0da"/><path id="Path" d="m17.226 43.471c-.2056619-.0002363-.3902014-.1263807-.4650945-.3179215-.0748932-.1915408-.0248615-.4094034.1260945-.5490785l.971-.9-2.94 1.7c-.2069406.1201272-.4699834.0768007-.6274641-.1033514s-.1652513-.446626-.0185359-.6356486l1.5-1.93-4.627 2.665c-.2208953.136633-.509623.0813788-.6644625-.1271591-.1548394-.208538-.1242214-.5009064.0704625-.6728409l1.09-1.035-2.922 1.695c-.20922217.121191-.47518786.0753075-.6317098-.1089805s-.15874925-.4541733-.0052902-.6410195l1.373-1.675-2.021 1.165c-.20291917.1180658-.46065238.0790545-.61954067-.0937755-.15888829-.1728301-.17613566-.4329278-.04145933-.6252245l.56-.8c-.18056756-.0016083-.3475845-.0960749-.442-.25-.13755324-.2386555-.05617205-.5436114.182-.682l1.627-.94c.20286852-.1169845.45975439-.0774921.61811612.0950262s.17576846.4318386.04188388.6239738l-.475.68 2.447-1.408c.2092222-.121191.4751879-.0753075.6317098.1089805s.1587492.4541733.0052902.6410195l-1.369 1.672 4.2-2.422c.2208953-.136633.509623-.0813788.6644625.1271591.1548394.208538.1242214.5009064-.0704625.6728409l-1.094 1.026 3.171-1.826c.2068846-.1189418.4689871-.0751042.6259077.1046854.1569206.1797897.1649156.4454126.0190923.6343146l-1.5 1.93 4.629-2.669c.220439-.1262233.5004889-.0670999.6510942.1374575.1506054.2045574.1238973.4895314-.0620942.6625425l-.972.9 2.606-1.5c.2164748-.1176434.486383-.0600602.6359981.1356862.149615.1957464.134338.4713056-.0359981.6493138l-1.085 1.093 1.522-.878c.1992882-.1172668.452989-.0825865.6134939.083863.1605049.1664496.1859398.4212433.0615061.616137l-.66 1.057c.2442187-.0790846.508648.03962.6118512.2746652.1032032.2350453.0116455.5100558-.2118512.6363348l-1.614.932c-.1992882.1172668-.452989.0825865-.6134939-.083863-.1605049-.1664496-.1859398-.4212433-.0615061-.616137l.644-1.033-3.024 1.733c-.2164748.1176434-.486383.0600602-.6359981-.1356862-.149615-.1957464-.134338-.4713056.0359981-.6493138l1.085-1.094-3.26 1.879c-.0754832.0456007-.1618163.0701194-.25.071z" fill="#b9bfcc"/></g><g id="Outer_Lines" fill="#262626"><path id="Shape" d="m35.94 43.719c.677-1.932.369-3.21 1.679-5.25.8-1.239 1.945-2.222 2.74-3.475 1.5818204-2.6105733 2.3988294-5.6128562 2.358-8.665-.5442461-7.4047392-6.174721-13.4295735-13.5257381-14.4730835-7.3510172-1.0435099-14.435771 3.1763407-17.0192619 10.1370835-2.407 6.64.582 11.386 4.067 16.769 1.544 2.385 1.1 5.491 2.946 6.92-1.332.521-2.36 1.731-1.752 3.291.1847827.5163418.561601.9415161 1.052 1.187-.7631097.3864254-1.2342122 1.1789998-1.209 2.034.052 1.878 1.7 2.133 3.152 2.2 1.647 6.606 11.142 6.106 13.022.015h.267c.0708109-.0018028.1410785-.0128977.209-.033.0569807-.0011857.1137987-.0065333.17-.016 1.582-.319 3.259-1.6 2.42-3.419-.1958236-.4407447-.5421701-.7973718-.977-1.006 1.0758546-.5974779 1.499079-1.9303059.965-3.039-.3094538-.6950814-.948825-1.1870211-1.7-1.308.5424644-.5073873.9353824-1.1538342 1.136-1.869zm-22.364-11.973c-1.6122068-4.634567-.8327102-9.766222 2.083-13.713 8.5-11.364 24.635-3.91 25.609 8.685.021176 3.1579738-.9058008 6.2496385-2.661 8.875-1 1.478-2.395 2.659-3.157 4.3-1.117 2.412-.359 4.72-2.655 5.532-.351-.014-.709-.03-1.071-.047v-5.545c0-2.713-.553-4.225 2.069-5.508 1.387-.679 2.98-1.016 2.931-3.019-.061-2.533-2.531-2.706-4.439-2.706-.532 0-1.543.8-.57.8 1.378 0 3.537.66 3.561 2.294.034 2.364-2.1 1.673-3.243 2.145-1.0597912.4115814-1.7577437 1.4320936-1.757 2.569-.2184784 2.9624892-.222823 5.9368852-.013 8.9-2.137-.118-4.375-.238-6.531-.184.022-2.886.162-5.81-.008-8.682.1016429-1.1052229-.4923348-2.1577307-1.491-2.642-1.148-.657-3.625-.448-3.509-2.5.085-1.5 1.738-1.944 2.981-1.944.482 0 1.558-.724.59-.724-1.581 0-3.44-.056-4.479 1.4-1.619 2.267.39 3.731 2.309 4.32 1.54.473 1.942.789 2.151 2.3.0715009 1.0804851.0715009 2.1645149 0 3.245v5.287c-.338.024-.675.049-1 .085-.85-.375-1.361-1.143-1.87-2.7-1.346-4.079-4.427-6.805-5.83-10.823zm11.724 26.522c-1.6198099-.7242285-2.8340329-2.1308072-3.314-3.839 3.376.07 6.762.009 10.14-.012-.794 2.954-3.676 5.208-6.826 3.851zm8.791-4.675h-6.8c-.964 0-10.673.6-8.039-2.486.2398116-.2615553.5398212-.4606463.874-.58.228.015.457.026.685.035 4.291.169 8.619.007 12.915 0 1.199.599 2.695 2.446.362 3.031zm-.1-4.155h-5.628c-2.2821268-.1597831-4.5725516-.162122-6.855-.007-1.412-.043-3.808-.338-2.145-2.174.5172233-.4807765 1.1804157-.7747073 1.884-.835 2.6228284.2987155 5.2682344.3455961 7.9.14h2.868c.5112447-.0600158 1.0277553-.0600158 1.539 0 1.168.324 3.065 2.268.431 2.876z"/><path id="Path" d="m23.734 23.471h5.322l-2.74 5.479c-.341.681 1.117.6 1.368.1l3-6c.147-.294-.127-.521-.418-.521h-5.322l2.74-5.479c.341-.681-1.117-.6-1.368-.1l-3 6c-.147.294.127.521.418.521z"/><path id="Path" d="m27.724 7.806v-7c0-.277-1.448-.059-1.448.388v7c0 .277 1.448.059 1.448-.388z"/><path id="Path" d="m14.243 13.3-4.95-4.95c-.3-.3-1.658.225-1.356.527l4.95 4.949c.303.306 1.658-.226 1.356-.526z"/><path id="Path" d="m.945 27.565h7c.852 0 1.091-1.13.11-1.13h-7c-.855 0-1.091 1.13-.11 1.13z"/><path id="Path" d="m9.193 45.491 4.949-4.95c.587-.587-.83-.537-1.154-.212l-4.95 4.95c-.587.587.83.537 1.155.212z"/><path id="Path" d="m44.716 45.684c.4.405 1.78-.156 1.337-.6l-4.95-4.95c-.4-.4-1.78.157-1.336.6z"/><path id="Path" d="m53.466 26.691h-7c-.324 0-1.645.618-.932.618h7c.324 0 1.645-.618.932-.618z"/><path id="Path" d="m41.04 13.775 4.95-4.949c.638-.639-.757-.875-1.211-.421l-4.949 4.95c-.638.638.757.874 1.21.42z"/></g></g></svg>