<svg height="512" viewBox="0 0 60 60" width="512" xmlns="http://www.w3.org/2000/svg"><g id="034---System-Design" fill="none"><g fill="#295474"><path id="Path" d="m42.246 56.022c-.1915696.0017577-.3673011-.1060998-.4524658-.2777068-.0851648-.1716069-.0647878-.3767888.0524658-.5282932l1.621-2.089-2.389 1.379c-.2122255.1228453-.4822194.073656-.6374856-.1161414s-.1499782-.4641845.0124856-.6478586l2.047-2.315-2.847 1.642c-.2262036.1284409-.5131028.0619842-.6597948-.1528333-.1466919-.2148176-.1041677-.5062269.0977948-.6701667l3.414-2.727-7.635 4.407c-.1549945.0985297-.351531.1041539-.5119064.0146489-.1603754-.0895049-.2587712-.2597296-.2562855-.4433739s.1054527-.3511436.2681919-.436275l13.375-7.722c.2263606-.1309251.5153721-.0653166.6630162.1505114.1476442.2158279.1040467.5089685-.1000162.6724886l-3.526 2.817c.2118329-.0492564.4312107.0440686.5426349.2308413.1114243.1867726.0893363.4241505-.0546349.5871587l-2.042 2.316 1.951-1.126c.2070776-.118794.4692493-.0746242.6259727.1054616.1567233.1800859.1642736.4458451.0180273.6345384l-1.623 2.088 1.523-.878c.2374252-.1242009.5305531-.0391619.6646466.1928199.1340935.2319817.0614797.5284321-.1646466.6721801l-3.723 2.153c-.076971.0450822-.1648071.0682516-.254.067z"/><path id="Path" d="m53.424 46.476c-.189386 0-.3625176-.1070012-.4472136-.2763932s-.066418-.372098.0472136-.5236068l.808-1.051-2.156 1.245c-.2153349.1244465-.4894005.0717052-.6431691-.1237719-.1537685-.1954771-.1404869-.4742551.0311691-.6542281l1.136-1.187-2.467 1.424c-.2374252.1242009-.5305531.0391619-.6646466-.1928199-.1340935-.2319817-.0614797-.5284321.1646466-.6721801l5.507-3.18c.2156332-.1260678.4912237-.0736612.6455329.1227553.1543092.1964164.1399934.4765801-.0335329.6562447l-1.133 1.181 1.3-.75c.2064426-.1180853.4674942-.0744119.6242603.1044374s.1658572.4433726.0217397.6325626l-1.279 1.669c.0570288.0409716.1044593.0938617.139.155.1375532.2386555.0561721.5436114-.182.682l-1.169.675c-.0761177.0432884-.1624451.0653881-.25.064z"/><path id="Path" d="m29.765 59.465c-.2032919.0003773-.386574-.1223685-.4636241-.3104935-.07705-.188125-.0325269-.4041727.1126241-.5465065l.155-.153-1.175.679c-.2254575.1330437-.5153687.0696598-.6647344-.1453323-.1493656-.2149921-.1076129-.5087994.0957344-.6736677l.321-.264-.184.1c-.2341443.133112-.5316521.0568382-.672871-.1725078-.1412189-.2293459-.075396-.5293391.148871-.6784922l10.948-7.152-10.859 6.27c-.2348642.1312813-.531504.0531604-.6712412-.1767732-.1397372-.2299337-.0724576-.5292187.1522412-.6772268l7.142-4.564-6.973 4.025c-.2342478.1308833-.5300435.0535271-.6702262-.1752769s-.074765-.527467.1482262-.6767231l9.291-6.019-10.088 5.822c-.2347034.1364868-.5354374.0607325-.6774741-.1706544-.1420368-.2313868-.073465-.5338394.1544741-.6813456l12.482-8.152-14.506 8.375c-.2361735.1361818-.537908.0580681-.6783318-.1756081-.1404239-.2336761-.0677709-.5367718.1633318-.6813919l5.623-3.506-6.727 3.883c-.2374252.1242009-.5305531.0391619-.6646466-.1928199-.1340935-.2319817-.0614797-.5284321.1646466-.6721801l32.266-18.629c.2350866-.127347.5287583-.0472199.6665908.1818764.1378325.2290964.071048.5260868-.1515908.6741236l-5.624 3.507 4.714-2.721c.2341443-.133112.5316521-.0568382.672871.1725078.1412189.2293459.075396.5293391-.148871.6784922l-12.487 8.157 11.237-6.487c.2347713-.1336383.5332399-.0566316.6740509.1739091.1408109.2305408.0730402.5312411-.1530509.6790909l-9.284 6.011 9.007-5.2c.2354116-.1379583.5379577-.061708.6798637.1713453.1419059.2330532.070765.5368414-.1598637.6826547l-7.143 4.572 7.662-4.426c.2352733-.1446986.5433014-.0712733.688.164s.0712733.5433014-.164.688l-20.6 13.455c.0482379.1878065-.0164574.3865691-.166.51l-.663.548c.2007512.0051823.378923.1299682.4524134.3168561.0734903.1868879.0280376.3996102-.1154134.5401439l-.571.562c.1948273.0525805.3389491.217123.3654046.4171793.0264556.2000562-.0699418.3964051-.2444046.4978207l-2.587 1.501c-.0760196.0436373-.1623529.066084-.25.065z"/><path id="Path" d="m55.271 33.4c-.2256041-.0007854-.4227369-.152554-.481187-.3704563-.0584502-.2179023.0362625-.4479555.231187-.5615437l3.679-2.124c.1549945-.0985297.351531-.1041539.5119064-.0146489.1603754.0895049.2587712.2597296.2562855.4433739s-.1054527.3511436-.2681919.436275l-3.682 2.126c-.0752119.0429442-.1603923.0653601-.247.065z"/><path id="Path" d="m16.8 56.228c-.223241.000448-.4197315-.1471482-.4814898-.3616772-.0617583-.2145289.0261806-.4440064.2154898-.5623228l19.139-12.012-20.527 11.852c-.2377586.1408326-.5446674.0622586-.6855-.1755s-.0622586-.5446674.1755-.6855l4.6-2.791-4.944 2.854c-.2374824.1411088-.5443912.0629824-.6855-.1745s-.0629824-.5443912.1745-.6855l9.441-5.774-8.645 4.988c-.2363825.1285498-.5321069.0469768-.6691568-.184581-.1370499-.2315579-.0662709-.5300498.1601568-.675419l.817-.494c-.2401538.077163-.5001755-.0366409-.606429-.2654163-.1062534-.2287754-.0254597-.5008692.188429-.6345837l3.338-2.034-2.453 1.416c-.2356087.1297647-.5316571.04988-.6700067-.1807924-.1383496-.2306723-.0694166-.5294607.1560067-.6762076l11.1-6.878-11.27 6.507c-.2372063.1413849-.5441151.0637063-.6855-.1735s-.0637063-.5441151.1735-.6855l7.254-4.453-7.7 4.443c-.2369888.1350471-.5384839.055235-.6776156-.1793791-.1391316-.2346142-.0645535-.5374465.1676156-.6806209l1.4-.849-1.647.951c-.1529097.0923532-.3434739.0961147-.4999089.0098676s-.2549746-.2493998-.2585-.428c-.0035253-.1786003.0884992-.3455144.2414089-.4378676l17.308-10.882-18.019 10.4c-.2377586.1408326-.5446674.0622586-.6855-.1755s-.0622586-.5446674.1755-.6855l2.6-1.577-4.239 2.451c-.23560872.1297647-.5316571.04988-.67000668-.1807924-.13834959-.2306723-.06941665-.5294607.15600668-.6762076l19.574-12.146-22.898 13.219c-.23583577.1260453-.52910097.0442222-.66561588-.1857118-.13651492-.2299339-.06795177-.5265795.15561588-.6732882l15.455-9.448-15.683 9.055c-.23560872.1297647-.5316571.04988-.67000668-.1807924-.13834959-.2306723-.06941665-.5294607.15600668-.6762076l21.171-13.113-20.966 12.104c-.23473446.1238045-.5252986.0426548-.6619149-.1848618-.13661629-.2275167-.07168534-.5221296.1479149-.6711382l19.142-11.938-15.509 8.954c-.23628449.1306359-.5336041.0500916-.67163931-.181948s-.06692381-.5317553.16063931-.677052l6.174-3.775-6.017 3.474c-.23508655.127347-.52875831.0472199-.66659082-.1818764-.13783251-.2290964-.071048-.5260868.15159082-.6741236l14.422-8.99-14.363 8.287c-.23637787.1427656-.54373437.0668778-.68649998-.1695-.1427656-.2363779-.06687788-.5437344.16949998-.6865l16.44-10.352-16.31 9.421c-.23748244.141661-.54483896.0639824-.6865-.1735s-.06398244-.544839.1735-.6865l15.88-9.969-16.94 9.779c-.23775858.1405564-.54444351.0617586-.68499997-.176-.14055647-.2377586-.0617586-.5444435.17599997-.685l.085-.051-.974.562c-.23583577.1260453-.52910097.0442222-.66561588-.1857118-.13651492-.2299339-.06795177-.5265795.15561588-.6732882l6.244-3.8-7.355 4.242c-.23560872.1297647-.5316571.04988-.67000668-.1807924-.13834959-.2306723-.06941665-.5294607.15600668-.6762076l17.469-10.869-17.676 10.208c-.19357581.1115285-.4376484.081108-.59792604-.0745239-.16027763-.1556319-.19786209-.3987045-.09207396-.5954761l.79-1.468h-.005c-.23892998.1358451-.54271023.0533708-.68013727-.1846528-.13742703-.2380237-.05696954-.5423443.18013727-.6813472l1.537-.887c.19394495-.1118117.43857499-.0810804.59883772.0752281s.19709475.4000947.09016228.5967719l-.794 1.466 42.447-24.503c.2356087-.12976469.5316571-.04987998.6700067.18079237.1383496.23067236.0694166.52946069-.1560067.67620763l-17.476 10.872 17.916-10.338c.2363825-.12854979.5321069-.0469768.6691568.18458103.1370499.23155784.0662709.53004973-.1601568.67541897l-6.237 3.796 5.28-3.047c.2363825-.12854979.5321069-.0469768.6691568.18458103.1370499.23155784.0662709.53004973-.1601568.67541897l-.789.475c.2155023-.05553939.4420654.03565328.559.225.1407096.23398018.0677047.53757399-.164.682l-15.872 9.964 15.465-8.928c.2349709-.1292146.5300387-.050062.6687925.179405.1387537.2294671.0717837.5275361-.1517925.675595l-16.44 10.358 17.279-9.976c.2356087-.1297647.5316571-.04988.6700067.1807924.1383496.2306723.0694166.5294607-.1560067.6762076l-14.411 8.982 15.022-8.673c.2369888-.1350471.5384839-.055235.6776156.1793791.1391316.2346142.0645535.5374465-.1676156.6806209l-6.179 3.777 6.5-3.751c.2347345-.1238045.5252986-.0426548.6619149.1848618.1366163.2275167.0716853.5221296-.1479149.6711382l-19.154 11.945 23.528-13.584c.2356087-.1297647.5316571-.04988.6700067.1807924.1383496.2306723.0694166.5294607-.1560067.6762076l-21.175 13.113 22.129-12.775c.2362845-.1306359.5336041-.0500916.6716393.181948s.0669238.5317553-.1606393.677052l-15.432 9.434 15.635-9.026c.2356087-.1297647.5316571-.04988.6700067.1807924.1383496.2306723.0694166.5294607-.1560067.6762076l-19.576 12.149 16.963-9.794c.2369888-.1350471.5384839-.055235.6776156.1793791.1391316.2346142.0645535.5374465-.1676156.6806209l-2.627 1.593 1.038-.6c.2363779-.1427656.5437344-.0668779.6865.1695s.0668779.5437344-.1695.6865l-17.3 10.88 17.331-10c.2369888-.1350471.5384839-.055235.6776156.1793791.1391316.2346142.0645535.5374465-.1676156.6806209l-1.409.855 1.177-.678c.2353357-.1240261.5265799-.04207.6626998.1864836.1361199.2285535.0694507.5236725-.1516998.6715164l-7.232 4.441 6.994-4.039c.2369302-.1419372.5440628-.0649301.686.172.1419371.2369302.0649301.5440628-.172.686l-11.113 6.879 11.308-6.53c.2369888-.1350471.5384839-.055235.6776156.1793791.1391316.2346142.0645535.5374465-.1676156.6806209l-3.326 2.026 4.279-2.47c.2377586-.1405565.5444435-.0617586.685.176.1405564.2377586.0617586.5444435-.176.685l-.429.259 1.33-.767c.2362845-.1306359.5336041-.0500916.6716393.181948s.0669238.5317553-.1606393.677052l-9.427 5.766 10.488-6.054c.2377586-.1408326.5446674-.0622586.6855.1755s.0622586.5446674-.1755.6855l-4.583 2.78 4.331-2.5c.2355125-.13196.5332497-.0531389.6726204.1780652.1393708.2312042.0700423.5312938-.1566204.6779348l-40.226 25.242c-.0435222.0891298-.1133258.1627726-.2.211l-1.748 1.01c-.0743163.0436986-.1587925.067145-.245.068z"/><path id="Path" d="m41.583 5.648c-.226294-.00000996-.4243705-.15200579-.4829405-.37058883-.0585699-.21858305.0369699-.4492542.2329405-.56241117l1.539-.888c.1548746-.08931641.3456344-.08922354.500422.00024362.1547876.08946717.2500871.25471645.25.43350002-.000087.17878358-.0955474.34393997-.250422.43325636l-1.539.888c-.0761051.04353927-.1623213.06630035-.25.066z"/><path id="Path" d="m6.621 25.354c-.22214348-.0005196-.41730662-.1475418-.47909805-.360919s.02460784-.4419365.21209805-.561081l8.61-5.468-7.579 4.376c-.23470337.1364868-.53543738.0607325-.67747413-.1706544-.14203676-.2313868-.07346495-.5338394.15447413-.6813456l10.479-6.821-9.62 5.554c-.23470337.1364868-.53543738.0607325-.67747413-.1706544-.14203676-.2313868-.07346495-.5338394.15447413-.6813456l9.667-6.294-10.265 5.925c-.21464586.1241532-.48785771.0722344-.642-.122-.15446317-.1939975-.14339824-.4718974.026-.653l1.88-2.006-2.594 1.5c-.21357462.1241805-.4858285.073761-.64076969-.118666-.15494119-.1924269-.14611644-.4691694.02076969-.651334l1.25-1.369-1.4.808c-.20771892.119562-.47106244.0749112-.6277607-.1064389-.15669825-.1813502-.16267159-.4483854-.0142393-.6365611l1.236-1.557c-.04778427-.0384392-.08782802-.0856094-.118-.139-.13755324-.2386555-.05617205-.5436114.182-.682l1.169-.675c.20771892-.119562.47106244-.0749112.6277607.1064389.15669825.1813502.16267159.4483854.0142393.6365611l-.694.874 1.925-1.109c.21321829-.1213577.48298813-.0700899.63682344.1210238.15383532.1911136.14628499.465608-.01782344.6479762l-1.255 1.369 2.716-1.567c.2144477-.1242599.4875608-.0726667.6419004.1212601.1543397.1939268.1433197.4716518-.0259004.6527399l-1.881 2.008 23.53-13.585c.2342478-.13088329.5300435-.05352709.6702262.17527691.1401827.22880401.074765.52746697-.1482262.67672309l-9.667 6.294 9.639-5.565c.2347034-.13648675.5354374-.06073246.6774741.17065437.1420368.23138684.073465.53383942-.1544741.68134563l-10.479 6.821 11.956-6.9c.234481-.12707284.5274228-.04774006.6657366.18029089.1383139.22803094.0733058.52448086-.1477366.67370911l-8.607 5.463 10.032-5.792c.1549945-.09852969.351531-.10415386.5119064-.01464894s.2587712.25972968.2562855.44337398c-.0024857.18364429-.1054527.35114353-.2681919.43627496l-30.611 17.674c-.07591137.0442382-.16213954.0676923-.25.068z"/><path id="Path" d="m26.957 5.8c-.2034588-.00041525-.3863763-.12407424-.4625824-.31272282-.0762061-.18864857-.0305018-.40466122.1155824-.54627718l1.438-1.391-.348.2c-.2034689.11744382-.4612594.07739424-.6195066-.09624472-.1582471-.17363897-.1742651-.4340297-.0384934-.62575528l.6-.851c-.1623552-.08385425-.2660356-.24959742-.2704099-.43227639-.0043743-.18267896.0912543-.35319464.2494099-.44472361l1.179-.681c.2034689-.11744382.4612594-.07739424.6195066.09624472.1582471.17363897.1742651.4340297.0384934.62575528l-.286.4 1.907-1.1c.2187434-.12970911.5000021-.0745628.6535686.128145s.1305136.48839317-.0535686.663855l-1.437 1.389 1.783-1.029c.1549945-.09852969.351531-.10415386.5119064-.01464894s.2587712.25972968.2562855.44337398c-.0024857.18364429-.1054527.35114353-.2681919.43627496l-5.318 3.071c-.0754237.04573729-.1617951.07026676-.25.071z"/><path id="Path" d="m12.227 14.483c-.2152152 0-.4062846-.137715-.4743416-.3418861-.0680571-.2041711.0021694-.4289848.1743416-.5581139l2.986-2.212c-.1609582-.062924-.2780103-.2045066-.3095519-.3744245-.0315417-.1699179.0268996-.3440771.1545519-.4605755l1.342-1.229-1.026.593c-.217772.1239843-.4936884.06761168-.6453756-.13185696-.1516872-.19946865-.1322878-.48041599.0453756-.65714304l1.176-1.157-.972.562c-.2044988.11867839-.4641734.0778888-.6224375-.09777226s-.1718488-.43816847-.0325625-.62922774l1.434-1.974-1.166.673c-.1549945.09852969-.351531.10415386-.5119064.01464894s-.2587712-.25972968-.2562855-.44337398c.0024857-.18364429.1054527-.35114353.2681919-.43627496l3.2-1.849c.2044458-.11756165.4632411-.07628114.6209674.09905067.1577262.1753318.171493.43703694.0330326.62794933l-1.431 1.974 2.344-1.353c.217772-.12398428.4936884-.06761168.6453756.13185696.1516872.19946865.1322878.48041599-.0453756.65714304l-1.177 1.155 1.577-.909c.2203354-.12444915.4989119-.06466237.6487785.13923777s.1237692.48762234-.0607785.66076223l-1.346 1.231 1.868-1.079c.2292016-.13030393.5201978-.0602449.6649792.1600976.1447814.22034249.0935911.51524355-.1169792.6739024l-1.65 1.226 5.239-3.024c.2374252-.12420086.5305531-.03916186.6646466.19281988.1340935.23198173.0614797.52843213-.1646466.67218012l-12.828 7.406c-.0758978.0441549-.1621931.067282-.25.067z"/></g><path id="Path" d="m30.5 49.425c-.2204964-.0003885-.4147083-.1451693-.4780465-.3563732-.0633381-.2112039.0191519-.438965.2030465-.5606268l2.9-1.919-4.605 2.658c-.2334461.1352991-.5321345.0609722-.6749447-.1679561-.1428102-.2289282-.0782242-.5298733.1459447-.6800439l7.789-5.243-9.853 5.689c-.1523738.0932463-.3429193.098119-.4998598.0127826-.1569406-.0853364-.2564332-.2479173-.261-.4265s.086486-.3460363.2388598-.4392826l6.171-3.987-7.5 4.33c-.2355125.13196-.5332497.0531389-.6726204-.1780652-.1393708-.2312042-.0700423-.5312938.1566204-.6779348l3.512-2.216-4.355 2.513c-.233204.1287421-.5263939.0520483-.6666872-.1743946-.1402933-.226443-.0784231-.5231151.1406872-.6746054l12.772-8.448-14.347 8.283c-.2347713.1336383-.5332399.0566316-.6740509-.1739091-.1408109-.2305408-.0730402-.5312411.1530509-.6790909l12.04-7.8-13.077 7.55c-.2343611.1288923-.5286543.0505227-.6678755-.1778537-.1392213-.2283764-.0740613-.5258734.1478755-.6751463l11.432-7.322-12.29 7.1c-.2356087.1297647-.5316571.04988-.6700067-.1807924-.1383496-.2306723-.0694166-.5294607.1560067-.6762076l3.452-2.139-3.763 2.172c-.2356087.1297647-.5316571.04988-.6700067-.1807924-.1383496-.2306723-.0694166-.5294607.1560067-.6762076l7.064-4.415-7.5 4.327c-.2355125.13196-.5332497.0531389-.6726204-.1780652-.1393708-.2312042-.0700423-.5312938.1566204-.6779348l9.417-5.926-9.76 5.635c-.2356087.1297647-.5316571.04988-.6700067-.1807924-.1383496-.2306723-.0694166-.5294607.1560067-.6762076l5.309-3.3-5.491 3.17c-.2363779.1427656-.5437344.0668778-.6865-.1695-.1427656-.2363779-.0668779-.5437344.1695-.6865l11.155-7.058-11.418 6.595c-.2353357.1240261-.5265799.04207-.6626998-.1864836-.1361199-.2285535-.0694507-.5236725.1516998-.6715164l.588-.361-.515.3c-.2355125.13196-.5332497.0531389-.6726204-.1780652-.1393708-.2312042-.0700423-.5312938.1566204-.6779348l9.076-5.7-9.163 5.29c-.2347713.1336383-.5332399.0566316-.6740509-.1739091-.1408109-.2305408-.0730402-.5312411.1530509-.6790909l14.437-9.337-14.445 8.338c-.2343611.1288923-.5286543.0505227-.6678755-.1778537-.1392213-.2283764-.0740613-.5258734.1478755-.6751463l12.846-8.265-12.764 7.365c-.2338963.1269547-.5262491.04845-.6650871-.1785941-.1388379-.227044-.0755015-.5230536.1440871-.6734059l12.812-8.3-12.467 7.2c-.2349709.1292146-.5300387.050062-.6687925-.179405-.1387537-.2294671-.0717837-.5275361.1517925-.675595l6.84-4.322-6.4 3.7c-.2355494.1444224-.5435775.0705494-.688-.165-.1444224-.2355495-.0705494-.5435775.165-.688l10.124-6.563-9.424 5.44c-.2346058.1253855-.5263122.0451285-.6637604-.18262-.1374483-.2277485-.0725112-.523243.1477604-.67238l3.63-2.302-2.922 1.69c-.233204.1287421-.5263939.0520483-.6666872-.1743946-.1402933-.226443-.0784231-.5231151.1406872-.6746054l8.659-5.726-7.519 4.34c-.2330829.1306613-.5277074.0549657-.6689423-.1718661-.1412349-.2268319-.0791592-.5246238.1409423-.6761339l6.755-4.525-5.237 3.018c-.2304519.1256553-.5188365.0517188-.6604036-.1693153-.1415671-.2210342-.088116-.5139083.1224036-.6706847l5.877-4.154-3.541 2.044c-.228242.1318458-.5196375.063862-.6659708-.1553737-.1463332-.2192358-.0973404-.5144185.1119708-.6746263l3.5-2.673c-.1759505-.0727709-.2952977-.2391596-.3078224-.4291525s.0839474-.3706088.2488224-.4658475l5.058-2.921c.228242-.1318458.5196375-.063862.6659708.1553737.1463332.2192358.0973404.5144185-.1119708.6746263l-2.3 1.756 6.294-3.634c.2310609-.1298083.523268-.0567757.6660866.1664779.1428185.2232536.086628.5191613-.1280866.6745221l-5.877 4.153 8.791-5.075c.2334461-.1352991.5321345-.0609722.6749447.1679561.1428102.2289282.0782242.5298733-.1459447.6800439l-6.754 4.527 8.778-5.068c.233204-.1287421.5263939-.0520483.6666872.1743946.1402933.226443.0784231.5231151-.1406872.6746054l-8.665 5.732 10.341-5.97c.2349709-.1292146.5300387-.050062.6687925.179405.1387537.2294671.0717837.5275361-.1517925.675595l-3.636 2.3 4.515-2.605c.2342478-.1308833.5300435-.0535271.6702262.1752769s.074765.527467-.1482262.6767231l-10.124 6.557 11.381-6.57c.2349709-.1292146.5300387-.050062.6687925.179405.1387537.2294671.0717837.5275361-.1517925.675595l-6.831 4.315 7.566-4.368c.2355494-.1441463.5433537-.0700494.6875.1655s.0700494.5433537-.1655.6875l-12.816 8.3 13.9-8.023c.2354116-.1379583.5379577-.061708.6798637.1713453.1419059.2330532.070765.5368414-.1598637.6826547l-12.845 8.266 13.62-7.863c.2355494-.1441463.5433537-.0700494.6875.1655s.0700494.5433537-.1655.6875l-14.436 9.339 15.235-8.8c.2350866-.127347.5287583-.0472199.6665908.1818764.1378325.2290964.071048.5260868-.1515908.6741236l-9.07 5.7 9.366-5.407c.2357179-.1278172.530297-.0469384.667702.1833224.137405.2302607.0687118.5279174-.155702.6746776l-.616.379.7-.4c.2354379-.13455.5352149-.0569022.6757281.1750261.1405133.2319283.0705395.5335888-.1577281.6799739l-11.154 7.059 11.368-6.57c.2356087-.1297647.5316571-.04988.6700067.1807924.1383496.2306723.0694166.5294607-.1560067.6762076l-5.3 3.287 5.3-3.059c.2349709-.1292146.5300387-.050062.6687925.179405.1387537.2294671.0717837.5275361-.1517925.675595l-9.433 5.936 9.468-5.466c.2347345-.1238045.5252986-.0426548.6619149.1848618.1366163.2275167.0716853.5221296-.1479149.6711382l-7.059 4.412 6.9-3.982c.2356087-.1297647.5316571-.04988.6700067.1807924.1383496.2306723.0694166.5294607-.1560067.6762076l-3.433 2.128 3.23-1.864c.2348642-.1312813.531504-.0531604.6712412.1767732.1397372.2299337.0724576.5292187-.1522412.6772268l-11.445 7.329 11.159-6.442c.2355494-.1441463.5433537-.0700494.6875.1655s.0700494.5433537-.1655.6875l-12.03 7.792 11.675-6.742c.2329061-.1254293.5232086-.0477402.6623373.1772508s.0789338.5194187-.1373373.6717492l-12.78 8.454 12.077-6.971c.2349709-.1292146.5300387-.050062.6687925.179405.1387537.2294671.0717837.5275361-.1517925.675595l-3.5 2.211 2.822-1.629c.2355494-.1441463.5433537-.0700494.6875.1655s.0700494.5433537-.1655.6875l-6.169 3.987 5.132-2.963c.2334461-.1352991.5321345-.0609722.6749447.1679561.1428102.2289282.0782242.5298733-.1459447.6800439l-7.8 5.248 6.337-3.658c.2329061-.1254293.5232086-.0477402.6623373.1772508s.0789338.5194187-.1373373.6717492l-2.9 1.918 1.363-.782c.2280542-.1290416.517047-.0601323.6623353.1579314.1452882.2180638.0975826.5113034-.1093353.6720686l-4.576 3.484.917-.529c.1549945-.0985297.351531-.1041539.5119064-.0146489.1603754.0895049.2587712.2597296.2562855.4433739s-.1054527.3511436-.2681919.436275l-7.726 4.461c-.227871.1265147-.5147039.056766-.6590373-.1602571s-.0977476-.5085154.1070373-.6697429l4.581-3.487-8.842 5.1c-.0770782.046145-.1651651.0706711-.255.071z" fill="#346d94"/><path id="Path" d="m29.315 49.405c-.2152152 0-.4062846-.137715-.4743416-.3418861-.0680571-.2041711.0021694-.4289848.1743416-.5581139l6.424-4.732-9.035 5.216c-.230817.1267753-.5204005.0527915-.6621232-.1691615-.1417226-.221953-.0869993-.5157856.1251232-.6718385l7.4-5.181-9.238 5.333c-.2334461.1352991-.5321345.0609722-.6749447-.1679561-.1428102-.2289282-.0782242-.5298733.1459447-.6800439l7.1-4.77-8.4 4.847c-.23265.1288599-.5254615.0530472-.6663444-.1725252s-.0805297-.5219566.1373444-.6744748l8.4-5.656-9.69 5.594c-.2335451.1328438-.5303244.0573638-.6720248-.1709163s-.0776546-.5277351.1450248-.6780837l7.457-4.939-8.292 4.787c-.233204.1287421-.5263939.0520483-.6666872-.1743946-.1402933-.226443-.0784231-.5231151.1406872-.6746054l6.051-4-6.773 3.911c-.2358256.1438702-.5436298.0693256-.6875-.1665-.1438701-.2358256-.0693256-.5436298.1665-.6875l1.351-.867-1.621.94c-.2334572.1253051-.5241289.0467367-.6626677-.1791186-.1385388-.2258554-.0768365-.5205686.1406677-.6718814l1.841-1.2-2.1 1.212c-.23265.1288599-.5254615.0530472-.6663444-.1725252s-.0805297-.5219566.1373444-.6744748l3.83-2.589-4.22 2.438c-.2303174.1272935-.5198822.0542782-.6623044-.1670037s-.0889497-.5150841.1223044-.6719963l4.879-3.469-4.339 2.5c-.2281943.1273484-.5159664.0574929-.6603781-.1603041-.1444117-.2177969-.0967481-.5100652.1093781-.6706959l3.9-2.955-3.352 1.934c-.2263468.1267998-.5120755.0594093-.6579064-.1551704-.1458308-.2145797-.1033101-.5050523.0979064-.6688296l2.153-1.705-1.593.919c-.2240205.1297641-.5100442.0670649-.6592395-.1445117s-.1122125-.502047.0852395-.6694883l.93-.793-.346.2c-.2130757.122757-.4837819.0723545-.6383991-.1188629-.1546171-.1912173-.1472392-.4664769.0173991-.6491371l.838-.929c-.1809121-.0674302-.3068361-.2329938-.3235064-.4253428-.0166702-.192349.0788925-.377108.2455064-.4746572l1.933-1.116c.2127921-.1213918.482198-.0707276.6363549.1196723.1541568.1903998.1476562.4644512-.0153549.6473277l-.448.5 2.328-1.34c.2237424-.1292278.5090949-.0666972.6582921.1442547.1491972.2109518.1130922.5008356-.0832921.6687453l-.93.793 2.783-1.606c.226507-.1291681.5142486-.0625855.6609917.1529516.1467432.2155372.103215.5076567-.0999917.6710484l-2.155 1.706 4.384-2.53c.2283835-.1299972.5184238-.0610156.6638282.1578813.1454044.2188968.0965443.5129964-.1118282.6731187l-3.9 2.952 6.556-3.783c.2309306-.1317312.5245674-.0597083.6683337.1639283.1437664.2236366.0873821.520673-.1283337.6760717l-4.879 3.468 7.463-4.308c.2319734-.1243603.5206385-.047588.6601846.1755802.139546.2231682.0821857.5163086-.1311846.6704198l-3.839 2.587 5.954-3.433c.2334572-.1253051.5241289-.0467367.6626677.1791186.1385388.2258554.0768365.5205686-.1406677.6718814l-1.841 1.2 3.551-2.051c.2347713-.1336383.5332399-.0566316.6740509.1739091.1408109.2305408.0730402.5312411-.1530509.6790909l-1.341.862 2.971-1.715c.2329061-.1254293.5232086-.0477402.6623373.1772508s.0789338.5194187-.1373373.6717492l-6.057 4 8-4.618c.234721-.145527.542973-.073221.6885.1615s.073221.542973-.1615.6885l-7.451 4.934 8.164-4.715c.2334461-.1352991.5321345-.0609722.6749447.1679561.1428102.2289282.0782242.5298733-.1459447.6800439l-8.409 5.66 8.448-4.877c.2334461-.1352991.5321345-.0609722.6749447.1679561.1428102.2289282.0782242.5298733-.1459447.6800439l-7.093 4.771 6.574-3.8c.2314518-.1313128.5252013-.0583356.6682918.1660259.1430904.2243616.0853808.5214879-.1312918.6759741l-7.4 5.18 6.867-3.964c.2293391-.1285228.5190351-.0574922.6629121.1625395s.0927858.5139004-.1169121.6724605l-6.427 4.737 5.882-3.395c.2286618-.1265879.5162385-.0557088.6598832.1626417.1436447.2183504.0948861.5104922-.1118832.6703583l-3.486 2.6 2.94-1.7c.2269806-.1326577.5179234-.0668764.6657567.1505254.1478333.2174019.1020535.5121545-.1047567.6744746l-1.555 1.23c.2040338.0406349.3615866.2033632.395608.4086034s-.0625984.4101012-.242608.5143966l-4.915 2.838c-.2269806.1326577-.5179234.0668764-.6657567-.1505254-.1478333-.2174019-.1020535-.5121545.1047567-.6744746l.887-.7-4.39 2.534c-.2288588.1292299-.518701.0592157-.6633326-.1602346-.1446317-.2194502-.0946742-.513414.1143326-.6727654l3.486-2.6-6.282 3.626c-.0756431.0449905-.1619887.0688219-.25.069z" fill="#f2f4f7"/><path id="Path" d="m26.8 38.651c-.2122369.0000468-.4013779-.1339006-.471791-.3341167-.0704131-.2002162-.0067538-.4230698.158791-.5558833l.162-.129-.546.314c-.2298363.1330914-.5236213.0632681-.669-.159-.1452737-.2227354-.0907873-.5202137.124-.677l2.511-1.839-2.984 1.722c-.232368.1256461-.5223842.0488566-.6621282-.1753162-.1397441-.2241727-.0809951-.5183743.1341282-.6716838l1.743-1.166-2.078 1.2c-.2324067.1328499-.5282158.0590851-.6710333-.1673329s-.0819688-.5251514.1380333-.6776671l4.311-2.97-4.857 2.8c-.1518379.0941395-.3423647.1001234-.4998108.0156977s-.2578918-.2464348-.2635-.425.0844729-.3465582.2363108-.4406977l1.363-.9-1.675.967c-.2295527.1314921-.521805.0614183-.6667704-.1598726-.1449654-.2212908-.0924688-.5172061.1197704-.6751274l7.143-5.272-7.715 4.454c-.2310609.1298083-.523268.0567757-.6660866-.1664779-.1428185-.2232536-.086628-.5191613.1280866-.6745221l5.167-3.637-3.353 1.936c-.2302873.1343427-.5254749.0643663-.6709518-.1590541-.1454768-.2234204-.0900639-.5216852.1259518-.6779459l4.608-3.359c-.17422.014014-.3436568-.0612913-.45-.2-.1509053-.2046202-.124227-.4899065.062-.663l4.924-4.579c-.0519208-.2143601.0427476-.4374201.233-.549l.99-.571c.2206356-.1300292.503851-.072325.6560244.1336626s.1241014.4936554-.0650244.6663374l-2.828 2.63 3.771-2.177c.2302873-.1343427.5254749-.0643663.6709518.1590541.1454768.2234204.0900639.5216852-.1259518.6779459l-4.262 3.103 4.861-2.806c.2317427-.1353654.5290201-.0636298.6735243.1625272.1445041.2261571.084687.5260601-.1355243.6794728l-5.169 3.636 5.77-3.333c.2293391-.1285228.5190351-.0574922.6629121.1625395s.0927858.5139004-.1169121.6724605l-7.141 5.274 8.057-4.651c.2339822-.1349653.5328576-.059693.675.17.1423818.2294437.0768609.5304856-.148.68l-1.36.9 1.638-.945c.23171-.1276221.5227312-.0526794.6639792.1709853s.08384.5186462-.1309792.6730147l-4.308 2.968 4.06-2.344c.2334461-.1352991.5321345-.0609722.6749447.1679561.1428102.2289282.0782242.5298733-.1459447.6800439l-3.3 2.212c.194439.0383342.3478854.1878911.391198.3812821.0433127.1933909-.0316842.3941109-.191198.5117179l-3.79 2.776c.1723309.0592828.2987582.207633.3299663.3871837s-.0377463.3618607-.1799663.4758163l-2.692 2.153.006.01c.1380647.2391402.0561341.5449248-.183.683l-2.517 1.454c-.077302.0451639-.1654813.0683326-.255.067z" fill="#ffc306"/><path id="Path" d="m39.131 27.074c-.1981866.0002516-.3778157-.1165775-.4579451-.2978433-.0801294-.1812657-.0456329-.3927501.0879451-.5391567l.622-.682-.926.534c-.2203354.1244491-.4989119.0646624-.6487785-.1392378-.1498666-.2039001-.1237692-.4876223.0607785-.6607622l.2-.186-.384.221c-.2205392.1280792-.5021318.0696485-.6535046-.1356028-.1513729-.2052513-.124009-.4915375.0635046-.6643972l.405-.377-.632.365c-.216466.1248481-.4918692.0707117-.6449718-.1267831s-.1368886-.4776996.0379718-.6562169l.913-.933-1.285.742c-.210704.121866-.4785513.0742927-.6344017-.1126784-.1558503-.186971-.1544141-.4590066.0034017-.6443216l1.349-1.588-1.947 1.124c-.2127921.1213918-.482198.0707276-.6363549-.1196723-.1541568-.1903998-.1476562-.4644512.0153549-.6473277l1.213-1.35-1.718.991c-.2008692.1150467-.4544449.0771733-.6129316-.091546-.1584866-.1687192-.1804415-.4241659-.0530684-.617454l1.3-1.956-.105.061c-.1549945.0985297-.351531.1041539-.5119064.0146489-.1603754-.0895049-.2587712-.2597296-.2562855-.4433739s.1054527-.3511436.2681919-.436275l1.951-1.122c.2008692-.1150467.4544449-.0771733.6129316.091546.1584866.1687192.1804415.4241659.0530684.617454l-1.3 1.956 2.6-1.5c.2127921-.1213918.482198-.0707276.6363549.1196723.1541568.1903998.1476562.4644512-.0153549.6473277l-1.201 1.341 1.714-.989c.210704-.121866.4785513-.0742927.6344017.1126784.1558503.186971.1544141.4590066-.0034017.6443216l-1.349 1.588 1.942-1.122c.216466-.1248481.4918692-.0707117.6449718.1267831s.1368886.4776996-.0379718.6562169l-.915.935 1.285-.741c.2205392-.1280792.5021318-.0696485.6535046.1356028.1513729.2052513.124009.4915375-.0635046.6643972l-.4.374.509-.293c.2203354-.1244491.4989119-.0646624.6487785.1392378.1498666.2039001.1237692.4876223-.0607785.6607622l-.284.259c.2133283-.0473587.4326986.049303.5417071.238694.1090086.1893909.0823998.4276319-.0657071.588306l-1.868 2.049c.0985084.2323332.0084484.5016556-.21.628l-.835.483c-.0761974.0429854-.1625314.0647416-.25.063z" fill="#db2936"/><path id="Path" d="m19.46 40.253c-.2110877.0000797-.3994859-.1324134-.4707948-.3310917s-.010165-.4207362.1527948-.5549083l.694-.572-.5.287c-.2201191.1211079-.4959248.0600693-.6443868-.1426092s-.1234717-.48405.0583868-.6573908l1.25-1.137-.271.156c-.2106402.1205642-.4774423.072448-.6326961-.114103-.1552538-.1865509-.1541169-.4576547.0026961-.642897l1.263-1.485-.155.088c-.2051915.116829-.4641424.0741897-.6210418-.1022618-.1568994-.1764514-.1689739-.4386115-.0289582-.6287382l.59-.791c-.0632372-.0212921-.1214361-.0553266-.171-.1-.1609205-.1397906-.215523-.3662301-.136-.564l.387-.956c-.009-.013-.018-.027-.026-.041-.1380647-.2391402-.0561341-.5449248.183-.683l.328-.189c.1847703-.1068855.4170191-.0846842.5781933.0552709.1611742.1399552.2157251.3667957.1358067.5647291l-.113.276.187-.107c.2051915-.116829.4641424-.0741897.6210418.1022618.1568994.1764514.1689739.4386115.0289582.6287382l-.337.452.552-.318c.210704-.121866.4785513-.0742927.6344017.1126784.1558503.186971.1544141.4590066-.0034017.6443216l-1.263 1.484 1.823-1.051c.2201191-.1211079.4959248-.0600693.6443868.1426092s.1234717.48405-.0583868.6573908l-1.252 1.135 1.65-.952c.2248836-.1275609.509928-.0626394.65739.1497267.1474621.2123662.1087026.5021295-.08939.6682733l-.7.573.963-.555c.1869906-.1077568.4220181-.083375.5829074.0604709.1608892.1438459.2113264.374689.1250926.5725291l-.624 1.431 1.256-.724c.2374252-.1242009.5305531-.0391619.6646466.1928199.1340935.2319817.0614797.5284321-.1646466.6721801l-2.571 1.484c-.1867957.1073125-.4213248.0829172-.5820357-.0605422-.1607109-.1434595-.2114678-.3737263-.1259643-.5714578l.624-1.432-4.854 2.8c-.073083.0446584-.1564125.069795-.242.073z" fill="#82624b"/><path id="Shape" d="m3.637 27.116c-.947.4-2.355.272-3.091 1.148-.971 1.154-.377 3.4.647 4.207.7.55 2.048.242 2.819.705 2.037 1.224 3.1 4.981 1.894 7.067-.828 1.429-2.4 1.562-2.362 3.321.09506801 1.5624601 1.42188647 2.7621955 2.986 2.7.687.03 1.406-.5 2.087-.586 2.074-.265 2.832.208 4.292 2.058 2.3 2.919.727 2.26.551 5.1-.053.843-.277.974.219 1.809 1.962 3.3 4.532.681 6.138-.583 1.691-1.331 3.135-1.3 5.244.2 1.749 1.248.969 1.739 1.858 3.512.828 1.649 1.85 1.958 3.976 1.483.6106736-.0549124 1.1942245-.2778109 1.686-.644 1.934-1.946.168-4.3 3.7-5.235 3.748-1 3.1 2.061 5.879 2.724 1.056.252 3.529-.975 3.994-1.64 1.178-1.684-.38-2.588-.32-4.474.059-1.83 2.471-4.356 4.1-4.505.938-.086 1.972.812 2.927.814.8500458.0674544 1.6880023-.2342099 2.3-.828 2.477-2.091.977-3.219-.358-4.871-1.313-1.626-1.935-5.451-.061-7.3.715-.707 2.626-.382 3.524-.881 1.789-.994 1.481-1.626 1.429-3.892-.679-1.7-2.728-.939-4.059-1.78-1.537-.971-2.651-5.114-1.8-6.727.444-.844 2.03-1.37 2.35-2.268.4802435-1.5387948-.1809426-3.2038499-1.586-3.994-1.095-.486-2.665.631-3.671.7-1.918.128-3.6-1.295-4.524-3.3s.42-2.454.237-4.336c-.1291484-1.11657718-.8257456-2.08729757-1.8421993-2.56713697-1.0164537-.47983939-2.2086331-.4007577-3.1528007.20913697-.569.332-.956 1.086-1.463 1.483-.027.021-.93 1.143-1.16 1.2-.962.243-4.882-1.556-5.22-2.023-1.004-1.395-.091-3.462-1.83-4.336-1.3586742-.37106301-2.8041757-.25720502-4.088.322-1.034.69-.762 1.649-1.273 2.716-.762 1.593.151 1.719-2.148 2.6-2.128.817-3.015.459-4.618-.789-1.67-1.3-4.328-3.129-6.157.046-1.078 1.871.838 3.745-.085 5.784-.9 1.993-2.186 3.014-3.992 2.923-.943-.048-1.819-.758-2.786-.674-1.11925731.0361048-2.13451497.6657452-2.66429938 1.6523399-.52978441.9865946-.4938507 2.1807068.09429938 3.1336601 1.471 2.212 2.592 1.036 2.065 4.671-.338 2.329-.755 3.137-2.685 3.945zm4.337-6.835c-.249-.6-1.29-1.2-1.749-1.689-.978-1.037-2.133-3.36.126-4.245.911-.357 2.7 1.054 3.784 1.008 1.772-.074 2.409-1.2 3.57-2.366 2.06-2.06 2.019-2.016 1.554-4.623-.248-1.385-.788-1.458.126-2.678 1.332-1.78 1.937-.587 3.1.436 2.172 1.918 5.234 2.894 8.113.22 1.394-1.294.716-2.628 1.764-4.051.3018567-.54800366.8541454-.91228138 1.4767318-.97402053.6225863-.06173915 1.2356626.18697446 1.6392682.66502053.6.6.4 2.451.793 3.172 1.28 2.344 5.646 3.384 8.06 1.864.791-.5 1.449-2.2 2.319-2.4 2.276-.527 2.569 2.19 2.233 3.618-.719 3.048-.7 3.327 1.925 5.6 1.475 1.276 1.674 1.5 3.427 1.27 1.907-.253 2.843-1.537 4.151.588 1.046 1.7.157 2.317-.921 3.531-.631.711-1.388 1.031-1.586 1.966-.0160415 1.7386711.3470511 3.4599486 1.064 5.044 1.21 1.712 4.545.765 5.3 2.669.1 4.209-1.366 2.513-3.993 4.064-1.6.943-2.078 3.044-2.247 4.846-.229 2.45.818 1.978 2.109 3.921.685 1.033 1.447 2.365-.092 3.407-1.179.8-2.142-.321-3.6-.411-2.448-.152-5.881 2.637-6.22 4.979-.239 1.658 2.7 4.37-.257 5.388-1.932.666-2.4-1.929-3.875-2.663-1.653-.819-4.778.429-5.975.978-.72671.2440249-1.3416718.7408204-1.733 1.4-.716 1.2-.738 6.726-3.873 3.058-1.142-1.336-.158-3.3-1.811-4.466-1.8359306-1.0036335-3.9627006-1.3407225-6.019-.954-1.022.322-1.293 1.049-2.153 1.726-1.131.889-1.731 1.677-3.048.135-.981-1.149-.568-1.6-.213-3.008.705-2.8.029-3.774-2.563-5.72-.6851734-.6516327-1.635636-.9453918-2.569-.794-.89.059-2.02.975-2.874.822-2.047-.367-2.464-2.661-1.386-4.185.9-1.277 2.242-1.523 2.393-3.22.19940214-2.3033373-.99915735-4.5023375-3.043-5.583-1.152-.477-2.777-.209-3.452-1.532-.8-1.563.5-2.922 1.537-3.444 1.191-.6 2.4-.251 3.327-1.268 1.024-1.121 1.98-4.617 1.361-6.101z" fill="#262626"/><path id="Shape" d="m14.276 41.834c0 .071.077.111.186.131 3.7635165 4.6037927 9.3364769 7.3519771 15.28 7.535.0258307-.0019183.0515362-.0052567.077-.01.038 0 .065.012.108.011 10.639-.376 19.783-8.571 19.805-19.563-.1152133-10.737093-8.8283821-19.3932606-19.566-19.438-10.166 0-19.122 7.984-19.85 18.209-.35595202 4.6838655 1.0562308 9.3310815 3.958 13.025 0 .033.002.066.002.1zm1.448-.5v-5.634c0-1.311.1-2.652 1.522-3.213.8363908-.2239517 1.7089099-.2796951 2.567-.164-1.288 2.856-2.43 7.337-.371 7.974 1.634.506 4.621-.836 6.15-1.175.5596472-.1162809 1.1106184-.2709805 1.649-.463.5.182 1.348-.2 1.218-.6.2848807-.1831353.5568534-.3856113.814-.606 1.869-1.6 3.634-3.356 5.366-5.153 3.016-.13 7.376-.664 7.637 3.1.186 2.692.025 5.451.006 8.158-3.3307833 3.0261559-7.6256926 4.7748709-12.123 4.936-5.6210566-.1863016-10.8858895-2.798111-14.435-7.161zm23.762-15.308-6.338-6.338c-.0355055-.0572383-.0837617-.1054945-.141-.141.0042628-.0070198.0079418-.0143779.011-.022.152-.446 1.077-1.078 1.4-1.4.939-.939 1.759-.61 2.608.239l2.8 2.8c1.02 1.021 2.1 2.066.926 3.568-.3874157.4638632-.8107215.8965312-1.266 1.294zm-7.407-5.51 2.8 2.8-8.411 8.411c-.636.637.761.859 1.208.411l8.013-8.012 2.8 2.8-8.8 8.794c-.5637955.6056876-1.1649723 1.1754696-1.8 1.706l-6.227-6.226c.5859492-.8638016 1.2799056-1.6491653 2.065-2.337zm-5.43 17.63c-.112.048-.221.1-.342.139-1.239601.350709-2.4983459.6298365-3.77.836-1.334.3-2.289 1.053-2.765-.551-.354-1.2.8-4.522 1.3-6zm-14.736-5.656c-1.522-10.8 6.953-20.916 17.921-20.944 9.6653672.1077656 17.6373615 7.6008231 18.343 17.241.3656297 4.8485656-1.2398132 9.639657-4.453 13.289v-3.323c0-1.49.3-3.388-.148-4.834-.937-3.007-5.5-2.425-8.309-2.273 1.567-1.638 3.114-3.293 4.694-4.871.0363165-.0295716.0593493-.0723981.064-.119 1.006-.978 2.87-2.268 2.687-3.826s-2.474-3.108-3.485-4.119c-1.179-1.18-2.123-2.338-3.965-1.882-1.473.365-2.485 1.672-3.509 2.735-.0717214.0432635-.1387486.093869-.2.151-3.485 3.482-7.409 6.794-10.574 10.564-.1500187.1905415-.2869971.3909977-.41.6-.419.132-.75.442-.463.729l.036.036-.011.02c-2.558.012-5.6.217-5.85 3.452-.0854606 1.3442602-.1028162 2.6919849-.052 4.038-1.1995957-2.0488589-1.9863981-4.3127843-2.316-6.664z" fill="#262626"/></g></svg>