<svg xmlns="http://www.w3.org/2000/svg" height="512" viewBox="0 0 60 60" width="512" class="hovered-paths"><g><g id="035---Data-Science" fill="none"><path id="Path" d="m22.082 38.471c-.2200148.0000521-.4142096-.1437206-.4783792-.3541696-.0641697-.210449.0167669-.4381142.1993792-.5608304l2.455-1.656-3.317 1.914c-.23171.1276221-.5227312.0526794-.6639792-.1709853s-.08384-.5186462.1309792-.6730147l3.109-2.136-3.172 1.831c-.2314518.1313128-.5252013.0583356-.6682918-.1660259-.1430904-.2243616-.0853808-.5214879.1312918-.6759741l2.329-1.623-1.858 1.073c-.2281943.1273484-.5159664.0574929-.6603781-.1603041-.1444117-.2177969-.0967481-.5100652.1093781-.6706959l2.587-1.96-2.036 1.175c-.2288588.1292299-.518701.0592157-.6633326-.1602346-.1446317-.2194502-.0946742-.513414.1143326-.6727654l.368-.274c-.1770167.0242493-.3535205-.0478009-.463-.189-.1532349-.1972185-.1374397-.4772632.037-.656l2.306-2.356c-.0343857-.0328196-.0637056-.0705648-.087-.112-.1375532-.2386555-.0561721-.5436114.182-.682l1.627-.94c.216544-.1264521.4932612-.0729453.6470564.1251165.1537951.1980619.1370924.4794093-.0390564.6578835l-1.371 1.4 3.806-2.2c.2288588-.1292299.518701-.0592157.6633326.1602346.1446317.2194502.0946742.513414-.1143326.6727654l-.118.088 1.6-.921c.2281943-.1273484.5159664-.0574929.6603781.1603041.1444117.2177969.0967481.5100652-.1093781.6706959l-2.594 1.961 4.838-2.79c.230817-.1267753.5204005-.0527915.6621232.1691615.1417226.221953.0869993.5157856-.1251232.6718385l-2.326 1.626 4.28-2.47c.23171-.1276221.5227312-.0526794.6639792.1709853s.08384.5186462-.1309792.6730147l-3.109 2.136 4.877-2.815c.2329673-.1327691.5291919-.0581284.6714287.1691822.1422368.2273105.0798406.5263539-.1414287.6778178l-2.457 1.654 2.987-1.725c.2329673-.1327691.5291919-.0581284.6714287.1691822.1422368.2273105.0798406.5263539-.1414287.6778178l-1.587 1.072 1.455-.84c.2314518-.1313128.5252013-.0583356.6682918.1660259.1430904.2243616.0853808.5214879-.1312918.6759741l-2.016 1.416 2.8-1.615c.2250277-.1259685.5089467-.060127.6555632.1520265.1466165.2121536.1078274.5010142-.0895632.6669735l-4.14 3.39 4.157-2.4c.2295527-.1314921.521805-.0614183.6667704.1598726.1449654.2212908.0924688.5172061-.1197704.6751274l-.392.288c.1928582-.0367316.3895876.0411811.505.2.148862.2123588.1106509.5032846-.088.67l-.732.616.161-.093c.2136477-.1213457.4838004-.0694794.6373204.1223584.15352.1918377.1449064.4667894-.0203204.6486416l-.569.618c.2022203-.0269125.4009738.0695124.505.245.1375532.2386555.0561721.5436114-.182.682l-2.595 1.499c-.2136477.1213457-.4838004.0694794-.6373204-.1223584-.15352-.1918377-.1449064-.4667894.0203204-.6486416l.489-.53-2.257 1.3c-.2240372.1259992-.5071082.0616068-.6545964-.1489061s-.1113381-.4985559.0835964-.6660939l.733-.615-2.477 1.431c-.2295527.1314921-.521805.0614183-.6667704-.1598726-.1449654-.2212908-.0924688-.5172061.1197704-.6751274l.2-.146-1.7.981c-.2250277.1259685-.5089467.060127-.6555632-.1520265-.1466165-.2121536-.1078274-.5010142.0895632-.6669735l4.133-3.381-7.289 4.2c-.230817.1267753-.5204005.0527915-.6621232-.1691615-.1417226-.221953-.0869993-.5157856.1251232-.6718385l2.022-1.419-3.916 2.26c-.2325262.1307666-.5267591.0559509-.6685809-.1700024s-.0812744-.5234503.1375809-.6759976l1.587-1.073-3.324 1.919c-.0756184.0452887-.1618652.0697828-.25.071z" fill="#bbc1ce" data-original="#BBC1CE" class=""></path><path id="Path" d="m22.591 30.471c-.2197801.0002798-.4139741-.1429906-.47856-.3530669-.0645858-.2100763.0155818-.4376964.19756-.5609331l.374-.253-1.431.825c-.2254634.1287726-.5119753.0635416-.6594703-.1501437-.1474949-.2136853-.1068861-.5047094.0934703-.6698563l4.591-3.748-4.995 2.883c-.226507.1291681-.5142486.0625855-.6609917-.1529516-.1467432-.2155372-.103215-.5076567.0999917-.6710484l2.259-1.8-1.7.983c-.2257586.1294404-.5130594.0640705-.6605892-.1503047-.1475298-.2143751-.1059565-.5060712.0955892-.6706953l.512-.417c-.2010005.086362-.4348056.032025-.5771215-.1341249-.142316-.1661498-.1600921-.4055268-.0438785-.5908751l.867-1.381c-.2432752.0765443-.5051734-.0422743-.607799-.2757477-.1026257-.2334733-.0130859-.5067702.207799-.6342523l1.627-.94c.1992437-.1162507.4521568-.0811062.6121555.0850646.1599987.1661707.1855498.4202324.0618445.6149354l-.853 1.358 3.588-2.067c.2254634-.1287726.5119753-.0635416.6594703.1501437.1474949.2136853.1068861.5047094-.0934703.6698563l-.494.4 2.118-1.22c.226507-.1291681.5142486-.0625855.6609917.1529516.1467432.2155372.103215.5076567-.0999917.6710484l-2.259 1.8 4.543-2.624c.2254634-.1287726.5119753-.0635416.6594703.1501437.1474949.2136853.1068861.5047094-.0934703.6698563l-4.592 3.748 7.913-4.568c.2325262-.1307666.5267591-.0559509.6685809.1700024s.0812744.5234503-.1375809.6759976l-.379.258 1.916-1.104c.2288588-.1292299.518701-.0592157.6633326.1602346.1446317.2194502.0946742.513414-.1143326.6727654l-3.909 2.923 6.019-3.474c.2322938-.1351768.5298928-.0625367.6737842.164462.1438914.2269988.0825928.5271392-.1387842.679538l-1.076.745 1.276-.737c.2272986-.1336432.5193131-.0678079.6672772.1504392.1479641.218247.1010173.5138867-.1072772.6755608l-3.2 2.523 2.866-1.653c.2184203-.1276802.4977941-.0720852.6506935.1294872s.1311343.4855915-.0506935.6615128l-2.38 2.318 1.781-1.027c.2145941-.1228235.486738-.0703506.6402819.1234548.1535438.1938053.142373.4707366-.0262819.6515452l-.574.609c.240772-.05191.4834837.0792554.5719854.3091103.0885016.2298549-.0035723.4899237-.2169854.6128897l-2.744 1.582c-.2145941.1228235-.486738.0703506-.6402819-.1234548-.1535438-.1938053-.142373-.4707366.0262819-.6515452l.516-.548-2.3 1.324c-.2184203.1276802-.4977941.0720852-.6506935-.1294872s-.1311343-.4855915.0506935-.6615128l2.379-2.319-5.38 3.109c-.2268147.12995-.5154475.0632557-.6622581-.1530278-.1468106-.2162836-.1022433-.50915.1022581-.6719722l3.2-2.525-5.8 3.35c-.23158.1294027-.5239091.0554223-.6660571-.1685604-.142148-.2239828-.0846277-.5199909.1310571-.6744396l1.071-.743-2.749 1.586c-.2290632.1321979-.5214568.063148-.6671806-.1575572-.1457237-.2207053-.094369-.5167199.1171806-.6754428l3.908-2.927-6.517 3.76c-.0756184.0452887-.1618652.0697828-.25.071z" fill="#ced2dc" data-original="#CED2DC" class=""></path><path id="Path" d="m3.135 48.3c-.20276803.000365-.38567933-.1217666-.46305971-.3091894-.07738038-.1874227-.03390616-.4030211.11005971-.5458106l.956-.953-1.649.952c-.21236892.1214471-.4814292.0713915-.63591356-.1183044-.15448437-.1896959-.14902053-.4633181.01291356-.6466956l1.814-2.032-1.934 1.117c-.20721125.1194766-.47001834.0754658-.627-.105-.15781155-.180099-.16577907-.4468015-.019-.636l1.016-1.3c-.23303915.0181708-.4475696-.1275409-.5165805-.3508678-.0690109-.223327.02591618-.464665.2285805-.5811322l1.937-1.118c.20707755-.118794.46924931-.0746242.62597266.1054616.15672335.1800859.16427362.4458451.01802734.6345384l-.935 1.2 2.408-1.39c.21236892-.1214471.4814292-.0713915.63591356.1183044.15448437.1896959.14902053.4633181-.01291356.6466956l-1.814 2.03 2.255-1.3c.21712299-.1206668.48990849-.063641.64051049.1338986s.13334908.4756874-.04051049.6531014l-.955.951.393-.225c.15499454-.0985297.35153099-.1041539.51190641-.0146489.16037542.0895049.25877124.2597296.25628554.4433739s-.10545276.3511436-.26819195.436275l-3.7 2.138c-.07562822.0438137-.16159914.0666012-.249.066z" fill="#7dbf29" data-original="#7DBF29" class="hovered-path active-path" data-old_color="#7dbf29" style="fill:#A529BF"></path><path id="Path" d="m55.167 18.3c-.1956032-.0000967-.3731881-.1142453-.4545019-.292146-.0813138-.1779008-.0514226-.3868813.0765019-.534854l1.564-1.806-2.491 1.437c-.2206356.1300292-.503851.072325-.6560244-.1336626s-.1241014-.4936554.0650244-.6663374l1.062-1-.966.557c-.2053786.1166531-.4643743.0736762-.6210692-.1030582s-.1683425-.4390131-.0279308-.6289418l1.068-1.425c-.240215.0511981-.4820459-.0796549-.5705982-.3087465-.0885522-.2290917.0023988-.488577.2145982-.6122535l1.937-1.118c.2054367-.1177728.4653166-.0752838.6225485.1017834.1572318.1770673.1686914.4401483.0274515.6302166l-1.033 1.376 2.6-1.5c.2207276-.1320893.5056598-.0751513.6586724.1316224.1530126.2067738.124171.4959044-.0666724.6683776l-1.061 1 1.315-.759c.2113234-.1216732.4795951-.0731604.6349231.1148162.155328.1879765.1524028.4605836-.0069231.6451838l-1.568 1.81 1.092-.63c.1549945-.0985297.351531-.1041539.5119064-.0146489.1603754.0895049.2587712.2597296.2562855.4433739s-.1054527.3511436-.2681919.436275l-3.665 2.116c-.0760196.0436373-.1623529.066084-.25.065z" fill="#7dbf29" data-original="#7DBF29" class="hovered-path active-path" data-old_color="#7dbf29" style="fill:#A529BF"></path><path id="Path" d="m22.954 7.46c-.1943398.00025188-.3712201-.11212799-.4535562-.28816433-.0823361-.17603633-.0552102-.38383445.0695562-.53283567l1.1-1.312-2.322 1.34c-.2202286.12274667-.4973928.06232249-.6465459-.14095258-.1491531-.20327508-.1236267-.48579845.0595459-.65904742l.891-.814-1.082.624c-.217123.12066677-.4899085.06364101-.6405105-.13389861s-.1333491-.47568743.0405105-.65310139l1.216-1.21-.85.49c-.2154812.12300225-.4885691.06937936-.6415393-.12597115-.1529702-.19535052-.1395447-.47332917.0315393-.65302885l.705-.732c-.1542011-.08944944-.2491141-.25423285-.2491141-.4325s.094913-.34305056.2491141-.4325l1.936-1.12c.2155591-.12451122.4898785-.07148712.6435094.12438605.153631.19587318.1397727.47492626-.0325094.65461395l-.076.078 1.098-.631c.2174475-.12228432.4917629-.06557167.6428937.13291344s.1328285.47800309-.0428937.65508656l-1.207 1.203 1.74-1.005c.2202286-.12274667.4973928-.06232249.6465459.14095258.1491531.20327508.1236267.48579845-.0595459.65904742l-.895.817.791-.456c.2100901-.12209922.4775473-.07547545.6339316.11050841s.1564132.45747451.0000684.64349159l-1.1 1.311.118-.067c.2374252-.12420086.5305531-.03916186.6646466.19281988.1340935.23198173.0614797.52843213-.1646466.67218012l-2.568 1.483c-.0748324.04321615-.159588.06629997-.246.067z" fill="#f49100" data-original="#F49100" class="" style="fill:#0C82D7" data-old_color="#f49100"></path><g fill="#262626"><path id="Shape" d="m59.724 14.806c-.182-3.386-4.219-3.983-6.272-2.257-3.6497521-1.6318616-7.6482267-2.3298334-11.635-2.031-3.129-6.591-8.43-12.018-15.96-8.765-1.957-1.974-6.568-.876-6.581 2.441-.0540561.96431244.3926827 1.88840426 1.182 2.445-.7918907 1.21695919-1.5053396 2.48319727-2.136 3.791-2.0262686-.0903925-4.0565478.0100501-6.064.3-7.798 1.177-13.128 6.94-9.972 14.878.63244981 1.5595512 1.42573604 3.0489319 2.367 4.444-2.643 3.686-4.07 7.838-2.902 12.214-.94080657.6181554-1.50024832 1.6744177-1.483 2.8-.044 3.589 4.253 4.2 6.346 2.268.933.3 2.473 1.217 3.239 1.418 1.0707154.2611906 2.1583597.4473097 3.255.557 1.650063.1664181 3.3110768.195852 4.966.088 3.615 7.458 11.241 13.861 18.864 6.991 2.0834133-1.9276448 3.789514-4.2265231 5.031-6.779 6.539.419 13.04-.954 16.022-6.735 1.714-4.529.148-9-2.622-12.9 2.657-3.731 4.079-7.935 2.849-12.361.901562-.6037223 1.4624626-1.6000541 1.511-2.684 0-.028-.013-.045-.017-.069.0055274-.0176263.0095419-.0356917.012-.054zm-3.435-2.265c1.1596633.3180255 1.9670297 1.3675609 1.977 2.57-.083 1.259-.9 2.556-2.327 2.4-1.2872889-.2156875-2.2228959-1.3409676-2.2-2.646-.0467236-.6707316.215832-1.3260066.7127712-1.7789034.4969392-.4528967 1.1736989-.6536879 1.8372288-.5450966zm-32.734-11.032c1.0412794.49070335 1.7099634 1.53394361 1.721 2.685-.084 1.552-1.271 3.091-2.969 2.226-.1344037-.0696472-.2628384-.15025339-.384-.241-.0078846-.00720898-.0162361-.01389014-.025-.02-.73823-.5571988-1.1727519-1.42809328-1.174-2.353.011-1.481 1.237-3.006 2.831-2.297zm-2.033 5.6c2.143.534 5.064-.732 5.2-3.306-.0187008-.49924032-.1510595-.98763346-.387-1.428 1.865-.65 5.88-.558 7.444.211 1.2735441.74461259 2.3935214 1.72510183 3.3 2.889 1.3029996 1.56610645 2.3906452 3.29947849 3.234 5.154-3.3325698.3555956-6.6147485 1.0838132-9.785 2.171-3.5140115-1.2216121-7.1682757-1.994397-10.876-2.3.556289-1.16506098 1.1807031-2.29635245 1.87-3.388zm19.408 4.875c.9297175 2.2412346 1.6533733 4.5624895 2.162 6.935-3.6725898-2.3616843-7.5967765-4.3070077-11.7-5.8 2.996938-.9586758 6.0949838-1.5664056 9.232-1.811.099.224.209.448.306.676zm3.132 13.3c.435891 4.7050463.292822 9.4458012-.426 14.116-1.018.672-2.012 1.28-2.949 1.814-3.3244082 1.9138801-6.8177862 3.5179686-10.436 4.792-3.8705248-1.3159552-7.5911775-3.037176-11.1-5.135-.789-.47-1.67-1.026-2.6-1.652-.126-.718-.243-1.435-.34-2.153-.779525-5.5778473-.6715229-11.243911.32-16.788l.037-.025c3.952866-2.6422053 8.2099288-4.7981009 12.679-6.421 3.795456 1.2383705 7.450738 2.8709469 10.906 4.871 1.013.585 2.137 1.279 3.308 2.061.262 1.501.465 3.01.601 4.52zm1.107-3.329c3.2752527 2.2747707 6.1978992 5.0191742 8.674 8.145-2.389193 3.1266815-5.2508272 5.8621366-8.482 8.108.7110285-5.3991237.6463742-10.8721797-.192-16.253zm-1.746 18.645c-.4811857 2.6477183-1.2556214 5.2336427-2.309 7.71-.661-.055-1.31-.122-1.93-.2-2.5785688-.3357127-5.1235722-.8920872-7.607-1.663 3.1933627-1.1593042 6.282191-2.5884685 9.233-4.272.831-.475 1.71-1 2.613-1.575zm-15.062 6.025c-2.1394025.6603902-4.3246882 1.1617558-6.538 1.5-.85.126-1.715.229-2.587.3-.9962593-2.3144952-1.7622856-4.721432-2.287-7.186 3.6141537 2.1727467 7.4373278 3.9771294 11.412 5.386zm-13.65-8.69c-3.1964034-2.2632969-6.06659024-4.9551486-8.53-8 2.42814969-3.2432897 5.3408978-6.0936411 8.636-8.451-.9277871 5.4415845-.9635887 10.9979116-.106 16.451zm1.979-18.519c.5365975-2.6440581 1.3407357-5.2266819 2.4-7.708.323.028.64.058.946.092 2.8364905.3279361 5.6364714.9181281 8.364 1.763-3.1693277 1.208726-6.2413285 2.6586409-9.189 4.337-.801.46-1.649.967-2.521 1.516zm-13.29-2.088c2.305-5.2 9.055-5.994 14.369-5.713-1.2503948 2.8545519-2.1784666 5.8396761-2.767 8.9-3.5751455 2.3359386-6.78691387 5.1854902-9.532 8.457-2.552-3.66-3.816-7.697-2.07-11.644zm.53 30.152c-1.25484805-.1986541-2.18396264-1.2726261-2.2-2.543-.07205471-1.2421069.86000425-2.3148624 2.1-2.417 1.35618289.0698797 2.42267683 1.18505 2.432 2.543-.062 1.265-.887 2.575-2.332 2.417zm6.793.419c-.973-.253-2.3-1.16-3.4-1.462.24562487-.4636413.38563692-.9758805.41-1.5-.142-2.632-2.541-3.679-4.583-3.256-.9-3.679.188-7.288 2.237-10.558 2.68968935 3.5209157 5.9720712 6.5464597 9.7 8.941.5200922 2.607917 1.2703624 5.1645915 2.242 7.64.11.277.227.555.348.831-2.3366265.1321619-4.6799553-.0818176-6.954-.635zm25.934 7.312c-2.865 2.984-7.91 4.042-11.39 1.49-2.2096759-1.7309777-3.9864828-3.9521575-5.19-6.488-.16-.311-.305-.629-.454-.945 1.221-.124 2.434-.3 3.625-.525 2.1836613-.4113789 4.3387377-.9621726 6.452-1.649 3.5259487 1.1808437 7.167391 1.983684 10.863 2.395-.9994814 2.0971481-2.3170275 4.0272553-3.906 5.722zm19.943-12.539c-2.6 5.044-8.652 5.977-14.03 5.734 1.2404432-2.8618183 2.1140386-5.8690026 2.6-8.95 3.5148067-2.3208532 6.6720793-5.1422529 9.372-8.375 2.41 3.585 3.581 7.558 2.058 11.591zm-1.986-13.706c-2.3330319-2.8738908-5.0265267-5.4352988-8.014-7.621-.568-.4246667-1.1506667-.8433333-1.748-1.256-.1-.519-.194-1.042-.3-1.542-.5569664-2.5092063-1.3608839-4.9571351-2.4-7.308 3.6531589-.1468094 7.2868616.601215 10.585 2.179-.3050528.5197327-.4636666 1.1123745-.459 1.715 0 2.688 2.463 3.638 4.557 3.107.955 3.778-.112 7.425-2.221 10.726z" data-original="#262626" class="" style="fill:#2B2B30" data-old_color="#262626"></path><path id="Shape" d="m37.5 21.586c-2.9-.217-5.908 0-8.813 0-2.1949799-.1571639-4.3985069-.1538217-6.593.01-3.638.559-4.144 6.779-1.288 8.43-2.772 1.862-2.441 7.966 1.13 8.452 5.069.69 10.672 0 15.8 0 .011 0 .023-.005.034-.006.1169806.0104452.2348859-.0003966.348-.032 2.927-.792 2.817-3.208 2.612-5.885-.114-1.487-.592-2.255-1.5-2.657 1.764-1.047 1.673-3.072 1.5-5.363-.177-2.235-1.155-2.793-3.23-2.949zm.469 15.936h-10.451c-1.4 0-3.7.455-5.05 0-2-.673-2.5-4.788-1.209-6.318.3344533-.3880893.7945389-.6464451 1.3-.73 4.78.5 9.917-.024 14.728-.055.081.02.167.033.241.059 1.93.664 2.972 6.215.445 7.044zm.049-7.938c-.173-.023-.345-.047-.536-.062-2.9-.225-5.909 0-8.813 0-2.1204167-.1414977-4.2476564-.1488457-6.369-.022-1.852-.875-2.284-4.832-1.048-6.337 1-1.214 2.693-.749 4.273-.749h7.322c1.3 0 3.434-.429 4.672 0 1.886.655 3.012 6.297.503 7.17z" data-original="#262626" class="" style="fill:#2B2B30" data-old_color="#262626"></path><path id="Path" d="m25.474 25.718h-1c-.360461-.0043876-.7151434.090771-1.025.275-.211.14-.219.289.077.289h1c.360461.0043876.7151434-.090771 1.025-.275.211-.14.219-.289-.077-.289z" data-original="#262626" class="" style="fill:#2B2B30" data-old_color="#262626"></path><path id="Path" d="m36.054 25.432h-4c-.854 0-1.089 1.136-.108 1.136h4c.854 0 1.089-1.136.108-1.136z" data-original="#262626" class="" style="fill:#2B2B30" data-old_color="#262626"></path><path id="Path" d="m25.469 33.7h-1c-.3611932-.0115893-.7177675.0837291-1.025.274-.2.146-.218.324.087.324h1c.3611932.0115893.7177675-.0837291 1.025-.274.204-.145.218-.324-.087-.324z" data-original="#262626" class="" style="fill:#2B2B30" data-old_color="#262626"></path><path id="Path" d="m32.3 33.666c-.447 0-1.568.668-.6.668h4c.447 0 1.568-.668.6-.668z" data-original="#262626" class="" style="fill:#2B2B30" data-old_color="#262626"></path></g></g></g> </svg>