<svg height="512" viewBox="0 0 60 60" width="512" xmlns="http://www.w3.org/2000/svg"><g id="006---Broken-Pie-Chart" fill="none"><path id="Path" d="m26.72 35.353c-.1820865.0002287-.3499016-.0985478-.4380833-.2578573-.0881818-.1593095-.0827869-.353962.0140833-.5081427l.584-.93-1.61.93c-.2162377.1247517-.4913592.0708905-.6445905-.1261931-.1532312-.1970836-.1376138-.4769924.0365905-.6558069l2.322-2.379-3.912 2.259c-.2234669.1287231-.5081764.0663691-.6573848-.1439733-.1492085-.2103425-.1139612-.4996608.0813848-.6680267l3.09-2.655-4.554 2.629c-.2288588.1292299-.518701.0592157-.6633326-.1602346-.1446317-.2194502-.0946742-.513414.1143326-.6727654l2.4-1.793-3.427 1.979c-.2309306.1317312-.5245674.0597083-.6683337-.1639283-.1437664-.2236366-.0873821-.520673.1283337-.6760717l2.13-1.514-3.046 1.754c-.2312043.1356861-.5282776.0648879-.6734329-.160492-.1451554-.2253799-.0867349-.525133.1324329-.679508l3.789-2.705-4.938 2.851c-.2327682.1379387-.5330334.0656905-.677577-.1630348s-.0809181-.5309351.143577-.6819652l2.849-1.961-3.8 2.2c-.2327682.1379387-.5330334.0656905-.677577-.1630348s-.0809181-.5309351.143577-.6819652l3.241-2.235-4.242 2.449c-.2295527.1314921-.521805.0614183-.6667704-.1598726-.1449654-.2212908-.0924688-.5172061.1197704-.6751274l6.311-4.668-6.334 3.653c-.2319831.1309881-.5259285.0570795-.6683699-.1680527-.1424414-.2251321-.0833463-.52241.1343699-.6759473l2.729-1.887-2.195 1.268c-.2300482.1308569-.5222207.059778-.6664488-.1621318-.1442281-.2219099-.0905463-.5177734.1224488-.6748682l3.9-2.838-3.356 1.938c-.2271272.1307942-.5167067.0640046-.6636035-.1530559-.1468968-.2170604-.1012506-.5107158.1046035-.6729441l4.505-3.541-3.946 2.279c-.2306768.1361239-.5276494.0662929-.6734904-.1583666s-.0887428-.5243409.1294904-.6796334l1.338-.973-.794.458c-.2299138.1328235-.5235501.0627731-.6687427-.1595365s-.0912979-.5193359.1227427-.6764635l.772-.568-.226.131c-.2254575.1330437-.5153687.0696598-.6647344-.1453323-.1493656-.2149921-.1076129-.5087994.0957344-.6736677l2.162-1.786-1.593.92c-.2203354.1244491-.4989119.0646624-.6487785-.1392378-.1498666-.2039001-.1237692-.4876223.0607785-.6607622l2.07-1.9-1.482.856c-.2160865.1262428-.4922254.073282-.6462727-.123949-.1540472-.197231-.1385487-.4779753.0362727-.657051l1.543-1.595-.933.54c-.2098865.1221857-.4772212.0758806-.633786-.1097781-.1565647-.1856587-.1570768-.4569735-.001214-.6432219l.966-1.163-.331.191c-.1990398.1123116-.4488979.0753715-.6069237-.0897301-.1580259-.1651017-.1839931-.4163373-.0630763-.6102699l.5-.775c-.1240509.0200687-.251147-.0062762-.357-.074-.1574291-.1031322-.2436105-.2859295-.223-.473l.156-1.425c-.1164701-.10809394-.174626-.26511348-.1566668-.42299647s.109895-.2978296.2476668-.37700353l.216-.125c.1632583-.09427485.3656644-.08870751.5234936.01439911.1578292.10310661.2442468.28622197.2235064.47360089l-.109.989.742-.428c.2001656-.11600956.4537787-.07954711.6131547.08815444.1593759.16770155.1828883.42284126.0568453.61684556l-.465.716.947-.547c.2098865-.1221857.4772212-.0758806.633786.1097781.1565647.1856587.1570768.4569735.001214.6432219l-.965 1.162 1.62-.935c.2160105-.1246636.4908577-.0710795.6442199.1255968s.1383361.4762947-.0352199.6554032l-1.543 1.59 2.305-1.33c.2203354-.1244491.4989119-.0646624.6487785.1392378.1498666.2039001.1237692.4876223-.0607785.6607622l-2.071 1.9 2.866-1.654c.2253151-.1304911.5130605-.0662242.6614447.1477312.1483843.2139555.1077334.5059746-.0934447.6712688l-2.162 1.784 2.853-1.647c.2296891-.1296297.5205695-.0585592.6646041.1623819s.0916869.5157667-.1196041.6736181l-.772.568 1.179-.681c.2306768-.1361239.5276494-.0662929.6734904.1583666s.0887428.5243409-.1294904.6796334l-1.336.972 1.8-1.042c.2271272-.1307942.5167067-.0640046.6636035.1530559.1468968.2170604.1012506.5107158-.1046035.6729441l-4.5 3.544 5.51-3.181c.2300482-.1308569.5222207-.059778.6664488.1621318.1442281.2219099.0905463.5177734-.1224488.6748682l-3.9 2.838 4.659-2.688c.2319831-.1309881.5259285-.0570795.6683699.1680527.1424414.2251321.0833463.52241-.1343699.6759473l-2.734 1.887 3.291-1.9c.2295527-.1314921.521805-.0614183.6667704.1598726.1449654.2212908.0924688.5172061-.1197704.6751274l-6.309 4.667 7.389-4.266c.2322938-.1351768.5298928-.0625367.6737842.164462.1438914.2269988.0825928.5271392-.1387842.679538l-3.238 2.233 3.837-2.215c.2327682-.1379387.5330334-.0656905.677577.1630348s.0809181.5309351-.143577.6819652l-2.852 1.97 3.087-1.782c.2312043-.1356861.5282776-.0648879.6734329.160492.1451554.2253799.0867349.525133-.1324329.679508l-3.785 2.7 3.244-1.873c.2309306-.1317312.5245674-.0597083.6683337.1639283.1437664.2236366.0873821.520673-.1283337.6760717l-2.132 1.515 1.593-.919c.2288588-.1292299.518701-.0592157.6633326.1602346.1446317.2194502.0946742.513414-.1143326.6727654l-2.4 1.792 1.851-1.069c.2238668-.1315043.5111377-.0697824.6612322.1420698s.1130656.5033364-.0852322.6709302l-3.09 2.655 2.42-1.4c.216157-.1232114.4900183-.0687436.6425795.1278015.1525612.196545.1373975.4753583-.0355795.6541985l-2.322 2.38.211-.122c.1992437-.1162507.4521568-.0811062.6121555.0850646.1599987.1661707.1855498.4202324.0618445.6149354l-1.154 1.837c.137217.2391784.054898.5442954-.184.682l-.491.284c-.075907.043021-.1617504.0654299-.249.065z" fill="#136b87"/><path id="Path" d="m6.9 49.987c-.20842239-.0001822-.39486981-.1296318-.46788104-.3248478-.07301122-.195216-.01726958-.4152449.13988104-.5521522l3.828-3.33-3.7 2.134c-.23296731.1327691-.52919188.0581284-.67142871-.1691822-.14223683-.2273105-.07984054-.5263539.14142871-.6778178l.31-.211-.013.008c-.23240668.1328499-.52821577.0590851-.67103328-.1673329s-.08196881-.5251514.13803328-.6776671l6.86-4.693-6.694 3.867c-.23436107.1288923-.5286543.0505227-.66787555-.1778537-.13922124-.2283764-.07406124-.5258734.14787555-.6751463l.461-.3-.175.1c-.23308287.1306613-.52770735.0549657-.66894229-.1718661-.14123493-.2268319-.07915925-.5246238.14094229-.6761339l6.95-4.659-6.777 3.918c-.23470287.1405531-.53878699.0663884-.6824238-.1664401-.14363681-.2328284-.07348967-.5378644.1574238-.6845599l5.214-3.426-2.207 1.275c-.2328603.1351428-.53091891.0616362-.67424226-.1662803-.14332335-.2279164-.08044309-.5283964.14224226-.6797197l14.655-10.012c.0049074-.1736069.099552-.3322312.25-.419l2.355-1.359c.2328603-.1351428.5309189-.0616362.6742423.1662803.1433233.2279164.080443.5283964-.1422423.6797197l-6.337 4.33 5.808-3.354c.2341443-.133112.5316521-.0568382.672871.1725078.1412189.2293459.075396.5293391-.148871.6784922l-5.213 3.425 4.691-2.711c.2330829-.1306613.5277074-.0549657.6689423.1718661.1412349.2268319.0791592.5246238-.1409423.6761339l-6.948 4.658 6.423-3.706c.234023-.1252853.5251579-.0458598.6631351.1809119.1379772.2267718.0746978.5218373-.1441351.6720881l-1.41.9c.2262634-.0173982.4358696.1197632.5105122.3340675.0746427.2143042-.004399.4520024-.1925122.5789325l-6.856 4.693.652-.376c.2329673-.1327691.5291919-.0581284.6714287.1691822.1422368.2273105.0798406.5263539-.1414287.6778178l-3.56 2.415c.0481443.0331089.0901126.0744004.124.122.149149.209557.1149758.498083-.079.667l-6.643 5.778c.01591438.1926566-.08065386.3772265-.248.474l-.925.534c-.07609532.0445559-.16282274.0677063-.251.067z" fill="#7dbf29"/><path id="Path" d="m6.51 49.661c-.1555867.0000609-.30233502-.0723096-.39699888-.1957842s-.12645368-.2839799-.08600112-.4342158l.086-.319c-.19242871.1098826-.43422754.0800019-.59411809-.0734191s-.1997273-.3937802-.09788191-.5905809l.257-.494-.289.166c-.20209308.1167854-.45810076.0782087-.61680575-.0929438-.15870499-.1711524-.1778781-.4293393-.04619425-.6220562l.532-.778-.54.311c-.20752372.1196981-.47078779.075377-.62768014-.1056714s-.16331787-.4479398-.01531986-.6363286l.825-1.049-.852.492c-.20227329.1165648-.45828869.0776396-.61677662-.0937764-.15848792-.1714159-.17725952-.4296923-.04522338-.6222236l1.243-1.8-1.355.777c-.21194866.1215228-.48068088.0720808-.63549852-.1169206s-.15037815-.4622079.01049852-.6460794l.779-.884-.609.351c-.20663387.1179296-.4677477.0739228-.62431463-.1052189s-.16521839-.4437966-.02068537-.6327811l1.108-1.435-1 .579c-.20916176.1199379-.47412618.0735246-.63006667-.1103675s-.15843566-.4528792-.00593333-.6396325l.927-1.129-.61.352c-.21459408.1228235-.486738.0703506-.64028186-.1234548-.15354386-.1938053-.14237308-.4707366.02628186-.6515452l.295-.315c-.2117112.0749623-.44742783-.0004367-.57633161-.1843519-.12890378-.1839151-.11936127-.4312131.02333161-.6046481l.608-.737-.189.109c-.20536939.1190026-.46610195.0772186-.624-.1-.15805401-.1774786-.16934144-.441688-.027-.632l.639-.854-.1.057c-.20752372.1196981-.47078779.075377-.62768014-.1056714s-.16331787-.4479398-.01531986-.6363286l.315-.4c-.12675391-.007449-.24819204-.0535117-.348-.132-.16137047-.1480917-.20757361-.3839708-.114-.582l.609-1.291c-.17485905.0703647-.37442946.0364164-.5161878-.087807-.14175833-.1242234-.20161239-.3176098-.1548122-.500193l.4-1.543c-.06222132-.0115547-.12163603-.034981-.175-.069-.15656137-.0950324-.24863672-.2680573-.24-.451l.069-1.535v-.014c-.13823272-.2388784-.05677133-.5445824.182-.683l.089-.052c.15839356-.091236.35394991-.0887664.50998899.0064404.15603907.0952067.24768835.2679748.23901101.4505596l-.046.986c.16995191-.0385945.34773755.0140892.46922372.1390464s.16914194.3041561.12577628.4729536l-.355 1.383.286-.163c.18936641-.1078239.42675595-.0805881.58678196.0673217.16002601.1479097.2058297.3824254.11321804.5796783l-.608 1.285.519-.3c.20746475-.1185083.4697832-.073677.62611501.1070056.15633182.1806826.16298703.4467211.01588499.6349944l-.215.275c.20769893-.0975633.45514588-.0412233.60013403.1366414.14498815.1778648.15029304.4315891.01286597.6153586l-.638.852.48-.276c.20936172-.1198333.47443246-.0730979.63018772.1111103.15575526.1842081.15777941.4533598.00481228.6398897l-.608.736.438-.252c.21488943-.1243392.48846652-.0721685.64251665.1225268s.14190803.4729375-.02851665.6534732l-.277.293.053-.03c.20922217-.121191.47518786-.0753075.6317098.1089805s.15874925.4541733.0052902.6410195l-.928 1.13.82-.474c.20694057-.1201272.46998341-.0768007.62746412.1033514s.16525124.446626.01853588.6356486l-1.107 1.436 1.052-.607c.21194866-.1215228.48068088-.0720808.63549852.1169206s.15037815.4622079-.01049852.6460794l-.777.882.634-.365c.20227329-.1165648.45828869-.0776396.61677662.0937764.15848792.1714159.17725952.4296923.04522338.6222236l-1.243 1.8 1.191-.688c.20752372-.1196981.47078779-.075377.62768014.1056714s.16331787.4479398.01531986.6363286l-.828 1.049.185-.106c.20209308-.1167854.45810076-.0782087.61680575.0929438.15870499.1711524.1778781.4293393.04619425.6220562l-.552.806c.1922143-.0558373.39920572.008338.52612067.1631177.12691495.1547796.14929296.3703327.05687933.5478823l-.354.693c.07912632.0140826.15381522.0466305.218.095.16058994.1234043.23087501.3314955.178.527l-.193.716c.05838792.042276.10713014.0964719.143.159.13738473.2389169.05553486.543953-.183.682l-.4.232c-.0768887.0444005-.16421373.0675261-.253.067z" fill="#92d149"/><path id="Path" d="m28.151 59.335c-.1326291.0003737-.2598376-.0525999-.353-.147-.1581206-.1595484-.1904332-.4049604-.079-.6l.892-1.537-3.149 1.817c-.2218647.1262356-.5031961.0650788-.6526317-.1418714-.1494355-.2069502-.1189881-.4932377.0706317-.6641286l1.09-.968-2.361 1.362c-.2256086.1271264-.5109479.0609576-.657579-.1524896-.1466312-.2134471-.106025-.5035297.093579-.6685104l1.368-1.1-2.374 1.365c-.2187434.1297091-.5000021.0745628-.6535686-.128145s-.1305136-.4883932.0535686-.663855l2.809-2.7-4.448 2.571c-.2207276.1320893-.5056598.0751513-.6586724-.1316224-.1530126-.2067738-.124171-.4959044.0666724-.6683776l2.764-2.579-4.058 2.341c-.2243164.1264895-.5080183.0619132-.6554889-.1492026s-.1104702-.4997121.0854889-.6667974l1.819-1.525-2.563 1.484c-.2272713.1290292-.5155715.0612656-.6615658-.155498-.1459944-.2167636-.1004262-.5093938.1045658-.671502l.61-.475-1.01.583c-.2208144.1342809-.5075757.0781561-.6614736-.1294633s-.1242133-.4983097.0684736-.6705367l2.276-2.142-3.1 1.79c-.2184203.1276802-.4977941.0720852-.6506935-.1294872s-.1311343-.4855915.0506935-.6615128l2.051-1.993-2.694 1.554c-.2187434.1297091-.5000021.0745628-.6535686-.128145s-.1305136-.4883932.0535686-.663855l1.565-1.515-1.73 1c-.2162377.1247517-.4913592.0708905-.6445905-.1261931-.1532312-.1970836-.1376138-.4769924.0365905-.6558069l1.11-1.133-.5.289c-.2034689.1174438-.4612594.0773942-.6195066-.0962447-.1582471-.173639-.1742651-.4340297-.0384934-.6257553l.7-.986-.042.024c-.1651153.0950582-.3699033.0880182-.5281009-.0181547-.1581975-.1061728-.2423071-.2930238-.2168991-.4818453l.19-1.334c-.13247-.1018935-.205273-.2632345-.1940227-.4299798.0112503-.1667454.1050661-.3168447.2500227-.4000202l.279-.162c.1650587-.0944774.3694249-.0871327.5272756.0189498.1578508.1060825.2418508.2925322.2167244.4810502l-.135.944 1.137-.656c.2034152-.1163622.4603566-.0758339.6180782.0974918.1577216.1733258.1739018.4329402.0389218.6245082l-.7.986 1.676-.968c.216157-.1232114.4900183-.0687436.6425795.1278015.1525612.196545.1373975.4753583-.0355795.6541985l-1.11 1.134 2.082-1.2c.2187434-.1297091.5000021-.0745628.6535686.128145s.1305136.4883932-.0535686.663855l-1.567 1.524 2.666-1.538c.2184203-.1276802.4977941-.0720852.6506935.1294872s.1311343.4855915-.0506935.6615128l-2.05 1.991 3.34-1.928c.2208144-.1342809.5075757-.0781561.6614736.1294633s.1242133.4983097-.0684736.6705367l-2.277 2.143 3.594-2.075c.2277686-.1327124.5194462-.0657934.6665848.1529333s.0991876.5141157-.1095848.6750667l-.615.477 1.292-.745c.2244518-.1286386.5099659-.0648202.6582866.1471407.1483207.211961.1104625.5020607-.0872866.6688593l-1.82 1.519 2.816-1.625c.2207276-.1320893.5056598-.0751513.6586724.1316224.1530126.2067738.124171.4959044-.0666724.6683776l-2.766 2.583 4.236-2.457c.2190652-.1318893.5023394-.0772423.6566242.1266708s.1298566.4913741-.0566242.6663292l-2.809 2.7 4.36-2.517c.2256086-.1271264.5109479-.0609576.657579.1524896.1466312.2134471.106025.5035297-.093579.6685104l-1.37 1.107 1.065-.614c.2218647-.1262356.5031961-.0650788.6526317.1418714.1494355.2069502.1189881.4932377-.0706317.6641286l-1.091.969.516-.3c.1950396-.1114332.4404516-.0791206.6.079.1581206.1595484.1904332.4049604.079.6l-.893 1.538.222-.128c.1549945-.0985297.351531-.1041539.5119064-.0146489.1603754.0895049.2587712.2597296.2562855.4433739s-.1054527.3511436-.2681919.436275l-1.845 1.069c-.0757146.0437194-.1615697.066821-.249.067z" fill="#886ade"/><path id="Path" d="m37.3 59.3c-.2189527-.0001291-.4123522-.1427006-.4772424-.3518168-.0648902-.2091161.0138253-.4361269.1942424-.5601832l8.815-6.072-10.554 6.089c-.2346058.1253855-.5263122.0451285-.6637604-.18262-.1374483-.2277485-.0725112-.523243.1477604-.67238l.656-.414-.142.081c-.2347029.1405531-.538787.0663884-.6824238-.1664401-.1436368-.2328284-.0734897-.5378644.1574238-.6845599l8.693-5.722-8.17 4.716c-.2341527.123715-.5241564.0433988-.6613045-.1831476-.1371481-.2265465-.0738659-.5207372.1443045-.6708524l2.967-1.882-2.452 1.415c-.2341443.133112-.5316521.0568382-.672871-.1725078-.1412189-.2293459-.075396-.5293391.148871-.6784922l8.816-5.773-5.331 3.077c-.2322377.1273115-.5234633.0514462-.664069-.1729923-.1406056-.2244384-.0818101-.5195841.134069-.6730077l9.318-6.307-3.869 2.233c-.2301828.1290216-.5210052.0569569-.6643125-.1646141-.1433073-.2215711-.0897614-.5163656.1223125-.6733859l8.036-5.793-2.039 1.177c-.2271002.1265913-.5133226.0580067-.6583864-.1577626-.1450637-.2157693-.100553-.506709.1023864-.6692374l5.318-4.137c-.2012841-.007447-.3784458-.1349448-.4494329-.323443-.0709872-.1884982-.021937-.4011858.1244329-.539557l4.744-4.5c-.0141246-.1914802.0826442-.374136.249-.47l.683-.394c.2208144-.1342809.5075757-.0781561.6614736.1294633s.1242133.4983097-.0684736.6705367l-2.513 2.379 1.92-1.106c.2271002-.1265913.5133226-.0580067.6583864.1577626.1450637.2157693.100553.506709-.1023864.6692374l-4.876 3.791 4.319-2.493c.2301828-.1290216.5210052-.0569569.6643125.1646141.1433073.2215711.0897614.5163656-.1223125.6733859l-8.04 5.8 7.424-4.286c.2325262-.1307666.5267591-.0559509.6685809.1700024s.0812744.5234503-.1375809.6759976l-9.314 6.3 8.608-4.97c.2329673-.1327691.5291919-.0581284.6714287.1691822.1422368.2273105.0798406.5263539-.1414287.6778178l-8.83 5.783 7.93-4.576c.2349709-.1292146.5300387-.050062.6687925.179405.1387537.2294671.0717837.5275361-.1517925.675595l-2.957 1.874 2.058-1.188c.2347029-.1405531.538787-.0663884.6824238.1664401.1436368.2328284.0734897.5378644-.1574238.6845599l-8.7 5.725 7.341-4.238c.2346058-.1253855.5263122-.0451285.6637604.18262.1374483.2277485.0725112.523243-.1477604.67238l-1.054.666c.2369883-.0641804.4855097.0532053.5864713.2770118s.0244856.4878022-.1804713.6229882l-8.817 6.071 6.349-3.665c.2304184-.1322364.5240189-.0611893.6684864.1617642.1444674.2229535.0893536.5199576-.1254864.6762358l-4.588 3.316.709-.409c.23893-.1358451.5427102-.0533708.6801373.1846528.137427.2380237.0569695.5423443-.1801373.6813472l-9.168 5.292c-.2298251.1278768-.5194281.0558458-.6625685-.1647961s-.0908781-.5144564.1195685-.6722039l4.586-3.315-8.778 5.066c-.0742511.0441-.1586586.0682164-.245.07z" fill="#f7ad00"/><path id="Path" d="m37.023 53.322c-.2189527-.0001291-.4123522-.1427006-.4772424-.3518168-.0648902-.2091161.0138253-.4361269.1942424-.5601832l9.022-6.2-10.482 6.053c-.2354116.1379583-.5379577.061708-.6798637-.1713453-.1419059-.2330532-.070765-.5368414.1598637-.6826547l4.4-2.825-3.88 2.241c-.234023.1252853-.5251579.0458598-.6631351-.1809119-.1379772-.2267718-.0746978-.5218373.1441351-.6720881l4.187-2.672-3.668 2.113c-.234481.1270728-.5274228.0477401-.6657366-.1802909-.1383139-.2280309-.0733058-.5244809.1477366-.6737091l3.7-2.356-3.182 1.838c-.234023.1252853-.5251579.0458598-.6631351-.1809119-.1379772-.2267718-.0746978-.5218373.1441351-.6720881l4.855-3.1-4.336 2.5c-.2342478.1308833-.5300435.0535271-.6702262-.1752769s-.074765-.527467.1482262-.6767231l8.231-5.362-7.709 4.45c-.2346058.1253855-.5263122.0451285-.6637604-.18262-.1374483-.2277485-.0725112-.523243.1477604-.67238l1.6-1.01-1.088.628c-.2342478.1308833-.5300435.0535271-.6702262-.1752769s-.074765-.527467.1482262-.6767231l8.246-5.366-7.72 4.455c-.2334572.1253051-.5241289.0467367-.6626677-.1791186-.1385388-.2258554-.0768365-.5205686.1406677-.6718814l8.018-5.22-7.5 4.327c-.234481.1270728-.5274228.0477401-.6657366-.1802909-.1383139-.2280309-.0733058-.5244809.1477366-.6737091l3.805-2.42-3.283 1.894c-.234023.1252853-.5251579.0458598-.6631351-.1809119-.1379772-.2267718-.0746978-.5218373.1441351-.6720881l4.946-3.169-4.427 2.558c-.233204.1287421-.5263939.0520483-.6666872-.1743946-.1402933-.226443-.0784231-.5231151.1406872-.6746054l9.124-6.038-8.6 4.964c-.2329673.1327691-.5291919.0581284-.6714287-.1691822-.1422368-.2273105-.0798406-.5263539.1414287-.6778178l10.362-7-9.83 5.675c-.2336556.130691-.5287926.0541466-.6694787-.1736308-.140686-.2277774-.0769932-.5259521.1444787-.6763692l7.712-5.1-7.187 4.15c-.2335451.1328438-.5303244.0573638-.6720248-.1709163s-.0776546-.5277351.1450248-.6780837l7.7-5.131-7.173 4.144c-.2340027.1389988-.5362016.0652981-.6799386-.1658244s-.0762078-.5347601.1519386-.6831756l7.448-4.991-6.92 4c-.2335451.1328438-.5303244.0573638-.6720248-.1709163s-.0776546-.5277351.1450248-.6780837l6-4-5.473 3.16c-.2340569.1357068-.5336008.0606207-.6759704-.1694442s-.0759129-.5316408.1499704-.6805558l4.723-3.132-4.2 2.423c-.2318603.1330617-.527371.0602043-.6708066-.1653857-.1434357-.22559-.0840493-.5240996.1348066-.6776143l7.311-5.091-6.772 3.917c-.2333681.1382671-.5344194.0652417-.6785003-.1645824-.144081-.2298241-.078635-.5326135.1475003-.6824176l4.717-3.211-4.186 2.412c-.2328603.1351428-.5309189.0616362-.6742423-.1662803-.1433233-.2279164-.080443-.5283964.1422423-.6797197l3.9-2.668-3.368 1.947c-.2322938.1351768-.5298928.0625367-.6737842-.164462-.1438914-.2269988-.0825928-.5271392.1387842-.679538l3.608-2.5-3.073 1.775c-.2287194.1310429-.5198877.0620127-.6654353-.1577616-.1455476-.2197742-.0954752-.5147944.1144353-.6742384l5.3-3.984-4.749 2.739c-.2302873.1343427-.5254749.0643663-.6709518-.1590541-.1454768-.2234204-.0900639-.5216852.1259518-.6779459l2.9-2.117-2.356 1.36c-.2243015.1303348-.511027.0674761-.6602307-.1447421-.1492038-.2122182-.1113211-.5032983.0872307-.6702579l3.974-3.361-3.4 1.963c-.2206356.1300292-.503851.072325-.6560244-.1336626s-.1241014-.4936554.0650244-.6663374l2.646-2.464-2.055 1.187c-.2109099.12179714-.4788947.07390951-.6345697-.11339461-.1556749-.18730412-.1537451-.45952717.0045697-.64460539l1.458-1.706-.828.479c-.1702171.09821346-.3821823.08760821-.541746-.02710518-.1595637-.1147134-.2371332-.31226004-.198254-.50489482l.276-1.367c-.0914278-.0427772-.1675216-.11258796-.218-.2-.1382327-.23887839-.0567713-.54458242.182-.683l.439-.253c.1702171-.09821346.3821823-.08760821.541746.02710518.1595637.1147134.2371332.31226004.198254.50489482l-.22 1.084 2.394-1.383c.2106402-.1205642.4774423-.07244803.6326961.11410296.1552538.18655098.1541169.45765478-.0026961.64289704l-1.463 1.707 3.341-1.929c.2205392-.12807919.5021318-.06964847.6535046.13560283.1513729.2052513.124009.49153743-.0635046.66439717l-2.64 2.463 4.426-2.556c.2243015-.13033485.511027-.06747614.6602307.14474207.1492038.21221821.1113211.50329837-.0872307.67025793l-3.974 3.362 5.614-3.242c.2302873-.13434275.5254749-.06436632.6709518.15905409.1454768.22342042.0900639.52168518-.1259518.67794591l-2.899 2.116 3.772-2.179c.2292793-.13565759.5246567-.0677215.6716308.15447347.1469742.22219497.0939218.52060505-.1206308.67852653l-5.299 3.986 6.482-3.74c.2322938-.13517681.5298928-.06253672.6737842.16446202s.0825928.52713916-.1387842.67953798l-3.607 2.5 4.252-2.455c.2321092-.12908381.5246372-.05417632.6661393.17057796.1415021.22475424.0825963.52091954-.1341393.67442204l-3.905 2.666 4.464-2.577c.2328603-.1351428.5309189-.0616362.6742423.1662803.1433233.2279164.080443.5283964-.1422423.6797197l-4.714 3.21 5.307-3.065c.2318603-.1330617.527371-.0602043.6708066.1653857.1434357.22559.0840493.5240996-.1348066.6776143l-7.314 5.093 7.938-4.584c.234721-.145527.542973-.073221.6885.1615s.073221.542973-.1615.6885l-4.722 3.132 5.09-2.939c.2335451-.1328438.5303244-.0573638.6720248.1709163s.0776546.5277351-.1450248.6780837l-6 4 6.3-3.637c.2344449-.1460793.5429207-.0744449.689.16s.0744449.5429207-.16.689l-7.448 4.991 7.759-4.485c.2335451-.1328438.5303244-.0573638.6720248.1709163s.0776546.5277351-.1450248.6780837l-7.705 5.132 7.942-4.585c.2336556-.130691.5287926-.0541466.6694787.1736308.140686.2277774.0769932.5259521-.1444787.6763692l-7.708 5.1 7.794-4.5c.2329673-.1327691.5291919-.0581284.6714287.1691822.1422368.2273105.0798406.5263539-.1414287.6778178l-10.366 7 10.532-6.08c.234721-.145527.542973-.073221.6885.1615s.073221.542973-.1615.6885l-9.123 6.037 9.011-5.2c.2354116-.1379583.5379577-.061708.6798637.1713453.1419059.2330532.070765.5368414-.1598637.6826547l-4.948 3.17 4.742-2.743c.2354379-.13455.5352149-.0569022.6757281.1750261.1405133.2319283.0705395.5335888-.1577281.6799739l-3.8 2.417 3.456-2c.2342478-.1308833.5300435-.0535271.6702262.1752769s.074765.527467-.1482262.6767231l-8.029 5.227 7.643-4.408c.2347034-.1364868.5354374-.0607325.6774741.1706544.1420368.2313868.073465.5338394-.1544741.6813456l-8.233 5.364 7.793-4.5c.2363779-.1427656.5437344-.0668779.6865.1695s.0668779.5437344-.1695.6865l-1.61 1.013.987-.57c.2342478-.1308833.5300435-.0535271.6702262.1752769s.074765.527467-.1482262.6767231l-8.232 5.363 7.56-4.365c.2354116-.1379583.5379577-.061708.6798637.1713453.1419059.2330532.070765.5368414-.1598637.6826547l-4.842 3.093 3.981-2.3c.234481-.1270728.5274228-.0477401.6657366.1802909.1383139.2280309.0733058.5244809-.1477366.6737091l-3.707 2.359 2.8-1.614c.2354116-.1379583.5379577-.061708.6798637.1713453.1419059.2330532.070765.5368414-.1598637.6826547l-4.197 2.681 3.075-1.776c.2358256-.1438702.5436298-.0693256.6875.1665s.0693256.5436298-.1665.6875l-4.393 2.818 3.068-1.77c.23171-.1276221.5227312-.0526794.6639792.1709853s.08384.5186462-.1309792.6730147l-9.025 6.2 6.606-3.816c.2329673-.1327691.5291919-.0581284.6714287.1691822.1422368.2273105.0798406.5263539-.1414287.6778178l-2.8 1.9.07-.039c.2374252-.1242009.5305531-.0391619.6646466.1928199.1340935.2319817.0614797.5284321-.1646466.6721801l-11.989 6.927c-.2325262.1307666-.5267591.0559509-.6685809-.1700024s-.0812744-.5234503.1375809-.6759976l2.79-1.894-5.712 3.3c-.0763845.0424104-.1626502.0638043-.25.062z" fill="#ffc306"/><path id="Path" d="m28.883 53.389c-.174345.0003524-.3362842-.0901357-.4273618-.2388004-.0910775-.1486646-.09814-.334036-.0186382-.4891996l.344-.671-2.007 1.158c-.2205392.1280792-.5021318.0696485-.6535046-.1356028-.1513729-.2052513-.124009-.4915375.0635046-.6643972l.24-.223-1.191.686c-.2225581.1190253-.4989275.053525-.6443948-.1527234-.1454674-.2062483-.1144186-.4885713.0723948-.6582766l.666-.56-1.746 1.008c-.2243164.1264895-.5080183.0619132-.6554889-.1492026s-.1104702-.4997121.0854889-.6667974l2.177-1.815-3.423 1.977c-.225024.1298327-.5119893.0657046-.6603401-.147566s-.108657-.5046224.0913401-.670434l3.822-3.148-5.344 3.085c-.2302873.1343427-.5254749.0643663-.6709518-.1590541-.1454768-.2234204-.0900639-.5216852.1259518-.6779459l3.017-2.2-3.9 2.251c-.2280542.1290416-.517047.0601323-.6623353-.1579314-.1452882-.2180638-.0975826-.5113034.1093353-.6720686l5.76-4.397-7.021 4.054c-.2295527.1314921-.521805.0614183-.6667704-.1598726-.1449654-.2212908-.0924688-.5172061.1197704-.6751274l6.643-4.9-7.767 4.481c-.2328603.1351428-.5309189.0616362-.6742423-.1662803-.1433233-.2279164-.080443-.5283964.1422423-.6797197l4.633-3.168-5.188 3c-.2330829.1306613-.5277074.0549657-.6689423-.1718661-.1412349-.2268319-.0791592-.5246238.1409423-.6761339l4.327-2.907-4.8 2.773c-.2335451.1328438-.5303244.0573638-.6720248-.1709163s-.0776546-.5277351.1450248-.6780837l4.511-3-1.626.938c-.2333681.1382671-.5344194.0652417-.6785003-.1645824-.144081-.2298241-.078635-.5326135.1475003-.6824176l5.376-3.651c-.1922498-.0423674-.3417461-.1936017-.3818885-.3863284-.0401424-.1927266.0365413-.3910713.1958885-.5066716l5.057-3.688c-.0280792-.0258285-.0532306-.0546688-.075-.086-.1473399-.2157275-.1037694-.5085209.1-.672l3.728-3.046c.0021298-.176481.0971444-.3387659.25-.427l.974-.562c.2257586-.1294404.5130594-.0640705.6605892.1503047.1475298.2143751.1059565.5060712-.0955892.6706953l-.336.274c.1765483-.0065087.343708.079535.441.227.1446281.2225312.0901934.5192881-.124.676l-2.42 1.763 1.874-1.082c.2325262-.1307666.5267591-.0559509.6685809.1700024s.0812744.5234503-.1375809.6759976l-3.888 2.641 3.36-1.94c.2335451-.1328438.5303244-.0573638.6720248.1709163s.0776546.5277351-.1450248.6780837l-4.507 3 3.982-2.3c.2330829-.1306613.5277074-.0549657.6689423.1718661.1412349.2268319.0791592.5246238-.1409423.6761339l-4.327 2.91 3.8-2.194c.2324067-.1328499.5282158-.0590851.6710333.1673329s.0819688.5251514-.1380333.6776671l-4.638 3.171 4.107-2.371c.2295527-.1314921.521805-.0614183.6667704.1598726.1449654.2212908.0924688.5172061-.1197704.6751274l-6.643 4.905 6.1-3.522c.2280542-.1290416.517047-.0601323.6623353.1579314.1452882.2180638.0975826.5113034-.1093353.6720686l-5.76 4.39 5.21-3.008c.2302873-.1343427.5254749-.0643663.6709518.1590541.1454768.2234204.0900639.5216852-.1259518.6779459l-3.012 2.2 2.469-1.425c.2254575-.1330437.5153687-.0696598.6647344.1453323.1493656.2149921.1076129.5087994-.0957344.6736677l-3.825 3.15 3.259-1.881c.2247363-.1292165.510959-.0652384.6592891.1473681.1483301.2126064.1095663.5033193-.0892891.6696319l-2.177 1.814 1.61-.93c.2245855-.1309436.5120466-.0679354.6612702.144943.1492235.2128783.1104168.5045939-.0892702.671057l-.665.558.094-.053c.2206356-.1300292.503851-.072325.6560244.1336626s.1241014.4936554-.0650244.6663374l-.388.359c.1445829-.0118367.2875041.0374965.394.136.1603325.1528099.2010245.3928923.1.59l-.413.806c.2202652.0133175.4057552.1694546.4564509.3842197.0506956.2147652-.045392.4373692-.2364509.5477803l-1.118.645c-.0764111.043462-.1631072.0655678-.251.064z" fill="#a083ee"/><path id="Path" d="m6.812 43.081c-.21174874.0002685-.4007056-.1328752-.47169672-.3323692-.07099111-.199494-.0086206-.422074.15569672-.5556308l.361-.294-.447.258c-.2295527.1314921-.52180501.0614183-.6667704-.1598726-.14496539-.2212908-.0924688-.5172061.1197704-.6751274l5.337-3.935-5.847 3.378c-.23470287.1405531-.53878699.0663884-.6824238-.1664401-.14363681-.2328284-.07348967-.5378644.1574238-.6845599l3.824-2.509-3.952 2.28c-.23308287.1306613-.52770735.0549657-.66894229-.1718661-.14123493-.2268319-.07915925-.5246238.14094229-.6761339l7.128-4.771-7.36 4.248c-.23332909.1269664-.52520994.0493179-.66460758-.1768043-.13939765-.2261221-.07764593-.5217747.14060758-.6731957l4.751-3.118-4.813 2.777c-.23444488.1460793-.54292068.0744449-.689-.16s-.07444488-.5429207.16-.689l6.2-4.15-6.212 3.589c-.23477127.1336383-.53323995.0566316-.67405087-.1739091-.14081092-.2305408-.07304023-.5312411.15305087-.6790909l1.743-1.127-1.622.937c-.23252618.1307666-.52675914.0559509-.6685809-.1700024-.14182177-.2259533-.08127436-.5234503.1375809-.6759976l6.418-4.361-6.286 3.628c-.23240668.1328499-.52821577.0590851-.67103328-.1673329s-.08196881-.5251514.13803328-.6776671l6.178-4.233-6.007 3.467c-.23018285.1290216-.52100516.0569569-.66431246-.1646141-.1433073-.2215711-.08976142-.5163656.12231246-.6733859l7.673-5.526-7.36 4.25c-.23175483.1167643-.51431805.0368182-.65054325-.1840594-.13622519-.2208776-.08082683-.5092599.12754325-.6639406l2.709-1.818-2.286 1.32c-.23198312.1309881-.52592847.0570795-.6683699-.1680527-.14244144-.2251321-.0833463-.52241.1343699-.6759473l3.976-2.75-3.4 1.966c-.23028726.1343427-.52547493.0643663-.67095178-.1590541-.14547686-.2234204-.09006391-.5216852.12595178-.6779459l5.254-3.855-4.555 2.63c-.23334816.1425022-.53788698.0711396-.6836338-.1601958-.14574682-.2313355-.07864387-.5368412.1506338-.6858042l.954-.653-.191.111c-.22809892.1338167-.52095467.0668721-.66825828-.1527586-.1473036-.2196308-.09810783-.515985.11225828-.6762414l4.285-3.308-3.192 1.847c-.23120434.1356861-.52827755.0648879-.67343292-.160492-.14515538-.2253799-.0867349-.525133.13243292-.679508l.868-.621c-.18019958.0124134-.35356531-.071228-.456-.22-.14656552-.219318-.09754244-.5147696.112-.675l1.307-1-.023.014c-.22033537.1244491-.49891194.0646624-.64877854-.1392378-.1498666-.2039001-.12376913-.4876223.06077854-.6607622l2.077-1.9c-.21358567.1064735-.47264473.0471589-.61862414-.1416411-.1459794-.1888001-.13818024-.4544483.01862414-.6343589l2.091-2.437c-.07785355-.2276971.0175305-.478553.227-.597l.625-.361c.21117864-.1230723.4803821-.075428.6364928.1126483.1561107.1880762.15336458.4614495-.0064928.6463517l-.907 1.056 1.373-.793c.22033537-.1244491.49891194-.0646624.64877854.1392378.1498666.2039001.12376913.4876223-.06077854.6607622l-2.069 1.904 2.7-1.565c.22824204-.1318458.5196375-.063862.6659708.1553737.1463332.2192358.0973404.5144185-.1119708.6746263l-1.3 1 1.677-.968c.2312043-.1356861.5282776-.0648879.6734329.160492.1451554.2253799.0867349.525133-.1324329.679508l-.467.333.732-.422c.2279124-.1308241.5182022-.0628918.6643976.1554793.1461953.2183711.0983971.512647-.1093976.6735207l-4.283 3.308 5.042-2.912c.2328603-.1351428.5309189-.0616362.6742423.1662803.1433233.2279164.080443.5283964-.1422423.6797197l-.958.656 1.261-.728c.2296891-.1296297.5205695-.0585592.6646041.1623819s.0916869.5157667-.1196041.6736181l-5.261 3.852 6.021-3.476c.2327682-.1379387.5330334-.0656905.677577.1630348s.0809181.5309351-.143577.6819652l-3.973 2.747 4.506-2.6c.2330829-.1306613.5277074-.0549657.6689423.1718661.1412349.2268319.0791592.5246238-.1409423.6761339l-2.713 1.82 3.121-1.8c.2308022-.1338179.5260112-.0628564.670779.1612399s.0880924.5223777-.128779.6777601l-7.676 5.522 8.628-4.981c.2328603-.1351428.5309189-.0616362.6742423.1662803.1433233.2279164.080443.5283964-.1422423.6797197l-6.179 4.233 6.859-3.958c.2333681-.1382671.5344194-.0652417.6785003.1645824.144081.2298241.078635.5326135-.1475003.6824176l-6.417 4.361 7.086-4.093c.2347713-.1336383.5332399-.0566316.6740509.1739091.1408109.2305408.0730402.5312411-.1530509.6790909l-1.735 1.122 2.06-1.19c.2344449-.1460793.5429207-.0744449.689.16s.0744449.5429207-.16.689l-6.208 4.153 6.824-3.94c.2341443-.133112.5316521-.0568382.672871.1725078.1412189.2293459.075396.5293391-.148871.6784922l-4.748 3.116 5.241-3.026c.2340027-.1389988.5362016-.0652981.6799386.1658244s.0762078.5347601-.1519386.6831756l-7.121 4.77 6.105-3.526c.2347029-.1405531.538787-.0663884.6824238.1664401.1436368.2328284.0734897.5378644-.1574238.6845599l-5.093 3.342c.2082381.0155144.3849059.1588036.443066.3593559.0581602.2005522-.0144366.4161282-.182066.5406441l-6.779 4.996c.1613067.0685552.2749399.2165675.2994977.3901088.0245577.1735413-.043546.3472711-.1794977.4578912l-3.928 3.194c.0094502.1872802-.08668325.364104-.249.458l-1.115.644c-.07600837.0438886-.16223051.0669961-.25.067z" fill="#abde62"/><path id="Path" d="m29.357 24.862c-.1574375-.0002226-.3055751-.0745846-.3998172-.2006998s-.1235804-.2892523-.0791828-.4403002l.26-.885-.68.393c-.2060613.1184061-.466996.0754024-.6241634-.1028662-.1571674-.1782685-.1671324-.4425353-.0238366-.6321338l.269-.356-.49.283c-.206747.1202771-.4697217.0772839-.6274005-.1025723-.1576788-.1798563-.165894-.4461955-.0195995-.6354277l1.1-1.426-1.714.99c-.217772.1239843-.4936884.0676117-.6453756-.131857-.1516872-.1994686-.1322878-.4804159.0453756-.657143l1.113-1.1-1.569.906c-.2206356.1300292-.503851.072325-.6560244-.1336626s-.1241014-.4936554.0650244-.6663374l1.745-1.628-2.326 1.345c-.222085.1302413-.5067658.0705485-.6578259-.1379351s-.1191112-.4975954.0738259-.6680649l2.535-2.275-3.251 1.878c-.2271495.1357121-.5207051.070954-.6696751-.1477298-.1489701-.2186837-.1017701-.5155687.1076751-.6772702l2.139-1.7-2.649 1.529c-.2290632.1321979-.5214568.063148-.6671806-.1575572-.1457237-.2207053-.094369-.5167199.1171806-.6754428l1.977-1.491-2.423 1.4c-.2268147.12995-.5154475.0632557-.6622581-.1530278-.1468106-.2162836-.1022433-.50915.1022581-.6719722l4.168-3.307-4.968 2.868c-.2271272.1307942-.5167067.0640046-.6636035-.1530559-.1468968-.2170604-.1012506-.5107158.1046035-.6729441l5.242-4.1-6.155 3.555c-.2288588.1292299-.518701.0592157-.6633326-.1602346-.1446317-.2194502-.0946742-.513414.1143326-.6727654l5.629-4.218-6.487 3.745c-.2299138.1328235-.5235501.0627731-.6687427-.1595365s-.0912979-.5193359.1227427-.6764635l6.336-4.645-7.211 4.164c-.2333681.1382671-.5344194.0652417-.6785003-.1645824-.144081-.2298241-.078635-.5326135.1475003-.6824176l3.121-2.12-3.562 2.058c-.2313261.1333882-.5266402.061466-.670727-.1633522-.1440867-.2248181-.0860887-.52317937.131727-.6776478l3.28-2.321-3.79 2.189c-.2291432.13805672-.526358.07129207-.6744416-.15150276-.1480836-.22279482-.0945664-.52267823.1214416-.68049724l2.562-1.946c-.1919539-.05656884-.3316898-.22214065-.3551978-.4208709-.0235081-.19873025.0737402-.39233524.2471978-.4921291l5.5-3.177c.2285788-.13297291.5211739-.06496595.667677.15518608.1465031.22015204.0962484.51631292-.114677.67581392l-1.572 1.195 6.306-3.641c.2313261-.13338821.5266402-.06146595.670727.16335216.1440867.22481812.0860887.52317941-.131727.67764784l-3.278 2.324 6-3.466c.2325262-.13076655.5267591-.05595091.6685809.17000241s.0812744.52345026-.1375809.67599759l-3.126 2.12 3.315-1.913c.2299138-.13282353.5235501-.06277315.6687427.15953646.1451926.2223096.0912979.51933596-.1227427.67646354l-6.338 4.647 5.792-3.344c.2290632-.13219788.5214568-.06314799.6671806.15755725.1457237.22070523.094369.51671981-.1171806.67544275l-5.626 4.216 5.076-2.932c.227445-.13171071.5180356-.06484496.6650404.15302777s.1002333.51236608-.1070404.67397223l-5.242 4.1 4.684-2.7c.2268147-.12994997.5154475-.06325566.6622581.15302785.1468106.2162835.1022433.50914993-.1022581.67197215l-4.167 3.305 3.607-2.083c.2292793-.1356576.5246567-.0677215.6716308.1544735.1469742.2221949.0939218.520605-.1206308.6785265l-1.978 1.492 1.427-.825c.2269806-.1326577.5179234-.0668764.6657567.1505254.1478333.2174019.1020535.5121545-.1047567.6744746l-2.138 1.7 1.577-.911c.222085-.1302413.5067658-.0705485.6578259.1379351s.1191112.4975954-.0738259.6680649l-2.536 2.271 1.952-1.128c.2206356-.1300292.503851-.072325.6560244.1336626s.1241014.4936554-.0650244.6663374l-1.746 1.628 1.155-.666c.217772-.1239843.4936884-.0676117.6453756.131857.1516872.1994686.1322878.4804159-.0453756.657143l-1.114 1.1.514-.3c.206692-.119093.468728-.0755884.6258468.1039065.1571188.1794948.1655567.4449837.0201532.6340935l-1.095 1.424.449-.259c.2060613-.1184061.466996-.0754024.6241634.1028662.1571674.1782685.1671324.4425353.0238366.6321338l-.385.508c.1551374.0042376.2995121.0802738.3907702.2058028.0912582.1255289.1190527.2863176.0752298.4351972l-.327 1.114c.1184737.0373655.2184739.11808.28.226.1382327.2388784.0567713.5445824-.182.683l-.613.353c-.0759114.0442382-.1621395.0676923-.25.068z" fill="#1c85ad"/><g fill="#262626"><path id="Shape" d="m34.925 59.491c8.1596777-.0874072 15.7804974-4.0897885 20.484-10.758 4.187-6.085 4.322-12.712 4.322-19.8 0-.005 0-.008 0-.012-.2112209-13.4068788-11.0534604-24.2109992-24.461-24.375-.26-.007-1 .137-1 .531v47.981.008 6c-.001.361.356.434.655.425zm19.215-11.086c-2.7951128 4.110428-6.8424726 7.2087275-11.54 8.834-.853.293-6.1 2.1-6.868 1.489-.27-.214-.091-3.921 0-4.239.0740997-.3771893.1866888-.7457844.336-1.1.232-.016.462-.04.693-.062.5107574.0232418 1.0225623-.0038892 1.528-.081 4.7065617-.6385167 9.131564-2.6124335 12.751-5.688 3.0308946-2.5738019 5.3834364-5.8524574 6.851-9.548-.3838556 3.7190587-1.6716122 7.2877683-3.751 10.395zm-18.412-42.374c.494-1.326-.722-1.064 1.7-.426 3.837 1.008 7.161 1.637 10.546 3.961 6.3666388 4.4643187 10.1981994 11.7177528 10.297 19.493v.007c-.01.354-.03.706-.054 1.056 0 .054-.005.108-.008.162-.6791647 11.8472982-10.0615791 21.3415305-21.9 22.161-.243-.108-.371-.108-.433-.071-.0231209-.2456218-.0713734-.4882246-.144-.724-.728-2.662 0-6.681 0-9.433v-27.426c-.004-2.355-.824-6.557-.004-8.76z"/><path id="Shape" d="m6.362 49.159c.354.209 1.231.015 1.293-.4 1.194-.98 2.375-1.968 3.56-2.954v3.726c0 2.073 1 2.707 2.689 4.127 4.4536258 3.6783515 10.0389008 5.7093927 15.815 5.751.228.006 1.006-.141 1.006-.5v-6c0-.016-.011-.024-.013-.039.0055335-.0213553.0095436-.0430766.012-.065v-24c0-.015-.014-.023-.017-.037.030948-.278543.0386412-.5591798.023-.839v-2.947c.0255786-.0594966.02338-.1272858-.006-.185v-23.991c0-.012-.02-.018-.032-.027.017-.071-.05-.116-.293-.114-2.0439751.02077403-4.0792441.26964838-6.068.742-.186.032-.354.076-.4.088s-.136.037-.252.075c-.944.258-1.87.568-2.784.918-.165.055-.322.114-.442.163-.2.082-.4.16666667-.6.254-.033.014-.076.035-.12.059-2.3529988 1.03765189-4.5332583 2.42944325-6.465 4.127-.124.109-.109.175-.035.214-.275.251-.549.5-.813.764-.048.047-.093.1-.141.145-.3.061-.565.226-.565.506v4.98c-1.2-1.1186667-2.4-2.2373333-3.6-3.356-.39078387-.2895848-.93732318-.236443-1.265.123-4.03428955 4.5063768-6.31455568 10.3126265-6.425 16.36-.08440951.0586616-.13943734.1508606-.151.253 0 8.152.515 15.383 5.968 21.976.02165687.0516232.06658099.0898644.121.103zm1.3-6.189c.014-.049.03-.093.046-.137l16.6-14.521c.092 1.885.3 4.244-.281 5.3-2.8666667 2.5073333-5.7333333 5.0146667-8.6 7.522-2.561 2.206-5.153 4.37-7.766 6.516zm17.787-9.344c.0504756-.0210754.098167-.0482796.142-.081l3.209-2.805c.15-.131.312-.261.471-.39v22.189c-6.092679-.3386032-11.8295683-2.9777653-16.051-7.384-.085064-.3483513-.0224612-.7163684.173-1.017.0445088-.0914589.0942582-.1802731.149-.266 1.566-1.318 3.1213333-2.6513333 4.666-4 .252-.19.48-.368.663-.528l.921-.806c1.784-1.405 4.597-3.116 5.662-4.912zm-19.563 8.967c.112.143.211.292.327.434v.107c-.24699384 1.0649212-.30554526 2.1648757-.173 3.25-1.92464554-2.9332385-3.19101994-6.2486012-3.712-9.718.91621171 2.1255809 2.11283836 4.1189497 3.558 5.927zm6.779 5.462v-1.562c4.4994395 4.2648262 10.4130806 6.7214261 16.61 6.9v5.128c-5.6786413-.2801258-11.0708166-2.5779882-15.206-6.48-1.586-1.504-1.404-1.896-1.404-3.986zm4.803-43.055c1.104989-.72752196 2.2679037-1.36299444 3.477-1.9.2-.087.4-.171.6-.254 2.411068-.97023469 4.9880834-1.46138591 7.587-1.446.04 0 .1-.005.144-.008v22.008l-16.057-14.95c.165-.174.331-.348.5-.519.265-.262.54-.513.815-.765.168951-.0587036.3265727-.14597054.466-.258.7807296-.68847254 1.6051122-1.32579918 2.468-1.908zm-4.3 5.253 16.1 14.991v2.826c0 .187-.079.874.039.852-.068.061-.146.119-.205.165-.6.468-1.152 1.008-1.724 1.507l-1.439 1.258c.116-1.576-.178-3.559-.209-4.835.0156326-.0309506.0231997-.0653464.022-.1.0039907-.0238341.0039907-.0481659 0-.072-.0036883-.008532-.0083886-.0165898-.014-.024-.0123761-.0476522-.037229-.0911449-.072-.126-4.166-3.8766667-8.3326667-7.755-12.5-11.635zm-5.727 1.327c5.548 5.17 11.0986667 10.3366667 16.652 15.5l-14.317 12.529c-.95778685.6531642-1.85865933 1.3861057-2.693 2.191-7.04638129-8.8890435-6.89698164-21.5003771.358-30.22z"/></g></g></svg>