<svg height="512" viewBox="0 0 60 56" width="512" xmlns="http://www.w3.org/2000/svg"><g id="020---Benzene" fill="none"><path id="Path" d="m28.762 32.053c-.2179249-.0002653-.4105775-.141646-.4761907-.349459-.0656131-.2078131.0109278-.4341868.1891907-.559541l3.007-2.114-3.762 2.17c-.229416.1334891-.5231565.0644561-.6690977-.1572468-.1459412-.221703-.0932171-.5188044.1200977-.6767532l6.61-4.92-7.966 4.6c-.23158.1294027-.5239091.0554223-.6660571-.1685604-.142148-.2239828-.0846277-.5199909.1310571-.6744396l5.6-3.891-6.592 3.806c-.2328603.1351428-.5309189.0616362-.6742423-.1662803-.1433233-.2279164-.080443-.5283964.1422423-.6797197l6.082-4.157-7.071 4.085c-.2330829.1306613-.5277074.0549657-.6689423-.1718661-.1412349-.2268319-.0791592-.5246238.1409423-.6761339l5.543-3.7-6.408 3.7c-.2341443.133112-.5316521.0568382-.672871-.1725078-.1412189-.2293459-.075396-.5293391.148871-.6784922l5.3-3.478-6.05 3.492c-.2361017.1433179-.5436821.0681017-.687-.168s-.0681017-.5436821.168-.687l1.364-.868-1.48.854c-.2342478.1308833-.5300435.0535271-.6702262-.1752769s-.074765-.527467.1482262-.6767231l3.806-2.455-3.469 2c-.2335451.1328438-.5303244.0573638-.6720248-.1709163s-.0776546-.5277351.1450248-.6780837l6.547-4.356-6.02 3.472c-.23171.1276221-.5227312.0526794-.6639792-.1709853s-.08384-.5186462.1309792-.6730147l7.487-5.155-6.955 4.015c-.2312043.1356861-.5282776.0648879-.6734329-.160492-.1451554-.2253799-.0867349-.525133.1324329-.679508l7.616-5.441-7.075 4.084c-.2318603.1330617-.527371.0602043-.6708066-.1653857-.1434357-.22559-.0840493-.5240996.1348066-.6776143l4.965-3.465-4.429 2.557c-.2314518.1313128-.5252013.0583356-.6682918-.1660259-.1430904-.2243616-.0853808-.5214879.1312918-.6759741l3.895-2.732-3.358 1.937c-.2269587.1282325-.5143539.0605795-.6602778-.1554298-.145924-.2160093-.1014061-.5078844.1022778-.6705702l5.36-4.2-3.89 2.245c-.2374252.1242009-.5305531.0391619-.6646466-.1928199-.1340935-.2319817-.0614797-.5284321.1646466-.6721801l10.019-5.786c.2276227-.13472937.5207984-.06886746.6689241.15027378.1481257.21914123.0999482.51573645-.1099241.67672622l-5.36 4.2 7.014-4.049c.2314518-.13131281.5252013-.05833565.6682918.16602591.1430904.22436156.0853808.52148787-.1312918.67597409l-3.895 2.734 4.742-2.737c.2318603-.13306172.527371-.0602043.6708066.16538571.1434357.22559001.0840493.52409963-.1348066.67761429l-4.969 3.465 5.912-3.412c.2312043-.13568612.5282776-.06488787.6734329.16049201.1451554.22537988.0867349.525133-.1324329.67950799l-7.617 5.442 8.933-5.157c.2324067-.13284986.5282158-.05908515.6710333.16733285s.0819688.52515145-.1380333.67766715l-7.484 5.152 8.626-4.979c.2340027-.1389988.5362016-.0652981.6799386.1658244s.0762078.5347601-.1519386.6831756l-6.546 4.358 7.47-4.314c.2355494-.1441463.5433537-.0700494.6875.1655s.0700494.5433537-.1655.6875l-3.819 2.464 4.052-2.339c.2361017-.1433179.5436821-.0681017.687.168s.0681017.5436821-.168.687l-1.338.851 1.01-.583c.2341443-.133112.5316521-.0568382.672871.1725078.1412189.2293459.075396.5293391-.148871.6784922l-5.3 3.48 4.777-2.757c.2335451-.1328438.5303244-.0573638.6720248.1709163s.0776546.5277351-.1450248.6780837l-5.545 3.7 5.019-2.9c.2321092-.1290838.5246372-.0541763.6661393.170578.1415021.2247542.0825963.5209195-.1341393.674422l-6.08 4.156 5.548-3.2c.2309506-.1251572.5193699-.0502601.6602447.1714532.1408749.2217132.0861633.5146329-.1252447.6705468l-5.6 3.89 5.063-2.922c.229416-.1334891.5231565-.0644561.6690977.1572468.1459412.221703.0932171.5188044-.1200977.6767532l-6.612 4.921 6.063-3.5c.2314518-.1313128.5252013-.0583356.6682918.1660259.1430904.2243616.0853808.5214879-.1312918.6759741l-3.005 2.114 2.47-1.426c.2374252-.1242009.5305531-.0391619.6646466.1928199.1340935.2319817.0614797.5284321-.1646466.6721801l-12.206 7.046c-.0757806.0445497-.1620945.0680271-.25.068z" fill="#f5ab01"/><path id="Path" d="m16.372 55.3c-.2139336-.0029679-.402271-.1417255-.4685035-.34517-.0662325-.2034444.0043196-.4264849.1755035-.55483l3.757-2.721-4.759 2.747c-.2292016.1303039-.5201978.0602449-.6649792-.1600976s-.0935911-.5152436.1169792-.6739024l6.163-4.574-7.445 4.3c-.2301828.1290216-.5210052.0569569-.6643125-.1646141-.1433073-.2215711-.0897614-.5163656.1223125-.6733859l6.918-4.984-8.185 4.725c-.2312043.1356861-.5282776.0648879-.6734329-.160492-.1451554-.2253799-.0867349-.525133.1324329-.679508l8.38-5.986-9.782 5.637c-.23290614.1254293-.52320856.0477402-.66233729-.1772508s-.0789338-.5194187.13733729-.6717492l4.8-3.167-5.584 3.221c-.23424781.1308833-.53004345.0535271-.67022619-.1752769-.14018273-.228804-.07476503-.527467.14822619-.6767231l3.436-2.224-4.043 2.339c-.23389628.1269547-.52624912.04845-.66508708-.1785941-.13883795-.227044-.07550148-.5230536.14408708-.6734059l3.652-2.354-3.777 2.177c-.23424781.1308833-.53004345.0535271-.67022619-.1752769-.14018273-.228804-.07476503-.527467.14822619-.6767231l4.991-3.251-4.6 2.655c-.23332909.1269664-.52520994.0493179-.66460758-.1768043-.13939765-.2261221-.07764593-.5217747.14060758-.6731957l5.026-3.3-4.5 2.6c-.23198312.1309881-.52592847.0570795-.6683699-.1680527-.14244144-.2251321-.0833463-.52241.1343699-.6759473l7.552-5.229-7.021 4.058c-.23344605.1352991-.53213452.0609722-.67494472-.1679561-.1428102-.2289282-.07822416-.5298733.14594472-.6800439l4.25-2.857-3.721 2.147c-.2310609.1298083-.52326795.0567757-.66608655-.1664779s-.08662801-.5191613.12808655-.6745221l5.71-4.018-5.172 2.986c-.23265.1288599-.5254615.0530472-.66634439-.1725252s-.08052968-.5219566.13734439-.6744748l1.778-1.2-1.249.72c-.2328603.1351428-.53091891.0616362-.67424226-.1662803-.14332335-.2279164-.08044309-.5283964.14224226-.6797197l1.627-1.11-1.095.632c-.23041837.1322364-.52401892.0611893-.66848638-.1617642-.14446747-.2229535-.0893536-.5199576.12548638-.6762358l3.045-2.2-1.589.917c-.23742522.1242009-.53055313.0391619-.66464661-.1928199-.13409349-.2319817-.06147969-.5284321.16464661-.6721801l10.008-5.78c.2304184-.1322364.5240189-.0611893.6684864.1617642.1444674.2229535.0893536.5199576-.1254864.6762358l-3.043 2.202 4.167-2.4c.2328603-.1351428.5309189-.0616362.6742423.1662803.1433233.2279164.080443.5283964-.1422423.6797197l-1.631 1.104 2.218-1.28c.2329673-.1327691.5291919-.0581284.6714287.1691822.1422368.2273105.0798406.5263539-.1414287.6778178l-1.775 1.2 2.364-1.367c.2313261-.1333882.5266402-.061466.670727.1633522.1440867.2248181.0860887.5231794-.131727.6776478l-5.709 4.017 6.753-3.9c.2329673-.1327691.5291919-.0581284.6714287.1691822.1422368.2273105.0798406.5263539-.1414287.6778178l-4.257 2.861 5.039-2.906c.2319831-.1309881.5259285-.0570795.6683699.1680527.1424414.2251321.0833463.52241-.1343699.6759473l-7.548 5.216 8.714-5.03c.2336556-.130691.5287926-.0541466.6694787.1736308.140686.2277774.0769932.5259521-.1444787.6763692l-5.024 3.3 5.815-3.356c.2334572-.1253051.5241289-.0467367.6626677.1791186.1385388.2258554.0768365.5205686-.1406677.6718814l-4.994 3.253 5.438-3.14c.2330366-.1184393.5179746-.0373813.6537762.1859835s.0766257.5136375-.1357762.6660165l-3.649 2.35 3.366-1.942c.2347713-.1336383.5332399-.0566316.6740509.1739091.1408109.2305408.0730402.5312411-.1530509.6790909l-3.432 2.22 2.911-1.68c.2329061-.1254293.5232086-.0477402.6623373.1772508s.0789338.5194187-.1373373.6717492l-4.8 3.169 4.276-2.468c.2312043-.1356861.5282776-.0648879.6734329.160492.1451554.2253799.0867349.525133-.1324329.679508l-8.38 5.987 7.839-4.526c.2301828-.1290216.5210052-.0569569.6643125.1646141.1433073.2215711.0897614.5163656-.1223125.6733859l-6.917 4.983 6.375-3.68c.2292016-.1303039.5201978-.0602449.6649792.1600976s.0935911.5152436-.1169792.6739024l-6.164 4.574 5.616-3.241c.2304184-.1322364.5240189-.0611893.6684864.1617642.1444674.2229535.0893536.5199576-.1254864.6762358l-3.761 2.727 3.037-1.753c.23893-.1358451.5427102-.0533708.6801373.1846528.137427.2380237.0569695.5423443-.1801373.6813472l-11.415 6.591c-.0754832.0456007-.1618163.0701194-.25.071z" fill="#866adc"/><path id="Path" d="m41.953 55.169c-.2152152 0-.4062846-.137715-.4743416-.3418861-.0680571-.2041711.0021694-.4289848.1743416-.5581139l5.073-3.77-6.207 3.583c-.2330829.1306613-.5277074.0549657-.6689423-.1718661-.1412349-.2268319-.0791592-.5246238.1409423-.6761339l1.309-.877-1.858 1.072c-.233204.1287421-.5263939.0520483-.6666872-.1743946-.1402933-.226443-.0784231-.5231151.1406872-.6746054l1.556-1.035-2.12 1.224c-.2319831.1309881-.5259285.0570795-.6683699-.1680527-.1424414-.2251321-.0833463-.52241.1343699-.6759473l5.849-4.05-6.857 3.958c-.2318603.1330617-.527371.0602043-.6708066-.1653857-.1434357-.22559-.0840493-.5240996.1348066-.6776143l7.941-5.551-9.195 5.308c-.2322938.1351768-.5298928.0625367-.6737842-.164462-.1438914-.2269988-.0825928-.5271392.1387842-.679538l9.269-6.426-10.584 6.11c-.2324067.1328499-.5282158.0590851-.6710333-.1673329s-.0819688-.5251514.1380333-.6776671l9.968-6.854-10.325 5.961c-.152731.0927104-.3433208.0968973-.4999759.0109836-.1566551-.0859138-.2555759-.2488758-.2595-.4275-.003924-.1786242.0877449-.3457732.2404759-.4384836l1.46-.931-.941.542c-.2338963.1269547-.5262491.04845-.6650871-.1785941-.1388379-.227044-.0755015-.5230536.1440871-.6734059l2.819-1.826-2.3 1.327c-.2342478.1308833-.5300435.0535271-.6702262-.1752769s-.074765-.527467.1482262-.6767231l2.524-1.644-2 1.155c-.2318603.1330617-.527371.0602043-.6708066-.1653857-.1434357-.22559-.0840493-.5240996.1348066-.6776143l6.964-4.87-6.429 3.712c-.2300482.1308569-.5222207.059778-.6664488-.1621318-.1442281-.2219099-.0905463-.5177734.1224488-.6748682l6.918-5.036-6.374 3.68c-.2310609.1298083-.523268.0567757-.6660866-.1664779-.1428185-.2232536-.086628-.5191613.1280866-.6745221l4.2-2.964-3.658 2.111c-.2269587.1282325-.5143539.0605795-.6602778-.1554298-.145924-.2160093-.1014061-.5078844.1022778-.6705702l5.328-4.171-3.857 2.227c-.2374252.1242009-.5305531.0391619-.6646466-.1928199-.1340935-.2319817-.0614797-.5284321.1646466-.6721801l10.004-5.78c.2276227-.1347294.5207984-.0688675.6689241.1502738.1481257.2191412.0999482.5157364-.1099241.6767262l-5.327 4.169 6.98-4.03c.2310609-.1298083.523268-.0567757.6660866.1664779.1428185.2232536.086628.5191613-.1280866.6745221l-4.195 2.964 5.088-2.938c.2300482-.1308569.5222207-.059778.6664488.1621318.1442281.2219099.0905463.5177734-.1224488.6748682l-6.919 5.037 8.227-4.75c.2318603-.1330617.527371-.0602043.6708066.1653857.1434357.22559.0840493.5240996-.1348066.6776143l-6.966 4.872 8.121-4.688c.2334572-.1253051.5241289-.0467367.6626677.1791186.1385388.2258554.0768365.5205686-.1406677.6718814l-2.521 1.643 3.133-1.808c.2347713-.1336383.5332399-.0566316.6740509.1739091.1408109.2305408.0730402.5312411-.1530509.6790909l-2.812 1.821 3.432-1.981c.2354116-.1379583.5379577-.061708.6798637.1713453.1419059.2330532.070765.5368414-.1598637.6826547l-1.477.942 1.896-1.092c.23171-.1276221.5227312-.0526794.6639792.1709853s.08384.5186462-.1309792.6730147l-9.966 6.853 10.053-5.806c.2322938-.1351768.5298928-.0625367.6737842.164462.1438914.2269988.0825928.5271392-.1387842.679538l-9.268 6.426 8.733-5.038c.2318603-.1330617.527371-.0602043.6708066.1653857.1434357.22559.0840493.5240996-.1348066.6776143l-7.943 5.552 7.408-4.276c.2319831-.1309881.5259285-.0570795.6683699.1680527.1424414.2251321.0833463.52241-.1343699.6759473l-5.855 4.049 5.317-3.07c.233204-.1287421.5263939-.0520483.6666872.1743946.1402933.226443.0784231.5231151-.1406872.6746054l-1.563 1.04 1.037-.6c.2330829-.1306613.5277074-.0549657.6689423.1718661.1412349.2268319.0791592.5246238-.1409423.6761339l-1.3.872.773-.445c.2292016-.1303039.5201978-.0602449.6649792.1600976s.0935911.5152436-.1169792.6739024l-5.066 3.77 4.455-2.571c.1549945-.0985297.351531-.1041539.5119064-.0146489.1603754.0895049.2587712.2597296.2562855.4433739s-.1054527.3511436-.2681919.436275l-11.955 6.896c-.0749343.0440829-.1600681.0678652-.247.069z" fill="#d92936"/><g fill="#262626"><path id="Shape" d="m36.4 28.987c2.312-1.4 4.829-2.19 5.328-4.99.59-3.315 0-7.2 0-10.572 0-.012-.009-.019-.01-.031.006499-.0274959.008525-.0558595.006-.084-.682-2.655-4.314-3.871-6.473-5.18-1.5-.909-2.905-2.116-4.527-2.385v-4.939c0-.4-1.448-.145-1.448.388v4.579c-.134.028-.268.061-.405.1-2.5.788-5.046 3-7.264 4.344-2.035 1.233-3.145 1.78-3.335 4.268-.3664934 3.2634093-.3664934 6.5575907 0 9.821.42 2.456 2.371 3.071 4.392 4.3 1.869 1.133 4.771 3.837 7.157 3.841 2.209.005 4.847-2.41 6.579-3.46zm-16.21-3.859c-1.342-2.34-.462-6.761-.462-9.41 0-3.469 1.517-4.212 4.373-5.943 2.827-1.714 4.643-3.769 7.755-2.265 2.226 1.077 7.74 3.591 8.416 6.179v8.593c0 3.475-1.522 4.215-4.373 5.943-2.54 1.54-4.628 3.806-7.467 2.439-2.36-1.136-6.932-3.25-8.242-5.536z"/><path id="Path" d="m29.45 10.34-5.595 3.391c-.544.33-1.3.636-1.521 1.276-.1775251 1.0535554-.1970731 2.1276829-.058 3.187 0 .193 1.448 0 1.448-.388-.0920044-.9337391-.0920044-1.8742609 0-2.808.194-.893 1.137-1.2 1.847-1.632l4.979-3.018c.588-.356-.85-.161-1.1-.008z"/><path id="Path" d="m22.265 22.051v1c0 .773 1.47.57 1.47-.1v-1c0-.775-1.47-.572-1.47.1z"/><path id="Path" d="m10.724 40.806c-.1000072-.9333287-.1000072-1.8746713 0-2.808.2-.828 1.179-1.169 1.861-1.582l4.979-3.016c.629-.382-.822-.294-1.128-.109l-5.594 3.392c-.686.415-1.41.713-1.56 1.584-.0815067.9745517-.08351333 1.9541226-.006 2.929 0 .304 1.448.077 1.448-.39z"/><path id="Path" d="m9.276 45.194v1c0 .336 1.448.1 1.448-.388v-1c0-.336-1.448-.099-1.448.388z"/><path id="Path" d="m42.542 33.1-5.595 3.391c-.593.359-1.38.7-1.616 1.406-.1709866 1.0541523-.1905172 2.1273243-.058 3.187 0 .647 1.454.361 1.454-.162-.0880027-.9339315-.0880027-1.8740685 0-2.808.166-.81 1.1-1.109 1.752-1.5l4.979-3.018c.836-.512-.41-.806-.916-.496z"/><path id="Path" d="m35.267 45.059v1c0 .741 1.466.513 1.466-.118v-1c0-.741-1.466-.513-1.466.118z"/><path id="Shape" d="m1.291 51.317 4.714-2.353c1.088 1.486 3.095 2.236 4.795 3.27 1.725 1.045 4 3.138 6.165 3.01 2.251-.133 4.767-2.421 6.532-3.491 2.261-1.37 4.752-2.136 5.23-4.871.581-3.316 0-7.2 0-10.572-.7-2.739-4.938-4.19-7.174-5.546-1.964-1.191-3.316-2.43-5.63-1.7s-4.587 2.684-6.647 3.932c-2.008 1.217-3.578 1.731-4 4.124-.49749371 3.3657154-.49749371 6.7862846 0 10.152.06103074.338323.16451503.6675912.308.98l-4.875 2.431c-.896.447-.077.963.582.634zm5.433-12.717c0-3.9 2.236-4.707 5.31-6.571 2.975-1.8 3.947-3.155 7.05-1.442 2.281 1.258 7.471 3.3 8.192 6.108v8.7c0 3.879-2.23 4.7-5.31 6.571-3.118 1.889-4.157 3.2-7.391 1.236-2.288-1.387-7.057-3.033-7.851-5.9-.689-2.495 0-6.111 0-8.702z"/><path id="Shape" d="m59.586 32.686c-.221-.177-.815.06-1.019.161l-4.44 2.216c-1.3-1.82-4.092-2.843-5.873-3.922-2.048-1.242-3.9-3.026-6.378-2.243-2.5.789-5.044 3-7.264 4.34-2.031 1.232-3.148 1.773-3.338 4.256-.3679999 3.2633248-.3679999 6.5576752 0 9.821.419 2.445 2.373 3.06 4.387 4.28 1.873 1.136 4.765 3.832 7.155 3.833 2.212 0 4.845-2.407 6.579-3.458 2.3-1.4 4.83-2.19 5.331-4.979.595-3.311 0-7.2 0-10.572 0-.011-.008-.017-.009-.027.0072879-.0266825.0096599-.0544683.007-.082-.0626042-.2343649-.1494041-.4615862-.259-.678l4.968-2.479c.242-.121.377-.289.153-.467zm-10.686 18.557c-2.546 1.543-4.625 3.805-7.469 2.431-2.366-1.142-6.933-3.25-8.245-5.544-1.342-2.347-.464-6.762-.464-9.417 0-3.475 1.51-4.222 4.37-5.956 2.832-1.716 4.641-3.768 7.757-2.257 2.237 1.084 7.747 3.592 8.421 6.193v8.594c.004 3.481-1.51 4.225-4.37 5.956z"/></g></g></svg>