<svg height="507pt" viewBox="0 -2 507.32583 507" width="507pt" xmlns="http://www.w3.org/2000/svg"><path d="m276.035156 503.265625c-1.882812-.003906-3.546875-1.242187-4.085937-3.046875-.539063-1.808594.171875-3.753906 1.75-4.789062l79.359375-52.050782-96.957032 55.996094c-1.988281 1.070312-4.464843.40625-5.652343-1.515625-1.1875-1.917969-.671875-4.429687 1.171875-5.730469l117.214844-77.527344-112.734376 65.09375c-2.003906 1.101563-4.523437.425782-5.707031-1.53125-1.183593-1.957031-.613281-4.5 1.296875-5.765624l64-40.574219-59.589844 34.40625c-2 1.082031-4.5.40625-5.679687-1.539063-1.179687-1.945312-.625-4.476562 1.261719-5.75l76.355468-48.640625-71.9375 41.523438c-2 1.117187-4.523437.457031-5.71875-1.496094-1.195312-1.949219-.636718-4.5 1.265626-5.773437l110.625-71.988282-106.171876 61.296875c-2.007812 1.070313-4.5.378907-5.671874-1.574219-1.167969-1.949218-.597657-4.476562 1.292968-5.738281l13.144532-8.140625-8.765626 5.050782c-2 1.117187-4.523437.457031-5.71875-1.496094-1.195312-1.953125-.636718-4.5 1.265626-5.773438l113.082031-73.636718-108.628907 62.714843c-2 1.097657-4.511718.429688-5.699218-1.519531s-.632813-4.488281 1.261718-5.761719l100.601563-64.851562-96.164063 55.492187c-2.015624 1.160156-4.589843.496094-5.789062-1.5-1.195312-1.992187-.578125-4.578125 1.394531-5.8125l50.132813-31.464844-45.738282 26.394532c-2.003906 1.101562-4.523437.425781-5.707031-1.53125-1.183593-1.957032-.613281-4.5 1.296875-5.765625l65.464844-41.386719-61.054688 35.242188c-2.007812 1.074218-4.5.382812-5.671874-1.570313-1.167969-1.953125-.597657-4.480469 1.292968-5.742187l17.417969-10.8125-13.039063 7.519531c-1.988281 1.058593-4.457031.386719-5.636718-1.53125-1.179688-1.917969-.664063-4.421875 1.175781-5.722657l113.78125-74.511718-109.320313 63.101562c-2.015624 1.136719-4.570312.460938-5.753906-1.527344-1.1875-1.984374-.578125-4.554687 1.375-5.792968l17.777344-11.09375-13.398438 7.730468c-2 1.101563-4.511718.433594-5.699218-1.515624-1.1875-1.949219-.632813-4.488282 1.261718-5.761719l88.414063-56.953125-83.976563 48.53125c-2 1.117187-4.523437.457031-5.71875-1.496094-1.195312-1.953125-.636718-4.5 1.265626-5.773438l96.621093-62.851562-92.160156 53.214844c-2 1.070312-4.488281.386718-5.664063-1.558594-1.171874-1.941406-.617187-4.464844 1.261719-5.738281l37.078125-23.320313-32.675781 18.859375c-2 1.101563-4.511719.429688-5.699219-1.519531-1.1875-1.945312-.628906-4.484375 1.261719-5.757812l74.453125-47.890626-69.972656 40.414063c-2 1.199219-4.597656.566406-5.824219-1.421875-1.222656-1.984375-.625-4.589844 1.34375-5.839844l95.71875-62.992187-91.289063 52.667969c-2 1.066406-4.492187.382812-5.664062-1.558594-1.171875-1.945313-.617188-4.464844 1.261719-5.738282l32.578125-20.582031-28.175782 16.28125c-1.996093 1.097657-4.5.4375-5.691406-1.503906-1.195312-1.941406-.652344-4.476563 1.230469-5.757813l78.164063-51.140624-73.703126 42.53125c-1.988281 1.113281-4.503906.46875-5.707031-1.46875-1.207031-1.933594-.675781-4.476563 1.203125-5.769532l92.054688-61.703125-87.550782 50.535157c-1.984374 1.097656-4.484374.449218-5.6875-1.472657-1.199218-1.925781-.683593-4.457031 1.175782-5.757812l85.953125-57.871094-81.441407 47.015625c-2 1.085938-4.5.410156-5.679687-1.535156-1.179687-1.945313-.625-4.476563 1.261719-5.75l15.425781-9.832032-11.007813 6.367188c-2.003906 1.140625-4.550781.484375-5.75-1.484375-1.203124-1.96875-.625-4.53125 1.304688-5.792969l33.46875-21.640625-29.015625 16.75c-2.007813 1.148438-4.566406.484375-5.765625-1.496093-1.199219-1.976563-.601562-4.550782 1.347656-5.800782l4.09375-2.558594c-2.023437.996094-4.476562.242188-5.59375-1.722656-1.113281-1.964844-.503906-4.457031 1.386719-5.683594l61.175781-41.515624-56.652344 32.65625c-1.96875 1.125-4.476562.507812-5.703124-1.398438-1.226563-1.910156-.746094-4.445312 1.09375-5.769531l69.761718-49.613281-65.152344 37.605468c-1.96875 1.097656-4.449218.472656-5.667968-1.421875-1.214844-1.898437-.746094-4.414062 1.070312-5.746093l54.210938-38.5-49.613282 28.628906c-1.988281 1.132812-4.515624.496094-5.730468-1.445313-1.210938-1.9375-.679688-4.492187 1.207031-5.78125l17.417969-11.777343-12.894532 7.449218c-1.984374 1.117188-4.496093.476563-5.703124-1.449218-1.210938-1.929688-.695313-4.46875 1.171874-5.769532l10.417969-7.101562-5.886719 3.414062c-1.972656 1.078125-4.445312.4375-5.648437-1.460937-1.203125-1.898438-.726563-4.40625 1.09375-5.730469l5.640625-3.902344-1.085938.625c-1.945312 1.101563-4.410156.511719-5.652343-1.347656-1.238281-1.863281-.832031-4.363281.933593-5.734375l20.328126-15.574219-15.609376 8.984375c-1.925781 1.089844-4.367187.523438-5.621093-1.300781-1.25-1.828125-.894531-4.308594.816406-5.714844l9.242187-7.449218-4.460937 2.5625c-1.84375 1.0625-4.1875.605468-5.496094-1.066407-1.308593-1.675781-1.1875-4.058593.289063-5.589843l8.285156-8.601563-3.078125 1.765625c-1.484375.851562-3.335937.734375-4.699219-.296875-1.363281-1.03125-1.980468-2.78125-1.566406-4.4375l2.390625-9.464844c-.824219-.359375-1.507813-.976562-1.953125-1.757812-1.164062-2.042969-.453125-4.644531 1.585938-5.8125l4.265624-2.429688c1.484376-.863281 3.34375-.7460935 4.710938.289063 1.371094 1.035156 1.984375 2.789062 1.5625 4.453125l-1.785156 7.066406 20.429687-11.808594c1.839844-1.050781 4.167969-.59375 5.472657 1.074219 1.308593 1.667969 1.191406 4.039062-.265626 5.570312l-8.289062 8.613282 26.464844-15.257813c1.925781-1.113281 4.386718-.554687 5.644531 1.28125 1.261719 1.835938.898437 4.332031-.832031 5.730469l-9.226563 7.40625 24.285157-14.027344c1.949218-1.1015622 4.414062-.511718 5.652343 1.347656 1.242188 1.859376.832031 4.363282-.933593 5.734376l-20.351563 15.566406 35.839844-20.703125c1.980469-1.117188 4.488281-.488281 5.703125 1.433593 1.21875 1.921876.710937 4.457032-1.144532 5.769532l-5.683593 3.925781 13.3125-7.679687c1.988281-1.15625 4.53125-.527344 5.753906 1.417968 1.222656 1.945313.683594 4.507813-1.214844 5.800782l-10.375 7.074218 18.175781-10.488281c1.980469-1.085937 4.464844-.4375 5.664063 1.476563 1.203125 1.914062.699219 4.433593-1.144531 5.742187l-17.414063 11.828125 23.894531-13.800781c1.964844-1.09375 4.449219-.472657 5.664063 1.425781 1.21875 1.894531.75 4.410156-1.066406 5.742188l-54.230469 38.503906 64.617188-37.296875c1.96875-1.125 4.476562-.511719 5.703124 1.398437 1.226563 1.90625.742188 4.441406-1.097656 5.769532l-69.742187 49.609374 80.214843-46.316406c1.988282-1.179687 4.558594-.558594 5.789063 1.402344s.671875 4.546875-1.257813 5.824219l-61.132812 41.480469 67.222656-38.808594c2.015625-1.222656 4.640625-.582032 5.863282 1.433594 1.222656 2.015624.582031 4.640624-1.433594 5.863281l-3.847656 2.449219 6.101562-3.515626c1.996094-1.085937 4.492188-.414062 5.675781 1.523438 1.183594 1.9375.644531 4.460938-1.230469 5.746094l-33.417968 21.613281 36.046875-20.804687c2-1.082032 4.5-.40625 5.679687 1.539062 1.179688 1.945312.625 4.476562-1.261718 5.75l-15.519532 9.921875 17.066406-9.878906c1.992188-1.15625 4.539063-.519531 5.757813 1.433593 1.21875 1.953126.667969 4.519532-1.246094 5.800782l-85.9375 57.855468 90.761719-52.394531c1.980469-1.070312 4.457031-.414062 5.648438 1.496094 1.191406 1.914063.691406 4.425781-1.144532 5.734375l-92.03125 61.6875 95.972656-55.410156c1.992188-1.054688 4.457032-.382813 5.636719 1.535156 1.179688 1.917969.667969 4.421875-1.171875 5.71875l-78.226562 51.203125 80.742187-46.621094c2.019531-1.214843 4.640625-.570312 5.859375 1.449219 1.21875 2.015625.570313 4.640625-1.445312 5.855469l-32.425782 20.480469 32.175782-18.574219c2-1.136719 4.539062-.488281 5.742187 1.46875 1.207031 1.957031.644531 4.519531-1.269531 5.792969l-95.742188 63.007812 97.507813-56.3125c2.011719-1.175781 4.59375-.523438 5.804687 1.464844 1.210938 1.988281.601563 4.582031-1.367187 5.824218l-74.410156 47.871094 74.683593-43.117187c2.011719-1.125 4.550782-.453125 5.742188 1.519531 1.1875 1.972656.597656 4.53125-1.339844 5.785156l-37.058594 23.304688 35.730469-20.59375c2-1.164063 4.566407-.515625 5.78125 1.457031 1.210938 1.976563.625 4.554687-1.320312 5.816406l-96.726563 62.855469 96.632813-55.78125c1.992187-1.058594 4.464843-.378906 5.640625 1.546875 1.175781 1.925781.648437 4.433594-1.203125 5.722656l-88.320313 56.890625 87.1875-50.347656c2.003906-1.070312 4.5-.378906 5.667969 1.574219s.601563 4.476562-1.292969 5.742187l-17.757812 11.039063 15.097656-8.703125c1.988281-1.054688 4.453125-.386719 5.636719 1.53125 1.179687 1.917968.664062 4.425781-1.175781 5.722656l-113.792969 74.554688 112.335937-64.851563c2.007813-1.109375 4.535156-.425781 5.714844 1.542969s.59375 4.515625-1.332031 5.769531l-17.441407 10.835937 14.097657-8.140624c2.007812-1.148438 4.566406-.484376 5.765625 1.496093 1.199218 1.976563.601562 4.550781-1.34375 5.800781l-65.476563 41.421876 61.832031-35.695313c2.019532-1.214844 4.640626-.566406 5.859376 1.453125 1.214843 2.019531.5625 4.644531-1.457032 5.859375l-50.066406 31.417969 46.363281-26.757813c1.996094-1.085937 4.492188-.414062 5.675781 1.523438 1.183594 1.9375.644532 4.464843-1.230468 5.746093l-100.617188 64.851563 96.25-55.566406c1.992188-1.070313 4.472656-.398438 5.652344 1.527343 1.183594 1.925782.65625 4.441407-1.199219 5.734376l-113.066406 73.640624 107.519531-62.0625c2.011719-1.105468 4.535156-.425781 5.71875 1.542969 1.179688 1.96875.589844 4.519531-1.332031 5.769531l-13.167969 8.160157 8.148438-4.695313c1.992187-1.066406 4.472656-.398437 5.65625 1.53125 1.183594 1.925782.65625 4.441406-1.199219 5.730469l-110.660156 72.023437 103.011719-59.476562c2.003906-1.085938 4.503906-.410156 5.683593 1.535156 1.179688 1.949219.625 4.476563-1.261719 5.75l-76.296874 48.640625 69.007812-39.84375c2-1.054687 4.472656-.367187 5.644531 1.566407 1.171875 1.929687.628907 4.441406-1.230469 5.722656l-64.101562 40.636718 55.472656-32.027343c1.996094-1.113281 4.511719-.460938 5.714844 1.480469 1.199219 1.945312.65625 4.488281-1.234375 5.773437l-117.164063 77.484375 105.328126-60.84375c1.996093-1.117188 4.511718-.460938 5.714843 1.480469 1.199219 1.945312.65625 4.488281-1.234375 5.773437l-79.429687 52.050782 65.351562-37.722657c2-1.242187 4.632813-.625 5.875 1.375 1.238281 2.003907.625 4.636719-1.378906 5.875l-54.46875 36.070313 39.089844-22.527344c1.964843-1.117188 4.457031-.507812 5.6875 1.382812 1.230469 1.894532.773437 4.421876-1.042969 5.761719l-58.820312 42.820313 31.921874-18.425782c1.960938-1.105468 4.441407-.5 5.671876 1.386719 1.226562 1.886719.78125 4.402344-1.019532 5.75l-25.917968 18.925781c.453124.335938.828124.765626 1.109374 1.253907 1.179688 2.039062.484376 4.648437-1.550781 5.828125l-44.273437 25.550781c-1.960938 1.105469-4.441406.496094-5.671875-1.386719-1.226563-1.886718-.78125-4.402344 1.023437-5.75l6.152344-4.496094-33.042969 19.070313c-1.960937 1.117187-4.457031.511719-5.6875-1.382813-1.230469-1.894531-.773437-4.417968 1.046875-5.757812l58.792969-42.8125-89.472656 51.660156c-1.988281 1.101563-4.492188.445313-5.6875-1.488281-1.199219-1.929687-.667969-4.460937 1.199219-5.753906l54.5625-36.148438-75.324219 43.519531c-.648438.367188-1.386719.550782-2.132813.539063zm0 0" fill="#f9b764"/><path d="m250.300781 502.777344c-1.894531.003906-3.5625-1.242188-4.097656-3.054688-.539063-1.816406.183594-3.769531 1.773437-4.796875l1.324219-.851562-11.707031 6.757812c-1.996094 1.117188-4.511719.460938-5.714844-1.480469-1.199218-1.945312-.65625-4.488281 1.234375-5.773437l50.816407-33.613281-64.113282 36.984375c-1.992187 1.117187-4.511718.460937-5.710937-1.480469-1.199219-1.945312-.65625-4.488281 1.234375-5.773438l75.605468-49.867187-88.433593 51.070313c-1.996094 1.160156-4.550781.519531-5.765625-1.445313-1.214844-1.960937-.648438-4.535156 1.277344-5.804687l102.757812-67.988282-115.609375 66.714844c-1.996094 1.136719-4.535156.484375-5.742187-1.472656-1.203126-1.957032-.640626-4.515625 1.273437-5.789063l114.070313-74.632812-124.261719 71.75c-2.023438 1.207031-4.644531.546875-5.851563-1.476563-1.210937-2.027344-.550781-4.644531 1.476563-5.855468l4.785156-2.945313-7.832031 4.523437c-2.003906 1.140626-4.550782.484376-5.753906-1.484374-1.199219-1.964844-.621094-4.53125 1.308593-5.792969l122.1875-78.730469-129.707031 74.863281c-2.003906 1.042969-4.472656.34375-5.632812-1.59375-1.160157-1.941406-.605469-4.449219 1.265624-5.71875l45.226563-28.023437-48.164063 27.800781c-2 1.101563-4.511718.433594-5.699218-1.515625s-.632813-4.488281 1.261718-5.761719l133.554688-85.425781-139.230469 80.375c-2.015625 1.160156-4.589843.492188-5.785156-1.5-1.199219-1.992188-.582031-4.582031 1.390625-5.816406l99.371094-62.1875-102.484375 59.167968c-2.015625 1.136719-4.570313.457032-5.757813-1.527343s-.574218-4.554688 1.378906-5.792969l62.183594-38.402344-63.410156 36.59375c-2.023438 1.210938-4.644531.554688-5.855469-1.46875-1.210937-2.023437-.554687-4.644531 1.46875-5.855468l87.160157-54.152344-89.0625 51.414062c-2.011719 1.125-4.550782.453125-5.742188-1.519531-1.1875-1.972656-.597656-4.53125 1.339844-5.785156l115.199218-72.113281-116.90625 67.496093c-2.015624 1.136719-4.570312.460938-5.757812-1.527343-1.1875-1.984376-.574219-4.554688 1.378906-5.792969l89.832032-55.722657-90.378907 52.171876c-2.011719 1.109374-4.535156.425781-5.71875-1.542969-1.179687-1.96875-.589843-4.515625 1.332031-5.769531l87.757813-54.339844-88.191406 50.917968c-2 1.085938-4.5.40625-5.679688-1.539062-1.183593-1.945312-.628906-4.472656 1.257813-5.746094l149.199218-94.542968-149.941406 86.5625c-2.003906 1.085937-4.511718.402343-5.6875-1.550782-1.175781-1.957031-.605468-4.492187 1.292969-5.753906l129.066406-81-128.9375 74.421875c-2 1.082031-4.5.40625-5.679687-1.539063-1.183594-1.945312-.628906-4.476562 1.257812-5.75l157.5625-100.300781-157.363281 90.847657c-2.011719 1.148437-4.570313.484374-5.769531-1.496094-1.195313-1.976563-.601563-4.550782 1.347656-5.800782l146.03125-92.527343-144.539062 83.464843c-2.027344 1.207032-4.648438.539063-5.855469-1.488281-1.207031-2.03125-.542969-4.652343 1.488281-5.859375l78.546875-48.554687-76.285156 44.039062c-2.015625 1.164063-4.589844.496094-5.789063-1.496093-1.199218-1.996094-.578125-4.582032 1.394532-5.816407l121.574218-76.378906-118.417968 68.394531c-2.015626 1.214844-4.640626.570313-5.859376-1.449218-1.21875-2.015626-.570312-4.640626 1.449219-5.855469l122.476563-77.195313-118.996094 68.703125c-2.011719 1.074219-4.515625.378907-5.679688-1.585937-1.164062-1.960938-.582031-4.492188 1.328126-5.746094l14.300781-8.746094-10.53125 6.078125c-2 1.097657-4.511719.429688-5.699219-1.519531s-.628906-4.488281 1.261719-5.761719l139.222656-89.171875-133.871094 77.292969c-2.011719 1.09375-4.523437.402344-5.699219-1.5625-1.171874-1.964844-.585937-4.503906 1.332032-5.757813l33.59375-20.703124-28.5625 16.488281c-1.296875.796875-2.925782.835937-4.261719.109375-1.339844-.730469-2.191406-2.117188-2.230469-3.640625-.039062-1.523438.738282-2.953125 2.039063-3.746094l133.804687-86.589844-127.054687 73.34375c-2.007813 1.125-4.550781.453125-5.738281-1.519531-1.191407-1.972656-.597657-4.53125 1.335937-5.785156l62.335937-39.03125-55.375 31.964844c-2.023437 1.210937-4.644531.550781-5.851562-1.476563-1.210938-2.023437-.546875-4.644531 1.476562-5.851563l5.683594-3.5c-2.03125.710938-4.277344-.199218-5.234375-2.128906-.957031-1.929687-.324219-4.269531 1.46875-5.457031l109.800781-71.945313-98.988281 57.175782c-2.007812 1.125-4.550781.453125-5.738281-1.519532-1.191406-1.972656-.597656-4.535156 1.335938-5.785156l22.878906-14.355468-14.386719 8.304687c-2 1.136719-4.539063.484375-5.742187-1.472656-1.207032-1.957031-.644532-4.515625 1.269531-5.789063l76.046875-50.039062-62.589844 36.128906c-1.996094 1.117188-4.511719.460938-5.714844-1.480469-1.199218-1.945312-.65625-4.488281 1.234375-5.773437l48.539063-31.855469-34.742188 20.046875c-1.996094 1.136719-4.535156.484375-5.742187-1.472656-1.203125-1.957032-.640625-4.515625 1.273437-5.789063l22.636719-14.867187-6.878906 3.96875c-1.988281 1.15625-4.539063.519531-5.757813-1.433594s-.667968-4.519531 1.246094-5.800781l17.167969-11.511719c-1.832031-.050781-3.425781-1.261719-3.960938-3.015625-.539062-1.75.101563-3.648437 1.589844-4.714844l24.746094-17.921875c-1.0625-.898437-1.621094-2.253906-1.496094-3.640625.125-1.382812.914063-2.621093 2.117187-3.3125l44.316407-25.601562c1.964843-1.128907 4.46875-.523438 5.703125 1.378906 1.234375 1.90625.761718 4.4375-1.070313 5.773437l-2.492187 1.800782 28.160156-16.214844c1.984375-1.070312 4.457031-.417969 5.648438 1.496094 1.195312 1.914062.691406 4.421875-1.144532 5.730468l-9.265625 6.230469 25.601563-14.761719c1.996094-1.1367182 4.535156-.484374 5.742187 1.472657 1.203125 1.957031.640625 4.515625-1.273437 5.789062l-22.707032 14.890625 35.566407-20.53125c1.996093-1.117187 4.515625-.460937 5.714843 1.480469 1.199219 1.945313.65625 4.488281-1.234374 5.773437l-48.578126 31.886719 60.441407-34.890625c1.992187-1.117187 4.511719-.464844 5.710937 1.480469 1.203125 1.945313.660156 4.488281-1.230468 5.773437l-76.074219 50.03125 88.335937-51.003906c1.304688-.789062 2.933594-.816406 4.265625-.078125 1.335938.734375 2.175781 2.128907 2.203125 3.65625.027344 1.523438-.757812 2.945313-2.066406 3.734375l-22.960938 14.402344 29.011719-16.722656c1.996094-1.136719 4.535157-.488282 5.742188 1.46875 1.203125 1.957031.644531 4.519531-1.269531 5.792968l-109.835938 71.925782 120.433594-69.519532c2.015625-1.136718 4.566406-.460937 5.753906 1.527344 1.1875 1.984375.578125 4.554688-1.378906 5.792969l-3.554688 2.191406 7.046875-4.058593c2.007813-1.128907 4.550781-.457032 5.738281 1.519531 1.191407 1.972656.597657 4.53125-1.335937 5.78125l-62.292969 39 66.652344-38.46875c1.996094-1.082031 4.492188-.414063 5.675781 1.523437 1.1875 1.9375.644531 4.464844-1.226562 5.746094l-133.820313 86.613281 141.933594-81.917969c2.015625-1.136718 4.570312-.460937 5.757812 1.527344 1.1875 1.984375.574219 4.554688-1.378906 5.792969l-33.28125 20.480469 35.148438-20.292969c1.996094-1.070313 4.480468-.390625 5.660156 1.542969 1.175781 1.9375.636719 4.453125-1.230469 5.734375l-139.273437 89.210937 145.179687-83.808594c2.019531-1.152343 4.59375-.46875 5.78125 1.53125 1.1875 2.003907.550781 4.585938-1.429687 5.808594l-14.292969 8.730469 14.652344-8.457031c2.003906-1.101563 4.519531-.429688 5.707031 1.53125 1.183594 1.957031.609375 4.5-1.296875 5.765625l-122.503906 77.207031 125.558593-72.488281c2.007813-1.128907 4.550782-.453125 5.738282 1.519531 1.191406 1.972656.597656 4.53125-1.335938 5.785156l-121.609375 76.40625 124.144531-71.679687c2.023438-1.210938 4.644532-.546875 5.855469 1.476562 1.207031 2.023438.546875 4.644531-1.476562 5.851563l-78.507813 48.523437 78.789063-45.484375c2.003906-1.101562 4.523437-.425781 5.707031 1.53125 1.183594 1.957032.613281 4.5-1.296875 5.765625l-146.105469 92.570313 148.136719-85.523438c2-1.082031 4.5-.40625 5.679687 1.539063 1.183594 1.945312.628907 4.476562-1.257812 5.75l-157.519531 100.285156 158.636719-91.554687c2.007812-1.128907 4.550781-.453126 5.738281 1.519531 1.191406 1.972656.597656 4.53125-1.335938 5.785156l-129.015625 80.929687 128.855469-74.386718c2-1.082032 4.5-.40625 5.679687 1.539062 1.179688 1.945313.625 4.476563-1.261718 5.75l-149.265625 94.582032 148.976562-86c2.007813-1.070313 4.5-.378907 5.671875 1.574218 1.167969 1.953125.597656 4.476563-1.292968 5.742188l-87.597657 54.269531 85.394531-49.304687c2.011719-1.109376 4.535157-.425782 5.71875 1.542968 1.179688 1.96875.589844 4.515625-1.332031 5.769532l-90.054687 55.808593 87.894531-50.730469c2.011719-1.125 4.550781-.453124 5.738281 1.519532 1.191406 1.972656.597656 4.53125-1.335937 5.785156l-115.128907 72.089844 112.476563-64.941406c2.011719-1.105469 4.535156-.425782 5.71875 1.542968 1.179687 1.96875.589844 4.519532-1.332031 5.773438l-87.152344 54.132812 83.542969-48.230468c2.015625-1.132813 4.566406-.457032 5.753906 1.527343 1.1875 1.988281.578125 4.558594-1.378906 5.796875l-62.121094 38.398438 58.445313-33.742188c2.019531-1.214844 4.640624-.5625 5.859374 1.457032 1.214844 2.019531.5625 4.640624-1.457031 5.859374l-99.386719 62.199219 95.070313-54.886719c1.996094-1.070312 4.480469-.394531 5.65625 1.542969 1.179687 1.933594.640625 4.453125-1.230469 5.734375l-133.511718 85.4375 128-73.890625c2.007812-1.074219 4.503906-.382812 5.671874 1.570313 1.167969 1.953125.601563 4.480468-1.292968 5.742187l-45.226563 28.015625 40.15625-23.1875c1.996094-1.054687 4.464844-.375 5.640625 1.550782 1.175782 1.921874.648438 4.429687-1.203125 5.722656l-122.257812 78.777344 114.542969-66.117188c2.015624-1.132812 4.570312-.457031 5.757812 1.53125 1.1875 1.984375.574219 4.554688-1.378906 5.792969l-5.851563 3.601562c2.03125-.828125 4.363281.023438 5.382813 1.964844 1.023437 1.945313.402344 4.347656-1.433594 5.550781l-114.117188 74.640625 104.191407-60.148437c2-1.160156 4.554687-.519532 5.769531 1.445312 1.214844 1.960938.648438 4.535156-1.28125 5.804688l-102.707031 67.960937 91.308593-52.734375c1.996094-1.160156 4.554688-.519531 5.769532 1.445313 1.214844 1.960937.644531 4.535156-1.28125 5.804687l-75.632813 49.886719 61.535157-35.523437c1.996093-1.15625 4.554687-.515626 5.769531 1.445312 1.214843 1.964844.648437 4.539062-1.28125 5.808594l-50.703125 33.570312 35.695312-20.566406c2-1.140625 4.546875-.484375 5.75 1.484375s.625 4.535156-1.304687 5.796875l-11.828125 7.679688c1.855468.050781 3.464844 1.292968 3.980468 3.078124.519532 1.78125-.179687 3.695313-1.71875 4.726563l-17.066406 11.417969c1.820313.226562 3.289063 1.589844 3.65625 3.386718.367188 1.792969-.457031 3.625-2.042968 4.542969l-96.734376 55.808594c-1.988281 1.113281-4.503906.46875-5.710937-1.46875-1.203125-1.933594-.671875-4.476563 1.203125-5.769531l6.367188-4.265625-22.75 13.132812c-.636719.367188-1.363282.566407-2.097657.570313zm0 0" fill="#ffd988"/><path d="m272.101562 465.300781c-1.820312-.003906-3.441406-1.164062-4.03125-2.886719-.589843-1.726562-.019531-3.632812 1.421876-4.75l39.414062-30.578124-53.761719 31.011718c-1.980469 1.101563-4.476562.460938-5.683593-1.457031-1.207032-1.917969-.703126-4.445313 1.144531-5.753906l25.53125-17.449219-31.570313 18.21875c-1.996094 1.132812-4.527344.488281-5.734375-1.460938-1.210937-1.945312-.664062-4.503906 1.234375-5.785156l19.234375-12.738281-24.363281 14.09375c-1.980469 1.136719-4.503906.503906-5.722656-1.425781-1.21875-1.933594-.699219-4.480469 1.175781-5.785156l62.386719-42.828126-69.253906 39.980469c-2 1.117188-4.523438.457031-5.722657-1.496093-1.195312-1.953126-.636719-4.5 1.265625-5.773438l27.308594-17.648438-30.773438 17.757813c-1.984374 1.175781-4.546874.558594-5.78125-1.390625-1.234374-1.953125-.691406-4.53125 1.226563-5.820312l84.523437-57.488282-90.300781 52.128906c-2.007812 1.148438-4.566406.484376-5.765625-1.492187-1.199218-1.980469-.601562-4.554687 1.34375-5.804687l23.042969-14.617188-24.75 14.277344c-1.992187 1.113281-4.511719.460937-5.710937-1.480469-1.199219-1.945313-.65625-4.488281 1.230468-5.773437l74.949219-49.160157-77.730469 44.878907c-1.988281 1.113281-4.5.46875-5.707031-1.46875-1.207031-1.933594-.675781-4.476563 1.203125-5.769532l102.042969-68.335937-106.070313 61.234375c-2 1.160156-4.554687.519531-5.769531-1.445313-1.214844-1.960937-.648437-4.535156 1.28125-5.804687l99.566406-65.863282-101.511719 58.609376c-2.011718 1.148437-4.570312.484374-5.765624-1.496094-1.199219-1.976563-.605469-4.550782 1.34375-5.800782l59.886718-38.222656-60.210937 34.757813c-2 1.085937-4.5.40625-5.679688-1.539063-1.179687-1.945312-.625-4.476562 1.257813-5.746094l58.660156-37.371093-58.027344 33.511719c-2 1.101562-4.511718.429687-5.699218-1.515626-1.1875-1.949218-.632813-4.488281 1.261718-5.761718l67.796875-43.34375-66.917969 38.632812c-1.992187 1.082032-4.480468.421875-5.671874-1.507812-1.1875-1.929688-.660157-4.453125 1.199218-5.746094l100.398438-65.765625-100.003906 57.734375c-1.996094 1.085938-4.492188.414062-5.675782-1.523438s-.644531-4.460937 1.230469-5.746093l86.015625-55.628907-84.070312 48.539063c-2.007813 1.234375-4.636719.605469-5.871094-1.402344-1.234375-2.003906-.609375-4.632812 1.398437-5.867187l96.425781-63.019532-94.554687 54.613282c-2.015625 1.222656-4.640625.582031-5.863281-1.433594s-.582032-4.640625 1.433594-5.863281l53.402343-33.910157-49.691406 28.679688c-2.011719 1.226562-4.636719.589844-5.867187-1.421875-1.226563-2.011719-.589844-4.636719 1.421874-5.867187l69.425782-44.636719-65.789063 37.980469c-1.996093 1.058593-4.464843.378906-5.640625-1.546876-1.175781-1.925781-.648437-4.433593 1.203125-5.722656l67.410157-43.453125-62.957032 36.300781c-2.007812 1.148438-4.566406.488282-5.765625-1.492187s-.601562-4.554687 1.34375-5.800781l42.003907-26.734375-36.847657 21.273437c-1.992187 1.082032-4.484375.417969-5.671875-1.511718-1.191406-1.929688-.664062-4.449219 1.199219-5.742188l74.804687-49.015625-69.121093 39.902344c-1.992188 1.132812-4.523438.488281-5.734375-1.460938-1.210938-1.945312-.664063-4.503906 1.238281-5.785156l77.386719-51.421875-69.734375 40.261719c-1.988281 1.097656-4.492188.441406-5.6875-1.488281-1.199219-1.933594-.667969-4.464844 1.199219-5.757813l61.664062-40.773437-53.574219 30.953124c-1.976562 1.132813-4.5.511719-5.722656-1.414062-1.226563-1.925781-.71875-4.472656 1.148437-5.78125l78.082032-54.117188-66.75 38.527344c-1.992188 1.152344-4.539063.519532-5.757813-1.433594-1.21875-1.953124-.667969-4.523437 1.246094-5.804687l38.269531-25.597656-26.632812 15.359375c-1.972656 1.09375-4.453125.460937-5.664063-1.441406-1.210937-1.902344-.734375-4.417969 1.09375-5.742188l43.109375-29.960938-28.433594 16.410157c-1.964843 1.097656-4.445312.484375-5.667968-1.40625s-.765625-4.40625 1.042968-5.746094l33.355469-24.039063-13.910156 8.03125c-1.933594 1.09375-4.386719.515626-5.632813-1.328124-1.246093-1.84375-.863281-4.332032.871094-5.722657l27.726563-21.707031c-1.386719-.714844-2.273438-2.128906-2.3125-3.6875-.039063-1.558594.777343-3.015625 2.125-3.796875l37.375-21.589844c1.941406-1.148437 4.445312-.585937 5.707031 1.28125 1.265625 1.871094.855469 4.402344-.9375 5.777344l-16.773438 13.164063 34.839844-20.109376c1.964844-1.101562 4.445313-.488281 5.667969 1.402344s.765625 4.40625-1.042969 5.746094l-33.28125 24.011719 43.265625-24.976563c1.976563-1.101562 4.46875-.472656 5.683594 1.441406 1.210937 1.910157.722656 4.433594-1.117187 5.753907l-43.121094 29.960937 50.996094-29.433594c1.996093-1.183593 4.574218-.554687 5.800781 1.417969 1.226562 1.96875.652343 4.5625-1.296875 5.828125l-38.296875 25.601563 43.691406-25.21875c1.976563-1.101563 4.472656-.472657 5.683594 1.441406 1.214843 1.910156.722656 4.433594-1.117188 5.753906l-78.011719 54.074219 86.101563-49.738281c1.992187-1.117188 4.511719-.464844 5.710937 1.480469 1.203126 1.941406.65625 4.488281-1.230468 5.769531l-61.707032 40.792969 65.707032-37.914063c1.992187-1.101563 4.492187-.445313 5.691406 1.488281 1.195312 1.929688.667969 4.460938-1.203125 5.753906l-77.457031 51.421876 82.007812-47.34375c2-1.199219 4.597656-.566407 5.820313 1.421874 1.226562 1.988282.628906 4.589844-1.34375 5.84375l-74.777344 48.996094 77.40625-44.695312c2.015625-1.226563 4.640625-.582032 5.863281 1.433594 1.222656 2.011718.582032 4.636718-1.433594 5.859374l-42.042968 26.777344 43.050781-24.847656c1.992187-1.054688 4.464844-.378906 5.636719 1.546875 1.175781 1.925781.648437 4.433594-1.199219 5.722656l-67.414063 43.425781 68.625-39.617187c1.300782-.796875 2.929688-.835937 4.265626-.105469 1.339843.730469 2.1875 2.121094 2.222656 3.644532.039062 1.523437-.742188 2.953124-2.042969 3.746093l-69.402344 44.621094 69.972657-40.371094c2.007812-1.121093 4.539062-.453125 5.730468 1.507813 1.191406 1.960937.617188 4.515625-1.300781 5.78125l-53.484375 33.976562 53.519531-30.898437c1.996094-1.136719 4.535157-.484375 5.742188 1.472656 1.203125 1.957031.644531 4.515625-1.269531 5.789063l-96.429688 63.003906 96.34375-55.613282c2-1.117187 4.523438-.457031 5.71875 1.496094s.636719 4.5-1.265625 5.773438l-85.914063 55.605468 85.523438-49.367187c1.988281-1.082031 4.480469-.421875 5.671875 1.507813 1.1875 1.929687.660156 4.453124-1.203125 5.746093l-100.503906 65.808594 99.113281-57.222656c2.011719-1.179688 4.589844-.527344 5.800781 1.460937 1.210938 1.988282.605469 4.582032-1.363281 5.824219l-67.703125 43.28125 65.484375-37.84375c2.011719-1.148437 4.566406-.484375 5.765625 1.492187 1.199219 1.980469.605469 4.554688-1.34375 5.804688l-58.691406 37.355469 55.816406-32.226563c2.011719-1.226562 4.636719-.582031 5.859375 1.433594 1.226563 2.011719.582031 4.636719-1.433594 5.859375l-59.960937 38.308594 56.320312-32.503907c2-1.242187 4.632813-.625 5.875 1.378907 1.242188 2 .625 4.632812-1.378906 5.875l-99.585938 65.851562 95.875-55.355469c1.988282-1.117187 4.5-.46875 5.707032 1.464844 1.203125 1.9375.675781 4.476563-1.203125 5.769532l-102.023438 68.328124 96.375-55.691406c2.003907-1.199218 4.597657-.566406 5.824219 1.421875 1.222656 1.988281.625 4.589844-1.34375 5.839844l-74.984375 49.230469 69.121094-39.894532c2.003906-1.117187 4.535156-.453124 5.726562 1.507813 1.195313 1.964844.621094 4.519531-1.296875 5.78125l-23.132812 14.703125 16.554687-9.558594c1.980469-1.113281 4.492188-.476562 5.703125 1.453125 1.210938 1.925781.695313 4.464844-1.171875 5.765625l-84.480469 57.449219 75.742188-43.726563c2.007812-1.230468 4.636719-.597656 5.863281 1.414063 1.230469 2.007813.597657 4.636719-1.410156 5.863281l-27.246094 17.632813 18.609375-10.746094c1.984375-1.132813 4.507813-.503906 5.726563 1.429687 1.21875 1.929688.699219 4.480469-1.179688 5.78125l-62.375 42.820313 50.40625-29.097656c1.996094-1.15625 4.550781-.515625 5.765625 1.445312 1.214844 1.964844.648438 4.539063-1.277344 5.808594l-19.167968 12.679687 8.105468-4.675781c1.988282-1.152343 4.53125-.527343 5.753907 1.417969 1.222656 1.945312.6875 4.507812-1.210938 5.800781l-25.601562 17.492188 10.691406-6.167969c1.945313-1.132812 4.433594-.5625 5.6875 1.304688 1.257813 1.867187.847656 4.386718-.933594 5.761718l-39.40625 30.558594 12.449219-7.160156c2.027344-1.0625 4.527344-.335938 5.671875 1.644531s.523437 4.507813-1.40625 5.734375l-66.6875 38.503906c-.648437.367188-1.386719.558594-2.132813.546875zm0 0" fill="#fcd167"/><path d="m263.570312 48.882812c-1.925781-.007812-3.609374-1.304687-4.109374-3.164062-.496094-1.859375.3125-3.820312 1.972656-4.789062l7.179687-4.148438c1.320313-.839844 3-.886719 4.367188-.125 1.367187.765625 2.207031 2.214844 2.1875 3.785156-.023438 1.566406-.902344 2.996094-2.289063 3.722656l-7.175781 4.144532c-.648437.378906-1.386719.574218-2.132813.574218zm0 0" fill="#f4be57"/><path d="m242.039062 467.511719c-2.148437.019531-3.980468-1.566407-4.265624-3.695313l-1.375-10.027344-13.816407 7.96875c-1.597656.925782-3.613281.714844-4.988281-.523437-1.371094-1.234375-1.792969-3.214844-1.042969-4.902344l3.027344-6.691406-11 6.347656c-1.734375 1.003907-3.9375.65625-5.285156-.828125-1.347657-1.484375-1.480469-3.707031-.320313-5.339844l2.929688-4.097656-7.085938 4.089844c-1.6875.972656-3.820312.675781-5.183594-.722656-1.359374-1.394532-1.597656-3.535156-.582031-5.199219l5.511719-9.019531-11.503906 6.628906c-1.699219.992188-3.859375.691406-5.222656-.726562-1.367188-1.417969-1.585938-3.585938-.527344-5.246094l7.617187-12.3125-13.300781 7.679687c-1.691406.980469-3.828125.691407-5.195312-.707031-1.367188-1.394531-1.609376-3.539062-.589844-5.207031l9.511718-15.667969-15.121093 8.730469c-1.761719 1.015625-3.996094.648437-5.339844-.878907-1.339844-1.53125-1.417969-3.796874-.179687-5.410156l9.257812-12.042968-12.515625 7.230468c-1.800781 1.039063-4.085937.632813-5.414063-.960937-1.332031-1.597657-1.320312-3.917969.027344-5.5l8.96875-10.511719-10.375 5.972656c-1.839844 1.050782-4.171875.589844-5.476562-1.074218-1.304688-1.667969-1.191406-4.039063.269531-5.574219l6.621094-6.902344-6.988281 4.035156c-1.777344 1.027344-4.035157.644531-5.371094-.914062-1.339844-1.558594-1.375-3.851563-.089844-5.453125l12.5-15.503906-13.933594 8.046874c-1.878906 1.078126-4.269531.574219-5.554687-1.171874-1.285157-1.746094-1.058594-4.179688.527343-5.652344l3.203126-2.980469-1.894532 1.09375c-1.824218 1.046875-4.136718.609375-5.453125-1.027344-1.316406-1.636719-1.246093-3.988281.167969-5.542969l12.042969-13.152343-12.058594 6.957031c-1.886719 1.164062-4.347656.691406-5.671875-1.085938-1.320312-1.78125-1.058594-4.273437.601562-5.742187l7.023438-6.492187-5.023438 2.898437c-1.835937 1.074219-4.179687.636719-5.5-1.03125-1.320312-1.664063-1.214843-4.046875.25-5.589844l13.773438-14.601562-12.613281 7.28125c-1.816407 1.046875-4.125.621093-5.445313-1.007813-1.320312-1.628906-1.261718-3.976562.136719-5.539062l17.066406-18.960938-15.230469 8.789063c-1.902343 1.105469-4.328124.585937-5.609374-1.203125-1.28125-1.785156-.996094-4.253906.660156-5.699219l5.46875-4.796875-2.300782 1.324219c-1.914062 1.089843-4.335937.546875-5.601562-1.25-1.265625-1.800781-.960938-4.265625.710938-5.695313l2.941406-2.5c-1.863282.898438-4.105469.324219-5.316406-1.359375-1.277344-1.78125-.996094-4.242187.652343-5.691406l7.933594-6.988281-3.71875 2.152344c-1.914063 1.089843-4.34375.546874-5.609375-1.253907-1.265625-1.804687-.953125-4.273437.726562-5.703125l4.265626-3.574218c-1.878907 1.078124-4.269532.574218-5.554688-1.171876-1.285156-1.746093-1.058594-4.179687.53125-5.65625l15.605469-14.503906-11.09375 6.425782c-1.867188 1.125-4.285157.65625-5.601563-1.082032-1.316406-1.742187-1.109375-4.195312.484375-5.6875l21.066407-20.308594-14.925782 8.617188c-1.871094 1.148438-4.304687.6875-5.628906-1.066406-1.324219-1.75-1.101562-4.21875.511719-5.707032l23.355469-22.46875-16.375 9.445313c-1.925782 1.101563-4.371094.542969-5.628907-1.28125-1.257812-1.824219-.910156-4.304687.796875-5.714844l10.019532-8.167969-2.859376 1.648438c-1.933593 1.109375-4.398437.539062-5.652343-1.304688-1.25-1.847656-.871094-4.347656.875-5.734374l6.585937-5.199219c-1.894531.886719-4.152344.269531-5.332031-1.457031-1.269531-1.84375-.894531-4.355469.851563-5.753907l11.539062-9.113281-2.425781 1.390625c-1.941407 1.09375-4.398438.507813-5.636719-1.347656-1.242188-1.851563-.84375-4.347657.910156-5.726563l8.167969-6.253906c-1.96875.8125-4.234375.046875-5.308594-1.789062-1.078125-1.839844-.632812-4.1875 1.039063-5.507813l27.308594-21.9375-13.753907 7.945313c-1.964843 1.117187-4.457031.507812-5.6875-1.382813-1.230469-1.894531-.773437-4.421875 1.042969-5.761719l14.34375-10.410156-1.269531.726562c-1.992188 1.132813-4.527344.488282-5.734375-1.460937-1.210938-1.945313-.664063-4.5 1.238281-5.785156l12.066406-8.019531c-1.867187.191406-3.640625-.855469-4.371093-2.585938-.730469-1.726562-.246094-3.730469 1.195312-4.933594l35.164062-29.320312c-1.816406-.226563-3.285156-1.589844-3.648437-3.386719s.460937-3.625 2.046875-4.539063l36.46875-21.0625c1.917969-1.101562 4.363281-.554687 5.628906 1.257813 1.265625 1.816406.933594 4.296875-.761718 5.714844l-31.300782 26.09375 67.164063-38.757813c1.992187-1.132812 4.527343-.488281 5.734375 1.460938 1.210937 1.945312.664062 4.5-1.238282 5.785156l-46.785156 31.09375c.253906.242188.480469.507812.671875.804688 1.238281 1.902343.769531 4.441406-1.066406 5.777343l-20.828125 15.121094c1.710938.191406 3.140625 1.394531 3.621094 3.050781.480468 1.65625-.085938 3.4375-1.429688 4.515625l-27.304687 21.949219 7.925781-4.574219c1.941406-1.074219 4.382812-.480469 5.613281 1.367188 1.230469 1.84375.84375 4.324219-.894531 5.707031l-9.871094 7.570312c1.910156-.265624 3.761719.78125 4.515625 2.558594.75 1.777344.21875 3.835938-1.300781 5.027344l-11.546875 9.113281h.085937c1.9375-1.109375 4.398438-.539062 5.652344 1.304688s.871094 4.34375-.871094 5.734375l-7.570312 5.972656c1.929688-.429688 3.90625.527344 4.765625 2.304688.863281 1.78125.386719 3.921874-1.148437 5.171874l-10.007813 8.15625.851563-.476562c1.867187-1.066406 4.238281-.574219 5.527343 1.148438 1.289063 1.71875 1.097657 4.132812-.449219 5.625l-23.339843 22.339843 14.601562-8.421875c1.871094-1.125 4.285157-.65625 5.601563 1.082032 1.316406 1.742187 1.109375 4.195312-.480469 5.6875l-21.0625 20.292968 13.382813-7.683594c1.882812-1.109374 4.296874-.617187 5.597656 1.140626 1.296875 1.757812 1.058594 4.214843-.554688 5.6875l-15.589844 14.507812 9.648438-5.566406c1.914062-1.074219 4.328125-.523438 5.585938 1.273437 1.257812 1.796875.949218 4.253907-.710938 5.683594l-4.710938 3.957031c1.925782-.625 4.027344.1875 5.027344 1.945313 1.003906 1.761719.632813 3.980469-.890625 5.320312l-7.933593 6.976563 3.589843-2.0625c1.910157-1.089844 4.335938-.546875 5.601563 1.25s.957031 4.265625-.710938 5.695312l-3.414062 2.867188c1.925781-.570313 3.984375.277344 4.953125 2.035156.964843 1.757812.578125 3.949219-.933594 5.269531l-5.460937 4.796875 1.152343-.667968c1.816407-1.058594 4.136719-.636719 5.460938.996093 1.328125 1.632813 1.265625 3.988281-.144531 5.550781l-17.066407 18.960938 14.507813-8.363281c1.828125-1.046875 4.152344-.601563 5.460937 1.054687 1.3125 1.652344 1.214844 4.015625-.222656 5.558594l-13.765625 14.601562 11.09375-6.410156c1.886719-1.164062 4.347656-.695312 5.671875 1.085938 1.320313 1.78125 1.058594 4.273437-.601563 5.742187l-7.023437 6.65625 4.777344-2.75c1.824219-1.058593 4.148437-.625 5.472656 1.019531 1.320313 1.644532 1.238281 4.007813-.191406 5.5625l-12.0625 13.070313 10.757812-6.210937c1.882813-1.09375 4.285157-.59375 5.578125 1.15625 1.289063 1.753906 1.058594 4.195312-.542968 5.671874l-3.207032 2.984376.929688-.535157c1.777344-1.019531 4.027344-.628906 5.359375.925781 1.332031 1.554688 1.371093 3.839844.09375 5.4375l-12.484375 15.507813 13.175781-7.605469c1.839844-1.0625 4.179687-.609375 5.488281 1.0625 1.3125 1.671875 1.195313 4.050782-.277344 5.585938l-6.613281 6.886718 5.8125-3.355468c1.796875-1.039063 4.082031-.632813 5.414063.960937 1.328125 1.597657 1.316406 3.917969-.027344 5.5l-8.980469 10.503907 9.703125-5.605469c1.765625-1.015625 4-.644531 5.339844.886719 1.34375 1.53125 1.414062 3.796874.171875 5.410156l-9.238281 12.03125 10.902344-6.289063c1.6875-.972656 3.820312-.679687 5.179687.710938 1.363281 1.390625 1.609375 3.53125.597656 5.195312l-9.511719 15.667969 13.59375-7.84375c1.699219-1 3.863282-.703125 5.234376.714844 1.367187 1.421875 1.585937 3.597656.523437 5.257812l-7.628906 12.316406 11.296875-6.53125c1.691406-.972656 3.824218-.679687 5.1875.714844 1.359375 1.394532 1.605468 3.535156.589844 5.199219l-5.511719 9.039063 9.625-5.554688c1.738281-1.011719 3.945312-.671875 5.300781.816406 1.351562 1.484375 1.484375 3.714844.316406 5.351563l-2.929687 4.085937 5.316406-3.070312c1.601563-.925782 3.613281-.714844 4.988281.523437 1.375 1.234375 1.796875 3.214844 1.046875 4.902344l-2.996093 6.707031 7.9375-4.574218c1.226562-.710938 2.730468-.765626 4.007812-.144532 1.277344.628906 2.160156 1.851563 2.347656 3.261719l1.367188 10.027344 7.601562-4.386719c1.265625-.730469 2.820313-.765625 4.113282-.085938l11.785156 6.179688.632812-.367188c2.042969-1.179687 4.65625-.476562 5.835938 1.570313 1.175781 2.042969.472656 4.65625-1.570313 5.835937l-2.664062 1.527344c-1.265625.730469-2.816407.761719-4.113281.085938l-11.785157-6.1875-11.089843 6.390625c-.648438.355469-1.371094.539062-2.109376.53125zm0 0" fill="#f4be57"/><g fill="#262626"><path d="m202.324219 493.722656c17.429687 6.558594 36.011719 9.5 54.613281 8.644532 47.871094.308593 95.429688 3.824218 138.515625-21.222657 74.238281-43.160156 108.285156-134.824219 111.597656-216.804687 3.414063-85.007813-24.660156-183.210938-96.980469-234.914063-46.335937-33.136719-98.332031-28.636719-152.234374-28.542969-13.0625-.332031-26.109376 1.171876-38.75 4.46875-105.480469 27.699219-148.839844 149.191407-150.769532 246.992188 0 .195312.121094.304688.144532.476562.027343.171876-.136719.289063-.125.453126 1.800781 92.320312 39.117187 205.082031 133.988281 240.449218zm188.1875-464.65625c65.910156 41.183594 97.558593 122.574219 103.429687 197.242188 6.375 80.960937-15.871094 175.410156-78.589844 231.464844-36.640624 32.742187-78.019531 37.546874-122.027343 38.058593 39.25-13.292969 73.015625-39.164062 96.070312-73.601562 61.34375-88.855469 65.875-217.65625 17.773438-313.171875-23.65625-46.984375-63.394531-87.039063-111.546875-101.972656 33.015625.230468 65.3125 3.5 94.890625 21.980468zm-129.332031-20.898437c114.746093 8.78125 165.300781 146.859375 165.28125 244.644531 0 102.253906-60.757813 260.136719-189.140626 240.902344-110.429687-16.546875-154.539062-146.617188-156.605468-243.097656 2.042968-99.914063 55.238281-251.996094 180.464844-242.449219zm0 0"/><path d="m248.855469 467.84375h.417969c.121093 0 .359374 0 .546874.050781h.09375c.421876.058594.847657.078125 1.273438.066407 6.53125-.320313 13.027344-1.125 19.4375-2.40625.375.113281.71875.265624 1.09375.367187 2.957031.238281 5.894531-.679687 8.191406-2.558594 81.066406-22.410156 120.953125-119.765625 124.699219-198.886719 3.828125-80.9375-33.070313-208.273437-125.109375-226.839843-.722656-.347657-1.519531-.523438-2.320312-.503907-6.6875-1.203124-13.464844-1.828124-20.257813-1.863281-95.464844-.519531-145.714844 109.304688-153.175781 189.894531-8.609375 93.011719 32.480468 236.289063 145.109375 242.679688zm141.730469-248.609375c9.242187 80.59375-19.964844 216.421875-112.441407 239.410156-159.992187-44.707031-164.882812-365.285156-5.523437-413.390625 71.460937 13.84375 110.355468 107.582032 117.964844 173.980469zm-151.269532-174.628906c5.867188-.851563 11.796875-1.203125 17.722656-1.039063-150.925781 62.191406-153.070312 360.507813 1.777344 418.132813-.777344.050781-1.519531.171875-2.296875.214843-84.472656-4.984374-128.714843-97.230468-138.914062-171.242187-11.828125-85.792969 17.792969-231.054687 121.710937-246.066406zm0 0"/><path d="m292.242188 109.390625c3.019531-.046875 5.933593-1.144531 8.234374-3.105469 3.105469-2.84375 6.207032-5.6875 9.308594-8.53125 2.167969-1.980468-1.878906-2.5625-3.0625-2.5625-3.019531.050782-5.929687 1.144532-8.234375 3.097656l-9.3125 8.535157c-2.183593 1.96875 1.878907 2.585937 3.066407 2.566406zm0 0"/><path d="m215.183594 186.320312 51.199218-46.933593c6.164063-5.640625-3.539062-10.242188-8.277343-5.972657l-51.199219 46.933594c-6.160156 5.671875 3.542969 10.316406 8.277344 5.972656zm0 0"/><path d="m206.933594 265.816406c-6.160156 5.640625 3.582031 9.992188 8.226562 5.734375l102.398438-93.867187c6.160156-5.640625-3.582032-9.992188-8.226563-5.734375zm0 0"/><path d="m258.832031 316.53125 81.066407-76.09375c5.511718-5.179688-6.5-6.75-10.238282-3.242188l-81.066406 76.089844c-5.511719 5.171875 6.5 6.742188 10.238281 3.246094zm0 0"/><path d="m320.078125 328.828125-62.882813 59.023437c-2.671874 2.5 8.949219 1.296876 11.21875-.855468l62.882813-59.015625c2.671875-2.480469-8.949219-1.269531-11.21875.847656zm0 0"/><path d="m231.832031 334.773438c-3.121093-.667969-6.371093.207031-8.738281 2.347656l-7.753906 7.109375c-2.039063 1.867187-1.136719 4.113281 1.296875 4.84375 3.117187.667969 6.367187-.203125 8.738281-2.335938l7.753906-7.109375c2.039063-1.824218 1.136719-4.121094-1.296875-4.855468zm0 0"/><path d="m140.007812 18.863281-16.855468-17.070312c-2.851563-2.875-14.507813 1.707031-11.519532 4.710937l16.871094 17.066406c2.832032 2.878907 14.507813-1.664062 11.503906-4.707031zm0 0"/><path d="m92.347656 69.660156c.785156-.316406 5.734375-3.054687 3.414063-4.421875l-20.558594-12.191406c-2.589844-1.15625-5.5625-1.085937-8.097656.1875-.785157.316406-5.742188 3.0625-3.414063 4.417969l20.558594 12.203125c2.589844 1.164062 5.566406 1.089843 8.097656-.195313zm0 0"/><path d="m32.578125 118.589844c-1.125.539062-4.179687 2.3125-1.550781 3.054687l22.972656 6.539063c2.972656.394531 5.996094-.175782 8.625-1.621094 1.128906-.546875 4.183594-2.3125 1.554688-3.066406l-22.945313-6.527344c-2.984375-.402344-6.019531.164062-8.65625 1.621094zm0 0"/><path d="m5.972656 191.789062c-1.226562 2.492188 1.058594 3.414063 3.3125 3.480469l23.890625.453125c2.441407 0 6.949219-.851562 8.175781-3.335937 1.230469-2.484375-1.058593-3.414063-3.308593-3.480469l-23.894531-.453125c-2.441407-.042969-6.945313.871094-8.175782 3.335937zm0 0"/><path d="m.0664062 269.964844c.6914058 2.558594 5.3007818 1.882812 7.0156248 1.457031l23.195313-5.664063c1.824218-.445312 6.023437-2.230468 5.339844-4.78125-.683594-2.550781-5.296876-1.875-7.015626-1.457031l-23.207031 5.664063c-1.8125.453125-5.976562 2.238281-5.3281248 4.78125zm0 0"/><path d="m24.796875 343.84375 21.019531-11.417969c2.199219-1.191406 1.355469-2.5-.726562-2.703125-3.074219-.066406-6.105469.746094-8.738282 2.335938l-21.027343 11.417968c-2.199219 1.203126-1.355469 2.5.726562 2.714844 3.078125.0625 6.113281-.75 8.746094-2.347656zm0 0"/><path d="m49.6875 424.433594c3.027344-.035156 5.941406-1.136719 8.238281-3.105469l17.441407-16.425781c2.140624-2.015625-1.851563-2.636719-3.074219-2.621094-3.023438.039062-5.941407 1.140625-8.234375 3.113281l-17.449219 16.417969c-2.140625 2.015625 1.859375 2.636719 3.078125 2.621094zm0 0"/><path d="m107.792969 459.828125-12.800781 20.371094c-1.578126 2.5 1.367187 3.78125 3.414062 3.933593 3.113281.242188 6.152344-1.046874 8.140625-3.457031l12.800781-20.367187c1.570313-2.5-1.375-3.78125-3.414062-3.933594-3.113282-.246094-6.152344 1.042969-8.140625 3.453125zm0 0"/></g></svg>