<svg height="512" viewBox="0 0 60 60" width="512" xmlns="http://www.w3.org/2000/svg"><g id="008---Pie-Chart" fill="none"><path id="Path" d="m47.69 23.49c-.208118-.0002419-.3943229-.1293732-.4674955-.3242037-.0731727-.1948305-.0180095-.4146127.1384955-.5517963l3.908-3.42-5.047 2.914c-.225024.1298327-.5119893.0657046-.6603401-.147566s-.108657-.5046224.0913401-.670434l3.939-3.255-4.322 2.5c-.2254575.1330437-.5153687.0696598-.6647344-.1453323-.1493656-.2149921-.1076129-.5087994.0957344-.6736677l3.827-3.154-4.348 2.506c-.2280989.1338167-.5209547.0668721-.6682583-.1527586-.1473036-.2196308-.0981078-.515985.1122583-.6762414l2.788-2.153-3.2 1.847c-.2290632.1321979-.5214568.063148-.6671806-.1575572-.1457237-.2207053-.094369-.5167199.1171806-.6754428l2.11-1.584-2.58 1.49c-.226507.1291681-.5142486.0625855-.6609917-.1529516-.1467432-.2155372-.103215-.5076567.0999917-.6710484l3.433-2.735-4.214 2.434c-.2287843.1364419-.524367.069561-.6721284-.1520811-.1477614-.221642-.0958119-.5202111.1181284-.6789189l2.717-2.074-3.53 2.038c-.2310609.1298083-.523268.0567757-.6660866-.1664779-.1428185-.2232536-.086628-.5191613.1280866-.6745221l.508-.36-1.027.594c-.2313261.1333882-.5266402.061466-.670727-.1633522-.1440867-.2248181-.0860887-.5231794.131727-.6776478l.86-.61-1.534.885c-.2283835.1299972-.5184238.0610156-.6638282-.1578813-.1454044-.2188968-.0965443-.5129964.1118282-.6731187l3.1-2.347-4.361 2.519c-.226507.1291681-.5142486.0625855-.6609917-.1529516-.1467432-.2155372-.103215-.5076567.0999917-.6710484l4.344-3.458-6.449 3.72c-.2280542.1290416-.517047.0601323-.6623353-.1579314-.1452882-.2180638-.0975826-.5113034.1093353-.6720686l4.381-3.352-6.957 4.017c-.2333681.1382671-.5344194.0652417-.6785003-.1645824-.144081-.2298241-.078635-.5326135.1475003-.6824176l1.331-.907-3.605 2.084c-.2338926.1469077-.5425922.0763926-.6895-.1575-.1469077-.2338926-.0763926-.5425922.1575-.6895l2.825-1.928-9.827 5.674c-.2334461.1352991-.5321345.0609722-.6749447-.1679561-.1428102-.2289282-.0782242-.5298733.1459447-.6800439l6.985-4.688-8.171 4.718c-.2328603.1351428-.5309189.0616362-.6742423-.1662803-.1433233-.2279164-.080443-.5283964.1422423-.6797197l7.769-5.3-8.486 4.9c-.2347034.1364868-.5354374.0607325-.6774741-.1706544-.1420368-.2313868-.073465-.5338394.1544741-.6813456l2.485-1.618-2.81 1.622c-.2304184.1322364-.5240189.0611893-.6684864-.1617642-.1444674-.2229535-.0893536-.5199576.1254864-.6762358l7.612-5.5-8.5 4.906c-.2334461.1352991-.5321345.0609722-.6749447-.1679561-.1428102-.2289282-.0782242-.5298733.1459447-.6800439l2.716-1.834-3.086 1.783c-.2312043.1356861-.5282776.0648879-.6734329-.160492-.1451554-.2253799-.0867349-.52513301.1324329-.679508l3.517-2.527-3.774 2.178c-.2245986.12700926-.5089574.06225633-.656419-.14947682-.1474617-.21173315-.109592-.50090228.087419-.66752318l1.906-1.581-.8.459c-.23893.13584515-.5427102.05337078-.6801373-.18465285-.137427-.23802363-.0569695-.54234426.1801373-.68134715l5.916-3.415c.2251632-.13229253.5142123-.06902009.6635151.14524252s.1085645.50733798-.0935151.67275748l-1.903 1.58 7.44-4.295c.2312043-.13568612.5282776-.06488787.6734329.16049201.1451554.22537988.0867349.525133-.1324329.67950799l-3.517 2.525 6.633-3.833c.2334461-.13529908.5321345-.06097219.6749447.16795606.1428102.22892826.0782242.52987333-.1459447.68004394l-2.716 1.833 4.644-2.681c.2304184-.13223644.5240189-.06118928.6684864.16176419.1444674.22295348.0893536.51995759-.1254864.67623581l-7.61 5.495 10.461-6.037c.2342478-.13088328.5300435-.05352709.6702262.17527691.1401827.22880401.074765.52746697-.1482262.67672309l-2.492 1.624 3.836-2.215c.2328603-.1351428.5309189-.06163618.6742423.16628028.1433233.22791645.080443.52839646-.1422423.67971972l-7.771 5.305 9.525-5.5c.2330829-.13066131.5277074-.05496574.6689423.17186612.1412349.22683187.0791592.52462377-.1409423.67613388l-6.981 4.687 8.476-4.894c.2333482-.14250218.537887-.07113963.6836338.16019585.1457468.23133547.0786439.53684112-.1506338.68580415l-2.827 1.929 3.709-2.142c.1520165-.09503265.3431849-.10174659.5014938-.01761276.1583089.08413384.2597076.24633352.266.4255s-.0834773.34808011-.2354938.44311276l-1.329.9 2.058-1.189c.228242-.1318458.5196375-.06386204.6659708.15537372.1463332.21923576.0973404.51441845-.1119708.67462628l-4.379 3.353 5.56-3.211c.2266681-.13175582.5166136-.0660514.6643416.15054615.1477279.21659755.1030619.51052002-.1023416.67345385l-4.342 3.462 5.519-3.186c.2283835-.12999717.5184238-.06101556.6638282.15788129s.0965443.51299637-.1118282.67311871l-3.1 2.348 3.857-2.227c.2313261-.13338821.5266402-.06146595.670727.16335216.1440867.22481812.0860887.52317941-.131727.67764784l-.86.611 1.2-.694c.2310609-.12980827.523268-.05677568.6660866.16647793.1428185.2232536.086628.51916126-.1280866.67452207l-.509.361.818-.472c.228242-.1318458.5196375-.06386204.6659708.15537372.1463332.21923576.0973404.51441845-.1119708.67462628l-2.715 2.072 3.284-1.9c.2266681-.13175582.5166136-.0660514.6643416.15054615.1477279.21659755.1030619.51052002-.1023416.67345385l-3.439 2.739 3.981-2.3c.2290632-.1321979.5214568-.063148.6671806.1575572.1457237.2207053.094369.5167199-.1171806.6754428l-2.112 1.585 2.448-1.414c.2280989-.1338167.5209547-.0668721.6682583.1527586.1473036.2196308.0981078.515985-.1122583.6762414l-2.788 2.153 3.109-1.795c.2253151-.1304911.5130605-.0662242.6614447.1477312.1483843.2139555.1077334.5059746-.0934447.6712688l-3.828 3.154 4.279-2.47c.2248836-.1275609.509928-.0626394.65739.1497267.1474621.2123662.1087026.5021295-.08939.6682733l-3.938 3.256 4.294-2.479c.2226556-.1273746.5055829-.0655928.6548741.1430023.1492912.2085952.1165111.4963282-.0758741.6659977l-3.906 3.419 4.234-2.444c.2028685-.1169845.4597544-.0774921.6181161.0950262s.1757685.4318386.0418839.6239738l-1.154 1.657.718-.415c.23893-.1358451.5427102-.0533708.6801373.1846528.137427.2380237.0569695.5423443-.1801373.6813472l-2.658 1.535c-.2028685.1169845-.4597544.0774921-.6181161-.0950262s-.1757685-.4318386-.0418839-.6239738l1.152-1.657-6.712 3.876c-.0758031.044382-.1621615.067526-.25.067z" fill="#1c85ad"/><path id="Path" d="m30.76 59.438c-.2218047.0003139-.4173044-.1455359-.4801907-.3582393-.0628862-.2127034.0218744-.4414127.2081907-.5617607l8.651-5.595-11.009 6.355c-.2343611.1288923-.5286543.0505227-.6678755-.1778537-.1392213-.2283764-.0740613-.5258734.1478755-.6751463l11.268-7.225-13 7.5c-.2355125.13196-.5332497.0531389-.6726204-.1780652-.1393708-.2312042-.0700423-.5312938.1566204-.6779348l8.748-5.482-8.8 5.079c-.2349709.1292146-.5300387.050062-.6687925-.179405-.1387537-.2294671-.0717837-.5275361.1517925-.675595l12.354-7.815-11.5 6.637c-.2263468.1267998-.5120755.0594093-.6579064-.1551704-.1458308-.2145797-.1033101-.5050523.0979064-.6688296l4.4-3.484-3.177 1.834c-.2227723.1294397-.5074311.0684047-.6575526-.1409889s-.1165485-.4985799.0775526-.6680111l1.399-1.225-.317.183c-.2092222.121191-.4751879.0753075-.6317098-.1089805s-.1587492-.4541733-.0052902-.6410195l.787-.96c-.0973443-.042227-.1783899-.1148523-.231-.207-.1380647-.2391402-.0561341-.5449248.183-.683l1.555-.9c.2091618-.1199379.4741262-.0735246.6300667.1103675s.1584356.4528792.0059333.6396325l-.418.51 2.322-1.34c.2223898-.1269737.5047663-.065395.6540994.1426415.1493332.2080365.1173442.4952735-.0740994.6653585l-1.389 1.225 4.715-2.722c.2269806-.1326577.5179234-.0668764.6657567.1505254.1478333.2174019.1020535.5121545-.1047567.6744746l-4.4 3.485 26.962-15.568c.2354379-.13455.5352149-.0569022.6757281.1750261.1405133.2319283.0705395.5335888-.1577281.6799739l-12.356 7.814 11.327-6.539c.2355125-.13196.5332497-.0531389.6726204.1780652.1393708.2312042.0700423.5312938-.1566204.6779348l-8.743 5.482 7.563-4.366c.2354116-.1379583.5379577-.061708.6798637.1713453.1419059.2330532.070765.5368414-.1598637.6826547l-11.264 7.225 9.662-5.578c.2355494-.1441463.5433537-.0700494.6875.1655s.0700494.5433537-.1655.6875l-8.657 5.6 6.757-3.9c.2334461-.1352991.5321345-.0609722.6749447.1679561.1428102.2289282.0782242.5298733-.1459447.6800439l-7.532 5.04 4.768-2.752c.2290632-.1321979.5214568-.063148.6671806.1575572.1457237.2207053.094369.5167199-.1171806.6754428l-5.1 3.824c.2255547.001802.4219749.1544.4794824.3725078.0575076.2181079-.0381386.4477138-.2334824.5604922l-6.53 3.77c-.2290632.1321979-.5214568.063148-.6671806-.1575572-.1457237-.2207053-.094369-.5167199.1171806-.6754428l4.645-3.479-10.59 6.113c-.2330829.1306613-.5277074.0549657-.6689423-.1718661-.1412349-.2268319-.0791592-.5246238.1409423-.6761339l7.524-5.036-10.825 6.245c-.0759114.0442382-.1621395.0676923-.25.068z" fill="#ffc306"/><path id="Path" d="m42.848 43.133c-.2195493.0005124-.4137479-.1422569-.47875-.3519636-.0650022-.2097066.0144012-.4372835.19575-.5610364l5.119-3.5-2.21 1.28c-.2299138.1328235-.5235501.0627731-.6687427-.1595365s-.0912979-.5193359.1227427-.6764635l6.36-4.669-4.3 2.482c-.2283835.1299972-.5184238.0610156-.6638282-.1578813-.1454044-.2188968-.0965443-.5129964.1118282-.6731187l5.741-4.356-4.377 2.525c-.2290632.1321979-.5214568.063148-.6671806-.1575572-.1457237-.2207053-.094369-.5167199.1171806-.6754428l4.15-3.107-3.217 1.857c-.2295527.1314921-.521805.0614183-.6667704-.1598726-.1449654-.2212908-.0924688-.5172061.1197704-.6751274l2.046-1.51-1.468.847c-.1991468.1142571-.450514.0782028-.6095162-.0874245s-.1847708-.4182562-.0624838-.6125755l1.213-1.908-.21.121c-.1547852.0907422-.3463247.0915917-.5019087.0022259-.155584-.0893657-.2513568-.2552442-.2509624-.4346667.0003945-.1794226.0968957-.3448784.2528711-.4335592l1.976-1.14c.1990945-.1132785.4497027-.0767785.6082143.0885839.1585116.1653623.1843818.4172898.0627857.6114161l-1.212 1.908 7.4-4.272c.2301583-.1366689.5271246-.067833.6736831.1561577s.0907153.5236721-.1266831.6798423l-2.046 1.51 2.748-1.587c.2290632-.1321979.5214568-.063148.6671806.1575572.1457237.2207053.094369.5167199-.1171806.6754428l-4.145 3.107 4.041-2.333c.228924-.1342308.5228351-.0662362.6695479.1548961s.0951128.5183603-.1175479.6771039l-5.742 4.357 5.3-3.058c.2299138-.1328235.5235501-.0627731.6687427.1595365s.0912979.5193359-.1227427.6764635l-6.356 4.666 5.751-3.32c.2328603-.1351428.5309189-.0616362.6742423.1662803.1433233.2279164.080443.5283964-.1422423.6797197l-5.127 3.5 4.462-2.576c.23893-.1358451.5427102-.0533708.6801373.1846528.137427.2380237.0569695.5423443-.1801373.6813472l-15.893 9.173c-.0764977.0445787-.1634609.068045-.252.068z" fill="#ffc306"/><path id="Path" d="m18.187 56.943c-.2033744-.0000204-.3864729-.1232227-.4631008-.3116088-.0766279-.188386-.0315153-.4044155.1141008-.5463912l.657-.639-1.347.778c-.2219765.128183-.5049351.0677387-.6551637-.1399529-.1502285-.2076917-.1190618-.4953507.0721637-.6660471l1.763-1.576-2.736 1.579c-.2271272.1307942-.5167067.0640046-.6636035-.1530559-.1468968-.2170604-.1012506-.5107158.1046035-.6729441l1.867-1.467-2.544 1.472c-.227731.1281621-.5157443.059345-.6609391-.1579231-.1451949-.217268-.0985947-.509699.1069391-.6710769l2.862-2.206-3.676 2.123c-.2259084.1319558-.5153456.0674504-.6638412-.1479469s-.1058364-.5088509.0978412-.6730531l4.131-3.373-5.121 2.956c-.2271272.1307942-.5167067.0640046-.6636035-.1530559-.1468968-.2170604-.1012506-.5107158.1046035-.6729441l3.337-2.611-4.01 2.313c-.2295527.1314921-.52180501.0614183-.6667704-.1598726-.14496539-.2212908-.0924688-.5172061.1197704-.6751274l1.864-1.375-2.217 1.277c-.22683113.1346393-.51923844.0699075-.66804882-.1478896-.14881039-.2177971-.10283016-.513733.10504882-.6761104l3.433-2.749-3.979 2.3c-.2296891.1296297-.52056951.0585592-.66460409-.1623819-.14403457-.2209411-.09168688-.5157667.11960409-.6736181l1.357-.992-1.6.922c-.22695866.1282325-.51435386.0605795-.66027781-.1554298s-.1014061-.5078844.10227781-.6705702l3.051-2.4-3.395 1.96c-.22575858.1294404-.51305935.0640705-.66058916-.1503047-.1475298-.2143751-.10595655-.5060712.09558916-.6706953l3.585-2.9-3.948 2.278c-.23080222.1338179-.52601117.0628564-.670779-.1612399-.14476784-.2240963-.08809237-.5223777.128779-.6777601l.706-.506-.753.434c-.23028726.1343427-.52547493.0643663-.67095179-.1590541-.14547685-.2234204-.0900639-.5216852.12595179-.6779459l1.337-.974-1.337.772c-.22787101.1265147-.51470386.056766-.65903729-.1602571-.14433344-.2170231-.09774759-.5085154.10703729-.6697429l2.718-2.072-2.777 1.6c-.23174266.1353654-.52902013.0636298-.67352428-.1625272-.14450415-.2261571-.08468698-.5260601.13552428-.6794728l.151-.106c-.23119233.1280141-.52208151.054013-.66399472-.1689178-.14191321-.2229309-.08584005-.5178012.12799472-.6730822l1.366-.987-1.26.727c-.23093065.1317312-.52456739.0597083-.66833375-.1639283s-.0873821-.520673.12833375-.6760717l1.063-.76-.9.521c-.22758907.1298897-.51685108.062032-.66293484-.1555172s-.09942429-.5109773.10693484-.6724828l3.81-2.95-3.694 2.135c-.22805424.1290416-.51704704.0601323-.66233529-.1579314-.14528824-.2180638-.09758263-.5113034.10933529-.6720686l3.875-2.957-3.707 2.14c-.23093065.1317312-.52456739.0597083-.66833375-.1639283s-.0873821-.520673.12833375-.6760717l1.936-1.376-1.585.914c-.23018285.1290216-.52100516.0569569-.66431246-.1646141-.1433073-.2215711-.08976142-.5163656.12231246-.6733859l2.992-2.155-2.661 1.536c-.22857883.1329729-.52117387.064966-.66767697-.1551861-.1465031-.220152-.09624839-.5163129.11467697-.6758139l5.771-4.388-5.336 3.082c-.23140731.1507737-.54122624.0854073-.69199997-.146s-.08540732-.5412263.14599997-.692l6.409-4.71-5.779 3.337c-.23174266.1353654-.52902013.0636298-.67352428-.1625272-.14450415-.2261571-.08468698-.5260601.13552428-.6794728l5.143-3.635-4.439 2.563c-.23223773.1273115-.52346332.0514462-.66406897-.1729923-.14060566-.2244384-.08181009-.5195841.13406897-.6730077l1.821-1.236-1.06.612c-.22871944.1310429-.51988771.0620127-.66543532-.1577616-.14554761-.2197742-.09547523-.5147944.11443532-.6742384l5.268-3.987-4.177 2.413c-.22809892.1338167-.52095467.0668721-.66825828-.1527586-.1473036-.2196308-.09810783-.515985.11225828-.6762414l4.036-3.121-2.783 1.613c-.22762271.1347294-.52079843.0688675-.66892413-.1502738-.14812569-.2191412-.0999482-.5157364.10992413-.6767262l2.578-2.02-1.079.623c-.22053922.1280792-.50213181.0696485-.65350464-.1356028s-.12400893-.4915375.06350464-.6643972l2.624-2.437-.462.267c-.21647479.1176434-.48638301.0600602-.63599806-.1356862-.14961506-.1957464-.13433801-.4713056.03599806-.6493138l1.319-1.338c-.02880756-.0303001-.05397805-.0638607-.075-.1-.0666188-.1149293-.08476389-.2516448-.05043057-.3799727.03433332-.1283278.11832247-.2377179.23343057-.3040273l1.627-.938c.21647479-.1176434.48638301-.0600602.63599806.1356862.14961506.1957464.13433801.4713056-.03599806.6493138l-.313.316 1.055-.61c.22053922-.1280792.50213181-.0696485.65350464.1356028.15137286.2052513.12400896.4915375-.06350464.6643972l-2.62 2.438 3.37-1.946c.2271272-.1307942.5167067-.0640046.6636035.1530559.1468968.2170604.1012506.5107158-.1046035.6729441l-2.576 2.019 3.084-1.781c.2279124-.1308241.5182022-.0628918.6643976.1554793.1461953.2183711.0983971.512647-.1093976.6735207l-4.037 3.121 4.713-2.721c.228924-.1342308.5228351-.0662362.6695479.1548961s.0951128.5183603-.1175479.6771039l-5.268 3.985 6.046-3.491c.2329673-.1327691.5291919-.0581284.6714287.1691822.1422368.2273105.0798406.5263539-.1414287.6778178l-1.822 1.237 1.941-1.121c.2317427-.1353654.5290201-.0636298.6735243.1625272.1445041.2261571.084687.5260601-.1355243.6794728l-5.145 3.632 4.173-2.4c.2299138-.1328235.5235501-.0627731.6687427.1595365s.0912979.5193359-.1227427.6764635l-6.408 4.71 4.328-2.5c.2291432-.1380567.526358-.0712921.6744416.1515028.1480836.2227948.0945664.5226782-.1214416.6804972l-5.774 4.385 4.44-2.564c.2308022-.1338179.5260112-.0628564.670779.1612399s.0880924.5223777-.128779.6777601l-3 2.156 2.143-1.237c.2316336-.1380114.5309786-.0675015.6766613.1593858.1456826.2268872.0852257.5284233-.1366613.6816142l-1.934 1.374 1.275-.736c.2287843-.1364419.524367-.069561.6721284.1520811.1477614.221642.0958119.5202111-.1181284.6789189l-3.878 2.96 3.349-1.935c.2280989-.1338167.5209547-.0668721.6682583.1527586.1473036.2196308.0981078.515985-.1122583.6762414l-3.805 2.949 3.488-2.012c.2303174-.1272935.5198822-.0542782.6623044.1670037s.0889497.5150841-.1223044.6719963l-1.063.758.739-.426c.2304184-.1322364.5240189-.0611893.6684864.1617642.1444674.2229535.0893536.5199576-.1254864.6762358l-1.367.989 1.153-.665c.2310609-.1298083.523268-.0567757.6660866.1664779.1428185.2232536.086628.5191613-.1280866.6745221l-.161.113c.2308595-.1091381.5068624-.0267796.6401638.191023.1333013.2178026.0810623.5010544-.1211638.656977l-2.72 2.072 2.7-1.557c.2302873-.1343427.5254749-.0643663.6709518.1590541.1454768.2234204.0900639.5216852-.1259518.6779459l-1.339.976 1.324-.765c.2308022-.1338179.5260112-.0628564.670779.1612399s.0880924.5223777-.128779.6777601l-.7.5.714-.412c.2257586-.1294404.5130594-.0640705.6605892.1503047.1475298.2143751.1059565.5060712-.0955892.6706953l-3.587 2.908 4-2.306c.2276227-.1347294.5207984-.0688675.6689241.1502738.1481257.2191412.0999482.5157364-.1099241.6767262l-3.059 2.392 3.529-2.037c.2296891-.1296297.5205695-.0585592.6646041.1623819s.0916869.5157667-.1196041.6736181l-1.36.995 1.648-.951c.2263606-.1309251.5153721-.0653166.6630162.1505114.1476442.2158279.1040467.5089685-.1000162.6724886l-3.425 2.748 4.22-2.439c.2295527-.1314921.521805-.0614183.6667704.1598726.1449654.2212908.0924688.5172061-.1197704.6751274l-1.867 1.377 2.459-1.419c.2271272-.1307942.5167067-.0640046.6636035.1530559.1468968.2170604.1012506.5107158-.1046035.6729441l-3.335 2.61 4.325-2.5c.2260583-.1347377.5178638-.0711832.6674138.145361s.1056473.5119459-.1004138.675639l-4.13 3.373 4.83-2.789c.227731-.1281621.5157443-.059345.6609391.1579231.1451949.217268.0985947.509699-.1069391.6710769l-2.867 2.209 2.138-1.231c.2271272-.1307942.5167067-.0640046.6636035.1530559.1468968.2170604.1012506.5107158-.1046035.6729441l-1.869 1.467.826-.475c.2197759-.1165123.4917776-.0537473.6382794.1472845.1465019.2010317.1229447.4791853-.0552794.6527155l-1.761 1.574.639-.368c.2184203-.1276802.4977941-.0720852.6506935.1294872s.1311343.4855915-.0506935.6615128l-.816.794c.1886024-.0142462.3681067.0831319.459.249.1380647.2391402.0561341.5449248-.183.683l-3.1 1.789c-.0754032.0459065-.1617303.0707687-.25.072z" fill="#a083ee"/><path id="Path" d="m29.974 39.417c-.2127606.00058-.4025855-.1335449-.4731021-.3342806-.0705166-.2007358-.0062781-.4241108.1601021-.5567194l3.606-2.888-5.753 3.321c-.2279124.1308241-.5182022.0628918-.6643976-.1554793-.1461953-.2183711-.0983971-.512647.1093976-.6735207l5.641-4.33-7.2 4.157c-.232192.1378754-.5319082.0664712-.6769921-.1612862-.1450839-.2277573-.0831069-.529564.1399921-.6817138l3.936-2.744-4.585 2.648c-.2336556.130691-.5287926.0541466-.6694787-.1736308-.140686-.2277774-.0769932-.5259521.1444787-.6763692l.564-.373-.769.443c-.2313246.1263251-.5209869.0513891-.6620294-.1712679-.1410425-.2226569-.0850249-.5165645.1280294-.6717321l4.5-3.116-4.862 2.807c-.2300482.1308569-.5222207.059778-.6664488-.1621318-.1442281-.2219099-.0905463-.5177734.1224488-.6748682l6.787-4.949-7.054 4.072c-.2335451.1328438-.5303244.0573638-.6720248-.1709163s-.0776546-.5277351.1450248-.6780837l1.682-1.123-1.419.82c-.2304184.1322364-.5240189.0611893-.6684864-.1617642-.1444674-.2229535-.0893536-.5199576.1254864-.6762358l5.27-3.808-4.907 2.833c-.2318603.1330617-.527371.0602043-.6708066-.1653857-.1434357-.22559-.0840493-.5240996.1348066-.6776143l2.43-1.7-1.769 1.021c-.228242.1318458-.5196375.063862-.6659708-.1553737-.1463332-.2192358-.0973404-.5144185.1119708-.6746263l3.469-2.646-2.219 1.291c-.2227723.1294397-.5074311.0684047-.6575526-.1409889s-.1165485-.4985799.0775526-.6680111l2.242-1.973c-.1968521-.0509755-.3432249-.2160902-.3702292-.4176343-.0270042-.2015441.0707396-.3993673.2472292-.5003657l3.431-1.981c.2223898-.1269737.5047663-.065395.6540994.1426415.1493332.2080365.1173442.4952735-.0740994.6653585l-1.69 1.488 4.612-2.663c.228242-.1318458.5196375-.063862.6659708.1553737.1463332.2192358.0973404.5144185-.1119708.6746263l-3.469 2.646 5.129-2.961c.2318603-.1330617.527371-.0602043.6708066.1653857.1434357.22559.0840493.5240996-.1348066.6776143l-2.432 1.7 3.272-1.889c.2304184-.1322364.5240189-.0611893.6684864.1617642.1444674.2229535.0893536.5199576-.1254864.6762358l-5.267 3.805 6.181-3.568c.2327769-.1270897.524286-.0503218.6642741.174934.139988.2252559.0797468.5206233-.1372741.673066l-1.689 1.129 1.979-1.142c.2300482-.1308569.5222207-.059778.6664488.1621318.1442281.2219099.0905463.5177734-.1224488.6748682l-6.787 4.944 7.335-4.234c.2319831-.1309881.5259285-.0570795.6683699.1680527.1424414.2251321.0833463.52241-.1343699.6759473l-4.505 3.115 4.591-2.65c.2349972-.1452509.5432491-.0724971.6885.1625.1452509.2349972.0724971.5432491-.1625.6885l-.557.367.284-.164c.2318603-.1330617.527371-.0602043.6708066.1653857.1434357.22559.0840493.5240996-.1348066.6776143l-3.94 2.748 3.615-2.088c.2279124-.1308241.5182022-.0628918.6643976.1554793.1461953.2183711.0983971.512647-.1093976.6735207l-5.637 4.327 4.874-2.814c.2268311-.1346393.5192384-.0699075.6680488.1478896s.1028302.513733-.1050488.6761104l-3.606 2.89 2.111-1.219c.2265186-.1336661.5178659-.0689882.6665473.1479706s.103858.5120137-.1025473.6750294l-1.719 1.381c.0471975.0379757.0868792.0844406.117.137.1382327.2388784.0567713.5445824-.182.683l-3.429 1.979c-.2260575.1301558-.5141897.0646595-.6617686-.1504288-.1475789-.2150884-.1050107-.5074886.0977686-.6715712l.075-.059-2.164 1.247c-.0758413.0442906-.1621742.0674278-.25.067z" fill="#92d149"/><g fill="#262626"><path id="Shape" d="m20.4 15.446c4.656-1.545 7.983-3.624 13.188-2.481 4.952 1.087 8.256 4.134 11.171 8.063 2.6 3.506 4.192 2.4 8.147 1.336 2.813-.754 5.336-1.324 4.11-4.8-1.975-5.583-7.377-10.564-12.416-13.375-9.975-5.555-21.9-4.653-31.374 1.447-3.021 2.147-1.9 3.854.266 6.019 2.098 2.102 3.67 4.865 6.908 3.791zm-6.2-9.083c9.6560817-6.36580406 22.1999944-6.27219867 31.76.237 2.709 1.88 11.264 9.228 9.468 13.056-.637 1.357-5.345 3.081-7.006 2.765-1.836-.349-3.8-4.243-5.087-5.535-1.1173905-1.1167082-2.372494-2.0865151-3.735-2.886-3.0197189-1.7654463-6.4722316-2.6530769-9.969-2.563-1.9763381.0562684-3.932379.4151008-5.8 1.064-1.832.64-4.057 2.328-6 1.521-2.012-.842-6.373-5.708-3.631-7.659z"/><path id="Shape" d="m49.113 26.463c-2.021 1.169-1.587 1.643-1.856 3.994-.53 4.638-1.68 8.644-5.131 12.074-2.0679505 2.0559494-4.626858 3.5495059-7.434 4.339-2.015.559-3.99.11-5.923.616-1.538.4-1.847.45-2.621 1.939s-2.484 6.539-1.825 8.217c1.355 3.453 8.893 1.8 11.5 1.267 5.7692231-1.2309432 11.0704158-4.0745214 15.287-8.2 4.4241847-4.5201299 7.3304741-10.3061449 8.315-16.554.467-3.194 1.7-9.7-3.051-9.638-2.5176776.2066644-4.9774118.8658908-7.261 1.946zm8.979.443c.952 1.626.047 6.337-.259 8.111-1.0527534 5.7763239-3.8136869 11.1041662-7.926 15.295-4.6357982 4.5373481-10.6687455 7.3751591-17.12 8.053-2.571.243-6.409.288-6.877-2.721-.147-.94.773-2.887 1.006-3.758.57-2.127.693-2.816 3.215-3.391 1.312-.3 2.744-.2 4.084-.511 3.4505805-.8035211 6.6077637-2.5558185 9.115-5.059 2.6176995-2.6287305 4.3883962-5.9810035 5.084-9.625.37-2-.326-4.825 1.52-6.064.863-.58 2.506-.674 3.526-.948 1.695-.453 3.396-1.488 4.632.618z"/><path id="Shape" d="m36.3 37.181c2.0062624-1.6973086 3.2223315-4.1479466 3.3605511-6.7722257.1382196-2.624279-.8136874-5.1891034-2.6305511-7.0877743-3.6735074-3.5194668-9.3990871-3.7342942-13.326-.5-2.0133403 1.6928687-3.2346519 4.1447462-3.3730055 6.7715697s.8186365 5.1934312 2.6430055 7.0884303c3.6628532 3.544527 9.4078335 3.7600823 13.326.5zm-13.318-11.756c2.825-4.614 8.9-5 12.718-1.474 2.7925566 2.8351919 3.3331034 7.1923759 1.318 10.624-1.3195099 2.1134016-3.5292915 3.5112387-6.0042247 3.7980803s-4.9458563-.5685078-6.7137753-2.3240803c-2.8155803-2.8240091-3.3581617-7.1975936-1.318-10.624z"/><path id="Shape" d="m.366 31.79c.25165746 4.0024373 1.30590365 7.9133506 3.1 11.5.01239752.0457771.0338168.0886157.063.126 1.86386463 3.7223168 4.51110308 6.997251 7.76 9.6 2.081 1.656 7.065 6.061 9.865 3.4 1.737-1.654 1.989-5.934 2.563-8.085.0077799-.0388907.0057174-.0791091-.006-.117v-.014c-.0009013-.0233564-.0045943-.0465211-.011-.069-.311-2.962-3.786-3.729-5.765-5.7-2.749691-2.7593485-4.523827-6.3406243-5.053-10.2-.3128736-2.3246752-.1592129-4.6883977.452-6.953.516-1.922 1.81-3.36 2.331-5.155.4921418-1.1369365.2113288-2.4607694-.7-3.3-1.185-1.549-4.065-5.043-6.181-5.301-3.819-.466-5.916 6.193-6.853 8.858-1.27728185 3.6543646-1.8097526 7.5275282-1.566 11.391-.00016589.0063498.00016848.0127027.001.019zm21.884 16.728c-.434 1.667-.646 5.209-1.724 6.448-1.75 2.009-5.1.023-8.036-2.553l6.252-7.72c1.598 1.132 3.329 2.399 3.508 3.825zm-4.324-4.408c-2.0586667 2.544-4.1183333 5.0876667-6.179 7.631-1.6270641-1.5088551-3.1268215-3.1494238-4.484-4.905-.82525894-1.131773-1.5640191-2.324152-2.21-3.567l8.5-4.329c.823355 1.4965775 1.848628 2.8728055 3.047 4.09.4136681.3934513.8569745.7545153 1.326 1.08zm-4.849-6.051-8.467 4.315c-1.57929066-3.3130511-2.51519664-6.8958268-2.758-10.558l9.478-.5c.1437632 2.3390226.7369104 4.6284282 1.747 6.743zm-3.76-24.945c.861.3 1.911 1.909 2.577 2.574 1.839 1.837 2.551 2.609 1.642 5.586-.1771374.5534005-.3847887 1.0965657-.622 1.627l-9.188-3.527c.215-.551.443-1.1.694-1.638.825-1.775 2.489-5.45 4.897-4.622zm-5.929 7.208 9.13 3.505c-.3377926.7355602-.6056393 1.5012669-.8 2.287-.3313266 1.4835517-.4771091 3.0025117-.434 4.522l-9.477.5c-.16491582-3.672379.3716589-7.3425365 1.581-10.814z"/><path id="Path" d="m30.077 24.516c-3.1042083.011271-5.6559703 2.4513989-5.806 5.552-.02.7 1.444.455 1.461-.136-.0573744-2.3804092 1.8113898-4.3637694 4.191-4.448.788-.024 1.146-.998.154-.968z"/></g></g></svg>