<svg height="512" viewBox="0 0 60 50" width="512" xmlns="http://www.w3.org/2000/svg"><g id="010---Sad-Brain" fill="none"><path id="Path" d="m40.028 49.445c-.1862547-.0000472-.357045-.1036174-.4431857-.2687555-.0861408-.1651381-.073352-.3644684.0331857-.5172445l.653-.932-1.649.951c-.2207276.1320893-.5056598.0751513-.6586724-.1316224-.1530126-.2067738-.124171-.4959044.0666724-.6683776l.415-.389-.571.33c-.2157055.1230645-.4890446.0691582-.6418764-.1265869-.1528317-.1957451-.1388315-.4739971.0328764-.6534131l1.879-1.947-2.428 1.4c-.217123.1206668-.4899085.063641-.6405105-.1338986s-.1333491-.4756874.0405105-.6531014l2.784-2.776-3.525 2.035c-.2257586.1294404-.5130594.0640705-.6605892-.1503047-.1475298-.2143751-.1059565-.5060712.0955892-.6706953l1.894-1.534-2.251 1.3c-.2296891.1296297-.5205695.0585592-.6646041-.1623819s-.0916869-.5157667.1196041-.6736181l.266-.194-.412.237c-.2279124.1308241-.5182022.0628918-.6643976-.1554793-.1461953-.2183711-.0983971-.512647.1093976-.6735207l2.5-1.929-2.907 1.682c-.2305507.1302945-.5227069.0582293-.6662193-.1643342-.1435123-.2225634-.0886-.5184238.1252193-.6746658l1.127-.807-1.829 1.055c-.2285788.1329729-.5211739.064966-.667677-.1551861-.1465031-.220152-.0962484-.5163129.114677-.6758139l4.38-3.331-6.122 3.535c-.2304184.1322364-.5240189.0611893-.6684864-.1617642-.1444674-.2229535-.0893536-.5199576.1254864-.6762358l5-3.614-5.719 3.308c-.2305507.1302945-.5227069.0582293-.6662193-.1643342-.1435123-.2225634-.0886-.5184238.1252193-.6746658l4.641-3.334-4.7 2.711c-.2271002.1265913-.5133226.0580067-.6583864-.1577626-.1450637-.2157693-.100553-.506709.1023864-.6692374l4.256-3.306-3.82 2.206c-.2259042.1277621-.5120042.0614438-.6586593-.152678-.1466552-.2141217-.1051039-.5048532.0956593-.669322l2.21-1.779-1.647.951c-.2088997.1188201-.4727821.0722109-.6283375-.1109825-.1555554-.1831933-.1587734-.4511411-.0076625-.6380175l1.689-2.066-1.053.608c-.1740589.1000931-.3911093.0863566-.5511607-.0348813-.1600515-.1212379-.2320547-.3264576-.1828393-.5211187l.28-1.1c-.0961998-.0423235-.1761655-.1145732-.228-.206-.1375532-.2386555-.0561721-.5436114.182-.682l.5-.289c.1739348-.1004898.391121-.0871307.5514291.0339182.160308.121049.2326094.3262826.1835709.5210818l-.209.822 2.4-1.383c.2089623-.1200463.4738237-.0739562.6299505.1096215s.1590908.4524031.0070495.6393785l-1.69 2.065 4.889-2.822c.2260575-.1301558.5141897-.0646595.6617686.1504288.1475789.2150884.1050107.5074886-.0977686.6715712l-2.211 1.78 4.516-2.608c.2272713-.1290292.5155715-.0612656.6615658.155498.1459944.2167636.1004262.5093938-.1045658.671502l-4.257 3.304 7.172-4.14c.2305507-.1302945.5227069-.0582293.6662193.1643342.1435123.2225634.0886.5184238-.1252193.6746658l-4.646 3.332 5.442-3.141c.2304184-.1322364.5240189-.0611893.6684864.1617642.1444674.2229535.0893536.5199576-.1254864.6762358l-5 3.612 4.46-2.574c.2283835-.1299972.5184238-.0610156.6638282.1578813.1454044.2188968.0965443.5129964-.1118282.6731187l-4.385 3.332 3.831-2.211c.2305507-.1302945.5227069-.0582293.6662193.1643342.1435123.2225634.0886.5184238-.1252193.6746658l-1.128.807.587-.338c.227731-.1281621.5157443-.059345.6609391.1579231.1451949.217268.0985947.509699-.1069391.6710769l-2.505 1.935 1.951-1.126c.2296891-.1296297.5205695-.0585592.6646041.1623819s.0916869.5157667-.1196041.6736181l-.413.3c.22743-.0552484.4627537.0546592.5663649.2645198.1036113.2098607.0477828.4635143-.1343649.6104802l-1.893 1.533 1.329-.768c.2174475-.1222843.4917629-.0655717.6428937.1329134.1511308.1984852.1328285.4780031-.0428937.6550866l-2.79 2.778 2.188-1.263c.2157055-.1230645.4890446-.0691582.6418764.1265869.1528317.1957451.1388315.4739971-.0328764.6534131l-1.878 1.947 1.269-.733c.2206356-.1300292.503851-.072325.6560244.1336626s.1241014.4936554-.0650244.6663374l-.471.441c.1806693-.0490881.3736243.0068689.5.145.1584117.1724945.1758672.4318329.042.624l-.741 1.061c.2256041.0007854.4227369.152554.481187.3704563.0584502.2179023-.0362625.4479555-.231187.5615437l-1.615.932c-.0753157.0424676-.1605449.0642062-.247.063z" fill="#ed75b7"/><path id="Path" d="m43.062 42.326c-.2142984-.002129-.4034091-.1405908-.4701605-.3442391-.0667513-.2036482.0037027-.4271896.1751605-.5557609l4.433-3.249-6.2 3.581c-.2301828.1290216-.5210052.0569569-.6643125-.1646141-.1433073-.2215711-.0897614-.5163656.1223125-.6733859l5.8-4.176-7.258 4.187c-.2340569.1357068-.5336008.0606207-.6759704-.1694442s-.0759129-.5316408.1499704-.6805558l1.678-1.111-2.262 1.3c-.2300482.1308569-.5222207.059778-.6664488-.1621318-.1442281-.2219099-.0905463-.5177734.1224488-.6748682l6.73-4.879-7.64 4.411c-.2312043.1356861-.5282776.0648879-.6734329-.160492-.1451554-.2253799-.0867349-.525133.1324329-.679508l5.885-4.2-6.38 3.682c-.2299606.1262156-.518365.0532546-.6606421-.1671302-.1422771-.2203849-.0900471-.5132542.1196421-.6708698l5.411-3.869-4.81 2.777c-.2279124.1308241-.5182022.0628918-.6643976-.1554793-.1461953-.2183711-.0983971-.512647.1093976-.6735207l5.713-4.382-.349.2c-.2187434.1297091-.5000021.0745628-.6535686-.128145s-.1305136-.4883932.0535686-.663855l4.231-4.074c-.0490674-.2142302.0475098-.4353839.238-.545l.867-.5c.2190652-.1318893.5023394-.0772423.6566242.1266708s.1298566.4913741-.0566242.6663292l-2.305 2.212 3.427-1.978c.227731-.1281621.5157443-.059345.6609391.1579231.1451949.217268.0985947.509699-.1069391.6710769l-5.71 4.38 7.058-4.074c.2305507-.1302945.5227069-.0582293.6662193.1643342.1435123.2225634.0886.5184238-.1252193.6746658l-5.4 3.867 6.481-3.741c.2312043-.1356861.5282776-.0648879.6734329.160492.1451554.2253799.0867349.525133-.1324329.679508l-5.888 4.2 7.014-4.049c.2306768-.1361239.5276494-.0662929.6734904.1583666s.0887428.5243409-.1294904.6796334l-6.732 4.882 8.015-4.627c.233204-.1287421.5263939-.0520483.6666872.1743946.1402933.226443.0784231.5231151-.1406872.6746054l-1.671 1.109 1.738-1c.2301828-.1290216.5210052-.0569569.6643125.1646141.1433073.2215711.0897614.5163656-.1223125.6733859l-5.8 4.177 5.6-3.232c.2296891-.1296297.5205695-.0585592.6646041.1623819s.0916869.5157667-.1196041.6736181l-4.433 3.246 3.7-2.138c.2254634-.1287726.5119753-.0635416.6594703.1501437.1474949.2136853.1068861.5047094-.0934703.6698563l-3.415 2.792 1.564-.9c.23893-.1358451.5427102-.0533708.6801373.1846528.137427.2380237.0569695.5423443-.1801373.6813472l-6.907 3.982c-.2251719.1281476-.5109328.0630663-.6584056-.14995-.1474728-.2130162-.107801-.5033971.0914056-.66905l3.418-2.792-6.339 3.66c-.0761051.0435393-.1623213.0663003-.25.066z" fill="#d75da6"/><path id="Path" d="m52.9 31.351c-.2109446.0004131-.3994565-.1316057-.4711854-.329981s-.0112427-.4204273.1511854-.555019l1.208-1-2.991 1.726c-.2256086.1271264-.5109479.0609576-.657579-.1524896-.1466312-.2134471-.106025-.5035297.093579-.6685104l3.45-2.789-4.917 2.839c-.226507.1291681-.5142486.0625855-.6609917-.1529516-.1467432-.2155372-.103215-.5076567.0999917-.6710484l4.766-3.774-5.819 3.36c-.23893.1358451-.5427102.0533708-.6801373-.1846528-.137427-.2380237-.0569695-.5423443.1801373-.6813472l11.739-6.778c.2268147-.12995.5154475-.0632557.6622581.1530278.1468106.2162836.1022433.50915-.1022581.6719722l-4.768 3.776 4.536-2.619c.2256086-.1271264.5109479-.0609576.657579.1524896.1466312.2134471.106025.5035297-.093579.6685104l-3.453 2.784 2.541-1.467c.225024-.1298327.5119893-.0657046.6603401.147566s.108657.5046224-.0913401.670434l-1.461 1.214c.1834668.0037509.3534551.0971511.455.25.1380647.2391402.0561341.5449248-.183.683l-4.6 2.659c-.0762046.0444081-.1628002.0678683-.251.068z" fill="#f289ca"/><path id="Path" d="m35.359 36.434c-.2225971-.0002631-.4182138-.1476474-.4798555-.3615395-.0616417-.213892.0255381-.4427757.2138555-.5614605l1.324-.835-2.765 1.595c-.2330372.1238601-.5222123.0452782-.6605113-.1794907s-.0780959-.5183212.1375113-.6705093l9.221-6.033-11.056 6.383c-.2347034.1364868-.5354374.0607325-.6774741-.1706544-.1420368-.2313868-.073465-.5338394.1544741-.6813456l10.193-6.656-11.616 6.706c-.1549945.0985297-.351531.1041539-.5119064.0146489-.1603754-.0895049-.2587712-.2597296-.2562855-.4433739s.1054527-.3511436.2681919-.436275l27.381-15.81c.2352733-.1446986.5433014-.0712733.688.164s.0712733.5433014-.164.688l-10.188 6.654 10.819-6.246c.2337734-.1287456.5274505-.051198.667188.1761759.1397374.2273739.07627.5244122-.144188.6748241l-9.222 6.034 9.476-5.471c.2363779-.1427656.5437344-.0668779.6865.1695s.0668779.5437344-.1695.6865l-12.251 7.723c.1247069.2184214.0677533.4954816-.133.647l-2.008 1.514c.1194332.0370776.2202654.1182439.282.227.1375532.2386555.0561721.5436114-.182.682l-5.607 3.237c-.2290632.1321979-.5214568.063148-.6671806-.1575572-.1457237-.2207053-.094369-.5167199.1171806-.6754428l.945-.712-3.565 2.057c-.0759114.0442382-.1621395.0676923-.25.068z" fill="#f289ca"/><path id="Path" d="m13.135 4.554c-.226294-.00000996-.4243705-.15200579-.4829405-.37058883-.0585699-.21858305.0369699-.4492542.2329405-.56241117l3.079-1.778c.23893-.13584515.5427102-.05337078.6801373.18465285.137427.23802363.0569695.54234426-.1801373.68134715l-3.079 1.778c-.0758978.04415489-.1621931.06728203-.25.067z" fill="#f289ca"/><path id="Path" d="m21.191 39.443c-.2226857-.0008871-.4179448-.1489363-.4789074-.3631167-.0609627-.2141805.0270667-.4428626.2159074-.5608833l6.851-4.248-8.492 4.9c-.2354379.13455-.5352149.0569022-.6757281-.1750261-.1405133-.2319283-.0705395-.5335888.1577281-.6799739l15.962-10.185-17.674 10.2c-.2362075.133071-.5354329.0536509-.6745599-.1790411-.1391271-.2326919-.0674613-.5338687.1615599-.6789589l7.584-4.673-8.258 4.768c-.2361735.1361818-.537908.0580681-.6783318-.1756081-.1404239-.2336761-.0677709-.5367718.1633318-.6813919l12.909-8.045-13.555 7.825c-.2350866.127347-.5287583.0472199-.6665908-.1818764-.1378325-.2290964-.071048-.5260868.1515908-.6741236l14.206-8.875-14.663 8.467c-.2354379.13455-.5352149.0569022-.6757281-.1750261-.1405133-.2319283-.0705395-.5335888.1577281-.6799739l19.038-12.108-19.4 11.2c-.2355125.13196-.5332497.0531389-.6726204-.1780652-.1393708-.2312042-.0700423-.5312938.1566204-.6779348l16.7-10.523-17.864 10.315c-.2362845.1306359-.5336041.0500916-.6716393-.181948s-.0669238-.5317553.1606393-.677052l4.134-2.522-5.414 3.125c-.23637787.1430418-.54395825.0673779-.687-.169s-.06737787-.5439582.169-.687l18.726-11.849-20.553 11.866c-.23617349.1361818-.537908.0580681-.67833183-.1756081-.14042384-.2336761-.06777083-.5367718.16333183-.6813919l15.151-9.448-16.111 9.3c-.23560872.1297647-.5316571.04988-.67000668-.1807924-.13834959-.2306723-.06941665-.5294607.15600668-.6762076l15.161-9.473-15.83 9.142c-.23448097.1270728-.52742279.0477401-.66573664-.1802909-.13831386-.2280309-.07330581-.5244809.14773664-.6737091l18.185-11.535-18.715 10.804c-.23571786.1278172-.53029699.0469384-.66770199-.1833224-.13740501-.2302607-.06871185-.5279174.15570199-.6746776l8.02-4.936-8.052 4.649c-.23610173.1433179-.54368209.0681017-.68699998-.168s-.06810174-.5436821.16799998-.687l17.3-11.016-17.2 9.931c-.23620749.133071-.53543293.0536509-.67455995-.1790411-.13912701-.2326919-.06746125-.5338687.16155995-.6789589l7.512-4.649-7.082 4.087c-.23486417.1312813-.53150396.0531604-.67124116-.1767732-.1397372-.2299337-.07245767-.5292187.15224116-.6772268l13.406-8.587-13.59 7.846c-.23693016.1422133-.54428666.0654301-.68649998-.1715-.14221332-.2369302-.06543016-.5442867.17149998-.6865l4.72-2.94-4.407 2.544c-.23486417.1312813-.53150396.0531604-.67124116-.1767732-.13973719-.2299337-.07245767-.5292187.15224116-.6772268l9.4-5.991-8.865 5.115c-.2341443.133112-.53165209.0568382-.67287099-.1725078-.1412189-.2293459-.07539606-.5293391.14887099-.6784922l11.155-7.312-9.77 5.641c-.23389259.1469077-.54259224.0763926-.68949997-.1575-.14690774-.2338926-.0763926-.5425922.15749997-.6895l7.541-5.124-4.884 2.82c-.23229375.1351768-.52989283.0625367-.67378421-.164462-.14389139-.2269988-.08259275-.5271392.13878421-.679538l4.736-3.282-3.752 2.166c-.22326907.134603-.51248993.075066-.66444187-.1367775s-.11563103-.5048864.08344187-.6732225l1.662-1.47c-.10352666-.04155928-.18989764-.11700169-.245-.214-.13806467-.23914015-.05613408-.54492481.183-.683l3.132-1.808c.22212621-.12659452.50397116-.06522422.65335251.14226418.14938136.20748839.11816974.4942439-.07235251.66473582l-.942.835 9.961-5.751c.2333403-.14773617.5422638-.07834031.69.155s.0783403.54226383-.155.69l-4.735 3.281 6.193-3.576c.2333681-.13826705.5344194-.06524166.6785003.16458243.144081.22982408.078635.53261344-.1475003.68241757l-7.538 5.122 13.228-7.635c.2341443-.13311196.5316521-.0568382.672871.17250776s.075396.52933917-.148871.67849224l-11.16 7.315 13.31-7.684c.234481-.12707284.5274228-.04774006.6657366.18029089.1383139.22803094.0733058.52448086-.1477366.67370911l-9.4 5.993 10.464-6.041c.2356087-.12976469.5316571-.04987998.6700067.18079237.1383496.23067236.0694166.52946069-.1560067.67620763l-4.71 2.934 6.6-3.81c.2348642-.13128134.531504-.05316042.6712412.17677323.1397372.22993366.0724576.52921865-.1522412.67722677l-13.408 8.589 16.587-9.577c.2372063-.14166103.544339-.06420629.686.17300001.141661.23720629.0642063.54433895-.173.68599999l-7.515 4.651 8.839-5.1c.2361017-.14331789.5436821-.06810173.687.168s.0681017.54368211-.168.687l-17.293 11.009 18.935-10.933c.1534456-.09145999.3440284-.09411027.4999579-.0069525.1559295.08715776.2535161.25088224.256.4295.0024839.17861775-.0905123.34499251-.2439579.4364525l-8.032 4.944 8.7-5.022c.2363779-.14304175.5439582-.06737787.687.169s.0673779.54395825-.169.687l-18.196 11.539 19.863-11.467c.2361735-.13618181.537908-.05806811.6783318.17560806.1404239.23367616.0677709.53677186-.1633318.68139194l-15.144 9.463 16.857-9.733c.2361735-.13618181.537908-.05806811.6783318.17560806.1404239.23367616.0677709.53677186-.1633318.68139194l-15.164 9.455 16.328-9.427c.2349709-.12921461.5300387-.05006202.6687925.17940502.1387537.22946704.0717837.52753611-.1517925.67559498l-18.722 11.847 19.842-11.459c.1536242-.09128136.3442768-.09367127.5001409-.00626949s.2532602.25131686.2555.43c.0022399.17868314-.0910167.34498813-.2446409.43626949l-4.1 2.5 4.469-2.581c.2363779-.14276561.5437344-.06687787.6865.1695s.0668779.54373439-.1695.6865l-16.711 10.534 17.209-9.935c.2361017-.14331789.5436821-.06810173.687.168.1433179.2361017.0681017.5436821-.168.687l-19.04 12.111 19.412-11.21c.2369302-.1419372.5440628-.0649301.686.172.1419371.2369302.0649301.5440628-.172.686l-14.209 8.875 14.244-8.223c.2361735-.1361818.537908-.0580681.6783318.1756081.1404239.2336761.0677709.5367718-.1633318.6813919l-12.915 8.05 12.6-7.278c.2372063-.1413849.5441151-.0637063.6855.1735s.0637063.5441151-.1735.6855l-7.569 4.666 7.147-4.126c.2348642-.1312813.531504-.0531604.6712412.1767732.1397372.2299337.0724576.5292187-.1522412.6772268l-15.953 10.185 16.664-9.621c.2369302-.1419372.5440628-.0649301.686.172.1419371.2369302.0649301.5440628-.172.686l-26.307 16.308c.0145212.1918285-.0823017.3749754-.249.471l-7.437 4.293c-.0758978.0441549-.1621931.067282-.25.067z" fill="#f289ca"/><path id="Path" d="m21.969 18.363c-.1959997.000243-.3740666-.1140547-.4554639-.2923534-.0813972-.1782988-.0511122-.3877137.0774639-.5356466l.865-1-1.6.923c-.220007.1195261-.4945025.0578939-.6422936-.1442135-.147791-.2021073-.1233056-.4823693.0572936-.6557865l.141-.128-.011.007c-.2025051.1174126-.4593644.078615-.618157-.0933704-.1587926-.1719853-.1770104-.4311186-.043843-.6236296l.868-1.263c-.1932074.0133892-.3776947-.082328-.478-.248-.0667019-.114808-.0849993-.2514322-.0508574-.3797457.0341419-.1283134.1179189-.2377776.2328574-.3042543l1.649-.951c.2025051-.1174126.4593644-.078615.618157.0933704.1587926.1719853.1770104.4311186.043843.6236296l-.808 1.175 2.172-1.254c.220007-.1195261.4945025-.0578939.6422936.1442135.147791.2021073.1233056.4823693-.0572936.6557865l-.141.129.11-.064c.2115954-.1229666.4811022-.0747006.6368709.1140573.1557686.1887578.1520147.4625268-.0088709.6469427l-.865.995.273-.158c.1547852-.0907422.3463247-.0915917.5019087-.0022259.155584.0893657.2513568.2552442.2509624.4346667-.0003945.1794226-.0968957.3448784-.2528711.4335592l-2.857 1.659c-.0763933.042493-.1625922.0642151-.25.063z" fill="#fff"/><path id="Path" d="m33.692 18.433c-.189386 0-.3625176-.1070012-.4472136-.2763932s-.066418-.372098.0472136-.5236068l.65-.851-1.764 1.018c-.2153349.1244465-.4894005.0717052-.6431691-.1237719-.1537685-.1954771-.1404869-.4742551.0311691-.6542281l.919-.961-1.056.609c-.2015044.1164107-.4566801.0784121-.6155242-.0916586-.1588441-.1700706-.1793551-.4272434-.0494758-.6203414l.936-1.388c-.2441333.0958823-.5208611-.0131804-.6339332-.249843-.1130722-.2366626-.0240502-.5204725.2039332-.650157l1.795-1.036c.2017332-.1172341.4577314-.0793571.6168729.0912714.1591416.1706284.179114.4286418.0481271.6217286l-.93 1.374 2.209-1.275c.2155591-.1245112.4898785-.0714871.6435094.1243861.153631.1958731.1397727.4749262-.0325094.6546139l-.919.961.907-.524c.2065537-.1204302.469463-.0777714.627341.1017904.1578779.1795618.1665358.4457687.020659.6352096l-.765 1c.2240996.0052819.4172965.1590671.4727039.3762733s-.0405175.4447438-.2347039.5567267l-1.788 1.033c-.0756179.0440691-.161479.0675171-.249.068z" fill="#fff"/><path id="Path" d="m19 27.193c-.1964737-.0002953-.3745641-.1156295-.4551991-.2947943-.0806349-.1791648-.0488669-.3889479.0811991-.5362057l.645-.73-.811.469c-.210704.121866-.4785513.0742927-.6344017-.1126784-.1558503-.186971-.1544141-.4590066.0034017-.6443216l.95-1.118-.322.186c-.2038365.1170428-.4616761.0763052-.6195-.0978785s-.1730154-.4347791-.0365-.6261215l1.289-1.8-.012-.021c-.1380647-.2391402-.0561341-.5449248.183-.683l.66-.381c.2038365-.1170428.4616761-.0763052.6195.0978785s.1730154.4347791.0365.6261215l-.62.867.821-.474c.210704-.121866.4785513-.0742927.6344017.1126784.1558503.186971.1544141.4590066-.0034017.6443216l-.948 1.117.971-.561c.212437-.1228152.482602-.0733206.6377036.116828.1551017.1901487.1492961.4647486-.0137036.648172l-.646.73.306-.177c.23893-.1358451.5427102-.0533708.6801373.1846528.137427.2380237.0569695.5423443-.1801373.6813472l-2.966 1.712c-.0760993.0433341-.1624393.0654371-.25.064z" fill="#0970de"/><path id="Path" d="m19.574 41.355c-.189386 0-.3625176-.1070012-.4472136-.2763932s-.066418-.372098.0472136-.5236068l.685-.9-1.316.76c-.2160105.1246636-.4908577.0710795-.6442199-.1255968s-.1383361-.4762947.0352199-.6554032l.518-.532-.131.075c-.1971194.1137776-.4462069.0800727-.606-.082-.1601091-.162319-.1901345-.4123936-.073-.608l1.509-2.524c-.0293803-.0300544-.0549095-.0636454-.076-.1-.0662182-.1149607-.0840333-.2515253-.049523-.3796262.0345104-.1281009.1185167-.237235.233523-.3033738l.662-.382c.1972945-.1139985.446709-.0801861.6065315.0822255.1598225.1624117.1896226.4123373.0724685.6077745l-1.108 1.862 1.585-.915c.2160105-.1246636.4908577-.0710795.6442199.1255968s.1383361.4762947-.0352199.6554032l-.519.533.371-.214c.2064997-.1192475.468472-.0760768.6257899.1031247.157318.1792015.1661971.4445584.0212101.6338753l-.686.9.071-.041c.1549945-.0985297.351531-.1041539.5119064-.0146489.1603754.0895049.2587712.2597296.2562855.4433739s-.1054527.3511436-.2681919.436275l-2.246 1.3c-.0765867.0415935-.162898.061963-.25.059z" fill="#0970de"/><g fill="#262626"><path id="Path" d="m4.53 25.62c.307 0 1.638-.588.94-.588-.307 0-1.638.588-.94.588z"/><path id="Shape" d="m36.688 15.71c.0200369-.1659135.0233869-.333418.01-.5.2747613.0583667.5542265.0918356.835.1.3623722.0257715.7229214-.0707036 1.024-.274.178-.161.238-.326-.09-.334-.8140608-.0211453-1.5987651-.3084721-2.234-.818-.1529448-.1989375-.3338105-.3747511-.537-.522-.6052531-.7143211-.9482051-1.6140407-.972-2.55-.007-.262-1.46-.035-1.448.388.0137253.5419432.132239 1.0761041.349 1.573-.1297261.000295-.2593087.0086444-.388.025-1.5626068.1142015-2.8143003 1.3401086-2.961 2.9.193 3.584 5.916 3.22 6.412.012zm-2.672-2.093c.1343602.0902811.2617213.1905654.381.3.083.089.164.178.255.259.5049561.5432899.713218 1.2987056.558 2.024-.246 1.123-1.159 1.862-2.287 1.223-.7389782-.4484697-1.1930367-1.2476128-1.2-2.112.066-1.204.97-2.579 2.293-1.694z"/><path id="Shape" d="m22.735 24.947c-.016195-.2480197-.0496088-.4946139-.1-.738 4.451-2.958 9.279-1.743 12.692 2.079.346.386 1.731-.142 1.344-.576-3.4928998-4.2602242-9.5986335-5.2795561-14.286-2.385-.3827871-.9937647-.9697569-1.8961925-1.723-2.649-.1816385-.1556696-.4177783-.2326214-.6562599-.2138581s-.4596815.1316978-.6147401.3138581c-1.3 1.329-2.974 3.915-1.669 5.724 1.498 2.075 4.821.817 5.013-1.555zm-3.664-1.483c.2259225-.5229144.5176087-1.0148827.868-1.464.7461566.8554685 1.2093382 1.9208561 1.326 3.05-.1 1.209-1.4 1.9-2.217.806-.4101176-.7467556-.4014011-1.6532687.023-2.392z"/><path id="Shape" d="m1.276 23.194c.06403776 2.5908174 1.20509232 5.0376924 3.14867767 6.7520178s4.51378389 2.5409344 7.09232233 2.2809822c.0040653.0089773.008743.0176644.014.026.7390592 2.9682651 2.8904925 5.3832995 5.754 6.459-.1218356.7142031.1091329 1.4432443.62 1.957 1.521 1.518 4.373.352 4.773-1.588.063-.012.126-.016.188-.029.183518-.034503.3638173-.0843445.539-.149 1.0344434-.2866005 2.02079-.7246772 2.927-1.3.1050542.9696041.5358517 1.8749134 1.222 2.568 1.328 1.315 3.147.894 4.513 1.964 2.075 1.624 3.474 4.269 5.352 6.13 1.277 1.264 3.162 1.723 4.556.283 1.3-1.349.89-4.211.779-6.171 1.8129129.2140753 3.6502746.0669096 5.406-.433 2.2961622-.6150689 4.3410915-1.9359127 5.846-3.776.7593616-.9578576 1.2895506-2.0767273 1.55-3.271.356-1.7-.434-2.736-.461-4.31.8253513-.3533589 1.5860913-.8417059 2.251-1.445 4.211-3.838 2.355-10.246-2.69-12.095.04-.373.066-.749.071-1.13-.003145-.0421394-.0154296-.0830883-.036-.12-.1003589-5.84107413-4.6493137-10.63621179-10.477-11.044-.04-.036-.082-.067-.123-.1-.137-.127-.265-.262-.408-.383-.0321474-.02059904-.0682583-.03422577-.106-.04-2.8274615-2.18273057-6.4881472-2.97474645-9.965-2.156-.2206766-.12154588-.4812553-.1482534-.722-.074-.221.065-.436.14-.652.216-.4950173-.33447553-1.0152459-.63002958-1.556-.884-.0190998-.00480578-.0384669-.00847885-.058-.011-.014-.007-.011-.017-.029-.024-.9970078-.38786084-2.0562418-.59116873-3.126-.6-.0945703-.00040256-.1890777.00494062-.283.016-1.1773728.0369476-2.3399124.27364852-3.438.7-.094007.03515111-.1855464.07657771-.274.124-.5625954.24752329-1.0986659.55140828-1.6.907-.1-.055-.205-.115-.31-.166-.2000834-.09056618-.424865-.11100087-.638-.058-3.655605-1.24308123-7.684554.21357077-9.7 3.507-4.2113191-.02039292-7.70251144 3.25773433-7.947 7.462.02.41-1.3 1.355-1.539 1.669-1.09231789 1.4226662-1.60474338 3.2065073-1.434 4.992.11 1.11 1.021 2.331.97 3.344zm17.831 16.748c-.4469551-.7159347-.4989535-1.610082-.138-2.373.2250756-.5977105.5323655-1.1611314.913-1.674.796196.9284789 1.2834278 2.081897 1.394 3.3-.106 1.305-1.322 1.905-2.169.747zm22.164 6.858c-1.343 3.385-3.855-.675-4.72-1.665-.9847726-1.3224409-2.071774-2.565588-3.251-3.718-.5735845-.4394849-1.2392211-.7434144-1.947-.889-2.126-.766-3.626-1.409-3.626-3.91 0-.026-.015-.042-.019-.065.4598857-.4180645.8790951-.878793 1.252-1.376.2.1.4.194.6.282.1618963.0563938.3381037.0563938.5 0 1.1879935.3982592 2.4219664.6432391 3.672.729 1.4459804 3.0474116 4.2363921 5.2411734 7.539 5.927.065 1.385.459 3.53 0 4.685zm12.929-13.176c-.055588 2.5538305-1.4138328 4.9017077-3.6 6.223-4.994 3.193-12.442 1.653-15.2-3.656 4.6640762-.2232861 8.9247654-2.7115196 11.411-6.664 1.9346813 1.5200206 4.4534665 2.0825285 6.851 1.53.2522879.8387386.4322789 1.6975435.538 2.567zm-52.108-17.019c.3213454-.936753.84391727-1.7917775 1.531-2.505.342-.356.81-.531 1.008-.876.6695509-.4567871 1.43108678-.7612649 2.231-.892.152-.024.851-.174.852-.388 0-.241-.425-.15-.576-.126-.82246186.1324067-1.62376318.373167-2.383.716.351-3.348 2.594-6.392 6.443-6.2.032 0 .078 0 .116-.005.046.129.175.234.437.275.6339748.10166944 1.2506145.2915083 1.832.564.61.28 1.672-.6.834-.984-.5952659-.26682183-1.2209006-.45991897-1.863-.575 1.492-2.83 4.2176667-3.62433333 8.177-2.383.1.056.209.107.311.167.8002077.49493844 1.4926215 1.14586187 2.036 1.914.341.477 1.734-.05 1.334-.61-.5127503-.71099371-1.143143-1.32921143-1.864-1.828l1.811-1.144c.693488-.26789655 1.428684-.41175395 2.172-.425.9646167.01290314 1.919085.19885172 2.818.549.689.324 1.15.661 1.655.873-.5050167.2349092-.9943647.50212997-1.465.8-.235.15-.387.444-.109.631.341092.1390855.7296088.0941986 1.03-.119.821274-.52758864 1.7135901-.93536026 2.65-1.211.012 0 .029-.011.042-.015 1.0550002-.31002128 2.1484033-.46992476 3.248-.475.8035213.0712321 1.5966862.23120661 2.365.477 2.8686126.96648344 5.2189544 3.06113349 6.508 5.8.165.349 1.563-.147 1.449-.389-.4391792-.91654696-.996227-1.77178514-1.657-2.544 5.1302418 1.36000424 8.5557871 6.1917861 8.141 11.483-.1011172 1.0005795-.3317111 1.9837969-.686 2.925-.2.524 1.26.354 1.454-.162.2245441-.5999067.399138-1.2173403.522-1.846 2.7708791 1.4155545 4.2546047 4.5078434 3.625 7.555-.2935932 1.3986516-1.0257601 2.667157-2.09 3.621-.3973543.3412946-.833726.634335-1.3.873-.4061012-.1023081-.832493.0633549-1.063.413-2.2366339.4543801-4.5464344-.3118737-6.068-2.013-.7232267-.7774352-1.2634125-1.706787-1.581-2.72-.132-.422-1.575-.016-1.449.388.2974928.941631.7783979 1.8150771 1.415 2.57-2.0985084 4.2260981-6.4485908 6.8604576-11.166 6.762-.104744-.0179456-.2115659-.0203045-.317-.007-1.3313854-.076278-2.6424491-.361776-3.885-.846-.0552166-.0569587-.1216037-.1018976-.195-.132-1.1390335-.4945585-2.2027984-1.1469561-3.16-1.938-.454-.371-1.747.288-1.128.794.5960382.4831096 1.2316061.9152958 1.9 1.292-.34836.5674989-.7563409 1.0961644-1.217 1.577-.291.086-.54.262-.54.5v.021c-.9392996.834666-2.0635243 1.4341382-3.28 1.749-.1.019-.2.032-.294.049-.2313065-1.4661958-.9407737-2.8148162-2.018-3.836-.268-.273-1.121.071-1.34.294-.7649268.7726841-1.3757965 1.6838981-1.8 2.685-2.3371121-1.2359863-4.0187739-3.429998-4.605-6.008-.1630852-.7791134-.223931-1.5761595-.181-2.371.041-.748-1.432-.539-1.467.112-.0341734.7380464.0110866 1.477628.135 2.206-4.08151533-.0785869-7.57576102-2.9477816-8.447-6.936.44390748.3647855.92724958.6787398 1.441.936.4.2 1.735-.4 1.158-.681-1.19849076-.5935862-2.20406293-1.5148983-2.9-2.657-.165-.727-.688-1.506-.824-2.226-.22123296-1.1670938-.13963667-2.3714137.237-3.498z"/><path id="Path" d="m29.571 25.843c-.9227556-.369049-1.9542527-.3568207-2.868.034-.226.09-.569.366-.373.63s.725.138.966.042c.3673459-.1391553.7749438-.126564 1.133.035.3428066.1277139.7261245.0826834 1.03-.121.178-.121.452-.486.112-.62z"/><path id="Shape" d="m17.7 15.346c.5732847-.0173564 1.1409531-.1184249 1.685-.3-.1043271.3421954-.1296293.7036061-.074 1.057.581 3.528 6.24 2.413 6.412-.792-.0426612-.7898817-.4232735-1.5231757-1.0446656-2.0126703-.621392-.4894946-1.4234237-.6878151-2.2013344-.5443297-.1.012-.2.04-.3.06.3413356-.6126966.5293518-1.2988871.548-2 .009-.32-1.435-.1-1.448.388-.0252885.9220864-.3719259 1.8063656-.98 2.5-.1201311.1024621-.2327538.2134138-.337.332-.4657186.3928377-1.0509627.616006-1.66.633-.246.007-.852.1-.963.369s.094.317.363.31zm5.262-1.822c.8025739.4277325 1.3065065 1.2605838 1.313 2.17-.061 1.121-.834 2.413-2.124 1.842-.8286463-.3763837-1.3769235-1.1848994-1.42-2.094-.0033465-.4999662.1536696-.9878378.448-1.392.133517-.1228505.2597326-.2534069.378-.391.3957791-.3311262.9544452-.3847677 1.406-.135z"/></g></g></svg>