<svg height="512" viewBox="0 0 60 60" width="512" xmlns="http://www.w3.org/2000/svg"><g id="029---Bounce-Rate" fill="none"><path id="Path" d="m52.21 13.355c-.2099328-.0005953-.3971371-.132267-.4686651-.3296395-.0715279-.1973725-.0121449-.4184076.1486651-.5533605l2.224-1.852-3.584 2.068c-.2299606.1262156-.518365.0532546-.6606421-.1671302-.1422771-.2203849-.0900471-.5132542.1196421-.6708698l.291-.209-.718.414c-.2247363.1292165-.510959.0652384-.6592891-.1473681-.1483301-.2126064-.1095663-.5033193.0892891-.6696319l4.416-3.681-5.181 2.991c-.2254634.1287726-.5119753.0635416-.6594703-.1501437-.1474949-.2136853-.1068861-.50470942.0934703-.6698563l4.253-3.466-4.42 2.551c-.2277686.13271241-.5194462.06579338-.6665848-.15293332-.1471386-.21872669-.0991876-.51411564.1095848-.67506668l2.751-2.138-2.388 1.379c-.2268311.13463929-.5192384.06990751-.6680488-.14788958s-.1028302-.51373298.1050488-.67611042l1.842-1.473-.891.513c-.2202286.12274667-.4973928.06232249-.6465459-.14095258-.1491531-.20327508-.1236267-.48579845.0595459-.65904742l1.45-1.328c-.1712807-.07676439-.2851418-.24298858-.2948409-.43043399-.0096991-.18744542.0863978-.36453357.2488409-.45856601l2.8-1.616c.220521-.12768804.5017903-.06910822.653.136.1513646.20573178.1233373.49247216-.065.665l-.743.68 2.64-1.525c.2263606-.13092511.5153721-.06531659.6630162.15051137.1476442.21582796.1040467.5089685-.1000162.67248863l-1.847 1.477 2.983-1.721c.2272713-.12902923.5155715-.06126562.6615658.15549798.1459944.21676359.1004262.50939379-.1045658.67150202l-2.746 2.137 3.51-2.026c.2257586-.1294404.5130594-.0640705.6605892.15030466.1475298.21437517.1059565.50607128-.0955892.67069534l-4.255 3.464 4.829-2.787c.2248726-.13159453.5131068-.06844789.6623629.14511112.149256.21355901.1094985.50593856-.0913629.67188888l-4.42 3.68 4.475-2.583c.2305507-.13029452.5227069-.05822926.6662193.16433419.1435123.22256344.0886.51842379-.1252193.67466581l-.361.26c.2277179-.07997997.4800654.01412457.599811.2236794.1197457.20955483.0727054.47473808-.111811.6303206l-2.221 1.853 1.213-.7c.2228025-.12580765.5046322-.06310991.6530847.14528965.1484525.20839957.1156192.4952461-.0760847.66471035l-1.3 1.124c.0523968.0409662.0965155.0915331.13.149.1373847.2389169.0555349.543953-.183.682l-2.783 1.607c-.2231941.1282474-.5072862.0660776-.6565145-.1436697s-.1148202-.4985197.0795145-.6673303l.065-.056-1.7.983c-.0770102.0449878-.1648196.0681501-.254.067z" fill="#2783ec"/><path id="Path" d="m34.312 56.493c-.2094047.000786-.3971162-.1290022-.4703255-.3251942-.0732093-.1961921-.0164058-.4172214.1423255-.5538058l3.676-3.171-5.38 3.106c-.2269587.1282325-.5143539.0605795-.6602778-.1554298-.145924-.2160093-.1014061-.5078844.1022778-.6705702l4.378-3.431-3.82 2.208c-.2259042.1277621-.5120042.0614438-.6586593-.152678-.1466552-.2141217-.1051039-.5048532.0956593-.669322l4.925-3.966-4.362 2.516c-.2285788.1329729-.5211739.064966-.667677-.1551861-.1465031-.220152-.0962484-.5163129.114677-.6758139l3.85-2.948-3.3 1.9c-.2275891.1298897-.5168511.062032-.6629348-.1555172-.1460838-.2175492-.0994243-.5109773.1069348-.6724828l4.173-3.24-3.618 2.089c-.2281943.1273484-.5159664.0574929-.6603781-.1603041-.1444117-.2177969-.0967481-.5100652.1093781-.6706959l3.515-2.658-2.961 1.719c-.2292016.1303039-.5201978.0602449-.6649792-.1600976s-.0935911-.5152436.1169792-.6739024l2.947-2.185-2.4 1.384c-.2266506.1274915-.5131906.0599635-.6590607-.1553189-.1458701-.2152823-.1023667-.5064398.1000607-.6696811l4.54-3.585-3.981 2.3c-.2271272.1307942-.5167067.0640046-.6636035-.1530559-.1468968-.2170604-.1012506-.5107158.1046035-.6729441l4.458-3.505-3.9 2.25c-.2310609.1298083-.523268.0567757-.6660866-.1664779-.1428185-.2232536-.086628-.5191613.1280866-.6745221l.953-.673-.415.239c-.226047.126152-.5110038.0589101-.6568083-.1549885-.1458046-.2138986-.1042381-.5037159.0958083-.6680115l4.718-3.761-4.157 2.4c-.2304184.1322364-.5240189.0611893-.6684864-.1617642-.1444674-.2229535-.0893536-.5199576.1254864-.6762358l2.106-1.525-1.563.9c-.2304184.1322364-.5240189.0611893-.6684864-.1617642-.1444674-.2229535-.0893536-.5199576.1254864-.6762358l2.078-1.5-1.535.886c-.2279124.1308241-.5182022.0628918-.6643976-.1554793-.1461953-.2183711-.0983971-.512647.1093976-.6735207l4.082-3.157-3.527 2.035c-.2301828.1290216-.5210052.0569569-.6643125-.1646141-.1433073-.2215711-.0897614-.5163656.1223125-.6733859l1.777-1.277-1.235.712c-.2309306.1317312-.5245674.0597083-.6683337-.1639283-.1437664-.2236366-.0873821-.520673.1283337-.6760717l.611-.434-.071.04c-.2207276.1320893-.5056598.0751513-.6586724-.1316224-.1530126-.2067738-.124171-.4959044.0666724-.6683776l2.551-2.412-1.957 1.13c-.2163843.1232964-.4905169.0685506-.6429461-.1284-.1524291-.1969505-.1366764-.476052.0369461-.6546l.632-.642-.026.014c-.2003178.115716-.4538604.0789048-.613-.089-.1591857-.1679325-.1823498-.4231518-.056-.617l.309-.472c-.1002737-.0419139-.1839268-.1157255-.238-.21-.0666188-.1149293-.0847639-.2516448-.0504306-.3799727.0343334-.1283278.1183225-.2377179.2334306-.3040273l1.128-.65c.2005664-.1165487.4549552-.0798428.6143928.088651.1594375.1684938.1820476.4245206.0546072.618349l-.066.1 1.4-.808c.216466-.1248481.4918692-.0707117.6449718.1267831s.1368886.4776996-.0379718.6562169l-.634.643 2.472-1.422c.2208144-.1342809.5075757-.0781561.6614736.1294633s.1242133.4983097-.0684736.6705367l-2.55 2.4 5.458-3.152c.2309306-.1317312.5245674-.0597083.6683337.1639283.1437664.2236366.0873821.520673-.1283337.6760717l-.615.439.822-.475c.2308022-.1338179.5260112-.0628564.670779.1612399s.0880924.5223777-.128779.6777601l-1.776 1.276 1.267-.73c.2274132-.1273482.5145055-.05864.6596263.1578646.1451209.2165046.0995839.5081708-.1046263.6701354l-4.076 3.155 3.526-2.035c.2304184-.1322364.5240189-.0611893.6684864.1617642.1444674.2229535.0893536.5199576-.1254864.6762358l-2.079 1.5 1.538-.888c.2304184-.1322364.5240189-.0611893.6684864.1617642.1444674.2229535.0893536.5199576-.1254864.6762358l-2.109 1.527 1.567-.9c.226047-.126152.5110038-.0589101.6568083.1549885.1458046.2138986.1042381.5037159-.0958083.6680115l-4.719 3.761 4.16-2.4c.2310609-.1298083.523268-.0567757.6660866.1664779.1428185.2232536.086628.5191613-.1280866.6745221l-.954.673.417-.241c.2268147-.12995.5154475-.0632557.6622581.1530278.1468106.2162836.1022433.50915-.1022581.6719722l-4.458 3.506 3.9-2.251c.2268147-.12995.5154475-.0632557.6622581.1530278.1468106.2162836.1022433.50915-.1022581.6719722l-4.544 3.586 3.983-2.3c.2292016-.1303039.5201978-.0602449.6649792.1600976s.0935911.5152436-.1169792.6739024l-2.94 2.18 2.393-1.382c.2283835-.1299972.5184238-.0610156.6638282.1578813.1454044.2188968.0965443.5129964-.1118282.6731187l-3.516 2.66 2.966-1.713c.2272713-.1290292.5155715-.0612656.6615658.155498.1459944.2167636.1004262.5093938-.1045658.671502l-4.173 3.241 3.618-2.089c.228242-.1318458.5196375-.063862.6659708.1553737.1463332.2192358.0973404.5144185-.1119708.6746263l-3.855 2.952 3.3-1.907c.2265186-.1336661.5178659-.0689882.6665473.1479706s.103858.5120137-.1025473.6750294l-4.922 3.965 4.363-2.518c.2271272-.1307942.5167067-.0640046.6636035.1530559.1468968.2170604.1012506.5107158-.1046035.6729441l-4.379 3.429 3.822-2.206c.2231941-.1282474.5072862-.0660776.6565145.1436697s.1148202.4985197-.0795145.6673303l-3.676 3.172 3.1-1.79c.2174475-.1222843.4917629-.0655717.6428937.1329134.1511308.1984852.1328285.4780031-.0428937.6550866l-1.715 1.694 1.115-.643c.1843892-.106074.4157058-.0838678.5765474.0553481.1608417.1392159.215989.3649574.1374526.5626519l-.519 1.3c.2353947-.0266689.4571952.1155152.531238.3405475.0740429.2250323-.0199976.4711382-.225238.5894525l-1.03.594c-.1843892.106074-.4157058.0838678-.5765474-.0553481-.1608417-.1392159-.215989-.3649574-.1374526-.5626519l.498-1.237-3.233 1.866c-.2174475.1222843-.4917629.0655717-.6428937-.1329134-.1511308-.1984852-.1328285-.4780031.0428937-.6550866l1.715-1.694-4.317 2.492c-.0768887.0444005-.1642137.0675261-.253.067z" fill="#ec3a48"/><path id="Path" d="m46.521 56.5c-.2181094.0001706-.411163-.1410594-.4770396-.3489825s.010626-.4345571.1890396-.5600175l.381-.268-.334.193c-.2309306.1317312-.5245674.0597083-.6683337-.1639283-.1437664-.2236366-.0873821-.520673.1283337-.6760717l1.315-.934-.775.447c-.2308022.1338179-.5260112.0628564-.670779-.1612399s-.0880924-.5223777.128779-.6777601l1.862-1.343-1.323.763c-.2308022.1338179-.5260112.0628564-.670779-.1612399s-.0880924-.5223777.128779-.6777601l1.785-1.283-1.243.718c-.2263468.1267998-.5120755.0594093-.6579064-.1551704-.1458308-.2145797-.1033101-.5050523.0979064-.6688296l4.644-3.687-4.081 2.359c-.2290632.1321979-.5214568.063148-.6671806-.1575572-.1457237-.2207053-.094369-.5167199.1171806-.6754428l3.26-2.442-2.711 1.561c-.2279124.1308241-.5182022.0628918-.6643976-.1554793-.1461953-.2183711-.0983971-.512647.1093976-.6735207l4.016-3.1-3.461 2c-.2271002.1265913-.5133226.0580067-.6583864-.1577626-.1450637-.2157693-.100553-.506709.1023864-.6692374l4.237-3.3-3.681 2.125c-.2322938.1351768-.5298928.0625367-.6737842-.164462-.1438914-.2269988-.0825928-.5271392.1387842-.679538l.371-.257c-.1938652.0359831-.3905247-.0470072-.5-.211-.1479706-.2159246-.1043595-.5094276.1-.673l4.615-3.658-4.055 2.34c-.23158.1294027-.5239091.0554223-.6660571-.1685604-.142148-.2239828-.0846277-.5199909.1310571-.6744396l.373-.259c-.1995324.0343174-.4002725-.0538508-.51-.224-.1429965-.225511-.0835576-.5235861.135-.677l.675-.474-.138.079c-.2308022.1338179-.5260112.0628564-.670779-.1612399s-.0880924-.5223777.128779-.6777601l1.773-1.272-1.231.71c-.227731.1281621-.5157443.059345-.6609391-.1579231-.1451949-.217268-.0985947-.509699.1069391-.6710769l3.994-3.078-3.44 1.986c-.2260575.1301558-.5141897.0646595-.6617686-.1504288-.1475789-.2150884-.1050107-.5074886.0977686-.6715712l4.978-4.025-4.414 2.549c-.2275891.1298897-.5168511.062032-.6629348-.1555172-.1460838-.2175492-.0994243-.5109773.1069348-.6724828l4.125-3.2-3.569 2.06c-.2272713.1290292-.5155715.0612656-.6615658-.155498-.1459944-.2167636-.1004262-.5093938.1045658-.671502l4.268-3.329-3.711 2.142c-.2293391.1285228-.5190351.0574922-.6629121-.1625395s-.0927858-.5139004.1169121-.6724605l2.69-1.98-2.14 1.249c-.2259042.1277621-.5120042.0614438-.6586593-.152678-.1466552-.2141217-.1051039-.5048532.0956593-.669322l4.69-3.776-4.127 2.382c-.2205392.1280792-.5021318.0696485-.6535046-.1356028-.1513729-.2052513-.124009-.4915375.0635046-.6643972l3.239-3.008-2.649 1.528c-.2223898.1269737-.5047663.065395-.6540994-.1426415-.1493332-.2080365-.1173442-.4952735.0740994-.6653585l.507-.447c-.1920891.0725222-.4089889.0202396-.5469395-.1318372-.1379506-.1520767-.168907-.3730307-.0780605-.5571628l.534-1.08c-.2269914.0007823-.4260281-.1514415-.4847202-.3707152-.0586921-.2192736.0376892-.4505707.2347202-.5632848l1.128-.65c.1909702-.1119049.4327895-.0849336.5944107.0662977s.2045773.3907283.1055893.5887023l-.48.972 2.815-1.623c.2220099-.1247109.5022812-.0626525.6508926.1441224.1486115.2067749.1180855.4922068-.0708926.6628776l-.482.426 2.137-1.233c.2205392-.1280792.5021318-.0696485.6535046.1356028.1513729.2052513.124009.4915375-.0635046.6643972l-3.239 3 5.9-3.4c.2259042-.1277621.5120042-.0614438.6586593.152678.1466552.2141217.1051039.5048532-.0956593.669322l-4.695 3.778 4.34-2.505c.2293391-.1285228.5190351-.0574922.6629121.1625395s.0927858.5139004-.1169121.6724605l-2.683 1.975 2.138-1.234c.2272713-.1290292.5155715-.0612656.6615658.155498.1459944.2167636.1004262.5093938-.1045658.671502l-4.269 3.329 3.714-2.143c.2276789-.131495.5183014-.0641929.665.154.146588.2183677.098945.5129677-.109.674l-4.124 3.194 3.569-2.06c.2260575-.1301558.5141897-.0646595.6617686.1504288.1475789.2150884.1050107.5074886-.0977686.6715712l-4.981 4.032 4.419-2.551c.227731-.1281621.5157443-.059345.6609391.1579231.1451949.217268.0985947.509699-.1069391.6710769l-3.994 3.078 3.441-1.987c.2308022-.1338179.5260112-.0628564.670779.1612399s.0880924.5223777-.128779.6777601l-1.771 1.266 1.228-.709c.2310609-.1298083.523268-.0567757.6660866.1664779.1428185.2232536.086628.5191613-.1280866.6745221l-.68.477.143-.082c.2327102-.1415972.5359455-.0708583.6819808.1590928.1460353.229951.0811265.5344876-.1459808.6849072l-.365.255c.2252637-.0403458.4491664.0773931.5435976.2858499s.0352847.4544174-.1435976.5971501l-4.616 3.659 4.05-2.342c.2318603-.1330617.527371-.0602043.6708066.1653857.1434357.22559.0840493.5240996-.1348066.6776143l-.37.257c.1942808-.0334766.3900968.0503327.5.214.1468094.2181179.0996106.5126734-.108.674l-4.236 3.3 3.68-2.125c.2275891-.1298897.5168511-.062032.6629348.1555172.1460838.2175492.0994243.5109773-.1069348.6724828l-4.017 3.1 3.463-2c.2290632-.1321979.5214568-.063148.6671806.1575572.1457237.2207053.094369.5167199-.1171806.6754428l-3.256 2.436 2.707-1.56c.226507-.1291681.5142486-.0625855.6609917.1529516.1467432.2155372.103215.5076567-.0999917.6710484l-4.648 3.686 4.089-2.36c.2308022-.1338179.5260112-.0628564.670779.1612399s.0880924.5223777-.128779.6777601l-1.783 1.28 1.241-.717c.2308022-.1338179.5260112-.0628564.670779.1612399s.0880924.5223777-.128779.6777601l-1.867 1.344 1.326-.766c.2309306-.1317312.5245674-.0597083.6683337.1639283.1437664.2236366.0873821.520673-.1283337.6760717l-1.311.932.772-.445c.2310609-.1298083.523268-.0567757.6660866.1664779.1428185.2232536.086628.5191613-.1280866.6745221l-.455.321c.2235086-.0801015.4725275.0080279.5958931.2108906.1233657.2028626.0870538.4645086-.0868931.6261094l-2.643 2.462 2.054-1.185c.2111163-.1217329.4792426-.0735321.6347434.1141072s.1530747.4600529-.0057434.6448928l-.984 1.143.357-.206c.1773581-.1023195.3991769-.0861624.5598359.040778s.2276854.3390067.1691641.535222l-.24.8c.1593915.0861598.2596992.2518074.2621895.4329785s-.0932264.3495132-.2501895.4400215l-.5.29c-.1774878.1019326-.3991782.0853985-.5595819-.0417346s-.2271261-.3391901-.1684181-.5352654l.138-.464-1.814 1.047c-.2111163.1217329-.4792426.0735321-.6347434-.1141072s-.1530747-.4600529.0057434-.6448928l.984-1.144-3.309 1.91c-.2206356.1300292-.503851.072325-.6560244-.1336626s-.1241014-.4936554.0650244-.6663374l2.642-2.463-5.668 3.273c-.0764174.0458624-.1638766.0700606-.253.07z" fill="#37cba1"/><path id="Path" d="m18.947 56.5c-.2110877.0000797-.3994859-.1324134-.4707948-.3310917s-.010165-.4207362.1527948-.5549083l4.412-3.638-4.761 2.745c-.2292016.1303039-.5201978.0602449-.6649792-.1600976s-.0935911-.5152436.1169792-.6739024l2.982-2.213-2.434 1.4c-.2288588.1292299-.518701.0592157-.6633326-.1602346-.1446317-.2194502-.0946742-.513414.1143326-.6727654l3.161-2.359-2.612 1.511c-.2268147.12995-.5154475.0632557-.6622581-.1530278-.1468106-.2162836-.1022433-.50915.1022581-.6719722l4.657-3.7-4.1 2.366c-.2266506.1274915-.5131906.0599635-.6590607-.1553189-.1458701-.2152823-.1023667-.5064398.1000607-.6696811l4.554-3.6-4 2.3c-.2296112.1324477-.522682.0626898-.668-.159-.1452638-.2217771-.0921734-.5183811.121-.676l2.735-2.014-2.188 1.262c-.2271002.1265913-.5133226.0580067-.6583864-.1577626-.1450637-.2157693-.100553-.506709.1023864-.6692374l4.227-3.29-3.671 2.119c-.227731.1281621-.5157443.059345-.6609391-.1579231-.1451949-.217268-.0985947-.509699.1069391-.6710769l3.959-3.045-3.405 1.965c-.227731.1281621-.5157443.059345-.6609391-.1579231-.1451949-.217268-.0985947-.509699.1069391-.6710769l3.952-3.039-3.4 1.961c-.2313261.1333882-.5266402.061466-.670727-.1633522-.1440867-.2248181-.0860887-.5231794.131727-.6776478l1.07-.756-.531.306c-.2268147.12995-.5154475.0632557-.6622581-.1530278-.1468106-.2162836-.1022433-.50915.1022581-.6719722l4.563-3.608-4 2.311c-.2295527.1314921-.521805.0614183-.6667704-.1598726-.1449654-.2212908-.0924688-.5172061.1197704-.6751274l2.8-2.066-2.251 1.3c-.2275891.1298897-.5168511.062032-.6629348-.1555172-.1460838-.2175492-.0994243-.5109773.1069348-.6724828l4.147-3.216-3.587 2.08c-.227871.1265147-.5147039.056766-.6590373-.1602571s-.0977476-.5085154.1070373-.6697429l3.713-2.83-3.161 1.83c-.2269806.1326577-.5179234.0668764-.6657567-.1505254-.1478333-.2174019-.1020535-.5121545.1047567-.6744746l3.991-3.175-3.43 1.979c-.220439.1262233-.5004889.0670999-.6510942-.1374575-.1506054-.2045574-.1238973-.4895314.0620942-.6625425l2.552-2.345-1.963 1.126c-.2163843.1232964-.4905169.0685506-.6429461-.1284-.1524291-.1969505-.1366764-.476052.0369461-.6546l.756-.767-.15.086c-.1992437.1162507-.4521568.0811062-.6121555-.0850646-.1599987-.1661707-.1855498-.4202324-.0618445-.6149354l.343-.545c-.1843949-.0647358-.3141729-.2309692-.3322345-.4255611s.0789042-.3818711.2482345-.4794389l1.128-.65c.1992437-.1162507.4521568-.0811062.6121555.0850646.1599987.1661707.1855498.4202324.0618445.6149354l-.143.226 1.6-.925c.2163843-.1232964.4905169-.0685506.6429461.1284.1524291.1969505.1366764.476052-.0369461.6546l-.757.769 2.693-1.549c.220439-.1262233.5004889-.0670999.6510942.1374575.1506054.2045574.1238973.4895314-.0620942.6625425l-2.554 2.344 5.324-3.073c.2266681-.1317558.5166136-.0660514.6643416.1505461.1477279.2165976.1030619.5105201-.1023416.6734539l-3.986 3.176 4.125-2.381c.227871-.1265147.5147039-.056766.6590373.1602571s.0977476.5085154-.1070373.6697429l-3.711 2.828 3.161-1.824c.2275891-.1298897.5168511-.062032.6629348.1555172.1460838.2175492.0994243.5109773-.1069348.6724828l-4.15 3.219 3.6-2.075c.2293391-.1285228.5190351-.0574922.6629121.1625395s.0927858.5139004-.1169121.6724605l-2.803 2.069 2.25-1.3c.2268147-.12995.5154475-.0632557.6622581.1530278.1468106.2162836.1022433.50915-.1022581.6719722l-4.563 3.608 4.005-2.312c.2313261-.1333882.5266402-.061466.670727.1633522.1440867.2248181.0860887.5231794-.131727.6776478l-1.067.754.529-.3c.228242-.1318458.5196375-.063862.6659708.1553737.1463332.2192358.0973404.5144185-.1119708.6746263l-3.952 3.039 3.4-1.962c.2279124-.1308241.5182022-.0628918.6643976.1554793.1461953.2183711.0983971.512647-.1093976.6735207l-3.959 3.045 3.406-1.966c.2272713-.1290292.5155715-.0612656.6615658.155498.1459944.2167636.1004262.5093938-.1045658.671502l-4.228 3.29 3.673-2.12c.2295527-.1314921.521805-.0614183.6667704.1598726.1449654.2212908.0924688.5172061-.1197704.6751274l-2.735 2.015 2.19-1.264c.2268147-.12995.5154475-.0632557.6622581.1530278.1468106.2162836.1022433.50915-.1022581.6719722l-4.553 3.6 4-2.306c.226507-.1291681.5142486-.0625855.6609917.1529516.1467432.2155372.103215.5076567-.0999917.6710484l-4.656 3.7 4.1-2.367c.2288588-.1292299.518701-.0592157.6633326.1602346.1446317.2194502.0946742.513414-.1143326.6727654l-3.162 2.362 2.614-1.509c.2292016-.1303039.5201978-.0602449.6649792.1600976s.0935911.5152436-.1169792.6739024l-2.977 2.211 2.431-1.4c.225024-.1298327.5119893-.0657046.6603401.147566s.108657.5046224-.0913401.670434l-4.421 3.623 3.848-2.221c.2184203-.1276802.4977941-.0720852.6506935.1294872s.1311343.4855915-.0506935.6615128l-2.488 2.416 1.887-1.089c.2034689-.1174438.4612594-.0773942.6195066.0962447.1582471.173639.1742651.4340297.0384934.6257553l-.865 1.219.209-.12c.1549945-.0985297.351531-.1041539.5119064-.0146489.1603754.0895049.2587712.2597296.2562855.4433739s-.1054527.3511436-.2681919.436275l-2.184 1.261c-.2032327.116567-.4601535.0763831-.6180877-.0966724s-.1745245-.43257-.0399123-.6243276l.865-1.223-3.385 1.954c-.2184203.1276802-.4977941.0720852-.6506935-.1294872s-.1311343-.4855915.0506935-.6615128l2.483-2.416-5.57 3.221c-.0764174.0458624-.1638766.0700606-.253.07z" fill="#f5ab01"/><path id="Path" d="m5.834 56.494c-.21029911.000244-.39827337-.1311286-.47032131-.3287011-.07204794-.1975724-.01276806-.4191102.14832131-.5542989l3.819-3.211-5.051 2.914c-.22871944.1310429-.51988771.0620127-.66543532-.1577616-.14554761-.2197742-.09547523-.5147944.11443532-.6742384l3.487-2.631-2.936 1.694c-.22575092.1255439-.50997115.0584606-.655761-.1547765-.14578985-.2132372-.10515191-.5024254.093761-.6672235l4.854-3.895-4.292 2.478c-.22920156.1303039-.52019781.0602449-.66497921-.1600976-.14478139-.2203425-.09359105-.5152436.11697921-.6739024l2.991-2.22-2.443 1.409c-.22695866.1282325-.51435386.0605795-.66027781-.1554298s-.1014061-.5078844.10227781-.6705702l4.4-3.45-3.842 2.215c-.23041837.1322364-.52401892.0611893-.66848638-.1617642-.14446747-.2229535-.0893536-.5199576.12548638-.6762358l2.054-1.482-1.512.872c-.22590421.1277621-.51200417.0614438-.65865933-.152678-.14665516-.2141217-.10510389-.5048532.09565933-.669322l4.952-3.994-4.389 2.533c-.23186034.1330617-.52737097.0602043-.67080661-.1653857-.14343565-.22559-.08404925-.5240996.13480661-.6776143l.425-.3c-.21245964.0589444-.43868565-.0258903-.56-.21-.14405519-.2252128-.08546305-.5239006.133-.678l.995-.7-.457.263c-.23004825.1308569-.52222067.059778-.6664488-.1621318-.14422813-.2219099-.09054634-.5177734.1224488-.6748682l2.176-1.578-1.632.942c-.22741316.1273482-.51450549.05864-.65962634-.1578646-.14512084-.2165046-.09958382-.5081708.10462634-.6701354l4.018-3.1-3.463 2c-.22590421.1277621-.51200417.0614438-.65865933-.152678-.14665516-.2141217-.10510389-.5048532.09565933-.669322l4.866-3.908-4.3 2.484c-.23055066.1302945-.52270695.0582293-.66621925-.1643342-.14351231-.2225634-.08860007-.5184238.12521925-.6746658l1.685-1.208-1.144.66c-.22920156.1303039-.52019781.0602449-.66497921-.1600976-.14478139-.2203425-.09359105-.5152436.11697921-.6739024l2.983-2.215-2.438 1.407c-.22920156.1303039-.52019781.0602449-.66497921-.1600976-.14478139-.2203425-.09359105-.5152436.11697921-.6739024l2.945-2.185-2.4 1.384c-.23018285.1290216-.52100516.0569569-.66431246-.1646141-.1433073-.2215711-.08976142-.5163656.12231246-.6733859l1.912-1.378-1.37.79c-.22983634.1330914-.52362129.0632681-.669-.159-.14548459-.2224836-.09144696-.5199102.123-.677l2.536-1.856-1.99 1.147c-.22620357.1284409-.51310281.0619842-.65979477-.1528333-.14669196-.2148176-.10416776-.5062269.09779477-.6701667l4.81-3.853-4.245 2.457c-.22857883.1329729-.52117387.064966-.66767697-.1551861-.1465031-.220152-.09624839-.5163129.11467697-.6758139l3.758-2.869-3.2 1.85c-.2310609.1298083-.52326795.0567757-.66608655-.1664779s-.08662801-.5191613.12808655-.6745221l.993-.7-.455.263c-.22941602.1334891-.52315653.0644561-.6690977-.1572468-.14594118-.221703-.0932171-.5188044.1200977-.6767532l3.083-2.3-2.539 1.462c-.22620357.1284409-.51310281.0619842-.65979477-.1528333-.14669196-.2148176-.10416776-.5062269.09779477-.6701667l4.765-3.824-4.2 2.427c-.2233763.137273-.51485105.0786872-.66783903-.1342342-.15298799-.2129214-.115524-.5078558.08583903-.6757658l3.488-3.049-2.909 1.679c-.21777199.1239843-.49368841.0676117-.64537559-.131857-.15168719-.1994686-.13228783-.4804159.04537559-.657143l1.511-1.488-.911.525c-.19036979.1103241-.43048673.0832351-.59149181-.0667297-.16100508-.1499647-.20505414-.387556-.10850819-.5852703l.544-1.115c-.17608901-.0178451-.33670236-.1084846-.443-.25-.0666188-.1149293-.08476389-.2516448-.05043057-.3799727.03433332-.1283278.11832247-.2377179.23343057-.3040273l1.128-.65c.19057009-.110844.43124872-.0837916.59245668.0665924.16120795.150384.20489618.3886052.10754332.5864076l-.5 1.015 2.894-1.665c.21777199-.1239843.49368841-.0676117.64537559.131857.15168719.1994686.13228783.4804159-.04537559.657143l-1.512 1.485 3.946-2.274c.222272-.1250569.5030453-.0627806.6515981.1445262.1485528.2073069.1172703.4931974-.0725981.6634738l-3.486 3.045 5.438-3.14c.2263606-.1309251.5153721-.0653166.6630162.1505114.1476442.2158279.1040467.5089685-.1000162.6724886l-4.771 3.828 4.28-2.47c.229416-.1334891.5231565-.0644561.6690977.1572468.1459412.221703.0932171.5188044-.1200977.6767532l-3.078 2.292 2.53-1.46c.2310609-.1298083.523268-.0567757.6660866.1664779.1428185.2232536.086628.5191613-.1280866.6745221l-1 .7.461-.266c.2285788-.1329729.5211739-.064966.667677.1551861.1465031.220152.0962484.5163129-.114677.6758139l-3.756 2.867 3.2-1.85c.2262036-.1284409.5131028-.0619842.6597948.1528333.1466919.2148176.1041677.5062269-.0977948.6701667l-4.807 3.86 4.253-2.454c.2296891-.1296297.5205695-.0585592.6646041.1623819s.0916869.5157667-.1196041.6736181l-2.533 1.852 1.989-1.147c.2301828-.1290216.5210052-.0569569.6643125.1646141.1433073.2215711.0897614.5163656-.1223125.6733859l-1.91 1.379 1.369-.79c.228997-.1275142.5175965-.0565488.6613452.1626219.1437487.2191708.0938504.5121485-.1143452.6713781l-2.947 2.186 2.4-1.386c.2292016-.1303039.5201978-.0602449.6649792.1600976s.0935911.5152436-.1169792.6739024l-2.977 2.214 2.433-1.4c.2305507-.1302945.5227069-.0582293.6662193.1643342.1435123.2225634.0886.5184238-.1252193.6746658l-1.684 1.199 1.141-.659c.2260575-.1301558.5141897-.0646595.6617686.1504288.1475789.2150884.1050107.5074886-.0977686.6715712l-4.866 3.911 4.3-2.485c.2275891-.1298897.5168511-.062032.6629348.1555172.1460838.2175492.0994243.5109773-.1069348.6724828l-4.017 3.1 3.462-2c.2300482-.1308569.5222207-.059778.6664488.1621318.1442281.2219099.0905463.5177734-.1224488.6748682l-2.174 1.579 1.635-.944c.2310609-.1298083.523268-.0567757.6660866.1664779.1428185.2232536.086628.5191613-.1280866.6745221l-1 .706.462-.267c.2318603-.1330617.527371-.0602043.6708066.1653857.1434357.22559.0840493.5240996-.1348066.6776143l-.423.3c.2288428-.0660263.4724919.0385335.5822992.2498882.1098073.2113548.0552867.4708257-.1302992.6201118l-4.951 3.989 4.39-2.534c.2304184-.1322364.5240189-.0611893.6684864.1617642.1444674.2229535.0893536.5199576-.1254864.6762358l-2.053 1.484 1.511-.872c.2271272-.1307942.5167067-.0640046.6636035.1530559.1468968.2170604.1012506.5107158-.1046035.6729441l-4.4 3.45 3.843-2.218c.2292016-.1303039.5201978-.0602449.6649792.1600976s.0935911.5152436-.1169792.6739024l-2.99 2.221 2.441-1.41c.2263606-.1309251.5153721-.0653166.6630162.1505114.1476442.2158279.1040467.5089685-.1000162.6724886l-4.854 3.892 4.294-2.478c.228924-.1342308.5228351-.0662362.6695479.1548961s.0951128.5183603-.1175479.6771039l-3.485 2.631 2.934-1.7c.2245855-.1309436.5120466-.0679354.6612702.144943.1492235.2128783.1104168.5045939-.0892702.671057l-3.817 3.22 3.251-1.877c.2145941-.1228235.486738-.0703506.6402819.1234548.1535438.1938053.142373.4707366-.0262819.6515452l-2.1 2.23 1.483-.854c.2016831-.1161827.4568603-.077834.6154853.0924968.1586251.1703309.178739.4275884.0485147.6205032l-.529.784c.2148411-.0489985.4367317.0463862.549.236.1380647.2391402.0561341.5449248-.183.683l-1.72.994c-.2016831.1161827-.4568603.077834-.6154853-.0924968-.1586251-.1703309-.178739-.4275884-.0485147-.6205032l.5-.747-2.539 1.466c-.21459408.1228235-.486738.0703506-.64028186-.1234548-.15354386-.1938053-.14237308-.4707366.02628186-.6515452l2.1-2.23-5.228 3.016c-.07584128.0442906-.16217421.0674278-.25.067z" fill="#2783ec"/><path id="Path" d="m19.137 59.471c-.2116005.0005966-.4006651-.1320712-.4720762-.3312585-.071411-.1991873-.0097041-.4217596.1540762-.5557415l.1-.081-1.56.9c-.2062518.1182441-.4672436.0749051-.6242099-.1036531-.1569663-.1785583-.1664952-.4429523-.0227901-.6323469l1.488-1.954-4.66 2.69c-.2245986.1270093-.5089574.0622563-.656419-.1494768-.1474617-.2117332-.109592-.5009023.087419-.6675232l.227-.19-1.74 1.004c-.2218647.1262356-.5031961.0650788-.6526317-.1418714-.1494355-.2069502-.1189881-.4932377.0706317-.6641286l.756-.671-2.56 1.477c-.20402071.1168465-.46188805.0757661-.61950163-.0986916-.15761357-.1744578-.17238976-.4351585-.03549837-.6263084l1.483-2.041-4.8 2.766c-.219385.1342545-.50483439.0801688-.65990028-.1250351-.1550659-.2052038-.12915517-.4945743.05990028-.6689649l1.112-1.062-3.212 1.856c-.20402071.1168465-.46188805.0757661-.61950163-.0986916-.15761357-.1744578-.17238976-.4351585-.03549837-.6263084l1.479-2.047-1.945 1.124c-.19300081.1106871-.43592101.080531-.59599922-.0739873-.16007822-.1545183-.19879909-.3962213-.09500078-.5930127l.48-.906c-.21691958-.0208233-.3953701-.1797381-.44109245-.3928042-.04572234-.2130661.0518152-.4312058.24109245-.5391958l1.128-.65c.19325509-.1121451.437458-.0824579.59821485.0727235.16075684.1551815.19904176.3981849.09378515.5952765l-.4.752 2.456-1.417c.20402071-.1168465.46188805-.0757661.61950163.0986916.15761357.1744578.17238976.4351585.03549837.6263084l-1.478 2.045 4.8-2.772c.219385-.1342545.50483439-.0801688.65990028.1250351.1550659.2052038.12915517.4945743-.05990028.6689649l-1.113 1.062 3.216-1.854c.2040207-.1168465.4618881-.0757661.6195016.0986916.1576136.1744578.1723898.4351585.0354984.6263084l-1.479 2.042 4.8-2.77c.2218647-.1262356.5031961-.0650788.6526317.1418714.1494355.2069502.1189881.4932377-.0706317.6641286l-.755.671 2.557-1.474c.2247363-.1292165.510959-.0652384.6592891.1473681.1483301.2126064.1095663.5033193-.0892891.6696319l-.228.19 1.744-1.007c.2063079-.1194052.468219-.0765693.6257371.1023402.1575181.1789094.1668365.4441367.0222629.6336598l-1.5 1.954 4.663-2.69c.2251719-.1281476.5109328-.0630663.6584056.14995.1474728.2130162.107801.5033971-.0914056.66905l-.1.079 1.557-.9c.217772-.1239843.4936884-.0676117.6453756.131857.1516872.1994686.1322878.4804159-.0453756.657143l-1.2 1.183 3.42-1.97c.210704-.121866.4785513-.0742927.6344017.1126784.1558503.186971.1544141.4590066-.0034017.6443216l-1.478 1.739 4.322-2.496c.2060032-.1172655.4660355-.0737671.6226587.1041589.1566233.177926.1667886.4413754.0243413.6308411l-1.492 1.96 4.671-2.695c.2106402-.1205642.4774423-.072448.6326961.114103.1552538.1865509.1541169.4576547-.0026961.642897l-1.476 1.723 4.3-2.483c.2241703-.1280952.5090066-.0644456.6573283.1468868.1483216.2113324.1113468.5008421-.0853283.6681132l-.343.289 1.913-1.1c.2221262-.1265945.5039712-.0652242.6533525.1422642.1493814.2074884.1181698.4942439-.0723525.6647358l-.73.645 2.518-1.453c.2134326-.1213489.4833915-.0697812.6370683.1216932.1536769.1914744.1455966.4661956-.0190683.6483068l-1.409 1.538 4-2.308c.2163843-.1232964.4905169-.0685506.6429461.1284.1524291.1969505.1366764.476052-.0369461.6546l-1.291 1.309 3.625-2.092c.2061164-.1195661.467969-.0770659.6256882.1015529s.1674752.4437185.0233118.6334471l-1.489 1.965 4.676-2.7c.2157843-.1245835.4903641-.0712785.6438596.1249944s.1390557.4756061-.0338596.6550056l-1.329 1.372 3.726-2.152c.2240372-.1259992.5071082-.0616068.6545964.1489061s.1113381.4985559-.0835964.6660939l-.321.271 1.37-.791c.2225362-.1254221.5038286-.0629326.6523283.1449156.1484997.2078483.1164484.49421-.0743283.6640844l-.275.24.014-.007c.1883612-.1054763.4231479-.0781489.5822487.0677693.1591009.1459182.206583.3774716.1177513.5742307l-.579 1.247c.1921766-.0149189.3758153.0819583.472.249.1382327.2388784.0567713.5445824-.182.683l-1.122.647c-.1883612.1054763-.4231479.0781489-.5822487-.0677693-.1591009-.1459182-.206583-.3774716-.1177513-.5742307l.543-1.171-3.141 1.808c-.2225362.1254221-.5038286.0629326-.6523283-.1449156-.1484997-.2078483-.1164484-.49421.0743283-.6640844l.277-.241-1.821 1.05c-.2240372.1259992-.5071082.0616068-.6545964-.1489061s-.1113381-.4985559.0835964-.6660939l.323-.272-1.884 1.087c-.2157055.1230645-.4890446.0691582-.6418764-.1265869-.1528317-.1957451-.1388315-.4739971.0328764-.6534131l1.329-1.372-3.73 2.152c-.2060613.1184061-.466996.0754024-.6241634-.1028662-.1571674-.1782685-.1671324-.4425353-.0238366-.6321338l1.492-1.965-4.678 2.7c-.2163843.1232964-.4905169.0685506-.6429461-.1284-.1524291-.1969505-.1366764-.476052.0369461-.6546l1.293-1.306-3.627 2.089c-.2134326.1213489-.4833915.0697812-.6370683-.1216932-.1536769-.1914744-.1455966-.4661956.0190683-.6483068l1.415-1.542-4.006 2.312c-.2221262.1265945-.5039712.0652242-.6533525-.1422642-.1493814-.2074884-.1181698-.4942439.0723525-.6647358l.728-.644-2.511 1.451c-.2243015.1303348-.511027.0674761-.6602307-.1447421-.1492038-.2122182-.1113211-.5032983.0872307-.6702579l.346-.29-1.916 1.1c-.2106402.1205642-.4774423.072448-.6326961-.114103-.1552538-.1865509-.1541169-.4576547.0026961-.642897l1.473-1.717-4.3 2.479c-.2060032.1172655-.4660355.0737671-.6226587-.1041589-.1566233-.177926-.1667886-.4413754-.0243413-.6308411l1.492-1.96-4.669 2.7c-.210704.121866-.4785513.0742927-.6344017-.1126784-.1558503-.186971-.1544141-.4590066.0034017-.6443216l1.478-1.739-4.323 2.491c-.217772.1239843-.4936884.0676117-.6453756-.131857-.1516872-.1994686-.1322878-.4804159.0453756-.657143l1.2-1.183-3.413 1.972c-.0754832.0456007-.1618163.0701194-.25.071z" fill="#346d92"/><g fill="#262626"><path id="Shape" d="m57.934 54.669c-.39478-.1024815-.7955544-.1802986-1.2-.233v-29.11c0-1.676.6-4.753 0-6.361-.733-1.972-2.591-1.439-4.474-1.439-1.4 0-5.394-.763-6.6.655-.855 1-.383 3.3-.383 4.45v32.038h-2.553v-22.531c0-2.062.87-6.426 0-8.291-1.07-2.294-5.264-1.223-7.359-1.223-1.856 0-3.348-.26-4.089 1.612-.8 2.017 0 6.141 0 8.29v22.143h-2.546v-22.407c0-2.212.81-6.234 0-8.291-.944-2.4-4.244-1.449-6.457-1.449-2.006 0-4.15-.548-5 1.59-.8 2.009 0 6.148 0 8.29v22.267h-2.549v-33.433c0-2.3.679-5.823 0-8.05-.659-2.162-2.358-1.6-4.452-1.6-1.572 0-5.477-.787-6.7.8-.965 1.245-.292 4.61-.292 6.008v36.106c-.31931168.0399262-.63613994.0976831-.949.173-2.412.6-3.177 3.712-.63 4.662 1.946.725 5.62 0 7.655 0h48.344c.0816413-.0042932.1623489-.0194259.24-.045.1114093-.0109042.2207771-.0371525.325-.078 1.016635-.3426196 1.6725944-1.3297623 1.5946363-2.3997424-.077958-1.0699801-.8700754-1.9516168-1.9256363-2.1432576zm-11.204-35.177c.468-1.192.193-.8 1.667-1.018 1.232-.184 4.617-.517 5.746 0 1.823.836 1.127 3.194 1.127 5.141v30.706c-2.662-.1-5.673.342-8.024.347-.1596576-.036839-.3172185-.0822379-.472-.136.0058936-.1585765-.0088975-.3172451-.044-.472-.0995012-1.1107762-.0995012-2.2282238 0-3.339v-23.759c0-1.971-.73-5.614 0-7.47zm-14.006 26.982v-14.336c0-1.782-.948-6.766 0-8.23.784-1.208 7.665-1.232 8.552.45.959 1.821 0 7.095 0 9.069v21.217l-.8.025h-7.8c-.811-1.428.048-6.769.048-8.195zm-13.994.126v-13.437c0-1.863-1.035-7.4 0-9.07.824-1.331 7.78-1.221 8.54.34.963 1.978 0 6.642 0 8.87v21.219h-4.5c-.717 0-3.6-.22-4.027.147h-.133c-.732-1.535.12-6.731.12-8.069zm-14.006 1.929v-27.293c0-1.917-.834-6.167 0-7.945.46-.978.352-.681 1.656-.879.975-.148 5.387-.55 6.181 0 1.532 1.062.715 5.094.715 6.688v35.488h-4.183c-1.483-.1-3.084-.238-4.568-.189-.357-1.456.199-4.842.199-5.87zm3.216 10.14c-1.767 0-5.189.783-6.216-.863-1.216-1.95.031-2.476 1.588-2.571.09401145.1272731.24876817.1947409.406.177h9.951c.2035221.0174141.4083811-.0102418.6-.081h3.111c.093627.0955389.2222428.1486471.356.147h9.976c.2477306.0247336.4971205-.0265395.715-.147h2.992c.093989.0289143.1916684.0440714.29.045h9.976c.1165888-.0028701.2325557-.0179525.346-.045h3.35c.0939408.0933739.2215619.144927.354.143h9.975c.2576734.0258047.5169308-.0301753.741-.16.046.009.1.007.144.017.245.052.794-.134 1.008 0 .711.443 1.182 2.687.3 3.338z"/><path id="Path" d="m51.727 6.917c.018-.556.309-1.456 1-1.479.3654424.0286237.7217635-.12339169.954-.407.154-.286-.132-.478-.4-.469-1.5095348-.08694506-2.8250825 1.01811496-3 2.52-.029.635 1.428.357 1.446-.165z"/><path id="Shape" d="m46.284 7.353c.188 8.283 13.013 7.386 13.44-.547-.44-8.178-12.947-7.728-13.424-.082-6.8.441-13.658 3.927-16.33 10.379-4.976-9.729-19.031-12.334-28.676-12.469-.489-.006-1.557.718-.588.732 9.694.134 24.094 2.953 28.365 13.334h-3.6c-.319 0-1.643.608-.934.608h4.843c.2491714.1009081.5278286.1009081.777 0h4.38c.319 0 1.643-.608.934-.608h-4.696c1.88-7 8.562-11.053 15.509-11.347zm2.251-3.5c.9-1.514 1.282-1.394 3.132-1.883 1.82-.481 1.827-.736 3.159-.132 2.0834491.97587442 3.4241778 3.05847305 3.45 5.359-.0284463 1.22700548-.4279987 2.4165977-1.146 3.412-.858 1.171-.977.946-2.8 1.427-1.732.458-2.254.724-3.68-.1-1.3560194-.7887786-2.341643-2.08559525-2.7386141-3.60328241s-.1725332-3.13101134.6236141-4.48271759z"/></g></g></svg>