<svg height="512" viewBox="0 0 60 60" width="512" xmlns="http://www.w3.org/2000/svg"><g id="044---Save-Progress" fill="none"><path id="Path" d="m6.028 59.471c-.22390383-.000508-.42017256-.1498079-.48042308-.3654535-.06025051-.2156457.03020814-.445056.22142308-.5615465l16.4-9.984-18.563 10.713c-.23583577.1260453-.52910097.0442222-.66561588-.1857118-.13651492-.2299339-.06795177-.5265795.15561588-.6732882l22.665-13.88-23.789 13.735c-.2372063.1413849-.54411508.0637063-.68549997-.1735s-.06370631-.5441151.17349997-.6855l25.94-15.931-26.1 15.065c-.2342956.1082553-.51248758.0203914-.64209935-.2028-.12961177-.2231915-.06804668-.5083591.14209935-.6582l10.992-6.617-10.512 6.066c-.23701856.1320316-.53608427.0509486-.6739531-.1827228-.13786884-.2336714-.06422739-.5346559.1659531-.6782772l10.3-6.2-9.792 5.657c-.23698876.1350471-.53848394.055235-.67761558-.1793791-.13913163-.2346142-.06455352-.5374465.16761558-.6806209l23.186-14.157-22.676 13.089c-.23803473.1400042-.54449582.0605347-.6845-.1775s-.06053473-.5444958.1775-.6845l7.159-4.3-6.652 3.847c-.23649337.126689-.53082268.0441496-.66695642-.1870361-.13613373-.2311857-.06554462-.5286074.15995642-.6739639l3.18-1.9-2.673 1.54c-.23858701.1402803-.54571967.060587-.686-.178s-.06058701-.5457197.178-.686l7.755-4.655-7.247 4.186c-.23748244.1411088-.54439125.0629824-.6855-.1745s-.06298244-.5443912.1745-.6855l24.888-15.255-24.377 14.075c-.2372063.1413849-.5441151.0637063-.6855-.1735s-.0637063-.5441151.1735-.6855l27.163-16.77-26.651 15.386c-.23583577.1260453-.52910097.0442222-.66561588-.1857118-.13651491-.2299339-.06795176-.5265795.15561588-.6732882l22.159-13.576-21.649 12.498c-.23571786.1278172-.53029699.0469384-.66770199-.1833224-.13740501-.2302607-.06871185-.5279174.15570199-.6746776l24.513-15.127-24 13.856c-.23486629.1223119-.52436539.0402957-.66017777-.1870309-.13581237-.2273266-.07083392-.5211193.14817777-.6699691l24.325-15.051-23.815 13.749c-.23596019.1244074-.52802952.041678-.66369597-.1879935-.13566644-.2296716-.06715011-.5253981.15569597-.6720065l11.518-6.984-11.01 6.356c-.23748244.1411088-.54439125.0629824-.6855-.1745s-.06298244-.5443912.1745-.6855l17.962-11.012-17.451 10.076c-.23775858.1405565-.54444353.0617586-.685-.176s-.06175858-.5444435.176-.685l11.546-7.018-11.037 6.372c-.23620749.133071-.53543293.0536509-.67455994-.1790411-.13912702-.2326919-.06746126-.5338687.16155994-.6789589l20.677-12.806-20.164 11.641c-.23596019.1244074-.52802952.041678-.66369597-.1879935-.13566644-.2296716-.06715011-.5253981.15569597-.6720065l3.481-2.1-2.973 1.714c-.23596019.1244074-.52802952.041678-.66369597-.1879935-.13566644-.2296716-.06715011-.5253981.15569597-.6720065l1.391-.84-.883.51c-.23628449.1306359-.5336041.0500916-.67163931-.181948s-.06692381-.5317553.16063931-.677052l12.848-7.9-12.337 7.119c-.23583577.1260453-.52910097.0442222-.66561588-.1857118-.13651491-.2299339-.06795176-.5265795.15561588-.6732882l5.4-3.293-4.89 2.819c-.23497088.1292146-.53003872.050062-.66879247-.179405-.13875376-.2294671-.07178369-.5275361.15179247-.675595l16.509-10.433-15.992 9.233c-.23486417.1312813-.53150396.0531604-.67124116-.1767732-.13973719-.2299337-.07245767-.5292187.15224116-.6772268l15.282-9.77-14.763 8.523c-.23571786.1278172-.53029699.0469384-.66770199-.1833224-.13740501-.2302607-.06871185-.5279174.15570199-.6746776l2.675-1.651-2.163 1.248c-.23389628.1269547-.52624912.04845-.66508707-.1785941-.13883796-.227044-.07550149-.5230536.14408707-.6734059l11.742-7.593-11.221 6.475c-.23405687.1357068-.53360081.0606207-.67597038-.1694442s-.07591293-.5316408.14997038-.6805558l11.322-7.519-10.8 6.233c-.23477127.1336383-.53323995.0566316-.67405087-.1739091-.14081092-.2305408-.07304023-.5312411.15305087-.6790909l5.4-3.495-4.875 2.817c-.23361645.1480123-.54298769.0786164-.691-.155s-.07861645-.5429877.155-.691l8.557-5.961-8.021 4.632c-.23377341.1287456-.52745054.051198-.66718797-.1761759-.13973744-.2273739-.07627-.5244122.14418797-.6748241l1.1-.718-.573.33c-.23210925.1290838-.52463722.0541763-.66613933-.170578-.1415021-.2247542-.08259625-.5209195.13413933-.674422l2.682-1.834-2.154 1.247c-.22575092.12554389-.50997115.05846057-.655761-.15477654s-.10515191-.50242541.093761-.66722346l4.662-3.748-4.1 2.37c-.22698061.13265766-.51792342.06687643-.66575669-.15052545-.14783328-.21740187-.10205348-.51215448.10475669-.67447455l1.827-1.457-1.266.731c-.22502404.12983267-.51198925.06570465-.6603401-.14756599s-.10865701-.50462239.0913401-.67043401l.464-.384c-.21398711.05047947-.4358404-.04474807-.54665035-.23464229-.11080994-.18989422-.08457216-.42989161.06465035-.59135771l.781-.841c-.17041876-.07757375-.28321207-.24386381-.29226845-.43088846-.00905637-.18702466.08714223-.36343483.24926845-.45711154l1.934-1.116c.21386359-.12134818.48421523-.06918464.63757991.12301914.15336467.19220378.14421419.46738975-.02157991.64898086l-.294.319 2.025-1.167c.22459856-.12700926.5089574-.06225633.65641904.14947682.14746165.21173315.10959197.50090228-.08741904.66752318l-.369.306 1.946-1.123c.22666814-.13175582.51661365-.0660514.66434159.15054615s.10306194.51052002-.10234159.67345385l-1.826 1.451 3.945-2.275c.2259042-.12776206.5120042-.06144377.6586593.15267798.1466552.21412174.1051039.50485322-.0956593.66932202l-4.664 3.741 7.91-4.563c.2321092-.12908381.5246372-.05417632.6661393.17057796s.0825963.52091953-.1341393.67442204l-2.679 1.83 4.636-2.675c.2330372-.12386012.5222123-.04527822.6605113.17949071.138299.22476892.0780959.51832115-.1375113.67050929l-1.076.705 2.696-1.555c.2314518-.1313128.5252013-.05833565.6682918.16602591.1430904.22436156.0853808.52148787-.1312918.67597409l-8.564 5.966 11.798-6.808c.2338963-.12695469.5262491-.04844997.6650871.17859405.1388379.22704402.0755015.5230536-.1440871.67340595l-5.4 3.491 7.529-4.343c.2335451-.1328438.5303244-.05736382.6720248.17091629s.0776546.52773513-.1450248.67808371l-11.327 7.519 14.5-8.368c.2338963-.12695469.5262491-.04844997.6650871.17859405.1388379.22704402.0755015.5230536-.1440871.67340595l-11.735 7.589 14.627-8.441c.2357179-.12781718.530297-.04693838.667702.18332235.137405.23026074.0687118.52791741-.155702.67467765l-2.674 1.65 4.349-2.508c.2343611-.12889228.5286543-.05052268.6678755.17785371.1392213.22837639.0740613.52587341-.1478755.67514629l-15.283 9.766 18.397-10.619c.2354379-.13454995.5352149-.05690217.6757281.17502611.1405133.23192829.0705395.53358878-.1577281.67997389l-16.515 10.438 19.563-11.293c.2362845-.13063592.5336041-.05009164.6716393.18194798s.0669238.53175531-.1606393.67705202l-5.4 3.29 7.189-4.149c.2357179-.12781718.530297-.04693838.667702.18332235.137405.23026074.0687118.52791741-.155702.67467765l-12.843 7.9 15.131-8.734c.2359602-.12440737.5280295-.041678.663696.18799355.1356664.22967154.0671501.52539802-.155696.67200645l-1.413.853 2.087-1.2c.2363825-.12854979.5321069-.0469768.6691568.18458103.1370499.23155784.0662709.53004973-.1601568.67541897l-3.472 2.1 3.742-2.16c.2356087-.12976469.5316571-.04987998.6700067.18079237.1383496.23067236.0694166.52946069-.1560067.67620763l-20.683 12.8 21.378-12.343c.2369888-.13504713.5384839-.05523499.6776156.17937913.1391316.23461413.0645535.53744647-.1676156.68062087l-11.548 7.02 11.941-6.895c.2374824-.1413849.5446151-.06348244.686.174s.0634824.5446151-.174.686l-17.967 11.013 18.531-10.7c.2363825-.12854979.5321069-.0469768.6691568.18458103.1370499.23155784.0662709.53004973-.1601568.67541897l-11.51 6.981 11.894-6.866c.2352087-.12562801.5276152-.04456942.664573.18422757.1369579.22879699.070267.52481121-.151573.67277243l-24.319 15.046 25.1-14.487c.2362075-.13307102.5354329-.05365088.6745599.17904108.1391271.23269196.0674613.53386873-.1615599.67895892l-24.522 15.129 25.285-14.6c.2374824-.14110875.5443912-.06298244.6855.1745s.0629824.54439125-.1745.6855l-22.149 13.571 22.8-13.163c.2362075-.133071.5354329-.0536509.6745599.1790411.1391271.2326919.0674613.5338687-.1615599.6789589l-27.158 16.767 27.988-16.159c.1534456-.09146.3440284-.0941103.4999579-.0069525s.2535161.2508822.256.4295-.0905123.3449925-.2439579.4364525l-24.908 15.267 25-14.433c.1539815-.0907455.3446783-.0924496.5002569-.0044705.1555787.0879792.2524029.2522755.254.431.0015972.1787246-.0922754.344725-.2462569.4354705l-7.719 4.632 7.21-4.162c.2380347-.1400042.5444958-.0605347.6845.1775s.0605347.5444958-.1775.6845l-3.18 1.9 2.673-1.543c.2364934-.126689.5308227-.0441496.6669564.1870361.1361338.2311857.0655446.5286074-.1599564.6739639l-7.159 4.3 6.652-3.84c.2369888-.1350471.5384839-.055235.6776156.1793791.1391316.2346142.0645535.5374465-.1676156.6806209l-23.2 14.168 22.694-13.1c.2370186-.1320316.5360843-.0509486.6739531.1827228s.0642274.5346559-.1659531.6782772l-10.3 6.2 9.794-5.655c.2380347-.1402803.5447197-.0610347.685.177s.0610347.5447197-.177.685l-10.99 6.606 10.476-6.048c.2362845-.1306359.5336041-.0500916.6716393.181948s.0669238.5317553-.1606393.677052l-25.931 15.926 25.42-14.674c.2358358-.1260453.529101-.0442222.6656159.1857118.1365149.2299339.0679517.5265795-.1556159.6732882l-22.657 13.875 22.147-12.785c.2354667-.1225198.5256326-.0396943.6609447.1886614.135312.2283558.0686058.5226457-.1519447.6703386l-16.424 10 15.915-9.186c.2354667-.1225198.5256326-.0396943.6609447.1886614.135312.2283558.0686058.5226457-.1519447.6703386l-13.644 8.309 13.136-7.583c.2352087-.125628.5276152-.0445694.664573.1842276.1369579.228797.070267.5248112-.151573.6727724l-19.992 12.406 19.479-11.245c.2356087-.1297647.5316571-.04988.6700067.1807924.1383496.2306723.0694166.5294607-.1560067.6762076l-18.718 11.691 18.2-10.51c.2355125-.13196.5332497-.0531389.6726204.1780652.1393708.2312042.0700423.5312938-.1566204.6779348l-17.814 11.23 17.3-9.988c.2353357-.1240261.5265799-.04207.6626998.1864836.1361199.2285535.0694507.5236725-.1516998.6715164l-5.33 3.276 4.82-2.783c.2349709-.1292146.5300387-.050062.6687925.179405.1387537.2294671.0717837.5275361-.1517925.675595l-13.428 8.512 12.912-7.454c.2356087-.1297647.5316571-.04988.6700067.1807924.1383496.2306723.0694166.5294607-.1560067.6762076l-6.149 3.831 5.635-3.253c.2342478-.1308833.5300435-.0535271.6702262.1752769s.074765.527467-.1482262.6767231l-12.124 7.888 11.6-6.7c.2354379-.13455.5352149-.0569022.6757281.1750261.1405133.2319283.0705395.5335888-.1577281.6799739l-5.637 3.594 5.119-2.956c.2330829-.1306613.5277074-.0549657.6689423.1718661.1412349.2268319.0791592.5246238-.1409423.6761339l-9.47 6.357 8.942-5.162c.2337734-.1287456.5274505-.051198.667188.1761759.1397374.2273739.07627.5244122-.144188.6748241l-4.28 2.8 3.757-2.168c.2317427-.1353654.5290201-.0636298.6735243.1625272.1445041.2261571.084687.5260601-.1355243.6794728l-6.607 4.647 6.069-3.5c.2327682-.1379387.5330334-.0656905.677577.1630348s.0809181.5309351-.143577.6819652l-2.883 1.986 2.349-1.355c.2314574-.1247242.5199691-.0488817.6601699.1735422.1402009.2224239.0841872.5154316-.1281699.6704578l-.457.314c.228051-.0871755.4857128.0030929.6094993.2135298.1237865.210437.0774963.4795007-.1094993.6364702l-3.313 2.8 2.74-1.581c.2207276-.1320893.5056598-.0751513.6586724.1316224.1530126.2067738.124171.4959044-.0666724.6683776l-1.521 1.431.863-.5c.1549945-.0985297.351531-.1041539.5119064-.0146489.1603754.0895049.2587712.2597296.2562855.4433739s-.1054527.3511436-.2681919.436275l-4.592 2.642c-.2207276.1320893-.5056598.0751513-.6586724-.1316224-.1530126-.2067738-.124171-.4959044.0666724-.6683776l1.52-1.429-3.857 2.229c-.2238916.1275836-.5080784.0641108-.6564103-.1466086-.148332-.2107193-.1122202-.4996603.0834103-.6673914l3.312-2.8-6.261 3.614c-.2314574.1247242-.5199691.0488817-.6601699-.1735422-.1402009-.2224239-.0841872-.5154316.1281699-.6704578l.383-.263-1.919 1.107c-.2319831.1309881-.5259285.0570795-.6683699-.1680527-.1424414-.2251321-.0833463-.52241.1343699-.6759473l2.89-1.989-4.914 2.833c-.2310609.1298083-.523268.0567757-.6660866-.1664779-.1428185-.2232536-.086628-.5191613.1280866-.6745221l6.6-4.645-9.501 5.486c-.2333291.1269664-.5252099.0493179-.6646076-.1768043-.1393976-.2261221-.0776459-.5217747.1406076-.6731957l4.282-2.8-6.331 3.65c-.23265.1288599-.5254615.0530472-.6663444-.1725252s-.0805297-.5219566.1373444-.6744748l9.462-6.353-12.471 7.2c-.2348642.1312813-.531504.0531604-.6712412-.1767732-.1397372-.2299337-.0724576-.5292187.1522412-.6772268l5.642-3.589-7.7 4.443c-.2334572.1253051-.5241289.0467367-.6626677-.1791186-.1385388-.2258554-.0768365-.5205686.1406677-.6718814l12.122-7.888-15.135 8.739c-.2356087.1297647-.5316571.04988-.6700067-.1807924-.1383496-.2306723-.0694166-.5294607.1560067-.6762076l6.139-3.825-8.11 4.682c-.234481.1270728-.5274228.0477401-.6657366-.1802909-.1383139-.2280309-.0733058-.5244809.1477366-.6737091l13.434-8.515-16.229 9.369c-.2353357.1240261-.5265799.04207-.6626998-.1864836-.1361199-.2285535-.0694507-.5236725.1516998-.6715164l5.341-3.277-7.165 4.135c-.2346058.1253855-.5263122.0451285-.6637604-.18262-.1374483-.2277485-.0725112-.523243.1477604-.67238l17.825-11.234-20.949 12.089c-.2350866.127347-.5287583.0472199-.6665908-.1818764-.1378325-.2290964-.071048-.5260868.1515908-.6741236l18.713-11.685-21.728 12.541c-.2352087.125628-.5276152.0445694-.664573-.1842276-.1369579-.228797-.070267-.5248112.151573-.6727724l20-12.41-22.984 13.267c-.23546673.1225198-.52563259.0396943-.66094465-.1886614-.13531207-.2283558-.0686058-.5226457.15194465-.6703386l13.642-8.308-15.879 9.167c-.07561844.0452887-.16186523.0697828-.25.071z" fill="#2885ee"/><path id="Path" d="m18.119 16.471c-.2230555.0000008-.4191337-.1477468-.4806262-.3621586-.0614926-.2144118.0264751-.4436228.2156262-.5618414l.352-.221-1.866 1.074c-.2355125.13196-.5332497.0531389-.6726204-.1780652-.1393708-.2312042-.0700423-.5312938.1566204-.6779348l.648-.405-1.4.807c-.234481.1270728-.5274228.0477401-.6657366-.1802909-.1383139-.2280309-.0733058-.5244809.1477366-.6737091l3.746-2.385-3.876 2.237c-.2337734.1287456-.5274505.051198-.667188-.1761759-.1397374-.2273739-.07627-.5244122.144188-.6748241l4.899-3.193-4.52 2.614c-.2314518.1313128-.5252013.0583356-.6682918-.1660259-.1430904-.2243616-.0853808-.5214879.1312918-.6759741l7.857-5.505-7.32 4.233c-.2299138.1328235-.5235501.0627731-.6687427-.1595365s-.0912979-.5193359.1227427-.6764635l6.228-4.577-5.682 3.275c-.2309306.13173121-.5245674.05970825-.6683337-.16392831-.1437664-.22363655-.0873821-.52067301.1283337-.67607169l2.36-1.68-1.82 1.052c-.2254634.12877265-.5119753.06354158-.6594703-.1501437-.1474949-.21368528-.1068861-.50470942.0934703-.6698563l2.966-2.421-2.4 1.385c-.2162377.12475173-.4913592.07089051-.6445905-.12619308-.1532312-.1970836-.1376138-.47699246.0365905-.65580692l1.841-1.888-1.233.711c-.1700464.0979963-.3816994.08744567-.5411571-.02697599-.1594577-.11442165-.2372275-.31155145-.1988429-.50402401l.33-1.656c-.1856958-.06306446-.3173786-.22886494-.3367645-.42401677-.019386-.19515182.0771047-.38361855.2467645-.48198323l.5-.289c.1698759-.09778116.3812183-.08728585.5405706.02684484s.2373216.31084513.1994294.50315516l-.285 1.435 3.411-1.968c.2159307-.12313412.4895276-.06894621.642223.12719707s.1381159.47467342-.034223.65380293l-1.84 1.888 4.63-2.673c.2254634-.12877265.5119753-.06354158.6594703.1501437.1474949.21368528.1068861.50470942-.0934703.6698563l-2.966 2.422 5.621-3.245c.2309306-.13173121.5245674-.05970825.6683337.16392831.1437664.22363655.0873821.52067301-.1283337.67607169l-2.364 1.68 4.37-2.522c.2296891-.12962966.5205695-.0585592.6646041.16238191.1440346.2209411.0916869.51576672-.1196041.67361809l-6.225 4.579 9.38-5.419c.2314518-.1313128.5252013-.05833565.6682918.16602591.1430904.22436156.0853808.52148787-.1312918.67597409l-7.863 5.507 11-6.352c.2347034-.13648675.5354374-.06073246.6774741.17065438.1420368.23138683.073465.53383941-.1544741.68134562l-4.9 3.183 7-4.038c.2354379-.13454995.5352149-.05690217.6757281.17502611.1405133.23192829.0705395.53358878-.1577281.67997389l-3.751 2.393 5.63-3.25c.236654-.14248946.5440105-.06615401.6865.1705.1424895.23665402.066154.54401053-.1705.6865l-.649.406 2.192-1.265c.2361735-.13618181.537908-.05806811.6783318.17560806.1404239.23367617.0677709.53677186-.1633318.68139194l-.347.218 1.868-1.077c.2329673-.1327691.5291919-.0581284.6714287.16918215.1422368.22731056.0798406.52635392-.1414287.67781785l-10.415 7.032 11.805-6.814c.2327769-.12708967.524286-.05032185.6642741.17493404.139988.2252559.0797468.52062324-.1372741.67306596l-7.818 5.2 7.292-4.209c.2334572-.12530509.5241289-.04673672.6626677.17911863s.0768365.52056857-.1406677.67188137l-2.922 1.9 2.4-1.384c.2327769-.12708967.524286-.05032185.6642741.17493404.139988.2252559.0797468.52062324-.1372741.67306596l-3.226 2.161 2.7-1.558c.2300482-.13085689.5222207-.05977797.6664488.16213184.1442281.22190982.0905463.51777331-.1224488.67486816l-5.048 3.672 4.5-2.6c.2292016-.13030393.5201978-.0602449.6649792.1600976.1447814.22034249.0935911.51524355-.1169792.6739024l-2.852 2.112 2.3-1.33c.2260575-.13015584.5141897-.06465955.6617686.15042885.1475789.21508835.1050107.50748855-.0977686.67157115l-2.131 1.726 1.567-.9c.2230711-.126215.5054574-.0633143.6538691.1456472.1484117.2089616.1147824.4963073-.0778691.6653528l-.693.6.117-.067c.2030505-.1167744.4599528-.0769359.6181003.0958505.1581476.1727864.1751468.4322029.0408997.6241495l-.7 1c.2255547.001802.4219749.1544.4794824.3725078.0575076.2181079-.0381386.4477138-.2334824.5604922l-1.614.932c-.2033353.1187462-.4619658.0795292-.6209583-.0941581-.1589926-.1736873-.1752535-.4347683-.0390417-.6268419l.61-.865-2.776 1.6c-.2230711.126215-.5054574.0633143-.6538691-.1456472-.1484117-.2089616-.1147824-.4963073.0778691-.6653528l.7-.6-2.444 1.404c-.2256086.1271264-.5109479.0609576-.657579-.1524896-.1466312-.2134471-.106025-.5035297.093579-.6685104l2.127-1.723-4.409 2.544c-.228997.1275142-.5175965.0565488-.6613452-.1626219-.1437487-.2191708-.0938504-.5121485.1143452-.6713781l2.855-2.115-5.108 2.949c-.2300482.1308569-.5222207.059778-.6664488-.1621318-.1442281-.2219099-.0905463-.5177734.1224488-.6748682l5.047-3.672-7.816 4.509c-.2327769.1270897-.524286.0503218-.6642741-.174934-.139988-.2252559-.0797468-.5206233.1372741-.673066l3.227-2.152-5.2 3c-.2334572.1253051-.5241289.0467367-.6626677-.1791186-.1385388-.2258554-.0768365-.5205686.1406677-.6718814l2.927-1.907-4.776 2.758c-.2327769.1270897-.524286.0503218-.6642741-.174934-.139988-.2252559-.0797468-.5206233.1372741-.673066l7.816-5.2-10.481 6.048c-.2325262.1307666-.5267591.0559509-.6685809-.1700024s-.0812744-.5234503.1375809-.6759976l10.412-7.031-13.649 7.877c-.0756184.0452887-.1618652.0697828-.25.071z" fill="#d8dde5"/><path id="Path" d="m13.492 59.5c-.2230555.0000008-.4191337-.1477468-.4806262-.3621586-.0614926-.2144118.0264751-.4436228.2156262-.5618414l12.331-7.736-14.278 8.243c-.2346058.1253855-.5263122.0451285-.6637604-.18262-.1374483-.2277485-.0725112-.523243.1477604-.67238l15.564-9.79-15.048 8.688c-.2363825.1285498-.5321069.0469768-.6691568-.184581-.1370499-.2315579-.0662709-.5300498.1601568-.675419l.429-.266c-.2406904.0899367-.5103657-.017196-.6237228-.2477835-.1133572-.2305876-.0334897-.509556.1847228-.6452165l17.392-11.007-16.873 9.736c-.2352087.125628-.5276152.0445694-.664573-.1842276-.1369579-.228797-.070267-.5248112.151573-.6727724l10.833-6.716-10.321 5.958c-.2362075.133071-.5354329.0536509-.6745599-.1790411-.1391271-.2326919-.0674613-.5338687.1615599-.6789589l10.463-6.483-9.95 5.744c-.2350866.127347-.5287583.0472199-.6665908-.1818764-.1378325-.2290964-.071048-.5260868.1515908-.6741236l13.753-8.634-13.238 7.641c-.2350866.127347-.5287583.0472199-.6665908-.1818764-.1378325-.2290964-.071048-.5260868.1515908-.6741236l10.78-6.76-10.265 5.926c-.2354116.1379583-.5379577.061708-.6798637-.1713453-.1419059-.2330532-.070765-.5368414.1598637-.6826547l12.967-8.338-12.447 7.185c-.2348642.1312813-.531504.0531604-.6712412-.1767732-.1397372-.2299337-.0724576-.5292187.1522412-.6772268l8.689-5.547-8.17 4.717c-.2335451.1328438-.5303244.0573638-.6720248-.1709163s-.0776546-.5277351.1450248-.6780837l10.8-7.183-10.273 5.931c-.2343611.1288923-.5286543.0505227-.6678755-.1778537-.1392213-.2283764-.0740613-.5258734.1478755-.6751463l4.29-2.765-3.77 2.176c-.2328603.1351428-.5309189.0616362-.6742423-.1662803-.1433233-.2279164-.080443-.5283964.1422423-.6797197l7.19-4.906-6.658 3.842c-.230817.1267753-.5204005.0527915-.6621232-.1691615-.1417226-.221953-.0869993-.5157856.1251232-.6718385l5.7-4-5.16 2.978c-.2318603.1330617-.527371.0602043-.6708066-.1653857-.1434357-.22559-.0840493-.5240996.1348066-.6776143l2.748-1.917-2.215 1.282c-.2263606.1309251-.5153721.0653166-.6630162-.1505114-.1476442-.2158279-.1040467-.5089685.1000162-.6724886l3.808-3.062-3.245 1.873c-.219385.1342545-.5048344.0801688-.6599003-.1250351-.1550659-.2052038-.1291551-.4945743.0599003-.6689649l2.353-2.253-1.758 1.015c-.1992437.1162507-.4521568.0811062-.6121555-.0850646-.1599987-.1661707-.1855498-.4202324-.0618445-.6149354l.872-1.4c-.2423791.0742194-.5019484-.0446842-.6040464-.2767018-.1020979-.2320176-.0144156-.5037272.2040464-.6322982l1.628-.937c.1992437-.1162507.4521568-.0811062.6121555.0850646.1599987.1661707.1855498.4202324.0618445.6149354l-.858 1.374 3.612-2.084c.219385-.1342545.5048344-.0801688.6599003.1250351.1550659.2052038.1291551.4945743-.0599003.6689649l-2.358 2.251 5.278-3.045c.2260575-.1301558.5141897-.0646595.6617686.1504288.1475789.2150884.1050107.5074886-.0977686.6715712l-3.807 3.06 6.728-3.882c.2311923-.1280141.5220815-.054013.6639947.1689178.1419132.2229309.0858401.5178012-.1279947.6730822l-2.752 1.919 4.783-2.761c.230817-.1267753.5204005-.0527915.6621232.1691615.1417226.221953.0869993.5157856-.1251232.6718385l-5.7 4 8.394-4.841c.2321092-.1290838.5246372-.0541763.6661393.170578.1415021.2247542.0825963.5209195-.1341393.674422l-7.189 4.907 9.963-5.752c.2338963-.1269547.5262491-.04845.6650871.1785941.1388379.227044.0755015.5230536-.1440871.6734059l-4.288 2.762 6.265-3.614c.2330829-.1306613.5277074-.0549657.6689423.1718661.1412349.2268319.0791592.5246238-.1409423.6761339l-10.8 7.182 13.91-8.03c.2354116-.1379583.5379577-.061708.6798637.1713453.1419059.2330532.070765.5368414-.1598637.6826547l-8.693 5.546 11.1-6.406c.2343611-.1288923.5286543-.0505227.6678755.1778537.1392213.2283764.0740613.5258734-.1478755.6751463l-12.976 8.343 15.925-9.19c.2350866-.127347.5287583-.0472199.6665908.1818764.1378325.2290964.071048.5260868-.1515908.6741236l-10.784 6.757 12.9-7.442c.2350866-.127347.5287583-.0472199.6665908.1818764.1378325.2290964.071048.5260868-.1515908.6741236l-13.746 8.627 14.384-8.3c.2362075-.133071.5354329-.0536509.6745599.1790411.1391271.2326919.0674613.5338687-.1615599.6789589l-10.466 6.482 10.121-5.844c.2362075-.133071.5354329-.0536509.6745599.1790411.1391271.2326919.0674613.5338687-.1615599.6789589l-10.827 6.712 10.316-5.956c.2363779-.1427656.5437344-.0668778.6865.1695.1427656.2363779.0668779.5437344-.1695.6865l-17.382 11.012 16.867-9.739c.2363825-.1285498.5321069-.0469768.6691568.184581.1370499.2315579.0662709.5300498-.1601568.675419l-.432.263c.2401661-.0888809.5086642.018064.6219514.247728.1132872.2296641.0347383.507798-.1819514.644272l-15.566 9.792 15.052-8.69c.2350866-.127347.5287583-.0472199.6665908.1818764.1378325.2290964.071048.5260868-.1515908.6741236l-12.343 7.734 11.825-6.827c.236654-.1424895.5440105-.066154.6865.1705s.066154.5440105-.1705.6865l-9.289 5.82 8.775-5.066c.2361017-.1433179.5436821-.0681017.687.168.1433178.2361017.0681017.5436821-.168.687l-10.625 6.788 10.112-5.838c.236654-.1424894.5440105-.066154.6865.1705.1424894.236654.066154.5440105-.1705.6865l-3.492 2.185 2.977-1.718c.2350866-.127347.5287583-.0472199.6665908.1818764.1378325.2290964.071048.5260868-.1515908.6741236l-.934.584.42-.242c.233204-.1287421.5263939-.0520483.6666872.1743946.1402933.226443.0784231.5231151-.1406872.6746054l-8.168 5.4 7.644-4.413c.2318603-.1330617.527371-.0602043.6708066.1653857.1434357.22559.0840493.5240996-.1348066.6776143l-8.711 6.089 8.177-4.72c.23171-.1276221.5227312-.0526794.6639792.1709853s.08384.5186462-.1309792.6730147l-4.726 3.246 4.2-2.422c.2272713-.1290292.5155715-.0612656.6615658.155498.1459944.2167636.1004262.5093938-.1045658.671502l-5.611 4.365 5.051-2.919c.2305507-.1302945.5227069-.0582293.6662193.1643342.1435123.2225634.0886.5184238-.1252193.6746658l-.816.585.277-.16c.2251719-.1281476.5109328-.0630663.6584056.14995.1474728.2130162.107801.5033971-.0914056.66905l-1.69 1.382 1.124-.649c.2243015-.1303348.511027-.0674761.6602307.1447421.1492038.2122182.1113211.5032983-.0872307.6702579l-.359.3c.1426522-.0098543.2828328.0409885.386.14.1621137.1566222.1993828.4023525.091.6l-.553 1.016c.2401237-.0543841.4841006.07413.575066.3029144.0909655.2287844.0018431.4897399-.210066.6150856l-1.384.8c-.1939449.1118117-.438575.0810804-.5988377-.0752281s-.1970948-.4000947-.0901623-.5967719l.533-.979-2.866 1.654c-.2238916.1275836-.5080784.0641108-.6564103-.1466086-.148332-.2107193-.1122202-.4996603.0834103-.6673914l.151-.128-1.635.943c-.2250277.1259685-.5089467.060127-.6555632-.1520265-.1466165-.2121536-.1078274-.5010142.0895632-.6669735l1.68-1.38-3.811 2.2c-.2305507.1302945-.5227069.0582293-.6662193-.1643342-.1435123-.2225634-.0886-.5184238.1252193-.6746658l.819-.587-2.467 1.427c-.2271002.1265913-.5133226.0580067-.6583864-.1577626-.1450637-.2157693-.100553-.506709.1023864-.6692374l5.609-4.363-9 5.194c-.2324067.1328499-.5282158.0590851-.6710333-.1673329s-.0819688-.5251514.1380333-.6776671l4.727-3.246-7.087 4.093c-.232192.1378754-.5319082.0664712-.6769921-.1612862-.1450839-.2277573-.0831069-.529564.1399921-.6817138l8.712-6.091-12.014 6.937c-.2340569.1357068-.5336008.0606207-.6759704-.1694442s-.0759129-.5316408.1499704-.6805558l8.162-5.392-10.817 6.245c-.2361735.1361818-.537908.0580681-.6783318-.1756081-.1404239-.2336761-.0677709-.5367718.1633318-.6813919l.946-.591-2.51 1.449c-.236654.1424894-.5440105.066154-.6865-.1705-.1424894-.236654-.066154-.5440105.1705-.6865l3.5-2.188-5.278 3.047c-.2354379.13455-.5352149.0569022-.6757281-.1750261-.1405133-.2319283-.0705395-.5335888.1577281-.6799739l10.627-6.783-13.238 7.641c-.1530883.0921745-.3437223.0956757-.5000919.0091846s-.2547187-.2498344-.258-.4285c-.0032813-.1786657.0890036-.3455101.2420919-.4376846l9.286-5.818-11.566 6.677c-.0757009.0448547-.1620087.0686756-.25.069z" fill="#d8dde5"/><path id="Path" d="m39.673 12.471c-.1872711-.0002225-.3587178-.105075-.4442326-.2716815s-.0707594-.3670318.0382326-.5193185l.946-1.321-1.923 1.111c-.212437.1228152-.482602.0733206-.6377036-.116828-.1551017-.1901487-.1492961-.4647486.0137036-.648172l1.885-2.126-1.272.734c-.2106402.1205642-.4774423.07244803-.6326961-.11410296-.1552538-.18655098-.1541169-.45765478.0026961-.64289704l1.339-1.567-.709.409c-.1992437.11625075-.4521568.08110618-.6121555-.08506456-.1599987-.16617073-.1855498-.42023239-.0618445-.61493544l.344-.548c-.1845182-.06450599-.3145272-.23062156-.3328057-.42523372s.0785256-.38203062.2478057-.47976628l1.128-.65c.1992437-.11625075.4521568-.08110618.6121555.08506456.1599987.16617073.1855498.42023239.0618445.61493544l-.145.231 1.491-.86c.2109099-.12179714.4788947-.07390951.6345697.11339461.1556749.18730412.1537451.45952717-.0045697.64460539l-1.342 1.566 1.417-.817c.212437-.12281516.482602-.07332062.6377036.11682804.1551017.19014866.1492961.46474858-.0137036.64817196l-1.882 2.125 1.262-.728c.2038365-.11704284.4616761-.07630525.6195.09787847s.1730154.43477917.0365.62612153l-.946 1.319.29-.167c.2374252-.1242009.5305531-.0391619.6646466.1928199.1340935.2319817.0614797.5284321-.1646466.6721801l-2.3 1.327c-.0751386.0443412-.1607537.0678163-.248.068z" fill="#bbc1ce"/><g fill="#262626"><path id="Shape" d="m59.724 13.584c-1.432-3.683-5.452-6.728-8.081-9.6-1.678-1.827-2.543-3.079-4.972-3.247-.0926632-.12674638-.2432456-.19789656-.4-.189h-5.117c-2.847-.05-5.7-.04-8.56 0h-18.323c-.2520397.00669393-.4998061.0666759-.727.176h-7.044c-1.73 0-3.9-.192-5.222 1.188-1.39 1.451-1 3.749-1 5.6v43.652c0 1.887-.554 5 .557 6.675 1.244 1.88 3.8 1.437 5.754 1.437h3.751c.0933904.1259722.2433511.1972035.4.19h31.931c4.3349957.2691986 8.6843283.2023321 13.009-.2 3.03-.363 3.954-2.059 4.044-4.866.148-4.6 0-9.234 0-13.838zm-43.345 1.964c-3.751-1.125-.843-10.63-1.651-13.274-.064487-.26952976-.064487-.55047024 0-.82 1.565.135 3.207 0 4.777 0h21.953c.583 0 1.609-.156 2.512-.179h.239c.3569822-.01118005.7132982.03783875 1.054.145.005.01 0 .012.009.023.129027.80955784.129027 1.63444216 0 2.444v7.383c0 4.191-1.154 4.278-5.007 4.278zm-4.65 35.6v-17.72c0-3.249-.683-5.962 3.251-5.962h31.646c3.235 1 1.645 10.842 1.645 13.136 0 5.441-.671 11.364 0 16.767.0251493.3976868.0228104.7966354-.007 1.194-1.451.072-2.946-.029-4.387-.029h-17.583c-2.662 0-5.414.15-8.148.19h-2.479c-1.145-.022-2.281-.078-3.4-.19-.2109209-.0326637-.4262801-.0221169-.633.031.0833173-.2122138.1158503-.4409719.095-.668-.066-2.245 0-4.503 0-6.749zm46.547 4.572c-.814 3.161-2.071 3-4.612 3h-3.935v-18.266c0-3.138 1.838-12.367-2.076-13.8-.056-.072-.169-.122-.386-.122h-29.937c-1.4782194-.1518019-2.9687526-.1383858-4.444.04-4.521 1.1-2.615 9.677-2.615 13.06v19.308c-4 .188-8.353-.078-8.547-4.315-.345-7.573 0-15.242 0-22.821v-25.187c0-2.174-.287-4.369 2.271-5.341 2.132-.81 6.179 0 8.429 0h.848v9.567c0 2.377-.512 4.709 2.122 5.528.1001869.0619968.2175559.0903756.335.081 8.805 0 17.65.266 26.449 0 2.274-.068 4.012-.138 4.55-2.759.759-3.7.091-8.22.014-12.094.8473525.31920462 1.6146201.81990817 2.248 1.467 3.024 2.868 7.765 7 9.286 10.906v33.268c0 2.535.635 6.01 0 8.48z"/><path id="Shape" d="m40.91 12.433c1.078-.174 1.764-.7 1.817-1.812.057-1.209 0-2.436 0-3.646 0-.872.142-1.879-.839-2.291-.8835919-.22940242-1.8055704-.27028838-2.706-.12-2.655.216-1.909 3.351-1.909 5.222 0 .787-.192 1.877.564 2.388.718.485 1.911.29 2.755.269.1059014.0126383.2131019.0092672.318-.01zm-1.525-.873c-.852-.245-.658-1.026-.658-1.7v-2.646c-.0814785-.50912375-.0736956-1.02854596.023-1.535.17-.355.353-.239.84-.239.3611372-.05200727.7278628-.05200727 1.089 0 .791.292.594 1.162.594 1.818 0 .358.274 4.235-.183 4.309h-.009c-.5627202.0793583-1.133954.0770006-1.696-.007z"/><path id="Path" d="m6.266 39.055v3c0 .758 1.468.543 1.468-.11v-3c0-.758-1.468-.545-1.468.11z"/><path id="Path" d="m52.276 39.194v3c0 .349 1.448.109 1.448-.388v-3c0-.349-1.448-.106-1.448.388z"/><path id="Path" d="m27.142 31.907c7.093-1.358 14.185 3.616 14.122 11.14s-6.8 12.4-14.021 11.021c-.749-.144-1.45.924-.486 1.108 7.9 1.513 15.92-3.684 15.979-12.223.06-8.608-8.032-13.605-15.878-12.1-.921.173-.623 1.227.284 1.054z"/><path id="Path" d="m21.628 34.428c.3658637.0794256.7475688-.0226107 1.025-.274.261-.227.528-.441.807-.644.223-.163.4-.439.109-.633-.3405423-.1421067-.7304195-.0974411-1.03.118-.368.2666667-.7236667.5503333-1.067.851-.248.216-.122.495.156.582z"/><path id="Path" d="m18.969 38.326c.274-.039.707-.159.838-.438.16-.34.331-.673.517-1 .15-.263-.509-.227-.6-.214-.329296.0179533-.6347898.1772621-.838.437-.186.3273333-.3586667.6606667-.518 1-.126.273.495.23.601.215z"/><path id="Path" d="m22.626 51.6c-.445-.388-1.734.27-1.127.8.302.2626667.6143333.512.937.748.478.349 1.771-.328 1.127-.8-.323-.236-.635-.484-.937-.748z"/><path id="Path" d="m19.813 47.806c-.211-.449-1.623.017-1.449.388.159.341.331.673.517 1 .251.443 1.637-.056 1.449-.388s-.358-.659-.517-1z"/><path id="Path" d="m18.766 43.806c-.0451724-.6222724-.0428323-1.2470834.007-1.869.054-.714-1.417-.491-1.464.126-.0513383.7095097-.0486639 1.4218957.008 2.131.046.616 1.499.279 1.449-.388z"/><path id="Path" d="m27.316 48.243c.254.253 1.228-.133 1.4-.375l7-10c.08-.115-1.184-.084-1.428.264l-6.27 8.957-2.332-2.332c-.255-.254-1.57.283-1.368.486z"/></g></g></svg>