<svg height="512" viewBox="0 0 56 60" width="512" xmlns="http://www.w3.org/2000/svg"><g id="019---Chemistry" fill="none"><path id="Path" d="m48.312 15.432c-.1979577.000287-.3774454-.1162431-.4577433-.2971839s-.0462846-.3922183.0867433-.5388161l1.425-1.575-2.743 1.584c-.2187434.1297091-.5000021.0745628-.6535686-.128145s-.1305136-.4883932.0535686-.663855l1.913-1.838-2.352 1.357c-.2162377.1247517-.4913592.0708905-.6445905-.1261931-.1532312-.1970836-.1376138-.4769924.0365905-.6558069l1.954-1.994-1.553.9c-.2160105.1246636-.4908577.0710795-.6442199-.1255968s-.1383361-.4762947.0352199-.6554032l.852-.875c-.1650336-.0820356-.271558-.24820627-.2772036-.43241828-.0056455-.18421201.0905033-.356594.2502036-.44858172l2.079-1.2c.2159307-.12313412.4895276-.06894621.642223.12719707s.1381159.47467342-.034223.65380293l-.28.284 1.591-.918c.216157-.12321136.4900183-.06874356.6425795.12780148s.1373975.47535832-.0355795.65419852l-1.952 2 2.754-1.596c.2190652-.13188932.5023394-.07724227.6566242.12667084s.1298566.49137409-.0566242.66632916l-1.913 1.837 1.936-1.118c.2133584-.1241762.485411-.074054.640507.1180054.1550961.1920593.1468105.4685664-.019507.6509946l-1.426 1.574.5-.285c.1549945-.0985297.351531-.1041539.5119064-.0146489.1603754.0895049.2587712.2597296.2562855.4433739s-.1054527.3511436-.2681919.436275l-3.251 1.877c-.0771814.0455611-.1653807.0690809-.255.068z" fill="#90cf4a"/><path id="Path" d="m35.589 59.454c-.1956032-.0000967-.3731881-.1142453-.4545019-.292146-.0813138-.1779008-.0514226-.3868813.0765019-.534854l1.373-1.589-2.848 1.644c-.2157843.1245835-.4903641.0712785-.6438596-.1249944s-.1390557-.4756061.0338596-.6550056l2.241-2.331-2.827 1.629c-.2184203.1276802-.4977941.0720852-.6506935-.1294872s-.1311343-.4855915.0506935-.6615128l1.7-1.645-1.266.73c-.2154812.1230022-.4885691.0693794-.6415393-.1259712-.1529702-.1953505-.1395447-.4733291.0315393-.6530288l.88-.916c-.1711675-.0769674-.2848189-.2433055-.2943067-.4307415-.0094877-.187436.0867862-.3644002.2493067-.4582585l2.079-1.2c.2154812-.1230022.4885691-.0693794.6415393.1259712.1529702.1953505.1395447.4733291-.0315393.6530288l-.365.38 1.708-.985c.2184203-.1276802.4977941-.0720852.6506935.1294872s.1311343.4855915-.0506935.6615128l-1.7 1.643 2.4-1.382c.2157843-.1245835.4903641-.0712785.6438596.1249944s.1390557.4756061-.0338596.6550056l-2.241 2.334 2.353-1.359c.2113234-.1216732.4795951-.0731604.6349231.1148162.155328.1879765.1524028.4605836-.0069231.6451838l-1.381 1.589.209-.12c.1549945-.0985297.351531-.1041539.5119064-.0146489.1603754.0895049.2587712.2597296.2562855.4433739s-.1054527.3511436-.2681919.436275l-2.773 1.6c-.0747285.0445648-.1599943.068384-.247.069z" fill="#fcc10a"/><path id="Path" d="m3.737 27.316c-.20188761-.0004461-.3836984-.1222616-.46089712-.3088069-.07719871-.1865454-.03463637-.4012141.10789712-.5441931l1.389-1.39-2.384 1.377c-.2155591.1245112-.48987848.0714871-.64350943-.1243861-.15363096-.1958731-.13977262-.4749262.03250943-.6546139l2.343-2.431-2.67 1.541c-.22517188.1281476-.51093281.0630663-.65840563-.14995-.14747281-.2130162-.10780098-.5033971.09140563-.66905l.262-.216c-.17364779.0255674-.34767864-.0438923-.456-.182-.15468497-.1924237-.14576491-.4689456.021-.651l.994-1.086c-.19247679-.0555666-.333204-.2206558-.35759701-.4195023-.024393-.1988466.07225821-.3930556.24559701-.4934977l2.079-1.2c.21350539-.1227461.48459646-.071745.63889852.1201978s.14585892.4676604-.01989852.6498022l-.654.714 2.119-1.222c.22517188-.1281476.51093281-.0630663.65840563.14995.14747281.2130162.10780098.5033971-.09140563.66905l-.085.069.452-.26c.2155591-.1245112.48987848-.0714871.64350943.1243861.15363096.1958731.13977262.4749262-.03250943.6546139l-2.342 2.43 2.607-1.505c.21679873-.1191224.48811736-.0618073.63821498.1348206.15009763.1966279.13385163.473458-.03821498.6511794l-1.387 1.388.742-.427c.15499454-.0985297.35153099-.1041539.51190641-.0146489.16037542.0895049.25877124.2597296.25628554.4433739s-.10545276.3511436-.26819195.436275l-4.034 2.329c-.07580312.044382-.16216154.067526-.25.067z" fill="#ec3a48"/><path id="Path" d="m27.609 38.283c-.2115332-.0008997-.3996111-.1348189-.4696618-.3344185-.0700507-.1995995-.0069144-.4216839.1576618-.5545815l4.2-3.372-5.942 3.431c-.2327102.1415972-.5359455.0708583-.6819808-.1590928-.1460353-.229951-.0811265-.5344876.1459808-.6849072l1.681-1.162-2.225 1.283c-.2290632.1321979-.5214568.063148-.6671806-.1575572-.1457237-.2207053-.094369-.5167199.1171806-.6754428l5.429-4.059-6.228 3.595c-.2299138.1328235-.5235501.0627731-.6687427-.1595365s-.0912979-.5193359.1227427-.6764635l5.35-3.92-5.751 3.323c-.2283835.1299972-.5184238.0610156-.6638282-.1578813-.1454044-.2188968-.0965443-.5129964.1118282-.6731187l6.05-4.584-6.164 3.559c-.2333681.1382671-.5344194.0652417-.6785003-.1645824-.144081-.2298241-.078635-.5326135.1475003-.6824176l.657-.444-.279.16c-.2313261.1333882-.5266402.061466-.670727-.1633522-.1440867-.2248181-.0860887-.5231794.131727-.6776478l2.34-1.661-1.756 1.013c-.228997.1275142-.5175965.0565488-.6613452-.1626219-.1437487-.2191708-.0938504-.5121485.1143452-.6713781l2.132-1.574-1.21.7c-.2208953.136633-.509623.0813788-.6644625-.1271591-.1548394-.208538-.1242214-.5009064.0704625-.6728409l2.379-2.26c-.2361894.0299691-.4607507-.1107583-.5367674-.3363798-.0760167-.2256214.0175984-.4735492.2237674-.5926202l3.348-1.927c.2208953-.136633.509623-.0813788.6644625.1271591.1548394.208538.1242214.5009064-.0704625.6728409l-2.257 2.145 5.273-3.045c.2295527-.1314921.521805-.0614183.6667704.1598726.1449654.2212908.0924688.5172061-.1197704.6751274l-2.139 1.565 3.276-1.89c.2306836-.128482.5215078-.0554404.6641078.1667933s.0878131.5170425-.1251078.6732067l-2.34 1.66 3.112-1.795c.2322377-.1273115.5234633-.0514462.664069.1729923.1406056.2244384.0818101.5195841-.134069.6730077l-.656.445 1.029-.594c.2283835-.1299972.5184238-.0610156.6638282.1578813.1454044.2188968.0965443.5129964-.1118282.6731187l-6.048 4.582 6.772-3.909c.2299138-.1328235.5235501-.0627731.6687427.1595365s.0912979.5193359-.1227427.6764635l-5.35 3.92 5.568-3.215c.2290632-.1321979.5214568-.063148.6671806.1575572.1457237.2207053.094369.5167199-.1171806.6754428l-5.428 4.06 5.321-3.072c.2322938-.1351768.5298928-.0625367.6737842.164462.1438914.2269988.0825928.5271392-.1387842.679538l-1.673 1.161 1.229-.709c.2257509-.1255439.5099711-.0584606.655761.1547765.1457898.2132372.1051519.5024254-.093761.6672235l-4.2 3.37 3.156-1.822c.2208144-.1342809.5075757-.0781561.6614736.1294633s.1242133.4983097-.0684736.6705367l-2.333 2.2c.19147-.011575.3734543.0844294.472.249.1380647.2391402.0561341.5449248-.183.683l-3.335 1.924c-.2208144.1342809-.5075757.0781561-.6614736-.1294633s-.1242133-.4983097.0684736-.6705367l2.179-2.053-5.142 2.969c-.0755486.0441181-.1615132.0672491-.249.067z" fill="#866adc"/><g fill="#262626"><path id="Shape" d="m.267 23.56c.163 3.026 2.926 4.23 5.252 3.727.7 1.012 1.453 2 2.25 2.976-4.888 6.204-9.436 15.561.231 18.428 3.4043491.9170533 6.9763279 1.0228872 10.429.309 2.492 6.332 7.03 12.4 13.985 9.23 2.3 2.152 7.3.995 7.313-2.876.0714898-1.2927387-.6046024-2.5119597-1.739-3.136.525-1.022 1-2.092 1.439-3.183 1.069.175 2.135.32 3.2.4 8.244.65 15.7-3.635 12.042-12.721-1.0535176-2.5520216-2.4624525-4.9423291-4.185-7.1 4.869-5.724 8.179-12.648 2.13-17.171.0806148-.3273702.12356-.6628795.128-1 .052-5.066-7.34-5.053-8.352-.661-1.5475681.0816625-3.0889368.2549663-4.616.519-.346-.882-.715-1.747-1.116-2.584-3.2-6.689-9.858-11.066-15.876-4.86-1.9520555 2.08017211-3.5051865 4.50138886-4.582 7.143-7.492-1.155-16.716-.182-15.764 9.168-1.28478885.6534865-2.11485253 1.9515851-2.169 3.392zm27.833-8.16c1.770381.7065748 3.5000567 1.5111528 5.181 2.41 2.6126768 1.4375171 5.1329259 3.0369702 7.546 4.789.6610352 4.9832514.6986582 10.0294462.112 15.022-2.9257985 2.2362765-6.0428371 4.2105682-9.315 5.9-.69.358-1.416.718-2.16 1.076-4.3714645-1.9024811-8.497305-4.3256737-12.288-7.217-.032-.242-.06-.471-.083-.678-.5487549-4.7985589-.5839541-9.6419723-.105-14.448 3.4237179-2.7106442 7.153122-5.0109804 11.112-6.854zm-11.014 6.077c.3511282-3.0682124 1.0354996-6.0890364 2.041-9.009 2.8854199.7065324 5.7169044 1.6174998 8.473 2.726-3.7077369 1.7341163-7.2303679 3.8391848-10.514 6.283zm12.814-6.877c2.7462339-1.152829 5.6002663-2.0298075 8.52-2.618.8311026 2.3840024 1.4665391 4.8317705 1.9 7.319.071.387.13.779.194 1.17-3.3411168-2.2935309-6.8955574-4.2596248-10.614-5.871zm12.831 9.46c2.262237 1.7809587 4.3375717 3.7872719 6.194 5.988-.9 1.082-1.8 2.054-2.6 2.859-1.174 1.178-2.412 2.294-3.695 3.359.4741519-4.054371.5093557-8.1480742.105-12.21zm-1.896 14.44c-.4208304 3.0727761-1.1453765 6.0962401-2.163 9.026-1.7165261-.3044453-3.4074048-.7390326-5.058-1.3-1.13-.4-2.256-.838-3.376-1.309 3.7049306-1.8400529 7.2496-3.986523 10.597-6.417zm-13.135 6.907c-2.5697784 1.1679096-5.2448267 2.0887235-7.989 2.75-.9617067-2.8488628-1.7028922-5.7674686-2.217-8.73 3.1842919 2.3435783 6.6048864 4.3478067 10.206 5.98zm-12.225-9.4c-2.2698395-1.8797828-4.3644272-3.9616517-6.258-6.22 1.8399793-2.2139492 3.8653091-4.2670462 6.054-6.137-.3245697 4.1171756-.2555905 8.2559271.206 12.36zm-6.692 11.993c-8.383-2.934-4.378-12-.483-17.086 2.2415476 2.6225298 4.7322117 5.0214308 7.437 7.163.2782963 2.0254465.6581078 4.0356435 1.138 6.023.3633413 1.4782035.8124344 2.9339999 1.345 4.36-3.1330625.6585018-6.3828348.5000939-9.437-.46zm26.135 10.444c-1.2993299-.4769055-2.1688774-1.7070068-2.185-3.091.108-1.6 1.229-3.306 3.074-2.893 1.4516329.3728094 2.4628335 1.6862981 2.452 3.185.002 1.744-1.478 3.444-3.341 2.799zm1.969-6.634c-2.392-.524-5.448.837-5.607 3.786 0 .018.012.028.014.045s-.016.034-.015.053c.0268805.7760756.2957597 1.524322.769 2.14-5.913 3.126-9.8-2.634-12.143-9.13 2.9450163-.6994506 5.8133916-1.6892963 8.563-2.955 3.1279941 1.3671995 6.3941704 2.3934534 9.742 3.061-.396 1.022-.844 2.019-1.323 3zm16.7-13.736c3.3 9.723-5.917 10.81-13.643 9.663 1.2287574-3.3950008 2.0857661-6.9132297 2.556-10.493 2.4987042-1.97785 4.8360794-4.1513749 6.99-6.5 1.7681638 2.1948771 3.1520448 4.6732177 4.093 7.33zm-4.949-29.511c1.4947769.20815243 2.6127653 1.4778981 2.63 2.987.0571616 1.5113838-1.1023897 2.7921286-2.612 2.885-1.6165194-.0494025-2.9048552-1.3677715-2.917-2.985-.0322027-.7772151.2632884-1.53226232.8144736-2.08116594.5511852-.54890363 1.3074516-.84126032 2.0845264-.80583406zm-4.329 2.723c-.01.091-.036.171-.041.264.236 4.39 5.886 5 7.818 2.09 4.387 4.213 1.4 10.5-2.214 15.221-2.1876326-2.5981189-4.6654207-4.9373387-7.385-6.972-.4779155-3.4812986-1.3415582-6.8986406-2.575-10.189 1.4553977-.2311562 2.9240337-.3694358 4.397-.414zm-21.469-6.02c4.16-5.708 9.666-3.749 12.933 1.242 1.0207416 1.59291094 1.8612368 3.29436035 2.506 5.073-3.041003.6463865-6.012712 1.5840454-8.874 2.8-2.136486-.9113712-4.3237893-1.6986802-6.551-2.358-.985-.289-2.087-.558-3.252-.783.8271517-2.11803007 1.9148551-4.1248059 3.238-5.974zm-5.116 6.892c-1.2536749 3.4341666-2.052786 7.0175599-2.377 10.659-1.368 1.091-2.681 2.222-3.916 3.389-.9659273.9233524-1.88030973 1.8991611-2.739 2.923-.624-.778-1.21866667-1.5743333-1.784-2.389 1.15600077-.6932286 1.85233385-1.9523515 1.825-3.3.032-2.976-2.534-4.176-4.85-3.768-.783-8.261 6.276-9.055 13.841-7.514zm-14.315 8.55c.032-.013.066-.021.1-.037.35689497-.1350404.74084569-.1830343 1.12-.14 1.50299586.2264174 2.62014668 1.5091505 2.638 3.029.06808977 1.5150002-1.08685348 2.8067598-2.6 2.908-1.63006406-.0630292-2.9223902-1.3967591-2.934-3.028.00959222-1.1507815.65448497-2.2020028 1.676-2.732z"/><path id="Shape" d="m37.728 29.806c-.589-10.939-17.483-10.347-17.449.388.035 11.097 16.879 10.192 17.449-.388zm-14.518-4.557c1.9555629-2.3952322 5.1829671-3.3409625 8.122-2.38 2.9657268 1.2323494 4.9116163 4.113619 4.947 7.325-.0373694 1.7704723-.6486967 3.4809255-1.742 4.874-2.0948458 2.2738154-5.3687519 3.0321711-8.25 1.911-2.7761347-1.3113544-4.5502774-4.1027397-4.559-7.173.0067667-1.636368.5249347-3.2296823 1.482-4.557z"/><path id="Path" d="m25.737 29.946c-.0522705-1.8236545 1.3767617-3.3478067 3.2-3.413.826-.022 1.113-1.093.127-1.066-2.5642531.0116761-4.6720251 2.0259158-4.8 4.587-.015.758 1.456.546 1.473-.108z"/></g></g></svg>