<svg height="501pt" viewBox="0 -2 501.58001 501" width="501pt" xmlns="http://www.w3.org/2000/svg"><path d="m349.265625 194.769531c-1.902344 0-3.5625-1.277343-4.054687-3.113281-.492188-1.832031.308593-3.769531 1.953124-4.71875l78.941407-45.585938c1.847656-1.015624 4.164062-.503906 5.410156 1.199219 1.246094 1.699219 1.035156 4.0625-.492187 5.515625l-20.371094 18.441406 15.445312-8.921874c1.765625-1.011719 4.003906-.613282 5.308594.953124 1.304688 1.5625 1.300781 3.835938-.011719 5.390626l-8.613281 10.242187 3.359375-1.957031c1.488281-.863282 3.355469-.730469 4.707031.335937 1.351563 1.066407 1.914063 2.851563 1.417969 4.5l-2.011719 6.714844c.695313.371094 1.273438.925781 1.675782 1.601563.558593.964843.707031 2.113281.417968 3.1875-.289062 1.074218-.996094 1.992187-1.960937 2.546874l-4.195313 2.417969c-1.488281.855469-3.351562.722657-4.699218-.34375-1.347657-1.066406-1.910157-2.84375-1.421876-4.492187l1.175782-3.960938-15.234375 8.753906c-1.765625 1.011719-4.003907.609376-5.308594-.953124s-1.300781-3.835938.011719-5.394532l8.644531-10.179687-28.652344 16.527343c-1.847656 1.015626-4.164062.503907-5.410156-1.199218-1.246094-1.699219-1.035156-4.0625.492187-5.515625l20.34375-18.40625-44.769531 25.84375c-.636719.371093-1.363281.566406-2.097656.570312zm0 0" fill="#4fc0e8"/><path d="m80.65625 361.941406c-1.875.003906-3.53125-1.238281-4.046875-3.042968-.515625-1.804688.226563-3.730469 1.824219-4.722657l35.679687-22.207031-50.949219 29.375c-1.976562 1.109375-4.472656.445312-5.644531-1.492188-1.167969-1.941406-.585937-4.460937 1.316407-5.691406l174.246093-109.351562-200.621093 115.863281c-1.980469 1.097656-4.476563.421875-5.636719-1.527344-1.15625-1.945312-.5625-4.460937 1.347656-5.679687l118.03125-72.234375-127.144531 73.398437c-1.988282 1.109375-4.5.429688-5.65625-1.53125-1.160156-1.960937-.539063-4.488281 1.390625-5.695312l33.851562-20.402344-35 20.21875c-1.996093 1.179688-4.570312.519531-5.75-1.476562-1.179687-1.996094-.519531-4.570313 1.476563-5.75l79.941406-48.445313-78.296875 45.179687c-1.988281 1.191407-4.566406.546876-5.757813-1.441406-1.191406-1.992187-.542968-4.570312 1.445313-5.757812l198.460937-123.292969-194.207031 112.121094c-1.972656 1.050781-4.425781.371093-5.578125-1.546875-1.148437-1.921875-.589844-4.40625 1.273438-5.648438l187.636718-116.191406-183.332031 105.84375c-1.972656 1.039062-4.417969.351562-5.5625-1.566406-1.140625-1.917969-.582031-4.394532 1.273438-5.636719l147.640625-90.515625-143.351563 82.761719c-1.980469 1.09375-4.476562.417969-5.636719-1.527344-1.15625-1.949219-.5625-4.464844 1.347657-5.683594l146.886719-90.027343-142.597657 82.304687c-1.972656 1.054687-4.425781.375-5.578125-1.546875-1.148437-1.917969-.589844-4.402344 1.273438-5.644531l191.371094-118.9375-187.066407 107.984375c-2.003906 1.179687-4.585937.507812-5.765625-1.496094-1.179687-2.003906-.511718-4.585938 1.496094-5.765625l36.855469-22.257813-32.585938 18.839844c-1.972656 1.042969-4.417969.355469-5.5625-1.5625-1.140625-1.917968-.582031-4.398437 1.273438-5.636718l123.585937-76.0625-119.296875 68.878906c-1.984375 1.078125-4.464843.390625-5.617187-1.550782-1.148438-1.945312-.554688-4.449218 1.347656-5.667968l55.847656-34.046875-51.585937 29.78125c-1.980469 1.058593-4.441407.371093-5.585938-1.558594s-.570312-4.417969 1.304688-5.652344l41.28125-25.179687-37 21.386718c-1.980469 1.144532-4.515625.488282-5.691407-1.472656-1.179687-1.960937-.570312-4.507812 1.371094-5.71875l120.753906-75.902344-116.433593 67.253907c-1.96875 1.039062-4.410157.359375-5.554688-1.550781-1.148437-1.910157-.601562-4.382813 1.242188-5.632813l78.460937-48.917969-74.148437 42.808594c-1.972657 1.027344-4.402344.335938-5.539063-1.570312-1.140625-1.90625-.597656-4.375 1.242188-5.625l33.347656-20.636719-29.050781 16.785156c-1.96875 1.144531-4.492188.511719-5.6875-1.433594-1.191407-1.941406-.613281-4.480469 1.296875-5.71875l111.398437-72.828125-107.007812 61.765625c-1.964844 1.140625-4.476563.511719-5.671875-1.421875-1.195313-1.929687-.636719-4.460937 1.257812-5.710937l94.007813-62.261719-89.59375 51.695312c-1.96875 1.050782-4.417969.378907-5.570313-1.535156-1.152344-1.910156-.609375-4.390625 1.238282-5.640625l9.03125-5.699219-4.699219 2.703126c-1.945313 1.054687-4.378907.417968-5.554688-1.457032-1.179687-1.875-.699219-4.34375 1.097657-5.636718l67.289062-45.796876-62.832031 36.269532c-1.964844 1.140625-4.476563.507812-5.671875-1.421875-1.195313-1.929688-.636719-4.460938 1.257812-5.710938l27.699219-18.359375-23.285156 13.390625c-1.9375 1.0625-4.367188.441407-5.558594-1.421875-1.1875-1.863281-.730469-4.328125 1.050781-5.636718l37.160156-26.023438-32.652343 18.8125c-1.9375 1.121094-4.414063.527344-5.628907-1.355469-1.214843-1.878906-.738281-4.382812 1.082032-5.6875l24.765625-17.785156-20.21875 11.675781c-1.921875 1.109375-4.375.527344-5.597657-1.324218-1.226562-1.851563-.792968-4.335938.980469-5.667969l14.867188-11.097657-10.242188 5.875c-1.863281 1.046876-4.214843.527344-5.460937-1.207031-1.25-1.738281-.992188-4.132812.59375-5.566406l14.722656-12.816406-9.863281 5.691406c-1.75 1.007813-3.972657.625-5.285157-.914063-1.3125-1.539062-1.339843-3.792968-.070312-5.363281l8.511719-10.484375c-1.863281-.082031-3.449219-1.386718-3.890625-3.199218-.441406-1.816407.367187-3.703126 1.984375-4.632813l16.226562-9.367187c1.75-1.019532 3.984375-.636719 5.300781.902343 1.316407 1.542969 1.34375 3.804688.0625 5.378907l-7.363281 9.03125 27.707031-15.949219c1.859376-.988281 4.164063-.449219 5.390626 1.265625 1.222656 1.714844.984374 4.070312-.554688 5.507812l-14.695312 12.824219 34-19.597656c1.921874-1.109375 4.375-.53125 5.601562 1.324219 1.222656 1.851562.789062 4.335937-.984375 5.667968l-14.890625 11.105469 31.375-18.097656c1.9375-1.125 4.414062-.527344 5.628906 1.351562 1.214844 1.882813.742188 4.386719-1.078125 5.691407l-24.746093 17.792968 43.050781-24.835937c1.9375-1.0625 4.367187-.441407 5.558593 1.421875 1.1875 1.859375.730469 4.328125-1.050781 5.636718l-37.132812 26.011719 57.316406-33.070312c1.960937-1.113281 4.453125-.480469 5.640625 1.433593 1.191406 1.917969.652344 4.429688-1.214844 5.691407l-27.632812 18.316406 44.117187-25.441406c1.945313-1.058594 4.378907-.421875 5.554688 1.453125 1.179687 1.875.699219 4.34375-1.097657 5.640625l-67.308593 45.785156 91.640625-52.878906c1.972656-1.085938 4.449218-.421875 5.613281 1.507812 1.164063 1.925781.601563 4.425781-1.273437 5.667969l-9.074219 5.734375 22.359375-12.910156c1.957031-1.082031 4.417968-.4375 5.597656 1.464843 1.175781 1.898438.65625 4.390626-1.179688 5.660157l-93.949218 62.230469 120.175781-69.355469c1.964844-1.117188 4.464844-.476563 5.648437 1.449219 1.1875 1.925781.632813 4.441406-1.25 5.695312l-111.421874 72.792969 138.542968-79.9375c1.972656-1.054688 4.425782-.375 5.578125 1.546875 1.148438 1.921875.589844 4.40625-1.273437 5.644531l-33.40625 20.65625 48.253906-27.847656c1.972656-1.070313 4.4375-.394531 5.59375 1.527343 1.160156 1.921876.597656 4.414063-1.269531 5.65625l-78.523438 48.933594 97.257813-56.117187c1.972656-1.070313 4.4375-.394531 5.59375 1.527343 1.15625 1.921876.597656 4.414063-1.273438 5.65625l-120.707031 75.777344 143.789063-82.960937c1.984374-1.097657 4.480468-.421875 5.636718 1.527343 1.160156 1.949219.5625 4.464844-1.347656 5.683594l-41.234375 25.179688 56.023437-32.390625c1.976563-1.027344 4.414063-.332031 5.546876 1.582031 1.136718 1.917969.578124 4.386719-1.273438 5.628906l-55.875 34.035156 71.488281-41.246093c1.976563-1.074219 4.449219-.394531 5.601563 1.539062 1.15625 1.933594.578125 4.429688-1.304688 5.664063l-123.519531 75.992187 141.839844-81.894531c1.984375-1.078125 4.46875-.394531 5.617187 1.550781 1.152344 1.941407.558594 4.449219-1.34375 5.667969l-36.929687 22.292969 42.34375-24.449219c1.988281-1.191406 4.566406-.546875 5.757812 1.441406 1.191407 1.988282.546875 4.566406-1.445312 5.757813l-191.367188 118.945312 194.683594-112.363281c1.289063-.769531 2.886719-.789062 4.195313-.058594 1.3125.730469 2.128906 2.105469 2.152343 3.605469.019531 1.5-.761719 2.894531-2.050781 3.664063l-146.882812 90.050781 143.609374-82.933594c1.984376-1.097656 4.480469-.421875 5.640626 1.527344 1.15625 1.945312.558593 4.460937-1.351563 5.683593l-147.75 90.570313 143.53125-82.832031c1.980469-1.117188 4.492187-.453125 5.660156 1.5s.566407 4.484375-1.355469 5.699218l-187.652343 116.167969 183.328125-105.84375c1.984375-1.117187 4.496094-.449219 5.664062 1.503907 1.167969 1.953124.566406 4.480468-1.355468 5.699218l-198.480469 123.308594 194.199219-112.121094c1.984374-1.078125 4.464843-.394531 5.617187 1.550782 1.148437 1.941406.554687 4.449218-1.347656 5.667968l-79.734375 48.335938 75.480468-43.585938c1.988282-1.109375 4.5-.425781 5.65625 1.535156 1.15625 1.960938.539063 4.488282-1.390624 5.691407l-33.777344 20.371093 29.527344-17.046874c1.996093-1.183594 4.570312-.527344 5.753906 1.464843 1.183594 1.992188.53125 4.570313-1.464844 5.753907l-118.152344 72.308593 113.890625-65.753906c1.976563-1.105469 4.476563-.445313 5.644531 1.496094 1.167969 1.941406.589844 4.457031-1.316406 5.6875l-174.195312 109.308593 73.746094-42.554687c1.988281-1.191406 4.566406-.546875 5.761718 1.441406 1.191406 1.988281.546875 4.566407-1.441406 5.761719l-35.773438 22.25 26.699219-15.410156c1.976563-1.105469 4.476563-.445313 5.648438 1.496094 1.167969 1.9375.585937 4.457031-1.316407 5.6875l-37.769531 23.761718 33.488281-19.304687c1.960938-1.113281 4.453126-.480469 5.640626 1.4375 1.191406 1.914062.652343 4.429687-1.214844 5.691406l-88.644532 59.171875 84.253907-48.632812c1.949219-1.082032 4.402343-.453126 5.589843 1.433593s.695313 4.371094-1.125 5.660157l-73.980468 50.527343 69.53125-40.144531c1.953125-1.113281 4.433594-.496094 5.632812 1.40625 1.199219 1.898438.6875 4.40625-1.160156 5.6875l-48.863281 33.40625 44.425781-25.652344c1.929688-1.097656 4.382812-.5 5.59375 1.359375 1.210938 1.863281.757812 4.347657-1.027344 5.667969l-46.457031 33.714844 41.890625-24.191406c1.945312-1.097657 4.414062-.476563 5.609375 1.410156 1.195313 1.890625.699219 4.386718-1.128906 5.675781l-5.136719 3.523437.671875-.382812c1.894531-1.125 4.335937-.59375 5.589844 1.21875 1.253906 1.808594.894531 4.28125-.820313 5.660156l-26.199218 21.480469 21.464843-12.378906c1.84375-.980469 4.125-.453125 5.355469 1.234375s1.03125 4.023437-.464844 5.480468l-12.1875 10.910157 7.320313-4.195313c1.769531-1.023437 4.019531-.621094 5.328125.949219 1.304687 1.574219 1.289062 3.859375-.039063 5.410156l-5.085937 5.925781c1.523437-.777343 3.367187-.550781 4.65625.570313 1.292968 1.125 1.773437 2.917969 1.21875 4.535156l-1.679688 4.875c1.222656.796875 1.945313 2.167969 1.910156 3.628907-.039062 1.457031-.832031 2.792968-2.09375 3.523437l-4.199218 2.417969c-1.511719.871094-3.40625.714844-4.757813-.394532-1.347656-1.109374-1.871093-2.9375-1.308593-4.59375l.546874-1.59375-11.410156 6.582032c-1.765625 1-3.996094.59375-5.292968-.96875-1.300782-1.5625-1.292969-3.832032.015624-5.386719l5.035157-5.925781-21.210938 12.253906c-1.84375.980469-4.125.453125-5.355469-1.234375-1.230468-1.6875-1.03125-4.023437.464844-5.480469l12.195313-10.910156-30.585938 17.625c-1.890625 1.078125-4.289062.53125-5.527343-1.257812-1.238282-1.789063-.90625-4.226563.765624-5.613282l26.171876-21.472656-49.109376 28.34375c-1.945312 1.101562-4.414062.480469-5.609374-1.410156-1.195313-1.890625-.699219-4.382813 1.128906-5.671875l5.125-3.519531-18.386719 10.601562c-1.933594 1.097656-4.386719.503906-5.59375-1.359375-1.210937-1.863281-.761719-4.347656 1.027344-5.664063l46.457031-33.75-70.640625 40.773438c-1.949219 1.117188-4.433594.496094-5.632813-1.402344-1.199218-1.902344-.6875-4.410156 1.160157-5.6875l48.824219-33.382812-70.101563 40.472656c-1.949219 1.085938-4.402344.457031-5.589844-1.429688-1.1875-1.886718-.695312-4.375 1.125-5.660156l74.003907-50.546875-99.839844 57.636719c-1.957032 1.097656-4.429688.460938-5.613282-1.441406-1.1875-1.902344-.664062-4.402344 1.183594-5.675782l88.625-59.164062-114.824218 66.308594c-1.96875 1.050781-4.417969.378906-5.570313-1.535156-1.152344-1.910157-.609375-4.390626 1.242187-5.640626l37.851563-23.796874-53.667969 30.945312c-.632812.382812-1.355468.585938-2.097656.597656zm0 0" fill="#4fc0e8"/><path d="m178.625 446.066406c-1.804688 0-3.410156-1.152344-3.980469-2.867187-.570312-1.714844.019531-3.601563 1.464844-4.683594l46.910156-34.65625-69.371093 40.035156c-1.9375 1.0625-4.371094.441407-5.558594-1.421875-1.191406-1.859375-.730469-4.328125 1.050781-5.636718l39.027344-27.355469-34.519531 19.925781c-1.898438 1.058594-4.289063.496094-5.515626-1.300781-1.222656-1.792969-.875-4.226563.804688-5.605469l41.085938-32.777344-36.375 20.984375c-1.925782 1.109375-4.378907.53125-5.601563-1.324219-1.222656-1.851562-.792969-4.335937.984375-5.667968l9.347656-7.007813-4.730468 2.726563c-1.816407 1.035156-4.117188.574218-5.398438-1.078125-1.28125-1.652344-1.148438-3.996094.308594-5.492188l15.394531-15.671875-10.304687 5.976563c-1.425782.820312-3.199219.730469-4.535157-.222657-1.335937-.957031-1.992187-2.605468-1.679687-4.21875l2.78125-14.074218c-.972656-.320313-1.789063-.992188-2.292969-1.878906-1.152344-2.003907-.472656-4.5625 1.527344-5.726563l4.199219-2.425781c1.421874-.816406 3.195312-.730469 4.53125.226562 1.335937.953125 1.992187 2.601563 1.679687 4.214844l-2.410156 12.210938 28.972656-16.71875c1.816406-1.035157 4.117187-.574219 5.398437 1.078124 1.277344 1.652344 1.144532 3.996094-.3125 5.492188l-15.382812 15.664062 38.609375-22.300781c1.921875-1.085937 4.351563-.496093 5.566406 1.34375 1.214844 1.84375.796875 4.308594-.957031 5.648438l-9.292969 7.007812 24.339844-14.042969c1.898437-1.058593 4.289063-.496093 5.515625 1.300782 1.222656 1.796875.875 4.226562-.804688 5.605468l-41.128906 32.796876 68.824219-39.761719c1.945313-1.101563 4.410156-.488281 5.609375 1.394531 1.203125 1.882812.71875 4.375-1.101562 5.671875l-39.027344 27.355469 50.964844-29.378906c1.925781-1.101563 4.378906-.515626 5.59375 1.34375 1.21875 1.855468.777343 4.339843-1.003907 5.667968l-46.859375 34.621094 42.320313-24.433594c1.9375-1.105468 4.402343-.5 5.609375 1.375 1.207031 1.878906.734375 4.371094-1.078125 5.675782l-14.09375 9.980468 9.613281-5.546875c1.921875-1.09375 4.363281-.507812 5.578125 1.34375 1.21875 1.847657.789063 4.324219-.980469 5.65625l-9.164062 6.8125 4.597656-2.652343c1.800781-1.042969 4.09375-.609376 5.386719 1.019531 1.296875 1.628906 1.203125 3.957031-.214844 5.476562l-17.039063 18.199219 11.917969-6.875c1.425781-.820312 3.195313-.730469 4.53125.226562 1.339844.953126 1.992188 2.601563 1.679688 4.214844l-2.710938 13.738282c.972657.320312 1.789063.992187 2.292969 1.882812 1.152344 2.003906.464844 4.5625-1.539062 5.722656l-4.195313 2.425782c-1.425781.820312-3.195313.730468-4.53125-.222657-1.335937-.957031-1.992187-2.605469-1.679687-4.21875l2.351562-11.875-28.386719 16.382813c-1.800781 1.03125-4.082031.59375-5.371093-1.03125-1.292969-1.621094-1.203126-3.945313.207031-5.464844l17.039062-18.207031-42.890625 24.761719c-1.921875 1.09375-4.367187.507812-5.582031-1.34375-1.214844-1.847657-.785156-4.324219.984375-5.65625l9.191406-6.832032-24 13.867188c-1.9375 1.136718-4.433594.542968-5.652344-1.347656-1.21875-1.890626-.726562-4.40625 1.113282-5.703126l14.058594-9.980468-29.578126 17.074218c-.648437.375-1.382812.570313-2.132812.558594zm0 0" fill="#365972"/><path d="m149.8125 496.234375c-1.808594 0-3.410156-1.15625-3.984375-2.867187-.570313-1.714844.019531-3.601563 1.464844-4.683594l12.648437-9.59375-28.730468 16.550781c-1.84375.976563-4.128907.449219-5.355469-1.238281-1.230469-1.6875-1.035157-4.019532.460937-5.476563l25.5-22.714843-51.058594 29.429687c-1.890624 1.101563-4.3125.558594-5.558593-1.242187-1.246094-1.800782-.898438-4.257813.800781-5.640626l20.882812-16.964843-40.640624 23.4375c-1.9375 1.121093-4.414063.527343-5.628907-1.355469-1.214843-1.878906-.742187-4.382812 1.078125-5.6875l.621094-.445312-2.199219 1.257812c-1.898437 1.078125-4.304687.519531-5.535156-1.28125-1.230469-1.804688-.875-4.25.820313-5.625l10.785156-8.628906-6.480469 3.734375c-1.707031.980469-3.863281.640625-5.1875-.8125-1.324219-1.449219-1.464844-3.628907-.335937-5.238281l10.738281-15.167969c-2.03125.953125-4.449219.144531-5.496094-1.835938s-.355469-4.433593 1.574219-5.574219l16.226562-9.367187c1.703125-.980469 3.859375-.644531 5.1875.804687 1.324219 1.449219 1.46875 3.625.34375 5.238282l-10.730468 15.140625 37.933593-21.878907c1.898438-1.078124 4.304688-.523437 5.535157 1.28125 1.230468 1.800782.875 4.25-.820313 5.625l-10.777344 8.621094 26.953125-15.554687c1.9375-1.121094 4.414063-.527344 5.628906 1.355469 1.214844 1.878906.738282 4.382812-1.082031 5.6875l-.613281.4375 12.988281-7.496094c1.890625-1.101563 4.3125-.5625 5.558594 1.238281 1.246094 1.804687.898437 4.261719-.800781 5.644531l-20.839844 16.996094 41.410156-23.90625c1.863282-1.074219 4.238282-.566406 5.5 1.175781 1.261719 1.742188 1 4.15625-.605468 5.589844l-25.5 22.738281 51.125-29.511718c1.917968-1.089844 4.351562-.511719 5.574218 1.324218 1.21875 1.839844.808594 4.308594-.941406 5.652344l-12.648438 9.585938 28.789063-16.605469c1.898437-1.058594 4.289063-.492188 5.515625 1.300781 1.222656 1.796875.875 4.230469-.804688 5.609375l-18.96875 15.109375 38.230469-22.066406c1.875-1.082032 4.265625-.558594 5.519531 1.207031 1.25 1.765625.953126 4.195313-.683593 5.605469l-24.125 20.707031 47.742187-27.554687c1.90625-1.082032 4.328125-.515626 5.554688 1.304687 1.222656 1.820313.839844 4.277344-.878906 5.636719l-16.382813 12.757812 34.160156-19.726562c1.917969-1.097656 4.363281-.519532 5.585938 1.324218 1.222656 1.847657.800781 4.324219-.960938 5.660157l-11.589843 8.730469 22.9375-13.238282c1.847656-1.015625 4.164062-.503906 5.410156 1.199219 1.246094 1.699219 1.035156 4.0625-.492188 5.515625l-23.492187 21.3125 18.550781-10.703125c1.847656-1.074219 4.210938-.582031 5.484375 1.140625 1.269531 1.722656 1.039063 4.125-.535156 5.574219l-5.277344 4.886719 1.476563-.839844c1.34375-.777344 3.011718-.75 4.328124.074218 1.316407.828126 2.070313 2.3125 1.957032 3.863282l-.839844 11.640625 2.738281-1.578125c1.3125-.773438 2.941407-.773438 4.253907 0l7.363281 4.414062c2.015625-.378906 4.011719.75 4.71875 2.679688.707031 1.925781-.082031 4.078125-1.867188 5.09375l-1.046875.597656c-1.320312.75-2.941406.730469-4.238281-.050781l-7.128906-4.265625-7.460938 4.296875c-1.34375.78125-3.003906.753906-4.320312-.066407-1.320313-.824218-2.078125-2.308593-1.964844-3.859374l.839844-11.652344-26.996094 15.613281c-1.851563 1.074219-4.214844.585937-5.484375-1.140625-1.269531-1.722656-1.039062-4.125.535156-5.574219l5.269532-4.886719-20.078126 11.601563c-1.847656 1.015625-4.160156.503906-5.40625-1.199219-1.246093-1.699218-1.039062-4.0625.488282-5.515625l23.503906-21.304687-48.609375 28.019531c-1.917969 1.097656-4.363281.519531-5.585937-1.324219-1.21875-1.84375-.800782-4.320312.960937-5.660156l11.59375-8.730469-27.230469 15.714844c-1.90625 1.082031-4.328125.511719-5.550781-1.304687-1.226563-1.820313-.84375-4.277344.875-5.636719l16.386719-12.75-34.121094 19.691406c-1.871094 1.074219-4.257812.554687-5.507812-1.207031-1.253907-1.761719-.964844-4.183594.664062-5.601563l24.132812-20.722656-47.691406 27.53125c-1.898437 1.078125-4.308594.519531-5.539062-1.285156-1.230469-1.800781-.875-4.246094.820312-5.625l18.96875-15.105469-38.1875 22.015625c-.632812.382813-1.359375.589844-2.097656.59375zm0 0" fill="#457393"/><path d="m354.308594 496.234375c-1.78125.003906-3.367188-1.117187-3.964844-2.792969-.59375-1.679687-.0625-3.550781 1.320312-4.667968l9.863282-7.980469-19.136719 11.042969c-1.800781 1.046874-4.097656.609374-5.390625-1.019532-1.292969-1.632812-1.199219-3.964844.226562-5.484375l15.949219-16.929687-21.144531 12.195312c-1.839844 1.066406-4.183594.585938-5.457031-1.117187-1.277344-1.703125-1.074219-4.089844.464843-5.554688l2.457032-2.339843c-1.453125.582031-3.113282.300781-4.296875-.722657-1.1875-1.023437-1.703125-2.621093-1.34375-4.148437l2.34375-9.851563c-1.472657-.617187-2.46875-2.011719-2.570313-3.601562-.105468-1.589844.703125-3.105469 2.082032-3.902344l4.199218-2.425781c1.449219-.84375 3.265625-.738282 4.609375.265625 1.347657 1 1.964844 2.710937 1.574219 4.339843l-1.820312 7.648438 21.300781-12.296875c1.855469-1.167969 4.296875-.710937 5.605469 1.046875 1.308593 1.757812 1.042968 4.226562-.609376 5.667969l-2.351562 2.222656 15.503906-8.960937c1.800782-1.03125 4.085938-.59375 5.375 1.035156 1.289063 1.625 1.195313 3.949218-.222656 5.46875l-15.945312 16.921875 40.65625-23.503907c1.894531-1.066406 4.289062-.511718 5.519531 1.28125 1.230469 1.792969.890625 4.226563-.785157 5.609376l-9.894531 8.007812 25.859375-14.921875c1.796875-1.042969 4.089844-.613281 5.386719 1.011719 1.292969 1.625 1.207031 3.953125-.207031 5.476562l-19.648438 21.210938 48.042969-27.699219c1.808594-1.046875 4.113281-.597656 5.402344 1.046875 1.289062 1.648438 1.167969 3.992188-.28125 5.5l-19.523438 20.277344 46.523438-26.859375c1.839843-1.105469 4.214843-.648438 5.511719 1.0625 1.292968 1.714843 1.089843 4.125-.476563 5.59375l-18.566406 17.746093 16.636719-9.59375c1.757812-1.007812 3.980468-.613281 5.289062.929688 1.308594 1.546875 1.324219 3.804688.039062 5.371094l-8.265624 10.023437c1.808593.183594 3.292968 1.511719 3.675781 3.292969.382812 1.777344-.421875 3.601562-1.996094 4.511719l-16.148437 9.324219c-1.757813 1.019531-3.992188.628906-5.304688-.917969-1.3125-1.550781-1.328125-3.816407-.035156-5.382813l6.824218-8.269531-26.414062 15.21875c-1.839844 1.105469-4.21875.648437-5.511719-1.0625-1.296875-1.710937-1.089843-4.125.476563-5.59375l18.464844-17.777344-42.277344 24.433594c-1.808594 1.03125-4.101563.582031-5.386719-1.058594s-1.171875-3.972656.265625-5.480469l19.523438-20.269531-46.449219 26.808594c-1.796875 1.019531-4.066407.582031-5.351563-1.03125-1.289062-1.613281-1.210937-3.925781.179688-5.449219l19.667968-21.203125-47.945312 27.699219c-.636719.375-1.359375.574219-2.097656.578125zm0 0" fill="#365972"/><path d="m345.183594 454.511719c-1.847656 0-3.476563-1.210938-4.011719-2.980469s.148437-3.683594 1.6875-4.707031l41.210937-27.457031-54.160156 31.257812c-1.964844 1.066406-4.417968.40625-5.582031-1.496094-1.167969-1.90625-.636719-4.390625 1.207031-5.652344l25.097656-16.199218-20.722656 11.957031c-1.972656 1.125-4.476562.476563-5.660156-1.457031-1.179688-1.9375-.613281-4.460938 1.285156-5.699219l29.46875-19.078125-25.09375 14.476562c-1.953125 1.066407-4.402344.421876-5.578125-1.46875-1.171875-1.890624-.667969-4.367187 1.152344-5.648437l59.789063-39.894531-55.398438 31.953125c-1.949219 1.085937-4.402344.457031-5.589844-1.429688s-.695312-4.375 1.125-5.660156l75.3125-51.394531-70.8125 40.902344c-1.964844 1.164062-4.5.546874-5.707031-1.394532-1.207031-1.9375-.640625-4.488281 1.273437-5.734375l61.84375-41.378906-57.410156 33.15625c-1.957031 1.113281-4.441406.488281-5.636718-1.421875-1.195313-1.90625-.671876-4.417969 1.1875-5.6875l69.246093-46.804688-64.796875 37.402344c-1.972656 1.121094-4.476562.476563-5.660156-1.460937-1.179688-1.933594-.613281-4.457031 1.285156-5.699219l26.609375-17.1875-22.234375 12.832031c-1.957031 1.113281-4.441406.488281-5.636718-1.417969-1.195313-1.910156-.671876-4.417968 1.1875-5.691406l69.378906-46.910156-64.929688 37.484375c-1.960937 1.117187-4.453125.480469-5.640625-1.433594-1.191406-1.917969-.652343-4.429687 1.214844-5.691406l41.171875-27.480469-36.746094 21.210938c-1.953125 1.066406-4.402344.421875-5.578125-1.46875-1.171875-1.890625-.667969-4.371094 1.152344-5.648438l18.800781-12.515625-14.375 8.300781c-1.929687 1.113282-4.394531.527344-5.613281-1.339843-1.21875-1.863281-.765625-4.359375 1.027344-5.675781l39.820312-29.253907-35.253906 20.339844c-1.902344 1.054687-4.296875.480469-5.515625-1.324219-1.214844-1.804687-.851562-4.242187.84375-5.609375l27.519531-21.519531-22.828125 13.183594c-1.878906 1.085937-4.273437.5625-5.527344-1.210938-1.25-1.769531-.949218-4.203125.699219-5.613281l15.949219-13.636719-11.089844 6.402344c-1.78125 1.03125-4.046875.617188-5.347656-.972656-1.304688-1.59375-1.261719-3.898438.101562-5.441406l8.621094-9.757813-3.355468 1.945313c-1.480469.851562-3.328126.71875-4.675782-.332032-1.34375-1.050781-1.917968-2.808594-1.453125-4.453125l2.113281-7.425781c-1.367187-.703125-2.242187-2.09375-2.28125-3.632812-.035156-1.535157.765626-2.96875 2.097657-3.738282l4.199219-2.425781c1.476562-.851563 3.324218-.726563 4.671874.324219 1.347657 1.046875 1.925782 2.808594 1.460938 4.453125l-1.359375 4.773437 16.621094-9.585937c1.777343-1.019531 4.035156-.601563 5.332031.984375 1.300781 1.585937 1.261719 3.878906-.085938 5.421875l-8.613281 9.761719 28.066407-16.207032c1.878906-1.082031 4.265624-.558594 5.519531 1.207032 1.25 1.765624.957031 4.195312-.683594 5.605468l-15.949219 13.65625 35.53125-20.503906c1.902344-1.054688 4.300782-.480469 5.515625 1.324219 1.21875 1.804687.851563 4.242187-.839843 5.609375l-27.515626 21.519531 49.355469-28.496094c1.929688-1.113281 4.394531-.523437 5.613281 1.339844 1.21875 1.867187.765626 4.359375-1.03125 5.679687l-39.835937 29.25 62.867187-36.292968c1.960938-1.117188 4.453126-.480469 5.640626 1.433594 1.191406 1.917968.652343 4.429687-1.21875 5.691406l-18.839844 12.53125 34.109375-19.691406c1.964843-1.164063 4.5-.546876 5.707031 1.394531 1.207031 1.9375.640625 4.488281-1.273438 5.734375l-41.214843 27.519531 55.617187-32.105469c1.953125-1.113281 4.441406-.484375 5.632813 1.421875 1.195312 1.90625.671875 4.417969-1.183594 5.6875l-69.296875 46.820313 64.855469-37.445313c1.960937-1.0625 4.417969-.40625 5.582031 1.5s.632812 4.390625-1.210938 5.652344l-26.714843 17.273437 22.359375-12.90625c1.957031-1.117187 4.441406-.488281 5.636718 1.417969 1.195313 1.90625.667969 4.417969-1.1875 5.691407l-69.238281 46.800781 64.773438-37.394531c1.957031-1.097657 4.429687-.460938 5.613281 1.445312 1.1875 1.902344.664062 4.402344-1.183594 5.671875l-61.851562 41.382813 57.4375-33.15625c1.957031-1.132813 4.457031-.515626 5.660156 1.394531 1.203125 1.914062.675781 4.4375-1.195312 5.707031l-75.347657 51.417969 70.898438-40.953125c1.957031-1.09375 4.429687-.460938 5.617187 1.445312 1.183594 1.902344.664063 4.402344-1.183594 5.671875l-59.726562 39.886719 55.3125-31.894531c1.964844-1.097657 4.449219-.449219 5.625 1.472656 1.175781 1.917969.628906 4.425781-1.246094 5.679687l-29.425781 19.0625 25.054687-14.472656c1.976563-1.210937 4.558594-.585937 5.769532 1.390625 1.210937 1.976563.589844 4.558594-1.386719 5.769531l-25.222656 16.273438 20.855469-12.042969c1.964843-1.167969 4.5-.546875 5.707031 1.390625 1.207031 1.941406.640625 4.488282-1.273438 5.734375l-41.210937 27.457031 36.796875-21.246093c1.925781-1.101563 4.378906-.515625 5.59375 1.34375 1.21875 1.855469.777343 4.339843-1.003907 5.664062l-57.496093 42.515625 52.929687-30.59375c1.90625-1.097656 4.335938-.539062 5.570313 1.28125 1.230469 1.824219.847656 4.289063-.878907 5.648438l-39.449218 30.839844 34.773437-20.078126c1.917969-1.117187 4.375-.542968 5.605469 1.304688s.808594 4.332031-.964844 5.671875l-12.6875 9.632813 8.066406-4.648438c1.882813-1.097656 4.296876-.570312 5.546876 1.214844 1.253906 1.789062.929687 4.238281-.746094 5.632812l-8.570313 7.210938 3.777344-2.183594c1.601563-.941406 3.636719-.714844 4.996094.558594 1.359375 1.269531 1.714843 3.285156.878906 4.949218l-6.714844 13.429688.839844-.503906c1.296875-.761719 2.90625-.769532 4.210937-.019532 1.304688.75 2.109376 2.144532 2.105469 3.648438 0 1.507812-.8125 2.894531-2.121093 3.640625l-12.949219 7.46875c-1.605469.945313-3.640625.71875-5-.554687-1.359375-1.273438-1.714844-3.289063-.878907-4.949219l6.714844-13.429688-32.882812 18.992188c-1.882813 1.09375-4.289063.566406-5.542969-1.214844-1.25-1.78125-.933594-4.222656.734375-5.625l8.59375-7.226563-24.417969 14.09375c-1.917969 1.113282-4.375.542969-5.601562-1.304687-1.230469-1.847656-.808594-4.332031.960937-5.671875l12.707032-9.644531-28.863282 16.652343c-1.90625 1.078126-4.320312.507813-5.542968-1.304687-1.226563-1.8125-.851563-4.261719.859374-5.628906l39.449219-30.886719-65.605469 37.871094c-1.925781 1.105468-4.378906.515625-5.59375-1.339844-1.21875-1.859375-.777343-4.34375 1.003907-5.667969l57.496093-42.503906-85.816406 49.597656c-.644531.382813-1.378906.585938-2.132812.585938zm0 0" fill="#3aadd9"/><path d="m334.507812 236.28125c-1.671874.003906-3.1875-.992188-3.851562-2.527344s-.355469-3.316406.789062-4.539062l19.714844-21.042969-21.257812 12.273437c-1.765625 1.011719-4 .617188-5.308594-.941406s-1.308594-3.828125-.007812-5.386718l8.042968-9.5625c-1.761718-.265626-3.164062-1.617188-3.496094-3.367188-.332031-1.75.476563-3.519531 2.019532-4.414062l16.222656-9.367188c1.761719-1.011719 4-.617188 5.308594.941406 1.304687 1.558594 1.308594 3.828125.003906 5.386719l-6.3125 7.515625 25.113281-14.488281c1.800781-1.042969 4.09375-.609375 5.390625 1.015625 1.292969 1.628906 1.203125 3.960937-.21875 5.480468l-19.722656 21.027344 47.714844-27.523437c1.882812-1.074219 4.273437-.542969 5.515625 1.234375 1.246093 1.773437.9375 4.203125-.714844 5.605468l-13.195313 11.113282 31.105469-17.953125c1.867188-1.0625 4.230469-.546875 5.484375 1.195312 1.253906 1.738281.992188 4.148438-.605468 5.578125l-15.789063 13.941406 35.898437-20.714843c1.910157-1.089844 4.339844-.519531 5.566407 1.304687 1.226562 1.828125.832031 4.289063-.898438 5.644532l-4.238281 3.273437 17.097656-9.871094c1.878906-1.074219 4.269532-.539062 5.515625 1.234375 1.246094 1.773438.933594 4.203125-.714843 5.605469l-12.589844 10.578125 21.132812-12.195312c1.84375-1.128907 4.238282-.675782 5.539063 1.046874 1.300781 1.722657 1.085937 4.152344-.503907 5.617188l-12.429687 11.851562 15.300781-8.839843c1.777344-1.03125 4.039063-.625 5.347656.957031 1.304688 1.585938 1.273438 3.882812-.074218 5.429688l-6.378906 7.34375 3.097656-1.777344c1.472656-.867188 3.324218-.738282 4.664062.320312 1.347656 1.042969 1.925782 2.796875 1.46875 4.4375l-1.945312 6.96875c1.367187.699219 2.242187 2.09375 2.28125 3.628906.039062 1.535157-.765625 2.972657-2.097656 3.738282l-4.195313 2.410156c-1.476563.847656-3.320313.71875-4.664063-.324219s-1.925781-2.792969-1.472656-4.433593l1.207032-4.339844-15.820313 9.132812c-1.777344 1.03125-4.039063.625-5.34375-.960937-1.308594-1.582031-1.277344-3.878907.074219-5.429688l6.378906-7.34375-23.847656 13.765625c-1.835938 1.046875-4.167969.5625-5.4375-1.128906-1.265625-1.691406-1.078125-4.066406.445312-5.535156l12.421875-11.894532-32.164062 18.574219c-1.882813 1.078125-4.273438.542969-5.519531-1.230469-1.242188-1.773437-.933594-4.203124.71875-5.609374l12.589843-10.566407-30.214843 17.441407c-1.910157 1.070312-4.320313.492187-5.539063-1.324219-1.21875-1.816407-.835937-4.265625.878906-5.625l4.28125-3.316407-17.820312 10.289063c-1.867188 1.085937-4.25.574219-5.511719-1.179687-1.261719-1.75-.984375-4.175782.636719-5.601563l15.777343-13.933594-35.949218 20.757813c-1.882813 1.101562-4.296875.570312-5.550782-1.214844-1.25-1.789062-.925781-4.234375.75-5.632812l13.195313-11.113282-31.164063 17.996094c-.640624.386719-1.375.59375-2.125.59375zm0 0" fill="#365972"/><g fill="#262626"><path d="m2.515625 332.296875c5.234375 30.171875 26.589844 29.375 51.5 29.375h91.203125v76.816406c-32.808594-1.285156-103.238281-3.96875-83.933594 44.878907 5.808594 14.707031 14.269532 12.089843 28.90625 12.089843h255.09375c1.292969.324219 2.644532.59375 4.070313.835938.90625.371093 1.878906.554687 2.855469.539062h2.03125c19.632812 1.730469 40.289062-.117187 59.953124-.117187 43.378907 0 87.34375 9.625 87.382813-46.769532v-218.230468c-.035156-.285156-.105469-.566406-.207031-.835938 0-.128906.125-.238281.125-.363281v-16.785156c-4.15625-25.894531-36.160156-29.707031-67.148438-28.800781v-154.984376c0-.125-.082031-.191406-.089844-.300781-.011718-.109375.125-.410156.074219-.628906-6.445312-32.164063-35.597656-27.210937-61.113281-27.210937h-288.566406c-18.054688 0-46.464844-5.039063-63.789063 3.265624-25.601562 12.269532-18.347656 47.320313-18.347656 70.378907v152.480469c0 32.972656-5.660156 71.75 0 104.367187zm413.695313 113.503906c-1.460938 0-3.0625.082031-4.59375.125h-78.058594c0-1.769531.058594-3.542969.058594-5.28125l.085937-.621093c.925781-13.132813.925781-26.3125 0-39.449219v-104.757813c0-.703125-.050781-1.5-.066406-2.238281v-57.078125c.527343.050781.898437.066406 1.542969.144531 6.039062.363281 12.097656.363281 18.136718 0h135.976563v161.238281c0 12.042969-1.101563 24.683594 0 36.6875.292969 3.800782.175781 7.621094-.351563 11.398438h-69.433594c-1.082031-.078125-2.296874-.167969-3.296874-.167969zm-94.847657-84.152343v77.125h-29.695312v-77.125zm-41.882812 0v77.125h-122.476563c-.800781-7.519532-.675781-15.109376.371094-22.601563v-54.523437zm-71.109375 127.488281h-95.851563c-23.914062 0-55.210937 3.632812-30.554687-31.6875 14.027344-20.09375 41.632812-12.378907 65.402344-12.378907h105.320312c1.152344 0 2.753906-.085937 4.578125-.21875h25.808594c2.839843.003907 5.59375-.96875 7.804687-2.753906 10.214844-1.414062 20.609375-.644531 30.503906 2.257813v6.445312c0 1.558594.015626 3.09375.046876 4.609375-.578126 4.421875-.578126 8.898438 0 13.320313 1.054687 6.824219 4.144531 13.175781 8.867187 18.214843.695313.773438 1.4375 1.503907 2.222656 2.191407zm206.925781-1.242188c-10.628906 0-22 .835938-33.140625.945313-1.09375-.746094-2.398438-1.121094-3.726562-1.066406h-15.527344c-11.800782-1.425782-5.773438 4.125-19.160156-11.824219-17.359376-20.691407-4.246094-7.554688-10.074219-20.605469-.058594-.128906-.128907-.25-.207031-.371094v-.140625h155.578124c-2.390624 41.992188-41.3125 33.0625-73.726562 33.0625zm74.035156-270.96875v10.644531h-155.476562c.980469-17.9375 6.839843-29.949218 28.535156-33.792968 9.277344-1.421875 18.671875-1.898438 28.042969-1.425782.300781 0 .65625.042969.941406.042969h.199219c11.695312.394531 23.503906 1.390625 34.414062 1.390625 1.820313 0 6.992188-.898437 8.152344-3.355468 25.714844-.226563 51.558594 3.828124 55.210937 26.496093zm-474.628906-185.769531c8.105469-27.371094 23.691406-22.035156 44.132813-22.035156h299.148437c20.875 0 57.914063-8.082032 64.203125 23.089844v58.453124c0 28.605469-5.734375 63.839844 0 91.890626.195312.964843.496094 1.90625.886719 2.804687-2.816407.167969-5.597657.359375-8.316407.5625-9.886718-.476563-20.292968.539063-29.980468.539063-17.03125 0-41.398438-4.039063-54.777344 9.851562-11.917969 12.390625-8.980469 32.894531-8.601562 49.027344v95.507812c-.773438 4.621094-.875 9.332032-.300782 13.984375-2.175781-.160156-4.199218-.394531-5.246094-.503906-26.019531-2.585937-53.71875 0-79.90625 0h-177.3125c-53.316406 0-43.929687-46.238281-43.929687-86.082031v-194.199219c0-12.398437-3.578125-30.8125 0-42.890625zm0 0"/><path d="m41.652344 60.304688h8.394531c2.644531 0 6.394531-2.046876 6.714844-4.933594.328125-3.191406-3.214844-4.03125-5.632813-4.03125h-8.394531c-2.644531 0-6.394531 2.050781-6.714844 4.9375-.324219 3.1875 3.214844 4.027344 5.632813 4.027344zm0 0"/><path d="m48.367188 101.835938c3.105468.332031 6.144531-1.03125 7.964843-3.566407 1.21875-2.519531-1.066406-4.523437-3.550781-4.523437h-8.390625c-3.105469-.332032-6.144531 1.03125-7.96875 3.566406-1.214844 2.519531 1.066406 4.523438 3.550781 4.523438zm0 0"/><path d="m41.570312 143.953125h8.390626c2.519531 0 6.421874-1.929687 6.757812-4.707031.371094-3.121094-3.355469-3.632813-5.53125-3.632813h-8.394531c-2.515625 0-6.417969 1.929688-6.753907 4.707031-.371093 3.097657 3.3125 3.632813 5.53125 3.632813zm0 0"/><path d="m41.6875 186.351562h8.390625c3.113281.039063 5.855469-2.03125 6.667969-5.039062.300781-3.214844-3.175782-4.195312-5.675782-4.195312h-8.394531c-3.109375-.042969-5.855469 2.03125-6.664062 5.035156-.300781 3.207031 3.171875 4.199218 5.675781 4.199218zm0 0"/><path d="m54.476562 221.066406h-8.390624c-3.035157-.140625-6.039063.667969-8.597657 2.308594-1.675781 1.257812-1.828125 2.945312.789063 2.945312h8.394531c3.035156.136719 6.039063-.667968 8.59375-2.308593 1.679687-1.257813 1.832031-2.945313-.789063-2.945313zm0 0"/><path d="m46.160156 263.316406c-3.023437-.015625-5.996094.792969-8.59375 2.34375-1.78125 1.167969-1.839844 2.375.636719 2.375h8.394531c3.027344.007813 6-.8125 8.59375-2.375 1.78125-1.167968 1.839844-2.375-.636718-2.375zm0 0"/><path d="m51.09375 303.101562h-8.390625c-2.660156 0-6.398437 2.066407-6.714844 4.96875-.320312 3.199219 3.214844 4.082032 5.648438 4.082032h8.394531c2.660156 0 6.394531-2.066406 6.714844-4.96875.316406-3.199219-3.214844-4.082032-5.652344-4.082032zm0 0"/><path d="m148.777344 58.558594c3.667968 0 13.1875-5.472656 5.121094-5.472656h-67.148438c-3.667969 0-13.183594 5.472656-5.117188 5.472656zm0 0"/><path d="m83.679688 102.5h100.71875c7.136718 0 9.175781-9.425781.941406-9.425781h-100.722656c-7.132813 0-9.171876 9.425781-.9375 9.425781zm0 0"/><path d="m81.78125 143.214844h167.871094c4.582031 0 12.90625-6.914063 4.730468-6.914063h-167.867187c-4.582031 0-12.910156 6.914063-4.734375 6.914063zm0 0"/><path d="m180.378906 221.058594h-92.328125c-2.785156 0-13.824219 5.269531-7.804687 5.269531h92.328125c2.785156 0 13.824219-5.269531 7.804687-5.269531zm0 0"/><path d="m81.75 269.015625h41.964844c4.414062 0 12.96875-6.644531 4.800781-6.644531h-41.964844c-4.417969-.070313-12.96875 6.644531-4.800781 6.644531zm0 0"/><path d="m80.152344 184.007812h41.96875c3.035156.175782 6.046875-.625 8.59375-2.28125 1.210937-1.300781 2.34375-2.265624-.601563-2.265624h-41.96875c-3.035156-.183594-6.046875.609374-8.59375 2.265624-1.210937 1.316407-2.34375 2.28125.601563 2.28125zm0 0"/><path d="m184.339844 60.296875h41.96875c6.957031 0 9.316406-8.945313 1.058594-8.945313h-41.96875c-6.957032 0-9.316407 8.945313-1.058594 8.945313zm0 0"/><path d="m231.285156 184.242188c2.585938 0 13.757813-4.949219 7.890625-4.949219h-75.539062c-2.585938 0-13.757813 4.949219-7.890625 4.949219zm0 0"/><path d="m80.1875 310.042969h41.96875c3.042969.21875 6.074219-.59375 8.601562-2.308594 1.167969-1.316406 2.316407-2.515625-.679687-2.515625h-41.96875c-3.042969-.21875-6.074219.59375-8.601563 2.308594-1.167968 1.308594-2.316406 2.515625.679688 2.515625zm0 0"/><path d="m358.773438 285.90625h8.394531c3.054687.210938 6.027343-1.035156 8.023437-3.359375 1.386719-2.410156-1.191406-3.59375-3.308594-3.59375h-8.390624c-3.054688-.210937-6.03125 1.035156-8.023438 3.359375-1.386719 2.410156 1.191406 3.59375 3.304688 3.59375zm0 0"/><path d="m370.078125 320.007812h-8.390625c-2.613281 0-6.40625 2.023438-6.714844 4.882813-.335937 3.164063 3.246094 3.929687 5.605469 3.929687h8.394531c2.609375 0 6.402344-2.023437 6.714844-4.886718.335938-3.171875-3.25-3.925782-5.609375-3.925782zm0 0"/><path d="m371.84375 362.738281h-8.394531c-3.058594-.261719-6.050781.992188-8.007813 3.355469-1.335937 2.453125 1.140625 3.886719 3.359375 3.886719h8.390625c3.058594.265625 6.050782-.992188 8.007813-3.355469 1.351562-2.453125-1.125-3.886719-3.355469-3.886719zm0 0"/><path d="m373.503906 405.980469h-8.394531c-3.023437-.039063-6.003906.757812-8.601563 2.308593-1.769531 1.175782-1.839843 2.425782.644532 2.425782h8.394531c3.027344.042968 6.003906-.757813 8.605469-2.308594 1.769531-1.175781 1.835937-2.425781-.648438-2.425781zm0 0"/><path d="m405.417969 320.769531c-4.828125 0-12.828125 7.285157-4.636719 7.285157h58.757812c4.824219 0 12.824219-7.285157 4.632813-7.285157zm0 0"/><path d="m449.035156 363.996094h-41.964844c-3.042968-.203125-6.070312.605468-8.605468 2.300781-1.171875 1.316406-2.316406 2.46875.664062 2.46875h41.96875c3.042969.203125 6.066406-.605469 8.601563-2.300781 1.175781-1.316406 2.316406-2.46875-.664063-2.46875zm0 0"/><path d="m400.902344 286.507812h41.964844c2.519531 0 6.941406-.71875 7.957031-3.574218.429687-1.105469.246093-2.355469-.484375-3.289063-.730469-.933593-1.898438-1.414062-3.074219-1.261719h-41.96875c-2.515625 0-6.9375.722657-7.953125 3.578126-.433594 1.101562-.25 2.351562.480469 3.285156.730469.9375 1.902343 1.414062 3.078125 1.261718zm0 0"/><path d="m422.167969 404.589844h-16.785157c-3.074218-.277344-6.082031 1.019531-7.992187 3.449218-1.300781 2.457032 1.109375 4.070313 3.425781 4.070313h16.789063c3.074219.273437 6.078125-1.023437 7.988281-3.449219 1.300781-2.460937-1.109375-4.070312-3.425781-4.070312zm0 0"/><path d="m235.71875 302.976562h-75.542969c-7.082031 0-9.230469 9.300782-.972656 9.300782h75.539063c7.085937 0 9.21875-9.300782.976562-9.300782zm0 0"/></g></svg>