<svg height="512" viewBox="0 0 54 60" width="512" xmlns="http://www.w3.org/2000/svg"><g id="004---Pie-Chart" fill="none"><path id="Path" d="m40.855 55.112c-.2076989.0000626-.3938087-.1282848-.4675638-.3224472-.073755-.1941624-.019795-.4137033.1355638-.5515528l3.262-2.9-3.715 2.148c-.2268147.12995-.5154475.0632557-.6622581-.1530278-.1468106-.2162836-.1022433-.50915.1022581-.6719722l4.764-3.769-5.244 3.027c-.2319831.1309881-.5259285.0570795-.6683699-.1680527-.1424414-.2251321-.0833463-.52241.1343699-.6759473l2.081-1.441-2.215 1.278c-.2318603.1330617-.527371.0602043-.6708066-.1653857-.1434357-.22559-.0840493-.5240996.1348066-.6776143l3.974-2.769-4.225 2.438c-.2322377.1273115-.5234633.0514462-.664069-.1729923-.1406056-.2244384-.0818101-.5195841.134069-.6730077l3.308-2.242-3.487 2.01c-.2327769.1270897-.524286.0503218-.6642741-.174934-.139988-.2252559-.0797468-.5206233.1372741-.673066l3.11-2.077-3.27 1.888c-.2347029.1405531-.538787.0663884-.6824238-.1664401-.1436368-.2328284-.0734897-.5378644.1574238-.6845599l1.923-1.258-2.024 1.168c-.2319831.1309881-.5259285.0570795-.6683699-.1680527-.1424414-.2251321-.0833463-.52241.1343699-.6759473l7.436-5.138-7.855 4.537c-.2321092.1290838-.5246372.0541763-.6661393-.170578-.1415021-.2247542-.0825963-.5209195.1341393-.674422l7.556-5.15-7.956 4.593c-.2336556.130691-.5287926.0541466-.6694787-.1736308-.140686-.2277774-.0769932-.5259521.1444787-.6763692l5.773-3.817-6.033 3.483c-.2333291.1269664-.5252099.0493179-.6646076-.1768043-.1393976-.2261221-.0776459-.5217747.1406076-.6731957l6.031-3.968-6.294 3.633c-.2347029.1405531-.538787.0663884-.6824238-.1664401-.1436368-.2328284-.0734897-.5378644.1574238-.6845599l5.419-3.561-5.656 3.264c-.23158.1294027-.5239091.0554223-.6660571-.1685604-.142148-.2239828-.0846277-.5199909.1310571-.6744396l7.326-5.089-7.757 4.478c-.2301828.1290216-.5210052.0569569-.6643125-.1646141-.1433073-.2215711-.0897614-.5163656.1223125-.6733859l6.529-4.708-6.99 4.036c-.2288588.1292299-.518701.0592157-.6633326-.1602346-.1446317-.2194502-.0946742-.513414.1143326-.6727654l5.3-3.97-5.742 3.314c-.2313261.1333882-.5266402.061466-.670727-.1633522-.1440867-.2248181-.0860887-.5231794.131727-.6776478l1.833-1.3-1.968 1.134c-.2225362.1254221-.5038286.0629326-.6523283-.1449156-.1484997-.2078483-.1164484-.49421.0743283-.6640844l3.613-3.143-4.091 2.362c-.2280542.1290416-.517047.0601323-.6623353-.1579314-.1452882-.2180638-.0975826-.5113034.1093353-.6720686l.4-.3-.432.249c-.2207276.1320893-.5056598.0751513-.6586724-.1316224-.1530126-.2067738-.124171-.4959044.0666724-.6683776l1.215-1.141-1.381.8c-.1897681.1088047-.4282329.0816206-.5886437-.0671031-.1604108-.1487238-.2055222-.3844554-.1113563-.5818969l.731-1.529-1.067.616c-.1312777.0744513-.2888992.0865478-.43.033-.1423859-.0532971-.2527873-.1684826-.3-.313l-.288-.894c-.2356147.0272937-.4579826-.1147084-.5323345-.3399439-.0743519-.2252354.0197753-.4717149.2253345-.5900561l.357-.2c.1307209-.0747909.2881899-.0866756.4286554-.0323519.1404656.0543237.2489621.1690679.2953446.3123519l.276.853 1.927-1.113c.1897681-.1088047.4282329-.0816206.5886437.0671031.1604108.1487238.2055222.3844554.1113563.5818969l-.732 1.53 3.731-2.154c.2206356-.1300292.503851-.072325.6560244.1336626s.1241014.4936554-.0650244.6663374l-1.215 1.142 3.328-1.921c.2280542-.1290416.517047-.0601323.6623353.1579314.1452882.2180638.0975826.5113034-.1093353.6720686l-.4.3 1.939-1.119c.2230421-.1299097.508313-.0686909.6584139.1412949.150101.2099857.1156933.4997155-.0794139.6687051l-3.598 3.133 6.8-3.927c.2313261-.1333882.5266402-.061466.670727.1633522.1440867.2248181.0860887.5231794-.131727.6776478l-1.833 1.3 3.679-2.124c.2290632-.1321979.5214568-.063148.6671806.1575572.1457237.2207053.094369.5167199-.1171806.6754428l-5.3 3.97 8.279-4.78c.2308022-.1338179.5260112-.0628564.670779.1612399s.0880924.5223777-.128779.6777601l-6.528 4.708 9.564-5.523c.2322938-.1351768.5298928-.0625367.6737842.164462.1438914.2269988.0825928.5271392-.1387842.679538l-7.328 5.09 10.239-5.911c.2341443-.133112.5316521-.0568382.672871.1725078.1412189.2293459.075396.5293391-.148871.6784922l-5.42 3.563 6.178-3.574c.2333291-.1269664.5252099-.0493179.6646076.1768043.1393976.2261221.0776459.5217747-.1406076.6731957l-6.023 3.964 5.5-3.175c.2336556-.130691.5287926-.0541466.6694787.1736308.140686.2277774.0769932.5259521-.1444787.6763692l-5.777 3.821 5.251-3.031c.2318412-.125947.5216461-.0500755.6620287.1733204.1403825.223396.0830243.5174256-.1310287.6716796l-7.558 5.151 6.946-4.009c.2319831-.1309881.5259285-.0570795.6683699.1680527.1424414.2251321.0833463.52241-.1343699.6759473l-7.434 5.136 6.745-3.894c.2347029-.1405531.538787-.0663884.6824238.1664401.1436368.2328284.0734897.5378644-.1574238.6845599l-1.93 1.263 1.187-.684c.2327769-.1270897.524286-.0503218.6642741.174934.139988.2252559.0797468.5206233-.1372741.673066l-3.103 2.07 2.21-1.271c.2329673-.1327691.5291919-.0581284.6714287.1691822.1422368.2273105.0798406.5263539-.1414287.6778178l-3.307 2.241 2.307-1.332c.2318603-.1330617.527371-.0602043.6708066.1653857.1434357.22559.0840493.5240996-.1348066.6776143l-3.985 2.78 2.644-1.526c.2313246-.1263251.5209869-.0513891.6620294.1712679.1410425.2226569.0850249.5165645-.1280294.6717321l-2.081 1.442.63-.363c.2269806-.1326577.5179234-.0668764.6657567.1505254.1478333.2174019.1020535.5121545-.1047567.6744746l-4.769 3.771 2.046-1.18c.2218647-.1262356.5031961-.0650788.6526317.1418714.1494355.2069502.1189881.4932377-.0706317.6641286l-4.663 4.141c.0293408.0296068.0542635.063286.074.1.1373847.2389169.0555349.543953-.183.682l-2.251 1.3c-.0761974.0429854-.1625314.0647416-.25.063z" fill="#f7ad00"/><path id="Path" d="m26.994 59.47c-.2152152 0-.4062846-.137715-.4743416-.3418861-.0680571-.2041711.0021694-.4289848.1743416-.5581139l6.946-5.143-9.879 5.7c-.2352733.1446986-.5433014.0712733-.688-.164s-.0712733-.5433014.164-.688l1.934-1.259-3.121 1.8c-.23158.1294027-.5239091.0554223-.6660571-.1685604-.142148-.2239828-.0846277-.5199909.1310571-.6744396l9.25-6.413-11.437 6.6c-.234023.1252853-.5251579.0458598-.6631351-.1809119-.1379772-.2267718-.0746978-.5218373.1441351-.6720881l3.935-2.526-4.856 2.8c-.2334461.1352991-.5321345.0609722-.6749447-.1679561-.1428102-.2289282-.0782242-.5298733.1459447-.6800439l10.982-7.365-12.654 7.315c-.2340569.1357068-.5336008.0606207-.6759704-.1694442s-.0759129-.5316408.1499704-.6805558l12.065-8-13.41 7.741c-.234481.1270728-.5274228.0477401-.6657366-.1802909-.1383139-.2280309-.0733058-.5244809.1477366-.6737091l7.678-4.882-8.517 4.917c-.2347034.1364868-.5354374.0607325-.6774741-.1706544-.1420368-.2313868-.073465-.5338394.1544741-.6813456l13.3-8.667-14.336 8.28c-.2361735.1361818-.537908.0580681-.6783318-.1756081-.1404239-.2336761-.0677709-.5367718.1633318-.6813919l6.113-3.821-6.626 3.825c-.23560872.1297647-.5316571.04988-.67000668-.1807924-.13834959-.2306723-.06941665-.5294607.15600668-.6762076l5.128-3.187-5.538 3.2c-.23448097.1270728-.52742279.0477401-.66573664-.1802909-.13831386-.2280309-.07330581-.5244809.14773664-.6737091l12.9-8.219-13.518 7.802c-.23693016.1419372-.5440628.0649301-.68599998-.172-.14193717-.2369302-.06493016-.5440628.17199998-.686l6.5-4.03-6.831 3.94c-.23637787.1427656-.54373437.0668778-.68649997-.1695-.1427656-.2363779-.06687788-.5437344.16949997-.6865l11.75-7.389-12.136 7.005c-.23520866.125628-.52761522.0445694-.66457305-.1842276-.13695782-.228797-.07026696-.5248112.15157305-.6727724l6.073-3.772-6.233 3.6c-.2341443.133112-.53165209.0568382-.67287099-.1725078-.1412189-.2293459-.07539606-.5293391.14887099-.6784922l14.433-9.445-14.943 8.626c-.23358769.1237383-.52313261.0442789-.66084289-.1813541-.13771027-.225633-.07600068-.5194731.14084289-.6706459l10.181-6.563-10.324 5.96c-.23400272.1389988-.53620161.0652981-.67993859-.1658244-.14373699-.2311225-.07620784-.5347601.15193859-.6831756l11.691-7.819-11.964 6.907c-.23436107.1288923-.5286543.0505227-.66787555-.1778537-.13922124-.2283764-.07406124-.5258734.14787555-.6751463l4.544-2.913-4.385 2.531c-.2341443.133112-.53165209.0568382-.67287099-.1725078-.1412189-.2293459-.07539606-.5293391.14887099-.6784922l5.95-3.914-5.819 3.36c-.23229375.1351768-.52989283.0625367-.67378421-.164462-.14389139-.2269988-.08259275-.5271392.13878421-.679538l7.296-5.048-7.177 4.143c-.2328603.1351428-.53091891.0616362-.67424226-.1662803-.14332335-.2279164-.08044309-.5283964.14224226-.6797197l4.037-2.75-3.677 2.122c-.23400272.1389988-.53620161.0652981-.67993859-.1658244-.14373699-.2311225-.07620784-.5347601.15193859-.6831756l.391-.259c-.23240668.1328499-.52821577.0590851-.67103328-.1673329s-.08196881-.5251514.13803328-.6776671l2.41-1.717-2 1.153c-.22871944.1310429-.5198877.0620127-.66543532-.1577616-.14554761-.2197742-.09547523-.5147944.11443532-.6742384l1.979-1.487-1.441.831c-.2244518.1286386-.50996589.0648202-.65828662-.1471407-.14832072-.211961-.1104625-.5020607.08728662-.6688593l1.561-1.3-.99.57c-.21408036.1213565-.48463594.0688971-.63784696-.1236754-.15321103-.1925726-.14352003-.4679966.02284696-.6493246l.986-1.058-.369.213c-.17375975.100232-.39060127.0869149-.55079021-.0338262-.16018894-.120741-.2327108-.3255291-.18420979-.5201738l.271-1.085c-.09142783-.0427772-.16752157-.112588-.218-.2-.13823272-.2388784-.05677133-.5445824.182-.683l.485-.28c.1730604-.099225.38854244-.0860844.54826323.0334346s.23311331.3225429.18673677.5165654l-.2.794 2.245-1.3c.2143746-.1227956.48629712-.0706141.6399891.1228129s.14307446.4701074-.0249891.6511871l-.984 1.055 3.084-1.776c.2244518-.1286386.50996589-.0648202.65828662.1471407.14832072.211961.1104625.5020607-.08728662.6688593l-1.562 1.308 3.594-2.076c.22927933-.1356576.52465674-.0677215.6716308.1544735.1469742.2221949.0939218.520605-.1206308.6785265l-1.975 1.485 3.933-2.274c.2309306-.1317312.5245674-.0597083.6683337.1639283.1437664.2236366.0873821.520673-.1283337.6760717l-2.412 1.723 4.356-2.514c.2335451-.1328438.5303244-.0573638.6720248.1709163s.0776546.5277351-.1450248.6780837l-.385.256 1.851-1.068c.2325262-.1307666.5267591-.0559509.6685809.1700024s.0812744.5234503-.1375809.6759976l-4.035 2.75 6.143-3.547c.2322938-.1351768.5298928-.0625367.6737842.164462.1438914.2269988.0825928.5271392-.1387842.679538l-7.291 5.046 10.091-5.825c.2347029-.1405531.538787-.0663884.6824238.1664401.1436368.2328284.0734897.5378644-.1574238.6845599l-5.958 3.92 8.174-4.72c.2354116-.1379583.5379577-.061708.6798637.1713453.1419059.2330532.070765.5368414-.1598637.6826547l-4.542 2.911 6.444-3.72c.2334461-.1352991.5321345-.0609722.6749447.1679561.1428102.2289282.0782242.5298733-.1459447.6800439l-11.693 7.817 14.9-8.6c.2343611-.1288923.5286543-.0505227.6678755.1778537.1392213.2283764.0740613.5258734-.1478755.6751463l-10.178 6.56 12.736-7.356c.2337734-.1287456.5274505-.051198.667188.1761759.1397374.2273739.07627.5244122-.144188.6748241l-14.423 9.442 17.7-10.223c.2362075-.133071.5354329-.0536509.6745599.1790411.1391271.2326919.0674613.5338687-.1615599.6789589l-6.089 3.781 7.958-4.594c.2363779-.1427656.5437344-.0668778.6865.1695.1427656.2363779.0668779.5437344-.1695.6865l-11.74 7.386 11.471-6.621c.2369302-.1419372.5440628-.0649301.686.172.1419371.2369302.0649301.5440628-.172.686l-6.5 4.032 5.987-3.457c.2348642-.1312813.531504-.0531604.6712412.1767732.1397372.2299337.0724576.5292187-.1522412.6772268l-12.908 8.222 12.39-7.153c.2356087-.1297647.5316571-.04988.6700067.1807924.1383496.2306723.0694166.5294607-.1560067.6762076l-5.136 3.191 4.623-2.669c.2361735-.1361818.537908-.0580681.6783318.1756081.1404239.2336761.0677709.5367718-.1633318.6813919l-6.117 3.823 5.6-3.234c.2341443-.133112.5316521-.0568382.672871.1725078.1412189.2293459.075396.5293391-.148871.6784922l-13.29 8.663 12.767-7.371c.2361017-.1433179.5436821-.0681017.687.168s.0681017.5436821-.168.687l-7.679 4.882 7.161-4.134c.2335451-.1328438.5303244-.0573638.6720248.1709163s.0776546.5277351-.1450248.6780837l-12.065 8 11.54-6.663c.2334461-.1352991.5321345-.0609722.6749447.1679561.1428102.2289282.0782242.5298733-.1459447.6800439l-10.983 7.365 10.458-6.037c.2354116-.1379583.5379577-.061708.6798637.1713453.1419059.2330532.070765.5368414-.1598637.6826547l-3.936 2.525 3.417-1.973c.2322938-.1351768.5298928-.0625367.6737842.164462.1438914.2269988.0825928.5271392-.1387842.679538l-9.248 6.407 8.714-5.03c.1521951-.0936036.3427662-.0989017.4999268-.0138987.1571607.0850031.2570345.2473934.262.426.0049655.1786067-.0857317.3462951-.2379268.4398987l-1.935 1.263 1.412-.814c.2292016-.1303039.5201978-.0602449.6649792.1600976s.0935911.5152436-.1169792.6739024l-6.946 5.144 6.4-3.694c.2272713-.1290292.5155715-.0612656.6615658.155498.1459944.2167636.1004262.5093938-.1045658.671502l-4.241 3.3 3.685-2.127c.2174475-.1222843.4917629-.0655717.6428937.1329134.1511308.1984852.1328285.4780031-.0428937.6550866l-1.373 1.357.773-.447c.23893-.1358451.5427102-.0533708.6801373.1846528.137427.2380237.0569695.5423443-.1801373.6813472l-4.149 2.4c-.2174475.1222843-.4917629.0655717-.6428937-.1329134-.1511308-.1984852-.1328285-.4780031.0428937-.6550866l1.376-1.358-6.6 3.81c-.2272713.1290292-.5155715.0612656-.6615658-.155498-.1459944-.2167636-.1004262-.5093938.1045658-.671502l4.241-3.3-7.712 4.444c-.0755826.0452501-.1619093.0694216-.25.07z" fill="#886ade"/><path id="Path" d="m40.781 49.117c-.2118702-.0007989-.4002347-.1350456-.4701265-.3350575s-.0061349-.4223594.1591265-.5549425l.66-.527-.9.517c-.2281943.1273484-.5159664.0574929-.6603781-.1603041-.1444117-.2177969-.0967481-.5100652.1093781-.6706959l2.379-1.8-2.8 1.616c-.23158.1294027-.5239091.0554223-.6660571-.1685604-.142148-.2239828-.0846277-.5199909.1310571-.6744396l1.054-.733-1.3.753c-.2295527.1314921-.521805.0614183-.6667704-.1598726-.1449654-.2212908-.0924688-.5172061.1197704-.6751274l5.711-4.211-6.441 3.715c-.2308022.1338179-.5260112.0628564-.670779-.1612399s-.0880924-.5223777.128779-.6777601l6.972-5.009-7.745 4.472c-.2319831.1309881-.5259285.0570795-.6683699-.1680527-.1424414-.2251321-.0833463-.52241.1343699-.6759473l6.716-4.639-7.361 4.25c-.2347713.1336383-.5332399.0566316-.6740509-.1739091-.1408109-.2305408-.0730402-.5312411.1530509-.6790909l1.264-.815-1.507.869c-.2335451.1328438-.5303244.0573638-.6720248-.1709163s-.0776546-.5277351.1450248-.6780837l6.385-4.266-6.923 4c-.2337734.1287456-.5274505.051198-.667188-.1761759-.1397374-.2273739-.07627-.5244122.144188-.6748241l4.472-2.907-4.86 2.805c-.2322377.1273115-.5234633.0514462-.664069-.1729923-.1406056-.2244384-.0818101-.5195841.134069-.6730077l9.641-6.538-10.421 6.012c-.2343611.1288923-.5286543.0505227-.6678755-.1778537-.1392213-.2283764-.0740613-.5258734.1478755-.6751463l4.805-3.092-5.191 3c-.2358256.1438702-.5436298.0693256-.6875-.1665s-.0693256-.5436298.1665-.6875l5.371-3.459-5.779 3.338c-.2336556.130691-.5287926.0541466-.6694787-.1736308-.140686-.2277774-.0769932-.5259521.1444787-.6763692l9.288-6.118-9.938 5.738c-.2358256.1438702-.5436298.0693256-.6875-.1665-.1438701-.2358256-.0693256-.5436298.1665-.6875l6.857-4.412-7.327 4.23c-.2347034.1364868-.5354374.0607325-.6774741-.1706544-.1420368-.2313868-.073465-.5338394.1544741-.6813456l9.533-6.23-10.165 5.868c-.2354379.13455-.5352149.0569022-.6757281-.1750261-.1405133-.2319283-.0705395-.5335888.1577281-.6799739l5.6-3.56-5.993 3.46c-.2306801.1143498-.5104836.0348294-.6465452-.1837488-.1360617-.2185781-.0838937-.5047459.1205452-.6612512l8.028-5.161-8.542 4.932c-.2358256.1438702-.5436298.0693256-.6875-.1665s-.0693256-.5436298.1665-.6875l8.138-5.225-8.653 4.995c-.2374824.141661-.5448389.0639824-.6865-.1735-.141661-.2374824-.0639824-.544839.1735-.6865l5.3-3.35-4.8 2.772c-.2354379.13455-.5352149.0569022-.6757281-.1750261-.1405133-.2319283-.0705395-.5335888.1577281-.6799739l5.9-3.75-5.08 2.933c-.2342478.1308833-.5300435.0535271-.6702262-.1752769s-.074765-.527467.1482262-.6767231l8.42-5.484-7.56 4.365c-.2352733.1446986-.5433014.0712733-.688-.164s-.0712733-.5433014.164-.688l7.8-5.1-6.931 4c-.2342478.1308833-.5300435.0535271-.6702262-.1752769s-.074765-.527467.1482262-.6767231l5.753-3.741-4.916 2.839c-.2347029.1405531-.538787.0663884-.6824238-.1664401-.1436368-.2328284-.0734897-.5378644.1574238-.6845599l5.563-3.649-4.717 2.724c-.2328603.1351428-.5309189.0616362-.6742423-.1662803-.1433233-.2279164-.080443-.5283964.1422423-.6797197l7.618-5.206-6.7 3.866c-.2355494.1441463-.5433537.0700494-.6875-.1655s-.0700494-.5433537.1655-.6875l.721-.466c-.2365014.1187645-.524586.032671-.6571419-.1963855-.1325558-.2290565-.0636664-.5217322.1571419-.6676145l6.166-4.342-5.243 3.027c-.2306768.1361239-.5276494.0662929-.6734904-.1583666s-.0887428-.5243409.1294904-.6796334l5.4-3.926-4.461 2.576c-.2280542.1290416-.517047.0601323-.6623353-.1579314-.1452882-.2180638-.0975826-.5113034.1093353-.6720686l4.565-3.5-3.61 2.085c-.2253012.13499759-.5166469.07266143-.6669839-.14270746-.1503369-.2153689-.1084102-.51034396.0959839-.67529254l3.465-2.881-2.488 1.436c-.2275891.12988968-.5168511.06203201-.6629348-.15551719-.1460838-.21754919-.0994243-.51097732.1069348-.67248281l.556-.43c-.1565072.00090069-.3051602-.06847071-.405-.189-.153884-.19381854-.1428288-.47105038.026-.652l1.193-1.276-.236.136c-.1845798.10647743-.4163606.08427287-.5773677-.05531171-.1610071-.13958459-.2158573-.36587389-.1366323-.56368829l.458-1.142c-.0489967-.0384139-.0900871-.08595652-.121-.14-.0662182-.11496067-.0840333-.25152534-.049523-.37962624.0345104-.1281009.1185167-.23723492.233523-.30337376l.5-.287c.1845798-.10647743.4163606-.08427287.5773677.05531171.1610071.13958459.2158573.36587389.1366323.56368829l-.266.663 1.89-1.093c.2146681-.12429611.4880102-.07241334.6422041.12189608.154194.19430941.142615.47229082-.0272041.65310392l-1.193 1.276 2.946-1.7c.2266262-.12370486.5101719-.05451448.6543462.15967253s.1015583.50292456-.0983462.66632747l-.2.152 1.083-.626c.2253012-.13499759.5166469-.07266143.6669839.14270746.1503369.2153689.1084102.51034396-.0959839.67529254l-3.46 2.887 5.207-3.006c.2280542-.12904158.517047-.0601323.6623353.15793143.1452882.21806373.0975826.5113034-.1093353.67206857l-4.568 3.5 6.027-3.48c.2306768-.13612394.5276494-.06629287.6734904.15836663s.0887428.52434083-.1294904.67963337l-5.396 3.927 6.66-3.84c.2317427-.13536544.5290201-.06362981.6735243.16252724.1445041.22615705.084687.52606004-.1355243.67947276l-6.171 4.34 7.243-4.182c.2355494-.14414631.5433537-.07004943.6875.16550001s.0700494.54335367-.1655.68749999l-.687.445 1.164-.672c.2333482-.14250218.537887-.07113963.6836338.16019585.1457468.23133547.0786439.53684112-.1506338.68580415l-7.616 5.2 8.45-4.872c.2326324-.12257041.5204508-.04401252.6585548.17974767.1381041.2237602.0792975.51625383-.1345548.66925233l-5.56 3.651 6.146-3.55c.2342478-.13088329.5300435-.05352709.6702262.17527691.1401827.22880401.074765.52746697-.1482262.67672309l-5.75 3.738 6.223-3.592c.2333039-.12094447.5204171-.04064613.6571289.18378241.1367117.22442854.0763604.51638666-.1381289.66821759l-7.8 5.1 8.281-4.781c.2355494-.14414631.5433537-.07004943.6875.1655.1441463.2355494.0700494.5433537-.1655.6875l-8.442 5.488 8.939-5.16c.2354379-.13455.5352149-.0569022.6757281.1750261.1405133.2319283.0705395.5335888-.1577281.6799739l-5.886 3.745 6.074-3.506c.2349709-.1292146.5300387-.050062.6687925.179405.1387537.2294671.0717837.5275361-.1517925.675595l-5.307 3.351 5.451-3.148c.2354116-.1379583.5379577-.061708.6798637.1713453.1419059.2330532.070765.5368414-.1598637.6826547l-8.135 5.225 8.383-4.84c.2347713-.1336383.5332399-.0566316.6740509.1739091.1408109.2305408.0730402.5312411-.1530509.6790909l-8.022 5.156 8.094-4.673c.2361017-.1433179.5436821-.0681017.687.168s.0681017.5436821-.168.687l-5.6 3.561 5.585-3.225c.2347034-.1364868.5354374-.0607325.6774741.1706544.1420368.2313868.073465.5338394-.1544741.6813456l-9.535 6.23 9.622-5.556c.2358256-.1438702.5436298-.0693256.6875.1665s.0693256.5436298-.1665.6875l-6.853 4.41 6.679-3.856c.2336556-.130691.5287926-.0541466.6694787.1736308.140686.2277774.0769932.5259521-.1444787.6763692l-9.291 6.121 9.178-5.3c.2358256-.1438702.5436298-.0693256.6875.1665s.0693256.5436298-.1665.6875l-5.378 3.458 5.089-2.935c.2343611-.1288923.5286543-.0505227.6678755.1778537.1392213.2283764.0740613.5258734-.1478755.6751463l-4.807 3.094 4.4-2.541c.2329673-.1327691.5291919-.0581284.6714287.1691822.1422368.2273105.0798406.5263539-.1414287.6778178l-9.638 6.537 9.272-5.353c.2355494-.1441463.5433537-.0700494.6875.1655s.0700494.5433537-.1655.6875l-4.475 2.91 3.859-2.228c.2340027-.1389988.5362016-.0652981.6799386.1658244s.0762078.5347601-.1519386.6831756l-6.382 4.26 5.721-3.3c.2355494-.1441463.5433537-.0700494.6875.1655s.0700494.5433537-.1655.6875l-1.265.816.535-.308c.23158-.1294027.5239091-.0554223.6660571.1685604.142148.2239828.0846277.5199909-.1310571.6744396l-6.717 4.64 5.688-3.284c.2308022-.1338179.5260112-.0628564.670779.1612399s.0880924.5223777-.128779.6777601l-6.968 5.012 5.528-3.192c.2295527-.1314921.521805-.0614183.6667704.1598726.1449654.2212908.0924688.5172061-.1197704.6751274l-5.711 4.211 3.869-2.233c.2309506-.1251572.5193699-.0502601.6602447.1714532.1408749.2217132.0861633.5146329-.1252447.6705468l-1.409.981c.2251816-.0314137.4432063.0930538.5306366.3029336.0874304.2098798.0222507.4523226-.1586366.5900664l-2.524 1.91c.2274241-.0522654.4607597.0597323.5622363.2698654.1014765.2101331.0441066.4625171-.1382363.6081346l-3.249 2.583v.007c.1382327.2388784.0567713.5445824-.182.683l-2.524 1.46c-.0758413.0442906-.1621742.0674278-.25.067z" fill="#ffc306"/><path id="Path" d="m10.934 27.5c-.217114.0000744-.4094639-.1399749-.4760652-.3466214-.0666013-.2066464.0077686-.4326584.1840652-.5593786l7.944-5.716-11.304 6.522c-.23541159.1379583-.53795774.061708-.67986369-.1713453-.14190596-.2330532-.07076502-.5368414.15986369-.6826547l2.685-1.73-2.09 1.207c-.23344605.1352991-.53213452.0609722-.67494472-.1679561-.1428102-.2289282-.07822416-.5298733.14594472-.6800439l7.811-5.256-7.174 4.142c-.23400272.1389988-.53620161.0652981-.67993859-.1658244-.14373699-.2311225-.07620784-.5347601.15193859-.6831756l6.991-4.667-6.362 3.673c-.23354514.1328438-.53032442.0573638-.6720248-.1709163s-.07765459-.5277351.1450248-.6780837l6.623-4.411-6 3.463c-.233204.1287421-.52639387.0520483-.66668716-.1743946-.1402933-.226443-.07842312-.5231151.14068716-.6746054l6.17-4.094-5.549 3.2c-.23472102.145527-.54297296.073221-.68849999-.1615s-.07322102-.542973.16149999-.6885l6.151-4.084-5.529 3.192c-.2328603.1351428-.53091891.0616362-.67424226-.1662803-.14332335-.2279164-.08044309-.5283964.14224226-.6797197l8.709-5.97-8.057 4.652c-.23582559.1438702-.54362982.0693256-.6875-.1665s-.06932559-.5436298.1665-.6875l2.026-1.3-1.433.827c-.23354514.1328438-.53032442.0573638-.6720248-.1709163s-.07765459-.5277351.1450248-.6780837l4.828-3.215-4.211 2.432c-.23276821.1379387-.53303341.0656905-.67757699-.1630348-.14454357-.2287253-.08091807-.5309351.14357699-.6819652l4.142-2.863-3.516 2.03c-.2295527.1314921-.52180501.0614183-.6667704-.15987256-.14496539-.22129087-.0924688-.51720615.1197704-.67512744l3.149-2.324c-.0925378-.04226739-.1697335-.11212778-.221-.2-.1380647-.23914015-.0561341-.54492481.183-.683l5.711-3.3c.2301583-.13666889.5271246-.067833.6736831.15615768s.0907153.52367208-.1266831.67984232l-1.613 1.19 6.47-3.735c.2319831-.1309881.5259285-.05707946.6683699.16805269.1424414.22513216.0833463.52241-.1343699.67594731l-4.139 2.863 7.106-4.1c.2340027-.13899883.5362016-.06529813.6799386.16582441s.0762078.53476011-.1519386.68317559l-4.829 3.211 5.616-3.242c.2354116-.13795832.5379577-.06170795.6798637.17134529.1419059.23305325.070765.53684142-.1598637.68265471l-2.024 1.3 1.506-.863c.2328603-.1351428.5309189-.06163618.6742423.16628028.1433233.22791645.080443.52839646-.1422423.67971972l-8.707 5.967 8.177-4.721c.233204-.12874209.5263939-.05204834.6666872.17439464s.0784231.52311505-.1406872.67460536l-6.151 4.085 5.628-3.249c.2340569-.1357068.5336008-.06062069.6759704.16944421s.0759129.53164078-.1499704.68055579l-6.167 4.092 5.643-3.258c.2335451-.1328438.5303244-.05736382.6720248.17091629s.0776546.52773513-.1450248.67808371l-6.623 4.41 6.096-3.52c.2340027-.13899883.5362016-.06529813.6799386.1658244.143737.2311225.0762078.5347601-.1519386.6831756l-6.995 4.671 6.47-3.736c.2341687-.1463554.5426445-.0751687.689.159.1463554.2341687.0751687.5426445-.159.689l-7.809 5.254 7.281-4.2c.1525524-.0930677.3431677-.09768.5000428-.0120996.1568752.0855804.2561773.2483519.2605.427.0043228.1786481-.0869904.3460319-.2395428.4390996l-2.68 1.726 2.16-1.247c.2308022-.1338179.5260112-.0628564.670779.1612399s.0880924.5223777-.128779.6777601l-7.945 5.715 7.406-4.276c.229416-.1334891.5231565-.0644561.6690977.1572468.1459412.221703.0932171.5188044-.1200977.6767532l-5.588 4.16 5.04-2.91c.2316336-.1380114.5309786-.0675015.6766613.1593858.1456826.2268872.0852257.5284233-.1366613.6816142l-1.434 1.019.895-.517c.2275891-.1298897.5168511-.062032.6629348.1555172.1460838.2175492.0994243.5109773-.1069348.6724828l-1.652 1.276 1.1-.634c.2109099-.1217971.4788947-.0739095.6345697.1133946.1556749.1873041.1537451.4595272-.0045697.6446054l-1.823 2.133 1.2-.69c.1849137-.1065261.4170559-.08395.5779793.056209.1609233.140159.2151536.3670043.1350207.564791l-.389.956c.2108595.030564.3791872.191392.4193233.4006406.040136.2092486-.0567377.420945-.2413233.5273594l-.873.5c-.1849137.1065261-.4170559.08395-.5779793-.056209-.1609233-.140159-.2151536-.3670043-.1350207-.564791l.322-.794-2.458 1.42c-.2109099.1217971-.4788947.0739095-.6345697-.1133946-.1556749-.1873041-.1537451-.4595272.0045697-.6446054l1.825-2.134-5.02 2.9c-.2280989.1338167-.5209547.0668721-.6682583-.1527586-.1473036-.2196308-.0981078-.515985.1122583-.6762414l1.649-1.272-3.651 2.107c-.2313261.1333882-.5266402.061466-.670727-.1633522-.1440867-.2248181-.0860887-.5231794.131727-.6776478l1.435-1.019-3.229 1.864c-.2292016.1303039-.5201978.0602449-.6649792-.1600976s-.0935911-.5152436.1169792-.6739024l5.584-4.163-8.665 5c-.0761959.0468531-.1635657.0724079-.253.074z" fill="#1c85ad"/><path id="Path" d="m12.669 31.359c-.2152152 0-.4062846-.137715-.4743416-.3418861-.0680571-.2041711.0021694-.4289848.1743416-.5581139l3.41-2.544-4.76 2.749c-.232192.1378754-.5319082.0664712-.6769921-.1612862-.1450839-.2277573-.0831069-.529564.1399921-.6817138l1.749-1.221-2.713 1.568c-.23278802.1485646-.5419354.080288-.69049999-.1525-.1485646-.232788-.08028803-.5419354.15249999-.6905l2.358-1.65-3.406 1.967c-.2313261.1333882-.5266402.061466-.67072696-.1633522-.14408676-.2248181-.08608875-.5231794.13172696-.6776478l3.571-2.534-4.82 2.783c-.23334031.1477362-.54226383.0783403-.69-.155s-.07834031-.5422638.155-.69l2.858-1.972-3.946 2.276c-.23015827.1366689-.52712465.067833-.67368315-.1561577-.14655849-.2239907-.09071527-.5236721.12668315-.6798423l6.073-4.473-7.856 4.537c-.23080222.1338179-.52601117.0628564-.670779-.1612399-.14476784-.2240963-.08809237-.5223777.128779-.6777601l6.231-4.487-6.5 3.754c-.23211371.1412643-.53455656.0713001-.68105198-.1575481-.14649542-.2288481-.0834127-.5328008.14205198-.6844519l5.106-3.617-4.423 2.552c-.23198312.1309881-.52592847.0570795-.6683699-.1680527-.14244144-.2251321-.0833463-.52241.1343699-.6759473l2.632-1.814-1.857 1.068c-.23174266.1353654-.52902013.0636298-.67352428-.1625272-.14450415-.2261571-.08468698-.5260601.13552428-.6794728l2.573-1.817-1.635.944c-.23041837.1322364-.52401892.0611893-.66848638-.1617642-.14446747-.2229535-.0893536-.5199576.12548638-.6762358l2.252-1.627-1.23.712c-.2240205.1297641-.51004419.0670649-.65923949-.1445117s-.11221251-.502047.08523949-.6694883l4-3.4-2.259 1.3c-.22502404.1298327-.51198925.0657046-.6603401-.147566s-.10865701-.5046224.0913401-.670434l1.646-1.362c-.16741175.0179395-.33317303-.04613-.445-.172-.15645641-.1836971-.15940109-.4529248-.007-.64l2.647-3.244c-.08685254-.22903724.00501125-.48727187.217-.61l.626-.361c.20896231-.12004631.47382366-.07395617.6299505.10962154.15612683.18357771.15909078.45240303.0070495.63937846l-1.627 2 2.43-1.4c.22502404-.1298327.51198925-.0657046.6603401.147566.1483508.2132706.108657.5046224-.0913401.670434l-1.468 1.215 1.9-1.1c.2243015-.1303348.511027-.0674761.6602307.1447421.1492038.2122182.1113211.5032983-.0872307.6702579l-4 3.394 4.906-2.832c.2304184-.1322364.5240189-.0611893.6684864.1617642.1444674.2229535.0893536.5199576-.1254864.6762358l-2.25 1.624 2.688-1.552c.2310609-.1298083.523268-.0567757.6660866.1664779.1428185.2232536.086628.5191613-.1280866.6745221l-2.576 1.811 3.021-1.744c.2319831-.1309881.5259285-.0570795.6683699.1680527.1424414.2251321.0833463.52241-.1343699.6759473l-2.634 1.82 3.062-1.768c.2316336-.1380114.5309786-.0675015.6766613.1593858.1456826.2268872.0852257.5284233-.1366613.6816142l-5.1 3.615 5.77-3.332c.2308022-.1338179.5260112-.0628564.670779.1612399s.0880924.5223777-.128779.6777601l-6.233 4.49 7.046-4.068c.2301583-.1366689.5271246-.067833.6736831.1561577s.0907153.5236721-.1266831.6798423l-6.07 4.47 6.925-4c.2333403-.1477362.5422638-.0783403.69.155s.0783403.5422638-.155.69l-2.865 1.976 3.309-1.91c.2313261-.1333882.5266402-.061466.670727.1633522.1440867.2248181.0860887.5231794-.131727.6776478l-3.567 2.531 4.1-2.369c.2314518-.1313128.5252013-.0583356.6682918.1660259.1430904.2243616.0853808.5214879-.1312918.6759741l-2.361 1.653 2.78-1.606c.2318603-.1330617.527371-.0602043.6708066.1653857.1434357.22559.0840493.5240996-.1348066.6776143l-1.742 1.222 2.111-1.219c.2288588-.1292299.518701-.0592157.6633326.1602346.1446317.2194502.0946742.513414-.1143326.6727654l-3.413 2.547 4.013-2.315c.2245855-.1309436.5120466-.0679354.6612702.144943.1492235.2128783.1104168.5045939-.0892702.671057l-2.016 1.7 2.555-1.473c.1681194-.0967473.3770245-.0875308.5359708.0236459.1589462.1111766.2392501.3042506.2060292.4953541l-.214 1.226.832-.479c.23893-.1358451.5427102-.0533708.6801373.1846528.137427.2380237.0569695.5423443-.1801373.6813472l-1.757 1.014c-.1683415.0975534-.3779865.0885932-.5373904-.0229681-.159404-.1115613-.2396157-.3054617-.2056096-.4970319l.213-1.225-6.509 3.759c-.2247172.1334451-.5142955.0713124-.6644881-.1425745s-.1103229-.50736.0914881-.6734255l2.017-1.7-6.5 3.753c-.0764888.0421448-.1626821.0635207-.25.062z" fill="#92d149"/><path id="Path" d="m27.217 53.455c-.2132463-.0003569-.4027983-.1359212-.4720574-.3376073-.0692591-.201686-.0029812-.4251025.1650574-.5563927l5.169-4.013-7.972 4.6c-.23158.1294027-.5239091.0554223-.6660571-.1685604-.142148-.2239828-.0846277-.5199909.1310571-.6744396l3.689-2.56-5.29 3.055c-.2324067.1328499-.5282158.0590851-.6710333-.1673329s-.0819688-.5251514.1380333-.6776671l4.209-2.883-5.626 3.248c-.233204.1287421-.5263939.0520483-.6666872-.1743946-.1402933-.226443-.0784231-.5231151.1406872-.6746054l2.686-1.779-3.714 2.144c-.2284896.1159529-.5076557.0404139-.646499-.1749349-.1388433-.2153487-.0924239-.5008047.107499-.6610651l8-5.669-9.664 5.579c-.2336556.130691-.5287926.0541466-.6694787-.1736308-.140686-.2277774-.0769932-.5259521.1444787-.6763692l3.661-2.41-4.5 2.6c-.2328603.1351428-.5309189.0616362-.6742423-.1662803-.1433233-.2279164-.080443-.5283964.1422423-.6797197l7.817-5.339-8.937 5.161c-.2341443.133112-.5316521.0568382-.672871-.1725078-.1412189-.2293459-.075396-.5293391.148871-.6784922l5.376-3.54-6.174 3.565c-.233204.1287421-.5263939.0520483-.6666872-.1743946-.1402933-.226443-.0784231-.5231151.1406872-.6746054l6.457-4.272-7.116 4.109c-.2335451.1328438-.5303244.0573638-.6720248-.1709163-.14170038-.2282801-.07765459-.5277351.1450248-.6780837l7.375-4.905-8.1 4.678c-.23252618.1307666-.52675914.0559509-.6685809-.1700024-.14182177-.2259533-.08127436-.5234503.1375809-.6759976l9.542-6.489-10.34 5.969c-.23170998.1276221-.52273121.0526794-.6639792-.1709853s-.08383998-.5186462.1309792-.6730147l10.421-7.152-11.2 6.468c-.23405687.1357068-.53360081.0606207-.67597038-.1694442-.14236958-.2300649-.07591293-.5316408.14997038-.6805558l7.649-5.052-8.056 4.649c-.23470287.1405531-.53878699.0663884-.6824238-.1664401-.14363681-.2328284-.07348967-.5378644.1574238-.6845599l7.442-4.9-7.722 4.456c-.23377341.1287456-.52745054.051198-.66718798-.1761759-.13973743-.2273739-.07626999-.5244122.14418798-.6748241l5.419-3.542-5.606 3.239c-.23554945.1441463-.54335368.0700494-.6875-.1655s-.07004945-.5433537.1655-.6875l2.232-1.446-2.21 1.283c-.23174266.1353654-.52902013.0636298-.67352428-.1625272-.14450415-.2261571-.08468698-.5260601.13552428-.6794728l6.738-4.732-6.881 3.974c-.2295527.1314921-.52180501.0614183-.6667704-.1598726-.14496539-.2212908-.0924688-.5172061.1197704-.6751274l5.912-4.365-6.043 3.486c-.22920156.1303039-.52019781.0602449-.66497921-.1600976-.14478139-.2203425-.09359105-.5152436.11697921-.6739024l3.653-2.706-3.482 2.01c-.22838347.1299972-.51842376.0610156-.66382816-.1578813-.14540441-.2188968-.09654436-.5129964.11182816-.6731187l2.062-1.561-1.838 1.06c-.22459856.1270093-.5089574.0622563-.65641904-.1494768-.14746165-.2117332-.10959197-.5009023.08741904-.6675232l1.578-1.307-1.267.731c-.21661269.1233895-.49102367.0683675-.64332306-.1289924s-.1359526-.4767549.03832306-.6550076l1.016-1.031-.533.308c-.1663865.0958698-.37297778.0879783-.53156595-.020305-.15858818-.1082833-.24114994-.2978243-.21243405-.487695l.2-1.326c-.19138-.056897-.33056522-.2221951-.35404494-.4204684-.02347973-.1982732.0732476-.3915084.24604494-.4915316l.478-.276c.1663865-.0958698.37297778-.0879783.53156595.020305.15858818.1082833.24114994.2978243.21243405.487695l-.171 1.128 2.839-1.638c.21669545-.1249531.49238764-.0705435.64536407.1273666.15297642.19791.13616054.4784164-.03936407.6566334l-1.017 1.026 3.147-1.817c.22502404-.1298327.51198925-.0657046.6603401.147566s.10865701.5046224-.0913401.670434l-1.579 1.312 3.692-2.131c.2283835-.1299972.5184238-.0610156.6638282.1578813.1454044.2188968.0965443.5129964-.1118282.6731187l-2.064 1.562 4.15-2.395c.22978-.1349572.525025-.0659893.6712375.156798s.0920063.5210957-.1232375.678202l-3.653 2.7 6.133-3.541c.2295527-.1314921.521805-.0614183.6667704.1598726.1449654.2212908.0924688.5172061-.1197704.6751274l-5.911 4.365 9.01-5.2c.2314518-.1313128.5252013-.0583356.6682918.1660259.1430904.2243616.0853808.5214879-.1312918.6759741l-6.743 4.73 9.655-5.574c.2355494-.1441463.5433537-.0700494.6875.1655s.0700494.5433537-.1655.6875l-2.238 1.446 3.984-2.3c.2347034-.1364868.5354374-.0607325.6774741.1706544.1420368.2313868.073465.5338394-.1544741.6813456l-5.414 3.542 6.78-3.915c.2349972-.1452509.5432491-.0724972.6885.1625s.0724972.5432491-.1625.6885l-7.444 4.9 7.742-4.469c.2340569-.1357068.5336008-.0606207.6759704.1694442s.0759129.5316408-.1499704.6805558l-7.646 5.051 7.958-4.595c.2327682-.1379387.5330334-.0656905.677577.1630348s.0809181.5309351-.143577.6819652l-10.426 7.153 10.959-6.328c.2325262-.1307666.5267591-.0559509.6685809.1700024s.0812744.5234503-.1375809.6759976l-9.546 6.492 10.014-5.781c.2335451-.1328438.5303244-.0573638.6720248.1709163s.0776546.5277351-.1450248.6780837l-7.37 4.9 7.685-4.436c.2336556-.130691.5287926-.0541466.6694787.1736308.140686.2277774.0769932.5259521-.1444787.6763692l-6.466 4.277 6.741-3.887c.2336556-.130691.5287926-.0541466.6694787.1736308.140686.2277774.0769932.5259521-.1444787.6763692l-5.369 3.532 5.585-3.224c.2328603-.1351428.5309189-.0616362.6742423.1662803.1433233.2279164.080443.5283964-.1422423.6797197l-7.822 5.341 8.216-4.743c.2347029-.1405531.538787-.0663884.6824238.1664401.1436368.2328284.0734897.5378644-.1574238.6845599l-3.662 2.4 3.812-2.2c.2313261-.1333882.5266402-.061466.670727.1633522.1440867.2248181.0860887.5231794-.131727.6776478l-8 5.67 8.493-4.9c.234721-.145527.542973-.073221.6885.1615s.073221.542973-.1615.6885l-2.677 1.773 2.8-1.615c.2321092-.1290838.5246372-.0541763.6661393.170578.1415021.2247542.0825963.5209195-.1341393.674422l-4.217 2.888 4.437-2.561c.2322938-.1351768.5298928-.0625367.6737842.164462.1438914.2269988.0825928.5271392-.1387842.679538l-3.688 2.559 3.894-2.248c.2277686-.1327124.5194462-.0657934.6665848.1529333s.0991876.5141157-.1095848.6750667l-5.164 4.009 5.626-3.249c.2281943-.1273484.5159664-.0574929.6603781.1603041.1444117.2177969.0967481.5100652-.1093781.6706959l-2.45 1.854 2.64-1.524c.2207276-.1320893.5056598-.0751513.6586724.1316224.1530126.2067738.124171.4959044-.0666724.6683776l-1.5 1.4 1.694-.976c.1549945-.0985297.351531-.1041539.5119064-.0146489.1603754.0895049.2587712.2597296.2562855.4433739s-.1054527.3511436-.2681919.436275l-5.439 3.14c-.2206356.1300292-.503851.072325-.6560244-.1336626s-.1241014-.4936554.0650244-.6663374l1.495-1.4-5.809 3.353c-.2283835.1299972-.5184238.0610156-.6638282-.1578813-.1454044-.2188968-.0965443-.5129964.1118282-.6731187l2.441-1.849-5.041 2.91c-.0758413.0442906-.1621742.0674278-.25.067z" fill="#a083ee"/><path id="Shape" d="m4.922 48.068c5.00173394 7.1646513 13.1821942 11.4411063 21.92 11.459 8.3009304-.015991 16.1392799-3.8252204 21.281-10.342 4.965-6.369 5.611-13.479 5.611-21.241-.0013916-.070077-.0199321-.1387457-.054-.2.015-.265.048-.526.055-.793-.4-15.365-12.952-25.723-26.167-26.3-.2353798-.1090228-.5044063-.12017229-.748-.031-7.5267996-.1310437-14.7306795 3.05329065-19.7 8.708-4.36963484 4.7288372-6.76186481 10.9518557-6.685 17.39-.1031348.0829171-.16605568.2058493-.173.338.004 7.516.202 14.55 4.66 21.012zm21.592-20.59c.02.058.03.124.051.181.79 2.1 2.677 4.185 3.884 6.071l5.77 9.02c1.177 1.84 3.008 3.887 3.8 5.934.011.029.017.061.027.091-3.8982181 2.4193864-8.3980479 3.6942112-12.986 3.679-13.633.002-25.045-11.454-25.312-24.976zm-1.343 30.906c-8.542932-.7240909-16.15963659-5.6674448-20.3-13.175-1.61055539-3.037768-2.5831311-6.3727022-2.858-9.8 4.027 11.31 15.342 20.036 29.209 17.785 3.2059259-.5189342 6.2883499-1.6258539 9.092-3.265.1128426 1.5722807.1051535 3.1508931-.023 4.722-4.5167086 2.8160147-9.8116799 4.1232983-15.12 3.733zm24.107-13.292c-1.8080509 3.3908885-4.3726437 6.3198964-7.495 8.56.1933469-1.543225.1893144-3.1047942-.012-4.647 4.6383462-3.1477625 8.1887901-7.6539338 10.164-12.9-.3083884 3.1369286-1.2100473 6.1866871-2.657 8.987zm2.987-18.041c-.1722588 8.2654868-4.2021964 15.9742088-10.891 20.833-.616-1.218-1.742-2.477-2.408-3.518-3.455-5.4-7.2-10.706-10.4-16.261-1.734-3.007-.838-7.925-.838-11.7v-14.837c13.724.459 24.184 11.965 24.537 25.483zm-25.991-25.489v15.009c0 2.52-.5 5.852-.224 8.665l-17.116-15.936c4.5310282-4.76844676 10.7648146-7.55028294 17.34-7.738zm-18.209 8.687 17.477 16.273h-23.795c.12917429-5.998063 2.36592997-11.7591781 6.318-16.273z" fill="#262626"/></g></svg>