<svg height="507pt" viewBox="0 -2 507.37928 507" width="507pt" xmlns="http://www.w3.org/2000/svg"><path d="m249.347656 143.792969c-1.835937 0-3.464844-1.175781-4.046875-2.917969s.019531-3.660156 1.488281-4.761719l12.464844-9.320312-23.617187 13.652343c-1.9375 1.125-4.410157.566407-5.671875-1.28125-1.257813-1.851562-.878906-4.359374.875-5.75l42.898437-34.175781-55.980469 32.335938c-1.976562 1.132812-4.5.511719-5.722656-1.414063-1.226562-1.925781-.71875-4.472656 1.148438-5.78125l21.230468-14.789062-25.871093 14.960937c-1.976563 1.117188-4.484375.496094-5.703125-1.417969-1.222656-1.914062-.730469-4.449218 1.121094-5.769531l30.625-21.539062-33.585938 19.398437c-1.988281 1.207032-4.574219.605469-5.820312-1.359375-1.246094-1.960937-.691407-4.558593 1.246093-5.84375l26.863281-18.636719-27.972656 16.152344c-1.960937 1.195313-4.511718.628906-5.78125-1.285156-1.265625-1.910156-.792968-4.484375 1.070313-5.820312l51.054687-38.621094-51.773437 29.863281c-1.960938 1.167969-4.496094.582031-5.746094-1.332031-1.25-1.910156-.777344-4.46875 1.078125-5.800782l37.472656-27.578124-34.6875 20.027343c-1.945312 1.117188-4.421875.535157-5.671875-1.328125-1.246093-1.863281-.839843-4.375.933594-5.746094l33.484375-25.789062-26.238281 15.15625c-1.972657 1.179688-4.523438.585938-5.773438-1.34375s-.746093-4.5 1.140625-5.816406l7.449219-5.382813c-1.683594-.226562-3.074219-1.429687-3.539063-3.0625-.464843-1.632812.082032-3.386719 1.394532-4.464843l13.089844-10.667969c-.453126-.34375-.835938-.777344-1.125-1.269531-1.175782-2.042969-.480469-4.652344 1.5625-5.828126l28.492187-16.453124c1.925781-1.097657 4.367187-.542969 5.628906 1.28125 1.257813 1.824218.910157 4.308593-.800781 5.714843l-.492188.410157 16.671876-9.640626c1.96875-1.128906 4.472656-.523437 5.707031 1.378907 1.230469 1.902343.761719 4.4375-1.070313 5.769531l-.417968.308594 9.691406-5.605469c1.949218-1.125 4.433594-.546875 5.683594 1.324219s.832031 4.390625-.957032 5.757812l-33.492187 25.796875 45.507812-26.277343c1.960938-1.132813 4.46875-.535157 5.707031 1.363281 1.238282 1.898437.78125 4.429687-1.046874 5.773437l-37.460938 27.605469 44.757812-25.847656c1.945313-1.117188 4.421876-.539063 5.667969 1.324219 1.25 1.863281.839844 4.375-.933593 5.75l-51.089844 38.628906 57.3125-33.082032c1.980468-1.15625 4.519531-.535156 5.75 1.402344 1.226562 1.9375.703125 4.5-1.1875 5.796875l-26.84375 18.636719 27.621094-15.945312c1.976562-1.121094 4.484374-.5 5.703124 1.414062 1.222657 1.914062.730469 4.449219-1.121093 5.769531l-30.652344 21.53125 30.347656-17.511719c1.976563-1.136718 4.5-.515624 5.722657 1.410157 1.222656 1.925781.71875 4.472656-1.148438 5.78125l-21.207031 14.808593 18.203125-10.53125c1.929687-1.101562 4.386718-.535156 5.640625 1.304688 1.25 1.839844.878906 4.332031-.855469 5.726562l-42.886719 34.132813 36.691407-21.164063c1.953124-1.101562 4.425781-.503906 5.660156 1.367188 1.234375 1.875.808594 4.382812-.976563 5.742188l-12.484375 9.335937 2.441406-1.40625c1.914063-1.113281 4.363282-.578125 5.636719 1.234375 1.273438 1.808594.949219 4.292969-.746093 5.71875l-13.910157 11.777344c1.378907.71875 2.253907 2.136718 2.289063 3.691406.03125 1.554688-.785156 3.003906-2.132813 3.78125l-28.589843 16.496094c-1.914063 1.113281-4.359376.574218-5.632813-1.234375-1.273437-1.8125-.949219-4.296875.746094-5.71875l5.355469-4.53125-23.730469 13.695312c-.648438.371094-1.382813.5625-2.132813.554688zm0 0" fill="#cad0d7"/><path d="m427.71875 280.222656c-1.835938 0-3.464844-1.175781-4.046875-2.917968-.578125-1.742188.019531-3.660157 1.488281-4.761719l13.183594-9.832031-24.242188 13.996093c-1.941406 1.148438-4.445312.585938-5.707031-1.28125-1.265625-1.871093-.855469-4.402343.9375-5.777343l40.839844-32-53.042969 30.609374c-1.960937 1.125-4.453125.527344-5.691406-1.363281-1.234375-1.886719-.789062-4.414062 1.023438-5.761719l41.359374-30.472656-48.296874 27.878906c-1.976563 1.207032-4.550782.617188-5.808594-1.328124-1.253906-1.945313-.730469-4.535157 1.183594-5.839844l39.371093-28.21875-42.945312 24.746094c-1.964844 1.148437-4.484375.550781-5.726563-1.355469-1.242187-1.90625-.769531-4.453125 1.074219-5.785157l45.226563-33.058593-46.574219 26.894531c-2 1.25-4.632813.644531-5.878907-1.355469-1.25-2-.640624-4.628906 1.355469-5.878906l5.4375-3.652344-3.320312 1.910157c-1.941407 1.109374-4.410157.53125-5.65625-1.324219-1.246094-1.859375-.851563-4.363281.910156-5.742188l46.199219-35.839843-42.597656 24.570312c-1.980469 1.285156-4.625.722656-5.914063-1.253906-1.285156-1.980469-.722656-4.628906 1.253906-5.914063l20.234375-14.839843-13.3125 7.679687c-1.859375 1.058594-4.210937.578125-5.507812-1.125-1.292969-1.703125-1.128906-4.101563.386718-5.609375l22.9375-22.65625h-.066406c-2.042968 1.179688-4.65625.476562-5.832031-1.566406-1.179687-2.042969-.476563-4.652344 1.566406-5.832032l28.808594-16.621093c1.855469-1.058594 4.210937-.578125 5.503906 1.125 1.296875 1.703125 1.128907 4.097656-.386719 5.605469l-22.9375 22.648437 51.917969-29.96875c1.960938-1.132813 4.46875-.535156 5.707031 1.363281 1.238282 1.894532.777344 4.429688-1.046874 5.769532l-20.164063 14.882812 29.21875-16.871094c1.941406-1.105468 4.410156-.527344 5.65625 1.328125s.847656 4.359375-.914063 5.738281l-46.207031 35.839844 56.839844-32.816406c1.292969-.808594 2.917969-.867188 4.265625-.152344 1.34375.714844 2.207031 2.097656 2.261719 3.621094.050781 1.523438-.710938 2.957031-2.003907 3.765625l-5.429687 3.652344 7.390625-4.265625c1.964844-1.148438 4.484375-.550782 5.726562 1.355468 1.242188 1.90625.769532 4.453126-1.074218 5.785157l-45.226563 33.066406 49.007813-28.296875c1.96875-1.140625 4.488281-.535156 5.722656 1.378906 1.234375 1.910156.75 4.457032-1.097656 5.78125l-39.367188 28.273438 39.964844-23.042969c1.960938-1.164063 4.496094-.578125 5.746094 1.332031 1.25 1.914063.773437 4.46875-1.082032 5.804688l-41.316406 30.453125 39.195313-22.585938c1.933593-1.09375 4.386719-.519531 5.632812 1.324219 1.246094 1.84375.863281 4.335938-.871093 5.722656l-40.851563 32.015625 35.039063-20.222656c1.957031-1.113281 4.4375-.511719 5.675781 1.367187 1.234375 1.878907.796875 4.394532-1 5.75l-13.148438 9.804688 3.410157-1.988281c1.914062-1.113281 4.363281-.574219 5.636718 1.234375 1.273438 1.8125.949219 4.296875-.746094 5.71875l-14.984374 12.707031c.679687.375 1.242187.929687 1.621093 1.605469 1.179688 2.039062.484375 4.648437-1.550781 5.828125l-27.929688 16.09375c-1.910156 1.089843-4.335937.546875-5.601562-1.25-1.265625-1.800781-.957031-4.265625.710938-5.695313l6.167968-5.242187-25.597656 14.757812c-.636719.371094-1.355469.570313-2.09375.578125zm0 0" fill="#ffd67b"/><path d="m60.746094 278.992188c-1.828125-.019532-3.4375-1.203126-4.007813-2.941407-.566406-1.734375.035157-3.640625 1.496094-4.738281l14.507813-10.503906-23.484376 13.542968c-1.941406 1.085938-4.390624.5-5.628906-1.347656-1.238281-1.847656-.847656-4.335937.894532-5.71875l43.699218-33.800781-54.230468 31.308594c-1.949219 1.109375-4.421876.523437-5.664063-1.34375-1.242187-1.871094-.824219-4.378907.953125-5.746094l50.183594-38.03125-57.050782 32.945313c-1.976562 1.121093-4.484374.5-5.703124-1.417969-1.222657-1.914063-.730469-4.449219 1.121093-5.765625l32.296875-22.707032-34.21875 19.753907c-1.96875 1.125-4.476562.507812-5.703125-1.398438-1.226562-1.910156-.746093-4.445312 1.09375-5.769531l35.953125-25.601562-35.933594 20.769531c-1.945312 1.144531-4.445312.574219-5.703124-1.300781-1.257813-1.875-.835938-4.402344.957031-5.773438l49.222656-38.015625-47.089844 27.1875c-1.976562 1.136719-4.5.515625-5.722656-1.410156s-.71875-4.472657 1.148437-5.78125l10.414063-7.28125-4.269531 2.46875c-1.953125 1.125-4.449219.539062-5.691406-1.347657-1.246094-1.882812-.804688-4.40625 1-5.761718l16.296874-12.195313-6.980468 4.039063c-1.894532 1.078125-4.300782.554687-5.574219-1.214844-1.273437-1.773438-1.007813-4.21875.617187-5.671875l16.519532-14.644531c-1.648438-.464844-2.863282-1.875-3.074219-3.574219-.214844-1.703125.609375-3.367187 2.09375-4.226563l28.519531-16.453124c1.898438-1.097657 4.320313-.578126 5.601563 1.203124s1.003906 4.246094-.644531 5.695313l-11.699219 10.359375 32.675781-18.867188c1.953125-1.128906 4.449219-.539062 5.691406 1.34375 1.242188 1.882813.804688 4.410157-1 5.761719l-16.296875 12.179688 27.160157-15.6875c1.980468-1.132813 4.5-.511719 5.722656 1.414062 1.226562 1.925781.71875 4.472657-1.148438 5.78125l-10.460937 7.3125 16.988281-9.804687c1.945312-1.140625 4.445312-.570313 5.703125 1.304687s.835937 4.402344-.957031 5.769531l-49.222656 38.007813 58.753906-33.917969c1.976562-1.179687 4.53125-.578125 5.773437 1.359375 1.242188 1.933594.726563 4.507813-1.167969 5.816407l-35.957031 25.597656 39.253907-22.65625c1.972656-1.117188 4.480468-.496094 5.703124 1.417968 1.21875 1.914063.726563 4.449219-1.121093 5.769532l-32.28125 22.679687 33.277343-19.199219c1.949219-1.109374 4.425782-.519531 5.667969 1.347657 1.238281 1.867187.820313 4.378906-.957031 5.742187l-50.183594 38.027344 50.152344-28.953125c1.941406-1.117187 4.421875-.539063 5.667969 1.324219 1.246093 1.863281.839843 4.375-.933594 5.75l-43.714844 33.695312 39.371094-22.714844c1.964844-1.128906 4.472656-.523437 5.703125 1.378907 1.234375 1.902343.765625 4.4375-1.070312 5.773437l-14.503907 10.503906 7.207031-4.15625c1.882813-1.109374 4.300782-.617187 5.601563 1.140626 1.296875 1.757812 1.058594 4.210937-.554687 5.6875l-20.746094 19.335937.359375-.207031c1.320312-.773438 2.953125-.78125 4.28125-.019532 1.328125.765626 2.144531 2.179688 2.140625 3.710938s-.824219 2.941406-2.15625 3.699219l-32.769532 18.9375c-1.878906 1.089843-4.285156.59375-5.574218-1.160157-1.292969-1.75-1.058594-4.191406.539062-5.667968l20.753906-19.363282-45.753906 26.453126c-.648437.375-1.386718.570312-2.132812.5625zm0 0" fill="#ac92ea"/><path d="m145.226562 502.480469c-1.839843 0-3.46875-1.171875-4.050781-2.914063-.578125-1.742187.019531-3.664062 1.488281-4.765625l.511719-.375-10.65625 6.152344c-1.9375 1.117187-4.410156.546875-5.664062-1.304687-1.253907-1.851563-.863281-4.359376.894531-5.742188l33.003906-25.890625-46.480468 26.820313c-1.96875 1.140624-4.488282.535156-5.722657-1.375-1.234375-1.914063-.753906-4.457032 1.097657-5.785157l28.375-20.410156-34.988282 20.179687c-1.949218 1.136719-4.445312.554688-5.695312-1.324218s-.824219-4.40625.976562-5.765625l50.210938-38.128907-57.34375 33.101563c-1.96875 1.140625-4.488282.535156-5.722656-1.375-1.238282-1.914063-.753907-4.457031 1.097656-5.785156l40.105468-28.839844-42.582031 24.574219c-1.949219 1.117187-4.433593.53125-5.675781-1.347656-1.242188-1.875-.816406-4.390626.976562-5.75l49.832032-37.480469-50.378906 29.117187c-1.988282 1.132813-4.515626.496094-5.730469-1.445312-1.214844-1.9375-.679688-4.492188 1.207031-5.785156l4.8125-3.265626-1.578125.921876c-1.945313 1.140624-4.445313.570312-5.703125-1.304688s-.835938-4.402344.957031-5.769531l38.742188-29.988281-33.066407 19.074218c-1.941406 1.121094-4.421874.550782-5.675781-1.308594-1.253906-1.859374-.855469-4.371093.914063-5.75l17.066406-12.945312-6.824219 3.960938c-1.917969 1.101562-4.363281.554687-5.628906-1.257813-1.265625-1.816406-.933594-4.296875.761719-5.714844l15.054687-12.527343c-.53125-.359376-.96875-.832032-1.28125-1.390626-1.171875-2.035156-.480469-4.640624 1.554688-5.820312l27.785156-16.042969c1.914063-1.082031 4.339844-.53125 5.601563 1.277344 1.257812 1.804687.933593 4.273437-.746094 5.695313l-4.082032 3.414062 21.949219-12.671875c1.949219-1.136719 4.449219-.554687 5.699219 1.324219s.820312 4.40625-.980469 5.765625l-17.066406 12.972656 29.277344-16.90625c1.941406-1.085937 4.390625-.5 5.628906 1.347656 1.238281 1.847657.851563 4.335938-.890625 5.71875l-38.75 30.011719 50.34375-29.074219c1.984375-1.085937 4.46875-.4375 5.667969 1.476563 1.199219 1.914062.699219 4.433594-1.144531 5.742187l-4.785157 3.234375 7.910157-4.554687c1.949218-1.121094 4.433593-.53125 5.675781 1.34375 1.242187 1.875.816406 4.394531-.976563 5.753906l-49.859375 37.546875 55.894531-32.265625c1.96875-1.140625 4.488282-.535156 5.722657 1.378906 1.234375 1.910157.753906 4.457031-1.097657 5.78125l-40.105468 28.84375 41.8125-24.132812c1.949218-1.132813 4.445312-.554688 5.695312 1.324219 1.25 1.878906.824219 4.40625-.976562 5.765624l-50.277344 38.050782 50.003906-28.867188c1.96875-1.140625 4.488282-.535156 5.722656 1.375 1.234376 1.914063.753907 4.457032-1.097656 5.785156l-28.398437 20.480469 24.839843-14.335937c1.9375-1.117188 4.410157-.546875 5.664063 1.304687 1.253906 1.851563.863281 4.359375-.894531 5.742188l-32.886719 25.769531 24.386719-14.070312c1.960937-1.121094 4.453125-.523438 5.691406 1.363281 1.238281 1.890625.789062 4.414062-1.023438 5.761719l-7.765624 5.734374c1.757812.324219 3.128906 1.707032 3.433593 3.464844.304688 1.757813-.515625 3.523438-2.058593 4.421875l-55.601563 32.101563c-.648437.378906-1.382813.578125-2.132813.578125zm0 0" fill="#eb5463"/><path d="m355.964844 501.644531c-1.820313.007813-3.441406-1.140625-4.042969-2.855469-.601563-1.71875-.046875-3.625 1.378906-4.753906l31.054688-24.746094-45.578125 26.308594c-1.960938 1.132813-4.46875.535156-5.707032-1.363281-1.238281-1.898437-.777343-4.433594 1.046876-5.773437l32.632812-23.96875-40.660156 23.476562c-1.964844 1.113281-4.457032.507812-5.6875-1.386719-1.230469-1.890625-.773438-4.417969 1.042968-5.757812l38.757813-28.160157-44.464844 25.660157c-1.960937 1.121093-4.453125.523437-5.691406-1.363281-1.234375-1.890626-.789063-4.414063 1.023437-5.761719l47.335938-34.9375-51.296875 29.613281c-1.972656 1.078125-4.445313.4375-5.648437-1.460938-1.203126-1.902343-.726563-4.410156 1.09375-5.734374l23.960937-16.570313-23.894531 13.789063c-1.980469 1.117187-4.488282.488281-5.703125-1.433594-1.214844-1.921875-.710938-4.457032 1.148437-5.769532l18.917969-13.027343-16.511719 9.539062c-1.96875 1.128907-4.472656.523438-5.707031-1.382812-1.230469-1.902344-.761719-4.433594 1.074219-5.769531l31.316406-22.707032-27.980469 16.152344c-1.96875 1.113281-4.460937.5-5.6875-1.402344-1.222656-1.898437-.753906-4.421875 1.070313-5.753906l16.535156-11.863281-10.160156 5.863281c-1.953125 1.101562-4.425782.503906-5.660156-1.367188-1.234376-1.875-.808594-4.382812.972656-5.742187l11.949218-8.976563-1.535156.855469c-1.925781 1.113281-4.378906.5625-5.644531-1.261719-1.269531-1.828124-.921875-4.320312.796875-5.730468l13.5-11.089844c-1.21875-.824219-1.925781-2.21875-1.875-3.6875s.855469-2.808594 2.128906-3.542969l28.570313-16.410156c1.921875-1.113281 4.378906-.5625 5.644531 1.261719 1.265625 1.824218.917969 4.316406-.796875 5.726562l-2.296875 1.894532 19.183594-11.089844c1.953125-1.128906 4.449218-.539063 5.691406 1.34375 1.246094 1.882812.808594 4.410156-1 5.761718l-11.996094 8.976563 23.203125-13.363281c1.964844-1.109375 4.460938-.496094 5.683594 1.402344 1.226563 1.902343.757813 4.425781-1.066406 5.757812l-16.566407 11.855469 24.347657-14.054688c1.964843-1.128906 4.472656-.523437 5.703125 1.378907 1.234375 1.902343.761718 4.4375-1.070313 5.769531l-31.28125 22.683593 38.269531-22.101562c1.988282-1.179688 4.550782-.5625 5.78125 1.390625 1.234376 1.953125.691407 4.53125-1.222656 5.820313l-18.9375 13.039062 21.933594-12.640625c1.976562-1.117187 4.484375-.484375 5.703125 1.4375 1.214844 1.917969.710937 4.457031-1.148437 5.765625l-23.953126 16.554688 26.019532-15.019532c1.957031-1.121094 4.453125-.523437 5.6875 1.367188 1.238281 1.886718.789062 4.410156-1.019532 5.757812l-47.371093 34.988282 49.230469-28.414063c1.960937-1.117187 4.457031-.511719 5.6875 1.382813 1.230468 1.894531.773437 4.417968-1.046876 5.757812l-38.765624 28.160156 37.316406-21.546875c1.960937-1.132812 4.46875-.535156 5.707031 1.363281 1.238281 1.894532.777344 4.429688-1.046875 5.769532l-32.605469 23.953125 28.011719-16.210938c1.9375-1.125 4.410156-.566406 5.671875 1.285157 1.257813 1.847656.878906 4.355468-.875 5.746093l-31.0625 24.746094 21.445313-12.375c1.945312-1.101563 4.414062-.511719 5.652343 1.347656 1.238281 1.863281.832031 4.363281-.933593 5.734375l-9.941407 7.605469c1.609375.511719 2.769531 1.921875 2.953125 3.601563.183594 1.675781-.640625 3.308593-2.097656 4.15625l-44.9375 25.941406c-1.945312 1.101562-4.414062.511718-5.652344-1.347656-1.238281-1.863282-.832031-4.363282.933594-5.738282l1.3125-1.015625-14.054688 8.125c-.667968.382813-1.429687.578125-2.199218.5625zm0 0" fill="#fa6c51"/><path d="m263.503906 356.605469c-1.8125.003906-3.429687-1.136719-4.03125-2.847657-.605468-1.710937-.0625-3.613281 1.351563-4.746093l27.25-21.921875-48.769531 28.15625c-1.976563 1.121094-4.480469.5-5.703126-1.414063-1.222656-1.914062-.726562-4.449219 1.121094-5.769531l21.828125-15.359375-31.445312 18.148437c-1.964844 1.128907-4.472657.523438-5.703125-1.378906-1.234375-1.902344-.765625-4.4375 1.070312-5.769531l47.734375-34.5-58.445312 33.738281c-1.996094 1.136719-4.535157.488282-5.742188-1.46875-1.203125-1.957031-.640625-4.519531 1.269531-5.792968l.53125-.339844-3.960937 2.277344c-1.96875 1.144531-4.488281.539062-5.722656-1.375-1.234375-1.914063-.753907-4.457032 1.097656-5.785157l63.660156-45.753906-70.980469 40.960937c-1.988281 1.175782-4.550781.558594-5.78125-1.390624-1.234374-1.953126-.691406-4.53125 1.222657-5.820313l48.640625-33.28125-51.199219 29.542969c-1.976563 1.15625-4.515625.542968-5.746094-1.386719-1.234375-1.929687-.722656-4.488281 1.15625-5.796875l60.652344-42.71875-62.460937 36.0625c-1.992188 1.214844-4.589844.605469-5.835938-1.367188-1.242188-1.976562-.671875-4.582031 1.285156-5.851562l42.558594-29.074219-41.703125 24.039063c-1.964844 1.117187-4.457031.507812-5.6875-1.386719-1.230469-1.890625-.773437-4.417969 1.042969-5.757813l58.164062-42.179687-55.339844 31.949219c-1.972656 1.121094-4.480468.496094-5.703124-1.417969-1.21875-1.914063-.726563-4.449219 1.121093-5.765625l32.753907-22.929688-26.457032 15.273438c-1.957031 1.140625-4.460937.550781-5.707031-1.339844-1.246094-1.894531-.796875-4.429687 1.023437-5.777344l33.597657-25.070312-23.101563 13.335938c-1.890625 1.09375-4.300781.578124-5.582031-1.1875-1.285156-1.769532-1.023437-4.21875.597656-5.679688l23.203125-20.789062c-1.878906-.109376-3.464844-1.441407-3.902344-3.273438-.433593-1.832031.386719-3.734375 2.015626-4.679688l30.722656-17.707031c1.894531-1.109375 4.324218-.601562 5.613281 1.179688 1.289063 1.777343 1.015625 4.246093-.632813 5.699219l-20.648437 18.492187 50.277344-29.011719c1.957031-1.140625 4.464843-.550781 5.710937 1.339844s.792969 4.429688-1.027344 5.777344l-33.601562 25.042968 48.359375-27.921874c1.980469-1.175782 4.535156-.566407 5.773437 1.378906 1.238282 1.941406.710938 4.519531-1.191406 5.816406l-32.761718 22.9375 41.8125-24.125c1.964843-1.117188 4.457031-.507812 5.6875 1.382812 1.230468 1.894532.773437 4.421876-1.042969 5.761719l-58.207031 42.230469 67.925781-39.253906c1.988281-1.152344 4.53125-.527344 5.753906 1.417968 1.222656 1.945313.6875 4.511719-1.214844 5.800782l-42.554687 29.082031 47.113281-27.203125c1.976563-1.15625 4.511719-.542969 5.746094 1.386719 1.234375 1.929687.722656 4.488281-1.15625 5.796875l-60.585938 42.667968 64.5625-37.28125c1.984375-1.136718 4.507813-.503906 5.726563 1.425782 1.21875 1.933594.699218 4.480468-1.179688 5.785156l-48.648437 33.414062 49.621093-28.644531c1.964844-1.101562 4.445313-.488281 5.671876 1.402344 1.222656 1.890625.765624 4.40625-1.046876 5.746094l-63.632812 45.707031 63.445312-36.632812c2.007813-1.238282 4.636719-.609376 5.871094 1.398437s.609375 4.636719-1.398437 5.871094l-2.449219 1.59375c1.996094-.582031 4.121094.359375 5.03125 2.226562.914062 1.867188.34375 4.121094-1.34375 5.335938l-47.738281 34.492187 42.164062-24.328125c1.96875-1.082031 4.441407-.453125 5.652344 1.441407 1.207031 1.894531.742187 4.402343-1.070313 5.734374l-21.878906 15.359376 13.695313-7.902344c1.933593-1.117188 4.398437-.558594 5.660156 1.285156 1.257813 1.839844.886719 4.34375-.855469 5.738281l-27.238281 21.929688 10.777344-6.21875c2.039062-1.160157 4.632812-.457031 5.804687 1.574219s.488282 4.628906-1.535156 5.8125l-58.632812 33.84375c-.652344.378906-1.390626.582031-2.144532.582031zm0 0" fill="#636c77"/><g fill="#262626"><path d="m51.527344 276.535156c1.867187 38.257813 14.273437 75.253906 35.839844 106.90625-12.632813 13.019532-19.464844 30.59375-18.941407 48.726563.152344 80.691406 105.019531 86.75 138.691407 30.71875 29.449218 6.214843 59.878906 6.191406 89.316406-.074219 27.691406 61.164062 138.414062 47.042969 142.722656-32.941406 0-.230469-.121094-.367188-.144531-.570313.042969-.144531.078125-.292969.101562-.445312-.464843-17.480469-7.417969-34.160157-19.507812-46.796875 22.058593-31.847656 34.6875-69.277344 36.429687-107.980469-.023437-.273437-.097656-.542969-.214844-.792969 29.535157-8.890625 50.214844-35.484375 51.558594-66.296875-2.953125-54.816406-54.015625-75.5625-95.53125-64.785156-22.546875-27.34375-51.691406-48.492187-84.683594-61.4375.527344-3.078125.882813-6.183594 1.058594-9.300781 0-.242188-.113281-.386719-.144531-.589844.046875-.144531.078125-.292969.101563-.445312-5.042969-93.746094-148.738282-90.085938-148.914063 2.792968-.007813 2.988282.140625 5.976563.441406 8.949219-31.875 12.808594-60.113281 33.25-82.234375 59.53125-42.957031-12.085937-97.203125 11.269531-97.367187 68.121094-1.828125 31.929687 20.078125 60.351562 51.421875 66.710937zm140.253906 194.785156c-10.238281 13.957032-11.578125 10.972657-33.679688 16.816407-20.871093 5.523437-26.90625 9.0625-43.914062-.851563-16.886719-9.945312-28.632812-26.722656-32.203125-45.992187-3.566406-19.273438 1.398437-39.140625 13.609375-54.472657 2.738281-.851562 5.121094-2.746093 4.976562-5.058593 5.972657-4.480469 12.996094-5.171875 27-8.875 22.109376-5.855469 21.964844-9.121094 37.84375-1.921875 23.832032 11.121094 39.1875 34.90625 39.507813 61.203125-.3125 14.078125-4.898437 27.730469-13.140625 39.152343zm161.964844 22.183594c-29.796875-6.929687-50.839844-33.542968-50.714844-64.136718-.375-19.085938 8.140625-37.261719 23.046875-49.1875 14.90625-11.925782 34.507813-16.242188 53.046875-11.6875 27.9375 8.363281 47.210938 33.898437 47.589844 63.0625-2.203125 37.179687-32.648438 70.808593-72.96875 61.941406zm101.808594-344.402344c23.832031 11.117188 39.183593 34.90625 39.503906 61.199219-.316406 14.078125-4.898438 27.726563-13.144532 39.140625-10.238281 13.972656-11.578124 10.984375-33.679687 16.828125-20.863281 5.523438-26.90625 9.0625-43.914063-.851562-15.449218-9.019531-26.679687-23.816407-31.21875-41.121094-4.539062-17.308594-2.007812-35.707031 7.027344-51.148437 10.617188-18 15.359375-16.214844 37.546875-22.128907 22.121094-5.84375 21.992188-9.121093 37.878907-1.917969zm-190.25-139.417968c29.3125 7.175781 50.066406 33.261718 50.46875 63.433594-2.082032 35.339843-28.9375 67.125-67.175782 62.851562-32.480468-4.402344-56.65625-32.214844-56.492187-64.992188.050781-38.066406 34.296875-70.425781 73.199219-61.292968zm-84.171876 81.140625c15.179688 69.976562 122.179688 67.203125 143.488282.417969 29.003906 12.207031 54.679687 31.152343 74.886718 55.273437-25.582031 10.679687-41.890624 36.078125-40.957031 63.785156.101563 52.582031 44.6875 73.453125 85.058594 66.152344-1.671875 35.175781-12.558594 69.292969-31.574219 98.933594-42.972656-32.230469-121.589844-12.382813-121.742187 56.277343-.089844 8.65625 1.277343 17.269532 4.042969 25.472657-27.59375 5.488281-56.042969 4.996093-83.429688-1.453125 3.796875-8.460938 5.976562-17.5625 6.433594-26.828125-3.585938-66.558594-78.089844-82.910157-120.320313-53.546875-19.15625-28.878906-30.425781-62.269532-32.691406-96.851563 39.117187 2.824219 82.109375-21.417969 84.753906-70.511719 0-.203124-.109375-.324218-.136719-.503906-.027343-.179687.121094-.289062.109376-.453125-.398438-26.925781-16.617188-51.089843-41.386719-61.660156 19.863281-23.691406 45.03125-42.367187 73.464843-54.503906zm-89.445312 56.730469c26.59375 9.183593 44.5625 34.074218 44.902344 62.207031-2.238282 37.546875-32.546875 70.28125-72.933594 62.011719-.402344-.074219-.777344-.203126-1.171875-.296876-1.441406-1.144531-3.296875-1.644531-5.117187-1.375-26.691407-9.230468-44.566407-34.394531-44.503907-62.632812-.460937-19.597656 8.507813-38.222656 24.113281-50.085938 15.605469-11.859374 35.953126-15.515624 54.710938-9.828124zm0 0"/><path d="m345.261719 267.523438c0-.144532-.09375-.21875-.109375-.347657-.015625-.128906.136718-.289062.128906-.453125-6.179688-115.308594-182.496094-111.136718-183.015625 2.910156-.539063 117 176.945313 110.269532 182.996094-2.109374zm-69.117188-76.695313c33.59375 11.800781 56.253907 43.316406 56.746094 78.925781-2.835937 47.453125-41.882813 90.28125-93.585937 78.839844-37.71875-8.957031-64.308594-42.703125-64.195313-81.46875-.035156-51.210938 49.226563-94.320312 101.035156-76.296875zm0 0"/><path d="m71.292969 212.195312c12.988281 2.320313 21.957031 22.972657 4.539062 27.035157-5.300781.554687-10.640625.554687-15.941406 0-4.703125 0-13.097656 7.097656-4.777344 7.097656 10.792969 0 23.339844 1.707031 32.84375-4.582031 5.78125-3.4375 9.410157-9.585938 9.625-16.308594.21875-6.722656-3.007812-13.09375-8.558593-16.894531-5.863282-3.78125-11.375-2.109375-17.59375-3.414063-9.933594-2.148437-7.886719-12.269531-7.742188-20.078125.144531-8.039062 1.417969-6.953125 8.96875-6.953125h16.589844c4.703125 0 13.097656-7.101562 4.777344-7.101562-9.324219-.5625-18.671876-.496094-27.988282.203125-15.019531 2.101562-15.035156 13.605469-14.710937 25.984375.375 14.671875 8.429687 12.953125 19.96875 15.011718zm0 0"/><path d="m242.351562 54.773438 5.238282-5.242188v52.746094h-8.609375c-2.558594 0-7.03125.757812-8.105469 3.566406-.984375 2.558594.851562 4.359375 3.546875 4.359375h34.136719c2.558594 0 7.03125-.75 8.105468-3.558594.980469-2.558593-.855468-4.367187-3.550781-4.367187h-13.167969v-65.953125c0-3.550781-10.734374.851562-11.824218 1.925781-5.691406 5.691406-11.378906 11.378906-17.066406 17.070312-2.886719 2.925782 8.957031 1.789063 11.296874-.546874zm0 0"/><path d="m422.082031 189.921875c1.117188-11.039063 11.371094-17.066406 18.855469-6.226563 3.484375 6.136719 3.800781 13.578126.855469 19.992188-5.640625 15.742188-19.953125 28.160156-31.4375 39.636719-1.347657 1.347656.195312 1.859375 1.527343 1.859375h34.132813c2.507813 0 13.933594-4.8125 8.089844-4.8125-10.582031 1.269531-21.273438 1.269531-31.855469 0h-2.003906c3.515625-.457032 6.644531-2.457032 8.53125-5.460938 3.695312-3.382812 7.117187-7.050781 10.242187-10.964844 7.320313-7.375 12.839844-16.335937 16.136719-26.1875 8.421875-32.691406-42.53125-32.972656-45.398438-4.523437-.171874 1.324219 11.964844.246094 12.324219-3.3125zm0 0"/><path d="m377.355469 429.257812c5.703125-2.9375 9.609375-8.480468 10.464843-14.839843.488282-5.105469-1.101562-10.191407-4.417968-14.109375-3.316406-3.914063-8.070313-6.320313-13.1875-6.675782-1.355469-1.195312-3.128906-1.808593-4.933594-1.707031h-8.53125c-2.628906 0-6.519531 2.03125-6.828125 4.914063-.347656 3.207031 3.320313 3.90625 5.675781 3.90625h8.53125c.628906-.019532 1.246094-.128906 1.84375-.3125 5.023438 2.050781 8.589844 6.601562 9.382813 11.96875.792969 5.367187-1.300781 10.757812-5.515625 14.175781-.976563-.230469-1.964844-.402344-2.960938-.511719-3.1875-.429687-6.335937 1.03125-8.066406 3.746094-.457031 1.1875-.277344 2.527344.480469 3.550781.753906 1.027344 1.980469 1.59375 3.25 1.507813 4.972656.238281 9.414062 3.179687 11.570312 7.664062 2.160157 4.484375 1.6875 9.789063-1.226562 13.824219-3.851563 5.027344-10.515625 3.824219-16.128907 3.824219-6.980468 0-9.566406 8.839844-1.160156 8.839844 11.757813 0 24.132813-1.09375 30.148438-13.003907 4.964844-9.714843 1.234375-21.621093-8.390625-26.761719zm0 0"/><path d="m168.972656 434.488281h-11.425781v-5.632812c0-3.414063-12.355469-1.210938-12.355469 3.3125v2.320312h-10.984375c-2.480469.382813-5.003906.382813-7.484375 0-8.847656-3.898437 4.652344-16.152343 7.476563-19.625l13.472656-16.625c4.933594-6.09375-6.773437-8.125-10.359375-3.703125l-17.996094 22.1875c-5.359375 6.605469-12.910156 15.207032-4.605468 23.125 5.972656 5.726563 17.664062 3.746094 25.25 3.746094h5.230468v22.699219c0 3.414062 12.355469 1.210937 12.355469-3.3125v-19.378907h10.351563c7.082031 0 9.472656-9.113281 1.074218-9.113281zm0 0"/><path d="m217.28125 283.789062c-1.316406-2.644531-2.636719-5.285156-3.960938-7.925781l-2.875-5.761719c-.128906-.253906-.792968-1.585937-1.296874-2.378906.199218-.636718.433593-1.257812.707031-1.859375.929687-1.878906 1.871093-3.75 2.808593-5.625l4.265626-8.535156c2.875-5.757813-9.558594-4.992187-11.65625-.785156-1.519532 3.046875-3.042969 6.089843-4.574219 9.140625-1.929688 2.730468-3.398438 5.753906-4.351563 8.960937-.152344 2.773438 2.816406 6.578125 4.003906 8.941407 1.515626 3.042968 3.042969 6.089843 4.570313 9.140624 2.367187 4.734376 14.492187.902344 12.359375-3.3125zm0 0"/><path d="m302.355469 286.203125 4.574219-9.136719c1.289062-2.5625 4.429687-6.683594 4.269531-9.738281-.898438-3.226563-2.34375-6.277344-4.269531-9.019531-1.621094-3.253906-3.242188-6.5-4.871094-9.746094-2.507813-5.023438-14.257813-.40625-11.296875 5.496094 2.503906 5.019531 5.007812 10.035156 7.515625 15.046875-2.605469 5.1875-5.203125 10.378906-7.789063 15.582031-3.140625 6.320312 9.359375 6.535156 11.867188 1.515625zm0 0"/><path d="m250.988281 285.554688c5.6875-11.375 11.375-22.753907 17.066407-34.132813 2.558593-5.210937-9.703126-3.8125-11.503907-.222656-5.6875 11.378906-11.378906 22.757812-17.066406 34.136719-2.601563 5.230468 9.703125 3.8125 11.503906.21875zm0 0"/></g></svg>