<svg height="512" viewBox="0 0 60 60" width="512" xmlns="http://www.w3.org/2000/svg"><g id="050---Chart-File" fill="none"><path id="Path" d="m10.563 59.471c-.2225971-.0002631-.4182138-.1476474-.4798555-.3615395-.0616417-.213892.0255381-.4427757.2138555-.5614605l4.277-2.695-6.15 3.547c-.23448097.1270728-.52742279.0477401-.66573664-.1802909-.13831386-.2280309-.07330581-.5244809.14773664-.6737091l7.892-5.01-10.158 5.864c-.23436107.1288923-.5286543.0505227-.66787555-.1778537-.13922124-.2283764-.07406124-.5258734.14787555-.6751463l12.006-7.7-14.514 8.383c-.23473446.1238045-.5252986.0426548-.6619149-.1848618-.13661629-.2275167-.07168534-.5221296.1479149-.6711382l8.282-5.174-8.859 5.113c-.23693016.1422133-.54428668.0654302-.6865-.1715s-.06543016-.5442867.1715-.6865l7.759-4.832-7.485 4.32c-.23497088.1292146-.53003872.050062-.66879247-.179405-.13875376-.2294671-.07178369-.5275361.15179247-.675595l11.914-7.541-11.4 6.58c-.23520866.125628-.52761522.0445694-.66457305-.1842276-.13695782-.228797-.07026696-.5248112.15157305-.6727724l5.746-3.57-5.23 3.02c-.23477127.1336383-.53323995.0566316-.67405087-.1739091-.14081092-.2305408-.07304023-.5312411.15305087-.6790909l15.007-9.723-14.486 8.366c-.23693016.1419372-.54406281.0649301-.68599999-.172-.14193717-.2369302-.06493016-.5440628.17199999-.686l5.476-3.41-4.962 2.864c-.23571786.1278172-.53029699.0469384-.66770199-.1833224-.13740501-.2302607-.06871185-.5279174.15570199-.6746776l1.278-.788-.766.44c-.23424781.1308833-.53004345.0535271-.67022619-.1752769-.14018273-.228804-.07476503-.527467.14822619-.6767231l13.462-8.73-12.94 7.471c-.23436107.1288923-.5286543.0505227-.66787555-.1778537-.13922124-.2283764-.07406124-.5258734.14787555-.6751463l11.131-7.145-10.611 6.125c-.23473446.1238045-.5252986.0426548-.6619149-.1848618-.13661629-.2275167-.07168534-.5221296.1479149-.6711382l3.639-2.271-3.125 1.8c-.23541159.1379583-.53795774.061708-.67986369-.1713453-.14190596-.2330532-.07076502-.5368414.15986369-.6826547l9.97-6.4-9.45 5.465c-.23543794.13455-.53521485.0569022-.67572813-.1750261s-.0705395-.5335888.15772813-.6799739l7.547-4.8-7.03 4.055c-.23520866.125628-.52761522.0445694-.66457305-.1842276-.13695782-.228797-.07026696-.5248112.15157305-.6727724l.919-.572-.406.234c-.23405687.1357068-.53360081.0606207-.67597038-.1694442s-.07591293-.5316408.14997038-.6805558l12.447-8.239-11.921 6.884c-.23424781.1308833-.53004345.0535271-.67022619-.1752769-.14018273-.228804-.07476503-.527467.14822619-.6767231l9.3-6.037-8.78 5.069c-.23543794.13455-.53521485.0569022-.67572813-.1750261s-.0705395-.5335888.15772813-.6799739l5.395-3.435-4.875 2.81c-.2341443.133112-.53165209.0568382-.67287099-.1725078-.1412189-.2293459-.07539606-.5293391.14887099-.6784922l9.886-6.506-9.362 5.409c-.23330389.1209445-.52041712.0406461-.65712887-.1837824s-.07636038-.5163867.13812887-.6682176l5.064-3.239-4.545 2.622c-.23365564.130691-.52879264.0541466-.66947868-.1736308s-.0769932-.5259521.14447868-.6763692l9.046-5.974-8.523 4.92c-.2341443.133112-.53165209.0568382-.67287099-.1725078-.1412189-.2293459-.07539606-.5293391.14887099-.6784922l7.733-5.077-7.207 4.162c-.23345719.1253051-.52412895.0467367-.66266771-.1791186-.13853877-.2258554-.07683646-.5205686.14066771-.6718814l5.643-3.662-5.121 2.955c-.23265.1288599-.5254615.0530472-.66634439-.1725252s-.08052968-.5219566.13734439-.6744748l8.995-6.055-8.466 4.887c-.22980651.1186411-.51216329.0424527-.65109657-.1756855s-.08858644-.5062272.11609657-.6643145l9.456-6.57-8.921 5.148c-.23358769.1237383-.52313261.0442789-.66084289-.1813541-.13771027-.225633-.07600068-.5194731.14084289-.6706459l.387-.25c-.21093532.0497429-.43020015-.0398103-.546-.223-.14257579-.2291883-.07751123-.5301672.147-.68l2.275-1.52-1.7.981c-.23252618.1307666-.52675914.0559509-.6685809-.1700024-.14182177-.2259533-.08127436-.5234503.1375809-.6759976l1.906-1.3c-.21575464.0219783-.42107882-.0976365-.50837539-.2961621-.08729656-.1985257-.03665958-.4306929.12537539-.5748379l5.162-4.571c-.01002617-.0133131-.01905093-.0273516-.027-.042-.13738473-.2389169-.05553486-.54395304.183-.682l1.955-1.122c.2217499-.12438304.5015352-.06254686.6502105.14370495s.1188941.49123709-.0692105.66229505l-3.476 3.075 6.739-3.889c.2325262-.13076655.5267591-.05595091.6685809.17000241s.0812744.52345026-.1375809.67599759l-1.416.963 3.141-1.813c.2344449-.14607931.5429207-.07444487.689.16000001.1460793.23444487.0744449.54292067-.16.68899999l-2.279 1.523 4.114-2.375c.2343611-.12889229.5286543-.05052268.6678755.17785371.1392213.22837639.0740613.52587341-.1478755.67514629l-.041.027 1.53-.883c.2322938-.13517681.5298928-.06253672.6737842.16446202s.0825928.52713916-.1387842.67953798l-9.455 6.567 10.666-6.157c.2334461-.13529908.5321345-.06097219.6749447.1679561.1428102.2289282.0782242.5298733-.1459447.6800439l-8.99 6.051 9.188-5.3c.2337734-.1287456.5274505-.051198.667188.1761759.1397374.2273739.07627.5244122-.144188.6748241l-5.628 3.653 5.672-3.276c.2341443-.133112.5316521-.0568382.672871.1725078.1412189.2293459.075396.5293391-.148871.6784922l-7.746 5.086 7.854-4.534c.233204-.1287421.5263939-.0520483.6666872.1743946.1402933.226443.0784231.5231151-.1406872.6746054l-9.051 5.977 9.213-5.319c.2348642-.1312813.531504-.0531604.6712412.1767732.1397372.2299337.0724576.5292187-.1522412.6772268l-5.058 3.235 5.069-2.927c.2347029-.1405531.538787-.0663884.6824238.1664401.1436368.2328284.0734897.5378644-.1574238.6845599l-9.892 6.51 10.072-5.815c.2361017-.1433179.5436821-.0681017.687.168s.0681017.5436821-.168.687l-5.389 3.43 5.4-3.119c.2347034-.1364868.5354374-.0607325.6774741.1706544.1420368.2313868.073465.5338394-.1544741.6813456l-9.3 6.034 9.433-5.445c.233204-.1287421.5263939-.0520483.6666872.1743946.1402933.226443.0784231.5231151-.1406872.6746054l-12.444 8.238 12.719-7.343c.2352087-.125628.5276152-.0445694.664573.1842276.1369579.228797.070267.5248112-.151573.6727724l-.923.574.841-.485c.2361017-.1433179.5436821-.0681017.687.168s.0681017.5436821-.168.687l-7.548 4.8 7.605-4.39c.2347713-.1336383.5332399-.0566316.6740509.1739091.1408109.2305408.0730402.5312411-.1530509.6790909l-9.964 6.4 10.094-5.833c.2347345-.1238045.5252986-.0426548.6619149.1848618.1366163.2275167.0716853.5221296-.1479149.6711382l-3.645 2.275 3.608-2.083c.2347713-.1336383.5332399-.0566316.6740509.1739091.1408109.2305408.0730402.5312411-.1530509.6790909l-11.128 7.142 11.281-6.513c.1523738-.093425.3430146-.0984627.5001098-.0132156.1570953.085247.2567785.2478279.2615.4265.0047215.178672-.086236.3462906-.2386098.4397156l-13.462 8.729 13.7-7.91c.2362075-.133071.5354329-.0536509.6745599.1790411.1391271.2326919.0674613.5338687-.1615599.6789589l-1.29.8 1.212-.7c.2361735-.1361818.537908-.0580681.6783318.1756081.1404239.2336761.0677709.5367718-.1633318.6813919l-5.46 3.4 5.451-3.147c.2355494-.1441463.5433537-.0700494.6875.1655s.0700494.5433537-.1655.6875l-15.007 9.719 15.286-8.825c.2369302-.1419372.5440628-.0649301.686.172.1419371.2369302.0649301.5440628-.172.686l-5.748 3.569 5.742-3.314c.2349709-.1292146.5300387-.050062.6687925.179405.1387537.2294671.0717837.5275361-.1517925.675595l-11.908 7.536 12.046-6.954c.1532669-.0919959.3439707-.0952367.5002749-.0085015.1563042.0867351.2544627.250269.2575.429s-.089508.3455056-.2427749.4375015l-7.778 4.843 7.808-4.507c.2361735-.1361818.537908-.0580681.6783318.1756081.1404239.2336761.0677709.5367718-.1633318.6813919l-8.277 5.174 8.323-4.8c.2348642-.1312813.531504-.0531604.6712412.1767732.1397372.2299337.0724576.5292187-.1522412.6772268l-12.009 7.691 12.181-7.032c.234481-.1270728.5274228-.0477401.6657366.1802909.1383139.2280309.0733058.5244809-.1477366.6737091l-7.892 5.01 7.954-4.592c.2349709-.1292146.5300387-.050062.6687925.179405.1387537.2294671.0717837.5275361-.1517925.675595l-4.271 2.695 3.98-2.3c.2330829-.1306613.5277074-.0549657.6689423.1718661.1412349.2268319.0791592.5246238-.1409423.6761339l-10.463 7.029 9.935-5.735c.2333291-.1269664.5252099-.0493179.6646076.1768043.1393976.2261221.0776459.5217747-.1406076.6731957l-5.593 3.68 5.07-2.927c.2308022-.1338179.5260112-.0628564.670779.1612399s.0880924.5223777-.128779.6777601l-7.823 5.614 7.281-4.2c.2300482-.1308569.5222207-.059778.6664488.1621318.1442281.2219099.0905463.5177734-.1224488.6748682l-4.982 3.614 4.438-2.561c.226507-.1291681.5142486-.0625855.6609917.1529516.1467432.2155372.103215.5076567-.0999917.6710484l-4 3.186 3.44-1.986c.2163843-.1232964.4905169-.0685506.6429461.1284.1524291.1969505.1366764.476052-.0369461.6546l-2.67 2.705 2.063-1.19c.2093617-.1198333.4744325-.0730979.6301877.1111103.1557553.1842081.1577794.4533598.0048123.6398897l-.752.912c.2442925-.109681.5316275-.0074246.6517061.2319285s.0302653.5308172-.2037061.6610715l-2.333 1.344c-.2094231.1210892-.4754979.0748836-.6318351-.1097222-.1563373-.1846058-.1580911-.454657-.0041649-.6412778l.746-.905-2.87 1.656c-.2163843.1232964-.4905169.0685506-.6429461-.1284-.1524291-.1969505-.1366764-.476052.0369461-.6546l2.668-2.706-6.046 3.489c-.2266681.1317558-.5166136.0660514-.6643416-.1505461-.1477279-.2165976-.1030619-.5105201.1023416-.6734539l4-3.186-6.945 4.01c-.2300482.1308569-.5222207.059778-.6664488-.1621318-.1442281-.2219099-.0905463-.5177734.1224488-.6748682l4.982-3.615-7.712 4.452c-.2308022.1338179-.5260112.0628564-.670779-.1612399s-.0880924-.5223777.128779-.6777601l7.824-5.614-11.176 6.453c-.2336556.130691-.5287926.0541466-.6694787-.1736308-.140686-.2277774-.0769932-.5259521.1444787-.6763692l5.589-3.677-7.844 4.527c-.23265.1288599-.5254615.0530472-.6663444-.1725252s-.0805297-.5219566.1373444-.6744748l10.464-7.029-13.642 7.876c-.0756184.0452887-.1618652.0697828-.25.071z" fill="#ced2dc"/><path id="Path" d="m31.131 42.284c-.1850852-.0002104-.3549135-.102647-.4414356-.2662639-.0865222-.1636169-.0755825-.3616452.0284356-.5147361l.667-.981-1.721.994c-.219385.1342545-.5048344.0801688-.6599003-.1250351-.1550659-.2052038-.1291551-.4945743.0599003-.6689649l1.748-1.673-2.812 1.625c-.2253151.1304911-.5130605.0662242-.6614447-.1477312-.1483843-.2139555-.1077334-.5059746.0934447-.6712688l3.02-2.5-4.052 2.345c-.2298251.1278768-.5194281.0558458-.6625685-.1647961s-.0908781-.5144564.1195685-.6722039l2.543-1.853-3.143 1.814c-.2308022.1338179-.5260112.0628564-.670779-.1612399s-.0880924-.5223777.128779-.6777601l4.3-3.088-4.999 2.883c-.23265.1288599-.5254615.0530472-.6663444-.1725252s-.0805297-.5219566.1373444-.6744748l2.089-1.4-2.424 1.4c-.2318603.1330617-.527371.0602043-.6708066-.1653857-.1434357-.22559-.0840493-.5240996.1348066-.6776143l7.084-4.943-7.71 4.453c-.2335451.1328438-.5303244.0573638-.6720248-.1709163s-.0776546-.5277351.1450248-.6780837l5-3.324-5.325 3.073c-.2347713.1336383-.5332399.0566316-.6740509-.1739091-.1408109-.2305408-.0730402-.5312411.1530509-.6790909l1.411-.908-1.466.846c-.2348642.1312813-.531504.0531604-.6712412-.1767732-.1397372-.2299337-.0724576-.5292187.1522412-.6772268l.9-.575-.943.544c-.2318412.125947-.5216461.0500755-.6620287-.1733204-.1403825-.223396-.0830243-.5174256.1310287-.6716796l8.471-5.755-8.713 5.031c-.2347029.1405531-.538787.0663884-.6824238-.1664401-.1436368-.2328284-.0734897-.5378644.1574238-.6845599l6.106-4.017-6.146 3.548c-.2328603.1351428-.5309189.0616362-.6742423-.1662803-.1433233-.2279164-.080443-.5283964.1422423-.6797197l9.824-6.7-9.874 5.7c-.233204.1287421-.5263939.0520483-.6666872-.1743946-.1402933-.226443-.0784231-.5231151.1406872-.6746054l7.957-5.287-7.833 4.523c-.2363779.1430418-.5439582.0673779-.687-.169s-.0673779-.5439582.169-.687l.923-.584-.574.331c-.2322377.1273115-.5234633.0514462-.664069-.1729923-.1406056-.2244384-.0818101-.5195841.134069-.6730077l9.751-6.597-9.386 5.419c-.2354379.13455-.5352149.0569022-.6757281-.1750261-.1405133-.2319283-.0705395-.5335888.1577281-.6799739l1.54-.978-1.051.614c-.2337734.1287456-.5274505.051198-.667188-.1761759-.1397374-.2273739-.07627-.5244122.144188-.6748241l5.96-3.884-5.3 3.06c-.2334572.1253051-.5241289.0467367-.6626677-.1791186-.1385388-.2258554-.0768365-.5205686.1406677-.6718814l5.5-3.577-4.776 2.756c-.2329061.1254293-.5232086.0477402-.6623373-.1772508s-.0789338-.5194187.1373373-.6717492l6.871-4.54-5.855 3.38c-.151302.0950326-.3418101.1021278-.4997618.0186128-.1579516-.0835151-.2593503-.2449524-.266-.4235-.0066497-.1785477.0824598-.3470802.2337618-.4421128l8.844-6-7.361 4.25c-.152731.0928891-.3434161.097241-.5002259.0114166s-.2559212-.2487865-.26-.4275c-.0040787-.1787135.0874949-.3460275.2402259-.4389166l1.079-.688c-.1935777.0237654-.3833068-.0671952-.486-.233-.141996-.2299547-.0755615-.5311242.15-.68l2.5-1.652-.658.379c-.2269587.1282325-.5143539.0605795-.6602778-.1554298-.145924-.21600925-.1014061-.50788437.1022778-.6705702l4.337-3.4c-.2111682-.02991112-.3801174-.19047623-.4207287-.39985004s.0560565-.42145947.2407287-.52814996l5.221-3.015c.227445-.13171071.5180356-.06484496.6650404.15302777s.1002333.51236608-.1070404.67397223l-3.748 2.933 8.94-5.161c.2340569-.1357068.5336008-.06062069.6759704.16944421s.0759129.53164078-.1499704.68055579l-2.511 1.658 4.007-2.313c.2361017-.14331788.5436821-.06810172.687.16800001.1433179.23610172.0681017.54368209-.168.68699999l-.371.236c.2372509-.10486123.5152936-.01087855.6402692.21642074.1249755.22729929.0553772.51242482-.1602692.65657926l-8.846 6 8.486-4.9c.2329061-.12542926.5232086-.04774024.6623373.17725079s.0789338.5194187-.1373373.67174921l-6.872 4.544 6.489-3.75c.2347034-.13648675.5354374-.06073246.6774741.17065437.1420368.23138684.073465.53383942-.1544741.68134563l-5.5 3.58 5.106-2.948c.2337734-.12874562.5274505-.05119801.667188.1761759.1397374.22737391.07627.52441224-.144188.6748241l-5.952 3.879 5.562-3.211c.2349709-.12921461.5300387-.05006202.6687925.17940502.1387537.22946704.0717837.52753611-.1517925.67559498l-1.553.987 1.138-.657c.2333681-.13826705.5344194-.06524166.6785003.1645824.144081.2298241.078635.5326135-.1475003.6824176l-9.746 6.581 9.39-5.421c.2354379-.13455.5352149-.0569022.6757281.1750261.1405133.2319283.0705395.5335888-.1577281.6799739l-.933.591.516-.3c.233204-.1287421.5263939-.0520483.6666872.1743946.1402933.226443.0784231.5231151-.1406872.6746054l-7.956 5.286 7.583-4.378c.2328603-.1351428.5309189-.0616362.6742423.1662803.1433233.2279164.080443.5283964-.1422423.6797197l-9.828 6.706 9.477-5.471c.2341443-.133112.5316521-.0568382.672871.1725078.1412189.2293459.075396.5293391-.148871.6784922l-6.1 4.012 5.71-3.3c.2338926-.1469077.5425922-.0763926.6895.1575.1469077.2338926.0763926.5425922-.1575.6895l-8.467 5.761 8.1-4.679c.2354116-.1379583.5379577-.061708.6798637.1713453.1419059.2330532.070765.5368414-.1598637.6826547l-.9.577.482-.278c.2347713-.1336383.5332399-.0566316.6740509.1739091.1408109.2305408.0730402.5312411-.1530509.6790909l-1.414.908 1-.574c.2335451-.1328438.5303244-.0573638.6720248.1709163s.0776546.5277351-.1450248.6780837l-4.991 3.319 4.131-2.385c.2318603-.1330617.527371-.0602043.6708066.1653857.1434357.22559.0840493.5240996-.1348066.6776143l-7.085 4.944 5.283-3.05c.232368-.1256461.5223842-.0488566.6621282.1753162.1397441.2241727.0809951.5183743-.1341282.6716838l-2.095 1.405.716-.413c.2301828-.1290216.5210052-.0569569.6643125.1646141.1433073.2215711.0897614.5163656-.1223125.6733859l-4.291 3.082 2.639-1.523c.2300482-.1308569.5222207-.059778.6664488.1621318.1442281.2219099.0905463.5177734-.1224488.6748682l-2.546 1.854 1.031-.595c.225024-.1298327.5119893-.0657046.6603401.147566s.108657.5046224-.0913401.670434l-3.018 2.5 1.25-.722c.219385-.1342545.5048344-.0801688.6599003.1250351.1550659.2052038.1291551.4945743-.0599003.6689649l-1.755 1.671.017-.01c.2018619-.1159573.4570425-.0772592.6154493.0933328.1584069.1705919.1781225.427936.0475507.6206672l-1.133 1.667c.0329152.033255.0614767.070553.085.111.1373847.2389169.0555349.543953-.183.682l-.828.479c-.0758031.044382-.1621615.067526-.25.067z" fill="#a083ee"/><path id="Path" d="m38.178 29.487c-.2208664.0004946-.4158916-.143984-.479759-.3554152s.0185554-.4397191.202759-.5615848l6.425-4.261-6.046 3.491c-.2347029.1405531-.538787.0663884-.6824238-.1664401-.1436368-.2328284-.0734897-.5378644.1574238-.6845599l5.317-3.5-4.792 2.764c-.2327682.1379387-.5330334.0656905-.677577-.1630348s-.0809181-.5309351.143577-.6819652l8.494-5.854-7.96 4.6c-.2343611.1288923-.5286543.0505227-.6678755-.1778537-.1392213-.2283764-.0740613-.5258734.1478755-.6751463l.5-.319c-.2374252.1242009-.5305531.0391619-.6646466-.1928199-.1340935-.2319817-.0614797-.5284321.1646466-.6721801l2.313-1.509-1.793 1.032c-.2319831.1309881-.5259285.0570795-.6683699-.1680527-.1424414-.2251321-.0833463-.52241.1343699-.6759473l6.608-4.56-6.074 3.504c-.2322377.1273115-.5234633.0514462-.664069-.1729923-.1406056-.2244384-.0818101-.5195841.134069-.6730077l4.429-3-3.9 2.25c-.2340569.1357068-.5336008.0606207-.6759704-.1694442s-.0759129-.5316408.1499704-.6805558l1.7-1.125-1.17.676c-.2335451.1328438-.5303244.0573638-.6720248-.1709163s-.0776546-.5277351.1450248-.6780837l1.363-.908-.836.482c-.2327769.1270897-.524286.0503218-.6642741-.174934-.139988-.2252559-.0797468-.5206233.1372741-.673066l.558-.372-.031.017c-.2287194.1310429-.5198877.0620127-.6654353-.1577616-.1455476-.2197742-.0954752-.5147944.1144353-.6742384l5.458-4.116-4.91 2.835c-.2299138.1328235-.5235501.0627731-.6687427-.1595365s-.0912979-.5193359.1227427-.6764635l3.22-2.36-2.674 1.544c-.2302873.1343427-.5254749.0643663-.6709518-.1590541-.1454768-.2234204-.0900639-.52168517.1259518-.6779459l1.808-1.318-1.263.729c-.2300482.13085689-.5222207.05977797-.6664488-.16213184-.1442281-.22190982-.0905463-.51777331.1224488-.67486816l.474-.344c-.2333625.09009908-.4973998-.00612713-.6180689-.22525008-.1206691-.21912296-.060832-.49370392.1400689-.64274992l.345-.256c-.1798784.01529394-.3543205-.06621395-.458-.214-.148484-.21448452-.10712-.50708003.095-.672l.7-.572-.136.078c-.2145941.12282353-.486738.07035061-.6402819-.12345476-.1535438-.19380536-.142373-.47073665.0262819-.65154524l1.146-1.22-.532.307c-.1695887.09797411-.3807651.0879117-.5402698-.02574347-.1595047-.11365516-.2379646-.30997328-.2007302-.50225653l.283-1.459c-.1698978-.07777239-.2822541-.24378734-.2913017-.43042055s.0867234-.36273776.2483017-.45657945l.439-.254c.1694714-.09838152.3807915-.08869688.5405539.02477319.1597625.11347006.2385143.30980687.2014461.50222681l-.231 1.187 2.521-1.449c.2145941-.12282353.486738-.07035061.6402819.12345476.1535438.19380536.142373.47073665-.0262819.65154524l-1.147 1.217 2.585-1.492c.2259084-.13195581.5153456-.06745042.6638412.14794688.1484956.21539729.1058364.50885096-.0978412.67305312l-.7.571 1.64-.946c.2292016-.13030393.5201978-.0602449.6649792.1600976.1447814.22034249.0935911.51524355-.1169792.6739024l-.024.017.63-.363c.2300482-.13085689.5222207-.05977797.6664488.16213184.1442281.22190982.0905463.51777331-.1224488.67486816l-.425.308 1.1-.632c.2302873-.13434275.5254749-.06436632.6709518.15905409.1454768.22342042.0900639.52168518-.1259518.67794591l-1.813 1.316 2.489-1.435c.2299138-.13282353.5235501-.06277315.6687427.15953646.1451926.2223096.0912979.51933596-.1227427.67646354l-3.223 2.362 4.056-2.342c.2287194-.13104292.5198877-.06201267.6654353.15776159.1455476.21977425.0954752.5147944-.1144353.67423841l-5.461 4.114 6.44-3.718c.2335451-.1328438.5303244-.05736382.6720248.17091629s.0776546.52773513-.1450248.67808371l-.558.371.869-.5c.2340027-.13899883.5362016-.06529813.6799386.16582441s.0762078.53476011-.1519386.68317559l-1.363.907 1.642-.947c.233204-.12874209.5263939-.05204834.6666872.17439464s.0784231.52311505-.1406872.67460536l-1.708 1.131 1.928-1.112c.2329673-.1327691.5291919-.0581284.6714287.16918215.1422368.22731056.0798406.52635392-.1414287.67781785l-4.425 3 4.811-2.778c.2319831-.1309881.5259285-.05707946.6683699.16805269.1424414.22513216.0833463.52241-.1343699.67594731l-6.6 4.558 6.95-4.017c.2341443-.133112.5316521-.0568382.672871.1725078.1412189.2293459.075396.5293391-.148871.6784922l-2.309 1.5 2.385-1.371c.2354116-.1379583.5379577-.061708.6798637.1713453.1419059.2330532.070765.5368414-.1598637.6826547l-.487.312.44-.253c.2319831-.1309881.5259285-.0570795.6683699.1680527.1424414.2251321.0833463.52241-.1343699.6759473l-8.492 5.854 8.673-5.008c.2347029-.1405531.538787-.0663884.6824238.1664401.1436368.2328284.0734897.5378644-.1574238.6845599l-5.326 3.507 5.277-3.041c.2340569-.1357068.5336008-.0606207.6759704.1694442s.0759129.5316408-.1499704.6805558l-6.429 4.26 6.271-3.619c.2337734-.1287456.5274505-.051198.667188.1761759.1397374.2273739.07627.5244122-.144188.6748241l-2.226 1.458 1.988-1.147c.2329061-.1254293.5232086-.0477402.6623373.1772508s.0789338.5194187-.1373373.6717492l-1.2.791.789-.455c.2333681-.1382671.5344194-.0652417.6785003.1645824.144081.2298241.078635.5326135-.1475003.6824176l-1.362.915.929-.536c.2272713-.1290292.5155715-.0612656.6615658.155498.1459944.2167636.1004262.5093938-.1045658.671502l-3.418 2.664 2.9-1.677c.2160105-.1246636.4908577-.0710795.6442199.1255968s.1383361.4762947-.0352199.6554032l-2.26 2.341 1.481-.855c.1864551-.1072233.4205893-.083189.5813722.0596787.1607829.1428678.2121821.3725515.1276278.5703213l-.574 1.334c.1556679.0890543.2517179.2546591.2517179.434s-.09605.3449457-.2517179.434l-.646.373c-.1864551.1072233-.4205893.083189-.5813722-.0596787-.1607829-.1428678-.2121821-.3725515-.1276278-.5703213l.411-.956-3.275 1.891c-.2160105.1246636-.4908577.0710795-.6442199-.1255968s-.1383361-.4762947.0352199-.6554032l2.268-2.342-6.057 3.5c-.227954.1359398-.5224013.0700857-.6707268-.1500102-.1483256-.2200959-.0988388-.5177316.1127268-.6779898l3.417-2.661-6.6 3.808c-.23299.1348518-.5309232.0610316-.674-.167-.1433584-.2281681-.0801164-.5288994.143-.68l1.36-.922-3.452 1.993c-.2336556.130691-.5287926.0541466-.6694787-.1736308-.140686-.2277774-.0769932-.5259521.1444787-.6763692l1.2-.791-3.217 1.857c-.2337734.1287456-.5274505.051198-.667188-.1761759-.1397374-.2273739-.07627-.5244122.144188-.6748241l2.24-1.462-4.4 2.542c-.0756048.0439835-.1615321.0671045-.249.067z" fill="#136b87"/><path id="Path" d="m50.257 39.225c-.2040918.0004139-.3879494-.1232568-.4645053-.3124467s-.0304415-.405919.1165053-.5475533l2.182-2.114-3.109 1.794c-.2241703.1280952-.5090066.0644456-.6573283-.1468868-.1483216-.2113324-.1113468-.5008421.0853283-.6681132l4.137-3.493-5.286 3.052c-.2279124.1308241-.5182022.0628918-.6643976-.1554793-.1461953-.2183711-.0983971-.512647.1093976-.6735207l5.137-3.955-6.218 3.595c-.2285233.1282497-.5172952.0583047-.6618051-.1602995-.14451-.2186041-.095725-.5116937.1118051-.6717005l4.472-3.357-5.4 3.115c-.228242.1318458-.5196375.063862-.6659708-.1553737-.1463332-.2192358-.0973404-.5144185.1119708-.6746263l4.254-3.274-5.2 3c-.2259042.1277621-.5120042.0614438-.6586593-.152678-.1466552-.2141217-.1051039-.5048532.0956593-.669322l4.207-3.394-5.091 2.941c-.2293391.1285228-.5190351.0574922-.6629121-.1625395s-.0927858-.5139004.1169121-.6724605l1.584-1.161-1.394.8c-.2287194.1310429-.5198877.0620127-.6654353-.1577616-.1455476-.2197742-.0954752-.5147944.1144353-.6742384l1.181-.89-.978.565c-.226047.126152-.5110038.0589101-.6568083-.1549885-.1458046-.2138986-.1042381-.5037159.0958083-.6680115l1.183-.945-.982.567c-.2198926.1179958-.4931214.0557887-.6402596-.1457705s-.1231296-.4807496.0562596-.6542295l1.322-1.193-1.145.66c-.2046772.1209079-.4664445.0788906-.623-.1-.1578197-.177067-.1695159-.4406502-.028-.631l1.309-1.759-1.2.691c-.2072709.1186494-.4695147.0741485-.6260418-.106235-.156527-.1803835-.1636307-.4462813-.0169582-.634765l.221-.281c-.1230718.0366999-.2554239.0259976-.371-.03-.149926-.0747987-.2524218-.2197195-.273-.386l-.158-1.258c-.1183103-.0382222-.2181361-.1191524-.28-.227-.0662182-.1149607-.0840333-.2515253-.049523-.3796262.0345104-.1281009.1185167-.237235.233523-.3033738l.272-.156c.1450434-.0832672.3221137-.0885021.4718229-.013949.1497092.0745532.2522298.2190206.2731771.384949l.135 1.081 1.462-.843c.2073289-.1198377.4705164-.0758472.6276039.1049009.1570875.1807482.1639632.4474982.0163961.6360991l-.2.255 1.054-.609c.2055439-.1200681.4672365-.0785803.6255647.0991746s.1693869.442485.0264353.6328254l-1.309 1.759 3.181-1.836c.2198926-.1179958.4931214-.0557887.6402596.1457705s.1231296.4807496-.0562596.6542295l-1.329 1.2 2.623-1.514c.226047-.126152.5110038-.0589101.6568083.1549885.1458046.2138986.1042381.5037159-.0958083.6680115l-1.179.942 2.3-1.329c.2287194-.1310429.5198877-.0620127.6654353.1577616.1455476.2197742.0954752.5147944-.1144353.6742384l-1.183.891 2.256-1.3c.2299138-.1328235.5235501-.0627731.6687427.1595365s.0912979.5193359-.1227427.6764635l-1.581 1.159 2.7-1.562c.2260575-.1301558.5141897-.0646595.6617686.1504288.1475789.2150884.1050107.5074886-.0977686.6715712l-4.198 3.39 6.169-3.562c.227731-.1281621.5157443-.059345.6609391.1579231.1451949.217268.0985947.509699-.1069391.6710769l-4.254 3.275 6.052-3.494c.2285233-.1282497.5172952-.0583047.6618051.1602995.14451.2186041.095725.5116937-.1118051.6717005l-4.471 3.356 5.55-3.2c.2279124-.1308241.5182022-.0628918.6643976.1554793.1461953.2183711.0983971.512647-.1093976.6735207l-5.137 3.955 3.625-2.093c.2241703-.1280952.5090066-.0644456.6573283.1468868.1483216.2113324.1113468.5008421-.0853283.6681132l-4.134 3.491 1.741-1.005c.2187434-.1297091.5000021-.0745628.6535686.128145s.1305136.4883932-.0535686.663855l-3.829 3.711c.0998699.2326279.0101111.5031928-.209.63l-1.143.66c-.0767043.0436364-.1637694.0657482-.252.064z" fill="#92d149"/><path id="Path" d="m37.41 43.425c-.2183253-.0000793-.4113554-.1418057-.4768151-.3500867-.0654598-.2082809.0117883-.4349519.1908151-.5599133l.941-.657-2.339 1.351c-.2295527.1314921-.521805.0614183-.6667704-.1598726-.1449654-.2212908-.0924688-.5172061.1197704-.6751274l4.38-3.231-6.283 3.626c-.2288588.1292299-.518701.0592157-.6633326-.1602346-.1446317-.2194502-.0946742-.513414.1143326-.6727654l6.136-4.593-6.524 3.765c-.232368.1256461-.5223842.0488566-.6621282-.1753162-.1397441-.2241727-.0809951-.5183743.1341282-.6716838l.906-.609c-.2304543.0717686-.4792806-.0313418-.5914251-.2450789s-.0555888-.4770766.1344251-.6259211l5.765-4.488-4.309 2.488c-.2251719.1281476-.5109328.0630663-.6584056-.14995-.1474728-.2130162-.107801-.5033971.0914056-.66905l4.636-3.79-3.185 1.841c-.2231941.1282474-.5072862.0660776-.6565145-.1436697s-.1148202-.4985197.0795145-.6673303l3.438-2.972-2.034 1.17c-.217772.1239843-.4936884.0676117-.6453756-.131857-.1516872-.1994686-.1322878-.4804159.0453756-.657143l2.65-2.6-1.188.685c-.2112567.1203598-.4784718.0713026-.6332004-.1162472s-.152112-.4592181.0062004-.6437528l1.575-1.807-.16.092c-.2074647.1185083-.4697832.073677-.626115-.1070056s-.162987-.4467211-.015885-.6349944l.75-.955c-.1240512-.0513543-.2222371-.1504406-.2724569-.2749555-.0502197-.1245148-.0482532-.2639949.0054569-.3870445l.534-1.221c-.1174284-.2371389-.0297544-.5247095.2-.656l.262-.151c.1869906-.1077568.4220181-.083375.5829074.0604709.1608892.1438459.2113264.374689.1250926.5725291l-.175.4.162-.094c.2075237-.1196981.4707878-.075377.6276801.1056714.1568924.1810484.1633179.4479398.0153199.6363286l-.426.542.514-.3c.2112567-.1203598.4784718-.0713026.6332004.1162472s.152112.4592181-.0062004.6437528l-1.576 1.808 2-1.151c.217772-.1239843.4936884-.0676117.6453756.131857.1516872.1994686.1322878.4804159-.0453756.657143l-2.649 2.6 3.193-1.842c.2228025-.1258076.5046322-.0631099.6530847.1452897.1484525.2083995.1156192.4952461-.0760847.6647103l-3.447 2.979 3.966-2.289c.2250277-.1259685.5089467-.060127.6555632.1520265.1466165.2121536.1078274.5010142-.0895632.6669735l-4.634 3.788 5.237-3.028c.2271002-.1265913.5133226-.0580067.6583864.1577626.1450637.2157693.100553.506709-.1023864.6692374l-5.764 4.493 6.408-3.698c.2330829-.1306613.5277074-.0549657.6689423.1718661.1412349.2268319.0791592.5246238-.1409423.6761339l-.767.514.874-.5c.2290632-.1321979.5214568-.063148.6671806.1575572.1457237.2207053.094369.5167199-.1171806.6754428l-6.137 4.594 6.727-3.884c.2295527-.1314921.521805-.0614183.6667704.1598726.1449654.2212908.0924688.5172061-.1197704.6751274l-4.38 3.233 4.794-2.768c.232192-.1378754.5319082-.0664712.6769921.1612862.1450839.2277573.0831069.529564-.1399921.6817138l-.94.655 1.059-.611c.226047-.126152.5110038-.0589101.6568083.1549885.1458046.2138986.1042381.5037159-.0958083.6680115l-2.687 2.143 3.027-1.747c.217123-.1206668.4899085-.063641.6405105.1338986s.1333491.4756874-.0405105.6531014l-1.063 1.053 1.278-.737c.1549945-.0985297.351531-.1041539.5119064-.0146489.1603754.0895049.2587712.2597296.2562855.4433739s-.1054527.3511436-.2681919.436275l-4.593 2.653c-.2174475.1222843-.4917629.0655717-.6428937-.1329134-.1511308-.1984852-.1328285-.4780031.0428937-.6550866l1.063-1.057-5.5 3.172c-.226507.1291681-.5142486.0625855-.6609917-.1529516-.1467432-.2155372-.103215-.5076567.0999917-.6710484l2.688-2.143-5.445 3.143c-.0759114.0442382-.1621395.0676923-.25.068z" fill="#ffc306"/><path id="Path" d="m3.753 17.47c-.20652185-.0001253-.39171624-.1272105-.46612031-.3198639-.07440406-.1926534-.02270593-.4112281.13012031-.5501361l1.761-1.6-3.378 1.95c-.22712724.1307942-.51670669.0640046-.66360351-.1530559-.14689683-.2170604-.10125056-.5107158.10460351-.6729441l3.569-2.8c-.11939613-.0905553-.19188191-.2298876-.19749984-.3796345-.00561793-.149747.05622436-.2941187.16849984-.3933655l2.619-2.311c-.03938466-.2089541.05769431-.41996047.242-.526l1.074-.62c.222085-.13024131.50676584-.07054851.65782591.13793507.15106006.20848359.11911115.49759547-.07382591.66806493l-.342.3c.16640284.0109461.3207434.0906525.426.22.14725411.2176185.10094317.5120862-.106.674l-1.851 1.453 1.294-.747c.22011911-.1211079.49592482-.0600693.64438682.1426092s.1234717.48405-.05838682.6573908l-1.764 1.6 1.178-.68c.19940266-.1151503.45166308-.079231.611.087.15995121.1667946.18475765.421474.06.616l-.837 1.307c.21493957-.0533462.43907406.0431789.548.236.13806467.2391402.05613408.5449248-.183.683l-1.62.94c-.19909449.1132785-.44970268.0767785-.60821429-.0885839-.15851162-.1653623-.1843818-.4172898-.06278571-.6114161l.812-1.269-3.441 1.98c-.07464892.0448706-.15990869.0690333-.247.07z" fill="#8b93a2"/><g fill="#262626"><path id="Shape" d="m59.711 21.859c0-.018.014-.034.013-.053-.1144399-5.9078243-2.6366435-11.5126529-6.9824396-15.51634369-4.3457962-4.00369074-10.1381768-6.0589139-16.0355604-5.68965631-6.0342524.44094001-11.6253672 3.3315254-15.474 8-3.63-.059-7.8-.643-11.3.023-.21038072.04095325-.41783103.09573884-.621.164-.37488656-.01105938-.7352136.14546112-.983.427-2.721 1.412-5.462 4.774-6.986 6.765-.2053772.2715048-.38293679.5629706-.53.87-.276.183-.442.416-.208.51-.618 1.709-.33 3.6-.33 5.537v31.842c0 2.349-.162 4.134 2.6 4.656 3.826.722 8.483 0 12.364 0h16.522c2.6 0 5.209.39 5.964-2.672.965-3.911.107-9.111.017-13.279h.172c4.503334-.0150915 8.8893939-1.4370211 12.545-4.067.364-.065.722-.288.737-.552 3.6811264-2.8902732 6.3550369-6.8696399 7.64-11.37.208-.17.308-.37.141-.506.43857-1.6428067.6908248-3.3297604.752-5.029.001-.019-.014-.038-.017-.06zm-1.441.26c-.052074 1.4980022-.2554411 2.986904-.607 4.444l-18.939-4.938v-20.1c.546.024 1.094.063 1.648.133 10.408 1.325 17.534 10.257 17.898 20.461zm-20.994-20.606v20.471c-.0205743.0592652-.0205743.1237348 0 .183l-6.076 19.102c-8.0424584-3.0856135-13.3708755-10.7860969-13.424-19.4.0077939-10.9093214 8.601073-19.87982336 19.5-20.356zm-29 8.646v2.125c0 1.016.273 2.563-.166 3.519-.557 1.215-2.48.8-3.579.8h-2.189c1.5209605-2.5278675 3.53982186-4.7202407 5.934-6.444zm26.848 48.447c-.691.36-2.673 0-3.426 0h-13.909c-4.1 0-8.589.524-12.659 0-2.739-.352-3.406-1.318-3.406-4.011v-26.948c0-2.947-.577-6.59 0-9.495.05775587-.2584435.13875201-.5111381.242-.755h3.052c1.242 0 2.614.154 3.676-.632 1.193-.883 1.03-2.208 1.03-3.516v-3.8c3-.99 7.7-.172 10.89-.066-2.8022766 3.6624389-4.3267721 8.1424885-4.34 12.754.137539 11.2017975 8.827046 20.4339642 20 21.249v10.85c.002 1.455.431 3.547-1.15 4.37zm1.766-16.106c-1.518735-.1052751-3.0201163-.3864904-4.474-.838l5.784-18.178 11.344 15.4c-3.660863 2.6572604-8.1418575 3.9377469-12.654 3.616zm13.786-4.511-11.058-15.004 17.765 4.631c-1.1663127 4.0434076-3.4993126 7.6530007-6.707 10.377z"/><path id="Path" d="m11.719 23.413c.547 0 1.537-.826.562-.826h-6c-.547 0-1.537.826-.562.826z"/><path id="Path" d="m5.533 28.305h7c.32 0 1.643-.61.934-.61h-7c-.32.005-1.643.61-.934.61z"/><path id="Path" d="m5.933 33.52h9c.82 0 1.119-1.04.134-1.04h-9c-.82 0-1.119 1.04-.134 1.04z"/><path id="Path" d="m5.706 38.365h11c.487 0 1.557-.73.588-.73h-11c-.487 0-1.557.73-.588.73z"/><path id="Path" d="m22.73 43.454c.6 0 1.517-.908.54-.908h-17c-.6 0-1.517.908-.54.908z"/><path id="Path" d="m6.285 47.6c-.529 0-1.543.8-.57.8h26c.529 0 1.543-.8.57-.8z"/><path id="Path" d="m6.3 52.657c-.458 0-1.565.686-.6.686h26c.458 0 1.565-.686.6-.686z"/></g></g></svg>