<svg height="503pt" viewBox="0 -4 503.93955 503" width="503pt" xmlns="http://www.w3.org/2000/svg"><path d="m101.253906 496.34375c-1.890625.003906-3.550781-1.253906-4.054687-3.074219-.507813-1.816406.265625-3.75 1.886719-4.722656l8.890624-5.355469-21.824218 12.589844c-1.980469 1.144531-4.515625.488281-5.695313-1.472656-1.175781-1.960938-.566406-4.503906 1.371094-5.71875l201.257813-125.457032-229.660157 132.617188c-1.972656 1.054688-4.429687.375-5.578125-1.546875-1.148437-1.921875-.589844-4.40625 1.273438-5.648437l216.550781-134.21875-233.734375 134.933593c-1.980469 1.097657-4.476562.421875-5.636719-1.527343-1.15625-1.949219-.5625-4.464844 1.347657-5.683594l175.625-107.257813-182.101563 105.144531c-1.992187 1.1875-4.570313.535157-5.753906-1.457031-1.1875-1.992187-.535157-4.566406 1.453125-5.753906l217.199218-133.457031-220.203124 127.09375c-1.984376 1.097656-4.476563.421875-5.636719-1.527344-1.160157-1.945312-.5625-4.460938 1.347656-5.683594l208.601563-127.78125-206.300782 119.113282c-2 1.175781-4.570312.507812-5.746094-1.492188-1.175781-1.996094-.507812-4.570312 1.492188-5.742188l51.710938-31.007812-47.457032 27.398438c-1.984375 1.09375-4.480468.417968-5.636718-1.527344-1.160157-1.949219-.5625-4.464844 1.347656-5.683594l234.371094-144.367188-230.082032 132.867188c-1.976562 1.042969-4.421875.355469-5.5625-1.5625-1.140625-1.921875-.582031-4.398438 1.273438-5.636719l217.648437-133.523437-213.359375 123.207031c-1.980468 1.058594-4.441406.371094-5.585937-1.558594-1.148438-1.929687-.570313-4.421875 1.304687-5.652343l208.695313-127.804688-204.414063 118.019531c-1.976562 1.027344-4.410156.332031-5.546875-1.585937-1.136719-1.914063-.578125-4.386719 1.273438-5.625l179.34375-109.25-175.070313 101.109375c-1.976562 1.027343-4.410156.332031-5.546875-1.585938-1.136719-1.914062-.578125-4.386719 1.273438-5.625l182.140625-110.953125-177.867188 102.667969c-1.976562 1.042969-4.421875.355469-5.5625-1.566406-1.140625-1.917969-.582031-4.394531 1.273438-5.632813l220.015625-135.042968-215.726563 124.550781c-1.996094 1.179687-4.570312.515625-5.75-1.480469-1.179687-1.992188-.519531-4.566406 1.476563-5.746094l153.199219-92.917968-148.925782 85.941406c-1.984375 1.078125-4.464844.394531-5.617187-1.550782-1.148438-1.941406-.554688-4.449218 1.34375-5.667968l136.21875-82.433594-131.945313 76.171875c-1.984375 1.078125-4.464844.394531-5.617187-1.546875-1.148438-1.945312-.554688-4.449219 1.34375-5.671875l127.824219-77.371094-123.550782 71.328125c-1.984375 1.0625-4.457031.371094-5.597656-1.570312-1.144531-1.9375-.550781-4.4375 1.34375-5.65625l20.308594-12.171875-16.054688 9.234375c-1.984375 1.0625-4.457031.371094-5.597656-1.570313-1.144531-1.941406-.550781-4.4375 1.34375-5.65625l15.617188-9.332031-11.363282 6.5625c-1.992187 1.1875-4.566406.535156-5.753906-1.457031-1.1875-1.992188-.535156-4.566407 1.457031-5.753907l183.691407-113.160156-179.394532 103.566406c-1.984375 1.117188-4.496094.449219-5.660156-1.503906-1.167969-1.953125-.566406-4.480468 1.355469-5.695312l180.078125-111.777344-175.773438 101.484375c-1.996094 1.179687-4.570312.519531-5.75-1.476563-1.179687-1.996093-.519531-4.570312 1.476563-5.75l32.859375-19.851562-28.585938 16.476562c-1.984375 1.082032-4.464844.394532-5.617187-1.546874-1.148438-1.945313-.554688-4.449219 1.34375-5.667969l57.167969-34.808594-52.902344 30.585937c-1.980469 1.058594-4.441406.371094-5.585938-1.558593-1.148437-1.929688-.570312-4.421875 1.304688-5.652344l70.503906-43.183594-66.222656 38.171875c-1.984375 1.117188-4.496094.449219-5.664063-1.503906s-.566406-4.480469 1.359375-5.695312l95.214844-59.074219-90.910156 52.476562c-1.976563 1.105469-4.476563.445313-5.644532-1.496093-1.171874-1.941407-.589843-4.460938 1.3125-5.691407l106.976563-67.304687-102.644531 59.273437c-1.988282 1.191407-4.566406.546875-5.757813-1.445312-1.191406-1.988281-.546875-4.566407 1.441407-5.757813l66.125-41.285156-61.808594 35.679688c-1.964844 1.066406-4.417969.40625-5.582032-1.5-1.167968-1.90625-.636718-4.390626 1.207032-5.652344l104.558594-67.726563-100.183594 57.839844c-1.960938 1.097656-4.4375.457031-5.621094-1.457031-1.179688-1.910156-.644531-4.414063 1.214844-5.675782l93.167968-61.347656-88.761718 51.242188c-1.976563 1.15625-4.515625.515625-5.707032-1.4375-1.191406-1.957032-.59375-4.507813 1.339844-5.730469l41.472656-26.601563-37.105468 21.371094c-1.972656 1.144532-4.496094.511719-5.6875-1.433594-1.191406-1.941406-.617188-4.480468 1.296875-5.71875l39.859375-26.019531-35.46875 20.480469c-1.960938 1.097656-4.4375.457031-5.621094-1.457031-1.179688-1.910157-.644531-4.414063 1.214844-5.675781l31.054687-20.480469-26.605469 15.359375c-1.902343.953125-4.210937.339844-5.386718-1.433594-1.171875-1.773438-.835938-4.140625.785156-5.515625l51.601562-37.324219-47 27.152344c-1.898437 1.058594-4.289062.492188-5.515624-1.300781-1.222657-1.796875-.875-4.230469.804687-5.609375l41.773437-33.386719-37.105468 21.417969c-1.847656 1.003906-4.152344.488281-5.390625-1.210938-1.242188-1.695312-1.035157-4.046875.480469-5.503906l25.179687-22.730469-18.414063 10.652344c-1.855468 1.390625-4.484374 1.015625-5.875-.839844-1.390624-1.851562-1.015624-4.484375.835938-5.875l10.535156-9.902343c-1.378906-.695313-2.265625-2.089844-2.308594-3.632813-.046874-1.542969.761719-2.984375 2.097657-3.753906l21.371093-12.332031c1.851563-1.125 4.261719-.65625 5.550782 1.089843 1.292968 1.742188 1.042968 4.179688-.574219 5.625l-4.515625 4.199219 21.453125-12.347656c1.847656-1.003906 4.152344-.484375 5.390625 1.210937 1.242188 1.695313 1.035156 4.046875-.480469 5.503907l-25.179687 22.730468 51.066406-29.445312c1.898438-1.078125 4.304688-.519532 5.539062 1.28125 1.230469 1.804687.875 4.25-.820312 5.625l-41.835938 33.382812 69.835938-40.289062c1.929688-1.082032 4.371094-.476563 5.574219 1.382812s.753906 4.332032-1.027344 5.652344l-51.578125 37.25 76.792969-44.285156c1.960937-1.097656 4.4375-.453125 5.621093 1.457031 1.179688 1.910156.644532 4.414063-1.214843 5.675781l-31.054688 20.5 47.832031-27.632812c1.972657-1.144532 4.496094-.511719 5.6875 1.433594 1.191407 1.941406.617188 4.480468-1.296874 5.71875l-39.867188 26.019531 57.425781-33.171875c1.980469-1.207032 4.5625-.582032 5.773438 1.398437 1.207031 1.976563.582031 4.5625-1.398438 5.769531l-41.457031 26.605469 58.511719-33.773437c1.960937-1.097656 4.4375-.453125 5.621093 1.457031 1.179688 1.910156.644532 4.414063-1.214843 5.675781l-93.167969 61.347656 118.625-68.480468c1.96875-1.097656 4.449219-.449219 5.625 1.472656 1.179688 1.917969.628906 4.425781-1.242188 5.679688l-104.558593 67.691406 129.6875-74.84375c1.984375-1.144532 4.515625-.488282 5.695312 1.472656 1.175781 1.960938.566407 4.507812-1.371093 5.71875l-66.082032 41.246094 83.933594-48.4375c1.976562-1.109375 4.476562-.445313 5.644531 1.496094 1.171875 1.9375.589844 4.457031-1.3125 5.6875l-107.027343 67.308593 129.074218-74.492187c1.992188-1.191406 4.566406-.546875 5.757813 1.445312 1.191406 1.988282.546875 4.566406-1.441407 5.757813l-95.199218 59.03125 114.796875-66.234375c1.992187-1.1875 4.566406-.535156 5.753906 1.457031 1.1875 1.988281.535156 4.566406-1.457031 5.753906l-70.546875 43.148438 87.328125-50.359375c1.980468-1.078125 4.464844-.394532 5.613281 1.550781 1.152344 1.941406.558594 4.449219-1.34375 5.667969l-57.082031 34.75 72.703125-41.96875c1.988281-1.109375 4.5-.429688 5.65625 1.535156 1.15625 1.960938.539062 4.484375-1.390625 5.691406l-32.734375 19.800782 46.808593-27.027344c1.285157-.769532 2.886719-.796875 4.195313-.066406 1.3125.726562 2.132813 2.101562 2.160156 3.597656.023438 1.5-.753906 2.898437-2.042969 3.671875l-180.136718 111.78125 206.140625-118.984375c1.289062-.769532 2.886719-.789063 4.195312-.058594 1.3125.730469 2.128907 2.105469 2.152344 3.605469.019531 1.5-.761719 2.894531-2.050781 3.664062l-183.679688 113.125 204.058594-117.816406c1.292969-.761719 2.894531-.773437 4.199219-.035156 1.304687.738281 2.113281 2.117187 2.125 3.617187.015625 1.5-.773438 2.890625-2.066407 3.652344l-15.453124 9.230469 20.371093-11.75c1.996094-1.175781 4.570313-.507813 5.746094 1.492187 1.175781 1.996094.507813 4.570313-1.492187 5.742188l-20.25 12.148437 22.863281-13.1875c1.996093-1.179687 4.566406-.519531 5.75 1.476563 1.179687 1.996094.515625 4.570312-1.480469 5.75l-127.730469 77.304687 130.097657-75.105469c1.996093-1.179687 4.570312-.519531 5.75 1.476563 1.179687 1.996094.519531 4.570313-1.476563 5.75l-136.21875 82.480469 135.765625-78.402344c1.996094-1.179688 4.570312-.523438 5.753906 1.472656 1.179688 1.996094.523438 4.574219-1.472656 5.753906l-153.382812 93.035157 150.320312-86.789063c1.980469-1.097656 4.476562-.421875 5.636719 1.527344 1.15625 1.945312.558593 4.464844-1.351563 5.683594l-219.90625 134.957031 215.621094-124.484375c1.980469-1.078125 4.464844-.394531 5.613281 1.550781 1.152344 1.941407.558594 4.449219-1.34375 5.667969l-182.101562 110.945312 177.832031-102.667968c1.980469-1.078125 4.464844-.394532 5.613281 1.546875 1.152344 1.945312.558594 4.449219-1.34375 5.671875l-179.417969 109.257812 175.148438-101.117187c1.976562-1.058594 4.4375-.371094 5.585938 1.558593 1.144531 1.929688.570312 4.421876-1.308594 5.652344l-208.625 127.738282 204.347656-117.976563c1.980469-1.097656 4.476562-.421875 5.636719 1.527344 1.15625 1.945312.558593 4.460937-1.351563 5.679687l-217.714844 133.558594 213.429688-123.222656c1.980469-1.097656 4.476562-.421875 5.636719 1.527344 1.15625 1.945312.558593 4.460937-1.351563 5.679687l-234.316406 144.300781 230.03125-132.792968c1.996094-1.175782 4.566406-.507813 5.742188 1.492187 1.175781 1.996094.507812 4.570313-1.488282 5.742187l-51.710937 31.007813 47.457031-27.414063c1.976562-1.058593 4.4375-.371093 5.585938 1.558594 1.144531 1.929688.570312 4.421875-1.308594 5.652344l-208.710938 127.839844 204.433594-118.019532c1.980469-1.097656 4.476562-.421874 5.636719 1.527344 1.15625 1.945313.558593 4.460938-1.351563 5.683594l-217.144531 133.460938 212.859375-122.886719c1.988281-1.132813 4.519531-.464844 5.6875 1.503906 1.164062 1.96875.539062 4.511719-1.410156 5.714844l-175.671875 107.285156 171.394531-98.960937c1.980469-1.117188 4.492188-.449219 5.660156 1.503906 1.167969 1.953125.566406 4.480468-1.355468 5.699218l-216.550782 134.203126 212.246094-122.519532c1.976562-1.089844 4.460938-.417968 5.621094 1.515625 1.160156 1.9375.582031 4.445313-1.308594 5.675781l-201.214844 125.433594 196.902344-113.65625c1.289062-.761718 2.890625-.777344 4.195312-.035156 1.308594.738281 2.121094 2.117188 2.132813 3.617188.015625 1.5-.773437 2.890624-2.066406 3.652343l-8.878907 5.339844 4.617188-2.652344c1.96875-1.039062 4.40625-.359375 5.554688 1.550781 1.144531 1.910157.601562 4.382813-1.242188 5.632813l-160.792969 100.445313 156.488281-90.347657c1.980469-1.117187 4.492188-.449219 5.660157 1.503907 1.167969 1.953124.566406 4.480468-1.355469 5.699218l-122.351562 76.117188 118.046874-68.144532c1.96875-1.050781 4.417969-.378906 5.570313 1.53125 1.152344 1.914063.609375 4.394532-1.242187 5.644532l-125.824219 79.261718 121.496093-70.144531c1.980469-1.097656 4.476563-.421875 5.636719 1.527344 1.15625 1.945313.5625 4.460937-1.347656 5.679687l-30.636719 18.828126 26.347656-15.207032c1.96875-1.105468 4.460938-.449218 5.632813 1.480469s.609375 4.445313-1.277344 5.6875l-108.878906 69.714844 104.523437-60.347657c1.976563-1.074218 4.449219-.394531 5.601563 1.535157 1.15625 1.933593.578125 4.433593-1.304687 5.664062l-13.128907 8.125 8.832031-5.085937c1.972657-1.070313 4.4375-.398438 5.59375 1.527344 1.15625 1.921874.597657 4.414062-1.273437 5.65625l-25.332031 15.847656 20.984375-12.121094c1.949219-1.066406 4.394531-.429688 5.574219 1.453125 1.179687 1.882813.6875 4.359375-1.125 5.648437l-95.683594 64.78125 91.261718-52.6875c1.960938-1.050781 4.40625-.382812 5.566407 1.519532 1.15625 1.902344.625 4.378906-1.210938 5.640625l-16.835937 10.761719 12.480468-7.203126c1.96875-1.144531 4.492188-.507812 5.683594 1.433594 1.195313 1.941406.617188 4.480469-1.296875 5.71875l-26.445312 17.265625 22.058593-12.726562c1.960938-1.078125 4.425782-.429688 5.597657 1.480469 1.175781 1.910156.640625 4.402343-1.210938 5.664062l-8.390625 5.480469 4.003906-2.308594c1.945313-1.117187 4.425782-.503906 5.628907 1.390625 1.203125 1.890625.707031 4.398438-1.132813 5.6875l-32.960937 23.023438 28.464843-16.425782c1.902344-1.070312 4.304688-.503906 5.53125 1.300782 1.222657 1.808593.859376 4.25-.839843 5.621093l-36.765625 28.941407 32.054687-18.464844c1.878907-1.070313 4.265625-.539063 5.511719 1.230468 1.246094 1.769532.941406 4.191407-.699219 5.601563l-20.582031 17.40625 14.132812-8.15625c1.835938-1.074219 4.179688-.605469 5.464844 1.085937 1.28125 1.691407 1.097656 4.074219-.425781 5.550782l-11.207031 10.914062c1.519531.5625 2.578125 1.953125 2.71875 3.566406.144531 1.613282-.65625 3.167969-2.054688 3.988282l-21.355468 12.328125c-1.832032 1.070312-4.175782.605469-5.460938-1.085938-1.28125-1.691406-1.097656-4.078125.425781-5.554687l6.832031-6.636719-25.5 14.671875c-1.878906 1.070312-4.261718.539062-5.507812-1.230469s-.941406-4.195312.699219-5.601562l20.597656-17.417969-42.015625 24.25c-1.90625 1.089844-4.328125.53125-5.558594-1.285156-1.234375-1.816406-.859375-4.273438.855469-5.640625l36.738281-28.921875-62.109375 35.847656c-1.941406 1.074219-4.382812.453125-5.574219-1.417969-1.191406-1.871093-.71875-4.347656 1.074219-5.648437l32.929688-23.007813-52.089844 30.074219c-1.96875 1.117188-4.464844.476562-5.648437-1.449219-1.1875-1.925781-.632813-4.441406 1.25-5.695312l8.46875-5.523438-21.957032 12.667969c-1.964844 1.117188-4.464844.476562-5.648437-1.449219-1.1875-1.925781-.632813-4.441406 1.25-5.695312l26.40625-17.199219-42.246094 24.34375c-1.964844 1.082031-4.4375.421875-5.605469-1.492188-1.167968-1.917968-.621094-4.414062 1.242188-5.667968l16.785156-10.734375-30.988281 17.894531c-1.953125 1.097656-4.421875.46875-5.609375-1.429688-1.191406-1.894531-.683594-4.390624 1.152344-5.671874l95.785156-64.789063-124.589844 71.890625c-1.976562 1.105469-4.476562.445312-5.648438-1.496094-1.167968-1.941406-.585937-4.457031 1.316407-5.691406l25.382812-15.878906-39.988281 23.066406c-1.972656 1.054688-4.425781.375-5.578125-1.546875-1.148437-1.921875-.589844-4.40625 1.273437-5.648437l12.808594-7.929688-26.222656 15.105469c-1.964844 1.082031-4.4375.425781-5.605469-1.492188-1.167969-1.914062-.621093-4.414062 1.242188-5.664062l108.90625-69.734375-133.15625 76.910156c-1.972657 1.039062-4.417969.351562-5.5625-1.566406-1.140625-1.917969-.582031-4.394532 1.273437-5.636719l30.746094-18.894531-45.214844 26.097656c-1.96875 1.050781-4.417968.378906-5.570312-1.535156-1.15625-1.910156-.609375-4.390625 1.238281-5.640625l125.808594-79.253907-149.695313 86.429688c-1.976562 1.089844-4.460937.417969-5.625-1.519531-1.160156-1.933594-.582031-4.441407 1.308594-5.675781l122.34375-76.117188-144.308594 83.3125c-1.972656 1.066406-4.4375.394531-5.59375-1.527344s-.597656-4.414062 1.273438-5.660156l160.757812-100.425781-186.433594 107.613281c-.636718.378906-1.359374.585938-2.097656.59375zm0 0" fill="#a9b0bb"/><path d="m281.535156 151.660156c-1.707031 0-3.246094-1.035156-3.886718-2.617187-.644532-1.578125-.265626-3.394531.957031-4.585938l22.066406-21.5625-41.070313 23.6875c-1.921874 1.09375-4.363281.503907-5.582031-1.34375-1.214843-1.847656-.785156-4.324219.984375-5.65625l2.121094-1.578125-6.605469 3.808594c-1.800781 1.03125-4.082031.59375-5.371093-1.035156-1.289063-1.625-1.195313-3.949219.21875-5.46875l18.207031-19.40625-24.34375 14.070312c-1.835938 1.085938-4.195313.625-5.484375-1.078125-1.289063-1.699219-1.09375-4.097656.449218-5.570312l16.535157-16.015625-17.9375 10.367187c-1.832031 1.070313-4.175781.605469-5.460938-1.085937-1.28125-1.695313-1.101562-4.078125.425781-5.554688l23.25-22.660156-20.730468 11.960938c-1.914063 1.140624-4.386719.585937-5.632813-1.261719-1.242187-1.847657-.828125-4.34375.949219-5.691407l4.75-3.707031c-1.761719.152344-3.433594-.8125-4.175781-2.421875-.746094-1.605468-.398438-3.503906.859375-4.746094l15.320312-15.109374c-1.816406-.179688-3.308594-1.511719-3.691406-3.296876-.382812-1.78125.429688-3.609374 2.011719-4.519531l23.5-13.578125c1.828125-1.042968 4.144531-.566406 5.417969 1.105469 1.273437 1.675781 1.109374 4.03125-.382813 5.515625l-13 12.902344 19.625-11.332032c1.90625-1.082031 4.328125-.515624 5.550781 1.304688 1.226563 1.820312.84375 4.277344-.875 5.636719l-3.511718 2.746093c1.839843-.441406 3.746093.398438 4.660156 2.054688.910156 1.65625.601562 3.71875-.753906 5.035156l-23.25 22.664063 18.3125-10.578125c1.835937-1.085938 4.199218-.625 5.488281 1.078125 1.285156 1.699219 1.09375 4.097656-.453125 5.570312l-16.558594 16.03125 19.554688-11.269531c1.804687-1.058594 4.113281-.625 5.410156 1.011719 1.300781 1.640625 1.195312 3.984375-.246094 5.5l-18.207031 19.398437 45.191406-26.097656c1.925781-1.09375 4.367187-.503906 5.582031 1.34375 1.214844 1.851562.785156 4.324219-.980468 5.65625l-2.132813 1.585938 6.804687-3.925782c1.835938-1.074218 4.179688-.605468 5.464844 1.085938 1.28125 1.691406 1.097656 4.074218-.425781 5.550781l-22.117187 21.566406 9.148437-5.289062c2.007813-1.160157 4.578125-.46875 5.738281 1.539062 1.15625 2.011719.46875 4.578125-1.542968 5.738281l-38.046876 21.964844c-.636718.367188-1.359374.5625-2.097656.5625zm0 0" fill="#ffd67b"/><path d="m279.554688 102.097656c-1.71875.003906-3.269532-1.042968-3.90625-2.640625-.640626-1.597656-.238282-3.421875 1.011718-4.605469l9.589844-9.113281-5.78125 3.355469c-1.746094 1.007812-3.964844.632812-5.28125-.898438-1.3125-1.527343-1.351562-3.777343-.089844-5.351562l10.484375-13.09375-5.113281 2.945312c-1.402344.808594-3.140625.742188-4.476562-.175781-1.332032-.914062-2.019532-2.515625-1.769532-4.113281l2.285156-14.371094c-.746093-.367187-1.359374-.953125-1.761718-1.679687-1.160156-2.003907-.476563-4.570313 1.527344-5.730469l3.28125-1.898438c1.398437-.808593 3.140624-.742187 4.476562.175782 1.332031.914062 2.019531 2.515625 1.765625 4.113281l-1.902344 11.953125 16.785157-9.710938c1.75-1.019531 3.980468-.648437 5.300781.890626 1.316406 1.535156 1.351562 3.792968.078125 5.371093l-10.488282 13.09375 17.011719-9.820312c1.855469-1.390625 4.484375-1.015625 5.875.839843 1.390625 1.851563 1.015625 4.484376-.839843 5.875l-9.601563 9.105469 11.230469-6.496093c1.636718-.949219 3.703125-.6875 5.050781.640624 1.347656 1.328126 1.640625 3.390626.714844 5.042969l-5.976563 10.710938 5.40625-3.125c2.007813-1.140625 4.554688-.445313 5.710938 1.550781 1.152344 1.996094.476562 4.550781-1.511719 5.71875l-18.578125 10.734375c-1.632812.949219-3.703125.6875-5.050781-.640625-1.34375-1.328125-1.636719-3.390625-.714844-5.039062l5.976563-10.71875-28.636719 16.542968c-.632813.363282-1.351563.558594-2.082031.5625zm0 0" fill="#9ed26a"/><path d="m385.738281 144.25c-1.570312-.003906-3.007812-.882812-3.726562-2.28125s-.59375-3.082031.320312-4.359375l1.007813-1.417969-3.03125 1.753906c-1.851563 1.125-4.261719.65625-5.550782-1.085937-1.292968-1.742187-1.042968-4.183594.574219-5.628906l2.199219-2.074219-3.074219 1.78125c-1.847656 1.058594-4.199219.5625-5.464843-1.15625-1.261719-1.714844-1.039063-4.105469.523437-5.558594l11.902344-10.914062-12.757813 7.371094c-1.847656 1.015624-4.164062.503906-5.410156-1.195313-1.246094-1.703125-1.035156-4.066406.488281-5.519531l16.378907-14.8125-14.882813 8.59375c-1.855469 1.144531-4.277344.683594-5.578125-1.066406-1.296875-1.75-1.042969-4.207032.59375-5.648438l23.03125-21.773438-16.855469 9.738282c-1.828125 1.039062-4.144531.566406-5.417969-1.109375-1.273437-1.671875-1.109374-4.03125.382813-5.515625l15.207031-14.964844c-1.796875-.214844-3.253906-1.554688-3.613281-3.328125-.363281-1.769531.453125-3.574219 2.019531-4.476563l23.5-13.582031c1.828125-1.039062 4.144532-.566406 5.417969 1.105469 1.273437 1.675781 1.109375 4.035156-.378906 5.515625l-12.828125 12.59375 19.308594-11.164063c1.851562-1.128906 4.257812-.65625 5.550781 1.085938s1.042969 4.183594-.574219 5.628906l-23.042969 21.773438 18.082031-10.433594c1.847657-1.019531 4.160157-.503906 5.40625 1.195312 1.246094 1.703126 1.039063 4.0625-.488281 5.519532l-16.332031 14.863281 11.472656-6.621094c1.847656-1.046875 4.1875-.542969 5.445313 1.167969 1.257812 1.710938 1.039062 4.09375-.511719 5.546875l-11.890625 10.910156 1.46875-.839843c1.851563-1.125 4.257813-.65625 5.550781 1.085937 1.292969 1.742187 1.042969 4.183594-.574218 5.628906l-9.308594 8.761719c.976562.617188 1.65625 1.613281 1.875 2.746094.222656 1.132812-.035156 2.308594-.707032 3.25l-7.917968 11.078125c.707031 1.917969-.074219 4.066406-1.84375 5.085937l-3.847656 2.214844c-.640626.359375-1.363282.539062-2.097657.53125zm0 0" fill="#eb5463"/><path d="m411.464844 152.078125c-1.742188 0-3.304688-1.082031-3.921875-2.714844-.613281-1.632812-.15625-3.472656 1.152343-4.628906l4.894532-4.3125-14.730469 8.511719c-1.816406 1.058594-4.132813.613281-5.425781-1.042969-1.292969-1.65625-1.164063-4.011719.304687-5.515625l15.109375-15.675781-12.648437 7.300781c-1.691407.972656-3.824219.65625-5.15625-.765625s-1.511719-3.570313-.433594-5.195313l16.105469-24.195312c-1.082032-2.003906-.371094-4.5 1.601562-5.632812l4.332032-2.519532c1.6875-.972656 3.824218-.652344 5.15625.765625 1.332031 1.421875 1.511718 3.574219.433593 5.195313l-10.710937 16.097656 22.984375-13.269531c1.808593-1.046875 4.113281-.597657 5.402343 1.050781 1.289063 1.644531 1.167969 3.992188-.285156 5.496094l-15.105468 15.679687 25.398437-14.664062c1.867187-1.085938 4.257813-.574219 5.519531 1.183593 1.257813 1.757813.976563 4.183594-.652344 5.605469l-4.894531 4.308594 7.957031-4.59375c2.007813-1.140625 4.554688-.445313 5.710938 1.550781 1.152344 1.996094.476562 4.550782-1.511719 5.71875l-44.488281 25.683594c-.632812.378906-1.359375.578125-2.097656.578125zm0 0" fill="#9ed26a"/><path d="m449.246094 120.226562c-1.589844 0-3.042969-.898437-3.753906-2.320312-.710938-1.421875-.558594-3.121094.394531-4.394531l1.039062-1.410157-4.984375 2.886719c-1.683594.976563-3.820312.664063-5.15625-.75-1.335937-1.417969-1.523437-3.566406-.449218-5.191406l10.019531-15.226563-21.769531 12.589844c-1.855469 1.109375-4.246094.632813-5.53125-1.105468-1.285157-1.734376-1.042969-4.160157.5625-5.609376l5.925781-5.554687-10.769531 6.210937c-1.773438 1.019532-4.023438.617188-5.328126-.957031-1.304687-1.578125-1.285156-3.863281.046876-5.414062l15.621093-18.148438-10.339843 5.96875c-1.734376.992188-3.925782.625-5.242188-.875-1.3125-1.503906-1.390625-3.722656-.179688-5.308593l6.863282-8.972657-1.441406.835938c-1.4375.828125-3.226563.734375-4.566407-.238281-1.339843-.972657-1.980469-2.644532-1.636719-4.265626l1.929688-9.140624c-.601562-.363282-1.101562-.875-1.453125-1.488282-1.160156-2.003906-.476563-4.570312 1.527344-5.730468l3.285156-1.898438c1.433594-.828125 3.222656-.734375 4.5625.238281 1.339844.976563 1.984375 2.648438 1.636719 4.269531l-1.324219 6.277344 11.539063-6.664062c1.734374-.992188 3.925781-.625 5.242187.878906 1.316406 1.5 1.390625 3.71875.179687 5.308594l-6.871093 8.972656 13.480469-7.78125c1.769531-1.011719 4.011718-.601562 5.3125.96875 1.300781 1.570312 1.28125 3.851562-.042969 5.402344l-15.613281 18.152344 20.859374-12.042969c1.851563-1.109375 4.242188-.632813 5.527344 1.105469 1.285156 1.734374 1.042969 4.160156-.558594 5.609374l-5.925781 5.53125 5.632813-3.25c1.683594-.976562 3.820312-.664062 5.15625.753907 1.335937 1.414062 1.523437 3.566406.449218 5.191406l-10.023437 15.234375 7.296875-4.199219c1.722656-.988281 3.90625-.628906 5.222656.855469 1.320313 1.484375 1.417969 3.695312.230469 5.289062l-3.238281 4.347657c1.554687.539062 2.648437 1.9375 2.800781 3.574219.15625 1.636718-.660156 3.210937-2.085937 4.03125l-11.960938 6.90625c-.640625.363281-1.363281.550781-2.097656.546874zm0 0" fill="#9579da"/><path d="m290.085938 284.5625c-1.699219 0-3.230469-1.027344-3.878907-2.601562-.644531-1.570313-.28125-3.378907.925781-4.574219l13.070313-12.945313-33.464844 19.304688c-1.886719 1.105468-4.308593.574218-5.5625-1.214844-1.25-1.792969-.917969-4.25.769531-5.640625l25.835938-21.597656-36.707031 21.1875c-1.933594 1.125-4.410157.539062-5.628907-1.335938-1.222656-1.875-.757812-4.378906 1.054688-5.691406l12.992188-9.46875-15.945313 9.234375c-1.828125 1.039062-4.144531.566406-5.417969-1.105469-1.273437-1.675781-1.109375-4.035156.382813-5.515625l13.082031-12.894531-15.359375 8.847656c-1.832031 1.070313-4.175781.605469-5.460937-1.085937-1.28125-1.691406-1.101563-4.078125.425781-5.554688l19.84375-19.378906-19.632813 11.339844c-1.835937 1.089844-4.199218.625-5.488281-1.078125-1.289063-1.699219-1.09375-4.097657.453125-5.570313l24.28125-23.570312-18.703125 10.820312c-1.820313 1.050782-4.136719.589844-5.417969-1.074218-1.285156-1.664063-1.136718-4.019532.339844-5.515626l15.992188-16.191406c-1.503907-.03125-2.890626-.820312-3.6875-2.097656-1.15625-2.007812-.46875-4.574219 1.539062-5.730469l23.5-13.582031c1.820312-1.050781 4.136719-.589844 5.421875 1.074219 1.28125 1.664062 1.136719 4.023437-.34375 5.515625l-14.570313 14.738281 20.984376-12.136719c1.835937-1.089844 4.195312-.625 5.484374 1.074219 1.289063 1.703125 1.09375 4.101563-.449218 5.574219l-24.273438 23.558594 19.253906-11.113282c1.832032-1.070312 4.179688-.605468 5.460938 1.089844 1.285156 1.691406 1.101562 4.074219-.425781 5.550781l-19.839844 19.378907 14.8125-8.550782c1.828125-1.042968 4.144531-.570312 5.417969 1.105469 1.273437 1.675781 1.109375 4.03125-.382813 5.515625l-13.074219 12.902344 55.746094-32.199219c1.933594-1.125 4.414063-.539063 5.632813 1.335937 1.222656 1.875.757812 4.378907-1.054688 5.691407l-12.96875 9.464843 10.515625-6.050781c1.882813-1.078125 4.28125-.542969 5.527344 1.234375 1.242188 1.78125.925781 4.214844-.734375 5.617188l-25.84375 21.613281 19.617187-11.332031c1.828126-1.042969 4.140626-.570313 5.414063 1.105468 1.273437 1.675782 1.113281 4.03125-.378906 5.515626l-15.300781 15.160156c1.804687.1875 3.28125 1.515625 3.664062 3.289062.382812 1.773438-.417969 3.59375-1.984375 4.507813l-23.359375 13.488281c-.636719.371094-1.363281.566406-2.101562.5625zm0 0" fill="#eb5463"/><path d="m292.128906 229.121094c-1.652344-.007813-3.144531-.984375-3.8125-2.496094-.667968-1.511719-.390625-3.273438.714844-4.503906l6.09375-6.871094-14.613281 8.390625c-1.730469.996094-3.921875.632813-5.238281-.863281-1.320313-1.496094-1.402344-3.714844-.203126-5.304688l11.308594-14.949218-5.875 3.359374c-1.410156.8125-3.164062.738282-4.5-.195312-1.332031-.929688-2.011718-2.542969-1.738281-4.144531l2.285156-13.320313c-.75-.367187-1.371093-.953125-1.78125-1.679687-1.160156-2.007813-.472656-4.574219 1.535157-5.734375l3.359374-1.9375c1.40625-.8125 3.160157-.738282 4.496094.1875 1.335938.929687 2.011719 2.546875 1.738282 4.152344l-1.871094 10.910156 16.066406-9.273438c1.726562-.996094 3.917969-.636718 5.238281.855469 1.320313 1.496094 1.40625 3.710937.207031 5.304687l-11.304687 14.957032 19.042969-10.996094c1.785156-1.03125 4.050781-.613281 5.355468.980469 1.300782 1.597656 1.25 3.902343-.117187 5.441406l-6.085937 6.867187 7.335937-4.238281c2.007813-1.140625 4.554687-.449219 5.710937 1.546875 1.152344 2 .476563 4.554688-1.511718 5.71875l-29.722656 17.167969c-.632813.40625-1.363282.640625-2.113282.667969zm0 0" fill="#9ed26a"/><path d="m421.839844 236.390625c-1.628906.003906-3.109375-.933594-3.804688-2.40625-.695312-1.472656-.472656-3.214844.566406-4.46875l12.589844-15.171875-16.425781 9.457031c-1.753906 1.011719-3.972656.628907-5.289063-.90625-1.3125-1.535156-1.34375-3.789062-.074218-5.363281l10.648437-13.226562-5.285156 3.054687c-1.402344.808594-3.144531.742187-4.476563-.175781-1.335937-.914063-2.023437-2.515625-1.769531-4.113282l2.300781-14.722656c-.75-.363281-1.371093-.949218-1.78125-1.679687-1.160156-2.003907-.476562-4.570313 1.527344-5.730469l3.28125-1.898438c1.402344-.808593 3.140625-.738281 4.472656.171876 1.332032.914062 2.023438 2.511718 1.773438 4.109374l-1.921875 12.363282 17.148437-9.914063c1.75-1.019531 3.980469-.640625 5.296876.898438 1.320312 1.539062 1.351562 3.800781.074218 5.371093l-10.652344 13.222657 17.125-9.890625c1.757813-1.011719 3.992188-.625 5.304688.929687 1.308594 1.550781 1.320312 3.820313.023438 5.382813l-12.546876 15.167968 15.453126-8.921874c1.539062-.894532 3.476562-.714844 4.828124.441406 1.355469 1.15625 1.832032 3.042968 1.1875 4.703125l-3.601562 9.375 1.679688-.9375c2.007812-1.140625 4.554687-.449219 5.710937 1.546875 1.152344 2 .476563 4.554687-1.515625 5.71875l-11.890625 6.867187c-1.539063.890625-3.472656.710938-4.824219-.441406-1.351562-1.152344-1.832031-3.035156-1.195312-4.695313l3.59375-9.382812-25.390625 14.664062c-.648438.386719-1.386719.597657-2.140625.601563zm0 0" fill="#9ed26a"/><path d="m394.914062 236.242188c-1.511718 0-2.90625-.808594-3.652343-2.125-.746094-1.3125-.730469-2.925782.042969-4.222657l9.082031-15.199219-35.917969 20.730469c-1.878906 1.070313-4.261719.539063-5.507812-1.230469-1.246094-1.769531-.941407-4.191406.699218-5.601562l14.328125-12.152344-7.125 4.113282c-1.851562 1.058593-4.203125.5625-5.464843-1.15625-1.265626-1.714844-1.039063-4.109376.519531-5.558594l13.566406-12.472656c-1.472656-.621094-2.464844-2.015626-2.5625-3.609376-.101563-1.589843.710937-3.097656 2.089844-3.894531l23.503906-13.582031c1.847656-1.058594 4.199219-.5625 5.464844 1.152344 1.261719 1.71875 1.039062 4.109375-.523438 5.5625l-7.949219 7.300781 14.582032-8.390625c1.878906-1.070312 4.261718-.539062 5.507812 1.230469s.941406 4.191406-.699218 5.601562l-14.320313 12.152344 9.570313-5.53125c1.652343-.957031 3.746093-.679687 5.089843.683594 1.34375 1.359375 1.597657 3.457031.617188 5.101562l-9.066407 15.199219 3.476563-2.007812c2.003906-1.140626 4.554687-.445313 5.707031 1.550781 1.15625 2 .480469 4.550781-1.511718 5.71875l-17.449219 10.074219c-.636719.367187-1.363281.5625-2.097657.5625zm0 0" fill="#ffd67b"/><path d="m417.332031 285.710938c-1.757812 0-3.332031-1.097657-3.941406-2.746094-.605469-1.652344-.117187-3.507813 1.222656-4.648438l8.214844-7.007812-21.621094 12.480468c-1.894531 1.054688-4.277343.492188-5.503906-1.296874-1.222656-1.792969-.882813-4.21875.789063-5.601563l17.003906-13.640625-25.421875 14.648438c-1.84375 1.125-4.238281.671874-5.539063-1.050782-1.300781-1.722656-1.085937-4.152344.5-5.613281l18.761719-17.972656-25.308594 14.613281c-1.726562.996094-3.917969.636719-5.238281-.855469-1.320312-1.496093-1.40625-3.710937-.207031-5.304687l11.625-15.394532-14.269531 8.242188c-1.304688.753906-2.917969.75-4.21875-.011719-1.300782-.761719-2.09375-2.164062-2.078126-3.671875l.136719-12.035156c-1.816406-.179688-3.308593-1.511719-3.691406-3.296875-.382813-1.78125.429687-3.609375 2.011719-4.519531l3.863281-2.230469c1.304687-.753906 2.914063-.75 4.21875.011719 1.300781.761718 2.09375 2.164062 2.074219 3.671875l-.132813 11.128906 25.882813-14.90625c1.730468-.992187 3.921875-.632813 5.242187.863281 1.316407 1.496094 1.402344 3.714844.199219 5.304688l-11.625 15.386718 37.492188-21.648437c1.839843-1.125 4.238281-.671875 5.539062 1.050781s1.085938 4.152344-.503906 5.617188l-18.816406 17.984375 42.804687-24.734375c1.902344-1.105469 4.335937-.554688 5.578125 1.261718 1.238281 1.820313.863281 4.285157-.859375 5.652344l-16.972656 13.617188 13.824219-7.984375c1.882812-1.109375 4.300781-.589844 5.558593 1.195312 1.261719 1.785157.941407 4.234375-.730469 5.636719l-10.074218 8.585938c1.941406-.113282 3.707031 1.113281 4.269531 2.972656.5625 1.863281-.222656 3.863281-1.902344 4.84375l-36.089843 20.839844c-.628907.363281-1.339844.558593-2.066407.5625zm0 0" fill="#9579da"/><path d="m241.113281 419.863281c-1.605469 0-3.070312-.910156-3.773437-2.351562-.703125-1.441407-.527344-3.15625.457031-4.421875l4.515625-5.789063-9.316406 5.378907c-1.617188.933593-3.65625.6875-5.003906-.605469-1.347657-1.292969-1.679688-3.320313-.8125-4.976563l6.613281-12.589844-1.207031.695313c-1.996094 1.042969-4.453126.328125-5.582032-1.617187-1.125-1.949219-.515625-4.4375 1.382813-5.640626l13.742187-7.941406c1.617188-.933594 3.65625-.6875 5.003906.605469 1.347657 1.292969 1.679688 3.320313.8125 4.976563l-6.625 12.589843 15.453126-8.90625c1.738281-1.007812 3.949218-.640625 5.269531.875 1.320312 1.515625 1.378906 3.75.144531 5.335938l-4.523438 5.792969c1.300782-.828126 2.949219-.875 4.296876-.125 1.347656.753906 2.171874 2.179687 2.152343 3.722656-.023437 1.542968-.886719 2.945312-2.253906 3.660156l-18.65625 10.769531c-.636719.371094-1.355469.566407-2.089844.5625zm0 0" fill="#9ed26a"/><path d="m311.070312 353.554688c-1.5625 0-2.992187-.867188-3.71875-2.25-.722656-1.382813-.621093-3.054688.269532-4.335938l4.878906-7.042969-11.390625 6.570313c-1.585937.898437-3.570313.667968-4.910156-.566406-1.339844-1.234376-1.730469-3.191407-.964844-4.847657l6.714844-14.328125-2.210938 1.269532c-1.992187 1.042968-4.453125.328124-5.578125-1.617188-1.125-1.949219-.515625-4.4375 1.382813-5.644531l13.789062-7.957031c1.589844-.894532 3.570313-.667969 4.910157.566406 1.339843 1.234375 1.730468 3.195312.96875 4.847656l-6.714844 14.328125 16.003906-9.234375c1.703125-.980469 3.859375-.652344 5.1875.792969 1.332031 1.445312 1.480469 3.621093.363281 5.234375l-5.246093 7.554687c1.707031-.25 3.398437.558594 4.269531 2.046875 1.15625 2.003906.472656 4.5625-1.527344 5.726563l-14.378906 8.300781c-.632813.378906-1.355469.582031-2.097657.585938zm0 0" fill="#9ed26a"/><path d="m439.675781 351.945312c-1.566406 0-3-.867187-3.726562-2.253906-.726563-1.386718-.617188-3.0625.277343-4.34375l7.242188-10.433594-11.128906 6.394532c-1.714844.988281-3.886719.640625-5.210938-.832032-1.324218-1.46875-1.441406-3.667968-.277344-5.269531l4.832032-6.65625c-1.84375-.113281-3.394532-1.421875-3.824219-3.21875-.425781-1.796875.375-3.664062 1.972656-4.59375l13.789063-7.957031c1.714844-.980469 3.878906-.632812 5.199218.835938 1.320313 1.464843 1.441407 3.652343.289063 5.257812l-3.84375 5.285156 10.230469-5.875c1.703125-.980468 3.859375-.652344 5.191406.792969 1.328125 1.445313 1.480469 3.621094.359375 5.234375l-7.238281 10.433594 6.085937-3.515625c1.300781-.828125 2.953125-.875 4.296875-.125 1.347656.753906 2.171875 2.179687 2.152344 3.722656-.019531 1.539063-.886719 2.945313-2.25 3.660156l-22.304688 12.894531c-.640624.375-1.371093.570313-2.113281.5625zm0 0" fill="#9ed26a"/><path d="m374.113281 419.519531c-1.507812-.003906-2.894531-.816406-3.636719-2.128906-.746093-1.3125-.726562-2.921875.046876-4.214844l7.886718-13.1875-12.984375 7.496094c-1.746093 1-3.957031.621094-5.269531-.90625s-1.355469-3.773437-.101562-5.347656l4.128906-5.179688c-1.691406-.363281-2.988282-1.734375-3.257813-3.445312-.273437-1.710938.535157-3.414063 2.035157-4.285157l14.425781-8.332031c1.75-1.023437 3.980469-.648437 5.300781.886719 1.320312 1.539062 1.351562 3.796875.082031 5.375l-2.300781 2.859375 7.761719-4.472656c1.65625-.957031 3.75-.671875 5.09375.691406 1.339843 1.363281 1.589843 3.460937.605469 5.101563l-7.886719 13.167968 6.269531-3.625c1.300781-.828125 2.949219-.875 4.296875-.125 1.34375.753906 2.171875 2.179688 2.148437 3.722656-.019531 1.542969-.882812 2.945313-2.25 3.660157l-20.296874 11.753906c-.636719.363281-1.363282.546875-2.097657.535156zm0 0" fill="#9ed26a"/><path d="m79.964844 395.625c-1.832032 0-3.457032-1.1875-4.007813-2.9375-.550781-1.746094.097657-3.652344 1.601563-4.703125l23.457031-16.347656-32.816406 18.933593c-1.941407 1.089844-4.390625.476563-5.589844-1.398437-1.199219-1.871094-.730469-4.355469 1.074219-5.660156l34.128906-24.089844-35.253906 20.339844c-1.933594 1.082031-4.375.476562-5.574219-1.382813-1.203125-1.859375-.753906-4.335937 1.023437-5.652344l27.1875-19.597656-22.980468 13.261719c-1.941406 1.117187-4.421875.515625-5.628906-1.371094-1.210938-1.886719-.722657-4.390625 1.105468-5.6875l3.75-2.644531c-1.882812.648438-3.960937-.113281-4.976562-1.824219-1.015625-1.710937-.6875-3.902343.78125-5.242187l20.746094-19.148438-15.761719 9.160156c-1.644531.941407-3.714844.664063-5.054688-.679687-1.339843-1.339844-1.613281-3.410156-.667969-5.054687l8.257813-14.269532h-.066406c-1.992188 1.042969-4.453125.328125-5.578125-1.617187-1.125-1.949219-.515625-4.4375 1.378906-5.640625l13.65625-7.890625c1.648438-.949219 3.722656-.675781 5.066406.664062 1.34375 1.34375 1.617188 3.421875.667969 5.066407l-8.265625 14.269531 34.882812-20.144531c1.847657-1.058594 4.199219-.5625 5.464844 1.15625 1.261719 1.714843 1.039063 4.105468-.523437 5.558593l-20.757813 19.164063 44.8125-25.835938c1.945313-1.121094 4.421875-.515625 5.632813 1.371094 1.207031 1.886719.722656 4.390625-1.105469 5.6875l-2.972656 2.097656 15.863281-9.15625c1.933594-1.082031 4.375-.476562 5.574219 1.382813 1.203125 1.859375.753906 4.332031-1.023438 5.652343l-27.144531 19.570313 43.058594-24.859375c1.941406-1.121094 4.417969-.515625 5.628906 1.371094 1.207031 1.886718.722656 4.390625-1.105469 5.6875l-34.085937 24.0625 38.113281-22.007813c1.941406-1.074219 4.382812-.453125 5.574219 1.417969 1.191406 1.871094.71875 4.347656-1.074219 5.652344l-23.503906 16.367187 20.507812-11.835937c1.914063-1.070313 4.328125-.484375 5.542969 1.34375 1.210937 1.828125.8125 4.28125-.917969 5.628906l-26.507812 20.035156 21.890625-12.628906c1.925781-1.121094 4.390625-.542969 5.617187 1.320312 1.222656 1.859376.78125 4.351563-1.007812 5.679688l-5.039063 3.734375.40625-.234375c1.769531-1.023438 4.019531-.621094 5.324219.949219 1.308594 1.574219 1.289062 3.859375-.039062 5.410156l-14.921876 17.410156 9.660157-5.566406c1.992187-1.042969 4.453125-.328125 5.578125 1.621094 1.125 1.945312.515625 4.433593-1.382813 5.640625l-30.945312 17.84375c-1.769531 1.011718-4.007813.609375-5.3125-.957032-1.300781-1.566406-1.292969-3.839843.023437-5.394531l14.941406-17.417969-41.195312 23.769532c-1.921875 1.09375-4.367188.507812-5.582031-1.34375-1.214844-1.847656-.785157-4.324219.984375-5.65625l4.984375-3.710938-18.566407 10.710938c-1.914062 1.070312-4.332031.484375-5.542968-1.34375-1.210938-1.828125-.8125-4.28125.917968-5.628906l26.523438-20.046876-46.808594 27.019532c-.636718.378906-1.359375.585937-2.101562.597656zm0 0" fill="#66d4f1"/><g fill="#262626"><path d="m455.480469 2.996094c-65.117188-5.683594-133.296875 0-198.621094 0-66.117187 0-133.382813-3.695313-199.402344 0-54.28125 3.039062-54.003906 45.265625-54.003906 87.578125v248.328125c0 38.464844-18.9375 139.238281 31.894531 154.4375 19.789063 5.875 45.9375 1.679687 66.023438 1.679687h349.089844c.074218 0 .21875-.042969.300781-.050781.84375.027344 1.6875-.023438 2.519531-.152344 62.40625-8.390625 49.144531-73.230468 49.144531-120.125v-251.285156c0-44.390625 14.613281-115.039062-46.945312-120.410156zm.949219 486.820312h-361.246094c-19.152344 0-36.21875 2.515625-53.71875-5.875-29.109375-13.976562-25.867188-37.167968-25.867188-64.195312v-315.449219c0-17.558594-3.441406-39.082031 0-56.40625 12.019532-60.382813 107.015625-39.742187 151.644532-39.742187h226.445312c17.183594 0 37.769531-3.164063 54.734375 0 34.085937 6.363281 41.394531 27.867187 41.847656 56.175781 1.183594 74.410156 0 148.933593 0 223.351562v117.566407c0 28.605468 8.597657 78.078124-33.839843 84.574218zm0 0"/><path d="m334.597656 97.289062c0-.238281-.109375-.378906-.140625-.582031.042969-.140625.078125-.289062.097657-.433593-.726563-27.761719-22.996094-50.125-50.753907-50.96875-1.679687-3.085938-7.722656-2.566407-10.449219 0-26.539062 2.152343-51.652343 20.339843-51.695312 53.71875-.085938 71.539062 109.25 66.863281 112.941406-1.734376zm-12.925781-3.738281h-37.402344v-41.042969c.546875.101563 1.074219.152344 1.621094.277344 19.3125 4.710938 33.617187 21.003906 35.78125 40.765625zm-49.707031-41.5625v46.40625c0 3.132813 2.964844 3.851563 5.582031 3.851563h44.484375c-2.894531 23.722656-20.980469 44.753906-47.128906 41.785156-23.488282-3.332031-40.890625-23.53125-40.714844-47.257812-.292969-22.242188 15.804688-41.324219 37.777344-44.785157zm0 0"/><path d="m418.289062 46.128906c-.957031-3.476562-8.167968-2.566406-10.910156.09375-26.542968 2.390625-51.570312 20.578125-51.429687 53.304688-.957031 18.453125 8.984375 35.753906 25.410156 44.21875.984375 1.367187 2.617187 2.109375 4.296875 1.953125 27.613281 10.621093 58.902344.761719 75.441406-23.769531 1.960938-1.15625 3.078125-2.601563 2.121094-3.792969 3.371094-6.820313 5.289062-14.265625 5.640625-21.863281-.777344-27.53125-23.035156-49.601563-50.570313-50.144532zm-50.160156 50.144532c.070313-22.308594 16.195313-41.320313 38.191406-45.03125v46.304687c-6.949218 12.144531-13.898437 24.289063-20.839843 36.4375-10.949219-9.484375-17.269531-23.230469-17.351563-37.710937zm28.414063 44.894531c-.679688-.308594-1.292969-.738281-1.957031-1.082031l20.296874-35.472657 35.820313 17.878907c-1.371094 2.613281-2.996094 5.082031-4.851563 7.378906-12.457031 13.703125-32.128906 18.210937-49.308593 11.296875zm57.761719-27.816407-14.546876-7.257812-14.492187-7.238281c-2.167969-1.238281-4.410156-2.339844-6.714844-3.296875.132813-2.445313.132813-4.898438 0-7.34375v-36.589844c2.503907.453125 4.957031 1.136719 7.335938 2.050781 18.527343 7.738281 30.664062 25.773438 30.851562 45.851563-.277343 4.6875-1.09375 9.324218-2.433593 13.824218zm0 0"/><path d="m334.554688 230.566406c-.324219-7.539062-2.183594-14.929687-5.472657-21.722656-.007812-.140625-.066406-.269531-.167969-.367188-8.925781-16.507812-25.960937-27.023437-44.71875-27.609374v-.660157c0-1.855469-6.714843-1.285156-10.164062.722657-26.734375 2.195312-52.214844 20.320312-52.351562 52.875-.300782 70.875 109.316406 63.1875 112.875-3.238282zm-46.019532-43.789062c12.007813 3.8125 21.957032 12.324218 27.582032 23.59375l-31.894532 15.949218v-40.625c1.449219.335938 2.851563.621094 4.3125 1.082032zm-16.492187-1.785156v48.832031c0 2.859375 8.710937-.050781 9.660156-.53125l36.511719-18.21875c2.40625 5.980469 3.824218 12.3125 4.195312 18.75-1.609375 29.921875-27.933594 56.378906-59.332031 42.242187-17.753906-8.203125-29.152344-25.941406-29.234375-45.5-.5625-22.644531 15.804688-42.171875 38.199219-45.574218zm0 0"/><path d="m418.414062 180.054688c-.285156-2.140626-5.53125-1.855469-9.039062-.101563-27.109375 1.578125-53.265625 19.75-53.398438 53.449219-.277343 71.175781 109.214844 65.898437 112.875-1.996094 0-.160156-.101562-.242188-.117187-.394531-.015625-.152344.125-.285157.117187-.445313-.746093-27.550781-22.886718-49.722656-50.4375-50.511718zm37.773438 49.253906h-37.695312v-42.992188c1.835937.351563 3.652343.820313 5.429687 1.410156 18.03125 6.257813 30.675781 22.558594 32.246094 41.582032zm-49.832031-43.394532v43.394532h-37.839844c.34375-21.75 16.320313-40.082032 37.820313-43.394532zm-.984375 92.242188c-20.25-4.902344-35.03125-22.296875-36.601563-43.074219h38.609375c1.738282.542969 3.605469.542969 5.34375 0h43.738282c-2.339844 25.652344-22.535157 49.363281-51.105469 43.074219zm0 0"/><path d="m423.125 334.117188c-.167969 4.5 1.375 8.898437 4.320312 12.304687l-35.832031 35.832031c-7.238281-3.503906-15.664062-3.5625-22.953125-.167968-13.027344-13.027344-26.050781-26.058594-39.074218-39.097657 2.96875-3.222656 4.726562-7.375 4.96875-11.75-1.417969-26.441406-45.84375-20.898437-45.726563 3.257813-.136719 4.226562 1.316406 8.351562 4.078125 11.554687l-36.292969 36.386719c-13.503906-6.027344-34.847656 1.484375-34.921875 18.894531-.136718 27.109375 44.367188 22.738281 45.699219-2.058593 0-.140626-.089844-.214844-.109375-.351563-.015625-.132813.136719-.285156.128906-.445313-.121094-4.148437-1.652344-8.132812-4.339844-11.296874l36.585938-36.636719c6.816406 2.230469 14.21875 1.832031 20.757812-1.117188l39.449219 39.449219c-2.644531 3.53125-4.03125 7.84375-3.9375 12.253906.191407 27.816406 44.417969 24.476563 45.820313-1.679687 0-.257813-.117188-.425781-.152344-.660157.042969-.136718.074219-.277343.09375-.421874-.132812-4.300782-1.699219-8.4375-4.449219-11.75l36.007813-36.007813c13.1875 6.078125 34.65625-1.25 35.589844-18.53125 0-.167969-.101563-.261719-.117188-.414063-.019531-.148437.125-.285156.117188-.441406-1.429688-26.84375-45.652344-22.394531-45.710938 2.894532zm-178.414062 79.214843c-6.457032-1.835937-10.878907-7.78125-10.785157-14.492187 0-6.363282 4.300781-14.09375 11.566407-11.652344 5.871093 2.300781 9.730468 7.964844 9.722656 14.269531-.472656 5.742188-3.542969 13.226563-10.503906 11.875zm64.238281-67.984375c-4.960938-2.941406-7.992188-8.285156-7.964844-14.050781 0-6.800781 5.074219-15.023437 12.679687-11.1875 5.347657 2.84375 8.703126 8.390625 8.738282 14.445313-.394532 7.207031-5.246094 15.46875-13.453125 10.785156zm70.234375 67.257813c-6.492188-1.238281-11.121094-7.015625-10.910156-13.625.058593-6.125 4.5-12.691407 11.273437-11.195313 5.894531 1.71875 9.933594 7.136719 9.902344 13.277344-.453125 5.625-3.609375 12.195312-10.265625 11.53125zm66.9375-66.546875c-6.433594-1.765625-10.855469-7.664063-10.742188-14.335938 0-6.359375 4.363282-13.890625 11.589844-11.546875 5.828125 2.21875 9.679688 7.8125 9.671875 14.050781-.464844 5.75-3.578125 13.109376-10.519531 11.824219zm0 0"/><path d="m179.074219 305.132812c-13.957031-5.875-36.257813-1.601562-50.710938-1.601562-17.289062-1.160156-34.640625-1.113281-51.921875.140625-21.605468 3.15625-22.714844 19.121094-22.714844 37.320313 0 15.550781-5.941406 44.199218 11.675782 52.742187 12.589844 6.078125 33.835937 2.140625 47.003906 2.140625h55.992188c.941406-.007812 1.871093-.199219 2.738281-.5625 21.863281-5.035156 20.796875-22.300781 20.796875-41.445312 0-15.460938 5.304687-41.09375-12.859375-48.734376zm-10.214844 82.339844h-80.675781c-16.996094 0-22.152344-11.121094-22.152344-26.917968 0-13.570313-4.144531-32.136719 5.1875-42.578126 8.746094-9.777343 23.503906-6.027343 36.402344-6.027343h49.875c18.164062 0 22.152344 12.765625 22.152344 29.050781 0 11.152344 5.65625 41.957031-10.789063 46.472656zm0 0"/><path d="m166.722656 270.511719v-55.75c0-5.582031-12.222656-3.257813-12.222656 1.292969v54.457031h-21.285156v-105.859375c0-6.621094-12.355469-5.035156-12.355469.789062v105.070313h-21.269531v-72.46875c0-5.875-12.253906-3.726563-12.253906 1.15625v71.765625c-7.453126 1.335937-15.101563 1.179687-22.496094-.453125-14.066406-5.875-7.25-42.5625-7.25-55.699219v-67.257812c0-5.320313-12.1875-2.878907-12.1875 1.402343v75.582031c0 15.664063-7.386719 46.339844 10.808594 53.089844 16.410156 6.085938 45.710937.183594 62.953124.183594h3.40625c2.40625 1.339844 5.328126 1.339844 7.730469 0h27.035157c1.289062.277344 2.617187.277344 3.902343 0h30.664063c4.824218 0 12.808594-7.300781 4.617187-7.300781zm0 0"/><path d="m49.296875 51.59375h92.328125c5.355469 0 12.589844-8.109375 4.398438-8.109375h-92.328126c-5.355468 0-12.597656 8.109375-4.398437 8.109375zm0 0"/><path d="m175.199219 51.609375h8.390625c3.105468.335937 6.148437-1.03125 7.957031-3.574219 1.210937-2.519531-1.046875-4.574218-3.558594-4.574218h-8.390625c-3.105468-.335938-6.148437 1.035156-7.957031 3.582031-1.210937 2.503906 1.046875 4.566406 3.558594 4.566406zm0 0"/><path d="m396.199219 454.496094h-142.691407c-6.839843 0-9.417968 8.644531-1.140624 8.644531h142.6875c6.84375 0 9.417968-8.644531 1.144531-8.644531zm0 0"/><path d="m441.539062 456.359375h-8.394531c-3.023437-.074219-6.007812.722656-8.59375 2.300781-1.738281 1.207032-1.839843 2.617188.703125 2.617188h8.394532c3.027343.074218 6.011718-.722656 8.59375-2.300782 1.738281-1.207031 1.839843-2.617187-.703126-2.617187zm0 0"/><path d="m48.976562 84.109375h67.148438c3.996094 0 13.09375-5.992187 4.96875-5.992187h-67.148438c-3.960937 0-13.058593 5.992187-4.96875 5.992187zm0 0"/><path d="m70.800781 422.449219c-3.734375 0-13.167969 5.589843-5.085937 5.589843h67.148437c3.734375 0 13.167969-5.589843 5.085938-5.589843zm0 0"/><path d="m179.730469 421.683594h-8.394531c-3.054688-.238282-6.039063 1.011718-8.015626 3.359375-1.359374 2.425781 1.167969 3.75 3.359376 3.75h8.394531c3.054687.238281 6.039062-1.011719 8.015625-3.355469 1.351562-2.433594-1.175782-3.753906-3.359375-3.753906zm0 0"/><path d="m70.800781 455.828125c-3.980469 0-13.101562 5.976563-4.984375 5.976563h58.753906c3.976563 0 13.101563-5.976563 4.984376-5.976563zm0 0"/></g></svg>