<svg height="506pt" viewBox="0 -2 506.73619 506" width="506pt" xmlns="http://www.w3.org/2000/svg"><path d="m111.820312 485.765625c-1.761718 0-3.339843-1.078125-3.980468-2.714844-.640625-1.640625-.207032-3.503906 1.085937-4.691406l10.667969-9.824219-17.605469 10.15625c-1.878906 1.046875-4.246093.53125-5.515625-1.203125-1.273437-1.734375-1.058594-4.144531.507813-5.625l21.691406-19.753906-16.683594 9.609375c-1.867187 1.0625-4.238281.574219-5.527343-1.148438-1.289063-1.722656-1.097657-4.132812.449218-5.628906l25.257813-24.164062-20.179688 11.648437c-1.90625 1.078125-4.320312.539063-5.585937-1.246093-1.265625-1.789063-.972656-4.246094.679687-5.683594l15.921875-13.671875-11.023437 6.359375c-1.9375 1.09375-4.390625.515625-5.636719-1.328125-1.242188-1.84375-.863281-4.332031.875-5.722657l3.976562-3.113281c-1.910156.648438-4.011718-.125-5.042968-1.859375s-.707032-3.953125.777344-5.316406l23.414062-21.820312-18.363281 10.613281c-1.871094.949219-4.152344.394531-5.382813-1.304688-1.230468-1.699219-1.042968-4.039062.441406-5.519531l19.0625-16.863281-14.105468 8.132812c-1.917969 1.074219-4.34375.511719-5.59375-1.296875-1.25-1.8125-.921875-4.277344.765625-5.691406l10.289062-8.433594-5.460937 3.152344c-1.882813 1.144531-4.332032.664062-5.644532-1.105469-1.3125-1.773437-1.058593-4.253906.585938-5.722656l24.351562-23.039063-19.292968 11.09375c-1.898438 1.070313-4.300782.535157-5.566406-1.238281-1.265626-1.773437-.992188-4.21875.632812-5.667969l17.433594-15.179687-12.5 7.21875c-1.878906 1.035156-4.230469.511719-5.5-1.214844-1.265625-1.730469-1.050782-4.132812.5-5.609375l21.09375-19.097656-16.109375 9.308594c-1.90625 1.082031-4.320313.542968-5.585938-1.246094-1.269531-1.789062-.972656-4.246094.679688-5.683594l15.855469-13.59375-10.949219 6.316406c-1.90625 1.097657-4.335938.566407-5.609375-1.230468-1.273438-1.792969-.972656-4.261719.691406-5.699219l16.136719-13.875-11.21875 6.476563c-1.882813 1.109374-4.300781.617187-5.597657-1.140626-1.300781-1.757812-1.058593-4.214843.554688-5.6875l23.414062-21.851562-18.371093 10.597656c-1.929688 1.074219-4.363281.5-5.605469-1.324218-1.246094-1.824219-.890625-4.296876.816406-5.699219l6.109375-4.871094-1.320312.75c-1.863281 1.089844-4.25.613281-5.554688-1.105469-1.304687-1.71875-1.117187-4.144531.433594-5.644531l10.835937-10.523437-5.734374 3.3125c-1.636719.976562-3.726563.75-5.113282-.558594-1.390625-1.308594-1.738281-3.382813-.859375-5.074219l4.378907-8.574219c-1.902344-.066406-3.53125-1.386718-3.992188-3.234375-.460938-1.851562.363281-3.777343 2.011719-4.730469l9.746093-5.519531c1.636719-.980469 3.726563-.75 5.113282.558594 1.390625 1.308594 1.738281 3.378906.859375 5.074219l-3.832031 7.507812 23.039062-13.292968c1.867188-1.089844 4.25-.617188 5.554688 1.105468 1.304687 1.71875 1.117187 4.140625-.433594 5.644532l-10.949219 10.46875 20.933594-12.082032c1.929687-1.078125 4.359375-.503906 5.605469 1.320313 1.242187 1.828125.890624 4.300781-.816407 5.703125l-6.136719 4.886718 1.355469-.773437c1.882813-1.09375 4.285157-.597656 5.578125 1.15625 1.289063 1.75 1.058594 4.195313-.542968 5.667969l-23.390626 21.847656 18.375-10.609375c1.90625-1.097656 4.335938-.566406 5.609376 1.230469 1.273437 1.792968.972656 4.261718-.695313 5.699218l-16.144531 13.875 11.246094-6.484374c1.910156-1.101563 4.34375-.570313 5.617187 1.230468 1.273437 1.800782.964844 4.273438-.710937 5.707032l-15.855469 13.585937 10.964843-6.324219c1.878907-1.019531 4.222657-.492187 5.480469 1.230469 1.261719 1.726563 1.054688 4.117187-.488281 5.597656l-21.085938 19.105469 16.101563-9.300781c1.90625-1.109375 4.339844-.585938 5.621094 1.203125 1.28125 1.792968.988281 4.265625-.679688 5.707031l-17.433593 15.214844 12.511718-7.21875c1.882813-1.164063 4.347656-.695313 5.667969 1.085937 1.324219 1.777344 1.0625 4.273438-.601563 5.742188l-24.351562 23.039062 19.300781-11.144531c1.921875-1.09375 4.359375-.539063 5.621094 1.277344 1.257813 1.820312.917969 4.296875-.78125 5.710937l-10.242187 8.421875 5.445312-3.140625c1.894531-1.058594 4.28125-.53125 5.550781 1.226563 1.265625 1.761719 1.011719 4.191406-.59375 5.652343l-19.054687 16.871094 14.113281-8.148437c1.882813-1.109375 4.300781-.617188 5.601563 1.140625 1.296874 1.757812 1.058593 4.210937-.554688 5.683594l-23.417969 21.820312 18.390625-10.617188c1.9375-1.113281 4.410156-.542968 5.664063 1.308594 1.25 1.851563.863281 4.359375-.894531 5.742188l-3.984376 3.121094c1.9375-.65625 4.070313.15625 5.082032 1.933593 1.007812 1.78125.613281 4.027344-.945313 5.355469l-15.871093 13.601562 10.972656-6.339843c1.875-1.144531 4.308594-.683594 5.632812 1.066406 1.324219 1.753906 1.101563 4.222656-.511718 5.710937l-25.265626 24.171876 20.207032-11.664063c1.878906-1.046875 4.242187-.53125 5.515625 1.203125 1.273437 1.734375 1.054687 4.144531-.507813 5.625l-21.691406 19.753906 16.699219-9.644531c1.882812-1.074219 4.269531-.570313 5.554687 1.175781s1.058594 4.175782-.527344 5.652344l-10.667968 9.832031 5.648437-3.261719c1.722657-.992187 3.898438-.664062 5.253907.789063 1.351562 1.453125 1.523437 3.648437.414062 5.296875l-4.855469 7.167969c2.070313-.671875 4.316407.324219 5.207031 2.3125.890626 1.984375.144532 4.324219-1.734374 5.425781l-15.171876 8.753906c-1.722656.992188-3.898437.664063-5.253906-.789062-1.351562-1.453125-1.523437-3.648438-.414062-5.292969l4.738281-6.988281-22.871094 13.199218c-.667969.378907-1.433593.566407-2.199219.539063zm0 0" fill="#fdcd56"/><path d="m162.0625 485.765625c-1.777344 0-3.371094-1.101563-3.996094-2.761719-.625-1.664062-.15625-3.542968 1.179688-4.714844l7.332031-6.425781-13.390625 7.730469c-1.945312 1.117188-4.421875.539062-5.667969-1.324219-1.25-1.863281-.839843-4.375.933594-5.75l3.0625-2.371093c-1.554687.171874-3.078125-.523438-3.96875-1.808594-1.265625-1.824219-.917969-4.316406.792969-5.726563l11.324218-9.335937-6.476562 3.730468c-1.882812 1.144532-4.332031.667969-5.644531-1.105468-1.3125-1.769532-1.058594-4.25.585937-5.722656l24.53125-23.234376-19.472656 11.253907c-1.867188 1.109375-4.265625.636719-5.578125-1.09375-1.308594-1.730469-1.113281-4.167969.457031-5.664063l25.679688-24.789062-20.558594 11.878906c-1.90625 1.085938-4.328125.542969-5.59375-1.25s-.964844-4.253906.695312-5.6875l15.15625-12.921875-10.238281 5.914063c-1.90625 1.097656-4.332031.566406-5.605469-1.222657-1.273437-1.792969-.976562-4.257812.679688-5.695312l12.917969-11.152344-8.003907 4.613281c-1.925781 1.085938-4.359374.523438-5.609374-1.300781-1.253907-1.820313-.90625-4.296875.796874-5.703125l3.242188-2.621094c-1.570312.195313-3.121094-.480468-4.042969-1.765625-1.28125-1.785156-1-4.253906.65625-5.699219l6.734375-5.785156-1.820312 1.039063c-1.914063 1.113281-4.359375.578125-5.632813-1.234375-1.273437-1.8125-.949219-4.296875.746094-5.71875l4.15625-3.515625c-1.929687.699219-4.085937-.074219-5.128906-1.84375-1.042969-1.765625-.683594-4.023438.859375-5.375l7.679687-6.828125-2.6875 1.535156c-1.878906 1.046875-4.242187.53125-5.515625-1.203125-1.273437-1.734375-1.054687-4.144531.507813-5.621094l9.695312-8.84375-4.6875 2.707031c-1.878906 1.0625-4.257812.550782-5.535156-1.1875-1.277344-1.742187-1.054687-4.164062.519531-5.640624l11.902344-10.914063-6.886719 3.96875c-1.882812 1.128906-4.3125.640625-5.621093-1.121094-1.304688-1.765625-1.058594-4.234375.570312-5.707031l18.601562-17.40625-13.550781 7.816406c-1.878906 1.035156-4.230469.511719-5.496093-1.21875-1.269532-1.726562-1.054688-4.128906.496093-5.609375l21.050781-19.070312-16.050781 9.265625c-1.925781 1.105468-4.378906.546875-5.636719-1.28125-1.257812-1.828125-.902343-4.320313.816407-5.722656l9.472656-7.722657-4.652344 2.679688c-1.882812 1.085937-4.285156.582031-5.570312-1.171875-1.285157-1.753906-1.042969-4.195313.5625-5.664063l21.8125-19.898437-16.769531 9.667968c-1.894532 1.078126-4.300782.554688-5.574219-1.214843-1.277344-1.769531-1.007813-4.21875.617187-5.671875l18.679688-16.4375-13.722656 7.921875c-1.898438 1.097656-4.324219.582031-5.605469-1.203125-1.28125-1.78125-1-4.242188.648437-5.691406l18.679688-16.460938-13.722656 7.910156c-1.882813 1.125-4.316407.640625-5.621094-1.125-1.304688-1.765625-1.058594-4.230468.570312-5.703125l24.0625-22.679687-19.011718 10.972656c-1.933594 1.074219-4.371094.488281-5.609376-1.347656-1.238281-1.832032-.863281-4.308594.855469-5.703125l3.628907-2.839844c-1.664063.382813-3.394532-.242187-4.429688-1.597656-1.292969-1.738281-1.078125-4.171875.503906-5.65625l24.003906-22.613281-18.945312 10.929687c-1.941406 1.089844-4.390625.503906-5.628906-1.34375-1.238282-1.847656-.847656-4.339844.894531-5.71875l2.984375-2.3125c-1.542969.109375-3.035156-.601563-3.925781-1.871094-1.253907-1.863281-.847657-4.382812.933593-5.757812l3.191407-2.476563c-1.613281.242188-3.21875-.476562-4.113281-1.835937-1.257813-1.855469-.863282-4.367188.902343-5.75l3.882813-3.046875c-1.894532.578125-3.933594-.222656-4.929688-1.933594-.996094-1.707031-.6875-3.878906.75-5.242188l24.445313-23.175781-19.386719 11.195313c-1.933594 1.074218-4.371094.488281-5.609375-1.34375-1.234375-1.835938-.863281-4.3125.855469-5.703125l3.671875-2.886719c-1.953125.496094-3.984375-.441406-4.878907-2.246094-.890624-1.804687-.398437-3.988281 1.183594-5.238281l4.019532-3.171875c-1.855469.636719-3.910157-.074219-4.972657-1.726562-1.0625-1.648438-.863281-3.808594.484375-5.238282l11.347656-12.117187-6.101562 3.515625c-1.664062.953125-3.757812.675781-5.121094-.671875-1.367187-1.371094-1.644531-3.488281-.671875-5.164063l3.480469-5.972656c-1.160156-.257812-2.160156-.992188-2.746094-2.023438-1.179687-2.039062-.484375-4.648437 1.550782-5.828124l9.601562-5.574219c1.664062-.949219 3.757812-.671875 5.121094.675781 1.347656 1.363281 1.625 3.457031.671875 5.121094l-2.347657 4.035156 17.152344-9.832031c1.832032-1.046875 4.152344-.601563 5.460938 1.050781 1.3125 1.648438 1.222656 4.011719-.210938 5.554688l-11.289062 12.085937 24.746094-14.296875c1.933593-1.105469 4.398437-.539062 5.652343 1.308594 1.25 1.84375.871094 4.34375-.875 5.734375l-3.644531 2.882812c1.945312-1.027343 4.351562-.414062 5.5625 1.421875 1.207031 1.835938.828125 4.289063-.882812 5.667969l-3.652344 2.867187c1.882812-.46875 3.84375.390626 4.777344 2.09375.929687 1.703126.59375 3.820313-.820313 5.152344l-24.472656 23.195313 19.386719-11.195313c1.9375-1.097656 4.390624-.519531 5.636718 1.324219 1.242188 1.84375.863282 4.335937-.875 5.722656l-3.882812 3.046875c1.96875-.601562 4.089844.285156 5.035156 2.113282.949219 1.828124.457031 4.074218-1.167969 5.335937l-3.175781 2.464844c1.609375-.199219 3.195312.519531 4.105469 1.863281 1.25 1.863281.839843 4.378906-.9375 5.75l-3.003907 2.320312c1.476563-.105468 2.914063.535157 3.820313 1.707032 1.289063 1.738281 1.074219 4.167968-.503906 5.648437l-24.003907 22.570313 18.929688-10.921875c1.933594-1.074219 4.371094-.488281 5.605469 1.34375 1.238281 1.835937.867187 4.3125-.855469 5.703125l-3.625 2.84375c1.660156-.386719 3.394531.238281 4.429688 1.59375 1.292968 1.742187 1.078124 4.175781-.503907 5.660156l-24.046875 22.65625 19.027344-10.984375c1.898438-1.101563 4.324219-.582031 5.605469 1.199219 1.28125 1.785156 1 4.246094-.644531 5.695312l-18.679688 16.46875 13.71875-7.917968c1.898438-1.101563 4.324219-.582032 5.605469 1.199218 1.28125 1.785156 1 4.246094-.644531 5.695313l-18.679688 16.460937 13.71875-7.910156c1.878906-1.046875 4.246094-.53125 5.519531 1.203125 1.273438 1.734375 1.054688 4.144531-.507812 5.625l-21.777344 19.941406 16.765625-9.667969c1.925781-1.078124 4.351562-.515624 5.605469 1.300782 1.25 1.816406.910156 4.285156-.78125 5.695312l-9.4375 7.679688 4.613281-2.660156c1.878906-1.035157 4.234375-.511719 5.5 1.214843 1.265625 1.730469 1.054688 4.132813-.496094 5.609375l-21.0625 19.125 11.042969-6.375c1.882813-1.125 4.3125-.640625 5.621094 1.125 1.304687 1.761719 1.058593 4.230469-.570313 5.703125l-18.609375 17.414063 8.378907-4.835938c1.878906-1.0625 4.257812-.550781 5.535156 1.1875 1.28125 1.738282 1.058594 4.160156-.519532 5.636719l-11.894531 10.914063 5.222657-3.003907c1.878906-1.046875 4.246093-.53125 5.515624 1.203125 1.273438 1.734375 1.058594 4.148438-.507812 5.625l-9.683594 8.832032 4.582032-2.644532c1.894531-1.09375 4.308593-.578125 5.589843 1.195313 1.28125 1.769531 1.015625 4.226562-.613281 5.683593l-7.679688 6.824219 3.992188-2.3125c1.910156-1.085937 4.335938-.546875 5.601562 1.253907 1.265626 1.796874.957032 4.261718-.710937 5.691406l-3.808594 3.21875h.050781c1.910157-1.117188 4.355469-.59375 5.636719 1.210937 1.28125 1.800781.972657 4.285157-.710937 5.71875l-6.726563 5.792969 4.703125-2.722656c1.929688-1.132813 4.410156-.582032 5.675782 1.265625 1.269531 1.84375.894531 4.355469-.855469 5.75l-1.652344 1.332031c1.925781-.988281 4.285156-.378906 5.488281 1.421875 1.207032 1.796875.875 4.210937-.769531 5.617187l-12.929687 11.160157 11.65625-6.722657c1.910156-1.085937 4.328124-.542968 5.59375 1.25 1.265624 1.792969.964843 4.253907-.695313 5.6875l-15.144531 12.917969 10.238281-5.972656c1.867187-1.105469 4.265625-.636719 5.578125 1.09375 1.308594 1.730469 1.113281 4.167969-.457031 5.664063l-25.6875 24.808593 20.632812-11.949219c1.886719-1.164062 4.351563-.691406 5.671875 1.085938 1.320313 1.78125 1.058594 4.273438-.601562 5.742188l-24.507813 23.269531 19.492188-11.261719c1.921875-1.136719 4.394531-.59375 5.671875 1.238281 1.273437 1.835938.917968 4.34375-.816406 5.75l-11.332032 9.34375 6.507813-3.753906c1.941406-1.109375 4.410156-.53125 5.660156 1.324219 1.246094 1.859375.847656 4.363281-.914063 5.742187l-3.054687 2.363281c1.527344-.152343 3.019531.515626 3.925781 1.757813 1.277344 1.78125.996094 4.242187-.648437 5.691406l-7.339844 6.441407 2.421875-1.398438c1.628906-.945312 3.683594-.714844 5.058594.566406 1.375 1.285156 1.746094 3.316406.917968 5.003906l-5.121093 10.464844c2.058593-.617187 4.257812.398438 5.125 2.367188.867187 1.96875.132812 4.273437-1.710938 5.378906l-11.222656 6.484375c-1.625.941406-3.671875.710937-5.046875-.566406-1.375-1.28125-1.75-3.308594-.925781-4.996094l5.050781-10.324219-27.742188 16.03125c-.644531.378906-1.382812.578125-2.132812.574219zm0 0" fill="#fb836f"/><path d="m202.613281 485.824219c-1.796875 0-3.402343-1.128907-4.015625-2.820313-.609375-1.691406-.089844-3.582031 1.292969-4.730468l11.496094-9.515626-6.972657 4.019532c-1.898437 1.097656-4.316406.578125-5.597656-1.199219-1.28125-1.773437-1.007812-4.234375.628906-5.6875l17.914063-15.90625-13.003906 7.5c-1.882813 1.078125-4.273438.574219-5.558594-1.171875s-1.054687-4.175781.53125-5.652344l10.820313-9.984375-5.792969 3.34375c-1.800781 1.027344-4.074219.617188-5.402344-.972656-1.324219-1.59375-1.3125-3.90625.023437-5.488281l11.179688-13.105469-5.800781 3.34375c-1.800781 1.039063-4.089844.632813-5.417969-.964844-1.328125-1.601562-1.308594-3.921875.039062-5.503906l4.269532-4.972656c-1.710938.417969-3.503906-.257813-4.511719-1.703125-1.007813-1.441406-1.027344-3.355469-.046875-4.816406l3.464844-5.121094c-1.4375-.027344-2.765625-.777344-3.53125-1.996094-.765625-1.214844-.863282-2.738281-.265625-4.046875l2.816406-6.152344c-.425781-.113281-.832031-.289062-1.203125-.519531-1.34375-.839844-2.113281-2.351562-1.996094-3.933594l.851563-11.382812c-.113281-.140625-.210938-.292969-.296875-.453125-1.167969-2.042969-.460938-4.648438 1.585937-5.820313l1.109375-.640625c1.371094-.785156 3.0625-.746093 4.398438.097657 1.335937.84375 2.097656 2.355468 1.976562 3.933593l-.511718 6.824219.535156-.304688c1.605468-.894531 3.601562-.660156 4.953125.578126 1.355469 1.238281 1.765625 3.203124 1.019531 4.882812l-1.945312 4.265625 1.425781-.8125c1.71875-.992187 3.898437-.667969 5.253906.785156 1.355469 1.449219 1.53125 3.644531.421875 5.292969l-2.695312 3.976562 4.128906-2.375c1.800781-1.039062 4.085937-.628906 5.414062.96875 1.328125 1.597657 1.3125 3.921876-.039062 5.5l-3.917969 4.574219 5.710937-3.292969c1.796876-1.019531 4.066407-.601562 5.382813.984376 1.320313 1.589843 1.3125 3.894531-.015625 5.476562l-11.09375 13.089844 17.554688-10.128906c1.878906-1.078126 4.269531-.574219 5.554687 1.171874 1.285156 1.746094 1.058594 4.175782-.53125 5.652344l-10.828125 9.992188 16.214844-9.386719c1.890625-1.074219 4.292968-.554687 5.570312 1.210937 1.273438 1.765626 1.011719 4.210938-.605468 5.667969l-17.960938 15.957031 14.285156-8.242187c1.914063-1.082031 4.34375-.53125 5.601563 1.277344 1.257812 1.804687.933593 4.273437-.746094 5.695312l-11.480469 9.503907 6.675782-3.847657c1.753906-1.015625 3.976562-.65625 5.324218.859375 1.347656 1.511719 1.441406 3.765625.230469 5.386719l-9.257813 12.382813 3.753907-2.167969c1.539062-.890625 3.46875-.734375 4.847656.394531 1.375 1.128906 1.90625 2.992188 1.328125 4.675781l-1.703125 4.972657c1.253906.804687 2 2.203124 1.964844 3.691406-.03125 1.488281-.839844 2.851562-2.128907 3.597656l-4.265624 2.484375c-1.539063.886719-3.464844.730469-4.839844-.394531s-1.90625-2.984375-1.339844-4.667969l.582031-1.707031-11.855469 6.828125c-1.75.996093-3.957031.632812-5.296874-.875-1.339844-1.503907-1.441407-3.742188-.25-5.363281l9.226562-12.382813-32.511719 18.773437c-.640625.386719-1.375.59375-2.125.597657zm0 0" fill="#d94452"/><path d="m202.253906 258.523438c-1.71875-.003907-3.265625-1.039063-3.925781-2.625-.664063-1.585938-.308594-3.414063.898437-4.636719l22.183594-22.425781-17.023437 9.804687c-1.875.992187-4.195313.457031-5.445313-1.257813-1.25-1.714843-1.050781-4.089843.472656-5.570312l19.652344-17.527344-14.660156 8.457032c-1.921875 1.09375-4.359375.539062-5.621094-1.28125-1.257812-1.816407-.917968-4.292969.78125-5.707032l10.632813-8.738281-5.792969 3.34375c-1.894531 1.078125-4.296875.554687-5.570312-1.210937-1.273438-1.765626-1.015626-4.207032.601562-5.667969l18.578125-16.542969-13.628906 7.902344c-1.871094 1.144531-4.304688.683594-5.628907-1.070313-1.324218-1.75-1.101562-4.21875.511719-5.707031l9.554688-9.15625-4.425781 2.558594c-1.460938.839844-3.277344.746094-4.636719-.242188-1.363281-.988281-2.015625-2.683594-1.671875-4.332031l2.714844-12.867187c-1.546876-.574219-2.621094-1.984376-2.765626-3.625-.144531-1.644532.667969-3.21875 2.089844-4.054688l4.269532-2.457031c1.460937-.828125 3.273437-.730469 4.640624.246093 1.375.980469 2.046876 2.679688 1.707032 4.335938l-2.296875 10.855469 26.703125-15.445313c1.867187-1.066406 4.234375-.574218 5.527344 1.148438 1.289062 1.71875 1.09375 4.132812-.453126 5.625l-9.511718 9.097656 19.148437-11.09375c1.890625-1.078125 4.292969-.554688 5.566407 1.210938 1.277343 1.765624 1.015624 4.210937-.601563 5.667968l-18.558594 16.535156 14.574219-8.410156c1.921875-1.09375 4.359375-.539062 5.617188 1.277344 1.257812 1.816406.921874 4.296875-.777344 5.710938l-10.644532 8.746093 5.839844-3.371093c1.894532-1.09375 4.308594-.578126 5.589844 1.195312 1.28125 1.769531 1.015625 4.226562-.617188 5.683594l-19.625 17.492187 8.363282-4.832031c1.847656-1.0625 4.199218-.601562 5.503906 1.089844 1.308594 1.6875 1.164062 4.082031-.332031 5.601562l-38.375 38.835938c.132812 1.644531-.691407 3.21875-2.117188 4.042968l-4.882812 2.816407c-.644531.378906-1.382813.578125-2.132813.574219zm0 0" fill="#d94452"/><path d="m329.050781 446.453125c-1.855469-.003906-3.496093-1.203125-4.058593-2.96875-.566407-1.765625.074218-3.695313 1.585937-4.773437l31.785156-22.644532-51.488281 29.726563c-1.988281 1.136719-4.515625.496093-5.730469-1.441407-1.214843-1.941406-.683593-4.492187 1.207031-5.785156l35.703126-24.148437-49.085938 28.332031c-1.972656 1.117188-4.480469.496094-5.699219-1.417969-1.222656-1.914062-.730469-4.449219 1.117188-5.769531l77.808593-54.554688-94.328124 54.46875c-2.015626 1.222657-4.640626.582032-5.863282-1.433593-1.222656-2.011719-.578125-4.636719 1.433594-5.859375l13.886719-8.84375-19.628907 11.308594c-1.984374 1.085937-4.472656.429687-5.667968-1.492188-1.195313-1.921875-.679688-4.445312 1.171875-5.746094l84.734375-56.984375-94.429688 54.546875c-1.984375 1.097656-4.484375.453125-5.683594-1.472656-1.203124-1.925781-.6875-4.453125 1.171876-5.757812l95.675781-64.324219-104.457031 60.28125c-2 1.117187-4.523438.457031-5.71875-1.496094-1.199219-1.953125-.640626-4.5 1.261718-5.773437l65.605469-42.386719-69.8125 40.292969c-2 1.101562-4.507813.433593-5.699219-1.515626-1.1875-1.949218-.628906-4.488281 1.261719-5.761718l63.5-40.847656-66.375 38.3125c-2 1.242187-4.632813.625-5.875-1.378907-1.242187-2-.625-4.632812 1.378906-5.875l97.792969-64.851562-101.546875 58.605469c-2 1.085937-4.5.410156-5.679687-1.539063-1.183594-1.945313-.628907-4.472656 1.257812-5.746094l42.078125-26.710937-41.8125 24.132812c-2 1.136719-4.535156.484375-5.742187-1.472656-1.203126-1.957031-.644532-4.515625 1.269531-5.789062l82.535156-54.066407-82.773437 47.785157c-1.292969.808593-2.917969.863281-4.265626.144531-1.34375-.71875-2.207031-2.097657-2.257812-3.621094-.050781-1.527344.714844-2.960937 2.007812-3.769531l93.792969-62.742188-92.460937 53.398438c-1.996094 1.136718-4.535156.488281-5.742188-1.46875-1.203125-1.957032-.640625-4.519532 1.273438-5.792969l61.507812-40.105469-58.566406 33.816406c-1.984375 1.15625-4.53125.527344-5.753906-1.417968-1.222656-1.945313-.683594-4.507813 1.214844-5.800782l85.332031-58.375-80.210938 46.292969c-1.988281 1.132813-4.515625.496094-5.730469-1.445312-1.214843-1.9375-.679687-4.488281 1.207032-5.78125l60.757812-41.140625-52.796875 30.480468c-1.992187 1.132813-4.523437.488282-5.734375-1.457031-1.207031-1.949219-.664062-4.503906 1.238282-5.785156l26.195312-17.394531-16.585938 9.585937c-2 1.15625-4.554687.515625-5.769531-1.449219-1.214843-1.960937-.648437-4.535156 1.28125-5.804687l9.742188-6.453125c-1.46875.101562-2.886719-.582031-3.71875-1.800781-1.273438-1.800781-.960938-4.277344.714843-5.707031l33.425782-28.492188c-1.792969.375-3.621094-.453125-4.523438-2.050781-1.175781-2.039063-.476562-4.648438 1.5625-5.828125l38.1875-22.039063c1.90625-1.085937 4.328125-.546875 5.59375 1.246094s.964844 4.253906-.695312 5.691406l-32.488282 27.691407 72.664063-41.953126c1.996094-1.15625 4.550781-.515624 5.765625 1.449219 1.214844 1.960938.648438 4.535157-1.277344 5.804688l-3.414062 2.253906 13.875-8.003906c1.988281-1.097657 4.492187-.445313 5.6875 1.488281 1.199218 1.933594.671875 4.464844-1.199219 5.757812l-26.238281 17.414063 37.484375-21.589844c1.988281-1.132812 4.515625-.496093 5.730469 1.445313 1.214843 1.941406.679687 4.492187-1.207032 5.785156l-60.824218 41.15625 74.015624-42.726562c1.988282-1.15625 4.53125-.527344 5.753907 1.417968 1.222656 1.945313.6875 4.507813-1.210938 5.800782l-85.335937 58.332031 97.664062-56.378907c2-1.136718 4.539063-.484374 5.742188 1.472657 1.207031 1.957031.644531 4.515625-1.269532 5.789062l-61.550781 40.105469 68.199219-39.371094c1.292969-.804687 2.917969-.859375 4.265625-.144531 1.34375.71875 2.203125 2.097656 2.253906 3.625.054688 1.523437-.710937 2.957031-2.007812 3.765625l-93.71875 62.746094 102.097656-58.941406c2-1.136719 4.539063-.484376 5.742187 1.472656 1.207032 1.957031.644532 4.515625-1.269531 5.789062l-82.558593 54.085938 87.175781-50.347656c2-1.085938 4.5-.40625 5.679687 1.539062 1.179688 1.945312.625 4.472656-1.257812 5.746094l-42.105469 26.726562 44.167969-25.496094c2.003906-1.242187 4.632812-.625 5.875 1.378907 1.242187 2.003906.625 4.632812-1.378906 5.875l-97.832032 64.851562 100.890625-58.238281c2-1.140625 4.546875-.484375 5.75 1.484375 1.203125 1.964844.625 4.53125-1.304687 5.792969l-63.472656 40.839844 63.863281-36.871094c2.011719-1.230469 4.636719-.597656 5.867187 1.414062 1.230469 2.007813.597656 4.636719-1.410156 5.863282l-65.582031 42.371093 64.90625-37.445312c1.992187-1.15625 4.539062-.519531 5.757812 1.433593 1.21875 1.953126.667969 4.519532-1.242187 5.800782l-95.667969 64.316406 94.242187-54.40625c1.992188-1.15625 4.539063-.523438 5.757813 1.433594 1.21875 1.953125.667969 4.519531-1.246094 5.800781l-84.769531 57.003906 81.589844-47.097656c2.003906-1.117187 4.535156-.453125 5.726562 1.511719 1.191406 1.960937.617188 4.515625-1.300781 5.777344l-13.804687 8.789062 8.34375-4.8125c1.976562-1.121094 4.484374-.496094 5.703124 1.417969 1.222657 1.914062.730469 4.449219-1.121093 5.765625l-77.804688 54.53125 69-39.835938c1.988281-1.132812 4.515625-.496094 5.730469 1.445313 1.210938 1.9375.679688 4.492187-1.207031 5.78125l-35.703125 24.152343 25.101562-14.507812c1.972656-1.125 4.476563-.507812 5.703125 1.398438 1.230469 1.910156.746094 4.441406-1.09375 5.769531l-31.804687 22.648437 15.226562-8.78125c1.964844-1.148437 4.480469-.550781 5.722656 1.355469 1.242188 1.90625.769532 4.453125-1.074218 5.785156l-17.339844 12.707031c.691406.375 1.261719.9375 1.648438 1.621094 1.171874 2.039063.472656 4.640625-1.5625 5.820313l-49.425782 28.535156c-1.964844 1.148437-4.484375.550781-5.726562-1.355469-1.238282-1.90625-.765625-4.453125 1.078125-5.785156l1.882812-1.367188-23.679687 13.652344c-.644532.378906-1.382813.574219-2.132813.574219zm0 0" fill="#4fc0e8"/><g fill="#262626"><path d="m219.066406 299.335938c-.855468 4.003906 11.492188 2.015624 12.304688-1.773438 7.28125-40.910156 42.101562-71.210938 83.625-72.773438 4.148437-.109374 13.261718-6.519531 5.011718-6.289062-48.4375-.050781-90.40625 33.558594-100.941406 80.835938zm0 0"/><path d="m219.066406 334.238281c.554688 2.875 1.21875 5.710938 1.996094 8.535157.964844 3.488281 13.328125.1875 12.363281-3.3125-.773437-2.824219-1.441406-5.65625-1.996093-8.535157-.65625-3.359375-13.089844-.40625-12.363282 3.3125zm0 0"/><path d="m415.117188 405.125c22.359374-24.8125 35.339843-56.664062 36.695312-90.035156-3.148438-70.167969-54.296875-128.453125-126.363281-132.011719-22.332031-1.054687-44.574219 3.472656-64.714844 13.175781.097656-10.710937-.359375-21.421875-1.367187-32.085937-4.425782-16.296875-35.371094-11.246094-51.097657-10.324219v-72.703125c.242188-.757813.207031-1.574219-.101562-2.304687-.101563-.246094-.273438-.453126-.382813-.691407-.113281-.238281-.121094-.230469-.1875-.339843-10.097656-20.386719-55.46875-16.683594-63.089844 4.007812-3.410156 9.386719 0 27.308594 0 37.097656v103.335938c-15.785156-1.371094-39.089843-3.746094-48.03125 6.179687-9.695312 10.742188-3.066406 43.5625-3.066406 55.933594v194.636719h-64.433594v-36.078125h25.6875c2.558594 0 7.019532-.75 8.105469-3.589844.972657-2.5625-.855469-4.464844-3.566406-4.464844h-30.226563v-43.519531h25.601563c2.421875 0 7.074219-.800781 8.140625-3.414062 1.066406-2.609376-.855469-3.863282-3.414062-3.863282h-30.328126v-44.714844h25.394532c3.796875 0 13.390625-5.667968 5.171875-5.667968h-30.566407v-45.566406h25.394532c3.789062 0 13.390625-5.660157 5.171875-5.660157h-30.566407v-44.371093h25.6875c2.558594 0 7.019532-.75 8.105469-3.585938.972657-2.558594-.855469-4.4375-3.566406-4.4375h-30.226563v-43.355469h25.601563c2.492187 0 7.046875-.777343 8.121094-3.507812 1-2.5625-.851563-4.121094-3.480469-4.121094h-30.242188v-42.949219h27.382813c6.988281 0 9.550781-8.875 1.144531-8.875h-28.527344v-42.050781h27.460938c7.191406 0 9.386719-9.386719.988281-9.386719h-28.449219v-43.667968h25.394532c3.824218 0 13.382812-5.714844 5.121094-5.714844h-30.515626v-24.398438c0-3.414062-12.355468-1.226562-12.355468 3.3125v473.648438h-6.894532c-2.6875 0-14.003906 5.121094-7.988281 5.121094h14.882813v16.15625c0 3.410156 12.355468 1.226562 12.355468-3.3125v-12.84375h65.910157c.246093.050781.496093.085937.742187.101562h49.605469c1.253906 1.507812 3.164063 2.3125 5.121094 2.152344h51.199219c1.660156-.101563 3.253906-.695313 4.574218-1.707032h44.585938c1.265625-.03125 2.519531-.21875 3.738281-.554687h173.953125c2.6875 0 14.003906-5.121094 7.984375-5.121094h-177.015625v-44.175781c21.546875 10.40625 45.488281 14.863281 69.335938 12.902344 29.320312-2.351563 56.988281-14.546875 78.507812-34.601563l87.625 87.652344c2.332031 2.320313 13.714844-2.210937 11.640625-4.265625zm-204.148438 73.308594c-1.136719.136718-2 .265625-2.691406.386718v-86.351562l.136718.179688c.394532.53125.777344 1.058593 1.179688 1.589843 4.929688 6.503907 10.441406 12.550781 16.46875 18.054688.9375.851562 1.902344 1.707031 2.875 2.558593 2.054688 1.777344 4.171875 3.484376 6.359375 5.121094 1.152344.855469 2.269531 1.785156 3.414063 2.628906 2.671874 1.910157 5.429687 3.75 8.277343 5.511719v50.117188c-11.996093-.824219-24.035156-.753907-36.019531.203125zm36.050781-310.953125c0 8.890625 2.851563 28.160156-.390625 36.523437-13.949218 8.796875-26.214844 20.015625-36.214844 33.125 1.089844-24.953125-2.136718-51.90625-2.136718-75.511718v-1.5625c14.066406-1.140626 35.925781-2.917969 38.742187 7.425781zm-89.941406-84.480469c4.644531-7.808594 33.5625-12.507812 38.648437-.988281 0 24.171875 1.167969 48.996093 1.988282 73.863281-1.121094.632812-1.835938 1.800781-1.894532 3.089844v92.867187c0 .402344-.058593.800781-.101562 1.203125-.882812 6.382813-2.359375 12.667969-4.414062 18.773438-2.542969 6.953125-4.484376 14.113281-5.792969 21.402344-.066407.339843-.179688.664062-.238281 1.007812-.058594.339844-.058594.730469-.121094 1.117188-4.445313 25.195312-1.039063 51.148437 9.753906 74.339843.265625 1.503907.582031 2.9375.8125 4.480469.050781.375.050781.753906.101562 1.117188v40.109374c-2.15625 17.304688-2.191406 34.808594-.101562 52.121094 0 .179688.058594.453125.101562.691406v7.96875c-3.519531.625-7.101562.8125-10.667968.554688-8-.398438-16.019532-.398438-24.019532 0-1.902343.0625-3.15625.136719-4.15625.238281v-48.261719c0-.855468.101563-1.707031.101563-2.476562v-320.222656c0-5.203125-2.644531-18.550782 0-23.011719zm-51.753906 395.878906c.257812.265625.417969-13.347656.453125-15.777344.578125-34.21875 0-68.5 0-102.71875v-106.382812c0-4.171875-2.441406-17.289062 0-21.1875 5.121094-8.132812 25.71875-5.027344 38.742187-4.652344v250.835938h-39.03125c-.058593-.03125-.113281-.074219-.164062-.117188zm92.585937-142.660156c-3.96875-25.738281 3.816406-47.027344 9.011719-71.679688 22.691406-50.691406 76.796875-79.613281 131.550781-70.332031 59.734375 10.980469 98.132813 62.984375 100.785156 121.660157-2.59375 58.546874-39.566406 109.609374-99.214843 120.464843-66.777344 11.089844-130.085938-33.5-142.132813-100.113281zm0 0"/></g></svg>