<svg height="512" viewBox="0 0 61 60" width="512" xmlns="http://www.w3.org/2000/svg"><g id="043---Browser-Analysis" fill="none"><path id="Path" d="m7.334 59.471c-.22505071.00053-.42272229-.1493591-.48294386-.3662034-.06022157-.2168444.03184919-.4472001.22494386-.5627966l2.688-1.613-4.287 2.471c-.23571786.1278172-.53029699.0469384-.66770199-.1833224-.13740501-.2302607-.06871185-.5279174.15570199-.6746776l23.882-14.68-25.568 14.762c-.23583577.1260453-.52910097.0442222-.66561588-.1857118-.13651492-.2299339-.06795177-.5265795.15561588-.6732882l24.243-14.853-24.595 14.199c-.23638246.1285498-.53210687.0469768-.6691568-.184581-.13704993-.2315579-.06627089-.5300498.1601568-.675419l14.353-8.668-13.981 8.071c-.23233296.1080439-.50874165.0229711-.6401143-.1970137s-.0751878-.503679.1301143-.6569863l24.953-15.28-24.444 14.107c-.23596019.1244074-.52802952.041678-.66369597-.1879935-.13566644-.2296716-.06715011-.5253981.15569597-.6720065l14.557-8.792-14.049 8.11c-.23596019.1244074-.52802952.041678-.66369597-.1879935-.13566644-.2296716-.06715011-.5253981.15569597-.6720065l15.729-9.514-15.221 8.789c-.23583577.1260453-.52910097.0442222-.66561588-.1857118-.13651492-.2299339-.06795177-.5265795.15561588-.6732882l24.97-15.291-24.461 14.122c-.23698876.1350471-.53848394.055235-.67761558-.1793791-.13913163-.2346142-.06455352-.5374465.16761558-.6806209l23.169-14.146-22.659 13.082c-.23649337.126689-.53082268.0441496-.66695642-.1870361s-.06554462-.5286074.15995642-.6739639l11.148-6.711-10.641 6.142c-.23649337.126689-.53082268.0441496-.66695642-.1870361s-.06554462-.5286074.15995642-.6739639l8.535-5.127-8.029 4.635c-.23628449.1306359-.5336041.0500916-.67163931-.181948s-.06692381-.5317553.16063931-.677052l26.239-16.129-25.728 14.853c-.23649337.126689-.53082268.0441496-.66695642-.1870361s-.06554462-.5286074.15995642-.6739639l5.648-3.393-5.141 2.968c-.23628449.1306359-.5336041.0500916-.67163931-.181948s-.06692381-.5317553.16063931-.677052l20.52-12.6-20.01 11.551c-.2372063.1413849-.5441151.0637063-.6855-.1735s-.0637063-.5441151.1735-.6855l19.136-11.796-18.624 10.751c-.23571786.1278172-.53029699.0469384-.66770199-.1833224-.13740501-.2302607-.06871185-.5279174.15570199-.6746776l16.694-10.308-16.182 9.342c-.23596019.1244074-.52802952.041678-.66369597-.1879935-.13566644-.2296716-.06715011-.5253981.15569597-.6720065l2.978-1.8-2.471 1.421c-.23551248.13196-.53324972.0531389-.67262044-.1780652-.13937073-.2312042-.07004227-.5312938.15662044-.6779348l18.316-11.568-17.8 10.276c-.23520866.125628-.52761522.0445694-.66457305-.1842276-.13695782-.228797-.07026696-.5248112.15157305-.6727724l10.266-6.374-9.753 5.631c-.23541159.1379583-.53795774.061708-.67986369-.1713453-.14190596-.2330532-.07076502-.5368414.15986369-.6826547l15.613-10.048-15.094 8.714c-.23460579.1253855-.5263122.0451285-.66376043-.18262s-.07251115-.523243.14776043-.67238l8.669-5.469-8.153 4.706c-.23424781.1308833-.53004345.0535271-.67022619-.1752769-.14018273-.228804-.07476503-.527467.14822619-.6767231l11.148-7.255-10.626 6.132c-.23497088.1292146-.53003872.050062-.66879247-.179405-.13875376-.2294671-.07178369-.5275361.15179247-.675595l3.889-2.463-3.373 1.946c-.23210925.1290838-.52463723.0541763-.66613933-.170578-.1415021-.2247542-.08259625-.5209195.13413933-.674422l9.777-6.682-9.245 5.337c-.23470287.1405531-.53878699.0663884-.6824238-.1664401-.14363681-.2328284-.07348967-.5378644.1574238-.6845599l3.863-2.543-3.338 1.927c-.23308287.1306613-.52770735.0549657-.66894229-.1718661-.14123493-.2268319-.07915925-.5246238.14094229-.6761339l3.055-2.045-2.53 1.46c-.23296731.1327691-.52919188.0581284-.67142871-.1691822-.14223683-.2273105-.07984054-.5263539.14142871-.6778178l1.594-1.076-1.064.613c-.22727134.1290292-.5155715.0612656-.66156584-.155498s-.10042617-.5093938.10456584-.671502l4.217-3.289-3.658 2.111c-.22280253.1258076-.50463219.0631099-.65308472-.1452897-.14845253-.2083995-.11561922-.4952461.07608472-.6647103l2.617-2.264-2.041 1.177c-.21712299.1206668-.48990849.063641-.64051049-.1338986s-.13334908-.4756874.04051049-.6531014l1.1-1.089-.5.285c-.2015044.1164107-.45668014.0784121-.61552421-.0916586-.15884407-.1700706-.17935508-.4272434-.04947579-.6203414l.532-.788c-.10086691-.04197053-.1846918-.11663808-.238-.212-.0666188-.11492931-.08476389-.25164482-.05043057-.37997265.03433332-.12832784.11832247-.23771796.23343057-.30402735l1.18-.679c.20173315-.1172341.4577314-.07935708.61687295.09127137.15914154.17062846.17911395.42864178.04812705.62172863l-.282.417 1.954-1.13c.21712299-.12066677.48990849-.06364101.64051049.13389861s.13334908.47568743-.04051049.65310139l-1.1 1.09 3.26-1.877c.22280253-.12580765.50463219-.06310991.65308472.14528965.14845253.20839957.11561922.4952461-.07608472.66471035l-2.614 2.26 5.324-3.07c.227445-.13171071.5180356-.06484496.6650404.15302777s.1002333.51236608-.1070404.67397223l-4.218 3.288 7.135-4.115c.2322377-.12731148.5234633-.05144622.664069.17299225.1406056.22443847.0818101.51958413-.134069.67300775l-1.587 1.069 3.326-1.915c.2330829-.13066131.5277074-.05496574.6689423.17186612.1412349.22683187.0791592.52462377-.1409423.67613388l-3.055 2.044 5.01-2.892c.2336556-.13069104.5287926-.05414659.6694787.17363081.140686.22777741.0769932.52595205-.1444787.67636919l-3.872 2.549 5.889-3.4c.2321092-.12908381.5246372-.05417632.6661393.17057796s.0825963.52091953-.1341393.67442204l-9.777 6.682 13.041-7.532c.2349709-.12921461.5300387-.05006202.6687925.17940502.1387537.22946704.0717837.52753611-.1517925.67559498l-3.883 2.46 5.743-3.315c.2334572-.12530509.5241289-.04673672.6626677.17911863s.0768365.52056857-.1406677.67188137l-11.149 7.255 14.05-8.111c.2346058-.12538552.5263122-.0451285.6637604.18262002.1374483.22774852.0725112.52324301-.1477604.67237998l-8.668 5.473 10.954-6.324c.2347713-.13363828.5332399-.05663158.6740509.17390914.1408109.23054072.0730402.5312411-.1530509.67909086l-15.611 10.046 18.876-10.9c.2356087-.12976469.5316571-.04987998.6700067.18079237.1383496.23067236.0694166.52946069-.1560067.67620763l-10.262 6.37 12.527-7.228c.2349709-.12921461.5300387-.05006202.6687925.17940502.1387537.22946704.0717837.52753611-.1517925.67559498l-18.318 11.57 21.522-12.425c.2359602-.12440737.5280295-.041678.663696.18799355.1356664.22967154.0671501.52539802-.155696.67200645l-2.978 1.806 4.617-2.666c.2362075-.13307102.5354329-.05365088.6745599.17904108.1391271.23269196.0674613.53386873-.1615599.67895892l-16.694 10.307 19.341-11.166c.2362075-.13307102.5354329-.05365088.6745599.17904108.1391271.23269196.0674613.53386873-.1615599.67895892l-19.145 11.802 21.93-12.66c.2357179-.12781718.530297-.04693838.667702.18332235.137405.23026074.0687118.52791741-.155702.67467765l-20.51 12.6 23.305-13.459c.2370186-.13203157.5360843-.0509486.6739531.18272279s.0642274.53465591-.1659531.67827721l-5.685 3.414 7.083-4.089c.2372063-.14138487.5441151-.06370627.6855.17350002s.0637063.54411507-.1735.68549998l-26.225 16.12 26.515-15.308c.1539815-.09074546.3446783-.09244959.5002569-.00447045.1555787.08797913.2524029.2522754.254.431.0015972.17872455-.0922754.34472495-.2462569.43547045l-8.515 5.115 8.007-4.623c.2370186-.1320316.5360843-.0509486.6739531.1827228s.0642274.5346559-.1659531.6782772l-11.148 6.711 10.64-6.143c.2369888-.1350471.5384839-.055235.6776156.1793791.1391316.2346142.0645535.5374465-.1676156.6806209l-23.187 14.157 22.677-13.092c.2369888-.1350471.5384839-.055235.6776156.1793791.1391316.2346142.0645535.5374465-.1676156.6806209l-24.96 15.286 24.45-14.117c.2363825-.1285498.5321069-.0469768.6691568.184581.1370499.2315579.0662709.5300498-.1601568.675419l-15.729 9.514 15.22-8.789c.2363825-.1285498.5321069-.0469768.6691568.184581.1370499.2315579.0662709.5300498-.1601568.675419l-14.557 8.792 14.048-8.11c.2358358-.1260453.529101-.0442222.6656159.1857118.1365149.2299339.0679517.5265795-.1556159.6732882l-24.959 15.284 24.449-14.115c.2363825-.1285498.5321069-.0469768.6691568.184581.1370499.2315579.0662709.5300498-.1601568.675419l-14.358 8.671 13.849-8c.2358358-.1260453.529101-.0442222.6656159.1857118.1365149.2299339.0679517.5265795-.1556159.6732882l-24.23 14.85 23.72-13.694c.2353357-.1240261.5265799-.04207.6626998.1864836.1361199.2285535.0694507.5236725-.1516998.6715164l-23.889 14.687 23.379-13.5c.2370186-.1320316.5360843-.0509486.6739531.1827228s.0642274.5346559-.1659531.6782772l-2.691 1.615 2.183-1.26c.2362075-.133071.5354329-.0536509.6745599.1790411.1391271.2326919.0674613.5338687-.1615599.6789589l-22.234 13.797 21.721-12.54c.2357179-.1278172.530297-.0469384.667702.1833224.137405.2302607.0687118.5279174-.155702.6746776l-16.1 9.919 15.588-9c.2347345-.1238045.5252986-.0426548.6619149.1848618.1366163.2275167.0716853.5221296-.1479149.6711382l-17.409 10.857 16.895-9.75c.2362075-.133071.5354329-.0536509.6745599.1790411.1391271.2326919.0674613.5338687-.1615599.6789589l-12.907 8.007 12.394-7.155c.2341527-.123715.5241564-.0433988.6613045.1831476.1371481.2265465.0738659.5207372-.1443045.6708524l-15.723 9.975 15.206-8.779c.234023-.1252853.5251579-.0458598.6631351.1809119.1379772.2267718.0746978.5218373-.1441351.6720881l-13.93 8.91 13.411-7.743c.2349709-.1292146.5300387-.050062.6687925.179405.1387537.2294671.0717837.5275361-.1517925.675595l-9.2 5.831 8.68-5.011c.2336556-.130691.5287926-.0541466.6694787.1736308.140686.2277774.0769932.5259521-.1444787.6763692l-11.843 7.808 11.321-6.533c.2347034-.1364868.5354374-.0607325.6774741.1706544.1420368.2313868.073465.5338394-.1544741.6813456l-7.52 4.9 7-4.039c.234023-.1252853.5251579-.0458598.6631351.1809119.1379772.2267718.0746978.5218373-.1441351.6720881l-2.56 1.642 2.041-1.178c.23158-.1294027.5239091-.0554223.6660571.1685604.142148.2239828.0846277.5199909-.1310571.6744396l-7.384 5.135 6.849-3.953c.2329061-.1254293.5232086-.0477402.6623373.1772508s.0789338.5194187-.1373373.6717492l-.926.612.4-.232c.2305507-.1302945.5227069-.0582293.6662193.1643342.1435123.2225634.0886.5184238-.1252193.6746658l-3.769 2.7 3.228-1.863c.2237606-.125536.506225-.0613343.6537387.148589s.1121964.4974311-.0817387.665411l-4 3.375 3.425-1.976c.2271002-.1265913.5133226-.0580067.6583864.1577626.1450637.2157693.100553.506709-.1023864.6692374l-.459.357c.2189016-.0702946.4575263.017749.5783128.2133758.1207866.1956269.0925992.4484092-.0683128.6126242l-.935.958.109-.063c.1549945-.0985297.351531-.1041539.5119064-.0146489.1603754.0895049.2587712.2597296.2562855.4433739s-.1054527.3511436-.2681919.436275l-3.253 1.877c-.216157.1232114-.4900183.0687436-.6425795-.1278015-.1525612-.196545-.1373975-.4753583.0355795-.6541985l.936-.959-3.016 1.741c-.2272713.1290292-.5155715.0612656-.6615658-.155498-.1459944-.2167636-.1004262-.5093938.1045658-.671502l.394-.306-1.964 1.133c-.2238916.1275836-.5080784.0641108-.6564103-.1466086-.148332-.2107193-.1122202-.4996603.0834103-.6673914l4-3.374-7.261 4.188c-.2305507.1302945-.5227069.0582293-.6662193-.1643342-.1435123-.2225634-.0886-.5184238.1252193-.6746658l3.77-2.7-6.124 3.539c-.2329061.1254293-.5232086.0477402-.6623373-.1772508s-.0789338-.5194187.1373373-.6717492l.933-.616-2.539 1.465c-.2309506.1251572-.5193699.0502601-.6602447-.1714532-.1408749-.2217132-.0861633-.5146329.1252447-.6705468l7.382-5.133-10.353 5.975c-.234023.1252853-.5251579.0458598-.6631351-.1809119-.1379772-.2267718-.0746978-.5218373.1441351-.6720881l2.551-1.637-4.313 2.49c-.2337734.1287456-.5274505.051198-.667188-.1761759-.1397374-.2273739-.07627-.5244122.144188-.6748241l7.511-4.9-9.962 5.751c-.2329061.1254293-.5232086.0477402-.6623373-.1772508s-.0789338-.5194187.1373373-.6717492l11.843-7.81-15 8.659c-.234481.1270728-.5274228.0477401-.6657366-.1802909-.1383139-.2280309-.0733058-.5244809.1477366-.6737091l9.2-5.829-11.581 6.683c-.234023.1252853-.5251579.0458598-.6631351-.1809119-.1379772-.2267718-.0746978-.5218373.1441351-.6720881l13.933-8.912-16.914 9.765c-.2341527.123715-.5241564.0433988-.6613045-.1831476-.1371481-.2265465-.0738659-.5207372.1443045-.6708524l15.726-9.976-18.759 10.83c-.2356087.1297647-.5316571.04988-.6700067-.1807924-.1383496-.2306723-.0694166-.5294607.1560067-.6762076l12.909-8.013-15.364 8.87c-.2350866.127347-.5287583.0472199-.6665908-.1818764-.1378325-.2290964-.071048-.5260868.1515908-.6741236l17.402-10.844-20.273 11.7c-.2362075.133071-.5354329.0536509-.6745599-.1790411-.1391271-.2326919-.0674613-.5338687.1615599-.6789589l16.11-9.925-18.678 10.783c-.2356087.1297647-.5316571.04988-.6700067-.1807924-.1383496-.2306723-.0694166-.5294607.1560067-.6762076l22.235-13.8-25.383 14.657c-.07561844.0452887-.16186523.0697828-.25.071z" fill="#ced2dc"/><path id="Path" d="m3.277 9.5c-.2152152 0-.40628463-.13771505-.47434165-.34188612s.00216949-.42898476.17434165-.55811388l4.077-3.078-4.774 2.755c-.22277229.12943972-.50743111.06840472-.65755259-.14098887-.15012149-.20939359-.11654846-.49857997.07755259-.66801113l3.926-3.414-3.347 1.931c-.22459856.12700926-.5089574.06225633-.65641904-.14947682-.14746165-.21173315-.10959197-.50090228.08741904-.66752318l.89-.735-.32.183c-.2100291.12080785-.47645166.07364227-.63224179-.11192765s-.15610963-.45613501-.00075821-.64207235l.958-1.142c-.21070568-.03088879-.37872406-.19184803-.41862282-.40103476-.03989877-.20918673.05707893-.42068941.24162282-.52696524l1.933-1.116c.2100291-.12080785.47645166-.07364227.63224179.11192765s.15610963.45613501.00075821.64207235l-.758.9 3.006-1.73c.22459856-.12700926.5089574-.06225633.65641904.14947682.14746165.21173315.10959197.50090228-.08741904.66752318l-.887.734 2.689-1.551c.22253618-.12542207.5038286-.06293257.6523283.14491565s.1164484.49420996-.0743283.66408435l-3.923 3.412 7.316-4.221c.2287194-.13104292.5198877-.06201267.6654353.15776159.1455476.21977425.0954752.5147944-.1144353.67423841l-4.078 3.076 6.774-3.908c.227731-.12816214.5157443-.059345.6609391.15792306.1451949.21726806.0985947.50969906-.1069391.67107694l-4.31 3.3 7.157-4.129c.2314518-.1313128.5252013-.05833565.6682918.16602591.1430904.22436156.0853808.52148787-.1312918.67597409l-1.806 1.258 3.637-2.1c.2266506-.12749151.5131906-.05996349.6590607.15531888s.1023667.50643977-.1000607.66968112l-4.632 3.644 7.748-4.469c.230817-.12677527.5204005-.05279146.6621232.16916153.1417226.221953.0869993.51578559-.1251232.67183847l-2.024 1.416 3.912-2.257c.2325262-.13076655.5267591-.05595091.6685809.17000241s.0812744.52345026-.1375809.67599759l-.419.285 1.963-1.131c.2309306-.13173121.5245674-.05970825.6683337.16392831.1437664.22363655.0873821.52067301-.1283337.67607169l-2.555 1.813 4.6-2.653c.2287194-.13104292.5198877-.06201267.6654353.15776159.1455476.21977425.0954752.5147944-.1144353.67423841l-4.022 3.026 6.688-3.858c.2322377-.12731148.5234633-.05144622.664069.17299225.1406056.22443847.0818101.51958413-.134069.67300775l-.128.088 1.621-.934c.2314574-.12472424.5199691-.04888174.6601699.17354218.1402009.22242391.0841872.51543164-.1281699.67045782l-.916.628 2.549-1.472c.2288588-.12922991.518701-.05921567.6633326.16023456.1446317.21945024.0946742.51341403-.1143326.67276544l-3.9 2.92 6.499-3.753c.2287194-.13104292.5198877-.06201267.6654353.15776159.1455476.21977425.0954752.5147944-.1144353.67423841l-4.035 3.039 6.711-3.871c.2269587-.12823252.5143539-.06057953.6602778.15542976.145924.21600929.1014061.50788441-.1022778.67057024l-4.563 3.568 7.617-4.394c.23171-.12762208.5227312-.05267945.6639792.17098529s.08384.51864622-.1309792.67301471l-1.085.744 2.756-1.588c.226507-.12916814.5142486-.06258554.6609917.15295162.1467432.21553715.103215.50765663-.0999917.67104838l-4.687 3.709 7.857-4.533c.229416-.13348907.5231565-.06445615.6690977.15724684.1459412.22170298.0932171.51880432-.1200977.67675316l-3.77 2.8 5.114-2.952c.228242-.1318458.5196375-.06386204.6659708.15537372.1463332.21923576.0973404.51441845-.1119708.67462628l-3.376 2.588 3.753-2.17c.2221262-.12659452.5039712-.06522422.6533525.14226418.1493814.20748839.1181698.4942439-.0723525.66473582l-3.076 2.722 2.71-1.559c.2190652-.13188932.5023394-.07724227.6566242.12667084s.1298566.49137409-.0566242.66632916l-1.248 1.2.661-.382c.2091618-.11993789.4741262-.07352463.6300667.11036746.1559405.1838921.1584356.45287929.0059333.63963254l-.375.452c.2255547.00180195.4219749.1544.4794824.37250785.0575076.21810784-.0381386.44771377-.2334824.56049215l-2.009 1.154c-.2090981.11870932-.4730811.07177697-.6284497-.11172925s-.1581201-.45161455-.0065503-.63827075l.247-.3-1.825 1.05c-.2190652.13188932-.5023394.07724227-.6566242-.12667084s-.1298566-.49137409.0566242-.66632916l1.25-1.2-3.461 2c-.2217499.12438304-.5015352.06254686-.6502105-.14370495s-.1188941-.49123709.0692105-.66229505l3.078-2.722-6.11 3.529c-.228242.1318458-.5196375.06386204-.6659708-.15537372-.1463332-.21923576-.0973404-.51441845.1119708-.67462628l3.371-2.578-5.917 3.41c-.229416.13348907-.5231565.06445615-.6690977-.15724684-.1459412-.22170298-.0932171-.51880432.1200977-.67675316l3.776-2.806-6.308 3.641c-.226507.12916814-.5142486.06258554-.6609917-.15295162-.1467432-.21553715-.103215-.50765663.0999917-.67104838l4.686-3.711-7.859 4.537c-.2327682.13793867-.5330334.06569054-.677577-.16303478s-.0809181-.53093515.143577-.68196522l1.093-.751-2.766 1.6c-.2271272.1307942-.5167067.06400457-.6636035-.15305585-.1468968-.21706043-.1012506-.51071589.1046035-.67294415l4.561-3.572-7.617 4.4c-.2287194.13104292-.5198877.06201267-.6654353-.15776159-.1455476-.21977425-.0954752-.5147944.1144353-.67423841l4.037-3.043-6.716 3.874c-.2290632.13219788-.5214568.06314799-.6671806-.15755725-.1457237-.22070523-.094369-.51671981.1171806-.67544275l3.9-2.919-6.5 3.754c-.2321092.12908381-.5246372.05417632-.6661393-.17057796s-.0825963-.52091953.1341393-.67442204l.913-.626-2.55 1.472c-.2329673.1327691-.5291919.0581284-.6714287-.16918215-.1422368-.22731056-.0798406-.52635392.1414287-.67781785l.131-.089-1.622.937c-.2287194.13104292-.5198877.06201267-.6654353-.15776159-.1455476-.21977425-.0954752-.5147944.1144353-.67423841l4.022-3.029-6.693 3.863c-.2309306.13173121-.5245674.05970825-.6683337-.16392831-.1437664-.22363655-.0873821-.52067301.1283337-.67607169l2.56-1.818-4.608 2.659c-.2333681.13826705-.5344194.06524166-.6785003-.16458243-.144081-.22982408-.078635-.53261344.1475003-.68241757l.415-.281-1.956 1.129c-.2314518.13131281-.5252013.05833565-.6682918-.16602591-.1430904-.22436156-.0853808-.52148787.1312918-.67597409l2.026-1.422-3.921 2.265c-.2276227.13472937-.5207984.06886746-.6689241-.15027378-.1481257-.21914123-.0999482-.51573645.1099241-.67672622l4.636-3.647-7.75 4.476c-.23186034.13306172-.52737097.0602043-.67080661-.16538571-.14343565-.22559001-.08404925-.52409963.13480661-.67761429l1.8-1.258-3.641 2.1c-.22672765.1188977-.50663671.04732859-.6484683-.16580491s-.09975975-.49896768.0974683-.66219509l4.311-3.3-7.162 4.132c-.07574236.04464039-.16208155.06812465-.25.068z" fill="#1c85ad"/><path id="Path" d="m21.526 52.471c-.2117487.0002685-.4007056-.1328752-.4716967-.3323692s-.0086206-.422074.1556967-.5556308l.034-.027-1.469.847c-.2236156.1271011-.5071788.0638125-.6555296-.1463081s-.1130835-.4985123.0815296-.6666919l.441-.374-2.058 1.184c-.2106402.1205642-.4774423.072448-.6326961-.114103-.1552538-.1865509-.1541169-.4576547.0026961-.642897l1.475-1.723-4.009 2.316c-.2083669.1203944-.4729381.0752795-.6296306-.1073652-.1566924-.1826446-.1610497-.4509994-.0103694-.6386348l1.36-1.69-2.274 1.312c-.2087017.1189347-.4724867.0726495-.6282299-.1102327-.1557433-.1828821-.1594257-.4506718-.0087701-.6377673l1.647-2.029-1.6.921c-.2219765.128183-.5049351.0677387-.6551637-.1399529-.1502285-.2076917-.1190618-.4953507.0721637-.6660471l.424-.378c-.2126255.039674-.4266543-.0618684-.530419-.2516486s-.073736-.4247641.074419-.5823514l1.639-1.738-1.02.588c-.2143746.1227956-.4862971.0706141-.6399891-.1228129s-.1430745-.4701074.0249891-.6511871l1.647-1.761-1.032.6c-.2113867.123017-.4807398.0750612-.6366787-.1133547-.155939-.1884159-.1526904-.4619854.0076787-.6466453l2.009-2.326-1.381.8c-.2121584.1214824-.4810525.071733-.6357028-.1176145-.1546503-.1893474-.1497002-.4627602.0117028-.6463855l1.9-2.138-1.272.735c-.2155591.1245112-.4898785.0714871-.6435094-.1243861-.153631-.1958731-.1397727-.4749262.0325094-.6546139l1.529-1.6-.918.529c-.2145941.1228235-.486738.0703506-.6402819-.1234548-.1535438-.1938053-.142373-.4707366.0262819-.6515452l1.628-1.736-1.014.585c-.2126491.1227903-.4829898.0729918-.6379285-.1175105-.1549386-.1905024-.1486122-.4653186.0149285-.6484895l1.878-2.109-1.255.725c-.220439.1262233-.5004889.0670999-.6510942-.1374575-.1506054-.2045574-.1238973-.4895314.0620942-.6625425l.639-.59-.05.028c-.2167987.1191224-.4881174.0618073-.638215-.1348206s-.1338516-.473458.038215-.6511794l1.253-1.253-.65.375c-.2134326.1213489-.4833915.0697812-.6370683-.1216932-.1536769-.1914744-.1455966-.4661956.0190683-.6483068l1.732-1.903-1.118.646c-.2160105.1246636-.4908577.0710795-.6442199-.1255968s-.1383361-.4762947.0352199-.6554032l1.448-1.493-.839.484c-.2144477.1242599-.4875608.0726667-.6419004-.1212601-.1543397-.1939268-.1433197-.4716518.0259004-.6527399l1.676-1.8-1.06.612c-.2132902.1227487-.4841863.0720462-.6386451-.1195326-.1544588-.1915787-.14655-.4670654.0186451-.6494674l1.789-1.97-1.169.674c-.2108451.1204916-.4777811.0720607-.6328586-.1148212-.1550774-.1868819-.1534499-.458171.0038586-.6431788l2.014-2.346-1.388.8c-.2227723.1294397-.5074311.0684047-.6575526-.1409889s-.1165485-.4985799.0775526-.6680111l.355-.312c-.1559406.0094232-.3070586-.0559251-.407-.176-.1555302-.1857411-.1555302-.4562589 0-.642l1.7-2.05-1.066.615c-.2030505.1167744-.4599528.0769359-.6181003-.0958505-.1581476-.1727864-.1751468-.4322029-.0408997-.6241495l.719-1.025c-.1843724.0093673-.3577788-.0878336-.446-.25-.1375532-.2386555-.0561721-.5436114.182-.682l1.639-.947c.2030505-.1167744.4599528-.0769359.6181003.0958505.1581476.1727864.1751468.4322029.0408997.6241495l-.637.908 1.523-.879c.2096246-.1209913.4758118-.0744647.6319655.1104606.1561537.1849254.1574318.4551452.0030345.6415394l-1.7 2.05 1.526-.881c.2227723-.1294397.5074311-.0684047.6575526.1409889s.1165485.4985799-.0775526.6680111l-.355.312c.1575653-.0117552.3107273.0552766.409.179.1577751.1864328.1577751.4595672 0 .646l-2.018 2.342 1.389-.8c.2130048-.1213721.4825903-.0704054.6365857.1203501.1539953.1907555.1469715.4650266-.0165857.6476499l-1.795 1.972 1.168-.674c.2144477-.1242599.4875608-.0726667.6419004.1212601.1543397.1939268.1433197.4716518-.0259004.6527399l-1.677 1.8 1.062-.612c.2157055-.1230645.4890446-.0691582.6418764.1265869.1528317.1957451.1388315.4739971-.0328764.6534131l-1.448 1.493.839-.483c.2137214-.1227494.4850125-.071451.6391595.1208586.1541469.1923095.1451658.4682619-.0211595.6501414l-1.739 1.893 1.118-.645c.2167987-.1191224.4881174-.0618073.638215.1348206s.1338516.473458-.038215.6511794l-1.253 1.253.65-.375c.220439-.1262233.5004889-.0670999.6510942.1374575.1506054.2045574.1238973.4895314-.0620942.6625425l-.639.589.05-.028c.2126491-.1227903.4829898-.0729918.6379285.1175105.1549386.1905024.1486122.4653186-.0149285.6484895l-1.872 2.112 1.255-.725c.2145941-.1228235.486738-.0703506.6402819.1234548.1535438.1938053.142373.4707366-.0262819.6515452l-1.63 1.738 1.016-.586c.2155591-.1245112.4898785-.0714871.6435094.1243861.153631.1958731.1397727.4749262-.0325094.6546139l-1.527 1.6.916-.528c.212437-.1228152.482602-.0733206.6377036.116828.1551017.1901487.1492961.4647486-.0137036.648172l-1.9 2.137 1.272-.734c.2113867-.123017.4807398-.0750612.6366787.1133547.155939.1884159.1526904.4619854-.0076787.6466453l-2.004 2.319 1.379-.8c.2143746-.1227956.4862971-.0706141.6399891.1228129s.1430745.4701074-.0249891.6511871l-1.647 1.761 1.032-.595c.2146681-.1242961.4880102-.0724133.6422041.1218961.154194.1943094.142615.4722908-.0272041.6531039l-1.636 1.748 1.02-.588c.2219765-.128183.5049351-.0677387.6551637.1399529.1502285.2076917.1190618.4953507-.0721637.6660471l-.424.378c.1760648-.0325502.3560955.0315285.472.168.1556101.1837661.1581319.4523443.006.639l-1.646 2.034 2.249-1.3c.2083669-.1203944.4729381-.0752795.6296306.1073652.1566924.1826446.1610497.4509994.0103694.6386348l-1.361 1.687 4.218-2.433c.2106402-.1205642.4774423-.072448.6326961.114103.1552538.1865509.1541169.4576547-.0026961.642897l-1.474 1.722 4.3-2.48c.2236156-.1271011.5071788-.0638125.6555296.1463081s.1130835.4985123-.0815296.6666919l-.441.376 2.054-1.188c.2254634-.1287726.5119753-.0635416.6594703.1501437.1474949.2136853.1068861.5047094-.0934703.6698563l-.032.025 1.466-.845c.2197759-.1165123.4917776-.0537473.6382794.1472845.1465019.2010317.1229447.4791853-.0552794.6527155l-.8.712 2.634-1.512c.2198926-.1179958.4931214-.0557887.6402596.1457705s.1231296.4807496-.0562596.6542295l-.825.741 2.676-1.541c.2180963-.1257781.4956948-.0697764.6479698.1307191.1522751.2004955.1317242.4829397-.0479698.6592809l-1.187 1.159 3.375-1.949c.2070776-.118794.4692493-.0746242.6259727.1054616.1567233.1800859.1642736.4458451.0180273.6345384l-1.495 1.91 4.6-2.653c.2144477-.1242599.4875608-.0726667.6419004.1212601.1543397.1939268.1433197.4716518-.0259004.6527399l-1.39 1.485 3.912-2.256c.2130048-.1213721.4825903-.0704054.6365857.1203501.1539953.1907555.1469715.4650266-.0165857.6476499l-1.428 1.574 4.06-2.342c.2108451-.1204916.4777811-.0720607.6328586.1148212.1550774.1868819.1534499.458171-.0038586.6431788l-1.472 1.714 3.745-2.162c.2009205-.1160712.4552946-.0786595.614288.0903455.1589934.1690049.1808212.4251871.052712.6186545l-1.231 1.858 1.489-.86c.1549945-.0985297.351531-.1041539.5119064-.0146489.1603754.0895049.2587712.2597296.2562855.4433739s-.1054527.3511436-.2681919.436275l-3.331 1.918c-.2009205.1160712-.4552946.0786595-.614288-.0903455-.1589934-.1690049-.1808212-.4251871-.052712-.6186545l1.231-1.857-4.445 2.566c-.2108451.1204916-.4777811.0720607-.6328586-.1148212-.1550774-.1868819-.1534499-.458171.0038586-.6431788l1.473-1.715-4.285 2.473c-.2130048.1213721-.4825903.0704054-.6365857-.1203501-.1539953-.1907555-.1469715-.4650266.0165857-.6476499l1.427-1.572-4.06 2.34c-.2143746.1227956-.4862971.0706141-.6399891-.1228129s-.1430745-.4701074.0249891-.6511871l1.388-1.484-3.914 2.258c-.2070175.117628-.4682638.0729567-.6244352-.1067739-.1561713-.1797306-.1639383-.4446548-.0185648-.6332261l1.5-1.913-4.6 2.653c-.2180963.1257781-.4956948.0697764-.6479698-.1307191-.1522751-.2004955-.1317242-.4829397.0479698-.6592809l1.184-1.156-3.374 1.946c-.2198926.1179958-.4931214.0557887-.6402596-.1457705s-.1231296-.4807496.0562596-.6542295l.823-.74-2.674 1.54c-.2197759.1165123-.4917776.0537473-.6382794-.1472845-.1465019-.2010317-.1229447-.4791853.0552794-.6527155l.8-.712-2.632 1.512c-.0754832.0456007-.1618163.0701194-.25.071z" fill="#1c85ad"/><path id="Path" d="m22.146 48.494c-.201814-.0000404-.3838177-.1214024-.4614385-.3076923s-.0356386-.4009794.1064385-.5443077l2.179-2.186-2.69 1.553c-.2227723.1294397-.5074311.0684047-.6575526-.1409889s-.1165485-.4985799.0775526-.6680111l1.878-1.611-1.3.752c-.2219765.128183-.5049351.0677387-.6551637-.1399529-.1502285-.2076917-.1190618-.4953507.0721637-.6660471l2.34-2.091-1.758 1.015c-.2259042.1277621-.5120042.0614438-.6586593-.152678-.1466552-.2141217-.1051039-.5048532.0956593-.669322l.859-.691-.3.171c-.2251402.137081-.5180309.0758388-.6693844-.1399654s-.1091803-.5120422.0963844-.6770346l1.937-1.671-1.361.785c-.2192049.1250239-.4972153.0671074-.6482603-.1350489-.1510451-.2021563-.1277753-.4851803.0542603-.6599511l2.918-2.769-2.316 1.336c-.2234669.1287231-.5081764.0663691-.6573848-.1439733-.1492085-.2103425-.1139612-.4996608.0813848-.6680267l1.827-1.574-1.256.725c-.2206356.1300292-.503851.072325-.6560244-.1336626s-.1241014-.4936554.0650244-.6663374l1.138-1.06-.547.316c-.1899688.1093046-.4289789.0821498-.5895855-.0669849-.1606065-.1491346-.2053671-.3854813-.1104145-.5830151l.553-1.147c-.1838224.0017194-.3550506-.0931964-.451-.25-.0666188-.1149293-.0847639-.2516448-.0504306-.3799727.0343334-.1283278.1183225-.2377179.2334306-.3040273l1.128-.65c.1899688-.1093046.4289789-.0821498.5895855.0669849.1606065.1491346.2053671.3854813.1104145.5830151l-.507 1.05 2.952-1.7c.2206356-.1300292.503851-.072325.6560244.1336626s.1241014.4936554-.0650244.6663374l-1.139 1.06 2.051-1.184c.2234669-.1287231.5081764-.0663691.6573848.1439733.1492085.2103425.1139612.4996608-.0813848.6680267l-1.832 1.578 1.339-.772c.2208953-.136633.509623-.0813788.6644625.1271591.1548394.208538.1242214.5009064-.0704625.6728409l-2.909 2.771 2.32-1.339c.2234669-.1287231.5081764-.0663691.6573848.1439733.1492085.2103425.1139612.4996608-.0813848.6680267l-1.934 1.662 1.36-.785c.2260575-.1301558.5141897-.0646595.6617686.1504288.1475789.2150884.1050107.5074886-.0977686.6715712l-.867.7.306-.177c.2219765-.128183.5049351-.0677387.6551637.1399529.1502285.2076917.1190618.4953507-.0721637.6660471l-2.337 2.088 1.758-1.015c.2237424-.1292278.5090949-.0666972.6582921.1442547.1491972.2109518.1130922.5008356-.0832921.6687453l-1.876 1.61 1.3-.753c.216926-.1250668.492915-.0703862.6457677.1279434.1528528.1983296.1354294.4791432-.0407677.6570566l-2.18 2.187 1.579-.911c.2079723-.120645.4723656-.0761851.6294405.1058457.157075.1820307.1623505.4500842.0125595.6381543l-.582.731c.2430623-.1007134.5225908.0041697.6394089.2399154.116818.2357457.0309545.5216899-.1964089.6540846l-2.22 1.282c-.2079146.1194294-.4713404.0744499-.6278456-.1072036-.1565052-.1816534-.1620244-.4488348-.0131544-.6367964l.577-.725-2.559 1.475c-.0770682.0448476-.1648382.0679996-.254.067z" fill="#f7ad00"/><path id="Path" d="m35.2 48.489c-.1996513-.0003413-.3799624-.1194219-.4586615-.3029082s-.0406991-.3962028.0966615-.5410918l1.41-1.484-2.968 1.711c-.2219765.128183-.5049351.0677387-.6551637-.1399529-.1502285-.2076917-.1190618-.4953507.0721637-.6660471l2.31-2.057-1.728 1c-.2207276.1320893-.5056598.0751513-.6586724-.1316224-.1530126-.2067738-.124171-.4959044.0666724-.6683776l2.787-2.609-2.195 1.266c-.218866.1231702-.4951381.0648746-.6455811-.1362227-.1504431-.2010973-.1283693-.4825886.0515811-.6577773l2.915-2.787-2.323 1.341c-.2251719.1281476-.5109328.0630663-.6584056-.14995-.1474728-.2130162-.107801-.5033971.0914056-.66905l1.047-.859-.48.277c-.2117396.1215681-.4803142.0724346-.6353005-.1162229-.1549864-.1886576-.1510546-.4616611.0093005-.6457771l1.3-1.487-.677.39c-.1991468.1142571-.450514.0782028-.6095162-.0874245s-.1847708-.4182562-.0624838-.6125755l.33-.517c-.1803063-.0685405-.3051052-.2346855-.3206998-.4269482-.0155947-.1922628.0807966-.3763488.2476998-.4730518l1.128-.65c.1991468-.1142571.450514-.0782028.6095162.0874245s.1847708.4182562.0624838.6125755l-.114.179 1.526-.881c.2114635-.1203007.4788239-.0709321.63338.1169548s.1514409.4597493-.00738.6440452l-1.3 1.49 3.148-1.817c.2256098-.1311968.5141774-.0668035.6626093.1478598.1484318.2146634.1067938.5073817-.0956093.6721402l-1.042.854.652-.376c.218866-.1231702.4951381-.0648746.6455811.1362227.1504431.2010973.1283693.4825886-.0515811.6577773l-2.916 2.784 2.332-1.344c.2206356-.1300292.503851-.072325.6560244.1336626s.1241014.4936554-.0650244.6663374l-2.787 2.614 2.2-1.271c.2219765-.128183.5049351-.0677387.6551637.1399529.1502285.2076917.1190618.4953507-.0721637.6660471l-2.306 2.054 1.728-1c.215408-.1259925.490735-.0738659.6451787.122149.1544437.196015.1407116.4758964-.0321787.655851l-1.413 1.485.8-.464c.1721225-.0990544.3865512-.0868554.546329.0310809.1597778.1179364.2346143.3192521.190671.5129191l-.3 1.309c.1051686.0410431.193065.1169376.249.215.1373847.2389169.0555349.543953-.183.682l-.5.291c-.1721225.0990544-.3865512.0868554-.546329-.0310809-.1597778-.1179364-.2346143-.3192521-.190671-.5129191l.242-1.057-2.8 1.618c-.0756094.0438591-.161593.06665-.249.066z" fill="#7dbf29"/><path id="Path" d="m27.576 48.5c-.2122369.0000468-.4013779-.1339006-.471791-.3341167-.0704131-.2002162-.0067538-.4230698.158791-.5558833l.342-.275-.325.188c-.2240205.1297641-.5100442.0670649-.6592395-.1445117s-.1122125-.502047.0852395-.6694883l1.752-1.488-1.178.679c-.2207276.1320893-.5056598.0751513-.6586724-.1316224-.1530126-.2067738-.124171-.4959044.0666724-.6683776l2.806-2.635-2.215 1.278c-.2189627.1248229-.4965995.0671571-.6477436-.1345378-.1511442-.2016949-.1285371-.4843546.0527436-.6594622l2.97-2.846-2.375 1.37c-.2189627.1248229-.4965995.0671571-.6477436-.1345378-.1511442-.2016949-.1285371-.4843546.0527436-.6594622l2.953-2.826-2.358 1.361c-.2246205.1445287-.5231726.0869907-.6779916-.1306651-.154819-.2176557-.1112283-.5185607.0989916-.6833349l1.978-1.7-1.4.807c-.2247421.1254395-.5079955.0597743-.6546194-.1517571-.1466238-.2115314-.1087109-.4998143.0876194-.6662429l1.275-1.05-.708.408c-.220439.1262233-.5004889.0670999-.6510942-.1374575-.1506054-.2045574-.1238973-.4895314.0620942-.6625425l2.634-2.429-2.045 1.181c-.2233421.1266456-.5063058.0635478-.6546834-.1459871-.1483776-.209535-.1139372-.4973954.0796834-.6660129l1.858-1.594-1.283.74c-.2253165.1265297-.5099298.0605202-.6565485-.1522715-.1466186-.2127916-.1069324-.5022515.0915485-.6677285l1.053-.855-.488.281c-.2122255.1228453-.4822194.073656-.6374856-.1161414s-.1499782-.4641845.0124856-.6478586l1.924-2.175-1.3.749c-.1930008.1106871-.435921.080531-.5959992-.0739873s-.1987991-.3962213-.0950008-.5930127l.477-.9c-.2169196-.0208233-.3953701-.1797381-.4410924-.3928042-.0457224-.2130661.0518151-.4312058.2410924-.5391958l1.128-.65c.1932551-.1121451.437458-.0824579.5982148.0727235.1607569.1551815.1990418.3981849.0937852.5952765l-.395.742 2.443-1.41c.2119487-.1215228.4806809-.0720808.6354985.1169206.1548177.1890014.1503782.4622079-.0104985.6460794l-1.921 2.174 3.284-1.9c.2253165-.1265297.5099298-.0605202.6565485.1522715.1466186.2127916.1069324.5022515-.0915485.6677285l-1.056.858.493-.284c.2237424-.1292278.5090949-.0666972.6582921.1442547.1491972.2109518.1130922.5008356-.0832921.6687453l-1.859 1.593 1.287-.742c.2203354-.1244491.4989119-.0646624.6487785.1392378.1498666.2039001.1237692.4876223-.0607785.6607622l-2.632 2.428 2.047-1.182c.2251719-.1281476.5109328-.0630663.6584056.14995.1474728.2130162.107801.5033971-.0914056.66905l-1.279 1.052.713-.411c.2233144-.1304087.509223-.0690136.6593121.1415784.150089.2105921.1148283.5008847-.0813121.6694216l-1.975 1.708 1.4-.808c.219385-.1342545.5048344-.0801688.6599003.1250351.1550659.2052038.1291551.4945743-.0599003.6689649l-2.953 2.825 2.36-1.362c.219385-.1342545.5048344-.0801688.6599003.1250351.1550659.2052038.1291551.4945743-.0599003.6689649l-2.97 2.847 2.377-1.373c.2207276-.1320893.5056598-.0751513.6586724.1316224.1530126.2067738.124171.4959044-.0666724.6683776l-2.8 2.634 2.216-1.279c.2236156-.1271011.5071788-.0638125.6555296.1463081s.1130835.4985123-.0815296.6666919l-1.753 1.491 1.182-.683c.2260575-.1301558.5141897-.0646595.6617686.1504288.1475789.2150884.1050107.5074886-.0977686.6715712l-.437.351c.193692-.0497667.3984074.0206671.520476.1790734.1220686.1584064.1380077.374312.040524.5489266l-.855 1.526.172-.1c.1549945-.0985297.351531-.1041539.5119064-.0146489.1603754.0895049.2587712.2597296.2562855.4433739s-.1054527.3511436-.2681919.436275l-1.761 1.006c-.1948982.1130323-.4413194.0817533-.6017966-.0763881-.1604773-.1581413-.195366-.4040773-.0852034-.6006119l.854-1.524-3.845 2.22c-.0743761.0446558-.1592559.0688086-.246.07z" fill="#886ade"/><path id="Path" d="m40.472 48.493c-.2074013.0000112-.3932776-.1280198-.4671946-.3218021-.0739169-.1937823-.0205268-.4130798.1341946-.5511979l.893-.8-1.752 1.014c-.2237424.1292278-.5090949.0666972-.6582921-.1442547-.1491972-.2109518-.1130922-.5008356.0832921-.6687453l1.822-1.556-1.247.72c-.2245855.1309436-.5120466.0679354-.6612702-.144943-.1492235-.2128783-.1104168-.5045939.0892702-.671057l1.636-1.378-1.065.614c-.2269587.1282325-.5143539.0605795-.6602778-.1554298-.145924-.2160093-.1014061-.5078844.1022778-.6705702l.444-.347c-.2233329.0635152-.4610034-.035073-.5738049-.2380203s-.071048-.456844.1008049-.6129797l2.543-2.32-1.956 1.129c-.2256098.1311968-.5141774.0668035-.6626093-.1478598-.1484318-.2146634-.1067938-.5073817.0956093-.6721402l1.26-1.035-.693.4c-.2237424.1292278-.5090949.0666972-.6582921-.1442547-.1491972-.2109518-.1130922-.5008356.0832921-.6687453l1.827-1.563-1.252.722c-.2262036.1284409-.5131028.0619842-.6597948-.1528333-.1466919-.2148176-.1041677-.5062269.0977948-.6701667l.752-.6-.19.109c-.2157055.1230645-.4890446.0691582-.6418764-.1265869-.1528317-.1957451-.1388315-.4739971.0328764-.6534131l1.878-1.943-1.269.732c-.1901693.109811-.4297302.0826879-.5905348-.0668604s-.2052111-.3865148-.1094652-.5841396l.553-1.144c-.1843879.0039778-.3566662-.0915202-.451-.25-.0666188-.1149293-.0847639-.2516448-.0504306-.3799727.0343334-.1283278.1183225-.2377179.2334306-.3040273l1.128-.65c.1901693-.109811.4297302-.0826879.5905348.0668604s.2052111.3865148.1094652.5841396l-.506 1.05 2.947-1.7c.2157055-.1230645.4890446-.0691582.6418764.1265869.1528317.1957451.1388315.4739971-.0328764.6534131l-1.877 1.941 2.855-1.647c.2262036-.1284409.5131028-.0619842.6597948.1528333.1466919.2148176.1041677.5062269-.0977948.6701667l-.755.6.2-.113c.2237424-.1292278.5090949-.0666972.6582921.1442547.1491972.2109518.1130922.5008356-.0832921.6687453l-1.832 1.566 1.257-.725c.2251719-.1281476.5109328-.0630663.6584056.14995.1474728.2130162.107801.5033971-.0914056.66905l-1.259 1.034.694-.4c.2202286-.1227467.4973928-.0623225.6465459.1409526s.1236267.4857984-.0595459.6590474l-2.545 2.322 1.962-1.132c.2271272-.1307942.5167067-.0640046.6636035.1530559.1468968.2170604.1012506.5107158-.1046035.6729441l-.442.346c.2268701-.0644361.4679184.0384209.5783774.2467976.1104589.2083768.0602897.465606-.1203774.6172024l-1.637 1.385 1.067-.615c.2233421-.1266456.5063058-.0635478.6546834.1459871.1483776.209535.1139372.4973954-.0796834.6660129l-1.82 1.555 1.249-.721c.2219765-.128183.5049351-.0677387.6551637.1399529.1502285.2076917.1190618.4953507-.0721637.6660471l-.891.8.311-.18c.2072709-.1186494.4695147-.0741485.6260418.106235.156527.1803835.1636307.4462813.0169582.634765l-.486.619c.2094893-.039076.4210081.057287.529.241.1373847.2389169.0555349.543953-.183.682l-2.048 1.173c-.2072099.117482-.4685265.0724799-.6245015-.1075473s-.1632971-.4450893-.0174985-.6334527l.442-.561-2.276 1.315c-.0763874.0447306-.1634841.0678873-.252.067z" fill="#f7ad00"/><g fill="#262626"><path id="Shape" d="m60.724 8.957c0-.007.008-.013.008-.02v-5c0-.02-.012-.032-.014-.051.0050164-.02635429.0070292-.05319229.006-.08-.91-4.522-6.506-3.306-9.986-3.306h-24.146c-6.592 0-13.209-.182-19.792 0-5.633.149-5.532 3.536-5.532 8.563.00393645.02564936.01064231.05079631.02.075-.00553183.01830526-.00954541.03703533-.012.056v34.52c0 3.9-.7 8.608 0 12.466.753 4.13 5.3 3.186 8.46 3.186h40.97c2.379 0 7.053.838 8.988-1.161 2.065-2.136 1.03-7.31 1.03-9.93zm-55.399-7.457c2.511-.71 6.3 0 8.882 0h34.218c2.761 0 9.969-1.467 10.841 2.66-.025 1.153-.449 4.271.364 4.429-.6323283.00031386-1.2642241-.0330668-1.893-.1h-44.859c-1.386 0-2.839.081-4.3.137h-3.935c-.509-.03-1.013-.07-1.5-.137-.20620827-.03393829-.41591362-.04133175-.624-.022.14397781-.21197603.22001497-.46275912.218-.719.174-2.51-.87-5.267 2.588-6.248zm53.951 53.579c-.844 4.465-4 3.555-7.649 3.555h-38.58c-3.128 0-9.544 1.327-10.323-2.856-.641-3.446 0-7.659 0-11.143v-35.135h56.552v30.53c0 4.721.878 10.397 0 15.049z"/><path id="Shape" d="m45.727 47.36v-10.822c0-1.029.346-2.744 0-3.732-.6-1.717-2.545-1.253-4.044-1.253-1.409 0-2.779-.112-3.36 1.41-.2011644.8620566-.232076 1.7550971-.091 2.629-.9382301-.027772-1.8772811.0012811-2.812.087-.5644227-.0240669-1.1298419.0077547-1.688.095v-3.4c0-1.449.512-4.033 0-5.42-.7-1.883-2.456-1.477-4.278-1.415-3.9.134-3.336 2.919-3.2 6.049-1.0289537-.0824005-2.0634787-.0646505-3.089.053-3.353.137-2.883 2.11-2.883 4.9v11.335c-.476-.056-.957-.1-1.422-.181-1.646-.279-1.768-.237-2.13-1.867-.544-2.453 0-5.747 0-8.255 0-6.618.263-13.3 0-19.909-.069-1.757.2-3.631-2.13-3.951-1.1895813-.1100628-2.3473252.4238112-3.036 1.4-.2364278.4744408-.3577065.997926-.354 1.528h-.91c-.35902151-.0175229-.7086321.1180329-.962.373-.171.276.147.341.37.341h1.5c.019.607.074 1.2.074 1.66v2.542h-1c-.3658549-.0315972-.72334915.1214539-.953.408-.157.292.134.474.405.474h1.55v4.271h-.8c-.3605131-.0073595-.71567727.0880215-1.024.275-.208.142-.219.3.082.3h1.747v1.478c0 .938-.013 1.879-.022 2.82h-.986c-.36395564-.0251321-.71838976.1231667-.956.4-.165.287.141.428.394.428h1.529c-.0146667 1.3873333-.0303333 2.775-.047 4.163h-.923c-.36431198-.029099-.72017332.1199529-.955.4-.162.289.138.448.4.448h1.467c-.016 1.373-.019 2.745-.019 4.117h-.9c-.36725925-.0343222-.72640312.122402-.951.415-.152.3.131.5.413.5h1.437c.006 1.363.037 2.724.077 4.085h-.978c-.36732144-.0347104-.7266454.1220924-.951.415-.152.294.131.5.413.5h1.535c.005.142 0 .284.01.426.154 3.807 2.167 4.336 5 4.409v1.9c0 .393 1.448.138 1.448-.388v-1.5h3.549v1.777c0 .642 1.454.354 1.454-.164v-1.609h3.549v1.889c0 .333 1.448.1 1.448-.388v-1.5h3.552v1.889c0 .37 1.448.123 1.448-.388v-1.5h3.552v1.889c0 .363 1.448.118 1.448-.388v-1.5h3.543v1.753c0 .742 1.466.515 1.466-.118v-1.557c1.1765648.0930933 2.3574751.1191355 3.537.078v1.606c0 .7 1.46.438 1.46-.14v-1.617c1.674-.281 2.994-.966 2.994-2.507-.475-1.756-2.59-2.329-4.997-2.446zm-6-14.144c.336-.962.211-.769 1.409-.769.834 0 2.214-.28 2.808.334.783.807.329 3.127.329 4.188v10.366c-1.156.018-2.309.1-3.339.189-.346.006-.693.012-1.038.029-.0580793.0033442-.1156895.0123876-.172.027v-.145c.0005437-.009659.0005437-.019341 0-.029 0-.6906667 0-1.3813333 0-2.072v-6.434c.1178436-.8362661.0692458-1.6875773-.143-2.505-.1497125-1.0595131-.1001967-2.1376696.146-3.179zm-5.13 3.1c.846412-.1380002 1.709588-.1380002 2.556 0 .5873206.1055857 1.0396448.577699 1.12 1.169v10.194h-3.55c-.3306542.0300019-.6633458.0300019-.994 0v-10.664c.193-.847.044-.547.871-.694zm-6.868-9.095c.649-1.383 3.862-1.136 4.542.261.71 1.459 0 5.041 0 6.645v2.973c-.06555.6446713-.06555 1.2943287 0 1.939v8.492h-2c-.6 0-2.2-.249-2.543.035v-4.938c0-.051 0-.1 0-.147v-6.159c.022-.923.351-2.793-.063-3.827-.146-1.705-.474-4.123.064-5.269zm-6 5.794c.359-.789.353-.657 1.389-.657 1.113 0 2.6-.381 3.158.824v14.491c-1.4458846.1803517-2.9092968.1682463-4.352-.036-.074169-.0182326-.1497904-.0299439-.226-.035.0387476-.0988407.0494744-.2064555.031-.311-.0399997-.7708148-.0399997-1.5431852 0-2.314v-6.829c-.005-1.264-.536-3.958-.005-5.128zm25.85 18.616c-.417572-.2130541-.9262577-.1182144-1.239.231-1.19524.1309834-2.3981364.1787651-3.6.143v-.069c0-.7-1.293-.532-1.438.022-1.435-.065-2.744-.171-3.611-.228-.1-.121-.434-.124-.761-.038h-.072-4.196c-.2414975-.0884019-.5065025-.0884019-.748 0h-4.291c-.2064472-.0571796-.4245528-.0571796-.631 0h-4.361c-.3154413-.1880194-.7085587-.1880194-1.024 0h-2.051c-.551 0-1.193.061-1.838.1-.024-.263-.727-.211-1.143.025-.3404151-.0057774-.6792788-.0473393-1.011-.124-3.245-.817-2.84-2.82-2.84-5.153v-24.812c-.1628434-1.5191649-.241963-3.0461402-.237-4.574.0717142-.0424548.1329053-.1005694.179-.17.1-.167.022-.251-.1-.3.0313251-.1448875.0860415-.2837052.162-.411 1.883-2.847 2.322.27 2.552 1.3.464 2.1 0 4.8 0 6.945v18c0 2.3-.882 5.085 1.619 5.776 1.628759.2704665 3.2893221.2900264 4.924.058h4.592c.0932475.0681717.2065391.1033554.322.1h5.972c.2462947.0224053.493769-.0276457.712-.144h4.959c.0960798.0841796.2202989.1291555.348.126h5.966c.3659714.0481889.7320952-.0877036.978-.363 1.87.3 3.284.928 3.6 2.11.004.729-.667 1.18-1.698 1.455z"/><path id="Path" d="m5.7 5.358h1c.3592346.0176442.70901793-.11834225.962-.374.171-.275-.147-.342-.37-.342h-1c-.3592346-.0176442-.70901793.11834225-.962.374-.167.275.151.342.37.342z"/><path id="Path" d="m10.737 5.481h1c.3693981.03888952.7312729-.12334341.948-.425.146-.3-.126-.537-.422-.537h-1c-.3693981-.03888952-.7312729.12334341-.948.425-.146.298.126.537.422.537z"/><path id="Path" d="m15.7 5.326h1c.3570127.0118011.7042251-.11795423.966-.361.177-.265-.154-.291-.356-.291h-1c-.3570127-.0118011-.7042251.11795423-.966.361-.182.265.149.291.356.291z"/><path id="Path" d="m55.7 5.327c.438 0 1.57-.654.608-.654h-8c-.438 0-1.57.654-.608.654z"/></g></g></svg>