<svg height="512" viewBox="0 0 42 60" width="512" xmlns="http://www.w3.org/2000/svg"><g id="025---Potion-Element" fill="none"><path id="Path" d="m17.705 9.495c-.2142984-.00212899-.4034091-.14059084-.4701605-.34423907-.0667513-.20364822.0037027-.42718964.1751605-.55576093l.82-.6-1.95 1.121c-.2285233.12824968-.5172952.05830465-.6618051-.16029949-.14451-.21860415-.095725-.51169373.1118051-.67170051l2.706-2.031-2.157 1.247c-.227871.12651469-.5147039.05676597-.6590373-.16025712-.1443334-.2170231-.0977476-.50851535.1070373-.66974288l1.673-1.27-1.118.644c-.2174475.12228432-.4917629.06557167-.6428937-.13291344s-.1328285-.47800309.0428937-.65508656l1.868-1.856-1.271.734c-.2042601.11775201-.4630223.07681329-.6209575-.09824156-.1579351-.17505484-.1721211-.43665114-.0340425-.62775844l.668-.923c-.2194321-.01435186-.4037297-.17038513-.4540829-.38444345-.0503531-.21405832.0450595-.4358881.2350829-.54655655l1.627-.943c.2042601-.11775201.4630223-.07681329.6209575.09824156.1579351.17505484.1721211.43665114.0340425.62775844l-.547.757 2.592-1.494c.2174475-.12228432.4917629-.06557167.6428937.13291344s.1328285.47800309-.0428937.65508656l-1.87 1.852 4.579-2.64c.2280542-.12904158.517047-.0601323.6623353.15793143.1452882.21806373.0975826.5113034-.1093353.67206857l-1.673 1.27 2.53-1.461c.2285233-.12824968.5172952-.05830465.6618051.16029949.14451.21860415.095725.51169373-.1118051.67170051l-2.701 2.029 2.739-1.58c.2293391-.12852278.5190351-.05749218.6629121.1625395s.0927858.51390037-.1169121.6724605l-.823.6.3-.171c.2206356-.13002916.503851-.07232504.6560244.1336626.1521734.20598765.1241014.49365536-.0650244.6663374l-1.921 1.791 1.331-.768c.2047369-.11962672.4653423-.07899417.623943.09728272.1586008.17627688.1715725.43971169.031057.63071728l-.75 1.027.1-.059c.1549945-.09852969.351531-.10415386.5119064-.01464894s.2587712.25972968.2562855.44337398c-.0024857.18364429-.1054527.35114353-.2681919.43627496l-2.15 1.241c-.2044988.11867839-.4641734.0778888-.6224375-.09777226s-.1718488-.43816847-.0325625-.62922774l.75-1.028-3.048 1.764c-.2207276.13208931-.5056598.07515133-.6586724-.13162243s-.124171-.49590434.0666724-.66837757l1.913-1.789-4.5 2.6c-.0756469.04376853-.1616053.06655268-.249.066z" fill="#82624b"/><path id="Path" d="m20.053 59.437c-.2225138.0003691-.4184961-.146351-.4808178-.3599593-.0623218-.2136083.0240156-.4426973.2118178-.5620407l.268-.171-1.4.8c-.23265.1288599-.5254615.0530472-.6663444-.1725252s-.0805297-.5219566.1373444-.6744748l9.977-6.723-12.129 7c-.2330829.1306613-.5277074.0549657-.6689423-.1718661-.1412349-.2268319-.0791592-.5246238.1409423-.6761339l12.093-8.06-13.951 8.06c-.2347034.1364868-.5354374.0607325-.6774741-.1706544-.1420368-.2313868-.073465-.5338394.1544741-.6813456l11.538-7.489-12.794 7.386c-.2355494.1441463-.5433537.0700494-.6875-.1655s-.0700494-.5433537.1655-.6875l12.444-8.036-13.573 7.835c-.23620749.133071-.53543293.0536509-.67455995-.1790411-.13912701-.2326919-.06746125-.5338687.16155995-.6789589l4.3-2.672-4.794 2.767c-.23520866.125628-.52761522.0445694-.66457305-.1842276-.13695782-.228797-.07026696-.5248112.15157305-.6727724l4.978-3.091-5.465 3.155c-.23497088.1292146-.53003872.050062-.66879247-.179405-.13875376-.2294671-.07178369-.5275361.15179247-.675595l11.469-7.256-12.059 6.961c-.23693016.1422133-.54428665.0654301-.68649996-.1715-.14221332-.2369302-.06543017-.5442867.17149996-.6865l7.69-4.791-8.11 4.682c-.23560872.1297647-.5316571.04988-.67000668-.1807924-.13834959-.2306723-.06941665-.5294607.15600668-.6762076l8.066-5.026-8.343 4.817c-.23693016.1419372-.54406281.0649301-.68599999-.172-.14193717-.2369302-.06493016-.5440628.17199999-.686l7.993-4.974-8.24 4.754c-.23497088.1292146-.53003872.050062-.66879247-.179405-.13875376-.2294671-.07178369-.5275361.15179247-.675595l11.994-7.568-12.284 7.093c-.23560872.1297647-.5316571.04988-.67000668-.1807924-.13834959-.2306723-.06941665-.5294607.15600668-.6762076l7.707-4.793-7.769 4.485c-.23497088.1292146-.53003872.050062-.66879247-.179405-.13875376-.2294671-.07178369-.5275361.15179247-.675595l11.7-7.386-11.831 6.836c-.15290967.093425-.34404566.0981768-.50140887.0124656-.15736322-.0857111-.25704646-.2488638-.2615-.428-.00445355-.1791361.0869992-.3470406.23990887-.4404656l16.171-10.481-16.237 9.374c-.23486417.1312813-.53150396.0531604-.67124116-.1767732-.1397372-.2299337-.07245767-.5292187.15224116-.6772268l12.1-7.7-11.944 6.898c-.23436107.1288923-.5286543.0505227-.66787555-.1778537-.13922124-.2283764-.07406124-.5258734.14787555-.6751463l13.2-8.5-12.9 7.449c-.23554944.1441463-.54335364.0700494-.68749995-.1655-.14414631-.2355495-.07004946-.5433537.16549995-.6875l12.1-7.81-11.564 6.675c-.23508655.127347-.52875831.0472199-.66659082-.1818764-.13783251-.2290964-.071048-.5260868.15159082-.6741236l4.805-3.017-4.2 2.424c-.23508655.127347-.52875831.0472199-.66659082-.1818764-.13783251-.2290964-.071048-.5260868.15159082-.6741236l1.985-1.241-1.242.717c-.23308287.1306613-.52770735.0549657-.66894229-.1718661-.14123493-.2268319-.07915925-.5246238.14094229-.6761339l12.436-8.273-11.244 6.491c-.23308287.1306613-.52770735.0549657-.66894229-.1718661-.14123493-.2268319-.07915925-.5246238.14094229-.6761339l11.781-7.835-10 5.771c-.23424781.1308833-.53004345.0535271-.67022619-.1752769-.14018273-.228804-.07476503-.527467.14822619-.6767231l6.709-4.331-4.627 2.665c-.23184122.125947-.52164614.0500755-.66202867-.1733204-.14038253-.223396-.08302436-.5174256.13102867-.6716796l10.971-7.47-.318.183c-.22978.1349572-.525025.0659893-.6712375-.156798s-.0920063-.5210957.1232375-.678202l3.783-2.8-3.237 1.867c-.2302873.1343427-.5254749.0643663-.6709518-.1590541-.1454768-.2234204-.0900639-.5216852.1259518-.6779459l1.036-.756-.491.284c-.2244518.1286386-.5099659.0648202-.6582866-.1471407-.1483207-.211961-.1104625-.5020607.0872866-.6688593l1.514-1.269-.943.543c-.2111163.1217329-.4792426.0735321-.6347434-.1141072s-.1530747-.4600529.0057434-.6448928l1-1.164-.372.215c-.1775379.1026213-.399737.0864357-.5605292-.0408305-.1607922-.1272663-.2275756-.339809-.1684708-.5361695l.241-.807c-.1588943-.0863085-.2588083-.251682-.2612964-.4324867-.0024882-.1808048.0928373-.3488651.2492964-.4395133l.5-.29c.1774071-.1030097.3997353-.0872022.5607836.0398715s.2281358.3396271.1692164.5361285l-.143.474 1.834-1.055c.2111163-.1217329.4792426-.0735321.6347434.1141072s.1530747.4600529-.0057434.6448928l-1 1.165 3.345-1.931c.2240372-.1259992.5071082-.0616068.6545964.1489061s.1113381.4985559-.0835964.6660939l-1.514 1.271 3.626-2.093c.2302873-.1343427.5254749-.0643663.6709518.1590541.1454768.2234204.0900639.5216852-.1259518.6779459l-1.032.753 2.765-1.6c.22978-.1349572.525025-.0659893.6712375.156798s.0920063.5210957-.1232375.678202l-3.783 2.799 4.322-2.495c.2325262-.1307666.5267591-.0559509.6685809.1700024s.0812744.5234503-.1375809.6759976l-10.971 7.477 10.446-6.028c.2347713-.1336383.5332399-.0566316.6740509.1739091.1408109.2305408.0730402.5312411-.1530509.6790909l-6.715 4.335 6.2-3.578c.2340027-.1389988.5362016-.0652981.6799386.1658244s.0762078.5347601-.1519386.6831756l-11.783 7.835 11.256-6.5c.2340027-.1389988.5362016-.0652981.6799386.1658244s.0762078.5347601-.1519386.6831756l-12.434 8.273 12.445-7.185c.2361735-.1361818.537908-.0580681.6783318.1756081.1404239.2336761.0677709.5367718-.1633318.6813919l-1.984 1.24 2.744-1.584c.2361735-.1361818.537908-.0580681.6783318.1756081.1404239.2336761.0677709.5367718-.1633318.6813919l-4.8 3.011 5.654-3.264c.2338963-.1269547.5262491-.04845.6650871.1785941.1388379.227044.0755015.5230536-.1440871.6734059l-12.11 7.816 13.271-7.66c.2343611-.1288923.5286543-.0505227.6678755.1778537.1392213.2283764.0740613.5258734-.1478755.6751463l-13.2 8.5 14.243-8.223c.2361017-.1433179.5436821-.0681017.687.168s.0681017.5436821-.168.687l-12.09 7.69 12.888-7.439c.2342478-.1308833.5300435-.0535271.6702262.1752769s.074765.527467-.1482262.6767231l-16.177 10.486 17.035-9.83c.2349709-.1292146.5300387-.050062.6687925.179405.1387537.2294671.0717837.5275361-.1517925.675595l-11.706 7.383 12.199-7.038c.2356087-.1297647.5316571-.04988.6700067.1807924.1383496.2306723.0694166.5294607-.1560067.6762076l-7.684 4.776 7.863-4.54c.2349709-.1292146.5300387-.050062.6687925.179405.1387537.2294671.0717837.5275361-.1517925.675595l-12 7.572 12.314-7.109c.2356087-.1297647.5316571-.04988.6700067.1807924.1383496.2306723.0694166.5294607-.1560067.6762076l-7.988 4.972 8-4.621c.2356087-.1297647.5316571-.04988.6700067.1807924.1383496.2306723.0694166.5294607-.1560067.6762076l-8.053 5.018 8.061-4.654c.2361735-.1361818.537908-.0580681.6783318.1756081.1404239.2336761.0677709.5367718-.1633318.6813919l-7.708 4.8 7.605-4.391c.1529097-.0925318.3435692-.0964583.5001589-.0103006.1565897.0861578.2553199.2493105.259.428.00368.1786896-.0882492.3457688-.2411589.4383006l-11.457 7.258 11.335-6.544c.2356087-.1297647.5316571-.04988.6700067.1807924.1383496.2306723.0694166.5294607-.1560067.6762076l-4.989 3.1 4.711-2.72c.2356087-.1297647.5316571-.04988.6700067.1807924.1383496.2306723.0694166.5294607-.1560067.6762076l-4.313 2.678 3.905-2.254c.2347713-.1336383.5332399-.0566316.6740509.1739091.1408109.2305408.0730402.5312411-.1530509.6790909l-12.439 8.03 12.014-6.936c.2347034-.1364868.5354374-.0607325.6774741.1706544.1420368.2313868.073465.5338394-.1544741.6813456l-11.526 7.483 10.831-6.254c.2335451-.1328438.5303244-.0573638.6720248.1709163s.0776546.5277351-.1450248.6780837l-12.1 8.066 11.087-6.4c.2341687-.1463554.5426445-.0751687.689.159.1463554.2341687.0751687.5426445-.159.689l-9.974 6.724 8.58-4.953c.2361017-.1433179.5436821-.0681017.687.168.1433178.2361017.0681017.5436821-.168.687l-1.015.647c.1926779-.0261564.3825923.0640922.484.23.1428408.2267327.0815348.5257647-.139.678l-4.985 3.418 2.805-1.619c.2283835-.1299972.5184238-.0610156.6638282.1578813.1454044.2188968.0965443.5129964-.1118282.6731187l-3.687 2.794c.1858209.0628308.317738.2285132.3373416.423687.0196035.1951738-.0767281.3837819-.2463416.482313l-5.425 3.132c-.2283835.1299972-.5184238.0610156-.6638282-.1578813-.1454044-.2188968-.0965443-.5129964.1118282-.6731187l2.6-1.974-7.014 4.051c-.23171.1276221-.5227312.0526794-.6639792-.1709853s-.08384-.5186462.1309792-.6730147l4.981-3.418-7.548 4.357c-.0750306.0437329-.1601583.0671689-.247.068z" fill="#d8dde5"/><path id="Path" d="m22.335 12.471c-.2022515.000362-.3848019-.1211573-.4625134-.3078837-.0777114-.1867264-.0352767-.4018795.1075134-.5451163l1.269-1.274-3.568 2.056c-.2166955.1249531-.4923876.0705435-.6453641-.1273666-.1529764-.19791-.1361605-.4784164.0393641-.6566334l1.284-1.3-3.609 2.084c-.2112567.1203598-.4784718.0713026-.6332004-.1162472s-.152112-.4592181.0062004-.6437528l1.465-1.685-3.949 2.28c-.2237424.1292278-.5090949.0666972-.6582921-.1442547-.1491972-.2109518-.1130922-.5008356.0832921-.6687453l.259-.22-.634.365c-.1903698.1103241-.4304867.0832351-.5914918-.0667297-.1610051-.1499647-.2050541-.387556-.1085082-.5852703l.793-1.615-.209.12c-.2374252.12420086-.5305531.03916186-.6646466-.19281988-.1340935-.23198173-.0614797-.52843213.1646466-.67218012l1.627-.94c.1905701-.11084399.4312487-.08379161.5924567.06659238.1612079.150384.2048962.38860526.1075433.58640762l-.792 1.623 3.965-2.291c.2236156-.12710114.5071788-.06381246.6555296.14630811.1483508.21012056.1130835.49851231-.0815296.66669189l-.258.22 1.791-1.033c.2112567-.12035979.4784718-.07130265.6332004.11624717s.152112.45921811-.0062004.64375283l-1.465 1.685 4.235-2.445c.2166955-.12495309.4923876-.07054354.6453641.12736655.1529764.1979101.1361605.47841644-.0393641.65663345l-1.283 1.297 3.608-2.081c.2164748-.11764339.486383-.06006017.6359981.13568619.149615.19574636.134338.47130559-.0359981.64931381l-1.263 1.271 3.2-1.846c.2159307-.12313412.4895276-.06894621.642223.12719707s.1381159.47467342-.034223.65380293l-1.117 1.148 1.5-.864c.2026343-.11613156.4586712-.07651157.6167274.09543442.1580562.171946.176021.43040666.0432726.62256558l-.6.861c.2417131-.0612351.4915976.0649789.5857642.2958633s.0038289.4958587-.2117642.6211367l-1.788 1.029c-.2024537.1163469-.4584788.0770739-.6167505-.0946066-.1582717-.1716804-.1766405-.4300481-.0442495-.6223934l.573-.825-2.672 1.542c-.2160105.1246636-.4908577.0710795-.6442199-.1255968s-.1383361-.4762947.0352199-.6554032l1.117-1.149-3.345 1.93c-.0754237.0457373-.1617951.0702668-.25.071z" fill="#bbc1ce"/><path id="Path" d="m19.172 55.364c-.2204385.0002701-.4150451-.143855-.4790634-.354793s.0176583-.4389133.2010634-.561207l4.527-3.028-5.99 3.458c-.234721.145527-.542973.073221-.6885-.1615s-.073221-.542973.1615-.6885l6.111-4.051-7.469 4.311c-.2335451.1328438-.5303244.0573638-.6720248-.1709163s-.0776546-.5277351.1450248-.6780837l8.822-5.887-10.228 5.9c-.2318329.108364-.5080663.024188-.6400706-.1950473-.1320043-.2192352-.0771648-.5027544.1270706-.6569527l.418-.262-.842.485c-.2348642.1312813-.531504.0531604-.6712412-.1767732-.1397372-.2299337-.0724576-.5292187.1522412-.6772268l4.453-2.829-5.063 2.923c-.2340569.1357068-.5336008.0606207-.6759704-.1694442s-.0759129-.5316408.1499704-.6805558l11.668-7.738-12.6 7.273c-.23470287.1405531-.53878699.0663884-.6824238-.1664401-.14363681-.2328284-.07348967-.5378644.1574238-.6845599l11.7-7.693-12.45 7.188c-.15273104.0927104-.34332076.0968973-.49997586.0109836-.1566551-.0859138-.25557594-.2488758-.2595-.4275s.08774482-.3457732.24047586-.4384836l7.5-4.779-7.772 4.487c-.23389628.1269547-.52624912.04845-.66508708-.1785941-.13883795-.227044-.07550148-.5230536.14408708-.6734059l9.433-6.075-9.746 5.627c-.23560872.1297647-.5316571.04988-.67000668-.1807924-.13834959-.2306723-.06941665-.5294607.15600668-.6762076l.6-.376-.509.288c-.23637787.1427656-.54373437.0668778-.68649997-.1695-.1427656-.2363779-.06687788-.5437344.16949997-.6865l2.292-1.444-2.225 1.284c-.23377341.1287456-.52745054.051198-.66718798-.1761759-.13973743-.2273739-.07626999-.5244122.14418798-.6748241l5.749-3.759-5.642 3.261c-.23229375.1351768-.52989283.0625367-.67378421-.164462-.14389139-.2269988-.08259275-.5271392.13878421-.679538l8.807-6.083-8.7 5.021c-.2328603.1351428-.53091891.0616362-.67424226-.1662803-.14332335-.2279164-.08044309-.5283964.14224226-.6797197l6.506-4.432-6.095 3.519c-.23055066.1302945-.52270695.0582293-.66621925-.1643342-.14351231-.2225634-.08860007-.5184238.12521925-.6746658l6.139-4.392-5.56 3.21c-.22695866.1282325-.51435386.0605795-.66027781-.1554298s-.1014061-.5078844.10227781-.6705702l2.721-2.123-1.9 1.1c-.2187434.1297091-.50000209.0745628-.6535686-.128145s-.13051364-.4883932.0535686-.663855l2.648-2.578-1.251.722c-.21049878.1219393-.47821234.0746814-.63423942-.1119586s-.15508182-.458491.00223942-.6440414l1.446-1.709c-.17313189-.0749109-.2893646-.2408871-.30056601-.4291975-.01120141-.1883105.08453553-.3668954.24756601-.4618025l1.652-.954c.21023221-.1207224.4767777-.0732389.63238783.1126561.15561014.1858951.15544667.4566369-.00038783.6423439l-1.062 1.256 2.262-1.3c.2187434-.1297091.5000021-.0745628.6535686.128145s.1305136.4883932-.0535686.663855l-2.651 2.57 4.6-2.655c.2269587-.1282325.5143539-.0605795.6602778.1554298.145924.2160093.1014061.5078844-.1022778.6705702l-2.723 2.128 8.264-4.771c.2305507-.1302945.5227069-.0582293.6662193.1643342.1435123.2225634.0886.5184238-.1252193.6746658l-6.137 4.39 8.843-5.106c.2325262-.1307666.5267591-.0559509.6685809.1700024s.0812744.5234503-.1375809.6759976l-6.504 4.428 7.757-4.479c.2319831-.1309881.5259285-.0570795.6683699.1680527.1424414.2251321.0833463.52241-.1343699.6759473l-8.8 6.082 10.562-6.1c.2347034-.1364868.5354374-.0607325.6774741.1706544.1420368.2313868.073465.5338394-.1544741.6813456l-5.761 3.761 8.357-4.825c.2363779-.1427656.5437344-.0668779.6865.1695s.0668779.5437344-.1695.6865l-2.281 1.44 5.524-3.188c.2356087-.1297647.5316571-.04988.6700067.1807924.1383496.2306723.0694166.5294607-.1560067.6762076l-.6.373.84-.484c.2335877-.1237383.5231326-.0442789.6608429.1813541s.0760007.5194731-.1408429.6706459l-9.438 6.078 9.616-5.55c.234481-.1270728.5274228-.0477401.6657366.1802909.1383139.2280309.0733058.5244809-.1477366.6737091l-7.5 4.782 7.6-4.386c.2336556-.130691.5287926-.0541466.6694787.1736308.140686.2277774.0769932.5259521-.1444787.6763692l-11.695 7.691 11.7-6.753c.233204-.1287421.5263939-.0520483.6666872.1743946.1402933.226443.0784231.5231151-.1406872.6746054l-11.669 7.742 11.516-6.65c.2361017-.1433179.5436821-.0681017.687.168s.0681017.5436821-.168.687l-4.456 2.831 4.065-2.347c.236654-.1424895.5440105-.066154.6865.1705s.066154.5440105-.1705.6865l-.448.281c.2364557-.1094064.517293-.0189015.645373.207983s.0604686.5140942-.155373.660017l-8.824 5.89 8.1-4.677c.2337259-.1351461.5325293-.0603345.675.169.1430435.2296546.0774591.5314311-.148.681l-6.11 4.05 5.127-2.96c.2344449-.1460793.5429207-.0744448.689.16.1460793.2344449.0744449.5429207-.16.689l-4.532 3.031 3.329-1.922c.229416-.1334891.5231565-.0644561.6690977.1572468.1459412.221703.0932171.5188044-.1200977.6767532l-5.8 4.318 3.313-1.912c.2288588-.1292299.518701-.0592157.6633326.1602346.1446317.2194502.0946742.513414-.1143326.6727654l-2.482 1.85c.0465955.0373162.0864988.0822919.118.133.1380647.2391402.0561341.5449248-.183.683l-4.571 2.639c-.2288588.1292299-.518701.0592157-.6633326-.1602346-.1446317-.2194502-.0946742-.513414.1143326-.6727654l.229-.172-3.326 1.922c-.229416.1334891-.5231565.0644561-.6690977-.1572468-.1459412-.221703-.0932171-.5188044.1200977-.6767532l5.8-4.318-9.029 5.213c-.0761907.0431073-.162468.0651943-.25.064z" fill="#21b8ea"/><path id="Path" d="m19.389 41.393c-.1988826.0001568-.378948-.1175718-.4585728-.2998194-.0796249-.1822476-.0436675-.3943575.0915728-.5401806l.3-.319-1.406.812c-.216157.1232114-.4900183.0687436-.6425795-.1278015-.1525612-.196545-.1373975-.4753583.0355795-.6541985l1.373-1.405-1.912 1.1c-.2151117.1243892-.4889299.0719324-.6428382-.1231521s-.1411987-.4735922.0298382-.6538479l1.502-1.582-1.371.791c-.2130757.122757-.4837819.0723545-.6383991-.1188629-.1546171-.1912173-.1472392-.4664769.0173991-.6491371l.842-.933c-.1107226-.0393019-.2036817-.1170043-.262-.219-.1380647-.2391402-.0561341-.5449248.183-.683l1.937-1.118c.2127921-.1213918.482198-.0707276.6363549.1196723.1541568.1903998.1476562.4644512-.0153549.6473277l-.453.5 1.628-.937c.2150358-.1228992.4876397-.0698481.6408929.1247234.1532532.1945714.1409636.4720174-.0288929.6522766l-1.506 1.582 2.059-1.188c.2162377-.1247517.4913592-.0708905.6445905.1261931.1532312.1970836.1376138.4769924-.0365905.6558069l-1.372 1.4 1.127-.65c.2139383-.1227586.4854345-.0711644.6394281.1215147.1539936.1926792.1444708.4688702-.0224281.6504853l-.782.842c.1703063.0777752.2828913.2441789.2917367.4311949.0088453.1870159-.0875314.363303-.2497367.4568051l-1.929 1.114c-.0751213.0467911-.161513.072363-.25.074z" fill="#00a5dc"/><path id="Path" d="m23.4 49.309c-.1781921-.0000575-.3428873-.0949443-.4323142-.2490717s-.0900691-.3442001-.0016858-.4989283l.94-1.648-1.526.881c-.2075237.1196981-.4707878.075377-.6276801-.1056714-.1568924-.1810484-.1633179-.4479398-.0153199-.6363286l.463-.586c-.1292966-.0331982-.2394519-.1177108-.305-.234-.1375532-.2386555-.0561721-.5436114.182-.682l1.637-.945c.2076737-.1197997.4711534-.075327.628.106.157165.1812409.1634598.4485623.015.637l-.219.277.868-.5c.1943898-.1138479.4411799-.0817652.6.078.1594453.1585786.193408.4040916.083.6l-.941 1.647.871-.5c.1549945-.0985297.351531-.1041539.5119064-.0146489.1603754.0895049.2587712.2597296.2562855.4433739s-.1054527.3511436-.2681919.436275l-2.471 1.427c-.0752371.0439912-.1608459.0671194-.248.067z" fill="#00a5dc"/><path id="Path" d="m29.048 42.46c-.1857478-.000191-.356081-.1033359-.4423243-.2678485-.0862432-.1645126-.0741806-.3632757.0313243-.5161515l.495-.716-1.3.751c-.2166127.1233895-.4910237.0683675-.6433231-.1289924-.1522993-.1973599-.1359526-.4767549.0383231-.6550076l.09-.092c-.2099698.0849437-.4508149.0181303-.5870154-.1628453s-.1337325-.4309041.0060154-.6091547l.467-.595c-.197666-.0493795-.3456013-.2137566-.3739529-.4155148-.0283517-.2017582.0685514-.4005407.2449529-.5024852l1.636-.95c.2075795-.1209101.4718069-.0771091.6292685.1043141s.1636473.449185.0147315.6376859l-.234.3.89-.514c.2166127-.1233895.4910237-.0683675.6433231.1289924.1522993.1973599.1359526.4767549-.0383231.6550076l-.078.079.025-.014c.2024537-.1163469.4584788-.0770739.6167505.0946066.1582717.1716804.1766405.4300481.0442495.6223934l-.572.825c.1861652-.0092031.3615465.0875856.453.25.1382327.2388784.0567713.5445824-.182.683l-1.624.938c-.0757164.0449383-.1619569.0690856-.25.07z" fill="#00a5dc"/><g fill="#262626"><path id="Shape" d="m.54 42.286c1.95724995 10.1611912 10.9944746 17.4035073 21.338 17.1 9.2144466-.4670223 17.0448002-6.8935923 19.3-15.84 2.46-10.364-3.582-20.2-13.248-23.847-.0263956-.0195742-.0557718-.0347688-.087-.045-.028-.009-.057-.015-.085-.024l-.03-.012v-7.1h.208c.1163315-.0012504.231118-.0267963.337-.075 1.6-.384 3.06-1.772 2.235-3.546-.68-1.463-2.132-1.383-3.477-1.429-.1 0-.2-.009-.305-.013v-2.736c.1397772-.98107252.0455459-1.98129468-.275-2.919-.991-1.768-4.288-1.141-5.924-1.141-1.724 0-4.263-.3-5.073 1.683-.564 1.382-.306 3.352-.21 4.979-.432.047-.862.1-1.277.171-1.645.288-3.26 1.635-2.534 3.481.511 1.3 1.671 1.474 2.841 1.53v7.267c-9.139 3.421-15.455 12.536-13.734 22.516zm25.734-23.069c-.6-.149-1.21-.276-1.827-.373-.3650766-.0614712-.7388365.0389038-1.024.275-.191.2-.2.432.13.484.9772239.1534586 1.9420729.3773757 2.887.67.0348976.0224117.0725419.0402255.112.053h.009c8.5740817 2.8518057 14.1745182 11.0942978 13.668 20.116-.659 9.758-8.804 18.058-18.762 18.081-9.178.018-17.451-7.027-19.339-15.966-2.045-9.685 3.9-18.944 12.956-22.231.1696737-.0337696.3296043-.1051917.468-.209.0198133-.0145947.0379266-.0313663.054-.05.0235529-.0201024.0449969-.0425516.064-.067.0107178-.0133826.0200961-.027785.028-.043.7116813-.1997424 1.4341915-.358668 2.164-.476.151-.024.851-.174.852-.387 0-.24-.425-.147-.576-.124-.8128242.1337978-1.6179605.3107141-2.412.53v-6.955c3.508.1 7.035.019 10.548-.009zm-9.55-12.947v-2.283c0-1.475.31-2.646 1.987-2.646 1.5013079-.07849987 3.0056921-.07849987 4.507 0 1.851.2 2.058 1.494 2.058 3.034v3.025c-2.8562434-.21587712-5.7218024-.28263446-8.585-.2.03-.4.033-.875.033-.93zm-3.367 2.964c.6162454-.55737134 1.4123092-.87466111 2.243-.894h2.87c1.076.074 2.092.184 2.814.184h4.716c.511216-.06050501 1.027784-.06050501 1.539 0 1.17.325 3.082 2.338.457 2.95h-11.996c-1.25.001-4.523-.137-2.643-2.24z"/><path id="Shape" d="m13.348 30.489c-2.011-.516-3.687-2.121-5.736-.86-3.159 1.946-3.612 8.339-3.218 11.539 1.20068384 8.5364233 8.7398381 14.7304641 17.347 14.252 7.1136803-.3895725 13.2309322-5.1709829 15.327-11.98 1.242-4.281.566-17.125-6.328-13.513-.012.006-.025.007-.037.013-3.5 1.75-6.018-1.265-9.421-1.388-.0336358.0015568-.0670842.0059051-.1.013-.03 0-.05-.009-.083-.008-2.853.087-4.875 2.171-7.751 1.932zm17.95.13c.0326238-.0190075.0640192-.040049.094-.063.0230752-.0067917.0457738-.0148029.068-.024 3.249-1.823 4.562 5.227 4.741 7.112.2823861 3.0306167-.3151524 6.0783756-1.721 8.778-3.2163288 6.0894165-10.1317659 9.2473566-16.84 7.69-5.351724-1.3544114-9.61112758-5.399329-11.24-10.674-.8561571-2.8968749-.88006797-5.9761791-.069-8.886 1.014-3.585 3.124-3.935 6.234-3.19.0243094.0015276.0486906.0015276.073 0 .0294467.0094357.059521.0167872.09.022 1.3770878.1757338 2.7762418-.0029036 4.065-.519 1.406-.608 2.417-1.327 4-1.413 2.083.1 3.423 1.409 5.381 1.835 1.7349246.3664636 3.5429346.1308509 5.126-.668z"/><path id="Shape" d="m19.054 34.432c-2.0224699.0068788-3.6869407 1.5931972-3.791 3.613.025794 1.9600613 1.6288109 3.5318128 3.589 3.519 2.0542441.0360063 3.7698003-1.5576726 3.885-3.609-.0201914-.9559142-.419822-1.8645305-1.1107475-2.5254402s-1.6163841-1.0198171-2.5722525-.9975598zm-.139 5.99c-1.237274-.1685321-2.164134-1.2183777-2.178-2.467-.0540318-1.2332637.8836689-2.2853506 2.115-2.373 1.3358473.0376737 2.4018355 1.1266529 2.411 2.463.0294031.6338945-.2075202 1.25122-.6534708 1.7026786-.4459507.4514586-1.0603215.6959415-1.6945292.6743214z"/><path id="Shape" d="m21.265 47.05c-.057 3.393 5.3 3.133 5.47-.1-.0165293-.6887005-.3095021-1.3417775-.8129-1.812067s-1.1748674-.7182236-1.8631-.687933c-1.4692355-.0006045-2.6890547 1.1345172-2.794 2.6zm2.583-1.491c.7923831.0439045 1.4134538.6974095 1.417 1.491-.037.687-.433 1.458-1.237 1.393-.7377295-.1151979-1.2843598-.7463805-1.293-1.493-.0595913-.6863703.4302732-1.2985909 1.113-1.391z"/><path id="Shape" d="m31.73 39.93c0-.029-.014-.047-.017-.073s.012-.033.011-.051c-.175-3.263-5.467-2.791-5.451.326.017 3.3 5.291 2.883 5.457-.202zm-2.651-1.41c.704902.2132519 1.1865279.8635485 1.185 1.6-.053.669-.423 1.471-1.218 1.385-.7780793-.1549021-1.330569-.8490015-1.307-1.642.005-.725.525-1.531 1.34-1.343z"/><path id="Path" d="m10.7 34.106c.116-.293-1.278-.151-1.433.241-1.61599263 3.9066845-1.1432229 8.3660022 1.256 11.847.254.376 1.589-.181 1.449-.388-2.39524212-3.4264849-2.87494437-7.8388405-1.272-11.7z"/><path id="Path" d="m14.684 48.51c-.216-.154-.709.022-.928.1-.08.029-.632.244-.441.38.12.0853333.2403333.1686667.361.25.223.151.705-.02.929-.1.076-.027.635-.248.44-.38-.1206667-.082-.241-.1653333-.361-.25z"/></g></g></svg>