<svg height="507pt" viewBox="0 -3 507.63916 507" width="507pt" xmlns="http://www.w3.org/2000/svg"><path d="m240.09375 502.292969c-1.867188 0-3.519531-1.21875-4.074219-3.003907-.550781-1.78125.121094-3.71875 1.660157-4.777343l63.460937-43.519531-83.746094 48.347656c-1.996093 1.25-4.628906.640625-5.878906-1.355469-1.25-2-.640625-4.632813 1.355469-5.878906l65.265625-43.871094-81.265625 46.933594c-2 1.082031-4.5.40625-5.679688-1.539063-1.179687-1.945312-.625-4.476562 1.261719-5.75l18.457031-11.765625-26.890625 15.503907c-2.007812 1.179687-4.589843.527343-5.800781-1.460938s-.601562-4.582031 1.363281-5.824219l27.007813-17.246093-34.984375 20.214843c-1.984375 1.113281-4.496094.476563-5.707031-1.453125-1.207032-1.925781-.691407-4.464844 1.175781-5.765625l89.003906-60.230469-103.453125 59.734376c-2.003906 1.101562-4.519531.425781-5.707031-1.53125-1.183594-1.957032-.609375-4.5 1.296875-5.765626l18.925781-11.945312-24.589844 14.207031c-1.988281 1.101563-4.484375.453125-5.6875-1.472656s-.6875-4.453125 1.171875-5.753906l96.75-65.203125-109.113281 62.957031c-2.003906 1.164063-4.570313.519531-5.78125-1.457031-1.214844-1.972656-.628906-4.554688 1.316406-5.8125l69.871094-45.390625-77.304687 44.632812c-2.015626 1.160157-4.589844.492188-5.789063-1.5-1.195313-1.996093-.578125-4.582031 1.394531-5.816406l8.851563-5.535156-12.664063 7.304687c-1.996094 1.113282-4.511718.460938-5.714844-1.484375-1.199218-1.941406-.65625-4.488281 1.234376-5.769531l87.59375-57.675781-94.832032 54.773437c-2 1.164063-4.566406.519532-5.78125-1.457031-1.210937-1.972656-.625-4.554687 1.320313-5.8125l81.332031-53.15625-87.894531 50.730469c-2.003907 1.070312-4.492188.386718-5.664063-1.558594-1.171875-1.941406-.617187-4.464844 1.261719-5.734375l24.507813-15.429687-26.726563 15.4375c-2.011719 1.230468-4.636719.597656-5.867187-1.414063-1.230469-2.007813-.597657-4.636719 1.410156-5.867187l69.191406-44.722657-73.132812 42.214844c-1.988282 1.117187-4.503907.46875-5.707032-1.464844-1.207031-1.9375-.675781-4.476562 1.203125-5.769531l102.398438-68.710938-109.03125 62.964844c-1.992188 1.136719-4.523438.492188-5.734375-1.457031-1.207032-1.949219-.660156-4.503906 1.238281-5.785156l94.242187-62.609375-98.011718 56.585937c-2 1.113281-4.523438.453125-5.722656-1.496093-1.195313-1.953126-.636719-4.503907 1.265624-5.777344l72.6875-47.273438-75.179687 43.402344c-1.988281 1.097656-4.492187.441406-5.6875-1.488281-1.195313-1.933594-.667969-4.464844 1.199219-5.757813l95.199218-62.832031-97.988281 56.566406c-2.003906 1.105469-4.523437.429688-5.707031-1.527343-1.183594-1.960938-.613281-4.503907 1.296875-5.765626l38.398437-24.234374-38.042968 21.996093c-2.003906 1.074219-4.5.382813-5.667969-1.570312-1.171875-1.953125-.601563-4.480469 1.292969-5.742188l3.941406-2.449219-2.96875 1.707032c-2.003906 1.121094-4.535156.453125-5.730469-1.507813-1.191406-1.960937-.617187-4.515625 1.300781-5.777343l70.910157-45.355469-71.320313 41.128906c-2.003906 1.140625-4.550781.484375-5.75-1.484375-1.203125-1.964844-.625-4.53125 1.304688-5.792969l82.464844-52.976562-81.484376 47.027343c-2 1.101563-4.511718.433594-5.699218-1.515624-1.1875-1.949219-.632813-4.488282 1.261718-5.761719l88.609376-57.03125-87.523438 50.554687c-2.015625 1.160156-4.589844.496094-5.789062-1.5-1.199219-1.992187-.578126-4.582031 1.394531-5.8125l33.464843-20.917968-31.570312 18.210937c-2.003906 1.140625-4.550781.484375-5.753906-1.484375s-.621094-4.53125 1.304687-5.792969l94.507813-60.820312-91.597656 52.898437c-2.007813 1.128906-4.550782.453125-5.738282-1.519531s-.597656-4.53125 1.335938-5.785156l58.453125-36.835938-55.039063 31.777344c-1.304687.789063-2.933594.820313-4.273437.085937-1.335938-.738281-2.179688-2.128906-2.207031-3.65625-.03125-1.527343.753906-2.953124 2.058593-3.742187l40.714844-25.464844-37.207031 21.46875c-1.980469.917969-4.332032.191407-5.449219-1.675781-1.121094-1.871094-.652344-4.289062 1.089844-5.601562l36.691406-22.921876-32 18.476563c-2.003906 1.121094-4.535156.453125-5.726563-1.507813-1.191406-1.964843-.617187-4.515624 1.300782-5.78125l78.933594-50.242187-73.523438 42.460937c-2.003906 1.164063-4.570312.519532-5.78125-1.457031-1.214844-1.972656-.628906-4.554687 1.316406-5.8125l109.125-70.886719-102.101562 58.949219c-2.011719 1.226563-4.640625.589844-5.867188-1.421875-1.226562-2.011718-.589844-4.640625 1.421875-5.867187l91.492188-58.769531-83.402344 48.144531c-1.996094 1.070312-4.480469.394531-5.660156-1.542969-1.175781-1.933594-.636719-4.453125 1.230469-5.734375l85.144531-54.613281-74.972657 43.289062c-2.015624 1.164063-4.589843.496094-5.789062-1.5-1.199219-1.992187-.578125-4.578125 1.394531-5.8125l40.480469-25.4375-30.914062 17.851563c-2.011719 1.125-4.550782.453125-5.742188-1.519531-1.1875-1.972657-.597656-4.535157 1.339844-5.785157l24.90625-15.582031-13.15625 7.585938c-1.988282 1.085937-4.476563.429687-5.667969-1.492188-1.195313-1.921875-.683594-4.441406 1.167969-5.746094l95.421875-63.699218-74.871094 43.222656c-2 1.117187-4.523437.457031-5.71875-1.496094-1.199219-1.953125-.640625-4.503906 1.261719-5.777344l25.730468-16.671875-6.1875 3.566407c-1.957031 1.113281-4.4375.515624-5.675781-1.367188-1.234375-1.878906-.796875-4.394531 1-5.75l41.8125-31.136719c-1.703125-.398437-2.992187-1.800781-3.25-3.53125-.253906-1.734375.574219-3.445312 2.089844-4.320312l52.078125-30.089844c1.957031-1.136719 4.464844-.550781 5.710938 1.34375 1.246093 1.890625.796874 4.425781-1.023438 5.773437l-33.855469 25.226563 86.417969-49.886719c2.003906-1.140625 4.550781-.484375 5.753906 1.484375 1.199219 1.964844.621094 4.53125-1.308594 5.792969l-25.734374 16.734375 45.226562-26.121094c1.996094-1.183593 4.574219-.554687 5.800781 1.417969 1.226563 1.96875.652344 4.5625-1.296875 5.828125l-95.417968 63.640625 107.1875-61.832031c2.003906-1.085938 4.511718-.402344 5.6875 1.550781 1.175781 1.957031.605468 4.492188-1.292969 5.753906l-24.746094 15.515625 20.351563-11.8125c2.003906-1.085937 4.511718-.402343 5.6875 1.550781 1.175781 1.957032.605468 4.492188-1.292969 5.753907l-40.335938 25.351562 35.941407-20.75c2.003906-1.121093 4.535156-.457031 5.726562 1.507813 1.191406 1.960937.617188 4.515625-1.296875 5.777344l-85.273437 54.691406 80.851562-46.679688c2.007812-1.175781 4.589844-.523437 5.800781 1.464844 1.210938 1.988281.605469 4.578125-1.363281 5.824219l-91.453125 58.742187 87.042969-50.234375c1.992187-1.070312 4.46875-.398437 5.652344 1.527344 1.183593 1.929687.65625 4.441406-1.199219 5.734375l-109.140625 70.902344 104.6875-60.433594c2.007812-1.144531 4.566406-.484375 5.765625 1.496094 1.199219 1.976562.601562 4.550781-1.347657 5.800781l-79 50.253906 74.589844-43.058593c2.007813-1.109376 4.535156-.425782 5.714844 1.542968 1.183594 1.96875.59375 4.515625-1.328125 5.769532l-36.753906 22.945312 32.367187-18.679688c2-1.054687 4.480469-.363281 5.648438 1.578126 1.164062 1.941406.609375 4.457031-1.261719 5.726562l-40.707031 25.445312 36.3125-20.957031c2-1.070312 4.488281-.382812 5.664062 1.558594 1.171875 1.945313.617188 4.464844-1.261718 5.738281l-58.378907 36.796875 53.964844-31.15625c2.011719-1.175781 4.59375-.527343 5.804687 1.460938 1.210938 1.988281.601563 4.582031-1.367187 5.828125l-94.421875 60.765625 90.003906-51.960938c2-1.054687 4.480469-.363281 5.648438 1.578125 1.164062 1.941406.609375 4.453125-1.261719 5.726563l-33.488281 20.921875 29.101562-16.785156c2-1.097657 4.511719-.429688 5.699219 1.519531s.628906 4.488281-1.261719 5.761719l-88.695312 57.085937 84.265625-48.636719c2-1.101562 4.511719-.433594 5.699219 1.515625s.632812 4.488281-1.261719 5.761719l-82.476563 52.964844 78.039063-45.046875c1.996093-1.066407 4.480469-.390625 5.660156 1.542969 1.175781 1.9375.636719 4.453124-1.230469 5.738281l-70.929687 45.371093 66.507812-38.402343c2.007813-1.070313 4.503907-.378907 5.671875 1.574219 1.167969 1.953124.597656 4.476562-1.292968 5.742187l-4.140626 2.558594c2.035157-.992188 4.488282-.226563 5.59375 1.75 1.105469 1.972656.480469 4.464843-1.429687 5.683593l-38.398437 24.234376 34.003906-19.628907c1.996094-1.113281 4.511718-.460937 5.714844 1.484375 1.199218 1.941406.65625 4.488282-1.234376 5.769532l-95.179687 62.855468 90.734375-52.375c2-1.117187 4.523438-.457031 5.71875 1.496094 1.195312 1.949219.636719 4.5-1.265625 5.773438l-72.644531 47.25 76.382812-44.101563c1.988282-1.085937 4.472656-.429687 5.667969 1.492187 1.195313 1.921876.679687 4.441407-1.171875 5.746094l-94.207031 62.589844 101.164062-58.402344c1.984375-1.097656 4.484375-.453125 5.683594 1.472656 1.203125 1.925782.6875 4.453126-1.171875 5.753907l-102.484375 68.738281 110.277344-63.667969c2.003906-1.140625 4.550781-.484375 5.75 1.484375 1.203125 1.96875.625 4.53125-1.304688 5.792969l-69.207031 44.742187 74.046875-42.753906c2.015625-1.214844 4.636719-.570312 5.855469 1.449219 1.21875 2.015625.570312 4.640625-1.445313 5.855469l-24.34375 15.320312 26.988281-15.582031c2.003907-1.164063 4.570313-.519531 5.78125 1.453125 1.214844 1.976562.628907 4.558594-1.316406 5.816406l-81.359375 53.179688 87.09375-50.277344c1.992188-1.117188 4.511719-.464844 5.710938 1.480469 1.203125 1.945312.65625 4.488281-1.230469 5.769531l-87.65625 57.730469 93.945312-54.238281c2.015626-1.164063 4.589844-.496094 5.789063 1.5 1.195313 1.992187.578125 4.578124-1.394531 5.8125l-8.746094 5.46875 10.871094-6.269532c2-1.164062 4.566406-.519531 5.78125 1.457032 1.210937 1.972656.625 4.554687-1.320313 5.8125l-69.828125 45.363281 74.828125-43.195313c1.988281-1.101562 4.484375-.453125 5.6875 1.472656 1.203125 1.925782.6875 4.453126-1.171875 5.753907l-96.769531 65.222656 104.433594-60.296875c2.015625-1.21875 4.636719-.570312 5.855469 1.445312 1.21875 2.015626.570312 4.640626-1.445313 5.859376l-18.773437 11.859374 21.28125-12.277343c1.988281-1.132813 4.515624-.496094 5.730468 1.441406 1.214844 1.941406.679688 4.492187-1.207031 5.785156l-89.078125 60.210938 96.375-55.628907c2.003906-1.121093 4.535156-.453124 5.726562 1.507813 1.191407 1.960937.617188 4.515625-1.296874 5.78125l-27 17.226563 29.867187-17.238282c2.011719-1.222656 4.636719-.578125 5.859375 1.433594 1.222656 2.015625.582031 4.640625-1.433594 5.863281l-18.609375 11.851563 21.144531-12.191406c1.984376-1.101563 4.484376-.453126 5.6875 1.472656 1.203126 1.921875.6875 4.453125-1.171874 5.753906l-65.1875 43.820312 70.828124-40.902343c1.984376-1.132813 4.507813-.503907 5.726563 1.429687 1.21875 1.929688.699219 4.480469-1.179687 5.78125l-63.425782 43.519532 69.484375-40.105469c1.96875-1.128907 4.472657-.523438 5.707031 1.378906 1.230469 1.902344.761719 4.4375-1.074218 5.773437l-62.941406 45.457032 70.324218-40.613282c1.980469-1.152343 4.523438-.53125 5.75 1.40625 1.226563 1.9375.703125 4.496094-1.183594 5.796876l-26.855468 18.527343 30.457031-17.578125c1.984375-1.210937 4.570313-.605468 5.816406 1.355469 1.246094 1.960937.695313 4.5625-1.242187 5.84375l-14.363282 9.941406c1.742188.34375 3.089844 1.734375 3.382813 3.484375.289063 1.753906-.53125 3.5-2.070313 4.394532l-76.363281 44.089843c-1.976562 1.105469-4.472656.472657-5.683593-1.4375-1.214844-1.910156-.722657-4.4375 1.117187-5.753906l3.859375-2.671875-32.429688 18.722656c-1.976562 1.117188-4.484374.484375-5.703124-1.433594-1.214844-1.921874-.710938-4.460937 1.148437-5.769531l26.835937-18.578125-51.148437 29.527344c-1.964844 1.128906-4.472656.519531-5.703125-1.382812-1.234375-1.902344-.761719-4.4375 1.070312-5.769532l62.949219-45.449218-92.261719 53.292968c-.648437.375-1.382812.574219-2.132812.570313zm0 0" fill="#46ceac"/><path d="m426.964844 428.683594c-1.714844-.003906-3.257813-1.03125-3.925782-2.613282-.664062-1.578124-.316406-3.402343.878907-4.628906l4.453125-4.558594-6.652344 3.839844c-1.886719 1.167969-4.351562.695313-5.671875-1.085937-1.320313-1.777344-1.058594-4.273438.601563-5.742188l26.238281-24.855469-33.492188 19.328126c-1.953125 1.117187-4.4375.527343-5.679687-1.347657-1.242188-1.875-.8125-4.390625.976562-5.753906l17.402344-13.070313-20.839844 12.03125c-1.96875 1.140626-4.488281.535157-5.722656-1.375-1.238281-1.914062-.753906-4.460937 1.097656-5.785156l17.921875-12.859375-21.121093 12.183594c-1.960938 1.136719-4.46875.539063-5.707032-1.359375-1.238281-1.898438-.78125-4.433594 1.046875-5.773438l38.742188-28.40625-44.144531 25.488282c-1.957032 1.140625-4.464844.550781-5.707032-1.34375-1.246094-1.890625-.796875-4.425782 1.023438-5.773438l57.566406-42.863281-65.203125 37.640625c-1.96875 1.097656-4.449219.472656-5.667969-1.421875-1.214844-1.898437-.75-4.414063 1.066406-5.746094l56.808594-40.34375-63.234375 36.496094c-1.992187 1.097656-4.5.4375-5.691406-1.503906-1.191406-1.941407-.652344-4.476563 1.230469-5.757813l6.289062-4.085937-8.355468 4.820312c-2.003907 1.140625-4.550782.480469-5.75-1.484375-1.203126-1.96875-.625-4.535156 1.304687-5.796875l6.289063-4.058593-8.363282 4.820312c-1.972656 1.105469-4.464844.484375-5.683594-1.421875s-.738281-4.429687 1.09375-5.753906l51.523438-36.355469-57.34375 33.109375c-1.953125 1.128906-4.449219.539063-5.691406-1.34375-1.246094-1.882813-.808594-4.410156 1-5.761719l49.398437-36.925781-56.269531 32.488281c-1.929688 1.109375-4.386719.550782-5.648438-1.285156-1.257812-1.835938-.894531-4.328125.835938-5.730469l42.257812-34.132812-49.820312 28.765625c-1.914062 1.101562-4.359375.558594-5.625-1.257813-1.265625-1.8125-.933594-4.292969.761719-5.714843l29.140625-24.308594-35.179688 20.367187c-1.960937 1.152344-4.480468.5625-5.730468-1.339843-1.246094-1.898438-.785157-4.445313 1.054687-5.785157l.578125-.417969-2.242188 1.28125c-1.886718 1.125-4.316406.640626-5.621093-1.125-1.308594-1.765624-1.0625-4.230468.566406-5.703124l14.507813-13.601563-18.902344 10.914063c-1.84375 1.0625-4.191406.605468-5.5-1.078126-1.308594-1.679687-1.171875-4.070312.3125-5.59375l6.980468-7.152343-9.898437 5.707031c-1.472656.851562-3.3125.746094-4.679687-.265625-1.363282-1.015625-1.996094-2.746094-1.609376-4.402344l2.695313-11.527343-7.996094 4.609374c-.984375.582032-2.167969.734376-3.265625.417969-1.09375-.316406-2.015625-1.050781-2.5625-2.050781l-3.234375-5.859375c-1.835937.414063-3.730469-.398437-4.691406-2.015625-.566406-.980469-.722656-2.148438-.425781-3.242188.292968-1.097656 1.011718-2.03125 1.996094-2.59375l2.714843-1.5625c.992188-.582031 2.179688-.726562 3.285157-.410156 1.089843.316406 2.011718 1.054688 2.558593 2.050782l3.140625 5.699218 12.800782-7.355468c1.472656-.851563 3.308593-.746094 4.675781.265624 1.367187 1.015626 2 2.746094 1.613281 4.402344l-2.75 11.535156 28.160156-16.210937c1.84375-1.050781 4.179688-.589844 5.480469 1.082031 1.304687 1.675782 1.179687 4.050782-.292969 5.582032l-6.980468 7.160156 23.996093-13.851563c1.886719-1.144531 4.332031-.667969 5.644531 1.105469 1.316407 1.769531 1.0625 4.25-.582031 5.722656l-14.550781 13.558594 35.378906-20.429688c1.960938-1.152343 4.480469-.5625 5.730469 1.339844 1.246094 1.898438.785156 4.445313-1.054687 5.785156l-.570313.425782 13.117187-7.574219c1.914063-1.082031 4.332032-.53125 5.59375 1.273437 1.257813 1.800782.941407 4.261719-.730468 5.6875l-29.132813 24.3125 54.226563-31.308593c1.925781-1.085938 4.363281-.519531 5.613281 1.300781s.90625 4.296875-.796875 5.703125l-42.257812 34.132813 71.304687-41.164063c1.953125-1.125 4.449219-.539063 5.691406 1.34375 1.246094 1.886719.804688 4.410156-1 5.765625l-49.433593 36.949219 76.382812-44.089844c1.972656-1.109375 4.464844-.484375 5.683594 1.417969 1.21875 1.90625.738281 4.429687-1.09375 5.757812l-51.496094 36.332032 74.871094-43.253907c1.996094-1.082031 4.488281-.414062 5.675781 1.523438 1.183594 1.9375.644531 4.464843-1.230469 5.746093l-6.273437 4.054688 1.109375-.640625c2-1.117187 4.523437-.457031 5.71875 1.496094 1.199218 1.953125.640625 4.5-1.261719 5.773437l-6.316406 4.105469 1.144531-.65625c1.96875-1.097656 4.449219-.472656 5.664062 1.421875 1.21875 1.898438.75 4.414062-1.066406 5.746094l-56.824218 40.394531 50.03125-28.859375c1.957031-1.136719 4.464843-.546875 5.710937 1.34375s.796875 4.425781-1.023437 5.773438l-57.535157 42.8125 48.367188-27.921876c1.960937-1.105468 4.445312-.5 5.671875 1.386719 1.230468 1.886719.785156 4.402344-1.019532 5.75l-38.742187 28.40625 27.792969-16.042969c1.96875-1.140624 4.488281-.535156 5.726562 1.375 1.234375 1.914063.75 4.457032-1.101562 5.785157l-17.867188 12.84375 7.679688-4.421875c1.953125-1.117188 4.4375-.53125 5.679687 1.347656 1.242188 1.875.8125 4.390625-.976562 5.75l-17.453125 13.117188 3.695312-2.132813c1.882813-1.144531 4.332032-.667969 5.644532 1.105469 1.3125 1.769531 1.058593 4.25-.582032 5.722656l-26.226562 24.847656 2.289062-1.3125c1.84375-1.054687 4.179688-.589844 5.484375 1.089844 1.300781 1.675781 1.171875 4.054688-.304687 5.582031l-17.238282 17.613281c.765626 1.957032-.015624 4.183594-1.835937 5.238282l-8.0625 4.652344c-.664063.371093-1.414063.558593-2.175781.535156zm0 0" fill="#5e9cea"/><path d="m273.21875 255.757812c-1.894531 0-3.5625-1.25-4.09375-3.066406-.535156-1.820312.195312-3.773437 1.789062-4.792968l34.707032-22.1875-46.078125 26.582031c-1.992188 1.082031-4.484375.417969-5.671875-1.511719-1.191406-1.925781-.664063-4.449219 1.199218-5.742188l75.945313-49.792968-34.199219 19.738281c-1.988281 1.070313-4.464844.40625-5.652344-1.511719-1.1875-1.921875-.675781-4.433594 1.171876-5.734375l39.960937-26.382812-4.371094 2.558593c-1.957031 1.105469-4.441406.5-5.667969-1.386718-1.230468-1.882813-.785156-4.398438 1.019532-5.746094l53.757812-39.253906-6.332031 3.652344c-1.953125 1.113281-4.4375.515624-5.671875-1.367188-1.238281-1.878906-.800781-4.394531.996094-5.75l26.574218-19.703125c-1.03125-.757813-1.664062-1.9375-1.734374-3.210937-.066407-1.277344.441406-2.515626 1.382812-3.378907l26.625-24.308593c-.230469-1.71875.597656-3.402344 2.101562-4.269532l7.242188-4.171875c1.878906-1.046875 4.246094-.53125 5.519531 1.203125 1.269531 1.734375 1.054688 4.144532-.511719 5.625l-6.21875 5.675782 7.996094-4.609376c1.957032-1.113281 4.4375-.515624 5.675782 1.367188 1.234374 1.878906.796874 4.394531-1 5.75l-8.535157 6.304688 10.242188-5.921876c1.960937-1.105468 4.441406-.5 5.671875 1.386719 1.226562 1.882813.78125 4.402344-1.023438 5.746094l-53.691406 39.253906 59.316406-34.242187c1.996094-1.117188 4.511719-.464844 5.714844 1.480468 1.199219 1.945313.65625 4.488282-1.234375 5.773438l-39.960937 26.382812 41.480468-23.953124c1.996094-1.136719 4.535156-.484376 5.742188 1.472656 1.203125 1.957031.640625 4.515625-1.269532 5.789062l-76.042968 49.828125 78.78125-45.476562c1.996094-1.066407 4.480468-.390625 5.65625 1.546875 1.179687 1.933594.640625 4.449218-1.226563 5.734375l-34.679687 22.183593 35.71875-20.613281c1.976562-1.074219 4.453125-.429687 5.648437 1.476563 1.199219 1.90625.710938 4.417968-1.117187 5.734375l-73.941406 50.34375 75.621093-43.648438c1.996094-1.082031 4.492188-.410156 5.675781 1.527344 1.1875 1.9375.644532 4.460937-1.226562 5.746094l-17.070312 11.03125 16.335937-9.386719c1.96875-1.105469 4.464844-.484375 5.683594 1.421875s.738281 4.429687-1.09375 5.753906l-53.34375 37.617188 54.476562-31.453125c1.949219-1.125 4.4375-.546875 5.683594 1.324218 1.25 1.871094.832031 4.390626-.953125 5.757813l-50.621094 38.628906 50.210938-28.96875c1.972656-1.140625 4.492187-.527343 5.722656 1.394531 1.230469 1.917969.734375 4.464844-1.125 5.78125l-12.910156 9.15625 10.804687-6.238281c1.910157-1.089843 4.335938-.546875 5.601563 1.25 1.265625 1.800781.957031 4.265625-.714844 5.695313l-25.136719 21.242187 23.464844-13.542969c1.882813-1.0625 4.257813-.554687 5.539063 1.1875 1.277343 1.738282 1.054687 4.160157-.519532 5.636719l-12.210937 11.214844 8.308593-4.804687c1.816407-1.046876 4.121094-.625 5.445313.996093 1.320313 1.625 1.273437 3.964844-.117187 5.53125l-4.046876 4.566407c1.480469-.699219 3.234376-.488282 4.507813.542968s1.84375 2.699219 1.464844 4.292969l-1.40625 5.769531c1.433593.679688 2.375 2.097656 2.441406 3.679688.066406 1.585937-.753906 3.078125-2.125 3.875l-4.0625 2.335937c-1.476563.851563-3.316406.742188-4.679687-.277343-1.367188-1.019532-1.996094-2.75-1.601563-4.40625l.792969-3.304688-13.847656 7.988281c-1.8125 1.035157-4.105469.613281-5.425782-1.003906-1.320312-1.613281-1.277344-3.949219.101563-5.515625l4.027343-4.539062-19.167968 11.09375c-1.878906 1.0625-4.257813.550781-5.535156-1.1875-1.277344-1.742188-1.054688-4.164063.519531-5.640626l12.210937-11.210937-31.222656 17.988281c-1.914062 1.085938-4.335938.546875-5.601562-1.253906-1.265626-1.796875-.960938-4.261719.710937-5.691406l25.128906-21.214844-48.828125 28.160156c-1.96875 1.09375-4.449218.472656-5.664062-1.425781-1.21875-1.894531-.75-4.410156 1.066406-5.742187l12.9375-9.175782-28.316406 16.34375c-1.945313 1.125-4.433594.542969-5.679688-1.328125-1.25-1.871093-.832031-4.386719.953125-5.753906l50.621094-38.632813-79.179687 45.714844c-1.972657 1.105469-4.46875.484375-5.6875-1.421875s-.738282-4.429687 1.09375-5.753906l53.417968-37.617187-77.574218 44.792968c-2 1.117188-4.523438.457032-5.71875-1.496094-1.199219-1.953124-.640626-4.5 1.261718-5.777343l17.121094-11.089844-31.820312 18.363281c-1.984376 1.101563-4.480469.460938-5.6875-1.457031-1.207032-1.917969-.703126-4.445313 1.144531-5.753906l73.917969-50.347657-99.671876 57.558594c-.644531.382813-1.378906.589844-2.132812.597656zm0 0" fill="#fdcd56"/><path d="m254.191406 245.550781c-1.800781-.007812-3.398437-1.140625-4.003906-2.832031-.605469-1.695312-.082031-3.585938 1.304688-4.730469l12.9375-10.589843-8.105469 4.6875c-1.960938 1.132812-4.46875.535156-5.707031-1.363282-1.238282-1.894531-.777344-4.429687 1.046874-5.773437l23.039063-16.878907-18.335937 10.582032c-1.984376 1.101562-4.484376.453125-5.6875-1.472656-1.203126-1.921876-.6875-4.453126 1.171874-5.753907l9.703126-6.546875-5.1875 2.988282c-1.992188 1.082031-4.480469.421874-5.671876-1.507813-1.191406-1.929687-.664062-4.453125 1.199219-5.746094l15.359375-10.09375-10.863281 6.273438c-2.003906 1.117187-4.535156.453125-5.726563-1.511719-1.191406-1.960938-.617187-4.515625 1.300782-5.777344l4.035156-2.558594c-2.023438.902344-4.402344.105469-5.472656-1.835937-1.070313-1.9375-.480469-4.375 1.359375-5.605469l63.148437-42.4375-58.710937 33.84375c-1.984375 1.070313-4.457031.417969-5.652344-1.496094-1.191406-1.914062-.6875-4.425781 1.148437-5.730468l51.609376-34.597656-47.105469 27.1875c-1.984375 1.136718-4.507813.503906-5.726563-1.425782-1.21875-1.933594-.699218-4.480468 1.179688-5.785156l57-39.25-52.453125 30.28125c-2 1.117188-4.523438.457031-5.71875-1.492188-1.195313-1.953124-.640625-4.503906 1.265625-5.777343l3.285156-2.132813c-2.011719.5-4.089844-.515625-4.929688-2.40625-.84375-1.894531-.203124-4.117187 1.515626-5.273437l36.964843-25.402344-32.425781 18.710937c-1.984375 1.136719-4.507812.503907-5.726562-1.425781-1.21875-1.933593-.699219-4.480469 1.179687-5.785156l26.453125-18.199219-21.863281 12.644532c-1.976563 1.15625-4.515625.542968-5.746094-1.386719-1.234375-1.929688-.722656-4.488281 1.15625-5.796875l25.308594-17.851563-20.71875 11.945313c-1.972657 1.070312-4.433594.429687-5.632813-1.460938-1.203125-1.894531-.738281-4.394531 1.066406-5.722656l8.695313-6.042969-4.128906 2.371094c-1.9375 1.050781-4.355469.449219-5.578125-1.382813-1.222656-1.832031-.851563-4.292968.859375-5.679687l24.515625-18.699219-19.796875 11.402344c-1.878907 1.046875-4.246094.53125-5.515625-1.203125-1.273438-1.734375-1.058594-4.144531.507812-5.625l26.085938-23.832031-21.078125 12.167968c-1.882813 1.109376-4.300781.617188-5.597657-1.140624-1.300781-1.757813-1.058593-4.210938.554688-5.6875l10.453125-9.726563-5.410156 3.089844c-1.777344 1.007812-4.019531.613281-5.347657-.941407-1.324218-1.550781-1.367187-3.824218-.097656-5.425781l4.882813-6.066406c-1.53125.601563-3.269531.269531-4.46875-.847656-1.203125-1.121094-1.65625-2.832031-1.164063-4.402344l1.613282-5.117187c-1.1875-.839844-1.867188-2.222657-1.804688-3.675782s.863281-2.773437 2.121094-3.5l3.820312-2.203125c1.527344-.875 3.433594-.726562 4.800782.375 1.371093 1.101563 1.925781 2.929688 1.394531 4.609375l-.511719 1.644532 9.695312-5.597657c1.777344-1.015625 4.027344-.625 5.359376.929688 1.332031 1.554687 1.371093 3.835937.09375 5.4375l-4.820313 5.972656 18.105469-10.4375c1.882812-1.089844 4.285156-.59375 5.578125 1.160156 1.289062 1.75 1.058593 4.191407-.542969 5.667969l-10.4375 9.703125 22.582031-13.03125c1.878907-1.046875 4.242188-.53125 5.515625 1.203125 1.273438 1.734375 1.054688 4.144531-.507812 5.625l-26.085938 23.832031 42.664063-24.644531c1.949219-1.125 4.4375-.542969 5.683593 1.328125 1.25 1.871094.832032 4.386719-.953124 5.753906l-24.484376 18.773438 35.378907-20.445313c1.972656-1.066406 4.433593-.429687 5.636719 1.464844 1.199218 1.890625.734374 4.390625-1.070313 5.722656l-8.644531 6.015625 14.660156-8.464843c1.976562-1.15625 4.515625-.542969 5.746094 1.386718 1.234375 1.929688.722656 4.488282-1.15625 5.796875l-25.359375 17.851563 32.851562-18.96875c1.984375-1.132813 4.507813-.503906 5.726563 1.425781 1.21875 1.933594.699218 4.484375-1.175782 5.785156l-26.453124 18.21875 33.433593-19.304687c1.984375-1.175782 4.546875-.558594 5.78125 1.390625 1.234375 1.953125.691407 4.53125-1.226562 5.820312l-36.980469 25.40625 43.519531-25.125c2-1.164062 4.566407-.515625 5.78125 1.457031 1.210938 1.976563.625 4.554688-1.320312 5.816407l-.238281.144531 3.652343-2.101562c1.984375-1.132813 4.507813-.503907 5.726563 1.429687 1.21875 1.929687.699218 4.480469-1.179688 5.78125l-56.976562 39.253906 64.351562-37.136719c1.988282-1.113281 4.503906-.46875 5.707032 1.464844 1.207031 1.9375.675781 4.480469-1.203126 5.769532l-51.667968 34.578124 57.292968-33.074218c1.988282-1.113282 4.503907-.46875 5.707032 1.464844 1.207031 1.9375.675781 4.476562-1.203125 5.769531l-63.144531 42.414062 52.195312-30.140625c2.011719-1.179687 4.59375-.527344 5.804688 1.460938 1.210937 1.988281.601562 4.582031-1.367188 5.824218l-25.164062 16.105469c1.101562.253907 2.058593.941407 2.65625 1.902344 1.214843 1.964844.644531 4.542969-1.289063 5.808594l-28.007813 18.425781c1.757813.234375 3.1875 1.527344 3.59375 3.253906.402344 1.722656-.296874 3.519532-1.765624 4.511719l-26.566407 17.917969c1.523438.496094 2.640625 1.800781 2.894531 3.382812.253907 1.582032-.398437 3.171875-1.691406 4.117188l-33.039062 24.253906c1.5.464844 2.625 1.71875 2.921875 3.261719.300781 1.542969-.273438 3.125-1.488281 4.121093l-29.925782 24.453126c.15625.191406.296875.390624.417969.609374 1.179687 2.035157.484375 4.644532-1.554687 5.828126l-23.296876 13.445312c-.636718.375-1.359374.578125-2.097656.582031zm0 0" fill="#ac92ea"/><g fill="#262626"><path d="m507.578125 250.089844c-1.066406-65.664063-27.070313-128.46875-72.738281-175.667969-.074219-.085937-.050782-.167969-.144532-.253906-47.960937-46.375-111.765624-72.777344-178.472656-73.847657-.976562.007813-1.949218.125-2.902344.347657-171.972656 6-301.910156 176.660156-235.757812 343.816406 67.097656 169.515625 284.765625 205.246094 413.78125 85.847656 1.023438-.441406 1.953125-1.070312 2.738281-1.859375 46.097657-47.621094 72.390625-110.972656 73.558594-177.238281-.035156-.261719-.097656-.515625-.1875-.761719.03125-.125.136719-.246094.125-.382812zm-242.832031-2.714844 163.125-163.121094c41.042968 44.667969 64.820312 102.503906 67.0625 163.121094zm164.695312 171.523438-162.785156-162.785157h228.3125c-1.765625 60.332031-25.007812 118.050781-65.546875 162.765625zm-164.207031-410.292969c13.148437-7.046875 48.714844 7.152343 63.246094 11.996093 34.792969 12.039063 66.539062 31.53125 93.015625 57.117188l-161.367188 161.363281v-157.148437c0-.144532 0-.359375 0-.511719v-74.453125c3.910156-5.4375.632813 4.027344 5.105469 1.636719zm-226 353.21875c-62.710937-123.457031-7.414063-281.09375 120.910156-335.203125 12.433594-5.273438 78.925781-28.808594 87.570313-19.269532v151.132813c-.09375 25.824219-7.527344 64.632813 0 89.351563v3.730468c-.507813.964844-.28125 2.148438.546875 2.859375l8.019531 8.011719c3.164062 3.617188 6.828125 7.023438 10.640625 10.648438l154.605469 154.601562c-117.519532 108.839844-308.972656 78.460938-382.292969-65.863281zm0 0"/><path d="m47.429688 267.15625c-.410157-5.316406-.597657-10.632812-.617188-15.957031 0-6.152344-12.507812-4.078125-12.492188 1.09375 0 6.0625.246094 12.121093.742188 18.175781.417969 5.214844 12.828125 2.355469 12.367188-3.3125zm0 0"/><path d="m215.046875 457.398438c-79.085937-17.4375-141.699219-77.773438-162.054687-156.160157-1.167969-4.316406-13.542969-1.023437-12.367188 3.3125 21.210938 80.324219 85.671875 141.96875 166.863281 159.574219 3.96875.953125 14.539063-5.121094 7.558594-6.726562zm0 0"/><path d="m257.972656 462.648438c-2.847656 0-5.691406-.058594-8.535156-.171876-3.082031-.082031-6.121094.734376-8.746094 2.347657-1.859375 1.246093-1.800781 2.429687.671875 2.558593 2.847657.101563 5.691407.160157 8.535157.171876 3.078124.054687 6.109374-.757813 8.746093-2.347657 1.792969-1.246093 1.859375-2.550781-.671875-2.558593zm0 0"/></g></svg>