<svg height="502pt" viewBox="0 -3 502.43987 502" width="502pt" xmlns="http://www.w3.org/2000/svg"><path d="m98.253906 346.21875c-1.875.003906-3.527344-1.242188-4.039062-3.042969-.515625-1.804687.226562-3.730469 1.824218-4.71875l68.925782-42.949219-86.863282 50.117188c-1.976562 1.105469-4.476562.445312-5.644531-1.496094-1.171875-1.941406-.589843-4.460937 1.3125-5.691406l105.171875-65.835938-126.566406 73.023438c-1.964844 1.035156-4.398438.363281-5.550781-1.539062-1.152344-1.902344-.621094-4.371094 1.210937-5.628907l157.21875-99.65625-182.449218 105.335938c-1.992188 1.191406-4.570313.539062-5.757813-1.453125-1.1875-1.988282-.539063-4.566406 1.453125-5.757813l107.847656-66.441406-112.714844 65.066406c-1.972656 1.027344-4.402343.339844-5.542968-1.570312-1.140625-1.90625-.59375-4.375 1.242187-5.621094l133.902344-82.886719-131.367187 75.851563c-1.976563 1.089843-4.460938.417969-5.621094-1.515625-1.164063-1.9375-.585938-4.445313 1.308594-5.675782l165.894531-103.710937-161.589844 93.292969c-1.976563 1.074218-4.449219.394531-5.605469-1.539063-1.152344-1.933593-.574218-4.429687 1.308594-5.664062l129.535156-80.070313-125.238281 72.324219c-1.976563 1.074219-4.449219.394531-5.605469-1.539063-1.152344-1.933593-.574218-4.429687 1.308594-5.664062l123.234375-76.109375-118.9375 68.632813c-1.980469 1.058593-4.441406.371093-5.585937-1.558594-1.144532-1.929688-.570313-4.421875 1.304687-5.652344l71.714844-43.921875-67.433594 38.9375c-1.992187 1.183594-4.570313.527344-5.753906-1.464844-1.183594-1.992187-.527344-4.570312 1.464843-5.753906l62.203126-38.171875-57.914063 33.4375c-1.972656 1.085938-4.449219.421875-5.613281-1.503906-1.164063-1.925782-.601563-4.429688 1.273437-5.671875l130.324219-82.777344-125.992188 72.730469c-1.972656 1.101562-4.460937.445312-5.632812-1.484375-1.175781-1.929688-.609375-4.441407 1.277344-5.683594l111.707031-71.34375-107.351563 61.960937c-1.96875 1.082032-4.4375.421876-5.605468-1.496093-1.167969-1.914063-.621094-4.410157 1.242187-5.664063l96.800781-62.390625-92.4375 53.375c-1.976562 1.15625-4.515624.519531-5.707031-1.4375-1.191406-1.957031-.59375-4.507812 1.34375-5.730469l66.660157-42.765624-62.296876 35.949218c-1.980468 1.144532-4.515624.488282-5.695312-1.472656-1.175781-1.960938-.566406-4.503906 1.371094-5.71875l3.644531-2.285156c-1.984375.695312-4.175781-.179688-5.128906-2.054688-.953125-1.871094-.375-4.160156 1.351562-5.355468l76.683594-52.273438-72.183594 41.691406c-1.941406 1.085938-4.394531.476563-5.589843-1.398437-1.199219-1.875-.730469-4.359375 1.074218-5.664063l63.519532-44.871094-59.054688 34.070313c-1.9375 1.125-4.414062.527344-5.628906-1.351563-1.21875-1.882812-.742188-4.386718 1.078125-5.691406l42.707031-30.675781-38.15625 22.03125c-1.910156 1.105469-4.347656.542969-5.582031-1.285156s-.84375-4.300781.898437-5.65625l35.371094-27.757813-30.6875 17.710938c-1.929688 1.097656-4.382812.503906-5.59375-1.359375s-.761719-4.347657 1.027344-5.664063l2.996094-2.175781c-1.808594.222656-3.554688-.746094-4.324219-2.402344-.765625-1.652343-.375-3.613281.96875-4.847656l12.875-11.878906-7.949219 4.582031c-1.621094.933594-3.667969.683594-5.011719-.617188-1.34375-1.300781-1.667969-3.335937-.789062-4.988281l7.847656-14.707031c-.476563-.339844-.871094-.78125-1.15625-1.289062-.566406-.96875-.722656-2.117188-.4375-3.199219.289063-1.082031.996094-2.003907 1.964844-2.558594l5.875-3.410156c1.621093-.933594 3.664062-.679688 5.011719.621093 1.34375 1.300782 1.664062 3.332032.789062 4.984376l-5.582031 10.5625 27.972656-16.117188c1.851563-1.058594 4.203125-.5625 5.464844 1.152344 1.265625 1.71875 1.042969 4.109375-.519531 5.5625l-12.894532 11.859375 32.25-18.625c1.933594-1.109375 4.398438-.511719 5.609375 1.359375 1.214844 1.871094.75 4.363281-1.050781 5.675781l-.4375.316406 12.742188-7.359375c1.910156-1.132812 4.371093-.578125 5.613281 1.261719 1.242187 1.839844.839843 4.328125-.921875 5.679687l-35.371094 27.757813 60.113281-34.707031c1.9375-1.125 4.414063-.527344 5.632813 1.351562 1.214844 1.882813.738281 4.386719-1.082032 5.691406l-42.730468 30.691407 65.375-37.769531c1.941406-1.089844 4.390625-.476563 5.589844 1.398437 1.199218 1.875.726562 4.355469-1.074219 5.660156l-63.503907 44.863281 89.960938-51.914062c1.957031-1.160156 4.484375-.546875 5.695312 1.382812 1.207032 1.929688.660157 4.46875-1.238281 5.726563l-76.691406 52.285156 102.878906-59.402343c1.984375-1.195313 4.566407-.554688 5.761719 1.433593 1.195312 1.984375.554688 4.566407-1.429688 5.761719l-2.03125 1.300781 14.671876-8.46875c1.972656-1.160156 4.511718-.519531 5.703124 1.4375 1.191407 1.957031.59375 4.503907-1.339843 5.730469l-66.71875 42.804688 86.585937-50.015626c1.96875-1.121093 4.476563-.476562 5.65625 1.460938 1.183594 1.933594.613282 4.457031-1.285156 5.699219l-96.765625 62.363281 120.429687-69.539062c1.980469-1.207032 4.5625-.578126 5.769532 1.40625 1.203125 1.980468.574218 4.5625-1.40625 5.769531l-111.777344 71.402343 136.109375-78.589843c1.976563-1.128907 4.492187-.476563 5.671875 1.472656 1.179688 1.945313.59375 4.476563-1.324219 5.707031l-130.289062 82.773438 155.78125-89.960938c1.289062-.765625 2.886719-.789062 4.195312-.058594 1.308594.734376 2.128907 2.105469 2.148438 3.605469.023437 1.5-.757813 2.898438-2.046875 3.664063l-62.230469 38.191406 78.664063-45.410156c1.980468-1.058594 4.441406-.371094 5.585937 1.558594 1.148437 1.929687.570313 4.421874-1.304687 5.652343l-71.65625 43.878907 81.324218-46.941407c1.980469-1.074219 4.453125-.394531 5.605469 1.539063 1.152344 1.929687.578125 4.429687-1.308594 5.660156l-123.238281 76.105469 124.648438-71.925781c1.984374-1.117188 4.496093-.449219 5.664062 1.503906s.566406 4.480468-1.355469 5.699218l-129.5625 80.074219 125.835938-72.664062c1.976562-1.089844 4.460937-.417969 5.621093 1.519531 1.164063 1.933594.585938 4.441406-1.308593 5.675781l-165.835938 103.675781 161.523438-93.261718c1.976562-1.070313 4.449219-.394532 5.601562 1.539062 1.15625 1.933594.578125 4.433594-1.304687 5.664063l-133.953125 82.910156 129.65625-74.851563c1.285156-.769531 2.886719-.792968 4.195312-.058593 1.308594.730469 2.128907 2.105469 2.148438 3.605469.019531 1.496093-.757813 2.894531-2.046875 3.660156l-107.914063 66.484375 103.625-59.828125c1.984375-1.195313 4.5625-.558594 5.761719 1.425781 1.199219 1.980469.5625 4.5625-1.421875 5.761719l-157.277344 99.695312 152.9375-88.28125c1.980469-1.144531 4.515625-.488281 5.691407 1.472656 1.179687 1.960938.570312 4.507813-1.371094 5.71875l-105.144532 65.855469 100.824219-58.199219c1.976563-1.089843 4.460938-.417968 5.625 1.515626 1.160157 1.9375.582031 4.445312-1.3125 5.675781l-68.933593 42.960937 64.628906-37.308594c1.976562-1.160156 4.515625-.519531 5.707031 1.4375 1.191406 1.953126.59375 4.503907-1.34375 5.730469l-102.027344 65.46875 97.664063-56.390625c1.964844-1.097656 4.449218-.449218 5.625 1.472656 1.175781 1.921876.628906 4.425782-1.242188 5.679688l-88.382812 57.320312 83.992187-48.449218c1.96875-1.179688 4.523438-.554688 5.726563 1.398437 1.207031 1.953125.617187 4.515625-1.320313 5.746094l-78.6875 51.894531 74.28125-42.886718c1.953125-1.136719 4.457031-.519532 5.660157 1.394531 1.203124 1.914062.675781 4.433593-1.195313 5.703125l-75.253906 51.453125 70.789062-40.867188c1.960938-1.136719 4.464844-.511719 5.664063 1.410157 1.199218 1.921874.65625 4.445312-1.222656 5.707031l-39.914063 26.808593 35.472656-20.480468c1.921875-1.109375 4.375-.53125 5.597657 1.324218 1.226562 1.851563.792968 4.335938-.980469 5.667969l-53.382813 39.925781 48.765625-28.148437c1.886719-1.058594 4.269531-.507813 5.503907 1.273437 1.230468 1.78125.902343 4.207032-.753907 5.597657l-37.660156 30.914062 32.910156-19.0625c1.863281-1.078125 4.246094-.570312 5.503907 1.179688 1.261718 1.746093.992187 4.167969-.621094 5.59375l-19.589844 17.417969 14.707031-8.484376c1.703125-.980468 3.859375-.648437 5.1875.804688 1.328125 1.449219 1.46875 3.625.34375 5.238281l-9.492187 13.539063 2.425781-1.394532c1.300781-.828124 2.949219-.875 4.296875-.121093 1.34375.75 2.171875 2.179687 2.148438 3.71875-.019532 1.542969-.882813 2.949219-2.25 3.664062l-18.785157 10.886719c-1.703125.972656-3.851562.636719-5.175781-.808594-1.324219-1.445312-1.472656-3.617187-.355469-5.226562l9.492188-13.546875-33.976563 19.582031c-1.859375 1.058594-4.222656.542969-5.476562-1.191406-1.253906-1.738282-1-4.140625.59375-5.574219l19.582031-17.417969-41.902344 24.183594c-1.886719 1.054688-4.269531.503906-5.5-1.277344s-.90625-4.207031.75-5.597656l37.6875-30.878906-65.402343 37.769531c-1.921876 1.109375-4.375.53125-5.597657-1.324219-1.226562-1.851562-.792969-4.335937.980469-5.667968l53.390625-39.929688-81.273437 46.90625c-1.953126 1.078125-4.410157.445312-5.59375-1.449219-1.179688-1.894531-.675782-4.382812 1.15625-5.660156l39.933593-26.859375-58.753906 33.941406c-1.949219 1.082032-4.402344.453125-5.589844-1.429687-1.1875-1.886719-.695312-4.375 1.125-5.664063l75.207031-51.441406-101.46875 58.5625c-1.957031 1.078125-4.417968.433594-5.597656-1.464844-1.175781-1.902344-.65625-4.390625 1.179688-5.664062l78.722656-51.929688-102.289062 59.058594c-1.96875 1.144531-4.496094.507812-5.6875-1.433594-1.191407-1.941406-.617188-4.480468 1.296874-5.71875l88.351563-57.269531-111.625 64.421875c-1.972656 1.121094-4.476563.472656-5.660156-1.460938-1.179688-1.9375-.613281-4.460937 1.285156-5.699218l102.066406-65.519532-125.902343 72.679688c-.628907.375-1.347657.582031-2.082032.59375zm0 0" fill="#a9b0bb"/><path d="m167.9375 346.460938c-1.867188.003906-3.507812-1.226563-4.03125-3.015626-.523438-1.789062.195312-3.707031 1.761719-4.714843l57.4375-36.796875-60.15625 34.726562c-1.964844 1.039063-4.398438.363282-5.550781-1.539062-1.148438-1.902344-.617188-4.371094 1.210937-5.628906l48.683594-30.878907-44.34375 25.574219c-1.964844 1.136719-4.476563.507812-5.671875-1.421875-1.195313-1.933594-.636719-4.464844 1.257812-5.714844l105.898438-70.3125-101.484375 58.597657c-1.984375 1.195312-4.5625.558593-5.761719-1.425782-1.199219-1.980468-.5625-4.5625 1.421875-5.761718l43.496094-27.527344-39.15625 22.601562c-1.960938 1.082032-4.425781.429688-5.597657-1.476562-1.175781-1.910156-.640624-4.402344 1.207032-5.667969l90.820312-59.363281-86.453125 49.898437c-1.972656 1.121094-4.476562.472657-5.660156-1.460937-1.179687-1.933594-.609375-4.457032 1.285156-5.699219l76.089844-49.136719-71.691406 41.371094c-1.976563 1.128906-4.492188.480469-5.671875-1.46875-1.179688-1.945312-.589844-4.476562 1.324218-5.707031l55.714844-35.476563-51.367187 29.667969c-1.964844 1.082031-4.4375.425781-5.605469-1.492187-1.167969-1.917969-.621094-4.414063 1.242188-5.667969l71.863281-46.273438-67.5 38.972657c-1.976563 1.128906-4.492188.476562-5.671875-1.46875-1.179688-1.945313-.589844-4.480469 1.324218-5.707032l50.304688-31.953125-45.957031 26.53125c-1.957031 1.078125-4.417969.4375-5.59375-1.464843-1.179688-1.902344-.660157-4.390626 1.179687-5.660157l106.1875-70.574219-101.773437 58.753907c-1.976563 1.109375-4.476563.445312-5.644531-1.496094-1.167969-1.9375-.585938-4.457031 1.316406-5.6875l10.851562-6.824219-6.523437 3.761719c-1.953125 1.113281-4.441407.484375-5.632813-1.421875-1.195312-1.90625-.671875-4.417969 1.183594-5.6875l71.765625-48.5-67.316406 38.878906c-1.953125 1.082032-4.410157.445313-5.59375-1.449218-1.179688-1.890626-.675781-4.378907 1.15625-5.660157l46.246093-31.207031-41.808593 24.140625c-1.964844 1.117187-4.460938.476563-5.648438-1.449219-1.183593-1.925781-.632812-4.441406 1.25-5.695312l6.867188-4.515625-2.46875 1.429687c-1.917969 1.113282-4.375.542969-5.601563-1.304687-1.230468-1.847657-.808594-4.332031.960938-5.671875l45.097656-34.464844-40.457031 23.34375c-1.886719 1.085938-4.289063.546875-5.53125-1.238281-1.246094-1.78125-.921875-4.222657.75-5.621094l29.441406-24.597656-24.660156 14.265625c-1.851563 1.109375-4.242188.632812-5.527344-1.101563-1.285156-1.738281-1.042969-4.164062.558594-5.613281l14.445312-13.527344-9.476562 5.472656c-1.816407 1.046876-4.132813.589844-5.414063-1.070312-1.285156-1.660156-1.144531-4.015625.328125-5.511719l3.054688-3.105469c-.976563.03125-1.929688-.292968-2.683594-.914062-1.351563-1.082031-1.902344-2.882812-1.386719-4.53125l1.914063-6.121094c-1.296875-.75-2.097657-2.132812-2.097657-3.632812s.800782-2.886719 2.097657-3.636719l4.195312-2.433594c1.5-.871093 3.378907-.730469 4.734375.351563 1.351563 1.085937 1.898438 2.890625 1.378906 4.542968l-.992187 3.171876 13.992187-8.082032c1.816407-1.035156 4.117188-.574218 5.398438 1.078125 1.277344 1.652344 1.144531 3.996094-.3125 5.492188l-1.679688 1.679687 14.347657-8.285156c1.851562-1.109375 4.242187-.628906 5.527343 1.105469 1.285157 1.734375 1.042969 4.164062-.558593 5.609375l-14.421875 13.496094 35.078125-20.25c1.886719-1.085938 4.289062-.550782 5.53125 1.234374 1.246093 1.785157.921875 4.226563-.75 5.621094l-29.433594 24.601563 54.558594-31.5c1.917969-1.144531 4.398437-.585938 5.640625 1.277343 1.238281 1.859376.804687 4.363282-.992188 5.695313l-45.074218 34.472656 71.832031-41.480469c1.96875-1.179687 4.523437-.554687 5.726562 1.398438 1.207031 1.953125.617188 4.515625-1.320312 5.746094l-6.839844 4.488281 20.195313-11.648437c1.953124-1.082032 4.410156-.445313 5.59375 1.449218 1.179687 1.890625.675781 4.378906-1.15625 5.660156l-46.269532 31.222657 66.441406-38.367188c1.269532-.792969 2.871094-.847656 4.195313-.144531 1.320313.703125 2.167969 2.058594 2.222656 3.558594.050781 1.496094-.699219 2.910156-1.96875 3.703125l-71.808593 48.515625 96.375-55.648438c1.984374-1.199218 4.566406-.558594 5.765624 1.425782 1.199219 1.988281.558594 4.570312-1.425781 5.765624l-10.914062 6.851563 24.34375-14.058594c1.96875-1.222656 4.554687-.617187 5.777343 1.355469 1.222657 1.96875.617188 4.554688-1.355468 5.777344l-106.175782 70.554687 102.316407-59.0625c1.976562-1.128906 4.492187-.480469 5.671875 1.46875 1.179687 1.945313.589844 4.476563-1.324219 5.707031l-50.304687 31.953126 45.957031-26.53125c1.964843-1.082032 4.4375-.425782 5.605469 1.492187 1.167968 1.917969.621093 4.414063-1.242188 5.667969l-71.863281 46.265625 67.5-38.972657c1.976562-1.128906 4.492187-.476562 5.671875 1.46875 1.179687 1.945313.589844 4.480469-1.324219 5.707032l-55.714844 35.546875 51.382813-29.664063c1.972656-1.121094 4.476562-.472656 5.65625 1.460938 1.183594 1.9375.613281 4.460937-1.28125 5.699218l-76.097656 49.136719 71.730468-41.414062c1.972656-1.144531 4.496094-.507813 5.6875 1.433593 1.191406 1.941407.617188 4.480469-1.296875 5.71875l-90.894531 59.367188 86.453125-49.933594c1.984375-1.199218 4.566406-.5625 5.761719 1.421875 1.199218 1.984375.5625 4.566407-1.421875 5.761719l-43.34375 27.457031 39.039062-22.539062c1.957031-1.078125 4.417969-.433594 5.59375 1.464843 1.179688 1.902344.660157 4.390626-1.179687 5.664063l-105.925782 70.335937 101.511719-58.636718c1.984375-1.199219 4.5625-.5625 5.761719 1.421875s.5625 4.566406-1.421875 5.761719l-48.683594 30.882812 44.316407-25.585938c1.972656-1.101562 4.464843-.445312 5.636718 1.484376 1.171875 1.929687.605469 4.441406-1.277344 5.683593l-57.386718 36.796875 53.046875-30.625c1.953125-1.117187 4.441406-.488281 5.632812 1.417969 1.195313 1.90625.671875 4.417969-1.183593 5.6875l-83.246094 56.457031 78.796875-45.492187c1.945312-1.136719 4.4375-.535157 5.652343 1.363281 1.210938 1.898438.710938 4.414062-1.136718 5.703125l-70.839844 49.90625 66.304688-38.289063c1.960937-1.160156 4.488281-.546874 5.695312 1.378907 1.210938 1.929687.660156 4.472656-1.238281 5.730469l-29.375 19.957031 24.945312-14.402344c1.9375-1.105469 4.402344-.5 5.609375 1.375 1.207032 1.878906.734375 4.371094-1.078125 5.675781l-29.570312 21.058594 25.039062-14.445312c1.933594-1.09375 4.386719-.488282 5.589844 1.378906 1.207031 1.871094.746094 4.351562-1.050781 5.664062l-11.546875 8.257813 7.007812-4.035157c1.84375-.992187 4.136719-.46875 5.375 1.222657 1.234375 1.691406 1.03125 4.035156-.472656 5.492187l-22.445313 20.144532 17.542969-10.125c1.875-1.0625 4.25-.53125 5.496094 1.226562 1.242187 1.757812.953125 4.175781-.671875 5.589844l-2.902344 2.519531c1.28125-.046875 2.515625.488281 3.355469 1.453125 1.316406 1.527344 1.359375 3.777344.101563 5.351562l-4.625 5.878907c1.039062.296875 1.917968.984375 2.453124 1.921875 1.15625 2.003906.46875 4.570312-1.539062 5.730468l-13.585938 7.847657c-1.746093 1.003906-3.953124.628906-5.269531-.890625-1.316406-1.523438-1.367187-3.765625-.121093-5.34375l2.445312-3.089844-16.367188 9.382812c-1.875 1.0625-4.25.535157-5.496093-1.222656-1.246094-1.761718-.957031-4.175781.667969-5.589844l.898437-.773437-13.195313 7.613281c-1.84375.988282-4.136718.46875-5.375-1.226562-1.234374-1.691406-1.03125-4.03125.472657-5.488282l22.445312-20.101562-46.574219 26.855469c-1.9375 1.09375-4.386718.492187-5.59375-1.378907-1.203124-1.867187-.742187-4.351562 1.050782-5.660156l11.542968-8.261718-26.550781 15.328124c-1.9375 1.105469-4.402343.5-5.609375-1.375-1.207031-1.878906-.734375-4.371093 1.078125-5.675781l29.5625-21.058593-48.75 28.144531c-1.957031 1.160156-4.484375.546875-5.695312-1.382813-1.207031-1.929687-.660157-4.472656 1.238281-5.726562l29.378906-19.96875-46.9375 27.101562c-1.945312 1.136719-4.441406.535156-5.652344-1.363281-1.214843-1.898437-.710937-4.417969 1.136719-5.703125l70.832031-49.898438-98.742187 57c-1.953125 1.113282-4.441406.484376-5.632813-1.421874-1.195312-1.90625-.671874-4.417969 1.1875-5.6875l83.21875-56.4375-110.128906 63.585937c-.636718.375-1.363281.570313-2.097656.570313zm0 0" fill="#636c77"/><path d="m37.644531 77.871094c-1.785156.003906-3.378906-1.125-3.96875-2.8125-.585937-1.6875-.042969-3.5625 1.359375-4.671875l39.625-31.433594-62.792968 36.25c-1.894532 1.09375-4.316407.542969-5.554688-1.261719-1.238281-1.804687-.878906-4.261718.820312-5.636718l38.542969-31.207032-33.816406 19.523438c-1.90625 1.0625-4.308594.484375-5.527344-1.324219-1.214843-1.8125-.84375-4.253906.859375-5.617187l11.257813-8.738282-6.589844 3.800782c-1.839844 1.109374-4.214844.648437-5.511719-1.0625-1.292968-1.710938-1.089844-4.125.476563-5.59375l10.929687-10.574219-5.878906 3.40625c-1.742188.996093-3.945312.617187-5.253906-.902344-1.3125-1.519531-1.363282-3.753906-.125-5.332031l4.640625-5.875c-1.628907-.453125-2.828125-1.839844-3.039063-3.515625-.214844-1.679688.601563-3.320313 2.066406-4.164063l13.683594-7.890625c1.742188-1.011719 3.960938-.640625 5.28125.886719 1.320313 1.527344 1.363282 3.777344.105469 5.359375l-2.519531 3.203125 16.511718-9.515625c1.839844-1.109375 4.214844-.648437 5.511719 1.0625 1.292969 1.710937 1.089844 4.125-.476562 5.59375l-10.910157 10.53125 29.738282-17.1875c1.90625-1.085937 4.328125-.515625 5.550781 1.304687 1.226563 1.820313.84375 4.273438-.875 5.636719l-11.25 8.71875 27.179687-15.660156c1.894532-1.085937 4.304688-.539063 5.542969 1.261719 1.238281 1.796875.890625 4.246094-.800781 5.628906l-38.550781 31.179688 65.996093-38.070313c1.902344-1.085937 4.316407-.527344 5.546876 1.28125 1.234374 1.808594.867187 4.261719-.835938 5.632813l-39.625 31.402343 66.398438-38.316406c1.933593-1.109375 4.398437-.515625 5.609374 1.355469 1.214844 1.871094.75 4.367187-1.050781 5.675781l-26.492187 19.171875 45.433594-26.203125c1.90625-1.113281 4.347656-.5625 5.589843 1.261719 1.242188 1.824218.855469 4.300781-.878906 5.660156l-39.582031 31.394531 66.347656-38.316406c1.9375-1.125 4.414062-.527344 5.628906 1.351563 1.21875 1.882812.742188 4.386718-1.078125 5.6875l-24.921875 17.898437 43.261719-24.9375c1.945313-1.117187 4.425781-.507813 5.628906 1.386719 1.203125 1.894531.707031 4.398437-1.132812 5.6875l-15.367188 10.695312 30.828125-17.769531c1.933594-1.128906 4.410156-.542969 5.632813 1.332031 1.222656 1.878906.757812 4.378906-1.058594 5.691406l-28.351563 20.671876 48.035157-27.695313c1.898437-1.109375 4.328125-.566406 5.574219 1.242187 1.246093 1.804688.886718 4.269532-.824219 5.648438l-41.300781 33.574219 70.125-40.464844c1.960937-1.160156 4.484374-.546875 5.695312 1.378906 1.210938 1.929688.660156 4.472657-1.238281 5.730469l-.359375.25 12.730468-7.359375c1.898438-.964844 4.21875-.355469 5.398438 1.417969 1.175781 1.769531.84375 4.144531-.78125 5.523437l-35.253906 26.859375 58.605468-33.800781c1.925782-1.121094 4.390626-.542969 5.617188 1.320313 1.222656 1.859374.78125 4.351562-1.011719 5.679687l-31.894531 23.761719 45.789062-26.480469c1.925782-1.121094 4.390626-.542969 5.613282 1.316406 1.226562 1.863281.785156 4.355469-1.007813 5.683594l-26.1875 19.523437 27.339844-15.789062c1.917969-1.117188 4.371094-.546875 5.601563 1.300781 1.230468 1.847657.808593 4.335938-.960938 5.671875l-15.109375 11.457032 10.910156-6.292969c1.8125-1.046875 4.117188-.597657 5.40625 1.046875 1.289063 1.648437 1.167969 3.992187-.285156 5.5l-17.414063 18.144531 12.394532-7.160156c1.785156-1.027344 4.054687-.609375 5.355468.988281 1.300782 1.597656 1.246094 3.90625-.125 5.441406l-3.207031 3.59375c1.515625.070313 2.90625.847656 3.761719 2.097656 1.15625 2.007813.46875 4.574219-1.535156 5.734376l-19.667969 11.320312c-1.785156 1.042969-4.066406.628906-5.371094-.976562-1.304687-1.605469-1.246093-3.925782.140625-5.460938l2.148438-2.390625-15.332032 8.878906c-1.808593 1.035157-4.101562.582031-5.386718-1.054687-1.28125-1.640625-1.171875-3.972656.265625-5.484375l17.441406-18.152344-42.804687 24.71875c-1.917969 1.089844-4.351563.511719-5.574219-1.324219-1.21875-1.839844-.808594-4.308594.941406-5.652344l15.054687-11.449218-31.894531 18.46875c-1.925781 1.117187-4.390625.539062-5.617187-1.320313-1.222656-1.863281-.78125-4.355469 1.011718-5.683593l26.152344-19.554688-45.972656 26.546875c-1.921875 1.09375-4.363281.507813-5.578125-1.34375-1.21875-1.847656-.789063-4.324219.980469-5.65625l31.894531-23.761719-53.296875 30.78125c-1.925781 1.15625-4.417969.597656-5.664062-1.273437-1.242188-1.871094-.792969-4.386719 1.019531-5.710938l35.253906-26.859375-58.609375 33.859375c-1.957031 1.113281-4.445312.488281-5.636719-1.421875-1.195312-1.90625-.671875-4.417968 1.1875-5.6875l.375-.25-12.773437 7.367188c-1.882813 1.019531-4.234375.457031-5.453125-1.304688-1.214844-1.761718-.910157-4.160156.710937-5.5625l41.304688-33.570312-70.179688 40.464844c-1.929687 1.125-4.410156.539062-5.628906-1.335938-1.222656-1.875-.757812-4.378906 1.054688-5.691406l28.347656-20.707032-48.054688 27.75c-1.949218 1.15625-4.464844.558594-5.679687-1.355468-1.21875-1.910156-.699219-4.445313 1.171875-5.722656l15.378906-10.742188-30.855469 17.828125c-1.9375 1.125-4.414062.527344-5.628906-1.351563-1.214844-1.882812-.742187-4.386718 1.078125-5.691406l24.886719-17.902344-43.242188 24.960938c-1.902343 1.058594-4.296875.484375-5.515625-1.320312-1.21875-1.804688-.851562-4.242188.839844-5.613282l39.585938-31.398437-66.445313 38.359375c-1.933594 1.109375-4.398437.511718-5.609375-1.359375-1.210938-1.871094-.75-4.363281 1.054688-5.675781l26.53125-19.230469-45.476563 26.28125c-.632813.375-1.355469.574219-2.089844.578125zm0 0" fill="#cad0d7"/><path d="m365.46875 496.789062c-1.84375-.003906-3.464844-1.210937-4.003906-2.972656-.539063-1.761718.136718-3.667968 1.660156-4.699218l23.753906-16.039063-37.015625 21.371094c-1.957031 1.132812-4.464843.511719-5.664062-1.410157-1.199219-1.921874-.65625-4.449218 1.222656-5.710937l45.996094-30.996094-58.082031 33.523438c-1.945313 1.101562-4.414063.480469-5.609376-1.410157-1.195312-1.890624-.699218-4.382812 1.128907-5.671874l80.191406-55.53125-94.601563 54.613281c-1.980468 1.210937-4.5625.589843-5.773437-1.386719-1.207031-1.976562-.585937-4.5625 1.390625-5.769531l47.253906-30.644531-54.554687 31.472656c-1.976563 1.160156-4.515625.519531-5.707031-1.4375-1.191407-1.957032-.59375-4.503906 1.339843-5.730469l44.8125-28.730469-49.503906 28.539063c-1.960937 1.113281-4.449219.480469-5.640625-1.433594-1.1875-1.917969-.652344-4.429687 1.21875-5.691406l92.257812-61.652344-100.074218 57.78125c-1.957032 1.066406-4.40625.414063-5.578125-1.484375-1.167969-1.898438-.652344-4.378906 1.179687-5.648438l84.136719-55.253906-88.886719 51.316406c-1.976562 1.105469-4.476562.445313-5.644531-1.496093-1.171875-1.941407-.589844-4.457031 1.3125-5.6875l16.351563-10.257813-17.390626 10.070313c-1.964843 1.101562-4.449218.449219-5.625-1.46875-1.175781-1.921875-.628906-4.429688 1.242188-5.679688l69.667969-44.980469-71.238281 41.125c-1.28125.777344-2.882813.8125-4.195313.085938-1.316406-.722656-2.144531-2.089844-2.175781-3.589844s.742187-2.902344 2.023437-3.679687l36.816407-23.300781-37.117188 21.402343c-1.976562 1.089844-4.460938.421875-5.625-1.515625-1.160156-1.9375-.582031-4.445312 1.3125-5.675781l3.304688-2.066406-1.570313.867187c-1.972656 1.128906-4.492187.476563-5.671875-1.46875-1.175781-1.949218-.589844-4.480468 1.324219-5.707031l33.382812-21.152344-32.089843 18.515625c-1.960938 1.113282-4.449219.480469-5.640626-1.433594-1.1875-1.917968-.652343-4.429687 1.21875-5.691406l87.292969-58.175781-85.355469 49.285156c-1.957031 1.050781-4.398437.390625-5.5625-1.503906-1.160156-1.894531-.644531-4.367187 1.183594-5.636719l53.757813-34.953125-50.671875 29.253907c-1.953125 1.066406-4.398438.421874-5.574219-1.46875-1.175781-1.890626-.667969-4.371094 1.152344-5.652344l65.058593-43.34375-59.15625 34.15625c-1.972656 1.179687-4.523437.554687-5.730468-1.398438-1.203125-1.953125-.617188-4.515625 1.320312-5.746094l37.847656-24.871093-30.9375 17.863281c-1.960937 1.113281-4.453124.480469-5.640624-1.433594-1.191407-1.917968-.652344-4.429687 1.214843-5.691406l29.296875-19.449219-20.488281 11.816407c-1.921875 1.101562-4.367187.523437-5.585937-1.324219-1.222657-1.84375-.800782-4.320313.960937-5.65625l51.675781-38.9375-32.339844 18.65625c-1.914062 1.085937-4.339843.507812-5.558593-1.324219s-.820313-4.292969.917969-5.640625l22.089843-16.847656c-1.210937-.800781-1.921875-2.171875-1.882812-3.625.042969-1.453125.835937-2.78125 2.09375-3.507813l37.9375-21.90625c1.914062-1.082031 4.339843-.503906 5.5625 1.324219 1.21875 1.832031.816406 4.292969-.917969 5.640625l-7.664062 5.875 34.941406-20.144531c1.925781-1.136719 4.402344-.566407 5.636718 1.296875 1.234376 1.867187.789063 4.371094-1.011718 5.695312l-51.6875 38.945313 77.21875-44.550781c1.957031-1.082032 4.417968-.4375 5.597656 1.464843 1.175781 1.898438.65625 4.390625-1.179688 5.660157l-29.304687 19.464843 40.617187-23.449219c1.964844-1.117187 4.460938-.480468 5.648438 1.445313 1.183594 1.925781.632812 4.445313-1.25 5.695313l-37.769531 24.828124 46.808593-27.019531c1.964844-1.164062 4.5-.546875 5.707032 1.394531 1.207031 1.9375.640625 4.488282-1.273438 5.734376l-65.117187 43.257812 74.902343-43.242188c1.964844-1.097656 4.449219-.449218 5.625 1.472657 1.175782 1.917969.628907 4.425781-1.242187 5.679687l-53.777344 34.957032 60.945313-35.152344c1.957031-1.113282 4.449218-.480469 5.640625 1.433594 1.1875 1.917968.652343 4.429687-1.21875 5.691406l-87.292969 58.160156 94.796875-54.726562c1.96875-1.066407 4.425781-.398438 5.585937 1.515624 1.164063 1.914063.617188 4.402344-1.238281 5.652344l-33.347656 21.144532 36.359375-20.984376c1.976562-1.070312 4.441406-.394531 5.597656 1.527344s.59375 4.414063-1.273437 5.65625l-3.398438 2.125 4.378907-2.519531c1.976562-1.128906 4.492187-.476563 5.671874 1.472656 1.179688 1.945313.59375 4.476563-1.324218 5.707031l-36.929688 23.347657 38.914063-22.46875c1.976562-1.210938 4.558593-.585938 5.769531 1.390625 1.210938 1.976562.585938 4.558594-1.390625 5.769531l-69.582031 44.9375 71.117187-41.050781c1.976563-1.109375 4.476563-.445313 5.648438 1.496094 1.167969 1.9375.585937 4.457031-1.316407 5.6875l-16.332031 10.242187 16.191407-9.34375c1.960937-1.097656 4.4375-.453125 5.617187 1.457031 1.179687 1.914063.648437 4.414063-1.210937 5.679688l-84.222657 55.3125 84.414063-48.734375c1.953125-1.066407 4.402344-.421875 5.574218 1.46875 1.175782 1.890625.671876 4.371093-1.152343 5.648437l-92.175781 61.601563 91.574218-52.878907c1.980469-1.207031 4.5625-.582031 5.769532 1.398438 1.207031 1.976562.582031 4.5625-1.398438 5.769531l-44.863281 28.8125 41.648437-24.039062c1.976563-1.207031 4.5625-.585938 5.773438 1.390625 1.207031 1.976562.585937 4.5625-1.390625 5.769531l-47.214844 30.621094 43.09375-24.878907c1.945313-1.097656 4.414063-.480468 5.609375 1.410157s.699219 4.386719-1.128906 5.675781l-80.230469 55.554688 73.726563-42.5625c1.953124-1.082032 4.410156-.445313 5.59375 1.445312 1.183593 1.894531.675781 4.382812-1.152344 5.664062l-45.894532 30.953126 36.164063-20.875c1.949219-1.042969 4.371094-.398438 5.542969 1.476562 1.171875 1.871094.691406 4.332031-1.101563 5.625l-23.820312 16.089844 12.144531-7.007813c1.941406-1.121093 4.421875-.515625 5.628906 1.371094 1.210938 1.886719.722656 4.390625-1.105468 5.6875l-18.699219 13.253906 1.410156-.839843c1.300781-.828126 2.949219-.875 4.296875-.121094 1.347656.75 2.171875 2.179687 2.152344 3.71875-.023438 1.542968-.886719 2.949218-2.253906 3.664062l-79.441407 45.867188c-1.941406 1.121094-4.421875.519531-5.632812-1.371094-1.207031-1.886719-.71875-4.390625 1.109375-5.6875l18.722656-13.269531-37.558594 21.679687c-.632812.382813-1.359375.589844-2.097656.597656zm0 0" fill="#46ceac"/><path d="m357.074219 462.175781c-1.808594 0-3.410157-1.15625-3.980469-2.871093-.574219-1.714844.015625-3.601563 1.460938-4.683594l43.882812-32.417969-59.183594 34.179687c-1.9375 1.125-4.414062.527344-5.628906-1.351562-1.214844-1.882812-.738281-4.386719 1.082031-5.691406l56.820313-40.875-68.515625 39.558594c-1.976563 1.210937-4.558594.585937-5.769531-1.390626-1.210938-1.976562-.585938-4.558593 1.390624-5.769531l2.238282-1.453125-5.949219 3.433594c-1.949219 1.085938-4.402344.457031-5.589844-1.429688-1.1875-1.886718-.695312-4.375 1.125-5.664062l52.289063-35.644531-57.425782 33.152343c-1.96875 1.148438-4.496093.511719-5.6875-1.429687-1.191406-1.945313-.617187-4.480469 1.296876-5.71875l22.359374-14.589844-24.472656 14.136719c-1.980468 1.207031-4.5625.585938-5.773437-1.390625-1.207031-1.976563-.585938-4.5625 1.390625-5.769531l16.097656-10.433594-16.785156 9.675781c-1.941406 1.089844-4.394532.476563-5.589844-1.394531-1.199219-1.875-.730469-4.359375 1.074219-5.664062l74.523437-52.667969-77.160156 44.550781c-1.96875 1.226562-4.554688.625-5.78125-1.339844-1.226562-1.96875-.625-4.558594 1.339844-5.785156l41.910156-27.992188-41.269531 23.820313c-1.972657 1.222656-4.558594.617187-5.78125-1.355469-1.21875-1.96875-.613281-4.554687 1.355469-5.777344l29.253906-19.363281-26.15625 15.105469c-1.941406 1.140625-4.433594.546875-5.652344-1.34375-1.21875-1.894531-.726562-4.410156 1.113281-5.703125l58.753907-41.96875-54.214844 31.238281c-1.953125 1.054688-4.390625.402344-5.558594-1.484375-1.167969-1.890625-.664062-4.359375 1.152344-5.640625l4.75-3.148437c-1.933594.582031-4.007813-.300781-4.933594-2.097657-.925781-1.796874-.4375-3.996093 1.15625-5.238281l44.074219-34.117187-30.660157 17.710937c-1.882812 1.074219-4.273437.539063-5.515624-1.234375-1.246094-1.773437-.9375-4.203125.714843-5.609375l21.621094-18.269531c-1.582031-.503906-2.722656-1.890625-2.902344-3.542969-.183593-1.652343.628907-3.253906 2.0625-4.085937l31.527344-18.207032c1.878906-1.074218 4.273437-.542968 5.515625 1.234376 1.246094 1.773437.933594 4.203124-.714844 5.605468l-15.753906 13.3125 43.644531-25.179687c1.910157-1.070313 4.320313-.492188 5.535157 1.324219 1.21875 1.816406.835937 4.265624-.875 5.625l-44.058594 34.101562 63.597656-36.710938c1.964844-1.140624 4.476562-.507812 5.671875 1.421876 1.195313 1.929687.636719 4.460937-1.257813 5.710937l-3.128906 2.074219 9.355469-5.40625c1.941406-1.136719 4.4375-.542969 5.652344 1.347656 1.21875 1.890625.730469 4.40625-1.109375 5.703125l-58.753906 41.96875 69.363281-40.003906c1.957031-1.082031 4.417969-.4375 5.59375 1.464843 1.179687 1.898438.660156 4.390626-1.179688 5.660157l-29.257812 19.382812 33.574219-19.367187c1.960937-1.164063 4.5-.546875 5.707031 1.394531 1.203125 1.9375.636719 4.488281-1.277344 5.734375l-41.847656 27.984375 45.976562-26.550781c1.933594-1.054688 4.355469-.433594 5.542969 1.421875s.742188 4.3125-1.027344 5.628906l-74.523437 52.675781 79.34375-45.800781c1.960937-1.066406 4.414062-.40625 5.582031 1.5 1.164062 1.902344.632812 4.386719-1.210938 5.652344l-16.148437 10.457031 16.015625-9.234375c1.960938-1.078125 4.425781-.429687 5.597656 1.480469 1.175782 1.90625.640625 4.402344-1.210937 5.664062l-22.367188 14.570313 21.292969-12.296875c1.953125-1.097656 4.421875-.46875 5.613281 1.425781 1.191407 1.898437.683594 4.394531-1.15625 5.675781l-52.296875 35.65625 50.855469-29.378906c1.964844-1.097656 4.449219-.449219 5.625 1.472656 1.175781 1.917969.628906 4.425782-1.246094 5.679688l-2.828125 1.835937c1.972656-.824219 4.25-.039062 5.292969 1.828125 1.039063 1.867188.511719 4.21875-1.230469 5.460938l-56.773437 40.839844 51.144531-29.519532c1.925781-1.101562 4.378906-.515625 5.59375 1.34375 1.21875 1.855469.777344 4.339844-1.003906 5.664063l-43.933594 32.449219 34.011719-19.632813c1.878906-1.082031 4.273437-.558594 5.527343 1.210937 1.25 1.773438.949219 4.207032-.699218 5.613282l-31.148438 26.710937 7.921875-4.574219c2.007813-1.140624 4.554688-.449218 5.710938 1.546876 1.152343 2 .476562 4.554687-1.515625 5.71875l-47.019532 27.171874c-1.875 1.082032-4.273437.558594-5.523437-1.210937-1.253906-1.769531-.949219-4.203125.699219-5.613281l31.164062-26.734375-59.390625 34.289062c-.648437.375-1.382812.570313-2.132812.5625zm0 0" fill="#61ddbc"/><g fill="#262626"><path d="m3.390625 325.90625c7.921875 33.984375 69.078125 20.386719 94.476563 20.386719h142.613281c-1.351563 7.363281-2.035157 14.828125-2.039063 22.3125 1.011719 71.589843 59.636719 128.929687 131.230469 128.359375 72.050781-.695313 130.675781-58.195313 132.769531-130.214844 0-.195312-.109375-.3125-.136718-.488281-.023438-.175781.117187-.285157.109374-.445313-1.789062-65.816406-51.988281-120.164062-117.457031-127.160156v-193.191406c0-9.074219 2.519531-24.828125-2.828125-33.160156-12.3125-19.121094-62.765625-9.804688-80.117187-9.804688h-171.183594c-32.601563 0-69.757813-5.128906-102.003906 0-30.34375 4.816406-25.433594 29.535156-25.433594 53.902344v160.0625c0 33.363281-7.628906 76.773437 0 109.441406zm72.804687 12.332031c-12.386718 0-33.457031 4.261719-45.113281 0-26.601562-9.738281-15.4375-62.421875-15.4375-84.332031v-152.835938c0-5.1875-.957031-14.148437-1.8125-24.472656h140.691407v261.640625zm90.480469 0v-261.640625h208.949219c-.839844 18.144532-2.921875 35.25-2.921875 44.316406v117.046876c-4.273437 0-8.585937.09375-12.960937.476562-56.238282 5.292969-103.179688 45.160156-117.507813 99.800781zm323.535157 30.214844c-3.238282 68.324219-56.414063 127.464844-128.933594 120.699219-62.722656-6.773438-110.234375-59.773438-110.136719-122.863282 0-73.023437 65.191406-132.128906 138.769531-118.660156 59.894532 10.972656 97.421875 62.0625 100.300782 120.847656zm-465.835938-357.894531c14.890625-8.890625 62.640625 0 79.402344 0h215.601562c10.59375 0 27.925782-3.492188 38.023438 0 16.652344 5.765625 19.304687 33.285156 18.464844 60.195312h-210.472657c-1.574219-.410156-3.222656-.410156-4.792969 0h-147.214843c-1.726563-23.878906-1.964844-52.476562 10.988281-60.195312zm0 0"/><path d="m272.46875 357.777344c-6.554688 58.191406 40.144531 103.675781 95.9375 106.6875.140625 0 .277344-.050782.425781-.050782.378907.074219.757813.113282 1.140625.117188 53.015625-2.859375 98.574219-41.964844 98.976563-97.460938-.621094-53.367187-43.902344-96.382812-97.269531-96.675781-50.339844.03125-92.824219 37.449219-99.210938 87.382813zm96.726562-77.386719c110.273438.839844 114.71875 168.078125 2.113282 174.582031-40.789063-1.152344-75.6875-29.636718-84.984375-69.371094-11.992188-52.117187 28.714843-105.648437 82.871093-105.210937zm0 0"/><path d="m40.84375 43.972656h8.390625c3.085937.292969 6.105469-1.03125 7.976563-3.5 1.265624-2.476562-1.09375-4.199218-3.476563-4.199218h-8.394531c-3.082032-.296876-6.097656 1.027343-7.972656 3.492187-1.265626 2.441406 1.089843 4.207031 3.476562 4.207031zm0 0"/><path d="m82.828125 44.039062h8.390625c3.09375.304688 6.121094-1.03125 7.976562-3.527343 1.242188-2.515625-1.085937-4.347657-3.511718-4.347657h-8.390625c-3.09375-.304687-6.121094 1.03125-7.976563 3.527344-1.242187 2.484375 1.085938 4.347656 3.511719 4.347656zm0 0"/><path d="m123.066406 42.519531h8.390625c3.027344.058594 6.011719-.742187 8.605469-2.308593 1.746094-1.191407 1.828125-2.519532-.679688-2.519532h-8.394531c-3.027343-.058594-6.011719.742188-8.601562 2.308594-1.746094 1.183594-1.832031 2.519531.679687 2.519531zm0 0"/><path d="m40.648438 127.210938h8.394531c3.019531.171874 5.964843-.988282 8.058593-3.175782 1.484376-2.339844-1.269531-3.136718-3.171874-3.136718h-8.394532c-3.027344-.167969-5.972656 1.003906-8.058594 3.203124-1.484374 2.308594 1.265626 3.109376 3.171876 3.109376zm0 0"/><path d="m124.507812 126.972656c3.921876 0 13.121094-5.875 5.035157-5.875h-41.964844c-3.921875 0-13.121094 5.875-5.035156 5.875zm0 0"/><path d="m39.1875 160.230469h8.394531c3.035157.132812 6.035157-.671875 8.59375-2.308594 1.679688-1.25 1.832031-2.929687-.789062-2.929687h-8.390625c-3.035156-.136719-6.039063.671874-8.597656 2.308593-1.675782 1.25-1.828126 2.929688.789062 2.929688zm0 0"/><path d="m84.589844 162.320312h41.964844c7.128906 0 9.175781-9.417968.941406-9.417968h-41.96875c-7.125 0-9.171875 9.417968-.9375 9.417968zm0 0"/><path d="m40.574219 194.113281h8.394531c3.007812.125 5.9375-.996093 8.089844-3.105469 1.453125-2.292968-1.25-2.753906-3.070313-2.753906h-8.394531c-3.011719-.125-5.9375 1-8.09375 3.105469-1.441406 2.292969 1.261719 2.753906 3.074219 2.753906zm0 0"/><path d="m124.507812 193.9375c3.695313 0 13.179688-5.507812 5.105469-5.507812h-41.96875c-3.691406 0-13.179687 5.507812-5.101562 5.507812zm0 0"/><path d="m51.972656 220.125h-8.394531c-3.109375-.035156-5.847656 2.035156-6.664063 5.035156-.292968 3.214844 3.179688 4.195313 5.691407 4.195313h8.394531c3.109375.039062 5.847656-2.035157 6.664062-5.035157.292969-3.1875-3.183593-4.195312-5.691406-4.195312zm0 0"/><path d="m127.539062 220.191406h-41.96875c-7.03125 0-9.230468 9.132813-1.023437 9.132813h41.96875c7.03125 0 9.265625-9.132813 1.023437-9.132813zm0 0"/><path d="m42.605469 262.980469h8.394531c7.082031 0 9.230469-9.300781.972656-9.300781h-8.394531c-7.082031 0-9.214844 9.300781-.972656 9.300781zm0 0"/><path d="m87.578125 255.402344c-3.902344 0-13.121094 5.875-5.035156 5.875h41.964843c3.902344 0 13.121094-5.875 5.035157-5.875zm0 0"/><path d="m53.953125 288.824219h-8.394531c-3.019532-.160157-5.964844.992187-8.074219 3.164062-1.417969 2.34375 1.226563 2.996094 3.140625 2.996094h8.394531c3.019531.160156 5.964844-.992187 8.074219-3.164063 1.417969-2.339843-1.226562-2.996093-3.140625-2.996093zm0 0"/><path d="m129.257812 287.976562h-41.964843c-2.476563 0-6.96875.730469-7.976563 3.515626-.90625 2.519531.800782 4.339843 3.511719 4.339843h41.964844c2.476562 0 6.96875-.730469 7.972656-3.515625.910156-2.527344-.796875-4.339844-3.507813-4.339844zm0 0"/><path d="m217.609375 181.582031c-6.191406-5.273437-12.09375-10.875-17.675781-16.789062.097656 1.175781 4.363281-3.683594 5.378906-4.691407l11.1875-11.1875c5.597656-5.59375 11.191406-11.191406 16.789062-16.785156 2.75-2.761718-8.847656-1.578125-11.082031.652344-11.191406 11.191406-22.382812 22.382812-33.574219 33.574219-.5625.5625-.761718 1.226562-.167968 1.8125l33.574218 33.574219c2.367188 2.367187 13.613282-2.082032 11.417969-4.28125zm0 0"/><path d="m338.222656 167.027344-31.449218 31.441406c-5.039063 5.035156 6.824218 5.214844 9.820312 2.214844l33.574219-33.570313c.835937-.839843 1.863281-2.394531.71875-3.535156l-33.574219-33.574219c-3.113281-3.113281-14.652344 1.460938-11.261719 4.851563zm0 0"/><path d="m272.089844 133.429688-16.785156 67.144531c-.765626 3.066406 11.203124 1.320312 12.035156-1.996094 5.59375-22.382813 11.191406-44.765625 16.785156-67.148437.765625-3.0625-11.203125-1.316407-12.035156 2zm0 0"/><path d="m339.582031 403.3125c2.753907 2.742188 9.105469-.144531 11.289063-2.335938l58.753906-58.753906c3.289062-3.28125-8.679688-2.464844-11.230469.085938l-51.945312 51.9375c-4.109375-4.097656-8.210938-8.199219-12.304688-12.304688-2.761719-2.761718-14.21875 1.679688-11.347656 4.582032 5.597656 5.601562 11.195313 11.199218 16.785156 16.789062zm0 0"/></g></svg>