<svg height="512" viewBox="0 0 44 60" width="512" xmlns="http://www.w3.org/2000/svg"><g id="018---Mobile-Bar-Chart" fill="none"><path id="Path" d="m5.988 52.479c-.22259707-.0002631-.41821384-.1476474-.47985554-.3615395-.06164171-.213892.02553813-.4427757.21385554-.5614605l12.459-7.862-13.717 7.919c-.23620749.133071-.53543293.0536509-.67455995-.1790411-.13912701-.2326919-.06746125-.5338687.16155995-.6789589l7.049-4.355-6.72 3.881c-.23402298.1252853-.52515789.0458598-.66313509-.1809119-.13797721-.2267718-.07469786-.5218373.14413509-.6720881l17.918-11.493-17.4 10.045c-.23402298.1252853-.52515789.0458598-.66313509-.1809119-.13797721-.2267718-.07469786-.5218373.14413509-.6720881l17.975-11.533-17.456 10.078c-.23551248.13196-.53324972.0531389-.67262044-.1780652-.13937073-.2312042-.07004227-.5312938.15662044-.6779348l14.085-8.876-13.57 7.834c-.23628449.1306359-.5336041.0500916-.67163931-.181948s-.06692381-.5317553.16063931-.677052l3.382-2.072-2.871 1.657c-.23486417.1312813-.53150396.0531604-.67124116-.1767732-.1397372-.2299337-.07245767-.5292187.15224116-.6772268l17.678-11.323-17.16 9.906c-.23460579.1253855-.5263122.0451285-.66376043-.18262s-.07251115-.523243.14776043-.67238l14.356-9.057-13.84 7.991c-.23551248.13196-.53324972.0531389-.67262044-.1780652-.13937073-.2312042-.07004227-.5312938.15662044-.6779348l14.367-9.063-13.851 8c-.23620749.133071-.53543293.0536509-.67455995-.1790411-.13912701-.2326919-.06746125-.5338687.16155995-.6789589l10.028-6.241-9.516 5.494c-.23497088.1292146-.53003872.050062-.66879247-.179405-.13875376-.2294671-.07178369-.5275361.15179247-.675595l15.411-9.764-14.894 8.6c-.23551248.13196-.53324972.0531389-.67262044-.1780652-.13937073-.2312042-.07004227-.5312938.15662044-.6779348l14.152-8.921-13.637 7.872c-.23402298.1252853-.52515789.0458598-.66313509-.1809119-.13797721-.2267718-.07469786-.5218373.14413509-.6720881l16.364-10.462-15.845 9.147c-.23389628.1269547-.52624912.04845-.66508708-.1785941-.13883795-.227044-.07550148-.5230536.14408708-.6734059l14.353-9.261-13.833 7.986c-.23332909.1269664-.52520994.0493179-.66460758-.1768043-.13939765-.2261221-.07764593-.5217747.14060758-.6731957l13.078-8.592-12.554 7.247c-.23332909.1269664-.52520994.0493179-.66460758-.1768043-.13939765-.2261221-.07764593-.5217747.14060758-.6731957l9.474-6.207-8.95 5.166c-.23240668.1328499-.52821577.0590851-.67103328-.1673329s-.08196881-.5251514.13803328-.6776671l9.944-6.834-9.412 5.433c-.23229375.1351768-.52989283.0625367-.67378421-.164462-.14389139-.2269988-.08259275-.5271392.13878421-.679538l7.1-4.933-6.569 3.792c-.23265.1288599-.5254615.0530472-.66634439-.1725252s-.08052968-.5219566.13734439-.6744748l2.631-1.774-2.1 1.213c-.22838347.1299972-.51842376.0610156-.66382816-.1578813-.14540441-.2188968-.09654436-.5129964.11182816-.6731187l4.707-3.573-4.155 2.4c-.22292368.1277986-.50642231.0658196-.65567843-.1433455-.14925611-.2091652-.11566994-.4974096.07767843-.6666545l3.407-2.964-2.829 1.632c-.22072755.1320893-.5056598.0751513-.65867239-.1316224-.15301258-.2067738-.12417106-.4959044.06667239-.6683776l1.369-1.29-.777.449c-.19576706.1124908-.4426335.0798244-.60240462-.0797128-.15977111-.1595372-.19279924-.4063555-.08059538-.6022872l.671-1.166c-.15223219-.02151389-.2861028-.11186733-.363-.245-.0666188-.11492931-.08476389-.25164482-.05043057-.37997265.03433332-.12832784.11832247-.23771796.23343057-.30402735l1.184-.676c.19576706-.11249082.4426335-.07982437.60240462.07971282.15977111.15953719.19279924.40635551.08059538.60228718l-.564.982 2.883-1.664c.22072755-.13208931.5056598-.07515133.65867239.13162243.15301258.20677376.12417106.49590434-.06667239.66837757l-1.369 1.283 3.612-2.083c.2230421-.1299097.508313-.0686909.6584139.14129487.150101.20998576.1156933.49971551-.0794139.66870513l-3.405 2.956 6.531-3.766c.2283835-.12999717.5184238-.06101556.6638282.15788129s.0965443.51299637-.1118282.67311871l-4.708 3.569 7.632-4.406c.2322377-.12731148.5234633-.05144622.664069.17299225.1406056.22443847.0818101.51958413-.134069.67300775l-2.63 1.775 4.542-2.622c.2322938-.13517681.5298928-.06253672.6737842.16446202s.0825928.52713916-.1387842.67953798l-7.108 4.935 10.011-5.779c.2324067-.13284986.5282158-.05908515.6710333.16733285s.0819688.52515148-.1380333.67766715l-9.942 6.836 13.309-7.682c.2333291-.12696636.5252099-.04931787.6646076.17680427.1393976.22612213.0776459.5217747-.1406076.67319573l-9.475 6.208 12.229-7.059c.2333291-.12696636.5252099-.04931787.6646076.17680427.1393976.22612213.0776459.5217747-.1406076.67319573l-13.076 8.591 16.356-9.442c.2338963-.12695469.5262491-.04844997.6650871.17859405.1388379.22704402.0755015.5230536-.1440871.67340595l-14.364 9.265 17.467-10.081c.234023-.12528526.5251579-.04585984.6631351.18091194s.0746978.5218373-.1441351.67208806l-16.351 10.454 16.785-9.691c.2355125-.13195996.5332497-.0531389.6726204.17806525.1393708.23120415.0700423.53129378-.1566204.67793475l-14.163 8.927 13.648-7.879c.2363779-.1427656.5437344-.0668778.6865.1695.1427656.2363779.0668779.5437344-.1695.6865l-15.4 9.757 14.884-8.593c.2352087-.125628.5276152-.0445694.664573.1842276.1369579.228797.070267.5248112-.151573.6727724l-10.029 6.238 9.516-5.494c.2346058-.1253855.5263122-.0451285.6637604.18262.1374483.2277485.0725112.523243-.1477604.67238l-14.367 9.064 13.851-8c.2355125-.13196.5332497-.0531389.6726204.1780652.1393708.2312042.0700423.5312938-.1566204.6779348l-14.367 9.066 13.851-8c.2348642-.1312813.531504-.0531604.6712412.1767732.1397372.2299337.0724576.5292187-.1522412.6772268l-17.678 11.327 17.16-9.906c.2362845-.1306359.5336041-.0500916.6716393.181948s.0669238.5317553-.1606393.677052l-3.357 2.058 2.846-1.643c.2355125-.13196.5332497-.0531389.6726204.1780652.1393708.2312042.0700423.5312938-.1566204.6779348l-14.085 8.875 13.57-7.834c.234023-.1252853.5251579-.0458598.6631351.1809119.1379772.2267718.0746978.5218373-.1441351.6720881l-17.975 11.533 17.456-10.078c.2348642-.1312813.531504-.0531604.6712412.1767732.1397372.2299337.0724576.5292187-.1522412.6772268l-17.918 11.493 17.4-10.046c.2357179-.1278172.530297-.0469384.667702.1833224.137405.2302607.0687118.5279174-.155702.6746776l-7.06 4.361 6.548-3.78c.2346058-.1253855.5263122-.0451285.6637604.18262.1374483.2277485.0725112.523243-.1477604.67238l-12.459 7.861 11.943-6.894c.2346058-.1253855.5263122-.0451285.6637604.18262.1374483.2277485.0725112.523243-.1477604.67238l-9.426 5.944 8.911-5.144c.2361017-.1433179.5436821-.0681017.687.168s.0681017.5436821-.168.687l-9.274 5.921 8.755-5.055c.2347345-.1238045.5252986-.0426548.6619149.1848618.1366163.2275167.0716853.5221296-.1479149.6711382l-1.492.933.978-.565c.2363779-.1427656.5437344-.0668778.6865.1695.1427656.2363779.0668779.5437344-.1695.6865l-2.686 1.7 2.17-1.252c.2342478-.1308833.5300435-.0535271.6702262.1752769s.074765.527467-.1482262.6767231l-5.172 3.36 4.65-2.684c.2343611-.1288923.5286543-.0505227.6678755.1778537.1392213.2283764.0740613.5258734-.1478755.6751463l-1.6 1.032 1.081-.624c.23158-.1294027.5239091-.0554223.6660571.1685604.142148.2239828.0846277.5199909-.1310571.6744396l-5.913 4.108 5.379-3.1c.2314518-.1313128.5252013-.0583356.6682918.1660259.1430904.2243616.0853808.5214879-.1312918.6759741l-3.616 2.534 3.079-1.777c.2271002-.1265913.5133226-.0580067.6583864.1577626.1450637.2157693.100553.506709-.1023864.6692374l-3.864 3 3.308-1.91c.2256098-.1311968.5141774-.0668035.6626093.1478598.1484318.2146634.1067938.5073817-.0956093.6721402l-2.066 1.69 1.5-.864c.215258-.1229472.4881008-.0696094.6412115.1253499.1531108.1949593.1402554.4726694-.0302115.6526501l-1.32 1.38.709-.409c.202041-.1157344.4572269-.0766878.6154163.0941663s.1775056.4282864.0465837.6208337l-.515.753c.1681887.0793559.2784387.2455001.2862069.4313077s-.0882289.3605747-.2492069.4536923l-1.164.668c-.202041.1157344-.4572269.0766878-.6154163-.0941663s-.1775056-.4282864-.0465837-.6208337l.233-.342-1.833 1.057c-.215258.1229472-.4881008.0696094-.6412115-.1253499-.1531108-.1949593-.1402554-.4726694.0302115-.6526501l1.32-1.38-3.74 2.158c-.2251719.1281476-.5109328.0630663-.6584056-.14995-.1474728-.2130162-.107801-.5033971.0914056-.66905l2.061-1.691-4.351 2.515c-.2272713.1290292-.5155715.0612656-.6615658-.155498-.1459944-.2167636-.1004262-.5093938.1045658-.671502l3.867-3.005-6.638 3.832c-.2314518.1313128-.5252013.0583356-.6682918-.1660259-.1430904-.2243616-.0853808-.5214879.1312918-.6759741l3.619-2.535-5.854 3.378c-.23158.1294027-.5239091.0554223-.6660571-.1685604-.142148-.2239828-.0846277-.5199909.1310571-.6744396l5.907-4.1-8.572 4.944c-.2338963.1269547-.5262491.04845-.6650871-.1785941-.1388379-.227044-.0755015-.5230536.1440871-.6734059l1.6-1.034-3.269 1.887c-.2334572.1253051-.5241289.0467367-.6626677-.1791186-.1385388-.2258554-.0768365-.5205686.1406677-.6718814l5.179-3.366-7.3 4.217c-.2354379.13455-.5352149.0569022-.6757281-.1750261-.1405133-.2319283-.0705395-.5335888.1577281-.6799739l2.688-1.7-4.426 2.555c-.2350866.127347-.5287583.0472199-.6665908-.1818764-.1378325-.2290964-.071048-.5260868.1515908-.6741236l1.482-.925-3.087 1.781c-.2354116.1379583-.5379577.061708-.6798637-.1713453-.1419059-.2330532-.070765-.5368414.1598637-.6826547l9.279-5.924-11.743 6.78c-.23460579.1253855-.5263122.0451285-.66376043-.18262s-.07251115-.523243.14776043-.67238l9.422-5.942-11.775 6.8c-.07610507.0435393-.16232127.0663003-.25.066z" fill="#1c85ad"/><path id="Path" d="m3.438 47.471c-.2227823.0001822-.41880952-.1470511-.48071654-.3610592-.06190703-.2140082.02524258-.4431572.21371654-.5619408l18.958-12.009-20.58 11.882c-.23665402.1424895-.54401053.066154-.6865-.1705-.14248946-.236654-.06615401-.5440105.1705-.6865l17.851-11.17-17.604 10.163c-.2372063.1413849-.54411508.0637063-.68549997-.1735s-.06370631-.5441151.17349997-.6855l12.515-7.717-12 6.93c-.23583577.1260453-.52910097.0442222-.66561588-.1857118-.13651491-.2299339-.06795176-.5265795.15561588-.6732882l7.1-4.332-6.586 3.8c-.23560872.1297647-.5316571.04988-.67000668-.1807924-.13834958-.2306723-.06941665-.5294607.15600668-.6762076l16.762-10.45-16.255 9.387c-.23698876.1350471-.53848394.055235-.67761558-.1793791-.13913163-.2346142-.06455352-.5374465.16761558-.6806209l8.353-5.114-7.844 4.526c-.23460579.1253855-.5263122.0451285-.66376043-.18262s-.07251115-.523243.14776043-.67238l16.925-10.647-16.409 9.473c-.23473446.1238045-.5252986.0426548-.6619149-.1848618-.13661629-.2275167-.07168534-.5221296.1479149-.6711382l11.574-7.223-11.06 6.385c-.23628449.1306359-.5336041.0500916-.67163931-.181948s-.06692381-.5317553.16063931-.677052l3.558-2.189-3.047 1.759c-.23617349.1361818-.537908.0580681-.67833183-.1756081-.14042384-.2336761-.06777082-.5367718.16333183-.6813919l8.2-5.14-7.685 4.434c-.23520866.125628-.52761522.0445694-.66457305-.1842276-.13695782-.228797-.07026696-.5248112.15157305-.6727724l1.872-1.16-1.359.784c-.23365564.130691-.52879264.0541466-.66947868-.1736308s-.0769932-.5259521.14447868-.6763692l11.523-7.6-11 6.35c-.23358769.1237383-.52313261.0442789-.66084289-.1813541-.13771027-.225633-.07600068-.5194731.14084289-.6706459l5.739-3.7-5.217 3.015c-.23296731.1327691-.52919188.0581284-.67142871-.1691822-.14223683-.2273105-.07984054-.5263539.14142871-.6778178l8.015-5.428-7.485 4.321c-.23405687.1357068-.53360081.0606207-.67597038-.1694442s-.07591293-.5316408.14997038-.6805558l3.676-2.44-3.15 1.818c-.2313261.1333882-.5266402.061466-.67072696-.1633522-.14408676-.2248181-.08608875-.5231794.13172696-.6776478l5.1-3.617-4.561 2.634c-.22920156.1303039-.52019781.0602449-.66497921-.1600976-.14478139-.2203425-.09359105-.5152436.11697921-.6739024l3.815-2.835-3.267 1.886c-.22458545.1309436-.51204661.0679354-.66127016-.144943-.14922355-.2128783-.11041686-.5045939.08927016-.671057l3.04-2.555-2.468 1.424c-.21886603.1231702-.49513807.0648746-.64558113-.1362227s-.12836926-.4825886.05158113-.6577773l1.447-1.381-.853.491c-.20543668.1177728-.46531664.0752838-.62254849-.1017834-.15723186-.1770673-.16869136-.4401483-.02745151-.6302166l.623-.832c-.21101364-.0302381-.37965165-.1909347-.42002521-.4002457-.04037356-.2093109.05639686-.4212016.24102521-.5277543l1.627-.94c.20573439-.1198976.46747779-.0780715.62560202.0999701s.1687504.4428927.02539798.6330299l-.461.615 2.359-1.359c.21896266-.1248229.49659946-.0671571.64774363.1345378s.12853712.4843546-.05274363.6594622l-1.444 1.377 3.764-2.171c.22417026-.1280952.50900662-.0644456.65732826.1468868.14832165.2113324.11134683.5008421-.08532826.6681132l-3.036 2.553 5.837-3.368c.2292016-.1303039.5201978-.0602449.6649792.1600976s.0935911.5152436-.1169792.6739024l-3.815 2.833 6.356-3.67c.2313261-.1333882.5266402-.061466.670727.1633522.1440867.2248181.0860887.5231794-.131727.6776478l-5.1 3.618 7.721-4.456c.233204-.1287421.5263939-.0520483.6666872.1743946.1402933.226443.0784231.5231151-.1406872.6746054l-3.675 2.44 5.7-3.289c.2322377-.1273115.5234633-.0514462.664069.1729923.1406056.2244384.0818101.5195841-.134069.6730077l-8.018 5.431 10.872-6.277c.2335877-.1237383.5231326-.0442789.6608429.1813541s.0760007.5194731-.1408429.6706459l-5.735 3.7 7.88-4.549c.2329061-.1254293.5232086-.0477402.6623373.1772508s.0789338.5194187-.1373373.6717492l-11.522 7.6 14.63-8.452c.2352087-.125628.5276152-.0445694.664573.1842276.1369579.228797.070267.5248112-.151573.6727724l-1.889 1.171 3.513-2.028c.2355125-.13196.5332497-.0531389.6726204.1780652.1393708.2312042.0700423.5312938-.1566204.6779348l-8.202 5.144 10.393-6c.2357179-.1278172.530297-.0469384.667702.1833224.137405.2302607.0687118.5279174-.155702.6746776l-3.554 2.187 5.279-3.045c.2347345-.1238045.5252986-.0426548.6619149.1848618.1366163.2275167.0716853.5221296-.1479149.6711382l-11.584 7.224 14-8.083c.2349709-.1292146.5300387-.050062.6687925.179405.1387537.2294671.0717837.5275361-.1517925.675595l-16.919 10.648 18.606-10.746c.2362845-.1306359.5336041-.0500916.6716393.181948s.0669238.5317553-.1606393.677052l-8.345 5.106 8.3-4.794c.2369302-.1422133.5442867-.0654301.6865.1715.1422133.2369302.0654301.5442867-.1715.6865l-16.761 10.45 16.266-9.391c.2369888-.1350471.5384839-.055235.6776156.1793791.1391316.2346142.0645535.5374465-.1676156.6806209l-7.1 4.332 6.586-3.8c.2357179-.1278172.530297-.0469384.667702.1833224.137405.2302607.0687118.5279174-.155702.6746776l-12.511 7.715 12-6.929c.2350866-.127347.5287583-.0472199.6665908.1818764.1378325.2290964.071048.5260868-.1515908.6741236l-17.832 11.166 17.325-10c.2363779-.1427656.5437344-.0668778.6865.1695.1427656.2363779.0668779.5437344-.1695.6865l-18.976 12.013 18.455-10.654c.2352087-.125628.5276152-.0445694.664573.1842276.1369579.228797.070267.5248112-.151573.6727724l-10.724 6.668 10.211-5.894c.2349709-.1292146.5300387-.050062.6687925.179405.1387537.2294671.0717837.5275361-.1517925.675595l-12.912 8.18 12.395-7.155c.2341527-.123715.5241564-.0433988.6613045.1831476.1371481.2265465.0738659.5207372-.1443045.6708524l-10.152 6.44 9.635-5.563c.2354379-.13455.5352149-.0569022.6757281.1750261.1405133.2319283.0705395.5335888-.1577281.6799739l-8 5.086 7.479-4.317c.2347713-.1336383.5332399-.0566316.6740509.1739091.1408109.2305408.0730402.5312411-.1530509.6790909l-8.283 5.366 7.765-4.483c.2355125-.13196.5332497-.0531389.6726204.1780652.1393708.2312042.0700423.5312938-.1566204.6779348l-.577.364.061-.035c.234481-.1270728.5274228-.0477401.6657366.1802909.1383139.2280309.0733058.5244809-.1477366.6737091l-1.115.71.6-.343c.2314574-.1247242.5199691-.0488817.6601699.1735422.1402009.2224239.0841872.5154316-.1281699.6704578l-6.546 4.488 6.011-3.471c.2314518-.1313128.5252013-.0583356.6682918.1660259.1430904.2243616.0853808.5214879-.1312918.6759741l-4.907 3.442 4.37-2.522c.2262036-.1284409.5131028-.0619842.6597948.1528333.1466919.2148176.1041677.5062269-.0977948.6701667l-5.089 4.074 4.527-2.613c.2201191-.1211079.4959248-.0600693.6443868.1426092s.1234717.48405-.0583868.6573908l-3.05 2.77 2.464-1.422c.2089623-.1200463.4738237-.0739562.6299505.1096215s.1590908.4524031.0070495.6393785l-1.345 1.648.643-.371c.1549945-.0985297.351531-.1041539.5119064-.0146489.1603754.0895049.2587712.2597296.2562855.4433739s-.1054527.3511436-.2681919.436275l-3.006 1.731c-.2089623.1200463-.4738237.0739562-.6299505-.1096215s-.1590908-.4524031-.0070495-.6393785l1.345-1.647-4.152 2.4c-.2201191.1211079-.4959248.0600693-.6443868-.1426092s-.1234717-.48405.0583868-.6573908l3.048-2.764-6.179 3.56c-.2262036.1284409-.5131028.0619842-.6597948-.1528333-.1466919-.2148176-.1041677-.5062269.0977948-.6701667l5.091-4.077-8.487 4.9c-.230817.1267753-.5204005.0527915-.6621232-.1691615-.1417226-.221953-.0869993-.5157856.1251232-.6718385l4.9-3.44-7.413 4.281c-.2314574.1247242-.5199691.0488817-.6601699-.1735422-.1402009-.2224239-.0841872-.5154316.1281699-.6704578l6.551-4.484-9.238 5.328c-.2348642.1312813-.531504.0531604-.6712412-.1767732-.1397372-.2299337-.0724576-.5292187.1522412-.6772268l1.124-.716-2.721 1.57c-.2346058.1253855-.5263122.0451285-.6637604-.18262-.1374483-.2277485-.0725112-.523243.1477604-.67238l.567-.358-2.097 1.213c-.2342478.1308833-.5300435.0535271-.6702262-.1752769s-.074765-.527467.1482262-.6767231l8.293-5.374-10.789 6.226c-.2348642.1312813-.531504.0531604-.6712412-.1767732-.1397372-.2299337-.0724576-.5292187.1522412-.6772268l8-5.089-10.294 5.943c-.234481.1270728-.5274228.0477401-.6657366-.1802909-.1383139-.2280309-.0733058-.5244809.1477366-.6737091l10.149-6.432-12.629 7.286c-.23448097.1270728-.52742279.0477401-.66573664-.1802909-.13831386-.2280309-.07330581-.5244809.14773664-.6737091l12.917-8.181-15.656 9.035c-.23331024.1159307-.51653911.0332836-.6508858-.1899306-.13434669-.2232141-.07478169-.5121798.1368858-.6640694l10.728-6.67-13.04 7.524c-.07561844.0452887-.16186523.0697828-.25.071z" fill="#136b87"/><path id="Path" d="m4.042 9.5c-.21223688.0000468-.40137795-.13390063-.47179103-.33411675-.07041309-.20021612-.00675375-.42306976.15879103-.55588325l4.862-3.91-4.312 2.484c-.22681472.12994997-.51544746.06325566-.66225808-.15302785-.14681062-.2162835-.10224336-.50914993.10225808-.67197215l1.908-1.516-1.348.778c-.22636151.14164972-.52407887.080432-.6761853-.13903967-.15210642-.21947166-.10491385-.5197317.1071853-.68196033l.5-.416c-.21631727.07528689-.45612985-.00603495-.58203371-.19737103-.12590386-.19133607-.10570073-.44375468.04903371-.61262897l.812-.89c-.17912041-.07072629-.30170179-.23803652-.31514935-.43014455-.01344756-.19210802.08462916-.37486432.25214935-.46985545l1.935-1.108c.21321829-.12135773.48298813-.07008988.63682344.12102378.15383532.19111367.14628499.46560802-.01782344.64797622l-.384.422 2.204-1.267c.22459856-.12700926.5089574-.06225633.65641904.14947682.14746165.21173315.10959197.50090228-.08741904.66752318l-.469.383 2.082-1.2c.226507-.12916814.5142486-.06258554.6609917.15295162.1467432.21553715.103215.50765663-.0999917.67104838l-1.907 1.514 4.052-2.338c.2260575-.13015584.5141897-.06465955.6617686.15042885.1475789.21508839.1050107.50748857-.0977686.67157115l-4.861 3.913 8.209-4.735c.2322377-.12731148.5234633-.05144622.664069.17299225.1406056.22443847.0818101.51958413-.134069.67300775l-.142.1 1.632-.946c.226507-.12916814.5142486-.06258554.6609917.15295162.1467432.21553715.103215.50765663-.0999917.67104838l-4.722 3.743 7.916-4.567c.2290632-.13219787.5214568-.06314799.6671806.15755725.1457237.22070524.094369.51671981-.1171806.67544275l-3.933 2.942 6.546-3.775c.230817-.12677527.5204005-.05279146.6621232.16916153.1417226.221953.0869993.51578559-.1251232.67183847l-2.139 1.5 4.064-2.341c.2311923-.12801413.5220815-.05401297.6639947.16891785s.0858401.51780111-.1279947.67308215l-1.9 1.332 3.764-2.174c.228242-.1318458.5196375-.06386204.6659708.15537372.1463332.21923576.0973404.51441845-.1119708.67462628l-4.232 3.222 7.024-4.052c.2299138-.13282353.5235501-.06277315.6687427.15953646.1451926.2223096.0912979.51933596-.1227427.67646354l-3.487 2.556 5.639-3.256c.2290632-.13219787.5214568-.06314799.6671806.15755725.1457237.22070523.094369.51671981-.1171806.67544275l-3.7 2.771 4.677-2.7c.2263468-.12679976.5120755-.05940926.6579064.15517041.1458308.21457967.1033101.50505233-.0979064.66882959l-3.385 2.682 3.487-2.012c.2269587-.12823252.5143539-.06057953.6602778.15542976.145924.21600929.1014061.50788441-.1022778.67057024l-1.332 1.04.867-.5c.2079146-.11942938.4713404-.07444985.6278456.10720358.1565052.18165344.1620244.44883481.0131544.63679642l-1.567 1.977.942-.544c.1787037-.10340524.402588-.08633641.5635503.04296478s.2258967.34424086.1634497.54103522l-.284.9c.1795906.06985744.3030538.23670116.3173596.42886823.0143057.19216708-.0830923.37545269-.2503596.47113177l-.6.346c-.1786543.10270421-.4020199.08528211-.5625889-.04388089-.1605691-.129163-.2254485-.34360735-.1634111-.54011911l.2-.632-2.114 1.209c-.2079723.120645-.4723656.07618507-.6294405-.10584566-.157075-.18203073-.1623505-.45008421-.0125595-.63815434l1.571-1.973-4.712 2.72c-.2269587.12823252-.5143539.06057953-.6602778-.15542976-.145924-.21600929-.1014061-.50788441.1022778-.67057024l1.329-1.038-3.239 1.871c-.226507.12916814-.5142486.06258554-.6609917-.15295162-.1467432-.21553715-.103215-.50765663.0999917-.67104838l3.384-2.686-6.084 3.513c-.2290632.13219788-.5214568.06314799-.6671806-.15755725-.1457237-.22070523-.094369-.51671981.1171806-.67544275l3.7-2.768-6.243 3.6c-.2299138.13282353-.5235501.06277315-.6687427-.15953646-.1451926-.2223096-.0912979-.51933596.1227427-.67646354l3.49-2.56-5.888 3.4c-.228242.1318458-.5196375.06386204-.6659708-.15537372-.1463332-.21923576-.0973404-.51441845.1119708-.67462628l4.229-3.225-7.03 4.058c-.2318603.13306172-.527371.0602043-.6708066-.16538571-.1434357-.22559001-.0840493-.52409963.1348066-.67761429l1.9-1.33-3.761 2.177c-.2314518.13131281-.5252013.05833565-.6682918-.16602591-.1430904-.22436156-.0853808-.52148787.1312918-.67597409l2.141-1.5-4.069 2.344c-.2290632.13219788-.5214568.06314799-.6671806-.15755725-.1457237-.22070523-.094369-.51671981.1171806-.67544275l3.932-2.946-6.55 3.782c-.22634684.12679976-.51207555.05940926-.6579064-.15517041-.14583084-.21457967-.1033101-.50505233.0979064-.66882959l4.722-3.748-7.923 4.575c-.23296731.1327691-.52919188.0581284-.67142871-.16918215-.14223683-.22731056-.07984054-.52635392.14142871-.67781785l.143-.1-1.638.946c-.07554354.0453409-.16189555.06951946-.25.07z" fill="#ced2dc"/><path id="Path" d="m23.382 59.471c-.2179249-.0002653-.4105775-.141646-.4761907-.349459-.0656131-.2078131.0109278-.4341868.1891907-.559541l1.978-1.385-3.857 2.223c-.2304519.1256553-.5188365.0517188-.6604036-.1693153-.1415671-.2210342-.088116-.5139083.1224036-.6706847l2.356-1.66-4.342 2.5c-.2288588.1292299-.518701.0592157-.6633326-.1602346-.1446317-.2194502-.0946742-.513414.1143326-.6727654l3.924-2.939-6.534 3.772c-.2306836.128482-.5215078.0554404-.6641078-.1667933s-.0878131-.5170425.1251078-.6732067l2.538-1.8-4.579 2.64c-.2300482.1308569-.5222207.059778-.6664488-.1621318-.1442281-.2219099-.0905463-.5177734.1224488-.6748682l3.269-2.378-5.57 3.215c-.23170998.1276221-.52273121.0526794-.6639792-.1709853s-.08383998-.5186462.1309792-.6730147l1.209-.833-2.906 1.677c-.23145743.1247242-.51996908.0488817-.66016993-.1735422-.14020086-.2224239-.08418722-.5154316.12816993-.6704578l.933-.641-2.179 1.259c-.22871944.1310429-.51988771.0620127-.66543532-.1577616-.14554761-.2197742-.09547523-.5147944.11443532-.6742384l3.722-2.806-4.421 2.555c-.22991383.1328235-.52355008.0627731-.66874271-.1595365-.14519264-.2223096-.09129791-.5193359.12274271-.6764635l1.731-1.273-1.653.955c-.22033537.1244491-.49891194.0646624-.64877854-.1392378-.1498666-.2039001-.12376913-.4876223.06077854-.6607622l2.622-2.409-2.136 1.231c-.22063558.1300292-.50385102.072325-.65602439-.1336626-.15217338-.2059876-.12410138-.4936554.06502439-.6663374l.557-.52c-.16765787.0781594-.36454894.0590066-.514-.05-.15957106-.1185321-.23377294-.3203298-.189-.514l.3-1.3c-.17912041-.0707263-.30170179-.2380365-.31514935-.4301445-.01344756-.1921081.08462916-.3748644.25214935-.4698555l.5-.289c.17234718-.0999355.38757572-.0880194.54783746.0303311s.23497077.3205481.19016254.5146689l-.242 1.04 2.75-1.587c.22063558-.1300292.50385102-.072325.65602439.1336626.15217338.2059876.12410138.4936554-.06502439.6663374l-.552.515 2.281-1.315c.2203354-.1244491.4989119-.0646624.6487785.1392378.1498666.2039001.1237692.4876223-.0607785.6607622l-2.622 2.416 5.565-3.212c.2299138-.1328235.5235501-.0627731.6687427.1595365s.0912979.5193359-.1227427.6764635l-1.73 1.276 3.656-2.11c.2285233-.1282497.5172952-.0583047.6618051.1602995.14451.2186041.095725.5116937-.1118051.6717005l-3.721 2.805 6.3-3.639c.2324067-.1328499.5282158-.0590851.6710333.1673329s.0819688.5251514-.1380333.6776671l-.932.639 2.574-1.486c.2324067-.1328499.5282158-.0590851.6710333.1673329s.0819688.5251514-.1380333.6776671l-1.208.832 2.909-1.679c.2300482-.1308569.5222207-.059778.6664488.1621318.1442281.2219099.0905463.5177734-.1224488.6748682l-3.27 2.379 5.578-3.22c.2306836-.128482.5215078-.0554404.6641078.1667933s.0878131.5170425-.1251078.6732067l-2.531 1.8 4.575-2.642c.2290632-.1321979.5214568-.063148.6671806.1575572.1457237.2207053.094369.5167199-.1171806.6754428l-3.928 2.942 6.542-3.777c.2310609-.1298083.523268-.0567757.6660866.1664779.1428185.2232536.086628.5191613-.1280866.6745221l-2.352 1.663 4.342-2.507c.2314518-.1313128.5252013-.0583356.6682918.1660259.1430904.2243616.0853808.5214879-.1312918.6759741l-1.978 1.385 3.86-2.228c.2280542-.1290416.517047-.0601323.6623353.1579314.1452882.2180638.0975826.5113034-.1093353.6720686l-4.253 3.246 6.487-3.748c.2324067-.1328499.5282158-.0590851.6710333.1673329s.0819688.5251514-.1380333.6776671l-.584.4.051-.029c.2274132-.1273482.5145055-.05864.6596263.1578646.1451209.2165046.0995839.5081708-.1046263.6701354l-2.454 1.9 1.9-1.1c.2263468-.1267998.5120755-.0594093.6579064.1551704.1458308.2145797.1033101.5050523-.0979064.6688296l-.712.565.152-.087c.205814-.1174316.465793-.0742687.6226183.1033697.1568252.1776385.1674235.440963.0253817.6306303l-1.135 1.5c.2389807-.0415556.4733161.0944124.5558357.3225114.0825196.2280989-.0105828.4825245-.2208357.6034886l-1.924 1.111c-.2041052.1090029-.4563388.0637215-.6097841-.1094695-.1534452-.1731909-.1680121-.4290425-.0352159-.6185305l1.088-1.44-3.9 2.253c-.226507.1291681-.5142486.0625855-.6609917-.1529516-.1467432-.2155372-.103215-.5076567.0999917-.6710484l.711-.563-2.412 1.385c-.2275891.1298897-.5168511.062032-.6629348-.1555172-.1460838-.2175492-.0994243-.5109773.1069348-.6724828l2.451-1.9-4.721 2.728c-.2319831.1309881-.5259285.0570795-.6683699-.1680527-.1424414-.2251321-.0833463-.52241.1343699-.6759473l.583-.4-2.157 1.244c-.228242.1318458-.5196375.063862-.6659708-.1553737-.1463332-.2192358-.0973404-.5144185.1119708-.6746263l4.25-3.243-7.056 4.073c-.0754832.0456007-.1618163.0701194-.25.071z" fill="#ced2dc"/><path id="Path" d="m15.853 43.491c-.1988826.0001568-.378948-.1175718-.4585728-.2998194-.0796249-.1822476-.0436675-.3943575.0915728-.5401806l1.872-2.015-3.078 1.776c-.2201191.1211079-.4959248.0600693-.6443868-.1426092s-.1234717-.48405.0583868-.6573908l2.493-2.261-1.908 1.1c-.2221262.1265945-.5039712.0652242-.6533525-.1422642-.1493814-.2074884-.1181698-.4942439.0723525-.6647358l2.202-1.944-1.621.936c-.2222396.1285782-.5057439.0679309-.6559297-.1403165-.1501859-.2082474-.1182322-.4963997.0739297-.6666835l2.224-1.97-1.642.948c-.2240205.1297641-.5100442.0670649-.6592395-.1445117s-.1122125-.502047.0852395-.6694883l.9-.769-.328.189c-.1852487.1065815-.417758.0836357-.5785995-.0571006s-.2144482-.3681421-.1334005-.5658994l.667-1.621c-.2423029.0608834-.4923589-.0664304-.5856668-.2981869-.0933078-.2317566-.0012268-.4968187.2156668-.6208131l1.128-.65c.1854407-.1069994.4184263-.0840596.5794378.0570517.1610116.1411113.2143134.369075.1325622.5669483l-.654 1.59 3.792-2.189c.2240205-.1297641.5100442-.0670649.6592395.1445117s.1122125.502047-.0852395.6694883l-.9.768 1.192-.687c.2218647-.1262356.5031961-.0650788.6526317.1418714.1494355.2069502.1189881.4932377-.0706317.6641286l-2.223 1.969 1.661-.958c.2225048-.1289965.5065753-.0681522.6567253.1406622.15015.2088145.1173946.4974755-.0757253.6673378l-2.2 1.943 1.625-.939c.2201191-.1211079.4959248-.0600693.6443868.1426092s.1234717.48405-.0583868.6573908l-2.494 2.264 1.914-1.105c.2142281-.1242304.4871181-.0729283.6416053.120619.1544873.1935473.1440221.4710204-.0246053.652381l-1.875 2.019 1.263-.728c.1706774-.0982495.38313-.0871598.5426507.0283255.1595208.1154852.2363933.3138528.1963493.5066745l-.315 1.508c.1814029.0665334.3082349.2316323.3257668.4240546.0175318.1924223-.0773749.377724-.2437668.4759454l-.5.291c-.1706774.0982495-.38313.0871598-.5426507-.0283255-.1595208-.1154852-.2363933-.3138528-.1963493-.5066745l.267-1.277-3.177 1.83c-.0750183.043643-.1602106.0667519-.247.067z" fill="#a898f1"/><path id="Path" d="m26.251 43.5c-.2083009.0001744-.3948874-.1288076-.4683193-.3237359s-.0183231-.4149599.1383193-.5522641l1.929-1.691-1.57.905c-.2217155.1278094-.5041476.0675735-.6544252-.1395729-.1502777-.2071463-.1198841-.4943266.0704252-.6654271l2.4-2.153-1.815 1.047c-.2259042.1277621-.5120042.0614438-.6586593-.152678-.1466552-.2141217-.1051039-.5048532.0956593-.669322l.868-.7-.3.176c-.2206356.1300292-.503851.072325-.6560244-.1336626s-.1241014-.4936554.0650244-.6663374l2.748-2.563-2.157 1.244c-.2253165.1265297-.5099298.0605202-.6565485-.1522715-.1466186-.2127916-.1069324-.5022515.0915485-.6677285l1.074-.874-.509.293c-.2190652.1318893-.5023394.0772423-.6566242-.1266708s-.1298566-.4913741.0566242-.6663292l2.973-2.855-2.377 1.372c-.2191072.1233536-.4957369.0648025-.6460755-.1367475-.1503385-.2015499-.1276132-.4833935.0530755-.6582525l2.811-2.67-2.221 1.28c-.2145941.1228235-.486738.0703506-.6402819-.1234548-.1535438-.1938053-.142373-.4707366.0262819-.6515452l1.57-1.674-.956.552c-.193736.1112232-.4377455.0804371-.5977845-.0754209-.1600391-.1558581-.1972723-.3989673-.0912155-.5955791l.464-.858c-.2140099-.0254909-.3876031-.1852463-.4307435-.3964072s.0538812-.4262033.2407435-.5335928l1.128-.65c.1939916-.1127127.4393106-.0824055.6000388.0741298.1607283.1565353.1975079.4009677.0899612.5978702l-.372.688 2.356-1.36c.214298-.1213709.4850627-.0686169.6381217.1243272.1530591.1929441.1428239.4686101-.0241217.6496728l-1.571 1.674 2.95-1.7c.2208953-.136633.509623-.0813788.6644625.1271591.1548394.208538.1242214.5009064-.0704625.6728409l-2.816 2.673 2.287-1.32c.2190652-.1318893.5023394-.0772423.6566242.1266708s.1298566.4913741-.0566242.6663292l-2.972 2.854 2.38-1.373c.2253165-.1265297.5099298-.0605202.6565485.1522715.1466186.2127916.1069324.5022515-.0915485.6677285l-1.077.876.514-.3c.2206356-.1300292.503851-.072325.6560244.1336626s.1241014.4936554-.0650244.6663374l-2.747 2.564 2.16-1.247c.2265186-.1336661.5178659-.0689882.6665473.1479706s.103858.5120137-.1025473.6750294l-.867.7.306-.177c.2198926-.1179958.4931214-.0557887.6402596.1457705s.1231296.4807496-.0562596.6542295l-2.395 2.152 1.81-1.05c.2227723-.1294397.5074311-.0684047.6575526.1409889s.1165485.4985799-.0775526.6680111l-1.93 1.693 1.354-.781c.2164748-.1176434.486383-.0600602.6359981.1356862.149615.1957464.134338.4713056-.0359981.6493138l-.641.646.038-.022c.1891655-.1073426.4260249-.0800844.5858618.0674222.1598368.1475066.205982.3814212.1141382.5785778l-.317.673c.1944262.0533559.3377847.2182633.3635717.4182219s-.0710434.3958411-.2455717.4967781l-.89.513c-.1889645.1068674-.4252987.0795888-.5849485-.0675172-.1596498-.1471059-.2061336-.3804237-.1150515-.5774828l.206-.438-1.9 1.095c-.2164748.1176434-.486383.0600602-.6359981-.1356862-.149615-.1957464-.134338-.4713056.0359981-.6493138l.642-.647-2.5 1.445c-.0754501.044468-.1614208.0679459-.249.068z" fill="#abde62"/><path id="Path" d="m22.511 43.487c-.1943661-.0001992-.3710039-.1130194-.4529167-.289282s-.0542552-.384023.0709167-.532718l1.636-1.937-3.485 2.011c-.2207276.1320893-.5056598.0751513-.6586724-.1316224-.1530126-.2067738-.124171-.4959044.0666724-.6683776l2.792-2.615-2.2 1.27c-.2231941.1282474-.5072862.0660776-.6565145-.1436697s-.1148202-.4985197.0795145-.6673303l2.014-1.747-1.437.829c-.218866.1231702-.4951381.0648746-.6455811-.1362227-.1504431-.2010973-.1283693-.4825886.0515811-.6577773l2.933-2.8-2.34 1.351c-.2207276.1320893-.5056598.0751513-.6586724-.1316224-.1530126-.2067738-.124171-.4959044.0666724-.6683776l2.813-2.64-2.221 1.282c-.2245855.1309436-.5120466.0679354-.6612702-.144943-.1492235-.2128783-.1104168-.5045939.0892702-.671057l1.625-1.368-1.053.608c-.2231941.1282474-.5072862.0660776-.6565145-.1436697s-.1148202-.4985197.0795145-.6673303l2-1.734-1.422.821c-.2207276.1320893-.5056598.0751513-.6586724-.1316224-.1530126-.2067738-.124171-.4959044.0666724-.6683776l2.772-2.595-2.18 1.258c-.2236156.1271011-.5071788.0638125-.6555296-.1463081s-.1130835-.4985123.0815296-.6666919l1.748-1.486-1.174.677c-.2190652.1318893-.5023394.0772423-.6566242-.1266708s-.1298566-.4913741.0566242-.6663292l2.976-2.861-2.38 1.374c-.214298.1213709-.4850627.0686169-.6381217-.1243272-.1530591-.1929441-.1428239-.4686101.0241217-.6496728l2.064-2.2-1.45.836c-.1897681.1088047-.4282329.0816206-.5886437-.0671031-.1604108-.1487238-.2055222-.3844554-.1113563-.5818969l.558-1.16c-.1841177-.0012853-.3551874-.0952796-.455-.25-.0666188-.1149293-.0847639-.2516448-.0504306-.3799727.0343334-.1283278.1183225-.2377179.2334306-.3040273l1.128-.65c.1899688-.1093046.4289789-.0821498.5895855.0669849.1606065.1491346.2053671.3854813.1104145.5830151l-.513 1.069 2.982-1.713c.214298-.1213709.4850627-.0686169.6381217.1243272.1530591.1929441.1428239.4686101-.0241217.6496728l-2.062 2.2 3.01-1.737c.2190652-.1318893.5023394-.0772423.6566242.1266708s.1298566.4913741-.0566242.6663292l-2.981 2.856 2.384-1.376c.2240205-.1297641.5100442-.0670649.6592395.1445117s.1122125.502047-.0852395.6694883l-1.745 1.483 1.173-.677c.2206356-.1300292.503851-.072325.6560244.1336626s.1241014.4936554-.0650244.6663374l-2.771 2.6 2.183-1.26c.2231941-.1282474.5072862-.0660776.6565145.1436697s.1148202.4985197-.0795145.6673303l-2 1.736 1.426-.823c.2243015-.1303348.511027-.0674761.6602307.1447421.1492038.2122182.1113211.5032983-.0872307.6702579l-1.627 1.361 1.055-.609c.2208144-.1342809.5075757-.0781561.6614736.1294633s.1242133.4983097-.0684736.6705367l-2.813 2.639 2.223-1.284c.219385-.1342545.5048344-.0801688.6599003.1250351.1550659.2052038.1291551.4945743-.0599003.6689649l-2.934 2.8 2.342-1.351c.2228025-.1258076.5046322-.0631099.6530847.1452897.1484525.2083995.1156192.4952461-.0760847.6647103l-2.021 1.75 1.439-.83c.2207276-.1320893.5056598-.0751513.6586724.1316224.1530126.2067738.124171.4959044-.0666724.6683776l-2.789 2.611 2.2-1.271c.2102322-.1207224.4767777-.0732389.6323878.1126561.1556102.1858951.1554467.4566369-.0003878.6423439l-1.634 1.939 1.007-.581c.1750646-.1010252.3937349-.0867126.5541375.03627.1604025.1229826.2309842.3304429.1788625.52573l-.293 1.096c.1791204.0707263.3017018.2380365.3151494.4301445.0134475.1921081-.0846292.3748644-.2521494.4698555l-.539.311c-.1750646.1010252-.3937349.0867126-.5541375-.03627-.1604025-.1229826-.2309842-.3304429-.1788625-.52573l.223-.831-2.44 1.408c-.0763926.0422888-.1627151.0633515-.25.061z" fill="#ffc306"/><g fill="#262626"><path id="Shape" d="m40.762 47.4c.1131181.0024268.225982-.0117233.335-.042 4.113-1.112 2.627-7.046 2.627-10.333 0-6.739.259-13.536 0-20.27-.11-2.887-.984-3.8-2.988-4.067v-3.735c0-.009 0-.014 0-.023v-5c0-.019-.012-.03-.014-.047.0053449-.02597926.0076936-.05248568.007-.079-.776-3.832-4.191-3.289-7.253-3.289h-16.6c-3.12 0-6.606-.449-9.7 0-4.62.671-3.905 4.814-3.9 8.516 0 0-.005.01-.005.016v3.574c-3.533.6-2.988 3.39-2.988 6.359v21.332c0 3.249-.84 6.608 3 7.062v3.82c0 3.807-.7 7.892 4.107 8.2 5.392.348 10.923 0 16.325 0 4.17 0 8.848.6 12.984 0 4.81-.7 4.032-4.714 4.032-8.589v-3.4c.005.004.019-.005.031-.005zm-1.479 3.2h-34.673c.012-.08.081-1.915.106-3.125 11.434.771 23.2 0 34.671-.058-.017.27-.087 2.049-.104 3.183zm-.009-41.115c-.0388852.19782476-.0422713.4009893-.01.6.058069.7834594.0620785 1.5699893.012 2.354h-25.438c-3.0299146-.2064065-6.07045296-.2037335-9.1.008.02451382-.1758163.02451382-.3541837 0-.53.02327498-.7520217.0065848-1.504749-.05-2.255.363-.01.919-.1 1.394-.1h30.618c.212 0 .563-.039.951-.077zm-34.543-2.594c.228-2.187-.826-4.37 2.284-5.406 2.353-.783 6.443 0 8.868 0h13.517c2.615 0 9.067-1.26 9.876 2.7.0819909 1.4162447.0920038 2.83573959.03 4.253h-2.422c-1.513-.05-3.038-.038-4.565 0h-27.548c.01802178-.51600082.00466382-1.03262001-.04-1.547zm-3.007 37.638c-.427-1.4 0-3.533 0-4.985v-18.674c0-1.667-.432-4.052 0-5.682.26114947-.8521052.95136739-1.5039565 1.817-1.716.12497785.0593831.26163165.0901302.4.09h36 .032c.038 0 .074-.013.113-.019.050971-.0054876.1014502-.014848.151-.028.9002864.2208304 1.6502242.8411129 2.036 1.684.439 1.133 0 3.328 0 4.5v20.613c0 1.458.74 5.565-1.253 6.278h-29.614c-.212 0-.449.01-.7.024h-6.418-.047c-1.16242368-.1706691-2.13298019-.9746462-2.517-2.085zm35.518 14.071c-.8163176.1240034-1.6466824.1240034-2.463 0h-13.492c-4.072 0-8.231.249-12.3 0-2.11-.128-3.686.041-4.267-2.8-.16911722-1.4652478-.17314244-2.9448538-.012-4.411h34.571c.041 2.289.708 6.134-2.037 7.211z"/><path id="Path" d="m25.7 5.353h1c.3586668.01652549.7077629-.11846802.962-.372.172-.274-.148-.334-.368-.334h-1c-.3586668-.01652549-.7077629.11846802-.962.372-.169.274.151.334.368.334z"/><path id="Path" d="m16.929 5.505h5c.808 0 1.128-1.01.142-1.01h-5c-.808.005-1.128 1.01-.142 1.01z"/><path id="Path" d="m24.469 54.7h-4c-.3623015-.021858-.7219309.0742771-1.025.274-.174.155-.243.326.087.326h4c.3623015.021858.7219309-.0742771 1.025-.274.174-.155.244-.326-.087-.326z"/><path id="Shape" d="m8.7 43.323c1.187.427 3.28 0 4.531 0h.146c.0929905.1041701.2263677.1632059.366.162h5.913c.0924358.021826.1870254.0332304.282.034h6.011c.0592923-.0048529.118129-.0142133.176-.028.0402793-.0065052.080046-.0158621.119-.028.0984614-.0314482.1912894-.0783686.275-.139h11.181c.433 0 1.571-.646.61-.646h-5.586v-11.724c0-1.126.391-3.074 0-4.148-.6-1.658-3.506-1.273-4.931-1.092-.351611.0400512-.6977146.1188636-1.032.235.1-1.552.435-3.731-.028-4.982-.662-1.792-1.889-1.486-3.666-1.486-4.929 0-3.8 3.182-3.8 7.281v4.738c-.8093859-.0604289-1.6223066-.0560817-2.431.013-1.026 0-2.342-.209-3.117.621-.639.685-.449 1.706-.449 2.576v8.17c-1.1926629.2067726-2.4168003.1383659-3.579-.2-2.3-1.185-.967-9.1-.967-11.4v-14.474c0-.289-1.448-.067-1.448.388v15.436c0 2.526-1.441 9.664 1.424 10.693zm19.5-17.037c1.139 0 2.5-.316 3.08.944.452.984 0 3.362 0 4.414v11.033h-4.536l-.011-.006v-.082c.038-.046.071-.155 0-.436v-15.142c.329-.89.179-.725 1.467-.725zm-7.463-5.148c.872-1.423 4.034-.865 4.534.514.557 1.536.138 4.181.026 6.056-.0966719.9304405-.1053771 1.8679247-.026 2.8v11.973h-2.648c-.6294773.0619947-1.2635227.0619947-1.893 0v-5.588c0-.022 0-.049 0-.07v-2.168c.0596499-.6319288.0596499-1.2680712 0-1.9v-5.28c.003-1.336-.71-5.175.003-6.337zm-5.937 11.347c.189-.177 1.485 0 1.729 0 1.042 0 2.418-.349 2.742.862v9.168h-4.541v-6.063c-.0645003-1.0516786-.0645003-2.1063214 0-3.158.025-.194-.071-.681.07-.809z"/></g></g></svg>