<svg height="504pt" viewBox="0 -4 504.31654 504" width="504pt" xmlns="http://www.w3.org/2000/svg"><path d="m86.488281 361.074219c-1.871093.003906-3.519531-1.234375-4.039062-3.035157-.519531-1.800781.21875-3.726562 1.808593-4.71875l82.253907-51.453124-101.566407 58.613281c-1.984374 1.09375-4.480468.417969-5.636718-1.527344-1.160156-1.949219-.5625-4.464844 1.347656-5.683594l27.875-17.054687-42.042969 24.265625c-1.984375 1.09375-4.480469.417969-5.640625-1.527344-1.15625-1.949219-.558594-4.464844 1.351563-5.683594l43.425781-26.566406-58.125 33.574219c-1.972656 1.054687-4.425781.375-5.578125-1.546875-1.148437-1.917969-.589844-4.40625 1.273437-5.644531l116.089844-71.957032-124.550781 71.921875c-1.984375 1.199219-4.5625.5625-5.761719-1.421875-1.199218-1.984375-.5625-4.566406 1.421875-5.761718l170.304688-107.09375-168.960938 97.5c-1.996093 1.179687-4.570312.515624-5.75-1.480469-1.179687-1.992188-.519531-4.566407 1.476563-5.746094l34.289062-20.808594-30.023437 17.324219c-1.972657 1.070312-4.4375.394531-5.597657-1.527344-1.15625-1.921875-.59375-4.414062 1.273438-5.65625l163.730469-102.601562-159.40625 92.03125c-1.972657 1.027344-4.402344.339844-5.542969-1.570313-1.140625-1.90625-.59375-4.371093 1.246094-5.621093l126.304687-78.167969-122.007812 70.445312c-1.976563 1.109375-4.476563.445313-5.644531-1.496093-1.171876-1.9375-.589844-4.457032 1.3125-5.6875l168.925781-106.238282-164.59375 95.023438c-1.976563 1.109375-4.476563.445312-5.644531-1.496094-1.171876-1.9375-.589844-4.457031 1.3125-5.6875l157.269531-99-152.9375 88.28125c-1.96875 1.050781-4.417969.378906-5.570313-1.535156-1.15625-1.910156-.609375-4.390625 1.238282-5.640625l126.496093-79.554688-122.171875 70.503907c-1.972656 1.101562-4.460937.449218-5.636718-1.480469-1.171876-1.933594-.605469-4.445313 1.277343-5.6875l128.09375-81.875-123.734375 71.433593c-1.972656 1.085938-4.449218.421876-5.613281-1.503906-1.167969-1.925781-.605469-4.429687 1.273437-5.671875l86.125-54.554687-81.785156 47.21875c-1.984375 1.144531-4.515625.488281-5.695312-1.472656-1.179688-1.960938-.570313-4.503907 1.371094-5.71875l41.78125-26.179688-37.457032 21.621094c-1.972656 1.085937-4.449218.421875-5.613281-1.503906-1.167969-1.929688-.605469-4.429688 1.273437-5.671876l42.417969-26.859374-38.078125 22.007812c-1.96875 1.097656-4.449218.449219-5.625-1.472656-1.179687-1.917969-.628906-4.425782 1.242188-5.679688l61.371094-39.953125-56.988282 32.902344c-1.960937 1.097656-4.441406.457031-5.621094-1.457031-1.179687-1.910156-.644531-4.414063 1.214844-5.675782l50.359375-33.164062-45.964843 26.550781c-1.957032 1.132813-4.464844.511719-5.664063-1.410156s-.65625-4.449219 1.226563-5.707031l44.023437-29.648438-39.585937 22.839844c-1.960938 1.082031-4.425782.429688-5.597657-1.480469-1.171875-1.90625-.640625-4.398437 1.210938-5.664062l3.296875-2.15625c-1.933594.480469-3.9375-.46875-4.796875-2.265625-.855469-1.796875-.332031-3.953125 1.253906-5.152344l44.488281-33.820312-39.855468 23.023437c-1.921876 1.09375-4.363282.507813-5.578126-1.34375-1.214843-1.847656-.785156-4.324219.980469-5.65625l17.820313-13.261719-13.222656 7.621094c-1.921876 1.09375-4.363282.507812-5.578126-1.34375-1.214843-1.847656-.785156-4.324219.980469-5.65625l2.945313-2.179688c-1.835938.191407-3.585938-.835937-4.304688-2.539062-.71875-1.699219-.242187-3.671875 1.175782-4.855469l3.75-3.132812c-1.417969.382812-2.929688-.011719-3.976563-1.039063-1.371094-1.308594-1.695313-3.371094-.789063-5.035156l7.847657-14.699219c-.476563-.339843-.875-.777343-1.167969-1.285156-1.148438-2-.460938-4.554687 1.535156-5.714844l5.875-3.355469c1.625-.941406 3.675782-.6875 5.023438.617188 1.34375 1.304688 1.664062 3.34375.777344 4.996094l-5.574219 10.484375 27.933593-16.097657c1.882813-1.0625 4.265626-.519531 5.503907 1.25 1.238281 1.773438.925781 4.195313-.71875 5.597657l-3.097657 2.585937 16.367188-9.433594c1.921875-1.070312 4.34375-.476562 5.550781 1.363282s.789063 4.300781-.957031 5.636718l-.429688.316407 12.699219-7.367188c1.925781-1.121093 4.390625-.542969 5.617188 1.320313 1.222656 1.859375.78125 4.351562-1.007813 5.679687l-17.828125 13.269531 35.132813-20.277343c1.917968-1.09375 4.351562-.515625 5.574218 1.324219 1.21875 1.835937.808594 4.304687-.941406 5.648437l-44.484375 33.816406 70.648438-40.800781c1.960937-1.078125 4.425781-.429688 5.601562 1.480469 1.171875 1.910156.640625 4.402343-1.210937 5.664062l-.839844.5625 13.363281-7.714843c1.953125-1.113282 4.441407-.488282 5.632813 1.421874 1.195312 1.90625.671875 4.417969-1.183594 5.6875l-44.042969 29.636719 63.65625-36.753906c1.964844-1.136719 4.480469-.507813 5.675781 1.421875 1.191407 1.933594.636719 4.464844-1.261718 5.714844l-50.359375 33.152344 69.800781-40.289063c1.960938-1.078125 4.425781-.429687 5.597656 1.480469 1.175782 1.90625.640625 4.402344-1.207031 5.664062l-61.273437 39.882813 81.492187-47c1.972656-1.085938 4.449219-.421875 5.613281 1.503906 1.164063 1.925781.601563 4.429687-1.273437 5.671875l-42.472657 26.859375 58.980469-34.09375c1.976563-1.109375 4.476563-.449219 5.648438 1.492187 1.167969 1.941407.585937 4.460938-1.316407 5.691407l-41.816406 26.195312 57.882813-33.390625c1.972656-1.082031 4.449219-.417968 5.613281 1.507813s.601562 4.425781-1.273438 5.671875l-86.175781 54.554687 106.996094-61.742187c1.972656-1.101563 4.464844-.445313 5.636719 1.484375 1.171875 1.929687.605468 4.441406-1.277344 5.683593l-128.078125 81.9375 154.289063-89.113281c1.96875-1.050781 4.417968-.378906 5.570312 1.535157 1.15625 1.910156.609375 4.390624-1.238281 5.640624l-126.5 79.554688 150.246093-86.746094c1.984376-1.199218 4.5625-.5625 5.761719 1.421875 1.195313 1.984375.558594 4.5625-1.425781 5.761719l-157.222656 99.019531 167.070312-96.484375c1.976563-1.109375 4.476563-.445312 5.644532 1.496094 1.171874 1.9375.589843 4.457031-1.3125 5.6875l-168.886719 106.203125 168.039062-97.011719c1.976563-1.070312 4.449219-.394531 5.601563 1.539063 1.15625 1.933593.578125 4.429687-1.304688 5.664062l-126.304687 78.160157 122.007812-70.4375c1.972657-1.070313 4.4375-.398438 5.59375 1.523437 1.15625 1.925781.597657 4.417969-1.273437 5.660156l-163.820313 102.660157 159.472657-92.085938c1.984374-1.078125 4.46875-.394531 5.617187 1.550781 1.152344 1.941407.554687 4.449219-1.34375 5.667969l-34.144531 20.722656 29.871094-17.238281c1.976562-1.109375 4.476562-.445313 5.644531 1.496094 1.171875 1.9375.589843 4.457031-1.3125 5.6875l-170.210938 107.109375 165.90625-95.792969c1.980469-1.117187 4.492188-.453125 5.660157 1.5 1.167968 1.953125.566406 4.484375-1.355469 5.699219l-116.214844 72.007812 111.917969-64.628906c1.980468-1.058594 4.441406-.371094 5.585937 1.558594 1.144531 1.929687.570313 4.421875-1.304687 5.652344l-43.394532 26.546874 39.113282-22.578124c1.980468-1.058594 4.441406-.371094 5.585937 1.558593 1.144531 1.929688.570313 4.421875-1.304687 5.652344l-27.832032 17.03125 23.550782-13.589844c1.980468-1.144531 4.515625-.488281 5.691406 1.472657 1.179688 1.960937.570312 4.507812-1.371094 5.71875l-82.253906 51.453124 77.925781-44.996093c1.976563-1.089844 4.460938-.421875 5.621094 1.515625 1.164063 1.9375.582031 4.445312-1.308594 5.675781l-57.074219 35.648437 52.742188-30.453124c1.964844-1.050782 4.410156-.382813 5.566406 1.519531 1.160156 1.902343.628906 4.378906-1.207031 5.640625l-84.472656 54.230468 80.140625-46.257812c1.957031-1.050781 4.398437-.390625 5.5625 1.503906 1.160156 1.898438.644531 4.371094-1.183594 5.640625l-77.871094 50.722657 73.492188-42.421876c1.96875-1.050781 4.417968-.378906 5.570312 1.53125 1.152344 1.914063.609375 4.394532-1.238281 5.644532l-12.59375 7.933594 8.226563-4.742188c1.953124-1.097656 4.421874-.472656 5.613281 1.425781 1.191406 1.894531.679687 4.394531-1.15625 5.671875l-68.136719 46.34375 63.714844-36.78125c1.945312-1.117187 4.425781-.507812 5.628906 1.386719s.707031 4.398437-1.128906 5.6875l-53.71875 37.417969 49.183594-28.394532c1.917968-1.070312 4.332031-.480468 5.542968 1.347657 1.210938 1.828125.8125 4.28125-.917968 5.628906l-48.90625 37.046875 44.28125-25.566406c1.9375-1.105469 4.402343-.5 5.609374 1.375 1.207032 1.878906.734376 4.371094-1.074218 5.675781l-11.351563 8.074219 6.816407-3.925782c1.929687-1.117187 4.394531-.527343 5.613281 1.335938 1.21875 1.867188.765625 4.359375-1.03125 5.679688l-3.984375 2.910156c1.890625-.746094 4.042968-.03125 5.113281 1.695312 1.070313 1.726563.746094 3.972656-.765625 5.332032l-12.382812 11.164062 7.472656-4.308594c1.730468-.992187 3.917968-.632812 5.238281.863282 1.320313 1.5 1.402344 3.714843.199219 5.308593l-5.496094 7.277344c2.011719-.378906 4 .753906 4.707031 2.671875.707031 1.921875-.070312 4.070312-1.847656 5.089844l-16.222656 9.394531c-1.730469.992187-3.917969.632813-5.238281-.863281-1.320313-1.496094-1.402344-3.714844-.199219-5.308594l5.136719-6.789062-23.949219 13.800781c-1.84375 1-4.148438.484375-5.390625-1.210938-1.238282-1.699219-1.035156-4.050781.480468-5.503906l12.363282-11.15625-31.003906 17.871094c-1.929688 1.113281-4.394532.523437-5.613282-1.339844-1.21875-1.867187-.765625-4.359375 1.03125-5.679687l3.710938-2.71875-16.882813 9.738281c-1.929687 1.066406-4.363281.453125-5.558593-1.402344-1.195313-1.859375-.746094-4.324219 1.027343-5.640625l11.265625-8.023438-26.136718 15.066407c-1.917969 1.089843-4.351563.511719-5.574219-1.328125-1.21875-1.835938-.808594-4.304688.941406-5.648438l48.914063-37.058594-76.238282 44.035157c-1.9375 1.074219-4.378906.453125-5.570312-1.417969s-.722656-4.347656 1.074218-5.652344l53.71875-37.425781-77.078124 44.484375c-1.945313 1.058594-4.378907.421875-5.558594-1.453125-1.175782-1.875-.695313-4.34375 1.101562-5.636719l68.179688-46.375-92.636719 53.476563c-1.972656 1.082031-4.449219.417969-5.617187-1.507813-1.164063-1.925781-.601563-4.425781 1.277343-5.671875l12.589844-7.929687-26.179687 15.109375c-1.960938 1.050781-4.398438.390625-5.5625-1.503907-1.164063-1.898437-.644532-4.371093 1.179687-5.640624l77.890625-50.714844-100.265625 57.859375c-1.964844 1.050781-4.410156.382812-5.566406-1.519531-1.160157-1.902344-.628907-4.378907 1.210937-5.640626l84.554688-54.207031-106.347656 61.367188c-1.96875 1.039062-4.40625.355469-5.554688-1.554688-1.144531-1.910156-.601562-4.382812 1.242188-5.632812l56.976562-35.585938-74.097656 42.804688c-.640625.367187-1.363282.5625-2.101563.5625zm0 0" fill="#a9b0bb"/><path d="m177.097656 361.316406c-1.847656 0-3.480468-1.210937-4.015625-2.980468-.535156-1.769532.152344-3.679688 1.691407-4.707032l85.269531-56.941406-97.222657 56.144531c-1.96875 1.054688-4.417968.378907-5.570312-1.53125-1.15625-1.914062-.609375-4.394531 1.238281-5.644531l23.578125-14.847656-19.246094 11.105468c-1.960937 1.09375-4.4375.453126-5.621093-1.457031-1.179688-1.914062-.644531-4.417969 1.214843-5.679687l90.648438-59.695313-86.242188 49.757813c-1.972656 1.085937-4.449218.421875-5.613281-1.503906-1.164062-1.925782-.601562-4.429688 1.273438-5.671876l32.347656-20.453124-28.007813 16.171874c-1.964843 1.140626-4.480468.507813-5.675781-1.421874-1.191406-1.929688-.636719-4.460938 1.261719-5.710938l97.1875-64.496094-92.773438 53.558594c-1.972656 1.121094-4.476562.476562-5.65625-1.460938-1.183593-1.933593-.613281-4.457031 1.28125-5.699218l71.910157-46.59375-67.535157 38.996094c-1.964843 1.101562-4.449218.449218-5.625-1.46875-1.175781-1.921876-.628906-4.429688 1.242188-5.679688l76.640625-49.839844-72.257813 41.714844c-1.984374 1.140625-4.515624.488281-5.695312-1.476562-1.175781-1.960938-.566406-4.503907 1.371094-5.71875l16.328125-10.246094-12.003907 6.933594c-1.976562 1.105468-4.476562.445312-5.644531-1.496094-1.171875-1.941406-.589843-4.460938 1.3125-5.691406l23.433594-14.753907-19.101563 11.027344c-1.964843 1.117187-4.460937.476563-5.648437-1.445313-1.183594-1.925781-.632813-4.445312 1.25-5.695312l85.738281-56.238281-81.339844 46.980469c-1.964843 1.117187-4.460937.476562-5.648437-1.449219-1.183594-1.925781-.632813-4.441407 1.25-5.695313l88.390625-58.117187-83.992188 48.5c-1.972656 1.082031-4.449218.417969-5.613281-1.507813-1.164062-1.925781-.601562-4.425781 1.273438-5.671875l39.398437-24.992187-35.058594 20.234375c-1.964843 1.140625-4.480468.507812-5.675781-1.421875-1.191406-1.929688-.636719-4.460938 1.261719-5.710938l73.097656-48.472656-68.683594 39.648438c-1.964843 1.054687-4.40625.386718-5.566406-1.515626-1.15625-1.90625-.625-4.382812 1.210938-5.640624l10.558594-6.714844-6.203126 3.53125c-1.964843 1.140625-4.480468.507812-5.675781-1.421875-1.191406-1.929688-.636719-4.460938 1.261719-5.710938l32.566406-21.5625-28.152344 16.257813c-1.933593 1.09375-4.386718.488281-5.59375-1.378906-1.203124-1.871094-.742187-4.351563 1.050782-5.664063l48.355468-34.605469-43.8125 25.273438c-1.949218 1.042968-4.371093.398437-5.542968-1.476563-1.167969-1.871093-.6875-4.332031 1.101562-5.625l3.359375-2.300781c-1.921875.5-3.929687-.414062-4.8125-2.191406-.882812-1.777344-.402343-3.929688 1.152344-5.160156l29.050781-23.097657-24.34375 14.046875c-1.898437 1.078125-4.304687.523438-5.535156-1.28125-1.234375-1.800781-.875-4.25.820312-5.625l9.527344-7.613281-4.8125 2.769531c-1.875 1.101563-4.28125.582032-5.539062-1.1875-1.261719-1.773437-.957032-4.214844.699218-5.625l3.203126-2.761718c-1.035157.105468-2.074219-.167969-2.917969-.773438-1.351563-.960938-2.007813-2.625-1.679688-4.246094l2.703125-13.128906c-.945312-.332031-1.734375-.992188-2.226562-1.863281-1.152344-2.003907-.46875-4.5625 1.527344-5.722657l4.199218-2.425781c1.429688-.828125 3.214844-.738281 4.554688.226563 1.34375.96875 1.988281 2.632812 1.65625 4.253906l-2.316406 11.195312 27.3125-15.710937c1.871093-1.078125 4.257812-.554687 5.507812 1.207031 1.253906 1.757813.964844 4.183594-.667969 5.601563l-1.753906 1.507812 14.464844-8.339843c1.898437-1.101563 4.324219-.550782 5.5625 1.261718 1.242187 1.8125.875 4.273438-.839844 5.644532l-9.523437 7.613281 25.179687-14.546875c1.898437-1.082032 4.316406-.523438 5.546875 1.285156s.867188 4.261719-.839844 5.632812l-29.050781 23.097657 52.042969-30.046875c1.953125-1.117188 4.441406-.488282 5.632812 1.417968 1.195313 1.90625.671875 4.417969-1.1875 5.691407l-1.578125 1.0625 14.210938-8.199219c1.9375-1.09375 4.386719-.488281 5.59375 1.378906 1.203125 1.867188.742187 4.351563-1.050781 5.664063l-48.324219 34.597656 72.183593-41.671875c1.972657-1.222656 4.558594-.617188 5.78125 1.355469 1.222657 1.96875.613282 4.554687-1.355468 5.777343l-32.585938 21.605469 49.808594-28.757812c1.972656-1.101563 4.460938-.445313 5.632812 1.484375 1.175782 1.929687.609376 4.441406-1.277343 5.683594l-10.472657 6.714843 24.046876-13.914062c1.273437-.792969 2.871093-.84375 4.195312-.132813 1.320312.707032 2.164062 2.066406 2.210938 3.566406.046874 1.5-.710938 2.910157-1.984376 3.699219l-73.183593 48.515625 92.070312-53.140625c1.972657-1.085937 4.449219-.417969 5.613281 1.507813 1.164063 1.925781.601563 4.425781-1.273437 5.667968l-39.410156 24.980469 35.070312-20.238281c1.964844-1.117188 4.460938-.476562 5.644531 1.449219 1.1875 1.925781.632813 4.441406-1.246093 5.695312l-88.394531 58.125 83.996093-48.488281c1.964844-1.117188 4.460938-.480469 5.644531 1.445312 1.1875 1.925782.632813 4.445313-1.246093 5.695313l-85.671875 56.167969 81.273437-46.917969c1.976563-1.109375 4.472657-.445313 5.644531 1.496094 1.167969 1.9375.585938 4.457031-1.316406 5.6875l-23.5 14.800781 19.1875-11.074219c1.972656-1.066406 4.4375-.394531 5.59375 1.527344s.597656 4.417969-1.269531 5.660156l-16.328125 10.246094 12.003906-6.921875c1.964844-1.101562 4.449219-.449219 5.625 1.46875 1.175782 1.921875.628906 4.429688-1.242187 5.679688l-76.640625 49.839843 72.257812-41.714843c1.96875-1.121094 4.476563-.472657 5.65625 1.460937 1.183594 1.933594.613282 4.457031-1.285156 5.699219l-71.90625 46.582031 67.535156-38.984375c1.964844-1.140625 4.480469-.511719 5.671875 1.421875 1.195313 1.929687.640625 4.460937-1.257812 5.710937l-97.195313 64.496094 92.773438-53.558594c1.984375-1.199218 4.5625-.5625 5.761718 1.421876 1.199219 1.984374.5625 4.5625-1.421874 5.761718l-32.347657 20.445313 28.007813-16.164063c1.960937-1.097656 4.4375-.453125 5.617187 1.457032 1.183594 1.914062.648438 4.414062-1.210937 5.675781l-90.648438 59.703125 86.207032-49.761719c1.96875-1.054687 4.417968-.378906 5.570312 1.53125 1.15625 1.910156.609375 4.390625-1.238281 5.644531l-23.578125 14.847656 19.246094-11.105468c1.953124-1.066406 4.402343-.421875 5.578124 1.46875 1.171876 1.890625.667969 4.371094-1.152343 5.648437l-85.261719 56.917969 80.871094-46.6875c1.949218-1.113281 4.433594-.496094 5.632812 1.40625 1.199219 1.898438.6875 4.40625-1.160156 5.6875l-74.910156 51.59375 70.4375-40.65625c1.9375-1.125 4.414062-.527344 5.628906 1.351562 1.214844 1.882813.738281 4.386719-1.082031 5.691407l-61.371094 44.097656 56.824219-32.800781c1.949218-1.097656 4.421875-.46875 5.609375 1.425781 1.191406 1.898437.683593 4.394531-1.152344 5.675781l-16.789063 11.457032 12.363282-7.136719c1.910156-1.054688 4.3125-.46875 5.523437 1.34375 1.210938 1.816406.828125 4.257812-.878906 5.617187l-31.738281 24.339844 27.09375-15.636719c1.917968-1.09375 4.351562-.511719 5.574218 1.324219 1.21875 1.835938.808594 4.304688-.9375 5.648438l-9.839843 7.464843 5.203125-3c1.804687-1.03125 4.09375-.585937 5.382812 1.046875 1.285156 1.636719 1.179688 3.964844-.246094 5.476563l-14.578124 15.234375 9.375-5.40625c1.753906-.996094 3.964843-.609375 5.273437.925781s1.339844 3.78125.074219 5.351563l-4.355469 5.375c1.519531.558593 2.582031 1.945312 2.730469 3.558593.144531 1.617188-.65625 3.171875-2.050782 3.992188l-13.589843 7.847656c-1.753907 1.011719-3.972657.625-5.285157-.910156-1.3125-1.539063-1.34375-3.796875-.070312-5.367188l1.738281-2.140625-14.824219 8.578125c-1.804687 1.046875-4.101562.605469-5.394531-1.03125s-1.183593-3.976562.25-5.488281l14.503907-15.234375-37.769532 21.824219c-1.917968 1.113281-4.375.542968-5.605468-1.304688-1.230469-1.847656-.808594-4.332031.964843-5.671875l9.84375-7.46875-25.0625 14.46875c-1.910156 1.074219-4.328125.496094-5.546875-1.324219-1.21875-1.824218-.828125-4.28125.898438-5.632812l31.757812-24.34375-54.289062 31.335938c-1.949219 1.097656-4.417969.46875-5.609375-1.429688-1.191407-1.894531-.683594-4.390625 1.152343-5.671875l16.789063-11.441406-32.113281 18.542969c-1.9375 1.121093-4.414063.527343-5.628906-1.355469-1.214844-1.878907-.742188-4.382813 1.078124-5.6875l61.382813-44.109375-88.667969 51.199218c-1.953125 1.117188-4.433594.496094-5.632812-1.402343-1.199219-1.902344-.6875-4.410157 1.160156-5.6875l74.902344-51.59375-101.738282 58.753906c-.636718.367187-1.363281.558594-2.097656.550781zm0 0" fill="#636c77"/><path d="m13.988281 75.941406c-1.796875-.023437-3.378906-1.191406-3.933593-2.898437-.554688-1.707031.035156-3.578125 1.472656-4.65625l26.785156-19.464844-26.582031 15.34375c-1.902344 1.066406-4.300781.5-5.523438-1.300781-1.222656-1.800782-.867187-4.242188.824219-5.613282l25.613281-20.304687-20.914062 12.035156c-1.839844 1.105469-4.21875.648438-5.511719-1.0625-1.296875-1.710937-1.089844-4.125.476562-5.59375l17.398438-16.644531-12.363281 7.136719c-1.6875.964843-3.816407.644531-5.144531-.769531-1.332032-1.417969-1.515626-3.5625-.445313-5.183594l6.605469-9.953125c-1.996094.304687-3.925782-.855469-4.59375-2.757813-.667969-1.902344.109375-4.011718 1.855468-5.023437l13.707032-7.914063c1.6875-.96875 3.816406-.648437 5.144531.765625 1.332031 1.417969 1.515625 3.5625.445313 5.183594l-6.261719 9.425781 26.808593-15.453125c1.839844-1.105469 4.21875-.648437 5.511719 1.0625 1.296875 1.714844 1.089844 4.125-.472656 5.59375l-17.394531 16.652344 40.414062-23.308594c1.902344-1.082031 4.316406-.523437 5.550782 1.285157 1.230468 1.808593.867187 4.261718-.839844 5.632812l-25.625 20.292969 47.1875-27.210938c1.933594-1.109375 4.398437-.511719 5.609375 1.359375 1.214843 1.871094.75 4.363282-1.050781 5.675782l-26.75 19.355468 45.742187-26.390625c1.945313-1.054687 4.378906-.417969 5.558594 1.457031 1.175781 1.875.695312 4.34375-1.101563 5.636719l-4.574218 3.113281 17.746093-10.207031c1.941407-1.117187 4.417969-.515625 5.628907 1.371094 1.207031 1.886719.722656 4.390625-1.105469 5.6875l-20.648438 14.632813 37.542969-21.691407c1.914062-1.097656 4.351562-.527343 5.578125 1.304688 1.226563 1.835937.824219 4.304687-.917969 5.65625l-36.371094 27.882812 60.410157-34.84375c1.914062-1.089843 4.351562-.511719 5.570312 1.328125 1.21875 1.835938.808594 4.304688-.9375 5.648438l-34.566406 26.136718 57.402344-33.113281c1.941406-1.105469 4.40625-.5 5.609375 1.378907 1.207031 1.875.734375 4.367187-1.074219 5.671874l-22.277344 15.847657 39.71875-22.898438c1.949219-1.066406 4.390625-.429687 5.574219 1.453125 1.179688 1.882813.683594 4.359375-1.125 5.648438l-2.292969 1.554687 15-8.65625c1.921875-1.078125 4.355469-.480469 5.5625 1.367188 1.207031 1.84375.777344 4.3125-.980469 5.640625l-29.8125 21.910156 50.148438-28.917969c1.925781-1.078125 4.359375-.480469 5.566406 1.367188 1.207032 1.84375.777344 4.3125-.984375 5.640625l-29.734375 21.859375 50.046875-28.867188c1.9375-1.09375 4.390625-.488281 5.59375 1.378907 1.203125 1.871093.742188 4.351562-1.050781 5.664062l-23.503906 16.828125 41.355468-23.871094c1.921876-1.082031 4.355469-.496093 5.566407 1.347657 1.214843 1.839843.796875 4.308593-.957031 5.644531l-32.332032 24.113281 51.03125-29.425781c1.960938-1.160157 4.484375-.546875 5.695313 1.382812 1.210937 1.929688.660156 4.46875-1.238281 5.726563l-.257813.167968 2.960937-1.679687c1.878907-1.070313 4.265626-.539063 5.507813 1.230469 1.246094 1.769531.945313 4.195312-.699219 5.601562l-34.511718 29.203125 32.96875-19.039062c1.820312-1 4.097656-.515625 5.355468 1.132812 1.261719 1.652344 1.125 3.972657-.320312 5.464844l-19.816406 19.800781 14.839843-8.570312c1.570313-.902344 3.542969-.699219 4.890625.507812 1.351563 1.207032 1.773438 3.144532 1.050782 4.804688l-5.621094 12.828125c2.035156-1.066407 4.554687-.296875 5.640625 1.730469 1.089843 2.027343.34375 4.554687-1.671875 5.664062l-10.835938 6.226562c-1.566406.902344-3.535156.695313-4.886718-.507812-1.347657-1.203125-1.773438-3.136719-1.054688-4.796875l5.613281-12.816406-31.441406 18.171875c-1.820313 1-4.097656.519531-5.355469-1.132813-1.261718-1.648437-1.125-3.972656.320313-5.464843l19.832031-19.800782-45.8125 26.421875c-1.863281 1.007813-4.1875.46875-5.414062-1.257812-1.230469-1.730469-.976563-4.101563.589843-5.53125l34.546875-29.257813-62.546875 36.089844c-1.953125 1.125-4.449219.507812-5.648437-1.402344-1.203125-1.914062-.671875-4.4375 1.199218-5.707031l.203126-.125-12.59375 7.25c-1.917969 1.085937-4.351563.5-5.566407-1.34375-1.214843-1.839844-.792969-4.308594.960938-5.644531l32.363281-24.199219-53.976562 31.179687c-1.9375 1.09375-4.386719.488282-5.59375-1.378906-1.203126-1.867187-.742188-4.351562 1.050781-5.660156l23.503906-16.832031-41.378906 23.890625c-1.925781 1.078125-4.359375.480468-5.566407-1.367188-1.207031-1.84375-.777343-4.3125.980469-5.644531l29.75-21.886719-50.09375 28.914063c-1.925781 1.078125-4.355469.480469-5.5625-1.363281-1.210937-1.847657-.78125-4.316407.980469-5.644532l29.820312-21.941406-50.191406 28.964844c-1.957031 1.113281-4.441406.488281-5.636718-1.417969-1.195313-1.910156-.667969-4.417969 1.1875-5.691406l2.222656-1.5-14.957032 8.625c-1.9375 1.109375-4.402343.503906-5.609374-1.375-1.207032-1.875-.730469-4.371094 1.078124-5.671875l22.269532-15.875-39.726563 22.941406c-1.917969 1.066406-4.332031.480469-5.542969-1.347656-1.214843-1.828125-.8125-4.28125.917969-5.628906l34.570313-26.179688-57.460938 33.171875c-1.902344 1.042969-4.289062.460937-5.5-1.339844-1.210937-1.804687-.84375-4.234375.84375-5.601562l36.359375-27.917969-60.433593 34.894531c-1.941407 1.117188-4.417969.515625-5.628907-1.371093-1.210937-1.886719-.722656-4.394532 1.105469-5.6875l20.648438-14.640626-37.542969 21.699219c-1.957031 1.132813-4.457031.515625-5.660157-1.398437-1.203124-1.910156-.675781-4.433594 1.191407-5.703125l4.558593-3.105469-17.71875 10.222656c-.640624.375-1.371093.570313-2.113281.5625zm0 0" fill="#cad0d7"/><path d="m258.4375 495.371094c-1.863281 0-3.503906-1.230469-4.027344-3.015625-.527344-1.789063.191406-3.710938 1.761719-4.714844l81.089844-51.847656-102.199219 58.980469c-1.96875 1.082031-4.4375.425781-5.605469-1.492188s-.621093-4.414062 1.242188-5.667969l111.355469-71.410156-127.925782 73.863281c-1.28125.777344-2.882812.8125-4.195312.089844-1.316406-.71875-2.144532-2.085938-2.179688-3.585938-.03125-1.5.738282-2.902343 2.019532-3.679687l120.589843-76.75-117.183593 67.648437c-1.964844 1.054688-4.40625.386719-5.566407-1.515624-1.15625-1.90625-.625-4.382813 1.210938-5.644532l130.300781-83.394531-125.902344 72.703125c-1.972656 1.027344-4.402344.339844-5.542968-1.570312-1.136719-1.90625-.59375-4.375 1.246093-5.621094l51.492188-31.898438-47.238281 27.261719c-1.964844 1.039063-4.398438.367187-5.550782-1.535156-1.148437-1.902344-.617187-4.371094 1.210938-5.632813l116.265625-73.820312-111.925781 64.632812c-1.976563 1.054688-4.441407.371094-5.585938-1.558594-1.144531-1.933593-.570312-4.421874 1.304688-5.652343l9.847656-6.035157-5.574219 3.214844c-1.976563 1.105469-4.476563.445313-5.644531-1.496094-1.171875-1.941406-.589844-4.457031 1.3125-5.6875l104.625-66.007812-100.292969 57.914062c-1.984375 1.199219-4.5625.5625-5.761719-1.421874-1.199218-1.984376-.5625-4.5625 1.421875-5.761719l112.121094-71.058594-107.78125 62.21875c-1.976563 1.089844-4.460937.417969-5.625-1.515625-1.160156-1.9375-.582031-4.445312 1.3125-5.675781l74.15625-46.214844-69.835937 40.289063c-1.972657 1.082031-4.449219.417968-5.613282-1.507813-1.164062-1.925781-.601562-4.425781 1.273438-5.667969l114.394531-72.546875-110.0625 63.539063c-1.976563 1.109375-4.476563.445312-5.644531-1.496094-1.171875-1.9375-.589844-4.457031 1.3125-5.6875l93.933594-59.125-89.601563 51.769531c-1.964844 1.082031-4.4375.425781-5.605469-1.492187-1.167968-1.914063-.621094-4.414063 1.242188-5.664063l124.683594-80.335937-120.320313 69.457031c-1.972656 1.054687-4.429687.375-5.578125-1.546875s-.589844-4.40625 1.273438-5.648438l41.414062-25.699218-37.109375 21.421875c-1.972656 1.023437-4.402344.335937-5.539063-1.570313-1.140624-1.910156-.597656-4.375 1.242188-5.625l19.304688-11.96875-15.007813 8.652344c-1.96875 1.039062-4.410156.359375-5.554687-1.550781-1.148438-1.910157-.601563-4.382813 1.242187-5.632813l38.472656-24.003906-34.160156 19.722656c-1.976563 1.128906-4.492187.480469-5.671875-1.46875-1.179688-1.945312-.589844-4.476562 1.324219-5.707031l72.257812-45.902344-67.910156 39.195313c-1.964844 1.039062-4.398437.367187-5.550781-1.535156-1.152344-1.902344-.621094-4.371094 1.210937-5.632813l63.050781-40.042969-58.753906 33.890625c-1.972656 1.160157-4.515625.519531-5.703125-1.4375-1.191406-1.957031-.597656-4.503906 1.339844-5.730469l64.738281-41.546874-60.332031 34.839843c-1.957031 1.066407-4.40625.414063-5.578125-1.484375-1.167969-1.894531-.652344-4.378906 1.179688-5.648437l64.890624-42.511719-60.492187 34.914062c-1.964844 1.039063-4.398437.367188-5.550781-1.535156s-.621094-4.371094 1.210937-5.632812l3.894531-2.515625c-1.972656.847656-4.265624.070312-5.316406-1.800781-1.050781-1.871094-.519531-4.234376 1.230469-5.476563l67.515625-48.003906-62.949219 36.363281c-1.925781 1.117188-4.390625.539062-5.617187-1.320312-1.226563-1.863282-.78125-4.355469 1.007812-5.679688l50.703125-37.773438-46.09375 26.609376c-1.945312 1.101562-4.410156.488281-5.609375-1.394532-1.203125-1.882812-.71875-4.378906 1.101563-5.675781l11.75-8.28125-7.285157 4.195313c-1.917968 1.078124-4.34375.488281-5.554687-1.34375-1.214844-1.835938-.804687-4.296876.9375-5.640626l13.253906-9.96875-8.636719 4.976563c-1.855468 1.125-4.261718.65625-5.550781-1.085937-1.292969-1.742188-1.042969-4.183594.574219-5.628907l15.886719-15.109375-10.910157 6.296875c-1.5625.898438-3.523437.699219-4.875-.496093-1.347656-1.191407-1.785156-3.117188-1.085937-4.777344l5.441406-12.789063c-2.023437.425781-4.054687-.683593-4.789062-2.613281-.738281-1.929688.042969-4.109375 1.832031-5.136719l9.476562-5.460937c1.5625-.902344 3.523438-.703125 4.875.492187 1.351563 1.195313 1.789063 3.117188 1.085938 4.777344l-5.296875 12.464844 30.761719-17.578125c1.855468-1.144532 4.277344-.679688 5.578125 1.070312s1.042969 4.203125-.59375 5.644532l-15.894531 15.109374 37.769531-21.773437c1.917969-1.074219 4.34375-.488281 5.554687 1.347656 1.214844 1.832031.804688 4.292969-.9375 5.636719l-13.320312 9.871094 29.375-16.953125c1.945312-1.105469 4.410156-.492188 5.609375 1.390625 1.203125 1.882812.71875 4.378906-1.101563 5.675781l-11.835937 8.316406 26.652343-15.382812c1.925782-1.121094 4.390626-.542969 5.613282 1.316406 1.226562 1.863281.785156 4.355469-1.007813 5.683594l-50.671875 37.71875 77.480469-44.738281c1.941406-1.105469 4.402344-.5 5.609375 1.375 1.207031 1.878906.734375 4.371093-1.074219 5.675781l-67.542969 48.011719 95.40625-55.070313c1.96875-1.039063 4.402344-.363281 5.550782 1.539063 1.152344 1.898437.621094 4.371093-1.210938 5.628906l-3.304687 2.105468 16.089843-9.28125c1.957032-1.066406 4.40625-.414062 5.578126 1.484376 1.167968 1.898437.652343 4.378906-1.179688 5.648437l-64.816406 42.472656 85.964844-49.621093c1.96875-1.082032 4.4375-.425782 5.609374 1.492187 1.167969 1.914063.621094 4.414063-1.242187 5.664063l-64.804687 41.625 76.378906-44.074219c1.9375-.875 4.226562-.164063 5.324218 1.660156 1.097657 1.824219.65625 4.179687-1.027343 5.484375l-63.042969 40.042969 67.148438-38.777344c1.976562-1.128906 4.492187-.476563 5.671874 1.46875 1.179688 1.945313.589844 4.480469-1.324218 5.707031l-72.242188 45.945313 76.75-44.316407c1.976563-1.089843 4.460938-.417968 5.621094 1.519532 1.164062 1.933594.582031 4.441406-1.308594 5.675781l-38.433594 23.960937 41.398438-23.894531c1.980469-1.117187 4.492188-.453125 5.660156 1.5 1.167969 1.953125.566406 4.484375-1.355468 5.699219l-19.304688 11.945312 21.621094-12.515624c1.988281-1.191407 4.566406-.542969 5.757812 1.445312s.546875 4.566406-1.445312 5.757812l-41.488282 25.765626 44.488282-25.664063c1.960937-1.066406 4.414062-.410156 5.582031 1.496094 1.164063 1.90625.632813 4.390625-1.210937 5.652343l-124.660157 80.335938 131.777344-76.0625c1.972656-1.085938 4.449219-.421875 5.613281 1.503906 1.164063 1.929688.601563 4.429688-1.273437 5.671875l-93.972657 59.117188 93.660157-54.070313c1.96875-1.039062 4.402343-.367187 5.550781 1.535156 1.152344 1.902344.621094 4.371094-1.210938 5.632813l-114.308593 72.492187 109.953125-63.480468c1.976562-1.089844 4.464844-.417969 5.625 1.519531 1.160156 1.933594.582031 4.441406-1.308594 5.675781l-74.132812 46.214844 69.832031-40.289062c1.984375-1.199219 4.566406-.5625 5.765625 1.421874 1.195312 1.984376.558594 4.5625-1.425782 5.761719l-112.117187 70.992188 107.777344-62.222657c1.972656-1.050781 4.417969-.378906 5.574219 1.535157 1.152343 1.910156.609374 4.390625-1.242188 5.644531l-104.714844 66.089844 100.382813-57.917969c1.980469-1.054687 4.441406-.371094 5.589843 1.5625 1.144532 1.929687.570313 4.417969-1.308593 5.648437l-9.617188 5.875 5.347657-3.078124c1.972656-1.085938 4.449218-.421876 5.613281 1.503906 1.164062 1.925781.601562 4.429687-1.273438 5.671875l-116.359375 73.863281 112.019532-64.632812c1.976562-1.070313 4.449218-.390626 5.601562 1.539062 1.15625 1.933594.578125 4.433594-1.304688 5.664062l-51.335937 31.769532 47.003906-27.144532c1.964844-1.050781 4.40625-.386718 5.566407 1.519532 1.15625 1.902344.625 4.378906-1.210938 5.640625l-130.265625 83.328125 125.902344-72.710938c1.976562-1.128906 4.492187-.476562 5.671875 1.46875 1.179687 1.945313.589844 4.480469-1.324219 5.707032l-120.511719 76.765624 116.207032-67.085937c1.96875-1.101563 4.460937-.449219 5.632812 1.480469 1.171875 1.933594.609375 4.445312-1.277344 5.6875l-111.382812 71.425781 107.027344-61.792969c1.96875-1.101562 4.460937-.445312 5.632812 1.484375 1.171875 1.929688.609375 4.441407-1.277344 5.683594l-81.148437 51.875 76.792969-44.328125c1.964843-1.117188 4.460937-.476562 5.644531 1.449219 1.1875 1.925781.632812 4.441406-1.246094 5.695312l-86.195313 56.5625 81.796876-47.222656c1.957031-1.136719 4.464843-.511719 5.664062 1.410156s.65625 4.449219-1.226562 5.707031l-77.074219 51.78125 72.636719-41.96875c1.9375-1.0625 4.367187-.441406 5.554687 1.421876 1.191406 1.863281.730469 4.328124-1.050781 5.636718l-69.789063 48.941406 65.285157-37.683593c1.949218-1.117188 4.433593-.496094 5.628906 1.402343 1.199218 1.902344.691406 4.410157-1.15625 5.6875l-36.722656 25.273438 32.25-18.617188c1.925781-1.101562 4.378906-.515624 5.59375 1.34375 1.21875 1.855469.777343 4.339844-1.003907 5.664063l-36.773437 27.113281 32.183594-18.574218c1.90625-1.085938 4.324218-.515626 5.550781 1.304687 1.226562 1.820313.84375 4.273437-.878907 5.636719l-24.523437 19.167968 19.851563-11.445312c1.804687-1.035156 4.089843-.589844 5.378906 1.046875 1.285156 1.632813 1.183594 3.960937-.242188 5.472656l-19.363281 20.335938 14.226563-8.207031c1.738281-.996094 3.941406-.617188 5.253906.898437s1.367187 3.75.132812 5.328125l-4.582031 5.808594c2.035156-.621094 4.210937.375 5.070313 2.324218.855468 1.945313.121093 4.226563-1.714844 5.304688l-17.925782 10.367188c-1.742187 1.007812-3.953124.636718-5.273437-.882813-1.316406-1.519531-1.371094-3.761719-.125-5.34375l4.433594-5.617187-20.523438 11.84375c-1.804687 1.042968-4.105469.605468-5.394531-1.035157-1.292969-1.636719-1.1875-3.972656.25-5.484375l19.304688-20.304687-46.484376 26.859375c-1.902343 1.074218-4.316406.507812-5.539062-1.304688-1.226562-1.8125-.851562-4.265625.855469-5.628906l24.527343-19.179688-45.191406 26.078126c-1.925781 1.078124-4.355468.484374-5.5625-1.363282-1.207031-1.847656-.78125-4.3125.980469-5.644531l36.769531-27.121094-59.121094 34.128907c-1.945312 1.070312-4.386718.441406-5.574218-1.433594-1.183594-1.878906-.703125-4.355469 1.101562-5.648438l36.726563-25.28125-56.101563 32.363282c-1.9375 1.066406-4.367187.445312-5.554687-1.417969-1.191407-1.863281-.730469-4.332031 1.050781-5.640625l69.789062-48.949219-96.976562 56.007813c-1.953125 1.082031-4.410156.445312-5.59375-1.449219-1.183594-1.890625-.675781-4.378907 1.152344-5.660157l77.085937-51.785156-102.023437 58.894532c-1.957032 1.066406-4.40625.414062-5.578125-1.484376-1.167969-1.898437-.652344-4.378906 1.179687-5.648437l86.226563-56.582031-110.382813 63.714844c-.632812.378906-1.355468.585937-2.097656.597656zm0 0" fill="#e4e8eb"/><path d="m471.398438 184.8125c-1.304688-.003906-2.535157-.609375-3.328126-1.648438-.792968-1.035156-1.058593-2.378906-.71875-3.640624l2.515626-9.230469-23.5 13.554687c-1.730469.992188-3.917969.632813-5.238282-.863281-1.320312-1.496094-1.402344-3.714844-.199218-5.304687l9.398437-12.414063-10.523437 6.066406c-1.734376.992188-3.925782.625-5.242188-.875-1.3125-1.503906-1.390625-3.722656-.179688-5.308593l6.65625-8.664063-1.234374.707031c-1.710938.980469-3.875.640625-5.199219-.824218-1.328125-1.460938-1.453125-3.648438-.308594-5.253907l2.8125-3.921875c-.597656-.074218-1.171875-.28125-1.679687-.601562-1.320313-.835938-2.066407-2.335938-1.9375-3.894532l1.191406-14.582031c-.25-.246093-.464844-.53125-.636719-.835937-1.15625-2.003906-.472656-4.566406 1.527344-5.726563l1.535156-.890625c1.351563-.777344 3.023437-.742187 4.34375.09375 1.316406.832032 2.0625 2.332032 1.933594 3.886719l-.839844 10.769531 5.9375-3.417968c1.707031-.984376 3.871094-.644532 5.199219.816406 1.324218 1.457031 1.457031 3.644531.3125 5.253906l-1.535156 2.140625 2.6875-1.546875c1.730468-1 3.929687-.636719 5.25.867188 1.320312 1.503906 1.394531 3.730468.179687 5.320312l-6.664063 8.667969 10.207032-5.875c1.726562-.992188 3.917968-.632813 5.238281.863281 1.316406 1.496094 1.402344 3.714844.199219 5.308594l-9.441406 12.355468 14.265624-8.246093c1.472657-.847657 3.304688-.726563 4.652344.304687 1.347656 1.035156 1.9375 2.773438 1.5 4.414063l-2.515625 9.234375 6.546875-3.785156c.988282-.570313 2.167969-.714844 3.265625-.394532 1.082031.320313 1.992188 1.070313 2.515625 2.070313l2.730469 5.171875c1.777344-.367188 3.59375.441406 4.515625 2.003906 1.15625 2.007812.46875 4.574219-1.539062 5.734375l-2.652344 1.527344c-.988282.574219-2.164063.71875-3.261719.402343-1.085937-.320312-1.992187-1.070312-2.519531-2.070312l-2.628906-4.996094-11.566407 6.671875c-.613281.371094-1.3125.582031-2.027343.605469zm0 0" fill="#cad0d7"/><g fill="#262626"><path d="m502.285156 338.699219v-158.585938c.082032-.246093.082032-.511719 0-.757812v-.125c-.042968-.554688-.398437-1.035157-.914062-1.234375-17.191406-17.324219-31.542969-39.0625-50.867188-50.789063l-7.375-7.386719c-1.679687-1.675781-6.0625-1.140624-8.984375.472657-4.210937-1.023438-8.53125-1.535157-12.867187-1.527344h-44.800782c.417969-30.367187 7.730469-70.4375-.09375-99.042969-6.917968-25.308594-34.765624-18.820312-55.683593-18.820312h-267.203125c-15.695313 0-38.710938-3.859375-47.910156 12.71875-11.046876 19.964844-2.300782 62.394531-2.300782 83.78125v153.375c0 27-6.421875 63.09375 0 89.523437 7.429688 30.542969 47.660156 20.515625 72.277344 20.515625h129.191406v104.3125c0 30.214844 8.710938 29.628906 36.863282 29.628906h181.507812c18.988281 0 69.363281 10.625 79.152344-12.53125 4.589844-10.855468 0-33.449218 0-44.9375zm-58.753906-202.558594 41.582031 41.578125h-12.785156c-8.007813 0-27.019531 4.0625-28.796875-6.882812zm-405.078125-127.851563c31.820313-4.589843 67.726563 0 99.882813 0h129.257812c21.355469 0 62.792969-8.257812 82.972656 0 15.46875 6.328126 17.894532 33.859376 17.035156 61.128907h-201.382812c-.972656-1.542969-5.035156-1.375-8.175781 0h-142.554688v-29.511719c0-21.175781 1.714844-28.550781 22.964844-31.617188zm23.738281 345.140626c-8.484375 0-25.128906 3.355468-33.222656 0-23.15625-9.613282-13.480469-56.546876-13.480469-75.0625v-204.296876h138.90625v279.359376zm104.355469 0v-279.359376h199.765625c.355469-.023437.710938-.078124 1.054688-.167968-.761719 17.484375-2.609376 34.285156-3.054688 44.863281h-118.910156c-22.308594 0-38.257813-2.988281-40.648438 22.34375-4.785156 50.570313 0 103.960937 0 154.699219v57.621094zm323.582031 130.433593c-4.421875 7.410157-19.371094 4.195313-30.039062 4.195313h-161.261719c-20.09375 0-74.257813 10.660156-81.921875-10.769532-3.925781-10.992187 0-31.984374 0-43.375v-245.140624c-.949219-16.441407-.949219-32.925782 0-49.371094 1.679688-14-2.339844-11.09375 11.792969-13.957032 23.367187-4.742187 52.5625 0 76.382812 0h61.027344c1.773437.5625 3.679687.5625 5.457031 0h27.832032c10.707031-.800781 21.476562-.128906 32.003906 2.007813v46.640625c2.074218 12.773438 17.625 9.90625 27.152344 9.90625h31.601562v262.519531c-.027344 7.183594 3.9375 30.71875-.027344 37.34375zm0 0"/><path d="m40.535156 41.402344h8.394532c3.03125.175781 5.984374-1.007813 8.050781-3.230469 1.457031-2.359375-1.242188-3.234375-3.199219-3.234375h-8.394531c-3.03125-.175781-5.980469 1.007812-8.046875 3.234375-1.460938 2.355469 1.25 3.230469 3.195312 3.230469zm0 0"/><path d="m82.6875 42.089844h8.394531c3.089844.308594 6.117188-1.027344 7.972657-3.515625 1.257812-2.519531-1.082032-4.324219-3.492188-4.324219h-8.394531c-3.089844-.304688-6.113281 1.027344-7.972657 3.519531-1.257812 2.484375 1.082032 4.320313 3.492188 4.320313zm0 0"/><path d="m126.375 42.6875h8.394531c2.652344 0 6.394531-2.066406 6.714844-4.960938.328125-3.199218-3.207031-4.070312-5.640625-4.070312h-8.394531c-2.652344 0-6.394531 2.0625-6.714844 4.960938-.328125 3.195312 3.207031 4.070312 5.640625 4.070312zm0 0"/><path d="m38.984375 116.046875h8.390625c3.023438.011719 5.996094-.792969 8.597656-2.335937 1.785156-1.167969 1.835938-2.367188-.640625-2.367188h-8.390625c-3.027344-.003906-6 .8125-8.597656 2.367188-1.785156 1.132812-1.835938 2.335937.640625 2.335937zm0 0"/><path d="m80.957031 116.085938h41.96875c3.042969.203124 6.0625-.609376 8.59375-2.308594 1.183594-1.308594 2.328125-2.441406-.652343-2.441406h-41.96875c-3.039063-.199219-6.0625.609374-8.59375 2.308593-1.183594 1.308594-2.324219 2.441407.652343 2.441407zm0 0"/><path d="m39.050781 149.894531h8.394531c3.035157.132813 6.039063-.667969 8.601563-2.296875 1.679687-1.261718 1.820313-2.921875-.78125-2.921875h-8.394531c-3.035156-.132812-6.035156.667969-8.601563 2.300781-1.679687 1.257813-1.820312 2.917969.78125 2.917969zm0 0"/><path d="m127.433594 142.828125h-41.96875c-6.941406 0-9.332032 8.914063-1.074219 8.914063h41.96875c6.941406 0 9.332031-8.914063 1.074219-8.914063zm0 0"/><path d="m40.445312 183.652344h8.390626c3 .113281 5.917968-.984375 8.101562-3.046875 1.476562-2.246094-1.277344-2.515625-3.015625-2.515625h-8.390625c-3-.109375-5.917969.988281-8.101562 3.046875-1.5 2.242187 1.25 2.515625 3.015624 2.515625zm0 0"/><path d="m85.472656 176.445312c-6.914062 0-9.355468 8.828126-1.089844 8.828126h41.96875c6.914063 0 9.359376-8.828126 1.089844-8.828126zm0 0"/><path d="m51.902344 209.984375h-8.394532c-2.636718 0-6.40625 2.039063-6.714843 4.910156-.328125 3.179688 3.230469 3.988281 5.625 3.988281h8.390625c2.628906 0 6.398437-2.039062 6.714844-4.910156.320312-3.183594-3.238282-3.988281-5.621094-3.988281zm0 0"/><path d="m82.503906 217.640625h41.964844c4.265625 0 13.011719-6.414063 4.851562-6.414063h-41.964843c-4.265625 0-13.011719 6.414063-4.851563 6.414063zm0 0"/><path d="m40.738281 251.96875h8.390625c3.09375.316406 6.125-1.027344 7.96875-3.535156 1.242188-2.515625-1.074218-4.386719-3.519531-4.386719h-8.390625c-3.09375-.316406-6.125 1.027344-7.96875 3.53125-1.242188 2.484375 1.074219 4.390625 3.519531 4.390625zm0 0"/><path d="m130.867188 245.640625h-41.96875c-3.039063-.199219-6.058594.609375-8.59375 2.300781-1.183594 1.316406-2.324219 2.433594.652343 2.433594h41.96875c3.039063.199219 6.0625-.609375 8.59375-2.300781 1.183594-1.316407 2.328125-2.433594-.652343-2.433594zm0 0"/><path d="m53.546875 277.484375h-8.394531c-3.109375-.339844-6.15625 1.035156-7.957032 3.59375-1.199218 2.515625 1.058594 4.597656 3.574219 4.597656h8.394531c3.109376.335938 6.152344-1.039062 7.957032-3.589843 1.199218-2.503907-1.058594-4.601563-3.574219-4.601563zm0 0"/><path d="m124.4375 284.675781c4.121094 0 13.058594-6.191406 4.917969-6.191406h-41.96875c-4.121094 0-13.058594 6.191406-4.917969 6.191406zm0 0"/><path d="m53.613281 311.300781h-8.394531c-3.082031-.289062-6.101562 1.03125-7.980469 3.492188-1.277343 2.519531 1.097657 4.195312 3.464844 4.195312h8.394531c3.085938.292969 6.101563-1.027343 7.980469-3.488281 1.277344-2.460938-1.097656-4.199219-3.464844-4.199219zm0 0"/><path d="m127.375 310.480469h-41.96875c-7.101562 0-9.230469 9.339843-.957031 9.339843h41.96875c7.101562 0 9.199219-9.339843.957031-9.339843zm0 0"/><path d="m253.207031 311.320312c18.921875 1.8125 38.8125 0 57.832031 0 7.019532 0 9.234376-9.117187 1.023438-9.117187h-48.949219c-7.242187 0-10.777343 1.097656-12.539062-6.839844-.867188-8.652343-.867188-17.367187 0-26.019531 0-8.773438-4.859375-38.316406 4.0625-41.96875 6.714843-2.761719 20.546875 0 27.699219 0h20.277343c7.015625 0 9.230469-9.113281 1.023438-9.113281-16.636719 0-38.148438-4.003907-54.136719.839843-18.367188 5.578126-11.296875 38.398438-11.296875 52.777344.03125 15.132813-5.316406 37.492188 15.003906 39.441406zm0 0"/><path d="m283.644531 254.101562c-2.777343-2.789062-14.269531 1.675782-11.332031 4.597657 5.59375 5.597656 11.191406 11.191406 16.785156 16.789062 2.292969 2.289063 8.539063.433594 10.484375-1.511719 13.988281-13.988281 27.980469-27.980468 41.96875-41.96875 4.859375-4.859374-7.027343-4.195312-9.636719-1.578124-11.996093 11.988281-23.984374 23.976562-35.964843 35.96875zm0 0"/><path d="m374.722656 233.570312h75.539063c2.441406 0 13.691406-4.699218 7.957031-4.699218h-75.539062c-2.445313 0-13.691407 4.699218-7.957032 4.699218zm0 0"/><path d="m456.800781 262.082031h-8.394531c-2.992188-.09375-5.902344.988281-8.109375 3.015625-1.484375 2.214844 1.304687 2.40625 2.988281 2.40625h8.394532c2.992187.09375 5.902343-.988281 8.109374-3.011718 1.484376-2.214844-1.300781-2.410157-2.988281-2.410157zm0 0"/><path d="m376.308594 268.152344h33.574218c2.222657 0 7.082032-.839844 8.039063-3.273438s-.796875-3.417968-3.257813-3.417968h-33.574218c-2.222656 0-7.082032.839843-8.039063 3.273437s.796875 3.417969 3.257813 3.417969zm0 0"/><path d="m381.148438 295.21875c-4.195313 0-13.042969 6.296875-4.898438 6.296875h75.539062c4.195313 0 13.042969-6.296875 4.902344-6.296875zm0 0"/><path d="m315.480469 430.144531h-48.949219c-7.625 0-13.582031.503907-16.050781-8.863281-.902344-7.941406-.902344-15.957031 0-23.894531 0-7.78125-3.355469-43.4375.730469-46.125 4.660156-3.078125 22.183593 0 27.699218 0h20.285156c2.644532 0 13.773438-5.035157 7.859376-5.035157-17.460938-1.066406-34.972657-1.023437-52.425782.117188-22.304687 2.914062-16.335937 25.808594-16.335937 42.65625 0 13.21875-6.863281 43.964844 11.457031 46.214844 19.261719 1.148437 38.578125 1.148437 57.839844 0 2.679687-.035156 13.808594-5.070313 7.890625-5.070313zm0 0"/><path d="m331.695312 355.5-36.15625 36.160156-11.972656-11.96875c-3.683594-3.691406-15.214844 1.175782-11.160156 5.230469l16.785156 16.785156c3.265625 2.476563 7.882813 2.042969 10.625-1l41.96875-41.964843c5.296875-5.304688-6.464844-6.875-10.089844-3.242188zm0 0"/><path d="m454.769531 352.648438h-75.542969c-6.957031 0-9.316406 8.945312-1.054687 8.945312h75.539063c6.957031 0 9.316406-8.945312 1.058593-8.945312zm0 0"/><path d="m376.257812 393.84375h33.574219c2.140625 0 7.117188-.839844 8.054688-3.199219.941406-2.359375-.835938-3.097656-3.171875-3.097656h-33.574219c-2.140625 0-7.117187.839844-8.054687 3.199219-.941407 2.359375.804687 3.097656 3.171874 3.097656zm0 0"/><path d="m454.84375 420.070312h-75.539062c-6.78125 0-9.484376 8.445313-1.210938 8.445313h75.542969c6.78125-.050781 9.484375-8.445313 1.207031-8.445313zm0 0"/></g></svg>