<svg height="504pt" viewBox="0 -5 504.38766 504" width="504pt" xmlns="http://www.w3.org/2000/svg"><path d="m246.363281 342.738281c-1.78125 0-3.371093-1.128906-3.960937-2.8125-.589844-1.683593-.050782-3.554687 1.34375-4.667969l11.507812-9.164062-21.109375 12.175781c-1.890625 1.078125-4.289062.53125-5.527343-1.257812-1.238282-1.785157-.90625-4.222657.765624-5.613281l28.96875-23.761719-37.730468 21.78125c-1.898438 1.078125-4.304688.519531-5.539063-1.285157-1.230469-1.800781-.871093-4.25.824219-5.625l33.253906-26.574218-37.90625 21.875c-1.898437 1.09375-4.316406.542968-5.554687-1.261719-1.238281-1.808594-.878907-4.261719.820312-5.636719l34.179688-27.515625-35.042969 20.230469c-1.929688 1.097656-4.382812.5-5.59375-1.363281s-.761719-4.34375 1.027344-5.664063l9.273437-6.714844-6.191406 3.574219c-1.933594 1.101563-4.382813.503907-5.59375-1.359375-1.210937-1.863281-.761719-4.34375 1.027344-5.664062l4.195312-3.0625c-1.4375.144531-2.847656-.484375-3.699219-1.65625-1.289062-1.640625-1.175781-3.980469.265626-5.488282l16.898437-17.625c-1.742187.320313-3.496094-.5-4.367187-2.039062-1.152344-2.007812-.464844-4.566406 1.539062-5.726562l23.5-13.570313c1.808594-1.03125 4.097656-.585937 5.382812 1.050781 1.285157 1.636719 1.175782 3.96875-.253906 5.476563l-16.257812 16.972656 39.003906-22.519531c1.929688-1.097656 4.382812-.5 5.59375 1.363281 1.210938 1.859375.757812 4.34375-1.027344 5.664063l-1.503906 1.089843 6.488281-3.742187c1.929688-1.101563 4.382813-.503906 5.59375 1.359375 1.210938 1.863281.761719 4.347656-1.027343 5.664062l-9.28125 6.714844 12.882812-7.4375c1.898438-1.089844 4.316406-.542969 5.554688 1.265625 1.238281 1.804688.878906 4.257812-.820313 5.636719l-34.203125 27.570312 39.054688-22.542969c1.898437-1.078124 4.304687-.523437 5.535156 1.28125 1.234375 1.804688.875 4.25-.820313 5.625l-33.238281 26.546876 33.96875-19.605469c1.890625-1.09375 4.308594-.554688 5.550781 1.238281 1.246094 1.796875.90625 4.25-.78125 5.636719l-28.984375 23.761719 25.339844-14.621094c1.898438-1.078125 4.308594-.519532 5.539062 1.28125 1.230469 1.804687.875 4.25-.820312 5.625l-11.507812 9.175781 2.953124-1.679687c1.300782-.828126 2.953126-.875 4.296876-.121094 1.347656.75 2.171874 2.179687 2.152343 3.71875-.023437 1.542968-.886719 2.949218-2.25 3.664062l-51.589843 29.769532c-.632813.378906-1.359376.582031-2.097657.589843zm0 0" fill="#9ed26a"/><path d="m254.65625 494.296875c-1.714844.003906-3.257812-1.035156-3.898438-2.628906-.644531-1.589844-.25-3.410157.988282-4.597657l22.316406-21.460937-40.582031 23.425781c-1.925781 1.101563-4.378907.515625-5.597657-1.34375-1.214843-1.855468-.773437-4.339844 1.007813-5.664062l9.457031-6.96875-14.359375 8.292968c-1.925781 1.09375-4.367187.507813-5.582031-1.34375-1.214844-1.847656-.785156-4.324218.980469-5.65625l17.90625-13.285156-21.597657 12.464844c-1.886718 1.050781-4.265624.5-5.496093-1.277344-1.230469-1.773437-.910157-4.195312.738281-5.589844l37.769531-31.132812-41.019531 23.679688c-1.910156 1.105468-4.347656.542968-5.582031-1.285157s-.839844-4.300781.898437-5.65625l26.902344-20.941406-25.441406 14.6875c-1.878906 1.058594-4.257813.515625-5.496094-1.25s-.933594-4.183594.703125-5.589844l25.609375-21.414062-18.769531 10.828125c-1.828125 1.042968-4.144531.570312-5.417969-1.105469-1.269531-1.675781-1.109375-4.03125.382812-5.515625l14.488282-14.21875c-1.785156-.234375-3.21875-1.582031-3.570313-3.34375-.347656-1.765625.464844-3.554688 2.023438-4.453125l23.503906-13.574219c1.828125-1.039062 4.144531-.566406 5.414063 1.109375 1.273437 1.671875 1.113281 4.03125-.378907 5.515625l-12.019531 11.773438 31.777344-18.347656c1.882812-1.078126 4.28125-.542969 5.527344 1.234374 1.242187 1.78125.925781 4.214844-.734376 5.617188l-25.558593 21.425781 36.429687-21.023437c1.90625-1.105469 4.347656-.546875 5.582032 1.285156 1.230468 1.828125.839843 4.296875-.898438 5.65625l-26.886719 20.941406 32.265625-18.625c1.890625-1.097656 4.304688-.558594 5.550782 1.238282 1.246093 1.796874.90625 4.246093-.785157 5.636718l-37.820312 31.136719 41.085937-23.726563c1.925782-1.09375 4.367188-.507812 5.582032 1.34375 1.214843 1.847657.785156 4.324219-.980469 5.65625l-17.878907 13.285157 16.382813-9.457031c1.925781-1.105469 4.378906-.515626 5.597656 1.339843 1.214844 1.859375.777344 4.34375-1.003906 5.667969l-9.410156 6.933594 5.035156-2.90625c1.839844-1.105469 4.214844-.648438 5.511719 1.0625 1.292968 1.714844 1.089844 4.125-.476563 5.59375l-22.332031 21.464844 8.988281-5.179688c2.003907-1.140625 4.554688-.449219 5.707031 1.550781 1.15625 1.996094.480469 4.550781-1.511718 5.71875l-38.84375 22.417969c-.660156.390625-1.414063.59375-2.183594.578125zm0 0" fill="#eb5463"/><path d="m49.421875 402.339844c-1.808594 0-3.410156-1.15625-3.984375-2.871094-.570312-1.714844.019531-3.601562 1.464844-4.683594l30.929687-22.921875-51.292969 29.601563c-1.949218 1.070312-4.390624.433594-5.574218-1.453125-1.179688-1.882813-.683594-4.359375 1.125-5.648438l1.472656-1.003906-6.609375 3.808594c-1.882813 1.066406-4.269531.523437-5.507813-1.253907-1.238281-1.777343-.917968-4.203124.734376-5.601562l36.746093-30.539062-37.847656 21.824218c-1.910156 1.078125-4.328125.5-5.546875-1.324218-1.21875-1.824219-.828125-4.277344.898438-5.632813l10.332031-7.957031-5.691407 3.273437c-1.890624 1.046875-4.269531.488281-5.496093-1.296875-1.222657-1.785156-.890625-4.207031.769531-5.59375l3.039062-2.460937c-1.285156.089843-2.546874-.378907-3.457031-1.292969-1.328125-1.40625-1.519531-3.539062-.46875-5.160156l6.875-10.542969c-2.019531.429687-4.050781-.675781-4.789062-2.601563-.742188-1.925781.027343-4.105468 1.816406-5.136718l13.699219-7.914063c1.667968-.9375 3.757812-.621093 5.082031.761719 1.320313 1.382812 1.539063 3.488281.53125 5.113281l-6.613281 10.164063 28.035156-16.117188c1.890625-1.046875 4.269531-.484375 5.496094 1.296875 1.222656 1.785157.886718 4.207031-.773438 5.59375l-1.199218.976563 13.640624-7.867188c1.910157-1.074218 4.328126-.496094 5.546876 1.328125s.828124 4.277344-.898438 5.632813l-10.324219 7.957031 25.835938-14.917969c1.886719-1.066406 4.273437-.519531 5.507812 1.257813 1.238281 1.773437.921875 4.203125-.730469 5.601562l-36.765624 30.558594 64.824218-37.417969c1.949219-1.066406 4.394532-.429687 5.574219 1.453125 1.179687 1.882813.683594 4.363281-1.125 5.648438l-1.4375.984375 14-8.085938c1.925781-1.09375 4.367187-.503906 5.582031 1.34375 1.214844 1.851563.785156 4.324219-.980468 5.65625l-30.949219 22.933594 47.164062-27.222656c1.910157-1.105469 4.347657-.542969 5.582031 1.285156 1.234376 1.828125.839844 4.300781-.898437 5.65625l-34.253906 26.675781 36.929687-21.3125c1.882813-1.054687 4.257813-.515625 5.496094 1.25 1.238281 1.769531.933594 4.1875-.703125 5.59375l-24.742187 20.753907 20.378906-11.75c1.867187-1.082032 4.253906-.570313 5.511718 1.179687 1.261719 1.753906.984376 4.175781-.636718 5.601563l-9.113282 8.042968 4.195313-2.441406c1.808594-1.035156 4.097656-.585938 5.382813 1.050781 1.285156 1.636719 1.175781 3.96875-.253907 5.476563l-3.867187 4.039062c1.835937.132813 3.375 1.453125 3.785156 3.25s-.402344 3.652344-2 4.570313l-21.269531 12.230469c-1.804688 1.03125-4.09375.585937-5.378907-1.050782-1.285156-1.636718-1.179687-3.96875.253907-5.480468l2.054687-2.148438-15.039062 8.679688c-1.867188 1.0625-4.230469.546874-5.484375-1.195313-1.253907-1.738281-.992188-4.148437.605469-5.578125l9.105468-8.03125-25.671875 14.804688c-1.882812 1.058593-4.257812.515624-5.496093-1.25-1.238282-1.765626-.933594-4.183594.703124-5.589844l24.75-20.765625-47.816406 27.605469c-1.910156 1.105468-4.347656.542968-5.582031-1.285157s-.839844-4.300781.898437-5.65625l34.253907-26.632812-58.226563 33.574219c-.636718.386718-1.367187.59375-2.113281.597656zm0 0" fill="#4fc0e8"/><path d="m392.554688 402.339844c-1.796876.003906-3.398438-1.132813-3.980469-2.832032-.585938-1.699218-.023438-3.582031 1.394531-4.679687l37.703125-29.378906-62.882813 36.292969c-1.917968 1.105468-4.363281.535156-5.589843-1.304688-1.230469-1.839844-.820313-4.316406.9375-5.660156l35.707031-27.3125-51.503906 29.726562c-1.933594 1.054688-4.351563.4375-5.542969-1.417968-1.1875-1.855469-.738281-4.316407 1.027344-5.628907l12.925781-9.132812-13.359375 7.710937c-1.921875 1.117188-4.375.546875-5.605469-1.300781-1.230468-1.847656-.808594-4.332031.960938-5.671875l17.972656-13.683594-14.269531 8.253906c-1.851563 1.074219-4.214844.582032-5.484375-1.140624-1.273438-1.722657-1.042969-4.125.53125-5.574219l17.039062-15.757813-12.085937 6.976563c-1.671875.96875-3.789063.667969-5.128907-.722657-1.335937-1.394531-1.550781-3.519531-.519531-5.152343l7.242188-11.457031c-1.863281.554687-3.863281-.246094-4.832031-1.929688-1.15625-2.003906-.472657-4.5625 1.527343-5.726562l13.695313-7.914063c1.671875-.96875 3.789062-.667969 5.128906.722656 1.339844 1.394531 1.554688 3.519531.519531 5.152344l-7.109375 11.246094 29.816406-17.164063c1.851563-1.074218 4.214844-.582031 5.484376 1.140625 1.269531 1.722657 1.039062 4.125-.535157 5.574219l-17.046875 15.765625 38.929688-22.480469c1.914062-1.082031 4.339844-.503906 5.558594 1.328125 1.222656 1.828125.820312 4.289063-.917969 5.640625l-17.953125 13.671875 35.765625-20.640625c1.9375-1.089844 4.390625-.476562 5.589843 1.398438 1.199219 1.875.726563 4.359375-1.074218 5.660156l-12.949219 9.152344 28.066406-16.210938c1.914063-1.082031 4.339844-.503906 5.558594 1.328125 1.21875 1.828125.820313 4.289063-.917969 5.640625l-35.695312 27.292969 59.398437-34.261719c1.90625-1.082031 4.328125-.511718 5.554688 1.304688 1.222656 1.820312.839843 4.277344-.878907 5.636718l-37.695312 29.378907 47.992188-27.699219c1.886718-1.078125 4.28125-.542969 5.527343 1.234375 1.246094 1.78125.925781 4.214844-.734375 5.613281l-32.53125 27.347656 29.921875-17.265624c1.914063-1.082032 4.339844-.503907 5.558594 1.324218 1.21875 1.832032.820313 4.292969-.917969 5.640625l-3.355468 2.519531c1.871093-.363281 3.75.582032 4.578124 2.296876.828126 1.71875.394532 3.777343-1.054687 5.015624l-3.214844 2.742188c1.371094-.132812 2.722657.390625 3.644531 1.410156 1.316407 1.511719 1.382813 3.738282.160157 5.324219l-4.929688 6.394531c1.691407.375 2.972657 1.75 3.234375 3.460938.261719 1.710937-.550781 3.402344-2.050781 4.269531l-13.585937 7.847656c-1.730469 1.007813-3.929688.65625-5.257813-.839843-1.320313-1.507813-1.390625-3.742188-.164063-5.328126l3.144532-4.089843-17.996094 10.324219c-1.871094 1.0625-4.246094.535156-5.492188-1.226563-1.246093-1.757813-.957031-4.171875.667969-5.589844l1.769531-1.519531-14.4375 8.335938c-1.914062 1.105468-4.359374.535156-5.585937-1.304688-1.230469-1.839844-.820313-4.316406.9375-5.660156l1.9375-1.46875-14.628906 8.390625c-1.878907 1.058593-4.253907.519531-5.492188-1.25-1.238281-1.765625-.9375-4.183594.699219-5.589844l32.550781-27.371094-59.273437 34.253907c-.636719.378906-1.359375.585937-2.097656.597656zm0 0" fill="#4fc0e8"/><path d="m294.804688 191.066406c-1.683594 0-3.207032-1.003906-3.863282-2.554687-.660156-1.550781-.328125-3.339844.839844-4.554688l10.71875-11.09375-28.875 16.652344c-1.300781.824219-2.949219.871094-4.296875.121094-1.34375-.75-2.171875-2.179688-2.148437-3.722657.019531-1.539062.882812-2.945312 2.25-3.660156l54.617187-31.542968c1.808594-1.042969 4.109375-.597657 5.398437 1.042968 1.292969 1.644532 1.175782 3.988282-.269531 5.496094l-12.660156 13.136719c1.816406.179687 3.308594 1.511719 3.691406 3.292969.382813 1.785156-.429687 3.609374-2.011719 4.519531l-21.292968 12.296875c-.636719.375-1.359375.574218-2.097656.570312zm0 0" fill="#d56fac"/><path d="m248.371094 242.871094c-1.671875-.003906-3.183594-.996094-3.847656-2.53125-.664063-1.535156-.351563-3.316406.792968-4.535156l.914063-.984376-7.261719 4.199219c-1.832031 1.070313-4.175781.605469-5.460938-1.085937-1.28125-1.695313-1.101562-4.078125.425782-5.554688l7.765625-7.554687-5.828125 3.359375c-1.828125 1.039062-4.140625.566406-5.414063-1.105469-1.273437-1.675781-1.113281-4.035156.378907-5.519531l11.523437-11.363282-8.644531 4.996094c-1.9375 1.105469-4.402344.5-5.609375-1.378906-1.207031-1.875-.734375-4.367188 1.078125-5.671875l41.699218-29.695313-40.019531 23.105469c-1.9375 1.121094-4.417969.527344-5.632812-1.355469-1.214844-1.878906-.738281-4.382812 1.082031-5.6875l55.4375-39.910156-55.152344 31.835938c-1.929687 1.117187-4.398437.527344-5.613281-1.34375-1.214844-1.867188-.757813-4.359375 1.039063-5.671875l63.027343-46.082031-65.074219 37.585937c-1.941406 1.050781-4.359374.421875-5.542968-1.4375-1.183594-1.863281-.722656-4.320313 1.050781-5.628906l45.324219-31.535157-55.394532 31.988282c-1.960937 1.117187-4.453124.480468-5.640624-1.433594-1.191407-1.917969-.652344-4.429688 1.214843-5.691406l22.46875-14.898438-41.125 23.734375c-1.960937 1.199219-4.515625.597657-5.738281-1.34375-1.222656-1.941406-.660156-4.503906 1.261719-5.753906l55.339843-37.773437-67.769531 39.125c-1.949219 1.132812-4.445312.523437-5.65625-1.382813-1.207031-1.90625-.691406-4.425781 1.167969-5.703125l72.023438-49.984375-79.738282 46.039063c-1.964844 1.097656-4.449218.449218-5.625-1.472657-1.175781-1.917969-.628906-4.425781 1.242188-5.679687l22.664062-14.613282-22.746094 13.128907c-1.957031 1.082031-4.417968.4375-5.597656-1.464844-1.175781-1.898437-.65625-4.390625 1.183594-5.660156l47.328125-31.273438-45.683594 26.378907c-1.945312 1.101562-4.410156.488281-5.609375-1.394532-1.203125-1.882812-.71875-4.375 1.101563-5.671875l74.332031-52.039062-92.269531 53.164062c-1.960938 1.097657-4.4375.453125-5.617188-1.457031-1.183593-1.914062-.648437-4.414062 1.210938-5.679688l38.996093-25.625-46.164062 26.683594c-1.953125 1.136719-4.457031.519532-5.660156-1.394531s-.675782-4.4375 1.195312-5.707031l57.34375-39.203125-62.472656 36.089843c-1.9375 1.089844-4.390625.476563-5.589844-1.398437-1.199218-1.871094-.726562-4.355469 1.074219-5.660156l63.445313-44.746094-64.839844 37.425781c-1.945313 1.058594-4.378906.421875-5.554688-1.453125-1.179687-1.875-.699218-4.34375 1.097656-5.636719l25.289063-17.25-21.820313 12.589844c-1.9375 1.09375-4.386718.488282-5.59375-1.378906-1.203124-1.867188-.742187-4.351562 1.050782-5.664062l31.433594-22.535157-21.820313 12.589844c-1.871094 1.054687-4.230469.527344-5.476563-1.214844-1.246093-1.746093-.976562-4.148437.625-5.574219l30.960938-27.019531c-.335938-.296875-.617188-.648437-.839844-1.039062-1.15625-2.007813-.46875-4.574219 1.539063-5.734375l21.328125-12.304688c1.867187-1.050781 4.226562-.527344 5.472656 1.214844 1.246094 1.746094.976562 4.148438-.625 5.574219l-19.738281 17.175781 58.230469-33.574219c1.9375-1.09375 4.390624-.488281 5.59375 1.378907 1.203124 1.867187.742187 4.351562-1.050782 5.664062l-31.417968 22.5 45.023437-25.96875c1.953125-1.097656 4.421875-.46875 5.613281 1.425781 1.1875 1.898438.679688 4.394531-1.15625 5.675781l-25.179687 17.179688 47.75-27.597656c1.9375-1.089844 4.390625-.476563 5.589843 1.398437 1.199219 1.875.726563 4.359375-1.074218 5.660157l-63.4375 44.753906 78.058594-45.046875c1.953124-1.132813 4.457031-.515625 5.660156 1.398437 1.203125 1.910156.675781 4.433594-1.195313 5.703125l-57.425781 39.214844 76.855469-44.367187c1.96875-1.117188 4.464843-.476563 5.648437 1.445312 1.1875 1.925781.632813 4.445312-1.25 5.695312l-39.019531 25.652344 48.957031-28.285156c1.945313-1.105469 4.410156-.492188 5.609375 1.390625 1.203125 1.882813.71875 4.378906-1.101562 5.675781l-74.363281 52.097656 83.421874-48.152343c1.960938-1.097657 4.4375-.457031 5.617188 1.457031 1.183594 1.910156.648438 4.414062-1.210938 5.675781l-47.238281 31.199219 48.539063-28.015625c1.96875-1.125 4.476562-.476563 5.65625 1.457031 1.183594 1.9375.613281 4.460938-1.285156 5.699219l-22.753907 14.691406 20.648438-11.921875c1.949219-1.132812 4.449219-.523437 5.65625 1.382813s.691406 4.425781-1.164063 5.703125l-72.007812 49.984375 76.808594-44.34375c1.945312-1.082031 4.402343-.453125 5.589843 1.429687 1.1875 1.886719.695313 4.375-1.125 5.664063l-55.304687 37.769531 62.109375-35.847656c1.964843-1.136719 4.472656-.507813 5.667969 1.417968 1.199218 1.925782.648437 4.460938-1.242188 5.714844l-22.503906 14.914063 24.273437-14.023438c1.945313-1.085937 4.398438-.464843 5.589844 1.414063 1.195313 1.878906.710937 4.363281-1.097656 5.660156l-45.324219 31.542969 46.273438-26.714844c1.925781-1.089844 4.367187-.492187 5.578124 1.363281 1.207032 1.851563.769532 4.328125-1.003906 5.652344l-63.054687 46.070312 60.066406-34.671874c1.9375-1.125 4.414063-.527344 5.628906 1.351562 1.214844 1.882812.738281 4.386719-1.082031 5.691406l-55.394531 39.902344 44.015625-25.40625c1.9375-1.105469 4.402344-.503906 5.609375 1.375 1.207031 1.875.730469 4.371094-1.078125 5.675781l-75.398438 53.714844c1.113282 1.675781.878906 3.90625-.554687 5.316406l-11.550781 11.320313 6.5-3.742188c1.832031-1.074218 4.175781-.605468 5.460937 1.085938 1.28125 1.691406 1.101563 4.074218-.425781 5.550781l-7.773438 7.554687 2.753906-1.578124c1.796876-1.015626 4.070313-.574219 5.355469 1.042968 1.285157 1.621094 1.199219 3.933594-.203125 5.453125l-2.683594 2.878907c1.820313.164062 3.332032 1.488281 3.726563 3.277343.394531 1.785157-.414063 3.625-2 4.539063l-20.335937 11.707031c-.628907.386719-1.351563.59375-2.089844.605469zm0 0" fill="#d56fac"/><g fill="#262626"><path d="m477.488281 327.367188c-17.09375-1.03125-34.226562-1.144532-51.328125-.34375.378906-11.230469 2.679688-26.496094-5.464844-34.707032-7.160156-7.21875-19.085937-5.355468-28.367187-5.355468h-83.820313c-.710937-23.25-17.273437-42.976563-40.050781-47.699219 11.589844-10.164063 8.039063-31.257813 6.921875-47.648438 17.871094 3.804688 36.363282-2.753906 47.84375-16.964843 14.941406-18.53125 33.246094-46.726563 35.816406-70.453126 0-.308593-.046874-.613281-.136718-.90625 0-.109374.058594-.195312 0-.300781-2.59375-24.460937-13.941406-28.539062-27.015625-45.738281-9.796875-12.882812-11.457031-32.40625-28.757813-42.804688-21.90625-13.222656-57.050781-12.339843-80.972656-12.96875-26.570312-.707031-60.582031-1.074218-85.132812 12.179688-23.199219 12.523438-53.71875 44.828125-49.691407 73.023438 2.300781 17.773437 14.976563 32.46875 32.222657 37.347656 5.746093.164062 11.492187-.042969 17.207031-.628906.917969 5.179687 6.222656 21.582031 6.4375 21.941406 8.578125 13.765625 23.511719 22.285156 39.726562 22.664062 32.484375 1.894532 36.839844 15.105469 42.664063 46.734375.996094 9.105469 4.367187 17.789063 9.777344 25.179688-22.113282 5.226562-38.160157 24.371093-39.445313 47.0625-28.1875-.144531-56.449219-.757813-84.597656.050781-8.984375-.855469-17.996094 1.296875-25.617188 6.125-10.074219 8.183594-8.09375 23.503906-7.554687 35.78125-16.613282-1.015625-33.273438-.980469-49.882813.109375-34.011719 4.15625-38.828125 66.015625-6.261719 71.722656 18.664063 1.84375 37.464844 1.882813 56.136719.117188-.296875 10.910156-2.789062 26.210937 3.84375 35.253906 6.957031 9.484375 18.464844 8.449219 28.753907 8.449219h85.085937c2.878906 66.46875 103.777344 62.648437 112.253906.101562h84.328125c10.074219 0 20.011719.328125 27.597656-7.671875 7.921876-8.394531 6.875-21.351562 6.335938-32.734375 17.132812-.839844 34.128906-1.945312 50.167969-1.945312.371093-.03125.734375-.09375 1.09375-.1875.703125.03125 1.410156-.023438 2.105469-.15625 33.742187-6.894532 32.769531-71.75-2.222657-74.628906zm-259.410156-171.417969c-1.734375-1.800781-4.351563-2.429688-6.714844-1.613281-41.234375 4.632812-61.9375-6.761719-62.109375-34.195313.300782-3.011719-3.183594-4.429687-5.675781-4.195313-72.023437 7.136719-35.160156-53.515624-19.171875-73.023437 11.542969-12.058594 26.171875-20.722656 42.296875-25.046875 14.992187-3.542969 30.394531-5.066406 45.792969-4.53125 25.507812.21875 102.636718 6.714844 100.429687 44.207031-.0625 1.726563 1.035157 3.28125 2.683594 3.796875 18.066406 7.292969 30.191406 24.488282 30.996094 43.957032-2.515625 20.351562-50.234375 83.152343-74.222657 75.613281-3.078124-.964844-9.652343.3125-9.652343 4.632812 0 12.734375 7.671875 53.914063-13.570313 48.777344-15.007812-3.660156-20.742187-62.390625-31.082031-78.378906zm22.503906 87.886719c6.355469 2.679687 13.539063 2.609374 19.839844-.191407 2.414063.558594 4.773437 1.332031 7.050781 2.308594 17.519532 8.136719 28.785156 25.632813 28.949219 44.945313-1.675781 31.425781-32.523437 57.914062-63.992187 39.710937-15.191407-8.992187-24.527344-25.316406-24.574219-42.96875.011719-20.234375 13.324219-38.054687 32.726562-43.804687zm-217.582031 147.449218c-10.417969-7.621094-14.4375-44.328125-4.039062-54.324218 7.335937-7.066407 25.179687-3.398438 35.183593-3.398438h60.621094c12.847656 0 38.097656-4.800781 46.011719 9.558594 5.386718 9.773437 3.945312 49.027344-7.488282 52.9375h-63.371093c-1.675781-2.785156-7.375-2.296875-10.179688 0h-17.625c-13.09375 0-28.277343 3.164062-39.113281-4.773438zm222.003906 94.761719c-21.710937-5.101563-37.003906-24.550781-36.839844-46.851563-.488281-13.917968 5.742188-27.222656 16.746094-35.757812s25.4375-11.261719 38.796875-7.328125c19.351563 6.714844 32.410157 24.84375 32.648438 45.324219-1.628907 26.617187-22.394531 50.488281-51.351563 44.613281zm158.527344-49.984375c-6.984375 2.71875-20.546875 0-27.917969 0h-67.304687c-6.238282-65.871094-106.796875-63.066406-112.347656.101562h-64.023438c-9.707031 1.066407-19.496094 1.066407-29.203125 0-15.273437-3.828124-12.796875-22.308593-12.378906-35.453124h56.664062c1.078125.058593 2.15625-.039063 3.207031-.292969 20.453126-4.132813 24.054688-14.070313 24.054688-34.15625 0-20.664063.597656-34.847657-22.402344-37.347657-20.492187-1.394531-41.054687-1.460937-61.558594-.203124-.183593-9.871094-3.429687-32.382813 7.414063-37.140626 6.972656-3.0625 22.167969 0 29.601563 0h68.398437c.898437 68.917969 104.84375 63.136719 112.429687 0h64.957032c9.234375 0 26.136718-2.953124 34.273437 2.9375 8.660157 6.285157 7.351563 21.597657 6.714844 32.734376-2.863281.050781-5.75.132812-8.589844.132812-17.296875-1.40625-34.679687-1.40625-51.980469 0-33.40625 5.726562-35.898437 69.078125-2.515624 74.855469 20.867187 3.03125 41.992187 3.875 63.035156 2.515625.585937 11.566406 1.550781 26.625-10.527344 31.316406zm75.230469-41.546875h-55.144531c-1.738282-.566406-3.609376-.566406-5.347657 0h-21.820312c-11.148438 0-29.007813 3.507813-39.746094 0-17.144531-5.605469-20.445313-40.390625-10.070313-53.265625 7.921876-9.878906 21.292969-6.144531 33.917969-6.144531h57.621094c10.289063 0 26.859375-3.3125 36.761719 0 15.277344 5.15625 25.265625 53.519531 3.828125 59.410156zm0 0"/><path d="m120 124.113281c-.148438 0-.292969-.101562-.445312-.125.019531.03125.128906.066407.445312.125zm0 0"/><path d="m241.429688 287.640625c.152343-4.355469 2.769531-12.453125 8.097656-12.589844 2.980468.054688 5.871094-.992187 8.125-2.9375 1.496094-2.113281-1.316406-2.164062-2.902344-2.113281-12.210938.410156-25.03125 7.621094-25.472656 20.984375-.070313 1.886719 12.035156.308594 12.152344-3.34375zm0 0"/><path d="m254.546875 420.292969c-11.984375.402343-24.808594 7.652343-25.261719 20.875-.160156 4.707031 12 2.164062 12.136719-1.628907.148437-4.652343 2.515625-12.5 8.308594-12.699218 3.035156.160156 5.984375-1.039063 8.039062-3.273438 1.421875-2.300781-1.207031-3.359375-3.222656-3.273437zm0 0"/><path d="m105.472656 367.171875h8.394532c3.023437.035156 6-.765625 8.601562-2.308594 1.769531-1.175781 1.839844-2.410156-.644531-2.410156h-8.394531c-3.027344-.035156-6.003907.761719-8.605469 2.308594-1.769531 1.167969-1.835938 2.410156.648437 2.410156zm0 0"/><path d="m81.492188 364.8125c.957031-2.402344-.839844-3.140625-3.171876-3.140625h-33.574218c-2.15625 0-7.117188.839844-8.058594 3.207031-.941406 2.367188.796875 3.140625 3.171875 3.140625h33.574219c2.15625-.035156 7.117187-.882812 8.058594-3.207031zm0 0"/><path d="m464.410156 361.605469h-8.394531c-3.03125-.171875-5.980469 1.011719-8.058594 3.222656-1.46875 2.351563 1.261719 3.191406 3.191407 3.191406h8.394531c3.027343.171875 5.976562-1 8.054687-3.207031 1.46875-2.367188-1.257812-3.207031-3.1875-3.207031zm0 0"/><path d="m422.359375 361.3125h-33.574219c-2.351562 0-6.96875.796875-8.015625 3.355469-1.050781 2.5625.839844 3.660156 3.316407 3.660156h33.570312c2.351562 0 6.96875-.796875 8.015625-3.355469 1.050781-2.5625-.863281-3.660156-3.3125-3.660156zm0 0"/><path d="m254.40625 44.785156c.710938-.285156 5.640625-2.929687 3.414062-4.195312-13.347656-7.425782-29.460937-7.964844-43.273437-1.445313-7.808594 3.441407-.5625 6.195313 4.523437 3.953125 8.902344-3.847656 19.128907-3.109375 27.386719 1.980469 2.5625 1.074219 5.46875.964844 7.949219-.292969zm0 0"/><path d="m172.652344 39.5c-15.863282-.105469-30.46875 8.632812-37.878906 22.660156-2.792969 5.875 9.433593 5.28125 11.5.933594 4.550781-9.679688 14.371093-15.773438 25.0625-15.554688 6.578124-.183593 9.652343-8.25 1.316406-8.039062zm0 0"/><path d="m211.304688 126.765625c-11.597657 2.226563-23.101563-4.289063-27.152344-15.386719-1.132813-2.871094-13.058594.972656-12.152344 3.257813 6.277344 15.878906 21.730469 19.042969 37.074219 16.585937 1.382812-.21875 7.015625-1.402344 7.125-3.308594.089843-2.082031-3.667969-1.351562-4.894531-1.148437zm0 0"/><path d="m298.914062 90.707031c4.300782.902344 8.226563 3.074219 11.28125 6.226563 2.367188 3.007812 3.351563 6.875 2.714844 10.648437-.640625 3.773438-2.84375 7.101563-6.070312 9.160157-2.15625 1.402343-3.039063 4.082031-.789063 5.777343 2.824219 1.34375 6.164063 1.019531 8.679688-.839843 9.105469-5.183594 12.945312-16.328126 8.960937-26.019532-3.757812-6.566406-10.195312-11.164062-17.625-12.589844-4.726562-1.664062-14.261718 5.175782-7.152344 7.636719zm0 0"/></g></svg>