<svg height="506pt" viewBox="0 -3 506.30688 506" width="506pt" xmlns="http://www.w3.org/2000/svg"><path d="m105.398438 484.878906c-1.8125.003906-3.429688-1.136718-4.035157-2.847656-.601562-1.710938-.058593-3.613281 1.355469-4.746094l2.5-2.007812-3.292969 1.894531c-1.925781 1.105469-4.378906.546875-5.636719-1.28125-1.261718-1.828125-.90625-4.320313.816407-5.722656l9.386719-7.679688-4.566407 2.636719c-1.921875 1.105469-4.371093.558594-5.636719-1.261719-1.265624-1.820312-.925781-4.304687.78125-5.71875l11.851563-9.753906-6.953125 4c-1.90625 1.078125-4.3125.542969-5.582031-1.242187-1.265625-1.78125-.976563-4.234376.664062-5.675782l16.582031-14.304687-11.707031 6.777343c-1.882812 1.078126-4.269531.570313-5.554687-1.171874-1.285156-1.746094-1.058594-4.179688.527344-5.65625l22.453124-20.65625-17.433593 10.066406c-1.886719 1.167968-4.351563.695312-5.671875-1.085938-1.320313-1.777344-1.058594-4.273437.601562-5.738281l24.859375-23.640625-19.789062 11.417969c-1.90625 1.097656-4.332031.566406-5.605469-1.222657-1.273438-1.792968-.976562-4.257812.679688-5.695312l16.949218-14.644531-12.023437 6.9375c-1.867188 1.050781-4.226563.554687-5.511719-1.164063-1.28125-1.714844-1.09375-4.117187.441406-5.609375l24.984375-23.894531-19.914062 11.503906c-1.914063 1.109375-4.363281.574219-5.636719-1.238281-1.273438-1.808594-.949219-4.292969.746094-5.71875l14.402344-12.175781-9.511719 5.488281c-1.910157 1.101563-4.34375.566406-5.617188-1.234375-1.273437-1.796875-.964843-4.273438.710938-5.703125l15.496093-13.230469-10.589843 6.101563c-1.921875 1.089843-4.351563.535156-5.609375-1.277344-1.261719-1.8125-.929688-4.285156.761718-5.703125l11.390626-9.382812-6.542969 3.769531c-1.9375 1.082031-4.382813.496093-5.621094-1.347657-1.234375-1.839843-.855469-4.320312.875-5.710937l3.320313-2.558594c-1.886719.320313-3.753907-.652343-4.570313-2.378906-.816406-1.730469-.386719-3.789063 1.054687-5.042969l17.816407-15.566406-12.875 7.433594c-1.941407 1.101562-4.402344.523437-5.648438-1.328125-1.242187-1.851563-.855469-4.347657.894531-5.730469l3.59375-2.796875c-1.929687.460937-3.917968-.464844-4.808593-2.234375-.890625-1.773438-.441407-3.921875 1.078125-5.191406l14.292968-12.082032-9.386718 5.425782c-1.914063 1.09375-4.34375.550781-5.609375-1.253906-1.265625-1.800782-.949219-4.273438.726562-5.699219l13.65625-11.453125-8.738281 5.042968c-1.84375 1.0625-4.183594.609376-5.496094-1.066406-1.308594-1.675781-1.1875-4.058594.289063-5.589844l14.148437-14.667968-8.941406 5.121094c-1.636719.9375-3.699219.6875-5.066406-.613282-1.363282-1.300781-1.714844-3.347656-.855469-5.027344l4.265625-8.382812c-1.886719-.089844-3.492188-1.417969-3.9375-3.253906-.445312-1.835938.371094-3.75 2.007812-4.699219l9.644532-5.5625c1.636718-.9375 3.695312-.6875 5.0625.613281 1.367187 1.300782 1.714844 3.347656.859375 5.027344l-3.730469 7.253906 22.597656-13.054687c1.839844-1.0625 4.179688-.609375 5.492188 1.058593 1.308594 1.671876 1.191406 4.054688-.277344 5.585938l-14.160156 14.6875 24.484375-14.132812c1.914062-1.089844 4.34375-.546876 5.609375 1.253906 1.265625 1.804687.949218 4.273437-.730469 5.703125l-13.652344 11.476562 8.789063-5.070312c1.914062-1.109375 4.363281-.574219 5.636718 1.238281 1.269532 1.808594.949219 4.292969-.746093 5.71875l-14.285157 12.074219 9.386719-5.425781c1.941407-1.101563 4.398438-.523438 5.644531 1.324218 1.246094 1.851563.859376 4.347656-.890624 5.730469l-3.585938 2.789063c1.917969-.464844 3.902344.445312 4.804688 2.199218.898437 1.753906.480468 3.898438-1.015626 5.183594l-17.789062 15.53125 12.859375-7.414062c1.9375-1.082032 4.378906-.496094 5.617187 1.34375 1.238282 1.84375.859376 4.324218-.875 5.710937l-3.328124 2.5625c1.648437-.300781 3.316406.390625 4.269531 1.765625 1.265625 1.824219.917969 4.3125-.796875 5.726562l-11.382813 9.386719 6.539063-3.773437c1.90625-1.097656 4.335937-.566406 5.609375 1.230468 1.273437 1.792969.972656 4.261719-.695313 5.699219l-15.496094 13.234375 10.597657-6.117187c1.914062-1.132813 4.378906-.605469 5.660156 1.214843 1.28125 1.820313.949219 4.316407-.761719 5.738282l-14.394531 12.160156 9.503906-5.476562c1.871094-1.148438 4.308594-.683594 5.632813 1.066406 1.320312 1.75 1.101562 4.21875-.511719 5.707031l-25.003906 23.894531 19.953125-11.519531c1.902344-1.09375 4.328125-.566406 5.601562 1.226563 1.273438 1.789062.980469 4.253906-.679687 5.691406l-16.945313 14.671875 12.039063-6.949219c1.886719-1.414062 4.558593-1.03125 5.972656.855469 1.414063 1.882812 1.03125 4.558593-.851563 5.972656l-24.84375 23.628906 19.78125-11.425781c1.882813-1.078125 4.273438-.574219 5.558594 1.171875s1.054688 4.179687-.53125 5.65625l-22.519531 20.648437 17.449219-10.078124c1.90625-1.097657 4.335937-.566407 5.609375 1.230468 1.273437 1.792969.972656 4.261719-.691407 5.699219l-16.566406 14.285156 11.667969-6.734375c1.914063-1.082031 4.34375-.53125 5.601563 1.277344 1.257812 1.804688.933593 4.273438-.746094 5.695312l-11.828125 9.769532 6.945312-4.007813c1.925781-1.101562 4.371094-.542969 5.628907 1.28125 1.257812 1.820313.910156 4.304688-.796876 5.714844l-9.441406 7.679687 4.628906-2.671874c1.925782-1.109376 4.386719-.550782 5.644532 1.285156 1.261718 1.835937.898437 4.332031-.832032 5.730468l-3.550781 2.859376c1.375-.277344 2.796875.125 3.820313 1.082031 1.375 1.304687 1.722656 3.359375.855468 5.042969l-6.742187 13.152343.855469-.46875c1.320312-.84375 3-.890625 4.367187-.125 1.367188.761719 2.207031 2.214844 2.1875 3.78125-.023437 1.566407-.902343 2.996094-2.289062 3.722657l-13.371094 7.679687c-1.640625.945313-3.703125.699219-5.074219-.601563-1.371094-1.304687-1.71875-3.355468-.859375-5.039062l6.734375-13.105469-32.785156 18.917969c-.644531.382812-1.382812.589844-2.132812.597656zm0 0" fill="#fdcd56"/><path d="m168.785156 484.785156c-1.738281-.007812-3.296875-1.066406-3.945312-2.679687-.644532-1.609375-.25-3.453125 1-4.660157l7.722656-7.414062-20.4375 11.792969c-1.882812 1.109375-4.300781.617187-5.597656-1.140625-1.296875-1.757813-1.058594-4.214844.554687-5.6875l23.371094-21.75-18.328125 10.582031c-1.871094 1.125-4.285156.65625-5.601562-1.082031-1.316407-1.742188-1.109376-4.195313.480468-5.6875l25.53125-24.515625-20.476562 11.800781c-1.917969 1.085938-4.34375.53125-5.601563-1.273438-1.261719-1.808593-.9375-4.273437.746094-5.695312l12.089844-10.035156-7.234375 4.171875c-1.878906 1.019531-4.222656.492187-5.484375-1.230469-1.257813-1.726562-1.050781-4.117188.492187-5.597656l21.050782-19.039063-15.992188 9.261719c-1.933594 1.101562-4.386719.53125-5.640625-1.304688-1.25-1.839843-.878906-4.332031.855469-5.726562l5.785156-4.601562-1 .539062c-1.929688 1.09375-4.378906.527344-5.628906-1.304688-1.253906-1.832031-.890625-4.320312.832031-5.71875l7.042969-5.640624-2.253906 1.296874c-1.882813 1.128907-4.316407.640626-5.621094-1.125-1.304688-1.761718-1.058594-4.230468.570312-5.703124l23.644532-22.101563-18.59375 10.738281c-1.925782 1.082032-4.359376.519532-5.613282-1.304687-1.25-1.820313-.902344-4.296875.800782-5.703125l8.464843-6.828125-3.652343 2.109375c-1.941407 1.101562-4.398438.523437-5.644532-1.328125-1.246094-1.847657-.859375-4.347657.890625-5.730469l3.660157-2.855469c-1.902344.480469-3.886719-.394531-4.8125-2.125-.925782-1.730469-.550782-3.867187.90625-5.179687l21.109374-19.097656-16.109374 9.332031c-1.910157 1.085937-4.328126.546875-5.59375-1.246094-1.265626-1.792969-.964844-4.253906.695312-5.691406l15.359375-13.097657-10.453125 6.035157c-1.921875 1.078125-4.351562.515625-5.601562-1.300781-1.25-1.816407-.914063-4.285157.78125-5.699219l9.640624-7.859375-4.820312 2.773437c-1.878906 1.019531-4.21875.496094-5.480469-1.230469-1.261719-1.722656-1.050781-4.113281.488281-5.59375l20.863282-18.886718-15.878906 9.132812c-1.871094 1.125-4.289063.660156-5.605469-1.082031-1.316407-1.738281-1.105469-4.191406.484375-5.6875l25.402344-24.378906-20.316407 11.726562c-1.867187 1.0625-4.238281.574219-5.527343-1.148437-1.289063-1.722656-1.097657-4.132813.449218-5.628906l25.25-24.148438-20.136718 11.621094c-1.882813 1.109375-4.300782.617187-5.597657-1.140625-1.300781-1.757813-1.058593-4.210938.554688-5.683594l23.390625-21.820313-18.347656 10.597657c-1.910157 1.101562-4.34375.570312-5.617188-1.230469s-.964844-4.273438.710938-5.707031l15.546874-13.292969-10.640624 6.140625c-1.898438 1.070313-4.300782.539063-5.566407-1.234375-1.269531-1.773438-.996093-4.21875.632813-5.667969l17.621094-15.359375-12.6875 7.3125c-1.878907 1.046875-4.246094.53125-5.519532-1.203125-1.269531-1.734375-1.054687-4.144531.511719-5.621093l21.742187-19.859376-16.734374 9.660157c-1.871094 1.050781-4.230469.554687-5.515626-1.167969-1.28125-1.71875-1.085937-4.125.453126-5.617188l24.59375-23.355468-19.53125 11.273437c-1.894532 1.082031-4.300782.554688-5.574219-1.214843-1.277344-1.769532-1.011719-4.214844.617187-5.671876l18.667969-16.453124-13.710937 7.910156c-1.886719 1.167968-4.347657.695312-5.671876-1.082032-1.320312-1.78125-1.058593-4.277343.601563-5.742187l24.824219-23.65625-19.753906 11.453125c-1.878907 1.03125-4.234376.511719-5.5-1.21875-1.265626-1.726562-1.054688-4.128906.5-5.609375l21.265624-19.300781-16.265624 9.386718c-1.875.992188-4.195313.457032-5.445313-1.257812-1.253906-1.714844-1.050781-4.089844.46875-5.570312l16.863281-15.042969-11.886718 6.824219c-1.839844 1.0625-4.179688.613281-5.492188-1.058594s-1.191406-4.054688.277344-5.585938l8.003906-8.363281-2.789062 1.605469c-1.699219.992187-3.859376.691406-5.222657-.726563-1.367187-1.417969-1.585937-3.585937-.53125-5.25l2.945313-4.707031c-1.578125-.546875-2.695313-1.964844-2.851563-3.632812-.160156-1.664063.667969-3.265626 2.117188-4.101563l9.625-5.546875c1.703125-.992188 3.859375-.691406 5.226562.726562 1.363281 1.417969 1.582031 3.585938.527344 5.25l-1.261719 2.027344 13.839844-7.96875c1.835938-1.046875 4.164062-.59375 5.472656 1.070313 1.304688 1.664062 1.195313 4.035156-.257812 5.570312l-8.015625 8.371094 21.941406-12.664063c1.894531-1.09375 4.308594-.578124 5.589844 1.195313 1.28125 1.769531 1.015625 4.226563-.617188 5.683594l-16.851562 15.027343 14.761719-8.535156c1.878906-1.035156 4.230468-.511718 5.5 1.21875 1.265624 1.726563 1.054687 4.128906-.5 5.609375l-21.273438 19.316407 16.28125-9.386719c1.886719-1.164063 4.351562-.691407 5.671875 1.085937 1.320313 1.78125 1.058594 4.277344-.601563 5.742188l-24.824218 23.65625 19.773437-11.410156c1.894531-1.082032 4.300781-.558594 5.574219 1.214843 1.273438 1.769531 1.007812 4.214844-.617188 5.671875l-18.664062 16.441406 13.714844-7.910156c1.882812-1.144531 4.332031-.664062 5.644531 1.105469 1.3125 1.773437 1.058594 4.253906-.585937 5.722656l-24.601563 23.371094 19.550781-11.289063c1.878906-1.03125 4.230469-.511718 5.5 1.21875 1.265625 1.730469 1.050782 4.128907-.5 5.609376l-21.742187 19.855468 16.757812-9.667968c1.902344-1.089844 4.324219-.5625 5.597657 1.222656 1.273437 1.785156.984374 4.246094-.664063 5.691406l-17.613281 15.359375 12.691406-7.320313c1.90625-1.105468 4.34375-.570312 5.617188 1.230469 1.273437 1.800781.964843 4.273438-.710938 5.707031l-15.550781 13.277344 10.644531-6.136718c1.882812-1.109376 4.296875-.617188 5.597656 1.140624 1.296875 1.757813 1.058594 4.210938-.554687 5.6875l-23.390625 21.820313 18.355468-10.601563c1.871094-1.144531 4.308594-.683593 5.628907 1.066407 1.324219 1.753906 1.101562 4.222656-.511719 5.710937l-25.214844 24.140625 20.148438-11.632812c1.867187-1.125 4.285156-.65625 5.601562 1.082031 1.316406 1.742188 1.109375 4.191406-.480468 5.6875l-25.40625 24.371094 20.257812-11.8125c1.878906-1.019532 4.222656-.492188 5.480469 1.230468 1.261719 1.726563 1.054687 4.117188-.488281 5.597657l-20.871094 18.839843 15.886718-9.164062c1.925782-1.097656 4.371094-.542969 5.628907 1.28125 1.257812 1.824219.914062 4.308594-.796875 5.71875l-9.625 7.847656 4.804687-2.773437c1.90625-1.101563 4.34375-.566407 5.617188 1.230469 1.273437 1.800781.964843 4.277343-.710938 5.707031l-15.359375 13.074219 10.441406-6.023438c1.878907-1.035156 4.234376-.511719 5.5 1.214844 1.265626 1.730468 1.054688 4.132812-.496093 5.609375l-21.121094 19.117187 16.136719-9.3125c1.941406-1.121094 4.421875-.550781 5.675781 1.308594s.855469 4.371094-.914063 5.75l-3.652343 2.851562c1.941406-.484374 3.957031.449219 4.847656 2.238282.890625 1.789062.417969 3.960937-1.136719 5.21875l-8.457031 6.828125 3.644531-2.101563c1.882813-1.125 4.316406-.640625 5.621094 1.125 1.304688 1.761719 1.058594 4.230469-.570312 5.703125l-23.644532 22.101563 18.609375-10.746094c1.9375-1.148438 4.433594-.59375 5.703125 1.261719 1.269532 1.859375.875 4.386719-.898437 5.769531l-7.039063 5.632812 2.246094-1.296874c1.9375-1.15625 4.441406-.605469 5.714844 1.261718 1.269531 1.867188.867187 4.398438-.921875 5.777344l-5.757813 4.566406.964844-.554687c1.875-1.019531 4.21875-.492188 5.480469 1.230469 1.261719 1.726562 1.050781 4.117187-.488281 5.597656l-21.078126 19.054687 16.101563-9.292969c1.921875-1.109374 4.367187-.5625 5.636719 1.257813 1.265625 1.820313.925781 4.308594-.78125 5.722656l-12.039063 10.136719 7.25-4.199219c1.871094-1.125 4.289063-.65625 5.605469 1.082031 1.316406 1.738282 1.109375 4.191407-.484375 5.6875l-25.515625 24.496094 20.429688-11.792968c1.882812-1.109376 4.300781-.617188 5.597656 1.140624 1.300781 1.757813 1.058594 4.214844-.554688 5.6875l-23.421875 21.75 18.355469-10.597656c1.867188-1.125 4.285156-.660156 5.601562 1.082032 1.316407 1.738281 1.109376 4.191406-.484374 5.6875l-7.730469 7.414062 2.65625-1.527344c1.628906-.957031 3.691406-.726562 5.070312.566406 1.378907 1.289063 1.746094 3.332032.902344 5.023438l-3.671875 7.421875c1.898438.070313 3.523438 1.386719 3.984375 3.230469s-.351563 3.769531-1.996094 4.722656l-9.386719 5.4375c-1.625.949219-3.683593.71875-5.0625-.566406-1.378906-1.289063-1.746093-3.328125-.910156-5.015625l3.15625-6.382813-20.9375 12.082032c-.671875.394531-1.441406.59375-2.21875.574218zm0 0" fill="#fa6c51"/><path d="m220.308594 484.785156c-1.761719 0-3.34375-1.085937-3.976563-2.730468-.636719-1.644532-.195312-3.507813 1.109375-4.695313l3.269532-2.96875-16.386719 9.464844c-1.898438 1.097656-4.320313.582031-5.601563-1.203125-1.28125-1.78125-1.003906-4.242188.644532-5.691406l18.773437-16.582032-13.847656 7.996094c-1.929688 1.089844-4.371094.523438-5.621094-1.304688-1.253906-1.824218-.898437-4.304687.816406-5.710937l7.917969-6.347656-3.082031 1.773437c-1.898438 1.085938-4.304688.558594-5.582031-1.214844-1.273438-1.777343-1-4.226562.632812-5.679687l20.003906-17.859375-15.054687 8.6875c-1.929688 1.09375-4.378907.527344-5.628907-1.304688-1.253906-1.832031-.890624-4.320312.835938-5.71875l7.089844-5.675781-2.296875 1.316407c-1.914063 1.078124-4.335938.527343-5.59375-1.273438-1.257813-1.800781-.941407-4.265625.730469-5.691406l12.664062-10.554688-7.800781 4.496094c-1.871094 1.144531-4.308594.683594-5.628907-1.066406-1.324218-1.75-1.101562-4.21875.511719-5.707032l25.238281-24.160156-20.121093 11.605469c-1.914063 1.085937-4.34375.53125-5.601563-1.273437-1.257812-1.808594-.933594-4.277344.746094-5.699219l12.238281-10.09375-7.382812 4.265625c-1.921875 1.082031-4.351563.519531-5.601563-1.296875-1.25-1.816407-.914062-4.289063.78125-5.699219l9.054688-7.355469-4.265625 2.441407c-1.878907 1.019531-4.222657.492187-5.484375-1.230469-1.257813-1.726563-1.050782-4.117188.492187-5.597657l21.042969-19.039062-16.019531 9.183594c-1.882813 1.144531-4.332031.667968-5.644531-1.105469-1.3125-1.769531-1.058594-4.25.585937-5.722656l24.234375-22.867188-19.175781 11.09375c-1.898438 1.097657-4.320313.582031-5.601563-1.203125-1.28125-1.78125-1.003906-4.242187.644532-5.691406l18.945312-16.734375-13.988281 8.070313c-1.882813 1.09375-4.285157.59375-5.574219-1.15625-1.292969-1.75-1.058594-4.195313.539062-5.667969l22.75-21.035157-17.714843 10.238282c-1.921875 1.082031-4.351563.515625-5.601563-1.296875-1.25-1.816407-.914062-4.289063.78125-5.699219l9.453125-7.679688-4.632812 2.660157c-1.878907 1.0625-4.257813.554687-5.535157-1.1875-1.277343-1.738281-1.054687-4.160157.519532-5.636719l22.253906-20.480469-17.238281 9.949219c-1.910157 1.109375-4.351563.574219-5.625-1.234375-1.273438-1.804687-.957031-4.28125.726562-5.710937l15.308594-13.015626-10.375 5.976563c-1.875.992187-4.195313.457031-5.445313-1.257813-1.25-1.714843-1.050781-4.089843.46875-5.570312l20.039063-17.921875-15.097656 8.628906c-1.90625 1.152344-4.382813.644531-5.679688-1.167969s-.976562-4.320312.730469-5.753906l18.730469-16.519531-13.78125 7.988281c-1.878907 1.078125-4.269531.570313-5.554688-1.171875-1.285156-1.746093-1.058593-4.179687.53125-5.65625l21.546875-19.8125-16.523437 9.503907c-1.820313 1.035156-4.121094.597656-5.433594-1.03125-1.3125-1.632813-1.246094-3.972657.152344-5.53125l12.800781-14.011719-7.519531 4.34375c-1.472657.847656-3.304688.738281-4.667969-.273438-1.363281-1.015625-1.996094-2.738281-1.613281-4.394531l2.5625-10.769531c-1.527344-.605469-2.566407-2.039063-2.675781-3.675781-.109376-1.640626.730468-3.195313 2.164062-4.003907l4.265625-2.457031c1.476563-.851562 3.316406-.746094 4.683594.269531 1.367187 1.015625 2 2.75 1.605469 4.40625l-2.015626 8.535157 22.871094-13.148438c1.820313-1.039062 4.121094-.601562 5.433594 1.03125 1.3125 1.628906 1.25 3.972656-.152344 5.527344l-12.800781 14.023437 26.027344-15.027343c1.882812-1.078126 4.273437-.574219 5.558593 1.171874 1.285157 1.746094 1.054688 4.175782-.53125 5.652344l-21.53125 19.808594 17.253907-10.003906c1.902343-1.097656 4.324219-.582032 5.605469 1.203125 1.28125 1.78125 1.003906 4.242187-.644532 5.691406l-18.722656 16.503906 13.773438-7.933593c1.875-.996094 4.195312-.460938 5.445312 1.253906 1.25 1.71875 1.050781 4.089844-.472656 5.570312l-20.035156 17.921875 15.078124-8.703125c1.910157-1.109375 4.351563-.574218 5.625 1.230469 1.273438 1.808594.957032 4.285156-.726562 5.714844l-15.265625 13.097656 10.375-5.972656c1.878906-1.046875 4.246094-.53125 5.519531 1.203125 1.269532 1.734375 1.054688 4.144531-.507812 5.625l-22.25 20.476562 17.257812-9.957031c1.925782-1.105469 4.375-.546875 5.636719 1.28125 1.257813 1.832031.902344 4.320313-.816406 5.726563l-9.4375 7.679687 4.625-2.671875c1.878906-1.078125 4.269531-.574219 5.554687 1.171875s1.058594 4.179687-.53125 5.65625l-22.75 21.03125 17.734375-10.238281c1.898438-1.121094 4.339844-.605469 5.628907 1.183594 1.289062 1.789062 1 4.265624-.664063 5.710937l-18.941406 16.734375 13.992187-8.082031c1.886719-1.144531 4.332032-.667969 5.644532 1.105469 1.316406 1.773437 1.0625 4.253906-.582032 5.722656l-24.234375 22.867187 19.191407-11.09375c1.878906-1.03125 4.230468-.511719 5.496093 1.21875 1.269531 1.730469 1.054688 4.128907-.496093 5.609375l-21.042969 19.03125 16.050781-9.269531c1.921875-1.097656 4.367188-.542969 5.628906 1.28125 1.257813 1.824219.910156 4.308594-.800781 5.71875l-9.105469 7.394531 4.269532-2.472656c1.917968-1.101562 4.359374-.558594 5.625 1.257812 1.265624 1.8125.933593 4.292969-.761719 5.714844l-12.167969 10.179688 7.335938-4.265625c1.875-1.148438 4.308593-.6875 5.632812 1.066406 1.324219 1.75 1.101562 4.21875-.511719 5.707031l-25.25 24.160156 20.183594-11.648437c1.917969-1.125 4.375-.585937 5.648437 1.238281 1.277344 1.820313.9375 4.316406-.777343 5.730469l-12.6875 10.574219 7.824219-4.515625c1.929687-1.117188 4.398437-.554688 5.65625 1.285156 1.261718 1.84375.886718 4.34375-.851563 5.738281l-7.058594 5.648438 2.269531-1.304688c1.875-.992187 4.195313-.457031 5.445313 1.257813 1.25 1.714843 1.050781 4.089843-.46875 5.570312l-20.054687 17.902344 15.054687-8.679687c1.929687-1.140626 4.417969-.585938 5.6875 1.265624 1.265625 1.851563.886719 4.367188-.875 5.757813l-7.878906 6.332031 3.074219-1.765625c1.894531-1.082031 4.300781-.558593 5.574218 1.214844 1.273438 1.769531 1.007813 4.214844-.617187 5.671875l-18.816407 16.589844 13.875-8.015625c1.878907-1.03125 4.230469-.511719 5.5 1.21875 1.265626 1.730469 1.054688 4.128906-.5 5.609375l-3.863281 3.515625c1.4375-.351563 2.957031.070312 4.011719 1.117187 1.054688 1.042969 1.488281 2.558594 1.148438 4.003906l-2.558594 11.390626c1.535156.59375 2.589844 2.015624 2.71875 3.65625.125 1.636718-.703125 3.203124-2.128906 4.023437l-4.269532 2.484375c-1.46875.847656-3.300781.742188-4.664062-.265625-1.367188-1.011719-2.003906-2.730469-1.625-4.386719l2.117187-9.265625-24.449219 14.035157c-.636718.375-1.363281.574218-2.105468.574218zm0 0" fill="#eb5463"/><path d="m330.738281 484.785156c-1.714843 0-3.265625-1.027344-3.929687-2.609375-.667969-1.582031-.324219-3.40625.875-4.636719l11.425781-11.65625-23.894531 13.773438c-1.921875 1.113281-4.378906.566406-5.644532-1.261719-1.265624-1.824219-.917968-4.316406.796876-5.726562l11.335937-9.386719-6.488281 3.738281c-1.898438 1.082031-4.304688.554688-5.582032-1.21875-1.273437-1.773437-1-4.226562.632813-5.679687l18.269531-16.015625-13.328125 7.679687c-1.878906 1.019532-4.21875.496094-5.480469-1.230468-1.261718-1.722657-1.050781-4.117188.488282-5.59375l20.71875-18.664063-15.683594 9.089844c-1.882812 1.085937-4.285156.582031-5.574219-1.171875-1.289062-1.753906-1.050781-4.203125.554688-5.671875l21.949219-20.070313-16.929688 9.769532c-1.902344 1.078124-4.3125.539062-5.578125-1.242188-1.269531-1.785156-.980469-4.238281.664063-5.679688l16.210937-13.941406-11.304687 6.519532c-1.941407 1.085937-4.390626.5-5.628907-1.347657-1.238281-1.847656-.851562-4.335937.890625-5.71875l2.886719-2.238281c-1.507813.074219-2.949219-.628906-3.816406-1.867188-1.261719-1.84375-.890625-4.347656.855469-5.742187l4.65625-3.679687c-1.894532 1.039062-4.269532.496093-5.523438-1.265626-1.253906-1.761718-.992188-4.183593.609375-5.636718l22.402344-20.625-17.375 10.027344c-1.941407 1.101562-4.398438.523437-5.644531-1.328126-1.246094-1.847656-.859376-4.347656.890624-5.730468l3.414063-2.636719c-1.546875.265625-3.117187-.324219-4.105469-1.542969-1.316406-1.660156-1.21875-4.03125.230469-5.574218l11.519531-12.277344-6.28125 3.617187c-1.671875.957031-3.777344.675781-5.136718-.6875-1.363282-1.363281-1.640626-3.46875-.679688-5.140625l3.496094-6.050781c-1.171875-.25-2.179688-.988281-2.773438-2.03125-1.179687-2.039063-.484375-4.644531 1.554688-5.828125l9.640625-5.5625c1.671875-.960938 3.777343-.683594 5.140625.679688 1.363281 1.363281 1.648437 3.46875.6875 5.140624l-2.378906 4.113282 17.425781-10.0625c1.828125-1.046875 4.148437-.601563 5.460937 1.046875 1.3125 1.652343 1.21875 4.011719-.214844 5.558593l-11.492187 12.332032 25.734375-14.859375c1.941406-1.101563 4.402344-.523438 5.644531 1.328125 1.246094 1.851562.859375 4.347656-.890625 5.730468l-3.371094 2.621094c1.613282-.269531 3.238282.390625 4.207032 1.703125 1.289062 1.753907 1.054687 4.195313-.546875 5.667969l-22.398438 20.625 17.398438-10.042969c1.933593-1.089843 4.378906-.511719 5.625 1.324219 1.246093 1.835938.875 4.320312-.855469 5.714844l-4.667969 3.6875c1.957031-1.074219 4.410157-.460938 5.628907 1.40625 1.21875 1.867187.792968 4.359375-.976563 5.71875l-2.882813 2.226562c1.832032-.128906 3.542969.933594 4.246094 2.632813.699219 1.703125.226563 3.660156-1.167968 4.859375l-16.210938 13.933594 11.3125-6.527344c1.882812-1.0625 4.257812-.550782 5.539062 1.1875 1.277344 1.742187 1.054688 4.164062-.519531 5.640625l-21.941406 20.070312 16.949219-9.796875c1.875-1.019531 4.21875-.492187 5.480468 1.230469 1.261719 1.726563 1.050782 4.117187-.488281 5.597656l-20.71875 18.6875 15.75-9.105469c1.902344-1.105468 4.332031-.585937 5.613281 1.203126 1.28125 1.785156.992188 4.253906-.664062 5.699218l-18.242188 15.992188 13.320313-7.679688c1.921875-1.136718 4.398437-.59375 5.671875 1.238282 1.273438 1.835937.917969 4.34375-.816406 5.75l-11.359375 9.386718 6.527343-3.773437c1.847657-1.0625 4.195313-.601563 5.503907 1.078125 1.304687 1.683594 1.171875 4.070312-.3125 5.597656l-11.425781 11.65625 6.253906-3.609375c1.464844-.847656 3.292968-.746094 4.660156.253906 1.363281 1.003907 2.007812 2.71875 1.636719 4.371094l-2.609375 11.671875c.914062.355469 1.6875 1.011719 2.183594 1.859375.5625.984375.714843 2.148437.421874 3.242187-.292968 1.09375-1.011718 2.023438-1.992187 2.589844l-4.308594 2.480469c-1.46875.847656-3.300781.75-4.664062-.257813-1.367188-1.003906-2.007813-2.722656-1.636719-4.375l2.152344-9.589843-24.875 14.359375c-.648438.367187-1.386719.554687-2.132813.539062zm0 0" fill="#66d4f1"/><path d="m368.769531 484.878906c-1.792969 0-3.398437-1.121094-4.011719-2.804687-.613281-1.6875-.109374-3.578125 1.265626-4.730469l9.242187-7.757812-8.808594 5.050781c-1.863281 1.109375-4.265625.636719-5.574219-1.09375-1.3125-1.726563-1.113281-4.164063.457032-5.664063l25.785156-24.890625-20.699219 11.945313c-1.878906 1.019531-4.222656.496094-5.480469-1.230469-1.261718-1.722656-1.054687-4.117187.488282-5.59375l20.769531-18.699219-15.753906 9.089844c-1.902344 1.078125-4.3125.539062-5.578125-1.242188-1.265625-1.785156-.980469-4.234374.664062-5.679687l16.554688-14.277344-11.640625 6.71875c-1.882813 1.109375-4.296875.617188-5.597657-1.140625-1.296874-1.757812-1.058593-4.214844.554688-5.6875l23.511719-21.914062-18.46875 10.660156c-1.90625 1.078125-4.320313.542969-5.585938-1.246094-1.265625-1.789062-.972656-4.246094.679688-5.683594l15.53125-13.277343-10.625 6.132812c-1.875 1.007813-4.207031.476563-5.460938-1.242187-1.257812-1.71875-1.050781-4.101563.476563-5.582032l20.40625-18.332031-15.421875 8.902344c-1.945313 1.140625-4.445313.570313-5.703125-1.304687-1.253906-1.875-.835938-4.402344.960937-5.769532l3.128907-2.425781c-1.585938.21875-3.160157-.496094-4.042969-1.832031-1.257813-1.839844-.886719-4.339844.851562-5.734375l5.222657-4.148438-.441407.257813c-1.921875 1.105468-4.371093.558594-5.636719-1.261719-1.265624-1.820313-.925781-4.304687.78125-5.71875l12.269532-10.242187-7.414063 4.269531c-1.925781 1.078125-4.351562.515625-5.605469-1.300781-1.25-1.816407-.910156-4.285157.78125-5.699219l9.097657-7.40625-4.265625 2.464843c-1.886719 1.148438-4.332032.667969-5.644532-1.101562-1.3125-1.773438-1.0625-4.253906.582032-5.722656l17.203125-16.292969-12.117188 7c-1.578125.910156-3.5625.71875-4.9375-.480469-1.375-1.199218-1.835937-3.140625-1.144531-4.828125l5.734375-14.046875c-2.070313.539063-4.21875-.539062-5.027344-2.519531-.804687-1.980469-.023437-4.25 1.835938-5.3125l9.625-5.546875c1.582031-.917969 3.570312-.722656 4.945312.480469 1.375 1.199219 1.835938 3.144531 1.140625 4.835937l-5.632812 13.789063 32.621094-18.832031c1.886718-1.167969 4.347656-.695313 5.671874 1.085937 1.320313 1.777344 1.058594 4.273437-.601562 5.738281l-17.1875 16.285156 19.398438-11.199218c1.925781-1.101563 4.375-.546875 5.636718 1.285156 1.257813 1.828125.902344 4.316406-.816406 5.722656l-9.105469 7.398438 4.265625-2.476563c1.917969-1.082031 4.34375-.53125 5.601563 1.277344 1.257812 1.804687.9375 4.273437-.746094 5.695313l-12.277344 10.242187 7.441407-4.269531c1.929687-1.082032 4.367187-.503906 5.613281 1.324218 1.242187 1.832032.882812 4.3125-.835938 5.707032l-5.222656 4.140625.460937-.257813c1.941407-1.105468 4.410157-.527344 5.65625 1.328125 1.246094 1.855469.847657 4.359375-.910156 5.738281l-3.117187 2.414063c1.847656-.21875 3.625.78125 4.394531 2.472656.765625 1.695313.351562 3.691407-1.03125 4.9375l-20.394531 18.277344 15.453125-8.925781c1.90625-1.097656 4.335937-.566406 5.609375 1.226562 1.273437 1.796875.972656 4.265625-.695313 5.703125l-15.546875 13.277344 10.648438-6.144531c1.882812-1.109375 4.300781-.617188 5.601562 1.140625 1.296875 1.757812 1.058594 4.210937-.554687 5.6875l-23.496094 21.929687 18.476562-10.667968c1.90625-1.09375 4.328126-.5625 5.601563 1.226562s.980469 4.253906-.679687 5.695312l-16.570313 14.285157 11.675781-6.734375c1.875-1.019532 4.21875-.492188 5.480469 1.230468 1.261719 1.726563 1.050781 4.117188-.488281 5.597657l-20.679688 18.703125 15.746094-9.085938c1.867188-1.109375 4.265625-.636718 5.578125 1.09375 1.308594 1.726563 1.113281 4.167969-.457031 5.664063l-25.882813 24.941406 20.753907-11.945313c1.914062-1.097656 4.351562-.554687 5.617187 1.253907 1.265625 1.808593.941406 4.285156-.746094 5.707031l-9.222656 7.75 4.367187-2.558594c1.667969-.964844 3.773438-.695312 5.144532.664063 1.367187 1.355469 1.652344 3.460937.699218 5.136719l-7.398437 13.03125 1.582031-.914063c2.042969-1.175781 4.652344-.476563 5.832032 1.566406 1.175781 2.042969.476562 4.65625-1.566407 5.832031l-15.15625 8.738282c-1.667969.972656-3.78125.699218-5.152343-.664063-1.367188-1.359375-1.652344-3.472656-.691407-5.148437l7.378907-13.011719-32.878907 18.953125c-.640625.386719-1.375.589844-2.125.597656zm0 0" fill="#73b0f4"/><path d="m430.476562 484.800781c-1.738281-.003906-3.300781-1.0625-3.949218-2.671875-.652344-1.613281-.257813-3.460937.996094-4.667968l10.539062-10.117188-20.402344 11.773438c-1.886718 1.167968-4.351562.695312-5.671875-1.085938-1.320312-1.777344-1.058593-4.273438.601563-5.738281l24.933594-23.75-19.863282 11.511719c-1.882812 1.078124-4.273437.574218-5.558594-1.171876-1.285156-1.746093-1.054687-4.179687.53125-5.65625l22.648438-20.886718-17.621094 10.160156c-1.933594 1.097656-4.378906.53125-5.632812-1.300781-1.25-1.835938-.886719-4.320313.835937-5.71875l7.046875-5.640625-2.25 1.285156c-1.878906.972656-4.179687.425781-5.417968-1.285156-1.242188-1.710938-1.039063-4.070313.46875-5.546875l19.207031-17.066407-14.242188 8.214844c-1.898437 1.089844-4.316406.5625-5.589843-1.21875-1.273438-1.78125-.992188-4.234375.648437-5.683594l17.835937-15.574218-12.910156 7.433594c-1.902344 1.089843-4.324218.5625-5.597656-1.222657-1.273438-1.785156-.984375-4.246093.664062-5.691406l17.59375-15.359375-12.660156 7.3125c-1.910156 1.101562-4.339844.566406-5.609375-1.226562-1.273437-1.796876-.972656-4.265626.691407-5.699219l16.375-14.117188-11.457032 6.613281c-1.898437 1.070313-4.292968.539063-5.5625-1.230468-1.265625-1.769532-1-4.210938.621094-5.664063l18.089844-15.871093-13.148438 7.59375c-1.882812 1.09375-4.285156.59375-5.578125-1.15625s-1.058593-4.195313.542969-5.667969l21.921875-20.292969-16.886719 9.71875c-1.761718 1.007812-3.988281.640625-5.328125-.882812-1.339843-1.523438-1.421875-3.78125-.195312-5.398438l12.324219-16.128906-6.828126 3.925781c-1.507812.867187-3.390624.730469-4.757812-.34375-1.371094-1.078125-1.949219-2.875-1.460938-4.542969l2.089844-7.167968c-1.375-.726563-2.242187-2.140626-2.269531-3.695313-.03125-1.550781.785156-2.996094 2.132813-3.773437l4.265624-2.457032c1.511719-.875 3.402344-.738281 4.773438.339844s1.949219 2.882812 1.457031 4.558594l-1.28125 4.378906 16.101563-9.25c1.761718-1.019531 3.996094-.65625 5.339844.871094s1.425781 3.789062.191406 5.40625l-12.332032 16.121094 31.148438-17.980469c1.882812-1.09375 4.285156-.59375 5.574219 1.15625 1.292969 1.753906 1.058593 4.195312-.539063 5.671875l-21.933594 20.324218 17.972657-10.367187c1.902343-1.105469 4.328125-.582031 5.609375 1.203125 1.28125 1.789062.996094 4.253906-.660156 5.699219l-18.082032 15.847656 13.148438-7.59375c1.910156-1.097656 4.335937-.566406 5.609375 1.226563 1.273437 1.796874.972656 4.265624-.691407 5.703124l-16.394531 14.121094 11.503907-6.628906c1.898437-1.070312 4.300781-.539062 5.566406 1.234375s.992187 4.21875-.632813 5.667969l-17.613281 15.359375 12.695312-7.339844c1.902344-1.101563 4.332032-.582031 5.613282 1.203125 1.28125 1.789062.992187 4.257812-.664063 5.703125l-17.816406 15.554687 12.886719-7.433593c1.890625-1.074219 4.292968-.554688 5.566406 1.210937 1.277344 1.765625 1.015625 4.210938-.601562 5.667969l-19.199219 17.015625 14.257812-8.234375c1.9375-1.148437 4.433594-.597656 5.703125 1.261719 1.269532 1.859375.875 4.382812-.898437 5.769531l-7.046875 5.648437 2.261718-1.3125c1.878907-1.078124 4.269532-.574218 5.554688 1.171876 1.285156 1.746093 1.058594 4.179687-.53125 5.652343l-22.628906 20.898438 17.628906-10.1875c1.886719-1.1875 4.367188-.722657 5.699219 1.0625 1.328125 1.789062 1.058593 4.300781-.621094 5.765625l-24.953125 23.753906 19.910156-11.484375c1.867188-1.125 4.285156-.660156 5.601563 1.082031 1.316406 1.738282 1.109375 4.191406-.480469 5.683594l-10.617188 10.121094 5.480469-3.15625c1.507813-.875 3.394531-.742188 4.769531.332031 1.371094 1.074219 1.953126 2.875 1.464844 4.546875l-3.410156 11.726562c1.785156.28125 3.199219 1.660157 3.527344 3.4375.332031 1.777344-.496094 3.570313-2.0625 4.472657l-5.972656 3.472656c-1.507813.875-3.394532.746094-4.769532-.328125-1.371094-1.074219-1.953125-2.878906-1.46875-4.550781l3.03125-10.421875-26.769531 15.457031c-.652344.363281-1.386719.550781-2.132813.535156zm0 0" fill="#9579da"/><path d="m504.628906 478.144531h-31.980468v-134.730469c0-9.140624 4.855468-34-2.902344-41.816406-8.378906-8.421875-33.109375-4.613281-46.863282-3.539062-.273437-1.894532-.734374-3.761719-1.375-5.5625-5.972656-15.898438-20.652343-13.28125-36.574218-12.316406-25.351563 1.546874-28.699219 15.4375-28.28125 33.988281-14.503906-1.238281-34.300782-3.539063-43.792969 4.019531-9.113281 7.261719-6.183594 20.660156-6.183594 31.207031v128.75h-47.277343v-212.878906c0-23.382813 7.570312-60.683594 0-83.011719-6.449219-19.03125-30.234376-15.054687-49.007813-13.714844.113281-26.734374-.382813-53.382812-2.277344-79.726562-1.621093-22.570312-13.199219-22-35.984375-20.316406-14.242187 1.046875-22.425781.304687-27.570312 14.792968-6.390625 17.988282 0 49.828126 0 68.703126v69.34375c-15.777344-1.367188-39.1875-3.765626-48.144532 6.152343-9.6875 10.734375-3.054687 43.5625-3.054687 55.925781v194.730469h-64.445313v-35.839843h27.359376c6.910156 0 9.605468-8.667969 1.191406-8.667969h-28.550782v-44.375h23.9375c3.085938.167969 6.144532-.652344 8.738282-2.335938 1.457031-1.316406 2.125-2.613281-.703125-2.613281h-31.972657v-46.164062h23.96875c3.089844.199218 6.160157-.625 8.738282-2.339844 1.46875-1.332032 2.074218-2.867188-.765625-2.867188h-31.941407v-44.882812h25.601563c2.449219 0 7.0625-.796875 8.128906-3.464844 1.015625-2.5625-.851562-3.960938-3.410156-3.960938h-30.320313v-43.066406h27.375c6.988282 0 9.558594-8.851562 1.160157-8.851562h-28.535157v-42.792969h25.675782c2.5625 0 7.03125-.75 8.109375-3.566406.980469-2.5625-.855469-4.386719-3.550781-4.386719h-30.234376v-43.09375h25.71875c2.621094 0 7.007813-.734375 8.089844-3.636719.957032-2.558593-.851562-4.625-3.617187-4.625h-30.191407v-44.296875h25.394532c3.710937 0 13.40625-5.542968 5.207031-5.542968h-30.601563v-44.734376h25.601563c2.4375 0 7.0625-.792968 8.140625-3.457031 1.015625-2.558593-.855469-3.933593-3.414062-3.933593h-30.328126v-23.558594c0-2.167969-12.355468-.367188-12.355468 3.308594v473.746093h-6.828125c-2.558594 0-13.960938 4.933594-8.054688 4.933594h14.882813v16.253906c0 2.167969 12.355468.367188 12.355468-3.308593v-12.945313h65.554688c.355469.09375.722656.152344 1.089844.179687h51.199218c.0625 0 .179688 0 .25-.042968.625.015625 1.246094-.011719 1.867188-.085938h47.378906c1.277344 1.464844 3.1875 2.214844 5.117188 2.015625h51.347656c.46875-.042969.933594-.117187 1.390625-.222656.367187-.058594.730469-.144531 1.082031-.257813.992188-.328124 1.90625-.859374 2.679688-1.5625h49.492187c.828125.851563 1.976563 1.304688 3.160157 1.246094h49.492187c.578125.277344 1.203125.425782 1.84375.4375h51.011719c1.953125.195313 3.921875-.171875 5.675781-1.058594h45.449219c1.191406-.074218 2.371094-.28125 3.515625-.625h29.089843c2.542969-.023437 13.933594-4.957031 8.027344-4.957031zm-44.335937-165.023437c5.324219 12.089844 0 39.695312 0 52.503906v111.964844c-14.917969.171875-38.042969.5625-38.785157-.058594v-136.535156c0-9.523438 2.558594-24.789063 1.953126-37.050782 14.191406-1.089843 31.777343-2.285156 36.832031 9.175782zm-89.984375-19.152344c6.773437-11.792969 34.070312-7.890625 38.722656 4.550781.324219.851563.488281 1.867188.734375 2.796875-.414063.492188-.652344 1.109375-.675781 1.75v52.054688c0 .460937-.058594 1.015625-.058594 1.457031v119.886719h-20.914062c-8.160157 0-16.683594-1.203125-17.851563.65625v-48.519532c0-.238281.042969-.5625.042969-.785156v-79.753906c0-.398438 0-.851562-.042969-1.3125v-29.015625c-.007813-1.457031-1.109375-2.679687-2.5625-2.839844-.832031-7.082031.058594-14.261719 2.605469-20.925781zm-51.246094 143.207031v-71.054687c0-8.039063-4.382812-32.8125 0-39.816406 4.386719-7.007813 18.503906-4.113282 27.640625-4.113282 3.402344-.339844 6.820313-.488281 10.242187-.453125.367188 6.492188.851563 13.371094.851563 20.386719v134.773438h-16.980469c-6.359375 0-22.308594-2.824219-22.1875 1.246093h-.050781c-3.585937-8.625.484375-33.175781.484375-40.96875zm-104.171875-259.234375c6.347656 1.425782 22.109375-3.726562 27.304687 0 7.5625 5.402344 3.789063 12.75 4.652344 20.78125 3.464844 32.332032 0 66.976563 0 99.480469v178.285156c-5.121094.453125-11.519531 1.179688-17.921875 1.65625h-18.34375c-.804687-.109375-1.570312-.246093-2.28125-.410156 1.09375-.707031 0-4.265625-.222656-8.371094v-1.550781c0-.617188 0-1.230469.085937-1.835938 4.113282-31.230468 0-65.792968 0-97.28125v-71.105468c.25-39.742188 1.757813-80.035156 2.125-120.210938 1.550782.027344 3.089844.214844 4.601563.5625zm-57.976563-97.167968c7.902344-16.820313 35.027344-8.472657 38.84375 9.941406 4.941407 23.894531 0 54.246094 0 78.566406v4.378906c0 .074219-.085937.136719-.085937.21875v304.265625h-36.691406l-.113281-.050781c-3.164063-2.125-.28125-2.96875-1.9375-10.070312v-322.609376c-.015626-15.660156-6.816407-50.152343-.015626-64.640624zm-46.933593 397.191406c-6.742188-4.675782-.980469 2.101562-4.265625-7.867188-7.230469-22.015625 0-58.410156 0-81.5v-105.105468c0-8.867188-5.972656-46.378907.109375-53.964844 1.84375-2.296875 33.535156-5.742188 38.734375-2.507813v3.984375c-.183594 2.554688-.183594 5.121094 0 7.679688v239.460937h-34.238282c-.101562-.09375-.246093-.09375-.347656-.179687zm0 0" fill="#262626"/></svg>