<svg height="509pt" viewBox="0 -2 509.98911 509" width="509pt" xmlns="http://www.w3.org/2000/svg"><path d="m109.105469 191.921875c-1.929688 0-3.621094-1.296875-4.121094-3.164063-.5-1.863281.316406-3.832031 1.988281-4.800781l34.988282-20.179687c2.039062-1.160156 4.628906-.457032 5.804687 1.574218 1.171875 2.03125.484375 4.628907-1.539063 5.816407l-34.988281 20.179687c-.644531.378906-1.382812.574219-2.132812.574219zm0 0" fill="#cad0d7"/><path d="m416.339844 201.433594c-1.835938 0-3.464844-1.171875-4.046875-2.917969-.582031-1.742187.019531-3.660156 1.488281-4.761719l21.835938-16.28125-27.210938 15.710938c-1.980469 1.15625-4.515625.542968-5.75-1.386719-1.230469-1.929687-.722656-4.488281 1.15625-5.796875l18.773438-13.203125-27.585938 15.933594c-1.972656 1.121093-4.476562.507812-5.703125-1.402344-1.226563-1.90625-.746094-4.441406 1.09375-5.765625l36.300781-25.847656-47.890625 27.65625c-1.992187 1.152344-4.539062.519531-5.757812-1.433594s-.667969-4.523438 1.246093-5.804688l20.726563-13.917968-24.746094 14.285156c-2.003906 1.199219-4.597656.566406-5.824219-1.417969-1.226562-1.988281-.625-4.589843 1.34375-5.84375l11.945313-7.875-11.132813 6.40625c-1.980468 1.101563-4.480468.464844-5.6875-1.453125-1.207031-1.917968-.703124-4.445312 1.144532-5.757812l46.082031-31.570313-46.03125 26.578125c-1.972656 1.160156-4.507813.554688-5.746094-1.367187s-.738281-4.480469 1.132813-5.800781l71.175781-50.933594-52.746094 30.445312c-1.984375 1.15625-4.53125.527344-5.753906-1.417968-1.222656-1.945313-.683594-4.507813 1.214844-5.800782l36.53125-25-26.5625 15.359375c-1.972657 1.125-4.476563.507813-5.703125-1.398437-1.226563-1.910156-.746094-4.445313 1.09375-5.769532l49.050781-34.902343-53.316406 30.789062c-1.980469 1.203125-4.5625.609375-5.8125-1.34375s-.710938-4.546875 1.210937-5.84375l46.933594-33.117187-53.539062 30.917968c-1.992188 1.113282-4.511719.460938-5.710938-1.480468-1.199219-1.945313-.65625-4.488282 1.234375-5.773438l4.308594-2.859375-48.589844 28.058594c-1.996094 1.15625-4.554687.515625-5.769531-1.445313-1.214844-1.964843-.648438-4.539062 1.28125-5.808593l32.878906-21.769531-41.183594 23.785156c-1.984375 1.175781-4.546875.558594-5.78125-1.394532-1.234375-1.949218-.691406-4.527343 1.226563-5.816406l48.382812-33.402344-55.003906 31.761719c-1.992187 1.21875-4.589844.609375-5.835937-1.367187-1.242188-1.972656-.671876-4.578125 1.285156-5.851563l30.636718-20.90625-29.738281 17.175781c-1.949219 1.15625-4.460937.582032-5.71875-1.300781-1.257812-1.882812-.828125-4.417969.980469-5.78125l44.621094-34.285156-45.011719 26.007813c-1.929687 1.113281-4.390625.554687-5.648437-1.28125-1.257813-1.835938-.894532-4.332032.835937-5.730469l29.773437-24.074219-30.722656 17.757812c-1.882812 1.128907-4.3125.640626-5.621094-1.121093-1.304687-1.765625-1.058593-4.234375.570313-5.707031l21-19.734376-41.625 24.027344c-2.039063 1.160156-4.632813.457032-5.804687-1.574218-1.171876-2.03125-.484376-4.628907 1.539062-5.816407l73.589844-42.453125c1.882812-1.109375 4.300781-.617187 5.597656 1.140625 1.300781 1.757813 1.058594 4.214844-.554688 5.6875l-21.027343 19.695313 45.988281-26.523438c1.929688-1.132812 4.40625-.582031 5.675781 1.265625 1.269531 1.84375.894531 4.355469-.855469 5.75l-29.78125 24.046875 53.847657-31.0625c1.949219-1.152344 4.457031-.578125 5.714843 1.304688 1.261719 1.878906.828126 4.417968-.980468 5.78125l-44.628906 34.292968 71.671874-41.378906c1.984376-1.152344 4.53125-.523437 5.753907 1.421875 1.222656 1.945313.683593 4.507813-1.214844 5.800781l-30.609375 20.863282 48.691406-28.085938c1.984375-1.175781 4.546875-.558594 5.78125 1.394532 1.234375 1.949218.691406 4.527343-1.226562 5.816406l-48.398438 33.375 70.355469-40.585938c2.003906-1.238281 4.632813-.625 5.875 1.378906 1.242187 2.003907.625 4.632813-1.375 5.875l-32.90625 21.761719 50.277344-29.015625c1.996093-1.113281 4.511719-.460937 5.714843 1.484375 1.199219 1.941407.65625 4.488281-1.234374 5.769531l-4.316407 2.859376 12.707031-7.355469c1.976563-1.15625 4.511719-.542969 5.746094 1.386719 1.234375 1.929687.722656 4.488281-1.15625 5.796874l-46.933594 33.109376 49.605469-28.636719c1.96875-1.125 4.472657-.507813 5.703125 1.398437 1.226563 1.910156.742188 4.445313-1.097656 5.769532l-49.117188 34.910156 45.097657-26.042969c1.988281-1.152344 4.53125-.527344 5.753906 1.417969 1.222656 1.945312.6875 4.507812-1.214844 5.800781l-36.519531 25.003906 31.980469-18.46875c1.972656-1.15625 4.507812-.550781 5.746093 1.371094 1.242188 1.921875.742188 4.480469-1.128906 5.796875l-71.183594 50.945312 66.558594-38.398437c1.988282-1.15625 4.53125-.527344 5.753906 1.417969 1.222657 1.945312.6875 4.507812-1.214843 5.800781l-46.078125 31.570313 41.523437-23.96875c1.988281-1.082032 4.480469-.421876 5.671875 1.507812 1.1875 1.929688.660156 4.453125-1.203125 5.746094l-11.945312 7.867187 7.46875-4.316406c1.996093-1.1875 4.574219-.558594 5.800781 1.414063 1.226562 1.972656.648438 4.5625-1.296875 5.828124l-20.71875 13.910157 16.214844-9.386719c1.96875-1.125 4.472656-.507812 5.703125 1.398438 1.226562 1.910156.742187 4.445312-1.097656 5.769531l-36.300782 25.847656 31.695313-18.304687c1.976562-1.152344 4.511719-.542969 5.746093 1.386718 1.234376 1.929688.722657 4.492188-1.15625 5.800782l-18.773437 13.199218 8.480469-4.890625c1.957031-1.109375 4.441406-.511719 5.675781 1.367188 1.234375 1.882812.796875 4.398437-1 5.75l-62.34375 46.492187c.230469 1.714844-.597656 3.402344-2.097656 4.265625l-16.070313 9.277344c-.648437.363281-1.386718.550781-2.132812.542969zm0 0" fill="#cad0d7"/><path d="m206.617188 106.039062c-1.652344 0-3.15625-.953124-3.863282-2.449218-.703125-1.496094-.476562-3.265625.578125-4.539063l6.960938-8.402343-22.621094 13.054687c-1.890625 1.089844-4.300781.578125-5.582031-1.191406-1.285156-1.769531-1.023438-4.21875.597656-5.679688l19.371094-17.421875-29.242188 16.878906c-1.980468 1.175782-4.539062.566407-5.777344-1.378906-1.238281-1.941406-.707031-4.519531 1.195313-5.816406l43.859375-30.71875-54.21875 31.300781c-2.039062 1.15625-4.632812.453125-5.804688-1.578125-1.171874-2.03125-.484374-4.628906 1.539063-5.8125l138.757813-80.0625c1.984374-1.175781 4.539062-.566406 5.777343 1.378906 1.238281 1.941407.710938 4.519532-1.195312 5.816407l-59.988281 41.984375c.703124.300781 1.3125.792968 1.757812 1.417968 1.28125 1.765626 1.019531 4.214844-.605469 5.671876l-19.394531 17.433593 7.875-4.539062c1.789062-1.03125 4.058594-.636719 5.390625.941406 1.335937 1.578125 1.34375 3.886719.027344 5.476563l-8.53125 10.238281c1.824219.214843 3.304687 1.570312 3.679687 3.371093.375 1.796876-.445312 3.636719-2.035156 4.558594l-16.375 9.503906c-.648438.371094-1.386719.566407-2.132812.5625zm0 0" fill="#cad0d7"/><path d="m88.003906 200.34375c-1.789062-.003906-3.390625-1.121094-4.003906-2.804688-.613281-1.679687-.113281-3.566406 1.253906-4.722656l22.027344-18.507812-28.597656 16.503906c-1.949219 1.109375-4.421875.519531-5.664063-1.347656-1.238281-1.867188-.824219-4.378906.957031-5.746094l11.722657-8.890625-15.804688 9.15625c-1.917969 1.089844-4.351562.535156-5.609375-1.277344-1.257812-1.8125-.925781-4.285156.765625-5.703125l29.113281-24.105468-36.820312 21.238281c-1.9375 1.148437-4.429688.597656-5.699219-1.261719-1.273437-1.859375-.878906-4.382812.894531-5.769531l31.308594-25.070313-38.859375 22.433594c-1.988281 1.152344-4.53125.527344-5.753906-1.417969-1.222656-1.945312-.6875-4.511719 1.214844-5.800781l7.925781-5.410156-11.238281 6.492187c-2.007813 1.179688-4.589844.527344-5.800781-1.460937-1.210938-1.988282-.605469-4.582032 1.363281-5.824219l76.441406-48.984375-82.773437 47.789062c-1.996094 1.136719-4.535157.484376-5.742188-1.472656-1.203125-1.957031-.644531-4.515625 1.269531-5.789062l87.765625-57.515625-95.027344 54.886719c-2.015624 1.21875-4.640624.574218-5.859374-1.441407-1.222657-2.019531-.578126-4.644531 1.441406-5.863281l31.007812-19.625-30.863281 17.800781c-1.996094 1.15625-4.554687.515625-5.769531-1.449219-1.214844-1.960937-.648438-4.535156 1.28125-5.804687l66.875-44.28125-62.855469 36.292969c-1.972656 1.109375-4.464844.484375-5.683594-1.421875-1.21875-1.902344-.742187-4.429688 1.089844-5.753907l73.882813-52.164062-69.296876 39.984375c-1.980468 1.136719-4.503906.515625-5.726562-1.410156s-.714844-4.472657 1.152344-5.78125l42.988281-30.039063-38.398437 22.1875c-1.945313 1.21875-4.507813.679688-5.796876-1.222656-1.285156-1.898438-.839843-4.476562 1.007813-5.835938l44.289063-34.882812-39.515626 22.820312c-1.933593 1.101563-4.390624.53125-5.640624-1.308593-1.253907-1.835938-.882813-4.332031.851562-5.726563l21.179688-16.894531-16.390626 9.472656c-1.871093 1.125-4.289062.660157-5.605468-1.082031-1.316406-1.738281-1.109375-4.191406.484375-5.683594l14.402343-13.875-9.28125 5.347656c-1.746093 1.003907-3.953124.652344-5.300781-.84375-1.347656-1.496093-1.464843-3.730468-.28125-5.359374l5.691407-7.824219c-1.875-.125-3.449219-1.460938-3.875-3.289063-.425782-1.832031.394531-3.726562 2.023437-4.664062l13.925781-8.046875c1.746094-1.003907 3.953125-.652344 5.300782.84375 1.34375 1.496093 1.460937 3.730469.28125 5.359375l-4.644532 6.390625 21.992188-12.664063c1.867187-1.125 4.285156-.65625 5.601562 1.082032 1.316406 1.742187 1.109375 4.195312-.480468 5.6875l-14.414063 13.867187 35.796875-20.636719c1.933594-1.121094 4.410156-.5625 5.667969 1.285156 1.261719 1.847657.878906 4.359376-.871094 5.746094l-21.230469 16.863282 41.453125-23.894532c1.933594-1.085937 4.378907-.511718 5.625 1.328125 1.242188 1.835938.871094 4.320313-.855469 5.714844l-44.296874 34.867187 72.636718-41.910156c1.976563-1.117187 4.480469-.496094 5.703125 1.417969 1.222657 1.914063.726563 4.449219-1.121093 5.769531l-42.992188 30.019532 64.488281-37.207032c1.972657-1.105468 4.464844-.484375 5.683594 1.421875s.738281 4.429688-1.09375 5.757813l-73.828125 52.128906 102.792969-59.308594c1.996093-1.15625 4.550781-.515625 5.765625 1.449219 1.214844 1.960937.648437 4.535156-1.277344 5.804687l-66.902344 44.246094 89.242188-51.5c2.007812-1.148437 4.566406-.484375 5.765625 1.496094 1.199219 1.976562.601562 4.550781-1.347657 5.800781l-30.984374 19.628907 46.671874-26.925782c2.003907-1.234375 4.632813-.605468 5.867188 1.402344 1.238281 2.007812.609375 4.636719-1.398438 5.871094l-87.746093 57.453125 112.160156-64.726563c2.003906-1.117187 4.535156-.453125 5.730469 1.511719 1.191406 1.960937.617187 4.515625-1.300782 5.777344l-122.25 78.277343c.453126.320313.835938.730469 1.128907 1.203126 1.21875 1.941406.683593 4.5-1.214844 5.792968l-16.476563 11.238282c1.734376.152343 3.203126 1.347656 3.707032 3.011718.507812 1.667969-.050782 3.476563-1.410156 4.566406l-31.285157 25.0625 32.085938-18.542968c1.917969-1.089844 4.351562-.535156 5.609375 1.277344 1.257812 1.8125.929687 4.285156-.761719 5.703124l-29.089844 24.113282 30.925781-17.859375c1.953126-1.144531 4.460938-.566407 5.710938 1.324219 1.253906 1.886718.8125 4.421874-1.003906 5.777343l-11.707032 8.875 11.648438-6.726562c1.917969-1.097657 4.351562-.550781 5.617188 1.257812 1.265624 1.808594.945312 4.28125-.742188 5.707031l-22.035156 18.507813 15.992187-9.234375c1.320313-.773438 2.953125-.78125 4.28125-.019531 1.328125.765625 2.144531 2.179687 2.144531 3.710937-.003906 1.53125-.828124 2.941406-2.160156 3.699219l-58.085937 33.535156c-.648438.378907-1.382813.574219-2.132813.574219zm0 0" fill="#cad0d7"/><path d="m276.300781 364.8125c-1.777343.003906-3.367187-1.09375-3.992187-2.753906-.628906-1.660156-.164063-3.535156 1.167968-4.710938l7.867188-6.945312c-1.355469.097656-2.671875-.460938-3.542969-1.503906-1.332031-1.585938-1.332031-3.898438 0-5.484376l8.824219-10.574218c-1.878906-.117188-3.457031-1.449219-3.886719-3.28125-.429687-1.832032.390625-3.730469 2.019531-4.671875l17.066407-9.855469c1.789062-1.03125 4.0625-.632812 5.394531.949219 1.328125 1.578125 1.335938 3.886719.015625 5.476562l-7.511719 8.984375 12.5625-7.234375c1.894532-1.082031 4.300782-.558593 5.574219 1.210938 1.277344 1.773437 1.007813 4.21875-.617187 5.675781l-6.175782 5.449219 1.21875-.699219c2.027344-1.058594 4.527344-.332031 5.671875 1.648438 1.144531 1.976562.523438 4.507812-1.40625 5.734374l-38.117187 22.007813c-.644532.378906-1.382813.582031-2.132813.578125zm0 0" fill="#cad0d7"/><path d="m197.265625 501.066406c-1.835937 0-3.46875-1.175781-4.050781-2.917968-.578125-1.742188.019531-3.660157 1.488281-4.761719l54.289063-39.808594-51.359376 29.652344c-1.964843 1.117187-4.457031.511719-5.6875-1.382813-1.230468-1.894531-.773437-4.417968 1.042969-5.757812l53.351563-38.792969-48.707032 28.160156c-1.996093 1.113281-4.515624.460938-5.714843-1.480469-1.199219-1.945312-.65625-4.488281 1.234375-5.773437l3.320312-2.191406c-2.011718.5-4.089844-.515625-4.933594-2.410157-.839843-1.890624-.199218-4.117187 1.519532-5.273437l33.492187-23.191406-28.9375 16.699219c-1.976562 1.089843-4.460937.449218-5.664062-1.457032-1.207031-1.910156-.714844-4.425781 1.117187-5.746094l28.9375-19.875-24.390625 14.082032c-1.902343 1.109375-4.335937.585937-5.617187-1.207032-1.28125-1.789062-.988282-4.261718.675781-5.703124l26.941406-23.535157-22.007812 12.703125c-1.933594 1.125-4.40625.566406-5.667969-1.285156-1.261719-1.847656-.878906-4.355469.871094-5.746094l3.046875-2.429687c-1.847657.167969-3.59375-.882813-4.316407-2.59375-.71875-1.710938-.25-3.691407 1.160157-4.898438l4.378906-3.738281c-1.832031.75-3.941406.144531-5.09375-1.46875-1.152344-1.609375-1.042969-3.800781.261719-5.289062l17.066406-19.695313-11.75 6.78125c-1.832031 1.039063-4.148438.582031-5.453125-1.074219-1.300781-1.65625-1.199219-4.015625.238281-5.554687l9.386719-9.820313-4.152344 2.386719c-1.851562 1.019531-4.167969.527344-5.449219-1.148437-1.28125-1.679688-1.140624-4.039063.328126-5.558594l4.144531-4.15625c-1.59375.425781-3.292969-.09375-4.375-1.339844-1.332031-1.558594-1.363281-3.84375-.078125-5.441406l3.21875-4.011719c-.914063-.023437-1.792969-.339844-2.511719-.90625-1.371094-1.0625-1.960937-2.851563-1.492187-4.519531l2.039062-7.230469c-.675781-.371094-1.238281-.921875-1.621094-1.59375-1.179687-2.039063-.484375-4.648437 1.554688-5.828125l4.09375-2.363281c1.5-.882813 3.382812-.753907 4.746094.324219 1.371093 1.0625 1.960937 2.851562 1.492187 4.523437l-1.226563 4.375 7.261719-4.199219c1.773438-1.015625 4.023438-.628906 5.355469.921875 1.335938 1.554688 1.378906 3.835938.105469 5.4375l-2.152344 2.679688 7.023437-4.046875c1.851563-1.015625 4.167969-.527344 5.445313 1.152344 1.28125 1.675781 1.144531 4.039062-.324219 5.554687l-3.796875 3.800781 1.800781-1.042968c1.832032-1.046876 4.160157-.597657 5.46875 1.0625 1.308594 1.664062 1.203126 4.03125-.246093 5.566406l-9.386719 9.839844 8.078125-4.667969c1.808594-1.046875 4.105469-.636719 5.4375.972656 1.328125 1.613281 1.296875 3.949219-.078125 5.523437l-17.066406 19.625 17.171875-9.898437c1.90625-1.101563 4.34375-.570313 5.617187 1.230469 1.273438 1.800781.964844 4.273437-.710937 5.707031l-4.207031 3.59375 5.117187-2.960937c1.933594-1.097657 4.378906-.53125 5.632813 1.304687 1.25 1.832031.886718 4.316406-.835938 5.71875l-.964844.773437 11.070313-6.289062c1.898437-1.085938 4.3125-.558594 5.585937 1.222656 1.273438 1.777344.996094 4.234375-.648437 5.683594l-26.9375 23.535156 81.066406-46.816406c1.976563-1.089844 4.460937-.449219 5.664063 1.460938 1.207031 1.90625.71875 4.425781-1.117188 5.742187l-28.882812 19.796875 24.328124-14.035156c1.980469-1.121094 4.488282-.488282 5.703126 1.433594 1.214843 1.917968.710937 4.457031-1.148438 5.765624l-33.542969 23.238282 29.011719-16.734375c1.988281-1.070313 4.464844-.40625 5.652344 1.511719 1.1875 1.921874.675781 4.433593-1.171875 5.734374l-3.320313 2.191407c1.984375-.46875 4.019532.523437 4.867188 2.375.847656 1.851562.265625 4.046875-1.382813 5.238281l-53.351562 38.789062 48.707031-28.117187c1.964844-1.132813 4.46875-.535156 5.707031 1.363281 1.238281 1.898438.78125 4.429688-1.046875 5.773438l-54.273437 39.773437 17.554687-10.136719c2.027344-1.0625 4.527344-.335937 5.671875 1.644532 1.144531 1.980468.523438 4.507812-1.40625 5.734375l-85.152343 49.160156c-.648438.382813-1.382813.582031-2.132813.582031zm0 0" fill="#cad0d7"/><path d="m248.449219 333.652344c-1.878907 0-3.535157-1.226563-4.085938-3.023438-.546875-1.796875.144531-3.738281 1.703125-4.785156l14.351563-9.59375-25.871094 14.933594c-1.984375 1.117187-4.496094.476562-5.707031-1.449219-1.207032-1.929687-.691406-4.46875 1.175781-5.769531l43.878906-29.867188-55.679687 32.136719c-1.992188 1.085937-4.484375.421875-5.671875-1.507813-1.191407-1.929687-.664063-4.453124 1.199219-5.746093l31.839843-20.90625-39.84375 23.039062c-1.988281 1.132813-4.515625.496094-5.730469-1.441406-1.214843-1.941406-.679687-4.492187 1.207032-5.785156l70.820312-47.941407-81.488281 47.0625c-2.007813 1.175782-4.589844.527344-5.800781-1.460937-1.210938-1.988281-.601563-4.582031 1.363281-5.824219l32.15625-20.652344-36.53125 21.09375c-2.011719 1.230469-4.636719.597657-5.867187-1.410156-1.230469-2.011718-.597657-4.636718 1.414062-5.867187l51.15625-33.152344-55.972656 32.316406c-1.984375 1.132813-4.515625.496094-5.726563-1.445312-1.214843-1.941407-.683593-4.492188 1.207031-5.785157l93.539063-63.222656-99.964844 57.710938c-2.003906 1.121094-4.535156.453125-5.730469-1.507813-1.191406-1.960937-.617187-4.515625 1.300782-5.777343l36.691406-23.398438-38.132812 22.015625c-2 1.15625-4.554688.515625-5.769532-1.449219-1.214844-1.960937-.648437-4.535156 1.28125-5.804687l84.480469-56.074219-86.417969 49.894531c-2.003906 1.121094-4.535156.453125-5.730468-1.507812-1.191407-1.960938-.617188-4.515625 1.300781-5.777344l44.175781-28.339844-43.980469 25.394531c-1.992187 1.179688-4.558593.554688-5.789062-1.40625-1.230469-1.960937-.671875-4.542968 1.257812-5.820312l92.859375-63.011719-93.226562 53.820313c-2 1.199218-4.597656.566406-5.820313-1.421875-1.226562-1.984375-.628906-4.589844 1.339844-5.839844l63.039063-41.515625-60.417969 34.867188c-1.984375 1.132812-4.507813.503906-5.726563-1.425782-1.21875-1.933594-.699218-4.484375 1.179688-5.785156l79.539062-54.691406-74.820312 43.199218c-1.964844 1.085938-4.4375.460938-5.652344-1.425781-1.214844-1.890625-.757812-4.394531 1.042969-5.734375l71.679687-50.46875-63.308594 36.558594c-1.996093 1.1875-4.574218.558594-5.800781-1.414062-1.226562-1.972657-.652343-4.5625 1.296875-5.832032l24.617188-16.519531-13.875 8.011719c-1.964844 1.128906-4.472656.523437-5.703125-1.378906-1.234375-1.902344-.761719-4.4375 1.070312-5.769532l31.375-22.65625-16.167969 9.335938c-1.945312 1.132812-4.433593.558594-5.6875-1.304688-1.257812-1.867187-.847656-4.390625.933594-5.761718l20.769532-16.1875c-.488282-.351563-.890626-.800782-1.1875-1.324219-1.175782-2.039063-.476563-4.648438 1.5625-5.828125l34.621093-19.984375c1.941407-1.132813 4.433594-.5625 5.6875 1.304687 1.253907 1.867188.847657 4.386719-.933593 5.761719l-6.09375 4.734375 34.867187-20.136719c1.972656-1.179687 4.523437-.585937 5.773437 1.339844 1.246094 1.929687.742188 4.503906-1.140624 5.820313l-31.367188 22.636718 50.660156-29.253906c1.996094-1.183594 4.578125-.554688 5.804688 1.417969 1.226562 1.972656.648437 4.5625-1.296875 5.828125l-24.664063 16.589844 35.902344-20.726563c1.976562-1.15625 4.511719-.542969 5.746094 1.386719 1.234375 1.929687.722656 4.488281-1.15625 5.796875l-71.679688 50.464843 86.65625-50.019531c1.992188-1.21875 4.589844-.609375 5.832032 1.367188 1.246093 1.972656.671874 4.578125-1.285157 5.851562l-79.554687 54.699219 91.886718-53.085938c2.003907-1.242187 4.636719-.621093 5.875 1.386719 1.238282 2.003907.617188 4.632813-1.386718 5.875l-63 41.503907 69.605468-40.191407c1.992188-1.179687 4.558594-.554687 5.789063 1.40625 1.230469 1.960938.671875 4.542969-1.257813 5.820313l-92.84375 63.011718 100.515626-58.027343c2.003906-1.121094 4.535156-.453125 5.726562 1.507812 1.191406 1.964844.617188 4.515625-1.300781 5.78125l-44.160157 28.320313 46.492188-26.84375c2.003906-1.242188 4.632812-.625 5.875 1.375 1.242188 2.003906.625 4.636718-1.378906 5.878906l-84.480469 56.097656 87.894531-50.757812c2.015625-1.222656 4.640625-.582032 5.863282 1.433594 1.222656 2.015624.578124 4.640624-1.433594 5.863281l-36.644532 23.363281 36.25-20.921875c1.988282-1.132813 4.515626-.496094 5.730469 1.441406 1.214844 1.941407.679688 4.492188-1.207031 5.785157l-93.542969 63.222656 95.164063-54.921875c1.996094-1.082031 4.492187-.410157 5.675781 1.527343s.644531 4.460938-1.230469 5.746094l-51.199218 33.175782 49.363281-28.5c2.015625-1.226563 4.640625-.59375 5.867187 1.421874 1.230469 2.011719.59375 4.636719-1.417968 5.863282l-32.171876 20.652344 29.0625-16.777344c1.292969-.808594 2.917969-.863282 4.265626-.148438 1.347656.714844 2.207031 2.09375 2.261718 3.617188.054688 1.523437-.710937 2.960937-2.003906 3.769531l-70.824219 47.886719 66.25-38.246094c2-1.136719 4.539063-.484375 5.742188 1.472656 1.207031 1.957032.644531 4.515625-1.269531 5.789063l-31.796876 20.847656 25.601563-14.789063c1.992187-1.179687 4.5625-.554687 5.789063 1.40625 1.230468 1.960938.671874 4.542969-1.257813 5.824219l-43.859375 29.863281 34.082031-19.675781c1.996094-1.25 4.628907-.640625 5.878907 1.355469 1.246093 2 .640624 4.632812-1.359376 5.878906l-14.417968 9.636719 3.796875-2.195313c1.910156-1.121093 4.359375-.59375 5.640625 1.214844 1.28125 1.804688.964844 4.292969-.726563 5.722656l-33.425781 28.648438 2.382812-1.375c1.320313-.839844 3-.886719 4.367188-.125 1.367188.765625 2.207031 2.214844 2.1875 3.785156-.023438 1.566406-.902344 2.996094-2.289062 3.722656l-42.179688 24.363282c-1.910156 1.121094-4.363281.59375-5.644531-1.214844s-.964844-4.292969.726562-5.726562l33.410157-28.628907-72.472657 41.816407c-.648437.382812-1.382812.589843-2.132812.597656zm0 0" fill="#46ceac"/><path d="m245.460938 264.113281c-1.773438 0-3.359376-1.09375-3.988282-2.753906-.632812-1.65625-.171875-3.527344 1.15625-4.707031l28.40625-25.207032-42.523437 24.558594c-1.945313 1.101563-4.410157.515625-5.648438-1.347656-1.242187-1.859375-.835937-4.363281.929688-5.734375l24.570312-18.859375-29.476562 17.070312c-1.933594 1.085938-4.378907.511719-5.621094-1.328124-1.246094-1.835938-.875-4.320313.851563-5.714844l33.28125-26.316406-36.359376 20.984374c-1.941406 1.101563-4.402343.523438-5.648437-1.328124-1.246094-1.847657-.855469-4.347657.894531-5.730469l28.765625-22.398438-27.785156 16.035157c-1.964844 1.117187-4.457031.507812-5.6875-1.386719-1.230469-1.890625-.773437-4.417969 1.046875-5.757813l6.695312-4.878906-2.667968 1.542969c-1.9375 1.117187-4.410156.546875-5.664063-1.304688-1.253906-1.851562-.863281-4.359375.894531-5.742187l11.765626-9.242188-4.4375 2.558594c-1.894532 1.09375-4.308594.578125-5.589844-1.195312-1.28125-1.769532-1.015625-4.226563.613281-5.683594l12.683594-11.347656c-.65625-.378907-1.199219-.917969-1.578125-1.570313-1.179688-2.039063-.480469-4.648437 1.558594-5.828125l23.742187-13.714844c1.894531-1.09375 4.308594-.578125 5.589844 1.195313 1.28125 1.773437 1.015625 4.226562-.617188 5.683593l-4.984375 4.457032 20.660156-11.949219c1.9375-1.117187 4.410157-.546875 5.664063 1.308594 1.253906 1.851562.863281 4.355469-.894531 5.742187l-11.78125 9.257813 20.675781-11.949219c1.960937-1.113281 4.453125-.507812 5.6875 1.386719 1.230469 1.890625.769531 4.417969-1.046875 5.757812l-6.679688 4.863281 11.320313-6.535156c1.945313-1.132812 4.433594-.5625 5.691406 1.304688 1.253907 1.867187.84375 4.386718-.9375 5.761718l-28.78125 22.40625 33.824219-19.523437c1.9375-1.109375 4.398438-.539063 5.652344 1.304687 1.253906 1.847657.871094 4.34375-.871094 5.734376l-33.28125 26.308593 35.285156-20.34375c1.949219-1.125 4.433594-.542969 5.683594 1.328125 1.246094 1.867188.828125 4.386719-.957031 5.753906l-24.558594 18.816407 22.1875-12.800781c1.894531-1.09375 4.316406-.578126 5.597656 1.199218s1.007813 4.234375-.632812 5.6875l-28.421875 25.183594 21.460937-12.390625c1.878907-1.046875 4.242188-.53125 5.515625 1.203125 1.273438 1.734375 1.054688 4.144531-.507812 5.625l-13.472656 12.277344c.769531.371094 1.410156.964844 1.832031 1.707031 1.179687 2.039063.480469 4.648437-1.558594 5.828125l-23.75 13.714844c-1.878906 1.046875-4.246094.53125-5.515625-1.203125-1.273438-1.734375-1.054688-4.148438.507812-5.625l7.011719-6.390625-23.667969 13.652344c-.640624.378906-1.367187.582031-2.109374.589843zm0 0" fill="#cad0d7"/><g fill="#35ba9b"><path d="m283.410156 98.507812c-.722656 0-1.429687-.179687-2.058594-.53125-1.308593-.71875-2.144531-2.066406-2.210937-3.558593l-.222656-5.597657-10.734375 6.195313c-1.734375 1.003906-3.933594.664063-5.285156-.8125-1.351563-1.480469-1.492188-3.703125-.335938-5.339844l2.558594-3.652343-16.511719 9.539062c-1.839844 1.0625-4.179687.609375-5.492187-1.058594-1.308594-1.671875-1.191407-4.054687.277343-5.585937l8.644531-9.082031-25.734374 14.875c-1.898438 1.101562-4.324219.582031-5.605469-1.199219-1.28125-1.785157-1-4.246094.644531-5.695313l13.484375-11.894531-2.808594 1.609375c-1.722656 1-3.90625.671875-5.261719-.785156-1.355468-1.457032-1.523437-3.660156-.402343-5.304688l8.039062-11.820312c-.910156-.347656-1.667969-.996094-2.144531-1.84375-1.175781-2.039063-.476562-4.648438 1.5625-5.828125l10.375-5.972657c1.722656-.988281 3.902344-.660156 5.253906.796876 1.351563 1.457031 1.519532 3.652343.40625 5.296874l-5.972656 8.769532 23.59375-13.652344c1.898438-1.101562 4.320312-.582031 5.601562 1.199219 1.28125 1.785156 1.003907 4.246093-.644531 5.695312l-13.457031 11.9375 14.71875-8.53125c1.839844-1.074219 4.191406-.628906 5.511719 1.046875 1.316406 1.675782 1.191406 4.066406-.289063 5.601563l-8.667968 9.078125 7.285156-4.207032c1.734375-.996093 3.925781-.65625 5.277344.816407 1.347656 1.476562 1.492187 3.691406.347656 5.328125l-2.585938 3.660156.164063-.101562c1.292969-.75 2.882812-.765626 4.191406-.042969 1.3125.71875 2.148437 2.074219 2.207031 3.566406l.28125 6.828125c1.714844.382812 3.023438 1.777344 3.289063 3.515625s-.5625 3.464844-2.085938 4.34375l-3.097656 1.789063c-.636719.386718-1.363281.59375-2.105469.609374zm0 0"/><path d="m145.859375 146.796875c-1.792969-.003906-3.394531-1.125-4.007813-2.808594-.609374-1.6875-.105468-3.574219 1.269532-4.726562l8.796875-7.390625-8.617188 4.976562c-1.796875 1.027344-4.074219.617188-5.398437-.976562-1.328125-1.589844-1.316406-3.902344.019531-5.484375l16.640625-19.480469-18.773438 10.863281c-1.734374.992188-3.925781.648438-5.273437-.828125-1.347656-1.476562-1.488281-3.691406-.339844-5.328125l11.851563-16.808593c-1.933594.011718-3.636719-1.28125-4.144532-3.148438-.503906-1.871094.308594-3.84375 1.988282-4.8125l13.925781-8.039062c1.734375-1.003907 3.933594-.660157 5.285156.820312 1.351563 1.484375 1.488281 3.703125.328125 5.339844l-11.09375 15.703125 23.527344-13.578125c1.796875-1.027344 4.074219-.617188 5.398438.972656 1.324218 1.59375 1.316406 3.90625-.023438 5.488281l-16.640625 19.480469 29.304687-16.921875c1.914063-1.097656 4.351563-.550781 5.617188 1.257813 1.265625 1.808593.941406 4.28125-.746094 5.707031l-26.035156 21.851562.1875.308594c1.179688 2.039063.480469 4.648437-1.558594 5.828125l-19.335937 11.160156c-.652344.382813-1.398438.582032-2.152344.574219zm0 0"/><path d="m137.085938 246.277344c-2.285157.003906-4.167969-1.800782-4.265626-4.085938l-.316406-7.511718-9.648437 5.582031c-1.769531 1.03125-4.027344.660156-5.371094-.882813-1.34375-1.546875-1.402344-3.832031-.132813-5.441406l1.390626-1.792969-7.398438 4.269531c-1.824219 1.058594-4.152344.625-5.472656-1.019531-1.320313-1.644531-1.238282-4.007812.1875-5.5625l7.570312-8.257812-15.753906 9.097656c-1.863281 1.011719-4.1875.496094-5.457031-1.203125-1.265625-1.703125-1.089844-4.078125.414062-5.574219l15.855469-15.078125-13.34375 7.679688c-1.710938.984375-3.875.667968-5.234375-.765625-1.355469-1.4375-1.546875-3.613281-.46875-5.265625l6.394531-9.773438c-2.074218.929688-4.511718.074219-5.546875-1.949218-1.035156-2.019532-.304687-4.5 1.664063-5.636719l15.109375-8.71875c1.710937-.980469 3.871093-.65625 5.222656.777343 1.351563 1.429688 1.546875 3.601563.46875 5.253907l-6.363281 9.726562 28.894531-16.679687c1.882813-1.1875 4.367187-.726563 5.695313 1.0625 1.332031 1.789062 1.0625 4.300781-.621094 5.761718l-15.894532 15.027344 8.703126-5.015625c1.824218-1.058593 4.148437-.628906 5.46875 1.015625 1.320312 1.648438 1.242187 4.011719-.1875 5.5625l-7.585938 8.269532 2.328125-1.339844c1.769531-1.015625 4.007813-.636719 5.34375.898437 1.335937 1.539063 1.402344 3.804688.152344 5.414063l-2.363281 3.039062c2.269531.027344 4.121093 1.820313 4.214843 4.089844l.402344 9.648438c1.410156.699218 2.320313 2.117187 2.371094 3.6875.046875 1.574218-.769531 3.046874-2.132813 3.832031l-2.160156 1.253906c-.644531.386719-1.378906.59375-2.132812.605469zm0 0"/><path d="m147.941406 336.117188c-1.730468.003906-3.289062-1.039063-3.949218-2.640626-.664063-1.597656-.292969-3.4375.9375-4.65625l6.878906-6.828124-10.019532 5.789062c-1.84375 1.050781-4.179687.585938-5.484374-1.09375-1.300782-1.675781-1.171876-4.054688.304687-5.582031l7.773437-7.933594-10.179687 5.878906c-1.867187 1.105469-4.265625.636719-5.578125-1.09375-1.308594-1.730469-1.113281-4.167969.457031-5.664062l5.835938-5.652344c-1.855469.542969-3.84375-.230469-4.84375-1.886719s-.761719-3.777344.578125-5.167968l8.148437-8.535157c-.234375-.160156-.453125-.34375-.65625-.542969-1.359375-1.410156-1.589843-3.5625-.554687-5.222656l7.136718-11.496094c-.652343-1.925781.148438-4.042968 1.910157-5.058593l2.832031-1.632813c1.699219-.992187 3.859375-.691406 5.222656.726563 1.367188 1.417969 1.585938 3.585937.527344 5.25l-1.421875 2.292969.679687-.390626c1.839844-1.078124 4.195313-.628906 5.511719 1.046876 1.316407 1.675781 1.191407 4.066406-.289062 5.597656l-2.125 2.21875 2.671875-1.542969c1.867187-1.105469 4.265625-.636719 5.578125 1.09375 1.308593 1.730469 1.113281 4.167969-.457031 5.664063l-5.460938 5.273437 7.183594-4.136719c1.84375-1.050781 4.183594-.585937 5.484375 1.089844s1.171875 4.054688-.304688 5.582031l-7.773437 7.9375 11.46875-6.625c1.851562-1.027343 4.179687-.542969 5.464844 1.144531 1.285156 1.683594 1.140624 4.058594-.34375 5.574219l-6.878907 6.824219 10.921875-6.304688c1.324219-.839843 3-.890624 4.371094-.125 1.367188.761719 2.207031 2.214844 2.183594 3.78125-.019532 1.570313-.898438 3-2.285156 3.726563l-39.324219 22.738281c-.644531.382813-1.382813.582032-2.132813.582032zm0 0"/><path d="m249.035156 376.367188c-1.730468 0-3.292968-1.046876-3.949218-2.652344-.65625-1.605469-.273438-3.445313.964843-4.660156l10-9.804688-17.980469 10.378906c-1.816406 1.046875-4.128906.617188-5.445312-1.015625-1.320312-1.632812-1.257812-3.980469.148438-5.539062l14.984374-16.546875-14.59375 8.421875c-1.738281 1-3.941406.652343-5.285156-.835938-1.347656-1.484375-1.476562-3.710937-.3125-5.339843l3.855469-5.402344-1.773437 1.023437c-1.222657.71875-2.730469.773438-4.003907.144531-1.269531-.621093-2.152343-1.832031-2.351562-3.234374l-1.351563-9.488282c-1.621094-.503906-2.792968-1.921875-2.980468-3.613281-.183594-1.6875.652343-3.328125 2.128906-4.167969l2.296875-1.324218c1.226562-.707032 2.726562-.753907 3.996093-.132813 1.273438.621094 2.152344 1.835937 2.351563 3.238281l1.144531 8.039063 13.394532-7.730469c1.738281-.992188 3.929687-.644531 5.273437.839844 1.347656 1.480468 1.480469 3.695312.324219 5.328125l-3.863282 5.402343 21.058594-12.152343c1.820313-1.046875 4.132813-.613281 5.449219 1.019531 1.320313 1.636719 1.25 3.988281-.15625 5.542969l-15.003906 16.570312 23.59375-13.652343c1.863281-1.074219 4.230469-.59375 5.53125 1.117187s1.125 4.121094-.410157 5.625l-10.171874 9.96875c2.078124-.785156 4.410156.152344 5.363281 2.15625s.207031 4.40625-1.710938 5.523437l-28.382812 16.382813c-.644531.378906-1.382813.574219-2.132813.570313zm0 0"/><path d="m352.757812 338.4375c-1.640624 0-3.140624-.945312-3.847656-2.425781-.707031-1.484375-.503906-3.242188.527344-4.519531l9.816406-12.144532-19.542968 11.273438c-1.851563 1.015625-4.164063.527344-5.445313-1.152344-1.28125-1.675781-1.144531-4.039062.324219-5.554688l10.832031-10.898437-18.953125 10.914063c-1.882812 1.109374-4.300781.617187-5.597656-1.140626-1.300782-1.757812-1.0625-4.210937.554687-5.683593l14.121094-13.175781c-1.847656.757812-3.976563.132812-5.121094-1.503907s-.996093-3.851562.351563-5.324219l22.074218-24.335937c-.015624-1.542969.796876-2.976563 2.132813-3.746094l3.234375-1.871093c1.820312-1.046876 4.132812-.613282 5.449219 1.023437 1.320312 1.632813 1.253906 3.984375-.15625 5.539063l-8.097657 8.9375 8.183594-4.730469c1.882813-1.109375 4.296875-.617188 5.597656 1.140625 1.296876 1.757812 1.058594 4.214844-.554687 5.6875l-13.988281 13.046875 14.652344-8.457031c1.851562-1.015626 4.164062-.527344 5.445312 1.152343 1.28125 1.675781 1.144531 4.039063-.324219 5.554688l-10.871093 10.871093 11.253906-6.5c1.777344-1.03125 4.039062-.648437 5.375.910157 1.339844 1.566406 1.375 3.863281.078125 5.464843l-10.417969 12.902344c1.6875-.183594 3.328125.640625 4.1875 2.105469 1.171875 2.039063.476562 4.640625-1.558594 5.820313l-17.582031 10.214843c-.640625.390625-1.378906.601563-2.132813.605469zm0 0"/><path d="m370.507812 245.730469c-1.8125 0-3.425781-1.148438-4.023437-2.859375-.597656-1.710938-.046875-3.613282 1.371094-4.742188l4.820312-3.832031c-1.652343-.128906-3.078125-1.203125-3.65625-2.753906-.582031-1.550781-.214843-3.296875.941407-4.480469l15.882812-16.214844-9.097656 5.257813c-1.722656 1.007812-3.914063.6875-5.277344-.769531-1.359375-1.460938-1.53125-3.667969-.40625-5.316407l7.832031-11.621093-2.976562 1.707031c-1.285157.738281-2.859375.757812-4.164063.054687-1.304687-.707031-2.148437-2.039062-2.226562-3.519531l-.675782-12.65625c-1.429687-.683594-2.363281-2.097656-2.425781-3.683594-.0625-1.582031.757813-3.066406 2.128907-3.859375l2.148437-1.253906c1.292969-.742188 2.871094-.765625 4.183594-.0625 1.300781.710938 2.140625 2.046875 2.21875 3.527344l.570312 10.640625 12.945313-7.476563c1.71875-.992187 3.898437-.667968 5.253906.78125 1.355469 1.453125 1.527344 3.648438.421875 5.292969l-7.824219 11.625 20.171875-11.648437c1.84375-1.050782 4.183594-.585938 5.484375 1.09375 1.300782 1.683593 1.167969 4.0625-.3125 5.585937l-15.882812 16.214844 16.605468-9.617188c1.9375-1.132812 4.421876-.570312 5.683594 1.285157 1.261719 1.855468.871094 4.371093-.894531 5.753906l-2.980469 2.363281c1.648438-.125 3.222656.695313 4.0625 2.117187 1.179688 2.042969.480469 4.652344-1.5625 5.828126l-46.207031 26.667968c-.644531.378906-1.382813.574219-2.132813.570313zm0 0"/><path d="m355.660156 149.945312c-1.617187 0-3.09375-.914062-3.816406-2.359374-.722656-1.445313-.566406-3.175782.402344-4.46875l6.648437-8.652344-8.535156 4.925781c-1.878906 1.058594-4.253906.550781-5.535156-1.191406-1.277344-1.738281-1.054688-4.160157.519531-5.636719l1.792969-1.636719-2.664063 1.535157c-1.753906 1.003906-3.972656.636718-5.3125-.875-1.339844-1.515626-1.433594-3.761719-.226562-5.378907l13.101562-17.453125-20.558594 11.871094c-1.683593.976562-3.820312.691406-5.1875-.699219-1.363281-1.390625-1.613281-3.53125-.605468-5.199219l7.679687-12.695312-15.574219 8.984375c-2.039062 1.160156-4.632812.457031-5.804687-1.574219s-.484375-4.628906 1.539063-5.816406l29.867187-17.246094c1.683594-.976562 3.816406-.691406 5.183594.699219 1.367187 1.390625 1.617187 3.53125.609375 5.199219l-7.636719 12.695312 24.335937-14.054687c1.757813-1.019531 3.992188-.660157 5.339844.863281 1.347656 1.519531 1.433594 3.78125.207032 5.402344l-13.105469 17.441406 18.378906-10.605469c1.878906-1.0625 4.257813-.554687 5.535156 1.1875 1.28125 1.738281 1.058594 4.160157-.515625 5.636719l-5.488281 5.019531c.910156.183594 1.730469.664063 2.335937 1.363281 1.34375 1.53125 1.417969 3.796876.179688 5.410157l-10.835938 14.117187c.445313.339844.816407.765625 1.09375 1.253906 1.179688 2.039063.484376 4.644532-1.554687 5.828126l-9.667969 5.578124c-.652344.359376-1.382812.542969-2.125.53125zm0 0"/></g><path d="m508.613281 21.050781c-8.21875-30.21875-67.800781-18.195312-91.050781-18.195312h-214.992188c-54.449218 0-109.855468-3.019531-164.238281 0-43.394531 2.40625-37.011719 30.5-37.011719 68.488281 0 25.175781-7.003906 53.992188 11.238282 72.824219 21.25 21.9375 50.347656 39.441406 74.523437 58.300781-.289062 1.953125-.453125 3.925781-.488281 5.902344-.125 7.410156-1.507812 17.921875 4.898438 23.289062 3.667968 2.316406 7.710937 3.972656 11.949218 4.898438l31.9375 10.648437c2.46875 7.246094 5.597656 14.25 9.347656 20.925781-5.046874 10.074219-10.085937 20.148438-15.113281 30.222657-2.125 3.4375-3.8125 7.125-5.027343 10.976562-1.960938 9.28125 8.199218 16.800781 14.292968 22.414063 10.4375 9.617187 18.492188 7.1875 30.003906 1.433594l19.582032-9.792969c-.410156 9.386719-.242188 18.789062.503906 28.15625v85.933593c0 19.292969-11.382812 81.5 26.746094 64.203126 16.742187-7.59375 33.140625-23.6875 48-34.304688 14.855468-10.613281 35.503906-20.871094 48-34.300781 12.902344-13.878907 9.28125-30.464844 9.28125-48.53125v-60.382813c7.433594 3.859375 14.890625 7.679688 22.503906 11.09375 17.238281 7.679688 29.175781-7.039062 39.824219-19.113281.128906-.136719.078125-.214844.144531-.34375.070312-.125.273438-.21875.34375-.347656 4.640625-8.414063-2.476562-17.144531-6.265625-24.746094-3.980469-7.964844-7.964844-15.929687-11.945313-23.894531 0 0-.058593-.050782-.078124-.085938 3.925781-7.4375 7.117187-15.238281 9.53125-23.296875l29.980468-10c3.359375-.9375 6.648438-2.097656 9.855469-3.472656 8.96875-4.386719 8.277344-12.101563 8.394531-21.171875 0-3.183594.078125-6.253906-.21875-9.078125l44.621094-34.894531c10.980469-8.589844 32.339844-19.4375 38.917969-32.84375 6.171875-12.578125 2.015625-34.023438 2.015625-47.078125zm-140.152343 100.921875c-2.777344 5.539063-5.546876 11.082032-8.3125 16.621094-.425782.640625-.851563 1.28125-1.238282 1.921875-9.644531-13.792969-21.902344-25.558594-36.078125-34.628906l18.953125-9.480469c3.230469-2.050781 6.605469-3.867188 10.09375-5.433594 2.390625.375 4.695313 1.152344 6.828125 2.292969 1.34375.632813 2.613281 1.40625 3.789063 2.3125 1.648437 1.625 3.167968 3.375 4.539062 5.242187 2.984375 6.652344 3.492188 14.15625 1.425782 21.152344zm-132.113282 225.851563-.855468-2.558594c-.847657-4.546875-2.132813-9-3.839844-13.296875 15.636718 3.054688 31.722656 2.976562 47.328125-.230469-2.398438 5.808594-4.132813 11.867188-5.171875 18.066407l-.1875.5625c-.632813 1.910156-1.136719 3.832031-1.621094 5.699218-1.964844 7.394532-8.9375 12.324219-16.5625 11.707032-6.050781.519531-11.859375-2.464844-14.96875-7.679688-1.46875-3.351562-2.507812-7.464844-4.121094-12.269531zm-67.046875-250.136719 17.679688 8.839844c-13.925781 8.9375-25.917969 20.574218-35.265625 34.226562l-1.109375-2.210937c-2.40625-7.105469-10.964844-21.570313-11.625-32.972657 1.128906-2.734374 2.804687-5.210937 4.933593-7.269531 4.085938-4.199219 6.75-8.53125 12.210938-7.203125 4.605469 1.742188 9.019531 3.949219 13.175781 6.589844zm142.558594 212.734375c-.585937.125-1.160156.308594-1.707031.546875-8.976563 4.539062-15.574219 6.09375-21.09375 9.539062-3.347656 1.035157-6.777344 1.9375-10.300782 2.679688-19.332031 4.054688-39.398437 2.828125-58.09375-3.546875-5.429687-3.246094-11.878906-5.003906-19.628906-8.808594-5.917968-3.351562-11.527344-7.222656-16.765625-11.5625-.941406-.785156-1.835937-1.605469-2.75-2.40625-3.578125-3.164062-6.960937-6.546875-10.128906-10.121093-.527344-.570313-1.050781-1.164063-1.5625-1.792969-5.800781-6.832031-10.804687-14.308594-14.90625-22.277344-7.480469-14.664063-11.703125-30.769531-12.375-47.214844-.039063-9.585937.710937-19.152343 2.238281-28.613281 6.71875-34.957031 29.433594-64.746094 61.371094-80.46875 4.21875-1.371094 8.332031-3.042969 12.3125-5 1.707031-.589844 3.414062-1.308594 5.171875-1.8125 22.589844-6.542969 46.699219-5.492188 68.632813 2.988281 3.527343 2.515625 7.511718 4.320313 11.726562 5.316407 20.960938 11.167968 38.128906 28.320312 49.3125 49.269531 1.011719 5.949219 3.542969 11.535156 7.347656 16.214843 2.785156 7.582032 4.816406 15.417969 6.066406 23.398438.078126.496094.128907 1 .207032 1.492188.613281 4.203124 1.003906 8.429687 1.167968 12.671874-.515624 40.601563-21.726562 78.128907-56.242187 99.507813zm-75.503906-239.726563c.75-2.253906 1.40625-4.691406 2.132812-7.089843.070313-.09375.101563-.214844.171875-.308594 2.992188-5.375 7.851563-9.46875 13.652344-11.511719 1.707031 0 3.242188.128906 4.265625.222656h.445313c6.640624 2.132813 11.945312 11.527344 16.757812 21.632813 1.800781 5.386719 3.597656 10.773437 5.394531 16.160156-7.1875-1.507812-14.5-2.351562-21.84375-2.515625-3.8125.019532-7.617187.285156-11.394531.792969-5.066406.222656-10.117188.753906-15.121094 1.585937 1.214844-3.410156 2.121094-6.925781 2.707032-10.503906.949218-2.804687 1.894531-5.625 2.832031-8.464844zm-129.40625 156.082032c-6.957031-3.410156-7.851563-8.710938-7.84375-16.765625-.199219-3.726563-.121094-7.464844.238281-11.179688.058594-.425781.152344-.84375.28125-1.253906.132812-.714844.421875-1.394531.855469-1.980469.664062-.726562 2.5-.589844 3.34375-1.117187 4.257812-1.933594 8.710937-3.417969 13.277343-4.421875l14.753907-4.921875c-3.292969 14.867187-3.582031 30.246093-.851563 45.226562.210938 1.5625.410156 3.121094.691406 4.703125l-12.246093-4.082031c-4.253907-1.125-8.429688-2.53125-12.5-4.207031zm51.746093 103c-5.976562 1.371094-9.6875-4.113282-14.066406-8.609375-5.050781-5.179688-8.804687-9.175781-6.261718-16.429688 1.929687-4.523437 4.132812-8.925781 6.597656-13.183593 1.898437-3.804688 3.800781-7.605469 5.699218-11.398438 9.835938 14.0625 22.375 26.019531 36.890626 35.171875l-15.019532 7.511719c-4.359375 2.789062-9 5.113281-13.839844 6.9375zm116.308594 117.433594-44.433594 31.753906c-3.167968 2.261718-18.773437 16.980468-22.757812 16.265625-13.773438-2.492188-6.296875-62.074219-6.296875-72.457031 0-31.289063 0-62.554688 0-93.800782 0-1.371094-.574219-4.972656-.460937-7.40625 2.148437 1.058594 4.316406 2.058594 6.519531 2.988282.816406.6875 1.585937 1.433593 2.292969 2.234374 6.128906 6.980469 7.84375 5.496094 11.761718 17.246094 1.566406 6.777344 3.734375 13.398438 6.476563 19.789063.613281 2.765625 1.820312 5.363281 3.539062 7.613281 2.53125 2.386719 5.800781 3.84375 9.269531 4.121094 11.125 6.476562 25.097657 5.402344 35.105469-2.699219 7.40625-6.476563 9.1875-21.042969 12.054688-29.632813 1.222656-6.394531 4.644531-12.15625 9.679687-16.285156.472656-.410156.964844-.789062 1.484375-1.140625 3.128907-1.203125 6.1875-2.519531 9.179688-3.953125v75.949219c0 27.980469-11.398438 33.652344-33.414063 49.414063zm96.621094-129.980469c-3.992188 4.652343-10.582031 14.03125-15.921875 13.917969-3.609375-.066407-9.632813-4.8125-12.800781-6.371094l-20.992188-10.496094c14.191406-9.105469 26.410156-20.964844 35.933594-34.878906 2.050781 4.101562 4.101562 8.203125 6.152344 12.308594 3.542968 7.03125 11.75 17.628906 7.628906 25.519531zm34.269531-87.839844c-4.527343 1.945313-9.210937 3.503906-14 4.667969l-15.445312 5.121094.253906-1.367188c.722656-.679688 1.199219-1.582031 1.355469-2.558594.082031-.6875-.058594-1.378906-.398438-1.980468 1.082032-5.035157 1.878906-10.125 2.386719-15.25.113281-.964844.148437-1.953126.230469-2.917969.128906-1.707031.335937-3.414063.410156-5.1875 0-.34375-.066406-.65625-.074219-1v-.144531c-.238281-8.039063-1.230469-16.039063-2.972656-23.894532 2.457031.648438 5.121094 1.273438 7.929687 1.929688l4.957032 1.648437c4.351562 1.148438 8.628906 2.574219 12.800781 4.265625.894531.4375 1.75.953125 2.558594 1.535156l.488281.375c.558594.441407 1.082031.933594 1.550781 1.46875l.316407.359376c2.582031 4.769531 3.527343 10.253906 2.6875 15.613281-.101563 6.734375 1.117187 13.960937-5.035157 17.316406zm87.410157-97.109375c-11.300782 23.695312-47.660157 44.023438-72.226563 61.089844-1.140625-1.8125-2.742187-3.285156-4.644531-4.265625h-.074219c-6.703125-3.222657-13.757813-5.65625-21.019531-7.253907-21.742188-7.246093-29.523438-18.527343-24.113282-40.671874l13.363282-26.714844c.101562-.277344.167968-.5625.195312-.855469 0-.101563.136719-.179687.160156-.28125.96875-3.660156.453126-7.554687-1.433593-10.835937 0-.085938 0-.144532 0-.222657-2.433594-6.628906-7.5-11.953125-14.003907-14.710937l-.808593-.667969c-5.535157-5.539063-14.050781-6.785156-20.941407-3.0625-11.585937 4.898437-22.757812 11.1875-33.996093 16.949219-2.710938-.902344-5.359375-1.976563-7.9375-3.210938-9.164063-3.890625-12.261719-6.554687-14.34375-11.167968-2.84375-8.535157-5.6875-17.066407-8.53125-25.601563-.855469-4.109375-2.457031-8.023437-4.730469-11.554687-3.285156-3.097657-7.640625-4.8125-12.160156-4.785157-7.058594-2.414062-14.777344-2.027343-21.5625 1.082031-8.679688 1.378907-15.554688 8.066407-17.175782 16.699219l-10.242187 30.722657c-6.78125 1.984374-13.371094 4.578124-19.6875 7.746093l-26.707031-13.355469c-10.34375-5.171874-18.441406-6.765624-27.734375.429688-7.40625 2.628906-13.289063 8.363281-16.109375 15.699219-1.289063 1.871093-2.144532 4.011719-2.5 6.253906.0625 4.402344 1.457031 8.675781 3.992187 12.273437l3.261719 6.519532c4.785156 11.03125 10.554688 22.507812 8.085938 33.441406-1.175782 2.617188-2.246094 5.238281-3.207032 7.867188-1.207031 2.15625-2.761718 4.101562-4.597656 5.75l-25.003906 8.332031c-5.863282 1.390625-11.238282 4.339843-15.566406 8.53125-21.972657-16.367188-46.8125-32.214844-65.542969-51.429688-19.542969-20.0625-12.082031-50.765625-12.082031-77.269531 0-13.355469-6.078126-46.515625 8.53125-55.332031 2.6875-1.628907 9.386718.546875 12.390624 0 23.144532-4.179688 50.9375 0 74.335938 0h332.277344c17.296875 0 48.640625-7.472657 55.039062 15.941406 0 30.773437 10.242188 80.265625-2.949218 107.921875zm0 0" fill="#262626"/><path d="m250.109375 264.25c.300781 0 .589844.074219.898437.09375.109376.007812.222657.007812.332032 0 .335937.035156.671875.054688 1.007812.050781 28.535156-1.546875 56.125-18.832031 59.628906-49.367187 1.453126-15.082032-3.578124-30.070313-13.835937-41.222656-10.257813-11.148438-24.773437-17.414063-39.921875-17.230469-26.582031-.128907-53.566406 17.015625-59.417969 43.957031-7.363281 33.917969 18.679688 61.507812 51.25 63.761719zm-7.089844-98.382812c62.15625-16.65625 79.777344 88.636718 15.292969 93.015624-50.695312-3.363281-69.199219-78.558593-15.292969-93.015624zm0 0" fill="#262626"/><path d="m144.554688 35.136719h-8.535157c-2.722656 0-6.5 2.109375-6.824219 5.078125-.316406 3.25 3.25 4.191406 5.75 4.191406h8.535157c2.71875 0 6.5-2.109375 6.824219-5.078125.316406-3.253906-3.25-4.191406-5.75-4.191406zm0 0" fill="#262626"/><path d="m101.972656 35.445312c-16.664062 0-33.722656-1.128906-50.347656 0-21.09375 1.433594-16.210938 23.996094-16.210938 38.988282 0 6.230468 12.492188 4.265625 12.492188-1.058594 0-7.296875-.46875-14.738281 0-22.015625.453125-7.058594 1.707031-7.261719 8.429688-7.261719h44.449218c6.886719 0 9.601563-8.652344 1.1875-8.652344zm0 0" fill="#262626"/><path d="m35.457031 109.691406v8.75c0 3.15625 12.355469 1.039063 12.355469-3.3125v-8.746094c0-3.148437-12.355469-1.042968-12.355469 3.308594zm0 0" fill="#262626"/><path d="m323.171875 253.265625c-13.460937 23.777344-38.390625 38.765625-65.703125 39.5-3.976562.105469-13.320312 6.222656-5.121094 5.976563 33.417969-.171876 64.414063-17.476563 82.097656-45.835938 2.6875-4.222656-9.460937-2.59375-11.273437.359375zm0 0" fill="#262626"/><path d="m334.070312 211.042969c0 2.859375-.160156 5.691406-.417968 8.535156-.527344 5.765625 12 3.746094 12.449218-1.214844.265626-2.839843.402344-5.671875.429688-8.53125.039062-5.898437-12.417969-3.660156-12.460938 1.210938zm0 0" fill="#262626"/></svg>