<svg height="506pt" viewBox="-49 0 506 506.57033" width="506pt" xmlns="http://www.w3.org/2000/svg"><path d="m72.492188 504.519531c-1.914063.003907-3.59375-1.261719-4.117188-3.101562-.523438-1.839844.242188-3.800781 1.871094-4.800781l85.886718-53.0625-104.589843 60.359374c-2.011719 1.125-4.550781.453126-5.742188-1.519531-1.1875-1.972656-.597656-4.535156 1.335938-5.785156l151.570312-94.917969-169.164062 97.664063c-2.011719 1.074219-4.515625.378906-5.679688-1.585938-1.164062-1.960937-.582031-4.492187 1.328125-5.742187l61.730469-37.609375-66.023437 38.128906c-2.007813 1.085937-4.511719.402344-5.6875-1.550781-1.175782-1.957032-.609376-4.492188 1.292968-5.753906l177.152344-110.761719-180.386719 104.148437c-2.019531 1.082032-4.53125.375-5.691406-1.597656s-.558594-4.507812 1.363281-5.75l4.414063-2.664062-1.46875.855468c-2.007813 1.058594-4.492188.359375-5.65625-1.589844-1.160157-1.953124-.589844-4.46875 1.296875-5.730468l119.40625-73.261719-115.046875 66.382813c-2.003907 1.054687-4.484375.363281-5.648438-1.578126-1.164062-1.941406-.613281-4.457031 1.261719-5.726562l182.050781-113.640625-177.664062 102.574219c-2.015625 1.113281-4.554688.425781-5.730469-1.554688-1.179688-1.980468-.570312-4.539062 1.371094-5.777344l121.308594-74.453124-116.949219 67.515624c-2.007813 1.070313-4.503907.378907-5.671875-1.570312-1.167969-1.953125-.597656-4.480469 1.292968-5.742188l167.058594-103.773437-162.679687 93.917969c-1.316407.777344-2.945313.792968-4.277344.042968s-2.160156-2.15625-2.175781-3.683593c-.015625-1.527344.785156-2.949219 2.101562-3.726563l91.65625-55.890625-87.304687 50.398438c-2.007813 1.070312-4.503907.378906-5.671875-1.574219-1.167969-1.953125-.597656-4.476562 1.292968-5.742188l159.003907-98.542968-154.625 89.285156c-2.007813 1.074219-4.503907.382812-5.671875-1.570312-1.167969-1.953126-.597656-4.480469 1.292968-5.742188l161.347657-100.054688-156.96875 90.625c-2.015625 1.097657-4.539063.402344-5.710938-1.574218-1.167969-1.976563-.566406-4.523438 1.367188-5.761719l61.441406-37.300781-57.097656 32.957031c-2.003907 1.042969-4.472657.34375-5.632813-1.597656-1.160156-1.941407-.605468-4.445313 1.265625-5.71875l148.84375-92.074219-144.476562 83.40625c-2.003907 1.042969-4.472657.34375-5.632813-1.597656-1.160156-1.9375-.605468-4.445313 1.265625-5.714844l141.183594-87.40625-136.816406 78.992188c-2.003907 1.054687-4.484375.363281-5.648438-1.578126-1.164062-1.941406-.613281-4.457031 1.261719-5.726562l153.40625-95.667969-149.019531 86.058594c-2.011719 1.109375-4.535157.425781-5.71875-1.542969-1.179688-1.96875-.589844-4.515625 1.332031-5.769531l145.253906-90.632813-140.867187 81.332032c-2.007813 1.125-4.550781.453125-5.738281-1.519532-1.191407-1.972656-.597657-4.535156 1.335937-5.785156l154.101563-96.914062-149.699219 86.433594c-2.015625 1.136718-4.570313.457031-5.757813-1.527344s-.574218-4.554688 1.378906-5.792969l116.148438-72.277344-111.769531 64.539063c-2.007813 1.125-4.550781.453125-5.738281-1.519532-1.191407-1.976562-.597657-4.535156 1.335937-5.785156l140.960937-88.925781-136.53125 78.828125c-2.007812 1.105469-4.523437.429688-5.707031-1.53125-1.1875-1.957031-.613281-4.5 1.292969-5.761719l142.261719-90.34375-137.882813 79.605469c-2.023437 1.152344-4.597656.472656-5.78125-1.527344-1.1875-2.003906-.550781-4.589844 1.429688-5.808594l6.824218-4.148437-2.4375 1.40625c-2.015624 1.136719-4.570312.460937-5.757812-1.527344-1.1875-1.984375-.574219-4.554687 1.378906-5.792969l71.363282-44.289062-66.984376 38.664062c-2.007812 1.074219-4.503906.382813-5.671874-1.570312-1.167969-1.953125-.601563-4.476562 1.292968-5.742188l68.265625-42.445312-63.921875 36.882812c-2.007812 1.058594-4.496094.359376-5.65625-1.589843-1.160156-1.953125-.59375-4.46875 1.296875-5.730469l7.679688-4.695312-3.277344 1.886718c-2.007813 1.085938-4.511719.402344-5.6875-1.550781-1.179687-1.957031-.609375-4.492187 1.292969-5.753906l58.8125-36.957031-54.460938 31.417968c-1.996094 1.117188-4.511718.464844-5.714844-1.480468-1.199218-1.945313-.65625-4.488282 1.234376-5.773438l100.691406-66.335938-96.210938 55.527344c-1.996094 1.183594-4.578125.554688-5.804687-1.417968-1.226563-1.972657-.648438-4.5625 1.296875-5.828126l83.015625-55.46875-78.507813 45.332032c-2 1.136718-4.539062.484375-5.742187-1.472656-1.207031-1.957032-.644531-4.515626 1.269531-5.789063l42.042969-27.589844-37.546875 21.691407c-1.964844 1.128906-4.46875.523437-5.703125-1.378907-1.234375-1.902343-.761719-4.4375 1.070312-5.769531l67.183594-48.640625-62.550781 36.101563c-1.976563 1.105468-4.46875.476562-5.683594-1.4375-1.210938-1.910157-.722656-4.4375 1.121094-5.753907l28.160156-19.558593-23.621094 13.601562c-1.941406 1.085938-4.390625.5-5.628906-1.347656s-.851562-4.335938.890625-5.71875l32.804687-25.308594-28.066406 16.214844c-1.941406 1.085937-4.390625.5-5.628906-1.347656-1.238281-1.847657-.851562-4.335938.890625-5.71875l11.949219-9.242188-7.230469 4.164062c-1.769531 1.011719-4.007813.625-5.339844-.917968-1.335937-1.546875-1.386719-3.816406-.128906-5.421875l13.824219-17.410157-.28125.15625c-1.324219.839844-3 .886719-4.367188.125-1.371094-.765624-2.210937-2.21875-2.1875-3.785156.019532-1.566406.898438-2.996094 2.289063-3.722656l19.695312-11.375c1.773438-1.027344 4.027344-.648438 5.367188.90625 1.335937 1.550781 1.382812 3.832031.109375 5.433594l-13.804688 17.433594 42.851563-24.746094c1.941406-1.109375 4.410156-.527344 5.65625 1.328125 1.25 1.855469.851562 4.359375-.910157 5.738281l-11.945312 9.222656 28.234375-16.289062c1.941406-1.109375 4.410156-.527344 5.65625 1.328125s.851563 4.359375-.910156 5.738281l-32.835938 25.300781 56.148438-32.367187c1.976562-1.105469 4.46875-.472656 5.683593 1.4375 1.210938 1.914062.722657 4.4375-1.117187 5.757812l-28.09375 19.539063 46.3125-26.785157c1.964844-1.128906 4.46875-.523437 5.703125 1.378907 1.234375 1.902343.761719 4.4375-1.070312 5.773437l-67.167969 48.636719 96.667969-55.796875c1.988281-1.085938 4.480468-.421875 5.671874 1.507812 1.1875 1.929688.660157 4.453126-1.203124 5.746094l-42.066407 27.570313 60.328125-34.832031c1.992188-1.117188 4.503906-.46875 5.710938 1.464843 1.203125 1.9375.675781 4.476563-1.203125 5.769531l-83.011719 55.46875 108.679688-62.714843c1.996093-1.15625 4.554687-.515625 5.769531 1.449219 1.214843 1.960937.644531 4.535156-1.28125 5.804687l-100.640625 66.320313 127.445312-73.582032c2.007813-1.125 4.546875-.453125 5.738282 1.519532 1.1875 1.972656.597656 4.535156-1.335938 5.785156l-58.882812 37 76.800781-44.3125c2.007812-1.058594 4.496093-.359375 5.65625 1.589844 1.160156 1.953124.59375 4.46875-1.292969 5.730468l-7.546875 4.644532 19.03125-11.015626c2.023437-1.214843 4.640625-.554687 5.855469 1.464844 1.210937 2.023438.550781 4.644532-1.46875 5.855469l-68.328125 42.46875 72.132812-41.632813c2.023438-1.210937 4.644531-.554687 5.855469 1.46875 1.210938 2.019532.554688 4.640626-1.46875 5.851563l-71.339844 44.253906 75.144532-43.375c2.027343-1.203125 4.644531-.535156 5.851562 1.492188 1.203125 2.023437.535156 4.644531-1.488281 5.847656l-6.761719 4.121094 8.789062-5.078125c2.007813-1.101563 4.523438-.425782 5.707032 1.53125 1.1875 1.960937.613281 4.503906-1.292969 5.765625l-142.285156 90.351562 149.332031-86.1875c2.011719-1.125 4.550781-.453125 5.742188 1.519531 1.1875 1.972657.597656 4.535157-1.335938 5.785157l-140.921875 88.875 147.535156-85.152344c2.003907-1.074219 4.5-.382813 5.667969 1.570313 1.167969 1.953124.601562 4.480468-1.292969 5.742187l-116.179687 72.269531 121.359375-70.070312c2.011719-1.125 4.550781-.453125 5.742187 1.519531 1.1875 1.972656.597656 4.535156-1.339844 5.785156l-154.179687 96.957031 161.058594-93.011718c2.007812-1.089844 4.511719-.40625 5.6875 1.550781 1.175781 1.953125.609375 4.488281-1.292969 5.753906l-145.296875 90.691407 151.441406-87.433594c2.007813-1.085938 4.511719-.402344 5.6875 1.550781 1.175781 1.957031.605469 4.492187-1.292969 5.753906l-153.308593 95.574219 159.640625-92.160156c2.007812-1.074219 4.503906-.382813 5.671875 1.570312s.597656 4.480469-1.292969 5.742188l-141.210938 87.40625 146.773438-84.753906c2.007812-1.070313 4.503906-.378907 5.671875 1.574218s.597656 4.476563-1.292969 5.738282l-148.695312 92 148.394531-85.675782c2.03125-1.199218 4.648437-.527344 5.847656 1.503906 1.199219 2.027344.527344 4.644532-1.503906 5.84375l-61.6875 37.4375 57.328125-33.09375c2.015625-1.136718 4.566406-.457031 5.753906 1.527344s.578125 4.554688-1.378906 5.792969l-161.328125 100.054687 156.96875-90.632812c2.015625-1.136719 4.570313-.457031 5.757813 1.527344 1.1875 1.988281.574218 4.554687-1.378907 5.792968l-159.003906 98.542969 154.625-89.28125c2.011719-1.078125 4.515625-.378906 5.679687 1.582031 1.164063 1.964844.582032 4.496094-1.328124 5.746094l-91.65625 55.929688 87.304687-50.398438c2.007813-1.074218 4.503906-.382812 5.671875 1.570313s.597656 4.480469-1.292969 5.742187l-167.058593 103.765625 162.679687-93.917969c2.015625-1.117187 4.554687-.429687 5.730469 1.550782 1.179687 1.980468.574218 4.539062-1.371094 5.777344l-121.308594 74.453124 116.90625-67.515624c2.011719-1.105469 4.539063-.425782 5.71875 1.542968 1.179688 1.96875.59375 4.519532-1.332031 5.769532l-182.007813 113.648437 177.664063-102.570313c2.015625-1.113281 4.554687-.425781 5.730469 1.550782 1.179687 1.980468.574218 4.539062-1.371094 5.78125l-119.398438 73.257812 115.039063-66.414062c2.015625-1.0625 4.507813-.359375 5.664063 1.601562 1.15625 1.960938.574218 4.484375-1.328126 5.734375l-4.472656 2.699219.136719-.070312c2.003906-1.054688 4.484375-.363282 5.648437 1.578124 1.167969 1.941407.613282 4.457032-1.261718 5.726563l-177.109375 110.746094 172.722656-99.730469c2.011719-1.042969 4.484375-.335938 5.640625 1.609375 1.15625 1.949219.585938 4.460937-1.296875 5.722656l-61.796875 37.640625 57.453125-33.171875c2.007813-1.085937 4.511719-.402343 5.6875 1.554688 1.175781 1.953125.609375 4.488281-1.292969 5.75l-151.535156 94.925781 147.140625-84.921875c2.023437-1.207031 4.644531-.542969 5.851563 1.480469 1.207031 2.023437.542968 4.640625-1.480469 5.847656l-85.839844 53.011719 81.46875-47.039063c2.003906-1.070312 4.492187-.382812 5.664063 1.558594 1.171874 1.945312.621093 4.464844-1.261719 5.738281l-114.414063 72.074219 110.019532-63.515625c2.011718-1.125 4.550781-.453125 5.742187 1.519531 1.1875 1.972656.597656 4.535156-1.335937 5.785156l-91.085938 57.40625 86.679688-50.042968c1.996093-1.054688 4.464843-.375 5.640624 1.550781 1.175782 1.925781.648438 4.429687-1.203124 5.722656l-101.398438 65.414063 96.960938-55.976563c2-1.117187 4.523437-.457031 5.722656 1.496094 1.195312 1.953125.636718 4.5-1.265625 5.773437l-81.785157 53.027344 77.328126-44.640625c1.992187-1.152343 4.542968-.519531 5.761718 1.433594s.667969 4.523437-1.246094 5.804687l-85.238281 57.265626 80.722657-46.597657c1.972656-1.070312 4.433593-.429687 5.636718 1.460938 1.199219 1.890625.734375 4.390625-1.070312 5.722656l-73.863282 51.386719 69.316407-40.019532c1.988281-1.117187 4.503906-.46875 5.707031 1.464844 1.207031 1.9375.675781 4.476563-1.203125 5.769532l-29.867187 20.0625 25.394531-14.660157c1.953125-1.117187 4.4375-.527343 5.679687 1.347657 1.242188 1.875.816406 4.390624-.976562 5.753906l-48.265625 36.4375 43.523437-25.140625c1.925782-1.078125 4.359375-.503907 5.601563 1.320312 1.246093 1.828125.890625 4.300781-.816407 5.703125l-30.386718 24.226563 25.601562-14.765625c1.882813-1.109375 4.296875-.617188 5.597656 1.140625 1.296876 1.757812 1.058594 4.214843-.554687 5.6875l-19.097656 17.878906 12.796875-7.367187c1.324218-.839844 3-.886719 4.371094-.125 1.367187.765624 2.207031 2.21875 2.1875 3.785156-.023438 1.566406-.902344 2.996094-2.289063 3.722656l-44.9375 25.882812c-1.882813 1.125-4.316406.640626-5.621094-1.125-1.304687-1.765624-1.058593-4.230468.570313-5.703124l19.097656-17.878907-42.777344 24.707031c-1.929687 1.074219-4.363281.5-5.605468-1.324218-1.246094-1.824219-.890626-4.296875.816406-5.699219l30.363281-24.21875-54.09375 31.242187c-1.953125 1.144532-4.460937.5625-5.714844-1.324218-1.25-1.886719-.8125-4.421875 1.003907-5.777344l48.230468-36.417969-75.460937 43.519531c-1.980469 1.070313-4.457031.414063-5.648438-1.496093-1.195312-1.914063-.691406-4.425781 1.144531-5.734375l29.867188-20-47.183594 27.230468c-1.96875 1.066407-4.429687.425782-5.632812-1.464843s-.734375-4.390625 1.070312-5.722657l73.890625-51.394531-101.488281 58.582031c-1.984375 1.097657-4.484375.453126-5.6875-1.472656-1.203125-1.925781-.6875-4.453125 1.171875-5.757812l85.179687-57.230469-111.648437 64.460937c-2 1.117188-4.523437.457032-5.71875-1.496093-1.199219-1.953125-.640625-4.5 1.261719-5.777344l81.855468-53.066406-104.542968 60.339843c-1.996094 1.082032-4.492188.414063-5.675782-1.523437-1.183593-1.9375-.644531-4.464844 1.230469-5.75l101.339844-65.339844-125.78125 72.613281c-2.003906 1.101563-4.523437.425782-5.707031-1.53125-1.183594-1.960937-.613282-4.503906 1.296875-5.765624l91.160156-57.457032-112.203125 64.753906c-2.007812 1.101563-4.523438.425782-5.707031-1.53125-1.183594-1.960937-.613281-4.503906 1.292969-5.765624l114.347656-72.039063-137.386719 79.359375c-.652344.382812-1.394531.582031-2.148437.582031zm0 0" fill="#cad0d7"/><path d="m341.785156 111.984375c-1.683594 0-3.207031-.988281-3.894531-2.523437-.6875-1.535157-.410156-3.328126.710937-4.582032l10.523438-11.769531-31.234375 18.023437c-1.847656 1.015626-4.164063.527344-5.445313-1.152343-1.28125-1.675781-1.140624-4.039063.328126-5.554688l19.847656-19.882812-28.824219 16.597656c-1.871094 1.0625-4.238281.570313-5.53125-1.148437-1.289063-1.722657-1.09375-4.132813.453125-5.628907l20.121094-19.25-16.820313 9.710938c-1.847656 1.050781-4.191406.582031-5.488281-1.101563-1.300781-1.683594-1.160156-4.066406.324219-5.589844l14.988281-15.164062-9.824219 5.667969c-1.867187 1.125-4.285156.660156-5.601562-1.082031-1.316407-1.738282-1.109375-4.191407.480469-5.6875l4.738281-4.5625c-1.773438.804687-3.867188.3125-5.089844-1.207032-1.222656-1.515625-1.265625-3.667968-.097656-5.226562l7.679687-10.242188-2.152344 1.238282c-1.546874.898437-3.492187.734374-4.867187-.410157s-1.890625-3.023437-1.292969-4.710937l4.667969-13.34375c-1.046875.140625-2.113281-.101563-2.996094-.683594-1.351562-.910156-2.066406-2.507812-1.84375-4.121094l.972657-7.175781c-.164063-.199219-.3125-.414063-.433594-.640625-1.171875-2.042969-.46875-4.644531 1.570312-5.820312l1.5625-.90625c1.40625-.808594 3.15625-.75 4.503906.15625 1.351563.90625 2.070313 2.5 1.851563 4.113281l-.382813 2.804687.699219-.398437c1.546875-.90625 3.496094-.746094 4.875.398437 1.382813 1.144532 1.898438 3.03125 1.292969 4.71875l-4.496094 12.964844 10.386719-5.976562c1.753906-1.011719 3.980469-.648438 5.324219.867187s1.4375 3.769531.222656 5.390625l-7.679688 10.238281 11.816407-6.828125c1.871093-1.125 4.289062-.65625 5.605469 1.082032 1.316406 1.742187 1.105468 4.195312-.484376 5.6875l-4.667968 4.496093 6.828125-3.96875c1.84375-.992187 4.132812-.496093 5.40625 1.164063 1.273437 1.664062 1.152343 4.003906-.289063 5.527344l-14.898437 15.105468 20.085937-11.589844c1.875-1.144531 4.308594-.683593 5.632813 1.066407s1.101562 4.222656-.511719 5.707031l-20.214844 19.253906 26.042969-15.003906c1.851563-1.015625 4.167969-.527344 5.445313 1.152344 1.28125 1.675781 1.144531 4.039062-.324219 5.554687l-19.839844 19.875 26.171875-15.101562c1.8125-1.039063 4.109375-.609375 5.425781 1.007812 1.320313 1.617188 1.273438 3.953125-.109375 5.519531l-10.480468 11.773438 14.910156-8.617188c1.53125-.867187 3.4375-.71875 4.820312.375 1.375 1.113282 1.921875 2.960938 1.375 4.644532l-3.671875 11.238281 8.703125-5.027344c1.363282-.800781 3.0625-.769531 4.394532.078125 1.347656.835938 2.113281 2.351563 2 3.933594l-.199219 2.558594.222656-.121094c1.324219-.839844 3-.886719 4.367187-.125 1.371094.765625 2.210938 2.21875 2.1875 3.785156-.019531 1.566406-.898437 2.996094-2.289062 3.722656l-7.199219 4.15625c-1.367187.789063-3.0625.761719-4.402343-.078124-1.339844-.839844-2.105469-2.347657-1.988282-3.925782l.1875-2.558594-11.367187 6.5625c-1.53125.882813-3.445313.726563-4.816407-.382812-1.375-1.113281-1.917968-2.957031-1.371093-4.636719l3.667969-11.226562-28.160157 16.210937c-.644531.390625-1.386719.601563-2.140625.605469zm0 0" fill="#a9b0bb"/><path d="m201.078125 273.5625c-1.792969-.003906-3.394531-1.136719-4-2.828125-.605469-1.6875-.085937-3.578125 1.296875-4.722656l9.035156-7.449219-20.878906 12.058594c-1.9375 1.132812-4.421875.570312-5.683594-1.285156-1.261718-1.855469-.871094-4.371094.894532-5.757813l12.5625-9.980469-21.179688 12.234375c-1.878906 1.019531-4.222656.496094-5.480469-1.230469-1.261719-1.722656-1.054687-4.117187.488281-5.59375l29.011719-26.234374-40.464843 23.355468c-1.914063 1.085938-4.34375.53125-5.601563-1.273437-1.257813-1.808594-.933594-4.273438.746094-5.695313l25.882812-21.445312-31.820312 18.320312c-1.914063 1.09375-4.34375.550782-5.609375-1.253906-1.265625-1.800781-.949219-4.273438.726562-5.699219l28.066406-23.707031-32.382812 18.6875c-1.910156 1.085938-4.328125.546875-5.59375-1.246094-1.265625-1.792968-.964844-4.253906.695312-5.691406l35.574219-30.316406-38.398437 22.132812c-1.976563 1.140625-4.496094.523438-5.722656-1.394531-1.230469-1.917969-.734376-4.464844 1.121093-5.78125l3.253907-2.296875-1.707032.972656c-1.976562 1.140625-4.496094.527344-5.722656-1.390625-1.230469-1.921875-.738281-4.464843 1.121094-5.785156l5.761718-4.070313-2.867187 1.65625c-1.933594 1.085938-4.378906.511719-5.625-1.324218-1.246094-1.839844-.875-4.324219.855469-5.714844l36.5625-28.777344-32.648438 18.878906c-1.949218 1.109376-4.421875.519532-5.664062-1.347656-1.238282-1.867187-.824219-4.378906.957031-5.746094l29.949219-22.671874-22.929688 13.234374c-1.933594 1.09375-4.386718.519532-5.632812-1.324218s-.867188-4.335938.871094-5.722656l34.691406-27.308594-19.976563 11.539062c-1.933593 1.082032-4.371093.507813-5.617187-1.324218-1.242188-1.832032-.878906-4.308594.835937-5.707032l15.410157-12.230468c-.394532-.332032-.730469-.730469-.988282-1.175782-1.171875-2.039062-.472656-4.640625 1.5625-5.820312l30.675782-17.707032c1.933593-1.082031 4.371093-.507812 5.613281 1.324219 1.246093 1.832031.882812 4.308594-.832031 5.707031l-.648438.511719 21.484375-12.398437c1.9375-1.09375 4.390625-.515625 5.636719 1.328125 1.242187 1.839843.863281 4.332031-.875 5.71875l-34.695313 27.308593 30.25-17.460937c1.949219-1.085937 4.402344-.488281 5.636719 1.371094 1.230469 1.855469.824219 4.351562-.933594 5.722656l-29.925781 22.679687 25.238281-14.566406c1.9375-1.085937 4.378906-.511718 5.625 1.328125 1.246094 1.835938.875 4.320313-.851562 5.714844l-36.585938 28.746094 31.789063-18.347657c1.972656-1.136718 4.492187-.523437 5.722656 1.394532 1.230469 1.917968.734375 4.464844-1.125 5.785156l-5.808594 4.101562 1.226563-.707031c1.976562-1.136719 4.496094-.523437 5.722656 1.394531 1.230469 1.917969.738281 4.464844-1.121094 5.78125l-3.875 2.742188c1.941406-.691406 4.097656.109375 5.125 1.894531 1.027344 1.785157.628906 4.050781-.945312 5.382813l-35.539063 30.308594 33.464844-19.316407c1.910156-1.074219 4.320313-.523437 5.582031 1.265625 1.257813 1.792969.957032 4.246094-.699218 5.679688l-28.058594 23.714844 34.132812-19.738282c1.921875-1.109375 4.371094-.5625 5.636719 1.257813 1.265625 1.820312.925781 4.308593-.78125 5.722656l-25.898437 21.445313 31.402343-18.125c1.878907-1.023438 4.222657-.496094 5.484375 1.230468 1.257813 1.722656 1.050782 4.113282-.492187 5.59375l-29.011719 26.242188 36.335938-20.898438c1.933593-1.125 4.40625-.566406 5.667968 1.285156 1.261719 1.847657.878906 4.355469-.875 5.746094l-12.558594 9.972656 15.742188-9.078124c1.917969-1.070313 4.335938-.507813 5.585938 1.296874 1.253906 1.804688.929687 4.265626-.746094 5.683594l-9.054688 7.449219 11.863282-6.824219c1.808593-1.050781 4.109374-.632812 5.4375.984375 1.324218 1.617188 1.285156 3.957031-.097657 5.523438l-7.765625 8.832031 6.078125-3.496094c2.023438-1.0625 4.527344-.335937 5.671875 1.644532 1.140625 1.980468.523438 4.507812-1.40625 5.734374l-28.5 16.453126c-1.8125 1.050781-4.113281.632812-5.441406-.984376-1.324219-1.617187-1.285156-3.957031.097656-5.527343l7.738282-8.847657-34.132813 19.703126c-.644531.375-1.378906.574218-2.125.570312zm0 0" fill="#b3a4ee"/><path d="m258.542969 241.453125c-1.730469.003906-3.292969-1.039063-3.953125-2.636719-.660156-1.601562-.289063-3.441406.941406-4.660156l5.023438-4.992188-7.34375 4.269532c-1.878907 1.03125-4.234376.511718-5.5-1.21875-1.265626-1.730469-1.054688-4.128906.496093-5.609375l9.210938-8.355469-12.316407 7.109375c-1.800781 1.039063-4.089843.625-5.417968-.980469-1.324219-1.605468-1.300782-3.929687.058594-5.503906l15.292968-17.648438-21.597656 12.46875c-1.59375.917969-3.601562.710938-4.972656-.515624-1.375-1.230469-1.804688-3.199219-1.070313-4.886719l5.746094-13.167969-11.574219 6.683594c-1.941406 1.121094-4.421875.546875-5.671875-1.316406l-6.589843-9.8125c-2.089844.734374-4.390626-.253907-5.300782-2.269532-.914062-2.019531-.128906-4.398437 1.804688-5.480468l2.730468-1.570313c1.941407-1.117187 4.421876-.539063 5.671876 1.324219l6.546874 9.746094 19.34375-11.171876c1.597657-.917968 3.601563-.710937 4.976563.515626 1.371094 1.230468 1.800781 3.199218 1.066406 4.886718l-5.734375 13.160156 32.332032-18.671874c1.804687-1.039063 4.09375-.625 5.417968.980468 1.324219 1.601563 1.300782 3.929688-.058594 5.503906l-15.292968 17.613282 24.875-14.386719c1.878906-1.035156 4.230468-.511719 5.5 1.214844 1.265625 1.730469 1.054687 4.132812-.5 5.613281l-9.179688 8.328125 1.226563-.710937c1.855469-1.027344 4.179687-.542969 5.464843 1.144531 1.285157 1.683593 1.140626 4.058593-.34375 5.574219l-8.3125 8.257812c1.695313.410156 2.96875 1.8125 3.21875 3.539062.246094 1.726563-.582031 3.433594-2.089843 4.304688l-22.042969 12.722656c-.628906.378906-1.347656.589844-2.082031.605469zm0 0" fill="#9ed26a"/><path d="m230.449219 188.957031c-1.738281 0-3.304688-1.058593-3.957031-2.671875-.648438-1.613281-.253907-3.460937.996093-4.667968l21.503907-20.652344-40.839844 23.578125c-1.941406 1.089843-4.390625.5-5.628906-1.347657-1.238282-1.84375-.847657-4.335937.894531-5.714843l14.820312-11.488281-10.085937 5.8125c-1.875 1.019531-4.21875.492187-5.480469-1.230469-1.261719-1.726563-1.050781-4.117188.488281-5.597657l24.015625-21.664062-19.023437 10.980469c-1.902344 1.101562-4.328125.574219-5.605469-1.210938-1.28125-1.789062-.992187-4.253906.664063-5.699219l10.609374-9.25-5.667968 3.265626c-1.78125 1.015624-4.035156.617187-5.359375-.945313-1.328125-1.5625-1.355469-3.851563-.066407-5.445313l12.203126-14.925781-6.777344 3.910157c-1.433594.828124-3.21875.746093-4.578125-.203126-1.355469-.953124-2.039063-2.601562-1.753907-4.234374l2.382813-13.515626c-1.4375-.679687-2.375-2.097656-2.441406-3.683593-.066407-1.582031.75-3.074219 2.125-3.871094l3.558593-2.054687c1.441407-.808594 3.21875-.726563 4.582032.210937 1.351562.96875 2.019531 2.636719 1.707031 4.269531l-1.960937 11.152344 19.070312-11.007812c1.78125-1.023438 4.042969-.632813 5.375.933593 1.332031 1.566407 1.359375 3.863281.058594 5.457031l-12.210938 14.933594 23.511719-13.558594c1.898437-1.105468 4.328125-.585937 5.609375 1.203126 1.28125 1.785156.996094 4.253906-.660156 5.699218l-10.617188 9.226563 15.957032-9.21875c1.878906-1.019531 4.222656-.492188 5.480468 1.230469 1.261719 1.726562 1.054688 4.117187-.488281 5.597656l-24.019531 21.691406 30.164062-17.417969c1.941406-1.105469 4.410156-.527343 5.65625 1.328125 1.246094 1.855469.851563 4.359375-.910156 5.738282l-14.824219 11.476562 16.257813-9.386719c1.867187-1.125 4.285156-.65625 5.601562 1.082031 1.316406 1.742188 1.109375 4.191407-.484375 5.6875l-21.527343 20.675782 23.492187-13.558594c1.867187-1.128906 4.285156-.660156 5.601563 1.078125 1.316406 1.742187 1.109374 4.195313-.480469 5.6875l-7.101563 6.828125 5.691406-3.289062c1.433594-.832032 3.21875-.757813 4.578126.1875 1.363281.945312 2.050781 2.59375 1.773437 4.226562l-2.09375 12.203125c1.667969-.152344 3.269531.667969 4.121094 2.105469 1.175781 2.039062.476562 4.644531-1.558594 5.820312l-6.09375 3.523438c-1.425781.839844-3.210937.765625-4.566406-.1875-1.359375-.941406-2.050781-2.582032-1.773438-4.214844l2.011719-11.722656-28.109375 16.210937c-1.867187 1.125-4.285156.660157-5.601563-1.078125-1.316406-1.742187-1.109374-4.195312.484376-5.6875l7.082031-6.828125-23.644531 13.65625c-.648438.375-1.386719.566407-2.136719.5625zm0 0" fill="#ffd67b"/><path d="m110.035156 453.566406c-1.789062-.003906-3.386718-1.121094-4-2.804687-.613281-1.679688-.113281-3.566407 1.253906-4.722657l7.679688-6.5-9.234375 5.332032c-1.875 1.019531-4.21875.492187-5.480469-1.230469-1.257812-1.726563-1.050781-4.117187.492188-5.597656l20.785156-18.773438-15.804688 9.113281c-1.898437 1.105469-4.328124.585938-5.609374-1.203124-1.28125-1.785157-.996094-4.253907.660156-5.699219l17.160156-15.035157-12.210938 7.039063c-1.878906 1.085937-4.273437.585937-5.5625-1.160156-1.304687-1.757813-1.066406-4.214844.546876-5.691407l3.695312-3.414062c-1.390625.253906-2.8125-.191406-3.816406-1.183594-1.363282-1.375-1.632813-3.492187-.65625-5.164062l3.414062-5.863282c-1.144531-.265624-2.125-.996093-2.707031-2.011718-1.179687-2.039063-.484375-4.648438 1.554687-5.828125l9.640626-5.566407c1.675781-.960937 3.789062-.679687 5.152343.6875 1.363281 1.367188 1.636719 3.480469.667969 5.148438l-2.242188 3.839844 16.964844-9.820313c1.878906-1.09375 4.285156-.59375 5.574219 1.15625 1.292969 1.753907 1.058594 4.195313-.542969 5.671875l-2.890625 2.667969 16.640625-9.605469c1.902344-1.125 4.347656-.609375 5.632813 1.183594 1.289062 1.792969.996093 4.273438-.675781 5.71875l-17.152344 15.035156 13.234375-7.679687c1.878906-1.019531 4.222656-.492188 5.480469 1.230469 1.261718 1.726562 1.054687 4.117187-.488282 5.597656l-20.777344 18.773437 15.835938-9.140625c1.910156-1.089844 4.335938-.546875 5.601562 1.25 1.265626 1.800782.957032 4.265625-.710937 5.695313l-7.730469 6.527343 2.890625-1.707031c1.859375-1.054687 4.214844-.574219 5.507813 1.128907 1.296875 1.699218 1.128906 4.097656-.386719 5.605468l-3.308594 3.261719c1.0625-.09375 2.121094.210937 2.976563.851563 1.367187 1.070312 1.953125 2.859374 1.476562 4.53125l-2.117187 7.449218c1.390625.710938 2.285156 2.125 2.324219 3.6875.042968 1.5625-.773438 3.023438-2.128907 3.804688l-4.265625 2.484375c-1.503906.859375-3.378906.726562-4.742187-.335938-1.367188-1.066406-1.953125-2.851562-1.488281-4.519531l1.359374-4.78125-16.835937 9.867188c-1.859375 1.058593-4.214844.574218-5.507813-1.125-1.296874-1.703126-1.128906-4.101563.386719-5.609376l2.140625-2.105468-15.488281 8.933594c-.652344.394531-1.402344.605468-2.167969.605468zm0 0" fill="#5e9cea"/><path d="m156.382812 453.566406c-1.742187 0-3.308593-1.058594-3.957031-2.671875-.652343-1.613281-.257812-3.460937.996094-4.667969l24.183594-23.3125-20.652344 11.878907c-1.910156 1.101562-4.34375.570312-5.617187-1.230469-1.273438-1.800781-.964844-4.273438.710937-5.707031l15.761719-13.492188-10.863282 6.273438c-1.933593 1.125-4.410156.5625-5.667968-1.285157-1.261719-1.847656-.882813-4.355468.871094-5.746093l6.519531-5.207031-1.707031.992187c-1.933594 1.101563-4.386719.53125-5.640626-1.308594-1.25-1.835937-.878906-4.332031.855469-5.722656l5.640625-4.472656-.855468.476562c-1.933594 1.089844-4.378907.511719-5.621094-1.324219-1.246094-1.835937-.875-4.320312.851562-5.714843l4.265625-3.414063c-1.820312.769532-3.933593.1875-5.101562-1.410156-1.167969-1.59375-1.085938-3.78125.195312-5.289062l15.515625-18.097657-10.121094 5.835938c-1.671874.941406-3.765624.648437-5.117187-.714844-1.351563-1.359375-1.628906-3.457031-.675781-5.121094l3.558594-6.210937c-1.195313-.238282-2.226563-.984375-2.828126-2.042969-1.179687-2.035156-.484374-4.644531 1.554688-5.828125l9.644531-5.5625c1.660157-.953125 3.753907-.679688 5.117188.664062 1.355469 1.359376 1.640625 3.453126.691406 5.121094l-2.492187 4.351563 17.828124-10.289063c1.796876-1.03125 4.074219-.621094 5.398438.972656s1.316406 3.90625-.023438 5.484376l-15.496093 18.203124 29.304687-16.921874c1.933594-1.085938 4.378906-.511719 5.621094 1.324218 1.246094 1.839844.875 4.324219-.851562 5.714844l-4.265626 3.371094c1.96875-.847656 4.261719-.101563 5.359376 1.742187 1.09375 1.84375.648437 4.214844-1.042969 5.539063l-5.667969 4.496094.90625-.519532c1.933594-1.125 4.410156-.566406 5.667969 1.285156 1.261719 1.847657.878906 4.355469-.871094 5.746094l-6.539063 5.210938 1.769532-1.011719c1.90625-1.101563 4.335937-.566406 5.609375 1.226563 1.273437 1.796874.972656 4.265624-.695313 5.699218l-15.726562 13.46875 10.828125-6.25c1.867187-1.125 4.285156-.65625 5.601562 1.082032 1.316407 1.742187 1.109375 4.195312-.480469 5.6875l-24.203124 23.296874 19.132812-11.042968c1.753906-1.027344 3.988281-.671875 5.339844.84375 1.347656 1.519531 1.445312 3.777344.222656 5.402344l-8.761719 11.777343 3.234375-1.871093c1.320313-.839844 3-.886719 4.367188-.125 1.367187.765624 2.207031 2.214843 2.1875 3.785156-.023438 1.566406-.902344 2.996094-2.289063 3.722656l-21.113281 12.183594c-1.75 1.007812-3.96875.648437-5.308594-.859375-1.34375-1.511719-1.445312-3.753907-.246094-5.378907l8.757813-11.765624-31.4375 18.148437c-.648437.382813-1.382813.582031-2.132813.582031zm0 0" fill="#ffd67b"/><path d="m279.570312 453.457031c-1.695312 0-3.230468-1-3.910156-2.550781-.683594-1.546875-.382812-3.355469.761719-4.601562l9.820313-10.710938-26.890626 15.515625c-1.882812 1.144531-4.328124.667969-5.644531-1.105469-1.3125-1.773437-1.058593-4.253906.585938-5.722656l24.429687-23.109375-19.371094 11.179687c-1.882812 1.109376-4.296874.617188-5.597656-1.140624-1.296875-1.757813-1.058594-4.210938.554688-5.683594l23.410156-21.839844-18.367188 10.625c-1.882812 1.144531-4.328124.667969-5.644531-1.105469-1.3125-1.769531-1.058593-4.25.585938-5.722656l24.175781-22.867187-19.117188 11.03125c-1.824218 1.050781-4.140624.609374-5.453124-1.035157-1.316407-1.644531-1.234376-4 .191406-5.550781l14.453125-15.710938-9.191407 5.300782c-1.464843.84375-3.289062.746094-4.652343-.253906s-2.007813-2.710938-1.644531-4.363282l2.644531-11.945312c-.917969-.34375-1.6875-1-2.175781-1.851563-1.175782-2.042969-.476563-4.652343 1.5625-5.828125l4.265624-2.457031c1.472657-.832031 3.289063-.734375 4.660157.253906 1.367187 1 2.015625 2.714844 1.648437 4.371094l-2.175781 9.828125 25.054687-14.386719c1.820313-1.035156 4.125-.59375 5.4375 1.042969 1.308594 1.636719 1.234376 3.984375-.175781 5.535156l-14.453125 15.683594 26.136719-15.085938c1.882813-1.144531 4.332031-.667968 5.644531 1.105469 1.3125 1.773438 1.058594 4.253907-.585937 5.722657l-24.179688 22.9375 19.472657-11.339844c1.878906-1.09375 4.285156-.597656 5.574218 1.15625 1.292969 1.75 1.058594 4.195312-.542968 5.667968l-23.386719 21.847657 18.398437-10.617188c1.882813-1.164062 4.347656-.695312 5.667969 1.085938 1.320313 1.777343 1.058594 4.273437-.601563 5.742187l-24.429687 23.074219 19.421875-11.214844c1.824219-1.058593 4.148438-.625 5.46875 1.019531 1.320312 1.644532 1.242188 4.007813-.1875 5.558594l-9.804688 10.710938 4.566407-2.636719c1.492187-.867187 3.359375-.746094 4.730469.300781 1.371093 1.046875 1.976562 2.820313 1.53125 4.488282l-2.371094 8.832031c1.460937.652343 2.433594 2.070312 2.515625 3.671875.082031 1.597656-.738281 3.109375-2.125 3.914062l-4.382813 2.558594c-1.492187.855469-3.351562.734375-4.71875-.308594-1.367187-1.042968-1.972656-2.804687-1.539062-4.46875l1.707031-6.4375-19.617187 11.316406c-.648438.378907-1.390626.578126-2.140626.574219zm0 0" fill="#9ed26a"/><path d="m210.109375 453.566406c-1.730469 0-3.289063-1.042968-3.945313-2.644531-.660156-1.597656-.289062-3.433594.941407-4.652344l23.132812-22.851562-22.085937 12.730469c-1.9375 1.101562-4.398438.523437-5.644532-1.324219-1.246093-1.851563-.855468-4.347657.890626-5.730469l3.585937-2.792969c-1.898437.445313-3.855469-.453125-4.757813-2.179687-.902343-1.726563-.515624-3.847656.933594-5.148438l20.855469-18.824218-15.871094 9.15625c-1.894531 1.0625-4.285156.535156-5.554687-1.230469-1.265625-1.765625-1.007813-4.199219.605468-5.65625l18.664063-16.445313-13.714844 7.910156c-1.941406 1.109376-4.410156.53125-5.65625-1.324218-1.246093-1.859375-.847656-4.363282.910157-5.738282l3.097656-2.398437c-1.550782.191406-3.078125-.496094-3.964844-1.785156-1.269531-1.800781-.957031-4.269531.714844-5.699219l15.191406-12.972656-10.292969 5.972656c-1.894531 1.066406-4.285156.535156-5.554687-1.226562-1.265625-1.765626-1.007813-4.203126.605468-5.65625l18.390626-16.15625-13.441407 7.75c-1.84375 1.050781-4.179687.585937-5.484375-1.089844-1.300781-1.679688-1.171875-4.058594.304688-5.582032l15.316406-15.625-10.136719 5.851563c-1.621093.933594-3.660156.703125-5.03125-.570313-1.371093-1.273437-1.753906-3.289062-.941406-4.976562l4.71875-9.777344c-1.964844.078125-3.734375-1.195312-4.277344-3.085937-.542969-1.894531.28125-3.910157 1.988281-4.886719l9.628907-5.546875c1.621093-.933594 3.664062-.703125 5.039062.574219 1.371094 1.273437 1.75 3.296875.933594 4.984375l-4.328125 8.941406 25.183594-14.507813c1.84375-1.050781 4.179687-.585937 5.484375 1.089844 1.300781 1.679688 1.171875 4.058594-.304688 5.585938l-15.359375 15.613281 23.652344-13.652344c1.898438-1.082031 4.308594-.558593 5.582031 1.21875 1.273438 1.773438 1 4.226563-.632812 5.675781l-18.378907 16.214844 13.464844-7.785156c1.910156-1.105469 4.351563-.570312 5.625 1.234375 1.273438 1.804687.957032 4.285156-.726562 5.714844l-15.179688 12.933593 10.304688-5.972656c1.945312-1.105468 4.414062-.527344 5.660156 1.328125s.847656 4.359375-.914062 5.738281l-3.089844 2.390626c1.53125-.167969 3.039062.476562 3.96875 1.707031 1.28125 1.78125 1 4.242187-.648438 5.691406l-18.644531 16.425781 13.722656-7.917968c1.875-1.019532 4.21875-.496094 5.480469 1.230468 1.261719 1.722656 1.050781 4.113282-.488281 5.59375l-20.839844 18.773438 15.871094-9.164063c1.941406-1.125 4.421875-.554687 5.675781 1.304688s.855469 4.375-.914062 5.753906l-3.574219 2.789063c1.859375-.433594 3.78125.417968 4.707031 2.089843.921875 1.667969.625 3.75-.730469 5.09375l-23.09375 22.929688 18.042969-10.402344c1.859375-1.070313 4.226562-.59375 5.527344 1.117187 1.300781 1.710938 1.125 4.121094-.410156 5.625l-3.992188 3.925782c1.507812-.371094 3.09375.109375 4.148438 1.246094 1.050781 1.136718 1.40625 2.757812.921874 4.230468l-2.433593 7.398438c1.527343.605468 2.574219 2.03125 2.6875 3.671875.117187 1.640625-.71875 3.199219-2.148438 4.011719l-5.199219 2.992187c-1.53125.886719-3.449218.734375-4.824218-.382813-1.371094-1.113281-1.914063-2.960937-1.363282-4.640624l1.707032-5.0625-17.679688 10.242187c-1.859375 1.054687-4.214844.574219-5.507812-1.125-1.292969-1.703125-1.128906-4.101563.386718-5.609375l3.535157-3.464844-17.851563 10.300782c-.667968.363281-1.417968.542968-2.175781.511718zm0 0" fill="#b3a4ee"/><g fill="#262626"><path d="m3.320312 428.972656c0 41.300782 1.40625 73.300782 51.199219 74.242188 71.679688 1.363281 143.453125 0 215.117188 0 31.886719 0 107.816406 14.589844 131.480469-17.070313 11.605468-15.503906 7.125-43.015625 7.125-60.96875v-318.300781c.007812-.066406.007812-.132812 0-.199219v-.363281c0-.179688-.1875-.292969-.316407-.429688-.125-.136718 0-.167968-.101562-.246093l-64.734375-64.707031c-10.121094-10.617188-22.125-27.019532-34.925782-34.945313l-2.773437-2.746094c-1.558594-1.066406-3.511719-1.378906-5.324219-.855469-18.320312-5.625-49.75.46875-68.046875.46875h-123.132812c-37.539063-.007812-98.800781-12.203124-105.566407 39.40625-6.828124 51.960938 0 109.363282 0 161.683594zm302.488282-380.398437v-28.730469l84.90625 84.898438h-28.867188c-14.898437 0-50.074218 6.824218-55.605468-12.800782-3.597657-12.800781-.433594-30.25-.433594-43.367187zm-290.132813-9.632813c8.371094-35.933594 35.976563-30.652344 63.796875-30.652344h119.207032c27.871093 0 63.898437-6.136718 91.136718 0 1.273438.355469 2.507813.84375 3.679688 1.457032v48.105468c0 13.652344-5.121094 39.96875 7.796875 49.398438 10.992187 8.027344 33.28125 3.941406 45.722656 3.941406h48.878906v327.867188c0 23.269531 4.105469 50.613281-26.511719 58.71875-15.667968 4.148437-38.265624 0-54.375 0h-206.457031c-19.886719 1.382812-39.84375 1.382812-59.730469 0-28.289062-4.121094-32.675781-23.894532-33.171874-46.59375-1.226563-56.617188 0-113.398438 0-170.023438v-198.742187c.027343-13.066407-2.96875-30.59375.027343-43.476563zm0 0"/><path d="m199.492188 106.515625v48.382813c-.546876 7.359374-.546876 14.75 0 22.109374v8.03125c-.300782.722657-.105469 1.558594.484374 2.074219.207032.300781.460938.570313.753907.792969l11.492187 11.496094c11.828125 12.601562 24.347656 24.660156 36.761719 36.75l10.171875 10.183594c-67.164062 58.324218-152.214844-17.589844-128.238281-89.523438 11.644531-21.214844 27.71875-39.675781 47.128906-54.128906-48.886719 17.621094-81.636719 69.5625-54.167969 122.878906 28.78125 55.84375 99.046875 58.777344 143.691406 22.691406 1.3125-.378906 2.515626-1.050781 3.523438-1.972656 16.105469-16.480469 25.433594-38.40625 26.140625-61.4375 0-.1875.144531-.34375.136719-.539062-.886719-49.683594-41.402344-89.507813-91.09375-89.53125-2.050782.121093-3.984375 1-5.429688 2.457031-2.507812.316406-4.980468.734375-7.441406 1.222656 3.292969 1.445313 5.597656 4.5 6.085938 8.0625zm67.148437 130.917969-48.007813-48.007813h65.988282c-.964844 17.460938-7.238282 34.210938-17.980469 48.007813zm17.808594-57.328125h-72.414063v-75.492188c39.128906 4.523438 69.523438 36.210938 72.414063 75.492188zm0 0"/><path d="m178.046875 102.71875c5.007813-1.804688 10.140625-3.230469 15.359375-4.265625-5.496094-.878906-11.101562.679687-15.359375 4.265625zm0 0"/><path d="m263.183594 351.566406c0-8.703125 3.023437-23.566406-.042969-31.90625-5.410156-14.769531-21.332031-10.894531-34.558594-10.894531-12.089843 0-23.707031-.984375-28.65625 12.125-1.6875 7.121094-1.960937 14.503906-.808593 21.734375-19.847657-1.390625-49.023438-4.6875-50.765626 17.78125-.417968 5.410156-.554687 10.882812-.707031 16.351562h-25.21875c-9.957031 0-22.003906-.308593-24.976562 11.699219-1.242188 10.011719-1.351563 20.136719-.332031 30.171875v27.402344h-16.886719c-4.371094 0-13.226563 6.570312-4.933594 6.570312h23.296875c1.261719.726563 2.703125 1.074219 4.15625 1.007813h49.492188c.496093.042969.996093.042969 1.492187 0h.222656c.578125-.035156 1.148438-.125 1.707031-.265625.265626-.03125.527344-.082031.785157-.152344h46.132812c.304688.078125.621094.125.9375.144532h50.976563c1.183594.113281 2.375.019531 3.527344-.273438h47.511718c1.457032.136719 2.925782-.023438 4.320313-.460938h21.46875c4.367187 0 13.226562-6.570312 4.929687-6.570312h-21.851562c.101562-26.136719 1.707031-52.820312 0-78.839844-1.554688-22.449218-32.828125-16.546875-51.21875-15.625zm-51.199219-28.363281c2.894531-8.054687 1.953125-6.417969 12.058594-6.417969 6.972656 0 18.917969-2.398437 23.894531 2.714844 6.644531 6.757812 2.773438 26.648438 2.773438 35.601562v90.066407c-12.460938-.238281-25.0625-.765625-37.386719.113281-.46875.035156-.933594.125-1.382813.261719v-1.253907c0-5.886718 0-11.785156 0-17.679687v-80.375c0-1.136719-.667968-2.171875-1.707031-2.636719-.667969-6.847656-.074219-13.761718 1.75-20.394531zm-47.257813 27.570313c8.125-3.542969 24.074219-.851563 34.816407-.152344v94.804687h-38.734375v-64.929687c0-.050782 0-.078125 0-.128906v-8.535157c-.03125-7.976562-2.351563-18.320312 3.917968-21.058593zm-55.117187 41.351562c1.085937-9.574219 7.972656-6.765625 16.453125-6.765625h21.332031c-.175781 19.882813.726563 39.953125.855469 59.683594h-38.714844c-1.0625-17.625-1.039062-35.296875.074219-52.917969zm192.351563-13.394531v66.855469h-38.777344v-86.40625h26.0625c13.796875 0 12.714844 8.335937 12.714844 19.515624zm0 0"/><path d="m37.445312 142.851562v8.53125c0 5.25 12.371094 2.6875 12.371094-1.5v-8.535156c0-5.222656-12.371094-2.660156-12.371094 1.503906zm0 0"/><path d="m37.433594 108.675781c0 5.433594 12.390625 2.949219 12.390625-1.417969v-29.867187c-.890625-9.933594-.890625-19.929687 0-29.867187 1.128906-5.792969 2.5625-4.101563 8.824219-4.101563h50.902343c4.921875 0 13.023438-7.441406 4.691407-7.441406h-36.597657c-9.925781 0-25.242187-2.664063-34.046875 3.257812-9.480468 6.375-6.164062 21.710938-6.164062 31.523438zm0 0"/><path d="m143.472656 42.59375h8.53125c3.054688.125 6.023438-1.003906 8.226563-3.125 1.492187-2.304688-1.289063-2.660156-3.089844-2.660156h-8.53125c-3.054687-.128906-6.027344 1-8.226563 3.121094-1.503906 2.328124 1.277344 2.664062 3.089844 2.664062zm0 0"/></g></svg>