<svg height="512" viewBox="0 0 56 60" width="512" xmlns="http://www.w3.org/2000/svg"><g id="016---Coding-Brain" fill="none"><path id="Path" d="m36.535 59.405c-.2152152 0-.4062846-.137715-.4743416-.3418861-.0680571-.2041711.0021694-.4289848.1743416-.5581139l5.005-3.8-7.42 4.286c-.2327769.1270897-.524286.0503218-.6642741-.174934-.139988-.2252559-.0797468-.5206233.1372741-.673066l2.637-1.755-3.483 2.012c-.2330372.1238601-.5222123.0452782-.6605113-.1794907s-.0780959-.5183212.1375113-.6705093l2.527-1.653-3.064 1.768c-.2334461.1352991-.5321345.0609722-.6749447-.1679561-.1428102-.2289282-.0782242-.5298733.1459447-.6800439l9.985-6.7-10.786 6.226c-.2340569.1357068-.5336008.0606207-.6759704-.1694442s-.0759129-.5316408.1499704-.6805558l11.245-7.436-11.691 6.749c-.2347029.1405531-.538787.0663884-.6824238-.1664401-.1436368-.2328284-.0734897-.5378644.1574238-.6845599l11.827-7.789-11.9 6.87c-.2349709.1292146-.5300387.050062-.6687925-.179405-.1387537-.2294671-.0717837-.5275361.1517925-.675595l5.7-3.606-5.353 3.091c-.1549945.0985297-.351531.1041539-.5119064.0146489-.1603754-.0895049-.2587712-.2597296-.2562855-.4433739s.1054527-.3511436.2681919-.436275l26.576-15.348c.2363779-.1427656.5437344-.0668779.6865.1695s.0668779.5437344-.1695.6865l-5.7 3.606 5.39-3.115c.2336556-.130691.5287926-.0541466.6694787.1736308.140686.2277774.0769932.5259521-.1444787.6763692l-11.825 7.795 11.238-6.488c.2336556-.130691.5287926-.0541466.6694787.1736308.140686.2277774.0769932.5259521-.1444787.6763692l-11.242 7.434 9.379-5.417c.2330829-.1306613.5277074-.0549657.6689423.1718661.1412349.2268319.0791592.5246238-.1409423.6761339l-9.984 6.7 5.768-3.329c.2337734-.1287456.5274505-.051198.667188.1761759.1397374.2273739.07627.5244122-.144188.6748241l-2.532 1.657 1.5-.868c.2327769-.1270897.524286-.0503218.6642741.174934.139988.2252559.0797468.5206233-.1372741.673066l-2.63 1.755.731-.421c.2283835-.1299972.5184238-.0610156.6638282.1578813.1454044.2188968.0965443.5129964-.1118282.6731187l-5.532 4.2c.2197738.0135768.4047962.1693287.4556521.3835681.050856.2142394-.044427.4365299-.2346521.5474319l-6.085 3.513c-.0766243.043939-.1636825.0663945-.252.065z" fill="#a286ec"/><path id="Path" d="m28.076 7.188c-.211382-.00057672-.3995631-.13402-.4700329-.33331043s-.0080009-.42136448.1560329-.55468957l1.857-1.5-.906.522c-.2226556.12737455-.5055829.06559282-.6548741-.14300234s-.1165111-.49632815.0758741-.66599766l1.347-1.176c-.0661745-.04303974-.1210461-.10134088-.16-.17-.1380647-.23914015-.0561341-.54492481.183-.683l2.857-1.651c.2230421-.1299097.508313-.0686909.6584139.14129487.150101.20998576.1156933.49971551-.0794139.66870513l-.28.244 1.982-1.144c.2256086-.12712642.5109479-.06095755.657579.15248957.1466312.21344713.106025.50352978-.093579.66851043l-1.861 1.505 3.06-1.769c.1549945-.09852969.351531-.10415386.5119064-.01464894s.2587712.25972968.2562855.44337398c-.0024857.18364429-.1054527.35114353-.2681919.43627496l-8.579 4.956c-.0758413.04429056-.1621742.06742779-.25.067z" fill="#a286ec"/><path id="Path" d="m19.693 59.429c-.2110877.0000797-.3994859-.1324134-.4707948-.3310917s-.010165-.4207362.1527948-.5549083l3.481-2.87-5.444 3.142c-.2352087.125628-.5276152.0445694-.664573-.1842276-.1369579-.228797-.070267-.5248112.151573-.6727724l9.215-5.7-10.148 5.858c-.2356087.1297647-.5316571.04988-.6700067-.1807924-.1383496-.2306723-.0694166-.5294607.1560067-.6762076l10.722-6.644-11.394 6.578c-.2357179.1278172-.530297.0469384-.667702-.1833224-.137405-.2302607-.0687118-.5279174.155702-.6746776l9.279-5.726-9.629 5.559c-.2356087.1297647-.5316571.04988-.6700067-.1807924-.1383496-.2306723-.0694166-.5294607.1560067-.6762076l11.851-7.338-12.1 6.987c-.2363825.1285498-.5321069.0469768-.6691568-.184581-.1370499-.2315579-.0662709-.5300498.1601568-.675419l2.1-1.275-2 1.154c-.2361735.1361818-.537908.0580681-.6783318-.1756081-.1404239-.2336761-.0677709-.5367718.1633318-.6813919l18.105-11.351-19.116 11.037c-.236654.1424894-.5440105.066154-.6865-.1705-.1424894-.236654-.066154-.5440105.1705-.6865l19.821-12.451-21.112 12.189c-.23628449.1306359-.5336041.0500916-.67163931-.181948s-.06692381-.5317553.16063931-.677052l8.28-5.049-8.759 5.057c-.23698876.1350471-.53848394.055235-.67761558-.1793791-.13913163-.2346142-.06455352-.5374465.16761558-.6806209l4.587-2.778-4.756 2.741c-.23508655.127347-.52875831.0472199-.66659082-.1818764-.13783251-.2290964-.071048-.5260868.15159082-.6741236l20.046-12.524-20.384 11.768c-.23560872.1297647-.5316571.04988-.67000668-.1807924-.13834959-.2306723-.06941665-.5294607.15600668-.6762076l17.955-11.128-17.889 10.328c-.2372063.1413849-.54411508.0637063-.68549997-.1735s-.06370631-.5441151.17349997-.6855l15.961-9.843-15.742 9.088c-.23628449.1306359-.5336041.0500916-.67163931-.181948s-.06692381-.5317553.16063931-.677052l13.361-8.205-14.416 8.325c-.23560872.1297647-.5316571.04988-.67000668-.1807924-.13834959-.2306723-.06941665-.5294607.15600668-.6762076l18.606-11.539-19.51 11.264c-.23701856.1320316-.53608427.0509486-.6739531-.1827228-.13786884-.2336714-.06422739-.5346559.1659531-.6782772l.978-.59-1.087.627c-.23617349.1361818-.537908.0580681-.67833183-.1756081-.14042384-.2336761-.06777083-.5367718.16333183-.6813919l19.666-12.244-19.963 11.523c-.23508655.127347-.52875831.0472199-.66659082-.1818764-.13783251-.2290964-.071048-.5260868.15159082-.6741236l19.733-12.351-19.617 11.322c-.23620749.133071-.53543293.0536509-.67455994-.1790411-.13912702-.2326919-.06746126-.5338687.16155994-.6789589l16.326-10.084-15.651 9.035c-.23571786.1278172-.53029699.0469384-.66770199-.1833224-.13740501-.2302607-.06871185-.5279174.15570199-.6746776l13.956-8.584-12.6 7.276c-.23497088.1292146-.53003872.050062-.66879247-.179405-.13875376-.2294671-.07178369-.5275361.15179247-.675595l20.715-13.032-19.182 11.075c-.23560872.1297647-.5316571.04988-.67000668-.1807924-.13834959-.2306723-.06941665-.5294607.15600668-.6762076l16-9.981-16.202 9.355c-.23571786.1278172-.53029699.0469384-.66770199-.1833224-.13740501-.2302607-.06871185-.5279174.15570199-.6746776l9.774-6.014-9.549 5.513c-.23543794.13455-.53521485.0569022-.67572813-.1750261s-.0705395-.5335888.15772813-.6799739l17.581-11.17-16.928 9.773c-.23571786.1278172-.53029699.0469384-.66770199-.1833224-.13740501-.2302607-.06871185-.5279174.15570199-.6746776l4.568-2.8-3.44 1.985c-.23473446.1238045-.5252986.0426548-.6619149-.1848618-.13661629-.2275167-.07168534-.5221296.1479149-.6711382l10.5-6.55-8.644 4.987c-.23389628.1269547-.52624912.04845-.66508708-.1785941-.13883795-.227044-.07550148-.5230536.14408708-.6734059l7.071-4.568-6.711 3.872c-.23290614.1254293-.52320856.0477402-.66233729-.1772508s-.0789338-.5194187.13733729-.6717492l9.69-6.4-8.768 5.068c-.2187434.1297091-.50000209.0745628-.6535686-.128145s-.13051364-.4883932.0535686-.663855l2.58-2.494c-.23148619.0959744-.49826414.0057659-.624-.211-.13806467-.2391402-.05613408-.5449248.183-.683l3.452-1.993c.2187434-.1297091.5000021-.0745628.6535686.128145s.1305136.4883932-.0535686.663855l-2.569 2.481 19.745-11.4c.233204-.12874209.5263939-.05204834.6666872.17439464s.0784231.52311505-.1406872.67460536l-9.679 6.389 9.47-5.467c.2347713-.13363828.5332399-.05663158.6740509.17390914.1408109.23054072.0730402.5312411-.1530509.67909086l-7.091 4.576 16.689-9.63c.2356087-.12976469.5316571-.04987998.6700067.18079237.1383496.23067236.0694166.52946069-.1560067.67620763l-10.477 6.537 10.874-6.28c.2362845-.13063592.5336041-.05009165.6716393.18194798.1380352.23203962.0669238.53175531-.1606393.67705202l-4.573 2.8 4.594-2.643c.152731-.09271042.3433208-.09689734.4999759-.01098359s.2555759.24887583.2595.4275c.003924.17862417-.0877449.34577317-.2404759.43848359l-17.588 11.171 20.144-11.626c.2372063-.1413849.5441151-.0637063.6855.1735s.0637063.5441151-.1735.6855l-9.78 6.017 10.626-6.138c.2347345-.12380452.5252986-.04265478.6619149.18486185s.0716853.52212955-.1479149.67113815l-16 9.981 16.612-9.591c.2346058-.12538552.5263122-.0451285.6637604.18262002.1374483.22774852.0725112.52324301-.1477604.67237998l-20.72 13.033 20.895-12.062c.2357179-.12781718.530297-.04693838.667702.18332235.137405.23026074.0687118.52791741-.155702.67467765l-13.946 8.578 13.489-7.788c.2372063-.1413849.5441151-.0637063.6855.1735s.0637063.5441151-.1735.6855l-16.315 10.083 14.936-8.625c.2350866-.127347.5287583-.0472199.6665908.1818764.1378325.2290964.071048.5260868-.1515908.6741236l-19.732 12.35 21.6-12.469c.2369302-.1422133.5442867-.0654301.6865.1715.1422133.2369302.0654301.5442867-.1715.6865l-19.668 12.245 20.827-12.025c.2370186-.1320316.5360843-.0509486.6739531.1827228s.0642274.5346559-.1659531.6782772l-.983.593 1.284-.741c.2362075-.133071.5354329-.0536509.6745599.1790411.1391271.2326919.0674613.5338687-.1615599.6789589l-18.612 11.539 19.088-11.02c.2357179-.1278172.530297-.0469384.667702.1833224.137405.2302607.0687118.5279174-.155702.6746776l-13.35 8.2 13.413-7.745c.2362075-.133071.5354329-.0536509.6745599.1790411.1391271.2326919.0674613.5338687-.1615599.6789589l-15.966 9.849 15.835-9.142c.2356087-.1297647.5316571-.04988.6700067.1807924.1383496.2306723.0694166.5294607-.1560067.6762076l-17.959 11.129 17.492-10.1c.2350866-.127347.5287583-.0472199.6665908.1818764.1378325.2290964.071048.5260868-.1515908.6741236l-20.044 12.527 19.985-11.539c.2369888-.1350471.5384839-.055235.6776156.1793791.1391316.2346142.0645535.5374465-.1676156.6806209l-4.577 2.775 4.742-2.737c.2362845-.1306359.5336041-.0500916.6716393.181948s.0669238.5317553-.1606393.677052l-8.271 5.041 8.26-4.768c.2350866-.127347.5287583-.0472199.6665908.1818764.1378325.2290964.071048.5260868-.1515908.6741236l-19.832 12.46 19.719-11.384c.236654-.1424894.5440105-.066154.6865.1705.1424894.236654.066154.5440105-.1705.6865l-18.1 11.345 17.422-10.052c.2369888-.1350471.5384839-.055235.6776156.1793791.1391316.2346142.0645535.5374465-.1676156.6806209l-2.09 1.263.951-.549c.2356087-.1297647.5316571-.04988.6700067.1807924.1383496.2306723.0694166.5294607-.1560067.6762076l-11.849 7.337 11.07-6.391c.2362075-.133071.5354329-.0536509.6745599.1790411.1391271.2326919.0674613.5338687-.1615599.6789589l-9.282 5.728 9.678-5.587c.2352087-.125628.5276152-.0445694.664573.1842276.1369579.228797.070267.5248112-.151573.6727724l-10.716 6.641 10.823-6.249c.2348663-.1223119.5243654-.0402957.6601778.1870309.1358123.2273266.0708339.5211193-.1481778.6699691l-26.356 16.305c.0591535.1933723-.0039939.4033374-.16.532l-3.48 2.869 2.137-1.233c.2254634-.1287726.5119753-.0635416.6594703.1501437.1474949.2136853.1068861.5047094-.0934703.6698563l-1.63 1.325c.0478185.0384041.0878682.0855813.118.139.1380647.2391402.0561341.5449248-.183.683l-3.259 1.884c-.2254634.1287726-.5119753.0635416-.6594703-.1501437-.1474949-.2136853-.1068861-.5047094.0934703-.6698563l.07-.057-1.961 1.132c-.0757806.0445497-.1620945.0680271-.25.068z" fill="#a286ec"/><path id="Path" d="m10.643 12.765c-.2201998.0004933-.4148007-.1431282-.4792351-.3536904-.0644343-.2105621.0164682-.4384907.1992351-.5613096l2.747-1.85-2.652 1.53c-.2312043.1356861-.52827755.0648879-.67343292-.160492-.14515538-.2253799-.0867349-.525133.13243292-.679508l5.244-3.747-4.775 2.757c-.214156.12277399-.48586267.07088539-.63970457-.12216621-.1538419-.19305161-.14377368-.46948526.02370457-.65083379l1.642-1.767c-.1902216.00953367-.3703317-.08608984-.469-.249-.1380647-.23914015-.0561341-.54492481.183-.683l2.551-1.468c.214156-.12277399.4858627-.07088539.6397046.12216621.1538419.19305161.1437736.46948526-.0237046.65083379l-1.526 1.642 10.833-6.251c.2308197-.13317007.5255201-.06191415.67.162.144878.22420138.0880899.52266861-.129.678l-5.252 3.749 6.4-3.7c.2334461-.13529908.5321345-.06097219.6749447.16795606.1428102.22892826.0782242.52987333-.1459447.68004394l-2.741 1.848 3.152-1.82c.23893-.13584515.5427102-.05337078.6801373.18465285.137427.23802363.0569695.54234426-.1801373.68134715l-15.836 9.145c-.0762015.0431902-.1624118.0656049-.25.065z" fill="#a286ec"/><path id="Path" d="m16.521 5.276c-.2087291-.00011927-.3954224-.12988784-.4682725-.32549135-.07285-.19560352-.0165268-.4158805.1412725-.55250865l1.3-1.122c-.0541914-.04099984-.0997329-.09231904-.134-.151-.1380647-.23914015-.0561341-.54492481.183-.683l2.793-1.613c.2231941-.12824745.5072862-.06607757.6565145.14366969s.1148202.49851967-.0795145.66733031l-.083.071 1.749-1.011c.1549945-.09852969.351531-.10415386.5119064-.01464894s.2587712.25972968.2562855.44337398c-.0024857.18364429-.1054527.35114353-.2681919.43627496l-6.308 3.644c-.0758413.04429056-.1621742.06742779-.25.067z" fill="#a286ec"/><g fill="#262626"><path id="Shape" d="m53.671 32.81c-.145-.144-.3-.27-.455-.4l-.017-.017c2.2082803-2.9692605 1.9172485-7.1061612-.685-9.737.1558139-1.1545879.1705891-2.3238435.044-3.482-.2462865-1.1661939-.73933-2.2661653-1.446-3.226-1.2708617-1.6972583-3.1217699-2.8676018-5.2-3.288 1.0258104-1.8366094.912153-4.09785838-.2926495-5.82235027-1.2048024-1.72449189-3.2889529-2.60907162-5.3663505-2.27764973-1.0100748-2.43772795-3.3668297-4.04683621-6.005-4.1-.026 0-.051.01-.077.012-.0362831-.00791825-.0730193-.01359565-.11-.017-2.5509739.00451657-4.8807356 1.44905397-6.019 3.732-1.0823155-2.22802162-3.3177455-3.6655798-5.794-3.726-.024 0-.047.008-.07.009-.0386956-.00693069-.0777616-.01160524-.117-.014-2.693629.05147094-5.1178396 1.64660232-6.231 4.1-.1914533-.04504093-.3859889-.07579227-.582-.092-.021 0-.042.008-.063.009-.0408951-.00795816-.08236-.01263969-.124-.014-1.8426778.01120155-3.5675692.90776114-4.6355288 2.40944321-1.0679597 1.50168206-1.34870023 3.42528649-.7544712 5.16955679-.00669954.0539237.00053039.1086647.021.159.059.131.139.242.206.366.033.065.069.129.1.194-4.51604601 1.082215-7.39021852 5.5155217-6.535 10.08-2.57883186 2.6362921-2.8643336 6.7540405-.674 9.721l-.07.068c-.107.1-.22.183-.324.286-.03592219.0388072-.06379296.0843521-.082.134-1.67061866 1.8395637-2.31619533 4.3899067-1.72200706 6.8027684.59418827 2.4128618 2.35021223 4.3717896 4.68400706 5.2252316v.011.014c.04833438 3.8034026 2.60515522 7.1168337 6.272 8.128.0833543.328054.1858634.650941.307.967.0314972.0664965.089599.1166093.16.138 1.4716454 3.1004474 4.6169096 5.0572475 8.0485305 5.0073267 3.4316208-.0499207 6.5186339-2.0973835 7.8994695-5.2393267 2.9 7.077 13.761 7.21 16.436-.93 3.6698875-1.0626592 6.2282898-4.3805303 6.323-8.2 4.939-2.106 6.566-8.045 3-12.069-.0090197-.0339476-.0261822-.0651833-.05-.091zm-3.018 11.053c-.1315452-1.0742941-.4712107-2.1126516-1-3.057-.192-.345-1.559.191-1.449.388.6268289 1.1249358.9848345 2.3796665 1.046 3.666.0908905 3.0952235-1.7506886 5.9211842-4.619 7.088.0980412-.7100032.109123-1.4293136.033-2.142-.042-.391-1.5-.09-1.448.388.0901725.8470718.0503799 1.7029491-.118 2.538-2.571 8.563-13.709 6.089-14.371-1.907v-2.907c0-.642-1.454-.354-1.454.164v2.947c0 .008-.007.015-.008.023-.2016991 3.5368931-2.9120867 6.4192657-6.4299035 6.8379068-3.5178167.4186411-6.8289638-1.747133-7.8550965-5.1379068-.014-.057-.022-.115-.034-.172v-.012c-.200975-.877342-.2553766-1.781895-.161-2.677.054-.494-1.394-.216-1.441.212-.0596171.5796337-.0633008 1.1636604-.011 1.744-2.85779913-1.231173-4.67497377-4.0815808-4.585-7.192.04210143-1.2722923.38477745-2.5165489 1-3.631.342-.615-1.111-.49-1.355-.052-.48424954.8672863-.8170213 1.810816-.984 2.79-1.96768699-.9993749-3.30368118-2.9182528-3.55809898-5.1104695-.25441781-2.1922166.60659448-4.3660682 2.29309898-5.7895305.01-.009.012-.017.022-.026.05767921-.0412335.10861743-.0911597.151-.148.54599383-.410087 1.15722945-.7251708 1.808-.932.265-.083.692-.314.6-.66s-.59-.354-.849-.273c-.66309989.2068872-1.29897863.4925961-1.894.851-1.85803812-2.6764123-1.49421891-6.3065478.858-8.561.06206758-.0584272.11054321-.1297751.142-.209.82659335-.7309576 1.84050832-1.2171381 2.928-1.404.248-.04.8-.185.817-.515s-.385-.392-.637-.351c-1.15888593.1868358-2.26827487.6051523-3.262 1.23-.51052361-3.8462716 2.04606894-7.4304841 5.849-8.2.5303623.5923131 1.1771628 1.0689029 1.9 1.4.591.269 1.674-.582.84-.962-.6904738-.3226221-1.2898141-.8119917-1.744-1.424-1.982-2.868-.454-6.925 3.2-7.128.2.017.4.047.6.081-.207205.83796339-.2473017 1.70853786-.118 2.562.064.426 1.522.1 1.448-.388-.125078-.83190133-.0767319-1.6806819.142-2.493.0132669-.01655624.0249829-.03429763.035-.053.6715778-2.14393158 2.6236598-3.63014398 4.869-3.707 2.9729368.11091878 5.3448052 2.51873127 5.411 5.493v5c0 .788 1.472.6 1.472-.094v-5c.153-2.838 2.088-5.35 5.114-5.4 2.3304624.06822206 4.3731536 1.57741319 5.123 3.785.2823115.88514795.356235 1.82356611.216 2.742-.1.643 1.373.415 1.458-.15.1200865-.78083938.1011278-1.57676377-.056-2.351 3.749-.267 5.812 4.161 3.751 7.262-.0555023.0785433-.0930555.1683298-.11.263-.4052208.5094532-.9240587.9169893-1.515 1.19-.2.088-.587.316-.389.573.184.239.745.1.957.009.660721-.2933936 1.2653938-.6994414 1.787-1.2 3.1285049.554413 5.5669392 3.0221053 6.084 6.157.0870856.6029286.0820278 1.2155913-.015 1.817-.8269702-.5045805-1.7438628-.8441704-2.7-1-.3658472-.0787456-.7472438.0232082-1.025.274-.18.211-.192.518.153.572 1.3081119.1973201 2.5291981.775345 3.511 1.662.014.019.014.039.033.058 2.3327865 2.1922563 2.7820504 5.7314156 1.071 8.437-.5480932-.3254045-1.1324054-.5855091-1.741-.775-.5-.155-1.7.571-.876.829.7756072.2443262 1.4998948.6286697 2.137 1.134.0050181.006273.0103586.0122811.016.018.0180237.0318569.0398502.0614067.065.088 1.7156551 1.3964183 2.6122697 3.5632676 2.3849337 5.7636709-.2273361 2.2004033-1.5480218 4.1381709-3.5129337 5.1543291z"/><path id="Path" d="m23.68 23.742-1.417-1.416-1.083-1.083c-.1217903-.1379583-.2520417-.2682097-.39-.39.1305626-.1225271.2547272-.2516982.372-.387l1-1 1.5-1.5c.339-.339-1.051-.2-1.322.068l-3 3c-.0350851.0252426-.0573824.0645612-.0610354.1076287s.0117032.0855799.0420354.1163713l3 3c.288.288 1.634-.241 1.359-.516z"/><path id="Path" d="m35.154 21.117-2.741 2.741c-.608.608.805.653 1.174.284l3-3c.107-.107.22-.3.083-.434l-3-3c-.382-.383-1.757.167-1.34.584z"/><path id="Path" d="m27.715 24.873c.6666667-2.6666667 1.3333333-5.3333333 2-8 .077-.308-1.338-.113-1.43.254-.6666667 2.6666667-1.3333333 5.3333333-2 8-.077.308 1.338.113 1.43-.254z"/><path id="Path" d="m17.933 30.52h1c.309 0 .763-.239.8-.578.041-.377-.387-.462-.666-.462h-1c-.309 0-.763.239-.8.578-.041.377.387.462.666.462z"/><path id="Path" d="m22.713 30.391h15c.519 0 1.547-.782.574-.782h-15c-.519 0-1.547.782-.574.782z"/><path id="Path" d="m18.27 33.547c-.3667368-.0338241-.7253626.1219197-.951.413-.153.294.131.493.411.493h1c.3667368.0338241.7253626-.1219197.951-.413.153-.294-.131-.493-.411-.493z"/><path id="Path" d="m22.7 34.352h3c.27 0 .818-.1.962-.371s-.128-.333-.368-.333h-3c-.27 0-.818.1-.962.371s.131.333.368.333z"/><path id="Path" d="m33.073 33.5h-3c-.8 0-1.133 1-.146 1h3c.803 0 1.133-1 .146-1z"/><path id="Path" d="m19.061 37.458h-1c-.319 0-.762.247-.8.594-.037.381.381.49.674.49h1c.319 0 .762-.247.8-.594.037-.381-.381-.49-.674-.49z"/><path id="Path" d="m22.527 38.284h3c.3611157.0097601.7172658-.0857924 1.025-.275.2-.145.228-.293-.079-.293h-3c-.3611157-.0097601-.7172658.0857924-1.025.275-.198.145-.228.293.079.293z"/><path id="Path" d="m30.291 37.625c-.3602694-.0191955-.710942.1199777-.96.381-.177.278.152.369.378.369h2c.3602694.0191955.710942-.1199777.96-.381.177-.278-.152-.369-.378-.369z"/><path id="Path" d="m38.28 37.583h-2c-.3641687-.0264294-.719164.1221042-.956.4-.164.288.14.436.4.436h2c.3641687.0264294.719164-.1221042.956-.4.16-.288-.144-.436-.4-.436z"/><path id="Path" d="m19.281 41.588h-1c-.3639556-.0251321-.7183898.1231667-.956.4-.165.287.141.428.394.428h1c.3639556.0251321.7183898-.1231667.956-.4.165-.287-.141-.428-.394-.428z"/><path id="Path" d="m33.061 41.457h-10c-.836 0-1.105 1.086-.122 1.086h10c.836 0 1.105-1.086.122-1.086z"/></g></g></svg>