<?xml version="1.0"?>
<svg xmlns="http://www.w3.org/2000/svg" id="Icons" viewBox="0 0 60 60" width="512" height="512"><path d="M22.219,59.471a.5.5,0,0,1-.264-.925l9.878-6.127L19.734,59.4a.5.5,0,0,1-.514-.857l14.363-8.952L16.592,59.4a.5.5,0,0,1-.509-.86l3.7-2.247L14.4,59.4a.5.5,0,0,1-.51-.859l9.053-5.52L11.9,59.4a.5.5,0,0,1-.512-.858L28.36,48.1,8.778,59.4a.5.5,0,0,1-.51-.859l14-8.523L6.01,59.4a.5.5,0,0,1-.513-.857l25.16-15.562L2.877,59.022a.5.5,0,0,1-.508-.86l11.11-6.7L1.893,58.152a.5.5,0,0,1-.512-.858L27.239,41.416,1.28,56.4a.5.5,0,0,1-.508-.861l10.7-6.437L1.28,54.987a.5.5,0,0,1-.508-.861L11.6,47.61,1.28,53.567a.5.5,0,0,1-.512-.858L27.979,35.977,1.28,51.391a.5.5,0,0,1-.512-.859L28.875,33.217,1.28,49.148a.5.5,0,0,1-.508-.861L7.05,44.522,1.28,47.854a.5.5,0,0,1-.509-.861l14.694-8.876L1.28,46.307a.5.5,0,0,1-.512-.859L28.626,28.3,1.28,44.083a.5.5,0,0,1-.508-.861l7.5-4.5L1.28,42.757a.5.5,0,0,1-.51-.86L22.846,28.441,1.28,40.892a.5.5,0,0,1-.51-.86L23.509,26.157,1.28,38.991a.5.5,0,0,1-.509-.86l14.81-8.948L1.28,37.439a.5.5,0,0,1-.512-.858L27.077,20.4,1.28,35.3a.5.5,0,0,1-.509-.86l16.367-9.933L1.28,33.661A.5.5,0,0,1,.768,32.8l21.3-13.091-20.79,12a.5.5,0,0,1-.515-.857L24.751,15.878,1.28,29.43a.5.5,0,0,1-.513-.859L16.95,18.587,1.28,27.634a.5.5,0,0,1-.51-.86l6.423-3.912L1.28,26.277a.5.5,0,0,1-.513-.859L11.914,18.54,1.28,24.68a.5.5,0,0,1-.515-.857L13.7,15.739,1.28,22.909a.5.5,0,0,1-.511-.86l2.9-1.777L1.28,21.65a.5.5,0,0,1-.514-.858l5.9-3.661L1.28,20.24a.5.5,0,0,1-.52-.854l11.322-7.265L1.28,18.357A.5.5,0,0,1,.759,17.5l8.979-5.785L1.28,16.6a.5.5,0,0,1-.515-.857l.432-.271a.5.5,0,0,1-.446-.887l8.17-5.455L1.279,13.545A.5.5,0,0,1,.748,12.7l6.69-4.562L1.279,11.692a.5.5,0,0,1-.529-.847L4.1,8.587,1.279,10.212a.5.5,0,0,1-.534-.844L3.227,7.654,1.279,8.779a.5.5,0,0,1-.551-.832L3.933,5.529,1.279,7.061a.5.5,0,0,1-.591-.8l2.791-2.6-2.2,1.27A.5.5,0,0,1,.632,4.2L1.757,2.719a.5.5,0,0,1-.327-.927L3.364.675a.5.5,0,0,1,.647.736L2.938,2.82,6.789.6a.5.5,0,0,1,.59.8L4.589,4,10.475.6a.5.5,0,0,1,.551.832l-3.2,2.418L13.451.6a.5.5,0,0,1,.534.844L11.5,3.156,15.934.6a.5.5,0,0,1,.53.847L13.118,3.7,18.5.6a.5.5,0,0,1,.531.846L12.34,6,21.706.6a.5.5,0,0,1,.528.849L14.064,6.9,24.983.6a.5.5,0,0,1,.516.857l-.236.147L27,.6a.5.5,0,0,1,.521.853L18.542,7.236,30.042.6a.5.5,0,0,1,.52.854L19.246,8.712,33.3.6a.5.5,0,0,1,.513.858L27.908,5.122,35.745.6a.5.5,0,0,1,.512.859L33.368,3.228,37.925.6a.5.5,0,0,1,.514.857L25.507,9.538,40.992.6a.5.5,0,0,1,.513.858L30.356,8.335,43.759.6a.5.5,0,0,1,.51.86L37.852,5.365,46.11.6a.5.5,0,0,1,.513.859l-16.18,9.982L49.22.6a.5.5,0,0,1,.514.858L25.752,16.432,53.18.6a.5.5,0,0,1,.511.859l-21.31,13.1L56.343.716a.5.5,0,0,1,.51.86l-16.38,9.94L57.857,1.479a.5.5,0,0,1,.512.858L32.062,18.514,58.64,3.168a.5.5,0,0,1,.508.861L44.357,12.966,58.72,4.673a.5.5,0,0,1,.51.86L36.481,19.414,58.72,6.574a.5.5,0,0,1,.509.86L37.144,20.9,58.72,8.44a.5.5,0,0,1,.507.862L51.77,13.778l6.95-4.013a.5.5,0,0,1,.511.859L31.373,27.777,58.72,11.989a.5.5,0,0,1,.509.861L44.535,21.726l14.185-8.19a.5.5,0,0,1,.507.861l-6.3,3.777,5.79-3.343a.5.5,0,0,1,.512.859L31.131,33,58.72,17.073a.5.5,0,0,1,.511.859L32.007,34.673,58.72,19.25a.5.5,0,0,1,.508.862l-10.794,6.5L58.72,20.669a.5.5,0,0,1,.508.862L48.513,27.979l10.208-5.894a.5.5,0,0,1,.511.86L33.368,38.826,58.721,24.189a.5.5,0,0,1,.508.861l-11.1,6.694,10.6-6.117a.5.5,0,0,1,.512.858L34.08,42.043,58.721,27.816a.5.5,0,0,1,.509.861l-14,8.527,13.492-7.789a.5.5,0,0,1,.511.858L42.265,40.716l16.456-9.5a.5.5,0,0,1,.51.859L50.166,37.6l8.555-4.939a.5.5,0,0,1,.509.86l-3.71,2.252,3.2-1.847a.5.5,0,0,1,.514.857L44.884,43.729,58.721,35.74a.5.5,0,0,1,.513.858L49.35,42.729l9.371-5.41a.5.5,0,0,1,.51.86l-.8.487.286-.165a.5.5,0,0,1,.519.854L46.75,47.329l11.971-6.911a.5.5,0,0,1,.518.854l-8.634,5.486,8.116-4.685a.5.5,0,0,1,.522.852l-9.482,6.166,8.96-5.173a.5.5,0,0,1,.53.847L49.3,51.5l9.426-5.441a.5.5,0,0,1,.524.85l-4.5,2.956,3.976-2.3a.5.5,0,0,1,.529.847l-4.413,2.979,3.884-2.243a.5.5,0,0,1,.543.838L54.138,53.7l4.583-2.645a.5.5,0,0,1,.536.842l-1.15.8.614-.353a.5.5,0,0,1,.581.807l-3.269,2.884,2.688-1.551a.5.5,0,0,1,.582.807l-.892.793.231-.133a.5.5,0,0,1,.5.865L54.668,59.4a.5.5,0,0,1-.582-.806l.892-.793-2.772,1.6a.5.5,0,0,1-.581-.807l3.269-2.885L48.5,59.4a.5.5,0,0,1-.536-.842l1.15-.8L46.262,59.4a.5.5,0,0,1-.543-.838l5.125-3.711L42.962,59.4a.5.5,0,0,1-.529-.846l4.418-2.982L40.219,59.4a.5.5,0,0,1-.525-.85l4.485-2.946L37.6,59.4a.5.5,0,0,1-.531-.846l9.958-6.735L33.9,59.4a.5.5,0,0,1-.522-.851l9.486-6.168L30.7,59.4a.5.5,0,0,1-.518-.854l8.63-5.485L27.836,59.4a.5.5,0,0,1-.519-.854l12.492-7.975L24.515,59.4A.5.5,0,0,1,24,58.544l.792-.484L22.469,59.4A.5.5,0,0,1,22.219,59.471Z" fill="#4b95ff"/><path d="M17.044,55.471a.5.5,0,0,1-.261-.927l4.1-2.508L15.052,55.4a.5.5,0,0,1-.516-.856L31.342,44.015,11.614,55.4a.5.5,0,0,1-.511-.858l12.254-7.526L8.833,55.4a.5.5,0,0,1-.515-.856L29.662,41.24,5.613,55.124a.5.5,0,0,1-.512-.858L25.389,41.754,5.28,53.363a.5.5,0,0,1-.509-.86L15.244,46.15,5.28,51.9a.5.5,0,0,1-.512-.858L24.936,38.618,5.28,49.966a.5.5,0,0,1-.508-.862l1.622-.974-1.114.642a.5.5,0,0,1-.513-.857L26.886,34.227,5.28,46.7a.5.5,0,0,1-.51-.859l14.458-8.819L5.28,45.075a.5.5,0,0,1-.511-.859l15.393-9.4L5.28,43.406a.5.5,0,0,1-.513-.857L26.487,29.12,5.28,41.363a.5.5,0,0,1-.511-.858L22.481,29.643,5.28,39.574a.5.5,0,0,1-.51-.86L15.9,31.956,5.28,38.084a.5.5,0,0,1-.514-.857l20.07-12.48L5.28,36.037a.5.5,0,0,1-.512-.858L17.8,27.157,5.279,34.384a.5.5,0,0,1-.516-.856L22.285,22.5,5.279,32.313a.5.5,0,0,1-.515-.857L17.477,23.5l-12.2,7.042a.5.5,0,0,1-.518-.855l13.386-8.51L5.279,28.606a.5.5,0,0,1-.522-.852l13.26-8.6L5.279,26.512a.5.5,0,0,1-.515-.857L8.531,23.3,5.279,25.172a.5.5,0,0,1-.529-.848l11.189-7.518L5.279,22.96a.5.5,0,0,1-.53-.846l8.511-5.778L5.279,20.944a.5.5,0,0,1-.535-.843l6.645-4.61-6.11,3.528a.5.5,0,0,1-.53-.848L7.3,16.444,5.279,17.611a.5.5,0,0,1-.555-.829l4.634-3.574L5.279,15.563a.5.5,0,0,1-.55-.833l1.484-1.114-.934.54a.5.5,0,0,1-.6-.792l1.939-1.88-1.341.775a.5.5,0,0,1-.709-.633L5.2,10.173a.5.5,0,0,1-.336-.925L5.992,8.6a.5.5,0,0,1,.708.632l-.61,1.407L9.621,8.6a.5.5,0,0,1,.6.792l-1.94,1.88L12.908,8.6a.5.5,0,0,1,.55.833l-1.482,1.112L15.345,8.6a.5.5,0,0,1,.555.829L11.265,13l7.627-4.4a.5.5,0,0,1,.53.847L16.87,11.172,21.331,8.6a.5.5,0,0,1,.535.843l-6.643,4.608L24.666,8.6a.5.5,0,0,1,.53.846L16.685,15.22,28.158,8.6a.5.5,0,0,1,.529.848L17.5,16.962,31.989,8.6a.5.5,0,0,1,.516.857l-3.774,2.364L34.311,8.6a.5.5,0,0,1,.522.853L21.575,18.043,37.938,8.6a.5.5,0,0,1,.518.855l-13.387,8.51L41.29,8.6a.5.5,0,0,1,.516.857L29.093,17.409,44.357,8.6a.5.5,0,0,1,.517.857L27.344,20.491,47.946,8.6a.5.5,0,0,1,.512.859L35.437,17.472,50.811,8.6a.5.5,0,0,1,.513.858L31.253,21.934,54.164,8.707a.5.5,0,0,1,.51.86L43.549,16.325,54.72,9.876a.5.5,0,0,1,.511.859l-17.7,10.856L54.72,11.665a.5.5,0,0,1,.512.858L33.52,25.947l21.2-12.24a.5.5,0,0,1,.51.86l-15.4,9.408,14.893-8.6a.5.5,0,0,1,.51.86L40.771,25.055,54.72,17a.5.5,0,0,1,.512.859L33.1,31.557,54.721,19.074a.5.5,0,0,1,.508.862l-1.623.975,1.115-.643a.5.5,0,0,1,.512.858L35.064,33.553,54.721,22.2a.5.5,0,0,1,.509.861L44.783,29.4l9.938-5.737a.5.5,0,0,1,.512.859l-20.3,12.519L54.721,25.618a.5.5,0,0,1,.514.858L33.892,39.782,54.721,27.756a.5.5,0,0,1,.511.86L42.983,36.139l11.738-6.777a.5.5,0,0,1,.515.857l-16.8,10.53,16.287-9.4a.5.5,0,0,1,.51.859l-4.112,2.515,3.6-2.079a.5.5,0,0,1,.517.855L41.669,42.073l13.052-7.534a.5.5,0,0,1,.522.852L40.47,44.984l14.251-8.227a.5.5,0,0,1,.518.854l-8.256,5.25L54.721,38.4a.5.5,0,0,1,.515.856l-2.444,1.532,1.929-1.113a.5.5,0,0,1,.531.846L44.609,47.754l10.112-5.837a.5.5,0,0,1,.533.845l-7.831,5.377,7.3-4.213a.5.5,0,0,1,.544.837L48.338,49.8l6.383-3.685a.5.5,0,0,1,.548.834L50.886,50.21,54.721,48a.5.5,0,0,1,.547.835l-1.662,1.224,1.115-.643a.5.5,0,0,1,.553.83l-.584.447.031-.017a.5.5,0,0,1,.634.752l-1.423,1.712.789-.455a.5.5,0,0,1,.669.705l-.31.476a.494.494,0,0,1,.238.21.5.5,0,0,1-.183.684l-1.123.647a.5.5,0,0,1-.669-.706l.069-.106-1.406.811a.5.5,0,0,1-.635-.752L52.8,52.938,48.525,55.4a.5.5,0,0,1-.553-.83l.585-.447L46.343,55.4a.5.5,0,0,1-.547-.835l1.655-1.219L43.891,55.4a.5.5,0,0,1-.548-.834l4.385-3.258L40.639,55.4a.5.5,0,0,1-.544-.837l6.926-5.041L36.84,55.4a.5.5,0,0,1-.533-.844l7.832-5.378L33.36,55.4a.5.5,0,0,1-.531-.845l10.642-7.239-14,8.084a.5.5,0,0,1-.516-.856L31.4,53.012,27.259,55.4a.5.5,0,0,1-.518-.854L34.995,49.3,24.423,55.4a.5.5,0,0,1-.523-.851l14.778-9.6L20.581,55.4a.5.5,0,0,1-.518-.855l13.569-8.577L17.294,55.4A.5.5,0,0,1,17.044,55.471Z" fill="#fff"/><path d="M20.12,50.471a.5.5,0,0,1-.271-.92l1.395-.9L18.208,50.4a.5.5,0,0,1-.52-.853l.4-.255L16.166,50.4a.5.5,0,0,1-.532-.845l6.4-4.361L13.02,50.4a.5.5,0,0,1-.533-.845l6.581-4.495L10.9,49.777a.5.5,0,0,1-.528-.848l4.3-2.872-4.351,2.511a.5.5,0,0,1-.531-.845l3.663-2.493L10.28,47.06a.5.5,0,0,1-.551-.832l4.9-3.7L10.28,45.04a.5.5,0,0,1-.566-.82l3.251-2.652-2.686,1.55a.5.5,0,0,1-.566-.82l.9-.737-.338.194a.5.5,0,0,1-.681-.686l.967-1.646a.5.5,0,0,1-.49-.871l1.632-.943a.5.5,0,0,1,.681.686l-.968,1.647L15.482,37.6a.5.5,0,0,1,.567.82l-.9.737,2.7-1.557a.5.5,0,0,1,.566.82l-3.248,2.648,6.01-3.469a.5.5,0,0,1,.552.832l-4.906,3.7L24.671,37.6a.5.5,0,0,1,.532.845L21.54,40.935,27.322,37.6a.5.5,0,0,1,.528.848l-4.292,2.87L30,37.6a.5.5,0,0,1,.532.845l-6.584,4.5L33.2,37.6a.5.5,0,0,1,.531.845l-6.4,4.36,9.016-5.2a.5.5,0,0,1,.519.853l-.4.257,1.925-1.11a.5.5,0,0,1,.52.852l-1.391.9,3.032-1.75a.5.5,0,0,1,.534.843L33.918,43.4l10.049-5.8a.5.5,0,0,1,.53.846L38.525,42.48,46.984,37.6a.5.5,0,0,1,.531.846L41.5,42.514l7.54-4.353a.5.5,0,0,1,.536.843L42.84,43.7l6.88-3.972a.5.5,0,0,1,.542.839l-5.513,3.964,4.972-2.87a.5.5,0,0,1,.56.824l-4.618,3.667,4.058-2.341a.5.5,0,0,1,.581.807l-2.746,2.427,2.165-1.25a.5.5,0,0,1,.582.807l-.547.486a.5.5,0,0,1,.6.767l-.52.638a.5.5,0,0,1,.119.915l-1.719.992a.5.5,0,0,1-.637-.749l.258-.315L46.014,50.4a.5.5,0,0,1-.582-.806l.541-.481L43.742,50.4a.5.5,0,0,1-.581-.807l2.746-2.426L40.3,50.4a.5.5,0,0,1-.561-.824l4.618-3.667L36.581,50.4a.5.5,0,0,1-.542-.839L41.55,45.6l-8.317,4.8a.5.5,0,0,1-.536-.842l6.738-4.7-9.6,5.544a.5.5,0,0,1-.53-.846l6.016-4.071L26.8,50.4a.5.5,0,0,1-.53-.846l5.973-4.038L23.783,50.4a.5.5,0,0,1-.534-.843L30.415,44.6,20.37,50.4A.5.5,0,0,1,20.12,50.471Z" fill="#e1efff"/><path d="M29.774,46.435a.5.5,0,0,1-.351-.857l1.182-1.164-1.667.962a.5.5,0,0,1-.558-.826l.652-.509-.815.47a.5.5,0,0,1-.652-.136.5.5,0,0,1,.061-.663l2.209-2.058-2.7,1.559a.5.5,0,0,1-.621-.768l1.263-1.4L26.125,42a.5.5,0,0,1-.735-.555l.35-1.394-.16.093a.5.5,0,1,1-.5-.866l1.183-.683a.5.5,0,0,1,.735.554l-.351,1.395,3.384-1.953a.5.5,0,0,1,.62.767l-1.262,1.4,3.756-2.168a.5.5,0,0,1,.59.8l-2.21,2.058,3.2-1.844a.5.5,0,0,1,.557.826l-1.42,1.11a.494.494,0,0,1,.284.184.5.5,0,0,1-.047.659l-2.527,2.488.013.023a.5.5,0,0,1-.183.682l-1.374.793A.5.5,0,0,1,29.774,46.435Z" fill="#ca957e"/><path d="M29.774,46.435a.5.5,0,0,1-.351-.857l1.182-1.164-1.667.962a.5.5,0,0,1-.558-.826l.652-.509-.815.47a.5.5,0,0,1-.652-.136.5.5,0,0,1,.061-.663l2.209-2.058-2.7,1.559a.5.5,0,0,1-.621-.768l1.263-1.4L26.125,42a.5.5,0,0,1-.735-.555l.35-1.394-.16.093a.5.5,0,1,1-.5-.866l1.183-.683a.5.5,0,0,1,.735.554l-.351,1.395,3.384-1.953a.5.5,0,0,1,.62.767l-1.262,1.4,3.756-2.168a.5.5,0,0,1,.59.8l-2.21,2.058,3.2-1.844a.5.5,0,0,1,.557.826l-1.42,1.11a.494.494,0,0,1,.284.184.5.5,0,0,1-.047.659l-2.527,2.488.013.023a.5.5,0,0,1-.183.682l-1.374.793A.5.5,0,0,1,29.774,46.435Z" fill="#ca957e"/><path d="M28.781,21.476a.5.5,0,0,1-.325-.881L30.439,18.9l-4.234,2.445a.5.5,0,0,1-.559-.826l2.7-2.125L25.28,20.167a.5.5,0,0,1-.579-.811l2.656-2.314-2.078,1.2a.5.5,0,0,1-.59-.8l.811-.751-.221.128a.5.5,0,0,1-.636-.751l.506-.616a.5.5,0,0,1-.074-.9l1.632-.943a.5.5,0,0,1,.636.751l-.177.216L28.86,13.6a.5.5,0,0,1,.59.8l-.811.751L31.325,13.6a.5.5,0,0,1,.578.81l-2.655,2.315,4.658-2.69a.5.5,0,0,1,.559.826l-2.7,2.125,2.888-1.668a.5.5,0,0,1,.576.814l-1.985,1.694,1.481-.855a.5.5,0,0,1,.614.776L34.3,18.849l.428-.247a.5.5,0,0,1,.5.866l-3.356,1.938a.5.5,0,0,1-.614-.776L32.3,19.524,29.03,21.409A.5.5,0,0,1,28.781,21.476Z" fill="#f26376"/><path d="M27.328,40.493a.5.5,0,0,1-.3-.9l1.6-1.231L25.28,40.3a.5.5,0,0,1-.564-.822l4.893-3.934-4.329,2.5a.5.5,0,0,1-.559-.826l4.425-3.474L25.28,35.973a.5.5,0,0,1-.55-.833l3.2-2.4L25.28,34.275a.5.5,0,0,1-.54-.839l1.406-1-.866.5a.5.5,0,0,1-.561-.825l4.607-3.651L25.28,30.794a.5.5,0,0,1-.561-.824l4.633-3.678L25.28,28.644a.5.5,0,0,1-.549-.835l1.416-1.052-.867.5a.5.5,0,0,1-.58-.809l1.686-1.483-1.106.639a.5.5,0,0,1-.607-.784l.534-.541a.5.5,0,0,1-.659-.6l.258-.911a.489.489,0,0,1-.209-.2.5.5,0,0,1,.183-.683l.5-.29a.5.5,0,0,1,.731.569l-.169.6,2.038-1.177a.5.5,0,0,1,.606.784l-.516.525,2.278-1.315a.5.5,0,0,1,.58.808l-1.685,1.483,3.983-2.3a.5.5,0,0,1,.548.834l-1.413,1.051,2.457-1.419a.5.5,0,0,1,.56.825L30.649,26.54l4.076-2.353a.5.5,0,0,1,.56.825l-4.607,3.651,4.05-2.338a.5.5,0,0,1,.54.84l-1.409,1,.871-.5a.5.5,0,0,1,.55.834l-3.206,2.4,2.659-1.535a.5.5,0,0,1,.559.826L30.868,33.66l3.868-2.232a.5.5,0,0,1,.564.822l-4.894,3.934,4.334-2.5a.5.5,0,0,1,.555.829l-1.6,1.227,1.048-.6a.5.5,0,0,1,.612.777l-1.812,1.905,1.2-.7a.5.5,0,0,1,.724.593L35.034,39a.5.5,0,0,1,.215.932l-.823.475a.5.5,0,0,1-.724-.592l.394-1.162-3.055,1.764a.5.5,0,0,1-.612-.777l1.812-1.905-4.664,2.693A.488.488,0,0,1,27.328,40.493Z" fill="#fde05e"/><path d="M25.087,24.5a.5.5,0,0,1-.37-.837l1.458-1.6-.895.517a.5.5,0,0,1-.737-.548l.3-1.254a.492.492,0,0,1-.243-.213.5.5,0,0,1,.183-.683l.5-.29a.5.5,0,0,1,.736.549l-.235.994,2.689-1.553a.5.5,0,0,1,.619.771l-1.457,1.595,4.114-2.375a.5.5,0,0,1,.571.816l-.387.326,1.989-1.149a.5.5,0,0,1,.574.814l-.49.417.721-.416a.5.5,0,0,1,.612.778l-.62.651.018-.011a.5.5,0,0,1,.732.569l-.244.866a.491.491,0,0,1,.206.2.5.5,0,0,1-.183.683l-.5.289a.5.5,0,0,1-.731-.569l.156-.553-1.955,1.129a.5.5,0,0,1-.613-.778l.621-.651L29.736,24.42a.5.5,0,0,1-.574-.814l.49-.417-2.143,1.237a.5.5,0,0,1-.571-.816l.387-.325-1.989,1.148A.5.5,0,0,1,25.087,24.5Z" fill="#e1efff"/><path d="M.267,15.165V55.183a4.325,4.325,0,0,0,.842,3.143,4.255,4.255,0,0,0,3.437,1.192H55.932a3.835,3.835,0,0,0,3.8-3.784c.014-.867,0-1.736,0-2.6V11.149c0-2.367.052-4.74,0-7.107A3.556,3.556,0,0,0,56.042.482c-.63-.011-1.261,0-1.892,0H27.571c-7.7,0-15.406-.06-23.107,0a4.023,4.023,0,0,0-4,2.493A6.761,6.761,0,0,0,.267,5.24ZM1.733,4c.13-3.066,3.315-2.48,5.448-2.48H48.087c2.507,0,5.034-.091,7.541,0,2.893.106,2.639,2.832,2.639,4.886V55.352c0,1.471-.381,3.032-2.2,3.13H5.417a5.28,5.28,0,0,1-2.158-.209c-2.185-.96-1.526-4.7-1.526-6.61V10.446C1.733,8.3,1.642,6.139,1.733,4Z" fill="#262626"/><path d="M4.266,52.721v1.334c0,.026.014.042.017.066a.354.354,0,0,0-.007.073c.307,1.9,3.557,1.338,4.943,1.338H53.4c.939,0,2-.21,2.286-1.271a6.314,6.314,0,0,0,.051-1.6V30.2c0-6.64.166-13.3,0-19.942-.05-1.993-1.85-1.787-3.316-1.787H7.71c-1.471,0-3.372-.146-3.444,1.874-.237,6.6,0,13.241,0,19.84ZM5.979,9.532c.315-.178,1.255,0,1.6,0H51.475a12.594,12.594,0,0,1,2.2,0c1.034.2.594,2.646.594,3.443V52.109a10.572,10.572,0,0,1,0,1.866c-.117.614-.332.493-.833.493H7.126c-.672,0-1.238.208-1.392-.625V10.736C5.734,10.393,5.624,9.734,5.979,9.532Z" fill="#262626"/><path d="M11.156,50.3a29.8,29.8,0,0,0,5.352.048H40.4c2.349,0,4.7.049,7.051,0,1.32-.027,2.838-.556,3.2-1.984a18.549,18.549,0,0,0,.069-4.312,27.163,27.163,0,0,0-.026-4.573c-.306-1.729-1.967-1.835-3.363-1.835h-11.6V23.955l0-.006s0-.006,0-.011V16.655a3.161,3.161,0,0,0-.655-2.385c-1.008-1.06-2.706-.788-4.027-.788-2.333,0-6.6-.729-6.784,2.7-.115,2.212,0,4.462,0,6.677v1.19l0,0s0,.007,0,.011v9.4c0,1.387-.04,2.787-.046,4.184H15.668c-2.6,0-6.392-.513-6.392,3.139v5.762C9.276,48.112,9.178,49.929,11.156,50.3ZM30.724,24.547h3.543V38.776c0,.246.017.517.023.789H30.724V24.547Zm3.543-1.094H25.733V20.316h8.534Zm-4.991,1.094V39.565H25.7c-.014-.482.038-.991.038-1.452V24.547Zm4.21,15.888H34.2a1.522,1.522,0,0,1-.1.288l-2.086,2.5-1.385,1.662c-.327.392-.356.65-.823.321a6.652,6.652,0,0,1-.987-1.184L27.2,42.089a8.749,8.749,0,0,1-1.33-1.654ZM25.733,15.941c.177-1.891,2.327-1.423,3.7-1.423a13.555,13.555,0,0,1,3.777.063c1.093.352,1.056,1.392,1.056,2.286v2.817H25.733V17.179C25.733,16.773,25.7,16.346,25.733,15.941ZM10.822,39.261c.48-1.416,2.694-.909,3.815-.909h9.582c0,.6.017,1.194.048,1.788.056,1.08,1.021,1.881,1.678,2.67l1.811,2.172a6.185,6.185,0,0,0,1.14,1.27c1.553,1.01,2.714-.693,3.56-1.708l2.916-3.5a.621.621,0,0,0,.048-.085c.011-.016.03-.027.039-.043.02-.035.026-.072.044-.108v0a4.112,4.112,0,0,0,.229-1.9v-.552h7.679c1.338,0,2.7-.071,4.033,0,1.74.092,1.831,1.569,1.831,2.91v5.49c0,1.028.232,2.642-1.123,2.9a10.68,10.68,0,0,1-1.867,0h-33.2c-1.066,0-2.095-.194-2.333-1.519a22.292,22.292,0,0,1-.027-3.824V41.056A5.8,5.8,0,0,1,10.822,39.261Z" fill="#262626"/><path d="M5.412,5.309A.845.845,0,0,0,5.7,5.34h1A1.3,1.3,0,0,0,6.977,5.3a1.438,1.438,0,0,0,.288-.083A.975.975,0,0,0,7.5,5.1a.621.621,0,0,0,.165-.128c.053-.07.1-.165.016-.236l-.091-.047A.845.845,0,0,0,7.3,4.66h-1a1.3,1.3,0,0,0-.278.039,1.438,1.438,0,0,0-.288.083A.975.975,0,0,0,5.5,4.9a.621.621,0,0,0-.165.128c-.053.07-.1.165-.016.236Z" fill="#262626"/><path d="M10.7,5.354h1a1.642,1.642,0,0,0,.566-.119.981.981,0,0,0,.232-.12.572.572,0,0,0,.165-.133c.053-.074.1-.174.011-.248a.594.594,0,0,0-.38-.088h-1a1.642,1.642,0,0,0-.566.119.981.981,0,0,0-.232.12.572.572,0,0,0-.165.133c-.053.074-.1.174-.011.248A.594.594,0,0,0,10.7,5.354Z" fill="#262626"/><path d="M16.405,5.292h.124a2.017,2.017,0,0,0,.53-.073,1.718,1.718,0,0,0,.495-.2l.1-.075a.149.149,0,0,0,.069-.137c-.038-.088-.175-.1-.253-.1h-1a2.017,2.017,0,0,0-.53.073,1.718,1.718,0,0,0-.5.2l-.1.075a.149.149,0,0,0-.069.137c.038.088.175.1.253.1Z" fill="#262626"/><path d="M47.72,5.416h6a1.152,1.152,0,0,0,.955-.4c.173-.286-.147-.434-.395-.434h-6a1.152,1.152,0,0,0-.955.4C47.152,5.268,47.472,5.416,47.72,5.416Z" fill="#262626"/></svg>
