<svg id="Icons" height="512" viewBox="0 0 60 60" width="512" xmlns="http://www.w3.org/2000/svg"><path d="m21.3 59.471a.5.5 0 0 1 -.271-.921l7.948-5.107-10.319 5.957a.5.5 0 0 1 -.524-.85l14.1-9.268-17.126 9.892a.5.5 0 0 1 -.512-.858l4.37-2.706-4.885 2.821a.5.5 0 0 1 -.516-.857l10.456-6.568-10.6 6.12a.5.5 0 0 1 -.519-.855l14.553-9.271-14.175 8.18a.5.5 0 0 1 -.511-.859l3.612-2.221-3.1 1.79a.5.5 0 0 1 -.52-.854l16.193-10.4-15.674 9.045a.5.5 0 0 1 -.512-.859l4.932-3.041-4.42 2.549a.5.5 0 0 1 -.513-.857l7.121-4.418-6.608 3.814a.5.5 0 0 1 -.512-.858l4.241-2.611-3.729 2.15a.5.5 0 0 1 -.51-.86l.585-.358-.075.043a.5.5 0 0 1 -.519-.854l15.162-9.685-14.643 8.453a.5.5 0 0 1 -.519-.853l15.847-10.162-15.328 8.85a.5.5 0 0 1 -.516-.855l11.776-7.414-11.26 6.5a.5.5 0 0 1 -.517-.855l13.013-8.23-12.5 7.214a.5.5 0 0 1 -.511-.858l3.16-1.943-2.65 1.529a.5.5 0 0 1 -.514-.858l8.467-5.271-7.953 4.591a.5.5 0 0 1 -.521-.853l16.957-10.939-16.432 9.486a.5.5 0 0 1 -.513-.857l7.971-4.957-7.458 4.305a.5.5 0 0 1 -.517-.854l13.948-8.859-13.431 7.754a.5.5 0 0 1 -.513-.858l6.3-3.9-5.785 3.34a.5.5 0 0 1 -.52-.854l16.746-10.793-16.228 9.37a.5.5 0 0 1 -.517-.856l12.91-8.162-12.393 7.155a.5.5 0 0 1 -.518-.855l13.612-8.647-13.094 7.56a.5.5 0 0 1 -.514-.857l7.045-4.384-6.531 3.77a.5.5 0 0 1 -.522-.853l13.936-9.048-13.414 7.743a.5.5 0 0 1 -.512-.858l.412-.255a.5.5 0 0 1 -.415-.9l3.18-2-2.665 1.542a.5.5 0 0 1 -.516-.856l1.877-1.184-1.361.786a.5.5 0 0 1 -.533-.845l9.38-6.462-8.847 5.107a.5.5 0 0 1 -.525-.85l3.446-2.285-2.921 1.689a.5.5 0 0 1 -.53-.847l3.11-2.106-2.58 1.49a.5.5 0 0 1 -.533-.845l1.806-1.24-1.273.734a.5.5 0 0 1 -.571-.816l4.108-3.446-3.537 2.041a.5.5 0 0 1 -.6-.792l2.16-2.093-1.546.893a.5.5 0 0 1 -.64-.12.5.5 0 0 1 .02-.649l.827-.912a.5.5 0 0 1 -.07-.9l1.934-1.117a.5.5 0 0 1 .62.769l-.419.462 2.267-1.306a.5.5 0 0 1 .6.792l-2.16 2.093 5-2.885a.5.5 0 0 1 .571.816l-4.11 3.443 7.383-4.259a.5.5 0 0 1 .533.845l-1.807 1.239 3.614-2.084a.5.5 0 0 1 .53.847l-3.108 2.1 5.112-2.947a.5.5 0 0 1 .526.85l-3.454 2.281 5.428-3.131a.5.5 0 0 1 .533.844l-9.376 6.456 12.653-7.3a.5.5 0 0 1 .516.856l-1.88 1.183 3.537-2.039a.5.5 0 0 1 .515.857l-3.176 2 4.942-2.857a.5.5 0 0 1 .513.859l-.088.054 1.581-.913a.5.5 0 0 1 .522.853l-13.934 9.047 16.1-9.3a.5.5 0 0 1 .515.857l-7.041 4.383 7.4-4.273a.5.5 0 0 1 .519.854l-13.616 8.65 13.495-7.791a.5.5 0 0 1 .517.856l-12.904 8.164 12.387-7.157a.5.5 0 0 1 .52.853l-16.752 10.8 16.232-9.375a.5.5 0 0 1 .513.859l-6.289 3.893 5.776-3.335a.5.5 0 0 1 .517.855l-13.948 8.859 13.431-7.752a.5.5 0 0 1 .513.858l-7.98 4.962 7.467-4.311a.5.5 0 0 1 .521.853l-16.95 10.938 16.429-9.488a.5.5 0 0 1 .514.858l-8.467 5.272 7.953-4.592a.5.5 0 0 1 .511.859l-3.146 1.935 2.635-1.521a.5.5 0 0 1 .517.855l-13.013 8.232 12.496-7.21a.5.5 0 0 1 .516.856l-11.782 7.411 11.266-6.5a.5.5 0 0 1 .519.854l-15.852 10.16 15.334-8.853a.5.5 0 0 1 .519.855l-15.157 9.682 14.638-8.451a.5.5 0 0 1 .51.859l-.585.359.075-.044a.5.5 0 0 1 .512.859l-4.253 2.621 3.741-2.16a.5.5 0 0 1 .513.858l-7.112 4.413 6.6-3.81a.5.5 0 0 1 .512.858l-4.928 3.042 4.416-2.549a.5.5 0 0 1 .52.853l-16.202 10.407 15.681-9.052a.5.5 0 0 1 .511.858l-3.589 2.209 3.078-1.776a.5.5 0 0 1 .518.854l-14.558 9.279 14.04-8.106a.5.5 0 0 1 .515.857l-10.444 6.561 9.929-5.732a.5.5 0 0 1 .512.857l-4.382 2.711 3.87-2.234a.5.5 0 0 1 .524.85l-14.1 9.269 13.58-7.84a.5.5 0 0 1 .52.853l-7.945 5.102 7.419-4.283a.5.5 0 0 1 .518.854l-3.875 2.468 3.359-1.939a.5.5 0 0 1 .526.849l-6.847 4.551 6.323-3.649a.5.5 0 0 1 .527.848l-4.75 3.168 4.223-2.437a.5.5 0 0 1 .545.836l-6.36 4.654 5.815-3.357a.5.5 0 0 1 .558.827l-4.6 3.6 4.043-2.334a.5.5 0 0 1 .547.835l-.789.581.242-.138a.5.5 0 0 1 .6.791l-1.837 1.777 1.188-.686a.5.5 0 0 1 .611.779l-.714.745a.5.5 0 0 1 0 .867l-1.926 1.112a.5.5 0 0 1 -.612-.778l.1-.106-1.668.963a.5.5 0 0 1 -.6-.792l1.834-1.772-4.447 2.566a.5.5 0 0 1 -.547-.835l.786-.579-2.451 1.414a.5.5 0 0 1 -.559-.826l4.6-3.6-7.674 4.426a.5.5 0 0 1 -.545-.836l6.359-4.653-9.509 5.489a.5.5 0 0 1 -.527-.848l4.748-3.171-6.962 4.019a.5.5 0 0 1 -.527-.849l6.855-4.542-9.348 5.391a.5.5 0 0 1 -.518-.854l3.875-2.468-5.755 3.322a.5.5 0 0 1 -.254.071z" fill="#ccd0da"/><path d="m22.915 51.471a.5.5 0 0 1 -.271-.92l3.239-2.093-5.1 2.945a.5.5 0 0 1 -.53-.846l11.012-7.469-13.751 7.937a.5.5 0 0 1 -.524-.851l10.31-6.722-10.02 5.782a.5.5 0 0 1 -.521-.852l9.163-5.92-8.642 4.988a.5.5 0 0 1 -.523-.851l10.805-7.062-10.282 5.936a.5.5 0 0 1 -.52-.854l8.34-5.363-7.82 4.515a.5.5 0 0 1 -.518-.854l6.437-4.1-5.919 3.419a.5.5 0 0 1 -.517-.855l5.247-3.321-4.731 2.73a.5.5 0 0 1 -.521-.852l9.425-6.1-8.9 5.141a.5.5 0 0 1 -.526-.849l12.678-8.43-12.156 7.021a.5.5 0 0 1 -.521-.853l9.19-5.939-8.669 5a.5.5 0 0 1 -.518-.855l6.3-4.008-5.783 3.338a.5.5 0 0 1 -.526-.849l12.646-8.4-12.12 7a.5.5 0 0 1 -.525-.85l11.739-7.731-11.213 6.477a.5.5 0 0 1 -.516-.856l4.187-2.64-3.671 2.12a.5.5 0 0 1 -.526-.85l12.247-8.104-11.721 6.768a.5.5 0 0 1 -.52-.853l7.741-4.993-7.224 4.17a.5.5 0 0 1 -.521-.853l5.45-3.522-4.929 2.846a.5.5 0 0 1 -.522-.852l4.1-2.675-3.583 2.069a.5.5 0 0 1 -.53-.847l5.112-3.456-4.582 2.645a.5.5 0 0 1 -.528-.848l2.228-1.5-1.7.982a.5.5 0 0 1 -.549-.834l4.313-3.209-3.764 2.173a.5.5 0 0 1 -.58-.809l3.579-3.153-3 1.732a.5.5 0 0 1 -.606-.785l1.587-1.608-.981.565a.5.5 0 0 1 -.7-.657l.522-1.039a.5.5 0 0 1 -.24-.933l1.14-.645a.5.5 0 0 1 .7.657l-.463.922 2.732-1.579a.5.5 0 0 1 .606.784l-1.587 1.606 4.146-2.39a.5.5 0 0 1 .58.808l-3.58 3.154 6.863-3.962a.5.5 0 0 1 .549.834l-4.31 3.207 7-4.042a.5.5 0 0 1 .528.848l-2.23 1.5 4.065-2.347a.5.5 0 0 1 .53.847l-5.111 3.453 7.451-4.3a.5.5 0 0 1 .522.852l-4.1 2.675 6.103-3.527a.5.5 0 0 1 .522.853l-5.449 3.517 7.577-4.37a.5.5 0 0 1 .52.853l-7.742 4.992 8.306-4.799a.5.5 0 0 1 .526.85l-12.246 8.104 11.72-6.768a.5.5 0 0 1 .516.856l-4.187 2.64 3.671-2.12a.5.5 0 0 1 .525.851l-11.739 7.731 11.214-6.475a.5.5 0 0 1 .526.85l-12.646 8.399 12.12-7a.5.5 0 0 1 .518.855l-6.307 4.013 5.79-3.343a.5.5 0 0 1 .521.853l-9.19 5.939 8.669-5a.5.5 0 0 1 .526.85l-12.679 8.419 12.153-7.016a.5.5 0 0 1 .521.853l-9.434 6.106 8.913-5.145a.5.5 0 0 1 .517.855l-5.231 3.312 4.714-2.721a.5.5 0 0 1 .518.855l-6.444 4.1 5.926-3.422a.5.5 0 0 1 .52.854l-8.341 5.365 7.823-4.516a.5.5 0 0 1 .523.852l-10.8 7.062 10.282-5.936a.5.5 0 0 1 .521.853l-9.153 5.914 8.632-4.983a.5.5 0 0 1 .523.851l-10.319 6.727 9.789-5.652a.5.5 0 0 1 .53.847l-11.013 7.47 10.483-6.052a.5.5 0 0 1 .521.853l-3.236 2.089 2.715-1.566a.5.5 0 0 1 .526.85l-3.956 2.621 3.43-1.98a.5.5 0 0 1 .526.85l-1.879 1.247 1.353-.78a.5.5 0 0 1 .558.826l-5.607 4.387 5.049-2.915a.5.5 0 0 1 .541.839l-.779.559.238-.137a.5.5 0 0 1 .6.785l-2.528 2.549 1.928-1.113a.5.5 0 0 1 .65.731l-.779 1.046.129-.074a.5.5 0 0 1 .5.865l-2.231 1.285a.5.5 0 0 1 -.65-.731l.778-1.045-3.076 1.776a.5.5 0 0 1 -.605-.785l2.533-2.549-5.776 3.334a.5.5 0 0 1 -.541-.839l.78-.558-2.422 1.4a.5.5 0 0 1 -.559-.826l5.608-4.388-9.031 5.211a.5.5 0 0 1 -.526-.849l1.886-1.251-3.641 2.1a.5.5 0 0 1 -.526-.849l3.957-2.622-6.014 3.471a.5.5 0 0 1 -.25.071z" fill="#464c56"/><g fill="#262626"><path d="m19.9 59.367h23.807c2.071-.111 3.933-1.354 4.017-3.571.015-.39 0-.782 0-1.171v-49.512c0-.426.018-.856 0-1.282a3.342 3.342 0 0 0 -3.45-3.2c-2.227-.06-4.463 0-6.691 0-6.949 0-13.9-.04-20.847 0-2.456.015-4.44 1.331-4.46 3.935-.015 1.9 0 3.805 0 5.707v43.348c0 1.64-.313 3.657 1.038 4.876 1.543 1.393 4.679.87 6.586.87zm-6.176-55.521a2.416 2.416 0 0 1 2.46-2.479c1-.025 2 0 3 0h21.546c2.29 0 5.394-.419 5.546 2.853.2 4.245 0 8.545 0 12.794 0 12.91.09 25.824 0 38.734-.009 1.257-.445 2.8-1.983 2.884h-26.685a4.3 4.3 0 0 1 -2.7-.481 3.161 3.161 0 0 1 -1.181-2.741c-.118-12.853 0-25.712 0-38.565-.003-4.313-.227-8.691-.003-12.999z"/><path d="m16.276 50.194c.291 1.806 3.014 1.291 4.32 1.291h17.76c1.24 0 3.5.394 4.623-.344 1.048-.691.751-2.188.751-3.27v-25.75c0-3.995.167-8.031 0-12.025-.07-1.687-1.539-1.581-2.789-1.581h-7.707c-4.948 0-9.943-.2-14.887 0-1.77.073-2.077 1.16-2.077 2.585v38.968c0 .022.012.034.015.054s-.014.046-.009.072zm1.547-40.709c.244-.182 1.332 0 1.624 0h16.725a38.546 38.546 0 0 1 5.352 0c1.033.15.746 1.388.746 2.194v37.357c0 .332.013.667 0 1-.026.646-.113.48-.69.48h-22.444c-.639 0-1.256.158-1.406-.686v-27.476c0-4.01-.015-8.02 0-12.03.001-.252-.046-.736.093-.839z"/><path d="m32.061 54.459h-4a.819.819 0 0 0 -.8.593c-.039.381.383.489.674.489h4a.819.819 0 0 0 .8-.593c.039-.381-.383-.489-.674-.489z"/><path d="m25.41 5.3a.852.852 0 0 0 .285.024h1a1.362 1.362 0 0 0 .277-.041 1.5 1.5 0 0 0 .288-.083 1.053 1.053 0 0 0 .234-.113.65.65 0 0 0 .167-.123c.051-.064.107-.154.019-.221l-.09-.043a.852.852 0 0 0 -.285-.024h-1a1.362 1.362 0 0 0 -.277.041 1.5 1.5 0 0 0 -.288.082 1.053 1.053 0 0 0 -.234.113.65.65 0 0 0 -.167.123c-.051.064-.107.154-.019.221z"/><path d="m30.705 5.36h3a1.31 1.31 0 0 0 .962-.374c.206-.269-.18-.346-.372-.346h-3a1.31 1.31 0 0 0 -.962.374c-.206.269.18.346.372.346z"/><path d="m20.47 14.3a.736.736 0 0 0 .22.008 2.023 2.023 0 0 0 .564-.126 1.141 1.141 0 0 0 .4-.226l.875-.875.125-.125c.06-.06.1-.14.024-.2a.307.307 0 0 0 -.152-.046.736.736 0 0 0 -.22-.008 2.023 2.023 0 0 0 -.564.126 1.141 1.141 0 0 0 -.4.226l-.875.875-.125.125c-.06.06-.1.14-.024.2a.307.307 0 0 0 .152.046z"/><path d="m20.346 20.062c-.224.224.2.228.337.216a1.719 1.719 0 0 0 .971-.34l6.128-6.128q.435-.437.872-.872c.224-.224-.2-.228-.337-.216a1.719 1.719 0 0 0 -.971.34l-6.128 6.128q-.435.437-.872.872z"/><path d="m27.429 25.552a1.1 1.1 0 0 0 -1.024.275l-5.253 5.253-.747.747a.355.355 0 0 0 .166.621 1.1 1.1 0 0 0 1.024-.275l5.253-5.253.747-.747a.355.355 0 0 0 -.166-.621z"/><path d="m30.048 22.279q-.312.312-.623.623c-.2.2-.182.414.126.471a1.32 1.32 0 0 0 1.024-.275l4.377-4.377q.312-.312.623-.623c.2-.2.182-.414-.126-.471a1.32 1.32 0 0 0 -1.024.275z"/><path d="m37.462 15.268a.831.831 0 0 0 .217-.005 2.475 2.475 0 0 0 .563-.13l.168-.066a1.107 1.107 0 0 0 .241-.138l.876-.875.124-.125c.05-.05.113-.11.034-.167a.313.313 0 0 0 -.147-.03.831.831 0 0 0 -.217.005 2.475 2.475 0 0 0 -.563.13l-.168.066a1.107 1.107 0 0 0 -.241.138l-.876.875-.124.125c-.05.05-.113.11-.034.167a.313.313 0 0 0 .147.03z"/><path d="m20.471 26.3a.738.738 0 0 0 .22.009 1.986 1.986 0 0 0 .565-.125 1.144 1.144 0 0 0 .4-.229l.875-.876.125-.124c.061-.061.1-.145.022-.21a.307.307 0 0 0 -.152-.049.738.738 0 0 0 -.22-.009 1.986 1.986 0 0 0 -.565.125 1.144 1.144 0 0 0 -.4.229l-.875.876-.125.124c-.061.061-.1.145-.022.21a.307.307 0 0 0 .152.049z"/><path d="m24.345 22.056c-.228.228.2.242.34.232a1.66 1.66 0 0 0 .97-.344l7.879-7.879 1.121-1.121c.228-.228-.2-.242-.34-.232a1.66 1.66 0 0 0 -.97.344l-7.879 7.879z"/></g></svg>