<svg id="Icons" height="512" viewBox="0 0 60 60" width="512" xmlns="http://www.w3.org/2000/svg"><path d="m52.653 38.415a.5.5 0 0 1 -.345-.861l2.369-2.265-3.116 1.8a.5.5 0 0 1 -.582-.807l3.479-3.082-4.174 2.4a.5.5 0 0 1 -.576-.811l1.93-1.659-2.326 1.342a.5.5 0 0 1 -.566-.821l2-1.635-2.373 1.37a.5.5 0 0 1 -.559-.827l2.028-1.587-2.331 1.345a.5.5 0 0 1 -.675-.7l.223-.36a.5.5 0 0 1 -.179-.929l1.288-.743a.5.5 0 0 1 .675.7l-.105.168 6.743-3.893a.5.5 0 0 1 .559.827l-2.029 1.588 1.6-.923a.5.5 0 0 1 .567.82l-2 1.633 1.584-.914a.5.5 0 0 1 .576.812l-1.929 1.667 3.825-2.208a.5.5 0 0 1 .582.807l-3.477 3.083 2.439-1.408a.5.5 0 0 1 .6.794l-3.478 3.324a.447.447 0 0 1 .084.108.5.5 0 0 1 -.182.683l-1.9 1.095a.489.489 0 0 1 -.249.067z" fill="#6fcde2"/><path d="m49.99 30.019a.5.5 0 0 1 -.325-.88l1.306-1.118-.849.491a.5.5 0 0 1 -.578-.81l1.3-1.132-.854.493a.5.5 0 0 1 -.612-.777l2.422-2.553-2.31 1.335a.5.5 0 0 1 -.566-.82l.2-.163a.5.5 0 0 1 -.461-.863l.3-.247-.144.083a.5.5 0 0 1 -.579-.81l.823-.717-.721.416a.5.5 0 0 1 -.606-.785l1.746-1.76-1.89 1.091a.5.5 0 0 1 -.591-.8l1.2-1.124-1.34.774a.5.5 0 0 1 -.586-.8l1.012-.92-1.141.659a.5.5 0 0 1 -.629-.759l1.98-2.306-2.681 1.548a.5.5 0 0 1 -.607-.783l1.614-1.651-2.194 1.269a.5.5 0 0 1 -.6-.795l1.288-1.232-1.842 1.064a.5.5 0 0 1 -.619-.772l1.8-1.956-2.807 1.62a.5.5 0 0 1 -.58-.809l.847-.742-1.471.849a.5.5 0 0 1 -.584-.8l1.869-1.68a.449.449 0 0 1 -.107-.07.5.5 0 0 1 -.136-.565l.866-2.134-.006-.01a.5.5 0 0 1 .182-.684l.286-.164a.5.5 0 0 1 .712.621l-.566 1.4 1.6-.926a.5.5 0 0 1 .583.8l-1.067.96 1.72-.993a.5.5 0 0 1 .58.809l-.845.742 1.268-.733a.5.5 0 0 1 .618.772l-1.8 1.957 2.606-1.505a.5.5 0 0 1 .6.8l-1.287 1.231 1.749-1.01a.5.5 0 0 1 .607.783l-1.615 1.651 2.068-1.194a.5.5 0 0 1 .629.759l-1.98 2.307 2.634-1.522a.5.5 0 0 1 .586.8l-1.01.918 1.1-.634a.5.5 0 0 1 .591.8l-1.2 1.124 1.329-.768a.5.5 0 0 1 .6.786l-1.744 1.758 1.938-1.118a.5.5 0 0 1 .579.809l-.825.72.717-.414a.5.5 0 0 1 .571.817l-.3.247.142-.081a.5.5 0 0 1 .566.82l-.136.111a.5.5 0 0 1 .582.794l-2.433 2.552 2.344-1.353a.5.5 0 0 1 .578.81l-1.3 1.13 1.05-.606a.5.5 0 0 1 .575.813l-1.3 1.118.994-.574a.5.5 0 0 1 .5.866l-5.683 3.278a.491.491 0 0 1 -.25.067z" fill="#6fcde2"/><path d="m30.233 12.931a.5.5 0 0 1 -.326-.879l3.31-2.852-2.96 1.709a.5.5 0 0 1 -.564-.823l1.5-1.209-2.923 1.689a.5.5 0 0 1 -.569-.818l2.662-2.2-7.475 4.316a.5.5 0 1 1 -.5-.866l12.645-7.298a.5.5 0 0 1 .569.818l-2.664 2.2 3.355-1.936a.5.5 0 0 1 .563.823l-1.5 1.208 1.961-1.133a.5.5 0 0 1 .577.812l-3.311 2.85 1.7-.983a.5.5 0 0 1 .5.866l-6.3 3.639a.494.494 0 0 1 -.25.067z" fill="#346d92"/><path d="m30.03 3.9a.5.5 0 0 1 -.43-.75l.522-.9a.5.5 0 0 1 -.2-.931l1.225-.706a.5.5 0 0 1 .683.684l-.43.733 1.013-.585a.5.5 0 1 1 .5.866l-2.633 1.523a.5.5 0 0 1 -.25.066z" fill="#346d92"/><path d="m11.861 21.3a.5.5 0 0 1 -.392-.81l1.6-2.029-2.32 1.34a.5.5 0 0 1 -.522-.853l8.09-5.248-8.984 5.186a.5.5 0 0 1 -.522-.853l8.4-5.455-9.9 5.715a.5.5 0 0 1 -.524-.851l6.1-4-3.987 2.301a.5.5 0 0 1 -.525-.85l2.362-1.556a.5.5 0 0 1 -.425-.889l3.578-2.566a.521.521 0 0 1 -.144-.158.5.5 0 0 1 .183-.683l5.786-3.341a.5.5 0 0 1 .541.84l-1.189.854 5.62-3.245a.5.5 0 0 1 .524.851l-2.128 1.4 4.593-2.65a.5.5 0 0 1 .524.85l-6.1 4 11.151-6.437a.5.5 0 0 1 .522.852l-8.4 5.456 9.1-5.256a.5.5 0 0 1 .527.853l-19.42 12.599a.5.5 0 0 1 -.105.364l-2.523 3.193a.5.5 0 0 1 -.205.64l-.636.367a.5.5 0 0 1 -.25.069z" fill="#346d92"/><path d="m30.56 56.448a.5.5 0 0 1 -.251-.932l21.51-12.416a.5.5 0 0 1 .539.841l-7.885 5.59 4.462-2.576a.5.5 0 0 1 .537.842l-3.172 2.214a.468.468 0 0 1 .107.13.5.5 0 0 1 -.182.682l-6.225 3.596a.5.5 0 0 1 -.537-.842l.019-.014-3.806 2.2a.5.5 0 0 1 -.539-.841l7.887-5.592-12.215 7.051a.491.491 0 0 1 -.249.067z" fill="#25a3da"/><path d="m42.454 46.131a.5.5 0 0 1 -.307-.9l3.1-2.408a.239.239 0 0 1 -.022-.023.5.5 0 0 1 -.032-.629l1.97-2.691a.5.5 0 0 1 .23-.574l.419-.242a.5.5 0 0 1 .654.728l-1.066 1.459 1.564-.9a.5.5 0 0 1 .556.827l-.987.768 1.361-.786a.5.5 0 1 1 .5.865l-7.694 4.438a.493.493 0 0 1 -.246.068z" fill="#25a3da"/><path d="m28.319 59.327a.5.5 0 0 1 -.277-.916l11.007-7.311-12.049 6.954a.5.5 0 0 1 -.519-.854l5.986-3.825-6.525 3.768a.5.5 0 0 1 -.55-.832l3.476-2.611-4.149 2.4a.5.5 0 0 1 -.592-.8l2.881-2.7-3.8 2.194a.5.5 0 0 1 -.581-.807l3.27-2.893-3.573 2.062a.5.5 0 0 1 -.569-.818l4.745-3.924a.5.5 0 0 1 .2-.643l1.943-1.122a.5.5 0 0 1 .568.819l-2.211 1.832 2.7-1.561a.5.5 0 0 1 .581.808l-3.268 2.89 3.267-1.886a.5.5 0 0 1 .592.8l-2.883 2.7 7.518-4.339a.5.5 0 0 1 .551.832l-3.474 2.611 18.665-10.778a.5.5 0 0 1 .52.853l-5.994 3.83 6.559-3.787a.5.5 0 0 1 .526.849l-22.454 14.918a.5.5 0 0 1 -.229.291l-1.609.929a.488.488 0 0 1 -.249.067z" fill="#25a3da"/><path d="m10.487 30.493a.5.5 0 0 1 -.251-.933l2.464-1.42a.5.5 0 1 1 .5.866l-2.459 1.42a.488.488 0 0 1 -.254.067z" fill="#4d88a9"/><path d="m17.73 53.355a.5.5 0 0 1 -.466-.681l.417-1.071-1.248.719a.5.5 0 0 1 -.6-.79l1.552-1.516-2.414 1.393a.5.5 0 0 1 -.577-.811l.689-.598-1.06.612a.5.5 0 0 1 -.585-.8l.914-.824-1.328.767a.5.5 0 0 1 -.624-.765l1.878-2.119-2.695 1.556a.5.5 0 0 1 -.572-.816l.218-.183-.335.193a.5.5 0 0 1 -.57-.817l.052-.044-.147.085a.5.5 0 0 1 -.588-.8l1.042-.962-1.312.757a.5.5 0 0 1 -.61-.78l1.748-1.8-2.038 1.171a.5.5 0 0 1 -.617-.773l1.911-2.058-2.245 1.3a.5.5 0 0 1 -.614-.776l2.027-2.152-2.22 1.281a.5.5 0 0 1 -.605-.785l1.886-1.9-1.941 1.117a.5.5 0 0 1 -.606-.784l2.132-2.163-2.137 1.234a.5.5 0 0 1 -.577-.811l1.075-.932-.812.469a.5.5 0 0 1 -.6-.792l2.294-2.223-2.133 1.232a.5.5 0 0 1 -.573-.814l3.754-3.18-3.4 1.965a.5.5 0 0 1 -.557-.827l1.675-1.306-1.242.717a.5.5 0 0 1 -.587-.8l2.892-2.646-4.128 2.376a.5.5 0 0 1 -.563-.822l2.111-1.7-2.718 1.57a.5.5 0 0 1 -.574-.815l2.969-2.515-.41.236a.5.5 0 0 1 -.593-.8l2.477-2.337-.012-.019a.5.5 0 0 1 .184-.684l1.527-.882a.5.5 0 0 1 .593.8l-.971.916 1.521-.878a.5.5 0 0 1 .574.814l-2.97 2.516 3.516-2.03a.5.5 0 0 1 .564.823l-2.11 1.7 2.482-1.433a.5.5 0 0 1 .588.8l-2.894 2.652 3.523-2.035a.5.5 0 0 1 .558.828l-1.675 1.3 1.973-1.139a.5.5 0 0 1 .573.814l-3.755 3.18.81-.468a.5.5 0 0 1 .6.793l-2.296 2.229 1.856-1.071a.5.5 0 0 1 .577.811l-1.073.928.8-.459a.5.5 0 0 1 .606.784l-2.137 2.164 1.98-1.143a.5.5 0 0 1 .605.785l-1.884 1.9 1.927-1.113a.5.5 0 0 1 .614.776l-2.028 2.151 2.171-1.253a.5.5 0 0 1 .617.773l-1.911 2.059 2.26-1.3a.5.5 0 0 1 .609.78l-1.748 1.806 2.108-1.217a.5.5 0 0 1 .589.8l-1.041.96 1.325-.764a.5.5 0 0 1 .57.817l-.054.045.159-.092a.5.5 0 0 1 .572.816l-.22.185.47-.271a.5.5 0 0 1 .624.764l-1.877 2.115 2.781-1.606a.5.5 0 0 1 .584.8l-.912.822 1.525-.881a.5.5 0 0 1 .577.812l-.692.6 1.272-.734a.5.5 0 0 1 .6.79l-2.084 2.037a.5.5 0 0 1 .288.649l-.694 1.782.012.019a.5.5 0 0 1 -.183.683l-.284.164a.5.5 0 0 1 -.251.068z" fill="#4d88a9"/><g fill="#262626"><path d="m38.314 12.434a20.067 20.067 0 0 1 10.934 17.126 4.984 4.984 0 0 0 -1.5.139 1.724 1.724 0 0 0 -1.29 2.377 8.894 8.894 0 0 0 1.242 1.494q1.13 1.311 2.257 2.623c1.092 1.268 2.3 3.087 4.2 1.807a7.27 7.27 0 0 0 1.265-1.35l2.213-2.571c.561-.652 1.207-1.284 1.707-1.984a1.506 1.506 0 0 0 -1.014-2.462.545.545 0 0 0 -.11-.025c-.008 0-.015 0-.024-.006h-.029a.786.786 0 0 0 -.133-.017h-1.32a26.565 26.565 0 0 0 -14.139-23c-.283-.15-1.3 0-1.3.443 0 2.267-1.39 3.573-2.967 4.928-.162.144-.206.367.008.478zm4.279-4.468a26.137 26.137 0 0 1 12.683 22.228c0 .175.332.222.444.222h1.667c1.407.218.75 1.476.171 2.149l-1.912 2.222-1.862 2.163c-.449.522-.532.757-1.166.2a39.169 39.169 0 0 1 -3.506-4.074 10 10 0 0 1 -1.131-1.314c-.939-1.615.786-1.35 1.739-1.35.356 0 1.009-.157 1-.61a20.5 20.5 0 0 0 -10.92-17.889 7.563 7.563 0 0 0 2.793-3.947z"/><path d="m10.3 20.068 1.11 1.29c.228.265 1.263-.112 1.4-.375a19.457 19.457 0 0 1 11.784-9.994 22.413 22.413 0 0 1 3.968-.662c.771-.079.622-.218.719.394.06.386-.042.8 0 1.187.191 1.812 2.317 1.569 3.424.738a58.48 58.48 0 0 0 5.451-4.692c.972-.941.467-1.829-.382-2.56l-3.56-3.059c-.939-.809-1.739-1.835-3.103-1.577-1.779.334-1.84 1.558-1.837 2.991a27.515 27.515 0 0 0 -23.049 14.377c-.074.141.171.173.246.173a5.147 5.147 0 0 1 3.829 1.769zm19.231-15.768c.264 0 1.193-.105 1.193-.493 0-.56-.3-2.614.67-2.228a8.9 8.9 0 0 1 1.806 1.551l2.679 2.306c.567.488 1.47 1.019 1.359 1.87-.094.728-.965 1.241-1.486 1.69l-2.7 2.326c-.257.221-1.295 1.414-1.652 1.421-.217 0-.568-.656-.635-.879a2.55 2.55 0 0 1 -.036-.624c-.014-.477 0-.957 0-1.434 0-.086-.221-.1-.255-.1a21.561 21.561 0 0 0 -18.42 10.321l-.387-.45a5.686 5.686 0 0 0 -3.918-1.854 25.137 25.137 0 0 1 21.782-13.423z"/><path d="m30.381 47.152c-.777-.921-2.179-.625-3.015.014-1.567 1.2-3.016 2.6-4.511 3.883-.5.429-1.236.9-1.478 1.539-.345.913.237 1.52.866 2.061 1.624 1.4 3.213 2.854 4.88 4.2a2.278 2.278 0 0 0 2.845.135c.859-.611.8-1.633.769-2.59a27.348 27.348 0 0 0 23-14.365c.154-.289-.13-.464-.4-.464a4.9 4.9 0 0 1 -3.644-1.686q-.551-.64-1.1-1.28c-.287-.334-1.165-.1-1.349.262a19.309 19.309 0 0 1 -16.5 10.683 3.587 3.587 0 0 0 -.363-2.392zm17.6-7.12.368.429a6 6 0 0 0 3.786 1.939 25.3 25.3 0 0 1 -21.86 13.165c-.245 0-1 .133-1 .518 0 .579.278 2.6-.68 2.3-.542-.173-1.194-1.028-1.627-1.4l-2.7-2.325c-.427-.368-1.234-.848-1.461-1.408-.35-.859.693-1.462 1.223-1.918l2.679-2.306c.438-.377 1.2-1.376 1.763-1.517 1.074-.269.8 2.034.8 2.579 0 .245.221.354.451.352a21.358 21.358 0 0 0 18.258-10.408z"/><path d="m3.282 30.338a26.445 26.445 0 0 0 14.038 22.979c.3.16 1.4.013 1.4-.451 0-2.291 1.459-3.614 3.047-4.981.049-.042.108-.177.019-.222a20.2 20.2 0 0 1 -11.038-17.321 4.37 4.37 0 0 0 1.84-.275 1.522 1.522 0 0 0 .772-2.388c-1.156-1.644-2.683-3.118-3.994-4.641-.486-.565-.9-1.215-1.691-1.341a2.765 2.765 0 0 0 -2.391.9c-1.459 1.549-2.79 3.243-4.179 4.856-.568.661-1.218 1.458-.529 2.318.579.723 1.783.611 2.706.567zm-1.433-2.246a8.649 8.649 0 0 1 1.4-1.658q1.164-1.357 2.331-2.714c.294-.342.854-1.312 1.293-1.282.47.032 1.119 1.1 1.391 1.413l2.326 2.7a17.006 17.006 0 0 1 1.421 1.652c.365.559.366 1.278-.272 1.468a3.893 3.893 0 0 1 -1.208.011 1.048 1.048 0 0 0 -.174-.008h-.052-.019c-.428.029-1.013.226-1.01.517a20.329 20.329 0 0 0 5.754 14.05 20.121 20.121 0 0 0 2.961 2.5q.727.5 1.5.94c-.024-.014.7.4.885.361-.09.087-.3.231-.314.25a17.047 17.047 0 0 0 -1.783 1.753 5.4 5.4 0 0 0 -.867 2.032 26.245 26.245 0 0 1 -12.688-22.271c0-.149-.346-.132-.419-.132-.961 0-3.247.132-2.456-1.582z"/></g></svg>