<?xml version="1.0"?>
<svg xmlns="http://www.w3.org/2000/svg" id="Icons" viewBox="0 0 60 60" width="512" height="512"><defs><style>.cls-1{fill:#b9bfcc;}.cls-2{fill:#ccd0da;}.cls-3{fill:#464c56;}.cls-4{fill:#5a616b;}.cls-5{fill:#262626;}</style></defs><path class="cls-1" d="M24.286,59.471A.5.5,0,0,1,24,58.559l1.482-1.018L22.257,59.4a.5.5,0,0,1-.547-.835L28,53.932,18.68,59.31a.5.5,0,0,1-.54-.84l8.14-5.815-8.957,5.171a.5.5,0,0,1-.538-.841l7.175-5.066-.824.476a.5.5,0,0,1-.544-.837l1.376-1a.5.5,0,0,1-.291-.82l1.56-1.806-.093.053a.5.5,0,0,1-.711-.626l.275-.659a.5.5,0,0,1,.072-.816l.5-.29a.5.5,0,0,1,.711.627l-.066.158,1.368-.79a.5.5,0,0,1,.636.114.5.5,0,0,1-.007.646l-1.559,1.8,4.463-2.576a.5.5,0,0,1,.544.837l-.46.334,2.041-1.178a.5.5,0,0,1,.538.841l-7.175,5.066,8.415-4.858a.5.5,0,0,1,.541.84l-8.14,5.814,8.089-4.67a.5.5,0,0,1,.547.835l-6.286,4.637,6.53-3.769a.5.5,0,0,1,.533.844l-1.483,1.019,1.6-.922a.5.5,0,0,1,.557.828l-3.6,2.79L37.727,52.5a.5.5,0,0,1,.553.83l-1.737,1.326L38.721,53.4a.5.5,0,0,1,.6.792l-2.4,2.325,3.451-1.992a.5.5,0,0,1,.57.816l-.332.276.884-.509a.5.5,0,0,1,.609.781l-.827.848,1.218-.7a.5.5,0,0,1,.676.7l-.531.861a.5.5,0,0,1,.357.921l-1.548.893a.5.5,0,0,1-.675-.7l.505-.819L38.649,59.4a.5.5,0,0,1-.608-.781l.825-.848L36.042,59.4a.5.5,0,0,1-.57-.816l.332-.276L33.91,59.4a.5.5,0,0,1-.6-.792l2.4-2.326-5.4,3.118a.5.5,0,0,1-.553-.83L31.5,57.248,27.762,59.4a.5.5,0,0,1-.665-.153.5.5,0,0,1,.109-.675l3.6-2.791L24.536,59.4A.5.5,0,0,1,24.286,59.471Z"/><path class="cls-2" d="M36.5,47.471a.5.5,0,0,1-.288-.908l.858-.607L34.566,47.4A.5.5,0,0,1,34,46.582l3.656-2.965L31.1,47.4a.5.5,0,0,1-.546-.836l2.085-1.528-4.1,2.364A.5.5,0,0,1,28,46.566l1.794-1.3L26.087,47.4a.5.5,0,0,1-.573-.813l3.96-3.36L22.245,47.4a.5.5,0,0,1-.545-.836l2.069-1.515L19.694,47.4a.5.5,0,0,1-.563-.822L22.708,43.7,16.3,47.4a.5.5,0,0,1-.544-.837L17.7,45.151l-3.9,2.252a.5.5,0,0,1-.575-.812l4.005-3.429L9.877,47.4a.5.5,0,0,1-.56-.825l3.381-2.67L6.645,47.4a.5.5,0,0,1-.547-.835l2.2-1.62L4.043,47.4a.5.5,0,0,1-.54-.84l1.252-.892L2.246,47.119a.5.5,0,0,1-.555-.829l2.617-2.007L1.421,45.949a.5.5,0,0,1-.561-.824l1.622-1.288-1.2.694a.5.5,0,0,1-.6-.786l1.377-1.374-.778.448a.5.5,0,0,1-.672-.7l.586-.928a.5.5,0,0,1-.108-.912L2.263,39.6a.5.5,0,0,1,.673.7l-.407.643L4.857,39.6a.5.5,0,0,1,.6.786L4.083,41.758,7.827,39.6a.5.5,0,0,1,.561.824l-1.62,1.287L10.427,39.6a.5.5,0,0,1,.554.829L8.363,42.433,13.279,39.6a.5.5,0,0,1,.54.84l-1.255.894L15.57,39.6a.5.5,0,0,1,.546.835l-2.2,1.617L18.171,39.6a.5.5,0,0,1,.56.825l-3.383,2.671L21.4,39.6a.5.5,0,0,1,.575.812l-4,3.428,7.347-4.241a.5.5,0,0,1,.544.837l-1.942,1.416,3.9-2.253a.5.5,0,0,1,.564.822l-3.577,2.876,6.409-3.7a.5.5,0,0,1,.546.836L29.7,41.946l4.077-2.353a.5.5,0,0,1,.574.813L30.39,43.765l7.228-4.173a.5.5,0,0,1,.544.837l-1.8,1.3,3.711-2.142a.5.5,0,0,1,.546.836l-2.081,1.525,4.092-2.362a.5.5,0,0,1,.565.821l-3.657,2.966L46.1,39.591a.5.5,0,0,1,.538.841l-.853.6,2.5-1.443a.5.5,0,0,1,.571.815L44.95,43.688l7.1-4.1a.5.5,0,0,1,.561.824l-3.472,2.763,6.215-3.588a.5.5,0,0,1,.576.811l-4.041,3.486,6.432-3.714a.5.5,0,0,1,.539.841l-.141.1h0a.5.5,0,0,1,.576.812l-2.278,1.965,1.7-.983a.5.5,0,0,1,.6.788l-.913.9.312-.18a.5.5,0,0,1,.5.865L55.549,47.4a.5.5,0,0,1-.6-.788l.914-.9L52.93,47.4a.5.5,0,0,1-.576-.811l2.277-1.964L49.822,47.4a.5.5,0,0,1-.539-.84l.141-.1L47.8,47.4a.5.5,0,0,1-.576-.811l4.04-3.485-7.443,4.3a.5.5,0,0,1-.561-.824l3.474-2.764L40.514,47.4a.5.5,0,0,1-.572-.815l3.908-3.281-7.1,4.1A.493.493,0,0,1,36.5,47.471Z"/><path class="cls-3" d="M4.231,41.5a.5.5,0,0,1-.262-.926L27.345,26.216,1.28,41.264a.5.5,0,0,1-.511-.86L25.888,25.018,1.28,39.226a.5.5,0,0,1-.511-.86L25.506,23.224,1.28,37.211a.5.5,0,0,1-.509-.86l16-9.681L1.28,35.612a.5.5,0,0,1-.508-.861L7.8,30.53,1.28,34.294a.5.5,0,0,1-.511-.859L21.554,20.7,1.28,32.408a.5.5,0,0,1-.513-.858l21.2-13.088L1.28,30.408a.5.5,0,0,1-.509-.861l4.457-2.692L1.28,29.135a.5.5,0,0,1-.512-.859l13.213-8.107L1.28,27.5a.5.5,0,0,1-.509-.86L4.11,24.616,1.28,26.25a.5.5,0,0,1-.513-.858l11.5-7.1L1.279,24.633a.5.5,0,0,1-.516-.857l14.071-8.835L1.279,22.767a.5.5,0,0,1-.517-.856l12.489-7.889L1.279,20.934a.5.5,0,0,1-.522-.852l14.149-9.2L1.279,18.746a.5.5,0,0,1-.521-.853L10.5,11.61,1.279,16.933a.5.5,0,0,1-.529-.848L11.879,8.571,1.279,14.69a.5.5,0,0,1-.523-.851l5.136-3.358L1.279,13.144A.5.5,0,0,1,.747,12.3L7.165,7.9l-5.886,3.4a.5.5,0,0,1-.534-.844l4.1-2.836L1.279,9.673A.5.5,0,0,1,.743,8.83L2.914,7.317,1.279,8.26a.5.5,0,0,1-.553-.83L3.483,5.321l-2.2,1.272A.5.5,0,0,1,.7,5.784L2.738,4l-1.459.842A.5.5,0,0,1,.6,4.155L1.6,2.4l-.025.015a.5.5,0,0,1-.5-.866L2.707.608a.5.5,0,0,1,.684.682l-1,1.753L6.623.6a.5.5,0,0,1,.58.809L5.163,3.2,9.665.6a.5.5,0,0,1,.554.83L7.462,3.536,12.552.6a.5.5,0,0,1,.536.843L10.917,2.954,15,.6a.5.5,0,0,1,.534.844l-4.1,2.836L17.806.6a.5.5,0,0,1,.533.845L11.918,5.847,21.012.6a.5.5,0,0,1,.524.851L16.4,4.806,23.69.6a.5.5,0,0,1,.53.847L13.092,8.958,27.575.6a.5.5,0,0,1,.521.854L18.354,7.733,30.716.6a.5.5,0,0,1,.522.852l-14.15,9.2L34.506.6a.5.5,0,0,1,.516.856L22.535,9.341,37.681.6a.5.5,0,0,1,.515.857l-14.07,8.835L40.912.6a.5.5,0,0,1,.513.859l-11.491,7.1L43.714.6a.5.5,0,0,1,.51.861L40.875,3.488,45.883.6a.5.5,0,0,1,.512.86L33.182,9.562,48.711.6a.5.5,0,0,1,.509.862L44.758,4.152,50.916.6a.5.5,0,0,1,.513.859l-21.2,13.087L54.382.6a.5.5,0,0,1,.511.859L34.127,14.175,57.359.761a.5.5,0,0,1,.508.862L50.829,5.851,58.373,1.5a.5.5,0,0,1,.509.86l-16.024,9.7L58.721,2.894a.5.5,0,0,1,.51.859L34.509,18.886,58.722,4.907a.5.5,0,0,1,.51.859L34.1,21.164,58.724,6.945a.5.5,0,0,1,.511.859L35.869,22.154l22.856-13.2a.5.5,0,0,1,.509.861L46.626,17.466l12.1-6.986a.5.5,0,0,1,.511.86L42.39,21.671l16.338-9.433a.5.5,0,0,1,.512.859l-16.234,10,15.723-9.078a.5.5,0,0,1,.511.86L49.6,20.78l9.134-5.274a.5.5,0,0,1,.512.859L50.386,21.8l8.345-4.819a.5.5,0,0,1,.516.857l-14.91,9.37L58.732,18.9a.5.5,0,0,1,.517.856L47.116,27.384l11.618-6.708a.5.5,0,0,1,.523.852l-14.43,9.358,13.909-8.031a.5.5,0,0,1,.527.85L45.985,32.514l12.753-7.363a.5.5,0,0,1,.519.854l-5.052,3.223,4.534-2.618a.5.5,0,0,1,.52.854l-2.951,1.885,2.432-1.405a.5.5,0,0,1,.527.85l-5.479,3.629,4.953-2.86a.5.5,0,0,1,.53.849l-4.187,2.815,3.658-2.113a.5.5,0,0,1,.533.845l-3.35,2.308,2.819-1.627a.5.5,0,0,1,.533.844l-.957.658.425-.246a.5.5,0,0,1,.555.83l-2.617,2.009,2.063-1.191a.5.5,0,0,1,.577.811L57.54,37.894l1.207-.7a.5.5,0,0,1,.667.709l-1.04,1.568.375-.217a.5.5,0,1,1,.5.865L57.029,41.4a.5.5,0,0,1-.667-.709l1.04-1.566-3.944,2.277a.5.5,0,0,1-.577-.811l1.785-1.54-4.077,2.353a.5.5,0,0,1-.555-.829l2.619-2.011-4.922,2.841a.5.5,0,0,1-.672-.166.5.5,0,0,1,.139-.679l.945-.648-2.59,1.495a.5.5,0,0,1-.533-.845l3.35-2.307-5.463,3.153a.5.5,0,0,1-.529-.848l4.194-2.819-6.354,3.668a.5.5,0,0,1-.527-.849l5.474-3.626-7.756,4.477a.5.5,0,0,1-.519-.854l2.962-1.891L35.1,41.415a.5.5,0,0,1-.519-.854l5.056-3.225-7.068,4.08a.5.5,0,0,1-.526-.85l13.273-8.805L28.582,41.419a.5.5,0,0,1-.522-.853l14.425-9.354L24.8,41.421a.5.5,0,0,1-.516-.856L36.423,32.93,21.714,41.422a.5.5,0,0,1-.516-.857l14.913-9.371L18.392,41.424a.5.5,0,0,1-.511-.859l8.869-5.441-10.914,6.3a.5.5,0,0,1-.511-.86l9.628-5.887-11.69,6.749a.5.5,0,0,1-.513-.859L28.99,30.562,10.169,41.428a.5.5,0,0,1-.511-.859L26.5,30.239,7.12,41.43a.5.5,0,0,1-.509-.861l12.605-7.645L4.48,41.431A.488.488,0,0,1,4.231,41.5Z"/><path class="cls-4" d="M27.285,37.471a.5.5,0,0,1-.265-.925l2.335-1.454-4,2.311a.5.5,0,0,1-.521-.853l12.5-8.05L21.913,37.4a.5.5,0,0,1-.514-.857l5.969-3.7L19.477,37.4a.5.5,0,0,1-.517-.855l13.831-8.715L16.215,37.4a.5.5,0,0,1-.518-.854l18.93-12.018L12.331,37.4a.5.5,0,0,1-.509-.86l3.31-2.008L10.164,37.4a.5.5,0,0,1-.514-.857l18.989-11.8L6.708,37.4a.5.5,0,0,1-.508-.86l4.726-2.854L5.4,36.878a.5.5,0,0,1-.51-.859l15.324-9.361L5.28,35.281a.5.5,0,0,1-.514-.857l22.55-14.048L5.28,33.1a.5.5,0,0,1-.513-.859l15.559-9.6L5.28,31.33a.5.5,0,0,1-.511-.859l8.364-5.114L5.28,29.892a.5.5,0,0,1-.513-.858l12.253-7.6L5.28,28.216a.5.5,0,0,1-.518-.855l15.23-9.642L5.28,26.213a.5.5,0,0,1-.512-.859l3.245-2L5.28,24.936a.5.5,0,0,1-.523-.852L19.166,14.69,5.279,22.707a.5.5,0,0,1-.527-.85L17.48,13.4l-12.2,7.044A.5.5,0,0,1,4.75,19.6L15.2,12.531,5.279,18.26a.5.5,0,0,1-.526-.85l5.687-3.764-5.161,2.98a.5.5,0,0,1-.542-.839l7.425-5.345L5.279,14.416a.5.5,0,0,1-.553-.831l5.527-4.213L5.279,12.244a.5.5,0,0,1-.543-.839L6.171,10.37l-.892.514a.5.5,0,0,1-.569-.818L6.693,8.423l-1.414.816a.5.5,0,0,1-.624-.765l1.3-1.461L5.279,7.4a.5.5,0,0,1-.674-.7l.345-.552a.5.5,0,0,1-.085-.905L5.994,4.6a.5.5,0,0,1,.673.7l-.148.238L8.14,4.6a.5.5,0,0,1,.624.765l-1.3,1.461L11.32,4.6a.5.5,0,0,1,.569.818L9.907,7.058,14.169,4.6a.5.5,0,0,1,.543.838L13.276,6.472,16.524,4.6a.5.5,0,0,1,.553.83L11.55,9.641,20.287,4.6a.5.5,0,0,1,.542.839L13.4,10.782,24.115,4.6a.5.5,0,0,1,.526.85l-5.68,3.759L26.945,4.6a.5.5,0,0,1,.53.847L17.021,12.509,30.726,4.6a.5.5,0,0,1,.527.85l-12.73,8.46L34.648,4.6a.5.5,0,0,1,.524.852l-14.41,9.394L38.51,4.6a.5.5,0,0,1,.511.859L35.784,7.447,40.722,4.6a.5.5,0,0,1,.517.856L26.006,15.1,44.191,4.6a.5.5,0,0,1,.514.858L32.454,13.048,47.093,4.6a.5.5,0,0,1,.511.86L39.24,10.569,49.586,4.6a.5.5,0,0,1,.513.859L34.547,15.047,52.648,4.6a.5.5,0,0,1,.515.857L30.611,19.5,54.72,5.583a.5.5,0,0,1,.51.859L39.905,15.8,54.72,7.25a.5.5,0,0,1,.509.861l-4.747,2.866L54.72,8.53a.5.5,0,0,1,.513.858l-18.979,11.8L54.72,10.524a.5.5,0,0,1,.509.861L51.908,13.4l2.812-1.623a.5.5,0,0,1,.517.855L36.306,24.65,54.721,14.018a.5.5,0,0,1,.516.856L41.406,23.588,54.721,15.9a.5.5,0,0,1,.513.858l-5.964,3.7,5.451-3.148a.5.5,0,0,1,.52.854l-12.5,8.049,11.983-6.918a.5.5,0,0,1,.514.857L52.9,21.6l1.822-1.051a.5.5,0,0,1,.529.848L43.61,29.227l11.111-6.414a.5.5,0,0,1,.528.848l-8.2,5.509,7.673-4.431a.5.5,0,0,1,.528.849l-5.018,3.355,4.49-2.592a.5.5,0,0,1,.546.837l-6.487,4.75,5.941-3.429a.5.5,0,0,1,.534.844l-1.463,1.011.929-.536a.5.5,0,0,1,.563.822l-3.275,2.632,2.712-1.565a.5.5,0,0,1,.574.813l-1.49,1.27.916-.529a.5.5,0,0,1,.679.688l-.962,1.622.283-.163a.5.5,0,0,1,.5.865L53.281,37.4a.5.5,0,0,1-.679-.687l.962-1.621-4,2.308a.5.5,0,0,1-.574-.813l1.49-1.269L46.871,37.4a.5.5,0,0,1-.563-.822l3.273-2.63L43.6,37.4a.5.5,0,0,1-.535-.843l1.463-1.011L41.315,37.4a.5.5,0,0,1-.545-.836l6.488-4.753L37.577,37.4a.5.5,0,0,1-.528-.848L42.063,33.2l-7.277,4.2a.5.5,0,0,1-.528-.847l8.2-5.511L31.448,37.4a.5.5,0,0,1-.529-.847l11.64-7.827L27.534,37.4A.489.489,0,0,1,27.285,37.471Z"/><path class="cls-5" d="M.276,41.2c0,1.859-.714,5.632,1.865,6.052a31.814,31.814,0,0,0,4.959.033H24.256a10.665,10.665,0,0,1-4.4,6.984c-1.276.908-4.613,1.864-3.339,4.043.6,1.019,1.7.965,2.709.965H39.772A5.494,5.494,0,0,0,42.6,58.8a1.919,1.919,0,0,0,.614-3.009,14.279,14.279,0,0,0-2.582-1.508,10.88,10.88,0,0,1-4.806-6.994h20.7c.01,0,.029-.006.041-.007a1.065,1.065,0,0,0,.115,0c1.657-.134,3.007-1,3.04-2.753.018-.921,0-1.844,0-2.765V4.778c0-.646.043-1.309,0-1.954A2.278,2.278,0,0,0,57.2.712c-2.236-.042-4.478,0-6.715,0h-27.3c-6.469,0-12.945-.087-19.413,0C2.47.73.852,1.107.388,2.5A6.579,6.579,0,0,0,.276,4.49V41.2ZM37.821,53.666A12.944,12.944,0,0,0,40.05,55.24c.933.524,2.237.863,2.226,2.178-.014,1.5-.834,1.3-1.848,1.3H20.844a4.864,4.864,0,0,1-2.28-.2,1.712,1.712,0,0,1-.716-2.1c.26-.626.907-.855,1.462-1.14a14.205,14.205,0,0,0,2.423-1.566,10.9,10.9,0,0,0,3.892-6.421H34.3A10.773,10.773,0,0,0,37.821,53.666Zm19.516-6.954H5.475c-1.721,0-3.707.211-3.751-2.206-.017-.994-.021-1.989-.03-2.983H58.276v2.6C58.276,44.911,58.418,46.6,57.337,46.712ZM1.724,3.019c.038-.817.3-1.634,1.141-1.731a21,21,0,0,1,2.38,0h47.69c1.588,0,4.929-.619,5.314,1.582a10.136,10.136,0,0,1,.027,1.716V40.477H1.684c-.035-5.64.04-11.284.04-16.921V10.232C1.724,7.837,1.615,5.412,1.724,3.019Z"/><path class="cls-5" d="M4.276,35.747c.022.927.378,1.522,1.428,1.585.363.022.733,0,1.1,0h9.584a.565.565,0,0,0,.35.138,1.363,1.363,0,0,0,.632-.138h8a1.094,1.094,0,0,0,.968,0H41.947a.975.975,0,0,0,1.17,0H53.549a.859.859,0,0,0,.088,0h.06a.6.6,0,0,0,.069-.01c.04,0,.065,0,.112-.009,1.156-.186,1.817-.737,1.846-1.889.024-.912,0-1.827,0-2.738V11.068a38.169,38.169,0,0,0,0-5.261c-.222-1.546-2.566-1.139-3.708-1.139H49.661a1.018,1.018,0,0,0-1.085,0h-6.96a.623.623,0,0,0-.347-.127,1.216,1.216,0,0,0-.57.107l-.033.02H32.608A1.209,1.209,0,0,0,32.1,4.6a1.558,1.558,0,0,0-.286.067H24.605a.646.646,0,0,0-.331-.11,1.259,1.259,0,0,0-.568.11H21.14c-4.863,0-9.772-.2-14.632,0-1.016.04-2.09.381-2.232,1.526a12.021,12.021,0,0,0,0,1.458v9.1C4.276,23.079,4.122,29.424,4.276,35.747Zm1.458-30.3c.122-.206-.073-.013.206-.119a6.024,6.024,0,0,1,1.712,0h7.532q-2.742,5.853-5.486,11.7l-.789,1.684c-.124.263,1.25.147,1.432-.242L15.927,6.563q.288-.615.577-1.231h6.645q-.53,1.132-1.06,2.263l-.175.372a.278.278,0,0,0,.01.326.581.581,0,0,0,.4.149,1.277,1.277,0,0,0,.569-.11.769.769,0,0,0,.384-.3l1.232-2.628.034-.073h6.624Q29.576,8.718,27.99,12.1l-.464.99c-.142.3.483.326.625.308a1.009,1.009,0,0,0,.823-.49Q30.618,9.4,32.26,5.9l.266-.567h7.616L39.086,7.585l-.174.372a.3.3,0,0,0,.013.341.583.583,0,0,0,.4.161,1.21,1.21,0,0,0,.569-.107.778.778,0,0,0,.382-.309l1.232-2.628.039-.083h6.57l-3.094,6.6q-.233.5-.464.991c-.345.737,1.115.724,1.382.154l3.286-7.009.345-.736h3.256a1.922,1.922,0,0,1,1.083.12c.52.35.365,1.341.365,1.872V35.012c0,.124.095,1.532-.134,1.656H43.526q2.691-5.742,5.383-11.482L49.7,23.5c.361-.771-1.1-.831-1.4-.2L42.716,35.214l-.681,1.454H34.81q.569-1.213,1.136-2.425c.058-.124.116-.248.175-.372.11-.235-.5-.151-.579-.135a2.132,2.132,0,0,0-.552.172c-.1.05-.247.112-.3.221q-.6,1.269-1.19,2.539H26.861q5.163-11.017,10.328-22.034l1.494-3.187c.322-.688-1.132-.593-1.366-.094L26.811,33.766q-.679,1.45-1.36,2.9H17.863l1.053-2.247.174-.371c.143-.3-.128-.506-.418-.52a1.043,1.043,0,0,0-.95.42q-.615,1.314-1.232,2.629l-.041.089H9.817l10.406-22.2,1.494-3.187c.13-.278-1.249-.158-1.434.236L9.777,33.931q-.64,1.368-1.283,2.737H8.257a9.976,9.976,0,0,1-1.711,0c-1.235-.228-.822-2.422-.822-3.369V23.788c0-5.873-.216-11.79,0-17.66A3.053,3.053,0,0,1,5.734,5.451Z"/><path class="cls-5" d="M26.263,54.518a1.037,1.037,0,0,0-.949.425c-.145.3.127.538.423.538h8a1.036,1.036,0,0,0,.949-.424c.145-.3-.127-.539-.423-.539h-8Z"/><path class="cls-5" d="M19.277,30.7c-.138.3.487.3.618.28a1.037,1.037,0,0,0,.828-.474q2.793-5.959,5.585-11.917L27.1,16.9c.138-.295-.487-.3-.618-.28a1.037,1.037,0,0,0-.828.474q-2.793,5.959-5.585,11.917Z"/><path class="cls-5" d="M36.278,30.7c-.179.383,1.237.242,1.444-.2l5.586-11.916L44.1,16.9c.179-.383-1.237-.242-1.444.2L37.067,29.016Z"/></svg>
