<svg id="Icons" height="512" viewBox="0 0 60 60" width="512" xmlns="http://www.w3.org/2000/svg"><path d="m21.02 37.471a.5.5 0 0 1 -.354-.854l1.214-1.217-3.161 1.826a.5.5 0 0 1 -.566-.821l4.489-3.648-4.362 2.52a.5.5 0 0 1 -.548-.835l5.4-3.992-4.85 2.8a.5.5 0 0 1 -.532-.845l3.821-2.617-3.29 1.9a.5.5 0 0 1 -.538-.842l6.891-4.855-6.353 3.668a.5.5 0 0 1 -.54-.841l7.343-5.226-6.8 3.928a.5.5 0 0 1 -.54-.841l5.523-3.927-4.983 2.877a.5.5 0 0 1 -.557-.827l4.773-3.721-4.219 2.436a.5.5 0 0 1 -.584-.8l3.176-2.849-2.592 1.5a.5.5 0 0 1 -.585-.8l.794-.714-.209.12a.5.5 0 0 1 -.7-.651l.549-1.129a.49.49 0 0 1 -.446-.25.5.5 0 0 1 .182-.683l1.128-.651a.5.5 0 0 1 .7.651l-.5 1.032 2.912-1.693a.5.5 0 0 1 .585.8l-.795.716 2.633-1.52a.5.5 0 0 1 .584.8l-3.176 2.854 6.33-3.654a.5.5 0 0 1 .557.828l-4.777 3.719 7.876-4.543a.5.5 0 0 1 .54.841l-5.524 3.926 6.753-3.9a.5.5 0 0 1 .54.841l-7.34 5.224 6.832-3.944a.5.5 0 0 1 .538.842l-6.895 4.858 4.954-2.86a.5.5 0 0 1 .533.846l-3.818 2.614 1.221-.705a.5.5 0 0 1 .548.835l-5.395 3.989 2.17-1.254a.5.5 0 0 1 .566.822l-4.488 3.648 1.013-.585a.5.5 0 0 1 .6.786l-2.185 2.185a.515.515 0 0 1 .09.115.5.5 0 0 1 -.183.682l-1.726 1a.5.5 0 0 1 -.247.065z" fill="#d6dbe3"/><path d="m24.7 41.471a.5.5 0 0 1 -.34-.867l.938-.868-2.583 1.492a.5.5 0 0 1 -.547-.835l1.024-.756-.916.528a.5.5 0 0 1 -.547-.835l3.8-2.807-3.249 1.877a.5.5 0 0 1 -.543-.838l5.57-4.02-5.028 2.9a.5.5 0 0 1 -.526-.849l1.7-1.123-1.169.674a.5.5 0 0 1 -.525-.849l1.909-1.259-1.384.8a.5.5 0 0 1 -.536-.843l6.42-4.483-5.884 3.4a.5.5 0 0 1 -.526-.849l1.923-1.273-1.4.806a.5.5 0 0 1 -.535-.844l3.379-2.35-2.846 1.643a.5.5 0 0 1 -.546-.836l2.922-2.14-2.376 1.372a.5.5 0 0 1 -.574-.814l2.835-2.413-2.261 1.305a.5.5 0 0 1 -.582-.807l.877-.778-.3.17a.5.5 0 0 1 -.7-.642l.588-1.278a.5.5 0 0 1 -.3-.93l1.128-.651a.5.5 0 0 1 .7.642l-.555 1.207 3.2-1.849a.5.5 0 0 1 .582.807l-.877.778 2.754-1.586a.5.5 0 0 1 .574.814l-2.834 2.412 5.589-3.226a.5.5 0 0 1 .546.837l-2.923 2.14 5.154-2.977a.5.5 0 0 1 .535.844l-3.378 2.351 5.224-3.017a.5.5 0 0 1 .527.85l-1.928 1.272 1.841-1.062a.5.5 0 0 1 .536.843l-6.419 4.483 5.887-3.4a.5.5 0 0 1 .525.851l-1.909 1.258.689-.4a.5.5 0 0 1 .527.85l-2.081 1.378a.512.512 0 0 1 .511.22.5.5 0 0 1 -.127.677l-5.566 4.018 2.441-1.409a.5.5 0 0 1 .547.835l-3.8 2.805.927-.535a.5.5 0 0 1 .547.835l-1.934 1.427a.5.5 0 0 1 .24.858l-1.969 1.82a.48.48 0 0 1 .127.145.5.5 0 0 1 -.183.683l-2.283 1.32a.49.49 0 0 1 -.254.071z" fill="#c7cbd3"/><g fill="#59b297"><path d="m30.557 57.448a.5.5 0 0 1 -.25-.932l22.476-12.977a.5.5 0 0 1 .527.849l-5.88 3.912 3.406-1.967a.5.5 0 0 1 .543.838l-4.326 3.119a.5.5 0 0 1 .246.933l-7.73 4.462a.5.5 0 0 1 -.543-.838l3.771-2.72-8.587 4.957a.5.5 0 0 1 -.526-.849l5.881-3.911-8.758 5.057a.494.494 0 0 1 -.25.067z"/><path d="m27.9 58.994a.5.5 0 0 1 -.336-.869l3.094-2.82-4.105 2.37a.5.5 0 0 1 -.585-.8l1.258-1.137-1.815 1.047a.5.5 0 0 1 -.653-.136.5.5 0 0 1 .065-.666l1.402-1.283-1.865 1.071a.5.5 0 0 1 -.577-.81l2.633-2.28a.466.466 0 0 1 -.047-.069.5.5 0 0 1 .183-.682l2.23-1.287a.5.5 0 0 1 .577.81l-.96.832 1.3-.748a.5.5 0 0 1 .588.8l-1.405 1.285 1.927-1.112a.5.5 0 0 1 .585.8l-1.258 1.137 4.03-2.326a.5.5 0 0 1 .587.8l-4.418 4.025a.476.476 0 0 1 .07.095.5.5 0 0 1 -.182.682l-2.072 1.2a.489.489 0 0 1 -.251.071z"/><path d="m44.321 48.453a.5.5 0 0 1 -.3-.9l4.894-3.765a.5.5 0 0 1 -.477-.861l2.133-1.723a.5.5 0 0 1 -.54-.837l.943-.738a.5.5 0 0 1 -.222-.882l.9-.715a.5.5 0 0 1 -.224-.877l.707-.582a.5.5 0 0 1 -.327-.857l1.9-1.865-.756.436a.5.5 0 0 1 -.584-.8l.705-.632a.5.5 0 0 1 -.587-.8l1.351-1.353-.6.346a.5.5 0 0 1 -.607-.782l1.213-1.242-.644.372a.5.5 0 0 1 -.616-.774l1.266-1.358-.792.457a.5.5 0 0 1 -.594-.8l.4-.38a.5.5 0 0 1 -.536-.8l1.157-1.307-.93.537a.5.5 0 0 1 -.633-.756l1.2-1.427-.99.571a.5.5 0 0 1 -.652-.73l1.351-1.829-1.386.8a.5.5 0 0 1 -.636-.75l1.041-1.269-1.041.6a.5.5 0 0 1 -.6-.791l.092-.09a.5.5 0 0 1 -.559-.785l.93-1.145-1.119.646a.5.5 0 0 1 -.613-.778l.4-.423-.425.246a.5.5 0 0 1 -.613-.777l.4-.422-.437.253a.5.5 0 0 1 -.653-.73l.987-1.332-1.462.844a.5.5 0 0 1 -.667-.709l1.063-1.612-1.659.958a.5.5 0 0 1 -.643-.743l.819-1.038-1.4.81a.5.5 0 0 1 -.618-.772l.48-.521-.873.5a.5.5 0 0 1 -.617-.77l.4-.427-.718.415a.5.5 0 0 1 -.633-.755l.672-.8-.679.392a.5.5 0 0 1 -.634-.752l.442-.535a.491.491 0 0 1 -.246-.214.5.5 0 0 1 .183-.683l1.622-.941a.5.5 0 0 1 .634.752l-.091.112.727-.421a.5.5 0 0 1 .633.755l-.673.8 1.186-.684a.5.5 0 0 1 .615.775l-.4.427.775-.448a.5.5 0 0 1 .618.771l-.479.522.832-.481a.5.5 0 0 1 .642.743l-.819 1.039 1.237-.715a.5.5 0 0 1 .667.709l-1.063 1.613 1.711-.989a.5.5 0 0 1 .652.731l-.985 1.331 1.311-.757a.5.5 0 0 1 .613.776l-.4.423.479-.277a.5.5 0 0 1 .612.779l-.4.423.456-.263a.5.5 0 0 1 .637.748l-.928 1.144 1.012-.585a.5.5 0 0 1 .6.792l-.075.074a.5.5 0 0 1 .6.768l-1.043 1.273 1.089-.629a.5.5 0 0 1 .652.731l-1.356 1.832 1.377-.794a.5.5 0 0 1 .633.755l-1.2 1.426 1.118-.645a.5.5 0 0 1 .625.764l-1.161 1.307.879-.508a.5.5 0 0 1 .594.8l-.369.351.027-.017a.5.5 0 0 1 .617.774l-1.267 1.36.9-.52a.5.5 0 0 1 .608.783l-1.214 1.242.725-.418a.5.5 0 0 1 .6.786l-1.345 1.35.864-.5a.5.5 0 0 1 .584.8l-.7.628.019-.01a.5.5 0 0 1 .6.79l-1.9 1.866 1.171-.676a.5.5 0 0 1 .568.819l-.595.49a.47.47 0 0 1 .439.217.5.5 0 0 1 -.1.672l-.6.478a.5.5 0 0 1 .308.893l-.653.511a.5.5 0 0 1 .313.889l-2.134 1.724.856-.495a.5.5 0 0 1 .555.829l-4.831 3.725 3-1.73a.5.5 0 1 1 .5.865l-9.545 5.511a.491.491 0 0 1 -.253.067z"/><path d="m30.968 9.425a.5.5 0 0 1 -.322-.882l.653-.551-.967.558a.5.5 0 0 1 -.615-.775l2.121-2.262-3.55 2.05a.5.5 0 0 1 -.612-.779l2.408-2.525-8.532 4.926a.5.5 0 0 1 -.5-.866l11.548-6.665a.5.5 0 0 1 .612.779l-2.412 2.526 3.464-2a.5.5 0 0 1 .615.775l-2.122 2.266 2.919-1.69a.5.5 0 0 1 .572.815l-2.64 2.227c.008.011.016.023.023.035a.5.5 0 0 1 -.183.683l-2.23 1.288a.489.489 0 0 1 -.25.067z"/><path d="m30.134 2.212a.5.5 0 0 1 -.25-.933l1.137-.656a.5.5 0 0 1 .5.866l-1.137.656a.5.5 0 0 1 -.25.067z"/><path d="m15.3 53.076a.5.5 0 0 1 -.4-.8l.806-1.052-1.451.838a.5.5 0 0 1 -.671-.7l1.028-1.607-1.929 1.113a.5.5 0 0 1 -.669-.7l1.033-1.591-1.71.988a.5.5 0 0 1 -.641-.745l.82-1.024-1.231.71a.5.5 0 0 1 -.631-.757l.719-.845-.976.563a.5.5 0 0 1 -.605-.784l.144-.145-.165.094a.5.5 0 0 1 -.657-.723l1.086-1.535-1.476.852a.5.5 0 0 1 -.652-.731l1.094-1.472-1.284.742a.5.5 0 0 1 -.631-.757l.87-1.023-.921.535a.5.5 0 0 1 -.622-.767l.776-.862-.744.428a.5.5 0 0 1 -.639-.746l1.165-1.447-1.114.643a.5.5 0 0 1 -.6-.786l.468-.468-.279.16a.5.5 0 0 1 -.611-.785l.57-.573-.306.177a.5.5 0 0 1 -.619-.769l1.087-1.194-.8.463a.5.5 0 0 1 -.632-.764l1.413-1.6-1.152.664a.5.5 0 0 1 -.616-.773l1.4-1.508-.914.527a.5.5 0 0 1 -.617-.773l1.69-1.816-1.212.7a.5.5 0 0 1 -.6-.793l1.36-1.316-.677.392a.5.5 0 0 1 -.579-.81l.714-.623-.039.022a.5.5 0 0 1 -.586-.8l1.52-1.378-.67.387a.5.5 0 0 1 -.59-.8l2.627-2.432-1.552.9a.5.5 0 0 1 -.581-.808l3.768-3.323-2.207 1.271a.5.5 0 0 1 -.546-.837l1.921-1.41-.476.276a.5.5 0 0 1 -.516-.857l1.374-.863a.5.5 0 0 1 -.529-.849l8.124-5.542-5.2 3a.5.5 0 0 1 -.55-.833l4.672-3.5a.491.491 0 0 1 -.3-.232.5.5 0 0 1 .183-.683l5.887-3.4a.5.5 0 0 1 .55.834l-3.66 2.739 9.451-5.457a.5.5 0 0 1 .532.846l-8.13 5.552 11.686-6.747a.5.5 0 0 1 .515.857l-15.488 9.729a.5.5 0 0 1 -.185.541l-2.915 2.136a.5.5 0 0 1 .218.863l-3.764 3.322 1.064-.614a.5.5 0 0 1 .59.8l-2.621 2.431.878-.507a.5.5 0 0 1 .586.8l-1.522 1.382.43-.248a.5.5 0 0 1 .579.81l-.816.713a.5.5 0 0 1 .445.85l-1.359 1.315.587-.339a.5.5 0 0 1 .616.774l-1.689 1.815.906-.523a.5.5 0 0 1 .616.773l-1.4 1.51.92-.532a.5.5 0 0 1 .623.765l-1.413 1.6.945-.545a.5.5 0 0 1 .619.769l-1.088 1.195.784-.453a.5.5 0 0 1 .6.786l-.569.571.277-.159a.5.5 0 0 1 .6.785l-.468.47.166-.1a.5.5 0 0 1 .64.746l-1.157 1.452 1.155-.667a.5.5 0 0 1 .622.767l-.775.861.7-.4a.5.5 0 0 1 .631.757l-.869 1.021.872-.5a.5.5 0 0 1 .651.731l-1.092 1.465 1.377-.8a.5.5 0 0 1 .658.723l-1.086 1.525 1.39-.8a.5.5 0 0 1 .606.784l-.143.144.259-.149a.5.5 0 0 1 .631.757l-.719.846 1.024-.592a.5.5 0 0 1 .641.745l-.82 1.024 1.218-.7a.5.5 0 0 1 .668.7l-1.033 1.59 1.9-1.1a.5.5 0 0 1 .671.7l-1.029 1.607 1.846-1.056a.5.5 0 0 1 .647.736l-.806 1.054.782-.45a.5.5 0 1 1 .5.866l-2.951 1.7a.489.489 0 0 1 -.249.07z"/></g><path d="m28.824 45.471a.5.5 0 0 1 -.281-.913l2.119-1.446-3.793 2.188a.5.5 0 0 1 -.536-.843l5.916-4.138-5.969 3.448a.5.5 0 0 1 -.532-.846l5.124-3.5-4.592 2.65a.5.5 0 0 1 -.534-.843l5.773-3.988-5.24 3.025a.5.5 0 0 1 -.54-.84l7.4-5.272-6.86 3.957a.5.5 0 0 1 -.536-.842l6.391-4.461-5.855 3.38a.5.5 0 0 1 -.53-.847l3.838-2.594-3.308 1.909a.5.5 0 0 1 -.539-.841l4.134-2.923-3.595 2.075a.5.5 0 0 1 -.554-.829l3.775-2.909-3.223 1.861a.5.5 0 0 1 -.568-.818l2.211-1.829-1.643.948a.5.5 0 0 1 -.635-.752l1.477-1.786-.842.486a.5.5 0 0 1 -.67-.7l.317-.49a.49.49 0 0 1 -.244-.213.5.5 0 0 1 .182-.683l1.128-.651a.5.5 0 0 1 .67.7l-.087.134 1.452-.838a.5.5 0 0 1 .636.752l-1.478 1.786 4.4-2.538a.5.5 0 0 1 .568.818l-2.21 1.828 4.583-2.643a.5.5 0 0 1 .555.829l-3.779 2.907 6.477-3.74a.5.5 0 0 1 .539.842l-4.134 2.923 6.143-3.546a.5.5 0 0 1 .53.847l-3.828 2.588 3.693-2.133a.5.5 0 0 1 .536.843l-6.394 4.463 5.859-3.382a.5.5 0 0 1 .54.84l-7.4 5.271 6.861-3.961a.5.5 0 0 1 .534.845l-5.772 3.986 5.237-3.022a.5.5 0 0 1 .532.846l-5.121 3.5 4.59-2.65a.5.5 0 0 1 .536.843l-5.915 4.138 5.379-3.106a.5.5 0 0 1 .531.846l-2.121 1.447 1.59-.918a.5.5 0 0 1 .567.819l-4.55 3.743 2.431-1.4a.5.5 0 0 1 .576.812l-3.329 2.869a.5.5 0 0 1 -.2.644l-1.686.972a.5.5 0 0 1 -.576-.811l1.118-.964-3.08 1.77a.5.5 0 0 1 -.567-.818l4.551-3.743-7.9 4.561a.5.5 0 0 1 -.253.071z" fill="#d6dbe3"/><path d="m36.029 44.268a.5.5 0 0 1 -.309-.893l.359-.283a.518.518 0 0 1 -.444-.192.5.5 0 0 1 .037-.656l.943-.966-.336.194a.5.5 0 0 1 -.677-.692l.374-.618a.5.5 0 0 1 -.111-.913l1.129-.651a.5.5 0 0 1 .678.691l-.209.345 1.8-1.036a.5.5 0 0 1 .607.782l-.941.964 2.371-1.372a.5.5 0 0 1 .559.825l-2.665 2.103.016.027a.5.5 0 0 1 -.183.682l-2.748 1.591a.493.493 0 0 1 -.25.068z" fill="#c7cbd3"/><path d="m45.326 13.782a23.171 23.171 0 0 1 3.019 3.582 22.68 22.68 0 0 1 -.53 26.249 22.131 22.131 0 0 1 -17.089 8.918c0-.831-.081-1.608-1.052-1.905a2.578 2.578 0 0 0 -2.366.687l-2.5 1.96c-.581.456-1.511.973-1.534 1.8s.842 1.31 1.424 1.766l2.5 1.961a2.219 2.219 0 0 0 2.339.484 1.8 1.8 0 0 0 1.178-1.881 28.224 28.224 0 0 0 25.169-17.673 27.234 27.234 0 0 0 -4.337-27.13 27.147 27.147 0 0 0 -3.315-3.389 11.03 11.03 0 0 0 -3.532-2.451c-2.4-.693-5.151 2.252-2.889 4.208 1.139.984 2.423 1.757 3.515 2.814zm-1.107-5.982a8.344 8.344 0 0 1 1.972 1.427q1 .8 1.917 1.69a26.659 26.659 0 0 1 .729 37.67 26.07 26.07 0 0 1 -18.568 7.966c-.258 0-1 .132-1 .53 0 .424.141 1.384-.564 1.267-.345-.058-.9-.7-1.17-.917-.652-.511-2.887-1.712-2.716-2.653.093-.516.584-.738.993-1.058l1.7-1.335c.259-.2.77-.8 1.1-.862.8-.149.654 1.086.654 1.558 0 .248.22.375.457.373 10.976-.083 20.949-7.576 23.424-18.4a23.24 23.24 0 0 0 -8.393-23.511c-.55-.43-1.244-.788-1.744-1.268-.879-.859-.835-3.183 1.209-2.477z" fill="#262626"/><path d="m11.767 50.784a10.979 10.979 0 0 0 3.533 2.449c2.394.683 5.16-2.243 2.892-4.2-1.139-.983-2.421-1.757-3.513-2.814a23.123 23.123 0 0 1 -3.019-3.583 22.691 22.691 0 0 1 .527-26.256 22.116 22.116 0 0 1 17.087-8.92c0 .833.076 1.612 1.05 1.907a2.6 2.6 0 0 0 2.375-.7l2.45-1.92c.585-.458 1.554-.985 1.578-1.832.025-.87-.9-1.353-1.5-1.818q-1.224-.96-2.45-1.919a2.206 2.206 0 0 0 -2.312-.458 1.8 1.8 0 0 0 -1.179 1.88 28.24 28.24 0 0 0 -25.169 17.672 27.227 27.227 0 0 0 7.65 30.512zm-.606-39.373a26.062 26.062 0 0 1 18.568-7.968c.251 0 1-.132 1-.524 0-.478-.185-1.463.465-1.345.366.067.976.765 1.264.991l1.687 1.322c.287.225.988.623 1.086 1.018.236.95-2.048 2.176-2.6 2.6-.313.246-.935.97-1.327 1.041-.678.122-.578-1.216-.578-1.632 0-.246-.221-.363-.454-.361-10.972.087-20.948 7.577-23.423 18.403a23.24 23.24 0 0 0 8.392 23.506 21.114 21.114 0 0 1 1.744 1.268c.88.85.848 3.183-1.2 2.48a8.325 8.325 0 0 1 -1.972-1.429q-1-.8-1.917-1.691a26.669 26.669 0 0 1 -.732-37.679z" fill="#262626"/><path d="m34.745 20.463c.078-1.307.35-3.379-.975-3.823a10.59 10.59 0 0 0 -3.111-.085h-10.706c-1.144 0-2.554.162-2.68 1.585-.09 1.015 0 2.079 0 3.1v11.604c0 1.061-.1 2.172 0 3.229.16 1.753 2.515 1.465 3.985 1.388-.013.864-.041 1.734.008 2.592.1 1.794 2.46 1.593 4.005 1.5-.006.8-.021 1.594 0 2.388.035 1.155.874 1.484 1.9 1.484h8.138c.02 0 .051-.005.074-.006a1.013 1.013 0 0 0 .109 0c.017 0 .031-.008.047-.01a1.84 1.84 0 0 0 .222-.048c.061-.014.124-.026.181-.044a1.218 1.218 0 0 0 .712-.348 10.581 10.581 0 0 0 1.464-1.369l3.275-3.274a6.531 6.531 0 0 0 1.1-1.211.563.563 0 0 0 .082-.087.264.264 0 0 0 .04-.166 1.556 1.556 0 0 0 .108-.427c.083-.9 0-1.838 0-2.737v-8.719c0-.875.154-1.94-.886-2.3a6.766 6.766 0 0 0 -2.122-.1h-.97c.067-1.31.375-3.447-.945-3.974a8.654 8.654 0 0 0 -3.055-.142zm-16.018 15.42a13 13 0 0 1 0-2.518v-14.571c0-.271-.026-.558 0-.828.054-.542-.118-.459.291-.521a26.212 26.212 0 0 1 3.791 0h5.559a29.615 29.615 0 0 1 4.181 0c.987.146.837 1.9.756 3.024h-9.513c-1.153 0-2.415.247-2.526 1.658-.082 1.041 0 2.121 0 3.164v11.264h-.975c-.67 0-1.382.179-1.564-.672zm19.132 6.54-1.133 1.132v-3.22a2.69 2.69 0 0 1 .029-.659 1.842 1.842 0 0 1 .137-.239h.053 3.9v.007c-.957 1.024-1.994 1.987-2.986 2.979zm2.2-16.994c.681 0 1.18.079 1.219.909.111 2.365 0 4.761 0 7.128v4.2a7.231 7.231 0 0 1 -.022.9h-3.733a2.761 2.761 0 0 0 -1.437.308 1.51 1.51 0 0 0 -.812 1.3c-.006.816 0 1.633 0 2.449v1.949h-6.225c-.739 0-2.129.311-2.323-.668a8.857 8.857 0 0 1 0-1.612v-15.309a6.986 6.986 0 0 1 .012-1.554c.249-.2 1.586 0 1.884 0h8.851a.978.978 0 0 0 .869 0zm-3.41-3.9c.633.1.621.606.621 1.188v1.852h-6.422c-1.468 0-5.3-.642-5.574 1.517a14.48 14.48 0 0 0 0 1.743v12.64h-1.191c-.619 0-1.188.162-1.349-.6a13.664 13.664 0 0 1 0-2.629v-14.42a4.684 4.684 0 0 1 0-.829c.1-.526.158-.4.493-.46a21.352 21.352 0 0 1 3.7 0h8.073a10.576 10.576 0 0 1 1.645 0z" fill="#262626"/><path d="m38.285 29.6h-8a1.183 1.183 0 0 0 -.958.391c-.169.285.145.409.388.409h8a1.183 1.183 0 0 0 .958-.391c.169-.285-.145-.409-.388-.409z" fill="#262626"/><path d="m38.261 34.513h-8a1.025 1.025 0 0 0 -.948.427c-.143.3.126.547.426.547h8a1.025 1.025 0 0 0 .948-.427c.143-.298-.126-.547-.426-.547z" fill="#262626"/><path d="m30.6 39.7h-.13a2.063 2.063 0 0 0 -.53.071 1.712 1.712 0 0 0 -.5.2l-.1.076a.156.156 0 0 0 -.068.14c.038.089.175.1.254.1h1a2.063 2.063 0 0 0 .53-.071 1.712 1.712 0 0 0 .5-.2l.1-.076a.156.156 0 0 0 .068-.14c-.038-.089-.175-.1-.254-.1z" fill="#262626"/></svg>