<svg id="Icons" height="512" viewBox="0 0 60 60" width="512" xmlns="http://www.w3.org/2000/svg"><path d="m3.973 11.471a.5.5 0 0 1 -.335-.871l3.5-3.162-5.438 3.14a.5.5 0 0 1 -.546-.836l2.12-1.554-1.994 1.15a.5.5 0 0 1 -.541-.838l1.334-.955-.794.455a.5.5 0 0 1 -.558-.826l2.722-2.14-2.164 1.251a.5.5 0 0 1 -.613-.776l2.205-2.332-1.592.923a.5.5 0 0 1 -.653-.729l.65-.886a.5.5 0 0 1 -.2-.93l1.624-.944a.5.5 0 0 1 .654.729l-.514.7 2.5-1.44a.5.5 0 0 1 .613.776l-2.207 2.331 5.265-3.039a.5.5 0 0 1 .558.826l-2.721 2.139 3.593-2.074a.5.5 0 0 1 .541.838l-1.328.951 1.066-.615a.5.5 0 0 1 .546.836l-2.12 1.554 1.575-.909a.5.5 0 0 1 .585.8l-3.5 3.163 2.915-1.677a.5.5 0 0 1 .588.8l-1.048.961.46-.261a.5.5 0 0 1 .648.734l-.606.8a.505.505 0 0 1 .341.242.5.5 0 0 1 -.182.683l-1.614.932a.5.5 0 0 1 -.649-.735l.42-.555-2.263 1.299a.5.5 0 0 1 -.587-.8l1.048-.962-3.054 1.762a.49.49 0 0 1 -.25.071z" fill="#d84557"/><path d="m5.686 27.471a.5.5 0 0 1 -.334-.872l1.713-1.537-3.979 2.3a.5.5 0 0 1 -.553-.831l1.854-1.409-2.631 1.515a.5.5 0 0 1 -.563-.823l4.272-3.427-4.185 2.413a.5.5 0 0 1 -.54-.84l.838-.6-.3.172a.5.5 0 0 1 -.563-.822l2.5-2.007-1.936 1.121a.5.5 0 0 1 -.588-.8l1.4-1.285-.812.469a.5.5 0 0 1 -.659-.721l.706-1a.5.5 0 0 1 -.25-.932l1.627-.94a.5.5 0 0 1 .659.721l-.616.875 2.79-1.61a.5.5 0 0 1 .588.8l-1.4 1.287 3.611-2.088a.5.5 0 0 1 .563.822l-2.498 2.005 3.744-2.161a.5.5 0 0 1 .54.839l-.832.593.78-.45a.5.5 0 0 1 .562.822l-4.272 3.43 3.8-2.192a.5.5 0 0 1 .552.831l-1.849 1.405 1.3-.748a.5.5 0 0 1 .584.8l-1.718 1.543 1.13-.653a.5.5 0 0 1 .673.7l-.854 1.354a.5.5 0 0 1 .382.915l-1.614.932a.5.5 0 0 1 -.673-.7l.835-1.325-3.534 2.038a.5.5 0 0 1 -.25.071z" fill="#347584"/><path d="m4.074 43.471a.5.5 0 0 1 -.315-.888l2.01-1.632-3.612 2.084a.5.5 0 0 1 -.548-.834l2.047-1.517-2.23 1.287a.5.5 0 0 1 -.547-.835l2.412-1.777-2.011 1.161a.5.5 0 0 1 -.544-.837l1.49-1.083-.947.546a.5.5 0 0 1 -.55-.832l1-.753-.45.258a.5.5 0 0 1 -.59-.8l1.444-1.341-.854.492a.5.5 0 0 1 -.657-.723l.688-.964a.5.5 0 0 1 -.237-.932l1.627-.94a.5.5 0 0 1 .657.723l-.584.818 2.7-1.555a.5.5 0 0 1 .59.8l-1.449 1.341 3.709-2.138a.5.5 0 0 1 .551.832l-1 .751 2.017-1.164a.5.5 0 0 1 .543.837l-1.482 1.079 1.614-.935a.5.5 0 0 1 .547.835l-2.42 1.785 2.027-1.169a.5.5 0 0 1 .548.834l-2.048 1.515 1.5-.866a.5.5 0 0 1 .565.82l-2.009 1.636 1.445-.833a.5.5 0 0 1 .591.8l-1.06.99.469-.271a.5.5 0 0 1 .637.748l-.531.654a.5.5 0 0 1 .136.919l-1.748 1.003a.5.5 0 0 1 -.638-.748l.289-.355-1.913 1.103a.5.5 0 0 1 -.591-.8l1.063-.991-3.101 1.791a.493.493 0 0 1 -.25.071z" fill="#347584"/><path d="m4.964 59.471a.5.5 0 0 1 -.345-.863l2.972-2.83-5.51 3.181a.5.5 0 0 1 -.55-.833l2.427-1.816-2.579 1.49a.5.5 0 0 1 -.541-.839l1.348-.965-.906.523a.5.5 0 0 1 -.575-.819l4.083-3.5-3.509 2.026a.5.5 0 0 1 -.607-.783l2.111-2.154-1.5.867a.5.5 0 0 1 -.656-.723l.681-.951a.5.5 0 0 1 -.231-.933l1.623-.938a.5.5 0 0 1 .656.724l-.571.8 2.661-1.535a.5.5 0 0 1 .608.782l-2.112 2.152 5-2.885a.5.5 0 0 1 .576.813l-4.081 3.5 5.129-2.962a.5.5 0 0 1 .541.839l-1.356.971.969-.559a.5.5 0 0 1 .55.833l-2.425 1.816 1.876-1.082a.5.5 0 0 1 .594.8l-2.971 2.83 2.377-1.372a.5.5 0 0 1 .628.761l-1.057 1.218.354-.2a.5.5 0 0 1 .5.865l-2.933 1.68a.5.5 0 0 1 -.628-.76l1.056-1.217-3.427 1.977a.49.49 0 0 1 -.25.071z" fill="#347584"/><path d="m29.828 27.471a.5.5 0 0 1 -.336-.87l1.677-1.521-3.989 2.3a.5.5 0 0 1 -.571-.817l3.574-2.98-4.672 2.7a.5.5 0 0 1 -.559-.826l4.027-3.164-3.7 2.135a.5.5 0 0 1 -.543-.838l1.194-.863-.652.376a.5.5 0 0 1 -.547-.835l.522-.385a.5.5 0 0 1 -.55-.827l1.049-.9-.474.274a.5.5 0 0 1 -.669-.7l.814-1.251a.5.5 0 0 1 -.351-.923l1.627-.94a.5.5 0 0 1 .669.7l-.783 1.205 3.334-1.921a.5.5 0 0 1 .575.812l-1.052.9 2.97-1.714a.5.5 0 0 1 .547.835l-.514.38 1.423-.822a.5.5 0 0 1 .543.838l-1.194.863 1.329-.766a.5.5 0 0 1 .558.826l-4.024 3.162 3.64-2.1a.5.5 0 0 1 .57.816l-3.573 2.979 3-1.733a.5.5 0 0 1 .586.8l-1.671 1.524 1.089-.629a.5.5 0 0 1 .67.7l-.816 1.26a.5.5 0 0 1 .347.923l-1.614.932a.5.5 0 0 1 -.67-.7l.783-1.21-3.343 1.924a.49.49 0 0 1 -.25.071z" fill="#347584"/><path d="m51.957 27.471a.5.5 0 0 1 -.331-.874l3.3-2.925-5.156 2.978a.5.5 0 0 1 -.542-.837l1.434-1.036-1.349.779a.5.5 0 0 1 -.548-.834l2.693-2-2.179 1.258a.5.5 0 0 1 -.572-.816l3.407-2.868-2.835 1.634a.5.5 0 0 1 -.6-.793l1.689-1.628-1.093.631a.5.5 0 0 1 -.655-.726l.672-.932a.5.5 0 0 1 -.223-.931l1.627-.94a.5.5 0 0 1 .655.726l-.555.77 2.616-1.51a.5.5 0 0 1 .6.793l-1.692 1.63 4.2-2.423a.5.5 0 0 1 .572.815l-3.407 2.867 4.741-2.736a.5.5 0 0 1 .549.834l-2.69 2 2.436-1.406a.5.5 0 0 1 .542.838l-1.435 1.035.894-.516a.5.5 0 0 1 .581.807l-3.303 2.926 2.723-1.572a.5.5 0 0 1 .6.788l-1.33 1.313.728-.42a.5.5 0 0 1 .637.748l-.515.635a.489.489 0 0 1 .261.219.5.5 0 0 1 -.182.683l-1.614.932a.5.5 0 0 1 -.638-.748l.2-.245-1.751 1.006a.5.5 0 0 1 -.6-.788l1.33-1.313-3.641 2.1a.49.49 0 0 1 -.251.072z" fill="#31b791"/><path d="m30.342 43.471a.5.5 0 0 1 -.354-.854l1.94-1.938-4.7 2.716a.5.5 0 0 1 -.564-.823l2.945-2.372-3.989 2.3a.5.5 0 0 1 -.552-.831l3.132-2.364-2.92 1.683a.5.5 0 0 1 -.541-.839l1.136-.813-.6.344a.5.5 0 0 1 -.559-.826l2.434-1.917-1.875 1.082a.5.5 0 0 1 -.576-.812l1.247-1.072-.671.386a.5.5 0 0 1 -.673-.7l.858-1.358a.5.5 0 0 1 -.573-.231.5.5 0 0 1 .182-.682l1.627-.94a.5.5 0 0 1 .673.7l-.841 1.333 3.55-2.043a.5.5 0 0 1 .576.811l-1.249 1.073 3.267-1.884a.5.5 0 0 1 .559.825l-2.431 1.916 3.439-1.986a.5.5 0 0 1 .541.839l-1.131.811 1.032-.6a.5.5 0 0 1 .552.831l-3.133 2.37 2.62-1.512a.5.5 0 0 1 .563.822l-2.949 2.373 2.386-1.377a.5.5 0 0 1 .6.786l-1.938 1.938 1.335-.771a.5.5 0 0 1 .655.725l-.672.933a.5.5 0 0 1 .218.932l-1.614.932a.5.5 0 0 1 -.656-.725l.552-.762-2.608 1.5a.49.49 0 0 1 -.25.071z" fill="#d84557"/><path d="m28.39 59.471a.5.5 0 0 1 -.32-.885l2.045-1.7-3.869 2.233a.5.5 0 0 1 -.547-.835l1.771-1.3-2 1.154a.5.5 0 0 1 -.543-.838l1.8-1.3-1.45.837a.5.5 0 0 1 -.553-.83l2.916-2.224-2.361 1.357a.5.5 0 0 1 -.55-.832l.994-.749-.444.255a.5.5 0 0 1 -.605-.785l1.683-1.7-1.078.622a.5.5 0 0 1 -.645-.739l.578-.746a.5.5 0 0 1 -.139-.921l1.627-.938a.5.5 0 0 1 .646.74l-.362.465 2.116-1.212a.5.5 0 0 1 .6.785l-1.683 1.7 4.3-2.482a.5.5 0 0 1 .551.832l-1 .749 2.018-1.164a.5.5 0 0 1 .553.83l-2.914 2.223 3.109-1.8a.5.5 0 0 1 .543.838l-1.807 1.308 1.344-.775a.5.5 0 0 1 .547.835l-1.767 1.3 1.221-.7a.5.5 0 0 1 .569.818l-2.044 1.7 1.475-.852a.5.5 0 0 1 .66.718l-1.364 1.961.562-.324a.5.5 0 1 1 .5.865l-2.5 1.444a.5.5 0 0 1 -.66-.717l1.364-1.961-4.637 2.669a.493.493 0 0 1 -.25.071z" fill="#d84557"/><g fill="#262626"><path d="m11.724 4.187c0-1.241.139-2.606-1.2-3.254a3.308 3.308 0 0 0 -1.5-.24h-1.863c-1.213 0-2.427-.005-3.641 0-1.637.007-3.235.892-3.244 2.669-.007 1.272 0 2.544 0 3.816 0 1.088-.243 2.515.541 3.394.92 1.033 2.685.735 3.925.735h3.791.03.127a3.237 3.237 0 0 0 2.81-1.534 3.028 3.028 0 0 0 .22-1.412zm-1.448 3.271v1.6c0 .558-.265 1.607-.963 1.634-1.929 0-3.864.046-5.793 0a1.813 1.813 0 0 1 -1.685-1.23 3.452 3.452 0 0 1 -.111-1.162v-3.758c0-.943-.219-2.274.52-3 .292-.288.412-.232.821-.232h5.263a1.928 1.928 0 0 1 1.948 2.134z"/><path d="m10.485 16.907a3.542 3.542 0 0 0 -1.573-.239h-1.912c-1.2 0-2.412-.013-3.618 0a2.855 2.855 0 0 0 -3.1 2.694c-.007 1.3 0 2.607 0 3.91 0 1.12-.239 2.532.631 3.4.953.953 2.766.658 4 .658h3.787a3.206 3.206 0 0 0 2.809-1.551 3.034 3.034 0 0 0 .218-1.42v-4.172c0-.442.011-.886 0-1.328a2.163 2.163 0 0 0 -1.242-1.952zm-.209 6.551c0 .534.006 1.068 0 1.6-.007.564-.268 1.584-.973 1.608-1.974 0-3.963.077-5.935 0a1.811 1.811 0 0 1 -1.568-1.328 4.125 4.125 0 0 1 -.072-1.093v-3.794c0-.946-.226-2.312.617-2.98a1.3 1.3 0 0 1 .858-.139h5.247a1.9 1.9 0 0 1 1.826 2.109z"/><path d="m4.943 43.472h3.792c.027 0 .059-.005.087-.006s.069 0 .1 0a2.928 2.928 0 0 0 2.655-1.761 3.6 3.6 0 0 0 .155-1.341v-4.223c0-.4.007-.8 0-1.193a2.352 2.352 0 0 0 -1.332-2.148 8.357 8.357 0 0 0 -3.444-.27c-1.214 0-2.428-.007-3.641 0a2.841 2.841 0 0 0 -3.044 2.789v3.925c0 1.137-.233 2.59.647 3.473 1.025 1.027 2.703.755 4.025.755zm-2.595-9.854c.3-.2.517-.146.918-.146h5.263a1.72 1.72 0 0 1 1.742 1.939v4.1c0 1.006.276 2.955-1.182 3.013-1.923 0-3.849.04-5.77 0a1.585 1.585 0 0 1 -1.519-1.186 3.852 3.852 0 0 1 -.071-1.038v-3.82c0-.88-.229-2.3.619-2.862z"/><path d="m5.153 59.565h3.792a2.885 2.885 0 0 0 2.642-1.807 3.916 3.916 0 0 0 .15-1.365v-4.226c0-.4.009-.8 0-1.193a2.508 2.508 0 0 0 -1.43-2.276 3.684 3.684 0 0 0 -1.642-.263h-1.916c-1.2 0-2.412-.013-3.618 0a2.818 2.818 0 0 0 -2.868 2.858v4.016c0 1.223-.209 2.613.769 3.542 1.044.99 2.796.714 4.121.714zm-2.719-9.892a2.283 2.283 0 0 1 1.012-.108h5.254c1.07 0 1.565.835 1.565 1.82v4.105c0 1.02.28 2.895-1.208 2.945-1.971 0-3.968.1-5.935 0a1.478 1.478 0 0 1 -1.355-1.226 5.129 5.129 0 0 1 -.028-.944v-3.843c-.002-.862-.239-2.281.695-2.749z"/><path d="m34.52 16.939a3.372 3.372 0 0 0 -1.494-.231h-1.861c-1.213 0-2.428-.016-3.641 0-1.625.021-3.239.877-3.248 2.654-.007 1.272 0 2.544 0 3.816 0 1.083-.244 2.514.539 3.388.919 1.025 2.687.726 3.923.726h3.791.035.121a3.261 3.261 0 0 0 2.818-1.52 3.017 3.017 0 0 0 .221-1.406v-4.179c0-1.233.142-2.613-1.204-3.248zm-.244 6.519v1.6c0 .579-.292 1.607-.943 1.649-1.935 0-3.876.054-5.809 0a1.835 1.835 0 0 1 -1.689-1.245 3.452 3.452 0 0 1 -.111-1.159v-3.761c0-.954-.216-2.269.517-3.013.29-.295.384-.237.82-.237h5.262a1.945 1.945 0 0 1 1.953 2.149z"/><path d="m52.9 27.32h3.792a3.222 3.222 0 0 0 2.811-1.543 3.017 3.017 0 0 0 .219-1.416v-4.174c0-.442.011-.886 0-1.328a2.147 2.147 0 0 0 -1.237-1.945 3.577 3.577 0 0 0 -1.571-.234h-1.914c-1.2 0-2.412-.013-3.617 0a2.855 2.855 0 0 0 -3.107 2.682c-.007 1.3 0 2.607 0 3.91 0 1.12-.239 2.529.63 3.4.947.945 2.77.648 3.994.648zm-3.1-1.982a4.125 4.125 0 0 1 -.072-1.093v-3.794c0-.952-.225-2.312.615-2.99a1.272 1.272 0 0 1 .856-.141h5.252a1.915 1.915 0 0 1 1.829 2.121v4.017 1.6c-.006.563-.266 1.6-.97 1.62-1.972 0-3.965.088-5.935 0a1.832 1.832 0 0 1 -1.575-1.34z"/><path d="m28.934 43.438h3.792a1.673 1.673 0 0 0 .274-.023 2.967 2.967 0 0 0 2.524-1.6 3.21 3.21 0 0 0 .2-1.394v-4.2c0-.421 0-.841 0-1.262a2.31 2.31 0 0 0 -1.259-2.107c-1-.5-2.426-.283-3.5-.283-1.206 0-2.412-.014-3.618 0a2.849 2.849 0 0 0 -3.078 2.726v3.966c0 1.13-.234 2.576.642 3.452 1.013 1.002 2.723.725 4.023.725zm-2.6-9.854a1.448 1.448 0 0 1 .888-.146h5.252a1.753 1.753 0 0 1 1.794 1.936v4.063 1.542c-.005.585-.257 1.557-1 1.583-1.977 0-3.957.024-5.935 0a1.622 1.622 0 0 1 -1.533-1.224 3.886 3.886 0 0 1 -.069-1.044v-3.821c-.004-.888-.231-2.305.608-2.889z"/><path d="m35.505 57.774a3.032 3.032 0 0 0 .219-1.413v-4.174c0-1.243.138-2.6-1.206-3.255a3.294 3.294 0 0 0 -1.5-.243h-1.858c-1.213 0-2.427 0-3.641 0-1.64 0-3.234.9-3.243 2.673-.007 1.272 0 2.544 0 3.816 0 1.094-.24 2.507.541 3.4.913 1.037 2.691.738 3.926.738h3.791.029.128a3.238 3.238 0 0 0 2.814-1.542zm-7.986.915a1.806 1.806 0 0 1 -1.684-1.226 3.452 3.452 0 0 1 -.111-1.159v-3.762c0-.941-.22-2.275.52-3 .293-.287.414-.231.822-.231h5.262a1.924 1.924 0 0 1 1.948 2.13v4.017 1.6c0 .56-.266 1.607-.967 1.63-1.929.005-3.862.047-5.79.001z"/><path d="m52.833 23.307a.712.712 0 0 0 .591.178 1 1 0 0 0 .674-.3l1.312-1.755.188-.249a.433.433 0 0 0 .126-.375.418.418 0 0 0 -.3-.261 1.01 1.01 0 0 0 -.548 0 .93.93 0 0 0 -.477.269q-.466.624-.935 1.247a.984.984 0 0 0 -.776.052.773.773 0 0 0 -.377.322.324.324 0 0 0 .019.367q.254.254.503.505z"/><path d="m6.891 5.939.468-.468.249-.25a.471.471 0 0 0 .116-.415.478.478 0 0 0 -.308-.3 1 1 0 0 0 -1.024.275l-.331.33-.138-.138-.249-.249a.593.593 0 0 0 -.387-.114 1.438 1.438 0 0 0 -.568.115c-.157.07-.622.326-.393.555l.783.783-.468.468-.249.25a.471.471 0 0 0 -.116.415.478.478 0 0 0 .308.3 1 1 0 0 0 1.024-.275l.331-.33.138.138.249.249a.593.593 0 0 0 .387.114 1.438 1.438 0 0 0 .568-.115c.157-.07.622-.326.393-.555z"/><path d="m29.176 38.115-.509.51-.25.25c-.079.079-.175.2-.141.319a.353.353 0 0 0 .282.206 1.183 1.183 0 0 0 .542-.028 1.13 1.13 0 0 0 .483-.247l.3-.3.187.187.249.249c.079.079.282.077.377.074a1.738 1.738 0 0 0 .565-.122c.132-.053.62-.268.416-.472l-.855-.855.509-.51.25-.25c.079-.079.175-.2.141-.319a.353.353 0 0 0 -.282-.206 1.183 1.183 0 0 0 -.542.028 1.13 1.13 0 0 0 -.483.247l-.3.3-.187-.187-.249-.249a.6.6 0 0 0 -.377-.074 1.738 1.738 0 0 0 -.565.122c-.132.053-.62.268-.416.472z"/><path d="m30.9 53.927.461-.461.249-.249a.467.467 0 0 0 .117-.411.473.473 0 0 0 -.307-.3 1.013 1.013 0 0 0 -1.024.275l-.32.32-.156-.156-.249-.249a.891.891 0 0 0 -.973-.065.785.785 0 0 0 -.379.316.305.305 0 0 0 .016.353l.771.771-.461.461-.249.249a.467.467 0 0 0 -.117.411.473.473 0 0 0 .307.3 1.013 1.013 0 0 0 1.024-.275l.32-.32.156.156.249.249a.891.891 0 0 0 .973.065.785.785 0 0 0 .379-.316.305.305 0 0 0 -.016-.353z"/><path d="m14.705 22.362h6a1.286 1.286 0 0 0 .962-.375c.192-.273-.167-.349-.372-.349h-6a1.286 1.286 0 0 0 -.962.375c-.192.273.167.349.372.349z"/><path d="m44.7 22.325a1.4 1.4 0 0 0 .966-.36c.206-.258-.182-.29-.356-.29h-6a1.4 1.4 0 0 0 -.966.36c-.206.258.182.29.356.29z"/><path d="m14.727 38.444h6a1.109 1.109 0 0 0 .953-.409c.17-.291-.146-.479-.407-.479h-6a1.109 1.109 0 0 0 -.953.409c-.17.291.146.479.407.479z"/><path d="m21.291 53.623h-6a1.246 1.246 0 0 0 -.96.382c-.187.276.161.371.378.371h6a1.245 1.245 0 0 0 .96-.381c.187-.277-.161-.372-.378-.372z"/></g></svg>