<svg id="Icons" height="512" viewBox="0 0 60 60" width="512" xmlns="http://www.w3.org/2000/svg"><path d="m15.967 55.471a.5.5 0 0 1 -.3-.9l.092-.07-1.561.9a.5.5 0 0 1 -.595-.794l2.162-2.065-4.954 2.858a.5.5 0 0 1 -.582-.807l1.848-1.628-4.219 2.435a.5.5 0 0 1 -.61-.779l2.3-2.391-5.228 3.024a.5.5 0 0 1 -.587-.8l1.85-1.688-2.883 1.663a.5.5 0 0 1 -.572-.816l.387-.325-.554.319a.5.5 0 0 1 -.609-.78l.554-.572-.45.26a.5.5 0 0 1 -.672-.7l.4-.623a.5.5 0 0 1 -.1-.911l1.179-.681a.5.5 0 0 1 .672.7l-.208.326 1.781-1.026a.5.5 0 0 1 .609.78l-.556.574 2.346-1.354a.5.5 0 0 1 .572.815l-.384.323 1.973-1.138a.5.5 0 0 1 .587.8l-1.847 1.686 4.313-2.49a.5.5 0 0 1 .61.779l-2.3 2.391 5.489-3.166a.5.5 0 0 1 .581.807l-1.848 1.623 4.219-2.43a.5.5 0 0 1 .6.794l-2.162 2.064 4.953-2.859a.5.5 0 0 1 .552.831l-.095.072 1.564-.9a.5.5 0 0 1 .587.8l-2 1.822 4.545-2.624a.5.5 0 0 1 .617.772l-2.333 2.511 5.7-3.29a.5.5 0 0 1 .555.828l-.5.386 2.1-1.214a.5.5 0 0 1 .611.778l-2.31 2.409 5.523-3.188a.5.5 0 0 1 .6.784l-2.277 2.307 5.356-3.092a.5.5 0 0 1 .585.8l-1.962 1.767 4.455-2.571a.5.5 0 0 1 .6.786l-2.263 2.267 5.297-3.05a.5.5 0 0 1 .577.81l-1.754 1.521 4.038-2.331a.5.5 0 0 1 .6.792l-2.2 2.137 5.076-2.93a.5.5 0 0 1 .563.822l-1.119.9 2.987-1.724a.5.5 0 0 1 .609.781l-2.3 2.365 3.838-2.214a.5.5 0 0 1 .628.759l-1.46 1.691.112-.065a.5.5 0 1 1 .5.865l-2.676 1.545a.5.5 0 0 1 -.628-.759l1.461-1.692-4.402 2.537a.5.5 0 0 1 -.609-.781l2.3-2.365-5.45 3.146a.5.5 0 0 1 -.564-.822l1.12-.9-2.988 1.722a.5.5 0 0 1 -.6-.792l2.2-2.136-5.068 2.928a.5.5 0 0 1 -.578-.81l1.753-1.52-4.036 2.33a.5.5 0 0 1 -.6-.786l2.263-2.267-5.293 3.053a.5.5 0 0 1 -.585-.8l1.96-1.767-4.451 2.567a.5.5 0 0 1 -.6-.784l2.278-2.307-5.361 3.091a.5.5 0 0 1 -.612-.778l2.311-2.408-5.523 3.186a.5.5 0 0 1 -.555-.828l.5-.386-2.1 1.214a.5.5 0 0 1 -.617-.772l2.332-2.517-5.7 3.289a.5.5 0 0 1 -.587-.8l2-1.822-4.543 2.622a.493.493 0 0 1 -.25.071z" fill="#b9bfcc"/><path d="m13.694 51.47a.5.5 0 0 1 -.268-.922l.982-.626-2.564 1.478a.5.5 0 0 1 -.528-.848l6.325-4.205-8.755 5.053a.5.5 0 0 1 -.53-.847l7.255-4.887-9.933 5.734a.5.5 0 0 1 -.528-.848l6.519-4.346-9 5.194a.5.5 0 0 1 -.524-.851l4.408-2.873-4.493 2.596a.5.5 0 0 1 -.533-.844l6.521-4.466-3.981 2.3a.5.5 0 0 1 -.547-.834l4.893-3.638-2.22 1.281a.5.5 0 0 1 -.559-.825l1.966-1.552a.484.484 0 0 1 -.421-.188.5.5 0 0 1 .026-.652l2.347-2.509a.5.5 0 0 1 .249-.47l.481-.278a.5.5 0 0 1 .615.774l-.663.709 2.574-1.48a.5.5 0 0 1 .559.825l-1.679 1.324 3.727-2.151a.5.5 0 0 1 .548.834l-4.895 3.636 7.748-4.473a.5.5 0 0 1 .533.845l-6.529 4.47 9.212-5.317a.5.5 0 0 1 .524.851l-4.4 2.869 6.444-3.728a.5.5 0 0 1 .528.849l-6.525 4.349 9.009-5.2a.5.5 0 0 1 .53.848l-7.242 4.884 9.933-5.735a.5.5 0 0 1 .527.849l-6.326 4.207 8.761-5.058a.5.5 0 0 1 .519.855l-.98.623 2.565-1.48a.5.5 0 0 1 .524.851l-5.353 3.52 7.576-4.373a.5.5 0 0 1 .537.842l-9.127 6.39 12.531-7.235a.5.5 0 0 1 .527.849l-6.694 4.469 9.216-5.321a.5.5 0 0 1 .533.845l-8.469 5.832 11.571-6.68a.5.5 0 0 1 .519.854l-2.155 1.381 2.072-1.2a.5.5 0 0 1 .533.845l-6.908 4.755 8.042-4.642a.5.5 0 0 1 .543.838l-7.258 5.242 7.776-4.489a.5.5 0 0 1 .537.842l-4.139 2.909 4.405-2.543a.5.5 0 0 1 .556.829l-4.713 3.643 5.155-2.975a.5.5 0 0 1 .543.837l-1.309.947 1.412-.816a.5.5 0 0 1 .567.82l-2.244 1.839 2.495-1.441a.5.5 0 0 1 .6.794l-1.7 1.625 1.961-1.132a.5.5 0 0 1 .656.725l-.951 1.324 1.2-.692a.5.5 0 0 1 .735.313l.3 1.207a.5.5 0 0 1 .488.873l-.564.325a.5.5 0 0 1 -.735-.313l-.3-1.207-2.642 1.518a.5.5 0 0 1 -.656-.724l.951-1.324-3.549 2.048a.5.5 0 0 1 -.6-.794l1.7-1.626-4.188 2.42a.5.5 0 0 1 -.567-.819l2.245-1.84-4.607 2.659a.5.5 0 0 1 -.543-.838l1.3-.94-3.079 1.778a.5.5 0 0 1 -.555-.828l4.714-3.645-7.75 4.473a.5.5 0 0 1 -.537-.841l4.137-2.906-6.49 3.747a.5.5 0 0 1 -.543-.838l7.259-5.243-10.535 6.081a.5.5 0 0 1 -.533-.844l6.9-4.747-9.683 5.591a.5.5 0 0 1 -.519-.853l2.155-1.382-3.875 2.235a.5.5 0 0 1 -.533-.844l8.469-5.832-11.563 6.676a.5.5 0 0 1 -.527-.848l6.693-4.472-9.216 5.32a.5.5 0 0 1 -.537-.841l9.125-6.388-12.524 7.229a.5.5 0 0 1 -.524-.85l5.351-3.519-7.57 4.369a.5.5 0 0 1 -.25.07z" fill="#ccd0da"/><path d="m12.36 39.471a.5.5 0 0 1 -.259-.928l.444-.27-1.957 1.127a.5.5 0 0 1 -.513-.858l12.3-7.583-13.5 7.792a.5.5 0 0 1 -.513-.858l15.627-9.673-15.709 9.072a.5.5 0 0 1 -.51-.859l9.192-5.613-8.682 5.012a.5.5 0 0 1 -.511-.858l11.931-7.321-11.42 6.594a.5.5 0 0 1 -.511-.859l11.284-6.913-10.773 6.218a.5.5 0 0 1 -.514-.856l18.747-11.715-18.233 10.526a.5.5 0 0 1 -.517-.855l19.005-12.027-18.489 10.674a.5.5 0 0 1 -.514-.857l12.285-7.672-11.771 6.8a.5.5 0 0 1 -.512-.858l6.458-4-5.946 3.432a.5.5 0 0 1 -.511-.859l1.49-.917-.979.566a.5.5 0 0 1 -.523-.852l13.114-8.553-12.591 7.27a.5.5 0 0 1 -.525-.851l10.913-7.189-10.388 6a.5.5 0 0 1 -.521-.853l5.7-3.689-5.179 2.984a.5.5 0 0 1 -.522-.853l3.751-2.434-3.229 1.864a.5.5 0 0 1 -.533-.845l6.094-4.181-5.561 3.207a.5.5 0 0 1 -.538-.843l4.554-3.2-4.016 2.321a.5.5 0 0 1 -.545-.837l3.257-2.374-2.712 1.566a.5.5 0 0 1 -.563-.822l2.755-2.22-2.192 1.266a.5.5 0 0 1 -.557-.828l.354-.276a.512.512 0 0 1 -.4-.145.5.5 0 0 1 -.076-.608l.98-1.69a.5.5 0 0 1 -.5-.866l1.62-.934a.5.5 0 0 1 .683.684l-.983 1.691 4.138-2.385a.5.5 0 0 1 .558.827l-.096.073 1.561-.9a.5.5 0 0 1 .563.822l-2.756 2.219 5.273-3.041a.5.5 0 0 1 .545.837l-3.255 2.369 5.557-3.206a.5.5 0 0 1 .538.842l-4.555 3.2 7.007-4.042a.5.5 0 0 1 .533.845l-6.092 4.176 8.7-5.025a.5.5 0 0 1 .523.853l-3.75 2.436 5.7-3.289a.5.5 0 0 1 .521.853l-5.713 3.69 7.872-4.539a.5.5 0 0 1 .526.851l-10.912 7.19 13.933-8.041a.5.5 0 0 1 .524.852l-13.114 8.548 16.288-9.4a.5.5 0 0 1 .511.859l-1.492.918 3.077-1.777a.5.5 0 0 1 .513.859l-6.47 4 8.421-4.859a.5.5 0 0 1 .515.858l-12.281 7.665 14.768-8.523a.5.5 0 0 1 .518.855l-19 12.025 21.717-12.543a.5.5 0 0 1 .515.856l-18.743 11.713 19.108-11.032a.5.5 0 0 1 .512.859l-11.273 6.907 10.787-6.228a.5.5 0 0 1 .511.86l-11.944 7.328 11.433-6.6a.5.5 0 0 1 .51.86l-9.18 5.6 8.67-5.006a.5.5 0 0 1 .512.859l-15.632 9.679 15.12-8.729a.5.5 0 0 1 .512.859l-12.312 7.592 11.8-6.813a.5.5 0 0 1 .509.861l-.48.291a.5.5 0 0 1 .481.875l-4.2 2.572 3.691-2.13a.5.5 0 0 1 .511.859l-4.121 2.533 3.61-2.084a.5.5 0 0 1 .512.858l-3.672 2.264 3.16-1.824a.5.5 0 0 1 .514.857l-5.108 3.182 4.594-2.652a.5.5 0 0 1 .519.854l-8.866 5.668 8.347-4.819a.5.5 0 0 1 .515.857l-2.477 1.556 1.962-1.133a.5.5 0 0 1 .516.857l-.714.448.2-.114a.5.5 0 0 1 .519.854l-2.914 1.87 2.395-1.383a.5.5 0 0 1 .534.845l-7.294 5.038 6.76-3.9a.5.5 0 0 1 .526.85l-1.94 1.289 1.412-.815a.5.5 0 0 1 .549.833l-4.93 3.682 4.381-2.529a.5.5 0 0 1 .54.839l-1.015.724.475-.273a.5.5 0 0 1 .567.819l-1.973 1.62 1.406-.811a.5.5 0 0 1 .64.745l-1.421 1.781.716-.413a.5.5 0 1 1 .5.865l-3.006 1.733a.5.5 0 0 1 -.64-.744l1.421-1.781-4.375 2.525a.5.5 0 0 1 -.568-.819l1.973-1.621-4.228 2.44a.5.5 0 0 1 -.54-.839l1-.715-2.693 1.554a.5.5 0 0 1 -.549-.833l4.933-3.684-7.824 4.517a.5.5 0 0 1 -.527-.848l1.945-1.293-3.71 2.141a.5.5 0 0 1 -.535-.843l7.292-5.039-10.187 5.882a.5.5 0 0 1 -.52-.853l2.915-1.871-4.718 2.724a.5.5 0 0 1 -.517-.855l.723-.454-2.27 1.309a.5.5 0 0 1 -.515-.856l2.478-1.557-4.18 2.413a.5.5 0 0 1 -.519-.853l8.862-5.666-11.293 6.519a.5.5 0 0 1 -.514-.857l5.115-3.186-7 4.043a.5.5 0 0 1 -.513-.858l3.68-2.27-5.423 3.128a.5.5 0 0 1 -.512-.858l4.119-2.532-5.873 3.39a.5.5 0 0 1 -.51-.859l4.2-2.57-5.943 3.429a.5.5 0 0 1 -.25.071z" fill="#464c56"/><path d="m20.384 35.471a.5.5 0 0 1 -.267-.923l6.154-3.884-8.21 4.736a.5.5 0 0 1 -.514-.857l3.438-2.134-5.185 2.991a.5.5 0 0 1 -.512-.859l.053-.031-1.541.89a.5.5 0 0 1 -.515-.856l10.069-6.292-11.023 6.368a.5.5 0 0 1 -.519-.853l17.788-11.404-17.319 10a.5.5 0 0 1 -.517-.855l15.065-9.542-14.548 8.4a.5.5 0 0 1 -.514-.858l8.544-5.328-8.03 4.636a.5.5 0 0 1 -.523-.851l14.385-9.394-13.863 8a.5.5 0 0 1 -.523-.852l10.77-7.019-10.248 5.915a.5.5 0 0 1 -.524-.851l8.645-5.683-8.12 4.688a.5.5 0 0 1 -.527-.85l7.064-4.71-6.537 3.774a.5.5 0 0 1 -.537-.843l7.048-4.932-6.511 3.76a.5.5 0 0 1 -.543-.838l5.272-3.817-4.729 2.73a.5.5 0 0 1 -.547-.835l3.049-2.245-2.5 1.445a.5.5 0 0 1 -.561-.824l2.249-1.795-1.688.974a.5.5 0 0 1 -.6-.788l1.587-1.568-.986.569a.5.5 0 0 1 -.7-.651l.553-1.144a.5.5 0 0 1 -.268-.933l1.124-.648a.5.5 0 0 1 .7.65l-.506 1.05 2.946-1.7a.5.5 0 0 1 .6.788l-1.587 1.568 4.083-2.356a.5.5 0 0 1 .561.823l-2.25 1.8 4.538-2.623a.5.5 0 0 1 .547.836l-3.048 2.243 5.333-3.079a.5.5 0 0 1 .543.838l-5.272 3.813 8.063-4.651a.5.5 0 0 1 .537.843l-7.048 4.927 10-5.774a.5.5 0 0 1 .528.849l-7.068 4.713 9.635-5.558a.5.5 0 0 1 .525.851l-8.643 5.682 11.315-6.533a.5.5 0 0 1 .524.852l-10.772 7.018 13.638-7.87a.5.5 0 0 1 .523.852l-14.381 9.387 17.744-10.239a.5.5 0 0 1 .514.857l-8.546 5.33 10.16-5.871a.5.5 0 0 1 .517.855l-15.061 9.54 14.836-8.565a.5.5 0 0 1 .519.854l-17.791 11.406 17.272-9.972a.5.5 0 0 1 .514.857l-10.071 6.293 9.557-5.518a.5.5 0 0 1 .511.859l-.415.255a.5.5 0 0 1 .418.9l-3.434 2.131 2.921-1.686a.5.5 0 0 1 .516.856l-6.156 3.886 5.64-3.256a.5.5 0 0 1 .528.848l-11.259 7.541 10.731-6.2a.5.5 0 0 1 .518.855l-1.811 1.152 1.293-.747a.5.5 0 0 1 .535.844l-8.175 5.684 7.64-4.411a.5.5 0 0 1 .543.838l-6.464 4.685 5.919-3.418a.5.5 0 0 1 .559.826l-5.042 3.979 4.485-2.587a.5.5 0 0 1 .555.829l-1.9 1.467 1.347-.778a.5.5 0 0 1 .624.765l-1.97 2.217 1.344-.775a.5.5 0 0 1 .633.754l-.317.378a.5.5 0 0 1 .184.928l-1.942 1.115a.5.5 0 0 1 -.633-.754l.125-.147-1.564.9a.5.5 0 0 1 -.624-.764l1.967-2.217-5.165 2.982a.5.5 0 0 1 -.556-.828l1.9-1.465-3.974 2.293a.5.5 0 0 1 -.56-.825l5.043-3.98-8.323 4.805a.5.5 0 0 1 -.543-.838l6.463-4.68-9.559 5.518a.5.5 0 0 1 -.535-.842l8.175-5.685-11.307 6.527a.5.5 0 0 1 -.518-.854l1.817-1.155-3.481 2.009a.5.5 0 0 1 -.529-.847l11.262-7.535-14.526 8.382a.5.5 0 0 1 -.25.071z" fill="#5a616b"/><g fill="#262626"><path d="m.284 51.216a4.537 4.537 0 0 0 4.7 4.288c.71.009 1.421 0 2.131 0h47.814a4.82 4.82 0 0 0 4.8-4.566c0-.028-.014-.043-.018-.068s.022-.046.01-.064l-.046-.07a.4.4 0 0 0 -.029-.043q-1.917-2.875-3.833-5.75-1.257-1.887-2.515-3.772a12.415 12.415 0 0 0 -1.228-1.791 1.973 1.973 0 0 0 -.548-.38 2.4 2.4 0 0 0 1.065-1.3 4.9 4.9 0 0 0 .145-1.7v-12.814c0-5.365.145-10.753 0-16.116a2.51 2.51 0 0 0 -2.475-2.57.656.656 0 0 0 -.107.01c-.028 0-.047-.011-.078-.011h-39.288c-1.775 0-3.467.747-3.516 2.783-.131 5.5 0 11.025 0 16.529v9.639c0 1.328-.392 3.548.29 4.783a2.2 2.2 0 0 0 1.114.979 4.436 4.436 0 0 0 -1.354 1.363l-2.447 3.67-4.264 6.4a.547.547 0 0 0 -.339.423c0 .038.01.072.011.109 0 .01-.004.023.005.039zm54.787 3.284h-45.602c-2.681 0-7.266.66-7.695-2.992h56.455a3.283 3.283 0 0 1 -3.158 2.992zm-44.94-49c1.514-.131 3.1 0 4.617 0h35c2.1.175 1.521 3.4 1.521 4.841v25.926c0 .828.1 1.8-.879 2.135a3.22 3.22 0 0 1 -1.1.095h-34.313c-1.542 0-3.122.1-4.661 0-1.861-.12-1.584-2.061-1.584-3.382v-26.355c0-1.26-.309-3.108 1.399-3.26zm-4.781 39.925c1.233-1.849 2.354-3.913 3.759-5.638a1.3 1.3 0 0 1 .429-.328 16.979 16.979 0 0 0 2.451.044h36.111a18.257 18.257 0 0 0 1.921-.046 3.45 3.45 0 0 1 1.437 1.509l2.5 3.751 3.852 5.783h-55.84z"/><path d="m11.276 34.194c.255 1.582 1.977 1.326 3.173 1.326h30.034a9.847 9.847 0 0 0 3.057-.12c1.577-.554 1.193-2.443 1.193-3.75v-7.593c0-4.623.169-9.281 0-13.9-.053-1.457-1.14-1.677-2.333-1.677h-21.985c-3.72 0-7.516-.221-11.23 0-1.681.1-1.918 1.265-1.918 2.609v22.969c0 .025.014.04.017.063a.3.3 0 0 0 -.008.073zm1.457-24.063c.128-.924.936-.611 1.716-.611h31.077a4.873 4.873 0 0 1 1.254 0c.8.249.487 1.937.487 2.6v21.16c0 .29.107.994-.2 1.2-.121.08-.569 0-.707 0h-32.7c-.548 0-.8.094-.929-.633v-19.074a35.076 35.076 0 0 1 .002-4.642z"/><path d="m11.576 43.466a.891.891 0 0 0 .352.034h1a.86.86 0 0 0 .291-.069.787.787 0 0 0 .254-.127.529.529 0 0 0 .171-.175.366.366 0 0 0 .088-.192.352.352 0 0 0 -.169-.339l-.139-.064a.891.891 0 0 0 -.352-.034h-1a.86.86 0 0 0 -.291.069.787.787 0 0 0 -.254.127.536.536 0 0 0 -.171.174.372.372 0 0 0 -.088.193.353.353 0 0 0 .169.339z"/><path d="m16.411 43.306a.843.843 0 0 0 .287.028h1a1.3 1.3 0 0 0 .278-.039 1.516 1.516 0 0 0 .287-.082 1.021 1.021 0 0 0 .237-.113.613.613 0 0 0 .166-.126c.052-.068.105-.162.016-.231l-.09-.046a.869.869 0 0 0 -.287-.029h-1a1.371 1.371 0 0 0 -.278.04 1.516 1.516 0 0 0 -.287.082 1.06 1.06 0 0 0 -.234.115.638.638 0 0 0 -.166.127c-.052.068-.105.162-.016.231z"/><path d="m22.4 43.288h.124a2.06 2.06 0 0 0 .529-.075 1.78 1.78 0 0 0 .5-.2l.1-.073a.147.147 0 0 0 .07-.134c-.038-.087-.176-.094-.252-.094h-1a2.06 2.06 0 0 0 -.529.075 1.78 1.78 0 0 0 -.5.2l-.1.073a.147.147 0 0 0 -.07.134c.038.087.176.094.252.094z"/><path d="m26.58 43.482a.88.88 0 0 0 .353.039h1a.826.826 0 0 0 .291-.068.784.784 0 0 0 .254-.13.532.532 0 0 0 .17-.18.375.375 0 0 0 -.088-.557l-.14-.068a.88.88 0 0 0 -.353-.039h-1a.826.826 0 0 0 -.291.068.784.784 0 0 0 -.254.13.523.523 0 0 0 -.17.18.373.373 0 0 0 .088.556z"/><path d="m31.708 43.373h1a1.58 1.58 0 0 0 .567-.118.916.916 0 0 0 .231-.123.571.571 0 0 0 .163-.139c.053-.081.1-.186.007-.265a.592.592 0 0 0 -.384-.1h-1a1.58 1.58 0 0 0 -.567.118.916.916 0 0 0 -.231.123.571.571 0 0 0 -.163.139c-.053.081-.1.186-.007.265a.592.592 0 0 0 .384.1z"/><path d="m36.73 43.454h1a1.357 1.357 0 0 0 .569-.108.749.749 0 0 0 .227-.14.514.514 0 0 0 .155-.166.284.284 0 0 0 -.012-.337.567.567 0 0 0 -.4-.157h-1a1.357 1.357 0 0 0 -.569.108.749.749 0 0 0 -.227.14.514.514 0 0 0 -.155.166.284.284 0 0 0 .012.337.567.567 0 0 0 .4.157z"/><path d="m41.711 43.383h1a1.532 1.532 0 0 0 .567-.116.9.9 0 0 0 .23-.125.568.568 0 0 0 .162-.142c.054-.084.1-.193 0-.274a.58.58 0 0 0 -.386-.108h-1a1.532 1.532 0 0 0 -.567.116.9.9 0 0 0 -.23.125.568.568 0 0 0 -.157.141c-.054.084-.1.193 0 .274a.58.58 0 0 0 .381.109z"/><path d="m46.412 43.308a.867.867 0 0 0 .287.03h1a1.3 1.3 0 0 0 .278-.039 1.448 1.448 0 0 0 .287-.083.994.994 0 0 0 .236-.116.587.587 0 0 0 .166-.127c.052-.069.105-.164.016-.234l-.091-.047a.867.867 0 0 0 -.287-.03h-1a1.3 1.3 0 0 0 -.278.039 1.448 1.448 0 0 0 -.287.083.994.994 0 0 0 -.233.116.587.587 0 0 0 -.166.127c-.052.069-.105.164-.016.234z"/><path d="m9.709 47.378h1a1.549 1.549 0 0 0 .567-.117.857.857 0 0 0 .231-.124.546.546 0 0 0 .162-.137c.054-.082.1-.189.006-.269a.582.582 0 0 0 -.384-.1h-1a1.549 1.549 0 0 0 -.567.117.857.857 0 0 0 -.231.124.546.546 0 0 0 -.162.128c-.054.082-.1.189-.006.269a.582.582 0 0 0 .384.109z"/><path d="m14.714 47.394h1a1.511 1.511 0 0 0 .567-.115.863.863 0 0 0 .23-.128.547.547 0 0 0 .161-.146c.054-.087.093-.2 0-.283a.578.578 0 0 0 -.388-.116h-1a1.511 1.511 0 0 0 -.567.115.863.863 0 0 0 -.23.128.534.534 0 0 0 -.161.146c-.054.087-.093.2 0 .283a.578.578 0 0 0 .388.116z"/><path d="m19.707 47.37h1a1.58 1.58 0 0 0 .567-.118.946.946 0 0 0 .231-.122.571.571 0 0 0 .163-.139c.054-.079.1-.184.008-.262a.589.589 0 0 0 -.383-.1h-1a1.58 1.58 0 0 0 -.567.118.946.946 0 0 0 -.231.122.571.571 0 0 0 -.163.139c-.054.079-.1.184-.008.262a.589.589 0 0 0 .383.1z"/><path d="m24.735 47.472h1a.868.868 0 0 0 .283-.02.968.968 0 0 0 .287-.085.759.759 0 0 0 .225-.144.519.519 0 0 0 .154-.172.308.308 0 0 0 -.016-.353.565.565 0 0 0 -.4-.17h-1a.868.868 0 0 0 -.283.02.968.968 0 0 0 -.287.085.759.759 0 0 0 -.225.144.51.51 0 0 0 -.154.172.308.308 0 0 0 .016.353.565.565 0 0 0 .4.17z"/><path d="m30.406 47.3h.124a2.064 2.064 0 0 0 .53-.072 1.7 1.7 0 0 0 .5-.2l.1-.075a.154.154 0 0 0 .068-.139c-.038-.089-.175-.1-.254-.1h-1a2.064 2.064 0 0 0 -.53.072 1.7 1.7 0 0 0 -.5.2l-.1.075a.153.153 0 0 0 -.068.139c.038.089.175.1.254.1z"/><path d="m34.943 47.556h1a.784.784 0 0 0 .291-.068.728.728 0 0 0 .253-.135.532.532 0 0 0 .167-.189.4.4 0 0 0 .082-.212.428.428 0 0 0 -.181-.383.849.849 0 0 0 -.5-.125h-1a.784.784 0 0 0 -.291.068.728.728 0 0 0 -.253.135.532.532 0 0 0 -.167.189.4.4 0 0 0 -.082.212.428.428 0 0 0 .181.383.849.849 0 0 0 .5.125z"/><path d="m39.716 47.4h1a1.5 1.5 0 0 0 .568-.114.834.834 0 0 0 .229-.129.555.555 0 0 0 .16-.149c.054-.091.092-.206 0-.292a.572.572 0 0 0 -.389-.122h-1a1.5 1.5 0 0 0 -.568.114.834.834 0 0 0 -.229.129.555.555 0 0 0 -.16.149c-.054.091-.092.206 0 .292a.572.572 0 0 0 .389.122z"/><path d="m44.712 47.388h5a1.231 1.231 0 0 0 .959-.388c.194-.277-.167-.39-.383-.39h-5a1.231 1.231 0 0 0 -.959.386c-.194.279.171.392.383.392z"/><path d="m15.577 14.469a1.061 1.061 0 0 0 1.024-.275l.876-.875.124-.125a.378.378 0 0 0 -.178-.663 1.063 1.063 0 0 0 -1.024.274l-.876.876-.124.124a.379.379 0 0 0 .178.664z"/><path d="m15.341 20.042c-.234.234.205.279.351.27a1.577 1.577 0 0 0 .967-.354l6.128-6.128q.437-.437.872-.872c.234-.234-.2-.279-.351-.27a1.577 1.577 0 0 0 -.967.354l-6.128 6.128z"/><path d="m19.421 21.887c-.214.213-.165.426.134.5a1.255 1.255 0 0 0 1.024-.275l7.879-7.879 1.121-1.121c.214-.213.165-.426-.134-.5a1.255 1.255 0 0 0 -1.024.275q-3.94 3.939-7.879 7.879-.561.559-1.121 1.121z"/><path d="m17.523 24.676a.62.62 0 0 0 -.223-.019 1.742 1.742 0 0 0 -.566.121 1.2 1.2 0 0 0 -.4.246l-.875.876-.125.124a.163.163 0 0 0 -.014.239.3.3 0 0 0 .155.061.62.62 0 0 0 .223.019 1.742 1.742 0 0 0 .566-.121 1.2 1.2 0 0 0 .4-.246l.875-.876.125-.124a.163.163 0 0 0 .014-.239.3.3 0 0 0 -.155-.061z"/></g></svg>