<svg id="Icons" height="512" viewBox="0 0 60 60" width="512" xmlns="http://www.w3.org/2000/svg"><path d="m8.2 17.721a.5.5 0 0 1 -.334-.873l1.5-1.34-1.419.819a.5.5 0 0 1 -.551-.832l.811-.612-.635.366a.5.5 0 0 1 -.553-.83l4.035-3.091-4.035 2.33a.5.5 0 0 1 -.541-.839l3.869-2.774-3.824 2.205a.5.5 0 0 1 -.532-.846l.3-.2-.107.062a.5.5 0 0 1 -.551-.833l2.65-1.991-2.57 1.479a.5.5 0 0 1 -.543-.838l.184-.133a.5.5 0 0 1 -.577-.8l2.647-2.521-2.668 1.54a.5.5 0 0 1 -.581-.808l.75-.661-.567.327a.5.5 0 0 1 -.682-.684l1-1.73-.968.559a.5.5 0 0 1 -.743-.349l-.241-1.443a.5.5 0 0 1 -.156-.924l.3-.172a.5.5 0 0 1 .743.348l.225 1.315 1.97-1.139a.5.5 0 0 1 .682.684l-1.006 1.731 3.272-1.889a.5.5 0 0 1 .581.809l-.748.66 1.981-1.145a.5.5 0 0 1 .6.8l-2.651 2.511 4.865-2.809a.5.5 0 0 1 .543.84l-.184.132 1.2-.693a.5.5 0 0 1 .551.833l-2.653 1.992 4.234-2.445a.5.5 0 0 1 .532.846l-.294.2 1.33-.768a.5.5 0 0 1 .541.839l-3.867 2.774 1.885-1.09a.5.5 0 0 1 .554.83l-4.033 3.089.991-.573a.5.5 0 0 1 .552.832l-1.839 1.392a.508.508 0 0 1 .26.185.5.5 0 0 1 -.072.666l-2.24 2.007a.5.5 0 0 1 .048.89l-2.972 1.716a.5.5 0 0 1 -.249.067z" fill="#fccb55"/><path d="m50.708 18.192a.5.5 0 0 1 -.4-.8l.416-.562-.683.394a.5.5 0 0 1 -.615-.774l1.235-1.324-1.525.88a.5.5 0 0 1 -.572-.815l.681-.574-.8.462a.5.5 0 0 1 -.589-.8l3.372-3.105-3.978 2.3a.5.5 0 0 1 -.567-.82l4.107-3.373-4.659 2.69a.5.5 0 0 1 -.553-.831l4.513-3.431-4.991 2.88a.5.5 0 0 1 -.543-.839l3.595-2.593-3.918 2.264a.5.5 0 0 1 -.567-.819l3.03-2.49-3.444 1.988a.5.5 0 0 1 -.606-.785l1.558-1.575-1.894 1.093a.5.5 0 0 1 -.431.034.5.5 0 0 1 -.3-.315l-.426-1.336-.035.02a.5.5 0 1 1 -.5-.865l.573-.332a.5.5 0 0 1 .431-.034.5.5 0 0 1 .3.315l.426 1.337 4.571-2.64a.5.5 0 0 1 .6.785l-1.553 1.577 5.5-3.172a.5.5 0 0 1 .567.819l-3.034 2.489 7.193-4.153a.5.5 0 0 1 .543.839l-3.59 2.59 3.286-1.9a.5.5 0 0 1 .552.831l-4.514 3.435 3.1-1.791a.5.5 0 0 1 .568.82l-4.11 3.372 2.608-1.5a.5.5 0 0 1 .589.8l-3.372 3.105 1.783-1.03a.5.5 0 0 1 .572.816l-.924.777a.477.477 0 0 1 .416.189.5.5 0 0 1 -.026.652l-1.267 1.358a.5.5 0 0 1 .546.777l-.779 1.054a.491.491 0 0 1 .187.186.5.5 0 0 1 -.182.683l-1.221.7a.5.5 0 0 1 -.25.067z" fill="#fccb55"/><path d="m35.828 21.387a.5.5 0 0 1 -.426-.763l.1-.163-.426.246a.5.5 0 0 1 -.663-.716l.905-1.324-1.566.9a.5.5 0 0 1 -.6-.791l.595-.579-.953.55a.5.5 0 0 1 -.6-.786l1.756-1.761-2.466 1.423a.5.5 0 0 1 -.563-.822l.659-.53-1.177.68a.5.5 0 0 1 -.5-.867l6.818-3.936a.5.5 0 0 1 .563.823l-.659.53.1-.056a.5.5 0 0 1 .6.786l-1.758 1.769 1.155-.667a.5.5 0 0 1 .6.792l-.592.577a.5.5 0 0 1 .657.718l-.906 1.324.243-.139a.5.5 0 0 1 .675.695l-.335.544a.514.514 0 0 1 .223.2.5.5 0 0 1 -.183.683l-1.024.591a.5.5 0 0 1 -.252.069z" fill="#ec3a48"/><path d="m23.564 21.352a.5.5 0 0 1 -.293-.9l5.778-4.209-5.769 3.327a.5.5 0 0 1 -.536-.843l4.256-2.962-3.72 2.146a.5.5 0 0 1 -.537-.842l4.657-3.269-4.12 2.381a.5.5 0 0 1 -.543-.839l6.063-4.385-5.52 3.186a.5.5 0 0 1 -.555-.829l5.621-4.35-5.066 2.924a.5.5 0 0 1 -.581-.807l3.755-3.324-3.174 1.832a.5.5 0 0 1 -.6-.788l1.6-1.592-1 .579a.5.5 0 0 1 -.74-.532l.329-1.634a.5.5 0 0 1 -.089-.907l.5-.289a.5.5 0 0 1 .74.532l-.284 1.41 3.379-1.951a.5.5 0 0 1 .6.789l-1.599 1.594 4.134-2.389a.5.5 0 0 1 .581.807l-3.755 3.324 7.17-4.14a.5.5 0 0 1 .556.829l-5.619 4.35 7.537-4.352a.5.5 0 0 1 .543.838l-6.063 4.385 5.519-3.186a.5.5 0 0 1 .537.842l-4.656 3.267 4.121-2.375a.5.5 0 0 1 .536.843l-4.257 2.957 3.718-2.146a.5.5 0 0 1 .544.837l-10.362 7.553a.5.5 0 0 1 -.225.592l-2.857 1.649a.491.491 0 0 1 -.254.067z" fill="#ec3a48"/><path d="m13.333 42.385a.5.5 0 0 1 -.3-.9l3.261-2.509-4.913 2.836a.5.5 0 0 1 -.536-.842l2.021-1.408-2.832 1.638a.5.5 0 0 1 -.535-.843l3.351-2.329-4.022 2.319a.5.5 0 0 1 -.528-.847l2.876-1.952-3.248 1.873a.5.5 0 0 1 -.531-.847l3.069-2.074-3.349 1.935a.5.5 0 0 1 -.541-.839l6.656-4.763-7.006 4.045a.5.5 0 0 1 -.535-.844l4.993-3.45-4.937 2.851a.5.5 0 0 1 -.54-.84l5.986-4.266-5.785 3.34a.5.5 0 0 1 -.545-.836l5.9-4.313-5.4 3.116a.5.5 0 0 1 -.531-.846l1.114-.758-.443.256a.5.5 0 0 1 -.547-.836l3.183-2.352-2.017 1.165a.5.5 0 0 1 -.592-.8l2.77-2.593a.506.506 0 0 1 -.481-.248.5.5 0 0 1 .181-.683l3.412-1.97a.5.5 0 0 1 .592.8l-2.624 2.458 5.943-3.429a.5.5 0 0 1 .547.835l-3.182 2.35 4.476-2.585a.5.5 0 0 1 .531.847l-1.118.76 1.7-.983a.5.5 0 0 1 .545.837l-5.9 4.313 6.83-3.944a.5.5 0 0 1 .54.841l-5.985 4.264 6.559-3.787a.5.5 0 0 1 .534.844l-5 3.455 5.207-3.006a.5.5 0 0 1 .541.84l-6.648 4.759 6.748-3.895a.5.5 0 0 1 .53.848l-3.078 2.074 2.835-1.636a.5.5 0 0 1 .531.846l-2.866 1.949 2.482-1.432a.5.5 0 0 1 .535.843l-3.354 2.331 2.73-1.575a.5.5 0 0 1 .536.843l-2.019 1.4 1.217-.7a.5.5 0 0 1 .555.829l-3.26 2.508 1.791-1.033a.5.5 0 0 1 .573.813l-2.023 1.719a.5.5 0 0 1 .037.888l-3.407 1.967a.5.5 0 0 1 -.573-.813l1.108-.942-3.543 2.045a.493.493 0 0 1 -.252.068z" fill="#ec3a48"/><path d="m12.217 48.493a.5.5 0 0 1 -.354-.853l1.675-1.671-2.259 1.3a.5.5 0 0 1 -.6-.787l1.678-1.666-1.076.621a.5.5 0 0 1 -.623-.765l.869-.975a.5.5 0 0 1 -.1-.908l1.937-1.118a.5.5 0 0 1 .623.765l-.517.581 1.722-1a.5.5 0 0 1 .6.788l-1.68 1.666 2.231-1.271a.5.5 0 0 1 .6.786l-1.67 1.664 1.447-.835a.5.5 0 0 1 .654.727l-.6.831a.5.5 0 0 1 .45.891l-1.983 1.145a.5.5 0 0 1 -.654-.726l.6-.826-2.717 1.569a.489.489 0 0 1 -.253.067z" fill="#d92936"/><path d="m45.122 42.357a.5.5 0 0 1 -.291-.906l1-.715-2.106 1.216a.5.5 0 0 1 -.557-.828l5.605-4.342-7.147 4.126a.5.5 0 0 1 -.548-.834l6.51-4.84-7.52 4.341a.5.5 0 0 1 -.533-.845l4.125-2.83-4.506 2.6a.5.5 0 0 1 -.538-.841l6.1-4.307-6.4 3.692a.5.5 0 0 1 -.532-.846l4.317-2.95-4.269 2.465a.5.5 0 0 1 -.536-.843l5.036-3.506-4.875 2.815a.5.5 0 0 1 -.524-.851l.3-.2a.5.5 0 0 1 -.438-.883l5.484-4.007-4.862 2.807a.5.5 0 0 1 -.531-.846l.718-.491a.5.5 0 0 1 -.478-.871l.744-.515a.5.5 0 0 1 -.342-.865l2.772-2.585a.5.5 0 0 1 -.3-.931l3.412-1.97a.5.5 0 0 1 .592.8l-2.604 2.441 5.912-3.412a.5.5 0 0 1 .534.845l-.075.051.869-.5a.5.5 0 0 1 .531.846l-.681.464 1.357-.783a.5.5 0 0 1 .545.837l-5.484 4.006 6.481-3.742a.5.5 0 0 1 .524.851l-.1.069.268-.155a.5.5 0 0 1 .536.843l-5.036 3.506 5.437-3.139a.5.5 0 0 1 .532.846l-4.317 2.95 4.474-2.595a.5.5 0 0 1 .538.842l-6.1 4.311 6.131-3.539a.5.5 0 0 1 .533.845l-4.123 2.83 3.881-2.242a.5.5 0 0 1 .548.835l-6.515 4.844 6.049-3.494a.5.5 0 0 1 .557.829l-5.606 4.344 4.594-2.652a.5.5 0 0 1 .541.839l-1.093.783a.5.5 0 0 1 .454.873l-1.522 1.174a.5.5 0 0 1 .084.9l-5.022 2.9a.5.5 0 0 1 -.556-.829l.48-.37-2.188 1.267a.491.491 0 0 1 -.25.067z" fill="#37cba1"/><path d="m43.906 48.5a.5.5 0 0 1 -.348-.858l1.745-1.7-2.024 1.158a.5.5 0 0 1 -.593-.8l1.354-1.283-.761.439a.5.5 0 0 1 -.624-.764l.881-1a.49.49 0 0 1 -.289-.228.5.5 0 0 1 .183-.683l1.937-1.118a.5.5 0 0 1 .624.764l-.552.625 1.775-1.025a.5.5 0 0 1 .594.8l-1.354 1.281 1.806-1.042a.5.5 0 0 1 .6.791l-1.745 1.7 1.607-.926a.5.5 0 0 1 .712.625l-.656 1.57a.5.5 0 0 1 .359.921l-1.127.653a.5.5 0 0 1 -.712-.625l.64-1.535-3.782 2.184a.489.489 0 0 1 -.25.076z" fill="#31b791"/><g fill="#262626"><path d="m23.731 31.934c-.055-4.255-2.378-8.4-6.508-9.9a9.574 9.574 0 0 0 -10.687 3.314 11.289 11.289 0 0 0 -.931 12.087 9.614 9.614 0 0 0 6.395 4.848h-.006a3.568 3.568 0 0 0 -1.5 1.71 3.765 3.765 0 0 0 -.218 1.431v13.77c0 .2 1.448 0 1.448-.388v-10.453h3.976a1.583 1.583 0 0 0 .276-.028c.836-.113 1.725-.591 1.745-1.519.009-.382 0-.765 0-1.147a10.031 10.031 0 0 0 -.023-1.226 3.156 3.156 0 0 0 -1.016-1.927 3.082 3.082 0 0 0 -.458-.337c4.547-1.203 7.447-5.621 7.507-10.235zm-7.455 14.843c0 .135.008.273 0 .408a.9.9 0 0 1 -.107.383.879.879 0 0 1 -.057.079h-4.388v-1.92a4.122 4.122 0 0 1 .448-2.415 2.6 2.6 0 0 1 .6-.643 1.847 1.847 0 0 1 .263-.166c.051-.027.081-.041.114-.055a8.925 8.925 0 0 0 1.2.02 2.618 2.618 0 0 1 .463.194 2.966 2.966 0 0 1 1.462 2.7zm.684-5.846c-3.423 1.472-7.217-.079-9.317-2.985a10.592 10.592 0 0 1 -.809-10.771c1.64-3.246 5.138-5.4 8.8-4.451 4.139 1.067 6.578 5.255 6.631 9.342-.043 3.625-1.835 7.372-5.305 8.865z"/><path d="m55.724 31.806c-.055-4.273-2.555-8.5-6.813-9.736a10.075 10.075 0 0 0 -10.326 3.394 10.97 10.97 0 0 0 -.772 12.321 9.149 9.149 0 0 0 6.254 4.322c-.023.013-.048.022-.071.036a3.605 3.605 0 0 0 -1.726 3.178v2.726.012 11c0 .743 1.466.516 1.466-.118v-10.465h4c.027 0 .056-.005.084-.006s.072.005.1 0a1.8 1.8 0 0 0 1.81-1.55c.012-.407 0-.817 0-1.224a9.615 9.615 0 0 0 -.034-1.3 3.24 3.24 0 0 0 -1.05-1.95 3.462 3.462 0 0 0 -.712-.477 10.357 10.357 0 0 0 7.79-10.163zm-7.454 14.894v.37a.706.706 0 0 1 -.106.407.414.414 0 0 1 -.035.046h-4.4v-1.723a3.982 3.982 0 0 1 .462-2.412 2.262 2.262 0 0 1 .541-.553 1.691 1.691 0 0 1 .652-.3 3.033 3.033 0 0 1 .368-.05h.034.033c.083.006.165.008.248.017a2.27 2.27 0 0 1 .765.24 2.77 2.77 0 0 1 1.437 2.537zm.592-5.447a6.042 6.042 0 0 1 -1.62.435 4 4 0 0 0 -1.979-.048 9.148 9.148 0 0 1 -5.86-4.018 10.907 10.907 0 0 1 -.545-10.648c1.759-3.481 5.4-5.636 9.254-4.245 3.919 1.414 6.111 5.447 6.164 9.464-.048 3.655-1.908 7.554-5.414 9.061z"/><path d="m14.064 25.468a5.626 5.626 0 0 0 -4.154 2.016 7.122 7.122 0 0 0 -1.644 4.571c0 .359.354.5.67.477.283-.02.8-.23.8-.587a6.241 6.241 0 0 1 1.289-3.91 4.419 4.419 0 0 1 1.288-1.1 4.59 4.59 0 0 1 .439-.2h.006l.121-.04c.071-.022.142-.042.214-.06a2.959 2.959 0 0 1 .845-.1c.316 0 .761-.241.8-.587.037-.38-.389-.483-.674-.48z"/><path d="m46.066 25.474a5.636 5.636 0 0 0 -4.155 2.015 7.116 7.116 0 0 0 -1.645 4.567c0 .358.355.493.668.47.28-.021.8-.228.8-.583a6.245 6.245 0 0 1 1.288-3.913 4.682 4.682 0 0 1 .605-.629c.126-.105.257-.2.393-.3.054-.037.11-.074.167-.108l.122-.067a4.714 4.714 0 0 1 .439-.2h.01l.117-.038c.071-.023.142-.043.214-.061s.116-.027.174-.04c.008 0 .137-.023.142-.024a4.459 4.459 0 0 1 .529-.033c.314 0 .761-.239.8-.583.042-.379-.388-.475-.668-.473z"/><path d="m.573 1.457c.476.21.968.388 1.465.556l4.893 14.06c.2.586.364 1.466.893 1.854 1.06.778 2.27.027 2.929-.858l4.8-6.456 4.086-5.5q1.314.105 2.637.187v10.038c0 1.547-.032 3.1 0 4.644a1.2 1.2 0 0 0 1.238 1.289 3.26 3.26 0 0 0 2.217-.95c1.387-1.189 2.726-2.542 4.209-3.609.17-.123-.118.051-.06.2.005.012.159.124.181.141.257.207.5.431.754.646l2.485 2.131a10.373 10.373 0 0 0 1.518 1.277c.917.511 2.76-.085 2.9-1.207a30.153 30.153 0 0 0 .008-3.519v-11.013q1.254-.075 2.5-.177 4.346 5.844 8.69 11.687c.5.676.916 1.392 1.879 1.4 1.183.014 1.7-.783 2.033-1.743l2.748-7.9q1.167-3.355 2.335-6.71c.474-.166.942-.346 1.4-.547.912-.4.1-1.086-.618-.77-.419.185-.864.347-1.318.5a1.065 1.065 0 0 0 -.538.176c-.745.23-1.513.435-2.277.632a80.915 80.915 0 0 1 -13.26 2.136l-.359.028a1.074 1.074 0 0 0 -.358.029 126.663 126.663 0 0 1 -20.7.11.834.834 0 0 0 -.284-.088.986.986 0 0 0 -.352.034 86.905 86.905 0 0 1 -12.647-2.034 30.5 30.5 0 0 1 -5.173-1.588c-.554-.243-1.678.55-.854.914zm55.737.975-4.4 12.631a11.22 11.22 0 0 1 -.668 1.937c-.184.314-.264.21-.462-.026-.181-.216-.34-.457-.508-.683l-4.872-6.558-3.492-4.7c.986-.1 1.971-.207 2.953-.334l3.887 5.227.579.778c.275.37 1.675-.115 1.348-.554l-4.122-5.539-.1-.134c2.458-.363 4.895-.818 7.295-1.389.852-.201 1.709-.415 2.562-.656zm-20.034 3.017v14.218c0 .149.009.3 0 .449v.076a.864.864 0 0 1 -.111.415c-.407-.42-.941-.782-1.384-1.162l-2.4-2.059a4.7 4.7 0 0 0 -1.481-1.116c-1.725-.481-3.413 1.574-4.546 2.546-.7.6-1.453 1.17-2.115 1.813l-.013.009c-.013 0-.015-.006-.03-.009-.23-.332-.438-.448-.467-.9-.079-1.29 0-2.61 0-3.9v-10.443q1.274.066 2.552.108v8.19c0 .356 1.448.113 1.448-.388v-7.759c2.84.063 5.696.044 8.547-.088zm-29.576-2.201q1.125 3.219 2.248 6.437.163.469.328.939c.191.55 1.632.139 1.448-.388l-2.3-6.6a90.945 90.945 0 0 0 9.876 1.371l-8.127 10.935c-.152.2-.825 1.362-1.047 1.363-.347 0-.7-1.472-.762-1.665l-2.771-7.962-1.785-5.131c.394.107.787.209 1.177.309.569.144 1.145.262 1.715.392z"/></g></svg>