<svg id="Icons" height="512" viewBox="0 0 60 60" width="512" xmlns="http://www.w3.org/2000/svg"><path d="m41.718 47.354a.5.5 0 0 1 -.361-.846l.7-.731-2.276 1.314a.5.5 0 0 1 -.569-.818l.9-.744-1.466.847a.5.5 0 0 1 -.584-.8l.828-.744-1.029.593a.5.5 0 0 1 -.624-.765l.585-.66-.413.238a.5.5 0 0 1 -.739-.536l.192-.91a.5.5 0 0 1 -.082-.9l.5-.29a.5.5 0 0 1 .739.537l-.142.678 2.123-1.232a.5.5 0 0 1 .624.765l-.585.658 2.481-1.433a.5.5 0 0 1 .584.8l-.828.745 2.443-1.41a.5.5 0 0 1 .569.817l-.9.746.238-.136a.5.5 0 0 1 .61.779l-1.077 1.117a.5.5 0 0 1 .117.915l-2.31 1.334a.489.489 0 0 1 -.248.072z" fill="#ccd0da"/><path d="m17.107 58.387a.5.5 0 0 1 -.349-.143.5.5 0 0 1 -.089-.6l.53-.963-2.4 1.386a.5.5 0 0 1 -.575-.812l.128-.111-.671.388a.5.5 0 0 1 -.576-.812l.788-.674-1.2.689a.5.5 0 0 1 -.586-.8l.525-.476-.632.364a.5.5 0 0 1 -.6-.789l.17-.168a.5.5 0 0 1 -.474-.022.5.5 0 0 1 -.243-.448l.063-1.6a.5.5 0 0 1 -.12-.915l.4-.23a.5.5 0 0 1 .75.453l-.056 1.426 2.57-1.484a.5.5 0 0 1 .6.789l-.168.165 1.294-.747a.5.5 0 0 1 .585.8l-.522.473 1.817-1.049a.5.5 0 0 1 .576.813l-.787.674.662-.382a.5.5 0 0 1 .575.812l-.533.457a.5.5 0 0 1 .381.739l-.678 1.231a.5.5 0 0 1 .1.911l-1.008.582a.49.49 0 0 1 -.247.073z" fill="#eb75b5"/><path d="m45.5 35.481a.5.5 0 0 1 -.25-.932l1.37-.791a.5.5 0 1 1 .5.865l-1.37.791a.494.494 0 0 1 -.25.067z" fill="#f2bc44"/><path d="m39.1 36.492a.5.5 0 0 1 -.3-.9l2.627-1.981-4.164 2.405a.5.5 0 0 1 -.531-.847l1.649-1.118-2.22 1.281a.5.5 0 0 1 -.536-.843l6.679-4.672-7.073 4.083a.5.5 0 0 1 -.523-.851l2.4-1.57-2.051 1.185a.5.5 0 0 1 -.527-.85l4.454-2.95-4.258 2.459a.5.5 0 0 1 -.536-.844l8.479-5.879-8.669 5.011a.5.5 0 0 1 -.53-.846l7.163-4.84-7.6 4.387a.5.5 0 0 1 -.529-.848l7.191-4.833-7.632 4.406a.5.5 0 0 1 -.535-.844l9.306-6.422-9.88 5.7a.5.5 0 0 1 -.525-.851l5.671-3.73-5.79 3.341a.5.5 0 0 1 -.535-.843l9-6.213-9.075 5.241a.5.5 0 0 1 -.524-.851l4.442-2.92-4.182 2.414a.5.5 0 0 1 -.527-.849l4.979-3.321-4.6 2.654a.5.5 0 0 1 -.536-.843l6.47-4.507-5.746 3.318a.5.5 0 0 1 -.54-.841l4.968-3.512-3.873 2.236a.5.5 0 0 1 -.543-.838l2.94-2.122-1.356.782a.5.5 0 0 1 -.563-.822l2.438-1.96a.491.491 0 0 1 -.2-.192.5.5 0 0 1 .183-.682l3.952-2.283a.5.5 0 0 1 .563.823l-1.241 1 4.228-2.442a.5.5 0 0 1 .543.838l-2.934 2.12 4.789-2.764a.5.5 0 0 1 .539.84l-4.969 3.508 6.522-3.764a.5.5 0 0 1 .536.842l-6.471 4.507 7.764-4.481a.5.5 0 0 1 .527.848l-4.978 3.325 5.742-3.316a.5.5 0 0 1 .524.851l-4.44 2.92 4.922-2.842a.5.5 0 0 1 .534.844l-9.007 6.214 9.752-5.629a.5.5 0 0 1 .525.85l-5.666 3.731 5.9-3.407a.5.5 0 0 1 .534.844l-9.3 6.419 9.574-5.526a.5.5 0 0 1 .529.847l-7.193 4.835 7.171-4.14a.5.5 0 0 1 .531.846l-7.165 4.841 6.87-3.959a.5.5 0 0 1 .535.844l-8.472 5.869 7.894-4.558a.5.5 0 0 1 .526.85l-4.466 2.957 3.63-2.095a.5.5 0 0 1 .524.852l-2.408 1.573 1.371-.791a.5.5 0 0 1 .537.843l-6.679 4.671 4.212-2.431a.5.5 0 0 1 .53.847l-2.161 1.469a.517.517 0 0 1 .464.221.5.5 0 0 1 -.116.676l-2.629 1.982 1.117-.645a.5.5 0 0 1 .588.8l-1.8 1.649.935-.539a.5.5 0 0 1 .622.768l-1.909 2.112a.5.5 0 0 1 -.246.5l-.494.285a.5.5 0 0 1 -.621-.767l.4-.442-2.111 1.218a.5.5 0 0 1 -.588-.8l1.794-1.649-4.265 2.462a.491.491 0 0 1 -.251.061z" fill="#f2bc44"/><path d="m37.622 40.5a.5.5 0 0 1 -.3-.9l.184-.14-.242.14a.5.5 0 0 1 -.634-.753l1.649-1.981-2.721 1.572a.5.5 0 0 1 -.6-.077.5.5 0 0 1 -.087-.6l.768-1.382-.063.036a.5.5 0 0 1 -.5-.865l1.627-.94a.5.5 0 0 1 .6.077.5.5 0 0 1 .087.6l-.768 1.382 3.586-2.069a.5.5 0 0 1 .634.753l-1.651 1.981 4.738-2.734a.5.5 0 0 1 .551.831l-.179.136 1.287-.743a.5.5 0 0 1 .572.815l-1.314 1.11 1.663-.96a.5.5 0 0 1 .6.788l-1.045 1.033.446-.256a.5.5 0 0 1 .5.865l-3.8 2.191a.5.5 0 0 1 -.6-.788l1.046-1.036-3.179 1.835a.5.5 0 0 1 -.572-.815l1.315-1.106-3.348 1.933a.491.491 0 0 1 -.25.067z" fill="#ccd0da"/><path d="m40.035 43.471a.5.5 0 0 1 -.361-.846l1.353-1.416-3.791 2.191a.5.5 0 0 1 -.634-.751l1.483-1.792-2.561 1.479a.5.5 0 0 1 -.681-.686l.719-1.224a.5.5 0 0 1 -.489-.872l1.627-.94a.5.5 0 0 1 .6.08.5.5 0 0 1 .077.606l-.719 1.224 3.342-1.924a.5.5 0 0 1 .635.752l-1.488 1.788 4.407-2.54a.5.5 0 0 1 .611.778l-1.353 1.412 3.079-1.777a.5.5 0 0 1 .656.723l-1.177 1.644 1.338-.773a.5.5 0 0 1 .5.866l-3.343 1.927a.5.5 0 0 1 -.656-.723l1.177-1.643-4.1 2.367a.49.49 0 0 1 -.251.07z" fill="#b9bfcc"/><path d="m18.937 59.217a.5.5 0 0 1 -.35-.857l.245-.241-.392.226a.5.5 0 0 1 -.628-.76l1.841-2.13-1.718.992a.5.5 0 0 1 -.553-.83l.911-.693-.68.391a.5.5 0 0 1 -.56-.824l5.179-4.109-5.571 3.218a.5.5 0 0 1 -.542-.838l3.318-2.393-6.444 3.72a.5.5 0 0 1 -.533-.845l3.776-2.6-6.385 3.689a.5.5 0 0 1 -.527-.849l2.921-1.941-3.835 2.214a.5.5 0 0 1 -.521-.853l1.174-.759-1.715.99a.5.5 0 0 1 -.535-.845l7.866-5.421-10.222 5.9a.5.5 0 0 1 -.52-.853l2.933-1.89-3.189 1.841a.5.5 0 0 1 -.534-.845l7.886-5.41-7.681 4.435a.5.5 0 0 1 -.536-.844l8.255-5.731-8.043 4.642a.5.5 0 0 1 -.53-.846l5.491-3.722-6.139 3.544a.5.5 0 0 1 -.537-.843l5.2-3.623-5.194 3a.5.5 0 0 1 -.526-.85l1.083-.717-.329.189a.5.5 0 0 1 -.577-.811l2.281-1.969a.5.5 0 0 1 .183-.683l1.882-1.086a.5.5 0 0 1 .577.812l-.265.227 9.71-5.6a.5.5 0 0 1 .675.169.5.5 0 0 1 -.149.681l-1.088.72 1.375-.793a.5.5 0 0 1 .537.843l-5.193 3.621 8.005-4.63a.5.5 0 0 1 .53.847l-5.492 3.722 6.415-3.7a.5.5 0 0 1 .535.844l-8.259 5.73 8.441-4.873a.5.5 0 0 1 .533.845l-7.886 5.41 9.715-5.608a.5.5 0 0 1 .521.852l-2.923 1.884 3.382-1.952a.5.5 0 0 1 .534.845l-7.867 5.422 8.021-4.632a.5.5 0 0 1 .522.852l-1.165.754.466-.269a.5.5 0 0 1 .527.848l-2.929 1.947 3.626-2.093a.5.5 0 0 1 .533.845l-3.771 2.591 3.979-2.3a.5.5 0 0 1 .542.837l-3.317 2.393 2.891-1.669a.5.5 0 0 1 .561.824l-5.177 4.108 1.616-.933a.5.5 0 0 1 .553.83l-2.884 2.2a.431.431 0 0 1 .078.076.5.5 0 0 1 -.007.645l-1.837 2.131 1.214-.7a.5.5 0 0 1 .6.789l-.385.38a.5.5 0 0 1 .285.931l-3.034 1.752a.49.49 0 0 1 -.25.065z" fill="#eb75b5"/><path d="m11.668 36.715a.5.5 0 0 1 -.25-.933l1.876-1.082a.5.5 0 1 1 .5.865l-1.876 1.083a.5.5 0 0 1 -.25.067z" fill="#eb75b5"/><path d="m7.051 40.4a.5.5 0 0 1 -.368-.837l.8-.874a.5.5 0 0 1 -.056-.894l1.936-1.118a.5.5 0 0 1 .618.77l-.357.39 5.212-3.009a.5.5 0 1 1 .5.865l-8.036 4.637a.489.489 0 0 1 -.249.07z" fill="#eb75b5"/><g fill="#262626"><path d="m30.545 26.222c1.069 1.485 2.361 2.679 3.064 4.415a9.082 9.082 0 0 1 .632 2.6c.057.659-.041 1.306.542 1.759a1.38 1.38 0 0 0 .593.25 2.124 2.124 0 0 0 -1.07 1.588 2.056 2.056 0 0 0 1.288 2.247 2.149 2.149 0 0 0 -1.307 1.862 2.2 2.2 0 0 0 2 2.362 4.179 4.179 0 0 0 2.991 3.825 5.453 5.453 0 0 0 5.388-1.53 4.219 4.219 0 0 0 1.022-2.423 2.51 2.51 0 0 0 2.03-2.533 2.055 2.055 0 0 0 -1.394-1.77 2.285 2.285 0 0 0 1.394-2.23 1.968 1.968 0 0 0 -1.084-1.612 1.868 1.868 0 0 0 .771-.54c.407-.51.294-1.1.342-1.709a8.606 8.606 0 0 1 .923-3.222c.946-1.852 2.625-3.157 3.614-4.994a12.459 12.459 0 0 0 1.437-6.04 12.389 12.389 0 0 0 -11.792-11.827c-5.984-.229-11.832 3.6-13.3 9.538a12.178 12.178 0 0 0 1.916 9.984zm11.343 2.064c.127 0 .257 0 .386-.006v6.413h-.807c-.106 0-.216.006-.323.007-.469 0-.939 0-1.408 0v-6.414zm-.757 18.385a3.825 3.825 0 0 1 -3.35-3.319h.925 5.554c-.096 1.648-1.318 3.471-3.129 3.319zm4.169-4.023h-6.774a10.816 10.816 0 0 1 -1.311-.009 1.828 1.828 0 0 1 -.9-3.128c.337-.272.948-.159 1.357-.159h5.475c.511 0 1.041-.042 1.551 0a1.79 1.79 0 0 1 1.557 1.6c.076.585-.232 1.667-.955 1.696zm-.11-4c-1.927-.022-3.854 0-5.781 0-.621 0-1.38-.023-2.122.04a1.9 1.9 0 0 1 -1.043-3.154.826.826 0 0 1 .485-.227h1.61c.223.352.9.3 1.223 0 .945 0 1.891.008 2.837.012a.741.741 0 0 0 .508.1 1.754 1.754 0 0 0 .386-.1c.472 0 .944 0 1.416-.006a1.868 1.868 0 0 1 1.552 1.641c.066.536-.192 1.552-.8 1.719-.095-.012-.184-.023-.273-.025zm-5.777-31.276c6.767-.755 12.61 4.931 12.859 11.541a12.219 12.219 0 0 1 -.991 5.023 21.134 21.134 0 0 1 -3.062 4.33 9.313 9.313 0 0 0 -1.709 3.5 11.092 11.092 0 0 0 -.234 1.982c-.027.454.136.781-.189.941a.865.865 0 0 1 -.272.055 3.069 3.069 0 0 0 -.489-.048c-.241 0-.482 0-.723 0-.034 0-.083-.007-.111-.007h-.766v-6.6a2.867 2.867 0 0 0 1.479-.891 2.106 2.106 0 0 0 .3-2.314 2.267 2.267 0 0 0 -2.029-1.173 1.873 1.873 0 0 0 -1.024.275c-.216.145-.214.289.08.3a1.9 1.9 0 0 1 1.6 2.623 1.761 1.761 0 0 1 -.482.671c-.016.013-.053.04-.092.068a.819.819 0 0 0 -.46-.065 1.755 1.755 0 0 0 -.458.131h-2.27c-.235 0-.467 0-.7 0a.779.779 0 0 0 -.919-.207 1.492 1.492 0 0 1 -.253-.132 1.953 1.953 0 0 1 -.766-1.783 1.9 1.9 0 0 1 .363-.9 1.732 1.732 0 0 1 .356-.349.843.843 0 0 1 .1-.056 1.96 1.96 0 0 0 1-.272c.2-.137.224-.3-.08-.3-1.56.042-3.559 1.039-3.15 2.909a2.12 2.12 0 0 0 1.362 1.518 2.375 2.375 0 0 0 .58.123v6.43c-.292 0-.591.012-.889.035-.176-.013-.356-.015-.528-.036-1.3-.159-1.068-1.238-1.2-2.227a9.7 9.7 0 0 0 -1.693-4.24 40.066 40.066 0 0 1 -2.781-3.7 11.978 11.978 0 0 1 -1.387-4.5c-.597-5.883 3.536-11.975 9.628-12.655z"/><path d="m20.523 35.758a3.96 3.96 0 0 0 -3.382.332 3.845 3.845 0 0 0 -6.439.5c-1.963-.209-4.089.96-4.384 2.955a4.007 4.007 0 0 0 -2.588.778c-.575.428-.724.979-1.168 1.46-.349.379-.959.585-1.347 1a3.332 3.332 0 0 0 1.637 5.523 3.293 3.293 0 0 0 .39 4.154 3.765 3.765 0 0 0 3.862.784 3.674 3.674 0 0 0 3.38 1.143 5.462 5.462 0 0 0 3.137 3.535 5.909 5.909 0 0 0 2.716.422 9.764 9.764 0 0 0 1.1-.165c.023.041.032.091.057.131a2.9 2.9 0 0 0 3.728.843c2.029-1.02 1.583-3.8 1.513-5.8a3.637 3.637 0 0 0 2.927-3.967 3.8 3.8 0 0 0 3.064-3.458c0-.03-.013-.048-.017-.074s.012-.033.011-.051a3.352 3.352 0 0 0 -2.151-2.993 3.434 3.434 0 0 0 -3.857-4.23 3.375 3.375 0 0 0 -2.189-2.822zm-3.579 21.859a4.337 4.337 0 0 1 -2.239-.374 5.044 5.044 0 0 1 -2.795-3.32 3.911 3.911 0 0 0 4.09-.108 6.542 6.542 0 0 1 .735 1.53c.23.69.255 1.509.458 2.231-.084.013-.166.031-.249.041zm8.236-15.031c-.1 0-.2 0-.309 0a4.538 4.538 0 0 0 -1.162.265.831.831 0 0 0 -.386.291.254.254 0 0 0 0 .313c.245.244.687.123.963.027-.14.048-.18.062-.122.043l.041-.013.069-.021c.049-.014.1-.027.149-.038s.1-.015.152-.021.072-.006.109-.009h.064c.091 0 .182.009.272.018.047.007.093.013.139.022a.616.616 0 0 0 .185.1 2.734 2.734 0 0 1 1.911 2.553c-.083 1.159-.837 2.517-2.19 2.375a1.146 1.146 0 0 0 -.388.048 2.985 2.985 0 0 1 -.4-.156 3.142 3.142 0 0 1 -.606-.415.605.605 0 0 0 -.371-.068 1.749 1.749 0 0 0 -.566.122c-.118.049-.632.28-.415.473a3.374 3.374 0 0 0 1.789.794 2.381 2.381 0 0 1 -2.032 3.23c-.255.014-.808.22-.808.549a21.386 21.386 0 0 1 -.026 4.324 1.224 1.224 0 0 1 -2.131.689c-.58-.6-.517-1.5-.69-2.261a7.527 7.527 0 0 0 -1.373-3 3.218 3.218 0 0 0 .674-1.917.147.147 0 0 0 -.025-.145.193.193 0 0 0 -.122-.109.88.88 0 0 0 -.476-.048 1.388 1.388 0 0 0 -.549.186l-.132.1a.443.443 0 0 0 -.144.207 3.057 3.057 0 0 1 -.274 1.236 3.188 3.188 0 0 1 -.262.4.8.8 0 0 0 -.077.054 2.157 2.157 0 0 1 -3.1.045 1 1 0 0 0 -1.033.106 2.149 2.149 0 0 1 -3.126-.314 3.6 3.6 0 0 0 .488-.469 3.5 3.5 0 0 0 .627-1.07.4.4 0 0 0 -.028-.4.611.611 0 0 0 -.412-.205 1.05 1.05 0 0 0 -.571.1.738.738 0 0 0 -.373.342 3.073 3.073 0 0 1 -.3.6 3.263 3.263 0 0 1 -.359.42 3.285 3.285 0 0 1 -.419.313l.085-.052c-.04.023-.078.051-.116.077-2.49 1.087-4.165-2.251-2.628-4.121 0 0 0-.009.007-.014.049-.052.1-.1.153-.148a3.021 3.021 0 0 1 .348-.249 3.087 3.087 0 0 1 .387-.18l-.167.061a1.1 1.1 0 0 0 .475-.27.366.366 0 0 0 -.173-.647.947.947 0 0 0 -.548 0 4.655 4.655 0 0 0 -.524.21 4.547 4.547 0 0 0 -.474.273c-.089.058-.159.141-.243.207a2.632 2.632 0 0 1 -1.229-4.267c.566-.588 1.109-.557 1.526-1.241.63-1.035 1.349-1.666 2.658-1.255a.824.824 0 0 0 .118.022 3.029 3.029 0 0 1 .492.288c.043.035.087.069.128.1a.33.33 0 0 0 .165.1.552.552 0 0 0 .231.047.925.925 0 0 0 .282-.025 1.008 1.008 0 0 0 .287-.085.805.805 0 0 0 .384-.3c.051-.1.09-.237-.008-.324a3.753 3.753 0 0 0 -.557-.413 2.953 2.953 0 0 0 -.367-.167 2.174 2.174 0 0 1 2.586-2.279 3.2 3.2 0 0 0 .113 1.6c.037.1.174.135.267.148a1.644 1.644 0 0 0 1.025-.274c.069-.057.194-.156.157-.262a3.082 3.082 0 0 1 -.162-1.159 3.148 3.148 0 0 1 .07-.422c.013-.027.038-.046.047-.074.735-2.261 3.351-1.978 4.228 0a2.708 2.708 0 0 1 .025 1.935c-.04.116.064.231.153.28a.846.846 0 0 0 .481.063.957.957 0 0 0 .819-.511 3.247 3.247 0 0 0 .041-1.927c1.584-1.251 3.858.319 3.653 2.27a.326.326 0 0 0 .009.11 3.045 3.045 0 0 1 -.325 1.12 3.08 3.08 0 0 1 -.217.334c-.043.057-.089.113-.136.167l-.083.09-.014.013c-.071.067-.182.169-.151.285s.18.157.273.17a1.3 1.3 0 0 0 .538-.043 1.193 1.193 0 0 0 .487-.231 3.449 3.449 0 0 0 1.008-1.745 2.545 2.545 0 0 1 2.541 3.049z"/><path d="m34.479 14.416a1.207 1.207 0 0 0 .956-.4 6.882 6.882 0 0 1 5.285-2.6 1.156 1.156 0 0 0 .955-.4c.172-.285-.146-.435-.395-.434a9.311 9.311 0 0 0 -7.2 3.4c-.217.271.192.427.399.434z"/><path d="m32.442 19.418a.779.779 0 0 0 .494.113 1.038 1.038 0 0 0 .545-.2l.125-.117a.508.508 0 0 0 .128-.269 8.16 8.16 0 0 1 .062-1 .394.394 0 0 0 -.175-.363.783.783 0 0 0 -.5-.113 1.037 1.037 0 0 0 -.544.2.614.614 0 0 0 -.254.386 8.16 8.16 0 0 0 -.062 1 .279.279 0 0 0 .04.2.3.3 0 0 0 .141.163z"/><path d="m41.051 3.191a1.914 1.914 0 0 0 .5-.193c.071-.044.176-.1.176-.192v-2c0-.078-.228-.078-.248-.078a1.957 1.957 0 0 0 -.527.081 1.914 1.914 0 0 0 -.5.193c-.071.044-.176.1-.176.192v2c0 .078.228.078.248.078a1.957 1.957 0 0 0 .527-.081z"/><path d="m32.276 5.338a.165.165 0 0 0 .1.113.319.319 0 0 0 .179.069 1.228 1.228 0 0 0 .539-.038 1.194 1.194 0 0 0 .485-.236c.065-.06.207-.2.148-.3l-.877-1.512-.126-.217a.167.167 0 0 0 -.1-.113.334.334 0 0 0 -.179-.069 1.228 1.228 0 0 0 -.539.038 1.207 1.207 0 0 0 -.485.236c-.065.06-.207.2-.148.3l.874 1.515z"/><path d="m26.309 9.872-.217-.125a.669.669 0 0 0 -.372-.059 1.92 1.92 0 0 0 -.565.125.984.984 0 0 0 -.4.23c-.046.054-.117.155-.022.21l1.515.875.217.125a.669.669 0 0 0 .372.059 1.92 1.92 0 0 0 .565-.125.994.994 0 0 0 .4-.23c.046-.054.116-.155.022-.21z"/><path d="m23.474 18.721a2.057 2.057 0 0 0 -.528.079 1.827 1.827 0 0 0 -.5.2c-.058.037-.2.11-.174.2s.194.085.25.085h2a2.057 2.057 0 0 0 .528-.079 1.827 1.827 0 0 0 .5-.2c.058-.037.2-.11.174-.2s-.194-.085-.25-.085z"/><path d="m27.22 26.516a1.4 1.4 0 0 0 -.546.2l-1.515.875-.217.125a.581.581 0 0 0 -.261.357.331.331 0 0 0 .166.326.809.809 0 0 0 .488.09 1.394 1.394 0 0 0 .546-.2l1.515-.875.217-.125a.581.581 0 0 0 .261-.357.331.331 0 0 0 -.166-.326.808.808 0 0 0 -.488-.09z"/><path d="m54.3 27.424 1.515.875.217.125a.832.832 0 0 0 .5.117 1.02 1.02 0 0 0 .545-.2.593.593 0 0 0 .251-.392.4.4 0 0 0 -.178-.372l-1.52-.877-.217-.125a.834.834 0 0 0 -.495-.117 1.02 1.02 0 0 0 -.545.2.59.59 0 0 0 -.251.392.4.4 0 0 0 .178.374z"/><path d="m56.516 18.657a.612.612 0 0 0 -.251.395c-.016.382.363.492.674.492h2a1 1 0 0 0 .545-.2.612.612 0 0 0 .251-.395c.016-.382-.363-.492-.674-.492h-2a1 1 0 0 0 -.545.2z"/><path d="m56.258 9.539-1.515.874-.217.126a.81.81 0 0 0 -.367.36.443.443 0 0 0 .037.43.815.815 0 0 0 .99.132l1.516-.874.216-.126a.807.807 0 0 0 .368-.36.446.446 0 0 0 -.037-.43.816.816 0 0 0 -.991-.132z"/><path d="m48.876 5.452a1.794 1.794 0 0 0 .551-.176.69.69 0 0 0 .291-.249l.874-1.515.126-.217c.053-.093-.064-.163-.129-.186a1.029 1.029 0 0 0 -.465-.006 1.794 1.794 0 0 0 -.551.176.7.7 0 0 0 -.291.249l-.874 1.515-.126.217c-.053.093.064.163.129.186a1.029 1.029 0 0 0 .465.006z"/></g></svg>