<svg id="Layer_1" enable-background="new 0 0 91 91" height="512" viewBox="0 0 91 91" width="512" xmlns="http://www.w3.org/2000/svg"><g><path d="m73.3 53.7c.4-4.6 1.1-11.1-2.5-14.7-1.8-1.8-4.5-2.5-6.9-2.1-1.6-3.9-5.4-6.2-9.3-5.1-.3-2.6-1-5.1-3.7-6.2-1.8-.7-3.4-.8-4.9-.3 0-2.2-.1-4.5-.2-6.7-.2-3.4-.1-7.1-.8-10.4-1.2-5.2-6.3-10.4-11.5-5.9-5.4 4.8-3.7 14.8-3.6 21.2v1.9h-.1c-5.1.9-7.8 5.6-8.6 10.4-1 5.8-1.5 11.9-.9 17.7.6 6 2.8 10.7 5.5 16 3 5.9 3.3 12 4.3 18.4.4 2.3 3.9 1.6 4-.5.2-4.8-.3-9.9-1.8-14.5-1.6-5-4.9-9.2-6.3-14.2s-1.3-10.2-.9-15.3c.3-4.2.2-11.4 4.9-13.1 0 2 .1 4.1.1 6.1.1 4.2-.2 8.7.8 12.9.3 1.1 1.8 1 2.1 0 1.6-5.7 1-12.3 1-18.1.1-6.3 0-12.6.3-18.9.1-2 1.3-9.5 4.8-6.4 1.7 1.5 1.6 4.7 1.6 6.7.1 6.3.6 12.6 0 18.9-.3 2.8 4 3.1 4.8.6.8-2.4 3.5-3 4-.3.3 1.4.2 2.8.3 4.2.1 2.1 2.6 3.3 4.1 1.7 2.7-2.7 5.5-.7 5.7 2.7.1 2 2.6 3.2 4.1 1.7 1.3-1.3 3.4-.1 4.1 1.2 1.1 1.9.9 4.6.9 6.6.1 4.8 0 10-2.1 14.4-1.8 3.8-4.4 6.9-5.6 11-1.3 4.2-1.6 8.7-1.7 13-.1 2.8 4.5 2.8 4.4 0-.1-6.7.8-12.6 4.3-18.3 3.1-5.2 4.8-10.3 5.3-16.3z" fill="#3c6b76"/></g></svg>