<svg height="512" viewBox="0 0 64 64" width="512" xmlns="http://www.w3.org/2000/svg"><g id="Elearning-Lesson-Book-Smartphone-Computer"><path d="m53 30v4h-29v2h29v3a3.009 3.009 0 0 1 -3 3h-26v2h.87l-.75 6h-.12v2h17a1 1 0 0 1 0 2h-17v2h17a3 3 0 0 0 0-6h-1.12l-.75-6h10.87a5 5 0 0 0 5-5v-9zm-26.87 20 .75-6h10.24l.75 6z"/><path d="m11 15a3 3 0 0 1 3-3h14v-2h-14a5.006 5.006 0 0 0 -5 5v15h2z"/><path d="m47 38h2v2h-2z"/><path d="m15 14h2v2h-2z"/><path d="m19 14h8v2h-8z"/><path d="m15 18h12v2h-12z"/><path d="m15 22h12v2h-12z"/><path d="m15 26h12v2h-12z"/><path d="m17 32h-10a5.006 5.006 0 0 0 -5 5v20a5.006 5.006 0 0 0 5 5h10a5.006 5.006 0 0 0 5-5v-20a5.006 5.006 0 0 0 -5-5zm3 25a3 3 0 0 1 -3 3h-10a3 3 0 0 1 -3-3v-20a3 3 0 0 1 3-3h10a3 3 0 0 1 3 3z"/><path d="m10 36h4v2h-4z"/><path d="m6 36h2v2h-2z"/><path d="m10 56h4v2h-4z"/><path d="m11 46h2v2h-2z"/><path d="m15 46h2v2h-2z"/><path d="m7 46h2v2h-2z"/><path d="m61 2h-11a4.994 4.994 0 0 0 -4 2.03 4.994 4.994 0 0 0 -4-2.03h-11a1 1 0 0 0 -1 1v24a1 1 0 0 0 1 1h30a1 1 0 0 0 1-1v-24a1 1 0 0 0 -1-1zm-29 24v-2h10a3.014 3.014 0 0 1 2.83 2zm13-2.97a4.924 4.924 0 0 0 -3-1.03h-10v-18h10a3.009 3.009 0 0 1 3 3zm15 2.97h-12.83a3.014 3.014 0 0 1 2.83-2h10zm0-4h-10a4.924 4.924 0 0 0 -3 1.03v-16.03a3.009 3.009 0 0 1 3-3h10z"/><path d="m34 6h9v2h-9z"/><path d="m34 14h9v2h-9z"/><path d="m34 18h9v2h-9z"/><path d="m49 6h9v2h-9z"/><path d="m49 14h9v2h-9z"/><path d="m34 10h9v2h-9z"/><path d="m49 10h9v2h-9z"/><path d="m49 18h9v2h-9z"/></g></svg>