<svg id="Layer_1" enable-background="new 0 0 512 512" height="512" viewBox="0 0 512 512" width="512" xmlns="http://www.w3.org/2000/svg"><g><path d="m426.974 415.286h11.809c12.203 0 22.13-9.928 22.13-22.13 0-9.391-5.883-17.429-14.155-20.637 17.613-12.827 29.091-33.593 29.091-57 0-38.867-31.62-70.488-70.487-70.488h-74.087c1.708-1.583 3.398-3.274 5.061-5.097 25.726-28.199 42.221-81.093 38.368-123.036-.379-4.12-4.032-7.161-8.144-6.773-4.12.378-7.152 4.025-6.774 8.145 3.509 38.19-11.33 86.155-34.516 111.568-6.324 6.931-16.181 15.194-27.227 15.194-21.842 0-35.382-23.437-35.506-23.656-2.616-5.04-10.458-5.039-13.074 0-.132.237-13.489 23.656-35.506 23.656-12.516 0-23.526-10.374-30.558-19.078-21.4-26.485-38.22-78.632-29.324-120.052 3.463-16.127 14.385-37.564 46.266-50.62 1.319 1.907 2.808 3.728 4.5 5.42 11.715 11.714 29.447 13.954 41.294 13.954.881 0 1.729-.013 2.541-.035-.503 4.67-.807 8.749-.99 11.998-10.129-1.99-13.651-7.784-13.825-8.081l-.007.003c-5.053-8.159-17.229-1.65-13.16 7.118l-.009.005c.032.061.09.168.136.249.661 1.176 3.021 4.932 7.989 8.591 4.809 3.542 13.238 7.763 26.086 7.763s21.277-4.221 26.086-7.763c4.968-3.658 7.328-7.414 7.989-8.591.047-.081.104-.187.137-.249l-.009-.005c4.07-8.776-8.113-15.272-13.159-7.118l-.007-.003c-.169.29-3.548 5.859-13.206 7.957.581-9.123 2.152-24.652 6.392-40.812 40.665 2.959 71.623 19.785 84.111 46.266 4.574 8.848 17.467 2.682 13.55-6.39-14.464-30.673-48.603-50.392-93.048-54.509 2.197-5.862 4.817-11.576 7.948-16.857 2.11-3.559.935-8.153-2.623-10.263-3.558-2.112-8.153-.935-10.263 2.623-3.594 6.062-6.583 12.552-9.071 19.158-1.999-4.243-4.647-8.266-8.136-11.755-18.561-18.563-52.234-13.338-53.657-13.104-3.181.517-5.674 3.01-6.191 6.191-.164 1.007-2.818 18.159 2.212 34.68-29.419 12.333-48.669 33.779-54.523 61.032-4.438 20.664-3.355 45.847 3.052 70.906 6.147 24.043 16.54 45.958 29.267 61.708 2.92 3.613 5.922 6.823 8.981 9.662h-107.512c-12.203 0-22.13 9.928-22.13 22.13 0 12.203 9.927 22.13 22.13 22.13h11.809v52.454h-11.809c-12.203 0-22.13 9.927-22.13 22.13 0 9.391 5.883 17.429 14.155 20.636-17.613 12.827-29.091 33.593-29.091 57 0 38.867 31.621 70.487 70.488 70.487h332.146c12.203 0 22.13-9.927 22.13-22.129 0-12.203-9.927-22.13-22.13-22.13h-11.809v-52.453zm-220.983-400.182c2.817-.154 6.468-.206 10.447.114 7.556.609 17.95 2.722 24.557 9.329v.001c6.608 6.607 8.72 17 9.329 24.557.321 3.979.269 7.631.115 10.446-2.818.154-6.469.206-10.447-.114-7.556-.609-17.95-2.722-24.557-9.33-6.608-6.607-8.72-17.001-9.329-24.557-.321-3.98-.27-7.631-.115-10.446zm50.009 222.817c1.859 2.237 4.108 4.685 6.727 7.11h-13.455c2.62-2.426 4.869-4.873 6.728-7.11zm-182.784 133.104c-3.943 0-7.15-3.207-7.15-7.149s3.207-7.15 7.15-7.15h83.644c4.137 0 7.49-3.353 7.49-7.49s-3.354-7.49-7.49-7.49h-56.854v-18.737h270.007c4.137 0 7.49-3.353 7.49-7.49s-3.353-7.49-7.49-7.49h-270.008v-18.736h305.358c14.462 0 26.227 11.765 26.227 26.227s-11.765 26.228-26.227 26.228h-218.542c-4.137 0-7.49 3.353-7.49 7.49s3.354 7.49 7.49 7.49h218.542c22.722 0 41.208-18.486 41.208-41.208s-18.486-41.207-41.208-41.207h-332.147c-3.943 0-7.15-3.208-7.15-7.15s3.207-7.15 7.15-7.15h332.147c30.607 0 55.507 24.9 55.507 55.507s-24.9 55.507-55.507 55.507h-298.726-33.421zm296.797 96.715c-4.137 0-7.49 3.353-7.49 7.49s3.354 7.49 7.49 7.49h68.771c3.943 0 7.15 3.208 7.15 7.15s-3.207 7.149-7.15 7.149h-332.147c-30.607 0-55.507-24.9-55.507-55.507s24.9-55.507 55.507-55.507h332.146c3.943 0 7.15 3.208 7.15 7.15s-3.207 7.15-7.15 7.15h-332.146c-22.722 0-41.208 18.486-41.208 41.207 0 22.722 18.486 41.208 41.208 41.208h233.415c4.137 0 7.49-3.353 7.49-7.49s-3.353-7.49-7.49-7.49h-233.415c-14.462 0-26.228-11.766-26.228-26.228s11.765-26.227 26.228-26.227h305.357v18.736h-270.007c-4.137 0-7.49 3.353-7.49 7.49s3.354 7.49 7.49 7.49h270.007v18.737h-41.981z"/></g></svg>