<?xml version="1.0"?>
<svg xmlns="http://www.w3.org/2000/svg" id="Outline" viewBox="0 0 512 512" width="512" height="512"><path d="M488,112H472.564L488.97,95.6a23.991,23.991,0,0,0,0-33.935L466.34,39.03a24,24,0,0,0-33.944,0L359.426,112H40a8,8,0,0,0-8,8v24H24a8,8,0,0,0,0,16h8v16H24a8,8,0,0,0,0,16h8v16H24a8,8,0,0,0,0,16h8v16H24a8,8,0,0,0,0,16h8v16H24a8,8,0,0,0,0,16h8v16H24a8,8,0,0,0,0,16h8v16H24a8,8,0,0,0,0,16h8v16H24a8,8,0,0,0,0,16h8v16H24a8,8,0,0,0,0,16h8v16H24a8,8,0,0,0,0,16h8v24a8,8,0,0,0,8,8H488a8,8,0,0,0,8-8V120A8,8,0,0,0,488,112ZM415.429,78.626l11.312-11.313,33.941,33.941-11.313,11.312Zm0,22.63L345.387,171.3l-1.563-4.69a8,8,0,0,0-7.59-5.469h-3.318l71.2-71.2Zm-108.2,106.758,12.761,12.76-20.736,7.975Zm29.1,6.474-22.819-22.817,5.59-14.532h11.368l3.833,11.5a8,8,0,0,0,5.06,5.059l11.5,3.833V208.9Zm25.061-30.312-4.69-1.563,70.043-70.043,11.311,11.311-71.194,71.193v-3.308A8,8,0,0,0,361.391,184.176ZM449.367,48a7.946,7.946,0,0,1,5.658,2.345L477.66,72.979a7.986,7.986,0,0,1-.005,11.3L472,89.939,438.056,56l5.654-5.654A7.947,7.947,0,0,1,449.367,48ZM48,448h8a8,8,0,0,0,0-16H48V416h8a8,8,0,0,0,0-16H48V384h8a8,8,0,0,0,0-16H48V352h8a8,8,0,0,0,0-16H48V320h8a8,8,0,0,0,0-16H48V288h8a8,8,0,0,0,0-16H48V256h8a8,8,0,0,0,0-16H48V224h8a8,8,0,0,0,0-16H48V192h8a8,8,0,0,0,0-16H48V160h8a8,8,0,0,0,0-16H48V128H343.426l-35.481,35.48.014.015a7.96,7.96,0,0,0-1.819,2.772l-28.285,73.539a8,8,0,0,0,10.339,10.339l73.539-28.285a7.956,7.956,0,0,0,2.777-1.824l.01.009L456.564,128H480V400H424a8,8,0,0,0-8,8v56H48Zm420.687-32L432,452.687V416Zm-25.373,48L480,427.314V464Z"/><path d="M344,248a8,8,0,0,0-8,8v96H286.39A80.239,80.239,0,0,0,224,289.61V240h24a8,8,0,0,0,0-16H216a8,8,0,0,0-8,8v56a80,80,0,1,0,80,80h56a8,8,0,0,0,8-8V256A8,8,0,0,0,344,248ZM269.975,352H224V306.025A64.239,64.239,0,0,1,269.975,352ZM208,432a64,64,0,0,1,0-128v56a8,8,0,0,0,8,8h56A64.072,64.072,0,0,1,208,432Z"/></svg>
