<?xml version="1.0" encoding="iso-8859-1"?>
<!-- Generator: Adobe Illustrator 18.0.0, SVG Export Plug-In . SVG Version: 6.00 Build 0)  -->
<!DOCTYPE svg PUBLIC "-//W3C//DTD SVG 1.1//EN" "http://www.w3.org/Graphics/SVG/1.1/DTD/svg11.dtd">
<svg version="1.1" id="Capa_1" xmlns="http://www.w3.org/2000/svg" xmlns:xlink="http://www.w3.org/1999/xlink" x="0px" y="0px"
	 viewBox="0 0 53.312 53.312" style="enable-background:new 0 0 53.312 53.312;" xml:space="preserve">
<g>
	<path d="M53,28.484V13.958c0-0.681-0.545-0.993-1.071-0.962c-0.028-0.496-0.355-1.005-0.984-1.063
		c-8.802-0.799-17.536-1.329-26.352-1.881c-4.956-0.311-21.574,0.08-21.721,0.297c-0.101,0.08-0.243,0.124-0.307,0.233
		c-2.153,3.71-4.287,28.036-0.432,30.843c2.677,1.949,10.699,1.544,14.81,1.677c8.258,0.267,16.538,0.075,24.799,0.261
		c4.494,0.101,9.589-0.374,11.116-5.214C53.789,35.206,53,31.515,53,28.484z M11.174,11.918c6.059-0.711,12.309,0.157,18.37,0.453
		c6.72,0.329,13.347,0.877,20.039,1.479c-3.035,2.735-6.964,3.894-10.315,6.207c-1.395,0.962-2.754,2.089-4.15,3.065
		c-0.377,0.037-0.695,0.268-0.868,0.577c-2.47,1.566-5.1,2.456-8.285,0.921c-3.295-1.589-6.196-3.882-9.537-5.455
		c-3.274-1.541-7.261-3.286-9.503-6.289C8.129,12.372,9.559,12.107,11.174,11.918z M2.335,35.778
		c-0.785-3.551-0.042-8.546,0.027-10.946c0.064-2.265,0.228-4.503,0.649-6.734c0.365-1.945,1.109-3.251,2.16-4.155
		c1.954,2.708,5.104,4.386,8.022,5.909c2.204,1.15,4.515,2.069,6.668,3.309c0.066,0.038,0.131,0.081,0.195,0.12
		c-5.847,4.173-11.9,8.132-17.645,12.427C2.384,35.73,2.362,35.755,2.335,35.778z M47.331,40.827
		c-2.509,0.776-5.453,0.528-8.037,0.42c-11.118-0.464-23.286,1.487-34.105-1.648c-1.014-0.293-1.712-1.006-2.203-1.954
		c0.156-0.013,0.319-0.068,0.483-0.191c5.893-4.406,12.114-8.455,18.102-12.748c0.109-0.079,0.192-0.17,0.259-0.267
		c1.48,1.027,2.959,2.101,4.651,2.671c3.338,1.123,6.196-0.004,8.889-1.727c1.138,0.765,1.918,1.948,2.785,3.019
		c1.246,1.54,2.88,2.837,4.256,4.267c2.315,2.406,4.167,5.14,6.854,7.149C48.761,40.233,48.132,40.578,47.331,40.827z
		 M50.489,38.213c-3.17-2.28-5.402-5.769-8.14-8.524c-1.601-1.61-3.237-4.033-5.18-5.542c0.338-0.245,0.674-0.492,1.01-0.741
		c4.041-2.997,9.06-4.674,12.771-8.046c-0.025,5.767-0.185,11.566,0.101,17.321C51.15,34.656,51.204,36.644,50.489,38.213z"/>
</g>
<g>
</g>
<g>
</g>
<g>
</g>
<g>
</g>
<g>
</g>
<g>
</g>
<g>
</g>
<g>
</g>
<g>
</g>
<g>
</g>
<g>
</g>
<g>
</g>
<g>
</g>
<g>
</g>
<g>
</g>
</svg>
