<?xml version="1.0" encoding="iso-8859-1"?>
<!-- Generator: Adobe Illustrator 18.0.0, SVG Export Plug-In . SVG Version: 6.00 Build 0)  -->
<!DOCTYPE svg PUBLIC "-//W3C//DTD SVG 1.1//EN" "http://www.w3.org/Graphics/SVG/1.1/DTD/svg11.dtd">
<svg version="1.1" id="Capa_1" xmlns="http://www.w3.org/2000/svg" xmlns:xlink="http://www.w3.org/1999/xlink" x="0px" y="0px"
	 viewBox="0 0 71.296 71.296" style="enable-background:new 0 0 71.296 71.296;" xml:space="preserve">
<g>
	<path d="M67.478,60.208c-6.846-6.59-13.24-13.775-19.671-20.771c2.433-4.242,3.372-9.156,3.455-14.43
		c0.13-8.258-4.681-15.34-10.998-20.234C27.522-5.101,8.453,1.27,2.257,15.409c-0.102,0.232-0.106,0.453-0.049,0.65
		c-0.012,0.039-0.035,0.064-0.043,0.108c-0.999,5.58-1.766,10.82,0.13,16.238c0.595,2.211,1.409,4.285,2.385,6.074
		c3.159,5.785,8.767,12.484,15.813,13.018c4.831,0.367,10.636-0.379,15.645-2.316c1.648-0.428,3.233-0.98,4.707-1.678
		c4.169,6.063,9.126,11.521,14.458,16.578c2.81,2.666,6.914,10.094,11.408,6.02C70.851,66.348,71.467,64.048,67.478,60.208z
		 M13.723,46.577c2.405,1.391,5.126,2.375,7.989,2.957C18.695,49.514,16.035,48.35,13.723,46.577z M36.367,47.026
		c-0.327,0.15-0.664,0.287-1,0.426c-8.037,1.99-17.431,0.299-23.72-4.588c-2.944-2.287-6.051-7.316-7.465-10.766
		c-0.012-0.029-0.02-0.059-0.032-0.086c-0.836-2.998-1.257-6.274-1.053-9.387c0.071-0.76,0.166-1.516,0.276-2.273
		c0.332-1.881,0.917-3.66,1.836-5.219c0.113-0.272,0.228-0.535,0.345-0.783c0.79-1.666,2.268-5.213,4.339-6.233
		c7.503-6.68,18.851-8.324,28.079-2.656c12.811,7.869,15.598,27.16,4.559,37.705C40.696,44.921,38.602,46.143,36.367,47.026z
		 M43.72,46.083c0.651,0.93,1.321,1.848,2.018,2.752C44.862,48.02,44.091,47.139,43.72,46.083z M62.442,59.948
		c0.604,0.574,1.264,1.184,1.874,1.811c0.608,0.848,1.208,1.695,1.814,2.527c0.03,0.041,0.064,0.074,0.098,0.109
		c0.012,0.033,0.026,0.063,0.038,0.094C64.725,63.266,63.579,61.575,62.442,59.948z"/>
	<path d="M33.413,21.69c-1.421,0.053-2.838,0.154-4.254,0.275c-0.052-2.311,0.146-5.461-0.585-7.445
		c-0.123-0.334-0.258-0.609-0.411-0.836c-1.032,0.098-2.065,0.199-3.095,0.313c-0.008,0.16,0.012,0.32,0.071,0.469
		c-0.017,2.664-0.295,5.305-0.561,7.939c-0.122,0.014-0.245,0.025-0.366,0.037c-1.984,0.199-5.265-0.268-7.298,0.549
		c-0.005,1.451,0.013,2.898,0.056,4.346c0.275-0.004,0.576-0.061,0.907-0.193c0.351-0.143,4.448-0.719,6.346-0.734
		c-0.074,1.094-0.129,2.186-0.131,3.283c-0.002,1.162,0.122,3.016,0.561,4.658c-0.042,0.609-0.049,1.229,0.032,1.883
		c0.006,0.049,0.022,0.094,0.033,0.141c1.324-0.113,2.652-0.172,3.984-0.197c0.312-0.738,0.265-1.615,0.212-2.656
		c-0.118-2.391,0.127-4.762,0.248-7.143c2.797-0.025,5.593-0.051,8.391-0.057c-0.162-1.379-0.304-2.752-0.392-4.133
		C36.088,21.575,34.432,21.651,33.413,21.69z"/>
</g>
<g>
</g>
<g>
</g>
<g>
</g>
<g>
</g>
<g>
</g>
<g>
</g>
<g>
</g>
<g>
</g>
<g>
</g>
<g>
</g>
<g>
</g>
<g>
</g>
<g>
</g>
<g>
</g>
<g>
</g>
</svg>
