<svg id="Layer_1" data-name="Layer 1" xmlns="http://www.w3.org/2000/svg" viewBox="0 0 101.69 69.9"><path d="M221,153.59c2.35,4.66-1.15,4-4.32,4.54l6.8,3c-1,1.77-2.62,3.55-3,5.55-.14.76,2.66,1.88,3.83,3.11.92,1,1.39,2.37,2.44,4.24H217l0,1,11.77,1.09.18.9-5.67,1.25,4.79,4.39-3.4,2.58,3,3.5H178.16v1.76h45.18l0,1.17-8.57,1.85,8.56,1.32-.08.91-3.38.52L218.53,200l7.17,2.87-3.85,2.68,2.51,3.4-8.46,3.14,5.8,2.42-.28,1.34c-1.56,0-3.12,0-4.68,0q-35.2-.36-70.41-.77c-1.54,0-3.57-.07-4.5-1-3-2.95-2.42-4.69,1.56-6.5,1.59-.72,3.07-1.68,5.54-3l-10.54-1.82,7.08-1.75L138,194.78l3.28-3.27-6.83-6.57,6.34-2.86-4-1.49,7.56-3.49.07-1.08-10.11-2.48L145.08,166h-8.27l-.12-1,6.48-1.58-3.82-3,28.56-1.69,0-1c-5.74,0-11.49,0-17.23,0-5.9-.06-11.91.82-16.6-4.59-1.11-1.28-4.53-.57-6.89-1.28,29.34-4.65,59-3.28,88.42-5.85l.16,1.75-5,.74,18,3.39-.11,1.2ZM150.53,206.9l-.33.7H198l0-.7Zm-7.19-13.08-.08,1.32h37.82v-1.32Zm.34-6.92.06,1.59L175.86,187l0-.1Z" transform="translate(-127.22 -145.94)"/></svg>