<svg id="Icons" height="512" viewBox="0 0 60 60" width="512" xmlns="http://www.w3.org/2000/svg"><path d="m48.523 59.336a.5.5 0 0 1 -.307-.895l2.778-2.167-4.359 2.517a.5.5 0 0 1 -.561-.825l5.213-4.123-6.653 3.841a.5.5 0 0 1 -.539-.841l3.844-2.727-4.773 2.756a.5.5 0 0 1 -.527-.849l1.09-.726-1.668.963a.5.5 0 0 1 -.532-.846l4.058-2.765-4.919 2.84a.5.5 0 0 1 -.535-.843l6.615-4.586-15.933 9.2a.5.5 0 0 1 -.522-.852l10.135-6.59-11.941 6.892a.5.5 0 0 1 -.524-.851l12.266-8.059-13.629 7.867a.5.5 0 0 1 -.527-.85l13.2-8.741-14.679 8.479a.5.5 0 0 1 -.521-.853l10.14-6.535-11.241 6.49a.5.5 0 0 1 -.516-.856l4.706-2.951-5.419 3.128a.5.5 0 0 1 -.518-.855l8.806-5.623-18.542 10.7a.5.5 0 0 1 -.514-.856l12.19-7.621-13.265 7.662a.5.5 0 0 1 -.511-.859l3.711-2.275-4.334 2.5a.5.5 0 0 1 -.517-.856l12.451-7.861-13.547 7.821a.5.5 0 0 1 -.516-.855l9.978-6.274-10.933 6.312a.5.5 0 0 1 -.523-.852l13.926-9.027-15.158 8.751a.5.5 0 0 1 -.514-.857l3.551-2.207-3.583 2.068a.5.5 0 0 1 -.525-.851l12.126-7.97-11.702 6.756a.5.5 0 0 1 -.516-.856l2.629-1.657-2.114 1.22a.5.5 0 0 1 -.52-.854l4.111-2.639-3.591 2.073a.5.5 0 0 1 -.527-.849l6.077-4.051-5.55 3.2a.5.5 0 0 1 -.543-.837l7.264-5.241-6.721 3.877a.5.5 0 0 1 -.538-.841l3.399-2.394-2.861 1.65a.5.5 0 0 1 -.551-.831l5.688-4.313a.578.578 0 0 1 -.057-.08.5.5 0 0 1 .183-.683l3.717-2.143a.5.5 0 0 1 .552.831l-3.12 2.365 5.538-3.2a.5.5 0 0 1 .539.841l-3.4 2.4 5.61-3.238a.5.5 0 0 1 .543.838l-7.257 5.242 10.536-6.079a.5.5 0 0 1 .527.848l-6.091 4.052 8.5-4.905a.5.5 0 0 1 .521.853l-4.124 2.652 6.061-3.5a.5.5 0 0 1 .517.855l-2.6 1.64 4.324-2.5a.5.5 0 0 1 .524.85l-12.13 7.973 15.283-8.818a.5.5 0 0 1 .514.857l-3.547 2.2 5.306-3.062a.5.5 0 0 1 .522.852l-13.928 9.028 17.115-9.881a.5.5 0 0 1 .516.855l-9.968 6.268 12.339-7.124a.5.5 0 0 1 .517.855l-12.463 7.872 15.118-8.727a.5.5 0 0 1 .512.858l-3.686 2.261 5.4-3.119a.5.5 0 0 1 .514.856l-12.2 7.629 13.274-7.663a.5.5 0 0 1 .518.855l-8.8 5.619 9.643-5.568a.5.5 0 0 1 .516.857l-4.691 2.941 5.29-3.054a.5.5 0 0 1 .521.853l-10.149 6.539 11.1-6.408a.5.5 0 0 1 .526.849l-13.2 8.74 14.5-8.371a.5.5 0 0 1 .525.85l-12.266 8.061 13.3-7.678a.5.5 0 0 1 .522.852l-10.137 6.589 10.035-5.794a.5.5 0 0 1 .535.844l-6.614 4.586 6.079-3.51a.5.5 0 0 1 .531.846l-4.066 2.771 3.536-2.041a.5.5 0 0 1 .527.848l-1.085.723.558-.321a.5.5 0 0 1 .539.84l-3.846 2.728 3.307-1.909a.5.5 0 0 1 .664.151.5.5 0 0 1 -.1.674l-5.217 4.123 4.653-2.686a.5.5 0 0 1 .557.828l-2.778 2.166 1.936-1.118a.5.5 0 0 1 .5.866l-8.164 4.713a.5.5 0 0 1 -.249.067z" fill="#38d6d2"/><path d="m30.029 59.193a.5.5 0 0 1 -.318-.885l4.308-3.551-3.744 2.161a.5.5 0 0 1 -.56-.824l3.609-2.86-3.053 1.766a.5.5 0 0 1 -.662-.149.5.5 0 0 1 .1-.672l4.06-3.295-3.5 2.019a.5.5 0 0 1 -.561-.824l3.664-2.911-3.107 1.794a.5.5 0 0 1 -.552-.831l2.614-1.983-2.067 1.188a.5.5 0 0 1 -.545-.836l5.968-4.368a.5.5 0 0 1 .223-.595l2.815-1.625a.5.5 0 0 1 .545.836l-1.514 1.108.97-.559a.5.5 0 0 1 .551.831l-2.612 1.982 2.064-1.191a.5.5 0 0 1 .56.824l-3.664 2.911 3.106-1.793a.5.5 0 0 1 .565.822l-4.061 3.3 3.5-2.02a.5.5 0 0 1 .561.824l-3.609 2.86 3.05-1.761a.5.5 0 0 1 .569.818l-4.309 3.551 3.743-2.16a.5.5 0 1 1 .5.865l-8.955 5.17a.491.491 0 0 1 -.252.063z" fill="#1f9b92"/><path d="m29.661 59.382a.5.5 0 0 1 -.486-.614l.076-.325-.61.352a.5.5 0 0 1 -.662-.718l.337-.484-.9.521a.5.5 0 0 1 -.636-.751l1.073-1.3-2.029 1.17a.5.5 0 0 1 -.609-.78l1.948-2.018-3.132 1.807a.5.5 0 0 1 -.56-.824l.858-.68-1.476.852a.5.5 0 0 1 -.551-.832l.846-.638-1.445.834a.5.5 0 0 1 -.557-.827l2.811-2.189-2.677 1.542a.5.5 0 0 1 -.558-.826l1.92-1.5-1.362.786a.5.5 0 0 1 -.6-.791l2.871-2.815-2.271 1.31a.5.5 0 0 1 -.57-.817l.4-.333a.513.513 0 0 1 -.472-.185.5.5 0 0 1 .033-.656l1.012-1.053-.4.231a.5.5 0 0 1 -.692-.666l.878-1.658-.186.106a.5.5 0 0 1 -.524-.014.5.5 0 0 1 -.223-.476l.164-1.4a.482.482 0 0 1 -.1-.123.5.5 0 0 1 .182-.683l.23-.133a.5.5 0 0 1 .747.491l-.114.979.827-.478a.5.5 0 0 1 .692.666l-.88 1.658 1.95-1.125a.5.5 0 0 1 .611.779l-1.013 1.054 1.676-.967a.5.5 0 0 1 .57.816l-.252.21.646-.372a.5.5 0 0 1 .6.79l-2.872 2.815 4.1-2.366a.5.5 0 0 1 .558.827l-1.918 1.5 2.784-1.607a.5.5 0 0 1 .557.827l-2.809 2.188 2.258-1.3a.5.5 0 0 1 .55.832l-.849.641.3-.175a.5.5 0 0 1 .561.824l-.854.677.3-.172a.5.5 0 0 1 .61.78l-1.948 2.017 1.346-.778a.5.5 0 0 1 .636.751l-1.073 1.3.443-.255a.5.5 0 0 1 .661.718l-.418.6a.5.5 0 0 1 .5.614l-.174.742a.491.491 0 0 1 .126.145.5.5 0 0 1 -.183.683l-.346.2a.509.509 0 0 1 -.257.069z" fill="#2dbab3"/><path d="m12.367 59.4a.5.5 0 0 1 -.306-.9l2.8-2.168-2.581 1.49a.5.5 0 0 1 -.55-.832l2.378-1.79-1.832 1.058a.5.5 0 0 1 -.544-.836l1.441-1.054-.9.519a.5.5 0 0 1 -.566-.821l4.149-3.385-3.587 2.071a.5.5 0 0 1 -.551-.832l2.474-1.868-1.926 1.112a.5.5 0 0 1 -.562-.824l3.696-2.94-3.14 1.815a.5.5 0 0 1 -.542-.839l5.955-4.276a.5.5 0 0 1 .233-.562l2.815-1.625a.5.5 0 0 1 .542.839l-.79.567.249-.143a.5.5 0 0 1 .561.824l-3.7 2.942 3.14-1.812a.5.5 0 0 1 .55.832l-2.473 1.868 1.928-1.112a.5.5 0 0 1 .566.82l-4.148 3.385 3.584-2.069a.5.5 0 0 1 .545.835l-1.443 1.056.9-.519a.5.5 0 0 1 .551.832l-2.374 1.786 1.825-1.054a.5.5 0 0 1 .557.828l-2.8 2.17 2.247-1.3a.5.5 0 1 1 .5.865l-8.618 4.976a.491.491 0 0 1 -.253.071z" fill="#1f9b92"/><path d="m10.866 59.125a.5.5 0 0 1 -.466-.681l.619-1.6-1.9 1.1a.5.5 0 0 1 -.609-.78l.661-.685-1.319.761a.5.5 0 0 1 -.583-.8l.76-.678-1.4.8a.5.5 0 0 1 -.589-.8l2.3-2.125-3.421 1.977a.5.5 0 0 1 -.553-.831l1.023-.776-1.5.866a.5.5 0 0 1 -.548-.834l1.292-.957-1.277.736a.5.5 0 0 1 -.57-.818l2.9-2.4-2.41 1.39a.5.5 0 0 1 -.594-.8l2.778-2.638-2.185 1.26a.5.5 0 0 1 -.569-.812l.563-.476a.5.5 0 0 1 -.591-.8l.863-.853-.262.15a.493.493 0 0 1 -.6-.075.5.5 0 0 1 -.089-.6l.964-1.763-.276.158a.5.5 0 0 1 -.737-.545l.3-1.308a.541.541 0 0 1 -.107-.129.5.5 0 0 1 .184-.683l.315-.182a.506.506 0 0 1 .548.033.5.5 0 0 1 .19.513l-.2.861.823-.475a.5.5 0 0 1 .688.673l-.959 1.771 2.08-1.2a.5.5 0 0 1 .6.788l-.866.858 1.448-.836a.5.5 0 0 1 .573.814l-.559.474 1.013-.585a.5.5 0 0 1 .595.795l-2.775 2.636 3.906-2.255a.5.5 0 0 1 .568.817l-2.906 2.405 3.72-2.147a.5.5 0 0 1 .548.834l-1.293.958.75-.433a.5.5 0 0 1 .552.831l-1.017.774.468-.271a.5.5 0 0 1 .589.8l-2.3 2.126 1.72-.993a.5.5 0 0 1 .583.806l-.762.68.184-.106a.5.5 0 0 1 .61.78l-.661.685.056-.033a.5.5 0 0 1 .716.614l-.623 1.614a.5.5 0 0 1 .6.223.5.5 0 0 1 -.183.682l-1.138.658a.5.5 0 0 1 -.253.062z" fill="#2dbab3"/><path d="m48.029 59.376a.5.5 0 0 1 -.3-.9l2.434-1.836-1.887 1.088a.5.5 0 0 1 -.552-.83l2.714-2.068-2.165 1.25a.5.5 0 0 1 -.542-.839l.8-.572-.257.148a.5.5 0 0 1 -.574-.817l4.277-3.52-3.713 2.144a.5.5 0 0 1 -.548-.834l1.946-1.443-1.4.808a.5.5 0 0 1 -.549-.834l2.061-1.534-1.515.875a.5.5 0 0 1 -.556-.828l5.9-4.56a.5.5 0 0 1 .186-.678l2.767-1.596a.5.5 0 0 1 .555.828l-2.911 2.252 2.525-1.457a.5.5 0 0 1 .549.834l-2.074 1.537 1.518-.876a.5.5 0 0 1 .548.834l-1.945 1.448 1.4-.807a.5.5 0 0 1 .567.818l-4.276 3.519 3.709-2.141a.5.5 0 0 1 .542.839l-.792.568.25-.143a.5.5 0 0 1 .552.83l-2.714 2.069 2.162-1.252a.5.5 0 0 1 .55.832l-2.434 1.836 1.692-.976a.5.5 0 1 1 .5.865l-8.75 5.052a.5.5 0 0 1 -.25.067z" fill="#1f9b92"/><path d="m47.661 59.382a.492.492 0 0 1 -.284-.089.5.5 0 0 1 -.209-.492l.168-1.03-1.246.719a.5.5 0 0 1 -.653-.728l.743-1.011-1.583.913a.5.5 0 0 1 -.6-.791l.773-.752-1.451.837a.5.5 0 0 1 -.572-.814l.631-.534-1.221.7a.5.5 0 0 1 -.566-.819l1.326-1.087-2.058 1.196a.5.5 0 0 1 -.568-.819l2.742-2.262-3.753 2.163a.5.5 0 0 1 -.546-.836l1.566-1.146-1.018.587a.5.5 0 0 1 -.548-.834l.564-.418-.016.009a.5.5 0 0 1 -.561-.824l1.213-.965-.652.376a.5.5 0 0 1 -.575-.813l1.187-1.018-.614.353a.5.5 0 0 1 -.615-.774l1.512-1.615-.9.517a.5.5 0 0 1 -.626-.762l.634-.722h-.008a.5.5 0 0 1 -.7-.66l.517-1.01a.518.518 0 0 1 -.356-.083.5.5 0 0 1 -.209-.492l.138-.858a.488.488 0 0 1 -.077-.1.5.5 0 0 1 .182-.683l.23-.133a.5.5 0 0 1 .743.513l-.062.384.345-.2a.5.5 0 0 1 .7.66l-.485.95 1.168-.675a.5.5 0 0 1 .626.763l-.635.723 1.188-.685a.5.5 0 0 1 .615.774l-1.505 1.615 2.387-1.376a.5.5 0 0 1 .575.812l-1.186 1.015 1.784-1.03a.5.5 0 0 1 .561.825l-1.213.964 1.777-1.025a.5.5 0 0 1 .548.834l-.561.416 1.318-.761a.5.5 0 0 1 .545.836l-1.567 1.151 1.062-.613a.5.5 0 0 1 .568.819l-2.741 2.262 2.178-1.257a.5.5 0 0 1 .567.819l-1.326 1.087.764-.442a.5.5 0 0 1 .573.815l-.631.533.063-.036a.5.5 0 0 1 .6.791l-.776.755.182-.105a.5.5 0 0 1 .653.729l-.743 1.01.095-.054a.494.494 0 0 1 .534.021.5.5 0 0 1 .209.493l-.223 1.366a.492.492 0 0 1 .17.175.5.5 0 0 1 -.183.683l-.346.2a.509.509 0 0 1 -.256.07z" fill="#2dbab3"/><path d="m38.516 42.143a.5.5 0 0 1 -.3-.9l3.056-2.312-3.872 2.235a.5.5 0 0 1 -.536-.843l1.136-.792-1.64.947a.5.5 0 0 1 -.538-.841l2.947-2.082-3.643 2.1a.5.5 0 0 1 -.541-.839l4.775-3.416-5.694 3.288a.5.5 0 0 1 -.545-.836l7.1-5.2-8.369 4.831a.5.5 0 0 1 -.532-.845l5.422-3.7-6.279 3.625a.5.5 0 1 1 -.5-.866l17.759-10.252a.5.5 0 0 1 .532.846l-5.425 3.7 4.895-2.825a.5.5 0 0 1 .545.836l-7.1 5.2 6.563-3.788a.5.5 0 0 1 .541.839l-4.776 3.418 4.237-2.445a.5.5 0 0 1 .538.84l-2.944 2.08 2.407-1.389a.5.5 0 0 1 .537.843l-1.144.8.608-.35a.5.5 0 0 1 .552.831l-3.053 2.31.312-.179a.5.5 0 1 1 .5.865l-7.276 4.2a.5.5 0 0 1 -.255.066z" fill="#f84861"/><path d="m20.657 42.236a.5.5 0 0 1 -.274-.918l12.422-8.148-13.613 7.858a.5.5 0 0 1 -.513-.857l1.745-1.085-2.224 1.283a.5.5 0 0 1 -.523-.851l11.81-7.7-12.925 7.461a.5.5 0 0 1 -.526-.849l13.064-8.617-14.331 8.274a.5.5 0 0 1 -.515-.858l2.2-1.369-2.694 1.556a.5.5 0 0 1 -.519-.854l8.285-5.28-9.1 5.251a.5.5 0 0 1 -.526-.85l12.9-8.5-12.52 7.237a.5.5 0 0 1 -.518-.855l5.963-3.8-5.446 3.143a.5.5 0 0 1 -.526-.849l8.217-5.441-7.691 4.44a.5.5 0 0 1 -.531-.847l7.217-4.9-6.686 3.859a.5.5 0 0 1 -.53-.847l4.3-2.916-3.774 2.178a.5.5 0 0 1 -.551-.831l5.65-4.279-5.1 2.943a.5.5 0 0 1 -.546-.836l5.624-4.124-.012-.02a.5.5 0 0 1 .182-.683l3.738-2.155a.5.5 0 0 1 .546.836l-2.1 1.539 4.116-2.375a.5.5 0 0 1 .552.831l-5.651 4.28 8.855-5.111a.5.5 0 0 1 .53.846l-4.3 2.916 6.52-3.763a.5.5 0 0 1 .531.846l-7.21 4.9 9.951-5.751a.5.5 0 0 1 .526.849l-8.226 5.444 10.9-6.294a.5.5 0 0 1 .518.854l-5.955 3.8 7.69-4.439a.5.5 0 0 1 .525.85l-12.905 8.5 14.148-8.168a.5.5 0 0 1 .519.855l-8.3 5.285 9.1-5.255a.5.5 0 0 1 .515.858l-2.179 1.355 2.671-1.542a.5.5 0 0 1 .526.85l-13.052 8.611 14.328-8.272a.5.5 0 0 1 .524.852l-11.817 7.705 12.931-7.465a.5.5 0 0 1 .514.858l-1.73 1.075 2.129-1.229a.5.5 0 0 1 .524.851l-21.658 14.208a.5.5 0 0 1 -.233.561l-5.226 3.018a.494.494 0 0 1 -.25.067z" fill="#f84861"/><path d="m20.369 42.045a.5.5 0 0 1 -.482-.632l.279-1.019-1.032.595a.5.5 0 0 1 -.641-.745l.429-.535-.922.529a.5.5 0 0 1 -.631-.756l1.352-1.593-2.274 1.311a.5.5 0 0 1 -.575-.812l.67-.575-1.167.674a.5.5 0 0 1 -.561-.824l.507-.4-.959.553a.5.5 0 0 1 -.585-.8l3.366-3.043-4.585 2.646a.5.5 0 0 1 -.546-.836l1.315-.966-1.047.605a.5.5 0 0 1 -.579-.81l3.178-2.776-2.6 1.5a.5.5 0 0 1 -.557-.826l.468-.367a.5.5 0 0 1 -.482-.857l.545-.453a.5.5 0 0 1 -.6-.782l1.417-1.571-.8.459a.5.5 0 0 1 -.69-.669l.916-1.707-.226.129a.5.5 0 0 1 -.743-.514l.218-1.308a.5.5 0 0 1 .045-.837l.309-.178a.5.5 0 0 1 .744.514l-.143.931.83-.48a.5.5 0 0 1 .691.669l-.921 1.703 2.014-1.162a.5.5 0 0 1 .622.768l-1.416 1.57 2.291-1.322a.5.5 0 0 1 .57.816l-.542.451.994-.573a.5.5 0 0 1 .558.826l-.411.322.834-.482a.5.5 0 0 1 .58.81l-3.179 2.778 4.5-2.6a.5.5 0 0 1 .546.835l-1.311.971.77-.444a.5.5 0 0 1 .585.8l-3.364 3.044 2.779-1.6a.5.5 0 0 1 .56.824l-.522.414a.5.5 0 0 1 .537.833l-.671.575.1-.055a.5.5 0 0 1 .631.756l-1.355 1.585.721-.415a.5.5 0 0 1 .64.745l-.478.6a.5.5 0 0 1 .57.624l-.339 1.237a.493.493 0 0 1 .289.228.5.5 0 0 1 -.182.683l-.6.347a.509.509 0 0 1 -.252.064z" fill="#d83a59"/><path d="m21.028 41.326a.5.5 0 0 1 -.3-.9l2.672-2.026-2.12 1.223a.5.5 0 0 1 -.552-.83l2.723-2.075-2.175 1.255a.5.5 0 0 1 -.566-.82l4.206-3.453-3.648 2.106a.5.5 0 0 1 -.55-.833l2.249-1.684-1.7.981a.5.5 0 0 1 -.561-.825l3.569-2.821-3.012 1.739a.5.5 0 0 1 -.538-.841l.355-.252a.508.508 0 0 1 -.489-.223.5.5 0 0 1 .128-.678l5.954-4.269a.5.5 0 0 1 .233-.56l2.815-1.625a.5.5 0 0 1 .542.839l-.763.546.224-.129a.5.5 0 0 1 .538.841l-.358.253a.5.5 0 0 1 .381.887l-3.57 2.823 3.013-1.74a.5.5 0 0 1 .549.833l-2.251 1.686 1.7-.983a.5.5 0 0 1 .566.82l-4.212 3.45 3.648-2.1a.5.5 0 0 1 .553.83l-2.719 2.071 2.168-1.251a.5.5 0 0 1 .553.831l-2.67 2.03 2.119-1.223a.5.5 0 1 1 .5.865l-8.955 5.17a.491.491 0 0 1 -.249.062z" fill="#c43155"/><path d="m39.029 42.143a.5.5 0 0 1 -.309-.893l3.514-2.772-2.958 1.708a.5.5 0 0 1 -.553-.831l2.832-2.167-2.283 1.318a.5.5 0 0 1 -.568-.818l4.352-3.6-3.787 2.186a.5.5 0 0 1 -.568-.819l4.219-3.455-3.655 2.11a.5.5 0 0 1 -.545-.836l1.473-1.074-.93.537a.5.5 0 0 1 -.539-.84l.386-.274a.5.5 0 0 1 -.4-.889l5.885-4.451a.5.5 0 0 1 .2-.66l2.893-1.67a.5.5 0 0 1 .551.831l-2.499 1.883 1.982-1.144a.5.5 0 0 1 .539.841l-.386.274a.5.5 0 0 1 .393.893l-1.474 1.078.931-.537a.5.5 0 0 1 .567.82l-4.222 3.46 3.658-2.112a.5.5 0 0 1 .568.819l-4.35 3.593 3.783-2.183a.5.5 0 0 1 .554.83l-2.831 2.167 2.279-1.317a.5.5 0 0 1 .56.826l-5.526 4.358a.473.473 0 0 1 .081.105.5.5 0 0 1 -.183.683l-3.384 1.954a.493.493 0 0 1 -.25.068z" fill="#c43155"/><path d="m38.158 41.9a.5.5 0 0 1 -.476-.652l.416-1.3-1.35.779a.5.5 0 0 1 -.622-.766l.372-.414-.816.47a.5.5 0 0 1 -.61-.78l1.073-1.11-1.772 1.021a.5.5 0 0 1 -.582-.806l1.149-1.019-1.773 1.024a.5.5 0 0 1 -.573-.814l1.82-1.544-2.565 1.481a.5.5 0 0 1 -.554-.83l1.18-.9-1.729 1a.5.5 0 0 1 -.579-.808l3.9-3.412-3.787 2.187a.5.5 0 0 1 -.591-.8l3.124-2.907-2.533 1.46a.5.5 0 0 1 -.57-.816l.8-.665-.227.13a.5.5 0 0 1 -.575-.812l.378-.323a.5.5 0 0 1 -.449-.193.5.5 0 0 1 .043-.658l.55-.55a.5.5 0 0 1 -.592-.765l.529-.686a.5.5 0 0 1 -.632-.528l.177-1.865a.5.5 0 0 1 .071-.816l.23-.133a.5.5 0 0 1 .748.48l-.139 1.463 1.216-.7a.5.5 0 0 1 .645.739l-.5.652 1.03-.595a.5.5 0 0 1 .6.787l-.541.541 1.023-.59a.5.5 0 0 1 .575.812l-.2.172.58-.335a.5.5 0 0 1 .57.817l-.794.662 1.3-.749a.5.5 0 0 1 .591.8l-3.125 2.912 4.394-2.537a.5.5 0 0 1 .58.809l-3.9 3.41 4.055-2.341a.5.5 0 0 1 .553.83l-1.18.9.627-.362a.5.5 0 0 1 .573.814l-1.819 1.543 1.246-.719a.5.5 0 0 1 .582.807l-1.152 1.02.57-.328a.5.5 0 0 1 .609.78l-1.07 1.11.461-.266a.5.5 0 0 1 .622.767l-.447.5a.49.49 0 0 1 .388.1.5.5 0 0 1 .163.541l-.452 1.411a.5.5 0 0 1 .226.931l-.812.469a.5.5 0 0 1 -.251.063z" fill="#d83a59"/><path d="m28.892 23.727a.5.5 0 0 1 -.308-.895l4.4-3.429-5.484 3.165a.5.5 0 0 1 -.551-.832l5.19-3.909-6.3 3.637a.5.5 0 0 1 -.542-.838l5.326-3.838-6.323 3.652a.5.5 0 0 1 -.531-.845l3.858-2.631-4.578 2.643a.5.5 0 0 1 -.542-.838l8.038-5.78-9.265 5.349a.5.5 0 0 1 -.524-.851l2.975-1.956-2.451 1.415a.5.5 0 0 1 -.539-.841l6.905-4.883-6.367 3.678a.5.5 0 0 1 -.546-.835l6.6-4.834-6.052 3.494a.5.5 0 0 1 -.546-.836l5.1-3.742-4.553 2.628a.5.5 0 0 1 -.556-.828l4.965-3.858-4.412 2.541a.5.5 0 0 1 -.557-.827l5.191-4.044a.5.5 0 0 1 .053-.831l3.949-2.281a.5.5 0 0 1 .558.828l-3.44 2.678 4.467-2.579a.5.5 0 0 1 .557.827l-4.963 3.859 6.13-3.539a.5.5 0 0 1 .546.836l-5.097 3.743 6.118-3.532a.5.5 0 0 1 .546.836l-6.6 4.834 7.8-4.5a.5.5 0 0 1 .539.84l-6.9 4.884 8.014-4.633a.5.5 0 0 1 .525.851l-2.971 1.952 2.977-1.718a.5.5 0 0 1 .542.839l-8.039 5.779 7.5-4.329a.5.5 0 0 1 .531.846l-3.855 2.628 3.327-1.92a.5.5 0 0 1 .542.838l-5.33 3.84 4.791-2.766a.5.5 0 0 1 .55.832l-5.191 3.911 4.643-2.68a.5.5 0 0 1 .558.827l-4.4 3.427 3.842-2.218a.5.5 0 1 1 .5.865l-10.09 5.826a.5.5 0 0 1 -.25.068z" fill="#459aff"/><path d="m29.336 24.022a.5.5 0 0 1 -.469-.672l.154-.42-.523.3a.5.5 0 0 1 -.624-.1.5.5 0 0 1 -.026-.632l.262-.351-.665.384a.5.5 0 0 1 -.645-.731l1.252-1.637-2.234 1.29a.5.5 0 0 1 -.574-.813l.233-.2-.631.364a.5.5 0 0 1 -.573-.814l1.152-.978-1.755 1.009a.5.5 0 0 1 -.56-.825l1.081-.851-1.629.94a.5.5 0 0 1 -.562-.822l2.552-2.048-3.272 1.885a.5.5 0 0 1 -.577-.811l3.167-2.745-2.59 1.495a.5.5 0 0 1 -.574-.813l1.654-1.406-1.081.623a.5.5 0 0 1 -.577-.81l.8-.7-.227.131a.5.5 0 0 1 -.645-.739l1.478-1.911-.833.481a.5.5 0 0 1 -.663-.714l.56-.823a.5.5 0 0 1 -.64-.559l.219-1.334a.5.5 0 0 1 .041-.839l.311-.181a.5.5 0 0 1 .745.514l-.158.96.857-.494a.5.5 0 0 1 .663.714l-.543.8 1.14-.658a.5.5 0 0 1 .645.739l-1.477 1.909 2.557-1.476a.5.5 0 0 1 .577.811l-.8.7 1.324-.764a.5.5 0 0 1 .574.814l-1.651 1.4 2.344-1.348a.5.5 0 0 1 .577.81l-3.164 2.744 4.407-2.544a.5.5 0 0 1 .562.823l-2.551 2.047 1.989-1.146a.5.5 0 0 1 .559.825l-1.086.856.527-.3a.5.5 0 0 1 .573.813l-1.152.979.579-.334a.5.5 0 0 1 .574.813l-.39.332a.491.491 0 0 1 .442.166.5.5 0 0 1 .021.633l-1.252 1.636.605-.349a.5.5 0 0 1 .65.733l-.381.508a.5.5 0 0 1 .449.673l-.265.721a.492.492 0 0 1 .229.207.5.5 0 0 1 -.182.683l-.634.366a.5.5 0 0 1 -.25.061z" fill="#186fee"/><path d="m30.027 23.173a.5.5 0 0 1 -.3-.9l3.007-2.317-2.455 1.417a.5.5 0 0 1 -.56-.824l3.658-2.906-3.1 1.791a.5.5 0 0 1 -.549-.834l2.089-1.556-1.543.891a.5.5 0 0 1 -.551-.833l2.377-1.785-1.83 1.056a.5.5 0 0 1 -.547-.835l1.777-1.316-1.24.716a.5.5 0 0 1 -.568-.82l5.991-4.918a.475.475 0 0 1 -.077-.1.5.5 0 0 1 .183-.683l2.895-1.671a.5.5 0 0 1 .567.819l-4.213 3.458 3.685-2.123a.5.5 0 0 1 .547.835l-1.782 1.314 1.237-.713a.5.5 0 0 1 .55.832l-2.375 1.789 1.827-1.057a.5.5 0 0 1 .548.834l-2.086 1.553 1.54-.888a.5.5 0 0 1 .56.825l-3.657 2.905 3.1-1.789a.5.5 0 0 1 .556.829l-3.008 2.316 2.452-1.416a.5.5 0 0 1 .5.866l-8.955 5.17a.493.493 0 0 1 -.25.068z" fill="#1169d3"/><path d="m57.724 47.454c0-1.537.513-4.125-.26-5.56-1.388-2.575-6.323-4.541-8.74-6.135v-5.686c0-1.581.541-4.233 0-5.732a2.5 2.5 0 0 0 -.158-.309c.061-.079.021-.13-.082-.158-.81-1.306-2.777-2.115-3.946-2.895l-4.814-3.209v-6.335c0-1.351.323-3.158-.178-4.506.138-.179.033-.309-.17-.376a2.6 2.6 0 0 0 -.243-.4c-1.173-1.462-3.844-2.562-5.4-3.6-1.1-.733-2.4-2.062-3.825-1.9-1.605.177-3.368 1.954-4.622 2.79-1.294.863-3.568 1.785-4.511 3.052-.04.053-.063.117-.1.173-.216.131-.338.3-.239.459-.539 1.394-.16 3.358-.16 4.7v5.973l-4.909 3.273c-1.114.742-2.835 1.479-3.688 2.676-.228.143-.369.346-.3.54-.022.051-.056.1-.074.149-.5 1.394-.039 3.722-.039 5.163v6.218c-2.566 1.625-7.348 3.566-8.724 6.217-.782 1.507-.277 4.064-.277 5.664 0 1.792-.5 4.386.149 6.112s2.676 2.372 4.186 3.211c1.426.792 3.341 2.387 5.069 2.5 2.9.182 6.767-3.074 9.312-4.589 2.395 1.484 5.6 4.087 8.326 4.328.107.2.664.161 1.052-.032 2.79-.373 5.91-2.88 8.378-4.423 2.349 1.388 5.7 4.169 8.586 4.444.193.347.961.246 1.27-.061 1.785-.375 3.5-1.752 5.062-2.62 1.742-.967 3.511-1.517 4.066-3.558.006-.023-.007-.037-.009-.056s.012-.023.012-.035zm-2.035-4.954c-2.139 1.63-5.879 5.158-8.028 4.682-1.234-.273-2.926-1.989-3.962-2.694l-3.868-2.63c1.47-2.149 5.577-3.122 7.472-4.923a2.279 2.279 0 0 1 .531-.322 1.419 1.419 0 0 1 .392.261c.9 1.1 3.051 2.034 4.215 2.81 1.508 1.004 2.613 1.655 3.248 2.816zm-25.628 4.778c-1.321-.077-3.332-2.1-4.365-2.8l-3.771-2.564a1.454 1.454 0 0 1 .119-.211c1.613-2.238 5.493-3.341 7.734-5.114a12.108 12.108 0 0 0 1.237.793l4.624 3.083a7.468 7.468 0 0 1 2.255 1.869l-3.182 2.166c-1.164.787-3.266 2.858-4.651 2.778zm-18.033-10.678c.314-.145.378.038 0 0zm.54-11.408 4.061 2.759c1.01.686 2.3 1.9 3.635 2.22v10.4c-.613-.379-1.275-.708-1.732-1.013l-5.8-3.864v-5.115c.004-1.417-.438-3.779-.164-5.379zm8.375-6.514c.336-.2.249 0 0 0zm.622-10.742 4.046 2.748c1.044.709 2.3 1.9 3.653 2.187v9.641c-.817-.523-1.753-.978-2.335-1.366l-5.2-3.47v-4.856a33.882 33.882 0 0 1 -.164-4.881zm16.765-.136c.417 1.493-.054 3.931-.054 5.408v4.843l-5.216 3.476c-.55.368-1.5.82-2.324 1.332v-10.081a13.932 13.932 0 0 0 3.264-2.035zm4.777 19.97 4.2-2.854c.456 1.484-.032 4.067-.032 5.546v5.552l-5.69 3.793c-.458.3-1.187.661-1.857 1.067v-11.01a14.347 14.347 0 0 0 3.379-2.094zm-4.836 12.859c-.721-.438-1.515-.829-1.978-1.137l-5.557-3.7v-6.198c0-.97.3-2.769.266-4.191l3.741 2.544c1.066.725 2.207 1.811 3.528 2.041zm-9-10.795v.229c0 .114-.012.237-.012.343v5.64c0 .016.009.026.01.041l-5.441 3.628c-.464.309-1.325.724-2.1 1.193v-10.793a13.945 13.945 0 0 0 3.326-2.083l3.956-2.69c-.083 1.458.266 3.499.266 4.492zm17.716-5.585-3.344 2.272c-1.115.757-3.079 2.669-4.45 2.728a1.13 1.13 0 0 0 -.192.006c-1.318-.116-3.294-2.093-4.312-2.785l-3.88-2.639c.522-.529 3.093-2 3.957-2.579l4.019-2.68 4.1 2.733c1.143.759 3.239 1.676 4.107 2.944zm-21.381-20.02c1.037-.692 3.279-2.8 4.423-2.682 1.264.127 3.471 2.314 4.516 3.01 1.014.677 2.618 1.375 3.394 2.43l-3.18 2.16c-1.22.828-3.216 2.822-4.7 2.782-1.4-.038-3.319-1.973-4.416-2.719l-3.62-2.459c.793-1.077 2.553-1.835 3.583-2.522zm-8.4 16.982a33.653 33.653 0 0 0 3.152-2.1 4.778 4.778 0 0 1 .484-.368 47.552 47.552 0 0 0 4.683 3.083c.93.62 1.85 1.334 2.825 1.883a5.109 5.109 0 0 1 .552.362l-3.12 2.121c-1.221.83-3.254 2.866-4.751 2.849-1.391-.016-3.314-1.951-4.41-2.7l-3.517-2.389c.946-1.129 3.107-2.075 4.107-2.741zm-11.418 19.596c1.279-.97 2.705-1.8 4.041-2.694a10.128 10.128 0 0 0 1.753-1.168 1.6 1.6 0 0 1 .35-.287c2.356 1.012 4.734 3.249 6.814 4.636.507.338 1.075.741 1.35.942l-3.375 2.3c-.914.622-2.942 2.627-4.116 2.854a.882.882 0 0 0 -.8-.083c-1.262-.427-2.89-2-3.69-2.548l-3.7-2.529a5.716 5.716 0 0 1 1.373-1.423zm.185 14.4c-2.918-1.967-2.238-4.355-2.238-7.607a16.5 16.5 0 0 1 .186-4.3l4.23 2.9a7.915 7.915 0 0 0 3.12 1.707v10.037c-1.86-.344-3.707-1.668-5.298-2.739zm6.756 2.784v-10.214a13.854 13.854 0 0 0 3.4-2.086l3.941-2.681a29.958 29.958 0 0 0 .2 4.642v6.43a54.14 54.14 0 0 1 -6.621 3.671 3.9 3.9 0 0 1 -.92.236zm9.006-4.891v-5.01c0-1.09.336-3.132.269-4.694l3.737 2.541c1.078.733 2.206 1.811 3.535 2.03v10.261c-1.978-.55-4.155-2.278-5.732-3.154a3.233 3.233 0 0 1 -1.809-1.974zm8.989 5.282v-10.543a14.348 14.348 0 0 0 3.414-2.113l3.907-2.657a40.887 40.887 0 0 0 .231 4.831v6.461c-2.181 1.245-4.746 3.329-7.12 3.95a2.708 2.708 0 0 1 -.432.074zm9-4.972v-4.59c0-.2.005-.406.008-.609.031-1.151.359-3.233.291-4.81q1.858 1.261 3.715 2.525c1.073.73 2.2 1.815 3.534 2.015v10.4a23.425 23.425 0 0 1 -6.435-3.685c-1.081-.876-.73-.298-1.113-1.243zm9 5.084v-10.694a12.746 12.746 0 0 0 2.989-1.831l4.234-2.9a5.987 5.987 0 0 1 .325 1.6c.21 2.816 0 5.721 0 8.548-.513 1.877-5.56 4.969-7.544 5.283z" fill="#262626"/></svg>