<svg id="Layer_1" enable-background="new 0 0 64 64" height="512" viewBox="0 0 64 64" width="512" xmlns="http://www.w3.org/2000/svg"><g><g><g><path d="m32 52.8c-16.9 0-30.1-18.9-30.6-19.7-.5-.7-.5-1.6 0-2.3.5-.7 13.7-19.6 30.6-19.6s30.1 18.9 30.6 19.7c.5.7.5 1.6 0 2.3s-13.7 19.6-30.6 19.6zm-26.5-20.8c3 3.9 13.9 16.8 26.5 16.8s23.5-12.8 26.5-16.8c-3-3.9-13.9-16.8-26.5-16.8s-23.5 12.8-26.5 16.8z"/></g></g></g><g><g><g><path d="m32 45.8c-7.6 0-13.8-6.2-13.8-13.8s6.2-13.8 13.8-13.8 13.8 6.2 13.8 13.8-6.2 13.8-13.8 13.8zm0-23.6c-5.4 0-9.8 4.4-9.8 9.8s4.4 9.8 9.8 9.8 9.8-4.4 9.8-9.8-4.4-9.8-9.8-9.8z"/></g></g></g></svg>