<svg id="Layer_1" enable-background="new 0 0 511.773 511.773" height="512" viewBox="0 0 511.773 511.773" width="512" xmlns="http://www.w3.org/2000/svg"><g><g><path d="m468.293 48.932c-29.86-1.32-80.4-3.02-142.3-3.02-101 0-171.79 4.53-171.79 4.53s-5.351 40.707-6.343 100.947c13.988-3.393 28.634-5.627 43.753-6.557 5.28-.32 10.61-.49 16-.49 108.041 0 196.098 66.461 200.191 149.654 24.707-.596 45.281-1.367 60.489-2.034 2.01-19 5.98-63.81 5.98-121.52 0-57.7-3.97-102.51-5.98-121.51z" fill="#5eefd3"/><path d="m497.773 50.442s-10.61-.68-29.48-1.51c2.01 19 5.98 63.81 5.98 121.51 0 57.71-3.97 102.52-5.98 121.52 18.87-.84 29.48-1.52 29.48-1.52s6.5-49.44 6.5-120c0-70.55-6.5-120-6.5-120z" fill="#1cc6ad"/><path d="m375.953 300.052c0-81.81-81.17-148.88-184.34-155.22-15.119.929-29.765 3.163-43.753 6.557-81.458 19.759-140.587 78.843-140.587 148.663 0 40.25 19.66 76.94 51.91 104.58-7.91 19.44-20.47 42.66-39.76 61.24 0 0 48.56 1.24 101.59-25.37 21.67 8.09 45.5 13.23 70.64 14.77 103.15-6.36 184.3-73.43 184.3-155.22z" fill="#ff3e7a"/><path d="m207.613 144.342c-5.39 0-10.72.17-16 .49 103.17 6.34 184.34 73.41 184.34 155.22 0 81.79-81.15 148.86-184.3 155.22 5.26.33 10.59.49 15.96.49 110.65 0 200.34-69.72 200.34-155.71 0-2.028-.05-4.047-.149-6.056-4.093-83.193-92.15-149.654-200.191-149.654z" fill="#b2006e"/></g><g><path d="m353.878 184.027c-73.968-59.827-204.289-62.511-282.376-7.385-3.425 2.33-4.312 6.995-1.982 10.42 2.329 3.424 6.994 4.312 10.42 1.982 111.281-79.503 318.476-25.093 320.515 111.009 0 37.395-18.238 73.131-51.355 100.623-3.188 2.646-3.626 7.374-.98 10.561 2.657 3.2 7.393 3.615 10.561.98 77.313-62.289 74.788-168.402-4.803-228.19z"/><path d="m322.777 418.88c-56.602 33.215-136.804 38.424-199.143 14.592-1.954-.729-4.123-.612-5.986.324-7.346 3.687-15.045 7.034-22.884 9.949-3.883 1.444-5.859 5.762-4.415 9.644 1.443 3.882 5.76 5.857 9.644 4.416 7.315-2.721 14.52-5.796 21.459-9.16 65.853 24.123 149.309 18.126 208.792-16.754 3.593-2.062 4.833-6.646 2.771-10.238-2.061-3.594-6.646-4.832-10.238-2.773z"/><path d="m62.338 453.255c-9.604 2.101-18.117 3.342-24.966 4.075 11.324-14.002 20.962-30.705 28.761-49.871 1.216-2.99.384-6.422-2.067-8.522-60.628-50.48-66.227-132.867-10.443-188.027 2.902-2.955 2.86-7.704-.095-10.606s-7.703-2.861-10.606.095c-60.284 59.468-56.343 150.126 7.263 206.291-9.496 21.846-21.582 39.919-35.97 53.776-2.178 2.098-2.883 5.298-1.788 8.117s3.776 4.705 6.799 4.782c6.587.006 21.703-.197 46.317-5.457 4.046-.885 6.609-4.882 5.725-8.929-.886-4.046-4.876-6.608-8.93-5.724z"/><path d="m148.6 124.352c4.101.201 7.657-3.002 7.839-7.146 1.319-28.526 3.395-49.759 4.482-59.638 19.413-1.074 82.409-4.161 165.068-4.161 82.666 0 145.662 3.087 165.07 4.161.531 4.811 1.296 12.308 2.09 21.995.337 4.129 3.976 7.193 8.087 6.863 4.128-.338 7.201-3.959 6.862-8.087-1.479-18.065-2.831-28.437-2.888-28.87-.467-3.552-3.381-6.278-6.957-6.508-.71-.045-72.184-4.554-172.265-4.554-100.08 0-171.554 4.508-172.264 4.554-3.576.229-6.489 2.956-6.957 6.507-.139 1.062-3.437 26.453-5.314 67.044-.19 4.139 3.009 7.649 7.147 7.84z"/><path d="m510.364 113.114c-.204-4.137-3.709-7.331-7.86-7.122-4.137.204-7.325 3.723-7.122 7.86 3.7 46.364-.878 149.607-4.325 169.474-8.73.485-26.263 1.379-50.29 2.208-4.14.143-7.38 3.614-7.236 7.754.135 4.144 3.642 7.388 7.754 7.237 35.331-1.219 56.759-2.581 56.972-2.594 3.575-.229 6.489-2.956 6.956-6.508.065-.499 6.562-50.746 6.562-120.977-.002-19.065-.477-38.354-1.411-57.332z"/><path d="m224.148 314.215c43.879-43.272 32.718-72.653 25.882-83.277-11.976-18.613-38.666-26.576-60.77-18.131-23.383 8.936-34.387 32.777-29.438 63.773.652 4.09 4.491 6.875 8.589 6.224 4.091-.653 6.877-4.499 6.224-8.589-3.803-23.815 3.479-41.09 19.98-47.396 15.458-5.907 34.657-.418 42.8 12.236 10.259 15.944 1.584 39.446-23.801 64.479-23.25 22.929-17.494 47.358-11.202 57.072 2.267 3.505 6.945 4.45 10.372 2.217 3.477-2.252 4.47-6.896 2.218-10.373-.115-.178-11.312-18.061 9.146-38.235z"/><path d="m216.114 389.266c0 4.142-3.358 7.5-7.5 7.5-9.928-.343-9.926-14.658 0-15 4.142 0 7.5 3.357 7.5 7.5z"/></g></g></svg>