<svg id="Layer_1" enable-background="new 0 0 91 91" height="512" viewBox="0 0 91 91" width="512" xmlns="http://www.w3.org/2000/svg"><g><path d="m17.1 50.7c-.5 4.8.4 9.7 1.7 14.3 1.7 5.8 4.8 11.1 9.5 14.8 2.4 1.9 6.3 3.6 9.1 4.8 8.1 3.3 18 1 24.9-4.4s10.2-14.2 10.3-23c0-4.5-.9-12.6-1.9-17-2.8-13-4.9-22.3-9.1-34.9-4.6-.4-9.6 16-10.8 20.4-.1.5-.3 1-.7 1.4-.4.3-1 .3-1.5.3-4-.2-7.9-.3-11.9-.5.6 0-4.6-12.6-5.3-13.7s-3-5.2-4.5-4.8c-1.4.5-2.7 6.4-3.1 7.7-2.8 11.4-5.5 23-6.7 34.6z" fill="#b1d6e9"/><path d="m53.8 28.8c1.4-2.1 2.1-3.6 3.5-5.7.6-1 2-2.6 3.1-2.9.5 3.4.9 6.8 1.2 10.2.1.8 0 2-.9 2.1-.4.1-.7-.1-1-.3-1.9-1-3.8-2-5.7-2.9" fill="#91bfd1"/><path d="m28.4 23.1c-.4 1.6-.8 3.1-1.2 4.7-.3 1.3-.7 2.8 0 4 .7.2 1.4-.2 1.9-.6s1.1-.9 1.7-1.1c2.2-.6 2.1-.9.9-2.8-.4-.5-3.4-3.8-3.3-4.2z" fill="#91bfd1"/><path d="m42.5 27c2.9 0 5.7.7 8.6 1.4 2.7.7 5.4 1.4 7.7 2.8.8.5 1.7 2 1.3 2.9-.7 1.9-6.2-.8-8.7-1.4-13.8-3-21.7 2-23.7 1.9-3.6-4 12.4-7.6 14.8-7.6z" fill="#cee6ef"/><path d="m23.5 66.7c1.7 3.9 4.3 7.6 8 9.8 2.2 1.3 4.8 2.1 7.4 2.5 5.2.8 10.6.4 15.5-1.7 4.8-2.1 9-5.8 11.3-10.5 2.1-4.2 2.6-9 3.9-13.5.1-.3.3-.7.6-.8.5-.1.8.5.9.9 1.5 5.3 1.2 11.1-.2 16.4-.8 2.9-2 5.8-4 8-1.9 2.1-4.3 3.6-6.9 4.8-7.5 3.4-16.1 4.1-24 2.1-1.7-.4-3.4-1-4.9-2-1.2-.8-2.2-1.8-3.1-2.8-4.9-5.3-8.9-11.9-9-19.1 0-.7 0-1.5.4-2.1s2.4 4.1 4.1 8z" fill="#91bfd1"/><path d="m59.9 16.1c.8-.8 1.7-1.7 2.2-2.7.8-1.6.7-3.6.5-5.4-.1-1.2-.5-2.7-1.7-2.9-1.2-.1-1.9 1.1-2.4 2.1-2.5 5.4-4.9 10.8-7.1 16.3-.3.7-1.2 3 .2 3.1.9 0 2-2.7 2.4-3.3 1.6-2.7 3.7-5 5.9-7.2z" fill="#fff"/><path d="m33.2 25.2c.4-1.3.1-2.7-.2-4-.9-4-2.1-7.9-3.4-11.8-.3-.8-.8-1.7-1.6-1.6-.7 0-1.1.8-1.4 1.4-1.1 2.6-3.3 8-1.1 10 1.1 1 3.1 1.5 4.4 2.4.5.4 3.5 2.8 3.3 3.6z" fill="#fff"/><g fill="#4e7a9f"><path d="m74.2 52.4c-1.1-16.7-5.6-33.4-10.9-49.3-.7-2-3.3-2.3-4.4-.6-4.8 7.2-8.3 14.9-11.1 23.1-3.2-.6-6.5-.7-9.6-.2-2.5-7.1-5.5-14-8.1-21-.9-2.3-4.5-2.7-5.2 0-3.6 14.6-8.5 29.6-9.3 44.7-.7 11.8 2.4 24.7 11.9 32.6 9.4 7.9 22.9 7.6 33.3 1.7 4.7-2.7 8.8-6.6 11.1-11.6 2.7-6 2.7-12.8 2.3-19.4zm-11.4 23.5c-7.8 7.1-21.6 9.2-30.4 3-9.2-6.5-12.1-18.5-11.5-29.2.4-7.5 2.2-14.7 4-22 1.1-4.5 2.2-9.1 3.3-13.6 1.7 4.3 3.6 8.5 5.9 12.4-1.4.5-2.8 1.2-4.1 2.1-1.1.8-.5 2.7 1 2.3 7.5-2.3 14.6-3.2 21.9.2 2.3 1.1 4.3-2.4 2-3.4-1.1-.5-2.3-.9-3.5-1.3 2.1-6 5.2-11.7 8.7-17.1 3 10.7 6.2 21.3 8 32.2 1.7 11.2 4 26-5.3 34.4z"/><path d="m31.6 43.8c-.4 1.7-.7 3.4-.9 5.1s-.6 3.6 0 5.3c.6 1.9 3.3 1.9 3.9 0 .5-1.6.2-3.3.2-4.9 0-1.7-.1-3.4-.2-5.1-.1-1.6-2.5-2.1-3-.4z"/><path d="m53.4 43.6c-1.8 2.6-2.2 6.9-1.8 9.9.4 2.6 4.1 1.7 4.3-.6.1-1.6-.1-3.2-.2-4.8-.1-1.5 0-2.9-.3-4.3-.2-.9-1.5-.9-2-.2z"/><path d="m37.3 60.7c2.8 3.1 7.5 3.6 11 1.4 2.4-1.6 0-5.5-2.2-3.8-1.9 1.4-4.3 1.4-6-.3-1.9-1.7-4.4.8-2.8 2.7z"/><path d="m42.4 61.8c-1.2 1.1-1.2 2.9-1.5 4.4-.1.6-.8 5.1-2.2 3.2-.8-1.1-1.8-1.4-3.1-1.3-.5.1-.9.4-1.2.7-1 1.1-1 2.7 0 3.9 2.4 2.6 6.8 2.7 8.7-.7.8-1.4.7-3.1.7-4.7 0-1.7.4-4-.7-5.4-.1-.2-.4-.3-.7-.1z"/><path d="m50.2 68.5c-1.2.1-2 1-3.1 1.2-1 .1-2-.6-2.8-1.1-1.5-.9-3.5.6-2.9 2.3.8 2.6 3.5 3.9 6.2 3.5 1.9-.3 5-2.5 4-4.8-.3-.6-.7-1.1-1.4-1.1z"/></g></g></svg>