<svg id="Layer_1" enable-background="new 0 0 91 91" height="512" viewBox="0 0 91 91" width="512" xmlns="http://www.w3.org/2000/svg"><g><g><path d="m32 35.2 13.6-30.9c3.1 9 10.8 30.3 10.8 30.3l29.3-.3s-12 11.4-18 16.2c-1.2.9-2.4 2-3 3.4-.6 1.5-.4 3.3-.1 5 1.8 10.3 3.9 19 6.4 29.1-7.9-4.8-15.8-12.3-23.7-17-.9-.6-1.9-1.1-3-1.1-1 0-1.9.5-2.8 1-8.8 5.1-26.5 16.8-26.5 16.8s6.5-18.8 10-27.4c.5-1.1.9-2.3.7-3.5-.2-1.1-1-2.1-1.7-3-6-7.5-18.3-17.9-18.3-17.9s25.6-.4 26.3-.7z" fill="#fff"/></g><g><path d="m33.8 44.1 11.8-24.8c3.1 7.6 8.9 23.7 8.9 23.7l20.6-.9-9.9 11.8c-1.2.8.1 4.1-.5 5.3-.6 1.3-.4 2.8-.1 4.2 1.8 8.7 3.9 16 6.4 24.6-7.9-4-15.8-10.4-23.7-14.4-.9-.5-1.9-1-3-.9-1 0-1.9.4-2.8.8-8.8 4.3-26.5 14.2-26.5 14.2s6.5-15.9 10-23.1c.5-.9.9-2 .7-3s-1-1.8-1.7-2.5l-7.9-15c.2 0 17 .2 17.7 0z" fill="#fbe488"/></g><path d="m37.5 63.3c3.6-1.7 7.8-2.4 11.6-1.1 4 1.4 16.3 13.3 18.8 16.3 1.7 2.1 1.6 4.9 2.1 7.5-2.2-.3-3.6-2.2-5.5-3.4-6.7-4.1-19.2-11.5-19.2-11.5-2.8-.5-5.9 1.9-8.5 3.2-1.3.7-23.2 14.8-21.6 11.2 3.2-7.5 15.3-18.9 22.3-22.2z" fill="#eace75"/><path d="m72 50.1c5.4-4.6 10.7-9.5 15.9-14.3 1.7-1.6.3-4.5-1.9-4.5-9.2 0-18.3.1-27.5.2-3.5-9.4-6.9-18.8-10.3-28.3-.6-1.7-3.6-2.7-4.5-.6-4.2 9.7-8.4 19.3-12.2 29.1-8.5.2-17.1.4-25.6.6-2.5.1-4.3 3.4-2.2 5.3 3 2.5 5.9 5.1 8.7 7.8 2.5 2.3 4.9 4.7 7.2 7.2.9 1 2.2 2.1 2.8 3.3.9 1.5-.1 3-.7 4.5-3.4 8.6-6.4 17.3-9.4 26-.9 2.5 2.4 5 4.6 3.5 6.6-4.4 13.2-8.7 20-12.9 2-1.2 4-2.5 6-3.6 1.9-1.1 2.2-.8 4 .3 1.5.9 3 1.9 4.4 2.9 6.2 4.3 12.1 9.2 18.6 13.2 2 1.2 4.3-.8 3.8-2.9-1.6-6.6-3.3-13.3-4.7-20-.7-3.4-1.8-7-1.9-10.5 0-3 2.8-4.5 4.9-6.3zm-8.3 15.4c1.1 5.4 2.3 10.8 3.6 16.1-4.6-3.5-9-7.3-13.7-10.7-2.8-2-6-4.9-9.7-4.5-2.8.3-5.5 2.4-7.8 3.9-4.9 3-9.8 6.1-14.6 9.2.3-.8.5-1.5.8-2.3 2.1-5.9 4.9-11.8 6.6-17.9 1.9-6.7-6.2-12.7-10.5-16.8-1.5-1.4-3-2.8-4.6-4.2 5.9-.2 11.9-.4 17.8-.6 2.2-.1 3.1-2.1 2.8-3.7 3.9-7.7 7.5-15.6 11.1-23.5 2.8 8.2 5.7 16.3 8.5 24.4.4 1.1 1.3 2 2.6 2 7.5 0 15.1-.1 22.6-.2-4.2 3.9-8.5 7.8-12.9 11.5-2.2 1.9-4 3.7-4.3 6.8-.1 3.4 1 7.2 1.7 10.5z" fill="#4e7a9f"/></g></svg>