<svg id="Layer_1" enable-background="new 0 0 91 91" viewBox="0 0 91 91" xmlns="http://www.w3.org/2000/svg"><g><path d="m22.2 22.3c-1.6 11.3-.3 23.1-4.1 33.8-.8 2.3-1.9 4.5-2.5 6.8-2.2 8.5 2.6 18.2 10.6 21.8 4.9 2.2 10.5 2.2 15.9 2.1 5.5-.1 11.2-.2 16.1-2.6-.7-4.7-6.5-6.6-8.8-10.8-1-1.7-1.3-3.7-1.9-5.6-.4-1.1-1.1-2.4-2.3-2.4-.6 0-1.2.3-1.7.7-1.4 1-2.4 2.4-2.9 4.1-.2.6-.4 1.4-.9 1.7-.6.3-1.4 0-1.8-.6-.4-.5-.5-1.2-.6-1.9-.9-7.9.7-16.1 5.6-22.5 2.1-2.7 11.7-17.9 4.6-27.3-2.5-3.6-5.8-6.9-10.1-7.6-8.3-1.5-14 1.8-15.2 10.3z" fill="#fff"/><path d="m34 12.1c1.8-.5 3.7-.7 5.4 0 1.5.6 2.6 1.3 3.5 2.7 5.8 8.4 5.9 20.3.4 28.8-1.4 2.2-3.2 4.2-4.6 6.5-5 7.9-4.6 18.9.9 26.5-.1-4.4 1-5.6 1.8-8.4.3-.9 1.3-2 2.3-2 .9 0 1.4.9 1.8 1.6.7 1.5 1.5 3 2.2 4.6 1.1 2.3 2.3 4.7 4 6.7 3.2 3.7 7.9 5.8 12.7 6.6s9.7.5 14.6.2c.6 0 2.4-.1 2.8-.5.3-.4-.1-1-.4-1.3-2.4-3.5-3.6-5-5.3-7.4-2.4-3.4-3.2-7.5-3.8-11.6-.9-5.9-.3-11.9-.7-17.9-.6-8.3-.6-16.4-2.7-24.2-2.1-7.7-7.9-15.3-15.2-18.7-6.1-2.9-13.5-1.9-19.5 1.2-3.2 1.6-11.1 7.1-10.8 12.7 3.5-2.3 6.1-4.8 10.6-6.1z" fill="#b1d6e9"/><path d="m34.8 10.7c1.9-.6 3.9-1 5.9-1.2 5.2-.5 10.6 1.1 14.7 4.3 3.6 2.7 6.2 6.6 8.3 10.5 2.1 4 3.7 8.8 5.7 12.9.5-.2.7-.8.8-1.3.9-5.7 1.1-22.8-14.1-30.2-13.1-6.3-24.6 1.5-26.5 2.8-1.3.9-4.6 3.5-5.1 5-1 2.7 2.7.8 3.7.3 2.1-.9 4.3-2.4 6.6-3.1z" fill="#fff"/><path d="m41.2 60.5c2.3-.8 5-.6 7 .7 3.3 2 4.7 6 7.4 8.8 1.5 1.6 3.5 2.8 5.4 3.9 4.9 2.7 10 4.9 15.3 6.6 2.5.8 5.5 1.9 6.2 4.5-6.1 1.3-12.4.2-18.5-.9-2.2-.4-4.4-.8-6.4-1.8-3.6-1.7-6.2-4.9-8.6-8-.7-.8-1.3-1.7-1.8-2.7-.4-1-.6-2-1-3s-1.1-1.9-2.2-2.2c-1.8-.4-3.3 1.5-3.6 3.4-.3 1.8.1 3.8-.5 5.5-.2.5-.4 1-.9 1.2-.9.4-1.9-.5-2.5-1.4-3.1-5.4-1.7-12.2 4.7-14.6z" fill="#91bfd1"/><path d="m36.3 81.7c1 .1 2.1-.3 2.9-.9.7-.6.9-1.6 1.1-2.6.4-2.4.7-4.9 1.1-7.3.1-1 .3-2.1.9-2.9s1.8-1.4 2.7-.9c2.6 6.3 6.7 12 12 16.4-1.1 1.1-2.8 1.2-4.4 1.3-7.7.3-15.4 0-23.1-.7-2.8-.3-5.7-.7-8-2.2-3.2-2.1-4.6-6-5.9-9.6-.3-.8-.5-1.7 0-2.3 0 0 5.6 5.2 8.4 7.2 5.5 3.7 7.3 3.8 12.3 4.5z" fill="#eef0f2"/><path d="m23 38.9c2.3 6.2 6.4 5.3 7.5 8.8.2.5.3 1.1.1 1.6s-.6.9-.9 1.2c-2.5 2.3-6.4 4.6-8.5 7.3s-3.7 5.9-3.9 9.3c-.1 1.2-.4 2.9-1.6 2.8-1.1-7.2.9-14.4 3.3-21.3 1-2.8 2.1-5.6 2-8.5-.2-2.2 1.5-2.6 2-1.2z" fill="#eef0f2"/><g><g fill="#4e7a9f"><path d="m84 82.9c-3.7-2.8-7-6.9-8.7-11.2-2.4-6-1.9-12.8-2.2-19.1-.5-11.9 0-24.7-4.8-35.8-1.2-2.7-5.2-.4-4 2.3 2.5 5.8 3.1 12.3 3.5 18.6.4 7.1.6 14.3 1 21.5.3 5.7.6 11.1 3.2 16.3 1.4 2.9 3.4 5.4 5.6 7.6-3.6.3-7.1.4-10.7.6-4-.3-8.1-1.9-11.3-4.2-2.3-1.6-4.1-3.7-5.5-6.1-1.3-2.4-1.4-4.8-2.3-7.3-1.5-4-5.7-2.8-7.8 0-1.3 1.7-1.9 3.7-2.1 5.7-2.3-6.6-.9-13.9 3-20.1 4.6-7.3 9.3-14.3 9.3-23.3 0-6.9-2.7-15-9.9-17.4-2.7-1-5.6-1-8.3-.2 2.9-2.3 6.3-3.8 10.1-4.4 4.9-.7 11.7-.6 15.9 2.4 1.1.8 2.2-.9 1.3-1.7-7.1-7.8-21.3-6-29-.2-6.7 5-9.8 12.1-10.9 19.8-1.6 1-2.5 1.4-4.3 2.3-1 .5-2 .7-3 1.2-1.1.5-.8 2.3.3 2.6 1.3.3 2.6.1 3.9.1.7 0 1.6-.1 2.6-.2-.1 2 0 4 .1 6 .2 3 .3 5.9-.6 8.8-.9 2.8-2.2 5.4-3.2 8.2-1.9 5.4-2.7 11.4-1.6 17 .3 1.3.7 2.6 1.2 3.9 0 .9.1 1.9 0 2.8-.4 3.9-2.9 4.3-6.3 4.4-3 .1-2.9 4.4 0 4.6 7.9.6 15.8.8 23.8.8 5.7 0 11.4-.1 17.1-.6 11.4.2 22.9.1 34.2-1.5 2-.5 1.7-3.2.4-4.2zm-65.8-22.9c1-4.3 3.2-8.1 4.4-12.2 1.4-5.1.3-10.6.5-15.8.2-4.7.7-9.2 2.7-13.4 4.8-5.4 13.8-7.9 18.2-.6 4.6 7.5 2.5 17.4-1.6 24.6-3.5 6-8.1 11.3-9 18.5-.9 6.9 1 13.8 5.2 19.3.9 1.2 3.2.2 3-1.2-.2-2.1-.3-4.2-.1-6.3.1-1.1.3-2.2.8-3.2.3-.6.6-1.4 1.2-1.7.5-.1.9.1 1.1.8.7 1.6.5 3.6 1.2 5.1.8 1.9 1.9 3.7 3.2 5.3 1.2 1.5 2.6 2.8 4.2 4-1.7.3-3.5.4-5.2.6-1.3.1-2.7.2-4 .3-8.9.2-20.2.6-24.8-7.7-2.7-5.3-2.2-11.2-1-16.4zm.1 22.1c.6.6 3.8 2.6 4.4 3.2-.8 0-5.7-.2-6.5-.2 1.6-.8 1.8-2.1 2.1-3z"/><path d="m33.8 26.3c1.7.3 3.2-.7 3.5-2.3.2-1.6-1-3.2-2.7-3.1-.5 0-1.8.1-2.9.7-1.2.8-1.4 2.3-.4 3.3.2.4 1.4 1 2.5 1.4z"/></g></g></g><circle cx="62.4" cy="12.8" fill="#4e7a9f" r="2.3"/></svg>