<svg id="Layer_1" enable-background="new 0 0 91 91" height="512" viewBox="0 0 91 91" width="512" xmlns="http://www.w3.org/2000/svg"><g><g><path d="m12.1 45.6c.8-1.5 2.3-4.7 3.2-6.1 6.3-10 15.6-17.7 27-21s24.1-1.8 34.1 4.3c-3.3.1-6.6 1.3-9.2 3.4 6.9-1 14.1 1.3 19.2 6.1-3.8 1.3-7.5 2.9-10.9 4.9 4.7.3 9.2 2.5 12.3 5.9-1.5-.1-6.4.2-7.8.7 1.9.1 7.2 4 8.9 4.8-2.7 1.1-5.5.5-8.2 1.7-.5.2-1.1.5-1.4.9-.4.5-.5 1.2-.5 1.8-.1 4.9 2.9 6.4 7.3 8.6-2.5.9-15.3 3.4-15.3 3.4l-.9 9.2-9.5.2-.6-7.7-19.7-.2c-.2 2.8-.3 5-.5 7.8-3.5-.1-6.5 0-10 .2 0 0-.5-4.9-.4-7.3-7.7-.9-24.3.1-24.3.1 0-7.4.1-13.7.2-21.2 2 .1 6.8-.3 7-.5z" fill="#fff"/></g><g><path d="m12.1 50.4c1-2.4 3.5-6.5 4.4-7.8 6.3-9.1 14.4-16.2 25.8-19.1s24.1-1.7 34.1 4c-3.3.1-6.6 1.2-9.2 3.1 6.9-.9 11.3-.6 19.2 2.5-3.8 1.1-8.6 4.9-12 6.7 4.7.3 6.6 1.5 9.7 4.7-1.5-.1-4.6.6-6 1.1 1.9.1 5.7 3.6 6.6 4.2-2.7 1-4.4 1.8-4.4 1.8-.5.2-.8 1.5-1.1 1.9-.4.5-.5 1.1-.5 1.6-.1 4.5 2.9 5.8 7.3 7.8-2.4.8-15.2 3.1-15.2 3.1l-.9 8.4-9.5.2-.6-7-19.7-.2c-.2 2.6-.3 4.6-.5 7.2-3.5-.1-6.5 0-10 .2 0 0-.5-4.5-.4-6.7-7.8-1-24.4-.1-24.4-.1.1-6.8.2-10.4.3-17.2 2 .1 6.9-.2 7-.4z" fill="#b1d6e9"/></g><path d="m32.9 37.9c.8-1 1.3-2.2 1.7-3.4.2-.6.4-1.3.8-1.8.9-1.2 2.7-1.3 4.3-1.3.3-.7 0-1.5-.6-2s-1.4-.6-2.1-.8c-.4-.1-.9-.2-1.3-.3-.8-.2-1.7-.3-2.6-.2s-1.7.5-2.2 1.3c-.3.4-.3.9-.4 1.4-.5 2.8-1.6 6.2-1.4 9 1.4.3 2.9-.8 3.8-1.9z" fill="#fff"/><path d="m43.1 43.7c-1.1 1.1-2.5 1.8-3.9 2.3-.8.3-1.6.5-2.5.7s-1.9.3-2.7-.2c-1.2-.8-1-2.8.3-3.4.6-.3 1.4-.2 2.1-.3 2.2-.1 4.3-1.6 5.3-3.5.6-1.1.8-2.3.7-3.6-.1-1.2-1.3-3.2.2-3.5 2.1-.5 2.7 3.4 2.8 4.7.3 2.4-.4 5.1-2.3 6.8z" fill="#91bfd1"/><path d="m26.9 61.7c1.3 0 2.7.1 3.7 1 .4.4.7.8 1.1 1.2.9.8 2.3.8 3.2.2 1.2-.8 1.5-2.4 2.6-3.3 1-.7 2.3-.8 3.6-.7 7.6.1 23.7 1.7 24.4 1.7 3.2-.1 5.6-1.5 6.8-3.3 1.2-1.7 1.6-3.8 1.8-4.7s.6-1.9 1.3-2.4c.8-.5 2-.4 2.4.4.2.4.1.9.2 1.3.2.8 1 1.4 1.6 1.9 1.9 1.5 3.6 3.3 4.9 5.3.2.3.4.6.2.9-.1.3-.4.4-.6.5-3.1 1-6.5.7-9.6 1.5-1.4.4-2.9 1.1-3.5 2.5-.4 1.1-.1 2.4-.2 3.7-.3 2.7-2.8 4.7-5.5 5.3-1.3.3-2.6.4-3.8 0s-2.3-1.4-2.6-2.6c-.3-1.3.2-2.7-.4-3.9-.7-1.6-2.9-1.9-4.7-2-2.8-.2-5.8-.3-8.8-.4-.6 0-1.3 0-1.9.1-2.9.9-2.4 5.5-4.7 7.4-1.1.9-2.6 1.1-4 1.2-1.6.2-3.6.1-4.3-1.4-.5-1.2.2-2.5 0-3.8s-1.5-2.3-2.7-2.6c-1.3-.3-2.7-.2-4 0-5.5.6-11 .9-16.6.9-.4 0-.9 0-1.3-.3-.3-.2-.5-.6-.7-1-.4-1.2-.9-4.5.4-5.4 1.2-.6 16.7.6 21.7.8z" fill="#91bfd1"/><g fill="#4e7a9f"><path d="m89.5 46.5c-1.1-.6-2.3-1.4-3.4-2.2h1.4c1.6 0 2.3-1.9 1.2-3-2.3-2.4-5-4.2-8-5.3 1.9-.8 3.9-1.5 5.9-2.2 1.5-.5 2.3-2.5 1-3.7-3-2.8-6.6-4.8-10.4-5.9 1.4-.9 1.6-3 0-4-12.2-7.5-27.6-7.8-40.7-2.3-10.7 4.5-20.9 13.6-24.9 24.7h-.1c-2.3 0-4.5.3-6.7.3-1.4 0-2.6 1.2-2.6 2.6-.1 7.1-.2 14.2-.3 21.3 0 1.4 1.2 2.7 2.6 2.6 7.2-.4 14.5-.9 21.8-.4.1 1.7.2 3.3.4 5 .1 1.3 1.1 2.7 2.6 2.6 3.3-.2 6.7-.3 10-.2 1.4 0 2.5-1.2 2.6-2.6.1-1.8.2-3.5.3-5.3h15.2c.1 1.8.1 3.6.2 5.4.1 1.3 1.1 2.4 2.4 2.4 3.2 0 6.4-.2 9.5-.3 1.4-.1 2.3-1.1 2.4-2.4.2-2.4.4-4.9.6-7.3 4.6-.9 9.3-1.7 13.6-3.2 1.5-.5 2.2-2.9.5-3.8-2.2-1.1-5.1-2.2-6.1-4.6-1.8-4.5 5.6-3.9 8.4-4.8 1.5-.5 2-2.6.6-3.4zm-12.9 7.6c.3 2.8 1.8 4.7 3.8 6.2-3.5.8-7.1 1.3-10.5 1.9-1 .2-1.6 1.2-1.7 2.2-.2 2.3-.5 4.5-.7 6.8-1.7 0-3.5 0-5.2.1-.2-1.7-.4-3.4-.5-5.1-.1-1.3-1-2.2-2.3-2.3-6.6-.2-13.2-.4-19.7-.5-1.4 0-2.5 1.2-2.5 2.5-.1 1.8-.2 3.5-.3 5.3-1.8 0-3.5 0-5.3.1-.1-1.6-.2-3.1-.2-4.7 0-1.5-1.2-2.4-2.6-2.6-7.1-.8-14.5-.5-21.6-.1 0-5.3.1-10.7.1-16 1.4-.1 2.8-.2 4.2-.2 2.2 0 3-2.3 2.2-3.8 2.8-3.7 4.9-7.9 8.2-11.5 4.2-4.5 9.1-8.2 14.7-10.8 10.3-4.7 22.3-4.3 32.7-.1-1.2.6-2.4 1.2-3.5 2.1-1.5 1.1-1.4 4.5 1.1 4.2 5.2-.6 10.4.5 14.7 3.3-2.5 1.1-5 2.5-7.4 4-1.6 1-.9 3.2.9 3.4 2.7.2 5.3 1.1 7.5 2.5-1.2.1-2.4.3-3.5.6-1.6.5-1.9 3.2 0 3.5 1.7.3 3.2 1.2 4.7 2.2-4 .6-7.9 1.3-7.3 6.8z"/><path d="m49.9 39.1c4.6-1.1 11.9-1.3 16.1.9 2.7 1.4 4.6-2.2 2.3-4-2.4-1.9-6.5-1.6-9.3-1.3-3.6.4-6.3 1.8-9.5 3.3-.6.4-.2 1.3.4 1.1z"/><path d="m50.5 46.3c3 1.2 5.9 3.6 8.6 5.4 2.4 1.6 4.7 4 7.4 4.9 1.8.5 3.3-1.5 2.4-3.1-1.6-2.7-5.3-4.4-8.1-5.7-3.2-1.5-6.5-2-9.9-3.1-1-.4-1.4 1.2-.4 1.6z"/><path d="m29.7 40.4c1.2-2.2 1.5-4.7 2.1-7.1.3-1.2.4-2.7 1.8-3.3 1.3-.5 3.4 0 4.6.7 2.3 1.5 2.4 4.2.8 6.1-1.4 1.7-3.8 2.3-4.7 4.3-.6 1.5.1 3.3 1.9 3.3 3.4 0 7-4.2 7.9-7.3 1-3.4-.4-7.1-3.4-9-2.7-1.8-7.6-2.6-10.1-.1-1.2 1.2-1.4 2.9-1.7 4.4-.5 2.4-1.2 5-1 7.4-.1 1 1.3 1.5 1.8.6z"/><path d="m24.4 51.7c.4-.5-.3.4 0 0 0 0 .1-.1.1-.2.1-.2.3-.3.4-.5.6-.6 1.2-1.3 1.5-2.2.7-2.3-2-4.3-4-3.1-1.4.8-2.1 2.5-2.5 4-.3 1.2.3 2.4 1.4 2.9 1.3.6 2.4.1 3.1-.9z"/></g></g></svg>