<svg id="Layer_1" enable-background="new 0 0 91 91" height="512" viewBox="0 0 91 91" width="512" xmlns="http://www.w3.org/2000/svg"><g><path d="m11.5 11.2c-1.5.9-2.9 2-3.8 3.5s-1.2 3.4-.4 5c1.2 2.4 4.6 3.5 4.7 6.2 0 .6-.1 1.1-.2 1.7-.6 4.3 3.5 7.9 7.6 9.4.8.3 1.7.6 2.3 1.2.7.8.9 1.9 1.3 2.9 1.3 4.4 4.9 7.6 8.4 10.6-1.8 2-4.8.9-7.5 1.3s-7.2 1.3-7.1 4.6c0 1.1-.1 2.7 0 3.8.3 1.8 0 3.8 1.3 5.1 2.3 2.3 7.4 1.1 10.6.5 2.3-.5 4.6-.6 7-.5-2.5 4.5-4.7 9.7-3.6 14.7.3 1.5.8 3.2 2.2 3.8 12.1 5.6 28.7 2.5 31.5 1 2.8-1.4 7.3-4.7 8.8-8.3 1.4-3.5 2.1-6.9 2-10.7s-1.2-7.5-2.3-11.1-2.4-7.2-5-9.9c-1.1-1.1-2.5-2.1-2.9-3.7-.6-2 .9-4.2 2.7-5.2s4-1.3 6-1.9 4.1-1.7 5-3.6c1-2.3 0-5 .3-7.5.5-3.8 4.2-7.3 3-10.9-.6-1.7-2.1-3-3.7-3.9-5.2-3-11.6-3.6-17.3-1.6-.9.3-2 .7-2.9.3-.6-.3-2.2-.8-2.6-1.3-2.4-2.9-7.8-4-11.6-4-3.3 0-4.1.5-7.2 1.7-1.5.6-3 1.3-4.5 2.1-1.1.6-2.2 1.8-3.5 1.9s-3.1-.6-4.5-.7c-1.6-.1-3.2 0-4.8.2-3.3.4-6.5 1.5-9.3 3.3z" fill="#b1d6e9"/><path d="m66.5 15.9c.2.8.8 1.3 1.4 1.9 2 2.2 2.8 5.5 2.2 8.4-.2.8-.5 1.6-.4 2.5s.8 1.7 1.6 1.6c.6-.1 1-.5 1.2-1.1.2-.5.2-1.1.2-1.7 0-.9 0-1.9 0-2.8 0-1.1 0-2.3.5-3.3.4-.7 1-1.3 1.5-1.9s.9-1.4.7-2.2c-.2-.7-.8-1.2-1.4-1.6-1.3-.8-8.5-3.3-7.5.2z" fill="#91bfd1"/><path d="m21.6 26.2c.1.9.1 2-.7 2.3-.6.3-1.3-.1-1.7-.5-1-1-1.1-2.6-.8-3.9.1-.6.3-1.2.1-1.7-.3-.6-1.1-.8-1.7-1.2-1.4-.9-1.6-3.2-.3-4.3.5-.5 1.2-.7 1.8-.9 2-.6 5.9-1.9 5 1.5-.8 3-2 5.3-1.7 8.7z" fill="#91bfd1"/><path d="m14.1 14.1c2.7-1.9 6.4-2.9 9.5-1.6 1.2.5 2.3 1.3 3.5 1.7 3.1 1 3.8.5 10.2-3.7 5.1-3.3 11.3-1.2 15.9 2.6 1 .8 2.8 2.4 3.9 2.8 4.1 1.6 5.1-5.2 13.1-5.1 4 .1 8.5.4 10.6 5.9.2.5.5 1.1.9.8.1-.1.2-.3.3-.4.7-1.6.5-3.4-.3-5-.8-1.5-2.1-2.7-3.6-3.6-4.8-3.1-11.4-3.4-16.5-.7-.7.4-1.5.8-2.3.6-.5-.2-.9-.6-1.3-1-4.6-4.9-11.8-5.9-18.2-4.4-1.6.4-3.2 1-4.5 2-1.8 1.4-2.9 2.3-4.8 3.6-.4.3-.8.5-1.3.5-.4 0-.7-.2-1-.4-5-2.6-11.3-.9-16.2 2-2.3 1.4-4.5 3.1-5.3 5.7-.5 1.6 3.9 8.1 3 5.1-.9-3.4 3.1-6.5 4.4-7.4z" fill="#fff"/><g fill="#91bfd1"><path d="m48.7 51.9c.8-.1 1.5-.2 2.3 0 .7.2 1.4.7 1.4 1.4s-.5 1.2-1.1 1.6c-2.8 2-6.8 2.2-10.4 2.1-2.2-.1-5.2-.3-6.6-2-1-1.2-.7-3.1 1.1-3.4 1.6-.2 3.7.8 5.3 1 2.7.4 5.3-.3 8-.7z"/><path d="m22.6 61.2c5.1.9 10.3.3 15.4.4 5.2 0 10.6.7 14.7 3.7 1.3.9 2.5 2.4 2.1 3.9-1.9.2-3.8-.6-5.6-1.2-6.4-2.2-13.4-2.3-20-1.1-2.5.4-4.9 1-7.4.7s-5-1.9-5.6-4.3c-.3-1.3-.1-2.7.4-4 .5-1.6 1.5-2.4 2.4-1.1.4.6.2 1.3.8 1.9.7.7 1.9 1 2.8 1.1z"/><path d="m36.7 75.2c1 1.5 2.7 2.4 4.4 3 8.2 3.2 17.8 2.4 25.4-2.1 1.3-.8 2.6-1.7 3.5-2.9s1.5-2.6 1.9-4c.6-2.2.9-4.5.8-6.7-.1-1.8-.3-3.8.4-5.4 1.9 3.1 2.1 6.9 2.1 10.5 0 2.7.1 5.6-.9 8.1-.7 2-2 3.8-3.5 5.3-3.6 3.7-8.7 6-13.9 6.2-4 .2-7.9-.8-11.9-.7-2.2 0-4.4.4-6.5.2-2.2-.2-4.5-.9-5.8-2.6-.7-.9-1.1-2-1.4-3.2-.7-3.3-.2-7.4 1.9-10.1 3.3-4.3 2.5 2.9 3.5 4.4z"/></g><g fill="#4e7a9f"><path d="m30.9 9.9c-1.5-5.3-9-4.2-13-3.2-5.3 1.3-11 4.9-12 10.7-.4 2.1.3 4.5 1.7 6.2.7.8 2.4 1.6 2.6 2.4.2.7-.5 2.3-.4 3.2.6 6.6 7.2 8.9 12.5 10.8-.5-.8-.9-1.6-1.4-2.4-1.6 9.6 6.7 14.9 14.2 18.5.4-1.4.8-2.8 1.1-4.2-3.3 0-6.7 0-10 0-2.5 0-5.5-.4-7.9.6-4.1 1.7-5 7.9-4 11.7 1.3 4.7 6.4 5.6 10.7 5.2 5.1-.5 10.2-1.2 15.3-.8 3 .2 3-4.5 0-4.7-3.2-.2-6.5-.1-9.8.2-2.9.2-7.2 1.5-10 .4-2.1-.9-1.9-2.9-1.6-4.8.4-2.5 1.4-2.9 3.7-3l13.5-.3c2.1 0 3.3-3.2 1.1-4.2-5.9-2.7-13.6-6.4-12.6-14.1.1-.9-.7-1.7-1.5-1.9-3.8-1.2-11.4-3.2-10-8.8.3-1.4 1.1-2 .1-3.5-1.1-1.5-3-1.7-3.8-3.5-2.3-4.9 4.4-9.2 8.2-10.4 2.2-.6 4.7-1.3 7-1.3 2.1 0 3.8 1.2 5.8 1.6.3 0 .5-.1.5-.4z"/><path d="m56 68.8c-2.3-3-6.8-4.3-10.4-4.9-3.9-.7-8-.1-11.2 2.2-5.9 4.4-7.7 16.2-1.5 20.9 3.1 2.4 7.3 2.5 11.1 2.5 5.2 0 10.6.2 15.8-.3 8.7-.9 16.1-7.6 18.2-16.1 2.7-11-2.6-21.3-8.8-30-1.9-2.6-6.3 0-4.3 2.5 5.5 7.2 10.6 16.3 8.5 25.6-1 4.5-3.4 7.5-7.1 10.1-3.8 2.7-8.2 2.5-12.6 2.5s-9.1.5-13.5-.1c-5-.7-6-4.2-5-8.8 1-4.2 3.6-6.8 8.1-7 4.1.1 7.7 2.4 11.7 2.8.9.1 1.6-1.1 1-1.9z"/><path d="m29.9 11.5c4.1-4 9.2-6.6 15-6.2 4.7.3 10.2 2.2 12.8 6.3 1.6 2.5 5.6.2 4-2.3-3.4-5.5-10-8-16.2-8.3-7.1-.4-13.6 3-17.9 8.7-1 1.4 1.2 2.9 2.3 1.8z"/><path d="m48.6 43.8c.4-3.3.2-6.5.4-9.8.1-2-1.8-3.8-3.8-3.8-2.2 0-3.5 1.7-3.8 3.8-.3 2.9-.4 5.8-.3 8.7 0 1.9 1.4 3.5 3.3 3.7 1.7.3 3.9-.7 4.2-2.6z"/><path d="m57.1 34.9c1-.2 1.7-.7 2.6-1.3 1.1-.8 2.5-1.8 2.7-3.2.2-1.1.1-2-.6-2.8-.6-.8-1.5-1.2-2.6-1.3-1.5-.1-2.9.9-3.8 2-.8.9-1.6 1.8-1.8 3.1-.2 1 0 2 .7 2.8.7.7 1.7.8 2.8.7z"/><path d="m36.3 31.9c.2-1.5-.7-2.7-1.6-3.8-.8-.9-1.8-1.9-2.9-2.1-1-.2-2-.1-2.8.6-.9.7-1.2 1.5-1.3 2.6-.2 1.8 1.2 3.2 2.6 4.1.2.1.3.2.5.3 0 0 .1.1.1.1.3.2.2.1-.3-.2.2.3.6.5.9.7s1.6.7.6.2c1 .4 1.9.6 2.9 0 .8-.6 1.2-1.4 1.3-2.5z"/><path d="m59.8 9.9c3 .2 5.9-1.2 8.9-1.3 2.9-.1 5.5.5 7.9 2.2 1.4 1 3.8 2.6 4 4.5.3 2.3-2.8 4.5-3.2 6.8-.5 2.7 1.1 5.5-.3 8-1.3 2.2-3.8 3.3-6.2 4-2.1.6-4.7.5-6.1 2.4-1.6 2.1-1.1 4.9-.8 7.4.4 3.1 5.4 3.2 5 0-.1-.7-.4-1.8-.3-2.6.1-1.5.4-1.5 1.6-1.9 1.5-.6 3.2-.8 4.8-1.4 2.4-1 4.6-2.6 6-4.9 1.6-2.5 1.6-4.9 1.3-7.7-.4-2.6 0-3.4 1.3-5.4.7-1.1 1.2-2.2 1.3-3.5.4-4.8-4.2-8.6-8.2-10.4-5.1-2.4-13.5-1.6-17.8 2.1-.6.6 0 1.7.8 1.7z"/></g></g></svg>