<?xml version="1.0" encoding="iso-8859-1"?>
<!-- Generator: Adobe Illustrator 19.0.0, SVG Export Plug-In . SVG Version: 6.00 Build 0)  -->
<svg version="1.1" id="Capa_1" xmlns="http://www.w3.org/2000/svg" xmlns:xlink="http://www.w3.org/1999/xlink" x="0px" y="0px"
	 viewBox="0 0 512 512" style="enable-background:new 0 0 512 512;" xml:space="preserve">
<g>
	<path style="fill:#F2F2F2;" d="M138.667,394.667h320v32h-320V394.667z"/>
	<path style="fill:#F2F2F2;" d="M53.333,298.667h277.333v32H53.333V298.667z"/>
</g>
<path style="fill:#FFE451;" d="M458.667,394.667h-320v32h320V394.667z M437.333,362.667H480
	c11.768,0.035,21.298,9.566,21.333,21.333v85.333H74.667c-11.767-0.035-21.298-9.566-21.333-21.333v-64
	c0.035-11.767,9.566-21.298,21.333-21.333H437.333z"/>
<path style="fill:#AAC4DA;" d="M74.667,362.667h-64v-85.333C10.702,265.566,20.233,256.035,32,256h405.333
	c11.767,0.035,21.298,9.566,21.333,21.333v64c-0.035,11.767-9.566,21.298-21.333,21.333H74.667z M53.333,330.667h277.333v-32H53.333
	V330.667z"/>
<g>
	<path style="fill:#F2F2F2;" d="M53.333,85.333h320v32h-320V85.333z"/>
	<path style="fill:#F2F2F2;" d="M181.333,181.333h277.333v32H181.333V181.333z"/>
</g>
<path style="fill:#D9EEF7;" d="M53.333,117.333h320v-32h-320V117.333z M74.667,149.333H32c-11.767-0.035-21.298-9.566-21.333-21.333
	V42.667h426.667c11.767,0.035,21.298,9.566,21.333,21.333v64c-0.035,11.767-9.566,21.298-21.333,21.333H74.667z"/>
<path style="fill:#69F0F7;" d="M437.333,149.333h64v85.333C501.298,246.434,491.768,255.965,480,256H74.667
	c-11.767-0.035-21.298-9.566-21.333-21.333v-64c0.035-11.767,9.566-21.298,21.333-21.333H437.333z M458.667,181.333H181.333v32
	h277.333V181.333z"/>
<path style="fill:#FF7260;" d="M266.667,32v213.333L213.333,192L160,245.333V32H266.667z"/>
<g>
	<path style="fill:#4C5B66;" d="M512,256v-85.333c0-17.673-14.327-32-32-32h-12.491c1.209-3.426,1.826-7.033,1.824-10.667V64
		c0-17.673-14.327-32-32-32H298.667v21.333h138.667C443.224,53.333,448,58.109,448,64v64c0,5.891-4.776,10.667-10.667,10.667
		h-42.667V160H480c5.891,0,10.667,4.776,10.667,10.667v74.667h-192v21.333h138.667c5.891,0,10.667,4.776,10.667,10.667v64
		c0,5.891-4.776,10.667-10.667,10.667h-42.667v21.333H480c5.891,0,10.667,4.776,10.667,10.667v74.667h-416
		C68.776,458.667,64,453.891,64,448v-64c0-5.891,4.776-10.667,10.667-10.667H352V352H21.333v-74.667
		c0-5.891,4.776-10.667,10.667-10.667h85.333v-21.333H74.667c-5.891,0-10.667-4.776-10.667-10.667v-64
		C64,164.776,68.776,160,74.667,160H128v-21.333H32c-5.891,0-10.667-4.776-10.667-10.667V53.333H128V32H10.667
		C4.776,32,0,36.776,0,42.667V128c0,17.673,14.327,32,32,32h12.491c-1.207,3.427-1.824,7.034-1.824,10.667v64
		c-0.002,3.633,0.615,7.24,1.824,10.667H32c-17.673,0-32,14.327-32,32v85.333c0,5.891,4.776,10.667,10.667,10.667h33.824
		c-1.207,3.427-1.824,7.033-1.824,10.667v64c0,17.673,14.327,32,32,32h426.667c5.891,0,10.667-4.776,10.667-10.667V384
		c0-17.673-14.327-32-32-32h-12.491c1.209-3.426,1.826-7.033,1.824-10.667v-64c0-3.633-0.617-7.24-1.824-10.667h33.824
		C507.224,266.667,512,261.891,512,256z"/>
	<path style="fill:#4C5B66;" d="M298.667,138.667H352V160h-53.333V138.667z"/>
	<path style="fill:#4C5B66;" d="M320,117.333h21.333v-32c0-5.891-4.776-10.667-10.667-10.667h-32V96H320V117.333z"/>
	<path style="fill:#4C5B66;" d="M42.667,85.333v32H64V96h64V74.667H53.333C47.442,74.667,42.667,79.442,42.667,85.333z"/>
	<path style="fill:#4C5B66;" d="M362.667,74.667H384v42.667h-21.333V74.667z"/>
	<path style="fill:#4C5B66;" d="M405.333,74.667h21.333v42.667h-21.333V74.667z"/>
	<path style="fill:#4C5B66;" d="M469.333,213.333v-32H448v21.333H298.667V224h160C464.558,224,469.333,219.224,469.333,213.333z"/>
	<path style="fill:#4C5B66;" d="M85.333,181.333h21.333V224H85.333V181.333z"/>
	<path style="fill:#4C5B66;" d="M373.333,288h-320c-5.891,0-10.667,4.776-10.667,10.667v32H64v-21.333h298.667v21.333H384v-32
		C384,292.776,379.224,288,373.333,288z"/>
	<path style="fill:#4C5B66;" d="M405.333,288h21.333v42.667h-21.333V288z"/>
	<path style="fill:#4C5B66;" d="M170.667,394.667v32c0,5.891,4.776,10.667,10.667,10.667h277.333
		c5.891,0,10.667-4.776,10.667-10.667v-32H448V416H192v-21.333H170.667z"/>
	<path style="fill:#4C5B66;" d="M128,394.667h21.333v42.667H128V394.667z"/>
	<path style="fill:#4C5B66;" d="M85.333,394.667h21.333v42.667H85.333V394.667z"/>
	<path style="fill:#4C5B66;" d="M155.915,255.189c3.987,1.651,8.576,0.738,11.627-2.315l45.792-45.792l45.792,45.792
		c2,2.001,4.713,3.125,7.541,3.125c1.402,0.005,2.791-0.271,4.085-0.811c3.985-1.652,6.582-5.542,6.581-9.856V32H256v187.584l-32-32
		V128h-21.333v59.584l-32,32V32h-21.333v213.333C149.332,249.647,151.93,253.537,155.915,255.189z"/>
</g>
<g>
</g>
<g>
</g>
<g>
</g>
<g>
</g>
<g>
</g>
<g>
</g>
<g>
</g>
<g>
</g>
<g>
</g>
<g>
</g>
<g>
</g>
<g>
</g>
<g>
</g>
<g>
</g>
<g>
</g>
</svg>
