<svg id="Layer_1" data-name="Layer 1" xmlns="http://www.w3.org/2000/svg" viewBox="0 0 114.58 104.72"><defs><style>.cls-1{fill:#a82eff;}</style></defs><path d="M215.67,125l13.87,2.73-5.25,3.8c2,.47,3.91.9,5.85,1.41a4.51,4.51,0,0,1,2.87,1.93h-9.32v81.86l8.92,1.61c0,.42,0,.83,0,1.25l-6.34.47,0,.31,5.82.69.09,1.28-7.53,1.36c-.45,1.48-.64,3.49-1.65,5-.58.85-2.46.82-3.31,1.07-1.66-.71-3.48-2.16-5.31-2.16-25.66,0-51.33-.29-77,.64-6.64.24-12-2-18.94-3.57l6.64-1.2c.42-3.39,1.13-6.2,1.07-9-.43-20-.93-40-1.61-60-.22-6.6-1.13-13.18-1.56-19.77-.24-3.73,5-7.11,9.92-7.19,13.26-.2,26.5-.79,39.76-1,12.81-.17,25.64.05,38.45-.11C213,126.44,214.86,125.28,215.67,125Zm-82.54,92.33h81.94V136a10.7,10.7,0,0,0-2-.84c-25.46.29-50.92.63-76.38.86-3,0-3.55,1.62-3.54,4.11C133.14,166,133.13,192,133.13,217.34Zm1.6,2.88c-.06.58-.13,1.17-.19,1.76l81-1.66,0-.1Zm81.85,4.89,0-2.39-80,1.56,0,.83Zm5-88.82h-.73v80.13h.73ZM135,131.23l77.54-2C187.43,129.14,161.15,128.08,135,131.23Zm-6.57,84.68.36.12V184.55h-.36Zm-1.23-51.08h.54v-26.6h-.54Zm90.65-16,.55-.06V135.43l-1.36.1Z" transform="translate(-118.43 -125.01)"/><path class="cls-1" d="M133.13,217.34c0-25.37,0-51.31,0-77.25,0-2.49.49-4.08,3.54-4.11,25.46-.23,50.92-.57,76.38-.86a10.7,10.7,0,0,1,2,.84v81.38Z" transform="translate(-118.43 -125.01)"/><path class="cls-1" d="M134.73,220.22h80.73l0,.1-81,1.66C134.6,221.39,134.67,220.8,134.73,220.22Z" transform="translate(-118.43 -125.01)"/><path class="cls-1" d="M216.58,225.11h-80l0-.83,80-1.56Z" transform="translate(-118.43 -125.01)"/><path class="cls-1" d="M221.56,136.29v80.14h-.73V136.29Z" transform="translate(-118.43 -125.01)"/><path class="cls-1" d="M135,131.23c26.18-3.15,52.46-2.09,77.54-2Z" transform="translate(-118.43 -125.01)"/><path class="cls-1" d="M128.4,215.91V184.56h.36V216Z" transform="translate(-118.43 -125.01)"/><path class="cls-1" d="M127.17,164.83V138.24h.54v26.6Z" transform="translate(-118.43 -125.01)"/><path class="cls-1" d="M217.82,148.85,217,135.53l1.36-.1v13.36Z" transform="translate(-118.43 -125.01)"/></svg>