<svg height="506pt" viewBox="0 -85 506.46677 506" width="506pt" xmlns="http://www.w3.org/2000/svg"><path d="m189.125 334.660156c-1.910156 0-3.589844-1.273437-4.105469-3.113281-.515625-1.84375.253907-3.800781 1.890625-4.796875l26.453125-16.214844-40.765625 23.527344c-2.007812 1.125-4.550781.453125-5.738281-1.519531-1.191406-1.972657-.597656-4.535157 1.335937-5.785157l121.421876-76.015624-141.125 81.476562c-2.023438 1.210938-4.644532.554688-5.855469-1.46875-1.210938-2.019531-.554688-4.640625 1.46875-5.851562l124.3125-77.347657-139.816407 80.726563c-2.019531 1.214844-4.644531.5625-5.859374-1.453125-1.214844-2.019531-.566407-4.644531 1.453124-5.859375l156.066407-97.699219-171.21875 98.851563c-2.015625 1.132812-4.570313.457031-5.757813-1.527344-1.1875-1.988282-.574218-4.558594 1.378906-5.796875l126.421876-78.0625-136.234376 78.652343c-2.011718 1.109376-4.539062.425782-5.71875-1.542968-1.179687-1.96875-.59375-4.515625 1.332032-5.769532l171.902344-107.519531-182.902344 105.617188c-2.023438 1.207031-4.644532.546875-5.855469-1.476563-1.207031-2.023437-.546875-4.644531 1.476563-5.855468l139.949218-86.398438-147.609375 85.214844c-1.308593.785156-2.933593.816406-4.269531.078125-1.332031-.738281-2.171875-2.132813-2.199219-3.65625-.03125-1.527344.757813-2.949219 2.0625-3.734375l188.417969-118.238282-196.703125 113.558594c-2.015625 1.136719-4.566406.460938-5.753906-1.527344-1.1875-1.984374-.578125-4.554687 1.378906-5.792968l150.851563-93.386719-156.476563 90.332031c-2.023437 1.207032-4.644531.542969-5.847656-1.480468-1.207031-2.023438-.546875-4.644532 1.480469-5.847657l126.042968-77.570312-129.03125 74.496093c-2.007812 1.085938-4.511718.402344-5.6875-1.550781-1.175781-1.957031-.605468-4.488281 1.292969-5.753906l181.546875-114.003906-186.242188 107.527343c-2.015624 1.21875-4.636718.570313-5.855468-1.445312-1.21875-2.019531-.570313-4.640625 1.445312-5.859375l176.664063-111.121094-179.335938 103.527344c-2.023437 1.207031-4.640625.542969-5.847656-1.480469-1.207031-2.023437-.542969-4.644531 1.480469-5.851562l84.480468-51.796875-84.480468 48.75c-2.03125 1.203125-4.648438.53125-5.851563-1.496094-1.199219-2.027344-.53125-4.648437 1.5-5.847656l26.265625-15.941407-24.414062 14.097657c-2.019532 1.21875-4.640625.570312-5.859375-1.449219-1.21875-2.015625-.570313-4.636719 1.445312-5.855469l143.214844-90.378906-142.957031 82.542969c-2.015625 1.117187-4.554688.429687-5.730469-1.550782-1.179687-1.980468-.574219-4.539062 1.371094-5.777343l19.703125-12-16.28125 9.386719c-1.996094 1.085937-4.492188.414062-5.675782-1.523438-1.1875-1.9375-.644531-4.460938 1.226563-5.746094l138.472656-89.597656-135.679687 78.324219c-1.996094 1.101562-4.5.4375-5.695313-1.5-1.191406-1.941407-.648437-4.476563 1.230469-5.761719l117.863281-76.867188-111.785156 64.53125c-2.011719 1.105469-4.539063.421876-5.71875-1.542968-1.179687-1.96875-.59375-4.519532 1.332031-5.773438l5.117188-3.148437c-1.964844.894531-4.285156.203125-5.441406-1.621094-1.210938-1.960937-.644532-4.53125 1.277343-5.800781l80.609375-53.136719-70.792968 40.839844c-2.003907 1.121093-4.535157.453125-5.730469-1.507813-1.191407-1.964844-.617188-4.515625 1.300781-5.78125l14.285156-9.113281-4.949218 2.808594c-1.996094 1.1875-4.578126.558593-5.804688-1.414063s-.648438-4.566406 1.296875-5.832031l38.1875-25.4375-25.003906 14.488281c-1.984375 1.101563-4.480469.453125-5.683594-1.46875-1.203125-1.925781-.6875-4.457031 1.171875-5.757812l16.980469-11.46875c-1.988281.660156-4.160157-.21875-5.128907-2.074219s-.449218-4.140625 1.230469-5.390625l26.453125-19.578125c-.535156-.355469-.976562-.832031-1.289062-1.390625-1.175782-2.035156-.480469-4.636719 1.550781-5.820312l43.078125-24.863282c1.957031-1.113281 4.4375-.515625 5.675781 1.363282 1.234375 1.882812.796875 4.398437-1 5.753906l-9.386719 6.960937 39.320313-22.691406c1.988281-1.097656 4.484375-.449219 5.6875 1.472656 1.203125 1.925781.6875 4.457031-1.171875 5.757813l-15.929688 10.742187 34.660157-20.019531c1.988281-1.113281 4.503906-.46875 5.707031 1.46875 1.207031 1.933594.675781 4.476562-1.199219 5.769531l-38.1875 25.4375 56.601563-32.675781c2-1.082031 4.5-.40625 5.679687 1.539062 1.179688 1.945313.625 4.476563-1.261719 5.75l-14.367187 9.148438 28.515625-16.4375c1.988281-1.070312 4.464844-.40625 5.652344 1.511719 1.1875 1.921875.675781 4.433593-1.171875 5.734375l-80.5625 53.109375 104.550781-60.355469c2.007812-1.070312 4.503906-.378906 5.671875 1.574219 1.167969 1.949219.597656 4.476562-1.292969 5.738281l-4.6875 2.910156 17.726563-10.238281c1.992187-1.097656 4.5-.4375 5.691406 1.503906 1.191406 1.9375.652344 4.472657-1.230469 5.757813l-117.894531 76.894531 145.773437-84.140625c1.996094-1.082031 4.492188-.414062 5.675782 1.523438s.644531 4.464843-1.230469 5.746093l-138.417969 89.515625 167.6875-96.785156c2.015625-1.113281 4.554688-.425781 5.730469 1.554688 1.179687 1.980468.570313 4.535156-1.371094 5.777343l-19.558593 11.945313 33.28125-19.183594c2.015624-1.21875 4.640624-.570312 5.859374 1.445312 1.21875 2.019532.570313 4.640626-1.449218 5.859376l-143.324219 90.378906 165.164063-95.34375c2.019531-1.152344 4.59375-.472656 5.78125 1.53125 1.1875 2 .550781 4.585937-1.429688 5.804687l-26.453125 16.042969 34.984375-20.164062c2.011719-1.089844 4.527344-.398438 5.699219 1.566406s.585937 4.503906-1.328125 5.757812l-84.480469 51.804688 95.242187-54.980469c2.015626-1.21875 4.636719-.570313 5.855469 1.445313 1.21875 2.019531.570313 4.640624-1.445312 5.859374l-176.640625 111.113282 190.480468-109.976563c2.019532-1.21875 4.644532-.566406 5.859376 1.453125 1.214843 2.019532.5625 4.640625-1.457032 5.859375l-181.570312 114.003907 193.449218-111.683594c2.023438-1.207032 4.644532-.542969 5.851563 1.480468 1.207031 2.023438.542969 4.644532-1.480469 5.847657l-126.089844 77.585937 133.121094-76.851562c2.011719-1.105469 4.535156-.425782 5.71875 1.542968 1.179688 1.96875.589844 4.519532-1.332031 5.769532l-150.878906 93.414062 157.292969-90.800781c2.007812-1.085937 4.515624-.402344 5.691406 1.550781 1.175781 1.957032.605468 4.488282-1.292969 5.753906l-188.390625 118.21875 196.121094-113.226562c2.011718-1.089844 4.523437-.402344 5.695312 1.5625s.585938 4.507812-1.328125 5.757812l-139.929687 86.417969 143.359375-82.773437c2.011719-1.109375 4.539062-.425782 5.71875 1.542968 1.179687 1.96875.59375 4.515626-1.332031 5.769532l-171.828126 107.453125 176.15625-101.703125c2.023438-1.207032 4.644532-.546875 5.851563 1.476562 1.210937 2.027344.550781 4.644532-1.476563 5.855469l-126.605468 78.183594 127.835937-73.789063c2.015625-1.164062 4.589844-.496094 5.789063 1.5 1.199218 1.992188.578125 4.578125-1.394532 5.8125l-156.007812 97.664063 157.6875-91.042969c2.023438-1.210938 4.644531-.554688 5.855469 1.46875 1.210937 2.023438.554687 4.644531-1.46875 5.855469l-124.234375 77.292969 123.511718-71.285157c2.007813-1.128906 4.546876-.457031 5.738282 1.519531 1.1875 1.972657.597656 4.53125-1.335938 5.785157l-121.566406 76.089843 120.542969-69.589843c2.015625-1.113281 4.550781-.425781 5.730469 1.554687 1.175781 1.980469.570312 4.535156-1.371094 5.777344l-26.300782 16.101562 22.863282-13.191406c2-1.140625 4.546875-.484375 5.75 1.480469 1.203125 1.96875.625 4.535156-1.304688 5.796875l-134.726562 87.183594 131.601562-75.945313c2.011719-1.230469 4.640625-.601562 5.871094 1.40625 1.234375 2.011719.601562 4.640625-1.40625 5.871094l-108.800781 70.582031 102.679687-59.28125c2.003906-1.085937 4.503906-.410156 5.683594 1.539063 1.179688 1.945312.625 4.472656-1.261719 5.746093l-59.265625 37.8125 52.363282-30.292968c2.007812-1.125 4.550781-.453125 5.738281 1.519531s.597656 4.535156-1.335938 5.785156l-14.917969 9.386719 7.050782-4.0625c1.996094-1.082031 4.488281-.414062 5.675781 1.523438 1.183594 1.9375.644531 4.464843-1.230469 5.746093l-33.535156 21.734375 23.492188-13.558594c2-1.242187 4.632812-.625 5.875 1.378907 1.242187 2.003906.625 4.632812-1.378907 5.875l-34.59375 22.953125 21.714844-12.527344c1.96875-1.085938 4.4375-.460938 5.652344 1.425781 1.214843 1.890625.761719 4.394531-1.042969 5.734375l-36.105469 25.675782 13.261719-7.679688c1.324219-.839844 3-.886719 4.367188-.125 1.371093.765625 2.210937 2.21875 2.1875 3.785156-.019532 1.566406-.898438 2.996094-2.289063 3.722656l-91.109375 52.632813c-1.96875 1.125-4.476562.511719-5.703125-1.398437-1.226563-1.90625-.746094-4.441407 1.09375-5.769532l36.082031-25.625-62.191406 35.839844c-1.992188 1.132812-4.527344.488281-5.734375-1.457031-1.210937-1.949219-.664063-4.503907 1.238281-5.789063l34.601563-22.96875-52.34375 30.214844c-1.996094 1.082031-4.492188.414062-5.675781-1.523438-1.183594-1.9375-.644532-4.464843 1.230468-5.746093l33.550782-21.691407-50.167969 28.960938c-2.003907 1.101562-4.519531.425781-5.707031-1.53125-1.183594-1.957031-.609376-4.5 1.296874-5.765625l14.949219-9.386719-29.011719 16.726563c-2 1.085937-4.5.40625-5.679687-1.539063-1.179687-1.945312-.625-4.476562 1.257813-5.75l59.214843-37.777344-77.988281 45.023438c-2 1.164062-4.566406.519531-5.78125-1.457031-1.210938-1.972657-.625-4.554688 1.320312-5.8125l108.808594-70.589844-134.902344 77.859375c-2 1.117188-4.523437.457031-5.722656-1.496094-1.195312-1.953125-.636718-4.5 1.265625-5.773437l134.707031-87.152344-163.589843 94.421875c-.648438.382812-1.382813.589844-2.136719.597656zm0 0" fill="#35ba9b"/><path d="m333.203125 291.515625c-1.828125-.023437-3.4375-1.203125-4.003906-2.941406-.566407-1.738281.035156-3.640625 1.496093-4.738281l54.042969-39.375-74.242187 42.855468c-1.988282 1.152344-4.53125.527344-5.753906-1.417968-1.222657-1.945313-.6875-4.507813 1.214843-5.800782l54.246094-37.050781-67.097656 38.742187c-1.984375 1.113282-4.496094.476563-5.707031-1.453124-1.207032-1.925782-.691407-4.464844 1.175781-5.765626l71.808593-48.976562-82.773437 47.789062c-1.992187 1.152344-4.542969.519532-5.761719-1.433593-1.214844-1.953125-.664062-4.523438 1.246094-5.804688l71.835938-48.015625-79.855469 46.078125c-1.984375 1.101563-4.484375.453125-5.6875-1.46875-1.203125-1.925781-.6875-4.457031 1.171875-5.757812l87.3125-58.878907-95.058594 54.816407c-2.007812 1.105469-4.523438.429687-5.707031-1.53125-1.183594-1.957031-.613281-4.5 1.292969-5.761719l26.640624-16.914062-28.59375 16.496093c-1.996093 1.082031-4.492187.410157-5.675781-1.527343-1.183593-1.9375-.644531-4.460938 1.230469-5.746094l56.269531-36.375-58.882812 33.976562c-1.992188 1.011719-4.425781.3125-5.578125-1.601562-1.15625-1.914063-.636719-4.390625 1.183594-5.683594l25.601562-16.214844-25.839844 14.910156c-2.007812 1.125-4.550781.453126-5.738281-1.519531-1.191406-1.972656-.597656-4.535156 1.335937-5.785156l15.992188-10.078125-16.007812 9.230469c-1.992188 1.179687-4.5625.558593-5.792969-1.402344-1.226563-1.960937-.667969-4.546875 1.261719-5.824219l94.0625-63.582031-94.574219 54.613281c-1.992188 1.097656-4.492188.445313-5.691407-1.488281-1.195312-1.929687-.667968-4.464844 1.199219-5.757813l71.683594-47.445312-69.925781 40.363281c-2.003906 1.121094-4.535156.453125-5.726563-1.507812-1.191406-1.960938-.617187-4.515625 1.300781-5.777344l15.871094-10.105469-12.476562 7.203125c-1.980469 1.152344-4.519532.535157-5.75-1.402343-1.226563-1.9375-.703125-4.5 1.183594-5.800782l80.128906-55.40625-74.785156 43.179688c-1.988282 1.296875-4.652344.734375-5.949219-1.253906-1.292969-1.988282-.734375-4.652344 1.253906-5.949219l66.5625-46.746094-57.804687 33.382813c-1.972657 1.109374-4.464844.484374-5.683594-1.421876-1.21875-1.902343-.742188-4.429687 1.09375-5.753906l43.484375-30.660156-30.804688 17.78125c-1.902343 1.089844-4.316406.5625-5.589843-1.21875-1.273438-1.78125-.992188-4.234375.648437-5.683594l33.390625-29.269531c-2.101562.910156-4.542969 0-5.539062-2.0625-.996094-2.058594-.183594-4.539063 1.835937-5.617187l36.804687-21.238282c1.898438-1.085937 4.3125-.558594 5.585938 1.21875 1.277344 1.78125.996094 4.234375-.644531 5.683594l-33.195313 29.097656 73.992188-42.714844c1.972656-1.109374 4.464844-.484374 5.683594 1.417969 1.21875 1.90625.738281 4.429688-1.09375 5.757813l-43.441407 30.71875 60.515625-34.933594c1.976563-1.121094 4.484375-.5 5.703125 1.414062 1.222657 1.914063.730469 4.453126-1.121093 5.769532l-66.558594 46.746094 82.082031-47.394532c1.980469-1.117187 4.488281-.488281 5.703125 1.433594s.710938 4.457031-1.144531 5.769531l-80.113281 55.390625 92.503906-53.402344c2.011718-1.222656 4.636718-.582031 5.859375 1.433594 1.226562 2.011719.582031 4.636719-1.433594 5.859375l-15.957031 10.121094 19.628906-11.324219c2.003906-1.238281 4.632812-.621094 5.875 1.378906 1.242188 2.003907.625 4.632813-1.378906 5.875l-71.585938 47.414063 78.4375-45.296875c1.992188-1.179688 4.5625-.554688 5.789063 1.40625 1.230469 1.960938.671875 4.542969-1.257813 5.820312l-94.191406 63.625 100.34375-57.921874c2.007812-1.105469 4.523438-.429688 5.707031 1.53125 1.183594 1.957031.613281 4.5-1.292969 5.761718l-15.863281 10.011719 16.921875-9.769531c2.015625-1.21875 4.636719-.570313 5.855469 1.445312s.570313 4.640625-1.445313 5.859375l-25.601562 16.210938 25.839844-14.90625c2.003906-1.140625 4.550781-.484375 5.753906 1.484375 1.199219 1.964844.621094 4.53125-1.308594 5.792968l-56.269531 36.378907 57.175781-33.023438c2.003906-1.105469 4.523438-.429687 5.707032 1.53125 1.183593 1.957031.613281 4.5-1.296876 5.765625l-26.605468 16.894532 25.191406-14.507813c1.984375-1.097656 4.480469-.453125 5.683594 1.472656s.6875 4.453125-1.171875 5.753907l-87.234375 58.882812 86.792968-50.082031c1.996094-1.1875 4.574219-.558594 5.800782 1.414062 1.226562 1.972657.648437 4.5625-1.296875 5.828125l-71.917969 48.019532 68.90625-39.773438c1.996094-1.261719 4.640625-.664062 5.898438 1.335938 1.261718 1.996093.664062 4.636718-1.332032 5.898437l-71.765625 48.957031 66.175781-38.195312c1.980469-1.101563 4.476563-.464844 5.683594 1.453125 1.207032 1.917969.703125 4.445312-1.144531 5.757812l-54.246094 37.015625 46.214844-26.675781c1.964844-1.113281 4.457031-.507813 5.6875 1.386719 1.230469 1.890625.773437 4.417968-1.042969 5.757812l-54.070312 39.390625 40.109375-23.125c1.96875-1.082031 4.441406-.453125 5.648437 1.441407 1.210938 1.894531.742188 4.402343-1.066406 5.734374l-14.097656 9.90625c1.621094-.136718 3.164062.703126 3.933594 2.132813 1.175781 2.039063.480468 4.640625-1.554688 5.820313l-77.035156 44.484374c-1.980469 1.15625-4.515625.542969-5.75-1.386718-1.230469-1.929688-.722656-4.488282 1.15625-5.796875l9.949218-6.992188-26.605468 15.363281c-.65625.382813-1.40625.582032-2.167969.570313zm0 0" fill="#9ed26a"/><g fill="#262626"><path d="m386.347656 8.363281c-31.410156-9.046875-64.851562-6.707031-97.132812-6.707031-81.066406 0-173.507813-14.097656-237.917969 46.480469-38.554687 37.140625-57.035156 90.472656-49.726563 143.507812 7.308594 53.035157 39.523438 99.378907 86.683594 124.710938 40.5 21.265625 83.628906 19.023437 127.726563 19.023437h121.457031c108.515625-3.816406 193.707031-104.902344 162.515625-213.402344-16.117187-54.707031-58.898437-97.492187-113.605469-113.613281zm-47.921875 317.558594c-52.121093 0-104.25.222656-156.371093 0-101.277344-.390625-186.941407-79.898437-168.046876-186.316406 11.398438-62.097657 58.789063-111.382813 120.394532-125.203125 26.078125-5.707032 55.039062-3.292969 81.578125-3.292969 65.914062 0 149.136719-12.59375 206.6875 25.949219 127.453125 85.378906 67.589843 283.53125-84.242188 288.863281zm0 0"/><path d="m212.285156 169.738281c.625 161.277344 243.839844 154.828125 251.289063-2.007812 0-.171875-.101563-.265625-.117188-.417969s.128907-.289062.117188-.453125c-7.585938-159.707031-251.9375-155.484375-251.289063 2.878906zm106.734375 112.75c-54.691406-11.207031-93.9375-59.371093-93.863281-115.199219 0-72.988281 68.855469-130.714843 141.71875-109.84375 51.363281 14.722657 81.640625 60.460938 84.269531 112.257813-3.414062 68.09375-59.085937 126.746094-132.125 112.785156zm0 0"/><path d="m95.054688 63.0625c3.09375.214844 6.171874-.609375 8.738281-2.347656 5.105469-3.160156 10.421875-5.960938 15.914062-8.378906 1.785157-.792969 3.542969-2.449219 1.382813-3.714844-2.15625-1.261719-6.664063.554687-8.667969 1.453125-6.296875 2.824219-12.390625 6.089843-18.226563 9.769531-2.175781 1.355469-1.296874 2.859375.859376 3.21875zm0 0"/><path d="m77.023438 84.703125c4.875-5.890625-6.945313-6.957031-10.179688-3.039063-44.128906 50.644532-43.761719 126.1875.855469 176.402344 3.308593 3.863282 15.128906-.855468 11.382812-5.222656-42.894531-47.546875-43.777343-119.5625-2.058593-168.140625zm0 0"/><path d="m104.835938 274.679688c-2.03125-1.261719-5.921876.058593-7.945313.792968-.625.222656-5.488281 2.253906-3.730469 3.355469 5.472656 3.414063 11.175782 6.449219 17.066406 9.078125 2.660157.667969 5.46875.386719 7.945313-.792969.476563-.171875 5.582031-2.5625 3.730469-3.355469-5.894532-2.621093-11.597656-5.65625-17.066406-9.078124zm0 0"/><path d="m391.546875 118.332031c-20.832031 33.859375-41.667969 67.707031-62.507813 101.546875l-27.972656-27.9375c-2.40625-2.40625-13.847656 2.105469-11.605468 4.351563l34.132812 34.132812c2.449219 2.449219 10.421875-.757812 11.949219-3.191406 22.753906-36.976563 45.511719-73.957031 68.265625-110.933594 1.101562-1.835937-10.28125-1.175781-12.261719 2.03125zm0 0"/></g></svg>