<svg height="511pt" viewBox="0 -2 511.15637 511" width="511pt" xmlns="http://www.w3.org/2000/svg"><g fill="#457393"><path d="m359 475.675781c-1.753906 0-3.332031-1.078125-3.96875-2.710937-.640625-1.636719-.210938-3.496094 1.074219-4.6875l1.613281-1.484375-2.960938 1.707031c-1.847656 1.003906-4.148437.511719-5.425781-1.15625-1.277343-1.671875-1.148437-4.023438.304688-5.542969l10.34375-10.445312-13.953125 8.046875c-1.820313 1.035156-4.125.597656-5.433594-1.039063-1.3125-1.632812-1.242188-3.976562.160156-5.53125l18.066406-19.710937-24.507812 14.140625c-1.914062 1.089843-4.34375.546875-5.609375-1.253907-1.265625-1.804687-.949219-4.273437.726563-5.703124l29.433593-24.703126-58.410156 33.722657c-1.320313.777343-2.957031.78125-4.285156.019531s-2.144531-2.175781-2.140625-3.707031.828125-2.945313 2.160156-3.703125l100.84375-58.210938c1.917969-1.117187 4.371094-.582031 5.644531 1.234375 1.273438 1.816407.941407 4.308594-.761719 5.726563l-29.492187 24.695312 6.101563-3.515625c1.820312-1.035156 4.125-.59375 5.4375 1.039063 1.308593 1.632812 1.242187 3.976562-.164063 5.53125l-18.066406 19.722656 17.445312-10.070312c1.847657-1.066407 4.199219-.601563 5.503907 1.085937 1.308593 1.691406 1.164062 4.082031-.335938 5.605469l-10.347656 10.460937 8.660156-5c1.878906-1.078125 4.269531-.574219 5.554688 1.171875 1.285156 1.746094 1.058593 4.175782-.527344 5.652344l-1.820313 1.707031c2.058594-.691406 4.304688.273438 5.226563 2.238281.917968 1.964844.214844 4.308594-1.632813 5.441407l-32.324219 18.65625c-.648437.378906-1.382812.574219-2.132812.570312zm0 0"/><path d="m452.054688 394.636719c-1.589844 0-3.046876-.886719-3.78125-2.292969-.734376-1.410156-.625-3.113281.285156-4.414062l10.289062-14.773438-25.746094 14.875c-1.832031 1.046875-4.160156.59375-5.46875-1.066406-1.304687-1.660156-1.203124-4.027344.246094-5.566406l12.050782-12.679688-24.882813 14.363281c-1.324219.839844-3 .886719-4.367187.125-1.371094-.765625-2.210938-2.21875-2.1875-3.785156.019531-1.566406.898437-2.996094 2.289062-3.722656l50.542969-29.183594c1.835937-1.0625 4.171875-.613281 5.484375 1.050781 1.3125 1.664063 1.203125 4.042969-.253906 5.578125l-12.085938 12.683594 16.675781-9.628906c1.730469-.996094 3.921875-.660157 5.273438.8125 1.351562 1.472656 1.5 3.683593.359375 5.324219l-10.394532 14.917968c1.933594-.660156 4.058594.140625 5.078126 1.910156 1.175781 2.039063.476562 4.648438-1.5625 5.828126l-15.71875 9.070312c-.644532.378906-1.378907.574219-2.125.574219zm0 0"/><path d="m462.117188 286.089844c-1.933594 0-3.621094-1.296875-4.121094-3.160156-.5-1.867188.316406-3.835938 1.988281-4.800782l40.378906-23.304687c2.027344-1.058594 4.527344-.332031 5.671875 1.644531 1.144532 1.980469.523438 4.511719-1.40625 5.738281l-40.378906 23.304688c-.648438.375-1.382812.578125-2.132812.578125zm0 0"/><path d="m259.433594 506.175781c-1.644532 0-3.140625-.945312-3.851563-2.429687-.707031-1.480469-.5-3.238282.53125-4.519532l4.429688-5.511718-17.707031 10.242187c-1.878907 1.019531-4.21875.492188-5.480469-1.230469-1.261719-1.726562-1.054688-4.117187.488281-5.597656l11.203125-10.09375-11.09375 6.390625c-2.015625 1.21875-4.640625.570313-5.855469-1.445312-1.21875-2.019531-.574218-4.640625 1.445313-5.859375l35.308593-22.1875-33.449218 19.304687c-1.988282 1.113281-4.503906.46875-5.707032-1.46875-1.207031-1.933593-.675781-4.476562 1.203126-5.769531l105.914062-70.773438-105.609375 60.996094c-2 1.242188-4.632813.625-5.875-1.378906s-.625-4.632812 1.378906-5.875l96.699219-64.15625-99.371094 57.347656c-2.007812 1.234375-4.636718.605469-5.871094-1.402344-1.234374-2.007812-.605468-4.636718 1.402344-5.871093l92.507813-60.390625-107.417969 62.039062c-2.007812 1.105469-4.535156.425782-5.714844-1.542968-1.183594-1.96875-.59375-4.519532 1.328125-5.769532l29.183594-18.167968-38.320313 22.117187c-2.027343 1.0625-4.527343.335937-5.671874-1.644531-1.144532-1.980469-.527344-4.507813 1.402343-5.734375l259.679688-149.933594c2.023437-1.210937 4.644531-.558594 5.859375 1.464844 1.210937 2.023437.558594 4.644531-1.464844 5.859375l-29.167969 18.175781 20.890625-12.058594c1.996094-1.097656 4.5-.4375 5.695313 1.503907 1.191406 1.941406.648437 4.472656-1.230469 5.757812l-92.527344 60.417969 83.308594-48.105469c1.296875-.800781 2.921875-.851562 4.265625-.132812s2.199219 2.101562 2.25 3.625c.046875 1.527343-.722656 2.960937-2.019531 3.761718l-96.730469 64.164063 100.734375-58.164063c1.996094-1.1875 4.574219-.558594 5.800781 1.414063 1.226563 1.972656.652344 4.5625-1.296875 5.832031l-105.863281 70.636719 113.9375-65.773438c2.015625-1.21875 4.640625-.570312 5.859375 1.445313s.570312 4.640625-1.449219 5.859375l-177.117187 111.4375c.011718 1.21875-.5 2.386719-1.40625 3.207031l-11.214844 10.101562 2.347656-1.347656c1.777344-1.015625 4.027344-.625 5.359375.929688 1.332031 1.554687 1.371094 3.835937.09375 5.4375l-6.179687 7.679687c1.761718.320313 3.136718 1.703125 3.445312 3.46875.308594 1.761719-.519531 3.53125-2.070312 4.425781l-15.070313 8.710938c-.648437.382812-1.394531.585938-2.148437.582031zm0 0"/><path d="m327.519531 305.164062c-1.863281 0-3.507812-1.210937-4.066406-2.988281-.558594-1.777343.097656-3.710937 1.625-4.777343l39.066406-27.308594-25.042969 14.457031c-1.960937 1.152344-4.480468.5625-5.730468-1.339844-1.246094-1.898437-.785156-4.445312 1.050781-5.785156l46.175781-34.132813-37.742187 21.792969c-1.972657 1.109375-4.464844.484375-5.683594-1.421875-1.21875-1.902344-.742187-4.429687 1.089844-5.753906l23.042969-16.28125-18.5 10.675781c-1.976563 1.117188-4.484376.496094-5.703126-1.417969-1.222656-1.914062-.730468-4.449218 1.121094-5.769531l35.273438-24.796875-32.28125 18.628906c-1.984375 1.070313-4.464844.40625-5.652344-1.511718-1.1875-1.921875-.671875-4.433594 1.171875-5.734375l18.972656-12.550781-17.851562 10.289062c-2.007813 1.234375-4.636719.609375-5.871094-1.398438-1.234375-2.007812-.609375-4.636718 1.398437-5.871093l7.484376-4.890625-6.144532 3.550781c-2 1.136719-4.539062.484375-5.742187-1.472656-1.207031-1.957031-.644531-4.515625 1.269531-5.789063l4.769531-3.113281-5.058593 2.917969c-1.988282 1.082031-4.472657.429687-5.667969-1.492188-1.195313-1.921875-.679688-4.445312 1.171875-5.746094l22.296875-14.847656-23.375 13.484375c-1.953125 1.128907-4.449219.539063-5.691407-1.34375-1.242187-1.886719-.804687-4.410156 1-5.765625l38.527344-28.910156-44.296875 25.597656c-1.964843 1.113282-4.460937.5-5.683593-1.402344-1.226563-1.898437-.757813-4.421874 1.066406-5.753906l19.566406-14.074218-24.515625 14.15625c-1.953125 1.148437-4.460937.566406-5.710937-1.320313-1.253907-1.886719-.8125-4.421875 1-5.777344l35.5-26.914062-45.480469 26.257812c-1.957031 1.128907-4.453125.539063-5.695313-1.34375-1.242187-1.886719-.804687-4.410156 1-5.765625l37.019532-27.691406-51.3125 29.628906c-1.957032 1.113282-4.4375.511719-5.675782-1.367187-1.234375-1.878907-.796875-4.394531 1-5.75l55.203125-40.960938-87.210937 50.347657c-2.039063 1.160156-4.632813.457031-5.804688-1.574219s-.488281-4.628907 1.535156-5.816407l151.375-87.414062c1.957032-1.113281 4.4375-.515625 5.671876 1.367188 1.238281 1.878906.800781 4.394531-.996094 5.75l-55.195313 40.957031 49.316407-28.449219c1.953124-1.128906 4.449218-.539062 5.691406 1.34375 1.246094 1.886719.804687 4.410156-1 5.765625l-37.015625 27.691406 42.324219-24.433593c1.949218-1.109376 4.425781-.519532 5.664062 1.347656 1.242188 1.871094.824219 4.378906-.953125 5.746094l-35.507813 26.914062 41.089844-23.714844c1.964844-1.113281 4.457032-.496094 5.683594 1.402344 1.222656 1.898438.757812 4.425781-1.070312 5.757812l-19.625 14.027344 30.175781-17.414062c1.949219-1.105469 4.425781-.507813 5.660156 1.367187 1.234375 1.871094.804687 4.378907-.976563 5.738281l-38.476562 28.9375 77.992188-45.046874c1.992187-1.117188 4.503906-.46875 5.710937 1.464843 1.203125 1.9375.675781 4.476563-1.203125 5.769531l-22.289062 14.882813 23.894531-13.796875c2.003906-1.234375 4.632812-.609375 5.867187 1.398438 1.238282 2.007812.609375 4.636718-1.398437 5.871093l-4.710938 3.0625 4.617188-2.652343c1.996093-1.097657 4.5-.4375 5.695312 1.503906 1.191407 1.9375.648438 4.472656-1.230469 5.757812l-7.40625 4.847656 6.109376-3.523437c1.984374-1.070313 4.464843-.410156 5.652343 1.511719 1.183594 1.917968.671875 4.429687-1.171875 5.730468l-23.894531 15.804688c1.9375-.222656 3.78125.898438 4.472656 2.722656.691407 1.824219.058594 3.886719-1.539062 5.007813l-35.25 24.78125 16.835937-9.710938c1.96875-1.070312 4.429688-.441406 5.636719 1.445313 1.207031 1.886718.75 4.386718-1.046875 5.722656l-23.097656 16.316406 21.496094-12.417968c1.960937-1.148438 4.480468-.5625 5.726562 1.339843 1.246094 1.902344.785156 4.445313-1.050781 5.785157l-46.183594 34.136718 45.542969-26.292968c1.980468-1.175782 4.539062-.566407 5.777344 1.375 1.238281 1.945312.707031 4.519531-1.195313 5.820312l-39.046875 27.304688 42.957031-24.796876c2.023438-1.058593 4.527344-.335937 5.671875 1.644532 1.140625 1.980468.523438 4.507812-1.40625 5.734375l-128.445312 74.171875c-.644532.378906-1.382813.578125-2.132813.574218zm0 0"/><path d="m354.597656 47.449219c-1.933594 0-3.621094-1.296875-4.121094-3.164063-.5-1.863281.3125-3.832031 1.988282-4.796875l13.011718-7.519531c2.039063-1.160156 4.628907-.457031 5.804688 1.574219 1.171875 2.03125.484375 4.628906-1.539062 5.816406l-13.011719 7.507813c-.648438.378906-1.382813.578124-2.132813.582031zm0 0"/><path d="m140.527344 477.757812c-1.902344.003907-3.578125-1.253906-4.105469-3.085937s.222656-3.789063 1.835937-4.796875l159.328126-99.757812-170.265626 98.304687c-2.019531 1.21875-4.644531.566406-5.859374-1.453125-1.214844-2.019531-.5625-4.644531 1.457031-5.859375l167.574219-105.078125-167.355469 96.621094c-2.015625 1.097656-4.539063.402344-5.707031-1.574219-1.171876-1.976563-.566407-4.523437 1.363281-5.761719l7.222656-4.378906c-2 .789062-4.277344-.03125-5.3125-1.917969-1.03125-1.886719-.5-4.246093 1.242187-5.507812l64.332032-46.15625-53.273438 30.722656c-1.953125 1.101563-4.425781.503906-5.660156-1.371094-1.234375-1.871093-.808594-4.378906.972656-5.738281l44.757813-33.441406-45.925781 26.519531c-1.957032 1.140625-4.464844.550781-5.710938-1.339844-1.242188-1.894531-.792969-4.429687 1.027344-5.777343l33.414062-24.863282-38.492187 22.183594c-1.976563 1.121094-4.480469.5-5.703125-1.414062-1.222656-1.914063-.726563-4.453126 1.121094-5.769532l14.113281-9.925781-16.894531 9.753906c-1.980469 1.136719-4.5.515625-5.726563-1.410156-1.222656-1.925781-.714844-4.472656 1.152344-5.78125l9.777343-6.828125-19.523437 11.273438c-1.9375 1.117187-4.410156.546874-5.664063-1.308594-1.25-1.851563-.863281-4.355469.894532-5.742188l46.371094-36.316406-87.792969 50.789062c-1.996094 1.253907-4.628907.652344-5.882813-1.34375-1.253906-1.996093-.652344-4.628906 1.34375-5.882812l37.300782-25.371094-38.8125 22.410156c-1.980469 1.152344-4.519532.535157-5.75-1.402343-1.226563-1.9375-.703126-4.5 1.1875-5.800781l47.351562-32.691407-48.136719 27.792969c-2.003906 1.242188-4.632812.625-5.875-1.375-1.242187-2.003906-.625-4.636719 1.375-5.875l23.410157-15.515625c-1.8125.507813-3.746094-.214844-4.78125-1.785156-1.234376-1.910157-.75-4.457031 1.101562-5.785157l44.375-31.820312-25.132812 14.472656c-1.960938 1.105469-4.441407.5-5.671876-1.386718-1.226562-1.882813-.78125-4.398438 1.023438-5.746094l36.828125-26.949219-35.796875 20.683594c-1.953125 1.105469-4.425781.507812-5.660156-1.367188-1.234375-1.871093-.808594-4.378906.976562-5.738281l51.632813-38.519531-51.695313 29.867187c-1.972656 1.121094-4.480468.496094-5.703125-1.417968-1.21875-1.914063-.726562-4.449219 1.121094-5.769532l51.753906-36.324218-62.375 36.019531c-2.019531 1.21875-4.640625.570312-5.859375-1.449219-1.21875-2.015625-.570312-4.636719 1.445313-5.855469l160.972656-101.683593-179.089844 103.398437c-2.019531 1.152344-4.59375.46875-5.78125-1.53125-1.1875-2.003906-.550781-4.585937 1.429688-5.808594l73.847656-45.140625-82.722656 47.785156c-2.023438 1.210938-4.644531.550782-5.851563-1.476562-1.210937-2.023438-.550781-4.644531 1.476563-5.851562l123.050781-75.949219-121.089844 69.90625c-1.6875.96875-3.8125.675781-5.171875-.714844-1.363281-1.390625-1.609375-3.523437-.605469-5.191406l5.386719-8.882813c-1.808593.359375-3.644531-.457031-4.582031-2.039062-1.179688-2.039063-.480469-4.648438 1.558594-5.828125l12.953125-7.472657c1.6875-.96875 3.816406-.675781 5.175781.714844s1.609375 3.523438.601562 5.1875l-5.117187 8.484375 358.089844-206.738281c2.027343-1.207031 4.644531-.542969 5.851562 1.480469 1.207031 2.023437.542969 4.644531-1.480469 5.847656l-123.078124 75.949219 129-74.460938c2.023437-1.152344 4.59375-.472656 5.78125 1.527344 1.1875 2.003906.550781 4.589844-1.429688 5.808594l-73.933594 45.167968 67.175782-38.75c2-1.070312 4.492187-.386718 5.664062 1.558594 1.171875 1.945313.617188 4.464844-1.261719 5.738282l-196.402343 124.066406c1.445312.585937 2.457031 1.914062 2.632812 3.464844.179688 1.550781-.503906 3.074218-1.78125 3.976562l-51.777344 36.300781 30.445313-17.570312c1.953125-1.105469 4.425781-.507813 5.660156 1.367187 1.234375 1.871094.808594 4.378906-.976563 5.738282l-51.617187 38.488281 41.292969-23.835938c1.960937-1.105469 4.441406-.5 5.671875 1.386719s.78125 4.402344-1.019531 5.75l-36.847657 26.964844 31.574219-18.21875c1.964844-1.113282 4.457031-.5 5.683594 1.402344 1.222656 1.898437.753906 4.421874-1.070313 5.757812l-44.371093 31.808594 41.589843-24.003906c1.992188-1.097657 4.492188-.441407 5.691407 1.488281 1.195312 1.933593.667968 4.464843-1.203126 5.757812l-21.742187 14.414063 20.71875-11.949219c1.980469-1.117187 4.488281-.484375 5.703125 1.433594 1.214844 1.921875.710938 4.460937-1.144531 5.769531l-47.386719 32.707031 48.296875-27.867187c1.988281-1.152344 4.53125-.527344 5.753906 1.417968 1.222657 1.945313.6875 4.507813-1.210937 5.800782l-37.265625 25.308594 39.082031-22.570313c1.941406-1.148437 4.445312-.585937 5.707031 1.28125 1.265625 1.871094.855469 4.402344-.9375 5.777344l-46.351562 36.300781 53.46875-30.867188c1.976562-1.132812 4.5-.511718 5.722656 1.414063 1.226563 1.921875.71875 4.46875-1.148437 5.78125l-9.710938 6.773437 13.429688-7.746093c1.976562-1.121094 4.484374-.5 5.703124 1.414062 1.222657 1.917969.730469 4.453125-1.121093 5.769531l-14.148438 9.949219 19.140625-11.050781c1.960938-1.136719 4.464844-.546875 5.710938 1.34375s.796875 4.425781-1.023438 5.773438l-33.433594 24.851562 44.976563-25.96875c1.953125-1.101562 4.425781-.503906 5.660156 1.367188 1.234375 1.871093.808594 4.382812-.972656 5.742187l-44.777344 33.449219 65.453125-37.785156c1.964844-1.113282 4.460938-.496094 5.683594 1.402343 1.226562 1.898438.757812 4.425781-1.066406 5.757813l-64.324219 46.15625 279.574219-161.40625c2.019531-1.097656 4.542968-.402344 5.710937 1.574218 1.171875 1.976563.566407 4.523438-1.367187 5.761719l-5.417969 3.285157 13.195313-7.609376c2.007812-1.128906 4.546874-.453124 5.738281 1.519532 1.1875 1.972656.597656 4.53125-1.335938 5.785156l-167.5625 105.078125 174.660157-100.847656c1.308593-.785157 2.933593-.816407 4.269531-.078125 1.332031.738281 2.171875 2.132812 2.199219 3.65625.03125 1.523437-.757813 2.949218-2.066407 3.734375l-338.15625 211.679687c-.339843.945313-1.003906 1.738282-1.878906 2.234375l-21.945313 12.671875c-.648437.382813-1.382812.589844-2.136718.597656zm0 0"/><path d="m63.292969 223.046875c-1.898438.003906-3.570313-1.25-4.101563-3.070313-.53125-1.824218.203125-3.777343 1.808594-4.796874l70.535156-44.808594-61.695312 35.617187c-2.011719 1.148438-4.566406.484375-5.765625-1.492187-1.199219-1.980469-.601563-4.554688 1.34375-5.804688l56.320312-35.890625-48.382812 27.9375c-2.003907 1.199219-4.597657.566407-5.824219-1.417969-1.226562-1.988281-.628906-4.589843 1.34375-5.84375l88.652344-58.308593-92.210938 53.25c-2.003906 1.070312-4.492187.382812-5.664062-1.558594-1.171875-1.945313-.617188-4.464844 1.261718-5.738281l25.964844-16.332032-28.832031 16.621094c-1.914063 1.109375-4.351563.574219-5.625-1.230468-1.273437-1.804688-.960937-4.285157.726563-5.714844l7.441406-6.296875-10.242188 5.886719c-1.914062 1.113281-4.359375.578124-5.632812-1.234376-1.273438-1.808593-.949219-4.292968.746094-5.71875l2.277343-1.910156-4.128906 2.371094c-1.832031 1.035156-4.144531.582031-5.449219-1.066406-1.304687-1.648438-1.214844-4.003906.214844-5.546875l9.15625-9.71875-9.179688 5.296875c-1.785156 1.035156-4.054687.648437-5.390624-.921875-1.335938-1.570313-1.359376-3.871094-.054688-5.46875l10.136719-12.355469c-.332031-.296875-.621094-.640625-.851563-1.023438-1.179687-2.042968-.480468-4.652343 1.5625-5.828124l9.835938-5.683594c1.785156-1.03125 4.050781-.640625 5.386718.929687 1.335938 1.566407 1.359376 3.863281.058594 5.460938l-4.8125 5.886719 14.257813-8.226563c1.832031-1.035156 4.144531-.582031 5.449219 1.066406 1.304687 1.652344 1.214843 4.007813-.214844 5.546875l-9.125 9.722656 20.226562-11.675781c1.910156-1.105469 4.351563-.570312 5.625 1.234375 1.273438 1.804688.957032 4.285156-.726562 5.710938l-2.289063 1.9375 10.171875-5.878906c1.914063-1.132813 4.378906-.601563 5.660156 1.214843 1.28125 1.820313.949219 4.320313-.761718 5.742188l-7.441406 6.289062 182.683593-105.464843c2-1.070313 4.488281-.386719 5.664063 1.558593 1.171875 1.941407.617187 4.464844-1.261719 5.738281l-25.867187 16.261719 23.894531-13.789062c2-1.136719 4.539062-.484375 5.742187 1.472656 1.207032 1.957031.644532 4.515625-1.269531 5.789063l-88.621094 58.300781 90.746094-52.394531c2.015625-1.222657 4.636719-.582032 5.863281 1.433593 1.222656 2.015625.578125 4.640625-1.433594 5.863281l-56.476562 35.96875 67.03125-38.691406c2.015625-1.222656 4.640625-.582031 5.863281 1.433594 1.222657 2.015625.578125 4.640625-1.433593 5.863281l-70.46875 44.765625 82.515624-47.644531c1.324219-.839844 3-.886719 4.367188-.125 1.371094.765625 2.210938 2.21875 2.1875 3.785156-.019531 1.566407-.898438 2.996094-2.289062 3.722657l-257.066407 148.421874c-.648437.375-1.382812.570313-2.132812.570313zm0 0"/><path d="m226.65625 60.761719c-1.792969-.007813-3.390625-1.128907-4-2.816407-.609375-1.683593-.101562-3.570312 1.269531-4.71875l9.546875-7.964843-.894531.523437c-1.871094 1.144532-4.308594.683594-5.632813-1.066406-1.320312-1.753906-1.101562-4.222656.511719-5.710938l9.710938-9.25-.714844.402344c-1.75 1.003906-3.964844.648438-5.308594-.855468-1.34375-1.496094-1.457031-3.730469-.273437-5.359376l4.558594-6.261718c-.632813-.371094-1.15625-.90625-1.519532-1.542969-1.179687-2.042969-.480468-4.652344 1.5625-5.828125l9.972656-5.734375c1.746094-1.003906 3.953126-.652344 5.300782.84375 1.34375 1.496094 1.460937 3.730469.28125 5.359375l-1.390625 1.910156 14.046875-8.097656c1.871094-1.144531 4.304687-.683594 5.628906 1.066406s1.101562 4.222656-.511719 5.707032l-9.726562 9.269531 13.234375-7.679688c1.914062-1.082031 4.335937-.527343 5.59375 1.273438 1.257812 1.800781.941406 4.261719-.730469 5.6875l-9.546875 7.964843 7.355469-4.269531c2.027343-1.058593 4.527343-.332031 5.671875 1.648438 1.144531 1.976562.523437 4.507812-1.40625 5.734375l-50.457032 29.191406c-.648437.378906-1.382812.578125-2.132812.574219zm0 0"/><path d="m117.300781 121.679688c-1.78125 0-3.375-1.101563-4-2.769532-.625-1.664062-.148437-3.546875 1.191407-4.714844l27.230468-23.78125-9.667968 5.570313c-1.84375 1.054687-4.183594.585937-5.484376-1.09375-1.300781-1.679687-1.167968-4.0625.3125-5.585937l15.285157-15.503907-14.132813 8.15625c-1.871094 1.144531-4.308594.683594-5.628906-1.066406-1.324219-1.75-1.101562-4.222656.511719-5.710937l7.859375-7.5-5.898438 3.414062c-1.75 1.015625-3.976562.660156-5.324218-.851562-1.347657-1.511719-1.449219-3.761719-.238282-5.386719l11.605469-15.554688-9.242187 5.332031c-1.320313.773438-2.957032.78125-4.285157.019532-1.328125-.761719-2.144531-2.179688-2.140625-3.710938s.828125-2.941406 2.160156-3.699218l27.183594-15.691407c1.753906-1.015625 3.980469-.660156 5.328125.851563 1.34375 1.511718 1.445313 3.761718.238281 5.386718l-11.605468 15.5625 18.773437-10.84375c1.871094-1.144531 4.308594-.683593 5.628907 1.066407 1.324218 1.75 1.105468 4.21875-.507813 5.707031l-7.859375 7.503906 10.628906-6.136718c1.847656-1.066407 4.199219-.605469 5.503906 1.082031 1.308594 1.683593 1.167969 4.074219-.324218 5.597656l-15.296875 15.507813 20.289062-11.691407c1.90625-1.109375 4.339844-.585937 5.621094 1.207031 1.28125 1.789063.988281 4.261719-.679687 5.703126l-27.238282 23.785156 50.457032-29.144532c1.324218-.839843 3-.886718 4.371093-.125 1.367188.765626 2.207031 2.21875 2.1875 3.785157-.023437 1.566406-.902343 2.996093-2.289062 3.722656l-88.371094 51.03125c-.652344.378906-1.394531.578125-2.152344.570313zm0 0"/></g><path d="m312.84375 322.671875c-1.8125.003906-3.425781-1.140625-4.027344-2.847656-.601562-1.710938-.058594-3.613281 1.355469-4.746094l26.734375-21.554687-1.28125.734374c-1.921875 1.113282-4.375.566407-5.644531-1.261718-1.265625-1.824219-.917969-4.316406.800781-5.726563l9.957031-8.226562c-1.886719.847656-4.105469.21875-5.273437-1.488281-1.164063-1.707032-.9375-4.003907.539062-5.449219l18.59375-18.5-11.207031 6.46875c-1.839844 1.050781-4.175781.585937-5.480469-1.085938-1.300781-1.675781-1.175781-4.050781.292969-5.578125l14.609375-15.019531-10.886719 6.28125c-1.886719 1.125-4.316406.640625-5.621093-1.125-1.308594-1.765625-1.0625-4.230469.566406-5.703125l7.160156-6.699219-4.632812 2.679688c-1.828126 1.058593-4.152344.625-5.472657-1.023438-1.320312-1.648437-1.234375-4.015625.199219-5.5625l12.007812-13.039062-11.445312 6.601562c-1.882812 1.113281-4.300781.617188-5.597656-1.140625-1.296875-1.753906-1.058594-4.210937.554687-5.683594l3.617188-3.3125-3.683594 2.125c-1.832031 1.0625-4.160156.621094-5.480469-1.035156-1.316406-1.652344-1.222656-4.023437.222656-5.570312l9.601563-10.308594-11.699219 6.75c-1.859375 1.058594-4.214844.578125-5.507812-1.125-1.296875-1.699219-1.128906-4.097656.386718-5.605469l5.65625-5.554687-8.140624 4.699218c-1.796876 1.042969-4.082032.640626-5.410157-.953124-1.332031-1.59375-1.324219-3.914063.015625-5.496094l11.011719-13.003906-17.988281 10.332031c-1.867188 1.105469-4.269532.636719-5.578125-1.09375-1.3125-1.730469-1.113281-4.167969.457031-5.664063l5.871094-5.691406-11.582032 6.691406c-1.902343 1.105469-4.335937.585938-5.617187-1.207031s-.988281-4.265625.679687-5.707031l.484376-.417969-6.144532 3.542969c-1.828125 1.035156-4.140625.582031-5.445312-1.066406-1.304688-1.652344-1.214844-4.003907.214844-5.546876l10.871093-11.539062-25.898437 15.003906c-1.894532 1.0625-4.285156.53125-5.554688-1.230468-1.265625-1.765626-1.007812-4.203126.605469-5.65625l7.339844-6.511719-29.371094 16.953125c-1.324219.84375-3 .890625-4.371094.125-1.367187-.761719-2.207031-2.214844-2.1875-3.78125.023438-1.566406.902344-2.996094 2.289063-3.722656l65.792968-37.980469c1.894532-1.078125 4.292969-.558594 5.570313 1.207031 1.273437 1.769531 1.015625 4.210938-.605469 5.667969l-7.3125 6.496093 14.722656-8.535156c1.828126-1.035156 4.140626-.582031 5.445313 1.066406 1.304687 1.648438 1.214844 4.003907-.214844 5.546876l-10.882812 11.546874 18.945312-10.933593c1.902344-1.085938 4.316407-.558594 5.589844 1.222656s.992187 4.234375-.648437 5.683594l-.476563.410156 3.410156-1.945313c1.867188-1.109374 4.269531-.636718 5.578125 1.089844 1.3125 1.730469 1.113282 4.167969-.457031 5.667969l-5.878906 5.699219 9.386719-5.394532c1.796874-1.027343 4.070312-.621093 5.398437.96875 1.324219 1.589844 1.320313 3.902344-.015625 5.484376l-11.101562 13.046874 16.070312-9.277343c1.859375-1.054688 4.210938-.574219 5.507812 1.125 1.292969 1.703125 1.128907 4.101562-.386718 5.609375l-5.660156 5.554687 7.230468-4.171875c1.828125-1.074218 4.167969-.636718 5.492188 1.019532 1.324218 1.660156 1.226562 4.039062-.230469 5.585937l-9.597656 10.308594 11.554687-6.675781c1.882813-1.109376 4.296875-.617188 5.597656 1.140624 1.296876 1.757813 1.058594 4.214844-.554687 5.6875l-3.59375 3.34375 3.105469-1.789062c1.824218-1.050781 4.140625-.613281 5.453125 1.03125 1.316406 1.640625 1.242187 3.992188-.179688 5.546875l-12.003906 13.046875 12.636719-7.296875c1.882812-1.109375 4.300781-.617187 5.597656 1.140625s1.058594 4.214844-.554688 5.6875l-7.125 6.671875 5.324219-3.070313c1.84375-1.050781 4.175781-.589843 5.480469 1.085938 1.304688 1.671875 1.179688 4.046875-.292969 5.578125l-14.625 15.035156 12.988281-7.492187c1.851563-1.03125 4.179688-.542969 5.464844 1.140625 1.285156 1.6875 1.136719 4.0625-.34375 5.574219l-18.605468 18.484374 15.15625-8.738281c1.917968-1.089843 4.351562-.535156 5.609374 1.277344 1.257813 1.8125.929688 4.285156-.761718 5.703125l-9.847656 8.140625 4.769531-2.75c1.925781-1.089844 4.367187-.523437 5.621093 1.304687 1.25 1.828126.894532 4.308594-.816406 5.710938l-26.742187 21.554688 20.195312-11.722657c2.039063-1.160156 4.632813-.457031 5.804688 1.574219s.488281 4.628906-1.535157 5.816406l-67.816406 39.148438c-.632812.386718-1.355468.597656-2.097656.613281zm0 0" fill="#cad0d7"/><path d="m249.191406 386.144531c-1.851562 0-3.496094-1.199219-4.058594-2.96875-.566406-1.765625.074219-3.695312 1.585938-4.769531l54.492188-38.734375-73.675782 42.511719c-1.878906 1.035156-4.230468.515625-5.5-1.214844-1.265625-1.730469-1.050781-4.132812.5-5.609375l13.59375-12.332031-24.609375 14.199218c-1.917969 1.097657-4.351562.554688-5.617187-1.253906s-.945313-4.285156.742187-5.707031l2.277344-1.914063-7.34375 4.269532c-1.757813 1-3.976563.628906-5.316406-.890625-1.335938-1.519531-1.421875-3.765625-.207031-5.382813l13.074218-17.1875-24.191406 13.96875c-1.882812 1.0625-4.257812.554688-5.539062-1.1875-1.277344-1.738281-1.054688-4.160156.519531-5.636718l3.242187-2.972657-5.972656 3.414063c-1.777344 1.007812-4.015625.613281-5.34375-.9375-1.328125-1.550782-1.371094-3.828125-.101562-5.425782l11.511718-14.277343-17.6875 10.238281c-1.808594 1.039062-4.101562.617188-5.421875-.996094-1.324219-1.613281-1.285156-3.945312.089844-5.511718l10.433594-11.804688-13.703125 7.910156c-1.84375 1.066406-4.183594.609375-5.496094-1.066406-1.308594-1.671875-1.183594-4.058594.289062-5.589844l8.382813-8.695312-10.039063 5.796875c-1.800781 1.027343-4.082031.605469-5.402343-.992188-1.320313-1.601562-1.296875-3.917969.054687-5.496093l12.433594-14.265626-13.988281 8.0625c-1.863281 1.089844-4.246094.617188-5.550781-1.105468-1.304688-1.71875-1.121094-4.140625.429687-5.644532l7.734375-7.507812-7.042969 4.0625c-1.890625 1.09375-4.308593.578125-5.589843-1.195312-1.28125-1.773438-1.015626-4.226563.617187-5.683594l3.789063-3.414063-1.707032.980469c-1.824218 1.050781-4.140625.613281-5.453125-1.03125-1.316406-1.640625-1.242187-3.992188.179688-5.546875l17.765625-19.371094-16.214844 9.386719c-1.902344 1.113281-4.34375.589844-5.625-1.207031s-.980469-4.273438.695312-5.710938l8.132813-7.058593-4.335937 2.484374c-1.929688 1.09375-4.378907.527344-5.628907-1.304687-1.253906-1.832031-.890625-4.320313.832031-5.71875l3.414063-2.75c-1.964844.589844-4.070313-.304687-5.011719-2.128906-.941406-1.820313-.453125-4.054688 1.164063-5.320313l6.757812-5.253906-.855469.460938c-1.988281 1.113281-4.5.46875-5.707031-1.46875-1.203125-1.933594-.675781-4.476563 1.203125-5.769532l55.320313-37.128906-47.90625 27.683594c-1.96875 1.125-4.476563.507812-5.703125-1.398438-1.226563-1.910156-.746094-4.445312 1.097656-5.769531l59.996094-42.667969-47.460938 27.402344c-1.96875 1.140625-4.488281.535156-5.726562-1.375-1.234375-1.914062-.75-4.460938 1.101562-5.785156l31.007813-22.28125-13.4375 7.765625c-1.957031 1.140625-4.464844.550781-5.710938-1.339844-1.246093-1.894531-.796875-4.429687 1.023438-5.777344l20.824219-15.511719c-1.019532-.914062-1.539063-2.257812-1.398438-3.617187s.921875-2.570313 2.105469-3.253906l38.058593-21.964844c1.957032-1.140625 4.464844-.550781 5.710938 1.34375 1.246094 1.890625.792969 4.425781-1.027344 5.773437l-.679687.511719 24.558593-14.15625c1.96875-1.140625 4.488282-.535156 5.722657 1.375 1.234375 1.914063.75 4.457031-1.097657 5.785157l-30.953124 22.226562 51.585937-29.78125c1.96875-1.121094 4.476563-.507812 5.703125 1.402344 1.226562 1.90625.746094 4.441406-1.09375 5.765625l-60.023438 42.667969 79-45.609376c1.988282-1.117187 4.503907-.46875 5.707032 1.464844 1.207031 1.9375.675781 4.476563-1.203125 5.769532l-105.027344 70.460937c1.214844 1.855469.804687 4.335937-.945313 5.699219l-10.402343 8.109375c1.789062.042969 3.363281 1.203125 3.933593 2.902343.574219 1.695313.023438 3.570313-1.375 4.691407l-6.441406 5.117187c1.734375.097656 3.238282 1.238282 3.800782 2.882813s.070312 3.464843-1.242188 4.601562l-8.175781 7.09375 1.707031-1.007812c1.820312-1.035157 4.125-.597657 5.4375 1.039062 1.3125 1.632813 1.242188 3.976563-.164062 5.53125l-17.738282 19.4375 13.566406-7.832031c1.890626-1.074219 4.289063-.554688 5.5625 1.207031 1.277344 1.761719 1.023438 4.199219-.585937 5.664063l-3.765625 3.367187.855469-.492187c1.863281-1.089844 4.246093-.617188 5.550781 1.105468 1.304688 1.71875 1.121094 4.140626-.433594 5.644532l-7.738281 7.523437 6.417969-3.703125c1.800781-1.027344 4.082031-.605468 5.402344.992188 1.320312 1.601562 1.296874 3.917968-.050782 5.496094l-12.425781 14.265624 14.105469-8.140624c1.839844-1.050782 4.167968-.589844 5.472656 1.074218 1.304688 1.667969 1.191406 4.039063-.269531 5.574219l-8.386719 8.703125 10.136719-5.855469c1.8125-1.046875 4.117187-.625 5.441406.992188 1.324219 1.621093 1.277344 3.960937-.105469 5.527343l-10.480468 11.792969 14.855468-8.574219c1.777344-1.007812 4.019532-.613281 5.347656.9375 1.328126 1.554688 1.367188 3.828126.097657 5.429688l-11.453125 14.242188 19.851562-11.460938c1.878906-1.0625 4.253906-.550781 5.535156 1.1875 1.277344 1.738281 1.054688 4.160156-.519531 5.636719l-3.234375 2.972656 8.847656-5.121094c1.761719-1 3.980469-.628906 5.316407.886719 1.335937 1.519531 1.421875 3.769531.207031 5.386719l-13.082031 17.183593 31.429687-18.132812c1.914063-1.097656 4.351563-.554688 5.617188 1.257812 1.265625 1.808594.941406 4.28125-.746094 5.707032l-2.269531 1.902344 16.691406-9.636719c1.878906-1.03125 4.230469-.511719 5.5 1.21875 1.265625 1.730469 1.050781 4.128906-.5 5.609375l-13.59375 12.382812 117.410156-67.78125c1.972657-1.125 4.476563-.507812 5.703125 1.398438 1.226563 1.910156.746094 4.445312-1.09375 5.769531l-54.460937 38.707031 40.960937-23.671875c1.976563-1.175781 4.53125-.574219 5.773438 1.359375 1.242187 1.9375.726562 4.511719-1.167969 5.816406l-21.253906 15.082032 3.863281-2.230469c1.324219-.839844 3-.886719 4.371094-.125 1.367187.765625 2.207031 2.21875 2.183594 3.785156-.019532 1.566407-.898438 2.996094-2.285157 3.722657l-82.714843 47.785156c-1.972657 1.140625-4.496094.527344-5.722657-1.390625-1.230469-1.921875-.734375-4.464844 1.121094-5.785157l21.179687-15.035156-40.351562 23.3125c-.65625.371094-1.398438.5625-2.152344.546875zm0 0" fill="#cad0d7"/><path d="m255.011719 344.3125c-1.847657.027344-3.5-1.136719-4.097657-2.886719-.597656-1.75 0-3.683593 1.476563-4.792969l34.085937-26.453124-52.003906 30.011718c-1.976562.996094-4.390625.316406-5.550781-1.570312-1.164063-1.882813-.691406-4.34375 1.085937-5.664063l.15625-.09375-6.179687 3.558594c-1.957031 1.121094-4.453125.523437-5.6875-1.367187-1.238281-1.886719-.789063-4.410157 1.019531-5.757813l55.988282-41.21875-67.550782 39c-1.972656 1.089844-4.453125.460937-5.664062-1.441406-1.210938-1.902344-.734375-4.417969 1.089844-5.746094l50.492187-35.292969-56.773437 32.777344c-1.972657 1.136719-4.492188.523438-5.722657-1.394531s-.734375-4.464844 1.125-5.78125l62.292969-44.179688-67.59375 38.980469c-1.972656 1.078125-4.445312.441406-5.648438-1.460938-1.203124-1.898437-.726562-4.40625 1.09375-5.730468l52.90625-36.582032-55.125 31.8125c-1.984374 1.097657-4.484374.449219-5.6875-1.472656-1.203124-1.925781-.6875-4.457031 1.171876-5.757812l37.496093-25.316406-37 21.332031c-1.96875 1.125-4.476562.511719-5.703125-1.398438-1.226562-1.910156-.746094-4.441406 1.09375-5.769531l57.617188-41.128906-55.746094 32.195312c-1.988281 1.152344-4.53125.527344-5.753906-1.417968-1.222656-1.945313-.6875-4.511719 1.214844-5.800782l28.535156-19.472656-24.152344 13.933594c-1.992188 1.15625-4.539062.519531-5.757812-1.433594s-.667969-4.519531 1.246093-5.800781l7.234375-4.855469-1.40625.808594c-1.960937 1.121094-4.453125.523437-5.691406-1.363282-1.234375-1.890624-.789062-4.414062 1.023438-5.761718l29.328124-21.574219-18.875 10.898437c-1.894531 1.078126-4.292968.554688-5.570312-1.210937-1.273438-1.765625-1.015625-4.207031.605469-5.667969l22.960937-20.480468c-1.839844-.1875-3.347656-1.539063-3.738281-3.34375-.386719-1.808594.433594-3.664063 2.03125-4.589844l30.722656-17.722656c1.871094-.984376 4.183594-.441407 5.429688 1.269531 1.242187 1.710937 1.046875 4.074219-.464844 5.554687l-20.070313 17.921875 49.261719-28.410156c1.960938-1.121094 4.453125-.523437 5.691407 1.367187 1.234374 1.886719.789062 4.414063-1.023438 5.761719l-29.34375 21.570313 43.066406-24.867188c1.292969-.808594 2.917969-.863281 4.265625-.148437 1.34375.714843 2.207031 2.09375 2.257813 3.617187.054687 1.523438-.707032 2.960938-2 3.769532l-7.339844 4.921874 13.984375-8.0625c1.984375-1.101562 4.480469-.460937 5.6875 1.457032 1.207031 1.914062.703125 4.441406-1.144531 5.753906l-28.425782 19.402344 34.433594-19.890625c1.96875-1.121094 4.472656-.507813 5.703125 1.398437 1.226563 1.910156.742188 4.445313-1.097656 5.769532l-57.640625 41.140624 65.390625-37.75c1.984375-1.101562 4.484375-.453124 5.683594 1.46875 1.203125 1.925782.6875 4.457032-1.171875 5.757813l-37.546875 25.34375 40.824219-23.570313c1.980468-1.117187 4.488281-.484374 5.703124 1.433594 1.214844 1.921875.710938 4.460938-1.144531 5.769532l-52.90625 36.566406 55.710938-32.171875c1.976562-1.136719 4.496093-.523438 5.726562 1.394531 1.226563 1.917969.734375 4.464844-1.125 5.78125l-62.292969 44.167969 63.238282-36.511719c1.980468-1.136719 4.5-.515625 5.726562 1.410156 1.222656 1.925782.714844 4.472656-1.152344 5.78125l-50.492187 35.285156 48.703125-28.03125c1.957031-1.121093 4.449219-.523437 5.6875 1.363282 1.238281 1.890625.789062 4.414062-1.019531 5.761718l-56.039063 41.242188 51.277344-29.601562c1.996094-1.1875 4.574219-.558594 5.800781 1.414062 1.226563 1.972656.648438 4.5625-1.296875 5.832031l-4.410156 2.949219c1.597656-.226562 3.183594.492188 4.070312 1.84375 1.25 1.863281.847657 4.375-.921874 5.753906l-34.09375 26.503906 20.0625-11.582031c1.925781-1.101562 4.378906-.546875 5.636718 1.285157 1.261719 1.828124.90625 4.316406-.8125 5.722656l-16.71875 13.507812c1.210938.828125 1.910156 2.222656 1.855469 3.6875-.058594 1.464844-.863281 2.800782-2.136719 3.53125l-30.652344 17.699219c-1.925781 1.105469-4.378906.546875-5.636718-1.28125-1.257813-1.832031-.902344-4.320313.816406-5.726563l4.617188-3.726562-26.472657 15.316406c-.652343.359375-1.386719.542969-2.132812.527344zm0 0" fill="#f4f6f8"/><path d="m464.871094 223.335938c-61.277344-40.105469 56.636718-70.3125 4.113281-104.957032-11.324219-7.476562-19.4375-3.046875-32.230469.613282-18.21875 5.214843-21.699218 10.8125-36.769531-5.394532-13.242187-14.234375-12.167969-20.855468-7.40625-37.546875 5.121094-17.78125 9.855469-23.824219-3.796875-36.0625-8.277344-9.597656-22.199219-11.976562-33.195312-5.671875-20.878907 10.597656-17.722657 36.035156-46.25 26.777344-33.699219-10.921875-12.246094-28.773438-29.320313-49.511719-19.789063-24.011719-46.039063-6.449219-52.710937 16.324219-5.488282 18.773438-1.417969 27.308594-23.722657 33.28125-18.832031 5.023438-21.949219-1.398438-34.277343-14.183594-9.515626-9.855468-13.65625-16.769531-27.25-16.109375-10.699219.519531-27.203126 11.800781-29.214844 22.824219-4.558594 25.019531 21.332031 35.5-.0625 59.734375-24.941406 28.246094-55.976563-20.691406-77.351563 17.117187-10.214843 18.007813-4.617187 21.863282 9.230469 35.234376 14.414062 13.910156 20.480469 14.183593 15.464844 37.625-3.894532 18.328124-9.507813 19.359374-25.601563 23.390624-11.28125 2.824219-24.746093 3.410157-31.035156 14.019532-6.761719 12.648437-3.4414062 28.324218 7.867187 37.144531 6.679688 4.984375 20.882813 3.847656 28.375 7.089844 16.160157 7 30.53125 25.765625 20.570313 45.46875-6.074219 12.046875-29.507813 19.011719-31.324219 33.773437-.042968 14.371094 9.113282 27.164063 22.734375 31.753906 14.796875 3.214844 31.46875-14.507812 45.363281-11.4375 18.601563 4.164063 24.832032 28.417969 23.738282 41.816407-.699219 8.53125-8.652344 18.847656-7.808594 27.261719 1.75 13.613281 12.71875 24.183593 26.386719 25.429687 12.191406 1.570313 15.90625-3.925781 24.335937-11.671875 5.027344-4.617188 14.4375-20.226562 21.402344-22.1875 16.476562-4.601562 33.183594 12.875 38.460938 23.746094 6.441406 13.296875 2.351562 27.792968 14.992187 36.421875 12.550781 4.808593 26.613281 3.582031 38.144531-3.320313 19.25-17.6875-1.632812-44.578125 30.914063-53.265625 32.34375-8.625 27.820312 25.070313 53.230469 30.722657 14.457031.621093 28.207031-6.289063 36.335937-18.261719 7.203125-15.183594-12.484375-33.375-10.09375-48.273438 2.917969-18.210937 22.800781-26.34375 35.882813-25.292969 9.316406.742188 19.480468 8.53125 28.867187 8.21875 14.941406-.082031 27.480469-11.289062 29.234375-26.128906 1.816406-19.910156-18.933594-22.914062-27.9375-38.53125-21.9375-38.066406 18.550781-46.820312 44.320312-53.273437 1.027344-.246094 1.984376-.707031 2.816407-1.355469l.148437-.058594c11.089844-6.914062 14.207032-29.226562 6.339844-39.742187-8.78125-11.714844-30.824219-6.289063-41.910156-13.550781zm-30.402344 98.773437c3.601562 16.214844 17.339844 19.335937 26.058594 32.734375 5.710937 8.753906 15.363281 16.800781-.296875 27.648438-8.875 6.128906-18.707031-.171876-30.113281-3.105469-24.507813-6.316407-55.980469 5.972656-55.375 36.992187.28125 14.574219 23.894531 47.667969-4.402344 50.847656-16.503906 1.851563-21.570313-21.828124-35.574219-28.6875-12.410156-6.085937-35.671875-.453124-46.003906 5.777344-12.246094 7.390625-12.226563 18.167969-15.480469 31.15625-2.773438 11.09375-5.375 42.035156-30.71875 16.851563-4.371094-4.351563-4.566406-20.667969-6.648438-26.589844-4.554687-12.9375-2.789062-13.859375-14.113281-22.261719-13.550781-9.3125-31.085937-10.539062-45.796875-3.199218-11.949218 7.226562-39.074218 53.867187-50.757812 13.402343-3.300782-11.425781 12.433594-29.070312 11.785156-41.179687-.855469-16-20.0625-34.902344-35.839844-36.839844-11.179687-1.382812-21.863281 7.230469-32.863281 7.972656-3.617187 1.5-7.398437 2.582032-11.261719 3.222656-9-5.957031-13.953125-16.414062-12.871094-27.152343 2.988282-9.003907 19.167969-15.914063 24.703126-23.773438 9.984374-13.953125 9.957031-32.71875-.066407-46.644531-9.488281-13.140625-18.875-9.820312-33.441406-15.46875-12.066406-4.667969-28.28125-6.085938-19.277344-26.453125 4.566407-10.351563 8.839844-9.019531 20.675781-11.949219 14.242188-3.558594 22.714844-3.710937 31.777344-15.503906 11.816406-13.171875 12.15625-33.019531.804688-46.589844-7.03125-9.710937-49.9375-41.277344-12.316406-49.496094 11.710937-2.558593 26.992187 11.476563 39.304687 10.957032 16.402344-2.675782 30.464844-13.1875 37.675781-28.160156 5.121094-15.4375-3.625-23.585938-5.121094-39.304688-1.003906-10.726562-1.707031-29.867188 18.21875-26.066406 6.09375 1.148437 16.632813 18.183594 21.402344 22.183594 9.414063 7.886718 21.683594 11.496093 33.867188 9.964843s23.179687-8.066406 30.347656-18.035156c6.40625-9.679687 4.605469-68.726563 35.839844-37.605469 8.738281 8.695313 3.089844 31.160156 10.90625 41.230469 13.726562 14.308594 34.558594 19.253906 53.253906 12.648437 11.742188-5.214843 18.894531-28.640624 30.847656-31.265624 16.941406-3.730469 20.121094 15.160156 19.558594 25.769531-.519531 9.761719-8.78125 19.917969-8.53125 29.679687 2.414062 19.324219 16.921875 34.941406 36.019531 38.773438 13.507813 1.289062 31.078125-14.769532 43.40625-11.367188 22.425781 6.207032 9.746094 27.929688 1.640625 38-4.402344 5.453125-15.273437 11.050782-18.210937 17.570313-5.824219 17.914062-.957031 37.578125 12.550781 50.707031 6.96875 3.074219 14.375 5.027344 21.949219 5.792969 4.882812.613281 9.671875 1.808593 14.269531 3.566406 6.277344 4.480469 18.335938 22.1875 7.320312 31.027344-26.207031 6.289062-68.402343 10.324219-59.101562 52.222656zm0 0" fill="#262626"/><path d="m237.613281 96.914062c5.164063-.519531 10.332031-.75 15.523438-.773437 3.066406.171875 6.058593-1.011719 8.183593-3.234375 1.5-2.382812-1.28125-3.21875-3.234374-3.210938-6.222657 0-12.425782.394532-18.613282 1.007813-1.988281.207031-6.730468 1.511719-7.089844 3.976563-.386718 2.628906 3.660157 2.390624 5.230469 2.234374zm0 0" fill="#262626"/><path d="m205.953125 103.402344c8.191406-2.953125.597656-5.785156-4.574219-3.925782-49.410156 17.226563-88.316406 55.964844-105.761718 105.300782-1.140626 3.21875 10.992187 1.75 12.28125-1.878906 15.855468-46.347657 51.941406-82.964844 98.054687-99.496094zm0 0" fill="#262626"/><path d="m88.101562 238.433594c-.570312 5.6875-.855468 11.375-.855468 17.066406 0 6.484375 12.503906 4.675781 12.527344-.921875.027343-5.597656.324218-11.390625.894531-17.066406.597656-6.367188-11.996094-4.660157-12.566407.921875zm0 0" fill="#262626"/><path d="m273.289062 412.050781c-5.6875.570313-11.375.855469-17.066406.855469-2.558594 0-6.519531 1.960938-6.824218 4.804688-.375 3.171874 3.359374 3.746093 5.632812 3.726562 5.6875 0 11.375-.285156 17.066406-.851562 2.558594-.257813 6.5-1.800782 6.824219-4.8125.324219-3.011719-3.34375-3.996094-5.632813-3.722657zm0 0" fill="#262626"/><path d="m403.089844 307.996094c-16.058594 46.316406-52.296875 82.824218-98.492188 99.226562-8.25 2.925782-.527344 5.121094 4.421875 3.328125 49.492188-16.886719 88.613281-55.375 106.308594-104.585937.972656-2.695313-11.015625-1.347656-12.238281 2.03125zm0 0" fill="#262626"/><path d="m411.480469 255.515625c0 5.691406-.285157 11.378906-.855469 17.066406-.628906 6.296875 11.949219 4.59375 12.519531-.953125.570313-5.691406.867188-11.378906.894531-17.066406-.007812-6.425781-12.535156-4.558594-12.558593.953125zm0 0" fill="#262626"/><path d="m389.222656 265.738281c2.886719-36.421875-9.539062-72.398437-34.285156-99.28125-24.746094-26.882812-59.574219-42.234375-96.109375-42.371093-64-.238282-123.5625 44.902343-135.289063 108.917968-14.890624 81.238282 48.445313 148.804688 127.222657 152.875h.078125c.289062 0 .570312.070313.851562.085938h.15625c.398438.0625.800782.085937 1.203125.078125 68.09375-3.082031 129.519531-48.957031 136.171875-120.304688zm-130.753906 114.28125c-55.851562-2.910156-104.859375-37.359375-120.097656-92.648437-19.941406-72.34375 28.339844-148.386719 104.4375-155.066406 160.425781-14.132813 183.46875 239.828124 15.660156 247.714843zm0 0" fill="#262626"/><path d="m256.871094 164.910156c-46.839844-.015625-86.402344 34.769532-92.378906 81.226563-6.078126 53.992187 37.289062 96.207031 89.050781 98.988281.148437-.011719.292969-.03125.4375-.058594.382812.070313.769531.113282 1.160156.117188 49.253906-2.644532 91.707031-38.945313 92.089844-90.527344-.578125-49.5625-40.792969-89.503906-90.359375-89.746094zm-.40625 170.589844c-37.492188-1.097656-69.542969-27.304688-78.066406-63.832031-5.136719-23.242188.410156-47.566407 15.117187-66.289063 14.710937-18.71875 37.03125-29.863281 60.832031-30.375 101.203125.769532 105.523438 154.480469 2.117188 160.496094zm0 0" fill="#262626"/></svg>