<svg height="510pt" viewBox="0 -2 510.39998 510" width="510pt" xmlns="http://www.w3.org/2000/svg"><path d="m79.042969 506.121094c-1.902344 0-3.574219-1.261719-4.101563-3.089844-.523437-1.832031.226563-3.785156 1.839844-4.796875l5.675781-3.539063-18.796875 10.820313c-2.007812 1.085937-4.511718.402344-5.691406-1.554687-1.175781-1.953126-.605469-4.488282 1.296875-5.75l39.25-24.636719-55.320313 31.941406c-2.015624 1.132813-4.570312.457031-5.753906-1.527344-1.1875-1.988281-.578125-4.558593 1.375-5.796875l12.222656-7.542968-25.761718 14.867187c-2.003906 1.121094-4.539063.453125-5.730469-1.507813-1.191406-1.964843-.617187-4.519531 1.300781-5.78125l113.203125-72.277343-123.972656 71.605469c-2.007813 1.144531-4.566406.484374-5.765625-1.496094-1.199219-1.976563-.601562-4.550782 1.34375-5.800782l116.113281-73.636718-111.769531 64.53125c-2.007812 1.105468-4.535156.425781-5.714844-1.542969-1.183594-1.96875-.59375-4.519531 1.328125-5.769531l70.828125-44.085938-66.433594 38.402344c-2.007812 1.175781-4.589843.527344-5.800781-1.460938-1.210937-1.992187-.601562-4.582031 1.367188-5.828124l110.710937-71.253907-106.285156 61.289063c-2.007812 1.125-4.550781.453125-5.738281-1.519532-1.191407-1.972656-.597657-4.535156 1.335937-5.785156l48.640625-30.601562-44.246093 25.566406c-2.011719 1.234375-4.644532.605469-5.878907-1.410156-1.234375-2.011719-.605469-4.644532 1.40625-5.878906l85.820313-56.320313-81.347656 46.933594c-1.984376 1.085937-4.472657.429687-5.667969-1.492188-1.195313-1.921875-.679688-4.441406 1.171875-5.742187l95.007812-63.410156-90.511718 52.28125c-2 1.101562-4.511719.433593-5.699219-1.515626-1.1875-1.949218-.632813-4.488281 1.261719-5.761718l53.121093-34.132813-48.640625 28.097657c-2.007812 1.179687-4.589844.527343-5.800781-1.460938s-.605469-4.582031 1.363281-5.824219l51.746094-33.230469-47.351562 27.308594c-2 1.117188-4.523438.457032-5.71875-1.496094-1.195313-1.953124-.636719-4.503906 1.265624-5.777343l67.300782-43.6875-62.847656 36.300781c-1.996094 1.082031-4.492188.410156-5.675782-1.527344s-.644531-4.460937 1.230469-5.746094l63.855469-41.351562-59.410156 34.296875c-1.996094 1.082031-4.492188.414063-5.675782-1.523437s-.644531-4.464844 1.230469-5.746094l61.796875-39.945313-57.351562 33.101563c-2 1.066406-4.492188.382812-5.664063-1.558594-1.171875-1.945312-.617187-4.464844 1.261719-5.738281l4.488281-2.832031h-.085937c-1.96875 1.078124-4.441407.449218-5.648438-1.445313-1.210938-1.894531-.742188-4.402344 1.066406-5.734375l75.503906-53.050781-70.921874 40.960937c-1.972657 1.042969-4.414063.386719-5.605469-1.5-1.1875-1.890625-.71875-4.375 1.074219-5.703125l35.710937-24.328125-31.179687 17.953125c-1.984376 1.132813-4.507813.503907-5.726563-1.425781-1.21875-1.933594-.699219-4.480469 1.179687-5.785156l20.085938-13.789063-15.539062 8.953125c-1.941407 1.085938-4.390626.5-5.628907-1.347656s-.847656-4.335938.894531-5.71875l31.085938-24.003906-26.351562 15.238281c-1.941407 1.09375-4.402344.507813-5.640626-1.347656-1.238281-1.851563-.839843-4.347657.914063-5.726563l9.964844-7.679687-5.238281 3.011719c-1.898438 1.015624-4.25.457031-5.492188-1.296876-1.242188-1.757812-.984375-4.160156.601562-5.613281l5.53125-4.667969-.640624.359376c-1.589844.921874-3.59375.71875-4.96875-.5-1.375-1.222657-1.816407-3.1875-1.089844-4.875l5.460937-12.742188c-1.78125.324219-3.578125-.496094-4.496093-2.054688-1.179688-2.039062-.484376-4.648437 1.554687-5.828124l9.625-5.53125c1.589844-.921876 3.59375-.71875 4.96875.5 1.375 1.222656 1.8125 3.1875 1.089844 4.875l-5.308594 12.355468 30.832031-17.800781c1.910156-1.105469 4.351563-.570313 5.625 1.234375 1.273438 1.804688.957032 4.285156-.726562 5.714844l-5.546875 4.683594 20.195312-11.65625c1.945313-1.117188 4.421875-.535157 5.671875 1.328124 1.246094 1.863282.839844 4.371094-.933594 5.746094l-9.949218 7.636719 25.53125-14.738281c1.941406-1.105469 4.410156-.527344 5.65625 1.328125s.847656 4.359375-.914063 5.738281l-31.128906 23.996094 53.871094-31.09375c1.984375-1.136719 4.507812-.503906 5.726562 1.425781 1.21875 1.933594.699219 4.480469-1.179687 5.785156l-20.035156 13.769531 36.394531-21.007812c1.984375-1.117188 4.496093-.476562 5.707031 1.449219 1.210938 1.929687.691406 4.46875-1.175781 5.769531l-35.703125 24.328125 54.714844-31.570313c1.976562-1.121093 4.484374-.5 5.703124 1.414063 1.222657 1.914063.730469 4.449219-1.121093 5.769531l-75.492188 53.078125 104.457031-60.316406c2.007813-1.125 4.550782-.453125 5.738282 1.519531 1.191406 1.972656.597656 4.535156-1.335938 5.785156l-4.480468 2.835938 17.066406-9.867188c1.996094-1.082031 4.492187-.414062 5.675781 1.523438s.644531 4.464844-1.230469 5.75l-61.761718 39.941406 57.335937-33.097656c1.996094-1.085938 4.488281-.414062 5.671875 1.523438 1.1875 1.9375.644531 4.460937-1.226562 5.746093l-63.90625 41.378907 59.46875-34.324219c1.992187-1.066407 4.472656-.398438 5.652343 1.53125 1.183594 1.925781.65625 4.441406-1.199219 5.730469l-67.300781 43.691406 62.847657-36.273438c2.007812-1.179687 4.589843-.527344 5.800781 1.460938 1.210937 1.988281.605469 4.582031-1.363281 5.824218l-51.789063 33.28125 47.351563-27.304687c2.007812-1.179687 4.589843-.527344 5.800781 1.460937 1.210937 1.988282.605469 4.582032-1.363281 5.824219l-53.027344 34.066407 48.589844-28.050782c1.984374-1.082031 4.472656-.429687 5.667968 1.492188 1.195313 1.921875.679688 4.445312-1.171875 5.746094l-95.019531 63.359374 96.539062-55.730468c1.992188-1.085938 4.480469-.421875 5.671876 1.507812 1.1875 1.929688.660156 4.453125-1.199219 5.746094l-85.90625 56.394531 109.105469-62.984375c2.007812-1.101562 4.523437-.425781 5.707031 1.53125 1.183593 1.957032.613281 4.5-1.292969 5.765625l-48.445312 30.488281 65.578124-37.863281c2.011719-1.226562 4.640626-.589843 5.867188 1.421875 1.226562 2.011719.59375 4.640625-1.421875 5.867188l-110.746094 71.261718 136.226563-78.652343c2.023437-1.210938 4.644531-.558594 5.859375 1.464843 1.214843 2.019532.558593 4.644532-1.464844 5.859376l-70.757813 44.03125 66.5625-38.402344c1.996094-1.054688 4.472657-.367188 5.640626 1.5625 1.171874 1.933594.632812 4.445312-1.230469 5.726562l-116.207031 73.675782 111.785156-64.519532c2.007812-1.121094 4.539062-.453125 5.730468 1.507813 1.191407 1.960937.617188 4.515625-1.300781 5.78125l-113.261719 72.300781 108.824219-62.820312c2.011719-1.09375 4.527344-.402344 5.699219 1.5625 1.171875 1.964843.585938 4.503906-1.328125 5.757812l-12.152344 7.507812 7.78125-4.496093c2.015625-1.160157 4.589844-.496094 5.789063 1.5 1.199218 1.992187.578125 4.578125-1.394532 5.8125l-39.253906 24.636719 34.878906-20.128907c2.007813-1.109375 4.535157-.425781 5.714844 1.542969 1.183594 1.964844.59375 4.515625-1.332031 5.769531l-5.5625 3.472657 1.179687-.675782c2-1.070312 4.488282-.382812 5.664063 1.558594 1.171875 1.945312.617187 4.464844-1.261719 5.738281l-9.839844 6.195313 5.4375-3.132813c1.980469-1.085937 4.464844-.4375 5.664063 1.476563 1.199219 1.914062.699219 4.433594-1.144531 5.742187l-72.257813 48.921875 67.738281-39.097656c1.980469-1.074219 4.457032-.417969 5.648438 1.496094 1.191406 1.910156.691406 4.421875-1.144531 5.730468l-41.394531 27.714844 36.839843-21.261718c1.972657-1.121094 4.480469-.5 5.699219 1.414062 1.222656 1.914062.730469 4.449219-1.117188 5.769531l-41.183593 28.816407 36.601562-21.128907c1.9375-1.121093 4.417969-.550781 5.671875 1.308594 1.253906 1.855469.855469 4.371094-.914062 5.75l-41.964844 32.871094 37.207031-21.472657c1.902344-1.078124 4.320313-.539062 5.585938 1.246094 1.265625 1.789063.972656 4.246094-.679688 5.683594l-25.472656 21.863281 20.566406-11.871093c1.898438-1.089844 4.320313-.558594 5.59375 1.222656 1.273438 1.785156.988281 4.246094-.664062 5.691406l-6.492188 5.632812 1.5625-.855468c1.730469-.996094 3.921875-.65625 5.273438.820312 1.347656 1.472656 1.492187 3.6875.347656 5.324219l-5.195313 7.414063c2.070313-.894532 4.480469-.019532 5.5 1.996093 1.015626 2.011719.289063 4.472657-1.660156 5.609375l-16.214844 9.386719c-1.730468.988281-3.914062.648437-5.261718-.824219-1.347656-1.46875-1.496094-3.675781-.359375-5.3125l5.117187-7.355468-23.320312 13.398437c-1.902344 1.089844-4.320313.5625-5.59375-1.222656-1.273438-1.785157-.988282-4.246094.660156-5.691407l6.503906-5.632812-21.75 12.546875c-1.90625 1.078125-4.324218.542969-5.589844-1.246094-1.265624-1.789062-.972656-4.246093.679688-5.683593l25.457031-21.855469-49.859375 28.785156c-1.941406 1.113281-4.410156.546875-5.664062-1.308594-1.253906-1.851562-.863282-4.355469.894531-5.742187l41.972656-32.878906-69.171875 39.929687c-1.96875 1.082031-4.4375.449219-5.648437-1.445313-1.210938-1.894531-.742188-4.402343 1.066406-5.730468l41.199219-28.828125-62.378906 36.003906c-1.980469 1.070313-4.457032.414063-5.648438-1.496094-1.191406-1.914062-.691406-4.425781 1.144531-5.734375l41.367188-27.738281-60.585938 34.984375c-1.984375 1.117188-4.492187.476562-5.703125-1.449219-1.210937-1.929687-.695312-4.46875 1.171875-5.769531l72.253907-48.921875-97.222657 56.125c-2.003906 1.101563-4.523437.425781-5.707031-1.53125s-.609375-4.503906 1.296875-5.765625l9.769531-6.144531-23.296875 13.441406c-.644531.386719-1.378906.59375-2.132812.605469zm0 0" fill="#4a88da"/><path d="m316.03125 301.320312c-1.898438 0-3.574219-1.253906-4.101562-3.082031-.527344-1.824219.214843-3.78125 1.824218-4.792969l.160156-.105468-12.796874 7.398437c-1.992188 1.117188-4.503907.472657-5.710938-1.464843-1.203125-1.933594-.675781-4.476563 1.203125-5.769532l93.015625-62.011718-119.964844 69.222656c-1.992187 1.070312-4.472656.398437-5.652344-1.527344-1.183593-1.929688-.65625-4.445312 1.199219-5.734375l99.261719-64.503906-124.359375 71.765625c-2 1.097656-4.507813.429687-5.699219-1.519532-1.1875-1.945312-.628906-4.484374 1.261719-5.757812l113.273437-72.75-132.496093 76.484375c-2.003907 1.121094-4.535157.453125-5.730469-1.507813-1.191406-1.960937-.617188-4.515624 1.300781-5.777343l119.046875-75.675781-116.265625 67.125c-2.011719 1.089843-4.523437.398437-5.699219-1.566407-1.171874-1.964843-.585937-4.503906 1.332032-5.753906l49.492187-30.628906-45.125 26.0625c-2 1.097656-4.511719.429687-5.699219-1.519531-1.1875-1.949219-.632812-4.488282 1.261719-5.761719l138.777344-89.179688-134.339844 77.558594c-2.003906 1.101563-4.523437.425781-5.707031-1.53125s-.613281-4.5 1.296875-5.765625l116.605469-73.949219-112.203125 64.761719c-2.003907 1.117188-4.535157.453125-5.726563-1.511719-1.195312-1.960937-.621094-4.515625 1.296875-5.777343l131.414063-84.027344-126.984375 73.292968c-2.007813 1.148438-4.566407.484376-5.765625-1.496093-1.199219-1.976563-.601563-4.550781 1.34375-5.800781l123.300781-78.507813-118.878906 68.652344c-2.015625 1.160156-4.589844.496093-5.789063-1.5-1.199218-1.992188-.578125-4.578125 1.394532-5.8125l95.359374-59.90625-90.964843 52.515625c-1.996094 1.082031-4.492188.414062-5.675781-1.523438-1.183594-1.9375-.644532-4.464844 1.230468-5.746094l127.503906-82.585937-123.058593 71.023437c-2 1.097657-4.511719.429688-5.699219-1.519531s-.632812-4.488281 1.261719-5.761719l88.550781-56.875-84.113281 48.554688c-1.992188 1.136719-4.527344.492188-5.734375-1.457031-1.210938-1.949219-.664063-4.503907 1.238281-5.785157l97.6875-65.109374-93.167969 53.757812c-1.980468 1.085938-4.464844.441406-5.664062-1.476562-1.199219-1.914063-.699219-4.433594 1.144531-5.742188l77.882813-52.648438-73.386719 42.339844c-1.972657 1.109375-4.464844.484375-5.683594-1.417968-1.21875-1.90625-.738281-4.433594 1.09375-5.757813l68.375-48.195313-63.785156 36.828126c-1.957031 1.140624-4.464844.550781-5.710938-1.339844-1.246093-1.894532-.792969-4.429688 1.027344-5.777344l53.921875-40.105469-49.238281 28.417969c-1.964844 1.085938-4.4375.460938-5.652344-1.425781-1.214844-1.890625-.757813-4.398438 1.042969-5.734375l18.585937-13.238282-13.976562 8.066407c-1.914063 1.09375-4.34375.550781-5.609375-1.253907-1.265625-1.804687-.949219-4.273437.726562-5.703124l25.832032-21.664063-20.949219 12.074219c-1.878907 1.019531-4.21875.496094-5.480469-1.230469-1.261719-1.722656-1.054688-4.117187.488281-5.597656l10.238281-9.222657-5.238281 3.019532c-1.601562.925781-3.613281.714844-4.988281-.523438-1.371094-1.234375-1.792969-3.214844-1.042969-4.902344l5.222657-11.707031c-1.710938.207031-3.382813-.613281-4.269532-2.089843-.566406-.984376-.722656-2.148438-.429687-3.246094.292969-1.09375 1.011719-2.027344 1.992187-2.59375l9.589844-5.554688c1.601562-.921875 3.617188-.710937 4.988281.523438 1.375 1.234375 1.796875 3.214844 1.046875 4.90625l-5 11.21875 28.824219-16.648438c1.878906-1.019531 4.21875-.492187 5.480469 1.230469 1.261718 1.726563 1.054687 4.117187-.488282 5.597656l-10.238281 9.222657 27.886719-16.050782c1.910156-1.09375 4.34375-.550781 5.609375 1.253906 1.265625 1.804688.949219 4.273438-.730469 5.703126l-25.828125 21.707031 49.707031-28.664063c1.96875-1.125 4.476563-.507812 5.703126 1.398438 1.226562 1.910156.742187 4.445312-1.097657 5.769531l-18.628906 13.234375 35.398437-20.402344c1.957032-1.109375 4.4375-.511718 5.675782 1.367188 1.234375 1.878906.796875 4.394531-1 5.75l-53.90625 40.105468 81.757812-47.222656c1.972656-1.105468 4.464844-.484375 5.683594 1.421875s.742188 4.429688-1.089844 5.753907l-68.371094 48.164062 95.941407-55.339844c1.980469-1.085937 4.464843-.4375 5.664062 1.476563 1.203125 1.914062.699219 4.433593-1.140625 5.742187l-77.910156 52.617188 103.695312-59.835938c1.988282-1.113281 4.503907-.46875 5.710938 1.46875 1.203125 1.933594.675781 4.476563-1.203125 5.769532l-97.714844 65.117187 125.371094-72.355469c2-1.097656 4.511719-.429687 5.699219 1.519532 1.1875 1.949218.632812 4.484374-1.261719 5.761718l-88.527344 56.832032 111.105469-64.113282c1.996094-1.082031 4.492188-.414062 5.675781 1.523438 1.183594 1.9375.644531 4.464844-1.230469 5.746094l-127.488281 82.59375 144.941407-83.703126c2.015624-1.214843 4.640624-.5625 5.855468 1.457032 1.214844 2.019531.566406 4.640625-1.453125 5.859375l-95.308593 59.851562 91.476562-52.796875c2-1.082031 4.5-.40625 5.679688 1.539063 1.179687 1.945312.625 4.476562-1.261719 5.75l-123.296875 78.503906 118.878906-68.640625c1.996094-1.070312 4.480469-.390625 5.660156 1.542969 1.175782 1.9375.636719 4.453125-1.230468 5.734375l-131.414063 84.039062 126.984375-73.292968c1.996094-1.054688 4.472656-.371094 5.644531 1.5625 1.167969 1.933593.628907 4.441406-1.234375 5.722656l-116.617187 73.96875 112.214843-64.769532c2-1.097656 4.511719-.429687 5.699219 1.519532 1.1875 1.949218.632813 4.488281-1.261719 5.761718l-138.777343 89.179688 134.339843-77.558594c2.011719-1.089844 4.527344-.398437 5.699219 1.566406 1.171875 1.964844.585938 4.503907-1.328125 5.753907l-49.699218 30.722656 45.328124-26.15625c2-1.082031 4.5-.40625 5.679688 1.539063 1.183594 1.945312.628906 4.476562-1.257812 5.75l-118.949219 75.648437 114.570312-66.144531c2-1.097656 4.511719-.429688 5.699219 1.519531s.632812 4.488281-1.261719 5.761719l-113.273437 72.789062 108.835937-62.839844c2-1.117187 4.523438-.457031 5.71875 1.496094 1.195313 1.953125.636719 4.5-1.265625 5.773438l-99.25 64.511718 94.796875-54.722656c1.992188-1.132812 4.523438-.492187 5.734375 1.457032 1.210938 1.949218.664063 4.503906-1.238281 5.785156l-93.011719 62.003906 88.472656-51.105469c2.011719-1.125 4.550782-.453125 5.738282 1.519531 1.191406 1.972657.597656 4.535157-1.335938 5.785157l-3.359375 2.125c2.007813-.5 4.085938.515625 4.929688 2.40625.839843 1.894531.199219 4.117187-1.519531 5.273437l-37.476563 24.550782 33.007813-19.046876c1.976562-1.0625 4.441406-.40625 5.632812 1.5 1.191406 1.902344.699219 4.40625-1.121094 5.71875l-39.089844 26.367188 34.578126-19.957031c1.988281-1.179688 4.558593-.558594 5.789062 1.402343 1.230469 1.960938.671875 4.546876-1.257812 5.824219l-22.402344 15.191407 17.871094-10.308594c1.941406-1.09375 4.398437-.507813 5.640624 1.347656 1.238282 1.851562.839844 4.347656-.914062 5.726562l-38.605469 29.703126 33.878907-19.558594c1.914062-1.082032 4.34375-.53125 5.601562 1.277344 1.257812 1.804687.933594 4.273437-.746094 5.695312l-23.699218 19.625 18.84375-10.871094c1.882812-1.109375 4.296874-.617187 5.597656 1.140625 1.296875 1.757813 1.058594 4.210938-.554688 5.6875l-11.445312 10.777344 6.417968-3.695313c1.609376-.90625 3.617188-.671874 4.976563.578126 1.359375 1.246093 1.761719 3.226562.996094 4.910156l-4.929688 10.605468c1.628907-.089843 3.179688.726563 4.027344 2.125.566406.980469.722656 2.148438.429687 3.242188-.292968 1.09375-1.011718 2.027344-1.992187 2.59375l-9.582031 5.519531c-1.613282.910157-3.625.675781-4.984375-.574219-1.363281-1.253906-1.761719-3.238281-.992188-4.917968l4.628907-9.941406-26.746094 15.410156c-1.882813 1.125-4.3125.640625-5.621094-1.125-1.304688-1.761719-1.058594-4.230469.570312-5.703125l11.46875-10.757813-30.457031 17.585938c-1.914062 1.082031-4.339843.53125-5.601562-1.277344-1.257813-1.804688-.933594-4.273438.746093-5.695312l23.691407-19.625-46.140625 26.597656c-1.945313 1.117187-4.421875.535156-5.671875-1.328125-1.246094-1.863281-.839844-4.375.933593-5.746094l38.632813-29.621094-63.695313 36.695313c-1.984374 1.117187-4.492187.476562-5.703124-1.449219-1.210938-1.929687-.695313-4.46875 1.171874-5.769531l22.382813-15.191406-38.824219 22.410156c-1.980468 1.0625-4.441406.40625-5.632812-1.5-1.191406-1.902344-.703125-4.40625 1.117187-5.71875l39.074219-26.351563-58.179688 33.570313c-1.992187 1.082031-4.480468.421875-5.671874-1.507813-1.1875-1.929687-.660157-4.453125 1.199218-5.746093l37.496094-24.558594-55.117188 31.8125c-.644531.386718-1.378906.59375-2.132812.605468zm0 0" fill="#5e9cea"/><g fill="#262626"><path d="m508.800781 160.28125v-144.171875c.226563-.671875.199219-1.40625-.078125-2.0625-.109375-.273437-.308594-.488281-.425781-.753906l-.09375-.152344c-10.136719-20.582031-58.855469-10.445313-76.960937-10.445313h-173.289063c-19.847656 0-44.933594-6.824218-51.796875 15.71875-3.882812 12.707032 0 33.964844 0 47.011719v143.898438h-100.488281c-25.683594 0-65.355469-7.988281-90.078125.5625-20.480469 7.089843-14.15625 27.195312-14.15625 45.804687v208.914063c0 7.226562-3.226563 23.894531 0 30.617187 8.804687 18.40625 50.097656 9.523438 66.875 9.523438h153.601562c19.445313 0 49.851563 6.117187 68.683594-.851563 24.925781-9.191406 13.339844-56.175781 13.339844-77.117187v-125.003906h126.179687c19.984375 0 67.789063 10.53125 78.335938-12.324219 4.171875-9.042969.351562-27.78125.351562-37.613281zm-222.429687 339.175781c-9.660156 4.820313-35.304688 0-45.867188 0h-79.582031c-40.414063 0-91.253906 8.53125-130.800781 0-25.921875-5.597656-16.332032-36.480469-16.332032-60.238281v-157.011719c0-17.203125-.117187-34.40625 0-51.601562.113282-14.695313-3.121093-12.542969 9.25-15.964844 16.53125-4.574219 41.105469 0 58.214844 0h81.203125c6.902344 0 37.308594-2.878906 43.699219-.488281v22.433594c0 2.140624-.128906 4.53125-.289062 7.015624h-108.910157c-2.636719 0-13.988281 5.050782-8.023437 5.050782h116.566406c-2.09375 13.023437-1.871094 26.308594.65625 39.253906.890625 2.746094 2.34375 5.277344 4.265625 7.433594.347656.453125.746094.867187 1.1875 1.226562 11.015625 10.242188 32.425781 5.242188 48.332031 5.242188h31.625v175.546875c0 13.167969 3.046875 17.988281-5.195312 22.101562zm209.917968-211.542969c-4.964843 7.910157-14.359374 4.957032-24.429687 4.957032h-204.398437c-12.898438 1.574218-25.910157 2.03125-38.886719 1.367187-2.328125-.820312-4.511719-1.996093-6.476563-3.492187-6.390625-7.535156-6.527344-27.09375-5.511718-45.164063 1.621093-.992187 2.191406-1.835937.101562-1.921875.757812-12.457031 1.980469-23.96875 1.980469-29.976562v-149.230469c0-11.460937-4.429688-33.28125 0-43.863281 4.503906-10.707032 1.707031-6.46875 13.445312-8.949219 19.097657-4.039063 43.417969 0 62.910157 0h87.355468c16.664063 0 106.613282-10.769531 113.910156 5.589844v235.570312c0 7.414063 4.054688 28.613281 0 35.113281zm0 0"/><path d="m469.035156 37.035156h-17.066406c-2.5625 0-6.527344 1.96875-6.828125 4.796875-.375 3.171875 3.371094 3.703125 5.625 3.703125h17.066406c2.558594 0 6.527344-1.972656 6.824219-4.796875.378906-3.15625-3.367188-3.703125-5.621094-3.703125zm0 0"/><path d="m417.691406 36.503906h-119.46875c-7.253906 0-9.328125 9.59375-.957031 9.59375h119.46875c7.253906 0 9.328125-9.59375.957031-9.59375zm0 0"/><path d="m266.171875 38.433594h-17.066406c-3.054688-.117188-6.023438 1.007812-8.234375 3.113281-1.492188 2.289063 1.296875 2.621094 3.078125 2.621094h17.070312c3.050781.117187 6.019531-1.007813 8.234375-3.113281 1.507813-2.3125-1.28125-2.621094-3.082031-2.621094zm0 0"/><path d="m59.410156 241.757812h-17.066406c-2.5625 0-6.519531 2.003907-6.828125 4.863282-.367187 3.191406 3.335937 3.824218 5.648437 3.824218h17.066407c2.5625 0 6.519531-2.007812 6.828125-4.863281.367187-3.191406-3.335938-3.824219-5.648438-3.824219zm0 0"/></g></svg>