<svg height="506pt" viewBox="0 0 506.2875 506" width="506pt" xmlns="http://www.w3.org/2000/svg"><path d="m467.546875 254.667969c-1.714844.003906-3.265625-1.019531-3.9375-2.597657-.667969-1.578124-.328125-3.40625.863281-4.636718l11.019532-11.375-17 9.8125c-1.882813 1.148437-4.332032.667968-5.644532-1.105469-1.3125-1.769531-1.058594-4.25.585938-5.71875l12.601562-11.835937-17.527344 10.101562c-1.882812 1.09375-4.285156.59375-5.574218-1.15625-1.292969-1.75-1.058594-4.195312.539062-5.671875l11.726563-10.878906-16.332031 9.386719c-1.816407 1.046874-4.125.621093-5.445313-1.007813-1.324219-1.628906-1.265625-3.976563.136719-5.535156l17.765625-19.832031-25.820313 14.949218c-1.875 1.144532-4.308594.683594-5.632812-1.066406-1.324219-1.75-1.101563-4.21875.511718-5.707031l13.046876-12.484375-18.175782 10.496094c-1.871094 1.125-4.285156.65625-5.601562-1.082032-1.316406-1.742187-1.109375-4.195312.480468-5.6875l13.132813-12.609375-18.3125 10.570313c-1.875 1.007812-4.207031.476562-5.460937-1.242188-1.257813-1.722656-1.050782-4.105468.480468-5.582031l9.386719-8.457031-13.339844 7.679687c-1.902343 1.074219-4.3125.539063-5.578125-1.242187-1.269531-1.785156-.980468-4.238282.664063-5.679688l6.203125-5.339844-9.320313 5.375c-1.882812 1.164063-4.347656.695313-5.667969-1.085937-1.320312-1.78125-1.058593-4.273437.601563-5.742187l12.167969-11.503907-16.894532 9.804688c-1.882812 1.113281-4.300781.617187-5.601562-1.140625-1.296875-1.757813-1.058594-4.210938.558594-5.683594l11.382812-10.632812-15.933594 9.234374c-1.882812 1.089844-4.285156.59375-5.574218-1.160156-1.292969-1.75-1.058594-4.191406.539062-5.667968l11.09375-10.292969-15.546875 9.011719c-1.914062 1.132812-4.378906.605468-5.660156-1.214844-1.28125-1.820313-.949219-4.316406.761719-5.738282l4.335937-3.667968-7.066406 4.078125c-1.808594 1.035156-4.105469.609375-5.425781-1.003907-1.320313-1.617187-1.277344-3.949218.101562-5.515624l17.320313-19.578126-25.308594 14.601563c-1.894531 1.09375-4.308594.578125-5.589844-1.195313-1.28125-1.769531-1.015625-4.226562.617188-5.683593l8.472656-7.566407-12.160156 7.011719c-1.917969 1.085938-4.34375.53125-5.601563-1.273437-1.257812-1.808594-.9375-4.273438.746094-5.695313l1.84375-1.539062-4.132812 2.382812c-1.910157 1.09375-4.34375.550781-5.609376-1.253906-1.265624-1.804687-.949218-4.273437.730469-5.699219l3.414063-2.867187-5.976563 3.410156c-1.8125 1.039063-4.109375.609375-5.425781-1.015625-1.316406-1.621094-1.265625-3.957031.121094-5.519531l16.828125-18.773438-24.535157 14.15625c-1.828124 1.0625-4.15625.621094-5.476562-1.027343-1.316406-1.652344-1.226562-4.019532.210938-5.566407l16.070312-17.359375-23.1875 13.382813c-1.882812 1.144531-4.332031.664062-5.644531-1.105469-1.3125-1.773438-1.058594-4.253906.585937-5.722656l11.210938-10.566406-15.777344 9.105468c-1.894531 1.097656-4.316406.582032-5.597656-1.195312s-1.007813-4.238282.632812-5.691406l7.636719-6.78125-11.09375 6.417968c-1.816406 1.046875-4.128906.617188-5.449219-1.015625-1.316406-1.632812-1.253906-3.980469.148438-5.539062l16.367187-18.152344-25.394531 14.644531c-1.320312.839844-3 .886719-4.367188.125-1.367187-.765625-2.207031-2.214844-2.1875-3.785156.019532-1.566406.898438-2.996094 2.289063-3.722656l48.757813-28.160156c1.820312-1.046876 4.128906-.617188 5.449218 1.015624 1.320313 1.632813 1.257813 3.980469-.148437 5.539063l-16.367188 18.183594 23.953125-13.824219c1.894532-1.074219 4.292969-.554688 5.570313 1.210938 1.273437 1.765624 1.015625 4.210937-.605469 5.667968l-7.679688 6.828125 11.230469-6.476562c1.886719-1.148438 4.332031-.667969 5.644531 1.101562 1.3125 1.773438 1.058594 4.253907-.582031 5.722657l-11.179687 10.503906 15.871094-9.164063c1.828124-1.070312 4.167968-.640625 5.492187 1.015625s1.230469 4.035156-.21875 5.582032l-16.066406 17.355468 23.269531-13.429687c1.8125-1.035157 4.109375-.605469 5.425781 1.015625 1.320313 1.621094 1.269531 3.957031-.117187 5.519531l-16.820313 18.773437 24.652344-14.234374c1.914063-1.109376 4.359375-.574219 5.632813 1.238281 1.273437 1.808593.953124 4.292969-.742188 5.71875l-3.414062 2.867187 6.050781-3.492187c1.917969-1.101563 4.359375-.554688 5.625 1.257812 1.265625 1.816407.933593 4.296875-.761719 5.714844l-1.84375 1.527344 4.191406-2.40625c1.875-.996094 4.195313-.457031 5.445313 1.257812 1.25 1.714844 1.050781 4.089844-.472657 5.570313l-8.53125 7.59375 12.277344-7.082032c1.8125-1.039062 4.105469-.613281 5.425782 1.003907 1.320312 1.613281 1.277343 3.949219-.101563 5.515625l-17.3125 19.574218 25.523437-14.703124c1.910157-1.105469 4.351563-.570313 5.625 1.234374 1.273438 1.804688.957032 4.28125-.726562 5.710938l-4.316406 3.652344 7.125-4.105469c1.878906-1.089844 4.285156-.59375 5.574218 1.160156 1.292969 1.75 1.058594 4.191407-.542968 5.667969l-11.089844 10.308594 15.648438-9.035156c1.882812-1.109376 4.300781-.617188 5.597656 1.140624 1.300781 1.757813 1.058594 4.210938-.554688 5.683594l-11.367187 10.609375 16.019531-9.25c1.882812-1.148437 4.328125-.667969 5.644531 1.101563 1.3125 1.773437 1.058594 4.253906-.585937 5.722656l-12.167969 11.503906 17.066406-9.875c1.90625-1.117187 4.351563-.589844 5.632813 1.210938 1.28125 1.804687.972656 4.285156-.710938 5.71875l-6.226562 5.367187 9.4375-5.441406c1.875-1.007813 4.207031-.476563 5.464844 1.242187 1.253906 1.71875 1.050781 4.101563-.480469 5.582032l-9.386719 8.449218 13.40625-7.738281c1.867188-1.128906 4.285156-.660156 5.601562 1.078125 1.316407 1.742188 1.109376 4.195313-.484374 5.6875l-13.132813 12.613282 18.414063-10.632813c1.875-1.148437 4.308593-.683594 5.632812 1.066406s1.101562 4.21875-.511719 5.707031l-13.054687 12.484376 18.296875-10.554688c1.8125-1.035156 4.109375-.605469 5.425781 1.015625s1.265625 3.957031-.121094 5.519531l-17.765625 19.824219 25.957031-14.976563c1.882813-1.09375 4.285157-.59375 5.578126 1.15625 1.292968 1.753907 1.058593 4.195313-.542969 5.671876l-11.785157 10.878906 16.472657-9.488282c1.882812-1.128906 4.3125-.640624 5.621093 1.121094 1.304688 1.765625 1.058594 4.234375-.570312 5.703125l-12.605469 11.878907 11.734375-6.765626c1.839844-1.050781 4.171875-.589843 5.476563 1.082032 1.304687 1.667968 1.1875 4.042968-.28125 5.574218l-20.742188 21.433594c.074219.121094.152344.230469.222657.359375 1.175781 2.042969.476562 4.652344-1.5625 5.828125l-11.09375 6.402344c-.652344.363281-1.386719.550781-2.132813.542969zm0 0" fill="#eb5463"/><path d="m30 249.796875c-1.867188 0-3.515625-1.210937-4.074219-2.992187-.558593-1.78125.109375-3.71875 1.640625-4.78125l4.148438-2.875-5.273438 3.035156c-1.980468 1.121094-4.488281.488281-5.703125-1.433594-1.214843-1.917969-.710937-4.457031 1.144531-5.765625l70.929688-48.941406-76.191406 43.992187c-2.003906 1.140625-4.550782.480469-5.753906-1.484375-1.203126-1.96875-.625-4.535156 1.304687-5.796875l138.089844-88.847656-141.261719 81.554688c-2.007812 1.085937-4.511719.402343-5.6875-1.554688-1.179688-1.953125-.609375-4.488281 1.292969-5.75l78.839843-49.296875-32.214843 18.601563c-2.007813 1.085937-4.511719.402343-5.6875-1.554688-1.175781-1.953125-.605469-4.488281 1.292969-5.75l42.777343-26.683594c-1.800781-.191406-3.28125-1.5-3.699219-3.261718-.417968-1.761719.324219-3.59375 1.847657-4.574219l46.515625-29.863281c-1.789063-.195313-3.261719-1.488282-3.6875-3.238282-.421875-1.746094.292968-3.570312 1.792968-4.5625l43.605469-28.929687c-1.328125-.636719-2.238281-1.914063-2.398437-3.378907-.160156-1.464843.445312-2.910156 1.605468-3.820312l59.542969-46.875c-.550781-1.886719.261719-3.90625 1.964844-4.890625l16.210937-9.386719c1.9375-1.085937 4.382813-.511718 5.625 1.324219 1.246094 1.839844.875 4.324219-.851562 5.714844l-30.449219 24.066406 38.554688-22.265625c1.996093-1.15625 4.554687-.515625 5.769531 1.449219 1.214844 1.960937.644531 4.535156-1.28125 5.804687l-18.738281 12.449219 22.261719-12.882813c2.007812-1.179687 4.589843-.527343 5.800781 1.460938 1.210937 1.988281.605469 4.582031-1.363281 5.824219l-31.625 20.285156 35.550781-20.53125c2.015625-1.160156 4.589843-.496094 5.789062 1.5 1.199219 1.992187.578125 4.578125-1.394531 5.8125l-22.355469 13.945313 25.597657-14.796876c2.015624-1.164062 4.589843-.496093 5.789062 1.496094 1.199219 1.996094.578125 4.582032-1.394531 5.816406l-78.847657 49.289063 84.0625-48.511719c2.003907-1.140625 4.550782-.484375 5.75 1.484375 1.203126 1.964844.625 4.53125-1.304687 5.792969l-138.058594 88.824219 14.683594-8.472657c1.984375-1.15625 4.523437-.535156 5.75 1.402344s.703125 4.496094-1.183594 5.796875l-70.964843 48.964844 2.894531-1.707031c1.980469-1.152344 4.519531-.53125 5.75 1.40625 1.226562 1.9375.703125 4.496094-1.183594 5.796875l-36.15625 25.054687c.253906.253906.46875.539063.648437.851563 1.171876 2.039062.472657 4.644531-1.5625 5.820312l-52.34375 30.261719c-.648437.375-1.382812.574219-2.132812.578125zm0 0" fill="#eb5463"/><path d="m121.886719 502.589844c-1.90625.003906-3.582031-1.257813-4.109375-3.085938-.527344-1.832031.222656-3.789062 1.839844-4.800781l122.257812-76.441406-145.066406 83.746093c-2.019532 1.117188-4.554688.429688-5.734375-1.550781-1.175781-1.980469-.570313-4.539062 1.371093-5.777343l71.109376-43.519532-88.089844 50.824219c-2.011719 1.089844-4.523438.398437-5.699219-1.566406-1.171875-1.964844-.585937-4.503907 1.332031-5.757813l129.421875-79.878906-140.160156 80.9375c-2.015625 1.097656-4.539063.402344-5.707031-1.574219-1.171875-1.976562-.566406-4.523437 1.367187-5.765625l37.296875-22.578125-33.5 19.347657c-2.03125 1.199218-4.648437.523437-5.847656-1.503907-1.199219-2.027343-.527344-4.644531 1.503906-5.84375l25.128906-15.183593-20.796874 12c-2.007813 1.089843-4.523438.398437-5.695313-1.566407-1.171875-1.964843-.585937-4.503906 1.328125-5.757812l126.832031-78.027344-122.464843 70.707031c-2.023438 1.210938-4.644532.546875-5.851563-1.476562-1.210937-2.023438-.546875-4.644532 1.476563-5.851563l130.558593-80.605469-126.191406 72.855469c-2.007813 1.125-4.550781.453125-5.738281-1.519531-1.191406-1.972656-.597656-4.535156 1.335937-5.785156l168.617188-105.871094-164.222657 94.820312c-2.015624 1.164063-4.589843.496094-5.789062-1.496093-1.199219-1.996094-.578125-4.582031 1.394531-5.816407l155.203125-97.390624-150.816406 87.066406c-2.003906 1.070312-4.492188.382812-5.664062-1.558594-1.171876-1.945312-.617188-4.464844 1.261718-5.738281l149.757813-94.25-145.355469 83.914062c-2.015625 1.164063-4.589844.496094-5.789062-1.496093-1.199219-1.996094-.578126-4.582032 1.394531-5.816407l117.757812-73.496093-113.371093 65.457031c-2.011719 1.128906-4.550782.457031-5.742188-1.515625-1.1875-1.976563-.597656-4.535156 1.339844-5.785156l127.699218-80.367188-123.304687 71.175781c-2 1.066407-4.484375.390625-5.660156-1.542969-1.179688-1.9375-.636719-4.453124 1.230469-5.738281l144.347656-92.253906-139.929688 80.8125c-2.011718 1.089844-4.523437.398437-5.695312-1.566406-1.171875-1.964844-.585938-4.503907 1.328125-5.753907l37.195312-22.898437-32.828125 18.929687c-2.003906 1.140626-4.550781.480469-5.75-1.484374-1.203125-1.96875-.625-4.535157 1.304688-5.796876l136.089844-87.671874-131.617188 75.949218c-1.996094 1.070313-4.480469.390625-5.660156-1.542968-1.175782-1.9375-.636719-4.453126 1.230468-5.738282l115.113282-73.734375-110.726563 63.929688c-2.007812 1.074219-4.503906.382812-5.671875-1.570313-1.167968-1.953125-.597656-4.480468 1.292969-5.742187l27.308594-16.921875-22.929688 13.246094c-2.007812 1.085937-4.511719.402343-5.6875-1.554688-1.175781-1.953125-.605469-4.488281 1.292969-5.75l50.261719-31.445312-45.867188 26.453124c-2.011719 1.230469-4.636719.597657-5.867187-1.414062-1.230469-2.007812-.597656-4.636719 1.414062-5.867188l104.257813-67.609374-99.8125 57.660156c-1.988281 1.070312-4.464844.410156-5.652344-1.511719-1.1875-1.917969-.675781-4.433594 1.171875-5.730469l110.429688-72.894531-80.757813 46.617187c-1.996094 1.117188-4.515625.464844-5.714844-1.480468-1.199219-1.945313-.65625-4.488282 1.234375-5.769532l69-45.289062-10.027344 5.785156c-1.992187 1.15625-4.539062.523438-5.757812-1.433594-1.21875-1.953124-.667969-4.519531 1.242188-5.800781l45.65625-30.71875c-1.476563-.507812-2.554688-1.777343-2.820313-3.3125-.265625-1.535156.328125-3.09375 1.546875-4.0625l55.894531-44.542969c-.601562-1.90625.203125-3.976562 1.9375-4.976562l15.878907-9.199219c1.929687-1.09375 4.378906-.527343 5.628906 1.304688 1.253906 1.832031.890625 4.320312-.832032 5.71875l-28.597656 22.84375 36.449219-21.042969c1.984375-1.097656 4.480469-.453125 5.683594 1.472656 1.203125 1.925782.6875 4.453125-1.171875 5.753906l-28.015625 18.867188 32.230469-18.601562c1.992187-1.082032 4.484374-.421876 5.671874 1.507812 1.191407 1.929688.664063 4.453125-1.199218 5.746094l-68.941406 45.226562 75.09375-43.375c1.996093-1.113281 4.511718-.460937 5.714843 1.480469 1.199219 1.945313.65625 4.488281-1.234375 5.773437l-110.488281 72.949219 119.234375-68.835937c2.011719-1.230469 4.636719-.597656 5.867188 1.410156 1.230468 2.011719.597656 4.636719-1.414063 5.867188l-104.257813 67.601562 111.828126-64.5625c2.019531-1.214844 4.644531-.566406 5.859374 1.453125 1.214844 2.019531.5625 4.644531-1.457031 5.859375l-50.105469 31.328125 54.253907-31.3125c2.011719-1.105469 4.535156-.425781 5.71875 1.542969 1.179687 1.96875.589843 4.519531-1.332031 5.773437l-27.539063 17.066407 30.816406-17.792969c2.007813-1.175781 4.589844-.527344 5.800781 1.460937 1.210938 1.988282.605469 4.582032-1.363281 5.824219l-115.003906 73.644531 122.496094-70.722656c2-1.101562 4.511719-.433594 5.699219 1.515625s.632812 4.488281-1.261719 5.761719l-136.066407 87.707031 144.878907-83.628906c2.015625-1.113281 4.554687-.425781 5.734375 1.554687 1.175781 1.980469.570312 4.535156-1.371094 5.777344l-37.273438 22.9375 40.777344-23.554688c2.007813-1.117187 4.539063-.453124 5.730469 1.511719 1.191406 1.960938.617187 4.515625-1.300781 5.777344l-144.375 92.238281 152.976562-88.3125c2.003906-1.070312 4.492188-.386718 5.664063 1.558594 1.175781 1.941406.621093 4.464844-1.261719 5.738281l-127.75 80.410157 134.824219-77.851563c2.015625-1.160156 4.59375-.496094 5.789062 1.5 1.199219 1.992187.578125 4.578125-1.394531 5.8125l-117.714844 73.464844 124.039063-71.621094c2.019531-1.21875 4.640625-.570313 5.859375 1.445313 1.21875 2.019531.570312 4.640624-1.445313 5.859374l-149.839843 94.320313 157.730468-91.058594c2.007813-1.089843 4.511719-.40625 5.691406 1.550781 1.175782 1.953126.605469 4.488282-1.296874 5.75l-155.058594 97.273438 162.988281-94.082031c1.304687-.785157 2.933594-.816407 4.265625-.078125 1.335938.738281 2.175781 2.132812 2.203125 3.660156.027344 1.523438-.761719 2.945312-2.066406 3.734375l-168.765625 105.957031 177.128906-102.261718c1.308594-.785157 2.9375-.808594 4.269531-.066407 1.332031.746094 2.164063 2.140625 2.1875 3.667969.023438 1.523438-.769531 2.945312-2.078125 3.726562l-130.417968 80.511719 136.535156-78.832031c2.007812-1.058594 4.492187-.355469 5.65625 1.59375 1.160156 1.949219.589844 4.46875-1.296875 5.730469l-126.832031 78.035156 127.421874-73.589844c2.015626-1.097656 4.539063-.402343 5.710938 1.574219 1.167969 1.976562.5625 4.523438-1.367188 5.765625l-25.054687 15.136719 20.710937-11.945313c2.015626-1.097656 4.539063-.402343 5.710938 1.574219 1.167969 1.976562.5625 4.523438-1.367188 5.761719l-37.632812 22.769531 33.28125-19.210938c2.023438-1.207031 4.640625-.542968 5.847656 1.480469 1.207032 2.023438.542969 4.644531-1.480468 5.851563l-129.449219 79.929687 125.089843-72.214843c2.023438-1.152344 4.59375-.472657 5.78125 1.527343 1.1875 2.003907.550782 4.589844-1.429687 5.808594l-71.152344 43.519531 66.808594-38.5625c2.003906-1.054687 4.484375-.363281 5.648437 1.578125 1.164063 1.941407.613282 4.457031-1.261718 5.726563l-122.25 76.46875 117.863281-68.042969c2.011719-1.109375 4.535156-.425781 5.71875 1.542969 1.179687 1.964844.589844 4.515625-1.332031 5.769531l-91.683594 57.171875 87.296875-50.390625c2.007813-1.058594 4.492187-.355469 5.65625 1.59375 1.160156 1.949219.589844 4.46875-1.296875 5.730469l-15.683594 9.660156 11.324219-6.539062c2.023437-1.207032 4.644531-.542969 5.851563 1.480468 1.203124 2.027344.542968 4.644532-1.480469 5.851563l-13.09375 8.054687 8.722656-5.027344c2.007813-1.148437 4.566406-.484374 5.765625 1.496094 1.199219 1.976563.601562 4.550782-1.34375 5.800782l-75.949219 48.359374 71.5625-41.308593c1.996094-1.152344 4.546875-.511719 5.757813 1.449219 1.214844 1.960937.652344 4.527343-1.269532 5.800781l-95.617187 63.328125 91.09375-52.582032c1.992187-1.15625 4.539063-.519531 5.757813 1.433594s.667968 4.519532-1.242188 5.800782l-77.519531 52.054687 73.003906-42.148437c1.984375-1.132813 4.507813-.503907 5.726563 1.429687s.699218 4.480469-1.179688 5.78125l-64 44.101563 59.46875-34.339844c1.980469-1.117188 4.488281-.484375 5.703125 1.4375 1.21875 1.917968.714844 4.457031-1.144531 5.765625l-40.03125 27.613281 35.472656-20.480469c1.972656-1.140625 4.488281-.535156 5.726562 1.378907 1.234376 1.910156.75 4.457031-1.101562 5.78125l-32.425781 23.289062 27.785156-16.078125c1.917969-1.085937 4.351563-.535156 5.609375 1.277344s.929688 4.285156-.761719 5.703125l-32.332031 26.726562 27.476562-15.863281c1.867188-1.125 4.285157-.660156 5.601563 1.082031 1.316406 1.738282 1.109375 4.191406-.480469 5.683594l-17.707031 17.015625 12.621094-7.285156c1.820312-1.046875 4.132812-.613281 5.449219 1.023437 1.316406 1.640625 1.246093 3.992188-.167969 5.546875l-4.378907 4.785157c2.074219-.625 4.292969.402343 5.152344 2.394531.859375 1.988281.089844 4.308593-1.789062 5.390625l-22.714844 13.082031c-1.820312 1.046875-4.132812.613281-5.453125-1.023437-1.316406-1.632813-1.25-3.984376.160156-5.539063l4.121094-4.515625-19.199219 11.09375c-1.867187 1.125-4.285156.660156-5.601562-1.082031-1.316406-1.738281-1.109375-4.191407.480468-5.683594l17.707032-17.007813-41.15625 23.757813c-1.917969 1.109375-4.371094.566406-5.640625-1.257813-1.265625-1.824218-.917969-4.3125.796875-5.722656l32.304687-26.703125-58.351562 33.683594c-1.96875 1.140625-4.488281.535156-5.722657-1.378906-1.234374-1.910157-.75-4.457031 1.097657-5.78125l32.480469-23.296875-52.773438 30.457031c-1.972656 1.078125-4.445312.4375-5.648438-1.464844-1.203124-1.898437-.722656-4.40625 1.09375-5.730469l40.019532-27.621093-60.304688 34.816406c-1.976562 1.085937-4.460937.449219-5.664062-1.460937-1.207032-1.910157-.714844-4.425782 1.117187-5.742188l64-44.082031-88.839843 51.285156c-1.988282 1.132813-4.515626.496094-5.730469-1.445313-1.214844-1.941406-.679688-4.492187 1.207031-5.785156l77.558594-52.113281-102.785156 59.34375c-1.988282 1.097656-4.488282.441406-5.6875-1.488281-1.195313-1.933594-.667969-4.464844 1.199218-5.757813l95.574219-63.316406-122.195313 70.5625c-2.003906 1.082031-4.5.40625-5.683593-1.539063-1.179688-1.945312-.625-4.476562 1.261719-5.75l75.945312-48.324218-96.375 55.613281c-2.011719 1.089844-4.523438.398437-5.695312-1.566406-1.171876-1.964844-.585938-4.503907 1.328124-5.757813l13.148438-8.097656-26.726562 15.421875c-2.011719 1.089844-4.523438.398437-5.695313-1.566406-1.175781-1.964844-.585937-4.503907 1.328125-5.757813l15.65625-9.609375-29.34375 16.933594c-2.003906 1.054687-4.484375.363281-5.648438-1.578125-1.167968-1.941406-.613281-4.457031 1.261719-5.726562l91.742188-57.242188-111.839844 64.546875c-.632813.382813-1.355469.59375-2.097656.605469zm0 0" fill="#fab153"/><path d="m172.257812 502.769531c-1.816406-.003906-3.4375-1.15625-4.03125-2.875-.59375-1.714843-.035156-3.621093 1.394532-4.746093l42.15625-33.007813-66.628906 38.46875c-1.992188 1.132813-4.527344.488281-5.734376-1.457031-1.210937-1.949219-.664062-4.503906 1.238282-5.789063l5-3.328125-.503906.292969c-1.964844 1.144531-4.484376.546875-5.726563-1.359375s-.765625-4.453125 1.074219-5.785156l53.933594-39.253906-49.28125 28.449218c-1.984376 1.117188-4.496094.480469-5.707032-1.449218-1.207031-1.929688-.691406-4.464844 1.175782-5.769532l23.808593-16.210937-19.277343 11.09375c-1.984376 1.097656-4.484376.453125-5.6875-1.472657-1.199219-1.925781-.6875-4.453124 1.171874-5.757812l13.65625-9.164062-9.140624 5.28125c-1.972657 1.160156-4.507813.554687-5.746094-1.367188-1.238282-1.925781-.742188-4.480469 1.128906-5.800781l47.574219-34.011719-42.957031 24.839844c-1.96875 1.140625-4.488282.535156-5.722657-1.375-1.238281-1.914063-.753906-4.457032 1.097657-5.785156l49.109374-35.234376-44.484374 25.6875c-1.960938 1.132813-4.46875.535157-5.707032-1.363281-1.238281-1.894531-.777344-4.429687 1.046875-5.773437l56.320313-41.34375-51.667969 29.867187c-1.984375 1.117188-4.496094.476563-5.707031-1.449219-1.210938-1.929687-.691406-4.46875 1.175781-5.769531l24.558594-16.742187-20.027344 11.5625c-1.960937 1.105468-4.441406.5-5.671875-1.386719-1.230469-1.882813-.78125-4.398437 1.019531-5.746094l55.46875-40.636719-50.851562 29.355469c-1.960938 1.117188-4.457031.507813-5.6875-1.382812-1.230469-1.894531-.773438-4.417969 1.046875-5.761719l41.105468-29.96875-36.464843 21.054688c-1.972657 1.105468-4.464844.484374-5.683594-1.421876s-.738281-4.429687 1.09375-5.757812l10.007813-7.0625-5.417969 3.121094c-1.925781 1.105468-4.378907.546875-5.636719-1.28125-1.257812-1.832032-.902344-4.320313.816406-5.722656l19.625-15.925782-14.847656 8.535156c-1.808594 1.035157-4.105469.613282-5.425781-1.003906-1.316407-1.617187-1.277344-3.949218.101562-5.515625l14.257813-16.058593-8.855469 5.117187c-1.667969.964844-3.777344.691406-5.144531-.664063-1.367188-1.359374-1.652344-3.464843-.703125-5.136718l3.628906-6.382813c-1.742187-.34375-3.089844-1.734375-3.382813-3.484375-.292968-1.753906.53125-3.5 2.066407-4.394531l9.617187-5.546875c1.667969-.949219 3.761719-.671875 5.125.679688 1.359375 1.351562 1.652344 3.445312.714844 5.117187l-2.5625 4.574219 17.945312-10.359375c1.808594-1.027344 4.09375-.601563 5.410157 1.007812 1.316406 1.609375 1.28125 3.933594-.085938 5.5l-14.1875 16.011719 39.0625-22.519531c1.929688-1.105469 4.378907-.546875 5.636719 1.28125 1.261719 1.828125.90625 4.320312-.8125 5.722656l-19.695312 15.949219 39.773437-22.953125c1.972656-1.109375 4.464844-.484375 5.683594 1.417969 1.21875 1.90625.738281 4.429687-1.09375 5.757812l-9.992188 7.046875 24.644531-14.222656c1.964844-1.148438 4.484376-.550781 5.726563 1.355469 1.238281 1.90625.765625 4.453124-1.074219 5.785156l-41.105468 29.953125 49.492187-28.570313c1.960937-1.136718 4.46875-.539062 5.707031 1.355469 1.242188 1.898437.78125 4.4375-1.046875 5.777344l-55.46875 40.621093 50.851563-29.355468c1.984375-1.117188 4.496094-.476563 5.703125 1.449218 1.210937 1.929688.695312 4.46875-1.171875 5.769532l-24.636719 16.792968 20.121094-11.613281c1.960937-1.132812 4.46875-.535156 5.707031 1.359375 1.238281 1.898438.78125 4.433594-1.046875 5.773438l-56.320313 41.335937 51.679688-29.867187c1.964844-1.132813 4.472656-.527344 5.707031 1.375 1.238281 1.910156.761719 4.453125-1.082031 5.785156l-49.09375 35.234375 44.484375-25.675781c1.972656-1.160156 4.507813-.554688 5.746094 1.367187 1.238281 1.925781.742187 4.484375-1.128907 5.800781l-47.625 34.046876 43.023438-24.832032c1.988281-1.097656 4.484375-.453125 5.6875 1.472656 1.203125 1.925782.6875 4.453126-1.171875 5.753907l-13.585937 9.113281 9.089843-5.246094c1.984375-1.152344 4.53125-.527344 5.753907 1.417969 1.222656 1.945313.683593 4.507813-1.214844 5.800781l-23.808594 16.214844 19.277344-11.09375c1.960937-1.117188 4.457031-.511719 5.6875 1.382812 1.230468 1.894532.773437 4.417969-1.046875 5.757813l-53.945313 39.253906 49.328125-28.476562c1.296875-.800781 2.921875-.851563 4.265625-.132813s2.203125 2.101563 2.25 3.625c.046875 1.527344-.722656 2.960938-2.015625 3.761719l-4.890625 3.242187.410156-.238281c1.941407-1.125 4.417969-.554687 5.675782 1.304688 1.253906 1.859375.855468 4.375-.914063 5.753906l-42.171875 33.015625 37.425782-21.609375c1.9375-1.105469 4.398437-.539063 5.652343 1.308594 1.253907 1.84375.871094 4.34375-.871093 5.734375l-19.328126 15.230468 14.574219-8.40625c1.800781-1.027343 4.082031-.605468 5.402344.992188 1.320313 1.601562 1.296875 3.917969-.054687 5.496094l-16.210938 18.710937 10.90625-6.296875c1.464844-.847656 3.292969-.746094 4.65625.257813 1.367188 1 2.007812 2.714843 1.640625 4.367187l-2.5625 11.578125c1.535156.597657 2.589844 2.019531 2.714844 3.660157.125 1.636718-.707031 3.203124-2.132813 4.023437l-4.265625 2.464844c-1.46875.847656-3.300781.746093-4.664062-.257813-1.367188-1.003906-2.007813-2.722656-1.632813-4.375l2.125-9.449218-24.5 14.140624c-1.808594 1.050782-4.105468.636719-5.4375-.972656-1.328125-1.609375-1.296875-3.945312.078125-5.519531l16.210938-18.714844-43.78125 25.277344c-1.9375 1.109375-4.398438.539063-5.652344-1.308594-1.253906-1.84375-.871094-4.34375.871094-5.734375l19.3125-15.222656-38.65625 22.316406c-.65625.371094-1.402344.5625-2.160157.546875zm0 0" fill="#937661"/><path d="m252.121094 237.789062c-1.769532.003907-3.359375-1.085937-3.992188-2.742187-.632812-1.652344-.179687-3.527344 1.144532-4.707031l12.714843-11.363282-24.167969 13.949219c-1.921874 1.113281-4.378906.566407-5.644531-1.257812-1.265625-1.828125-.917969-4.320313.796875-5.730469l18.578125-15.238281-24.96875 14.402343c-1.960937 1.132813-4.46875.535157-5.707031-1.359374-1.238281-1.898438-.777344-4.433594 1.046875-5.773438l4.214844-3.089844-5.578125 3.21875c-1.960938 1.105469-4.441406.496094-5.671875-1.386718-1.230469-1.886719-.78125-4.402344 1.019531-5.75l3.738281-2.722657-3.234375 1.851563c-1.941406 1.109375-4.410156.53125-5.65625-1.324219-1.246094-1.859375-.847656-4.363281.910156-5.738281l13.9375-10.804688-11.5625 6.671875c-1.914062 1.109375-4.351562.574219-5.625-1.230469-1.273437-1.808593-.960937-4.285156.726563-5.714843l16.640625-14.148438-10.582031 6.101563c-1.886719 1.144531-4.332031.667968-5.644531-1.105469-1.3125-1.769531-1.0625-4.25.582031-5.722656l10.882812-10.304688c-.792969-.359375-1.457031-.957031-1.894531-1.707031-1.179688-2.042969-.480469-4.652344 1.558594-5.828125l21.71875-12.527344c1.871094-1.066406 4.242187-.574219 5.53125 1.152344 1.289062 1.722656 1.089844 4.140625-.460938 5.628906l-5.207031 4.933594 19.910156-11.425781c1.90625-1.085938 4.328125-.542969 5.59375 1.25 1.265625 1.792968.964844 4.253906-.695312 5.6875l-16.632813 14.148437 25.71875-14.847656c1.941406-1.085937 4.390625-.5 5.628906 1.347656 1.238282 1.847657.851563 4.335938-.890624 5.71875l-13.960938 10.800781 17.3125-9.992187c1.960938-1.105469 4.441406-.5 5.671875 1.386719 1.230469 1.886718.78125 4.402344-1.019531 5.75l-3.671875 2.6875 3.730469-2.152344c1.960937-1.132812 4.46875-.535156 5.707031 1.363281 1.238281 1.894531.777343 4.429688-1.046875 5.769531l-4.214844 3.097657 2.890625-1.707031c1.921875-1.113282 4.378906-.5625 5.644531 1.261718 1.265625 1.828125.917969 4.320313-.796875 5.730469l-18.59375 15.265625 14.890625-8.59375c1.894532-1.09375 4.308594-.578125 5.589844 1.195312 1.28125 1.769532 1.015625 4.226563-.617188 5.683594l-12.6875 11.347656 2.6875-1.554687c1.324219-.839844 3-.886719 4.367188-.125 1.371094.765625 2.210938 2.21875 2.1875 3.785156-.019531 1.566407-.898438 2.996094-2.289062 3.722657l-38.398438 22.1875c-.652344.386718-1.398438.585937-2.160156.578124zm0 0" fill="#f4f6f8"/><path d="m341.6875 357.523438c-1.835938 0-3.464844-1.175782-4.046875-2.917969-.582031-1.742188.019531-3.660157 1.488281-4.761719l15.769532-11.777344-32.710938 18.851563c-1.925781 1.089843-4.367188.523437-5.617188-1.304688-1.253906-1.828125-.898437-4.308593.816407-5.710937l41.25-33.28125-59.273438 34.210937c-1.953125 1.101563-4.425781.503907-5.660156-1.367187s-.808594-4.382813.976563-5.742188l24.582031-18.34375-20.480469 11.84375c-1.921875 1.113282-4.375.5625-5.644531-1.261718-1.265625-1.824219-.917969-4.316407.800781-5.726563l18.71875-15.429687-13.875 8.003906c-1.878906 1.0625-4.257812.550781-5.535156-1.1875-1.277344-1.742188-1.054688-4.160156.519531-5.640625l8.0625-7.398438-3.046875 1.757813c-1.625.941406-3.671875.710937-5.046875-.566406-1.375-1.28125-1.75-3.308594-.925781-4.996094l4.644531-9.515625c-1.507813-.136719-2.886719-.914063-3.78125-2.132813-.570313-.980468-.722656-2.148437-.429687-3.242187.292968-1.09375 1.007812-2.027344 1.992187-2.59375l9.625-5.546875c1.625-.945313 3.679687-.714844 5.054687.566406 1.375 1.285156 1.75 3.316406.917969 5.003906l-4.265625 8.65625 24.644532-14.148437c1.878906-1.0625 4.253906-.554688 5.535156 1.1875 1.277344 1.738281 1.054687 4.160156-.519532 5.636719l-8.074218 7.425781 24.671875-14.25c1.921875-1.109375 4.367187-.5625 5.636719 1.257812 1.265624 1.820313.925781 4.304688-.78125 5.722657l-18.773438 15.445312 38.886719-22.425781c1.953125-1.105469 4.425781-.507813 5.660156 1.367187 1.234375 1.871094.808594 4.378906-.976563 5.738282l-24.574218 18.339843 44.089844-25.445312c1.929687-1.089844 4.371093-.527344 5.621093 1.300781s.898438 4.308594-.816406 5.710938l-41.25 33.28125 47.890625-27.640626c1.953125-1.101562 4.425781-.503906 5.660156 1.367188 1.234375 1.875.808594 4.382812-.976562 5.742188l-15.796875 11.726562 11.09375-6.410156c1.90625-1.113282 4.347656-.589844 5.628906 1.207031s.976563 4.273437-.695313 5.714844l-15.554687 13.5 10.621094-6.136719c1.757812-1.003906 3.976562-.632812 5.3125.882812 1.339843 1.515626 1.429687 3.761719.21875 5.378907l-8.710938 11.546875 3.207031-1.851563c2.027344-1.058593 4.527344-.335937 5.671876 1.644531 1.144531 1.980469.523437 4.511719-1.40625 5.738282l-21.511719 12.390625c-1.757813 1-3.976563.632812-5.3125-.882813-1.339844-1.515625-1.429688-3.765625-.21875-5.382812l8.738281-11.546875-30.847656 17.8125c-1.902344 1.089843-4.320313.558593-5.59375-1.226563-1.273438-1.785156-.988282-4.242187.664062-5.6875l15.554688-13.5-35.363282 20.414063c-.644531.382812-1.378906.59375-2.132812.605469zm0 0" fill="#f4f6f8"/><path d="m427.773438 151.664062c-1.296876 0-2.523438-.59375-3.332032-1.609374-.808594-1.011719-1.113281-2.339844-.824218-3.605469l2.695312-11.945313-9.574219 5.519532c-1.792969 1.019531-4.058593.609374-5.382812-.972657-1.320313-1.582031-1.324219-3.886719 0-5.46875l2.21875-2.636719-4.515625 2.609376c-1.753906 1.015624-3.980469.65625-5.324219-.855469-1.347656-1.515625-1.441406-3.765625-.230469-5.390625l13.363282-17.917969-21.683594 12.515625c-1.917969 1.105469-4.359375.558594-5.625-1.253906-1.265625-1.816406-.9375-4.296875.761718-5.714844l1.3125-1.101562-3.582031 2.066406c-1.875 1.144531-4.308593.683594-5.632812-1.070313-1.324219-1.75-1.101563-4.21875.511719-5.707031l21.09375-20.15625-28.414063 16.402344c-1.894531 1.09375-4.308594.578125-5.59375-1.195313-1.28125-1.773437-1.015625-4.226562.617187-5.683593l28.050782-24.984376-31.667969 18.261719c-1.933594 1.101563-4.390625.53125-5.640625-1.304687-1.253906-1.839844-.882812-4.332032.851562-5.726563l22.785157-18.117187-18.003907 10.402344c-1.945312 1.109374-4.410156.527343-5.660156-1.328126-1.246094-1.855468-.847656-4.359374.914063-5.738281l15.703125-12.21875-10.957032 6.324219c-1.808593 1.035156-4.101562.613281-5.425781-1-1.320312-1.613281-1.28125-3.945312.089844-5.511719l17.511719-19.875-12.175782 7.03125c-1.640624.949219-3.710937.699219-5.082031-.609375-1.371093-1.308594-1.714843-3.367187-.839843-5.046875l4.265624-8.269531c-1.890624-.101562-3.484374-1.433594-3.921874-3.273438-.4375-1.839843.386718-3.746093 2.027343-4.6875l9.625-5.546874c1.644531-.996094 3.746094-.769532 5.140625.550781 1.394532 1.320312 1.734375 3.410156.832032 5.105469l-3.675782 7.109374 22.117188-12.800781c1.804687-1.027343 4.089844-.601562 5.40625 1.003907 1.316406 1.605468 1.285156 3.929687-.074219 5.5l-17.507813 19.882812 42.085938-24.296875c1.9375-1.078125 4.378906-.496094 5.617188 1.347656 1.238281 1.839844.859374 4.324219-.875 5.710938l-15.785157 12.277343 14.140625-8.15625c1.9375-1.132812 4.417969-.570312 5.679688 1.285157 1.261718 1.855469.871094 4.371093-.894532 5.753906l-22.738281 18.074219 17.917969-10.359375c1.894531-1.09375 4.308594-.578125 5.589844 1.195312 1.28125 1.769531 1.015625 4.226563-.613282 5.683594l-28.050781 25.011719 23.109375-13.332032c1.867188-1.0625 4.238282-.570312 5.527344 1.148438 1.289062 1.722656 1.097656 4.132812-.449219 5.628906l-21.035156 20.078125 15.957031-9.207031c1.914063-1.078125 4.335938-.527344 5.59375 1.273438 1.257813 1.800781.941406 4.265624-.730468 5.691406l-3.105469 2.558594c1.339843-.101563 2.652343.421874 3.558593 1.417968 1.347657 1.507813 1.445313 3.757813.238282 5.382813l-13.363282 17.960937 7.808594-4.511718c1.796875-1.042969 4.078125-.636719 5.410156.953124 1.332032 1.59375 1.324219 3.914063-.019531 5.496094l-3.285156 3.882813c1.296875.003906 2.519531.59375 3.328125 1.605469.808594 1.011718 1.113281 2.335937.828125 3.601562l-3.0625 13.652344c1.085937.292968 2.007813 1.011718 2.558594 1.988281 1.183593 2.035156.492187 4.644531-1.542969 5.828125l-4.855469 2.808594c-.632812.378906-1.351562.585937-2.089843.605468zm0 0" fill="#d94452"/><g fill="#262626"><path d="m33.644531 254.679688c6.410157.53125 12.746094-1.683594 17.433594-6.09375-8.464844 60.96875.066406 129.175781.066406 190.71875 0 26.503906-10.699219 60.929687 21.761719 64 57.566406 5.4375 118.238281 0 176.023438 0 59.734374 0 120.601562 3.492187 180.226562 0 40.183594-2.355469 27.082031-43.1875 27.082031-75.585938v-177.152344c2.152344 1.402344 4.519531 2.449219 7.007813 3.085938 19.164062 4.019531 30.90625-20.785156 41.097656-33.390625.285156-.382813.515625-.808594.679688-1.261719.1875-.238281.347656-.5.480468-.777344 3.957032-13.285156-7.886718-19.011718-17.066406-26.777344l-49.339844-41.582031v-78.558593c0-16.066407 8.121094-50.132813-13.144531-52.90625-12.542969-1.65625-53.597656-6.671876-64.367187 5.4375-6.457032 7.261718-3.113282 23.542968-3.113282 32.03125v26.019531l-79.683594-67.15625c-19.625-16.574219-28.058593-16.949219-48.027343-.136719-47.519531 40.027344-95.019531 80.074219-142.503907 120.148438l-65.085937 54.859374c-6.144531 5.179688-22.015625 14.183594-23.125 23.714844-1.253906 10.796875 22.621094 39.492188 33.597656 41.363282zm115.292969 222.019531v-107.519531c0-18.296876-8.335938-59.460938 0-75.898438 4.171875-8.207031 11.945312-5.65625 24.847656-5.65625h56.542969c28.824219 0 25.71875 11.527344 25.71875 36.746094v169.472656h-105.402344c-1.679687-5.550781-2.261719-11.375-1.707031-17.144531zm289.867188 17.144531c-7.59375 5.1875-37.304688 0-46.25 0h-124.152344v-169.730469c0-14.566406 5.386718-34.355469-9.597656-41.164062-18.339844-8.328125-56.703126-.078125-76.910157-.078125-40.960937 0-45.3125 3.621094-45.3125 44.554687v166.398438h-20.761719c-10.691406 0-36.300781 5.1875-45.398437 0-10.164063-5.792969-6.714844-17.875-6.714844-30.53125v-182.324219c0-11.09375-3.796875-30.90625-.503906-42.171875 0 2.039063 5.257813-4.496094 7.628906-6.730469 7.679688-7.253906 16.136719-13.84375 24.148438-20.71875l137.25-117.761718c13.652343-11.683594 14.6875-17.75 29.054687-10.71875.914063.445312 1.828125 1.078124 2.734375 1.578124 2.039063 1.929688 4.433594 4.269532 7.636719 7.042969l44.21875 37.9375c2.011719 1.878907 4 3.710938 5.972656 5.359375l110.703125 95.035156c3.363281 3.25 7.167969 7.109376 11.09375 10.820313v135.902344c.035157 19.824219 11.265625 106.308593-4.839843 117.300781zm-68-464.214844c1.925781-9.566406-2.636719-4.335937 5.453124-6.554687 6.125-.71875 12.3125-.71875 18.4375 0 10.625 0 27.46875-4.105469 32.019532 8.535156 1.03125 7.453125 1.03125 15.011719 0 22.46875v85.359375l-3.839844-3.234375-52.054688-43.90625c-.085937-19.839844-3.898437-43.433594-.015624-62.703125zm-353.613282 176.382813c5.316406-11.648438 30.941406-26.085938 40.746094-34.34375l135.167969-113.9375c15.539062-14.90625 32.011719-28.800781 49.324219-41.601563 14.078124-8.984375 5.664062-7.75 19.179687-1.125 18.367187 8.984375 36.378906 30.667969 52.054687 43.886719l78.824219 66.449219 70.765625 59.65625c8.003906 6.75 32.90625 20.351562 29.917969 33.765625-14.761719 18.6875-17.238281 30.507812-37.503906 15.660156-.171875-.214844-.371094-.402344-.597657-.554687-.152343-.171876-.1875-.351563-.382812-.523438l-120.320312-103.253906c-18.917969-16.210938-61.925782-72.53125-90.609376-59.484375-6.3125 3.195312-12.109374 7.316406-17.203124 12.230469-26.367188 18.523437-51.273438 44.578124-75.089844 66.992187l-31.082032 26.667969c-19.242187 16.511718-52.640624 34.746094-64.851562 58.445312-2.296875.757813-4.191406 1.9375-4.265625 3.414063-1.78125 1.316406-3.738281 2.378906-5.8125 3.15625-13.976563 4.523437-35.113281-20.472657-28.261719-35.5zm0 0"/><path d="m302.597656 190.796875c-.027344-.21875-.078125-.4375-.15625-.648437 0-.152344.105469-.28125.097656-.433594-3.277343-60.964844-97.742187-57.113282-97.726562 2.773437.027344 61.730469 94.601562 57.410157 97.785156-1.691406zm-51.328125 38.828125c-19.542969-2.789062-33.996093-19.632812-33.785156-39.375-.375-10.84375 4.203125-21.269531 12.441406-28.332031s19.242188-9.996094 29.902344-7.96875c17.628906 4.425781 30.058594 20.175781 30.257813 38.351562-1.261719 20.554688-16.222657 39.832031-38.816407 37.324219zm0 0"/><path d="m400.960938 282.429688h-53.820313c-15.273437 0-52.179687-7.390626-56.960937 13.507812-2.421876 15.773438-2.421876 31.824219 0 47.597656 1.484374 10.242188 5.632812 12.101563 15.359374 12.800782 32.726563 2.253906 66.3125 0 99.132813 0 .15625 0 .359375-.058594.53125-.078126.90625-.058593 1.800781-.210937 2.679687-.449218 11.492188-3.109375 13.761719-8.449219 14.09375-19.628906.394532-12.730469 3.609376-31.777344 0-44.03125-3.097656-10.683594-11.792968-9.710938-21.015624-9.71875zm-78.335938 68.265624c-13.421875 0-18.773438 0-20.085938-14.507812-.761718-8.214844 0-16.894531 0-25.136719 0-3.789062-2.144531-17.324219 0-20.675781 3.539063-5.496094 27.183594-2.289062 34.890626-2.289062h52.105468c13.21875 0 18.773438 0 20.085938 14.507812.511718 5.65625 3.535156 43.339844-2.191406 48.101562zm0 0"/><path d="m93.914062 449.023438v17.066406c0 1.582031 12.355469-.039063 12.355469-3.308594v-17.066406c0-1.578125-12.355469.042968-12.355469 3.308594zm0 0"/><path d="m93.914062 312.492188v102.398437c0 1.957031 12.355469.222656 12.355469-3.308594v-102.402343c0-1.953126-12.355469-.222657-12.355469 3.3125zm0 0"/><path d="m93.914062 261.292969v17.066406c0 3.472656 12.355469 1.261719 12.355469-3.3125v-17.066406c0-3.464844-12.355469-1.261719-12.355469 3.3125zm0 0"/><path d="m221.914062 380.757812v17.066407c0 3.183593 12.355469 1.066406 12.355469-3.308594v-17.066406c0-3.183594-12.355469-1.070313-12.355469 3.308593zm0 0"/></g></svg>