<?xml version="1.0" encoding="iso-8859-1"?>
<!-- Generator: Adobe Illustrator 19.0.0, SVG Export Plug-In . SVG Version: 6.00 Build 0)  -->
<svg version="1.1" id="Capa_1" xmlns="http://www.w3.org/2000/svg" xmlns:xlink="http://www.w3.org/1999/xlink" x="0px" y="0px"
	 viewBox="0 0 502.24 502.24" style="enable-background:new 0 0 502.24 502.24;" xml:space="preserve">
<g>
	<g>
		<g>
			<path d="M232.774,55.04l32.416-32.416L242.582,0l-68.8,68.8l68.8,68.8l22.624-22.624l-27.52-27.536
				c105.377,11.83,181.211,106.845,169.381,212.222c-10.875,96.867-92.609,170.214-190.085,170.578
				c-9.861,0-19.708-0.749-29.456-2.24l-4.8,31.632c11.337,1.732,22.788,2.604,34.256,2.608
				c123.641,0.108,223.96-100.034,224.068-223.676C441.153,160.9,350.152,63.237,232.774,55.04z"/>
			<path d="M61.19,439.152c8.251,8,17.103,15.355,26.48,22l18.496-26.128c-8.039-5.686-15.63-11.982-22.704-18.832L61.19,439.152z"
				/>
			<path d="M117.222,478.864c10.293,5.116,20.965,9.432,31.92,12.912l9.6-30.496c-9.383-2.99-18.524-6.691-27.344-11.072
				L117.222,478.864z"/>
		</g>
	</g>
</g>
<g>
</g>
<g>
</g>
<g>
</g>
<g>
</g>
<g>
</g>
<g>
</g>
<g>
</g>
<g>
</g>
<g>
</g>
<g>
</g>
<g>
</g>
<g>
</g>
<g>
</g>
<g>
</g>
<g>
</g>
</svg>
