<svg height="506pt" viewBox="-33 0 506 506.81363" width="506pt" xmlns="http://www.w3.org/2000/svg"><path d="m403.027344 435.625c-1.328125.023438-2.589844-.578125-3.414063-1.621094-1.414062-1.609375-1.414062-4.019531 0-5.628906l8.535157-8.535156-16.382813 9.472656c-1.886719 1.414062-4.5625 1.03125-5.976563-.855469-1.414062-1.882812-1.03125-4.558593.855469-5.972656l17.066407-15.699219-14.507813 8.53125c-1.929687 1.0625-4.347656.511719-5.632813-1.277344-1.257812-1.867187-.886718-4.382812.855469-5.804687l2.386719-1.878906c-1.765625.734375-3.804688.171875-4.949219-1.363281-1.414062-1.609376-1.414062-4.023438 0-5.632813l24.066407-23.722656-22.359376 13.226562c-1.917968 1.148438-4.398437.582031-5.628906-1.277343-1.269531-1.816407-.933594-4.300782.765625-5.71875l13.652344-11.351563-11.175781 6.402344c-1.90625 1.117187-4.347656.601562-5.632813-1.195313-1.285156-1.796875-.992187-4.277344.683594-5.71875l21.589844-18.941406-19.542969 11.261719c-1.945312 1.15625-4.453125.59375-5.71875-1.277344-.820312-.914063-1.195312-2.140625-1.03125-3.355469s.851562-2.296875 1.886719-2.960937l7.507812-5.886719-4.777343 2.730469c-1.910157 1.195312-4.425782.621093-5.632813-1.28125-1.289063-1.828125-.914063-4.347657.851563-5.71875l13.144531-10.410157-10.667969 6.144532c-1.929688 1.0625-4.347656.511718-5.632812-1.277344-1.257813-1.867188-.886719-4.382812.855468-5.804688l16.296875-12.628906-13.824219 8.53125c-1.9375 1.132813-4.425781.53125-5.632812-1.363281-1.28125-1.875-.867188-4.425781.941406-5.804687l5.972656-4.4375-3.15625 1.878906c-2.027343 1.320312-4.742187.746094-6.058593-1.28125-1.320313-2.023438-.75-4.738282 1.277343-6.058594l31.234376-26.964844-29.699219 17.066406c-1.917969 1.148438-4.398438.585938-5.628907-1.277343-1.246093-1.839844-.875-4.324219.851563-5.71875l25.089844-20.054688-23.042969 13.3125c-1.953125 1.320313-4.609375.804688-5.929688-1.152343-1.320312-1.953126-.804687-4.609376 1.152344-5.929688l21.078125-16.214844-18.773437 10.839844c-1.773438.640625-3.757813.039062-4.878906-1.476562-1.121094-1.515626-1.117188-3.585938.015624-5.09375l33.109376-27.050782-31.660157 17.664063c-.925781.566406-2.042969.738281-3.097656.484375-1.058594-.257813-1.96875-.921875-2.535156-1.851563-1.253907-1.871093-.800781-4.398437 1.023437-5.714843l12.886719-9.132813-10.324219 5.972656c-1.28125.839844-2.910156.929688-4.277344.242188-1.367187-.691407-2.261718-2.058594-2.347656-3.585938-.085937-1.527343.648438-2.984375 1.929688-3.824219l17.066406-12.542968-14.761719 8.535156c-1.941406 1.039062-4.355469.433594-5.574219-1.40625-1.214843-1.835938-.835937-4.296875.882813-5.679688l30.207031-23.210937-28.246094 16.300781c-1.941406 1.042969-4.355468.433594-5.574218-1.402344-1.214844-1.835937-.835938-4.296874.882812-5.679687l13.140625-9.386719-10.582031 6.058594c-1.957031 1.1875-4.507812.578125-5.71875-1.367188-1.207031-1.878906-.761719-4.371093 1.023438-5.714843l24.917968-18.347657-22.613281 12.371094c-1.964844 1.140625-4.476563.542969-5.714844-1.363281-1.203125-1.925781-.71875-4.453125 1.109375-5.804687l16.382813-11.605469-13.910157 8.023437c-2.003906 1.273438-4.65625.679688-5.929687-1.324218-1.273437-2-.679687-4.65625 1.320313-5.929688l12.546874-8.53125-9.984374 5.800781c-1.972657 1.125-4.476563.507813-5.703126-1.398437-1.226562-1.910156-.746093-4.441406 1.09375-5.769532l21.25-14.761718-19.285156 10.582031c-1.980468 1.171875-4.535156.523437-5.71875-1.453125-1.21875-1.914062-.6875-4.449219 1.195313-5.714844l4.605469-3.246094-1.960938 1.109376c-1.925781.902343-4.222656.246093-5.378906-1.539063-1.160156-1.78125-.832032-4.144531.769531-5.542969l32.683594-23.890625-30.71875 17.746094c-1.972657 1.125-4.476563.511719-5.703125-1.398437-1.226563-1.90625-.746094-4.441407 1.09375-5.769532l34.132812-24.746094-31.828125 18.261719c-1.957031 1.1875-4.507812.578125-5.71875-1.363281-1.226562-1.941406-.699219-4.507812 1.195313-5.804688l6.230468-4.265624-3.585937 2.046874c-1.949219.933594-4.292969.257813-5.449219-1.570312-1.15625-1.832031-.757812-4.238281.929688-5.597656l11.773437-8.105469-9.214843 5.375c-1.980469 1.296875-4.636719.742187-5.929688-1.238281-1.296875-1.976563-.742188-4.632813 1.234375-5.929688l37.71875-27.304687-35.839844 20.648437c-1.964843 1.140625-4.480469.539063-5.71875-1.363281-1.226562-1.941406-.699219-4.507813 1.195313-5.804687l22.957031-16.128907-19.628906 11.351563c-2.003907 1.25-4.636719.636718-5.886719-1.367188-1.25-2-.636719-4.636718 1.363281-5.886718l11.605469-7.425782-7.082031 4.097656c-1.96875 1.125-4.476563.507813-5.703125-1.398437-1.226563-1.910156-.746094-4.445313 1.097656-5.769531l22.613281-16.554688-18.007812 10.070313c-1.929688 1.058593-4.347657.507812-5.632813-1.28125-1.265625-1.816407-.929687-4.300781.769532-5.71875l25.601562-21.160157-20.738281 12.117188c-1.929688 1.058594-4.347657.511719-5.632813-1.28125-1.265625-1.816406-.929687-4.300781.769532-5.714844l6.058593-4.867187-1.195312.683593c-1.882813 1.066407-4.269531.554688-5.546875-1.195312-1.316406-1.722656-1.09375-4.171875.511718-5.632812l3.757813-3.582032c-1.195313.234375-2.433594-.046875-3.414063-.769531-1.367187-1.066406-1.972656-2.84375-1.535156-4.519531l2.300782-9.304688c-.792969-.347656-1.453126-.949218-1.875-1.703125-1.175782-2.054687-.492188-4.671875 1.535156-5.890625l4.265625-2.386718c1.46875-.914063 3.34375-.828126 4.722656.210937s1.980469 2.820313 1.507813 4.480469l-1.707032 6.910156 20.140625-11.519531c1.863281-1.082031 4.242188-.609375 5.542969 1.109375 1.417969 1.613281 1.417969 4.023437 0 5.632812l-3.070312 2.988282 17.066406-9.730469c1.652344-.605469 3.507812-.089844 4.609375 1.28125 1.265625 1.816406.933593 4.300781-.769531 5.71875l-5.714844 4.949219 20.5625-11.949219c1.945312-1.15625 4.453125-.59375 5.71875 1.28125 1.203125 1.847656.839844 4.304687-.855469 5.71875l-25.597656 21.074219 40.449219-23.292969c1.96875-1.125 4.472656-.511719 5.703124 1.398437 1.226563 1.90625.742188 4.441406-1.097656 5.769532l-22.953125 16.554687 28.414063-16.554687c1.296875-.824219 2.933594-.894532 4.292968-.183594 1.363282.710937 2.238282 2.09375 2.304688 3.628906.066406 1.53125-.691406 2.984375-1.988281 3.808594l-11.691407 8.019531 13.484376-7.765625c1.96875-1.125 4.476562-.507812 5.703124 1.398438 1.226563 1.910156.746094 4.445312-1.097656 5.769531l-22.953125 16.214843 23.296875-13.824218c1.964844-1.140625 4.476563-.539063 5.714844 1.363281 1.265625 1.898437.8125 4.453125-1.023438 5.804687l-37.714843 27.648438 35.15625-20.3125c2.003906-1.246094 4.636719-.636719 5.886719 1.367188 1.25 2.003906.636718 4.640624-1.363282 5.886718l-11.777344 8.023438 7.253907-4.183594c2.003906-1.246094 4.636719-.636719 5.886719 1.367188 1.25 2.003906.636718 4.640624-1.363282 5.886718l-6.230468 4.183594 1.707031-.941406c1.964843-1.136719 4.476562-.539063 5.714843 1.367187 1.238282 1.890625.746094 4.425781-1.109374 5.71875l-34.132813 24.832031 29.441406-17.070312c1.925781-.898438 4.222657-.242188 5.382813 1.542969 1.15625 1.78125.828125 4.144531-.773438 5.542969l-32.683594 23.890624 28.074219-16.210937c1.953125-.9375 4.296875-.261719 5.449219 1.570313 1.15625 1.832031.757812 4.238281-.925781 5.597656l-4.523438 3.15625c1.96875-1.125 4.476563-.507813 5.703125 1.398437 1.226563 1.910157.746094 4.445313-1.09375 5.769531l-21.25 15.1875 16.640625-9.640624c1.988281-1.125 4.507813-.484376 5.71875 1.449218.617188.90625.84375 2.015625.636719 3.089844s-.835938 2.023438-1.746094 2.628906l-12.628906 9.046875 8.105469-4.695312c1.972656-1.09375 4.453125-.503907 5.714843 1.367187 1.296876 1.90625.800782 4.503906-1.109374 5.800782l-16.296876 12.03125 11.691407-6.742188c1.972656-1.09375 4.453125-.5 5.714843 1.367188 1.222657 1.90625.777344 4.429687-1.023437 5.800781l-24.917969 18.347656 20.226563-11.691406c1.957031-1.1875 4.507812-.578125 5.714843 1.367187 1.246094 1.917969.757813 4.476563-1.109374 5.800782l-13.054688 9.304687 8.535156-4.867187c1.953125-1.316407 4.609375-.800782 5.929688 1.152343 1.320312 1.957031.804687 4.613281-1.152344 5.933594l-30.207031 23.207031 25.597656-14.675781c1.960937-1.1875 4.507813-.578125 5.71875 1.367187 1.207031 1.878907.761719 4.371094-1.023437 5.714844l-17.066407 12.628906 12.457031-7.167968c1.941407-1.039063 4.355469-.433594 5.574219 1.40625 1.21875 1.835937.835938 4.296875-.878906 5.679687l-12.886719 9.382813 8.535156-4.691406c1.894532-1.164063 4.371094-.636719 5.628907 1.195312 1.277343 1.84375.945312 4.355469-.765625 5.800781l-33.109375 27.050781 28.246093-16.382812c1.953126-1.320312 4.609376-.804688 5.929688 1.152344 1.320312 1.957031.804688 4.609375-1.152344 5.929687l-21.078125 16.214844 16.300781-9.386719c1.921876-1.101562 4.371094-.546875 5.628907 1.277344 1.292969 1.828125.917969 4.347656-.851563 5.71875l-25.6875 19.710938 20.226563-11.6875c1.902343-1.121094 4.347656-.601563 5.632812 1.191406 1.246094 1.808594.953125 4.257812-.683593 5.71875l-31.234376 26.964844 26.285157-15.1875c1.957031-1.1875 4.507812-.578126 5.714843 1.363281 1.210938 1.878906.765626 4.375-1.023437 5.71875l-5.972656 4.4375 1.28125-.683594c1.910156-1.195313 4.425781-.621094 5.632812 1.28125 1.289063 1.824219.914063 4.34375-.855469 5.714844l-16.210937 12.886719 11.433594-6.570313c1.914062-1 4.277343-.40625 5.496093 1.375 1.21875 1.785156.910157 4.199219-.71875 5.621094l-13.140624 10.410156 8.535156-4.777344c1.953125-1.320312 4.609375-.804687 5.929687 1.152344 1.320313 1.957031.804688 4.609375-1.152343 5.929687l-7.59375 5.890626 2.816406-1.625c1.902344-1.117188 4.34375-.597657 5.628906 1.195312 1.234375 1.78125.941406 4.199219-.679688 5.632812l-21.589843 19.03125 16.640625-9.644531c1.929687-1.058593 4.347656-.511719 5.628906 1.28125 1.265625 1.816407.933594 4.296875-.765625 5.714844l-13.65625 11.4375 8.535156-5.121094c1.871094-1.046875 4.222657-.574219 5.546875 1.109375 1.414063 1.609375 1.414063 4.019532 0 5.632813l-24.40625 23.722656 18.945313-10.921875c1.910156-1.195312 4.425781-.625 5.632812 1.277344 1.289063 1.828125.914063 4.347656-.855469 5.71875l-3.328124 2.730468c1.855468-.300781 3.691406.648438 4.515624 2.339844.824219 1.6875.445313 3.71875-.929687 5l-17.066406 15.699219 12.03125-6.398437c1.863281-1.265626 4.394531-.863282 5.769531.921874 1.378906 1.785157 1.132812 4.332032-.566406 5.816407l-8.53125 8.535156 3.070312-1.707031c1.316406-.957032 3.066406-1.082032 4.503906-.320313 1.441407.761719 2.320313 2.277344 2.269532 3.902344-.046875 1.628906-1.023438 3.085937-2.503906 3.757813l-29.867188 17.066406c-.605469.207031-1.242188.292968-1.878906.253906zm0 0" fill="#fdcd56" fill-rule="evenodd"/><path d="m86.015625 503.808594c-1.492187-.023438-2.867187-.792969-3.671875-2.046875-1.1875-2.035157-.542969-4.640625 1.453125-5.890625l57.683594-35.582032-73.984375 42.664063c-2.019532 1.152344-4.59375.472656-5.78125-1.527344-1.1875-2.003906-.550782-4.589843 1.429687-5.808593l142.847657-89.6875-152.488282 87.636718c-2.035156 1.117188-4.589844.441406-5.804687-1.535156-.589844-.957031-.769531-2.113281-.496094-3.207031.273437-1.089844.976563-2.027344 1.945313-2.59375l68.269531-42.15625-65.878907 38.65625c-.96875.582031-2.132812.75-3.226562.460937-1.09375-.289062-2.023438-1.011718-2.574219-1.996094-1.179687-2.007812-.535156-4.589843 1.449219-5.804687l15.617188-9.726563-11.265626 6.484376c-.96875.585937-2.132812.75-3.226562.460937s-2.023438-1.007813-2.574219-1.996094c-1.179687-2.007812-.535156-4.585937 1.449219-5.800781l22.527344-13.742188-18.175782 10.328126c-2.003906 1.179687-4.585937.535156-5.800781-1.453126-1.191406-2.03125-.546875-4.640624 1.449219-5.886718l19.03125-11.519532-14.679688 8.53125c-.96875.585938-2.132812.75-3.226562.460938s-2.023438-1.007812-2.574219-1.996094c-1.179687-2.003906-.535156-4.585937 1.449219-5.800781l100.863281-62.378906-96.511719 55.636719c-.96875.582031-2.132812.75-3.226562.460937s-2.023438-1.011719-2.574219-1.996094c-1.179687-2.007812-.535156-4.589843 1.449219-5.804687l55.894531-34.132813-51.199219 29.695313c-2.023437 1.152344-4.597656.472656-5.785156-1.53125-1.1875-2-.550781-4.585938 1.429688-5.804688l128.769531-80.214844-124.757813 71.679688c-2.003906 1.179688-4.585937.535156-5.800781-1.449219-.59375-.972656-.777343-2.140625-.503906-3.246093.273437-1.109376.976563-2.058594 1.953125-2.644532l129.960938-80.980468-125.609376 72.449218c-.96875.582032-2.132812.75-3.226562.460938-1.09375-.292969-2.023438-1.011719-2.574219-1.996094-1.195312-1.984375-.589843-4.5625 1.363281-5.804688l160.769532-101.546874-156.332032 90.199218c-1.296874 1.03125-3.078124 1.21875-4.5625.480469-1.484374-.742187-2.40625-2.277344-2.359374-3.933594.042968-1.660156 1.046874-3.144531 2.570312-3.800781l109.226562-67.753906-104.875 60.5c-2.003906 1.179687-4.585937.535156-5.800781-1.449219-.589843-.960937-.769531-2.117187-.496093-3.207031.273437-1.09375.972656-2.027344 1.945312-2.597656l133.289062-83.625-128.9375 74.75c-2.023437 1.152343-4.59375.472656-5.78125-1.53125-1.1875-2-.550781-4.585938 1.429688-5.804688l71.507812-43.949219-67.15625 38.828125c-2.035156 1.117188-4.585937.441406-5.800781-1.535156-1.195312-1.984375-.589843-4.5625 1.363281-5.804688l143.445313-89.941406-139.007813 80.214844c-1.296874 1.03125-3.078124 1.222656-4.5625.480469-1.484374-.742188-2.40625-2.277344-2.359374-3.933594.042968-1.660156 1.046874-3.140625 2.570312-3.800781l103.082031-63.574219-98.730469 56.746094c-.96875.585937-2.132812.75-3.226562.460937-1.09375-.289062-2.023438-1.007812-2.574219-1.996094-1.179687-2.007812-.535156-4.585937 1.449219-5.800781l93.097656-57.515625-88.746094 51.199219c-.96875.582031-2.132812.75-3.226562.460937-1.09375-.289062-2.023438-1.011718-2.574219-1.996093-1.179687-2.007813-.535156-4.589844 1.449219-5.804688l68.265625-41.984375-63.65625 36.78125c-2.027344 1.222656-4.664063.574219-5.890625-1.453125-1.222656-2.023437-.574219-4.660156 1.453125-5.886719l137.472656-88.574218-133.292969 76.796875c-2.035156 1.117187-4.585937.441406-5.800781-1.535157-1.195312-1.984374-.589843-4.558593 1.363281-5.800781l67.671876-42.667969-63.234376 36.523438c-2.003906 1.179688-4.585937.535156-5.800781-1.453125-.746093-1.792969-.183593-3.859375 1.363281-5.03125l86.527344-55.46875-82.089844 46.933594c-2.027343 1.226562-4.660156.574219-5.886718-1.449219-1.226563-2.027344-.578125-4.664062 1.449218-5.890625l76.800782-49.578125-72.363282 41.730469c-1.980468.992187-4.394531.300781-5.550781-1.589844s-.671875-4.351563 1.113281-5.664063l61.78125-40.277343-57.683593 33.363281c-2.011719 1.132812-4.5625.496094-5.804688-1.449219-1.195312-1.984375-.589843-4.558593 1.367188-5.804687l38.3125-24.832032-34.132813 19.542969c-1.984375 1.125-4.503906.484375-5.714844-1.449219-.617187-.90625-.847656-2.019531-.640624-3.089843.207031-1.074219.839843-2.023438 1.75-2.628907l72.191406-51.199218-67.585938 38.996094c-1.785156.339843-3.59375-.492188-4.496094-2.070313-.90625-1.578125-.710937-3.554687.488282-4.925781l53.417968-38.058594-48.554687 27.988281c-1.929687 1.199219-4.457031.675781-5.753906-1.191406-1.296875-1.863281-.90625-4.414063.890625-5.804687l29.351562-20.992188-24.746094 14.335938c-1.96875 1.125-4.476562.507812-5.703124-1.398438-1.226563-1.910156-.746094-4.445312 1.097656-5.769531l13.054687-9.386719-8.535156 4.863281c-2 1.25-4.636719.636719-5.886719-1.367187-1.25-2-.636718-4.636719 1.367188-5.886719l3.667968-2.730469c-1.898437.515625-3.898437-.332031-4.851562-2.054687-.949219-1.71875-.605469-3.867188.839844-5.199219l13.140625-11.433594-8.53125 4.777344c-1.785157 1.023438-4.046875.628906-5.375-.9375-1.355469-1.570312-1.355469-3.890625 0-5.460938l8.53125-10.410156-3.242188 1.789063c-1.425781.941406-3.269531.941406-4.695312 0-1.363281-1.03125-2-2.765625-1.621094-4.433594l2.136719-8.535156c-1.339844-.757813-2.164063-2.175781-2.164063-3.710938 0-1.539062.824219-2.957031 2.164063-3.714843l3.753906-2.21875c1.5-.808594 3.332031-.667969 4.691406.359374 1.359375 1.03125 1.992188 2.757813 1.621094 4.421876l-1.363281 5.460937 15.101562-8.535156c1.769531-1.097657 4.085938-.695313 5.378907.941406 1.316406 1.582031 1.316406 3.878906 0 5.460937l-8.535157 10.410157 26.453125-15.445313c1.902344-1.121094 4.347656-.601562 5.632813 1.195313 1.246093 1.804687.953125 4.253906-.683594 5.714843l-13.140625 11.4375 29.011719-17.066406c1.980469-1.296875 4.636719-.742187 5.933593 1.234375 1.292969 1.980469.742188 4.636719-1.238281 5.933594l-2.816406 1.960937 13.910156-7.9375c1.957031-1.183593 4.507813-.578124 5.714844 1.367188 1.191406 1.902344.707031 4.398438-1.109375 5.71875l-13.140625 9.46875 26.367187-15.273438c2-1.105468 4.507813-.515624 5.804688 1.367188 1.199219 1.925781.71875 4.453125-1.109375 5.800781l-29.355469 20.992188 45.910156-26.539063c1.941407-1.039062 4.355469-.433594 5.574219 1.402344 1.214844 1.839844.835938 4.300781-.882812 5.679688l-53.246094 38.742187 75.265625-43.519531c1.964844-1.140625 4.476562-.539063 5.714844 1.367187 1.246094 1.917969.757812 4.476563-1.109375 5.800781l-72.191407 51.199219 96.851563-56.234375c.964844-.554687 2.105469-.707031 3.179687-.417968 1.070313.289062 1.984376.992187 2.539063 1.953124 1.167969 1.972657.605469 4.507813-1.28125 5.804688l-38.3125 24.746094 53.078125-30.632813c1.980469-.996093 4.394531-.304687 5.550781 1.585938s.671875 4.351562-1.113281 5.664062l-62.210938 40.449219 79.789063-46.078125c2.011719-1.132813 4.558594-.496094 5.800781 1.449219 1.175782 1.996094.621094 4.558594-1.277344 5.886718l-76.800781 49.578126 95.574219-55.210938c2.007812-1.105469 4.53125-.429688 5.714844 1.539062.605468.9375.8125 2.078126.570312 3.167969-.238281 1.089844-.90625 2.039063-1.847656 2.632813l-86.53125 55.382812 105.558594-60.929687c2.007812-1.179688 4.589844-.535157 5.804687 1.453125.59375.96875.773438 2.140625.5 3.246094-.273437 1.105468-.976562 2.054687-1.953125 2.640624l-67.582031 42.667969 83.453125-48.128906c1.984375-.996094 4.394531-.304687 5.554688 1.585937 1.15625 1.890626.671874 4.355469-1.117188 5.667969l-137.726562 88.234375 162.132812-93.867187c2.023438-1.152344 4.59375-.472657 5.78125 1.53125 1.1875 2 .550781 4.585937-1.429688 5.808593l-68.265624 41.980469 83.113281-47.699219c2.007812-1.179687 4.589843-.535156 5.804687 1.449219.59375.972657.773438 2.140625.5 3.246094-.269531 1.109375-.972656 2.058594-1.953125 2.644531l-93.011719 57.511719 94.464844-54.613281c.96875-.582032 2.132813-.746094 3.226563-.457032 1.09375.289063 2.023437 1.007813 2.574219 1.996094 1.179687 2.003906.535156 4.585938-1.449219 5.800782l-102.742188 63.828124 98.730469-57c1.984375-.996093 4.394531-.304687 5.550781 1.585938 1.160157 1.890625.675781 4.355469-1.113281 5.667969l-143.445312 90.023437 139.007812-80.296875c.96875-.582031 2.132812-.75 3.226562-.460937 1.09375.289062 2.023438 1.011718 2.578126 1.996094 1.179687 2.007812.535156 4.589843-1.453126 5.804687l-71.507812 43.859375 67.15625-38.742188c2.023438-1.152343 4.59375-.46875 5.78125 1.53125 1.1875 2.003907.550781 4.585938-1.429688 5.808594l-133.460937 83.371094 129.109375-74.496094c.96875-.582031 2.132812-.75 3.226562-.460937 1.09375.289062 2.023438 1.011719 2.578126 1.996093 1.179687 2.007813.535156 4.589844-1.453126 5.804688l-109.140624 67.582031 104.789062-60.414062c1.984375-.996094 4.394531-.304688 5.550781 1.585937 1.160157 1.890625.675781 4.355469-1.113281 5.667969l-160.851562 101.628906 156.414062-90.28125c.96875-.582031 2.132812-.75 3.226562-.460937 1.09375.289062 2.023438 1.011718 2.578126 1.996094 1.195312 1.984374.589843 4.558593-1.367188 5.804687l-130.046875 81.320313 125.355469-72.363282c1.980468-.992187 4.394531-.300781 5.550781 1.589844s.671875 4.351562-1.113281 5.664062l-128.941406 80.214844 124.757812-72.023437c2.035156-1.117188 4.589844-.441407 5.804688 1.539062 1.179687 2.003907.535156 4.585938-1.453126 5.800781l-55.890624 34.132813 51.199218-29.695313c2.003906-1.179687 4.585938-.535156 5.800782 1.449219.589843.960938.769531 2.117188.496093 3.207031-.273437 1.09375-.972656 2.03125-1.945312 2.597657l-100.523438 62.464843 96.511719-55.636718c1.964844-.851563 4.253906-.113282 5.351562 1.71875 1.101563 1.835937.675782 4.199218-1 5.53125l-19.027343 11.605468 14.589843-8.53125c.96875-.582031 2.132813-.75 3.226563-.460937s2.023437 1.011719 2.578125 1.996094c1.179688 2.007812.535156 4.589843-1.453125 5.804687l-22.441406 13.394532 18.175781-10.496094c2.023438-1.152344 4.59375-.46875 5.78125 1.53125 1.1875 2.003906.550781 4.585937-1.429688 5.808594l-15.613281 9.898437 11.261719-6.742187c2.027344-1.164063 4.617188-.480469 5.804688 1.535156.589843.960937.769531 2.117187.496093 3.207031-.273437 1.09375-.976562 2.03125-1.949219 2.597656l-68.265624 42.070313 64.171874-37.035156c.96875-.582032 2.132813-.75 3.226563-.460938s2.019531 1.011719 2.574219 1.996094c1.195312 1.984375.589844 4.558594-1.363282 5.804687l-143.191406 90.367188 138.496094-79.957031c2.023438-1.152344 4.59375-.472657 5.78125 1.53125 1.1875 2 .550781 4.585937-1.429688 5.804687l-57.683593 35.671875 53.332031-30.464844c1.984375-.992187 4.394531-.304687 5.550781 1.585938 1.160157 1.894531.675781 4.355468-1.113281 5.667968l-134.65625 87.210938 130.21875-75.179688c1.984375-.992187 4.394531-.304687 5.550781 1.585938 1.160157 1.894531.675781 4.355469-1.113281 5.667969l-81.917969 52.222656 77.480469-44.628906c2.027344-1.164063 4.617188-.480469 5.804688 1.535156.589843.960937.769531 2.117187.496093 3.207031-.273437 1.09375-.976562 2.027344-1.949219 2.597656l-4.4375 2.816407c.96875-.585938 2.132813-.75 3.226563-.460938 1.09375.289063 2.023437 1.007813 2.578125 1.996094 1.195312 1.984375.589844 4.558594-1.367188 5.800781l-9.984374 6.230469 5.546874-3.242187c1.296876-.808594 2.925782-.863282 4.273438-.144532s2.207031 2.101563 2.261719 3.625c.050781 1.527344-.714844 2.964844-2.011719 3.773438l-80.808594 54.867187 76.285156-44.03125c.9375-.59375 2.070313-.78125 3.148438-.527343 1.078125.257812 2.003906.941406 2.570312 1.894531 1.226563 1.9375.699219 4.503906-1.195312 5.800781l-55.636719 37.886719 51.199219-29.523438c1.972656-1.09375 4.453125-.503906 5.71875 1.367188 1.292969 1.90625.796875 4.503906-1.109375 5.800781l-50.175781 35.839844 45.566406-26.28125c1.972656-1.125 4.476562-.511719 5.703125 1.398437 1.226563 1.90625.746094 4.441407-1.09375 5.769531l-24.660156 17.492188 20.050781-11.605469c2.003906-1.273437 4.660156-.679687 5.929688 1.324219 1.273437 2 .683593 4.65625-1.320313 5.929688l-3.414063 2.304687c1.90625-.332031 3.804688.636719 4.652344 2.375.851563 1.742187.449219 3.832031-.984375 5.132813l-17.066406 14.082031 12.375-7.167969c1.738281-1.035156 3.964844-.675781 5.289063.851562 1.273437 1.566407 1.273437 3.808594 0 5.375l-12.542969 17.066407 6.230469-3.582031c1.992187-.902344 4.34375-.148438 5.445312 1.742187 1.097656 1.890625.589844 4.308594-1.179688 5.597656l-24.0625 13.566407c-1.738281 1.03125-3.964843.671874-5.292968-.855469-1.269532-1.566407-1.269532-3.808594 0-5.375l12.542968-17.066407-39.933593 23.039063c-1.917969 1-4.277344.410156-5.496094-1.375s-.910156-4.199219.714844-5.621094l17.070312-14.078125-36.695312 21.332032c-1.96875 1.125-4.476563.507812-5.703125-1.398438-1.226563-1.910156-.746094-4.445312 1.09375-5.769531l1.539062-1.109375-14.335937 8.53125c-1.96875 1.140625-4.480469.542968-5.71875-1.363282-1.160157-1.933593-.679688-4.433593 1.109375-5.804687l24.746094-17.492187-42.667969 24.660156c-1.957031 1.1875-4.503907.582031-5.714844-1.363282-1.246094-1.917968-.757813-4.480468 1.109375-5.804687l50.175781-35.839844-74.496093 42.667969c-1.953126.933594-4.296876.257812-5.449219-1.570312-1.15625-1.832032-.757813-4.238282.925781-5.597657l55.636719-37.886719-78.25 45.140626c-1.957031 1.1875-4.507813.578124-5.71875-1.367188-1.226563-1.9375-.699219-4.503906 1.195312-5.800781l80.898438-54.953125-107.605469 62.121094c-1.300781 1.035156-3.078125 1.222656-4.5625.480468-1.488281-.742187-2.40625-2.273437-2.363281-3.933594.046875-1.660156 1.050781-3.140624 2.574219-3.800781l9.898437-6.230469-23.46875 13.484376c-1.980469 1.171874-4.535156.523437-5.714844-1.449219-1.199219-1.984375-.589843-4.5625 1.363281-5.804688l4.609376-2.902343-17.664063 10.15625c-1.980469 1.171874-4.535156.523437-5.71875-1.449219-1.164063-1.972657-.605469-4.507813 1.28125-5.804688l81.917969-52.222656-103.082032 59.730469c-1.980468.996094-4.394531.304687-5.550781-1.585938s-.671875-4.351562 1.113281-5.664062l134.65625-87.808594-164.265624 94.804688c-.636719.402343-1.378907.613281-2.132813.597656zm0 0" fill="#e4e8eb" fill-rule="evenodd"/><path d="m381.183594 10.410156c-1.542969.003906-2.96875-.808594-3.757813-2.132812-1.15625-2.074219-.433593-4.699219 1.625-5.886719l1.703125-.941406c1.320313-.957031 3.066406-1.082031 4.507813-.320313 1.4375.761719 2.320312 2.277344 2.269531 3.90625-.050781 1.625-1.023438 3.082032-2.507812 3.753906l-1.707032 1.023438c-.640625.394531-1.382812.601562-2.132812.597656zm0 0" fill="#fdcd56" fill-rule="evenodd"/><path d="m64.082031 94.207031c-1.5.027344-2.902343-.753906-3.667969-2.046875-1.164062-1.96875-.605468-4.507812 1.28125-5.804687l2.132813-1.363281-14.421875 8.53125c-2.003906 1.273437-4.65625.683593-5.929688-1.320313-1.273437-2.003906-.679687-4.660156 1.320313-5.929687l40.960937-28.671876-53.675781 30.804688c-1.910156 1.195312-4.425781.621094-5.628906-1.28125-1.113281-1.796875-.710937-4.140625.9375-5.460938l48.726563-36.695312-57.34375 33.027344c-1.96875 1.136718-4.480469.539062-5.71875-1.367188-1.238282-1.890625-.746094-4.425781 1.109374-5.71875l31.0625-22.867187-32.941406 19.027343c-1.925781.902344-4.21875.246094-5.378906-1.539062-1.160156-1.78125-.832031-4.144531.773438-5.542969l15.871093-11.859375-13.824219 7.933594c-1.980468 1.296875-4.636718.742188-5.929687-1.234375-1.296875-1.980469-.742187-4.636719 1.234375-5.933594l3.671875-2.730469c-1.636719.441407-3.378906-.128906-4.4375-1.449218-1.402344-1.582032-1.402344-3.964844 0-5.546875l14.761719-15.785157c-1.625.078126-3.167969-.742187-4.011719-2.136718-.582031-.96875-.746094-2.132813-.457031-3.222656.289062-1.09375 1.007812-2.023438 1.996094-2.578126l21.332031-12.542968c1.820312-1.0625 4.144531-.628906 5.46875 1.011718 1.320312 1.640626 1.246093 4.003907-.179688 5.558594l-14.078125 15.445313 40.789063-23.46875c.925781-.566407 2.042969-.738281 3.097656-.484375 1.058594.257812 1.96875.921875 2.535156 1.851562.625.894532.867188 2 .675781 3.070313-.191406 1.074219-.804687 2.027343-1.699218 2.648437l-2.816406 2.132813 15.957031-9.21875c1.957031-1.1875 4.507812-.578125 5.714843 1.367187 1.210938 1.878906.761719 4.375-1.023437 5.71875l-16.210937 11.859375 32.765624-18.945312c1.960938-1.1875 4.507813-.578125 5.71875 1.367187 1.253907 1.871094.800782 4.398438-1.023437 5.71875l-31.0625 22.867188 51.96875-29.953125c1.941406-1.15625 4.453125-.59375 5.714844 1.28125 1.222656 1.90625.777343 4.429687-1.023438 5.804687l-48.808593 36.433594 75.347656-43.519531c1.964844-1.136719 4.480468-.539063 5.71875 1.367187 1.226562 1.941406.699218 4.503906-1.195313 5.800782l-40.960937 28.757812 62.210937-35.925781c2.003907-1.179688 4.585938-.53125 5.800781 1.453125 1.164063 1.96875.605469 4.503906-1.28125 5.800781l-1.789062 1.367187 14.929688-8.535156c1.972656-1.125 4.476562-.507812 5.703124 1.398438 1.230469 1.910156.746094 4.445312-1.09375 5.769531l-30.464843 20.480469 48.042969-27.734375c1.941406-1.058594 4.375-.421875 5.546874 1.453125 1.230469 1.941406.703126 4.503906-1.195312 5.800781l-23.890625 16.042969 40.53125-23.296875c1.960937-1.1875 4.507813-.578125 5.71875 1.367187 1.253906 1.871094.800781 4.398438-1.023437 5.71875l-52.738282 38.996094 79.359375-46.082031c1.972657-1.121094 4.476563-.507813 5.703125 1.398437 1.230469 1.910156.746094 4.445313-1.09375 5.769532l-42.835937 30.378906 64.683593-37.546875c1.976563-1.171875 4.535157-.523438 5.714844 1.453125 1.230469 1.941406.699219 4.503906-1.195312 5.800781l-19.710938 13.226563 35.328125-20.480469c1.96875-1.121094 4.476563-.507813 5.703125 1.398437 1.226563 1.910156.746094 4.445313-1.09375 5.769532l-39.253906 27.308593 59.734375-34.132812c1.957031-1.1875 4.503906-.578125 5.714844 1.363281 1.203125 1.929688.71875 4.457031-1.109375 5.804688l-47.53125 34.132812 40.960937-23.636719c1.972657-1.097656 4.453125-.503906 5.71875 1.363281 1.253907 1.871094.800781 4.398438-1.023437 5.71875l-29.527344 20.992188 17.921875-10.324219c.980469-.535156 2.132813-.644531 3.195313-.304687 1.0625.335937 1.941406 1.09375 2.433593 2.09375 1.292969 1.828125.917969 4.347656-.851562 5.71875l-17.066407 13.738281 12.457032-7.167969c1.808594-1.132812 4.1875-.6875 5.460937 1.023438 1.367188 1.597656 1.367188 3.949218 0 5.546875l-13.394531 13.652343 12.542969-6.910156c1.699219-1.003906 3.867187-.683594 5.207031.769532 1.367188 1.476562 1.542969 3.699218.425781 5.375l-4.351562 6.226562 5.546875-3.839844c1.742187-.996094 3.945312-.640625 5.289062.855469l9.128906 10.152344 1.027344-.59375c2.046875-1.179688 4.664063-.472657 5.84375 1.578125 1.179688 2.050781.472656 4.667968-1.578125 5.84375l-4.351562 2.644531c-1.765625 1.046875-4.023438.6875-5.375-.851563l-9.046875-10.15625-18.773438 11.007813c-1.726562 1.019531-3.925781.699219-5.289062-.765625-1.242188-1.578125-1.242188-3.800781 0-5.378906l4.351562-5.800782-21.761718 11.945313c-1.820313 1.0625-4.144532.628906-5.46875-1.011719-1.320313-1.640625-1.246094-4.003906.179687-5.558594l13.140625-13.910156-35.414062 20.480469c-1.917969 1-4.277344.410156-5.496094-1.375s-.910156-4.199219.71875-5.621094l17.066406-13.738281-35.925781 20.734375c-1.957031 1.1875-4.507813.578125-5.71875-1.363281-1.207031-1.878906-.761719-4.375 1.023437-5.71875l29.613282-21.929688-50.09375 29.011719c-1.964844 1.140625-4.476563.539063-5.714844-1.363281-1.203125-1.929688-.71875-4.453125 1.109375-5.804688l47.445312-34.132812-71.253906 41.300781c-1.957031 1.1875-4.507813.578125-5.71875-1.363281-1.199219-1.929688-.714844-4.453125 1.109375-5.804688l39.253906-27.304687-59.734375 34.132812c-1.988281 1.148438-4.53125.550781-5.800781-1.367187-1.210938-1.960938-.644531-4.53125 1.28125-5.800782l19.625-12.972656-35.328125 20.480469c-1.964844 1.140625-4.476563.539063-5.71875-1.363281-1.242187-1.917969-.753906-4.480469 1.109375-5.804688l42.667969-30.121094-64.511719 37.289063c-1.925781.902344-4.222656.242187-5.378906-1.539063-1.160156-1.78125-.832032-4.144531.769531-5.542968l52.738281-38.996094-79.359375 46.078125c-1.992187 1.148437-4.535156.550781-5.804687-1.363281-1.210938-1.964844-.644532-4.53125 1.28125-5.804688l23.894531-16.125-40.449219 23.292969c-1.957031 1.1875-4.507812.578125-5.71875-1.363281-1.226562-1.941406-.699218-4.507813 1.195313-5.804688l30.121093-20.5625-48.039062 27.730469c-.644531.398437-1.382812.605469-2.136719.597656zm0 0" fill="#fdcd56" fill-rule="evenodd"/><g fill="#262626"><path d="m42.921875 92.332031v249.597657c0 43.265624-2.050781 87.039062 0 130.21875 1.023437 20.652343 6.484375 29.695312 28.414063 31.402343 92.585937 7.339844 188.585937 0 281.601562 0 19.882812 0 38.570312.941407 43.859375-22.441406 2.71875-15.546875 3.464844-31.371094 2.21875-47.105469 18.859375 0 35.585937-1.707031 39.9375-24.320312 6.570313-34.132813 0-75.605469 0-109.992188v-253.78125c-3.066406-22.300781-20.890625-39.667968-43.265625-42.15625 1.027344-.765625 1.027344-1.363281-1.191406-1.363281-111.960938 0-225.195313-5.378906-336.8125 0-16.214844.765625-32.425782 3.242187-44.289063 15.445313-28.585937 29.695312-6.058593 68.949218 29.527344 74.496093zm328.019531 403.710938c-15.699218 5.546875-43.605468 0-60.160156 0h-190.976562c-13.140626 0-38.570313 5.035156-51.199219 0-18.941407-7.851563-13.480469-30.039063-13.480469-45.484375v-342.78125c0-4.4375 0-9.046875 0-13.570313 56.746094 8.535157 121.855469 0 179.199219 0h149.589843v309.417969.769531 28.757813c0 .683594 1.621094.683594 1.960938.683594 2.132812 25.683593 2.046875 56.148437-14.933594 62.207031zm56.066406-446.890625v304.808594c0 16.214843 6.058594 46.59375 0 61.867187-5.121093 12.714844-20.140624 17.835937-27.90625 12.035156-.9375-16.554687-2.386718-33.027343-2.386718-47.617187v-291.585938c0-.9375-.683594-1.621094-2.648438-1.789062-.789062-.128906-1.597656-.128906-2.386718 0h-2.050782c-17.839844-6.011719-31.21875-20.945313-35.242187-39.339844.113281-4.207031.949219-8.367188 2.476562-12.289062 7.082031-18.089844 41.554688-27.390626 56.832031-15.105469 10.070313 8.195312 11.605469 16.8125 13.3125 29.015625zm-370.6875-41.8125c26.195313-3.242188 54.78125 0 81.148438 0h231.339844c-3.199219 1.457031-6.234375 3.261718-9.042969 5.375-10.578125 6.105468-17.085937 17.398437-17.070313 29.609375-2.480468 15.597656 3.855469 31.289062 16.472657 40.789062 2.125 1.414063 4.417969 2.5625 6.824219 3.414063h-315.734376c-51.027343-10.152344-44.285156-73.128906 6.0625-79.1875zm0 0"/><path d="m328.191406 195.5c3.839844 0 13.394532-5.804688 5.117188-5.804688h-238.929688c-3.84375 0-13.398437 5.804688-5.121094 5.804688zm0 0" fill-rule="evenodd"/><path d="m94.378906 360.449219c-3.757812 0-13.398437 5.628906-5.121094 5.628906h238.933594c3.753906 0 13.394532-5.628906 5.117188-5.628906zm0 0" fill-rule="evenodd"/><path d="m333.140625 231.679688h-42.667969c-2.390625 0-7.167968.769531-8.53125 3.414062-1.367187 2.644531.851563 3.753906 3.410156 3.753906h42.667969c2.390625 0 7.167969-.769531 8.535157-3.414062 1.363281-2.644532-.855469-3.753906-3.414063-3.753906zm0 0" fill-rule="evenodd"/><path d="m91.304688 240.042969h153.601562c7.253906 0 9.386719-9.558594 1.023438-9.558594h-153.601563c-7.253906 0-9.042969 9.558594-1.023437 9.558594zm0 0" fill-rule="evenodd"/><path d="m194.730469 401.324219h-8.535157c-2.644531 0-6.484374 2.132812-6.742187 5.03125-.253906 2.902343 3.242187 4.183593 5.71875 4.183593h8.53125c2.648437 0 6.488281-2.132812 6.742187-5.035156.257813-2.902344-3.242187-4.179687-5.714843-4.179687zm0 0" fill-rule="evenodd"/><path d="m143.527344 401.152344h-51.199219c-7.253906 0-9.386719 9.558594-1.023437 9.558594h51.199218c7.253906 0 9.046875-9.558594 1.023438-9.558594zm0 0" fill-rule="evenodd"/><path d="m92.328125 273.40625c-6.996094 0-9.472656 9.046875-1.023437 9.046875h42.667968c6.996094 0 9.472656-9.046875 1.023438-9.046875zm0 0" fill-rule="evenodd"/><path d="m331.347656 273.664062h-153.601562c-6.824219 0-9.640625 8.535157-1.191406 8.535157h153.597656c6.828125 0 9.644531-8.535157 1.195312-8.535157zm0 0" fill-rule="evenodd"/><path d="m87.804688 323.15625h25.601562c3.011719.101562 5.980469-.703125 8.535156-2.304688 1.621094-1.277343 1.875-2.8125-.769531-2.8125h-25.601563c-3.007812-.101562-5.980468.699219-8.53125 2.300782-1.621093 1.28125-1.878906 2.816406.765626 2.816406zm0 0" fill-rule="evenodd"/><path d="m160.679688 316.160156c-6.996094 0-9.554688 8.53125-1.191407 8.53125h102.398438c6.996093 0 9.558593-8.53125 1.195312-8.53125zm0 0" fill-rule="evenodd"/></g></svg>