<svg id="Layer_6" height="512" viewBox="0 0 32 32" width="512" xmlns="http://www.w3.org/2000/svg" data-name="Layer 6"><path d="m13.94 6.4h17a1.07 1.07 0 1 0 0-2.13h-17a1.07 1.07 0 0 0 0 2.13z"/><path d="m1.07 6.4h2.14a3.16 3.16 0 0 0 .79 1.2l.75.76a3.2 3.2 0 0 0 4.53 0l.72-.76a3.2 3.2 0 0 0 0-4.53l-.76-.76a3.2 3.2 0 0 0 -4.53 0l-.71.76a3.16 3.16 0 0 0 -.74 1.2h-2.19a1.07 1.07 0 1 0 0 2.13zm4.4-1.82.75-.76a1.07 1.07 0 0 1 1.51 0l.76.76a1.07 1.07 0 0 1 0 1.51l-.75.76a1.07 1.07 0 0 1 -1.51 0l-.75-.76a1.07 1.07 0 0 1 -.02-1.51z"/><path d="m30.93 14.93h-7.93a1.07 1.07 0 1 0 0 2.13h8a1.07 1.07 0 0 0 0-2.13z"/><path d="m1.07 17.07h11.17a3.16 3.16 0 0 0 .74 1.2l.75.76a3.2 3.2 0 0 0 4.53 0l.75-.76a3.2 3.2 0 0 0 0-4.52l-.75-.75a3.2 3.2 0 0 0 -4.53 0l-.75.76a3.16 3.16 0 0 0 -.74 1.2h-11.17a1.07 1.07 0 0 0 0 2.13zm13.43-1.82.75-.76a1.07 1.07 0 0 1 1.51 0l.76.76a1.07 1.07 0 0 1 0 1.51l-.75.76a1.07 1.07 0 0 1 -1.51 0l-.75-.76a1.07 1.07 0 0 1 -.02-1.51z"/><path d="m27.29 23.65a3.2 3.2 0 0 0 -4.53 0l-.76.75a3.16 3.16 0 0 0 -.74 1.2h-20.19a1.07 1.07 0 1 0 0 2.13h20.2a3.16 3.16 0 0 0 .74 1.2l.75.76a3.2 3.2 0 0 0 4.53 0l.75-.76a3.2 3.2 0 0 0 0-4.52zm-.75 3.77-.75.76a1.07 1.07 0 0 1 -1.51 0l-.75-.76a1.07 1.07 0 0 1 0-1.51l.75-.76a1.07 1.07 0 0 1 1.51 0l.76.76a1.07 1.07 0 0 1 -.01 1.51z"/><path d="m30.93 27.73a1.07 1.07 0 0 1 -1-1.47 1.1 1.1 0 0 1 .22-.35 1.07 1.07 0 0 1 1.82.76 1 1 0 0 1 -.31.75 1.07 1.07 0 0 1 -.73.31z"/></svg>