<svg height="509pt" viewBox="-92 0 509 509.51964" width="509pt" xmlns="http://www.w3.org/2000/svg"><path d="m32.058594 79.351562c-1.8125.003907-3.429688-1.136718-4.03125-2.84375-.605469-1.710937-.0625-3.613281 1.351562-4.75l41.300782-33.175781-59.355469 34.25c-1.929688 1.097657-4.378907.53125-5.632813-1.300781-1.25-1.835938-.886718-4.320312.835938-5.71875l33.742187-27.0625-28.953125 16.710938c-1.90625 1.109374-4.339844.585937-5.621094-1.207032-1.28125-1.792968-.988281-4.265625.679688-5.707031l17.613281-15.195313-12.699219 7.320313c-1.851562 1.03125-4.179687.542969-5.464843-1.144531-1.285157-1.683594-1.140625-4.058594.34375-5.570313l6.914062-6.886719-1.765625 1.015626c-1.6875.984374-3.828125.695312-5.199218-.699219-1.367188-1.394531-1.613282-3.539063-.597657-5.207031l3.253907-5.445313c-1.660157-.457031-2.882813-1.863281-3.097657-3.570313-.21875-1.707031.609375-3.375 2.097657-4.234374l9.640624-5.523438c1.683594-.972656 3.8125-.683594 5.175782.703125 1.367187 1.386719 1.621094 3.519531.621094 5.183594l-1.921876 3.210937 15.753907-9.097656c1.851562-1.027344 4.179687-.542969 5.464843 1.144531 1.285157 1.683594 1.136719 4.058594-.34375 5.570313l-6.914062 6.894531 23.605469-13.609375c1.902343-1.078125 4.3125-.539062 5.578125 1.242188 1.265625 1.785156.980468 4.234374-.664063 5.679687l-17.605469 15.1875 38.316407-22.109375c1.929687-1.09375 4.378906-.527344 5.628906 1.304688 1.25 1.832031.890625 4.320312-.835937 5.71875l-33.738282 27.023437 59.015625-34.046875c1.925781-1.089844 4.367188-.523438 5.621094 1.304688 1.25 1.824218.894531 4.308593-.816406 5.710937l-41.300781 33.167969 69.648437-40.183594c1.929687-1.117188 4.398437-.558594 5.65625 1.285156 1.261719 1.839844.890625 4.34375-.851563 5.738282l-41.328124 33.195312 69.710937-40.21875c1.988281-1.261719 4.625-.667969 5.886719 1.324219 1.261718 1.988281.667968 4.625-1.324219 5.886719l-10.90625 7.519531 25.535156-14.730469c1.949219-1.132812 4.445313-.554688 5.695313 1.324219 1.25 1.878906.820312 4.40625-.976563 5.765625l-35.738281 27.121094 59.304688-34.210938c1.980468-1.136719 4.5-.511719 5.726562 1.410156 1.222656 1.925782.714844 4.472656-1.152344 5.785156l-14.761718 10.28125 30.257812-17.476562c1.953125-1.144531 4.460938-.566406 5.714844 1.320312 1.25 1.890626.8125 4.425782-1.003906 5.78125l-35.300782 26.734376 58.664063-33.835938c1.964843-1.117188 4.457031-.507812 5.6875 1.382812 1.230469 1.894532.773437 4.417969-1.042969 5.761719l-27.957031 20.316407 47.625-27.460938c1.929687-1.132812 4.410156-.582031 5.675781 1.261719 1.269531 1.847656.894531 4.355469-.855469 5.753906l-41.480469 33.457031 49.597657-28.636718c1.964843-1.144532 4.484375-.550782 5.726562 1.359374 1.238281 1.90625.765625 4.449219-1.078125 5.785157l-11.945312 8.695312 7.332031-4.269531c1.84375-1.050781 4.179687-.585938 5.480469 1.089844 1.304687 1.679687 1.175781 4.058594-.300782 5.585937l-21.617187 22.203125 16.53125-9.550781c1.71875-.992187 3.898437-.664063 5.25.789063 1.355469 1.453124 1.527344 3.648437.414063 5.296874l-6.519532 9.640626.921875-.535157c2.039063-1.160156 4.632813-.457031 5.804688 1.574219s.484375 4.628906-1.539063 5.816406l-16.996094 9.777344c-1.722656 1-3.90625.671875-5.265624-.785156-1.355469-1.460938-1.523438-3.660156-.402344-5.308594l6.527344-9.632812-27.304688 15.742187c-1.84375 1.054687-4.179688.589844-5.484375-1.089844-1.300781-1.675781-1.171875-4.054687.304687-5.582031l21.625-22.1875-49.957031 28.9375c-1.964843 1.148438-4.484375.550781-5.722656-1.355469-1.242187-1.90625-.769531-4.453125 1.074219-5.785156l11.945312-8.714844-27.484375 15.871094c-1.929687 1.078125-4.363281.503906-5.605469-1.320313-1.246093-1.824218-.890624-4.300781.816407-5.699218l41.472656-33.488282-70.230469 40.535157c-1.960937 1.117187-4.453125.511719-5.6875-1.382813-1.230468-1.894531-.769531-4.417968 1.046875-5.757812l27.953125-20.355469-47.65625 27.511719c-1.949218 1.109375-4.425781.523437-5.664062-1.347656-1.242188-1.867188-.824219-4.375.953125-5.742188l35.320312-26.785156-58.726562 33.902344c-1.980469 1.136718-4.5.511718-5.726563-1.410157-1.222656-1.925781-.714844-4.472656 1.152344-5.785156l14.789062-10.289063-30.320312 17.5c-1.949219 1.136719-4.445312.554688-5.699219-1.324218-1.25-1.878906-.820312-4.40625.980469-5.765625l35.695312-27.136719-59.359374 34.253906c-1.988282 1.261719-4.625.667969-5.886719-1.324218-1.261719-1.992188-.667969-4.625 1.324219-5.886719l10.921874-7.519531-25.515624 14.730468c-1.929688 1.117188-4.398438.554688-5.65625-1.285156-1.261719-1.839844-.890626-4.34375.851562-5.738281l41.335938-33.28125-69.769532 40.347656c-.644531.378906-1.382812.582031-2.132812.585937zm0 0" fill="#cad0d7"/><path d="m10.964844 437.753906c-1.902344 0-3.578125-1.261718-4.101563-3.089844-.523437-1.832031.226563-3.785156 1.839844-4.796874l101.4375-63.46875-98.816406 57.042968c-2.011719 1.09375-4.527344.402344-5.699219-1.5625s-.585938-4.503906 1.328125-5.757812l62.398437-38.542969-58.027343 33.5c-2.003907 1.085937-4.5.40625-5.683594-1.539063-1.179687-1.945312-.625-4.476562 1.261719-5.75l143.085937-91.226562-138.664062 80.058594c-2.011719 1.074218-4.515625.375-5.679688-1.585938-1.167969-1.960937-.582031-4.492187 1.328125-5.746094l4.539063-2.773437-.1875.105469c-2.003907 1.066406-4.492188.382812-5.664063-1.558594-1.175781-1.945312-.621094-4.464844 1.257813-5.738281l115.023437-72.320313-110.617187 63.855469c-2.003907 1.054687-4.484375.363281-5.648438-1.578125-1.167969-1.941406-.613281-4.457031 1.261719-5.726562l93.199219-58.121094-88.8125 51.277344c-2.007813 1.085937-4.511719.402343-5.6875-1.554688-1.179688-1.953125-.609375-4.488281 1.292969-5.75l105.753906-66.246094-101.359375 58.515625c-2 1.066407-4.484375.390625-5.660157-1.546875-1.175781-1.933594-.636718-4.453125 1.230469-5.734375l150.28125-96.222656-145.851562 84.199219c-2.019531 1.21875-4.640625.570312-5.859375-1.445313s-.570313-4.640625 1.445312-5.859375l129.878906-82.210937-125.441406 72.433593c-2.015625 1.21875-4.640625.570313-5.855468-1.445312-1.21875-2.019531-.574219-4.640625 1.445312-5.859375l129.707031-82.101563-125.320312 72.339844c-2.011719 1.105469-4.539063.425782-5.71875-1.542968-1.179688-1.96875-.59375-4.519532 1.332031-5.769532l94.0625-58.667968-89.675781 51.769531c-2.015625 1.136719-4.570313.460937-5.757813-1.527344-1.1875-1.984375-.574218-4.554687 1.378906-5.792969l80.496094-49.996094-76.117187 43.964844c-2.003907 1.117188-4.535157.453125-5.730469-1.507812-1.191406-1.964844-.617188-4.519532 1.300781-5.78125l121.601563-77.859375-117.171875 67.628906c-2.003907 1.164063-4.570313.519531-5.78125-1.457031-1.214844-1.972656-.628907-4.554688 1.316406-5.8125l117.273437-76.742188-112.808593 65.117188c-2.011719 1.109375-4.539063.425781-5.71875-1.542969-1.179688-1.96875-.59375-4.515625 1.332031-5.769531l15.019531-9.386719-10.632812 6.136719c-2.011719 1.148437-4.566407.484375-5.765625-1.496094-1.199219-1.976562-.605469-4.550781 1.34375-5.800781l36.027344-22.894531-31.574219 18.253906c-2 1.140625-4.546875.480468-5.75-1.484375-1.203125-1.96875-.625-4.535157 1.304687-5.796875l40.304688-26.035156-35.890625 20.738281c-2 1.15625-4.554688.515625-5.769531-1.445313-1.214844-1.964844-.648438-4.539062 1.28125-5.808594l44.183593-29.246093-39.695312 22.90625c-2 1.136719-4.539063.484375-5.742188-1.472657-1.207031-1.957031-.644531-4.515624 1.269531-5.789062l17.238282-11.332031-12.800782 7.371093c-1.984374 1.117188-4.496093.476563-5.707031-1.449218-1.207031-1.929688-.691406-4.46875 1.175781-5.769532l23.507813-15.933593-18.910156 10.925781c-1.933594 1.128906-4.417969.570312-5.679688-1.285156-1.261719-1.855469-.871093-4.371094.894531-5.757813l41.914063-33.277343-37.160156 21.410156c-1.929688 1.09375-4.378907.527344-5.632813-1.304688-1.25-1.832031-.886718-4.320312.835938-5.71875l19.070312-15.308594-14.273437 8.242188c-1.820313 1.046875-4.128907.617188-5.449219-1.015625-1.320312-1.628906-1.257812-3.980469.148438-5.539063l14.507812-16.050781-9.175781 5.300781c-1.46875.84375-3.296875.742188-4.660157-.265624-1.363281-1.007813-2.003906-2.726563-1.628906-4.378907l2.5625-11.398437c-1.535156-.597656-2.585937-2.019532-2.707031-3.660156-.125-1.640626.707031-3.203126 2.132813-4.019532l4.269531-2.46875c1.46875-.847656 3.300781-.746094 4.667969.257813 1.367187 1.007812 2.007812 2.730469 1.628906 4.386719l-2.109375 9.257812 24.140625-13.910156c1.820312-1.046875 4.128906-.617188 5.449218 1.015625 1.320313 1.632812 1.257813 3.980469-.148437 5.539062l-14.507813 16.050781 39.195313-22.628906c1.929687-1.117187 4.398437-.558594 5.65625 1.285156 1.261719 1.839844.886719 4.339844-.851563 5.738282l-19.082031 15.308594 38.714844-22.359376c1.941406-1.15625 4.445313-.605468 5.714844 1.261719 1.273437 1.867188.871093 4.398438-.917969 5.777344l-41.914062 33.28125 69.910156-40.371094c1.996094-1.253906 4.632812-.652343 5.886718 1.34375 1.253907 1.996094.652344 4.628907-1.34375 5.882813l-23.441406 15.96875 40.105469-23.167969c2-1.136719 4.535156-.488281 5.742187 1.46875 1.203126 1.957031.644532 4.519531-1.269531 5.792969l-17.253906 11.332031 32.238281-18.613281c1.996094-1.15625 4.550782-.515625 5.765625 1.445312 1.214844 1.964844.648438 4.539063-1.277343 5.808594l-44.195313 29.253906 63.265625-36.523437c2.003906-1.140625 4.550781-.484375 5.753906 1.484375 1.199219 1.964844.621094 4.53125-1.308594 5.792968l-40.257812 26.003907 57.675781-33.28125c2.015625-1.222657 4.640625-.582031 5.863281 1.433593 1.222657 2.015626.582032 4.640626-1.433593 5.863282l-36.0625 22.902344 52.34375-30.214844c2.015625-1.164063 4.589843-.496094 5.789062 1.496094 1.195313 1.996093.578125 4.582031-1.394531 5.816406l-15.105469 9.386718 29.015625-16.753906c1.996094-1.132812 4.535156-.484375 5.742188 1.472656 1.203125 1.957032.640625 4.519532-1.273438 5.789063l-117.195312 76.726563 145.503906-84.011719c2.007812-1.179688 4.589844-.527344 5.800781 1.460937 1.210938 1.988282.601563 4.582032-1.367187 5.824219l-121.613282 77.894531 146.175782-84.394531c2.015625-1.136719 4.566406-.457031 5.753906 1.527344s.578125 4.554687-1.378906 5.792969l-80.492188 50.007812 76.175782-43.984375c2.011718-1.105469 4.535156-.425781 5.71875 1.542969 1.179687 1.96875.589843 4.519531-1.332032 5.773437l-94.117187 58.671875 89.695312-51.777344c2.003907-1.105468 4.523438-.429687 5.707031 1.53125 1.183594 1.957032.613282 4.5-1.292968 5.761719l-129.664063 82.082031 125.257813-72.316406c2.007812-1.105468 4.523437-.429687 5.707031 1.527344 1.183594 1.960938.613281 4.503906-1.292969 5.765625l-129.9375 82.261719 125.542969-72.480469c2.003906-1.121094 4.535156-.453125 5.726563 1.507813 1.191406 1.960937.617187 4.515624-1.300782 5.777343l-150.183594 96.1875 145.789063-84.179687c2.015625-1.160156 4.589844-.496094 5.789063 1.5 1.199218 1.992187.578124 4.578125-1.394532 5.8125l-105.8125 66.289062 101.453125-58.566406c2.011719-1.105469 4.539063-.425781 5.71875 1.542969 1.179688 1.96875.589844 4.519531-1.332031 5.769531l-93.261719 58.121094 88.832031-51.292969c2.019532-1.21875 4.644532-.570313 5.863282 1.449219 1.21875 2.019531.570312 4.644531-1.449219 5.863281l-114.980469 72.292969 110.574219-63.851563c2.027344-1.207031 4.648437-.539062 5.851563 1.488281 1.203124 2.027344.535156 4.644532-1.488282 5.847657l-4.695312 2.859375.34375-.195313c2.003906-1.121093 4.535156-.453125 5.726562 1.507813 1.191406 1.960937.617188 4.515625-1.300781 5.777344l-143.109375 91.242187 138.699219-80.078125c2.015625-1.136719 4.570312-.457031 5.757812 1.527344 1.183594 1.984375.574219 4.554687-1.378906 5.792968l-62.414063 38.554688 58.027344-33.511719c1.304688-.785156 2.933594-.816406 4.265625-.078125 1.335938.738282 2.175781 2.132813 2.203125 3.65625.027344 1.527344-.761718 2.949219-2.066406 3.734375l-101.375 63.4375 96.996094-56.003906c2.019531-1.214844 4.644531-.5625 5.859375 1.457031 1.214843 2.019532.566406 4.640625-1.453125 5.855469l-80.53125 50.476563 76.136718-43.949219c2.003907-1.117188 4.535157-.453125 5.726563 1.511719 1.191406 1.960937.617187 4.515624-1.300781 5.777343l-89.640625 57.070313 85.222656-49.203125c1.996094-1.15625 4.550781-.515625 5.765625 1.445312 1.214844 1.964844.648438 4.539063-1.277344 5.808594l-104.824218 69.324219 100.351562-57.941406c2.003906-1.101563 4.523438-.425782 5.707031 1.53125 1.183594 1.957031.613281 4.503906-1.296875 5.765624l-21.613281 13.652344 17.210937-9.941406c2-1.117188 4.523438-.457031 5.71875 1.496094 1.199219 1.953125.640626 4.5-1.261718 5.773437l-42.105469 27.308594 37.65625-21.777344c2.003906-1.140625 4.550781-.484375 5.753906 1.484375s.621094 4.53125-1.304687 5.792969l-10.429688 6.691406 5.972656-3.457031c1.980469-1.117188 4.488282-.484375 5.703126 1.433594 1.214843 1.921875.710937 4.460937-1.144532 5.769531l-49.578125 34.277344 45.027344-26c1.984375-1.070313 4.460937-.417969 5.652344 1.496093 1.191406 1.914063.691406 4.421876-1.144531 5.730469l-11.945313 8.039063 7.457031-4.308594c1.945313-1.101562 4.410156-.511719 5.652344 1.347656 1.238281 1.859375.832031 4.363282-.933594 5.734375l-35.601562 27.152344 30.898437-17.832031c1.964844-1.117188 4.457031-.511719 5.6875 1.382812 1.230469 1.894532.773438 4.417969-1.042969 5.757813l-4.898437 3.566406.261719-.152344c1.835937-1.046875 4.160156-.597656 5.46875 1.058594s1.207031 4.023437-.238282 5.5625l-18.21875 19.242187 13.007813-7.507812c1.605469-.898438 3.609375-.667969 4.96875.578125 1.355469 1.246094 1.761719 3.222656 1.003906 4.898437l-4.675781 10.300782c1.804688-.367188 3.640625.453125 4.574219 2.039062 1.175781 2.042969.476562 4.652344-1.5625 5.828125l-10.242188 5.90625c-1.605469.894531-3.601562.664063-4.960937-.578125-1.355469-1.242187-1.761719-3.214844-1.011719-4.890625l4.601563-9.976562-26.8125 15.472656c-1.832032 1.046875-4.15625.597656-5.464844-1.0625-1.3125-1.65625-1.210938-4.019531.234375-5.5625l18.234375-19.222656-44.832032 25.871093c-1.964843 1.117188-4.457031.511719-5.6875-1.382812-1.230468-1.894531-.773437-4.417969 1.042969-5.757812l4.898438-3.570313-18.585938 10.726563c-1.945312 1.101562-4.410156.515624-5.652343-1.347657-1.238282-1.859375-.832032-4.363281.933593-5.734375l35.585938-27.144531-59.382813 34.253906c-2 1.25-4.632812.640625-5.882812-1.355469-1.246094-2-.640625-4.632812 1.359375-5.878906l11.945312-8.023437-26.453125 15.273437c-1.980468 1.121094-4.488281.488282-5.703125-1.433594-1.214843-1.921874-.710937-4.457031 1.148438-5.765624l49.585937-34.28125-71.894531 41.507812c-2.007813 1.175781-4.589844.527344-5.800781-1.460938-1.210938-1.992187-.605469-4.582031 1.363281-5.828124l10.453125-6.707032-24.234375 14.003906c-1.300781.796876-2.925781.835938-4.265625.109376-1.339844-.726563-2.1875-2.117188-2.226562-3.640626-.039063-1.523437.738281-2.953124 2.039062-3.746093l42.015625-27.230469-59.816406 34.535156c-2.011719 1.125-4.550781.453125-5.738281-1.519531-1.191407-1.972656-.597657-4.535156 1.335937-5.785156l21.605469-13.65625-36.316406 20.96875c-1.996094 1.113281-4.515626.460937-5.714844-1.480469-1.199219-1.945312-.65625-4.488281 1.234375-5.773438l104.832031-69.308593-132.644531 76.597656c-1.300781.789063-2.929688.824219-4.265625.09375-1.335938-.734375-2.179688-2.125-2.214844-3.648437-.03125-1.527344.75-2.953126 2.050781-3.742188l89.703125-57.175781-111.597656 64.488281c-2.019531 1.214844-4.640625.5625-5.859375-1.457031-1.214844-2.015625-.5625-4.640625 1.457031-5.855469l80.5625-50.46875-100.15625 57.804688c-.648437.378906-1.382812.574218-2.132812.574218zm0 0" fill="#66d4f1"/><path d="m138.546875 505.773438c-1.875-.003907-3.527344-1.226563-4.078125-3.019532-.546875-1.789062.136719-3.730468 1.6875-4.78125l.855469-.589844-13.527344 7.808594c-1.960937 1.117188-4.457031.511719-5.6875-1.382812-1.230469-1.894532-.769531-4.417969 1.046875-5.757813l27.382812-19.875-46.796874 26.992188c-1.964844 1.128906-4.472657.519531-5.703126-1.382813-1.234374-1.902344-.765624-4.4375 1.070313-5.769531l26.085937-18.824219-44.996093 25.976563c-1.933594 1.085937-4.378907.511719-5.625-1.328125-1.246094-1.835938-.871094-4.320313.855469-5.714844l39.421874-31.007812-65.910156 38.050781c-1.976562 1.101562-4.472656.472656-5.683594-1.441407-1.214843-1.910156-.722656-4.433593 1.117188-5.753906l11.65625-8.054687-26.453125 15.25c-1.976563 1.074219-4.449219.425781-5.648437-1.480469-1.199219-1.90625-.707032-4.414062 1.117187-5.730469l5.257813-3.585937-12.859376 7.417968c-1.917968 1.085938-4.351562.53125-5.609374-1.277343-1.257813-1.8125-.929688-4.285157.761718-5.703125l38.777344-32.09375-35.738281 20.667968c-1.941407 1.085938-4.390625.5-5.628907-1.347656-1.238281-1.847656-.851562-4.335937.890626-5.71875l9.054687-7-4.316406 2.492188c-1.765625 1.007812-3.992188.632812-5.328125-.898438-1.335938-1.527344-1.410156-3.785156-.175782-5.398437l13.351563-17.296875-7.832031 4.515625c-1.5.863281-3.375.730469-4.742188-.328125-1.367187-1.0625-1.957031-2.84375-1.496094-4.511719l2.195313-7.867187c-1.40625-.703126-2.308594-2.121094-2.355469-3.6875-.046875-1.570313.773438-3.039063 2.132813-3.820313l4.265625-2.46875c1.5-.867187 3.378906-.742187 4.75.320313s1.960937 2.847656 1.496094 4.519531l-1.457032 5.222656 17.457032-10.035156c1.765624-1.007813 3.992187-.632813 5.328124.898437 1.335938 1.527344 1.410157 3.785156.175782 5.398438l-13.335938 17.304687 40.960938-23.628906c1.9375-1.085937 4.386718-.5 5.625 1.347656 1.238281 1.847657.851562 4.335938-.890625 5.71875l-9.0625 6.996094 24.386719-14.078125c1.917968-1.066406 4.328124-.507812 5.578124 1.292969 1.253907 1.800781.9375 4.253906-.730468 5.679687l-38.757813 32.09375 67.730469-39.101562c1.984375-1.117188 4.492188-.476563 5.703125 1.449218 1.210937 1.929688.695313 4.46875-1.171875 5.769532l-5.300781 3.609375 18.773437-10.835938c1.980469-1.152343 4.523438-.535156 5.75 1.402344 1.226563 1.9375.703125 4.5-1.183594 5.800781l-11.640624 8.039063 26.453124-15.257813c1.933594-1.089844 4.378907-.511718 5.625 1.324219 1.242188 1.835937.871094 4.320313-.855468 5.714844l-39.464844 30.957031 65.960938-38.074219c1.96875-1.128906 4.472656-.523437 5.707031 1.378907 1.230469 1.902343.761719 4.4375-1.074219 5.773437l-26.078125 18.773437 45.023437-25.984374c1.960938-1.09375 4.433594-.476563 5.652344 1.40625 1.222656 1.882812.777344 4.386718-1.019531 5.734374l-27.390625 19.882813 46.847656-27.042969c1.988282-1.132812 4.515625-.496094 5.730469 1.445313 1.210937 1.9375.679687 4.492187-1.207031 5.785156l-.855469.59375 13.578125-7.839844c1.941406-1.125 4.421875-.554687 5.675781 1.304688 1.253907 1.859375.855469 4.371093-.914062 5.75l-38.554688 30.011719 64.257813-37.09375c1.976562-1.132813 4.5-.511719 5.722656 1.414062 1.222656 1.921875.71875 4.472656-1.148438 5.78125l-15.011718 10.453125 30.59375-17.664063c1.988281-1.132812 4.515625-.496093 5.726562 1.445313 1.214844 1.9375.683594 4.488281-1.207031 5.78125l-1.464844.992187 5.972657-3.414062c1.921874-1.09375 4.359374-.539062 5.617187 1.277344 1.257813 1.820312.921875 4.296875-.78125 5.710937l-36.691406 30.105469 31.898437-18.414062c1.878906-1.035157 4.230469-.511719 5.496094 1.214843 1.269531 1.730469 1.054688 4.132813-.496094 5.609375l-19.585937 17.707032 14.507812-8.351563c1.882813-1.148437 4.332031-.667969 5.644531 1.101563 1.3125 1.773437 1.058594 4.253906-.582031 5.722656l-4.113281 3.902344c1.683594-.488282 3.492188.105468 4.5625 1.492187 1.070312 1.390625 1.183594 3.289063.28125 4.796875l-3.25 5.453125c1.082031.285156 2.007812.996094 2.558594 1.96875 1.179687 2.039063.484375 4.648437-1.550782 5.828125l-9.59375 5.53125c-1.683593.972656-3.8125.6875-5.179687-.699219-1.359375-1.386719-1.617187-3.515625-.621094-5.179687l1.917969-3.191406-15.769531 9.019531c-1.882813 1.164062-4.347657.691406-5.667969-1.085938-1.320312-1.78125-1.058594-4.273437.601562-5.742187l3.738282-3.53125-17.921875 10.324218c-1.878907 1.035157-4.230469.511719-5.5-1.21875-1.265625-1.726562-1.050781-4.128906.5-5.609374l19.464843-17.621094-42.386718 24.484375c-1.921875 1.113281-4.375.5625-5.644532-1.261719-1.265624-1.824219-.917968-4.316406.800782-5.726562l36.691406-30.089844-64.203125 37.078125c-1.984375 1.113281-4.496094.476562-5.707031-1.453125-1.210938-1.925782-.691406-4.464844 1.175781-5.765625l1.492187-1.015625-14.269531 8.234375c-1.972656 1.089843-4.453125.460937-5.664062-1.441407-1.210938-1.902343-.734375-4.417968 1.089843-5.746093l15.027344-10.46875-30.582031 17.65625c-1.941406 1.121093-4.421875.550781-5.675781-1.308594s-.855469-4.371094.914062-5.75l38.570313-30.019531-64.238281 37.078125c-.644532.386719-1.382813.59375-2.132813.605469zm0 0" fill="#cad0d7"/><g fill="#262626"><path d="m19.789062 506.183594c14.828126 3.675781 35.496094 0 50.6875 0h91.484376c44.859374 0 96.777343 7.507812 141.082031 0 31.667969-5.359375 19.414062-47.875 19.355469-72.996094v-358.484375c0-.144531-.085938-.230469-.09375-.375v-59.09375c.203124-.492187.203124-1.046875 0-1.535156-7.691407-18.511719-43.402344-10.539063-59.28125-10.539063h-156.332032c-25.601562 0-62.769531-7.109375-87.644531 0-27.785156 7.984375-16.503906 48.519532-16.324219 72.039063 0 .082031-.078125.152343-.078125.238281v358.398438.128906c.027344 25.242187-11.84375 65.039062 17.144531 72.21875zm293.015626-77.125h-.785157c1.671875-1.640625 2.910157-.496094.785157 0zm-239.402344-349.117188h236.441406v282.871094c0 17.460938-4.417969 41.667969 0 58.761719.449219 2.46875.605469 4.980469.460938 7.484375h-1.289063c-.988281-.089844-1.976563-.230469-2.953125-.425782-18.867188-3.882812-42.484375 0-61.632812 0h-177.09375c-2.558594 0-5.65625.1875-8.882813.425782h-43.433594c-.207031-4.605469-.140625-9.21875.203125-13.816406v-318.496094c0-5.855469-.128906-11.734375 0-17.589844.71875-.128906 1.390625-.304688 2.132813-.410156h33.9375c7.910156.566406 15.554687 1.195312 22.109375 1.195312zm236.476562 402.910156c-2.746094 15.863282.367188 11.332032-12.800781 14.507813-28.003906 6.757813-67.285156 0-95.957031 0h-129.492188c-19.074218 0-49.074218 7.621094-56.441406-9.804687-3.097656-16.21875-3.480469-32.835938-1.140625-49.179688h13.769531c25.6875 1.429688 51.433594 1.429688 77.117188 0h205.023437c1.367188 14.78125 1.339844 29.660156-.078125 44.433594zm-289.699218-472.371093c6.75-3.925781 27.871093 0 35.550781 0h181.761719c12.96875 0 66.003906-8.53125 72.421874 6.460937-.179687 13.472656-4.753906 36.164063 0 47.964844.648438 1.695312.894532 3.519531.714844 5.324219h-17.117187c-12.238281-.648438-24.746094-.433594-37.257813 0h-242.34375c1.605469-12.484375 2.019532-25.09375 1.234375-37.65625-.015625-11.605469-2.4375-17.757813 5.035157-22.09375zm0 0"/><path d="m173.429688 463.949219h-17.066407c-3.109375-.261719-6.152343 1.015625-8.148437 3.414062-1.367188 2.476563 1.167968 3.890625 3.414062 3.890625h17.066406c3.109376.261719 6.152344-1.011718 8.148438-3.410156 1.375-2.476562-1.160156-3.894531-3.414062-3.894531zm0 0"/><path d="m134.621094 44.808594h17.066406c3.132812.285156 6.191406-1.042969 8.125-3.523438 1.3125-2.507812-1.128906-4.1875-3.5-4.1875h-17.066406c-3.132813-.285156-6.191406 1.042969-8.125 3.523438-1.3125 2.507812 1.128906 4.1875 3.5 4.1875zm0 0"/><path d="m184.113281 43.429688c2.5625 0 13.960938-4.949219 8.039063-4.949219-2.578125 0-13.960938 4.949219-8.039063 4.949219zm0 0"/><path d="m49.304688 398.789062v-17.066406c0-6.082031-12.476563-3.96875-12.476563 1.128906v17.066407c0 6.082031 12.476563 3.964843 12.476563-1.128907zm0 0"/><path d="m49.246094 346.496094v-187.730469c0-2.722656-12.355469-.753906-12.355469 3.308594v187.734375c0 2.722656 12.355469.75 12.355469-3.3125zm0 0"/><path d="m49.246094 124.632812v-17.066406c0-2.3125-12.355469-.472656-12.355469 3.308594v17.066406c0 2.3125 12.355469.46875 12.355469-3.308594zm0 0"/></g></svg>