<svg height="502pt" viewBox="0 -2 502.93674 502" width="502pt" xmlns="http://www.w3.org/2000/svg"><path d="m65.210938 497.355469c-1.859376 0-3.496094-1.226563-4.023438-3.011719-.523438-1.785156.1875-3.699219 1.75-4.710938l120.867188-77.972656-147.464844 85.097656c-1.964844 1.039063-4.398438.367188-5.550782-1.535156-1.152343-1.902344-.621093-4.371094 1.210938-5.632812l123.121094-78.058594-138.035156 79.714844c-1.96875 1.066406-4.429688.398437-5.589844-1.515625-1.160156-1.914063-.613282-4.402344 1.242187-5.652344l152.523438-97.273437-153.097657 88.417968c-1.972656 1.128906-4.492187.476563-5.667968-1.46875-1.179688-1.949218-.59375-4.480468 1.320312-5.707031l158.117188-100.867187-153.769532 88.796874c-1.972656 1.039063-4.417968.351563-5.5625-1.566406-1.140624-1.917968-.582031-4.394531 1.273438-5.636718l66.460938-40.925782-62.171876 35.882813c-1.96875 1.050781-4.414062.378906-5.570312-1.535157-1.152344-1.910156-.609375-4.390624 1.242188-5.640624l138.867187-87.679688-134.539063 77.671875c-1.96875 1.039063-4.40625.359375-5.554687-1.550781-1.144531-1.910156-.601563-4.382813 1.242187-5.632813l108.492188-67.660156-104.179688 60.148437c-1.976562 1.089844-4.460937.417969-5.621093-1.515624-1.160157-1.9375-.582031-4.445313 1.308593-5.675782l106.203126-66.167968-101.898438 58.832031c-1.988281 1.132812-4.519531.460937-5.6875-1.507813s-.539062-4.511718 1.40625-5.710937l31.316406-19.113281-27.035156 15.578124c-1.976562 1.027344-4.410156.332032-5.546875-1.582031-1.136719-1.917969-.574219-4.386719 1.277344-5.628906l6.527343-3.976563-2.257812 1.300782c-1.976562 1.089844-4.460938.417968-5.621094-1.519532-1.164062-1.933593-.585937-4.441406 1.308594-5.675781l106.679688-66.507812-102.398438 59.097656c-1.953125.90625-4.269531.191406-5.375-1.652344-1.101562-1.847656-.628906-4.230469 1.09375-5.515625l97.414062-60.683594-93.101562 53.71875c-1.972656 1.054688-4.425781.371094-5.578125-1.546874-1.148437-1.921876-.589844-4.40625 1.273437-5.648438l84.816407-52.777344-80.511719 46.484375c-2 1.183594-4.582031.527344-5.769531-1.472656-1.1875-2.003906-.527344-4.585937 1.472656-5.773437l54.683594-33.789063-50.359375 29.089844c-1.984375 1.144531-4.515625.488281-5.695313-1.472657-1.179687-1.960937-.566406-4.507812 1.371094-5.71875l88.636719-55.558593-84.3125 48.683593c-1.992188 1.1875-4.566406.535157-5.753906-1.457031-1.1875-1.992187-.535157-4.566406 1.457031-5.753906l33.949219-20.984375-29.679688 17.171875c-1.972656 1.054687-4.425781.375-5.578125-1.542969-1.148437-1.921875-.589844-4.40625 1.273437-5.648437l41.414063-25.660157-37.101563 21.414063c-1.976562 1.070313-4.449218.394531-5.601562-1.539063-1.152344-1.933593-.578125-4.429687 1.304688-5.664062l23.6875-14.636719-19.398438 11.195313c-1.972656 1.085937-4.449219.421875-5.613281-1.503906-1.164063-1.925782-.601563-4.429688 1.273437-5.671876l82.382813-52.214843-78.058594 45.0625c-1.976563 1.128906-4.492187.480469-5.671875-1.46875-1.179688-1.945313-.59375-4.476563 1.324219-5.707031l83.625-53.296876-79.261719 45.769532c-1.996094 1.1875-4.574219.535156-5.765625-1.460938-1.1875-1.996094-.535156-4.578125 1.460937-5.765625l13.714844-8.460937-9.375 5.40625c-1.976562 1.128906-4.492187.476562-5.671875-1.472656-1.179687-1.945313-.59375-4.476563 1.324219-5.707032l70.933594-45.273437-66.621094 38.433593c-1.96875 1.121094-4.472656.476563-5.65625-1.457031-1.183594-1.9375-.613281-4.460937 1.285156-5.703125l78.898438-50.972656-74.527344 43.007812c-1.972656 1.085938-4.449219.421876-5.613281-1.503906-1.164063-1.925781-.601563-4.429687 1.273437-5.671875l28.699219-18.144531-24.339844 14.046875c-1.953125 1.054687-4.386719.410156-5.558593-1.46875-1.171876-1.882813-.679688-4.351563 1.125-5.636719l71.269531-47.726562-66.835938 38.609375c-1.949219 1.097656-4.414062.480469-5.613281-1.410157-1.195312-1.890624-.699219-4.386718 1.128906-5.675781l61.542969-42.460937-57.078125 32.9375c-1.9375 1.074218-4.382812.453125-5.570312-1.417969-1.191407-1.871094-.722657-4.347656 1.074218-5.652344l42.527344-29.769531-38.03125 21.949219c-1.945312 1.097656-4.414062.476562-5.609375-1.410157-1.195313-1.890624-.699219-4.386718 1.128906-5.675781l16.265625-11.230469-11.75 6.800782c-1.90625 1.074218-4.316406.507812-5.542968-1.304688-1.222657-1.8125-.851563-4.261718.859374-5.628906l28.328126-22.285156-23.703126 13.683594c-1.847656 1.015624-4.164062.503906-5.410156-1.199219-1.246094-1.699219-1.035156-4.0625.492188-5.515625l18.65625-16.964844-13.738282 7.921875c-1.652343.949219-3.734374.667969-5.074218-.6875-1.339844-1.351563-1.597656-3.4375-.632813-5.078125l8.046875-13.589844c-2.027344 1.121094-4.582031.382813-5.703125-1.648437-1.117187-2.03125-.378906-4.582031 1.652344-5.703125l13.695313-7.90625c1.648437-.972656 3.746093-.691406 5.078124.679687 1.347657 1.355469 1.609376 3.449219.640626 5.09375l-8.019532 13.566407 33.691406-19.433594c1.847657-1.015625 4.164063-.503906 5.410157 1.199218 1.246093 1.699219 1.035156 4.0625-.488281 5.515626l-18.660157 16.972656 41.070313-23.6875c1.90625-1.097656 4.335937-.535156 5.570312 1.285156 1.230469 1.824219.847656 4.289062-.878906 5.648438l-28.371094 22.234374 50.539063-29.167968c1.941406-1.058594 4.371093-.429688 5.554687 1.4375 1.183594 1.871094.714844 4.335937-1.074218 5.640625l-16.234376 11.195312 31.730469-18.273437c1.9375-1.074219 4.378907-.453125 5.570313 1.417968 1.191406 1.871094.722656 4.347657-1.074219 5.652344l-42.527344 29.753906 63.789063-36.824218c1.941406-1.058594 4.371094-.429688 5.554687 1.4375 1.1875 1.871094.714844 4.335937-1.074219 5.640625l-61.5625 42.445312 85.847657-49.523437c1.953125-1.078125 4.410156-.445313 5.589843 1.449218 1.183594 1.894532.675782 4.382813-1.152343 5.660157l-71.285157 47.734375 95.007813-54.84375c1.96875-1.082032 4.449219-.417969 5.613281 1.507812 1.164063 1.925782.601563 4.425782-1.277344 5.671875l-28.746093 18.179688 39.390625-22.738281c1.972656-1.121094 4.476562-.476563 5.65625 1.457031 1.183594 1.9375.613281 4.460937-1.28125 5.703125l-78.898438 50.980468 84.824219-49.007812c1.964844-1.066406 4.425781-.402344 5.585937 1.511719 1.160157 1.914062.617188 4.402343-1.238281 5.65625l-70.917969 45.273437 75.441407-43.527344c1.976562-1.089843 4.460937-.421874 5.621093 1.515626 1.164063 1.9375.585938 4.445312-1.308593 5.675781l-13.496094 8.394531 15.703125-9.066406c1.96875-1.066406 4.429688-.398438 5.589844 1.515625 1.160156 1.910156.613281 4.398437-1.242188 5.652343l-83.714844 53.367188 88.695313-51.203125c1.96875-1.082031 4.445313-.417969 5.613281 1.507813 1.164063 1.925781.601563 4.429687-1.277344 5.671874l-82.355468 52.1875 87.109375-50.308593c1.988281-1.1875 4.566406-.539063 5.757812 1.453125 1.1875 1.988281.539063 4.566406-1.453125 5.757812l-23.835937 14.722656 26.285156-15.175781c1.976563-1.054687 4.429687-.375 5.578125 1.546875 1.152344 1.917969.589844 4.402344-1.269531 5.644532l-41.390625 25.660156 44.335937-25.59375c1.289063-.769532 2.886719-.792969 4.199219-.0625 1.308594.734375 2.128906 2.105468 2.152344 3.605468.019531 1.5-.757813 2.898438-2.046875 3.667969l-33.96875 20.984375 36.664062-21.167968c1.980469-1.144532 4.515625-.488282 5.691407 1.472656 1.179687 1.960937.570312 4.507812-1.371094 5.71875l-88.539063 55.449218 93.164063-53.769531c1.984375-1.117187 4.496094-.449219 5.664062 1.503907 1.167969 1.953124.566406 4.480468-1.355468 5.699218l-54.945313 33.976563 58.167969-33.574219c1.980468-1.117188 4.492187-.453125 5.660156 1.5s.566406 4.484375-1.355469 5.699219l-84.707031 52.671875 88.972656-51.351563c1.980469-1.144531 4.511719-.488281 5.691406 1.472657 1.179688 1.960937.570313 4.503906-1.371093 5.71875l-97.472657 60.710937 100.839844-58.21875c1.980469-1.140625 4.515625-.484375 5.691406 1.476563 1.179688 1.960937.570313 4.503906-1.371093 5.71875l-106.679688 66.5 103.585938-59.804688c1.980469-1.078125 4.464843-.390625 5.613281 1.550781 1.152344 1.945313.558594 4.449219-1.34375 5.667969l-6.269531 3.820312 2-1.148437c1.976562-1.058594 4.4375-.371094 5.585937 1.558594 1.144532 1.929687.570313 4.417969-1.308594 5.648437l-31.304687 19.121094 26.992187-15.585938c1.988282-1.191406 4.566407-.542968 5.757813 1.445313s.546875 4.566406-1.445313 5.757813l-106.21875 66.1875 101.941407-58.84375c1.96875-1.039063 4.40625-.359376 5.554687 1.550781 1.144532 1.910156.601563 4.382812-1.242187 5.632812l-108.492188 67.660157 104.179688-60.148438c1.96875-1.050781 4.414062-.378906 5.570312 1.535156 1.152344 1.910156.609375 4.390625-1.242187 5.640625l-138.910156 87.695313 134.589843-77.6875c1.972657-1.042969 4.417969-.355469 5.5625 1.5625 1.140625 1.917968.582031 4.398437-1.273437 5.636718l-66.308594 40.816407 62-35.78125c1.96875-1.066407 4.429688-.398438 5.589844 1.515625 1.160156 1.914062.613281 4.402344-1.242188 5.652344l-158.105468 100.875 153.808593-88.804688c1.976563-1.128906 4.492188-.476562 5.671875 1.46875 1.179688 1.949219.59375 4.480469-1.324218 5.707031l-152.601563 97.265625 148.222656-85.5625c1.964844-1.039062 4.398438-.363281 5.550781 1.535156 1.148438 1.902344.617188 4.371094-1.210937 5.632813l-123.117187 78.058594 118.777343-68.542969c1.960938-1.0625 4.414063-.40625 5.582031 1.5 1.164063 1.90625.632813 4.390625-1.210937 5.652344l-120.824219 77.976562 116.453125-67.222656c1.964844-1.039062 4.398438-.367188 5.550781 1.535156 1.148438 1.902344.617188 4.371094-1.210937 5.632813l-68.828125 43.644531 64.503906-37.234375c1.953125-1.066406 4.402344-.421875 5.574219 1.46875 1.175781 1.890625.671875 4.371094-1.152344 5.648437l-98.167969 65.3125 93.730469-54.121093c1.953125-1.117188 4.441407-.488281 5.632813 1.417969 1.195312 1.910156.671875 4.417968-1.183594 5.691406l-79.90625 54.0625 75.457031-43.5625c1.945313-1.117188 4.425781-.507813 5.628907 1.386718 1.203124 1.894532.707031 4.398438-1.132813 5.6875l-66.71875 46.582032 62.222656-35.921875c1.945313-1.101563 4.414063-.480469 5.609375 1.410156 1.195313 1.890625.699219 4.386719-1.128906 5.671875l-36.820312 25.410156 32.339843-18.667968c1.9375-1.125 4.414063-.527344 5.628907 1.351562 1.214843 1.882812.738281 4.386719-1.082032 5.691406l-30.542968 21.964844 26.019531-15c1.898437-1.070312 4.296875-.515625 5.527343 1.28125 1.234376 1.796875.882813 4.238281-.800781 5.617188l-28.429687 22.914062 23.710937-13.679688c1.894531-1.082031 4.296875-.535156 5.535157 1.261719 1.238281 1.792969.898437 4.234375-.785157 5.621094l-9.574219 7.804687 4.824219-2.777343c1.738281-.988281 3.929688-.613281 5.242188.894531 1.3125 1.511719 1.375 3.734375.15625 5.316406l-9.234375 11.828125 2.710937-1.5625c1.300781-.828125 2.953125-.875 4.296875-.125 1.347656.753907 2.171875 2.179688 2.152344 3.722657-.019531 1.542968-.886719 2.949218-2.25 3.664062l-21.488281 12.351562c-1.738281.988282-3.929688.613282-5.242188-.894531-1.308593-1.507812-1.375-3.730469-.15625-5.316406l9.234375-11.816406-31.230468 18.027343c-1.894532 1.101563-4.316407.5625-5.5625-1.238281-1.246094-1.804687-.898438-4.257812.800781-5.644531l9.578125-7.804688-25.449219 14.6875c-1.898437 1.09375-4.316406.542969-5.554687-1.261718-1.238282-1.804688-.882813-4.257813.820312-5.636719l28.4375-22.90625-51.652344 29.804687c-1.9375 1.125-4.414062.53125-5.632812-1.351562-1.214844-1.882812-.738282-4.382812 1.082031-5.6875l30.511719-21.949219-50.21875 28.988281c-1.941406 1.0625-4.371094.433594-5.558594-1.4375-1.183594-1.867187-.710938-4.335937 1.078125-5.636718l36.863281-25.449219-56.335937 32.523437c-1.941407 1.078126-4.382813.457032-5.574219-1.417968-1.191406-1.871094-.722656-4.34375 1.074219-5.648438l66.703125-46.566406-92.917969 53.632812c-1.949219 1.070313-4.390625.433594-5.574219-1.449218-1.179687-1.886719-.683594-4.363282 1.128906-5.648438l79.886719-54.0625-105.933593 61.160156c-1.953126 1.070313-4.398438.425782-5.574219-1.464843s-.671875-4.371094 1.152343-5.652344l98.203126-65.367187-125.558594 72.484374c-1.964844 1.039063-4.398438.367188-5.550782-1.535156-1.152343-1.902344-.621093-4.371094 1.210938-5.632812l68.734375-43.585938-87.921875 50.753906c-.644531.386719-1.378906.59375-2.132812.597657zm0 0" fill="#cad0d7"/><path d="m341.902344 430.453125c-1.847656-.003906-3.480469-1.214844-4.015625-2.984375-.535157-1.769531.152343-3.679688 1.691406-4.707031l45.777344-30.507813-54.238281 31.289063c-1.96875 1.144531-4.496094.511719-5.6875-1.433594-1.191407-1.941406-.617188-4.480469 1.296874-5.71875l39.703126-25.933594-35.3125 20.386719c-1.964844 1.140625-4.480469.507812-5.675782-1.421875-1.195312-1.929687-.636718-4.460937 1.261719-5.710937l55.671875-36.933594-51.257812 29.5625c-1.964844 1.117187-4.464844.476562-5.648438-1.449219-1.183594-1.921875-.632812-4.441406 1.25-5.691406l43.316406-28.414063-38.917968 22.488282c-1.964844 1.136718-4.480469.507812-5.675782-1.421876-1.195312-1.933593-.636718-4.464843 1.261719-5.714843l53.546875-35.460938-49.132812 28.359375c-1.953126 1.097656-4.421876.472656-5.613282-1.425781-1.1875-1.894531-.679687-4.394531 1.15625-5.671875l74.5-50.78125-70.042968 40.398438c-1.957032 1.078124-4.417969.433593-5.597657-1.464844-1.175781-1.902344-.65625-4.390625 1.183594-5.664063l53.449219-35.402343-49.042969 28.34375c-1.953125 1.097656-4.421875.46875-5.613281-1.425782-1.191406-1.898437-.683594-4.394531 1.15625-5.675781l74.363281-50.679687-69.90625 40.367187c-1.976563 1.128906-4.492187.476563-5.671875-1.46875-1.179688-1.949219-.59375-4.480469 1.324219-5.710937l3.464843-2.195313c-2.019531.65625-4.210937-.296875-5.105468-2.21875-.894532-1.925781-.214844-4.214844 1.589844-5.335937l44.402343-29.125-40.003906 23.097656c-1.960937 1.113281-4.453125.480468-5.640625-1.433594-1.191406-1.917969-.652344-4.429688 1.214844-5.691406l58.09375-38.679688-53.667969 30.972656c-1.953125 1.097657-4.421875.46875-5.613281-1.425781-1.191406-1.898437-.683594-4.394531 1.15625-5.675781l74.28125-50.613281-69.824219 40.289062c-1.96875 1.082031-4.4375.425781-5.605469-1.492187-1.171875-1.917969-.625-4.414063 1.238282-5.667969l23.941406-15.441406-19.574219 11.296875c-1.964844 1.082031-4.429687.429687-5.601563-1.480469-1.171874-1.90625-.640624-4.398437 1.210938-5.664063l41.96875-27.476562-37.585938 21.695312c-1.960937 1.082032-4.421874.4375-5.597656-1.464843-1.175781-1.898438-.65625-4.390625 1.179688-5.660157l56.734375-37.722656-52.316407 30.21875c-1.953124 1.097656-4.421874.46875-5.613281-1.429687-1.191406-1.894531-.683593-4.390625 1.15625-5.671875l72.046875-48.992188-67.582031 39.078125c-1.953125 1.117188-4.433594.496094-5.632813-1.402343-1.199218-1.902344-.6875-4.410157 1.15625-5.6875l70.003907-48.195313-65.527344 37.828125c-1.964844 1.117188-4.464844.476562-5.648437-1.449219-1.1875-1.925781-.632813-4.441406 1.25-5.695312l26.859374-17.625-23.503906 13.546875c-1.953125 1.113281-4.441406.488281-5.632812-1.417969-1.195313-1.910156-.671875-4.417969 1.183594-5.691406l43.984374-29.753907-46.441406 26.808594c-1.949218 1.082032-4.402344.453125-5.589844-1.433594-1.191406-1.882812-.695312-4.371093 1.125-5.660156l48.261719-33-53.132812 30.652344c-1.933594 1.078125-4.375.464844-5.570313-1.402344-1.199218-1.863281-.738281-4.339844 1.046875-5.648437l63.882813-45.324219-70.839844 40.890625c-1.953125 1.082031-4.410156.445313-5.59375-1.449219-1.179688-1.890625-.675781-4.378906 1.152344-5.660156l36.378906-24.40625-40.230469 23.230469c-1.964843 1.117187-4.460937.480469-5.648437-1.445313-1.183594-1.925781-.632813-4.445312 1.25-5.695312l21.042968-13.832032-23.855468 13.765626c-1.9375 1.089843-4.390625.476562-5.589844-1.398438s-.726562-4.359375 1.074219-5.660156l62.515625-44.191406-69.253906 39.949218c-1.96875 1.148438-4.496094.511719-5.6875-1.429687-1.191407-1.941407-.617188-4.480469 1.296874-5.71875l14.765626-9.636719-17.257813 9.953125c-1.957031 1.117187-4.441406.488281-5.636719-1.417969-1.191406-1.910156-.667968-4.417968 1.1875-5.691406l37.578125-25.238281-41.515625 23.964843c-1.9375 1.121094-4.414062.527344-5.628906-1.355468-1.214844-1.878906-.738281-4.382813 1.082031-5.6875l65.148438-46.785156-72.542969 41.882812c-1.957031 1.082031-4.417969.4375-5.597656-1.464844-1.175782-1.898437-.65625-4.390625 1.183594-5.660156l12.957031-8.519531-15.351563 8.863281c-1.917968 1.089844-4.351562.511719-5.570312-1.324219-1.222656-1.839843-.8125-4.304687.9375-5.652343l49.648437-37.726563-59.207031 34.160156c-1.933594 1.109375-4.398438.515625-5.613281-1.355469-1.210938-1.871093-.75-4.367187 1.054687-5.675781l26.539063-19.15625-44.097657 25.476563c-1.914062 1.121094-4.375.558594-5.609374-1.285156-1.238282-1.84375-.824219-4.328126.941406-5.675782l36.6875-28.277344-57.242188 33.054688c-1.933594 1.082031-4.375.476562-5.578125-1.382812-1.199219-1.859376-.75-4.332032 1.027344-5.652344l22.21875-16.023438-17.675781 10.207032c-1.878906 1.070312-4.265625.539062-5.511719-1.230469-1.242187-1.769531-.941406-4.191407.703125-5.601563l25.378906-21.496094-20.570312 11.878907c-1.839844 1.03125-4.15625.542969-5.417969-1.144531-1.265625-1.6875-1.078125-4.050782.429687-5.519532l11.574219-11.054687-6.585937 3.800781c-1.730469.984375-3.914063.621094-5.226563-.875-1.316406-1.492188-1.402343-3.703125-.203125-5.292969l5.035156-6.671875c-1.734374-.316406-3.085937-1.675781-3.386718-3.410156-.304688-1.734375.507812-3.476562 2.035156-4.355469l13.730469-7.90625c1.730469-.992187 3.921875-.628906 5.238281.871094 1.320312 1.496094 1.398438 3.714844.191406 5.304687l-3.507812 4.625 18.867187-10.875c1.839844-1.035156 4.15625-.546874 5.421875 1.140626 1.261719 1.6875 1.074219 4.050781-.433594 5.523437l-11.566406 11.042969 30.695313-17.707032c1.878906-1.074218 4.261719-.539062 5.507812 1.230469 1.246094 1.765625.941407 4.191407-.699219 5.601563l-25.375 21.460937 49.054688-28.292969c1.929688-1.085937 4.371094-.480468 5.574219 1.378907s.753906 4.335937-1.027344 5.652343l-22.199219 15.992188 39.882813-23.023438c1.914062-1.105468 4.351562-.539062 5.582031 1.292969 1.234375 1.835938.832031 4.3125-.921875 5.664063l-36.695313 28.292968 61.085938-35.25c1.933594-1.113281 4.398438-.515624 5.613281 1.355469 1.210938 1.871094.75 4.363281-1.054687 5.675781l-26.523438 19.136719 45.332032-26.167969c1.917968-1.09375 4.351562-.511718 5.574218 1.324219 1.21875 1.835938.808594 4.304688-.941406 5.648438l-49.652344 37.679687 77.378906-44.652344c1.957032-1.082031 4.417969-.4375 5.59375 1.460938 1.179688 1.902344.660157 4.390625-1.179687 5.664062l-12.953125 8.550782 26.164062-15.074219c1.9375-1.121094 4.414063-.527344 5.628907 1.355469 1.214843 1.878906.738281 4.382812-1.082031 5.6875l-65.179688 46.769531 75.277344-43.460937c1.957031-1.097657 4.429687-.460938 5.617187 1.441406 1.183594 1.902344.664063 4.402344-1.183593 5.675781l-37.601563 25.261719 41.5625-24.027344c1.96875-1.148438 4.496094-.511719 5.6875 1.429688 1.191406 1.945312.617187 4.480468-1.296875 5.71875l-14.738281 9.636718 17.195312-9.921875c1.941407-1.089843 4.394531-.476562 5.59375 1.398438s.726563 4.359375-1.078125 5.660156l-62.539062 44.226563 69.265625-39.996094c1.960937-1.09375 4.4375-.453125 5.617187 1.457031 1.179688 1.914063.648438 4.417969-1.210937 5.679687l-20.882813 13.757813 23.710938-13.691406c1.957031-1.097657 4.429687-.460938 5.613281 1.441406 1.1875 1.90625.664063 4.40625-1.183594 5.675781l-36.476562 24.46875 40.339843-23.292968c1.941407-1.121094 4.417969-.515626 5.628907 1.371093 1.210937 1.886719.722656 4.390625-1.105469 5.6875l-63.882812 45.324219 70.839843-40.890625c1.957031-1.136719 4.457031-.519531 5.660157 1.394531 1.203124 1.914063.675781 4.433594-1.195313 5.703125l-48.210937 32.972657 53.140624-30.65625c1.949219-1.066407 4.390626-.429688 5.574219 1.453124 1.179688 1.882813.683594 4.363282-1.128906 5.648438l-44.046875 29.804688 48.523438-28.03125c1.964843-1.117188 4.460937-.480469 5.648437 1.445312 1.183594 1.925781.632813 4.445312-1.25 5.695312l-26.859375 17.625 29.9375-17.28125c1.945312-1.070312 4.386719-.441406 5.574219 1.4375 1.183593 1.875.703125 4.351563-1.101563 5.648438l-69.984375 48.195312 74.820313-43.203124c1.953125-1.097657 4.421875-.46875 5.613281 1.429687 1.1875 1.894531.679687 4.390625-1.15625 5.671875l-72.039063 48.984375 68.589844-39.601563c1.957032-1.078124 4.417969-.433593 5.597656 1.464844 1.175782 1.902344.65625 4.390625-1.183593 5.664063l-56.730469 37.761719 52.316406-30.21875c1.960938-1.078126 4.425782-.429688 5.601563 1.480468 1.171875 1.90625.636719 4.402344-1.210938 5.664063l-41.96875 27.480469 37.585938-21.699219c1.96875-1.082031 4.4375-.421875 5.605469 1.492187 1.167968 1.917969.621093 4.414063-1.242188 5.667969l-23.9375 15.4375 19.574219-11.289063c1.945312-1.058593 4.378906-.421874 5.558593 1.453126 1.175782 1.875.695313 4.34375-1.101562 5.636718l-74.296875 50.613282 69.855469-40.289063c1.960937-1.113281 4.453125-.480469 5.640625 1.4375 1.191406 1.914063.652343 4.425781-1.214844 5.691406l-58.089844 38.675781 53.664063-30.972656c1.960937-1.066406 4.410156-.414062 5.582031 1.484375 1.167969 1.898438.648437 4.378907-1.183594 5.648438l-44.398437 29.136719 40-23.089844c1.96875-1.066406 4.429687-.402344 5.589844 1.511718 1.160156 1.914063.613281 4.402344-1.242188 5.65625l-3.464844 2.207032c1.984375-.601563 4.109375.335937 5.003906 2.207031.890626 1.871094.285157 4.113281-1.429687 5.277344l-74.363281 50.679687 69.90625-40.363281c1.964844-1.136719 4.480468-.507813 5.675781 1.421875 1.195313 1.933594.636719 4.464844-1.257813 5.714844l-53.433593 35.359375 49-28.285157c1.945312-1.058593 4.378906-.421874 5.558593 1.453126 1.175782 1.875.695313 4.34375-1.101562 5.640624l-74.5 50.777344 70.042969-40.429687c1.957031-1.082031 4.417969-.4375 5.597656 1.464843 1.175781 1.898438.65625 4.390626-1.183594 5.660157l-53.546875 35.472656 49.132813-28.394531c1.964843-1.117188 4.464843-.480469 5.648437 1.445312 1.183594 1.925782.632813 4.445313-1.25 5.695313l-43.316406 28.386719 38.917969-22.460938c1.957031-1.082031 4.417969-.4375 5.597656 1.464844 1.175781 1.898437.65625 4.390625-1.183594 5.660156l-55.671875 36.976562 51.257813-29.597656c1.96875-1.144531 4.496093-.507812 5.6875 1.433594 1.191406 1.941406.617187 4.480469-1.296875 5.71875l-39.703125 25.933594 35.3125-20.371094c1.953125-1.066406 4.402343-.421875 5.574219 1.46875 1.175781 1.890625.671874 4.371094-1.148438 5.652344l-45.804688 30.523437 41.378907-23.886719c1.96875-1.144531 4.496093-.507812 5.6875 1.433594 1.191406 1.941406.617187 4.480469-1.296875 5.71875l-7.796875 5.085938 3.40625-1.964844c1.945312-1.085938 4.398437-.464844 5.589843 1.414062 1.195313 1.882813.710938 4.367188-1.097656 5.664063l-31.34375 21.820313 26.859375-15.492188c1.941407-1.140625 4.433594-.546875 5.652344 1.347656 1.21875 1.890625.730469 4.40625-1.109375 5.703125l-21.035156 15.015625 16.492187-9.519531c1.9375-1.09375 4.386719-.488281 5.59375 1.378906 1.203125 1.867188.742188 4.351563-1.050781 5.664063l-4.332031 3.097656c1.882812-.957031 4.183593-.363281 5.371093 1.378906 1.1875 1.746094.890626 4.101563-.6875 5.503906l-17.191406 15.25 12.289063-7.09375c1.820312-1 4.097656-.519531 5.355469 1.132813 1.261718 1.648437 1.125 3.972656-.320313 5.464844l-5.035156 5.09375c2.019531-.957031 4.433593-.164063 5.492187 1.800781s.394532 4.417969-1.511718 5.578125l-27.28125 15.722656c-1.820313 1-4.097657.515625-5.355469-1.132812-1.261719-1.652344-1.125-3.972657.320312-5.464844l5.035157-5.035156-20.277344 11.699219c-1.84375.976562-4.128906.449218-5.355469-1.238282-1.230469-1.6875-1.035156-4.019531.460937-5.476562l17.183594-15.320313-38.300781 22.085938c-1.933594 1.09375-4.386719.488281-5.589844-1.378907-1.207031-1.871093-.746093-4.351562 1.050781-5.664062l4.277344-3.070312-17.574218 10.144531c-1.941407 1.140625-4.433594.546875-5.652344-1.34375-1.21875-1.894531-.726563-4.410157 1.113281-5.707031l21.039063-15.023438-38.296876 22.109375c-1.945312 1.085937-4.398437.464844-5.589843-1.414063-1.195313-1.882812-.710938-4.367187 1.097656-5.660156l31.34375-21.824218-50.085937 28.941406c-1.96875 1.144531-4.492188.507812-5.6875-1.433594-1.191407-1.941406-.613282-4.480469 1.296874-5.71875l7.832032-5.101562-21.277344 12.277343c-.632812.378907-1.359375.582031-2.097656.589844zm0 0" fill="#a9b0bb"/><g fill="#262626"><path d="m29.246094 496.917969c56.964844 5.960937 117.828125 0 175.078125 0h84.152343c10.148438 0 25.835938 2.21875 35.109376-3.589844 14.421874-9.03125 11.308593-25.507813 11.308593-40.097656v-23.171875c43.730469.199218 87.785157 1.820312 131.414063-.078125 28.859375-1.25 36.472656-11.203125 36.472656-39.339844v-276.402344c.207031-.511719.207031-1.085937 0-1.597656-14.832031-35.695313-60-71.394531-88.972656-96.289063-22.929688-19.722656-49.992188-13.496093-79.300782-13.496093-44.15625 0-92.058593-5.371094-135.914062 0-35.210938 4.304687-27.875 39.214843-27.09375 67.359375h-85.816406c-26.566406 0-75.539063-11.242188-81.953125 23.976562-8.394531 46.007813 0 101.855469 0 148.449219v193.484375c0 26.113281-7.898438 57.277344 25.515625 60.792969zm154.539062-453.246094c0-24.617187 3.710938-33.386719 28.621094-33.386719h97.710938c22.308593 0 50.527343-4.769531 72.5 0 20.296874 4.414063 34.792968 25.851563 49.203124 40.289063 19.195313 19.195312 48.121094 39.859375 58.753907 65.28125v271.636719c0 13.339843 3.667969 27.859374-10.757813 35.035156-15.371094 7.636718-52.039062 0-68.980468 0-19.589844 0-55.796876 7.109375-74.558594 0-.453125-.164063-.914063-.296875-1.382813-.402344v-22.621094c0-.148437 0-.328125 0-.46875v-166.804687c0-14.191407.746094-25.875 0-36.46875v-14.519531c.195313-.464844.195313-.988282 0-1.453126-7.484375-15.253906-18.160156-28.71875-31.308593-39.480468-17.996094-20.558594-39.945313-49.179688-63.328126-62.953125-.839843-.546875-1.621093-1.183594-2.441406-1.679688-3.003906-1.738281-6.222656-3.070312-9.578125-3.953125-.226562-.074218-.445312-.125-.664062-.191406-.980469-.261719-1.953125-.554688-2.960938-.753906-1.007812-.203125-2.074219-.613282-3.113281-.839844-1.757812-.265625-3.535156-.359375-5.304688-.277344-10.308593-.707031-21.070312.425782-30.78125.46875-.453124-1.214844-1.015624-2.382812-1.679687-3.5-2.289063-4.179687.050781-18.128906.050781-22.929687zm-167.867187 51.863281c3.96875-18.035156 11.355469-18.289062 28.5625-18.289062h89.484375c11.832031 0 24.867187-1.007813 37.910156-1.59375.734375 1.222656 2.097656 1.921875 3.519531 1.804687 13.566407-1.113281 27.214844-.890625 40.742188.65625 19.453125 5.269531 33.679687 25.429688 47.789062 39.546875.839844.839844 1.796875 1.679688 2.679688 2.519532 1.074219 1.148437 2.15625 2.308593 3.214843 3.355468 24.0625 24.066406 52.878907 41.875 52.878907 77.480469v258.191406c0 39.785157-28.269531 30.679688-61.0625 30.679688h-176.566407c-32.171874 0-69.167968 9.464843-69.167968-32.003907v-315.453124c0-14.359376-3.117188-32.707032 0-46.875zm0 0"/><path d="m64.632812 160.183594h159.476563c2.625 0 13.773437-5.039063 7.871094-5.039063h-159.472657c-2.628906 0-13.773437 5.039063-7.875 5.039063zm0 0"/><path d="m66.386719 245.726562h159.476562c5.457031 0 12.589844-8.257812 4.363281-8.257812h-159.472656c-5.457031 0-12.558594 8.257812-4.367187 8.257812zm0 0"/><path d="m71.027344 322.429688c-4.136719 0-13.058594 6.210937-4.917969 6.210937h159.476563c4.136718 0 13.058593-6.210937 4.917968-6.210937zm0 0"/><path d="m138.015625 405.78125h-67.144531c-4.878906 0-12.792969 7.371094-4.601563 7.371094h67.148438c4.875 0 12.792969-7.371094 4.597656-7.371094zm0 0"/></g></svg>