<svg height="512" viewBox="0 0 60 46" width="512" xmlns="http://www.w3.org/2000/svg"><g id="026---Boolean" fill="none"><path id="Path" d="m17.09 40.389c-.2183253-.0000793-.4113554-.1418057-.4768151-.3500867-.0654598-.2082809.0117883-.4349519.1908151-.5599133l7.461-5.2-9.788 5.651c-.2361017.1433179-.5436821.0681017-.687-.168-.1433178-.2361017-.0681017-.5436821.168-.687l.929-.591-1.83 1.056c-.2344449.1460793-.5429207.0744448-.689-.16-.1460793-.2344449-.0744448-.5429207.16-.689l9.494-6.352-11.029 6.368c-.2330829.1306613-.5277074.0549657-.6689423-.1718661-.1412349-.2268319-.0791592-.5246238.1409423-.6761339l11.845-7.95-13.317 7.691c-.23470287.1405531-.53878699.0663884-.6824238-.1664401-.14363681-.2328284-.07348967-.5378644.1574238-.6845599l11.743-7.734-12.86 7.422c-.15273104.0927104-.34332076.0968973-.49997586.0109836-.1566551-.0859138-.25557594-.2488758-.2595-.4275s.08774482-.3457732.24047586-.4384836l7.948-5.064-8.469 4.889c-.23486417.1312813-.53150396.0531604-.67124116-.1767732-.1397372-.2299337-.07245767-.5292187.15224116-.6772268l8.145-5.179-8.661 5c-.23389628.1269547-.52624912.04845-.66508708-.1785941-.13883795-.227044-.07550148-.5230536.14408708-.6734059l11.389-7.355-11.839 6.833c-.23508655.127347-.52875831.0472199-.66659082-.1818764-.13783251-.2290964-.071048-.5260868.15159082-.6741236l3.784-2.361-3.937 2.273c-.23477127.1336383-.53323995.0566316-.67405087-.1739091-.14081092-.2305408-.07304023-.5312411.15305087-.6790909l11.13-7.166-11.325 6.538c-.23486417.1312813-.53150396.0531604-.67124116-.1767732-.1397372-.2299337-.07245767-.5292187.15224116-.6772268l9.274-5.921-9.376 5.414c-.23543794.13455-.53521485.0569022-.67572813-.1750261s-.0705395-.5335888.15772813-.6799739l7.508-4.759-7.361 4.25c-.23226298.1164266-.5149945.0355685-.65057788-.1860582-.13558339-.2216267-.07883618-.510166.13057788-.6639418l8.544-5.463-8.408 4.854c-.2341443.133112-.53165209.0568382-.67287099-.1725078-.1412189-.2293459-.07539606-.5293391.14887099-.6784922l11.34-7.44-10.99 6.349c-.23400272.1389988-.53620161.0652981-.67993859-.1658244-.14373699-.2311225-.07620784-.5347601.15193859-.6831756l11.687-7.82-11.14 6.433c-.23637787.1430418-.54395825.0673779-.687-.169s-.06737787-.5439582.169-.687l2.35-1.487-1.711.987c-.23665401.1433179-.54468209.067654-.68799998-.169s-.06765402-.5446821.16899998-.688l1.721-1.094-.9.518c-.23296731.1327691-.52919188.0581284-.67142871-.1691822-.14223683-.2273105-.07984054-.5263539.14142871-.6778178l7.252-4.912-6.019 3.48c-.2310609.1298083-.52326795.0567757-.66608655-.1664779s-.08662801-.5191613.12808655-.6745221l6.039-4.258-4.1 2.365c-.22546345.1287726-.5119753.0635416-.65947026-.1501437s-.1068861-.5047094.09347026-.6698563l3.889-3.169c-.19120069.0153248-.37387583-.0818677-.468-.249-.13806467-.23914015-.05613408-.54492481.183-.683l4.931-2.846c.2254634-.12877265.5119753-.06354158.6594703.1501437.1474949.21368528.1068861.50470942-.0934703.6698563l-3.644 2.971 8.275-4.778c.2310609-.12980827.523268-.05677568.6660866.16647793.1428185.2232536.086628.51916126-.1280866.67452207l-6.038 4.257 8.524-4.921c.2333681-.13826705.5344194-.06524166.6785003.16458243.144081.22982408.078635.53261344-.1475003.68241757l-7.255 4.913 9.092-5.248c.234481-.12707284.5274228-.04774006.6657366.18029089.1383139.22803094.0733058.52448086-.1477366.67370911l-1.708 1.086 2.6-1.5c.2363779-.1427656.5437344-.06687786.6865.16950001s.0668779.54373438-.1695.68649999l-2.358 1.493 3.084-1.78c.2330829-.13066131.5277074-.05496574.6689423.17186612.1412349.22683187.0791592.52462377-.1409423.67613388l-11.68 7.815 13.144-7.589c.2336556-.13069104.5287926-.05414659.6694787.17363081.140686.22777741.0769932.52595205-.1444787.67636919l-11.345 7.438 12.3-7.1c.2348642-.13128134.531504-.05316042.6712412.17677323.1397372.22993367.0724576.52921867-.1522412.67722677l-8.544 5.463 9.21-5.318c.2354379-.13455.5352149-.0569022.6757281.1750261.1405133.2319283.0705395.5335888-.1577281.6799739l-7.51 4.759 7.876-4.546c.2348642-.1312813.531504-.0531604.6712412.1767732.1397372.2299337.0724576.5292187-.1522412.6772268l-9.266 5.912 9.708-5.6c.2335877-.1237383.5231326-.0442789.6608429.1813541s.0760007.5194731-.1408429.6706459l-11.13 7.163 11.441-6.6c.2350866-.127347.5287583-.0472199.6665908.1818764.1378325.2290964.071048.5260868-.1515908.6741236l-3.8 2.369 3.833-2.213c.2347713-.1336383.5332399-.0566316.6740509.1739091.1408109.2305408.0730402.5312411-.1530509.6790909l-11.382 7.348 11.508-6.644c.2348642-.1312813.531504-.0531604.6712412.1767732.1397372.2299337.0724576.5292187-.1522412.6772268l-8.14 5.176 8.051-4.647c.234481-.1270728.5274228-.0477401.6657366.1802909.1383139.2280309.0733058.5244809-.1477366.6737091l-7.953 5.068 7.774-4.488c.2347029-.1405531.538787-.0663884.6824238.1664401.1436368.2328284.0734897.5378644-.1574238.6845599l-11.75 7.736 11.423-6.594c.232368-.1256461.5223842-.0488566.6621282.1753162.1397441.2241727.0809951.5183743-.1341282.6716838l-11.839 7.949 11.3-6.522c.2344449-.1460793.5429207-.0744448.689.16.1460793.2344449.0744448.5429207-.16.689l-9.5 6.354 8.658-5c.2354379-.13455.5352149-.0569022.6757281.1750261.1405133.2319283.0705395.5335888-.1577281.6799739l-.929.591.063-.036c.2318603-.1330617.527371-.0602043.6708066.1653857.1434357.22559.0840493.5240996-.1348066.6776143l-7.457 5.2 5.87-3.388c.2319831-.1309881.5259285-.0570795.6683699.1680527.1424414.2251321.0833463.52241-.1343699.6759473l-2.814 1.932.923-.532c.2285788-.1329729.5211739-.064966.667677.1551861.1465031.220152.0962484.5163129-.114677.6758139l-3.2 2.43c.0748607.0426902.1367275.1049027.179.18.1382327.2388784.0567713.5445824-.182.683l-4.748 2.741c-.2285788.1329729-.5211739.064966-.667677-.1551861-.1465031-.220152-.0962484-.5163129.114677-.6758139l1.59-1.207-5.145 2.97c-.2324067.1328499-.5282158.0590851-.6710333-.1673329s-.0819688-.5251514.1380333-.6776671l2.812-1.931-4.976 2.87c-.0757806.0445497-.1620945.0680271-.25.068z" fill="#2885ee"/><path id="Path" d="m40.464 40.332c-.2185449-.0003247-.4115564-.1425484-.4765995-.3511902-.0650431-.2086417.0129552-.4353514.1925995-.5598098l7.693-5.315-9.866 5.7c-.2330829.1306613-.5277074.0549657-.6689423-.1718661-.1412349-.2268319-.0791592-.5246238.1409423-.6761339l8.544-5.723-10.182 5.874c-.2341443.133112-.5316521.0568382-.672871-.1725078-.1412189-.2293459-.075396-.5293391.148871-.6784922l8.152-5.325-9.314 5.377c-.233204.1287421-.5263939.0520483-.6666872-.1743946-.1402933-.226443-.0784231-.5231151.1406872-.6746054l11.655-7.745-12.9 7.449c-.2349709.1292146-.5300387.050062-.6687925-.179405-.1387537-.2294671-.0717837-.5275361.1517925-.675595l5.218-3.3-5.81 3.353c-.2343611.1288923-.5286543.0505227-.6678755-.1778537-.1392213-.2283764-.0740613-.5258734.1478755-.6751463l9.527-6.12-10.135 5.853c-.2334572.1253051-.5241289.0467367-.6626677-.1791186-.1385388-.2258554-.0768365-.5205686.1406677-.6718814l12.106-7.878-12.792 7.386c-.2343611.1288923-.5286543.0505227-.6678755-.1778537-.1392213-.2283764-.0740613-.5258734.1478755-.6751463l10.649-6.847-11.056 6.385c-.2354379.13455-.5352149.0569022-.6757281-.1750261-.1405133-.2319283-.0705395-.5335888.1577281-.6799739l8.067-5.111-8.255 4.766c-.2361017.1433179-.5436821.0681017-.687-.168-.1433178-.2361017-.0681017-.5436821.168-.687l8.571-5.445-8.668 5c-.2354116.1379583-.5379577.061708-.6798637-.1713453-.1419059-.2330532-.070765-.5368414.1598637-.6826547l10.48-6.731-10.523 6.072c-.2343611.1288923-.5286543.0505227-.6678755-.1778537-.1392213-.2283764-.0740613-.5258734.1478755-.6751463l9.559-6.134-9.459 5.461c-.2347029.1405531-.538787.0663884-.6824238-.1664401-.1436368-.2328284-.0734897-.5378644.1574238-.6845599l12.2-8.032-11.952 6.9c-.2336556.130691-.5287926.0541466-.6694787-.1736308-.140686-.2277774-.0769932-.5259521.1444787-.6763692l10.584-6.959-10.181 5.876c-.2355494.1444224-.5435775.0705494-.688-.165-.1444224-.2355495-.0705494-.5435775.165-.688l7.373-4.78-6.692 3.863c-.233204.1287421-.5263939.0520483-.6666872-.1743946-.1402933-.226443-.0784231-.5231151.1406872-.6746054l7.629-5.042-6.734 3.887c-.2313246.1263251-.5209869.0513891-.6620294-.1712679-.1410425-.2226569-.0850249-.5165645.1280294-.6717321l8.159-5.63-6.779 3.917c-.2333482.1425022-.537887.0711396-.6836338-.1601958-.1457468-.2313355-.0786439-.5368412.1506338-.6858042l4.214-2.881-2.526 1.458c-.2251719.1281476-.5109328.0630663-.6584056-.14995-.1474728-.2130162-.107801-.5033971.0914056-.66905l4.008-3.291c-.2019575.0253005-.3998704-.0707166-.505-.245-.1380647-.23914015-.0561341-.54492481.183-.683l4.931-2.846c.2251719-.12814755.5109328-.06306634.6584056.14994995s.107801.50339711-.0914056.66905005l-3.844 3.155 8.617-4.973c.2321092-.12908381.5246372-.05417632.6661393.17057796s.0825963.52091953-.1341393.67442204l-4.212 2.88 6.189-3.573c.2322938-.13517681.5298928-.06253672.6737842.16446202s.0825928.52713916-.1387842.67953798l-8.161 5.63 10.3-5.946c.2340569-.1357068.5336008-.06062069.6759704.16944421s.0759129.53164078-.1499704.68055579l-7.623 5.038 9.1-5.253c.2355494-.14442245.5435775-.07054943.688.16500001.1444224.23554944.0705494.54357752-.165.68799999l-7.371 4.779 8.347-4.82c.2347029-.1405531.538787-.06638836.6824238.16644007s.0734897.5378644-.1574238.68455993l-10.585 6.954 11.749-6.78c.2336556-.13069104.5287926-.05414659.6694787.17363081.140686.22777741.0769932.52595205-.1444787.67636919l-12.2 8.036 13.207-7.625c.2343611-.12889229.5286543-.0505227.6678755.1778537.1392213.2283764.0740613.5258734-.1478755.6751463l-9.562 6.134 10.162-5.867c.2343611-.1288923.5286543-.0505227.6678755.1778537.1392213.2283764.0740613.5258734-.1478755.6751463l-10.472 6.736 10.986-6.343c.2348642-.1312813.531504-.0531604.6712412.1767732.1397372.2299337.0724576.5292187-.1522412.6772268l-8.563 5.44 8.858-5.121c.2341527-.123715.5241564-.0433988.6613045.1831476.1371481.2265465.0738659.5207372-.1443045.6708524l-8.079 5.126 8.232-4.752c.2354116-.1379583.5379577-.061708.6798637.1713453.1419059.2330532.070765.5368414-.1598637.6826547l-10.643 6.838 10.832-6.253c.2337734-.1287456.5274505-.051198.667188.1761759.1397374.2273739.07627.5244122-.144188.6748241l-12.109 7.882 12.126-7c.2354116-.1379583.5379577-.061708.6798637.1713453.1419059.2330532.070765.5368414-.1598637.6826547l-9.534 6.125 9.409-5.432c.2349709-.1292146.5300387-.050062.6687925.179405.1387537.2294671.0717837.5275361-.1517925.675595l-5.2 3.288 4.821-2.79c.233204-.1287421.5263939-.0520483.6666872.1743946.1402933.226443.0784231.5231151-.1406872.6746054l-11.662 7.751 11.27-6.505c.2347034-.1364868.5354374-.0607325.6774741.1706544.1420368.2313868.073465.5338394-.1544741.6813456l-8.148 5.323 7.474-4.315c.232368-.1256461.5223842-.0488566.6621282.1753162.1397441.2241727.0809951.5183743-.1341282.6716838l-8.544 5.723 7.548-4.358c.2322938-.1351768.5298928-.0625367.6737842.164462.1438914.2269988.0825928.5271392-.1387842.679538l-7.7 5.319 6.233-3.6c.2281943-.1273484.5159664-.0574929.6603781.1603041.1444117.2177969.0967481.5100652-.1093781.6706959l-6.354 4.82 3.57-2.061c.1549945-.0985297.351531-.1041539.5119064-.0146489.1603754.0895049.2587712.2597296.2562855.4433739s-.1054527.3511436-.2681919.436275l-10.473 6.049c-.2283835.1299972-.5184238.0610156-.6638282-.1578813-.1454044-.2188968-.0965443-.5129964.1118282-.6731187l6.358-4.824-10.021 5.786c-.0758978.0441549-.1621931.067282-.25.067z" fill="#2885ee"/><path id="Path" d="m29.657 35.079c-.2011266-.0004305-.3824169-.1213306-.4601142-.3068439-.0776974-.1855134-.0366752-.3995231.1041142-.5431561l.332-.338-.443.255c-.220007.1195261-.4945025.0578939-.6422936-.1442135-.147791-.2021073-.1233056-.4823693.0572936-.6557865l1.169-1.054-1.435.828c-.222272.1250569-.5030453.0627806-.6515981-.1445262-.1485528-.2073069-.1172703-.4931974.0725981-.6634738l2.469-2.161-2.707 1.562c-.2250277.1259685-.5089467.060127-.6555632-.1520265-.1466165-.2121536-.1078274-.5010142.0895632-.6669735l2.779-2.277-2.965 1.708c-.2238916.1275836-.5080784.0641108-.6564103-.1466086-.148332-.2107193-.1122202-.4996603.0834103-.6673914l4.117-3.473-4.19 2.42c-.2250277.1259685-.5089467.060127-.6555632-.1520265-.1466165-.2121536-.1078274-.5010142.0895632-.6669735l4.129-3.383-4.087 2.357c-.227445.1317107-.5180356.064845-.6650404-.1530278-.1470048-.2178727-.1002333-.512366.1070404-.6739722l3.432-2.675-3.05 1.761c-.2290632.1321979-.5214568.063148-.6671806-.1575572-.1457237-.2207053-.094369-.5167199.1171806-.6754428l2.163-1.619-1.757 1.016c-.2268147.12995-.5154475.0632557-.6622581-.1530278-.1468106-.2162836-.1022433-.50915.1022581-.6719722l3.2-2.536-2.482 1.433c-.2300482.1308569-.5222207.059778-.6664488-.1621318-.1442281-.2219099-.0905463-.5177734.1224488-.6748682l.528-.385c-.1845111.0173788-.3640909-.0659157-.47-.218-.1461744-.2179181-.0990199-.5117609.108-.673l1.42-1.107-.45.259c-.2189627.1248229-.4965995.0671571-.6477436-.1345378-.1511442-.2016949-.1285371-.4843546.0527436-.6594622l2.645-2.533-.962.554c-.2079146.1194294-.4713404.0744499-.6278456-.1072036-.1565052-.1816534-.1620244-.4488348-.0131544-.6367964l2.578-3.238c-.1111415-.234602-.0242577-.5152367.2-.646l.655-.377c.2082249-.1217592.4736943-.0775012.6311568.105224.1574625.1827251.1620232.4518198.0108432.639776l-1.652 2.077 2.267-1.308c.219385-.1342545.5048344-.0801688.6599003.1250351.1550659.2052038.1291551.4945743-.0599003.6689649l-2.644 2.531 3.1-1.791c.2277686-.1327124.5194462-.0657934.6665848.1529333s.0991876.5141157-.1095848.6750667l-1.425 1.111 1.463-.845c.2300482-.1308569.5222207-.059778.6664488.1621318.1442281.2219099.0905463.5177734-.1224488.6748682l-.2.148.148-.085c.2263468-.1267998.5120755-.0594093.6579064.1551704.1458308.2145797.1033101.5050523-.0979064.6688296l-3.2 2.536 3.149-1.818c.2290632-.1321979.5214568-.063148.6671806.1575572.1457237.2207053.094369.5167199-.1171806.6754428l-2.169 1.619 2.016-1.163c.2272713-.1290292.5155715-.0612656.6615658.155498.1459944.2167636.1004262.5093938-.1045658.671502l-3.432 2.675 3.149-1.818c.2256098-.1311968.5141774-.0668035.6626093.1478598.1484318.2146634.1067938.5073817-.0956093.6721402l-4.125 3.379 3.768-2.172c.2238916-.1275836.5080784-.0641108.6564103.1466086.148332.2107193.1122202.4996603-.0834103.6673914l-4.123 3.475 3.4-1.962c.2250277-.1259685.5089467-.060127.6555632.1520265.1466165.2121536.1078274.5010142-.0895632.6669735l-2.778 2.275 1.812-1.045c.222272-.1250569.5030453-.0627806.6515981.1445262.1485528.2073069.1172703.4931974-.0725981.6634738l-2.469 2.163 1.121-.646c.220007-.1195261.4945025-.0578939.6422936.1442135.147791.2021073.1233056.4823693-.0572936.6557865l-1.4 1.265c.2017423-.0003681.3839414.1205405.4619846.3065764.0780432.1860358.0366391.4007475-.1049846.5444236l-1.449 1.475c.0148119.0198861.0284999.0405851.041.062.1373847.2389169.0555349.543953-.183.682l-1.423.822c-.0762873.0450804-.1633904.0685844-.252.068z" fill="#439cf8"/><path id="Path" d="m29.377 34.74c-.2047267.0000625-.3888078-.1246865-.4646134-.3148615-.0758055-.190175-.0280182-.4073491.1206134-.5481385l.643-.607-.82.472c-.2205392.1280792-.5021318.0696485-.6535046-.1356028-.1513729-.2052513-.124009-.4915375.0635046-.6643972l2.313-2.15-2.705 1.561c-.2280542.1290416-.517047.0601323-.6623353-.1579314-.1452882-.2180638-.0975826-.5113034.1093353-.6720686l.695-.53-.672.388c-.2229237.1277986-.5064223.0658196-.6556784-.1433455-.1492561-.2091652-.11567-.4974096.0776784-.6666545l3.877-3.371-4.164 2.4c-.2280542.1290416-.517047.0601323-.6623353-.1579314-.1452882-.2180638-.0975826-.5113034.1093353-.6720686l2.582-1.977-2.46 1.42c-.225024.1298327-.5119893.0657046-.6603401-.147566s-.108657-.5046224.0913401-.670434l4.344-3.6-4.258 2.457c-.2283835.1299972-.5184238.0610156-.6638282-.1578813-.1454044-.2188968-.0965443-.5129964.1118282-.6731187l2.814-2.14-2.421 1.4c-.2301828.1290216-.5210052.0569569-.6643125-.1646141-.1433073-.2215711-.0897614-.5163656.1223125-.6733859l.912-.658-.493.284c-.2304184.1322364-.5240189.0611893-.6684864-.1617642-.1444674-.2229535-.0893536-.5199576.1254864-.6762358l.845-.611-.2.115c-.2296891.1296297-.5205695.0585592-.6646041-.1623819s-.0916869-.5157667.1196041-.6736181l.632-.462c-.232368.1256461-.5223842.0488566-.6621282-.1753162-.1397441-.2241727-.0809951-.5183743.1341282-.6716838l.614-.449h-.008c-.2152152 0-.4062846-.137715-.4743416-.3418861-.0680571-.2041711.0021694-.4289848.1743416-.5581139l.767-.586c-.1828819.0308146-.3680227-.0404818-.483-.186-.1532349-.1972185-.1374397-.4772632.037-.656l2.609-2.673-.5.291c-.2109099.1217971-.4788947.0739095-.6345697-.1133946-.1556749-.1873041-.1537451-.4595272.0045697-.6446054l1.994-2.328c-.0805502-.2271245.012368-.479391.221-.6l.655-.377c.2109099-.1217971.4788947-.0739095.6345697.1133946.1556749.1873041.1537451.4595272-.0045697.6446054l-.841.982 1.117-.645c.2162377-.1247517.4913592-.0708905.6445905.1261931.1532312.1970836.1376138.4769924-.0365905.6558069l-2.61 2.674 3.213-1.854c.228242-.1318458.5196375-.063862.6659708.1553737.1463332.2192358.0973404.5144185-.1119708.6746263l-.591.443.547-.315c.2299138-.1328235.5235501-.0627731.6687427.1595365s.0912979.5193359-.1227427.6764635l-.149.108.089-.051c.2296891-.1296297.5205695-.0585592.6646041.1623819s.0916869.5157667-.1196041.6736181l-.634.464.543-.313c.2304184-.1322364.5240189-.0611893.6684864.1617642.1444674.2229535.0893536.5199576-.1254864.6762358l-.846.612.64-.369c.2301828-.1290216.5210052-.0569569.6643125.1646141.1433073.2215711.0897614.5163656-.1223125.6733859l-.906.654.7-.405c.2285788-.1329729.5211739-.064966.667677.1551861.1465031.220152.0962484.5163129-.114677.6758139l-2.813 2.141 2.556-1.475c.2245986-.1270093.5089574-.0622563.656419.1494768.1474617.2117332.109592.5009023-.087419.6675232l-4.342 3.6 3.987-2.3c.228242-.1318458.5196375-.063862.6659708.1553737.1463332.2192358.0973404.5144185-.1119708.6746263l-2.584 1.975 1.985-1.146c.2229237-.1277986.5064223-.0658196.6556784.1433455.1492561.2091652.11567.4974096-.0776784.6666545l-3.877 3.374 2.948-1.7c.2280542-.1290416.517047-.0601323.6623353.1579314.1452882.2180638.0975826.5113034-.1093353.6720686l-.8.61c.2222897-.0602987.457012.0390524.5684638.2406142.1114518.2015617.0707955.453181-.0984638.6093858l-2.315 2.152.68-.393c.2208953-.136633.509623-.0813788.6644625.1271591.1548394.208538.1242214.5009064-.0704625.6728409l-1.4 1.327c.0789677.043807.1443554.1085028.189.187.1382327.2388784.0567713.5445824-.182.683l-2.432 1.4c-.0770714.0447327-.1649012.0675547-.254.066z" fill="#0970de"/><g fill="#262626"><path id="Path" d="m8.969 15.044c-.319.318 1.056.173 1.318-.088 2.2071005-2.2791705 5.227807-3.5903009 8.4-3.646.414-.01 1.575-.642.618-.62-3.8802076.0531214-7.5873225 1.6147292-10.336 4.354z"/><path id="Path" d="m6.792 17.973c-.187.365-.357.735-.518 1.112-.135.315.473.355.633.339.3440066-.0113329.6559977-.2048512.819-.508.129-.3.271-.6.421-.889.326-.634-1.125-.503-1.355-.054z"/><path id="Path" d="m35.579 11.36c-.855.43.482.4.842.219 1.6350562-.8240321 3.4380873-1.2599899 5.269-1.274.41-.006 1.576-.626.62-.61-2.3409003.03736854-4.6426324.6067318-6.731 1.665z"/><path id="Path" d="m.276 8.194v2c0 .281 1.448.062 1.448-.388v-2c0-.281-1.448-.062-1.448.388z"/><path id="Path" d="m27.937 1.536c.316 0 .763-.245.8-.59.039-.38-.383-.482-.671-.482h-2c-.316 0-.763.245-.8.59-.039.38.383.482.671.482z"/><path id="Path" d="m21.694 1.322c.3568812.01141575.7040278-.11746288.967-.359.177-.264-.156-.285-.355-.285h-2c-.3568812-.01141575-.7040278.11746288-.967.359-.177.264.156.285.355.285z"/><path id="Path" d="m15.707 1.368c.360014.01945652.7107154-.11848846.961-.378.169-.278-.145-.358-.375-.358h-2c-.360014-.01945652-.7107154.11848846-.961.378-.169.278.145.358.375.358z"/><path id="Path" d="m9.724 1.434c.3643807.03134964.7209395-.11815089.954-.4.159-.292-.136-.463-.4-.463h-2c-.36526066-.03015113-.72198324.12128771-.954.405-.159.292.136.463.4.463z"/><path id="Path" d="m3.739 1.487c.326 0 .8-.089.947-.427.136-.3-.118-.547-.425-.547-1.08876646-.15470479-2.1958184.10705943-3.1.733-.73383621.7427286-1.0683293 1.79155029-.9 2.822 0 .706 1.462.454 1.462-.136-.11091823-.67805605-.00597587-1.3738239.3-1.989.438-.582 1.077-.456 1.716-.456z"/><path id="Path" d="m59.724 9.806v-2c0-.2-1.448-.008-1.448.388v2c0 .206 1.448.006 1.448-.388z"/><path id="Shape" d="m58.266 14.053v2.3c-3.0813276-7.37692201-10.8139342-11.68383676-18.708-10.42-3.4822319.53551137-6.7363898 2.06312204-9.373 4.4-3.2387346-3.15510397-7.5947296-4.89987485-12.116-4.853-7.077891.08375124-13.46011815 4.2781767-16.345 10.742v-2.416c0-.236-1.448-.031-1.448.388v8.716c0 .051-.009.1-.009.15v.072 8.941c0 .682 1.458.414 1.458-.146v-1.955c2.849189 6.4005607 9.1939376 10.5289555 16.2 10.541 4.4676117-.0048256 8.7647092-1.7157236 12.013-4.783 4.3028259 3.835411 10.192486 5.3578347 15.8149651 4.088025 5.6224792-1.2698096 10.2861897-5.175661 12.5230349-10.488025v2.86c0 .344 1.448.1 1.448-.388v-8.819c0-.013.01-.023.01-.036v-9c0-.765-1.468-.555-1.468.106zm-24 9.007c-.1489448 4.0294876-1.6566705 7.8900831-4.278 10.954-2.7298274-3.0975716-4.2449857-7.0792584-4.265-11.208.0107022-4.0074485 1.4773967-7.8744471 4.127-10.881 2.7175751 3.088049 4.2787883 7.0237765 4.417 11.135zm-17.405 16.372c-8.52246269-.8111064-15.0538123-7.9313482-15.128-16.492-.024-9.246 7.993-17.211 17.406-16.372 3.8088082.32138524 7.3790312 1.98739479 10.072 4.7-3.1528028 3.1685397-4.9264852 7.4541301-4.935 11.924.0100104 4.4033539 1.7504849 8.6263212 4.846 11.758-3.2223501 3.2348259-7.7121146 4.8760562-12.261 4.482zm19.205-1.013c-1.9688782-.8334777-3.7585534-2.0388177-5.271-3.55 3.0196929-3.2577984 4.7716374-7.4900677 4.938-11.929-.1582654-4.4609542-1.9155288-8.7162221-4.951-11.989 4.4946132-4.5169548 11.2825113-5.85063116 17.152-3.37 6.412 2.7 10.067 8.832 10.342 15.613-.448 11.069-11.084 19.906-22.21 15.225z"/><path id="Path" d="m33.935 1.527c.312 0 .763-.242.8-.583.039-.378-.386-.471-.669-.471h-2c-.312 0-.763.241-.8.583-.039.378.386.471.669.471z"/><path id="Path" d="m39.528 1.287c.360406.00648285.7153308-.08883386 1.024-.275.21-.142.219-.3-.08-.3h-2c-.360406-.00648285-.7153308.08883386-1.024.275-.21.142-.219.3.08.3z"/><path id="Path" d="m45.53 1.294c.36073.00916175.7163925-.08635309 1.024-.275.207-.144.219-.313-.084-.313h-2c-.36073-.00916175-.7163925.08635309-1.024.275-.207.144-.219.313.084.313z"/><path id="Path" d="m51.7 1.345c.3579986.0152937.7064349-.11785744.963-.368.174-.272-.15-.322-.365-.322h-2c-.3579986-.0152937-.7064349.11785745-.963.368-.174.272.15.322.365.322z"/><path id="Path" d="m56.06.453c-.839 0-1.1 1.094-.12 1.094.7 0 1.4-.1 1.917.475.3887092.59998863.5345771 1.32539539.408 2.029 0 .774 1.47.573 1.47-.1.1709716-.99740964-.1092189-2.01928061-.765-2.79-.8363507-.61552354-1.8843564-.87050225-2.91-.708z"/><path id="Path" d="m1.733 37.942v-2c0-.746-1.466-.521-1.466.116v2c0 .742 1.466.521 1.466-.116z"/><path id="Path" d="m28.265 44.525h-2c-.3691321-.037984-.7307208.1226375-.95.422-.146.3.128.528.42.528h2c.3691321.037984.7307208-.1226375.95-.422.146-.297-.128-.528-.42-.528z"/><path id="Path" d="m22.273 44.555h-2c-.3663907-.0322229-.7244521.1218224-.953.41-.156.293.133.48.407.48h2c.3663907.0322229.7244521-.1218224.953-.41.156-.293-.133-.48-.407-.48z"/><path id="Path" d="m16.3 44.668h-2c-.3573345-.0133305-.7050418.1174651-.965.363-.176.267.153.3.359.3h2c.3573345.0133305.7050418-.1174651.965-.363.179-.268-.15-.3-.359-.3z"/><path id="Path" d="m10.272 44.552h-2c-.36640965-.0327534-.72455619.1218666-.952.411-.155.293.132.485.408.485h2c.3664097.0327534.7245562-.1218666.952-.411.155-.293-.132-.485-.408-.485z"/><path id="Path" d="m4.292 44.627c-.8 0-1.558.084-2.135-.6-.40908665-.6643615-.56295894-1.4546894-.433-2.224 0-.379-1.448-.129-1.448.388 0 .955-.055 1.909.747 2.6.79220467.519454 1.74870734.7271416 2.685.583.278 0 .816-.1.961-.38s-.126-.367-.377-.367z"/><path id="Path" d="m58.272 36.077v2c0 .665 1.456.389 1.456-.154v-2c0-.666-1.456-.389-1.456.154z"/><path id="Path" d="m34.263 44.519h-2c-.3693981-.0388895-.7312729.1233434-.948.425-.146.3.126.537.422.537h2c.3693981.0388895.7312729-.1233434.948-.425.146-.298-.126-.537-.422-.537z"/><path id="Path" d="m40.266 44.53h-2c-.3684568-.0365854-.7290886.1228518-.95.42-.148.3.129.52.418.52h2c.3684568.0365854.7290886-.1228518.95-.42.148-.297-.129-.52-.418-.52z"/><path id="Path" d="m46.285 44.6h-2c-.3626369-.0236877-.7159868.1208981-.958.392-.169.285.144.41.388.41h2c.3626369.0236877.7159868-.1208981.958-.392.169-.286-.144-.41-.388-.41z"/><path id="Path" d="m52.469 44.7h-2c-.3612878-.0112303-.7178528.0844335-1.025.275-.2.146-.218.325.087.325h2c.3612878.0112303.7178528-.0844335 1.025-.275.204-.146.218-.325-.087-.325z"/><path id="Path" d="m58.276 42.194c.0862547.6510248-.0006668 1.3132837-.252 1.92-.1299622.3079291-.4062511.529712-.735.59-.2728074.0145006-.5461926.0145006-.819 0-.3616098-.0140525-.7189867.0818291-1.025.275-.194.148-.228.317.085.317 1.1327831.1311363 2.2771991-.1148991 3.256-.7.967-.711.938-1.717.938-2.792 0-.23-1.448-.026-1.448.39z"/></g></g></svg>