<svg height="512" viewBox="0 0 60 60" width="512" xmlns="http://www.w3.org/2000/svg"><g id="011---Email-Marketing" fill="none"><path id="Path" d="m8.625 59.471c-.22446084.0008391-.42197217-.1480066-.48302098-.3640076-.06104882-.2160009.02932852-.4462132.22102098-.5629924l17.155-10.5-19.677 11.356c-.23583577.1260453-.52910097.0442222-.66561588-.1857118-.13651492-.2299339-.06795177-.5265795.15561588-.6732882l16.1-9.794-18.125 10.467c-.23701856.1320316-.53608427.0509486-.6739531-.1827228-.13786884-.2336714-.06422739-.5346559.1659531-.6782772l7.266-4.368-7.9 4.561c-.23698876.1350471-.53848394.055235-.67761558-.1793791-.13913163-.2346142-.06455352-.5374465.16761558-.6806209l18.32-11.125-18.528 10.696c-.23486629.1223119-.52436539.0402957-.66017777-.1870309-.13581237-.2273266-.07083392-.5211193.14817777-.6699691l27.5-16.975-27.154 15.675c-.23775858.1408326-.54466737.0622586-.68549998-.1755s-.06225859-.5446674.17549998-.6855l17.312-10.517-16.8 9.7c-.2372063.1413849-.54411508.0637063-.68549997-.1735s-.06370631-.5441151.17349997-.6855l24.035-14.809-23.525 13.582c-.23583577.1260453-.52910097.0442222-.66561588-.1857118-.13651491-.2299339-.06795176-.5265795.15561588-.6732882l17.43-10.638-16.92 9.769c-.23520866.125628-.52761522.0445694-.66457305-.1842276-.13695782-.228797-.07026696-.5248112.15157305-.6727724l23.233-14.383-22.72 13.119c-.23638246.1285498-.53210687.0469768-.6691568-.184581-.13704993-.2315579-.06627089-.5300498.1601568-.675419l11.033-6.7-10.524 6.078c-.23693016.1419372-.54406281.0649301-.68599999-.172-.14193717-.2369302-.06493016-.5440628.17199999-.686l22.269-13.847-21.755 12.563c-.23560872.1297647-.5316571.04988-.67000668-.1807924-.13834958-.2306723-.06941665-.5294607.15600668-.6762076l19.8-12.277-19.286 11.134c-.23620749.133071-.53543293.0536509-.67455994-.1790411-.13912702-.2326919-.06746126-.5338687.16155994-.6789589l16.517-10.194-16 9.24c-.2372063.1413849-.54411508.0637063-.68549997-.1735s-.06370631-.5441151.17349997-.6855l13.066-8.027-12.558 7.248c-.23583577.1260453-.52910097.0442222-.66561588-.1857118-.13651491-.2299339-.06795176-.5265795.15561588-.6732882l8.056-4.916-7.546 4.356c-.23571786.1278172-.53029699.0469384-.66770199-.1833224-.13740501-.2302607-.06871185-.5279174.15570199-.6746776l10.658-6.545-10.146 5.857c-.23638246.1285498-.53210687.0469768-.6691568-.184581-.13704993-.2315579-.06627089-.5300498.1601568-.675419l1.437-.871-.928.535c-.23571786.1278172-.53029699.0469384-.66770199-.1833224-.13740501-.2302607-.06871185-.5279174.15570199-.6746776l9.611-5.914-9.1 5.253c-.23508655.127347-.52875831.0472199-.66659082-.1818764-.13783251-.2290964-.071048-.5260868.15159082-.6741236l14.1-8.8-13.584 7.842c-.23620749.133071-.53543293.0536509-.67455994-.1790411-.13912702-.2326919-.06746126-.5338687.16155994-.6789589l8.559-5.281-8.046 4.645c-.23610173.1433179-.54368209.0681017-.68699998-.168s-.06810173-.5436821.16799998-.687l16.913-10.785-16.394 9.465c-.23134192.1087294-.50744079.0254582-.64008814-.19305-.13264734-.2185083-.07912254-.5018804.12408814-.65695l12.519-7.88-12 6.929c-.23508655.127347-.52875831.0472199-.66659082-.1818764-.13783251-.2290964-.071048-.5260868.15159082-.6741236l9.681-6.059-8.849 5.102c-.23637787.1430418-.54395825.0673779-.687-.169s-.06737787-.5439582.169-.687l10.642-6.721-3.645 2.1c-.23365564.130691-.52879264.0541466-.66947868-.1736308s-.0769932-.5259521.14447868-.6763692l9.89-6.49c-.2293094.0376542-.4543352-.0876396-.543102-.3023978-.0887667-.2147583-.0178733-.4623654.171102-.5976022l9.806-7.215c-.0652016-.22125006.0294069-.45839103.229-.574l2.593-1.487c.2295527-.13149208.521805-.0614183.6667704.15987257.1449654.22129086.0924688.51720614-.1197704.67512743l-5.31 3.907 6.673-3.855c.2347029-.1405531.538787-.06638836.6824238.16644007s.0734897.5378644-.1574238.68455993l-9.383 6.156 10.256-5.921c.2355125-.13195996.5332497-.0531389.6726204.17806525.1393708.23120415.0700423.53129378-.1566204.67793475l-10.652 6.728 11.415-6.59c.236654-.14248947.5440105-.06615402.6865.1705s.066154.54401053-.1705.6865l-9.683 6.059 10.365-5.984c.2369302-.14221331.5442867-.06543015.6865.17150001.1422133.23693015.0654301.54428666-.1715.68649999l-12.507 7.871 13.325-7.694c.2361017-.14331788.5436821-.06810171.687.16800001s.0681017.54368209-.168.68699999l-16.92 10.79 18.008-10.4c.2372063-.14166103.544339-.06420629.686.17300001.141661.23720629.0642063.54433895-.173.68599999l-8.567 5.285 9.157-5.286c.2350866-.12734701.5287583-.04721993.6665908.18187644.1378325.22909636.071048.52608673-.1515908.67412356l-14.085 8.795 14.91-8.608c.2357179-.12781718.530297-.04693838.667702.18332235.137405.23026074.0687118.52791741-.155702.67467765l-9.618 5.919 10.228-5.906c.2363825-.12854979.5321069-.0469768.6691568.18458103.1370499.23155787.0662709.53004977-.1601568.67541897l-1.421.861 1.8-1.036c.2372063-.1413849.5441151-.0637063.6855.1735s.0637063.5441151-.1735.6855l-10.681 6.556 11.307-6.527c.2358358-.1260453.529101-.0442222.6656159.1857118.1365149.2299339.0679517.5265795-.1556159.6732882l-8.045 4.91 8.582-4.956c.1534456-.09146.3440284-.0941103.4999579-.0069525s.2535161.2508822.256.4295-.0905123.3449925-.2439579.4364525l-13.075 8.031 13.77-7.95c.2362075-.133071.5354329-.0536509.6745599.1790411.1391271.2326919.0674613.5338687-.1615599.6789589l-16.525 10.2 17.354-10.018c.2356087-.1297647.5316571-.04988.6700067.1807924.1383496.2306723.0694166.5294607-.1560067.6762076l-19.794 12.274 20.758-11.985c.1532669-.0918173.3438754-.094893.5000249-.0080685.1561495.0868244.2541174.2503583.257.429s-.089758.3452512-.2430249.4370685l-22.266 13.842 23.333-13.471c.2369888-.1350471.5384839-.055235.6776156.1793791.1391316.2346142.0645535.5374465-.1676156.6806209l-11.055 6.71 11.641-6.719c.2348663-.1223119.5243654-.0402957.6601778.1870309.1358123.2273266.0708339.5211193-.1481778.6699691l-23.231 14.38 24.286-14.023c.2374824-.1411087.5443912-.0629824.6855.1745.1411087.2374824.0629824.5443912-.1745.6855l-17.413 10.626 18.177-10.494c.2362075-.133071.5354329-.0536509.6745599.1790411.1391271.2326919.0674613.5338687-.1615599.6789589l-24.047 14.815 25.076-14.477c.2369888-.1350471.5384839-.055235.6776156.1793791.1391316.2346142.0645535.5374465-.1676156.6806209l-17.307 10.517 18.039-10.414c.2357179-.1278172.530297-.0469384.667702.1833224.137405.2302607.0687118.5279174-.155702.6746776l-27.505 16.975 28.111-16.23c.1538028-.0909241.3444299-.0928886.5000739-.0051535.155644.0877352.2526589.2518408.2545.4305.0018412.1786592-.0917711.3447294-.2455739.4356535l-18.312 11.124 18.012-10.4c.1539815-.0907455.3446783-.0924496.5002569-.0044705.1555787.0879792.2524029.2522755.254.431.0015972.1787246-.0922754.344725-.2462569.4354705l-7.27 4.369 6.762-3.9c.2363825-.1285498.5321069-.0469768.6691568.184581.1370499.2315579.0662709.5300498-.1601568.675419l-16.1 9.8 15.593-9c.2358358-.1260453.529101-.0442222.6656159.1857118.1365149.2299339.0679517.5265795-.1556159.6732882l-17.149 10.5 16.637-9.618c.2350866-.127347.5287583-.0472199.6665908.1818764.1378325.2290964.071048.5260868-.1515908.6741236l-23.029 14.435 22.514-13c.2356087-.1297647.5316571-.04988.6700067.1807924.1383496.2306723.0694166.5294607-.1560067.6762076l-17.842 11.123 17.328-10c.2369888-.1350471.5384839-.055235.6776156.1793791.1391316.2346142.0645535.5374465-.1676156.6806209l-6.93 4.235 6.42-3.706c.2352087-.125628.5276152-.0445694.664573.1842276.1369579.228797.070267.5248112-.151573.6727724l-10.473 6.49 9.961-5.75c.2335877-.1237383.5231326-.0442789.6608429.1813541s.0760007.5194731-.1408429.6706459l-16.733 10.792 16.213-9.36c.2347345-.1238045.5252986-.0426548.6619149.1848618.1366163.2275167.0716853.5221296-.1479149.6711382l-7.087 4.432 6.573-3.794c.2357179-.1278172.530297-.0469384.667702.1833224.137405.2302607.0687118.5279174-.155702.6746776l-.6.371.088-.05c.2352087-.125628.5276152-.0445694.664573.1842276.1369579.228797.070267.5248112-.151573.6727724l-.907.563.394-.226c.2347345-.1238045.5252986-.0426548.6619149.1848618.1366163.2275167.0716853.5221296-.1479149.6711382l-.735.465.225-.129c.2347034-.1364868.5354374-.0607325.6774741.1706544.1420368.2313868.073465.5338394-.1544741.6813456l-6.788 4.421 6.261-3.615c.2336556-.130691.5287926-.0541466.6694787.1736308.140686.2277774.0769932.5259521-.1444787.6763692l-5.5 3.633 4.976-2.872c.2309306-.1317312.5245674-.0597083.6683337.1639283.1437664.2236366.0873821.520673-.1283337.6760717l-7.1 5.045 6.562-3.788c.2280542-.1290416.517047-.0601323.6623353.1579314.1452882.2180638.0975826.5113034-.1093353.6720686l-5.736 4.373 5.18-2.99c.226507-.1291681.5142486-.0625855.6609917.1529516.1467432.2155372.103215.5076567-.0999917.6710484l-3.415 2.726 2.854-1.646c.2150358-.1228992.4876397-.0698481.6408929.1247234.1532532.1945714.1409636.4720174-.0288929.6522766l-2.357 2.469 1.693-.978c.2155591-.1245112.4898785-.0714871.6435094.1243861.153631.1958731.1397727.4749262-.0325094.6546139l-.713.744c.1551771.089188.2508459.2545184.2508459.4335s-.0956688.344312-.2508459.4335l-1.924 1.111c-.2153349.1244465-.4894005.0717052-.6431691-.1237719-.1537685-.1954771-.1404869-.4742551.0311691-.6542281l.1-.106-1.668.963c-.2150358.1228992-.4876397.0698481-.6408929-.1247234-.1532532-.1945714-.1409636-.4720174.0288929-.6522766l2.357-2.474-5.629 3.249c-.226047.126152-.5110038.0589101-.6568083-.1549885-.1458046-.2138986-.1042381-.5037159.0958083-.6680115l3.413-2.72-6.139 3.543c-.228242.1318458-.5196375.063862-.6659708-.1553737-.1463332-.2192358-.0973404-.5144185.1119708-.6746263l5.733-4.37-9.013 5.2c-.2303174.1272935-.5198822.0542782-.6623044-.1670037s-.0889497-.5150841.1223044-.6719963l7.1-5.047-10.193 5.886c-.2329061.1254293-.5232086.0477402-.6623373-.1772508s-.0789338-.5194187.1373373-.6717492l5.5-3.632-7.764 4.481c-.2337734.1287456-.5274505.051198-.667188-.1761759-.1397374-.2273739-.07627-.5244122.144188-.6748241l6.775-4.419-9.131 5.27c-.2347345.1238045-.5252986.0426548-.6619149-.1848618-.1366163-.2275167-.0716853-.5221296.1479149-.6711382l.743-.465-2.286 1.321c-.2356087.1297647-.5316571.04988-.6700067-.1807924-.1383496-.2306723-.0694166-.5294607.1560067-.6762076l.9-.558-2.457 1.415c-.2362075.133071-.5354329.0536509-.6745599-.1790411-.1391271-.2326919-.0674613-.5338687.1615599-.6789589l.6-.371-2.129 1.229c-.2350866.127347-.5287583.0472199-.6665908-.1818764-.1378325-.2290964-.071048-.5260868.1515908-.6741236l7.094-4.435-9.166 5.291c-.2338963.1269547-.5262491.04845-.6650871-.1785941-.1388379-.227044-.0755015-.5230536.1440871-.6734059l16.735-10.79-20.17 11.642c-.2352087.125628-.5276152.0445694-.664573-.1842276-.1369579-.228797-.070267-.5248112.151573-.6727724l10.469-6.484-12.722 7.341c-.2362845.1306359-.5336041.0500916-.6716393-.181948s-.0669238-.5317553.1606393-.677052l6.933-4.241-8.833 5.1c-.2350866.127347-.5287583.0472199-.6665908-.1818764-.1378325-.2290964-.071048-.5260868.1515908-.6741236l17.848-11.121-20.755 11.977c-.2350866.127347-.5287583.0472199-.6665908-.1818764-.1378325-.2290964-.071048-.5260868.1515908-.6741236l23.026-14.43-26.482 15.286c-.07521111.0453844-.16116364.0698929-.249.071z" fill="#8991a0"/><path id="Path" d="m42.529 36.324c-.2200148.0000521-.4142096-.1437206-.4783792-.3541696-.0641697-.210449.0167669-.4381142.1993792-.5608304l7.85-5.277c-.1302997-.092952-.2082239-.2426661-.2096088-.4027166s.0739371-.3110906.2026088-.4062834l6.657-4.93c.0021298-.176481.0971444-.3387659.25-.427l1.508-.87c.2292016-.1303039.5201978-.0602449.6649792.1600976s.0935911.5152436-.1169792.6739024l-1.312.971.975-.562c.2334461-.1352991.5321345-.0609722.6749447.1679561.1428102.2289282.0782242.5298733-.1459447.6800439l-4.3 2.889 3.772-2.176c.23893-.1358451.5427102-.0533708.6801373.1846528.137427.2380237.0569695.5423443-.1801373.6813472l-16.441 9.491c-.0758978.0441549-.1621931.067282-.25.067z" fill="#79808f"/><path id="Path" d="m24.96 59.471c-.2238015.0001026-.4204126-.1485273-.4813425-.363875-.0609299-.2153478.0286636-.4449556.2193425-.562125l2.371-1.456-4.009 2.311c-.2355125.13196-.5332497.0531389-.6726204-.1780652-.1393708-.2312042-.0700423-.5312938.1566204-.6779348l13.329-8.369-15.979 9.225c-.2369888.1350471-.5384839.055235-.6776156-.1793791-.1391316-.2346142-.0645535-.5374465.1676156-.6806209l1.465-.891-3.033 1.751c-.2362845.1306359-.5336041.0500916-.6716393-.181948s-.0669238-.5317553.1606393-.677052l8.15-4.988-10.128 5.847c-.2362075.133071-.5354329.0536509-.6745599-.1790411-.1391271-.2326919-.0674613-.5338687.1615599-.6789589l14.846-9.158-17.355 10.016c-.2362845.1306359-.5336041.0500916-.6716393-.181948s-.0669238-.5317553.1606393-.677052l12.014-7.331-14.191 8.19c-.2353357.1240261-.52657993.04207-.66269982-.1864836-.13611989-.2285535-.06945065-.5236725.15169982-.6715164l17.287-10.6-19.845 11.458c-.23497088.1292146-.53003872.050062-.66879247-.179405-.13875376-.2294671-.07178369-.5275361.15179247-.675595l7.221-4.563-9.285 5.364c-.23582559.1438702-.54362981.0693256-.68749998-.1665s-.06932559-.5436298.16649998-.6875l10.322-6.639-11.6 6.7c-.23470337.1364868-.53543738.0607325-.67747413-.1706544-.14203676-.2313868-.07346495-.5338394.15447413-.6813456l10.591-6.9-10.831 6.254c-.23497088.1292146-.53003872.050062-.66879247-.179405-.13875376-.2294671-.07178369-.5275361.15179247-.675595l4.071-2.58-3.679 2.124c-.23377341.1287456-.52745054.051198-.66718797-.1761759-.13973744-.2273739-.07627-.5244122.14418797-.6748241l6.709-4.361-6.186 3.568c-.23405687.1357068-.53360081.0606207-.67597038-.1694442s-.07591293-.5316408.14997038-.6805558l7.228-4.765-6.7 3.869c-.23424781.1308833-.53004345.0535271-.67022619-.1752769-.14018273-.228804-.07476503-.527467.14822619-.6767231l3.94-2.551-3.42 1.975c-.23470287.1405531-.53878699.0663884-.6824238-.1664401-.14363681-.2328284-.07348967-.5378644.1574238-.6845599l4.46-2.925-3.935 2.272c-.23354514.1328438-.53032442.0573638-.6720248-.1709163s-.07765459-.5277351.1450248-.6780837l4.9-3.263-4.373 2.526c-.23416873.1463554-.54264451.0751687-.68899995-.159-.14635545-.2341687-.07516875-.5426445.15899995-.689l4.731-3.182-4.201 2.424c-.23184122.125947-.52164614.0500755-.66202867-.1733204-.14038253-.223396-.08302436-.5174256.13102867-.6716796l4.476-3.049-3.945 2.277c-.23158002.1294027-.52390906.0554223-.6660571-.1685604-.14214803-.2239828-.08462774-.5199909.1310571-.6744396l4.348-3.01-3.813 2.2c-.2314518.1313128-.52520132.0583356-.66829177-.1660259-.14309045-.2243616-.08538078-.5214879.13129177-.6759741l3.783-2.648-3.246 1.875c-.23210925.1290838-.52463722.0541763-.66613933-.170578-.1415021-.2247542-.08259625-.5209195.13413933-.674422l1.233-.841-.7.405c-.2310609.1298083-.52326795.0567757-.66608655-.1664779s-.08662801-.5191613.12808655-.6745221l2.175-1.535-1.637.945c-.22620357.1284409-.51310281.0619842-.65979477-.1528333-.14669196-.2148176-.10416776-.5062269.09779477-.6701667l4.409-3.518-3.849 2.22c-.22695866.1282325-.51435386.0605795-.66027781-.1554298s-.1014061-.5078844.10227781-.6705702l2.744-2.146-2.186 1.26c-.22819429.1273484-.51596639.0574929-.66037808-.1603041-.14441168-.2177969-.09674814-.5100652.10937808-.6706959l.955-.723-.4.232c-.22824204.1318458-.51963752.063862-.66597078-.1553737-.14633327-.2192358-.09734046-.5144185.11197078-.6746263l.45-.343c-.21926516.0667169-.45581574-.024185-.57397654-.2205683-.11816079-.1963832-.08767315-.4479579.07397654-.6104317l2.261-2.274-1.661.958c-.20746475.1185083-.4697832.073677-.62611501-.1070056-.15633182-.1806826-.16298703-.4467211-.01588499-.6349944l1.648-2.092-1.006.58c-.20765898.1183705-.47005497.0732098-.6261925-.1077734-.15613753-.1809831-.16234238-.4471647-.0148075-.6352266l.55-.7c-.16822573.0563053-.35369064.0192576-.48737474-.0973561s-.19556929-.2953313-.16262526-.4696439l.362-1.909c-.12334411-.1054929-.18780939-.2642921-.17290002-.4259096s.10733817-.3059431.24790002-.3870904l.287-.166c.16891191-.0955214.37783826-.084684.53596047.0278013s.23688059.3063017.20203953.4971987l-.28 1.484 1.22-.7c.20771892-.119562.47106244-.0749112.6277607.1064389.15669825.1813502.16267159.4483854.0142393.6365611l-.534.673.986-.569c.20746475-.1185083.4697832-.073677.62611501.1070056.15633182.1806826.16298703.4467211.01588499.6349944l-1.645 2.089 2.669-1.542c.21692598-.1250668.49291496-.0703862.64576771.1279434.15285274.1983296.13542939.4791432-.04076771.6570566l-2.263 2.275 3.213-1.855c.22824204-.1318458.51963752-.063862.66597078.1553737.14633327.2192358.09734046.5144185-.11197078.6746263l-.371.284.718-.415c.22892401-.1342308.52283513-.0662362.66954789.1548961.14671277.2211323.09511283.5183603-.11754789.6771039l-.955.722 1.379-.8c.22695866-.1282325.51435386-.0605795.66027781.1554298s.1014061.5078844-.10227781.6705702l-2.744 2.151 3.454-1.986c.2262036-.1284409.5131028-.0619842.6597948.1528333.1466919.2148176.1041677.5062269-.0977948.6701667l-4.412 3.513 5.413-3.125c.2304519-.1256553.5188365-.0517188.6604036.1693153.1415671.2210342.088116.5139083-.1224036.6706847l-2.175 1.535 2.694-1.555c.2328603-.1351428.5309189-.0616362.6742423.1662803.1433233.2279164.080443.5283964-.1422423.6797197l-1.225.835 1.64-.947c.2314518-.1313128.5252013-.0583356.6682918.1660259.1430904.2243616.0853808.5214879-.1312918.6759741l-3.783 2.648 4.44-2.563c.2322938-.1351768.5298928-.0625367.6737842.164462.1438914.2269988.0825928.5271392-.1387842.679538l-4.347 3.009 5.033-2.906c.2325262-.1307666.5267591-.0559509.6685809.1700024s.0812744.5234503-.1375809.6759976l-4.483 3.054 5.148-2.972c.2334461-.1352991.5321345-.0609722.6749447.1679561.1428102.2289282.0782242.5298733-.1459447.6800439l-4.73 3.185 5.386-3.109c.2335451-.1328438.5303244-.0573638.6720248.1709163s.0776546.5277351-.1450248.6780837l-4.9 3.262 5.546-3.2c.2341443-.133112.5316521-.0568382.672871.1725078.1412189.2293459.075396.5293391-.148871.6784922l-4.46 2.921 5.05-2.915c.1523738-.0932463.3429193-.098119.4998598-.0127826.1569406.0853364.2564332.2479173.261.4265s-.086486.3460363-.2388598.4392826l-3.938 2.552 4.474-2.583c.2329061-.1254293.5232086-.0477402.6623373.1772508s.0789338.5194187-.1373373.6717492l-7.233 4.77 8-4.618c.2334572-.1253051.5241289-.0467367.6626677.1791186.1385388.2258554.0768365.5205686-.1406677.6718814l-6.715 4.367 8.311-4.8c.2349709-.1292146.5300387-.050062.6687925.179405.1387537.2294671.0717837.5275361-.1517925.675595l-4.074 2.581 5.954-3.436c.2337734-.1287456.5274505-.051198.667188.1761759.1397374.2273739.07627.5244122-.144188.6748241l-10.589 6.89 13.42-7.747c.2343611-.1288923.5286543-.0505227.6678755.1778537.1392213.2283764.0740613.5258734-.1478755.6751463l-10.322 6.641 12.984-7.5c.2349709-.1292146.5300387-.050062.6687925.179405.1387537.2294671.0717837.5275361-.1517925.675595l-7.219 4.562 30.971-17.877c.2362845-.1306359.5336041-.0500916.6716393.181948s.0669238.5317553-.1606393.677052l-17.276 10.591 16.765-9.678c.2369888-.1350471.5384839-.055235.6776156.1793791.1391316.2346142.0645535.5374465-.1676156.6806209l-12.009 7.33 11.5-6.639c.2372063-.1413849.5441151-.0637063.6855.1735s.0637063.5441151-.1735.6855l-14.857 9.168 14.344-8.278c.2369888-.1350471.5384839-.055235.6776156.1793791.1391316.2346142.0645535.5374465-.1676156.6806209l-8.15 4.988 7.64-4.41c.2363825-.1285498.5321069-.0469768.6691568.184581.1370499.2315579.0662709.5300498-.1601568.675419l-1.482.9.974-.562c.2350866-.127347.5287583-.0472199.6665908.1818764.1378325.2290964.071048.5260868-.1515908.6741236l-13.315 8.358 12.8-7.39c.2362845-.1306359.5336041-.0500916.6716393.181948s.0669238.5317553-.1606393.677052l-2.376 1.459 1.865-1.078c.2361735-.1361818.537908-.0580681.6783318.1756081.1404239.2336761.0677709.5367718-.1633318.6813919l-8.093 5.075 7.578-4.375c.2356087-.1297647.5316571-.04988.6700067.1807924.1383496.2306723.0694166.5294607-.1560067.6762076l-3.667 2.286 3.153-1.82c.2336556-.130691.5287926-.0541466.6694787.1736308.140686.2277774.0769932.5259521-.1444787.6763692l-11.392 7.516 10.867-6.275c.2336556-.130691.5287926-.0541466.6694787.1736308.140686.2277774.0769932.5259521-.1444787.6763692l-8.452 5.591 7.927-4.577c.2333681-.1382671.5344194-.0652417.6785003.1645824.144081.2298241.078635.5326135-.1475003.6824176l-7.533 5.118 7-4.042c.2328603-.1351428.5309189-.0616362.6742423.1662803.1433233.2279164.080443.5283964-.1422423.6797197l-5.09 3.48 4.558-2.63c.2293391-.1285228.5190351-.0574922.6629121.1625395s.0927858.5139004-.1169121.6724605l-5.214 3.835 4.668-2.694c.2310609-.1298083.523268-.0567757.6660866.1664779.1428185.2232536.086628.5191613-.1280866.6745221l-1.2.843.657-.379c.2217499-.124383.5015352-.0625469.6502105.143705.1486753.2062518.1188941.491237-.0692105.662295l-2.955 2.616 2.374-1.37c.2228025-.1258076.5046322-.0631099.6530847.1452897.1484525.2083995.1156192.4952461-.0760847.6647103l-.547.474c.2419847-.0634879.493648.0616439.5890797.2929016s.0052554.4974543-.2110797.6230984l-4.353 2.513c-.2229237.1277986-.5064223.0658196-.6556784-.1433455-.1492561-.2091652-.11567-.4974096.0776784-.6666545l.48-.415-2.124 1.225c-.2217499.124383-.5015352.0625469-.6502105-.143705-.1486753-.2062518-.1188941-.491237.0692105-.662295l2.955-2.616-5.928 3.422c-.2304519.1256553-.5188365.0517188-.6604036-.1693153-.1415671-.2210342-.088116-.5139083.1224036-.6706847l1.191-.84-2.912 1.68c-.2293391.1285228-.5190351.0574922-.6629121-.1625395s-.0927858-.5139004.1169121-.6724605l5.212-3.836-8.09 4.671c-.2324067.1328499-.5282158.0590851-.6710333-.1673329s-.0819688-.5251514.1380333-.6776671l5.086-3.478-7.489 4.323c-.2325262.1307666-.5267591.0559509-.6685809-.1700024s-.0812744-.5234503.1375809-.6759976l7.53-5.115-10.327 5.961c-.2329061.1254293-.5232086.0477402-.6623373-.1772508s-.0789338-.5194187.1373373-.6717492l8.45-5.59-11.154 6.439c-.2329061.1254293-.5232086.0477402-.6623373-.1772508s-.0789338-.5194187.1373373-.6717492l11.392-7.516-14.484 8.365c-.2356087.1297647-.5316571.04988-.6700067-.1807924-.1383496-.2306723-.0694166-.5294607.1560067-.6762076l3.677-2.291-5.458 3.148c-.2350866.127347-.5287583.0472199-.6665908-.1818764-.1378325-.2290964-.071048-.5260868.1515908-.6741236l8.09-5.073-10.271 5.929c-.0751127.0456101-.1611282.0701366-.249.071z" fill="#79808f"/><path id="Path" d="m47.8 24.341c-.2022515.000362-.3848019-.1211573-.4625134-.3078837-.0777114-.1867264-.0352767-.4018795.1075134-.5451163l1.384-1.388-2.549 1.472c-.2187434.1297091-.5000021.0745628-.6535686-.128145s-.1305136-.4883932.0535686-.663855l2.789-2.693-2.189 1.265c-.2248726.1315945-.5131068.0684479-.6623629-.1451111-.149256-.213559-.1094985-.5059386.0913629-.6718889l.817-.683-.246.141c-.2123689.1214471-.4814292.0713915-.6359136-.1183044-.1544843-.1896959-.1490205-.4633181.0129136-.6466956l1.918-2.143-1.3.747c-.2180963.1257781-.4956948.0697764-.6479698-.1307191-.1522751-.2004955-.1317242-.4829397.0479698-.6592809l.336-.328c-.1497312-.0040388-.2897649-.0749922-.3815769-.1933405-.0918119-.1183483-.12573-.2716239-.0924231-.4176595l.3-1.32c-.1793548-.0702928-.3023762-.2373697-.3162528-.4295067-.0138766-.1921371.0838601-.3751577.2512528-.4704933l.5-.288c.1723472-.0999355.3875757-.0880194.5478375.0303311.1602617.1183505.2349707.3205481.1901625.5146689l-.245 1.065 1.971-1.137c.2180963-.1257781.4956948-.0697764.6479698.1307191.1522751.2004955.1317242.4829397-.0479698.6592809l-.121.119.56-.324c.2126491-.1227903.4829898-.0729918.6379285.1175105.1549386.1905024.1486122.4653186-.0149285.6484895l-1.918 2.142 2.52-1.454c.2248726-.1315945.5131068-.0684479.6623629.1451111.149256.213559.1094985.5059386-.0913629.6718889l-.818.684.736-.424c.2187434-.1297091.5000021-.0745628.6535686.128145s.1305136.4883932-.0535686.663855l-2.781 2.694 2.286-1.32c.2164748-.1176434.486383-.0600602.6359981.1356862.149615.1957464.134338.4713056-.0359981.6493138l-1.434 1.44c.2163262-.0533297.4418367.0429099.553.236.1375532.2386555.0561721.5436114-.182.682l-3.083 1.78c-.0751386.0443412-.1607537.0678163-.248.068z" fill="#ccd0da"/><path id="Path" d="m24.9 31.487c-.199173-.000295-.3791752-.1187725-.4582095-.3015935-.0790343-.1828211-.0420252-.3951134.0942095-.5404065l.756-.8-1.162.67c-.2153503.1242965-.4893142.0714636-.643-.124-.1539941-.1958185-.1403486-.4751249.032-.655l1.679-1.755-1.359.784c-.2208953.136633-.509623.0813788-.6644625-.1271591-.1548394-.208538-.1242214-.5009064.0704625-.6728409l.429-.406-.032.018c-.1603035.0927042-.358716.0892193-.5156651-.0090572-.156949-.0982765-.2467294-.2752488-.2333349-.4599428l.1-1.323c-.2049337-.0396063-.3637027-.2023476-.3982338-.4081973-.034531-.2058496.0624422-.4114914.2432338-.5158027l.462-.266c.160245-.0921561.3582615-.08838.5148765.0098185.1566151.0981985.2462721.2747951.2331235.4591815l-.085 1.176 2.888-1.667c.2208953-.136633.509623-.0813788.6644625.1271591.1548394.208538.1242214.5009064-.0704625.6728409l-.428.405.712-.411c.2156332-.1260678.4912237-.0736612.6455329.1227553.1543092.1964164.1399934.4765801-.0335329.6562447l-1.69 1.754 1.07-.617c.2148894-.1243392.4884665-.0721685.6425166.1225268.1540502.1946953.1419081.4729375-.0285166.6534732l-.757.8.143-.082c.23893-.1358451.5427102-.0533708.6801373.1846528.137427.2380237.0569695.5423443-.1801373.6813472l-3.075 1.777c-.0747248.0434738-.15955.0665766-.246.067z" fill="#b9bfcc"/><path id="Path" d="m42.71 34.312c-.1431018.0009333-.2797447-.0594946-.3753394-.1659871-.0955947-.1064924-.1409776-.2488414-.1246606-.3910129l.148-1.31-1.333.769c-.2020931.1167854-.4581008.0782087-.6168057-.0929438-.158705-.1711524-.1778781-.4293393-.0461943-.6220562l.953-1.4-2.039 1.177c-.2139383.1227586-.4854345.0711644-.6394281-.1215147-.1539936-.1926792-.1444708-.4688702.0224281-.6504853l1.7-1.834-2.865 1.654c-.2202286.1227467-.4973928.0623225-.6465459-.1409526s-.1236267-.4857984.0595459-.6590474l2.338-2.137-3.488 2.013c-.2280542.1290416-.517047.0601323-.6623353-.1579314-.1452882-.2180638-.0975826-.5113034.1093353-.6720686l1.231-.938-1.918 1.107c-.2256098.1311968-.5141774.0668035-.6626093-.1478598-.1484318-.2146634-.1067938-.5073817.0956093-.6721402l3.89-3.172-5.191 3c-.2310609.1298083-.523268.0567757-.6660866-.1664779-.1428185-.2232536-.086628-.5191613.1280866-.6745221l1.659-1.172-2.351 1.356c-.2296891.1296297-.5205695.0585592-.6646041-.1623819s-.0916869-.5157667.1196041-.6736181l4.271-3.119-5.351 3.089c-.2313261.1333882-.5266402.061466-.670727-.1633522-.1440867-.2248181-.0860887-.5231794.131727-.6776478l4.6-3.255-5.622 3.245c-.2330829.1306613-.5277074.0549657-.6689423-.1718661-.1412349-.2268319-.0791592-.5246238.1409423-.6761339l2.57-1.725-2.932 1.692c-.2319831.1309881-.5259285.0570795-.6683699-.1680527-.1424414-.2251321-.0833463-.52241.1343699-.6759473l5.662-3.908-5.192 3c-.2341443.133112-.5316521.0568382-.672871-.1725078-.1412189-.2293459-.075396-.5293391.148871-.6784922l.7-.455-.175.1c-.2318603.1330617-.527371.0602043-.6708066-.1653857-.1434357-.22559-.0840493-.5240996.1348066-.6776143l6.282-4.377-5.748 3.319c-.2347034.1364868-.5354374.0607325-.6774741-.1706544-.1420368-.2313868-.073465-.5338394.1544741-.6813456l.42-.273c-.2375206.0738317-.4931955-.0381529-.599987-.262792s-.0322236-.4936183.174987-.631208l2.934-1.954-2.408 1.39c-.2329673.1327691-.5291919.0581284-.6714287-.1691822-.1422368-.2273105-.0798406-.5263539.1414287-.6778178l4.633-3.147-4.1 2.369c-.233204.1287421-.5263939.0520483-.6666872-.1743946-.1402933-.226443-.0784231-.5231151.1406872-.6746054l2.879-1.917-2.354 1.359c-.2263606.1309251-.5153721.0653166-.6630162-.1505114-.1476442-.2158279-.1040467-.5089685.1000162-.6724886l2.443-1.959-1.567.905c-.23893.1358451-.5427102.0533708-.6801373-.1846528-.137427-.2380237-.0569695-.5423443.1801373-.6813472l7.241-4.18c.2259042-.12776206.5120042-.06144377.6586593.15267798.1466552.21412174.1051039.50485322-.0956593.66932202l-2.441 1.958 10.266-5.932c.2335451-.1328438.5303244-.05736382.6720248.17091629s.0776546.52773513-.1450248.67808371l-2.884 1.92 2.357-1.36c.2325262-.13076655.5267591-.05595091.6685809.17000241s.0812744.52345026-.1375809.67599759l-4.637 3.15 4.106-2.37c.2327769-.12708967.524286-.05032185.6642741.17493404.139988.2252559.0797468.52062324-.1372741.67306596l-2.938 1.957 2.411-1.391c.2334572-.12530509.5241289-.04673672.6626677.17911863s.0768365.52056857-.1406677.67188137l-.419.273c.2353854-.0723623.488412.037439.5963426.258784s.0386248.4883196-.1633426.629216l-6.283 4.377 5.747-3.317c.2337734-.1287456.5274505-.051198.667188.1761759.1397374.2273739.07627.5244122-.144188.6748241l-.69.451.167-.1c.2319831-.1309881.5259285-.0570795.6683699.1680527.1424414.2251321.0833463.52241-.1343699.6759473l-5.669 3.913 5.135-2.964c.2330829-.1306613.5277074-.0549657.6689423.1718661.1412349.2268319.0791592.5246238-.1409423.6761339l-2.565 1.723 2.037-1.176c.2313261-.1333882.5266402-.061466.670727.1633522.1440867.2248181.0860887.5231794-.131727.6776478l-4.6 3.253 4.057-2.342c.2296891-.1296297.5205695-.0585592.6646041.1623819s.0916869.5157667-.1196041.6736181l-4.272 3.121 3.727-2.152c.2310609-.1298083.523268-.0567757.6660866.1664779.1428185.2232536.086628.5191613-.1280866.6745221l-1.654 1.175 1.123-.649c.2259084-.1319558.5153456-.0674504.6638412.1479469s.1058364.5088509-.0978412.6730531l-3.889 3.17 3.322-1.917c.227871-.1265147.5147039-.056766.6590373.1602571s.0977476.5085154-.1070373.6697429l-1.234.94.682-.393c.2202286-.1227467.4973928-.0623225.6465459.1409526s.1236267.4857984-.0595459.6590474l-2.338 2.138 1.751-1.011c.2142281-.1242304.4871181-.0729283.6416053.120619.1544873.1935473.1440221.4710204-.0246053.652381l-1.7 1.835 1.081-.624c.2018619-.1159573.4570425-.0772592.6154493.0933328.1584069.1705919.1781225.427936.0475507.6206672l-.953 1.395.29-.167c.1634215-.0944292.3660903-.0887875.5240055.0145867s.2441625.2868623.2229945.4744133l-.192 1.692c.0512162.0397673.0943285.0889901.127.145.0667853.1146867.0852352.2512199.0512847.379519-.0339505.1282992-.1175157.2378372-.2322847.304481l-.26.15c-.076009.0451081-.1626169.0692617-.251.07z" fill="#ccd0da"/><path id="Path" d="m43.036 35.561c-.2043623.0004311-.3884169-.1235489-.4648085-.3130969s-.0297418-.4065064.1178085-.5479031l1.005-.97-.414.24c-.2163843.1232964-.4905169.0685506-.6429461-.1284-.1524291-.1969505-.1366764-.476052.0369461-.6546l1.368-1.387-.762.439c-.2123689.1214471-.4814292.0713915-.6359136-.1183044-.1544843-.1896959-.1490205-.4633181.0129136-.6466956l1.88-2.109-1.257.726c-.2167987.1191224-.4881174.0618073-.638215-.1348206s-.1338516-.473458.038215-.6511794l1.264-1.266-.661.382c-.2163843.1232964-.4905169.0685506-.6429461-.1284-.1524291-.1969505-.1366764-.476052.0369461-.6546l1.353-1.373-.748.431c-.2132902.1227487-.4841863.0720462-.6386451-.1195326-.1544588-.1915787-.14655-.4670654.0186451-.6494674l1.787-1.964-1.167.674c-.2140094.1242074-.4866819.073198-.6413187-.1199729-.1546367-.1931709-.1447222-.4703962.0233187-.6520271l1.736-1.89-1.117.644c-.2119487.1215228-.4806809.0720808-.6354985-.1169206-.1548177-.1890014-.1503782-.4622079.0104985-.6460794l1.933-2.2-1.308.755c-.2113234.1216732-.4795951.0731604-.6349231-.1148162-.155328-.1879765-.1524028-.4605836.0069231-.6451838l2.005-2.321-1.381.8c-.2130757.122757-.4837819.0723545-.6383991-.1188629-.1546171-.1912173-.1472392-.4664769.0173991-.6491371l1.824-2.023-1.2.694c-.2174475.1222843-.4917629.0655717-.6428937-.1329134-.1511308-.1984852-.1328285-.4780031.0428937-.6550866l1.2-1.188-.6.344c-.217772.1239843-.4936884.0676117-.6453756-.131857-.1516872-.1994686-.1322878-.4804159.0453756-.657143l1.138-1.119-.538.311c-.2113234.1216732-.4795951.0731604-.6349231-.1148162-.155328-.1879765-.1524028-.4605836.0069231-.6451838l2-2.318-1.376.794c-.2142281.1242304-.4871181.0729283-.6416053-.120619-.1544873-.1935473-.1440221-.47102037.0246053-.652381l1.692-1.827-1.075.621c-.2132183.12135773-.4829881.07008988-.6368234-.12102378-.1538354-.19111367-.146285-.46560802.0178234-.64797622l1.766-1.935-1.146.663c-.2102941.12201708-.4778777.0750757-.6340828-.11123524-.156205-.18631094-.1557481-.45798032.0010828-.64376476l1.7-2.021-1.069.616c-.2018619.11595727-.4570425.07725919-.6154493-.09333276-.1584069-.17059195-.1781225-.427936-.0475507-.62066724l.8-1.169c-.2243215-.00386716-.4186032-.15668112-.4752068-.37377817s.0383309-.44531822.2322068-.55822183l1.546-.899c.2018619-.11595727.4570425-.07725919.6154493.09333276.1584069.17059195.1781225.427936.0475507.62066724l-.705 1.035 1.637-.944c.2102322-.12072237.4767777-.07323887.6323878.11265615.1556102.18589501.1554467.45663687-.0003878.64234385l-1.7 2.021 1.478-.853c.2135054-.12274612.4845965-.07174497.6388985.12019781.1543021.19194279.1458589.4676604-.0198985.64980219l-1.766 1.934 1.146-.658c.2142281-.1242304.4871181-.07292828.6416053.12061902.1544873.19354729.1440221.47102035-.0246053.65238098l-1.693 1.827 1.077-.622c.2113234-.12167321.4795951-.07316036.6349231.11481618.155328.18797653.1524028.46058365-.0069231.64518382l-2 2.318 1.377-.795c.217772-.12398428.4936884-.06761168.6453756.13185696.1516872.19946865.1322878.48041594-.0453756.65714304l-1.139 1.12.54-.311c.2174475-.1222843.4917629-.0655717.6428937.1329134.1511308.1984852.1328285.4780031-.0428937.6550866l-1.2 1.186.6-.343c.2127921-.1213918.482198-.0707276.6363549.1196723.1541568.1903998.1476562.4644512-.0153549.6473277l-1.829 2.022 1.2-.7c.2113234-.1216732.4795951-.0731604.6349231.1148162.155328.1879765.1524028.4605836-.0069231.6451838l-2.01 2.326 1.383-.8c.2119487-.1215228.4806809-.0720808.6354985.1169206.1548177.1890014.1503782.4622079-.0104985.6460794l-1.933 2.2 1.309-.754c.2137214-.1227494.4850125-.071451.6391595.1208586.1541469.1923095.1451658.4682619-.0211595.6501414l-1.737 1.888 1.12-.646c.2135746-.1241805.4858285-.073761.6407697.118666.1549412.1924269.1461164.4691694-.0207697.651334l-1.787 1.963 1.168-.674c.2163843-.1232964.4905169-.0685506.6429461.1284.1524291.1969505.1366764.476052-.0369461.6546l-1.349 1.371.748-.432c.217123-.1206668.4899085-.063641.6405105.1338986s.1333491.4756874-.0405105.6531014l-1.259 1.266.659-.381c.2127146-.1241989.4841939-.0749768.6397645.1159961.1555705.1909728.148881.4667972-.0157645.6500039l-1.881 2.109 1.258-.726c.216466-.1248481.4918692-.0707117.6449718.1267831s.1368886.4776996-.0379718.6562169l-1.369 1.392.763-.441c.2190652-.1318893.5023394-.0772423.6566242.1266708s.1298566.4913741-.0566242.6663292l-2.391 2.306.018.03c.1380647.2391402.0561341.5449248-.183.683l-1.486.858c-.0765986.0452089-.164058.0687157-.253.068z" fill="#2783ec"/><path id="Path" d="m21.468 38.472c-.1933441.000129-.3694345-.1112243-.4522025-.2859567s-.0573777-.381524.0652025-.5310433l.77-.942-1.98 1.143c-.216926.1250668-.492915.0703862-.6457677-.1279434-.1528528-.1983296-.1354294-.4791432.0407677-.6570566l1.714-1.727-2.5 1.443c-.2262036.1284409-.5131028.0619842-.6597948-.1528333-.1466919-.2148176-.1041677-.5062269.0977948-.6701667l.573-.458-.21.121c-.2202286.1227467-.4973928.0623225-.6465459-.1409526s-.1236267-.4857984.0595459-.6590474l2.527-2.3-1.94 1.12c-.2262112.1327757-.5165722.0681745-.6651499-.1479864-.1485778-.2161609-.1048589-.5103912.1001499-.6740136l.99-.8-.425.245c-.2237424.1292278-.5090949.0666972-.6582921-.1442547-.1491972-.2109518-.1130922-.5008356.0832921-.6687453l1.8-1.532-1.22.7c-.2251719.1281476-.5109328.0630663-.6584056-.14995-.1474728-.2130162-.107801-.5033971.0914056-.66905l.449-.368c-.2174224.0599906-.4480915-.0330106-.5631014-.2270314-.11501-.1940209-.0858839-.4410212.0711014-.6029686l.447-.464c-.1718845.0306002-.3472826-.0306712-.4627256-.1616428s-.1542106-.312674-.1022744-.4793572l.233-.747c-.1556679-.0890543-.2517179-.2546591-.2517179-.434s.09605-.3449457.2517179-.434l.5-.291c.1782096-.1031585.4014368-.0865155.562379.0419287.1609422.1284443.2266828.3424199.165621.5390713l-.125.4 1.722-.994c.2154812-.1230022.4885691-.0693794.6415393.1259712.1529702.1953505.1395447.4733291-.0315393.6530288l-.372.387 2.041-1.178c.2256098-.1311968.5141774-.0668035.6626093.1478598.1484318.2146634.1067938.5073817-.0956093.6721402l-.373.305.638-.368c.2237424-.1292278.5090949-.0666972.6582921.1442547.1491972.2109518.1130922.5008356-.0832921.6687453l-1.8 1.532 1.22-.7c.2257586-.1294404.5130594-.0640705.6605892.1503047.1475298.2143751.1059565.5060712-.0955892.6706953l-.99.8.425-.245c.2202286-.1227467.4973928-.0623225.6465459.1409526s.1236267.4857984-.0595459.6590474l-2.526 2.3 1.94-1.119c.2262036-.1284409.5131028-.0619842.6597948.1528333.1466919.2148176.1041677.5062269-.0977948.6701667l-.577.461.015-.008c.2172386-.126835.4948838-.0725262.6483206.1268149.1534369.1993411.1348847.481639-.0433206.6591851l-1.714 1.726 1.109-.64c.2092222-.121191.4751879-.0753075.6317098.1089805s.1587492.4541733.0052902.6410195l-.773.945c.2416261-.1135544.5298388-.0172457.6546567.2187591s.0422021.5284369-.1876567.6642409l-2.336 1.343c-.0753834.0459517-.1617231.0708175-.25.072z" fill="#ccd0da"/><path id="Path" d="m9.8 23.471c-.20922138.0003656-.3965477-.1295728-.46949669-.3256651-.07294899-.1960922-.01609368-.4168695.14249669-.5533349l1.161-1-2.234 1.289c-.22410193.1321898-.5123213.067898-.659-.147-.14862716-.2126065-.10997707-.5035678.089-.67l2.388-2-1.94 1.12c-.22063985.1157669-.49284281.0514157-.63828606-.1508963-.14544325-.2023121-.1197337-.4808342.06028606-.6531037l2.732-2.391-2.153 1.243c-.21570545.1230645-.48904459.0691582-.64187637-.1265869s-.13883158-.4739971.03287637-.6534131l1.175-1.212-.566.326c-.19576706.1124908-.4426335.0798244-.60240462-.0797128-.15977111-.1595372-.19279924-.4063555-.08059538-.6022872l.413-.715c-.13807586-.0287938-.25715379-.1154621-.327-.238-.13806467-.2391402-.05613408-.5449248.183-.683l1.129-.648c.19576706-.1124908.4426335-.0798244.60240462.0797128.15977111.1595372.19279924.4063555.08059538.6022872l-.282.491 2.052-1.185c.2157055-.1230645.4890446-.0691582.6418764.1265869.1528317.1957451.1388315.4739971-.0328764.6534131l-1.175 1.212 3.477-2.007c.2227723-.1294397.5074311-.0684047.6575526.1409889s.1165485.4985799-.0775526.6680111l-2.732 2.39 2.521-1.455c.2243164-.1264895.5080183-.0619132.6554889.1492026s.1104702.4997121-.0854889.6667974l-2.387 1.991 1.823-1.053c.2235892-.1309392.5101637-.0693762.6602503.1418375.1500866.2112138.1139527.5020905-.0832503.6701625l-1.164 1 .593-.342c.2104359-.1206411.4771079-.0728408.6325393.1133813.1554313.186222.1547824.4571434-.0015393.6426187l-.677.8.052-.03c.1801507-.1035201.4055488-.0848396.5661997.0469252s.2230714.3491514.1568003.5460748l-.2.6c.0683975.0427816.1250955.1018849.165.172.1373847.2389169.0555349.543953-.183.682l-.5.288c-.1800163.1038984-.4055359.0855944-.5664409-.0459743s-.2236347-.3489603-.1575591-.5460257l.074-.21-1.4.806c-.2104531.121793-.4780134.0745268-.634-.112-.1566497-.1860885-.1566497-.4579115 0-.644l.677-.8-2.691 1.55c-.07620283.0456291-.16318482.0701359-.252.071z" fill="#ccd0da"/><path id="Path" d="m15.551 26.471c-.2195953-.0001598-.4133847-.1435812-.4777062-.3535451-.0643216-.209964.0158812-.4373217.1977062-.5604549l.558-.376-1.6.923c-.2294759.1268358-.5179525.0548652-.6609568-.1648989-.1430044-.219764-.0919582-.5126682.1169568-.6711011l6.422-4.684-6.8 3.928c-.2340027.1389988-.5362016.0652981-.6799386-.1658244s-.0762078-.5347601.1519386-.6831756l2.358-1.577-1.857 1.068c-.23265.1288599-.5254615.0530472-.6663444-.1725252s-.0805297-.5219566.1373444-.6744748l2.83-1.9-2.3 1.328c-.2311923.1280141-.5220815.054013-.6639947-.1689178-.1419132-.2229309-.0858401-.5178012.1279947-.6730822l3.676-2.561-3.14 1.813c-.2309306.1317312-.5245674.0597083-.6683337-.1639283-.1437664-.2236366-.0873821-.520673.1283337-.6760717l2.27-1.616-1.731 1c-.2281943.1273484-.5159664.0574929-.6603781-.1603041-.1444117-.2177969-.0967481-.5100652.1093781-.6706959l1.809-1.369-1.258.726c-.2174475.1222843-.4917629.0655717-.6428937-.1329134-.1511308-.1984852-.1328285-.4780031.0428937-.6550866l2.052-2.034-1.45.837c-.2028685.1169845-.4597544.0774921-.6181161-.0950262s-.1757685-.4318386-.0418839-.6239738l.714-1.022c-.1810779-.0006862-.3488123-.0953444-.443-.25-.1373847-.2389169-.0555349-.543953.183-.682l1.627-.94c.2028685-.1169845.4597544-.0774921.6181161.0950262s.1757685.4318386.0418839.6239738l-.631.9 2.844-1.641c.2174475-.1222843.4917629-.0655717.6428937.1329134.1511308.1984852.1328285.4780031-.0428937.6550866l-2.051 2.033 4.9-2.829c.2283835-.1299972.5184238-.0610156.6638282.1578813.1454044.2188968.0965443.5129964-.1118282.6731187l-1.813 1.371 3.825-2.208c.2309306-.1317312.5245674-.0597083.6683337.1639283.1437664.2236366.0873821.520673-.1283337.6760717l-2.267 1.614 4.262-2.46c.2318603-.1330617.527371-.0602043.6708066.1653857.1434357.22559.0840493.5240996-.1348066.6776143l-3.679 2.563 4.741-2.737c.2330829-.1306613.5277074-.0549657.6689423.1718661.1412349.2268319.0791592.5246238-.1409423.6761339l-2.828 1.9 2.3-1.328c.2335451-.1328438.5303244-.0573638.6720248.1709163s.0776546.5277351-.1450248.6780837l-2.349 1.568 1.824-1.053c.2300482-.1308569.5222207-.059778.6664488.1621318.1442281.2219099.0905463.5177734-.1224488.6748682l-6.419 4.685 5.883-3.4c.2329673-.1327691.5291919-.0581284.6714287.1691822.1422368.2273105.0798406.5263539-.1414287.6778178l-.558.377.03-.018c.2308022-.1338179.5260112-.0628564.670779.1612399s.0880924.5223777-.128779.6777601l-1.876 1.355 1.34-.774c.2226556-.1273746.5055829-.0655928.6548741.1430023.1492912.2085952.1165111.4963282-.0758741.6659977l-2.746 2.4 2.171-1.253c.2156332-.1260678.4912237-.0736612.6455329.1227553.1543092.1964164.1399934.4765801-.0335329.6562447l-1.221 1.277.613-.354c.1727644-.0993777.3880487-.0866598.5479108.032368.1598621.1190277.2337658.3216291.1880892.515632l-.291 1.233c.1759505.0727709.2952977.2391596.3078224.4291525s-.0839474.3706088-.2488224.4658475l-.5.288c-.1729898.1002713-.3890839.0878404-.5494342-.0316065-.1603504-.1194469-.2341206-.3229393-.1875658-.5173935l.23-.969-2.633 1.52c-.2153503.1242965-.4893142.0714636-.643-.124-.1519409-.1948507-.1387686-.4714688.031-.651l1.221-1.277-3.561 2.052c-.2223898.1269737-.5047663.065395-.6540994-.1426415-.1493332-.2080365-.1173442-.4952735.0740994-.6653585l2.748-2.407-5.57 3.215c-.2308022.1338179-.5260112.0628564-.670779-.1612399s-.0880924-.5223777.128779-.6777601l1.878-1.35-3.794 2.189c-.075326.0451197-.1612056.0696074-.249.071z" fill="#2783ec"/><path id="Path" d="m6.243 59.471c-.22305549.0000008-.41913366-.1477468-.48062622-.3621586s.02647517-.4436228.21562622-.5618414l4.753-2.969-6.589 3.8c-.23693016.1422133-.54428665.0654301-.68649997-.1715-.14221331-.2369302-.06543016-.5442867.17149997-.6865l5.122-3.189-6.141 3.549c-.23620749.133071-.53543293.0536509-.67455995-.1790411-.13912701-.2326919-.06746125-.5338687.16155995-.6789589l4.724-2.929c-.20833815.0435703-.42142211-.0495285-.531-.232-.14003974-.2337636-.06710596-.5366166.164-.681l6.172-3.855c-.0959045-.0406396-.1764369-.1106678-.23-.2-.1425758-.2291883-.0775112-.5301672.147-.68l8.313-5.539c-.1601703-.0755048-.2684583-.2300949-.2846938-.4064239-.0162354-.176329.0620037-.3480935.2056938-.4515761l6.094-4.379c-.0436534-.2108963.0526416-.426049.239-.534l2.592-1.492c.2301828-.1290216.5210052-.0569569.6643125.1646141.1433073.2215711.0897614.5163656-.1223125.6733859l-.728.524 1.554-.9c.2340027-.1389988.5362016-.0652981.6799386.1658244s.0762078.5347601-.1519386.6831756l-5.525 3.681 6.212-3.586c.2350866-.127347.5287583-.0472199.6665908.1818764.1378325.2290964.071048.5260868-.1515908.6741236l-1.339.836 1.724-.994c.2352087-.125628.5276152-.0445694.664573.1842276.1369579.228797.070267.5248112-.151573.6727724l-4.026 2.5 4.492-2.593c.2361735-.1361818.537908-.0580681.6783318.1756081.1404239.2336761.0677709.5367718-.1633318.6813919l-5.125 3.192 5.635-3.253c.2347345-.1238045.5252986-.0426548.6619149.1848618.1366163.2275167.0716853.5221296-.1479149.6711382l-4.749 2.967 5.248-3.03c.2343611-.1288923.5286543-.0505227.6678755.1778537.1392213.2283764.0740613.5258734-.1478755.6751463l-8.855 5.668 9.6-5.542c.2354379-.13455.5352149-.0569022.6757281.1750261.1405133.2319283.0705395.5335888-.1577281.6799739l-6.429 4.093 7.046-4.072c.2341443-.133112.5316521-.0568382.672871.1725078.1412189.2293459.075396.5293391-.148871.6784922l-8.881 5.815 9.719-5.611c.234285-.1222281.52323-.0410463.6595757.1853141.1363457.2263603.0730104.5197344-.1445757.6696859l-.587.37.948-.547c.2355125-.13196.5332497-.0531389.6726204.1780652.1393708.2312042.0700423.5312938-.1566204.6779348l-.409.259.763-.441c.2329673-.1327691.5291919-.0581284.6714287.1691822.1422368.2273105.0798406.5263539-.1414287.6778178l-7.794 5.269 8.686-5.015c.2334572-.1253051.5241289-.0467367.6626677.1791186.1385388.2258554.0768365.5205686-.1406677.6718814l-2.952 1.927 3.449-1.991c.2347034-.1364868.5354374-.0607325.6774741.1706544.1420368.2313868.073465.5338394-.1544741.6813456l-1.63 1.061 2.05-1.184c.2325262-.1307666.5267591-.0559509.6685809.1700024s.0812744.5234503-.1375809.6759976l-4.445 3.031 5.11-2.95c.2340569-.1357068.5336008-.0606207.6759704.1694442s.0759129.5316408-.1499704.6805558l-.983.651 1.372-.792c.2295527-.1314921.521805-.0614183.6667704.1598726.1449654.2212908.0924688.5172061-.1197704.6751274l-4.97 3.675 5.871-3.389c.2308022-.1338179.5260112-.0628564.670779.1612399s.0880924.5223777-.128779.6777601l-2.727 1.961 3.323-1.918c.2275891-.1298897.5168511-.062032.6629348.1555172.1460838.2175492.0994243.5109773-.1069348.6724828l-3.089 2.391 3.833-2.213c.2259042-.1277621.5120042-.0614438.6586593.152678.1466552.2141217.1051039.5048532-.0956593.669322l-2.307 1.859 2.982-1.722c.2283835-.1299972.5184238-.0610156.6638282.1578813.1454044.2188968.0965443.5129964-.1118282.6731187l-.149.113.467-.269c.2130757-.122757.4837819-.0723545.6383991.1188629.1546171.1912173.1472392.4664769-.0173991.6491371l-1.738 1.918 2.628-1.516c.2139383-.1227586.4854345-.0711644.6394281.1215147.1539936.1926792.1444708.4688702-.0224281.6504853l-.633.683 1.085-.626c.1943157-.1121071.4395136-.0810683.5997651.0759223s.196324.4014986.0882349.5980777l-.391.709.854-.493c.23893-.1358451.5427102-.0533708.6801373.1846528.137427.2380237.0569695.5423443-.1801373.6813472l-2.408 1.387c-.194106.111509-.4386752.0804127-.5987-.0761232s-.1965039-.4003603-.0893-.5968768l.391-.709-2.4 1.382c-.2139383.1227586-.4854345.0711644-.6394281-.1215147-.1539936-.1926792-.1444708-.4688702.0224281-.6504853l.632-.682-2.517 1.454c-.2130757.122757-.4837819.0723545-.6383991-.1188629-.1546171-.1912173-.1472392-.4664769.0173991-.6491371l1.738-1.918-4.655 2.686c-.2283835.1299972-.5184238.0610156-.6638282-.1578813-.1454044-.2188968-.0965443-.5129964.1118282-.6731187l.147-.111-1.633.942c-.2259042.1277621-.5120042.0614438-.6586593-.152678-.1466552-.2141217-.1051039-.5048532.0956593-.669322l2.306-1.857-4.641 2.679c-.2275891.1298897-.5168511.062032-.6629348-.1555172-.1460838-.2175492-.0994243-.5109773.1069348-.6724828l3.093-2.393-5.584 3.221c-.2308022.1338179-.5260112.0628564-.670779-.1612399s-.0880924-.5223777.128779-.6777601l2.732-1.961-4.853 2.8c-.2295527.1314921-.521805.0614183-.6667704-.1598726-.1449654-.2212908-.0924688-.5172061.1197704-.6751274l4.964-3.67-7.806 4.505c-.233204.1287421-.5263939.0520483-.6666872-.1743946-.1402933-.226443-.0784231-.5231151.1406872-.6746054l.981-.65-2.6 1.5c-.2318412.125947-.5216461.0500755-.6620287-.1733204-.1403825-.223396-.0830243-.5174256.1310287-.6716796l4.447-3.033-6.719 3.877c-.2337734.1287456-.5274505.051198-.667188-.1761759-.1397374-.2273739-.07627-.5244122.144188-.6748241l1.632-1.063-3.309 1.914c-.2337734.1287456-.5274505.051198-.667188-.1761759-.1397374-.2273739-.07627-.5244122.144188-.6748241l2.957-1.927-4.814 2.778c-.2322377.1273115-.5234633.0514462-.664069-.1729923-.1406056-.2244384-.0818101-.5195841.134069-.6730077l7.793-5.269-10.591 6.115c-.2349709.1292146-.5300387.050062-.6687925-.179405-.1387537-.2294671-.0717837-.5275361.1517925-.675595l.4-.255-1.92 1.11c-.2346058.1253855-.5263122.0451285-.6637604-.18262-.1374483-.2277485-.0725112-.523243.1477604-.67238l.592-.372-2.131 1.227c-.2333291.1269664-.5252099.0493179-.6646076-.1768043-.1393976-.2261221-.0776459-.5217747.1406076-.6731957l8.884-5.817-11.545 6.667c-.2348642.1312813-.531504.0531604-.6712412-.1767732-.1397372-.2299337-.0724576-.5292187.1522412-.6772268l6.439-4.1-8.582 4.954c-.23436107.1288923-.5286543.0505227-.66787555-.1778537-.13922124-.2283764-.07406124-.5258734.14787555-.6751463l8.848-5.663-11.288 6.516c-.07561844.0452887-.16186523.0697828-.25.071z" fill="#636a77"/><g fill="#262626"><path id="Shape" d="m59.731 26.74c.1043121-1.1776548-.0109757-2.3644408-.34-3.5.087-.167 0-.293-.157-.369-.1945816-.391097-.4393096-.7551636-.728-1.083-1.611-1.851-4.168-3.267-6.123-4.766-.7561503-1.7718629-2.3903717-3.0138712-4.3-3.268-.022-.022-.029-.046-.067-.065l-.02-.01c-.0843598-.0390811-.1760343-.0598698-.269-.061v-8.411c0-1.518.2-3.107-1.028-4.2-.0287486-.05541208-.0747233-.09998299-.131-.127l-.004-.01c-.0288488-.01622202-.0593573-.02929708-.091-.039-.015266-.00845966-.030953-.01613627-.047-.023h-.009c-.0437463-.01459505-.0890577-.02399297-.135-.028-2.506-.6-3.639.959-4.1 3.248l-3.891 2.072c-2.874-2.375-6.491-6.843-10.267-4.655-4.716 2.733-8.98 6.951-13.29 10.32-1.3782793.3037246-2.36986 1.5109741-2.4 2.922-1.1962426-.1205066-2.40351298-.0713539-3.586.146-1.472.367-1.522 1.438-1.491 2.633-2.343 1.776-4.88 3.17-6.16 5.46-.4.137-.731.4-.491.584l.15.117c-.29321329.7202464-.45901387 1.4859744-.49 2.263-.286 6.076 0 12.233 0 18.315v8.325c0 1.362-.352 3.5.242 4.833 1.322 2.963 5.671 2.13 8.259 2.13h39.582c2.543 0 6.655.765 9.131-.339 3.481-1.552 2.251-7.568 2.251-10.532zm-1.462.131v16.852c0 3.569.991 8.787 0 12.243-.1201702.4367668-.3179921.8483312-.584 1.215l-15.669-12.172c-1.139-.884-2.982-2.659-4.963-4.351l6.206-4.818c.2011372-.0494115.3717061-.182157.469-.365l3.5-2.718c.1944686-.0503518.3594887-.1788214.456-.355l10.2-7.921c.260454.7696874.3905761 1.5774584.385 2.39zm-33.958 13.419-2.43-1.89c1.91-.322 2.853-1.357 2.853-3.853v-3.24h1.123c.852028.1165693 1.7169266-.0884252 2.426-.575.584-.526.441-1.35.441-2.06v-1.647l13.583 7.244v1.077l-6.017 4.672c-2.247-1.852-4.575-3.444-6.191-3.41-2.057.043-4.156 2.239-5.788 3.682zm-10.587-17.484v-4.994-.043c0-.021 0-.043 0-.064v-2.9c0-.022-.018-.038-.043-.05-.0401012-1.1247369.7419985-2.1123179 1.846-2.331 2.5-.55 5.731 0 8.288 0 1.0306475.1053625 2.0693525.1053625 3.1 0 .1188789-.0180142.2387928-.0283688.359-.031v.148.025c-.459 4.23-.039 8.729-.006 13.008h-2.739c-.1427637-.0763767-.303188-.1136366-.465-.108h-6c-.2826263.0163063-.5448908.1523492-.721.374-.6863732.0172688-1.3712482-.0724735-2.03-.266-1.035-.356-1.486-1.392-1.663-2.624.0428333-.0362505.0694626-.0880697.074-.144zm13.552 3.948c.0670039 1.1366801.0670039 2.2763199 0 3.413-.0697925.16467-.0889403.3464003-.055.522-.3326271.0306852-.6673729.0306852-1 0h-1.49v-4.238c.958-.014 1.914-.024 2.868-.025-.183.085-.323.194-.323.328zm-8.537 9.21c-.138-3.132-.024-6.293-.01-9.431h4.537v6.134c.1155059 1.04348.1155059 2.09652 0 3.14-.392 1.552-1.356 1.652-2.593 1.659zm38.748-12.4-9.756 7.574v-6.954c2.4323828-.2930493 4.4080429-2.1026301 4.913-4.5.0418815-.2576472.0649425-.5180026.069-.779 1.946 1.418 3.777 2.743 4.774 4.657zm-6.4-5.694c.67 2.435-.676 5.355-3.359 5.773v-9.119c1.6345837.4392412 2.9139902 1.7117978 3.362 3.344zm-5.607-16.153c1.394 1.182.789 4.409.789 5.93v24.625l-2.5 1.941c-.005-4.923-.037-9.854-.037-14.779v-11.5c0-.042 0-.105-.007-.168v-3.96c-.0023453-.02491009-.0113233-.04873653-.026-.069.176-1.272.654-2.26 1.781-2.02zm-3.211 12.421c0 1.192.005 2.385.007 3.577v15.26l-9.926-5.293c-.9-.48-3.258-1.4-3.624-2.1v-13.422c.013-.031.017-.047.024-.065.029.012.133-.036.443-.322.821625-.5646029 1.7045932-1.0342668 2.632-1.4l10.216-5.452c-.401 3.258.228 7.469.228 9.217zm-10.544-11.512c1.857 1.229 3.573 2.753 5.329 4.135l-9.022 4.812c-3.847-.006-7.724-.147-11.569-.007l10.637-8.266c1.907-1.478 2.459-2.107 4.625-.674zm-21.041 12.653c.5280318-.0717347 1.0631087-.0750957 1.592-.01v.015c-.064.985 0 2.09 0 3.227 0 1.343-.16 2.813-.12 4.21h-1.737c-1.166 0-1.7-.405-1.7-1.579v-3.695c0-.478.046-.984 0-1.462-.00313632-.1717968.01979085-.3430762.068-.508.01519227-.0542905.01519227-.1117095 0-.166.03128818-.0087881.06201178-.0194745.092-.032.59860208-.0858804 1.2063979-.0858804 1.805 0zm-7.938 7.029c1.3297221-1.3963636 2.84727261-2.600913 4.509-3.579-.092 1.329-.427 3.906.672 4.433.69500889.1790047 1.41856115.2187678 2.129.117h2.144c.02.271.029.546.071.807.309 1.909 1.559 2.261 3.253 2.339.577.026 1.157.032 1.736.045-.01 2.769-.093 5.556-.027 8.327-5-3.884-10.00266667-7.7683333-15.008-11.653.14335061-.2964523.31801154-.5767144.521-.836zm14.641 14.229c.0465956.0562971.1049654.1016959.171.133l5.742 4.455-5.217 4.052-15.483 12.023c-1.87-2.555-.869-7.777-.869-10.33v-18.93c-.07548057-1.1666359-.05072311-2.337597.074-3.5zm32.191 21.97h-35.241c-2.883 0-7.053.784-9.852 0-.46455496-.1281894-.89692705-.3527231-1.269-.659l13.884-10.786 7.119-5.53c.149-.115.306-.248.468-.386.076877-.0438445.1447425-.1018695.2-.171 1.5-1.32 3.443-3.312 5.068-3.235 1.957.092 4.161 2.739 5.734 3.961l7.119 5.53 13.907 10.805c-1.93 1.127-5.015.471-7.137.471z"/><path id="Path" d="m18.726 16.438h5c.282 0 .836-.091.953-.407.11-.3-.095-.469-.4-.469h-5c-.282 0-.836.091-.953.407-.115.297.09.469.4.469z"/><path id="Path" d="m39.582 10.968-7 3.733c-.844.45.489.383.836.2l7-3.734c.844-.452-.489-.385-.836-.199z"/></g></g></svg>