<svg height="512" viewBox="0 0 60 60" width="512" xmlns="http://www.w3.org/2000/svg"><g id="034---Computer-Science-Ideas" fill="none"><path id="Path" d="m31.072 59.3c-.205003.0000867-.3892888-.1249732-.4649305-.3155108-.0756417-.1905377-.0273118-.4079438.1219305-.5484892l.565-.532-2.263 1.306c-.2262036.1284409-.5131028.0619842-.6597948-.1528333-.1466919-.2148176-.1041677-.5062269.0977948-.6701667l1.068-.857-1.888 1.09c-.2201191.1211079-.4959248.0600693-.6443868-.1426092s-.1234717-.48405.0583868-.6573908l3.351-3.037-4.246 2.452c-.2244518.1286386-.5099659.0648202-.6582866-.1471407-.1483207-.211961-.1104625-.5020607.0872866-.6688593l1.337-1.124-1.364.787c-.2225362.1254221-.5038286.0629326-.6523283-.1449156-.1484997-.2078483-.1164484-.49421.0743283-.6640844l.294-.256c-.1668016.0597663-.3527766.0267905-.4888608-.0866815-.1360841-.1134719-.2019507-.290491-.1731392-.4653185l.276-1.665c-.1942932-.0536131-.3373984-.218642-.3629628-.4185687-.0255644-.1999266.0714113-.3956544.2459628-.4964313l.5-.29c.1671663-.0961957.3747551-.0876681.5334683.0219144.1587131.1095825.2402483.300679.2095317.4910856l-.242 1.469 3.455-1.994c.2229237-.1277986.5064223-.0658196.6556784.1433455.1492561.2091652.11567.4974096-.0776784.6666545l-.259.226 1.806-1.043c.2245855-.1309436.5120466-.0679354.6612702.144943.1492235.2128783.1104168.5045939-.0892702.671057l-1.336 1.125 3.374-1.948c.2201191-.1211079.4959248-.0600693.6443868.1426092s.1234717.48405-.0583868.6573908l-3.355 3.041 3.516-2.029c.2262036-.1284409.5131028-.0619842.6597948.1528333.1466919.2148176.1041677.5062269-.0977948.6701667l-1.067.855.291-.167c.2208144-.1342809.5075757-.0781561.6614736.1294633s.1242133.4983097-.0684736.6705367l-1.262 1.19c.1658725.081279.2734209.2473874.2797002.4319966.0062792.1846091-.0897338.3576414-.2497002.4500034l-2.546 1.469c-.0758222.0443362-.1621679.0674768-.25.067z" fill="#ced2dc"/><path id="Path" d="m23.6 54.471c-.2152152 0-.4062846-.137715-.4743416-.3418861-.0680571-.2041711.0021694-.4289848.1743416-.5581139l.4-.3-1.455.839c-.2153999.1215368-.4872923.0673322-.6396178-.1275144-.1523256-.1948467-.1393104-.4717839.0306178-.6514856l2.023-2.1-2.331 1.346c-.207659.1183705-.470055.0732098-.6261925-.1077734-.1561375-.1809831-.1623424-.4471647-.0148075-.6352266l1.876-2.37c-.0674651-.2222367.0269826-.4616699.228-.578l.5-.289c.2079723-.120645.4723656-.0761851.6294405.1058457.157075.1820307.1623505.4500842.0125595.6381543l-.85 1.059 3.141-1.812c.2153999-.1215368.4872923-.0673322.6396178.1275144.1523256.1948467.1393104.4717839-.0306178.6514856l-2.023 2.1 5-2.885c.227731-.1281621.5157443-.059345.6609391.1579231.1451949.217268.0985947.509699-.1069391.6710769l-.4.308 1.975-1.141c.2180963-.1257781.4956948-.0697764.6479698.1307191.1522751.2004955.1317242.4829397-.0479698.6592809l-2.231 2.178 5.155-2.976c.2144477-.1242599.4875608-.0726667.6419004.1212601.1543397.1939268.1433197.4716518-.0259004.6527399l-2.35 2.521 3.639-2.1c.2225362-.1254221.5038286-.0629326.6523283.1449156.1484997.2078483.1164484.49421-.0743283.6640844l-.43.375.833-.48c.2134326-.1213489.4833915-.0697812.6370683.1216932.1536769.1914744.1455966.4661956-.0190683.6483068l-.615.671.34-.2c.1549945-.0985297.351531-.1041539.5119064-.0146489.1603754.0895049.2587712.2597296.2562855.4433739s-.1054527.3511436-.2681919.436275l-3.162 1.825c-.2134326.1213489-.4833915.0697812-.6370683-.1216932-.1536769-.1914744-.1455966-.4661956.0190683-.6483068l.614-.67-2.5 1.441c-.2225362.1254221-.5038286.0629326-.6523283-.1449156-.1484997-.2078483-.1164484-.49421.0743283-.6640844l.43-.374-2.048 1.182c-.214156.122774-.4858627.0708854-.6397046-.1221662s-.1437736-.4694853.0237046-.6508338l2.351-2.523-5.71 3.3c-.2180963.1257781-.4956948.0697764-.6479698-.1307191-.1522751-.2004955-.1317242-.4829397.0479698-.6592809l2.231-2.177-5.14 2.963c-.074316.0449187-.1591781.0694114-.246.071z" fill="#bbc1ce"/><path id="Path" d="m23.109 48.5c-.2202536-.0001707-.4144542-.1444469-.478208-.3552717s.0179569-.4385371.201208-.5607283l4.816-3.207-5.368 3.1c-.2347034.1364868-.5354374.0607325-.6774741-.1706544-.1420368-.2313868-.073465-.5338394.1544741-.6813456l7.018-4.59-6.495 3.75c-.2346058.1253855-.5263122.0451285-.6637604-.18262-.1374483-.2277485-.0725112-.523243.1477604-.67238l1.906-1.2-1.483.855c-.2349709.1292146-.5300387.050062-.6687925-.179405-.1387537-.2294671-.0717837-.5275361.1517925-.675595l4.467-2.83-4.088 2.36c-.2354116.1379583-.5379577.061708-.6798637-.1713453-.1419059-.2330532-.070765-.5368414.1598637-.6826547l7.771-4.978-7.533 4.348c-.2348642.1312813-.531504.0531604-.6712412-.1767732-.1397372-.2299337-.0724576-.5292187.1522412-.6772268l7.252-4.611-7.162 4.134c-.2356087.1297647-.5316571.04988-.6700067-.1807924-.1383496-.2306723-.0694166-.5294607.1560067-.6762076l.475-.294-.28.161c-.2361017.1433179-.5436821.0681017-.687-.168s-.0681017-.5436821.168-.687l13.135-8.59-13.535 7.813c-.2343611.1288923-.5286543.0505227-.6678755-.1778537-.1392213-.2283764-.0740613-.5258734.1478755-.6751463l10.87-6.97-11.2 6.467c-.2347034.1364868-.5354374.0607325-.6774741-.1706544-.1420368-.2313868-.073465-.5338394.1544741-.6813456l14.1-9.186-14.869 8.585c-.2363779.1430418-.5439582.0673779-.687-.169s-.0673779-.5439582.169-.687l9.86-6.242-10.353 5.984c-.2362845.1306359-.5336041.0500916-.6716393-.181948s-.0669238-.5317553.1606393-.677052l.585-.36-.784.452c-.2342478.1308833-.5300435.0535271-.6702262-.1752769s-.074765-.527467.1482262-.6767231l15.208-9.868-15.947 9.201c-.2349709.1292146-.5300387.050062-.6687925-.179405-.1387537-.2294671-.0717837-.5275361.1517925-.675595l10.269-6.476-10.568 6.1c-.1534456.09146-.3440284.0941103-.4999579.0069525s-.2535161-.2508822-.256-.4295.0905123-.3449925.2439579-.4364525l1.905-1.172-1.967 1.135c-.2342478.1308833-.5300435.0535271-.6702262-.1752769s-.074765-.527467.1482262-.6767231l14.728-9.5-14.973 8.643c-.234023.1252853-.5251579.0458598-.6631351-.1809119-.1379772-.2267718-.0746978-.5218373.1441351-.6720881l13.093-8.385-13.193 7.615c-.2347345.1238045-.5252986.0426548-.6619149-.1848618-.1366163-.2275167-.0716853-.5221296.1479149-.6711382l6.287-3.923-6.1 3.521c-.2362075.133071-.5354329.0536509-.6745599-.1790411-.1391271-.2326919-.0674613-.5338687.1615599-.6789589l2.245-1.388-2.014 1.163c-.2352087.125628-.5276152.0445694-.664573-.1842276-.1369579-.228797-.070267-.5248112.151573-.6727724l2.1-1.3-1.714.99c-.2361017.1433179-.5436821.0681017-.687-.168s-.0681017-.5436821.168-.687l8.8-5.588-8.412 4.856c-.2347713.1336383-.5332399.0566316-.6740509-.1739091-.1408109-.2305408-.0730402-.5312411.1530509-.6790909l10.781-6.979-10.2 5.888c-.2341443.133112-.5316521.0568382-.672871-.1725078-.1412189-.2293459-.075396-.5293391.148871-.6784922l9.888-6.451-9.186 5.3c-.2338963.1269547-.5262491.04845-.6650871-.1785941-.1388379-.227044-.0755015-.5230536.1440871-.6734059l6.464-4.176-5.447 3.144c-.2349709.1292146-.5300387.050062-.6687925-.179405-.1387537-.2294671-.0717837-.5275361.1517925-.675595l.768-.485c-.2022524.0337965-.4049919-.0573179-.514-.231-.1416128-.2304662-.0742636-.531765.152-.68l3.775-2.47-2.361 1.366c-.2313261.1333882-.5266402.061466-.670727-.1633522-.1440867-.2248181-.0860887-.5231794.131727-.6776478l5.528-3.909-3.178 1.835c-.2290632.13219788-.5214568.06314799-.6671806-.15755725-.1457237-.22070523-.094369-.51671981.1171806-.67544275l3.332-2.5c-.0703691-.04368106-.128785-.10415872-.17-.176-.1380647-.23914015-.0561341-.54492481.183-.683l4.961-2.865c.2290632-.13219788.5214568-.06314799.6671806.15755725.1457237.22070523.094369.51671981-.1171806.67544275l-1.576 1.184 5.362-3.095c.2313261-.13338821.5266402-.06146595.670727.16335216.1440867.22481812.0860887.52317941-.131727.67764784l-5.522 3.905 8.457-4.883c.2341443-.13311196.5316521-.0568382.672871.17250776s.075396.52933917-.148871.67849224l-3.771 2.47 5.369-3.1c.2363779-.14304174.5439582-.06737786.687.16900001.1430417.23637787.0673779.54395823-.169.68699999l-.152.094 1.128-.65c.2355494-.14414631.5433537-.07004943.6875.16550001s.0700494.54335367-.1655.68749999l-6.472 4.178 7.742-4.469c.2341443-.13311196.5316521-.0568382.672871.17250776s.075396.52933917-.148871.67849224l-9.879 6.446 11.306-6.529c.2355494-.14414631.5433537-.07004943.6875.16550001s.0700494.54335367-.1655.68749999l-10.783 6.98 11.883-6.86c.234481-.12707284.5274228-.04774006.6657366.18029089.1383139.22803094.0733058.52448086-.1477366.67370911l-8.8 5.589 9.631-5.555c.2352087-.12562801.5276152-.04456942.664573.18422757.1369579.22879699.070267.52481121-.151573.67277243l-2.1 1.3 2.457-1.418c.2362075-.13307102.5354329-.05365088.6745599.17904108.1391271.23269196.0674613.53386873-.1615599.67895892l-2.26 1.395 2.62-1.513c.2350866-.12734701.5287583-.04721993.6665908.18187644.1378325.22909636.071048.52608673-.1515908.67412356l-6.275 3.914 6.648-3.838c.2343611-.12889229.5286543-.05052268.6678755.17785371.1392213.22837639.0740613.52587341-.1478755.67514629l-13.1 8.392 13.704-7.913c.2342478-.13088329.5300435-.05352709.6702262.17527691.1401827.22880401.074765.52746697-.1482262.67672309l-14.719 9.5 15.234-8.795c.2372063-.14138488.5441151-.06370628.6855.17350001s.0637063.54411509-.1735.68549999l-1.893 1.165 1.924-1.111c.2363779-.1427656.5437344-.0668778.6865.1695.1427656.2363779.0668779.5437344-.1695.6865l-10.282 6.479 10.423-6.017c.2337734-.1287456.5274505-.051198.667188.1761759.1397374.2273739.07627.5244122-.144188.6748241l-15.2 9.864 15.382-8.881c.2357179-.1278172.530297-.0469384.667702.1833224.137405.2302607.0687118.5279174-.155702.6746776l-.6.369.388-.223c.2354379-.13455.5352149-.0569022.6757281.1750261.1405133.2319283.0705395.5335888-.1577281.6799739l-9.859 6.24 9.641-5.564c.2337734-.1287456.5274505-.051198.667188.1761759.1397374.2273739.07627.5244122-.144188.6748241l-14.107 9.192 13.842-7.991c.234023-.1252853.5251579-.0458598.6631351.1809119.1379772.2267718.0746978.5218373-.1441351.6720881l-10.872 6.968 10.4-6c.2337734-.1287456.5274505-.051198.667188.1761759.1397374.2273739.07627.5244122-.144188.6748241l-13.13 8.585 12.37-7.141c.2356087-.1297647.5316571-.04988.6700067.1807924.1383496.2306723.0694166.5294607-.1560067.6762076l-.645.4c.2396538-.0925962.5104785.0115051.6264084.2407828.1159298.2292777.0392281.5090991-.1774084.6472172l-7.25 4.61 6.16-3.556c.2348642-.1312813.531504-.0531604.6712412.1767732.1397372.2299337.0724576.5292187-.1522412.6772268l-7.774 4.979 6.353-3.667c.2363779-.1427656.5437344-.0668779.6865.1695s.0668779.5437344-.1695.6865l-4.469 2.83 2.773-1.6c.2346058-.1253855.5263122-.0451285.6637604.18262.1374483.2277485.0725112.523243-.1477604.67238l-2.145 1.352c.2426323-.0884661.5127161.0224077.6232056.255836.1104894.2334284.0250247.5125951-.1972056.644164l-7.023 4.584 3.336-1.924c.2330829-.1306613.5277074-.0549657.6689423.1718661.1412349.2268319.0791592.5246238-.1409423.6761339l-4.816 3.206 2.846-1.64c.2309306-.1317312.5245674-.0597083.6683337.1639283.1437664.2236366.0873821.520673-.1283337.6760717l-4.768 3.4 3.336-1.926c.2295527-.1314921.521805-.0614183.6667704.1598726.1449654.2212908.0924688.5172061-.1197704.6751274l-2.492 1.837 1.5-.865c.2264876-.1252235.5111005-.0569226.656093.157448s.1024398.5039544-.098093.667552l-1.285 1.012.6-.347c.2208144-.1342809.5075757-.0781561.6614736.1294633s.1242133.4983097-.0684736.6705367l-.939.882.278-.16c.187604-.1086385.4238443-.0840049.585.061.1614938.1455693.2104068.3788155.121.577l-.451.994c.182719-.0025875.3528581.0927819.446.25.066536.1150507.084529.2518576.0500041.3801999-.0345248.1283423-.1187262.2376584-.2340041.3038001l-1.063.613c-.1880694.1088978-.4249453.0838421-.5860703-.061992-.161125-.145834-.2095978-.3790472-.1199297-.577008l.406-.9-2.67 1.537c-.2208144.1342809-.5075757.0781561-.6614736-.1294633s-.1242133-.4983097.0684736-.6705367l.94-.883-2.918 1.685c-.2266506.1274915-.5131906.0599635-.6590607-.1553189-.1458701-.2152823-.1023667-.5064398.1000607-.6696811l1.283-1.01-3.187 1.84c-.2295527.1314921-.521805.0614183-.6667704-.1598726-.1449654-.2212908-.0924688-.5172061.1197704-.6751274l2.492-1.837-4.638 2.677c-.2309306.1317312-.5245674.0597083-.6683337-.1639283-.1437664-.2236366-.0873821-.520673.1283337-.6760717l4.768-3.4-7.352 4.244c-.075203.0466091-.1615436.0721659-.25.074z" fill="#ffc306"/><path id="Path" d="m31.926 50.471c-.2116005.0005966-.4006651-.1320712-.4720762-.3312585-.071411-.1991873-.0097041-.4217596.1540762-.5557415l.079-.064-1.531.883c-.2121584.1214824-.4810525.071733-.6357028-.1176145-.1546503-.1893474-.1497002-.4627602.0117028-.6463855l1.448-1.628-4.144 2.389c-.2085649.1202746-.4732297.0748336-.6297325-.1081204s-.1603978-.4514631-.0092675-.6388796l1.494-1.845-4.491 2.592c-.2187434.1297091-.5000021.0745628-.6535686-.128145s-.1305136-.4883932.0535686-.663855l1.156-1.108-3.048 1.76c-.2083669.1203944-.4729381.0752795-.6296306-.1073652-.1566924-.1826446-.1610497-.4509994-.0103694-.6386348l1.377-1.714-2.021 1.166c-.2036526.117242-.4614665.076848-.6195016-.0970628s-.1736406-.434403-.0374984-.6259372l.544-.764c-.2240996-.0052819-.4172965-.1590671-.4727039-.3762733s.0405175-.4447438.2347039-.5567267l1.627-.938c.2036526-.117242.4614665-.076848.6195016.0970628s.1736406.434403.0374984.6259372l-.441.619 2.35-1.355c.2083072-.1191748.4719066-.0735406.6280287.1087241.1561221.1822646.1607271.4497453.0109713.6372759l-1.376 1.707 4.251-2.448c.2187434-.1297091.5000021-.0745628.6535686.128145s.1305136.4883932-.0535686.663855l-1.156 1.108 3.3-1.906c.2085649-.1202746.4732297-.0748336.6297325.1081204s.1603978.4514631.0092675.6388796l-1.494 1.844 4.49-2.591c.2121584-.1214824.4810525-.071733.6357028.1176145.1546503.1893474.1497002.4627602-.0117028.6463855l-1.448 1.628 4.147-2.386c.2253151-.1304911.5130605-.0662242.6614447.1477312.1483843.2139555.1077334.5059746-.0934447.6712688l-.079.064 1.529-.883c.2132183-.1213577.4829881-.0700899.6368234.1210238.1538354.1911136.146285.465608-.0178234.6479762l-1.419 1.55 2.6-1.5c.1913695-.1129952.4343534-.0861158.5963984.0659751.162045.1520908.2042543.3928854.1036016.5910249l-.821 1.624.281-.162c.1549945-.0985297.351531-.1041539.5119064-.0146489.1603754.0895049.2587712.2597296.2562855.4433739s-.1054527.3511436-.2681919.436275l-1.731 1c-.1913695.1129952-.4343534.0861158-.5963984-.0659751-.162045-.1520908-.2042543-.3928854-.1036016-.5910249l.818-1.624-3.947 2.278c-.2132183.1213577-.4829881.0700899-.6368234-.1210238-.1538354-.1911136-.146285-.465608.0178234-.6479762l1.42-1.553-4.025 2.322c-.0754832.0456007-.1618163.0701194-.25.071z" fill="#ced2dc"/><path id="Path" d="m23.5 27.457c-.2185099.000358-.4119424-.1412174-.4776659-.3496092-.0657236-.2083918.0114872-.4353239.1906659-.5603908l8.05-5.632-11.088 6.4c-.2343611.1288923-.5286543.0505227-.6678755-.1778537-.1392213-.2283764-.0740613-.5258734.1478755-.6751463l2.711-1.736-3.037 1.754c-.234481.1270728-.5274228.0477401-.6657366-.1802909-.1383139-.2280309-.0733058-.5244809.1477366-.6737091l2.436-1.551-1.967 1.135c-.2348642.1312813-.531504.0531604-.6712412-.1767732-.1397372-.2299337-.0724576-.5292187.1522412-.6772268l3.278-2.1-2.759 1.597c-.2330829.1306613-.5277074.0549657-.6689423-.1718661-.1412349-.2268319-.0791592-.5246238.1409423-.6761339l8.567-5.741-8.04 4.641c-.234023.1252853-.5251579.0458598-.6631351-.1809119-.1379772-.2267718-.0746978-.5218373.1441351-.6720881l1.09-.7-.571.329c-.2304184.1322364-.5240189.0611893-.6684864-.1617642-.1444674-.2229535-.0893536-.5199576.1254864-.6762358l7.564-5.45-7.016 4.049c-.2299138.1328235-.5235501.0627731-.6687427-.1595365s-.0912979-.5193359.1227427-.6764635l4.862-3.567-4.32 2.493c-.2296891.1296297-.5205695.0585592-.6646041-.1623819s-.0916869-.5157667.1196041-.6736181l2.207-1.615-1.662.959c-.2207276.1320893-.5056598.0751513-.6586724-.1316224-.1530126-.2067738-.124171-.4959044.0666724-.6683776l2.795-2.632-2.2 1.272c-.1952258.1124422-.4415383.0804349-.6015428-.0781681-.1600046-.1586031-.1941776-.4046244-.0834572-.6008319l1.025-1.811-.044.024c-.2374252.1242009-.5305531.0391619-.6646466-.1928199-.1340935-.23198171-.0614797-.52843211.1646466-.6721801l1.632-.943c.1948225-.11169079.4402101-.07979041.6.078.1597775.15833535.194153.40387439.084.6l-1.028 1.816 4.333-2.5c.2208144-.13428088.5075757-.07815609.6614736.1294633.1538979.2076194.1242133.49830972-.0684736.6705367l-2.8 2.632 5.948-3.432c.2296891-.12962966.5205695-.0585592.6646041.16238191.1440346.2209411.0916869.51576672-.1196041.67361809l-2.205 1.614 4.244-2.45c.2299138-.13282353.5235501-.06277315.6687427.15953646.1451926.2223096.0912979.51933596-.1227427.67646354l-4.871 3.564 7.635-4.4c.2304184-.13223644.5240189-.06118928.6684864.16176419.1444674.22295348.0893536.51995759-.1254864.67623581l-7.558 5.448 10.895-6.286c.234023-.12528526.5251579-.04585984.6631351.18091194s.0746978.5218373-.1441351.67208806l-1.088.7 2.14-1.235c.2330829-.13066131.5277074-.05496574.6689423.17186612.1412349.22683187.0791592.52462377-.1409423.67613388l-8.569 5.734 8.917-5.148c.2354116-.1379583.5379577-.061708.6798637.1713453.1419059.2330532.070765.5368414-.1598637.6826547l-3.273 2.094 2.812-1.623c.234481-.1270728.5274228-.0477401.6657366.1802909.1383139.2280309.0733058.5244809-.1477366.6737091l-2.439 1.554 1.92-1.108c.234023-.1252853.5251579-.0458598.6631351.1809119.1379772.2267718.0746978.5218373-.1441351.6720881l-2.7 1.732 2.182-1.262c.2317768-.134096.5280526-.0617905.672.164.1443008.2259263.0847481.5254546-.135.679l-8.05 5.631 7.514-4.337c.23171-.1276221.5227312-.0526794.6639792.1709853s.08384.5186462-.1309792.6730147l-4.067 2.79 3.534-2.04c.2285233-.1282497.5172952-.0583047.6618051.1602995.14451.2186041.095725.5116937-.1118051.6717005l-4.653 3.5 4.103-2.363c.226047-.126152.5110038-.0589101.6568083.1549885.1458046.2138986.1042381.5037159-.0958083.6680115l-2.905 2.32 2.345-1.354c.2247363-.1292165.510959-.0652384.6592891.1473681.1483301.2126064.1095663.5033193-.0892891.6696319l-1.114.927.544-.313c.1963119-.1125616.443751-.0792415.603295.0812396s.1914144.4081111.077705.6037604l-.928 1.581.248-.142c.2374252-.1242009.5305531-.0391619.6646466.1928199.1340935.2319817.0614797.5284321-.1646466.6721801l-1.887 1.089c-.1965747.1141598-.4454174.0813508-.6056858-.0798576s-.1916216-.4102386-.0763142-.6061424l.928-1.58-3.966 2.289c-.2243164.1264895-.5080183.0619132-.6554889-.1492026s-.1104702-.4997121.0854889-.6667974l1.113-.927-3.047 1.759c-.226047.126152-.5110038.0589101-.6568083-.1549885-.1458046-.2138986-.1042381-.5037159.0958083-.6680115l2.906-2.321-5.479 3.164c-.2285233.1282497-.5172952.0583047-.6618051-.1602995-.14451-.2186041-.095725-.5116937.1118051-.6717005l4.654-3.5-7.541 4.353c-.2324067.1328499-.5282158.0590851-.6710333-.1673329s-.0819688-.5251514.1380333-.6776671l4.067-2.79-6.325 3.647c-.0761337.0444638-.1628354.0676072-.251.067z" fill="#0970de"/><path id="Path" d="m28.87 35.491c-.1984676-.0002107-.3780223-.1177864-.4575605-.2996189-.0795382-.1818326-.0440007-.3934952.0905605-.5393811l1.875-2.031-3.1 1.788c-.217772.1239843-.4936884.0676117-.6453756-.131857-.1516872-.1994686-.1322878-.4804159.0453756-.657143l2.258-2.22-1.656.955c-.2159307.1231341-.4895276.0689462-.642223-.1271971-.1526954-.1961432-.1381159-.4746734.034223-.6538029l.416-.427c-.1320555.0134434-.2642124-.0245203-.369-.106-.1606396-.128177-.2264893-.3415936-.166-.538l.232-.752c-.1561606-.0889185-.252594-.2547985-.252594-.4345s.0964334-.3455815.252594-.4345l.5-.291c.178029-.1028474.4008684-.08623.5616743.0418846.160806.1281147.2267942.3416072.1663257.5381154l-.126.408 1.731-1c.2160105-.1246636.4908577-.0710795.6442199.1255968s.1383361.4762947-.0352199.6554032l-.314.322 1.93-1.114c.217772-.1239843.4936884-.0676117.6453756.131857.1516872.1994686.1322878.4804159-.0453756.657143l-2.255 2.216 2.541-1.467c.2139383-.1227586.4854345-.0711644.6394281.1215147.1539936.1926792.1444708.4688702-.0224281.6504853l-1.875 2.03 1.268-.731c.2083683-.1206883.4731622-.0757154.63.107.1570436.1832116.1608296.4524449.009.64l-.36.446c.2221477.0098591.4110903.1652426.4636588.381306.0525685.2160633-.0438708.4408806-.2366588.551694l-1.915 1.1c-.2085649.1202746-.4732297.0748336-.6297325-.1081204s-.1603978-.4514631-.0092675-.6388796l.223-.276-1.794 1.044c-.0758031.044382-.1621615.067526-.25.067z" fill="#ced2dc"/><path id="Path" d="m32.8 30.471c-.206129.0002101-.3912614-.1260984-.4662496-.3181036-.0749881-.1920051-.0244615-.4103509.1272496-.5498964l.985-.908-2.957 1.705c-.2190652.1318893-.5023394.0772423-.6566242-.1266708s-.1298566-.4913741.0566242-.6663292l1.164-1.122-3.313 1.915c-.2192049.1250239-.4972153.0671074-.6482603-.1350489-.1510451-.2021563-.1277753-.4851803.0542603-.6599511l1.114-1.055-3.212 1.85c-.2148145.122858-.4871855.0700952-.640583-.1240916-.1533976-.1941868-.1416695-.4713733.027583-.6519084l1.382-1.46-3.875 2.236c-.2060032.1172655-.4660355.0737671-.6226587-.1041589-.1566233-.177926-.1667886-.4413754-.0243413-.6308411l1.5-1.966-3.151 1.819c-.2170059.1266978-.4943333.0726539-.6478868-.1262561-.1535535-.1989101-.1356239-.4808849.0418868-.6587439l.412-.416-.169.1c-.1742346.1003534-.3916318.0865755-.5518031-.0349714-.1601713-.1215468-.2319525-.3272136-.1821969-.5220286l.278-1.086c-.1705316-.077372-.2835336-.2435484-.292801-.4305819-.0092674-.1870336.0867535-.363567.248801-.4574181l.5-.289c.17411-.10075.3916429-.0873499.5520709.0340079s.2325077.3270387.1829291.5219921l-.206.8 2.362-1.364c.2166127-.1233895.4910237-.0683675.6433231.1289924.1522993.1973599.1359526.4767549-.0383231.6550076l-.414.419 2.09-1.206c.2060613-.1184061.466996-.0754024.6241634.1028662.1571674.1782685.1671324.4425353.0238366.6321338l-1.5 1.966 4.688-2.707c.2148145-.122858.4871855-.0700952.640583.1240916.1533976.1941868.1416695.4713733-.027583.6519084l-1.383 1.461 3.881-2.237c.1429062-.1071797.3321367-.1299782.4964102-.0598076.1642734.0701706.2786328.2226497.3.4.0213672.1773502-.053504.3526279-.1964102.4598076l-1.113 1.059 3.213-1.863c.2190652-.1318893.5023394-.0772423.6566242.1266708s.1298566.4913741-.0566242.6663292l-1.165 1.122 3.324-1.919c.220439-.1262233.5004889-.0670999.6510942.1374575.1506054.2045574.1238973.4895314-.0620942.6625425l-.986.907 2.965-1.711c.2198926-.1179958.4931214-.0557887.6402596.1457705s.1231296.4807496-.0562596.6542295l-.851.764 1.563-.9c.2102322-.1207224.4767777-.0732389.6323878.1126561.1556102.1858951.1554467.4566369-.0003878.6423439l-.943 1.117.188-.104c.1549945-.0985297.351531-.1041539.5119064-.0146489.1603754.0895049.2587712.2597296.2562855.4433739s-.1054527.3511436-.2681919.436275l-2.667 1.535c-.2102322.1207224-.4767777.0732389-.6323878-.1126561-.1556102-.1858951-.1554467-.4566369.0003878-.6423439l.941-1.115-3.242 1.87c-.2198926.1179958-.4931214.0557887-.6402596-.1457705s-.1231296-.4807496.0562596-.6542295l.852-.764-2.717 1.564c-.0757147.0459107-.1624551.0704468-.251.071z" fill="#f2f4f7"/><path id="Path" d="m28.617 38.471c-.2101159-.0001765-.3977045-.1316989-.4694922-.329171s-.0124567-.418758.1484922-.553829l.329-.277-1.893 1.089c-.220007.1195261-.4945025.0578939-.6422936-.1442135-.147791-.2021073-.1233056-.4823693.0572936-.6557865l.853-.771-1.934 1.116c-.2138636.1213482-.4842152.0691846-.6375799-.1230191-.1533647-.1922038-.1442142-.4673898.0215799-.6489809l.975-1.052-1.066.615c-.2087017.1189347-.4724867.0726495-.6282299-.1102327-.1557433-.1828821-.1594257-.4506718-.0087701-.6377673l.434-.534c-.1843949-.0647358-.3141729-.2309692-.3322345-.4255611s.0789042-.3818711.2482345-.4794389l1.627-.938c.2087634-.1201586.4735249-.0743925.6298391.1088725.1563143.183265.1597449.451931.0081609.6391275l-.123.152 1.586-.911c.2138636-.1213482.4842152-.0691846.6375799.1230191.1533647.1922038.1442142.4673898-.0215799.6489809l-.976 1.053 3.16-1.825c.220007-.1195261.4945025-.0578939.6422936.1442135.147791.2021073.1233056.4823693-.0572936.6557865l-.855.772 2.73-1.572c.2240372-.1259992.5071082-.0616068.6545964.1489061s.1113381.4985559-.0835964.6660939l-.33.277 1.435-.828c.2079146-.1194294.4713404-.0744499.6278456.1072036.1565052.1816534.1620244.4488348.0131544.6367964l-1.284 1.61 1.56-.9c.23893-.1358451.5427102-.0533708.6801373.1846528.137427.2380237.0569695.5423443-.1801373.6813472l-3.853 2.216c-.2079146.1194294-.4713404.0744499-.6278456-.1072036-.1565052-.1816534-.1620244-.4488348-.0131544-.6367964l1.284-1.609-4.076 2.353c-.0754832.0456007-.1618163.0701194-.25.071z" fill="#f2f4f7"/><g fill="#262626"><path id="Shape" d="m46.377 30.705c2.5270608-3.8267241 3.6695992-8.4025235 3.238-12.968-.9948164-6.9032882-5.5374322-12.77901365-11.9678156-15.47997949-6.4303835-2.70096584-13.8062447-1.83138029-19.4321844 2.29097949-5.6058468 4.13628576-8.57918816 10.9490495-7.8 17.872.5093374 4.0600122 2.2770148 7.8586828 5.055 10.863 3.425 3.821 5.614 7.182 5.771 12.334-.045.008-.092.01-.137.018-1.628.269-3.668 1.642-2.559 3.569.5817973.8382282 1.5757825 1.2907025 2.59 1.179-.5711672.4223957-.8946966 1.1013202-.863 1.811.057 2.021 1.961 2.17 3.48 2.218.181.006.362.005.543.01.583 6.623 10.412 6.026 11.361 0 .353 0 .706-.007 1.059-.007.0677709-.0019628.1349999-.0127194.2-.032.0603436-.0002529.1205579-.0056053.18-.016 1.585-.32 3.257-1.6 2.417-3.426-.1064191-.2280905-.2527156-.4353438-.432-.612 1.753-.475 3.776-2.137 1.957-3.968-.6436718-.5452384-1.4717075-.8232781-2.314-.777-.0750361-3.0409484.7396458-6.0376151 2.344-8.622 1.487-2.317 3.752-3.989 5.31-6.257zm-24.648 8.819c-1.713-4.508-5.945-7.032-8.048-11.312-4.513-9.182-.715-20.812 8.662-25.151 11.673-5.4 24.1 3.065 25.823 15.064.488 7.425-2.615 11.479-7.046 16.947-2.4509617 2.9628664-3.8007164 6.6828188-3.82 10.528-.161.006-.315.01-.467.012-.1 0-.2 0-.3 0-4.46-.009-9.475-.634-13.991-.163-.379-.517-.426-4.908-.813-5.925zm6.891 18.793c-1.543871-.7170772-2.6095426-2.1787857-2.82-3.868 2.816.04 5.638 0 8.455-.022-.276 2.788-2.689 5.216-5.635 3.89zm8.465-4.729h-6.8c-1.068 0-10.484.666-8.037-2.427.3650095-.4050542.8524354-.6796702 1.388-.782h5.6c.306.02.588.033.833.033h4.72c.189 0 .412-.018.637-.033h.646c.0860059.0049374.1715536.0159651.256.033 1.142.288 3.458 2.508.757 3.176zm1.988-3.967h-1.673c-.52-.052-1.065-.033-1.572-.033-3.959 0-8.411-.593-12.351-.036-2.5-.243-4.5-.882-3.229-2.46.327666-.3587915.7542839-.6124656 1.226-.729.0796432.0212375.1615848.0326556.244.034h16c.1175355-.0018226.2345372-.0162383.349-.043.057.01.121.01.173.025 1.294.367 3.452 2.421.833 3.242z"/><path id="Shape" d="m33.552 38.322h.065.077c.0295562-.0026601.0589371-.0070004.088-.013.033 0 .054 0 .092-.008 1.339-.216 2.876-.856 2.85-2.494-.023-1.484-1.293-2.046-2.553-2.127-.142-.009-.293-.014-.437-.023v-3.157h5.066.052.073c.1282537-.0014691.2544723-.0322541.369-.09 2.537-.768 2.436-2.583 2.436-4.967v-12.013c0-2.337.227-4.39-2.567-4.929-2.538-.491-5.648 0-8.224 0-4.064 0-12.322-2.036-12.673 3.675-.235 3.837 0 7.762 0 11.606 0 1.88-.678 5.265 1.3 6.412 1.573.912 4.441.621 6.7.424v3.069h-.05c-3.157.314-4.106 4.405-.437 4.631 2.571.161 5.195.01 7.773.004zm-1.286-7.789v2.934h-4.532v-2.934zm-11.909-20.315c1.564-1.743 6.843-.718 9.135-.718h6.458c.751 0 2.246-.319 2.922 0 2.676 1.26 1.4 8.312 1.4 10.5 0 .978.337 3.348.283 5.489h-21.1c-.135-2.431.277-5.249.277-6.5 0-2.338-.991-6.97.625-8.771zm.771 19.282c-.935-.44-1.381-1.593-1.573-2.992h20.936c-.147 1.469-.567 2.671-1.538 2.992h-5.617c-.0890728-.0215516-.1803578-.0326267-.272-.033h-6c-.0634105.0036394-.1261739.0147153-.187.033h-2.827c-.75 0-2.25.319-2.922 0zm5.688 8.179c-1.467-.169-2.921-1.592-1.542-2.894.3012679-.2567089.6666079-.4267631 1.057-.492.1499507.1745919.3761419.2643207.605.24h6 .019c.0535643-.0047685.1067068-.0134584.159-.026.0441404-.0061078.0876468-.0161477.13-.03.0986406-.031656.1912627-.0796573.274-.142.3574094-.0473745.7174279.0661614.983.31.921.649 1.23 2.728-.316 3.037h-4.8c-.8557217.0468146-1.7133899.0458131-2.569-.003z"/><path id="Shape" d="m25.3 22.187c1.379.492 3.018-.073 4.482-.914 1.671.943 3.729 1.552 5.371.387.01-.007.009-.011.017-.017.0303392-.0165042.0585482-.0366535.084-.06 1.067-1.237.3-2.9-.892-4.352 1.276-1.71 2.337-3.89.191-4.452-1.5143747-.2429632-3.0646587.0945209-4.341.945-1.654-.917-3.958-1.689-5.412-.346-1.221 1.13-.392 2.854.835 4.349-1.252 1.653-2.283 3.766-.335 4.46zm.436-1.68c-.0343841-.7219228.1567918-1.4366479.547-2.045.6992963.7411706 1.4614783 1.4203758 2.278 2.03.177.127.365.255.559.381-1.507.867-3.2 1.398-3.386-.366zm5.579-1.179c-.223.192-.62.506-1.1.842-.7106865-.4737985-1.3764691-1.0117134-1.989-1.607-.3960204-.4025556-.7673633-.8286649-1.112-1.276.4844154-.575821 1.0101404-1.1155832 1.573-1.615.3720693-.3244422.7616545-.6282318 1.167-.91.6750524.5168329 1.3163612 1.076308 1.92 1.675.3986799.3936236.7746217.8096303 1.126 1.246-.4958834.579344-1.0258211 1.1286493-1.587 1.645zm2.662 2.309c-.749.408-2.545-.687-3.076-1-.02-.012-.037-.027-.057-.039.6178311-.4294458 1.2126523-.8910832 1.782-1.383.189-.178.474-.471.794-.83.744 1.102 1.255 2.37.555 3.252zm.284-7.308c.0972313.7688917-.0902181 1.5467892-.527 2.187-.7715382-.8087733-1.6202348-1.5402466-2.534-2.184-.1-.071-.215-.144-.33-.218 1.44-.834 3.068-1.35 3.389.215zm-8.01-.791c.8-.39 1.934.087 2.992.788-.6536858.4439543-1.2767597.9313885-1.865 1.459-.191.172-.47.449-.779.787-.799-1.194-1.368-2.54-.35-3.034z"/><path id="Path" d="m53.306 19.681c-.428 0-1.572.638-.612.638h6c.428 0 1.572-.638.612-.638z"/><path id="Path" d="m52.319 14.429 5.793-1.562c.877-.236.659-1.072-.224-.834l-5.788 1.567c-.882.232-.665 1.067.219.829z"/><path id="Path" d="m54.52 5.423-5.186 3.016c-.288.167-.13.208.072.271.3616606.01575653.7194418-.07988448 1.025-.274l5.187-3.017c.287-.167.129-.208-.073-.271-.3616948-.01481495-.7192947.08112649-1.025.275z"/><path id="Path" d="m58.437 27.13-5.794-1.562c-.506-.137-1.707.615-.873.84l5.793 1.562c.507.136 1.708-.615.874-.84z"/><path id="Path" d="m55.626 34.156-5.187-3.017c-.559-.325-1.822.435-1.114.847l5.187 3.014c.559.327 1.822-.433 1.114-.844z"/><path id="Path" d="m7.305 19.674h-6c-.437 0-1.571.652-.61.652h6c.437 0 1.571-.652.61-.652z"/><path id="Path" d="m1.586 12.954 5.793 1.562c.651.176 1.709-.771.828-1.008l-5.793-1.562c-.651-.176-1.709.771-.828 1.008z"/><path id="Path" d="m10.8 8.173-5.191-3.016c-.393-.229-1.643.361-1.356.528l5.187 3.015c.393.23 1.643-.36 1.36-.527z"/><path id="Path" d="m7.656 25.478-5.793 1.562c-.895.241-.625 1.262.274 1.02l5.793-1.56c.895-.244.625-1.264-.274-1.022z"/><path id="Path" d="m9.669 31.35-5.187 3.016c-.843.49.428.7.9.426l5.187-3.017c.84-.49-.43-.698-.9-.425z"/></g></g></svg>