<svg height="505pt" viewBox="0 -5 505.02432 505" width="505pt" xmlns="http://www.w3.org/2000/svg"><path d="m296.191406 469.296875c-1.894531-.007813-3.546875-1.28125-4.039062-3.109375-.488282-1.828125.304687-3.761719 1.941406-4.714844l200.199219-115.59375c1.976562-1.128906 4.492187-.476562 5.671875 1.46875 1.179687 1.949219.59375 4.480469-1.324219 5.707032l-18.84375 11.996093 14.496094-8.394531c1.953125-1.097656 4.421875-.46875 5.613281 1.425781 1.1875 1.898438.679688 4.394531-1.15625 5.675781l-60.609375 41.34375 56.152344-32.414062c1.960937-1.050781 4.398437-.390625 5.5625 1.503906 1.164062 1.894532.644531 4.371094-1.179688 5.640625l-5.457031 3.558594 1.074219-.613281c1.929687-1.089844 4.371093-.492188 5.578125 1.363281 1.210937 1.855469.769531 4.328125-1.003906 5.652344l-44.820313 32.820312 40.246094-23.242187c1.941406-1.101563 4.410156-.488282 5.609375 1.394531 1.203125 1.882813.71875 4.375-1.101563 5.671875l-10.367187 7.269531 5.875-3.359375c1.941406-1.136718 4.4375-.542968 5.652344 1.347656 1.21875 1.894532.730468 4.410157-1.109376 5.703126l-3.074218 2.183593c1.867187-.28125 3.691406.714844 4.460937 2.4375.769531 1.722657.292969 3.746094-1.160156 4.949219l-11.039063 9.105469 6.269532-3.617188c1.800781-1.019531 4.074218-.574219 5.359375 1.042969 1.28125 1.621094 1.195312 3.933594-.203125 5.453125l-7.679688 8.203125 2.222656-1.285156c2.003907-1.140625 4.554688-.449219 5.710938 1.550781 1.152344 1.996094.476562 4.550781-1.515625 5.71875l-26.796875 15.417969c-1.800781 1.019531-4.074219.574218-5.359375-1.042969-1.28125-1.621094-1.195313-3.933594.203125-5.453125l7.679688-8.203125-25.457032 14.699219c-1.886718 1.089844-4.296875.550781-5.542968-1.238282-1.242188-1.792968-.910157-4.238281.769531-5.628906l11.035156-9.082031-27.699219 15.949219c-1.9375 1.136718-4.433594.542968-5.652344-1.347656-1.214843-1.890626-.726562-4.40625 1.113282-5.703126l.65625-.453124-12.96875 7.503906c-1.9375 1.0625-4.367188.441406-5.558594-1.421875-1.1875-1.863281-.730469-4.328125 1.050781-5.636719l10.347657-7.261719-24.835938 14.320313c-1.925781 1.109375-4.386719.527344-5.605469-1.335938-1.21875-1.867187-.761719-4.367187 1.039063-5.683594l44.832031-32.824218-69.011719 39.84375c-1.960937 1.078125-4.425781.429687-5.601562-1.480469-1.171875-1.90625-.640625-4.402344 1.210937-5.664063l5.457031-3.558593-18.542968 10.703125c-1.945313 1.082031-4.402344.453125-5.589844-1.433594s-.695312-4.371094 1.125-5.660156l60.625-41.320313-83.867188 48.414063c-1.96875 1.101562-4.460937.445312-5.632812-1.484375-1.171875-1.929688-.609375-4.441407 1.277344-5.683594l18.726562-11.929687-33.339844 19.25c-.632812.378906-1.359374.582031-2.097656.585937zm0 0" fill="#eb5463"/><path d="m258.832031 493.328125c-1.871093 0-3.519531-1.242187-4.035156-3.039063-.515625-1.800781.222656-3.726562 1.8125-4.71875l30.367187-18.960937-43.363281 25.03125c-1.964843 1.066406-4.425781.398437-5.585937-1.515625s-.617188-4.402344 1.238281-5.652344l90.710937-57.722656-98.203124 56.699219c-1.980469 1.070312-4.453126.394531-5.605469-1.539063-1.152344-1.933594-.578125-4.433594 1.304687-5.664062l31.9375-19.757813-33.949218 19.625c-1.972657 1.121094-4.476563.472657-5.660157-1.460937-1.179687-1.933594-.613281-4.457032 1.285157-5.699219l132.15625-85.414063-147.304688 85.019532c-1.964844 1.050781-4.410156.382812-5.566406-1.519532-1.160156-1.902343-.628906-4.378906 1.210937-5.640624l135.503907-86.585938-162.414063 93.746094c-1.976563 1.089844-4.464844.417968-5.625-1.519532-1.160156-1.933593-.582031-4.441406 1.308594-5.675781l99.042969-61.421875-118.898438 68.617188c-1.992188 1.132812-4.523438.464844-5.6875-1.507813-1.167969-1.96875-.542969-4.507812 1.40625-5.710937l15.617188-9.46875-28.914063 16.6875c-1.980469 1.058594-4.441406.371094-5.585937-1.558594-1.144532-1.929688-.570313-4.421875 1.304687-5.652344l61.769531-37.628906-77.683594 44.839844c-1.972656 1.054687-4.425781.375-5.578124-1.546875-1.148438-1.921875-.589844-4.40625 1.273437-5.648438l149.980469-92.738281-173.136719 99.933594c-1.972656 1.027344-4.402344.335937-5.542969-1.570313-1.140625-1.910156-.59375-4.375 1.246094-5.625l176.34375-109.03125-201.332031 116.226563c-1.984375 1.078125-4.46875.394531-5.617188-1.550782-1.152343-1.941406-.554687-4.449218 1.34375-5.667968l91.421875-55.304688-108.300781 62.523438c-1.976563 1.039062-4.417969.351562-5.5625-1.566406-1.140625-1.917969-.582031-4.394532 1.273437-5.636719l208.785157-128.460938-223.421875 128.992188c-1.988282 1.0625-4.457032.367187-5.597656-1.570313-1.144532-1.941406-.550782-4.4375 1.339843-5.65625l10.660157-6.378906-9.644532 5.5625c-1.976562 1.074219-4.449218.394531-5.601562-1.539062-1.15625-1.933594-.578125-4.429688 1.304687-5.660157l223.652344-137.386719-219.851563 126.917969c-1.976562 1.058594-4.4375.371094-5.585937-1.558593-1.144531-1.929688-.570313-4.417969 1.308594-5.652344l207.753906-127.183594-203.476563 117.507812c-1.976562 1.058594-4.4375.371094-5.585937-1.558593-1.144531-1.929688-.570313-4.421875 1.308594-5.652344l196.875-120.363281-192.597657 111.191406c-1.972656 1.039062-4.417968.351562-5.5625-1.566406-1.140624-1.917969-.582031-4.394532 1.273438-5.636719l203.851562-125.230469-199.5625 115.207032c-1.988281 1.109374-4.496093.429687-5.65625-1.53125-1.15625-1.960938-.539062-4.488282 1.394532-5.695313l29.484375-17.699219-25.230469 14.5625c-1.988281 1.105469-4.5.425782-5.65625-1.535156s-.539062-4.488281 1.394531-5.691406l23.960938-14.40625-19.699219 11.367187c-1.980469 1.042969-4.429688.347657-5.570312-1.578125-1.136719-1.929687-.5625-4.410156 1.308593-5.640625l32.347657-19.507812-28.085938 16.207031c-1.980469 1.046875-4.429688.351562-5.570312-1.574219-1.136719-1.929687-.5625-4.410156 1.308593-5.640625l16.835938-10.15625-12.589844 7.25c-1.972656 1.054688-4.429687.375-5.578125-1.546875-1.148438-1.917969-.589844-4.402343 1.273438-5.644531l146.136718-90.777344-141.816406 81.863282c-1.972656 1.054687-4.425781.371093-5.578125-1.546876-1.148437-1.921874-.589844-4.40625 1.273437-5.648437l119.832032-74.441406-115.527344 66.695312c-1.976562 1.027344-4.410156.332031-5.546875-1.582031-1.136719-1.917969-.574219-4.386719 1.277344-5.628906l9.484375-5.78125-5.222656 3.011718c-1.976563 1.160157-4.515626.519532-5.707032-1.4375-1.191406-1.957031-.59375-4.507812 1.34375-5.730468l143.039063-91.984375-138.667969 80.066406c-1.96875 1.066406-4.425781.402344-5.585938-1.511719-1.160156-1.914062-.617187-4.402344 1.238282-5.65625l103.082031-65.761718-98.734375 57c-1.28125.773437-2.882812.804687-4.195312.082031-1.3125-.722657-2.140626-2.09375-2.167969-3.59375-.03125-1.5.742187-2.898438 2.023437-3.675781l66.308594-41.964844-61.96875 35.753906c-1.960938 1.027344-4.382812.351562-5.53125-1.539062-1.148438-1.890626-.628906-4.351563 1.183594-5.621094l50.5625-32.128906-46.214844 26.675781c-1.941406.925781-4.273438.230469-5.390625-1.609375-1.121094-1.839844-.664063-4.226563 1.050781-5.527344l26.257813-16.675781-21.917969 12.648437c-1.972656 1.085938-4.449219.421875-5.613281-1.507812-1.164063-1.925782-.601563-4.425782 1.273437-5.667969l7.640625-4.84375-3.300781 1.90625c-1.945312 1.117187-4.425781.503906-5.628906-1.390625-1.203125-1.890625-.707032-4.398438 1.132812-5.6875l68.984375-48.050781-64.488281 37.214843c-1.9375 1.089844-4.390625.476563-5.589844-1.394531-1.199218-1.875-.726562-4.359375 1.074219-5.664062l47.078125-33.1875-42.5625 24.570312c-1.957031 1.09375-4.429688.460938-5.613281-1.445312-1.1875-1.902344-.664063-4.402344 1.183593-5.675781l3.550782-2.382813c-1.746094.527344-3.632813-.128906-4.667969-1.628906-1.246094-1.796875-.898437-4.253907.796875-5.640625l34.480469-28.140625-29.730469 17.15625c-1.859375 1.015625-4.183594.484375-5.417969-1.234375-1.234375-1.722656-.996093-4.09375.558594-5.53125l18.039063-16.132813-13.144532 7.554688c-1.636718.921875-3.6875.648437-5.019531-.675781-1.332031-1.324219-1.625-3.371094-.714844-5.015626l8.210938-14.132812c-1.992188 1.042969-4.453125.328125-5.578125-1.621094-1.125-1.945312-.515625-4.433594 1.378906-5.640625l13.65625-7.890625c1.648438-.953125 3.730469-.679687 5.078125.664063 1.34375 1.347656 1.613281 3.433593.65625 5.078125l-8.292969 14.132812 34.65625-19.964844c1.84375-.980468 4.128906-.453124 5.359375 1.234376 1.226563 1.6875 1.03125 4.023437-.464843 5.480468l-18.023438 16.148438 39.644531-22.863282c1.894531-1.101562 4.316407-.5625 5.5625 1.238282 1.246094 1.804687.894531 4.257812-.804687 5.644531l-34.488282 28.125 60.683594-35.027344c1.953125-1.054687 4.386719-.410156 5.558594 1.472657 1.171875 1.882812.679688 4.351562-1.125 5.636718l-2.183594 1.46875 14.875-8.558594c1.933594-1.054687 4.355469-.4375 5.542969 1.417969s.738281 4.316407-1.027344 5.628907l-47.0625 33.191406 69.664063-40.238282c1.941406-1.078124 4.382812-.457031 5.574218 1.417969 1.191407 1.871094.71875 4.34375-1.074218 5.648438l-68.984375 48.070312 95.550781-55.136719c1.972656-1.085937 4.449219-.421874 5.613281 1.503907 1.164063 1.925781.601563 4.429687-1.273437 5.671875l-7.613282 4.816406 20.789063-11.992188c1.964844-1.039062 4.398437-.367187 5.550781 1.535157 1.152344 1.902343.621094 4.371093-1.210937 5.632812l-26.246094 16.632813 41.238281-23.800782c1.96875-1.105468 4.460938-.449218 5.632813 1.480469 1.171875 1.929688.609375 4.445313-1.277344 5.6875l-50.589844 32.113281 68.089844-39.28125c1.972656-1.085937 4.449219-.421874 5.613281 1.503907 1.164063 1.925781.601563 4.429687-1.273437 5.671875l-66.308594 41.964844 85.117187-49.140626c1.972657-1.105468 4.460938-.449218 5.632813 1.480469 1.175781 1.929688.609375 4.445313-1.277344 5.6875l-102.988281 65.710938 126.273438-72.878907c1.964843-1.082031 4.4375-.425781 5.605468 1.492188 1.167969 1.914062.621094 4.414062-1.242187 5.664062l-143.117188 92.011719 171.816407-99.167969c1.976562-1.058593 4.4375-.371093 5.585937 1.558594 1.144531 1.929688.570313 4.417969-1.308594 5.648438l-9.390625 5.726562 22.402344-12.933594c1.972656-1.054687 4.429688-.375 5.578125 1.542969 1.148437 1.921875.589844 4.40625-1.273437 5.648438l-119.867188 74.441406 141.449219-81.632813c1.972656-1.054687 4.425781-.375 5.578125 1.542969 1.148437 1.921875.589844 4.40625-1.273438 5.648438l-146.046875 90.765625 169.640625-97.957032c1.980469-1.046874 4.433594-.351562 5.570313 1.578126 1.140625 1.925781.5625 4.40625-1.304688 5.636718l-16.789062 10.148438 30.046875-17.363282c1.984375-1.046874 4.433594-.351562 5.574218 1.578126 1.136719 1.925781.5625 4.40625-1.308593 5.636718l-32.484375 19.582032 46.441406-26.796876c1.988281-1.066406 4.457031-.371093 5.597656 1.566407 1.144532 1.941406.550782 4.4375-1.339844 5.660156l-23.671874 14.265625 37.175781-21.492188c1.988281-1.109374 4.5-.429687 5.65625 1.53125 1.15625 1.960938.539062 4.488282-1.390625 5.695313l-29.378906 17.625 43.082031-24.851563c1.980469-1.074218 4.453125-.394531 5.605469 1.535157 1.152343 1.933593.578124 4.433593-1.304688 5.664062l-203.960938 125.304688 216.769532-125.179688c1.980468-1.09375 4.476562-.417969 5.636718 1.527344 1.15625 1.949219.5625 4.464844-1.347656 5.683594l-196.871094 120.320312 195.652344-112.949219c1.980469-1.058593 4.441406-.371093 5.585938 1.558594 1.148437 1.929688.570312 4.417969-1.304688 5.648438l-207.753906 127.1875 203.472656-117.507813c1.976563-1.042969 4.417969-.351562 5.5625 1.566407 1.140625 1.917968.582032 4.394531-1.273437 5.636718l-223.527344 137.375 219.238281-126.597656c1.996094-1.175781 4.570313-.511719 5.746094 1.488281 1.175781 1.996094.507812 4.570313-1.492188 5.746094l-10.640624 6.351563 6.386718-3.675782c1.976563-1.039062 4.417969-.351562 5.5625 1.566406 1.140625 1.917969.582032 4.394532-1.273437 5.636719l-208.820313 128.511719 204.53125-118.078125c1.984375-1.082031 4.464844-.394531 5.617188 1.546875 1.148437 1.945312.554687 4.449219-1.34375 5.671875l-91.488282 55.394531 87.289063-50.359375c1.972656-1.027343 4.402344-.339843 5.542969 1.570313 1.140625 1.90625.59375 4.371094-1.246094 5.621094l-176.378906 108.972656 172.015625-99.3125c1.980469-1.070313 4.453125-.390625 5.605469 1.539062 1.152343 1.933594.578124 4.433594-1.308594 5.664063l-149.964844 92.746093 145.667969-84.117187c1.976562-1.027344 4.414062-.332031 5.546875 1.582031 1.136718 1.917969.578125 4.386719-1.273438 5.628906l-61.84375 37.683594 57.570313-33.226562c1.984375-1.082032 4.46875-.394532 5.617187 1.546875 1.148438 1.945312.554688 4.449219-1.34375 5.667969l-15.359375 9.359374 11.121094-6.410156c1.972656-1.054687 4.425781-.375 5.578125 1.546875 1.148438 1.917969.589844 4.402344-1.273438 5.644531l-99.042968 61.449219 94.730468-54.683593c1.960938-1.050782 4.40625-.386719 5.5625 1.519531 1.160157 1.902343.628907 4.378906-1.207031 5.640625l-135.5625 86.621094 131.179688-75.734376c1.972656-1.121093 4.476562-.476562 5.660156 1.457032 1.179687 1.9375.609375 4.460937-1.285156 5.703125l-132.132813 85.367187 127.757813-73.761718c1.980469-1.070313 4.453125-.394532 5.605469 1.539062 1.152343 1.933594.578124 4.433594-1.308594 5.664062l-31.894532 19.765626 27.640626-15.945313c1.96875-1.066406 4.425781-.402344 5.585937 1.511719 1.164063 1.914062.617187 4.402344-1.238281 5.65625l-90.757813 57.71875 86.367188-49.855469c1.972656-1.039063 4.410156-.359375 5.554687 1.550781 1.148438 1.910156.601563 4.382813-1.238281 5.632813l-216.242187 134.960937c-.351563.847656-.972657 1.558594-1.769532 2.019532l-19.667968 11.359374c-.636719.371094-1.359376.570313-2.097657.570313zm0 0" fill="#eb5463"/><path d="m250.304688 449.253906c-.882813-.019531-1.734376-.316406-2.441407-.839844-1.332031-.953124-1.984375-2.589843-1.679687-4.195312l.914062-4.675781-1.679687.957031c-1.566407.90625-3.539063.703125-4.894531-.5-1.351563-1.207031-1.777344-3.144531-1.054688-4.804688l4.558594-10.476562-17.796875 10.265625c-1.847657 1.042969-4.1875.542969-5.445313-1.167969-1.257812-1.710937-1.039062-4.09375.511719-5.546875l.796875-.730469-12.917969 7.445313c-1.871093 1.058594-4.242187.53125-5.488281-1.222656-1.246094-1.753907-.960938-4.164063.65625-5.585938l12.050781-10.382812-29.796875 17.191406c-1.933594 1.109375-4.398437.511719-5.609375-1.359375-1.214843-1.871094-.75-4.363281 1.050781-5.675781l1.78125-1.28125-14.410156 8.316406c-1.90625 1.074219-4.320312.507813-5.542968-1.304687-1.226563-1.8125-.851563-4.261719.859374-5.628907l38.609376-30.214843-64.335938 37.148437c-1.957031 1.097656-4.429688.460937-5.617188-1.441406-1.183593-1.90625-.664062-4.40625 1.183594-5.675781l7.890625-5.253907-21.453125 12.371094c-1.957031 1.082031-4.417968.4375-5.597656-1.464844-1.175781-1.898437-.65625-4.390625 1.183594-5.660156l21.175781-14.042969-36.679687 21.167969c-1.9375 1.0625-4.367188.441406-5.558594-1.421875-1.1875-1.859375-.730469-4.328125 1.050781-5.636719l75.15625-52.617187-103.375 59.675781c-1.957031 1.097656-4.429687.460937-5.613281-1.441406-1.1875-1.90625-.664063-4.40625 1.183594-5.675781l78.644531-52.453126-92.527344 53.441407c-1.960937 1.117187-4.453125.484375-5.640625-1.433594-1.191406-1.914063-.652344-4.429687 1.214844-5.691406l97.648437-65.207031-97.53125 56.328124c-1.976562 1.105469-4.472656.445313-5.644531-1.496093-1.167969-1.941407-.585938-4.457031 1.316406-5.691407l28.328125-17.875-24 13.855469c-1.980469 1.144531-4.511719.488281-5.691406-1.472656s-.570313-4.503906 1.371094-5.71875l13.570312-8.503906-9.230469 5.332031c-1.96875 1.082031-4.4375.421875-5.605468-1.496094-1.171875-1.914062-.625-4.414062 1.238281-5.664062l61.558594-39.578125-57.210938 33.023437c-1.972656 1.15625-4.515625.515625-5.707031-1.441406-1.1875-1.953125-.59375-4.503906 1.34375-5.726562l60.84375-39.097657-56.480469 32.609375c-1.960937 1.09375-4.4375.453125-5.617187-1.460937-1.179688-1.910157-.648438-4.414063 1.210937-5.675781l93.90625-62.109376-89.507812 51.683594c-1.976563 1.089844-4.460938.421875-5.621094-1.515625-1.164063-1.9375-.585937-4.445312 1.308594-5.675781l4.121093-2.578125c-2.011718 1.160156-4.578124.46875-5.738281-1.539063-1.160156-2.007812-.46875-4.578124 1.539063-5.738281l44.175781-28.101562-39.785156 22.992187c-1.96875 1.050782-4.417969.378906-5.570313-1.535156-1.152344-1.910156-.609375-4.390625 1.238282-5.640625l25.644531-16.167969-21.3125 12.304688c-1.976563 1.160156-4.515625.519531-5.707031-1.4375-1.191407-1.957032-.59375-4.503906 1.34375-5.730469l58.753906-37.703125-54.390625 31.402344c-1.96875 1.039062-4.410157.355468-5.554688-1.554688-1.148437-1.910156-.601562-4.382812 1.242188-5.632812l4.121093-2.585938c-1.96875.910156-4.300781.171875-5.390624-1.699218-1.085938-1.875-.570313-4.269532 1.191406-5.527344l101.074218-67.390625-96.683593 55.792969c-1.964844 1.117187-4.460938.476562-5.648438-1.449219-1.183593-1.925781-.632812-4.441407 1.25-5.695313l85.679688-56.167968-81.28125 46.917968c-1.980469 1.144532-4.515625.488282-5.691407-1.472656-1.179687-1.960938-.570312-4.503906 1.371094-5.71875l12.320313-7.714844-8 4.609375c-1.964844 1.039063-4.398438.363281-5.550781-1.539062-1.148438-1.898438-.617188-4.371094 1.210937-5.628907l41.363281-26.273437-37.023437 21.371094c-1.980469 1.203125-4.5625.570312-5.765625-1.410157-1.203125-1.980468-.570313-4.5625 1.410156-5.765624l53.835938-34.414063-49.480469 28.539063c-1.949219 1.054687-4.382813.410156-5.558594-1.472657-1.171875-1.882812-.679687-4.351562 1.128906-5.636719l99.453125-66.636718-95.023437 54.84375c-1.960938 1.097656-4.4375.453125-5.617188-1.457032-1.183593-1.914062-.648437-4.414062 1.210938-5.679687l59.066406-38.886719-54.660156 31.5625c-1.953125 1.113282-4.441407.488282-5.636719-1.421875-1.191406-1.90625-.667969-4.417969 1.1875-5.6875l54.457031-36.824219-50.007812 28.875c-1.949219 1.132813-4.445313.523438-5.65625-1.382812-1.207031-1.902344-.691407-4.421875 1.167969-5.703125l43.644531-30.265625-39.15625 22.605469c-1.960938 1.113281-4.449219.480469-5.640625-1.4375-1.1875-1.914063-.652344-4.429688 1.21875-5.691407l3.816406-2.515624c-1.984375.753906-4.222656-.097657-5.207031-1.980469-.984375-1.882813-.40625-4.207031 1.347656-5.40625l3.148437-2.148438c-1.945312.378907-3.890624-.652343-4.664062-2.476562-.777344-1.824219-.171875-3.941407 1.449219-5.078125l3.792969-2.703125c-1.941407.671875-4.082032-.15625-5.0625-1.960938-.980469-1.804687-.511719-4.054687 1.109374-5.316406l9.234376-7.292969-4.558594 2.625c-1.878906 1.066406-4.257813.535156-5.503906-1.226562-1.242188-1.765625-.949219-4.183594.6875-5.597656l3.355468-2.851563c-1.410156.203125-2.824218-.3125-3.777344-1.367187-1.296874-1.492188-1.378906-3.691407-.191406-5.273438l5.167969-6.847656c-1.753906-.28125-3.144531-1.636719-3.464844-3.382813-.324219-1.75.492188-3.511719 2.03125-4.398437l13.699219-7.914063c1.726562-.996093 3.914062-.636719 5.238281.855469 1.320313 1.496094 1.40625 3.710938.207031 5.304688l-3.726562 4.945312 19.449219-11.273438c1.875-1.085937 4.273437-.5625 5.523437 1.210938 1.253906 1.769531.949219 4.203125-.699218 5.613281l-2.140626 1.820313 15.007813-8.664063c1.902344-1.066406 4.308594-.5 5.53125 1.304688 1.226563 1.808593.859375 4.25-.839844 5.621093l-9.230469 7.277344 24.660157-14.269531c1.9375-1.105469 4.402343-.5 5.609375 1.378906 1.207031 1.875.730468 4.367188-1.078125 5.671875l-3.148438 2.234375 16.125-9.265625c1.957031-1.199218 4.515625-.597656 5.738281 1.34375 1.222657 1.941406.660157 4.503906-1.265624 5.753906l-.628907.414063 13.078125-7.554687c1.960938-1.117188 4.449219-.480469 5.640625 1.433593 1.1875 1.917969.652344 4.429688-1.21875 5.691407l-3.046875 2.074218 15.949219-9.234375c1.953125-1.1875 4.496094-.59375 5.722656 1.335938 1.226563 1.929687.679688 4.488281-1.226562 5.75l-43.644531 30.257812 64.746093-37.375c1.960938-1.160156 4.488281-.550781 5.695313 1.378907 1.210937 1.929687.660156 4.472656-1.238282 5.730468l-54.507812 36.847656 76.207031-43.992187c1.96875-1.179687 4.519531-.558594 5.726563 1.398437 1.207031 1.953126.617187 4.511719-1.320313 5.746094l-59.03125 38.859375 79.738281-46.039062c1.953126-1.09375 4.429688-.460938 5.613282 1.445312 1.183594 1.902344.664062 4.402344-1.183594 5.675781l-99.445312 66.640626 100.570312-58.046876c1.964844-1.050781 4.410156-.386718 5.566406 1.519532 1.15625 1.902344.625 4.378906-1.210937 5.640625l-53.84375 34.410156 49.523437-28.535156c1.972656-1.085938 4.449219-.421875 5.613282 1.503906 1.164062 1.925781.601562 4.429687-1.273438 5.671875l-41.363281 26.269531 37.023437-21.367187c1.972656-1.070313 4.4375-.398438 5.59375 1.527344 1.15625 1.921874.597656 4.414062-1.273437 5.65625l-12.320313 7.722656 8-4.617188c1.964844-1.117187 4.460938-.476562 5.644532 1.449219 1.1875 1.925781.632812 4.441406-1.246094 5.695313l-85.714844 56.183593 81.28125-46.917969c1.960938-1.117187 4.453125-.480468 5.640625 1.433594 1.191406 1.917969.652344 4.429688-1.21875 5.691406l-101.113281 67.375 96.691406-55.792968c1.96875-1.039063 4.410156-.355469 5.554688 1.554687 1.148437 1.910157.601562 4.382813-1.238282 5.632813l-4.121094 2.558594c2.003907-1.140626 4.554688-.449219 5.707032 1.550781 1.152344 1.996093.476562 4.550781-1.511719 5.71875l-58.753906 37.703125 54.363281-31.375c1.976562-1.109375 4.476562-.445313 5.644531 1.496094 1.171875 1.9375.589844 4.457031-1.3125 5.6875l-25.644531 16.148437 21.3125-12.292969c1.96875-1.066406 4.425781-.402344 5.589844 1.511719 1.160156 1.914063.613281 4.402344-1.242188 5.65625l-44.175781 28.101563 39.828125-22.976563c1.976562-1.085937 4.460938-.417969 5.625 1.519531 1.160156 1.9375.582031 4.445313-1.308594 5.675782l-4.121094 2.585937c1.96875-.933594 4.328126-.199219 5.425782 1.6875 1.09375 1.886719.558594 4.296875-1.230469 5.546875l-93.871094 62.109375 89.480469-51.703125c1.976562-1.15625 4.515625-.515625 5.707031 1.441406 1.191407 1.953125.59375 4.503906-1.34375 5.726563l-60.84375 39.097656 56.480469-32.609375c1.96875-1.082031 4.4375-.421875 5.605469 1.492188 1.167969 1.917968.621093 4.414062-1.242188 5.667968l-61.554687 39.574219 57.191406-33.011719c1.972656-1.066406 4.4375-.394531 5.59375 1.527344 1.160156 1.925781.597656 4.417969-1.269531 5.660156l-13.574219 8.519532 9.234375-5.339844c1.976563-1.105469 4.476563-.445313 5.644531 1.496094 1.171875 1.941406.589844 4.457031-1.3125 5.6875l-28.328125 17.871093 24.011719-13.839843c1.960938-1.117188 4.453125-.480469 5.640625 1.433593 1.191406 1.917969.652344 4.429688-1.21875 5.691407l-97.757813 65.21875 93.335938-53.878907c1.960938-1.113281 4.453125-.480469 5.640625 1.433594 1.191406 1.917969.652344 4.429687-1.21875 5.691406l-78.652344 52.46875 74.230469-42.808593c1.941406-1.101563 4.410156-.488282 5.609375 1.394531 1.203125 1.882812.71875 4.378906-1.101563 5.675781l-75.179687 52.566406 70.636719-40.785156c1.964844-1.136719 4.480468-.507812 5.675781 1.425781 1.195313 1.929688.636719 4.460938-1.257813 5.710938l-21.152343 14.050781 16.785156-9.6875c1.960937-1.113281 4.453125-.480469 5.640625 1.433594 1.191406 1.917968.652344 4.429687-1.214844 5.695312l-7.855468 5.242188 3.429687-1.980469c1.90625-1.054687 4.300781-.480469 5.519531 1.324219 1.214844 1.804687.851563 4.242187-.84375 5.609375l-38.609375 30.21875 33.902344-19.574219c1.929687-1.074219 4.359375-.46875 5.558594 1.382812 1.203125 1.851563.765625 4.316407-1 5.640626l-3.359375 2.425781c1.882812-.417969 3.808594.496093 4.667968 2.21875.863282 1.726562.441407 3.816406-1.023437 5.066406l-12.089844 10.410156 7.253907-4.199219c1.847656-1.042968 4.1875-.542968 5.445312 1.171876 1.257812 1.710937 1.039062 4.089843-.511719 5.542968l-2.777343 2.519532c1.40625.015624 2.710937.738281 3.472656 1.917968.765625 1.183594.882812 2.667969.320312 3.957032l-4.707031 10.8125c1.375-.289063 2.804687.132812 3.804687 1.117187 1 .988281 1.441407 2.410156 1.171876 3.792969l-1.570313 8.046875c.441406.335937.8125.753906 1.085937 1.234375.554688.964844.703126 2.113281.414063 3.1875-.289063 1.074218-.996094 1.992187-1.960937 2.546875l-2.667969 1.527343c-.628907.386719-1.347657.597657-2.082031.621094zm0 0" fill="#e4e8eb"/><path d="m275.382812 436.140625c-1.898437 0-3.5625-1.273437-4.050781-3.109375-.492187-1.832031.308594-3.769531 1.953125-4.71875l187.433594-108.21875c1.953125-1.097656 4.421875-.46875 5.613281 1.429688 1.191407 1.894531.679688 4.390624-1.15625 5.671874l-63.863281 43.417969 59.40625-34.292969c1.953125-1.097656 4.421875-.46875 5.613281 1.425782 1.191407 1.898437.679688 4.394531-1.15625 5.675781l-39.648437 26.933594 35.191406-20.320313c1.914062-1.0625 4.320312-.476562 5.53125 1.34375 1.210938 1.820313.820312 4.269532-.898438 5.621094l-49.5625 37.695312 44.929688-25.925781c1.933594-1.070312 4.363281-.457031 5.558594 1.402344 1.195312 1.855469.75 4.320313-1.023438 5.636719l-11.433594 8.152344 6.898438-3.96875c1.847656-.980469 4.128906-.453126 5.359375 1.234374s1.03125 4.023438-.464844 5.476563l-23.023437 20.582031 18.128906-10.464844c1.695312-.980468 3.839844-.660156 5.171875.769532 1.332031 1.433594 1.5 3.59375.402344 5.214844l-10.691407 15.777343 3.683594-2.113281c1.992188-1.042969 4.453125-.328125 5.578125 1.617188 1.125 1.949218.515625 4.4375-1.382812 5.644531l-19.480469 11.253906c-1.691406.976563-3.835938.652344-5.164062-.777344-1.332032-1.429687-1.503907-3.589843-.410157-5.207031l10.6875-15.761719-37.6875 21.746094c-1.84375.976563-4.128906.449219-5.359375-1.238281-1.226562-1.683594-1.03125-4.019532.464844-5.476563l23.03125-20.554687-47.3125 27.269531c-1.933594 1.066406-4.363281.457031-5.558594-1.402344-1.195312-1.855469-.746094-4.324219 1.027344-5.640625l11.371094-8.117187-26.269532 15.160156c-1.914062 1.082031-4.339843.503906-5.5625-1.324219-1.21875-1.832031-.816406-4.292968.917969-5.640625l49.566407-37.730469-77.414063 44.695313c-1.953125 1.132813-4.457031.515625-5.660156-1.394531-1.203125-1.914063-.675781-4.4375 1.195312-5.707032l39.675781-26.949218-58.980468 34.050781c-1.949219 1.082031-4.40625.453125-5.59375-1.433594s-.691406-4.371093 1.128906-5.660156l63.871094-43.417969-88.480469 51.109375c-.640625.367188-1.363281.5625-2.101563.558594zm0 0" fill="#e4e8eb"/><path d="m253.476562 451.082031c-1.855468 0-3.488281-1.21875-4.019531-2.996093-.527343-1.777344.171875-3.691407 1.71875-4.707032l84.550781-55.398437-80.152343 46.289062c-1.964844 1.101563-4.449219.449219-5.625-1.46875-1.175781-1.921875-.625-4.429687 1.246093-5.679687l72.679688-47.105469-68.300781 39.449219c-1.964844 1.140625-4.476563.507812-5.671875-1.421875-1.195313-1.929688-.636719-4.460938 1.257812-5.710938l97.441406-64.691406-93.027343 53.6875c-1.964844 1.097656-4.449219.449219-5.625-1.472656s-.625-4.425781 1.246093-5.679688l75.890626-49.34375-71.535157 41.292969c-1.96875 1.066406-4.425781.402344-5.589843-1.511719-1.160157-1.914062-.613282-4.402343 1.242187-5.65625l48.472656-30.902343-44.101562 25.464843c-1.960938 1.078125-4.425781.429688-5.597657-1.480469-1.171874-1.90625-.640624-4.402343 1.210938-5.664062l81.113281-52.960938-76.726562 44.292969c-1.957031 1.078125-4.417969.4375-5.59375-1.464843-1.179688-1.902344-.660157-4.390626 1.179687-5.664063l96.164063-63.746094-91.75 52.96875c-1.96875 1.148438-4.492188.511719-5.683594-1.429687-1.195313-1.941406-.617187-4.480469 1.296875-5.71875l80.574219-52.585938-76.1875 43.988282c-1.960938 1.082031-4.425781.429687-5.597657-1.476563-1.171874-1.910156-.640624-4.402344 1.210938-5.664063l83.453125-54.617187-79.066406 45.652344c-1.964844 1.097656-4.449219.449219-5.625-1.472657-1.175781-1.917968-.625-4.425781 1.246093-5.679687l76.277344-49.628906-71.898437 41.539062c-1.949219 1.042969-4.375.390625-5.539063-1.492187-1.167968-1.878906-.675781-4.339844 1.125-5.625l98.246094-65.300782-93.832031 54.171876c-1.964844 1.066406-4.425781.398437-5.585938-1.515626-1.160156-1.914062-.617187-4.402343 1.238281-5.652343l48.046876-30.636719-43.699219 25.230469c-1.972657 1.085937-4.449219.417969-5.613281-1.507813-1.164063-1.925781-.601563-4.425781 1.273437-5.667968l33.238281-20.984376-28.898437 16.644532c-1.972657 1.066406-4.4375.394531-5.59375-1.527344s-.597657-4.414062 1.273437-5.65625l18.113282-11.382812-13.792969 7.964843c-1.972657 1.15625-4.515625.519531-5.703125-1.4375-1.191406-1.957031-.597656-4.507812 1.339844-5.730469l58.949218-37.828124-54.558594 31.507812c-1.972656 1.070312-4.4375.394531-5.597656-1.527344-1.15625-1.921875-.59375-4.414062 1.273438-5.65625l9.234375-5.800781-4.9375 2.84375c-1.957031 1.054687-4.398438.394531-5.5625-1.503906-1.160157-1.894531-.644531-4.367188 1.183593-5.636719l66.691407-43.3125-62.3125 35.957031c-1.953125 1.117188-4.441407.488281-5.632813-1.417969-1.195312-1.90625-.671875-4.417968 1.1875-5.6875l79.003906-53.585937-74.558593 43.066406c-1.964844 1.097657-4.449219.449219-5.625-1.46875-1.175781-1.921875-.625-4.429687 1.246093-5.683593l21.191407-13.761719-16.785157 9.699219c-1.941406 1.140624-4.433593.546874-5.652343-1.34375-1.21875-1.894532-.730469-4.410157 1.109375-5.703126l55.304687-39.527343-50.789062 29.292969c-1.941407 1.0625-4.371094.433593-5.554688-1.4375-1.183593-1.867188-.714843-4.335938 1.074219-5.636719l19.472656-13.429688-14.992187 8.628907c-1.917969 1.097656-4.363281.519531-5.582031-1.324219-1.222657-1.84375-.804688-4.320313.957031-5.660157l25.777343-19.398437-21.152343 12.195313c-1.847657 1.019531-4.160157.507812-5.40625-1.195313-1.246094-1.699219-1.039063-4.0625.488281-5.515625l22.125-20.035156-17.207031 9.925781c-1.808594 1.035156-4.101563.582031-5.386719-1.0625-1.28125-1.640625-1.164062-3.976563.277344-5.484375l7.789062-8.03125-2.679687 1.535156c-1.457031.839844-3.277344.722656-4.621094-.289062-1.339844-1.015625-1.945313-2.734375-1.539063-4.367188l2.351563-9.308594c-.808594-.355468-1.484375-.960937-1.921875-1.730468-1.160156-2.007813-.472656-4.574219 1.535156-5.730469l4.195313-2.417969c1.460937-.847656 3.289062-.734375 4.636719.285156 1.34375 1.019532 1.949218 2.746094 1.535156 4.382813l-1.753906 6.949219 20.09375-11.625c1.808593-1.046875 4.113281-.597656 5.402343 1.046875 1.289063 1.648437 1.167969 3.992187-.285156 5.5l-7.78125 8.023437 25.273437-14.570312c1.847657-1.003906 4.152344-.488282 5.390626 1.210937 1.242187 1.695313 1.035156 4.046875-.480469 5.503907l-22.125 20.042968 46.390625-26.757812c1.921875-1.101563 4.363281-.523438 5.585937 1.324218 1.222657 1.84375.800781 4.320313-.960937 5.65625l-25.742188 19.40625 45.710938-26.386718c1.941406-1.0625 4.371094-.433594 5.558594 1.4375 1.183593 1.867187.710937 4.335937-1.078126 5.636718l-19.445312 13.429688 35.527344-20.503906c1.9375-1.117188 4.414062-.519532 5.625 1.359375 1.214844 1.882812.738281 4.386719-1.082032 5.691406l-55.320312 39.515625 80.703125-46.566406c1.960937-1.082032 4.425781-.429688 5.597656 1.476562 1.171875 1.910156.640625 4.402344-1.210937 5.664063l-21.175782 13.757812 36.210938-20.898437c1.949219-1.070313 4.390625-.433594 5.574219 1.449218 1.179687 1.886719.683593 4.363282-1.125 5.648438l-79.027344 53.59375 100.890625-58.257812c1.960938-1.050782 4.398438-.394532 5.5625 1.503906 1.164062 1.894531.644531 4.367187-1.179688 5.636718l-66.671874 43.304688 69.304687-40.019531c1.972656-1.070313 4.4375-.398438 5.597656 1.523437 1.15625 1.925782.59375 4.417969-1.273437 5.660156l-9.167969 5.742188 5.878906-3.359375c1.964844-1.082031 4.433594-.425781 5.605469 1.492187 1.167969 1.917969.621094 4.414063-1.242188 5.667969l-58.949218 37.828125 54.558594-31.507812c1.972656-1.070313 4.4375-.398438 5.59375 1.527344 1.160156 1.921874.597656 4.414062-1.269532 5.65625l-18.257812 11.464843 13.933594-8.039062c1.972656-1.085938 4.449218-.421875 5.613281 1.503906 1.164062 1.925781.601562 4.429687-1.273438 5.671875l-33.105469 20.933594 28.765626-16.601563c1.96875-1.066406 4.425781-.402343 5.589843 1.511719 1.160157 1.914062.613281 4.402344-1.242187 5.65625l-48.042969 30.636719 43.695313-25.230469c1.953124-1.042969 4.375-.390625 5.542968 1.488281 1.164063 1.878907.671875 4.34375-1.128906 5.628907l-98.269531 65.316406 93.863281-54.1875c1.960938-1.050782 4.398438-.394532 5.5625 1.503906 1.164062 1.894531.644531 4.367188-1.179688 5.636719l-76.28125 49.597656 71.898438-41.503906c1.964844-1.082031 4.429688-.429688 5.601562 1.476562 1.171876 1.910157.640626 4.402344-1.210937 5.664063l-83.464844 54.609375 79.074219-45.644531c1.972656-1.144532 4.496094-.507813 5.6875 1.433593 1.191406 1.941407.617188 4.480469-1.296875 5.71875l-80.652344 52.625 76.261719-43.988281c1.964844-1.140625 4.480469-.507812 5.675781 1.421875 1.195313 1.929687.636719 4.460937-1.261719 5.710937l-96.078124 63.664063 91.691406-52.925781c1.960937-1.082032 4.425781-.429688 5.597656 1.476562 1.175781 1.910156.640625 4.402344-1.210938 5.664063l-81.136718 52.964843 76.722656-44.292968c1.96875-1.066406 4.429688-.402344 5.589844 1.511718 1.160156 1.914063.613281 4.402344-1.242188 5.65625l-48.472656 30.902344 44.125-25.472656c1.96875-1.097656 4.449219-.449219 5.625 1.472656 1.179688 1.917969.628906 4.425782-1.242188 5.679688l-75.902343 49.34375 71.539062-41.296875c1.960938-1.136719 4.476563-.507813 5.671875 1.421875 1.195313 1.933594.636719 4.464844-1.257812 5.714844l-97.457032 64.6875 93.023438-53.71875c1.972656-1.121094 4.476562-.476563 5.660156 1.460937 1.179688 1.933594.613282 4.457031-1.285156 5.699219l-72.585938 47.054687 68.210938-39.382812c1.960938-1.066407 4.410156-.414063 5.578125 1.484375 1.171875 1.898437.652344 4.378906-1.179687 5.648437l-206.21875 135.085938c-.296876.328125-.648438.613281-1.03125.839843l-2.28125 1.316407c-.640626.371093-1.367188.570312-2.109376.570312zm0 0" fill="#e4e8eb"/><path d="m254.382812 267.710938c-1.707031.003906-3.246093-1.027344-3.894531-2.609376-.644531-1.582031-.265625-3.398437.957031-4.59375l8.394532-8.25-22.320313 12.886719c-1.890625 1.078125-4.296875.53125-5.535156-1.261719-1.234375-1.792968-.894531-4.238281.785156-5.621093l10.183594-8.285157-14.773437 8.535157c-1.851563 1.074219-4.214844.585937-5.484376-1.136719-1.273437-1.722656-1.042968-4.125.53125-5.578125l17.292969-16.015625-17.828125 10.292969c-1.730468.992187-3.917968.636719-5.238281-.859375-1.324219-1.492188-1.410156-3.710938-.210937-5.300782l9.34375-12.382812-4.585938 2.652344c-1.503906.867187-3.386719.71875-4.734375-.375-1.351563-1.097656-1.886719-2.90625-1.347656-4.558594l1.820312-5.589844c-.609375-.367187-1.117187-.886718-1.46875-1.503906-1.160156-2.007812-.472656-4.574219 1.535157-5.734375l4.195312-2.433594c1.515625-.851562 3.394531-.699219 4.753906.378907 1.347656 1.097656 1.882813 2.914062 1.339844 4.566406l-.835938 2.519531 13.023438-7.515625c1.726562-.984375 3.910156-.625 5.226562.863281 1.320313 1.488281 1.410157 3.695313.222657 5.289063l-9.292969 12.414062 32.300781-18.648437c1.847657-1.074219 4.214844-.585938 5.484375 1.136719 1.269532 1.722656 1.039063 4.125-.535156 5.578124l-17.289062 16.007813 28.058593-16.191406c1.890625-1.0625 4.28125-.507813 5.511719 1.277343 1.230469 1.785157.898438 4.214844-.769531 5.605469l-10.214844 8.300781 5.480469-3.15625c1.832031-1.054687 4.160156-.585937 5.441406 1.097657 1.277344 1.679687 1.105469 4.050781-.402344 5.53125l-8.394531 8.25 2.273437-1.308594c2.003907-1.140625 4.554688-.445313 5.710938 1.550781 1.152344 1.996094.476562 4.550782-1.515625 5.71875l-31.054687 17.921875c-.652344.367188-1.390626.554688-2.140626.535157zm0 0" fill="#bac1c6"/><path d="m228.925781 192.171875c-1.726562 0-3.273437-1.054687-3.90625-2.660156-.632812-1.605469-.21875-3.433594 1.042969-4.609375l8.621094-8.050782-21.386719 12.339844c-1.820313 1-4.097656.519532-5.355469-1.132812-1.261718-1.648438-1.125-3.972656.320313-5.464844l8.167969-8.191406-9.828126 5.671875c-1.707031.972656-3.855468.632812-5.179687-.8125-1.320313-1.449219-1.464844-3.621094-.34375-5.230469l4.851563-6.890625c-1.554688.035156-3.007813-.765625-3.804688-2.097656-1.152344-2.003907-.464844-4.566407 1.539062-5.726563l13.941407-8.046875c1.703125-.972656 3.851562-.632812 5.175781.8125 1.320312 1.449219 1.464844 3.621094.34375 5.230469l-4.195312 5.949219 20.78125-11.976563c1.820312-1 4.097656-.519531 5.359374 1.132813 1.257813 1.648437 1.121094 3.972656-.320312 5.464843l-8.175781 8.199219 25.65625-14.796875c1.855469-1.109375 4.246093-.628906 5.53125 1.105469 1.28125 1.734375 1.039062 4.164063-.5625 5.609375l-8.628907 8.050781 25.578126-14.765625c1.847656-1.03125 4.171874-.523437 5.425781 1.183594 1.25 1.707031 1.039062 4.078125-.5 5.53125l-7.773438 7.117188 14.773438-8.535157c1.832031-1.054687 4.160156-.585937 5.4375 1.097657 1.277343 1.683593 1.105469 4.054687-.402344 5.53125l-4.808594 4.746093 4.304688-2.519531c1.765625-1.011719 4.003906-.613281 5.308593.945312 1.304688 1.558594 1.304688 3.832032-.003906 5.390626l-3.691406 4.382812c1.453125.628906 2.429688 2.027344 2.519531 3.609375.09375 1.585937-.71875 3.085937-2.09375 3.875l-13.746093 7.933594c-1.765626 1.023437-4.011719.628906-5.324219-.933594-1.308594-1.5625-1.304688-3.84375.011719-5.402344l.484374-.570312-11.984374 6.914062c-1.828126 1.042969-4.144532.566407-5.417969-1.105469-1.273438-1.675781-1.109375-4.03125.382812-5.515624l4.816407-4.734376-19.691407 11.347657c-1.851562 1.070312-4.210937.582031-5.480469-1.140625-1.269531-1.726563-1.035156-4.132813.546876-5.582032l7.796874-7.125-24.015624 13.847657c-.632813.382812-1.355469.589843-2.097657.597656zm0 0" fill="#bac1c6"/><path d="m265.964844 225.742188c-1.671875.003906-3.1875-.992188-3.851563-2.53125-.664062-1.539063-.351562-3.324219.796875-4.542969l9.425782-9.996094-28.585938 16.476563c-1.746094 1.003906-3.953125.628906-5.269531-.894532-1.316407-1.519531-1.367188-3.761718-.121094-5.34375l12.589844-15.863281-35.417969 20.421875c-1.789062 1.019531-4.050781.589844-5.34375-1.007812-1.292969-1.601563-1.234375-3.90625.140625-5.4375l10.464844-11.550782-14.210938 8.191406c-1.707031.988282-3.867187.65625-5.199219-.800781-1.328124-1.453125-1.46875-3.636719-.332031-5.25l4.9375-7.007812c-1.515625-.050781-2.910156-.832031-3.746093-2.097657-1.152344-2.003906-.46875-4.5625 1.527343-5.726562l13.808594-7.964844c1.703125-.980468 3.859375-.644531 5.1875.804688 1.328125 1.453125 1.472656 3.628906.34375 5.238281l-4.195313 6.019531 20.882813-12.019531c1.789063-1.03125 4.058594-.605469 5.359375.996094 1.296875 1.605469 1.234375 3.917969-.148438 5.449219l-10.484374 11.558593 31.191406-18.003906c1.742187-1.007813 3.953125-.636719 5.269531.882813 1.324219 1.519531 1.378906 3.769531.128906 5.355468l-12.589843 15.871094 34.410156-19.875c1.804687-1.046875 4.101562-.605469 5.394531 1.027344 1.292969 1.632812 1.191406 3.96875-.238281 5.484375l-9.417969 9.980469 11.339844-6.546876c1.714843-.984374 3.890625-.636718 5.210937.835938 1.320313 1.476562 1.433594 3.671875.269532 5.273438l-4.617188 6.296874c1.824219.15625 3.335938 1.480469 3.734375 3.269532.398437 1.789062-.410156 3.625-1.996094 4.542968l-13.75 7.933594c-1.714843.984375-3.890625.632813-5.210937-.839844-1.324219-1.472656-1.433594-3.671874-.269532-5.273437l3.507813-4.773437-18.867187 10.910156c-.628907.351562-1.335938.535156-2.058594.527344zm0 0" fill="#cad0d7"/><path d="m244.058594 158.746094c-1.71875.003906-3.265625-1.046875-3.902344-2.648438-.632812-1.597656-.226562-3.421875 1.023438-4.601562l21.152343-19.882813-40.289062 23.273438c-1.9375 1.105469-4.402344.5-5.609375-1.375-1.207032-1.878907-.734375-4.371094 1.078125-5.675781l12.464843-8.886719-7.933593 4.574219c-1.945313 1.132812-4.4375.53125-5.652344-1.367188-1.210937-1.898438-.710937-4.414062 1.136719-5.703125l12.925781-9.089844-8.71875 5.039063c-1.945313 1.085937-4.398437.464844-5.589844-1.417969-1.195312-1.878906-.710937-4.363281 1.097657-5.660156l9.871093-6.875-6.90625 3.988281c-1.949219 1.117188-4.429687.503906-5.632812-1.386719-1.203125-1.894531-.703125-4.402343 1.132812-5.6875l11.085938-7.714843-10.113281 5.875c-1.929688 1.097656-4.382813.503906-5.59375-1.359376-1.210938-1.863281-.757813-4.347656 1.027343-5.664062l29.136719-21.21875-31.109375 17.960938c-1.941406 1.117187-4.417969.515624-5.628906-1.371094-1.207031-1.886719-.722657-4.390625 1.105469-5.6875l20.984374-14.832032-22.308593 12.800782c-1.902344 1.082031-4.316407.523437-5.550781-1.285156-1.230469-1.808594-.863282-4.261719.839843-5.632813l44.964844-35.59375-46.296875 26.722656c-1.925781 1.109375-4.378906.53125-5.601562-1.320312-1.222657-1.855469-.792969-4.339844.984374-5.671875l28.535157-21.402344-25.179688 14.519531c-1.871093 1.089844-4.265625.578125-5.523437-1.183593-1.261719-1.765626-.972656-4.195313.664062-5.613282l32.476563-28.335937-22.125 12.816406c-1.875 1.09375-4.277344.578125-5.535157-1.1875-1.261718-1.769531-.964843-4.207031.683594-5.621094l12.421875-10.820312c-.589843-.363281-1.078125-.871094-1.417969-1.476563-1.15625-2.003906-.472656-4.5625 1.527344-5.722656l24.816406-14.335938c1.871094-1.074218 4.253907-.554687 5.503907 1.203126 1.253906 1.753906.972656 4.175781-.652344 5.59375l-3.675781 3.191406 21.472656-12.398438c1.871094-1.109375 4.28125-.60156225 5.550781 1.167969 1.265625 1.769531.96875 4.214844-.683593 5.632813l-32.425782 28.328124 48.574219-28.042968c1.921875-1.109375 4.378906-.53125 5.601563 1.320312 1.222656 1.851563.789062 4.339844-.984376 5.671875l-28.539062 21.402344 35.328125-20.398437c1.90625-1.089844 4.328125-.527344 5.558594 1.285156 1.234375 1.816406.859375 4.273437-.859375 5.640625l-44.988282 35.613281 51.007813-29.476562c1.941406-1.121094 4.421875-.515626 5.628906 1.371093 1.210938 1.886719.722657 4.390625-1.105469 5.6875l-20.863281 14.773438 21.394531-12.347657c1.929688-1.097656 4.382813-.503906 5.59375 1.359376 1.210938 1.863281.757813 4.347656-1.027343 5.664062l-29.160157 21.261719 27.605469-15.945313c1.9375-1.050781 4.359375-.421875 5.542969 1.4375 1.179688 1.859375.722656 4.320313-1.050781 5.628906l-11.097657 7.730469 6.824219-3.9375c1.941407-1.074219 4.382813-.453125 5.574219 1.417969s.71875 4.347656-1.074219 5.648438l-9.863281 6.867187 3.699219-2.132813c1.945312-1.136718 4.441406-.535156 5.65625 1.363282 1.210937 1.898437.710937 4.417968-1.140625 5.703125l-12.925782 9.089843 2.210938-1.273437c1.9375-1.105469 4.402344-.503906 5.609375 1.375 1.203125 1.878906.730469 4.371094-1.078125 5.675781l-14.832031 10.582032c1.550781-.21875 3.09375.425781 4.027343 1.679687 1.269532 1.710937 1.058594 4.097656-.492187 5.554687l-21.144531 19.84375 11.179687-6.445312c1.808594-1.035156 4.101563-.582031 5.386719 1.054688 1.28125 1.640624 1.167969 3.972656-.265625 5.484374l-3.636719 3.785157c1.191406-.238281 2.421875.070312 3.359375.839843 1.347657 1.066407 1.90625 2.851563 1.410157 4.496094l-1.878907 6.238282c.671875.371093 1.226563.917968 1.609375 1.585937 1.152344 2.003906.464844 4.566406-1.535156 5.722656l-4.195312 2.425781c-1.492188.855469-3.351563.71875-4.699219-.347656-1.34375-1.070312-1.90625-2.847656-1.414063-4.496094l1.023438-3.414062-14.433594 8.335938c-1.808594 1.03125-4.101562.582031-5.386719-1.058594-1.285156-1.640625-1.171875-3.972656.265625-5.480469l2.996094-3.125-16.871094 9.738281c-.644531.386719-1.378906.589844-2.132812.585938zm0 0" fill="#f5b945"/><g fill="#262626"><path d="m502.71875 181.6875c0-36.546875 9.855469-70.335938-33.304688-72.34375.464844-11.179688.554688-23.617188-9.011718-30.214844-14.347656-9.929687-48.144532-3.191406-63.851563-3.191406h-82.195312c2.402343-6.4375 3.570312-13.273438 3.441406-20.144531 0-.132813-.09375-.210938-.109375-.335938s.125-.394531.082031-.613281c-3.71875-22.953125-19.378906-42.1875-41.101562-50.484375-21.722657-8.296875-46.21875-4.3984375-64.292969 10.230469-18.464844 14.480468-27.226562 38.109375-22.664062 61.128906-41.402344-.964844-88.164063-7.335938-127.855469.253906-18.960938 3.617188-24.59375 17.390625-25.785157 33.574219-31.015624 2.59375-32.339843 18.648437-32.339843 50.71875v170.246094c0 36.292969-8.394531 82.925781 0 118.347656 7.832031 32.910156 66.234375 19.851563 91.421875 19.851563h85.117187c8.339844-1.042969 16.78125-1.042969 25.121094 0 14.125 4.195312 18.609375 17.625 32.355469 22.894531 30.015625 11.425781 35.40625-13.941407 57.179687-22.894531 15.519531-6.390626 45.441407 0 62.351563 0h86.808594c12.90625 0 33.570312 3.675781 45.867187-2.964844 23.101563-12.429688 12.765625-63.714844 12.765625-84.226563zm-99.308594-99.394531c26.414063 0 47.949219-5.222657 53.574219 25.085937.351563 1.929688.554687 3.953125.839844 5.941406-.664063.984376-.695313 1.875.328125 2.394532 2.894531 25.574218-1.152344 54.800781-1.152344 79.777344v123c0 27.808593 4.667969 60.566406 0 88.128906-4.933594 29.085937-26.109375 21.824218-51.792969 21.824218-37.25 0-74.703125-1.117187-111.910156 0-11.851563-.785156-23.671875 1.96875-33.953125 7.914063v-168.808594c22.351562-4.144531 33.3125-22.5 33.574219-45.257812 9.375-1.511719 16.378906-9.429688 16.738281-18.917969-.003906-7.769531-5.425781-14.484375-13.019531-16.125 7.671875-2.367188 12.933593-9.421875 13.019531-17.449219-.109375-10.542969-7.957031-15.417969-16.789062-16.996093-.855469-10.664063-.574219-21.390626.839843-31.996094 3.40625-15.945313 12.070313-26.1875 18.027344-38.515625zm-186.714844 75.96875c.21875.039062.4375.066406.65625.082031h67.148438c1.042969-.035156 2.082031-.179688 3.097656-.425781 1.183594.554687 2.304688 1.226562 3.355469 2.003906 6.523437 4.691406 11.84375 22.664063-1.945313 25.894531h-.226562c-.175781 0-.355469-.050781-.53125-.058594-19.757812-1.3125-39.574219-1.433593-59.347656-.371093-13.363282-1.300781-25.121094-5.964844-16.46875-21.964844.980468-2.039063 2.445312-3.8125 4.261718-5.160156zm3.628907 32.515625c19.246093 1.257812 39.027343.082031 58.359375-.09375 4.917968.460937 6.421875-1.375 12.296875 2.839844 6.890625 4.925781 9.929687 20.140624.503906 24.816406-1.214844-.890625-2.691406-1.351563-4.199219-1.308594h-67.148437c-.105469 0-.242188.058594-.359375.066406-9.140625-4.085937-15.71875-13-6.890625-22.453125 2.074219-1.949219 4.648437-3.289062 7.4375-3.867187zm60.121093 35.773437c-.839843 16.5-6.714843 31.367188-26.765624 32.449219-19.371094 0-26.40625-16.460938-27.597657-32.449219zm-79.351562-172.796875c1.960938-14.566406 9.878906-27.660156 21.867188-36.160156 11.988281-8.5 26.96875-11.640625 41.359374-8.667969 23.25 4.070313 37.546876 27.695313 41.222657 48.824219.109375 26.78125-19.128907 40.363281-24.03125 64.4375-1.363281 9.519531-1.667969 19.164062-.90625 28.753906h-39.449219c-1.519531 0-5.488281.511719-9.394531.765625h-.207031c-2.550782.265625-5.125.1875-7.65625-.226562 3.492187 0 2.140624-16.527344 1.871093-20.144531-2.191406-29.027344-28.722656-47.257813-24.675781-77.582032zm-95.222656 28.539063h85.722656c5.035156 13.613281 15.785156 23.40625 19.898438 37.667969 2.289062 11.1875 2.992187 22.636718 2.082031 34.019531-7.339844 1.527343-13.367188 6.734375-15.945313 13.773437-1.4375 4.394532-.964844 9.191406 1.296875 13.226563 2.257813 4.035156 6.105469 6.9375 10.601563 8.007812-7.363282 2.515625-12.410156 9.320313-12.671875 17.097657-.007813 9.363281 7.265625 17.113281 16.609375 17.695312-.980469 10.765625 1.925781 21.527344 8.191406 30.332031 6.378906 7.738281 15.507812 12.699219 25.46875 13.839844v166.527344c-10.175781-6.898438-24.820312-6.042969-39.792969-6.042969h-115.261719c-25.605468 0-39.558593-.386719-42.585937-28.480469-3.097656-28.839843 0-59.683593 0-88.667969v-119.050781c0-25.367187-3.484375-54.164062-.949219-80.023437.644532-.839844.839844-1.679688.257813-2.214844.226562-1.964844.394531-3.953125.691406-5.878906 4.707031-30.273438 29.847656-21.828125 56.386719-21.828125zm384.679687 366.582031c-9.863281 26.65625-89.082031 12.800781-112.339843 12.800781-30.46875 0-63.328126-4.195312-92.898438 3.53125-3.480469.917969-4.566406 6.449219-7.898438 7.304688-15.890624.492187-31.792968.046875-47.632812-1.335938-7.425781-2.082031-8.46875-7.191406-17.757812-9.5-11.988282-2.972656-27.933594 0-40.289063 0h-71.898437c-19.054688 0-46.492188 4.941407-65.050782 0-29.769531-7.925781-18.882812-55.808593-18.882812-80.140625v-172.554687c0-25.742188-13.507813-86.449219 19.867187-92.207031-.050781 12.050781 1.542969 24.785156 1.542969 35.386718v199.570313c0 27.027343-12.230469 77.066406 22.570312 83.09375 28.226563 4.878906 61.582032 0 90.171876 0 27.117187 0 89.808593-12.429688 97.09375 23.621093 0 .148438.175781.214844.242187.351563.042969.078125.09375.152344.152344.21875l.09375.125v.058594c.183593.207031.410156.375.660156.496093 3.03125 2.207032 10.988281 0 10.988281-3.550781v-.320312c6.621094-31.894531 57.722656-20.984375 79.8125-20.984375 31.34375 0 63.09375 1.496094 94.402344 0 32.601562-1.558594 35.597656-16.054688 35.597656-45.324219v-271.578125c0-.277344 0-.578125 0-.839844 33.832032 7.085938 21.386719 58.285156 21.386719 86.210938v213.191406c.066406 8.410156 3.097656 24.167969.066406 32.375zm0 0"/><path d="m251.058594 41.332031c8.1875.414063 15.472656 5.320313 18.929687 12.753907 3.457031 7.429687 2.519531 16.164062-2.433593 22.691406-4.601563 6.078125 6.90625 7.453125 10.070312 3.257812 6.972656-8.632812 8.390625-20.492187 3.652344-30.527344-4.738282-10.03125-14.800782-16.46875-25.894532-16.570312-5.664062-.351562-12.539062 7.933594-4.324218 8.394531zm0 0"/><path d="m96.417969 181.90625c2.234375 2.238281 13.378906-2.234375 11.449219-4.199219l-11.882813-11.890625-9.089844-9.089844c-1.105469-1.195312-2.28125-2.316406-3.527343-3.359374 1.175781-1.042969 2.28125-2.164063 3.308593-3.355469 2.796875-2.800781 5.59375-5.597657 8.390625-8.394531l12.589844-12.589844c2.519531-2.519532-8.886719-1.269532-11.027344.839844l-25.179687 25.179687c-.546875.542969-.839844 1.066406-.210938 1.679687zm0 0"/><path d="m296.585938 351.746094c2.796874-2.796875 5.597656-5.59375 8.394531-8.394532l12.589843-12.589843c3.105469-3.105469-8.746093-2.148438-11.179687.285156l-25.179687 25.179687c-.296876.265626-.472657.636719-.488282 1.03125-.019531.394532.125.78125.394532 1.070313l25.179687 25.179687c2.617187 2.609376 14.015625-1.832031 11.363281-4.484374l-20.972656-20.972657c-.503906-.503906-2-2.285156-3.046875-3.15625.972656-.804687 2.316406-2.519531 2.945313-3.148437zm0 0"/><path d="m398.582031 332.996094 20.984375 20.984375c1.089844 1.195312 2.257813 2.316406 3.5 3.355469-1.167968 1.046874-2.265625 2.167968-3.289062 3.359374l-8.394532 8.390626-12.589843 12.589843c-2.578125 2.578125 8.878906 1.3125 11.027343-.835937l25.183594-25.183594c.550782-.542969.835938-1.089844.207032-1.675781l-25.179688-25.183594c-2.25-2.238281-13.414062 2.234375-11.449219 4.199219zm0 0"/><path d="m364.707031 331.878906-25.179687 50.359375c-1.175782 2.359375 10.382812 1.394531 12.050781-1.945312l25.183594-50.359375c1.171875-2.386719-10.382813-1.394532-12.054688 1.945312zm0 0"/><path d="m76.359375 225.988281h92.328125c6.714844 0 9.492188-8.394531 1.207031-8.394531h-92.328125c-6.753906 0-9.492187 8.394531-1.207031 8.394531zm0 0"/><path d="m74.789062 259.5625h100.722657c5.480469 0 12.539062-8.3125 4.347656-8.3125h-100.722656c-5.480469-.039062-12.539063 8.3125-4.347657 8.3125zm0 0"/><path d="m79.390625 386.4375c-4.28125 0-13.011719 6.445312-4.851563 6.445312h100.71875c4.28125 0 13.011719-6.445312 4.851563-6.445312zm0 0"/><path d="m73.035156 291.457031h67.148438c2.675781 0 13.789062-5.105469 7.855468-5.105469h-67.148437c-2.675781.070313-13.789063 5.105469-7.855469 5.105469zm0 0"/><path d="m172.085938 289.0625c-1.25 2.34375 1.074218 2.890625 3.113281 2.890625h25.179687c2.292969 0 6.867188-.839844 8.085938-3.140625 1.214844-2.300781-1.074219-2.886719-3.117188-2.886719h-25.179687c-2.289063 0-6.863281.871094-8.082031 3.136719zm0 0"/><path d="m74.386719 325.164062h83.933593c3.566407 0 13.203126-5.304687 5.152344-5.304687h-83.933594c-3.566406 0-13.203124 5.304687-5.152343 5.304687zm0 0"/><path d="m205.164062 318.828125h-8.394531c-3.070312-.265625-6.070312 1.019531-7.996093 3.421875-1.328126 2.445312 1.132812 3.945312 3.355468 3.945312h8.394532c3.070312.265626 6.070312-1.019531 8-3.421874 1.367187-2.453126-1.09375-3.945313-3.359376-3.945313zm0 0"/><path d="m205.15625 352.367188h-83.933594c-4.917968 0-12.777344 7.4375-4.582031 7.4375h83.933594c4.917969 0 12.773437-7.4375 4.582031-7.4375zm0 0"/><path d="m72.984375 358.425781h8.394531c3.023438.019531 5.996094-.789062 8.59375-2.339843 1.78125-1.167969 1.839844-2.375-.636718-2.375h-8.394532c-3.027344-.007813-6 .8125-8.59375 2.375-1.78125 1.132812-1.839844 2.339843.636719 2.339843zm0 0"/><path d="m336.582031 125.382812h75.539063c6.839844 0 9.425781-8.628906 1.160156-8.628906h-75.542969c-6.839843 0-9.425781 8.628906-1.15625 8.628906zm0 0"/><path d="m341.113281 152.199219c-2.519531 0-13.730469 4.886719-7.90625 4.886719h75.539063c2.519531 0 13.734375-4.886719 7.90625-4.886719zm0 0"/><path d="m416.644531 286.46875h-125.898437c-2.578125 0-13.75 4.9375-7.890625 4.9375h125.902343c2.574219 0 13.746094-4.9375 7.886719-4.9375zm0 0"/><path d="m410.183594 191.230469c4.019531 0 13.09375-6.027344 4.96875-6.027344h-75.542969c-4.019531 0-13.09375 6.027344-4.96875 6.027344zm0 0"/><path d="m336.679688 226.457031h75.542968c7.101563 0 9.234375-9.339843.957032-9.339843h-75.542969c-7.097657 0-9.199219 9.347656-.957031 9.339843zm0 0"/><path d="m318.191406 259.503906h50.359375c5.464844 0 12.589844-8.277344 4.363281-8.277344h-50.359374c-5.464844 0-12.554688 8.277344-4.363282 8.277344zm0 0"/><path d="m415.085938 252.007812h-8.394532c-3.039062-.203124-6.003906 1.007813-8.03125 3.28125-1.421875 2.390626 1.207032 3.449219 3.261719 3.449219h8.394531c3.039063.203125 6.003906-1.007812 8.035156-3.28125 1.417969-2.402343-1.210937-3.449219-3.265624-3.449219zm0 0"/></g></svg>