<svg height="512" viewBox="0 0 40 60" width="512" xmlns="http://www.w3.org/2000/svg"><g id="002---List-View" fill="none"><path id="Path" d="m5.3 52.473c-.22370471.0007216-.42066641-.1472391-.48227666-.3622937-.06161025-.2150547.0271255-.4448638.21727666-.5627063l8.346-5.2-10.319 5.959c-.23497088.1292146-.53003872.050062-.66879247-.179405-.13875376-.2294671-.07178369-.5275361.15179247-.675595l15.642-9.911-16.907 9.759c-.23637787.1427656-.54373437.0668778-.68649997-.1695-.1427656-.2363779-.06687788-.5437344.16949997-.6865l16.787-10.605-16.271 9.393c-.23415271.123715-.52415635.0433988-.66130449-.1831476-.13714814-.2265465-.0738659-.5207372.14430449-.6708524l17.826-11.315-17.309 9.993c-.23628449.1306359-.5336041.0500916-.67163931-.181948s-.06692381-.5317553.16063931-.677052l7.441-4.578-6.931 4c-.23415271.123715-.52415635.0433988-.66130449-.1831476-.13714814-.2265465-.0738659-.5207372.14430449-.6708524l17.662-11.2-17.145 9.9c-.23551248.13196-.53324972.0531389-.67262044-.1780652-.13937073-.2312042-.07004227-.5312938.15662044-.6779348l16.444-10.381-15.928 9.2c-.23560872.1297647-.5316571.04988-.67000668-.1807924-.13834958-.2306723-.06941665-.5294607.15600668-.6762076l13.681-8.549-13.168 7.6c-.23486629.1223119-.52436539.0402957-.66017777-.1870309-.13581237-.2273266-.07083392-.5211193.14817777-.6699691l10.152-6.284-9.64 5.565c-.23508655.127347-.52875831.0472199-.66659082-.1818764-.13783251-.2290964-.071048-.5260868.15159082-.6741236l15.138-9.509-14.624 8.442c-.23571786.1278172-.53029699.0469384-.66770199-.1833224-.13740501-.2302607-.06871185-.5279174.15570199-.6746776l9.626-5.95-9.114 5.261c-.23448097.1270728-.52742279.0477401-.66573665-.1802909-.13831385-.2280309-.07330579-.5244809.14773665-.6737091l18.742-11.945-18.224 10.523c-.23486417.1312813-.53150396.0531604-.67124116-.1767732-.13973719-.2299337-.07245767-.5292187.15224116-.6772268l18.472-11.81-17.954 10.364c-.23693016.1419372-.5440628.0649301-.68599997-.172-.14193717-.2369302-.06493017-.5440628.17199997-.686l9.877-6.165-9.363 5.4c-.23497088.1292146-.53003872.050062-.66879247-.179405-.13875376-.2294671-.07178369-.5275361.15179247-.675595l10.542-6.667-10.03 5.791c-.2372063.1413849-.54411508.0637063-.68549997-.1735s-.06370631-.5441151.17349997-.6855l.41-.253c-.24073314.0797075-.50301473-.0334204-.61025247-.2632155-.10723773-.2297952-.02546875-.50348.19025247-.6367845l10.581-6.894-10.055 5.811c-.23252618.1307666-.52675914.0559509-.6685809-.1700024-.14182177-.2259533-.08127436-.5234503.1375809-.6759976l10.9-7.4-10.37 5.985c-.23296731.1327691-.52919188.0581284-.67142871-.1691822-.14223683-.2273105-.07984054-.5263539.14142871-.6778178l7.492-5.083-6.962 4.02c-.23424781.1308833-.53004345.0535271-.67022619-.1752769-.14018273-.228804-.07476503-.527467.14822619-.6767231l.779-.506-.257.148c-.22885881.1292299-.51870095.0592157-.66333262-.1602346-.14463167-.2194502-.09467421-.513414.11433262-.6727654l6.242-4.67-5.694 3.288c-.23174266.1353654-.52902013.0636298-.67352428-.1625272-.14450415-.2261571-.08468698-.5260601.13552428-.6794728l1.671-1.18-1.133.654c-.22575858.1294404-.51305935.0640705-.66058915-.1503047-.14752981-.2143751-.10595656-.5060712.09558915-.6706953l2.646-2.146-2.082 1.2c-.21712299.1206668-.48990849.063641-.64051049-.1338986s-.13334908-.4756874.04051049-.6531014l1.671-1.668-1.068.616c-.19691002.1135988-.44566814.0800668-.60547089-.081616-.15980274-.1616828-.19042308-.410816-.07452911-.606384l.645-1.09c-.2052253-.03901199-.36456692-.20149896-.39956034-.40744754-.03499343-.20594858.06173778-.41194576.24256034-.51655246l1.181-.679c.19691002-.11359877.44566815-.08006679.60547089.08161598.15980274.16168278.19042308.41081607.07452911.60638402l-.52.878 2.714-1.566c.21712299-.12066677.48990849-.06364101.64051049.13389861s.13334908.47568743-.04051049.65310139l-1.671 1.668 4.257-2.455c.22636568-.1357025.51922281-.07209534.66890122.14528213.1496784.21737747.10462637.51365688-.10290122.67671787l-2.645 2.145 5.139-2.967c.2310609-.12980827.523268-.05677568.6660866.16647793.1428185.2232536.086628.51916126-.1280866.67452207l-1.672 1.177 3.505-2.024c.2290632-.13219788.5214568-.06314799.6671806.15755725.1457237.22070523.094369.51671981-.1171806.67544275l-6.241 4.673 9.53-5.5c.2355494-.1441463.5433537-.07004942.6875.16550001.1441463.23554944.0700494.54335366-.1655.68749999l-.774.5 2.348-1.356c.2333681-.13826705.5344194-.06524166.6785003.16458243.144081.22982408.078635.53261344-.1475003.68241757l-7.5 5.088 10.28-5.94c.2325262-.13076655.5267591-.05595091.6685809.17000241s.0812744.52345026-.1375809.67599759l-10.89 7.4 14.277-8.247c.2342478-.13088329.5300435-.05352709.6702262.17527691.1401827.22880401.074765.52746697-.1482262.67672309l-10.586 6.9 13.424-7.753c.2372063-.14166102.5443389-.06420628.686.17300001.141661.23720629.0642063.54433895-.173.68599999l-.037.022 1.527-.882c.2363779-.14304173.5439582-.06737785.687.16900001.1430417.23637787.0673779.54395823-.169.68699999l-10.546 6.669 13.034-7.525c.2361735-.13618181.537908-.05806811.6783318.17560806.1404239.23367616.0677709.53677186-.1633318.68139194l-9.884 6.17 11.944-6.9c.2354116-.13795832.5379577-.06170795.6798637.17134529.1419059.23305325.070765.53684142-.1598637.68265471l-18.468 11.811 18.807-10.858c.234481-.12707284.5274228-.04774006.6657366.18029089.1383139.22803094.0733058.52448091-.1477366.67370911l-18.739 11.946 18.222-10.523c.2357179-.1278172.530297-.0469384.667702.1833224.137405.2302607.0687118.5279174-.155702.6746776l-9.617 5.945 9.105-5.257c.2361735-.1361818.537908-.0580681.6783318.1756081.1404239.2336761.0677709.5367718-.1633318.6813919l-15.137 9.509 14.623-8.443c.2357179-.1278172.530297-.0469384.667702.1833224.137405.2302607.0687118.5279174-.155702.6746776l-10.163 6.29 9.652-5.572c.2356087-.1297647.5316571-.04988.6700067.1807924.1383496.2306723.0694166.5294607-.1560067.6762076l-13.674 8.546 13.16-7.6c.2355125-.13196.5332497-.0531389.6726204.1780652.1393708.2312042.0700423.5312938-.1566204.6779348l-16.45 10.383 15.935-9.2c.2349709-.1292146.5300387-.050062.6687925.179405.1387537.2294671.0717837.5275361-.1517925.675595l-17.658 11.2 17.142-9.9c.2362845-.1306359.5336041-.0500916.6716393.181948s.0669238.5317553-.1606393.677052l-7.452 4.585 6.942-4.008c.2363779-.1427656.5437344-.0668778.6865.1695.1427656.2363779.0668779.5437344-.1695.6865l-17.822 11.314 17.306-9.991c.2363779-.1427656.5437344-.0668779.6865.1695s.0668779.5437344-.1695.6865l-16.786 10.607 16.269-9.393c.2349709-.1292146.5300387-.050062.6687925.179405.1387537.2294671.0717837.5275361-.1517925.675595l-15.645 9.918 15.129-8.734c.2356087-.1297647.5316571-.04988.6700067.1807924.1383496.2306723.0694166.5294607-.1560067.6762076l-8.355 5.2 7.841-4.523c.2343611-.1288923.5286543-.0505227.6678755.1778537.1392213.2283764.0740613.5258734-.1478755.6751463l-12.3 7.889 11.78-6.8c.2347034-.1364868.5354374-.0607325.6774741.1706544.1420368.2313868.073465.5338394-.1544741.6813456l-11.191 7.28 10.669-6.16c.233204-.1287421.5263939-.0520483.6666872.1743946.1402933.226443.0784231.5231151-.1406872.6746054l-9.719 6.426 9.194-5.308c.2358256-.1438702.5436298-.0693256.6875.1665s.0693256.5436298-.1665.6875l-3.472 2.231 2.952-1.7c.234721-.145527.5429729-.073221.6885.1615.145527.234721.073221.542973-.1615.6885l-4.859 3.216 4.332-2.5c.2336556-.130691.5287926-.0541466.6694787.1736308.140686.2277774.0769932.5259521-.1444787.6763692l-1.765 1.16 1.241-.715c.2330829-.1306613.5277074-.0549657.6689423.1718661.1412349.2268319.0791592.5246238-.1409423.6761339l-1.038.693.51-.3c.2305507-.1302945.5227069-.0582293.6662193.1643342.1435123.2225634.0886.5184238-.1252193.6746658l-2.929 2.095 2.389-1.379c.2248726-.1315945.5131068-.0684479.6623629.1451111.149256.213559.1094985.5059386-.0913629.6718889l-3.35 2.8 2.78-1.6c.2268147-.12995.5154475-.0632557.6622581.1530278.1468106.2162836.1022433.50915-.1022581.6719722l-.415.327c.1774021-.0363997.3607491.0245889.481.16.1570813.1788609.1662846.4436651.022.633l-1 1.3.351-.2c.1549945-.0985297.351531-.1041539.5119064-.0146489.1603754.0895049.2587712.2597296.2562855.4433739s-.1054527.3511436-.2681919.436275l-2.517 1.45c-.2063079.1194052-.468219.0765693-.6257371-.1023402-.1575181-.1789094-.1668365-.4441367-.0222629-.6336598l1-1.3-3.537 2.036c-.2266506.1274915-.5131906.0599635-.6590607-.1553189-.1458701-.2152823-.1023667-.5064398.1000607-.6696811l.286-.225-1.821 1.05c-.2244518.1286386-.5099659.0648202-.6582866-.1471407-.1483207-.211961-.1104625-.5020607.0872866-.6688593l3.35-2.8-6.26 3.616c-.2305507.1302945-.5227069.0582293-.6662193-.1643342-.1435123-.2225634-.0886-.5184238.1252193-.6746658l2.932-2.1-5.087 2.939c-.2330829.1306613-.5277074.0549657-.6689423-.1718661-.1412349-.2268319-.0791592-.5246238.1409423-.6761339l1.028-.685-2.661 1.533c-.2336556.130691-.5287926.0541466-.6694787-.1736308-.140686-.2277774-.0769932-.5259521.1444787-.6763692l1.764-1.15-3.48 2c-.233204.1287421-.5263939.0520483-.6666872-.1743946-.1402933-.226443-.0784231-.5231151.1406872-.6746054l4.87-3.228-7.062 4.077c-.2347713.1336383-.5332399.0566316-.6740509-.1739091-.1408109-.2305408-.0730402-.5312411.1530509-.6790909l3.464-2.227-5.335 3.08c-.2329061.1254293-.5232086.0477402-.6623373-.1772508s-.0789338-.5194187.1373373-.6717492l9.715-6.424-12.6 7.274c-.2337734.1287456-.5274505.051198-.667188-.1761759-.1397374-.2273739-.07627-.5244122.144188-.6748241l11.2-7.289-14.1 8.14c-.23402298.1252853-.52515789.0458598-.66313509-.1809119-.13797721-.2267718-.07469786-.5218373.14413509-.6720881l12.3-7.891-15.147 8.748c-.07591137.0442382-.16213954.0676923-.25.068z" fill="#2885ee"/><path id="Path" d="m2.834 9.5c-.21223688.0000468-.40137795-.13390063-.47179103-.33411675-.07041309-.20021612-.00675375-.42306976.15879103-.55588325l4.873-3.931-6.114 3.529c-.22502404.12983267-.51198925.06570465-.6603401-.14756599s-.10865701-.50462239.0913401-.67043401l3.599-2.99-3.031 1.75c-.22011911.12110787-.49592482.06006935-.64438682-.14260915s-.1234717-.4840501.05838682-.65739085l1.7-1.535-1.11.64c-.21243698.12281516-.48260196.07332062-.63770361-.11682804s-.14929608-.46474858.01370361-.64817196l.873-.982c-.18920868-.05949473-.32536255-.2252044-.34702796-.42235957-.0216654-.19715516.07525421-.3884773.24702796-.48764043l1.929-1.123c.21243698-.12281516.48260196-.07332062.63770361.11682804s.14929608.46474858-.01370361.64817196l-.531.6 2.497-1.44c.22011911-.12110787.49592482-.06006934.64438682.14260915.148462.2026785.1234717.4840501-.05838682.65739085l-1.695 1.536 4.051-2.336c.22459856-.12700926.5089574-.06225633.65641904.14947682.14746165.21173315.10959197.50090228-.08741904.66752318l-3.6 2.993 6.6-3.81c.2259042-.12776206.5120042-.06144377.6586593.15267798.1466552.21412174.1051039.50485322-.0956593.66932202l-4.873 3.929 8.234-4.751c.2321092-.12908381.5246372-.05417632.6661393.17057796s.0825963.52091953-.1341393.67442204l-.874.6 2.501-1.445c.2314518-.1313128.5252013-.05833565.6682918.16602591.1430904.22436156.0853808.52148787-.1312918.67597409l-2.092 1.466 4-2.311c.22978-.13495719.525025-.06598931.6712375.15679801s.0920063.52109566-.1232375.67820199l-3.709 2.749 6.208-3.581c.2312043-.13568612.5282776-.06488787.6734329.16049201.1451554.22537988.0867349.525133-.1324329.67950799l-2.793 2 4.915-2.84c.2295527-.13149208.521805-.0614183.6667704.15987257.1449654.22129086.0924688.51720614-.1197704.67512743l-3.583 2.64 6.022-3.475c.2304184-.13223644.5240189-.06118928.6684864.16176419.1444674.22295348.0893536.51995759-.1254864.67623581l-3.19 2.314 5.461-3.152c.2266681-.13175582.5166136-.0660514.6643416.15054615.1477279.21659755.1030619.51052002-.1023416.67345385l-4.739 3.764 7.818-4.513c.2302873-.13434275.5254749-.06436632.6709518.15905409.1454768.22342042.0900639.52168518-.1259518.67794591l-3.229 2.356 4.288-2.476c.2265186-.13366606.5178659-.06898822.6665473.14797061s.103858.51201368-.1025473.67502939l-3.828 3.075 4.108-2.372c.2287843-.1364419.524367-.06956102.6721284.15208105s.0958119.52021113-.1181284.67891895l-1.214.928.795-.459c.2262036-.12844093.5131028-.06198425.6597948.15283334.1466919.21481759.1041677.50622684-.0977948.67016666l-.407.327c.203292-.04295196.4119616.04429902.5241742.21917285.1122125.17487384.1045795.40092134-.0191742.56782715l-.875 1.183.233-.135c.23893-.13584515.5427102-.05337078.6801373.18465285.137427.23802363.0569695.54234426-.1801373.68134715l-2.314 1.331c-.2053537.12024168-.4669981.07909324-.6255312-.09837638-.158533-.17746963-.1700226-.44208067-.0274688-.63262362l.875-1.182-3.317 1.92c-.2262036.12844093-.5131028.06198425-.6597948-.15283334-.1466919-.21481759-.1041677-.50622684.0977948-.67016666l.279-.224-1.818 1.049c-.2280542.12904158-.517047.0601323-.6623353-.15793143-.1452882-.21806373-.0975826-.5113034.1093353-.67206857l1.214-.928-3.049 1.76c-.2265186.13366606-.5178659.06898822-.6665473-.14797061s-.103858-.51201368.1025473-.67502939l3.827-3.075-6.755 3.9c-.2302873.13434275-.5254749.06436632-.6709518-.15905409-.1454768-.22342042-.0900639-.52168518.1259518-.67794591l3.229-2.356-5.536 3.196c-.2266681.13175582-.5166136.0660514-.6643416-.15054615-.1477279-.21659755-.1030619-.51052002.1023416-.67345385l4.736-3.768-7.958 4.6c-.2306768.13612394-.5276494.06629287-.6734904-.15836663s-.0887428-.52434083.1294904-.67963337l3.189-2.313-5.461 3.148c-.2293391.12852278-.5190351.05749218-.6629121-.1625395s-.0927858-.51390037.1169121-.6724605l3.584-2.641-6.025 3.478c-.2312043.13568612-.5282776.06488787-.6734329-.16049201-.1451554-.22537988-.0867349-.525133.1324329-.67950799l2.792-2-4.919 2.84c-.22978.13495719-.525025.06598931-.6712375-.15679801-.14621253-.22278732-.09200629-.52109566.1232375-.67820199l3.711-2.749-6.208 3.589c-.2314518.13131281-.52520132.05833565-.66829177-.16602591s-.08538078-.52148787.13129177-.67597409l2.087-1.468-4 2.312c-.2328603.1351428-.53091891.06163618-.67424226-.16628028-.14332335-.22791645-.08044309-.52839646.14224226-.67971972l.876-.6-2.51 1.448c-.07591137.04423822-.16213954.06769228-.25.068z" fill="#ced2dc"/><path id="Path" d="m4.736 59.471c-.21959527-.0001598-.41338469-.1435812-.47770624-.3535451-.06432155-.209964.01588125-.4373217.19770624-.5604549l.186-.126-1.352.78c-.22776864.1327124-.51944616.0657934-.66658476-.1529333-.14713861-.2187267-.0991876-.5141157.10958476-.6750667l4.2-3.262-5.1 2.947c-.22681472.12995-.51544746.0632557-.66225808-.1530278-.14681062-.2162836-.10224336-.50915.10225808-.6719722l2.944-2.319-2.9 1.676c-.227731.1281621-.51574432.059345-.66093914-.1579231-.14519482-.217268-.09859462-.509699.10693914-.6710769l.68-.524-.159.092c-.21473594.1214179-.48593491.0680793-.63869517-.1256167s-.14142511-.4698579.02669517-.6503833l1.306-1.377-.694.4c-.17259046.0991343-.38754158.086463-.54728928-.0322625s-.23386496-.3208918-.18871072-.5147375l.3-1.259c-.10235367-.0412114-.18767883-.1159591-.242-.212-.13755323-.2386555-.05617205-.5436114.182-.682l.5-.289c.17264253-.0997776.38806504-.087437.54818397.0314029.16011893.11884.23431888.3214567.18881603.5155971l-.235 1 2.68-1.547c.21473594-.1214179.48593492-.0680793.63869517.1256167.15276026.193696.14142511.4698579-.02669517.6503833l-1.306 1.377 3.724-2.158c.22791241-.1308241.51820223-.0628918.66439759.1554793.14619535.2183711.09839715.512647-.10939759.6735207l-.682.523 2.348-1.354c.22665062-.1274915.5131906-.0599635.6590607.1553189.1458701.2152823.1023667.5064398-.1000607.6696811l-2.94 2.317 5.447-3.144c.2277686-.1327124.5194462-.0657934.6665848.1529333s.0991876.5141157-.1095848.6750667l-4.207 3.263 7.091-4.094c.2333681-.1382671.5344194-.0652417.6785003.1645824.144081.2298241.078635.5326135-.1475003.6824176l-.186.126 1.687-.974c.2304184-.1322364.5240189-.0611893.6684864.1617642.1444674.2229535.0893536.5199576-.1254864.6762358l-3.153 2.287 5.418-3.128c.2290632-.1321979.5214568-.063148.6671806.1575572.1457237.2207053.094369.5167199-.1171806.6754428l-3.948 2.961 6.576-3.8c.2313261-.1333882.5266402-.061466.670727.1633522.1440867.2248181.0860887.5231794-.131727.6776478l-2.408 1.7 4.412-2.547c.2288588-.1292299.518701-.0592157.6633326.1602346.1446317.2194502.0946742.513414-.1143326.6727654l-3.876 2.9 6.465-3.733c.2328603-.1351428.5309189-.0616362.6742423.1662803.1433233.2279164.080443.5283964-.1422423.6797197l-.726.495 2.327-1.343c.2309306-.1317312.5245674-.0597083.6683337.1639283.1437664.2236366.0873821.520673-.1283337.6760717l-2.55 1.812 4.6-2.654c.2324067-.1328499.5282158-.0590851.6710333.1673329s.0819688.5251514-.1380333.6776671l-1.233.849 2.938-1.7c.2329673-.1327691.5291919-.0581284.6714287.1691822.1422368.2273105.0798406.5263539-.1414287.6778178l-.084.057 1.39-.8c.2299138-.1328235.5235501-.0627731.6687427.1595365s.0912979.5193359-.1227427.6764635l-3.37 2.476 2.819-1.627c.220007-.1195261.4945025-.0578939.6422936.1442135.147791.2021073.1233056.4823693-.0572936.6557865l-3.348 3.023 2.764-1.595c.2248836-.1275609.509928-.0626394.65739.1497267.1474621.2123662.1087026.5021295-.08939.6682733l-.394.326c.1628787-.0085465.3199229.0617884.422.189.1536435.1947279.1413005.4726586-.029.653l-.733.773c.160102.0856382.2611969.251338.2641049.4328816s-.0928279.3503963-.2501049.4411184l-1.924 1.111c-.2148894.1243392-.4884665.0721685-.6425166-.1225268-.1540502-.1946953-.1419081-.4729375.0285166-.6534732l.162-.171-1.777 1.027c-.2247421.1254395-.5079955.0597743-.6546194-.1517571-.1466238-.2115314-.1087109-.4998143.0876194-.6662429l.152-.121-1.631.941c-.220007.1195261-.4945025.0578939-.6422936-.1442135-.147791-.2021073-.1233056-.4823693.0572936-.6557865l3.347-3.023-6.631 3.821c-.2299138.1328235-.5235501.0627731-.6687427-.1595365s-.0912979-.5193359.1227427-.6764635l3.367-2.47-5.728 3.306c-.2325262.1307666-.5267591.0559509-.6685809-.1700024s-.0812744-.5234503.1375809-.6759976l.075-.051-1.556.9c-.23171.1276221-.5227312.0526794-.6639792-.1709853s-.08384-.5186462.1309792-.6730147l1.23-.848-2.931 1.689c-.2309306.1317312-.5245674.0597083-.6683337-.1639283-.1437664-.2236366-.0873821-.520673.1283337-.6760717l2.55-1.812-4.593 2.652c-.2324067.1328499-.5282158.0590851-.6710333-.1673329s-.0819688-.5251514.1380333-.6776671l.728-.5-2.325 1.345c-.2288588.1292299-.518701.0592157-.6633326-.1602346-.1446317-.2194502-.0946742-.513414.1143326-.6727654l3.878-2.9-6.463 3.733c-.2306836.128482-.5215078.0554404-.6641078-.1667933s-.0878131-.5170425.1251078-.6732067l2.407-1.7-4.407 2.54c-.2290632.1321979-.5214568.063148-.6671806-.1575572-.1457237-.2207053-.094369-.5167199.1171806-.6754428l3.947-2.961-6.571 3.794c-.23041837.1322364-.52401892.0611893-.66848638-.1617642-.14446747-.2229535-.0893536-.5199576.12548638-.6762358l3.156-2.286-5.414 3.124c-.07561844.0452887-.16186523.0697828-.25.071z" fill="#ced2dc"/><g fill="#262626"><path id="Shape" d="m4.356 59.442c5.4.371 10.959 0 16.37 0 4.847 0 9.908.42 14.74 0 4.927-.428 4.267-4.585 4.261-8.471 0-.008.008-.014.008-.022v-42c0-.013-.008-.021-.008-.034 0-3.787.824-8.016-4.082-8.352-5.4-.37-10.959 0-16.37 0-4.847 0-9.908-.421-14.74 0-4.926.429-4.268 4.579-4.262 8.465 0 .008-.008.014-.008.023v42c0 .012.007.02.008.032 0 3.787-.824 8.022 4.083 8.359zm33.909-22.83h-36.53v-13.089h36.53zm-36.53.776h36.53v4.512c-.1451595 2.4311685-.1451595 4.8688315 0 7.3.0481385.4215794.0578451.8466627.029 1.27l-.06-.007c-6.707-.735-13.926 0-20.667 0h-15.832zm36.545-27.934c.0440571.6404443.0390425 1.2833209-.015 1.923v11.1h-36.53v-6.39c.11350104-2.1271537.11350104-4.2588463 0-6.386-.00811416-.0773928-.01178685-.15518698-.011-.233.448.012.936.078 1.251.078h29.455c1.603 0 4.204-.5 5.85-.092zm-4.38 49.104h-26.673c-.96621565.1314603-1.94578435.1314603-2.912 0-3.17-1.08-2.694-4.448-2.6-7.012h36.559c.013 3.641.083 7.012-4.374 7.012zm-27.8-57.121h26.672c.9662157-.13146031 1.9457843-.13146031 2.912 0 3.171 1.081 2.7 4.452 2.6 7.017h-36.559c-.013-3.641-.084-7.017 4.375-7.017z"/><path id="Path" d="m23.929 5.506h1c.3 0 .765-.233.8-.568.043-.373-.392-.444-.661-.444h-1c-.3 0-.765.233-.8.568-.043.373.392.444.661.444z"/><path id="Path" d="m14.735 5.472h5c.3 0 .829-.087.949-.421.108-.3-.1-.523-.419-.523h-5c-.3 0-.829.087-.949.421-.108.3.095.523.419.523z"/><path id="Path" d="m22.47 54.706h-4c-.3620472-.0210551-.7212108.0753999-1.024.275-.17.154-.249.313.084.313h4c.3620472.0210551.7212108-.0753999 1.024-.275.17-.154.246-.313-.084-.313z"/><path id="Path" d="m30.685 13.761c-.246-.246-1.552.3-1.37.478l1.932 1.932-1.9 1.9c-.223.223.2.2.331.2.3508628-.0100717.6903038-.1269399.973-.335l2-2c.062-.063.1-.1.033-.17z"/><path id="Path" d="m6.3 13.651c-.465 0-1.563.7-.6.7h16c.465 0 1.563-.7.6-.7z"/><path id="Path" d="m14.466 17.69h-8c-.326 0-1.645.62-.932.62h8c.326 0 1.645-.62.932-.62z"/><path id="Path" d="m31.187 30.138c-.5866667.588-1.1743333 1.1756667-1.763 1.763-.582.582.835.515 1.152.2l2-2c.1-.1.231-.243.1-.375l-2-2c-.337-.337-1.7.2-1.35.552.62.6193333 1.2403333 1.2393333 1.861 1.86z"/><path id="Path" d="m5.737 28.481h16c.636 0 1.5-.962.526-.962h-16c-.636 0-1.502.962-.526.962z"/><path id="Path" d="m14.264 31.521h-8c-.634 0-1.5.958-.528.958h8c.634 0 1.504-.958.528-.958z"/><path id="Path" d="m31.14 44.108-1.732 1.732c-.617.617.793.711 1.184.32l2-2c.111-.111.214-.321.077-.459l-2-2c-.4-.4-1.778.157-1.338.6z"/><path id="Path" d="m21.732 42.462c.611 0 1.513-.924.536-.924h-16c-.611 0-1.513.924-.536.924z"/><path id="Path" d="m6.3 45.647c-.47 0-1.561.706-.594.706h8c.47 0 1.561-.706.594-.706z"/></g></g></svg>