<svg height="503pt" viewBox="-19 0 503 503.49009" width="503pt" xmlns="http://www.w3.org/2000/svg"><path d="m238.179688 59.203125c-1.835938 0-3.46875-1.171875-4.046876-2.914063-.582031-1.742187.019532-3.664062 1.488282-4.765624l1.996094-1.507813-12.570313 7.242187c-1.945313 1.117188-4.421875.539063-5.667969-1.324218-1.25-1.863282-.839844-4.375.933594-5.75l11.246094-8.652344-15.71875 9.082031c-1.839844 1.046875-4.167969.589844-5.476563-1.078125-1.304687-1.664062-1.1875-4.039062.269531-5.570312l20.140626-20.890625-17.519532 10.113281c-1.710937.988281-3.875.671875-5.230468-.761719-1.359376-1.433593-1.558594-3.609375-.476563-5.261719l6.917969-10.601562c-2.046875.40625-4.085938-.726562-4.820313-2.679688-.738281-1.949218.046875-4.148437 1.851563-5.195312l13.882812-8.019531c1.710938-.988281 3.875-.6757815 5.234375.757812 1.355469 1.433594 1.554688 3.609375.476563 5.265625l-6.640625 10.179688 28.28125-16.296875c1.839843-1.0625 4.179687-.6132815 5.488281 1.058593 1.3125 1.671876 1.195312 4.054688-.277344 5.585938l-20.152344 20.863281 45.019532-25.980469c1.945312-1.09375 4.402344-.507812 5.640625 1.347657 1.238281 1.851562.839843 4.347656-.914063 5.726562l-11.210937 8.640625 15.230469-8.789062c1.945312-1.101563 4.414062-.511719 5.652343 1.347656 1.242188 1.863281.832031 4.363281-.933593 5.738281l-2.105469 1.601563c1.859375-.84375 4.058593-.253906 5.242187 1.410156 1.183594 1.667969 1.019532 3.9375-.386718 5.417969l-11.195313 11.664062 5.972656-3.414062c2.023438-1.058594 4.527344-.332031 5.671875 1.648437 1.144532 1.976563.523438 4.507813-1.40625 5.734375l-32 18.421875c-1.839844 1.0625-4.179687.613282-5.492187-1.058594-1.308594-1.671874-1.191407-4.054687.277343-5.585937l11.195313-11.65625-31.707031 18.300781c-.652344.394532-1.398438.605469-2.160156.605469zm0 0" fill="#a9b0bb"/><path d="m244.253906 95.128906c-1.757812.007813-3.335937-1.066406-3.980468-2.703125-.644532-1.636719-.21875-3.5 1.070312-4.695312l7.023438-6.507813-18.039063 10.410156c-1.859375 1.070313-4.230469.59375-5.527344-1.117187-1.300781-1.710937-1.125-4.121094.410157-5.625l9.273437-9.097656-4.15625 2.390625c-1.464844.84375-3.292969.738281-4.65625-.265625-1.363281-1.003907-2.003906-2.71875-1.632813-4.367188l2.628907-11.667969c-1.535157-.585937-2.597657-2.007812-2.726563-3.648437s.695313-3.207031 2.121094-4.03125l4.265625-2.480469c1.46875-.84375 3.296875-.742187 4.65625.261719 1.363281 1.003906 2.003906 2.71875 1.632813 4.371094l-2.105469 9.574219 24.839843-14.355469c1.859376-1.054688 4.210938-.574219 5.507813 1.128906 1.292969 1.699219 1.128906 4.097656-.386719 5.605469l-9.292968 9.121094 21.597656-12.457032c1.878906-1.09375 4.285156-.59375 5.574218 1.15625 1.292969 1.753906 1.058594 4.195313-.539062 5.671875l-7.007812 6.507813 2.054687-1.183594c1.761719-1.019531 3.996094-.65625 5.339844.871094 1.347656 1.527344 1.425781 3.789062.191406 5.410156l-3.269531 4.265625c1.917968.027344 3.578125 1.332031 4.0625 3.183594.488281 1.855469-.324219 3.804687-1.980469 4.769531l-15.257813 8.8125c-1.757812 1.011719-3.984374.640625-5.324218-.882812-1.339844-1.523438-1.421875-3.78125-.195313-5.394532l2.328125-3.066406-16.363281 9.4375c-.644531.390625-1.382813.59375-2.136719.597656zm0 0" fill="#cad0d7"/><path d="m245.1875 502.253906c-1.875 0-3.53125-1.222656-4.078125-3.015625-.550781-1.792969.136719-3.730469 1.6875-4.78125l99.6875-67.21875-123.878906 71.484375c-2.011719 1.175782-4.589844.527344-5.800781-1.460937-1.210938-1.988281-.605469-4.582031 1.363281-5.828125l84.199219-54.117188-98.398438 56.808594c-2 1.113281-4.523438.453125-5.71875-1.496094-1.199219-1.953125-.640625-4.503906 1.261719-5.777344l115.304687-74.519531-130.226562 75.167969c-2.011719 1.109375-4.539063.425781-5.71875-1.542969-1.179688-1.964843-.59375-4.515625 1.332031-5.769531l56.992187-35.445312-64.988281 37.527343c-2.007812 1.179688-4.589843.527344-5.800781-1.460937-1.210938-1.988282-.605469-4.582032 1.363281-5.824219l137.710938-88.304687-149.921875 86.546874c-2 1.082032-4.5.40625-5.683594-1.539062-1.179688-1.945312-.625-4.476562 1.261719-5.75l135.132812-85.761719-145.390625 83.9375c-2.019531 1.210938-4.640625.550781-5.851562-1.46875-1.210938-2.023437-.554688-4.644531 1.46875-5.855469l90.210937-55.925781-95.707031 55.242188c-2.011719 1.148437-4.566406.488281-5.765625-1.492188s-.605469-4.554687 1.34375-5.800781l147.847656-93.492188-155.980469 90.042969c-2.019531 1.210938-4.640624.554688-5.851562-1.46875-1.210938-2.019531-.554688-4.640625 1.464844-5.851562l110.816406-68.832031-115.429688 66.664062c-2.007812 1.101562-4.523437.425781-5.707031-1.53125-1.1875-1.957031-.613281-4.5 1.292969-5.765625l156.835938-98.984375-162.9375 94.042969c-2.023438 1.210937-4.644532.550781-5.851563-1.476563-1.210937-2.023437-.550781-4.644531 1.476563-5.851562l98.132812-60.585938-100.925781 58.289063c-2.027344 1.203125-4.648438.53125-5.847657-1.496094-1.203124-2.03125-.53125-4.648437 1.496094-5.851563l16.34375-9.90625-16.710937 9.644532c-2.015625 1.113281-4.550781.425781-5.730469-1.554688-1.179688-1.980468-.570312-4.539062 1.371094-5.777344l48.84375-29.808593-49.730469 28.707031c-2.011719 1.128906-4.550781.453125-5.742187-1.519531-1.1875-1.972657-.597657-4.53125 1.335937-5.785157l154.550781-97.210937-157.1875 90.753906c-2.015625 1.21875-4.640625.574219-5.859375-1.445312-1.222656-2.015625-.578125-4.640625 1.441407-5.859375l163.226562-103.261719-165.207031 95.417969c-2.007813 1.125-4.550781.453125-5.738281-1.519532-1.191407-1.972656-.597657-4.535156 1.335937-5.785156l144.375-90.675781-144.699219 83.542969c-2.015625 1.113281-4.554687.425781-5.730468-1.554688-1.179688-1.980468-.574219-4.535156 1.371093-5.777344l63.621094-39.039062-61.882813 35.730469c-2.027343 1.203125-4.644531.535156-5.847656-1.492188-1.207031-2.023437-.539062-4.644531 1.488282-5.847656l51.394531-31.488281-49.550781 28.613281c-2.019532 1.21875-4.640626.570313-5.859376-1.445313-1.21875-2.019531-.570312-4.640624 1.445313-5.859374l136.046875-85.828126-133.390625 77.019532c-2.011719 1.179687-4.589844.527344-5.800781-1.460938-1.210938-1.988281-.605469-4.582031 1.363281-5.824218l150.039063-96.101563-147.097657 84.921875c-2.019531 1.210938-4.640625.554688-5.851562-1.46875-1.210938-2.019531-.554688-4.640625 1.46875-5.851562l71.859375-44.679688-66.722656 38.558594c-1.300782.796875-2.925782.839844-4.265626.109375-1.339843-.726563-2.1875-2.113281-2.226562-3.636719s.734375-2.953125 2.035156-3.75l133.582032-86.324219-127.257813 73.472657c-2.011719 1.089843-4.523437.402343-5.699219-1.5625-1.171875-1.964844-.585937-4.507813 1.332032-5.757813l5.742187-3.535156c-2.039063.535156-4.164063-.496094-5-2.429688-.835937-1.933593-.140625-4.1875 1.644531-5.308593l81.460938-51.960938-72.78125 42.011719c-1.996094 1.097656-4.5.4375-5.695313-1.503907-1.191406-1.941406-.648437-4.476562 1.230469-5.757812l83.175781-54.085938-71.21875 41.113282c-2.007812 1.179687-4.589843.527344-5.800781-1.460938-1.210938-1.988281-.605469-4.582031 1.363281-5.824218l31.632813-20.191407-18.703125 10.796875c-1.984375 1.070313-4.460938.414063-5.652344-1.496094-1.191406-1.914062-.691406-4.425781 1.144531-5.734374l50.261719-33.664063-32.09375 18.527344c-1.9375 1.101562-4.398437.523437-5.644531-1.328125-1.246094-1.847656-.859375-4.347656.890625-5.730469l42.777343-33.398437c-1.507812-.105469-2.890624-.890626-3.753906-2.132813-1.179687-2.042969-.480468-4.652344 1.5625-5.828125l47.835938-27.613281c1.941406-1.125 4.421875-.554688 5.675781 1.304687s.855469 4.371094-.914063 5.75l-39.722656 31.003906 90.371094-52.207031c1.984375-1.101562 4.480469-.453125 5.683594 1.472657 1.203125 1.921874.6875 4.453124-1.171875 5.753906l-50.226563 33.671875 73.097656-42.203125c2.011719-1.226563 4.640626-.585938 5.867188 1.425781 1.222656 2.015625.582031 4.644531-1.429688 5.867187l-31.652343 20.199219 45.125-26.050781c2-1.117188 4.523437-.457031 5.71875 1.496094 1.195312 1.949218.636719 4.5-1.265625 5.773437l-83.257813 54.136719 100.128907-57.804688c2.011718-1.148437 4.566406-.488281 5.765624 1.492188 1.199219 1.980469.601563 4.554688-1.34375 5.800781l-81.367187 51.910157 94.890625-54.785157c2.011719-1.089843 4.527344-.398437 5.699219 1.566407 1.171875 1.964843.585937 4.503906-1.328125 5.757812l-.914063.570312 6.828125-3.933593c1.996094-1.085938 4.488282-.414063 5.675782 1.523437 1.183593 1.9375.640624 4.464844-1.230469 5.746094l-133.617188 86.347656 148.183594-85.5625c2.007813-1.105468 4.535156-.425781 5.714844 1.542969 1.183593 1.96875.59375 4.519531-1.328125 5.769531l-71.773438 44.585938 78.597656-45.371094c2-1.097656 4.511719-.429688 5.699219 1.519531s.632813 4.484375-1.261719 5.761719l-150.039062 96.125 161.773438-93.414062c2.003906-1.101563 4.523437-.425782 5.707031 1.53125 1.183593 1.957031.613281 4.503906-1.296875 5.765624l-136.0625 85.863282 143.863281-83.0625c2.023437-1.152344 4.59375-.472656 5.78125 1.527344 1.1875 2.003906.550781 4.585937-1.429687 5.808593l-51.429688 31.507813 55.210938-31.863282c2.007812-1.058593 4.492187-.359374 5.65625 1.589844 1.160156 1.949219.589843 4.46875-1.296876 5.730469l-63.675781 39.074219 67.199219-38.792969c2.015625-1.164063 4.589844-.496094 5.789062 1.5 1.199219 1.992187.578126 4.578125-1.394531 5.8125l-144.28125 90.617187 149.734375-86.453124c2.007813-1.101563 4.523438-.425782 5.707032 1.53125 1.183593 1.957031.613281 4.5-1.292969 5.765624l-163.285157 103.253907 169.078126-97.621094c2.015624-1.21875 4.640624-.570313 5.859374 1.445313 1.21875 2.015624.570313 4.640624-1.449218 5.859374l-154.589844 97.210938 158.335938-91.367188c2.019531-1.113281 4.554687-.425781 5.734374 1.554688 1.175782 1.976562.570313 4.535156-1.371093 5.777344l-48.726563 29.726562 49.605469-28.628906c2.015625-1.09375 4.539063-.398438 5.710937 1.578125 1.167969 1.972656.5625 4.523437-1.367187 5.761719l-16.300781 9.890625 15.695312-9.054688c2.015625-1.136719 4.566406-.457031 5.753906 1.527344 1.1875 1.988281.578126 4.558594-1.378906 5.792969l-98.132812 60.589844 98.433594-56.824219c2-1.070313 4.488281-.386719 5.664062 1.558593 1.171875 1.941407.617188 4.464844-1.261719 5.738282l-156.835937 98.984375 158.210937-91.304688c2.003907-1.074219 4.5-.382812 5.667969 1.570313 1.171875 1.953125.601562 4.480468-1.292969 5.742187l-110.789062 68.785157 109.554687-63.238282c2.015625-1.21875 4.636719-.570312 5.855469 1.445313s.570313 4.640625-1.445313 5.859375l-147.875 93.5 147.25-85.011719c2.011719-1.105469 4.539063-.425781 5.71875 1.542969 1.179688 1.96875.59375 4.519531-1.332031 5.773437l-90.289062 55.992188 86.960937-50.207031c2.011719-1.148438 4.570313-.488282 5.765625 1.492187 1.199219 1.980469.605469 4.554687-1.34375 5.800781l-135.082031 85.734375 132.0625-76.226562c2-1.101563 4.507812-.429688 5.699219 1.519531 1.1875 1.945312.628906 4.484375-1.261719 5.757812l-137.730469 88.296876 132.113281-76.273438c2.011719-1.105469 4.539063-.425781 5.71875 1.542969 1.179688 1.96875.589844 4.519531-1.332031 5.773437l-57.097656 35.503906 51.660156-29.824218c2.011719-1.226563 4.636719-.597656 5.867188 1.414062 1.230469 2.011719.597656 4.636719-1.410157 5.867188l-115.269531 74.503906 106.386719-61.441406c2-1.097656 4.511719-.429688 5.699219 1.519531s.628906 4.488281-1.261719 5.761719l-84.242188 54.144531 74.632813-43.085937c1.988281-1.132813 4.515625-.496094 5.730469 1.445312 1.210937 1.9375.679687 4.488281-1.207032 5.78125l-99.6875 67.242188 84.164063-48.585938c1.996094-1.1875 4.574219-.558594 5.800781 1.414062 1.226563 1.972657.652344 4.5625-1.296875 5.828126l-54.347656 36.308593 35.558594-20.519531c1.980469-1.085938 4.46875-.441406 5.667969 1.476562 1.199218 1.914063.695312 4.433594-1.144532 5.742188l-22.757812 15.445312c2.074218-.769531 4.390625.171876 5.339844 2.171876.945312 1.996093.210937 4.386718-1.695313 5.507812l-100.5 58.027344c-1.988281 1.148437-4.53125.519531-5.75-1.425782-1.222656-1.949218-.679687-4.515624 1.226563-5.804687l22.078124-14.964844-46.78125 27c-1.992187 1.132813-4.523437.488281-5.734374-1.460937-1.207032-1.945313-.660157-4.503906 1.238281-5.785156l54.390625-36.34375-76.925782 44.375c-.644531.398437-1.378906.617187-2.132812.636718zm0 0" fill="#9579da"/><path d="m243.199219 459.835938c-1.875-.003907-3.523438-1.230469-4.070313-3.019532-.546875-1.792968.136719-3.730468 1.6875-4.78125l62.082032-41.863281-79.660157 45.976563c-1.988281 1.070312-4.464843.410156-5.652343-1.511719-1.1875-1.917969-.671876-4.433594 1.171874-5.730469l70.707032-46.628906-84.402344 48.726562c-2.007812 1.175782-4.589844.527344-5.800781-1.460937-1.210938-1.988281-.605469-4.582031 1.363281-5.824219l58.511719-37.546875-68.640625 39.617187c-1.988282 1.070313-4.464844.410157-5.652344-1.511718-1.1875-1.917969-.671875-4.433594 1.171875-5.730469l109.054687-72.066406-121.742187 70.273437c-1.300781.796875-2.925781.84375-4.269531.117188-1.339844-.722656-2.191406-2.109375-2.234375-3.632813-.042969-1.523437.730469-2.957031 2.03125-3.753906l111.992187-73.125-122.027344 70.445313c-2.015624 1.132812-4.570312.457031-5.757812-1.527344-1.1875-1.988282-.574219-4.558594 1.378906-5.796875l30.832032-19.15625-34.824219 20.089843c-2.019531 1.214844-4.640625.570313-5.859375-1.449218-1.21875-2.015625-.570313-4.640625 1.445312-5.855469l71.167969-44.777344-75.800781 43.761719c-2 1.042969-4.464844.347656-5.628906-1.582031-1.164063-1.933594-.621094-4.4375 1.234374-5.714844l74.054688-46.550781-77.84375 44.980468c-2.007812 1.058594-4.492188.359376-5.652344-1.589843-1.164062-1.953125-.59375-4.46875 1.292969-5.730469l16.050781-9.890625-17.21875 9.941406c-2.011718 1.175781-4.59375.523438-5.804687-1.464843-1.210938-1.988282-.601563-4.578126 1.367187-5.824219l119.507813-76.800781-124.210938 71.679687c-2 1.117187-4.523437.457031-5.71875-1.496094-1.195312-1.949219-.636719-4.5 1.265625-5.773437l129.125-83.480469-132.265625 76.414063c-2 1.101562-4.511719.433593-5.699219-1.515626-1.1875-1.949218-.632812-4.488281 1.261719-5.761718l123.273438-79.480469-125.246094 72.253906c-2 1.097657-4.511719.429688-5.699219-1.519531s-.632812-4.488281 1.261719-5.761719l117.984375-75.996093-118.382812 68.351562c-2.015626 1.160156-4.589844.496094-5.789063-1.5-1.199219-1.992188-.578125-4.578125 1.394531-5.8125l55.191406-34.5-53.359374 30.804688c-2 1.097656-4.511719.429687-5.699219-1.519532-1.1875-1.949218-.632813-4.484375 1.261719-5.761718l95.746093-61.277344-93.382812 53.941406c-2.011719 1.222656-4.636719.582031-5.859375-1.433594s-.582032-4.640625 1.433594-5.863281l79.777343-50.859375-76.585937 44.210938c-2.015625 1.164062-4.589844.496093-5.789063-1.496094-1.199219-1.996094-.578125-4.582032 1.394531-5.816406l37.125-23.296876-32.476562 18.773438c-1.988281 1.101562-4.492188.445312-5.6875-1.488281-1.199219-1.929688-.671875-4.460938 1.199219-5.753907l98.800781-65.382812-91.503906 52.8125c-2.003906 1.238281-4.636719.617188-5.875-1.386719-1.238282-2.007812-.621094-4.636719 1.386718-5.875l74.238282-48.886719-65.03125 37.546876c-1.988282 1.082031-4.472656.425781-5.667969-1.496094s-.679687-4.441406 1.171875-5.742188l57.351562-38.144531-45.925781 26.515625c-1.964843 1.113281-4.457031.507812-5.6875-1.386719-1.230469-1.890625-.773437-4.417969 1.042969-5.757812l63.148438-45.910157-40.789063 23.542969c-1.949219 1.125-4.433594.546875-5.683594-1.324219-1.25-1.871093-.832031-4.390624.957031-5.757812l29.863282-22.835938c-1.441406-.667968-2.390625-2.085937-2.460938-3.675781-.074218-1.589843.746094-3.085937 2.121094-3.882812l42.335938-24.441407c1.949218-1.164062 4.472656-.59375 5.734374 1.300782 1.261719 1.890625.816407 4.4375-1.007812 5.792968l-18.707031 14.242188 53.496093-30.882812c1.964844-1.117188 4.457032-.511719 5.6875 1.382812 1.230469 1.894531.773438 4.417969-1.042968 5.757812l-63.140625 45.929688 92.613281-53.472656c1.992188-1.132813 4.523438-.488282 5.734375 1.460937 1.210937 1.945313.664063 4.5-1.238281 5.785157l-57.402344 38.179687 73.609375-42.496094c2-1.203125 4.597656-.566406 5.820313 1.417969 1.226562 1.988281.628906 4.589844-1.34375 5.84375l-74.160157 48.84375 87.328125-50.414062c2.003906-1.242188 4.632813-.625 5.875 1.375 1.242188 2.003906.625 4.636718-1.378906 5.875l-98.804688 65.367187 112.390626-64.851563c2.019531-1.21875 4.644531-.566406 5.859374 1.453126 1.214844 2.019531.5625 4.640624-1.457031 5.859374l-37.210937 23.347657 43.441406-25.082031c2.003906-1.121094 4.535156-.453126 5.730469 1.507812 1.191406 1.964844.617187 4.515625-1.300781 5.78125l-79.777344 50.859375 87.039062-50.246094c2.003906-1.121093 4.535156-.453125 5.726563 1.507813 1.195312 1.964844.621093 4.515625-1.296875 5.78125l-95.726563 61.269531 103.15625-59.582031c2.015625-1.160156 4.59375-.496094 5.789063 1.5 1.199218 1.992187.578125 4.578125-1.390625 5.8125l-55.203125 34.5 59.023437-34.082032c2.003907-1.140624 4.550781-.480468 5.753907 1.484376 1.199218 1.96875.621093 4.535156-1.308594 5.796874l-117.953125 75.945313 123.84375-71.5c2.003906-1.140625 4.550781-.484375 5.75 1.484375 1.203125 1.96875.625 4.53125-1.304688 5.792969l-123.289062 79.507812 128.449219-74.140625c2-1.113281 4.523437-.453125 5.722656 1.496094 1.195312 1.953125.636718 4.503906-1.265625 5.777344l-129.1875 83.507812 132.789062-76.683594c2.011719-1.226562 4.636719-.589843 5.863281 1.421876 1.230469 2.011718.59375 4.640624-1.417968 5.867187l-119.46875 76.800781 122.027344-70.460937c2.007812-1.058594 4.492187-.359375 5.65625 1.589843 1.160156 1.953126.59375 4.46875-1.296876 5.730469l-16.304687 10.027344 14.8125-8.53125c2.007813-1.089844 4.511719-.40625 5.6875 1.550781 1.175781 1.953125.609375 4.488282-1.292969 5.753906l-73.984375 46.503907 73.3125-42.324219c2.003907-1.101562 4.519531-.425781 5.707031 1.53125 1.183594 1.957031.609376 4.5-1.296874 5.765625l-71.132813 44.757813 69.382813-40.058594c2.007812-1.070313 4.503906-.378906 5.671874 1.574218 1.167969 1.953126.597657 4.476563-1.292968 5.742188l-30.960938 19.222656 28.042969-16.210937c1.992187-1.097657 4.5-.4375 5.691406 1.503906 1.191407 1.9375.652344 4.472656-1.230469 5.757813l-112.015624 73.15625 109.226562-63.054688c1.992188-1.113281 4.511719-.460938 5.710938 1.484375 1.203124 1.941406.660156 4.488281-1.230469 5.769531l-109.097657 72.089844 103.183594-59.5625c2-1.101562 4.511719-.429688 5.699219 1.519531 1.1875 1.945313.632813 4.484375-1.261719 5.757813l-58.359375 37.464844 51.804688-29.917969c1.988281-1.070313 4.464843-.410157 5.652343 1.511719 1.1875 1.917968.671876 4.429687-1.171874 5.730468l-70.828126 46.695313 60.972657-35.191407c1.984375-1.101562 4.484375-.453124 5.6875 1.472657 1.199219 1.925781.683593 4.453125-1.175781 5.753906l-62 41.8125 48.828124-28.15625c1.988282-1.117187 4.5-.472656 5.707032 1.464844 1.203125 1.933593.675781 4.476562-1.203125 5.769531l-28.015625 18.839844 12.800781-7.386719c1.933594-1.105469 4.386719-.535156 5.640625 1.304687 1.253906 1.839844.878906 4.332032-.851562 5.726563l-35.175782 27.910156c1.78125.285157 3.191406 1.65625 3.523438 3.429688.332031 1.777343-.488282 3.566406-2.046875 4.472656l-42.359375 24.433594c-1.9375 1.128906-4.421875.570312-5.683594-1.285157-1.261719-1.855468-.871094-4.371093.894531-5.757812l30.140625-23.890625-71.789062 41.4375c-1.992188 1.113281-4.503906.46875-5.710938-1.46875-1.203125-1.933594-.675781-4.476563 1.203125-5.769531l28.039063-18.832032-45.445313 26.25c-.648437.375-1.386719.574219-2.132812.578126zm0 0" fill="#e4e8eb"/><path d="m38.003906 177.511719c-1.734375-.003907-3.292968-1.058594-3.945312-2.664063-.648438-1.605468-.265625-3.449218.976562-4.660156l.851563-.851562-7.328125 4.222656c-1.914063 1.09375-4.34375.550781-5.609375-1.253906-1.265625-1.800782-.949219-4.273438.726562-5.699219l3.089844-2.558594-6.527344 3.777344c-1.847656 1.054687-4.1875.585937-5.488281-1.09375-1.296875-1.679688-1.164062-4.0625.316406-5.585938l18.441406-18.707031-23.800781 13.738281c-1.917969 1.105469-4.359375.558594-5.625-1.253906-1.265625-1.816406-.933593-4.296875.761719-5.714844l4.328125-3.585937c-1.847656.578125-3.851563-.160156-4.882813-1.796875-1.03125-1.640625-.832031-3.765625.488282-5.183594l14.503906-15.613281c-.457031-.34375-.839844-.777344-1.125-1.273438-1.179688-2.039062-.480469-4.648437 1.5625-5.828125l13.839844-7.988281c1.824218-1.035156 4.132812-.589844 5.441406 1.050781s1.230469 3.988281-.183594 5.539063l-8.484375 9.136718 17.808594-10.238281c1.921875-1.109375 4.371094-.5625 5.636719 1.257813 1.265625 1.820312.925781 4.308594-.78125 5.722656l-3.839844 3.191406 7.398438-4.265625c1.847656-1.054687 4.1875-.585937 5.488281 1.09375 1.300781 1.679688 1.167969 4.0625-.316407 5.585938l-18.441406 18.621093 21.335938-12.304687c1.910156-1.09375 4.34375-.550781 5.609375 1.253906 1.265625 1.800781.949219 4.273438-.730469 5.699219l-5.828125 4.898438c1.71875.039062 3.242187 1.105468 3.871094 2.707031.628906 1.597656.234375 3.417969-.996094 4.613281l-11.492187 11.144531c.140624.167969.261718.347657.367187.539063 1.179687 2.039062.484375 4.648437-1.554687 5.828125l-13.730469 7.925781c-.648438.375-1.382813.574219-2.132813.574219zm0 0" fill="#a9b0bb"/><path d="m251.378906 331.914062c-1.777344 0-3.371094-1.109374-3.992187-2.777343-.625-1.671875-.144531-3.550781 1.203125-4.714844l1.792968-1.5625-9.054687 5.222656c-1.917969 1.082031-4.34375.53125-5.601563-1.277343-1.257812-1.804688-.933593-4.273438.746094-5.695313l8.414063-6.988281-12.851563 7.414062c-1.859375 1.074219-4.230468.597656-5.527344-1.113281-1.300781-1.710937-1.125-4.121094.40625-5.625l23.894532-23.398437-27.511719 15.878906c-1.878906 1.035156-4.230469.511718-5.5-1.21875-1.265625-1.726563-1.050781-4.128906.5-5.609375l15.359375-13.984375-11.09375 6.417968c-1.84375 1.0625-4.1875.605469-5.496094-1.074218-1.308594-1.675782-1.179687-4.0625.300782-5.589844l9.148437-9.472656c-1.652344-.46875-2.859375-1.878906-3.074219-3.578125-.210937-1.703125.617188-3.363281 2.101563-4.222657l19.710937-11.382812c1.839844-1.0625 4.183594-.609375 5.496094 1.066406 1.308594 1.675782 1.183594 4.058594-.289062 5.589844l-5.898438 6.109375 19.207031-11.09375c1.878907-1.03125 4.234375-.511719 5.5 1.21875 1.265625 1.726563 1.054688 4.128906-.496093 5.609375l-15.363282 14.003906 22.460938-12.972656c1.863281-1.074219 4.230468-.59375 5.53125 1.117188 1.296875 1.710937 1.121094 4.121093-.410156 5.625l-23.894532 23.398437 27.035156-15.601563c1.914063-1.082031 4.34375-.53125 5.601563 1.277344s.933594 4.273438-.746094 5.695313l-8.421875 7 4.316406-2.484375c1.902344-1.074219 4.304688-.539063 5.574219 1.238281 1.265625 1.78125.984375 4.226563-.652343 5.671875l-5.613282 4.875c1.78125.289062 3.1875 1.664062 3.511719 3.4375.328125 1.769531-.492187 3.558594-2.050781 4.464844l-32.113282 18.523437c-.652343.386719-1.398437.585938-2.160156.582031zm0 0" fill="#9579da"/><g fill="#262626"><path d="m289.011719 500.308594c100.351562-18.152344 173.878906-104.695313 175.589843-206.660156-3.03125-102.265626-78.203124-188-179.199218-204.371094v-32.65625c9.652344-2.457032 16.550781-10.945313 16.980468-20.890625 1-11.265625 1.5625-25.769531-9.65625-32.230469-8.601562-4.90625-22.324218-2.714844-31.71875-2.714844-10.378906 0-21.011718-.7343748-31.363281.058594-12.746093-.335938-23.609375 9.183594-24.949219 21.863281-1.28125 11.144531-1.460937 26.25 9.265626 32.71875 2.375 1.351563 4.980468 2.253907 7.679687 2.660157v29.765624c-48.628906 6.609376-93.222656 30.597657-125.539063 67.53125-4.5 5.011719-8.621093 10.148438-12.503906 15.359376l-19.496094-14.699219c2.175782-3.183594 4.265626-6.453125 6.507813-9.628907 6.546875-11.390624 1.496094-20.410156-8.070313-27.304687-6.363281-6.148437-14.65625-9.910156-23.476562-10.648437-17.65625.570312-27.878906 16.007812-35.960938 29.863281-2.710937 4.335937-3.539062 9.59375-2.285156 14.550781 1.25 4.960938 4.472656 9.195312 8.917969 11.726562 6.691406 6.671876 15.484375 10.828126 24.890625 11.757813 9.027344-.363281 17.4375-4.695313 22.972656-11.835937l19.949219 14.992187c-97.722656 145.777344 30.566406 352.078125 211.464844 320.792969zm-255.980469-331.628906c-11.691406-6.886719-26.703125-17.332032-17.777344-32.488282 2.320313-3.933594 5.335938-7.617187 7.945313-11.347656 4.496093-6.425781 8.277343-13.988281 17.296875-8.78125 11.886718 6.871094 26.703125 17.28125 17.921875 32.589844-1.511719 2.148437-3.167969 5.023437-5.011719 7.976562-1.808594 1.023438-2.824219 2.210938-1.996094 3.089844-4.839844 7.167969-10.8125 13.40625-18.378906 8.960938zm188.652344-157.261719c8.902344-9.257813 33.980468-4.265625 46.335937-4.265625 10.964844 0 20.199219 2.722656 22.007813 15.519531 1.085937 7.734375 1.417968 24.46875-7.378906 28.46875-.953126-.324219-1.949219-.492187-2.953126-.496094h-51.199218c-6.519532-1.722656-11.164063-7.480469-11.46875-14.214843-1.957032-8.625-.269532-17.671876 4.65625-25.011719zm12.519531 48.273437h38.671875v27.828125c-12.835938-1.476562-25.78125-1.761719-38.671875-.855469zm28.824219 34.457032c106.984375 5.734374 186.128906 95.863281 189.050781 200.441406-3.125 111.511718-92.84375 206.035156-208.027344 199.492187-105.710937-7.140625-188.09375-94.484375-189.046875-200.433593-.121094-111.949219 95.351563-205.523438 208.023438-199.5zm0 0"/><path d="m85.28125 295.269531c-.007812.058594-.007812.117188 0 .171875-.207031 42.792969 16.980469 83.832032 47.613281 113.707032-.359375 1.390624.46875 2.671874 2.28125 3.226562.382813.074219.773438.121094 1.167969.136719 30.660156 28.179687 70.261719 44.667969 111.863281 46.566406 3.015625 2.152344 7.105469 1.992187 9.941407-.394531 42.621093-2.824219 82.929687-20.402344 114.003906-49.714844 1.136718-.648438 1.835937-1.28125 1.894531-1.800781 27.765625-27.199219 44.605469-63.628907 47.34375-102.398438.28125-3.941406.375-7.859375.375-11.75 0-.09375 0-.1875 0-.273437-.257813-42.738282-17.332031-83.652344-47.53125-113.894532.050781-1.492187-.949219-2.8125-2.398437-3.175781-.277344-.070312-.5625-.113281-.851563-.136719-30.253906-29.195312-70.472656-45.800781-112.511719-46.453124-2.527344-1.140626-5.4375-1.066407-7.902344.203124-42.789062 1.59375-83.492187 18.882813-114.347656 48.570313-2.097656.941406-3.574218 2.167969-3.34375 3.261719-27.457031 27.402344-44.207031 63.722656-47.214844 102.398437-.28125 3.945313-.375 7.859375-.382812 11.75zm53.058594-108.277343 12.851562 12.800781c2.621094 2.625 14.191406-1.886719 11.5625-4.523438-5.546875-5.542969-11.089844-11.085937-16.632812-16.632812 26.871094-27.003907 63.113281-42.621094 101.199218-43.605469v23.230469c0 5.398437 12.390626 2.917969 12.390626-1.433594v-21.429687c37.910156 2.476562 73.660156 18.53125 100.691406 45.226562l-15.445313 15.4375c-.894531.761719-1.273437 1.972656-.96875 3.109375.304688 1.136719 1.238281 1.996094 2.394531 2.207031 3.121094.785156 6.429688-.101562 8.738282-2.347656l11.707031-11.699219c20.617187 22.34375 34.492187 50.0625 40.019531 79.957031 1.335938 7.515626 2.128906 15.113282 2.375 22.742188h-16.898437c-2.746094 0-6.824219.769531-8.097657 3.601562-1.175781 2.558594 1.023438 4.523438 3.59375 4.523438h21.511719c-.734375 38.128906-15.289062 74.691406-40.960937 102.894531l-12.429688-12.449219c-2.144531-2.144531-13.339844 2.464844-11.675781 4.121094l16.324219 16.332032c-27.261719 26.230468-63.015625 41.832031-100.785156 43.972656v-22.894532c0-6.257812-12.496094-4.269531-12.496094 1.039063v21.402344c-37.722656-3.210938-73.234375-19.160157-100.691406-45.226563l15.429687-15.429687c.898437-.65625 1.304687-1.804688 1.015625-2.882813s-1.210938-1.867187-2.324219-1.988281c-3.121093-.6875-6.378906.1875-8.738281 2.347656l-11.699219 11.671875c-26.289062-27.867187-41.425781-64.425781-42.527343-102.722656h17.023437c2.796875 0 6.824219-.75 8.082031-3.679688.457032-1.144531.273438-2.445312-.476562-3.425781-.75-.976562-1.960938-1.488281-3.1875-1.34375h-21.449219c1.140625-37.976562 15.488281-74.367187 40.574219-102.902343zm0 0"/><path d="m293.929688 293.625c-.285157-8.824219-3.628907-17.273438-9.464844-23.894531l42.460937-42.425781c5.308594-5.308594-6.714843-6.34375-10.152343-2.902344l-39.339844 39.304687c-23.542969-15.660156-63.941406-4.96875-64.28125 30.90625-.496094 51.011719 78.140625 48.058594 80.777344-.988281zm-41.753907-29.015625c16.214844.53125 29.121094 13.769531 29.242188 29.996094-.851563 15.785156-11.871094 30.875-29.441407 29.011719-14.96875-2.144532-26.140624-14.878907-26.316406-30-.519531-15.269532 11.261719-28.152344 26.515625-28.996094zm0 0"/><path d="m165.859375 293.367188c0-2.84375.128906-5.6875.382813-8.53125.429687-5.121094-12.011719-2.78125-12.371094 1.5-.238282 2.84375-.367188 5.691406-.382813 8.535156-.042969 5.222656 12.335938 2.660156 12.371094-1.503906zm0 0"/><path d="m159.910156 329.90625c1.171875 2.902344 2.457032 5.746094 3.851563 8.535156.085937.171875.253906.246094.367187.390625.109375.148438 0 .394531.136719.589844 17.277344 32.089844 50.59375 52.296875 87.039063 52.789063 5.621093.144531 12.800781-8.234376 4.417968-8.449219-33.640625-.609375-64.273437-19.5-79.921875-49.289063-1.28125-2.558594-2.472656-5.195312-3.550781-7.875-2.003906-5.0625-14.285156-1.492187-12.339844 3.308594zm0 0"/></g></svg>