<svg height="512" viewBox="0 0 60 60" width="512" xmlns="http://www.w3.org/2000/svg"><g id="011---Organic-Search" fill="none"><path id="Path" d="m54.328 59.329c-.2083009.0001744-.3948874-.1288076-.4683193-.3237359s-.0183231-.4149599.1383193-.5522641l.765-.67-1.572.906c-.222272.1250569-.5030453.0627806-.6515981-.1445262-.1485528-.2073069-.1172703-.4931974.0725981-.6634738l1.751-1.535-2.373 1.37c-.2256086.1271264-.5109479.0609576-.657579-.1524896-.1466312-.2134471-.106025-.5035297.093579-.6685104l1.126-.913-1.459.842c-.2261873.1246025-.5100518.0564591-.655027-.1572432s-.1033607-.50265.096027-.6667568l.571-.449-.82.473c-.2198926.1179958-.4931214.0557887-.6402596-.1457705s-.1231296-.4807496.0562596-.6542295l1.982-1.78-2.531 1.456c-.2245986.1270093-.5089574.0622563-.656419-.1494768-.1474617-.2117332-.109592-.5009023.087419-.6675232l1.061-.88-1.392.8c-.2154812.1230022-.4885691.0693794-.6415393-.1259712-.1529702-.1953505-.1395447-.4733291.0315393-.6530288l2.364-2.463-3.174 1.832c-.2159307.1231341-.4895276.0689462-.642223-.1271971-.1526954-.1961432-.1381159-.4746734.034223-.6538029l2.118-2.177-2.842 1.639c-.2130048.1213721-.4825903.0704054-.6365857-.1203501-.1539953-.1907555-.1469715-.4650266.0165857-.6476499l2.12-2.339-2.927 1.689c-.2136477.1213457-.4838004.0694794-.6373204-.1223584-.15352-.1918377-.1449064-.4667894.0203204-.6486416l1.876-2.033-2.582 1.49c-.2145941.1228235-.486738.0703506-.6402819-.1234548-.1535438-.1938053-.142373-.4707366.0262819-.6515452l1.641-1.747-2.257 1.3c-.2123689.1214471-.4814292.0713915-.6359136-.1183044-.1544843-.1896959-.1490205-.4633181.0129136-.6466956l2.54-2.851c-.011-.016-.022-.031-.032-.049-.1373847-.2389169-.0555349-.543953.183-.682l1.1-.637c.2126491-.1227903.4829898-.0729918.6379285.1175105.1549386.1905024.1486122.4653186-.0149285.6484895l-1.6 1.8 2.5-1.444c.2145941-.1228235.486738-.0703506.6402819.1234548.1535438.1938053.142373.4707366-.0262819.6515452l-1.641 1.746 2.495-1.439c.2136477-.1213457.4838004-.0694794.6373204.1223584.15352.1918377.1449064.4667894-.0203204.6486416l-1.876 2.034 2.839-1.639c.2132902-.1227487.4841863-.0720462.6386451.1195326.1544588.1915787.14655.4670654-.0186451.6494674l-2.118 2.338 3.2-1.849c.2159307-.1231341.4895276-.0689462.642223.1271971.1526954.1961432.1381159.4746734-.034223.6538029l-2.118 2.177 3.1-1.788c.2154812-.1230022.4885691-.0693794.6415393.1259712.1529702.1953505.1395447.4733291-.0315393.6530288l-2.361 2.466 3.451-1.992c.2245986-.1270093.5089574-.0622563.656419.1494768.1474617.2117332.109592.5009023-.087419.6675232l-1.058.879 1.564-.9c.2198926-.1179958.4931214-.0557887.6402596.1457705s.1231296.4807496-.0562596.6542295l-1.981 1.78 2.75-1.587c.2269587-.1282325.5143539-.0605795.6602778.1554298.145924.2160093.1014061.5078844-.1022778.6705702l-.57.448.878-.507c.2260575-.1301558.5141897-.0646595.6617686.1504288.1475789.2150884.1050107.5074886-.0977686.6715712l-1.129.914 1.29-.743c.222272-.1250569.5030453-.0627806.6515981.1445262.1485528.2073069.1172703.4931974-.0725981.6634738l-1.749 1.538 1.562-.9c.2223898-.1269737.5047663-.065395.6540994.1426415.1493332.2080365.1173442.4952735-.0740994.6653585l-.761.668c.23893-.1358451.5427102-.0533708.6801373.1846528.137427.2380237.0569695.5423443-.1801373.6813472l-4.4 2.539c-.0767793.0445565-.1642393.0673722-.253.066z" fill="#9e785f"/><path id="Path" d="m24.8 51.373c-.2215495.0005171-.4170218-.1448238-.4803234-.3571381-.0633015-.2123142.0206638-.4409696.2063234-.5618619l8.854-5.766-11.08 6.4c-.2356087.1297647-.5316571.04988-.6700067-.1807924-.1383496-.2306723-.0694166-.5294607.1560067-.6762076l2.227-1.386-3.257 1.88c-.2369302.1422133-.5442867.0654301-.6865-.1715-.1422133-.2369302-.0654301-.5442867.1715-.6865l4.531-2.823-5.672 3.269c-.2343611.1288923-.5286543.0505227-.6678755-.1778537-.1392213-.2283764-.0740613-.5258734.1478755-.6751463l14.272-9.178-15.972 9.223c-.2372063.141661-.544339.0642063-.686-.173s-.0642063-.544339.173-.686l5.1-3.146-5.946 3.432c-.2361017.1438702-.5441298.0691017-.688-.167-.1438701-.2361017-.0691017-.5441298.167-.688l16.765-10.7-18.186 10.5c-.2362845.1306359-.5336041.0500916-.6716393-.181948s-.0669238-.5317553.1606393-.677052l3.632-2.218-4.183 2.415c-.236654.1427656-.5442344.066654-.687-.17s-.066654-.5442344.17-.687l18.6-11.822-19.811 11.436c-.2369888.1350471-.5384839.055235-.6776156-.1793791-.13913161-.2346142-.0645535-.5374465.1676156-.6806209l2.866-1.745-3.224 1.862c-.23620749.133071-.53543293.0536509-.67455995-.1790411-.13912701-.2326919-.06746125-.5338687.16155995-.6789589l13.683-8.491-14.386 8.306c-.23698876.1350471-.53848394.055235-.67761558-.1793791-.13913163-.2346142-.06455352-.5374465.16761558-.6806209l4.675-2.847-4.931 2.847c-.23520866.125628-.52761522.0445694-.66457305-.1842276-.13695782-.228797-.07026696-.5248112.15157305-.6727724l13.874-8.589-14.355 8.288c-.23628449.1306359-.5336041.0500916-.67163931-.181948s-.06692381-.5317553.16063931-.677052l9.631-5.9-9.976 5.76c-.23551248.13196-.53324972.0531389-.67262044-.1780652-.13937073-.2312042-.07004227-.5312938.15662044-.6779348l19.156-12.023-19.606 11.318c-.23698876.1350471-.53848394.055235-.67761558-.1793791-.13913163-.2346142-.06455352-.5374465.16761558-.6806209l3.362-2.039-3.425 1.977c-.23617349.1361818-.537908.0580681-.67833183-.1756081-.14042384-.2336761-.06777083-.5367718.16333183-.6813919l18.3-11.448-18.601 10.738c-.23460579.1253855-.5263122.0451285-.66376043-.18262s-.07251115-.523243.14776043-.67238l19.541-12.292-19.759 11.408c-.23693016.1419372-.54406281.0649301-.68599999-.172-.14193718-.2369302-.06493016-.5440628.17199999-.686l13.586-8.4-13.6 7.855c-.23497088.1292146-.53003872.050062-.66879247-.179405-.13875376-.2294671-.07178369-.5275361.15179247-.675595l20.328-12.894-20.314 11.727c-.23508655.127347-.52875831.0472199-.66659082-.1818764-.13783251-.2290964-.071048-.5260868.15159082-.6741236l16.871-10.589-16.743 9.666c-.23617349.1361818-.537908.0580681-.67833183-.1756081-.14042384-.2336761-.06777082-.5367718.16333183-.6813919l13.924-8.683-13.548 7.821c-.23665402.1424895-.54401053.066154-.6865-.1705-.14248946-.236654-.06615401-.5440105.1705-.6865l14.957-9.4-14.584 8.419c-.23560872.1297647-.5316571.04988-.67000668-.1807924-.13834958-.2306723-.06941665-.5294607.15600668-.6762076l9.651-5.992-9.037 5.216c-.23583577.1260453-.52910097.0442222-.66561588-.1857118-.13651492-.2299339-.06795176-.5265795.15561588-.6732882l.531-.324c-.24016609.0888809-.50866416-.018064-.62195135-.247728-.1132872-.2296641-.03473831-.507798.18195135-.644272l13.529-8.619-12.718 7.341c-.23541159.1379583-.53795774.061708-.67986369-.1713453-.14190596-.2330532-.07076502-.5368414.15986369-.6826547l11.886-7.607-10.822 6.248c-.23470337.1364868-.53543738.0607325-.67747413-.1706544-.14203676-.2313868-.07346495-.5338394.15447413-.6813456l11.731-7.651-10.277 5.933c-.23472102.1466316-.54386839.075221-.69049999-.1595-.14663159-.234721-.07522102-.5438684.15949999-.6905l11.264-7.64-9.1 5.249c-.233204.1287421-.52639387.0520483-.66668716-.1743946-.1402933-.226443-.07842312-.5231151.14068716-.6746054l4.162-2.751-1.983 1.146c-.22805424.1290416-.51704704.0601323-.66233529-.1579314-.14528824-.2180638-.09758263-.5113034.10933529-.6720686l4.636-3.536c-.2053716-.03871349-.3650007-.20107315-.4002256-.40707182-.0352248-.20599867.0613863-.41217428.2422256-.51692818l5.664-3.265c.2280542-.12904158.517047-.0601323.6623353.15793143.1452882.21806373.0975826.5113034-.1093353.67206857l-3.882 2.957 9.555-5.517c.2340569-.1357068.5336008-.06062069.6759704.16944421s.0759129.53164078-.1499704.68055579l-4.171 2.757 6.671-3.851c.2329673-.1327691.5291919-.0581284.6714287.16918215.1422368.22731056.0798406.52635392-.1414287.67781785l-11.261 7.643 14.306-8.259c.2347034-.13648675.5354374-.06073246.6774741.17065437.1420368.23138684.073465.53383942-.1544741.68134563l-11.727 7.648 13.835-7.989c.2354116-.13795832.5379577-.06170795.6798637.17134529.1419059.23305325.070765.53684142-.1598637.68265471l-11.879 7.605 13.621-7.864c.2348642-.13128134.531504-.05316042.6712412.17677323.1397372.22993366.0724576.52921865-.1522412.67722677l-13.526 8.617 14.968-8.642c.2362845-.13063592.5336041-.05009165.6716393.18194798.1380352.23203962.0669238.53175531-.1606393.67705202l-.292.178.945-.545c.2369302-.14193718.5440628-.06493016.686.172s.0649302.54406282-.172.686l-9.655 5.994 10.5-6.059c.2355125-.13195996.5332497-.0531389.6726204.17806525.1393708.23120415.0700423.53129378-.1566204.67793475l-14.95 9.4 16.039-9.26c.2361735-.13618181.537908-.05806811.6783318.17560806.1404239.23367616.0677709.53677186-.1633318.68139194l-13.943 8.692 14.768-8.522c.2355125-.13195996.5332497-.0531389.6726204.17806525.1393708.23120415.0700423.53129378-.1566204.67793475l-16.862 10.579 17.742-10.242c.2341527-.12371504.5241564-.04339881.6613045.18314763.1371481.22654645.0738659.52073714-.1443045.67085237l-20.334 12.892 21.266-12.277c.2348663-.12231188.5243654-.04029567.6601778.1870309.1358123.22732657.0708339.52111934-.1481778.6699691l-13.6 8.41 14.071-8.121c.2363779-.14276561.5437344-.06687787.6865.1695.1427656.2363779.0668779.5437344-.1695.6865l-19.536 12.287 20.168-11.643c.2361735-.1361818.537908-.0580681.6783318.1756081.1404239.2336761.0677709.5367718-.1633318.6813919l-18.3 11.447 18.717-10.804c.2377586-.1408326.5446674-.0622586.6855.1755s.0622586.5446674-.1755.6855l-3.4 2.063 3.464-2c.2355125-.13196.5332497-.0531389.6726204.1780652.1393708.2312042.0700423.5312938-.1566204.6779348l-19.146 12.012 19.387-11.193c.1534456-.09146.3440284-.0941103.4999579-.0069525s.2535161.2508822.256.4295-.0905123.3449925-.2439579.4364525l-9.614 5.892 9.61-5.548c.2352087-.125628.5276152-.0445694.664573.1842276.1369579.228797.070267.5248112-.151573.6727724l-13.893 8.6 13.9-8.026c.2354667-.1225198.5256326-.0396943.6609447.1886614.135312.2283558.0686058.5226457-.1519447.6703386l-4.657 2.836 4.429-2.557c.2362075-.133071.5354329-.0536509.6745599.1790411.1391271.2326919.0674613.5338687-.1615599.6789589l-13.683 8.494 13.549-7.822c.2358358-.1260453.529101-.0442222.6656159.1857118.1365149.2299339.0679517.5265795-.1556159.6732882l-2.875 1.75 2.573-1.485c.234481-.1270728.5274228-.0477401.6657366.1802909.1383139.2280309.0733058.5244809-.1477366.6737091l-18.6 11.821 18.255-10.538c.2369888-.1350471.5384839-.055235.6776156.1793791.1391316.2346142.0645535.5374465-.1676156.6806209l-3.641 2.226 3.231-1.864c.2348642-.1312813.531504-.0531604.6712412.1767732.1397372.2299337.0724576.5292187-.1522412.6772268l-16.765 10.7 16.109-9.3c.2357179-.1278172.530297-.0469384.667702.1833224.137405.2302607.0687118.5279174-.155702.6746776l-5.11 3.156 4.48-2.587c.2347713-.1336383.5332399-.0566316.6740509.1739091.1408109.2305408.0730402.5312411-.1530509.6790909l-14.266 9.174 13.27-7.661c.2356087-.1297647.5316571-.04988.6700067.1807924.1383496.2306723.0694166.5294607-.1560067.6762076l-4.517 2.816 3.612-2.086c.2361735-.1361818.537908-.0580681.6783318.1756081.1404239.2336761.0677709.5367718-.1633318.6813919l-2.249 1.4 1.155-.668c.2334572-.1253051.5241289-.0467367.6626677.1791186.1385388.2258554.0768365.5205686-.1406677.6718814l-8.846 5.762 7.313-4.222c.2355494-.1441463.5433537-.0700494.6875.1655s.0700494.5433537-.1655.6875l-4 2.583 2.142-1.242c.2329673-.1327691.5291919-.0581284.6714287.1691822.1422368.2273105.0798406.5263539-.1414287.6778178l-4.418 2.984 1.762-1.018c.2304184-.1322364.5240189-.0611893.6684864.1617642.1444674.2229535.0893536.5199576-.1254864.6762358l-3.513 2.537c.0600953.0423719.1102548.0973085.147.161.1380647.2391402.0561341.5449248-.183.683l-5.661 3.268c-.2304184.1322364-.5240189.0611893-.6684864-.1617642-.1444674-.2229535-.0893536-.5199576.1254864-.6762358l1.218-.879-5.6 3.235c-.2329673.1327691-.5291919.0581284-.6714287-.1691822-.1422368-.2273105-.0798406-.5263539.1414287-.6778178l4.418-2.983-7.293 4.212c-.2347713.1336383-.5332399.0566316-.6740509-.1739091-.1408109-.2305408-.0730402-.5312411.1530509-.6790909l4-2.585-5.965 3.444c-.074028.0433976-.1581906.0665078-.244.067z" fill="#ccd0da"/><path id="Path" d="m24.988 47.389c-.2208664.0004946-.4158916-.143984-.479759-.3554152s.0185554-.4397191.202759-.5615848l6.956-4.6-9.021 5.207c-.2349709.1292146-.5300387.050062-.6687925-.179405-.1387537-.2294671-.0717837-.5275361.1517925-.675595l3.058-1.936-4.15 2.4c-.2355125.13196-.5332497.0531389-.6726204-.1780652-.1393708-.2312042-.0700423-.5312938.1566204-.6779348l3.913-2.467-5.007 2.891c-.2336556.130691-.5287926.0541466-.6694787-.1736308-.140686-.2277774-.0769932-.5259521.1444787-.6763692l13.563-8.94-15.302 8.834c-.2347713.1336383-.5332399.0566316-.6740509-.1739091-.1408109-.2305408-.0730402-.5312411.1530509-.6790909l13.347-8.63-14.651 8.454c-.2363779.1427656-.5437344.0668779-.6865-.1695s-.0668779-.5437344.1695-.6865l10.3-6.5-11.21 6.47c-.2347713.1336383-.5332399.0566316-.6740509-.1739091-.1408109-.2305408-.0730402-.5312411.1530509-.6790909l15.774-10.175-16.809 9.7c-.2356087.1297647-.5316571.04988-.6700067-.1807924-.1383496-.2306723-.0694166-.5294607.1560067-.6762076l9.159-5.708-9.715 5.608c-.2354379.13455-.5352149.0569022-.6757281-.1750261-.1405133-.2319283-.0705395-.5335888.1577281-.6799739l14.589-9.265-15.217 8.786c-.15326694.0918173-.34387535.094893-.5000249.0080685-.15614954-.0868244-.25411739-.2503583-.257-.429s.08975796-.3452512.2430249-.4370685l9.6-5.972-9.976 5.756c-.23508655.127347-.52875831.0472199-.66659082-.1818764-.13783251-.2290964-.071048-.5260868.15159082-.6741236l10.725-6.692-10.966 6.331c-.23543794.13455-.53521485.0569022-.67572813-.1750261s-.0705395-.5335888.15772813-.6799739l15.236-9.674-15.632 9.026c-.23748244.1411087-.54439124.0629824-.68549999-.1745-.14110876-.2374824-.06298245-.5443912.17449999-.6855l1.251-.763-1.146.661c-.23617349.1361818-.537908.0580681-.67833183-.1756081-.14042384-.2336761-.06777083-.5367718.16333183-.6813919l11.342-7.095-11.406 6.582c-.23551248.13196-.53324972.0531389-.67262044-.1780652-.13937073-.2312042-.07004227-.5312938.15662044-.6779348l12.345-7.766-12.3 7.1c-.23497088.1292146-.53003872.050062-.66879247-.179405-.13875376-.2294671-.07178369-.5275361.15179247-.675595l12.865-8.134-12.754 7.364c-.23497088.1292146-.53003872.050062-.66879247-.179405-.13875376-.2294671-.07178369-.5275361.15179247-.675595l11.438-7.215-11.161 6.444c-.23448097.1270728-.52742279.0477401-.66573664-.1802909-.13831386-.2280309-.07330581-.5244809.14773664-.6737091l11.455-7.263-11.077 6.4c-.23543794.13455-.53521485.0569022-.67572813-.1750261s-.0705395-.5335888.15772813-.6799739l10.454-6.637-9.907 5.714c-.23497088.1292146-.53003872.050062-.66879247-.179405-.13875376-.2294671-.07178369-.5275361.15179247-.675595l7.2-4.537-6.549 3.781c-.23637787.1430418-.54395825.0673779-.687-.169s-.06737787-.5439582.169-.687l6.434-4.07-5.627 3.246c-.23477127.1336383-.53323995.0566316-.67405087-.1739091-.14081092-.2305408-.07304023-.5312411.15305087-.6790909l7.521-4.839-6.527 3.767c-.23308287.1306613-.52770735.0549657-.66894229-.1718661-.14123493-.2268319-.07915925-.5246238.14094229-.6761339l9.066-6.057-7.515 4.339c-.2328603.1351428-.53091891.0616362-.67424226-.1662803-.14332335-.2279164-.08044309-.5283964.14224226-.6797197l6.626-4.521-4.551 2.628c-.22575858.1294404-.51305935.0640705-.66058916-.1503047-.1475298-.2143751-.10595655-.5060712.09558916-.6706953l4.862-3.948c-.2152572.053844-.4399616-.0427503-.549-.236-.1380647-.23914015-.0561341-.54492481.183-.683l5.221-3.015c.2257586-.1294404.5130594-.0640705.6605892.15030466.1475298.21437517.1059565.50607128-.0955892.67069534l-4.759 3.865 10.614-6.128c.2328603-.1351428.5309189-.06163618.6742423.16628028.1433233.22791645.080443.52839646-.1422423.67971972l-6.632 4.523 9.24-5.333c.2340027-.13899883.5362016-.06529813.6799386.16582441s.0762078.53476011-.1519386.68317559l-9.061 6.053 11.256-6.5c.2343611-.12889229.5286543-.05052268.6678755.17785371.1392213.22837639.0740613.52587341-.1478755.67514629l-7.52 4.839 9.006-5.2c.2349709-.12921461.5300387-.05006202.6687925.17940502.1387537.22946704.0717837.52753611-.1517925.67559498l-6.438 4.073 7.45-4.3c.2346058-.12538552.5263122-.0451285.6637604.18262002.1374483.22774852.0725112.52324301-.1477604.67237998l-7.2 4.541 8.223-4.747c.2354379-.13454995.5352149-.05690217.6757281.17502611.1405133.23192829.0705395.53358878-.1577281.67997389l-10.444 6.632 11.4-6.58c.2349709-.12921461.5300387-.05006202.6687925.17940502.1387537.22946704.0717837.52753611-.1517925.67559498l-11.457 7.263 12.413-7.167c.2363779-.14276559.5437344-.06687785.6865.16950002.1427656.23637786.0668779.54373436-.1695.68649998l-11.437 7.214 12.15-7.015c.2363779-.14276561.5437344-.06687787.6865.1695.1427656.2363779.0668779.5437344-.1695.6865l-12.871 8.137 13.61-7.857c.2346058-.1253855.5263122-.0451285.6637604.18262.1374483.2277485.0725112.523243-.1477604.67238l-12.351 7.77 12.865-7.426c.2361735-.1361818.537908-.0580681.6783318.1756081.1404239.2336761.0677709.5367718-.1633318.6813919l-11.329 7.09 11.771-6.795c.2362845-.1306359.5336041-.0500916.6716393.181948s.0669238.5317553-.1606393.677052l-1.239.756 1.274-.735c.2349709-.1292146.5300387-.050062.6687925.179405.1387537.2294671.0717837.5275361-.1517925.675595l-15.245 9.68 15.656-9.04c.2361735-.1361818.537908-.0580681.6783318.1756081.1404239.2336761.0677709.5367718-.1633318.6813919l-10.725 6.691 10.809-6.236c.2369302-.1422133.5442867-.0654301.6865.1715.1422133.2369302.0654301.5442867-.1715.6865l-9.587 5.962 9.611-5.549c.2354379-.13455.5352149-.0569022.6757281.1750261.1405133.2319283.0705395.5335888-.1577281.6799739l-14.587 9.266 14.6-8.432c.2350866-.127347.5287583-.0472199.6665908.1818764.1378325.2290964.071048.5260868-.1515908.6741236l-9.165 5.717 8.991-5.19c.2342478-.1308833.5300435-.0535271.6702262.1752769s.074765.527467-.1482262.6767231l-15.763 10.172 15.544-8.977c.2349709-.1292146.5300387-.050062.6687925.179405.1387537.2294671.0717837.5275361-.1517925.675595l-10.311 6.509 9.927-5.731c.2347713-.1336383.5332399-.0566316.6740509.1739091.1408109.2305408.0730402.5312411-.1530509.6790909l-13.35 8.632 12.745-7.358c.2336556-.130691.5287926-.0541466.6694787.1736308.140686.2277774.0769932.5259521-.1444787.6763692l-13.561 8.939 12.737-7.353c.2349709-.1292146.5300387-.050062.6687925.179405.1387537.2294671.0717837.5275361-.1517925.675595l-3.9 2.46 3-1.729c.2354379-.13455.5352149-.0569022.6757281.1750261.1405133.2319283.0705395.5335888-.1577281.6799739l-3.077 1.943 2.048-1.183c.2340569-.1357068.5336008-.0606207.6759704.1694442s.0759129.5316408-.1499704.6805558l-6.946 4.594 5.449-3.145c.2308022-.1338179.5260112-.0628564.670779.1612399s.0880924.5223777-.128779.6777601l-7.42 5.329 4.535-2.618c.2292016-.1303039.5201978-.0602449.6649792.1600976s.0935911.5152436-.1169792.6739024l-3.384 2.509c.0713165.0431494.1305012.1037105.172.176.1380647.2391402.0561341.5449248-.183.683l-5.218 3.013c-.228997.1275142-.5175965.0565488-.6613452-.1626219-.1437487-.2191708-.0938504-.5121485.1143452-.6713781l1.543-1.144-5.684 3.281c-.2308022.1338179-.5260112.0628564-.670779-.1612399s-.0880924-.5223777.128779-.6777601l7.422-5.331-10.976 6.337c-.0754117.0445587-.1614077.0680435-.249.068z" fill="#2783ec"/><path id="Path" d="m31.391 27.409c-.207106-.0000372-.3927519-.1277523-.466831-.3211565-.0740791-.1934041-.0212558-.4124595.132831-.5508435l2.167-1.947-3.844 2.219c-.2262112.1327757-.5165722.0681745-.6651499-.1479864-.1485778-.2161609-.1048589-.5103912.1001499-.6740136l3.707-3.008-4.436 2.56c-.2319831.1309881-.5259285.0570795-.6683699-.1680527-.1424414-.2251321-.0833463-.52241.1343699-.6759473l.064-.045-.032.019c-.2280542.1290416-.517047.0601323-.6623353-.1579314-.1452882-.2180638-.0975826-.5113034.1093353-.6720686l4.369-3.331-4.061 2.345c-.2142281.1242304-.4871181.0729283-.6416053-.120619-.1544873-.1935473-.1440221-.4710204.0246053-.652381l1.687-1.817c-.2340948.0230256-.4525837-.1202321-.5247983-.3440973s.0213755-.4677936.2247983-.5859027l2.58-1.49c.2139383-.1227586.4854345-.0711644.6394281.1215147.1539936.1926792.1444708.4688702-.0224281.6504853l-1.589 1.712 7.976-4.605c.2280542-.1290416.517047-.0601323.6623353.1579314.1452882.2180638.0975826.5113034-.1093353.6720686l-4.373 3.332 3.784-2.184c.2322938-.1351768.5298928-.0625367.6737842.164462.1438914.2269988.0825928.5271392-.1387842.679538l-.507.352c.1817178-.0210024.3599623.0611753.462.213.1473399.2157275.1037694.5085209-.1.672l-3.705 3.007 2.516-1.453c.2198926-.1179958.4931214-.0557887.6402596.1457705s.1231296.4807496-.0562596.6542295l-2.174 1.965c.241732-.1041726.5228334-.0030899.6428661.2311717.1200326.2342615.0378858.5214681-.1878661.6568283l-4.082 2.357c-.0761361.0432428-.1624508.0653394-.25.064z" fill="#90cf4a"/><path id="Path" d="m18.924 32.346c-.2117487.0002685-.4007056-.1328752-.4716967-.3323692s-.0086206-.422074.1556967-.5556308l.129-.1-.812.468c-.2224228.1284799-.5060128.0675253-.656-.141-.1498756-.2088178-.1170106-.4972517.076-.667l2.114-1.858-2.929 1.687c-.2271495.1357121-.5207051.070954-.6696751-.1477298-.1489701-.2186837-.1017701-.5155687.1076751-.6772702l1.385-1.1-1.659.957c-.2225048.1289965-.5065753.0681522-.6567253-.1406622-.15015-.2088145-.1173946-.4974755.0757253-.6673378l2.485-2.2-2.827 1.632c-.2222396.1285782-.5057439.0679309-.6559297-.1403165-.1501859-.2082474-.1182322-.4963997.0739297-.6666835l1.747-1.552-1.8 1.041c-.2090217.1212969-.4748817.0757365-.6315895-.1082355s-.1594062-.4536941-.0064105-.6407645l1.3-1.595-1.16.669c-.1847703.1068855-.4170191.0846842-.5781933-.0552709-.1611742-.1399552-.2157251-.3667957-.1358067-.5647291l.631-1.557-.214.123c-.1619582.0930922-.3623031.088137-.5194611-.0128481-.157158-.100985-.2449148-.2811554-.2275389-.4671519l.119-1.245c-.0392066-.0343352-.07293-.074466-.1-.119-.1373847-.2389169-.0555349-.543953.183-.682l.212-.122c.1619582-.0930922.3623031-.088137.5194611.0128481.157158.100985.2449148.2811554.2275389.4671519l-.078.817.634-.365c.1847224-.1061178.4163963-.0835388.5771527.0562493.1607564.1397882.2152867.3660824.1358473.5637507l-.63 1.557 2.245-1.3c.2087634-.1201586.4735249-.0743925.6298391.1088725.1563143.183265.1597449.451931.0081609.6391275l-1.3 1.6 3.711-2.143c.2222396-.1285782.5057439-.0679309.6559297.1403165.1501859.2082474.1182322.4963997-.0739297.6666835l-1.746 1.552 2.876-1.66c.2225048-.1289965.5065753-.0681522.6567253.1406622.15015.2088145.1173946.4974755-.0757253.6673378l-2.485 2.2 3.17-1.829c.226507-.1291681.5142486-.0625855.6609917.1529516.1467432.2155372.103215.5076567-.0999917.6710484l-1.384 1.1 1.5-.863c.2223898-.1269737.5047663-.065395.6540994.1426415.1493332.2080365.1173442.4952735-.0740994.6653585l-2.123 1.86 1.872-1.08c.2254634-.1287726.5119753-.0635416.6594703.1501437.1474949.2136853.1068861.5047094-.0934703.6698563l-.515.419c.2214752.0105422.409555.1656843.4620252.3811124.0524701.2154282-.0432032.4396818-.2350252.5508876l-4.779 2.758c-.0748272.0442145-.1600866.0676868-.247.068z" fill="#90cf4a"/><g fill="#262626"><path id="Shape" d="m6.841 9.061c-16.011 17.731.106 45.928 23.338 42.072 3.6715103-.6067702 7.1638826-2.0162845 10.228-4.128l6.793 6.768c2.121 2.114 4.417 5.437 7.607 5.742.0334646-.0006381.0668595-.0033097.1-.008.031 0 .053.011.088.01 1.7283994-.030904 3.3175704-.9545151 4.2-2.441 1.859-4.138-2.052-6.175-4.865-8.25l-8.786-6.479c3.8610606-4.6133527 6.0463714-10.3980819 6.2-16.412-.631-22.921-29.287-34.166-44.903-16.874zm44.582 39.277c2.641 1.947 8.189 4.566 6.382 8.586-.5349791.9285424-1.5128585 1.5136049-2.584 1.546-3.057-.369-5.9-4.535-7.9-6.528l-5.793-5.774c1.112235-.8578835 2.1520696-1.8057417 3.109-2.834zm-26.536 2.129c-12.9445825-.8672846-23.03654852-11.558946-23.156-24.532-.017-13.669 11.611-25.126 25.382-24.402 13.09.687 22.81 11.726 23.156 24.532-.369 13.621-11.32 25.18-25.382 24.402z"/><path id="Shape" d="m26.056 4.438c-.852-.028-1.088 1.092-.112 1.124 10.2014184.20892459 18.7421513 7.7928717 20.156 17.898 1.394 10.828-6.382 21.366-17.308 22.8-.685522.0870462-1.3751339.1381162-2.066.153 0-.148 0-.3 0-.445 0-.012.011-.023.011-.036-.01-2.051.057-4.323-.053-6.592.068-4.364.523-8.7 2.472-12.281.2603774.0911134.5279992.1600261.8.206 6.054 1.012 9.226-6.516 8.739-11.46-.03-.306-1.165-.119-1.4.237-2.575 2.516-6.368.926-9.07 3.217-2.329 1.974-2.412 5.622-.129 7.255-1.1958006 2.106573-1.9892982 4.417211-2.34 6.814-.2300462-.7645004-.5282424-1.5068115-.891-2.218-.2099742-.3975193-.4567184-.7744989-.737-1.126.9952446-2.0234718.5103894-4.4629123-1.183-5.952-1.2021413-1.0410871-2.7609275-1.5758558-4.349-1.492-1.8213168.0350908-3.5834071-.6473331-4.906-1.9-.0494875-.0601099-.1135122-.1065794-.186-.135-.2923485-.1388653-.6384449-.0976449-.89.106-.1616518.0905803-.2723819.2507697-.3.434-.482 4.883 3.323 14.135 9.657 11.01.455744-.2253038.87454-.5186633 1.242-.87.1541178.2435291.2930489.4963436.416.757 1.0831211 2.6323478 1.6327497 5.453571 1.617 8.3-.02 2.055.024 4.124.034 6.154-8.6674132-.4731668-16.12094236-6.2993175-18.673-14.596-3.225-10.667 2.893-21.678 13.235-25.306.867-.3.6-1.369-.284-1.058-10.758 3.772-17.593 14.752-14.589 26.121 2.95462392 10.7245929 13.5196118 17.4962139 24.4981218 15.7020525 10.9785099-1.7941614 18.8381173-11.5768191 18.2248782-22.6840525-.722-11.559-10.392-19.775-21.636-20.137zm2.083 19.9c-.7307166-1.5850892-.3730601-3.4593699.89-4.664 1.7-1.739 3.408-.984 5.362-1.382 1.0316744-.2298596 2.0098972-.6548197 2.882-1.252.0176613 1.3401273-.1674312 2.6752205-.549 3.96-.4371671 1.6099471-1.2705106 3.0848-2.424 4.29-1.1510571 1.2977097-3.0430686 1.6342236-4.571.813.977815-1.5164775 2.2466136-2.8240232 3.733-3.847.806-.558-.416-.862-.922-.512-1.4375938.9836293-2.6946991 2.2079199-3.716 3.619-.2763008-.3066845-.5070014-.6515567-.685-1.024zm-6.073 6.22c-3.343 3.136-6.94-2.01-7.783-4.867-.3121387-1.0581839-.4931599-2.1506922-.539-3.253 1.0709086.7082594 2.3078674 1.1252893 3.589 1.21 1.577.089 2.921-.053 4.237 1.016 1.292232.9843156 1.8832793 2.6375234 1.508 4.218-1.0851489-.8853066-2.2630219-1.6504379-3.513-2.282-.507-.28-1.8.421-1.128.792 1.4607469.7048429 2.7987908 1.6397517 3.963 2.769-.102053.1401859-.213651.273168-.334.398z"/></g></g></svg>