<svg id="Layer_1" enable-background="new 0 0 91 91" height="512" viewBox="0 0 91 91" width="512" xmlns="http://www.w3.org/2000/svg"><g><path d="m65.7 30.1v-.1c-.9-5.1-5.6-7.8-10.4-8.6-5.8-1-11.9-1.5-17.7-.9-6 .6-10.7 2.8-16 5.5-5.9 3-12 3.3-18.4 4.3-2.3.4-1.6 3.9.5 4 4.8.2 9.9-.3 14.5-1.8 5-1.6 9.2-4.9 14.2-6.3s10.2-1.3 15.3-.9c4.2.3 11.4.2 13.1 4.9-2 0-4.1.1-6.1.1-4.2.1-8.7-.2-12.9.8-1.1.3-1 1.8 0 2.1 5.7 1.6 12.3 1 18.1 1 6.3.1 12.6 0 18.9.3 2 .1 9.8 1.6 6.4 4.8-2.5 2.4-19.3 2.2-25.6 1.6-2.8-.3-3.1 4-.6 4.8 2.4.8 3 3.5.3 4-1.4.3-2.8.2-4.2.3-2.1.1-3.3 2.6-1.7 4.1 2.7 2.7.7 5.5-2.7 5.7-2 .1-3.2 2.6-1.7 4.1 1.3 1.3.1 3.4-1.2 4.1-1.9 1.1-4.6.9-6.6.9-4.8.1-10 0-14.4-2.1-3.8-1.8-6.9-4.4-11-5.6-4.2-1.3-8.7-1.6-13-1.7-2.8-.1-2.8 4.5 0 4.4 6.7-.3 12.6.7 18.4 4.1 5.2 3.1 10.2 4.8 16.2 5.3 4.6.4 11.1 1.1 14.7-2.5 1.8-1.8 2.5-4.5 2.1-6.9 3.9-1.6 6.2-5.4 5.1-9.3 2.6-.3 5.1-1 6.2-3.7.7-1.8.8-3.4.3-4.9 2.2 0 4.5-.1 6.7-.2 3.4-.2 7.1-.1 10.4-.8 5.1-1.2 10.4-6.3 5.9-11.4-4.8-5.3-22.5-3.5-23.1-3.5z" fill="#3c6b76"/></g></svg>