<svg height="512" viewBox="0 0 61 60" width="512" xmlns="http://www.w3.org/2000/svg"><g id="029---Pause" fill="none"><path id="Path" d="m19.186 59.471c-.2242747.0003879-.4213699-.1486096-.4821521-.3644912-.0607822-.2158815.0296209-.4458251.2211521-.5625088l5.547-3.384-7.351 4.24c-.2357179.1278172-.530297.0469384-.667702-.1833224-.137405-.2302607-.0687118-.5279174.155702-.6746776l13.082-8.057-15.441 8.915c-.2350866.127347-.5287583.0472199-.6665908-.1818764-.1378325-.2290964-.071048-.5260868.1515908-.6741236l21.776-13.608-25.06 14.464c-.2347345.1238045-.5252986.0426548-.6619149-.1848618-.13661629-.2275167-.07168534-.5221296.1479149-.6711382l24.837-15.488-27.93 16.126c-.23748244.1411088-.54439125.0629824-.6855-.1745s-.06298244-.5443912.1745-.6855l18.374-11.214-19.629 11.332c-.23583577.1260453-.52910097.0442222-.66561588-.1857118-.13651492-.2299339-.06795177-.5265795.15561588-.6732882l17.532-10.662-18.183 10.499c-.23693016.1427656-.54473439.0664302-.6875-.1705s-.06643016-.5447344.1705-.6875l24.732-15.181-25.225 14.563c-.23638246.1285498-.53210687.0469768-.6691568-.184581-.13704993-.2315579-.06627089-.5300498.1601568-.675419l13.428-8.105-13.348 7.706c-.23698876.1350471-.53848394.055235-.67761558-.1793791-.13913163-.2346142-.06455352-.5374465.16761558-.6806209l20.593-12.529-20.281 11.706c-.23583577.1260453-.52910097.0442222-.66561588-.1857118-.13651492-.2299339-.06795177-.5265795.15561588-.6732882l23.13-14.122-22.62 13.061c-.23583577.1260453-.52910097.0442222-.66561588-.1857118-.13651492-.2299339-.06795177-.5265795.15561588-.6732882l23.638-14.444-23.128 13.353c-.23701856.1320316-.53608427.0509486-.6739531-.1827228-.13786884-.2336714-.06422739-.5346559.1659531-.6782772l9.766-5.869-9.258 5.341c-.23701856.1320316-.53608427.0509486-.6739531-.1827228-.13786884-.2336714-.06422739-.5346559.1659531-.6782772l11.9-7.17-11.392 6.578c-.23571786.1278172-.53029699.0469384-.66770199-.1833224-.13740501-.2302607-.06871185-.5279174.15570199-.6746776l28.172-17.359-27.66 15.97c-.23638246.1285498-.53210687.0469768-.6691568-.184581-.13704993-.2315579-.06627089-.5300498.1601568-.675419l13.916-8.4-13.407 7.74c-.23628449.1306359-.5336041.0500916-.67163931-.181948s-.06692381-.5317553.16063931-.677052l25.511-15.639-25 14.434c-.23638246.1285498-.53210687.0469768-.6691568-.184581-.13704993-.2315579-.06627089-.5300498.1601568-.675419l14.429-8.717-13.92 8.037c-.23638246.1285498-.53210687.0469768-.6691568-.184581-.13704993-.2315579-.06627089-.5300498.1601568-.675419l14.9-9.008-14.391 8.305c-.23649337.126689-.53082268.0441496-.66695642-.1870361s-.06554462-.5286074.15995642-.6739639l.477-.285c-.24059685.1198278-.53287965.0280016-.66171997-.2078918-.12884031-.2358935-.0481326-.5314396.18271997-.6691082l14.531-8.8-14.022 8.096c-.23546673.1225198-.52563259.0396943-.66094465-.1886614-.13531207-.2283558-.0686058-.5226457.15194465-.6703386l17.217-10.483-16.708 9.646c-.23803473.1402803-.54471967.0610347-.685-.177s-.06103473-.5447197.177-.685l6.311-3.8-5.8 3.349c-.2353357.1240261-.52657993.04207-.66269982-.1864836-.13611989-.2285535-.06945065-.5236725.15169982-.6715164l18.591-11.443-18.083 10.44c-.23520866.125628-.52761522.0445694-.66457305-.1842276-.13695782-.228797-.07026696-.5248112.15157305-.6727724l19.254-11.963-18.741 10.82c-.23455577.1194599-.52156212.036609-.6563687-.1894756s-.07124209-.517969.1453687-.6675244l12.293-7.564-11.783 6.8c-.23628449.1306359-.5336041.0500916-.67163931-.181948s-.06692381-.5317553.16063931-.677052l9.086-5.584-8.575 4.952c-.15344557.09146-.34402845.0941103-.49995791.0069525s-.25351611-.2508822-.256-.4295.09051234-.3449925.24395791-.4364525l9.227-5.7-8.715 5.027c-.2353357.1240261-.52657993.04207-.66269982-.1864836-.13611989-.2285535-.06945065-.5236725.15169982-.6715164l3.776-2.319-3.265 1.884c-.23415271.123715-.52415635.0433988-.66130449-.1831476-.13714814-.2265465-.07386591-.5207372.14430449-.6708524l11.932-7.573-11.415 6.589c-.23448097.1270728-.52742279.0477401-.66573664-.1802909-.13831386-.2280309-.07330581-.5244809.14773664-.6737091l9.706-6.182-9.188 5.3c-.23508655.127347-.52875831.0472199-.66659082-.1818764-.13783251-.2290964-.071048-.5260868.15159082-.6741236l3.35-2.1-2.835 1.641c-.23551248.13196-.53324972.0531389-.67262044-.1780652-.13937073-.2312042-.07004227-.5312938.15662044-.6779348l3.082-1.945-2.566 1.48c-.23223773.1273115-.52346332.0514462-.66406897-.1729923-.14060566-.2244384-.08181009-.5195841.13406897-.6730077l9.37-6.348-8.84 5.1c-.23093065.1317312-.52456739.0597083-.66833375-.1639283s-.0873821-.520673.12833375-.6760717l8.374-5.959-7.834 4.522c-.22906317.1321979-.52145682.063148-.66718057-.1575572-.14572375-.2207053-.09436905-.5167199.11718057-.6754428l6.371-4.779-5.821 3.361c-.23004825.13085689-.52222067.05977797-.6664488-.16213184-.14422813-.22190982-.09054634-.51777331.1224488-.67486816l2.689-1.957-2.144 1.238c-.22531512.13049109-.5130605.06622423-.66144475-.14773124-.14838425-.21395546-.1077334-.50597454.09344475-.67126876l2.6-2.138-1.66.955c-.21989257.1179958-.49312141.05578869-.64025961-.14577049-.14713819-.20155917-.12312958-.48074963.05625961-.65422951l1.537-1.38c-.07162165-.043636-.13084451-.10492479-.172-.178-.13755324-.23865551-.05617205-.54361136.182-.682l2.704-1.566c.22171548-.12780937.50414762-.06757352.65442525.13957286.15027762.20714639.119884.49432665-.07042525.66542714l-.6.539 2.72-1.568c.22502404-.12983267.51198925-.06570465.6603401.14756599s.10865701.50462239-.0913401.67043401l-2.592 2.137 5.119-2.955c.2300482-.13085688.5222207-.05977797.6664488.16213184.1442281.22190982.0905463.51777331-.1224488.67486816l-2.69 1.956 4.842-2.793c.2290632-.13219787.5214568-.06314799.6671806.15755725.1457237.22070524.094369.51671981-.1171806.67544275l-6.365 4.775 9.713-5.608c.2309306-.13173121.5245674-.05970825.6683337.16392831.1437664.22363655.0873821.52067301-.1283337.67607169l-8.377 5.96 11.786-6.8c.2322377-.12731148.5234633-.05144622.664069.17299225.1406056.22443847.0818101.51958413-.134069.67300775l-9.369 6.346 12.462-7.192c.2349709-.1292146.5300387-.05006202.6687925.17940502.1387537.22946704.0717837.52753611-.1517925.67559498l-3.067 1.934 4.835-2.789c.2355125-.13195996.5332497-.0531389.6726204.17806525.1393708.23120415.0700423.53129378-.1566204.67793475l-3.36 2.104 5.13-2.96c.2348642-.13128134.531504-.05316042.6712412.17677323.1397372.22993366.0724576.52921865-.1522412.67722677l-9.7 6.179 12.181-7.033c.234481-.12707284.5274228-.04774006.6657366.18029089.1383139.22803094.0733058.52448086-.1477366.67370911l-11.93 7.569 14.597-8.423c.2357179-.12781718.530297-.04693838.667702.18332235.137405.23026074.0687118.52791741-.155702.67467765l-3.774 2.314 5.501-3.172c.2362075-.13307102.5354329-.05365088.6745599.17904108.1391271.23269196.0674613.53386873-.1615599.67895892l-9.23 5.702 11.37-6.56c.2353357-.12402605.5265799-.04207.6626998.18648356s.0694507.52367252-.1516998.67151644l-9.091 5.585 11.165-6.443c.2353357-.12402605.5265799-.04207.6626998.18648356s.0694507.52367252-.1516998.67151644l-12.278 7.552 14.572-8.41c.2356087-.12976469.5316571-.04987998.6700067.18079238.1383496.23067235.0694166.52946068-.1560067.67620762l-19.262 11.964 22.213-12.821c.2357179-.12781718.530297-.04693838.667702.18332235.137405.23026074.0687118.52791741-.155702.67467765l-18.6 11.442 21.253-12.27c.2370186-.13203157.5360843-.0509486.6739531.18272279s.0642274.53465591-.1659531.67827721l-6.319 3.809 7.55-4.36c.2369888-.13504713.5384839-.05523499.6776156.17937913.1391316.23461413.0645535.53744647-.1676156.68062087l-17.211 10.477 18.25-10.536c.2377586-.14055645.5444435-.06175856.685.17600002.1405564.23775857.0617586.5444435-.176.68499998l-14.534 8.798 15.018-8.668c.2380347-.14000418.5444958-.06053473.6845.1775s.0605347.54449582-.1775.6845l-.414.248.508-.293c.2363825-.12854979.5321069-.0469768.6691568.18458103.1370499.23155784.0662709.53004973-.1601568.67541897l-14.882 9 14.973-8.644c.2359602-.12440737.5280295-.041678.663696.18799355.1356664.22967154.0671501.52539802-.155696.67200645l-14.436 8.721 14.151-8.17c.2372063-.1413849.5441151-.0637063.6855.1735s.0637063.5441151-.1735.6855l-25.5 15.632 25.05-14.467c.2363825-.12854979.5321069-.0469768.6691568.18458103.1370499.23155784.0662709.53004973-.1601568.67541897l-13.916 8.4 13.407-7.736c.2357179-.12781718.530297-.04693838.667702.18332235.137405.23026075.0687118.52791745-.155702.67467765l-28.172 17.358 27.66-15.969c.2370186-.1320316.5360843-.0509486.6739531.1827228s.0642274.5346559-.1659531.6782772l-11.903 7.168 11.395-6.576c.2370186-.1320316.5360843-.0509486.6739531.1827228s.0642274.5346559-.1659531.6782772l-9.766 5.872 9.258-5.344c.2358358-.1260453.529101-.0442222.6656159.1857118.1365149.2299339.0679517.5265795-.1556159.6732882l-23.638 14.443 23.128-13.352c.2358358-.1260453.529101-.0442222.6656159.1857118.1365149.2299339.0679517.5265795-.1556159.6732882l-23.151 14.135 22.641-13.071c.2354667-.1225198.5256326-.0396943.6609447.1886614.135312.2283558.0686058.5226457-.1519447.6703386l-20.58 12.522 20.071-11.588c.2377586-.1405565.5444435-.0617586.685.176.1405564.2377586.0617586.5444435-.176.685l-13.429 8.105 12.92-7.458c.2362845-.1306359.5336041-.0500916.6716393.181948s.0669238.5317553-.1606393.677052l-24.742 15.19 24.231-13.989c.2354667-.1225198.5256326-.0396943.6609447.1886614.135312.2283558.0686058.5226457-.1519447.6703386l-17.523 10.656 17.014-9.823c.2369888-.1350471.5384839-.055235.6776156.1793791.1391316.2346142.0645535.5374465-.1676156.6806209l-18.357 11.201 17.847-10.3c.2347345-.1238045.5252986-.0426548.6619149.1848618.1366163.2275167.0716853.5221296-.1479149.6711382l-24.84 15.492 24.326-14.048c.2347345-.1238045.5252986-.0426548.6619149.1848618.1366163.2275167.0716853.5221296-.1479149.6711382l-21.775 13.616 21.261-12.272c.2353357-.1240261.5265799-.04207.6626998.1864836.1361199.2285535.0694507.5236725-.1516998.6715164l-13.085 8.055 12.575-7.259c.2369888-.1350471.5384839-.055235.6776156.1793791.1391316.2346142.0645535.5374465-.1676156.6806209l-5.538 3.379 5.028-2.9c.2372063-.1413849.5441151-.0637063.6855.1735s.0637063.5441151-.1735.6855l-8.853 5.46 8.341-4.816c.2369888-.1350471.5384839-.055235.6776156.1793791.1391316.2346142.0645535.5374465-.1676156.6806209l-.711.434.2-.116c.234481-.1270728.5274228-.0477401.6657366.1802909.1383139.2280309.0733058.5244809-.1477366.6737091l-13.383 8.521 12.866-7.427c.2356087-.1297647.5316571-.04988.6700067.1807924.1383496.2306723.0694166.5294607-.1560067.6762076l-5.735 3.58 5.219-3.013c.2336556-.130691.5287926-.0541466.6694787.1736308.140686.2277774.0769932.5259521-.1444787.6763692l-12.444 8.204 11.921-6.88c.2349709-.1292146.5300387-.050062.6687925.179405.1387537.2294671.0717837.5275361-.1517925.675595l-3.1 1.956 2.579-1.488c.2347713-.1336383.5332399-.0566316.6740509.1739091.1408109.2305408.0730402.5312411-.1530509.6790909l-4.93 3.186 4.409-2.545c.2313261-.1333882.5266402-.061466.670727.1633522.1440867.2248181.0860887.5231794-.131727.6776478l-8.84 6.259 8.3-4.792c.2299138-.1328235.5235501-.0627731.6687427.1595365s.0912979.5193359-.1227427.6764635l-6.494 4.755 5.953-3.436c.2266506-.1274915.5131906-.0599635.6590607.1553189.1458701.2152823.1023667.5064398-.1000607.6696811l-4.72 3.713 4.147-2.395c.2229237-.1277986.5064223-.0658196.6556784.1433455.1492561.2091652.11567.4974096-.0776784.6666545l-2.867 2.5 1.738-1c.1549945-.0985297.351531-.1041539.5119064-.0146489.1603754.0895049.2587712.2597296.2562855.4433739s-.1054527.3511436-.2681919.436275l-6.213 3.582c-.2225362.1254221-.5038286.0629326-.6523283-.1449156-.1484997-.2078483-.1164484-.49421.0743283-.6640844l2.866-2.5-5.726 3.309c-.2268147.12995-.5154475.0632557-.6622581-.1530278-.1468106-.2162836-.1022433-.50915.1022581-.6719722l4.723-3.714-7.863 4.539c-.2299138.1328235-.5235501.0627731-.6687427-.1595365s-.0912979-.5193359.1227427-.6764635l6.493-4.755-9.686 5.591c-.2306836.128482-.5215078.0554404-.6641078-.1667933s-.0878131-.5170425.1251078-.6732067l8.842-6.26-12.3 7.1c-.2338963.1269547-.5262491.04845-.6650871-.1785941-.1388379-.227044-.0755015-.5230536.1440871-.6734059l4.923-3.182-6.99 4.034c-.2349709.1292146-.5300387.050062-.6687925-.179405-.1387537-.2294671-.0717837-.5275361.1517925-.675595l3.1-1.962-4.876 2.817c-.2329061.1254293-.5232086.0477402-.6623373-.1772508s-.0789338-.5194187.1373373-.6717492l12.445-8.2-15.683 9.049c-.2350866.127347-.5287583.0472199-.6665908-.1818764-.1378325-.2290964-.071048-.5260868.1515908-.6741236l5.733-3.58-7.686 4.436c-.2348642.1312813-.531504.0531604-.6712412-.1767732-.1397372-.2299337-.0724576-.5292187.1522412-.6772268l13.38-8.522-16.24 9.376c-.2362845.1306359-.5336041.0500916-.6716393-.181948s-.0669238-.5317553.1606393-.677052l.715-.437-2.244 1.3c-.2362075.133071-.5354329.0536509-.6745599-.1790411-.1391271-.2326919-.0674613-.5338687.1615599-.6789589l8.847-5.456-10.936 6.31c-.0756184.0452887-.1618652.0697828-.25.071z" fill="#346d94"/><path id="Path" d="m14.407 53.471c-.2231484-.0006196-.4188733-.1490339-.4796865-.3637369s.0280088-.4437133.2176865-.5612631l11.406-7.054-13.703 7.908c-.2349709.1292146-.5300387.050062-.6687925-.179405-.1387537-.2294671-.0717837-.5275361.1517925-.675595l20.441-12.875-22.85 13.192c-.23617349.1361818-.537908.0580681-.67833183-.1756081-.14042384-.2336761-.06777083-.5367718.16333183-.6813919l20.057-12.5-20.184 11.656c-.23583577.1260453-.52910097.0442222-.66561588-.1857118-.13651492-.2299339-.06795177-.5265795.15561588-.6732882l11.368-6.944-10.858 6.269c-.23520866.125628-.52761522.0445694-.66457305-.1842276-.13695782-.228797-.07026696-.5248112.15157305-.6727724l18.581-11.512-18.068 10.43c-.23508655.127347-.52875831.0472199-.66659082-.1818764-.13783251-.2290964-.071048-.5260868.15159082-.6741236l22.422-14.046-21.907 12.648c-.23571786.1278172-.53029699.0469384-.66770199-.1833224-.13740501-.2302607-.06871185-.5279174.15570199-.6746776l17.902-11.076-17.39 10.042c-.23546673.1225198-.52563259.0396943-.66094465-.1886614-.13531207-.2283558-.0686058-.5226457.15194465-.6703386l9.633-5.87-9.124 5.268c-.23520866.125628-.52761522.0445694-.66457305-.1842276-.13695782-.228797-.07026696-.5248112.15157305-.6727724l19.161-11.889-18.648 10.765c-.23620749.133071-.53543293.0536509-.67455995-.1790411-.13912701-.2326919-.06746125-.5338687.16155995-.6789589l19.133-11.871-18.62 10.751c-.23520866.125628-.52761522.0445694-.66457305-.1842276-.13695782-.228797-.07026696-.5248112.15157305-.6727724l19.24-11.941-18.727 10.812c-.23638246.1285498-.53210687.0469768-.6691568-.184581-.13704993-.2315579-.06627089-.5300498.1601568-.675419l7.923-4.818-7.414 4.28c-.23560872.1297647-.5316571.04988-.67000668-.1807924-.13834959-.2306723-.06941665-.5294607.15600668-.6762076l18.37-11.44-17.856 10.309c-.23473446.1238045-.5252986.0426548-.6619149-.1848618-.13661629-.2275167-.07168534-.5221296.1479149-.6711382l15.547-9.7-15.033 8.684c-.2353357.1240261-.52657993.04207-.66269982-.1864836-.13611989-.2285535-.06945065-.5236725.15169982-.6715164l6.824-4.193-6.313 3.645c-.23698876.1350471-.53848394.055235-.67761558-.1793791-.13913163-.2346142-.06455352-.5374465.16761558-.6806209l1.594-.974-1.084.626c-.23620749.133071-.53543293.0536509-.67455995-.1790411-.13912701-.2326919-.06746125-.5338687.16155995-.6789589l6.906-4.287-6.393 3.691c-.23541159.1379583-.53795774.061708-.67986369-.1713453-.14190596-.2330532-.07076502-.5368414.15986369-.6826547l12.64-8.134-12.118 7c-.23303724.1238601-.52221228.0452782-.66051128-.1794907s-.07809589-.5183212.13751128-.6705093l11.554-7.572-11.033 6.373c-.23197343.1243603-.52063851.047588-.66018457-.1755802-.13954607-.2231682-.08218574-.5163086.13118457-.6704198l10.865-7.334-10.337 5.968c-.23265.1288599-.5254615.0530472-.66634439-.1725252s-.08052968-.5219566.13734439-.6744748l7.537-5.084-7.008 4.046c-.23093065.1317312-.52456739.0597083-.66833375-.1639283s-.0873821-.520673.12833375-.6760717l7.267-5.187-6.727 3.883c-.23174266.1353654-.52902013.0636298-.67352428-.1625272-.14450415-.2261571-.08468698-.5260601.13552428-.6794728l3.746-2.633-3.208 1.851c-.22590421.1277621-.51200417.0614438-.65865933-.152678-.14665516-.2141217-.10510389-.5048532.09565933-.669322l4.214-3.4-3.651 2.114c-.22906317.1321979-.52145682.063148-.66718057-.1575572-.14572375-.2207053-.09436905-.5167199.11718057-.6754428l.462-.346c-.2212868.0749404-.46497122-.0133527-.58689551-.2126475-.12192429-.1992947-.08958136-.4564556.07789551-.6193525l1.346-1.308-.749.432c-.21023221.1207224-.4767777.07323887-.63238783-.11265615-.15561014-.18589501-.15544667-.45663687.00038783-.64234385l.55-.651c-.11488637-.03865546-.21141343-.11844166-.271-.224-.13823272-.23887839-.05677133-.54458242.182-.683l1.739-1c.2102322-.12072237.4767777-.07323887.6323878.11265615.1556102.18589501.1554467.45663687-.0003878.64234385l-.224.265 1.768-1.02c.2187434-.12970911.5000021-.0745628.6535686.128145s.1305136.48839317-.0535686.663855l-1.349 1.308 3.635-2.1c.2290632-.13219788.5214568-.06314799.6671806.15755725.1457237.22070523.094369.51671981-.1171806.67544275l-.4.3 1.961-1.133c.2259042-.12776206.5120042-.06144377.6586593.15267798.1466552.21412174.1051039.50485322-.0956593.66932202l-4.216 3.4 7.309-4.222c.2310609-.12980827.523268-.05677568.6660866.16647793.1428185.2232536.086628.51916126-.1280866.67452207l-3.747 2.635 6.022-3.476c.2309306-.13173121.5245674-.05970825.6683337.16392831.1437664.22363655.0873821.52067301-.1283337.67607169l-7.264 5.184 10.435-6.024c.2319734-.12436026.5206385-.04758798.6601846.17558021.139546.22316819.0821857.51630861-.1311846.67041979l-7.537 5.084 10.274-5.93c.2319831-.1309881.5259285-.05707946.6683699.16805269.1424414.22513216.0833463.52241-.1343699.67594731l-10.87 7.334 14.17-8.178c.2330372-.12386012.5222123-.04527822.6605113.17949071.138299.22476892.0780959.51832115-.1375113.67050929l-11.556 7.562 14.575-8.412c.2343611-.12889229.5286543-.05052268.6678755.17785371.1392213.22837639.0740613.52587341-.1478755.67514629l-12.628 8.124 15.556-8.977c.2356087-.12976469.5316571-.04987998.6700067.18079237.1383496.23067236.0694166.52946069-.1560067.67620763l-6.917 4.294 8.923-5.151c.2358358-.12604535.529101-.04422219.6656159.18571176.1365149.22993394.0679517.52657952-.1556159.67328824l-1.587.97 3.167-1.829c.2357179-.12781718.530297-.04693838.667702.18332235.137405.23026074.0687118.52791741-.155702.67467765l-6.812 4.182 8.736-5.04c.2350866-.12734701.5287583-.04721993.6665908.18187644.1378325.22909636.071048.52608673-.1515908.67412356l-15.551 9.696 18.279-10.552c.2361735-.13618181.537908-.05806811.6783318.17560806.1404239.23367616.0677709.53677186-.1633318.68139194l-18.38 11.443 19.649-11.344c.2358358-.12604535.529101-.04422219.6656159.18571176.1365149.22993394.0679517.52657952-.1556159.67328824l-7.916 4.814 7.763-4.482c.2352087-.12562801.5276152-.04456942.664573.18422757.1369579.22879699.070267.52481121-.151573.67277243l-19.24 11.941 18.727-10.812c.2362075-.133071.5354329-.0536509.6745599.1790411.1391271.2326919.0674613.5338687-.1615599.6789589l-19.133 11.872 18.62-10.751c.2352087-.125628.5276152-.0445694.664573.1842276.1369579.228797.070267.5248112-.151573.6727724l-19.161 11.889 18.648-10.766c.2363825-.1285498.5321069-.0469768.6691568.184581.1370499.2315579.0662709.5300498-.1601568.675419l-9.629 5.869 9.125-5.268c.2357179-.1278172.530297-.0469384.667702.1833224.137405.2302607.0687118.5279174-.155702.6746776l-17.907 11.074 17.39-10.04c.2350866-.127347.5287583-.0472199.6665908.1818764.1378325.2290964.071048.5260868-.1515908.6741236l-22.422 14.046 21.907-12.647c.2352087-.125628.5276152-.0445694.664573.1842276.1369579.228797.070267.5248112-.151573.6727724l-18.581 11.512 18.068-10.431c.2369888-.1350471.5384839-.055235.6776156.1793791.1391316.2346142.0645535.5374465-.1676156.6806209l-11.368 6.943 10.858-6.269c.2369302-.1419372.5440628-.0649301.686.172.1419371.2369302.0649301.5440628-.172.686l-20.064 12.502 19.55-11.287c.2346058-.1253855.5263122-.0451285.6637604.18262.1374483.2277485.0725112.523243-.1477604.67238l-20.436 12.874 19.918-11.5c.2357179-.1278172.530297-.0469384.667702.1833224.137405.2302607.0687118.5279174-.155702.6746776l-11.385 7.043 10.875-6.275c.2361735-.1361818.537908-.0580681.6783318.1756081.1404239.2336761.0677709.5367718-.1633318.6813919l-12.635 7.903 12.123-7c.2343611-.1288923.5286543-.0505227.6678755.1778537.1392213.2283764.0740613.5258734-.1478755.6751463l-14.961 9.6 14.438-8.332c.2354116-.1379583.5379577-.061708.6798637.1713453.1419059.2330532.070765.5368414-.1598637.6826547l-11.863 7.625 11.343-6.548c.2336556-.130691.5287926-.0541466.6694787.1736308.140686.2277774.0769932.5259521-.1444787.6763692l-11.665 7.683 11.14-6.431c.2349709-.1292146.5300387-.050062.6687925.179405.1387537.2294671.0717837.5275361-.1517925.675595l-3.128 1.983 2.611-1.507c.2363779-.1427656.5437344-.0668778.6865.1695.1427656.2363779.0668779.5437344-.1695.6865l-.916.58.4-.231c.2347713-.1336383.5332399-.0566316.6740509.1739091.1408109.2305408.0730402.5312411-.1530509.6790909l-2.193 1.415 1.672-.965c.2305507-.1302945.5227069-.0582293.6662193.1643342.1435123.2225634.0886.5184238-.1252193.6746658l-7.195 5.155 6.654-3.841c.22978-.1349572.525025-.0659893.6712375.156798s.0920063.5210957-.1232375.678202l-5 3.7 4.45-2.57c.2300482-.1308569.5222207-.059778.6664488.1621318.1442281.2219099.0905463.5177734-.1224488.6748682l-1.871 1.36 1.329-.768c.2219765-.128183.5049351-.0677387.6551637.1399529.1502285.2076917.1190618.4953507-.0721637.6660471l-2.578 2.3 1.995-1.151c.2034689-.1174438.4612594-.0773942.6195066.0962447.1582471.173639.1742651.4340297.0384934.6257553l-1.216 1.723.466-.268c.1549945-.0985297.351531-.1041539.5119064-.0146489.1603754.0895049.2587712.2597296.2562855.4433739s-.1054527.3511436-.2681919.436275l-2.442 1.403c-.2032327.116567-.4601535.0763831-.6180877-.0966724s-.1745245-.43257-.0399123-.6243276l1.216-1.718-4.226 2.439c-.2197759.1165123-.4917776.0537473-.6382794-.1472845-.1465019-.2010317-.1229447-.4791853.0552794-.6527155l2.577-2.3-5.381 3.1c-.2300482.1308569-.5222207.059778-.6664488-.1621318-.1442281-.2219099-.0905463-.5177734.1224488-.6748682l1.866-1.356-3.8 2.193c-.22978.1349572-.525025.0659893-.6712375-.156798s-.0920063-.5210957.1232375-.678202l5-3.7-7.856 4.535c-.2305507.1302945-.5227069.0582293-.6662193-.1643342-.1435123-.2225634-.0886-.5184238.1252193-.6746658l7.191-5.152-10.379 5.991c-.2342478.1308833-.5300435.0535271-.6702262-.1752769s-.074765-.527467.1482262-.6767231l2.188-1.411-3.922 2.263c-.2354379.13455-.5352149.0569022-.6757281-.1750261-.1405133-.2319283-.0705395-.5335888.1577281-.6799739l.911-.576-2.481 1.431c-.234481.1270728-.5274228.0477401-.6657366-.1802909-.1383139-.2280309-.0733058-.5244809.1477366-.6737091l3.121-1.979-4.908 2.833c-.2336556.130691-.5287926.0541466-.6694787-.1736308-.140686-.2277774-.0769932-.5259521.1444787-.6763692l11.668-7.685-14.786 8.535c-.2343611.1288923-.5286543.0505227-.6678755-.1778537-.1392213-.2283764-.0740613-.5258734.1478755-.6751463l11.848-7.615-14.67 8.468c-.2347713.1336383-.5332399.0566316-.6740509-.1739091-.1408109-.2305408-.0730402-.5312411.1530509-.6790909l14.961-9.6-18.112 10.453c-.2355125.13196-.5332497.0531389-.6726204-.1780652-.1393708-.2312042-.0700423-.5312938.1566204-.6779348l12.636-7.906-15.178 8.762c-.0756184.0452887-.1618652.0697828-.25.071z" fill="#4d8aab"/><path id="Path" d="m22.805 48.471c-.2104826.0006663-.3988438-.1305561-.4711525-.3282296-.0723086-.1976735-.013079-.4194642.1481525-.5547704l.83-.7-2.476 1.428c-.2269587.1282325-.5143539.0605795-.6602778-.1554298-.145924-.2160093-.1014061-.5078844.1022778-.6705702l1.748-1.366-2.674 1.544c-.2312043.1356861-.5282776.0648879-.6734329-.160492-.1451554-.2253799-.0867349-.525133.1324329-.679508l.445-.317-.572.33c-.2279124.1308241-.5182022.0628918-.6643976-.1554793-.1461953-.2183711-.0983971-.512647.1093976-.6735207l2.294-1.76-2.132 1.23c-.2180963.1257781-.4956948.0697764-.6479698-.1307191-.1522751-.2004955-.1317242-.4829397.0479698-.6592809l2.319-2.271-1.73 1c-.2159307.1231341-.4895276.0689462-.642223-.1271971-.1526954-.1961432-.1381159-.4746734.034223-.6538029l.447-.459c-.1712722.0307843-.3462312-.0296945-.4619303-.1596774-.1156991-.129983-.1554949-.3107718-.1050697-.4773226l.238-.788c-.1581875-.0868222-.257321-.2521434-.2593926-.4325793s.0932401-.3479895.2493926-.4384207l.5-.29c.1775379-.1026213.399737-.0864357.5605292.0408305.1607922.1272663.2275756.339809.1684708.5361695l-.137.452 1.8-1.036c.2159307-.1231341.4895276-.0689462.642223.1271971.1526954.1961432.1381159.4746734-.034223.6538029l-.37.381 2.025-1.169c.2180963-.1257781.4956948-.0697764.6479698.1307191.1522751.2004955.1317242.4829397-.0479698.6592809l-2.318 2.272 5.322-3.073c.2279124-.1308241.5182022-.0628918.6643976.1554793.1461953.2183711.0983971.512647-.1093976.6735207l-2.294 1.76 2.922-1.686c.2312043-.1356861.5282776-.0648879.6734329.160492.1451554.2253799.0867349.525133-.1324329.679508l-.484.344c.2306995-.0950933.4961942-.0055384.6221597.2098627.1259656.2154012.0738363.4907011-.1221597.6451373l-1.75 1.367 1.193-.688c.2245855-.1309436.5120466-.0679354.6612702.144943.1492235.2128783.1104168.5045939-.0892702.671057l-.824.693.252-.145c.2121584-.1214824.4810525-.071733.6357028.1176145.1546503.1893474.1497002.4627602-.0117028.6463855l-.874.984c.1880798.0601072.3231721.2252702.3447871.4215345s-.0742959.3868681-.2447871.4864655l-1.925 1.112c-.2121584.1214824-.4810525.071733-.6357028-.1176145-.1546503-.1893474-.1497002-.4627602.0117028-.6463855l.526-.593-2.494 1.434c-.0754237.0457373-.1617951.0702668-.25.071z" fill="#bbc1ce"/><path id="Path" d="m39.21 48.471c-.2046347.0004507-.3888891-.123839-.4651166-.3137467-.0762274-.1899077-.0290398-.4070965.1191166-.5482533l1.757-1.68-4.049 2.338c-.2233557.1231987-.5036424.0585132-.65042-.1501061-.1467777-.2086193-.112984-.4942813.07842-.6628939l3.558-3.05-4.69 2.707c-.2296891.1296297-.5205695.0585592-.6646041-.1623819s-.0916869-.5157667.1196041-.6736181l1.654-1.209-1.583.913c-.2229237.1277986-.5064223.0658196-.6556784-.1433455-.1492561-.2091652-.11567-.4974096.0776784-.6666545l2.421-2.094-1.957 1.125c-.2068255.1177772-.4680042.0734377-.6243729-.1059978-.1563687-.1794354-.1645788-.4442239-.0196271-.6330022l1.346-1.734-.7.405c-.1773075.1016337-.3986198.0851295-.5588915-.0416788-.1602716-.1268084-.227236-.3383912-.1691085-.5343212l.239-.8c-.1587886-.0864926-.2585078-.251977-.2607886-.4327796-.0022807-.1808027.0932323-.3487498.2497886-.4392204l.5-.29c.1773581-.1023195.3991769-.0861624.5598359.040778s.2276854.3390067.1691641.535222l-.14.468 1.821-1.051c.2068846-.1189418.4689871-.0751042.6259077.1046854.1569206.1797897.1649156.4454126.0190923.6343146l-1.346 1.734 4.3-2.484c.2231941-.1282474.5072862-.0660776.6565145.1436697s.1148202.4985197-.0795145.6673303l-2.42 2.091 5.052-2.91c.2296891-.1296297.5205695-.0585592.6646041.1623819s.0916869.5157667-.1196041.6736181l-1.653 1.209 1.331-.767c.2233421-.1266456.5063058-.0635478.6546834.1459871.1483776.209535.1139372.4973954-.0796834.6660129l-3.557 3.049 2.983-1.722c.219385-.1342545.5048344-.0801688.6599003.1250351.1550659.2052038.1291551.4945743-.0599003.6689649l-1.754 1.679 1.107-.64c.2155591-.1245112.4898785-.0714871.6435094.1243861.153631.1958731.1397727.4749262-.0325094.6546139l-.716.747c.0777473.0430533.1421087.1067227.186.184.1380647.2391402.0561341.5449248-.183.683l-1.925 1.112c-.2153349.1244465-.4894005.0717052-.6431691-.1237719-.1537685-.1954771-.1404869-.4742551.0311691-.6542281l.1-.107-1.678.962c-.0754237.0457373-.1617951.0702668-.25.071z" fill="#bbc1ce"/><path id="Path" d="m22.281 44.471c-.2107612-.0000092-.3988857-.1321781-.470354-.3304521-.0714682-.1982739-.0109321-.420073.151354-.5545479l1.12-.928-2.716 1.568c-.225024.1298327-.5119893.0657046-.6603401-.147566s-.108657-.5046224.0913401-.670434l3.318-2.754-4.252 2.454c-.2280542.1290416-.517047.0601323-.6623353-.1579314-.1452882-.2180638-.0975826-.5113034.1093353-.6720686l3.2-2.444-3.182 1.836c-.2256086.1271264-.5109479.0609576-.657579-.1524896-.1466312-.2134471-.106025-.5035297.093579-.6685104l4.941-4-4.425 2.551c-.227871.1265147-.5147039.056766-.6590373-.1602571s-.0977476-.5085154.1070373-.6697429l3.726-2.842-3.174 1.836c-.2293391.1285228-.5190351.0574922-.6629121-.1625395s-.0927858-.5139004.1169121-.6724605l2.571-1.885-2.025 1.168c-.2263606.1309251-.5153721.0653166-.6630162-.1505114-.1476442-.2158279-.1040467-.5089685.1000162-.6724886l4.872-3.915-4.309 2.487c-.2281943.1273484-.5159664.0574929-.6603781-.1603041-.1444117-.2177969-.0967481-.5100652.1093781-.6706959l3.5-2.647-2.949 1.7c-.2280542.1290416-.517047.0601323-.6623353-.1579314-.1452882-.2180638-.0975826-.5113034.1093353-.6720686l3.835-2.937-3.283 1.895c-.2309506.1251572-.5193699.0502601-.6602447-.1714532-.1408749-.2217132-.0861633-.5146329.1252447-.6705468l.4-.28c-.2285373.0542974-.4640569-.0578115-.5660176-.2694279-.1019606-.2116164-.0428672-.4656752.1420176-.6105721l4.426-3.477-3.868 2.232c-.2281943.1273484-.5159664.0574929-.6603781-.1603041-.1444117-.2177969-.0967481-.5100652.1093781-.6706959l3.563-2.7-3.012 1.738c-.2322938.1351768-.5298928.0625367-.6737842-.164462-.1438914-.2269988-.0825928-.5271392.1387842-.679538l.369-.255c-.1959609.0300343-.3914098-.0571359-.5-.223-.1442288-.2239959-.0874949-.5217388.129-.677l1.659-1.191-1.124.648c-.2313261.1333882-.5266402.061466-.670727-.1633522-.1440867-.2248181-.0860887-.5231794.131727-.6776478l1.062-.75-.523.3c-.2285233.1282497-.5172952.0583047-.6618051-.1602995-.14451-.2186041-.095725-.5116937.1118051-.6717005l2.947-2.214-2.4 1.383c-.2309306.1317312-.5245674.0597083-.6683337-.1639283-.1437664-.2236366-.0873821-.520673.1283337-.6760717l.468-.333c-.2305766.0881815-.4910007-.0051146-.6131295-.2196516-.1221287-.214537-.0694053-.4860974.1241295-.6393484l2.056-1.635-1.5.863c-.2201191.1211079-.4959248.0600693-.6443868-.1426092s-.1234717-.48405.0583868-.6573908l1.29-1.171-.651.376c-.2154812.1230022-.4885691.0693794-.6415393-.1259712-.1529702-.1953505-.1395447-.4733291.0315393-.6530288l.709-.738c-.07691-.0430315-.1405501-.1063257-.184-.183-.1380647-.2391402-.0561341-.5449248.183-.683l1.934-1.116c.2155591-.1245112.4898785-.0714871.6435094.1243861.153631.1958731.1397727.4749262-.0325094.6546139l-.086.089 1.652-.945c.2201191-.1211079.4959248-.0600693.6443868.1426092s.1234717.48405-.0583868.6573908l-1.29 1.171 3.29-1.9c.2266681-.1317558.5166136-.0660514.6643416.1505461.1477279.2165976.1030619.5105201-.1023416.6734539l-2.06 1.637 3.072-1.774c.2309306-.1317312.5245674-.0597083.6683337.1639283.1437664.2236366.0873821.520673-.1283337.6760717l-.412.294.522-.3c.2287194-.1310429.5198877-.0620127.6654353.1577616.1455476.2197742.0954752.5147944-.1144353.6742384l-2.946 2.213 2.775-1.6c.2313261-.1333882.5266402-.061466.670727.1633522.1440867.2248181.0860887.5231794-.131727.6776478l-1.062.751.523-.3c.2305507-.1302945.5227069-.0582293.6662193.1643342.1435123.2225634.0886.5184238-.1252193.6746658l-1.661 1.189 1.124-.648c.23158-.1294027.5239091-.0554223.6660571.1685604.142148.2239828.0846277.5199909-.1310571.6744396l-.369.256c.1946485-.0307707.3895311.0538084.5.217.1456949.2203198.0948887.5159597-.116.675l-3.566 2.7 3.012-1.738c.2269587-.1282325.5143539-.0605795.6602778.1554298.145924.2160093.1014061.5078844-.1022778.6705702l-4.429 3.48 3.871-2.234c.23158-.1294027.5239091-.0554223.6660571.1685604.142148.2239828.0846277.5199909-.1310571.6744396l-.4.277c.2299221-.0542553.4664439.0598127.5671375.2735149.1006935.2137021.0380794.4687189-.1501375.6114851l-3.839 2.94 3.287-1.9c.2281943-.1273484.5159664-.0574929.6603781.1603041.1444117.2177969.0967481.5100652-.1093781.6706959l-3.5 2.646 2.949-1.7c.2259042-.1277621.5120042-.0614438.6586593.152678.1466552.2141217.1051039.5048532-.0956593.669322l-4.871 3.922 4.309-2.487c.2299138-.1328235.5235501-.0627731.6687427.1595365s.0912979.5193359-.1227427.6764635l-2.567 1.877 2.02-1.166c.227871-.1265147.5147039-.056766.6590373.1602571s.0977476.5085154-.1070373.6697429l-3.726 2.842 3.175-1.832c.2256086-.1271264.5109479-.0609576.657579.1524896.1466312.2134471.106025.5035297-.093579.6685104l-4.943 4 4.379-2.527c.2280542-.1290416.517047-.0601323.6623353.1579314.1452882.2180638.0975826.5113034-.1093353.6720686l-3.195 2.44 2.642-1.524c.2245986-.1270093.5089574-.0622563.656419.1494768.1474617.2117332.109592.5009023-.087419.6675232l-3.321 2.757 2.752-1.588c.225024-.1298327.5119893-.0657046.6603401.147566s.108657.5046224-.0913401.670434l-1.117.925.548-.316c.2134326-.1213489.4833915-.0697812.6370683.1216932.1536769.1914744.1455966.4661956-.0190683.6483068l-.9.981c.2368665-.0319413.4632158.1082215.5401845.3344997.0769686.2262781-.0169697.475387-.2241845.5945003l-2.546 1.467c-.2134326.1213489-.4833915.0697812-.6370683-.1216932-.1536769-.1914744-.1455966-.4661956.0190683-.6483068l.812-.887-2.872 1.657c-.0754832.0456007-.1618163.0701194-.25.071z" fill="#f2f4f7"/><path id="Path" d="m38.828 44.471c-.201814-.0000404-.3838177-.1214024-.4614385-.3076923s-.0356386-.4009794.1064385-.5443077l2.537-2.569-5.141 2.968c-.2268147.12995-.5154475.0632557-.6622581-.1530278-.1468106-.2162836-.1022433-.50915.1022581-.6719722l3.01-2.385-3.605 2.081c-.2290632.1321979-.5214568.063148-.6671806-.1575572-.1457237-.2207053-.094369-.5167199.1171806-.6754428l2.85-2.137-2.722 1.57c-.2295527.1314921-.521805.0614183-.6667704-.1598726-.1449654-.2212908-.0924688-.5172061.1197704-.6751274l2.687-1.977-2.152 1.241c-.226507.1291681-.5142486.0625855-.6609917-.1529516-.1467432-.2155372-.103215-.5076567.0999917-.6710484l4.687-3.731-4.126 2.382c-.227731.1281621-.5157443.059345-.6609391-.1579231-.1451949-.217268-.0985947-.509699.1069391-.6710769l3.9-2.993-3.346 1.931c-.2271272.1307942-.5167067.0640046-.6636035-.1530559-.1468968-.2170604-.1012506-.5107158.1046035-.6729441l4.537-3.584-3.978 2.3c-.2290632.1321979-.5214568.063148-.6671806-.1575572-.1457237-.2207053-.094369-.5167199.1171806-.6754428l3.187-2.382-2.637 1.518c-.227731.1281621-.5157443.059345-.6609391-.1579231-.1451949-.217268-.0985947-.509699.1069391-.6710769l3.921-3.018-3.368 1.944c-.230817.1267753-.5204005.0527915-.6621232-.1691615-.1417226-.221953-.0869993-.5157856.1251232-.6718385l.739-.52-.2.116c-.2274132.1273482-.5145055.05864-.6596263-.1578646-.1451209-.2165046-.0995839-.5081708.1046263-.6701354l4.081-3.157-3.526 2.035c-.2267918.1258849-.5121894.0574365-.6572109-.1576223-.1450215-.2150589-.1015044-.5053056.1002109-.6683777l4.333-3.391-3.776 2.18c-.2290632.1321979-.5214568.063148-.6671806-.1575572-.1457237-.2207053-.094369-.5167199.1171806-.6754428l3.207-2.4-2.657 1.533c-.2288588.1292299-.518701.0592157-.6633326-.1602346-.1446317-.2194502-.0946742-.513414.1143326-.6727654l3.123-2.33-2.576 1.491c-.2296891.1296297-.5205695.0585592-.6646041-.1623819s-.0916869-.5157667.1196041-.6736181l2.248-1.644-1.7.983c-.2245986.1270093-.5089574.0622563-.656419-.1494768-.1474617-.2117332-.109592-.5009023.087419-.6675232l3.98-3.3-3.411 1.97c-.2187434.1297091-.5000021.0745628-.6535686-.128145s-.1305136-.4883932.0535686-.663855l2.7-2.612-2.1 1.213c-.2088997.1188201-.4727821.0722109-.6283375-.1109825-.1555554-.1831933-.1587734-.4511411-.0076625-.6380175l1.005-1.23c-.2199233-.0140955-.4046861-.1705145-.4548781-.3850972-.0501921-.2145826.0460232-.436724.2368781-.5469028l1.934-1.116c.2089623-.1200463.4738237-.0739562.6299505.1096215s.1590908.4524031.0070495.6393785l-.855 1.046 3.244-1.873c.2187434-.1297091.5000021-.0745628.6535686.128145s.1305136.4883932-.0535686.663855l-2.701 2.608 5.019-2.9c.2245986-.1270093.5089574-.0622563.656419.1494768.1474617.2117332.109592.5009023-.087419.6675232l-3.982 3.3 4.618-2.665c.2296891-.1296297.5205695-.0585592.6646041.1623819s.0916869.5157667-.1196041.6736181l-2.247 1.642 1.906-1.1c.2288588-.1292299.518701-.0592157.6633326.1602346.1446317.2194502.0946742.513414-.1143326.6727654l-3.127 2.337 2.578-1.488c.2290632-.1321979.5214568-.063148.6671806.1575572.1457237.2207053.094369.5167199-.1171806.6754428l-3.2 2.395 2.653-1.53c.2267918-.1258849.5121894-.0574365.6572109.1576223.1450215.2150589.1015044.5053056-.1002109.6683777l-4.339 3.394 3.779-2.18c.2274132-.1273482.5145055-.05864.6596263.1578646.1451209.2165046.0995839.5081708-.1046263.6701354l-4.075 3.154 3.52-2.032c.2314518-.1313128.5252013-.0583356.6682918.1660259.1430904.2243616.0853808.5214879-.1312918.6759741l-.739.519.2-.116c.227731-.1281621.5157443-.059345.6609391.1579231.1451949.217268.0985947.509699-.1069391.6710769l-3.921 3.014 3.368-1.945c.2290632-.1321979.5214568-.063148.6671806.1575572.1457237.2207053.094369.5167199-.1171806.6754428l-3.189 2.384 2.641-1.523c.2266506-.1274915.5131906-.0599635.6590607.1553189.1458701.2152823.1023667.5064398-.1000607.6696811l-4.534 3.582 3.975-2.3c.227731-.1281621.5157443-.059345.6609391.1579231.1451949.217268.0985947.509699-.1069391.6710769l-3.9 2.993 3.344-1.93c.2264785-.1308181.5155081-.0649908.663.151.1479706.2159246.1043595.5094276-.1.673l-4.682 3.74 4.126-2.382c.2295527-.1314921.521805-.0614183.6667704.1598726.1449654.2212908.0924688.5172061-.1197704.6751274l-2.687 1.979 2.14-1.235c.2288824-.1321893.5211118-.0634037.667.157.1461203.2207724.0948193.5171787-.117.676l-2.853 2.13 2.3-1.326c.2263468-.1267998.5120755-.0594093.6579064.1551704.1458308.2145797.1033101.5050523-.0979064.6688296l-3.01 2.386 2.45-1.414c.2166127-.1233895.4910237-.0683675.6433231.1289924.1522993.1973599.1359526.4767549-.0383231.6550076l-2.538 2.571 1.931-1.115c.2126491-.1227903.4829898-.0729918.6379285.1175105.1549386.1905024.1486122.4653186-.0149285.6484895l-.864.969c.185571.0632976.31702.2292162.3361884.4243463s-.0774818.3834557-.2471884.4816537l-1.925 1.112c-.2123689.1214471-.4814292.0713915-.6359136-.1183044-.1544843-.1896959-.1490205-.4633181.0129136-.6466956l.5-.566-2.443 1.408c-.0754237.0457373-.1617951.0702668-.25.071z" fill="#f2f4f7"/><g fill="#262626"><path id="Shape" d="m58.958 2.812c.137-.268-.108-.438-.445-.484-1.1744055-1.04380619-2.6775709-1.64287844-4.248-1.693-7.06-.565-14.393 0-21.472 0-8 0-16.165-.491-24.149 0-1.80758155.00327247-3.55428054.65349571-4.924 1.833-.421.118-.821.374-.638.557l.064.064c-1.619 2.042-1.87 5.118-1.87 8.388v28.893c0 4.275-1.553 13.049 1.805 16.99 0 .026.015.046.045.06.53314347.6210317 1.20207882 1.111014 1.955 1.432 2.208.934 5.217.513 7.538.513h41.087c.031891-.0029915.0636018-.0076646.095-.014h.086c1.6228466-.085627 3.1729295-.7006724 4.413-1.751.439-.111.844-.4.615-.644 2.259-2.8 1.809-7.508 1.809-11.534v-29.668c0-4.16.812-9.854-1.766-12.942zm-37.512-1.447h25.987c2.019 0 4.146-.192 6.159 0 1.367409.07355845 2.6666487.62047651 3.675 1.547-1.354 1.35266667-2.7076667 2.70633333-4.061 4.061-2.056-1.178-5.631-.49-7.889-.49h-26.093c-2.446 0-7.565-.973-10.288.51l-4.045-4.045c4.018-2.973 12.514-1.583 16.555-1.583zm-12.713 49.463v-36.587c0-1.406-.484-3.831 0-5.176.779-2.163 2.772-1.549 4.593-1.549h31.855c1.737 0 4.824-.617 6.474 0 3.267 1.223 1.612 10.708 1.612 13.331v22.688c0 2.084.442 4.728 0 6.772-.453 2.093-1.267 1.993-3.059 2.176-7.358.77-15.233 0-22.626 0h-12.214c-1.918 0-5.908.936-6.635-1.655zm-6.009-43.908c.07365614-1.11825702.49063031-2.18653506 1.194-3.059l3.973 3.973c-.2961568.35708051-.50929068.77549237-.624 1.225-.475 1.855 0 4.487 0 6.38v35.62c0 .015.009.024.01.038-.00478645.0331615-.00478645.0668385 0 .1.12520584.4692148.3722154.8969968.716 1.24-.01973566.0102495-.03848202.0223007-.056.036l-3.957 3.952c-1.486-1.945-1.256-4.413-1.256-6.754v-24.34c0-6.05-.545-12.381 0-18.411zm9.853 51.715c-2.684 0-5.925.438-8.044-1.573l4.118-4.119c2.813 1.7 8.843.573 11.292.573h25.98c2.274 0 5.28.56 7.149-.484l4.354 4.354c-.9210192.7346629-2.0444854 1.1704422-3.22 1.249zm45.729-2.289-4.225-4.225c.3460599-.4960361.5698237-1.0669249.653-1.666 1.059-6.636 0-14.3 0-21.014v-12.976c0-2.287.391-4.983 0-7.247-.085243-.54173221-.3064714-1.05300038-.643-1.486l3.919-3.92c.8914663 1.54567148 1.3304976 3.31080607 1.267 5.094.11 8.584 0 17.177 0 25.763v13.612c-.001 2.568.387 5.872-.971 8.065z"/><path id="Shape" d="m17.264 37.874c0 .789-.014 1.561.025 2.286 0 .012-.013.022-.013.034 0 1.83-.456 4.3.187 6.047.931 2.53 3.878 2.093 6.012 2.093s4.691-.389 5.2-2.909c.1991781-1.3820726.2327486-2.7829733.1-4.173.529-2.288-.032-5.4-.032-7.494v-13.768c0-2.511.479-5.276-.992-7.414-.0262415-.1038685-.094787-.1919983-.189-.243-.021-.013-.048-.025-.07-.038s-.021-.013-.032-.018c-2.265-1.316-7.255-1.692-9.185.37-1.973 2.107-1 7.054-1 9.6zm7.987 9.792c-.7798106.0689855-1.5641894.0689855-2.344 0-2.336 0-4.114-.628-4.183-3.313 0-.223 0-.447 0-.67.6006339.4449593 1.2979135.7416886 2.035.866.0534993.005994.1075007.005994.161 0h.026c2.074 0 4.666.379 6.338-.849v.917c-.036 1.414-.32 2.723-2.033 3.049zm-6.515-31.3c.419-3.524 4.47-5.1 7.644-3.206 1.377 1.947.884 4.69.884 6.927v10.936c.1655002 2.8679477.1655002 5.7430523 0 8.611-.414 3.486-2.968 3.8-6.044 3.81-1.662-.348-2.29-1.623-2.5-3.1 0-.179 0-.359 0-.538-.0030697-.0422793-.0303733-.078944-.07-.094-.093-1.362.082-2.8.082-3.8v-10.935c-.164168-2.8680246-.1628324-5.7431292.004-8.611z"/><path id="Shape" d="m33.276 38.982c0 .384.019.731.048 1.062-.0279816.0453427-.0444595.0968361-.048.15 0 1.835-.451 4.292.187 6.047.934 2.57 3.864 2.161 6.03 2.161s4.682-.415 5.182-2.956c.1997725-1.7373429.2188747-3.4907171.057-5.232.385-2.182-.008-4.837-.008-7.054v-18.354c-.742-3.678-6.382-4.2-9.383-2.648-3.162 1.633-2.065 6.878-2.065 9.777zm10 5.641c-.032 1.4-.2 2.664-2.186 2.975-.8598292.0635012-1.7231708.0635012-2.583 0-1.134 0-2.291.054-3.128-.946-.5091843-.6975817-.7424735-1.5587927-.655-2.418-.006-.32 0-.641 0-.962 1.214.97 3.167 1.04 5.741 1.041.1369864.0213386.2769019.0141896.411-.021.8950643-.1535524 1.7300065-.5523307 2.412-1.152-.004.494-.001.989-.012 1.483zm-8.552-27.883c.023-.832-.2-2.268.228-3.029 1.729-3.068 7.791-1.155 8.324 1.483v13.5c0 1.723.745 7.358.147 11.223-.0846596.0684767-.1377444.1685074-.147.277v.492c-.348 1.579-.984 2.741-2.085 3-2.617.024-5.628.334-6.469-2.883 0-.011 0-.024 0-.035 0-.322 0-.644 0-.965 0-.022-.018-.034-.024-.052.0193949-.1993815.0274079-.3997064.024-.6-.143-3.768 0-7.573 0-11.343.002-3.685-.1-7.386.002-11.068z"/></g></g></svg>