<svg id="Layer_1" enable-background="new 0 0 91 91" height="512" viewBox="0 0 91 91" width="512" xmlns="http://www.w3.org/2000/svg"><g><path d="m21.4 27.5c1.9-1.1 3.7-2.4 5.7-3.3 3.1-1.5 6.5-2 9.9-2.4 6.9-.9 14.1-1.3 20.6 1 2.5.9 5.1 2.7 5.4 5.3.1.7 0 1.4.4 2s1.2.7 2 .8c3.1.3 6.3.4 9.5.3 3.1-.1 6.3-.5 9.1.8s4.7 5 3 7.5c-1.4 2-4.1 2.3-6.6 2.3-4.6.1-9.1.3-13.7.4-1.6.1-3.6.6-3.7 2.1 0 .7.5 1.4.8 2.1.6 1.5-.3 3.4-1.9 4-1.3.5-2.9.1-3.9 1-1.5 1.4-.3 3.9-1 5.8-.9 2.5-2.9 2.5-3.9 3.9-1.5 2-.3 4.5-1.7 6.5-1.1 1.6-3.2 1.9-5.1 2-4.6.3-9.2.1-13.8-.5-2.4-.3-4.7-.8-7-1.6-2.4-.9-4.7-2.2-7-3.2-3.7-1.7-7.7-2.7-11.7-3.1-1.6-.2-3.2-.2-4.2-1.2-2-1.9-2.6-26.3-.4-28.5 1.8-1.8 5.8-.4 8.1-.6 3.9-.3 7.7-1.5 11.1-3.4z" fill="#f9e7cf"/><path d="m57.7 40.3c-1-.1-2.2.4-2.5 1.3-.3 1 .6 2 1.4 2.8.7.7 1.4 1.5 1.9 2.4.6.9 1.1 2.2.5 3.1-.9 1.3-3.2.5-4.5 1.5.6.8 1.3 1.7 1.2 2.7-.1 1.1-.9 2-1.9 2.4s-2.1.6-3.1.8c-.9.2-2.5.6-2.6 1.5s.1 2.1.8 2.7c.7.5 2.7.7 2.4 1.5.5.2 1.1 0 1.5-.4s.6-.9.9-1.3c.9-1.1 2.3-1.5 3.3-2.5 1.3-1.4 1.2-3.5 1.1-5.4 0-.3 0-.7.1-1 .1-.2.3-.4.6-.6 1.8-1.2 4.5-.6 5.7-2.3.6-.8.6-1.8.5-2.8-.6-4.2-3.4-6.2-7.3-6.4z" fill="#e2c5b4"/><path d="m18.3 58.3c1.6.3 7 3.6 8.3 4.3 3.8 2.2 8 3.5 12.2 3.5s7.1-.1 10.8-2.2c.4-.2 1-.5 1.3-.2.1.1.2.3.3.4.8 2-.3 4.4-2.1 5.5-1.8 1.2-4 1.5-6.2 1.5-1.9.1-3.8 0-5.6-.3-8.7-1.4-15.8-8.2-24.6-9.4-3.2-.4-10.9.9-11.7-2.1.9-2 8.2-2.9 17.3-1z" fill="#e2c5b4"/><path d="m25.3 30.5c4.5-1.6 9-3.5 13.8-3.7 6.5-.2 12.5.4 19.3 1.3.9.1 1.7-.6 2.2-1.3.5-.9.1-2.1-.7-2.8s-1.8-1-2.8-1.3c-10.8-3-22.6-1.8-32.6 3.2-1.9.9-3.7 2-5.7 2.7-1.9.7-4.1 1-5.9 1.8-2 .9-2.4 2 0 2.3 4.1.6 8.5-.8 12.4-2.2z" fill="#fff"/><path d="m58.2 38.2c-1 .1-2 .7-2.7 1.5-.6.8-.7 2.8.1 3.4.6.4 2.1.3 2.8.2 4.1-.6 8.3-.8 12.4-.5 4.3.2 8.7.9 12.7-.5 2.2-.8 4.3-2.3 4.7-4.6.3-1.6-1.5-6.4-3.8-4.7-.6.4-.6 1.8-1 2.5-.8 1.3-2 1.5-3.4 1.7-7 .8-13.2 0-21.8 1z" fill="#e2c5b4"/><g fill="#4e7a9f"><path d="m3.8 33.1c4.8.2 9.9-.3 14.5-1.8 5-1.6 9.1-4.9 14.1-6.3s10.2-1.3 15.3-.9c4.5.4 12.3.2 13.3 5.9.5 3 5 1.7 4.5-1.2-.9-5.1-5.6-7.7-10.3-8.5-5.7-1-11.9-1.4-17.7-.9-5.9.6-10.7 2.8-15.9 5.5-5.8 3-11.9 3.2-18.3 4.2-2.4.4-1.7 3.9.5 4z"/><path d="m41.8 32.1c5.7 1.6 12.2 1 18 1 6.3.1 12.5 0 18.8.3 2 .1 9.5 1.3 6.3 4.8-1.5 1.7-4.7 1.6-6.7 1.6-6.3.1-12.5.6-18.8 0-2.8-.3-3.1 4-.6 4.8 2.4.8 3 3.5.3 4-1.4.3-2.8.2-4.2.3-2 .1-3.2 2.6-1.7 4.1 2.7 2.7.7 5.5-2.7 5.7-2 .1-3.2 2.5-1.7 4.1 1.3 1.3.1 3.4-1.1 4.1-1.9 1.1-4.5.9-6.6.9-4.8.1-9.9 0-14.3-2.1-3.7-1.8-6.9-4.4-10.9-5.6-4.2-1.3-8.7-1.6-13-1.7-2.8-.1-2.8 4.5 0 4.4 6.7-.3 12.5.7 18.3 4.1 5.1 3.1 10.2 4.8 16.2 5.3 4.6.4 11 1.1 14.6-2.5 2.7-2.7 3.1-7.5.3-10.2-.6 1.4-1.1 2.7-1.7 4.1 7.5-.4 11.9-8.1 6.1-13.9-.6 1.4-1.1 2.7-1.7 4.1 3.7-.2 8.6.2 10.2-3.9 1.9-4.6-.7-8.5-5-10-.2 1.6-.4 3.2-.6 4.8 4.2.4 8.5.4 12.7.1 3.4-.2 7-.1 10.4-.8 5.1-1.1 10.4-6.3 5.9-11.4-4.8-5.4-14.7-3.7-21.1-3.6-4.3.1-8.5.2-12.8.2-4.2.1-8.7-.2-12.8.8-1.2.3-1.1 1.8-.1 2.1z"/></g></g></svg>