<svg height="512" viewBox="0 0 60 60" width="512" xmlns="http://www.w3.org/2000/svg"><g id="028---Project-Reqirements" fill="none"><path id="Path" d="m48.414 59.471c-.2179249-.0002653-.4105775-.141646-.4761907-.349459-.0656131-.2078131.0109278-.4341868.1891907-.559541l1.311-.921-3.053 1.759c-.2295527.1314921-.521805.0614183-.6667704-.1598726-.1449654-.2212908-.0924688-.5172061.1197704-.6751274l5.271-3.9-7.174 4.141c-.2287194.1310429-.5198877.0620127-.6654353-.1577616-.1455476-.2197742-.0954752-.5147944.1144353-.6742384l5.89-4.442-5.994 3.468c-.2300482.1308569-.5222207.059778-.6664488-.1621318-.1442281-.2219099-.0905463-.5177734.1224488-.6748682l2.707-1.971-2.164 1.249c-.2269587.1282325-.5143539.0605795-.6602778-.1554298-.145924-.2160093-.1014061-.5078844.1022778-.6705702l2.061-1.615-1.5.867c-.2262036.1284409-.5131028.0619842-.6597948-.1528333-.1466919-.2148176-.1041677-.5062269.0977948-.6701667l.437-.35c-.1970056.0507853-.4051389-.0228606-.5263617-.1862478s-.1313606-.3839329-.0256383-.5577522l.914-1.505c-.2320081.0963911-.4995155.0056526-.625-.212-.1375532-.2386555-.0561721-.5436114.182-.682l1.627-.94c.1978113-.1145728.4481357-.0804002.608.083.1601343.1633764.1889628.4145961.07.61l-.909 1.5 3.818-2.2c.2263606-.1309251.5153721-.0653166.6630162.1505114.1476442.2158279.1040467.5089685-.1000162.6724886l-.353.273 1.906-1.1c.2271272-.1307942.5167067-.0640046.6636035.1530559.1468968.2170604.1012506.5107158-.1046035.6729441l-2.062 1.615 4.23-2.441c.2300482-.1308569.5222207-.059778.6664488.1621318.1442281.2219099.0905463.5177734-.1224488.6748682l-2.709 1.971 4.869-2.808c.2287194-.1310429.5198877-.0620127.6654353.1577616.1455476.2197742.0954752.5147944-.1144353.6742384l-5.888 4.44 7.772-4.486c.2293391-.1285228.5190351-.0574922.6629121.1625395s.0927858.5139004-.1169121.6724605l-5.269 3.894 5.176-2.987c.2314518-.1313128.5252013-.0583356.6682918.1660259.1430904.2243616.0853808.5214879-.1312918.6759741l-1.312.921.776-.448c.2240205-.1297641.5100442-.0670649.6592395.1445117s.1122125.502047-.0852395.6694883l-2.975 2.53 2.4-1.386c.2111163-.1217329.4792426-.0735321.6347434.1141072s.1530747.4600529-.0057434.6448928l-1.64 1.909 1.011-.583c.23893-.1358451.5427102-.0533708.6801373.1846528.137427.2380237.0569695.5423443-.1801373.6813472l-3.556 2.048c-.2108451.1204916-.4777811.0720607-.6328586-.1148212-.1550774-.1868819-.1534499-.458171.0038586-.6431788l1.64-1.911-4.624 2.669c-.2237424.1292278-.5090949.0666972-.6582921-.1442547-.1491972-.2109518-.1130922-.5008356.0832921-.6687453l2.975-2.53-5.792 3.343c-.0756184.0452887-.1618652.0697828-.25.071z" fill="#8ad256"/><path id="Path" d="m31.574 43.471c-.2191798-.0003656-.4125703-.1434368-.4770441-.3529196-.0644739-.2094828.015001-.4365356.1960441-.5600804l1.876-1.277-3.019 1.743c-.2283835.1299972-.5184238.0610156-.6638282-.1578813-.1454044-.2188968-.0965443-.5129964.1118282-.6731187l6.288-4.779-6.606 3.814c-.2287194.1310429-.5198877.0620127-.6654353-.1577616-.1455476-.2197742-.0954752-.5147944.1144353-.6742384l3.763-2.833-3.213 1.854c-.2267918.1258849-.5121894.0574365-.6572109-.1576223-.1450215-.2150589-.1015044-.5053056.1002109-.6683777l2-1.566-1.444.833c-.2205392.1280792-.5021318.0696485-.6535046-.1356028-.1513729-.2052513-.124009-.4915375.0635046-.6643972l1.483-1.375-.893.514c-.2032327.116567-.4601535.0763831-.6180877-.0966724s-.1745245-.43257-.0399123-.6243276l.7-.994c-.2254194-.0012322-.4221393-.1531512-.4803241-.3709354-.0581849-.2177842.0365554-.4475719.2313241-.5610646l1.632-.943c.2034689-.1174438.4612594-.0773942.6195066.0962447.1582471.173639.1742651.4340297.0384934.6257553l-.609.861 2.768-1.59c.220439-.1262233.5004889-.0670999.6510942.1374575.1506054.2045574.1238973.4895314-.0620942.6625425l-1.483 1.376 3.774-2.176c.2267918-.1258849.5121894-.0574365.6572109.1576223.1450215.2150589.1015044.5053056-.1002109.6683777l-2 1.564 4.142-2.39c.2286312-.1323821.5207966-.0640496.667.156.1463361.2205214.0954817.5168793-.116.676l-3.764 2.834 6.35-3.666c.2285788-.1329729.5211739-.064966.667677.1551861.1465031.220152.0962484.5163129-.114677.6758139l-6.289 4.769 7.959-4.595c.2325262-.1307666.5267591-.0559509.6685809.1700024s.0812744.5234503-.1375809.6759976l-1.89 1.286 1.616-.932c.227731-.1281621.5157443-.059345.6609391.1579231.1451949.217268.0985947.509699-.1069391.6710769l-4.02 3.087 3.471-2c.226507-.1291681.5142486-.0625855.6609917.1529516.1467432.2155372.103215.5076567-.0999917.6710484l-2.062 1.639 1.5-.867c.2166955-.1249531.4923876-.0705435.6453641.1273666.1529764.19791.1361605.4784164-.0393641.6566334l-1.568 1.592.962-.554c.2083072-.1191748.4719066-.0735406.6280287.1087241.1561221.1822646.1607271.4497453.0109713.6372759l-.533.662c.1866306.0620711.3195348.227791.3395965.4234471.0200618.1956561-.076446.3848989-.2465965.4835529l-1.619.935c-.2083669.1203944-.4729381.0752795-.6296306-.1073652-.1566924-.1826446-.1610497-.4509994-.0103694-.6386348l.242-.3-1.836 1.057c-.2163843.1232964-.4905169.0685506-.6429461-.1284-.1524291-.1969505-.1366764-.476052.0369461-.6546l1.567-1.593-4.116 2.376c-.226507.1291681-.5142486.0625855-.6609917-.1529516-.1467432-.2155372-.103215-.5076567.0999917-.6710484l2.064-1.642-4.274 2.466c-.2279124.1308241-.5182022.0628918-.6643976-.1554793-.1461953-.2183711-.0983971-.512647.1093976-.6735207l4.025-3.088-6.786 3.917c-.0756184.0452887-.1618652.0697828-.25.071z" fill="#ffc436"/><path id="Path" d="m23.641 27.471c-.2152152 0-.4062846-.137715-.4743416-.3418861-.0680571-.2041711.0021694-.4289848.1743416-.5581139l.076-.056-1.544.891c-.2285788.1329729-.5211739.064966-.667677-.1551861-.1465031-.220152-.0962484-.5163129.114677-.6758139l3.049-2.317-5.45 3.142c-.2283835.1299972-.5184238.0610156-.6638282-.1578813-.1454044-.2188968-.0965443-.5129964.1118282-.6731187l5.6-4.248-7.937 4.584c-.23265.1288599-.5254615.0530472-.6663444-.1725252s-.0805297-.5219566.1373444-.6744748l1.833-1.236-1.918 1.108c-.2313261.1333882-.5266402.061466-.670727-.1633522-.1440867-.2248181-.0860887-.5231794.131727-.6776478l3.223-2.289-2.82 1.63c-.2308022.1338179-.5260112.0628564-.670779-.1612399s-.0880924-.5223777.128779-.6777601l1.527-1.1-.986.568c-.2259042.1277621-.5120042.0614438-.6586593-.152678-.1466552-.2141217-.1051039-.5048532.0956593-.669322l1.93-1.556-1.367.789c-.2247363.1292165-.510959.0652384-.6592891-.1473681-.1483301-.2126064-.1095663-.5033193.0892891-.6696319l.436-.363c-.1763019.0444881-.36273-.0125189-.484-.148-.1589383-.1726613-.176408-.4326258-.042-.625l.724-1.037c-.1839813.0034052-.3556936-.0919905-.45-.25-.1375532-.2386555-.0561721-.5436114.182-.682l1.632-.943c.2028685-.1169845.4597544-.0774921.6181161.0950262s.1757685.4318386.0418839.6239738l-.644.924 2.868-1.648c.2243164-.1264895.5080183-.0619132.6554889.1492026s.1104702.4997121-.0854889.6667974l-.34.283 1.906-1.1c.2259042-.1277621.5120042-.0614438.6586593.152678.1466552.2141217.1051039.5048532-.0956593.669322l-1.935 1.56 4.127-2.381c.2308022-.1338179.5260112-.0628564.670779.1612399s.0880924.5223777-.128779.6777601l-1.524 1.091 3.35-1.93c.2313261-.1333882.5266402-.061466.670727.1633522.1440867.2248181.0860887.5231794-.131727.6776478l-3.218 2.283 5.145-2.971c.1514806-.0946754.3419632-.1013451.4996948-.0174967.1577316.0838483.258749.2454762.265.424.006251.1785237-.0832142.3468213-.2346948.4414967l-1.836 1.234 2.347-1.356c.228924-.1342308.5228351-.0662362.6695479.1548961s.0951128.5183603-.1175479.6771039l-5.6 4.249 5.41-3.123c.2283835-.1299972.5184238-.0610156.6638282.1578813.1454044.2188968.0965443.5129964-.1118282.6731187l-3.046 2.315 2.5-1.44c.2295527-.1314921.521805-.0614183.6667704.1598726.1449654.2212908.0924688.5172061-.1197704.6751274l-.36.264c.2148518-.0273882.422908.0866696.5153728.282531.0924648.1958613.0483109.4289858-.1093728.577469l-1.379 1.3.786-.454c.2093617-.1198333.4744325-.0730979.6301877.1111103.1557553.1842081.1577794.4533598.0048123.6398897l-.556.674c.2125809.0277301.3838272.187894.4256968.3981476.0418697.2102535-.0549561.423801-.2406968.5308524l-1.9 1.1c-.2094231.1210892-.4754979.0748836-.6318351-.1097222-.1563373-.1846058-.1580911-.454657-.0041649-.6412778l.368-.445-2.074 1.2c-.2208953.136633-.509623.0813788-.6644625-.1271591-.1548394-.208538-.1242214-.5009064.0704625-.6728409l1.382-1.3-3.64 2.1c-.0773776.0438745-.1650588.0663126-.254.065z" fill="#ffa334"/><path id="Path" d="m4.564 11.471c-.21895269-.0001291-.4123522-.1427006-.47724241-.3518168-.0648902-.2091161.01382533-.4361269.19424241-.5601832l1.889-1.3-3.462 2c-.22838347.1299972-.51842376.0610156-.66382816-.1578813-.14540441-.2188968-.09654436-.5129964.11182816-.6731187l6.433-4.87-7.229 4.171c-.23158002.12940266-.52390906.05542235-.6660571-.16856044-.14214803-.2239828-.08462774-.51999085.1310571-.67443956l2.145-1.492-1.69.974c-.22517188.12814755-.51093281.06306634-.65840563-.14994995-.14747281-.21301629-.10780098-.50339711.09140563-.66905005l3.714-3.049-3.148 1.813c-.21570545.12306449-.48904459.06915822-.64187637-.12658691-.15283178-.19574514-.13883158-.47399712.03287637-.65341309l2.21-2.282-1.6.924c-.2036526.11724195-.46146652.07684795-.61950163-.09706283-.15803511-.17391079-.17364056-.43440294-.03749837-.62593717l.69-.969c-.22359907-.00558209-.41629087-.1589857-.47185026-.37564409-.05555939-.21665838.03953081-.44386017.23285026-.55635591l1.626-.94c.2036526-.11724195.46146652-.07684795.61950163.09706283.15803511.17391079.17364056.43440294.03749837.62593717l-.587.826 2.708-1.56c.21570545-.12306449.48904459-.06915823.64187637.12658691s.13883158.47399712-.03287637.65341309l-2.211 2.28 5.307-3.06c.22517188-.12814755.51093281-.06306634.65840563.14994995.14747281.21301629.10780098.50339711-.09140563.66905005l-3.712 3.048 6.703-3.867c.2309506-.1251572.5193699-.0502601.6602447.17145316.1408749.22171326.0861633.51463297-.1252447.67054684l-2.146 1.5 3.911-2.266c.2283835-.12999717.5184238-.06101555.6638282.15788129.1454044.21889685.0965443.51299637-.1118282.67311871l-6.436 4.872 7.433-4.29c.2324067-.13284986.5282158-.05908515.6710333.16733285s.0819688.52515148-.1380333.67766715l-1.885 1.3 1.482-.855c.2283835-.12999717.5184238-.06101556.6638282.15788129s.0965443.51299637-.1118282.67311871l-3.126 2.373 2.575-1.483c.2208953-.13663305.509623-.08137881.6644625.12715913.1548394.20853794.1242214.50090634-.0704625.67284087l-2.676 2.54 2.082-1.2c.1963119-.11256163.443751-.07924152.603295.0812396.159544.16048113.1914144.40811108.077705.6037604l-.965 1.659c.2389945-.11711351.5278435-.02648481.6570956.2061691.1292522.2326539.0536017.5257823-.1720956.6668309l-1.614.932c-.1963607.1134973-.4445199.0806114-.6045408-.0801134s-.1918173-.409026-.0774592-.6048866l.966-1.658-4.087 2.354c-.2197017.1368532-.5075279.0834076-.6634543-.1231949s-.128398-.4980515.0634543-.6718051l2.676-2.547-5.781 3.342c-.22857883.1329729-.52117387.064966-.66767697-.1551861-.1465031-.220152-.09624839-.5163129.11467697-.6758139l3.129-2.378-5.562 3.209c-.07561844.0452887-.16186523.0697828-.25.071z" fill="#2081e9"/><path id="Path" d="m4.438 11.471c-.21393359-.0029679-.40227101-.1417255-.46850349-.34517-.06623247-.2034444.00431957-.4264849.17550349-.55483l4.533-3.296-6.516 3.761c-.22933911.1285228-.51903511.0574922-.66291212-.1625395-.143877-.2200317-.09278581-.5139004.11691212-.6724605l5.735-4.218-6.058 3.497c-.23158002.12940266-.52390906.05542235-.6660571-.16856044-.14214803-.2239828-.08462774-.51999085.1310571-.67443956l1.651-1.146-1.13.653c-.22698061.13265766-.51792342.06687643-.66575669-.15052545-.14783328-.21740187-.10205348-.51215448.10475669-.67447455l3.141-2.5-2.58 1.49c-.22502404.12983267-.51198925.06570465-.6603401-.14756599s-.10865701-.50462239.0913401-.67043401l1.3-1.076-.728.42c-.19571677.11157223-.44187712.07847849-.6011778-.0808222-.15930069-.15930068-.19239443-.40546103-.0808222-.6011778l1-1.75-.025.014c-.23742522.12420086-.53055313.03916186-.66464661-.19281988-.13409349-.23198173-.06147969-.52843213.16464661-.67218012l1.632-.943c.19581503-.11341934.44339501-.08118529.60364079.07859194s.19320467.40726175.08035921.60340806l-1 1.75 4.23-2.441c.22459856-.12700926.5089574-.06225633.65641904.14947682.14746165.21173315.10959197.50090228-.08741904.66752318l-1.3 1.078 3.285-1.895c.22650697-.12916814.51424861-.06258554.66099174.15295162.14674314.21553715.10321493.50765663-.09999174.67104838l-3.136 2.496 5.753-3.32c.23158-.12940266.5239091-.05542235.6660571.16856044.142148.2239828.0846277.51999085-.1310571.67443956l-1.651 1.142 3.445-1.985c.2293391-.12852278.5190351-.05749218.6629121.1625395s.0927858.51390037-.1169121.6724605l-5.736 4.215 6.971-4.024c.2300482-.13085689.5222207-.05977797.6664488.16213184.1442281.22190982.0905463.51777331-.1224488.67486816l-4.534 3.292 4.247-2.455c.2280542-.12904158.517047-.0601323.6623353.15793143.1452882.21806373.0975826.5113034-.1093353.67206857l-3.294 2.517 2.742-1.582c.2244518-.12863856.5099659-.06482023.6582866.14714074s.1104625.50206066-.0872866.66885926l-2.156 1.813 1.585-.915c.2245855-.13094362.5120466-.06793537.6612702.14494297.1492235.21287835.1104168.50459397-.0892702.67105703l-.355.3c.1543848-.01146568.3051625.05040132.407.167.1572117.17755178.1680717.44111641.026.631l-.625.833c.210077.03139446.3773893.19209268.4172269.40073338.0398375.20864072-.0564959.41967902-.2402269.52626662l-1.627.94c-.2059252.1197303-.4677219.0775667-.6256432-.1007629-.1579212-.1783295-.1681132-.4433039-.0243568-.6332371l.458-.61-2.349 1.351c-.2241703.1280952-.5090066.0644456-.6573283-.1468868-.1483216-.2113324-.1113468-.5008421.0853283-.6681132l.125-.105-1.6.921c-.2240372.1259992-.5071082.0616068-.6545964-.1489061s-.1113381-.4985559.0835964-.6660939l2.163-1.815-4.559 2.629c-.22824204.1318458-.51963752.063862-.66597078-.1553737-.14633327-.2192358-.09734046-.5144185.11197078-.6746263l3.294-2.51-5.793 3.34c-.07548316.0456007-.16181633.0701194-.25.071z" fill="#f33a4d"/><g fill="#262626"><path id="Shape" d="m57.428 48.549c-1.811-.354-4.021-.03-5.855-.03-2.1627205-.1405007-4.3322795-.1405007-6.495 0-2.742.371-2.808 2.372-2.808 4.661 0 1.827-.66 5.056 1.386 6.053 1.638.8 4.435.247 6.153.247h6.928c.0370144-.0036371.0737568-.0096495.11-.018.0911045.0050764.182486-.0013068.272-.019 2.853-.576 2.611-2.823 2.611-5.214 0-2.28.593-5.114-2.302-5.68zm-.435 9.97h-9.97c-2.039 0-3.085-.724-3.293-2.892-.146-1.523-.454-4.19.525-5.421.957-1.206 2.832-.725 4.352-.725h6.37c2.122 0 3.293.877 3.293 3.144 0 1.349.715 5.334-1.277 5.894z"/><path id="Path" d="m13.259 5.505h-8c-.654 0-1.494.99-.518.99h8c.659.005 1.494-.99.518-.99z"/><path id="Path" d="m27.061 21.456h-8c-.838 0-1.1 1.088-.122 1.088h8c.838 0 1.104-1.088.122-1.088z"/><path id="Path" d="m41.062 37.461h-8c-.833 0-1.107 1.078-.124 1.078h8c.833 0 1.107-1.078.124-1.078z"/><path id="Path" d="m55.269 53.542h-8c-.6 0-1.515.916-.538.916h8c.605 0 1.515-.916.538-.916z"/><path id="Shape" d="m8.667 18.7c-.415-.416-1.791.151-1.334.608l2.192 2.192h-3.51c-1.5 0-1.283-.967-1.283-2.2v-7.62c1.168-.035 2.349-.175 3.268-.175h6.928c.1121216-.0006292.2229768-.0237524.326-.068 2.707-.619 2.477-2.854 2.477-5.2 0-1.919.592-4.761-1.7-5.584-1.903-.686-4.685-.153-6.65-.153-2.13363006-.14652783-4.2749337-.1425179-6.408.012-2.673.394-2.705 2.436-2.705 4.662 0 1.885-.7 5.2 1.53 6.139.46840823.1830878.96149454.2953214 1.463.333-.023 3-.2 6.067.007 9.055.19 2.75 4.375 1.868 6.455 1.808l-2.318 2.318c-.624.624.784.752 1.19.346l3-3c.114-.114.211-.338.072-.477zm-6.917-10.94c0-.044-.014-.08-.018-.126-.142-1.584-.467-4.207.619-5.413 1.06-1.176 2.894-.716 4.448-.716h6.37c.4385559-.00651874.8759427.04697703 1.3.159 1.1077391.36125523 1.835677 1.42037209 1.776 2.584.007.124.022.237.022.37 0 1.361.721 5.325-1.289 5.877h-10.147c-.41747829.006253-.83417781-.0380696-1.241-.132-1.072-.322-1.666-1.113-1.84-2.603z"/><path id="Shape" d="m22.671 34.711c-.374-.375-1.749.172-1.342.578l2.323 2.324h-3.421c-1.594 0-1.507-1.01-1.507-2.293v-7.72c1.109-.043 2.223-.179 3.069-.179h6.928c.0630145-.0021419.1255075-.0122214.186-.03.0647034-.0000861.1292778-.005774.193-.017 2.859-.577 2.625-2.751 2.625-5.161 0-2.271.6-5.068-2.283-5.612-1.9464151-.1765194-3.9045358-.1825424-5.852-.018-2.1625597-.1378442-4.3317865-.1351719-6.494.008-2.743.37-2.821 2.312-2.821 4.611 0 1.8-.666 5.034 1.371 6 .5152142.2201566 1.065413.3471256 1.625.375-.015 3.009-.189 6.07 0 9.067.08 1.239.52 1.664 1.806 1.747 1.531.1 3.1 0 4.63 0 .0728464-.0018691.1451315-.0133002.215-.034l-2.512 2.512c-.605.6.81.63 1.17.27l3-3c.105-.1.222-.289.086-.424zm-6.946-11.1c-.144-1.534-.45-4.187.519-5.442.951-1.232 2.806-.747 4.346-.747h6.371c2.148 0 3.314.942 3.314 3.225 0 1.315.7 5.346-1.235 5.937h-10c-2.064-.003-3.109-.784-3.315-2.976z"/><path id="Shape" d="m36.679 50.74c-.3-.3-1.645.233-1.358.52l1.417 1.417.979.979h-3.474c-1.6 0-1.519-1.053-1.519-2.336v-7.7c1.11-.042 2.227-.177 3.076-.177h6.928c.0500638-.0032047.0996614-.0115827.148-.025.0777471.002014.155494-.0040181.232-.018 2.857-.577 2.619-2.782 2.619-5.184 0-2.275.6-5.088-2.291-5.641-1.9464293-.1815249-3.9051475-.1895565-5.853-.024-2.1625007-.1390068-4.3317598-.1370025-6.494.006-2.743.37-2.816 2.337-2.816 4.632 0 1.81-.663 5.043 1.377 6.022.5134942.2218804 1.0623944.3505553 1.621.38-.016 3-.188 6.056 0 9.046.079 1.228.531 1.63 1.795 1.7 1.532.089 3.094 0 4.629 0 .1365389-.0097456.2702718-.043602.395-.1-.1.1-.2.228-.258.283l-1 1-1.5 1.5c-.348.348 1.049.219 1.326-.058l3-3c.0349955-.0270585.0567622-.0677803.0598188-.1119108.0030567-.0441305-.012888-.0874644-.0438188-.1190892zm-6.952-11.124c-.145-1.529-.452-4.188.521-5.433.954-1.221 2.818-.737 4.349-.737h6.371c2.137 0 3.305.914 3.305 3.19 0 1.329.7 5.342-1.253 5.918h-9.988c-2.053 0-3.098-.754-3.305-2.938z"/></g></g></svg>