<svg height="507pt" viewBox="0 -2 507.5283 507" width="507pt" xmlns="http://www.w3.org/2000/svg"><path d="m215.960938 502.421875c-1.488282-.003906-2.867188-.777344-3.640626-2.046875-.773437-1.273438-.832031-2.851562-.148437-4.175781l5.214844-10.136719-19.628907 11.324219c-1.90625 1.148437-4.371093.640625-5.667968-1.167969s-.988282-4.308594.710937-5.746094l1.355469-1.21875-9.042969 5.230469c-1.882812 1.09375-4.285156.59375-5.578125-1.15625-1.292968-1.753906-1.058594-4.195313.542969-5.671875l16.921875-15.664062-28.230469 16.296874c-1.890625 1.078126-4.292969.554688-5.566406-1.210937-1.277344-1.765625-1.015625-4.207031.601563-5.667969l29.585937-26.214844-43.8125 25.285157c-1.945313 1.144531-4.445313.570312-5.703125-1.300781-1.253906-1.875-.835938-4.40625.960938-5.773438l29.863281-23.039062-38.925781 22.476562c-1.945313 1.160156-4.460938.597656-5.726563-1.28125-1.265625-1.875-.839844-4.417969.964844-5.785156l45.746093-35.667969-57.371093 33.125c-1.972657 1.121094-4.480469.5-5.703125-1.414063-1.21875-1.917968-.726563-4.453124 1.121094-5.769531l31.207031-21.898437-36.878907 21.335937c-1.980468 1.117188-4.488281.484375-5.707031-1.433593-1.214843-1.921876-.710937-4.460938 1.148438-5.769532l31.429687-21.597656-36.839844 21.265625c-1.996093 1.183594-4.574218.554687-5.800781-1.414063-1.226562-1.972656-.652343-4.566406 1.296875-5.832031l19.285156-12.84375-22.863281 13.203125c-1.972656 1.136719-4.492187.523438-5.722656-1.394531s-.734375-4.464844 1.125-5.78125l63.09375-44.621094-69.886719 40.328125c-1.988281 1.175782-4.550781.558594-5.78125-1.390625-1.234375-1.953125-.691406-4.53125 1.222656-5.820312l62.335938-42.949219-68.265625 39.425781c-1.988281 1.097657-4.492187.441407-5.6875-1.488281-1.199219-1.933594-.671875-4.464844 1.199219-5.757812l45.011718-29.816407-47.726562 27.53125c-1.988281 1.082031-4.480469.417969-5.667969-1.511719-1.191406-1.929687-.664062-4.449218 1.199219-5.742187l45.4375-29.867187-48.03125 27.707031c-1.992188 1.097656-4.492188.445312-5.691406-1.488281-1.195313-1.933594-.667969-4.464844 1.203125-5.757813l62.199219-41.34375-65.359376 37.726563c-1.996093 1.117187-4.523437.457031-5.71875-1.496094-1.195312-1.953125-.636718-4.5 1.265626-5.773438l44.117187-28.605468-45.082031 26.027343c-1.996094 1.1875-4.574219.558594-5.800782-1.414062-1.226562-1.972657-.652343-4.5625 1.296876-5.828125l77.960937-51.976563-80.488281 46.472657c-2.015625 1.222656-4.640625.582031-5.867188-1.429688-1.226562-2.015625-.585937-4.644531 1.429688-5.867188l34.355468-21.933593-34.433593 19.875c-2 1.085937-4.5.410156-5.679688-1.539063-1.179687-1.945312-.625-4.472656 1.261719-5.746094l37.75-24.109374-37.101562 21.402343c-2.003907 1.101563-4.523438.429688-5.707032-1.53125-1.183594-1.957031-.613281-4.5 1.292969-5.765625l19.960937-12.59375-18.953124 10.957032c-1.996094 1.097656-4.5.4375-5.691407-1.503907-1.195312-1.941406-.652343-4.472656 1.230469-5.757812l76.398438-49.878907-76.476563 44.152344c-2.003906 1.121094-4.535156.453125-5.726563-1.507812-1.195312-1.960938-.621093-4.515625 1.296876-5.777344l51.261718-32.753906-49.390625 28.511718c-1.992187 1.113282-4.503906.46875-5.710937-1.46875-1.203125-1.933593-.675782-4.476562 1.203125-5.769531l106.8125-71.472656-106.164063 61.285156c-2 1.085938-4.5.40625-5.679687-1.539062-1.179688-1.945313-.625-4.476563 1.261719-5.75l51.148437-32.554688-48.195313 27.820313c-2.007812 1.242187-4.640624.628906-5.886718-1.378906-1.242188-2.003907-.625-4.640626 1.378906-5.882813l90.71875-59.332031-87.390625 50.472656c-1.996094 1.085938-4.492187.414062-5.675781-1.523438s-.644532-4.460937 1.230468-5.746093l74.675782-48.160157-71.058594 41.019532c-1.984375 1-4.40625.308594-5.5625-1.589844-1.160156-1.898438-.664062-4.367188 1.132812-5.671875l58.941407-37.632813-53.488281 30.875c-1.988282 1.082032-4.480469.417969-5.671876-1.511718-1.1875-1.929688-.660156-4.453125 1.203126-5.742188l97.917968-64.429687-92.101562 53.171875c-1.992188 1.101562-4.5.4375-5.691406-1.503906-1.191407-1.9375-.652344-4.472657 1.230468-5.757813l86.628906-56.472656-78.503906 45.335937c-2.003906 1.121094-4.535156.457032-5.730468-1.507812-1.191407-1.960938-.617188-4.515625 1.300781-5.777344l47.785156-30.40625-40.105469 23.179688c-2.003906 1.199218-4.597656.566406-5.824218-1.421876-1.226563-1.988281-.625-4.589843 1.34375-5.84375l91.308593-60.175781-79.574219 45.925781c-1.988281 1.117188-4.503906.46875-5.710937-1.464843-1.203125-1.9375-.671875-4.476563 1.203125-5.769531l99.5-66.765626-83.824219 48.402344c-2.003906 1.121094-4.535156.453125-5.726562-1.507812-1.191407-1.964844-.617188-4.519532 1.300781-5.78125l36.511719-23.390625-22.269531 12.871093c-2.003907 1.164063-4.570313.515626-5.78125-1.457031-1.214844-1.976562-.628907-4.554687 1.316406-5.816406l45.285156-29.550781-24.820312 14.328125c-1.949219 1.101562-4.414063.515625-5.652344-1.347657-1.242188-1.859374-.835938-4.363281.929687-5.734374l49.035157-37.496094c-2.003907.21875-3.886719-.992188-4.515626-2.90625-.628906-1.914063.164063-4.007813 1.902344-5.019532l53.25-30.722656c1.945313-1.125 4.433594-.542968 5.683594 1.328125 1.246094 1.871094.828125 4.390625-.957031 5.757813l-46.820313 35.839844 103.003906-59.53125c2-1.132813 4.535157-.484376 5.742188 1.472656 1.203125 1.957031.644531 4.519531-1.269531 5.789062l-45.332031 29.578125 48.453124-27.964843c1.996094-1.066407 4.480469-.390626 5.660157 1.542968 1.175781 1.9375.636719 4.453125-1.230469 5.738282l-36.4375 23.335937 32.007812-18.492187c1.984376-1.070313 4.457032-.414063 5.652344 1.496093 1.191406 1.914063.691406 4.425781-1.144531 5.734375l-99.535156 66.789063 95.027343-54.851563c1.996094-1.117187 4.511719-.460937 5.714844 1.480469 1.199219 1.945313.65625 4.488281-1.234375 5.773437l-91.304687 60.160157 86.824218-50.125c2.011719-1.148438 4.566407-.488281 5.765626 1.492187 1.199218 1.980469.605468 4.554688-1.34375 5.804688l-47.789063 30.386718 43.367187-25.03125c2.003907-1.164062 4.570313-.515624 5.78125 1.457032 1.214844 1.976562.628907 4.554687-1.316406 5.816406l-86.65625 56.480469 82.191406-47.445313c1.992188-1.082031 4.484376-.421875 5.671876 1.507813 1.191406 1.929687.664062 4.453125-1.199219 5.746093l-97.953125 64.445313 93.480468-53.964844c2-1.085937 4.5-.410156 5.683594 1.535157 1.179688 1.949218.625 4.476562-1.261718 5.75l-58.992188 37.640624 54.613281-31.503906c2-1.101562 4.511719-.433594 5.699219 1.515625s.632812 4.488281-1.261719 5.761719l-74.625 48.09375 70.136719-40.488281c2.003906-1.167969 4.570312-.519531 5.78125 1.453125 1.210938 1.976562.628906 4.558594-1.316406 5.816406l-90.738282 59.347656 86.289063-49.816406c2.003906-1.085938 4.503906-.40625 5.683594 1.539062 1.179687 1.945313.625 4.476563-1.261719 5.75l-51.199219 32.578126 46.769531-26.992188c1.988282-1.113281 4.503907-.46875 5.710938 1.46875 1.203125 1.933594.675781 4.476562-1.203125 5.769531l-106.8125 71.476563 102.3125-59.0625c2.007813-1.117188 4.539063-.453125 5.730469 1.511718 1.191406 1.960938.617187 4.515626-1.300782 5.777344l-51.199218 32.742188 46.8125-27.023438c1.996094-1.101562 4.503906-.4375 5.695312 1.503906 1.191406 1.9375.648438 4.472657-1.230468 5.757813l-76.425782 49.894531 71.917969-41.507812c2.003906-1.070313 4.492187-.382813 5.664063 1.558594 1.175781 1.945312.621093 4.464843-1.257813 5.738281l-19.882813 12.550781 15.476563-8.933594c2.011719-1.148437 4.570313-.484375 5.769531 1.492188 1.199219 1.980468.601563 4.554687-1.347656 5.804687l-37.699219 24.054688 33.277344-19.226563c2.015625-1.222656 4.640625-.578125 5.863281 1.433594 1.222656 2.015625.582032 4.640625-1.433594 5.863281l-34.3125 21.886719 29.867188-17.253906c1.992188-1.132813 4.527344-.488282 5.734375 1.460937 1.210937 1.945313.664063 4.503907-1.238281 5.785157l-78 52.011718 73.503906-42.4375c2.011719-1.230468 4.636719-.597656 5.867188 1.414063 1.230468 2.007812.597656 4.636719-1.414063 5.863281l-44.132813 28.605469 39.679688-22.894531c1.984375-1.058594 4.449219-.394532 5.636719 1.515624 1.183593 1.910157.683593 4.414063-1.148438 5.71875l-62.234375 41.371094 57.746094-33.332031c1.992188-1.082031 4.480469-.421875 5.671875 1.507813 1.1875 1.929687.664063 4.453124-1.199219 5.746093l-45.390625 29.867188 40.960938-23.621094c1.988281-1.097656 4.492187-.445313 5.6875 1.488281 1.199219 1.933594.671875 4.464844-1.199219 5.757813l-45.046875 29.867187 40.558594-23.410156c1.984375-1.175781 4.546875-.558594 5.78125 1.394531 1.234375 1.949219.691406 4.527344-1.222657 5.816407l-62.296874 42.914062 57.730468-33.320312c1.972656-1.140626 4.492188-.523438 5.722656 1.394531 1.230469 1.917969.734376 4.464843-1.125 5.78125l-63.070312 44.550781 58.453125-33.746094c1.996094-1.136718 4.527344-.492187 5.738281 1.457032 1.207032 1.949218.660156 4.503906-1.238281 5.785156l-19.328125 12.851562 14.828125-8.53125c1.984375-1.136718 4.507813-.503906 5.726563 1.425782 1.21875 1.933593.699218 4.480468-1.175782 5.785156l-31.453125 21.613281 26.902344-15.53125c1.976563-1.121094 4.484375-.496094 5.703125 1.417969 1.222656 1.914062.730469 4.449218-1.117188 5.769531l-31.15625 21.84375 26.570313-15.359375c1.941406-1.101562 4.402344-.523438 5.648437 1.328125 1.246094 1.847656.855469 4.34375-.894531 5.726563l-45.761719 35.695312 41.007813-23.636719c1.941406-1.085937 4.390625-.5 5.628906 1.347657 1.238281 1.847656.851563 4.335937-.890625 5.71875l-29.867187 23.039062 25.128906-14.507812c1.898437-1.09375 4.316406-.578126 5.597656 1.199218s1.011719 4.234375-.628906 5.6875l-29.59375 26.15625 24.625-14.214844c1.882813-1.09375 4.285156-.597656 5.578125 1.15625 1.292969 1.75 1.058594 4.195313-.542969 5.667969l-16.929687 15.660157 11.894531-6.828126c1.894531-1.09375 4.308594-.578124 5.59375 1.195313 1.28125 1.773437 1.015625 4.226563-.617187 5.683594l-3.0625 2.730469c1.171874-.085938 2.324218.339843 3.15625 1.167968 1.371093 1.304688 1.71875 3.359375.855468 5.042969l-5.328125 10.34375c2.070313-.605469 4.269531.429687 5.121094 2.410156s.089844 4.289063-1.773437 5.371094l-11.554688 6.664063c-.644531.394531-1.378906.605468-2.132812.617187zm0 0" fill="#5e9cea"/><path d="m282.519531 500.644531c-1.835937 0-3.464843-1.175781-4.046875-2.917969-.582031-1.742187.019532-3.660156 1.488282-4.761718l48.5625-37.101563-46.847657 27.050781c-1.980469 1.136719-4.5.511719-5.726562-1.410156-1.222657-1.925781-.714844-4.472656 1.152343-5.785156l14.171876-9.871094-9.597657 5.546875c-1.9375 1.09375-4.390625.515625-5.636719-1.328125-1.242187-1.84375-.863281-4.332031.875-5.722656l37.828126-29.636719-33.074219 19.074219c-1.910157 1.070312-4.320313.523438-5.578125-1.269531-1.261719-1.789063-.960938-4.242188.695312-5.675781l36.34375-30.722657-31.460937 18.160157c-1.910157 1.097656-4.339844.566406-5.609375-1.230469-1.273438-1.792969-.972656-4.261719.691406-5.699219l27.308594-23.476562-22.347656 12.90625c-1.941407 1.085937-4.390626.5-5.628907-1.347657-1.238281-1.847656-.851562-4.335937.890625-5.71875l4.753906-3.6875c-1.886718 1.085938-4.289062.574219-5.574218-1.183593-1.28125-1.757813-1.035156-4.203126.574218-5.667969l12.746094-11.09375-7.804687 4.496093c-1.832031 1.035157-4.144531.582032-5.449219-1.066406-1.304688-1.648437-1.210938-4.003906.21875-5.546875l15.265625-16.210937-10.035156 5.792968c-1.875 1.144532-4.308594.683594-5.632813-1.066406-1.324218-1.753906-1.101562-4.222656.511719-5.710937l3.582031-3.410157c-1.695312.253907-3.382812-.53125-4.277344-2-.894531-1.464843-.820312-3.324218.183594-4.71875l7.03125-9.753906-1.449218.855469c-1.679688.964844-3.796876.675781-5.160157-.699219-1.359375-1.375-1.625-3.496094-.644531-5.164062l3.269531-5.546875c-1.632812-.488281-2.816406-1.902344-3.011719-3.59375-.195312-1.691407.632813-3.335938 2.105469-4.1875l9.328125-5.386719c1.675782-.957031 3.785156-.667969 5.148438.703125 1.359375 1.371094 1.625 3.484375.652344 5.152344l-1.894532 3.21875 4.625-2.664063c1.742188-.996094 3.941406-.648437 5.289063.84375 1.34375 1.488282 1.46875 3.710938.300781 5.34375l-6.980469 9.761719 11.09375-6.425781c1.871094-1.066406 4.238281-.574219 5.527344 1.148437 1.289063 1.71875 1.097656 4.132813-.449219 5.625l-2.671875 2.5625 4.472657-2.5625c1.832031-1.046875 4.15625-.597656 5.464843 1.058594 1.308594 1.660156 1.210938 4.023437-.234375 5.566406l-15.257812 16.210938 20.941406-12.089844c1.902344-1.109375 4.335938-.585937 5.617188 1.203125 1.28125 1.792969.988281 4.265625-.675782 5.707031l-12.75 11.09375 16.46875-9.574219c1.941406-1.109374 4.410156-.527343 5.65625 1.328126 1.25 1.855468.851563 4.359374-.910156 5.738281l-4.777344 3.695312 6.925782-3.996093c1.910156-1.097657 4.335937-.566407 5.609374 1.230468 1.273438 1.792969.972657 4.261719-.691406 5.699219l-27.265625 23.476563 33.578125-19.386719c1.914063-1.09375 4.34375-.550781 5.609375 1.25 1.265625 1.804687.949219 4.277343-.726562 5.703125l-36.328125 30.71875 43.9375-25.359375c1.941406-1.117188 4.410156-.546875 5.664062 1.304687 1.253906 1.851563.863282 4.359375-.890625 5.742188l-37.832031 29.621094 44.375-25.601563c1.980469-1.132813 4.5-.511719 5.722656 1.414063 1.226563 1.921874.71875 4.46875-1.148437 5.78125l-14.183594 9.878906 17-9.8125c1.945313-1.125 4.433594-.542969 5.683594 1.328125 1.246093 1.871093.828125 4.386719-.957031 5.753906l-48.5625 37.113281 55.953124-32.332031c1.976563-1.105469 4.46875-.472656 5.683594 1.4375 1.210938 1.910156.722656 4.4375-1.117187 5.753906l-7.679688 5.300781 9.957031-5.75c1.953126-1.121093 4.4375-.53125 5.679688 1.34375 1.238281 1.875.8125 4.394532-.976562 5.753907l-8.296876 6.230469 7.679688-4.394532c2.027344-1.0625 4.527344-.335937 5.671875 1.644532 1.144531 1.980468.527344 4.507812-1.402344 5.734374l-68.464843 39.527344c-1.964844 1.316406-4.625.789063-5.9375-1.175781-1.316407-1.964844-.789063-4.625 1.175781-5.941406l8.285156-6.238281-40.25 23.304687c-1.984375 1.15625-4.523437.535156-5.75-1.402344s-.707031-4.5 1.183594-5.796875l7.679687-5.308594-22.109375 12.757813c-.648437.363281-1.382812.546875-2.125.535156zm0 0" fill="#9ed26a"/><path d="m445.804688 408.894531c-1.695313.003907-3.234376-1.003906-3.914063-2.558593-.679687-1.554688-.371094-3.363282.78125-4.609376l1.65625-1.773437-4.121094 2.371094c-1.867187 1.050781-4.21875.554687-5.503906-1.15625-1.285156-1.714844-1.101563-4.113281.425781-5.609375l15.070313-14.507813-19.675781 11.359375c-1.90625 1.113282-4.347657.585938-5.628907-1.210937s-.980469-4.273438.695313-5.710938l26.070312-22.546875-32 18.449219c-1.960937 1.125-4.453125.527344-5.691406-1.363281-1.238281-1.886719-.789062-4.414063 1.023438-5.761719l14.582031-10.769531-17.535157 10.132812c-1.984374 1.207032-4.574218.601563-5.820312-1.359375-1.246094-1.960937-.691406-4.5625 1.246094-5.84375l1.425781-.980469-3.125 1.796876c-1.976563 1.121093-4.488281.488281-5.703125-1.433594-1.214844-1.917969-.710938-4.457032 1.148438-5.765625l8.34375-5.769531-10.546876 6.085937c-1.949218 1.09375-4.414062.496094-5.648437-1.371094-1.230469-1.863281-.816406-4.363281.957031-5.730469l45.0625-33.84375-51.421875 29.6875c-1.949219 1.09375-4.414062.5-5.648437-1.367187-1.230469-1.867187-.816406-4.367187.957031-5.730469l34.5-25.984375-39.757813 22.9375c-1.957031 1.109375-4.4375.511719-5.675781-1.367187-1.234375-1.878906-.796875-4.398438 1-5.75l18.773438-13.953125-22.1875 12.800781c-1.882813 1.164062-4.347657.695312-5.667969-1.085938-1.324219-1.777343-1.0625-4.273437.597656-5.742187l26.078125-24.652344-33.132812 19.15625c-1.863281 1.074219-4.230469.597657-5.53125-1.113281-1.296875-1.710938-1.121094-4.121094.410156-5.625l13.960937-13.65625-18.457031 10.652344c-1.707031.984375-3.863281.671875-5.222656-.753906-1.363281-1.425782-1.570313-3.605469-.496094-5.261719l8.175781-12.621094-13.234374 7.679687c-1.546876.890626-3.488282.722657-4.859376-.417968-1.375-1.140625-1.890624-3.019532-1.292968-4.703125l1.980468-5.570313c-2.058593 1-4.539062.203125-5.625-1.808594-1.089843-2.011718-.394531-4.523437 1.570313-5.695312l9.847656-5.742188c1.546875-.890624 3.484375-.722656 4.859375.417969 1.371094 1.140625 1.886719 3.019531 1.292969 4.703125l-1.988281 5.570313 18.535156-10.691407c1.699219-.957031 3.828125-.640624 5.179688.765626 1.347656 1.410156 1.570312 3.554687.535156 5.207031l-8.171875 12.621093 32.289062-18.59375c1.859375-1.074218 4.230469-.59375 5.527344 1.117188 1.300781 1.710938 1.125 4.121094-.40625 5.625l-13.960937 13.652344 35.386718-20.394532c1.882813-1.144531 4.332032-.667968 5.644532 1.105469 1.3125 1.773438 1.058593 4.253907-.585938 5.722657l-26.109375 24.601562 54.527344-31.429688c1.957031-1.136718 4.464843-.550781 5.710937 1.34375 1.242188 1.890626.792969 4.425782-1.027344 5.773438l-18.773437 13.960938 36.53125-21.078126c1.953125-1.117187 4.4375-.527343 5.679687 1.347657 1.242188 1.875.8125 4.390625-.976562 5.753906l-34.464844 25.921875 52.109375-30.097656c1.953125-1.09375 4.417969-.496094 5.648438 1.371094 1.234375 1.863281.816406 4.363281-.953125 5.730468l-45.074219 33.859375 40.433594-23.335937c1.976562-1.121094 4.484375-.488282 5.703125 1.433594 1.214844 1.917968.710937 4.457031-1.148438 5.765624l-8.300781 5.734376 1.246094-.714844c1.980469-1.15625 4.519531-.535156 5.746093 1.402344 1.230469 1.9375.707032 4.5-1.183593 5.800781l-5.640625 3.90625c1.542968-.074219 3.011718.65625 3.882812 1.929687 1.242188 1.890625.789063 4.421875-1.03125 5.769532l-14.617187 10.785156 4.828125-2.78125c1.90625-1.113282 4.347656-.589844 5.628906 1.207031 1.277344 1.796875.976562 4.273437-.695312 5.710937l-26.019532 22.5625 11.625-6.707031c1.867188-1.125 4.285156-.660156 5.601563 1.082031 1.316406 1.738282 1.109375 4.191407-.484375 5.683594l-15.675782 15.046875c1.828126-.414062 3.714844.410157 4.644532 2.035157.933594 1.625.699218 3.667968-.582032 5.039062l-10.445312 11.21875c.097656.128906.1875.261719.265625.402344 1.179687 2.042968.480469 4.648437-1.5625 5.828125l-10.238281 5.90625c-.65625.382812-1.402344.582031-2.160156.570312zm0 0" fill="#eb5463"/><path d="m308.214844 229.960938c-1.894532.003906-3.566406-1.238282-4.105469-3.054688s.183594-3.769531 1.773437-4.796875l19.960938-12.9375-34.988281 20.207031c-1.984375 1.101563-4.484375.453125-5.683594-1.472656-1.203125-1.921875-.6875-4.453125 1.171875-5.753906l65.535156-44-70.203125 40.542968c-1.980469 1.074219-4.453125.429688-5.648437-1.476562-1.199219-1.910156-.710938-4.417969 1.117187-5.734375l75.671875-51.523437-71.140625 41.0625c-2 1.101562-4.511719.429687-5.699219-1.519532-1.1875-1.945312-.632812-4.484375 1.261719-5.757812l12.800781-8.210938-8.355468 4.8125c-1.992188 1.132813-4.527344.488282-5.734375-1.457031-1.210938-1.949219-.664063-4.503906 1.238281-5.789063l46.257812-30.820312-41.769531 24.105469c-1.964843 1.085937-4.4375.464843-5.652343-1.425781-1.214844-1.886719-.757813-4.394532 1.042968-5.734376l71.101563-50.566406-66.492188 38.398438c-2 1.117187-4.523437.457031-5.71875-1.496094-1.199219-1.949219-.640625-4.5 1.261719-5.773438l3.558594-2.3125c-2.015625.609376-4.175782-.34375-5.082032-2.246093-.910156-1.902344-.292968-4.179688 1.449219-5.367188l32.316407-21.972656-27.785157 16.042969c-1.972656 1.125-4.476562.511718-5.703125-1.398438-1.226562-1.90625-.746094-4.441406 1.09375-5.769531l43.632813-31.070313-39.023438 22.527344c-1.980469 1.136719-4.5.515625-5.726562-1.410156-1.222657-1.925781-.714844-4.472656 1.152343-5.78125l24.300782-16.929688-19.726563 11.382813c-1.980469 1.136719-4.5.511719-5.726562-1.410156-1.222657-1.925781-.714844-4.472657 1.152343-5.785157l14.003907-9.734374-9.4375 5.433593c-1.921875 1.089844-4.351563.535157-5.609375-1.277343-1.261719-1.8125-.929688-4.285157.761718-5.703126l39.472657-32.585937-34.625 19.984375c-1.953125 1.09375-4.414063.496094-5.648438-1.367188-1.234375-1.867187-.816406-4.367187.953125-5.734374l10.488282-7.882813-5.792969 3.34375c-1.867188 1.089844-4.25.617187-5.554688-1.105469-1.304687-1.71875-1.117187-4.144531.433594-5.644531l22.699219-22.023437-17.578125 10.1875c-1.804688 1.039062-4.097657.621093-5.421875-.984376-1.324219-1.609374-1.292969-3.933593.070312-5.507812l11.09375-12.65625-5.710937 3.292969c-1.632813.964843-3.707031.734375-5.085938-.5625-1.382812-1.296875-1.746093-3.351563-.886719-5.042969l4.265626-8.53125c-1.855469-.15625-3.398438-1.5-3.808594-3.320312-.40625-1.816407.414062-3.691407 2.027344-4.625l9.285156-5.386719c1.632812-.960938 3.707031-.734375 5.089844.5625 1.382812 1.300781 1.742187 3.355469.882812 5.046875l-3.660156 7.304687 15.5625-9.011719c1.808594-1.050781 4.109375-.636718 5.4375.976563s1.292968 3.953125-.085938 5.523437l-11.09375 12.648438 25.15625-14.507812c1.863282-1.089844 4.25-.613282 5.554688 1.105468 1.304687 1.71875 1.117187 4.144532-.433594 5.644532l-22.691406 22.058593 37.113281-21.425781c1.949219-1.121094 4.433594-.53125 5.675781 1.34375 1.242188 1.875.816406 4.394531-.976562 5.753906l-10.484375 7.886719 17.917969-10.335937c1.921874-1.113282 4.378906-.5625 5.644531 1.261718 1.265625 1.824219.917969 4.316406-.796875 5.726563l-39.5 32.503906 51.941406-29.984375c1.976562-1.136719 4.5-.515625 5.722656 1.410156 1.226563 1.925782.71875 4.472656-1.148437 5.78125l-14.046875 9.796875 19.679687-11.355469c1.972657-1.09375 4.453125-.460937 5.664063 1.441407 1.210937 1.902343.734375 4.417969-1.089844 5.742187l-24.296875 16.929688 29.757813-17.175782c1.96875-1.125 4.476562-.511718 5.703124 1.398438 1.226563 1.90625.746094 4.441406-1.097656 5.769531l-43.621094 31.050781 50.824219-29.34375c1.984375-1.117187 4.496094-.480468 5.707031 1.449219 1.207032 1.929688.691407 4.464844-1.175781 5.769531l-32.339843 21.988282 37.605468-21.707032c2-1.117187 4.523438-.457031 5.71875 1.496094 1.195313 1.953125.636719 4.5-1.265625 5.773438l-1.867187 1.210937 3.746094-2.15625c1.96875-1.125 4.476562-.511719 5.703124 1.398438 1.226563 1.90625.746094 4.441406-1.097656 5.769531l-71.054687 50.53125 78.710937-45.421875c1.988282-1.113281 4.503906-.46875 5.707032 1.46875 1.207031 1.933594.675781 4.476563-1.203126 5.769531l-46.230468 30.8125 50.046875-28.894531c2-1.101563 4.511719-.429687 5.699219 1.519531 1.1875 1.945313.632812 4.484375-1.261719 5.757813l-12.851563 8.253906 14.019532-8.089844c1.984374-1.117187 4.496093-.476562 5.707031 1.449219 1.207031 1.929688.691406 4.46875-1.175781 5.769531l-75.648438 51.515625 80.394531-46.421875c1.988281-1.113281 4.503907-.46875 5.707031 1.46875 1.207032 1.933594.675782 4.476563-1.203124 5.769531l-65.605469 44.015626 68.542969-39.5625c2-1.164063 4.566406-.519532 5.78125 1.457031 1.210937 1.972656.625 4.554687-1.320313 5.8125l-19.992187 12.953125 20.273437-11.679688c1.96875-1.097656 4.449219-.472656 5.667969 1.421875 1.21875 1.898438.75 4.414063-1.066406 5.746094l-57.832032 40.960937 60.484375-34.929687c1.957031-1.097656 4.429688-.488281 5.65625 1.386719 1.230469 1.878906.792969 4.386718-.996093 5.738281l-48.230469 35.472656 49.355469-28.492187c1.921874-1.09375 4.359374-.535156 5.621093 1.28125 1.257813 1.816406.917969 4.296875-.78125 5.707031l-41.292969 33.734375 42.546876-24.558594c1.914062-1.097656 4.351562-.554687 5.617187 1.253906 1.265625 1.808594.941406 4.285157-.746094 5.707032l-23.414062 19.628906 22.449219-12.964844c1.832031-1.046875 4.15625-.597656 5.464843 1.054688 1.3125 1.65625 1.214844 4.019531-.222656 5.5625l-15.199219 16.152344 13.269532-7.679688c1.78125-1.015625 4.03125-.621094 5.359374.941406 1.332032 1.558594 1.363282 3.84375.078126 5.441406l-3.414063 4.265626.265625-.152344c1.320312-.84375 2.996094-.890625 4.367188-.125 1.367187.761718 2.207031 2.214844 2.1875 3.78125-.023438 1.566406-.902344 2.996094-2.289063 3.722656l-20.300781 11.667969c-1.78125 1.011719-4.03125.617187-5.363282-.941407-1.328124-1.5625-1.359374-3.847656-.074218-5.441406l3.414062-4.21875-18.355468 10.601563c-1.832032 1.058593-4.164063.617187-5.480469-1.042969-1.316407-1.65625-1.214844-4.027344.234375-5.570312l15.195312-16.148438-39.429687 22.761719c-1.914063 1.089843-4.34375.546875-5.609375-1.253907-1.265625-1.804687-.953125-4.273437.726562-5.703124l23.425782-19.6875-46.140626 26.644531c-1.921874 1.074219-4.34375.511719-5.59375-1.296875-1.253906-1.8125-.921874-4.277344.761719-5.695313l41.292969-33.730469-70.59375 40.722657c-1.957031 1.09375-4.429688.488281-5.660156-1.386719-1.226563-1.878906-.789063-4.386719 1-5.738281l48.230468-35.457031-73.738281 42.582031c-1.96875 1.09375-4.449219.472656-5.664062-1.425781-1.21875-1.894532-.75-4.410157 1.066406-5.742188l57.871094-40.960938-83.351563 48.128907c-.644531.386719-1.382812.59375-2.132812.605469zm0 0" fill="#fdcd56"/><g fill="#262626"><path d="m234.265625 220.105469v-209.015625c-11.949219-26.863282-78.601563 7.679687-95.710937 16.332031-80.957032 40.945313-133.726563 122.171875-138.242188 212.78125-4.511719 90.609375 39.925781 176.675781 116.414062 225.464844 20.984376 13.261719 88.371094 53.257812 112.058594 32.144531 9.105469-8.113281 5.480469-24.617188 5.480469-35.582031zm-12.359375 267.875c-13.796875 23.671875-90.058594-23.464844-107.476562-36.171875-44.378907-32.558594-76.773438-78.855469-92.160157-131.703125-16.875-58.898438-11.816406-121.921875 14.242188-177.375 13.558593-28.785157 32.574219-54.664063 55.996093-76.199219 12.332032-11.257812 115.15625-84.089844 129.398438-52.132812v421.207031c0 10.742187 5.625 42.71875 0 52.375zm0 0"/><path d="m392.207031 418.90625-62.363281-61.203125c-10.757812-10.5625-47.332031-56.472656-56.8125-18.882813-4.558594 18.0625 0 43.742188 0 62.242188 0 25.726562-1.777344 52.222656 0 77.890625.929688 13.464844-.980469 21.992187 15.445312 24.355469 17.492188 2.558594 43.714844-9.328125 59.074219-15.273438 21.421875-8.539062 41.71875-19.664062 60.433594-33.128906.996094-.585938 1.738281-1.523438 2.082031-2.628906 7.554688-14.855469-7.832031-23.535156-17.859375-33.371094zm-106.667969 68.699219c-4.070312-8.933594 0-29.867188 0-39.457031v-60.851563c0-12.175781-4.1875-33.816406 0-45.386719 3.800782-10.496094 2.960938-6.699218 11.503907.101563 13.027343 11.546875 25.457031 23.75 37.25 36.554687 9.769531 9.59375 69.792969 55.355469 64 72.003906-16.949219 11.359376-101.617188 61.5-112.753907 37.035157zm0 0"/><path d="m507.304688 286.339844c0-.1875-.066407-.300782-.058594-.46875.019531-.203125.019531-.40625 0-.605469 0-.113281-.09375-.179687-.128906-.292969-.0625-.234375-.160157-.457031-.289063-.664062-5.078125-14.574219-19.054687-11.316406-32.429687-11.316406h-85.332032c-14.558594 0-78.820312-8.753907-60.117187 23.230468 9.984375 17.066406 31.890625 32.492188 45.6875 46.546875 18.226562 18.578125 35.636719 39.1875 55.246093 56.320313 45.320313 39.5 72.292969-82.167969 77.242188-111.878906.035156-.148438.0625-.300782.078125-.453126zm-60.289063 113.355468c-4.726563 0-20.070313-20.480468-23.226563-23.660156-25.507812-25.996094-57.496093-51.269531-79.09375-80.589844-7.453124-10.121093-10.558593-11.707031 2.328126-14.15625 15.453124-2.945312 34.464843 0 50.191406 0 14.96875 0 91.394531-9.695312 97.476562 6.96875-3.359375 22.160157-9.46875 43.808594-18.191406 64.453126-3.082031 7.082031-18.925781 46.941406-29.484375 46.984374zm0 0"/><path d="m350.273438 16.269531c-19.027344-7.519531-64.851563-29.5-77.140626-2.621093-7.773437 16.964843 0 55.339843 0 73.617187 0 38.585937-2.421874 78.039063 0 116.554687 1.136719 18.074219.546876 23.042969 19.328126 25.292969 63.871093 7.757813 133.121093 0 197.53125 0 .578124-.015625 1.148437-.101562 1.707031-.261719 1.078125-.066406 2.136719-.316406 3.128906-.742187 34.1875-15.359375-10.042969-89.730469-23.039063-110.601563-28.703124-45.8125-71.273437-81.277343-121.515624-101.238281zm141.492187 206.496094h-148.328125c-15.078125 0-49.097656 7.332031-57.972656-7.109375-6.050782-9.855469 0-41.71875 0-53.023438v-98.492187c0-18.65625-8.535156-50.585937 11.355468-54.957031 19.242188-4.222656 57.824219 18.023437 74.488282 27.460937 21.132812 12.03125 40.394531 27.085938 57.175781 44.691407 10.09375 10.632812 89.820313 123.714843 63.28125 141.429687zm0 0"/><path d="m193.40625 44.546875c-3.414062.992187-6.796875 2.046875-10.15625 3.167969-1.183594.382812-5.058594 1.9375-3.652344 3.660156 1.410156 1.722656 6.589844-.15625 7.988282-.613281 2.296874-.761719 4.601562-1.46875 6.914062-2.144531 1.203125-.347657 6.167969-1.707032 5.628906-3.695313-.535156-1.988281-5.742187-.664063-6.722656-.375zm0 0"/><path d="m148.597656 60.625c-39.863281 22.09375-72.136718 55.699219-92.605468 96.425781-3.070313 6.101563 9.386718 5.914063 11.769531 1.230469 18.976562-38.207031 49.003906-69.820312 86.1875-90.738281 7.355469-4.101563.699219-10.324219-5.351563-6.917969zm0 0"/><path d="m42.5625 192.542969c-.851562 2.832031-1.5625 5.671875-2.277344 8.53125-1.171875 4.726562 11.296875 2.925781 12.390625-1.46875.710938-2.84375 1.464844-5.6875 2.269531-8.53125 1.3125-4.601563-11.179687-2.902344-12.382812 1.46875zm0 0"/></g></svg>