<svg height="506pt" viewBox="0 -2 506.5864 506" width="506pt" xmlns="http://www.w3.org/2000/svg"><path d="m68.167969 485.917969c-1.890625.003906-3.554688-1.238281-4.09375-3.050781-.535157-1.808594.179687-3.757813 1.761719-4.789063l38.785156-25.183594c-1.378906-.65625-2.304688-2.003906-2.417969-3.527343-.117187-1.523438.589844-2.992188 1.855469-3.851563l19.507812-13.3125c-1.804687.457031-3.699218-.285156-4.710937-1.84375-1.222657-1.929687-.707031-4.480469 1.167969-5.785156l17.289062-12.042969-2.125 1.230469c-1.960938 1.132812-4.46875.535156-5.707031-1.363281-1.238281-1.894532-.777344-4.429688 1.046875-5.769532l31.351562-22.972656-17.253906 9.964844c-1.964844 1.101562-4.445312.488281-5.667969-1.402344-1.222656-1.890625-.765625-4.40625 1.042969-5.746094l15.992188-11.539062-5.648438 3.261718c-1.972656 1.125-4.476562.507813-5.703125-1.398437-1.226563-1.910156-.746094-4.445313 1.09375-5.769531l7.132813-5.078125c-1.507813.125-2.964844-.585938-3.796876-1.851563-1.257812-1.839844-.882812-4.339844.855469-5.734375l26.632813-21.332031-17.152344 9.855469c-1.910156 1.082031-4.328125.542969-5.59375-1.25s-.964844-4.253907.695312-5.6875l28.636719-24.441407-19.6875 11.351563c-1.914062 1.117187-4.367187.578125-5.640625-1.238281-1.273437-1.816406-.941406-4.304688.761719-5.726563l20.972656-17.550781-13.308593 7.679688c-1.933594 1.117187-4.398438.554687-5.660157-1.285157-1.257812-1.84375-.886719-4.34375.855469-5.738281l10.347656-8.285156-4.265625 2.4375c-1.902343 1.109375-4.335937.585937-5.617187-1.203125-1.28125-1.792969-.988282-4.265625.675781-5.707031l14.398437-12.585938-8.210937 4.742188c-1.910156 1.089843-4.335937.546874-5.601563-1.25-1.265624-1.796876-.957031-4.265626.710938-5.695313l3.851562-3.25c-1.738281.078125-3.351562-.90625-4.074218-2.488281-.722656-1.578125-.414063-3.441406.777344-4.707032l6.949218-7.390624c-.824218-.363282-1.511718-.980469-1.957031-1.765626-1.179687-2.039062-.484375-4.644531 1.554687-5.828124l17.066407-9.855469c1.832031-1.0625 4.164062-.617188 5.480469 1.039062 1.316406 1.660157 1.214843 4.03125-.230469 5.574219l-2.800781 2.96875 12.433593-7.175781c1.914063-1.113281 4.359375-.574219 5.632813 1.234375 1.273437 1.8125.949218 4.296875-.742188 5.71875l-1.785156 1.503906 4.523438-2.558594c1.898437-1.089844 4.3125-.5625 5.585937 1.21875 1.277344 1.78125.996094 4.234375-.644531 5.683594l-14.421875 12.601562 15.035156-8.675781c1.929687-1.117187 4.398437-.558593 5.65625 1.285157 1.261719 1.839843.890625 4.339843-.851563 5.738281l-10.285156 8.234375 7.222656-4.164063c1.914063-1.097656 4.351563-.554687 5.617188 1.253907 1.265625 1.808593.941406 4.285156-.746094 5.707031l-21.007812 17.578125 17.421875-10.066406c1.910156-1.085938 4.328125-.546876 5.59375 1.246093 1.269531 1.792969.96875 4.253907-.695313 5.691407l-28.636718 24.453124 25.207031-14.503906c1.925781-1.070312 4.351562-.5 5.597656 1.320313 1.242187 1.820312.894531 4.285156-.800781 5.691406l-26.597656 21.335937 24.292968-14.03125c1.972656-1.121093 4.476563-.507812 5.703125 1.402344 1.226563 1.90625.746094 4.441406-1.09375 5.765625l-3.371093 2.398438.382812-.222657c1.964844-1.097656 4.445312-.484374 5.667969 1.40625 1.222656 1.890626.765625 4.40625-1.042969 5.746094l-15.980469 11.539063 12.226563-7.058594c1.957031-1.097656 4.429687-.492187 5.65625 1.386719 1.226562 1.878906.792968 4.386718-.996094 5.738281l-31.386719 22.964844 21.574219-12.453125c1.972656-1.101563 4.46875-.472656 5.683594 1.441406 1.210937 1.910156.71875 4.4375-1.121094 5.753906l-17.21875 11.988282 8.3125-4.792969c1.984375-1.15625 4.527344-.527344 5.75 1.417969 1.226562 1.945312.6875 4.507812-1.210938 5.800781l-17.921874 12.210937 7.894531-4.539062c2.003906-1.167969 4.570312-.519532 5.78125 1.453125 1.210937 1.976562.625 4.558593-1.320313 5.816406l-9.582031 6.195313c1.996094-1.03125 4.449219-.339844 5.609375 1.582031 1.164062 1.921875.636719 4.417969-1.207031 5.703125l-34.046875 23.792968 20.769531-11.949218c1.929687-1.109375 4.390625-.550782 5.648437 1.285156 1.257813 1.835938.894532 4.332031-.835937 5.730469l-33.277344 26.753906 13.113281-7.570313c1.875-1.144531 4.308594-.683593 5.632813 1.066407s1.101563 4.222656-.511719 5.710937l-21.289062 20.339844c.21875.234375.410156.496094.5625.777344 1.171875 2.039062.480468 4.640625-1.554688 5.820312l-15.359375 8.847656c-1.871093 1.148438-4.308593.6875-5.632812-1.066406-1.320313-1.75-1.101563-4.21875.511719-5.707031l11.214843-10.71875-30.285156 17.492187c-1.929687 1.09375-4.371094.527344-5.621094-1.300781s-.898437-4.308593.816407-5.710937l33.21875-26.734375-58.410157 33.746093c-1.972656 1.121094-4.480469.5-5.703125-1.414062-1.21875-1.914062-.726562-4.449219 1.121094-5.769531l34.132812-23.816407-53.800781 31c-.648437.386719-1.382812.589844-2.132812.597657zm0 0" fill="#fab153"/><path d="m407.726562 485.960938c-1.785156.003906-3.386718-1.105469-4.007812-2.777344-.621094-1.675782-.136719-3.558594 1.214844-4.722656l6.828125-5.863282-11.042969 6.367188c-1.878906 1.046875-4.242188.53125-5.515625-1.203125s-1.054687-4.144531.507813-5.625l13.480468-12.296875-17.550781 10.121094c-1.851563 1.082031-4.21875.621093-5.53125-1.078126-1.308594-1.695312-1.15625-4.101562.359375-5.621093l20.214844-20.375-25.265625 14.582031c-1.855469 1.042969-4.199219.558594-5.488281-1.132812-1.289063-1.695313-1.132813-4.078126.367187-5.589844l21.675781-21.472656-25.601562 14.765624c-1.882813 1.089844-4.285156.59375-5.574219-1.160156-1.292969-1.75-1.058594-4.191406.539063-5.667968l19.859374-18.371094-21.914062 12.722656c-1.90625 1.097656-4.335938.566406-5.609375-1.230469-1.273437-1.792969-.972656-4.261719.691406-5.699219l15.625-13.429687-16.375 9.445313c-1.921875 1.046874-4.328125.472656-5.5625-1.335938-1.238281-1.808594-.90625-4.257812.769531-5.671875l9.332032-7.535156-8.839844 5.121093c-1.894531 1.097657-4.316406.582032-5.597656-1.195312s-1.007813-4.238281.632812-5.691406l20.683594-18.414063-21.332031 12.304688c-1.914063 1.09375-4.34375.550781-5.609375-1.253907-1.265625-1.800781-.949219-4.273437.726562-5.699218l17.128906-14.40625-16.597656 9.582031c-1.910156 1.039063-4.292968.480469-5.539062-1.296875-1.242188-1.78125-.953125-4.210938.675781-5.648438l17.746094-14.820312-17.246094 9.949219c-1.933594 1.085937-4.378906.511719-5.621094-1.324219-1.246093-1.839844-.875-4.324219.851563-5.714844l11.777344-9.292968-10.085938 5.808593c-1.90625 1.082031-4.320312.542969-5.585938-1.246093-1.269531-1.785157-.972656-4.242188.679688-5.683594l23.414062-20.050782-22.597656 13.039063c-1.910156 1.105469-4.351562.570313-5.625-1.234375-1.273437-1.804688-.957031-4.285156.726563-5.710938l25.199219-21.445312-21.332032 12.296875c-1.902344 1.089844-4.320312.5625-5.59375-1.222656-1.273437-1.785157-.988281-4.246094.660156-5.691407l26.96875-23.371093-18.585937 10.726562c-1.945313 1.117188-4.421875.535157-5.671875-1.328125-1.246094-1.863281-.839844-4.375.933594-5.746094l5.164062-3.960937c-1.941406.511719-3.976562-.402344-4.886718-2.191406-.910157-1.789063-.449219-3.972657 1.105468-5.238281l10.34375-8.433594-4.402344 2.5625c-1.847656 1.0625-4.199218.601562-5.503906-1.082032-1.308594-1.6875-1.167968-4.078124.324219-5.601562l17.378906-17.6875-10.640625 6.140625c-1.828125 1.0625-4.160156.621094-5.476562-1.035156-1.316406-1.652344-1.222656-4.023438.222656-5.566407l7.125-7.683593c-1.53125-.601563-2.574219-2.03125-2.691406-3.667969-.113282-1.640625.722656-3.199219 2.152344-4.011719l17.066406-9.855469c1.828125-1.058593 4.15625-.621093 5.476562 1.03125 1.316406 1.652344 1.226563 4.019532-.210937 5.566407l-3.320313 3.558593 13.175782-7.59375c1.847656-1.054687 4.1875-.585937 5.488281 1.09375 1.300781 1.679688 1.164062 4.0625-.316407 5.585938l-17.425781 17.722656 23.382813-13.488281c1.921875-1.101563 4.367187-.542969 5.625 1.28125 1.261718 1.820313.914062 4.304687-.796875 5.714844l-10.339844 8.429687 8.488281-4.90625c1.949219-1.125 4.433594-.542968 5.683594 1.328125 1.25 1.871094.832031 4.386719-.957031 5.753907l-4.265625 3.253906.425781-.242188c1.90625-1.105468 4.339844-.585937 5.621094 1.207032 1.28125 1.792968.984375 4.265624-.679688 5.707031l-26.863281 23.363281 23.476562-13.550781c1.910157-1.105469 4.351563-.570313 5.625 1.234375 1.273438 1.804687.957032 4.285156-.726562 5.710937l-25.226562 21.460938 21.914062-12.636719c1.90625-1.078125 4.320312-.542969 5.585938 1.246094 1.269531 1.789062.972656 4.246094-.679688 5.683594l-23.34375 20.035156 21.21875-12.253906c1.941406-1.140626 4.433594-.578126 5.695312 1.285156 1.261719 1.863281.863282 4.386718-.914062 5.765625l-11.769531 9.273437 9.054687-5.222656c1.917969-1.121094 4.378906-.582031 5.652344 1.238281 1.273438 1.824219.933594 4.320313-.78125 5.734375l-17.757812 14.8125 15.730468-9.078125c1.914063-1.117187 4.367188-.578125 5.640625 1.238281 1.273438 1.816407.941407 4.304688-.761719 5.726563l-17.117187 14.394531 15.8125-9.128906c1.894531-1.097656 4.316406-.582031 5.597656 1.195312 1.28125 1.777344 1.007813 4.238282-.632812 5.691407l-20.710938 18.351562 19.789063-11.414062c1.925781-1.085938 4.363281-.523438 5.613281 1.300781 1.25 1.820312.902344 4.296875-.800781 5.703125l-9.34375 7.550781 8.476562-4.886718c1.902344-1.078126 4.3125-.542969 5.578125 1.242187 1.265625 1.78125.980469 4.234375-.664062 5.675781l-15.632813 13.441406 15.410156-8.890624c1.882813-1.09375 4.285157-.597657 5.578126 1.15625 1.289062 1.75 1.058593 4.195312-.542969 5.667968l-19.847657 18.363282 21.171876-12.21875c1.855468-1.042969 4.195312-.558594 5.484374 1.132812 1.289063 1.695312 1.132813 4.082031-.367187 5.59375l-21.671875 21.46875 24.234375-13.976562c1.84375-.992188 4.132813-.5 5.40625 1.164062 1.273437 1.660156 1.152344 4.003906-.289063 5.523438l-20.207031 20.386718 24.117188-13.917968c1.878906-1.046876 4.242187-.53125 5.515625 1.203124 1.273437 1.734376 1.054687 4.144532-.507813 5.625l-13.480469 12.285157 16.210938-9.386719c1.90625-1.074219 4.3125-.539062 5.582031 1.246094 1.265625 1.78125.976563 4.234375-.664062 5.675781l-6.828125 5.855469 8.667968-5c1.839844-1.050782 4.167969-.59375 5.472657 1.066406 1.308593 1.664062 1.199219 4.035156-.257813 5.570312l-5.878906 6.152344 8.585938-4.957031c1.75-1.007813 3.96875-.648437 5.3125.863281 1.339843 1.507813 1.441406 3.75.242187 5.375l-2.433594 3.257813 4.515625-2.558594c1.519532-.878906 3.425782-.730469 4.796875.367187 1.371094 1.097657 1.929688 2.921876 1.40625 4.597657l-.785156 2.5625 2.714844-1.5625c1.636719-.949219 3.703125-.707031 5.074219.597656l5.121093 4.890625c1.914063-.589844 3.984375.210938 5 1.9375.570313.980469.722657 2.144531.429688 3.242188-.292969 1.09375-1.007813 2.027343-1.988281 2.59375l-2.015626 1.152343c-1.640624.945313-3.707031.699219-5.078124-.605469l-5.050782-4.824218-9.386718 5.429687c-1.523438.875-3.425782.730469-4.796876-.367187-1.371093-1.097656-1.929687-2.921875-1.40625-4.601563l.785157-2.558593-12.980469 7.492187c-1.75.996094-3.960938.632813-5.300781-.871094-1.335938-1.507812-1.441407-3.746093-.246094-5.367187l2.425781-3.257813-16.472656 9.503907c-1.835938 1.050781-4.164062.59375-5.46875-1.070313-1.308594-1.664063-1.199219-4.03125.257812-5.566406l5.878907-6.164063-22.1875 12.800782c-.640625.367187-1.363281.558593-2.097657.5625zm0 0" fill="#fab153"/><path d="m272.515625 485.917969c-1.683594 0-3.210937-.988281-3.898437-2.527344-.683594-1.539063-.402344-3.335937.722656-4.589844l1-1.160156-13.289063 7.679687c-1.761719 1.007813-3.992187.628907-5.328125-.902343-1.332031-1.53125-1.402344-3.792969-.164062-5.402344l18.644531-24.003906-.121094-.203125c-1.175781-2.042969-.476562-4.652344 1.5625-5.828125l6.597657-3.808594c1.765624-1.023437 4.011718-.644531 5.355468.894531 1.339844 1.542969 1.398438 3.820313.136719 5.429688l-12.074219 15.566406 17.632813-10.171875c1.816406-1.050781 4.121093-.621094 5.445312 1.007813 1.320313 1.628906 1.261719 3.976562-.140625 5.535156l-.996094 1.117187 2.730469-1.578125c1.242188-.730468 2.773438-.773437 4.050781-.109375 1.285157.644531 2.160157 1.898438 2.324219 3.328125l.953125 8.53125 4.59375-2.644531c1.320313-.839844 2.996094-.886719 4.367188-.125 1.367187.765625 2.207031 2.214844 2.1875 3.785156-.023438 1.566407-.902344 2.996094-2.289063 3.722657l-10.242187 5.902343c-1.246094.707031-2.765625.738281-4.042969.085938-1.273437-.652344-2.136719-1.902344-2.296875-3.328125l-.953125-8.53125-20.335937 11.730468c-.644532.390626-1.382813.59375-2.132813.597657zm0 0" fill="#e85841"/><path d="m154.574219 485.917969c-1.835938 0-3.464844-1.171875-4.046875-2.914063-.582032-1.746094.019531-3.664062 1.488281-4.765625l37.957031-28.023437-6.324218 3.644531c-1.925782 1.085937-4.359376.519531-5.613282-1.300781-1.25-1.820313-.902344-4.296875.800782-5.703125l23.421874-18.910157-4.367187 2.558594c-1.894531 1.078125-4.292969.554688-5.570313-1.210937-1.273437-1.765625-1.015624-4.207031.605469-5.667969l15.800781-14.070312-.945312.539062c-1.882812 1.089844-4.285156.59375-5.578125-1.160156-1.289063-1.75-1.058594-4.191406.542969-5.667969l8.710937-8.140625c-1.039062-.136719-1.992187-.65625-2.667969-1.460938-1.332031-1.566406-1.355468-3.855468-.0625-5.453124l9.855469-12.117188c-1.492187-.179688-2.785156-1.132812-3.390625-2.511719-.609375-1.378906-.445312-2.976562.429688-4.203125l5.121094-7.253906-.460938-.332031c-1.378906-1.148438-1.890625-3.039063-1.277344-4.726563l4.820313-13.3125c-.78125-1.972656.003906-4.21875 1.84375-5.273437l1.433593-.851563c1.546876-.882812 3.476563-.707031 4.839844.429688 1.367188 1.140625 1.882813 3.007812 1.292969 4.6875l-2.269531 6.289062c1.753906-.613281 3.699218-.019531 4.816406 1.460938 1.117188 1.484375 1.148438 3.519531.074219 5.035156l-2.132813 3.011719c1.617188-.507813 3.382813.011719 4.472656 1.3125 1.332032 1.570312 1.359376 3.867187.058594 5.460937l-8.320312 10.242188 7.058594-4.078125c1.878906-1.09375 4.28125-.597657 5.574218 1.15625 1.292969 1.75 1.058594 4.195312-.542968 5.667969l-5.75 5.351562 4.328124-2.5c1.890626-1.078125 4.292969-.554688 5.566407 1.210938 1.277343 1.765624 1.015625 4.207031-.601563 5.667968l-15.8125 14.078125 15.734375-9.078125c1.925781-1.066406 4.34375-.496094 5.589844 1.316406 1.242187 1.816407.902344 4.277344-.785156 5.6875l-23.433594 18.917969 24.425781-14.105469c1.957032-1.121093 4.453125-.523437 5.6875 1.367188 1.238282 1.886719.789063 4.410156-1.019531 5.757812l-37.914063 28.117188 40.011719-23.089844c1.941407-1.109375 4.410157-.527344 5.65625 1.328125 1.246094 1.855469.847657 4.359375-.910156 5.738281l-29.152344 22.628907 31.574219-18.21875c1.882812-1.164063 4.347656-.691407 5.667969 1.085937 1.324219 1.78125 1.0625 4.273438-.597657 5.742188l-26.011718 24.695312 31.378906-18.109375c1.933594-1.121093 4.40625-.5625 5.667969 1.285157 1.261719 1.847656.878906 4.355468-.875 5.746093l-18.292969 14.507813c.867188.957031 1.253906 2.25 1.054688 3.527344-.199219 1.273437-.964844 2.390624-2.078126 3.035156l-26.632812 15.324218c-1.9375 1.125-4.410156.566407-5.671875-1.28125-1.257813-1.851562-.878906-4.359374.875-5.75l.539063-.417968-12.921876 7.449218c-1.886718 1.191407-4.367187.726563-5.695312-1.0625-1.332031-1.789062-1.0625-4.296874.617188-5.761718l26.011718-24.6875-54.519531 31.511718c-1.945313 1.132813-4.433594.5625-5.6875-1.304687-1.257813-1.863281-.847656-4.386719.933594-5.757813l29.183593-22.632812-51.457031 29.695312c-.644531.386719-1.378906.589844-2.132812.597657zm0 0" fill="#fa6c51"/><path d="m325.847656 485.945312c-1.757812.003907-3.339844-1.070312-3.984375-2.707031-.640625-1.632812-.214843-3.496093 1.074219-4.691406l16.453125-15.300781-26.914063 15.539062c-1.921874 1.109375-4.371093.5625-5.636718-1.257812-1.265625-1.820313-.925782-4.308594.78125-5.722656l14.914062-12.363282-20.246094 11.679688c-1.9375 1.109375-4.398437.542968-5.652343-1.304688-1.253907-1.84375-.875-4.34375.871093-5.734375l12.800782-10.085937-16.648438 9.609375c-1.898437 1.101562-4.324218.582031-5.605468-1.199219-1.28125-1.785156-1-4.246094.648437-5.695312l28.160156-24.679688-34.476562 19.898438c-1.964844 1.128906-4.472657.523437-5.703125-1.378907-1.234375-1.902343-.761719-4.4375 1.070312-5.769531l11.484375-8.3125c-.980469-.257812-1.835937-.863281-2.40625-1.707031-1.253906-1.867188-.84375-4.386719.941407-5.757813l11.679687-9.003906c-.886719-.242188-1.667969-.769531-2.226563-1.503906-1.304687-1.6875-1.160156-4.085938.34375-5.605469l17.234376-17.441406-.238282.144531c-1.792968 1.03125-4.066406.628906-5.394531-.953125-1.328125-1.585937-1.332031-3.894531-.007813-5.480469l9.753907-11.632812c-1.507813-.164063-2.816407-1.121094-3.429688-2.511719-.613281-1.386719-.445312-2.996094.445313-4.226563l5.503906-7.628906c-.160156-.101562-.3125-.210937-.460938-.324218-1.375-1.125-1.914062-2.976563-1.347656-4.660157l4.769532-14.320312c-.847657-1.984375-.078126-4.289063 1.789062-5.367188l1.324219-.792969c1.535156-.890624 3.460937-.738281 4.835937.382813s1.914063 2.976563 1.351563 4.660156l-2.5 7.476563c1.746093-.992188 3.945312-.632813 5.285156.863281s1.457031 3.722656.277344 5.347656l-2.347657 3.25c1.816407-.785156 3.933594-.222656 5.117188 1.359375 1.183594 1.582032 1.125 3.773438-.140625 5.289063l-8.183594 9.769531 6.773438-3.90625c1.847656-.992188 4.136719-.5 5.410156 1.164062 1.273437 1.664063 1.152344 4.003907-.289063 5.527344l-17.210937 17.433594 17.324219-9.976562c1.941406-1.117188 4.421875-.539063 5.667968 1.328124 1.246094 1.863282.839844 4.371094-.933593 5.746094l-4.042969 3.105469 2.558594-1.46875c1.964844-1.128906 4.472656-.519531 5.703125 1.382813 1.234375 1.902343.761719 4.4375-1.070313 5.769531l-1.441406 1.039062.441406-.246093c1.902344-1.105469 4.332032-.582032 5.613282 1.203124 1.28125 1.785157.996093 4.253907-.660157 5.699219l-28.160156 24.671875 29.78125-17.1875c1.933594-1.132812 4.417969-.570312 5.679687 1.285156 1.261719 1.855469.871094 4.371094-.894531 5.753907l-12.800781 10.105469 13.261719-7.679688c1.917969-1.101562 4.359375-.558594 5.625 1.257812 1.265625 1.8125.9375 4.292969-.761719 5.714844l-14.890625 12.355469 15.820313-9.140625c1.882812-1.109375 4.300781-.617188 5.597656 1.140625 1.300781 1.757813 1.0625 4.214844-.554688 5.6875l-16.46875 15.359375 19.011719-10.992188c1.746094-.996093 3.945313-.640624 5.289063.851563 1.34375 1.488281 1.464843 3.714844.292968 5.34375l-9.847656 13.5 13.515625-7.796875c1.757813-1.003906 3.972656-.640625 5.316406.875 1.339844 1.511719 1.433594 3.757812.222657 5.378906l-.851563 1.152344 1.425781-.8125c1.050782-.617188 2.324219-.75 3.480469-.359375 1.148437.390625 2.082031 1.25 2.558594 2.367187l2.917969 6.824219.460937-.265625c1.324219-.761718 2.949219-.757812 4.269531.003906 1.324219.761719 2.136719 2.171876 2.136719 3.699219-.003906 1.527344-.816406 2.933594-2.136719 3.695313l-4.625 2.664062c-1.0625.597656-2.324218.726563-3.484375.351563-1.148437-.390625-2.082031-1.25-2.558593-2.367188l-2.925782-6.824219-15.363281 8.839844c-1.75.996094-3.960937.628906-5.296875-.878906-1.339844-1.507812-1.4375-3.746094-.238281-5.367188l.851562-1.152343-12.800781 7.40625c-1.742188 1.003906-3.949219.65625-5.296875-.835938-1.347656-1.496093-1.46875-3.726562-.292969-5.359375l9.816406-13.464844-34.132812 19.703126c-.65625.371093-1.398438.5625-2.152344.546874zm0 0" fill="#fa6c51"/><path d="m276.191406 447.253906c-1.660156.003906-3.171875-.960937-3.871094-2.46875-.699218-1.507812-.460937-3.285156.613282-4.554687l9.648437-11.40625-12.421875 7.167969c-1.894531 1.09375-4.308594.578124-5.589844-1.195313-1.285156-1.773437-1.019531-4.226563.613282-5.683594l11.75-10.480469-12.945313 7.476563c-1.933593 1.132813-4.417969.570313-5.679687-1.285156-1.261719-1.855469-.871094-4.371094.894531-5.753907l8.824219-6.980468-9.335938 5.390625c-1.933594 1.117187-4.398437.558593-5.660156-1.28125-1.257812-1.84375-.886719-4.34375.855469-5.738281l22.425781-17.972657-23.28125 13.472657c-1.957031 1.140624-4.460938.550781-5.707031-1.339844-1.246094-1.894532-.796875-4.429688 1.023437-5.777344l17.398438-12.96875-17.550782 10.136719c-1.941406 1.101562-4.398437.523437-5.644531-1.328125-1.246093-1.847656-.859375-4.34375.890625-5.726563l32.707032-25.601562-33.015626 19.0625c-1.957031 1.140625-4.460937.550781-5.707031-1.339844-1.246093-1.894531-.796875-4.429687 1.023438-5.777344l24.5-18.261719-24.082031 13.9375c-1.949219 1.109376-4.421876.519532-5.664063-1.347656-1.242187-1.867187-.824219-4.378906.953125-5.746094l29.550781-22.363281-28.355469 16.339844c-1.9375 1.082031-4.378906.496094-5.617187-1.347656-1.238281-1.839844-.859375-4.320313.871094-5.710938l35.757812-27.757812-34.945312 20.171875c-1.972657 1.160156-4.507813.554687-5.746094-1.367188-1.238281-1.925781-.742187-4.480468 1.128906-5.800781l13.738281-9.761719-6.730468 3.882813c-1.953125 1.09375-4.414063.5-5.648438-1.367188-1.234375-1.863281-.816406-4.367187.953125-5.730469l26.222657-19.714843-17.75 10.242187c-1.933594 1.085938-4.378907.511719-5.621094-1.324218-1.246094-1.839844-.875-4.324219.851562-5.714844l30.542969-24.066406-22.390625 12.921874c-1.933594 1.066407-4.363281.484376-5.601562-1.34375-1.234376-1.832031-.875-4.300781.839843-5.699218l24.90625-19.566406-17.226562 9.949218c-1.917969 1.105469-4.363281.558594-5.628907-1.253906-1.265624-1.816406-.933593-4.296875.761719-5.714844l28.972657-24.082031-21.546876 12.414063c-1.941406 1.101562-4.398437.523437-5.644531-1.324219-1.246093-1.851563-.859375-4.347657.890625-5.730469l15.769532-12.324219-9.273438 5.351563c-1.933594 1.101562-4.390625.535156-5.640625-1.304688-1.253906-1.839844-.882813-4.332031.851563-5.726562l16.078124-12.800782-9.53125 5.496094c-1.878906 1.035156-4.234374.511719-5.5-1.214844-1.265624-1.730468-1.054687-4.132812.496094-5.613281l28.808594-26.109375-22.183594 12.800782c-1.875.992187-4.199218.457031-5.449218-1.257813s-1.046876-4.089844.472656-5.570313l25.003906-22.398437-18.59375 10.734375c-1.914062 1.089844-4.34375.546875-5.609375-1.253906-1.265625-1.804688-.953125-4.273438.726563-5.703125l16.878906-14.179688-11.179688 6.441407c-1.878906 1.0625-4.253906.550781-5.535156-1.1875-1.277344-1.742188-1.054688-4.164063.519531-5.640626l23.296875-21.425781-17.605468 10.164063c-1.851563 1.027344-4.179688.542968-5.464844-1.144532-1.285156-1.683593-1.140625-4.058593.34375-5.574218l20.277344-20.164063-14.449219 8.339844c-1.746094 1.011719-3.960938.660156-5.308594-.84375-1.351563-1.5-1.460937-3.742187-.269531-5.371094l10.699218-14.597656c-1.925781.609375-4.015624-.1875-5.050781-1.921875-1.171875-2.039062-.476562-4.640625 1.5625-5.820312l16.648438-9.617188c1.746093-1.011719 3.960937-.660156 5.308593.84375 1.351563 1.5 1.460938 3.742188.269532 5.371094l-10.589844 14.445312 25.277344-14.582031c1.851562-1.03125 4.179687-.542969 5.464844 1.140625 1.285156 1.6875 1.136718 4.058594-.34375 5.574219l-20.261719 20.148437 22.699219-13.058594c1.882812-1.074218 4.273437-.570312 5.558593 1.175782 1.285157 1.742187 1.054688 4.175781-.53125 5.652344l-23.320312 21.445312 19.753906-11.4375c1.910156-1.074219 4.328125-.523438 5.585937 1.273438 1.257813 1.792968.949219 4.253906-.714843 5.683593l-16.816407 14.179688 12.507813-7.21875c1.894531-1.09375 4.308594-.578125 5.589844 1.195312 1.28125 1.773438 1.015625 4.226563-.613281 5.683594l-25.039063 22.332031 20.703125-11.945312c1.878906-1.035156 4.230469-.515625 5.5 1.214844 1.265625 1.730468 1.050781 4.132812-.5 5.609374l-28.757812 26.097657 24.875-14.378907c1.933593-1.125 4.410156-.566406 5.667968 1.28125 1.261719 1.851563.882813 4.359376-.871094 5.75l-16.085937 12.796876 12.289063-7.089844c1.941406-1.125 4.417968-.554688 5.671874 1.304687 1.257813 1.859375.855469 4.375-.910156 5.753907l-15.761718 12.296874 11.945312-6.90625c1.917969-1.082031 4.34375-.53125 5.601562 1.277344 1.257813 1.804688.9375 4.273438-.746093 5.695313l-29.011719 24.105469 25.703125-14.847657c1.9375-1.113281 4.40625-.542969 5.660156 1.308594 1.253907 1.851563.863281 4.355469-.890625 5.742187l-24.925781 19.582032 21.894531-12.636719c1.9375-1.109375 4.398438-.539063 5.652344 1.304687 1.253906 1.847657.871094 4.347657-.871094 5.734376l-30.527344 24.054687 27.632813-15.957031c1.949219-1.09375 4.414063-.496094 5.648437 1.371094 1.230469 1.863281.816407 4.363281-.957031 5.730468l-26.246093 19.71875 23.59375-13.652344c1.972656-1.125 4.476562-.507812 5.703124 1.398438 1.226563 1.910156.746094 4.445312-1.09375 5.769531l-13.613281 9.804688 10.925781-6.3125c1.941407-1.132813 4.429688-.5625 5.6875 1.304687 1.253907 1.863282.84375 4.386719-.9375 5.757813l-35.789062 27.769531 33.726562-19.457031c1.945313-1.085938 4.402344-.492188 5.632813 1.367187 1.234375 1.859375.828125 4.355469-.933594 5.722656l-29.550781 22.367188 27.777344-16.035156c1.957031-1.136719 4.464844-.546875 5.710937 1.34375 1.246094 1.890625.792969 4.425781-1.027343 5.773437l-24.507813 18.269531 22.648437-13.070312c1.9375-1.097656 4.390626-.519531 5.636719 1.324219 1.242188 1.84375.863281 4.335937-.875 5.722656l-32.699219 25.601563 28.007813-16.25c1.957031-1.136719 4.460937-.550782 5.707031 1.34375 1.246094 1.890624.796875 4.425781-1.023437 5.773437l-17.425781 12.980469 8.695312-5.019532c1.929688-1.09375 4.378906-.527343 5.628906 1.304688 1.253906 1.835938.890625 4.320312-.832031 5.71875l-22.410156 17.921875 11.453125-6.613281c1.9375-1.140625 4.429687-.578125 5.695312 1.28125 1.261719 1.863281.859375 4.386718-.917968 5.765625l-9.566407 7.550781c1.71875-.453125 3.542969.1875 4.59375 1.625 1.28125 1.769531 1.015625 4.222656-.617187 5.679688l-12.738282 11.417968c1.496094-.238281 3.011719.320313 3.992188 1.476563 1.332031 1.585937 1.332031 3.902343 0 5.488281l-15.792969 18.660156c.253907.25.464844.539063.628907.855469 1.179687 2.039063.484374 4.648437-1.550782 5.828125l-9.867187 5.699219c-.648438.371093-1.382813.5625-2.132813.554687zm0 0" fill="#fb836f"/><path d="m497.324219 479.144531c-.152344-.109375-.320313-.199219-.492188-.265625-31.121093-13.652344-54.613281-47.683594-68.976562-76.75-16.792969-35.984375-26.882813-74.734375-29.765625-114.34375-2.105469-22.605468-2.96875-47.054687-31.460938-48.085937-13.550781-.273438-26.085937 7.148437-32.367187 19.15625-5 13.898437-7.382813 28.601562-7.023438 43.367187-5.257812-27.503906-9.132812-55.25-11.613281-83.140625-2.859375-30.414062 12.738281-115.617187-35.046875-115.960937-49.03125-.339844-34.808594 74.777344-37.222656 104.773437-2.402344 31.234375-6.496094 62.316407-12.269531 93.109375-.695313-11.398437-2.40625-22.710937-5.121094-33.800781-4.429688-16.214844-12.800782-29.089844-31.847656-28.699219-14.933594.300782-27.878907 10.410156-31.792969 24.824219-7.074219 21.808594-4.625 48.996094-9.386719 71.875-4.15625 20.5-10.492188 40.496094-18.902344 59.648437-14.0625 31.445313-37.90625 69.007813-71.183594 83.464844-.480468.21875-.933593.488282-1.359374.800782h-32.425782v-37.316407h23.945313c3.089843.1875 6.15625-.632812 8.738281-2.34375 1.484375-1.324219 2.074219-2.808593-.75-2.808593h-31.933594v-43.988282h27.417969c7.125 0 9.429687-9.234375 1.042969-9.234375h-28.460938v-42.460937h25.695313c2.617187 0 7.011719-.734375 8.097656-3.636719.957031-2.558594-.855469-4.609375-3.609375-4.609375h-30.183594v-43.851562h25.457032c2.191406 0 7.234374-.851563 8.191406-3.257813.953125-2.40625-.8125-3.191406-3.226563-3.191406h-30.421875v-43.574219h27.359375c6.960938 0 9.566407-8.804688 1.160157-8.804688h-28.519532v-42.402343h27.359375c6.953125 0 9.574219-8.789063 1.160157-8.789063h-28.519532v-43.179687h25.601563c2.414062 0 7.074219-.800781 8.148437-3.414063 1.074219-2.609375-.851562-3.820312-3.414062-3.820312h-30.335938v-42.933594h27.425782c7.152343 0 9.386718-9.316406 1.023437-9.316406h-28.449219v-42.984375h25.550782c2.386718 0 7.082031-.808594 8.148437-3.410157 1.066406-2.605468-.855469-3.722656-3.371094-3.722656h-30.328125v-22.757812c0-5.324219-12.390625-2.808594-12.390625 1.46875v474.367187h-8.269531c-3.703125 0-13.402344 5.527344-5.203125 5.527344h13.472656v15.039063c0 5.324218 12.390625 2.804687 12.390625-1.46875v-13.570313h31.472656c1.183594 1.148437 2.78125 1.761719 4.429688 1.707031h254.683594c.285156.019532.570312.019532.855468 0h.449219c1.320313 0 2.609375-.375 3.722657-1.082031h79.742187c.144531 0 .324219-.058594.46875-.070313h84.839844c.847656-.050781 1.683593-.238281 2.476562-.554687h5.972657c3.703124 0 13.40625-5.527344 5.203124-5.527344zm-268.6875-115.585937c8.855469 31.199218 23.589843 60.417968 43.410156 86.085937-9.328125 11.417969-20.824219 20.875-33.828125 27.816407h-53.863281c-3.003907-.09375-5.972657-.117188-8.882813 0h-15.425781c5.765625-5.554688 14.632813-11.296876 18.773437-16.261719 22.878907-28.945313 39.808594-62.128907 49.816407-97.640625zm106.800781 17.972656c11.09375 31.257812 28.453125 74.71875 57.226562 97.007812h-66.457031c-.328125-.292968-.691406-.539062-1.085937-.734374-15.546875-7.347657-29.191406-18.1875-39.859375-31.675782 20.050781-24.953125 34.882812-53.683594 43.605469-84.480468 2.050781 6.671874 4.238281 13.300781 6.570312 19.882812zm-33.109375 95.929688h-56.257813c10.136719-6.308594 19.933594-13.144532 29.355469-20.476563.519531-.53125.980469-1.109375 1.492188-1.640625 7.480469 8.4375 16.023437 15.871094 25.410156 22.117188zm37.984375-168.480469c1.304688-9.164063 1.238281-83.738281 36.171875-56.480469 15.804687 12.328125 13.808594 76.40625 18.507813 95.445312 11.332031 45.949219 36.695312 104.335938 80.511718 130.667969h-64.296875c-31.90625-18.386719-50.347656-64.707031-62.089843-96.707031-5.417969-14.71875-9.957032-29.738281-13.910157-44.925781 2.023438-9.277344 3.789063-18.605469 5.105469-28zm-88.628906-63.078125c3.953125-32.632813-2.558594-76.414063 7.347656-106.828125 5.625-17.230469 23.765625-32.898438 35.839844-14.164063 6.265625 9.734375 3.902344 21.433594 4.265625 32.375.777343 21.734375 2.066406 43.449219 4.097656 65.109375 3.351563 39.53125 9.847656 78.738281 19.429687 117.238281-3.179687 14.746094-7.457031 29.234376-12.800781 43.339844-7.535156 20.03125-17.585937 39.023438-29.917969 56.515625-10.527343-14.171875-19.460937-29.464843-26.628906-45.601562-7.019531-15.882813-12.585937-32.367188-16.632812-49.253907-.476563-1.9375-.855469-3.90625-1.210938-5.871093 7.28125-30.59375 12.695313-61.605469 16.210938-92.859375zm-143.476563 208.621094c24.667969-28.074219 42.378907-61.570313 51.691407-97.765626 4.34375-15.570312 7.632812-31.414062 9.859374-47.425781 1.273438-9.105469 2.257813-18.242187 2.960938-27.417969-3.078125-26.074218 10.796875-25.742187 41.625.988282 6.671875 13.277344 7.390625 33.945312 9.164062 52.625-3.207031 12.664062-6.828124 25.226562-10.957031 37.605468-11.09375 33.160157-29.140625 82.996094-61.175781 104.328126h-26.351562c-13.382813-.769532-26.800782-.820313-40.191407-.152344 8.40625-6.933594 16.226563-14.554688 23.375-22.785156zm0 0" fill="#262626"/></svg>