<svg height="502pt" viewBox="0 0 502 502.07941" width="502pt" xmlns="http://www.w3.org/2000/svg"><path d="m293.613281 284.820312c-1.789062-.003906-3.386719-1.121093-4-2.804687-.617187-1.679687-.113281-3.566406 1.253907-4.722656l34.796874-29.347657-21.640624 12.496094c-1.898438 1.097656-4.320313.578125-5.601563-1.203125s-1.003906-4.242187.644531-5.691406l26.789063-23.726563-23.042969 13.289063c-1.882812 1.09375-4.285156.59375-5.574219-1.15625-1.292969-1.753906-1.058593-4.195313.539063-5.671875l24.226562-22.441406-25.34375 14.632812c-1.949218 1.109375-4.421875.523438-5.664062-1.347656-1.242188-1.867188-.824219-4.375.953125-5.742188l.445312-.339843-.90625.519531c-1.921875 1.097656-4.367187.542969-5.625-1.28125-1.257812-1.824219-.914062-4.308594.796875-5.714844l11.09375-9.089844-14.207031 8.199219c-1.859375 1.058594-4.214844.578125-5.507813-1.125-1.296874-1.699219-1.128906-4.097656.386719-5.605469l24.113281-23.816406-38.679687 22.339844c-1.9375 1.15625-4.445313.605469-5.714844-1.261719-1.269531-1.867187-.867187-4.398437.917969-5.777343l13.507812-10.695313-30.957031 17.851563c-2.039062 1.160156-4.632812.457031-5.804687-1.574219s-.484375-4.628907 1.539062-5.8125l80.648438-46.558594c1.929687-1.101563 4.386718-.535156 5.640625 1.304687 1.25 1.839844.878906 4.332032-.855469 5.726563l-13.457031 10.707031 17.75-10.238281c1.859375-1.058594 4.210937-.578125 5.507812 1.125 1.292969 1.703125 1.128907 4.101563-.386719 5.609375l-24.125 23.816406 31.199219-18.015625c1.925781-1.125 4.394531-.574219 5.664063 1.261719 1.265625 1.839844.902344 4.34375-.835938 5.746094l-11.09375 9.050781 13.261719-7.679687c1.949219-1.132813 4.445313-.554688 5.695313 1.324218 1.253906 1.878906.824218 4.40625-.976563 5.769532l-.46875.355468.160156-.09375c1.882813-1.089844 4.285157-.59375 5.578125 1.160156 1.292969 1.75 1.058594 4.191407-.542968 5.667969l-24.226563 22.511719 26.710937-15.421875c1.894532-1.097656 4.316407-.578125 5.597657 1.199219s1.007812 4.234375-.632813 5.6875l-26.828125 23.699218 26.675781-15.359374c1.917969-1.121094 4.371094-.582032 5.644532 1.234374 1.273437 1.816407.941406 4.304688-.761719 5.726563l-34.800781 29.339844 33.28125-19.191407c1.320312-.765624 2.949218-.761718 4.269531 0 1.320313.765626 2.132813 2.175782 2.132813 3.699219 0 1.527344-.816407 2.933594-2.136719 3.699219l-74.890625 43.183594c-.648438.375-1.382813.574218-2.132813.574218zm0 0" fill="#46ceac"/><path d="m241.46875 373.992188c-1.859375-.003907-3.5-1.207032-4.058594-2.976563-.5625-1.769531.085938-3.699219 1.601563-4.769531l46.972656-33.144532-63.640625 36.746094c-1.957031.964844-4.332031.300782-5.5-1.546875-1.164062-1.847656-.746094-4.28125.96875-5.632812l59.640625-41.09375-73.011719 42.144531c-2 1.101562-4.511718.429688-5.699218-1.519531-1.1875-1.945313-.632813-4.484375 1.261718-5.757813l10.238282-6.582031-15.195313 8.773437c-1.964844 1.085938-4.4375.464844-5.652344-1.425781-1.214843-1.886719-.757812-4.394531 1.042969-5.734375l7.679688-5.453125-12.476563 7.203125c-1.957031 1.121094-4.449219.523438-5.6875-1.363281-1.238281-1.890625-.789063-4.414063 1.023437-5.761719l1.996094-1.476562-4.566406 2.628906c-1.871094 1.125-4.285156.660156-5.601562-1.082031-1.316407-1.738281-1.109376-4.191407.480468-5.683594l23.972656-23-31.457031 18.160156c-1.902343 1.082031-4.320312.542969-5.585937-1.246093-1.265625-1.789063-.972656-4.246094.679687-5.683594l16.460938-14.121094-19.625 11.304688c-1.9375 1.117187-4.410157.546874-5.664063-1.304688s-.863281-4.359375.894532-5.742188l5.398437-4.269531-5.972656 3.464844c-1.9375 1.101563-4.398438.523437-5.644531-1.324219-1.246094-1.851562-.855469-4.347656.894531-5.730468l5.503906-4.265626-5.265625 3.042969c-1.902344 1.09375-4.324219.5625-5.597656-1.222656-1.273438-1.785156-.984375-4.242187.664062-5.6875l21.46875-18.695313-22.304687 12.875c-1.9375 1.117188-4.410157.546876-5.664063-1.304687s-.863281-4.359375.894532-5.742187l13.953124-10.949219-12.554687 7.253906c-1.921875 1.097656-4.367187.542969-5.628906-1.28125-1.257813-1.824219-.910157-4.308594.800781-5.71875l29.378906-23.890625-27.484375 15.8125c-1.984375 1.070312-4.460937.414062-5.652343-1.496094-1.191407-1.914062-.691407-4.425781 1.144531-5.734375l70.902343-47.554687-67.976562 39.253906c-1.996094 1.136719-4.535156.484375-5.738281-1.472656-1.207031-1.957032-.644531-4.515625 1.269531-5.789063l41.691406-27.359375-35.839844 20.703125c-2 1.242188-4.632812.625-5.875-1.378906-1.242187-2.003906-.625-4.632813 1.378907-5.875l35.941406-23.824219-29.175781 16.84375c-2 1.164063-4.566406.519532-5.78125-1.457031-1.210938-1.972656-.625-4.554687 1.320312-5.8125l8.53125-5.617187-.136718.078124c-1.945313 1.125-4.433594.546876-5.679688-1.324218-1.25-1.871094-.832031-4.390625.953125-5.757813l48.554687-37.113281-30.351562 17.519531c-1.949219 1.136719-4.449219.554688-5.699219-1.324219-1.25-1.878906-.820312-4.40625.980469-5.765624l21.410156-16.265626c-.429687-.332031-.792968-.746093-1.058594-1.21875-1.179687-2.042968-.480468-4.652343 1.5625-5.828124l36.820313-21.265626c1.949219-1.136718 4.445313-.554687 5.699219 1.324219 1.25 1.878907.820312 4.40625-.980469 5.765625l-4.523437 3.414063 29.015624-16.769531c1.949219-1.164063 4.472657-.59375 5.734376 1.300781 1.261718 1.890625.816406 4.4375-1.007813 5.792969l-48.554687 37.101562 74.75-43.152344c2.003906-1.164062 4.570312-.519531 5.78125 1.457032 1.214843 1.972656.628906 4.554687-1.316407 5.8125l-8.617187 5.640624 16.773437-9.675781c1.992188-1.097656 4.492188-.445312 5.691407 1.488281 1.195312 1.933594.667968 4.464844-1.203126 5.757813l-35.882812 23.816406 45.664062-26.359375c1.996094-1.136718 4.535157-.488281 5.742188 1.46875 1.203125 1.957032.640625 4.519532-1.269531 5.792969l-41.636719 27.304687 48.878906-28.21875c1.988282-1.117187 4.503906-.46875 5.710938 1.464844 1.203125 1.9375.671875 4.476563-1.203125 5.769532l-102.683594 68.875c.378906.28125.707031.625.972656 1.015624 1.253907 1.835938.882813 4.332032-.851562 5.722657l-29.398438 23.945312 17.511719-10.109375c1.933594-1.089844 4.378906-.511718 5.621094 1.324219 1.246094 1.835937.875 4.320313-.851563 5.714844l-13.925781 10.980469 9.273438-5.347657c1.902343-1.09375 4.324218-.5625 5.597656 1.222657 1.273437 1.785156.984375 4.242187-.664063 5.6875l-21.417969 18.679687 20.265626-11.699219c1.9375-1.101562 4.398437-.523437 5.644531 1.328125 1.246093 1.847657.859375 4.347657-.890625 5.730469l-5.496094 4.265625 5.121094-2.9375c1.9375-1.113281 4.40625-.542969 5.660156 1.308594 1.253906 1.851562.867188 4.355469-.890625 5.742187l-5.445313 4.265625 7.152344-4.128906c1.910156-1.101563 4.34375-.570313 5.617188 1.230469 1.273437 1.800781.964844 4.273437-.710938 5.707031l-16.410156 14.078125 22.1875-12.796875c1.867188-1.128906 4.285156-.660156 5.601562 1.078125 1.316407 1.742188 1.109376 4.195312-.484374 5.6875l-23.976563 23.039062 40.105469-23.167968c1.960937-1.121094 4.453125-.523438 5.691406 1.363281 1.238281 1.890625.789062 4.414063-1.023438 5.761719l-1.988281 1.46875 23.449219-13.535156c1.972656-1.125 4.476562-.507813 5.703125 1.398437 1.226563 1.910156.746094 4.445313-1.09375 5.769531l-7.628906 5.4375 99.824219-57.609375c2.003906-1.121093 4.535156-.453125 5.726562 1.507813 1.191406 1.960937.617188 4.515625-1.300781 5.78125l-10.339844 6.621094 4.785156-2.816407c1.984375-1.132812 4.507813-.503906 5.726563 1.425781 1.21875 1.933594.699218 4.484376-1.175782 5.785157l-59.648437 41.042969 51.855469-29.941407c1.972656-1.109375 4.464844-.484375 5.683594 1.421875 1.21875 1.902344.738281 4.429688-1.09375 5.753906l-47.007813 33.152344 35.191406-20.316406c1.972657-1.140625 4.492188-.527344 5.722657 1.394531 1.230468 1.917969.734374 4.460938-1.125 5.78125l-19.753907 14.003907 4.113281-2.382813c2.039063-1.160156 4.632813-.453125 5.804688 1.578125s.484375 4.625-1.539062 5.8125l-83.683594 48.324219c-1.976563 1.136719-4.496094.523437-5.726563-1.394531-1.226562-1.917969-.734375-4.464844 1.125-5.78125l19.816407-14.011719-37.25 21.503906c-.652344.378906-1.394532.578125-2.148438.570313zm0 0" fill="#46ceac"/><g fill="#35ba9b"><path d="m280.34375 140.136719c-2.292969 0-4.179688-1.8125-4.265625-4.105469l-.101563-2.761719-6.253906 3.609375c-1.671875.960938-3.777344.683594-5.144531-.675781-1.363281-1.359375-1.648437-3.464844-.695313-5.136719l1.511719-2.636718-12.664062 7.304687c-1.730469 1-3.921875.664063-5.273438-.804687-1.355469-1.46875-1.503906-3.683594-.367187-5.324219l10.359375-14.957031-34.984375 20.207031c-1.90625 1.097656-4.335938.566406-5.609375-1.230469-1.273438-1.792969-.972657-4.261719.691406-5.699219l11.589844-10-1.28125.742188c-1.71875.992187-3.894531.667969-5.25-.78125-1.355469-1.453125-1.53125-3.648438-.421875-5.296875l8.328125-12.441406c-.933594-.339844-1.71875-1.003907-2.210938-1.867188-.570312-.980469-.726562-2.144531-.433593-3.242188.289062-1.09375 1.003906-2.027343 1.988281-2.59375l10.324219-5.972656c1.714843-.988281 3.886718-.664062 5.242187.785156 1.351563 1.445313 1.53125 3.632813.433594 5.28125l-6.394531 9.546876 24.578124-14.191407c1.90625-1.117187 4.351563-.589843 5.632813 1.210938 1.28125 1.804687.972656 4.285156-.710937 5.71875l-11.613282 10.019531 12.304688-7.101562c1.726562-.992188 3.914062-.65625 5.261718.808593 1.351563 1.464844 1.507813 3.667969.378907 5.3125l-10.359375 14.964844 9.847656-5.691406c1.667969-.96875 3.78125-.699219 5.152344.664062 1.371094 1.359375 1.652344 3.472657.691406 5.148438l-1.703125 2.925781c1.246094-.3125 2.566406-.042969 3.59375.726562 1.03125.773438 1.65625 1.964844 1.703125 3.25l.171875 4.652344c1.523437.609375 2.5625 2.042969 2.671875 3.679688.105469 1.640625-.738281 3.195312-2.167969 4l-2.441406 1.398437c-.644531.363281-1.367187.554688-2.109375.554688zm0 0"/><path d="m143.011719 190.363281c-1.773438.003907-3.363281-1.085937-3.996094-2.742187-.632813-1.652344-.175781-3.527344 1.144531-4.707032l14.890625-13.335937-15.53125 8.96875c-1.847656 1.0625-4.195312.601563-5.503906-1.082031-1.304687-1.6875-1.167969-4.078125.324219-5.601563l14.335937-14.589843-15.359375 8.875c-1.902344 1.105468-4.339844.585937-5.617187-1.207032-1.28125-1.792968-.988281-4.265625.675781-5.707031l.640625-.5625c-1.84375.734375-3.953125.101563-5.085937-1.527344-1.132813-1.632812-.992188-3.828125.339843-5.300781l11.4375-12.527344c-1.207031-.828125-1.902343-2.21875-1.84375-3.683594.058594-1.464843.863281-2.792968 2.132813-3.527343l13.859375-7.996094c1.820312-1.058594 4.144531-.628906 5.464843 1.015625 1.324219 1.640625 1.246094 4.003906-.175781 5.558594l-5.972656 6.578125 13.226563-7.636719c1.902343-1.109375 4.335937-.585938 5.617187 1.203125 1.28125 1.792969.988281 4.265625-.675781 5.707031l-.488282.425782 4.738282-2.738282c1.847656-1.078125 4.210937-.621094 5.523437 1.074219 1.3125 1.691406 1.164063 4.097656-.34375 5.617187l-14.371093 14.566407 23.984374-13.824219c1.898438-1.113281 4.328126-.601562 5.617188 1.175781 1.289062 1.78125 1.015625 4.246094-.632812 5.703125l-30.90625 27.65625c1.078124 2.03125.355468 4.550782-1.640626 5.699219l-13.652343 7.902344c-.65625.378906-1.402344.574219-2.15625.570312zm0 0"/><path d="m122.402344 284.007812c-1.15625 0-2.265625-.46875-3.074219-1.296874-1.355469-1.410157-1.582031-3.5625-.542969-5.222657l.691406-1.117187-5.90625 3.414062c-1.757812 1.019532-3.992187.660156-5.339843-.859375-1.347657-1.523437-1.433594-3.785156-.207031-5.40625l7.320312-9.675781-18.097656 10.445312c-1.84375 1.0625-4.183594.609376-5.496094-1.066406-1.308594-1.675781-1.183594-4.058594.289062-5.589844l17.246094-17.917968-17.859375 10.316406c-1.683593.972656-3.8125.6875-5.175781-.695312-1.367188-1.382813-1.625-3.515626-.625-5.183594l7.679688-12.851563-.898438.519531c-2.039062 1.160157-4.628906.457032-5.804688-1.574218-1.171874-2.03125-.484374-4.628906 1.539063-5.816406l15.105469-8.710938c1.679687-.96875 3.800781-.679688 5.164062.703125 1.363282 1.382813 1.621094 3.507813.628906 5.175781l-7.679687 12.800782 29.796875-17.222657c1.84375-1.0625 4.183594-.605469 5.496094 1.066407 1.308594 1.675781 1.1875 4.058593-.289063 5.589843l-17.246093 17.921875 10.152343-5.871094c1.761719-1.03125 4.003907-.671874 5.355469.855469 1.347656 1.527344 1.429688 3.796875.191406 5.414063l-7.320312 9.679687 2.5-1.433593c1.699218-.992188 3.859375-.691407 5.222656.726562 1.367188 1.417969 1.585938 3.585938.527344 5.246094l-1.703125 2.730468c1.804687.25 3.25 1.617188 3.601562 3.40625.351563 1.785157-.472656 3.597657-2.050781 4.511719l-11.09375 6.402344c-.632812.378906-1.359375.582031-2.097656.585937zm0 0"/><path d="m143.710938 377.125c-1.652344 0-3.152344-.949219-3.859376-2.441406-.707031-1.488282-.492187-3.253906.554688-4.53125l12.03125-14.675782-17.679688 10.238282c-1.773437 1.03125-4.027343.65625-5.371093-.894532-1.339844-1.550781-1.390625-3.839843-.117188-5.445312l12.886719-16.375-11.195312 6.46875c-1.8125 1.035156-4.109376.609375-5.425782-1.011719-1.320312-1.617187-1.273437-3.953125.109375-5.515625l10.15625-11.359375c-.402343-.207031-.765625-.476562-1.078125-.800781-1.359375-1.417969-1.578125-3.582031-.527344-5.242188l6.605469-10.46875c-.636719-1.917968.160157-4.019531 1.910157-5.035156l2.882812-1.707031c1.703125-.992187 3.859375-.691406 5.226562.726563 1.363282 1.417968 1.582032 3.585937.527344 5.246093l-.75 1.195313c1.832032-.898438 4.042969-.371094 5.277344 1.253906 1.230469 1.625 1.140625 3.898438-.21875 5.421875l-5.84375 6.542969 7.320312-4.214844c1.773438-1.03125 4.027344-.65625 5.371094.894531 1.339844 1.550781 1.390625 3.839844.117188 5.445313l-12.894532 16.375 18.773438-10.828125c1.785156-1.035157 4.054688-.644531 5.390625.929687 1.335937 1.574219 1.351563 3.875.042969 5.46875l-12.03125 14.679688 19.15625-11.09375c2.027344-1.058594 4.527344-.335938 5.671875 1.644531s.527343 4.507813-1.402344 5.734375l-39.433594 22.769531c-.660156.398438-1.414062.609375-2.183593.605469zm0 0"/><path d="m256.050781 417.691406c-1.644531 0-3.144531-.945312-3.851562-2.433594-.707031-1.484374-.496094-3.242187.539062-4.519531l5.683594-7.007812-20.480469 11.8125c-1.871094 1.144531-4.304687.683593-5.628906-1.066407-1.324219-1.753906-1.101562-4.222656.511719-5.710937l21.144531-20.199219-22.953125 13.246094c-1.71875.9375-3.855469.589844-5.183594-.851562-1.328125-1.4375-1.507812-3.597657-.433593-5.234376l7.835937-11.585937-6.761719 3.898437c-1.210937.710938-2.699218.765626-3.964844.152344-1.269531-.601562-2.160156-1.789062-2.382812-3.171875l-1.902344-11.863281c-1.699218-.40625-2.980468-1.8125-3.226562-3.542969-.25-1.730469.582031-3.4375 2.101562-4.308593l2.4375-1.398438c1.21875-.699219 2.699219-.757812 3.964844-.152344 1.265625.601563 2.15625 1.789063 2.378906 3.171875l1.703125 10.625 17.445313-10.058593c1.71875-.996094 3.898437-.671876 5.253906.785156 1.355469 1.453125 1.527344 3.652344.410156 5.296875l-7.832031 11.589843 37.65625-21.734374c1.871094-1.148438 4.308594-.683594 5.632813 1.066406 1.320312 1.75 1.101562 4.21875-.511719 5.707031l-21.164063 20.214844 9.746094-5.613281c1.78125-1.03125 4.046875-.644532 5.382812.921874 1.339844 1.566407 1.367188 3.863282.070313 5.460938l-7.773437 9.566406c1.6875.417969 2.953124 1.816406 3.199218 3.539063.246094 1.722656-.578125 3.421875-2.082031 4.292969l-14.773437 8.535156c-.664063.386718-1.421876.585937-2.191407.570312zm0 0"/><path d="m349.746094 379.898438c-1.714844 0-3.261719-1.027344-3.929688-2.609376-.667968-1.582031-.320312-3.40625.875-4.636718l3.507813-3.601563-9.386719 5.402344c-1.832031 1.0625-4.167969.617187-5.484375-1.046875-1.3125-1.660156-1.210937-4.035156.246094-5.574219l10.820312-11.496093-19.378906 11.195312c-1.867187 1.109375-4.269531.636719-5.578125-1.089844-1.3125-1.730468-1.113281-4.167968.457031-5.667968l13.601563-13.140626-22.425782 12.953126c-1.859374 1.058593-4.210937.578124-5.507812-1.125-1.292969-1.703126-1.128906-4.097657.386719-5.605469l40.628906-40.046875c.121094-1.386719.910156-2.625 2.117187-3.320313l3.515626-2.03125c1.859374-1.074219 4.230468-.59375 5.527343 1.117188 1.300781 1.710937 1.125 4.121093-.410156 5.625l-21.640625 21.332031 23.707031-13.652344c1.867188-1.109375 4.265625-.636718 5.578125 1.09375 1.308594 1.730469 1.113282 4.167969-.457031 5.664063l-13.652344 13.140625 14.34375-8.277344c1.832031-1.058594 4.167969-.613281 5.480469 1.046875 1.316406 1.660156 1.210938 4.035156-.242188 5.574219l-10.804687 11.488281 10.984375-6.339844c1.84375-1.050781 4.175781-.589843 5.480469 1.085938 1.300781 1.671875 1.179687 4.046875-.292969 5.578125l-10.640625 10.929687c.386719.324219.714844.710938.972656 1.144531 1.179688 2.039063.480469 4.648438-1.5625 5.828126l-14.703125 8.480468c-.644531.382813-1.382812.582032-2.132812.582032zm0 0"/><path d="m366.558594 286.800781c-1.796875-.003906-3.398438-1.132812-4.007813-2.824219-.609375-1.691406-.089843-3.582031 1.292969-4.730468l6.828125-5.597656c-1.933594.621093-4.035156-.207032-5.027344-1.976563-.992187-1.769531-.597656-3.996094.9375-5.320313l5.445313-4.648437c-1.882813.808594-4.078125.164063-5.226563-1.535156-1.144531-1.703125-.917969-3.976563.542969-5.417969l4.691406-4.652344c-1.609375.679688-3.472656.308594-4.695312-.9375-1.226563-1.246094-1.570313-3.113281-.867188-4.710937l4.554688-10.300781-.238282.136718c-1.339843.773438-2.992187.761719-4.320312-.03125-1.332031-.792968-2.125-2.246094-2.078125-3.792968l.152344-5.324219c-1.3125-.761719-2.117188-2.167969-2.117188-3.6875 0-1.515625.804688-2.921875 2.117188-3.683594l2.238281-1.289063c1.335938-.773437 2.988281-.761718 4.316406.027344 1.328125.792969 2.125 2.242188 2.082032 3.785156l-.078126 2.785157 4.941407-2.851563c1.597656-.921875 3.609375-.710937 4.980469.523438 1.371093 1.230468 1.796874 3.207031 1.054687 4.894531l-4.550781 10.292969 16.71875-9.644532c1.855468-1.042968 4.195312-.558593 5.484375 1.132813 1.289062 1.695313 1.132812 4.082031-.367188 5.59375l-4.597656 4.5625 10.972656-6.339844c1.910157-1.101562 4.34375-.570312 5.617188 1.230469 1.273437 1.800781.964843 4.273438-.710938 5.707031l-5.316406 4.539063 3.140625-1.816406c1.925781-1.136719 4.398438-.59375 5.671875 1.242187 1.277344 1.832031.921875 4.339844-.816406 5.746094l-6.332031 5.222656 1.597656-.929687c2.039062-1.160157 4.628906-.457032 5.804687 1.574218 1.171875 2.03125.484375 4.628906-1.539062 5.816406l-46.164063 26.65625c-.648437.378907-1.382812.578126-2.132812.574219zm0 0"/><path d="m351.179688 190.96875c-1.632813 0-3.121094-.933594-3.835938-2.402344s-.527344-3.214844.484375-4.5l6.929687-8.804687-8.707031 5.023437c-1.785156 1.035156-4.054687.640625-5.390625-.933594-1.332031-1.578124-1.347656-3.882812-.035156-5.472656l12.296875-14.933594-17.261719 10.015626c-1.777344 1.03125-4.03125.652343-5.371094-.902344-1.34375-1.550782-1.386718-3.839844-.109374-5.445313l12.398437-15.640625-19.695313 11.375c-1.8125 1.035156-4.105468.609375-5.425781-1.011718-1.316406-1.617188-1.269531-3.953126.109375-5.515626l3.148438-3.542968-7.074219 4.078125c-1.320313.777343-2.953125.78125-4.28125.019531s-2.144531-2.175781-2.140625-3.707031.824219-2.945313 2.15625-3.703125l29.96875-17.296875c1.8125-1.046875 4.121094-.625 5.441406 1 1.324219 1.621093 1.273438 3.964843-.117187 5.53125l-3.164063 3.539062 16.214844-9.34375c1.769531-1.019531 4.019531-.640625 5.355469.910157 1.335937 1.546874 1.386719 3.824218.121093 5.429687l-12.414062 15.652344 18.328125-10.582031c1.785156-1.035157 4.058594-.640626 5.390625.9375 1.335938 1.574218 1.351562 3.878906.035156 5.46875l-12.304687 14.925781 7.433593-4.265625c1.769532-1.03125 4.027344-.660156 5.371094.890625 1.34375 1.546875 1.394532 3.832031.125 5.441406l-11.007812 13.910156c.519531.355469.949218.824219 1.261718 1.371094 1.179688 2.039063.484376 4.648437-1.554687 5.828125l-10.546875 6.09375c-.648438.367188-1.382812.5625-2.132812.5625zm0 0"/></g><path d="m246.074219 306.050781c.804687.253907 1.648437.339844 2.484375.253907 28.585937-1.542969 56.167968-19.207032 59.511718-49.816407 1.40625-15.300781-3.730468-30.480469-14.136718-41.785156s-25.113282-17.675781-40.476563-17.539063c-28.460937-.546874-53.277343 19.25-59.066406 47.121094-5.558594 33.519532 20.207031 58.855469 51.683594 61.765625zm2.484375-102.144531c56.839844-1 64.90625 92.417969 4.882812 95.660156-56.066406-3.03125-65.539062-94.59375-4.882812-95.617187zm0 0" fill="#262626"/><path d="m102.929688 227.84375c-11.382813 3.796875-19.628907 5.726562-20.121094 19.625-.324219 8.703125-2.339844 20.804688 6.527344 25.558594 3.109374 1.347656 6.324218 2.4375 9.617187 3.25l31.300781 10.445312c2.53125 8.363282 6.015625 16.40625 10.375 23.980469v.058594c0 .050781-.09375.074219-.121094.117187l-15.128906 30.277344c-2.402344 3.605469-4.136718 7.609375-5.117187 11.828125-.480469 8.03125 11.859375 17.816406 17.484375 22.1875 8.941406 6.9375 18.773437 1.707031 27.578125-2.742187l26.691406-13.34375c6.484375 3.308593 13.230469 6.082031 20.164063 8.292968-.160157.253906-.21875.558594-.160157.855469l11.042969 33.140625c.792969 4.019531 2.367188 7.84375 4.632812 11.257812 5.871094 6.253907 18.96875 4.078126 26.65625 3.796876 13.5-.511719 20.140626-4.308594 24.304688-16.792969l11.261719-33.792969c5.140625-1.707031 10.175781-3.699219 15.089843-5.972656l30.4375 15.222656c11.09375 5.554688 19.457032 7.347656 29.601563-1.835938 5.75-5.203124 15.703125-12.464843 16.707031-20.683593-.058594-4.4375-1.457031-8.757813-4.007812-12.390625l-15.96875-31.941406c3.832031-6.828126 6.953125-14.035157 9.3125-21.503907l27.886718-9.292969c3.804688-1.058593 7.535157-2.363281 11.167969-3.90625 8.917969-4.34375 9.113281-11.332031 9.226563-20.480468.09375-7.132813 1.484375-17.195313-4.71875-22.117188-3.691406-2.199218-7.710938-3.792968-11.90625-4.71875l-31.570313-10.53125c-2.398437-7.699218-5.574219-15.132812-9.472656-22.1875.0625-.199218.085937-.414062.066406-.621094 4.871094-9.761718 9.75-19.523437 14.636719-29.277343 2.109375-3.414063 3.808594-7.0625 5.058594-10.875 1.964844-9.078125-8.386719-16.671875-14.285156-22.140625-10.078126-9.386719-18.21875-6.992188-29.320313-1.433594l-28.160156 14.09375c-6.28125-3.226562-12.824219-5.90625-19.566407-8.011719l-11.144531-33.160156c-.8125-4.042969-2.390625-7.890625-4.652343-11.339844-5.757813-6.253906-19.171876-4.265625-26.707032-3.96875-13.601562.503907-20.070312 4.410157-24.261718 16.964844-3.632813 10.925781-7.273438 21.855469-10.921876 32.785156-5.773437 1.953125-11.410156 4.300781-16.863281 7.03125l-27.988281-13.996093c-8.277344-5.871094-19.328125-6.019532-27.757812-.367188-8.203126 5.054688-14.863282 12.253906-19.269532 20.824219-.453125 4.730469.878906 9.460937 3.738282 13.257812 5.347656 10.714844 10.703124 21.425781 16.066406 32.136719h.054687c-4.15625 7.359375-7.5 15.148438-9.976562 23.230469zm59.21875-48.785156c19.824218-26.042969 34.648437-29.117188 68.363281-35.253906 29.011719-5.28125 51.046875-5.613282 72.601562 5.652343.257813.328125.578125.601563.945313.800781 18.222656 10.453126 33.425781 25.445313 44.136718 43.519532 5.574219 9.660156 9.761719 20.054687 12.441407 30.882812.101562.417969.203125.851563.296875 1.253906.777344 3.300782 1.324218 6.605469 1.816406 9.898438.394531 2.789062.691406 5.589844.855469 8.378906l.078125 1.050782c.714844 12.074218-.34375 24.191406-3.140625 35.960937-2.445313 9.851563-6.175781 19.339844-11.09375 28.21875-10.59375 18.507813-25.957031 33.832031-44.492188 44.371094-.492187.296875-.945312.652343-1.351562 1.058593-14.089844 7.496094-29.570313 12.011719-45.480469 13.269532-3.179688.113281-6.363281.089844-9.550781-.074219-26.007813-2.210937-50.691407-12.4375-70.644531-29.269531l-.566407-.488282c-2.101562-1.84375-4.144531-3.761718-6.125-5.75-3.015625-3.085937-5.863281-6.332031-8.535156-9.71875-.460937-.589843-.921875-1.1875-1.371094-1.785156-2.90625-3.878906-5.59375-7.917968-8.046875-12.101562-4.59375-7.988282-8.21875-16.492188-10.804687-25.335938-.152344-.5-.238281-1.023437-.382813-1.535156-5.210937-19.714844-5.488281-40.414062-.804687-60.261719 3.640625-15.628906 10.761719-30.230469 20.839843-42.71875zm-59.089844 90.453125c-8.132813-3.601563-7.878906-9.164063-7.988282-17.417969-.078124-6.597656-1.417968-15.15625 4.445313-18.867188 4.289063-1.972656 8.78125-3.472656 13.398437-4.472656l16.347657-5.441406c-.589844 2.269531-1.226563 4.511719-1.707031 6.824219-3.058594 15.5625-2.945313 31.582031.335937 47.097656 0 .195313.050781.382813.09375.578125l-10.957031-3.667969c-4.566406-1.527343-9.542969-2.707031-13.96875-4.667969zm50.464844 104.105469c-.625.121093-1.066407.222656-1.382813.308593.246094-.28125.171875-.769531-1.296875-1.511719-3.777344-2.652343-7.15625-5.832031-10.027344-9.445312-5.597656-5.742188-9.386718-9.917969-6.460937-17.808594 1.878906-4.324218 3.988281-8.546875 6.324219-12.640625l5.886718-11.78125c10.304688 14.929688 23.722656 27.449219 39.332032 36.691407l-19.175782 9.507812c-4.121094 2.726562-8.550781 4.953125-13.199218 6.636719zm116.164062 18.160156c-1.300781 4.753906-2.859375 9.429687-4.675781 14.011718-2.390625 5.117188-4.53125 5.332032-10.71875 5.332032-17.347657 0-17.554688-8.949219-21.914063-22.023438-1.90625-5.722656-3.8125-11.449218-5.726562-17.179687 5.851562.933593 11.753906 1.476562 17.671875 1.632812.90625.058594 1.785156.21875 2.691406.261719.152344-.007812.308594-.027344.460937-.058594.28125.027344.566407.042969.851563.042969.851563-.042969 1.707031-.164063 2.558594-.222656 8.699219-.210938 17.355469-1.222657 25.867187-3.027344-2.351562 7.082031-4.707031 14.160156-7.066406 21.230469zm92.246094-28.253906c-4.078125 4.179687-6.726563 8.601562-12.144532 7.355468-4.621093-1.730468-9.050781-3.941406-13.210937-6.597656l-18.40625-9.207031c14.023437-8.949219 26.195313-20.511719 35.839844-34.066407l6.582031 13.160157c5.671875 11.222656 12.347656 18.074219 1.339844 29.355469zm38.398437-128.207032c7.59375 3.851563 6.648438 11.195313 6.5625 19.054688-.078125 5.871094.972657 10.976562-3.824219 13.929687-4.496093 2.027344-9.191406 3.59375-14.011718 4.664063l-15.640625 5.214844c.257812-1.167969.53125-2.335938.75-3.507813.09375-.484375.15625-.980469.242187-1.464844.5-2.789062.910156-5.582031 1.226563-8.382812.101562-.894531.300781-1.703125.382812-2.644531.070313-.714844 0-1.414063.085938-2.132813.238281-3.15625.386719-6.3125.386719-9.480469 0-1.707031-.09375-3.363281-.171876-5.050781-.101562-2.367187-.269531-4.734375-.496093-7.101563-.117188-1.109374-.1875-2.234374-.339844-3.335937-.355469-2.84375-.796875-5.6875-1.332031-8.53125l12.167968 4.050781c4.777344 1.238282 9.457032 2.8125 14.011719 4.710938zm-52.90625-103.5c5.71875-1.269531 9.703125 4.832032 13.875 9.105469 5.316407 5.453125 9.214844 9.335937 6.398438 16.726563-1.703125 4.503906-4.445313 8.882812-6.59375 13.199218-1.945313 3.878906-3.890625 7.765625-5.828125 11.65625-9.980469-14.375-22.820313-26.539062-37.71875-35.726562l16.632812-8.320313c4.160156-2.683593 8.597656-4.910156 13.234375-6.640625zm-115.089843-20.027344c3.054687-9.171874 2.980468-19.054687 14.132812-19.183593 18.585938-.222657 18.507812 7.878906 23.148438 21.785156 1.882812 5.691406 3.773437 11.359375 5.667968 17.007813-16.558594-2.695313-33.472656-2.296876-49.886718 1.167968 2.308593-6.925781 4.621093-13.855468 6.9375-20.777344zm-97.59375 44.3125c-2.996094-6.6875-.675782-10.589843 4.445312-16.628906 3.746094-4.414062 7.039062-9.039062 12.015625-8.066406 4.652344 1.664062 9.085937 3.882812 13.207031 6.605469l21.421875 10.710937c-.964843.578125-1.855469 1.246094-2.800781 1.851563-.949219.605469-1.902344 1.253906-2.839844 1.894531-4.5 3.046875-8.808594 6.375-12.894531 9.957031-1.023437.894531-2.082031 1.757813-3.082031 2.6875-2.011719 1.886719-3.960938 3.847657-5.855469 5.863281-1.703125 1.773438-3.25 3.625-4.820313 5.496094-1.808593 2.175782-3.609374 4.351563-5.289062 6.65625l-6.902344-13.816406c-2.195312-4.386719-4.609375-8.730469-6.605468-13.210938zm0 0" fill="#262626"/><path d="m253.414062 333.597656c-4.574218.117188-13.117187 7.15625-4.828124 6.945313 33.457031-.164063 64.46875-17.558594 82.046874-46.03125 2.96875-4.84375-9.386718-3.667969-11.503906-.21875-13.554687 23.660156-38.457031 38.554687-65.714844 39.304687zm0 0" fill="#262626"/><path d="m342.066406 259.414062c.28125-3.105468.417969-6.203124.445313-9.324218 0-3.304688-12.324219-1.171875-12.355469 3.308594 0 2.5625-.171875 5.164062-.402344 7.742187-.417968 4.488281 11.964844 2.082031 12.3125-1.726563zm0 0" fill="#262626"/><path d="m248.4375 502.078125c3.875.09375 13.382812-5.554687 5.121094-5.75-212.914063-5.070313-315.324219-255.746094-179.402344-411.222656v57.351562c0 2.40625 12.355469.539063 12.355469-3.308593v-68.269532c0-1.246094-2.980469-1.066406-3.566407-1.066406h-68.269531c-3.652343 0-13.414062 5.445312-5.222656 5.445312h62.925781c-155.03125 159.488282-44.449218 421.574219 176.058594 426.820313zm0 0" fill="#262626"/><path d="m248.804688 8.535156c211.398437 5.035156 315.675781 252.988282 179.140624 408.355469v-54.632813c0-6.707031-12.558593-5.074218-12.558593.855469v67.824219c-.316407.71875-.148438 1.5625.425781 2.105469 1.128906 1.839843 3.21875 2.867187 5.367188 2.636719h68.265624c7.226563 0 9.34375-9.523438.972657-9.523438h-57.660157c149.460938-159.804688 40.824219-420.949219-179.566406-426.15234375-5.726562-.17187525-12.722656 8.37109375-4.386718 8.53124975zm0 0" fill="#262626"/></svg>