<svg id="Icons" height="512" viewBox="0 0 60 60" width="512" xmlns="http://www.w3.org/2000/svg"><path d="m22.217 11.028a.5.5 0 0 1 -.25-.933l9.72-5.613a.5.5 0 0 1 .6.793l-1.55 1.5a.5.5 0 0 1 .359.922l-3.302 1.903a.5.5 0 0 1 -.6-.792l1.483-1.436-6.212 3.587a.5.5 0 0 1 -.248.069z" fill="#f84861"/><path d="m5.084 32.438a.5.5 0 0 1 -.355-.852l1.45-1.466-2.555 1.48a.5.5 0 0 1 -.592-.8l3.023-2.838-4.513 2.603a.5.5 0 0 1 -.556-.829l2.868-2.215-2.474 1.428a.5.5 0 0 1 -.546-.837l2.366-1.734-1.714.99a.5.5 0 0 1 -.554-.83l5.473-4.209-4.545 2.624a.5.5 0 0 1 -.538-.842l5.541-3.911-4.572 2.64a.5.5 0 0 1 -.523-.852l14.182-9.281-12.701 7.333a.5.5 0 0 1 -.517-.856l5.668-3.574-4.322 2.5a.5.5 0 0 1 -.518-.855l5.224-3.3-3.684 2.121a.5.5 0 0 1 -.523-.853l6.147-3.992-3.93 2.269a.5.5 0 0 1 -.521-.853l2.039-1.314a.5.5 0 0 1 -.253-.9l4.141-2.994a.5.5 0 0 1 -.009-.872l6.109-3.525a.5.5 0 0 1 .543.838l-2.213 1.6 7.332-4.233a.5.5 0 0 1 .52.854l-.532.343 2.783-1.611a.5.5 0 0 1 .523.853l-6.145 3.991 8.66-5a.5.5 0 0 1 .518.855l-5.226 3.305 5.271-3.043a.5.5 0 0 1 .517.856l-5.671 3.573 5.72-3.3a.5.5 0 0 1 .524.851l-15.257 9.985a.5.5 0 0 1 .279.909l-5.546 3.909 1.552-.9a.5.5 0 0 1 .555.829l-5.468 4.212 3.1-1.791a.5.5 0 0 1 .546.837l-2.365 1.736.971-.56a.5.5 0 0 1 .556.828l-2.868 2.214 1.82-1.05a.5.5 0 0 1 .592.8l-3.022 2.835 2.031-1.174a.5.5 0 0 1 .606.785l-1.45 1.466.7-.406a.5.5 0 0 1 .5.866l-3.922 2.266a.49.49 0 0 1 -.25.068z" fill="#f84861"/><path d="m22.981 38.478a.5.5 0 0 1 -.465-.682l.5-1.275-2.736 1.579a.5.5 0 0 1 -.609-.781l1.464-1.509-.855.493a.5.5 0 0 1 -.589-.8l.662-.611-.074.042a.5.5 0 0 1 -.627-.761l1.991-2.289-1.364.786a.5.5 0 0 1 -.582-.807l.4-.356a.511.511 0 0 1 -.473-.2.5.5 0 0 1 .066-.665l.527-.478a.5.5 0 0 1 -.573-.785l1.83-2.179-1.2.69a.5.5 0 0 1 -.7-.657l.525-1.051a.5.5 0 0 1 -.243-.933l1.128-.651a.5.5 0 0 1 .7.656l-.468.937 2.207-1.274a.5.5 0 0 1 .633.754l-1.829 2.18 1.492-.861a.5.5 0 0 1 .587.8l-.526.478a.5.5 0 0 1 .524.836l-.4.355a.5.5 0 0 1 .448.823l-1.989 2.288 1.368-.789a.5.5 0 0 1 .589.8l-.663.613.078-.045a.5.5 0 0 1 .61.781l-1.461 1.506.855-.494a.5.5 0 0 1 .716.615l-.52 1.336a.5.5 0 0 1 .494.246.5.5 0 0 1 -.184.683l-1.018.587a.509.509 0 0 1 -.246.069z" fill="#186fee"/><path d="m28.7 38.495a.5.5 0 0 1 -.359-.848l.817-.844-.874.5a.5.5 0 0 1 -.607-.783l1.421-1.455-.814.47a.5.5 0 0 1 -.6-.793l1.015-.978-.419.241a.5.5 0 0 1 -.58-.809l.356-.311a.478.478 0 0 1 -.423-.2.5.5 0 0 1 .043-.658l1.269-1.268-.666.383a.5.5 0 0 1 -.6-.79l1.11-1.084-.511.295a.5.5 0 0 1 -.626-.762l1.967-2.251-1.341.774a.5.5 0 0 1 -.624-.765l1.9-2.132-1.272.734a.5.5 0 0 1 -.594-.8l.909-.866-.315.181a.5.5 0 0 1 -.6-.788l1.194-1.184-.593.343a.5.5 0 0 1 -.608-.782l1.421-1.46-.813.47a.5.5 0 0 1 -.583-.806l.355-.316a.491.491 0 0 1 -.359-.13.5.5 0 0 1 -.117-.579l.589-1.28a.5.5 0 0 1 -.3-.93l1.128-.651a.5.5 0 0 1 .7.642l-.556 1.21 2.423-1.4a.5.5 0 0 1 .583.806l-.259.232a.512.512 0 0 1 .478.186.5.5 0 0 1 -.036.656l-1.422 1.46.817-.472a.5.5 0 0 1 .6.789l-1.2 1.184.6-.344a.5.5 0 0 1 .594.8l-.91.867.318-.184a.5.5 0 0 1 .624.766l-1.895 2.131 1.273-.735a.5.5 0 0 1 .626.762l-1.965 2.261 1.345-.777a.5.5 0 0 1 .6.791l-1.11 1.086.512-.3a.5.5 0 0 1 .6.787l-1.269 1.268.667-.385a.5.5 0 0 1 .58.809l-.354.311a.5.5 0 0 1 .373.859l-1.014.977.419-.241a.5.5 0 0 1 .608.782l-1.423 1.456.818-.472a.5.5 0 0 1 .609.781l-.816.843.209-.12a.5.5 0 0 1 .733.562l-.27 1.01a.5.5 0 0 1 .04.887l-.507.292a.509.509 0 0 1 -.555-.037.5.5 0 0 1 -.178-.525l.192-.72-2.256 1.3a.489.489 0 0 1 -.242.071z" fill="#f84861"/><path d="m38.133 38.484a.5.5 0 0 1 -.427-.759l.842-1.383-2.268 1.308a.5.5 0 0 1 -.619-.77l1.774-1.938-1.155.666a.5.5 0 0 1 -.617-.772l1.707-1.841-1.091.629a.5.5 0 0 1 -.6-.792l1.041-1.008-.444.256a.5.5 0 0 1 -.627-.761l1.989-2.286-1.362.785a.5.5 0 0 1 -.6-.785l1.3-1.307-.695.4a.5.5 0 0 1 -.614-.776l1.608-1.708-.994.574a.5.5 0 0 1 -.619-.77l1.162-1.275-.543.314a.5.5 0 0 1 -.678-.69l.379-.633a.5.5 0 0 1 -.116-.915l1.128-.651a.5.5 0 0 1 .679.69l-.221.368 1.665-.961a.5.5 0 0 1 .619.77l-1.162 1.275 1.149-.664a.5.5 0 0 1 .614.776l-1.611 1.71 1-.577a.5.5 0 0 1 .6.786l-1.3 1.307.7-.4a.5.5 0 0 1 .626.762l-1.984 2.282 1.364-.788a.5.5 0 0 1 .6.793l-1.042 1.008.448-.259a.5.5 0 0 1 .618.773l-1.707 1.841 1.093-.631a.5.5 0 0 1 .619.771l-1.773 1.937 1.158-.668a.5.5 0 0 1 .677.692l-.842 1.383.169-.1a.5.5 0 1 1 .5.865l-1.865 1.077a.489.489 0 0 1 -.252.07z" fill="#fcb544"/><path d="m43.139 46.9a.5.5 0 0 1 -.276-.917l3.029-2a.492.492 0 0 1 -.27-.207.5.5 0 0 1 .132-.678l2.235-1.582a.5.5 0 0 1 -.422-.887l1.3-.951a.577.577 0 0 1 -.419-.214.5.5 0 0 1 .091-.671l1.651-1.372-.226.13a.5.5 0 0 1 -.667-.709l.7-1.057a.513.513 0 0 1 -.138-.154.5.5 0 0 1 .183-.683l.927-.535a.5.5 0 0 1 .667.709l-.332.5 3.471-2a.5.5 0 0 1 .569.817l-1.651 1.371 2.135-1.231a.5.5 0 0 1 .546.836l-.835.612 1.152-.665a.5.5 0 0 1 .54.841l-2.079 1.471 2.5-1.442a.5.5 0 0 1 .526.85l-.74.488.13-.074a.5.5 0 0 1 .5.865l-14.679 8.476a.494.494 0 0 1 -.25.063z" fill="#fcb544"/><path d="m28.406 59.371a.5.5 0 0 1 -.27-.921l10.976-7.05-13.238 7.637a.5.5 0 0 1 -.552-.831l5.488-4.149-7.717 4.454a.5.5 0 0 1 -.553-.831l3.233-2.455-4.619 2.667a.5.5 0 0 1 -.572-.816l3.434-2.891-5.032 2.9a.5.5 0 0 1 -.555-.829l1.771-1.356-2.655 1.532a.5.5 0 0 1 -.593-.8l3.2-3.017-4.671 2.7a.5.5 0 0 1 -.548-.833l.316-.237-.782.451a.5.5 0 0 1 -.575-.812l2.274-1.947-2.521 1.455a.5.5 0 0 1 -.6-.787l2.585-2.567-2.14 1.232a.5.5 0 0 1 -.609-.781l.766-.794-.262.152a.5.5 0 0 1 -.716-.615l.185-.472a.5.5 0 0 1 -.051-.891l.666-.385a.5.5 0 0 1 .716.615l-.067.171 2.11-1.218a.5.5 0 0 1 .609.78l-.766.793 2.4-1.383a.5.5 0 0 1 .6.787l-2.587 2.571 3.867-2.232a.5.5 0 0 1 .575.813l-2.275 1.947 3.492-2.016a.5.5 0 0 1 .548.833l-.318.238 1-.574a.5.5 0 0 1 .593.8l-3.2 3.018 5.434-3.15a.5.5 0 0 1 .556.829l-1.769 1.363 3.424-1.977a.5.5 0 0 1 .572.816l-3.433 2.892 6.6-3.808a.5.5 0 0 1 .553.831l-3.235 2.456 7.824-4.517a.5.5 0 0 1 .552.831l-5.486 4.149 24.4-14.086a.5.5 0 0 1 .52.853l-10.978 7.054 9.262-5.348a.5.5 0 0 1 .526.85l-10.088 6.671 7.794-4.5a.5.5 0 0 1 .529.846l-6.293 4.246 3.294-1.9a.5.5 0 0 1 .538.841l-3.636 2.566a.5.5 0 0 1 .043.888l-7.182 4.146a.5.5 0 0 1 -.538-.841l1.745-1.232-6.124 3.533a.5.5 0 0 1 -.529-.846l6.29-4.246-9.758 5.634a.5.5 0 0 1 -.526-.85l10.09-6.669-13.081 7.548a.494.494 0 0 1 -.25.071z" fill="#fcb544"/><path d="m12.434 53.463a.5.5 0 0 1 -.35-.858l1.975-1.926-2.77 1.6a.5.5 0 0 1 -.595-.8l2.791-2.659-3.637 2.1a.5.5 0 0 1 -.553-.831l.142-.108-.312.18a.5.5 0 0 1 -.58-.808l2.192-1.931-2.722 1.578a.5.5 0 0 1 -.555-.829l.391-.3-.471.272a.5.5 0 0 1 -.593-.8l2.7-2.543-3.187 1.84a.5.5 0 0 1 -.578-.811l2.137-1.859-2.412 1.392a.5.5 0 0 1 -.591-.8l2.8-2.608-3.079 1.777a.5.5 0 0 1 -.584-.8l2.618-2.351-2.833 1.632a.5.5 0 0 1 -.56-.824l1.182-.939-1.048.606a.5.5 0 0 1 -.584-.8l2.905-2.6-2.948 1.7a.5.5 0 0 1 -.578-.811l2.765-2.391-2.668 1.535a.5.5 0 0 1 -.554-.83l1.01-.772-.713.411a.5.5 0 0 1 -.575-.812l2.965-2.535-2.767 1.6a.5.5 0 0 1 -.577-.811l.986-.851-.53.306a.5.5 0 0 1 -.6-.79l.311-.304a.512.512 0 0 1 -.337-.1.5.5 0 0 1 -.195-.509l.2-.921a.5.5 0 0 1 -.063-.9l.483-.279a.5.5 0 0 1 .739.538l-.143.669 2.106-1.216a.5.5 0 0 1 .6.79l-.179.175 1.686-.972a.5.5 0 0 1 .577.811l-.984.848 2.888-1.664a.5.5 0 0 1 .575.813l-2.965 2.534 2.682-1.548a.5.5 0 0 1 .554.83l-1.01.773.563-.325a.5.5 0 0 1 .577.811l-2.764 2.39 2.554-1.475a.5.5 0 0 1 .584.8l-2.908 2.61 2.78-1.605a.5.5 0 0 1 .663.151.5.5 0 0 1 -.1.673l-1.182.937 1.083-.625a.5.5 0 0 1 .584.8l-2.619 2.354 2.723-1.568a.5.5 0 0 1 .591.8l-2.796 2.6 3.121-1.8a.5.5 0 0 1 .578.811l-2.139 1.857 2.393-1.378a.5.5 0 0 1 .593.8l-2.7 2.545 3.282-1.895a.5.5 0 0 1 .555.829l-.387.3.552-.318a.5.5 0 0 1 .58.808l-2.194 1.932 2.785-1.607a.5.5 0 0 1 .666.155.5.5 0 0 1 -.114.676l-.141.107.438-.253a.5.5 0 0 1 .595.8l-2.791 2.659 2.6-1.5a.5.5 0 0 1 .6.79l-2.417 2.359a.494.494 0 0 1 .295.23.5.5 0 0 1 -.182.683l-2.631 1.51a.5.5 0 0 1 -.25.063z" fill="#2dbab3"/><path d="m57.136 37.12a.5.5 0 0 1 -.437-.743l.69-1.237-2.34 1.35a.5.5 0 0 1 -.6-.788l1.3-1.29-2.749 1.588a.5.5 0 0 1 -.589-.8l2.89-2.661-4.577 2.642a.5.5 0 0 1 -.561-.824l3.048-2.422-2.111 1.219a.5.5 0 0 1 -.556-.828l1.969-1.521-1.3.748a.5.5 0 0 1 -.563-.824l2.414-1.93-1.83 1.056a.5.5 0 0 1 -.569-.817l2.609-2.164-2.179 1.258a.5.5 0 0 1 -.572-.816l2.55-2.142-2.21 1.276a.5.5 0 0 1 -.565-.821l1.888-1.536-1.667.963a.5.5 0 0 1 -.571-.818l2.034-1.693-1.85 1.069a.5.5 0 0 1 -.577-.811l2.33-2.018-2.371 1.369a.5.5 0 0 1 -.592-.8l2.908-2.728-3.116 1.8a.5.5 0 0 1 -.564-.823l1.189-.957-1.275.736a.5.5 0 0 1 -.552-.831l.027-.021a.5.5 0 0 1 -.579-.809l2.2-1.931-2.576 1.488a.5.5 0 0 1 -.578-.81l2.08-1.812-2.509 1.448a.5.5 0 0 1 -.585-.8l2.357-2.121-3 1.731a.5.5 0 0 1 -.552-.831l.095-.073-.357.206a.5.5 0 0 1 -.554-.83l.258-.2-.539.314a.5.5 0 0 1 -.6-.791l2.873-2.8-4.17 2.408a.5.5 0 0 1 -.556-.829l.792-.613-1.362.787a.5.5 0 0 1 -.565-.822l1.628-1.32-2.585 1.493a.5.5 0 0 1 -.592-.8l3.059-2.862-4.909 2.835a.5.5 0 0 1 -.582-.807l3.076-2.739-5.183 2.993a.5.5 0 0 1 -.566-.82l2.836-2.323-5.014 2.895a.5.5 0 0 1 -.546-.836l1.488-1.091-.942.542a.5.5 0 0 1 -.556-.828l1.437-1.116-.881.508a.5.5 0 0 1 -.586-.8l1.6-1.447-1.014.583a.5.5 0 0 1 -.605-.785l.57-.575a.5.5 0 0 1 -.7-.56l.265-1.21a.5.5 0 0 1 -.03-.882l.448-.259a.5.5 0 0 1 .738.541l-.2.917 2.204-1.274a.5.5 0 0 1 .605.785l-.566.571 1.849-1.069a.5.5 0 0 1 .586.8l-1.6 1.446 3.141-1.814a.5.5 0 0 1 .557.828l-1.435 1.121 2.506-1.446a.5.5 0 0 1 .546.836l-1.488 1.092 2.44-1.409a.5.5 0 0 1 .567.82l-2.837 2.326 4.1-2.366a.5.5 0 0 1 .582.806l-3.077 2.736 4.446-2.566a.5.5 0 0 1 .591.8l-3.057 2.86 4.317-2.493a.5.5 0 0 1 .565.821l-1.625 1.317 2.278-1.315a.5.5 0 0 1 .556.828l-.793.614 1.2-.694a.5.5 0 0 1 .6.791l-2.874 2.805 3.841-2.218a.5.5 0 0 1 .554.831l-.256.2.511-.295a.5.5 0 0 1 .552.831l-.1.073.214-.123a.5.5 0 0 1 .585.8l-2.351 2.118 2.862-1.652a.5.5 0 0 1 .578.81l-2.08 1.812 2.508-1.449a.5.5 0 0 1 .579.809l-2.2 1.931 2.453-1.422a.5.5 0 0 1 .553.831l-.027.021a.5.5 0 0 1 .563.822l-1.187.957 1.272-.735a.5.5 0 0 1 .592.8l-2.907 2.728 3.169-1.824a.5.5 0 0 1 .577.811l-2.329 2.018 2.369-1.369a.5.5 0 0 1 .57.818l-2.036 1.7 2.032-1.174a.5.5 0 0 1 .566.821l-1.887 1.525 1.713-.989a.5.5 0 0 1 .571.816l-2.551 2.143 2.377-1.369a.5.5 0 0 1 .569.818l-2.609 2.163 2.428-1.4a.5.5 0 0 1 .563.824l-2.415 1.932 2.014-1.168a.5.5 0 0 1 .556.828l-1.965 1.519 1.527-.882a.5.5 0 0 1 .561.824l-3.051 2.424 2.63-1.518a.5.5 0 0 1 .589.8l-2.89 2.663 2.19-1.264a.5.5 0 0 1 .6.788l-1.297 1.288.559-.322a.5.5 0 0 1 .6.076.5.5 0 0 1 .086.6l-.77 1.381a.5.5 0 0 1 .217.931l-1.2.7a.5.5 0 0 1 -.256.064z" fill="#186fee"/><path d="m27.153 41.471a.5.5 0 0 1 -.326-.879l.539-.464-2.21 1.272a.5.5 0 0 1 -.593-.8l1.054-.99-3.1 1.787a.5.5 0 0 1 -.589-.8l.969-.9-2.936 1.7a.5.5 0 0 1 -.643-.743l1.5-1.89-3.126 1.8a.5.5 0 0 1 -.7-.651l.792-1.628-.212.122a.5.5 0 0 1 -.5-.865l1.627-.94a.5.5 0 0 1 .7.652l-.793 1.629 3.975-2.283a.5.5 0 0 1 .628.105.5.5 0 0 1 .015.638l-1.5 1.889 4.567-2.632a.5.5 0 0 1 .589.8l-.971.9 2.939-1.7a.5.5 0 0 1 .592.8l-1.052.989 3.094-1.789a.5.5 0 0 1 .577.811l-.541.466 2.212-1.277a.5.5 0 0 1 .586.8l-.893.813 2.8-1.615a.5.5 0 0 1 .613.776l-1.373 1.452 3.859-2.226a.5.5 0 0 1 .626.761l-1.46 1.666 3.433-1.981a.5.5 0 0 1 .619.77l-1.011 1.1 1.114-.643a.5.5 0 0 1 .637.749l-.433.53a.5.5 0 0 1 .075.9l-1.614.932a.5.5 0 0 1 -.638-.749l.108-.132-1.553.9a.5.5 0 0 1 -.62-.77l1.01-1.1-3.247 1.867a.5.5 0 0 1 -.626-.761l1.46-1.667-4.207 2.428a.5.5 0 0 1 -.613-.776l1.373-1.452-3.855 2.228a.5.5 0 0 1 -.586-.8l.894-.814-2.808 1.614a.493.493 0 0 1 -.247.071z" fill="#1b6e8e"/><g fill="#262626"><path d="m.345 30.265a28.624 28.624 0 0 0 12.36 23.694c.01.071.086.112.187.138a29.873 29.873 0 0 0 45.785-17.028c.214-.184.311-.4.126-.54a30.994 30.994 0 0 0 .921-6.723 29.572 29.572 0 0 0 -22.301-28.306 30.577 30.577 0 0 0 -29.93 9.458 29.237 29.237 0 0 0 -7.144 19.163.119.119 0 0 0 -.004.144zm1.392.094h6.538a21.048 21.048 0 0 0 9 16.956l-3.91 5.616a29.188 29.188 0 0 1 -11.628-22.572zm28.1-20.81a20.473 20.473 0 0 1 .333 40.941c-10.2-.371-18.9-7.643-20.267-17.95-1.575-11.895 7.868-22.989 19.933-22.991zm-3.537 48.81a28.031 28.031 0 0 1 -12.041-4.786l3.93-5.643a22.79 22.79 0 0 0 11.554 3.57.659.659 0 0 0 .076-.01.91.91 0 0 0 .11.011c9.777-.317 18.379-6.692 20.989-15.8l6.329 1.552c-3.604 13.385-16.239 23.229-30.947 21.106zm7.41-56.718c14.234 2.151 24.228 14.385 24.566 28.553a29.949 29.949 0 0 1 -.752 5.976l-6.324-1.55a21.127 21.127 0 0 0 .534-4.682 21.676 21.676 0 0 0 -21.01-21.427v-7.148a26.909 26.909 0 0 1 2.981.278zm-4.429-.292v7.19c-10.881.453-20.247 9.135-20.968 20.145-.021.321-.031.639-.037.957h-6.547c.099-15.174 12.599-28.047 27.547-28.292z"/><path d="m21.792 41.386h18.92c.014 0 .032-.006.048-.007a1.251 1.251 0 0 0 .33-.045c1.916-.518 3.973-2.682 1.594-4.337a3.782 3.782 0 0 0 -1.955-.5v-8.06c0-1.759.858-5.79-1.047-6.757-.043-.088-.17-.148-.415-.148-1.049 0-2.824-.294-3.613.654-.73.878-.383 2.648-.383 3.663v10.765h-2.537v-12.145c0-2.178 1.228-7.906-1.317-8.96a.655.655 0 0 0 -.307-.036c-.017 0-.028-.007-.047-.007-1.7 0-3.142-.225-3.8 1.588-.49 1.356 0 3.76 0 5.185v14.375h-1.688c-.274 0-.56-.009-.851-.022v-6.457c0-1.476.742-4.834-1.08-5.391a.216.216 0 0 0 -.025-.01l-.022-.008a.29.29 0 0 0 -.052 0 .391.391 0 0 0 -.073-.011c-1.017 0-2.623-.242-3.529.411-.87.627-.667 1.588-.667 2.531v8.943c-.056.011-.115.016-.17.028-1.648.368-3.708 1.66-2.508 3.659.96 1.596 3.684 1.099 5.194 1.099zm14.937-18.327c.354-.806.941-.622 1.829-.6 1.595.947.713 6.118.713 7.61v6.442l-.271.021h-1.27c-.309 0-.7.059-1.026.031a31.04 31.04 0 0 1 .023-5.147v-6.629a6.027 6.027 0 0 1 .002-1.728zm-5.229 13.46c.167-.178.275-.043 0 0zm-.858-19.98c1.816.992.621 10.418.621 12.175 0 2.18-.353 4.706 0 6.859a5.57 5.57 0 0 1 .052.952 2.451 2.451 0 0 1 -.52-.059 7.928 7.928 0 0 0 -1.789 0 1.71 1.71 0 0 0 -.276.035.59.59 0 0 0 0-.095 16.754 16.754 0 0 1 0-2.285v-14.921c.004-2-.163-2.611 1.915-2.661zm-9.918 16.166v-5.6a5.565 5.565 0 0 1 0-1.277c.239-.907-.18-.338.591-.545a4.2 4.2 0 0 1 1.105 0c1.635.477.856 5.061.856 6.176v5.051a25.158 25.158 0 0 0 -2.681-.064 21.128 21.128 0 0 1 .129-3.741zm-2.478 5.395a2.777 2.777 0 0 1 1.478-.809h3.8a2.293 2.293 0 0 0 1.068-.273c.933.044 1.858.114 2.706.183a.611.611 0 0 0 .635.337h4a1.012 1.012 0 0 0 .466-.148h3.05a.528.528 0 0 0 .28.082h4a1.766 1.766 0 0 0 .294-.032c1.3.423 3.807 2.328 1.041 3.178h-18.331c-1.1-.004-6.84.396-4.487-2.518z"/><path d="m6.227 24.91a24.806 24.806 0 0 1 18.873-19.041c.881-.2.681-.932-.2-.733a26.279 26.279 0 0 0 -20.122 19.954c-.123.541 1.335.32 1.449-.18z"/><path d="m13.329 47.675a25.77 25.77 0 0 1 -7.285-13.869c-.126-.7-1.578-.328-1.449.388a26.264 26.264 0 0 0 7.411 14.132c.483.481 1.85-.126 1.323-.651z"/><path d="m51.281 41.974a24.3 24.3 0 0 1 -30.493 10.709c-.376-.147-1.694.431-1.171.635a26.6 26.6 0 0 0 33.1-11.56c.171-.292-1.203-.188-1.436.216z"/><path d="m54.276 30.194c.009.331 1.461.084 1.448-.388a25.631 25.631 0 0 0 -20.136-24.613c-.376-.087-1.657.507-1.176.618a25.332 25.332 0 0 1 19.864 24.383z"/></g></svg>