<svg id="Layer_1" enable-background="new 0 0 24 24" height="512" viewBox="0 0 24 24" width="512" xmlns="http://www.w3.org/2000/svg"><g><path d="m12 24c-.074 0-.147-.016-.216-.049l-11.5-5.5c-.174-.083-.284-.259-.284-.451s.11-.368.284-.451l11.5-5.5c.137-.065.295-.065.432 0l11.5 5.5c.174.083.284.259.284.451s-.11.368-.284.451l-11.5 5.5c-.069.033-.142.049-.216.049z" fill="#b7e0f6"/><path d="m11.78 12.05-11.5 5.5c-.17.08-.28.26-.28.45s.11.37.28.45l11.5 5.5c.07.03.15.05.22.05v-12c-.08 0-.15.02-.22.05z" fill="#cae8f9"/><path d="m12 20c-.074 0-.147-.016-.216-.049l-11.5-5.5c-.174-.083-.284-.259-.284-.451s.11-.368.284-.451l11.5-5.5c.137-.065.295-.065.432 0l11.5 5.5c.174.083.284.259.284.451s-.11.368-.284.451l-11.5 5.5c-.069.033-.142.049-.216.049z" fill="#10bb67"/><path d="m11.78 8.05-11.5 5.5c-.17.08-.28.26-.28.45s.11.37.28.45l11.5 5.5c.07.03.15.05.22.05v-12c-.08 0-.15.02-.22.05z" fill="#32d736"/><path d="m12 16c-.074 0-.147-.016-.216-.049l-11.5-5.5c-.174-.083-.284-.259-.284-.451s.11-.368.284-.451l11.5-5.5c.137-.065.295-.065.432 0l11.5 5.5c.174.083.284.259.284.451s-.11.368-.284.451l-11.5 5.5c-.069.033-.142.049-.216.049z" fill="#fcbf29"/><path d="m11.78 4.05-11.5 5.5c-.17.08-.28.26-.28.45s.11.37.28.45l11.5 5.5c.07.03.15.05.22.05v-12c-.08 0-.15.02-.22.05z" fill="#fedb41"/><path d="m12 12c-.074 0-.147-.016-.216-.049l-11.5-5.5c-.174-.083-.284-.259-.284-.451s.11-.368.284-.451l11.5-5.5c.137-.065.295-.065.432 0l11.5 5.5c.174.083.284.259.284.451s-.11.368-.284.451l-11.5 5.5c-.069.033-.142.049-.216.049z" fill="#fd003a"/><path d="m11.78.05-11.5 5.5c-.17.08-.28.26-.28.45s.11.37.28.45l11.5 5.5c.07.03.15.05.22.05v-12c-.08 0-.15.02-.22.05z" fill="#fd3c65"/><circle cx="15.5" cy="3.13" fill="#e61e14" r=".5"/><path d="m10 2.93c-.188 0-.368-.107-.453-.289-.116-.25-.008-.548.242-.664l2-.93c.135-.063.288-.063.423 0l1.5.7c.25.117.358.415.241.665s-.416.356-.665.242l-1.288-.602-1.789.832c-.068.031-.14.046-.211.046z" fill="#e61e14"/><path d="m12 1v1.05l-1.79.83c-.07.04-.14.05-.21.05-.19 0-.37-.11-.45-.29-.12-.25-.01-.55.24-.66l2-.93c.07-.03.14-.05.21-.05z" fill="#fd003a"/></g></svg>