<?xml version="1.0" encoding="iso-8859-1"?>
<!-- Generator: Adobe Illustrator 19.0.0, SVG Export Plug-In . SVG Version: 6.00 Build 0)  -->
<svg version="1.1" id="Capa_1" xmlns="http://www.w3.org/2000/svg" xmlns:xlink="http://www.w3.org/1999/xlink" x="0px" y="0px"
	 viewBox="0 0 512 512" style="enable-background:new 0 0 512 512;" xml:space="preserve">
<g>
	<g>
		<path d="M500.87,133.565H11.13c-6.144,0-11.13,4.986-11.13,11.13V500.87C0,507.014,4.986,512,11.13,512H500.87
			c6.144,0,11.13-4.986,11.13-11.13V144.696C512,138.552,507.014,133.565,500.87,133.565z M489.739,489.739H22.261V155.826h467.478
			V489.739z"/>
	</g>
</g>
<g>
	<g>
		<path d="M456.348,66.783H55.652c-6.144,0-11.13,4.986-11.13,11.13v22.261c0,6.144,4.986,11.13,11.13,11.13
			c6.144,0,11.13-4.986,11.13-11.13v-11.13h378.435v11.13c0,6.144,4.986,11.13,11.13,11.13s11.13-4.986,11.13-11.13V77.913
			C467.478,71.769,462.492,66.783,456.348,66.783z"/>
	</g>
</g>
<g>
	<g>
		<path d="M411.826,0H100.174c-6.144,0-11.13,4.986-11.13,11.13v22.261c0,6.144,4.986,11.13,11.13,11.13
			c6.144,0,11.13-4.986,11.13-11.13v-11.13h289.391v11.13c0,6.144,4.986,11.13,11.13,11.13s11.13-4.986,11.13-11.13V11.13
			C422.957,4.986,417.97,0,411.826,0z"/>
	</g>
</g>
<g>
</g>
<g>
</g>
<g>
</g>
<g>
</g>
<g>
</g>
<g>
</g>
<g>
</g>
<g>
</g>
<g>
</g>
<g>
</g>
<g>
</g>
<g>
</g>
<g>
</g>
<g>
</g>
<g>
</g>
</svg>
