<?xml version="1.0" encoding="iso-8859-1"?>
<!-- Generator: Adobe Illustrator 17.1.0, SVG Export Plug-In . SVG Version: 6.00 Build 0)  -->
<!DOCTYPE svg PUBLIC "-//W3C//DTD SVG 1.1//EN" "http://www.w3.org/Graphics/SVG/1.1/DTD/svg11.dtd">
<svg version="1.1" id="Capa_1" xmlns="http://www.w3.org/2000/svg" xmlns:xlink="http://www.w3.org/1999/xlink" x="0px" y="0px"
	 viewBox="0 0 473.057 473.057" style="enable-background:new 0 0 473.057 473.057;" xml:space="preserve">
<g>
	<path d="M114.598,268.303c2.943-4.673,1.54-10.848-3.134-13.79l-80.607-50.758c-4.672-2.942-10.847-1.54-13.79,3.134
		c-2.943,4.673-1.54,10.848,3.134,13.79l80.607,50.758c1.654,1.042,3.497,1.539,5.318,1.539
		C109.448,272.976,112.697,271.321,114.598,268.303z"/>
	<path d="M20.2,140.679l140.852,88.693c1.628,1.025,3.478,1.538,5.328,1.538s3.7-0.513,5.328-1.538l194.088-122.217
		c2.908-1.831,4.672-5.026,4.672-8.462s-1.764-6.631-4.672-8.462L224.944,1.538c-3.256-2.051-7.4-2.051-10.656,0L20.2,123.755
		c-2.908,1.831-4.672,5.026-4.672,8.462S17.292,138.848,20.2,140.679z M219.616,21.817l122.085,76.876L166.38,209.093
		L44.295,132.217L219.616,21.817z"/>
	<path d="M171.708,158.469l81.487-51.313c2.908-1.831,4.672-5.026,4.672-8.462s-1.764-6.631-4.671-8.462l-28.251-17.79
		c-3.257-2.05-7.4-2.052-10.657,0l-81.487,51.313c-2.908,1.831-4.672,5.026-4.672,8.462s1.764,6.631,4.671,8.462l28.251,17.79
		c1.629,1.025,3.479,1.538,5.329,1.538C168.229,160.007,170.08,159.494,171.708,158.469z M156.896,132.217l62.721-39.495
		l9.484,5.973l-62.721,39.495L156.896,132.217z"/>
	<path d="M355.139,130.231l-25.308,15.937c-4.673,2.942-6.076,9.117-3.133,13.791c1.9,3.019,5.149,4.672,8.472,4.672
		c1.82,0,3.664-0.497,5.319-1.539l25.308-15.937c4.673-2.942,6.076-9.117,3.133-13.791
		C365.988,128.691,359.815,127.287,355.139,130.231z"/>
	<path d="M30.856,163.755c-4.672-2.942-10.847-1.539-13.79,3.134s-1.54,10.848,3.134,13.79l112.368,70.758
		c1.654,1.042,3.497,1.539,5.318,1.539c3.322,0,6.571-1.654,8.472-4.673c2.943-4.673,1.54-10.848-3.134-13.79L30.856,163.755z"/>
	<path d="M107.261,302.825l140.852,88.693c1.628,1.025,3.478,1.538,5.328,1.538s3.7-0.513,5.328-1.538l194.088-122.217
		c2.908-1.831,4.672-5.026,4.672-8.462s-1.764-6.631-4.672-8.462l-140.852-88.693c-3.256-2.051-7.4-2.051-10.656,0L107.261,285.901
		c-2.908,1.831-4.672,5.026-4.672,8.462S104.353,300.994,107.261,302.825z M306.677,183.964l122.085,76.876L253.44,371.239
		l-122.085-76.876L306.677,183.964z"/>
	<path d="M258.769,320.615l81.487-51.313c4.674-2.942,6.077-9.117,3.134-13.79c-2.941-4.674-9.116-6.078-13.79-3.134l-81.487,51.313
		c-4.674,2.942-6.077,9.117-3.134,13.79c1.9,3.02,5.149,4.673,8.472,4.673C255.271,322.154,257.114,321.657,258.769,320.615z"/>
	<path d="M315.139,237.723c-2.941-4.674-9.116-6.077-13.79-3.134l-81.487,51.313c-4.674,2.942-6.077,9.117-3.134,13.79
		c1.9,3.02,5.149,4.673,8.472,4.673c1.82,0,3.664-0.497,5.318-1.539l81.487-51.313C316.679,248.57,318.082,242.396,315.139,237.723z
		"/>
	<path d="M442.2,332.378L253.44,451.239l-135.523-85.338c-4.671-2.941-10.848-1.539-13.79,3.134
		c-2.943,4.673-1.54,10.848,3.134,13.79l140.852,88.693c1.628,1.025,3.478,1.538,5.328,1.538s3.7-0.513,5.328-1.538l194.088-122.217
		c4.674-2.942,6.077-9.117,3.134-13.79C453.049,330.838,446.873,329.435,442.2,332.378z"/>
	<path d="M442.2,292.378L253.44,411.239l-135.523-85.338c-4.671-2.941-10.848-1.539-13.79,3.134
		c-2.943,4.673-1.54,10.848,3.134,13.79l140.852,88.693c1.628,1.025,3.478,1.538,5.328,1.538s3.7-0.513,5.328-1.538l194.088-122.217
		c4.674-2.942,6.077-9.117,3.134-13.79C453.049,290.838,446.873,289.435,442.2,292.378z"/>
</g>
<g>
</g>
<g>
</g>
<g>
</g>
<g>
</g>
<g>
</g>
<g>
</g>
<g>
</g>
<g>
</g>
<g>
</g>
<g>
</g>
<g>
</g>
<g>
</g>
<g>
</g>
<g>
</g>
<g>
</g>
</svg>
