<svg id="Layer_1" data-name="Layer 1" xmlns="http://www.w3.org/2000/svg" viewBox="0 0 88.21 116.06"><defs><style>.cls-1{fill:#5bff17;}.cls-2{fill:#fff;}</style></defs><path d="M86.31,117.36c3.54-16.13,13.29-28.74,23.13-41.24s19.24-25.07,34.17-33.63c-.75,6.4-1.5,11.93-2,17.49-.22,2.55.61,5.29,0,7.67A24.12,24.12,0,0,1,137.39,76c-1.66,2.13-4.66,3.18-6.44,5.25-17.47,20.37-27.86,44.4-35.85,69.68-.78,2.49-2.54,4.68-4.21,7.65-12.56-17.83-20-37.65-35.5-52.76,4-8,10-14.47,18.47-21ZM68.69,96.72l2.39-5.35a73.72,73.72,0,0,0-10.78,11.1c-.59.71-.49,2-.71,3l3.4,0c.36,1.64.22,3.7,1.17,4.86,9.28,11.36,18.15,23,24.67,36.2a40.29,40.29,0,0,0,2.53,3.72c.71-2.28,1.18-3.81,1.66-5.33,8.15-25.89,20.19-49.78,39-69.52,6.57-6.91,4.29-14,4.75-21.34C112,73.45,95.45,98.22,86.2,128.78,81.3,116.87,81,103.45,72.75,92.93Z" transform="translate(-55.39 -42.49)"/><path class="cls-1" d="M68.69,96.72l4.06-3.79C81,103.45,81.3,116.87,86.2,128.78,95.45,98.22,112,73.45,136.72,54c-.46,7.38,1.82,14.43-4.75,21.34C113.21,95.11,101.17,119,93,144.89c-.48,1.52-1,3.05-1.66,5.33a40.29,40.29,0,0,1-2.53-3.72c-6.52-13.23-15.39-24.84-24.67-36.2-.95-1.16-.81-3.22-1.17-4.86Z" transform="translate(-55.39 -42.49)"/><path class="cls-2" d="M68.69,96.72,63,105.44l-3.4,0c.22-1,.12-2.29.71-3a73.72,73.72,0,0,1,10.78-11.1Z" transform="translate(-55.39 -42.49)"/></svg>