<svg id="Layer_1" data-name="Layer 1" xmlns="http://www.w3.org/2000/svg" viewBox="0 0 221.95 63.03"><path d="M125.49,205.84H90.61c66.5-2,133-2.83,199.48.54-73.92-2.23-147.69,2.76-221.66,4.14,3.83-.08,5.86-1.44,5.73-5.65s-3.07-4-6-4.41c4.38.55,6.07-1,5.82-5.57-.6-10.67-.1-21.43-1.3-32-.45-4,.6-7.29,1.26-11l1.09,5.9,1.13.2,1.46-5.09.85,4.62,197.45-4.19c.11-1.58.24-3.49.4-5.81l1.49,6.26.85-.1,1.29-5.63.69.07c-.19,1.58-.39,3.15-.58,4.72l.63.33,2.26-3.85c-1.27,6.38,3.31,4.56,7.16,6.09l-7.25.61c-.64,11.15-1.26,22.08-1.88,33l-.38,0V160.25l-1.08-.15-3.39,34.1-1.88-.16c1-11.4,1.92-22.8,3-35.17-33.2-1.71-65.28.18-97.34.35S116,160.39,84.74,161l1.61-.8-7.9-1.09v40.55c65.08-3.25,130.62-1.8,196.17.07-10.16,0-20.32,0-30.48,0-39.84-.1-79.68-.33-119.52-.25-13.83,0-27.66.94-41.49,1.25-4.17.1-7.41.61-7,6.09l-1-2.21c-.5,3-1.36,5.4,2.76,5.13l47.85-3.13Zm-48.88-42.6-.85,0v23.54h.85Zm134.72-5.65.21-.33H187.37v.34Z" transform="translate(-68.15 -147.48)"/><path d="M271.25,202.46l-159.46,0C165.83,200.42,218.54,198.82,271.25,202.46Z" transform="translate(-68.15 -147.48)"/></svg>