<svg height="511pt" viewBox="0 -4 511.68349 511" width="511pt" xmlns="http://www.w3.org/2000/svg"><path d="m166 401.019531c-1.929688 0-3.621094-1.296875-4.121094-3.164062-.5-1.863281.316406-3.832031 1.988282-4.796875l337-194.5625c2.015624-1.160156 4.589843-.492188 5.789062 1.5 1.195312 1.992187.578125 4.582031-1.394531 5.816406l-113.597657 71.269531 109.226563-63.046875c2-1.082031 4.5-.40625 5.683594 1.539063 1.179687 1.945312.625 4.476562-1.261719 5.75l-117.4375 74.914062 112.992188-65.230469c2.015624-1.132812 4.566406-.457031 5.753906 1.53125 1.1875 1.984376.578125 4.554688-1.378906 5.792969l-37.835938 23.492188 33.460938-19.347657c1.300781-.789062 2.929687-.824218 4.265624-.09375 1.335938.734376 2.179688 2.125 2.214844 3.648438.03125 1.527344-.75 2.953125-2.054687 3.742188l-74.578125 47.617187 70.144531-40.5c1.992187-1.132813 4.523437-.488281 5.734375 1.460937 1.207031 1.945313.660156 4.5-1.238281 5.785157l-93.652344 62.410156 89.164063-51.472656c1.988281-1.070313 4.464843-.40625 5.652343 1.515625 1.1875 1.917968.671875 4.429687-1.171875 5.730468l-59.273437 39.089844 54.773437-31.570312c1.996094-1.136719 4.527344-.492188 5.734375 1.457031 1.210938 1.949219.664063 4.503906-1.234375 5.785156l-45.621094 30.429688 41.148438-23.746094c1.988281-1.132813 4.515625-.496094 5.730469 1.441406 1.210937 1.941407.679687 4.492188-1.207031 5.785157l-32.429688 21.949218 27.929688-16.128906c1.960937-1.121094 4.453124-.523438 5.691406 1.363281 1.238281 1.890625.789062 4.414063-1.023438 5.761719l-41.898437 30.882812 37.230469-21.488281c1.933593-1.082031 4.371093-.507812 5.617187 1.324219 1.242187 1.832031.878906 4.308594-.835937 5.707031l-29.664063 23.460938 24.851563-14.347657c1.882812-1.109374 4.296874-.617187 5.597656 1.140626 1.296875 1.757812 1.058594 4.214843-.554688 5.6875l-19.242187 17.917968 14.199219-8.191406c1.878906-1.074219 4.269531-.570312 5.554687 1.175781 1.285156 1.742188 1.058594 4.175781-.53125 5.652344l-2.890625 2.652344c1.542969.003906 2.964844.835937 3.71875 2.183593.753906 1.347657.722656 2.996094-.085938 4.3125l-3.097656 5.058594c1.621094.503906 2.789063 1.921875 2.972656 3.609375.183594 1.683594-.644531 3.320313-2.117187 4.164063l-9.589844 5.503906c-1.691406.980469-3.832031.6875-5.195312-.710938-1.367188-1.398437-1.605469-3.542968-.582031-5.210937l1.585937-2.558594-14.746094 8.53125c-1.882812 1.078125-4.269531.574219-5.554687-1.171875s-1.058594-4.175781.527344-5.652344l.972656-.90625-13.386719 7.730469c-1.882813 1.109375-4.300781.617188-5.597656-1.140625-1.300781-1.757812-1.058594-4.210937.554687-5.683594l19.242188-17.921874-42.863282 24.746093c-1.933593 1.105469-4.386718.535157-5.640624-1.304687-1.253907-1.839844-.878907-4.332032.851562-5.726563l29.636719-23.472656-52.828125 30.496094c-1.957032 1.097656-4.429688.492187-5.65625-1.386719-1.230469-1.875-.792969-4.382812.996094-5.738281l41.882812-30.871094-65.835938 38.003906c-1.980468 1.089844-4.464843.441407-5.667968-1.472656-1.199219-1.917969-.695313-4.4375 1.144531-5.746094l32.503906-21.988281-50.644531 29.207031c-1.984375 1.085938-4.472656.429688-5.667969-1.492187-1.195312-1.921875-.679687-4.441406 1.171875-5.742188l45.617188-30.464844-65.3125 37.710938c-1.992188 1.097656-4.492188.441406-5.6875-1.488281-1.199219-1.933594-.671875-4.464844 1.199218-5.757813l59.253907-39.089844-80.289063 46.34375c-1.988281 1.082032-4.472656.429688-5.667968-1.492187-1.195313-1.921875-.679688-4.445313 1.171874-5.746094l93.667969-62.421875-120.617187 69.660156c-2.007813 1.175782-4.589844.527344-5.800782-1.464843-1.210937-1.988281-.605468-4.578125 1.363282-5.824219l74.554687-47.589844-95.078125 54.886719c-2.007812 1.105469-4.535156.425781-5.714844-1.542969-1.183593-1.96875-.59375-4.519531 1.328126-5.769531l37.863281-23.535156-53.453125 30.855469c-2 1.085937-4.5.40625-5.679688-1.539063-1.179687-1.945313-.625-4.472656 1.261719-5.746094l117.460937-74.90625-142.371093 82.191407c-2.011719 1.125-4.550781.453124-5.738281-1.519532-1.191407-1.972656-.597657-4.53125 1.335937-5.785156l113.601563-71.285156-136.140626 78.597656c-.644531.378906-1.382812.578125-2.132812.582031zm0 0" fill="#5e9cea"/><path d="m59.761719 500.527344c-1.753907 0-3.332031-1.070313-3.972657-2.703125-.644531-1.632813-.222656-3.492188 1.0625-4.6875l9.597657-8.960938-4.589844 2.644531c-1.9375 1.097657-4.386719.519532-5.632813-1.324218-1.246093-1.84375-.867187-4.335938.871094-5.722656l25.351563-19.898438-20.625 11.945312c-2.003907 1.070313-4.5.378907-5.667969-1.570312-1.167969-1.953125-.601562-4.480469 1.292969-5.742188l204.644531-126.652343-200.308594 115.652343c-2.019531 1.113282-4.554687.425782-5.734375-1.554687-1.175781-1.976563-.570312-4.535156 1.371094-5.777344l147.628906-90.144531-143.300781 82.714844c-2.023438 1.125-4.574219.433594-5.75-1.558594-1.179688-1.996094-.550781-4.5625 1.414062-5.789062l55.730469-33.613282-51.429687 29.722656c-2.015625 1.097657-4.539063.398438-5.710938-1.578124-1.167968-1.972657-.5625-4.519532 1.367188-5.761719l92.160156-55.765625-87.808594 50.6875c-2.007812 1.109375-4.535156.425781-5.714844-1.542969-1.183593-1.96875-.59375-4.515625 1.328126-5.769531l217.304687-134.953125-220.921875 127.519531c-2.007812 1.058594-4.492188.359375-5.65625-1.589844-1.160156-1.949218-.589844-4.46875 1.296875-5.730468l182.648437-112.144532-206.960937 119.464844c-2.011719 1.09375-4.523437.402344-5.695313-1.5625-1.175781-1.964844-.589843-4.503906 1.328126-5.757812l216.328124-132.941407-226.304687 130.636719c-2.023437 1.128906-4.574219.433594-5.75-1.558594-1.179687-1.992187-.550781-4.5625 1.414063-5.789062l105.488281-63.570313-101.152344 58.398438c-2.03125 1.199219-4.648437.523437-5.84375-1.507813-1.199219-2.03125-.523437-4.648437 1.507813-5.847656l104.183593-62.777344-99.847656 57.648438c-2.027344 1.207031-4.644531.539062-5.851563-1.488282-1.203124-2.023437-.535156-4.644531 1.492188-5.847656l216.207031-132.480468-211.847656 122.308593c-2.007813 1.058594-4.492187.359375-5.65625-1.59375-1.160156-1.949219-.589844-4.46875 1.296875-5.730469l227.761719-139.945312-223.402344 129c-2.011719 1.074219-4.515625.375-5.679687-1.585938-1.164063-1.960937-.582032-4.492187 1.328124-5.746093l192.425782-117.375-188.082032 108.585937c-2.023437 1.152344-4.597656.472656-5.785156-1.53125-1.183594-2-.550781-4.585937 1.433594-5.808594l212.308594-130.027343-207.957032 120.054687c-2.023437 1.125-4.574218.433594-5.753906-1.558594-1.175781-1.996093-.546875-4.5625 1.417969-5.789062l67.761719-40.703125-63.425782 36.582031c-2.015624 1.113282-4.554687.425782-5.730468-1.554687-1.179688-1.980469-.574219-4.535157 1.367187-5.777344l185.550781-114.03125-181.1875 104.601563c-2.015624 1.136718-4.570312.460937-5.757812-1.527344-1.1875-1.984375-.574219-4.554688 1.378906-5.792969l198.265625-123.332031-193.886719 111.914062c-2.03125 1.199219-4.648437.527344-5.847656-1.5-1.199218-2.03125-.527344-4.648437 1.503906-5.847656l78.371094-47.675781-74.027344 42.746093c-2.027343 1.203126-4.644531.535157-5.851562-1.492187-1.203125-2.023437-.535156-4.644531 1.488281-5.847656l104.867188-64.402344-100.503907 58.027344c-2.023437 1.207031-4.644531.542969-5.851562-1.480469s-.542969-4.644531 1.480469-5.851562l99.449219-61.335938-95.078126 54.886719c-2.011718 1.148437-4.566406.484375-5.765624-1.492188-1.199219-1.980469-.601563-4.554687 1.34375-5.804687l149.453124-95.09375-145.066406 83.738281c-2.015625 1.214844-4.640625.570313-5.859375-1.449219-1.21875-2.015625-.570312-4.640625 1.449219-5.855468l111.027344-70.257813-106.582032 61.5625c-2.011718 1.175781-4.589843.523437-5.800781-1.464844-1.210937-1.988281-.605469-4.578125 1.363281-5.824219l108.859376-69.972656-104.421876 60.296875c-2.011718 1.230469-4.636718.597657-5.867187-1.414062-1.230469-2.007813-.597656-4.636719 1.410156-5.867188l94.011719-61.046875-89.554688 51.703125c-2.019531 1.21875-4.640624.570313-5.859374-1.445312s-.570313-4.640625 1.445312-5.859375l33.605469-21.253906-29.191407 16.878906c-2.007812 1.101562-4.523437.425781-5.707031-1.53125-1.183593-1.960938-.613281-4.503906 1.292969-5.765625l19.039062-12.082031-14.625 8.445312c-2.003906 1.140625-4.550781.484375-5.753906-1.484375-1.199218-1.964844-.621094-4.53125 1.308594-5.792969l26.945312-17.410156-22.5 12.953125c-1.964843.972656-4.347656.292969-5.507812-1.566406-1.160156-1.855469-.722656-4.292969 1.011719-5.632813l37.449219-24.996094-32.953126 19.023438c-1.984374 1.113281-4.496093.476562-5.707031-1.453125-1.210937-1.925781-.691406-4.464844 1.175781-5.769531l31.359376-21.375-26.828126 15.488281c-1.949218 1.109375-4.425781.519531-5.664062-1.347656-1.242188-1.867188-.824219-4.375.953125-5.742188l41.726563-31.710937-37.015626 21.332031c-1.878906.972656-4.183593.425781-5.421874-1.289063-1.238282-1.714843-1.035157-4.078124.480468-5.554687l30.761719-27.433594-25.820313 14.882813c-1.835937 1.0625-4.171874.613281-5.488281-1.050782-1.3125-1.664062-1.203125-4.042968.257813-5.578124l13.652344-14.507813-8.429688 4.871094c-1.652344.957031-3.734375.699219-5.105469-.628907-1.371093-1.324218-1.691406-3.398437-.792969-5.078124l4.0625-7.621094c-1.839843-.1875-3.351562-1.539063-3.738281-3.347656-.390625-1.808594.429688-3.660157 2.03125-4.589844l9.652344-5.511719c1.648437-.9570312 3.730469-.703125 5.105469.621094 1.371094 1.324219 1.695312 3.398437.796875 5.078125l-3.351563 6.25 20.753906-11.949219c1.832032-1.046875 4.15625-.597656 5.464844 1.058594s1.210938 4.023437-.234375 5.5625l-13.652343 14.507812 36.546874-21.128906c1.871094-.9453125 4.152344-.394531 5.382813 1.304687 1.230469 1.699219 1.042969 4.039063-.441406 5.523438l-30.722657 27.484375 59.4375-34.3125c1.949219-1.132813 4.445313-.554687 5.695313 1.324219s.820313 4.40625-.976563 5.769531l-41.730468 31.683594 67.175781-38.777344c1.984375-1.113281 4.496094-.476563 5.707031 1.453125 1.207032 1.925781.691406 4.464844-1.175781 5.765625l-31.34375 21.367187 49.5625-28.585937c1.992187-1.132813 4.523437-.488281 5.734375 1.460937 1.210938 1.945313.664062 4.5-1.238281 5.785157l-37.417969 24.898437 55.722656-32.144531c2.003906-1.140625 4.550782-.484375 5.753906 1.484375 1.199219 1.96875.621094 4.535156-1.308593 5.796875l-26.957031 17.398437 42.761718-24.679687c2.007813-1.148437 4.566406-.484375 5.765625 1.496094 1.199219 1.976562.601563 4.550781-1.34375 5.800781l-19.023437 12.039062 33.546875-19.335937c2.003906-1.101563 4.519531-.425781 5.707031 1.53125 1.183594 1.957031.609375 4.503906-1.296875 5.765625l-33.585937 21.238281 49.484374-28.535156c2.007813-1.230469 4.636719-.597656 5.867188 1.414063 1.230469 2.007812.597656 4.636718-1.414062 5.867187l-93.996094 60.984375 118.324218-68.265625c2.007813-1.175781 4.589844-.527344 5.800782 1.460937 1.210937 1.992188.605468 4.582032-1.363282 5.828126l-108.882812 69.972656 133.835938-77.261719c2.015624-1.21875 4.640624-.574219 5.863281 1.441406 1.21875 2.019531.574219 4.644531-1.445313 5.863281l-111.007812 70.203126 134.296875-77.507813c2.015625-1.222656 4.640625-.582031 5.863281 1.433594s.578125 4.640625-1.433594 5.863281l-149.503906 95.105469 177.398438-102.402344c2.023437-1.207031 4.644531-.546875 5.855468 1.476563 1.207032 2.023437.546875 4.644531-1.476562 5.855468l-99.457032 61.3125 118.945313-68.644531c2.027344-1.207031 4.648437-.542969 5.855469 1.484375 1.207031 2.027344.539062 4.648438-1.484375 5.855469l-104.960938 64.433593 124.339844-71.773437c2.027344-1.199219 4.644531-.53125 5.847656 1.5 1.203125 2.027344.53125 4.644531-1.496093 5.847656l-78.21875 47.539063 95.121093-54.886719c2.023438-1.210937 4.644531-.554687 5.855469 1.46875 1.210938 2.019531.554688 4.640625-1.46875 5.851563l-198.210938 123.300781 226.304688-130.621094c1.308594-.78125 2.933594-.800781 4.265625-.058594 1.328125.742188 2.164063 2.140625 2.183594 3.664063.019531 1.523437-.773438 2.945312-2.082031 3.726562l-185.539063 113.996094 210.191406-121.328125c2.03125-1.195313 4.648438-.519531 5.847657 1.511719 1.195312 2.03125.519531 4.648437-1.511719 5.84375l-67.949219 40.816406 77.207031-44.578125c2.027344-1.203125 4.644531-.539063 5.851563 1.488281 1.203125 2.027344.535156 4.644532-1.488282 5.851563l-212.277343 130.011719 209.503906-120.960938c2.019531-1.152344 4.59375-.46875 5.78125 1.53125 1.1875 2.003906.550781 4.585938-1.429687 5.808594l-192.417969 117.375 188.066406-108.578125c2.015625-1.113281 4.550781-.425781 5.730469 1.554687 1.175781 1.980469.570312 4.535156-1.371094 5.777344l-227.636719 139.835938 223.277344-128.914063c2.023437-1.203125 4.644531-.539063 5.847656 1.488281s.539063 4.644532-1.488281 5.851563l-216.210938 132.488281 211.851563-122.316406c2.019531-1.128906 4.574219-.4375 5.75 1.558594 1.175781 1.992187.546875 4.5625-1.417969 5.789062l-104.34375 62.863281 100.011719-57.726562c1.3125-.777344 2.9375-.789063 4.265625-.039063s2.15625 2.152344 2.167969 3.675782c.015625 1.527343-.785157 2.941406-2.101563 3.71875l-105.511718 63.582031 101.1875-58.421875c2.007812-1.058594 4.492187-.359375 5.652343 1.59375 1.164063 1.949218.59375 4.46875-1.292969 5.730468l-216.414062 133.015626 212.054688-122.417969c2.015624-1.117188 4.550781-.429688 5.730468 1.550781 1.175782 1.980469.570313 4.539062-1.371094 5.777344l-182.628906 112.164062 178.269532-102.886718c2.015624-1.136719 4.566406-.457032 5.753906 1.527343s.578125 4.554688-1.378906 5.792969l-217.34375 134.921875 212.96875-122.957031c2.019531-1.125 4.574218-.433594 5.75 1.558594 1.175781 1.996093.546874 4.5625-1.417969 5.789062l-92.046875 55.722656 87.714844-50.636718c2.019531-1.128907 4.574218-.433594 5.75 1.558593 1.175781 1.996094.546874 4.5625-1.417969 5.789063l-55.796875 33.628906 51.464844-29.703125c2.011718-1.078125 4.515624-.378906 5.679687 1.582031 1.164063 1.964844.578125 4.496094-1.328125 5.746094l-147.472656 90.0625 143.121094-82.628906c2.011718-1.089844 4.523437-.402344 5.695312 1.5625s.585938 4.507812-1.328125 5.757812l-368.640625 228.078125c.214844 1.507813-.390625 3.011719-1.585938 3.953125l-36.316406 28.5c.574219.304688 1.078125.734375 1.464844 1.253906 1.289062 1.746094 1.0625 4.183594-.527344 5.660157l-29.773437 27.757812c.082031 1.597657-.738281 3.105469-2.125 3.90625l-5.835938 3.363281c-.644531.382813-1.382812.582032-2.132812.582032zm0 0" fill="#5e9cea"/><g fill="#262626"><path d="m2.136719 354.707031c0 28.714844-6.058594 43.25 25.683593 45.226563 8.515626-.265625 17.039063.019531 25.515626.855468 3.175781 4.921876 0 26.855469 0 32.203126v67.988281c0 3.984375 10.71875-.648438 11.859374-1.800781l65.769532-65.757813c10.945312-10.949219 21.734375-22.101563 32.859375-32.863281.613281-.605469.769531-1.066406.683593-1.433594 1.039063.246094 2.464844.527344 4.503907.851562 30.011719 4.609376 64.367187 0 94.722656 0h128.058594c29.953125 0 60.875 2.210938 90.769531 0 12.304688-.902343 21.332031.136719 26.84375-12.859374 5.121094-12.003907 0-36.980469 0-49.730469v-326.109375c-6.457031-15.589844-31.324219-9.917969-45.257812-9.917969h-413.980469c-10.484375 0-35.351563-4.34375-44.199219 4.90625-10.617188 11.09375-3.832031 44.621094-3.832031 57.6875zm14.652343-347.304687c7.796876-6.527344 50.097657 0 59.816407 0h361.96875c12.6875 0 52.394531-7.507813 58.496093 7.152344v289.277343c0 23.585938 6.304688 57.175781 0 80.0625-1.375 4.964844 1.296876 7.105469-2.324218 9.972657-3.789063 3.003906-23.328125 0-27.894532 0h-231.910156c-20.480468 0-48.726562-5.117188-68.691406 0-15.363281 3.96875-24.355469 17.511718-35.738281 28.894531l-64.855469 64.855469v-92.339844c0-1.359375-2.917969-1.382813-3.652344-1.382813-25.699218 0-44.859375 6.535157-47.546875-20.644531-2.824219-28.601562 0-58.957031 0-87.6875v-236.320312c.035157-9.371094-3.839843-36.644532 2.332031-41.804688zm0 0"/><path d="m55.46875 49.464844h162.132812c2.492188 0 13.925782-4.796875 8.089844-4.796875h-162.132812c-2.492188 0-13.925782 4.796875-8.089844 4.796875zm0 0"/><path d="m57.183594 93.527344h392.535156c5.023438 0 12.984375-7.59375 4.65625-7.59375h-392.53125c-5.027344 0-12.988281 7.59375-4.660156 7.59375zm0 0"/><path d="m61.960938 129.0625c-4.425782 0-13.199219 6.671875-4.894532 6.671875h392.53125c4.429688 0 13.203125-6.671875 4.898438-6.671875zm0 0"/><path d="m448.027344 177.539062c2.558594 0 13.960937-4.949218 8.039062-4.949218h-392.535156c-2.558594 0-13.960938 4.949218-8.035156 4.949218zm0 0"/><path d="m62.015625 214.582031c-4.191406 0-13.28125 6.296875-5.003906 6.296875h392.535156c4.191406 0 13.277344-6.296875 5-6.296875zm0 0"/><path d="m451.492188 264.894531c7.039062 0 9.507812-8.992187 1.109374-8.992187h-392.535156c-7.039062 0-9.503906 8.992187-1.109375 8.992187zm0 0"/><path d="m62.074219 300.019531c-4.054688 0-13.3125 6.09375-5.050781 6.09375h392.53125c4.054687 0 13.3125-6.09375 5.050781-6.09375zm0 0"/><path d="m55.527344 348.335938h17.066406c3.082031.109374 6.128906-.707032 8.738281-2.347657 1.707031-1.253906 1.863281-2.859375-.765625-2.859375h-17.066406c-3.082031-.113281-6.128906.703125-8.738281 2.347656-1.734375 1.253907-1.863281 2.859376.765625 2.859376zm0 0"/><path d="m113.214844 342.582031c-4.199219 0-13.277344 6.296875-5 6.296875h221.863281c4.199219 0 13.28125-6.296875 5.003906-6.296875zm0 0"/><path d="m386.074219 341.832031h-17.066407c-3.132812-.292969-6.195312 1.046875-8.113281 3.542969-1.296875 2.507812 1.117188 4.265625 3.523438 4.265625h17.066406c3.132813.289063 6.199219-1.046875 8.117187-3.542969 1.296876-2.515625-1.121093-4.265625-3.527343-4.265625zm0 0"/></g></svg>