<svg height="504pt" viewBox="0 -5 504.3537 504" width="504pt" xmlns="http://www.w3.org/2000/svg"><path d="m92.507812 443.246094c-1.878906.003906-3.535156-1.246094-4.046874-3.058594-.507813-1.8125.25-3.742188 1.859374-4.722656l18.675782-11.414063-32.300782 18.601563c-1.972656 1.082031-4.449218.417968-5.613281-1.507813-1.164062-1.925781-.601562-4.425781 1.273438-5.667969l133.625-84.144531-158.164063 91.320313c-1.980468 1.070312-4.453125.394531-5.605468-1.539063-1.152344-1.933593-.578126-4.433593 1.304687-5.664062l110.015625-67.988281-128.597656 74.257812c-1.980469 1.058594-4.441406.371094-5.585938-1.558594-1.144531-1.929687-.570312-4.417968 1.304688-5.652344l59.636718-36.292968-65.839843 38.007812c-1.980469 1.140625-4.511719.488282-5.691407-1.476562-1.179687-1.960938-.570312-4.503906 1.371094-5.71875l178.503906-111.582032-178.546874 103.082032c-1.992188 1.183594-4.566407.535156-5.753907-1.457032-1.1875-1.992187-.535156-4.566406 1.457031-5.753906l135.8125-83.675781-131.515624 75.921875c-1.984376 1.078125-4.464844.390625-5.617188-1.550781-1.148438-1.945313-.554688-4.449219 1.34375-5.667969l14.957031-9.023438-10.683593 6.160157c-1.984376 1.078125-4.464844.394531-5.617188-1.550781-1.148438-1.941407-.554688-4.449219 1.34375-5.667969l39.695312-24.03125-35.421874 20.445312c-1.976563 1.074219-4.449219.394531-5.605469-1.535156-1.152344-1.933594-.574219-4.433594 1.308593-5.664063l140.539063-86.703124-136.25 78.652343c-1.988281 1.132813-4.519531.464844-5.6875-1.503906s-.542969-4.511719 1.40625-5.714844l103.953125-63.679687-99.671875 57.546875c-1.980469 1.042969-4.433594.347656-5.570313-1.578125-1.140624-1.929688-.5625-4.410156 1.304688-5.640625l25.183594-15.242188-20.902344 12.058594c-1.980469 1.144531-4.515625.488281-5.691406-1.472656-1.179688-1.960938-.570313-4.503907 1.371094-5.71875l146.121093-91.691407-141.851562 81.871094c-1.964844 1.050782-4.40625.382813-5.566407-1.519531-1.15625-1.902344-.625-4.378906 1.210938-5.640625l151.300781-96.785156-146.910156 84.816406c-1.96875 1.050781-4.417969.378906-5.570313-1.53125-1.15625-1.914062-.609374-4.394531 1.238282-5.644531l102.164062-64.5625-97.832031 56.488281c-1.972656 1.101562-4.460937.445312-5.632813-1.484375-1.175781-1.929687-.609374-4.441406 1.277344-5.683594l99.328125-63.640625-94.972656 54.828125c-1.972656 1.054688-4.429687.371094-5.578125-1.546875-1.148438-1.921875-.589844-4.40625 1.273438-5.648437l11.851562-7.359375-7.554688 4.355468c-1.964843 1.136719-4.480468.507813-5.675781-1.421874-1.195312-1.933594-.636719-4.464844 1.261719-5.714844l90.144531-59.660156-85.730469 49.523437c-1.964843 1.039063-4.402343.363281-5.550781-1.539063-1.152343-1.898437-.621093-4.371093 1.210938-5.628906l15.214843-9.660156-10.910156 6.277344c-1.953125 1.082031-4.410156.445312-5.59375-1.449219-1.179687-1.894531-.675781-4.378906 1.152344-5.660156l59.914062-40.414063-55.429687 31.988282c-1.925781 1.015624-4.3125.390624-5.492187-1.441407-1.179688-1.832031-.757813-4.261719.96875-5.59375l56.644531-40.203125-52.121094 30.132813c-1.933594 1.109375-4.398437.511719-5.609375-1.359375-1.214844-1.871094-.75-4.363282 1.050781-5.675782l36.804688-26.550781-32.246094 18.566407c-1.914063 1.085937-4.339844.507812-5.558594-1.324219-1.21875-1.828125-.820312-4.292969.917969-5.640625l27.066406-20.714844-22.433594 12.941406c-1.835937 1.089844-4.199218.628906-5.488281-1.074218-1.289062-1.703126-1.09375-4.097657.453125-5.574219l22.339844-21.578125-17.304688 9.988281c-1.671874.976563-3.796874.679687-5.140624-.714844-1.339844-1.394531-1.554688-3.527343-.515626-5.160156l7.550782-12.230469c-2.03125.863282-4.386719.007813-5.382813-1.964844-1-1.96875-.300781-4.375 1.597657-5.503906l14.058593-8.125c1.675781-.984375 3.804688-.691406 5.152344.703125 1.347656 1.398438 1.558594 3.535157.515625 5.171875l-7.554688 12.195313 32.324219-18.632813c1.832031-1.066406 4.175781-.59375 5.453125 1.101563 1.277344 1.691406 1.09375 4.074219-.433594 5.546875l-22.3125 21.5625 48.902344-28.210938c1.914063-1.105468 4.359375-.535156 5.589844 1.304688 1.226562 1.839844.816406 4.316406-.941406 5.660156l-27.050782 20.683594 47.925782-27.699219c1.933594-1.109375 4.398437-.511719 5.609375 1.359375 1.214843 1.871094.75 4.363281-1.050781 5.675781l-36.78125 26.589844 58.148437-33.574219c1.941406-1.121094 4.421875-.515625 5.632813 1.371094 1.207031 1.886719.722656 4.390625-1.105469 5.6875l-56.648438 40.171875 81.835938-47.253906c1.945312-1.046875 4.371093-.402344 5.539062 1.472656 1.171875 1.871094.691407 4.332031-1.097656 5.625l-59.929687 40.441406 82.339843-47.539062c1.964844-1.066407 4.425781-.402344 5.585938 1.511719 1.160156 1.914062.617187 4.402343-1.238281 5.65625l-15.21875 9.640624 29.140624-16.785156c1.957032-1.082031 4.417969-.4375 5.597657 1.464844 1.175781 1.898438.65625 4.390625-1.179688 5.660156l-90.136719 59.644532 115.683594-66.769532c1.980469-1.089844 4.464844-.417968 5.625 1.519532 1.160156 1.933593.582032 4.441406-1.308594 5.671874l-11.917968 7.40625 25.289062-14.597656c1.964844-1.050781 4.40625-.386718 5.566406 1.519532 1.15625 1.902343.625 4.378906-1.210937 5.640624l-99.34375 63.621094 122.660156-70.78125c1.96875-1.050781 4.417969-.378906 5.570313 1.53125 1.15625 1.914063.609375 4.394532-1.238282 5.644532l-102.148437 64.546874 124.222656-71.722656c1.964844-1.082031 4.4375-.425781 5.605469 1.492188 1.167969 1.917968.621094 4.414062-1.242188 5.667968l-151.316406 96.792969 180.105469-103.953125c1.976563-1.109375 4.476563-.445312 5.648437 1.496094 1.167969 1.9375.585938 4.457031-1.316406 5.6875l-146.0625 91.617188 170.472656-98.414063c1.980469-1.078125 4.464844-.394531 5.613282 1.546875 1.152344 1.945312.558594 4.449219-1.34375 5.671875l-25.371094 15.359375 31.828125-18.375c1.992187-1.183594 4.566406-.527344 5.753906 1.464844 1.183594 1.996094.527344 4.570312-1.464843 5.753906l-103.945313 63.671875 105.691406-61.019531c1.285157-.769532 2.886719-.792969 4.195313-.0625 1.3125.730468 2.132812 2.105468 2.15625 3.605468.019531 1.5-.757813 2.898438-2.046875 3.667969l-140.457031 86.652344 136.679687-78.945313c1.996094-1.179687 4.570313-.519531 5.75 1.476563s.519531 4.570313-1.476563 5.75l-39.695312 24.0625 35.4375-20.445313c1.984375-1.082031 4.46875-.394531 5.617188 1.546876 1.152343 1.945312.554687 4.449218-1.34375 5.671874l-14.957032 9.019532 10.683594-6.160156c1.980469-1.070313 4.453125-.394532 5.605469 1.539062 1.152343 1.933594.578125 4.433594-1.308594 5.664062l-135.914063 83.734376 131.609376-75.980469c1.96875-1.039063 4.410156-.355469 5.554687 1.554687 1.148437 1.90625.601563 4.378906-1.238281 5.632813l-178.414063 111.546875 174.097657-100.519532c1.976562-1.027343 4.414062-.332031 5.546874 1.582032 1.136719 1.917968.578126 4.386718-1.273437 5.628906l-59.660156 36.308594 55.394531-31.96875c1.980469-1.074219 4.453125-.394532 5.605469 1.539062 1.152343 1.929688.578125 4.429688-1.308594 5.660156l-110.019531 67.988282 105.757812-61.039063c1.976563-1.105469 4.476563-.445312 5.644532 1.496094 1.171874 1.941406.589843 4.460937-1.3125 5.691406l-133.667969 84.144531 129.257812-74.636718c1.980469-1.058594 4.441407-.371094 5.589844 1.558594 1.144531 1.929687.570313 4.421874-1.308594 5.652343l-18.539062 11.375 14.269531-8.261719c1.988281-1.1875 4.566406-.535156 5.753906 1.457032 1.183594 1.992187.53125 4.566406-1.457031 5.753906l-37.351563 23.066406 33.078126-19.105468c1.960937-1.082032 4.425781-.429688 5.601562 1.480468 1.171875 1.90625.640625 4.402344-1.210938 5.664063l-122.476562 80.113281 118.085938-68.171875c1.964843-1.039063 4.398437-.363281 5.550781 1.539063 1.152343 1.902343.621093 4.371093-1.210938 5.628906l-57 36.21875 52.660157-30.402344c1.953124-1.039062 4.375-.386719 5.542968 1.492188 1.164063 1.878906.671875 4.339843-1.128906 5.628906l-85.613281 56.855468 81.199219-46.878906c1.949218-1.082031 4.402343-.453125 5.589843 1.433594s.695313 4.371094-1.125 5.660156l-74.414062 50.8125 69.949219-40.386718c1.953124-1.097657 4.421874-.46875 5.613281 1.425781 1.1875 1.898437.679687 4.394531-1.15625 5.675781l-46.363281 31.507812 41.90625-24.199218c1.949218-1.097656 4.414062-.480469 5.609374 1.410156 1.195313 1.890625.699219 4.386719-1.125 5.675781l-33.199218 23.011719 28.757812-16.59375c1.941406-1.101562 4.40625-.488281 5.609375 1.394531 1.199219 1.882813.714844 4.378907-1.101562 5.675781l-19.851563 13.957032 15.351563-8.863282c1.902343-1.058593 4.300781-.484374 5.515625 1.324219 1.21875 1.804688.851562 4.238281-.839844 5.609375l-24.339844 19.019532 19.648438-11.339844c1.890625-1.082032 4.296875-.535156 5.535156 1.257812 1.238281 1.796875.894531 4.238282-.785156 5.625l-10.199219 8.316406 5.449219-3.136718c1.710937-.984375 3.875-.636719 5.199218.828125 1.320313 1.460937 1.445313 3.652343.296876 5.253906l-9.636719 13.3125 2.613281-1.492187c1.300781-.828126 2.949219-.875 4.296875-.125 1.34375.753906 2.171875 2.179687 2.148437 3.722656-.019531 1.542968-.882812 2.945312-2.25 3.660156l-19.664062 11.308594c-1.714844.980468-3.878906.636718-5.203125-.828125-1.320313-1.464844-1.445313-3.652344-.296875-5.257813l9.628906-13.3125-33.601562 19.398438c-1.890625 1.078125-4.296875.53125-5.535156-1.261719-1.238282-1.792969-.894532-4.234375.785156-5.621094l10.214844-8.320312-26.355469 15.203125c-1.902344 1.054687-4.296875.480468-5.515625-1.324219s-.851563-4.242187.839844-5.609375l24.300781-18.996094-44.921875 25.929688c-1.941406 1.089844-4.390625.476562-5.589844-1.398438s-.726562-4.359375 1.074219-5.660156l19.851562-13.925781-36.410156 20.984375c-1.945313 1.058594-4.375.429687-5.558594-1.4375-1.183593-1.871094-.714843-4.335938 1.074219-5.640625l33.179688-22.953125-51.988282 30.03125c-1.949218 1.082031-4.402344.453125-5.59375-1.433594-1.1875-1.886719-.691406-4.371094 1.128906-5.660156l46.414063-31.535156-66.960937 38.628906c-1.949219 1.082031-4.40625.453125-5.59375-1.433594s-.691407-4.371094 1.128906-5.660156l74.414062-50.820313-100.335937 57.914063c-1.953125 1.066406-4.398438.421875-5.574219-1.46875s-.667969-4.371094 1.152344-5.648438l85.613281-56.917968-110.871094 64.035156c-1.964843 1.066406-4.425781.398437-5.585937-1.515625-1.160156-1.914063-.617188-4.402344 1.238281-5.652344l57.078125-36.203125-75.164062 43.371094c-1.960938 1.066406-4.410157.414062-5.578126-1.484375-1.171874-1.898438-.652343-4.378907 1.179688-5.652344l122.476562-80.113281-151.132812 87.25c-1.976562 1.070312-4.449219.394531-5.605469-1.539063-1.152343-1.933593-.574219-4.433593 1.308594-5.664062l37.425781-23.015625-52.476562 30.21875c-.628906.375-1.347656.582031-2.082032.59375zm0 0" fill="#fdcd56"/><path d="m324.589844 493.609375c-1.851563-.003906-3.480469-1.21875-4.015625-2.992187-.53125-1.773438.164062-3.683594 1.707031-4.707032l52.039062-34.335937-71.824218 41.4375c-1.914063 1.105469-4.359375.535156-5.589844-1.304688-1.226562-1.839843-.816406-4.316406.941406-5.660156l13.578125-10.367187-30.0625 17.332031c-1.847656 1.003906-4.152343.484375-5.390625-1.210938-1.242187-1.695312-1.035156-4.046875.480469-5.503906l25.757813-23.242187-51.90625 29.957031c-1.90625 1.0625-4.308594.488281-5.523438-1.324219-1.21875-1.8125-.84375-4.253906.859375-5.617188l15.894531-12.363281-33.4375 19.304688c-1.84375.976562-4.128906.453125-5.359375-1.234375-1.226562-1.6875-1.03125-4.023438.464844-5.480469l25.425781-22.660156-50.933594 29.375c-1.886718 1.054687-4.261718.5-5.492187-1.273438-1.230469-1.777343-.914063-4.195312.734375-5.59375l21.386719-17.625-42.421875 24.492188c-1.878906 1.074219-4.269532.542969-5.515625-1.234375-1.246094-1.773438-.933594-4.203125.714843-5.605469l22.585938-18.929687-44.636719 25.769531c-1.894531 1.054687-4.277343.492187-5.503906-1.300781-1.222656-1.789063-.882813-4.214844.789063-5.597657l19.304687-15.453125-36.183594 20.890625c-1.871093 1.074219-4.25.554688-5.503906-1.203125-1.253906-1.753906-.972656-4.175781.652344-5.59375l22.898437-19.960937-29.144531 16.785156c-1.898437 1.078125-4.304687.523437-5.535156-1.28125-1.234375-1.804687-.875-4.25.820312-5.625l4.347657-3.464844-1.183594.679688c-1.765625 1.011719-4.003906.609375-5.308594-.953125s-1.300781-3.835938.011719-5.394532l8.738281-10.296874-3.585938 2.074218c-1.484374.859375-3.34375.730469-4.695312-.328125-1.351562-1.058593-1.921875-2.835937-1.441406-4.484375l1.984375-6.796875c-.703125-.375-1.28125-.933593-1.679688-1.621093-.554687-.964844-.707031-2.109376-.417969-3.1875.292969-1.074219.996094-1.988282 1.960938-2.542969l4.199219-2.410157c1.484375-.859374 3.339843-.726562 4.6875.332032 1.347656 1.058594 1.917969 2.832031 1.4375 4.476562l-1.183594 4.070313 15.378906-8.886719c1.765625-1.023438 4.011719-.628906 5.320313.9375 1.3125 1.566406 1.304687 3.847656-.015625 5.40625l-8.78125 10.382812 28.972656-16.726562c1.898437-1.058594 4.289063-.496094 5.515625 1.300781 1.222656 1.792969.875 4.226563-.804688 5.605469l-4.339843 3.46875 18.003906-10.375c1.867187-1.070312 4.242187-.550781 5.496094 1.199219 1.253906 1.75.976562 4.164062-.636719 5.589843l-22.886719 19.953126 46.3125-26.742188c1.894531-1.054688 4.28125-.492188 5.503907 1.296875 1.222656 1.789063.882812 4.21875-.785157 5.601563l-19.304687 15.453124 38.757812-22.351562c1.882813-1.078125 4.273438-.542969 5.519532 1.230469 1.246093 1.773437.933593 4.207031-.714844 5.609375l-22.589844 18.925781 44.636719-25.765625c1.886719-1.054688 4.265625-.503906 5.496093 1.273438 1.230469 1.773437.910157 4.195312-.734374 5.589843l-21.398438 17.628907 42.40625-24.492188c1.84375-.980469 4.125-.453125 5.355469 1.234375s1.03125 4.023437-.460938 5.480469l-25.402343 22.660156 50.933593-29.375c1.90625-1.085938 4.328125-.515625 5.550781 1.304688 1.226563 1.820312.84375 4.273437-.875 5.636718l-15.90625 12.363282 33.4375-19.304688c1.847657-1.003906 4.152344-.488281 5.394532 1.210938 1.238281 1.695312 1.03125 4.046874-.484375 5.503906l-25.757813 23.242187 51.9375-29.957031c1.914063-1.085938 4.339844-.503906 5.558594 1.324219 1.222656 1.832031.820312 4.292969-.914062 5.640625l-13.582032 10.375 137.585938-79.453125c1.960937-1.097657 4.4375-.453125 5.617187 1.457031 1.183594 1.914062.648438 4.414062-1.210937 5.679688l-52.039063 34.34375 47.648438-27.511719c1.941406-1.121094 4.421875-.515625 5.628906 1.371093 1.210937 1.886719.722656 4.390626-1.105469 5.6875l-64.109375 45.324219 59.59375-34.414062c1.9375-1.105469 4.402344-.5 5.609375 1.375 1.207032 1.878906.734375 4.371093-1.074218 5.675781l-40.9375 29.183594 36.410156-20.984375c1.917968-1.074219 4.34375-.488281 5.554687 1.347656 1.214844 1.832031.804688 4.292969-.9375 5.636719l-31.25 23.570312 26.632813-15.371094c1.871094-1.054687 4.238281-.527343 5.484375 1.222657 1.246093 1.746093.96875 4.15625-.640625 5.578125l-23.902344 20.640625 19.035156-10.980469c1.789063-1.019531 4.054688-.589844 5.34375 1.015625 1.292969 1.605469 1.230469 3.90625-.148437 5.4375l-11.984375 13.121094 6.789062-3.914063c1.992188-1.039062 4.453125-.328125 5.578125 1.621094 1.125 1.945312.515625 4.433594-1.382812 5.640625l-30.28125 17.433594c-1.78125.945312-3.984375.488281-5.242188-1.085938-1.261719-1.574219-1.222656-3.820312.085938-5.351562l11.988281-13.117188-33.960938 19.554688c-1.871093 1.054687-4.234374.53125-5.480468-1.21875s-.972656-4.15625.636718-5.578125l23.863282-20.617188-47.5 27.414063c-1.917969 1.101562-4.363282.519531-5.582032-1.324219-1.222656-1.84375-.804687-4.320312.957032-5.660156l31.257812-23.558594-52.929687 30.542969c-1.929688 1.070312-4.363281.457031-5.558594-1.402344-1.195313-1.855469-.746094-4.324219 1.027344-5.640625l40.886719-29.15625-62.71875 36.199219c-1.933594 1.078125-4.375.464843-5.574219-1.398438-1.195313-1.867187-.734375-4.339843 1.050781-5.652343l64.109375-45.324219-90.765625 52.375c-.636719.378906-1.359375.585937-2.097656.597656zm0 0" fill="#f2a149"/><path d="m394.085938 426.433594c-1.832032 0-3.453126-1.1875-4-2.9375-.550782-1.746094.097656-3.648438 1.601562-4.699219l20.980469-14.679687-16.484375 9.507812c-1.941406 1.046875-4.363282.410156-5.539063-1.453125-1.179687-1.867187-.707031-4.328125 1.074219-5.628906l10.074219-6.875-5.566407 3.207031c-1.929687 1.113281-4.398437.523438-5.617187-1.34375s-.761719-4.367188 1.042969-5.683594l36.863281-26.855468-32.332031 18.597656c-1.925782.980468-4.28125.335937-5.441406-1.488282-1.160157-1.824218-.742188-4.230468.960937-5.5625l15.109375-10.441406-10.628906 6.128906c-1.949219 1.066407-4.394532.429688-5.574219-1.453124-1.179687-1.882813-.683594-4.359376 1.125-5.648438l4.28125-2.90625c-1.929687.976562-4.289063.34375-5.472656-1.46875-1.203125-1.894531-.707031-4.402344 1.132812-5.6875l23.320313-16.410156-18.8125 10.828125c-1.910156 1.0625-4.320313.476562-5.53125-1.347657-1.210938-1.820312-.820313-4.265624.898437-5.621093l47.640625-36.257813-43.007812 24.828125c-1.917969 1.097657-4.363282.519531-5.585938-1.324219-1.21875-1.847656-.800781-4.320312.960938-5.660156l45.871094-34.625-41.246094 23.804688c-1.925782 1.089844-4.367188.492187-5.578125-1.363282-1.207031-1.851562-.769531-4.328124 1.003906-5.652343l37.679687-27.574219-33.105468 19.105469c-1.945313 1.136719-4.4375.535156-5.652344-1.363281-1.210938-1.898438-.710938-4.417969 1.136719-5.703126l23.503906-16.542968-18.988281 10.96875c-1.933594 1.09375-4.386719.488281-5.589844-1.378906-1.207031-1.867188-.746094-4.351563 1.050781-5.664063l30.792969-22.066406-26.253906 15.109375c-1.914063 1.082031-4.339844.503906-5.558594-1.328125-1.21875-1.828125-.820312-4.289063.917969-5.640625l48.398437-36.972656-43.757812 25.300781c-1.902344 1.089843-4.324219.527343-5.558594-1.285157-1.230469-1.816406-.855469-4.273437.859375-5.640624l45.230469-35.796876-40.53125 23.398438c-1.867188 1.078125-4.25.5625-5.503906-1.191406-1.261719-1.757813-.984376-4.183594.644531-5.605469l29.628906-25.878906-24.769531 14.269531c-1.835938 1.035156-4.15625.542969-5.417969-1.144531s-1.078125-4.050781.433594-5.519531l12.050781-11.449219-7.066406 4.078125c-1.421875.824218-3.195313.738281-4.535156-.214844-1.335938-.953125-1.996094-2.601562-1.683594-4.214844l2.8125-14.597656c-1.574219-.515625-2.695313-1.90625-2.863282-3.554688-.171874-1.644531.640626-3.238281 2.074219-4.066406l4.195313-2.417968c1.425781-.820313 3.195312-.738282 4.535156.21875 1.339844.953124 1.996094 2.601562 1.683594 4.214843l-2.449219 12.765625 29.789063-17.140625c1.839843-1.0625 4.183593-.582031 5.460937 1.121094 1.273437 1.703125 1.070313 4.085937-.46875 5.554687l-12.058594 11.445313 31.390625-18.121094c1.867188-1.066406 4.242188-.550781 5.496094 1.203125 1.253906 1.75.976562 4.164063-.636719 5.589844l-29.628906 25.875 52.988281-30.59375c1.902344-1.082031 4.316406-.523438 5.546875 1.285156s.867188 4.261719-.839843 5.632813l-45.273438 35.832031 50.359375-29.078125c1.917969-1.105469 4.363281-.535156 5.589844 1.304687 1.230469 1.839844.820312 4.320313-.9375 5.664063l-48.390625 36.929687 43.867187-25.3125c1.933594-1.09375 4.386719-.488281 5.589844 1.378907 1.203125 1.867187.742187 4.351562-1.050781 5.660156l-30.796875 22.078125 26.257812-15.109375c1.9375-1.089844 4.390625-.476563 5.589844 1.398437 1.199219 1.871094.726563 4.355469-1.074219 5.660157l-23.5625 16.566406 19.054688-10.992187c1.925781-1.089844 4.367187-.492188 5.578125 1.363281 1.207031 1.851562.769531 4.328125-1.003907 5.652343l-37.679687 27.53125 33.105469-19.136718c1.917968-1.078125 4.339844-.492188 5.554687 1.34375 1.210938 1.835937.800781 4.296875-.9375 5.636718l-45.855469 34.625 41.238282-23.804687c1.910156-1.0625 4.320312-.476563 5.53125 1.347656 1.210937 1.820313.820312 4.265625-.898438 5.621094l-47.617187 36.300781 43.007812-24.828125c1.9375-1.0625 4.367188-.445312 5.558594 1.417969 1.1875 1.863281.730469 4.332031-1.050781 5.640625l-23.273438 16.367187 18.765625-10.828124c1.949219-1.066407 4.394531-.429688 5.574219 1.453124 1.179688 1.882813.6875 4.359376-1.125 5.648438l-4.28125 2.902344c1.9375-.980469 4.304688-.339844 5.480469 1.488281 1.199219 1.902344.683593 4.410156-1.164063 5.691406l-15.109375 10.449219 10.625-6.136719c1.933594-1.128906 4.410157-.539062 5.632813 1.335938 1.21875 1.875.753906 4.378906-1.058594 5.6875l-36.929688 26.929687 32.332032-18.675781c1.945312-1.085937 4.402344-.457031 5.589844 1.429687 1.1875 1.886719.695312 4.375-1.125 5.660157l-10.074219 6.867187 5.566406-3.199218c1.941406-1.074219 4.382813-.453126 5.574219 1.417968s.71875 4.347656-1.074219 5.652344l-20.941406 14.644531 16.441406-9.484375c1.992187-1.042968 4.453125-.328125 5.578125 1.617188 1.125 1.949218.515625 4.4375-1.382812 5.644531l-100.183594 57.878906c-.636719.375-1.359375.570313-2.097656.570313zm0 0" fill="#f2a149"/><g fill="#262626"><path d="m500.632812 193.835938c-9.820312-30.820313-72.753906-19.035157-100.722656-17.96875v-31.453126c0-.058593-.050781-.089843-.050781-.148437.050781-.261719.050781-.53125 0-.789063-6.261719-19.667968-33.472656-21.722656-58.675781-20.640624.433594-55.625-.277344-133.238282-77.742188-121.460938-64.855468 9.851562-60.726562 72.9375-60.375 123.675781h-97.964844c-21.984374 0-77.726562-10.472656-96.191406 7.65625-10.011718 9.828125-7.277344 23.726563-7.277344 36.847657v190.53125c0 18.917968-3.675781 42.058593 0 60.691406 6.160157 31.15625 45.109376 22.242187 69.894532 22.242187h30.820312c-.292968 22.722657-4.953125 44.710938 22.292969 49.757813 12.957031 1.132812 25.992187 1.148437 38.953125.042968h285.722656c10.910156 0 26.859375 2.207032 37.191406-2.957031 28.753907-14.410156 14.125-87.191406 14.125-111.992187zm-171.628906 37.847656c-2.667968 30.089844-34.261718 58.039062-63.238281 35.914062-10.753906-9.328125-16.933594-22.863281-16.9375-37.097656-1.507813-17.425781 0-35.523438 0-53.03125v-40.714844c0-1.445312 0-2.890625 0-4.332031h38.410156c-.117187 2.660156-.21875 5.253906-.21875 7.554687v40.714844c0 3.089844 12.152344 1.015625 12.152344-3.257812v-45.011719h30.089844c-.15625 4.011719-.273438 7.90625-.273438 11.5.015625 28.8125 2.542969 59.136719.015625 87.761719zm-80.175781-121.109375c1.378906-14.714844 19.222656-26.1875 31.234375-14.167969 6.160156 8.191406 8.832031 18.488281 7.433594 28.644531h-38.667969c0-3.019531-.050781-6.050781 0-9.074219.035156-1.777343-.160156-3.632812 0-5.402343zm-33.574219-33.339844c-.074218-7.96875.574219-15.925781 1.933594-23.777344 3.589844-19.296875 17.011719-35.308593 35.386719-42.210937 18.371093-6.898438 39.015625-3.683594 54.421875 8.476562 27.53125 21.679688 24.515625 67.742188 22.722656 103.785156-9.863281.695313-18.804688 1.542969-25.183594 1.542969h-5.320312v-4.238281c0-20.6875-8.621094-39.339844-32.851563-36.738281-21.941406 2.367187-29.664062 18.960937-29.664062 38.710937v2.265625h-21.453125c-.042969-15.921875-.484375-31.910156.007812-47.816406zm-183.621094 358.375c-32.523437-9.417969-17.792968-85.90625-17.792968-111.164063v-160.96875c0-35.921874 21.71875-31.054687 51.960937-31.054687h170.875v48.304687c0 25.546876-6.800781 62.570313 10.492188 83.882813 16.597656 18.492187 43.710937 23.183594 65.558593 11.347656 44.488282-22.554687 28.429688-97.222656 28.429688-139.1875 0-1.511719 0-3.0625 0-4.632812 16.402344-.957031 40.867188-3.171875 46.558594 14.554687v113.132813 1.242187 49.882813c0 8.132812 1.839844 24.871093 3.003906 43.527343.480469 19.417969-.535156 38.839844-3.027344 58.101563-4.742187 33.203125-39.054687 23.03125-66.753906 23.03125h-241.855469c-13.566406 0-34.171875 3.84375-47.449219 0zm456.847657 31.527344c-5.214844 22.074219-16.839844 19.394531-36.5625 19.394531h-216.550781c-29.46875 0-60.382813 2.59375-89.742188 0-28.765625-2.515625-30.898438-18.0625-31.058594-43.550781h152.527344c34.246094 0 79.847656 8.527343 113.183594-1.488281.246094-.074219.414062-.175782.648437-.25 1.667969-.4375 3.292969-1.035157 4.851563-1.78125.101562-.050782.183594-.140626.292968-.191407 6.175782-2.625 10.707032-8.066406 12.171876-14.613281 9.785156-23.921875 2.808593-66.511719 1.792968-87.972656-.058594-6.773438-.105468-13.546875-.105468-20.304688v-134.519531c26.597656-1.679687 81.097656-8.109375 88.539062 15.234375v180.03125c.011719 27.117188 6.253906 63.554688.011719 90.011719zm0 0"/><path d="m35.234375 382.167969v16.785156c0 3.015625 12.152344.976563 12.152344-3.253906v-16.789063c0-3.011718-12.152344-.972656-12.152344 3.257813zm0 0"/><path d="m35.15625 221.558594v125.902344c0 6.238281 12.304688 4.332031 12.304688-.988282v-125.902344c0-6.222656-12.304688-4.332031-12.304688.988282zm0 0"/><path d="m35.148438 171.171875v16.789063c0 6.328124 12.320312 4.507812 12.320312-.941407v-16.785156c0-6.328125-12.320312-4.507813-12.320312.9375zm0 0"/><path d="m454.820312 431.378906v16.785156c0 6.304688 12.324219 4.457032 12.324219-.957031v-16.785156c0-6.304687-12.324219-4.457031-12.324219.957031zm0 0"/><path d="m467.132812 396.832031v-125.902343c0-6.210938-12.304687-4.296876-12.304687.992187v125.898437c0 6.222657 12.304687 4.300782 12.304687-.988281zm0 0"/><path d="m467.058594 236.222656v-16.785156c0-3.359375-12.152344-1.175781-12.152344 3.253906v16.789063c0 3.324219 12.152344 1.175781 12.152344-3.257813zm0 0"/></g></svg>