<svg height="507pt" viewBox="0 -34 507.72196 507" width="507pt" xmlns="http://www.w3.org/2000/svg"><path d="m120 436.488281c-1.90625 0-3.582031-1.261719-4.105469-3.097656-.523437-1.835937.234375-3.792969 1.855469-4.796875l161.234375-100.308594-186.417969 107.605469c-2.023437 1.125-4.574218.433594-5.75-1.5625-1.175781-1.992187-.546875-4.5625 1.414063-5.785156l17.835937-10.746094-29.550781 17.066406c-2.015625 1.097657-4.539063.402344-5.710937-1.574219-1.167969-1.976562-.566407-4.523437 1.367187-5.761718l64.417969-38.945313-74.71875 43.144531c-2.007813 1.03125-4.476563.316407-5.625-1.628906-1.148438-1.949218-.578125-4.453125 1.300781-5.710937l59.484375-35.839844-66.839844 38.535156c-2.003906 1.042969-4.476562.34375-5.632812-1.59375-1.160156-1.941406-.605469-4.449219 1.261718-5.71875l213.335938-131.960937-223.667969 129.152344c-1.316406.773437-2.941406.789062-4.269531.035156-1.324219-.75-2.148438-2.152344-2.160156-3.675782-.011719-1.527343.789062-2.941406 2.101562-3.714843l21.113282-12.652344-23.332032 13.464844c-2.023437 1.125-4.574218.433593-5.75-1.558594-1.175781-1.996094-.546875-4.5625 1.414063-5.789063l61.132812-36.753906-62.90625 36.292969c-2.015625 1.097656-4.539062.402344-5.710937-1.574219-1.167969-1.976562-.5625-4.523437 1.367187-5.765625l125.730469-76.082031-127.546875 73.660156c-2.011719 1.089844-4.527344.398438-5.699219-1.566406s-.585937-4.503906 1.328125-5.757812l221.644531-136.214844-222.640624 128.554687c-2.023438 1.207031-4.644532.546875-5.855469-1.476562-1.207031-2.023438-.546875-4.644531 1.476562-5.855469l241.878907-149.210938-239.8125 138.441407c-2.011719 1.09375-4.527344.402343-5.699219-1.5625-1.171875-1.964844-.585938-4.503907 1.328125-5.757813l232.757812-143.359375-228.429687 131.898438c-2.023438 1.128906-4.574219.4375-5.75-1.558594-1.179688-1.992187-.550781-4.5625 1.414062-5.789063l71.535157-43-67.199219 38.792969c-2.023438 1.152344-4.59375.472657-5.78125-1.53125-1.1875-2-.550781-4.585937 1.429687-5.804687l182.015625-111.132813-177.664062 102.546875c-2 .96875-4.40625.242188-5.535157-1.667968-1.128906-1.914063-.605468-4.371094 1.207032-5.652344l19.335937-11.582032-15.007812 8.628907c-2.019531 1.097656-4.542969.398437-5.710938-1.574219-1.167969-1.976562-.566406-4.523438 1.367188-5.765625l143.179687-87.117187-138.835937 80.15625c-2.023438 1.152343-4.59375.46875-5.78125-1.53125-1.1875-2.003907-.550781-4.585938 1.429687-5.808594l151.296875-92.390625-146.945312 84.839843c-2.015625 1.113282-4.554688.425782-5.730469-1.554687-1.179688-1.980469-.574219-4.539063 1.371094-5.777344l167.25-102.871093-162.890625 94.023437c-2.011719 1.042969-4.484375.335937-5.640625-1.609375-1.15625-1.949219-.585938-4.460938 1.296875-5.722656l101.300781-61.753906-96.957031 55.96875c-2.007813 1.085937-4.511719.402343-5.6875-1.550782-1.175781-1.957031-.609375-4.492187 1.292969-5.753906l174.472656-109.304688-170.078125 98.195313c-2.011719 1.125-4.550781.453125-5.742188-1.519531-1.1875-1.972656-.597656-4.535156 1.339844-5.785156l157.941406-99.574219-153.539062 88.640625c-2.003907 1.046875-4.476563.347656-5.632813-1.59375-1.160156-1.941406-.605468-4.449219 1.261719-5.71875l80.90625-50.046875-76.535156 44.1875c-2.03125 1.203125-4.648438.535156-5.855469-1.496094-1.203125-2.027344-.535156-4.648437 1.496094-5.851563l38.023437-23.382812-33.664062 19.457031c-2.019531 1.21875-4.640625.570313-5.859375-1.445312-1.21875-2.019531-.570313-4.640625 1.445312-5.859375l95.71875-60.519532-91.304687 52.710938c-2.007813 1.070312-4.503907.378906-5.671875-1.570312-1.167969-1.953126-.597656-4.480469 1.292968-5.742188l26.566407-16.476562-22.1875 12.796874c-1.992188 1.058594-4.464844.378907-5.640625-1.546874-1.175782-1.925782-.648438-4.433594 1.203125-5.722657l81.613281-52.566406-77.175781 44.554687c-2.007813 1.085938-4.511719.402344-5.6875-1.554687-1.175781-1.953125-.609375-4.488281 1.292969-5.75l16.144531-10.148437-11.75 6.785156c-1.953125.949218-4.308594.277344-5.46875-1.558594-1.164063-1.835938-.757813-4.25.9375-5.609375l84.53125-57.640625-80 46.136719c-1.996094 1.160156-4.554688.519531-5.769531-1.445313-1.214844-1.960937-.648438-4.535156 1.28125-5.804687l40.644531-26.941407-36.15625 20.863282c-1.96875 1.128906-4.472657.523437-5.703125-1.378906-1.234375-1.902344-.765625-4.4375 1.070312-5.773438l56.789063-41.050781-51.558594 29.761719c-1.933594 1.105468-4.390625.535156-5.640625-1.304688-1.253906-1.839844-.882812-4.332031.851562-5.726562l44.519532-35.265626-34.800782 20.085938c-1.882812 1.128906-4.3125.640625-5.617187-1.125-1.308594-1.761719-1.0625-4.230469.566406-5.703125l22.605469-21.109375c-1.679688.136719-3.289062-.699219-4.136719-2.152344-1.179687-2.039062-.480469-4.648437 1.558594-5.828125l29.332031-16.878906c1.882813-1.125 4.3125-.640625 5.617188 1.125 1.308594 1.765625 1.0625 4.230469-.566406 5.703125l-21.335938 19.976562 52.910156-30.550781c1.929688-1.101562 4.386719-.53125 5.636719 1.304688 1.253906 1.839843.882813 4.332031-.851563 5.726562l-44.535156 35.253907 73.265625-42.285157c1.96875-1.128906 4.472657-.519531 5.707031 1.382813 1.230469 1.902344.761719 4.4375-1.070312 5.769531l-56.78125 41.035156 83.496094-48.1875c1.992187-1.097656 4.492187-.441406 5.691406 1.488281 1.195312 1.933594.667969 4.464844-1.203125 5.757813l-40.667969 26.941406 59.265625-34.1875c1.976563-1.074219 4.449219-.425781 5.648438 1.480469 1.195312 1.90625.707031 4.414062-1.117188 5.730469l-84.480469 57.636719 112.289063-64.847657c2.003906-1.085937 4.511719-.402343 5.6875 1.554688 1.175781 1.953125.605469 4.488281-1.292969 5.75l-16.144531 10.128906 30.222656-17.433594c1.996094-1.054687 4.464844-.375 5.640625 1.546875 1.175782 1.925782.648438 4.433594-1.203125 5.726563l-81.636719 52.570312 103.671876-59.84375c2.011718-1.105469 4.535156-.425781 5.714843 1.542969 1.183594 1.96875.59375 4.519531-1.328125 5.769531l-26.503906 16.429688 41.15625-23.742188c2.003906-1.101562 4.519531-.425781 5.707031 1.53125 1.183594 1.957031.609375 4.503907-1.296875 5.765625l-95.777344 60.570313 117.546876-67.867188c2.011718-1.089843 4.523437-.398437 5.695312 1.566407 1.171875 1.964843.585938 4.503906-1.328125 5.757812l-37.964844 23.320312 53.121094-30.644531c2.007813-1.070312 4.5-.378906 5.671875 1.574219 1.167969 1.953125.597656 4.476562-1.292969 5.738281l-80.863281 50 99.300781-57.3125c2.007813-1.101562 4.523438-.425781 5.707031 1.53125 1.183594 1.957031.613282 4.503907-1.292968 5.765625l-157.917969 99.542969 185.078125-106.839844c2.011719-1.125 4.550781-.453125 5.738281 1.519531 1.191407 1.972657.597657 4.535157-1.335937 5.785157l-174.53125 109.320312 202.042968-116.625c2.011719-1.042969 4.488282-.335937 5.640626 1.609375 1.15625 1.949219.585937 4.460938-1.296876 5.722656l-101.214843 61.6875 117.617187-67.910156c2.023438-1.207031 4.644532-.542968 5.847656 1.480469 1.207032 2.023437.546876 4.644531-1.480468 5.851563l-167.304688 102.910156 182.230469-105.199219c2.027344-1.203125 4.644531-.535156 5.851563 1.492187 1.203124 2.023438.535156 4.644532-1.492188 5.847657l-151.039062 92.226562 159.984374-92.363281c2.007813-1.046875 4.484376-.339844 5.640626 1.609375 1.152343 1.949219.585937 4.460937-1.296876 5.722656l-143.214843 87.140625 149.179687-86.117187c2.011719-1.050781 4.496094-.335938 5.648438 1.621093 1.148437 1.957032.566406 4.476563-1.332032 5.726563l-19.71875 11.824219 21.921876-12.660156c2.023437-1.207032 4.644531-.539063 5.847656 1.488281 1.203125 2.027343.539062 4.644531-1.488282 5.847656l-181.9375 111.113281 185.09375-106.863281c2.023438-1.125 4.574219-.433594 5.753907 1.558594 1.175781 1.996093.546875 4.5625-1.417969 5.789062l-71.464844 42.957031 71.25-41.128906c2.011719-1.09375 4.527344-.402344 5.699219 1.5625s.585937 4.503906-1.328125 5.757813l-232.753906 143.375 232.683594-134.371094c2.015624-1.136719 4.570312-.460937 5.757812 1.527344 1.1875 1.984375.574219 4.554687-1.378906 5.792969l-241.824219 149.1875 238.742187-137.839844c2.019532-1.113282 4.554688-.425782 5.734376 1.554687 1.175781 1.980469.570312 4.535157-1.371094 5.777344l-221.671875 136.226563 217.308593-125.441407c2.019532-1.097656 4.542969-.402343 5.710938 1.574219 1.171875 1.976562.566406 4.523438-1.367188 5.765625l-125.6875 76.03125 121.34375-70.050781c2.023438-1.125 4.578126-.433594 5.753907 1.558594 1.175781 1.996093.546875 4.5625-1.417969 5.789062l-61.378906 36.90625 57.042968-32.9375c2.03125-1.195312 4.648438-.515625 5.84375 1.515625 1.195313 2.03125.515626 4.644531-1.515624 5.839844l-21.035157 12.601562 16.707031-9.640625c2.011719-1.089844 4.527344-.402344 5.699219 1.5625s.585938 4.507813-1.328125 5.757813l-213.332031 131.953125 208.960937-120.652344c2.015626-1.0625 4.507813-.355469 5.664063 1.601562 1.160156 1.960938.574219 4.484376-1.328125 5.734376l-59.367188 35.839843 55.03125-31.761719c2.019532-1.09375 4.542969-.398437 5.710938 1.578126 1.171875 1.976562.566406 4.523437-1.367188 5.761718l-64.570312 38.996094 60.226562-34.761719c2.023438-1.128906 4.578126-.4375 5.753907 1.558594 1.175781 1.992187.546875 4.5625-1.417969 5.789063l-17.84375 10.75 13.507812-7.800782c2.015626-1.132812 4.570313-.457031 5.757813 1.53125 1.1875 1.984375.574219 4.554688-1.378906 5.792969l-161.28125 100.332031 156.902343-90.578125c2.015626-1.164062 4.59375-.496093 5.789063 1.496094 1.199219 1.996094.578125 4.582031-1.394531 5.816406l-153.136719 96.023438 148.742187-85.859375c2.011719-1.058594 4.496094-.359375 5.65625 1.589844 1.160157 1.949218.59375 4.46875-1.292968 5.730468l-60 36.863282 55.636718-32.171876c2.027344-1.203124 4.648438-.535156 5.851563 1.492188 1.203125 2.023438.539063 4.644531-1.488281 5.847656l-34.542969 21.171875 30.179687-17.417969c2.007813-1.042968 4.476563-.34375 5.636719 1.597657 1.15625 1.9375.601563 4.445312-1.265625 5.714843l-52.589844 32.554688 48.21875-27.832031c2.011719-1.128907 4.550782-.457031 5.742188 1.515625 1.1875 1.976562.597656 4.535156-1.335938 5.785156l-74.394531 46.773438 69.972657-40.40625c2.003906-1.070313 4.492187-.382813 5.664062 1.558593 1.171875 1.945313.617188 4.464844-1.261719 5.738281l-53.503906 33.65625 49.101563-28.347656c2.011718-1.109375 4.535156-.425781 5.71875 1.542969 1.179687 1.96875.589843 4.515625-1.332032 5.769531l-16.648437 10.394532 12.261719-7.074219c1.992187-1.101563 4.492187-.445313 5.6875 1.488281 1.199218 1.929688.671874 4.460938-1.199219 5.753906l-83.429688 55.46875 78.941407-45.578125c1.980468-1.136719 4.5-.511719 5.722656 1.410157 1.226562 1.925781.71875 4.472656-1.148438 5.785156l-80.402344 56.003906 75.828126-43.769531c1.96875-1.09375 4.449218-.472657 5.667968 1.425781 1.214844 1.894531.75 4.410156-1.066406 5.742188l-58.226562 41.300781 53.632812-30.957031c1.964844-1.117188 4.457031-.511719 5.6875 1.382812s.773438 4.417969-1.042969 5.757812l-39.316406 28.554688 32.746094-18.902344c1.960937-1.132812 4.464843-.535156 5.703125 1.363282 1.242187 1.894531.78125 4.429687-1.046875 5.769531l-18.355469 13.457031 8.203125-4.734375c1.941406-1.09375 4.398437-.507813 5.640625 1.347656 1.238281 1.855469.839844 4.347657-.914062 5.726563l-12.3125 9.488281c.976562.328125 1.796874 1.003906 2.300781 1.902344 1.175781 2.039062.480469 4.640625-1.550781 5.820312l-43.851563 25.320313c-1.945313 1.117187-4.421875.535156-5.671875-1.328125-1.246094-1.863281-.839844-4.375.933594-5.746094l3.472656-2.664063-19.703125 11.351563c-1.960937 1.132813-4.46875.535156-5.707031-1.363281-1.238282-1.898438-.777344-4.429688 1.046875-5.773438l18.332031-13.429687-35.628906 20.566406c-1.960938 1.113281-4.453125.507813-5.683594-1.386719-1.234375-1.890625-.773438-4.417968 1.042969-5.757812l39.320312-28.558594-61.804687 35.703125c-1.96875 1.09375-4.449219.472656-5.667969-1.425781-1.21875-1.894532-.75-4.410156 1.066406-5.742188l58.222657-41.328125-84.042969 48.496094c-1.972657 1.089844-4.457031.460937-5.667969-1.441406-1.210938-1.902344-.730469-4.421875 1.09375-5.746094l80.390625-55.960937-109.464844 63.148437c-1.984375 1.058594-4.449219.394531-5.632812-1.515625-1.1875-1.914062-.683594-4.414062 1.144531-5.722656l83.441406-55.464844-108.578125 62.703125c-2.007812 1.085937-4.515625.402344-5.691406-1.554687-1.175781-1.953126-.605469-4.488282 1.296875-5.75l16.636719-10.394532-30.660157 17.699219c-2.003906 1.101563-4.523437.425781-5.707031-1.53125-1.183593-1.960937-.609375-4.503906 1.296875-5.765625l53.53125-33.664062-70.980468 40.960937c-2.003907 1.070313-4.492188.382813-5.664063-1.558594-1.175781-1.945312-.621094-4.464843 1.257813-5.738281l74.378906-46.738281-93.621094 54.035156c-2.007812 1.070313-4.5.378906-5.671875-1.574219-1.167969-1.953125-.597656-4.476562 1.296875-5.742187l52.683594-32.605469-69.121094 39.921875c-2.023438 1.203125-4.640625.542969-5.847656-1.480469-1.207032-2.027344-.546875-4.644531 1.480468-5.851562l34.59375-21.195313-49.46875 28.527344c-2.011718 1.089844-4.523437.398437-5.699218-1.566406-1.171875-1.964844-.585938-4.503907 1.332031-5.757813l60.054687-36.863281-76.542968 44.1875c-2.007813 1.125-4.550782.453125-5.738282-1.519531-1.191406-1.972656-.597656-4.535156 1.335938-5.785156l153.128906-96.011719-178.996094 103.316406c-.644531.382813-1.378906.589844-2.132812.597656zm0 0" fill="#eb5463"/><path d="m262.441406 393.144531c-1.878906-.003906-3.535156-1.238281-4.074218-3.035156-.542969-1.796875.15625-3.738281 1.71875-4.78125l31.835937-21.117187-48.570313 28.039062c-2 1.097656-4.511718.429688-5.699218-1.519531s-.632813-4.484375 1.261718-5.761719l17.671876-11.371094-29.566407 17.066406c-2.019531 1.21875-4.644531.574219-5.863281-1.445312-1.222656-2.015625-.574219-4.640625 1.441406-5.859375l13.960938-8.824219-22.433594 12.953125c-2.019531 1.21875-4.640625.570313-5.859375-1.445312-1.21875-2.019531-.570313-4.640625 1.445313-5.859375l32.589843-20.625-41.90625 24.191406c-2.003906 1.121094-4.535156.453125-5.726562-1.507812-1.195313-1.960938-.621094-4.515626 1.296875-5.777344l57.003906-36.261719-65.777344 37.976563c-2.019531 1.214843-4.640625.5625-5.855468-1.457032-1.21875-2.019531-.566407-4.640625 1.453124-5.859375l37.699219-23.601562-44.601562 25.746093c-2 1.082032-4.5.40625-5.679688-1.539062-1.183593-1.945312-.628906-4.476562 1.257813-5.75l77.945312-49.492188-85.46875 49.363282c-2.003906 1.070312-4.492187.386718-5.664062-1.558594-1.175782-1.941406-.621094-4.464844 1.257812-5.734375l71.921875-45.289063-78.378906 45.226563c-2.023437 1.210937-4.644531.554687-5.855469-1.464844-1.210937-2.023437-.554687-4.644531 1.46875-5.855469l43.519532-27-47.292969 27.308594c-2.011719 1.089844-4.523438.398438-5.695313-1.566406-1.175781-1.964844-.589844-4.503906 1.328125-5.757812l12.5-7.679688-15.359375 8.839844c-2 1.101562-4.511718.433594-5.699218-1.515625s-.632813-4.488281 1.261718-5.761719l132.164063-85.1875-138.835938 80.144531c-2.011719 1.105469-4.539062.425781-5.71875-1.542969-1.179687-1.96875-.59375-4.519531 1.332031-5.769531l69.246094-43.136719-72.308594 41.8125c-2.011718 1.179688-4.59375.527344-5.804687-1.460937s-.601563-4.582031 1.367187-5.824219l137.324219-88.425781-141.652343 81.777344c-2.007813 1.085937-4.511719.402343-5.6875-1.550781-1.175782-1.957032-.605469-4.492188 1.292968-5.753907l79.898438-49.902343-81.570313 47.078124c-2 1.054688-4.472656.371094-5.644531-1.5625-1.167969-1.933593-.628906-4.445312 1.230469-5.726562l113.75-72.175781-114.917969 66.324219c-2 1.082031-4.5.40625-5.679688-1.539063-1.179687-1.945313-.625-4.476563 1.261719-5.75l110.242188-69.972656-110.882813 64c-2.011718 1.230469-4.636718.597656-5.867187-1.414063-1.230469-2.007812-.597657-4.636718 1.410156-5.867187l130.261719-84.035157-129.808594 75c-2.003906 1.101563-4.523438.425782-5.707031-1.53125-1.183594-1.957031-.613281-4.5 1.296875-5.765624l95.394531-60.476563-93.238281 53.8125c-2.019532 1.214844-4.644532.558594-5.855469-1.460937-1.214844-2.023438-.558594-4.648438 1.460937-5.859376l43.675782-27.136718-40.191406 23.203125c-2.011719 1.105469-4.539063.425781-5.71875-1.542969-1.179688-1.96875-.59375-4.519531 1.332031-5.769531l38.867187-24.234375-35.054687 20.1875c-2 1.101562-4.511719.433594-5.699219-1.515625s-.628906-4.488281 1.261719-5.761719l81.632812-52.226562-75.949219 43.835937c-1.996093 1.160156-4.550781.519531-5.765624-1.445313-1.214844-1.960937-.648438-4.535156 1.277343-5.808593l103.664063-68.707031-95.691406 55.25c-2.019532 1.21875-4.640626.574218-5.859376-1.445313-1.21875-2.015625-.570312-4.640625 1.445313-5.855469l16.554687-10.4375-9.0625 5.230469c-1.980468 1.101563-4.476562.460937-5.683593-1.457031-1.207031-1.917969-.703125-4.445313 1.144531-5.753906l81.585938-55.894532-67.328126 38.878906c-1.96875 1.125-4.476562.507813-5.703124-1.398437-1.226563-1.910156-.746094-4.441406 1.097656-5.769531l57.742187-41.011719-36.53125 21.085937c-1.945312 1.109376-4.421875.519532-5.664062-1.347656-1.238281-1.867187-.824219-4.375.957031-5.742187l30.890625-23.390625c-1.441406-.671875-2.386719-2.09375-2.457031-3.683594-.066406-1.585938.753906-3.082031 2.132812-3.875l43.613282-25.175781c1.949218-1.109375 4.421874-.519531 5.664062 1.347656s.824219 4.378906-.953125 5.742187l-19.160156 14.507813 55.742187-32.152344c1.96875-1.125 4.476563-.511719 5.703125 1.398438 1.226563 1.910156.746094 4.441406-1.097656 5.769531l-57.691406 40.960938 84.828125-48.984376c1.980468-1.101562 4.476562-.460937 5.683594 1.457032 1.207031 1.917968.707031 4.445312-1.144532 5.753906l-81.585937 55.9375 103.089843-59.5625c2.011719-1.125 4.550782-.453125 5.742188 1.519531 1.1875 1.972657.597656 4.535157-1.335938 5.785157l-16.554687 10.445312 25.171875-14.507812c1.996094-1.15625 4.554688-.515626 5.769531 1.445312 1.214844 1.964844.644531 4.539062-1.28125 5.808594l-103.59375 68.675781 118.535157-68.445313c2.007812-1.175781 4.589843-.527343 5.800781 1.460938 1.210937 1.988281.605469 4.582031-1.363281 5.824219l-81.707032 52.25 91.308594-52.691407c2.003906-1.085937 4.511719-.402343 5.6875 1.550782 1.175781 1.957031.605469 4.488281-1.292969 5.753906l-38.929687 24.269531 44.253906-25.542969c2.011719-1.105468 4.535156-.425781 5.71875 1.542969 1.179688 1.96875.589844 4.519531-1.332031 5.769531l-43.582031 27.128907 48.710937-28.117188c2-1.085937 4.5-.40625 5.679687 1.539063 1.179688 1.945312.625 4.476562-1.261718 5.75l-95.488282 60.527344 101.703126-58.660157c2.007812-1.230469 4.636718-.597656 5.863281 1.414063 1.230469 2.007812.597656 4.636718-1.410157 5.863281l-130.246093 83.96875 137.789062-79.554687c2.007813-1.148438 4.566407-.484376 5.765625 1.492187 1.199219 1.980469.601563 4.554687-1.34375 5.804687l-110.210937 69.972657 115.054687-66.425781c2.003906-1.082032 4.503906-.40625 5.683594 1.539062s.625 4.476562-1.261719 5.75l-113.867187 72.210938 117.570312-67.902344c2.015625-1.160156 4.589844-.496094 5.789063 1.5 1.199219 1.992187.578125 4.578125-1.394531 5.8125l-79.761719 49.863281 81.597656-47.105469c2-1.101562 4.511719-.429687 5.699219 1.515625 1.1875 1.949219.632812 4.488281-1.261719 5.761719l-137.335937 88.382812 140.03125-80.835937c2.023437-1.214844 4.644531-.554687 5.855468 1.464844 1.210938 2.023437.554688 4.644531-1.46875 5.855469l-69.273437 43.144531 69.296875-40.003907c1.996094-1.085937 4.492187-.414062 5.675781 1.523438 1.1875 1.9375.644531 4.464844-1.226563 5.746094l-132.15625 85.195312 132.265626-76.378906c2.011718-1.09375 4.523437-.402344 5.699218 1.5625 1.171875 1.964844.585938 4.503906-1.328125 5.757812l-12.476562 7.679688 10.332031-5.972656c2.023438-1.210938 4.644531-.554688 5.855469 1.46875 1.210937 2.019531.554687 4.640625-1.46875 5.851562l-43.519531 27.015625 40.78125-23.535156c2-1.066406 4.492187-.382813 5.664062 1.558594 1.171875 1.945312.617188 4.464843-1.261719 5.738281l-71.910156 45.269531 68.558594-39.578125c2.003906-1.101562 4.519531-.425781 5.707031 1.53125 1.183594 1.957032.609375 4.503906-1.296875 5.765625l-77.960937 49.492188 73.769531-42.597657c2.019531-1.214843 4.644531-.5625 5.859375 1.457032 1.214844 2.019531.566406 4.640625-1.453125 5.855468l-37.675781 23.585938 32.28125-18.625c2-1.085938 4.5-.410156 5.679687 1.535156 1.179687 1.949219.625 4.476563-1.261719 5.75l-57.050781 36.292969 50.730469-29.277344c2.007812-1.148437 4.566406-.484375 5.765625 1.492188 1.199219 1.980469.601562 4.554687-1.347657 5.804687l-32.5625 20.605469 24.796876-14.308594c2.019531-1.21875 4.640624-.570312 5.859374 1.445313s.570313 4.640625-1.445312 5.859375l-13.894531 8.78125 5.402343-3.117188c2-1.097656 4.511719-.429687 5.699219 1.519531 1.1875 1.949219.632813 4.488282-1.261719 5.761719l-17.707031 11.347657 7.144531-4.113282c1.992188-1.132812 4.523438-.488281 5.734376 1.460938 1.207031 1.945312.660156 4.5-1.238282 5.785156l-31.839844 21.152344 16.667969-9.625c1.957031-1.113282 4.4375-.511719 5.675781 1.367187 1.234376 1.878907.796876 4.394531-1 5.75l-36.753906 27.308594 8.167969-4.703125c2.023437-1.058594 4.527344-.335938 5.671875 1.644531s.523438 4.507813-1.40625 5.734375l-71.988281 41.558594c-1.953125 1.113281-4.4375.515625-5.671875-1.367188-1.238282-1.878906-.800782-4.394531.996094-5.75l36.753906-27.304687-70.570313 40.738281c-.652343.378906-1.390625.578125-2.140625.578125zm0 0" fill="#f4f6f8"/><path d="m243.828125 350.128906c-1.878906.003906-3.539063-1.222656-4.089844-3.019531s.140625-3.742187 1.699219-4.789063l27.417969-18.421874-40.558594 23.414062c-1.980469 1.101562-4.476563.460938-5.683594-1.453125-1.207031-1.917969-.703125-4.445313 1.144531-5.757813l62.4375-42.785156-76.542968 44.195313c-1.984375 1.132812-4.507813.503906-5.726563-1.429688-1.21875-1.933593-.699219-4.480469 1.179688-5.78125l84.632812-58.164062-97.828125 56.5c-1.304687.789062-2.929687.820312-4.265625.085937-1.335937-.734375-2.179687-2.125-2.210937-3.652344-.03125-1.523437.753906-2.949218 2.058594-3.738281l11.492187-7.253906-15.972656 9.214844c-1.992188 1.179687-4.558594.558593-5.789063-1.402344-1.230468-1.960937-.671875-4.546875 1.257813-5.824219l98.015625-66.296875-107.429688 61.988281c-1.980468 1.070313-4.457031.414063-5.648437-1.496093-1.191407-1.914063-.691407-4.425781 1.144531-5.734375l100.609375-67.480469-107.574219 62.089844c-2.003906 1.121093-4.535156.453125-5.726562-1.507813-1.191406-1.964844-.617188-4.515625 1.300781-5.78125l56.183594-35.976562-59.179688 34.183594c-1.996093 1.070312-4.480469.394531-5.660156-1.542969-1.175781-1.933594-.636719-4.453125 1.230469-5.734375l59.90625-38.398438-61.125 35.285156c-2.011719 1.226563-4.640625.589844-5.867188-1.421874-1.226562-2.011719-.59375-4.640626 1.421875-5.867188l60.636719-38.910156-61.894531 35.726562c-1.996094 1.136719-4.535157.484375-5.738281-1.472656-1.207032-1.957031-.644532-4.515625 1.269531-5.789062l85.878906-56.394532-85.929687 49.613282c-2 1.15625-4.554688.515624-5.769532-1.449219-1.214844-1.960938-.648437-4.535157 1.28125-5.804688l84.246094-55.628906-83.472656 48.195313c-2.015625 1.21875-4.636719.570312-5.855469-1.445313-1.21875-2.019531-.570313-4.640625 1.445313-5.859375l23.304687-14.761719-19.960937 11.519531c-1.996094 1.070313-4.480469.390626-5.65625-1.542968-1.179688-1.9375-.640626-4.453125 1.230468-5.738282l31.367188-20.070312-28.050782 16.214844c-1.984374 1.152344-4.527343.527344-5.753906-1.417969-1.222656-1.945313-.683594-4.507813 1.214844-5.800781l80.136719-54.664063-73.640625 42.511719c-1.996094 1.117188-4.515625.460938-5.714844-1.480469-1.199219-1.945312-.65625-4.488281 1.234375-5.773437l33.414063-21.929688-25.761719 14.875c-1.976563 1.074219-4.449219.425782-5.648438-1.480468s-.707031-4.414063 1.117188-5.730469l39.945312-27.152344-29.789062 17.203125c-1.996094 1.183594-4.578125.554688-5.804688-1.417969-1.226562-1.972656-.648437-4.5625 1.296875-5.828125l11.09375-7.414062c-1.554687.167968-3.078125-.53125-3.96875-1.820313-1.261718-1.824219-.914062-4.316406.804688-5.726562l29.464844-24.078125c-1.261719-.203125-2.363282-.964844-2.996094-2.074219-1.175782-2.042969-.476563-4.652344 1.5625-5.828125l38.109375-22.007812c1.921875-1.09375 4.359375-.539063 5.617187 1.277343 1.261719 1.820313.921875 4.296875-.777344 5.710938l-24.789062 20.265625 60.714844-35.046875c1.996094-1.183594 4.574218-.554688 5.800781 1.417969 1.226563 1.972656.648437 4.5625-1.296875 5.828124l-6.527344 4.351563 18.125-10.453125c1.976563-1.074219 4.449219-.425781 5.648438 1.480469 1.199218 1.90625.707031 4.414062-1.117188 5.730469l-39.902344 27.109374 53.871094-31.09375c1.992188-1.117187 4.511719-.460937 5.710938 1.480469 1.203125 1.945313.660156 4.488281-1.230469 5.773438l-33.46875 21.972656 43.050781-24.859375c1.988282-1.152344 4.53125-.523438 5.753906 1.421875 1.222657 1.945313.6875 4.507813-1.214843 5.800781l-80.144531 54.644532 92.5625-53.433594c2-1.101563 4.511718-.433594 5.699218 1.515625s.632813 4.488281-1.261718 5.761719l-31.328126 20.046874 36.941407-21.335937c2.003906-1.101563 4.523437-.425781 5.707031 1.53125s.613281 4.503906-1.292969 5.765625l-23.503906 14.890625 27.042969-15.605469c1.996094-1.117187 4.511718-.464844 5.714844 1.480469 1.199218 1.941406.65625 4.488281-1.234376 5.769531l-84.191406 55.585938 91.070313-52.582032c1.996093-1.132812 4.535156-.484374 5.742187 1.472657 1.203125 1.957031.640625 4.519531-1.273437 5.789062l-85.929688 56.441407 90.777344-52.402344c2.003906-1.140625 4.550781-.484375 5.753906 1.484375 1.199219 1.964843.621094 4.53125-1.308593 5.792969l-60.585938 38.886718 62.875-36.300781c2-1.101563 4.511719-.429687 5.699219 1.519531 1.1875 1.945313.632812 4.484375-1.261719 5.757813l-59.828125 38.351562 61.039063-35.234375c1.996093-1.070312 4.480468-.390625 5.660156 1.542969 1.175781 1.933594.636718 4.453125-1.230469 5.734375l-56.234375 36.011719 56.558594-32.65625c1.980468-1.074219 4.457031-.417969 5.648437 1.496093 1.191407 1.910157.691407 4.421876-1.144531 5.730469l-100.605469 67.472657 101.21875-58.402344c1.988281-1.132813 4.519531-.496094 5.730469 1.445312 1.214844 1.9375.683594 4.492188-1.207031 5.78125l-98.046875 66.296875 96.007812-55.464843c1.304688-.789063 2.933594-.820313 4.265625-.085938 1.335938.734375 2.175781 2.128906 2.207031 3.652344.03125 1.523437-.753906 2.949218-2.058593 3.738281l-11.4375 7.226563 8.023437-4.632813c1.980469-1.136719 4.507813-.503906 5.726563 1.425781 1.21875 1.933594.699219 4.480469-1.179688 5.785156l-84.640625 58.210938 78.257813-45.183594c1.980469-1.101562 4.476562-.460937 5.683593 1.457032 1.207032 1.917968.707032 4.445312-1.144531 5.753906l-62.453125 42.804687 53.296875-30.773437c1.992188-1.152344 4.542969-.519532 5.761719 1.433594 1.21875 1.957031.667969 4.523437-1.246094 5.804687l-27.390625 18.398437 16.84375-9.710937c1.949219-1.117187 4.4375-.53125 5.675781 1.34375 1.242188 1.878906.816407 4.394531-.976562 5.753906l-39.140625 29.535157 17.195313-9.925782c2.039062-1.15625 4.628906-.453125 5.804687 1.578125 1.171875 2.03125.484375 4.628907-1.539063 5.8125l-77.25 44.597657c-1.953124 1.117187-4.4375.527343-5.679687-1.347657s-.816406-4.394531.976563-5.753906l39.140624-29.542969-65.296874 37.699219c-.648438.378906-1.382813.578125-2.132813.582031zm0 0" fill="#d94452"/><g fill="#262626"><path d="m425.828125 1.730469c-54.714844-3.082031-110.5 0-165.28125 0-57.371094 0-115.125-1.996094-172.460937 0-56.625 1.972656-87.167969 41.035156-87.757813 95.207031-.742187 67.71875 0 135.484375 0 203.203125 0 53.488281-4.195313 118.757813 62.601563 134.117187 54.539062 12.535157 120.6875 2.296876 176.058593 2.296876h183.46875c.152344 0 .316407-.066407.476563-.085938.367187.050781.734375.074219 1.101562.070312 67.917969-4.984374 83.6875-57.113281 83.6875-114.996093v-208.914063c0-55.859375-15.949218-107.1875-81.894531-110.898437zm69.433594 243.480469c0 62.40625 20.480469 176.4375-69.742188 183.1875h-295.808593c-56.320313 0-113.277344-5.976563-116.90625-78.695313-2.558594-51.910156 0-104.671875 0-156.628906 0-40.894531-11.203126-103.460938 6.75-142.378907 25.601562-55.46875 108.101562-40.808593 157.738281-40.808593h185.277343c57.054688 0 127.09375-4.625 132.691407 73.667969 3.808593 53.273437 0 108.28125 0 161.65625zm0 0"/><path d="m243.1875 45.472656c-90.988281 6.542969-166.007812 82.515625-166.007812 174.933594.667968 47.941406 20.945312 93.519531 56.113281 126.113281 35.167969 32.589844 82.152343 49.351563 130.007812 46.378907 92.652344-5.957032 165.394531-81.722657 167.570313-174.542969 0-.167969-.101563-.261719-.128906-.417969-.023438-.152344.136718-.289062.128906-.449219-.921875-48.101562-21.515625-93.722656-56.980469-126.226562-35.464844-32.503907-82.703125-49.054688-130.703125-45.789063zm1.5625 340.480469c-87.097656-5.445313-154.8125-82.195313-154.820312-168.015625 0-97.40625 85.75-177.492188 184.039062-164.101562 84.4375 11.519531 141.566406 83.761718 144.511719 166.621093-3.394531 93.089844-76.5625 171.546875-173.730469 165.476563zm0 0"/><path d="m255.585938 87.429688c-69.195313.113281-127.335938 52.039062-135.234376 120.78125-7.550781 78.769531 55.9375 139.28125 131.335938 142.667968.285156-.011718.574219-.042968.855469-.101562.246093 0 .40625.058594.679687.050781 72.003906-3.242187 134.742188-57.171875 134.980469-132.386719-.785156-72.652344-59.957031-131.109375-132.617187-131.011718zm.285156 255.933593c-59.679688-1.449219-110.289063-44.273437-121.59375-102.886719-13.242188-73.199218 42.359375-145.222656 118.1875-145.066406 156.867187.238282 161.59375 239.71875 3.40625 247.953125zm0 0"/><path d="m292.171875 203.730469c16.722656 33.640625-6.4375 92.621093-55.785156 67.285156-12.121094-6.457031-21.136719-17.523437-25.011719-30.703125s-2.285156-27.363281 4.414062-39.355469c.792969-1.59375-10.632812-.851562-12.179687 2.238281-9.417969 17.601563-8.171875 39 3.234375 55.386719 11.40625 16.382813 31.039062 24.988281 50.816406 22.265625 39.785156-4.589844 65.578125-42.8125 46.875-80.445312-1.441406-2.882813-13.285156 1.46875-12.363281 3.328125zm0 0"/><path d="m260.28125 235.695312v-76.796874c0-6.289063-12.511719-4.320313-12.511719 1.023437v76.800781c0 6.3125 12.511719 4.316406 12.511719-1.027344zm0 0"/><path d="m34.410156 339.019531v17.066407c0 6.699218 12.5625 5.050781 12.5625-.855469v-17.066407c0-6.664062-12.5625-5.015624-12.5625.855469zm0 0"/><path d="m34.515625 135.464844v170.667968c0 1.535157 12.355469-.070312 12.355469-3.3125v-170.667968c0-1.535156-12.355469.070312-12.355469 3.3125zm0 0"/><path d="m46.929688 99.113281v-17.066406c0-6.085937-12.476563-3.976563-12.476563 1.125v17.066406c0 6.085938 12.476563 3.976563 12.476563-1.125zm0 0"/></g></svg>