<svg height="505pt" viewBox="-22 0 505 505.39392" width="505pt" xmlns="http://www.w3.org/2000/svg"><g fill-rule="evenodd"><path d="m113.53125 505.003906c-1.472656-.003906-2.835938-.785156-3.585938-2.050781-1.203124-2.007813-.601562-4.613281 1.367188-5.886719l102.398438-63.402344-119.125 68.691407c-2.023438 1.152343-4.59375.472656-5.78125-1.527344-1.1875-2.003906-.550782-4.585937 1.429687-5.808594l43.433594-26.453125-45.910157 26.707032c-2.023437 1.226562-4.660156.578124-5.886718-1.449219-1.226563-2.027344-.574219-4.664063 1.449218-5.886719l171.949219-107.949219-179.285156 103.851563c-2.023437 1.152344-4.597656.472656-5.785156-1.53125-1.1875-2-.550781-4.585938 1.433593-5.808594l122.28125-75.261719-127.148437 73.386719c-2.003906 1.179688-4.585937.535156-5.800781-1.453125-1.203125-2.007813-.601563-4.613281 1.363281-5.886719l187.222656-117.589844-194.902343 112.554688c-2.019532 1.152344-4.59375.472656-5.78125-1.53125-1.1875-2-.550782-4.585938 1.429687-5.808594l83.285156-50.6875-86.78125 50.09375c-2.007812 1.179688-4.589843.53125-5.804687-1.453125-.59375-.972656-.773438-2.140625-.503906-3.246093.273437-1.105469.976562-2.058594 1.953124-2.640626l128-78.164062-132.4375 76.796875c-.96875.585937-2.132812.75-3.222656.460937-1.09375-.289062-2.023437-1.007812-2.578125-1.996093-1.179687-2.003907-.535156-4.585938 1.449219-5.800781l129.707031-79.875-134.738281 77.824218c-2.050781 1.203125-4.6875.515625-5.890625-1.535156-1.199219-2.050781-.511719-4.6875 1.535156-5.886719l4.011719-2.390625-5.972656 3.5c-2.027344 1.25-4.683594.617188-5.929688-1.410156-1.25-2.023438-.621094-4.679688 1.40625-5.929688l60.417969-36.523437-63.234375 36.609375c-2.011719 1.0625-4.507812.394531-5.714844-1.535156-1.035156-1.925782-.445312-4.320313 1.363282-5.546875l126.636718-77.652344-125.613281 72.617187c-2.027344 1.226563-4.660156.574219-5.886719-1.449218-1.226562-2.027344-.574218-4.664063 1.449219-5.890625l195.160156-122.367188-190.722656 110.164063c-.96875.585937-2.132813.75-3.226563.460937-1.09375-.289062-2.019531-1.007812-2.574218-1.996093-1.179688-2.003907-.535156-4.585938 1.449218-5.800782l49.152344-29.867187-44.800781 25.597656c-2.003906 1.179687-4.585937.535156-5.800781-1.449219-1.203125-2.011718-.601563-4.613281 1.363281-5.886718l143.957031-89.855469-139.519531 80.554687c-1.8125.496094-3.738281-.25-4.742187-1.84375-1-1.589844-.84375-3.648437.390624-5.070312l53.589844-32.851563-49.238281 27.988281c-.96875.582032-2.132813.75-3.226563.460938-1.09375-.292969-2.019531-1.011719-2.574218-1.996094-1.195313-1.984375-.589844-4.5625 1.363281-5.804687l126.039063-80.042969-121.601563 70.144531c-1.980469.992188-4.394531.304688-5.550781-1.585937-1.15625-1.894532-.671875-4.355469 1.113281-5.667969l117.164063-75.519531-112.726563 65.109375c-.96875.582031-2.132813.75-3.226563.460937-1.09375-.289062-2.019531-1.011718-2.574218-1.996094-1.195313-1.984374-.589844-4.558593 1.363281-5.804687l49.410156-31.058594-44.972656 25.597657c-2.003906 1.179687-4.585937.535156-5.800781-1.449219-1.113282-1.949219-.558594-4.425781 1.277344-5.71875l90.625-59.730469-86.101563 50.175781c-2.074219 1.222657-4.746094.535157-5.972656-1.539062-1.226563-2.070313-.539063-4.746094 1.535156-5.972657l48.640625-31.488281-44.203125 25.601563c-2.003906 1.179687-4.585937.535156-5.800781-1.449219-1.167969-1.972656-.605469-4.507813 1.277344-5.804687l49.835937-32.9375-45.3125 26.28125c-1.980469.992187-4.394531.304687-5.550781-1.585938s-.671875-4.355469 1.113281-5.667969l15.957031-10.410156-11.519531 6.65625c-2 1.25-4.636719.636719-5.886719-1.363281-1.25-2.003906-.636718-4.640625 1.363282-5.890625l24.238281-16.382813-19.714844 11.777344c-1.984375 1.121094-4.503906.484375-5.714844-1.453125-.617187-.902344-.847656-2.015625-.640625-3.089844.210938-1.074219.839844-2.019531 1.75-2.625l22.527344-15.703125-17.921875 10.324219c-2 1.273437-4.65625.679687-5.929687-1.320313-1.273438-2.003906-.679688-4.660156 1.324218-5.933593l5.289063-3.582031h-.683594c-1.96875 1.09375-4.453125.503906-5.714844-1.367188-1.210937-1.878906-.761719-4.371094 1.023438-5.714844l9.726562-7.339844-5.035156 2.902344c-1.839844 1.0625-4.183594.609375-5.492187-1.066406-1.3125-1.675781-1.1875-4.058594.289062-5.589844l15.273438-15.445312-10.070313 5.800781c-1.761719 1.046875-4.019531.6875-5.375-.851563-1.222656-1.617187-1.222656-3.847656 0-5.460937l5.121094-6.65625c-1.777344-.328125-3.152344-1.734375-3.441407-3.515625-.285156-1.78125.578126-3.550781 2.160157-4.421875l13.910156-8.019531c1.738281-1.03125 3.964844-.671875 5.289063.851562 1.320312 1.582032 1.320312 3.878906 0 5.460938l-3.496094 4.609375 19.027344-11.007813c1.84375-1.0625 4.183593-.609375 5.496093 1.066406 1.308594 1.675782 1.183594 4.058594-.289062 5.589844l-15.191407 15.445313 38.230469-22.101563c1.945313-1.15625 4.453125-.59375 5.71875 1.28125 1.21875 1.90625.773438 4.425782-1.027343 5.800782l-9.726563 7.339843 25.003906-14.421875c1.96875-1.125 4.476563-.507812 5.703125 1.398438 1.226563 1.910156.746094 4.441406-1.097656 5.769531l-5.203125 3.667969 19.199219-10.835938c1.964844-1.140625 4.480468-.539062 5.71875 1.363282 1.226562 1.941406.699218 4.507812-1.195313 5.804687l-22.359375 15.617187 39.511719-22.785156c1.988281-1.148437 4.53125-.550781 5.800781 1.363282 1.210938 1.964843.644532 4.535156-1.277344 5.804687l-24.238281 16.382813 40.707031-23.550782c1.980469-.992187 4.394532-.304687 5.550782 1.585938 1.15625 1.894531.671875 4.355468-1.113282 5.667968l-15.957031 10.410157 30.632813-17.664063c2.007812-1.179687 4.589844-.535156 5.804687 1.449219 1.164063 1.972656.605469 4.507813-1.28125 5.804687l-50.089843 32.9375 69.714843-40.191406c1.984375-.992187 4.394531-.304687 5.550781 1.585938 1.160157 1.894531.675782 4.355468-1.113281 5.667968l-48.722656 31.488282 67.242187-38.742188c1.980469-1.171875 4.535157-.523437 5.714844 1.449219 1.210938 1.964844.644532 4.535156-1.277344 5.804687l-90.625 59.734376 115.796876-66.988282c1.980468-.992187 4.394531-.304687 5.550781 1.585938 1.15625 1.894531.671875 4.355468-1.113281 5.667968l-49.066407 31.0625 66.390625-38.316406c1.980469-.992187 4.394532-.304687 5.550782 1.585938 1.15625 1.894531.671874 4.355468-1.113282 5.667968l-117.507812 75.519532 143.363281-82.773438c1.980469-.992187 4.394531-.304687 5.550781 1.585938 1.15625 1.894531.671875 4.355468-1.113281 5.667968l-126.039063 80.128907 151.46875-87.382813c2.003907-1.179687 4.585938-.535156 5.800782 1.449219 1.1875 2.035156.546875 4.640625-1.449219 5.890625l-53.589844 32.851562 69.632813-40.191406c1.980468-.992187 4.394531-.304687 5.550781 1.585938 1.15625 1.894531.671875 4.355468-1.113281 5.667968l-143.960938 90.027344 168.789063-97.28125c2.007812-1.179687 4.589843-.535156 5.804687 1.449219 1.1875 2.035156.546875 4.640625-1.449218 5.890625l-49.238282 30.207031 64.9375-37.546875c1.984375-.992187 4.394532-.304687 5.550782 1.585938 1.160156 1.894531.675781 4.355468-1.113282 5.667968l-195.5 122.367188 224-129.367188c.972656-.582031 2.132813-.746093 3.226563-.457031 1.09375.289063 2.023437 1.007813 2.578125 1.996094 1.179687 2.003906.535156 4.585937-1.449219 5.800781l-126.808594 77.398438 134.828125-77.824219c2.007813-1.179687 4.589844-.535156 5.804688 1.449219.59375.972656.773437 2.140625.5 3.246094-.273438 1.109374-.976563 2.058593-1.953125 2.644531l-60.246094 36.351562 59.734375-34.132812c2.054688-1.175781 4.667969-.492188 5.886719 1.535156 1.167969 2.027344.480469 4.617187-1.535157 5.800781l-4.179687 2.476563c2.035156-1.046875 4.535156-.339844 5.714844 1.621093 1.179687 2.003907.535156 4.585938-1.449219 5.800782l-130.390625 79.53125 125.78125-72.617188c2.007813-1.179687 4.589844-.535156 5.804687 1.449219 1.1875 2.03125.546876 4.640625-1.453124 5.890625l-128 78.25 123.394531-71.253906c.96875-.582032 2.132812-.75 3.226562-.460938 1.09375.289063 2.023438 1.011719 2.574219 1.996094 1.179688 2.007812.535156 4.589844-1.449219 5.804688l-83.113281 50.515624 78.761719-45.398437c1.980469-.992187 4.394531-.300781 5.550781 1.589844s.671875 4.351562-1.113281 5.664062l-187.734375 117.332031 183.382812-105.640624c2.03125-1.117188 4.585938-.441407 5.800782 1.535156.589843.960937.769531 2.117187.496093 3.207031-.273437 1.09375-.972656 2.027344-1.945312 2.597656l-122.453125 75.433594 118.101562-68.265625c.96875-.585938 2.132813-.75 3.226563-.460938 1.09375.289063 2.019531 1.007813 2.574219 1.996094 1.195312 1.984375.589843 4.558594-1.363282 5.800782l-171.949218 108.289062 167.511718-97.023438c.96875-.582031 2.132813-.75 3.226563-.460937s2.019531 1.011719 2.574219 1.996094c1.179687 2.007812.535156 4.589843-1.449219 5.804687l-43.351563 26.367188 39-22.527344c2.027344-1.167969 4.617188-.480469 5.800782 1.535156.589843.957032.769531 2.113282.496093 3.207032-.273437 1.089843-.972656 2.027343-1.945312 2.59375l-102.402344 63.488281 98.136719-56.660157c1.980468-.992187 4.394531-.304687 5.550781 1.585938 1.15625 1.894531.671875 4.355469-1.117187 5.667969l-140.628907 89.429687 136.109375-78.59375c2.023438-1.222656 4.660156-.574218 5.886719 1.453125 1.226563 2.023438.574219 4.660157-1.449219 5.886719l-95.917968 60.5 91.566406-52.90625c2.011718-1.132812 4.558594-.496094 5.800781 1.453125 1.195313 1.980469.589844 4.558594-1.367187 5.800781l-115.796876 75.347656 110.933594-64.253906c1.984375-.992187 4.394532-.304687 5.554688 1.585938 1.15625 1.894531.671875 4.355468-1.117188 5.667968l-72.703125 46.675782 68.265625-39.339844c1.984375-1.195312 4.5625-.585938 5.804688 1.367188 1.164062 1.96875.605468 4.507812-1.28125 5.800781l-80.296875 53.421875 76.117187-43.863282c.957032-.589843 2.113282-.769531 3.207032-.496093 1.089843.273437 2.027343.976562 2.59375 1.949219 1.195312 1.980468.589843 4.558593-1.363282 5.800781l-36.183594 23.296875 31.574219-18.175782c1.980469-1.171874 4.535157-.523437 5.71875 1.449219 1.226563 1.941407.699219 4.503907-1.195312 5.804688l-47.789063 32.167969 43.265625-25c2.003907-1.25 4.640625-.640626 5.886719 1.363281 1.25 2.003906.640625 4.640625-1.363281 5.886719l-20.394531 13.65625 15.871093-9.21875c1.992188-1.078126 4.480469-.445313 5.71875 1.453124 1.226563 1.941407.699219 4.503907-1.195312 5.800782l-10.496094 7.425781 6.398437-3.753906c1.972657-1.097657 4.453126-.503907 5.71875 1.363281 1.21875 1.90625.773438 4.429688-1.023437 5.804688l-30.292969 23.039062 25.597656-14.761719c1.90625-1.121093 4.347657-.601562 5.632813 1.191407 1.265625 1.816406.933594 4.300781-.769531 5.71875l-20.820313 17.75 15.957031-9.214844c1.738282-1.03125 3.964844-.675782 5.292969.851562 1.222657 1.550782 1.222657 3.738282 0 5.289063l-11.691406 16.554687 5.121094-3.070312c1.316406-.957032 3.0625-1.082032 4.503906-.320313 1.4375.761719 2.320313 2.277344 2.269531 3.902344-.050781 1.628906-1.023437 3.085937-2.507812 3.757813l-22.699219 13.140624c-1.734375 1.003907-3.933594.667969-5.285156-.808593-1.355469-1.476563-1.5-3.695313-.347657-5.335938l12.03125-16.554687-39.421874 22.699218c-1.894532.972657-4.214844.402344-5.441407-1.339843-1.226562-1.742188-.980469-4.117188.578125-5.574219l20.734375-17.664062-42.667969 24.578124c-1.941406 1.15625-4.449218.59375-5.714843-1.28125-1.28125-1.875-.871094-4.425781.9375-5.800781l30.292969-23.039062-52.222657 30.207031c-1.296875.808594-2.925781.863281-4.273437.144531s-2.207032-2.101562-2.261719-3.628906c-.050781-1.523437.714844-2.960937 2.011719-3.769531l11.007812-7.507813-25.601562 14.761719c-1.292969.808594-2.921875.863281-4.269532.144531-1.347656-.71875-2.210937-2.101562-2.261718-3.628906-.050782-1.523437.714844-2.960937 2.011718-3.769531l21.074219-13.3125-36.09375 20.90625c-2.011719 1.132812-4.558593.496094-5.804687-1.449219-1.210938-1.964844-.644532-4.53125 1.28125-5.804687l47.785156-32.253907-68.265625 39.507813c-1.308594.792968-2.945313.828125-4.285156.085937-1.34375-.738281-2.1875-2.136719-2.21875-3.667969s.757812-2.964843 2.066406-3.757812l35.925781-23.292969-52.992187 30.632813c-1.296875.808594-2.921875.863281-4.269531.144531-1.347657-.71875-2.210938-2.097656-2.261719-3.625-.054688-1.527344.714843-2.964844 2.007812-3.773437l80.640625-53.417969-105.640625 60.332031c-1.3125.792969-2.945312.824219-4.289062.085938-1.339844-.738282-2.1875-2.136719-2.21875-3.667969s.757812-2.964844 2.070312-3.757813l72.789063-46.675781-93.867188 54.015625c-2.011718 1.132812-4.558594.496094-5.804687-1.453125-1.195313-1.984375-.589844-4.558594 1.367187-5.800781l116.480469-75.351563-143.445313 82.605469c-2.007812 1.179688-4.589843.535156-5.804687-1.453125-1.203125-2.007813-.597656-4.613281 1.367187-5.886719l96-60.5-117.503906 67.839844c-1.980468 1.171875-4.535156.523438-5.71875-1.453125-1.195312-1.984375-.589844-4.558594 1.367188-5.800781l140.457031-89.429688-167.507813 96.683594c-.632812.414062-1.378906.621094-2.132812.597656zm0 0" fill="#e4e8eb"/><path d="m88.613281 498.773438c-.953125.019531-1.882812-.28125-2.644531-.851563-1.351562-1.082031-1.949219-2.847656-1.539062-4.523437l2.902343-10.242188-7.421875 4.269531c-1.738281 1.03125-3.96875.671875-5.292968-.855469-1.226563-1.550781-1.226563-3.738281 0-5.289062l5.375-7.679688-8.53125 4.949219c-1.816407 1.089844-4.164063.652344-5.460938-1.027343-1.332031-1.609376-1.332031-3.933594 0-5.542969l6.910156-7.511719-9.984375 5.71875c-1.808593 1.132812-4.183593.6875-5.460937-1.023438-1.363282-1.597656-1.363282-3.953124 0-5.546874l13.3125-13.910157-18.261719 10.324219c-1.867187 1.046875-4.222656.574219-5.546875-1.109375-1.378906-1.625-1.378906-4.007813 0-5.632813l14.082031-14.078124-18.519531 10.496093c-1.777344 1.058594-4.0625.660157-5.375-.9375-1.316406-1.582031-1.316406-3.882812 0-5.460937l10.15625-12.460938-14.933594 8.535156c-1.4375.894532-3.257812.894532-4.695312 0-1.191406-1.035156-1.71875-2.644531-1.363282-4.183593l2.21875-11.09375-7.339843 4.269531c-1 .597656-2.207031.753906-3.328125.425781-1.105469-.335937-2.03125-1.105469-2.558594-2.132812l-2.988281-5.460938c-1.820313.421875-3.703125-.414062-4.609375-2.050781-.945313-1.945312-.285156-4.292969 1.539062-5.460938l2.644532-1.535156c.992187-.582031 2.175781-.734375 3.285156-.429687 1.109375.304687 2.046875 1.042969 2.601562 2.050781l2.902344 5.289062 12.03125-6.910156c1.425781-.9375 3.269531-.9375 4.695312 0 1.332032 1.015625 1.964844 2.710938 1.621094 4.351563l-2.476562 10.835937 26.710937-15.445312c1.769531-1.097656 4.082031-.695313 5.375.941406 1.316407 1.582031 1.316407 3.878906 0 5.460938l-10.070312 12.628906 26.539062-15.359375c1.84375-1.035157 4.167969-.5625 5.460938 1.109375 1.414062 1.609375 1.414062 4.019531 0 5.632812l-14.078125 14.078125 15.613281-9.046875c1.871094-1.042968 4.226563-.574218 5.546875 1.109375 1.367188 1.597657 1.367188 3.953125 0 5.546875l-13.394531 14.167969 8.53125-4.949219c1.832031-1.019531 4.125-.585937 5.460937 1.023438 1.332032 1.609375 1.332032 3.9375 0 5.546875l-6.910156 7.59375 1.621094-.9375c1.738281-1.03125 3.964844-.671875 5.289062.851562 1.226563 1.550781 1.226563 3.742188 0 5.292969l-5.375 7.679688c1.378906-.886719 3.144532-.886719 4.523438 0 1.355468 1.074218 1.929687 2.859374 1.449218 4.519531l-3.328124 11.691406c1.21875.230469 2.277343.976563 2.902343 2.050781 1.171875 2.050782.492188 4.667969-1.535156 5.886719l-5.71875 3.328125c-.734375.582031-1.625.9375-2.558594 1.023438zm0 0" fill="#5e8faa"/><path d="m165.839844 223.574219c-1.476563.011719-2.847656-.769531-3.585938-2.050781-1.210937-1.960938-.644531-4.53125 1.28125-5.800782l14.761719-9.726562-13.054687 7.507812c-1.980469.992188-4.394532.304688-5.550782-1.585937-1.160156-1.894531-.675781-4.355469 1.113282-5.667969l3.753906-2.472656c-1.871094.671875-3.957032-.035156-5.035156-1.707032-1.292969-1.910156-.796876-4.507812 1.109374-5.804687l54.613282-38.058594-50.003906 28.84375c-1.972657 1.125-4.476563.507813-5.703126-1.398437-1.226562-1.910156-.746093-4.445313 1.09375-5.769532l65.28125-46.761718-60.671874 34.984375c-1.957032 1.1875-4.507813.578125-5.71875-1.363281-1.234376-1.894532-.742188-4.425782 1.109374-5.71875l65.109376-46.589844-60.5 34.898437c-1.296876.808594-2.925782.863281-4.273438.144531-1.347656-.714843-2.207031-2.097656-2.261719-3.625-.050781-1.527343.714844-2.964843 2.011719-3.773437l29.269531-19.625-24.746093 14.335937c-1.988282 1.125-4.507813.484376-5.71875-1.449218-.617188-.90625-.847657-2.015625-.636719-3.089844.207031-1.074219.835937-2.023438 1.746093-2.628906l56.234376-39.421875-51.199219 29.78125c-1.953125.933593-4.296875.257812-5.449219-1.574219-1.15625-1.828125-.757812-4.234375.925781-5.59375l34.132813-23.46875-29.609375 17.066406c-1.957031 1.320313-4.609375.804688-5.929688-1.152344-1.320312-1.953124-.804687-4.609374 1.152344-5.929687l43.773437-34.132813-38.996093 22.441407c-1.863281 1.085937-4.242188.609375-5.546875-1.109375-1.289063-1.761719-1.070313-4.210938.511718-5.714844l27.820313-26.371094-23.210937 13.3125c-1.84375 1.0625-4.183594.609375-5.496094-1.066406-1.308594-1.675781-1.183594-4.058594.289062-5.589844l9.898438-10.066406-4.691406 2.644531c-1.425782.9375-3.269532.9375-4.695313 0-1.613281-1.121093-2.277344-3.183593-1.621094-5.035156l2.5625-10.753906c-1.480469-.628907-2.480469-2.035157-2.589843-3.640625-.109376-1.601563.695312-3.132813 2.078124-3.953125l4.265626-2.472657c1.421874-.9375 3.269531-.9375 4.691406 0 1.335937 1.015626 1.964844 2.707032 1.621094 4.351563l-2.046876 8.53125 23.039063-13.3125c1.84375-1.0625 4.1875-.605469 5.496094 1.066406 1.308593 1.675781 1.1875 4.058594-.289063 5.589844l-9.898437 10.753906 29.097656-17.066406c1.921875-1.003906 4.285156-.503906 5.632813 1.195313 1.296874 1.746093 1.035156 4.195312-.597657 5.628906l-28.074219 26.371094 57.085938-32.941407c1.917969-1.144531 4.398438-.582031 5.632812 1.28125 1.246094 1.835938.875 4.324219-.851562 5.71875l-43.777344 34.132813 72.105469-41.644532c2.003906-1.25 4.640625-.636718 5.890625 1.367188 1.246094 2 .636719 4.636719-1.367188 5.886719l-34.132812 23.382812 42.667969-24.492187c1.984375-1.125 4.503906-.484375 5.714843 1.449218.617188.90625.847657 2.019532.640626 3.09375-.207032 1.070313-.839844 2.019532-1.75 2.625l-56.316407 39.425782 51.710938-29.78125c1.992187-1.152344 4.53125-.550782 5.800781 1.363281 1.210938 1.960937.644531 4.53125-1.277344 5.804687l-29.441406 20.050782 24.832031-14.25c1.957031-1.1875 4.507813-.578125 5.71875 1.367187 1.1875 1.898438.703125 4.398438-1.109375 5.714844l-65.109375 46.421875 60.5-34.902344c1.972657-1.09375 4.453125-.5 5.71875 1.367188 1.242188 1.917968.753907 4.476562-1.109375 5.800781l-65.28125 46.765625 60.671875-35.074219c2.003907-1.273437 4.65625-.679687 5.929688 1.324219 1.273437 2.003906.679687 4.65625-1.320313 5.929688l-54.613281 38.058593 50.003906-28.84375c2.003907-1.179687 4.585938-.535156 5.800781 1.453125 1.167969 1.96875.609376 4.503906-1.277343 5.800782l-3.753907 2.476562c2.070313-1.039062 4.59375-.199219 5.628907 1.875 1.039062 2.074219.199219 4.597656-1.875 5.632812l-14.847657 9.8125 10.410157-5.972656c1.953125-.933594 4.292969-.257812 5.449219 1.574219 1.15625 1.828125.757812 4.234375-.925782 5.59375l-27.480468 19.199219 22.957031-13.3125c1.929687-1.058594 4.347656-.507813 5.632812 1.28125 1.265625 1.816406.929688 4.300781-.769531 5.71875l-36.777344 30.292968 32.167969-18.601562c1.871094-1.046875 4.222656-.578125 5.546875 1.109375 1.378906 1.621094 1.378906 4.007813 0 5.628906l-22.355469 22.359375 17.066407-9.984375c1.839843-1.0625 4.183593-.609375 5.492187 1.066407 1.3125 1.675781 1.1875 4.058593-.289063 5.589843l-4.4375 4.609375c1.371094-.421875 2.859376-.167968 4.011719.679688 1.371094 1.101562 1.941407 2.921875 1.453125 4.609375l-2.050781 6.996093c.679687.382813 1.238281.945313 1.621094 1.621094 1.175781 2.054688.492187 4.671875-1.535157 5.890625l-4.265624 2.386719c-1.445313.976562-3.335938.976562-4.777344 0-1.378906-1.058594-1.957032-2.859375-1.453125-4.519531l1.195312-4.183594-15.785156 9.132813c-1.871094 1.042968-4.222656.574218-5.546875-1.109376-1.402344-1.585937-1.402344-3.964843 0-5.546874l4.179688-4.4375-19.199219 11.09375c-1.839844 1.410156-4.476563 1.066406-5.886719-.769532-1.414062-1.839844-1.070312-4.472656.765625-5.886718l22.613281-22.785157-51.199218 29.183594c-1.929688 1.195313-4.457032.675781-5.753907-1.191406-1.296875-1.863281-.90625-4.414063.890625-5.804688l37.035156-30.125-64.34375 37.207031c-2 1.273438-4.65625.679688-5.929687-1.324218s-.679687-4.65625 1.324219-5.929688l28.242187-19.113281-46.078125 26.367187c-.636718.402344-1.378906.613282-2.132812.597657zm0 0" fill="#f76c82"/><path d="m239.652344 393.644531c-1.132813.011719-2.214844-.453125-2.988282-1.28125-1.363281-1.386719-1.644531-3.511719-.679687-5.207031l8.53125-14.589844-33.535156 19.371094c-1.929688 1.058594-4.347657.507812-5.632813-1.28125-1.246094-1.835938-.875-4.324219.855469-5.71875l4.007813-3.242188-2.386719 1.367188c-1.90625 1.125-4.355469.609375-5.644531-1.1875-1.289063-1.800781-.988282-4.285156.695312-5.726562l19.710938-17.664063-14.847657 8.535156c-1.90625 1.125-4.355469.613281-5.644531-1.1875s-.988281-4.285156.695312-5.726562l18.6875-16.46875-13.738281 7.9375c-1.863281 1.085937-4.246093.609375-5.546875-1.109375-1.289062-1.765625-1.070312-4.210938.511719-5.71875l24.917969-23.722656-19.882813 11.433593c-1.863281 1.085938-4.246093.609375-5.546875-1.109375-1.316406-1.722656-1.09375-4.171875.511719-5.628906l24.574219-23.46875-19.539063 11.351562c-1.929687 1.058594-4.347656.507813-5.632812-1.28125-1.265625-1.816406-.933594-4.300781.769531-5.71875l12.882812-10.496093-7.847656 4.523437c-1.933594 1.058594-4.351562.511719-5.632812-1.28125-1.292969-1.824218-.914063-4.34375.851562-5.714844l7.679688-6.230468-2.898438 1.621094c-1.867187 1.085937-4.246094.609374-5.546875-1.109376-1.328125-1.753906-1.109375-4.226562.511719-5.714843l21.417969-19.371094-16.382813 9.386719c-1.90625 1.117187-4.347656.597656-5.632812-1.195313-1.265625-1.816406-.933594-4.300781.765625-5.71875l3.160156-2.644531c-1.042969.105469-2.085937-.203125-2.902344-.855469-1.371093-.953125-2.039062-2.628906-1.707031-4.265625l2.816406-14.421875c-.988281-.289062-1.820312-.964843-2.304687-1.875-.582031-.96875-.75-2.132812-.460938-3.226562.289063-1.09375 1.011719-2.023438 1.996094-2.578125l4.269531-2.558594c1.445313-.855469 3.246094-.855469 4.691406 0 1.304688 1 1.929688 2.652344 1.621094 4.265625l-2.472656 12.542969 29.863281-17.066406c1.898438-1.160157 4.375-.636719 5.632813 1.195312 1.265625 1.816406.933594 4.300781-.765625 5.71875l-1.453125 1.28125 9.300781-5.378906c1.882813-1.09375 4.285156-.59375 5.578125 1.160156 1.292969 1.75 1.058594 4.191406-.542969 5.667969l-21.332031 19.710937 16.296875-9.386718c1.929687-1.195313 4.460937-.671876 5.753906 1.191406 1.296875 1.863281.90625 4.414062-.886719 5.808594l-7.765624 6.226562 2.984374-1.707031c1.917969-1.144531 4.398438-.582031 5.632813 1.28125 1.226563 1.824219.894531 4.277343-.769531 5.71875l-12.714844 10.578125 7.851562-4.519532c1.851563-.953124 4.121094-.425781 5.367188 1.242188s1.105469 3.992188-.332031 5.496094l-24.574219 23.382812 19.539062-11.179687c1.863282-1.082031 4.246094-.609375 5.546876 1.109375 1.300781 1.71875 1.117187 4.132812-.425782 5.632812l-25.003906 23.550782 19.882812-11.433594c1.90625-1.117188 4.347657-.601563 5.632813 1.195312 1.320313 1.757813 1.019531 4.242188-.683594 5.632813l-18.601562 16.46875 13.738281-8.023438c1.878906-1.105469 4.292969-.585937 5.546875 1.195313 1.265625 1.785156 1.011719 4.234375-.597656 5.71875l-19.796875 17.75 14.847656-8.535156c1.957031-1.320313 4.613281-.804688 5.929688 1.152343 1.320312 1.957031.804687 4.613281-1.152344 5.929688l-4.265625 3.414062c1.703125-.707031 3.667969-.242187 4.871093 1.15625 1.203126 1.398438 1.371094 3.410157.421876 4.988281l-8.535157 14.59375 2.902344-1.707031c2.054687-1.175781 4.667969-.492187 5.886719 1.535157 1.152344 2.050781.425781 4.644531-1.621094 5.800781l-17.066406 9.898437c-.667969.402344-1.445313.582032-2.21875.515625zm0 0" fill="#a9b0bb"/><path d="m219.769531 52.652344c-1.425781-.015625-2.761719-.714844-3.582031-1.878906-1.222656-1.90625-.777344-4.429688 1.023438-5.804688l2.730468-2.132812-15.957031 9.21875c-1.910156 1.195312-4.425781.621093-5.632813-1.28125-1.246093-1.835938-.875-4.324219.851563-5.71875l4.867187-3.753907-18.691406 10.753907c-1.847656.996093-4.144531.527343-5.460937-1.109376-1.265625-1.785156-1.011719-4.234374.597656-5.71875l17.75-16.46875-38.316406 22.015626c-1.929688 1.058593-4.347657.511718-5.628907-1.28125-1.292968-1.824219-.917968-4.34375.851563-5.714844l9.386719-7.765625-13.824219 8.019531c-1.902344 1.121094-4.347656.601562-5.632813-1.195312-1.273437-1.765626-.976562-4.21875.683594-5.628907l8.535156-7.9375-6.144531 3.5c-1.617187.921875-3.640625.714844-5.035156-.511719-1.359375-1.269531-1.738281-3.273437-.9375-4.949218l5.035156-11.265625c-1.695312.1875-3.339843-.652344-4.183593-2.132813-.582032-.96875-.75-2.132812-.460938-3.226562.292969-1.09375 1.011719-2.023438 1.996094-2.578125l9.730468-5.546875c1.609376-.949219 3.648438-.742188 5.035157.511718 1.359375 1.265626 1.773437 3.25 1.023437 4.949219l-4.949218 10.753907 28.074218-16.214844c1.863282-1.082032 4.242188-.609375 5.546875 1.109375 1.304688 1.777343 1.046875 4.253906-.597656 5.71875l-8.535156 7.9375 25.601562-14.765625c1.917969-1.144532 4.398438-.582032 5.632813 1.28125 1.203125 1.847656.835937 4.304687-.855469 5.71875l-9.386719 7.679687 25.601563-14.679687c1.863281-1.082032 4.242187-.609375 5.546875 1.109375 1.144531 1.875.746094 4.308593-.941406 5.71875l-17.066407 16.46875 40.109375-23.296875c1.917969-1.144532 4.398438-.582032 5.632813 1.28125 1.269531 1.847656.855469 4.371094-.941407 5.71875l-4.777343 3.753906 18.6875-10.753906c1.945312-1.15625 4.453125-.59375 5.71875 1.28125 1.21875 1.90625.773437 4.429687-1.023438 5.804687l-2.734375 2.132813 16.128906-9.21875c1.808594-1.132813 4.1875-.6875 5.460938 1.027344 1.457031 1.59375 1.457031 4.035156 0 5.628906l-19.882812 19.714844 36.78125-21.25c1.828124-1.015626 4.121093-.585938 5.460937 1.023437 1.363281 1.597656 1.363281 3.949219 0 5.546875l-15.445313 17.324219 10.835938-6.230469c1.769531-1.101562 4.085938-.695312 5.375.9375 1.355469 1.570312 1.355469 3.894531 0 5.460938l-4.007812 4.867187c.792968.347656 1.453124.949219 1.875 1.707031 1.175781 2.050782.492187 4.667969-1.535157 5.886719l-13.738281 7.933594c-1.816406 1.003906-4.085938.613281-5.460938-.9375-1.265624-1.632813-1.265624-3.914063 0-5.546875l.765626-.851563-12.882813 7.421875c-1.777344 1.0625-4.0625.664063-5.375-.9375-1.367187-1.597656-1.367187-3.949218 0-5.546875l15.359375-17.066406-41.046875 23.382813c-1.761719.910156-3.917969.484374-5.203125-1.023438-1.378906-1.625-1.378906-4.007812 0-5.632812l19.453125-19.714844-45.738281 26.371094c-.640625.394531-1.378906.601562-2.132813.597656zm0 0" fill="#eb5463"/><path d="m221.476562 248.917969c-1.777343-.019531-3.359374-1.136719-3.96875-2.808594-.605468-1.671875-.113281-3.546875 1.238282-4.703125l13.054687-11.007812-31.144531 17.921874c-1.855469.949219-4.121094.425782-5.367188-1.242187-1.246093-1.667969-1.105468-3.992187.332032-5.5l18.003906-17.066406-41.042969 23.808593c-1.90625 1.117188-4.347656.601563-5.632812-1.195312-1.246094-1.804688-.953125-4.253906.683593-5.71875l15.015626-13.054688-34.558594 19.96875c-1.871094.957032-4.164063.410157-5.398438-1.292968s-1.042968-4.050782.449219-5.535156l17.066406-15.273438-28.160156 16.296875c-1.878906 1.109375-4.292969.589844-5.546875-1.191406-1.359375-1.714844-1.136719-4.195313.511719-5.632813l11.351562-10.582031-7 4.097656c-1.738281 1.03125-3.964843.671875-5.289062-.855469-1.238281-1.578124-1.238281-3.796874 0-5.375l5.800781-8.105468c-1.460938-.035156-2.796875-.851563-3.496094-2.136719-.585937-.96875-.75-2.132813-.460937-3.226563.289062-1.089843 1.007812-2.019531 1.996093-2.574218l13.910157-8.023438c1.738281-1.03125 3.964843-.671875 5.289062.855469 1.226563 1.550781 1.226563 3.738281 0 5.289063l-4.949219 6.828124 22.785157-13.054687c1.863281-1.085937 4.242187-.609375 5.546875 1.109375 1.25 1.773438 1.035156 4.191406-.511719 5.714844l-11.691406 10.496094 30.121093-17.066407c1.90625-1.117187 4.347657-.601562 5.632813 1.195313 1.296875 1.746094 1.035156 4.195312-.597656 5.632812l-17.066407 15.273438 38.316407-22.101563c1.902343-1.117187 4.34375-.601562 5.628906 1.195313 1.246094 1.804687.953125 4.257812-.679687 5.71875l-15.019532 13.054687 34.730469-20.222656c1.863281-1.085937 4.242187-.609375 5.546875 1.109375 1.316406 1.722656 1.09375 4.171875-.511719 5.628906l-18.007812 17.066406 41.046875-23.636718c1.894531-1.164063 4.371094-.636719 5.632812 1.195312 1.265625 1.816406.933594 4.300782-.769531 5.71875l-13.054687 10.835938 31.144531-17.917969c1.8125-1.136719 4.1875-.691406 5.464843 1.023437 1.414063 1.609376 1.414063 4.019532 0 5.632813l-19.628906 20.222656 43.351563-25.003906c1.851562-.949219 4.117187-.425781 5.363281 1.246094 1.246094 1.667969 1.105469 3.988281-.332031 5.496093l-16.125 14.761719 19.371093-11.433593c1.820313-1.058594 4.144532-.628907 5.464844 1.011718 1.324219 1.644532 1.25 4.003906-.175781 5.558594l-8.535156 9.644531 4.78125-2.730469c1.703125-.972656 3.851562-.65625 5.203125.765626 1.402344 1.386718 1.617187 3.574218.511718 5.207031l-2.898437 4.605469c.957031.351562 1.769531 1.011718 2.300781 1.878906.578125.980468.730469 2.152344.425782 3.246094-.304688 1.09375-1.042969 2.019531-2.046876 2.554687l-9.898437 5.804687c-1.683594.992188-3.832031.710938-5.203125-.683593-1.355469-1.441407-1.5625-3.613281-.511719-5.289063l1.195313-1.878906-13.570313 7.851562c-1.808593 1.132813-4.183593.6875-5.460937-1.023437-1.402344-1.582031-1.402344-3.964844 0-5.546875l8.535156-9.644531-27.648438 16.214843c-1.890624 1.097657-4.300781.621094-5.632812-1.109374-1.265625-1.785157-1.011719-4.234376.597656-5.71875l15.785156-14.675782-37.289062 21.503906c-1.84375 1.101563-4.21875.664063-5.546875-1.023437-1.414063-1.613281-1.414063-4.023437 0-5.632813l19.539063-20.222656-46.164063 26.878906c-.640625.394532-1.378906.601563-2.132813.597657zm0 0" fill="#eb5463"/></g><path d="m459.128906 320.085938v-106.324219c0-11.949219 4.78125-36.867188-2.644531-47.960938-11.179687-16.382812-49.492187-9.042969-65.28125-9.042969h-85.332031v-106.070312c14.507812-6.824219 25.601562-24.574219 15.871094-40.875-6.824219-10.496094-18.6875-8.105469-30.035157-8.105469h-80.042969c-17.066406 0-39.511718-3.839843-56.320312 0-15.273438 3.5-18.859375 15.273438-15.789062 30.378907.730468 9.523437 7.703124 17.402343 17.070312 19.285156v105.214844c-41.558594-1.023438-89.941406-8.105469-129.367188 0-39.425781 8.105468-24.148437 65.878906-24.148437 95.316406v103.339844c0 15.789062-5.804687 44.972656 0 60.332031-.378906.933593-.101563 2.007812.683594 2.644531l1.191406 1.109375c6.570313 11.945313 23.125 24.320313 34.132813 34.132813l8.535156 8.535156c11.519531 12.882812 27.136718 34.730468 41.128906 41.042968l.597656.683594h.597656c1.804688 1.296875 4.125 1.644532 6.230469.9375 7.765625.683594 17.664063-1.023437 24.0625-1.023437h280.75c23.804688 0 52.476563 5.71875 58.621094-23.550781 3.839844-17.921876 0-41.132813 0-59.734376zm-247.464844 53.589843v-125.269531h38.910157v137.042969c-5.632813.769531-13.3125 1.621093-20.480469 2.136719l-9.128906-.769532c-2.644532 0-5.972656-.511718-9.300782-1.023437-1.28125-1.621094 0-10.242188 0-12.117188zm50.089844-131.839843h-1.109375c-.984375-.214844-2.003906-.214844-2.988281 0h-49.746094c-1.417968.039062-2.824218.269531-4.183594.679687-17.039062 1.3125-34.15625 1.3125-51.199218 0-2.558594 0-9.984375 1.539063-12.03125 0-10.242188-7.335937-6.402344-31.828125 5.035156-36.519531h151.292969c1.328125-.117188 2.640625-.347656 3.925781-.683594l3.925781.597656c12.203125 2.472656 34.816407 24.488282 21.078125 36.523438-4.949218 4.351562-36.011718 0-42.667968 0zm-92.585937-42.667969v-.425781c-2.902344-7.253907 0-21.335938 0-29.183594v-116.652344c41.214843 2.304688 83.113281 0 124.414062 0 2.5625 7.425781 0 20.90625 0 28.5v117.421875c-41.640625-1.28125-83.113281-.257813-124.414062.167969zm-13.058594-188.929688c6.488281-4.179687 27.820313 0 35.414063 0h59.050781c15.285156-1.109375 30.628906-1.109375 45.910156 0 1.792969 0 8.535156-1.277343 10.410156 0 9.898438 7.683594 1.792969 30.550781-7.851562 34.136719h-80.46875c-6.65625 0-14.421875.679688-22.1875 1.109375h-17.066407c-2.671874-.144531-5.324218-.515625-7.933593-1.109375-12.117188-2.730469-29.695313-24.832031-15.277344-34.136719zm-67.753906 432.386719v43.773438l-66.132813-66.132813v-.597656h18.945313c13.566406 0 29.523437-3.667969 40.363281 5.035156 7.847656 6.316406 6.824219 9.132813 6.824219 17.921875zm358.402343 40.875c-5.460937 19.453125-17.496093 14.589844-33.621093 14.589844-100.695313 0-202.667969 4.863281-303.191407 0-5.375 0-7.765624 0-9.214843 0v-40.363282c0-11.859374 3.414062-30.890624-5.972657-40.105468-9.386718-9.214844-27.136718-6.144532-39.085937-6.144532h-38.398437c-.761719-2.261718-1.390626-4.570312-1.878907-6.910156-4.09375-21.078125 0-46.765625 0-68.269531v-99.328125c0-16.210938-5.375-44.882812 0-60.414062 8.535157-23.636719 47.53125-14.164063 68.269531-14.164063h73.214844v36.691406h-8.53125c-.925781.035157-1.84375.179688-2.734375.425781-15.273437 4.183594-36.179687 28.078126-20.050781 44.375 7.167969 7.339844 26.027344 3.925782 34.644531 3.925782h39.679688v134.65625c-1.863281-.777344-3.589844-1.84375-5.121094-3.15625-2.472656-2.21875-13.652344 2.386718-11.605469 4.265625 9.367188 6.570312 20.664063 9.8125 32.085938 9.214843 13.722656 1.195313 27.539062.679688 41.132812-1.535156 1.820313-.265625 3.582032-.84375 5.203125-1.707031 6.738281-1.25 13.050781-4.1875 18.347657-8.535156 2.644531-2.472657-8.535157-1.277344-11.265626.855469-1.570312 1.324218-3.359374 2.363281-5.289062 3.070312v-136.53125c19.113281.683594 41.558594 3.753906 59.734375 0 15.273437-3.414062 20.222656-11.179688 17.066406-27.648438-3.414062-20.394531-15.019531-20.308593-31.914062-21.164062h-2.21875v-37.203125h51.199219c20.992187 0 54.273437-7.082031 74.070312 0 30.292969 10.835937 16.210938 83.882813 16.210938 107.175781v170.667969c-.683594 12.628906 2.644531 31.316406-.683594 43.605469zm0 0" fill="#262626"/><path d="m190.839844 84.394531v85.332031c0 2.476563 12.289062.597657 12.289062-3.242187v-85.332031c0-2.476563-12.289062-.597656-12.289062 3.242187zm0 0" fill="#262626" fill-rule="evenodd"/></svg>