<svg height="508pt" viewBox="0 -1 508.69716 508" width="508pt" xmlns="http://www.w3.org/2000/svg"><g fill-rule="evenodd"><path d="m40.644531 453.519531c-1.488281-.023437-2.867187-.792969-3.667969-2.050781-.589843-.957031-.769531-2.113281-.496093-3.203125.273437-1.09375.972656-2.03125 1.945312-2.597656l106.070313-66.476563-124.671875 71.9375c-1.300781 1.203125-3.210938 1.472656-4.796875.683594-1.585938-.789062-2.515625-2.476562-2.34375-4.238281.175781-1.761719 1.421875-3.234375 3.128906-3.699219l108.375-67.414062-113.066406 65.109374c-2.035156 1.117188-4.589844.441407-5.804688-1.535156-1.179687-2.003906-.535156-4.585937 1.453125-5.800781l146.773438-92.246094-143.875 83.027344c-2.019531 1.152344-4.59375.472656-5.78125-1.527344-1.1875-2.003906-.550781-4.589843 1.429687-5.808593l84.394532-51.96875-80.042969 46.25c-2.027344 1.164062-4.613281.480468-5.800781-1.535157-.589844-.960937-.769532-2.113281-.496094-3.207031.273437-1.09375.972656-2.027344 1.945312-2.597656l88.746094-54.695313-84.394531 48.382813c-2.03125 1.117187-4.585938.441406-5.800781-1.535156-1.195313-1.984376-.589844-4.5625 1.363281-5.804688l159.148437-100.179688-154.710937 89.34375c-1.324219.777344-2.964844.789063-4.300781.027344-1.335938-.757812-2.167969-2.175781-2.175782-3.710937-.011718-1.539063.800782-2.964844 2.125-3.742188l58.113282-35.582031-53.761719 31.058594c-.957031.59375-2.113281.769531-3.207031.496094-1.089844-.269532-2.027344-.972657-2.59375-1.945313-1.195313-1.984375-.589844-4.558594 1.363281-5.800781l119.46875-74.328125-115.03125 66.476562c-1.980469.992188-4.394531.300781-5.550781-1.589843-1.15625-1.890626-.671876-4.351563 1.113281-5.664063l141.738281-88.832031-137.300781 79.273437c-2.03125 1.117188-4.585938.441407-5.800781-1.535156-1.195313-1.984375-.589844-4.558594 1.363281-5.800781l131.414062-82.007813-126.976562 73.300781c-1.960938.851563-4.25.113282-5.351563-1.71875-1.097656-1.835937-.671875-4.199218 1-5.535156l24.746094-15.101562-20.394531 11.691406c-2.003907 1.179688-4.585938.535156-5.800781-1.453125-.59375-.96875-.777344-2.140625-.503907-3.246094.273438-1.105469.976563-2.054687 1.953125-2.640625l61.695313-37.886718-57.34375 33.191406c-1.980469.996094-4.394531.304687-5.550781-1.585938s-.671876-4.351562 1.113281-5.664062l132.355469-82.6875-128 73.898437c-2.027344 1.222657-4.664063.574219-5.890626-1.453125-1.226562-2.027344-.574218-4.660156 1.453126-5.886718l78.929687-48.46875-74.410156 42.664062c-1.707031.375-3.46875-.332031-4.445313-1.777344-.980468-1.449218-.976562-3.347656.007813-4.792968l155.648437-98.472657-151.210937 87.210938c-2.003907 1.179687-4.585938.535156-5.800781-1.453125-1.203126-2.007813-.601563-4.613282 1.363281-5.886719l99.5-61.441406-95.144531 54.871093c-1.980469 1.171876-4.539063.523438-5.71875-1.449218-1.195313-1.984375-.589844-4.5625 1.363281-5.804688l165.035156-104.617187-160.679687 92.757812c-1.816407.496094-3.742188-.25-4.742188-1.84375-1.003906-1.589843-.84375-3.648437.386719-5.070312l120.234375-75.09375-115.878906 66.5625c-1.980469 1.171875-4.539063.523437-5.71875-1.453125-1.203126-2.007813-.601563-4.613282 1.363281-5.886719l111.617187-70.058594-107.261718 61.78125c-1.964844.847657-4.253907.113281-5.355469-1.722656-1.097657-1.832031-.671875-4.199219 1-5.53125l88.578125-55.722656-84.222656 48.640625c-1.980469 1.171875-4.539063.523437-5.71875-1.453125-.601563-.960938-.796876-2.121094-.539063-3.226563.253906-1.105468.941406-2.0625 1.902344-2.660156l76.203125-48.042969-71.847656 41.386719c-2.03125 1.164062-4.617188.480469-5.804688-1.535156-1.125-1.988282-.484375-4.507813 1.449219-5.71875l37.890625-23.804688-33.535156 19.285156c-1.984376.992188-4.398438.300782-5.554688-1.589843s-.671875-4.351563 1.117188-5.664063l55.125-35.242187-50.6875 29.269531c-2.007813 1.179688-4.589844.53125-5.804688-1.453125-1.195312-1.984375-.589844-4.558594 1.367188-5.800781l26.453124-17.066406-22.015624 12.882812c-1.984376.996094-4.398438.304688-5.554688-1.585938-1.15625-1.890624-.671875-4.355468 1.117188-5.667968l41.898437-27.390625-37.460937 21.675781c-.964844.554688-2.105469.707031-3.179688.417969-1.070312-.289063-1.984375-.992188-2.539062-1.953125-.605469-.941406-.8125-2.082032-.570313-3.171875.238281-1.089844.90625-2.035157 1.851563-2.632813l12.796874-8.53125-8.53125 4.863282c-1.707031.371093-3.46875-.332032-4.449218-1.78125-.976563-1.449219-.972656-3.347657.011718-4.789063l56.0625-41.21875-15.101562 8.535156c-1.863281 1.085938-4.246094.609375-5.546875-1.109375-1.253906-1.773437-1.035156-4.195312.511719-5.71875l41.984375-38.398437c-.679688-1.910157.113281-4.035157 1.875-5.035157l10.070312-5.804687c1.890625-1.09375 4.300781-.621094 5.632813 1.109375 1.265625 1.785156 1.011718 4.234375-.597656 5.71875l-24.320313 22.699219 51.199219-29.527344c1.964844-1.136719 4.480468-.539063 5.71875 1.367187 1.234375 1.890626.746094 4.425782-1.109375 5.71875l-56.320313 40.875 83.027344-47.960937c1.984375-.992187 4.394531-.300781 5.554688 1.589844 1.15625 1.890625.671874 4.351562-1.117188 5.664062l-12.882812 8.535157 27.050781-15.789063c2.003906-1.179687 4.585937-.53125 5.800781 1.453125 1.167969 1.96875.605469 4.503906-1.28125 5.800781l-41.898438 27.308594 59.992188-34.5625c2.003906-1.179687 4.585938-.53125 5.800781 1.453125 1.195313 1.984375.589844 4.558594-1.363281 5.800781l-26.539062 17.066407 41.8125-24.320313c1.980468-.992187 4.394531-.300781 5.550781 1.589844s.671875 4.351562-1.113281 5.664062l-55.039063 35.160157 73.640625-42.667969c2.007812-1.179688 4.589844-.535157 5.804688 1.449219 1.179687 2.007812.535156 4.589843-1.453126 5.804687l-37.886718 24.0625 53.84375-31.0625c2.007812-1.179687 4.589844-.53125 5.804687 1.453125 1.179688 2.003906.535157 4.585938-1.453125 5.800781l-76.117187 48.128907 96-55.382813c1.984375-.992187 4.394531-.300781 5.554687 1.589844 1.15625 1.890625.671875 4.351562-1.117187 5.664062l-88.746094 55.894531 109.226563-63.148437c1.984374-.992187 4.394531-.300781 5.550781 1.589844 1.160156 1.890625.675781 4.351562-1.113281 5.664062l-111.613282 70.058594 131.15625-75.6875c2.003906-1.183594 4.585938-.535156 5.800782 1.449219 1.207031 2.011718.601562 4.613281-1.363282 5.886718l-120.320312 75.09375 125.269531-72.105468c2.027344-1.164063 4.617187-.480469 5.800781 1.535156 1.148438 1.992188.550782 4.53125-1.363281 5.804688l-165.035156 104.277343 162.132812-93.441406c1.964844-.847656 4.25-.113281 5.351563 1.71875 1.101562 1.835937.671875 4.203125-1 5.535156l-99.582032 61.523438 95.058594-54.953125c2.035156-1.117188 4.589844-.441406 5.804688 1.535156 1.195312 1.984375.589844 4.558594-1.367188 5.804688l-155.648437 98.046874 151.210937-87.210937c2.007813-1.179687 4.589844-.535156 5.804688 1.449219 1.1875 2.03125.546875 4.640625-1.453125 5.890625l-78.761719 48.46875 74.496094-42.667969c2.007812-1.179688 4.589844-.535156 5.804687 1.449219.59375.972656.773438 2.140625.5 3.25-.269531 1.105469-.972656 2.054687-1.953125 2.640625l-132.4375 82.347656 128-73.902344c2.007813-1.179687 4.589844-.53125 5.804688 1.453125 1.1875 2.03125.546875 4.640625-1.453125 5.886719l-61.695313 37.804688 57.429688-33.109376c2.007812-1.179687 4.589844-.535156 5.804687 1.449219 1.1875 2.03125.542969 4.640625-1.453125 5.886719l-25.171875 15.277344 20.820313-12.035156c.96875-.582032 2.132812-.746094 3.226562-.457032 1.09375.289063 2.023438 1.007813 2.578125 1.996094 1.195313 1.984375.589844 4.558594-1.367187 5.800781l-131.414063 82.007813 126.890625-73.304688c2.027344-1.222656 4.664063-.574218 5.890625 1.453125 1.222657 2.027344.574219 4.660157-1.453125 5.886719l-141.738281 88.746094 137.300781-79.1875c2.007813-1.179688 4.589844-.535156 5.804688 1.449218.589844.960938.769531 2.113282.496094 3.207032-.273438 1.09375-.976563 2.027344-1.949219 2.597656l-119.464844 74.324219 115.113281-66.476563c2.023438-1.152344 4.597656-.46875 5.785156 1.53125 1.1875 2.003906.550782 4.585938-1.433593 5.808594l-58.023438 35.585938 53.671875-30.550782c1.984375-.992187 4.394532-.304687 5.554688 1.585938 1.15625 1.894531.671875 4.355468-1.117188 5.667968l-159.144531 100.09375 154.707031-89.34375c2.023438-1.152343 4.597656-.46875 5.785156 1.53125 1.1875 2.003907.550782 4.585938-1.433593 5.808594l-88.832031 54.785156 84.480468-48.8125c2.023438-1.152343 4.597656-.46875 5.785156 1.53125 1.1875 2.003907.550782 4.585938-1.433593 5.808594l-84.308594 51.96875 79.957031-46.167968c1.984375-.992188 4.394532-.300782 5.554688 1.589843 1.15625 1.890625.671875 4.351563-1.117188 5.664063l-147.113281 92.246094 142.335937-82.175782c2.023438-1.152344 4.59375-.472656 5.78125 1.53125 1.1875 2 .550782 4.585938-1.429687 5.808594l-107.945313 67.410156 103.933594-59.730468c1.984375-.996094 4.394532-.304688 5.554688 1.585937 1.15625 1.890625.671875 4.355469-1.117188 5.667969l-106.238281 66.558594 101.800781-58.792969c1.984375-.996094 4.394532-.304688 5.554688 1.585937 1.15625 1.890625.671875 4.351563-1.117188 5.664063l-135.082031 87.210937 130.644531-75.347656c1.984375-.992188 4.394532-.304688 5.554688 1.585938 1.15625 1.890624.671875 4.355468-1.117188 5.667968l-62.976562 39.679688 58.539062-34.132813c1.984375-.996093 4.394532-.304687 5.554688 1.585938 1.15625 1.890625.671875 4.355469-1.117188 5.667969l-49.40625 31.230468 44.96875-25.601562c1.984375-.992188 4.394532-.300782 5.554688 1.589844 1.15625 1.890624.671875 4.351562-1.117188 5.664062l-50.089844 32.085938 45.652344-26.367188c1.984375-.996094 4.394532-.304688 5.554688 1.585938 1.15625 1.890624.671875 4.355468-1.117188 5.667968l-53.246094 35.15625 49.238282-28.5c1.292968-.808594 2.921875-.863281 4.269531-.148437 1.347656.71875 2.210937 2.101562 2.261719 3.628906.050781 1.527344-.714844 2.964844-2.011719 3.769531l-58.539063 39.765625 53.589844-31.316406c2.003906-1.25 4.640625-.636719 5.890625 1.367187 1.246094 2 .636719 4.636719-1.367187 5.886719l-36.949219 25.601563 32.425781-18.773438c2.003906-1.273437 4.660156-.683594 5.933594 1.320313 1.269531 2.003906.679688 4.660156-1.324219 5.929687l-32.851562 23.296875 28.242187-16.296875c1.917969-1 4.277344-.410156 5.496094 1.375s.910156 4.199219-.714844 5.621094l-30.804687 23.980469 25.597656-15.019531c1.902344-1.121094 4.347656-.601563 5.632813 1.195312 1.265624 1.816406.933593 4.296875-.769532 5.714844l-17.066406 14.421875 12.375-7.082031c1.902344-1.117188 4.347656-.601563 5.632812 1.195312 1.246094 1.804688.953126 4.253906-.683593 5.71875l-3.753907 3.15625c1.59375-.308594 3.230469.28125 4.265626 1.535156 1.367187 1.597656 1.367187 3.949219 0 5.546875l-3.753907 4.179688c1.058594.289062 1.953125 1 2.472657 1.964843 1.152343 2.050782.425781 4.644532-1.621094 5.800782l-16.980469 9.644531c-1.808594 1.132813-4.1875.6875-5.460937-1.023437-1.402344-1.585938-1.402344-3.964844 0-5.546876l.851562-.941406-13.054688 7.511719c-1.902343 1.117187-4.347656.601563-5.632812-1.195313-1.246094-1.804687-.953125-4.257812.683594-5.71875l2.988281-2.558593-16.386719 9.472656c-1.894531.972656-4.214844.402344-5.441406-1.339844-1.222656-1.742187-.976562-4.121093.578125-5.574219l17.066406-14.417968-37.035156 21.332031c-1.941406 1.15625-4.449219.59375-5.714844-1.28125-1.273437-1.847656-.859375-4.371094.9375-5.714844l30.71875-23.980469-53.503906 30.976563c-1.964844 1.140625-4.476563.539063-5.714844-1.367187-1.203125-1.925782-.71875-4.453126 1.109375-5.800782l33.277344-23.296875-53.160156 30.464844c-1.984375 1.195313-4.5625.589844-5.804688-1.367187-1.226562-1.9375-.699218-4.503907 1.195313-5.800782l37.035156-25.601562-56.066406 32.769531c-1.949219.933594-4.292969.257813-5.449219-1.574219-1.15625-1.828125-.757812-4.234375.929688-5.59375l58.621093-39.851562-81.492187 47.019531c-2.007813 1.179687-4.585938.535156-5.800782-1.453125-1.167968-1.96875-.609374-4.503906 1.277344-5.800781l53.761719-35.070313-73.386719 42.664063c-1.984375.996093-4.394531.304687-5.550781-1.585938-1.160156-1.890625-.675781-4.355469 1.113281-5.667969l50.089844-32.082031-68.265625 39.335938c-1.984375.996093-4.394531.304687-5.550781-1.585938-1.160156-1.890625-.675782-4.355469 1.113281-5.667969l49.40625-31.230468-66.644531 38.144531c-1.980469.992187-4.394532.304687-5.550782-1.589844-1.15625-1.890625-.671874-4.351562 1.113282-5.664062l63.0625-39.679688-81.410156 46.933594c-1.980469 1.171875-4.535157.523437-5.714844-1.453125-1.210938-1.960938-.644532-4.53125 1.277344-5.800781l135.085937-87.550781-164.269531 94.804687c-.636719.402344-1.378906.613281-2.132813.597656zm0 0" fill="#e4e8eb"/><path d="m10.265625 95.117188c-1.867187.015624-3.53125-1.1875-4.097656-2.96875-.566407-1.78125.089843-3.726563 1.625-4.796876l23.808593-17.066406c-1.566406-.429687-2.75-1.710937-3.058593-3.304687-.308594-1.589844.316406-3.222657 1.605469-4.203125l25.601562-19.457032-.511719-.511718c-1.25-1.773438-1.035156-4.191406.511719-5.714844l26.539062-24.664062c-.15625-1.535157.527344-3.035157 1.789063-3.925782l5.804687-3.328125c1.863282-1.082031 4.242188-.609375 5.546876 1.109375 1.289062 1.765625 1.070312 4.210938-.511719 5.71875l-5.972657 5.460938.9375-.511719c1.972657-1.09375 4.453126-.503906 5.71875 1.367187 1.207032 1.878907.761719 4.371094-1.027343 5.714844l-6.058594 4.695313 1.367187-.855469c1.96875-1.125 4.476563-.507812 5.703126 1.398438 1.226562 1.910156.746093 4.445312-1.09375 5.769531l-13.738282 10.242187 9.46875-5.378906c1.917969-1.039062 4.304688-.53125 5.632813 1.195312 1.285156 1.796876.992187 4.277344-.683594 5.71875l-22.269531 19.796876 17.066406-9.984376c1.882812-1.09375 4.285156-.59375 5.574219 1.15625 1.292969 1.753907 1.058593 4.195313-.539063 5.671876l-5.035156 4.605468c2.050781-1.148437 4.644531-.425781 5.800781 1.621094.585938.972656.75 2.132812.460938 3.226562-.289063 1.09375-1.007813 2.023438-1.996094 2.578126l-32.769531 19.027343c-1.863282 1.085938-4.242188.609375-5.542969-1.109375-1.253906-1.773437-1.035156-4.191406.511719-5.714844l5.03125-4.609374-20.050782 11.433593c-1.875.960938-4.164062.410157-5.398437-1.292969-1.234375-1.703124-1.042969-4.050781.449219-5.53125l22.441406-19.96875-46.507812 26.792969c-.636719.40625-1.378907.613281-2.132813.597657zm0 0" fill="#5e8faa"/><path d="m302.703125 504.71875c-1.476563.011719-2.859375-.726562-3.667969-1.960938-1.210937-1.964843-.644531-4.535156 1.28125-5.804687l54.695313-36.691406-73.8125 42.664062c-2.003907 1.179688-4.585938.535157-5.800781-1.449219-1.195313-1.984374-.589844-4.558593 1.363281-5.804687l17.066406-11.007813-22.699219 13.140626c-.960937.558593-2.101562.707031-3.175781.417968-1.074219-.285156-1.984375-.988281-2.539063-1.953125-1.167968-1.96875-.605468-4.503906 1.277344-5.800781l54.53125-35.15625-56.492187 32.59375c-1.980469.996094-4.394531.304688-5.550781-1.585938-1.15625-1.890624-.671876-4.355468 1.113281-5.664062l83.457031-54.957031-81.921875 47.273437c-1.980469.996094-4.394531.304688-5.550781-1.585937s-.671875-4.351563 1.113281-5.664063l28.332031-17.921875-25.171875 14.507813c-1.964843.847656-4.253906.113281-5.351562-1.722656-1.101563-1.832032-.675781-4.199219 1-5.53125l32.679687-20.90625-29.78125 17.066406c-.945312.585937-2.085937.761718-3.164062.488281-1.082032-.273437-2-.972656-2.550782-1.9375-1.167968-1.972656-.609374-4.507813 1.277344-5.804687l67.328125-43.265626-64.425781 37.207032c-2.027344 1.226562-4.664062.574218-5.886719-1.449219-1.226562-2.027344-.578125-4.664063 1.449219-5.890625l67.585938-43.347656-64.683594 37.289062c-1.296875.808594-2.925782.863282-4.273438.144532-1.347656-.714844-2.207031-2.097657-2.261718-3.625-.050782-1.527344.714843-2.964844 2.011718-3.773438l109.054688-72.277344-106.324219 61.867188c-1.980469.996094-4.394531.304687-5.550781-1.585938s-.671875-4.355468 1.113281-5.664062l84.394531-54.53125-81.75 47.191406c-1.980468.992188-4.394531.304688-5.550781-1.589844-1.15625-1.890625-.671875-4.351562 1.113281-5.664062l115.882813-76.800782-113.578125 65.28125c-2.003906 1.179688-4.585938.535157-5.800782-1.453124-1.203124-1.933594-.636718-4.476563 1.277344-5.714844l116.140625-76.800782-113.75 66.132813c-2.023437 1.152344-4.59375.472656-5.78125-1.53125-1.1875-2-.550781-4.585937 1.429688-5.808594l12.714843-7.847656-9.558593 5.460937c-1.980469 1.171876-4.535157.523438-5.714844-1.453124-1.207031-2.007813-.601563-4.613282 1.363281-5.886719l57.089844-36.09375-54.101562 30.972656c-2.007813 1.179687-4.589844.535156-5.804688-1.449219-1.164062-1.96875-.605469-4.507812 1.28125-5.800781l86.1875-56.832031-83.542969 48.296875c-2.011719 1.132812-4.558593.496093-5.800781-1.449219-1.167969-1.972656-.609375-4.507812 1.277344-5.804688l68.269531-45.226562-65.539063 37.71875c-1.984374 1.121094-4.503906.484375-5.714843-1.453125-.976563-1.949219-.355469-4.320313 1.449219-5.546875l26.453124-17.066406-23.296874 13.484375c-1.984376 1.125-4.503907.484375-5.714844-1.449219-1.183594-1.949219-.664063-4.480469 1.195312-5.804688l53.503906-37.289062-51.203124 29.269531c-1.957032 1.1875-4.503907.578125-5.714844-1.367187-1.230469-1.941406-.703125-4.503906 1.195312-5.800782l32.339844-22.613281-29.355469 17.066407c-1.96875 1.121093-4.476562.507812-5.703125-1.398438-1.226562-1.910156-.746094-4.445312 1.097656-5.769531l30.804688-23.554688-27.820312 16.128907c-1.957032 1.320312-4.609376.804687-5.929688-1.152344-1.320312-1.957032-.804688-4.609375 1.152344-5.929688l17.664062-13.652344-14.335937 8.53125c-2.027344 1.34375-4.757813.789063-6.101563-1.238281-1.34375-2.023437-.789062-4.757812 1.238282-6.097656l4.4375-3.5-.855469.511719c-1.878907 1.109375-4.292969.589844-5.546875-1.195313-1.359375-1.710937-1.136719-4.191406.511718-5.632812l3.671876-3.328125c-1.457032.75-3.210938.605468-4.519532-.378906-1.308594-.980469-1.9375-2.621094-1.625-4.226563l2.472656-12.203125c-1.554687-.554688-2.652343-1.953125-2.816406-3.597656-.167968-1.644532.632813-3.234375 2.050782-4.082032l4.265624-2.476562c1.402344-.898438 3.203126-.898438 4.605469 0 1.367188.996094 2.03125 2.695312 1.707031 4.351562l-2.046874 10.242188 25.601562-14.847656c1.910156-1.078125 4.324219-.566406 5.628906 1.195312 1.269532 1.78125 1.011719 4.230469-.59375 5.714844l-3.585937 3.242188 17.835937-9.984376c1.917969-1.144531 4.398438-.582031 5.632813 1.28125 1.300781 1.855469.925781 4.402344-.855469 5.804688l-4.523438 3.496094 18.433594-10.582032c1.917969-1.144531 4.398438-.582031 5.632813 1.28125 1.28125 1.875.867187 4.425782-.941407 5.804688l-17.578124 13.480469 36.011718-20.734375c1.910156-1.195313 4.425782-.625 5.632813 1.277344 1.308593 1.886718.851562 4.480468-1.023438 5.804687l-30.808593 23.039063 52.652343-30.035157c2.003907-1.273437 4.660157-.683593 5.929688 1.320313 1.273437 2.003906.679687 4.660156-1.320313 5.929687l-32.769531 22.53125 51.199219-29.78125c1.953125-.9375 4.296875-.261719 5.453125 1.570313 1.152343 1.832031.753906 4.234375-.929688 5.597656l-53.164062 37.289062 76.800781-44.457031c1.984375-.996093 4.394531-.304687 5.550781 1.585938 1.160157 1.890625.675781 4.351562-1.113281 5.664062l-26.28125 17.066407 42.238281-24.402344c2.015625-1.132813 4.5625-.496094 5.804688 1.449218 1.164062 1.96875.605469 4.507813-1.28125 5.804688l-68.265625 45.308594 90.964844-52.5625c1.980468-1.171875 4.535156-.523438 5.71875 1.449218 1.210937 1.960938.644531 4.53125-1.28125 5.804688l-85.675782 56.914062 110.933594-64.167968c1.980469-.996094 4.394531-.304688 5.550781 1.585937s.675781 4.355469-1.113281 5.667969l-57.085938 36.179688 58.109376-33.535157c2.007812-1.179687 4.589843-.535156 5.804687 1.449219.589844.957031.769531 2.113281.496094 3.207031-.273438 1.09375-.976563 2.027344-1.949219 2.597657l-12.714844 7.933593 7.9375-4.605469c2.007813-1.183593 4.585938-.535156 5.800782 1.449219 1.167968 1.96875.609374 4.503907-1.277344 5.800781l-116.140625 76.800782 109.226562-62.976563c.945313-.585937 2.089844-.761719 3.167969-.488281s2 .972656 2.550781 1.941406c1.210938 1.960938.644531 4.53125-1.28125 5.800782l-115.882812 76.800781 108.886719-62.890625c2.011718-1.132813 4.558593-.496094 5.800781 1.449218 1.175781 1.996094.621093 4.5625-1.277344 5.890626l-84.394531 54.527343 77.90625-45.054687c2.007812-1.183594 4.589844-.535156 5.804687 1.449218 1.164063 1.96875.605469 4.503907-1.28125 5.800782l-108.96875 72.023437 102.398438-58.964843c1.984375-.996094 4.394531-.304688 5.550781 1.585937 1.160156 1.890625.675781 4.355469-1.113281 5.667969l-67.582031 43.433594 61.351562-35.414063c1.984375-.992187 4.394531-.304687 5.554688 1.585937 1.15625 1.894532.671874 4.355469-1.117188 5.667969l-67.496094 43.433594 61.011719-35.15625c1.980469-1.171875 4.535156-.523437 5.71875 1.449219 1.195313 1.984375.589844 4.5625-1.367187 5.804687l-32.9375 20.820313 27.304687-15.785156c2.027344-1.226563 4.664063-.578126 5.890625 1.449218 1.222656 2.027344.574219 4.664063-1.453125 5.886719l-28.160156 17.75 22.273437-12.886719c2.011719-1.132812 4.558594-.492187 5.804688 1.453125 1.210937 1.960938.644531 4.53125-1.28125 5.800781l-83.710938 54.613282 76.796875-44.457032c2.027344-1.226562 4.664063-.574218 5.890625 1.449219 1.222656 2.027344.574219 4.664063-1.453125 5.890625l-54.441406 35.15625 48.300781-27.90625c2.03125-1.117187 4.585938-.441406 5.800782 1.539063 1.195312 1.984375.589843 4.558593-1.367188 5.800781l-17.066406 10.921875 11.4375-6.570313c1.980468-1.171874 4.535156-.523437 5.714844 1.453126 1.230468 1.9375.703124 4.503906-1.195313 5.800781l-54.78125 36.695312 48.46875-27.5625c1.957031-1.1875 4.507813-.582031 5.71875 1.363281 1.199219 1.929688.714844 4.453126-1.109375 5.804688l-56.832031 40.617188 49.917969-28.929688c1.984374-.992188 4.394531-.300781 5.550781 1.589844 1.160156 1.890625.675781 4.351562-1.113281 5.664062l-4.179688 2.816406c1.59375-.242187 3.191406.453126 4.09375 1.792969 1.265625 1.816407.933594 4.300781-.765625 5.71875l-36.867187 30.890625 29.527343-17.066406c1.808594-1.136719 4.1875-.691406 5.460938 1.023438 1.402343 1.582031 1.402343 3.960937 0 5.546874l-19.113281 20.476563 11.09375-6.398437c2.046874-1.179688 4.664062-.472657 5.84375 1.578124 1.179687 2.050782.472656 4.667969-1.578126 5.847657l-35.839843 20.648437c-1.808594 1.136719-4.1875.6875-5.460938-1.023437-1.402343-1.582031-1.402343-3.964844 0-5.546875l19.113281-20.480469-46.933593 27.136719c-1.902344 1.121094-4.347657.601562-5.632813-1.195313-1.265625-1.816406-.929687-4.296875.769532-5.714843l36.863281-30.636719-65.621094 37.546875c-2.003906 1.25-4.640625.636718-5.886719-1.363282-1.25-2.003906-.640625-4.640624 1.363282-5.890624l-12.800782 7.339843c-1.957031 1.1875-4.503906.578125-5.714844-1.367187-1.160156-1.933594-.683593-4.429688 1.109376-5.800782l56.832031-40.535156-82.519531 47.617188c-.640626.394531-1.378907.601562-2.132813.597656zm0 0" fill="#457393"/><path d="m322.332031 172.089844c-1.367187.007812-2.648437-.664063-3.414062-1.792969-1.289063-1.792969-.992188-4.273437.683593-5.71875l34.132813-29.351563-54.1875 31.230469c-1.929687 1.199219-4.457031.675781-5.753906-1.191406-1.296875-1.863281-.90625-4.414063.890625-5.804687l26.792968-22.1875-21.929687 12.628906c-1.902344 1.121094-4.347656.601562-5.632813-1.195313-1.265624-1.816406-.933593-4.296875.769532-5.714843l8.53125-7-3.328125 1.878906c-1.695313.957031-3.828125.644531-5.179688-.765625-1.347656-1.410157-1.566406-3.554688-.535156-5.207031l7.167969-11.179688c-1.867188.417969-3.796875-.40625-4.78125-2.046875-1.148438-2.050781-.425782-4.648437 1.621094-5.804687l13.910156-8.019532c1.699218-1.003906 3.871094-.683594 5.207031.765625 1.339844 1.417969 1.546875 3.558594.511719 5.207031l-6.996094 10.921876 29.4375-17.066407c1.902344-1.117187 4.347656-.601562 5.632812 1.195313 1.246094 1.804687.953126 4.253906-.683593 5.71875l-8.53125 6.996094 24.148437-13.910157c1.902344-1.117187 4.347656-.601562 5.632813 1.195313 1.265625 1.816406.929687 4.300781-.769531 5.71875l-26.625 22.183594 50.605468-29.183594c1.902344-1.117188 4.34375-.601563 5.628906 1.195312 1.246094 1.804688.953126 4.257813-.679687 5.71875l-34.132813 29.4375 50.6875-29.351562c1.277344-.839844 2.910157-.933594 4.277344-.242188 1.363282.691406 2.257813 2.054688 2.34375 3.582032.085938 1.53125-.648437 2.988281-1.929687 3.828124l-10.921875 8.53125 9.726562-5.632812c1.863282-1.085938 4.246094-.609375 5.546875 1.109375 1.453125 1.597656 1.453125 4.035156 0 5.632813l-19.027343 18.261718 14.078124-8.105468c1.65625-.941407 3.726563-.703126 5.121094.597656 1.367188 1.308594 1.679688 3.375.769532 5.03125l-6.574219 12.714844.769531-.511719c2.082031-1.109375 4.667969-.398438 5.886719 1.621093 1.152343 2.050782.425781 4.648438-1.621094 5.804688l-13.480469 7.851562c-1.660156.882813-3.699218.601563-5.058594-.699218-1.355468-1.296875-1.726562-3.324219-.914062-5.019532l6.65625-12.714843-32.597656 18.175781c-1.855469.949219-4.121094.425781-5.367188-1.242188-1.246094-1.667968-1.105468-3.992187.332032-5.5l18.941406-18.261718-43.433594 25.089844c-.925781.566406-2.042969.742187-3.097656.484374-1.058594-.257812-1.96875-.921874-2.535156-1.851562-.625-.890625-.867188-1.996094-.675782-3.070312.191406-1.074219.804688-2.023438 1.699219-2.644532l10.925781-8.535156-26.539062 15.359375c-.621094.472656-1.359375.765625-2.132813.855469zm0 0" fill="#457393"/><path d="m270.277344 214.585938c-1.835938 0-3.46875-1.175782-4.046875-2.917969-.582031-1.742188.019531-3.660157 1.488281-4.761719l7.335938-5.460938-21.757813 12.542969c-1.925781.898438-4.222656.242188-5.382813-1.539062-1.160156-1.78125-.828124-4.148438.773438-5.542969l6.484375-4.863281-20.648437 11.945312c-1.90625 1.117188-4.347657.601563-5.632813-1.195312-1.246094-1.804688-.953125-4.253907.683594-5.71875l24.40625-20.90625-38.742188 22.359375c-1.863281 1.085937-4.246093.609375-5.546875-1.109375-1.289062-1.765625-1.070312-4.210938.511719-5.71875l21.417969-20.308594-17.066406 9.898437c-1.6875.992188-3.832032.710938-5.207032-.683593-1.382812-1.351563-1.628906-3.484375-.59375-5.117188l8.53125-13.910156c-2.058594 1.03125-4.5625.285156-5.71875-1.707031-1.148437-2.050782-.425781-4.644532 1.621094-5.804688l13.910156-8.019531c1.660156-.980469 3.777344-.699219 5.121094.683594 1.367188 1.386719 1.644531 3.511719.683594 5.203125l-8.535156 13.910156 34.132812-19.882812c1.863281-1.085938 4.246094-.609376 5.546875 1.109374 1.300781 1.714844 1.117187 4.132813-.425781 5.632813l-21.503906 20.308594 47.019531-27.050781c1.875-1.109376 4.292969-.589844 5.546875 1.195312 1.285156 1.792969.988281 4.273438-.683594 5.71875l-24.320312 20.90625 48.214843-27.820312c1.957031-1.1875 4.503907-.578126 5.714844 1.367187 1.210937 1.878906.761719 4.371094-1.023437 5.714844l-6.398438 4.863281 20.648438-11.859375c1.941406-1.042969 4.359374-.433594 5.574218 1.402344 1.21875 1.835937.835938 4.296875-.878906 5.679687l-7.425781 5.460938 21.847656-12.542969c1.871094-.957031 4.164063-.410156 5.398437 1.292969 1.234376 1.703125 1.042969 4.050781-.449218 5.535156l-25.601563 22.613281 51.199219-29.441406c1.945312-1.15625 4.453125-.59375 5.71875 1.28125 1.226562 1.855469.820312 4.347656-.9375 5.714844l-18.433594 14.679687 37.546875-21.675781c1.894531-1.164063 4.371094-.640625 5.632813 1.195313 1.265625 1.816406.933594 4.296874-.769532 5.714843l-23.378906 19.457031 45.90625-26.453124c1.945313-1.15625 4.453125-.59375 5.71875 1.28125 1.21875 1.90625.773438 4.429687-1.023437 5.800781l-13.398438 10.242187 29.953125-17.066406c1.941406-1.15625 4.453125-.597656 5.71875 1.277344 1.269532 1.851562.855469 4.375-.941406 5.71875l-17.066406 13.652344 35.839844-20.648438c1.917968-1.148438 4.398437-.585938 5.632812 1.277344 1.203125 1.847656.839844 4.304687-.851562 5.71875l-21.25 17.066406 30.292968-17.066406c1.835938-.949219 4.082032-.445313 5.339844 1.1875 1.257812 1.636718 1.167969 3.9375-.21875 5.46875l-20.820312 20.820312 19.367187-11.261718c1.671875-1.007813 3.808594-.753907 5.199219.613281 1.386718 1.367187 1.671875 3.503906.691406 5.1875l-7.851562 13.996093 1.960937-1.109374c.972656-.585938 2.136719-.75 3.226563-.460938 1.09375.289062 2.023437 1.007812 2.578124 1.996094 1.171876 2.054687.492188 4.667968-1.535156 5.886718l-15.277344 8.535157c-1.644531.96875-3.738281.726562-5.117187-.597657-1.382813-1.339843-1.695313-3.4375-.769531-5.121093l7.765625-14.078125-34.132813 19.796875c-1.863281 1.085937-4.246094.609375-5.546875-1.109375-1.402343-1.582032-1.402343-3.964844 0-5.546875l20.820313-20.738281-47.53125 27.308593c-1.917969 1.144531-4.398438.582031-5.628906-1.28125-1.269532-1.816406-.933594-4.296875.765624-5.714843l21.335938-17.066407-42.667969 24.402344c-1.25.839844-2.851562.949219-4.203125.285156-1.351562-.664062-2.246094-2-2.347656-3.5s.605469-2.941406 1.855469-3.78125l17.066406-13.652343-35.839844 20.648437c-1.910156 1.195313-4.425781.625-5.628906-1.277344-1.285156-1.878906-.871094-4.429687.9375-5.804687l13.398437-10.152344-29.953124 17.066406c-1.898438 1.160156-4.371094.636719-5.632813-1.195312-1.265625-1.816406-.933594-4.300782.769531-5.71875l23.210938-19.539063-45.910156 26.453125c-1.910157 1.191406-4.425782.621094-5.632813-1.28125-1.289063-1.828125-.914063-4.347656.855469-5.71875l18.769531-14.847656-37.542969 21.675781c-1.875.957031-4.164062.410157-5.398437-1.292969-1.238281-1.703124-1.046875-4.050781.449219-5.535156l25.425781-22.1875-51.199219 29.441406c-.496094.15625-1.015625.214844-1.535156.171876zm0 0" fill="#5e8faa"/></g><path d="m508.355469 175.589844c.042969-.257813.042969-.515625 0-.769532-6.996094-25.601562-51.199219-24.746093-85.332031-22.015624v-29.183594c-2.984376-18.773438-18.515626-17.75-33.363282-17.75h-34.816406v-83.03125c.042969-.28125.042969-.570313 0-.851563-7.339844-27.136719-37.804688-20.054687-59.734375-20.054687h-147.457031c-16.46875 0-40.789063-4.523438-57 1.707031h-.769532c-1.015624.347656-2.011718.746094-2.988281 1.195313-13.308593 7.253906-25.597656 25.601562-36.351562 36.351562-13.566407 13.140625-35.414063 28.332031-45.3125 44.886719-.21875.554687-.476563 1.097656-.765625 1.621093l-2.21875 2.21875c-1.453125 1.449219-1.453125 2.472657-.769532 3.15625-.015624.40625.179688.792969.511719 1.023438-3.839843 13.570312-.9375 30.464844-.9375 44.542969v268.972656c0 20.992187-3.414062 40.960937 21.929688 46.507813 34.132812 7.421874 78.167969 0 113.066406 0h112.898437c3.753907 23.039062 10.578126 43.433593 24.402344 49.234374 18.433594 7.683594 47.363282 2.136719 66.390625 2.136719 28.160157 0 59.734375 4.179688 87.636719 0 44.800781-6.742187 37.632812-70.574219 41.644531-104.707031 7.28125-61.949219 14.5625-123.902344 21.84375-185.855469 21.335938-5.203125 17.578125-18.773437 17.578125-38.996093 0-.085938-.085937-.171876-.085937-.339844zm-97.621094-48.726563v26.964844c-7.765625.597656-14.417969 1.195313-19.285156 1.195313h-87.890625c0-5.121094-1.195313-11.007813-1.453125-17.066407 0-4.269531.511719-8.535156.941406-11.4375.144531-.695312.347656-1.378906.597656-2.046875 7.25-17.066406 29.949219-12.03125 44.457031-12.03125 2.472657-.179687 4.746094-1.425781 6.230469-3.414062 23.039063-.851563 53.160157-1.621094 56.402344 17.835937zm-324.265625-49.835937c-4.265625 15.871094-28.332031 10.324218-40.703125 10.324218h-28.074219l1.023438-1.449218 56.832031-57.003906c3.753906-3.328126 7.339844-6.65625 10.667969-9.984376v21.675782c1.421875 12.105468 1.394531 24.339844-.085938 36.4375zm142.679688 367.871094h-100.523438c-29.355469 0-63.148438 4.523437-92.246094 0-19.96875-3.070313-22.871094-12.457032-22.871094-31.570313v-290.136719c-.464843-9.570312-.09375-19.164062 1.109376-28.671875h34.5625c12.714843 0 29.78125 2.816407 40.617187-5.375 10.835937-8.191406 9.046875-25.597656 9.046875-38.570312v-40.277344c12.390625-.726563 24.8125-.726563 37.203125 0h121.34375c18.007813 0 77.910156-11.09375 85.335937 13.996094 0 20.820312 7.847657 60.246093.679688 79.699219-2.308594-.046876-4.617188-.21875-6.910156-.511719-6.601563-.851563-13.28125-.851563-19.882813 0-8.804687.253906-16.980469 4.613281-22.101562 11.777343-1.859375 3.140626-2.945313 6.679688-3.15625 10.324219-1.238281 9.746094-1.238281 19.609375 0 29.355469h-5.972657c-16.664062-1.3125-33.394531-1.597656-50.09375-.855469-10.453124-.476562-20.429687 4.414063-26.453124 12.972657-4.15625 6.695312-5.761719 14.660156-4.519532 22.441406-.128906 7.632812 3.15625 14.921875 8.957032 19.882812 1.488281 1.9375 3.113281 3.761719 4.863281 5.460938 6.914062 6.742187 1.109375-6.3125 5.890625 3.160156l3.839844 33.023438 11.945312 101.289062c2.476562 20.566406.855469 52.90625 6.402344 75.949219.511718 5.714843 1.109375 11.605469 1.789062 17.066406-6.65625.339844-13.394531-.429687-18.855468-.429687zm226.472656-35.753907c-2.816406 23.808594 1.878906 76.800781-27.476563 86.785157-10.921875 3.753906-30.039062 0-41.386719 0h-69.460937c-19.796875 0-39.9375 3.582031-50.519531-19.457032-2.632813-9.203125-3.8125-18.761718-3.496094-28.332031-9.046875-77.425781-18.148438-154.820313-27.308594-232.191406 49.066406 3.925781 100.183594.855469 149.847656 0h40.53125c17.015626 1.644531 34.117188 2.15625 51.199219 1.539062-7.109375 63.65625-14.449219 127.542969-22.015625 191.65625zm28.332031-203.347656h-254.804687c-11.265626-.511719-13.058594-14.761719-10.839844-24.066406 3.15625-12.882813 8.960937-15.527344 20.992187-17.832031h1.964844c1.300781.164062 2.621094.164062 3.921875 0 5.207031-.683594 10.582031-1.023438 16.042969-1.28125 12.035156 0 24.578125 1.535156 35.671875 1.535156 1.265625-.074219 2.496094-.453125 3.582031-1.109375 10.410156.425781 20.738281.855469 30.636719.855469h101.714844c17.066406 0 56.664062-8.535157 63.148437 14.164062 0 21.332031-.257813 26.539062-12.117187 27.734375zm0 0" fill="#262626"/><path d="m350.917969 262.542969v187.734375c0 5.289062 12.457031 2.730468 12.457031-1.539063v-187.730469c0-5.292968-12.457031-2.730468-12.457031 1.535157zm0 0" fill="#262626" fill-rule="evenodd"/><path d="m282.734375 263.394531c5.691406 62.578125 11.378906 125.15625 17.066406 187.734375 0 1.964844 12.632813 0 12.289063-3.242187-5.6875-62.578125-11.378906-125.15625-17.066406-187.734375-.171876-1.960938-12.628907.257812-12.289063 3.242187zm0 0" fill="#262626" fill-rule="evenodd"/><path d="m419.183594 262.371094c-5.6875 62.578125-11.378906 125.15625-17.066406 187.734375-.511719 5.71875 12.03125 3.582031 12.457031-1.195313 5.691406-62.578125 11.378906-125.15625 17.070312-187.734375.511719-5.714843-12.035156-3.582031-12.460937 1.195313zm0 0" fill="#262626" fill-rule="evenodd"/></svg>