<svg height="506pt" viewBox="-99 0 506 506.31397" width="506pt" xmlns="http://www.w3.org/2000/svg"><path d="m71.1875 504.835938c-1.796875.003906-3.40625-1.125-4.019531-2.816407-.613281-1.691406-.09375-3.585937 1.289062-4.734375l1.546875-1.28125-14.300781 8.25c-1.90625 1.078125-4.316406.542969-5.582031-1.242187-1.265625-1.78125-.980469-4.234375.664062-5.675781l23.269532-19.984376-46.230469 26.683594c-1.929688 1.089844-4.371094.523438-5.621094-1.304687-1.253906-1.828125-.898437-4.308594.816406-5.710938l42.359375-33.996093-52.054687 30.054687c-1.945313 1.101563-4.410157.511719-5.652344-1.347656-1.238281-1.863281-.832031-4.363281.933594-5.734375l47.871093-36.585938-44.6875 25.804688c-1.972656 1.140625-4.496093.527344-5.722656-1.390625-1.230468-1.917969-.734375-4.464844 1.121094-5.785157l26.957031-19.105468-22.355469 12.902344c-1.953124 1.117187-4.4375.53125-5.679687-1.347657-1.242187-1.875-.8125-4.390625.976563-5.75l46.472656-35.074219-41.8125 24.117188c-1.980469 1.085938-4.464844.4375-5.667969-1.476562-1.199219-1.917969-.695313-4.433594 1.144531-5.742188l3.414063-2.289062c-2.007813.5-4.089844-.515626-4.929688-2.40625-.839843-1.894532-.203125-4.117188 1.515625-5.273438l6.777344-4.617188-2.246094 1.289063c-1.964844 1.148437-4.484375.550781-5.726562-1.355469-1.238282-1.90625-.765625-4.453125 1.078125-5.785156l36.640625-26.667969-31.957032 18.472657c-1.957031 1.160156-4.476562.578124-5.730468-1.316407s-.800782-4.441406 1.027344-5.789062l45.226562-33.902344-40.523438 23.371094c-1.984374 1.152343-4.523437.535156-5.75-1.402344-1.226562-1.9375-.703124-4.5 1.183594-5.800781l16.101563-11.125-11.535157 6.664062c-1.96875 1.140625-4.488281.535156-5.722656-1.375-1.238281-1.914062-.753906-4.460937 1.097656-5.785156l31.984376-22.964844-27.359376 15.78125c-1.96875 1.109375-4.460937.496094-5.683593-1.402344-1.226563-1.902343-.757813-4.425781 1.066406-5.757812l30.984375-22.1875-26.367188 15.214844c-1.988281 1.175781-4.546874.558594-5.78125-1.390625-1.234374-1.953125-.691406-4.53125 1.222657-5.820313l14.117187-9.703125-9.53125 5.503907c-1.976562 1.140624-4.496094.527343-5.726562-1.394532-1.226563-1.917968-.734375-4.464844 1.125-5.78125l26.847656-19.011718-22.246094 12.800781c-1.984375 1.085937-4.46875.4375-5.667968-1.476563-1.199219-1.914062-.699219-4.433594 1.144531-5.742187l3.335937-2.261719c-2 .464844-4.046875-.5625-4.871094-2.441406-.828124-1.882813-.195312-4.082032 1.5-5.238282l15.292969-10.582031-10.734375 6.203125c-1.976562 1.136719-4.496094.523438-5.726562-1.394531-1.226563-1.917969-.734375-4.464844 1.125-5.78125l26.898437-19.046875-22.324219 12.910156c-1.949218 1.109375-4.425781.519532-5.664062-1.347656-1.242188-1.867188-.824219-4.375.953125-5.742188l47.546875-36.039062-42.84375 24.75c-1.945312 1.097656-4.414062.511719-5.652344-1.347656-1.242187-1.863282-.832031-4.363282.933594-5.738282l48.921875-37.289062-44.203125 25.515625c-1.984375 1.085937-4.46875.4375-5.667969-1.476563-1.199219-1.914062-.699219-4.433593 1.144531-5.742187l5.402344-3.671875-.855468.503906c-1.980469 1.132813-4.507813.503906-5.726563-1.425781-1.21875-1.933594-.699219-4.484375 1.179687-5.785156l11.714844-8.046875-7.167968 4.140625c-1.941407 1.09375-4.398438.503906-5.640626-1.347657-1.238281-1.855468-.839843-4.351562.914063-5.726562l50.671875-38.964844-45.945312 26.523438c-1.949219 1.09375-4.414063.496094-5.644532-1.367188-1.234375-1.867187-.820312-4.367187.953125-5.734375l45.378907-34.082031-40.710938 23.40625c-1.945312 1.09375-4.402344.507812-5.640625-1.347656-1.238281-1.851563-.839844-4.347656.914063-5.726563l49.960937-38.277343-45.226563 26.109374c-1.953124 1.105469-4.425781.507813-5.660156-1.367187-1.234375-1.871094-.808594-4.378906.976563-5.742187l43.808593-32.699219-39.132812 22.613281c-1.96875 1.128906-4.472656.523438-5.707031-1.378906-1.230469-1.902344-.761719-4.4375 1.074219-5.769532l34.761718-25.15625-30.128906 17.390626c-1.988281 1.152343-4.53125.523437-5.753906-1.417969-1.222656-1.945313-.6875-4.511719 1.214844-5.800781l9.847656-6.734376-5.308594 3.0625c-1.972656 1.125-4.476562.511719-5.703125-1.398437-1.226563-1.90625-.746094-4.441406 1.09375-5.769531l29.082031-20.71875-24.472656 14.125c-1.976562 1.101562-4.472656.472656-5.683594-1.441406-1.214844-1.910157-.722656-4.433594 1.117188-5.753907l17.921875-12.433593-13.339844 7.679687c-1.976563 1.105469-4.46875.472656-5.683594-1.4375-1.210937-1.910156-.722656-4.4375 1.117188-5.753906l18.195312-12.648438-13.652343 7.867188c-1.957032 1.128906-4.453126.539062-5.695313-1.34375-1.242187-1.882813-.804687-4.410157 1-5.761719l42.566406-31.847656-37.863281 21.878906c-1.96875 1.128906-4.472656.523438-5.707031-1.378906-1.230469-1.902344-.761719-4.4375 1.074219-5.769532l23.832031-17.238281-19.199219 11.09375c-1.949219 1.085938-4.402344.488281-5.636719-1.367187-1.230469-1.859375-.824219-4.355469.933594-5.726563l16.476563-12.414062-11.773438 6.824219c-1.851562 1.019531-4.167969.527343-5.445312-1.148438-1.28125-1.679688-1.144532-4.039062.324218-5.558594l18.695313-18.695312-13.539063 7.816406c-1.726562.988281-3.902344.65625-5.253906-.804688-1.347656-1.457031-1.515625-3.652343-.398438-5.296874l6.316407-9.222657c-1.628907.125-3.183594-.703125-3.984375-2.125-1.171875-2.039062-.476563-4.644531 1.558594-5.820312l13.851562-8.074219c1.726562-1.003906 3.917969-.675781 5.273438.792969 1.359374 1.464843 1.515624 3.675781.382812 5.316406l-5.757812 8.390625 25.324218-14.59375c1.851563-1.015625 4.167969-.527344 5.449219 1.152344 1.28125 1.675781 1.140625 4.039062-.328125 5.554687l-18.679688 18.671875 44.03125-25.378906c1.953126-1.09375 4.414063-.496094 5.648438 1.371094 1.234375 1.863281.816406 4.363281-.953125 5.730468l-16.460937 12.382813 30.925781-17.851563c1.964843-1.128906 4.46875-.523437 5.703125 1.378907 1.234375 1.902343.761718 4.4375-1.070313 5.769531l-23.792969 17.210938 27.929688-16.125c1.953125-1.105469 4.429688-.507813 5.660156 1.367187 1.234375 1.871094.808594 4.378906-.972656 5.738281l-42.566406 31.855469 39.757812-22.953125c1.976563-1.105469 4.472656-.472656 5.683594 1.4375 1.214844 1.910156.722656 4.4375-1.117188 5.753906l-18.195312 12.648438 13.65625-7.867188c1.980469-1.15625 4.519531-.535156 5.746094 1.402344 1.230468 1.9375.707031 4.5-1.183594 5.796875l-17.917969 12.433594 13.335938-7.679688c1.964843-1.085937 4.4375-.460937 5.652343 1.425781 1.214844 1.886719.757813 4.394532-1.042968 5.734376l-29.089844 20.695312 24.472656-14.117188c1.988282-1.152343 4.53125-.523437 5.753906 1.421876 1.222657 1.945312.6875 4.507812-1.214843 5.796874l-9.914063 6.828126 5.375-3.105469c1.964844-1.128907 4.472656-.523438 5.703125 1.378906 1.234375 1.902344.765625 4.4375-1.070312 5.773437l-34.765625 25.15625 30.132812-17.390624c1.953125-1.105469 4.425782-.507813 5.660156 1.367187 1.234376 1.871094.808594 4.378906-.976562 5.738281l-43.808594 32.699219 39.125-22.621094c1.941406-1.09375 4.402344-.503906 5.640625 1.347657 1.238281 1.855468.839844 4.351562-.914062 5.726562l-49.960938 38.28125 45.226563-26.105469c1.949218-1.117187 4.4375-.527343 5.675781 1.347657 1.242187 1.875.816406 4.394531-.972656 5.753906l-45.382813 34.082031 40.6875-23.484375c1.945313-1.117188 4.421875-.535156 5.667969 1.328125 1.25 1.863281.839844 4.375-.933594 5.746094l-50.652343 38.945312 45.917968-26.511719c1.984375-1.132812 4.507813-.503906 5.726563 1.429688 1.21875 1.929688.699219 4.480469-1.179688 5.78125l-11.714843 8.039062 7.167968-4.132812c1.984375-1.113281 4.496094-.476562 5.707032 1.453125 1.207031 1.925781.691406 4.464844-1.175782 5.769531l-5.488281 3.726563.957031-.546875c1.945313-1.097656 4.414063-.511719 5.652344 1.347656 1.238281 1.863281.832031 4.363281-.933594 5.738281l-48.914062 37.304688 44.195312-25.523438c1.953125-1.144531 4.460938-.5625 5.714844 1.324219 1.25 1.886719.808594 4.421875-1.003906 5.777344l-47.546875 36.027344 42.828125-24.746094c1.972656-1.136719 4.492187-.523438 5.722656 1.394531s.734375 4.464844-1.125 5.78125l-26.863281 19.019531 22.273437-12.847656c1.980469-1.121094 4.488282-.488281 5.703125 1.433594 1.214844 1.917968.710938 4.457031-1.144531 5.765625l-15.363281 10.617187 10.804687-6.230468c1.980469-1.0625 4.441406-.40625 5.632813 1.5 1.191406 1.902343.703125 4.40625-1.117188 5.71875l-3.320312 2.246093c2.007812-.5 4.089843.511719 4.929687 2.40625s.203125 4.117188-1.515625 5.273438l-26.90625 19.054687 22.304688-12.867187c1.984375-1.136719 4.507812-.503907 5.726562 1.425781 1.21875 1.933594.699219 4.480469-1.175781 5.785156l-14.023438 9.667969 9.472657-5.472656c1.96875-1.109375 4.460937-.496094 5.6875 1.402343 1.222656 1.902344.753906 4.425782-1.070313 5.757813l-31.027344 22.1875 26.410157-15.242187c1.96875-1.109376 4.460937-.496094 5.6875 1.402343 1.222656 1.902344.753906 4.425781-1.070313 5.757813l-31.929687 22.945312 27.304687-15.769531c1.980469-1.117187 4.488282-.484375 5.703125 1.4375 1.214844 1.917969.710938 4.457031-1.144531 5.765625l-16.164062 11.1875 11.605468-6.699219c1.953125-1.128906 4.449219-.539062 5.691406 1.34375 1.246094 1.886719.808594 4.410157-.996093 5.765625l-45.230469 33.910156 40.5-23.378906c1.964844-1.117187 4.457031-.511718 5.6875 1.382813s.773438 4.417969-1.042969 5.757812l-36.601562 26.632813 31.957031-18.441406c1.984375-1.113282 4.496094-.476563 5.707031 1.453124 1.210938 1.925782.691407 4.464844-1.175781 5.765626l-6.824219 4.675781 2.328125-1.335938c1.980469-1.0625 4.441406-.40625 5.632813 1.496094 1.191406 1.90625.703125 4.40625-1.117188 5.722656l-3.355469 2.269531c1.96875-.46875 3.996094.507813 4.851563 2.339844.859375 1.835938.3125 4.015625-1.308594 5.226563l-46.5 35.082031 41.8125-24.132812c1.976563-1.136719 4.496094-.523438 5.726563 1.394531 1.226562 1.917969.734375 4.464843-1.125 5.78125l-26.972656 19.097656 22.347656-12.902344c1.945312-1.101562 4.410156-.511719 5.652344 1.347657 1.238281 1.863281.832031 4.363281-.933594 5.734374l-47.855469 36.574219 43.136719-24.890625c1.925781-1.089844 4.367187-.523437 5.621094 1.304688 1.25 1.824218.894531 4.308594-.816407 5.710937l-42.367187 33.996094 37.542968-21.683594c1.910157-1.097656 4.339844-.566406 5.613282 1.230469 1.269531 1.792969.96875 4.261719-.695313 5.699219l-23.253906 19.960937 18.335937-10.582031c1.921876-1.128906 4.390626-.589844 5.664063 1.238281s.925781 4.328125-.796875 5.742188l-3.203125 2.644531c1.355469-.132813 2.691406.371094 3.621094 1.363281 1.351562 1.480469 1.492187 3.695313.339843 5.335938l-5.972656 8.488281c1.921875.023437 3.589844 1.328125 4.078125 3.1875.484375 1.859375-.332031 3.816406-1.996093 4.777344l-13.773438 7.949219c-1.734375 1.003906-3.933594.667968-5.285156-.8125-1.351563-1.480469-1.492188-3.699219-.339844-5.339844l5.121094-7.3125-23.527344 13.578125c-.640625.390625-1.375.597656-2.125.605469zm0 0" fill="#9ed26a"/><path d="m244.917969 504.835938c-1.757813 0-3.335938-1.082032-3.972657-2.722657-.636718-1.640625-.199218-3.503906 1.097657-4.691406l25.328125-23.109375-51.585938 29.78125c-1.953125 1.144531-4.460937.566406-5.710937-1.320312-1.253907-1.890626-.8125-4.425782 1.003906-5.78125l30.410156-22.960938-39.066406 22.519531c-1.96875 1.125-4.476563.507813-5.703125-1.398437-1.226562-1.910156-.742188-4.445313 1.097656-5.769532l25.402344-18.058593-23.695312 13.65625c-1.976563 1.085937-4.460938.449219-5.667969-1.460938-1.203125-1.910156-.714844-4.425781 1.117187-5.742187l13.65625-9.386719-9.089844 5.238281c-1.957031 1.121094-4.453124.523438-5.691406-1.363281-1.234375-1.890625-.789062-4.414063 1.023438-5.761719l40.839844-30.148437-36.1875 20.941406c-1.953126 1.101563-4.425782.503906-5.660157-1.367187-1.234375-1.871094-.808593-4.382813.972657-5.742188l43.835937-32.714844-39.148437 22.5625c-1.984376 1.113282-4.496094.476563-5.707032-1.453125-1.210937-1.925781-.691406-4.464843 1.175782-5.765625l5.714843-3.882812-1.183593.671875c-1.949219 1.109375-4.425782.519531-5.664063-1.347657-1.242187-1.867187-.824219-4.375.953125-5.742187l48.007812-36.457031-43.296874 24.988281c-1.980469 1.117187-4.488282.484375-5.703126-1.433594-1.21875-1.921875-.710937-4.460937 1.144532-5.769531l13.902344-9.574219-9.34375 5.394531c-1.980469 1.117188-4.488282.484376-5.703126-1.433593-1.21875-1.921875-.710937-4.460938 1.144532-5.769531l15.265625-10.554688-10.71875 6.183594c-1.980469 1.117187-4.492188.480468-5.703125-1.449219-1.210938-1.929687-.695313-4.464844 1.175781-5.769531l6.023437-4.09375-1.496093.851562c-1.953125 1.074219-4.40625.460938-5.625-1.40625-1.21875-1.867187-.792969-4.359375.976562-5.71875l38.398438-28.089844-33.714844 19.464844c-1.964844 1.109375-4.460937.496094-5.683594-1.402344-1.226562-1.902343-.757812-4.425781 1.066407-5.757812l30.722656-21.957031-26.078125 15.042969c-1.96875 1.128906-4.472657.523437-5.707031-1.378907-1.230469-1.902343-.761719-4.4375 1.074218-5.769531l34.464844-24.910156-29.867188 17.210937c-1.960937 1.136719-4.46875.539063-5.707031-1.355469-1.242187-1.902343-.777343-4.441406 1.054688-5.777343l38.34375-28.058594-33.691407 19.4375c-1.941406 1.09375-4.402343.507813-5.640624-1.347656-1.238282-1.851563-.839844-4.347657.914062-5.726563l50.601562-38.894531-45.875 26.453125c-1.976562 1.078125-4.453124.429688-5.648437-1.476562-1.199219-1.90625-.710937-4.417969 1.117187-5.730469l6.5625-4.472657-2.03125 1.167969c-1.953124 1.101563-4.425781.503907-5.660156-1.367187s-.808594-4.382813.976563-5.742188l43.84375-32.691406-39.1875 22.613281c-1.945313 1.089844-4.402344.492188-5.632813-1.367187-1.234375-1.859375-.824218-4.351563.933594-5.722656l46.933594-35.488282-42.242188 24.378906c-1.972656 1.089844-4.453125.460938-5.664062-1.441406-1.210938-1.902344-.734375-4.417968 1.089844-5.746094l19.421874-13.523437-14.847656 8.535156c-1.941406 1.089844-4.398437.503907-5.640625-1.347656-1.238281-1.855469-.839843-4.351563.914063-5.726563l50.738281-39.035156-46.003906 26.566406c-1.949219 1.09375-4.414063.496094-5.644531-1.367187-1.234376-1.867187-.816407-4.367187.953124-5.734375l46.429688-34.984375-41.738281 24.082031c-1.984375 1.097656-4.480469.449219-5.683594-1.472656-1.203125-1.925781-.6875-4.457031 1.171875-5.757812l3.148438-2.113282c-1.675782.289063-3.363282-.429687-4.316407-1.835937-1.277343-1.882813-.855469-4.433594.960938-5.804688l49.265625-37.628906-44.546875 25.683594c-1.953125 1.113281-4.4375.515625-5.671875-1.367188-1.234375-1.878906-.800782-4.394531.996094-5.75l41.492187-30.71875-36.816406 21.246094c-1.980469 1.15625-4.519531.535156-5.746094-1.402344-1.230469-1.9375-.707031-4.5 1.183594-5.796875l17.3125-12.007812-12.75 7.355468c-1.945313 1.085938-4.402344.492188-5.632813-1.367187-1.234375-1.859375-.824218-4.351563.933594-5.722656l47.292969-35.839844-42.59375 24.582031c-1.96875 1.125-4.472657.511719-5.699219-1.398437-1.230469-1.90625-.746094-4.441407 1.09375-5.769531l28.722656-20.480469-24.117187 13.917969c-1.941407 1.09375-4.398438.507812-5.636719-1.347657-1.242188-1.851562-.84375-4.347656.910156-5.726562l50.347656-38.664063-45.621093 26.472656c-1.984375 1.132813-4.515625.496094-5.726563-1.445312-1.214844-1.941406-.683594-4.492188 1.207032-5.785156l3.839843-2.558594c-1.992187.730469-4.21875-.113281-5.222656-1.980469-1.007813-1.867187-.492187-4.1875 1.210937-5.453125l36.746094-27.492187-32.054687 18.464843c-1.96875 1.109376-4.464844.484376-5.683594-1.421874-1.21875-1.902344-.738281-4.429688 1.09375-5.753907l4.667969-3.304687h-.078125c-1.902344 1.082031-4.320313.542968-5.585938-1.246094-1.265625-1.785156-.972656-4.242188.679688-5.679688l19.59375-16.710937-14.6875 8.472656c-1.90625 1.105469-4.34375.570313-5.617188-1.230469-1.269531-1.796874-.964843-4.273437.710938-5.707031l3.328125-2.847656c-1.414063.171875-2.824219-.359375-3.769532-1.425781-1.335937-1.535156-1.398437-3.800782-.15625-5.410156l4.953126-6.390626c-1.71875-.382812-3.023438-1.78125-3.289063-3.519531s.5625-3.460937 2.082031-4.339843l13.886719-8.023438c1.765625-1.023438 4.007813-.652344 5.351563.882812 1.34375 1.539063 1.410156 3.8125.160156 5.425782l-3.125 4.027344 18.09375-10.429688c1.902344-1.078125 4.320312-.539062 5.585937 1.246094 1.265625 1.789062.972657 4.246094-.679687 5.683594l-2.023438 1.707031 15.035156-8.636719c1.90625-1.078125 4.320313-.539062 5.585938 1.246094 1.265625 1.789062.972656 4.246094-.679688 5.683594l-19.625 16.75 41.0625-23.679688c1.972657-1.105469 4.464844-.484375 5.683594 1.421875s.738282 4.429687-1.09375 5.757813l-4.667968 3.292968 13.109374-7.585937c1.953126-1.128907 4.449219-.539063 5.691407 1.34375 1.242187 1.882812.804687 4.410156-1 5.761719l-36.691407 27.46875 39.207032-22.636719c1.992187-1.179688 4.5625-.558594 5.792968 1.402343 1.226563 1.960938.667969 4.546876-1.261718 5.824219l-3.496094 2.363281c1.984375-.859374 4.296875-.101562 5.386719 1.765626 1.085937 1.867187.605469 4.257812-1.121094 5.558593l-50.347656 38.671875 45.570312-26.34375c1.96875-1.125 4.476563-.507812 5.703125 1.398438 1.226563 1.910156.746094 4.445312-1.097656 5.769531l-28.773438 20.445313 24.167969-13.917969c1.945313-1.085938 4.402344-.488281 5.632813 1.371093 1.234375 1.855469.828125 4.351563-.933594 5.722657l-47.289062 35.839843 42.589843-24.578124c1.976563-1.101563 4.46875-.472657 5.683594 1.441406 1.210937 1.910156.722656 4.4375-1.121094 5.753906l-17.253906 11.945312 12.691406-7.363281c1.960938-1.152343 4.480469-.5625 5.726563 1.339844 1.246094 1.898437.785156 4.445313-1.050782 5.785156l-41.488281 30.71875 36.8125-21.246093c1.945313-1.101563 4.410157-.511719 5.652344 1.347656 1.238281 1.859375.832031 4.363281-.933594 5.734375l-49.265625 37.667969 44.597656-25.746094c1.992188-1.15625 4.539063-.519532 5.757813 1.433594 1.21875 1.953124.667969 4.519531-1.246094 5.800781l-3.148437 2.117187c1.679687-.28125 3.367187.4375 4.328125 1.84375 1.246093 1.882813.808593 4.414063-1 5.769532l-46.429688 34.984374 41.738281-24.078124c1.941407-1.09375 4.402344-.507813 5.640626 1.347656 1.238281 1.851562.839843 4.347656-.914063 5.726562l-50.738281 39.019532 46.011718-26.554688c1.976563-1.136719 4.5-.511719 5.722657 1.410156 1.226562 1.925782.71875 4.472656-1.148438 5.785156l-19.421875 13.523438 14.847656-8.53125c1.945313-1.089844 4.402344-.492188 5.632813 1.367188 1.234375 1.859374.828125 4.351562-.929687 5.722656l-46.933594 35.488281 42.238281-24.378906c1.953125-1.101563 4.425781-.503907 5.660156 1.367187 1.234375 1.875.808594 4.382813-.976562 5.742188l-43.835938 32.71875 39.152344-22.597656c1.984375-1.117188 4.496094-.476563 5.707031 1.449218 1.207032 1.929688.691406 4.46875-1.175781 5.769532l-6.5625 4.460937 2.03125-1.167969c1.949219-1.125 4.433594-.542968 5.683594 1.328125 1.25 1.871094.832031 4.386719-.957031 5.753907l-50.601563 38.894531 45.875-26.453125c1.960937-1.105469 4.441406-.5 5.671875 1.386718 1.230469 1.886719.78125 4.402344-1.019531 5.75l-38.402344 28.082032 33.714844-19.464844c1.96875-1.128906 4.472656-.523438 5.707031 1.378906 1.230469 1.902344.761719 4.4375-1.074219 5.773438l-34.464843 24.917968 29.867187-17.214843c1.960937-1.074219 4.421875-.453125 5.636719 1.425781 1.214844 1.882812.769531 4.382812-1.019532 5.726562l-30.652343 21.929688 26.035156-15.027344c1.960937-1.105468 4.441406-.5 5.671875 1.386719s.78125 4.402344-1.019531 5.75l-38.402344 28.15625 33.75-19.480469c1.976563-1.074218 4.453125-.425781 5.648437 1.480469 1.199219 1.90625.710938 4.414063-1.117187 5.730469l-5.972656 4.054687 1.414062-.855469c1.980469-1.117187 4.488281-.484374 5.707031 1.433594 1.214844 1.921875.710938 4.460938-1.148437 5.769532l-15.300781 10.574218 10.742187-6.195312c1.980469-1.117188 4.488281-.488282 5.707031 1.433594 1.214844 1.921874.710938 4.457031-1.148437 5.765624l-13.832031 9.535157 9.273437-5.351563c1.949219-1.109375 4.425781-.519531 5.667969 1.347656 1.238281 1.867188.824219 4.375-.957031 5.742188l-48.007813 36.457031 43.273438-24.996093c1.976562-1.074219 4.449218-.425782 5.648437 1.480468s.710938 4.414063-1.117187 5.730469l-5.792969 3.941406 1.261719-.722656c1.953125-1.105469 4.425781-.507813 5.660156 1.367187 1.234375 1.871094.808594 4.378907-.976562 5.738282l-43.800782 32.699218 39.117188-22.578124c1.957031-1.121094 4.453125-.523438 5.691406 1.363281 1.234375 1.890625.789062 4.414062-1.023438 5.761719l-40.839843 30.074218 36.171875-20.875c1.976562-1.089844 4.460937-.449218 5.664062 1.460938 1.207032 1.90625.71875 4.425781-1.117187 5.742187l-13.703125 9.445313 9.15625-5.28125c1.964844-1.085938 4.4375-.464844 5.652344 1.425781 1.214843 1.886719.757812 4.394531-1.042969 5.734375l-25.363281 18.03125 20.753906-11.949219c1.957031-1.15625 4.476562-.578125 5.730468 1.320313 1.253907 1.894531.800782 4.441406-1.027343 5.789062l-30.40625 22.945313 25.703125-14.828125c1.878906-1.050782 4.242187-.535156 5.515625 1.199218 1.273437 1.738282 1.054687 4.148438-.507813 5.625l-25.335937 23.109376 20.328125-11.726563c1.882812-1.109375 4.300781-.617187 5.597656 1.140625s1.058594 4.214844-.554688 5.6875l-6.339843 5.921875 1.296875-.742187c1.796875-1.039063 4.082031-.636719 5.410156.957031 1.332031 1.589843 1.324219 3.910156-.015625 5.496093l-3.996094 4.707032c.785157.363281 1.4375.960937 1.871094 1.707031 1.179687 2.039063.484375 4.648437-1.554687 5.828125l-13.773438 7.953125c-1.796875 1.042969-4.078125.636719-5.410156-.953125-1.332032-1.59375-1.324219-3.914062.019531-5.496094l.476563-.582031-12.40625 7.167969c-1.882813 1.09375-4.285157.59375-5.578126-1.15625-1.292968-1.75-1.058593-4.195313.542969-5.667969l6.332031-5.914063-22.050781 12.722657c-.632812.382812-1.359375.59375-2.101562.605469zm0 0" fill="#9ed26a"/><g fill="#262626"><path d="m3.222656 480.335938c6.261719 37.0625 59.84375 23.363281 88.941406 23.363281.144532 0 .339844-.058594.503907-.074219.914062-.042969 1.824219-.191406 2.703125-.4375 27.445312-7.421875 22.605468-29.386719 22.605468-52.90625v-324.394531c0-31.574219 6.828126-71.730469 0-102.742188-6.824218-31.007812-60.234374-22.382812-84.589843-20.164062-25.882813 2.40625-29.328125 14.765625-30.164063 37.429687-3.824218 103.054688 0 206.964844 0 310.09375 0 41.207032-6.894531 89.113282 0 129.832032zm12.355469-457.191407c8.019531-26.980469 82.125-20.972656 90.042969 4.011719 6.714844 21.214844 0 55.671875 0 77.652344v303.789062c0 14.003906 10.242187 81.59375-10.582032 89.421875-27.980468.535157-71.449218 10.28125-79.460937-22.007812-6.375-25.730469 0-61.441407 0-87.742188v-290.113281c0-21.777344-6.253906-53.957031 0-75.011719zm0 0"/><path d="m190.953125 480.335938c6.273437 37.207031 59.804687 23.519531 88.988281 23.519531.136719 0 .316406-.0625.460938-.070313.929687-.03125 1.855468-.171875 2.753906-.417968 27.410156-7.414063 22.554688-29.636719 22.554688-53.085938v-324.394531c0-31.574219 6.828124-71.679688 0-102.742188-6.835938-31.273437-60.175782-22.570312-84.632813-20.316406-25.925781 2.390625-29.296875 14.90625-30.125 37.546875-3.789063 103.066406 0 206.960938 0 310.09375 0 41.25-6.875 89.136719 0 129.867188zm12.359375-457.191407c8.070312-26.75 82.132812-20.777343 90.042969 4.011719 6.742187 21.15625 0 55.722656 0 77.652344v303.789062c0 14.148438 10.238281 81.527344-10.683594 89.265625-27.886719.546875-71.347656 10.242188-79.359375-21.851562-6.410156-25.6875 0-61.441407 0-87.742188v-290.113281c0-21.695312-6.316406-54.050781 0-75.011719zm0 0"/></g></svg>