<svg id="outline" height="512" viewBox="0 0 512 512" width="512" xmlns="http://www.w3.org/2000/svg"><path d="m152 248h32a8.00064 8.00064 0 0 0 7.69238-10.19824l-16-56a8.00043 8.00043 0 0 0 -15.38476 0l-16 56a8.00064 8.00064 0 0 0 7.69238 10.19824zm16-34.87988 5.394 18.87988h-10.788z"/><path d="m360 368a24 24 0 1 0 -24-24 24.02718 24.02718 0 0 0 24 24zm0-32a8 8 0 1 1 -8 8 8.00917 8.00917 0 0 1 8-8z"/><path d="m480 392h16v16h-16z"/><path d="m16 408h128v-16h-21.16858l27.07727-88h36.18262l27.07727 88h-21.16858v16h272v-16h-24v-56h24v-16h-24v-32a71.65163 71.65163 0 0 0 -4.12842-24h28.12842v-16h-36.167a71.9835 71.9835 0 0 0 -59.833-32h-48a8.00008 8.00008 0 0 0 -8 8v24h-32v16h32a8.00008 8.00008 0 0 0 8 8h44a4 4 0 0 1 0 8h-4a64.08941 64.08941 0 0 0 -59.31335 40h-36.76587l-17.11109-56h17.19031v-16h-22.07922l-17.11109-56h23.19031v-16h-28.07922l-17.11109-56h45.19031v-16h-144v16h29.19031l-17.11109 56h-28.07922v16h23.19031l-17.11109 56h-38.07922v16h33.19031l-17.11109 56h-16.07922v16h11.19031l-17.11109 56h-34.07922zm344-112h4a20 20 0 0 0 0-40h-36v-24h40a56.06322 56.06322 0 0 1 56 56v104h-16v-16a8 8 0 0 0 -14.65674-4.4375l-2.68652 4.03125a36.77075 36.77075 0 0 1 -30.65674 16.40625 48 48 0 0 1 0-96zm-63.48218 40a63.64188 63.64188 0 0 0 21.21778 56h-31.81482l-17.11109-56zm-146.59692-216h36.1582l83.11133 272h-39.28174l-30.26269-98.35254a7.99994 7.99994 0 0 0 -7.646-5.64746h-48a7.99994 7.99994 0 0 0 -7.646 5.64746l-30.26269 98.35254h-39.28174z"/><path d="m160 392h16v16h-16z"/><path d="m392 104h104v16h-104z"/><path d="m16 104h40v16h-40z"/><path d="m72 104h16v16h-16z"/><path d="m16 176h24v16h-24z"/><path d="m16 248h24v16h-24z"/><path d="m56 176h16v16h-16z"/><path d="m16 320h24v16h-24z"/><path d="m480 248h16v16h-16z"/><path d="m480 320h16v16h-16z"/><path d="m360 104h16v16h-16z"/><path d="m328 104h16v16h-16z"/><path d="m296 104h16v16h-16z"/><path d="m264 104h16v16h-16z"/><path d="m360 176h136v16h-136z"/><path d="m328 176h16v16h-16z"/><path d="m296 176h16v16h-16z"/><path d="m264 176h16v16h-16z"/></svg>