<svg height="507pt" viewBox="0 -12 507.35952 507" width="507pt" xmlns="http://www.w3.org/2000/svg"><path d="m435.652344 483.507812c-1.523438-.003906-2.933594-.816406-3.695313-2.140624-.757812-1.320313-.753906-2.949219.011719-4.269532l5.972656-10.238281-13.476562 7.773437c-1.792969 1.039063-4.078125.636719-5.410156-.957031-1.332032-1.59375-1.324219-3.910156.019531-5.496093l11.476562-13.53125-19.761719 11.40625c-1.847656 1.054687-4.1875.585937-5.488281-1.09375-1.300781-1.679688-1.167969-4.0625.316407-5.585938l19.105468-19.472656-29.011718 16.722656c-1.925782 1.085938-4.363282.523438-5.613282-1.300781-1.25-1.820313-.90625-4.296875.796875-5.703125l13.757813-11.09375-19.710938 11.382812c-1.910156 1.101563-4.34375.570313-5.617187-1.230468-1.273438-1.800782-.964844-4.273438.710937-5.707032l31.128906-26.453125-41.421874 23.894531c-1.945313 1.078126-4.390626.484376-5.625-1.367187-1.230469-1.851563-.832032-4.339844.914062-5.714844l28.742188-21.890625-36.566407 21.105469c-1.953125 1.144531-4.460937.5625-5.714843-1.324219-1.25-1.886718-.8125-4.421875 1.003906-5.777344l45.125-34.066406-95.769532 55.253906c-1.988281 1.179688-4.550781.5625-5.78125-1.390624-1.234374-1.953126-.691406-4.53125 1.222657-5.820313l87.144531-59.9375-123.1875 71.09375c-2.007812 1.175781-4.589844.523437-5.800781-1.464844-1.210938-1.988281-.605469-4.582031 1.363281-5.824219l64.945312-41.464843-83.234374 48.050781c-2.003907 1.121094-4.535157.457031-5.726563-1.507812-1.191406-1.960938-.617187-4.515626 1.300781-5.777344l93.132813-59.402344-111.695313 64.480469c-2.003906 1.054687-4.480468.363281-5.648437-1.578125-1.164063-1.941406-.609375-4.457032 1.261719-5.726563l72.390624-45.175781-85.410156 49.289062c-1.996094 1.066407-4.480468.390626-5.660156-1.546874-1.175781-1.933594-.636719-4.453126 1.230469-5.734376l144.273437-92.234374-162.132812 93.609374c-2.015625 1.160157-4.589844.496094-5.789063-1.5-1.199219-1.992187-.578125-4.578124 1.394531-5.8125l111-69.121093-123.332031 71.167969c-1.304687.789062-2.929687.820312-4.265625.085937-1.335937-.738281-2.175781-2.128906-2.207031-3.652344-.027344-1.527343.757813-2.949219 2.0625-3.738281l154.632813-97.363281-167.691407 96.808593c-2.015625 1.097657-4.539062.402344-5.707031-1.574218-1.171875-1.976563-.566406-4.523438 1.363281-5.765625l10.292969-6.238281-15.820312 9.167968c-2.011719 1.089844-4.527344.398438-5.699219-1.566406s-.585938-4.503906 1.328125-5.757812l105.371094-64.785157-112.769532 65.066407c-2.011718 1.09375-4.523437.402343-5.695312-1.5625-1.171875-1.964844-.585938-4.503907 1.328125-5.757813l112.050781-68.871094-119.542969 69.015625c-2.007812 1.058594-4.492187.359375-5.65625-1.589844-1.160156-1.949218-.589843-4.46875 1.296875-5.730468l118.910156-73.0625-125.429687 72.414062c-2.015625 1.136719-4.570313.457032-5.757813-1.527344-1.1875-1.988281-.574218-4.554687 1.378907-5.792968l155.09375-96-162.65625 93.863281c-2 1.058594-4.480469.367187-5.644531-1.574219-1.167969-1.941406-.613282-4.457031 1.261718-5.730468l185.761719-115.878907-193.476563 111.699219c-2.023437 1.152344-4.597656.472656-5.78125-1.53125-1.1875-2-.550781-4.585938 1.429688-5.808594l120.617188-73.828125-124.917969 72.113281c-2.015625 1.164063-4.589844.496094-5.789063-1.496093-1.199218-1.996094-.578125-4.582031 1.394532-5.816407l185.890624-115.71875-192.164062 110.933594c-2.023438 1.152344-4.59375.46875-5.78125-1.53125-1.1875-2.003906-.550781-4.585937 1.429688-5.808594l78.265624-47.523437-79.9375 46.167969c-2.023437 1.210937-4.644531.550781-5.855468-1.46875-1.210938-2.023438-.554688-4.644532 1.46875-5.855469l173.746094-107.691406-177.886719 102.699219c-2.015625 1.136718-4.566407.457031-5.753907-1.527344s-.578124-4.554688 1.378907-5.792969l154.851562-95.515625-157.171875 90.746094c-2.019531 1.113281-4.554687.425781-5.734375-1.554688-1.175781-1.980468-.570312-4.535156 1.371094-5.777344l120.644531-73.863281-121.515625 70.136719c-2 1.054688-4.480469.363281-5.648437-1.578125-1.164063-1.941406-.609375-4.457031 1.265625-5.726563l186.683593-116.625-188.972656 109.097657c-2.015625 1.097656-4.539062.402343-5.710937-1.574219-1.167969-1.976562-.5625-4.523438 1.367187-5.765625l39.476563-23.890625-37.734375 21.785156c-2.023438 1.203125-4.644532.542969-5.851563-1.480468-1.207031-2.027344-.542969-4.644532 1.480469-5.851563l132.464844-81.648437-131.652344 76c-2.003906 1.054687-4.484375.363281-5.648438-1.578126-1.167968-1.941406-.613281-4.453124 1.261719-5.726562l161.007813-100.4375-159.890625 92.304688c-2.015625 1.136718-4.566407.457031-5.753907-1.527344s-.578124-4.554688 1.378907-5.792969l123.679687-76.449219-120.558594 69.570313c-1.992187 1.019531-4.433593.328125-5.59375-1.585938-1.160156-1.914062-.644531-4.398437 1.183594-5.691406l168.957032-106.941406-165.851563 95.71875c-2.023437 1.207031-4.644531.542969-5.851563-1.480469-1.207031-2.023438-.542968-4.644531 1.480469-5.851562l72.210938-44.414063-66.867188 38.605469c-2.003906 1.054687-4.484375.363281-5.648437-1.578125-1.167969-1.941407-.613282-4.457031 1.261718-5.726563l125.148438-78.773437-119.074219 68.71875c-1.996093 1.058593-4.472656.371093-5.640625-1.5625-1.171875-1.933594-.632812-4.441407 1.230469-5.722657l116.503906-73.875-107.792969 62.292969c-1.996093 1.085938-4.488281.414063-5.671874-1.523437-1.1875-1.9375-.644532-4.460938 1.226562-5.746094l120.976562-78.386719-108.867187 62.832031c-2.003906 1.164063-4.570313.519532-5.78125-1.457031-1.210937-1.972656-.625-4.554687 1.320313-5.8125l88.820312-57.660156-74 42.734375c-1.988281 1.152344-4.53125.527344-5.753906-1.417969-1.222656-1.945312-.683594-4.511719 1.214844-5.800781l83.839843-57.175781-59.734375 34.5c-1.949218 1.121093-4.433594.53125-5.675781-1.34375s-.816406-4.394531.976563-5.753907l46.207031-34.894531c-1.925781-.003906-3.609375-1.300781-4.105469-3.160156-.5-1.859375.308594-3.820313 1.972656-4.792969l54.210938-31.296875c1.953125-1.121093 4.4375-.53125 5.679687 1.34375 1.242188 1.875.8125 4.394531-.976562 5.753907l-42.597657 32.152343 98.371094-56.8125c1.984375-1.117187 4.496094-.476562 5.703125 1.449219 1.210938 1.929688.695313 4.46875-1.171875 5.769531l-83.824218 57.171875 117.324218-67.746094c2.003906-1.164062 4.570313-.515624 5.78125 1.457032 1.214844 1.972656.628906 4.554687-1.316406 5.8125l-88.746094 57.617187 110.976563-64.09375c2.007812-1.230469 4.636719-.597656 5.863281 1.414063 1.230469 2.007812.597656 4.636718-1.410156 5.867187l-121.019532 78.421875 142.839844-82.484375c2.007813-1.148437 4.566406-.484375 5.765625 1.492188 1.199219 1.980469.601563 4.554687-1.347656 5.804687l-116.539063 73.835938 133.292969-76.953125c2.007813-1.125 4.546875-.453125 5.738281 1.519531 1.1875 1.972656.597657 4.535156-1.335937 5.785156l-125.089844 78.753906 139.09375-80.324218c2.023438-1.203125 4.640625-.542969 5.847657 1.480468 1.207031 2.027344.542968 4.644532-1.480469 5.851563l-72.125 44.371094 81.316406-46.929688c2.003906-1.105469 4.523437-.429687 5.707031 1.527344 1.183594 1.960937.613282 4.503906-1.296875 5.765625l-168.960937 106.949219 183.265625-105.8125c2.015625-1.136719 4.566406-.457031 5.753906 1.527343 1.1875 1.984376.574219 4.554688-1.378906 5.792969l-123.605469 76.46875 132.71875-76.621093c2.007812-1.085938 4.511719-.402344 5.6875 1.550781 1.179688 1.957031.609375 4.488281-1.292969 5.753906l-161.03125 100.488281 171.28125-98.925781c2.015625-1.136719 4.570313-.460937 5.757813 1.527344 1.183594 1.984375.574218 4.554687-1.378906 5.792969l-132.523438 81.699218 139.714844-80.667968c2.019531-1.097657 4.542968-.398438 5.710937 1.574218 1.167969 1.976563.566407 4.523438-1.367187 5.765625l-39.542969 23.9375 43.222656-24.953125c2.003907-1.085937 4.511719-.402344 5.6875 1.550782 1.175781 1.957031.605469 4.492187-1.292969 5.753906l-186.710937 116.632812 195.15625-112.640625c2.015625-1.113281 4.554687-.425781 5.734375 1.554688 1.175781 1.980469.570312 4.535156-1.371094 5.777343l-120.492187 73.769532 124.792969-72.0625c2.015624-1.136719 4.566406-.457032 5.753906 1.527344 1.1875 1.984374.578125 4.554687-1.378906 5.792968l-154.929688 95.574219 160.425781-92.605469c2.007813-1.070312 4.503907-.378906 5.671875 1.574219 1.167969 1.953125.597656 4.476563-1.292968 5.738281l-173.664063 107.625 178.125-102.835937c2.023437-1.152344 4.597656-.472657 5.785156 1.53125 1.1875 2 .550781 4.585937-1.433593 5.808593l-78.394532 47.597657 80.078125-46.234375c2.019531-1.210938 4.644531-.558594 5.855469 1.464844 1.214844 2.019531.558594 4.644531-1.460938 5.859374l-185.917968 115.746094 190.03125-109.722656c2.019531-1.171875 4.605468-.503906 5.800781 1.5 1.199219 2.011719.554687 4.609375-1.441406 5.828125l-120.515625 73.773437 121.351562-70.058593c2.007813-1.089844 4.511719-.40625 5.6875 1.550781 1.175782 1.953125.609375 4.488281-1.292968 5.753906l-185.796876 115.949219 188.273438-108.699219c2.007812-1.070312 4.5-.378906 5.667969 1.574219 1.171875 1.953125.601562 4.476563-1.292969 5.742187l-155.117188 96.015626 155.101563-89.539063c2.007813-1.058594 4.492187-.359375 5.65625 1.589844 1.160156 1.949219.589844 4.46875-1.296875 5.730469l-118.730469 72.941406 117.757813-67.976563c2.023437-1.207031 4.644531-.542969 5.851562 1.480469 1.207032 2.027344.542969 4.644531-1.480468 5.851562l-112.121094 68.898438 110.847656-64c2.011719-1.089844 4.527344-.402344 5.699219 1.5625s.585937 4.503906-1.328125 5.757812l-105.480469 64.855469 102.296875-59.0625c2.015625-1.09375 4.539062-.398437 5.710938 1.578125 1.167968 1.972656.5625 4.523438-1.367188 5.761719l-10.242188 6.222656 6.828126-3.917969c2-1.070312 4.492187-.386718 5.664062 1.558594 1.171875 1.941406.617188 4.464844-1.261719 5.738282l-154.605469 97.347656 150.808594-87.039063c2.023438-1.214843 4.644532-.558593 5.859375 1.460938 1.210938 2.023437.558594 4.644531-1.464843 5.859375l-111.09375 69.164062 105.511718-60.914062c2-1.097656 4.511719-.429688 5.699219 1.519531 1.191406 1.949219.632813 4.488281-1.261719 5.761719l-144.210937 92.21875 136.394531-78.78125c2.011719-1.105469 4.539062-.425782 5.71875 1.542968s.59375 4.519532-1.332031 5.773438l-72.335938 45.164062 64.496094-37.246093c2.011719-1.222657 4.636719-.582031 5.859375 1.433593 1.222656 2.015626.582031 4.640626-1.433594 5.863282l-93.140625 59.40625 81.332031-46.933594c2.007813-1.175781 4.589844-.523438 5.800782 1.464844 1.210937 1.988281.605468 4.578125-1.363282 5.824218l-64.851562 41.429688 51.300781-29.671875c1.984375-1.132813 4.507813-.503906 5.726563 1.429687 1.21875 1.929688.699218 4.480469-1.179688 5.78125l-87.160156 59.949219 62.117188-35.84375c1.953124-1.144531 4.460937-.5625 5.710937 1.324219 1.253906 1.886719.8125 4.421875-1 5.777344l-45.117187 34.054687 34.621093-19.976562c1.941407-1.078125 4.390625-.484375 5.621094 1.371093 1.234375 1.851563.835937 4.335938-.914063 5.714844l-28.730468 21.878906 24.03125-13.867187c1.910156-1.109375 4.351562-.574219 5.625 1.234375 1.273437 1.804688.957031 4.28125-.726563 5.710938l-31.148437 26.503906 26.25-15.144532c1.925781-1.085937 4.359375-.519531 5.609375 1.300782 1.253906 1.820312.90625 4.296875-.796875 5.703125l-13.714844 11.09375 8.902344-5.121094c1.84375-1.050781 4.183594-.582031 5.484375 1.097656 1.300781 1.679688 1.167969 4.0625-.3125 5.585938l-19.109375 19.480469 13.945312-8.054688c1.796875-1.039062 4.082032-.636719 5.410156.957031 1.332032 1.589844 1.324219 3.910157-.015624 5.496094l-11.488282 13.53125 6.09375-3.507813c1.671875-.960937 3.785156-.679687 5.148438.6875 1.363281 1.367188 1.640625 3.480469.671875 5.152344l-5.972657 10.238282.160157-.085938c2.027343-1.058594 4.527343-.332031 5.671875 1.644531 1.144531 1.980469.523437 4.511719-1.40625 5.738281l-14.042969 8.105469c-.648437.382813-1.390625.582031-2.144531.582031zm0 0" fill="#46ceac"/><path d="m178.398438 441.445312c29.210937 7.761719 59.472656 10.808594 89.644531 9.035157 15.40625-.855469 30.714843-2.980469 45.773437-6.347657 9.195313-2.082031 29.96875-11.996093 38.304688-10.988281 29.371094 3.546875 52.992187 46.992188 82.773437 50.898438 33.433594 4.386719 21.265625-50.019531 21.265625-68.804688 0-27.910156-4.320312-47.929687 11.945313-70.269531 24.921875-35.15625 38.609375-77.035156 39.253906-120.125 0-.179688-.101563-.273438-.128906-.425781-.023438-.152344.136719-.289063.128906-.453125-7.347656-267.417969-430.601563-301.335938-500.003906-51.40625-34.011719 122.488281 54.503906 237.714844 171.042969 268.886718zm37.847656-431.878906c135.832031-17.410156 274.507812 74.238282 278.6875 217.292969-.582032 31.136719-8.003906 61.765625-21.742188 89.71875-8.140625 16.253906-25.113281 32.074219-29.429687 48.929687-7.390625 28.78125 2.421875 64.902344 0 94.609376-1.027344 12.449218 2.824219 14.507812-7.734375 13.574218-11.765625-1.046875-31.964844-20.078125-42.273438-26.546875-33.601562-21.109375-29.488281-23.3125-67.488281-12.6875-124.296875 34.757813-275.15625-30.660156-307.847656-161.902343-32.242188-129.398438 72.046875-246.863282 197.828125-262.988282zm0 0" fill="#262626"/></svg>