<svg height="497pt" viewBox="0 -6 497.92677 497" width="497pt" xmlns="http://www.w3.org/2000/svg"><path d="m477.285156 474.773438c-1.46875.003906-2.828125-.777344-3.570312-2.046876-.742188-1.265624-.753906-2.832031-.03125-4.113281l2.84375-5.039062-5.601563 3.230469c-1.679687.96875-3.808593.640624-5.113281-.792969-1.308594-1.4375-1.441406-3.585938-.320312-5.167969l8.464843-11.933594-14.113281 8.160156c-1.800781 1.035157-4.09375.574219-5.351562-1.082031-1.257813-1.65625-1.085938-3.988281.398437-5.445312l7.199219-7.050781-10.683594 6.160156c-1.800781 1.023437-4.078125.558594-5.332031-1.089844-1.25-1.644531-1.089844-3.964844.375-5.425781l15.691406-15.425781-21.539063 12.421874c-1.808593 1.085938-4.148437.636719-5.421874-1.046874-1.273438-1.683594-1.070313-4.058594.46875-5.503907l25.152343-24.144531-33.277343 19.214844c-1.886719 1.074218-4.28125.503906-5.484376-1.304688-1.199218-1.804687-.796874-4.234375.925782-5.558594l10.074218-7.628906-13.277343 7.65625c-1.878907 1.085938-4.28125.535156-5.492188-1.265625-1.214843-1.796875-.828125-4.230469.882813-5.566406l23.558594-18.347656-28.664063 16.574219c-1.863281 1.039062-4.21875.484374-5.421875-1.28125-1.203125-1.765626-.859375-4.160157.789062-5.515626l37.164063-29.648437-44.683594 25.800781c-1.914062 1.054688-4.320312.433594-5.484375-1.414062-1.167968-1.847656-.691406-4.28125 1.082032-5.558594l6.648437-4.589844-9.285156 5.351563c-1.890625 1.109375-4.316407.546875-5.527344-1.277344-1.210937-1.828125-.785156-4.28125.96875-5.59375l46.097656-34.816406-53.675781 30.984375c-1.914062 1.054687-4.316406.4375-5.484375-1.410156-1.167969-1.847657-.691406-4.285157 1.082031-5.558594l25.824219-17.789063-29.953125 17.292969c-1.902344 1.109375-4.339844.53125-5.542969-1.3125-1.199219-1.847656-.742187-4.308594 1.042969-5.597656l57.738281-42.117188-65.808593 37.988282c-1.898438 1.0625-4.300782.46875-5.484376-1.359376-1.183593-1.832031-.742187-4.265624 1.007813-5.5625l65.546875-47.128906-73.96875 42.703125c-1.929688 1.0625-4.355469.421875-5.507812-1.457031-1.15625-1.875-.632813-4.328125 1.1875-5.570312l13.644531-8.863282-16.515625 9.546875c-1.929688 1.140625-4.414063.539063-5.605469-1.359375-1.1875-1.898437-.648437-4.398437 1.21875-5.632812l59.09375-40.109375-6.050781 3.484375c-1.890625 1.066406-4.285156.488281-5.480469-1.324219-1.191406-1.8125-.78125-4.238281.945313-5.554687l59.328124-44.398438c-1.347656-.542969-2.304687-1.757812-2.527343-3.191406-.222657-1.4375.328125-2.882813 1.445312-3.808594l36.417969-30.242188c-.011719-1.488281.777344-2.863281 2.0625-3.609374l7.820312-4.515626c1.859376-1.074218 4.230469-.542968 5.453126 1.21875 1.226562 1.761719.898437 4.167969-.753907 5.535157l-8.257812 6.886719 3.59375-2.070313c1.890625-1.09375 4.300781-.523437 5.507812 1.296875s.78125 4.269531-.96875 5.582031l-48.574219 36.335938 44.035157-25.421875c1.925781-1.140625 4.410156-.539063 5.601562 1.359375 1.191407 1.898437.648438 4.398437-1.21875 5.636719l-59.09375 40.085937 54.683594-31.5625c1.9375-1.082031 4.378906-.441406 5.535156 1.445313 1.160157 1.890624.617188 4.355468-1.222656 5.589843l-13.578125 8.8125 9.25-5.34375c1.90625-1.105469 4.34375-.519531 5.539062 1.332031 1.195313 1.847657.726563 4.3125-1.0625 5.597657l-65.542968 47.128906 61.066406-35.253906c1.902344-1.109375 4.339844-.535157 5.542969 1.3125 1.199219 1.84375.742187 4.308593-1.042969 5.597656l-57.804688 42.117187 53.28125-30.753906c1.914063-1.054687 4.316407-.433594 5.480469 1.410156 1.167969 1.847657.695313 4.285157-1.078125 5.558594l-25.832031 17.78125 21.429687-12.386718c1.886719-1.09375 4.300782-.53125 5.507813 1.289062s.789063 4.265625-.957031 5.582031l-46.089844 34.796875 41.539062-23.945312c1.917969-1.097656 4.359376-.488282 5.539063 1.378906 1.179687 1.871094.679687 4.335938-1.136719 5.597656l-6.609375 4.574219 2.246094-1.296875c1.871094-1.066406 4.246094-.515625 5.460937 1.265625 1.210938 1.777344.851563 4.191406-.828124 5.539063l-37.160157 29.648437 32.554688-18.789063c1.875-1.066406 4.257812-.503906 5.460937 1.285157 1.207032 1.789062.832032 4.207031-.863281 5.546875l-23.558594 18.363281 18.992188-10.941406c1.886719-1.050781 4.261719-.472657 5.453125 1.324219 1.191406 1.796874.800781 4.210937-.902344 5.539062l-10.066406 7.628906 5.515625-3.179687c1.808593-1.089844 4.148437-.636719 5.421875 1.046875 1.273437 1.683594 1.074218 4.058594-.464844 5.503906l-25.148438 24.128906 20.226563-11.667968c1.796875-1.023438 4.074219-.558594 5.328125 1.089843 1.253906 1.644531 1.09375 3.964844-.375 5.425781l-15.691406 15.441407 10.738281-6.210938c1.800781-1.035156 4.09375-.574219 5.347656 1.082031 1.257813 1.65625 1.089844 3.988282-.394531 5.445313l-7.183594 7.035156 2.128906-1.257812c1.679688-.96875 3.808594-.636719 5.117188.796875 1.304688 1.433594 1.4375 3.582031.316406 5.167968l-8.464844 11.957032 2.289063-1.320313c1.609375-.925781 3.640625-.660156 4.957031.644531 1.320313 1.308594 1.605469 3.332032.699219 4.953126l-6.398437 11.371093c.082031.113281.15625.230469.222656.355469 1.140625 1.972656.46875 4.496094-1.503906 5.640625l-4.078126 2.351563c-.628906.371093-1.339843.5625-2.066406.5625zm0 0" fill="#457393"/><path d="m207.652344 485.730469c-1.835938.003906-3.449219-1.207031-3.964844-2.964844-.515625-1.761719.191406-3.648437 1.734375-4.640625l16.582031-10.652344-30.660156 17.671875c-1.929688 1.082031-4.367188.449219-5.53125-1.433593-1.160156-1.878907-.636719-4.34375 1.195312-5.585938l51.867188-34.070312-71.175781 41.089843c-1.933594 1.066407-4.367188.417969-5.515625-1.46875-1.148438-1.882812-.613282-4.339843 1.222656-5.574219l42.453125-27.308593-59.515625 34.351562c-1.921875 1.050781-4.328125.417969-5.484375-1.441406-1.15625-1.863281-.660156-4.300781 1.132813-5.558594l88.929687-59.226562-114.71875 66.226562c-1.925781 1.039063-4.320313.394531-5.472656-1.460937-1.148438-1.859375-.648438-4.289063 1.136719-5.546875l100.367187-66.324219-127.074219 73.332031c-1.9375 1.066407-4.367187.417969-5.515625-1.46875-1.148437-1.882812-.613281-4.339843 1.222657-5.574219l89.183593-57.320312-111.5 64.363281c-1.929687 1.066407-4.355469.425781-5.507812-1.453125-1.15625-1.878906-.628907-4.332031 1.191406-5.574218l116.851563-75.890626-139.148438 80.367188c-1.945312 1.140625-4.445312.511719-5.617188-1.414062-1.171874-1.925782-.582031-4.433594 1.320313-5.636719l110.71875-70.773438-104.40625 60.285157c-1.941406 1.125-4.421875.5-5.597656-1.410157-1.171875-1.910156-.605469-4.40625 1.277343-5.625l124.191407-81.136719-57.679688 33.28125c-1.929687 1.035157-4.328125.382813-5.472656-1.480468-1.144531-1.863282-.636719-4.300782 1.160156-5.546875l47.269531-30.738281-.429687.246093c-1.902344 1.078125-4.316406.484375-5.5-1.355469-1.1875-1.835937-.734375-4.28125 1.03125-5.570312l58.558594-41.859375c-1.472657.132813-2.898438-.570313-3.691407-1.820313-1.203124-1.792968-.816406-4.214843.882813-5.546874l36.023437-28.183594c-.765624-1.90625-.011718-4.085938 1.765626-5.113282l18.441406-10.644531c1.875-1.058593 4.246094-.5 5.453125 1.28125 1.203125 1.785157.835937 4.195313-.84375 5.539063l-9.40625 7.367187 17.40625-10.050781c1.910156-1.121094 4.363281-.535156 5.5625 1.324219 1.199219 1.863281.714843 4.339843-1.09375 5.613281l-55.023438 39.324219 62.25-35.9375c1.933594-1.082031 4.375-.445313 5.535157 1.445312 1.15625 1.890625.617187 4.355469-1.226563 5.589844l-47.375 30.792969 51.941406-29.984375c1.941407-1.128907 4.421875-.5 5.597657 1.410156 1.171874 1.910156.605468 4.40625-1.277344 5.625l-124.160156 81.121094 132.824218-76.6875c1.941406-1.136719 4.441406-.507813 5.613282 1.417969 1.171874 1.921874.585937 4.433593-1.320313 5.636718l-110.699219 70.761719 117.578125-67.90625c1.9375-1.125 4.421875-.5 5.59375 1.410156 1.171875 1.910157.609375 4.410157-1.273437 5.625l-116.851563 75.886719 124.820313-72.0625c1.933594-1.0625 4.363281-.417969 5.515625 1.46875 1.148437 1.886719.609375 4.34375-1.222657 5.578125l-89.1875 57.324219 95.414063-55.078125c1.925781-1.066407 4.347656-.429688 5.503906 1.4375 1.160157 1.871093.648438 4.320312-1.160156 5.570312l-100.335937 66.324219 108.3125-62.480469c1.933593-1.148437 4.429687-.542969 5.617187 1.367188 1.1875 1.910156.628906 4.417969-1.257813 5.640625l-89.035156 59.246094 96.617188-55.769532c1.9375-1.0625 4.367187-.414062 5.515625 1.46875 1.148437 1.886719.613281 4.34375-1.222657 5.578125l-42.355468 27.25 46.519531-26.855469c1.9375-1.160156 4.449219-.546874 5.636719 1.375 1.183594 1.921876.605468 4.441407-1.300782 5.652344l-51.910156 34.089844 56.980469-32.882812c1.945313-1.140626 4.441406-.511719 5.613281 1.414062s.585938 4.433594-1.320312 5.636719l-16.515625 10.628906 19.523437-11.273437c1.902344-1.058594 4.304688-.457032 5.484375 1.378906 1.175781 1.835937.722657 4.269531-1.035156 5.558594l-65.652344 46.4375 73.589844-42.480469c1.902344-1.125 4.355469-.546875 5.5625 1.308593 1.203125 1.855469.730469 4.328126-1.070313 5.609376l-56.082031 40.613281 63.726563-36.796875c1.921875-1.078125 4.351562-.460938 5.523437 1.40625 1.171875 1.863281.671875 4.320312-1.136719 5.582031l-17.738281 12.054687 21.183594-12.222656c1.886719-1.089844 4.300781-.523437 5.507813 1.296875 1.203124 1.820313.78125 4.261719-.960938 5.574219l-38.503906 28.96875 45.105468-26.035156c1.855469-1.109375 4.253907-.59375 5.496094 1.175781 1.242188 1.773437.902344 4.203125-.773437 5.570313l-35.171875 29.40625 43.199218-24.929688c1.835938-1.054688 4.175782-.542969 5.40625 1.179688 1.234376 1.722656.960938 4.097656-.625 5.5l-23.90625 20.882812 30.46875-17.585938c1.855469-1.0625 4.214844-.539062 5.4375 1.214844 1.226563 1.75.914063 4.144532-.71875 5.523438l-9.714843 8.117187 13.214843-7.632812c1.671876-.96875 3.792969-.652344 5.105469.765625 1.3125 1.417968 1.464844 3.558594.371094 5.148437l-11.347656 16.515625 18.851562-10.949218c1.621094-.933594 3.664063-.664063 4.984375.65625 1.320313 1.320312 1.589844 3.363281.65625 4.984374l-3.871094 6.714844 7.429688-4.28125c1.960938-1.023437 4.382812-.320312 5.488281 1.59375 1.109375 1.914063.507813 4.363282-1.359375 5.550782l-20.757812 11.964843c-1.617188.921875-3.652344.648438-4.964844-.664062-1.316406-1.316407-1.589844-3.351563-.667969-4.964844l3.863281-6.722656-21.355468 12.351562c-1.667969.957031-3.773438.636719-5.082032-.777343-1.304687-1.410157-1.464843-3.535157-.382812-5.125l11.34375-16.515626-38.8125 22.410157c-1.851562 1.046875-4.195312.511719-5.410156-1.230469-1.21875-1.742188-.914063-4.128906.703125-5.507812l9.710937-8.109376-25.746094 14.855469c-1.839843 1.054688-4.175781.542969-5.410156-1.179687-1.230468-1.722656-.960937-4.097656.628906-5.5l23.949219-20.890625-47.816406 27.570312c-1.855469 1.082031-4.226563.5625-5.460937-1.195312-1.230469-1.757813-.910157-4.167969.738281-5.542969l35.179687-29.421875-62.65625 36.160156c-1.886718 1.082031-4.292968.511719-5.492187-1.300781-1.203125-1.816406-.789063-4.25.945312-5.570312l38.457031-28.902344-62.035156 35.773437c-1.917968 1.054688-4.324218.425781-5.484375-1.425781-1.160156-1.855469-.675781-4.292969 1.105469-5.558594l17.789062-12.007812-32.980468 18.992187c-1.90625 1.125-4.359375.550781-5.5625-1.304687-1.207032-1.855469-.734375-4.332032 1.066406-5.613282l56.058594-40.597656-82.367188 47.515625c-1.90625 1.0625-4.304687.460938-5.484375-1.375-1.175781-1.835937-.726562-4.269531 1.035157-5.558593l65.648437-46.445313-92.457031 53.378906c-.625.375-1.335938.578125-2.0625.585938zm0 0" fill="#365972"/><path d="m18.320312 474.542969c-1.746093 0-3.300781-1.09375-3.890624-2.734375-.585938-1.640625-.082032-3.472656 1.261718-4.582032l6.609375-5.441406-7.328125 4.226563c-1.910156 1.117187-4.367187.527343-5.558594-1.339844-1.195312-1.871094-.699218-4.347656 1.117188-5.613281l10.59375-7.433594-8.445312 4.882812c-1.921876 1.078126-4.351563.460938-5.523438-1.40625-1.167969-1.863281-.667969-4.320312 1.136719-5.582031l42.308593-28.851562-38.757812 22.363281c-1.925781 1.078125-4.355469.453125-5.523438-1.421875-1.167968-1.871094-.652343-4.332031 1.164063-5.582031l44.59375-29.851563-40.234375 23.195313c-1.917969 1.050781-4.320312.425781-5.484375-1.429688-1.160156-1.851562-.675781-4.289062 1.109375-5.558594l44.097656-29.917968-39.722656 22.925781c-1.914062 1.097656-4.355469.496094-5.539062-1.367187-1.183594-1.863282-.695313-4.328126 1.113281-5.59375l49.128906-34.320313-44.703125 25.804687c-1.917969 1.097657-4.359375.488282-5.539062-1.382812-1.179688-1.867188-.679688-4.335938 1.136718-5.59375l32.644532-22.464844-28.242188 16.304688c-1.914062 1.050781-4.316406.433594-5.480469-1.414063-1.167969-1.847656-.695312-4.28125 1.078125-5.558593l24.328125-16.746094-19.925781 11.503906c-1.902344 1.074219-4.316406.480469-5.5-1.355469-1.1875-1.839843-.734375-4.28125 1.035156-5.574219l32.550782-23.34375-28.078126 16.210938c-1.890624 1.074219-4.292968.496094-5.488281-1.324219-1.199219-1.820312-.773437-4.253906.964844-5.5625l32.824219-24.371093-28.308594 16.34375c-1.898438 1.078124-4.3125.492187-5.503906-1.339844-1.191406-1.832032-.746094-4.277344 1.011718-5.574219l18.820313-13.730469-14.328125 8.257813c-1.851562 1.0625-4.210938.535156-5.433594-1.214844-1.226562-1.753906-.914062-4.148437.71875-5.523437l33.03125-27.683594-28.316406 16.382812c-1.839844 1.070313-4.191406.566406-5.429688-1.164062-1.238281-1.726563-.960937-4.117188.640626-5.515625l25.882812-22.609375-21.09375 12.171875c-1.796875 1.023437-4.074219.558593-5.328125-1.089844-1.253906-1.644531-1.09375-3.964844.375-5.425781l22.074219-21.742188-17.121094 9.910156c-1.820312 1.089844-4.175781.617188-5.4375-1.089843-1.265625-1.707031-1.027344-4.09375.550781-5.519531l10.007813-9.414063-5.144532 2.964844c-1.816406 1-4.097656.496093-5.320312-1.175781-1.226562-1.675782-1.019531-4 .480469-5.429688l2.765625-2.476562c-1.617188-.003907-3.082032-.945313-3.753906-2.417969-.667969-1.472657-.417969-3.199219.640624-4.421875l5.046876-5.78125c-1.691407.894531-3.777344.511718-5.035157-.929688-1.261719-1.4375-1.367187-3.554687-.257812-5.113281l3.300781-4.722656c-1.152344-.007813-2.253906-.5-3.03125-1.355469s-1.160156-1.996094-1.054688-3.144531l1.253907-13.867188c-.285157-.261719-.527344-.570312-.71875-.90625-.546875-.949219-.699219-2.078125-.414063-3.140625.28125-1.058594.976563-1.960937 1.925782-2.511718l1.652343-.941407c1.335938-.769531 2.992188-.734375 4.292969.101563 1.300781.832031 2.027344 2.320312 1.882812 3.855468l-.921874 10.222657 6.546874-3.78125c1.679688-.96875 3.808594-.640625 5.117188.796875 1.304688 1.433594 1.4375 3.582031.316406 5.164062l-2.558594 3.628906 4.847657-2.800781c1.746093-1.015625 3.972656-.617187 5.257812.941407 1.285157 1.558593 1.253907 3.820312-.074219 5.34375l-5.035156 5.78125 8.199219-4.726563c1.816406-.984375 4.082031-.476563 5.304687 1.191406 1.21875 1.667969 1.019532 3.984375-.472656 5.417969l-.828125.734375 2.628907-1.511719c1.820312-1.089844 4.175781-.621094 5.4375 1.085938 1.265624 1.707031 1.027343 4.09375-.550782 5.519531l-9.949218 9.332031 14.039062-8.117187c1.796875-1.023438 4.074219-.558594 5.328125 1.089843 1.253906 1.644532 1.09375 3.964844-.375 5.425782l-22.039063 21.75 29.726563-17.167969c1.839844-1.050781 4.175781-.542969 5.410156 1.179687 1.230469 1.722657.960938 4.101563-.628906 5.5l-25.863281 22.621094 32.84375-18.996094c1.851562-1.078124 4.226562-.558593 5.460937 1.199219 1.230469 1.757813.910157 4.167969-.738281 5.542969l-33.03125 27.671875 40.71875-23.511719c1.898438-1.082031 4.3125-.492187 5.503906 1.339844s.746094 4.273438-1.011718 5.570312l-18.859376 13.761719 22.824219-13.214843c1.890625-1.074219 4.296875-.496094 5.492188 1.320312 1.195312 1.820312.773437 4.257812-.96875 5.566406l-32.757813 24.378906 38.507813-22.238281c1.902343-1.078125 4.316406-.480469 5.5 1.355469 1.1875 1.839844.734375 4.28125-1.03125 5.570312l-32.578125 23.363282 37.730468-21.777344c1.914063-1.054688 4.316407-.433594 5.480469 1.414062 1.167969 1.847657.695313 4.28125-1.078125 5.558594l-24.320312 16.738282 28.300781-16.335938c1.917969-1.097656 4.359375-.488281 5.539063 1.382812 1.179687 1.871094.675781 4.335938-1.140626 5.597657l-32.617187 22.445312 37.226563-21.472656c1.917968-1.136719 4.390624-.550781 5.589843 1.332031 1.199219 1.878906.6875 4.375-1.15625 5.628906l-49.152343 34.328126 55.332031-31.941407c1.921875-1.097656 4.367187-.480469 5.542969 1.398438 1.175781 1.875.660156 4.347656-1.167969 5.597656l-44.097657 29.917969 49.316407-28.472656c1.925781-1.082032 4.359375-.457032 5.523437 1.417968 1.167969 1.875.65625 4.332032-1.164062 5.582032l-44.59375 29.855468 26.558594-15.328125c1.917968-1.066406 4.332031-.445312 5.5 1.410157 1.171874 1.855468.683593 4.300781-1.105469 5.566406l-47.804688 32.605468c1.445313-.027343 2.804688.6875 3.597657 1.898438 1.195312 1.863281.710937 4.335938-1.097657 5.605469l-35.023437 24.644531c.289062.242188.546875.519531.769531.824219 1.226563 1.765625.890625 4.175781-.769531 5.542969l-34.574219 28.488281c.089844 1.558593-.707031 3.035156-2.058594 3.816406l-8.917969 5.152344c-.625.371093-1.335937.5625-2.0625.5625zm0 0" fill="#457393"/><path d="m332.25 346.789062c-1.742188-.003906-3.296875-1.101562-3.878906-2.746093-.582032-1.640625-.070313-3.472657 1.277344-4.578125l29.628906-24.089844-36.226563 20.910156c-1.925781 1.097656-4.371093.480469-5.546875-1.394531-1.171875-1.878906-.65625-4.347656 1.167969-5.597656l23.867187-16.152344-27.632812 15.929687c-1.914062 1.0625-4.332031.445313-5.5-1.410156-1.167969-1.855468-.683594-4.300781 1.109375-5.570312l84.230469-57.664063-92.546875 53.445313c-1.925781 1.097656-4.371094.480468-5.546875-1.398438-1.171875-1.875-.65625-4.347656 1.167968-5.597656l78.394532-53.097656-85.910156 49.597656c-1.9375 1.125-4.417969.5-5.59375-1.410156-1.171876-1.910156-.605469-4.40625 1.277343-5.625l48.605469-31.679688-53.28125 30.761719c-1.925781 1.046875-4.335938.40625-5.488281-1.460937-1.148438-1.867188-.640625-4.308594 1.160156-5.558594l54.671875-35.855469-59.796875 34.535156c-1.9375 1.082031-4.378906.441407-5.535156-1.449219-1.160157-1.886718-.617188-4.355468 1.222656-5.585937l37.335937-24.097656-41.292968 23.839843c-1.941406 1.191407-4.484375.578126-5.675782-1.367187-1.191406-1.945313-.578124-4.484375 1.367188-5.675781l39.925781-25.824219-49.058593 28.324219c-1.28125.816406-2.902344.863281-4.226563.121094-1.324219-.738282-2.136719-2.144532-2.117187-3.660157.019531-1.515625.871093-2.898437 2.214843-3.601562l190.601563-110.074219c1.941406-1.101562 4.40625-.464844 5.566406 1.4375 1.164062 1.902344.605469 4.386719-1.261719 5.609375l-39.917969 25.8125 44.039063-25.417969c1.933594-1.082031 4.375-.441406 5.535156 1.449219 1.15625 1.886719.617188 4.355469-1.226562 5.585937l-37.390625 24.132813 41.355468-23.867187c1.929688-1.078126 4.367188-.445313 5.527344 1.433593 1.164063 1.882813.636719 4.34375-1.191406 5.585938l-54.710938 35.882812 59.847657-34.554687c1.9375-1.125 4.421875-.5 5.59375 1.410156s.605469 4.410156-1.273438 5.625l-48.507812 31.613281 53.195312-30.710937c1.925781-1.097656 4.371094-.480469 5.546875 1.398437 1.175782 1.875.660156 4.34375-1.167968 5.597657l-78.453126 53.113281 85.96875-49.621094c1.914063-1.066406 4.332032-.449219 5.5 1.40625 1.167969 1.859375.683594 4.304687-1.109374 5.570313l-84.230469 57.683593 34.9375-20.175781c1.929687-1.140625 4.414062-.539062 5.605469 1.359375 1.1875 1.898437.648437 4.398437-1.21875 5.636719l-39.804688 26.96875c1.4375.46875 2.503906 1.683594 2.78125 3.171875.277344 1.484375-.28125 3-1.449219 3.957031l-52.464843 42.59375c.800781 1.917969.054687 4.128906-1.742188 5.171875l-16.195312 9.347656c-.621094.363281-1.332032.554688-2.054688.550781zm0 0" fill="#5e8faa"/><path d="m161.664062 347.839844c-1.734374-.003906-3.28125-1.09375-3.871093-2.722656-.589844-1.628907-.101563-3.457032 1.226562-4.570313l15.085938-12.585937-19.519531 11.265624c-1.9375 1.050782-4.355469.394532-5.5-1.488281-1.140626-1.882812-.605469-4.332031 1.222656-5.566406l120.789062-77.0625-128.066406 73.960937c-1.941406 1.109376-4.417969.46875-5.578125-1.445312-1.160156-1.917969-.582031-4.40625 1.300781-5.617188l106.132813-67.136718-112.390625 64.875c-1.953125 1.078125-4.40625.414062-5.546875-1.503906-1.140625-1.914063-.554688-4.390626 1.324219-5.589844l12.296874-7.53125-14.914062 8.605468c-1.957031 1.171876-4.492188.535157-5.664062-1.421874-1.171876-1.957032-.535157-4.492188 1.421874-5.664063l71.511719-44.535156-76.039062 43.890625c-1.945313 1.054687-4.378907.386718-5.511719-1.515625-1.136719-1.898438-.570312-4.359375 1.285156-5.570313l32.636719-20.09375-35.800781 20.648438c-1.941406 1.035156-4.355469.367187-5.488282-1.523438-1.128906-1.890625-.578124-4.332031 1.253907-5.554687l66.953125-41.644531-71.296875 41.164062c-1.941407 1.085938-4.390625.441406-5.546875-1.457031-1.152344-1.902344-.597656-4.371094 1.257812-5.59375l128.289063-82.265625-136.109375 78.582031c-1.941406 1.109375-4.417969.46875-5.578125-1.445313-1.160157-1.914062-.582031-4.40625 1.300781-5.617187l109.105469-69.117187-115.613281 66.75c-1.941407 1.109374-4.417969.46875-5.578126-1.445313-1.160156-1.917969-.582031-4.40625 1.300782-5.617187l112.878906-71.671876-119.582031 69.046876c-1.960938 1.167968-4.496094.53125-5.667969-1.429688-1.167969-1.957031-.527344-4.496094 1.429688-5.664062l37.160156-22.898438-40.464844 23.351562c-1.941406 1.113282-4.417969.472657-5.578125-1.445312-1.160156-1.914062-.582031-4.40625 1.300781-5.613281l108.792969-68.90625-115.214844 66.527343c-1.949219 1.1875-4.492187.570313-5.679687-1.375-1.1875-1.949218-.570313-4.488281 1.375-5.679687l131.503906-84.527344-139.636719 80.613281c-1.941406 1.070313-4.378906.414063-5.523437-1.480468-1.144532-1.894532-.59375-4.355469 1.253906-5.578125l94.703125-59.558594-100.3125 57.914063c-1.960937 1.164062-4.492187.519531-5.660156-1.441407-1.164063-1.960937-.519531-4.496093 1.441406-5.660156l4.59375-2.808594-7.019531 4.054688c-1.941406 1.085937-4.390625.441406-5.542969-1.457031-1.15625-1.902344-.601563-4.371094 1.253906-5.59375l122.527344-78.269532-109.832031 63.414063c-1.941406 1.050781-4.367188.386719-5.503906-1.503907-1.140626-1.890624-.589844-4.34375 1.25-5.566406l61.421874-38.398437-16.316406 9.414062c-1.925781 1.046875-4.335937.40625-5.488281-1.460937-1.152344-1.867188-.640625-4.308594 1.160156-5.558594l85.148438-55.695312-28.160157 16.238281c-1.929687 1.078125-4.363281.445312-5.527343-1.433594-1.160157-1.882813-.636719-4.34375 1.195312-5.585937l40.984375-26.964844c-1.726562-.167969-3.160156-1.398438-3.59375-3.074219s.226563-3.445313 1.652344-4.429687l37.664062-25.996094c-.550781-.320313-1.023437-.761719-1.378906-1.289063-1.191406-1.808593-.785156-4.230469.933594-5.550781l32.207031-25.011719c-.695312-1.886719.066407-4 1.808594-5.007812l18.480469-10.644531c1.882812-1.0937505 4.289062-.542969 5.503906 1.265624 1.214844 1.804688.820312 4.246094-.902344 5.574219l-3.992187 3.089844 11.101562-6.425781c1.914063-1.082032 4.34375-.472656 5.519531 1.386718 1.175782 1.859376.6875 4.316407-1.109374 5.582032l-16.730469 11.5625 20.246093-11.6875c1.9375-1.160156 4.449219-.546875 5.636719 1.375s.605469 4.441406-1.300781 5.652344l-29.886719 19.664062 33.71875-19.496094c1.933594-1.101562 4.390625-.46875 5.558594 1.421875 1.164063 1.894531.621094 4.371094-1.230469 5.605469l-85.058594 55.660156 91.730469-52.945312c1.949219-1.125 4.441407-.476563 5.601563 1.453125 1.160156 1.929687.558594 4.429687-1.347656 5.625l-61.34375 38.34375 65.636718-37.890625c1.941406-1.082032 4.390625-.4375 5.542969 1.460937 1.15625 1.898438.597656 4.371094-1.257813 5.59375l-122.558593 78.277344 129.957031-75.023437c1.957031-1.117188 4.449219-.457032 5.597656 1.480468 1.148438 1.9375.53125 4.4375-1.382812 5.621094l-4.824219 2.949219 7.25-4.1875c1.953125-1.179688 4.492187-.554688 5.667969 1.398437 1.179687 1.953125.554687 4.492188-1.398438 5.667969l-94.644531 59.527344 100.253906-57.882813c1.933594-1.0625 4.363281-.417968 5.515625 1.46875 1.148438 1.886719.609375 4.34375-1.222656 5.574219l-131.519531 84.582031 139.644531-80.625c1.953125-1.179687 4.492188-.550781 5.667969 1.398438 1.179687 1.953125.554687 4.492187-1.398438 5.671875l-108.808593 68.878906 115.257812-66.535156c1.953125-1.097657 4.421875-.441407 5.570312 1.480469 1.148438 1.917968.558594 4.40625-1.332031 5.605468l-37.277343 22.964844 40.578124-23.417969c1.941407-1.070312 4.378907-.414062 5.523438 1.480469 1.148438 1.894531.59375 4.355469-1.253906 5.578125l-112.828125 71.640625 119.535156-69.015625c1.953125-1.175781 4.488281-.550781 5.667969 1.402344 1.179687 1.949219.554687 4.488281-1.398438 5.667969l-109.140625 69.136718 115.613281-66.734375c1.9375-1.0625 4.367188-.417969 5.515626 1.46875 1.152343 1.886719.613281 4.34375-1.21875 5.578125l-128.308594 82.273438 136.152344-78.582032c1.957031-1.175781 4.492187-.539062 5.664062 1.417969s.539062 4.492188-1.417969 5.664063l-67 41.636718 71.335938-41.179687c1.957031-1.167969 4.492187-.527344 5.660156 1.429687 1.167969 1.960938.523437 4.496094-1.433594 5.664063l-32.636719 20.050781 35.800782-20.648437c1.945312-1.070313 4.390625-.410157 5.53125 1.496093 1.144531 1.902344.574218 4.371094-1.289063 5.582032l-71.429687 44.496094 75.972656-43.851563c1.953125-1.078125 4.40625-.414063 5.546875 1.503906 1.140625 1.914063.550781 4.390625-1.328125 5.589844l-12.296875 7.539063 14.867187-8.605469c1.941407-1.109375 4.417969-.46875 5.578126 1.445312 1.160156 1.917969.582031 4.40625-1.300782 5.617188l-106.101562 67.136719 112.386718-64.875c1.933594-1.050782 4.355469-.394532 5.496094 1.488281 1.140625 1.882812.605469 4.332031-1.21875 5.566406l-215.023437 137.199219c.539062 1.613281.035156 3.394531-1.273438 4.484375l-41.289062 34.441406c.160156 1.617187-.640625 3.179687-2.046875 3.988281l-9.25 5.34375c-.640625.375-1.371094.566406-2.113282.554688zm0 0" fill="#5e8faa"/><g fill="#262626"><path d="m494.480469 208.21875s-.066407-.054688-.066407-.089844c0-.03125 0-.082031 0-.125 0-.039062.054688-.195312.054688-.277344 0-.390624-.285156-.664062-.707031-.867187l-147.0625-129.785156c-21.867188-19.300781-74.503907-83.886719-105.363281-73.941407-18.992188 6.132813-34.519532 27.421876-49.492188 40.636719l-77.113281 68.054688-87.972657 77.625c-5.0625 4.484375-18.578124 12.785156-21.496093 19.878906-1.023438.617187-1.707031 1.335937-1.707031 2.085937v127.648438c0 37.835938-12.636719 101.714844 9.742187 134.804688.058594.089843.175781.121093.25.195312s0 .214844.105469.289062c7.105468 4.574219 15.054687 7.683594 23.378906 9.144532 0 .601562.828125 1.039062 3.023438 1.039062h3.441406c15.855468 1.183594 31.777344 1.183594 47.632812 0h335.054688c4.78125.074219 9.472656.125 14.039062 0h12.769532c1.894531-.199218 3.722656-.800781 5.367187-1.765625 8.570313-1.636719 16.746094-4.914062 24.070313-9.65625l.214843-.125c.257813-.164062.503907-.261719.761719-.425781.160156-.125.308594-.261719.445312-.414062.265626-.191407.496094-.433594.667969-.710938.050781-.058594.132813-.125.171875-.179688 22.140625-32.746093 9.8125-94.144531 9.8125-131.304687zm-440.105469-33.808594 129.136719-113.960937 26.082031-23.015625c6.78125-7.234375 14.226562-13.808594 22.246094-19.644532 21.132812-12.214843 28.273437-2.914062 45.378906 12.1875 68.320312 60.335938 136.660156 120.644532 205.011719 180.9375l-23.683594 20.898438c-2.476563 2.058594-4.589844 3.824219-5.886719 4.957031-23.171875 20.449219-46.351562 40.902344-69.53125 61.347657-14.683594 12.949218-34.191406 25.945312-46.964844 41.132812-10.191406-10.734375-22.71875-19.992188-33.808593-29.792969-4.527344-4-8.945313-8.40625-13.363281-12.726562-12.195313-12.304688-26.507813-26.121094-43.03125-23.238281-10.761719 2.949218-20.472657 8.882812-28.011719 17.109374-10.445313 9.003907-20.265625 19.539063-30.265625 28.375-.824219.734376-1.765625 1.652344-2.75 2.644532l-20.363282 17.976562-5.78125-5.09375c-.109374-.148437-.222656-.265625-.332031-.414062-13.210937-17.855469-37.886719-33.421875-54.445312-48.027344l-67.113281-59.210938c-2.476563-2.199218-5.945313-5.164062-9.3125-8.101562l-4.0625-3.585938c-2.714844-2.054687-5.113282-4.492187-7.121094-7.242187 1.132812-8.503906 31.53125-27.820313 37.972656-33.511719zm-38.863281 161.445313v-111.433594c6.761719 5.394531 14.632812 10.734375 17.160156 12.925781l51.09375 45.078125 72.808594 64.242188-6.851563 6.058593c-42.519531 37.527344-85.046875 75.058594-127.582031 112.601563-17.953125-34.304687-6.628906-93.566406-6.628906-129.472656zm9.554687 135.746093c0-.066406.082032-.179687.113282-.253906l6.558593-5.78125c.914063-.636718 1.773438-1.347656 2.566407-2.128906.125-.175781.289062-.347656.421874-.523438l43.027344-37.984374c1.210938-1.007813 2.476563-2.015626 3.574219-3.007813 28.363281-25.015625 56.734375-50.023437 85.109375-75.023437l.625-.554688c.238281-.164062.59375-.3125.777344-.46875 1.289062-1.140625 2.78125-2.542969 4.359375-4.074219 18.167969-16.03125 36.335937-32.0625 54.503906-48.101562 20.925781-18.480469 28.789063-11.519531 47.582031 5.078125l37.011719 32.703125 16.054687 14.160156c.6875.636719 1.40625 1.324219 2.023438 1.867187 0 0 .097656 0 .132812.050782l130.585938 115.289062 11.699219 10.332032c-5.261719 2.953124-10.992188 4.972656-16.945313 5.972656h-405.867187c-5.589844-.84375-23.652344-4.964844-23.914063-7.550782zm452.605469-7.339843-129.179687-113.960938-6.820313-6.027343c-.023437-.0625-.039063-.128907-.050781-.191407l86.835937-76.609375c7.042969-6.210937 37.027344-26.492187 54.0625-42.785156v110.300781c0 35.230469 10.828125 93.953125-4.847656 129.273438zm0 0"/><path d="m141.132812 444.9375h214.710938c6.828125 0 9.183594-8.769531 1.054688-8.769531h-214.707032c-6.832031 0-9.183594 8.769531-1.058594 8.769531zm0 0"/></g></svg>