<svg height="506pt" viewBox="0 -1 506.65889 506" width="506pt" xmlns="http://www.w3.org/2000/svg"><g fill="#457393"><path d="m407.242188 446.953125c-1.742188 0-3.308594-1.058594-3.957032-2.671875-.652344-1.613281-.257812-3.460938.996094-4.667969l12.652344-12.246093-19.371094 11.179687c-1.914062 1.097656-4.351562.550781-5.617188-1.257813-1.265624-1.808593-.941406-4.28125.746094-5.707031l6.210938-5.195312-10.519532 6.066406c-1.933593 1.082031-4.371093.507813-5.613281-1.324219-1.246093-1.832031-.882812-4.308594.835938-5.707031l2.710937-2.160156-6.296875 3.636719c-1.90625 1.097656-4.335937.566406-5.609375-1.230469-1.273437-1.792969-.972656-4.261719.695313-5.699219l15.1875-13.089844-21.621094 12.484375c-1.902344 1.105469-4.332031.582031-5.613281-1.203125s-.992188-4.253906.664062-5.699218l20.71875-18.1875-28.648437 16.53125c-1.929688 1.09375-4.378907.527343-5.628907-1.304688-1.253906-1.832031-.890624-4.320312.832032-5.71875l15.019531-11.945312-61.386719 35.445312c-1.324218.839844-3 .890625-4.371094.125-1.367187-.761719-2.207031-2.214844-2.183593-3.78125.019531-1.570312.898437-2.996094 2.285156-3.722656l110.875-64c1.929687-1.078125 4.359375-.503906 5.605469 1.320312 1.242187 1.824219.890625 4.300782-.816406 5.699219l-15.039063 11.949219 16.582031-9.566406c1.902344-1.105469 4.328125-.585938 5.609375 1.203124 1.28125 1.785157.996094 4.253907-.660156 5.699219l-20.683594 18.167969 23.484375-13.550781c1.902344-1.09375 4.328125-.5625 5.601563 1.226562 1.273437 1.789063.980469 4.253907-.679688 5.695313l-15.207031 13.089844 17.066406-9.855469c1.933594-1.105469 4.390625-.535157 5.640625 1.304687 1.253907 1.839844.882813 4.332032-.851562 5.726563l-2.738281 2.175781 2.976562-1.707031c1.914062-1.097657 4.351562-.554688 5.617188 1.253906 1.265624 1.808594.941406 4.285156-.746094 5.707031l-6.1875 5.191406 6.828125-3.945312c1.867187-1.105469 4.265625-.636719 5.578125 1.09375 1.308594 1.730469 1.113281 4.167969-.457032 5.667969l-27.152343 26.289062c.769531 1.96875-.011719 4.203125-1.84375 5.257813l-9.386719 5.390625c-.648438.371093-1.386719.566406-2.132812.566406zm0 0"/><path d="m434.257812 294.9375c-1.929687 0-3.621093-1.296875-4.121093-3.160156-.5-1.867188.316406-3.835938 1.988281-4.800782l66.269531-38.261718c1.898438-1.089844 4.3125-.5625 5.585938 1.21875 1.277343 1.78125.996093 4.234375-.644531 5.683594l-4.582032 4.011718c1.453125-.449218 3.039063-.089844 4.152344.945313 1.371094 1.269531 1.761719 3.28125.957031 4.96875l-2.621093 5.511719c.824218.363281 1.511718.984374 1.957031 1.765624 1.179687 2.039063.484375 4.648438-1.554688 5.828126l-6.691406 3.855468c-1.617187.925782-3.644531.695313-5.011719-.570312-1.367187-1.265625-1.757812-3.273438-.960937-4.957032l1.296875-2.714843-24.53125 14.15625c-1.898438 1.066406-4.292969.535156-5.5625-1.230469-1.265625-1.769531-1-4.210938.621094-5.664062l4.164062-3.652344-28.570312 16.496094c-.648438.375-1.390626.574218-2.140626.570312zm0 0"/><path d="m252.839844 503.332031c-1.730469 0-3.292969-1.046875-3.949219-2.648437-.65625-1.601563-.28125-3.441406.953125-4.65625l8.925781-8.832032-25.277343 14.589844c-1.925782 1.105469-4.375.546875-5.636719-1.28125-1.257813-1.828125-.902344-4.320312.816406-5.722656l14.761719-11.945312-15.539063 8.964843c-1.960937 1.152344-4.480469.566407-5.726562-1.335937-1.246094-1.902344-.785157-4.445313 1.050781-5.789063l4.464844-3.292969-1.707032.980469c-2 1.117188-4.523437.457031-5.71875-1.496093-1.199218-1.949219-.640624-4.5 1.261719-5.773438l50.253907-32.613281-48.230469 27.851562c-2.015625 1.222657-4.640625.574219-5.863281-1.441406-1.21875-2.015625-.574219-4.640625 1.445312-5.863281l7.867188-4.972656-5.316407 3.070312c-2.003906 1.199219-4.597656.566406-5.824219-1.421875-1.226562-1.984375-.628906-4.589844 1.34375-5.839844l72.167969-47.53125-70.53125 40.714844c-2.007812 1.144531-4.566406.484375-5.765625-1.496094-1.199218-1.976562-.601562-4.550781 1.347656-5.800781l23.527344-14.875-21.121094 12.175781c-1.992187 1.085938-4.484374.421875-5.671874-1.507812-1.191407-1.929688-.664063-4.453125 1.199218-5.742188l85.214844-55.808593-91.851562 53.050781c-2.019532 1.113281-4.554688.425781-5.734376-1.550781-1.175781-1.980469-.570312-4.539063 1.371094-5.777344l10.035156-6.136719-16.410156 9.472656c-2.007812 1.105469-4.535156.425781-5.714844-1.542969-1.179687-1.96875-.59375-4.519531 1.332032-5.769531l99.734375-62.3125-109.890625 63.410157c-1.996094 1.070312-4.480469.394531-5.660156-1.542969-1.175782-1.933594-.636719-4.453125 1.230468-5.734375l142.039063-90.921875-155.359375 89.691406c-1.320313.84375-3 .890625-4.367188.125-1.367187-.761719-2.207031-2.214844-2.1875-3.78125.019532-1.566406.898438-2.996094 2.289063-3.722656l316.800781-182.921875c2.003906-1.121094 4.535156-.453125 5.726562 1.507812 1.191407 1.964844.617188 4.515625-1.300781 5.78125l-142.035156 90.921875 159.574219-92.109375c2.003906-1.085937 4.511718-.402344 5.6875 1.550782 1.175781 1.957031.605468 4.492187-1.292969 5.753906l-99.746094 62.308594 96.042969-55.464844c2.023438-1.203125 4.644531-.539063 5.847656 1.488281s.539063 4.644531-1.488281 5.851563l-73.386719 44.890624c1.375.675782 2.285156 2.039063 2.378906 3.566407.09375 1.53125-.636718 2.992187-1.917968 3.832031l-85.207032 55.808594 73.59375-42.484375c2.015626-1.21875 4.640626-.574219 5.855469 1.445312 1.21875 2.015625.574219 4.640625-1.445312 5.855469l-23.558594 14.925781 12.550781-7.253906c2.003906-1.238281 4.636719-.617187 5.875 1.386719 1.238282 2.007812.621094 4.636718-1.386718 5.875l-72.207032 47.53125 61.089844-35.25c2.015625-1.222656 4.640625-.574219 5.859375 1.441406 1.222656 2.019531.578125 4.640625-1.441406 5.863281l-7.679688 4.855469 8.234375-4.753906c2-1.117188 4.523438-.457032 5.71875 1.496094 1.199219 1.953124.640625 4.5-1.261718 5.773437l-119.585938 77.59375c1.070312 1.878906.566406 4.261719-1.171875 5.546875l-5.828125 4.308594c1.933594-.429688 3.910156.527344 4.773438 2.3125.859374 1.785156.378906 3.929687-1.164063 5.171875l-14.734375 11.949219 6.96875-4.027344c1.859375-1.058594 4.214844-.578125 5.507812 1.125 1.296876 1.699218 1.128907 4.097656-.386718 5.605468l-8.933594 8.859376.851562-.46875c1.625-.941407 3.675782-.710938 5.046876.566406 1.375 1.28125 1.75 3.308594.929687 4.996094l-3.757813 7.679687c.429688.332031.789063.75 1.058594 1.21875 1.179688 2.039063.484375 4.648437-1.550781 5.828125l-5.242187 3.023438c-1.625.941406-3.671876.710937-5.046876-.570313s-1.75-3.308594-.925781-4.996094l1.640625-3.335937-17.375 9.949218c-.648437.378907-1.382812.578126-2.132812.574219zm0 0"/><path d="m382.46875 81.726562c-1.929688-.003906-3.621094-1.300781-4.121094-3.164062-.5-1.867188.316406-3.832031 1.988282-4.800781l28.160156-16.210938c2.023437-1.0625 4.527344-.335937 5.671875 1.644531 1.144531 1.980469.523437 4.507813-1.40625 5.734376l-28.160157 16.214843c-.648437.378907-1.382812.578125-2.132812.582031zm0 0"/><path d="m96.117188 446.796875c-1.914063.003906-3.597657-1.265625-4.117188-3.109375-.515625-1.84375.253906-3.804688 1.886719-4.800781l72.355469-44.195313-76.304688 44.066406c-2.015625 1.164063-4.589844.496094-5.789062-1.496093-1.199219-1.996094-.578126-4.582031 1.394531-5.816407l137.941406-85.964843-144.300781 83.320312c-2.003906 1.085938-4.511719.402344-5.6875-1.550781-1.175782-1.957031-.605469-4.492188 1.292968-5.753906l140.800782-87.894532-146.261719 84.394532c-2.019531 1.210937-4.640625.554687-5.851563-1.464844-1.210937-2.023438-.554687-4.644531 1.464844-5.855469l119.210938-73.804687-115.589844 66.730468c-2.023438 1.152344-4.597656.472657-5.785156-1.53125-1.183594-2-.550782-4.585937 1.433594-5.808593l22.3125-13.539063-6.621094 3.8125c-2.007813 1.085938-4.511719.402344-5.6875-1.550781-1.175782-1.957031-.605469-4.492187 1.292968-5.753906l128.160157-80.09375-106.597657 61.542969c-2.015624 1.113281-4.550781.425781-5.730468-1.554688-1.179688-1.976562-.570313-4.535156 1.371094-5.777344l21.546874-13.183594-12.136718 7.007813c-2 1.054687-4.480469.363281-5.644532-1.578125-1.167968-1.941406-.613281-4.457031 1.261719-5.726562l97.277344-60.671876-98.292969 56.746094c-2.023437 1.210938-4.644531.554688-5.855468-1.46875-1.210938-2.019531-.554688-4.640625 1.46875-5.851562l101.375-62.902344-102.101563 58.941406c-2.015625 1.136719-4.570313.457032-5.753906-1.527344-1.1875-1.984374-.578125-4.554687 1.375-5.792968l106.523437-65.800782-106.804687 61.679688c-2.019531 1.152344-4.59375.46875-5.78125-1.53125-1.1875-2.003906-.550781-4.585938 1.429687-5.808594l31.914063-19.378906-30.8125 17.78125c-2.015625 1.21875-4.640625.570312-5.859375-1.445312-1.214844-2.015626-.570313-4.640626 1.449218-5.859376l168.820313-106.664062-178.34375 102.996094c-2.023437 1.210937-4.644531.554687-5.855469-1.46875-1.210937-2.019532-.554687-4.640625 1.46875-5.851563l129.945313-80.8125-145.757813 84.128907c-2.023437 1.214843-4.644531.554687-5.855468-1.464844-1.210938-2.023438-.550782-4.644532 1.46875-5.855469l64.699218-40.054687-76.515625 44.175781c-1.3125.78125-2.941406.804687-4.273437.058593-1.328125-.746093-2.164063-2.144531-2.183594-3.667968-.019531-1.527344.773438-2.949219 2.085938-3.726563l29.433593-18.03125-39.128906 22.585938c-2.011719 1.089843-4.523437.402343-5.695313-1.5625-1.171874-1.964844-.585937-4.507813 1.328126-5.757813l68.070312-42.097656-73.625 42.496094c-2.003906 1.070312-4.492188.386718-5.664062-1.554688-1.171876-1.945312-.621094-4.46875 1.261718-5.738281l117.707032-74.242187-114.132813 65.859374c-1.90625 1.097657-4.328125.566407-5.601563-1.222656-1.273437-1.792968-.980468-4.253906.675782-5.695312l12.09375-10.460938-7.074219 4.078125c-1.566406.902344-3.535156.71875-4.910156-.457031-1.375-1.179688-1.855469-3.097656-1.199219-4.785156l3.625-9.265625c-1.6875-.417969-2.953125-1.820313-3.195312-3.542969-.242188-1.722656.582031-3.417969 2.085937-4.289062l6.691406-3.859376c1.566407-.898437 3.53125-.710937 4.902344.464844 1.367187 1.179688 1.851563 3.089844 1.199219 4.777344l-2.917969 7.492188 35.675781-20.574219c1.90625-1.101563 4.335938-.566407 5.609375 1.226562 1.273438 1.796875.972657 4.265625-.691406 5.703125l-12.085937 10.410156 263.230468-151.964843c2.003906-1.101563 4.519532-.425781 5.707032 1.53125 1.183593 1.960937.609374 4.503906-1.296876 5.765625l-117.761718 74.292968 129.707031-74.863281c2.007813-1.074219 4.503906-.378906 5.671875 1.570313 1.167969 1.953125.601562 4.480468-1.292969 5.742187l-68.070312 42.09375 75.859375-43.792969c1.3125-.777343 2.941406-.800781 4.273437-.054687 1.328125.742187 2.164063 2.140625 2.183594 3.667969s-.773437 2.945312-2.085937 3.726562l-29.421876 18.023438 35.328126-20.394532c2.019531-1.210937 4.640624-.554687 5.851562 1.464844 1.210938 2.023438.554688 4.644532-1.464844 5.855469l-64.769531 40.105469 133.359375-77.003906c2.015625-1.136719 4.566406-.457032 5.753906 1.527343 1.1875 1.988281.578125 4.554688-1.378906 5.792969l-129.882812 80.734375 135.679687-78.359375c2.015625-1.222656 4.640625-.574219 5.863281 1.441406 1.21875 2.015625.574219 4.640625-1.445312 5.863282l-168.863282 106.664062 175.835938-101.546875c2.023438-1.152344 4.59375-.46875 5.78125 1.53125 1.1875 2.003906.550781 4.585937-1.429688 5.808594l-31.878906 19.371093 25.199219-14.480468c2.011719-1.089844 4.523437-.402344 5.695313 1.5625 1.175781 1.964844.585937 4.507812-1.328126 5.757812l-106.488281 65.808594 86.863281-50.148438c2.019532-1.210937 4.640626-.554687 5.851563 1.46875 1.210937 2.019532.554687 4.640626-1.464844 5.851563l-101.546875 63.019531 81.917969-47.265625c2.011719-1.109375 4.539063-.425781 5.71875 1.542969s.589844 4.515625-1.332031 5.769531l-97.117188 60.585938 92.507813-53.425781c2.019531-1.117188 4.554687-.429688 5.734375 1.550781 1.175781 1.980469.570312 4.539062-1.371094 5.777343l-21.503906 13.132813 21.085937-12.167969c2.015625-1.160156 4.589844-.496094 5.785157 1.5 1.199218 1.992188.582031 4.578125-1.390626 5.8125l-128.230468 80.113282 129.457031-74.734376c2.023437-1.152343 4.597656-.472656 5.785156 1.527344 1.183594 2.003906.550781 4.585938-1.433593 5.808594l-22.289063 13.550781 21.335937-12.320312c2.007813-1.074219 4.5-.382813 5.667969 1.570312 1.171875 1.953125.601563 4.480469-1.292969 5.742188l-119.148437 73.761719 119.066406-68.753907c2.003907-1.085937 4.511719-.402343 5.6875 1.554688 1.175781 1.953125.605469 4.488281-1.292969 5.75l-140.800781 87.960937 151.660157-87.585937c2.023437-1.210938 4.644531-.550781 5.855468 1.46875 1.210938 2.023437.554688 4.644531-1.46875 5.855469l-137.929687 85.953124 154.375-89.121093c2.015625-1.113281 4.554687-.425781 5.730469 1.554687 1.179687 1.980469.570312 4.535156-1.371094 5.777344l-336.484375 205.550781c-.363281.855469-.996094 1.566407-1.800781 2.03125l-28.117188 16.210938c-.648438.382812-1.382812.589843-2.132812.597656zm0 0"/><path d="m214.710938 75.042969c-1.800782-.003907-3.410157-1.136719-4.011719-2.835938-.605469-1.695312-.078125-3.589843 1.316406-4.734375l24.949219-20.300781-16.621094 9.601563c-1.921875 1.136718-4.398438.59375-5.671875-1.242188-1.273437-1.832031-.917969-4.339844.816406-5.746094l17.921875-14.761718-9.925781 5.707031c-1.882813 1.144531-4.332031.667969-5.644531-1.105469-1.3125-1.769531-1.058594-4.25.585937-5.722656l7.679688-7.242188c-1.625.839844-3.605469.550782-4.921875-.71875-1.316406-1.269531-1.675782-3.234375-.898438-4.890625l4.136719-8.820312c-.476563-.355469-.878906-.800781-1.175781-1.316407-1.179688-2.039062-.484375-4.644531 1.550781-5.828124l5.242187-3.019532c1.609376-.910156 3.621094-.675781 4.984376.578125 1.359374 1.25 1.757812 3.234375.988281 4.917969l-2.261719 4.820312 19.625-11.339843c1.886719-1.148438 4.332031-.667969 5.644531 1.105469 1.316407 1.769531 1.0625 4.25-.582031 5.71875l-7.679688 7.21875 22.792969-13.097657c1.917969-1.105469 4.367188-.558593 5.632813 1.261719 1.265625 1.816406.925781 4.304688-.777344 5.71875l-17.921875 14.761719 18.527344-10.691407c1.921875-1.078124 4.351562-.515624 5.601562 1.300782s.914063 4.285156-.78125 5.699218l-24.960937 20.308594 22.980468-13.269531c2.027344-1.0625 4.527344-.335937 5.671876 1.644531 1.144531 1.980469.523437 4.507813-1.40625 5.734375l-69.273438 40.015625c-.644531.375-1.382812.574219-2.132812.570313zm0 0"/><path d="m80.269531 211.773438c-1.894531.003906-3.566406-1.238282-4.105469-3.054688-.539062-1.816406.183594-3.769531 1.777344-4.796875l73.617188-47.785156-62.464844 36.058593c-2.019531 1.222657-4.644531.578126-5.863281-1.441406-1.222657-2.015625-.574219-4.640625 1.441406-5.859375l22.425781-14.167969-11.410156 6.589844c-1.957031.921875-4.300781.230469-5.445312-1.609375-1.140626-1.839843-.722657-4.246093.976562-5.59375l65.234375-42.667969-53.878906 31.113282c-2.011719 1.222656-4.636719.582031-5.859375-1.433594-1.226563-2.015625-.582032-4.640625 1.433594-5.863281l19.785156-12.601563-20.691406 11.945313c-1.882813 1.078125-4.269532.574219-5.554688-1.171875s-1.058594-4.179688.527344-5.65625l27.707031-25.554688-32 18.457032c-1.945313 1.101562-4.410156.511718-5.648437-1.347657-1.242188-1.859375-.835938-4.363281.929687-5.734375l4.449219-3.414062-4.875 2.816406c-1.859375 1.074219-4.230469.59375-5.527344-1.117188-1.300781-1.710937-1.125-4.121093.40625-5.625l22.503906-22-26.453125 15.25c-1.910156 1.070313-4.320312.523438-5.578125-1.269531-1.257812-1.789062-.957031-4.242187.695313-5.675781l9.320312-7.875-10.367187 5.972656c-1.90625 1.078125-4.320313.542969-5.585938-1.246094-1.269531-1.789062-.972656-4.246093.679688-5.683593l7.355468-6.304688-2.125 1.21875c-1.894531 1.078125-4.292968.554688-5.570312-1.210937-1.273438-1.765625-1.015625-4.210938.601562-5.667969l22.640626-20.070313c-.421876-1.832031.402343-3.722656 2.03125-4.660156l9.652343-5.570312c1.890625-1.078125 4.292969-.554688 5.566407 1.210937 1.277343 1.765625 1.015624 4.207031-.601563 5.667969l-2.023437 1.789062 5.417968-3.121093c1.910156-1.101563 4.347656-.570313 5.617188 1.230469 1.273437 1.800781.96875 4.273437-.707032 5.707031l-7.390624 6.332031 12.015624-6.9375c1.910157-1.09375 4.339844-.550781 5.605469 1.253906 1.265625 1.800782.953125 4.273438-.726562 5.699219l-9.316407 7.867187 14.316407-8.257812c1.863281-1.074219 4.230469-.597656 5.53125 1.113281 1.296875 1.710938 1.121093 4.121094-.410157 5.625l-22.484374 22.035157 32.46875-18.773438c1.945312-1.125 4.433593-.546875 5.683593 1.324219 1.246094 1.871093.828125 4.390625-.957031 5.757812l-4.402344 3.363281 8.242188-4.753906c1.882812-1.078125 4.269531-.574218 5.554687 1.171875 1.285157 1.746094 1.058594 4.179688-.527343 5.65625l-27.707032 25.597657 156.925782-90.597657c1.304687-.789062 2.929687-.828125 4.265624-.09375 1.339844.734375 2.183594 2.125 2.214844 3.648438.035156 1.523437-.746094 2.949219-2.050781 3.742187l-19.789063 12.585938 17.367188-10.019532c1.988281-1.054687 4.453125-.386718 5.632812 1.53125 1.183594 1.917969.667969 4.425782-1.171874 5.722657l-65.246094 42.667969 63.472656-36.640626c2.015625-1.222656 4.640625-.578124 5.859375 1.441407 1.222656 2.015625.578125 4.640625-1.441406 5.859375l-22.628907 14.304687 20.214844-11.675781c2.011719-1.230469 4.640625-.601562 5.871094 1.410156 1.234375 2.007813.601562 4.636719-1.40625 5.871094l-73.574219 47.71875 78.503907-45.3125c1.324218-.839844 3-.890625 4.367187-.125 1.371094.761719 2.210937 2.214844 2.1875 3.78125-.019531 1.566406-.898437 2.996094-2.289063 3.722656l-221.105468 127.644532c-.648438.371093-1.386719.5625-2.132813.5625zm0 0"/></g><path d="m253.351562 366.824219c-1.859374.023437-3.523437-1.160157-4.109374-2.925781-.585938-1.765626.042968-3.707032 1.546874-4.796876l40.414063-29.5-59.015625 34.0625c-1.984375 1.210938-4.574219.605469-5.820312-1.355468-1.246094-1.960938-.691407-4.5625 1.246093-5.84375l47.453125-32.90625-60.117187 34.757812c-1.980469 1.132813-4.507813.503906-5.722657-1.429687-1.21875-1.929688-.703124-4.480469 1.175782-5.78125l61.953125-42.597657-72.789063 42.015626c-2.011718 1.179687-4.59375.527343-5.800781-1.460938-1.210937-1.988281-.605469-4.582031 1.363281-5.824219l15.554688-10.042969-20.085938 11.613282c-1.992187 1.152344-4.542968.519531-5.761718-1.433594s-.667969-4.523438 1.246093-5.804688l69.828125-47.050781-77.140625 44.535157c-1.992187 1.214843-4.589843.605468-5.832031-1.367188-1.246094-1.976562-.671875-4.582031 1.285156-5.851562l86.296875-58.992188-92.691406 53.519531c-2.011719 1.230469-4.636719.59375-5.863281-1.417969-1.230469-2.015624-.59375-4.640624 1.417968-5.867187l33.28125-21.335937-34.84375 20.113281c-1.996093 1.1875-4.574218.558593-5.800781-1.414063-1.226562-1.972656-.648437-4.5625 1.296875-5.828125l73.667969-49.136719-75.945313 43.863282c-1.996093 1.183594-4.578124.554687-5.804687-1.417969-1.226563-1.96875-.648437-4.5625 1.296875-5.828125l70.75-47.136719-71.039062 41.007813c-1.984376 1.101562-4.484376.453125-5.6875-1.46875-1.199219-1.925782-.683594-4.457032 1.171874-5.757813l73.882813-49.875-73.003906 42.144531c-2.007813 1.148438-4.566407.484376-5.765625-1.492187-1.199219-1.980469-.601563-4.554687 1.347656-5.804687l4.113281-2.609376-.65625.367188c-1.996093 1.082031-4.492187.414062-5.675781-1.523438-1.1875-1.9375-.644531-4.464843 1.226562-5.75l20.625-13.34375-16.65625 9.609376c-1.972656 1.0625-4.4375.414062-5.632812-1.480469-1.195312-1.898438-.71875-4.398438 1.09375-5.722657l55.894531-38.316406-49.648437 28.671875c-2.003906 1.199219-4.597656.566407-5.824219-1.417969-1.222656-1.988281-.625-4.589843 1.34375-5.84375l9.046875-5.972656-1.152344.65625c-1.980468 1.121094-4.488281.488282-5.703125-1.433594-1.214843-1.921874-.710937-4.457031 1.144531-5.765624l24.953126-17.214844-13.953126 8.046875c-1.898437 1.101562-4.320312.582031-5.601562-1.199219s-1.003906-4.246094.644531-5.695312l31.042969-27.375c-2.066406.59375-4.257812-.445313-5.101562-2.425782-.84375-1.984375-.078126-4.28125 1.785156-5.363281l35.589844-20.546875c1.898437-1.101562 4.324218-.582031 5.605468 1.199219s1 4.246093-.644531 5.695312l-30.59375 26.972657 68.828125-39.730469c1.976562-1.078125 4.449219-.441407 5.652344 1.460937 1.203125 1.898438.722656 4.40625-1.09375 5.730469l-24.882813 17.171875 38.160157-22.027344c2-1.132812 4.539062-.484375 5.742187 1.472656 1.207031 1.957032.644531 4.519532-1.269531 5.789063l-9.046875 5.976563 16.460937-9.5c1.976563-1.0625 4.4375-.417969 5.632813 1.480468 1.199219 1.898438.71875 4.398438-1.09375 5.722656l-55.910157 38.324219 66.792969-38.613281c2.007813-1.230469 4.636719-.597656 5.867188 1.410156 1.226562 2.011719.597656 4.636719-1.414063 5.867188l-20.640625 13.347656 26.160157-15.097656c2.003906-1.121094 4.535156-.453125 5.730468 1.507812 1.191406 1.964844.617188 4.515625-1.300781 5.78125l-4.09375 2.558594 6.824219-3.957031c1.984375-1.101563 4.484375-.453125 5.6875 1.46875 1.203125 1.925781.6875 4.457031-1.171875 5.757812l-73.882813 49.867188 80.8125-46.640625c1.984375-1.085938 4.472656-.429688 5.667969 1.492187s.679687 4.441407-1.171875 5.742188l-70.765625 47.164062 75.289063-43.46875c1.988281-1.113281 4.5-.46875 5.707031 1.464844 1.207031 1.9375.675781 4.476563-1.203125 5.769531l-73.703125 49.152344 76.503906-44.160156c2.007813-1.175782 4.589844-.523438 5.800781 1.464844 1.210938 1.988281.601563 4.578124-1.363281 5.824218l-33.144531 21.289063 33.613281-19.402344c1.980469-1.101563 4.476563-.464844 5.683594 1.453125s.703125 4.445312-1.144531 5.757812l-86.246094 59.058594 86.785156-50.089844c1.992188-1.15625 4.539062-.523437 5.757812 1.433594 1.21875 1.953125.667969 4.519532-1.246093 5.800782l-69.808594 47.035156 67.734375-39.105469c2-1.101563 4.511719-.433594 5.699219 1.515625s.632812 4.488281-1.261719 5.761719l-15.761719 10.136719 12.367188-7.132813c1.976562-1.089844 4.460937-.449219 5.664062 1.457031 1.207031 1.910156.714844 4.425782-1.117187 5.746094l-61.875 42.539062 55.773437-32.207031c1.988281-1.207031 4.574219-.605469 5.820313 1.359375 1.246094 1.960938.691406 4.558594-1.246094 5.84375l-47.460938 32.902344 38.578126-22.277344c1.964843-1.148437 4.484374-.550781 5.726562 1.355469s.769531 4.453125-1.074219 5.785156l-40.398437 29.492188 26.085937-15.078125c1.9375-1.09375 4.390625-.519532 5.636719 1.324218 1.242188 1.84375.863281 4.335938-.875 5.722657l-20.703125 16.257812c1.839844.1875 3.351563 1.539063 3.738281 3.347657.390625 1.808593-.429687 3.660156-2.03125 4.585937l-44.789062 25.855469c-1.9375 1.117187-4.410156.546875-5.664063-1.304688-1.253906-1.851562-.863281-4.359375.894531-5.742187l16.101563-12.644531-43.136719 24.890624c-.632812.378907-1.351562.585938-2.089844.597657zm0 0" fill="#365972"/><path d="m255.621094 315.324219c-1.835938 0-3.46875-1.175781-4.046875-2.917969-.582031-1.742188.015625-3.660156 1.488281-4.761719l.851562-.648437-10.992187 6.339844c-1.953125 1.113281-4.4375.515624-5.671875-1.367188-1.238281-1.878906-.800781-4.394531.996094-5.75l12.742187-9.480469-20.933593 12.082031c-1.949219 1.128907-4.433594.546876-5.683594-1.324218-1.246094-1.871094-.828125-4.390625.957031-5.757813l31.402344-24.035156-39.527344 22.816406c-1.9375 1.117188-4.410156.546875-5.664063-1.304687-1.25-1.855469-.863281-4.359375.894532-5.742188l43.519531-34.074218-49.816406 28.757812c-1.960938 1.148438-4.480469.5625-5.730469-1.339844-1.246094-1.902344-.785156-4.445312 1.054688-5.789062l34.542968-25.597656-35.839844 20.691406c-1.96875 1.058594-4.421874.421875-5.621093-1.460938-1.203125-1.886718-.746094-4.378906 1.046875-5.714844l7.816406-5.402343-5.871094 3.414062c-1.960937 1.105469-4.441406.5-5.671875-1.386719-1.230469-1.882812-.78125-4.398437 1.019531-5.746093l22.359376-16.332031-19.066407 10.988281c-1.90625 1.105469-4.34375.570312-5.617187-1.230469-1.273438-1.800781-.964844-4.273438.710937-5.707031l32.027344-27.457031-22.253906 12.796874c-1.894531 1.0625-4.28125.535157-5.550781-1.226562-1.269532-1.757812-1.015626-4.191406.589843-5.648438l13.5625-12.023437c-.917969-.34375-1.6875-.996094-2.175781-1.84375-1.179688-2.042969-.480469-4.652344 1.558594-5.828125l27.019531-15.589844c1.894531-1.082031 4.300781-.558594 5.574219 1.210938 1.273437 1.773437 1.007812 4.21875-.617188 5.671875l-7.679687 6.769531 25.453125-14.6875c1.90625-1.078125 4.320312-.542969 5.585937 1.246094 1.265625 1.789062.972657 4.246094-.679687 5.683594l-32.015625 27.460937 48.214843-27.84375c1.957032-1.105469 4.441407-.5 5.667969 1.382813 1.230469 1.886718.785157 4.402343-1.019531 5.75l-22.398438 16.367187 27.902344-16.101563c1.972656-1.078124 4.445313-.441406 5.648438 1.460938 1.203125 1.898438.726562 4.40625-1.089844 5.730469l-7.792969 5.394531 9.855469-5.691406c1.960938-1.152344 4.480469-.5625 5.730469 1.335937 1.246093 1.902344.785156 4.449219-1.054688 5.789063l-34.550781 25.601562 37.265625-21.503906c1.9375-1.117188 4.410156-.546875 5.664063 1.304688 1.253906 1.851562.863281 4.359374-.894532 5.742187l-43.519531 34.089844 43.945313-25.367188c1.949218-1.101562 4.414062-.515625 5.652343 1.347657 1.242188 1.859374.835938 4.363281-.929687 5.734374l-31.351563 24.011719 27.457031-15.878906c1.960938-1.140625 4.464844-.550781 5.710938 1.339844s.796875 4.425781-1.023438 5.773437l-12.800781 9.515625 5.691407-3.285156c1.945312-1.101563 4.410156-.511719 5.652343 1.347656 1.238281 1.863281.832031 4.363281-.933593 5.734375l-7.9375 6.050782c1.710937.390624 3.007812 1.785156 3.273437 3.519531.261719 1.734375-.558594 3.453125-2.078125 4.332031l-47.886719 27.648438c-.640625.386718-1.371093.597656-2.117187.613281zm0 0" fill="#b4df80"/><path d="m5.074219 282.097656 47.914062 9.605469c3.96875.792969 19.464844 1.402344 22.390625 4.488281 3.628906 3.832032 10.105469 30.652344 12.621094 37.546875 6.589844 18.050781 6.222656 14.59375-5.777344 32.589844l-27.101562 40.652344c-.578125 1.054687-.492188 2.34375.222656 3.3125 11.464844 13.464843 24 25.976562 37.488281 37.417969 2.335938 1.996093 6.6875.640624 8.847657-.800782l40.652343-27.09375c3.21875-2.152344 8.976563-7.476562 13.953125-10.503906.988282 1.78125 10.085938 3.914062 13.269532 5.792969 9.027343 5.339843 31.179687 7.558593 37.664062 14.222656 3.167969 3.261719 3.636719 18.136719 4.488281 22.394531 3.203125 15.972656 6.40625 31.945313 9.609375 47.914063.339844 1.707031 2.476563 2.558593 4.003906 2.703125 17.734376 1.453125 35.5625 1.453125 53.296876 0 3.078124-.027344 5.808593-1.984375 6.828124-4.886719l9.597657-47.917969c5.171875-25.761718 7.101562-19.984375 31.574219-30.625 3.703124-1.605468 22.929687-7.679687 20.558593-10.164062 5.769531 3.527344 11.265625 7.488281 16.433594 11.847656l40.652344 27.101562c2.855469 1.484376 6.3125 1.171876 8.851562-.804687 13.558594-11.472656 26.164063-24.03125 37.691407-37.546875 1.207031-1.148438 1.425781-2.996094.519531-4.394531-10.683594-16.03125-28.664063-34.464844-34.988281-52.46875-5.648438-16.121094 9.710937-37.308594 16.597656-57.097657l67.566406-13.542968c2.015625-.410156 4.976562-2.277344 5.121094-4.597656 1.410156-17.59375 1.382812-35.269532-.078125-52.855469-.144531-1.828125-2.644531-2.433594-4-2.707031l-47.828125-9.625c-3.96875-.792969-19.464844-1.398438-22.394532-4.488282-3.625-3.839844-10.101562-30.652344-12.617187-37.546875-6.589844-18.046875-6.222656-14.59375 5.773437-32.589843l27.105469-40.652344c.574219-1.050782.488281-2.34375-.222656-3.3125-11.464844-13.460938-24.003906-25.976563-37.488281-37.417969-2.339844-1.996094-6.691406-.640625-8.847656.804687l-40.652344 27.089844c-3.21875 2.152344-8.980469 7.476563-13.953125 10.507813-.992188-1.785157-10.085938-3.917969-13.269531-5.804688-9.027344-5.332031-31.179688-7.550781-37.667969-14.214843-3.164063-3.261719-3.632813-18.132813-4.488281-22.390626-3.195313-15.976562-6.398438-31.949218-9.605469-47.917968-.34375-1.707032-2.476563-2.558594-4.003907-2.703125-17.738281-1.4531252-35.5625-1.4531252-53.300781 0-3.078125.027343-5.808593 1.984375-6.824219 4.890625l-9.617187 47.894531c-5.171875 25.761719-7.101563 19.988281-31.574219 30.628906-3.703125 1.601563-22.929687 7.679688-20.558594 10.160157-5.769531-3.523438-11.261718-7.484376-16.433593-11.84375l-40.667969-27.101563c-2.855469-1.484375-6.3125-1.171875-8.851562.804687-13.558594 11.472657-26.164063 24.03125-37.691407 37.546876-1.207031 1.148437-1.425781 2.992187-.519531 4.394531l27.09375 40.652343c14.113281 21.160157 11.792969 17.40625 1.46875 41.164063-10.660156 24.550781-3.882812 26.453125-29.867188 31.691406l-47.882812 9.636719c-2.011719.40625-4.972656 2.277344-5.117188 4.597656-1.410156 17.589844-1.382812 35.269532.074219 52.855469.101563 1.828125 2.601563 2.433594 3.960938 2.707031zm12.9375-53.925781c7.066406-2.585937 14.488281-4.074219 22.003906-4.410156l39.871094-7.988281c2.433593-.464844 4.417969-2.230469 5.160156-4.597657 5.785156-18.566406 13.261719-36.5625 22.332031-53.761719.554688-1.054687.472656-2.332031-.210937-3.308593l-22.554688-33.835938c-4.882812-5.671875-9.070312-11.910156-12.46875-18.578125-2.722656-12.140625-1.75-6.390625 6.828125-18.363281 5.898438-5.765625 10.902344-12.382813 14.847656-19.625l7.175782 4.785156c5.710937 1.023438 14.0625 9.386719 18.644531 12.425781l33.871094 22.5625c2.339843 1.234376 5.140625 1.234376 7.484375 0 17.035156-8.992187 34.867187-16.390624 53.261718-22.109374 2.433594-.472657 4.414063-2.238282 5.164063-4.601563l7.988281-39.867187c.570313-7.476563 2.050782-14.855469 4.410156-21.972657 6.828126-10.199219 1.707032-7.039062 20.15625-5.820312 17.613282 1.160156 15.703126-3.625 23.039063 7.988281 2.523437 7.074219 4.003906 14.472656 4.40625 21.972656l7.992187 39.867188c.410157 1.171875 1.367188 2.070312 2.5625 2.40625 18.535157 5.714844 36.503907 13.125 53.683594 22.128906 2.871094 1.382812 6.269532 1.074219 8.847656-.804688l33.835938-22.550781c5.679688-4.886719 11.9375-9.0625 18.636719-12.425781l7.183593-4.789062c3.601563 8.011718 8.710938 15.253906 15.042969 21.335937 14.988281 17.347656 7.085938 19.558594-5.261719 38.09375l-22.589843 33.859375c-.550781 1.054688-.46875 2.332031.214843 3.308594 9.027344 17.234375 16.453126 35.257812 22.1875 53.847656.527344 1.851562 2.335938 2.371094 4 2.703125l39.875 7.996094c7.472657.578125 14.847657 2.058593 21.964844 4.402343l8.464844 1.707032c-.960938 9.558594-1.527344 19.136718-1.703125 28.742187-.855469 15.273438 4.683594 9.617188-5.710937 16.699219-7.050782 2.59375-14.457032 4.09375-21.964844 4.445312l-39.867188 7.988282c-3.039062.613281-4.488281 2.21875-4.734375 3.875-.167969.226562-.308593.46875-.429687.722656-5.78125 18.566406-13.257813 36.5625-22.332032 53.761719-.550781 1.054687-.46875 2.332031.214844 3.308593l22.554688 33.835938c4.878906 5.660156 9.066406 11.882812 12.464844 18.535156 2.722656 12.140625 1.707031 6.390625-6.824219 18.363282-5.898438 5.765624-10.902344 12.382812-14.847657 19.625l-7.179687-4.785157c-5.707031-1.023437-14.0625-9.386719-18.644531-12.425781l-33.867188-22.5625c-2.34375-1.230469-5.140625-1.230469-7.484375 0-17.039062 8.992188-34.867187 16.390625-53.265625 22.109375-2.433594.472656-4.414062 2.238281-5.160156 4.601563l-7.988281 39.867187c-.570313 7.476563-2.054688 14.855469-4.414063 21.972656-6.824218 10.242188-1.707031 7.039063-20.152344 5.820313-17.613281-1.160156-15.703124 3.628906-23-7.988282-2.519531-7.070312-4.003906-14.472656-4.402343-21.972656-2.664063-13.289062-5.328125-26.578125-7.996094-39.867187-.40625-1.175781-1.363281-2.074219-2.558594-2.40625-18.535156-5.71875-36.503906-13.125-53.683593-22.125-2.871094-1.386719-6.273438-1.078125-8.851563.800781l-33.832031 22.554688c-5.683594 4.882812-11.941406 9.054687-18.636719 12.421874l-7.1875 4.789063c-3.597656-8.011719-8.707031-15.253906-15.042969-21.335937-14.984375-17.347657-7.082031-19.558594 5.265625-38.089844l22.554688-33.828125c.550781-1.054688.46875-2.332031-.214844-3.308594-9.027344-17.234375-16.453125-35.257813-22.1875-53.847656-.5625-1.875-2.355469-2.40625-3.976563-2.730469l-39.875-7.996094c-7.472656-.578125-14.847656-2.054687-21.964843-4.402344l-8.464844-1.707031c.960937-9.5625 1.53125-19.144531 1.707031-28.738281.742188-15.277344-4.789062-9.617188 5.632813-16.703125zm0 0" fill="#262626"/><path d="m251.207031 367.285156c.179688 0 .367188-.0625.546875-.070312.34375.058594.691406.089844 1.042969.09375 62.753906-3.171875 117.757813-49.996094 117.757813-115.90625-.722657-63.535156-52.3125-114.71875-115.847657-114.945313-60.078125.101563-110.664062 44.945313-117.972656 104.578125-7.117187 69.261719 47.964844 122.878906 114.472656 126.25zm.796875-221.277344c134.886719 1.285157 138.484375 204.738282 2.5 212.246094-49.914062-2.925781-93.339844-35.054687-103.648437-85.699218-12.816407-62.964844 35.390625-127.179688 101.148437-126.546876zm0 0" fill="#262626"/><path d="m248.339844 314.460938c.808594.253906 1.660156.339843 2.503906.25 32.792969-1.765626 64.203125-22.1875 68.035156-57.234376 1.648438-17.660156-4.269531-35.1875-16.285156-48.234374-12.015625-13.046876-29-20.386719-46.734375-20.195313-32.578125-.53125-60.929687 22.175781-67.523437 54.085937-6.417969 38.871094 23.472656 68.136719 60.003906 71.328126zm2.503906-119.21875c67.199219-1.167969 77.011719 109.382812 5.015625 113.273437-66.320313-3.585937-77.773437-111.992187-5.015625-113.273437zm0 0" fill="#262626"/></svg>