<svg height="510pt" viewBox="0 -20 510.94152 510" width="510pt" xmlns="http://www.w3.org/2000/svg"><path d="m15.480469 463.117188c-1.882813-.003907-3.539063-1.242188-4.082031-3.042969-.539063-1.800781.164062-3.746094 1.734374-4.785157l36.078126-23.839843-39.109376 22.578125c-1.992187 1.132812-4.523437.488281-5.734374-1.457032-1.207032-1.949218-.660157-4.503906 1.238281-5.789062l50.535156-33.644531-46.039063 26.570312c-1.976562 1.105469-4.46875.472657-5.683593-1.4375-1.210938-1.910156-.722657-4.4375 1.121093-5.753906l77.445313-53.761719-72.882813 42.078125c-2.003906 1.121094-4.535156.453125-5.726562-1.507812-1.191406-1.960938-.617188-4.515625 1.296875-5.777344l3.476563-2.21875c-2.03125.570313-4.171876-.421875-5.046876-2.34375-.871093-1.917969-.210937-4.1875 1.554688-5.335937l22.023438-14.277344-17.578126 10.179687c-1.996093 1.082031-4.488281.414063-5.675781-1.523437-1.183593-1.9375-.644531-4.464844 1.230469-5.746094l17.707031-11.503906-13.261719 7.679687c-1.984374 1.101563-4.484374.453125-5.683593-1.472656-1.203125-1.925781-.6875-4.453125 1.171875-5.753906l58.5625-39.398438-54.058594 31.207031c-1.992188 1.132813-4.523438.488282-5.734375-1.460937-1.210937-1.945313-.664063-4.503906 1.238281-5.785156l53.496094-35.746094-49 28.277344c-1.984375 1.101562-4.484375.453125-5.6875-1.46875-1.199219-1.925781-.6875-4.457031 1.171875-5.757813l60.714844-40.960937-56.199219 32.429687c-1.980469 1.085938-4.464844.4375-5.667969-1.476562-1.199219-1.917969-.695312-4.433594 1.144531-5.742188l62.96875-42.667968-58.445312 33.773437c-2.003906 1.121094-4.535156.453125-5.726562-1.507813-1.195313-1.960937-.621094-4.515624 1.296874-5.777343l3.753907-2.390625c-2.019531.730468-4.265625-.15625-5.242188-2.070313-.980469-1.910156-.386719-4.253906 1.386719-5.464843l73.695312-50.773438-69.121093 39.910156c-1.992188 1.132813-4.527344.488282-5.734375-1.457031-1.210938-1.949219-.664063-4.503906 1.238281-5.789063l49.996094-33.277343-45.542969 26.273437c-1.976562 1.136719-4.5.511719-5.722656-1.410156-1.226563-1.925781-.71875-4.472656 1.148437-5.785156l79.472657-55.386719-74.898438 43.238281c-1.988281 1.097656-4.492188.441406-5.6875-1.488281-1.199219-1.933594-.671875-4.464844 1.199219-5.757813l45.148437-29.867187-40.660156 23.457031c-1.992188 1.15625-4.539062.523438-5.757812-1.433594-1.21875-1.953124-.667969-4.519531 1.242187-5.800781l60.160156-40.609375-55.644531 32.167969c-1.992188 1.117187-4.511719.464844-5.710938-1.480469-1.203124-1.941406-.660156-4.488281 1.230469-5.769531l43.851563-29.015625-39.371094 22.757812c-1.988281 1.117188-4.503906.46875-5.707031-1.464843-1.207031-1.9375-.675781-4.476563 1.203125-5.769531l56.113281-37.640626-51.609375 29.796876c-2.007812 1.179687-4.589844.527343-5.800781-1.460938-1.210938-1.988281-.605469-4.582031 1.363281-5.824219l10.28125-6.597656-5.84375 3.414063c-1.988281 1.132812-4.515625.496093-5.730469-1.445313-1.210937-1.9375-.679687-4.492187 1.207031-5.785156l62.644532-42.433594-58.121094 33.550781c-1.988281 1.15625-4.53125.527344-5.753906-1.417968-1.222656-1.945313-.6875-4.507813 1.214844-5.800782l68.71875-46.921875-64.179688 37.03125c-2.003906 1.140625-4.550781.484375-5.75-1.484375-1.203125-1.964844-.625-4.53125 1.304688-5.792968l18.347656-11.851563-13.902344 8.019531c-1.984375 1.132813-4.507812.503906-5.726562-1.425781-1.21875-1.933594-.699219-4.484375 1.179687-5.785156l71.160156-48.820313-66.613281 38.460938c-1.957031 1.007812-4.359375.359375-5.546875-1.496094-1.183594-1.855469-.761719-4.308594.972656-5.664062l79.222657-55.191407-74.648438 43.058594c-2.015625 1.222656-4.640625.582031-5.863281-1.433594-1.222657-2.015625-.578125-4.640625 1.433593-5.863281l4.269532-2.730469c-2.078125.613281-4.285156-.421875-5.136719-2.410156s-.078125-4.300781 1.796875-5.378906l160.863281-92.859375c2.003907-1.121094 4.535157-.457032 5.726563 1.507812 1.195312 1.960938.621094 4.515625-1.296875 5.777344l-3.636719 2.320312c2.015625-.675781 4.222656.234376 5.175781 2.132813s.359375 4.210937-1.386719 5.421875l-79.25 55.210938 74.683594-43.121094c1.992188-1.214844 4.589844-.605469 5.835938 1.367187 1.242187 1.972657.671875 4.582031-1.285156 5.851563l-71.136719 48.792968 66.5625-38.398437c2.003906-1.140625 4.550781-.484375 5.75 1.484375 1.203125 1.96875.625 4.53125-1.304688 5.792969l-18.355469 11.863281 13.945313-8.046875c1.984375-1.152344 4.527344-.527344 5.75 1.417969 1.226563 1.945312.6875 4.507812-1.210937 5.800781l-68.710938 46.933594 64.179688-37.085938c1.988281-1.132812 4.515624-.496093 5.730468 1.445313 1.210938 1.9375.679688 4.488281-1.207031 5.78125l-62.59375 42.351562 58.070313-33.527344c2.015624-1.226562 4.640624-.585937 5.867187 1.429688 1.222656 2.015625.585937 4.640625-1.429687 5.867188l-10.351563 6.636718 5.921875-3.410156c1.988281-1.117188 4.503906-.46875 5.707031 1.464844 1.207031 1.9375.675781 4.476562-1.203125 5.769531l-56.113281 37.632813 51.609375-29.789063c1.992188-1.117187 4.511719-.464844 5.710938 1.480469 1.203124 1.945312.660156 4.488281-1.230469 5.773437l-43.851563 29.011719 39.378906-22.734375c1.992188-1.152344 4.542969-.519531 5.761719 1.433594s.664063 4.523437-1.246093 5.804687l-60.203126 40.550782 55.6875-32.144532c1.996094-1.160156 4.554688-.519531 5.769532 1.445313 1.214844 1.960937.648437 4.535156-1.28125 5.804687l-45.15625 29.867188 40.675781-23.464844c1.980469-1.136719 4.5-.515625 5.726563 1.410156 1.222656 1.925782.714843 4.472656-1.152344 5.78125l-79.46875 55.410156 74.90625-43.25c1.992187-1.132812 4.523437-.488281 5.734375 1.460938 1.207031 1.945312.660156 4.503906-1.238281 5.785156l-50.03125 33.28125 45.535156-26.292968c1.976562-1.117188 4.484375-.488282 5.703125 1.433593 1.214843 1.921875.710937 4.460938-1.148438 5.769531l-73.695312 50.78125 69.121093-39.917968c2.015626-1.222656 4.640626-.582032 5.863282 1.433594 1.222656 2.015624.582031 4.640624-1.433594 5.863281l-3.730469 2.378906c2.027344-.730469 4.277344.164063 5.253907 2.082031.972656 1.921875.363281 4.265625-1.421876 5.46875l-62.914062 42.589844 58.382812-33.714844c2-1.246094 4.632813-.640625 5.878907 1.359375 1.25 1.996094.640625 4.628907-1.355469 5.878907l-60.75 40.960937 56.234375-32.429687c1.992187-1.113282 4.503906-.46875 5.710937 1.46875 1.203126 1.933593.675782 4.476562-1.203124 5.769531l-53.503907 35.769531 49.03125-28.3125c1.292969-.808594 2.917969-.863281 4.265625-.148438 1.34375.714844 2.207032 2.09375 2.261719 3.617188.050781 1.523438-.710937 2.960938-2.003906 3.769531l-58.546875 39.40625 54.015625-31.183593c2-1.113282 4.523437-.453126 5.71875 1.496093 1.195312 1.953125.636719 4.503907-1.265625 5.777344l-17.664063 11.40625 13.21875-7.628906c2-1.113281 4.523438-.453125 5.71875 1.496093 1.195313 1.953126.640625 4.503907-1.265625 5.777344l-22.023437 14.265625 17.570312-10.136719c2.007813-1.175781 4.589844-.527343 5.800781 1.460938 1.210938 1.988281.605469 4.582031-1.363281 5.828125l-3.480469 2.21875c2.007813-.589844 4.148438.367187 5.046876 2.257813.902343 1.886718.300781 4.152343-1.421876 5.34375l-77.457031 53.761718 72.882813-42.070312c1.988281-1.117188 4.503906-.46875 5.710937 1.464844 1.203125 1.9375.675781 4.476562-1.203125 5.769531l-50.578125 33.683593 46.078125-26.609374c2-1.15625 4.554688-.515626 5.769532 1.445312 1.214843 1.964844.648437 4.539062-1.277344 5.808594l-35.996094 23.78125 31.503906-18.191406c1.324219-.839844 3-.890626 4.371094-.125 1.367188.761718 2.207031 2.214843 2.1875 3.785156-.023438 1.566406-.902344 2.996094-2.289062 3.722656l-154.222657 89.042969c-.648437.378906-1.386719.574219-2.132812.574219zm0 0" fill="#b4df80"/><path d="m332.960938 465.929688c-1.4375 0-2.777344-.730469-3.5625-1.933594-.785157-1.203125-.910157-2.71875-.335938-4.039063l1.945312-4.332031-6.691406 3.855469c-1.707031.980469-3.867187.660156-5.21875-.769531-1.355468-1.429688-1.554687-3.601563-.480468-5.253907l8.25-12.621093-17.800782 10.238281c-1.800781 1.027343-4.078125.613281-5.398437-.984375-1.324219-1.597656-1.304688-3.914063.039062-5.492188l16.957031-19.710937-28.910156 16.683593c-1.886718 1.1875-4.367187.722657-5.699218-1.066406-1.328126-1.789062-1.058594-4.296875.621093-5.761718l24.609375-23.390626-36.308594 21c-1.914062 1.085938-4.34375.53125-5.601562-1.273437-1.257812-1.808594-.933594-4.273437.746094-5.695313l28.691406-23.816406-38.957031 22.484375c-1.964844 1.128907-4.472657.519531-5.703125-1.382812-1.234375-1.902344-.761719-4.433594 1.070312-5.769531l15.359375-11.09375-21.46875 12.390624c-1.941406 1.125-4.421875.554688-5.675781-1.304687s-.855469-4.371094.914062-5.75l44.671876-34.800781-56.617188 32.683594c-1.964844 1.117187-4.457031.507812-5.6875-1.382813-1.230469-1.894531-.773438-4.417969 1.042969-5.761719l43.648437-31.675781-53.46875 30.875c-1.964844 1.117187-4.457031.511719-5.6875-1.382813-1.230468-1.894531-.773437-4.417968 1.042969-5.757812l58.027344-42.078125-69.707031 40.242187c-1.996094 1.113282-4.511719.460938-5.714844-1.480468-1.199219-1.945313-.65625-4.488282 1.234375-5.773438l17.066406-11.210937-22.527344 13.011719c-1.976562 1.121093-4.484375.496093-5.703125-1.417969-1.222656-1.914063-.730468-4.449219 1.121094-5.765625l71.074219-49.886719-83.015625 47.957031c-1.984375 1.097656-4.480469.453125-5.683594-1.472656s-.6875-4.453125 1.171875-5.753906l65.945313-44.484375-64.351563 37.144531c-1.988281 1.132812-4.515625.496094-5.726563-1.445312-1.214843-1.9375-.683593-4.492188 1.207032-5.78125l70.628906-47.789063-66.109375 38.1875c-1.992187 1.070313-4.472656.398437-5.652344-1.527344-1.183593-1.929687-.65625-4.445312 1.199219-5.734375l36.734375-23.894531-32.28125 18.605469c-1.992187 1.152344-4.539063.519531-5.757813-1.433594s-.667968-4.523438 1.246094-5.804688l67.882813-45.722656-63.371094 36.582032c-1.992187 1.117187-4.511719.464843-5.710937-1.480469-1.199219-1.941407-.65625-4.488281 1.230468-5.769531l50.734375-33.46875-46.253906 26.691406c-1.980469 1.085937-4.464844.4375-5.664063-1.476563-1.199218-1.914062-.699218-4.433593 1.144532-5.742187l71.609375-48.496094-67.089844 38.726562c-1.996094 1.117188-4.523437.457032-5.71875-1.496093s-.636719-4.503907 1.265625-5.777344l34.398438-22.355469-29.945313 17.289063c-2.003906 1.121093-4.535156.453125-5.726563-1.507813-1.191406-1.964844-.617187-4.515625 1.300782-5.78125l15.9375-10.238281-11.511719 6.6875c-1.980469 1.101563-4.476563.464844-5.683594-1.453125s-.703125-4.445312 1.144531-5.753906l76.519532-52.21875-71.980469 41.507812c-1.988281 1.214844-4.589844.605469-5.832031-1.367187-1.242188-1.972657-.671875-4.582031 1.285156-5.851563l80.691406-55.46875-76.144531 43.992188c-1.988281 1.113281-4.5.46875-5.707031-1.46875-1.203125-1.933594-.675782-4.476563 1.203125-5.769532l64.683593-43.390624-60.179687 34.746093c-1.996094 1.117188-4.523437.457031-5.71875-1.496093-1.195313-1.953126-.636719-4.5 1.265625-5.773438l34.578125-22.527344-30.125 17.390625c-1.984375 1.207031-4.570313.605469-5.816406-1.359375-1.246094-1.960937-.695313-4.558594 1.242187-5.84375l69.019532-48.078125-64.445313 37.207031c-1.988281 1.179688-4.558594.558594-5.789063-1.402343-1.230468-1.964844-.671874-4.546875 1.257813-5.824219l43.324219-29.484375-38.792969 22.410156c-1.972656 1.121094-4.480469.496094-5.703125-1.417969-1.21875-1.914062-.726562-4.449218 1.121094-5.769531l45.226562-31.691406-40.644531 23.464844c-1.988281 1.183593-4.558594.558593-5.789063-1.402344-1.230468-1.960937-.671874-4.546875 1.257813-5.824219l20.40625-13.910156-15.875 9.15625c-1.96875 1.125-4.476563.511719-5.703125-1.398438-1.226562-1.90625-.746094-4.441406 1.097656-5.769531l28.433594-20.195312-23.828125 13.796875c-1.957031 1.121094-4.453125.523437-5.6875-1.363282-1.238281-1.890624-.789063-4.414062 1.019531-5.761718l28.347656-20.914063-23.679687 13.652344c-1.96875 1.160156-4.5.566406-5.746094-1.351563-1.242187-1.917968-.757812-4.476562 1.105469-5.800781l13.753906-10.035156-9.113281 5.257813c-1.910156 1.089843-4.335937.546874-5.601563-1.25-1.265624-1.800782-.957031-4.265626.714844-5.695313l27.699219-23.519531-22.8125 13.175781c-1.910156 1.109375-4.351563.574219-5.625-1.234375-1.273437-1.804688-.957031-4.28125.726563-5.710938l15.472656-13.152343-10.574219 6.101562c-1.921875 1.09375-4.359375.539063-5.617187-1.277343-1.257813-1.820313-.917969-4.296876.78125-5.710938l3.464843-2.859375c-1.792969.324219-3.59375-.523437-4.484375-2.113281-.890625-1.585938-.671875-3.566406.539063-4.925782l10.660156-11.945312-5.34375 3.078125c-1.757813 1.011719-3.984375.644531-5.324219-.875-1.339844-1.523437-1.425781-3.777344-.203125-5.394531l4.582031-6.050782c-1.375.398438-2.859374.078126-3.949218-.851562-1.09375-.929688-1.644532-2.34375-1.46875-3.765625l1.570312-12.988281c-.414062-.324219-.761718-.726563-1.023437-1.183594-1.179688-2.039062-.484375-4.648438 1.550781-5.828125l2.183594-1.265625c1.402344-.808594 3.140625-.761719 4.488281.128906 1.347656.894532 2.074219 2.46875 1.878906 4.070313l-1.160156 9.617187 9.734375-5.613281c1.761719-1.023437 3.996094-.660156 5.339844.867187 1.347656 1.523438 1.429687 3.785157.199218 5.402344l-4.386718 5.785156 10.140625-5.851562c1.8125-1.046875 4.121093-.625 5.441406 1.003906 1.324219 1.625 1.269531 3.96875-.125 5.53125l-10.660156 11.949219 18.996093-10.957031c1.921876-1.09375 4.359376-.539063 5.617188 1.277344 1.257812 1.816406.921875 4.296874-.78125 5.710937l-2.277344 1.875 6.621094-3.820313c1.914062-1.109374 4.355469-.574218 5.628906 1.230469 1.269532 1.808594.957032 4.285157-.730468 5.714844l-15.460938 13.148437 22.988281-13.277343c1.914063-1.113281 4.359375-.574219 5.632813 1.234375 1.273437 1.8125.953125 4.296875-.742188 5.71875l-27.699218 23.519531 38.167968-22.066406c1.964844-1.117188 4.457032-.511719 5.6875 1.382812 1.230469 1.894531.773438 4.417969-1.042968 5.757813l-13.773438 10.0625 19.695312-11.375c1.964844-1.167969 4.496094-.578125 5.746094 1.332031 1.253906 1.910156.777344 4.46875-1.078125 5.800781l-28.332031 20.898438 36.410156-21.058594c1.976563-1.179688 4.53125-.578125 5.777344 1.359375 1.242188 1.933594.726562 4.507813-1.167969 5.816406l-28.414062 20.179688 35.890625-20.691407c1.289062-.8125 2.914062-.871093 4.261718-.160156 1.351563.714844 2.214844 2.089844 2.273438 3.613282.054688 1.523437-.707031 2.960937-1.996094 3.773437l-20.421875 13.917969 26.523438-15.300782c1.972656-1.121093 4.480469-.496093 5.703125 1.417969 1.21875 1.914063.726562 4.449219-1.121094 5.769531l-45.226562 31.691407 54.332031-31.367188c1.992187-1.179687 4.558593-.558593 5.789062 1.402344s.671875 4.546875-1.257812 5.824219l-43.324219 29.472656 51.488281-29.730469c1.988281-1.207031 4.574219-.601562 5.820313 1.359375 1.246094 1.960938.691406 4.558594-1.246094 5.84375l-69.007812 48.078125 80.460937-46.429687c2.003906-1.164063 4.570313-.519532 5.78125 1.453125 1.210937 1.976562.625 4.558593-1.320313 5.816406l-34.601562 22.535156 32.8125-18.941406c1.996094-1.1875 4.574219-.558594 5.800781 1.414063 1.226563 1.972656.652344 4.5625-1.296875 5.828124l-64.683594 43.332032 60.179688-34.730469c1.980469-1.132813 4.507812-.503906 5.726562 1.429687 1.21875 1.929688.699219 4.480469-1.179687 5.78125l-80.691406 55.46875 76.144531-43.964843c1.984375-1.152344 4.53125-.527344 5.753906 1.417969 1.222656 1.945312.683594 4.507812-1.214844 5.800781l-76.492187 52.199219 71.953125-41.539063c2.003906-1.121094 4.535156-.457031 5.726562 1.507813 1.191407 1.960937.617188 4.515624-1.300781 5.777343l-16 10.242188 11.574219-6.683594c1.996094-1.117187 4.523438-.457031 5.71875 1.496094s.636719 4.5-1.265625 5.773437l-34.398437 22.359375 29.945312-17.289062c1.988281-1.132813 4.515625-.496094 5.726562 1.445312 1.214844 1.9375.683594 4.488281-1.203124 5.78125l-71.613282 48.496094 67.089844-38.734375c2-1.199219 4.597656-.566406 5.820312 1.421875 1.226563 1.988281.628907 4.589844-1.339843 5.839844l-50.671875 33.476562 46.191406-26.675781c1.992188-1.152344 4.539062-.519531 5.757812 1.433594s.667969 4.523437-1.246093 5.804687l-67.882813 45.730469 63.371094-36.589844c1.996094-1.117187 4.523438-.457031 5.71875 1.492188 1.195312 1.953125.636719 4.503906-1.265625 5.777344l-36.777344 23.960937 32.324219-18.671875c1.996094-1.25 4.628906-.640625 5.878906 1.359375 1.25 1.996094.640625 4.628906-1.355468 5.878906l-70.597657 47.742188 66.074219-38.152344c1.984375-1.097656 4.484375-.453125 5.683594 1.472656 1.203125 1.925781.6875 4.453125-1.171875 5.753907l-65.945313 44.511718 61.441406-35.472656c1.976563-1.121094 4.480469-.5 5.703126 1.417969 1.21875 1.914062.726562 4.449219-1.121094 5.765625l-71.101563 49.835937 66.519531-38.402343c1.996094-1.132813 4.535157-.484376 5.742188 1.472656 1.203125 1.957031.644531 4.519531-1.269531 5.792968l-17.128907 11.210938 12.648438-7.296875c1.957031-1.082031 4.417969-.46875 5.640625 1.40625 1.21875 1.878906.78125 4.375-1 5.726563l-57.976563 42.0625 53.335938-30.789063c1.960938-1.117187 4.457031-.507813 5.6875 1.382813 1.230469 1.894531.769531 4.421874-1.046875 5.761718l-43.671875 31.691406 39.03125-22.554687c1.9375-1.101563 4.398438-.523437 5.644531 1.328125 1.246094 1.851562.855469 4.347656-.894531 5.730469l-44.671875 34.808593 39.921875-23.042968c1.964844-1.125 4.46875-.519532 5.703125 1.382812s.761719 4.4375-1.070313 5.769532l-15.308593 11.09375 10.675781-6.167969c1.914062-1.085938 4.34375-.53125 5.601562 1.273437 1.257813 1.808594.933594 4.273438-.746093 5.695313l-28.707031 23.835937 23.894531-13.765625c1.867187-1.066406 4.242187-.574219 5.53125 1.152344 1.289062 1.726563 1.089843 4.140625-.464844 5.632813l-24.601563 23.390624 19.535157-11.273437c1.800781-1.039063 4.089843-.628906 5.414062.972656 1.328125 1.601563 1.308594 3.925781-.046875 5.503907l-17 19.695312 11.589844-6.683594c1.707031-.976562 3.867188-.660156 5.21875.769532 1.355469 1.433593 1.550781 3.605468.480469 5.257812l-8.261719 12.601562 2.5625-1.476562c1.601562-.925781 3.617188-.714844 4.992188.523438 1.378906 1.238281 1.796874 3.222656 1.039062 4.914062l-2.789062 6.28125c1.085937.292969 2.007812 1.007812 2.558593 1.988281 1.179688 2.035157.484375 4.644531-1.550781 5.828125l-7.296875 4.207032c-.640625.378906-1.371094.585937-2.117187.59375zm0 0" fill="#9ed26a"/><path d="m340.769531 465.09375c-1.890625.003906-3.554687-1.238281-4.089843-3.050781-.539063-1.808594.175781-3.757813 1.761718-4.789063l32.203125-21.011718-27.75 16.019531c-2 1.117187-4.523437.457031-5.71875-1.496094-1.199219-1.953125-.640625-4.5 1.265625-5.773437l25.886719-16.828126-21.433594 12.347657c-2.011719 1.230469-4.636719.597656-5.867187-1.414063-1.230469-2.007812-.597656-4.636718 1.414062-5.867187l23.492188-15.230469-19.046875 10.992188c-1.976563 1.078124-4.445313.4375-5.652344-1.464844-1.203125-1.898438-.722656-4.40625 1.09375-5.730469l76.210937-52.785156-71.679687 41.375c-1.984375 1.136719-4.507813.503906-5.726563-1.425781-1.21875-1.933594-.699218-4.480469 1.179688-5.785157l71.796875-49.3125-67.234375 38.859375c-1.980469 1.117188-4.492188.480469-5.703125-1.449218-1.210937-1.929688-.695313-4.46875 1.175781-5.769532l67.554688-46.078125-63.035156 36.386719c-1.992188 1.152344-4.539063.519531-5.757813-1.433594s-.667969-4.523437 1.246094-5.804687l59.332031-39.976563-54.820312 31.640625c-2.003907 1.121094-4.535157.453125-5.726563-1.507812-1.191406-1.964844-.617187-4.515625 1.300781-5.78125l7.335938-4.699219-2.910156 1.703125c-2.003907 1.121094-4.535157.457031-5.726563-1.507813-1.191406-1.960937-.617187-4.515624 1.300781-5.777343l5.007813-3.210938-.589844.335938c-1.976563 1.074219-4.449219.425781-5.648437-1.480469-1.199219-1.90625-.707032-4.414062 1.117187-5.730469l66.558594-45.320312-62.019531 35.839843c-1.992188 1.097657-4.5.4375-5.691407-1.503906-1.191406-1.941406-.652343-4.476562 1.230469-5.757812l30.078125-19.628906-25.597656 14.789062c-1.996094 1.082031-4.492188.414062-5.675781-1.523438-1.1875-1.9375-.644532-4.464843 1.230468-5.746093l18.464844-11.945313-14.019531 8.085938c-1.988281 1.101562-4.484375.453125-5.6875-1.46875-1.203125-1.925782-.6875-4.457032 1.171875-5.757813l60.679687-40.960937-56.175781 32.429687c-2.007812 1.175781-4.589844.523438-5.800781-1.464843-1.210938-1.988282-.601563-4.578126 1.367187-5.824219l10.878906-6.988281-6.445312 3.71875c-1.992188 1.136718-4.523438.492187-5.734375-1.457032-1.207031-1.949218-.660156-4.503906 1.238281-5.785156l52.105469-34.867188-47.660156 27.519532c-1.980469 1.132812-4.507813.503906-5.726563-1.429688-1.214844-1.929687-.699218-4.480468 1.179688-5.78125l71.679687-49.195312-67.113281 38.742187c-2 1.15625-4.554688.515625-5.769531-1.445312-1.214844-1.964844-.648438-4.539063 1.28125-5.808594l41.753906-27.527344-37.285156 21.511719c-1.984375 1.175781-4.546875.558594-5.78125-1.390625-1.234375-1.953125-.691407-4.53125 1.226562-5.820313l72.667969-49.964843-68.121094 39.339843c-1.992187 1.214844-4.589844.609376-5.832031-1.367187-1.246094-1.972656-.671875-4.582031 1.285156-5.851563l69.1875-47.300781-64.648437 37.367188c-1.984375 1.179687-4.546875.5625-5.78125-1.390625s-.691406-4.53125 1.222656-5.820313l73.210938-50.40625-68.660157 39.613281c-1.992187 1.132813-4.527343.488282-5.734375-1.457031-1.210937-1.949219-.664062-4.503906 1.238282-5.789062l48.886718-32.492188-44.375 25.597657c-1.980468 1.175781-4.539062.566406-5.777344-1.375-1.238281-1.945313-.707031-4.519532 1.195313-5.816407l79.214844-55.179687-74.640625 43.101562c-2.003906 1.246094-4.636719.628906-5.878906-1.371094-1.246094-2.003906-.628907-4.636718 1.375-5.878906l50.761718-33.8125-46.285156 26.769532c-2.011719 1.230468-4.636719.59375-5.863281-1.417969-1.230469-2.015625-.59375-4.640625 1.417969-5.867188l9.429687-6.050781-4.984375 2.875c-2.007812 1.234375-4.632812.609375-5.867188-1.398438-1.238281-2.007812-.609374-4.636718 1.398438-5.871093l22.679688-14.789063-18.210938 10.503906c-1.320312.773438-2.953125.78125-4.28125.019532-1.328125-.761719-2.144531-2.175782-2.140625-3.707032s.824219-2.945312 2.15625-3.703124l154.242187-89.0625c2.007813-1.230469 4.636719-.601563 5.871094 1.410156 1.230469 2.007812.601563 4.636718-1.410156 5.871094l-22.648438 14.761718 25.515626-14.71875c1.300781-.792968 2.929687-.835937 4.269531-.105468 1.335937.730468 2.183593 2.121093 2.222656 3.644531.035156 1.523437-.742187 2.953125-2.046875 3.746093l-9.472656 6.078126 5.222656-3.011719c1.996094-1.136719 4.527344-.492188 5.734375 1.457031 1.210937 1.949219.664063 4.503906-1.234375 5.785156l-50.773438 33.820313 46.25-26.71875c1.984376-1.207031 4.574219-.605469 5.820313 1.355469 1.246094 1.964843.691406 4.5625-1.246094 5.847656l-79.199219 55.167968 74.625-43.09375c1.996094-1.160156 4.554688-.519531 5.769532 1.445313 1.214844 1.960937.644531 4.535156-1.28125 5.808594l-48.914063 32.511719 44.425781-25.652344c1.984376-1.132813 4.507813-.503906 5.726563 1.425781 1.21875 1.933594.699219 4.484375-1.179687 5.785156l-73.179688 50.390625 68.632812-39.628906c1.988282-1.15625 4.53125-.527344 5.753907 1.417969 1.222656 1.945312.683593 4.507812-1.214844 5.800781l-69.230469 47.332031 64.699219-37.382812c1.984375-1.132813 4.507813-.503907 5.726563 1.425781 1.21875 1.933594.699218 4.484375-1.179688 5.785156l-72.644531 49.960938 68.097656-39.3125c1.992187-1.113282 4.511719-.460938 5.714844 1.480468 1.199219 1.945313.65625 4.488282-1.234375 5.773438l-41.8125 27.554688 37.304687-21.53125c1.984375-1.132813 4.507813-.503907 5.726563 1.429687 1.21875 1.929687.699218 4.480469-1.175782 5.78125l-71.636718 49.179687 67.085937-38.734374c1.996094-1.132813 4.527344-.488282 5.738281 1.457031 1.207032 1.949219.660157 4.503906-1.238281 5.789062l-52.148437 34.796875 47.648437-27.511718c2.011719-1.175782 4.59375-.527344 5.804688 1.464843 1.210937 1.988281.601562 4.578125-1.367188 5.824219l-10.9375 7.03125 6.5-3.753906c1.988281-1.101563 4.484375-.453125 5.6875 1.472656 1.203125 1.921875.6875 4.453125-1.171875 5.753906l-60.644531 40.960938 56.128906-32.425782c2.015625-1.230468 4.640625-.59375 5.867188 1.417969 1.230469 2.011719.59375 4.640625-1.417969 5.867188l-18.519531 11.945312 14.070312-8.121093c2.003907-1.164063 4.570313-.519532 5.78125 1.457031 1.214844 1.972656.628907 4.554687-1.316406 5.8125l-29.976563 19.542969 25.511719-14.730469c1.984375-1.117188 4.496094-.476563 5.707031 1.449219 1.210938 1.929687.695313 4.46875-1.175781 5.769531l-66.625 45.371093 62.09375-35.839843c2.007813-1.117188 4.539063-.453125 5.730469 1.511719 1.191406 1.960937.617188 4.515624-1.300781 5.777343l-5 3.199219.570312-.324219c2.007813-1.121093 4.539063-.453125 5.730469 1.507813 1.191406 1.964844.617188 4.515625-1.300781 5.78125l-7.335938 4.699218 2.90625-1.707031c1.992188-1.152343 4.542969-.519531 5.761719 1.433594s.667969 4.523437-1.246094 5.804687l-59.28125 39.980469 54.777344-31.617187c1.984375-1.117188 4.492188-.476563 5.703125 1.449218 1.210937 1.929688.695313 4.46875-1.171875 5.769532l-67.527344 46.078125 62.996094-36.367188c1.980469-1.132812 4.507812-.503906 5.726562 1.425781 1.21875 1.933594.699219 4.484376-1.179687 5.785157l-71.78125 49.289062 67.25-38.828125c1.980469-1.152344 4.523437-.535156 5.75 1.402344s.703125 4.5-1.183594 5.800781l-76.238281 52.820313 71.679688-41.371094c2-1.113281 4.523437-.453125 5.71875 1.496094 1.199218 1.953125.640624 4.503906-1.261719 5.777344l-23.546875 15.265624 19.082031-11.035156c2-1.117187 4.523437-.457031 5.71875 1.496094s.636719 4.5-1.265625 5.773438l-25.792969 16.753906 21.332031-12.324219c2.003907-1.164063 4.570313-.515625 5.78125 1.457031 1.210938 1.976563.625 4.554688-1.320312 5.8125l-32.203125 21.054688 27.714844-16c2.027343-1.0625 4.527343-.335938 5.671875 1.644531 1.144531 1.980469.527344 4.507813-1.402344 5.734375l-161.597656 93.296875c-.648438.375-1.382813.578125-2.132813.578125zm0 0" fill="#b4df80"/><path d="m508.859375 75.726562c0-22.117187 12.3125-74.820312-23.894531-64.722656-23.722656 6.613282-49.425782 28.601563-70.628906 40.882813l-72.339844 41.878906c-55.804688-30.71875-111.621094-61.414063-167.4375-92.089844h-.085938c-2.242187-1.488281-5.128906-1.6054685-7.484375-.308593l-157.789062 91.351562c-1.007813.550781-1.847657 1.359375-2.433594 2.34375-.257813.222656-.492187.472656-.699219.746094-9.976562 16.851562-4.640625 42.203125-4.640625 61.15625v259.320312c0 12.355469-5.921875 39.714844 8.464844 46.644532 15.246094 7.34375 45.933594-19.074219 57.171875-25.601563 30.207031-17.492187 77.199219-34.089844 101.726562-58.878906l.339844-.375 166.65625 91.65625c2.800782 1.542969 9.257813 1.046875 10.703125-2.5625 47.785157-27.554688 98.269531-52.753907 144.050781-83.414063 29.480469-19.746094 18.335938-56.523437 18.335938-89.785156zm-387.996094 319.277344c-27.980469 16.210938-62.511719 45.796875-93.710937 54.253906-19.78125 5.367188-13.148438-13.054687-13.148438-31.128906v-245.242187c0-20.519531-6.5625-54.613281 3.242188-73.625l146.3125-84.710938v278.792969.617188 73.574218c-.179688.792969-.292969 1.601563-.34375 2.414063-.433594.367187-.921875.800781-1.535156 1.425781-9.871094 9.898438-28.765626 16.65625-40.816407 23.628906zm59.90625-23c-6.589843-5.800781-3.074219.761719-4.652343-2.464844-.230469-.476562-.339844-1.144531-.527344-1.707031.792968-5.71875.976562-11.503906.546875-17.261719v-335.558593l125.796875 69.199219c9.710937 4.113281 18.980468 9.210937 27.65625 15.207031 6.589844 5.800781 3.074218-.761719 4.652344 2.464843 0 .050782 0 .128907.058593.179688v48.894531c0 .417969-.058593.949219-.058593 1.332031v304.121094l-125.816407-69.199218c-9.710937-4.113282-18.980469-9.210938-27.65625-15.207032zm311.953125 1.453125c-5.820312 7.875-24.695312 14.300781-33.023437 19.121094l-47.789063 27.675781-65.109375 37.691406v-357.871093l75.480469-43.691407c13.039062-7.550781 64.851562-46.328124 74.171875-34.9375 6.152344 7.554688 0 49.757813 0 58.8125v241.417969c-.019531 14.164063 4.9375 40.054688-3.730469 51.78125zm0 0" fill="#262626"/></svg>