<svg height="505pt" viewBox="-83 0 505 505.69993" width="505pt" xmlns="http://www.w3.org/2000/svg"><path d="m322.816406 505.699219c-1.15625 0-2.261718-.46875-3.070312-1.296875-1.363282-1.410156-1.589844-3.570313-.546875-5.230469l.851562-1.425781-2.984375 1.707031c-1.746094 1.03125-3.980468.671875-5.316406-.851563-1.347656-1.519531-1.441406-3.773437-.222656-5.394531l5.503906-7.390625-8.882812 5.121094c-1.757813 1-3.976563.632812-5.3125-.882812-1.339844-1.515626-1.429688-3.761719-.21875-5.382813l13.832031-18.121094-21.117188 12.191407c-1.851562 1.066406-4.203125.601562-5.507812-1.085938-1.304688-1.6875-1.164063-4.082031.335937-5.601562l17.5625-17.863282-23.765625 13.714844c-1.914062 1.074219-4.328125.523438-5.585937-1.269531-1.261719-1.796875-.953125-4.257813.710937-5.6875l13.527344-11.347657-17.359375 10.011719c-1.898438 1.070313-4.304688.535157-5.570312-1.242187-1.269532-1.777344-.988282-4.226563.648437-5.671875l25.898437-22.460938-32.257812 18.628907c-1.914062 1.117187-4.367188.582031-5.640625-1.234376-1.273437-1.816406-.941406-4.308593.761719-5.726562l33.910156-28.527344-41.265625 23.824219c-1.949219 1.171875-4.472656.609375-5.742187-1.277344-1.265626-1.886719-.832032-4.4375.988281-5.796875l33.707031-26.136718-39.738281 22.9375c-1.964844 1.144531-4.484375.546874-5.726563-1.359376-1.242187-1.90625-.769531-4.449218 1.074219-5.785156l29.484375-21.511718-34.195312 19.738281c-1.964844 1.070312-4.425782.441406-5.636719-1.445313-1.207031-1.886718-.75-4.386718 1.046875-5.722656l27.007812-19.082031-31.078125 17.972656c-1.957031 1.113281-4.441406.515625-5.675781-1.367187-1.234375-1.878907-.796875-4.394532 1-5.75l52.460938-38.980469-59.902344 34.585937c-1.96875 1.113282-4.460938.496094-5.6875-1.402344-1.222656-1.898437-.753906-4.425781 1.070312-5.757812l53.488282-38.332031-60.167969 34.730469c-1.992188 1.101562-4.492188.445312-5.691407-1.488282-1.195312-1.929687-.667968-4.460937 1.199219-5.753906l20.394531-13.519531-23.472656 13.550781c-2 1.246094-4.632812.636719-5.878906-1.363281s-.636719-4.632813 1.363281-5.878907l35.585938-23.800781-39.636719 22.886719c-2.003906 1.164062-4.570312.519531-5.78125-1.457031-1.214844-1.972657-.628906-4.554688 1.316406-5.8125l17.613282-11.46875-21.554688 12.441406c-2.027344 1.058594-4.527344.332031-5.671875-1.644531-1.144531-1.980469-.523437-4.511719 1.40625-5.738282l159.921875-92.332031c1.992188-1.066406 4.472656-.398437 5.652344 1.53125 1.183594 1.925781.65625 4.441407-1.199219 5.734375l-17.714844 11.535156 13.261719-7.679687c1.996094-1.1875 4.574219-.558594 5.800781 1.414063 1.226563 1.972656.652344 4.5625-1.296875 5.832031l-35.546875 23.773437 31.042969-17.921875c1.988281-1.097656 4.492188-.445312 5.6875 1.488281 1.199219 1.933594.671875 4.464844-1.199219 5.757813l-20.328125 13.472656 15.839844-9.136719c1.96875-1.113281 4.460938-.5 5.683594 1.402344 1.226562 1.898438.757812 4.421875-1.066406 5.753906l-53.515626 38.351563 48.898438-28.230469c1.957031-1.109375 4.4375-.511718 5.675781 1.367188 1.234375 1.878906.796875 4.398437-1 5.75l-52.523437 39 47.847656-27.625c1.972656-1.105469 4.464844-.484375 5.683594 1.421875s.738281 4.429687-1.09375 5.753906l-26.957032 19.089844 22.382813-12.917969c1.964844-1.148438 4.484375-.550781 5.726563 1.355469 1.242187 1.90625.769531 4.453125-1.074219 5.785156l-29.476563 21.496094 24.824219-14.320313c1.941406-1.105468 4.410156-.527344 5.65625 1.328125 1.25 1.855469.851563 4.359375-.910156 5.738281l-33.734375 26.15625 29.015625-16.726562c1.914062-1.117188 4.367187-.578125 5.640625 1.238281 1.273437 1.816407.945312 4.304688-.761719 5.726563l-33.953125 28.484375 29.011719-16.742188c1.902343-1.074219 4.308593-.539062 5.574219 1.238281 1.265624 1.777344.988281 4.226563-.648438 5.671876l-25.890625 22.441406 20.964844-12.097656c1.914062-1.074219 4.328125-.527344 5.585937 1.269531 1.261719 1.796875.953125 4.253906-.710937 5.683593l-13.515625 11.390626 8.660156-4.988282c1.847656-1.054687 4.183594-.585937 5.484375 1.09375 1.300781 1.679688 1.167969 4.0625-.3125 5.585938l-17.554687 17.851562 12.382812-7.152344c1.757812-1.007812 3.988281-.636718 5.324219.886719 1.339843 1.523438 1.421875 3.78125.195312 5.394531l-13.832031 18.132813 8.320312-4.792969c1.75-1.007812 3.96875-.648437 5.3125.859375 1.34375 1.507813 1.445313 3.753907.242188 5.378907l-5.496094 7.378906c1.699219-.933594 3.8125-.605469 5.148438.796875 1.335937 1.402343 1.558594 3.527343.542968 5.175781l-2.804687 4.5c1.488281.628906 2.492187 2.050781 2.589844 3.664062.097656 1.613282-.722657 3.144532-2.121094 3.953126l-9.097656 5.25c-.640625.394531-1.378907.605468-2.132813.613281zm0 0" fill="#9ed26a"/><path d="m15.566406 505.511719c-1.796875-.003907-3.398437-1.132813-4.007812-2.824219s-.089844-3.582031 1.292968-4.726562l2.671876-2.210938-4.054688 2.328125c-1.96875 1.125-4.476562.511719-5.703125-1.398437-1.226563-1.90625-.746094-4.441407 1.09375-5.769532l3.21875-2.285156c-2.007813.5-4.089844-.515625-4.929687-2.40625-.839844-1.894531-.203126-4.117188 1.515624-5.273438l8.347657-5.675781-3.816407 2.195313c-1.976562 1.132812-4.5.511718-5.722656-1.414063-1.226562-1.925781-.71875-4.472656 1.148438-5.78125l68.90625-47.964843-64.398438 37.160156c-2.011718 1.109375-4.539062.425781-5.71875-1.542969-1.179687-1.964844-.59375-4.515625 1.332032-5.769531l116.90625-73.054688-112.519532 64.949219c-2.003906 1.070313-4.492187.386719-5.664062-1.558594-1.175782-1.945312-.621094-4.464843 1.261718-5.738281l134.59375-84.71875-130.191406 75.160156c-2.015625 1.136719-4.570312.460938-5.757812-1.527344-1.1875-1.984374-.574219-4.554687 1.378906-5.792968l97.699219-60.636719-93.320313 53.84375c-2 1.085937-4.5.410156-5.683594-1.539063-1.179687-1.945312-.625-4.472656 1.261719-5.746093l160.164063-102.121094-155.742188 89.917969c-2 1.054687-4.472656.371094-5.644531-1.5625-1.167969-1.933594-.628906-4.445313 1.230469-5.726563l153.234375-97.332031-148.820313 85.921875c-2.015625 1.164063-4.589844.496094-5.789062-1.496094-1.199219-1.996093-.578125-4.582031 1.394531-5.816406l122.128906-76.472656-117.761719 67.964843c-2.003906 1.058594-4.480468.367188-5.648437-1.574218-1.164063-1.945313-.609375-4.457032 1.261719-5.730469l118.136718-73.855469-113.722656 65.65625c-2.019531 1.21875-4.640625.570313-5.859375-1.445312-1.21875-2.019532-.570312-4.640625 1.445313-5.859375l145.777344-92.226563-141.363282 81.613282c-2.011718 1.105468-4.539062.421874-5.71875-1.542969-1.179687-1.96875-.59375-4.519531 1.332032-5.773438l108.03125-67.300781-103.644532 59.835938c-2.019531 1.097656-4.542968.402343-5.710937-1.574219-1.167969-1.976563-.566407-4.523438 1.367187-5.765625l10.777344-6.585938-6.433594 3.710938c-2.015625 1.136718-4.570312.457031-5.757812-1.527344s-.574219-4.554688 1.378906-5.792969l102.785156-63.925781-98.40625 56.832031c-2.007812 1.074219-4.503906.382813-5.671875-1.570312s-.601562-4.480469 1.292969-5.742188l102.785156-63.90625-98.40625 56.789063c-2.015625 1.117187-4.554687.429687-5.730468-1.550782-1.179688-1.980468-.574219-4.539062 1.367187-5.777343l60.851563-37.429688-56.488282 32.625c-2.007812 1.085938-4.511718.402344-5.6875-1.550781-1.179687-1.957031-.609375-4.492188 1.292969-5.753906l131.308594-82.578125-126.921875 73.3125c-2.007813 1.042969-4.476563.34375-5.636719-1.597657-1.15625-1.941406-.601563-4.445312 1.265625-5.71875l82.347656-50.933593-77.976562 45.023437c-2.015625 1.132813-4.570313.457032-5.757813-1.53125-1.1875-1.984375-.574219-4.554687 1.378907-5.792968l89.992187-55.851563-85.613281 49.425781c-2.007813 1.042969-4.476563.34375-5.636719-1.59375-1.15625-1.941406-.601563-4.449218 1.265625-5.71875l73.507812-45.492187-69.121093 39.910156c-2.015625 1.136719-4.570313.460937-5.757813-1.527344-1.1875-1.984375-.574218-4.554687 1.378906-5.792969l80.90625-50.347656-76.527343 44.167969c-2.007813 1.089844-4.511719.40625-5.6875-1.550781-1.175781-1.953125-.605469-4.488282 1.292969-5.75l80.757812-50.519532-76.363281 44.082032c-1.996094 1.085937-4.492188.414062-5.675781-1.523438-1.183594-1.9375-.644532-4.460937 1.230468-5.746094l113.570313-73.453124-109.140625 63.015624c-2.011719 1.148438-4.570313.488282-5.769532-1.492187-1.199218-1.980469-.601562-4.554687 1.347657-5.800781l67.933593-43.308594-63.511718 36.695312c-1.996094 1.082032-4.492188.414063-5.675782-1.523437-1.1875-1.9375-.644531-4.464844 1.226563-5.75l65.128906-42.136719-60.679687 35.03125c-2.011719 1.175782-4.59375.527344-5.804688-1.464844-1.210937-1.988281-.601562-4.578124 1.367188-5.824218l33.816406-21.714844-29.378906 16.953125c-2 1.117187-4.523438.457031-5.722656-1.496094-1.195313-1.953125-.636719-4.5 1.265624-5.773437l26.675782-17.289063-22.1875 12.800781c-1.992188 1.152344-4.539063.519532-5.757813-1.433593s-.667969-4.523438 1.246094-5.804688l37.996094-25.589843-33.515625 19.371093c-1.992188 1.097657-4.492188.445313-5.691406-1.488281-1.195313-1.933594-.667969-4.464844 1.203124-5.757812l7.183594-4.753907-2.695312 1.554688c-1.9375 1.109375-4.398438.539062-5.652344-1.304688-1.253906-1.847656-.875-4.347656.871094-5.734375l44.835937-35.578125-40.054687 23.117188c-1.953125 1.121093-4.4375.53125-5.679688-1.34375-1.242187-1.875-.816406-4.394531.976563-5.753907l14.351562-10.890624-9.105469 5.257812c-1.800781 1.027344-4.078124.613281-5.398437-.984375-1.324219-1.597656-1.304687-3.914063.039063-5.492187l16.214843-18.671876c-2.058593.976563-4.523437.160157-5.59375-1.851562-1.070312-2.011719-.371093-4.511719 1.59375-5.675781l21.679688-12.535157c1.800781-1.015624 4.074219-.59375 5.390625 1s1.300781 3.902344-.039063 5.476563l-16.160156 18.65625 46.097656-26.589844c1.945313-1.109375 4.421875-.519531 5.664063 1.347657 1.238281 1.867187.824218 4.375-.957032 5.742187l-14.359374 10.871094 31.15625-17.960938c1.929687-1.117187 4.398437-.554687 5.65625 1.289063 1.261718 1.839844.890624 4.347656-.855469 5.742187l-44.847657 35.558594 73.820313-42.589844c1.988281-1.097656 4.492187-.445312 5.6875 1.488281 1.199219 1.929688.671875 4.464844-1.199219 5.753907l-7.226562 4.789062 20.835937-12.03125c1.988281-1.101562 4.484375-.453125 5.6875 1.472657 1.203125 1.921874.6875 4.453124-1.171875 5.753906l-37.972656 25.523437 56.730469-32.75c2-1.164062 4.566406-.519531 5.777343 1.457031 1.214844 1.972657.628907 4.554688-1.316406 5.8125l-26.699218 17.296876 42.578124-24.566407c2.003907-1.140625 4.550782-.484375 5.753907 1.484375 1.203125 1.964844.621093 4.53125-1.304688 5.792969l-33.785156 21.675781 50.210937-28.953125c1.996094-1.085937 4.488282-.414062 5.675782 1.523438 1.183594 1.9375.644531 4.464843-1.230469 5.746093l-65.101563 42.09375 85.589844-49.363281c2.003906-1.121093 4.535156-.453125 5.726563 1.507813 1.195312 1.960937.621093 4.515625-1.296875 5.777344l-67.933594 43.265624 87.621094-50.550781c1.992187-1.085937 4.488281-.414062 5.671875 1.523438 1.1875 1.9375.644531 4.464843-1.226563 5.746093l-113.605468 73.453126 138.804687-80.125c2.007813-1.128907 4.546875-.453126 5.738281 1.519531 1.1875 1.972656.597656 4.53125-1.335937 5.785156l-80.886719 50.574219 92.117188-53.167969c2.007812-1.109375 4.535156-.425781 5.714843 1.542969 1.183594 1.964844.59375 4.515625-1.328125 5.769531l-80.890625 50.34375 86.71875-50.089844c2.015625-1.132812 4.566407-.457031 5.753907 1.527344 1.1875 1.988281.578124 4.558594-1.378907 5.796875l-73.460937 45.507812 75.894531-43.863281c2.019531-1.210937 4.640625-.554687 5.851563 1.46875 1.210937 2.023438.554687 4.640625-1.464844 5.855469l-90.011719 55.847656 90-51.949218c2.007813-1.074219 4.503906-.378907 5.671875 1.570312 1.167969 1.953125.601562 4.480469-1.292969 5.742188l-82.371093 50.925781 79.53125-45.890625c1.996093-1.042969 4.464843-.351563 5.628906 1.582031 1.160156 1.929687.621094 4.433594-1.234375 5.714844l-131.160157 82.4375 126.765626-73.179688c2.015624-1.113281 4.550781-.429687 5.730468 1.550781 1.175782 1.980469.570313 4.539063-1.371094 5.777344l-60.851562 37.429688 56.492188-32.625c2.015624-1.132813 4.566406-.457032 5.753906 1.527344 1.1875 1.988281.578125 4.558593-1.378906 5.796874l-102.78125 63.921876 98.40625-56.804688c2.007812-1.074219 4.5-.382812 5.667968 1.570312 1.171875 1.953126.601563 4.476563-1.292968 5.742188l-102.78125 63.921875 98.40625-56.804687c2.007812-1.046876 4.484374-.339844 5.640624 1.609374 1.152344 1.949219.582032 4.457032-1.296874 5.71875l-11.1875 6.828126 6.824218-3.953126c2.023438-1.210937 4.644532-.554687 5.855469 1.46875 1.210937 2.023438.554687 4.644532-1.46875 5.855469l-107.878906 67.234375 103.519531-59.734375c2.003906-1.101562 4.523438-.429687 5.707031 1.53125 1.183594 1.957031.613281 4.5-1.296875 5.765625l-145.773437 92.183594 141.363281-81.621094c2.011719-1.105468 4.535156-.425781 5.71875 1.542969 1.179688 1.96875.589844 4.519531-1.332031 5.769531l-118.222657 73.925782 113.835938-65.707032c2.003906-1.085937 4.511719-.402344 5.6875 1.550782 1.175781 1.957031.605469 4.488281-1.292969 5.753906l-122.027343 76.40625 117.625-67.90625c2.007812-1.148438 4.566406-.488282 5.765624 1.492187 1.199219 1.980469.601563 4.554688-1.347656 5.800781l-153.230468 97.316407 148.820312-85.914063c2-1.085937 4.5-.40625 5.679688 1.539063 1.179687 1.945312.625 4.476562-1.261719 5.75l-160.160157 102.117187 155.742188-89.917968c2.007812-1.070313 4.5-.378907 5.671875 1.574218 1.167969 1.953125.597656 4.476563-1.292969 5.742188l-97.699218 60.671875 93.320312-53.882813c2.007812-1.125 4.550781-.453125 5.738281 1.519532 1.191407 1.976562.597657 4.535156-1.335937 5.785156l-134.597656 84.710937 130.195312-75.152343c2.003906-1.054688 4.480469-.363282 5.648438 1.578124 1.164062 1.941407.609374 4.457032-1.261719 5.726563l-172.007813 107.519531c.539063.339844.992188.792969 1.332032 1.332032 1.226562 1.925781.71875 4.476562-1.152344 5.785156l-68.914063 47.964844 16.339844-9.4375c1.988281-1.152344 4.53125-.523438 5.753906 1.417968 1.222657 1.945313.6875 4.511719-1.214843 5.800782l-29.011719 19.773437c1.363281.652344 2.277343 1.972656 2.410156 3.476563.132813 1.503906-.542969 2.96875-1.769531 3.84375l-26.546875 18.816406c.269531.230468.511719.496094.707031.792968 1.265625 1.824219.925781 4.3125-.785156 5.726563l-26.503906 21.914063c.621093 1.917968-.179688 4.011718-1.929688 5.019531l-14.054688 8.113281c-.632812.382812-1.359374.59375-2.097656.605469zm0 0" fill="#9ed26a"/><g fill="#262626"><path d="m2.558594 428.890625c0 19.628906-13.199219 90.308594 24.917968 71.945313 24.398438-11.75 49.042969-46.566407 68.464844-65.074219l48.246094-45.96875c3.882812-3.703125 19.753906-24.183594 25.378906-24.183594 5.007813 0 19.257813 18.199219 22.492188 21.28125l46.816406 44.59375 73.964844 70.476563c.09375.09375.265625.113281.375.1875.113281.078124.199218.230468.4375.324218.238281.09375.332031.078125.519531.148438l.28125.074218c36.644531 13.125 24.746094-52.691406 24.746094-70.945312v-345.941406c0-17 2.972656-38.203125-3.667969-54.28125-10.964844-26.503906-35.984375-27.996094-60.425781-27.996094h-114.542969c-38.78125 0-127.640625-17.484375-152.164062 25.367188-8.628907 15.089843-5.839844 36.328124-5.839844 53.042968zm12.359375 17.203125v-315.46875c0-23.140625-.625-46.386719 0-69.519531-.4375-26.914063 20.390625-49.398438 47.257812-51.023438 64.160157-7.039062 132.90625 0 197.484375 0 31.675782 0 61.886719 3.074219 67.167969 42.667969 1.0625 16.585938 1.0625 33.222656 0 49.808594v237.902344c0 11.347656-4.609375 148.957031-3.363281 155.902343l-124.167969-118.253906c-29.160156-27.785156-37.699219-15.921875-64.921875 10.019531l-77.550781 73.890625c-8.839844 8.421875-19.917969 23.574219-30.71875 29.277344-8.195313 4.316406-4.617188 11.867187-11.179688-.429687-4.957031-9.289063-.007812-34.574219-.007812-44.773438zm0 0"/><path d="m57.582031 82.191406c0-27.539062-4.785156-29.765625 22.359375-29.765625h179.199219c26.1875 0 25.046875 6.347657 25.046875 33.085938 0 2.378906 12.355469.519531 12.355469-3.320313 0-25.601562 2.046875-34.132812-23.09375-35.183594-38.714844-1.613281-77.855469 0-116.605469 0-29.285156 0-64.332031-5.402343-93.210938 0-22.699218 4.265626-18.378906 17.75-18.378906 38.503907-.027344 2.363281 12.328125.519531 12.328125-3.320313zm0 0"/><path d="m258.484375 207.871094h-81.433594v-83.015625c0-2.371094-12.355469-.511719-12.355469 3.320312v79.695313h-76.878906c-5.273437 0-12.882812 7.960937-4.554687 7.960937h81.433593v83.011719c0 2.371094 12.355469.511719 12.355469-3.320312v-79.648438h76.875c5.273438 0 12.886719-8.003906 4.558594-8.003906zm0 0"/></g></svg>