<svg height="502pt" viewBox="-1 0 502 502.0047" width="502pt" xmlns="http://www.w3.org/2000/svg"><path d="m317.386719 331.550781c-1.714844 0-3.261719-1.023437-3.929688-2.601562s-.328125-3.402344.867188-4.632813l16.835937-17.402344c-.230468-1.714843.597656-3.402343 2.097656-4.265624l5.121094-2.953126c1.84375-1.0625 4.1875-.605468 5.496094 1.074219 1.308594 1.675781 1.179688 4.0625-.300781 5.589844l-1.882813 1.945313 5.816406-3.351563c1.324219-.839844 3-.890625 4.371094-.125 1.367188.761719 2.207032 2.214844 2.1875 3.78125-.023437 1.570313-.902344 3-2.289062 3.726563l-32.257813 18.636718c-.644531.378906-1.382812.578125-2.132812.578125zm0 0" fill="#4a88da"/><path d="m258.175781 467.503906c-1.886719 0-3.546875-1.234375-4.089843-3.035156-.542969-1.804688.164062-3.75 1.734374-4.789062l48.570313-32.050782-67.21875 38.800782c-1.984375 1.152343-4.527344.523437-5.753906-1.417969-1.222657-1.945313-.683594-4.511719 1.214843-5.800781l80.058594-54.511719-101.375 58.53125c-1.996094 1.117187-4.523437.457031-5.71875-1.496094-1.195312-1.953125-.636718-4.503906 1.265625-5.777344l52.136719-33.851562-64.398438 37.179687c-2.011718 1.128906-4.550781.453125-5.742187-1.519531-1.1875-1.972656-.597656-4.53125 1.339844-5.785156l14.574219-9.222657-22.246094 12.800782c-1.996094 1.113281-4.515625.460937-5.714844-1.484375-1.199219-1.941407-.65625-4.488281 1.234375-5.769531l76.578125-50.59375-88.644531 51.199218c-2.011719 1.230469-4.636719.597656-5.867188-1.414062-1.230469-2.007813-.597656-4.636719 1.410157-5.863282l54.949218-35.464843-63.429687 36.589843c-2.007813 1.125-4.550781.453126-5.738281-1.519531-1.191407-1.972656-.597657-4.535156 1.335937-5.785156l16.84375-10.617187-21.648437 12.503906c-1.972657 1.136718-4.496094.523437-5.722657-1.394532-1.230469-1.917968-.734375-4.464843 1.121094-5.78125l38.65625-27.308593-46.777344 27.007812c-1.964843 1.101563-4.445312.488281-5.667969-1.40625-1.222656-1.890625-.765624-4.40625 1.042969-5.746093l34.984375-25.230469-41.144531 23.757812c-1.945313 1.128907-4.433594.558594-5.691406-1.308593-1.253907-1.863282-.84375-4.386719.9375-5.757813l44.160156-34.449219-52.90625 30.566406c-1.9375 1.09375-4.390625.515626-5.636719-1.328124s-.863281-4.332032.875-5.722657l42.339844-33.277343-48.851562 28.160156c-1.957032 1.109375-4.441407.511718-5.675782-1.367188s-.796875-4.398437 1-5.75l29.59375-21.921875-33.734375 19.472657c-1.941406 1.109374-4.410156.527343-5.65625-1.328126-1.246093-1.855468-.847656-4.359374.914063-5.738281l36.972656-28.535156-40.941406 23.652344c-1.929688 1.078125-4.359375.503906-5.605469-1.320313-1.246094-1.824218-.890625-4.300781.816406-5.699218l41.816407-33.28125-46.421876 26.761718c-1.324218.839844-3 .886719-4.371093.125-1.367188-.765625-2.207031-2.21875-2.183594-3.785156.019531-1.566406.898437-2.996094 2.285156-3.722656l95.863281-55.339844c1.933594-1.09375 4.378907-.527344 5.632813 1.304688 1.25 1.832031.886719 4.320312-.835937 5.71875l-41.8125 33.28125 46.703124-26.957032c1.941407-1.085937 4.390626-.5 5.628907 1.347656 1.238281 1.847657.847656 4.335938-.894531 5.71875l-36.992188 28.542969 43.273438-24.976562c1.957031-1.113281 4.4375-.515625 5.675781 1.367187 1.234375 1.878906.796875 4.394532-1 5.75l-29.601563 21.921875 35.839844-20.695312c1.9375-1.113281 4.410156-.546875 5.664062 1.308593 1.253907 1.851563.863282 4.355469-.894531 5.742188l-42.359375 33.277344 54.316406-31.351563c1.945313-1.160156 4.457032-.597656 5.722657 1.28125 1.265625 1.878907.84375 4.417969-.960938 5.785157l-44.160156 34.441406 61.15625-35.3125c1.964844-1.097656 4.449219-.484375 5.671875 1.40625s.765625 4.40625-1.046875 5.746094l-34.984375 25.242187 54.039062-31.199219c1.96875-1.09375 4.453126-.472656 5.667969 1.425782 1.21875 1.894531.75 4.410156-1.066406 5.742187l-38.65625 27.308594 131.847656-76.074219c2.007813-1.105469 4.523438-.429688 5.707031 1.53125 1.183594 1.957031.613282 4.5-1.292968 5.761719l-16.871094 10.632812 21.785156-12.570312c1.996094-1.082031 4.492188-.410157 5.675782 1.527343 1.183593 1.9375.644531 4.460938-1.230469 5.746094l-54.980469 35.488282 62.335938-35.984376c1.996093-1.117187 4.511718-.460937 5.714843 1.480469 1.199219 1.945313.65625 4.488281-1.234375 5.773438l-76.5625 50.59375 86.1875-49.75c2.003906-1.101563 4.523438-.425781 5.707032 1.53125 1.183593 1.957031.613281 4.5-1.292969 5.765625l-14.679688 9.265625 19.507813-11.253907c1.996094-1.097656 4.5-.4375 5.691406 1.503907 1.195312 1.9375.652344 4.472656-1.226562 5.757812l-52.054688 33.792969 59.382812-34.28125c1.976563-1.074219 4.453126-.425781 5.648438 1.480469 1.199219 1.90625.710938 4.414062-1.117188 5.730469l-80.085937 54.519531 91.308594-52.691407c1.992187-1.117187 4.511719-.460937 5.710937 1.480469 1.199219 1.945313.65625 4.488281-1.230468 5.773438l-48.539063 32.042969 47.660156-27.523438c2-1.136719 4.546875-.480469 5.75 1.484375 1.203125 1.96875.625 4.535156-1.304687 5.796875l-14.660156 9.480469c1.621093-.191407 3.210937.535156 4.128906 1.886719 1.242187 1.878906.808594 4.402343-.988282 5.757812l-39.109374 29.382812c1.703124.398438 2.992187 1.796876 3.25 3.527344.253906 1.734375-.574219 3.445313-2.089844 4.320313l-50.492188 29.160156c-1.953125 1.117187-4.4375.527344-5.679687-1.347656-1.242188-1.875-.8125-4.390625.976562-5.753907l31.574219-23.695312-77.414062 44.699219c-2.003907 1.136719-4.550782.480469-5.75-1.484375-1.203126-1.96875-.625-4.535156 1.304687-5.796875l9.285156-5.972657-25.824219 14.90625c-.667968.394532-1.433593.597657-2.207031.589844zm0 0" fill="#4a88da"/><path d="m216.921875 158.265625c-1.921875-.007813-3.605469-1.300781-4.105469-3.164063-.496094-1.859374.3125-3.820312 1.972656-4.789062l32.855469-18.980469c1.558594-.898437 3.519531-.722656 4.890625.441407 1.375 1.167968 1.871094 3.070312 1.234375 4.757812l-2.011719 5.316406c1.382813.714844 2.265626 2.132813 2.300782 3.691406.035156 1.558594-.78125 3.011719-2.132813 3.792969l-5.160156 2.984375c-1.5625.90625-3.523437.726563-4.902344-.441406-1.375-1.167969-1.867187-3.074219-1.226562-4.761719l.914062-2.417969-22.492187 12.996094c-.648438.375-1.386719.574219-2.136719.574219zm0 0" fill="#73b0f4"/><path d="m63.800781 358.277344c-1.835937 0-3.464843-1.175782-4.046875-2.917969-.582031-1.742187.019532-3.660156 1.488282-4.761719l37.085937-28.347656-38.914063 22.460938c-1.929687 1.101562-4.386718.53125-5.640624-1.304688-1.25-1.839844-.878907-4.332031.855468-5.726562l45.722656-36.199219-47.644531 27.484375c-1.964843 1.128906-4.46875.523437-5.703125-1.378906-1.234375-1.902344-.761718-4.4375 1.070313-5.769532l29.867187-21.625-29.296875 16.929688c-1.96875 1.082031-4.4375.449218-5.648437-1.445313-1.210938-1.890625-.742188-4.398437 1.066406-5.730469l23.367188-16.425781-21.941407 12.652344c-1.949219 1.121094-4.4375.53125-5.675781-1.34375-1.242188-1.875-.816406-4.394531.976562-5.753906l52.878907-39.785157-51.652344 29.808594c-1.960937 1.117188-4.457031.511719-5.6875-1.382812-1.230469-1.894532-.773437-4.417969 1.046875-5.757813l59.730469-43.582031-57.070313 32.9375c-1.988281 1.070312-4.464844.410156-5.652344-1.511719-1.1875-1.917969-.671874-4.429687 1.171876-5.730469l93.527343-61.808593-90.1875 52.054687c-2.011719 1.125-4.550781.453125-5.742187-1.519531-1.1875-1.972656-.597656-4.535156 1.335937-5.785156l25.285157-15.882813-19.925782 11.480469c-2.015625 1.21875-4.640625.570313-5.855468-1.449219-1.21875-2.015625-.574219-4.636718 1.445312-5.855468l29.363281-18.535157-23.988281 13.847657c-2.019531 1.21875-4.640625.566406-5.859375-1.453126-1.214844-2.019531-.5625-4.640624 1.457031-5.859374l8.039063-5.023438-2.757813 1.585938c-1.992187 1.113281-4.511718.460937-5.710937-1.480469-1.203125-1.945313-.660157-4.488281 1.230469-5.773438l92.03125-60.84375-82.507813 47.667969c-1.980469 1.074219-4.457031.417969-5.648437-1.496094-1.195313-1.914062-.691407-4.421875 1.144531-5.730468l100.582031-67.550782-88.125 50.867188c-2.007812 1.234375-4.636719.609375-5.871094-1.398438-1.234375-2.007812-.609375-4.636718 1.398438-5.871094l67.109375-43.792968-54.027344 31.164062c-1.980469 1.175782-4.539063.566406-5.777344-1.378906-1.238281-1.941406-.707031-4.515625 1.195313-5.816406l78.746094-54.917969-54.03125 31.1875c-1.953126 1.164063-4.476563.59375-5.738282-1.296875-1.257812-1.890625-.816406-4.441406 1.007813-5.792969l40.226562-30.765625c-1.785156-.28125-3.195312-1.660156-3.523437-3.4375s.5-3.570312 2.066406-4.472656l48.355469-27.859375c1.949219-1.125 4.4375-.546875 5.683593 1.324219 1.25 1.871094.832032 4.390625-.953124 5.757812l-34.339844 26.199219 83.457031-48.191406c1.996094-1.257813 4.632813-.660157 5.890625 1.335937s.660156 4.636719-1.335938 5.894532l-78.769531 54.945312 101.980469-58.878906c2.003906-1.164063 4.570312-.519532 5.78125 1.453125 1.214844 1.976562.628906 4.558593-1.316406 5.816406l-67.011719 43.765625 62.589844-36.136719c1.988281-1.117187 4.503906-.46875 5.710937 1.464844 1.203125 1.9375.675782 4.476563-1.203125 5.769531l-100.59375 67.570313 96.121094-55.46875c1.996094-1.15625 4.554687-.515625 5.769531 1.445312 1.214844 1.964844.648438 4.539063-1.28125 5.808594l-92.007812 60.765625 87.5625-50.535156c2.007812-1.125 4.550781-.453125 5.738281 1.519531 1.191406 1.972656.597656 4.535156-1.335937 5.785156l-8.089844 5.070313 3.703125-2.144532c2.019531-1.214843 4.640625-.570312 5.859375 1.449219 1.21875 2.015625.570312 4.636719-1.445313 5.855469l-29.332031 18.511719 24.945312-14.398438c2.003907-1.101562 4.523438-.425781 5.707032 1.53125 1.183594 1.960938.613281 4.503907-1.296875 5.765625l-25.359375 15.984375 20.972656-12.109375c1.992188-1.097656 4.492188-.445312 5.691406 1.488282 1.195313 1.933593.667969 4.464843-1.203125 5.757812l-93.550781 61.769531 3.234375-1.859375c1.964844-1.144531 4.484375-.546875 5.726563 1.359375 1.242187 1.90625.769531 4.449219-1.074219 5.785157l-59.734375 43.585937 43.367187-25.035156c1.953125-1.117188 4.4375-.53125 5.679688 1.34375 1.242187 1.878906.8125 4.394531-.976563 5.753906l-52.863281 39.785156 43.988281-25.386719c1.972656-1.121093 4.480469-.5 5.703125 1.414063 1.21875 1.914063.726563 4.453125-1.121093 5.769531l-23.339844 16.417969 18.261718-10.546875c1.964844-1.128906 4.472657-.523438 5.703126 1.378906 1.234374 1.902344.765624 4.4375-1.070313 5.773438l-29.867187 21.605468 26.453124-15.25c1.933594-1.101562 4.390626-.535156 5.640626 1.304688 1.253906 1.839844.882812 4.332031-.851563 5.726562l-45.730469 36.207032 45.484375-26.265625c1.949219-1.164063 4.472657-.59375 5.734375 1.296875 1.261719 1.894531.816406 4.441406-1.007812 5.792968l-37.101563 28.339844 38.628907-22.296875c2.027343-1.058593 4.527343-.332031 5.671874 1.644531 1.144532 1.980469.523438 4.511719-1.40625 5.738282l-95.804687 55.3125c-.632813.367187-1.355469.558594-2.089844.5625zm0 0" fill="#73b0f4"/><path d="m430.308594 359.003906c-1.585938 0-3.035156-.878906-3.773438-2.28125-.738281-1.402344-.640625-3.097656.257813-4.402344l6.679687-9.769531-14.285156 8.25c-1.867188 1.128907-4.285156.660157-5.601562-1.078125-1.316407-1.742187-1.109376-4.195312.484374-5.6875l11.554688-11.09375-18.773438 10.828125c-1.902343 1.105469-4.332031.585938-5.613281-1.203125-1.28125-1.785156-.992187-4.253906.664063-5.699218l20.84375-18.277344-29.78125 17.195312c-1.945313 1.101563-4.410156.511719-5.648438-1.347656-1.242187-1.863281-.835937-4.363281.929688-5.738281l18.066406-13.820313-24.804688 14.316406c-1.957031 1.113282-4.441406.515626-5.675781-1.367187-1.234375-1.878906-.800781-4.394531.996094-5.75l22.613281-16.757813-29.632812 17.117188c-1.96875 1.113281-4.460938.496094-5.6875-1.402344-1.222656-1.898437-.753906-4.425781 1.070312-5.757812l24.824219-17.800782-31.753906 18.320313c-1.984375 1.101563-4.484375.453125-5.6875-1.46875-1.203125-1.925781-.6875-4.457031 1.171875-5.757813l2.050781-1.382812-6.238281 3.601562c-1.980469 1.136719-4.5.515626-5.726563-1.410156-1.222656-1.925781-.714843-4.472656 1.152344-5.78125l30.328125-21.085937-32.265625 18.59375c-1.984375 1.097656-4.484375.453125-5.6875-1.472657-1.203125-1.925781-.6875-4.453124 1.171875-5.757812l16.101562-10.835938-5.273437 3.046876c-1.953125 1.113281-4.4375.511718-5.671875-1.367188-1.238281-1.878906-.800781-4.394531.996094-5.75l49.015625-36.292969-40.105469 23.144531c-1.976562 1.117188-4.480469.496094-5.703125-1.417968-1.222656-1.914063-.726563-4.449219 1.121094-5.769532l22.519531-15.777343-17.066406 9.863281c-1.976563 1.066406-4.4375.417969-5.632813-1.480469-1.199219-1.898437-.71875-4.398437 1.09375-5.71875l7.40625-5.121093-3.882812 2.242187c-1.972657 1.125-4.476563.511719-5.703125-1.398437-1.226563-1.90625-.746094-4.441407 1.09375-5.769532l22.1875-15.820312-19.394532 11.238281c-1.9375 1.09375-4.390624.519531-5.636718-1.324219s-.863282-4.335937.875-5.722656l43.089844-33.714844-43.246094 24.960938c-1.976563 1.085937-4.460938.449218-5.664063-1.460938-1.207031-1.910156-.714843-4.425781 1.117188-5.742187l.433593-.308594c-1.957031 1.019531-4.367187.375-5.558593-1.480469-1.191407-1.855468-.769531-4.3125.96875-5.667968l35.148437-26.789063-37.546875 21.675781c-1.96875 1.125-4.476562.507813-5.703125-1.398437-1.226562-1.910157-.746094-4.445313 1.09375-5.769531l16.214844-11.546876-18.347656 10.589844c-1.945313 1.117188-4.421875.539063-5.667969-1.324218-1.246094-1.863282-.839844-4.375.933594-5.75l36.539062-28.160157-42.582031 24.621094c-1.945312 1.160156-4.457031.597656-5.722656-1.28125s-.84375-4.417969.960937-5.785156l39.699219-30.96875-48.640625 28.101562c-1.960937 1.121094-4.453125.523438-5.691406-1.363281-1.234375-1.890625-.789063-4.414062 1.023437-5.761719l31.496094-23.304687-40.429688 23.320312c-1.945312 1.144532-4.445312.570313-5.703124-1.300781-1.257813-1.875-.835938-4.40625.957031-5.773437l42.753906-33.03125-59.207031 34.132812c-1.953125 1.101562-4.425782.503906-5.660156-1.367188-1.234376-1.871093-.804688-4.382812.976562-5.742187l43.640625-32.671875-56.320313 32.527344c-1.957031 1.128906-4.449218.539062-5.695312-1.34375-1.242188-1.882813-.804688-4.410156 1-5.761719l46.515625-34.878906-41.8125 24.140625c-1.960937 1.136718-4.46875.539062-5.707031-1.359375-1.238282-1.898438-.777344-4.433594 1.046875-5.773438l28.058593-20.625-23.414062 13.515625c-1.96875 1.128906-4.472656.523438-5.707031-1.378906-1.230469-1.902344-.761719-4.4375 1.074219-5.769531l11.738281-8.535157-7.105469 4.097657c-1.921875 1.09375-4.359375.539062-5.621094-1.28125-1.257812-1.816407-.917968-4.292969.78125-5.707031l22.535156-18.5-17.695312 10.238281c-1.882812 1.09375-4.285156.59375-5.578125-1.15625-1.292969-1.753907-1.058594-4.195313.542969-5.671875l16.210937-14.972656-11.175781 6.484374c-1.882812 1.09375-4.285156.59375-5.578125-1.15625-1.292969-1.753906-1.058594-4.195312.542969-5.671874l3.523437-3.25c-1.085937.140624-2.183593-.125-3.089843-.742188-1.351563-.96875-2.015626-2.632812-1.707032-4.265625l2.441406-12.921875c-.820312-.359375-1.503906-.976562-1.945312-1.757812-1.179688-2.039063-.480469-4.648438 1.5625-5.828126l3.746094-2.160156c1.445312-.832031 3.242187-.746094 4.601562.21875s2.03125 2.632813 1.722656 4.269532l-2.007812 10.617187 22.425781-12.9375c1.882813-1.074219 4.269531-.570313 5.554688 1.175781 1.285156 1.742188 1.058593 4.175782-.527344 5.652344l-2.5625 2.328125 11.09375-6.414063c1.882813-1.09375 4.285156-.597656 5.578125 1.15625 1.292969 1.75 1.058594 4.195313-.542969 5.667969l-16.117187 14.960938 29.78125-17.203125c1.921875-1.09375 4.359375-.539063 5.617187 1.277344 1.257813 1.820312.917969 4.296874-.78125 5.710937l-22.542969 18.507813 33.730469-19.472657c1.96875-1.128906 4.472657-.523437 5.707031 1.378907 1.230469 1.902343.761719 4.4375-1.074218 5.773437l-11.808594 8.53125 18.722656-10.8125c1.960938-1.132813 4.46875-.535156 5.707032 1.363281 1.238281 1.894532.777343 4.429688-1.046876 5.773438l-28.058593 20.640625 36.488281-21.0625c1.953125-1.125 4.449219-.535157 5.691406 1.347656 1.246094 1.882813.808594 4.40625-1 5.761719l-46.503906 34.84375 56.695312-32.667969c1.953126-1.101563 4.425782-.503906 5.660157 1.367187 1.234375 1.875.808593 4.382813-.976563 5.742188l-43.664062 32.65625 52.222656-30.15625c1.941406-1.109375 4.410156-.527344 5.65625 1.328125 1.25 1.855469.851562 4.359375-.910156 5.738281l-42.734375 33.023438 50.644531-29.21875c1.957031-1.121094 4.453125-.523438 5.6875 1.363281 1.238281 1.890625.789062 4.414063-1.019531 5.761719l-31.496094 23.289062 36.480469-21.027344c1.9375-1.101562 4.398437-.523437 5.644531 1.328126 1.246094 1.847656.855469 4.347656-.894531 5.730468l-39.703125 30.992188 45.226562-26.105469c1.941407-1.089844 4.398438-.503906 5.640625 1.347656 1.238282 1.855469.839844 4.351563-.914062 5.726563l-36.558594 28.160156 41.097656-23.746094c1.964844-1.085937 4.4375-.464844 5.652344 1.425782 1.214844 1.886718.757812 4.394531-1.042969 5.734374l-16.300781 11.554688 17.128906-9.882812c1.945313-1.101563 4.410156-.515626 5.652344 1.347656 1.238281 1.859375.832031 4.363281-.933594 5.734375l-35.125 26.761719 37.855469-21.855469c1.980469-1.132813 4.507813-.503907 5.726563 1.429687 1.21875 1.929688.699218 4.480469-1.179688 5.78125l-.425781.300782c1.941406-1.0625 4.375-.460938 5.597656 1.382812s.835937 4.320312-.894531 5.699219l-43.042969 33.714843 44.664063-25.789062c1.964843-1.085938 4.433593-.460938 5.648437 1.425781 1.21875 1.886719.761719 4.394531-1.042969 5.734375l-22.238281 15.828125 21.992187-12.6875c1.976563-1.066406 4.4375-.417969 5.632813 1.480469s.71875 4.398438-1.09375 5.722656l-7.363281 5.050782 5.445312-3.140626c1.976563-1.15625 4.511719-.542968 5.746094 1.386719 1.234375 1.929688.722656 4.488281-1.15625 5.796875l-22.546875 15.796875 20.6875-11.945312c1.953125-1.113281 4.4375-.515625 5.671875 1.363281 1.238281 1.882812.800781 4.398438-.996094 5.75l-49.066406 36.3125 48.042969-27.742188c1.292969-.808593 2.917969-.867187 4.261719-.152343 1.347656.71875 2.207031 2.097656 2.261718 3.621093.054688 1.523438-.710937 2.957032-2.003906 3.765626l-16.167969 10.871093 12.535157-7.234375c1.976562-1.105468 4.46875-.472656 5.683593 1.4375 1.210938 1.910156.722657 4.4375-1.117187 5.753906l-30.203125 21.042969 26.71875-15.425781c1.992187-1.15625 4.542969-.519531 5.761719 1.433594s.667968 4.519531-1.246094 5.800781l-3.003906 2.015625c2.003906-.699219 4.214843.183594 5.191406 2.066406.972656 1.886719.417968 4.199219-1.308594 5.433594l-24.859375 17.828125 19.363281-11.179687c1.957032-1.113282 4.4375-.515626 5.675782 1.367187 1.234374 1.878906.796874 4.394531-1 5.75l-22.585938 16.742187 16.980469-9.796874c1.949219-1.125 4.433593-.546876 5.683593 1.324218 1.246094 1.871094.828126 4.390625-.957031 5.757813l-18.0625 13.816406 10.453125-6.023437c1.898438-1.105469 4.328125-.585938 5.609375 1.203124 1.28125 1.785157.996094 4.253907-.660156 5.699219l-20.925781 18.277344 11.445312-6.597656c1.867188-1.125 4.285156-.65625 5.601563 1.082031 1.316406 1.742188 1.109375 4.195312-.484375 5.6875l-11.542969 11.09375.347656-.199219c1.726563-.984375 3.902344-.652343 5.253907.804688 1.347656 1.457031 1.511718 3.65625.394531 5.296875l-10.390625 15.191406c.367187.3125.675781.6875.910156 1.109375 1.179688 2.039063.484375 4.644531-1.550781 5.828125l-7.679688 4.417969c-.640625.390625-1.371093.605469-2.117187.617187zm0 0" fill="#5e9cea"/><path d="m.0078125 294.765625c-.1484375 2.242187 3.6601565 1.703125 5.0156255 1.449219l30.039062-5.289063c4.207031 23.394531 12.074219 45.984375 23.3125 66.933594l-26.554688 15.359375c-1.707031 1-3.570312 2.5625-1.308593 3.984375 2.101562 1.296875 6.828125-.296875 8.695312-1.371094l22.316407-12.886719c12.273437 19.183594 27.375 36.398438 44.800781 51.0625l-20.703125 24.671876c-4.976563 5.921874 6.828125 7.484374 10.238281 3.371093l18.304687-21.8125c17.28125 13.1875 36.449219 23.691407 56.859376 31.164063-.148438.171875-.28125.355468-.394532.554687l-11.671875 32.078125c-1.628906 4.460938 10.804688 2.984375 12.398438-1.402344 3.363281-9.230468 6.722656-18.460937 10.078125-27.691406 20.167968 6.199219 41.113281 9.503906 62.207031 9.816406v34.234376c0 5.324218 12.390625 2.800781 12.390625-1.46875v-32.929688c20.710938-.765625 41.21875-4.363281 60.953125-10.691406 3.773437 10.351562 7.542969 20.703125 11.308594 31.050781 1.433593 3.953125 13.652343.324219 12.363281-3.308594-3.878906-10.679687-7.765625-21.351562-11.65625-32.019531 19.507812-7.523438 37.867188-17.738281 54.546875-30.34375l19.625 23.347656c2.425781 2.886719 14.25-1.390625 11.546875-4.605468l-21.863281-26.0625c16.449219-13.90625 30.863281-30.058594 42.8125-47.984376l23.644531 13.65625c3.773438 2.175782 15.0625-3.203124 9.761719-6.265624l-27.304688-15.785157c10.507813-19.710937 18.171875-40.808593 22.765625-62.667969l25.386719 4.476563c3.125.699219 6.390625-.175781 8.746094-2.34375 1.5625-1.84375 1.597656-4.445313-1.332031-4.960937l-31.316407-5.519532c1.9375-11.335937 3.105469-22.792968 3.5-34.285156-.335937-11.976562-1.585937-23.90625-3.738281-35.6875l26.648438-4.695312c1.324218-.238282 7.195312-1.421876 7.28125-3.242188.101562-1.988281-3.730469-1.167969-4.882813-.964844l-29.753906 5.242188c-4.613281-23.363282-12.933594-45.832032-24.652344-66.5625l27.542969-15.894532c1.800781-1.042968 3.523437-2.800781 1.246094-4.269531-2.277344-1.464843-6.773438.207031-8.710938 1.316407l-23.3125 13.449218c-11.921875-19.683594-26.882812-37.355468-44.332031-52.355468l21.667969-25.8125c1.757812-2.089844-1.554688-2.304688-2.980469-2.242188-3.019531 0-5.941407 1.066406-8.261719 3.003906l-16.664062 19.871094c-17.363282-13.839844-36.726563-24.972656-57.429688-33.015625l11.367188-31.230469c.972656-2.652344-11-1.324218-12.226563 2.046875-3.097656 8.5-6.191406 17.003907-9.285156 25.515625-20.367188-6.789062-41.585938-10.691406-63.035157-11.597656v-31.519531c0-3.363281-12.359374-1.1875-12.359374 3.308593v30.105469c-20.828126 1.273438-41.394532 5.335938-61.148438 12.074219-3.707031-10.1875-7.40625-20.375-11.09375-30.566406-1.058594-2.910156-13.261719.855468-12.363281 3.3125l11.554687 31.753906c-19.3125 7.835938-37.445312 18.300781-53.890625 31.101562l-20.257812-24.140624c-3.25-3.882813-15.078125.792968-11.382813 5.207031l21.9375 26.144531c.128906.144531.34375.207031.488282.332031-16.160157 14.074219-30.210938 30.394531-41.71875 48.472657l-25.308594-14.609376c-3.304688-1.90625-14.730469 2.992188-9.890625 5.785157l29.558593 17.066406c.179688.0625.367188.109375.554688.144531-11.050781 19.105469-19.109375 39.789063-23.894531 61.335938l-28.457031-5.023438c-5.972657-1.042968-12.648438 7.210938-4.394532 8.6875l30.964844 5.460938c-3.980469 22.769531-4.1875 46.039062-.613281 68.878906l-27.074219 4.769531c-1.527344.273438-7.066406 1.410157-7.2109375 3.527344zm183.8398435-117.011719c45.910156-42.203125 128.855469-22.289062 154.453125 39.585938 6.523438 17.917968 7.878907 37.304687 3.910157 55.953125-12.246094 45.457031-51.789063 79.683593-99.441407 75.144531-.929687-.109375-1.859375-.230469-2.78125-.355469-2.167969-.273437-4.359375-.703125-6.550781-1.136719-25.753906-6.039062-48.367188-21.382812-63.488281-43.085937-1.429688-2.210937-2.769531-4.46875-4.019531-6.773437-19.261719-41.8125-12.058594-90.078126 17.917968-119.332032zm-83.796875 216.628906c-10.128906-10.761718-31.214843-29.621093-25.4375-39.082031l83.125-48.027343c.535157.75 1.097657 1.460937 1.652344 2.195312 1.023437 1.527344 2.050781 3.0625 3.160156 4.527344 20.972657 28.289062 54.46875 44.511718 89.667969 43.433594 35.195312-1.082032 67.636719-19.328126 86.835938-48.851563l88.464843 51.117187c-72.277343 115.257813-233.019531 135.039063-327.46875 34.6875zm165.078125-351.726562c109.226563 4.144531 188.96875 104.90625 191.769532 208.585938-1.042969 31.214843-5.324219 66.167968-21.835938 93.492187-1.148438 1.667969-1.878906 3.589844-2.132812 5.597656-.984376-.222656-1.941407-.566406-2.84375-1.015625l-3.984376-2.304687c-2.832031-1.859375-5.589843-3.957031-7.578124-5.117188-3.320313-1.921875-7.3125-3.925781-11.671876-5.972656l-56.414062-32.597656c-.453125-.503907-.941406-1-1.339844-1.511719-1.875-3.484375-1.996094-7.652344-.324218-11.238281 1.589843-3.714844 2.992187-7.507813 4.195312-11.367188 2.132812-4.863281 3.679688-9.960937 4.609375-15.1875.550781-4.339843.835937-8.710937.855469-13.082031 0-.214844.058594-.417969.074218-.632812.019532-.210938-.042968-.289063-.042968-.433594.011718-47.652344-31.921875-89.390625-77.917969-101.847656-11.585937-3.265626-20.898437.316406-24.457031-6.894532 0-.066406-.050782-.160156-.082032-.230468v-38.398438c0-.605469.082032-1.289062.082032-1.828125 0-1.96875-.050782-3.957031-.082032-5.972656v-38.449219c0-.660156 0-1.324219.082032-1.980469.289062-3.546875.261718-7.109375-.082032-10.648437v-1.769532c.355469-.960937 2.207032.546876 9.121094.804688zm-21.5625-2.125v105.683594c-49.125-.363282-91.367187 34.71875-100.03125 83.074218-4.929687 24.023438-1.347656 49.015626 10.140625 70.6875.179688 1.097657.027344 2.21875-.4375 3.226563 0 .050781-.085937.09375-.117187.136719l-28.289063 16.351562c-.367187.1875-.851562.390625-1.125.578125l-54.394531 31.421875c-70.039062-136.296875 15.992188-304.316406 174.253906-311.160156zm0 0" fill="#262626"/></svg>