<svg height="507pt" viewBox="0 -2 507.3307 507" width="507pt" xmlns="http://www.w3.org/2000/svg"><path d="m237.433594 332.542969c-1.902344 0-3.574219-1.257813-4.101563-3.082031-.527343-1.828126.214844-3.78125 1.824219-4.796876l63.453125-39.953124-81.835937 47.234374c-2.003907 1.085938-4.511719.402344-5.6875-1.554687-1.175782-1.953125-.605469-4.488281 1.292968-5.75l56.925782-35.5-74.152344 42.804687c-2.015625 1.132813-4.570313.457032-5.757813-1.527343-1.1875-1.988281-.574219-4.558594 1.378907-5.796875l42.25-26.101563-57.882813 33.425781c-2.011719 1.125-4.550781.453126-5.738281-1.519531-1.191406-1.972656-.597656-4.535156 1.335937-5.785156l103.386719-64.941406-125.164062 72.246093c-2.011719 1.105469-4.539063.425782-5.71875-1.542968-1.179688-1.96875-.59375-4.519532 1.332031-5.769532l99.59375-62.074218-120.226563 69.386718c-2.003906 1.117188-4.535156.453126-5.730468-1.511718-1.191407-1.960938-.617188-4.515625 1.300781-5.777344l154.957031-98.457031-178.6875 103.183593c-2.023438 1.207032-4.644531.542969-5.851562-1.480468-1.207032-2.023438-.542969-4.640625 1.480468-5.847656l70.742188-43.417969-80.382813 46.402343c-2.011719 1.109376-4.539062.425782-5.71875-1.542968-1.179687-1.964844-.59375-4.515625 1.332031-5.769532l130.320313-81.433593-141.414063 81.613281c-2.015624 1.097656-4.539062.402344-5.710937-1.574219-1.167969-1.976562-.566406-4.523437 1.367187-5.765625l9.582032-5.816406-14.257813 8.234375c-2.015625 1.132813-4.570312.457031-5.757812-1.527344-1.1875-1.988281-.574219-4.558593 1.378906-5.796875l131.515625-81.765625-138.324219 79.890625c-2.019531 1.214844-4.640625.5625-5.859375-1.457031-1.214844-2.019531-.5625-4.640625 1.457032-5.855469l155.125-97.144531-161.558594 93.269531c-2.023438 1.152344-4.597656.46875-5.785156-1.53125-1.1875-2.003906-.550782-4.585937 1.433593-5.808594l38.894531-23.644531-40.714843 23.507813c-2.019531 1.152344-4.59375.472656-5.78125-1.53125-1.1875-2-.550781-4.585938 1.429687-5.808594l26.921875-16.332031-27.390625 15.804687c-2.003906 1.101563-4.523437.425782-5.707031-1.53125-1.183594-1.957031-.613281-4.5 1.296875-5.765625l168.761719-106.664062-171.914063 99.242187c-2.019531 1.152344-4.59375.46875-5.78125-1.53125-1.1875-2.003906-.550781-4.585937 1.429688-5.808594l48.929687-29.867187-47.597656 27.476563c-2.011719 1.09375-4.523437.402343-5.695313-1.5625-1.175781-1.964844-.589843-4.503907 1.328126-5.757813l64.621093-39.738281-63.25 36.519531c-2.007812 1.148437-4.566406.488281-5.765625-1.492187-1.199218-1.980469-.601562-4.554688 1.347656-5.800782l139.28125-88.621094-136.535156 78.859376c-2.015625 1.222656-4.636718.578124-5.863281-1.433594-1.222656-2.015625-.578125-4.640625 1.433594-5.863282l135.914062-86.8125-130.484375 75.324219c-1.996094 1.070313-4.480468.394531-5.660156-1.542969-1.175781-1.933593-.636719-4.453124 1.230469-5.734374l122.992187-78.601563-113.851562 65.75c-2.011719 1.089844-4.527344.402344-5.699219-1.5625s-.585937-4.507813 1.328125-5.757813l8.859375-5.453124c-1.921875.578124-3.984375-.253907-4.960937-2.007813-.976563-1.75-.601563-3.941406.898437-5.273437l31.710937-28.160157c-2.050781.90625-4.449218.074219-5.496093-1.90625-1.046875-1.984375-.382813-4.4375 1.519531-5.617187l36.042969-20.824219c1.898437-1.09375 4.316406-.578125 5.597656 1.199219s1.007813 4.234375-.632813 5.6875l-31.621093 28.09375 226.695312-130.910156c1.308594-.78125 2.933594-.804688 4.265625-.058594 1.332032.742187 2.164063 2.140625 2.183594 3.664062.023438 1.523438-.769531 2.945313-2.082031 3.722656l-5.570313 3.414063 10.546875-6.082031c2.003907-1.121094 4.535157-.453125 5.726563 1.507812 1.195312 1.960938.621094 4.515625-1.296875 5.777344l-123.042969 78.636719 131.746094-76.085938c2.015625-1.222656 4.640625-.582031 5.867187 1.429688 1.226563 2.015625.585938 4.640625-1.429687 5.867187l-135.851563 86.785156 143.308594-82.773437c1.308594-.785156 2.9375-.816406 4.273437-.078125 1.332032.742188 2.171876 2.136719 2.199219 3.664062.027344 1.523438-.761719 2.949219-2.070312 3.734376l-139.289063 88.621093 158.953125-91.777343c2.011719-1.089844 4.523438-.402344 5.695313 1.5625 1.171875 1.964843.585937 4.507812-1.328125 5.757812l-64.734375 39.800781 78.941406-45.566406c2.019531-1.117187 4.554688-.429687 5.734375 1.550781 1.175781 1.980469.570313 4.539063-1.371094 5.777344l-48.640625 29.714844 56.976563-32.878906c2.003906-1.140626 4.550781-.484376 5.75 1.484374 1.203125 1.964844.625 4.53125-1.304688 5.792969l-168.804687 106.667969 180.914062-104.433594c2.023438-1.152344 4.59375-.46875 5.78125 1.53125 1.1875 2.003906.550782 4.585938-1.429687 5.808594l-26.8125 16.273438 29.652343-17.117188c2.019532-1.097656 4.542969-.402344 5.710938 1.574219 1.171875 1.976562.566406 4.523437-1.367188 5.761719l-39.003906 23.722656 41.234375-23.804688c1.304688-.789062 2.929688-.816406 4.265625-.078125 1.335938.738281 2.171875 2.128907 2.203125 3.65625.027344 1.523438-.761719 2.945313-2.066406 3.734375l-155.152344 97.125 158.292969-91.382812c2.007812-1.105469 4.535156-.425782 5.714844 1.542968 1.183594 1.96875.59375 4.519532-1.328125 5.769532l-131.542969 81.808594 131.582031-75.945313c2.015625-1.0625 4.507813-.355469 5.664063 1.605469 1.160156 1.957031.574218 4.480468-1.328125 5.734375l-9.667969 5.871093 9.386719-5.410156c2.007812-1.089844 4.511719-.40625 5.6875 1.550782 1.175781 1.953124.609375 4.488281-1.292969 5.753906l-130.261719 81.320312 143.464844-82.773437c2.015625-1.113281 4.550781-.425781 5.730469 1.554687 1.175781 1.980469.570312 4.535156-1.371094 5.777344l-70.828125 43.457031 77.433594-44.695312c2.007812-1.148438 4.566406-.484375 5.765625 1.492187 1.199218 1.980469.601562 4.554688-1.347656 5.804688l-154.957032 98.480468 165.335938-95.453124c2.003906-1.085938 4.511718-.402344 5.6875 1.554687 1.175781 1.953125.605468 4.488281-1.292969 5.75l-99.472656 62.011719 104.957031-60.585938c2.019531-1.214844 4.644531-.566406 5.859375 1.453125s.566406 4.644531-1.453125 5.859375l-103.542969 65.015625 107.433594-62.019531c2.023437-1.210938 4.644531-.546875 5.851563 1.476562 1.210937 2.023438.550781 4.644532-1.476563 5.851563l-42.101563 26.011719 43.433594-25.078125c2.015625-1.164063 4.589844-.496094 5.789063 1.496093 1.199219 1.996094.578125 4.582032-1.394531 5.816407l-56.917969 35.496093 57.609375-33.277343c2.011718-1.128907 4.550781-.453125 5.742187 1.519531 1.1875 1.972656.597657 4.53125-1.339843 5.785156l-63.511719 39.984375 63.597656-36.691406c2.003906-1.121094 4.535156-.453125 5.730469 1.507813 1.191406 1.960937.617187 4.515624-1.300782 5.777343l-63.265624 40.195313 62.34375-35.996094c2.011718-1.226562 4.640624-.589844 5.867187 1.421875s.589844 4.640625-1.421875 5.867187l-60.003906 38.554688 57.617187-33.28125c1.984375-1.152344 4.527344-.527344 5.753907 1.417969 1.222656 1.945312.683593 4.507812-1.214844 5.800781l-86.648438 58.878906 82.953125-47.878906c1.976563-1.105469 4.46875-.472656 5.683594 1.4375 1.210937 1.910156.722656 4.4375-1.117187 5.753906l-68.8125 47.847656 61.917968-35.710937c2-1.199219 4.59375-.566406 5.820313 1.417969 1.226562 1.988281.628906 4.589844-1.34375 5.84375l-10.367188 6.824218 1.851563-1.066406c1.972656-1.121094 4.476562-.507812 5.703125 1.398438 1.226562 1.910156.746093 4.445312-1.09375 5.769531l-30.019531 21.335937 16.449218-9.5c1.925782-1.117187 4.390625-.570312 5.65625 1.261719s.910156 4.332031-.816406 5.738281l-24.464844 19.992188c1.621094.503906 2.785156 1.921875 2.972656 3.609375.183594 1.683594-.648437 3.320313-2.121093 4.164063l-35.554688 20.515624c-1.921875 1.074219-4.34375.511719-5.597656-1.296874-1.25-1.8125-.917969-4.277344.765625-5.691407l17.859375-14.609375-48.707031 28.160156c-1.96875 1.121094-4.476563.507813-5.703125-1.398437-1.226563-1.910156-.746094-4.445313 1.09375-5.769531l30.011719-21.335938-49.492188 28.570313c-1.992188 1.117187-4.511719.460937-5.710938-1.480469-1.203124-1.945312-.660156-4.488281 1.230469-5.773438l10.34375-6.824218-24.390625 14.011718c-1.96875 1.066407-4.429687.425782-5.632812-1.464843s-.734375-4.390625 1.070312-5.722657l68.820313-47.863281-95.351563 55.050781c-1.980468 1.101563-4.476562.460938-5.683594-1.457031-1.207031-1.917969-.707031-4.445312 1.144532-5.753906l86.621094-58.90625-114.535157 66.117187c-2.003906 1.140626-4.550781.480469-5.75-1.484374-1.203125-1.96875-.625-4.535157 1.304688-5.796876l59.988281-38.492187-79.246094 45.773437c-2.003906 1.117188-4.539062.453126-5.730468-1.511718-1.191407-1.960938-.617188-4.515625 1.300781-5.777344l63.289062-40.207031-82.320312 47.496093c-.648438.382813-1.386719.589844-2.140625.597657zm0 0" fill="#4fc0e8"/><path d="m110.738281 108.371094c-1.886719 0-3.550781-1.242188-4.089843-3.050782-.539063-1.8125.179687-3.761718 1.761718-4.792968l9.496094-6.152344-1.980469 1.128906c-1.953125 1.109375-4.4375.511719-5.671875-1.367187-1.238281-1.878907-.800781-4.398438.996094-5.75l57.378906-42.523438-42.667968 24.636719c-1.914063 1.113281-4.359376.574219-5.632813-1.234375-1.273437-1.8125-.949219-4.296875.746094-5.71875l30.171875-25.480469c-2.015625.257813-3.9375-.941406-4.589844-2.867187s.148438-4.046875 1.910156-5.0625l38.339844-22.136719c1.914062-1.109375 4.363281-.574219 5.636719 1.238281 1.273437 1.808594.949219 4.292969-.746094 5.71875l-28.722656 24.292969 65.988281-38.125c1.957031-1.1132812 4.4375-.515625 5.675781 1.363281 1.234375 1.882813.796875 4.398438-1 5.753907l-57.421875 42.546874 79.277344-45.757812c1.992188-1.070312 4.472656-.398438 5.652344 1.527344 1.183594 1.929687.65625 4.445312-1.199219 5.734375l-9.480469 6.160156 17.203125-9.921875c1.324219-.839844 3-.890625 4.367188-.125 1.371093.761719 2.210937 2.214844 2.1875 3.78125-.019531 1.570312-.898438 2.996094-2.289063 3.722656l-159.1875 91.890625c-.640625.371094-1.367187.566407-2.109375.570313zm0 0" fill="#4fc0e8"/><g fill="#262626"><path d="m469.820312 132.316406c-11.851562-10.703125-28.550781-14.105468-39.941406-23.542968-20.070312-16.617188-22.460937-43.222657-47.992187-56.84375-20.660157-11.007813-42.4375-3.984376-61.894531-13.378907-23.226563-11.246093-36.480469-30.019531-64.273438-35.730469-25.089844-5.148437-51.140625-2.773437-74.886719 6.828126-22.113281 8.972656-41.253906 23.988281-55.238281 43.324218-15.671875 21.929688-14.230469 44.007813-39.25 53.894532-48.964844 19.371093-86.664062 55.988281-86.33984375 112.386718.35546875 64.699219 52.95703175 110.292969 114.87499975 113.414063h132.488282v166.921875c0 6.765625 12.558593 5.1875 12.558593-.785156v-166.136719h78.78125c72.398438 0 153.667969-10.042969 167.253907-98.796875 5.9375-37.78125-7.65625-76-36.113282-101.546875zm-30.351562 179.523438c-33 17.484375-74.144531 12.550781-110.386719 12.550781h-69.121093v-117.757813l39.253906 39.253907c3.925781 3.925781 15.625-1.136719 11.316406-5.445313l-51.203125-51.199218c-.058594-.0625-.152344-.070313-.21875-.128907-1.65625-1.476562-3.886719-2.132812-6.078125-1.792969-2.191406.339844-4.117188 1.644532-5.246094 3.550782l-50.484375 50.484375c-5.453125 5.441406 6.453125 7.507812 10.34375 3.617187l39.746094-39.738281v119.125h-128c-129.59375-6.546875-144.210937-197.675781-10.238281-213.335937 2.644531-.304688 6.324218-1.707032 6.894531-4.710938 18.628906-97.542969 134.570313-129.746094 200.261719-53.613281 1.859375 1.574219 4.421875 2.035156 6.714844 1.210937 43.261718-9.796875 77.039062 17.332032 85.929687 57.226563.417969 1.125 1.382813 1.964843 2.558594 2.21875 89.492187 25.523437 116.679687 151.457031 27.957031 198.484375zm0 0"/><path d="m228.566406 33.765625c-39.761718.59375-74.894531 26.015625-87.890625 63.597656-2.347656 6.824219 10.007813 6.886719 11.851563 1.535157 10.46875-32.734376 40.59375-55.1875 74.957031-55.867188 7.148437-.195312 9.488281-9.496094 1.082031-9.265625zm0 0"/><path d="m119.265625 289.925781c-87.167969-4.710937-98.578125-133.460937-7.84375-144.445312 6.828125-.851563 9.539063-10.015625 1.117187-9-42.453124 5.117187-78.113281 36.734375-78.507812 81.59375-.382812 45.738281 37.300781 78.4375 80.914062 80.792969 6 .324218 12.664063-8.488282 4.320313-8.941407zm0 0"/></g></svg>