<svg height="503pt" viewBox="-66 0 503 503.39734" width="503pt" xmlns="http://www.w3.org/2000/svg"><path d="m120.847656 418.0625c-1.90625.003906-3.582031-1.253906-4.109375-3.085938-.527343-1.828124.222657-3.789062 1.839844-4.796874l17.492187-10.964844-26.035156 15.027344c-2.003906 1.164062-4.570312.515624-5.78125-1.457032-1.210937-1.976562-.628906-4.554687 1.316406-5.816406l103.765626-67.308594-106.519532 61.515625c-2 1.101563-4.511718.433594-5.699218-1.515625-1.1875-1.949218-.632813-4.488281 1.261718-5.761718l99.496094-63.695313-96.425781 55.640625c-2.015625 1.132812-4.566407.457031-5.753907-1.53125-1.1875-1.984375-.578124-4.554688 1.378907-5.792969l14.503906-8.925781-11.09375 6.417969c-2.003906 1.101562-4.519531.425781-5.707031-1.53125-1.183594-1.957031-.609375-4.5 1.296875-5.765625l83.125-52.511719-82.585938 47.675781c-2.003906 1.070313-4.492187.382813-5.664062-1.558594-1.175781-1.945312-.621094-4.464843 1.257812-5.738281l85.335938-53.820312-85.632813 49.382812c-2.003906 1.054688-4.484375.363281-5.648437-1.578125-1.164063-1.941406-.613281-4.457031 1.261719-5.726562l66.261718-41.402344-67.480468 38.925781c-2.011719 1.148438-4.566407.488281-5.765626-1.492187-1.199218-1.980469-.605468-4.554688 1.34375-5.800782l115.695313-73.773437-120.132813 69.359375c-2.023437 1.207031-4.640624.542969-5.847656-1.480469-1.207031-2.023437-.542968-4.640625 1.480469-5.847656l16.75-10.242187-18.585937 10.691406c-2.023438 1.210937-4.644532.550781-5.855469-1.472656-1.207031-2.027344-.546875-4.648438 1.476562-5.855469l40.183594-24.746094-42.757813 24.6875c-2.015624 1.132813-4.570312.457031-5.757812-1.527344-1.1875-1.988281-.574219-4.558593 1.378906-5.796875l62.53125-38.792968-65.851562 37.957031c-2.015625 1.164062-4.589844.496093-5.789063-1.496094-1.195312-1.996094-.578125-4.582031 1.394531-5.816406l80.417969-50.074219-84.292969 48.640625c-2.003906 1.121094-4.535156.453125-5.726562-1.507813-1.191406-1.960937-.617188-4.515624 1.300781-5.777343l145.246094-93.109375-150.1875 86.699218c-2.015625 1.113282-4.554687.425782-5.730469-1.554687-1.179687-1.976563-.574218-4.535156 1.367188-5.777344l33.085937-20.308593-34.132812 19.695312c-2.015625 1.117188-4.554688.429688-5.730469-1.550781-1.179688-1.980469-.574219-4.539063 1.367188-5.777344l1.375-.855469-1.066407.605469c-1.960937.832031-4.234375.085937-5.328125-1.746094-1.089844-1.828125-.660156-4.183593 1.003906-5.515625l115.785157-73.019531-117.21875 67.636719c-2.007813 1.121094-4.539063.453125-5.730469-1.507813-1.191406-1.964843-.617188-4.515625 1.300781-5.78125l142.105469-91.144531-143.652344 82.9375c-1.992187 1.019531-4.433594.328125-5.59375-1.585938-1.160156-1.914062-.644531-4.402343 1.183594-5.695312l103.882812-65.398438-102.996093 59.425782c-2.015625 1.21875-4.640625.570312-5.859375-1.445313-1.214844-2.019531-.570313-4.640625 1.449218-5.859375l102.398438-64.632812-101.015625 58.328125c-1.996094 1.054687-4.464844.375-5.640625-1.546875-1.175781-1.925782-.648438-4.433594 1.203125-5.722656l127.027344-81.820313-124.101563 71.636719c-1.996094 1.101562-4.5.4375-5.695312-1.5-1.191406-1.941406-.648438-4.476563 1.230468-5.761719l124.894532-81.226563-120.652344 69.640626c-2.003906 1.085937-4.511719.402343-5.6875-1.554688-1.175781-1.953125-.605469-4.488281 1.292969-5.75l48.90625-30.679688-43.4375 25.074219c-1.996094 1.054688-4.472657.367188-5.640625-1.566406-1.171875-1.929687-.632813-4.441406 1.230468-5.722656l60.492188-38.398438-53.851562 31.128907c-1.988282 1.070312-4.464844.40625-5.652344-1.511719-1.1875-1.921875-.675782-4.433594 1.171875-5.734375l91.109375-60.058594-81.433594 47.011719c-1.988281 1.175781-4.546875.558593-5.78125-1.390625-1.234375-1.953125-.691406-4.53125 1.222656-5.820313l87.980469-60.339843-72.636719 41.917968c-2.003906 1.25-4.640625.640625-5.890625-1.363281-1.253906-2.003906-.644531-4.640625 1.359375-5.890625l46.558594-31.738281-27.871094 16.121093c-1.941406 1.09375-4.398437.507813-5.636718-1.347656-1.242188-1.855468-.84375-4.347656.910156-5.726562l34.824218-26.734375c-1.773437-.300781-3.164062-1.683594-3.484374-3.453125-.316407-1.769532.511718-3.550782 2.070312-4.449219l47.527344-27.453125c1.949218-1.152344 4.460937-.578125 5.71875 1.304688 1.261718 1.878906.828125 4.417968-.980469 5.78125l-28.9375 22.226562 70.511719-40.71875c1.976562-1.074219 4.449218-.429688 5.648437 1.476562s.707031 4.417969-1.117187 5.734376l-46.5 31.691406 68.855468-39.75c1.984376-1.132813 4.507813-.503906 5.726563 1.429687 1.21875 1.933594.699219 4.480469-1.175781 5.78125l-87.980469 60.339844 110.601563-63.847656c1.988281-1.070313 4.464843-.40625 5.652343 1.515625 1.1875 1.917968.671875 4.429687-1.171875 5.730468l-91.050781 60.050782 106.570313-61.535156c2.011718-1.148438 4.570312-.484376 5.769531 1.492187 1.199219 1.980469.601562 4.554687-1.347657 5.804687l-60.5 38.398438 70.398438-40.644531c2.019531-1.214844 4.644531-.5625 5.859375 1.457031s.5625 4.640625-1.457031 5.855469l-49.058594 30.722656 55.792969-32.222656c1.992187-1.070313 4.472656-.398438 5.65625 1.527343 1.179687 1.929688.652343 4.441407-1.203125 5.734376l-124.773438 81.175781 136.875-79.015625c2.003906-1.140625 4.550782-.484375 5.75 1.484375 1.203125 1.964843.625 4.53125-1.304687 5.792969l-127.011719 81.816406 136.347656-78.726563c2.015625-1.21875 4.640625-.570312 5.859375 1.445313 1.214844 2.019531.570313 4.640625-1.449219 5.859375l-102.550781 64.726562 108.765625-62.789062c2.007813-1.128907 4.550782-.453125 5.738282 1.519531 1.191406 1.972656.597656 4.53125-1.335938 5.785156l-103.75 65.320313 108.777344-62.804688c2.007812-1.175781 4.589844-.527343 5.800781 1.460938 1.210937 1.992187.601563 4.582031-1.363281 5.828125l-142.089844 91.152344 148.324219-85.648438c2.007812-1.105469 4.523437-.429688 5.707031 1.53125 1.1875 1.957031.613281 4.5-1.292969 5.765625l-115.824219 73.042969 119.332032-68.890625c1.308594-.777344 2.9375-.796875 4.265625-.050781 1.332031.746093 2.164062 2.144531 2.179687 3.667968.019532 1.523438-.773437 2.945313-2.085937 3.722656l-1.484375.855469 1.972656-1.136719c2.023438-1.207031 4.640625-.542968 5.847656 1.480469 1.207032 2.023438.542969 4.644531-1.480468 5.851563l-33.074219 20.300781 32.800781-18.9375c1.996094-1.070313 4.480469-.390625 5.660156 1.542969 1.175782 1.9375.636719 4.453125-1.230468 5.734375l-145.238282 93.203125 147.882813-85.332032c1.308593-.785156 2.933593-.8125 4.265625-.070312 1.332031.742188 2.171875 2.136719 2.195312 3.660156.023438 1.523438-.765625 2.945313-2.074218 3.730469l-80.519532 50.140625 79.84375-46.078125c2.011719-1.109375 4.539063-.425781 5.71875 1.542969 1.179688 1.96875.59375 4.515625-1.332031 5.769531l-62.445313 38.714844 61.070313-35.257813c2.027344-1.210937 4.648437-.550781 5.855469 1.476563 1.210937 2.023437.546875 4.644531-1.476563 5.851562l-40.386719 24.910157 38.714844-22.359376c2.023438-1.207031 4.644532-.542968 5.847656 1.480469 1.207032 2.027344.546876 4.644531-1.480468 5.851563l-16.40625 10.078125 13.019531-7.519531c2.003906-1.121094 4.535156-.453126 5.730469 1.507812 1.191406 1.964844.617187 4.515625-1.300782 5.78125l-115.667968 73.726562 112.835937-65.132812c2.003907-1.089844 4.511719-.40625 5.6875 1.550781 1.175781 1.953125.605469 4.488281-1.292969 5.753907l-66.414062 41.503906 61.8125-35.6875c2.003906-1.066406 4.492188-.382813 5.664062 1.558594 1.175782 1.945312.621094 4.464843-1.261718 5.738281l-85.304688 53.820312 79.726563-46.078125c2.007812-1.128906 4.550781-.453125 5.738281 1.519532 1.191406 1.972656.597656 4.53125-1.335938 5.785156l-83.113281 52.496094 76.046875-43.894532c2.015625-1.136718 4.570313-.460937 5.757813 1.527344 1.1875 1.984375.574219 4.554688-1.378907 5.792969l-14.507812 8.949219 6.972656-4.027344c2.007813-1.175782 4.589844-.523438 5.800782 1.464844 1.210937 1.988281.605468 4.578124-1.363282 5.824218l-99.5 63.699219 87.792969-50.6875c2.007813-1.230469 4.636719-.597656 5.867187 1.414063 1.226563 2.007812.597657 4.636718-1.414062 5.867187l-103.738281 67.328125 86.476562-49.921875c2.003907-1.085937 4.511719-.402344 5.6875 1.554687 1.175781 1.953126.605469 4.488282-1.292969 5.75l-17.410156 10.914063 1.066406-.613281c1.292969-.808594 2.917969-.863282 4.265626-.148438 1.347656.714844 2.207031 2.09375 2.261718 3.617188.054688 1.523437-.710937 2.960937-2.003906 3.765625l-73.121094 49.289062 34.40625-19.855469c1.949219-1.109374 4.421875-.519531 5.664063 1.347657 1.242187 1.867187.824219 4.375-.953125 5.742187l-52.371094 39.578125 33.820312-19.523437c1.941407-1.132813 4.429688-.5625 5.6875 1.304687 1.253907 1.867188.847657 4.386719-.9375 5.761719l-20.078124 15.5625 10.964843-6.320312c1.832031-1.039063 4.148438-.582032 5.453125 1.070312 1.300782 1.652344 1.207032 4.007812-.230468 5.550781l-15.460938 16.304688 8.4375-4.863281c1.792969-1.03125 4.066406-.628907 5.398438.957031 1.328124 1.582031 1.332031 3.890625.003906 5.476562l-4.070313 4.847657c1.46875.652343 2.441407 2.074218 2.523438 3.675781.085937 1.605469-.738281 3.117187-2.128907 3.917969l-13.773437 7.953124c-1.792969 1.03125-4.066406.628907-5.394531-.953124-1.332032-1.585938-1.332032-3.894532-.007813-5.480469l.75-.902344-12.933593 7.464844c-1.835938 1.035156-4.148438.582031-5.453126-1.070313-1.300781-1.652344-1.207031-4.011718.230469-5.550781l15.453125-16.308594-39.730468 22.9375c-1.945313 1.132813-4.433594.5625-5.691407-1.304687-1.253906-1.867188-.84375-4.386719.9375-5.761719l20.09375-15.570313-39.25 22.636719c-1.949219 1.109375-4.425781.523438-5.667969-1.347656-1.238281-1.867187-.824218-4.375.957032-5.742187l52.386718-39.601563-80.855468 46.691406c-1.988282 1.132813-4.515625.496094-5.730469-1.441406-1.210937-1.941406-.679687-4.492187 1.207031-5.785156l73.132813-49.304688-97.9375 56.53125c-.644531.386719-1.382813.597657-2.132813.605469zm0 0" fill="#f5b945"/><path d="m171.132812 460.730469c-1.835937 0-3.464843-1.175781-4.046874-2.917969-.582032-1.742188.019531-3.660156 1.488281-4.761719l2.003906-1.519531-14.949219 8.59375c-1.835937 1.050781-4.164062.59375-5.472656-1.070312-1.304688-1.664063-1.195312-4.03125.257812-5.570313l19.816407-20.667969-42.667969 24.613282c-1.859375 1.054687-4.214844.574218-5.507812-1.125-1.292969-1.703126-1.128907-4.101563.386718-5.609376l16.332032-16.066406-18.558594 10.707032c-1.828125 1.046874-4.148438.601562-5.460938-1.046876-1.3125-1.652343-1.222656-4.011718.214844-5.558593l5.972656-6.363281-1.273437.714843c-1.503907.867188-3.382813.738281-4.75-.328125-1.371094-1.066406-1.957031-2.855468-1.488281-4.527344l2.175781-7.679687c-.742188-.378906-1.355469-.972656-1.757813-1.707031-1.171875-2.035156-.476562-4.636719 1.554688-5.820313l4.265625-2.464843c1.503906-.871094 3.390625-.746094 4.761719.324218 1.371093 1.066406 1.960937 2.859375 1.484374 4.53125l-1.414062 4.976563 17.117188-9.875c1.828124-1.046875 4.148437-.601563 5.460937 1.046875 1.3125 1.652344 1.21875 4.011718-.214844 5.558594l-5.972656 6.355468 22.539063-13.003906c1.855468-1.058594 4.210937-.578125 5.503906 1.125 1.296875 1.703125 1.128906 4.101562-.386719 5.609375l-16.238281 16.117187 39.585937-22.859374c1.839844-1.0625 4.175781-.613282 5.488281 1.054687s1.199219 4.046875-.265624 5.585937l-19.839844 20.707032 47.480468-27.40625c1.949219-1.136719 4.445313-.554688 5.695313 1.324218 1.25 1.878907.824219 4.40625-.976563 5.765626l-1.996093 1.511718 14.957031-8.636718c1.886719-1.167969 4.347656-.695313 5.671875 1.085937 1.320313 1.777344 1.058594 4.273437-.601563 5.742187l-18.511718 17.5 22.480468-12.96875c1.828126-1.0625 4.160157-.621093 5.476563 1.03125 1.316406 1.65625 1.222656 4.027344-.222656 5.570313l-9.515625 10.242187 4.199218-2.414062c2.027344-1.0625 4.527344-.335938 5.671876 1.644531 1.144531 1.980469.527343 4.507813-1.402344 5.734375l-28.835938 16.589844c-1.828125 1.046875-4.144531.605469-5.457031-1.042969-1.316406-1.648437-1.230469-4.007812.199219-5.554687l9.5-10.238282-29.125 16.835938c-1.886719 1.164062-4.347656.695312-5.671875-1.085938-1.320313-1.777343-1.058594-4.273437.601562-5.742187l18.5-17.527344-42.128906 24.355469c-.644531.390625-1.378906.597656-2.132813.605469zm0 0" fill="#cad0d7"/><path d="m168.410156 503.398438c-1.769531 0-3.359375-1.097657-3.988281-2.753907s-.167969-3.527343 1.15625-4.707031l16.214844-14.359375-34.074219 19.625c-1.90625 1.097656-4.335938.566406-5.609375-1.226563-1.273437-1.796874-.972656-4.265624.695313-5.703124l12.996093-11.203126-17.144531 9.925782c-1.832031 1.035156-4.148438.578125-5.449219-1.074219-1.304687-1.652344-1.207031-4.007813.226563-5.546875l10.496094-11.09375-7.167969 4.128906c-1.46875.84375-3.300781.742188-4.664063-.265625-1.363281-1.007812-2-2.722656-1.625-4.375l2.558594-11.394531c-.898438-.34375-1.652344-.992188-2.125-1.832031-1.171875-2.039063-.476562-4.640625 1.554688-5.820313l4.265624-2.476562c1.46875-.851563 3.304688-.75 4.671876.257812 1.363281 1.007813 2.003906 2.730469 1.625 4.386719l-2.113282 9.25 24.171875-13.960937c1.835938-1.050782 4.160157-.597657 5.46875 1.058593 1.308594 1.65625 1.207031 4.023438-.238281 5.5625l-10.511719 11.09375 30.90625-17.765625c1.910157-1.101562 4.339844-.566406 5.613281 1.226563 1.273438 1.796875.972657 4.265625-.695312 5.699219l-12.996094 11.207031 31.519532-18.195313c1.898437-1.097656 4.316406-.578125 5.597656 1.199219s1.011718 4.234375-.628906 5.6875l-16.214844 14.363281 31.574218-18.203125c1.847657-1.050781 4.1875-.585937 5.484376 1.097657 1.300781 1.679687 1.167968 4.0625-.3125 5.585937l-16.640626 16.902344 11.476563-6.621094c1.746094-1 3.957031-.644531 5.300781.851563 1.34375 1.5 1.457032 3.734374.273438 5.359374l-5.515625 7.503907c1.832031.203125 3.324219 1.5625 3.703125 3.367187.375 1.804688-.449219 3.644532-2.046875 4.566406l-13.773438 7.953126c-1.746093 1.019531-3.972656.671874-5.324219-.835938-1.351562-1.507812-1.457031-3.753906-.253906-5.382812l4.265625-5.820313-21.152343 12.152344c-1.847657 1.0625-4.199219.601562-5.503907-1.082031-1.308593-1.6875-1.167969-4.078126.324219-5.601563l16.648438-16.914063-40.886719 23.597657c-.640625.390625-1.378907.597656-2.132813.605469zm0 0" fill="#a9b0bb"/><g fill="#262626"><path d="m285.695312 352.816406c12.480469-30.148437 43.800782-49.558594 60.335938-77.839844 16.316406-28.644531 24.933594-61.027343 25.011719-93.996093-4.1875-92.910157-73.4375-172.082031-167.953125-180.324219-89.90625-7.492188-172.476563 49.890625-196.792969 136.773438-11.976563 45.335937-6.175781 93.535156 16.210937 134.738281 14.507813 26.453125 38.160157 42.140625 54.441407 66.5625 13.144531 19.71875 11.199219 33.859375 17 56.089843 1.007812 3.871094-.289063 8.882813 2.414062 12.414063 3.679688 4.8125 8.816407 8.304687 14.644531 9.960937 0 20.914063.957032 36.582032 17.152344 42.101563-.085937 20.410156-2.636718 41.515625 23.347656 42.777344 21.332032 1.042969 42.957032.050781 64.339844 0h.5625.648438c.265625-.023438.527344-.058594.785156-.109375.28125 0 .445312 0 .753906-.0625 24.871094-4.015625 24.53125-21.800782 24.359375-42.085938 18.953125-6.59375 17.316407-25.359375 17.152344-43.894531 23.535156-9.335937 15.226563-38.074219 25.585937-63.105469zm-64.394531 143.847656h-55.75c-12.492187 0-22.457031-1.082031-24.984375-16.367187-.699218-6.292969-.761718-12.640625-.179687-18.941406 1.066406.050781 2.082031.132812 3.234375.132812 29.015625.097657 57.976562 0 86.964844 0-.152344 2.59375-.152344 5.191407 0 7.785157.023437 8.394531 2.585937 24.984374-9.285157 27.390624zm15.222657-44.730468h-68.632813c-8.832031 0-22.417969 2.730468-30.796875 0-14.710938-4.804688-14.019531-19.867188-13.601562-32.777344 5.65625.257812 11.503906-.085938 17.1875-.332031h22.183593c27.902344 1.765625 55.886719 1.765625 83.789063 0h1.101562c.625 11.628906 2.421875 29.507812-11.230468 33.109375zm4.507812-42.667969h-120.398438c-5.425781-1.210937-9.804687-4.777344-14.113281-14.507813-6.683593-15.058593-3.226562-34.046874-11.734375-50.53125-11.65625-22.5625-32.65625-36.574218-47.574218-56.679687-57.511719-77.539063-41.585938-186.972656 35.636718-244.90625 115.097656-83.941406 269.523438 3.078125 275.625 139.273437.054688 38.09375-11.789062 75.257813-33.875 106.296876-12.578125 17.121093-30.355468 29.570312-42.15625 47.199218-13.96875 20.863282-8.847656 38.84375-17.816406 59.441406-7.722656 17.785157-10.941406 13.21875-23.570312 14.414063zm0 0"/><path d="m188.148438 35.753906c-2.84375 0-5.6875.082032-8.53125.246094-2.425782.128906-6.769532.855469-8.234376 3.089844-1.46875 2.234375 1.261719 2.664062 3.0625 2.558594 2.839844-.152344 5.683594-.230469 8.53125-.246094 3.046876.113281 6.015626-1 8.234376-3.089844 1.519531-2.292969-1.277344-2.566406-3.0625-2.558594zm0 0"/><path d="m141.804688 40.824219c-50.996094 16.167969-90.089844 57.429687-103.484376 109.226562-1.535156 5.792969 11.09375 4.351563 12.511719-.992187 11.996094-47.003906 47.136719-84.644532 93.207031-99.839844 7.417969-2.535156 5.324219-10.90625-2.234374-8.394531zm0 0"/><path d="m336.84375 182.894531c0-3.148437-.085938-6.289062-.257812-9.4375-.222657-4.078125-12.628907-1.535156-12.363282 3.308594.136719 2.5625.230469 5.121094.246094 7.628906.027344 5.222657 12.390625 2.664063 12.375-1.5zm0 0"/><path d="m287.722656 291.054688c21.703125-20.0625 37.292969-45.851563 44.964844-74.394532.640625-2.3125-11.332031-.851562-12.179688 2.234375-7.800781 29.28125-24.011718 55.632813-46.632812 75.792969-.367188.335938-.382812.566406-.238281.742188-21.324219 20.84375-35.695313 47.753906-41.15625 77.066406-.503907 2.558594 11.605469.726562 12.175781-2.234375 5.460938-30.078125 20.445312-57.601563 42.742188-78.507813.300781-.300781.378906-.519531.324218-.699218zm0 0"/></g></svg>