<svg height="512" viewBox="0 0 61 60" width="512" xmlns="http://www.w3.org/2000/svg"><g id="023---Email-Malware" fill="none"><path id="Path" d="m9.707 59.471c-.22380148.0001026-.42041256-.1485273-.48134249-.363875-.06092993-.2153478.02866358-.4449556.21934249-.562125l19.849-12.214-22.642 13.069c-.2353357.1240261-.52657993.04207-.66269982-.1864836-.13611989-.2285535-.06945065-.5236725.15169982-.6715164l23.294-14.334-25.6 14.78c-.23638246.1285498-.53210687.0469768-.6691568-.184581-.13704993-.2315579-.06627089-.5300498.1601568-.675419l15.283-9.255-15.809 9.127c-.23638246.1285498-.53210687.0469768-.6691568-.184581-.13704993-.2315579-.06627089-.5300498.1601568-.675419l15.741-9.532-15.697 9.062c-.23620749.133071-.53543293.0536509-.67455995-.1790411-.13912701-.2326919-.06746125-.5338687.16155995-.6789589l26.178-16.137-25.72 14.849c-.23649337.126689-.53082268.0441496-.66695642-.1870361s-.06554462-.5286074.15995642-.6739639l.718-.431-.211.122c-.23596019.1244074-.52802952.041678-.66369597-.1879935-.13566644-.2296716-.06715011-.5253981.15569597-.6720065l8.8-5.306-8.292 4.787c-.23775858.1405564-.54444351.0617586-.68499997-.176-.14055647-.2377586-.0617586-.5444435.17599997-.685l9.667-5.84-9.158 5.288c-.23803473.1405565-.54494351.0615347-.68549998-.1765-.14055646-.2380347-.06153473-.5449435.17649998-.6855l9.093-5.495-8.584 4.956c-.23775858.1405564-.5444435.0617586-.68499997-.176-.14055646-.2377586-.06175859-.5444435.17599997-.685l14.257-8.685-13.748 7.939c-.23803473.1402803-.54471967.0610347-.685-.177s-.06103473-.5447197.177-.685l4.182-2.52-3.674 2.121c-.23583577.1260453-.52910097.0442222-.66561588-.1857118-.13651492-.2299339-.06795177-.5265795.15561588-.6732882l13.7-8.365-13.19 7.615c-.23775858.1405564-.54444351.0617586-.68499997-.176-.14055647-.2377586-.0617586-.5444435.17599997-.685l9.1-5.529-8.591 4.961c-.23319341.1126333-.51379644.0285707-.64665284-.1937233-.1328564-.2222939-.07399236-.5092427.13565284-.6612767l14.551-8.935-14.04 8.105c-.23508655.127347-.52875831.0472199-.66659082-.1818764-.13783251-.2290964-.071048-.5260868.15159082-.6741236l20.977-13.132-20.462 11.818c-.23628449.1306359-.5336041.0500916-.67163931-.181948s-.06692381-.5317553.16063931-.677052l13.045-8.026-12.534 7.232c-.23583577.1260453-.52910097.0442222-.66561588-.1857118-.13651492-.2299339-.06795177-.5265795.15561588-.6732882l6.99-4.263-6.481 3.741c-.23428497.1222281-.52322996.0410463-.65957568-.1853141-.13634571-.2263603-.07301042-.5197344.14457568-.6696859l18.564-11.671-18.049 10.42c-.23748244.1419372-.54506282.0644824-.687-.173s-.06448244-.5450628.173-.687l15.655-9.79-15.141 8.744c-.23583577.1260453-.52910097.0442222-.66561588-.1857118-.13651492-.2299339-.06795177-.5265795.15561588-.6732882l4.845-2.962-4.335 2.5c-.23583577.1260453-.52910097.0442222-.66561588-.1857118-.13651492-.2299339-.06795177-.5265795.15561588-.6732882l2.922-1.784-2.412 1.394c-.23460579.1253855-.5263122.0451285-.66376043-.18262s-.07251115-.523243.14776043-.67238l14.453-9.1-13.937 8.046c-.23486417.1312813-.53150396.0531604-.67124116-.1767732-.1397372-.2299337-.07245767-.5292187.15224116-.6772268l16.777-10.75-16.258 9.386c-.23617349.1361818-.537908.0580681-.67833183-.1756081-.14042384-.2336761-.06777083-.5367718.16333183-.6813919l11.116-6.985-9.826 5.673c-.23424781.1308833-.53004345.0535271-.67022619-.1752769-.14018273-.228804-.07476503-.527467.14822619-.6767231l14.643-9.464-3.775 2.179c-.2327682.1379387-.5330334.0656905-.677577-.1630348s-.0809181-.5309351.143577-.6819652l9.072-6.252-.136.079c-.2292016.13030393-.5201978.0602449-.6649792-.1600976-.1447814-.22034249-.0935911-.51524355.1169792-.6739024l6.192-4.6c-.0917855-.23080705-.0002217-.49399968.215-.618l2.8-1.614c.2292016-.13030393.5201978-.0602449.6649792.1600976.1447814.22034249.0935911.51524355-.1169792.6739024l-2.209 1.635 3.489-2.015c.2327682-.13793867.5330334-.06569054.677577.16303478s.0809181.53093515-.143577.68196522l-9.079 6.259 10.177-5.875c.2338963-.12695469.5262491-.04844997.6650871.17859405.1388379.22704402.0755015.5230536-.1440871.67340595l-14.642 9.464 15.7-9.066c.2355125-.13195996.5332497-.0531389.6726204.17806525.1393708.23120415.0700423.53129378-.1566204.67793475l-11.106 6.982 11.851-6.838c.234023-.12528526.5251579-.04585984.6631351.18091194s.0746978.5218373-.1441351.67208806l-16.78 10.747 17.831-10.293c.2363779-.14276559.5437344-.06687785.6865.16950001.1427656.23637787.0668779.54373438-.1695.68649999l-14.448 9.099 15.283-8.826c.2369888-.13504713.5384839-.05523499.6776156.17937913.1391316.23461413.0645535.53744647-.1676156.68062087l-2.893 1.768 3.271-1.889c.1536242-.09128136.3442768-.09367127.5001409-.00626949s.2532602.25131686.2555.43c.0022399.17868314-.0910167.34498813-.2446409.43626949l-4.858 2.97 5.276-3.049c.2350866-.12734701.5287583-.04721993.6665908.18187644.1378325.22909636.071048.52608673-.1515908.67412356l-15.658 9.788 16.494-9.517c.234285-.12222814.52323-.0410463.6595757.18531407.1363457.22636033.0730104.51973443-.1445757.66968593l-18.554 11.662 19.529-11.272c.2362845-.1306359.5336041-.0500916.6716393.181948s.0669238.5317553-.1606393.677052l-6.975 4.253 7.441-4.3c.1534456-.09146.3440284-.0941103.4999579-.0069525s.2535161.2508822.256.4295-.0905123.3449925-.2439579.4364525l-13.063 8.041 13.718-7.92c.2355125-.13196.5332497-.0531389.6726204.1780652.1393708.2312042.0700423.5312938-.1566204.6779348l-20.982 13.135 22.006-12.7c.2357179-.1278172.530297-.0469384.667702.1833224.137405.2302607.0687118.5279174-.155702.6746776l-14.522 8.908 15.202-8.777c.2369888-.1350471.5384839-.055235.6776156.1793791.1391316.2346142.0645535.5374465-.1676156.6806209l-9.133 5.548 9.66-5.577c.2362845-.1306359.5336041-.0500916.6716393.181948s.0669238.5317553-.1606393.677052l-13.7 8.368 14.39-8.308c.2370186-.1320316.5360843-.0509486.6739531.1827228s.0642274.5346559-.1659531.6782772l-4.17 2.513 4.6-2.654c.2354667-.1225198.5256326-.0396943.6609447.1886614.135312.2283558.0686058.5226457-.1519447.6703386l-14.265 8.688 14.944-8.628c.2363825-.1285498.5321069-.0469768.6691568.184581.1370499.2315579.0662709.5300498-.1601568.675419l-9.09 5.493 9.62-5.554c.2377586-.1405565.5444435-.0617586.685.176.1405564.2377586.0617586.5444435-.176.685l-9.674 5.844 10.217-5.893c.2359602-.1244074.5280295-.041678.663696.1879935.1356664.2296716.0671501.5253981-.155696.6720065l-8.8 5.31 9.32-5.387c.2380347-.1400042.5444958-.0605347.6845.1775.1400041.2380347.0605347.5444958-.1775.6845l-.711.425 1.073-.619c.2372063-.141661.5443389-.0642063.686.173.141661.2372063.0642063.544339-.173.686l-26.182 16.136 27.123-15.659c.2363825-.1285498.5321069-.0469768.6691568.184581.1370499.2315579.0662709.5300498-.1601568.675419l-15.71 9.513 15.772-9.1c.2363825-.1285498.5321069-.0469768.6691568.184581.1370499.2315579.0662709.5300498-.1601568.675419l-15.315 9.268 14.932-8.62c.2362845-.1306359.5336041-.0500916.6716393.181948s.0669238.5317553-.1606393.677052l-23.3 14.339 22.789-13.155c.2362845-.1306359.5336041-.0500916.6716393.181948s.0669238.5317553-.1606393.677052l-19.837 12.206 19.326-11.157c.2348663-.1223119.5243654-.0402957.6601778.1870309.1358123.2273266.0708339.5211193-.1481778.6699691l-19.01 11.764 18.5-10.68c.2346058-.1253855.5263122-.0451285.6637604.18262.1374483.2277485.0725112.523243-.1477604.67238l-21.177 13.348 20.659-11.927c.2361735-.1361818.537908-.0580681.6783318.1756081.1404239.2336761.0677709.5367718-.1633318.6813919l-15.883 9.942 15.368-8.872c.2361017-.1433179.5436821-.0681017.687.168s.0681017.5436821-.168.687l-16.962 10.83 16.444-9.494c.2362075-.133071.5354329-.0536509.6745599.1790411.1391271.2326919.0674613.5338687-.1615599.6789589l-7.341 4.566 6.828-3.942c.234023-.1252853.5251579-.0458598.6631351.1809119.1379772.2267718.0746978.5218373-.1441351.6720881l-11.914 7.642 11.395-6.578c.2335877-.1237383.5231326-.0442789.6608429.1813541s.0760007.5194731-.1408429.6706459l-9.7 6.256 9.181-5.3c.2324996-.1240701.5213839-.0463844.6602955.1775644.1389116.2239487.0801563.5172694-.1342955.6704356l-10.028 6.663 9.5-5.485c.2335877-.1237383.5231326-.0442789.6608429.1813541s.0760007.5194731-.1408429.6706459l-3.625 2.336 3.1-1.792c.2329673-.1327691.5291919-.0581284.6714287.1691822.1422368.2273105.0798406.5263539-.1414287.6778178l-6.08 4.107 5.55-3.2c.2322938-.1351768.5298928-.0625367.6737842.164462.1438914.2269988.0825928.5271392-.1387842.679538l-4.964 3.445 4.429-2.557c.2292016-.1303039.5201978-.0602449.6649792.1600976s.0935911.5152436-.1169792.6739024l-4.594 3.413 4.046-2.335c.2285233-.1282497.5172952-.0583047.6618051.1602995.14451.2186041.095725.5116937-.1118051.6717005l-2.278 1.714 1.728-1c.2267918-.1258849.5121894-.0574365.6572109.1576223.1450215.2150589.1015044.5053056-.1002109.6683777l-.915.716.358-.206c.2038365-.1170428.4616761-.0763052.6195.0978785s.1730154.4347791.0365.6261215l-1.315 1.828.03-.017c.2374252-.1242009.5305531-.0391619.6646466.1928199.1340935.2319817.0614797.5284321-.1646466.6721801l-2.045 1.181c-.2040746.1179452-.462806.0773491-.6209509-.0974299-.1581449-.1747791-.1727488-.4362685-.0350491-.6275701l1.315-1.828-4.52 2.609c-.2269587.1282325-.5143539.0605795-.6602778-.1554298-.145924-.2160093-.1014061-.5078844.1022778-.6705702l.916-.716-2.673 1.542c-.2287194.1310429-.5198877.0620127-.6654353-.1577616-.1455476-.2197742-.0954752-.5147944.1144353-.6742384l2.278-1.713-4.409 2.545c-.2292016.1303039-.5201978.0602449-.6649792-.1600976s-.0935911-.5152436.1169792-.6739024l4.593-3.412-7.357 4.246c-.23158.1294027-.5239091.0554223-.6660571-.1685604-.142148-.2239828-.0846277-.5199909.1310571-.6744396l4.964-3.443-7.428 4.286c-.2322377.1273115-.5234633.0514462-.664069-.1729923-.1406056-.2244384-.0818101-.5195841.134069-.6730077l6.08-4.107-8.581 4.953c-.2338963.1269547-.5262491.04845-.6650871-.1785941-.1388379-.227044-.0755015-.5230536.1440871-.6734059l3.614-2.328-5.51 3.18c-.2327769.1270897-.524286.0503218-.6642741-.174934-.139988-.2252559-.0797468-.5206233.1372741-.673066l10.031-6.664-13.013 7.512c-.2335877.1237383-.5231326.0442789-.6608429-.1813541s-.0760007-.5194731.1408429-.6706459l9.7-6.254-12.312 7.106c-.234023.1252853-.5251579.0458598-.6631351-.1809119-.1379772-.2267718-.0746978-.5218373.1441351-.6720881l11.914-7.643-14.715 8.496c-.2356087.1297647-.5316571.04988-.6700067-.1807924-.1383496-.2306723-.0694166-.5294607.1560067-.6762076l7.351-4.566-9.4 5.423c-.2348642.1312813-.531504.0531604-.6712412-.1767732-.1397372-.2299337-.0724576-.5292187.1522412-.6772268l16.959-10.828-20.24 11.682c-.2355125.13196-.5332497.0531389-.6726204-.1780652-.1393708-.2312042-.0700423-.5312938.1566204-.6779348l15.889-9.944-18.711 10.8c-.2349709.1292146-.5300387.050062-.6687925-.179405-.1387537-.2294671-.0717837-.5275361.1517925-.675595l21.174-13.345-24.6 14.2c-.2348663.1223119-.5243654.0402957-.6601778-.1870309-.1358123-.2273266-.0708339-.5211193.1481778-.6699691l19.008-11.76-21.858 12.617c-.07561844.0452887-.16186523.0697828-.25.071z" fill="#f2a149"/><path id="Path" d="m13.4 45.5c-.223241.000448-.4197315-.1471482-.4814898-.3616772-.0617583-.2145289.0261806-.4440064.2154898-.5623228l13.566-8.518-14.42 8.327c-.2362075.133071-.5354329.0536509-.6745599-.1790411-.1391271-.2326919-.0674613-.5338687.1615599-.6789589l11.67-7.25-11.157 6.441c-.2361735.1361818-.537908.0580681-.6783318-.1756081-.1404239-.2336761-.0677709-.5367718.1633318-.6813919l15.19-9.541-14.675 8.473c-.2358358.1260453-.529101.0442222-.6656159-.1857118-.1365149-.2299339-.0679517-.5265795.1556159-.6732882l4.063-2.485-3.553 2.051c-.2350866.127347-.5287583.0472199-.6665908-.1818764-.1378325-.2290964-.071048-.5260868.1515908-.6741236l14.346-8.985-13.832 7.986c-.2354379.13455-.5352149.0569022-.6757281-.1750261-.1405133-.2319283-.0705395-.5335888.1577281-.6799739l18.565-11.824-18.047 10.419c-.2355125.13196-.5332497.0531389-.6726204-.1780652-.1393708-.2312042-.0700423-.5312938.1566204-.6779348l15.587-9.8-15.071 8.7c-.2369302.1419372-.5440628.0649301-.686-.172-.1419372-.2369302-.0649301-.5440628.172-.686l12.3-7.654-11.784 6.8c-.2363779.1427656-.5437344.0668779-.6865-.1695s-.0668779-.5437344.1695-.6865l17.052-10.787-16.537 9.547c-.2356087.1297647-.5316571.04988-.6700067-.1807924-.1383496-.2306723-.0694166-.5294607.1560067-.6762076l12.072-7.518-11.558 6.673c-.2355125.13196-.5332497.0531389-.6726204-.1780652-.1393708-.2312042-.0700423-.5312938.1566204-.6779348l13.706-8.632-13.19 7.614c-.2353357.1240261-.5265799.04207-.6626998-.1864836-.1361199-.2285535-.0694507-.5236725.1516998-.6715164l3.332-2.053-2.823 1.629c-.2361735.1361818-.537908.0580681-.6783318-.1756081-.1404239-.2336761-.0677709-.5367718.1633318-.6813919l7.965-5-7.45 4.3c-.234023.1252853-.5251579.0458598-.6631351-.1809119-.1379772-.2267718-.0746978-.5218373.1441351-.6720881l9.15-5.85-8.631 4.982c-.2333291.1269664-.5252099.0493179-.6646076-.1768043-.1393976-.2261221-.0776459-.5217747.1406076-.6731957l9.651-6.323-9.125 5.268c-.2337734.1287456-.5274505.051198-.667188-.1761759-.1397374-.2273739-.07627-.5244122.144188-.6748241l6.5-4.249-5.977 3.451c-.2348642.1312813-.531504.0531604-.6712412-.1767732-.1397372-.2299337-.0724576-.5292187.1522412-.6772268l1.451-.931-.932.538c-.23158.1294027-.5239091.0554223-.6660571-.1685604-.142148-.2239828-.0846277-.5199909.1310571-.6744396l6.365-4.423-5.83 3.365c-.2313261.1333882-.5266402.061466-.670727-.1633522-.1440867-.2248181-.0860887-.5231794.131727-.6776478l4.431-3.142-3.892 2.246c-.2287194.1310429-.5198877.0620127-.6654353-.1577616-.1455476-.2197742-.0954752-.5147944.1144353-.6742384l3.6-2.723-3.053 1.763c-.2302873.1343427-.5254749.0643663-.6709518-.1590541-.1454768-.2234204-.0900639-.5216852.1259518-.6779459l.464-.338c-.2147499.0785381-.4554153.0013865-.5844772-.18736936-.1290618-.18875588-.1136301-.44101387.0374772-.61263064l2.038-2.355-1.41.813c-.2102322.12072237-.4767777.07323887-.6323878-.11265615-.1556102-.18589501-.1554467-.45663687.0003878-.64234385l.476-.564c-.0972521-.04197335-.1780498-.11469121-.23-.207-.1382327-.23887839-.0567713-.54458242.182-.683l1.632-.942c.2102322-.12072237.4767777-.07323887.6323878.11265615.1556102.18589501.1554467.45663687-.0003878.64234385l-.086.1 1.506-.869c.2113234-.12167321.4795951-.07316036.6349231.11481618.155328.18797653.1524028.46058365-.0069231.64518382l-2.034 2.36 5.4-3.115c.2302873-.13434275.5254749-.06436632.6709518.15905409.1454768.22342042.0900639.52168518-.1259518.67794591l-.4.294 1.96-1.131c.2287194-.13104292.5198877-.06201267.6654353.15776159.1455476.21977425.0954752.5147944-.1144353.67423841l-3.614 2.724 6.159-3.556c.2313261-.13338821.5266402-.06146595.670727.16335216.1440867.22481812.0860887.52317941-.131727.67764784l-4.431 3.143 6.9-3.984c.23158-.12940266.5239091-.05542235.6660571.16856044.142148.2239828.0846277.51999085-.1310571.67443956l-6.364 4.422 9.12-5.265c.2354116-.13795832.5379577-.06170795.6798637.17134529.1419059.23305325.070765.53684142-.1598637.68265471l-1.469.942 3.111-1.8c.2352733-.14469858.5433014-.07127327.688.16400002s.0712733.54330137-.164.68799998l-6.5 4.246 8.831-5.1c.2341443-.13311196.5316521-.0568382.672871.17250776s.075396.52933917-.148871.67849224l-9.646 6.319 12.42-7.171c.2354116-.13795832.5379577-.06170795.6798637.17134529.1419059.23305325.070765.53684142-.1598637.68265471l-9.15 5.849 11.611-6.7c.2361735-.13618181.537908-.05806811.6783318.17560806.1404239.23367616.0677709.53677186-.1633318.68139194l-7.961 5 10.145-5.854c.2372063-.1413849.5441151-.0637063.6855.1735s.0637063.5441151-.1735.6855l-3.345 2.059 5.055-2.918c.2355125-.13195996.5332497-.0531389.6726204.17806525.1393708.23120415.0700423.53129378-.1566204.67793475l-13.708 8.634 15.019-8.666c.2361735-.13618181.537908-.05806811.6783318.17560806.1404239.23367616.0677709.53677186-.1633318.68139194l-12.072 7.513 11.985-6.919c.2349709-.12921461.5300387-.05006202.6687925.17940502.1387537.22946704.0717837.52753611-.1517925.67559498l-17.051 10.786 16.535-9.546c.2369302-.14193716.5440628-.06493013.686.17200002.1419371.23693014.0649301.54406279-.172.68599998l-12.316 7.664 11.8-6.814c.2355125-.13196.5332497-.0531389.6726204.1780652.1393708.2312042.0700423.5312938-.1566204.6779348l-15.582 9.8 15.067-8.7c.2354379-.13455.5352149-.0569022.6757281.1750261.1405133.2319283.0705395.5335888-.1577281.6799739l-18.562 11.826 18.05-10.42c.2361735-.1361818.537908-.0580681.6783318.1756081.1404239.2336761.0677709.5367718-.1633318.6813919l-14.342 8.98 13.828-7.982c.2358358-.1260453.529101-.0442222.6656159.1857118.1365149.2299339.0679517.5265795-.1556159.6732882l-4.052 2.478 3.542-2.045c.2355125-.13196.5332497-.0531389.6726204.1780652.1393708.2312042.0700423.5312938-.1566204.6779348l-15.2 9.545 14.686-8.477c.2369302-.1419372.5440628-.0649301.686.172.1419371.2369302.0649301.5440628-.172.686l-11.644 7.236 11.134-6.429c.236654-.1424895.5440105-.066154.6865.1705s.066154.5440105-.1705.6865l-13.588 8.524 13.071-7.546c.1534456-.09146.3440284-.0941103.4999579-.0069525s.2535161.2508822.256.4295-.0905123.3449925-.2439579.4364525l-2.865 1.759 2.354-1.36c.2347034-.1364868.5354374-.0607325.6774741.1706544.1420368.2313868.073465.5338394-.1544741.6813456l-14.666 9.533 14.145-8.166c.234721-.145527.542973-.073221.6885.1615s.073221.542973-.1615.6885l-13.229 8.78 12.7-7.334c.2333681-.1382671.5344194-.0652417.6785003.1645824.144081.2298241.078635.5326135-.1475003.6824176l-10.965 7.411 10.439-6.028c.2354379-.13455.5352149-.0569022.6757281.1750261.1405133.2319283.0705395.5335888-.1577281.6799739l-.571.363.054-.031c.2327682-.1379387.5330334-.0656905.677577.1630348s.0809181.5309351-.143577.6819652l-6.98 4.809 6.448-3.723c.2290632-.1321979.5214568-.063148.6671806.1575572.1457237.2207053.094369.5167199-.1171806.6754428l-6.611 4.947 6.063-3.5c.2257586-.1294404.5130594-.0640705.6605892.1503047.1475298.2143751.1059565.5060712-.0955892.6706953l-4.551 3.674 3.988-2.3c.2174475-.1222843.4917629-.0655717.6428937.1329134.1511308.1984852.1328285.4780031-.0428937.6550866l-2.807 2.774 2.208-1.274c.2111163-.1217329.4792426-.0735321.6347434.1141072s.1530747.4600529-.0057434.6448928l-.842.977.215-.124c.1783902-.1034727.4020078-.0868053.5630873.0419698.1610796.1287751.226571.3432361.1649127.5400302l-.228.724c.1546881.0893197.249978.2543763.249978.433s-.0952899.3436803-.249978.433l-.5.289c-.1783902.1034727-.4020078.0868053-.5630873-.0419698-.1610796-.1287751-.226571-.3432361-.1649127-.5400302l.118-.372-1.658.956c-.2110506.1204235-.4781242.0716789-.6330266-.115536-.1549024-.1872148-.1527817-.458692.0050266-.643464l.84-.976-3.008 1.737c-.2174475.1222843-.4917629.0655717-.6428937-.1329134-.1511308-.1984852-.1328285-.4780031.0428937-.6550866l2.81-2.781-6.195 3.576c-.2256086.1271264-.5109479.0609576-.657579-.1524896-.1466312-.2134471-.106025-.5035297.093579-.6685104l4.551-3.675-7.794 4.5c-.2288588.1292299-.518701.0592157-.6633326-.1602346-.1446317-.2194502-.0946742-.513414.1143326-.6727654l6.61-4.945-10.011 5.78c-.2327682.1379387-.5330334.0656905-.677577-.1630348s-.0809181-.5309351.143577-.6819652l6.98-4.808-9.8 5.656c-.2354379.13455-.5352149.0569022-.6757281-.1750261-.1405133-.2319283-.0705395-.5335888.1577281-.6799739l.555-.352-2.095 1.209c-.2329673.1327691-.5291919.0581284-.6714287-.1691822-.1422368-.2273105-.0798406-.5263539.1414287-.6778178l10.974-7.415-14.313 8.265c-.2340569.1357068-.5336008.0606207-.6759704-.1694442s-.0759129-.5316408.1499704-.6805558l13.227-8.78-16.684 9.633c-.2347034.1364868-.5354374.0607325-.6774741-.1706544-.1420368-.2313868-.073465-.5338394.1544741-.6813456l14.671-9.536-18 10.391c-.2372063.1413849-.5441151.0637063-.6855-.1735s-.0637063-.5441151.1735-.6855l2.85-1.75-4.521 2.611c-.0741485.043234-.1581783.0666521-.244.068z" fill="#cad0d7"/><path id="Path" d="m31.674 37.335c-.2142984-.002129-.4034091-.1405908-.4701605-.3442391-.0667513-.2036482.0037027-.4271896.1751605-.5557609l4.77-3.479-7.2 4.158c-.2325262.1307666-.5267591.0559509-.6685809-.1700024s-.0812744-.5234503.1375809-.6759976l4.559-3.094-5.966 3.443c-.2322377.1273115-.5234633.0514462-.664069-.1729923-.1406056-.2244384-.0818101-.5195841.134069-.6730077l6.51-4.4-7.819 4.515c-.2319831.1309881-.5259285.0570795-.6683699-.1680527-.1424414-.2251321-.0833463-.52241.1343699-.6759473l9.776-6.756-11.188 6.46c-.2321092.1290838-.5246372.0541763-.6661393-.170578-.1415021-.2247542-.0825963-.5209195.1341393-.674422l10.364-7.051-11.449 6.599c-.2349709.1292146-.5300387.050062-.6687925-.179405-.1387537-.2294671-.0717837-.5275361.1517925-.675595l2.11-1.336-2.341 1.351c-.2338963.1269547-.5262491.04845-.6650871-.1785941-.1388379-.227044-.0755015-.5230536.1440871-.6734059l6.665-4.317-7.073 4.084c-.2341443.133112-.5316521.0568382-.672871-.1725078-.1412189-.2293459-.075396-.5293391.148871-.6784922l7.927-5.17-8.187 4.726c-.2330829.1306613-.5277074.0549657-.6689423-.1718661-.1412349-.2268319-.0791592-.5246238.1409423-.6761339l10.572-7.081-10.846 6.262c-.2333681.1382671-.5344194.0652417-.6785003-.1645824-.144081-.2298241-.078635-.5326135.1475003-.6824176l11.107-7.533-11.222 6.475c-.2321092.1290838-.5246372.0541763-.6661393-.170578-.1415021-.2247542-.0825963-.5209195.1341393-.674422l10.736-7.345-10.55 6.094c-.2333482.1425022-.537887.0711396-.6836338-.1601958-.1457468-.2313355-.0786439-.5368412.1506338-.6858042l9.139-6.243-8.586 4.957c-.2328603.1351428-.5309189.0616362-.6742423-.1662803-.1433233-.2279164-.080443-.5283964.1422423-.6797197l7.136-4.873-6.363 3.673c-.2318603.1330617-.527371.0602043-.6708066-.1653857-.1434357-.22559-.0840493-.5240996.1348066-.6776143l5.808-4.04-4.575 2.642c-.2329673.1327691-.5291919.0581284-.6714287-.1691822-.1422368-.2273105-.0798406-.5263539.1414287-.6778178l1.325-.9c-.2263807.0563289-.4616301-.0513751-.5669137-.2595494s-.0526188-.46149.1269137-.6104506l3.287-2.725c-.2110136-.0302381-.3796517-.1909347-.4200252-.4002457-.0403736-.2093109.0563968-.4212016.2410252-.5277543l4.314-2.49c.2245986-.12700926.5089574-.06225633.656419.14947682.1474617.21173315.109592.50090228-.087419.66752318l-2.8 2.318 6.911-3.99c.2329673-.1327691.5291919-.0581284.6714287.16918215.1422368.22731056.0798406.52635392-.1414287.67781785l-1.088.734 2.416-1.394c.2318603-.13306172.527371-.0602043.6708066.16538571.1434357.22559001.0840493.52409963-.1348066.67761429l-5.813 4.045 7.573-4.371c.2328603-.1351428.5309189-.06163618.6742423.16628028.1433233.22791645.080443.52839646-.1422423.67971972l-7.131 4.869 8.562-4.942c.2328603-.1351428.5309189-.06163618.6742423.1662803.1433233.2279164.080443.5283964-.1422423.6797197l-9.14 6.25 10.46-6.039c.2324067-.1328499.5282158-.0590851.6710333.1673329s.0819688.5251514-.1380333.6776671l-10.735 7.344 11.842-6.837c.2329673-.1327691.5291919-.0581284.6714287.1691822.1422368.2273105.0798406.5263539-.1414287.6778178l-11.108 7.533 11.9-6.87c.2330829-.1306613.5277074-.0549657.6689423.1718661.1412349.2268319.0791592.5246238-.1409423.6761339l-10.575 7.083 11.1-6.4c.2347034-.1364868.5354374-.0607325.6774741.1706544.1420368.2313868.073465.5338394-.1544741.6813456l-7.919 5.165 8.119-4.687c.2347713-.1336383.5332399-.0566316.6740509.1739091.1408109.2305408.0730402.5312411-.1530509.6790909l-6.665 4.315 6.625-3.824c.2354379-.13455.5352149-.0569022.6757281.1750261.1405133.2319283.0705395.5335888-.1577281.6799739l-2.108 1.334 1.92-1.117c.2325262-.1307666.5267591-.0559509.6685809.1700024s.0812744.5234503-.1375809.6759976l-10.363 7.054 10.139-5.854c.2319831-.1309881.5259285-.0570795.6683699.1680527.1424414.2251321.0833463.52241-.1343699.6759473l-9.778 6.756 9.332-5.388c.2329673-.1327691.5291919-.0581284.6714287.1691822.1422368.2273105.0798406.5263539-.1414287.6778178l-6.511 4.4 5.653-3.263c.2333681-.1382671.5344194-.0652417.6785003.1645824.144081.2298241.078635.5326135-.1475003.6824176l-4.562 3.1 3.443-1.989c.2302873-.1343427.5254749-.0643663.6709518.1590541.1454768.2234204.0900639.5216852-.1259518.6779459l-4.772 3.481 2.9-1.676c.2266681-.1317558.5166136-.0660514.6643416.1505461.1477279.2165976.1030619.5105201-.1023416.6734539l-2.844 2.263c.0961092.0428577.1762464.1149461.229.206.1380647.2391402.0561341.5449248-.183.683l-4.265 2.462c-.226507.1291681-.5142486.0625855-.6609917-.1529516-.1467432-.2155372-.103215-.5076567.0999917-.6710484l1.749-1.391-5.2 3c-.0763015.0452787-.1632771.0694386-.252.07z" fill="#f4f6f8"/><path id="Path" d="m30.971 30.394c-.1910362.0001326-.3654516-.1086004-.4494367-.2801852-.0839852-.1715848-.0628596-.3760288.0544367-.5268148l1.429-1.836-2.887 1.666c-.2208953.136633-.509623.0813788-.6644625-.1271591-.1548394-.208538-.1242214-.5009064.0704625-.6728409l2-1.888-2.124 1.23c-.2236156.1271011-.5071788.0638125-.6555296-.1463081s-.1130835-.4985123.0815296-.6666919l1.646-1.4-1.192.688c-.2260575.1301558-.5141897.0646595-.6617686-.1504288-.1475789-.2150884-.1050107-.5074886.0977686-.6715712l1.013-.821-.449.259c-.2054367.1177728-.4653166.0752838-.6225485-.1017834-.1572318-.1770673-.1686914-.4401483-.0274515-.6302166l1.286-1.722-.636.366c-.1788362.1030218-.4025951.0855757-.5633023-.0439197-.1607072-.1294955-.2253351-.3444272-.1626977-.5410803l.223-.7c-.0730532-.0430381-.1339619-.1039468-.177-.177-.1382327-.2388784-.0567713-.5445824.182-.683l.5-.291c.178885-.103726.4031651-.0866347.5642668.0430001s.2257835.3450644.1627332.5419999l-.109.338 1.618-.933c.2051915-.116829.4641424-.0741897.6210418.1022618.1568994.1764514.1689739.4386115.0289582.6287382l-1.285 1.723 3.835-2.214c.2256086-.1271264.5109479-.0609576.657579.1524896.1466312.2134471.106025.5035297-.093579.6685104l-1.012.821.449-.259c.2236156-.1271011.5071788-.0638125.6555296.1463081s.1130835.4985123-.0815296.6666919l-1.646 1.4 1.072-.619c.2208144-.1342809.5075757-.0781561.6614736.1294633s.1242133.4983097-.0684736.6705367l-2 1.887 1.4-.811c.2070776-.118794.4692493-.0746242.6259727.1054616.1567233.1800859.1642736.4458451.0180273.6345384l-1.429 1.837.362-.208c.2374252-.1242009.5305531-.0391619.6646466.1928199.1340935.2319817.0614797.5284321-.1646466.6721801l-2.577 1.487c-.0734703.0417586-.1564918.0638058-.241.064z" fill="#eb5463"/><path id="Path" d="m30.285 21.419c-.1995929.0000795-.3801133-.1185518-.4592349-.3017924-.0791217-.1832405-.0416859-.3959835.0952349-.5412076l.917-.972-2.558 1.475c-.2254634.1287726-.5119753.0635416-.6594703-.1501437-.1474949-.2136853-.1068861-.5047094.0934703-.6698563l.333-.271c-.1483285.0008741-.2903374-.0599869-.392-.168-.1577504-.1777214-.1686194-.4419217-.026-.632l1.158-1.545c-.2134933.0474429-.4330459-.0493709-.542-.239-.1373847-.2389169-.0555349-.543953.183-.682l1.936-1.122c.2054918-.1189109.4662705-.0769181.6240467.1004892.1577761.1774073.1690395.4413052.0269533.6315108l-1.124 1.5 2.747-1.585c.2254634-.1287726.5119753-.0635416.6594703.1501437.1474949.2136853.1068861.5047094-.0934703.6698563l-.047.038.127-.073c.2148894-.1243392.4884665-.0721685.6425166.1225268.1540502.1946953.1419081.4729375-.0285166.6534732l-.917.972.714-.411c.181296-.1037699.4079959-.0838969.5684722.0498333.1604764.1337303.2209038.3531301.1515278.5501667l-.35.967c.2108595.030564.3791872.191392.4193233.4006406.040136.2092486-.0567377.420945-.2413233.5273594l-.806.466c-.181296.1037699-.4079959.0838969-.5684722-.0498333-.1604764-.1337303-.2209038-.3531301-.1515278-.5501667l.293-.811-2.475 1.429c-.0756184.0452887-.1618652.0697828-.25.071z" fill="#636c77"/><path id="Path" d="m39.67 39.962c-.2195953-.0001598-.4133847-.1435812-.4777062-.3535451-.0643216-.209964.0158812-.4373217.1977062-.5604549l11.265-7.636c-.0844236-.0391328-.155899-.101587-.206-.18-.1444175-.2227827-.0895342-.5195915.125-.676l7.159-5.195c.004219-.1743265.0989551-.3338622.25-.421l1.638-.94c.2300482-.1308569.5222207-.059778.6664488.1621318.1442281.2219099.0905463.5177734-.1224488.6748682l-1.228.891.783-.452c.2329673-.1327691.5291919-.0581284.6714287.1691822.1422368.2273105.0798406.5263539-.1414287.6778178l-8.813 5.974 8.283-4.787c.2374252-.1242009.5305531-.0391619.6646466.1928199.1340935.2319817.0614797.5284321-.1646466.6721801l-20.3 11.725c-.0764888.0421448-.1626821.0635207-.25.062z" fill="#ffba6e"/><path id="Path" d="m28.285 59.471c-.2233334-.0001747-.4194687-.1484382-.4805471-.3632574-.0610783-.2148192.0277136-.4440945.2175471-.5617426l3.805-2.355-5.564 3.209c-.2354379.13455-.5352149.0569022-.6757281-.1750261-.1405133-.2319283-.0705395-.5335888.1577281-.6799739l13.013-8.23-15.737 9.085c-.2352087.125628-.5276152.0445694-.664573-.1842276-.1369579-.228797-.070267-.5248112.151573-.6727724l10.944-6.8-13.264 7.657c-.2352087.125628-.5276152.0445694-.664573-.1842276-.1369579-.228797-.070267-.5248112.151573-.6727724l13.5-8.381-16 9.238c-.2356087.1297647-.5316571.04988-.6700067-.1807924-.1383496-.2306723-.0694166-.5294607.1560067-.6762076l17.326-10.779-20.162 11.636c-.2352087.125628-.5276152.0445694-.664573-.1842276-.1369579-.228797-.070267-.5248112.151573-.6727724l19.239-11.923-22.142 12.78c-.2333291.1269664-.52520994.0493179-.66460758-.1768043-.13939765-.2261221-.07764593-.5217747.14060758-.6731957l12.281-8.061-15.436 8.911c-.233204.1287421-.52639387.0520483-.66668716-.1743946-.1402933-.226443-.07842312-.5231151.14068716-.6746054l13.235-8.785-15.773 9.109c-.23365564.130691-.52879264.0541466-.66947868-.1736308s-.0769932-.5259521.14447868-.6763692l11.859-7.818-12.513 7.225c-.23470337.1364868-.53543738.0607325-.67747413-.1706544-.14203676-.2313868-.07346495-.5338394.15447413-.6813456l8.7-5.68-8.384 4.841c-.23402298.1252853-.52515789.0458598-.66313509-.1809119-.13797721-.2267718-.07469786-.5218373.14413509-.6720881l4.1-2.631-3.581 2.07c-.23436107.1288923-.5286543.0505227-.66787555-.1778537-.13922124-.2283764-.07406124-.5258734.14787555-.6751463l3.622-2.328-3.1 1.791c-.23543794.13455-.53521485.0569022-.67572813-.1750261s-.0705395-.5335888.15772813-.6799739l1.157-.737-.639.368c-.23470287.1405531-.53878699.0663884-.6824238-.1664401-.14363681-.2328284-.07348967-.5378644.1574238-.6845599l4.943-3.256-4.42 2.553c-.23198312.1309881-.52592847.0570795-.6683699-.1680527-.14244144-.2251321-.0833463-.52241.1343699-.6759473l7.5-5.176-6.966 4.021c-.23252618.1307666-.52675914.0559509-.6685809-.1700024-.14182177-.2259533-.08127436-.5234503.1375809-.6759976l5.3-3.611-4.769 2.755c-.23055066.1302945-.52270695.0582293-.66621925-.1643342-.14351231-.2225634-.08860007-.5184238.12521925-.6746658l6.661-4.779-6.12 3.533c-.22983634.1330914-.52362129.0632681-.669-.159-.14505124-.2220284-.091513-.5186829.122-.676l6.054-4.456-5.507 3.179c-.23004825.1308569-.52222067.059778-.6664488-.1621318-.14422813-.2219099-.09054634-.5177734.1224488-.6748682l4.284-3.115-3.74 2.158c-.23068362.128482-.52150784.0554404-.66410781-.1667933-.14259996-.2222337-.0878131-.5170425.12510781-.6732067l2.2-1.565-1.666.96c-.22996058.1262156-.51836501.0532546-.66064209-.1671302-.14227708-.2203849-.09004713-.5132542.11964209-.6708698l1.515-1.084-.97.559c-.22679183.1258849-.51218938.0574365-.6572109-.1576223-.14502152-.2150589-.10150437-.5053056.1002109-.6683777l2.934-2.294-2.377 1.374c-.23028726.1343427-.52547493.0643663-.67095179-.1590541-.14547685-.2234204-.0900639-.5216852.12595179-.6779459l.363-.263c-.18729014.028683-.37409398-.0545581-.478-.213-.14878386-.2132965-.10921876-.5050347.091-.671l1.944-1.617-1.375.793c-.21679873.1191224-.48811736.0618073-.63821498-.1348206-.15009763-.1966279-.13385163-.473458.03821498-.6511794l2.213-2.21-1.61.929c-.21286205.1227709-.48338312.0726697-.63816022-.1181888-.1547771-.1908586-.14792666-.4658947.01616022-.6488112l1.4-1.557-.778.448c-.20011583.1149966-.45294131.078075-.61181391-.0893468s-.18250413-.4218338-.05718609-.6156532l.9-1.384-.231.133c-.1659429.095924-.37211785.0885419-.53077543-.0190046-.15865758-.1075464-.24187119-.2963269-.21422457-.4859954l.263-1.832c-.12707437-.104053-.19494409-.2638778-.18156902-.4275727s.10628911-.3103826.24856902-.3924273l.268-.154c.16511532-.0950582.36990335-.0880182.52810088.0181547.15819753.1061728.24230711.2930238.21689912.4818453l-.209 1.428 1.142-.659c.19898281-.111356.44809926-.0739815.60564412.0908637.15754487.1648451.18360471.415398.06335588.6091363l-.9 1.384 1.695-.979c.21286205-.1227709.48338312-.0726697.63816022.1181888.1547771.1908586.14792666.4658947-.01616022.6488112l-1.394 1.564 2.181-1.259c.21679873-.1191224.48811736-.0618073.63821498.1348206.15009763.1966279.13385163.473458-.03821498.6511794l-2.211 2.214 3.158-1.822c.22473633-.1292165.51095901-.0652384.65928911.1473681.1483301.2126064.10956628.5033193-.08928911.6696319l-1.945 1.617 2.6-1.5c.23028726-.1343427.52547493-.0643663.6709518.1590541.1454768.2234204.0900639.5216852-.1259518.6779459l-.077.056.4-.233c.227445-.1317107.5180356-.064845.6650404.1530278.1470048.2178727.1002333.512366-.1070404.6739722l-2.93 2.291 3.688-2.131c.2299606-.1262156.518365-.0532546.6606421.1671302.1422771.2203849.0900471.5132542-.1196421.6708698l-1.518 1.089 2-1.151c.2306836-.128482.5215078-.0554404.6641078.1667933s.0878131.5170425-.1251078.6732067l-2.204 1.559 2.737-1.58c.2300482-.1308569.5222207-.059778.6664488.1621318.1442281.2219099.0905463.5177734-.1224488.6748682l-4.281 3.118 5.086-2.935c.2295527-.1314921.521805-.0614183.6667704.1598726.1449654.2212908.0924688.5172061-.1197704.6751274l-6.053 4.45 7.084-4.09c.2305507-.1302945.5227069-.0582293.6662193.1643342.1435123.2225634.0886.5184238-.1252193.6746658l-6.659 4.782 7.679-4.431c.2318412-.125947.5216461-.0500755.6620287.1733204.1403825.223396.0830243.5174256-.1310287.6716796l-5.307 3.615 6.05-3.494c.2319831-.1309881.5259285-.0570795.6683699.1680527.1424414.2251321.0833463.52241-.1343699.6759473l-7.5 5.179 8.467-4.889c.2349972-.1452509.5432491-.0724972.6885.1625s.0724972.5432491-.1625.6885l-4.945 3.254 5.582-3.223c.2361017-.1433179.5436821-.0681017.687.168s.0681017.5436821-.168.687l-1.157.737 1.553-.9c.2358256-.1438702.5436298-.0693256.6875.1665s.0693256.5436298-.1665.6875l-3.616 2.323 4.136-2.388c.2354116-.1379583.5379577-.061708.6798637.1713453.1419059.2330532.070765.5368414-.1598637.6826547l-4.11 2.633 5.463-3.15c.1521951-.0936036.3427662-.0989017.4999268-.0138987.1571607.0850031.2570345.2473934.262.426.0049655.1786067-.0857317.3462951-.2379268.4398987l-8.716 5.686 11.332-6.538c.2329061-.1254293.5232086-.0477402.6623373.1772508s.0789338.5194187-.1373373.6717492l-11.857 7.811 15.01-8.666c.2335451-.1328438.5303244-.0573638.6720248.1709163s.0776546.5277351-.1450248.6780837l-13.237 8.786 16.7-9.637c.2333291-.1269664.5252099-.0493179.6646076.1768043.1393976.2261221.0776459.5217747-.1406076.6731957l-12.279 8.058 34.675-20.021c.2362075-.133071.5354329-.0536509.6745599.1790411.1391271.2326919.0674613.5338687-.1615599.6789589l-19.244 11.928 18.731-10.813c.2352087-.125628.5276152-.0445694.664573.1842276.1369579.228797.070267.5248112-.151573.6727724l-17.321 10.779 16.808-9.7c.2352087-.125628.5276152-.0445694.664573.1842276.1369579.228797.070267.5248112-.151573.6727724l-13.5 8.386 12.992-7.5c.2352087-.125628.5276152-.0445694.664573.1842276.1369579.228797.070267.5248112-.151573.6727724l-10.96 6.802 10.443-6.028c.2349709-.1292146.5300387-.050062.6687925.179405.1387537.2294671.0717837.5275361-.1517925.675595l-13.01 8.228 12.493-7.212c.2348663-.1223119.5243654-.0402957.6601778.1870309.1358123.2273266.0708339.5211193-.1481778.6699691l-3.795 2.349 3.283-1.9c.2361735-.1361818.537908-.0580681.6783318.1756081.1404239.2336761.0677709.5367718-.1633318.6813919l-5.514 3.452 5-2.886c.2350866-.127347.5287583-.0472199.6665908.1818764.1378325.2290964.071048.5260868-.1515908.6741236l-3.018 1.888 2.5-1.444c.2346058-.1253855.5263122-.0451285.6637604.18262.1374483.2277485.0725112.523243-.1477604.67238l-2.519 1.586 2-1.156c.2340569-.1357068.5336008-.0606207.6759704.1694442s.0759129.5316408-.1499704.6805558l-7.976 5.28 7.45-4.3c.2342478-.1308833.5300435-.0535271.6702262.1752769s.074765.527467-.1482262.6767231l-3.482 2.271 2.965-1.711c.2304184-.1322364.5240189-.0611893.6684864.1617642.1444674.2229535.0893536.5199576-.1254864.6762358l-7.32 5.281 6.777-3.908c.2301828-.1290216.5210052-.0569569.6643125.1646141.1433073.2215711.0897614.5163656-.1223125.6733859l-4.212 3.034 3.67-2.118c.2256086-.1271264.5109479-.0609576.657579.1524896.1466312.2134471.106025.5035297-.093579.6685104l-3.806 3.081 3.242-1.871c.2208144-.1342809.5075757-.0781561.6614736.1294633s.1242133.4983097-.0684736.6705367l-2.258 2.144 1.665-.961c.2111163-.1217329.4792426-.0735321.6347434.1141072s.1530747.4600529-.0057434.6448928l-.928 1.073c.1988068.0479185.348394.2120729.3776846.4144646.0292907.2023916-.0676201.4022198-.2446846.5045354l-1.916 1.106c-.2111163.1217329-.4792426.0735321-.6347434-.1141072s-.1530747-.4600529.0057434-.6448928l.656-.761-2.766 1.595c-.2208953.136633-.509623.0813788-.6644625-.1271591-.1548394-.208538-.1242214-.5009064.0704625-.6728409l2.258-2.141-5.093 2.941c-.2257586.1294404-.5130594.0640705-.6605892-.1503047-.1475298-.2143751-.1059565-.5060712.0955892-.6706953l3.807-3.079-6.761 3.9c-.2301828.1290216-.5210052.0569569-.6643125-.1646141-.1433073-.2215711-.0897614-.5163656.1223125-.6733859l4.212-3.034-6.708 3.872c-.2304184.1322364-.5240189.0611893-.6684864-.1617642-.1444674-.2229535-.0893536-.5199576.1254864-.6762358l7.318-5.28-10.597 6.118c-.2337734.1287456-.5274505.051198-.667188-.1761759-.1397374-.2273739-.07627-.5244122.144188-.6748241l3.49-2.273-5.413 3.124c-.2335451.1328438-.5303244.0573638-.6720248-.1709163s-.0776546-.5277351.1450248-.6780837l7.972-5.279-10.614 6.128c-.2349709.1292146-.5300387.050062-.6687925-.179405-.1387537-.2294671-.0717837-.5275361.1517925-.675595l2.517-1.584-4.226 2.439c-.2355125.13196-.5332497.0531389-.6726204-.1780652-.1393708-.2312042-.0700423-.5312938.1566204-.6779348l3.016-1.886-4.751 2.742c-.2355125.13196-.5332497.0531389-.6726204-.1780652-.1393708-.2312042-.0700423-.5312938.1566204-.6779348l5.516-3.452-7.465 4.308c-.0756184.0452887-.1618652.0697828-.25.071z" fill="#ffba6e"/><path id="Path" d="m7.842 59.471c-.2227823.0001822-.41880952-.1470511-.48071654-.3610592-.06190703-.2140082.02524258-.4431572.21371654-.5619408l7.154-4.514-9.299 5.366c-.23497088.1292146-.53003872.050062-.66879247-.179405-.13875376-.2294671-.07178369-.5275361.15179247-.675595l8.605-5.428-9.937 5.739c-.23637787.1433179-.54418209.0678779-.68749998-.1685s-.06787788-.5441821.16849998-.6875l12.308-7.88-4.217 2.435c-.2342478.1308833-.5300435.0535271-.6702262-.1752769s-.074765-.527467.1482262-.6767231l8.192-5.329c-.1909171-.0435649-.3388293-.1945709-.3784332-.3863488-.039604-.1917779.036391-.3890229.1944332-.5046512l9.236-6.774c-.0629584-.2202541.0318123-.4551207.23-.57l2.592-1.5c.2299138-.1328235.5235501-.0627731.6687427.1595365s.0912979.5193359-.1227427.6764635l-4.638 3.4 5.919-3.417c.2337734-.1287456.5274505-.051198.667188.1761759.1397374.2273739.07627.5244122-.144188.6748241l-6.085 3.958 6.743-3.892c.2343611-.1288923.5286543-.0505227.6678755.1778537.1392213.2283764.0740613.5258734-.1478755.6751463l-12.318 7.893 13.224-7.634c.2355125-.13196.5332497-.0531389.6726204.1780652.1393708.2312042.0700423.5312938-.1566204.6779348l-8.6 5.428 9.281-5.358c.2363779-.1427656.5437344-.0668778.6865.1695.1427656.2363779.0668779.5437344-.1695.6865l-7.156 4.514 7.776-4.489c.2347034-.1364868.5354374-.0607325.6774741.1706544.1420368.2313868.073465.5338394-.1544741.6813456l-11.014 7.179 11.95-6.9c.234481-.1270728.5274228-.0477401.6657366.1802909.1383139.2280309.0733058.5244809-.1477366.6737091l-6.165 3.933 6.776-3.912c.23265-.1288599.5254615-.0530472.6663444.1725252s.0805297.5219566-.1373444.6744748l-10.7 7.216 11.793-6.808c.2319831-.1309881.5259285-.0570795.6683699.1680527.1424414.2251321.0833463.52241-.1343699.6759473l-9.981 6.88 11.127-6.425c.2343611-.1288923.5286543-.0505227.6678755.1778537.1392213.2283764.0740613.5258734-.1478755.6751463l-2.575 1.662 3.037-1.753c.2310609-.1298083.523268-.0567757.6660866.1664779.1428185.2232536.086628.5191613-.1280866.6745221l-7.885 5.559 8.944-5.163c.233204-.1287421.5263939-.0520483.6666872.1743946.1402933.226443.0784231.5231151-.1406872.6746054l-2.622 1.738 3.115-1.8c.2322377-.1273115.5234633-.0514462.664069.1729923.1406056.2244384.0818101.5195841-.134069.6730077l-2.96 2 3.5-2.019c.2313261-.1333882.5266402-.061466.670727.1633522.1440867.2248181.0860887.5231794-.131727.6776478l-3.884 2.742 4.567-2.637c.2314518-.1313128.5252013-.0583356.6682918.1660259.1430904.2243616.0853808.5214879-.1312918.6759741l-2.306 1.619 2.834-1.634c.2281943-.1273484.5159664-.0574929.6603781.1603041.1444117.2177969.0967481.5100652-.1093781.6706959l-3.261 2.47 3.992-2.3c.226507-.1291681.5142486-.0625855.6609917.1529516.1467432.2155372.103215.5076567-.0999917.6710484l-2.68 2.135 3.41-1.969c.226507-.1291681.5142486-.0625855.6609917.1529516.1467432.2155372.103215.5076567-.0999917.6710484l-1.434 1.145 1.956-1.129c.2144477-.1242599.4875608-.0726667.6419004.1212601.1543397.1939268.1433197.4716518-.0259004.6527399l-1.882 2.027 2.8-1.616c.219385-.1342545.5048344-.0801688.6599003.1250351.1550659.2052038.1291551.4945743-.0599003.6689649l-.431.412.8-.461c.2087634-.1201586.4735249-.0743925.6298391.1088725.1563143.183265.1597449.451931.0081609.6391275l-.35.43.706-.408c.1849137-.1065261.4170559-.08395.5779793.056209.1609233.140159.2151536.3670043.1350207.564791l-.176.418.457-.264c.1549945-.0985297.351531-.1041539.5119064-.0146489.1603754.0895049.2587712.2597296.2562855.4433739s-.1054527.3511436-.2681919.436275l-1.717.991c-.1847224.1061178-.4163963.0835388-.5771527-.0562493-.1607564-.1397882-.2152867-.3660824-.1358473-.5637507l.169-.418-1.796 1.036c-.2087634.1201586-.4735249.0743925-.6298391-.1088725-.1563143-.183265-.1597449-.451931-.0081609-.6391275l.348-.427-2.043 1.175c-.2189627.1248229-.4965995.0671571-.6477436-.1345378-.1511442-.2016949-.1285371-.4843546.0527436-.6594622l.43-.412-2.09 1.206c-.214156.122774-.4858627.0708854-.6397046-.1221662s-.1437736-.4694853.0237046-.6508338l1.886-2.027-4.852 2.8c-.226047.126152-.5110038.0589101-.6568083-.1549885-.1458046-.2138986-.1042381-.5037159.0958083-.6680115l1.431-1.142-3.406 1.965c-.226047.126152-.5110038.0589101-.6568083-.1549885-.1458046-.2138986-.1042381-.5037159.0958083-.6680115l2.684-2.141-5.135 2.964c-.2283835.1299972-.5184238.0610156-.6638282-.1578813-.1454044-.2188968-.0965443-.5129964.1118282-.6731187l3.259-2.469-5.719 3.3c-.230817.1267753-.5204005.0527915-.6621232-.1691615-.1417226-.221953-.0869993-.5157856.1251232-.6718385l2.3-1.616-4.256 2.457c-.2304519.1256553-.5188365.0517188-.6604036-.1693153-.1415671-.2210342-.088116-.5139083.1224036-.6706847l3.882-2.742-6.205 3.582c-.2322377.1273115-.5234633.0514462-.664069-.1729923-.1406056-.2244384-.0818101-.5195841.134069-.6730077l2.957-2-4.93 2.846c-.233204.1287421-.5263939.0520483-.6666872-.1743946-.1402933-.226443-.0784231-.5231151.1406872-.6746054l2.631-1.743-4.492 2.592c-.2304519.1256553-.5188365.0517188-.6604036-.1693153-.1415671-.2210342-.088116-.5139083.1224036-.6706847l7.882-5.558-11.083 6.398c-.2335877.1237383-.5231326.0442789-.6608429-.1813541s-.0760007-.5194731.1408429-.6706459l2.567-1.648-4.345 2.5c-.2322938.1351768-.5298928.0625367-.6737842-.164462-.1438914-.2269988-.0825928-.5271392.1387842-.679538l9.986-6.883-13.384 7.727c-.23265.1288599-.5254615.0530472-.6663444-.1725252s-.0805297-.5219566.1373444-.6744748l10.7-7.216-13.966 8.063c-.234481.1270728-.5274228.0477401-.6657366-.1802909-.1383139-.2280309-.0733058-.5244809.1477366-.6737091l6.157-3.926-8.282 4.78c-.2341443.133112-.5316521.0568382-.672871-.1725078-.1412189-.2293459-.075396-.5293391.148871-.6784922l11.017-7.184-13.919 8.035c-.07561844.0452887-.16186523.0697828-.25.071z" fill="#fab153"/><g fill="#262626"><path id="Shape" d="m60.724 47.889c0-7.2.329-14.48 0-21.67-.0319344-.6553791-.1669226-1.3016351-.4-1.915l.106-.08c.358-.272.073-.393-.311-.4-1.653-3.571-6.33-5.872-9.4-8.214v-5.166c0-1.8.57-4.508-1.271-5.577-1.405-.815-4.1-.29-5.581-.29h-6.352c-1.747-1.431-4.04-4.047-6.409-3.933-2.352.112-4.506 2.429-6.292 3.933h-6.114c-3.806 0-7.26-.622-7.42 4.076-.083 2.428-.105 4.862-.108 7.3-2.751 2.038-7.548 4.5-9.3 7.729-.354.165-.588.481-.351.763-.10261267.2673188-.18190826.5430132-.237.824-.941 4.927 0 10.908 0 15.917 0 4.708-.9 10.342 0 14.971.12181943.7814665.47984757 1.5069446 1.026 2.079-.076.24.184.4.508.42 1.707 1.121 4.408.71 6.615.71h40.244c2.531 0 6.525.756 8.93-.435.1483272-.0786836.2904095-.1686133.425-.269.381-.09.745-.35.68-.617 1.988-2.413 1.012-7.564 1.012-10.156zm-1.824-23.613-8.177 6.206v-13.382c2.85 1.915 6.853 4.247 8.177 7.176zm-26.825-22.383c1.2573479.74830205 2.4168897 1.64986927 3.452 2.684h-9.379c1.619-1.435 3.826-3.722 5.927-2.684zm-14.3 3.49h26.532c3.167 0 4.51.12 4.969 3.522.2811394 2.2397035.4227459 4.4947208.424 6.752-.313.137-.536.33-.376.453.119.092.252.186.381.28 0 5.079-.415 10.274-.427 15.189l-11.539 8.758c-1.4525457-1.2883503-3.0555064-2.3963876-4.774-3.3 5.156-.879 9.75-3.91 11.771-9.016 3.128-7.9-1.469-16.015-9.14-18.721-7.306-1.8-15.438 1.364-18.332 8.675-3.6 9.086 2.875 17.935 11.859 19.178-1.4728603 1.0250133-2.8679899 2.157428-4.174 3.388l-.013.01c-4.0666667-3.0906667-8.1376667-6.1803333-12.213-9.269-.005-4.931-.4-10.1-.4-15.18.081-.061.165-.121.245-.182.32-.246.1-.347-.242-.355-.0064587-2.3557063.125435-4.7097589.395-7.05.448-3.58 1.785-3.132 5.058-3.132zm16.625 4.475c13.317 4.7 12.988 25.516-2.471 26.8-.4818736-.1543725-.9978706-.1675587-1.487-.038-6.1665834-.5473952-11.2385033-5.0858785-12.465-11.154-.9435856-4.5171036.5178501-9.2007992 3.8628105-12.3797642 3.3449604-3.17896502 8.0969172-4.40031895 12.5601895-3.2282358zm-30.911 47.342c-1.806-2.869-.765-8.947-.765-11.573 0-6.254-.465-12.7 0-18.941.03186992-.3880665.09473716-.7729612.188-1.151 6.97333333 5.2886667 13.9453333 10.58 20.916 15.874l-5.128 3.991zm7.681-40.258c.008 4.413.077 8.829.1 13.235l-7.892-5.99c1.406-3.113 4.814-5.159 7.792-7.245zm40.124 41.692h-36.323c-2.838 0-6.845.742-9.614 0-.45202634-.1223386-.86870383-.3498664-1.216-.664l14.022-10.886 6.842-5.312c.1952404-.0673466.3621786-.1983614.474-.372 1.544-1.234 3.6-3.591 5.47-3.534 1.958.059 4.015 2.518 5.581 3.734l7.2 5.594 13.98 10.85c-1.586 1.096-4.01.59-6.416.59zm7.982-3.285c-.1204466.613911-.348635 1.2016484-.674 1.736l-15.195-11.8c-1.085-.842-2.95-2.628-4.976-4.368 6.924-5.258 13.85-10.5146667 20.778-15.77.02.08.051.157.067.237.829 4.254 0 9.506 0 13.823 0 4.999 1.051 11.251 0 16.142z"/><path id="Shape" d="m27.548 17.871c-.2591749.6922649-.3616337 1.4333837-.3 2.17l-2.564-1.281c-.311468-.076834-.6400514-.0414263-.928.1-.06.022-.647.278-.44.381 1.316.6593333 2.6326667 1.3176667 3.95 1.975-.008.7-.068 1.557-.1 2.479h-2.7c-.3623146-.0237124-.7223106.0729662-1.024.275-.172.156-.243.337.09.337h3.612c-.0272305.8163517.0061947 1.6335986.1 2.445l-3.574 1.788c-.88.44-.1 1.3.66.92l3.151-1.575c.2766106 1.5636878 1.6729352 2.6776627 3.259 2.6.015 0 .031-.007.046-.008.0460888.0059189.0925365.0085921.139.008 1.6036279-.0070859 3.0151215-1.0592164 3.48-2.594l3.035 1.518c.3353897.1700727.7382812.1347858 1.039-.091.2-.159.417-.568.081-.737l-3.855-1.927c.1056641-.7699303.1498039-1.5470568.132-2.324h2.863c.448 0 1.568-.67.6-.67h-3.477c-.031-.967-.092-1.91-.092-2.731v-.005l3.685-1.843c.852-.426-.494-.34-.83-.172l-2.849 1.424c.0984436-.8814284.0230194-1.7736077-.222-2.626-.4985275-1.1955723-1.6456539-1.9930983-2.94-2.044-.0904857-.0204445-.1836254-.0265188-.276-.018-1.568671-.0195052-3.0165697.8397384-3.751 2.226zm3.6 11.625c-2.34-.1-2.619-2.961-2.551-5.5.112-.116.149-.23.009-.275.03-.828.087-1.606.115-2.227h4.563c.026.693.1 1.607.13 2.572-.1.1-.12.185.005.233.047 2.383-.235 4.972-2.276 5.201zm2.132-8.986h-4.558c-.023-1.582-.145-4.046 1.98-4.16 2.37 0 2.561 2.336 2.573 4.16z"/></g></g></svg>