<svg height="512" viewBox="0 0 40 60" width="512" xmlns="http://www.w3.org/2000/svg"><g id="018---Innovative-Energy-Solutions" fill="none"><path id="Path" d="m19.592 59.4c-.2090383-.0000532-.3959807-.1301413-.4686699-.3261344-.0726891-.1959931-.0157811-.4165194.1426699-.5528656l1.319-1.138-2.511 1.449c-.2259042.1277621-.5120042.0614438-.6586593-.152678-.1466552-.2141217-.1051039-.5048532.0956593-.669322l2.1-1.692-2.8 1.617c-.2184203.1276802-.4977941.0720852-.6506935-.1294872s-.1311343-.4855915.0506935-.6615128l2.777-2.7-3.282 1.9c-.2139383.1227586-.4854345.0711644-.6394281-.1215147-.1539936-.1926792-.1444708-.4688702.0224281-.6504853l1.361-1.477-1.122.647c-.1698759.0977812-.3812183.0872859-.5405706-.0268448s-.2373216-.3108452-.1994294-.5031552l.281-1.416c-.1151653-.0386096-.2120237-.1183753-.272-.224-.1375532-.2386555-.0561721-.5436114.182-.682l.5-.29c.1698759-.0977812.3812183-.0872859.5405706.0268448s.2373216.3108452.1994294.5031552l-.237 1.2 3.007-1.736c.2136477-.1213457.4838004-.0694794.6373204.1223584.15352.1918377.1449064.4667894-.0203204.6486416l-1.361 1.479 3.912-2.259c.2184203-.1276802.4977941-.0720852.6506935.1294872s.1311343.4855915-.0506935.6615128l-2.777 2.7 4.938-2.85c.2259042-.1277621.5120042-.0614438.6586593.152678.1466552.2141217.1051039.5048532-.0956593.669322l-2.1 1.692 1.489-.859c.2234669-.1287231.5081764-.0663691.6573848.1439733.1492085.2103425.1139612.4996608-.0813848.6680267l-1.318 1.137.262-.151c.1549945-.0985297.351531-.1041539.5119064-.0146489.1603754.0895049.2587712.2597296.2562855.4433739s-.1054527.3511436-.2681919.436275l-4.848 2.8c-.0768757.0405527-.1631708.0598828-.25.056z" fill="#bbc1ce"/><path id="Path" d="m18.175 54.471c-.2120833.0003685-.4013254-.1331015-.4721581-.333007-.0708326-.1999054-.0078433-.4227488.1571581-.555993l3.846-3.112-6.688 3.861c-.2308022.1338179-.5260112.0628564-.670779-.1612399s-.0880924-.5223777.128779-.6777601l4.017-2.885-4.851 2.8c-.2300482.1308569-.5222207.059778-.6664488-.1621318-.1442281-.2219099-.0905463-.5177734.1224488-.6748682l3.262-2.37-3.08 1.778c-.2317427.1353654-.5290201.0636298-.6735243-.1625272-.1445041-.2261571-.084687-.5260601.1355243-.6794728l.395-.278c-.2225164.0480783-.4494195-.060224-.5519802-.2634637-.1025608-.2032397-.0548847-.4501027.1159802-.6005363l2.28-2-1.7.983c-.2167987.1191224-.4881174.0618073-.638215-.1348206s-.1338516-.473458.038215-.6511794l.85-.854-.246.141c-.1735848.0999766-.3900836.0867024-.5501542-.0337317-.1600707-.1204342-.2328119-.3247786-.1848458-.5192683l.286-1.149c-.0986783-.0423259-.1808407-.1157102-.234-.209-.1380647-.2391402-.0561341-.5449248.183-.683l.5-.289c.1738103-.1008879.3911331-.0879071.5516983.0329531.1605653.1208603.2331646.3261089.1843017.5210469l-.218.875 2.486-1.435c.2164748-.1176434.486383-.0600602.6359981.1356862.149615.1957464.134338.4713056-.0359981.6493138l-.85.854 2.849-1.645c.2226556-.1273746.5055829-.0655928.6548741.1430023.1492912.2085952.1165111.4963282-.0758741.6659977l-2.282 2 4.876-2.816c.2321137-.1412643.5345566-.0713001.681052.1575481.1464954.2288481.0834127.5328008-.142052.6844519l-.184.129 1.688-.975c.2300482-.1308569.5222207-.059778.6664488.1621318.1442281.2219099.0905463.5177734-.1224488.6748682l-3.259 2.369 5.331-3.078c.2308022-.1338179.5260112-.0628564.670779.1612399s.0880924.5223777-.128779.6777601l-4.024 2.889 3.483-2.01c.2256086-.1271264.5109479-.0609576.657579.1524896.1466312.2134471.106025.5035297-.093579.6685104l-3.846 3.112 3.282-1.894c.217123-.1206668.4899085-.063641.6405105.1338986s.1333491.4756874-.0405105.6531014l-2.386 2.376 1.784-1.029c.2018619-.1159573.4570425-.0772592.6154493.0933328.1584069.1705919.1781225.427936.0475507.6206672l-.863 1.267c.2255547.001802.4219749.1544.4794824.3725078.0575076.2181079-.0381386.4477138-.2334824.5604922l-1.55.894c-.2018619.1159573-.4570425.0772592-.6154493-.0933328-.1584069-.1705919-.1781225-.427936-.0475507-.6206672l.772-1.134-3.2 1.849c-.217123.1206668-.4899085.063641-.6405105-.1338986s-.1333491-.4756874.0405105-.6531014l2.386-2.377-5.485 3.164c-.0754832.0456007-.1618163.0701194-.25.071z" fill="#ced2dc"/><path id="Path" d="m12.05 46.471c-.2220643.0001161-.4175972-.1462439-.4800683-.3593399-.0624712-.213096.0230901-.4418614.2100683-.5616601l4.95-3.171-5.85 3.378c-.2340569.1357068-.5336008.0606207-.6759704-.1694442s-.0759129-.5316408.1499704-.6805558l12.651-8.348-12.725 7.341c-.2347345.1238045-.5252986.0426548-.6619149-.1848618-.13661629-.2275167-.07168534-.5221296.1479149-.6711382l3.058-1.909-2.6 1.5c-.23554944.1441463-.54335367.0700494-.68749998-.1655-.14414632-.2355494-.07004945-.5433537.16549998-.6875l12.085-7.82-11.758 6.794c-.23560872.1297647-.5316571.04988-.67000668-.1807924-.13834959-.2306723-.06941665-.5294607.15600668-.6762076l4.316-2.694-4.1 2.369c-.2341443.133112-.53165209.0568382-.67287099-.1725078-.1412189-.2293459-.07539606-.5293391.14887099-.6784922l14.385-9.4-14.482 8.354c-.23610173.1433179-.54368211.0681017-.687-.168s-.06810173-.5436821.168-.687l11.065-7.064-11.279 6.512c-.23582559.1438702-.5436298.0693256-.68749997-.1665s-.0693256-.5436298.16649997-.6875l12.768-8.2-13.157 7.6c-.23543794.13455-.53521485.0569022-.67572813-.1750261s-.0705395-.5335888.15772813-.6799739l10.869-6.9-11.3 6.522c-.2372063.1430418-.54545825.0667063-.6885-.1705s-.0667063-.5454582.1705-.6885l15.484-10.077-16.175 9.339c-.23560872.1297647-.5316571.04988-.67000668-.1807924-.13834959-.2306723-.06941665-.5294607.15600668-.6762076l5.856-3.641-6.089 3.512c-.23541159.1379583-.53795774.061708-.67986369-.1713453-.14190596-.2330532-.07076502-.5368414.15986369-.6826547l13.884-8.907-14.269 8.241c-.23473446.1238045-.5252986.0426548-.6619149-.1848618-.13661629-.2275167-.07168534-.5221296.1479149-.6711382l8.008-5.01-8.1 4.675c-.23377341.1287456-.52745054.051198-.66718798-.1761759-.13973743-.2273739-.07626999-.5244122.14418798-.6748241l15.472-10.051-15.675 9.05c-.23560872.1297647-.5316571.04988-.67000668-.1807924-.13834959-.2306723-.06941665-.5294607.15600668-.6762076l6.489-4.052-6.341 3.66c-.23448097.1270728-.52742279.0477401-.66573664-.1802909-.13831386-.2280309-.07330581-.5244809.14773664-.6737091l10.042-6.366-9.9 5.713c-.23541159.1379583-.53795774.061708-.67986369-.1713453-.14190596-.2330532-.07076502-.5368414.15986369-.6826547l11.146-7.137-10.788 6.228c-.23508655.127347-.52875831.0472199-.66659082-.1818764-.13783251-.2290964-.071048-.5260868.15159082-.6741236l3.611-2.252-3.217 1.855c-.23486417.1312813-.53150396.0531604-.67124116-.1767732-.13973719-.2299337-.07245767-.5292187.15224116-.6772268l7.271-4.62-6.649 3.838c-.23377341.1287456-.52745054.051198-.66718797-.1761759-.13973744-.2273739-.07627-.5244122.14418797-.6748241l9.791-6.385-9.087 5.247c-.23377341.1287456-.52745054.051198-.66718797-.1761759-.13973744-.2273739-.07627-.5244122.14418797-.6748241l7.967-5.212-6.871 3.965c-.23345719.1253051-.52412895.0467367-.66266771-.1791186-.13853877-.2258554-.07683646-.5205686.14066771-.6718814l4.805-3.131-3.605 2.081c-.23470287.1405531-.53878699.0663884-.6824238-.1664401-.14363681-.2328284-.07348967-.5378644.1574238-.6845599l3.371-2.219-1.912 1.1c-.23276821.1379387-.53303341.0656905-.67757699-.1630348-.14454357-.2287253-.08091807-.5309351.14357699-.6819652l3.08-2.114-.852.491c-.22933911.12852278-.51903511.05749218-.66291212-.1625395-.143877-.22003168-.09278581-.51390037.11691212-.6724605l2.975-2.182c-.0507266-.03903555-.09292603-.08804135-.124-.144-.13755324-.23865551-.05617205-.54361136.182-.682l5.05-2.913c.2299138-.13282353.5235501-.06277315.6687427.15953646.1451926.2223096.0912979.51933596-.1227427.67646354l-.659.483 4.007-2.312c.23171-.12762208.5227312-.05267945.6639792.17098529s.08384.51864622-.1309792.67301471l-3.074 2.112 5.541-3.2c.2347029-.14055309.538787-.06638835.6824238.16644007.1436368.23282843.0734897.5378644-.1574238.68455993l-3.366 2.217 4.981-2.878c.2337734-.12874562.5274505-.05119801.667188.1761759.1397374.22737391.07627.52441224-.144188.6748241l-4.816 3.14 6.31-3.643c.2347034-.13648675.5354374-.06073246.6774741.17065437.1420368.23138684.073465.53383942-.1544741.68134563l-7.969 5.213 9.52-5.495c.2337734-.12874562.5274505-.05119801.667188.1761759.1397374.22737391.07627.52441224-.144188.6748241l-9.79 6.384 11.106-6.411c.234481-.12707284.5274228-.04774006.6657366.18029089.1383139.22803094.0733058.52448086-.1477366.67370911l-7.26 4.614 8.214-4.742c.2347345-.12380452.5252986-.04265478.6619149.18486185s.0716853.52212955-.1479149.67113815l-3.612 2.254 4.127-2.378c.2348642-.13128134.531504-.05316042.6712412.17677323.1397372.22993366.0724576.52921865-.1522412.67722677l-11.144 7.135 12.073-6.97c.234481-.12707284.5274228-.04774006.6657366.18029089.1383139.22803094.0733058.52448086-.1477366.67370911l-10.04 6.365 10.624-6.138c.2356087-.12976469.5316571-.04987998.6700067.18079237.1383496.23067236.0694166.52946069-.1560067.67620763l-6.492 4.052 6.9-3.985c.2347034-.13648675.5354374-.06073246.6774741.17065437.1420368.23138684.073465.53383942-.1544741.68134563l-15.473 10.061 16.161-9.331c.2361735-.13618181.537908-.05806811.6783318.17560806.1404239.23367616.0677709.53677186-.1633318.68139194l-7.991 5 8.249-4.763c.2348642-.13128134.531504-.05316042.6712412.17677323.1397372.22993367.0724576.52921867-.1522412.67722677l-13.884 8.907 14.181-8.188c.2369302-.1419372.5440628-.0649302.686.172s.0649302.5440628-.172.686l-5.851 3.636 5.862-3.384c.2334572-.1253051.5241289-.0467367.6626677.1791186.1385388.2258554.0768365.5205686-.1406677.6718814l-15.49 10.079 15.606-9.013c.234481-.1270728.5274228-.0477401.6657366.1802909.1383139.2280309.0733058.5244809-.1477366.6737091l-10.862 6.9 10.766-6.216c.2347713-.1336383.5332399-.0566316.6740509.1739091.1408109.2305408.0730402.5312411-.1530509.6790909l-12.762 8.2 12.467-7.2c.2361017-.1433179.5436821-.0681017.687.168s.0681017.5436821-.168.687l-11.08 7.078 10.721-6.188c.2337734-.1287456.5274505-.051198.667188.1761759.1397374.2273739.07627.5244122-.144188.6748241l-14.374 9.4 13.651-7.887c.2347345-.1238045.5252986-.0426548.6619149.1848618.1366163.2275167.0716853.5221296-.1479149.6711382l-4.331 2.7 3.663-2.114c.2347713-.1336383.5332399-.0566316.6740509.1739091.1408109.2305408.0730402.5312411-.1530509.6790909l-12.082 7.824 10.862-6.271c.2361735-.1361818.537908-.0580681.6783318.1756081.1404239.2336761.0677709.5367718-.1633318.6813919l-3.077 1.92 1.9-1.1c.2340569-.1357068.5336008-.0606207.6759704.1694442s.0759129.5316408-.1499704.6805558l-12.642 8.346 10.174-5.874c.2348642-.1312813.531504-.0531604.6712412.1767732.1397372.2299337.0724576.5292187-.1522412.6772268l-4.959 3.176 2.441-1.408c.2333291-.1269664.5252099-.0493179.6646076.1768043.1393976.2261221.0776459.5217747-.1406076.6731957l-3.919 2.568 1.856-1.071c.2310609-.1298083.523268-.0567757.6660866.1664779.1428185.2232536.086628.5191613-.1280866.6745221l-5.051 3.563 3.487-2.014c.2257586-.1294404.5130594-.0640705.6605892.1503047.1475298.2143751.1059565.5060712-.0955892.6706953l-4.373 3.547 3.228-1.864c.217123-.1206668.4899085-.063641.6405105.1338986s.1333491.4756874-.0405105.6531014l-2.332 2.323 1.546-.891c.2019265-.1171229.4580256-.0789364.617.092.1588244.1715995.1775147.4303567.045.623l-.74 1.078c.1869568-.0057726.3626094.0893089.46.249.1380647.2391402.0561341.5449248-.183.683l-1.619.935c-.2022733.1165648-.4582887.0776396-.6167766-.0937764-.1584879-.1714159-.1772595-.4296923-.0452234-.6222236l.67-.975-2.955 1.7c-.217123.1206668-.4899085.063641-.6405105-.1338986s-.1333491-.4756874.0405105-.6531014l2.333-2.321-5.387 3.11c-.2256086.1271264-.5109479.0609576-.657579-.1524896-.1466312-.2134471-.106025-.5035297.093579-.6685104l4.375-3.548-7.57 4.369c-.2304519.1256553-.5188365.0517188-.6604036-.1693153-.1415671-.2210342-.088116-.5139083.1224036-.6706847l5.053-3.56-7.629 4.4c-.2333291.1269664-.5252099.0493179-.6646076-.1768043-.1393976-.2261221-.0776459-.5217747.1406076-.6731957l3.919-2.569-5.922 3.419c-.0756184.0452887-.1618652.0697828-.25.071z" fill="#ffc306"/><path id="Path" d="m25.583 23.392c-.2102991.000244-.3982734-.1311286-.4703213-.3287011-.0720479-.1975724-.0127681-.4191102.1483213-.5542989l.8-.671-2.191 1.262c-.2237424.1292278-.5090949.0666972-.6582921-.1442547-.1491972-.2109518-.1130922-.5008356.0832921-.6687453l3.949-3.382-5.008 2.895c-.2309306.1317312-.5245674.0597083-.6683337-.1639283-.1437664-.2236366-.0873821-.520673.1283337-.6760717l1.382-.984-1.422.82c-.227731.1281621-.5157443.059345-.6609391-.1579231-.1451949-.217268-.0985947-.509699.1069391-.6710769l4.522-3.474-4.312 2.488c-.2130048.1213721-.4825903.0704054-.6365857-.1203501-.1539953-.1907555-.1469715-.4650266.0165857-.6476499l1.777-1.958c-.2406997.0540165-.484825-.0755876-.5749337-.3052276-.0901088-.2296401.0007306-.4906814.2139337-.6147724l2.581-1.49c.2130757-.122757.4837819-.0723545.6383991.1188629.1546171.1912173.1472392.4664769-.0173991.6491371l-1.728 1.9 8.118-4.685c.2279124-.1308241.5182022-.0628918.6643976.1554793.1461953.2183711.0983971.512647-.1093976.6735207l-4.52 3.473 3.911-2.258c.2312043-.1356861.5282776-.0648879.6734329.160492.1451554.2253799.0867349.525133-.1324329.679508l-1.387.988.619-.357c.2233421-.1266456.5063058-.0635478.6546834.1459871.1483776.209535.1139372.4973954-.0796834.6660129l-3.944 3.379 2.427-1.4c.2241703-.1280952.5090066-.0644456.6573283.1468868.1483216.2113324.1113468.5008421-.0853283.6681132l-1.545 1.3c.185571.0632976.31702.2292162.3361884.4243463s-.0774818.3834557-.2471884.4816537l-3.76 2.171c-.0759772.0438504-.1622789.0666341-.25.066z" fill="#7dbf29"/><path id="Path" d="m13.285 28.379c-.205003.0000867-.3892888-.1249732-.4649305-.3155108-.0756417-.1905377-.0273118-.4079438.1219305-.5484892l1.487-1.4-2.766 1.6c-.2207276.1320893-.5056598.0751513-.6586724-.1316224-.1530126-.2067738-.124171-.4959044.0666724-.6683776l2.767-2.59-3.693 2.132c-.22590838.1319558-.51534561.0674504-.66384119-.1479469s-.10583645-.5088509.09784119-.6730531l1.723-1.4-1.988 1.147c-.227731.1281621-.51574432.059345-.66093914-.1579231-.14519482-.217268-.09859462-.509699.10693914-.6710769l.55-.423-.561.323c-.21372143.1227494-.48501248.071451-.63915946-.1208586-.15414697-.1923095-.14516585-.4682619.02115946-.6501414l2.276-2.477-2.442 1.41c-.21132343.1216732-.47959512.0731604-.6349231-.1148162-.15532798-.1879765-.15240279-.4605836.0069231-.6451838l.835-.964-.589.34c-.18301972.1052151-.41240126.0841458-.5731916-.0526494-.16079035-.1367951-.21834003-.3598374-.1438084-.5573506l.545-1.43-.089.051c-.16307218.0959719-.36668494.0901433-.524-.015-.15812054-.1034724-.24439841-.2872482-.223-.475l.121-1.034c-.0332153-.0328714-.06211394-.0698348-.086-.11-.06621818-.1149607-.0840333-.2515253-.04952295-.3796262.03451034-.1281009.11851661-.237235.23352295-.3033738l.212-.122c.16374815-.0947424.36694584-.0889536.52503461.0149575.15808878.1039111.24399332.288148.22196539.4760425l-.068.584.445-.257c.18301972-.1052151.41240126-.0841458.5731916.0526494.16079035.1367951.21834003.3598374.1438084.5573506l-.547 1.436 1.947-1.124c.2113234-.1216732.4795951-.0731604.6349231.1148162.155328.1879765.1524028.4605836-.0069231.6451838l-.836.964 2.694-1.555c.2135054-.1227461.4845965-.071745.6388985.1201978.1543021.1919428.1458589.4676604-.0198985.6498022l-2.277 2.478 4.284-2.474c.2279124-.1308241.5182022-.0628918.6643976.1554793.1461953.2183711.0983971.512647-.1093976.6735207l-.551.424.906-.522c.2257586-.1294404.5130594-.0640705.6605892.1503047.1475298.2143751.1059565.5060712-.0955892.6706953l-1.724 1.4 1.992-1.15c.2207276-.1320893.5056598-.0751513.6586724.1316224.1530126.2067738.124171.4959044-.0666724.6683776l-2.765 2.589 2.737-1.58c.2208144-.1342809.5075757-.0781561.6614736.1294633s.1242133.4983097-.0684736.6705367l-1.487 1.4.594-.343c.1547852-.0907422.3463247-.0915917.5019087-.0022259.155584.0893657.2513568.2552442.2509624.4346667-.0003945.1794226-.0968957.3448784-.2528711.4335592l-4.333 2.5c-.0762741.0404167-.1617127.0603983-.248.058z" fill="#7dbf29"/><path id="Shape" d="m30.78 41.962c.511-4.935 3.3-7.609 5.821-11.5 1.9879222-3.1536309 3.071659-6.7926068 3.133-10.52-.348-9.886-7.409-18.281-17.462-19.353-9.5281144-.98488039-18.42154422 4.90915882-21.227 14.068-1.41738567 4.9299712-.84284521 10.2193343 1.6 14.73 1.882 3.457 4.929 5.808 6.055 9.725.508 1.767-.106 5.1 1.273 6.575.6265728.5715807 1.4419231.892024 2.29.9-.111 2.63-.874 6.969 2.033 7.771.532 6.79 10.681 6.286 11.392-.105 2.873-1.056 2.158-4.983 2.056-7.78 2.656-.387 2.756-1.813 3.036-4.511zm-4.415 7.691h-12.636v-3.038c.7-.027 1.373-.082 1.926-.082 3.492 0 7.139.28 10.645.065-.0017138.1062017-.0110714.2121422-.028.317-.034799.9137158-.0037185 1.8287514.093 2.738zm-7.6 8.667c-1.5789562-.634874-2.7003165-2.0625795-2.943-3.747 2.749.216 5.678-.07 8.425-.1-.33 2.642-2.575 4.963-5.487 3.847zm6.326-4.778c-3.0213848.1535066-6.0486152.1535066-9.07 0-1.928-.192-2.287-1.371-2.287-3.1v-.095h12.653c.022 1.539-.187 3.013-1.301 3.195zm1.184-8.075c-.229.031-.464.048-.7.071h-4.846c-.006-1.141-.037-2.323-.072-3.532.0431989-.0578902.0673136-.127788.069-.2-.011-2.347.083-5.024-.12-7.648.163-3.973.771-7.846 2.55-11.075.126.046.246.1.382.133 6.232 1.664 9.637-6.457 9.149-11.41-.033-.337-.927-.22-1.291.092l-.009.005c-1.55 1.528-3.279 1.7-5.32 1.833-1.372357.0538789-2.6917022.5443418-3.766 1.4-2.357 1.932-2.6 5.659-.251 7.374-1.1719998 2.0686478-1.9657553 4.3296998-2.344 6.677-.2467295-.7894171-.5702778-1.5527365-.966-2.279-.1999671-.3530874-.4308727-.6877332-.69-1 1.1039518-2.020105.5737202-4.543159-1.25-5.948-1.1437996-.8591162-2.550981-1.2932918-3.98-1.228-1.9016234.0449794-3.74164814-.6756099-5.107-2-.04178564-.0361757-.09198808-.0612769-.146-.073h-.009c-.02348426-.0045203-.04718079-.0078578-.071-.01-.408-.074-1.141.152-1.171.461v.028.017c-.464 4.979 3.092 13.394 9.372 10.812.5203198-.2144057 1.0002144-.5160731 1.419-.892.2368945.3540382.4423452.7281325.614 1.118.8491554 2.1396961 1.3348419 4.4062331 1.437 6.706-.114 3.582.091 7.238.111 10.646h-1.1c-.952-.039-1.894-.071-2.812-.071-.252 0-.587.035-.946.071h-1.142c-.1428678.0041013-.2847945.0245682-.423.061-.2006707-.0110885-.3980676-.0557056-.584-.132-2.04-.956-1.578-4.881-2.116-6.743-1.7-5.895-7.067-9.366-8.151-15.7-1.13086978-6.7618816 1.54614939-13.59811569 6.968-17.794 12.262-9.371 28.793.326 29.3 14.817-.073146 4.0929604-1.4195193 8.0614762-3.852 11.354-1.665 2.22-3.368 3.99-4.31 6.673-1.222 3.484.326 6.819-3.831 7.386zm-3.854-24.686c-1.1678443-1.8012123-.7148646-4.2021365 1.029-5.454 1.485-1.141 2.865-.683 4.5-.906 1.1902772-.1815213 2.3245514-.6281909 3.319-1.307.0053987 1.3104665-.1812505 2.6146524-.554 3.871-.849 2.876-4.239 6.984-7.006 5.172.9858844-1.522384 2.2626285-2.8351503 3.757-3.863.807-.558-.395-.966-.942-.588-1.4325059.9847003-2.6842271 2.2093572-3.7 3.62-.1452299-.1733507-.2798104-.3553516-.403-.545zm-10 2.565c1.512067.7260596 2.8862366 1.7097363 4.061 2.907l-.01.017c-2.976 4.183-7.225-1.543-8.113-4.332-.37294505-1.1659345-.58687475-2.3768573-.636-3.6 1.01391398.6506588 2.17521363 1.03581 3.377 1.12 1.889.114 3.429.014 4.862 1.518 1.0563898 1.0181599 1.496666 2.5184446 1.158 3.946-1.0948886-.8797733-2.2806139-1.6400857-3.537-2.268-.408-.223-1.743.37-1.16.692z" fill="#262626"/></g></svg>