<svg height="512" viewBox="0 0 62 60" width="512" xmlns="http://www.w3.org/2000/svg"><g id="002---Website-Data" fill="none"><path id="Path" d="m19.119 59.471c-.2245672.0002302-.4217391-.1492881-.4821076-.3655891-.0603684-.2163009.0308779-.4463152.2231076-.5624109l.691-.419-2.216 1.276c-.2349709.1292146-.5300387.050062-.6687925-.179405-.1387537-.2294671-.0717837-.5275361.1517925-.675595l21.4-13.5-24.873 14.355c-.2357179.1278172-.530297.0469384-.667702-.1833224-.137405-.2302607-.0687118-.5279174.155702-.6746776l14.6-8.953-16.993 9.811c-.2364934.126689-.53082268.0441496-.66695642-.1870361s-.06554462-.5286074.15995642-.6739639l3.485-2.1-5.128 2.961c-.23638246.1285498-.53210687.0469768-.6691568-.184581-.13704993-.2315579-.06627089-.5300498.1601568-.675419l8.639-5.218-10.449 6.035c-.23455577.1194599-.52156212.036609-.6563687-.1894756s-.07124209-.517969.1453687-.6675244l19.521-11.92-20.981 12.109c-.23701856.1320316-.53608427.0509486-.6739531-.1827228-.13786884-.2336714-.06422739-.5346559.1659531-.6782772l8.111-4.877-8.489 4.9c-.23803473.1402803-.54471967.0610347-.685-.177s-.06103473-.5447197.177-.685l9.847-5.925-9.918 5.729c-.23571786.1278172-.53029699.0469384-.66770199-.1833224-.13740501-.2302607-.06871185-.5279174.15570199-.6746776l26.138-16.048-25.881 14.942c-.23571786.1278172-.53029699.0469384-.66770199-.1833224-.13740501-.2302607-.06871185-.5279174.15570199-.6746776l28.283-17.43-27.772 16.033c-.23596019.1244074-.52802952.041678-.66369597-.1879935-.13566644-.2296716-.06715011-.5253981.15569597-.6720065l16.247-9.83-15.739 9.086c-.23803472.1402803-.54471964.0610347-.68499996-.177-.14028031-.2380347-.06103474-.5447197.17699996-.685l9.009-5.408-8.501 4.9c-.23831087.1400042-.54499582.0603109-.685-.178s-.06031087-.5449958.178-.685l.594-.353-.088.05c-.23803473.1400042-.54449582.0605347-.6845-.1775s-.06053473-.5444958.1775-.6845l3.787-2.266-3.28 1.894c-.23649337.126689-.53082268.0441496-.66695642-.1870361s-.06554462-.5286074.15995642-.6739639l10.858-6.535-10.351 5.976c-.23560111.1210942-.52475912.0374227-.65928871-.1907734-.13452958-.2281961-.06773715-.5217128.15228871-.6692266l12.6-7.6-12.1 6.984c-.23803473.1400042-.54449582.0605347-.6845-.1775s-.06053473-.5444958.1775-.6845l9.547-5.74-9.041 5.22c-.23698876.1350471-.53848394.055235-.67761558-.1793791-.13913163-.2346142-.06455352-.5374465.16761558-.6806209l23.145-14.162-22.628 13.063c-.23583577.1260453-.52910097.0442222-.66561588-.1857118-.13651492-.2299339-.06795177-.5265795.15561588-.6732882l19.233-11.757-18.723 10.807c-.23305531.1137703-.51441205.0304648-.64795743-.1918505s-.07494402-.5098346.13495743-.6621495l22.2-13.754-21.688 12.517c-.23583577.1260453-.52910097.0442222-.66561588-.1857118-.13651492-.2299339-.06795177-.5265795.15561588-.6732882l11.692-7.134-11.182 6.455c-.23583577.1260453-.52910097.0442222-.66561588-.1857118-.13651492-.2299339-.06795177-.5265795.15561588-.6732882l9.534-5.819-9.024 5.208c-.23460579.1253855-.5263122.0451285-.66376043-.18262s-.07251115-.523243.14776043-.67238l18.709-11.787-18.194 10.503c-.23508655.127347-.52875831.0472199-.66659082-.1818764-.13783251-.2290964-.071048-.5260868.15159082-.6741236l14.215-8.915-13.7 7.91c-.23319341.1126333-.51379644.0285707-.64665284-.1937233-.1328564-.2222939-.07399236-.5092427.13565284-.6612767l4.8-2.955-4.29 2.477c-.23424781.1308833-.53004345.0535271-.67022619-.1752769-.14018273-.228804-.07476503-.527467.14822619-.6767231l15.519-10.11-15 8.659c-.23470287.1405531-.53878699.0663884-.6824238-.1664401-.14363681-.2328284-.07348967-.5378644.1574238-.6845599l13.058-8.6-12.53 7.232c-.23551248.13196-.53324972.0531389-.67262044-.1780652-.13937073-.2312042-.07004227-.5312938.15662044-.6779348l3.625-2.289-3.11 1.795c-.23179212.112361-.51101595.0302349-.64506398-.1897281s-.07904684-.5057697.12706398-.6602719l3.2-2.039-2.682 1.545c-.2341443.133112-.53165209.0568382-.67287099-.1725078-.1412189-.2293459-.07539606-.5293391.14887099-.6784922l5.194-3.407-4.67 2.7c-.23055066.1302945-.52270695.0582293-.66621925-.1643342-.14351231-.2225634-.08860007-.5184238.12521925-.6746658l7.768-5.571-7.228 4.171c-.23198312.1309881-.52592847.0570795-.6683699-.1680527-.14244144-.2251321-.0833463-.52241.1343699-.6759473l3.228-2.23-2.694 1.555c-.23186034.1330617-.52737097.0602043-.67080661-.1653857-.14343565-.22559-.08404925-.5240996.13480661-.6776143l1.445-1.007-.909.525c-.22543784.1380417-.51937488.076753-.67085952-.1398806-.15148464-.2166337-.10816935-.5137516.09885952-.6781194l3.172-2.63-2.6 1.5c-.22265563.1273746-.50558289.0655928-.65487411-.1430023-.14929122-.2085952-.11651109-.4963282.07587411-.6659977l1.247-1.09-.668.385c-.19176788.1141164-.43594151.0873403-.59842143-.0656229-.16247992-.1529633-.20392698-.3950786-.10157857-.5933771l.778-1.534c-.18362557.00508383-.35569115-.08936106-.45-.247-.13806467-.23914015-.05613408-.54492481.183-.683l1.18-.68c.19176788-.11411641.43594151-.08734032.59842143.06562291.16247992.15296324.20392698.39507863.10157857.59337709l-.735 1.441 3.641-2.1c.22304211-.1299097.50831298-.0686909.65841392.14129487.15010093.20998576.11569328.49971551-.07941392.66870513l-1.248 1.09 3.29-1.9c.22516323-.13229253.5142123-.06902009.6635151.14524252s.1085645.50733798-.0935151.67275748l-3.17 2.629 5.972-3.447c.2318603-.13306172.527371-.0602043.6708066.16538571.1434357.22559001.0840493.52409963-.1348066.67761429l-1.447 1.004 3.208-1.847c.2319831-.1309881.5259285-.05707946.6683699.16805269.1424414.22513216.0833463.52241-.1343699.67594731l-3.23 2.232 5.328-3.076c.2305507-.13029452.5227069-.05822926.6662193.16433419.1435123.22256344.0886.51842379-.1252193.67466581l-7.763 5.561 11.1-6.406c.2341443-.13311196.5316521-.0568382.672871.17250776s.075396.52933917-.148871.67849224l-5.2 3.409 7.377-4.261c.2361017-.14331789.5436821-.06810173.687.168s.0681017.54368211-.168.687l-3.21 2.044 5.021-2.9c.2363779-.14276561.5437344-.06687787.6865.1695s.0668779.54373439-.1695.6865l-3.617 2.288 5.44-3.143c.2336556-.13069104.5287926-.05414659.6694787.17363081.140686.22777741.0769932.52595205-.1444787.67636919l-13.055 8.6 16.365-9.451c.2342478-.13088329.5300435-.05352709.6702262.17527691.1401827.22880401.074765.52746697-.1482262.67672309l-15.52 10.111 18.989-10.964c.2372063-.1413849.5441151-.0637063.6855.1735s.0637063.5441151-.1735.6855l-4.8 2.954 6.6-3.813c.2361735-.13618181.537908-.05806811.6783318.17560806.1404239.23367616.0677709.53677186-.1633318.68139194l-14.216 8.919 16.932-9.776c.2363779-.14276559.5437344-.06687785.6865.16950002.1427656.23637786.0668779.54373436-.1695.68649998l-18.7 11.78 21.888-12.637c.2374824-.14110875.5443912-.06298244.6855.1745s.0629824.54439125-.1745.6855l-9.539 5.823 11.576-6.683c.2374824-.14110875.5443912-.06298244.6855.1745s.0629824.54439125-.1745.6855l-11.694 7.135 13.848-8c.2369302-.14193718.5440628-.06493016.686.172s.0649302.54406282-.172.686l-22.2 13.758 25.31-14.612c.2374824-.14110873.5443912-.06298241.6855.17450002.1411087.23748243.0629824.54439122-.1745.68549998l-19.224 11.751 21.846-12.612c.1536242-.09128136.3442768-.09367127.5001409-.00626949s.2532602.25131686.2555.43c.0022399.17868314-.0910167.34498813-.2446409.43626949l-23.14 14.166 24.265-14.014c.2380347-.14028031.5447197-.06103471.685.17700001s.0610347.54471966-.177.68499999l-9.528 5.732 9.02-5.208c.2370186-.13203157.5360843-.0509486.6739531.1827228s.0642274.5346559-.1659531.6782772l-12.6 7.6 12.1-6.984c.2380347-.1402803.5447197-.0610347.685.177s.0610347.5447197-.177.685l-10.867 6.534 10.351-5.977c.2383109-.1400042.5449958-.0603109.685.178s.0603109.5449958-.178.685l-3.827 2.292 3.323-1.918c.2380347-.1400042.5444958-.0605347.6845.1775s.0605347.5444958-.1775.6845l-.541.323.034-.02c.2380347-.1402803.5447197-.0610347.685.177s.0610347.5447197-.177.685l-9.012 5.414 8.5-4.909c.2377586-.1405565.5444435-.0617586.685.176.1405564.2377586.0617586.5444435-.176.685l-16.248 9.83 15.74-9.086c.2372063-.1413849.5441151-.0637063.6855.1735s.0637063.5441151-.1735.6855l-28.288 17.434 27.776-16.037c.2362845-.1306359.5336041-.0500916.6716393.181948s.0669238.5317553-.1606393.677052l-26.131 16.045 25.62-14.793c.2370186-.1320316.5360843-.0509486.6739531.1827228s.0642274.5346559-.1659531.6782772l-9.841 5.922 9.333-5.388c.2370186-.1320316.5360843-.0509486.6739531.1827228s.0642274.5346559-.1659531.6782772l-8.105 4.874 7.6-4.386c.2369888-.1350471.5384839-.055235.6776156.1793791.1391316.2346142.0645535.5374465-.1676156.6806209l-19.533 11.927 19.02-10.983c.2377586-.1405564.5444435-.0617585.685.176.1405564.2377586.0617586.5444435-.176.685l-8.629 5.213 8.123-4.689c.2370186-.1320316.5360843-.0509486.6739531.1827228s.0642274.5346559-.1659531.6782772l-3.474 2.092 2.963-1.709c.2362845-.1306359.5336041-.0500916.6716393.181948s.0669238.5317553-.1606393.677052l-14.609 8.955 14.1-8.139c.2346058-.1253855.5263122-.0451285.6637604.18262.1374483.2277485.0725112.523243-.1477604.67238l-21.4 13.507 20.883-12.059c.2370186-.1320316.5360843-.0509486.6739531.1827228s.0642274.5346559-.1659531.6782772l-.669.406.161-.093c.2362075-.133071.5354329-.0536509.6745599.1790411.1391271.2326919.0674613.5338687-.1615599.6789589l-11.806 7.337 11.293-6.519c.2352087-.125628.5276152-.0445694.664573.1842276.1369579.228797.070267.5248112-.151573.6727724l-8.35 5.179 7.837-4.524c.2352087-.125628.5276152-.0445694.664573.1842276.1369579.228797.070267.5248112-.151573.6727724l-5.459 3.381 4.946-2.855c.2348642-.1312813.531504-.0531604.6712412.1767732.1397372.2299337.0724576.5292187-.1522412.6772268l-11 7.03 10.484-6.053c.2349709-.1292146.5300387-.050062.6687925.179405.1387537.2294671.0717837.5275361-.1517925.675595l-6.862 4.354 6.342-3.663c.2347713-.1336383.5332399-.0566316.6740509.1739091.1408109.2305408.0730402.5312411-.1530509.6790909l-7.457 4.818 6.936-4c.233204-.1287421.5263939-.0520483.6666872.1743946.1402933.226443.0784231.5231151-.1406872.6746054l-7.792 5.18 7.266-4.2c.2335451-.1328438.5303244-.0573638.6720248.1709163s.0776546.5277351-.1450248.6780837l-5.311 3.542 4.784-2.762c.2317427-.1353654.5290201-.0636298.6735243.1625272.1445041.2261571.084687.5260601-.1355243.6794728l-5.821 4.1 5.283-3.049c.2269587-.1282325.5143539-.0605795.6602778.1554298.145924.2160093.1014061.5078844-.1022778.6705702l-5.432 4.252 4.874-2.814c.2248726-.1315945.5131068-.0684479.6623629.1451111.149256.213559.1094985.5059386-.0913629.6718889l-3.169 2.651 2.6-1.5c.214156-.122774.4858627-.0708854.6397046.1221662s.1437736.4694853-.0237046.6508338l-1.805 1.944.629-.363c.1549945-.0985297.351531-.1041539.5119064-.0146489.1603754.0895049.2587712.2597296.2562855.4433739s-.1054527.3511436-.2681919.436275l-3.509 2.027c-.2138636.1213482-.4842152.0691846-.6375799-.1230191-.1533647-.1922038-.1442142-.4673898.0215799-.6489809l1.805-1.943-4.705 2.715c-.2245855.1309436-.5120466.0679354-.6612702-.144943-.1492235-.2128783-.1104168-.5045939.0892702-.671057l3.169-2.652-6.007 3.468c-.2271272.1307942-.5167067.0640046-.6636035-.1530559-.1468968-.2170604-.1012506-.5107158.1046035-.6729441l5.431-4.257-8.807 5.083c-.2310609.1298083-.523268.0567757-.6660866-.1664779-.1428185-.2232536-.086628-.5191613.1280866-.6745221l5.82-4.1-8.554 4.941c-.2327769.1270897-.524286.0503218-.6642741-.174934-.139988-.2252559-.0797468-.5206233.1372741-.673066l5.316-3.542-7.61 4.39c-.2324996.1240701-.5213839.0463844-.6602955-.1775644-.1389116-.2239487-.0801563-.5172694.1342955-.6704356l7.791-5.178-10.441 6.026c-.2338963.1269547-.5262491.04845-.6650871-.1785941-.1388379-.227044-.0755015-.5230536.1440871-.6734059l7.448-4.814-9.814 5.666c-.234481.1270728-.5274228.0477401-.6657366-.1802909-.1383139-.2280309-.0733058-.5244809.1477366-.6737091l6.863-4.355-9.023 5.209c-.2343611.1288923-.5286543.0505227-.6678755-.1778537-.1392213-.2283764-.0740613-.5258734.1478755-.6751463l11-7.026-13.652 7.879c-.2356087.1297647-.5316571.04988-.6700067-.1807924-.1383496-.2306723-.0694166-.5294607.1560067-.6762076l5.467-3.383-7.35 4.24c-.2356087.1297647-.5316571.04988-.6700067-.1807924-.1383496-.2306723-.0694166-.5294607.1560067-.6762076l8.349-5.178-10.454 6.035c-.2352087.125628-.5276152.0445694-.664573-.1842276-.1369579-.228797-.070267-.5248112.151573-.6727724l11.805-7.337-14.194 8.194c-.0756184.0452887-.1618652.0697828-.25.071z" fill="#ccd0da"/><path id="Path" d="m4.086 9.5c-.21651021.00306029-.41038622-.13359051-.48029249-.33852745-.06990626-.20493694.0000454-.43158229.17329249-.56147255l4.465-3.46-5.964 3.448c-.22546345.12877265-.5119753.06354158-.65947026-.1501437s-.1068861-.50470942.09347026-.6698563l3.948-3.232-3.383 1.953c-.22590838.13195581-.51534561.06745042-.66384119-.14794688-.14849558-.21539729-.10583645-.50885096.09784119-.67305312l1.343-1.095-.7.406c-.21444766.12425991-.48756078.07266666-.64190044-.12126012-.15433966-.19392677-.14331965-.47165181.02590044-.65273988l1.15-1.233c-.2079373-.03504718-.37153493-.19678223-.40896067-.40430461s.05936643-.41621758.24196067-.52169539l2.308-1.333c.2143746-.12279557.48629712-.07061406.6399891.12281292.15369198.19342699.14307446.47010737-.0249891.65118708l-.883.946 3.179-1.833c.2256098-.13119678.5141774-.06680355.66260926.14785982.14843186.21466336.10679385.50738169-.09560926.67214018l-1.346 1.1 3.321-1.92c.2256098-.13119678.5141774-.06680355.6626093.14785982.1484318.21466336.1067938.50738169-.0956093.67214018l-3.951 3.228 7.02-4.048c.2277686-.13271241.5194462-.06579338.6665848.15293332.1471386.21872669.0991876.51411564-.1095848.67506668l-4.466 3.457 7.428-4.285c.2256086-.12712642.5109479-.06095755.657579.15248957.1466312.21344713.106025.50352978-.093579.66851043l-4.903 3.979 8.307-4.8c.2299138-.13282353.5235501-.06277315.6687427.15953646.1451926.2223096.0912979.51933596-.1227427.67646354l-3.538 2.6 5.953-3.436c.2314518-.1313128.5252013-.05833565.6682918.16602591.1430904.22436156.0853808.52148787-.1312918.67597409l-2.091 1.465 4-2.31c.2304184-.13223644.5240189-.06118928.6684864.16176419.1444674.22295348.0893536.51995759-.1254864.67623581l-3.086 2.23 5.315-3.065c.2319831-.1309881.5259285-.05707946.6683699.16805269.1424414.22513216.0833463.52241-.1343699.67594731l-1.334.921 3.058-1.765c.23158-.12940266.5239091-.05542235.6660571.16856044.142148.2239828.0846277.51999085-.1310571.67443956l-1.719 1.2 3.534-2.043c.2308022-.1338179.5260112-.06285643.670779.16123991.1447678.22409633.0880924.52237765-.128779.67776009l-3.017 2.171 5.22-3.01c.2281943-.12734836.5159664-.05749287.6603781.16030407s.0967481.51006523-.1093781.67069593l-4.14 3.138 6.88-3.969c.2324067-.13284986.5282158-.05908515.6710333.16733285s.0819688.52515148-.1380333.67766715l-1.115.767 2.792-1.612c.2309306-.13173121.5245674-.05970825.6683337.16392831.1437664.22363655.0873821.52067301-.1283337.67607169l-2.66 1.9 4.74-2.74c.2300482-.13085688.5222207-.05977797.6664488.16213184.1442281.22190982.0905463.51777331-.1224488.67486816l-3.251 2.363 5.547-3.2c.2271272-.1307942.5167067-.06400457.6636035.15305585.1468968.21706043.1012506.51071589-.1046035.67294415l-4.619 3.628 7.72-4.454c.2313261-.13338821.5266402-.06146595.670727.16335216.1440867.22481812.0860887.52317941-.131727.67764784l-2.476 1.753 4.5-2.6c.228242-.1318458.5196375-.06386204.6659708.15537372.1463332.21923576.0973404.51441845-.1119708.67462628l-4.235 3.235 6.533-3.772c.2318603-.13306172.527371-.0602043.6708066.16538571.1434357.22559001.0840493.52409963-.1348066.67761429l-1.362.95 1.942-1.121c.2318603-.13306172.527371-.0602043.6708066.16538571.1434357.22559001.0840493.52409963-.1348066.67761429l-.479.335.672-.388c.2304184-.13223644.5240189-.06118928.6684864.16176419.1444674.22295348.0893536.51995759-.1254864.67623581l-.74.536.7-.4c.2184203-.12768021.4977941-.07208516.6506935.12948722s.1311343.48559145-.0506935.66151278l-2.5 2.437 2.1-1.214c.1963119-.11256163.443751-.07924152.603295.0812396.159544.16048113.1914144.40811108.077705.6037604l-.917 1.578.255-.147c.23893-.13584515.5427102-.05337078.6801373.18465285.137427.23802363.0569695.54234426-.1801373.68134715l-1.887 1.081c-.1963119.11256163-.443751.07924152-.603295-.0812396-.159544-.16048113-.1914144-.40811108-.077705-.6037604l.92-1.575-3.918 2.266c-.2184203.12768021-.4977941.07208516-.6506935-.12948722s-.1311343-.48559145.0506935-.66151278l2.5-2.438-5.6 3.231c-.2306768.13612394-.5276494.06629287-.6734904-.15836663s-.0887428-.52434083.1294904-.67963337l.738-.535-2.38 1.374c-.2318603.13306172-.527371.0602043-.6708066-.16538571-.1434357-.22559001-.0840493-.52409963.1348066-.67761429l.483-.338-2.046 1.182c-.2318603.13306172-.527371.0602043-.6708066-.16538571-.1434357-.22559001-.0840493-.52409963.1348066-.67761429l1.361-.948-3.1 1.792c-.228242.1318458-.5196375.06386204-.6659708-.15537372-.1463332-.21923576-.0973404-.51441845.1119708-.67462628l4.234-3.233-7.04 4.065c-.2313261.13338821-.5266402.06146595-.670727-.16335216-.1440867-.22481812-.0860887-.52317941.131727-.67764784l2.473-1.755-4.5 2.6c-.2276227.13472937-.5207984.06886746-.6689241-.15027378-.1481257-.21914123-.0999482-.51573645.1099241-.67672622l4.617-3.63-7.726 4.457c-.2306768.13612394-.5276494.06629287-.6734904-.15836663s-.0887428-.52434083.1294904-.67963337l3.252-2.365-5.549 3.2c-.2309306.13173121-.5245674.05970825-.6683337-.16392831-.1437664-.22363655-.0873821-.52067301.1283337-.67607169l2.662-1.9-4.744 2.745c-.2324067.13284986-.5282158.05908515-.6710333-.16733285s-.0819688-.52515148.1380333-.67766715l1.113-.765-2.792 1.611c-.2281943.12734837-.5159664.05749287-.6603781-.16030407s-.0967481-.51006523.1093781-.67069593l4.14-3.141-6.882 3.974c-.2308022.1338179-.5260112.06285643-.670779-.16123991-.1447678-.22409633-.0880924-.52237765.128779-.67776009l3.017-2.176-5.224 3.016c-.23158.12940266-.5239091.05542235-.6660571-.16856044-.142148-.2239828-.0846277-.51999085.1310571-.67443956l1.717-1.2-3.533 2.04c-.2327682.13793867-.5330334.06569054-.677577-.16303478s-.0809181-.53093515.143577-.68196522l1.335-.921-3.061 1.772c-.2310893.13830988-.5302073.06873585-.6765367-.15736061-.1463295-.22609645-.0872887-.52747049.1335367-.68163939l3.087-2.23-5.317 3.07c-.2314518.13131281-.5252013.05833565-.6682918-.16602591-.1430904-.22436156-.0853808-.52148787.1312918-.67597409l2.092-1.469-4 2.312c-.2296891.12962966-.5205695.0585592-.6646041-.16238191-.1440346-.2209411-.0916869-.51576672.1196041-.67361809l3.535-2.6-5.957 3.438c-.22621117.13277571-.51657217.06817453-.66514992-.14798637-.14857775-.21616091-.10485884-.51039122.10014992-.67401363l4.907-3.977-8.315 4.8c-.07564311.0449905-.16198867.06882188-.25.069z" fill="#2783ec"/><path id="Path" d="m22.673 9.5c-.2062331-.00016506-.3912062-.12693613-.4657731-.31921688-.0745669-.19228074-.023427-.41061693.1287731-.54978312l.949-.868-1.006.581c-.2012751.11560352-.455642.07748931-.6141943-.0920306-.1585524-.16951992-.1795934-.42586431-.0508057-.6189694l.773-1.153c-.236414.03062047-.4615659-.10991977-.5378985-.33575713-.0763325-.22583737.0173863-.47415524.2238985-.59324287l1.627-.941c.2015044-.11641065.4566801-.07841207.6155242.09165857.1588441.17007065.1793551.42724344.0494758.62034143l-.723 1.078 3.127-1.8c.2201191-.12110787.4959248-.06006935.6443868.14260915s.1234717.4840501-.0583868.65739085l-.949.867 2.894-1.667c.2109099-.12179714.4788947-.07390951.6345697.11339461.1556749.18730412.1537451.45952717-.0045697.64460539l-1.496 1.742 4.337-2.5c.2050606-.11812616.4648513-.07631434.6224934.10018675.157642.17650109.1699563.43934661.0295066.62981325l-1.5 2.033 4.79-2.763c.2202286-.12274667.4973928-.06232249.6465459.14095258.1491531.20327508.1236267.48579845-.0595459.65904742l-.784.7 2.172-1.254c.2032855-.11764842.4610547-.07794411.6195147.09542414.15846.17336824.1748892.43365943.0394853.62557586l-1.3 1.845 1.645-.951c.1825532-.10557474.4117198-.08526286.5728579.05077453.1611382.13603738.219601.3585503.1461421.55622547l-.348.932c.2111682.02991112.3801174.19047623.4207287.39985004s-.0560565.42145947-.2407287.52814996l-.822.474c-.1817168.10521291-.4098106.0856791-.5709918-.04889938-.1611812-.13457849-.2211049-.35552529-.1500082-.55310062l.288-.776-2.4 1.388c-.2032855.11764842-.4610547.07794411-.6195147-.09542414-.15846-.17336824-.1748892-.43365943-.0394853-.62557586l1.3-1.844-4.46 2.569c-.2222396.12857817-.5057439.06793094-.6559297-.14031646-.1501859-.20824741-.1182322-.4963997.0739297-.66668354l.784-.7-2.613 1.51c-.204818.11718953-.4636865.07522796-.6209976-.10066129s-.1702347-.43781792-.0310024-.62833871l1.5-2.033-4.8 2.769c-.2109099.12179714-.4788947.07390951-.6345697-.11339461-.1556749-.18730412-.1537451-.45952717.0045697-.64460539l1.5-1.746-4.347 2.51c-.0774525.04578645-.1660358.0693164-.256.068z" fill="#0c70dc"/><path id="Path" d="m17.579 52.5c-.2048207-.0003228-.3887314-.1255313-.4641154-.3159752-.075384-.1904438-.0269945-.4076045.1221154-.5480248l2.263-2.128-2.22 1.281c-.2233421.1266456-.5063058.0635478-.6546834-.1459871-.1483776-.209535-.1139372-.4973954.0796834-.6660129l1.857-1.591-1.282.74c-.2202286.1227467-.4973928.0623225-.6465459-.1409526s-.1236267-.4857984.0595459-.6590474l2.526-2.3-1.94 1.12c-.2244518.1286386-.5099659.0648202-.6582866-.1471407-.1483207-.211961-.1104625-.5020607.0872866-.6688593l1.586-1.33-1.015.585c-.2274132.1273482-.5145055.05864-.6596263-.1578646-.1451209-.2165046-.0995839-.5081708.1046263-.6701354l.345-.268c-.1764408.0213751-.3497198-.0592558-.447-.208-.1495244-.2099956-.114883-.4992508.08-.668l2.005-1.739-1.428.824c-.226507.1291681-.5142486.0625855-.6609917-.1529516-.1467432-.2155372-.103215-.5076567.0999917-.6710484l.69-.549-.129.074c-.2271002.1265913-.5133226.0580067-.6583864-.1577626-.1450637-.2157693-.100553-.506709.1023864-.6692374l.388-.3c-.2216493.0383506-.4416219-.0760323-.5375254-.2795064-.0959034-.203474-.0441252-.4459414.1265254-.5924936l1.821-1.558-1.246.72c-.2254634.1287726-.5119753.0635416-.6594703-.1501437-.1474949-.2136853-.1068861-.5047094.0934703-.6698563l1.194-.978-.628.362c-.220764.1274774-.5020857.0684559-.653-.137-.1510077-.2052985-.1234391-.4913229.064-.664l2.618-2.408-2.029 1.171c-.2266506.1274915-.5131906.0599635-.6590607-.1553189-.1458701-.2152823-.1023667-.5064398.1000607-.6696811l.489-.385c-.2302377.0877716-.4900961-.0052752-.6122913-.2192415-.1221953-.2139664-.0702944-.4850575.1222913-.6387585l.532-.422c-.2126359.1033673-.4686099.0436683-.6135794-.1431007s-.1393044-.4495514.0135794-.6298993l1.627-1.907-1 .575c-.1972453.1130462-.4459251.0787945-.6052651-.0833656-.1593399-.1621602-.1892239-.4114026-.0727349-.6066344l.38-.636c-.1942932-.0536131-.3373984-.218642-.3629628-.4185687-.0255644-.1999266.0714113-.3956544.2459628-.4964313l1.128-.651c.1972945-.1139985.446709-.0801861.6065315.0822255.1598225.1624117.1896226.4123373.0724685.6077745l-.223.373 1.847-1.064c.2109712-.1231324.4800291-.0758007.6363129.111938s.1540373.4609189-.0053129.646062l-1.627 1.907 3.359-1.94c.2269806-.1326577.5179234-.0668764.6657567.1505254.1478333.2174019.1020535.5121545-.1047567.6744746l-.529.419.037-.021c.2271272-.1307942.5167067-.0640046.6636035.1530559.1468968.2170604.1012506.5107158-.1046035.6729441l-.486.382c.2244909-.0867912.4789603-.0013275.6055528.2033752.1265925.2047028.0893803.4705486-.0885528.6326248l-2.619 2.408 2.033-1.173c.2254634-.1287726.5119753-.0635416.6594703.1501437.1474949.2136853.1068861.5047094-.0934703.6698563l-1.191.975.627-.361c.2233421-.1266456.5063058-.0635478.6546834.1459871.1483776.209535.1139372.4973954-.0796834.6660129l-1.823 1.555 1.249-.721c.2272713-.1290292.5155715-.0612656.6615658.155498.1459944.2167636.1004262.5093938-.1045658.671502l-.39.3c.2263695-.0421069.4522271.0758205.5470594.285637s.0341177.457268-.1470594.599363l-.684.544.123-.071c.2229237-.1277986.5064223-.0658196.6556784.1433455.1492561.2091652.11567.4974096-.0776784.6666545l-2.013 1.744 1.432-.827c.2275891-.1298897.5168511-.062032.6629348.1555172.1460838.2175492.0994243.5109773-.1069348.6724828l-.346.268c.2169538-.0179492.4205878.1065382.503521.3078171.0829333.2012789.0261038.4330855-.140521.5731829l-1.583 1.329 1.013-.585c.2202286-.1227467.4973928-.0623225.6465459.1409526s.1236267.4857984-.0595459.6590474l-2.522 2.3 1.941-1.121c.2237424-.1292278.5090949-.0666972.6582921.1442547.1491972.2109518.1130922.5008356-.0832921.6687453l-1.855 1.589 1.282-.741c.2207276-.1320893.5056598-.0751513.6586724.1316224.1530126.2067738.124171.4959044-.0666724.6683776l-2.263 2.12 1.674-.965c.1915688-.1135519.4351443-.0867226.5974054.0658028.162261.1525254.2040912.3939774.1025946.5921972l-.815 1.611.122-.071c.1548746-.0893164.3456344-.0892235.500422.0002436.1547876.0894672.2500871.2547165.25.4335-.000087.1787836-.0955474.34394-.250422.4332564l-1.576.909c-.1917679.1141164-.4359415.0873403-.5984214-.0656229-.1624799-.1529633-.203927-.3950786-.1015786-.5933771l.814-1.609-3.962 2.289c-.0755041.0454325-.1618817.0696182-.25.07z" fill="#2783ec"/><path id="Path" d="m23.568 52.5c-.212736-.0001618-.4020753-.134916-.471911-.3358628-.0698358-.2009467-.0048741-.4240791.161911-.5561372l.068-.054-.046.026c-.2248836.1275609-.509928.0626394-.65739-.1497267-.1474621-.2123662-.1087026-.5021295.08939-.6682733l1.335-1.1-.767.443c-.2275891.1298897-.5168511.062032-.6629348-.1555172-.1460838-.2175492-.0994243-.5109773.1069348-.6724828l.39-.3c-.2225844.0362539-.4418891-.0809815-.535385-.286205s-.0380394-.4476349.135385-.591795l1.461-1.215-.892.514c-.2230421.1299097-.508313.0686909-.6584139-.1412949-.150101-.2099857-.1156933-.4997155.0794139-.6687051l2.089-1.823-1.511.872c-.2227723.1294397-.5074311.0684047-.6575526-.1409889s-.1165485-.4985799.0775526-.6680111l2.155-1.892-1.575.909c-.2243015.1303348-.511027.0674761-.6602307-.1447421-.1492038-.2122182-.1113211-.5032983.0872307-.6702579l1.7-1.442-1.131.652c-.2253165.1265297-.5099298.0605202-.6565485-.1522715-.1466186-.2127916-.1069324-.5022515.0915485-.6677285l1.075-.874-.51.294c-.2230421.1299097-.508313.0686909-.6584139-.1412949-.150101-.2099857-.1156933-.4997155.0794139-.6687051l2.084-1.83-1.5.868c-.2206356.1300292-.503851.072325-.6560244-.1336626s-.1241014-.4936554.0650244-.6663374l2.765-2.586-2.174 1.254c-.2220099.1247109-.5022812.0626525-.6508926-.1441224-.1486115-.2067749-.1180855-.4922068.0708926-.6628776l2.169-1.909-1.589.917c-.2234669.1287231-.5081764.0663691-.6573848-.1439733-.1492085-.2103425-.1139612-.4996608.0813848-.6680267l1.885-1.619-1.309.755c-.2251719.1281476-.5109328.0630663-.6584056-.14995-.1474728-.2130162-.107801-.5033971.0914056-.66905l1.28-1.054-.713.411c-.2251719.1281476-.5109328.0630663-.6584056-.14995-.1474728-.2130162-.107801-.5033971.0914056-.66905l1.239-1.018-.672.388c-.2157843.1245835-.4903641.0712785-.6438596-.1249944s-.1390557-.4756061.0338596-.6550056l2.45-2.542-1.844 1.072c-.1865025.1080132-.4212303.0843648-.5824392-.0586797-.1612088-.1430445-.2126169-.3732913-.1275608-.5713203l.64-1.494c-.209057.0400306-.4205391-.0566813-.527-.241-.1382327-.2388784-.0567713-.5445824.182-.683l1.128-.651c.1865025-.1080132.4212303-.0843648.5824392.0586797.1612088.1430445.2126169.3732913.1275608.5713203l-.622 1.452 3.608-2.083c.2154812-.1230022.4885691-.0693794.6415393.1259712.1529702.1953505.1395447.4733291-.0315393.6530288l-2.45 2.543 2.873-1.659c.2256098-.1311968.5141774-.0668035.6626093.1478598.1484318.2146634.1067938.5073817-.0956093.6721402l-1.241 1.017.676-.39c.2251719-.1281476.5109328-.0630663.6584056.14995.1474728.2130162.107801.5033971-.0914056.66905l-1.281 1.055.716-.413c.2234669-.1287231.5081764-.0663691.6573848.1439733.1492085.2103425.1139612.4996608-.0813848.6680267l-1.884 1.617 1.31-.757c.2223898-.1269737.5047663-.065395.6540994.1426415.1493332.2080365.1173442.4952735-.0740994.6653585l-2.169 1.91 1.591-.918c.2206356-.1300292.503851-.072325.6560244.1336626s.1241014.4936554-.0650244.6663374l-2.764 2.586 2.174-1.255c.2227723-.1294397.5074311-.0684047.6575526.1409889s.1165485.4985799-.0775526.6680111l-2.083 1.817 1.5-.869c.2259084-.1319558.5153456-.0674504.6638412.1479469s.1058364.5088509-.0978412.6730531l-1.08.878.516-.3c.2240205-.1297641.5100442-.0670649.6592395.1445117s.1122125.502047-.0852395.6694883l-1.7 1.441 1.13-.653c.2227723-.1294397.5074311-.0684047.6575526.1409889s.1165485.4985799-.0775526.6680111l-2.153 1.893 1.578-.911c.2230421-.1299097.508313-.0686909.6584139.1412949.150101.2099857.1156933.4997155-.0794139.6687051l-2.09 1.824 1.513-.873c.2247363-.1292165.510959-.0652384.6592891.1473681.1483301.2126064.1095663.5033193-.0892891.6696319l-1.458 1.213.89-.513c.2272713-.1290292.5155715-.0612656.6615658.155498.1459944.2167636.1004262.5093938-.1045658.671502l-.389.3c.2231112-.0370397.4433052.0802998.5369811.2861525.0936759.2058528.0375055.4489553-.1369811.5928475l-1.335 1.1.768-.443c.226507-.1291681.5142486-.0625855.6609917.1529516.1467432.2155372.103215.5076567-.0999917.6710484l-.344.272c.1694712-.0095706.3327047.0653071.436.2.1511578.204375.1249119.4896374-.061.663l-.343.319c.1546735.0002671.3005157.0721037.3950015.1945635.0944858.1224599.1269765.2817545.0879985.4314365l-.274 1.053c.1698978.0777724.2822541.2437873.2913017.4304206.0090476.1866332-.0867234.3627377-.2483017.4565794l-.5.291c-.1743586.0999582-.391621.0858034-.5515362-.0359328-.1599151-.1217362-.2313978-.3273901-.1814638-.5220672l.2-.768-2.321 1.347c-.2206356.1300292-.503851.072325-.6560244-.1336626s-.1241014-.4936554.0650244-.6663374l.131-.121-1.612.93c-.0754436.0456916-.1618022.0702174-.25.071z" fill="#f5ab01"/><path id="Path" d="m35.734 52.5c-.2026648-.0004412-.3850178-.1231764-.4617194-.3107666s-.0325788-.4029265.1117194-.5452334l2.47-2.434-2.574 1.482c-.218866.1231702-.4951381.0648746-.6455811-.1362227-.1504431-.2010973-.1283693-.4825886.0515811-.6577773l2.938-2.8-2.344 1.348c-.2243164.1264895-.5080183.0619132-.6554889-.1492026s-.1104702-.4997121.0854889-.6667974l1.469-1.223-.9.519c-.2208144.1342809-.5075757.0781561-.6614736-.1294633s-.1242133-.4983097.0684736-.6705367l2.87-2.716-2.277 1.314c-.2206356.1300292-.503851.072325-.6560244-.1336626s-.1241014-.4936554.0650244-.6663374l2.72-2.529-2.129 1.229c-.2233144.1304087-.509223.0690136-.6593121-.1415784-.150089-.2105921-.1148283-.5008847.0813121-.6694216l2.017-1.75-1.439.83c-.2201191.1211079-.4959248.0600693-.6443868-.1426092s-.1234717-.48405.0583868-.6573908l2.464-2.23-1.878 1.084c-.2266506.1274915-.5131906.0599635-.6590607-.1553189-.1458701-.2152823-.1023667-.5064398.1000607-.6696811l.524-.414c-.2305151.1085113-.5057581.0263402-.6390578-.1907845s-.0820213-.4997575.1190578-.6562155l.346-.268c-.2108288.0172178-.4096807-.1000984-.4965694-.29296-.0868888-.1928616-.0430116-.419533.1095694-.56604l2.97-2.852-2.374 1.37c-.2243015.1303348-.511027.0674761-.6602307-.1447421-.1492038-.2122182-.1113211-.5032983.0872307-.6702579l1.63-1.377-1.057.609c-.2072709.1186494-.4695147.0741485-.6260418-.106235-.156527-.1803835-.1636307-.4462813-.0169582-.634765l1.7-2.177-1.062.613c-.1991468.1142571-.450514.0782028-.6095162-.0874245s-.1847708-.4182562-.0624838-.6125755l.33-.517c-.1803063-.0685405-.3051052-.2346855-.3206998-.4269482-.0155947-.1922628.0807966-.3763488.2476998-.4730518l1.128-.651c.1991468-.1142571.450514-.0782028.6095162.0874245s.1847708.4182562.0624838.6125755l-.114.18 1.526-.882c.2073289-.1198377.4705164-.0758472.6276039.1049009.1570875.1807482.1639632.4474982.0163961.6360991l-1.7 2.178 3.66-2.114c.2243015-.1303348.511027-.0674761.6602307.1447421.1492038.2122182.1113211.5032983-.0872307.6702579l-1.629 1.378 1.1-.637c.219385-.1342545.5048344-.0801688.6599003.1250351.1550659.2052038.1291551.4945743-.0599003.6689649l-2.971 2.851 2.377-1.373c.2279124-.1308241.5182022-.0628918.6643976.1554793.1461953.2183711.0983971.512647-.1093976.6735207l-.345.267c.1797351-.0124486.3528265.0703013.456.218.1479706.2159246.1043595.5094276-.1.673l-.522.412c.2241548-.1060535.4921737-.0317913.6297846.1744997s.1032312.4822748-.0807846.6485003l-2.465 2.232 1.877-1.081c.2230421-.1299097.508313-.0686909.6584139.1412949.150101.2099857.1156933.4997155-.0794139.6687051l-2.015 1.748 1.438-.83c.2206356-.1300292.503851-.072325.6560244.1336626s.1241014.4936554-.0650244.6663374l-2.723 2.526 2.132-1.23c.2208953-.136633.509623-.0813788.6644625.1271591.1548394.208538.1242214.5009064-.0704625.6728409l-2.871 2.718 2.28-1.317c.2248726-.1315945.5131068-.0684479.6623629.1451111.149256.213559.1094985.5059386-.0913629.6718889l-1.464 1.218.9-.516c.2189627-.1248229.4965995-.0671571.6477436.1345378.1511442.2016949.1285371.4843546-.0527436.6594622l-2.939 2.8 2.347-1.354c.217772-.1239843.4936884-.0676117.6453756.131857.1516872.1994686.1322878.4804159-.0453756.657143l-2.473 2.435 1.875-1.082c.2071883-.1211895.4712616-.0780511.6291141.1027706.1578525.1808218.1649404.4483015.0168859.6372294l-.784 1.009.14-.08c.23893-.1358451.5427102-.0533708.6801373.1846528.137427.2380237.0569695.5423443-.1801373.6813472l-2.349 1.353c-.2068846.1189418-.4689871.0751042-.6259077-.1046854-.1569206-.1797897-.1649156-.4454126-.0190923-.6343146l.784-1.011-3.059 1.765c-.0742387.0450953-.1591495.0696021-.246.071z" fill="#2783ec"/><path id="Path" d="m43.2 52.489c-.2001363-.0003794-.3807649-.1200648-.4591294-.3042215-.0783646-.1841567-.0393655-.3973007.0991294-.5417785l1.341-1.394-2.901 1.677c-.2208144.1342809-.5075757.0781561-.6614736-.1294633s-.1242133-.4983097.0684736-.6705367l2.863-2.7-2.27 1.309c-.2230711.126215-.5054574.0633143-.6538691-.1456472-.1484117-.2089616-.1147824-.4963073.0778691-.6653528l1.896-1.624-1.319.761c-.2268147.12995-.5154475.0632557-.6622581-.1530278-.1468106-.2162836-.1022433-.50915.1022581-.6719722l.645-.512-.085.049c-.2202286.1227467-.4973928.0623225-.6465459-.1409526s-.1236267-.4857984.0595459-.6590474l2.546-2.322-1.96 1.131c-.2218647.1262356-.5031961.0650788-.6526317-.1418714-.1494355-.2069502-.1189881-.4932377.0706317-.6641286l2.259-2-1.677.968c-.2206356.1300292-.503851.072325-.6560244-.1336626s-.1241014-.4936554.0650244-.6663374l2.791-2.619-2.2 1.27c-.2201191.1211079-.4959248.0600693-.6443868-.1426092s-.1234717-.48405.0583868-.6573908l2.474-2.239-1.888 1.09c-.2203354.1244491-.4989119.0646624-.6487785-.1392378-.1498666-.2039001-.1237692-.4876223.0607785-.6607622l2.587-2.372-2 1.154c-.2269587.1282325-.5143539.0605795-.6602778-.1554298-.145924-.2160093-.1014061-.5078844.1022778-.6705702l.482-.379c-.2232298.0824571-.4736434-.0038432-.5986754-.2063221-.125032-.202479-.0900323-.4650238.0836754-.6276779l2.746-2.562-2.155 1.243c-.2266506.1274915-.5131906.0599635-.6590607-.1553189-.1458701-.2152823-.1023667-.5064398.1000607-.6696811l.543-.429c-.2284154.1205476-.5110546.0472906-.6521571-.1690318-.1411024-.2163225-.0942281-.504514.1081571-.6649682l.628-.5-.068.039c-.2206356.1300292-.503851.072325-.6560244-.1336626s-.1241014-.4936554.0650244-.6663374l2.764-2.587-2.173 1.255c-.2233144.1304087-.509223.0690136-.6593121-.1415784-.150089-.2105921-.1148283-.5008847.0813121-.6694216l2.031-1.767-1.453.839c-.2206356.1300292-.503851.072325-.6560244-.1336626s-.1241014-.4936554.0650244-.6663374l1.691-1.571-1.1.635c-.1863091.1075747-.4205437.083914-.5815757-.0587468s-.212756-.3723351-.1284243-.5702532l.643-1.509c-.2397938.0475079-.4787816-.0853354-.5650226-.3140722-.0862409-.2287368.0055532-.4862953.2170226-.6089278l1.128-.651c.1863091-.1075747.4205437-.083914.5815757.0587468s.212756.3723351.1284243.5702532l-.626 1.468 3.634-2.1c.2206356-.1300292.503851-.072325.6560244.1336626s.1241014.4936554-.0650244.6663374l-1.691 1.567 2.11-1.218c.2229237-.1277986.5064223-.0658196.6556784.1433455.1492561.2091652.11567.4974096-.0776784.6666545l-2.032 1.768 1.456-.841c.2206356-.1300292.503851-.072325.6560244.1336626s.1241014.4936554-.0650244.6663374l-2.765 2.588 2.177-1.257c.2268147-.12995.5154475-.0632557.6622581.1530278.1468106.2162836.1022433.50915-.1022581.6719722l-.626.5.067-.039c.2271272-.1307942.5167067-.0640046.6636035.1530559.1468968.2170604.1012506.5107158-.1046035.6729441l-.541.427c.221906-.1168764.4960644-.0512711.6410261.1533956s.1158678.4850601-.0680261.6556044l-2.747 2.56 2.159-1.246c.2271272-.1307942.5167067-.0640046.6636035.1530559.1468968.2170604.1012506.5107158-.1046035.6729441l-.48.378c.2236888-.0810448.4735048.006756.597302.2099289.1237971.2031729.0872838.4654396-.087302.6270711l-2.586 2.37 2-1.154c.2201191-.1211079.4959248-.0600693.6443868.1426092s.1234717.48405-.0583868.6573908l-2.473 2.239 1.889-1.091c.2207276-.1320893.5056598-.0751513.6586724.1316224.1530126.2067738.124171.4959044-.0666724.6683776l-2.792 2.617 2.2-1.271c.2218647-.1262356.5031961-.0650788.6526317.1418714.1494355.2069502.1189881.4932377-.0706317.6641286l-2.258 2 1.678-.968c.2202286-.1227467.4973928-.0623225.6465459.1409526s.1236267.4857984-.0595459.6590474l-2.543 2.327 1.96-1.131c.226507-.1291681.5142486-.0625855.6609917.1529516.1467432.2155372.103215.5076567-.0999917.6710484l-.651.517.092-.053c.2234669-.1287231.5081764-.0663691.6573848.1439733.1492085.2103425.1139612.4996608-.0813848.6680267l-1.892 1.625 1.318-.761c.2208953-.136633.509623-.0813788.6644625.1271591.1548394.208538.1242214.5009064-.0704625.6728409l-2.861 2.7 2.269-1.311c.2157843-.1245835.4903641-.0712785.6438596.1249944s.1390557.4756061-.0338596.6550056l-1.341 1.394.733-.423c.1722957-.0992932.3870539-.0870462.5469446.0311905.1598907.1182366.2345161.3199843.1900554.5138095l-.3 1.306c.1794725.0700753.3027146.2370356.3168058.4291876.0140911.1921519-.083476.3753049-.2508058.4708124l-.505.291c-.1724691.0995342-.3875585.0872401-.547563-.0312978-.1600044-.1185379-.2344176-.3207192-.189437-.5147022l.244-1.052-2.8 1.614c-.0769785.0438584-.1644261.0659796-.253.064z" fill="#f5ab01"/><path id="Path" d="m29.137 52.5c-.2102991.000244-.3982734-.1311286-.4703213-.3287011-.0720479-.1975724-.0127681-.4191102.1483213-.5542989l1.5-1.257-1.032.595c-.220007.1195261-.4945025.0578939-.6422936-.1442135-.147791-.2021073-.1233056-.4823693.0572936-.6557865l2.44-2.2-1.858 1.066c-.2219765.128183-.5049351.0677387-.6551637-.1399529-.1502285-.2076917-.1190618-.4953507.0721637-.6660471l2.313-2.06-1.731 1c-.2201191.1211079-.4959248.0600693-.6443868-.1426092s-.1234717-.48405.0583868-.6573908l2.517-2.289-1.931 1.114c-.2203354.1244491-.4989119.0646624-.6487785-.1392378-.1498666-.2039001-.1237692-.4876223.0607785-.6607622l2.609-2.398-2.017 1.164c-.2247421.1254395-.5079955.0597743-.6546194-.1517571-.1466238-.2115314-.1087109-.4998143.0876194-.6662429l1.268-1.044-.7.4c-.2244518.1286386-.5099659.0648202-.6582866-.1471407-.1483207-.211961-.1104625-.5020607.0872866-.6688593l1.538-1.287-.967.558c-.2203354.1244491-.4989119.0646624-.6487785-.1392378-.1498666-.2039001-.1237692-.4876223.0607785-.6607622l2.6-2.389-2.011 1.161c-.2159307.1231341-.4895276.0689462-.642223-.1271971-.1526954-.1961432-.1381159-.4746734.034223-.6538029l2.01-2.062-1.4.809c-.1883612.1054763-.4231479.0781489-.5822487-.0677693-.1591009-.1459182-.206583-.3774716-.1177513-.5742307l.584-1.259c-.1929675.012242-.3768949-.0831848-.478-.248-.0666188-.1149293-.0847639-.2516448-.0504306-.3799727.0343334-.1283278.1183225-.2377179.2334306-.3040273l1.128-.65c.1885623-.1059344.4238602-.0786212.5831421.0676906.1592819.1463117.206434.3784491.1168579.5753094l-.55 1.185 3.16-1.822c.2160105-.1246636.4908577-.0710795.6442199.1255968s.1383361.4762947-.0352199.6554032l-2.009 2.06 2.807-1.62c.2203354-.1244491.4989119-.0646624.6487785.1392378.1498666.2039001.1237692.4876223-.0607785.6607622l-2.6 2.388 2.014-1.162c.2244518-.1286386.5099659-.0648202.6582866.1471407.1483207.211961.1104625.5020607-.0872866.6688593l-1.54 1.289.972-.56c.2247421-.1254395.5079955-.0597743.6546194.1517571.1466238.2115314.1087109.4998143-.0876194.6662429l-1.265 1.04.7-.4c.2202286-.1227467.4973928-.0623225.6465459.1409526s.1236267.4857984-.0595459.6590474l-2.605 2.391 2.022-1.167c.2201191-.1211079.4959248-.0600693.6443868.1426092s.1234717.48405-.0583868.6573908l-2.518 2.291 1.932-1.115c.2197759-.1165123.4917776-.0537473.6382794.1472845.1465019.2010317.1229447.4791853-.0552794.6527155l-2.31 2.059 1.73-1c.220007-.1195261.4945025-.0578939.6422936.1442135.147791.2021073.1233056.4823693-.0572936.6557865l-2.441 2.2 1.86-1.074c.2244518-.1286386.5099659-.0648202.6582866.1471407.1483207.211961.1104625.5020607-.0872866.6688593l-1.49 1.267.924-.533c.2054367-.1177728.4653166-.0752838.6225485.1017834.1572318.1770673.1686914.4401483.0274515.6302166l-1.058 1.409.412-.237c.1814399-.105963.4097704-.0871848.5714604.0469978.1616899.1341825.2222385.355138.1515396.5530022l-.2.577c.0672157.0424124.1228743.1008196.162.17.1373847.2389169.0555349.543953-.183.682l-.5.291c-.1805189.1041998-.4067402.0854849-.5676816-.0469634s-.2228358-.3508411-.1553184-.5480366l.065-.186-1.371.791c-.2054367.1177728-.4653166.0752838-.6225485-.1017834-.1572318-.1770673-.1686914-.4401483-.0274515-.6302166l1.058-1.409-3.738 2.158c-.0773091.0439404-.1651.0660609-.254.064z" fill="#ec3a48"/><g fill="#262626"><path id="Shape" d="m5.646 59.433c2.56720527.1755079 5.1432609.1795169 7.711.012h42.226c.1088704.0167943.2198166.0147648.328-.006 6.893-1.111 4.816-10.2 4.816-15.322v-31.2c0-4.68 1.522-11.932-4.979-12.366-8.248-.551-16.715.004-24.975.004-7.981 0-16.119-.469-24.089 0-6.663.392-5.411 6.929-5.411 11.783v30.662c0 4.662-2.24 15.517 4.373 16.433zm50.466-.878h-43.984c-1.628 0-4.227.522-5.79 0-4.173-1.4-3.611-4.3-3.611-7.621v-38.757c0-.76-.087-1.681-.162-2.637h56.708v39.684c0 2.642 1.066 8.625-3.161 9.331zm-33.388-50.205c-1.484-4.45 6.933-3.015 9.019-3.015 1.7551554-.14950399 3.5198446-.14950399 5.275 0 1.972.36 2.221 1.538 2.252 3.125h-16.526c-.0028355-.03726083-.0095382-.07412576-.02-.11zm-20-3.2c1.893-6.05 12.135-3.705 16.864-3.705h27.754c2.447 0 5.327-.415 7.748 0 4.07.7 4.183 3.071 4.183 6.065v.95h-18.55c-.014-2.1-.21-3.455-2.6-3.8-2.612-.371-5.581 0-8.213 0-2 0-4.607-.436-6.568.176-1.89.591-2.056 1.987-2.067 3.619h-18.781c-.10802812-1.10594521-.02926265-2.22218372.233-3.302z"/><path id="Path" d="m5.694 5.32h1c.35634802.01110271.70295205-.11734889.966-.358.178-.263-.155-.282-.354-.282h-1c-.35634802-.01110271-.70295205.11734889-.966.358-.178.262.16.282.354.282z"/><path id="Path" d="m10.526 5.28h1c.3600704.00379101.7142727-.09133169 1.024-.275.212-.139.219-.285-.076-.285h-1c-.3605444-.00228034-.7147797.09458089-1.024.28-.212.134-.219.28.076.28z"/><path id="Path" d="m15.721 5.421h1c.3641496.02808734.7195662-.12077828.955-.4.163-.289-.139-.442-.4-.442h-1c-.3641496-.02808734-.7195662.12077828-.955.4-.16.289.142.442.4.442z"/><path id="Path" d="m51.724 5.434h4c.287 0 .829-.093.954-.405.119-.3-.1-.463-.4-.463h-4c-.287 0-.829.093-.954.405-.124.296.1.463.4.463z"/><path id="Shape" d="m47.724 51.641v-16.307c0-2.412 1.619-12.493-1.134-13.633-.0705224-.0216813-.1449691-.0274868-.218-.017-.026 0-.037-.007-.067-.007-1.924 0-5.095-.754-6.022 1.441-.3727226 1.4801219-.4363802 3.0211805-.187 4.527-1.408-.049-4.324-.569-5.37.582-.866.952-.552 3.112-.469 4.455-1.4089036-.1550506-2.8299804-.1654381-4.241-.031.246-3.187.326-7.085-1.334-7.954-.038-.089-.16-.15-.411-.15-1.973 0-4.964-.733-5.952 1.413-.2096648.5441853-.3115542 1.1239361-.3 1.707-1.433-.064-4.264-.541-5.29.581-.982 1.073-.456 3.664-.456 4.912v18.569c-.9148436.0745574-1.8345326.0668599-2.748-.023-.0794786-1.1646344-.0533721-2.3340726.078-3.494.093535-.1458583.1048861-.3297454.03-.486.048-.763.088-1.415.088-1.7v-31.22c0-.355-1.448-.113-1.448.388v2.344h-1.005c-.3679446-.0358234-.7280774.1220897-.951.417-.15.3.13.507.415.507h1.544v5.266h-.8c-.3594115-.0017216-.7128179.092152-1.024.272-.215.137-.22.27.072.27h1.752v5.281h-1c-.3663797-.0325669-.724441.1220163-.952.411-.155.293.133.483.408.483h1.548v4.995h-1.22c-.848 0-1.093 1.12-.112 1.12h1.332v4.994h-1c-.3662134-.0311243-.7237764.1227065-.953.41-.156.294.133.482.407.482h1.549v4.993h-1.22c-.849 0-1.093 1.122-.112 1.122h1.332v3.633c0 .16.341.165.428.165h3.571v1.731c0 .6 1.45.3 1.45-.18v-1.551h4.546v1.713c0 .688 1.458.425 1.458-.144v-1.475h4.547v1.741c0 .35 1.448.109 1.448-.388v-1.447h4.552v1.835c0 .408 1.448.148 1.448-.388v-1.447h4.552v1.835c0 .246 1.448.038 1.448-.388v-1.447h4.552v1.835c0 .329 1.448.095 1.448-.388v-1.447h1.969c.479 0 1.56-.718.592-.718zm-6-28.555c.651-1.188 2.256-.818 3.707-.772 1.464.643.845 3.517.845 4.693v24.634h-4.276c-.453-.282-.146.005-.28-1.306v-11.935c0-1.671.816-6.6 0-9.19v-2.926c.004-.72-.348-2.555.004-3.198zm-6 5.772c.562-.887 2.511-.566 3.724-.52.4023748.2456499.6902756.6415134.8 1.1.017.254.028.492.028.7v21.503h-4.476c.0246188-.2110841-.0014346-.424996-.076-.624v-9.705c0-1.48.636-5.051 0-7.141v-3.095c0-.463-.239-1.839 0-2.218zm-2.307 4.442c.4452109.2525299.7586958.6860806.859 1.188v17.153h-4.489c-.0112876-.0621097-.0311438-.1223515-.059-.179v-15.026c0-.652.124-1.819.238-3.167.579-.315 2.57-.035 3.451.031zm-5.859-7.85c1.444.844.714 4.806.714 6.081v2.735c-.088094.8767928-.088094 1.7602072 0 2.637v5.148c0 2.461-.8 6.5 0 8.854v.016.719h-3.879c-.124956-.0167881-.247479-.0483419-.365-.094-.065909-.0312619-.1349669-.0553987-.206-.072-.0130269-.1764761-.0445327-.3510986-.094-.521 0-.008 0-.018 0-.026v-3.18c0-.024 0-.054 0-.078v-9.38c.029-1.758.793-6.524 0-9.062v-1.093c0-3.06.826-2.698 3.83-2.683zm-9.834 3.407c.614-.9 2.44-.59 3.706-.546.2714788.1392732.4894132.3642377.62.64.072 1.1.222 2.222.222 3v19.69h-3.195c-.233 0-.7.015-1.276.035.0299384-.2226486.0034613-.4492509-.077-.659-.793-2.537 0-6.641 0-9.278v-10.663c0-.442-.239-1.867 0-2.218z"/></g></g></svg>