<svg height="512" viewBox="0 0 64 64" width="512" xmlns="http://www.w3.org/2000/svg"><path d="m58 28h-3a1 1 0 0 0 -1 1v5h-3v-15a1 1 0 0 0 -1-1h-2v-5a1 1 0 0 0 -1-1h-1v-5a1 1 0 0 0 -1-1h-2v-3a1 1 0 0 0 -2 0v3h-2a1 1 0 0 0 -1 1v5h-1a1 1 0 0 0 -1 1v5h-2a1 1 0 0 0 -1 1v3h-2v-3a1 1 0 0 0 -1-1h-1v-3a1 1 0 0 0 -2 0v3h-1a1 1 0 0 0 -1 1v24a1 1 0 0 0 2 0v-19h6v19a1 1 0 0 0 2 0v-3h3v3a1 1 0 0 0 2 0v-3h4v3a1 1 0 0 0 2 0v-7h3v7a1 1 0 0 0 2 0v-7h3v19a1 1 0 0 0 1 1h3a2 2 0 0 1 0 4h-44v-5.411a1 1 0 0 0 -2 0v6.411a1 1 0 0 0 1 1h45a4 4 0 0 0 4-4v-26a4 4 0 0 0 -4-4zm-31-6v-2h2v2zm13 10h4v2h-4zm0-2v-2h4v2zm-5-2h3v2h-3zm9-8v2h-4v-2zm-4 4h4v2h-4zm6 0h3v6h-3zm3-2h-3v-2h3zm-5-4v-4h2v4zm-4-10h4v4h-4zm-2 6h4v4h-4zm-3 6h3v6h-3zm0 18v-6h3v6zm9 0h-4v-2h4zm2-6h3v2h-3zm12 22h-2v-24h2a2 2 0 0 1 2 2v22.537a3.97 3.97 0 0 0 -2-.537z"/><path d="m21.3 36h.7a1 1 0 0 0 0-2h-.7a1 1 0 0 0 0 2z"/><circle cx="30" cy="27" r="1"/><circle cx="30" cy="31" r="1"/><circle cx="30" cy="35" r="1"/><circle cx="30" cy="39" r="1"/><path d="m13.251 50.19a1.006 1.006 0 0 0 .249.387l6.494 6.149a1 1 0 0 0 .688.274h29.318a1 1 0 0 0 1-1v-8a1 1 0 0 0 -2 0v2.09a6.008 6.008 0 0 0 -4.91 4.91h-7.09v-7a1 1 0 0 0 -1-1h-6a1 1 0 0 0 -1 1v7h-7.2l.894-7.771a.993.993 0 0 0 -.106-.562l-8.84-24.326-1.368-3.758-.68-1.883a5 5 0 1 0 -9.4 3.419l2.055 5.641 2.554 7.016a1 1 0 0 0 1.879-.683l-2.212-6.077 1.88-.684 8.208 22.553-1.891.688-4.617-12.721a1 1 0 1 0 -1.88.683l4.958 13.665zm35.749 1.936v2.874h-2.873a4.015 4.015 0 0 1 2.873-2.874zm-18-3.126h4v2h-1a1 1 0 0 0 0 2h1v2h-4zm-25.025-33.407a3 3 0 0 1 3.845 1.793l.342.94-5.638 2.052-.342-.94a3 3 0 0 1 1.793-3.845zm-.083 8.544-.684-1.879 5.638-2.052.684 1.879zm4.443.511 1.879-.684 8.2 22.557-1.868.68zm10.191 23.959-.609 5.293-3.868-3.662z"/></svg>