<svg height="512" viewBox="0 0 60 60" width="512" xmlns="http://www.w3.org/2000/svg"><g id="005---Dependencies" fill="none"><path id="Path" d="m19.267 15.471c-.2197801.0002798-.4139741-.1429906-.47856-.3530669-.0645858-.2100763.0155818-.4376964.19756-.5609331l8.942-6.045-11.869 6.852c-.2322938.1351768-.5298928.0625367-.6737842-.164462-.1438914-.2269988-.0825928-.5271392.1387842-.679538l9.964-6.883-11.509 6.644c-.2321092.1290838-.5246372.0541763-.6661393-.170578-.1415021-.2247542-.0825963-.5209195.1341393-.674422l7.891-5.394-8.011 4.625c-.2319831.1309881-.5259285.0570795-.6683699-.1680527-.1424414-.2251321-.0833463-.52241.1343699-.6759473l6.062-4.188-5.575 3.219c-.1514806.0946754-.3419632.1013451-.4996948.0174967-.1577316-.0838483-.258749-.2454762-.265-.424-.006251-.1785237.0832142-.3468213.2346948-.4414967l2.171-1.467-1.642.948c-.2325262.13076655-.5267591.05595091-.6685809-.17000241s-.0812744-.52345026.1375809-.67599759l.5-.342c-.2344058.11570568-.5183764.03132077-.6515563-.19361702-.1331799-.22493778-.0706132-.5144986.1435563-.66438298l.411-.287c-.222763.05728667-.4558709-.04479146-.5648484-.24734762-.1089776-.20255616-.0657076-.45332883.1048484-.60765238l2.746-2.479-2.158 1.246c-.2048731.11830729-.4646227.07683536-.6224712-.09938451-.1578485-.17621986-.1705878-.43895068-.0305288-.62961549l1.2-1.633c-.243208.07348985-.5028626-.04709741-.6036238-.28033138s-.0105895-.50495234.2096238-.63166862l1.932-1.117c.2049252-.11944322.4655702-.0784693.6239635.09808832.1583932.17655761.1709402.4401051.0300365.63091168l-1.179 1.607 4.182-2.411c.2198926-.1179958.4931214-.05578869.6402596.14577049.1471382.20155917.1231296.48074963-.0562596.65422951l-2.741 2.478 5.684-3.278c.2318603-.13306172.527371-.0602043.6708066.16538571.1434357.22559001.0840493.52409963-.1348066.67761429l-.241.168 1.757-1.011c.2325262-.13076655.5267591-.05595091.6685809.17000241s.0812744.52345026-.1375809.67599759l-.486.33 2.033-1.176c.2329673-.1327691.5291919-.0581284.6714287.16918215.1422368.22731056.0798406.52635392-.1414287.67781785l-2.171 1.464 4.008-2.311c.2319831-.1309881.5259285-.05707946.6683699.16805269.1424414.22513216.0833463.52241-.1343699.67594731l-6.064 4.19 8.719-5.034c.2324067-.13284986.5282158-.05908515.6710333.16733285s.0819688.52515148-.1380333.67766715l-7.89 5.393 10.805-6.238c.2319831-.1309881.5259285-.05707946.6683699.16805269.1424414.22513216.0833463.52241-.1343699.67594731l-9.962 6.879 13.383-7.723c.2329673-.1327691.5291919-.0581284.6714287.16918215.1422368.22731056.0798406.52635392-.1414287.67781785l-8.94 6.045 11.936-6.892c.2329673-.1327691.5291919-.0581284.6714287.16918215.1422368.22731056.0798406.52635392-.1414287.67781785l-8.954 6.053 10.806-6.24c.2343611-.12889229.5286543-.05052268.6678755.17785371.1392213.22837639.0740613.52587341-.1478755.67514629l-3.108 2 3.367-1.945c.2327102-.14159719.5359455-.07085834.6819808.15909275.1460353.2299511.0811265.5344876-.1459808.68490725l-8.179 5.711 8.039-4.641c.2299138-.13282353.5235501-.06277315.6687427.15953646.1451926.2223096.0912979.51933596-.1227427.67646354l-6.858 5.023 6.313-3.641c.2295527-.13149209.521805-.0614183.6667704.15987256.1449654.22129087.0924688.51720615-.1197704.67512744l-3.963 2.92 3.416-1.975c.2226556-.12737455.5055829-.06559282.6548741.14300234s.1165111.49632815-.0758741.66599766l-3.537 3.094 2.958-1.708c.217772-.1239843.4936884-.0676117.6453756.131857.1516872.1994686.1322878.4804159-.0453756.657143l-1.541 1.52.832-.48c.1547852-.0907422.3463247-.0915917.5019087-.0022259.155584.0893657.2513568.2552442.2509624.4346667-.0003945.1794226-.0968957.3448784-.2528711.4335592l-4.212 2.43c-.217772.1239843-.4936884.0676117-.6453756-.131857-.1516872-.1994686-.1322878-.4804159.0453756-.657143l1.542-1.521-4 2.31c-.2226556.1273746-.5055829.0655928-.6548741-.1430023-.1492912-.2085952-.1165111-.4963282.0758741-.6659977l3.537-3.091-6.76 3.9c-.2295527.1314921-.521805.0614183-.6667704-.1598726-.1449654-.2212908-.0924688-.5172061.1197704-.6751274l3.963-2.92-6.5 3.755c-.2299138.1328235-.5235501.0627731-.6687427-.1595365s-.0912979-.5193359.1227427-.6764635l6.857-5.023-10.157 5.859c-.2318603.1330617-.527371.0602043-.6708066-.1653857-.1434357-.22559-.0840493-.5240996.1348066-.6776143l8.18-5.711-11.354 6.554c-.2343611.1288923-.5286543.0505227-.6678755-.1778537-.1392213-.2283764-.0740613-.5258734.1478755-.6751463l3.12-2.003-4.953 2.856c-.2329673.1327691-.5291919.0581284-.6714287-.1691822-.1422368-.2273105-.0798406-.5263539.1414287-.6778178l8.949-6.051-11.949 6.898c-.0757492.0449857-.1619133.0694563-.25.071z" fill="#f33a4d"/><path id="Path" d="m21.613 37.471c-.2211793-.0003689-.4158354-.1460121-.4786071-.3580972-.0627717-.2120852.0212583-.4402122.2066071-.5609028l5.559-3.615-7.735 4.463c-.2318412.125947-.5216461.0500755-.6620287-.1733204-.1403825-.223396-.0830243-.5174256.1310287-.6716796l9.286-6.315-12.22 7.053c-.2334461.1352991-.5321345.0609722-.6749447-.1679561-.1428102-.2289282-.0782242-.5298733.1459447-.6800439l8.438-5.674-9.608 5.547c-.232368.1256461-.5223842.0488566-.6621282-.1753162-.1397441-.2241727-.0809951-.5183743.1341282-.6716838l6.8-4.559-6.9 3.984c-.2330829.1306613-.5277074.0549657-.6689423-.1718661-.1412349-.2268319-.0791592-.5246238.1409423-.6761339l4.755-3.192-4.32 2.494c-.2324067.1328499-.5282158.0590851-.6710333-.1673329s-.0819688-.5251514.1380333-.6776671l3.8-2.605-3.267 1.884c-.2322377.1273115-.5234633.0514462-.664069-.1729923-.1406056-.2244384-.0818101-.5195841.134069-.6730077l.839-.569-.31.178c-.2262036.1284409-.5131028.0619842-.6597948-.1528333-.1466919-.2148176-.1041677-.5062269.0977948-.6701667l3.728-2.992-3.166 1.828c-.2253151.1304911-.5130605.0662242-.6614447-.1477312-.1483843-.2139555-.1077334-.5059746.0934447-.6712688l1.554-1.282-.986.569c-.2052485.117948-.4650826.0757972-.6225191-.1009864-.1574365-.1767835-.1693242-.4397458-.0284809-.6300136l1.177-1.588c-.2419923.0622564-.4927938-.063694-.5873741-.2949746-.0945804-.2312805-.0038993-.4968777.2123741-.6220254l1.934-1.117c.2053026-.1190853.4660343-.0774312.6240153.0996916.1579809.1771228.1696738.4409018.0279847.6313084l-1.15 1.551 4.088-2.36c.2253151-.1304911.5130605-.0662242.6614447.1477312.1483843.2139555.1077334.5059746-.0934447.6712688l-1.553 1.284 3.639-2.1c.2263606-.1309251.5153721-.0653166.6630162.1505114.1476442.2158279.1040467.5089685-.1000162.6724886l-3.728 2.991 6.607-3.814c.2322377-.1273115.5234633-.0514462.664069.1729923.1406056.2244384.0818101.5195841-.134069.6730077l-.832.565 2.444-1.411c.2327682-.1379387.5330334-.0656905.677577.1630348s.0809181.5309351-.143577.6819652l-3.8 2.609 5.979-3.454c.2334461-.1352991.5321345-.0609722.6749447.1679561.1428102.2289282.0782242.5298733-.1459447.6800439l-4.755 3.192 7-4.04c.2330829-.1306613.5277074-.0549657.6689423.1718661.1412349.2268319.0791592.5246238-.1409423.6761339l-6.802 4.552 9.367-5.4c.1514806-.0946754.3419632-.1013451.4996948-.0174967.1577316.0838483.258749.2454762.265.424.006251.1785237-.0832142.3468213-.2346948.4414967l-8.437 5.673 11.295-6.521c.2333681-.1382671.5344194-.0652417.6785003.1645824.144081.2298241.078635.5326135-.1475003.6824176l-9.284 6.315 12.4-7.162c.2355494-.1441463.5433537-.0700494.6875.1655s.0700494.5433537-.1655.6875l-5.561 3.614 7.232-4.175c.2334461-.1352991.5321345-.0609722.6749447.1679561.1428102.2289282.0782242.5298733-.1459447.6800439l-8.163 5.489 8.907-5.142c.2335451-.1328438.5303244-.0573638.6720248.1709163s.0776546.5277351-.1450248.6780837l-5.69 3.79 5.6-3.232c.2321092-.1290838.5246372-.0541763.6661393.170578.1415021.2247542.0825963.5209195-.1341393.674422l-5.342 3.655 4.824-2.786c.2301583-.1366689.5271246-.067833.6736831.1561577s.0907153.5236721-.1266831.6798423l-5.494 4.056 4.944-2.854c.2304184-.1322364.5240189-.0611893.6684864.1617642.1444674.2229535.0893536.5199576-.1254864.6762358l-2.208 1.6 1.665-.962c.220007-.1195261.4945025-.0578939.6422936.1442135.147791.2021073.1233056.4823693-.0572936.6557865l-2.933 2.644 2.348-1.354c.2205392-.1280792.5021318-.0696485.6535046.1356028.1513729.2052513.124009.4915375-.0635046.6643972l-.765.71.026-.014c.1549945-.0985297.351531-.1041539.5119064-.0146489.1603754.0895049.2587712.2597296.2562855.4433739s-.1054527.3511436-.2681919.436275l-3.865 2.227c-.2205392.1280792-.5021318.0696485-.6535046-.1356028-.1513729-.2052513-.124009-.4915375.0635046-.6643972l.765-.711-2.615 1.511c-.220007.1195261-.4945025.0578939-.6422936-.1442135-.147791-.2021073-.1233056-.4823693.0572936-.6557865l2.932-2.644-5.972 3.444c-.2304184.1322364-.5240189.0611893-.6684864-.1617642-.1444674-.2229535-.0893536-.5199576.1254864-.6762358l2.206-1.595-4.217 2.433c-.2295527.1314921-.521805.0614183-.6667704-.1598726-.1449654-.2212908-.0924688-.5172061.1197704-.6751274l5.485-4.05-8.464 4.885c-.2321092.1290838-.5246372.0541763-.6661393-.170578-.1415021-.2247542-.0825963-.5209195.1341393-.674422l5.344-3.655-7.8 4.5c-.2327769.1270897-.524286.0503218-.6642741-.174934-.139988-.2252559-.0797468-.5206233.1372741-.673066l5.689-3.79-8.031 4.638c-.23265.1288599-.5254615.0530472-.6663444-.1725252s-.0805297-.5219566.1373444-.6744748l8.162-5.489-10.975 6.336c-.0756184.0452887-.1618652.0697828-.25.071z" fill="#ffa334"/><path id="Path" d="m30.228 59.471c-.2206238.0007131-.4156381-.1432606-.4799214-.3543127-.0642834-.2110521.0173603-.4392917.2009214-.5616873l4.033-2.7-6.138 3.545c-.2341443.133112-.5316521.0568382-.672871-.1725078-.1412189-.2293459-.075396-.5293391.148871-.6784922l3.524-2.3-5.454 3.151c-.2324067.1328499-.5282158.0590851-.6710333-.1673329s-.0819688-.5251514.1380333-.6776671l9.184-6.279-12.341 7.124c-.2337734.1287456-.5274505.051198-.667188-.1761759-.1397374-.2273739-.07627-.5244122.144188-.6748241l5.889-3.838-8.122 4.689c-.2329061.1254293-.5232086.0477402-.6623373-.1772508s-.0789338-.5194187.1373373-.6717492l7.256-4.8-9.685 5.6c-.2343611.1288923-.5286543.0505227-.6678755-.1778537-.1392213-.2283764-.0740613-.5258734.1478755-.6751463l4.43-2.853-5.4 3.119c-.233204.1287421-.5263939.0520483-.6666872-.1743946-.1402933-.226443-.0784231-.5231151.1406872-.6746054l6.808-4.526-7.26 4.191c-.2318603.1330617-.527371.0602043-.6708066-.1653857-.1434357-.22559-.0840493-.5240996.1348066-.6776143l7.864-5.5-7.57 4.363c-.2298251.1278768-.5194281.0558458-.6625685-.1647961s-.0908781-.5144564.1195685-.6722039l6.163-4.458-5.619 3.244c-.2304184.1322364-.5240189.0611893-.6684864-.1617642-.1444674-.2229535-.0893536-.5199576.1254864-.6762358l3.349-2.427-2.808 1.616c-.2293391.1285228-.5190351.0574922-.6629121-.1625395s-.0927858-.5139004.1169121-.6724605l1.472-1.083-.926.535c-.2234669.1287231-.5081764.0663691-.6573848-.1439733-.1492085-.2103425-.1139612-.4996608.0813848-.6680267l1.831-1.574-1.255.723c-.2060643.1206683-.4686948.0787814-.627-.1-.1572135-.1805847-.164342-.4472746-.017-.636l1.087-1.394c-.1924061.013399-.3760163-.0824649-.475-.248-.1380647-.2391402-.0561341-.5449248.183-.683l1.934-1.116c.2071345-.1199808.4702483-.0763218.6275319.1041276s.1646077.4470602.0174681.6358724l-1.009 1.293 3.659-2.11c.2230711-.126215.5054574-.0633143.6538691.1456472.1484117.2089616.1147824.4963073-.0778691.6653528l-1.835 1.572 4.138-2.383c.2293391-.1285228.5190351-.0574922.6629121.1625395s.0927858.5139004-.1169121.6724605l-1.476 1.086 3.329-1.921c.2301828-.1290216.5210052-.0569569.6643125.1646141.1433073.2215711.0897614.5163656-.1223125.6733859l-3.339 2.42 5.645-3.258c.2304184-.1322364.5240189-.0611893.6684864.1617642.1444674.2229535.0893536.5199576-.1254864.6762358l-6.163 4.462 9.183-5.3c.2311923-.1280141.5220815-.054013.6639947.1689178.1419132.2229309.0858401.5178012-.1279947.6730822l-7.865 5.5 10.981-6.342c.2324996-.1240701.5213839-.0463844.6602955.1775644.1389116.2239487.0801563.5172694-.1342955.6704356l-6.811 4.529 9.316-5.377c.2338963-.1269547.5262491-.04845.6650871.1785941.1388379.227044.0755015.5230536-.1440871.6734059l-4.412 2.848 6.405-3.7c.2329061-.1254293.5232086-.0477402.6623373.1772508s.0789338.5194187-.1373373.6717492l-7.261 4.8 9.783-5.649c.2337734-.1287456.5274505-.051198.667188.1761759.1397374.2273739.07627.5244122-.144188.6748241l-5.886 3.836 7.694-4.441c.2321092-.1290838.5246372-.0541763.6661393.170578.1415021.2247542.0825963.5209195-.1341393.674422l-9.182 6.277 10.048-5.8c.1521951-.0936036.3427662-.0989017.4999268-.0138987.1571607.0850031.2570345.2473934.262.426.0049655.1786067-.0857317.3462951-.2379268.4398987l-3.53 2.3 3.366-1.942c.2340027-.1389988.5362016-.0652981.6799386.1658244s.0762078.5347601-.1519386.6831756l-4.024 2.689 3.535-2.041c.2314518-.1313128.5252013-.0583356.6682918.1660259.1430904.2243616.0853808.5214879-.1312918.6759741l-4.486 3.146 3.95-2.28c.2305507-.1302945.5227069-.0582293.6662193.1643342.1435123.2225634.0886.5184238-.1252193.6746658l-2.836 2.028 2.295-1.324c.2274132-.1273482.5145055-.05864.6596263.1578646.1451209.2165046.0995839.5081708-.1046263.6701354l-2.382 1.838 1.827-1.055c.217772-.1239843.4936884-.0676117.6453756.131857.1516872.1994686.1322878.4804159-.0453756.657143l-2.082 2.045 1.447-.834c.216466-.1248481.4918692-.0707117.6449718.1267831s.1368886.4776996-.0379718.6562169l-.7.719c.1681887.0793559.2784387.2455001.2862069.4313077s-.0882289.3605747-.2492069.4536923l-2.13 1.229c-.216466.1248481-.4918692.0707117-.6449718-.1267831s-.1368886-.4776996.0379718-.6562169l.148-.151-1.7.983c-.217772.1239843-.4936884.0676117-.6453756-.131857-.1516872-.1994686-.1322878-.4804159.0453756-.657143l2.081-2.044-4.915 2.831c-.2274132.1273482-.5145055.05864-.6596263-.1578646-.1451209-.2165046-.0995839-.5081708.1046263-.6701354l2.386-1.841-4.624 2.669c-.2305507.1302945-.5227069.0582293-.6662193-.1643342-.1435123-.2225634-.0886-.5184238.1252193-.6746658l2.827-2.025-4.964 2.864c-.2310609.1298083-.523268.0567757-.6660866-.1664779-.1428185-.2232536-.086628-.5191613.1280866-.6745221l4.484-3.145-6.9 3.986c-.0767866.0459723-.1645049.070492-.254.071z" fill="#8ad256"/><path id="Path" d="m6.14 11.927c-.21174874.0002685-.4007056-.1328752-.47169672-.3323692-.07099111-.199494-.0086206-.422074.15569672-.5556308l.853-.7-.4.23c-.2192992.1267613-.49874674.069504-.65052221-.1332884-.15177546-.2027924-.12792456-.48704665.05552221-.6617116l1.387-1.319-.79.456c-.21777199.12398428-.49368841.06761168-.64537559-.13185696-.15168719-.19946865-.13228783-.48041599.04537559-.65714304l.507-.5c-.21544596.0721025-.45242039-.01011093-.57692133-.20015104-.12450094-.19004012-.10522768-.44012905.04692133-.60884896l.336-.375c-.17536677-.01145234-.33184588-.11413057-.41215555-.27044761s-.07265741-.34331964.02015555-.49255239l.316-.5c-.17180549-.07655874-.28611012-.2430586-.29581873-.43089926-.00970862-.18784065.08682156-.36523759.24981873-.45910074l1.05-.606c.1992437-.11625075.45215683-.08110618.61215551.08506456.15999867.16617073.18554983.42023239.06184449.61493544l-.078.121.509-.294c.21286205-.1227709.48338312-.07266974.63816022.11818884s.14792666.46589466-.01616022.64881116l-.152.169.552-.318c.21809635-.12577812.49569476-.06977641.64796984.13071911s.13172419.48293973-.04796984.65928089l-.476.469 1-.578c.219385-.13425453.5048344-.08016882.6599003.12503505s.1291551.4945743-.0599003.66896495l-1.389 1.328 2.2-1.268c.2259084-.13195581.5153456-.06745042.6638412.14794688.1484956.21539729.1058364.50885096-.0978412.67305312l-.853.7 1.277-.738c.1547852-.09074219.3463247-.09159165.5019087-.00222593s.2513568.25524423.2509624.43466678c-.0003945.17942254-.0968957.34487836-.2528711.43355915l-6.682 3.852c-.07600837.0438886-.16223051.0669961-.25.067z" fill="#79818f"/><path id="Path" d="m6.712 56.406c-.20038131-.0003954-.38117193-.1203838-.45936944-.3048777-.07819751-.1844938-.03869585-.3978529.10036944-.5421223l2.524-2.608-2.6 1.5c-.21279209.1213918-.48219801.0707276-.63635486-.1196723-.15415686-.1903998-.14765626-.4644512.01535486-.6473277l1.8-1.995-1.182.682c-.20600316.1172655-.46603546.0737671-.62265873-.1041589-.15662326-.177926-.16678857-.4413754-.02434127-.6308411l.913-1.2-.267.153c-.19485089.1121182-.44057126.0804111-.60057866-.0774971-.16000739-.1579082-.19495663-.4031884-.08542134-.5995029l.4-.714c-.19500856-.0530044-.33893824-.2181845-.3647575-.418612s.07154879-.3966918.2467575-.497388l1.05-.605c.19485089-.1121182.44057126-.0804111.60057866.0774971.16000739.1579082.19495663.4031884.08542134.5995029l-.257.46.852-.492c.20513354-.1220371.46818423-.079949.625.1.1573829.1786186.16700481.4434305.023.633l-.915 1.2 1.774-1.024c.21307572-.122757.4837819-.0723545.6383991.1188629.1546171.1912173.1472392.4664769-.0173991.6491371l-1.798 2.001 2.942-1.7c.2157055-.1230645.4890446-.0691582.6418764.1265869.1528317.1957451.1388315.4739971-.0328764.6534131l-2.523 2.606 3.07-1.773c.1549945-.0985297.351531-.1041539.5119064-.0146489.1603754.0895049.2587712.2597296.2562855.4433739s-.1054527.3511436-.2681919.436275l-6.166 3.561c-.07580312.044382-.16216154.067526-.25.067z" fill="#79818f"/><path id="Path" d="m52.414 34.267c-.1801031.0000378-.3463095-.0967885-.4351078-.2534792s-.0864652-.3490301.0061078-.5035208l.566-.945-1.324.765c-.2053026.1190853-.4660343.0774312-.6240153-.0996916-.1579809-.1771228-.1696738-.4409018-.0279847-.6313084l1.549-2.081-2.838 1.638c-.2167987.1191224-.4881174.0618073-.638215-.1348206s-.1338516-.473458.038215-.6511794l2.207-2.205-3.286 1.9c-.2277686.1327124-.5194462.0657934-.6665848-.1529333s-.0991876-.5141157.1095848-.6750667l.326-.255c-.2460341.0722224-.5068237-.053379-.6037404-.2907732-.0969166-.2373942.0014573-.5096249.2277404-.6302268l5.932-3.425c.2272713-.1290292.5155715-.0612656.6615658.155498.1459944.2167636.1004262.5093938-.1045658.671502l-.221.174.417-.241c.217123-.1206668.4899085-.063641.6405105.1338986s.1333491.4756874-.0405105.6531014l-2.205 2.206 1.641-.948c.2054918-.1189109.4662705-.0769181.6240467.1004892.1577761.1774073.1690395.4413052.0269533.6315108l-1.549 2.081.9-.519c.1972453-.1130462.4459251-.0787945.6052651.0833656.1593399.1621602.1892239.4114026.0727349.6066344l-.578.965c.2231276-.0674145.4634401.0263156.582.227.1382327.2388784.0567713.5445824-.182.683l-1.558.9c-.0761146.0445097-.1628291.0676566-.251.067z" fill="#79818f"/><g fill="#262626"><path id="Path" d="m18.288 4.611h-1c-.3619073-.02119386-.7141244.12167628-.959.389-.173.283.148.392.383.392h1c.3623905.02043555.7146865-.12356866.959-.392.173-.28-.148-.389-.383-.389z"/><path id="Path" d="m31.059 4.45h-9c-.841 0-1.1 1.1-.118 1.1h9c.841 0 1.1-1.1.118-1.1z"/><path id="Path" d="m16.942 27.555h1c.845 0 1.1-1.11.116-1.11h-1c-.845 0-1.097 1.11-.116 1.11z"/><path id="Path" d="m21.529 27.29h9c.3 0 1.636-.58.942-.58h-9c-.302 0-1.636.58-.942.58z"/><path id="Path" d="m16.933 49.521h1c.31 0 .764-.239.8-.579.041-.377-.387-.463-.666-.463h-1c-.31 0-.764.239-.8.579-.041.377.387.463.666.463z"/><path id="Path" d="m21.945 49.566h9c.853 0 1.09-1.132.11-1.132h-9c-.855 0-1.09 1.132-.11 1.132z"/><path id="Shape" d="m5.271 52.356v2.033c0 .723-.059 1.452.666 1.878 1.49.875 3.906-1.276 5.063-1.976.247-.149.588-.333.944-.544.05 1.913.372 3.768 1.311 4.7 1.459 1.44 4.283.977 6.122.977h24.344c.0630145-.0021419.1255075-.0122214.186-.03.0647034-.0000861.1292778-.005774.193-.017 3.637-.734 3.625-3.281 3.625-6.47 0-2.925.939-7.2-2.7-8.186-2.054-.559-4.625-.137-6.715-.137h-13.867c-4.3 0-11.4-1.645-12.168 4.1-.052.391-.112.881-.167 1.428-1.293-.848-2.738-1.56-4.035-2.345-.02899522-.0123003-.05914424-.02168-.09-.028-.019-.009-.025-.02-.046-.028-.96552064-.4182459-2.09014091-.0198065-2.577.913-.15832272.7451128-.1884208 1.5117684-.089 2.267v.73c-1.751-.084-3.143-.53-3.547-2.871-.06550291-.8120145-.06550291-1.6279855 0-2.44v-9.61c0-2.989-.336-5.736 3.388-6.339 2.27440618-.2080923 4.56287747-.2121083 6.838-.012-.078 2.354.138 4.947 1.311 6.113 1.473 1.464 4.267 1 6.129 1h24.344c.0411344-.0034073.0819308-.0100952.122-.02.0867761.0036057.1736791-.0027694.259-.019 3.356-.678 3.595-2.949 3.612-5.8l.209.121c1.2.728 2.384 1.529 3.623 2.193.872122.5295321 1.9866039.4340975 2.756-.236.653-.641.409-1.882.409-2.715 0-.242.009-.492.017-.741 2.37-.086 4.493-.592 4.983-3.45.566-3.3 0-7.189 0-10.532 0-2.8.964-7.491-2.541-8.422-2.847-.756-6.465-.169-9.433-.134.094-2.55.5-5.831-2.247-6.986-1.939-.816-5-.258-6.989-.258h-13.354c-4.892 0-12.542-1.861-12.894 4.832-.013.247-.034.53-.058.833-1.318-.872-2.815-1.602-4.145-2.408-.016-.009-.036-.009-.053-.017-.02772726-.02049507-.05716957-.03856195-.088-.054-.968745-.44978232-2.11873876-.03005698-2.57.938-.15120102.7487291-.18024307 1.51699257-.086 2.275v.755h-3.977c-.509 0-1.55.766-.578.766h4.555v1.982c0 .745-.046 1.483.681 1.937 1.516.945 3.979-1.286 5.164-2 .246-.149.566-.328.9-.53 0 1.9.266 3.793 1.31 4.768 1.562 1.461 4.334.989 6.271.989h24.343c.1098572-.0008576.2185144-.0229286.32-.065 3.748-.824 3.479-3.773 3.479-7.022 0-.061 0-.126 0-.189 2.1250632-.13778943 4.2570817-.12943644 6.381.025 3.953.451 4.158 2.552 4.158 5.755 0 3.9 2.127 15.3-3.518 15.677.0634246-.9257402.0520544-1.8550886-.034-2.779-.173-1.384-1.392-1.387-2.485-.968-.1027962.0367694-.201091.0850781-.293.144h-.01l-2.905 1.758c-.328.2-.775.408-1.213.644.09-2.487-.077-5.073-2.8-5.833-2.051-.571-4.629-.145-6.718-.145h-13.867c-4.336 0-11.4-1.653-12.159 4.134-.1.73-.221 1.786-.288 2.95-2.62054711-.1846805-5.2512521-.1726468-7.87.036-3.166.4-3.837 2.63-3.837 5.431 0 4.161-.1 8.333 0 12.492.082 3.636 1.63 4.7 4.995 4.782zm17.709-6.936h12.577c2.33 0 5.736-.672 7.979 0 3.411 1.023 4.633 12.034.527 13.16h-19.62c-2.268 0-5.8.707-7.979 0-1.953-.636-2.909-3.26-3.064-5.952.2125242-.2018892.3324393-.4824486.3314931-.7755781s-.12267-.5729089-.3364931-.7734219c-.0028256-1.5732598.4679246-3.1109508 1.351-4.413 1.841-2.141 5.482-1.246 8.234-1.246zm-15.94 3.172 4.192 2.537c.280596.1480647.5341635.3424664.75.575-.0146667.2666667-.0256667.5363333-.033.809-.0411319.0639511-.0869226.1247826-.137.182-.7334837.5789222-1.5359431 1.0646301-2.389 1.446-.491.3-1.667 1.353-2.238 1.354-.618 0-.456-1.343-.456-1.832v-3.063c0-.091-.15-2.081.311-2.008zm2.4-38.54c-.468.283-1.6 1.29-2.15 1.3-.755.014-.551-1.023-.551-1.55v-3.184c0-.134-.171-2.121.337-1.979l4.171 2.525c.3251581.15188549.6116669.37548549.838.654-.013.184-.023.369-.033.558-.0267339.05337064-.0581929.1042404-.094.152-.765159.62410294-1.6145259 1.13715688-2.523 1.524zm34.551 4.422h-19.762c-2.227 0-5.855.735-7.979 0-1.877-.65-2.739-3.2-2.842-5.814.4339817-.4257862.4442406-1.12160476.023-1.56.0234212-1.5648825.5209955-3.08584891 1.427-4.362 1.914-2.092 5.6-1.209 8.336-1.209h12.577c2.293 0 5.783-.7 7.979 0 1.671.534 2.73 3.509 2.875 6.481-.277.135-.433.268-.1.268h.11c.087 2.885-.702 5.697-2.649 6.196zm4.592 14.412 4.25-2.573c.573-.039.448 2.129.448 2.281v3.333c0 .39.144 1.529-.2 1.609-.39.09-1.94-1.174-2.28-1.38-.781-.472-1.659-.9-2.388-1.445-.875-.653-.68-1.311.165-1.825zm-25.59-5.418h12.577c2.33 0 5.735-.672 7.979 0 1.611.483 2.723 3.155 3.024 5.967-.027.033-.06.065-.083.1-.1656918.2025456-.2419213.4637484-.2111817.7236206.0307396.2598721.1658066.4960812.3741817.6543794.006 2.671-.78 5.135-2.63 5.62h-19.593c-2.269 0-5.8.707-7.979 0-2.064-.671-3.019-3.569-3.077-6.409.316-.2.474-.445.006-.477-.0805229-1.7533893.4012297-3.4866475 1.375-4.947 1.845-2.123 5.498-1.232 8.238-1.232z"/></g></g></svg>