<svg height="504pt" viewBox="-15 0 504 504.39066" width="504pt" xmlns="http://www.w3.org/2000/svg"><path d="m295.609375 502.171875c-1.898437.039063-3.597656-1.179687-4.160156-2.996094-.566407-1.8125.132812-3.78125 1.71875-4.828125l21.015625-14.308594-31 17.917969c-1.976563 1.15625-4.515625.542969-5.746094-1.386719-1.234375-1.929687-.722656-4.488281 1.15625-5.796874l61.949219-43.460938-72.976563 42.171875c-1.988281 1.132813-4.515625.496094-5.726562-1.445313-1.214844-1.9375-.683594-4.492187 1.207031-5.78125l84.734375-57.175781-92.246094 53.25c-1.988281 1.097657-4.492187.441407-5.6875-1.488281-1.199218-1.933594-.671875-4.464844 1.199219-5.757812l96.53125-64-100.816406 58.25c-2.003907 1.117187-4.535157.453124-5.726563-1.511719-1.191406-1.960938-.617187-4.515625 1.300782-5.777344l61.070312-39.023437-61.0625 35.261718c-2.003906 1.242188-4.632812.625-5.875-1.378906s-.625-4.632812 1.378906-5.875l108.105469-71.59375-106.425781 61.4375c-1.324219.839844-3 .890625-4.367188.125-1.371094-.761719-2.210937-2.214844-2.1875-3.78125.019532-1.570312.898438-2.996094 2.289063-3.722656l226.804687-130.960938c2-1.160156 4.554688-.519531 5.769532 1.445313 1.214843 1.960937.648437 4.535156-1.28125 5.804687l-108.082032 71.578125 106.300782-61.363281c1.304687-.789062 2.929687-.824219 4.265624-.09375 1.335938.734375 2.179688 2.125 2.214844 3.648438.035156 1.523437-.75 2.949218-2.050781 3.742187l-61.238281 39.089844 55.015625-31.785157c1.996093-1.15625 4.554687-.515624 5.769531 1.445313 1.214844 1.964844.648438 4.539063-1.28125 5.808594l-96.425781 63.929687 77.933593-45.003906c1.988282-1.132812 4.515626-.496094 5.730469 1.445312 1.214844 1.9375.683594 4.492188-1.207031 5.78125l-84.710938 57.175782 51.296876-29.613282c1.972656-1.117187 4.480468-.496093 5.699218 1.417969 1.222656 1.914063.730469 4.449219-1.117187 5.769531l-61.929688 43.449219 46.621094-26.914062c1.976563-1.074219 4.449219-.425781 5.648437 1.480469 1.195313 1.90625.707032 4.414062-1.117187 5.730468l-43.375 29.550782c1.222656.65625 2.050781 1.863281 2.21875 3.242187.167969 1.375-.339844 2.746094-1.367187 3.679687l-18.773438 17.066407c1.75.332031 3.109375 1.71875 3.410156 3.476562.296875 1.757813-.527344 3.515625-2.070312 4.410157l-27.691406 15.988281c-1.878907 1.050781-4.242188.535156-5.515626-1.199219-1.273437-1.734375-1.054687-4.148438.507813-5.625l15.1875-13.839844-38.679687 22.347656c-.648438.375-1.382813.574219-2.132813.570313zm0 0" fill="#eb86be"/><path d="m238.621094 49.691406c-1.714844 0-3.261719-1.027344-3.929688-2.609375-.667968-1.578125-.320312-3.40625.875-4.632812l16.878906-17.359375c-1.730468.246094-3.4375-.574219-4.324218-2.082032-1.179688-2.039062-.480469-4.648437 1.5625-5.828124l24.378906-14.070313c1.84375-1.0625 4.1875-.605469 5.496094 1.070313 1.308594 1.679687 1.179687 4.066406-.300782 5.59375l-16.117187 16.582031 38.644531-22.324219c1.320313-.773438 2.957032-.78125 4.285156-.019531 1.328126.761719 2.144532 2.179687 2.140626 3.710937-.003907 1.53125-.828126 2.941406-2.15625 3.699219l-65.296876 37.699219c-.648437.378906-1.386718.574218-2.136718.570312zm0 0" fill="#eb86be"/><path d="m156.046875 501.78125c-1.835937 0-3.46875-1.175781-4.050781-2.917969-.578125-1.742187.019531-3.660156 1.488281-4.761719l26.148437-19.875-37.632812 21.726563c-2.015625 1.132813-4.570312.457031-5.757812-1.527344-1.1875-1.988281-.574219-4.558593 1.378906-5.796875l81.332031-50.34375-88.226563 50.941406c-2.019531 1.210938-4.640624.554688-5.851562-1.464843-1.210938-2.023438-.554688-4.644531 1.464844-5.855469l106.308594-66.167969-112.03125 64.683594c-2.011719 1.125-4.550782.453125-5.742188-1.519531-1.1875-1.972656-.597656-4.535156 1.335938-5.785156l122.609374-76.699219-126.492187 73.046875c-2.023437 1.207031-4.640625.542968-5.847656-1.480469s-.542969-4.644531 1.480469-5.851563l67.292968-41.238281-67.199218 38.800781c-2.011719 1.125-4.550782.453126-5.738282-1.519531-1.191406-1.972656-.597656-4.535156 1.335938-5.785156l166.039062-104.636719-172.371094 99.539063c-2.019531 1.21875-4.640624.574219-5.859374-1.445313-1.21875-2.015625-.570313-4.640625 1.445312-5.855468l168.988281-106.285157-181.597656 104.832031c-2.019531 1.097657-4.542969.402344-5.710937-1.574218-1.171876-1.976563-.566407-4.523438 1.367187-5.765625l50.550781-30.71875-54.714844 31.574219c-2.023437 1.152343-4.597656.472656-5.785156-1.53125-1.1875-2-.550781-4.585938 1.429688-5.808594l63.027344-38.398438-65.132813 37.613282c-2.003906 1.058593-4.484375.363281-5.648437-1.578126-1.167969-1.941406-.613282-4.453124 1.261718-5.726562l169.726563-106.066406-173.019531 99.921875c-2.007813 1.074219-4.503907.382812-5.671876-1.570313-1.167968-1.953125-.597656-4.480468 1.292969-5.742187l146.082031-90.382813-146.023437 84.28125c-2.011719 1.164063-4.589844.496094-5.785156-1.496094-1.199219-1.996093-.578125-4.582031 1.390625-5.816406l178.902344-111.785156-177.492188 102.484375c-2.023438 1.207031-4.644531.546875-5.855469-1.476563-1.207031-2.023437-.546875-4.644531 1.476563-5.851562l139.09375-85.90625-149.488282 86.289062c-1.308593.78125-2.933593.804688-4.265624.0625-1.332032-.742187-2.167969-2.140624-2.191407-3.664062-.019531-1.527344.773438-2.949219 2.082031-3.730469l96.210938-58.707031-101.050781 58.296875c-2.015625 1.117187-4.554688.429687-5.730469-1.550781-1.179688-1.980469-.570312-4.539063 1.371094-5.777344l108.945312-66.707031-112.035156 64.683593c-2.011719 1.0625-4.503906.355469-5.664062-1.601562-1.15625-1.960938-.574219-4.484375 1.328124-5.734375l4.15625-2.519531-4.078124 2.355468c-2.015626 1.136719-4.570313.457032-5.757813-1.527343s-.574219-4.554688 1.378906-5.792969l128.273438-79.0625-128.136719 73.949219c-2.007812 1.109375-4.535156.425781-5.714844-1.542969-1.183594-1.96875-.59375-4.515625 1.328125-5.769531l156.230469-97.09375-152.859375 88.253906c-2.007813 1.125-4.550781.453125-5.738281-1.519531-1.191406-1.972656-.597656-4.535156 1.335937-5.785156l189.433594-119.050782-178.449219 103.015625c-2.019531 1.097657-4.542968.402344-5.710937-1.574219-1.171875-1.976562-.566407-4.523437 1.367187-5.765624l17.96875-10.859376c-2.0625.714844-4.332031-.242187-5.257812-2.21875-.929688-1.972656-.21875-4.332031 1.648437-5.464843l19.628907-11.867188-18.585938 10.683594c-2.011719 1.125-4.550781.453125-5.742188-1.519531-1.1875-1.972656-.597656-4.535156 1.339844-5.785156l163.242188-102.980469-165.769532 95.777343c-2.023437 1.207032-4.644531.542969-5.851562-1.480468-1.203125-2.023438-.542969-4.644532 1.480469-5.847656l86.289062-53.207032-84.144531 48.589844c-2.003906 1.121094-4.535156.453125-5.730469-1.507812-1.191406-1.964844-.617187-4.519532 1.300781-5.78125l151.652344-96.425782-145.671875 84.085938c-2.019531 1.230468-4.652343.585937-5.878906-1.433594s-.585937-4.652344 1.433594-5.878906l133.335937-84.402344-114.5625 66.160156c-2.003906 1.085938-4.511718.402344-5.6875-1.554687-1.175781-1.953125-.605468-4.488281 1.292969-5.75l89.214844-55.972657-83.625 48.265626c-2 1.117187-4.523438.457031-5.71875-1.496094-1.195313-1.953125-.636719-4.5 1.265625-5.773438l62.136718-40.183594-56.882812 32.808594c-2.007812 1.179688-4.589844.527344-5.800781-1.460937-1.210938-1.988281-.601563-4.582031 1.363281-5.824219l38.519531-24.59375-30.300781 17.492188c-1.878906 1.0625-4.257812.550781-5.535156-1.1875-1.28125-1.738282-1.058594-4.160157.519531-5.636719l18.089844-16.589844c-1.800781-.265625-3.234375-1.636719-3.574219-3.421875s.488281-3.589844 2.0625-4.496094l27.734375-16.019531c1.878906-1.0625 4.257813-.550781 5.535156 1.1875 1.28125 1.742187 1.058594 4.164063-.519531 5.640625l-14.984375 13.753906 161.902344-93.480468c2.015625-1.226563 4.644531-.585938 5.867187 1.429687 1.226563 2.011719.585938 4.640625-1.429687 5.867187l-38.457031 24.53125 36.589843-21.128906c2.003907-1.140625 4.550781-.484375 5.75 1.484375 1.203125 1.96875.625 4.535157-1.304687 5.796875l-62.078125 40.191406 140.507812-81.074218c2.011719-1.128906 4.550781-.457032 5.742188 1.515625 1.1875 1.976562.597656 4.535156-1.339844 5.785156l-89.214844 55.929687 94.046875-54.296874c1.304688-.789063 2.929688-.820313 4.265625-.085938 1.335938.738281 2.175781 2.128906 2.207031 3.652344.027344 1.523437-.757812 2.949218-2.0625 3.738281l-133.359374 84.410156 136.621093-78.875c2.015625-1.222656 4.636719-.578125 5.863281 1.433594 1.222657 2.015625.578126 4.640625-1.433593 5.863281l-151.714844 96.488282 172.191406-99.421876c2.011719-1.089843 4.527344-.402343 5.699219 1.5625 1.171875 1.964844.585938 4.503907-1.328125 5.757813l-86.085937 53 94.089843-54.289063c2.015625-1.21875 4.640625-.570312 5.859375 1.445313 1.21875 2.019531.570313 4.640625-1.449218 5.859375l-163.328126 103.023438 169.898438-98.082032c2.019531-1.097656 4.542969-.402344 5.710938 1.574219 1.171874 1.976563.566406 4.523437-1.367188 5.765625l-19.546875 11.859375 19.359375-11.179687c2.019531-1.09375 4.542969-.398438 5.710938 1.578124 1.171874 1.976563.566406 4.523438-1.367188 5.761719l-14.691406 8.890625 12.089844-6.953125c2.019531-1.214843 4.640624-.5625 5.859374 1.457031 1.214844 2.015626.5625 4.640626-1.457031 5.855469l-189.429687 118.980469 182.527344-105.378906c1.308593-.78125 2.933593-.808594 4.265624-.066406 1.332032.738281 2.167969 2.136718 2.195313 3.660156.023437 1.523437-.765625 2.945312-2.074219 3.730468l-156.316406 97.203126 158.253906-91.367188c2.023438-1.210938 4.644532-.546875 5.851563 1.476562 1.210937 2.023438.550781 4.644532-1.476563 5.851563l-128.152344 78.976563 138.367188-79.878907c2.015625-1.0625 4.507812-.355469 5.664062 1.605469 1.15625 1.957031.574219 4.480469-1.328124 5.734375l-4.265626 2.558594 7.746094-4.472657c2.015625-1.113281 4.554688-.425781 5.730469 1.554688 1.179687 1.980469.574219 4.535156-1.367187 5.777344l-108.980469 66.746094 113.742187-65.707032c1.308594-.777344 2.9375-.796875 4.265625-.050781 1.332031.742187 2.160157 2.144531 2.179688 3.667969.019531 1.523437-.777344 2.945312-2.085938 3.722656l-96.09375 58.683594 98.261719-56.730469c2.015625-1.136719 4.566406-.457031 5.753906 1.527344 1.1875 1.988281.578125 4.558593-1.378906 5.796875l-139.09375 85.921875 140.375-81.066407c2.007812-1.089843 4.511719-.40625 5.6875 1.550782 1.175781 1.953125.605469 4.488281-1.292969 5.75l-178.875 111.789062 178.105469-102.828125c2.007812-1.070312 4.503906-.378906 5.671875 1.574219s.601563 4.476562-1.292969 5.738281l-146.039062 90.414063 141.378906-81.625c2.003906-1.054688 4.484375-.363282 5.648438 1.578125 1.167968 1.941406.613281 4.457031-1.261719 5.726562l-169.8125 106.113281 171.078125-98.757812c2.011718-1.074219 4.511718-.375 5.679687 1.585938 1.164063 1.960937.578125 4.496093-1.328125 5.746093l-62.953125 38.324219 64.121094-37.035156c2.027344-1.203125 4.648437-.53125 5.847656 1.496094 1.203125 2.03125.53125 4.648437-1.496093 5.851562l-50.6875 30.804688 50.347656-29.082032c2.003906-1.101562 4.523437-.425781 5.707031 1.53125 1.183594 1.957032.609375 4.5-1.296875 5.765625l-169.003906 106.308594 167.410156-96.667969c2.015625-1.21875 4.636719-.570312 5.855469 1.449219 1.21875 2.015625.570312 4.636719-1.445313 5.855469l-165.949218 104.609375 157.953124-91.203125c2.023438-1.207032 4.644532-.542969 5.851563 1.480468 1.203125 2.023438.542969 4.644532-1.480469 5.851563l-67.476562 41.351563 53.640625-30.96875c2.019531-1.214844 4.644531-.5625 5.859375 1.457031s.566406 4.640625-1.453125 5.855469l-122.488281 76.621093 126.351562-72.949219c2.023438-1.210937 4.644531-.554687 5.855469 1.46875 1.210937 2.019532.554687 4.640626-1.46875 5.851563l-106.34375 66.183594 108.65625-62.734375c2.003906-1.046875 4.476562-.34375 5.632812 1.59375 1.160157 1.941406.605469 4.449218-1.261719 5.71875l-222.550781 137.683594c.621094 1.753906.039063 3.707031-1.441406 4.832031l-26.148437 19.871093 17.921874-10.339843c1.878907-1.046875 4.242188-.53125 5.515626 1.203125 1.273437 1.734375 1.054687 4.144531-.507813 5.621094l-18.722656 17.027343c2.070312-.84375 4.441406.058594 5.429687 2.0625.992188 2 .269532 4.429688-1.65625 5.566407l-33.691406 19.445312c-1.878906 1.046875-4.242188.53125-5.515625-1.203125s-1.054687-4.144531.507813-5.625l18.601562-16.917969-42.007812 24.234375c-.644532.386719-1.382813.597657-2.132813.605469zm0 0" fill="#eb86be"/><path d="m91.421875 110.117188c-1.863281-.003907-3.511719-1.214844-4.066406-2.996094-.554688-1.78125.109375-3.714844 1.644531-4.777344l40.59375-28.015625-41.761719 24.074219c-1.988281 1.132812-4.519531.496094-5.730469-1.445313-1.214843-1.9375-.683593-4.492187 1.207032-5.785156l24.429687-16.476563-21.75 12.542969c-1.984375 1.085938-4.46875.441407-5.667969-1.476562-1.199218-1.914063-.699218-4.433594 1.144532-5.742188l16.417968-11.144531-10.8125 6.238281c-1.859374 1.074219-4.230468.59375-5.527343-1.113281-1.300781-1.710938-1.125-4.121094.40625-5.628906l11.710937-11.441406c-1-.324219-1.84375-1.007813-2.367187-1.921876-1.175781-2.039062-.476563-4.648437 1.5625-5.828124l21.769531-12.558594c1.859375-1.074219 4.230469-.597656 5.527344 1.113281 1.300781 1.710937 1.125 4.121094-.40625 5.625l-7.605469 7.441406 83.429687-48.179687c1.988282-1.132813 4.515626-.496094 5.730469 1.445312 1.214844 1.941406.683594 4.492188-1.207031 5.785156l-16.460938 11.167969 23.953126-13.824219c1.984374-1.113281 4.496093-.476562 5.707031 1.453126 1.210937 1.925781.691406 4.464843-1.175781 5.765624l-24.394532 16.496094 29.40625-16.988281c1.972656-1.105469 4.46875-.472656 5.683594 1.4375 1.210938 1.910156.71875 4.4375-1.121094 5.753906l-40.632812 28.058594 44.523437-25.695313c2.027344-1.058593 4.527344-.332031 5.671875 1.648438 1.144532 1.976562.527344 4.507812-1.402344 5.734375l-136.296874 78.6875c-.644532.375-1.382813.574219-2.132813.570313zm0 0" fill="#eb86be"/><path d="m138.226562 41.371094c-1.78125 0-3.371093-1.105469-3.996093-2.777344-.621094-1.667969-.140625-3.546875 1.207031-4.714844l11.308594-9.785156c-.554688-.363281-1.011719-.851562-1.339844-1.425781-1.179688-2.039063-.480469-4.648438 1.558594-5.828125l24.84375-14.335938c1.898437-1.074218 4.304687-.539062 5.570312 1.238282 1.269532 1.78125.988282 4.226562-.648437 5.671874l-1.878907 1.632813 15.6875-9.074219c1.320313-.839844 3-.886718 4.367188-.125 1.367188.765625 2.207031 2.21875 2.1875 3.785156-.023438 1.566407-.902344 2.996094-2.289062 3.722657l-54.441407 31.445312c-.648437.378907-1.386719.574219-2.136719.570313zm0 0" fill="#eb86be"/><g fill="#262626"><path d="m1.207031 309.574219c-2.808593 15.585937.277344 31.65625 8.652344 45.089843 7.144531 11.367188 22.777344 15.445313 29.332031 24.433594 6.347656 8.695313 6.449219 25.394532 13.054688 37.128906 9.550781 16.980469 21.445312 19.746094 35.285156 31.050782 14.386719 11.75 19.003906 29.132812 33.511719 40.730468 41.863281 33.476563 96.03125 11.886719 115.199219-30.824218 9.476562 26.179687 33.429687 44.359375 61.191406 46.441406 38.980468 3.335938 55.636718-18.878906 76.894531-46.082031 14.832031-18.960938 42.105469-26.085938 52.308594-54.304688 4.171875-11.53125 3.609375-18.355469 10.753906-26.003906 5.050781-5.398437 13.105469-8.15625 18.414063-13.839844 11.113281-11.824219 17.414062-27.363281 17.679687-43.585937.136719-20.269532-12.40625-25.601563-16.101563-42.328125-3.257812-14.734375 7.679688-27.792969 7.527344-43.621094-.222656-21.042969-14.027344-34.269531-17.527344-50.945313-3.933593-18.773437-1.382812-35.148437-14.054687-51.855468-10.4375-13.765625-23.535156-18.5-38.058594-25.863282-1.785156-.964843-3.675781-1.71875-5.632812-2.253906 1.28125-4.695312 6.136719-13.542968 6.589843-17.65625 1.453126-14-3.539062-27.902344-13.570312-37.777344-13.292969-12.925781-29.398438-5.640624-41.105469-12.910156-6.28125-3.910156-10.613281-17.75-17.644531-23.144531-8.515625-6.324219-18.617188-10.164063-29.183594-11.101563-24.292968-2.71875-47.578125 10.488282-57.703125 32.734376-7.15625-15.515626-20.917969-26.984376-37.472656-31.21875-16.550781-4.238282-34.132813-.796876-47.863281 9.375-9.847656 7.140624-15.359375 21.425781-23.628906 22.824218-24.207032 4.097656-36.75-.125-46.027344 27.648438-.511719.492187-.894532 1.101562-1.117188 1.777344-.449218.679687-.625 1.507812-.488281 2.3125-2.113281 10.546874 2.375 25.0625-.425781 32.332031-4.488282 11.691406-15.691406 12.382812-26.726563 21.332031-26.894531 21.796875-22.800781 49.648438-32.332031 78.882812-4.574219 14.054688-12.3125 22.503907-12.101562 38.246094.199218 15.011719 10.589843 27.359375 8.015624 41.695313-1.792968 9.746093-13.511718 19.789062-15.644531 31.28125zm32.070313-33.140625c.449218-.425782.855468-.894532 1.210937-1.402344 4.71875-3.589844 10.015625-6.34375 15.667969-8.140625 2.210938-.691406 5.921875-2.609375 5.121094-5.535156-.753906-2.800781-5.070313-2.910157-7.222656-2.238281-5.65625 1.765624-11.082032 4.199218-16.160157 7.253906-11.886719-15.839844-14.121093-36.925782-5.820312-54.902344 1.46875-3.285156 11.945312-13.039062 14.242187-20.574219v-.050781c6.996094-6.304688 15.640625-10.492188 24.925782-12.066406 1.707031-.28125 7.007812-1.46875 7.109374-3.875.101563-2.40625-3.457031-2.347656-5.179687-2.066406-9.4375 1.546874-18.492187 4.863281-26.691406 9.78125-1.0625-6.363282-1.460938-12.816407-1.1875-19.261719 5.121093-25.320313 24.828125-45.160157 50.117187-50.449219 4.117188 4.273438 9.007813 7.726562 14.410156 10.183594 2.9375 1.335937 14.253907-3.277344 10.054688-5.191406-6.347656-2.941407-11.851562-7.4375-16-13.070313v-.09375c-1.707031-13.21875-3.414062-26.433594-5.121094-39.65625 2.875-16.042969 17.238282-21.8125 36.4375-17.585937-1.0625 6.105468-1.125 12.347656-.1875 18.472656.726563 4.832031 13.140625 1.859375 12.355469-3.308594-1.0625-7.214844-.582031-14.570312 1.417969-21.582031 0-.050781.074218-.085938.101562-.144531 16.75-47.113282 82.773438-33.023438 87.816406 16.503906v25.597656c0 3.6875 12.355469 1.410156 12.355469-3.308594v-24.191406c0-.078125.085938-.15625.09375-.230469.820313-21.515625 16.746094-39.441406 38.015625-42.789062 21.265625-3.351563 41.929688 8.8125 49.324219 29.03125 2.390625 7.523437 3.015625 15.5 1.824219 23.304687-.851563 5.761719 11.699218 3.917969 12.46875-1.160156.980468-6.476562.839844-13.074219-.410156-19.507812 39.066406-.402344 47.734374 37.546874 31.921874 61.355468-.101562.207032-.1875.421875-.261718.640625-3.679688 4.679688-8.425782 8.410157-13.84375 10.878907-2.164063.972656-4.734375 3.566406-3.019532 5.972656 1.714844 2.40625 6.101563 1.707031 8.347657.71875 5.804687-2.601563 11.078125-6.257813 15.546875-10.789063 22.394531 4.4375 40.859375 20.226563 48.714844 41.660157 2.070312 8.421874 2.457031 17.167968 1.144531 25.738281-6.675781-3.632813-13.925781-6.09375-21.433594-7.269531-2.910156-.460938-14.234375 4.375-7.9375 5.359374 11.144531 1.851563 21.519531 6.890626 29.867187 14.503907.117188.292969.308594.546875.554688.742187.710938.53125 1.371094 1.128906 1.960938 1.792969.242187.183594.507812.328125.792968.425781.566406.777344 1 1.640625 1.28125 2.5625 9.25 27.722656 22.066406 40.226563 4.957032 67.660156-4.21875-2.488281-8.707032-4.492187-13.378907-5.972656-2.964843-.726562-6.097656-.25-8.714843 1.320313-1.269532.742187-4.101563 3.304687-1.253907 4.199219 6.9375 2.152343 13.425781 5.546874 19.148438 10.019531.277343.503906.636719.964843 1.058593 1.355469 14.023438 12.140624 21.226563 30.367187 19.289063 48.816406-1.9375 18.445312-12.773437 34.777344-29.015625 43.734375-1.3125-9.34375-4.355469-18.359375-8.976562-26.589844-2.78125-4.980469-14.507813-.269531-11.296876 5.523437 5.371094 9.636719 8.285157 20.449219 8.480469 31.480469.285157 4.097657-.054687 8.21875-1.007812 12.21875-9.933594 32.015625-20.480469 29.421875-37.929688 42.078125.289063-4.464844.1875-8.945312-.300781-13.390625-.484375-4.453125-12.902344-1.707031-12.355469 3.3125.792969 7.625.339844 15.328125-1.347656 22.808594-1.648437 2.277344-1.253906 6.476563-2.839844 8.902344l-11.25 18.242187c-17.054687 16.316406-41.207031 22.886719-64.175781 17.460938-27.984375-5.429688-41.816406-36.515625-43.992188-61.664063v-298.007812c0-6.109375-12.472656-4.003907-12.472656 1.109375v298.546875c-3.132812 38.867187-33.84375 76.40625-81.546875 59.570312-13.5-4.894531-24.96875-14.175781-32.570312-26.359375-2.28125-6.476562-4.902344-12.824218-7.859375-19.019531-1.953125-7.90625-2.511719-16.089844-1.648438-24.183594.382813-3.472656-11.878906-1.101562-12.226562 2.046875-.492188 4.773438-.539063 9.582032-.136719 14.363282-3.125-.890626-6.109375-2.207032-8.867187-3.917969-19.453126-12.335938-30.953126-34.019531-30.25-57.046875 0-.085938-.058594-.125-.058594-.203125.375-11.214844 3.433594-22.171875 8.925781-31.957031 1.261719-2.277344-4.328125-2.015626-5.121094-1.894532-2.816406.152344-5.429687 1.53125-7.144531 3.769532-3.839844 6.957031-6.488281 14.503906-7.839844 22.332031-16.570312-8.628907-27.804687-24.890625-30.007812-43.441407-2.203125-18.554687 4.910156-36.996093 19-49.261718zm0 0"/><path d="m120.898438 211.621094c.117187 0 .289062 0 .441406.058594.15625.0625.332031.0625.539062.0625.203125 0 .273438 0 .390625-.0625.3125.019531.621094.019531.929688 0 7.628906-.175782 14.9375-3.078126 20.609375-8.183594 4.304687-5.144532 6.246094-11.867188 5.351562-18.515625.84375-6.488281.191406-13.082031-1.902344-19.277344-3.582031-6.472656-10.542968-10.332031-17.929687-9.949219-6.933594-.578125-13.785156 1.804688-18.859375 6.5625-5.074219 4.757813-7.894531 11.441406-7.765625 18.398438-.238281 13.710937.667969 30.25 18.195313 30.90625zm-.855469-49.355469c11.144531-7.996094 16.75 11.375 16.75 19.335937 0 6.527344 1.886719 23.773438-7.679688 25.222657-10.691406-.554688-14.011719-11.167969-14.113281-20.070313-.050781-7.398437-1.808594-19.566406 5.050781-24.488281zm0 0"/><path d="m285.617188 212.746094c.246093-.019532.492187-.058594.734374-.109375h.851563c8.414063-.265625 16.21875-4.464844 21.078125-11.339844 2.785156-5.652344 3.839844-11.996094 3.035156-18.246094.785156-6.128906-.019531-12.359375-2.335937-18.089843-4.003907-6.734376-11.433594-10.667969-19.25-10.199219-7.789063.046875-15.1875 3.425781-20.320313 9.285156-3.75 5.367187-5.382812 11.933594-4.582031 18.433594-.8125 6.488281-.160156 13.074219 1.902344 19.277343 3.714843 6.933594 11.019531 11.1875 18.886719 10.988282zm-2.800782-49.371094c17.605469-9.804688 24.191406 39.542969 6.828125 42.453125-9.976562-.574219-12.449219-11-12.527343-19.066406-.027344-7.457031-1.871094-19.164063 5.699218-23.394531zm0 0"/><path d="m352.824219 213.464844c.941406.296875 1.933593.398437 2.917969.296875.851562 0 1.699218-.148438 2.5-.433594 7.578124-.773437 14.378906-4.996094 18.433593-11.445313 2.769531-6.144531 3.796875-12.933593 2.960938-19.625.820312-6.414062-.289063-12.925781-3.191407-18.703124-4.359374-6.464844-11.769531-10.191407-19.558593-9.839844-8.054688.183594-15.546875 4.171875-20.199219 10.75-3.347656 6.371094-4.625 13.625-3.652344 20.753906-.042968 14.132812 4.558594 26.761719 19.789063 28.246094zm2.917969-50.902344c16.273437.46875 16.214843 41.132812 1.144531 42.34375-16.273438 0-16.164063-42.777344-1.144531-42.34375zm0 0"/><path d="m174.878906 213.480469h17.066406c3.15625.34375 6.253907-1.050781 8.089844-3.644531 1.230469-2.558594-1.066406-4.648438-3.617187-4.648438h-4.59375v-48.707031c0-2.5625-10.757813 1.226562-11.75 2.21875-2.84375 2.84375-5.6875 5.6875-8.53125 8.53125-1.707031 1.707031 3.957031 1.398437 7.925781.308593v37.648438h-.117188c-3.160156-.339844-6.253906 1.050781-8.089843 3.644531-1.230469 2.542969 1.066406 4.648438 3.617187 4.648438zm0 0"/><path d="m123.464844 297.996094c.261718-.023438.523437-.066406.777344-.128906.28125 0 .460937.042968.777343 0 8.410157-.269532 16.214844-4.449219 21.09375-11.304688 2.789063-5.632812 3.847657-11.960938 3.046875-18.195312.78125-6.121094-.019531-12.339844-2.332031-18.0625-4-6.707032-11.414063-10.609376-19.207031-10.113282-7.789063.050782-15.191406 3.414063-20.351563 9.25-3.761719 5.347656-5.402343 11.902344-4.601562 18.390625-.816407 6.484375-.164063 13.074219 1.90625 19.273438 3.730469 6.914062 11.042969 11.125 18.890625 10.890625zm-2.796875-49.355469c17.585937-9.847656 24.207031 39.644531 6.925781 42.597656-9.992188-.554687-12.492188-11.09375-12.566406-19.148437-.070313-7.449219-1.914063-19.234375 5.640625-23.449219zm0 0"/><path d="m353.003906 299.207031c1.769532.457031 3.632813.40625 5.375-.152343 7.824219-.804688 14.777344-5.328126 18.6875-12.152344 2.453125-6.082032 3.332032-12.6875 2.5625-19.199219.808594-6.496094-.320312-13.085937-3.253906-18.9375-4.34375-6.546875-11.769531-10.382813-19.625-10.136719-8.5625.136719-16.449219 4.679688-20.863281 12.015625-2.753907 6.207031-3.777344 13.046875-2.960938 19.789063.03125 14.140625 4.691407 27.273437 20.078125 28.773437zm2.839844-50.902343c11.027344.292968 11.25 12.289062 11.25 20.164062 0 8.382812 1.363281 20.421875-10.308594 21.335938-16.09375.023437-16-41.910157-.941406-41.5zm0 0"/><path d="m196.585938 291.167969h-4.761719v-49.355469c0-3.492188-10.734375.851562-11.816407 1.945312l-8.535156 8.535157c-2.148437 2.140625 3.816406 2.054687 7.996094.929687v37.953125c-3.078125-.210937-6.082031 1.035157-8.105469 3.363281-1.425781 2.449219 1.210938 3.628907 3.34375 3.628907h17.066407c3.097656.214843 6.117187-1.035157 8.160156-3.371094 1.425781-2.449219-1.210938-3.628906-3.347656-3.628906zm0 0"/><path d="m273.824219 294.789062c-1.453125 2.351563 1.253906 2.960938 3.171875 2.960938h17.066406c3.070312.148438 6.054688-1.015625 8.210938-3.203125 1.449218-2.363281-1.253907-2.960937-3.175782-2.960937h-4.871094v-49.773438c0-2.917969-10.753906 1.082031-11.777343 2.105469l-8.53125 8.535156c-1.886719 1.886719 3.898437 1.707031 7.953125.554687v38.597657c-3.015625-.132813-5.941406 1.023437-8.046875 3.183593zm0 0"/><path d="m127.441406 324.96875c-8.074218-.011719-15.707031 3.671875-20.71875 10-3.515625 5.714844-4.960937 12.464844-4.085937 19.117188 0 14.234374 2.910156 29.761718 20.964843 29.761718.171876 0 .351563-.066406.519532-.082031.351562.019531.703125.019531 1.050781 0 8.464844-.242187 16.292969-4.554687 21.019531-11.582031 2.816406-6.078125 3.859375-12.832032 3.003906-19.480469 0-14.300781-4.59375-27.871094-21.753906-27.734375zm-.152344 51.054688c-10.285156-.648438-12.230468-11.09375-12.230468-19.386719 0-7.339844-1.832032-19.054688 6.179687-22.757813 17.679688-8.167968 23.082031 39.535156 6.050781 42.144532zm0 0"/><path d="m308.1875 334.226562c-4.363281-6.441406-11.769531-10.148437-19.542969-9.777343-8.054687.175781-15.554687 4.152343-20.222656 10.71875-3.351563 6.359375-4.628906 13.609375-3.652344 20.734375 0 14.132812 4.582031 26.675781 19.789063 28.160156.945312.292969 1.941406.394531 2.925781.289062.851563.003907 1.699219-.140624 2.5-.425781 7.574219-.777343 14.371094-4.980469 18.449219-11.410156 2.777344-6.144531 3.800781-12.933594 2.960937-19.625.816407-6.402344-.300781-12.902344-3.207031-18.664063zm-19.542969 41.421876c-16.296875 0-16.210937-42.9375-1.195312-42.496094 16.292969.496094 16.238281 41.277344 1.195312 42.496094zm0 0"/><path d="m357.832031 324.945312c-8.074219-.019531-15.710937 3.671876-20.71875 10.007813-3.511719 5.71875-4.953125 12.46875-4.078125 19.125 0 14.230469 2.910156 29.796875 20.976563 29.796875.160156 0 .339843-.066406.511719-.085938.351562.023438.703124.023438 1.058593 0 8.464844-.242187 16.292969-4.558593 21.015625-11.585937 2.8125-6.085937 3.851563-12.84375 2.996094-19.492187 0-14.308594-4.589844-27.894532-21.761719-27.765626zm-.160156 51.054688c-10.242187-.648438-12.210937-11.09375-12.210937-19.355469 0-7.339843-1.835938-19.046875 6.1875-22.75 17.679687-8.15625 23.0625 39.511719 6.023437 42.105469zm0 0"/><path d="m196.691406 376.878906h-4.867187v-49.734375c0-3.746093-9.8125-.433593-11.089844.855469-2.847656 2.84375-5.691406 5.6875-8.535156 8.53125-3.96875 3.96875 2.953125 4.320312 7.261719 2.9375v37.441406c-3.015626-.136718-5.949219 1.027344-8.046876 3.203125-1.449218 2.371094 1.238282 3.019531 3.183594 3.019531h6.5625c1.128906.203126 2.285156.203126 3.414063 0h7.082031c3.066406.164063 6.058594-1.003906 8.199219-3.207031 1.46875-2.390625-1.21875-3.046875-3.164063-3.046875zm0 0"/></g></svg>