<svg height="512" viewBox="0 0 56 60" width="512" xmlns="http://www.w3.org/2000/svg"><g id="030---Mental-Maze" fill="none"><g fill="#ed75b7"><path id="Path" d="m36.768 59.376c-.2152152 0-.4062846-.137715-.4743416-.3418861-.0680571-.2041711.0021694-.4289848.1743416-.5581139l3.632-2.754-5.892 3.4c-.2308022.1338179-.5260112.0628564-.670779-.1612399s-.0880924-.5223777.128779-.6777601l7.443-5.352-9.082 5.243c-.2340569.1357068-.5336008.0606207-.6759704-.1694442s-.0759129-.5316408.1499704-.6805558l4.622-3.063-5.223 3.014c-.2342478.1308833-.5300435.0535271-.6702262-.1752769s-.074765-.527467.1482262-.6767231l6.972-4.523-7.413 4.28c-.2342478.1308833-.5300435.0535271-.6702262-.1752769s-.074765-.527467.1482262-.6767231l9.06-5.883-9.37 5.409c-.234481.1270728-.5274228.0477401-.6657366-.1802909-.1383139-.2280309-.0733058-.5244809.1477366-.6737091l6.377-4.055-6.364 3.672c-.2333291.1269664-.5252099.0493179-.6646076-.1768043-.1393976-.2261221-.0776459-.5217747.1406076-.6731957l11.987-7.889-11.752 6.788c-.1549945.0985297-.351531.1041539-.5119064.0146489-.1603754-.0895049-.2587712-.2597296-.2562855-.4433739s.1054527-.3511436.2681919-.436275l26.582-15.348c.2341443-.133112.5316521-.0568382.672871.1725078.1412189.2293459.075396.5293391-.148871.6784922l-12 7.893 11.783-6.797c.2361017-.1433179.5436821-.0681017.687.168.1433178.2361017.0681017.5436821-.168.687l-6.37 4.051 5.7-3.288c.2337734-.1287456.5274505-.051198.667188.1761759.1397374.2273739.07627.5244122-.144188.6748241l-9.072 5.884 7.507-4.333c.2342478-.1308833.5300435-.0535271.6702262.1752769s.074765.527467-.1482262.6767231l-6.972 4.528 2.562-1.48c.1518379-.0941395.3423647-.1001234.4998108-.0156977s.2578918.2464348.2635.425-.0844729.3465582-.2363108.4406977l-4.615 3.059 3.744-2.162c.2308022-.1338179.5260112-.0628564.670779.1612399s.0880924.5223777-.128779.6777601l-7.439 5.35 4.146-2.394c.2283835-.1299972.5184238-.0610156.6638282.1578813.1454044.2188968.0965443.5129964-.1118282.6731187l-4.442 3.368c.2031394.0416481.3594896.2043624.3930042.4090009.0335145.2046386-.0627629.4087268-.2420042.5129991l-5.767 3.33c-.0763933.042493-.1625922.0642151-.25.063z"/><path id="Path" d="m28.226 6.174c-.2022515.00036198-.3848019-.12115725-.4625134-.30788366-.0777114-.1867264-.0352767-.40187949.1075134-.54511634l1.9-1.906c-.1814105-.0034173-.3491267-.09721831-.447-.25-.1380647-.23914015-.0561341-.54492481.183-.683l2.854-1.649c.216926-.12506682.492915-.07038624.6457677.12794336.1528528.19832959.1354294.47914326-.0407677.65705664l-1.734 1.742 4.288-2.474c.2374252-.12420086.5305531-.03916186.6646466.19281988.1340935.23198173.0614797.52843213-.1646466.67218012l-7.544 4.355c-.0757806.0445497-.1620945.0680271-.25.068z"/><path id="Path" d="m19.32 59.378c-.2152152 0-.4062846-.137715-.4743416-.3418861-.0680571-.2041711.0021694-.4289848.1743416-.5581139l2.5-1.923-3.994 2.3c-.2346058.1253855-.5263122.0451285-.6637604-.18262-.1374483-.2277485-.0725112-.523243.1477604-.67238l8.724-5.392-9.668 5.582c-.2357179.1278172-.530297.0469384-.667702-.1833224-.137405-.2302607-.0687118-.5279174.155702-.6746776l8.654-5.332-9.243 5.336c-.2356087.1297647-.5316571.04988-.6700067-.1807924-.1383496-.2306723-.0694166-.5294607.1560067-.6762076l11.725-7.279-12.2 7.044c-.2355125.13196-.5332497.0531389-.6726204-.1780652-.1393708-.2312042-.0700423-.5312938.1566204-.6779348l16.845-10.583-17.237 9.95c-.2362075.133071-.5354329.0536509-.6745599-.1790411-.1391271-.2326919-.0674613-.5338687.1615599-.6789589l14.426-8.954-14.481 8.363c-.2377586.1408326-.5446674.0622586-.6855-.1755s-.0622586-.5446674.1755-.6855l3.107-1.886-3.889 2.241c-.2363779.1427656-.5437344.0668778-.6865-.1695-.1427656-.2363779-.0668779-.5437344.1695-.6865l21.018-13.261-22.394 12.928c-.23638246.1285498-.53210687.0469768-.6691568-.184581-.13704993-.2315579-.06627089-.5300498.1601568-.675419l5.983-3.637-6.389 3.691c-.23693016.1419372-.5440628.0649301-.68599998-.172-.14193717-.2369302-.06493016-.5440628.17199998-.686l18.38-11.447-18.917 10.92c-.23638246.1285498-.53210687.0469768-.6691568-.184581-.13704993-.2315579-.06627089-.5300498.1601568-.675419l4.6-2.786-4.527 2.611c-.23617349.1361818-.537908.0580681-.67833183-.1756081-.14042384-.2336761-.06777083-.5367718.16333183-.6813919l20.592-12.857-20.563 11.872c-.23551248.13196-.53324972.0531389-.67262044-.1780652-.13937073-.2312042-.07004227-.5312938.15662044-.6779348l21.429-13.417-21.719 12.539c-.15326694.0919959-.34397065.0952367-.5002749.0085015-.15630424-.0867351-.25446269-.250269-.2575-.429s.08950796-.3455056.2427749-.4375015l19.317-12.019-20.554 11.868c-.23775858.1408326-.54466738.0622586-.68549998-.1755-.14083261-.2377586-.06225859-.5446674.17549998-.6855l8.141-4.95-8.552 4.939c-.23628449.1306359-.5336041.0500916-.67163931-.181948s-.06692381-.5317553.16063931-.677052l14.279-8.769-14.608 8.434c-.23473446.1238045-.5252986.0426548-.6619149-.1848618-.13661629-.2275167-.07168534-.5221296.1479149-.6711382l20.082-12.54-20.2 11.662c-.23508655.127347-.52875831.0472199-.66659082-.1818764-.13783251-.2290964-.071048-.5260868.15159082-.6741236l20.039-12.523-19.647 11.345c-.23775858.1405565-.54444353.0617586-.685-.176s-.06175859-.5444435.176-.685l3.222-1.95-2.504 1.445c-.23508655.127347-.52875831.0472199-.66659082-.1818764-.13783251-.2290964-.071048-.5260868.15159082-.6741236l21.767-13.681-18.93 10.929c-.23571786.1278172-.53029699.0469384-.66770199-.1833224-.13740501-.2302607-.06871185-.5279174.15570199-.6746776l11.1-6.833-11.249 6.499c-.23637787.1430418-.54395825.0673779-.687-.169s-.06737787-.5439582.169-.687l19.726-12.487-19.967 11.526c-.23620749.133071-.53543293.0536509-.67455995-.1790411-.13912701-.2326919-.06746125-.5338687.16155995-.6789589l11.149-6.893-10.816 6.247c-.23628449.1306359-.5336041.0500916-.67163931-.181948s-.06692381-.5317553.16063931-.677052l3.514-2.147-2.82 1.627c-.15308831.0921745-.34372226.0956757-.50009189.0091846s-.25471867-.2498344-.258-.4285c-.00328132-.1786657.08900358-.3455101.24209189-.4376846l13.682-8.585-12.3 7.1c-.15326694.0918173-.34387535.094893-.5000249.0080685-.15614954-.0868244-.25411739-.2503583-.257-.429s.08975796-.3452512.2430249-.4370685l8.381-5.2-6.782 3.914c-.23571786.1278172-.53029699.0469384-.66770199-.1833224-.13740501-.2302607-.06871185-.5279174.15570199-.6746776l1.432-.879-1.052.606c-.23415271.123715-.52415635.0433988-.66130449-.1831476-.13714814-.2265465-.07386591-.5207372.14430449-.6708524l3.448-2.188-2.752 1.589c-.23486417.1312813-.53150396.0531604-.67124116-.1767732-.1397372-.2299337-.07245767-.5292187.15224116-.6772268l3.61-2.3-2.62 1.513c-.21989257.1179958-.49312141.0557887-.64025961-.1457705-.14713819-.2015592-.12312958-.4807496.05625961-.6542295l2.016-1.811c-.19880679-.0479185-.348394-.2120729-.37768463-.4144646-.02929063-.2023916.0676201-.4022198.24468463-.5045354l3.285-1.9c.21989257-.1179958.4931214-.0557887.6402596.1457705s.1231296.4807496-.0562596.6542295l-1.522 1.366 18.661-10.766c.2361017-.14331788.5436821-.06810171.687.16800001s.0681017.54368209-.168.68699999l-3.609 2.3 3.414-1.971c.2354379-.13454995.5352149-.05690217.6757281.17502611.1405133.23192829.0705395.53358878-.1577281.67997389l-3.441 2.177 12.2-7.043c.2362845-.13063592.5336041-.05009165.6716393.18194798.1380352.23203962.0669238.53175531-.1606393.67705202l-1.437.882 1.824-1.052c.2356087-.12976469.5316571-.04987998.6700067.18079237.1383496.23067236.0694166.52946069-.1560067.67620763l-8.4 5.216 8.805-5.083c.2355125-.13195996.5332497-.0531389.6726204.17806525.1393708.23120415.0700423.53129378-.1566204.67793475l-13.677 8.584 13.9-8.027c.2362845-.13063592.5336041-.05009165.6716393.18194798.1380352.23203962.0669238.53175531-.1606393.67705202l-3.5 2.141 5.121-2.956c.2362075-.13307102.5354329-.05365088.6745599.17904108.1391271.23269196.0674613.53386873-.1615599.67895892l-11.179 6.906 12.348-7.132c.2349709-.12921461.5300387-.05006202.6687925.17940502.1387537.22946704.0717837.52753611-.1517925.67559498l-19.71 12.478 20.725-11.965c.2357179-.12781718.530297-.04693838.667702.18332235.137405.23026074.0687118.52791741-.155702.67467765l-11.1 6.833 11.231-6.484c.234285-.12222814.52323-.0410463.6595757.18531407.1363457.22636036.0730104.51973442-.1445757.66968593l-21.774 13.687 21.547-12.439c.2363825-.12854979.5321069-.0469768.6691568.184581.1370499.2315579.0662709.5300498-.1601568.675419l-3.214 1.944 2.378-1.372c.2356087-.1297647.5316571-.04988.6700067.1807924.1383496.2306723.0694166.5294607-.1560067.6762076l-20.048 12.526 20.4-11.774c.2350866-.127347.5287583-.0472199.6665908.1818764.1378325.2290964.071048.5260868-.1515908.6741236l-20.087 12.54 21.556-12.446c.2357179-.1278172.530297-.0469384.667702.1833224.137405.2302607.0687118.5279174-.155702.6746776l-14.269 8.763 14.947-8.629c.2363825-.1285498.5321069-.0469768.6691568.184581.1370499.2315579.0662709.5300498-.1601568.675419l-8.119 4.935 8.38-4.838c.2356087-.1297647.5316571-.04988.6700067.1807924.1383496.2306723.0694166.5294607-.1560067.6762076l-19.327 12.025 19.674-11.357c.2361735-.1361818.537908-.0580681.6783318.1756081.1404239.2336761.0677709.5367718-.1633318.6813919l-21.425 13.414 21.446-12.381c.2347345-.1238045.5252986-.0426548.6619149.1848618.1366163.2275167.0716853.5221296-.1479149.6711382l-20.592 12.858 20.141-11.628c.2363825-.1285498.5321069-.0469768.6691568.184581.1370499.2315579.0662709.5300498-.1601568.675419l-4.6 2.786 4.133-2.385c.2361735-.1361818.537908-.0580681.6783318.1756081.1404239.2336761.0677709.5367718-.1633318.6813919l-18.384 11.451 18.95-10.94c.2369888-.1350471.5384839-.055235.6776156.1793791.1391316.2346142.0645535.5374465-.1676156.6806209l-5.992 3.642 5.956-3.439c.2355125-.13196.5332497-.0531389.6726204.1780652.1393708.2312042.0700423.5312938-.1566204.6779348l-21.01 13.259 20.937-12.088c.2369888-.1350471.5384839-.055235.6776156.1793791.1391316.2346142.0645535.5374465-.1676156.6806209l-3.134 1.9 2.6-1.5c.2362075-.133071.5354329-.0536509.6745599.1790411.1391271.2326919.0674613.5338687-.1615599.6789589l-14.426 8.956 13.307-7.683c.236654-.1424895.5440105-.066154.6865.1705s.066154.5440105-.1705.6865l-16.846 10.581 15.972-9.221c.2369302-.1419372.5440628-.0649302.686.172s.0649302.5440628-.172.686l-11.73 7.284 12.155-7.018c.2372063-.141661.5443389-.0642063.686.173.141661.2372063.0642063.544339-.173.686l-8.643 5.329 8.707-5.027c.2372063-.1413849.5441151-.0637063.6855.1735.1413848.2372063.0637063.5441151-.1735.6855l-26.422 16.327c.0559994.1969441-.0137349.4081282-.176.533l-2.5 1.925 1.327-.766c.2234669-.1287231.5081764-.0663691.6573848.1439733.1492085.2103425.1139612.4996608-.0813848.6680267l-1.881 1.62c.0915472.0429836.1679072.1127188.219.2.1380647.2391402.0561341.5449248-.183.683l-3.26 1.882c-.2230711.126215-.5054574.0633143-.6538691-.1456472-.1484117-.2089616-.1147824-.4963073.0778691-.6653528l1-.864-3.257 1.88c-.0751267.0433832-.1602484.0664729-.247.067z"/><path id="Path" d="m10.551 12.589c-.2152152 0-.4062846-.137715-.4743416-.3418861-.0680571-.2041711.0021694-.4289848.1743416-.5581139l6.965-5.146-6.924 4c-.23265.1288599-.5254615.0530472-.66634439-.1725252s-.08052968-.52195664.13734439-.6744748l1.355-.915-.655.378c-.2192992.12676128-.49874674.06950402-.65052221-.13328841-.15177546-.20279243-.12792456-.48704664.05552221-.66171159l1.309-1.244c-.1711675-.07696743-.2848189-.24330548-.2943067-.43074151-.0094877-.18743602.0867862-.36440022.2493067-.45825849l2.557-1.477c.2209688-.13918781.5118365-.08487626.6676883.12467242.1558519.20954868.1241864.50374433-.0726883.67532758l-.664.63 9.392-5.426c.2319734-.12436026.5206385-.04758798.6601846.17558021.139546.22316819.0821857.51630861-.1311846.67041979l-1.341.908 2.2-1.27c.2295527-.13149209.521805-.0614183.6667704.15987256.1449654.22129087.0924688.51720615-.1197704.67512744l-6.97 5.148 8.123-4.689c.2374252-.12420086.5305531-.03916186.6646466.19281988.1340935.23198173.0614797.52843213-.1646466.67218012l-15.8 9.12c-.075488.044378-.1614339.0678492-.249.068z"/><path id="Path" d="m16.521 5.276c-.2087291-.00011927-.3954224-.12988784-.4682725-.32549135-.07285-.19560352-.0165268-.4158805.1412725-.55250865l1.3-1.122c-.0541914-.04099984-.0997329-.09231904-.134-.151-.1380647-.23914015-.0561341-.54492481.183-.683l2.793-1.613c.2231941-.12824745.5072862-.06607757.6565145.14366969s.1148202.49851967-.0795145.66733031l-.083.071 1.749-1.011c.1549945-.09852969.351531-.10415386.5119064-.01464894s.2587712.25972968.2562855.44337398c-.0024857.18364429-.1054527.35114353-.2681919.43627496l-6.308 3.644c-.0758413.04429056-.1621742.06742779-.25.067z"/></g><path id="Path" d="m53.138 32.354c1.0886343-1.3877789 1.6457707-3.1187672 1.571-4.881-.0520055-1.0758753-.3510661-2.1253247-.874-3.067-.455-.824-1.335-1.5-1.176-2.5.485801-4.3782502-2.5119501-8.3812325-6.85-9.147 1.2337732-1.8494083 1.1721313-4.27465615-.154-6.059-.6787115-.87516992-1.6128762-1.51751737-2.673-1.838-.8626209-.2006407-1.7556378-.23458281-2.631-.1-.1166369-.32954251-.2622046-.64811814-.435-.952-.008-.016-.027-.022-.037-.036s0-.033-.014-.049c-1.3638405-2.00410293-3.68161-3.14271069-6.1013932-2.99731863s-4.584544 1.55333151-5.6986068 3.70631863c-.8013475-1.7284515-2.3118174-3.02527961-4.1416298-3.55583508s-3.799715-.24286397-5.4013702.78883508c-3.874 2.32-3.247 6.639-3.247 10.531 0 .421 1.448.158 1.448-.388 0-1.521-.108-3.082 0-4.6.21-2.923.969-7.795 7.031-5.393 2.345.929 3.289 3.086 3.521 5.38v5c0 .312 1.448.083 1.448-.388v-4.915c.31-3.052.938-3.23 4.078-4.126 3.159-.9 3.857-1.038 5.693 1.481.2009265.35411877.3654342.72769549.491 1.115.064.17.28.2.438.2.9446979-.14507122 1.9087221-.10259571 2.837.125.9368827.37620797 1.7290635 1.04190605 2.261 1.9 1.0422609 1.68456809.9535406 3.8340544-.224 5.427l-.02.03c-.132.2.018.358.225.389 4.2103201.5922732 7.1845903 4.4277962 6.71 8.653-.051.318-.242.73-.142 1.032.083.252.663.7.859.962.7624235 1.0355153 1.2165548 2.2654831 1.31 3.548h-7.939c-.484 0-1.558.726-.59.726h8.541c-.075701 1.515023-.6279671 2.9674338-1.578 4.15-.0307832.0367509-.0493133.0822021-.053.13-.0187906.0575577.0018382.1206575.051.156 1.4342039 1.1570864 2.3526514 2.8343765 2.555 4.666h-13.495v-24.524c0-.712-1.462-.463-1.462.132v24.4h-10.545v-13.366c0-1.506-.046-2.223-1.7-2.468-2.2411834-.1590023-4.4908166-.1590023-6.732 0-.487 0-1.557.732-.588.732 1.892 0 4.175-.371 6.02 0 2.006.4 1.55 1.575 1.55 3.415v11.686h-.283c-2.387 0-3.691.715-4.259-1.582-.575-2.327 1.029-5.941-.01-8.077-.959-1.975-3.219-1.341-5.181-1.341-1.779 0-6.01-.908-7.572.4-1.475 1.23-.7 4.5-.7 6.193 0 .762 1.468.551 1.468-.108 0-1.15-.438-3.167 0-4.219.593-1.423.682-1.192 2.376-1.192 2.139 0 7.259-.972 8.156 1.017 1.359 3.019-2.306 8.9 1.932 9.983 1.728.441 4.137 0 5.914 0h5.164v14.655c0 .4 1.448.142 1.448-.388v-8.421h4.831c.934 0 1.584-.126 1.721 1.038.0524907.9229209.0524907 1.8480791 0 2.771 0 .4 1.448.144 1.448-.388.0819998-.9856308.0819998-1.9763692 0-2.962-.188-1.071-.943-1.192-1.869-1.229-2.036-.082-4.09-.013-6.131 0v-5.08h19.21c.3598586.0268211.681137-.2243129.742-.58.0273466-.0450675.0428284-.0963293.045-.149-.0354071-2.1052293-.9780815-4.0926464-2.586-5.452z" fill="#262626"/><path id="Path" d="m53.315 42.616c-.3516376.0088694-.6913429.1293423-.97.344-.6572952.682008-1.4661991 1.1993502-2.361 1.51-.1912483.0346008-.3749997.1022809-.543.2-.115.064-.2.141-.175.23.1534266 3.5282124-2.1307055 6.7020192-5.525 7.677h-.012c-.308.066-.6.186-.643.344-1.128 4.174-5.294 7.413-10.268 4.81-2.7-1.414-3.882-4.05-4.094-6.933 0-2.237 1.2-7.4-1.435-8.189-2.505-.749-5.8-.329-6.013 2.465-.06.786.256 2.074-.308 2.535-1.0496454.1880339-2.1243546.1880339-3.174 0-1.545-.56-1.07-2.115-1.07-3.551v-11.252c0-.4-1.448-.142-1.448.388v4.513h-7.806c-.306 0-1.637.586-.94.586h8.746v5.877c0 .932-.405 3.02.342 3.812.8.85 3.4.468 4.322.4.866-.062 1.9.02 2.489-.775 1.038-1.408-.592-3.571 1.053-4.225 2.093-.832 3.622.158 3.794 2.039s0 3.871 0 5.772c-.261 3.453-1.713 6.027-5.356 7.325-2.6799647.5140994-5.4320865-.4263451-7.237-2.473-.5540362-.6518808-1.0086205-1.3821137-1.349-2.167-.1048105-.4195288-.2350512-.8322915-.39-1.236-.1993343-.8854801-.249356-1.7980377-.148-2.7.083-.742-1.394-.548-1.468.11-.0631102.5732577-.0708125 1.1512642-.023 1.726-.5396712-.1595874-1.0526134-.3985336-1.522-.709-2.00614941-1.5720967-3.13941285-4.0088547-3.049-6.556 0-.034-.046-.055-.11-.069-.009 0-.006-.011-.018-.015-2.2872042-.746664-4.02800673-2.6195466-4.60570715-4.9551562-.57770042-2.3356097.08929958-4.8040492 1.76470715-6.5308438l.55-.48c.04654576-.0294106.07307892-.0820923.069-.137-2.31020101-2.7896466-2.1151619-6.8798334.45-9.437.078-.061.133-.126.12-.193-.776-4.2 1.278-8.576 5.96-9.373.046-.008 1-.254.86-.457-1.3077453-1.7774092-1.3315105-4.1921971-.059-5.995.1-.151-1.2-.1-1.429.258-1.22982328 1.75825381-1.26938718 4.0869849-.1 5.886-4.553 1.2-7.582 5.048-6.689 10.018-1.1064201 1.0700221-1.84900018 2.4603922-2.123 3.975-.15244392.9142344-.12458759 1.8494596.082 2.753.135.591 1.469 2.883 1 3.3-1.75222716 1.7630587-2.46774853 4.3070804-1.89146013 6.725048.5762884 2.4179677 2.36237184 4.3657672 4.72146013 5.148952-.06969955 2.4734503.99292447 4.8435511 2.886 6.437.852.712 1.965.927 2.815 1.537 1.02.733 1.5 2.613 2.33 3.628 2.1851783 2.3207569 5.4600298 3.2686899 8.547 2.474.0519099-.0129406.1030008-.0289691.153-.048.0786385-.0123102.1562042-.0306987.232-.055 2.5160522-.7177362 4.5930012-2.4988131 5.686-4.876 2.9 7.05 14.172 6.936 16.526-1.193 3.668023-1.0192799 6.2178531-4.3441344 6.251-8.151 1.0998855-.3996621 2.1028247-1.0273937 2.943-1.842.23-.228-.205-.238-.34-.23z" fill="#262626"/><path id="Path" d="m34.726 28.915v-23c0-.627-1.452-.332-1.452.17v10.5h-13.89c-1.176 0-2.915-.322-4.026.259-1.748.913-1.083 3.542-1.083 5.248 0 .61 1.45.308 1.45-.178 0-1.17-.441-3.916.349-4.493.876-.64 4.624 0 5.695 0h11.505v11.664c0 .627 1.452.332 1.452-.17z" fill="#262626"/></g></svg>