<svg id="Layer_1" enable-background="new 0 0 91 91" height="512" viewBox="0 0 91 91" width="512" xmlns="http://www.w3.org/2000/svg"><g><path d="m28.2 69.6c-1.1-1.9-2.4-3.7-3.3-5.7-1.5-3.1-2-6.5-2.4-9.9-.9-6.9-1.3-14.1 1-20.6.9-2.5 2.7-5.1 5.3-5.4.7-.1 1.4 0 2-.4s.7-1.2.8-2c.3-3.1.4-6.3.3-9.5-.1-3.1-.5-6.3.8-9.1s5-4.7 7.5-3c2 1.4 2.3 4.1 2.3 6.6.1 4.6.3 9.1.4 13.7.1 1.6.6 3.6 2.1 3.7.7 0 1.4-.5 2.1-.8 1.5-.6 3.4.3 4 1.9.5 1.3.1 2.9 1 3.9 1.4 1.5 3.9.3 5.8 1 2.5.9 2.5 2.9 3.9 3.9 2 1.5 4.5.3 6.5 1.7 1.6 1.1 1.9 3.2 2 5.1.3 4.6.1 9.2-.5 13.8-.3 2.4-.8 4.7-1.6 7-.9 2.4-2.2 4.7-3.2 7-1.7 3.7-2.7 7.7-3.1 11.7-.1 1.4-.1 3-1.1 4.1-1.9 2-26.3 2.6-28.5.4-1.8-1.8-.4-5.8-.6-8.1-.4-3.8-1.6-7.6-3.5-11z" fill="#f9e7cf"/><path d="m34.2 10.9c.5-1.7 1.8-3.3 3.4-3.3 1 0 1.9.7 2.5 1.5s1 1.8 1.4 2.8c.5-1.8.2-3.8-.3-5.6-.1-.5-.3-1-.5-1.4-.9-1.5-3.7-1.5-5.1-.5s-2.1 2.7-2.6 4.4c-.7 2.1.8 3.6 1.2 2.1z" fill="#fff"/><path d="m24.4 41.5c-.4 2.9-1.1 2.5-1.8 2.9-1.2-4.2-.6-8.8 1.3-12.7.9-2 2.6-3.9 4.7-4 .6-.1 1.3.1 1.7.5.3.4.4 1 .4 1.5 0 1-.1 2.1-.7 2.9-.5.7-1.4 1.2-2.1 1.8-2.6 2.1-3.5 7.1-3.5 7.1z" fill="#fff"/><g fill="#e2c5b4"><path d="m30.7 47.9c.3-5.2-.1-14.6 2.6-15.5.6 3.3 1.5 6.6 1.8 10s.1 6.9-1.4 9.9c-.2.3-.4.7-.7.8-.5.3-1.2 0-1.5-.5-.4-.3-.9-3.6-.8-4.7z"/><path d="m65.5 65.2c-2.7 3.8-6.9 6.4-8.6 10.9-1 2.5-1.1 5.4-1.1 8.1 0 1.7.1 3.6 1.3 4.5 1 .8 2.4.5 3.6.2.3-.1.6-.1.8-.3.3-.2.5-.6.6-.9 1.4-3.1.9-6.9 1.6-10.3.7-3.7 2.7-6.9 4.4-10.2 1.1-2 2-4.2 2.5-6.5.2-.8.9-5.2-.3-5.3-1.1-.1-1.8 3.1-2 3.9-.7 2.3-1.6 4.2-2.8 5.9z"/><path d="m51.3 40.5c.6.2 1.3-.1 1.8-.6 1.4-1.3 2-7.7-1.1-6.7-2.4.9-3.4 6.6-.7 7.3z"/><path d="m61.2 44.4c.6.2 1.3-.1 1.8-.6 1.4-1.3 2-7.7-1.1-6.7-2.4.9-3.4 6.6-.7 7.3z"/><path d="m42.1 35.8c.7.2 1.4-.1 2-.6 1.5-1.3 2.2-7.7-1.2-6.7-2.6.9-3.8 6.5-.8 7.3z"/></g><g fill="#4e7a9f"><path d="m33.9 87.2c.2-4.8-.3-9.9-1.8-14.5-1.6-5-4.9-9.1-6.3-14.1s-1.3-10.2-.9-15.3c.4-4.5.2-12.3 5.9-13.3 3-.5 1.7-5-1.2-4.5-5.1.9-7.7 5.6-8.5 10.3-1 5.7-1.4 11.9-.9 17.7.6 5.9 2.8 10.7 5.5 15.9 3 5.8 3.2 11.9 4.2 18.3.5 2.4 4 1.7 4-.5z"/><path d="m32.9 49.2c1.6-5.7 1-12.2 1-18 .1-6.3 0-12.5.3-18.8.1-2 1.3-9.5 4.8-6.3 1.7 1.5 1.6 4.7 1.6 6.7.1 6.3.6 12.5 0 18.8-.3 2.8 4 3.1 4.8.6.8-2.4 3.5-3 4-.3.3 1.4.2 2.8.3 4.2.1 2 2.6 3.2 4.1 1.7 2.7-2.7 5.5-.7 5.7 2.7.1 2 2.5 3.2 4.1 1.7 1.3-1.3 3.4-.1 4.1 1.1 1.1 1.9.9 4.5.9 6.6.1 4.8 0 9.9-2.1 14.3-1.8 3.7-4.4 6.9-5.6 10.9-1.3 4.2-1.6 8.7-1.7 13-.1 2.8 4.5 2.8 4.4 0-.3-6.7.7-12.5 4.1-18.3 3.1-5.1 4.8-10.2 5.3-16.2.4-4.6 1.1-11-2.5-14.6-2.7-2.7-7.5-3.1-10.2-.3 1.4.6 2.7 1.1 4.1 1.7-.4-7.5-8.1-11.9-13.9-6.1 1.4.6 2.7 1.1 4.1 1.7-.2-3.7.2-8.6-3.9-10.2-4.6-1.9-8.5.7-10 5 1.6.2 3.2.4 4.8.6.4-4.2.4-8.5.1-12.7-.2-3.4-.1-7-.8-10.4-1.2-5-6.3-10.3-11.4-5.8-5.4 4.8-3.7 14.7-3.6 21.1.1 4.3.2 8.5.2 12.8.1 4.2-.2 8.7.8 12.8.3 1.1 1.8 1 2.1 0z"/></g></g></svg>