<svg height="512" viewBox="0 0 61 60" width="512" xmlns="http://www.w3.org/2000/svg"><g id="004---Content-Writing" fill="none"><path id="Path" d="m7.885 59.471c-.22333341-.0001747-.41946874-.1484382-.48054706-.3632574s.02771353-.4440945.21754706-.5617426l10.085-6.238-12.292 7.092c-.23543794.13455-.53521485.0569022-.67572813-.1750261s-.0705395-.5335888.15772813-.6799739l20.046-12.685-22.164 12.796c-.23508655.127347-.52875831.0472199-.66659082-.1818764-.13783251-.2290964-.071048-.5260868.15159082-.6741236l19.591-12.26-19.575 11.302c-.23617349.1361818-.537908.0580681-.67833183-.1756081-.14042384-.2336761-.06777083-.5367718.16333183-.6813919l20.135-12.602-19.62 11.328c-.23546673.1225198-.52563259.0396943-.66094465-.1886614-.13531207-.2283558-.0686058-.5226457.15194465-.6703386l7.484-4.559-6.975 4.026c-.23638246.1285498-.53210687.0469768-.6691568-.184581-.13704993-.2315579-.06627089-.5300498.1601568-.675419l.458-.277c-.2394532.1017637-.51693171.0028831-.63806663-.2273776-.12113492-.2302608-.04543789-.514939.17406663-.6546224l20.384-12.769-19.869 11.469c-.23583577.1260453-.52910097.0442222-.66561588-.1857118-.13651492-.2299339-.06795177-.5265795.15561588-.6732882l11.144-6.828-10.634 6.143c-.23385139.1157814-.51741782.0322586-.6511717-.1917988s-.07271316-.5132978.1401717-.6642012l13.239-8.142-12.728 7.342c-.23571786.1278172-.53029699.0469384-.66770199-.1833224-.13740501-.2302607-.06871185-.5279174.15570199-.6746776l16.274-10.072-15.763 9.1c-.23638246.1285498-.53210687.0469768-.6691568-.184581-.13704993-.2315579-.06627089-.5300498.1601568-.675419l5.91-3.591-5.4 3.118c-.23775858.1405565-.54444353.0617586-.685-.176s-.06175858-.5444435.176-.685l5.629-3.42-5.12 2.957c-.23701856.1320316-.53608427.0509486-.6739531-.1827228-.13786884-.2336714-.06422739-.5346559.1659531-.6782772l.428-.252c-.24263233.0884661-.51271614-.0224077-.62320556-.255836-.11048941-.2334284-.02502479-.5125951.19720556-.644164l5.2-3.157-4.695 2.704c-.23628449.1306359-.5336041.0500916-.67163931-.181948s-.06692381-.5317553.16063931-.677052l13.9-8.557-13.389 7.727c-.2353357.1240261-.52657993.04207-.66269982-.1864836-.13611989-.2285535-.06945065-.5236725.15169982-.6715164l12.188-7.481-11.677 6.742c-.23775858.1419371-.54556279.0642585-.68749996-.1735-.14193717-.2377586-.0642586-.5455628.17349996-.6875l18.219-11.344-17.705 10.222c-.2353357.1240261-.52657993.04207-.66269982-.1864836-.13611989-.2285535-.06945065-.5236725.15169982-.6715164l12.614-7.767-12.103 6.987c-.23460579.1253855-.5263122.0451285-.66376043-.18262s-.07251115-.523243.14776043-.67238l19.837-12.514-19.321 11.152c-.23543794.13455-.53521485.0569022-.67572813-.1750261s-.0705395-.5335888.15772813-.6799739l19.916-12.649-19.4 11.2c-.23638246.1285498-.53210687.0469768-.6691568-.184581-.13704993-.2315579-.06627089-.5300498.1601568-.675419l1.61-.979-1.1.635c-.23497088.1292146-.53003872.050062-.66879247-.179405-.13875376-.2294671-.07178369-.5275361.15179247-.675595l17.462-11.076-16.944 9.782c-.23617349.1361818-.537908.0580681-.67833183-.1756081-.14042384-.2336761-.06777083-.5367718.16333183-.6813919l13.136-8.232-12.621 7.288c-.23628449.1306359-.5336041.0500916-.67163931-.181948s-.06692381-.5317553.16063931-.677052l4.954-3.05-4.443 2.565c-.23617349.1361818-.537908.0580681-.67833183-.1756081-.14042384-.2336761-.06777083-.5367718.16333183-.6813919l9.279-5.815-8.764 5.06c-.23693016.1419372-.5440628.0649301-.68599998-.172-.14193717-.2369302-.06493016-.5440628.17199998-.686l5.694-3.551-5.18 2.991c-.23477127.1336383-.53323995.0566316-.67405087-.1739091-.14081092-.2305408-.07304023-.5312411.15305087-.6790909l10.242-6.626-9.721 5.612c-.23265.1288599-.5254615.0530472-.66634439-.1725252s-.08052968-.5219566.13734439-.6744748l11.244-7.591-10.715 6.187c-.2341443.133112-.53165209.0568382-.67287099-.1725078-.1412189-.2293459-.07539606-.5293391.14887099-.6784922l5.845-3.84-5.321 3.069c-.2313261.1333882-.5266402.061466-.67072696-.1633522-.14408676-.2248181-.08608875-.5231794.13172696-.6776478l7.654-5.41-7.115 4.105c-.22977999.1349572-.525025.0659893-.67123752-.156798-.14621251-.2227873-.09200627-.5210957.12323752-.678202l5.825-4.31-5.277 3.046c-.23198312.1309881-.52592847.05707946-.6683699-.16805269-.14244144-.22513216-.0833463-.52241.1343699-.67594731l.667-.462-.133.077c-.23080222.1338179-.52601117.06285643-.670779-.16123991-.14476784-.22409633-.08809237-.52237765.128779-.67776009l.568-.408-.026.014c-.21623774.12475173-.49135924.07089051-.64459048-.12619308-.15323123-.1970836-.13761383-.47699246.03659048-.65580692l2.329-2.387-1.72.994c-.20268671.11719724-.45955827.07805179-.61813502-.09419951-.15857676-.1722513-.17638968-.43147719-.04286498-.62380049l.736-1.068c-.18897326.01352406-.36869618-.08354971-.461-.249-.13823272-.23887839-.05677133-.54458242.182-.683l1.631-.943c.20268671-.11719724.45955827-.07805179.61813502.09419951.15857676.1722513.17638968.43147719.04286498.62380049l-.668.966 2.938-1.692c.21623774-.12475173.49135924-.07089051.64459048.12619308.15323123.1970836.13761383.47699246-.03659048.65580692l-2.329 2.385 5.49-3.167c.2308022-.1338179.5260112-.06285643.670779.16123991.1447678.22409633.0880924.52237765-.128779.67776009l-.568.409 2.162-1.248c.2319831-.1309881.5259285-.05707946.6683699.16805269.1424414.22513216.0833463.52241-.1343699.67594731l-.668.462 2.263-1.306c.22978-.13495719.525025-.06598931.6712375.15679801s.0920063.52109566-.1232375.67820199l-5.82 4.306 8.907-5.141c.2313261-.13338821.5266402-.06146595.670727.16335216.1440867.22481812.0860887.52317941-.131727.67764784l-7.656 5.411 10.834-6.252c.2347029-.14055309.538787-.06638835.6824238.16644007.1436368.23282843.0734897.5378644-.1574238.68455993l-5.841 3.84 8.125-4.691c.23265-.12885992.5254615-.05304724.6663444.17252517s.0805297.52195667-.1373444.67447483l-11.246 7.589 14.617-8.436c.2355494-.1441463.5433537-.07004943.6875.16550001s.0700494.54335366-.1655.68749999l-10.237 6.614 12.939-7.467c.1532669-.09199589.3439707-.09523666.5002749-.00850154s.2544627.25026899.2575.429-.089508.34550565-.2427749.43750154l-5.7 3.558 7.65-4.416c.2361735-.13618181.537908-.05806811.6783318.17560806.1404239.23367616.0677709.53677186-.1633318.68139194l-9.277 5.811 11.373-6.568c.2372063-.1413849.5441151-.0637063.6855.1735s.0637063.5441151-.1735.6855l-4.956 3.051 5.752-3.32c.2350866-.12734701.5287583-.04721993.6665908.18187644.1378325.22909636.071048.52608673-.1515908.67412356l-13.137 8.233 13.821-7.979c.2354379-.13454995.5352149-.05690217.6757281.17502611.1405133.23192829.0705395.53358878-.1577281.67997389l-17.464 11.075 18.306-10.57c.2377586-.14083259.5446674-.06225856.6855.17550001.1408326.23775858.0622586.54466737-.1755.68549999l-1.61.979 1.863-1.076c.2361017-.14331788.5436821-.06810171.687.16800001s.0681017.54368209-.168.68699999l-19.911 12.647 20.855-12.041c.2363779-.14276559.5437344-.06687785.6865.16950001.1427656.23637787.0668779.54373438-.1695.68649999l-19.831 12.513 20.72-11.963c.1534456-.09145999.3440284-.09411027.4999579-.0069525.1559295.08715776.2535161.25088224.256.4295.0024839.17861775-.0905123.34499251-.2439579.4364525l-12.616 7.768 12.972-7.489c.2361735-.13618181.537908-.05806811.6783318.17560806.1404239.23367616.0677709.53677186-.1633318.68139194l-18.221 11.347 18.026-10.407c.2362845-.1306359.5336041-.0500916.6716393.181948s.0669238.5317553-.1606393.677052l-12.2 7.486 11.689-6.747c.2362845-.1306359.5336041-.0500916.6716393.181948s.0669238.5317553-.1606393.677052l-13.887 8.551 13.376-7.722c.2363825-.1285498.5321069-.0469768.6691568.184581.1370499.2315579.0662709.5300498-.1601568.675419l-5.215 3.167 4.706-2.717c.2377586-.1405565.5444435-.0617586.685.176s.0617586.5444435-.176.685l-.422.255c.2413353-.0824132.5060228.030006.6142878.2609028.1082649.2308969.025411.5062744-.1922878.6390972l-5.643 3.428 5.134-2.966c.2363825-.1285498.5321069-.0469768.6691568.184581.1370499.2315579.0662709.5300498-.1601568.675419l-5.91 3.592 5.4-3.118c.2357179-.1278172.530297-.0469384.667702.1833224.137405.2302607.0687118.5279174-.155702.6746776l-16.264 10.072 15.753-9.1c.2362845-.1306359.5336041-.0500916.6716393.181948s.0669238.5317553-.1606393.677052l-13.248 8.152 12.737-7.353c.2358358-.1260453.529101-.0442222.6656159.1857118.1365149.2299339.0679517.5265795-.1556159.6732882l-11.13 6.819 10.62-6.132c.2361735-.1361818.537908-.0580681.6783318.1756081.1404239.2336761.0677709.5367718-.1633318.6813919l-20.39 12.775 19.875-11.478c.2377586-.1405565.5444435-.0617586.685.176s.0617586.5444435-.176.685l-.458.277c.2400247-.0997117.5164183.0011023.6358775.2319351.1194593.2308328.0421422.5146971-.1778775.6530649l-7.485 4.555 6.976-4.027c.2350866-.127347.5287583-.0472199.6665908.1818764.1378325.2290964.071048.5260868-.1515908.6741236l-20.135 12.604 19.62-11.326c.2361735-.1361818.537908-.0580681.6783318.1756081.1404239.2336761.0677709.5367718-.1633318.6813919l-19.602 12.266 19.087-11.019c.2349709-.1292146.5300387-.050062.6687925.179405.1387537.2294671.0717837.5275361-.1517925.675595l-20.044 12.687 19.527-11.274c.2357179-.1278172.530297-.0469384.667702.1833224.137405.2302607.0687118.5279174-.155702.6746776l-10.086 6.239 9.574-5.526c.234023-.1252853.5251579-.0458598.6631351.1809119.1379772.2267718.0746978.5218373-.1441351.6720881l-16.194 10.383 15.675-9.05c.2357179-.1278172.530297-.0469384.667702.1833224.137405.2302607.0687118.5279174-.155702.6746776l-4.083 2.526 3.571-2.06c.2337734-.1287456.5274505-.051198.667188.1761759.1397374.2273739.07627.5244122-.144188.6748241l-13.173 8.612 12.65-7.3c.2335877-.1237383.5231326-.0442789.6608429.1813541s.0760007.5194731-.1408429.6706459l-8.14 5.247 7.621-4.4c.233204-.1287421.5263939-.0520483.6666872.1743946.1402933.226443.0784231.5231151-.1406872.6746054l-8.609 5.71 8.084-4.667c.2342478-.1308833.5300435-.0535271.6702262.1752769s.074765.527467-.1482262.6767231l-3.614 2.349 3.092-1.786c.2341443-.133112.5316521-.0568382.672871.1725078.1412189.2293459.075396.5293391-.148871.6784922l-2.678 1.759 2.153-1.239c.2313246-.1263251.5209869-.0513891.6620294.1712679.1410425.2226569.0850249.5165645-.1280294.6717321l-4.155 2.865 3.623-2.092c.2304184-.1322364.5240189-.0611893.6684864.1617642.1444674.2229535.0893536.5199576-.1254864.6762358l-3.659 2.646 3.114-1.8c.2296891-.1296297.5205695-.0585592.6646041.1623819s.0916869.5157667-.1196041.6736181l-1.621 1.188 1.076-.621c.2206356-.1300292.503851-.072325.6560244.1336626s.1241014.4936554-.0650244.6663374l-2.388 2.219 1.8-1.037c.2208953-.136633.509623-.0813788.6644625.1271591.1548394.208538.1242214.5009064-.0704625.6728409l-.451.43c.2115955-.0424917.4269418.0533515.537.239.1382327.2388784.0567713.5445824-.182.683l-3.412 1.963c-.2209688.1391878-.5118365.0848763-.6676883-.1246724-.1558519-.2095487-.1241864-.5037444.0726883-.6753276l.376-.357-2 1.152c-.2189025.1201862-.4929174.06043-.6419045-.1399842-.1489872-.2004142-.1272572-.480026.0509045-.6550158l2.389-2.22-5.227 3.02c-.2296891.1296297-.5205695.0585592-.6646041-.1623819s-.0916869-.5157667.1196041-.6736181l1.616-1.183-3.5 2.02c-.2304184.1322364-.5240189.0611893-.6684864-.1617642-.1444674-.2229535-.0893536-.5199576.1254864-.6762358l3.659-2.65-6.042 3.487c-.23158.1294027-.5239091.0554223-.6660571-.1685604-.142148-.2239828-.0846277-.5199909.1310571-.6744396l4.157-2.868-6.429 3.711c-.2333291.1269664-.5252099.0493179-.6646076-.1768043-.1393976-.2261221-.0776459-.5217747.1406076-.6731957l2.677-1.759-4.518 2.609c-.2337734.1287456-.5274505.051198-.667188-.1761759-.1397374-.2273739-.07627-.5244122.144188-.6748241l3.628-2.358-5.558 3.209c-.2335451.1328438-.5303244.0573638-.6720248-.1709163s-.0776546-.5277351.1450248-.6780837l8.6-5.705-11.355 6.554c-.2335877.1237383-.5231326.0442789-.6608429-.1813541s-.0760007-.5194731.1408429-.6706459l8.145-5.248-10.567 6.1c-.2337734.1287456-.5274505.051198-.667188-.1761759-.1397374-.2273739-.07627-.5244122.144188-.6748241l13.18-8.617-16.402 9.468c-.2352087.125628-.5276152.0445694-.664573-.1842276-.1369579-.228797-.070267-.5248112.151573-.6727724l4.061-2.513-5.838 3.37c-.2343611.1288923-.5286543.0505227-.6678755-.1778537-.1392213-.2283764-.0740613-.5258734.1478755-.6751463l16.197-10.383-19.465 11.236c-.07561844.0452887-.16186523.0697828-.25.071z" fill="#ccd0da"/><path id="Path" d="m17.867 28.471c-.2193644.0000724-.413158-.1428481-.4778958-.3524424-.0647378-.2095942.0147008-.4369085.1958958-.5605576l5.4-3.7-7.841 4.527c-.2341443.133112-.5316521.0568382-.672871-.1725078-.1412189-.2293459-.075396-.5293391.148871-.6784922l4.338-2.843-5.407 3.121c-.2347034.1364868-.5354374.0607325-.6774741-.1706544-.1420368-.2313868-.073465-.5338394.1544741-.6813456l4.532-2.941-4.886 2.821c-.2327682.1379387-.5330334.0656905-.677577-.1630348s-.0809181-.5309351.143577-.6819652l9.136-6.3-9 5.2c-.2354116.1379583-.5379577.061708-.6798637-.1713453-.1419059-.2330532-.070765-.5368414.1598637-.6826547l.424-.272c-.2368084.077313-.4944051-.0314844-.6040961-.2551435-.1096911-.2236591-.0380121-.4939461.1680961-.6338565l4.219-2.887-3.683 2.121c-.2292793.1356576-.5246567.0677215-.6716308-.1544735-.1469742-.2221949-.0939218-.520605.1206308-.6785265l4.916-3.694-4.365 2.52c-.2308022.1338179-.5260112.0628564-.670779-.1612399s-.0880924-.5223777.128779-.6777601l1.061-.761-.519.3c-.2220099.1247109-.5022812.0626525-.6508926-.1441224-.1486115-.2067749-.1180855-.4922068.0708926-.6628776l2.232-1.941-1.654.955c-.1992437.1162507-.4521568.0811062-.6121555-.0850646-.1599987-.1661707-.1855498-.4202324-.0618445-.6149354l1.153-1.848-.479.276c-.23893.1358451-.5427102.0533708-.6801373-.1846528-.137427-.2380237-.0569695-.5423443.1801373-.6813472l2.214-1.276c.1992437-.1162507.4521568-.0811062.6121555.0850646.1599987.1661707.1855498.4202324.0618445.6149354l-1.152 1.849 4.412-2.549c.2229237-.1277986.5064223-.0658196.6556784.1433455.1492561.2091652.11567.4974096-.0776784.6666545l-2.233 1.942 4.769-2.753c.2308022-.1338179.5260112-.0628564.670779.1612399s.0880924.5223777-.128779.6777601l-1.059.759 2.772-1.6c.2292793-.1356576.5246567-.0677215.6716308.1544735.1469742.2221949.0939218.520605-.1206308.6785265l-4.916 3.7 7.844-4.529c.2333482-.1425022.537887-.0711396.6836338.1601958.1457468.2313355.0786439.5368412-.1506338.6858042l-4.218 2.886 6.467-3.734c.2354116-.1379583.5379577-.061708.6798637.1713453.1419059.2330532.070765.5368414-.1598637.6826547l-.234.151 1.74-1c.2327682-.1379387.5330334-.0656905.677577.1630348s.0809181.5309351-.143577.6819652l-9.136 6.3 10.72-6.204c.2355494-.1444225.5435775-.0705494.688.165s.0705494.5435775-.165.688l-4.536 2.942 4.033-2.328c.2341443-.133112.5316521-.0568382.672871.1725078.1412189.2293459.075396.5293391-.148871.6784922l-4.335 2.837 3.811-2.2c.2328603-.1351428.5309189-.0616362.6742423.1662803.1433233.2279164.080443.5283964-.1422423.6797197l-5.407 3.7 4.876-2.815c.2328603-.1351428.5309189-.0616362.6742423.1662803.1433233.2279164.080443.5283964-.1422423.6797197l-2.782 1.9 2.25-1.3c.227445-.1317107.5180356-.064845.6650404.1530278.1470048.2178727.1002333.512366-.1070404.6739722l-4.459 3.5 3.9-2.252c.2206356-.1300292.503851-.072325.6560244.1336626s.1241014.4936554-.0650244.6663374l-2.985 2.798 2.395-1.383c.2167987-.1191224.4881174-.0618073.638215.1348206s.1338516.473458-.038215.6511794l-.9.9.085-.049c.23893-.1358451.5427102-.0533708.6801373.1846528.137427.2380237.0569695.5423443-.1801373.6813472l-3.34 1.93c-.2167987.1191224-.4881174.0618073-.638215-.1348206s-.1338516-.473458.038215-.6511794l.9-.9-2.929 1.686c-.2206356.1300292-.503851.072325-.6560244-.1336626s-.1241014-.4936554.0650244-.6663374l2.986-2.788-6.212 3.588c-.2271272.1307942-.5167067.0640046-.6636035-.1530559-.1468968-.2170604-.1012506-.5107158.1046035-.6729441l4.46-3.5-7.493 4.326c-.2321092.1290838-.5246372.0541763-.6661393-.170578-.1415021-.2247542-.0825963-.5209195.1341393-.674422l2.777-1.9-4.756 2.745c-.0756184.0452887-.1618652.0697828-.25.071z" fill="#f0f2f5"/><path id="Path" d="m12.963 14.5c-.2189143.000551-.4127315-.1413708-.4783025-.3502349-.0655709-.2088641.0123537-.4360968.1923025-.5607651l1.807-1.259-2.204 1.27c-.2275891.1298897-.5168511.062032-.6629348-.1555172-.1460838-.2175492-.0994243-.5109773.1069348-.6724828l3.406-2.642-2.851 1.646c-.220439.1262233-.5004889.0670999-.6510942-.1374575-.1506054-.2045574-.1238973-.4895314.0620942-.6625425l2.452-2.259-1.863 1.076c-.2079146.11942938-.4713404.07444985-.6278456-.10720358-.1565052-.18165344-.1620244-.44883481-.0131544-.63679642l1.051-1.324c-.2283706.0051146-.4311709-.14519207-.4927094-.36517455s.0338336-.45370071.2317094-.56782545l1.933-1.117c.2077897-.1170641.4693336-.07107456.6247252.10985091.1553917.18092547.1613679.44641466.0142748.63414909l-.948 1.194 3.495-2.013c.220439-.12622335.5004889-.06709988.6510942.13745749.1506054.20455737.1238973.48953139-.0620942.66254251l-2.452 2.256 5.3-3.059c.2277686-.13271241.5194462-.06579338.6665848.15293332.1471386.21872669.0991876.51411564-.1095848.67506668l-3.407 2.641 6.01-3.466c.2318603-.13306172.527371-.0602043.6708066.16538571.1434357.22559001.0840493.52409963-.1348066.67761429l-1.811 1.257 3.647-2.1c.2329673-.1327691.5291919-.0581284.6714287.16918215.1422368.22731056.0798406.52635392-.1414287.67781785l-.067.046 1.546-.893c.232192-.13787542.5319082-.06647123.6769921.16128616.1450839.22775738.0831069.529564-.1399921.68171384l-1.75 1.218 3.535-2.04c.2296891-.12962966.5205695-.0585592.6646041.16238191.1440346.2209411.0916869.51576672-.1196041.67361809l-3.392 2.476 4.584-2.647c.2292793-.13565759.5246567-.0677215.6716308.15447347.1469742.22219497.0939218.52060505-.1206308.67852653l-3.07 2.307 3.426-1.978c.220439-.12622335.5004889-.06709988.6510942.13745749.1506054.20455737.1238973.48953139-.0620942.66254251l-3.3 3.038 2.944-1.7c.2104359-.12064114.4771079-.07284077.6325393.11338126.1554313.18622203.1547824.45714344-.0015393.64261874l-1.492 1.762.872-.5c.17411-.10075.3916429-.0873499.5520709.0340079s.2325077.3270387.1829291.5219921l-.27 1.068c.1711675.0769674.2848189.2433055.2943067.4307415.0094877.187436-.0867862.3644002-.2493067.4582585l-.5.288c-.1738832.0998352-.3905888.086141-.5505213-.0347889s-.2321565-.3257042-.1834787-.5202111l.2-.788-2.335 1.348c-.2107644.1231972-.4796808.0761792-.6361391-.1112241-.1564582-.1874033-.1547085-.4603935.0041391-.6457759l1.492-1.762-4.37 2.524c-.220439.1262233-.5004889.0670999-.6510942-.1374575-.1506054-.2045574-.1238973-.4895314.0620942-.6625425l3.3-3.038-6.658 3.844c-.2292793.1356576-.5246567.0677215-.6716308-.1544735-.1469742-.2221949-.0939218-.520605.1206308-.6785265l3.071-2.309-5.439 3.143c-.2302873.1343427-.5254749.0643663-.6709518-.1590541-.1454768-.2234204-.0900639-.5216852.1259518-.6779459l3.388-2.479-5.749 3.32c-.2318603.1330617-.527371.0602043-.6708066-.1653857-.1434357-.22559-.0840493-.5240996.1348066-.6776143l1.742-1.215-3.569 2.061c-.2333681.1382671-.5344194.0652417-.6785003-.1645824-.144081-.2298241-.078635-.5326135.1475003-.6824176l.076-.051-1.56.9c-.0766924.0450999-.1640297.0689191-.253.069z" fill="#2783ec"/><path id="Path" d="m57.01 32.5c-.1977763-.000109-.376902-.1167863-.4569455-.2976414-.0800434-.180855-.0459603-.3918951.0869455-.5383586l.785-.866-1.735 1c-.2190652.1318893-.5023394.0772423-.6566242-.1266708s-.1298566-.4913741.0566242-.6663292l1.139-1.1-2.149 1.24c-.2207276.1320893-.5056598.0751513-.6586724-.1316224-.1530126-.2067738-.124171-.4959044.0666724-.6683776l1.512-1.398-2.622 1.514c-.2240372.1259992-.5071082.0616068-.6545964-.1489061s-.1113381-.4985559.0835964-.6660939l1.115-.938-1.045.6c-.2262112.1327757-.5165722.0681745-.6651499-.1479864-.1485778-.2161609-.1048589-.5103912.1001499-.6740136l.318-.259-.13.073c-.2167744.1265702-.4937926.0727938-.6474656-.1256899-.1536729-.1984837-.1363597-.4801417.0404656-.6583101l1.773-1.8-1.742 1.006c-.2079723.120645-.4723656.0761851-.6294405-.1058457-.157075-.1820307-.1623505-.4500842-.0125595-.6381543l1.548-1.949c-.1859086.006955-.36064-.0886672-.455-.249-.1380647-.2391402-.0561341-.5449248.183-.683l1.952-1.127c.2079146-.1194294.4713404-.0744499.6278456.1072036.1565052.1816534.1620244.4488348.0131544.6367964l-1.451 1.829 2.659-1.535c.2167744-.1265702.4937926-.0727938.6474656.1256899.1536729.1984837.1363597.4801417-.0404656.6583101l-1.773 1.8 2.378-1.374c.2263657-.1357025.5192228-.0720953.6689012.1452821.1496784.2173775.1046264.5136569-.1029012.6767179l-.32.259.53-.306c.2244518-.1286386.5099659-.0648202.6582866.1471407.1483207.211961.1104625.5020607-.0872866.6688593l-1.116.938 1.457-.841c.2207276-.1320893.5056598-.0751513.6586724.1316224.1530126.2067738.124171.4959044-.0666724.6683776l-1.5 1.407 1.93-1.113c.219385-.1342545.5048344-.0801688.6599003.1250351.1550659.2052038.1291551.4945743-.0599003.6689649l-1.14 1.1.951-.549c.2133584-.1241762.485411-.074054.640507.1180054.1550961.1920593.1468105.4685664-.019507.6509946l-1.905 2.1c.1320006.2383674.048842.5385386-.187.675l-.958.553c-.0777572.0412677-.1650314.0612752-.253.058z" fill="#ec3a48"/><path id="Path" d="m42.437 46.341c-.2093498.0000161-.3965449-.1303922-.4690734-.3267769-.0725284-.1963847-.0150324-.4171618.1440734-.5532231l3.747-3.21-5.126 2.959c-.2310609.1298083-.523268.0567757-.6660866-.1664779-.1428185-.2232536-.086628-.5191613.1280866-.6745221l5.145-3.634-6.146 3.548c-.23158.1294027-.5239091.0554223-.6660571-.1685604-.142148-.2239828-.0846277-.5199909.1310571-.6744396l7.912-5.5-8.317 4.8c-.2336556.130691-.5287926.0541466-.6694787-.1736308-.140686-.2277774-.0769932-.5259521.1444787-.6763692l3.126-2.051-3.233 1.866c-.2314518.1313128-.5252013.0583356-.6682918-.1660259-.1430904-.2243616-.0853808-.5214879.1312918-.6759741l7.864-5.528-8.293 4.788c-.2347713.1336383-.5332399.0566316-.6740509-.1739091-.1408109-.2305408-.0730402-.5312411.1530509-.6790909l1.276-.823c-.1752625.007156-.3406285-.0812688-.432-.231-.1438511-.2254659-.0848073-.5242099.134-.678l5.835-4.1-.856.494c-.2293391.1285228-.5190351.0574922-.6629121-.1625395s-.0927858-.5139004.1169121-.6724605l3.672-2.692c-.0864275-.0324756-.161973-.088615-.218-.162-.1506535-.2048653-.1235425-.4901759.063-.663l3.984-3.7c-.0322517-.2044146.0647557-.4075737.244-.511l.865-.5c.2205392-.1280792.5021318-.0696485.6535046.1356028.1513729.2052513.124009.4915375-.0635046.6643972l-1.746 1.623 2.274-1.312c.2296891-.1296297.5205695-.0585592.6646041.1623819s.0916869.5157667-.1196041.6736181l-2.288 1.674 2.7-1.557c.2314518-.1313128.5252013-.0583356.6682918.1660259.1430904.2243616.0853808.5214879-.1312918.6759741l-5.835 4.1 6.494-3.749c.2347713-.1336383.5332399-.0566316.6740509.1739091.1408109.2305408.0730402.5312411-.1530509.6790909l-.227.146.45-.26c.232192-.1378754.5319082-.0664712.6769921.1612862.1450839.2277573.0831069.529564-.1399921.6817138l-7.864 5.522 8.685-5.015c.2347029-.1405531.538787-.0663884.6824238.1664401.1436368.2328284.0734897.5378644-.1574238.6845599l-3.142 2.062 3.509-2.028c.2309506-.1251572.5193699-.0502601.6602447.1714532.1408749.2217132.0861633.5146329-.1252447.6705468l-7.908 5.498 5.272-3.04c.2310609-.1298083.523268-.0567757.6660866.1664779.1428185.2232536.086628.5191613-.1280866.6745221l-5.141 3.632.316-.182c.2233421-.1266456.5063058-.0635478.6546834.1459871.1483776.209535.1139372.4973954-.0796834.6660129l-5.166 4.426c.0394351.0356375.0731617.0771213.1.123.1373847.2389169.0555349.543953-.183.682l-2.671 1.543c-.0764111.043462-.1631072.0655678-.251.064z" fill="#fcc10a"/><path id="Path" d="m40.818 9.471c-.1917997-.00019503-.3665844-.11008942-.4498798-.2828582-.0832954-.17276877-.0604198-.3779593.0588798-.5281418l.633-.8-1.95 1.126c-.2155591.12451122-.4898785.07148712-.6435094-.12438605-.153631-.19587318-.1397727-.47492626.0325094-.65461395l.823-.858-.92.531c-.2053026.11908527-.4660343.07743123-.6240153-.09969158-.1579809-.17712281-.1696738-.4409018-.0279847-.63130842l1.23-1.663-.7.4c-.1930008.11068712-.435921.08053102-.5959992-.07398731-.1600782-.15451834-.1987991-.39622127-.0950008-.59301269l.7-1.328-.009.009c-.1635847.09458505-.3665174.08886955-.5245192-.01477283-.1580017-.10364238-.2440779-.28750434-.2224808-.47522717l.167-1.41c-.0393567-.03609065-.0730664-.07789072-.1-.124-.1380647-.23914015-.0561341-.54492481.183-.683l.23-.132c.1637481-.0947424.3669458-.08895358.5250346.01495752s.2439933.28814796.2219654.47604248l-.115.988.658-.38c.1930008-.11068712.435921-.08053102.5959992.07398731.1600782.15451834.1987991.39622127.0950008.59301269l-.7 1.328 1.273-.735c.2050606-.11812616.4648513-.07631434.6224934.10018675.157642.17650109.1699563.43934661.0295066.62981325l-1.238 1.663 1.885-1.088c.2156332-.12606778.4912237-.07366117.6455329.12275527s.1399934.47658008-.0335329.65624473l-.825.859 1.174-.677c.2077189-.119562.4710624-.07491122.6277607.10643894.1566982.18135016.1626716.4483854.0142393.63656106l-.633.8.973-.562c.1769988-.10172485.398064-.08562792.5584597.04066442s.2279037.33741222.1705403.53333558l-.2.672.452-.261c.23893-.13584515.5427102-.05337078.6801373.18465285.137427.23802363.0569695.54234426-.1801373.68134715l-1.53.882c-.1768699.10211344-.3980647.08639366-.5587159-.03970658-.1606513-.12610025-.2284624-.33723031-.1712841-.53329342l.2-.673-2.162 1.246c-.0756184.04528875-.1618652.06978284-.25.071z" fill="#8991a0"/><path id="Path" d="m34.972 48.365c-.2055619.000143-.3902652-.1255401-.4655798-.3168081-.0753145-.1912679-.0258916-.4091417.1245798-.5491919l1.8-1.68-1.661.958c-.2248836.1275609-.509928.0626394-.65739-.1497267-.1474621-.2123662-.1087026-.5021295.08939-.6682733l.557-.459c-.1855422-.0219238-.3433823-.1454634-.4092373-.3203053s-.0287369-.3718134.0962373-.5106947l1.2-1.335-.132.076c-.2068846.1189418-.4689871.0751042-.6259077-.1046854-.1569206-.1797897-.1649156-.4454126-.0190923-.6343146l.638-.821c-.1400857-.0334109-.2589624-.1256023-.3261867-.2529646-.0672244-.1273624-.0762674-.2775261-.0248133-.4120354l.449-1.178c-.011-.017-.023-.034-.034-.053-.1380647-.2391402-.0561341-.5449248.183-.683l.324-.187c.1832081-.1055962.4130353-.0845218.573984.0526325s.2182133.3607286.143016.5583675l-.2.532.405-.227c.2069406-.1201272.4699834-.0768007.6274641.1033514s.1652513.446626.0185359.6356486l-.416.535.663-.381c.2127921-.1213918.482198-.0707276.6363549.1196723.1541568.1903998.1476562.4644512-.0153549.6473277l-1.2 1.334 1.7-.981c.2248836-.1275609.509928-.0626394.65739.1497267.1474621.2123662.1087026.5021295-.08939.6682733l-.091.075.264-.152c.2206356-.1300292.503851-.072325.6560244.1336626s.1241014.4936554-.0650244.6663374l-1.8 1.679 2.342-1.351c.1832081-.1055962.4130353-.0845218.573984.0526325s.2182133.3607286.143016.5583675l-.505 1.307 1.078-.622c.2374252-.1242009.5305531-.0391619.6646466.1928199.1340935.2319817.0614797.5284321-.1646466.6721801l-2.3 1.326c-.1832081.1055962-.4130353.0845218-.573984-.0526325s-.2182133-.3607286-.143016-.5583675l.5-1.308-4.939 2.85c-.0760009.0436831-.1623469.0661331-.25.065z" fill="#e2ac7f"/><g fill="#262626"><path id="Shape" d="m1.276 47.407c0 3.041-1.638 10.909 2.271 11.889 1.716.43 4.116 0 5.867 0h13.117c6.8 0 14.325.922 21.077 0 2.614-.358 3.032-1.728 3.116-4.1.139-3.881.008-7.789 0-11.675 3.684-3.6733333 7.3623333-7.3516667 11.035-11.035.0352102-.0186324.0686777-.0403862.1-.065.013-.01.03-.018.042-.028 1.064-1.064 2.955-2.338 2.819-4.038-.13-1.627-2.222-3.05-3.274-4.1-1.112-1.112-2.188-2.627-3.955-2.409-1.609.2-2.818 1.936-3.886 3-.0354488.0382206-.0635815.0826228-.083.131-.9333333.9333333-1.8666667 1.8666667-2.8 2.8v-8.2c0-3 .541-6.54 0-9.5-.0685716-.36396592-.1765402-.71939069-.322-1.06.0472387-.17883843-.0415192-.36565271-.21-.442-1.234-2.412-4.092-4.6-5.89-6.2-.4677508-.43456501-.9950534-.80024228-1.566-1.086v-.068c0-.517-.7-.558-1.137-.324-.6972147-.12978102-1.4048105-.19572065-2.114-.197-8.103-.2-16.236 0-24.342 0-2.955 0-8.941-1.279-9.865 2.591-.384 1.6 0 3.759 0 5.392zm41.961-2.007-6.21-6.21c1.0503906-1.331235 2.2331112-2.5524862 3.53-3.645l9.571-9.571 2.82 2.82-11.166 11.167c-.341.341 1.05.208 1.323-.065l10.473-10.473 2.82 2.821-9.69 9.69c-1.0720598 1.2373792-2.2320766 2.3957251-3.471 3.466zm-7.853 1.622c-.633-.907.375-4.738 1.009-6.509l5.6 5.6c-1.568.611-6.079 1.667-6.609.909zm19.147-23.717c.894.389 1.927 1.928 2.605 2.606.917.917 2.517 2 1.891 3.425-.4087677.7459887-.9666707 1.3998823-1.639 1.921l-6.255-6.257c.911-1 1.923-2.336 3.398-1.695zm-10.093-14.823h-1.812c-1.062 0-2.925.368-3.619-.681-.571-.864-.274-2.444-.274-3.414v-1.768c2.2116027 1.62678117 4.1392282 3.60779224 5.705 5.863zm-40.869-7.182c.883-.579 4.462 0 5.453 0h22.513c2.035 0 3.954-.263 5.732.464v3.483c0 1.224-.223 2.651.76 3.577.953.9 2.374.694 3.576.694h3.369c.134965.31595917.2355438.6455224.3.983 1.053 5.844.036 12.734 0 18.717-2.714 2.7073333-5.424 5.4176667-8.13 8.131-.4855537.4721781-.9181155.9959467-1.29 1.562-.373.144-.643.427-.382.687-.2993991.6567606-.5228457 1.3455531-.666 2.053-.285 1.284-1.668 4.469-.959 6.012h-25.545c-.447 0-1.568.668-.6.668h26.8c1.679.848 5.8-.8 7.129-1.2.4157345-.1176083.8235594-.2615661 1.221-.431.439.017.965-.243.991-.54.5345895-.3642236 1.0319922-.7802331 1.485-1.242.249 4.117 1.259 12.8-1.643 13.79-1.861.635-5.078 0-7.027 0h-23.546c-2.383 0-5.523.55-7.853 0-3.893-.918-2.533-6.347-2.533-9.418v-43.28c0-1.234-.447-3.868.845-4.71z"/><path id="Shape" d="m12.212 27.429c1.735 1.805 5.822 1.06 8 1.06h10.527c.0336887-.003823.0670927-.0098358.1-.018.0930551.0059264.1864861-.0001231.278-.018 2.966-.6 3.538-2.4 3.61-5.139.1-3.73 0-7.477 0-11.209 0-2.3.457-5.2-2.137-6.327-2.22-.963-5.746-.267-8.054-.267-4.155 0-12.511-1.872-13.271 3.928-.428 3.266 0 6.868 0 10.16.004 2.134-.735 6.08.947 7.83zm18.778.082h-7.729c-2.895 0-9.4 1.366-10.53-2.638-.7-2.473 0-6.249 0-8.8 0-.514-.028-1.053-.06-1.605h20.8c-.089 1.233-.2 2.433-.2 3.451-.002 2.297 1.196 8.741-2.281 9.592zm-17.225-19.8c1.865-2.211 6.187-1.222 8.974-1.222 2.895 0 9.4-1.366 10.53 2.638.3160496 1.4440704.4037811 2.9287578.26 4.4h-20.914c-.115-2.116-.133-4.295 1.15-5.816z"/><path id="Path" d="m15.7 10.345h1c.3579986.0152937.7064349-.1178574.963-.368.174-.272-.15-.322-.365-.322h-1c-.3579986-.0152937-.7064349.11785744-.963.368-.173.277.151.322.365.322z"/><path id="Path" d="m20.72 10.417h1c.3639074.0265945.7186723-.1219981.955-.4.165-.288-.14-.436-.395-.436h-1c-.3639074-.02659455-.7186723.12199807-.955.4-.165.288.14.436.395.436z"/><path id="Path" d="m7.936 33.53h29c.827 0 1.112-1.06.128-1.06h-29c-.827 0-1.112 1.06-.128 1.06z"/><path id="Path" d="m31.722 38.424c.561 0 1.532-.848.556-.848h-24c-.561 0-1.532.848-.556.848z"/><path id="Path" d="m7.731 43.46h23c.609 0 1.514-.92.538-.92h-23c-.609 0-1.514.92-.538.92z"/><path id="Path" d="m7.709 53.375h19c.5 0 1.553-.75.582-.75h-19c-.498 0-1.553.75-.582.75z"/></g></g></svg>