<svg height="512" viewBox="0 0 60 60" width="512" xmlns="http://www.w3.org/2000/svg"><g id="040---Creative-Thinking" fill="none"><path id="Path" d="m23.968 47.5c-.2211131.0002812-.4161547-.1447036-.4796064-.3565171-.0634518-.2118136.0197555-.4401518.2046064-.5614829l2.856-1.882-4.269 2.467c-.2340569.1357068-.5336008.0606207-.6759704-.1694442s-.0759129-.5316408.1499704-.6805558l9.446-6.251-8.939 5.161c-.2347029.1405531-.538787.0663884-.6824238-.1664401-.1436368-.2328284-.0734897-.5378644.1574238-.6845599l10.072-6.6-9.744 5.624c-.2337734.1287456-.5274505.051198-.667188-.1761759-.1397374-.2273739-.07627-.5244122.144188-.6748241l10.98-7.172-10.8 6.237c-.2348642.1312813-.531504.0531604-.6712412-.1767732-.1397372-.2299337-.0724576-.5292187.1522412-.6772268l7.245-4.6-7.155 4.131c-.234481.1270728-.5274228.0477401-.6657366-.1802909-.1383139-.2280309-.0733058-.5244809.1477366-.6737091l8.726-5.573-8.767 5.062c-.2354379.13455-.5352149.0569022-.6757281-.1750261-.1405133-.2319283-.0705395-.5335888.1577281-.6799739l8.412-5.342-8.6 4.963c-.2352087.125628-.5276152.0445694-.664573-.1842276-.1369579-.228797-.070267-.5248112.151573-.6727724l1.661-1.028-1.673.964c-.2349709.1292146-.5300387.050062-.6687925-.179405-.1387537-.2294671-.0717837-.5275361.1517925-.675595l8.162-5.152-8.57 4.947c-.2355125.13196-.5332497.0531389-.6726204-.1780652-.1393708-.2312042-.0700423-.5312938.1566204-.6779348l8.015-5.044-8.419 4.86c-.2347713.1336383-.5332399.0566316-.6740509-.1739091-.1408109-.2305408-.0730402-.5312411.1530509-.6790909l14.149-9.158-14.915 8.611c-.2346058.1253855-.5263122.0451285-.6637604-.18262-.1374483-.2277485-.0725112-.523243.1477604-.67238l9.414-5.928-9.892 5.712c-.2355125.13196-.5332497.0531389-.6726204-.1780652-.1393708-.2312042-.0700423-.5312938.1566204-.6779348l8.717-5.465-8.972 5.179c-.2362075.133071-.5354329.0536509-.6745599-.1790411-.1391271-.2326919-.0674613-.5338687.1615599-.6789589l6.036-3.752-6.2 3.581c-.2342478.1308833-.5300435.0535271-.6702262-.1752769s-.074765-.527467.1482262-.6767231l15.161-9.806-15.5 8.95c-.2337734.1287456-.5274505.051198-.667188-.1761759-.1397374-.2273739-.07627-.5244122.144188-.6748241l15.54-10.106-15.798 9.115c-.2335877.1237383-.5231326.0442789-.6608429-.1813541s-.0760007-.5194731.1408429-.6706459l13.734-8.857-13.687 7.9c-.2337734.1287456-.5274505.051198-.667188-.1761759-.1397374-.2273739-.07627-.5244122.144188-.6748241l14.741-9.647-14.57 8.412c-.2363779.1427656-.5437344.0668779-.6865-.1695s-.0668779-.5437344.1695-.6865l6.83-4.3-6.434 3.716c-.2340569.1357068-.5336008.0606207-.6759704-.1694442s-.0759129-.5316408.1499704-.6805558l13.105-8.652-12.5 7.218c-.2354379.13455-.5352149.0569022-.6757281-.1750261-.1405133-.2319283-.0705395-.5335888.1577281-.6799739l4.454-2.815-3.809 2.2c-.2342478.1308833-.5300435.0535271-.6702262-.1752769s-.074765-.527467.1482262-.6767231l7.787-5.068-6.778 3.912c-.2363779.1427656-.5437344.0668779-.6865-.1695s-.0668779-.5437344.1695-.6865l.8-.5c-.2395932.0747537-.4974774-.0396986-.6027828-.2675226-.1053053-.2278241-.0253954-.4984124.1867828-.6324774l2.657-1.726-1.316.759c-.2329061.1254293-.5232086.0477402-.6623373-.1772508s-.0789338-.5194187.1373373-.6717492l2.366-1.566-.7.4c-.2259084.1319558-.5153456.0674504-.6638412-.14794688-.1484956-.21539729-.1058364-.50885096.0978412-.67305312l4.451-3.623c-.1935853.02064529-.3805836-.07719346-.474-.248-.1380647-.23914015-.0561341-.54492481.183-.683l4.961-2.865c.2259084-.13195581.5153456-.06745042.6638412.14794688.1484956.21539729.1058364.50885096-.0978412.67305312l-4.215 3.435 9.555-5.516c.2329061-.12542926.5232086-.04774024.6623373.17725079s.0789338.5194187-.1373373.67174921l-2.375 1.571 4.101-2.364c.2347713-.13363828.5332399-.05663158.6740509.17390914.1408109.23054072.0730402.5312411-.1530509.67909086l-2.667 1.722 4.052-2.338c.2354379-.13454995.5352149-.05690217.6757281.17502611.1405133.23192829.0705395.53358878-.1577281.67997389l-.525.331 1.528-.882c.2347034-.13648675.5354374-.06073246.6774741.17065437.1420368.23138684.073465.53383942-.1544741.68134563l-7.784 5.067 9.158-5.287c.2363779-.14304174.5439582-.06737786.687.16900001.1430417.23637787.0673779.54395824-.169.68699999l-4.447 2.81 5.374-3.1c.233204-.12874209.5263939-.05204834.6666872.17439464s.0784231.52311505-.1406872.67460536l-13.105 8.65 14.516-8.381c.2346058-.12538552.5263122-.0451285.6637604.18262002.1374483.22774852.0725112.52324301-.1477604.67237998l-6.826 4.3 7.54-4.353c.2341443-.13311196.5316521-.0568382.672871.17250776s.075396.52933917-.148871.67849224l-14.735 9.644 15.816-9.131c.2335877-.12373825.5231326-.04427888.6608429.18135411.1377103.22563298.0760007.51947304-.1408429.67064589l-13.748 8.865 14.513-8.377c.2334572-.12530509.5241289-.04673672.6626677.17911863s.0768365.52056857-.1406677.67188137l-15.533 10.1 16.309-9.414c.2338963-.12695469.5262491-.04844997.6650871.17859405.1388379.22704402.0755015.5230536-.1440871.67340595l-15.165 9.808 15.62-9.018c.2369302-.1419372.5440628-.0649302.686.172s.0649302.5440628-.172.686l-6.033 3.75 6.148-3.55c.2355125-.13196.5332497-.0531389.6726204.1780652.1393708.2312042.0700423.5312938-.1566204.6779348l-8.722 5.469 8.71-5.028c.2349709-.1292146.5300387-.050062.6687925.179405.1387537.2294671.0717837.5275361-.1517925.675595l-9.412 5.928 9.414-5.435c.2347713-.1336383.5332399-.0566316.6740509.1739091.1408109.2305408.0730402.5312411-.1530509.6790909l-14.155 9.16 14.072-8.124c.2349709-.1292146.5300387-.050062.6687925.179405.1387537.2294671.0717837.5275361-.1517925.675595l-8.009 5.041 7.769-4.485c.2355125-.13196.5332497-.0531389.6726204.1780652.1393708.2312042.0700423.5312938-.1566204.6779348l-8.16 5.151 7.728-4.461c.2352087-.125628.5276152-.0445694.664573.1842276.1369579.228797.070267.5248112-.151573.6727724l-1.658 1.027 1.176-.675c.2349709-.1292146.5300387-.050062.6687925.179405.1387537.2294671.0717837.5275361-.1517925.675595l-8.411 5.34 7.762-4.48c.234481-.1270728.5274228-.0477401.6657366.1802909.1383139.2280309.0733058.5244809-.1477366.6737091l-8.724 5.567 7.962-4.6c.2354379-.13455.5352149-.0569022.6757281.1750261.1405133.2319283.0705395.5335888-.1577281.6799739l-7.254 4.609 6.176-3.565c.2341443-.133112.5316521-.0568382.672871.1725078.1412189.2293459.075396.5293391-.148871.6784922l-10.976 7.17 9.381-5.416c.2341443-.133112.5316521-.0568382.672871.1725078.1412189.2293459.075396.5293391-.148871.6784922l-10.074 6.6 7.7-4.445c.2339822-.1349653.5328576-.059693.675.17.1423818.2294437.0768609.5304856-.148.68l-9.438 6.249 5.2-3.005c.2336556-.130691.5287926-.0541466.6694787.1736308.140686.2277774.0769932.5259521-.1444787.6763692l-2.859 1.877.784-.452c.2340027-.1389988.5362016-.0652981.6799386.1658244s.0762078.5347601-.1519386.6831756l-1.138.758c.2077313-.0502956.4246618.0353559.542.214.1446448.2234915.0888106.5211272-.127.677l-2.416 1.745 1.283-.74c.228924-.1342308.5228351-.0662362.6695479.1548961s.0951128.5183603-.1175479.6771039l-1 .754.114-.066c.217123-.1206668.4899085-.063641.6405105.1338986s.1333491.4756874-.0405105.6531014l-1.42 1.42.662-.382c.171484-.098753.3850747-.0870793.5447748.0297744s.2354582.3168987.1932252.5102256l-.31 1.414c.1798278.0694203.3037345.236031.3184697.428229.0147351.192198-.0823258.3757495-.2494697.471771l-.5.287c-.1710026.1006716-.3856464.0892502-.545-.029-.1599115-.1170374-.2356133-.3174708-.193-.511l.257-1.168-2.954 1.714c-.2167987.1191224-.4881174.0618073-.638215-.1348206s-.1338516-.473458.038215-.6511794l1.413-1.424-3.833 2.216c-.2287194.1310429-.5198877.0620127-.6654353-.1577616-.1455476-.2197742-.0954752-.5147944.1144353-.6742384l1-.755-2.756 1.591c-.2304184.1322364-.5240189.0611893-.6684864-.1617642-.1444674-.2229535-.0893536-.5199576.1254864-.6762358l2.421-1.749-4.491 2.592c-.2335451.1328438-.5303244.0573638-.6720248-.1709163s-.0776546-.5277351.1450248-.6780837l.885-.591-2.5 1.444c-.0755028.0455556-.1618234.0700707-.25.071z" fill="#f7ad00"/><path id="Path" d="m28.193 46.492c-.2062331-.0001651-.3912062-.1269361-.4657731-.3192169-.0745669-.1922807-.023427-.4106169.1287731-.5497831l1.84-1.682-2.664 1.538c-.2230711.126215-.5054574.0633143-.6538691-.1456472-.1484117-.2089616-.1147824-.4963073.0778691-.6653528l2.679-2.3-2.2 1.267c-.2233144.1304087-.509223.0690136-.6593121-.1415784-.150089-.2105921-.1148283-.5008847.0813121-.6694216l3-2.6-2.519 1.454c-.2279124.1308241-.5182022.0628918-.6643976-.1554793-.1461953-.2183711-.0983971-.512647.1093976-.6735207l1.061-.815-.573.33c-.2248836.1275609-.509928.0626394-.65739-.1497267-.1474621-.2123662-.1087026-.5021295.08939-.6682733l2.6-2.145-2.123 1.224c-.2259042.1277621-.5120042.0614438-.6586593-.152678-.1466552-.2141217-.1051039-.5048532.0956593-.669322l2.383-1.915-1.89 1.091c-.2288588.1292299-.518701.0592157-.6633326-.1602346-.1446317-.2194502-.0946742-.513414.1143326-.6727654l.779-.583-.292.167c-.2266681.1317558-.5166136.0660514-.6643416-.1505461-.1477279-.2165976-.1030619-.5105201.1023416-.6734539l2.153-1.712-1.67.964c-.228924.1342308-.5228351.0662362-.6695479-.1548961s-.0951128-.5183603.1175479-.6771039l.792-.6-.3.174c-.2292016.1303039-.5201978.0602449-.6649792-.1600976s-.0935911-.5152436.1169792-.6739024l.353-.262c-.2225844.0362539-.4418891-.0809815-.535385-.286205s-.0380394-.4476349.135385-.591795l2.177-1.813-1.473.851c-.2268147.12995-.5154475.0632557-.6622581-.1530278-.1468106-.2162836-.1022433-.50915.1022581-.6719722l.82-.648c-.2185061.0931706-.472403.0197439-.6074497-.1756737-.1350467-.1954177-.1139601-.4588763.0504497-.6303263l1.842-1.9-.579.334c-.1907702.1113709-.4320163.0843577-.5934296-.0664485-.1614133-.1508061-.2047372-.3896626-.1065704-.5875515l.638-1.29c-.0394247-.0348858-.0731639-.0757103-.1-.121-.1380647-.2391402-.0561341-.5449248.183-.683l.567-.328c.1907702-.1113709.4320163-.0843577.5934296.0664485.1614133.1508061.2047372.3896626.1065704.5875515l-.361.732 2.249-1.3c.2157055-.1230645.4890446-.0691582.6418764.1265869.1528317.1957451.1388315.4739971-.0328764.6534131l-1.84 1.9 2.808-1.622c.2272986-.1336432.5193131-.0678079.6672772.1504392.1479641.218247.1010173.5138867-.1072772.6755608l-.8.634.557-.321c.2247363-.1292165.510959-.0652384.6592891.1473681.1483301.2126064.1095663.5033193-.0892891.6696319l-2.177 1.811 2.01-1.159c.2292016-.1303039.5201978-.0602449.6649792.1600976s.0935911.5152436-.1169792.6739024l-.181.135c.232717-.0796611.4888071.0217716.6038609.2391784s.0548923.4862029-.1418609.6338216l-.79.595.466-.268c.226507-.1291681.5142486-.0625855.6609917.1529516.1467432.2155372.103215.5076567-.0999917.6710484l-2.155 1.712 1.737-1c.2290632-.1321979.5214568-.063148.6671806.1575572.1457237.2207053.094369.5167199-.1171806.6754428l-.778.583.231-.134c.2260575-.1301558.5141897-.0646595.6617686.1504288.1475789.2150884.1050107.5074886-.0977686.6715712l-2.372 1.914 1.729-1c.225024-.1298327.5119893-.0657046.6603401.147566s.108657.5046224-.0913401.670434l-2.6 2.144 1.947-1.123c.2279124-.1308241.5182022-.0628918.6643976.1554793.1461953.2183711.0983971.512647-.1093976.6735207l-1.063.814.433-.25c.2233144-.1304087.509223-.0690136.6593121.1415784.150089.2105921.1148283.5008847-.0813121.6694216l-3 2.6 2.322-1.341c.2235892-.1309392.5101637-.0693762.6602503.1418375.1500866.2112138.1139527.5020905-.0832503.6701625l-2.679 2.3 2.009-1.161c.2202286-.1227467.4973928-.0623225.6465459.1409526s.1236267.4857984-.0595459.6590474l-1.841 1.682 1.167-.673c.2187434-.1297091.5000021-.0745628.6535686.128145s.1305136.4883932-.0535686.663855l-.378.366c.1558935.0086766.2987846.0896788.3862962.2189839.0875115.1293052.1095959.2920673.0597038.4400161l-.284.839c.1515486.0911804.2436514.2556396.2422135.4324977-.0014379.176858-.0962025.339798-.2492135.4285023l-.518.3c-.1800163.1038984-.4055359.0855944-.5664409-.0459743s-.2236347-.3489603-.1575591-.5460257l.159-.47-1.86 1.073c-.2187434.1297091-.5000021.0745628-.6535686-.128145s-.1305136-.4883932.0535686-.663855l.139-.135-1.621.936c-.0747093.047016-.160752.0729325-.249.075z" fill="#82624b"/><path id="Path" d="m29.436 59.379c-.2090954.0007183-.3965562-.1287506-.469926-.3245522-.0733699-.1958016-.0171523-.4165805.140926-.5534478l1.577-1.367-2.784 1.61c-.2277686.1327124-.5194462.0657934-.6665848-.1529333s-.0991876-.5141157.1095848-.6750667l1.036-.8-1.516.875c-.217123.1206668-.4899085.063641-.6405105-.1338986s-.1333491-.4756874.0405105-.6531014l1.837-1.844-2.236 1.291c-.2062518.1182441-.4672436.0749051-.6242099-.1036531-.1569663-.1785583-.1664952-.4429523-.0227901-.6323469l.925-1.212-.752.435c-.1725201.1001788-.3880816.0882165-.548458-.0304359-.1603764-.1186525-.2348724-.3212856-.189542-.5155641l.188-.81c-.1039825-.0412294-.1907703-.1167277-.246-.214-.1375532-.2386555-.0561721-.5436114.182-.682l.5-.29c.1725201-.1001788.3880816-.0882165.548458.0304359.1603764.1186525.2348724.3212856.189542.5155641l-.129.554 1.921-1.108c.2062518-.1182441.4672436-.0749051.6242099.1036531.1569663.1785583.1664952.4429523.0227901.6323469l-.926 1.212 3.39-1.957c.217123-.1206668.4899085-.063641.6405105.1338986s.1333491.4756874-.0405105.6531014l-1.848 1.84 4.569-2.638c.2277686-.1327124.5194462-.0657934.6665848.1529333s.0991876.5141157-.1095848.6750667l-1.039.8.941-.543c.2233144-.1304087.509223-.0690136.6593121.1415784.150089.2105921.1148283.5008847-.0813121.6694216l-1.577 1.367.569-.328c.1549945-.0985297.351531-.1041539.5119064-.0146489.1603754.0895049.2587712.2597296.2562855.4433739s-.1054527.3511436-.2681919.436275l-5.089 2.939c-.073179.0443072-.1565022.0690976-.242.072z" fill="#ced2dc"/><path id="Path" d="m27.565 54.471c-.2044523.0000409-.3883316-.1243978-.4643012-.3142118-.0759697-.189814-.0287223-.406757.1193012-.5477882l2.191-2.1-5.011 2.891c-.2142281.1242304-.4871181.0729283-.6416053-.120619-.1544873-.1935473-.1440221-.4710204.0246053-.652381l2.339-2.515-4.362 2.518c-.2247363.1292165-.510959.0652384-.6592891-.1473681-.1483301-.2126064-.1095663-.5033193.0892891-.6696319l.538-.448-.4.231c-.2075237.1196981-.4707878.075377-.6276801-.1056714-.1568924-.1810484-.1633179-.4479398-.0153199-.6363286l1.873-2.389c-.0702794-.223516.0240803-.4658582.227-.583l.5-.289c.2075795-.1209101.4718069-.0771091.6292685.1043141s.1636473.449185.0147315.6376859l-.865 1.1 3.207-1.851c.2243164-.1264895.5080183-.0619132.6554889.1492026s.1104702.4997121-.0854889.6667974l-.54.45 2.2-1.271c.214156-.122774.4858627-.0708854.6397046.1221662s.1437736.4694853-.0237046.6508338l-2.339 2.515 5.712-3.3c.219385-.1342545.5048344-.0801688.6599003.1250351.1550659.2052038.1291551.4945743-.0599003.6689649l-2.191 2.1 5.027-2.9c.2201191-.1211079.4959248-.0600693.6443868.1426092s.1234717.48405-.0583868.6573908l-2.024 1.839 2.622-1.5c.2140094-.1242074.4866819-.073198.6413187.1199729.1546367.1931709.1447222.4703962-.0233187.6520271l-1.318 1.428 2.073-1.2c.2065537-.1204302.469463-.0777714.627341.1017904.1578779.1795618.1665358.4457687.020659.6352096l-.651.85.11-.062c.2374252-.1242009.5305531-.0391619.6646466.1928199.1340935.2319817.0614797.5284321-.1646466.6721801l-2.276 1.31c-.2062518.1182441-.4672436.0749051-.6242099-.1036531-.1569663-.1785583-.1664952-.4429523-.0227901-.6323469l.65-.851-2.751 1.587c-.2136477.1213457-.4838004.0694794-.6373204-.1223584-.15352-.1918377-.1449064-.4667894.0203204-.6486416l1.318-1.43-3.813 2.2c-.2201191.1211079-.4959248.0600693-.6443868-.1426092s-.1234717-.48405.0583868-.6573908l2.024-1.839-4.577 2.64c-.0754237.0457373-.1617951.0702668-.25.071z" fill="#bbc1ce"/><path id="Path" d="m27.164 50.471c-.2102991.000244-.3982734-.1311286-.4703213-.3287011-.0720479-.1975724-.0127681-.4191102.1483213-.5542989l.34-.285-1.908 1.1c-.2104359.1206411-.4771079.0728408-.6325393-.1133813-.1554313-.186222-.1547824-.4571434.0015393-.6426187l1.48-1.749-4.339 2.5c-.2068255.1177772-.4680042.0734377-.6243729-.1059978-.1563687-.1794354-.1645788-.4442239-.0196271-.6330022l1.494-1.925-3.029 1.748c-.1935201.1132474-.4387677.0838177-.6-.072-.1610329-.1548395-.1998113-.3977148-.095-.595l.781-1.475-.122.071c-.2394154.1380712-.5454288.0559154-.6835-.1835s-.0559154-.5454288.1835-.6835l1.627-.938c.1930488-.1115673.4366407-.0818274.5971767.0729089.1605359.1547362.1992149.3970696.0948233.5940911l-.781 1.474 3.737-2.147c.2068255-.1177772.4680042-.0734377.6243729.1059978.1563687.1794354.1645788.4442239.0196271.6330022l-1.494 1.925 4.616-2.664c.2104988-.1219393.4782123-.0746814.6342394.1119586s.1550818.458491-.0022394.6440414l-1.481 1.744 4.339-2.5c.2241703-.1280952.5090066-.0644456.6573283.1468868.1483216.2113324.1113468.5008421-.0853283.6681132l-.338.284 1.9-1.1c.2048731-.1183073.4646227-.0768354.6224712.0993845s.1705878.4389507.0305288.6296155l-1.487 2.011 4.747-2.74c.2184203-.1276802.4977941-.0720852.6506935.1294872s.1311343.4855915-.0506935.6615128l-1.177 1.149 2.756-1.591c.2142281-.1242304.4871181-.0729283.6416053.120619.1544873.1935473.1440221.4710204-.0246053.652381l-1.078 1.164 1.247-.72c.2062518-.1182441.4672436-.0749051.6242099.1036531.1569663.1785583.1664952.4429523.0227901.6323469l-.484.632c.2025659.0428015.3578.206019.3903977.4104751s-.0641847.4078541-.2433977.5115249l-1.614.932c-.2064997.1192475-.468472.0760768-.6257899-.1031247-.157318-.1792015-.1661971-.4445584-.0212101-.6338753l.28-.366-1.941 1.116c-.2139383.1227586-.4854345.0711644-.6394281-.1215147-.1539936-.1926792-.1444708-.4688702.0224281-.6504853l1.077-1.162-3.351 1.934c-.2184203.1276802-.4977941.0720852-.6506935-.1294872s-.1311343-.4855915.0506935-.6615128l1.182-1.152-3.365 1.943c-.204818.1171895-.4636865.075228-.6209976-.1006613-.1573111-.1758892-.1702347-.4378179-.0310024-.6283387l1.486-2.011-4.746 2.74c-.0754832.0456007-.1618163.0701194-.25.071z" fill="#ced2dc"/><path id="Path" d="m28.028 30.5c-.2013785-.0004379-.3828399-.1216427-.4603709-.3074986-.077531-.185856-.0359976-.4000844.1053709-.5435014l2.018-2.037-3.057 1.766c-.2234866.1250979-.5053669.0610931-.6529133-.148253-.1475465-.209346-.1130458-.4963352.0799133-.664747l1.7-1.443-.659.38c-.2174475.1222843-.4917629.0655717-.6428937-.1329134-.1511308-.1984852-.1328285-.4780031.0428937-.6550866l.907-.9c-.1864651.0258237-.3716315-.0552702-.4791005-.2098229-.107469-.1545526-.1190248-.3563676-.0298995-.5221771l.5-.932c-.026788-.0286063-.0502693-.0601383-.07-.094-.1380647-.2391402-.0561341-.5449248.183-.683l.567-.328c.1934155-.1118358.4375526-.0817816.5980695.0736248s.1984519.3984436.0929305.5953752l-.158.292 1.544-.891c.2174475-.1222843.4917629-.0655717.6428937.1329134.1511308.1984852.1328285.4780031-.0428937.6550866l-.8.795 2.095-1.209c.2238916-.1275836.5080784-.0641108.6564103.1466086.148332.2107193.1122202.4996603-.0834103.6673914l-1.7 1.441 1.5-.868c.2166127-.1233895.4910237-.0683675.6433231.1289924.1522993.1973599.1359526.4767549-.0383231.6550076l-2.016 2.04 1.888-1.09c.2084234-.1216379.4739857-.0770528.6312578.1059816.1572721.1830343.1613706.4522821.0097422.6400184l-.7.874.428-.247c.1634771-.0950017.3665604-.0896622.5248195.0137987.158259.1034608.2446206.2873439.2231805.4752013l-.087.764c.1931848.0549773.3347195.2202185.3593641.4195562s-.0723853.3940732-.2463641.4944438l-.45.259c-.1634215.0944292-.3660903.0887875-.5240055-.0145867s-.2441625-.2868623-.2229945-.4744133l.065-.576-1.866 1.077c-.2081694.1205179-.4726501.07573-.6295333-.1066069-.1568831-.1823369-.1617005-.4505398-.0114667-.6383931l.7-.875-2.828 1.629c-.0755041.0454325-.1618817.0696182-.25.07z" fill="#d8dde5"/><path id="Path" d="m29.136 24.31c-.2108041.00075-.3994332-.130795-.4715824-.3288693s-.0123175-.420122.1495824-.5551307l1.4-1.17-2.37 1.368c-.2287194.1310429-.5198877.0620127-.6654353-.1577616-.1455476-.2197742-.0954752-.5147944.1144353-.6742384l.6-.45-.957.553c-.2268311.1346393-.5192384.0699075-.6680488-.1478896s-.1028302-.513733.1050488-.6761104l1.708-1.366-1.981 1.14c-.2223497.1306799-.5076145.0707969-.6586457-.1382634-.1510311-.2090603-.1182684-.4986956.0756457-.6687366l1-.883-.916.529c-.23893.1358451-.5427102.0533708-.6801373-.1846528-.137427-.2380237-.0569695-.5423443.1801373-.6813472l5.194-3c.2222396-.1285782.5057439-.0679309.6559297.1403165.1501859.2082474.1182322.4963997-.0739297.6666835l-1 .883 3.423-1.974c.2262036-.1284409.5131028-.0619842.6597948.1528333.1466919.2148176.1041677.5062269-.0977948.6701667l-1.709 1.367 2.365-1.365c.2285233-.1282497.5172952-.0583047.6618051.1602995.14451.2186041.095725.5116937-.1118051.6717005l-.593.447.21-.121c.2245855-.1309436.5120466-.0679354.6612702.144943.1492235.2128783.1104168.5045939-.0892702.671057l-1.397 1.167.675-.389c.2184203-.1276802.4977941-.0720852.6506935.1294872s.1311343.4855915-.0506935.6615128l-1.013.985c.179709.0696391.3033938.2363663.3179142.4285487.0145205.1921824-.0827088.3756009-.2499142.4714513l-2.5 1.441c-.2184203.1276802-.4977941.0720852-.6506935-.1294872s-.1311343-.4855915.0506935-.6615128l.462-.449-2.169 1.252c-.0747065.0447374-.1599295.0688897-.247.07z" fill="#57606d"/><path id="Path" d="m25.193 20.142c-.2076989.0000626-.3938087-.1282848-.4675638-.3224472-.073755-.1941624-.019795-.4137033.1355638-.5515528l2.574-2.282-2.056 1.187c-.220007.1195261-.4945025.0578939-.6422936-.1442135-.147791-.2021073-.1233056-.4823693.0572936-.6557865l1.88-1.694-.652.376c-.2192049.1250239-.4972153.0671074-.6482603-.1350489-.1510451-.2021563-.1277753-.4851803.0542603-.6599511l1.756-1.669c-.1687598-.0483353-.29981-.1816315-.3452709-.3511882-.0454608-.1695568.0013276-.3505343.1232709-.4768118l1.857-1.917c-.043938-.2114504.0528531-.4272138.24-.535l.693-.4c.2160105-.1246636.4908577-.07107952.6442199.1255968.1533622.1966763.1383361.4762947-.0352199.6554032l-.3.313c.1756507-.0193439.3481837.0569981.452.2.1512262.202777.1271846.4865543-.056.661l-1.283 1.22 1.116-.644c.220007-.1195261.4945025-.0578939.6422936.1442135.147791.2021073.1233056.4823693-.0572936.6557865l-1.881 1.7 2.221-1.282c.2222396-.1285782.5057439-.0679309.6559297.1403165.1501859.2082474.1182322.4963997-.0739297.6666835l-2.57 2.279 3.373-1.958c.1885623-.1059344.4238602-.0786212.5831421.0676906.1592819.1463117.206434.3784491.1168579.5753094l-.254.548.545-.315c.129606-.0735072.2848763-.0866595.425-.036.140857.051806.2509931.1641448.3.306l.177.512c.2135279.0256982.3867002.1850628.4300119.3957252.0433116.2106625-.0529421.4254203-.2390119.5332748l-.247.144c-.1293852.0751399-.2856207.0883881-.4258107.0361073-.1401901-.0522808-.2495996-.1645956-.2981893-.3061073l-.144-.416-1.388.8c-.1885623.1059344-.4238602.0786212-.5831421-.0676906-.1592819-.1463117-.206434-.3784491-.1168579-.5753094l.253-.548-6.287 3.631c-.0767893.0457346-.164625.0695955-.254.069z" fill="#ffcd54"/><g fill="#262626"><path id="Shape" d="m46.313 30.921c2.5679329-3.8380763 3.7373664-8.4427207 3.312-13.041 0-.025-.015-.039-.02-.062.0058471-.0266299.0091949-.0537476.01-.081-2.115-14.718-19.215-22.317-31.367-13.377-5.42315 4.01477185-8.41210802 10.5274548-7.92 17.257.79 9.757 10.518 14.192 10.918 23.824-.093.016-.19.025-.281.044-1.706.356-3.567 1.905-2.355 3.844.615599.8401354 1.6268702 1.295663 2.664 1.2-1.531 1.3-.661 3.652 2.288 3.742.241.008.482.007.723.013.468 6.927 10.7 6.536 11.409-.008h.785c.1274041.0061538.2550329-.0059693.379-.036 1.516-.306 3.528-1.229 2.709-3.213-.08268-.1990056-.1979229-.3828535-.341-.544.024-.009.04-.024.062-.034 1.815-.562 3.446-2.325 1.743-4.137-.6164337-.5804528-1.4387339-.8913794-2.285-.864-.0224861-2.6755945.6508614-5.3110916 1.954-7.648 1.5-2.641 3.909-4.4 5.613-6.879zm-20.282-14.24c.7238342-1.9717809 1.8742331-3.7593552 3.369-5.235.1523874 1.1529518.6794205 2.223883 1.5 3.048.854.848 1.675 1.4 2.293 2.093-.6099128.0247746-1.2135423.1331184-1.794.322-.6784613.2168012-1.3284444.5142625-1.936.886-.994.6-2.009 1.721-3.22 1.782-.1123352.0101767-.2229027.0347099-.329.073-.2173991-.9832225-.1770969-2.0059341.117-2.969zm2.932 2.577c.967-.582 1.953-1.64 3.111-1.808.5093796.0183495 1.0165681.0761898 1.517.173.0892785-.0027774.1779059-.0162058.264-.04.2547868.5667947.3938383 1.1787572.409 1.8-.194 3.155-3.37 5.218-6.233 3.422-.8995344-.5812664-1.5750689-1.4507174-1.916-2.466 1.0099335-.1741361 1.9768771-.5411537 2.848-1.081zm-.525 5.08c1.0882877.298235 2.2396515.2749646 3.315-.067.2391314 1.4332233.591229 2.8452916 1.053 4.223.07.32.11.632.156.946h-5.962c.057-.434.128-.871.231-1.314.269-1.167.937-2.526 1.207-3.788zm-.93 21.13c-.194-3.8873333-.3883333-7.774-.583-11.66-.0642083-1.0815545-.0705507-2.1657683-.019-3.248h6.179c.0691136 1.2054459.0657743 2.4139545-.01 3.619-.188 3.7626667-.3756667 7.5256667-.563 11.289zm1.775 12.926c-1.9173792-.4744278-3.3228121-2.112761-3.5-4.08 2.818.034 5.642 0 8.462-.025-.235 2.505-2.217 4.751-4.962 4.105zm7.986-4.67h-1.587c-.181-.306-.836-.253-1.186 0h-4.72c-.58 0-2.343.13-4.067.046-.065-.34-.666-.319-1.073-.086-2.03-.234-3.613-.9-2.489-2.643.1466613-.2134602.3429481-.388128.572-.509h14.168c1.025.712 2.655 2.645.382 3.192zm1.7-4.256h-9.34c-.247 0-.853.028-1.644.05-.65-.004-1.2963333.005-1.939.027-3.272-.011-7.292-.357-5.683-2.306.3413189-.3668406.782969-.6252233 1.27-.743.099148.0306879.2022177.0468557.306.048h16c.0891678-.0029305.1772878-.0201494.261-.051.0885905.0057404.176556.0187847.263.039 1.254.375 3.163 2.155.507 2.936zm-1.5-6.726c-.1178514.879755-.1376393 1.7698769-.059 2.654-.08.017-.171.037-.288.06h-.031c-.124 0-.249.007-.368.007h-2.782l.582-11.677c.0560235-1.1771114.0185727-2.3568123-.112-3.528.1096139-.1312933.151099-.3064935.112-.473-.0036095-.011548-.0097601-.0221407-.018-.031-.0365893-.0832525-.0980752-.1531228-.176-.2-.2985932-1.977652-.7282053-3.9332891-1.286-5.854 1.5826049-.9241076 2.5945472-2.5819945 2.693-4.412-.2-4.329-4.823-5.006-5-9.334-.024-.583-.863-.649-1.223-.307-3.186 3.016-7.2 8.1-4.132 12.5.4484585.6448044 1.0276969 1.1879257 1.7 1.594-.093 1.462-.984 3.107-1.309 4.525-.1173186.5278982-.204129 1.0621165-.26 1.6-.0515405.1070191-.0642671.228629-.036.344-.0010261.0072974-.0010261.0147026 0 .022-.0850747 1.110003-.0974344 2.2243831-.037 3.336.173 3.958.391 7.914.592 11.87-1.1-.052-2.285-.151-3.408-.123.0952588-1.1974802.018139-2.402434-.229-3.578-1.309-6.149-7.033-9.178-9.3-14.818-2.4863503-6.2135056-1.4713895-13.2812617 2.663-18.544 10.333-12.954 30.156-5.747 32.403 9.719.3160193 3.4272277-.2725711 6.8773947-1.707 10.006-1.663 3.468-4.626 5.488-6.66 8.625-1.1900167 1.8192932-1.9813684 3.8699234-2.322 6.017z"/><path id="Path" d="m30.065 4.473c-4.9602895.07881838-9.6176008 2.40140646-12.665 6.316-.567.719.8.938 1.211.422 2.7033619-3.53088003 6.8774375-5.62602711 11.324-5.684.821-.02 1.117-1.077.13-1.054z"/><path id="Path" d="m15.284 14.736c-.049.129-.1.258-.143.387-.105.291 1.293.139 1.431-.246.0466667-.1333333.0946667-.2623333.144-.387.107-.282-1.285-.139-1.432.246z"/><path id="Path" d="m59.066 19.475h-6c-.824 0-1.116 1.05-.132 1.05h6c.824 0 1.116-1.05.132-1.05z"/><path id="Path" d="m52.348 14.54 5.794-1.562c.9-.242.618-1.3-.284-1.056l-5.793 1.562c-.898.242-.619 1.3.283 1.056z"/><path id="Path" d="m54.52 5.422-5.187 3.016c-.288.168-.128.209.074.273.3614362.01531713.7188649-.08067202 1.024-.275l5.187-3.016c.288-.167.129-.209-.073-.273-.3617091-.01494312-.7193466.08100841-1.025.275z"/><path id="Path" d="m58.59 27.248-5.79-1.562c-.363-.1-1.649.477-1.179.6l5.793 1.562c.359.102 1.646-.473 1.176-.6z"/><path id="Path" d="m49.325 31.985 5.187 3.015c.557.325 1.821-.433 1.114-.845-1.7286667-1.0046667-3.4573333-2.01-5.186-3.016-.558-.323-1.822.435-1.115.846z"/><path id="Path" d="m.715 20.4h6c.528 0 1.544-.8.57-.8h-6c-.528 0-1.544.8-.57.8z"/><path id="Path" d="m1.57 12.9 5.793 1.562c.549.148 1.711-.66.86-.89l-5.793-1.567c-.549-.147-1.711.66-.86.895z"/><path id="Path" d="m10.8 8.192-5.186-3.016c-.355-.207-1.543.387-1.366.49l5.187 3.017c.355.206 1.543-.383 1.365-.491z"/><path id="Path" d="m2.084 27.865 5.793-1.565c.857-.231.7-.864-.168-.63l-5.793 1.565c-.857.231-.698.865.168.63z"/><path id="Path" d="m5.384 34.807 5.187-3.017c.843-.49-.419-.738-.906-.455l-5.187 3.016c-.843.491.422.739.906.456z"/></g></g></svg>