<svg height="512" viewBox="0 0 60 60" width="512" xmlns="http://www.w3.org/2000/svg"><g id="025---Agile-Software-Development" fill="none" transform="translate(-1)"><path id="Path" d="m5.275 17.471c-.21867652-.0023278-.41046749-.1464978-.47347543-.3559133s.01738862-.43548.19847543-.5580867l9.223-6.257-11.285 6.514c-.23460579.1253855-.5263122.0451285-.66376043-.18262s-.07251115-.523243.14776043-.67238l1.5-.948-1.522.877c-.23308287.1306613-.52770735.0549657-.66894229-.1718661-.14123493-.2268319-.07915925-.5246238.14094229-.6761339l9.171-6.152-8.763 5.06c-.23175483.1167643-.51431805.0368182-.65054325-.1840594-.13622519-.2208776-.08082683-.5092599.12754325-.6639406l4.03-2.635-3.508 2.021c-.23080222.1338179-.52601117.0628564-.670779-.1612399-.14476784-.2240963-.08809237-.5223777.128779-.6777601l7.21-5.185-6.668 3.85c-.23265.1288599-.5254615.0530472-.66634439-.1725252-.14088289-.22557238-.08052968-.52195664.13734439-.6744748l1.229-.829-.7.4c-.23093065.13173121-.52456739.05970825-.66833375-.16392831-.14376636-.22363655-.0873821-.52067301.12833375-.67607169l2.112-1.496-1.572.9c-.2295527.13149209-.52180501.0614183-.6667704-.15987256-.14496539-.22129087-.0924688-.51720615.1197704-.67512744l1.131-.834-.584.337c-.22458545.13094362-.51204661.06793537-.66127016-.14494297-.14922355-.21287835-.11041686-.50459397.08927016-.67105703l1.38-1.161-.808.466c-.19598938.11009529-.44135731.07586112-.59972724-.083675-.15836993-.15953613-.190803-.40514863-.07927276-.600325l.969-1.651c-.2390691.12521836-.53436853.03812027-.66721692-.19679457-.13284839-.23491483-.05530021-.53286468.17521692-.67320543l1.63-.943c.19644428-.1137656.44487712-.08091497.605.08.16042297.1610179.19205664.40997892.077.606l-.97 1.651 4.069-2.346c.22430147-.13033485.51102701-.06747614.66023074.14474207s.11132109.50329837-.08723074.67025793l-1.379 1.158 3.424-1.973c.2295527-.13149208.521805-.0614183.6667704.15987257.1449654.22129086.0924688.51720614-.1197704.67512743l-1.127.831 2.886-1.666c.2309306-.13173121.5245674-.05970825.6683337.16392831.1437664.22363655.0873821.52067301-.1283337.67607169l-2.113 1.502 4.061-2.342c.2322377-.12731148.5234633-.05144622.664069.17299225.1406056.22443847.0818101.51958413-.134069.67300775l-1.23.83 2.907-1.676c.2308022-.1338179.5260112-.06285643.670779.16123991.1447678.22409633.0880924.52237765-.128779.67776009l-7.212 5.184 10.439-6.023c.2337734-.12874562.5274505-.05119801.667188.1761759.1397374.22737391.07627.52441224-.144188.6748241l-4.024 2.628 6.033-3.479c.23265-.12885992.5254615-.05304724.6663444.17252517s.0805297.52195667-.1373444.67447483l-9.166 6.15 10.588-6.117c.2363779-.1427656.5437344-.06687786.6865.16950001s.0668779.54373438-.1695.68649999l-1.521.96 1.351-.779c.2322377-.12731148.5234633-.05144622.664069.17299225.1406056.22443847.0818101.51958413-.134069.67300775l-9.226 6.256 8.71-5.028c.2318603-.13306172.527371-.0602043.6708066.16538571.1434357.22559001.0840493.52409963-.1348066.67761429l-7.626 5.332 7.091-4.094c.2309306-.13173121.5245674-.05970825.6683337.16392831.1437664.22363655.0873821.52067301-.1283337.67607169l-5.283 3.759 4.743-2.738c.2305507-.13029452.5227069-.05822926.6662193.16433419.1435123.22256344.0886.51842379-.1252193.67466581l-2.918 2.093 2.377-1.372c.2236156-.12710114.5071788-.0638125.6555296.1463081s.1130835.4985123-.0815296.6666919l-3.395 2.894 2.82-1.628c.220007-.1195261.4945025-.0578939.6422936.1442135.147791.2021073.1233056.4823693-.0572936.6557865l-1.335 1.207.75-.433c.2024537-.1163469.4584788-.0770739.6167505.0946066.1582717.1716804.1766405.4300481.0442495.6223934l-.731 1.056c.1827204.0035258.3518991.0970981.452.25.1380647.2391402.0561341.5449248-.183.683l-1.619.935c-.2024537.1163469-.4584788.0770739-.6167505-.0946066-.1582717-.1716804-.1766405-.4300481-.0442495-.6223934l.653-.945-2.9 1.675c-.220007.1195261-.4945025.0578939-.6422936-.1442135-.147791-.2021073-.1233056-.4823693.0572936-.6557865l1.335-1.207-3.486 2.007c-.2236156.1271011-.5071788.0638125-.6555296-.1463081s-.1130835-.4985123.0815296-.6666919l3.4-2.894-6.425 3.707c-.2305507.1302945-.5227069.0582293-.6662193-.1643342-.1435123-.2225634-.0886-.5184238.1252193-.6746658l2.918-2.091-5.079 2.93c-.2309306.1317312-.5245674.0597083-.6683337-.1639283-.1437664-.2236366-.0873821-.520673.1283337-.6760717l5.285-3.755-7.968 4.595c-.23119233.1280141-.52208151.054013-.66399472-.1689178-.14191321-.2229309-.08584005-.5178012.12799472-.6730822l7.629-5.334-10.7 6.176c-.07561844.0452887-.16186523.0697828-.25.071z" fill="#2081e9"/><path id="Path" d="m6.981 38.471c-.2200148.0000521-.41420955-.1437206-.47837924-.3541696-.06416968-.210449.01676694-.4381142.19937924-.5608304l7.056-4.756-9.641 5.566c-.23365564.130691-.52879264.0541466-.66947868-.1736308s-.0769932-.5259521.14447868-.6763692l7.83-5.16-8.841 5.1c-.23252618.1307666-.52675914.0559509-.6685809-.1700024-.14182177-.2259533-.08127436-.5234503.1375809-.6759976l10.733-7.3-10.503 6.066c-.23424781.1308833-.53004345.0535271-.67022619-.1752769-.14018273-.228804-.07476503-.527467.14822619-.6767231l3.842-2.491-3.32 1.913c-.23361645.1477362-.54276383.0781164-.6905-.1555s-.07811645-.5427638.1555-.6905l6.655-4.61-6.121 3.531c-.23308287.1306613-.52770735.0549657-.66894229-.1718661-.14123493-.2268319-.07915925-.5246238.14094229-.6761339l1.919-1.288-1.391.8c-.2310609.1298083-.52326795.0567757-.66608655-.1664779s-.08662801-.5191613.12808655-.6745221l2.722-1.923-2.184 1.26c-.22744501.1317107-.51803557.064845-.66504038-.1530278-.14700482-.2178727-.10023334-.512366.10704038-.6739722l2.99-2.339-2.432 1.4c-.22113679.1190358-.49626017.0555663-.642902-.148314-.14664184-.2038802-.11929563-.4849023.063902-.656686l1.75-1.51-1.171.675c-.19598938.1100953-.44135731.0758611-.59972724-.083675s-.190803-.4051486-.07927276-.600325l.976-1.673c-.23892998.1358451-.54271023.0533708-.68013727-.1846528-.13742703-.2380237-.05696954-.5423443.18013727-.6813472l1.632-.943c.19636068-.1134973.44451989-.0806114.60454081.0801134s.1918173.409026.07745919.6048866l-.978 1.674 4.106-2.368c.22280253-.1258076.50463219-.0631099.65308472.1452897.14845253.2083995.11561922.4952461-.07608472.6647103l-1.745 1.506 4.017-2.316c.2271272-.1307942.5167067-.0640046.6636035.1530559.1468968.2170604.1012506.5107158-.1046035.6729441l-2.992 2.339 5.487-3.165c.2310609-.1298083.523268-.0567757.6660866.1664779.1428185.2232536.086628.5191613-.1280866.6745221l-2.724 1.924 4.791-2.765c.23265-.1288599.5254615-.0530472.6663444.1725252s.0805297.5219566-.1373444.6744748l-1.923 1.29 3.7-2.137c.23158-.1294027.5239091-.0554223.6660571.1685604.142148.2239828.0846277.5199909-.1310571.6744396l-6.647 4.611 9.452-5.454c.2334572-.1253051.5241289-.0467367.6626677.1791186.1385388.2258554.0768365.5205686-.1406677.6718814l-3.837 2.491 5.663-3.268c.2325262-.1307666.5267591-.0559509.6685809.1700024s.0812744.5234503-.1375809.6759976l-10.737 7.3 11.759-6.788c.2349972-.1452509.5432491-.0724972.6885.1625s.0724972.5432491-.1625.6885l-7.818 5.151 7.439-4.295c.2334461-.1352991.5321345-.0609722.6749447.1679561.1428102.2289282.0782242.5298733-.1459447.6800439l-7.063 4.761 6.535-3.773c.2310609-.1298083.523268-.0567757.6660866.1664779.1428185.2232536.086628.5191613-.1280866.6745221l-6.551 4.622 6.013-3.471c.2335451-.1328438.5303244-.0573638.6720248.1709163s.0776546.5277351-.1450248.6780837l-.492.327c.2326713-.1128708.5130196-.0296966.6464898.1918016s.0760164.5082248-.1324898.6611984l-3.616 2.7 3.067-1.771c.225024-.1298327.5119893-.0657046.6603401.147566s.108657.5046224-.0913401.670434l-2.7 2.244 2.135-1.233c.2104988-.1219393.4782123-.0746814.6342394.1119586s.1550818.458491-.0022394.6440414l-1.689 1.99 1.053-.608c.2374252-.1242009.5305531-.0391619.6646466.1928199.1340935.2319817.0614797.5284321-.1646466.6721801l-3.545 2.043c-.2104988.1219393-.4782123.0746814-.6342394-.1119586s-.1550818-.458491.0022394-.6440414l1.685-1.987-4.754 2.743c-.2247363.1292165-.510959.0652384-.6592891-.1473681-.1483301-.2126064-.1095663-.5033193.0892891-.6696319l2.7-2.244-5.3 3.061c-.2288588.1292299-.518701.0592157-.6633326-.1602346-.1446317-.2194502-.0946742-.513414.1143326-.6727654l3.616-2.7-6.119 3.533c-.2327769.1270897-.524286.0503218-.6642741-.174934-.139988-.2252559-.0797468-.5206233.1372741-.673066l.47-.314-2.013 1.162c-.2304519.1256553-.5188365.0517188-.6604036-.1693153-.14156708-.2210342-.08811596-.5139083.1224036-.6706847l6.555-4.621-9.469 5.461c-.07561844.0452887-.16186523.0697828-.25.071z" fill="#2081e9"/><path id="Path" d="m34.388 45.471c-.2152152 0-.4062846-.137715-.4743416-.3418861-.0680571-.2041711.0021694-.4289848.1743416-.5581139l4.527-3.352-6.97 4.023c-.2305507.1302945-.5227069.0582293-.6662193-.1643342-.1435123-.2225634-.0886-.5184238.1252193-.6746658l6.356-4.56-7.051 4.07c-.2318603.1330617-.527371.0602043-.6708066-.1653857-.1434357-.22559-.0840493-.5240996.1348066-.6776143l6.168-4.3-5.761 3.33c-.2337734.1287456-.5274505.051198-.667188-.1761759-.1397374-.2273739-.07627-.5244122.144188-.6748241l.993-.65-.47.27c-.2317427.1353654-.5290201.0636298-.6735243-.1625272-.1445041-.2261571-.084687-.5260601.1355243-.6794728l6.8-4.783-6.262 3.612c-.2334572.1253051-.5241289.0467367-.6626677-.1791186-.1385388-.2258554-.0768365-.5205686.1406677-.6718814l.4-.261c-.2118645.0548696-.434992-.0326868-.553-.217-.1426407-.2269863-.0808815-.5260773.14-.678l5.4-3.707-4.866 2.808c-.2318603.1330617-.527371.0602043-.6708066-.1653857-.1434357-.22559-.0840493-.5240996.1348066-.6776143l6.248-4.35-5.712 3.3c-.2322938.1351768-.5298928.0625367-.6737842-.164462-.1438914-.2269988-.0825928-.5271392.1387842-.679538l6.059-4.2-5.524 3.187c-.23265.1288599-.5254615.0530472-.6663444-.1725252s-.0805297-.5219566.1373444-.6744748l3.957-2.665-3.428 1.978c-.2329673.1327691-.5291919.0581284-.6714287-.1691822-.1422368-.2273105-.0798406-.5263539.1414287-.6778178l4.19-2.83-3.66 2.111c-.2318603.1330617-.527371.0602043-.6708066-.1653857-.1434357-.22559-.0840493-.5240996.1348066-.6776143l6.482-4.532-5.946 3.432c-.2300482.1308569-.5222207.059778-.6664488-.1621318-.1442281-.2219099-.0905463-.5177734.1224488-.6748682l7.529-5.463-6.985 4.032c-.2329673.1327691-.5291919.0581284-.6714287-.1691822-.1422368-.2273105-.0798406-.5263539.1414287-.6778178l2.217-1.5-1.687.974c-.2305507.1302945-.5227069.0582293-.6662193-.1643342-.1435123-.2225634-.0886-.5184238.1252193-.6746658l2.983-2.139-2.442 1.409c-.2313261.1333882-.5266402.061466-.670727-.1633522-.1440867-.2248181-.0860887-.5231794.131727-.6776478l.455-.322c-.2337885.0835503-.4934729-.0170987-.6098886-.2363818s-.0542978-.4907745.1458886-.6376182l.354-.261c-.2171218.024261-.424855-.0952546-.5130113-.2951519-.0881564-.1998974-.0363208-.4338848.1280113-.5778481l.868-.76-.289.167c-.2036526.117242-.4614665.076848-.6195016-.0970628s-.1736406-.434403-.0374984-.6259372l.694-.975c-.2239594-.0047287-.4174426-.1578381-.4735232-.374714-.0560805-.2168758.0389293-.4445849.2325232-.557286l1.632-.943c.2036526-.117242.4614665-.076848.6195016.0970628s.1736406.434403.0374984.6259372l-.593.834 2.718-1.567c.222272-.1250569.5030453-.0627806.6515981.1445262.1485528.2073069.1172703.4931974-.0725981.6634738l-.869.762 2.72-1.57c.22978-.1349572.525025-.0659893.6712375.156798s.0920063.5210957-.1232375.678202l-.055.04 1.516-.875c.2313261-.1333882.5266402-.061466.670727.1633522.1440867.2248181.0860887.5231794-.131727.6776478l-.384.271 1.928-1.112c.2305507-.1302945.5227069-.0582293.6662193.1643342.1435123.2225634.0886.5184238-.1252193.6746658l-2.986 2.14 5.163-2.979c.2322377-.1273115.5234633-.0514462.664069.1729923.1406056.2244384.0818101.5195841-.134069.6730077l-2.206 1.491 3.016-1.742c.2300482-.1308569.5222207-.059778.6664488.1621318.1442281.2219099.0905463.5177734-.1224488.6748682l-7.53 5.468 7.637-4.409c.2318603-.1330617.527371-.0602043.6708066.1653857.1434357.22559.0840493.5240996-.1348066.6776143l-6.482 4.532 5.946-3.433c.2329673-.1327691.5291919-.0581284.6714287.1691822.1422368.2273105.0798406.5263539-.1414287.6778178l-4.183 2.82 3.653-2.108c.23265-.1288599.5254615-.0530472.6663444.1725252s.0805297.5219566-.1373444.6744748l-3.97 2.674 3.442-1.986c.2322938-.1351768.5298928-.0625367.6737842.164462.1438914.2269988.0825928.5271392-.1387842.679538l-6.054 4.2 5.519-3.186c.2318603-.1330617.527371-.0602043.6708066.1653857.1434357.22559.0840493.5240996-.1348066.6776143l-6.257 4.354 5.717-3.3c.2324067-.1328499.5282158-.0590851.6710333.1673329s.0819688.5251514-.1380333.6776671l-5.392 3.7 4.859-2.8c.2342478-.1308833.5300435-.0535271.6702262.1752769s.074765.527467-.1482262.6767231l-.4.262c.234683-.0646181.4817989.0491591.5852903.2694797s.0332818.4831553-.1662903.6225203l-6.8 4.783 6.263-3.616c.2330372-.1238601.5222123-.0452782.6605113.1794907s.0780959.5183212-.1375113.6705093l-.993.651.47-.271c.2318603-.1330617.527371-.0602043.6708066.1653857.1434357.22559.0840493.5240996-.1348066.6776143l-6.172 4.3 5.636-3.253c.2305507-.1302945.5227069-.0582293.6662193.1643342.1435123.2225634.0886.5184238-.1252193.6746658l-6.352 4.556 5.811-3.354c.2292016-.1303039.5201978-.0602449.6649792.1600976s.0935911.5152436-.1169792.6739024l-4.529 3.353 3.981-2.3c.2238916-.1275836.5080784-.0641108.6564103.1466086.148332.2107193.1122202.4996603-.0834103.6673914l-3.65 3.093 3.077-1.777c.2187434-.1297091.5000021-.0745628.6535686.128145s.1305136.4883932-.0535686.663855l-1.793 1.735 1.2-.69c.2034689-.1174438.4612594-.0773942.6195066.0962447.1582471.173639.1742651.4340297.0384934.6257553l-.7.981c.2240996.0052819.4172965.1590671.4727039.3762733s-.0405175.4447438-.2347039.5567267l-1.619.935c-.2034689.1174438-.4612594.0773942-.6195066-.0962447-.1582471-.173639-.1742651-.4340297-.0384934-.6257553l.594-.837-2.729 1.573c-.2187434.1297091-.5000021.0745628-.6535686-.128145s-.1305136-.4883932.0535686-.663855l1.8-1.736-4.384 2.528c-.2238916.1275836-.5080784.0641108-.6564103-.1466086-.148332-.2107193-.1122202-.4996603.0834103-.6673914l3.645-3.086-6.762 3.9c-.0754832.0456007-.1618163.0701194-.25.071z" fill="#76c03b"/><path id="Path" d="m56.091 36.471c-.2079988.000117-.3943453-.1285474-.4679386-.3230918-.0735934-.1945444-.0190605-.41433.1369386-.5519082l.144-.128-1.62.935c-.2207276.1320893-.5056598.0751513-.6586724-.1316224-.1530126-.2067738-.124171-.4959044.0666724-.6683776l2.762-2.585-5.267 3.041c-.2290632.1321979-.5214568.063148-.6671806-.1575572-.1457237-.2207053-.094369-.5167199.1171806-.6754428l2.363-1.769-2.58 1.488c-.2268147.12995-.5154475.0632557-.6622581-.1530278-.1468106-.2162836-.1022433-.50915.1022581-.6719722l4.4-3.479-3.985 2.3c-.2303174.1272935-.5198822.0542782-.6623044-.1670037s-.0889497-.5150841.1223044-.6719963l1.265-.896-.717.413c-.2304184.1322364-.5240189.0611893-.6684864-.1617642-.1444674-.2229535-.0893536-.5199576.1254864-.6762358l1.342-.971-.8.461c-.2283835.1299972-.5184238.0610156-.6638282-.1578813-.1454044-.2188968-.0965443-.5129964.1118282-.6731187l1.385-1.055-.833.48c-.2245986.1270093-.5089574.0622563-.656419-.1494768-.1474617-.2117332-.109592-.5009023.087419-.6675232l.787-.654-.218.125c-.1991965.1152477-.4513319.0796452-.6108298-.0862515-.1594978-.1658967-.1851601-.4192369-.0621702-.6137485l.858-1.353c-.2207984.063294-.456319-.0319867-.571-.231-.1375532-.2386555-.0561721-.5436114.182-.682l1.632-.943c.1991965-.1152477.4513319-.0796452.6108298.0862515.1594978.1658967.1851601.4192369.0621702.6137485l-.841 1.327 3.534-2.04c.2247363-.1292165.510959-.0652384.6592891.1473681.1483301.2126064.1095663.5033193-.0892891.6696319l-.789.656 2.55-1.47c.2280542-.1290416.517047-.0601323.6623353.1579314.1452882.2180638.0975826.5113034-.1093353.6720686l-1.379 1.051 2.392-1.381c.2304184-.1322364.5240189-.0611893.6684864.1617642.1444674.2229535.0893536.5199576-.1254864.6762358l-1.348.975 1.422-.82c.2309306-.1317312.5245674-.0597083.6683337.1639283.1437664.2236366.0873821.520673-.1283337.6760717l-1.255.893.845-.487c.2266506-.1274915.5131906-.0599635.6590607.1553189.1458701.2152823.1023667.5064398-.1000607.6696811l-4.4 3.481 3.846-2.22c.2290632-.1321979.5214568-.063148.6671806.1575572.1457237.2207053.094369.5167199-.1171806.6754428l-2.365 1.766 1.811-1.045c.2206356-.1300292.503851-.072325.6560244.1336626s.1241014.4936554-.0650244.6663374l-2.761 2.585 2.17-1.252c.2225048-.1289965.5065753-.0681522.6567253.1406622.15015.2088145.1173946.4974755-.0757253.6673378l-.355.312c.1864175-.0069027.3615673.0891224.456.25.1382327.2388784.0567713.5445824-.182.683l-3.88 2.24c-.0759211.0439866-.1622605.0667802-.25.066z" fill="#ffc436"/><path id="Path" d="m4.739 59.471c-.22025356-.0001707-.41445423-.1444469-.47820803-.3552717-.06375379-.2108248.01795695-.4385371.20120803-.5607283l8.215-5.474-9.809 5.663c-.23377341.1287456-.52745054.051198-.66718798-.1761759-.13973743-.2273739-.07626999-.5244122.14418798-.6748241l7.3-4.765-7.365 4.252c-.23551248.13196-.53324972.0531389-.67262044-.1780652-.13937073-.2312042-.07004227-.5312938.15662044-.6779348l.472-.3c-.2380605.1043488-.51636972.0088925-.64026887-.2196036-.12389915-.2284962-.05206082-.5138156.16526887-.6563964l1.751-1.123-1.232.711c-.23296731.1327691-.52919188.0581284-.67142871-.1691822-.14223683-.2273105-.07984054-.5263539.14142871-.6778178l5.359-3.627-4.83 2.788c-.23186034.1330617-.52737097.0602043-.67080661-.1653857-.14343565-.22559-.08404925-.5240996.13480661-.6776143l4.388-3.056-3.852 2.225c-.23252618.1307666-.52675914.0559509-.6685809-.1700024-.14182177-.2259533-.08127436-.5234503.1375809-.6759976l.732-.5-.2.116c-.22650697.1291681-.51424861.0625855-.66099174-.1529516-.14674314-.2155372-.10321493-.5076567.09999174-.6710484l3.4-2.71-2.841 1.64c-.22033537.1244491-.49891194.0646624-.64877854-.1392378-.1498666-.2039001-.12376913-.4876223.06077854-.6607622l2.08-1.9-1.492.86c-.1987624.1180495-.4525372.0844487-.61372886-.0812602-.16119167-.1657088-.18776756-.4203151-.06427114-.6157398l.9-1.463c-.24334778.0919438-.51654216-.0180689-.62826264-.2529951s-.02463806-.5162705.20026264-.6470049l1.632-.943c.19803191-.1143195.44838304-.0797316.608.084.15998833.1640271.18801011.4158111.068.611l-.89 1.452 3.739-2.156c.22033537-.1244491.49891194-.0646624.64877854.1392378.1498666.2039001.12376913.4876223-.06077854.6607622l-2.078 1.9 4.686-2.7c.226047-.126152.5110038-.0589101.6568083.1549885.1458046.2138986.1042381.5037159-.0958083.6680115l-3.4 2.712 6.12-3.535c.2318412-.125947.5216461-.0500755.6620287.1733204.1403825.223396.0830243.5174256-.1310287.6716796l-.727.5 2.323-1.345c.2311923-.1280141.5220815-.054013.6639947.1689178.1419132.2229309.0858401.5178012-.1279947.6730822l-4.393 3.058 6.761-3.9c.2325262-.1307666.5267591-.0559509.6685809.1700024s.0812744.5234503-.1375809.6759976l-5.354 3.623 7.742-4.469c.2343611-.1288923.5286543-.0505227.6678755.1778537.1392213.2283764.0740613.5258734-.1478755.6751463l-1.759 1.127 3.4-1.961c.2363779-.1427656.5437344-.0668778.6865.1695.1427656.2363779.0668779.5437344-.1695.6865l-.413.26 1.071-.618c.1521951-.0936036.3427662-.0989017.4999268-.0138987.1571607.0850031.2570345.2473934.262.426.0049655.1786067-.0857317.3462951-.2379268.4398987l-7.3 4.764 7.468-4.31c.2335451-.1328438.5303244-.0573638.6720248.1709163s.0776546.5277351-.1450248.6780837l-8.217 5.468 7.726-4.46c.2328603-.1351428.5309189-.0616362.6742423.1662803.1433233.2279164.080443.5283964-.1422423.6797197l-7.072 4.834 6.541-3.776c.2329061-.1254293.5232086-.0477402.6623373.1772508s.0789338.5194187-.1373373.6717492l-1.67 1.1 1.145-.66c.2302873-.1343427.5254749-.0643663.6709518.1590541.1454768.2234204.0900639.5216852-.1259518.6779459l-4.831 3.52 4.286-2.475c.228242-.1318458.5196375-.063862.6659708.1553737.1463332.2192358.0973404.5144185-.1119708.6746263l-3.312 2.542 2.758-1.591c.2206356-.1300292.503851-.072325.6560244.1336626s.1241014.4936554-.0650244.6663374l-2.582 2.407 1.991-1.149c.2095622-.1197327.4747426-.0726762.6303137.1118499.1555712.184526.157122.4538447.0036863.6401501l-.994 1.2.24-.137c.2374252-.1242009.5305531-.0391619.6646466.1928199.1340935.2319817.0614797.5284321-.1646466.6721801l-2.649 1.526c-.2096246.1209913-.4758118.0744647-.6319655-.1104606-.1561537-.1849254-.1574318-.4551452-.0030345-.6415394l.994-1.2-3.38 1.952c-.2206356.1300292-.503851.072325-.6560244-.1336626s-.1241014-.4936554.0650244-.6663374l2.58-2.4-5.552 3.2c-.2279124.1308241-.5182022.0628918-.6643976-.1554793-.1461953-.2183711-.0983971-.512647.1093976-.6735207l3.314-2.544-5.843 3.373c-.2302873.1343427-.5254749.0643663-.6709518-.1590541-.1454768-.2234204-.0900639-.5216852.1259518-.6779459l4.835-3.522-7.553 4.359c-.2301758.1079166-.5046881.0259391-.63799461-.190524-.13330649-.2164631-.08296678-.4984972.11699461-.655476l1.665-1.1-3.379 1.946c-.23210925.1290838-.52463723.0541763-.66613933-.170578-.1415021-.2247542-.08259625-.5209195.13413933-.674422l7.07-4.832-9.835 5.677c-.07561844.0452887-.16186523.0697828-.25.071z" fill="#2081e9"/><g fill="#262626"><path id="Shape" d="m57.2 23.439c-2.544-.008-7.481-1-7.935 2.608-.0947649 1.1277627-.1014518 2.2611977-.02 3.39h-2.517c.013-3.8.211-7.666 0-11.459-.13-2.3-.787-3.079-3.137-3.25-1.53-.112-3.184-.206-4.851-.243.056-2.692.492-5.83-3.016-5.965-2.918-.112-5.858-.019-8.781 0 .1755974-1.85088717.104306-3.71690604-.212-5.549-.98-4.4-11.113-2.4-14.318-2.4-3.596-.009-10.375-1.659-11.14 3.098-.511 3.181-.194 7.103 0 10.331.127 2.066.464 3.06 2.677 3.438 3.214.548 6.985 0 10.244 0h9.532c.012 0 .026-.006.039-.006.1149648.0055681.2300812-.0072601.341-.038 2.518-.681 2.621-2.184 2.621-4.532 0-1.052.078-2.2.154-3.382h6.928c1.479 0 2.979-.285 3.461 1.657.1588394 1.1044358.1672493 2.2253052.025 3.332-1.5921387-.0113342-3.1834698.075162-4.765.259-1.878.236-2.844.749-3.254 2.664-.608 2.832 0 6.457 0 9.34v2.861h-2.263c.1402832-1.8560898.0431656-3.7224939-.289-5.554-.522-2.3-1.812-2.27-3.835-2.341-3.572-.126-7.169 0-10.743 0-2.966.002-9.957-1.491-10.87 2.592-.667 2.977 0 6.8 0 9.848 0 2.181-.016 3.725 2.481 4.164 3.332.587 7.337 0 10.711 0h9.064c.0262787-.0024528.0523463-.0067974.078-.013.1527419.0068359.3055445-.0120954.452-.056 2.214-.6 2.57-1.65 2.662-3.8.053-1.209.167-2.6.249-4.027h2.3v9.614c0 2.474-.479 4.74 2.507 5.252 1.8204065.2666175 3.6630228.3493677 5.5.247.0868977 1.1384505.0842228 2.2819685-.008 3.42-.29 2.061-1.288 1.761-2.927 1.761h-7.432c.1936227-1.9042553.1327542-3.8258167-.181-5.714-.983-4.493-10.8-2.49-14.061-2.49-3.651.004-10.983-1.777-11.403 3.37-.36849819 3.5270679-.36849819 7.0829321 0 10.61.282 1.956.762 2.684 2.8 3.028 3.249.548 7.04 0 10.327 0h9.405.05.076c.126735-.0015217.2514957-.031601.365-.088 2.525-.761 2.438-2.513 2.438-4.924 0-1 .072-2.079.143-3.179 2.823.032 5.668.135 8.477-.013 1.271-.067 2.785-.424 3.261-1.794.2853819-1.3309619.3300877-2.7022767.132-4.049 1.631-.082 3.251-.185 4.779-.185.0336514-.0025827.0670719-.0075958.1-.015.1445898-.0034282.2881227-.0256136.427-.066 2.248-.608 2.572-1.651 2.673-3.8.17-3.591.027-7.228.007-10.828h2.526c-.0822106 1.1844039-.0778657 2.3732286.013 3.557.488 3.634 6.12 2.441 8.674 2.441.121384-.0013213.2409482-.0296751.35-.083 3.293-.806 2.442-4.737 2.442-7.475.003-2.96.192-5.552-3.533-5.564zm-33.21-6.877h-17.263c-3.734 0-4-1.924-4-5.331 0-2.309-1-7.2.528-9.053 1.32-1.6 5.665-.74 7.691-.74h10.63c3.657 0 3.7 2.2 3.7 5.331 0 .442.077 1.242.149 2.2-.15.189-.185.385.034.467.189 2.777.253 6.518-1.47 7.126zm.086 21.138h-17.156c-3.391 0-4.2-1.489-4.2-4.726 0-2.44-1.074-7.848.433-9.87 1.232-1.653 5.521-.8 7.6-.8h10.63c3.342 0 3.893 1.737 3.893 4.726 0 .509.095 1.565.173 2.819-.0510129.0368161-.0930577.084672-.123.14-.0419119.0681575-.0488174.1522133-.0185912.2262972s.0939621.1293181.1715912.1487028c.16 2.951.135 6.694-1.403 7.336zm-.126 20.8h-17.426c-3.68 0-3.792-1.9-3.792-5.245 0-2.334-1.007-7.245.627-9.031 1.446-1.58 5.728-.716 7.79-.716h10.63c3.577 0 3.489 2.185 3.489 5.245 0 .475.085 1.343.162 2.367-.115.084-.126.149.012.17.202 2.779.299 6.61-1.492 7.21zm20.15-13.765c-1.719.02-3.554.163-5.374.221 0-.049 0-.1 0-.15 0-.194-.928-.094-1.294.171-1.1516744.015424-2.3025521-.0678808-3.44-.249-3.923-.688-3.266-2.937-3.266-6.174v-13.168c0-2.218-.969-7.389.454-9.322.657-.893 3.428-1.184 6.1-1.183 0 .06-.008.129-.008.189 0 .7 1.46.44 1.46-.14v-.02c1.2050841.0244695 2.4062662.145524 3.592.362 3.764.882 2.954 3.4 2.954 6.567v13.242c-.002 1.478 1.028 8.708-1.178 9.654zm13.954-9.3h-3.929c-1.635 0-3.177.228-3.389-1.919-.153-1.549 0-3.194 0-4.751 0-1.253-.5-3.647 1.208-4.208 1-.328 2.654 0 3.7 0 1.614 0 3.359-.3 3.616 1.8.0865812 1.4653889.0865812 2.9346111 0 4.4.004 1.068.559 4.398-1.204 4.682z"/><path id="Path" d="m8.267 10.34-1.083-1.083c-.13431626-.14683114-.27866322-.28416123-.432-.411.14175081-.12712915.27534892-.26306523.4-.407l1-1 1.5-1.5c.286-.286-1.062-.126-1.308.12l-3 3c-.064.064-.1.115-.029.184l3 3c.256.256 1.573-.281 1.366-.488z"/><path id="Path" d="m19.682 5.753c-.264-.264-1.589.269-1.364.494l1.416 1.417 1.083 1.083c.1315791.14447228.2725523.28010052.422.406-.1403745.12444412-.2723314.25807135-.395.4-.3333333.33333333-.6666667.6666667-1 1l-1.5 1.5c-.3.3 1.06.145 1.312-.108l3-3c.065-.065.1-.124.026-.193z"/><path id="Path" d="m14.306 5.911c-.6666667 2-1.3333333 4-2 6-.267.8 1.179.806 1.388.178.6666667-2 1.3333333-4 2-6 .267-.801-1.179-.806-1.388-.178z"/><path id="Path" d="m8.266 31.336-1.083-1.083c-.13132831-.1447161-.27231836-.2803605-.422-.406.14181507-.1245729.27542712-.2581849.4-.4l1-1 1.5-1.5c.3-.3-1.059-.147-1.312.106l-3 3c-.065.065-.1.125-.026.194l3 3c.264.265 1.591-.268 1.364-.494z"/><path id="Path" d="m19.683 26.755c-.26-.26-1.581.275-1.366.49l1.417 1.417c.244.245 1.574 1.4 1.585 1.489-.015-.129-.365.3-.475.406l-1 1-1.5 1.5c-.292.292 1.061.135 1.31-.114l3-3c.065-.065.1-.12.028-.188z"/><path id="Path" d="m14.27 27.068c-.6666667 2-1.3333333 4-2 6-.2.6 1.271.432 1.46-.137.6666667-2 1.3333333-4 2-6 .201-.601-1.271-.431-1.46.137z"/><path id="Path" d="m7.161 50.463 1-1 1.5-1.5c.333-.333-1.053-.2-1.322.074l-3 3c-.067.067-.09.149-.019.219l3 3c.285.285 1.628-.244 1.36-.512l-1.417-1.417-1.083-1.083c-.12321537-.1385802-.25479455-.2694915-.394-.392.13226451-.1224618.25746617-.2523377.375-.389z"/><path id="Path" d="m19.681 47.749c-.273-.273-1.607.258-1.362.5l1.416 1.417 1.083 1.083c.128869.1417835.2664703.275377.412.4-.1381073.1227512-.2677376.2547201-.388.395l-1 1-1.5 1.5c-.315.315 1.057.167 1.316-.092l3-3c.066-.066.093-.135.023-.2z"/><path id="Path" d="m14.3 47.9c-.6666667 2-1.3333333 4-2 6-.272.817 1.176.861 1.4.2.6666667-2 1.3333333-4 2-6 .27-.816-1.178-.86-1.4-.2z"/></g></g></svg>