<svg height="502pt" viewBox="0 -1 502.44024 502" width="502pt" xmlns="http://www.w3.org/2000/svg"><path d="m84.988281 496.679688c-1.875.003906-3.523437-1.238282-4.039062-3.042969-.515625-1.804688.230469-3.730469 1.824219-4.71875l55.589843-34.523438-72.277343 41.691407c-1.980469 1.117187-4.492188.449218-5.660157-1.503907s-.566406-4.480469 1.355469-5.699219l56.414062-34.765624-72.8125 41.96875c-1.976562 1.066406-4.441406.394531-5.597656-1.527344s-.59375-4.414063 1.273438-5.660156l124.785156-78.257813-141.488281 81.683594c-1.988281 1.132812-4.519531.464843-5.6875-1.503907s-.542969-4.511718 1.40625-5.714843l9.410156-5.707031-12.019531 6.933593c-1.972656 1.054688-4.429688.375-5.578125-1.546875-1.148438-1.921875-.589844-4.40625 1.273437-5.648437l129.449219-80.523438-130.230469 75.1875c-1.976562 1.089844-4.464844.417969-5.625-1.519531-1.160156-1.933594-.582031-4.441406 1.308594-5.675781l130.191406-80.871094-126.414062 73.023437c-1.976563 1.03125-4.410156.335938-5.546875-1.582031s-.574219-4.386719 1.277343-5.625l35.292969-21.464843-31.054687 17.90625c-1.96875 1.050781-4.417969.378906-5.574219-1.535157-1.152344-1.910156-.605469-4.390625 1.242187-5.644531l171.308594-108.113281-166.945312 96.378906c-1.96875 1.054687-4.417969.378906-5.570313-1.53125-1.152343-1.910156-.609375-4.390625 1.242188-5.644531l164.988281-103.808594-160.667969 92.753906c-1.976562 1.074219-4.449219.394532-5.605469-1.535156-1.152343-1.933594-.574218-4.433594 1.308594-5.664062l106.042969-65.417969-101.769531 58.753906c-1.984375 1.140625-4.515625.488281-5.695313-1.476563-1.179687-1.960937-.566406-4.503906 1.371094-5.71875l155.613281-97.488281-151.265625 87.316407c-1.972656 1.070312-4.4375.398437-5.59375-1.527344-1.15625-1.921875-.597656-4.414063 1.273438-5.65625l156.90625-98.390625-152.59375 88.132812c-1.980469 1.042969-4.433594.351563-5.570313-1.578125-1.140625-1.925781-.5625-4.410156 1.304688-5.640625l12.550781-7.605469-8.285156 4.777344c-1.976563 1.089844-4.460938.417969-5.625-1.515625-1.160157-1.9375-.582031-4.445312 1.3125-5.675781l139.070312-86.621094-134.757812 77.765625c-1.980469 1.070313-4.449219.394531-5.605469-1.539062-1.152344-1.933594-.574219-4.433594 1.308594-5.664063l104.253906-64.277344-99.964844 57.738282c-1.972656 1.070312-4.4375.398437-5.59375-1.527344-1.160156-1.921875-.597656-4.414062 1.269532-5.65625l153.980468-96.457031-149.65625 86.402343c-1.988281 1.132813-4.519531.460938-5.6875-1.507812-1.167968-1.96875-.542968-4.511719 1.40625-5.710938l76.773438-47.003906-72.492188 41.824219c-1.976562 1.054687-4.429687.375-5.578125-1.546875-1.148437-1.917969-.589843-4.402344 1.273438-5.644531l126.671875-78.589844-122.375 70.648437c-1.980469 1.089844-4.464844.417969-5.625-1.519531-1.160156-1.933593-.582032-4.441406 1.308594-5.675781l136.535156-84.964844-132.21875 76.328125c-1.976563 1.054688-4.429688.375-5.578125-1.542969-1.152344-1.921874-.589844-4.40625 1.269531-5.648437l122.863281-76.113281-118.5625 68.433594c-1.980469 1.074218-4.453125.394531-5.605469-1.539063-1.152343-1.933594-.578124-4.429687 1.304688-5.664063l112.96875-69.824218-108.667969 62.742187c-1.992187 1.191407-4.570312.542969-5.757812-1.445312-1.191407-1.988281-.546875-4.566407 1.441406-5.757813l131.214844-81.683594-126.898438 73.257813c-1.984375 1.117187-4.496093.449219-5.664062-1.503906s-.566407-4.480469 1.355469-5.699219l107.253906-66.542969-102.957032 59.433594c-1.96875 1.039063-4.40625.359375-5.554687-1.550781-1.144531-1.910156-.601563-4.382813 1.242187-5.632813l105.757813-66.140625-101.476563 58.585938c-1.976562 1.128906-4.492187.476562-5.671874-1.46875-1.179688-1.945313-.59375-4.476563 1.324218-5.707032l117.835938-75.070312-113.457032 65.46875c-1.964843 1.097656-4.449218.449219-5.625-1.472656-1.175781-1.917969-.625-4.425782 1.246094-5.679688l115.222656-74.886718-110.851562 63.992187c-1.972656 1.070313-4.4375.398437-5.59375-1.527344-1.15625-1.921875-.597656-4.414062 1.273438-5.65625l32.515624-20.378906-28.195312 16.265625c-1.953125 1.039062-4.382812.378906-5.542969-1.507812-1.160156-1.886719-.65625-4.351563 1.152344-5.628907l76.128906-49.839843-71.738281 41.421874c-1.976562 1.128907-4.492188.480469-5.671875-1.46875-1.179687-1.945312-.589844-4.476562 1.324219-5.707031l20.910156-13.320312-16.570312 9.5625c-1.945313 1.097656-4.414063.476562-5.609376-1.414063-1.195312-1.886718-.699218-4.382812 1.128907-5.671875l66.835937-46.0625-62.355468 35.964844c-1.933594 1.082031-4.371094.476563-5.574219-1.382813-1.203125-1.859374-.753907-4.332031 1.023437-5.652343l55.289063-39.84375-39.449219 22.765625c-1.929688 1.113281-4.394531.527344-5.613281-1.339844s-.765625-4.359375 1.03125-5.679688l34.078125-25.042968c-1.542969-.34375-2.761719-1.519532-3.160156-3.050782-.394532-1.527343.105468-3.148437 1.289062-4.195312l24.660156-21.761719c-.46875-1.824219.332032-3.734375 1.960938-4.675781l9.9375-5.699219c1.867187-1.082031 4.253906-.574219 5.515625 1.179688 1.257812 1.753906.984375 4.175781-.636719 5.601562l-4.472656 3.953125 18.582031-10.734375c1.929687-1.113281 4.394531-.527343 5.613281 1.339844 1.21875 1.863281.765625 4.359375-1.03125 5.675781l-25.894531 19.003906 45.097656-26.019531c1.933594-1.109375 4.398438-.515625 5.613281 1.355469 1.210938 1.875.75 4.367188-1.054687 5.679688l-55.3125 39.875 81.316406-46.910157c1.941407-1.0625 4.371094-.433593 5.554688 1.4375 1.183593 1.867188.714843 4.335938-1.074219 5.636719l-66.8125 46.054688 92.078125-53.128907c1.96875-1.066406 4.425781-.402343 5.585937 1.511719 1.164063 1.914062.617188 4.402344-1.238281 5.65625l-20.875 13.277344 35.460938-20.445313c1.957031-1.039062 4.382812-.378906 5.546875 1.507813 1.160156 1.886718.652344 4.347656-1.15625 5.625l-76.109375 49.808594 98.671875-56.941407c1.972656-1.070312 4.4375-.398437 5.59375 1.527344 1.15625 1.921875.597656 4.414063-1.273438 5.65625l-32.539062 20.398437 47.785156-27.582031c1.957031-1.050781 4.398438-.394531 5.558594 1.503907 1.164062 1.894531.648437 4.367187-1.179688 5.636718l-115.214844 74.898438 142.140626-82.039063c1.972656-1.101562 4.460937-.445312 5.636718 1.484375 1.171875 1.929688.605469 4.441406-1.28125 5.683594l-117.867187 75.085938 142.527343-82.253907c1.976563-1.070312 4.441407-.398437 5.597657 1.527344 1.15625 1.921875.59375 4.414063-1.273438 5.65625l-105.875 66.167969 125.3125-72.34375c1.980469-1.089844 4.464844-.417969 5.625 1.515625 1.160157 1.9375.582031 4.445312-1.308593 5.675781l-107.152344 66.503906 115.761718-66.847656c1.992188-1.191406 4.570313-.546875 5.765626 1.441406 1.191406 1.988282.546874 4.566406-1.441407 5.761719l-131.171875 81.640625 132.726563-76.640625c1.988281-1.183594 4.566406-.535156 5.753906 1.457031 1.183594 1.992188.53125 4.566406-1.457031 5.753906l-113.0625 69.875 109.769531-63.351562c1.976563-1.054688 4.429687-.375 5.578125 1.546875 1.152344 1.917969.589844 4.402344-1.269531 5.644531l-122.761719 76.070313 118.453125-68.375c1.992187-1.1875 4.566406-.542969 5.757813 1.445312 1.191406 1.988281.546874 4.566407-1.441407 5.757813l-136.535156 84.949218 132.21875-76.378906c1.984375-1.117187 4.496094-.449218 5.664063 1.503906 1.167968 1.953126.566406 4.480469-1.355469 5.699219l-126.609375 78.585938 122.300781-70.613281c1.980469-1.058594 4.441406-.371094 5.589844 1.558593 1.144531 1.929688.570312 4.417969-1.308594 5.652344l-76.773437 47 72.492187-41.855469c1.984375-1.144531 4.515625-.488281 5.695313 1.472656 1.179687 1.960938.570312 4.503907-1.371094 5.71875l-153.976563 96.464844 149.652344-86.398437c1.992187-1.1875 4.570313-.535157 5.753906 1.453125 1.1875 1.992187.535157 4.566406-1.453125 5.753906l-104.347656 64.3125 100.015625-57.746094c1.976563-1.089844 4.460937-.421875 5.625 1.515625 1.160156 1.9375.582031 4.445313-1.3125 5.675781l-139.035156 86.621094 134.753906-77.800781c1.984375-1.078125 4.46875-.394531 5.617187 1.550781 1.152344 1.941406.558594 4.449219-1.34375 5.667969l-12.589843 7.613281 8.285156-4.785156c1.980469-1.140625 4.515625-.484375 5.691406 1.476562 1.179688 1.960938.570313 4.503907-1.371093 5.71875l-156.820313 98.355469 152.53125-88.074219c1.984375-1.144531 4.515625-.488281 5.695313 1.472657 1.179687 1.960937.570312 4.507812-1.371094 5.71875l-155.574219 97.492187 151.242187-87.292968c1.980469-1.074219 4.453126-.394532 5.605469 1.539062 1.152344 1.933594.578125 4.429688-1.308593 5.664062l-106.292969 65.542969 102.015625-58.894531c1.976562-1.109375 4.472656-.449219 5.644531 1.492188 1.167969 1.941406.585937 4.460937-1.316406 5.691406l-164.9375 103.765625 160.609375-92.71875c1.96875-1.054688 4.414062-.378907 5.570312 1.53125 1.152344 1.910156.609375 4.390625-1.242187 5.644531l-171.359375 108.125 167.03125-96.425781c1.976562-1.027344 4.410156-.332031 5.546875 1.582031 1.136719 1.917969.574219 4.386719-1.277344 5.628906l-35.050781 21.308594 30.78125-17.757812c1.980468-1.117188 4.492187-.453126 5.660156 1.5 1.167969 1.953124.566406 4.484374-1.355469 5.699218l-130.242187 80.898438 125.902344-72.707032c1.984374-1.113281 4.492187-.449218 5.660156 1.503907 1.167968 1.953125.566406 4.480469-1.355469 5.699219l-129.367187 80.484374 125.0625-72.183593c1.984374-1.078125 4.464843-.394531 5.617187 1.550781 1.148437 1.941406.554687 4.449219-1.34375 5.667969l-9.417969 5.714843 5.144532-2.96875c1.980468-1.144531 4.515624-.488281 5.695312 1.472657 1.175781 1.960937.566406 4.503906-1.371094 5.71875l-124.703125 78.21875 120.414063-69.515625c1.976562-1.070313 4.449218-.394532 5.601562 1.539062 1.15625 1.933594.578125 4.433594-1.304687 5.664063l-56.515625 34.890625 52.207031-30.132813c1.976563-1.054687 4.429687-.375 5.578125 1.546875 1.152344 1.921875.589844 4.40625-1.269531 5.648438l-55.558594 34.503906 51.261719-29.570312c1.972656-1.128907 4.492187-.476563 5.671875 1.46875 1.175781 1.949218.589843 4.480468-1.324219 5.707031l-89.652344 57.144531 85.304688-49.210938c1.972656-1.054687 4.425781-.375 5.578125 1.546876 1.148437 1.917968.589843 4.402343-1.273438 5.644531l-14.730469 9.167969 10.425782-6.019532c1.957031-1.113281 4.449218-.480468 5.640625 1.433594 1.1875 1.917969.648437 4.429688-1.21875 5.691406l-91.890625 61.097656 87.457031-50.488281c1.960937-1.078125 4.421875-.4375 5.597656 1.464844s.65625 4.390625-1.179687 5.664063l-62.558594 41.460937 58.140625-33.574219c1.964844-1.0625 4.417969-.40625 5.585937 1.5 1.164063 1.90625.632813 4.390625-1.210937 5.652344l-14.613281 9.46875 10.289062-5.933594c1.957032-1.097656 4.429688-.460937 5.617188 1.441406 1.183594 1.902344.664062 4.402344-1.183594 5.675782l-31.660156 21.234375 27.226562-15.71875c1.957032-1.117188 4.441406-.488281 5.636719 1.417969s.671875 4.417968-1.1875 5.691406l-18.179687 12.285156 13.730468-7.914062c1.898438-1.074219 4.296875-.515626 5.53125 1.28125 1.230469 1.796874.878906 4.238281-.804687 5.617187l-40.675781 32.734375 35.949218-20.746094c1.835938-1.089844 4.199219-.628906 5.488282 1.074219 1.289062 1.703125 1.09375 4.097656-.449219 5.570313l-25.089844 24.242187 20.011719-11.550781c1.777344-1.019532 4.035156-.601563 5.335937.988281 1.296875 1.589844 1.253907 3.882813-.101562 5.425781l-8.324219 9.382813c2.039062-.6875 4.269531.285156 5.160156 2.246093.890625 1.960938.148438 4.277344-1.710937 5.359376l-21.519531 12.40625c-1.78125 1.019531-4.039063.601562-5.335938-.988282-1.300781-1.589844-1.257812-3.882812.097656-5.425781l8.167969-9.230469-27.0625 15.644532c-1.835937 1.085937-4.195313.625-5.484375-1.078126-1.289062-1.699218-1.097656-4.097656.449219-5.570312l25.011719-24.199219-53.414063 30.847657c-1.898437 1.089843-4.316406.542968-5.554687-1.265626-1.238282-1.804687-.882813-4.257812.820312-5.636718l40.691406-32.734375-68.726562 39.636719c-1.949219 1.066406-4.394532.429687-5.574219-1.453126-1.179687-1.882812-.6875-4.359374 1.125-5.648437l18.089844-12.203125-33.523438 19.304688c-1.953125 1.054687-4.386719.410156-5.558593-1.472657-1.171876-1.882812-.679688-4.351562 1.125-5.636719l31.695312-21.269531-49.144531 28.378907c-1.964844 1.097656-4.449219.449218-5.625-1.472657s-.628907-4.425781 1.242187-5.679687l14.621094-9.425782-28.730469 16.578126c-1.960937 1.113281-4.449219.480468-5.640625-1.4375-1.1875-1.914063-.652344-4.425782 1.21875-5.691407l62.574219-41.46875-84.179687 48.597657c-1.953126 1.066406-4.398438.421874-5.574219-1.46875-1.175781-1.890626-.671875-4.371094 1.152343-5.648438l91.925782-61.164062-118.28125 68.28125c-1.976563 1.054687-4.429688.371093-5.578125-1.546876-1.152344-1.921874-.589844-4.40625 1.269531-5.648437l14.648438-9.105469-28.253907 16.300782c-1.964843 1.066406-4.425781.398437-5.585937-1.515626-1.160156-1.914062-.617188-4.402343 1.238281-5.652343l89.667969-57.160157-111.4375 64.328126c-.636719.378906-1.359375.585937-2.101563.59375zm0 0" fill="#e4e8eb"/><path d="m271.566406 245.632812c-1.679687.003907-3.199218-.996093-3.863281-2.539062-.664063-1.546875-.34375-3.335938.816406-4.554688l4.902344-5.144531-10.734375 6.195313c-1.851562 1.058594-4.199219.5625-5.464844-1.152344-1.265625-1.71875-1.039062-4.109375.519532-5.5625l5.542968-5.09375c-1.296875-.320312-2.363281-1.234375-2.875-2.464844-.511718-1.230468-.40625-2.628906.28125-3.773437l11.664063-19.472657c-.921875-1.964843-.195313-4.308593 1.679687-5.40625l3.289063-1.902343c1.65625-.953125 3.742187-.667969 5.082031.691406s1.59375 3.449219.617188 5.089844l-6.855469 11.441406 11.75-6.792969c1.851562-1.058594 4.199219-.5625 5.464843 1.15625 1.265626 1.714844 1.039063 4.109375-.519531 5.558594l-1.597656 1.460938 3.132813-1.804688c1.804687-1.042969 4.101562-.601562 5.394531 1.035156 1.292969 1.636719 1.1875 3.976563-.25 5.488282l-4.910157 5.160156 7.34375-4.195313c1.992188-1.042969 4.453126-.328125 5.578126 1.617188 1.125 1.949219.515624 4.4375-1.382813 5.644531l-32.554687 18.792969c-.625.351562-1.332032.53125-2.050782.527343zm0 0" fill="#424852"/><path d="m305.183594 227.621094c-1.734375 0-3.292969-1.070313-3.914063-2.691406-.625-1.621094-.1875-3.457032 1.101563-4.621094l8.773437-7.929688-11.8125 6.816406c-1.835937 1.085938-4.195312.625-5.484375-1.078124-1.289062-1.699219-1.09375-4.097657.449219-5.570313l12.589844-12.179687-16.785157 9.675781c-1.828124 1.042969-4.144531.570312-5.417968-1.105469-1.273438-1.671875-1.109375-4.03125.378906-5.515625l13.179688-12.949219-17.636719 10.164063c-1.808594 1.042969-4.113281.597656-5.402344-1.050781-1.289063-1.648438-1.167969-3.992188.285156-5.496094l15.058594-15.527344c-1.742187.628906-3.691406.046875-4.796875-1.441406-1.109375-1.484375-1.109375-3.519532-.003906-5.007813l6.863281-9.230469-.089844-.160156c-1.164062-2.003906-.476562-4.570312 1.527344-5.734375l5.957031-3.441406c1.722656-.988281 3.90625-.632813 5.226563.847656 1.320312 1.484375 1.421875 3.691407.238281 5.289063l-.839844 1.066406 7.554688-4.371094c1.8125-1.046875 4.117187-.601562 5.402344 1.046875 1.289062 1.648438 1.167968 3.992188-.28125 5.5l-14.90625 15.367188 20.140624-11.617188c1.828126-1.039062 4.144532-.566406 5.417969 1.105469 1.273438 1.675781 1.109375 4.035156-.378906 5.515625l-13.171875 12.953125 17.628906-10.15625c1.835938-1.089844 4.195313-.625 5.484375 1.074219 1.289063 1.703125 1.09375 4.101562-.449219 5.574219l-12.589843 12.175781 16.734375-9.660157c1.847656-1.003906 4.152344-.484374 5.394531 1.210938 1.238281 1.695312 1.03125 4.050781-.484375 5.503906l-8.777344 7.933594 5.597656-3.230469c1.300782-.761719 2.90625-.769531 4.214844-.019531 1.304688.75 2.109375 2.140625 2.105469 3.648438-.003906 1.503906-.8125 2.894531-2.125 3.636718l-39.890625 23.042969c-.621094.390625-1.335938.609375-2.066406.636719zm0 0" fill="#e3b692"/><path d="m184.710938 160.859375c-1.757813 0-3.332032-1.097656-3.9375-2.75-.609376-1.648437-.121094-3.503906 1.21875-4.644531l33.808593-28.730469-55.917969 32.253906c-1.945312 1.117188-4.425781.507813-5.628906-1.386719-1.203125-1.894531-.707031-4.398437 1.132813-5.6875l9.316406-6.503906-17.5 10.070313c-1.949219 1.101562-4.414063.480469-5.609375-1.410157-1.195312-1.890624-.703125-4.382812 1.125-5.671874l7.808594-5.382813-13.816406 7.964844c-1.914063 1.078125-4.328126.5-5.546876-1.324219s-.828124-4.277344.894532-5.632812l36.570312-28.109376-45.246094 26.113282c-1.910156 1.082031-4.328124.511718-5.554687-1.304688-1.226563-1.820312-.84375-4.277344.878906-5.636718l31.800781-24.777344-35.484374 20.488281c-1.90625 1.089844-4.328126.53125-5.558594-1.285156-1.234375-1.816407-.859375-4.273438.855468-5.640625l20.042969-15.847656-17.128906 9.839843c-1.859375 1.070313-4.226563.574219-5.488281-1.160156-1.269532-1.734375-1.019532-4.148437.578125-5.589844l10.691406-9.617187c-1.75-.28125-3.140625-1.628906-3.464844-3.375-.328125-1.746094.480469-3.507813 2.015625-4.398438l28.535156-16.46875c1.847657-1.003906 4.152344-.484375 5.390626 1.210938 1.242187 1.695312 1.035156 4.046875-.480469 5.503906l-7.351563 6.605469 31.8125-18.355469c1.898438-1.085938 4.316406-.527344 5.546875 1.285156 1.230469 1.808594.867188 4.257813-.839843 5.628906l-20.035157 15.898438 38.609375-22.300781c1.914063-1.113281 4.359375-.550781 5.59375 1.285156 1.238282 1.835937.835938 4.3125-.917968 5.664063l-31.8125 24.785156 47.894531-27.648438c1.914062-1.097656 4.347656-.527344 5.578125 1.304688 1.226562 1.835937.824218 4.304687-.921875 5.65625l-36.558594 28.210937 48.890625-28.21875c1.945312-1.101562 4.414062-.480469 5.609375 1.410157 1.195313 1.886718.699219 4.382812-1.128906 5.671874l-7.796875 5.378907 11.558594-6.664063c1.941406-1.074218 4.382812-.453125 5.574218 1.417969s.71875 4.347656-1.074218 5.652344l-9.316407 6.511719 11.75-6.800782c1.878907-1.105468 4.296875-.585937 5.558594 1.195313 1.257813 1.785156.941406 4.234375-.734375 5.640625l-33.808594 28.695312 35.730469-20.632812c1.863281-1.054688 4.21875-.542969 5.472656 1.1875 1.253907 1.734375 1.007813 4.132812-.578125 5.570312l-14.460937 12.953125 4.414062-2.519531c1.300781-.761719 2.90625-.769531 4.214844-.019531 1.304687.75 2.109375 2.144531 2.105469 3.648437-.003906 1.507813-.8125 2.894532-2.125 3.640625l-39.632813 22.871094c-1.84375.976563-4.125.453125-5.355469-1.234375-1.230468-1.6875-1.03125-4.023438.460938-5.480469l14.480469-13.019531-40.605469 23.445312c-.640625.371094-1.363281.566407-2.101562.570313zm0 0" fill="#9ed26a"/><path d="m178.792969 462.460938c-1.742188 0-3.308594-1.078126-3.925781-2.710938-.617188-1.632812-.160157-3.480469 1.148437-4.632812l25.082031-22.160157-42.691406 24.644531c-1.925781 1.101563-4.378906.515626-5.59375-1.34375-1.21875-1.855468-.777344-4.339843 1.003906-5.664062l9.660156-7.109375-16.046874 9.230469c-1.878907 1.066406-4.257813.535156-5.503907-1.226563-1.246093-1.765625-.949219-4.183593.683594-5.597656l28.042969-23.792969-35.65625 20.578125c-1.878906 1.078125-4.269532.542969-5.515625-1.230469-1.246094-1.773437-.933594-4.203124.714843-5.609374l19.019532-16.023438-19.378906 11.191406c-1.832032 1.070313-4.179688.601563-5.460938-1.089844-1.285156-1.691406-1.101562-4.074218.425781-5.550781l9.347657-9.148437c-1.585938.121094-3.097657-.695313-3.867188-2.089844-1.160156-2.007812-.476562-4.570312 1.527344-5.734375l25.589844-14.773437c1.832031-1.054688 4.164062-.582032 5.441406 1.097656 1.277344 1.683594 1.105468 4.054687-.402344 5.535156l-8.050781 7.890625 31.675781-18.289063c1.882812-1.078124 4.273438-.542968 5.519531 1.230469 1.242188 1.773438.933594 4.203125-.71875 5.609375l-19.007812 16.03125 34.765625-20.078125c1.878906-1.089843 4.277344-.5625 5.53125 1.214844 1.253906 1.773437.941406 4.210937-.714844 5.617187l-28.042969 23.8125 41.035157-23.6875c1.925781-1.101562 4.378906-.515624 5.597656 1.34375 1.214844 1.855469.773437 4.339844-1.007813 5.667969l-9.609375 7.082031 13.742188-7.921874c1.863281-1.0625 4.230468-.546876 5.480468 1.191406 1.253907 1.742187.992188 4.148437-.605468 5.582031l-25.089844 22.148437 27.992188-16.15625c1.886718-1.097656 4.300781-.570312 5.550781 1.214844 1.253906 1.789063.929687 4.238282-.746094 5.632813l-6.574219 5.5.921875-.53125c1.996094-1.039063 4.453125-.328125 5.582031 1.621093 1.125 1.945313.515626 4.433594-1.382812 5.640626l-42.691406 24.652343c-1.882813 1.097657-4.296875.570313-5.546875-1.21875-1.253907-1.785156-.929688-4.234375.746093-5.632812l6.574219-5.496094-22.46875 12.96875c-.636719.375-1.363281.570313-2.101562.570313zm0 0" fill="#9ed26a"/><path d="m177.285156 278.257812c-1.703125-.003906-3.234375-1.035156-3.875-2.609374-.644531-1.574219-.273437-3.378907.9375-4.574219l18.464844-18.15625-24.222656 14.027343c-1.898438 1.113282-4.335938.570313-5.585938-1.242187-1.246094-1.816406-.878906-4.285156.84375-5.660156l4.757813-3.851563-6.824219 3.9375c-1.804688 1.03125-4.089844.585938-5.375-1.042968-1.289062-1.628907-1.191406-3.957032.230469-5.472657l20.613281-21.738281-26.933594 15.546875c-1.816406 1.046875-4.125.59375-5.410156-1.058594-1.285156-1.65625-1.15625-4.003906.304688-5.507812l26.179687-26.941407c-.300781-.28125-.558594-.605468-.761719-.964843-1.160156-2.007813-.472656-4.574219 1.535156-5.734375l13.597657-7.863282c1.8125-1.035156 4.109375-.578124 5.390625 1.066407 1.28125 1.648437 1.160156 3.984375-.289063 5.488281l-18.589843 19.070312 25.816406-14.898437c1.804687-1.019531 4.082031-.570313 5.363281 1.054687s1.1875 3.945313-.226563 5.457032l-20.613281 21.816406 27.699219-15.996094c1.894531-1.089844 4.304688-.539062 5.542969 1.257813 1.238281 1.800781.890625 4.25-.800781 5.632812l-4.726563 3.824219 6.792969-3.910156c1.824218-1.039063 4.140625-.566406 5.414062 1.105468 1.273438 1.675782 1.113282 4.035157-.378906 5.515626l-18.464844 18.15625 11.566406-6.671876c1.992188-1.042968 4.453126-.328124 5.578126 1.617188 1.125 1.949219.515624 4.4375-1.382813 5.644531l-40.070313 23.113281c-.636718.375-1.363281.566407-2.097656.5625zm0 0" fill="#fdcd56"/><path d="m74.4375 370.777344c-1.785156 0-3.378906-1.132813-3.964844-2.824219-.582031-1.6875-.03125-3.5625 1.371094-4.667969l23.503906-18.566406-43.378906 25.0625c-1.925781 1.121094-4.390625.539062-5.613281-1.320312-1.226563-1.859376-.785157-4.355469 1.007812-5.679688l30.46875-22.664062-32.410156 18.660156c-1.894531 1.085937-4.304687.535156-5.542969-1.261719-1.238281-1.800781-.890625-4.25.800782-5.628906l26.859374-21.824219-22.15625 12.792969c-1.78125 1.019531-4.035156.605469-5.335937-.984375-1.300781-1.585938-1.261719-3.878906.089844-5.421875l17.699219-20.144531-12.453126 7.195312c-1.609374.957031-3.660156.730469-5.023437-.550781-1.363281-1.285157-1.710937-3.316407-.855469-4.980469l4.289063-8.394531c-1.875-.0625-3.480469-1.363281-3.929688-3.1875-.453125-1.820313.363281-3.722657 1.992188-4.652344l9.46875-5.457031c1.609375-.960938 3.664062-.738282 5.03125.550781 1.367187 1.289063 1.710937 3.324219.84375 4.992187l-3.742188 7.351563 22.351563-12.851563c1.777344-1.007812 4.019531-.589843 5.316406.988282s1.265625 3.863281-.070312 5.40625l-17.703126 20.144531 45.945313-26.539063c1.894531-1.085937 4.308594-.539062 5.546875 1.261719s.886719 4.25-.804688 5.628907l-26.859374 21.824218 48.589843-28.050781c1.925781-1.121094 4.390625-.542969 5.617188 1.320313 1.222656 1.859374.78125 4.355468-1.007813 5.679687l-30.46875 22.660156 31.566406-18.21875c1.902344-1.070312 4.308594-.503906 5.53125 1.300781 1.226563 1.808594.859376 4.253907-.839843 5.621094l-23.550781 18.585938 18.867187-10.914063c1.796875-1.03125 4.074219-.597656 5.367187 1.019531 1.292969 1.617188 1.214844 3.9375-.1875 5.460938l-18.085937 19.597656 12.875-7.453125c1.589844-.90625 3.585937-.679687 4.933594.566407 1.34375 1.242187 1.726562 3.21875.941406 4.875l-4.691406 9.820312c1.542969.019531 2.972656.808594 3.816406 2.097656.5625.964844.714844 2.113282.425781 3.1875-.289062 1.078125-.992187 1.996094-1.960937 2.554688l-9.425781 5.429687c-1.59375.914063-3.59375.683594-4.941407-.5625-1.34375-1.25-1.722656-3.230469-.933593-4.886719l4.316406-9.046874-25.113282 14.503906c-1.792968 1.019531-4.0625.582031-5.351562-1.027344s-1.214844-3.917969.171875-5.445312l18.105469-19.546876-45.207032 26.019532c-.636718.382812-1.359374.589844-2.101562.59375zm0 0" fill="#eb5463"/><path d="m39.253906 85.394531c-1.78125.003907-3.375-1.121093-3.96875-2.800781-.589844-1.683594-.058594-3.554688 1.332032-4.671875l3.535156-2.84375-16.886719 9.726563c-1.898437 1.078124-4.308594.523437-5.539063-1.28125-1.230468-1.804688-.875-4.25.820313-5.625l19.707031-15.6875-8.125 4.691406c-1.914062 1.105468-4.359375.535156-5.589844-1.304688-1.226562-1.839844-.816406-4.316406.941407-5.660156l24.777343-18.960938c-.132812-.144531-.257812-.292968-.371093-.453124-1.261719-1.71875-1.035157-4.117188.53125-5.566407l24.441406-22.570312c-.050781-1.546875.757813-2.996094 2.097656-3.769531l5.734375-3.304688c1.847656-1.058594 4.199219-.5625 5.464844 1.152344 1.261719 1.71875 1.039062 4.109375-.523438 5.5625l-4.144531 3.828125c1.945313-.636719 4.0625.226562 5.015625 2.039062.949219 1.8125.453125 4.046875-1.171875 5.285157l-5.414062 4.140624.78125-.429687c1.894531-1.058594 4.289062-.492187 5.511719 1.300781 1.222656 1.796875.875 4.230469-.804688 5.609375l-19.671875 15.652344 14.964844-8.628906c1.894531-1.070313 4.296875-.515625 5.527343 1.28125 1.230469 1.796875.882813 4.238281-.800781 5.617187l-3.972656 3.207032c1.796875-.625 3.789063.035156 4.855469 1.609374 1.066406 1.574219.941406 3.667969-.304688 5.105469l-8 9.410157c1.746094.296874 3.113282 1.65625 3.425782 3.394531.3125 1.742187-.5 3.492187-2.03125 4.378906l-16.148438 9.332031c-1.765625 1.011719-4.003906.613282-5.308594-.945312-1.308594-1.5625-1.304687-3.832032.003906-5.390625l6.132813-7.285157-24.683594 14.265626c-.648437.386718-1.386719.589843-2.140625.589843zm0 0" fill="#cad0d7"/><path d="m341.082031 204.210938c-1.78125.003906-3.367187-1.117188-3.964843-2.792969-.59375-1.679688-.0625-3.550781 1.320312-4.667969l3.121094-2.519531-4.976563 2.871093c-1.921875 1.09375-4.363281.507813-5.582031-1.34375-1.214844-1.847656-.785156-4.324218.984375-5.65625l23.953125-17.75-28.007812 16.171876c-1.960938 1.117187-4.453126.480468-5.640626-1.433594-1.1875-1.917969-.652343-4.429688 1.21875-5.691406l7.550782-5.035157-9.75 5.628907c-1.964844 1.082031-4.429688.429687-5.601563-1.476563-1.171875-1.910156-.640625-4.402344 1.210938-5.664063l24.339843-15.949218-27.292968 15.714844c-1.96875 1.082031-4.4375.421874-5.609375-1.492188-1.167969-1.917969-.621094-4.414062 1.242187-5.667969l17.066406-10.914062-19.574218 11.300781c-1.972656 1.121094-4.476563.472656-5.660156-1.460938-1.179688-1.933593-.613282-4.457031 1.285156-5.699218l25.179687-16.234375-27.167969 15.679687c-1.96875 1.082032-4.4375.425782-5.605468-1.492187-1.167969-1.917969-.621094-4.414063 1.242187-5.667969l27.46875-17.625c-1.816406-.070312-3.386719-1.304688-3.878906-3.058594-.496094-1.75.199219-3.621094 1.714844-4.628906l30.820312-20.558594c-1.855469.121094-3.570312-.992187-4.210937-2.738281s-.058594-3.703125 1.433594-4.8125l43.300781-32.863281c-1.816407.148437-3.519531-.898438-4.214844-2.582032-.695313-1.683593-.222656-3.625 1.167969-4.804687l27.992187-23.625c-1.144531-2.007813-.449219-4.5625 1.554688-5.71875l16.785156-9.710937c1.878906-1.050782 4.25-.511719 5.488281 1.25 1.238282 1.761718.941406 4.175781-.6875 5.582031l-9.710937 8.210937 12.675781-7.320312c1.917969-1.113282 4.375-.542969 5.601562 1.304687 1.230469 1.847657.808594 4.332031-.960937 5.671875l-40.792969 30.945313 47.003906-27.128907c1.964844-1.164062 4.5-.546874 5.707032 1.394532 1.207031 1.9375.640625 4.488281-1.273438 5.734375l-24.972656 16.652343 28.125-16.234374c1.96875-1.082032 4.4375-.421876 5.609375 1.492187 1.167969 1.917969.621094 4.414063-1.242187 5.667969l-15.949219 10.238281 18.398437-10.625c1.28125-.78125 2.878906-.824219 4.195313-.105469 1.316406.714844 2.152343 2.078125 2.191406 3.578125s-.726563 2.90625-2.003906 3.6875l-25.046875 16.175781 27.917968-16.117187c1.976563-1.207031 4.5625-.582031 5.769532 1.398437 1.207031 1.980469.582031 4.5625-1.398438 5.769532l-17.246094 11.054687 3.222657-1.847656c1.957031-1.066406 4.40625-.414063 5.578125 1.484375 1.167968 1.898438.652344 4.378906-1.179688 5.652344l-29.839844 19.53125c1.578126-.097656 3.089844.65625 3.96875 1.972656 1.191407 1.921875.644532 4.441406-1.234374 5.699219l-25.355469 16.902343c1.5.480469 2.605469 1.761719 2.859375 3.3125.257812 1.554688-.375 3.121094-1.640625 4.058594l-33.1875 24.59375c1.492187.441406 2.621093 1.675782 2.925781 3.203125.304688 1.527344-.265625 3.097657-1.476562 4.082031l-23.375 18.925782.050781.101562c1.160156 2.003906.476562 4.570313-1.527344 5.730469l-20.304687 11.753906c-.640626.359375-1.363282.542969-2.097657.535157zm0 0" fill="#fdcd56"/><path d="m473.210938 77.554688c-1.675782 0-3.191407-.996094-3.855469-2.535157-.664063-1.535156-.347657-3.320312.800781-4.539062l.585938-.621094-1.675782.945313c-1.75 1.015624-3.972656.636718-5.289062-.898438s-1.351563-3.796875-.074219-5.371094l13.890625-17.1875-20.347656 11.75c-1.847656 1.042969-4.1875.542969-5.445313-1.167968-1.257812-1.710938-1.039062-4.09375.511719-5.546876l7.804688-7.167968-10.667969 6.152344c-1.882813 1.074218-4.273438.539062-5.515625-1.234376-1.246094-1.773437-.9375-4.203124.714844-5.605468l1.921874-1.628906-3.574218 2.0625c-1.878906 1.066406-4.257813.539062-5.503906-1.226563-1.246094-1.761719-.949219-4.183594.683593-5.597656l1.730469-1.46875-3.355469 1.925781c-1.75 1.007812-3.972656.628906-5.285156-.902344-1.316406-1.535156-1.351563-3.785156-.089844-5.359375l8.671875-10.8125-1.394531.839844c-1.992187 1.042969-4.453125.328125-5.578125-1.617187-1.125-1.949219-.515625-4.4375 1.382812-5.644532l20.832032-12.042968c1.75-1.011719 3.96875-.632813 5.285156.902343 1.316406 1.53125 1.351562 3.785157.085938 5.359375l-8.675782 10.800782 24.0625-13.882813c1.878906-1.089844 4.28125-.5625 5.53125 1.214844 1.253906 1.773437.945313 4.210937-.714844 5.617187l-1.675781 1.445313 4.648438-2.6875c1.886719-1.117188 4.316406-.597657 5.578125 1.199219 1.257812 1.792968.925781 4.257812-.769532 5.652343l-1.957031 1.675781 2.519531-1.449218c1.851563-1.046875 4.1875-.542969 5.445313 1.167968 1.257813 1.710938 1.039063 4.09375-.507813 5.546876l-7.808593 7.15625 6.859375-3.941407c1.746094-1.011719 3.964844-.632812 5.277344.894531 1.320312 1.539063 1.351562 3.800782.078124 5.375l-13.917968 17.15625 6.816406-3.921874c1.800781-1.03125 4.085938-.589844 5.375 1.035156 1.289062 1.628906 1.195312 3.953125-.222656 5.46875l-12.269532 13.046875c.699219 1.914062-.078124 4.058593-1.847656 5.078125l-6.976562 4.027344c-.636719.371093-1.359375.566406-2.097656.5625zm0 0" fill="#eb5463"/><g fill="#262626"><path d="m491.566406 12.707031c-.125-.214843-.265625-.414062-.425781-.605469-11.851563-10.886718-28.976563-13.84375-43.789063-7.554687-9.710937 5.367187-18.316406 12.527344-25.355468 21.101563-.085938.085937-.144532.234374-.226563.335937l-53.324219 53.316406c1.292969-38.695312 5.277344-76.164062-43.300781-77.851562-67.082031-2.324219-134.65625 0-201.78125 0-12.210937 0-30.851562-3.675781-42.359375 1.679687-19.667968 9.148438-40.113281 40.039063-55.3125 55.238282-6.304687 5.53125-12.105468 11.609374-17.332031 18.164062l-3.777344 3.769531c-1.402343 1.398438-1.445312 2.398438-.839843 3.105469.015624.414062.246093.792969.601562 1.003906-.402344 1.078125-.75 2.175782-1.039062 3.292969-4.734376 19.371094 0 46.078125 0 65.914063v221.667968c0 25.945313-14.378907 103.929688 16.847656 118.976563 11.40625 5.5 29.097656 2.921875 41.203125 2.921875h98.789062c56.234375 0 119.261719 8.261718 174.945313 0 50.160156-7.445313 33.09375-81.347656 33.09375-117.675782v-190.992187l111.148437-111.144531c.132813-.117188.292969-.179688.417969-.304688 8.164062-6.664062 14.933594-14.871094 19.925781-24.15625 5.574219-13.660156 2.566407-29.320312-7.671875-39.945312-.101562-.097656-.292968-.140625-.4375-.257813zm-413.425781 50.277344c-5.179687 19.867187-38.230469 16.339844-58.433594 15.105469 5.453125-6.714844 14.972657-14.964844 21.46875-21.46875l32.632813-32.601563c1.476562-1.476562 3.5-3.222656 5.566406-4.976562 1.746094 14.628906 1.328125 29.433593-1.234375 43.941406zm277.722656 403c-11.792969 39.449219-97.984375 22.285156-128.074219 22.285156h-174.644531c-47.085937 0-37.492187-46.164062-37.492187-79.945312v-268.589844c0-15.949219-4.347656-39.113281-.078125-54.667969h28.445312c12.230469 0 24.6875.90625 35.078125-6.925781 11.875-8.945313 12.035156-21.308594 12.035156-34.765625v-34.109375c17.902344-3.105469 41.65625 1.066406 58.65625 1.066406h113.652344c20.902344 0 49.523438-5.53125 69.667969 0 32.40625 8.894531 23.097656 55.808594 22.789063 81.492188l-63.246094 63.25c-.734375.828125-1.105469 1.914062-1.03125 3.015625l-18.660156 36.855468c-.941407.574219-1.472657 1.628907-1.375 2.726563l-3.617188 7.152344c-3.359375 6.597656-15.429688 23.5-13.347656 33.363281h-21.636719l-41.128906-41.128906v-35.425782c36.847656-2.671874 72.066406-18.636718 75.539062-47.355468 0-.179688-.082031-.277344-.097656-.4375-.019531-.160156.117187-.285156.089844-.445313-7.476563-61.785156-163.34375-60.164062-163.242188 2.820313.050781 30.507812 36.871094 45.507812 75.539063 45.792968v37.453126l-38.769532 38.769531c-15.894531-.765625-37.015624-2.929688-48.027343 8.097656-7.023438 7.035156-5.53125 16.949219-5.53125 26.019531v22.816406c-17.136719-.195312-48.546875-6.925781-50.441407 16.726563-1.226562 14.816406-1.226562 29.710937 0 44.527344-.261718 3.976562 1.183594 7.875 3.976563 10.722656 2.789063 2.84375 6.660156 4.367187 10.644531 4.183594 11.886719 1.109375 23.835938 1.503906 35.769532 1.175781-.140626 12.464844-.789063 25.121094.050781 37.511719 1.285156 19.050781 19.128906 18.464843 33.699219 18.289062 2.328124 49.09375 123.730468 45.457031 129.511718-3.601562 0-.117188-.082031-.183594-.082031-.292969s.132813-.296875.109375-.453125c-5.726562-48.683594-123.386719-47.515625-129.359375-.773437-4.691406.523437-9.4375-.179688-13.773437-2.039063-7.328126-4.011719-7.875-11.296875-7.949219-18.515625-.09375-10.140625 0-20.28125 0-30.417969 11.574219-.371093 23.105469-.839843 34.410156-.839843h.96875c1.128906-.007813 2.238281-.296876 3.230469-.839844 11.195312-3.71875 11.851562-11.589844 11.851562-22.761719 1.128906-13.273437 1.128906-26.621094 0-39.894531-3.105468-17.199219-31.636718-14.875-50.496094-13.339844-.140624-12.589844-.914062-25.488281.050782-37.996094.445312-5.671875 2.417968-11.558594 8.476562-13.074218 3.507813-.375 7.042969-.375 10.550782 0h19.792968l41.757813 41.765624c2.273437 2.273438 8.550781.410157 10.480469-1.53125l40.03125-40.027343h28.023437c1.246094.746093 2.609375 1.269531 4.03125 1.554687 11.925781 2.464844 29.550781-10.726562 39.273437-15.65625l2.960938-1.492187c2.710938-.128907 5.234375-1.40625 6.941406-3.515625l31.054688-15.714844c2.746094.476562 5.546875-.441406 7.480468-2.449219l5.515626-5.515625v208.753906c-.035157 16.234376 4.65625 40.640626-.035157 56.351563zm-89.304687-227.6875c-.851563-2.910156-.808594-6.003906.125-8.886719 2.550781-8.695312 6.46875-16.929687 11.605468-24.394531l20.054688 20.054687-18.039062 9.140626c-3.699219 1.871093-8.5625 5.539062-11.566407 5.488281.351563-.738281-.21875-1.292969-2.179687-1.402344zm42.585937-18.699219-24.910156-24.914062.242187-.460938c4.734376-9.339844 9.464844-18.6875 14.195313-28.042968l39.011719 38.988281zm-122.191406 56.519532-15.34375-15.335938-15.109375-15.105469c-1.886719-2.042969-3.929688-3.941406-6.101562-5.683593.21875-.273438.464843-.523438.730468-.746094 1.582032-1.425782 3.085938-2.933594 4.507813-4.515625 4.667969-4.65625 9.328125-9.316407 13.984375-13.984375l14.980468-14.972656 36.386719 36.382812zm-69.960937-162.285157c-.148438-51.992187 130.871093-51.445312 138.140624 2.367188-7.023437 51.878906-137.988281 51.617187-138.140624-2.367188zm17.789062 248.496094h-72.496094c-14.511718 0-13.050781-6.421875-13.050781-19.816406 0-7.445313-4.199219-30.929688.972656-36.613281 4.574219-4.996094 24.132813-1.679688 31.054688-1.679688h44.613281c13.730469 0 11.75 7.746094 11.75 19.816406.007812 5.246094 3.917969 34.925782-2.84375 38.292969zm-1.175781 61.992187c.425781-41.453124 99.335937-39.640624 104.773437 2.59375-5.613281 41.101563-105.203125 39.625-104.773437-2.59375zm327.652343-342.871093c-8.105468 7.300781-15.828124 15.023437-23.128906 23.132812l-80.132812 80.105469c-.652344.410156-1.203125.957031-1.613282 1.605469l-10.683593 10.691406-17.527344-17.515625 57.078125-57.078125c3.113281-3.113281-8.746094-2.15625-11.171875.277344l-51.34375 51.34375-16.871094-16.878907c-.066406-.195312-.175781-.394531-.234375-.589843-.058594-.191407-.117187-.316407-.167968-.484375 1.640624-2.0625 3.546874-3.902344 5.664062-5.472656 8.109375-7.300782 15.828125-15.023438 23.125-23.132813 10.632812-10.605469 21.234375-21.207031 31.8125-31.8125.652344-.402344 1.203125-.953125 1.609375-1.601563l58.8125-58.753906 17.570313 17.542969-46.222657 46.246094c-2.972656 2.972656 8.785157 1.90625 11.128907-.4375l40.4375-40.464844 17.367187 17.402344c.042969.152343.097656.304687.160156.453125-1.648437 2.042968-3.550781 3.867187-5.667969 5.421875zm22.394532-22.746094c-2.578125 3.109375-5.355469 6.046875-8.316406 8.796875l-40.550782-40.523438c2.957032-3.082031 5.875-6.230468 9.082032-8.980468 10.769531-9.757813 27.316406-9.300782 37.527343 1.039062 10.53125 10.8125 11.492188 27.730469 2.257813 39.667969zm0 0"/><path d="m223.289062 112.589844h-67.148437c-2.519531 0-13.730469 4.867187-7.90625 4.867187h67.148437c2.535157 0 13.730469-4.867187 7.90625-4.867187zm0 0"/><path d="m79.222656 330.601562c-3.558594 0-13.203125 5.304688-5.152344 5.304688h33.574219c3.558594 0 13.203125-5.304688 5.152344-5.304688zm0 0"/></g></svg>