<svg id="Layer_1" enable-background="new 0 0 91 91" height="512" viewBox="0 0 91 91" width="512" xmlns="http://www.w3.org/2000/svg"><g fill="#3c6b76"><path d="m77.5 61.7c1.1-8.4-.8-17.1 4.3-24.5 1.8-2.7 3.4-6.2 1.4-9.3-1.8-2.8-5.6-3.1-8.5-2.2-6.8 2.2-9.3 9.2-11.6 15.5-3.1-5.7-6.3-11.3-9.2-17.1-1.6-3.3-3-6.7-4.6-10-1.2-2.4-3.3-4.5-6.1-4.6-8.7-.2-5.5 12.2-1.4 22.2-3-2.5-6.2-4.8-9.4-7-3.5-2.4-12.3-8.2-13.6-.2-.2 1.4.1 2.7.7 4-2-.8-4.1-1.1-6.1-.4-2.7.9-3.9 3.4-3 6.1 1.4 4.3 5.9 8.1 9.1 11.1 1.9 1.7 3.9 3.8 6.1 5.8-.6-.2-1.1-.3-1.7-.5-3.5-1-8.1-2.8-11.8-1.8-3 .8-5.1 3.8-4.3 6.9.9 3.8 5.6 5.2 8.7 6.6 5.8 2.6 12 4.1 17.6 7.2 7.4 4.1 11.1 11 11.6 19.4.1 1.2 2 1.6 2.3.3 1.2-5.9-.5-11.9-4-16.7-3.4-4.6-8.4-7.5-13.5-9.9-2.4-1.2-4.9-2.2-7.4-3.3-1.4-.6-2.8-1.3-4.1-2-1.2-.6-7.1-2.1-4.1-3.1 1.1.1 2.3.4 3.3.6 1.8.4 3.6.9 5.4 1.4 3.9 1.1 7.8 2.4 11.8 3.4 3.3.9 4.8-4.3 1.4-5.2-.6-.2-1.2-.3-1.8-.5-2.1-3.4-5.8-6.3-8.6-9-3.1-3.1-6.3-6.1-9.1-9.5-.4-.6-1-1.1-1.3-1.7-.6-1.4 1.3-.2 2.1.2.6.3 1.3.7 1.9 1.1 1.3.9 2.6 1.9 3.8 2.9 4.6 3.7 9.1 7.7 13.4 11.8 2.5 2.4 6.3-1.4 3.8-3.8-2.4-2.4-5-4.8-7.6-7.1-.4-.5-.8-1-1.2-1.4-2.3-2.8-4.7-5.6-6.9-8.5-.5-.7-1.2-1.4-1.6-2.2-1.2-2.9 1.5-.7 2.4-.1 2.2 1.4 4.3 3 6.4 4.6 4.9 3.7 14.9 12.6 14.9 12.7 2.2 2.6 6.2.2 4.5-2.6-2.9-4.8-5.6-9.7-7.3-15.1-.9-2.9-1.7-5.8-2-8.7-.1-1.1-.2-2.1.4-2.3.7-.3 1.9 2.7 2.1 3.1 4.6 9.8 9.5 19.7 16.3 28.2.4 2 4 2.5 5 0 1.4-3.5 2.3-7.3 4.1-10.6.9-1.5 1.9-3 3.4-4 .9-.6 3.4-2.1 4.5-1.3 2 1.5-2.9 7.5-3.6 9.2-1.1 2.9-1.4 6.1-1.5 9.2-.1 3.4.2 6.7 0 10.1s-1 6.6-2 9.9c-1.5 5.4-4.3 12-1.7 18 .6 1.3 2.6.6 2.6-.7-.1-4.7.6-8.8 2.1-13.2 1.3-3.8 2.7-7.5 3.2-11.4z"/><path d="m4.8 14.3c2.1-1.1 3.7-3.4 5.4-5 2-1.8 4.2-3.2 6.7-4.4 2.7-1.3.3-5.5-2.3-4-2.7 1.5-5.1 3.3-7.3 5.5-1.8 1.8-3.9 4.3-4.1 6.9-.1.9.9 1.3 1.6 1z"/><path d="m22.6 7.7c-2.9 1.3-5.7 3-8.1 5.2-2.5 2.3-3.8 4.9-5.1 7.9-.3.6.4 1.3 1 .8 4-4.1 9.1-7.9 14.4-10.2 2.5-1.1.3-4.9-2.2-3.7z"/><path d="m65.8 11.4c2.7 1.4 5.6 2.7 8 4.7s3.7 4.5 5.6 6.8c.5.6 1.4.7 2.2.6.2 0 .4-.1.6-.1 1.1-.2 1.5-1.6 1-2.5-3.1-6-10-11.4-17-10.9-.7-.1-1.2 1-.4 1.4z"/><path d="m87.9 15.9c-.1-3.8-4.3-7.7-7.1-10-3-2.4-6.8-4.4-10.8-3.9-.7.1-1.1 1.3-.2 1.5 3.2.7 6.5 3.8 8.8 6.1 1.2 1.2 2.2 2.5 3.1 3.9s1.4 2.9 2.6 3.9c1.3 1.1 3.7.5 3.6-1.5z"/></g></svg>