<svg id="Layer_1" enable-background="new 0 0 91 91" viewBox="0 0 91 91" xmlns="http://www.w3.org/2000/svg"><g><g><path d="m11.4 35.5c-7.3-3.8-9.1-15.1-3.3-21s17.1-4.2 21 3c9.4-5.5 21.4-6.1 31.3-1.7 2.3-4.8 7.8-8.1 13.1-7.6s10.2 4.8 11.1 10c.9 5.3-2.3 11.1-7.4 12.8 8.5 5.4 12 17 9.3 26.7-2.6 10-10.5 17.7-19.7 21.8s-19.6 4.9-29.7 4c-4.7-.4-9.5-1.2-13.9-3.1-7.9-3.4-13.7-10.7-16.2-18.9s-2.4-14.5 1-22.6c.4-1 2.3-3.2 3.4-3.4z" fill="#c9bbdc"/></g><path d="m66.6 21.9c-.3-.2-.7-.4-.9-.7-.3-.5-.2-1.2.2-1.7s1-.8 1.6-1c1.7-.6 3.7-.7 5.3 0s3 2.4 3 4.2c.1 2.3-1.4 5-3.7 3.7-1.9-1-3.5-3.3-5.5-4.5z" fill="#b8a8d2"/><path d="m22.7 24.4c.3-.2.7-.4.9-.7.3-.5.2-1.2-.2-1.7s-1-.8-1.6-1c-1.7-.6-3.7-.7-5.3 0s-3 2.4-3.1 4.2c-.1 2.3 1.4 5 3.7 3.7 2-1.1 3.6-3.3 5.6-4.5z" fill="#b8a8d2"/><path d="m12.5 17.6c.9-.6 2-1 3.1-1.2 3.8-.5 7.7 1.9 9.5 5.1 1.4 2.6 2.8 3.1 3.5 3 6.1-.2 11.5-5.2 17.6-4.6 3.5.4 7.5 1.6 10.8 2.9 2 .8 4-.3 5.5-1.7 1.6-1.5 1.7-2.7 3.1-4.4 1.2-1.4 3.9-2.7 5.9-2.7 3 0 6.3 1.7 7.9 4.1.9 1.4 2.2 3.7 2.9 4.2s1.4-3.7 1.3-4.2c-.6-4.1-3.4-7.9-7.5-9.5-3.9-1.6-9.1-.8-12.1 2.3-.6.6-1.2 1.4-1.9 1.9-1.8 1.2-4.3 1-6.5.6-3.3-.6-6.6-1.4-10-1.6s-6.9.2-9.8 1.8c-1.2.6-2.3 1.5-3.7 1.8-2.4.5-4.8-1-6.9-2.2-2.6-1.5-5.4-2.8-8.5-2.9-2.6-.1-5.1.8-7.4 1.9-1.1.5-2.1 1.1-2.9 1.9-1.2 1.3-1.5 3-1.8 4.6-.4 2.3-.7 4.7 0 6.9.3.8 1.8 4 3.2 3.6 1.2-.3.6-2.7.5-3.5-.2-3.2 1.4-6.4 4.2-8.1z" fill="#fff"/><path d="m46.2 54.4c-3.1 0-6.3.3-9.1 1.6s-5.2 3.8-5.8 6.8c-.5 2.6.4 5.3 2.1 7.3s4 3.4 6.5 4.1c5.6 1.7 11.9.4 16.4-3.3 1-.8 1.9-1.7 2.5-2.9.5-1 .8-2.2.8-3.3.3-7.9-6.8-10.3-13.4-10.3z" fill="#fff"/><path d="m45.7 67.7c3.4-.4 6.7-2.2 8.8-4.9.2-.3.4-.5.7-.7s.7-.2 1.1-.2c2.1.2 3.6 2.5 3.5 4.6s-1.5 4-3.3 5.1-3.9 1.7-6 2.1c-2.7.5-5.6.9-8.3.6s-5.6-1.3-7.6-3.2c-2.4-2.2-3.5-5.7-3-8.9.8-5 4.1 1.6 5.1 2.6 2.3 2.3 5.8 3.3 9 2.9z" fill="#d8e1e8"/><path d="m49.4 79.3c-7.7.5-15.1-.3-23.6-3.3-10.7-3.9-17.9-17.9-17.9-17.9-1.6 1.9-1 4.8 0 7 3.1 7.1 9.4 12.6 16.6 15.6s15.1 3.8 22.9 3.5c9.6-.4 19.3-2.6 27-8.3s13-15.3 11.6-24.7c-.1-.7-.3-1.2-1-1.3-4.9 16.1-18.9 28.2-35.6 29.4z" fill="#b8a8d2"/><path d="m40.3 80.8c4.5 1.5 9.4.9 14-.3 3.3-.8 6.9-2.3 8.1-5.5.5-1.2.5-2.6.6-3.9.1-1.8.1-3.6-.7-5.2-.2-.3-.4-.6-.7-.8-1-.5-2 .7-2.6 1.6-1.3 2.1-2.9 4.2-5.1 5.3s-4.8 1.3-7.3 1.4c-1.5.1-3.1.1-4.6-.3-1.3-.3-2.4-1-3.5-1.6-1.4-.8-2.8-1.5-4.1-2.3-.7-.4-1.6-.8-2.4-.6-1.8.6.7 5.6 1.4 6.7 1.4 2.7 4 4.6 6.9 5.5z" fill="#b8a8d2"/><g fill="#4e7a9f"><path d="m81.6 31.5c6.4-5.2 7.6-14.9 1.3-21.3-7-7.2-18.4-5.5-24 2.1-9.6-3.4-19.9-3-29.1 1.3-6-6.8-17.6-8-24.3-1.3-6.5 6.6-5.4 17.9 1.1 24-4.7 10-4.7 22.4.5 32.4 5.4 10.3 15.1 15.7 26.4 17.2 21.3 2.7 49.5-3.7 55.5-27.7 2.4-9.5-.3-20-7.4-26.7zm2.5 24c-1.7 8.7-8.1 15.8-15.7 20.1-8.9 5-19.5 6.1-29.5 5.5-10.1-.6-19.4-3.3-25.6-11.8-6.6-9.3-6.4-20.3-3.2-30.7 3.4 1.1 6.1-3.9 2.6-5.9-5.3-3-7.1-11.3-2.7-15.9 4.5-4.6 12.9-2.9 16 2.3.9 1.5 2.8 2 4.3 1.1 8.9-5.1 19.5-5.5 28.9-1.6 1.1.5 2.8-.3 3.3-1.4 3-5.8 10.4-8.5 15.8-4 5 4.2 4.1 12.7-2.2 15.2-2.2.9-2.7 3.5-.6 4.9 7.2 4.9 10.2 14.1 8.6 22.2z"/><path d="m43.8 53.5c-6.2-2-13.4 3.1-14.2 9.4-1 7.8 5.7 13.7 13.1 14.5 7 .7 16.1-2 18.9-9.2 2.8-7-4.4-15.4-11.6-15.2-3 .1-3.4 4.2-.7 5.1 2.4.8 4.2 1.2 6 3.1 1.9 2 2.2 4.4.4 6.6-2.8 3.6-8.3 4.7-12.6 4.4-4.8-.3-10.2-4.1-8.8-9.5 1.1-4.5 5.9-4.7 9.5-6.1 1.5-.6 1.6-2.6 0-3.1z"/><path d="m45.5 69.3c.8-.1 1.5-.1 2.1-.1 3.4.1 3.4-5.4 0-5.3-2.2.1-5.1.4-6.5 2.3-.6 1-.1 2.5.8 2.9 0 0 .8.4 3.6.2z"/></g></g><g fill="#4e7a9f"><ellipse cx="28.8" cy="50.2" rx="3.2" ry="3"/><ellipse cx="62.1" cy="50.2" rx="3.2" ry="3"/></g></svg>