<svg height="512" viewBox="0 0 60 60" width="512" xmlns="http://www.w3.org/2000/svg"><g id="008---Road-Map" fill="none"><path id="Path" d="m21.2 15.471c-.2227823.0001822-.4188095-.1470511-.4807165-.3610592-.0619071-.2140082.0252425-.4431572.2137165-.5619408l1.285-.813-2.892 1.665c-.2333681.1382671-.5344194.0652417-.6785003-.1645824-.144081-.2298241-.078635-.5326135.1475003-.6824176l9.185-6.233-12.128 7c-.2329673.1327691-.5291919.0581284-.6714287-.1691822-.1422368-.2273105-.0798406-.5263539.1414287-.6778178l8.639-5.824-9.917 5.726c-.2330829.1306613-.5277074.0549657-.6689423-.1718661-.1412349-.2268319-.0791592-.5246238.1409423-.6761339l6.929-4.651-7.059 4.077c-.2344449.1460793-.5429207.0744449-.689-.16s-.0744449-.5429207.16-.689l4.8-3.223-4.38 2.53c-.2302873.1343427-.5254749.0643663-.6709518-.1590541-.1454768-.2234204-.0900639-.5216852.1259518-.6779459l6.157-4.508-5.609 3.243c-.2295527.13149209-.521805.0614183-.6667704-.15987256-.1449654-.22129087-.0924688-.51720615.1197704-.67512744l3.518-2.6-2.972 1.713c-.22978.13495719-.525025.06598931-.6712375-.15679801s-.0920063-.52109566.1232375-.67820199l1.245-.922-.7.4c-.220439.12622335-.5004889.06709988-.6510942-.13745749-.1506054-.20455737-.1238973-.48953139.0620942-.66254251l1.854-1.7-1.265.731c-.212437.12281516-.482602.07332062-.6377036-.11682804-.1551017-.19014866-.1492961-.46474858.0137036-.64817196l.876-.989c-.1897776-.0591822-.3264687-.22516657-.3481597-.42277116-.021691-.1976046.0757391-.38928834.2481597-.48822884l1.933-1.121c.212437-.12281516.482602-.07332062.6377036.11682804.1551017.19014866.1492961.46474858-.0137036.64817196l-.542.612 2.521-1.452c.220439-.12622335.5004889-.06709988.6510942.13745749.1506054.20455737.1238973.48953139-.0620942.66254251l-1.853 1.7 4.34-2.5c.22978-.13495719.525025-.06598931.6712375.15679801s.0920063.52109566-.1232375.67820199l-1.243.921 3.042-1.756c.2295527-.13149208.521805-.0614183.6667704.15987257.1449654.22129086.0924688.51720614-.1197704.67512743l-3.517 2.6 5.952-3.435c.2296891-.12962966.5205695-.0585592.6646041.16238191.1440346.2209411.0916869.51576672-.1196041.67361809l-6.155 4.505 9.256-5.341c.2330829-.13066131.5277074-.05496574.6689423.17186612.1412349.22683187.0791592.52462377-.1409423.67613388l-4.8 3.223 7.048-4.071c.2330829-.13066131.5277074-.05496574.6689423.17186612.1412349.22683187.0791592.52462377-.1409423.67613388l-6.934 4.652 9.529-5.5c.23265-.12885992.5254615-.05304724.6663444.17252517s.0805297.52195667-.1373444.67447483l-8.633 5.818 11.548-6.665c.2338926-.14690773.5425922-.07639258.6895.15750001.1469077.23389259.0763926.54259224-.1575.68949999l-9.19 6.235 12.274-7.082c.2363779-.14276561.5437344-.06687787.6865.1695s.0668779.54373439-.1695.6865l-1.276.808 2.534-1.464c.2355494-.14414631.5433537-.07004943.6875.16550001s.0700494.54335367-.1655.68749999l-4.739 3.063 5.406-3.116c.2354116-.13795832.5379577-.06170795.6798637.17134529.1419059.23305325.070765.53684142-.1598637.68265471l-2.149 1.374 2.207-1.274c.2335451-.1328438.5303244-.05736382.6720248.17091629s.0776546.52773513-.1450248.67808371l-5.035 3.356 4.712-2.721c.2300482-.13085689.5222207-.05977797.6664488.16213184.1442281.22190982.0905463.51777331-.1224488.67486816l-6.764 4.918 6.22-3.593c.2290632-.13219788.5214568-.06314799.6671806.15755725.1457237.22070523.094369.51671981-.1171806.67544275l-4.45 3.337 3.9-2.251c.2251719-.12814755.5109328-.06306634.6584056.14994995s.107801.50339711-.0914056.66905005l-3.087 2.537 2.524-1.457c.2240205-.12976407.5100442-.0670649.6592395.1445117s.1122125.502047-.0852395.6694883l-1.121.954.547-.316c.2121584-.1214824.4810525-.071733.6357028.1176145.1546503.1893474.1497002.4627602-.0117028.6463855l-.888 1c.2031715.0423782.3590397.2058642.3916825.4108252.0326427.2049611-.0647275.4087786-.2446825.5121748l-2.045 1.181c-.212437.1228152-.482602.0733206-.6377036-.116828-.1551017-.1901487-.1492961-.4647486.0137036-.648172l.621-.7-2.651 1.527c-.2240205.1297641-.5100442.0670649-.6592395-.1445117s-.1122125-.502047.0852395-.6694883l1.122-.954-3.062 1.768c-.2257557.1338555-.5165829.0703767-.66603-.1453744-.149447-.215751-.1066415-.5103316.09803-.6746256l3.092-2.533-5.809 3.353c-.2288588.1292299-.518701.0592157-.6633326-.1602346-.1446317-.2194502-.0946742-.513414.1143326-.6727654l4.446-3.335-7.219 4.168c-.2300482.1308569-.5222207.059778-.6664488-.1621318-.1442281-.2219099-.0905463-.5177734.1224488-.6748682l6.757-4.915-9.965 5.752c-.2335451.1328438-.5303244.0573638-.6720248-.1709163s-.0776546-.5277351.1450248-.6780837l5.037-3.351-7.285 4.2c-.2354116.1379583-.5379577.061708-.6798637-.1713453-.1419059-.2330532-.070765-.5368414.1598637-.6826547l2.15-1.379-3.868 2.233c-.2347713.1336383-.5332399.0566316-.6740509-.1739091-.1408109-.2305408-.0730402-.5312411.1530509-.6790909l4.734-3.064-6.786 3.917c-.075326.0451197-.1612056.0696074-.249.071z" fill="#f33a4d"/><path id="Path" d="m6.364 59.471c-.21936439.0000724-.41315805-.1428481-.47789582-.3524424-.06473777-.2095942.01470081-.4369085.19589582-.5605576l8.638-5.912-11.385 6.574c-.23198312.1309881-.52592847.0570795-.6683699-.1680527-.14244144-.2251321-.0833463-.52241.1343699-.6759473l9.833-6.806-10.928 6.309c-.23400272.1389988-.53620161.0652981-.67993859-.1658244-.14373699-.2311225-.07620784-.5347601.15193859-.6831756l5.922-3.962-5.82 3.363c-.23477127.1336383-.53323995.0566316-.67405087-.1739091-.14081092-.2305408-.07304023-.5312411.15305087-.6790909l.452-.293c-.23298644.089548-.49632591-.0064457-.61702988-.2249224s-.0617948-.4925062.13802988-.6420776l6.194-4.593-5.646 3.259c-.23198312.1309881-.52592847.0570795-.6683699-.1680527-.14244144-.2251321-.0833463-.52241.1343699-.6759473l.878-.607-.345.2c-.23080222.1338179-.52601117.0628564-.670779-.1612399-.14476784-.2240963-.08809237-.5223777.128779-.6777601l.7-.5-.156.089c-.22417026.1280952-.50900662.0644456-.65732827-.1468868-.14832164-.2113324-.11134682-.5008421.08532827-.6681132l1.745-1.468-1.175.678c-.20587111.1185713-.46675132.0759036-.6241207-.1020765-.15736937-.1779802-.16776883-.4421219-.0248793-.6319235l1.148-1.526c-.24030047.0491737-.48078875-.0832228-.56775594-.3125676-.08696718-.2293449.0052692-.4879099.21775594-.6104324l1.933-1.116c.20568129-.1187395.4665095-.0764089.62408181.1012842s.16840454.4417118.02591819.6317158l-1.111 1.472 3.962-2.284c.22430147-.1303348.51102701-.0674761.66023074.1447421s.11132109.5032983-.08723074.6702579l-1.748 1.469 3.96-2.284c.23080222-.1338179.5260112-.0628564.670779.1612399s.0880924.5223777-.128779.6777601l-.69.5 2.313-1.339c.23158-.1294027.5239091-.0554223.6660571.1685604.142148.2239828.0846277.5199909-.1310571.6744396l-.876.606 2.51-1.449c.2292016-.1303039.5201978-.0602449.6649792.1600976s.0935911.5152436-.1169792.6739024l-6.191 4.588 9.4-5.425c.2342478-.1308833.5300435-.0535271.6702262.1752769s.074765.527467-.1482262.6767231l-.361.233 1.878-1.082c.2334461-.1352991.5321345-.0609722.6749447.1679561.1428102.2289282.0782242.5298733-.1459447.6800439l-5.933 3.966 8.34-4.814c.2313246-.1263251.5209869-.0513891.6620294.1712679.1410425.2226569.0850249.5165645-.1280294.6717321l-9.832 6.806 12.117-7c.2328603-.1351428.5309189-.0616362.6742423.1662803.1433233.2279164.080443.5283964-.1422423.6797197l-8.64 5.913 9.129-5.271c.2340569-.1357068.5336008-.0606207.6759704.1694442s.0759129.5316408-.1499704.6805558l-4.227 2.8 3.868-2.233c.2340027-.1389988.5362016-.0652981.6799386.1658244s.0762078.5347601-.1519386.6831756l-2.914 1.948 2.386-1.377c.2318603-.1330617.527371-.0602043.6708066.1653857.1434357.22559.0840493.5240996-.1348066.6776143l-3.216 2.24 2.681-1.547c.2285233-.1282497.5172952-.0583047.6618051.1602995.14451.2186041.095725.5116937-.1118051.6717005l-3.338 2.518 2.788-1.609c.2266506-.1274915.5131906-.0599635.6590607.1553189.1458701.2152823.1023667.5064398-.1000607.6696811l-1.78 1.4 1.221-.7c.2243164-.1264895.5080183-.0619132.6554889.1492026s.1104702.4997121-.0854889.6667974l-.537.449c.2172735-.0938949.4706169-.0225771.6070004.1708747s.1184364.4560294-.0430004.6291253l-.8.88c.1750681.0736295.2933065.2400876.3051799.4296375s-.0846685.3694618-.2491799.4643625l-1.924 1.111c-.2135746.1241805-.4858285.073761-.6407697-.118666-.1549412-.1924269-.1461164-.4691694.0207697-.651334l.365-.4-2.166 1.244c-.2243164.1264895-.5080183.0619132-.6554889-.1492026s-.1104702-.4997121.0854889-.6667974l.521-.435-2.167 1.251c-.2268147.12995-.5154475.0632557-.6622581-.1530278-.1468106-.2162836-.1022433-.50915.1022581-.6719722l1.78-1.4-3.863 2.225c-.2287194.1310429-.5198877.0620127-.6654353-.1577616-.1455476-.2197742-.0954752-.5147944.1144353-.6742384l3.336-2.515-5.8 3.348c-.2311923.1280141-.5220815.054013-.6639947-.1689178-.1419132-.2229309-.0858401-.5178012.1279947-.6730822l3.214-2.24-5.339 3.081c-.2330829.1306613-.5277074.0549657-.6689423-.1718661-.1412349-.2268319-.0791592-.5246238.1409423-.6761339l2.912-1.948-4.843 2.796c-.233204.1287421-.52639387.0520483-.66668716-.1743946-.1402933-.226443-.07842312-.5231151.14068716-.6746054l4.234-2.8-6.329 3.649c-.07561844.0452887-.16186523.0697828-.25.071z" fill="#8ad256"/><path id="Path" d="m7.475 41.471c-.22086636.0004946-.41589157-.143984-.479759-.3554152s.01855544-.4397191.202759-.5615848l5.353-3.543-7.61 4.389c-.23170998.1276221-.52273121.0526794-.6639792-.1709853s-.08383998-.5186462.1309792-.6730147l9.456-6.485-11.472 6.629c-.2341443.133112-.53165209.0568382-.67287099-.1725078-.1412189-.2293459-.07539606-.5293391.14887099-.6784922l4.948-3.229-5.261 3.035c-.23265.1288599-.5254615.0530472-.66634439-.1725252s-.08052968-.5219566.13734439-.6744748l5.827-3.908-5.573 3.216c-.23424781.1308833-.53004345.0535271-.67022619-.1752769-.14018273-.228804-.07476503-.527467.14822619-.6767231l.421-.273c-.23256438.0725647-.48357407-.0330482-.59430118-.2500536s-.04893519-.4822255.14630118-.6279464l5.881-4.384-5.333 3.078c-.22698061.1326577-.51792342.0668764-.66575669-.1505254-.14783328-.2174019-.10205348-.5121545.10475669-.6744746l3.975-3.164-3.414 1.971c-.22072755.1320893-.5056598.0751513-.65867239-.1316224-.15301258-.2067738-.12417106-.4959044.06667239-.6683776l2.522-2.368-1.93 1.114c-.20850419.1190529-.47219488.0730928-.62812704-.1094799-.15593215-.1825726-.16007687-.4502065-.00987296-.6375201l1.022-1.266c-.22356175-.0065531-.41557888-.1607779-.47020665-.3776618-.05462776-.2168838.04142299-.4436659.23520665-.5553382l1.933-1.117c.20933266-.1237772.47736539-.0789878.63508128.1061248.15771588.1851125.15936976.4568567.00391872.6438752l-.893 1.106 3.345-1.928c.22072755-.1320893.5056598-.0751513.65867239.1316224.15301258.2067738.12417106.4959044-.06667239.6683776l-2.522 2.363 5.484-3.163c.226507-.1291681.5142486-.0625855.6609917.1529516.1467432.2155372.103215.5076567-.0999917.6710484l-3.974 3.16 6.907-3.984c.229416-.1334891.5231565-.0644561.6690977.1572468.1459412.221703.0932171.5188044-.1200977.6767532l-5.882 4.382 9.041-5.216c.2342478-.1308833.5300435-.0535271.6702262.1752769s.074765.527467-.1482262.6767231l-.21.137 1.713-.99c.2334461-.1352991.5321345-.0609722.6749447.1679561.1428102.2289282.0782242.5298733-.1459447.6800439l-5.828 3.91 8.24-4.758c.2347034-.1364868.5354374-.0607325.6774741.1706544.1420368.2313868.073465.5338394-.1544741.6813456l-4.951 3.231 6.8-3.924c.2333482-.1425022.537887-.0711396.6836338.1601958.1457468.2313355.0786439.5368412-.1506338.6858042l-9.454 6.482 10.575-6.109c.1518379-.0941395.3423647-.1001234.4998108-.0156977s.2578918.2464348.2635.425-.0844729.3465582-.2363108.4406977l-5.351 3.542 5.3-3.057c.2330829-.1306613.5277074-.0549657.6689423.1718661.1412349.2268319.0791592.5246238-.1409423.6761339l-4.484 3.006 4-2.309c.2292016-.1303039.5201978-.0602449.6649792.1600976s.0935911.5152436-.1169792.6739024l-6.061 4.5 5.513-3.182c.2309306-.1317312.5245674-.0597083.6683337.1639283.1437664.2236366.0873821.520673-.1283337.6760717l-2.044 1.451 1.5-.868c.2228025-.1258076.5046322-.0631099.6530847.1452897.1484525.2083995.1156192.4952461-.0760847.6647103l-3.081 2.668 2.5-1.445c.220439-.1262233.5004889-.0670999.6510942.1374575.1506054.2045574.1238973.4895314-.0620942.6625425l-1.093 1 .408-.235c.1549945-.0985297.351531-.1041539.5119064-.0146489.1603754.0895049.2587712.2597296.2562855.4433739s-.1054527.3511436-.2681919.436275l-4.316 2.505c-.220439.1262233-.5004889.0670999-.6510942-.1374575-.1506054-.2045574-.1238973-.4895314.0620942-.6625425l1.093-1-3.128 1.8c-.2228025.1258076-.5046322.0631099-.6530847-.1452897-.1484525-.2083995-.1156192-.4952461.0760847-.6647103l3.08-2.667-6.028 3.477c-.2309306.1317312-.5245674.0597083-.6683337-.1639283-.1437664-.2236366-.0873821-.520673.1283337-.6760717l2.04-1.454-3.972 2.294c-.2292016.1303039-.5201978.0602449-.6649792-.1600976s-.0935911-.5152436.1169792-.6739024l6.063-4.5-9.241 5.334c-.232368.1256461-.52238417.0488566-.66212823-.1753162-.13974406-.2241727-.08099508-.5183743.13412823-.6716838l4.475-3.004-6.675 3.851c-.07561844.0452887-.16186523.0697828-.25.071z" fill="#ffa334"/><path id="Path" d="m45.48 59.471c-.2198301-.0003871-.4136204-.1443106-.477526-.3546473s.0170664-.4377398.199526-.5603527l1.139-.764-2.792 1.608c-.23265.1288599-.5254615.0530472-.6663444-.1725252s-.0805297-.5219566.1373444-.6744748l3.737-2.519-5.831 3.366c-.2329673.1327691-.5291919.0581284-.6714287-.1691822-.1422368-.2273105-.0798406-.5263539.1414287-.6778178l6.035-4.063-8.506 4.91c-.2347713.1336383-.5332399.0566316-.6740509-.1739091-.1408109-.2305408-.0730402-.5312411.1530509-.6790909l2.835-1.822-4.468 2.579c-.234721.145527-.5429729.073221-.6884999-.1615-.1455271-.234721-.0732211-.542973.1614999-.6885l7.383-4.9-8.517 4.922c-.2325262.1307666-.5267591.0559509-.6685809-.1700024s-.0812744-.5234503.1375809-.6759976l7.935-5.4-8.134 4.7c-.2340569.1357068-.5336008.0606207-.6759704-.1694442s-.0759129-.5316408.1499704-.6805558l3.634-2.405-3.208 1.849c-.2303174.1272935-.5198822.0542782-.6623044-.1670037s-.0889497-.5150841.1223044-.6719963l5.521-3.924-4.981 2.875c-.2317427.1353654-.5290201.0636298-.6735243-.1625272-.1445041-.2261571-.084687-.5260601.1355243-.6794728l2.522-1.775-1.985 1.145c-.2318603.1330617-.527371.0602043-.6708066-.1653857-.1434357-.22559-.0840493-.5240996.1348066-.6776143l.368-.257c-.2144425.0349382-.4269043-.0726096-.5257099-.2661133-.0988056-.1935038-.0613376-.4286691.0927099-.5818867l2.842-2.8-2.241 1.293c-.2089623.1200463-.4738237.0739562-.6299505-.1096215s-.1590908-.4524031-.0070495-.6393785l1-1.232c-.2200941-.0137073-.4052198-.1699855-.4556634-.384659-.0504437-.2146735.0457073-.4370457.2366634-.547341l1.933-1.116c.2088309-.1210184.4743034-.0755809.631.108.1570112.1838693.1599584.4537457.007.641l-.858 1.052 3.264-1.881c.2174475-.1222843.4917629-.0655717.6428937.1329134.1511308.1984852.1328285.4780031-.0428937.6550866l-2.842 2.8 6.22-3.588c.2311923-.1280141.5220815-.054013.6639947.1689178.1419132.2229309.0858401.5178012-.1279947.6730822l-.052.037 1.525-.88c.2310609-.1298083.523268-.0567757.6660866.1664779.1428185.2232536.086628.5191613-.1280866.6745221l-2.525 1.774 4.537-2.614c.2309306-.1317312.5245674-.0597083.6683337.1639283.1437664.2236366.0873821.520673-.1283337.6760717l-5.522 3.924 8.253-4.764c.233204-.1287421.5263939-.0520483.6666872.1743946.1402933.226443.0784231.5231151-.1406872.6746054l-3.634 2.405 5.637-3.254c.2321092-.1290838.5246372-.0541763.6661393.170578.1415021.2247542.0825963.5209195-.1341393.674422l-7.936 5.4 10.713-6.185c.2340569-.1357068.5336008-.0606207.6759704.1694442s.0759129.5316408-.1499704.6805558l-7.381 4.9 8.609-4.978c.2343611-.1288923.5286543-.0505227.6678755.1778537.1392213.2283764.0740613.5258734-.1478755.6751463l-2.832 1.821 2.981-1.72c.23265-.1288599.5254615-.0530472.6663444.1725252s.0805297.5219566-.1373444.6744748l-6.029 4.067 5.751-3.32c.23265-.1288599.5254615-.0530472.6663444.1725252s.0805297.5219566-.1373444.6744748l-3.73 2.514 3.2-1.848c.2330829-.1306613.5277074-.0549657.6689423.1718661.1412349.2268319.0791592.5246238-.1409423.6761339l-1.139.764.611-.352c.227731-.1281621.5157443-.059345.6609391.1579231.1451949.217268.0985947.509699-.1069391.6710769l-4.1 3.15 3.55-2.049c.2205392-.1280792.5021318-.0696485.6535046.1356028.1513729.2052513.124009.4915375-.0635046.6643972l-3.054 2.817 2.462-1.421c.2154812-.1230022.4885691-.0693794.6415393.1259712.1529702.1953505.1395447.4733291-.0315393.6530288l-1.074 1.118.251-.144c.2374252-.1242009.5305531-.0391619.6646466.1928199.1340935.2319817.0614797.5284321-.1646466.6721801l-3.3 1.906c-.2154812.1230022-.4885691.0693794-.6415393-.1259712-.1529702-.1953505-.1395447-.4733291.0315393-.6530288l1.074-1.118-3.287 1.9c-.2205392.1280792-.5021318.0696485-.6535046-.1356028-.1513729-.2052513-.124009-.4915375.0635046-.6643972l3.053-2.822-6.276 3.616c-.227731.1281621-.5157443.059345-.6609391-.1579231-.1451949-.217268-.0985947-.509699.1069391-.6710769l4.1-3.145-6.888 3.974c-.0756184.0452887-.1618652.0697828-.25.071z" fill="#8ad256"/><path id="Path" d="m41.505 41.471c-.2215495.0005171-.4170218-.1448238-.4803234-.3571381-.0633015-.2123142.0206638-.4409696.2063234-.5618619l1.917-1.25-3.639 2.1c-.2329673.1327691-.5291919.0581284-.6714287-.1691822-.1422368-.2273105-.0798406-.5263539.1414287-.6778178l7.012-4.722-9.646 5.567c-.2321092.1290838-.5246372.0541763-.6661393-.170578-.1415021-.2247542-.0825963-.5209195.1341393-.674422l9.112-6.195-10.738 6.2c-.23158.1294027-.5239091.0554223-.6660571-.1685604-.142148-.2239828-.0846277-.5199909.1310571-.6744396l9.053-6.293-9.347 5.4c-.2329061.1254293-.5232086.0477402-.6623373-.1772508s-.0789338-.5194187.1373373-.6717492l3.305-2.183-2.858 1.648c-.2313246.1263251-.5209869.0513891-.6620294-.1712679-.1410425-.2226569-.0850249-.5165645.1280294-.6717321l4.381-3.034-3.847 2.221c-.2280542.1290416-.517047.0601323-.6623353-.1579314-.1452882-.2180638-.0975826-.5113034.1093353-.6720686l4.764-3.647-4.212 2.43c-.2226556.1273746-.5055829.0655928-.6548741-.1430023-.1492912-.2085952-.1165111-.4963282.0758741-.6659977l3.322-2.9-2.743 1.583c-.2228951.12889-.5072286.0674359-.657-.142-.1501424-.210187-.1154692-.5001418.08-.669l.8-.688-.175.1c-.2150358.1228992-.4876397.0698481-.6408929-.1247234-.1532532-.1945714-.1409636-.4720174.0288929-.6522766l.728-.767c-.1599962-.0858237-.2608953-.2516348-.2635956-.4331759-.0027002-.1815412.0932227-.3502798.2505956-.4408241l1.933-1.117c.215408-.1259925.490735-.0738659.6451787.122149.1544437.196015.1407116.4758964-.0321787.655851l-.154.162 1.761-1.017c.2231941-.1282474.5072862-.0660776.6565145.1436697s.1148202.4985197-.0795145.6673303l-.8.689 2.6-1.5c.2226556-.1273746.5055829-.0655928.6548741.1430023.1492912.2085952.1165111.4963282-.0758741.6659977l-3.324 2.905 6.433-3.714c.228242-.1318458.5196375-.063862.6659708.1553737.1463332.2192358.0973404.5144185-.1119708.6746263l-4.763 3.646 7.754-4.476c.2322938-.1351768.5298928-.0625367.6737842.164462.1438914.2269988.0825928.5271392-.1387842.679538l-4.386 3.037 6.721-3.881c.2340569-.1357068.5336008-.0606207.6759704.1694442s.0759129.5316408-.1499704.6805558l-3.3 2.177 5.247-3.027c.2322938-.1351768.5298928-.0625367.6737842.164462.1438914.2269988.0825928.5271392-.1387842.679538l-9.055 6.294 12.2-7.044c.2333681-.1382671.5344194-.0652417.6785003.1645824.144081.2298241.078635.5326135-.1475003.6824176l-9.11 6.192 10.392-6c.2341687-.1463554.5426445-.0751687.689.159.1463554.2341687.0751687.5426445-.159.689l-7.01 4.719 7.1-4.1c.2347034-.1364868.5354374-.0607325.6774741.1706544.1420368.2313868.073465.5338394-.1544741.6813456l-1.92 1.248 1.468-.848c.2347029-.1405531.538787-.0663884.6824238.1664401.1436368.2328284.0734897.5378644-.1574238.6845599l-1.471.972.946-.546c.2305507-.1302945.5227069-.0582293.6662193.1643342.1435123.2225634.0886.5184238-.1252193.6746658l-3.989 2.856 3.449-1.99c.2295527-.1314921.521805-.0614183.6667704.1598726.1449654.2212908.0924688.5172061-.1197704.6751274l-2.438 1.8 1.891-1.09c.2217499-.124383.5015352-.0625469.6502105.143705.1486753.2062518.1188941.491237-.0692105.662295l-2.569 2.274 1.988-1.147c.2120148-.1228806.4818419-.0739979.6372742.1154507.1554322.1894485.1506586.4636262-.0112742.6475493l-1.184 1.346.206-.119c.23893-.1358451.5427102-.0533708.6801373.1846528.137427.2380237.0569695.5423443-.1801373.6813472l-2.836 1.632c-.2117396.1215681-.4803142.0724346-.6353005-.1162229-.1549864-.1886576-.1510546-.4616611.0093005-.6457771l1.183-1.346-3.653 2.108c-.2217499.124383-.5015352.0625469-.6502105-.143705-.1486753-.2062518-.1188941-.491237.0692105-.662295l2.568-2.274-5.335 3.08c-.2295527.1314921-.521805.0614183-.6667704-.1598726-.1449654-.2212908-.0924688-.5172061.1197704-.6751274l2.435-1.8-4.558 2.635c-.2305507.1302945-.5227069.0582293-.6662193-.1643342-.1435123-.2225634-.0886-.5184238.1252193-.6746658l3.985-2.853-6.395 3.692c-.233204.1287421-.5263939.0520483-.6666872-.1743946-.1402933-.226443-.0784231-.5231151.1406872-.6746054l1.48-.979-3.167 1.828c-.0756184.0452887-.1618652.0697828-.25.071z" fill="#ffa334"/><g fill="#262626"><path id="Shape" d="m13.019 44.691c-2.838 0-5.894-.346-8.71 0-2.931.362-3.886 1.957-4.033 4.753-.187 3.532-1.17 9.015 3.258 9.865 2.948.566 6.532 0 9.516 0h10.414c.1354802.0202214.2736703.0123929.406-.023 3.7-.747 3.854-3.1 3.854-6.489s.883-7.337-3.319-8.106c-2.992-.548-6.494-.172-9.675-.042v-3.175h9c.0394099-.0034816.0785136-.0098318.117-.019.0887782.0045565.1777799-.0018248.265-.019 4.4-.888 3.613-4.9 3.613-8.5 0-3.156.2-5.744-3.526-6.412-2.942-.528-6.355-.184-9.487-.05-.037-1.459-.243-3.63 1.306-4.144 1.214-.4 3.2 0 4.48 0h8.902c.0980153.0504705.2080414.0729601.318.065h9.792c1.3487217-.1580001 2.7112783-.1580001 4.06 0 1.945.533 1.787 2.448 1.724 4.141-.155 0-.315.009-.468.009-2.8 0-5.97-.444-8.737 0-3.8.616-3.814 3.31-3.814 6.535 0 3.49-.912 7.55 3.457 8.366 2.96.552 6.523 0 9.517 0h.03v3.224c-3.0171246-.2028884-6.0446579-.1972082-9.061.017-3.3.428-3.939 2.56-3.939 5.581 0 3.448-1.124 8.333 3.34 9.054 6.286 1.015 13.477.025 19.875 0 .128335.015706.2584573.0079122.384-.023 3.7-.748 3.849-3.123 3.849-6.506 0-3.459.851-7.366-3.419-8.12-2.983-.526-6.474-.1-9.581-.017v-3.203h9.005c.0472652-.0034252.0941232-.0111233.14-.023.0807764.0020996.1615505-.0042684.241-.019 4.4-.889 3.618-4.869 3.618-8.48 0-3.156.206-5.721-3.519-6.384-2.941-.523-6.346-.183-9.476-.049.046-1.619.382-3.765-1.281-4.62-.963-.5-2.452-.275-3.479-.275h-11.252v-6.323h12.749c.1299805.0085969.2605097-.0028708.387-.034 2.791-.563 3.736-1.829 3.864-4.69.137-3.048 1.136-8.6-2.542-9.708-1.991-.6-4.646-.128-6.677-.128h-13.868c-3.637 0-11.437-1.62-12.361 3.474-.4 2.226-.844 8.378.9 10.145 1.4 1.414 4.237.941 6.008.941h10.092v6.388h-11.552c-1.168495-.1550306-2.3557688.0726706-3.384.649-1.315.956-1.149 2.681-1.083 4.2-.145 0-.3.009-.439.009-2.8 0-5.973-.446-8.738 0-3.8.615-3.81 3.331-3.81 6.553 0 3.489-.908 7.571 3.465 8.393 2.957.556 6.525 0 9.517 0h.018v3.212c-.083.002-.17.007-.251.007zm45.257 3.878c.523 2.267.775 9.431-2.1 10.108h-15.8c-2.959 0-5.644.48-6.66-3.029-.612-2.116-.533-8.316 1.13-9.629 1.722-1.36 4.948-.7 7.06-.7h10.094c2.928.004 5.443-.354 6.276 3.25zm0-17.9c.674 2.124.653 9.095-2.263 9.876h-14.842c-3.209 0-6.2.714-7.443-3.218-.7-2.217-.442-6.917 1.031-8.642 1.669-1.953 4.219-1.234 6.738-1.234h9.743c3.117.002 5.817-.612 7.032 3.22zm-44.316-17.695c-1.092-2.044-.772-9.66.8-10.985 1.816-1.53 5.723-.709 8.024-.709h13.483c2.474 0 8.254-1.091 9.773 1.746 1.192 2.227.835 10.974-1.817 11.694h-13.558c-.2277157-.0724094-.4722843-.0724094-.7 0h-6.23c-2.467 0-8.268 1.074-9.775-1.746zm-4.794 27.552c-3.194 0-6.19.715-7.436-3.19-.706-2.211-.442-6.92 1.033-8.634 1.671-1.944 4.227-1.228 6.74-1.228h9.743c3.1 0 5.81-.615 7.024 3.19.682 2.134.652 9.093-2.278 9.862h-9.682c-.1093432-.0170004-.2206568-.0170004-.33 0zm17.11 8.043c.526 2.255.768 9.434-2.083 10.122h-15.648c-2.97 0-5.78.461-6.821-3.043-.6-2.037-.538-8.316 1.049-9.638 1.651-1.375 4.9-.7 6.98-.7h3.606c.213.257.779.215 1.115 0h5.366c2.935-.001 5.592-.354 6.436 3.259z"/><path id="Path" d="m18.268 4.536h-1c-.3681316-.0355945-.7283027.12271413-.951.418-.15.295.13.51.415.51h1c.3681316.0355945.7283027-.12271413.951-.418.15-.295-.13-.51-.415-.51z"/><path id="Path" d="m31.26 4.508h-9c-.65 0-1.5.984-.52.984h9c.65 0 1.496-.984.52-.984z"/><path id="Path" d="m6.275 48.563h-1c-.36557968-.0307968-.72273148.1211986-.954.406-.158.292.135.468.4.468h1c.36557968.0307968.72273148-.1211986.954-.406.162-.292-.131-.468-.4-.468z"/><path id="Path" d="m10.307 48.684c-.424 0-1.573.632-.614.632h9c.424 0 1.573-.632.614-.632z"/><path id="Path" d="m6.268 30.538h-1c-.36794461-.0358234-.72807739.1220897-.951.417-.15.3.13.507.415.507h1c.3678497.0352295.72770489-.1225619.951-.417.15-.295-.13-.507-.415-.507z"/><path id="Path" d="m18.943 31.558c.847 0 1.095-1.116.114-1.116h-9c-.847 0-1.1 1.116-.114 1.116z"/><path id="Path" d="m38.267 48.533h-1c-.3681389-.0360045-.7283509.1228679-.95.419-.15.3.129.515.416.515h1c.3681389.0360045.7283509-.1228679.95-.419.15-.296-.129-.515-.416-.515z"/><path id="Path" d="m41.524 49.273h9c.284 0 1.628-.546.952-.546h-9c-.284 0-1.628.546-.952.546z"/><path id="Path" d="m38.3 30.66h-1c-.3578175-.0146778-.7060844.1175481-.964.366-.175.27.151.314.362.314h1c.3578175.0146778.7060844-.1175481.964-.366.176-.274-.15-.314-.362-.314z"/><path id="Path" d="m41.733 31.464h9c.614 0 1.511-.928.534-.928h-9c-.614 0-1.511.928-.534.928z"/></g></g></svg>