<svg height="509pt" viewBox="0 -1 509.7666 509" width="509pt" xmlns="http://www.w3.org/2000/svg"><path d="m52.855469 455.664062c-1.90625 0-3.585938-1.269531-4.105469-3.105468-.519531-1.839844.246094-3.796875 1.871094-4.796875l42.324218-26.070313-57.855468 33.363282c-2 1.085937-4.5.410156-5.679688-1.535157-1.179687-1.949219-.625-4.476562 1.261719-5.75l151.617187-96.5625-167.738281 96.84375c-2.011719 1.105469-4.535156.425781-5.71875-1.542969-1.179687-1.96875-.589843-4.519531 1.332031-5.769531l122.25-76.136719-121.445312 70.078126c-2.007812 1.101562-4.523438.425781-5.707031-1.53125-1.1875-1.957032-.613281-4.503907 1.292969-5.765626l170.027343-108.007812-165.613281 95.652344c-2.011719 1.089844-4.527344.398437-5.699219-1.566406-1.171875-1.964844-.585937-4.503907 1.328125-5.757813l92.894532-57.324219-88.523438 51.105469c-2.011719 1.046875-4.488281.339844-5.640625-1.609375-1.15625-1.949219-.585937-4.460938 1.296875-5.722656l25.777344-15.699219-21.433594 12.371094c-2.007812 1.058593-4.496094.359375-5.65625-1.589844s-.59375-4.46875 1.292969-5.730469l82.550781-50.816406-78.1875 45.140625c-2.019531 1.117187-4.554688.429687-5.734375-1.550781-1.175781-1.980469-.570313-4.539063 1.371094-5.777344l83.378906-51.328125-79.015625 45.609375c-2.007812 1.058594-4.496094.359375-5.65625-1.589844-1.160156-1.949218-.59375-4.46875 1.292969-5.730468l67.679687-41.496094-63.316406 36.53125c-2.015625 1.132812-4.570312.457031-5.757812-1.53125-1.1875-1.984375-.574219-4.554688 1.378906-5.792969l119.289062-74.179687-114.921875 66.304687c-2.003906 1.085937-4.511719.402344-5.6875-1.550781-1.175781-1.957032-.605469-4.492188 1.292969-5.753906l146.125-91.683594-141.730469 81.792968c-2.003906 1.101563-4.519531.425782-5.707031-1.53125-1.183594-1.957031-.609375-4.5 1.296875-5.765624l170.007813-107.945313-165.597657 95.589844c-2.003906 1.101562-4.519531.425781-5.707031-1.53125-1.183594-1.957031-.609375-4.5 1.296875-5.765625l162.910156-103.066406-158.5 91.496093c-2.011719 1.089844-4.523437.402344-5.695312-1.5625-1.171875-1.964843-.585938-4.507812 1.328125-5.757812l97.082031-59.972657-92.714844 53.519532c-1.996093.980468-4.40625.257812-5.542969-1.652344-1.136718-1.910156-.613281-4.375 1.199219-5.660156l27.25-16.597656-22.90625 13.183593c-2.011719 1.089844-4.523437.402344-5.695312-1.5625-1.171875-1.964843-.585938-4.503906 1.328125-5.757812l94.847656-58.566407-90.480469 52.234376c-2.007812 1.105468-4.535156.425781-5.714843-1.542969-1.179688-1.96875-.59375-4.519531 1.332031-5.769531l135.269531-84.582032-130.886719 75.578125c-2.011719 1.089844-4.523437.402344-5.695312-1.5625-1.171875-1.964843-.585938-4.507812 1.328125-5.757812l90.25-55.722657-85.882813 49.59375c-2 1.058594-4.480469.367188-5.648437-1.574218-1.164063-1.945313-.609375-4.457032 1.265625-5.730469l116.90625-73.078125-112.523438 64.921875c-2.007812 1.125-4.546875.453125-5.738281-1.519531-1.1875-1.972656-.597656-4.535156 1.335938-5.785156l110.796874-69.878907-106.394531 61.441407c-1.988281.960937-4.382812.242187-5.515625-1.65625-1.132812-1.894532-.632812-4.34375 1.15625-5.640626l16.921875-10.410156-12.5625 7.242188c-2.015625 1.164062-4.589843.496094-5.785156-1.496094-1.199219-1.996094-.578125-4.582031 1.390625-5.816406l51.808594-32.425782-47.414063 27.367188c-1.996093 1.054688-4.472656.371094-5.640625-1.5625-1.171875-1.933594-.632812-4.445312 1.230469-5.726562l62.183594-39.464844-57.773438 33.277344c-2 1.085937-4.5.410156-5.679687-1.539063-1.179688-1.945313-.625-4.472656 1.261718-5.746094l46.882813-29.867187-42.464844 24.523437c-1.980469 1.132813-4.503906.503907-5.722656-1.425781-1.21875-1.933594-.703125-4.484375 1.175781-5.785156l87.304688-59.960938-82.773438 47.785156c-1.996094 1.257813-4.636718.660157-5.894531-1.339843-1.261719-2-.660156-4.636719 1.339844-5.898438l64.203125-44.710937-59.632813 34.472656c-1.96875 1.066406-4.429687.429688-5.632812-1.464844-1.203125-1.890625-.734375-4.390625 1.070312-5.71875l38.320313-26.660156-33.757813 19.492188c-1.929687 1.101562-4.386719.53125-5.640625-1.304688-1.25-1.839844-.878906-4.332031.855469-5.726562l43.65625-34.75-38.871094 22.441406c-1.933593 1.097656-4.386719.519531-5.632812-1.324219-1.246094-1.84375-.863281-4.335937.871093-5.722656l18.015626-14.148438-13.253907 7.679688c-1.878906 1.0625-4.253906.550781-5.535156-1.1875-1.277344-1.738281-1.054687-4.160157.519531-5.636719l12.269532-11.300781-7.253907 4.183593c-1.726562.988282-3.914062.652344-5.261719-.816406-1.347656-1.464844-1.5-3.671875-.367187-5.3125l6.152344-8.804687c-1.566407.03125-3.027344-.785157-3.816407-2.132813-1.171874-2.039062-.480468-4.640625 1.554688-5.820312l13.925781-8.046875c1.730469-1 3.921875-.664063 5.273438.808593 1.351562 1.472657 1.5 3.6875.359375 5.324219l-5.453125 7.816407 24.328125-14.027344c1.878906-1.0625 4.257812-.550782 5.535156 1.1875 1.28125 1.742187 1.058594 4.160156-.519531 5.640625l-12.277344 11.253906 31.332031-18.082031c1.941406-1.117188 4.410156-.546875 5.664063 1.304687 1.253906 1.855469.863281 4.359375-.890625 5.742188l-17.964844 14.109375 36.695312-21.15625c1.933594-1.125 4.40625-.5625 5.667969 1.285156s.878907 4.355469-.875 5.746094l-43.65625 34.707031 72.339844-41.738281c1.96875-1.066406 4.429687-.429688 5.632813 1.464844 1.203124 1.890624.734374 4.390624-1.070313 5.71875l-38.355469 26.644531 58.640625-33.828125c1.972657-1.09375 4.453125-.460938 5.664063 1.441406 1.214844 1.902344.734375 4.417969-1.089844 5.742188l-64.214844 44.691406 89.910156-51.875c1.976563-1.089844 4.457032-.449219 5.664063 1.460937 1.207031 1.90625.714844 4.425781-1.117187 5.742188l-87.3125 59.953125 116.375-67.15625c2.003906-1.085938 4.503906-.40625 5.683593 1.539062 1.179688 1.945313.625 4.476563-1.261719 5.75l-46.933593 29.867188 64.453125-37.15625c1.996094-1.054688 4.472656-.371094 5.640625 1.5625 1.171875 1.933594.632812 4.445312-1.230469 5.726562l-62.191406 39.507813 81.058594-46.796875c2.011718-1.125 4.550781-.453125 5.742187 1.519531 1.1875 1.972656.597656 4.535156-1.339844 5.785156l-51.8125 32.425781 68.804688-39.730468c2.011719-1.089844 4.523437-.398438 5.695312 1.566406 1.175781 1.964844.589844 4.503906-1.328125 5.753906l-16.84375 10.335938 30.644532-17.65625c2.003906-1.101563 4.523437-.425782 5.707031 1.53125 1.183593 1.957031.613281 4.5-1.296875 5.765625l-110.847656 69.886719 133.734374-77.183594c2.007813-1.085938 4.511719-.402344 5.6875 1.550781 1.175782 1.957031.605469 4.492187-1.292968 5.753906l-116.90625 73.070313 126.992187-73.316406c2.011719-1.09375 4.527344-.402344 5.699219 1.5625 1.171875 1.964843.585938 4.503906-1.328125 5.757812l-90.214844 55.6875 89.378907-51.601562c2-1.054688 4.480468-.363282 5.648437 1.578124 1.164063 1.941407.609375 4.457032-1.265625 5.726563l-135.269531 84.582031 130.886719-75.550781c2.011718-1.09375 4.523437-.402344 5.695312 1.5625s.585938 4.503906-1.328125 5.757813l-94.847656 58.574218 90.453125-52.234375c2.015625-1.097656 4.539062-.402343 5.710937 1.574219 1.167969 1.976562.566407 4.523438-1.367187 5.765625l-27.136719 16.527344 22.800781-13.167969c2.023438-1.203125 4.644532-.542969 5.851563 1.480469 1.207031 2.027343.542969 4.644531-1.480469 5.851562l-97.136719 60.007813 92.800781-53.574219c2.003907-1.101563 4.523438-.425781 5.707032 1.53125s.613281 4.5-1.296875 5.765625l-162.941407 103.097656 158.539063-91.535156c2.003906-1.101562 4.523437-.425781 5.707031 1.53125s.613282 4.5-1.292968 5.765625l-169.941407 107.910156 165.546875-95.570312c2.011719-1.164063 4.589844-.496094 5.785156 1.496093 1.199219 1.996094.578126 4.582032-1.390624 5.816407l-146.09375 91.730469 141.707031-81.808594c2.007812-1.070313 4.5-.378906 5.667969 1.574218 1.171874 1.953126.601562 4.476563-1.292969 5.738282l-119.234375 74.15625 114.875-66.328125c2.015625-1.117188 4.554687-.429688 5.730468 1.550781 1.179688 1.980469.570313 4.539062-1.371093 5.777344l-67.855469 41.625 63.496094-36.648438c2.007812-1.058594 4.492187-.359375 5.65625 1.589844 1.160156 1.949219.589844 4.46875-1.296875 5.730469l-83.402344 51.355469 79.050781-45.644532c2.011719-1.09375 4.527344-.402344 5.699219 1.5625s.585937 4.503906-1.328125 5.757813l-82.65625 50.875 78.292969-45.226563c2.023437-1.152344 4.597656-.472656 5.785156 1.53125 1.1875 2 .550781 4.585938-1.429687 5.808594l-25.292969 15.359375 20.9375-12.03125c2.027343-1.210937 4.648437-.550781 5.855469 1.476563 1.210937 2.023437.546874 4.644531-1.476563 5.851562l-93.011719 57.378906 88.617188-51.199218c2.007812-1.148438 4.566406-.488282 5.765625 1.492187s.601562 4.554687-1.34375 5.804687l-170.105469 108.066407 165.726562-95.675781c2.023438-1.214844 4.644532-.558594 5.859376 1.460937 1.210937 2.023437.558593 4.644531-1.464844 5.859375l-122.09375 76.074219 117.707031-67.960938c2.003906-1.117187 4.535156-.453125 5.730469 1.511719 1.191406 1.960938.617187 4.515625-1.300782 5.777344l-151.730468 96.648437 147.320312-85.070312c2.015625-1.132813 4.566406-.457031 5.753906 1.527343 1.1875 1.988282.578126 4.558594-1.378906 5.796876l-42.308594 26.058593 37.941407-21.902343c2.007812-1.234376 4.636719-.605469 5.871093 1.40625 1.230469 2.011718.601563 4.636718-1.410156 5.871093l-126.292968 81.917969 121.8125-70.320312c2-1.136719 4.539062-.484376 5.742187 1.472656 1.207031 1.957031.644531 4.515625-1.269531 5.789062l-105.941406 69.375 101.480468-58.589844c1.992188-1.15625 4.539063-.519531 5.757813 1.433594s.667969 4.519532-1.246094 5.800782l-95.683594 64.265624 91.210938-52.667968c2-1.183594 4.578125-.554688 5.804687 1.417968 1.226563 1.96875.648438 4.5625-1.296875 5.828126l-61.832031 41.121093 57.335938-33.089843c1.976562-1.089844 4.460937-.449219 5.664062 1.457031 1.207031 1.910156.714844 4.425781-1.117188 5.742187l-57.515624 39.621094 52.976562-30.582031c1.992188-1.132813 4.523438-.492188 5.734375 1.457031 1.207031 1.949219.664063 4.503906-1.238281 5.785156l-11.382813 7.546875 6.894531-3.988281c1.972657-1.105469 4.464844-.484375 5.683594 1.421875s.738282 4.429687-1.09375 5.757813l-27.808594 19.625 23.226563-13.40625c1.964844-1.117188 4.457031-.507813 5.6875 1.382812 1.230469 1.894531.773437 4.417969-1.042969 5.761719l-17.203125 12.515625 12.566407-7.242188c1.914062-1.078125 4.328124-.527344 5.585937 1.269532 1.261719 1.796874.953125 4.253906-.710937 5.683593l-19.277344 16.214844 14.414062-8.320313c1.90625-1.117187 4.351563-.59375 5.632813 1.210938 1.28125 1.800781.972656 4.28125-.710938 5.71875l-4.128906 3.554688c1.800781-.597657 3.78125.0625 4.859375 1.625 1.078125 1.558593.996094 3.644531-.199219 5.117187l-3.808593 4.675781c1.691406-.179687 3.332031.644532 4.199218 2.109375 1.171875 2.039063.472656 4.640625-1.5625 5.820313l-17.792968 10.238281c-1.78125 1.027344-4.039063.636719-5.371094-.929687-1.335938-1.5625-1.363282-3.855469-.070313-5.453126l3.183594-3.925781-17.851563 10.316407c-1.90625 1.113281-4.347656.589843-5.628906-1.207032s-.980468-4.273437.695313-5.710937l3.769531-3.253907-17.671875 10.171876c-1.910156 1.078124-4.328125.527343-5.585937-1.269532-1.257813-1.796875-.949219-4.253906.714843-5.683594l19.269531-16.160156-39.996093 23.113282c-1.964844 1.117187-4.457031.511718-5.6875-1.382813s-.773438-4.417969 1.042969-5.757813l17.179687-12.484374-34.082031 19.625c-1.96875 1.074218-4.429688.441406-5.636719-1.441407-1.207031-1.886719-.75-4.386719 1.042969-5.726562l27.777344-19.625-46.429688 26.792969c-1.992188 1.136718-4.523438.492187-5.734375-1.457032-1.210937-1.949218-.664063-4.503906 1.238281-5.785156l11.46875-7.59375-25.71875 14.835938c-1.980468 1.089843-4.460937.453124-5.667968-1.457032-1.203126-1.910156-.714844-4.425781 1.117187-5.742187l57.5-39.605469-81.066406 46.804688c-1.988281 1.085937-4.476563.429687-5.671875-1.492188-1.191406-1.921875-.679688-4.441406 1.171875-5.742188l61.824219-41.132812-83.789063 48.367188c-1.984375 1.101562-4.484375.453124-5.683594-1.46875-1.203125-1.925782-.6875-4.457032 1.171875-5.757813l95.726563-64.28125-123.851563 71.507813c-1.992187 1.085937-4.484375.421874-5.671875-1.507813-1.191406-1.929687-.664062-4.453125 1.199219-5.742187l105.984375-69.410157-132.796875 76.660157c-2.003906 1.167968-4.570312.519531-5.78125-1.453126-1.210938-1.976562-.625-4.558593 1.320312-5.816406l126.292969-81.917968-154.496093 89.1875c-.648438.386718-1.382813.597656-2.136719.609374zm0 0" fill="#e4e8eb"/><path d="m194.773438 506.863281c-1.898438-.003906-3.570313-1.265625-4.09375-3.09375-.519532-1.832031.230468-3.785156 1.84375-4.792969l6.550781-4.105468-19.761719 11.386718c-1.992188 1.113282-4.511719.460938-5.710938-1.484374-1.203124-1.941407-.660156-4.488282 1.230469-5.769532l107.75-70.707031-135.082031 77.960937c-1.996094 1.066407-4.480469.390626-5.65625-1.546874-1.179688-1.933594-.640625-4.453126 1.226562-5.734376l107.078126-68.53125-131.335938 75.8125c-2 1.097657-4.511719.429688-5.699219-1.519531s-.632812-4.488281 1.261719-5.761719l134.960938-86.3125-162.039063 93.59375c-2.015625 1.21875-4.640625.574219-5.863281-1.445312-1.21875-2.015625-.574219-4.640625 1.445312-5.859375l144.066406-91.085937-154.222656 89.003906c-2.003906 1.101562-4.523437.425781-5.707031-1.53125-1.183594-1.960938-.613281-4.503906 1.296875-5.765625l84.316406-51.933594-81.929687 47.28125c-2.007813 1.058594-4.492188.359375-5.652344-1.589844-1.164063-1.949219-.59375-4.46875 1.292969-5.730469l83.371094-51.335937-79.011719 45.644531c-2 1.054688-4.480469.363282-5.648438-1.578125-1.164062-1.941406-.609375-4.457031 1.261719-5.726562l128.574219-80.214844-124.1875 71.699219c-2.011719 1.074218-4.511719.375-5.679688-1.585938-1.164062-1.960937-.578125-4.492187 1.328125-5.746094l61.59375-37.734374-57.242187 33.042968c-2 1.054688-4.480469.363282-5.648438-1.578125-1.164062-1.941406-.609375-4.457031 1.261719-5.726562l126.988281-79.171875-122.601562 70.773437c-2.011719 1.078125-4.511719.378907-5.679688-1.582031-1.164062-1.964844-.578125-4.496094 1.328125-5.746094l50.738282-31.019531-46.386719 26.777344c-2.011719 1.089843-4.523438.402343-5.695313-1.5625-1.171875-1.96875-.585937-4.507813 1.328125-5.757813l86.460938-53.273437-82.09375 47.394531c-2.003907 1.101562-4.523438.425781-5.707031-1.53125-1.183594-1.960938-.609376-4.503906 1.296874-5.765625l163.652344-103.578125-159.25 91.929688c-2.015625 1.097656-4.539062.398437-5.710937-1.574219-1.167969-1.976563-.5625-4.523438 1.367187-5.765625l12.699219-7.679688-8.355469 4.8125c-2.015625 1.117188-4.554687.429688-5.730468-1.550781-1.179688-1.980469-.570313-4.539063 1.371093-5.777344l64.664063-39.640625-60.304688 34.785156c-2.003906 1.101563-4.523437.425782-5.707031-1.53125-1.183594-1.960937-.613281-4.503906 1.296875-5.765624l161.082031-101.828126-156.671875 90.453126c-2.015625 1.097656-4.539062.398437-5.710937-1.574219-1.167969-1.976563-.5625-4.523438 1.367187-5.765625l5.597656-3.414063-1.253906.71875c-1.996094 1.054688-4.472656.371094-5.640625-1.5625-1.171875-1.933593-.632812-4.445312 1.230469-5.726562l167.253906-106.078125-162.84375 94.074218c-2 1.070313-4.492187.382813-5.664062-1.558593-1.171875-1.945313-.617188-4.464844 1.261718-5.738281l154.15625-97.167969-149.753906 86.449219c-2.011718 1.089843-4.523437.402343-5.695312-1.5625-1.175782-1.964844-.589844-4.507813 1.328125-5.757813l87.105469-53.667969-82.773438 47.789063c-2.007812 1.058593-4.492188.359375-5.652344-1.59375-1.164062-1.949219-.59375-4.46875 1.292969-5.730469l74.019531-45.488281-69.625 40.179687c-2.015625 1.117188-4.554687.429688-5.730468-1.550781-1.179688-1.980469-.570313-4.539063 1.371093-5.777344l76.125-46.882812-71.765625 41.4375c-2.015625 1.117187-4.554687.429687-5.730468-1.550781-1.179688-1.980469-.570313-4.539063 1.371093-5.777344l42.9375-26.308594-38.578125 22.246094c-2.015625 1.113281-4.554687.425781-5.730468-1.554688-1.179688-1.976562-.570313-4.535156 1.371093-5.777344l37.589844-23.132812-33.230469 19.183594c-2.003906 1.085937-4.511718.402344-5.6875-1.550782-1.175781-1.957031-.605468-4.492187 1.292969-5.753906l70.136719-43.871094-65.707032 37.957032c-2.003906 1.164062-4.570312.519531-5.78125-1.457032-1.210937-1.972656-.628906-4.554687 1.316407-5.8125l111.207031-72.484374-106.777344 61.628906c-2.011718 1.109375-4.535156.425781-5.714844-1.542969-1.183593-1.96875-.59375-4.515625 1.328126-5.769531l18.773437-11.765625-14.421875 8.328125c-2.015625 1.160156-4.589844.492187-5.785156-1.5-1.199219-1.992188-.578125-4.582032 1.390625-5.816406l8.882812-5.5625-4.488281 2.5625c-2.007812 1.144531-4.566406.484374-5.765625-1.496094-1.199219-1.976563-.601563-4.550782 1.347656-5.800782l24.652344-15.726562-20.199219 11.707031c-1.980468 1.152344-4.519531.53125-5.75-1.402343-1.226562-1.9375-.703125-4.5 1.183594-5.800782l71.425781-49.550781-66.859375 38.601563c-1.996094 1.136718-4.535156.488281-5.742187-1.472657-1.203125-1.957031-.640625-4.515625 1.269531-5.789062l10.480469-6.824219-5.972657 3.472656c-1.988281 1.175782-4.550781.558594-5.78125-1.390625-1.234374-1.953125-.691406-4.53125 1.222657-5.820312l27.308593-18.773438-22.785156 13.046875c-1.964844 1.128906-4.472656.523438-5.703125-1.378906-1.234375-1.902344-.761719-4.4375 1.070313-5.773438l25.035156-18.140624-20.402344 11.777343c-1.945312 1.085938-4.402344.488281-5.632812-1.367187-1.234375-1.859375-.828125-4.355469.929687-5.726563l15.675781-11.902343-10.972656 6.339843c-1.847656 1.015625-4.164062.527344-5.445312-1.148437-1.28125-1.679688-1.140625-4.042969.324218-5.558594l17.433594-17.554688-12.3125 7.101563c-1.738281 1-3.9375.65625-5.285156-.828125s-1.480469-3.707031-.320312-5.339844l5.886718-8.269531c-1.90625-.046875-3.550781-1.359375-4.027344-3.207031-.472656-1.847656.339844-3.785156 1.988282-4.746094l13.882812-8.023438c1.738282-1 3.9375-.65625 5.289063.828126 1.347656 1.484374 1.480469 3.707031.320312 5.34375l-5.011719 7.046874 23.101563-13.3125c1.847656-1.003906 4.148437-.511718 5.425781 1.160157 1.277344 1.667969 1.148438 4.019531-.304687 5.539062l-17.433594 17.546875 42.035156-24.246094c1.945313-1.109374 4.421875-.519531 5.664063 1.347657 1.238281 1.867187.824218 4.378906-.957032 5.746093l-15.621093 11.835938 32.824219-18.929688c1.96875-1.128906 4.472656-.519531 5.707031 1.382813 1.230469 1.902344.761719 4.4375-1.070313 5.769531l-25.046875 18.132813 43.828125-25.285157c1.980469-1.152343 4.519532-.53125 5.75 1.40625 1.226563 1.933594.703125 4.496094-1.183594 5.796876l-27.308593 18.773437 45.074219-25.976563c1.988281-1.082031 4.480468-.417968 5.671874 1.511719 1.1875 1.925781.660157 4.449219-1.203124 5.742188l-10.527344 6.902343 24.523437-14.15625c1.976563-1.101562 4.472657-.472656 5.683594 1.4375 1.214844 1.914063.722656 4.4375-1.117187 5.757813l-71.425782 49.550781 98.289063-56.746094c2.003906-1.121093 4.535156-.453124 5.726562 1.507813 1.191407 1.964844.617188 4.519531-1.300781 5.78125l-24.769531 15.753906 40.003906-23.042969c2.007813-1.125 4.550781-.453124 5.738281 1.519532 1.191406 1.972656.597656 4.535156-1.335937 5.785156l-8.789063 5.511719 22.1875-12.796875c2.003906-1.089844 4.511719-.40625 5.6875 1.550781 1.175782 1.953125.605469 4.488281-1.292968 5.753906l-18.859376 11.757813 33.109376-19.082032c1.996093-1.097656 4.5-.4375 5.691406 1.503907 1.195312 1.941406.652344 4.476562-1.226563 5.757812l-111.226562 72.476563 138.15625-79.738282c2.007812-1.125 4.550781-.453124 5.738281 1.519532 1.191406 1.972656.597656 4.535156-1.335938 5.785156l-70.160156 43.894531 88.667969-51.199219c2.011719-1.089843 4.527344-.398437 5.699219 1.566407 1.171875 1.964843.585937 4.503906-1.328125 5.757812l-37.546875 23.097657 52.703125-30.421876c2.011719-1.089843 4.523437-.398437 5.695312 1.566407 1.171875 1.964843.585938 4.503906-1.328125 5.757812l-42.777344 26.230469 53.800782-31.078125c2.011718-1.058594 4.496094-.359375 5.65625 1.589844 1.164062 1.949219.59375 4.46875-1.292969 5.730469l-76.203125 46.933593 78.507812-45.320312c2.011719-1.089844 4.523438-.402344 5.695313 1.5625 1.171875 1.964843.585937 4.507812-1.328125 5.757812l-74.035156 45.492188 71.132812-41.070313c2.027344-1.207031 4.644532-.542968 5.851563 1.480469s.542969 4.644531-1.480469 5.847656l-87.195312 53.761719 82.835937-47.785156c2.007813-1.128906 4.546875-.453125 5.738281 1.519531 1.1875 1.972656.597656 4.53125-1.335937 5.785156l-154.0625 97.039063 149.660156-86.433594c1.996094-1.054688 4.472656-.371094 5.640625 1.5625 1.171875 1.933594.632812 4.445312-1.230469 5.726562l-167.3125 106.101563 162.910157-94.054687c2.027343-1.199219 4.644531-.527344 5.84375 1.503906 1.199218 2.027344.527343 4.644531-1.5 5.84375l-5.597657 3.414062 1.253907-.71875c2.015624-1.21875 4.640624-.570312 5.855468 1.449219 1.21875 2.015625.570313 4.636719-1.445312 5.855469l-161.082032 101.804687 156.671876-90.453125c2.015624-1.117187 4.550781-.429687 5.730468 1.550782 1.175782 1.980468.570313 4.539062-1.371094 5.777343l-64.769531 39.699219 60.417969-34.878906c1.3125-.773438 2.9375-.789063 4.265625-.042969 1.328125.75 2.15625 2.148437 2.171875 3.675781.015625 1.523438-.78125 2.941406-2.09375 3.714844l-12.699219 7.679688 8.355469-4.8125c2.003906-1.101563 4.523438-.425782 5.707031 1.53125 1.183594 1.960937.613281 4.503906-1.296875 5.765624l-163.53125 103.527344 159.121094-91.871094c2.023438-1.207031 4.644531-.542968 5.847656 1.480469 1.207032 2.023438.546875 4.644531-1.480468 5.851563l-86.550782 53.324218 82.191406-47.453124c2.023438-1.152344 4.59375-.472657 5.78125 1.53125 1.1875 2 .550782 4.585937-1.429687 5.804687l-50.738281 31.011719 46.386718-26.769532c2.003907-1.054687 4.484376-.363281 5.648438 1.578126 1.164062 1.941406.613281 4.457031-1.261719 5.726562l-126.992187 79.171875 122.605468-70.773437c2.011719-1.078126 4.515626-.378907 5.679688 1.582031 1.164062 1.964843.582031 4.496093-1.328125 5.746093l-61.730469 37.8125 57.386719-33.074218c2.003906-1.058594 4.484375-.367188 5.648437 1.574218 1.167969 1.941407.613282 4.457032-1.261718 5.726563l-128.570313 80.214844 124.183594-71.679688c2.015625-1.113281 4.554687-.425781 5.730469 1.554688 1.179687 1.976562.574218 4.535156-1.367188 5.777343l-83.476562 51.386719 79.121094-45.671875c2.011718-1.089844 4.527343-.398437 5.699218 1.566406 1.171875 1.964844.585938 4.503907-1.328125 5.757813l-84.191406 51.863281 79.820313-46.078125c2.007812-1.105469 4.523437-.429687 5.707031 1.53125 1.1875 1.957031.613281 4.5-1.292969 5.761719l-144.085938 90.992188 139.671876-80.632813c2-1.066406 4.484374-.390625 5.660156 1.546875 1.179687 1.933594.636718 4.453125-1.230469 5.734375l-134.960937 86.347656 130.558593-75.367187c2.003907-1.117188 4.535157-.453125 5.726563 1.507812 1.195312 1.964844.621094 4.519532-1.296875 5.78125l-107.007813 68.496094 102.578125-59.21875c1.992188-1.085938 4.480469-.421875 5.671875 1.507812 1.1875 1.929688.660156 4.453126-1.199218 5.742188l-107.8125 70.761719 103.332031-59.648438c2.011719-1.109375 4.535156-.425781 5.714843 1.542969 1.183594 1.964844.59375 4.515625-1.328124 5.769531l-6.511719 4.0625 2.125-1.214843c1.972656-1.0625 4.4375-.414063 5.632812 1.484374 1.195313 1.894532.71875 4.394532-1.09375 5.71875l-89.257812 61.140626 84.753906-48.929688c1.976563-1.117188 4.484375-.484375 5.703125 1.433594 1.214844 1.921875.710938 4.460937-1.148438 5.769531l-64.5625 44.550781 59.980469-34.59375c1.988281-1.097656 4.492188-.441406 5.6875 1.488282 1.199219 1.933593.671875 4.464843-1.199219 5.757812l-16.476562 10.921875 11.988281-6.917969c1.941407-1.09375 4.402344-.507812 5.640625 1.347656 1.238282 1.851563.839844 4.347657-.914062 5.726563l-47.785156 36.691406 17.066406-9.839843c1.9375-1.101563 4.398437-.523438 5.644531 1.328124 1.246094 1.847657.859375 4.347657-.890625 5.730469l-25.089844 19.574219c.179688.210938.339844.441406.480469.683594 1.175781 2.039062.484375 4.648437-1.554687 5.828125l-28.46875 16.402343c-1.941407 1.121094-4.417969.550782-5.671876-1.308593-1.257812-1.859375-.855468-4.371094.910157-5.75l5.472656-4.265625-19.628906 11.3125c-1.945313 1.117187-4.421875.539062-5.667969-1.324219-1.25-1.863281-.839844-4.375.933594-5.75l47.785156-36.691406-75.859375 43.777343c-1.992187 1.097657-4.492187.441407-5.691406-1.488281-1.195313-1.933593-.667969-4.464843 1.203125-5.757812l16.519531-10.949219-31.523437 18.195312c-1.972657 1.078126-4.445313.4375-5.648438-1.464843-1.203125-1.898438-.726562-4.40625 1.09375-5.730469l64.503906-44.550781-89.636718 51.746093c-1.976563 1.085938-4.460938.449219-5.664063-1.460937-1.207031-1.90625-.714844-4.425781 1.117187-5.742187l89.328126-61.160157-118.425782 68.363281c-.648437.386719-1.382812.59375-2.136718.605469zm0 0" fill="#cad0d7"/><path d="m341.632812 500.113281c-1.773437 0-3.363281-1.097656-3.992187-2.757812-.628906-1.660157-.164063-3.535157 1.167969-4.710938l22.238281-19.625-17.289063 9.976563c-1.933593 1.085937-4.378906.511718-5.625-1.328125-1.242187-1.835938-.871093-4.320313.855469-5.714844l9.703125-7.679687-4.933594 2.84375c-1.910156 1.070312-4.320312.523437-5.578124-1.269532-1.257813-1.789062-.957032-4.246094.699218-5.675781l3.308594-2.800781c-1.695312.222656-3.359375-.585938-4.230469-2.058594-.867187-1.472656-.773437-3.324219.238281-4.699219l5.496094-7.449219c-1.835937-.195312-3.339844-1.542968-3.726562-3.347656-.386719-1.800781.425781-3.652344 2.019531-4.582031l13.925781-8.046875c1.75-1.007812 3.964844-.648438 5.3125.855469 1.34375 1.507812 1.449219 3.75.25 5.375l-4.265625 5.792969 20.984375-12.117188c1.910156-1.085938 4.335938-.546875 5.601563 1.253906 1.265625 1.796875.957031 4.261719-.710938 5.691406l-1.9375 1.640626 14.898438-8.515626c1.933593-1.109374 4.398437-.539062 5.652343 1.304688 1.25 1.847656.871094 4.34375-.875 5.734375l-9.667968 7.601563 2.558594-1.476563c1.898437-1.078125 4.300781-.554687 5.578124 1.214844 1.273438 1.773437 1.007813 4.21875-.617187 5.671875l-38.28125 33.769531c1.179687 2.035156.484375 4.644531-1.554687 5.828125l-15.09375 8.703125c-.636719.382813-1.367188.585937-2.109376.597656zm0 0" fill="#a9b0bb"/><path d="m267.871094 328.097656c-1.855469-.003906-3.496094-1.207031-4.058594-2.976562-.558594-1.769532.085938-3.699219 1.601562-4.773438l75.417969-53.296875-69.84375 40.328125c-2.011719 1.148438-4.570312.484375-5.769531-1.492187-1.199219-1.980469-.601562-4.554688 1.347656-5.804688l9.71875-6.160156c-1.59375.09375-3.113281-.691406-3.960937-2.046875-1.199219-1.980469-.605469-4.554688 1.339843-5.804688l43.0625-27.628906-29.605468 17.066406c-1.996094 1.117188-4.519532.457032-5.71875-1.496093-1.195313-1.953125-.636719-4.503907 1.265625-5.777344l76.253906-49.421875-60.960937 35.191406c-2.019532 1.21875-4.640626.570313-5.859376-1.449218-1.21875-2.015626-.570312-4.636719 1.445313-5.855469l27.230469-17.203125-9.878906 5.699218c-2.007813 1.238282-4.636719.617188-5.875-1.386718-1.242188-2.003906-.621094-4.636719 1.386718-5.875l70.917969-46.730469-29.363281 17c-1.988282 1.113281-4.503906.46875-5.707032-1.464844-1.207031-1.9375-.675781-4.480469 1.203126-5.773437l42.75-28.6875-5.402344 3.113281c-1.96875 1.125-4.472656.511719-5.703125-1.398437-1.226563-1.90625-.742188-4.441407 1.097656-5.769532l35.328125-25.113281c-1.796875-.003906-3.398438-1.132813-4.007812-2.824219-.605469-1.6875-.089844-3.578125 1.292968-4.726562l30.371094-25.207032c-.121094-.148437-.226562-.308593-.316406-.476562-1.171875-2.039062-.480469-4.640625 1.554687-5.820312l21.167969-12.246094c1.921875-1.109375 4.371094-.5625 5.636719 1.257812 1.265625 1.820313.925781 4.308594-.78125 5.722656l-13.488281 11.195313 27.390624-15.804687c1.964844-1.085938 4.4375-.460938 5.652344 1.425781s.757813 4.394531-1.042968 5.734375l-30.261719 21.53125 36.8125-21.25c1.984375-1.070313 4.460937-.417969 5.652343 1.496094 1.191407 1.914062.691407 4.425781-1.144531 5.730468l-42.742187 28.691406 44.808594-25.875c2.003906-1.238281 4.632812-.617187 5.875 1.386719 1.238281 2.007813.617187 4.636719-1.386719 5.875l-70.898438 46.722657 69.054688-39.867188c2.003906-1.105469 4.523437-.429688 5.707031 1.527344 1.183594 1.960937.613281 4.503906-1.296875 5.765625l-27.230469 17.222656 20.214844-11.675781c2.011719-1.230469 4.636719-.597656 5.867188 1.414062 1.230468 2.007813.597656 4.636719-1.410157 5.867188l-76.28125 49.441406 44.101563-25.457031c2-1.097657 4.511718-.429688 5.699218 1.519531s.632813 4.488281-1.261718 5.761719l-43.007813 27.621093 8.78125-5.066406c1.996094-1.058594 4.472657-.371094 5.640625 1.5625 1.171875 1.933594.632813 4.441406-1.230468 5.722656l-24.679688 15.667969c1.632812.386719 2.886719 1.695313 3.207031 3.339844.316407 1.648437-.359375 3.328125-1.730469 4.296875l-75.417968 53.300781 24.550781-14.175781c2.027344-1.058594 4.527344-.332031 5.671875 1.644531 1.144531 1.980469.527344 4.511719-1.402344 5.738281l-105.21875 60.75c-.648437.359376-1.386718.542969-2.132812.527344zm0 0" fill="#5e9cea"/><path d="m265.578125 326.492188c-1.730469 0-3.289063-1.042969-3.945313-2.640626-.660156-1.597656-.289062-3.4375.941407-4.65625l6.570312-6.527343-1.1875.683593c-1.679687.972657-3.800781.6875-5.167969-.6875-1.363281-1.378906-1.628906-3.503906-.644531-5.175781l13.707031-23.292969c-.976562-2.015624-.230468-4.4375 1.707032-5.558593l3.34375-1.9375c1.679687-.96875 3.800781-.6875 5.167968.691406 1.363282 1.378906 1.628907 3.503906.644532 5.171875l-9.011719 15.300781 15.582031-8.984375c1.851563-1.03125 4.179688-.542968 5.464844 1.140625 1.285156 1.6875 1.136719 4.058594-.347656 5.574219l-6.578125 6.535156 9.386719-5.417968c2.027343-1.058594 4.527343-.332032 5.671874 1.644531 1.144532 1.980469.523438 4.511719-1.40625 5.738281l-37.800781 21.828125c-.636719.371094-1.363281.570313-2.097656.570313zm0 0" fill="#3977bc"/><path d="m304.820312 305.792969c-1.765624-.003907-3.347656-1.089844-3.980468-2.738281-.632813-1.644532-.1875-3.511719 1.121094-4.695313l1.46875-1.324219-2.996094 1.707032c-1.777344 1.027343-4.035156.644531-5.371094-.914063s-1.375-3.851563-.089844-5.453125l12.410156-15.359375-18.261718 10.546875c-1.785156 1.035156-4.054688.648438-5.390625-.921875-1.335938-1.570313-1.359375-3.871094-.054688-5.46875l12.226563-14.976563-5.722656 3.277344c-1.683594.96875-3.804688.683594-5.167969-.695312s-1.625-3.507813-.636719-5.175782l11.683594-19.582031c-.9375-2-.199219-4.382812 1.707031-5.496093l3.316406-1.921876c1.683594-.976562 3.8125-.695312 5.179688.6875 1.367187 1.382813 1.628906 3.515626.632812 5.183594l-6.828125 11.417969 11.675782-6.730469c1.785156-1.03125 4.050781-.640625 5.382812.929688 1.335938 1.566406 1.363281 3.863281.0625 5.460937l-12.230469 14.976563 17.921875-10.34375c1.777344-1.027344 4.035156-.640625 5.371094.917968 1.335938 1.558594 1.375 3.847657.089844 5.449219l-12.382813 15.402344 18.285157-10.546875c1.878906-1.019531 4.222656-.496094 5.484374 1.230469 1.257813 1.722656 1.050782 4.117187-.492187 5.59375l-1.441406 1.308593 2.96875-1.707031c2.039062-1.160156 4.632812-.457031 5.804687 1.574219s.488282 4.628906-1.535156 5.8125l-38.078125 21.984375c-.644531.382813-1.382813.585937-2.132813.589844zm0 0" fill="#4a88da"/><g fill="#262626"><path d="m506.925781 132.316406c5.695313-13.761718 2.675781-29.589844-7.679687-40.292968-.179688-.121094-.363282-.230469-.554688-.324219-.136718-.164063-.15625-.324219-.335937-.480469-12.074219-10.980469-29.445313-13.914062-44.457031-7.507812-9.597657 5.164062-18.101563 12.148437-25.035157 20.558593-.15625.101563-.316406.1875-.453125.296875-.136718.109375-.222656.136719-.316406.214844h-.070312l-11.476563 11.5c1.640625-19.703125 4.5-47.496094-9.597656-57.09375-8.535157-5.796875-25.261719-3.160156-34.621094-3.160156h-16.144531c.347656-23.457032 4.957031-45.933594-22.339844-52.230469-24.484375-5.65625-57.3125 0-82.253906 0-72.277344 0-149.078125-7.679687-221.011719 0-42.308594 4.472656-28.238281 61.398437-28.238281 92.269531v258.355469c0 24.253906-5.265625 55.363281 0 79.234375 6.398437 28.945312 35.277344 22.902344 59.792968 22.183594v7.929687c0 12.75-3.371093 30.558594 8.875 39.003907 9.164063 6.332031 28.730469 3.160156 38.484376 3.160156h197.070312c10.613281 0 26.929688 3.265625 37.144531-1.007813 19.78125-8.296875 39.730469-38.570312 54.757813-53.597656 5.402344-5.402344 9.097656-8.976563 11.667968-12.144531l5.117188-5.121094c1.171875-1.175781.136719-1.816406-1.03125-1.96875 1.488281-6.117188 2.03125-12.425781 1.613281-18.707031v-185.566407l64.246094-64.246093 10.480469 10.480469c6.066406 6.066406 6.304687 9.445312 1.355468 15.949218-11.53125 13.128906-23.90625 25.492188-37.042968 37.015625-5.519532 5.511719 6.296875 8.199219 10.453125 4.046875 14.265625-12.601562 27.738281-26.078125 40.335937-40.347656 10.242188-13.292969-5.921875-26.207031-17.066406-35.917969 7.566406-6.179687 13.800781-13.828125 18.332031-22.484375zm-492.109375 292.226563c-4.199218-20.574219 0-46.933594 0-67.800781v-302c0-12.441407-4.683594-35.304688 9.386719-42.667969 11.945313-6.273438 44.203125 0 57.171875 0h218.878906c9.167969-1.285157 18.46875-1.285157 27.632813 0 18.3125 6.460937 16.214843 27.367187 15.855469 43.9375h-172.375c-22.886719 0-85.066407-12.160157-103.355469 8.617187-8.011719 9.097656-5.886719 21.335938-5.886719 32.777344v350.234375c-21.828125.589844-42.222656 1.859375-47.308594-23.097656zm385.015625 14.726562-29.277343 29.277344c-2.449219 2.175781-4.769532 4.265625-6.71875 6.238281-2.234376 2.234375-4.476563 4.695313-6.738282 7.21875l-9.542968 9.53125v-41.546875c1.316406-13.023437 7.679687-12.902343 17.511718-12.902343h26.503906c3.210938.238281 6.433594.238281 9.644532 0-.410156.734374-.90625 1.457031-1.382813 2.183593zm3.703125-7.210937h-35.414062c-14.832032 0-31.164063 3.78125-32.921875 21.238281v46.609375c-21.332031 1.945312-44.074219-.179688-65.390625-.179688-54.167969 0-116.054688 8.808594-169.480469 0-27.792969-4.582031-27.828125-25.597656-26.589844-48.59375.582031-.738281.636719-1.765624.136719-2.5625.296875-5.367187.613281-10.8125.613281-16.152343v-332.136719c0-11.355469-3.957031-30.855469 8.6875-38.058594 8.449219-4.8125 35.515625 0 44.535157 0h197.453124c5.199219 0 11.835938-.585937 18.917969-1.203125 1.605469 3.6875 9.601563 2.5625 11.605469-.902343 10.59375-1.300782 21.339844-.585938 31.667969 2.105468 24.746093 9.082032 16.886719 45.304688 16.214843 67.039063l-107.136718 107.101562c-.632813.710938-1.007813 1.613281-1.058594 2.5625l-18.851562 37.222657c-1.199219.691406-1.871094 2.035156-1.707032 3.410156l-3.128906 6.179687c-3.585938 7.089844-15.300781 23.039063-14.140625 33.773438h-135.800781c-5.453125 0-12.800782 8.261719-4.46875 8.261719h146.011718c11.691407 5.777343 32.265626-9.53125 41.421876-14.164063l5.238281-2.648437c2.191406-.25 4.21875-1.277344 5.71875-2.890626l33.390625-16.914062c2.277344-.066406 4.445312-1.007812 6.050781-2.628906l48.347656-48.339844v129.339844c.007813 17.039062 5.335938 46.011718.078125 62.53125zm-132.128906-114.875c-3.125-6.828125 4.136719-19.695313 10.417969-29.945313l19.695312 19.695313-15.285156 7.730468c-6.125 3.089844-11.816406 9.167969-14.828125 2.519532zm41.292969-15.914063-24.570313-24.558593c.144532-.273438.316406-.574219.445313-.855469 4.726562-9.347657 9.457031-18.691407 14.191406-28.039063l38.800781 38.800782zm155.160156-139.761719c-8.253906 7.417969-16.101563 15.269532-23.519531 23.519532l-93.867188 93.867187-40.667968-40.671875c0-.109375-.109376-.230468-.144532-.339844-.058594-.132812-.125-.265624-.195312-.390624 1.671875-2.121094 3.621094-4.011719 5.792968-5.617188 8.25-7.414062 16.101563-15.265625 23.515626-23.515625l93.800781-93.78125 38.808593 38.808594c-.125.898437.191407 1.804687.855469 2.429687l.851563.855469c-1.589844 1.769531-3.34375 3.390625-5.230469 4.835937zm14.507813-13.941406-41.59375-41.609375c3.054687-3.148437 6.085937-6.347656 9.335937-9.257812 10.851563-10.023438 27.714844-9.570313 38.007813 1.023437 10.914062 11.121094 12.007812 28.570313 2.558593 40.960938-2.566406 3.136718-5.351562 6.09375-8.328125 8.847656zm0 0"/><path d="m118.992188 123.484375h238.933593c7.148438 0 9.386719-9.285156 1.039063-9.285156h-238.933594c-7.152344 0-9.421875 9.285156-1.039062 9.285156zm0 0"/><path d="m123.511719 252.816406c-2.6875 0-14.011719 5.121094-8.003907 5.121094h119.46875c2.6875 0 14.003907-5.121094 8.003907-5.121094zm0 0"/><path d="m117.277344 293.65625h119.464844c5.488281 0 12.800781-8.292969 4.472656-8.292969h-119.46875c-5.484375 0-12.800782 8.292969-4.46875 8.292969zm0 0"/><path d="m121.976562 149.707031c-4.335937 0-13.226562 6.539063-4.929687 6.539063h162.132813c4.332031 0 13.226562-6.539063 4.929687-6.539063zm0 0"/><path d="m343.835938 149.664062h-25.601563c-2.414063 0-6.945313.855469-8.183594 3.296876-1.234375 2.4375 1.050781 3.328124 3.269531 3.328124h25.601563c2.414063 0 6.945313-.855468 8.183594-3.296874 1.234375-2.4375-1.050781-3.328126-3.269531-3.328126zm0 0"/><path d="m265.117188 182.542969h-145.066407c-7.085937 0-9.464843 9.132812-1.078125 9.132812h145.066406c7.082032 0 9.464844-9.132812 1.078126-9.132812zm0 0"/><path d="m307.859375 182.84375h-8.535156c-2.558594 0-6.519531 1.980469-6.824219 4.8125-.375 3.164062 3.359375 3.71875 5.632812 3.71875h8.53125c2.558594 0 6.519532-1.976562 6.828126-4.8125.375-3.164062-3.363282-3.71875-5.632813-3.71875zm0 0"/><path d="m265.105469 216.636719h-102.398438c-7.117187 0-9.445312 9.214843-1.058593 9.214843h102.402343c7.113281 0 9.445313-9.214843 1.054688-9.214843zm0 0"/><path d="m119.007812 225.929688h8.535157c3.160156.039062 5.949219-2.070313 6.773437-5.121094.316406-3.269532-3.234375-4.265625-5.769531-4.265625h-8.53125c-3.164063-.042969-5.949219 2.066406-6.777344 5.117187-.316406 3.277344 3.234375 4.269532 5.769531 4.269532zm0 0"/></g></svg>