<svg id="Layer_1" enable-background="new 0 0 91 91" height="512" viewBox="0 0 91 91" width="512" xmlns="http://www.w3.org/2000/svg"><g><path d="m41.8 16.6c3.3-1.1 7.3.9 8.8 4 1.2 2.5.6 5.5-.7 7.9s-3.2 4.4-4.8 6.7c-5 7.2-6.2 17-3 25.2.6 1.7 1.8 3.5 3.6 3.4s2.8-2 3.3-3.6c1.9-5.8 2.3-12.2 5.7-17.3 1.6-2.4 3.7-4.3 5.4-6.6 4.6-6 6-14.4 3.1-21.3-2.8-7-10.3-11.9-17.7-11.2-3.8.4-7.3 2-10.4 4.2-4.2 3-7.8 7.3-8.4 12.5-.5 4.4 7.3 17.8 12.2 10.5 2.9-4.4-5.4-11.6 2.9-14.4z" fill="#b1d6e9"/><path d="m36.4 26.6c-.1.8-.5 1.3-1.2 1.5-.5.2-.9.2-1.4.2-.8-.1-1.4-.4-2-1-1.4-1.6-1.4-4.4-1.1-6.4.7-4.3 4.1-7.8 7.9-9.7 7.6-3.8 17.3-1.3 20.6 6.9 3.3 8.1-3.1 14.6-7.9 20.4-6.2 7.4-9.9 15-8.4 24.8.3 2.1 3 3.2 4.8 2.7 2.3-.6 3-2.7 2.7-4.8-1.6-11.3 8.3-17.6 13.5-26 5.3-8.5 4.6-18.9-2.2-26.4-7-7.7-18.8-8.4-27.6-3.4-8.6 4.9-14.8 17.3-7.7 26.1 3.3 4.1 9.2 4.6 13 .8 1.7-1.7 2.6-4.4 1.6-6.7-.9-2-3-3-5-2.1-1.6.5-1.6 3.1.4 3.1z" fill="#4e7a9f"/><g><g><path d="m46.1 75.1c-4.3-.9-8.4 3-8.2 7.4.1 1.9 1.1 3.5 2.4 4.5.2.5.6.8 1.1 1.1 3.6 1.6 8.1.5 9.9-3.2 1.8-4.1-1-9-5.2-9.8zm-1.2 5.6c1.9.3.9 3-.6 2.3-.3-.1-.6-.2-.9-.3 0-.1 0-.2 0-.3 0-.7.6-1.8 1.5-1.7z" fill="#4e7a9f"/></g></g></g></svg>