<svg id="Layer_1" enable-background="new 0 0 91 91" height="512" viewBox="0 0 91 91" width="512" xmlns="http://www.w3.org/2000/svg"><g fill="#3c6b76"><path d="m26.7 54.7c-1.6 1.5-4.2 1.1-6.3 1-5.4-.2-11.4-.5-15.2 4.1-4.4 5.3-1.5 11.2 3.7 14.5 5.8 3.6 12.8 3.4 19.3 3.3 1.7 0 1.6-2.4 0-2.6-5.2-.7-10.8-1.2-15.4-3.8-1.9-1-4.8-2.7-5.1-5.2-.4-3.2 3.2-5.1 5.8-5.5 4.7-.6 10.4 1.3 14.7-1.1s5-7.6 4.6-12c-.5-6.2-1.1-12.2-.8-18.4.1-3.1.3-6.3.8-9.4.4-2.5 1-6.3 3.8-7.4s2.9 2.8 3.3 4.9c.5 3.1.8 6.3.9 9.5.2 3.3.3 6.6.3 10v5.2c0 3 4.6 3 4.6 0 0-2.1 0-4.3 0-6.4 0-7.3.1-14.6.5-21.9.1-1.9 0-4 .5-5.8.3-1.1.8-1.7 2-2.1 2.7-.9 4.3 1 4.8 3.4 1.1 4.8.3 10.5.2 15.3-.1 5.9-.3 11.7-.5 17.6-.1 2.6 4 3.2 4.5.6 2.1-10 1.6-20.6 4.6-30.3.4-1.3.8-3.2 2.3-3.1 3.8.3 3.8 8.3 3.9 10.8.5 8.8.7 17.6-.1 26.4-.2 2.5 4 3.1 4.5.6 1-5.2 2-10.3 3.2-15.5.3-1.4 1.4-8.2 3.3-8 2.2.3 2.2 6.7 2.3 8.2.3 8.5-.7 17.3-2.1 25.7-1.5 9.2-3.7 19.3-12.1 24.7-4.7 3-10.3 2.9-15.7 2.7-5.2-.2-10.7-1-14.7-4.5-2.2-1.9-5.4 1.3-3.2 3.2 4.1 3.5 8.9 4.9 14.1 5.5 5.6.6 12 .8 17.4-1 10.8-3.7 15.8-14.6 17.8-25.1 2-10.6 3.7-21.9 2.8-32.7-.3-3.4-.7-7.7-3.5-10-3.1-2.5-6.6-.8-8.3 2.3-.3.5-.5 1.1-.8 1.6-.1-3.4-.3-6.9-.8-10.3-.6-3.3-2.1-7.2-5.3-8.7-2.3-1.1-5.4-.6-7.1 1.3-.8.9-1.4 2-1.9 3.2-.4-2.9-1.4-5.8-3.9-7.5-2.8-1.9-6.8-1.6-9.5.3-2.2 1.6-2.9 4.2-3.2 6.8-.9-.9-1.9-1.5-3.3-1.7-5.7-.8-9.1 5.1-10 9.9-1.4 7.1-1.5 14.7-1.1 22 .2 3.6 1 7.4.8 11 .1 1.4-.2 3.2-1.4 4.4z"/><path d="m48.5 60.2c3 2.1 5.4 5 6.8 8.4 1.1 2.6 4.8 1.1 3.6-1.5-1.8-4-4.7-7.3-8.3-9.6-3.2-2-7.7-4-11.5-3-1.1.3-.9 1.7 0 2.1 3.2 1.2 6.4 1.6 9.4 3.6z"/></g></svg>