<svg height="507pt" viewBox="0 -2 507.43471 507" width="507pt" xmlns="http://www.w3.org/2000/svg"><path d="m220.605469 499.375c-1.800781-.007812-3.40625-1.140625-4.007813-2.839844-.605468-1.695312-.074218-3.589844 1.316406-4.730468l25.378907-20.625-21.332031 12.296874c-1.917969 1.085938-4.34375.53125-5.601563-1.273437-1.257813-1.808594-.933594-4.277344.746094-5.699219l28.800781-23.890625-23.945312 13.824219c-1.929688 1.089844-4.371094.523438-5.621094-1.304688-1.25-1.828124-.898438-4.308593.816406-5.710937l24.804688-19.917969-19.984376 11.503906c-1.925781 1.089844-4.367187.523438-5.621093-1.304687-1.25-1.824219-.894531-4.304687.816406-5.710937l30.304687-24.320313-25.507812 14.714844c-1.984375 1.113281-4.496094.476562-5.703125-1.453125-1.210937-1.925782-.695313-4.464844 1.171875-5.769532l50.183594-34.132812-45.652344 26.34375c-1.988281 1.097656-4.492188.445312-5.6875-1.488281-1.199219-1.933594-.671875-4.464844 1.199219-5.757813l104.320312-69.050781-101.308593 58.496094c-1.984376 1.085937-4.472657.429687-5.667969-1.492188-1.195313-1.921875-.679688-4.441406 1.171875-5.746093l83.277344-55.585938-86.128907 49.71875c-1.976562 1.074219-4.449219.425781-5.648437-1.480469-1.199219-1.90625-.707032-4.414062 1.117187-5.730469l74.085938-50.433593-81.722657 47.1875c-2.007812 1.179687-4.589843.527343-5.800781-1.460938-1.210937-1.988281-.605469-4.582031 1.363281-5.824219l13.996094-8.996093-17.664062 10.191406c-2.003906 1.140625-4.550782.480469-5.753906-1.484375-1.199219-1.96875-.621094-4.535156 1.308593-5.796875l11.203125-7.242187-14.753906 8.53125c-1.964844 1.101562-4.445312.488281-5.667969-1.402344-1.222656-1.890625-.765625-4.40625 1.042969-5.746094l60.332031-43.523438-69.632812 40.195313c-1.957031 1.125-4.449219.539063-5.695313-1.347656-1.242187-1.882813-.804687-4.40625 1-5.761719l52.796875-39.570312-62.292969 35.984374c-1.972656 1.070313-4.433593.429688-5.632812-1.460937-1.203125-1.894531-.738281-4.390625 1.066406-5.722656l19.867188-13.832031-24.472656 14.128906c-1.976563 1.140625-4.496094.527344-5.726563-1.390625-1.226563-1.921875-.734375-4.464844 1.125-5.785157l16.828125-11.945312-21.332031 12.304688c-1.941407 1.101562-4.402344.523437-5.648438-1.328126-1.246093-1.847656-.855469-4.34375.894531-5.730468l25.863282-20.171875-32.425782 18.773437c-1.898437 1.085938-4.308593.558594-5.582031-1.214844-1.273437-1.777343-1-4.226562.632813-5.679687l23.894531-21.070313-31.78125 18.347657c-1.921875 1.085937-4.359375.519531-5.609375-1.300781-1.25-1.820313-.90625-4.296876.796875-5.703126l6.949219-5.632812-10.71875 6.1875c-1.847656 1.050781-4.191406.582031-5.492188-1.101562-1.296875-1.683594-1.160156-4.070313.328125-5.589844l10.667969-10.785156-16.273438 9.386718c-1.863281 1.070313-4.230468.59375-5.53125-1.117187-1.296874-1.710938-1.121093-4.121094.410157-5.625l1.570312-1.542969-4.265625 2.4375c-1.675781.960938-3.789062.675781-5.148437-.691406-1.363281-1.371094-1.632813-3.484375-.664063-5.152344l3.21875-5.488281-7.066406 4.078125c-1.6875.980468-3.824219.6875-5.1875-.707032l-9.558594-9.871093c-2.078125.878906-4.480468-.011719-5.484375-2.03125-1.003906-2.023438-.261719-4.476563 1.695313-5.597657l2.414062-1.390624c1.6875-.972657 3.820313-.679688 5.179688.714843l9.574218 9.769531 18.160157-10.476562c1.671875-.992188 3.804687-.707031 5.164062.683594 1.34375 1.363281 1.613281 3.457031.65625 5.117187l-3.21875 5.496094 19.628907-11.339844c1.859374-1.074219 4.230468-.597656 5.527343 1.113281 1.300781 1.710938 1.125 4.121094-.40625 5.628907l-1.570312 1.535156 14.34375-8.277344c1.847656-1.066406 4.199219-.601562 5.507812 1.085938 1.304688 1.6875 1.160157 4.082031-.335937 5.605469l-10.660156 10.777343 30.269531-17.46875c1.925781-1.085937 4.359375-.519531 5.609375 1.300781 1.25 1.820313.90625 4.296876-.796875 5.703126l-6.9375 5.617187 21.871093-12.621094c1.894532-1.066406 4.285157-.535156 5.554688 1.230469 1.265625 1.761719 1.007812 4.199219-.605469 5.65625l-23.894531 21.078125 48.445312-27.964844c1.9375-1.125 4.417969-.554687 5.671876 1.304688 1.257812 1.859375.855468 4.371093-.910157 5.75l-25.882812 20.191406 47.199219-27.246094c1.964843-1.097656 4.449218-.472656 5.664062 1.421875 1.21875 1.898438.75 4.414063-1.066406 5.746094l-16.835938 11.945312 33.117188-19.113281c1.972656-1.070312 4.433594-.429687 5.632812 1.460938 1.203125 1.894531.738282 4.394531-1.066406 5.722656l-19.832031 13.867187 36.359375-20.984374c1.957031-1.125 4.449218-.539063 5.695312 1.347656 1.242188 1.882812.804688 4.40625-1 5.761718l-52.839844 39.59375 80.921876-46.703124c1.960937-1.066407 4.410156-.445313 5.625 1.429687 1.210937 1.871094.777343 4.363281-1 5.714844l-60.304688 43.519531 87.722656-50.636719c1.996094-1.082031 4.492188-.414062 5.675782 1.523438 1.183593 1.9375.644531 4.464843-1.230469 5.746093l-11.210938 7.261719 25.171875-14.507812c2-1.097657 4.511719-.429688 5.699219 1.519531s.632813 4.488281-1.261719 5.761719l-13.917968 8.960937 28.160156-16.214844c1.980468-1.101562 4.476562-.460937 5.683594 1.457032 1.207031 1.917968.707031 4.445312-1.144532 5.753906l-74.164062 50.390625 99.839844-57.660156c1.992187-1.117188 4.503906-.46875 5.710937 1.464843 1.203125 1.9375.675781 4.476563-1.203125 5.769532l-83.242188 55.542968 108.839844-62.820312c1.992188-1.097656 4.492188-.445312 5.691406 1.488281 1.195313 1.929688.667969 4.460938-1.203124 5.753907l-104.335938 69.035156 24.40625-14.078125c1.976562-1.074219 4.453125-.429688 5.648438 1.476562 1.199218 1.90625.710937 4.417969-1.117188 5.734375l-72.277344 49.183594c1.277344.667969 2.132813 1.933594 2.273438 3.367188.140625 1.433593-.453125 2.839843-1.574219 3.742187l-30.257813 24.3125 19.488282-11.246094c1.933594-1.117187 4.398437-.558593 5.660156 1.28125 1.257812 1.84375.886719 4.34375-.855469 5.742188l-24.804687 19.976562 20.007812-11.546875c1.917969-1.085937 4.34375-.53125 5.601563 1.273438 1.257812 1.808594.9375 4.277344-.746094 5.699218l-28.796875 23.890626 23.941406-13.824219c1.925782-1.078125 4.351563-.515625 5.605469 1.300781 1.25 1.816406.910156 4.285156-.78125 5.699219l-25.371094 20.617187 20.285157-11.710937c1.320312-.839844 3-.886719 4.367187-.125 1.367187.765625 2.207031 2.21875 2.1875 3.785156-.023437 1.566406-.902344 2.996094-2.289063 3.722656l-66.738281 38.542969c-.652343.363281-1.390625.546875-2.132812.53125zm0 0" fill="#5e9cea"/><path d="m260.15625 283.039062c-1.890625.003907-3.558594-1.238281-4.097656-3.050781-.542969-1.808593.175781-3.761719 1.757812-4.792969l14.003906-9.148437-28.339843 16.367187c-1.996094 1.1875-4.574219.558594-5.800781-1.414062-1.226563-1.972656-.652344-4.5625 1.296874-5.832031l28.246094-18.769531-44.785156 25.835937c-1.96875 1.144531-4.488281.539063-5.722656-1.375-1.234375-1.910156-.753906-4.457031 1.097656-5.785156l60.179688-43.226563-86.136719 49.722656c-1.992188 1.152344-4.542969.519532-5.761719-1.433593s-.664062-4.523438 1.246094-5.804688l35.660156-24.003906-52.90625 30.550781c-1.988281 1.113282-4.5.46875-5.707031-1.46875-1.207031-1.933594-.675781-4.476562 1.203125-5.769531l32.109375-21.554687-48.355469 27.84375c-1.964844 1.101562-4.449219.488281-5.671875-1.402344s-.765625-4.40625 1.046875-5.746094l57.367188-41.300781-81.066407 46.785156c-1.976562 1.121094-4.480469.5-5.703125-1.414063-1.21875-1.914062-.726562-4.449218 1.121094-5.769531l48.539062-34.132812-68.269531 39.398437c-1.988281 1.097656-4.492187.445313-5.6875-1.488281-1.199219-1.933594-.667969-4.464844 1.199219-5.757813l13.707031-9.054687-25.6875 14.832031c-1.996093 1.1875-4.574219.558594-5.800781-1.414062s-.652344-4.5625 1.296875-5.828125l19.078125-12.726563-31.09375 18.03125c-1.96875 1.144532-4.488281.539063-5.722656-1.375-1.238282-1.910156-.753906-4.457031 1.097656-5.78125l47.402344-34.136718-65.503906 37.855468c-1.976563 1.117188-4.484376.488282-5.703126-1.433594-1.214843-1.921874-.710937-4.457031 1.148438-5.769531l30.402344-21.023437-42.519532 24.53125c-1.976562 1.089844-4.460937.449218-5.667968-1.457032-1.203125-1.910156-.714844-4.425781 1.121094-5.746093l22.78125-15.683594-30.992188 17.921875c-1.984375 1.113281-4.496094.476562-5.703125-1.453125-1.210937-1.925781-.695313-4.464844 1.171875-5.765625l8.722656-5.925781-7.109375 4.074219c-1.964843 1.144531-4.484375.546874-5.726562-1.359376-1.242188-1.90625-.769531-4.453124 1.074219-5.785156l21.121093-15.359375-16.46875 9.472657c-1.890625 1.046874-4.265625.511718-5.527343-1.242188-1.265626-1.753906-1.015626-4.175781.578124-5.636719l24.40625-21.640625-19.457031 11.222656c-1.890625 1.046876-4.265625.511719-5.527343-1.242187-1.265626-1.753906-1.015626-4.175781.578124-5.636719l5.316407-4.746094-.34375.1875c-1.453125.839844-3.261719.75-4.625-.230468-1.363281-.980469-2.023438-2.671875-1.6875-4.316406l2.738281-13.507813c-1.550781-.5625-2.636719-1.972656-2.789062-3.613281-.152344-1.640625.652343-3.226563 2.074218-4.066406l4.265625-2.464844c1.453125-.847656 3.269531-.757813 4.636719.222656 1.363281.984375 2.023438 2.675781 1.6875 4.324219l-2.375 11.554687 27.929688-16.113281c1.875-.992187 4.199218-.457031 5.449218 1.257813 1.25 1.714843 1.046875 4.089843-.472656 5.570312l-5.332031 4.769531 20.179687-11.648437c1.894532-1.078125 4.292969-.554688 5.570313 1.210937 1.273437 1.765625 1.015625 4.210938-.605469 5.667969l-24.421875 21.65625 49.453125-28.550781c1.964844-1.148438 4.484375-.550781 5.722656 1.355469 1.242188 1.90625.769532 4.453124-1.074218 5.785156l-21.136719 15.402344 39.066406-22.550782c1.992187-1.179687 4.558594-.558594 5.789063 1.402344 1.230468 1.960938.671874 4.546875-1.257813 5.824219l-8.671875 5.878906 22.726562-13.117187c1.984376-1.132813 4.507813-.503907 5.726563 1.429687s.699219 4.480469-1.179687 5.78125l-22.757813 15.667969 39.644531-22.894532c1.984375-1.152343 4.523438-.535156 5.75 1.402344 1.230469 1.9375.707032 4.5-1.183594 5.800782l-30.4375 21.058593 48.980469-28.269531c1.96875-1.140625 4.488281-.535156 5.722657 1.375 1.238281 1.914062.753906 4.457031-1.097657 5.785156l-47.375 34.082032 71.464844-41.257813c1.992187-1.136719 4.527344-.492187 5.734375 1.457031 1.210938 1.949219.664062 4.503906-1.238281 5.785156l-19.054688 12.714844 34.578125-19.96875c1.996094-1.15625 4.554688-.515625 5.769532 1.449219 1.214843 1.960937.644531 4.535156-1.28125 5.804687l-13.78125 9.097657 28.347656-16.359375c1.976562-1.121094 4.480468-.496094 5.703125 1.417968 1.222656 1.914063.726562 4.449219-1.121094 5.769532l-48.460937 34.0625 71.484374-41.265625c1.96875-1.144531 4.488282-.535157 5.722657 1.375 1.238281 1.914062.753906 4.457031-1.097657 5.785156l-57.371093 41.300781 83.960937-48.480468c1.992188-1.152344 4.539063-.519532 5.757813 1.433593s.667969 4.523438-1.242188 5.804688l-32.121093 21.539062 49.867187-28.785156c1.992187-1.152344 4.542969-.519531 5.761719 1.433594s.667968 4.523437-1.246094 5.804687l-35.609375 24.019532 54.179687-31.273438c1.96875-1.140625 4.488282-.535156 5.722657 1.375 1.234375 1.914062.75 4.457031-1.097657 5.785156l-60.160156 43.210938 87.292969-50.347656c1.996094-1.132813 4.527344-.488282 5.738281 1.460937 1.207032 1.949219.660156 4.503906-1.238281 5.785156l-28.238281 18.773438 45.089844-26.027344c2.003906-1.164063 4.570312-.515625 5.78125 1.457031 1.210937 1.976563.628906 4.554688-1.316407 5.8125l-14.089843 9.132813 28.5-16.460938c2-1.1875 4.578124-.558593 5.804687 1.414063s.648437 4.5625-1.296875 5.832031l-28.816406 19.179687 45.769531-26.425781c1.96875-1.144531 4.484375-.550781 5.726563 1.355469 1.242187 1.910156.769531 4.453125-1.074219 5.785156l-62.234375 45.347656 90.949218-52.515624c2.003907-1.199219 4.597657-.566407 5.824219 1.421874 1.226563 1.988282.625 4.589844-1.34375 5.839844l-15.746093 10.351563 30.507812-17.621094c1.964844-1.128906 4.472656-.519531 5.703125 1.382813 1.234375 1.902343.765625 4.433593-1.070313 5.769531l-57.488281 41.523437 57.609375-33.28125c1.941406-1.074218 4.382813-.476562 5.613282 1.367188 1.230468 1.84375.839843 4.328125-.894532 5.707031l-42.972656 32.949219 38.261719-22.085938c1.964843-1.117187 4.457031-.511718 5.6875 1.382813s.773437 4.417969-1.046875 5.757812l-6.421875 4.652344 1.796875-1.03125c1.882812-1.0625 4.257812-.554687 5.539062 1.1875 1.277344 1.738281 1.054688 4.160156-.519531 5.636719l-12.917969 11.949218 7.910156-4.566406c2.039063-1.160156 4.628907-.457031 5.800782 1.574219 1.175781 2.03125.488281 4.628906-1.535156 5.816406l-41.183594 23.765625c-1.878906 1.0625-4.257813.550782-5.535156-1.1875-1.277344-1.742187-1.054688-4.164062.519531-5.640625l12.925781-11.945312-39.59375 22.84375c-1.960938 1.089843-4.433594.476562-5.652344-1.40625-1.222656-1.882813-.777344-4.390625 1.019532-5.738281l6.417968-4.65625-23.859375 13.78125c-1.941406 1.070312-4.382812.476562-5.613281-1.367188-1.230469-1.847656-.84375-4.328125.894531-5.707031l42.972657-32.949219-73.507813 42.4375c-1.964844 1.128906-4.46875.519531-5.703125-1.382812-1.230469-1.902344-.761719-4.433594 1.070312-5.769532l57.472657-41.496094-86.945313 50.21875c-2.003906 1.199219-4.597656.566407-5.824218-1.421874-1.226563-1.988282-.625-4.589844 1.34375-5.839844l15.8125-10.351563-31.574219 18.242188c-1.964844 1.148437-4.484375.550781-5.726563-1.355469-1.238281-1.90625-.765625-4.453125 1.078125-5.785156l62.242188-45.347656-92.09375 53.164062c-1.996094 1.1875-4.574219.558594-5.800781-1.414062-1.226563-1.972657-.652344-4.566407 1.296874-5.832032l28.765626-19.207031-46.082032 26.632813c-.640625.359374-1.363281.546874-2.097656.546874zm0 0" fill="#4a88da"/><path d="m252.101562 214.804688c-1.746093.003906-3.316406-1.054688-3.96875-2.671876-.652343-1.617187-.253906-3.46875 1.007813-4.675781l24.617187-23.738281-52.128906 30.105469c-1.867187 1.105469-4.269531.636719-5.578125-1.09375-1.3125-1.730469-1.113281-4.167969.457031-5.664063l24.277344-23.554687-51.414062 29.679687c-1.867188 1.109375-4.265625.636719-5.578125-1.09375-1.308594-1.730468-1.113281-4.167968.457031-5.664062l23.621094-22.878906-49.320313 28.484374c-1.882812 1.09375-4.285156.59375-5.578125-1.15625-1.292968-1.75-1.058594-4.195312.542969-5.667968l21.441406-19.824219-43.773437 25.265625c-1.90625 1.097656-4.328125.566406-5.601563-1.222656-1.273437-1.792969-.980469-4.253906.675781-5.695313l17.179688-14.804687-35.046875 20.230468c-1.894531 1.035157-4.257813.492188-5.515625-1.257812-1.253906-1.753906-1.003906-4.167969.582031-5.628906l17.144531-15.273438-34.988281 20.179688c-1.835937 1.0625-4.175781.613281-5.488281-1.054688-1.3125-1.667968-1.195312-4.046875.265625-5.582031l17.171875-17.996094-37.546875 21.707031c-1.835937 1.046876-4.160156.597657-5.46875-1.0625-1.308594-1.660156-1.203125-4.03125.246094-5.566406l12.183593-12.800781-27.9375 16.128906c-1.71875.988281-3.898437.664063-5.25-.789062-1.355468-1.457031-1.527343-3.652344-.414062-5.296875l7.933594-11.742188-22.183594 12.800782c-1.527344.886718-3.441406.738281-4.816406-.367188s-1.925782-2.945312-1.390625-4.625l1.65625-5.121094-5.878907 3.414063c-2.027343 1.058593-4.527343.335937-5.671874-1.644531-1.144532-1.980469-.523438-4.511719 1.40625-5.738282l15.480468-8.957031c1.523438-.878906 3.433594-.730469 4.804688.375s1.921875 2.9375 1.386718 4.617187l-1.644531 5.117188 28.671875-16.554688c1.71875-.988281 3.898438-.664062 5.25.789063 1.355469 1.457031 1.527344 3.648437.414063 5.296875l-7.933594 11.75 37.546875-21.675781c1.835938-1.046875 4.160156-.59375 5.46875 1.066406s1.203125 4.027344-.246094 5.566406l-12.1875 12.796875 37.777344-21.808594c1.839844-1.078124 4.191406-.628906 5.507812 1.046876 1.316407 1.675781 1.195313 4.066406-.285156 5.601562l-17.210937 17.988281 44.945312-25.960937c1.894531-1.09375 4.308594-.578125 5.589844 1.195312 1.28125 1.773438 1.015625 4.226563-.617187 5.683594l-17.117188 15.28125 38.402344-22.183594c1.90625-1.101562 4.335937-.566406 5.609375 1.226563 1.273437 1.796875.972656 4.265625-.695313 5.703125l-17.179687 14.804687 37.652343-21.734375c1.878907-1.09375 4.285157-.59375 5.574219 1.15625 1.292969 1.75 1.058594 4.195313-.542969 5.667969l-21.433593 19.816406 46.140625-26.640625c1.867187-1.109375 4.265625-.636718 5.574218 1.09375 1.3125 1.726563 1.117188 4.167969-.457031 5.664063l-23.617187 22.894531 51.351562-29.652344c1.867188-1.109375 4.265625-.636718 5.578125 1.09375 1.308594 1.726563 1.113281 4.167969-.457031 5.664063l-24.277344 23.542969 52.480469-30.300782c1.867187-1.125 4.285156-.660156 5.601563 1.078125 1.316406 1.742188 1.109374 4.195313-.484376 5.6875l-24.675781 23.765625 52.847657-30.507812c1.949218-1.117188 4.433593-.527344 5.675781 1.347656 1.242187 1.875.816406 4.390625-.976563 5.753906l-7.679687 5.777344 22.316406-12.878906c1.9375-1.09375 4.386719-.515625 5.632813 1.328125 1.246093 1.84375.867187 4.332031-.871094 5.722656l-13.289063 10.417969 29.125-16.820313c1.871094-1.125 4.289063-.65625 5.605469 1.082031 1.316406 1.738282 1.105469 4.191407-.484375 5.6875l-22.546875 21.648438 45.902344-26.496094c1.945312-1.101562 4.414062-.515625 5.652344 1.347656 1.238281 1.859376.832031 4.363282-.933594 5.734376l-4.367188 3.335937 15.664063-9.035156c1.847656-1.054688 4.1875-.585938 5.488281 1.09375 1.300781 1.679687 1.164062 4.0625-.316406 5.585937l-17.6875 17.980469 37.921875-21.929687c1.917969-1.074219 4.34375-.515626 5.59375 1.296874 1.25 1.808594.917969 4.273438-.765625 5.691407l-3.609375 2.96875 13.652343-7.867188c1.816407-1.046875 4.121094-.625 5.445313 1.003907 1.320313 1.625 1.269531 3.96875-.128906 5.53125l-10.238281 11.453124 24.644531-14.226562c1.632812-.96875 3.710937-.738281 5.097656.5625 1.382813 1.300781 1.742187 3.363281.875 5.054688l-4.90625 9.691406 16.519531-9.539063c2.039063-1.160156 4.632813-.457031 5.804688 1.574219s.484375 4.628906-1.539063 5.816406l-28.96875 16.742188c-1.636719.972656-3.71875.746094-5.105469-.558594-1.386718-1.308594-1.742187-3.375-.867187-5.066406l4.914063-9.683594-35.199219 20.316406c-1.816407 1.046875-4.121094.625-5.445313-1-1.320312-1.628906-1.265625-3.972656.128906-5.535156l10.238282-11.453125-36.085938 20.839844c-1.925781 1.097656-4.371094.542969-5.628906-1.28125s-.910156-4.308594.796875-5.714844l3.628906-2.960937-19.628906 11.332031c-1.847656 1.066406-4.199219.601562-5.503906-1.089844-1.308594-1.6875-1.164063-4.082031.335937-5.601563l17.664063-17.980468-45.75 26.410156c-1.945313 1.125-4.433594.546875-5.679688-1.324219-1.25-1.871093-.832031-4.390625.953125-5.757812l4.351563-3.328125-19.15625 11.042968c-1.871094 1.125-4.285157.660157-5.601563-1.082031-1.320312-1.738281-1.109375-4.191406.480469-5.683593l22.5625-21.640626-50.753906 29.292969c-1.9375 1.09375-4.390625.515625-5.636719-1.324219-1.246094-1.84375-.863281-4.335937.875-5.722656l13.269531-10.410156-30.628906 17.6875c-1.949219 1.09375-4.414063.496094-5.648437-1.367188-1.230469-1.867187-.816407-4.367187.957031-5.730468l7.679687-5.789063-22.613281 13.050781c-.648437.378907-1.382813.578126-2.132813.578126zm0 0" fill="#5e9cea"/><path d="m248.03125 214.753906c-1.875 0-3.527344-1.21875-4.078125-3.007812-.554687-1.789063.125-3.726563 1.671875-4.78125l24.308594-16.632813-40.804688 23.550781c-1.996094 1.097657-4.5.4375-5.695312-1.503906-1.191406-1.9375-.648438-4.472656 1.230468-5.757812l9.175782-5.972656-22.589844 13.03125c-2.007812 1.230468-4.636719.597656-5.867188-1.414063-1.226562-2.007813-.597656-4.636719 1.414063-5.867187l10.050781-6.476563-23.335937 13.449219c-2.003907 1.199218-4.597657.566406-5.824219-1.417969-1.226562-1.988281-.628906-4.589844 1.34375-5.84375l52.105469-34.3125-70.691407 40.804687c-1.988281 1.136719-4.515624.496094-5.730468-1.441406-1.214844-1.941406-.679688-4.492187 1.207031-5.785156l97.28125-65.832031-118.027344 68.136719c-2 1.140624-4.546875.484374-5.75-1.484376s-.625-4.53125 1.304688-5.792968l79.214843-51.203125-74.769531 43.144531c-2.007812 1.148438-4.566406.488281-5.765625-1.492188-1.199218-1.980468-.601562-4.554687 1.347656-5.800781l59.871094-38.238281-55.46875 32.007812c-1.996094 1.136719-4.535156.484376-5.742187-1.472656-1.203125-1.957031-.644531-4.515625 1.269531-5.789062l98.578125-64.8125-94.089844 54.351562c-1.996093 1.132813-4.535156.484375-5.738281-1.472656-1.207031-1.957031-.644531-4.519531 1.269531-5.789062l92.371094-60.535157-87.890625 50.746094c-2.011719 1.125-4.550781.453125-5.742188-1.519531-1.1875-1.972656-.597656-4.535156 1.335938-5.785156l27.488281-17.355469-23.039062 13.328125c-1.992188 1.113281-4.503907.46875-5.710938-1.46875-1.203125-1.933594-.675781-4.476563 1.203125-5.769532l52.8125-34.3125-48.359375 27.878907c-1.988281 1.117187-4.5.46875-5.707031-1.464844-1.203125-1.9375-.675781-4.476563 1.203125-5.769531l56.082031-37.53125-51.578125 29.757812c-1.96875 1.066406-4.429687.425782-5.632812-1.464844-1.203125-1.890624-.734375-4.390624 1.070312-5.722656l52.09375-36.222656-47.53125 27.441406c-1.941406 1.09375-4.398437.507813-5.636719-1.347656-1.242187-1.851562-.84375-4.347656.910157-5.726562l50.195312-38.542969-45.476562 26.214843c-1.957031 1.136719-4.464844.550782-5.707031-1.34375-1.246094-1.890624-.796876-4.425781 1.023437-5.773437l20.054687-14.917969-15.371093 8.875c-1.851563 1.03125-4.179688.542969-5.464844-1.140625-1.285156-1.6875-1.136719-4.058593.347656-5.574219l22.535157-22.398437-17.417969 10.042969c-1.699219.992187-3.855469.691406-5.222657-.726563-1.367187-1.417969-1.582031-3.585937-.527343-5.246093l7.535156-12.050782c-2.074219.667969-4.320313-.332031-5.207031-2.324218-.886719-1.988282-.132813-4.328126 1.75-5.421876l13.917968-8.015624c1.699219-.992188 3.859376-.691407 5.222657.726562 1.367187 1.417969 1.585937 3.585938.527343 5.246094l-7.429687 11.898437 31.042969-17.921875c1.851562-1.027344 4.179687-.542968 5.464844 1.144532 1.285156 1.683593 1.140624 4.058593-.34375 5.570312l-22.519532 22.359375 50.40625-29.074219c1.957032-1.136718 4.464844-.550781 5.710938 1.34375 1.242187 1.890625.792968 4.425782-1.027344 5.773438l-20.035156 14.882812 38.195312-22c1.945313-1.117187 4.421875-.535156 5.667969 1.328125 1.25 1.863281.839844 4.375-.933594 5.746094l-50.234375 38.519531 79.019532-45.59375c1.96875-1.066406 4.429687-.429687 5.632812 1.464844 1.203125 1.890625.734375 4.390625-1.070312 5.722656l-52.101563 36.230469 75.253906-43.417969c1.984375-1.070312 4.457031-.417968 5.648438 1.496094 1.195312 1.914062.691406 4.425781-1.144531 5.730469l-56.105469 37.546875 77.601562-44.773438c1.992188-1.070312 4.472657-.398437 5.65625 1.527344 1.183594 1.929688.65625 4.445312-1.199219 5.734375l-52.832031 34.3125 69.511719-40.113281c2.011719-1.128906 4.550781-.453125 5.742188 1.519531 1.1875 1.972656.597656 4.53125-1.335938 5.785156l-27.445312 17.3125 31.574218-18.226562c1.992188-1.117188 4.511719-.460938 5.710938 1.480469 1.203125 1.945312.660156 4.488281-1.230469 5.773437l-92.40625 60.585937 90.664063-52.378906c2-1.136718 4.539062-.484375 5.742187 1.472656 1.207031 1.957032.644531 4.515626-1.269531 5.789063l-98.570313 64.804687 94.125-54.332031c2.007813-1.148437 4.566407-.488281 5.765625 1.492188 1.199219 1.980469.601563 4.554687-1.347656 5.804687l-59.886719 38.21875 55.46875-32.027344c2.003907-1.136718 4.550781-.480468 5.75 1.484376 1.203125 1.96875.625 4.535156-1.304687 5.796874l-79.273438 51.257813 74.851563-43.210937c1.988281-1.132813 4.515625-.496094 5.730469 1.441406 1.214843 1.941406.679687 4.492187-1.207032 5.785156l-97.28125 65.820312 92.742188-53.546874c2.003906-1.242188 4.636718-.621094 5.875 1.386718 1.238281 2.003906.617187 4.632813-1.386719 5.875l-52.054687 34.269532 47.574218-27.460938c2-1.117188 4.523438-.457031 5.71875 1.496094 1.195313 1.953125.640625 4.5-1.265625 5.773437l-10.238281 6.621094 5.820312-3.359375c2.007813-1.238281 4.636719-.609375 5.871094 1.398438 1.234375 2.007812.605469 4.636718-1.398437 5.871093l-8.996094 5.914063 4.574219-2.648438c1.992187-1.214844 4.589844-.605468 5.832031 1.367188 1.246094 1.976562.671875 4.582031-1.285156 5.855468l-24.320313 16.628907 19.789063-11.417969c1.960937-1.082031 4.421875-.46875 5.640625 1.410156 1.222656 1.875.785156 4.375-.996094 5.726563l-26.128906 18.917969 21.511718-12.417969c1.921876-1.113281 4.378907-.5625 5.644532 1.261719 1.265625 1.824218.917968 4.316406-.796875 5.726562l-24.707031 20.292969 19.875-11.449219c1.878906-1.007812 4.207031-.476562 5.464843 1.242188 1.253907 1.71875 1.050781 4.101562-.480469 5.582031l-10.367187 9.386719 5.402344-3.113282c1.84375-1.066406 4.195312-.605468 5.503906 1.082032 1.304687 1.683593 1.167969 4.074218-.324219 5.597656l-2.664062 2.707031c1.855468.160156 3.390625 1.507813 3.796875 3.324219.402343 1.816406-.417969 3.6875-2.03125 4.621094l-22.636719 13.0625c-1.847656 1.066406-4.199219.605468-5.503906-1.082032-1.308594-1.683594-1.167969-4.074218.324218-5.597656l.640626-.648438-13.730469 7.925782c-1.894531 1.089844-4.304688.578125-5.585938-1.191406-1.28125-1.765626-1.023437-4.21875.601563-5.679688l10.375-9.300781-29.261719 16.890625c-1.921875 1.117187-4.386719.566406-5.652344-1.261719-1.265625-1.832031-.910156-4.332031.816407-5.738281l24.675781-20.28125-47.742188 27.570312c-1.964843 1.117188-4.457031.507813-5.6875-1.382812-1.230469-1.894532-.773437-4.417969 1.046875-5.761719l26.136719-18.960937-45.414063 26.234374c-.652343.359376-1.390624.539063-2.132812.527344zm0 0" fill="#cad0d7"/><path d="m162.5 146.8125c-1.863281.003906-3.511719-1.199219-4.078125-2.976562-.5625-1.773438.089844-3.710938 1.613281-4.78125l19.214844-13.578126-34.074219 19.628907c-1.972656 1.15625-4.507812.554687-5.746093-1.371094-1.238282-1.921875-.738282-4.480469 1.132812-5.796875l22.066406-15.753906-17.453125 10.121094c-1.957031 1.121093-4.449219.523437-5.6875-1.363282-1.238281-1.890625-.789062-4.414062 1.023438-5.761718l11.945312-8.789063-7.269531 4.1875c-1.921875 1.109375-4.371094.5625-5.636719-1.257813-1.265625-1.820312-.925781-4.304687.78125-5.71875l12.261719-10.164062-7.40625 4.265625c-1.785156 1.015625-4.035156.617187-5.363281-.945313-1.328125-1.566406-1.355469-3.851562-.066407-5.445312l9.386719-11.445312-3.925781 2.269531c-1.515625.875-3.414062.734375-4.785156-.355469s-1.9375-2.90625-1.425782-4.582031l1.996094-6.503907c-1.335937-.75-2.167968-2.160156-2.179687-3.691406-.011719-1.535156.800781-2.957031 2.128906-3.722656l4.265625-2.46875c1.519531-.878906 3.421875-.742188 4.796875.351562 1.375 1.089844 1.941406 2.914063 1.425781 4.589844l-1.101562 3.566406 14.78125-8.53125c1.78125-1.027343 4.042968-.632812 5.375.933594 1.332031 1.566406 1.355468 3.859375.058594 5.457032l-9.386719 11.453124 30.960937-17.871093c1.917969-1.101563 4.359375-.554688 5.625 1.257812 1.265625 1.816407.933594 4.296875-.761718 5.714844l-12.296876 10.195313 29.773438-17.175782c1.957031-1.121094 4.453125-.523437 5.6875 1.363282 1.238281 1.890624.789062 4.414062-1.019531 5.761718l-11.949219 8.816406 27.648438-15.957031c1.972656-1.160156 4.507812-.554687 5.746093 1.367188 1.242188 1.925781.742188 4.480469-1.128906 5.800781l-22.058594 15.75 39.742188-22.945312c1.976562-1.15625 4.511719-.542969 5.746093 1.386718 1.234376 1.929688.722657 4.488282-1.15625 5.796875l-19.261718 13.535157 35.933594-20.742188c1.980468-1.121094 4.488281-.488281 5.703124 1.433594 1.21875 1.917968.714844 4.457031-1.144531 5.765625l-11.664062 8.054687 26.453125-15.28125c1.925781-1.105468 4.378906-.546875 5.636718 1.28125 1.257813 1.832032.902344 4.320313-.816406 5.722656l-41.976562 34.007813 71.101562-41.054687c1.941406-1.09375 4.398438-.507813 5.640625 1.347656 1.238281 1.855468.839844 4.347656-.914062 5.726562l-37.136719 28.5 61.679688-35.609375c1.980468-1.152343 4.519531-.53125 5.75 1.40625 1.226562 1.933594.703124 4.496094-1.1875 5.796875l-11.414063 7.875 8.183594-4.71875c1.929687-1.082031 4.367187-.503906 5.613281 1.324219 1.242188 1.832031.878906 4.3125-.835938 5.707031l-27.308593 21.652344 22.570312-13.039062c1.839844-1.078126 4.183594-.632813 5.503907 1.035156 1.320312 1.667968 1.207031 4.054687-.261719 5.59375l-19.679688 20.785156 14.507813-8.371094c1.597656-.914062 3.601562-.703125 4.972656.527344 1.371094 1.226562 1.796875 3.199219 1.058594 4.882812l-4.921875 11.265626c2.066406-.550782 4.21875.507812 5.042969 2.480468.820312 1.972656.054687 4.25-1.792969 5.328125l-10.1875 5.886719c-1.597657.917969-3.601563.707031-4.972657-.523438-1.371093-1.230468-1.796874-3.199218-1.0625-4.886718l4.867188-11.042969-28.570312 16.488281c-1.832032 1.046875-4.15625.597656-5.46875-1.058594-1.308594-1.65625-1.207032-4.023437.238281-5.5625l19.675781-20.761718-47.5625 27.449218c-1.933594 1.082032-4.371094.507813-5.617188-1.324218-1.242187-1.828125-.878906-4.308594.835938-5.707032l27.308594-21.628906-49.722656 28.652344c-1.980469 1.117188-4.488282.488281-5.707032-1.433594-1.214844-1.921875-.710937-4.457031 1.148438-5.769531l11.410156-7.875-26.164062 15.105469c-1.945313 1.09375-4.402344.503906-5.640626-1.347656-1.238281-1.855469-.839843-4.351563.914063-5.726563l37.136719-28.503906-61.679688 35.613281c-1.925781 1.101562-4.378906.542969-5.636718-1.285156-1.257813-1.828125-.90625-4.316406.816406-5.722656l41.972656-34.003907-71.097656 41.050781c-1.980469 1.121094-4.488282.488282-5.703125-1.433593-1.214844-1.917969-.710938-4.457031 1.144531-5.765625l11.726562-8.097656-26.53125 15.359374c-.648437.367188-1.386718.558594-2.132812.554688zm0 0" fill="#a9b0bb"/><g fill="#262626"><path d="m503.65625 180.570312c-.992188-1.050781-2.1875-2.210937-3.832031-3.679687-8.015625-7.117187-27.257813-7.160156-37.496094-8.738281-30.242187-4.683594-60.910156-6.585938-91.445313-8.320313v-17.585937c0-.050782.042969-.09375.042969-.144532v-68.265624c-.035156-.292969-.109375-.582032-.222656-.855469 0-.117188.128906-.222657.128906-.339844 0-24.824219 10.019531-63.445313-21.179687-69.488281-34.074219-6.605469-75.679688 0-110.328125 0-25.597657 0-59.679688-6.5-84.410157 1.707031-27.484374 9.054687-18.679687 46.132813-18.339843 69.691406 0 .058594-.058594.113281-.058594.171875v68.265625.152344 17.007813c-28.160156 1.453124-111.90625 6.671874-130.867187 21.375-2.902344.582031-5.648438 2.203124-5.648438 4.355468v68.027344c0 .167969.109375.273438.136719.425781-.1093752.25-.1445315.53125-.1015628.800781 4.0703128 13.023438 34.5859378 16.332032 54.6562498 17.792969l125.78125 94.472657c18.710938 14.0625 31.785156 24.703124 32.9375 50.347656 1.09375 24.429687-8.285156 62.292968 4.378906 83.734375.734376 1.238281 2.320313 1.1875 3.589844 1.164062 21.085938-.445312 49.195313-17.621093 63.257813-32.078125 24.210937-24.882812-3.566407-64.324218 22.914062-91.101562 40.644531-41.105469 96.683594-73.113282 143.359375-107.785156 1.945313-.289063 3.90625-.511719 5.855469-.851563 10.296875-1.605469 38.902344-3.175781 48.109375-14.105469 1.5-.75 2.476562-2.253906 2.558594-3.925781v-67.96875c.011718-2.175781-1.617188-4.011719-3.777344-4.257813zm-36.507812-4.898437c3.667968.757813 24.328124 3.496094 25.335937 7.746094 2.636719 11.171875-31.710937 13.570312-37.929687 14.507812-27.613282 4.027344-55.585938 6.511719-83.628907 8.046875v-40.386718c32.28125.960937 64.445313 4.332031 96.222657 10.085937zm-225.722657 32.425781c-30.585937-.203125-61.527343-.503906-92.40625-1.902344v-42.871093c0-5.292969-.460937-10.839844-.128906-16.144531h208.519531c.65625.21875 1.1875.375 1.570313.46875.363281 5.621093.175781 11.265624-.554688 16.851562v42.042969c-39.082031 1.75-78.300781 1.835937-117 1.570312zm-94.371093-69.664062h-.65625c-.453126-.171875-.949219-.324219-1.355469-.523438.625.316406 1.3125.492188 2.011719.523438zm209.921874-61.28125c1.902344.378906 3.757813.96875 5.527344 1.757812-7.816406-3.753906-4.0625 9.925782-4.0625 21.488282v37.546874h-149.886718c-2.636719 0-5.914063.214844-9.574219.519532h-51.363281c4.15625-.679688 1.441406-12.082032 1.441406-22.007813.332031-12.300781-.105469-24.613281-1.304688-36.863281 2.925782-.058594 7.554688-.851562 11.027344-.648438 13.550781.777344 27.441406 0 41.007812 0h99.097657c5.769531 0 14.003906-.929687 22.804687-1.757812zm-208.011718-42.460938c3.960937-30.632812 16.265625-25.804687 42.589844-25.804687h89.011718c16.941406 0 45.101563-5.570313 61.269532 0 22.503906 7.757812 17.921874 39.363281 16.828124 60.757812h-211.464843c-.238281-6.289062 1.222656-30.660156 1.765625-34.953125zm-124.746094 143.121094c11.902344-8.8125 43.476562-7.226562 57.128906-8.601562 18.363282-1.851563 36.777344-2.96875 55.203125-4.019532v40.363282c-28.855469-1.429688-57.609375-4.433594-86.136719-8.992188-13.898437-2.304688-47.035156-3.304688-26.195312-18.75zm285.566406 191.871094c-16.757812 12.65625-26.972656 22.761718-28.109375 45.332031-.921875 18.097656 5.230469 40.632813-7.96875 55.464844-5.828125 6.570312-30.121093 23.039062-38.316406 23.980469-9.453125 1.117187-2.292969 8.394531-9.625-4.824219-.542969-4.601563-.542969-9.253907 0-13.855469-1.355469-18.28125.546875-36.960938 0-55.289062-.714844-24.277344-6.417969-36.417969-25.257813-51.199219-41.359374-32.425781-84.011718-63.359375-126.140624-94.832031 66.832031 6.410156 133.976562 8.917968 201.097656 7.519531 54.226562.3125 108.425781-2.539063 162.320312-8.535157-42.671875 32.097657-85.339844 64.175782-128 96.238282zm145.066406-101.75c-.519531-1.707032-8.695312-.699219-10.691406.800781l-.511718.386719c-24.226563 2.207031-48.878907 2.507812-53.820313 2.839844-49.851563 3.414062-99.898437 4.335937-149.855469 3.992187-48.757812-.332031-97.636718-1.796875-146.207031-6.304687-4.5-.417969-15.660156-.769532-28.296875-1.78125l-1.195312-.898438c-2.046876-.78125-4.328126-.703125-6.316407.222656-20.640625-2.074218-42.554687-6.1875-45.488281-15.316406v-54.066406c18.960938 7.335937 57.546875 7.679687 67.734375 8.703125 18.972656 1.867187 38.007813 3.140625 57.074219 4.171875 1.644531 2.066406 5.871094 1.910156 8.796875.425781 37.246093 1.808594 74.582031 2.433594 111.785156 2.3125 33.808594-.101563 67.671875-.851563 101.460937-2.558594 3.058594 1.96875 7.03125 1.761719 9.867188-.511719 17.167969-.992187 34.320312-2.167968 51.421875-3.839843 21.332031-2.089844 54.765625-1.324219 74.238281-12.878907v60c.035156.242188.097656.476563.179688.707032v.058594c-2.167969 6.980468-19.855469 11.078124-40.175782 13.535156zm0 0"/><path d="m176.296875 44.410156h8.535156c2.558594 0 6.527344-1.976562 6.828125-4.8125.375-3.164062-3.371094-3.71875-5.625-3.71875h-8.535156c-2.558594 0-6.527344 1.980469-6.824219 4.8125-.375 3.164063 3.371094 3.71875 5.621094 3.71875zm0 0"/><path d="m216.976562 42.867188h8.535157c3.039062.09375 5.996093-1.003907 8.242187-3.054688 1.519532-2.234375-1.332031-2.390625-3.019531-2.390625h-8.535156c-3.039063-.09375-5.996094 1.003906-8.242188 3.054687-1.519531 2.226563 1.363281 2.390626 3.019531 2.390626zm0 0"/><path d="m185.941406 103.640625h-8.535156c-7.234375 0-9.34375 9.539063-.972656 9.539063h8.535156c7.234375 0 9.34375-9.539063.972656-9.539063zm0 0"/><path d="m230.347656 104.246094h-8.53125c-3.160156-.339844-6.257812 1.058594-8.089844 3.652344-1.222656 2.5625 1.074219 4.675781 3.632813 4.675781h8.535156c3.160157.34375 6.253907-1.054688 8.089844-3.652344 1.21875-2.542969-1.074219-4.675781-3.636719-4.675781zm0 0"/><path d="m304.410156 44.820312h25.597656c7.167969 0 9.386719-9.386718 1.027344-9.386718h-25.601562c-7.167969.035156-9.402344 9.386718-1.023438 9.386718zm0 0"/><path d="m304.296875 112.679688h25.601563c6.828124 0 9.667968-8.535157 1.246093-8.535157h-25.601562c-6.851563 0-9.667969 8.535157-1.246094 8.535157zm0 0"/><path d="m187.84375 173.121094h-8.53125c-3.109375-.226563-6.140625 1.039062-8.160156 3.410156-1.398438 2.460938 1.195312 3.722656 3.414062 3.722656h8.535156c3.105469.226563 6.136719-1.042968 8.15625-3.414062 1.363282-2.457032-1.230468-3.71875-3.414062-3.71875zm0 0"/><path d="m230.46875 172.941406h-8.535156c-3.121094-.265625-6.167969 1.035156-8.140625 3.472656-1.347657 2.492188 1.152343 4 3.414062 4h8.535157c3.121093.265626 6.167968-1.035156 8.140624-3.472656 1.382813-2.492187-1.117187-4-3.414062-4zm0 0"/><path d="m334.574219 174.304688h-25.597657c-3.082031-.054688-6.117187.765624-8.75 2.375-1.703124 1.226562-1.953124 2.40625.640626 2.40625h25.601562c3.085938.046874 6.117188-.789063 8.746094-2.40625 1.707031-1.195313 1.953125-2.375-.640625-2.375zm0 0"/><path d="m68.34375 7.667969v95.078125l-13.652344-13.652344c-2.5625-2.5625-14.0625 1.976562-11.589844 4.453125l25.601563 25.597656c.140625.144531.3125.25.503906.316407 2.941407.953124 6.15625.503906 8.726563-1.210938.5-.230469.972656-.515625 1.410156-.851562.296875-.203126.582031-.425782.851562-.667969l25.601563-25.597657c2.996094-2.988281-8.945313-1.894531-11.316406.476563l-13.78125 13.730469v-100.984375c0-2.609375-12.355469-.699219-12.355469 3.3125zm0 0"/><path d="m426.742188 7.667969v94.769531l-13.746094-13.746094c-3.824219-3.824218-15.539063 1.167969-11.347656 5.359375l25.597656 25.597657c3.300781 2.558593 8.019531 2.121093 10.796875-.996094l25.597656-25.601563c5.410156-5.417969-6.519531-7.191406-10.289063-3.414062l-14.277343 14.277343v-99.558593c.027343-1.851563-12.332031-.152344-12.332031 3.3125zm0 0"/></g></svg>