<svg height="512" viewBox="0 0 56 60" width="512" xmlns="http://www.w3.org/2000/svg"><g id="023---Mental-Health" fill="none"><g fill="#ed75b7"><path id="Path" d="m37.2 59.323c-.2096638.0000887-.397115-.1306404-.4694831-.3274188-.072368-.1967785-.0142807-.4178078.1454831-.5535812l2.233-1.9-4.554 2.628c-.2309306.1317312-.5245674.0597083-.6683337-.1639283-.1437664-.2236366-.0873821-.520673.1283337-.6760717l6.391-4.549-7.98 4.608c-.2317427.1353654-.5290201.0636298-.6735243-.1625272-.1445041-.2261571-.084687-.5260601.1355243-.6794728l8.685-6.12-9.864 5.694c-.2337734.1287456-.5274505.051198-.667188-.1761759-.1397374-.2273739-.07627-.5244122.144188-.6748241l8.6-5.62-9.066 5.233c-.2347034.1364868-.5354374.0607325-.6774741-.1706544-.1420368-.2313868-.073465-.5338394.1544741-.6813456l9.336-6.061-9.573 5.53c-.2337734.1287456-.5274505.051198-.667188-.1761759-.1397374-.2273739-.07627-.5244122.144188-.6748241l10.463-6.819-10.437 6.027c-.236654.1424895-.5440105.066154-.6865-.1705s-.066154-.5440105.1705-.6865l2.583-1.616-2.219 1.281c-.1549945.0985297-.351531.1041539-.5119064.0146489-.1603754-.0895049-.2587712-.2597296-.2562855-.4433739s.1054527-.3511436.2681919-.436275l26.582-15.347c.2361735-.1361818.537908-.0580681.6783318.1756081.1404239.2336761.0677709.5367718-.1633318.6813919l-2.6 1.627 2.266-1.309c.2337734-.1287456.5274505-.051198.667188.1761759.1397374.2273739.07627.5244122-.144188.6748241l-10.457 6.81 9.959-5.75c.2342478-.1308833.5300435-.0535271.6702262.1752769s.074765.527467-.1482262.6767231l-9.342 6.065 8.161-4.711c.1521951-.0936036.3427662-.0989017.4999268-.0138987.1571607.0850031.2570345.2473934.262.426.0049655.1786067-.0857317.3462951-.2379268.4398987l-8.6 5.623 3.8-2.193c.2317427-.1353654.5290201-.0636298.6735243.1625272.1445041.2261571.084687.5260601-.1355243.6794728l-8.683 6.119 7.513-4.338c.2309306-.1317312.5245674-.0597083.6683337.1639283.1437664.2236366.0873821.520673-.1283337.6760717l-6.391 4.549.184-.106c.2237424-.1292278.5090949-.0666972.6582921.1442547.1491972.2109518.1130922.5008356-.0832921.6687453l-2.233 1.9.269-.154c.2374252-.1242009.5305531-.0391619.6646466.1928199.1340935.2319817.0614797.5284321-.1646466.6721801l-5.02 2.9c-.077655.0450874-.1662254.0679219-.256.066z"/><path id="Path" d="m28.175 6.517c-.1989362-.00026883-.3787872-.11844532-.4579893-.30093567-.0792021-.18249034-.0426855-.39457192.0929893-.54006433l2.153-2.307c-.2424145.11030044-.5287412.01122456-.6511423-.22531081-.122401-.23653537-.0379103-.52749985.1921423-.66168919l2.857-1.649c.214156-.12277399.4858627-.07088539.6397046.12216622.1538419.1930516.1437736.46948525-.0237046.65083378l-2.148 2.3 5.017-2.9c.2374252-.12420086.5305531-.03916186.6646466.19281988.1340935.23198173.0614797.52843213-.1646466.67218012l-7.921 4.578c-.0757231.04468602-.162075.06817374-.25.068z"/><path id="Path" d="m21.336 59.286c-.2079504.0012633-.3949729-.1263178-.4696688-.3203938s-.0214689-.4141242.1336688-.5526062l2.711-2.413-5.44 3.141c-.2275891.1298897-.5168511.062032-.6629348-.1555172-.1460838-.2175492-.0994243-.5109773.1069348-.6724828l4.054-3.132-5.479 3.158c-.2369888.1350471-.5384839.055235-.6776156-.1793791-.1391316-.2346142-.0645535-.5374465.1676156-.6806209l1.6-.973-2 1.153c-.2352087.125628-.5276152.0445694-.664573-.1842276-.1369579-.228797-.070267-.5248112.151573-.6727724l10.072-6.23-10.614 6.128c-.2346058.1253855-.5263122.0451285-.6637604-.18262-.1374483-.2277485-.0725112-.523243.1477604-.67238l16.736-10.545-17.266 9.967c-.2362075.133071-.5354329.0536509-.6745599-.1790411-.1391271-.2326919-.0674613-.5338687.1615599-.6789589l14.628-9.092-14.714 8.5c-.2377586.1408326-.5446674.0622586-.6855-.1755s-.0622586-.5446674.1755-.6855l2.03-1.231-2.271 1.31c-.2357179.1278172-.530297.0469384-.667702-.1833224-.137405-.2302607-.0687118-.5279174.155702-.6746776l11.863-7.3-12.958 7.476c-.2377586.1405564-.54444351.0617586-.68499997-.176-.14055647-.2377586-.0617586-.5444435.17599997-.685l.379-.229-.762.44c-.23551248.13196-.53324972.0531389-.67262044-.1780652-.13937073-.2312042-.07004227-.5312938.15662044-.6779348l20.473-12.847-21.352 12.326c-.23628449.1306359-.5336041.0500916-.67163931-.181948s-.06692381-.5317553.16063931-.677052l9.14-5.579-9.371 5.412c-.23748244.1411088-.54439125.0629824-.6855-.1745s-.06298244-.5443912.1745-.6855l9.66-5.893-9.642 5.564c-.23583577.1260453-.52910097.0442222-.66561588-.1857118-.13651492-.2299339-.06795177-.5265795.15561588-.6732882l8.367-5.093-8.185 4.726c-.23775858.1408326-.54466737.0622586-.68549998-.1755s-.06225859-.5446674.17549998-.6855l6.138-3.724-5.792 3.345c-.23701856.1320316-.53608427.0509486-.6739531-.1827228-.13786884-.2336714-.06422739-.5346559.1659531-.6782772l.659-.4-.78.45c-.23638246.1285498-.53210687.0469768-.6691568-.184581-.13704993-.2315579-.06627089-.5300498.1601568-.675419l5.061-3.068-5.792 3.346c-.23596019.1244074-.52802952.041678-.66369597-.1879935-.13566644-.2296716-.06715011-.5253981.15569597-.6720065l5.642-3.419-6.073 3.505c-.23698876.1350471-.53848394.055235-.67761558-.1793791-.13913163-.2346142-.06455352-.5374465.16761558-.6806209l9.922-6.047-10.266 5.929c-.23560872.1297647-.5316571.04988-.67000668-.1807924-.13834959-.2306723-.06941665-.5294607.15600668-.6762076l19.074-11.856-19.392 11.195c-.23583577.1260453-.52910097.0442222-.66561588-.1857118-.13651492-.2299339-.06795177-.5265795.15561588-.6732882l9.213-5.62-9.074 5.238c-.23520866.125628-.52761522.0445694-.66457305-.1842276-.13695782-.228797-.07026696-.5248112.15157305-.6727724l17.453-10.823-17.019 9.825c-.23620749.133071-.53543293.0536509-.67455994-.1790411-.13912702-.2326919-.06746126-.5338687.16155994-.6789589l18.278-11.348-17.162 9.908c-.23693016.1419372-.54406281.0649301-.68599999-.172-.14193717-.2369302-.06493016-.5440628.17199999-.686l17.753-11.037-15.467 8.929c-.23520866.125628-.52761522.0445694-.66457305-.1842276-.13695782-.228797-.07026696-.5248112.15157305-.6727724l14.365-8.913-14.666 8.466c-.23617349.1361818-.537908.0580681-.67833183-.1756081-.14042384-.2336761-.06777083-.5367718.16333183-.6813919l15.356-9.567-15.348 8.86c-.23583577.1260453-.52910097.0442222-.66561588-.1857118-.13651492-.2299339-.06795177-.5265795.15561588-.6732882l2.262-1.376-1.87 1.081c-.23693016.1419372-.5440628.0649301-.68599998-.172-.14193717-.2369302-.06493016-.5440628.17199998-.686l11.168-6.942-10.454 6.036c-.23541159.1379583-.53795774.061708-.67986369-.1713453-.14190596-.2330532-.07076502-.5368414.15986369-.6826547l17.511-11.182-15.191 8.767c-.23620749.133071-.53543293.0536509-.67455995-.1790411-.13912701-.2326919-.06746125-.5338687.16155995-.6789589l5.154-3.185-4.575 2.644c-.23497088.1292146-.53003872.050062-.66879247-.179405-.13875376-.2294671-.07178369-.5275361.15179247-.675595l3.751-2.379-3.28 1.892c-.23377341.1287456-.52745054.051198-.66718798-.1761759-.13973743-.2273739-.07626999-.5244122.14418798-.6748241l8.14-5.309-7.188 4.147c-.21920492.1250239-.49721527.0671074-.64826035-.1350489s-.1277752-.4851803.05426035-.6599511l2.355-2.227c-.18468743-.0011578-.35641597-.0951012-.457-.25-.13823272-.2388784-.05677133-.5445824.182-.683l3.285-1.9c.22081444-.1342809.5075757-.0781561.6614736.1294633s.1242133.4983097-.0684736.6705367l-2.181 2.064 19.428-11.217c.2352733-.14469859.5433014-.07127329.688.16400001s.0712733.54330138-.164.68799999l-8.128 5.3 7.908-4.566c.2354379-.13454995.5352149-.05690217.6757281.17502611.1405133.23192829.0705395.53358878-.1577281.67997389l-3.763 2.39 13.023-7.518c.2362075-.13307102.5354329-.05365088.6745599.17904108.1391271.23269196.0674613.53386873-.1615599.67895892l-5.155 3.183 5.5-3.173c.2348642-.13128134.531504-.05316042.6712412.17677323.1397372.22993366.0724576.52921865-.1522412.67722677l-17.506 11.182 17.987-10.384c.2352087-.12562801.5276152-.04456942.664573.18422757.1369579.22879699.070267.52481121-.151573.67277243l-11.167 6.937 13.027-7.52c.2358358-.12604535.529101-.04422219.6656159.18571176.1365149.22993394.0679517.52657952-.1556159.67328824l-2.277 1.385 3.1-1.789c.2361735-.13618181.537908-.05806811.6783318.17560806.1404239.23367616.0677709.53677186-.1633318.68139194l-15.349 9.564 16.2-9.353c.2369302-.14193718.5440628-.06493016.686.172s.0649302.54406282-.172.686l-14.373 8.918 14.711-8.493c.2352087-.12562801.5276152-.04456942.664573.18422757.1369579.22879699.070267.52481121-.151573.67277243l-17.737 11.025 17.667-10.2c.2369302-.14193716.5440628-.06493013.686.17200002.1419371.23693014.0649301.54406279-.172.68599998l-18.291 11.359 17.489-10.1c.1532669-.0918173.3438754-.094893.5000249-.0080685.1561495.0868244.2541174.2503583.257.429s-.089758.3452512-.2430249.4370685l-17.456 10.825 17.434-10.062c.2362845-.1306359.5336041-.0500916.6716393.181948s.0669238.5317553-.1606393.677052l-9.209 5.617 10.2-5.887c.2369302-.1419372.5440628-.0649301.686.172.1419371.2369302.0649301.5440628-.172.686l-19.069 11.848 20.145-11.633c.2358358-.1260453.529101-.0442222.6656159.1857118.1365149.2299339.0679517.5265795-.1556159.6732882l-9.946 6.06 10.354-5.976c.2363825-.1285498.5321069-.0469768.6691568.184581.1370499.2315579.0662709.5300498-.1601568.675419l-5.623 3.407 5.8-3.35c.2363825-.1285498.5321069-.0469768.6691568.184581.1370499.2315579.0662709.5300498-.1601568.675419l-5.076 3.08 5.042-2.91c.2370186-.1320316.5360843-.0509486.6739531.1827228s.0642274.5346559-.1659531.6782772l-.647.39.5-.287c.2369888-.1350471.5384839-.055235.6776156.1793791.1391316.2346142.0645535.5374465-.1676156.6806209l-6.124 3.715 5.828-3.364c.2358358-.1260453.529101-.0442222.6656159.1857118.1365149.2299339.0679517.5265795-.1556159.6732882l-8.375 5.1 7.913-4.568c.2362845-.1306359.5336041-.0500916.6716393.181948s.0669238.5317553-.1606393.677052l-9.656 5.891 9.059-5.231c.2374824-.1411087.5443912-.0629824.6855.1745.1411087.2374824.0629824.5443912-.1745.6855l-9.123 5.565 9.433-5.439c.2350866-.127347.5287583-.0472199.6665908.1818764.1378325.2290964.071048.5260868-.1515908.6741236l-20.483 12.852 20.84-12.033c.2377586-.1405565.5444435-.0617586.685.176.1405564.2377586.0617586.5444435-.176.685l-.381.23.134-.077c.2357179-.1278172.530297-.0469384.667702.1833224.137405.2302607.0687118.5279174-.155702.6746776l-11.858 7.3 11.512-6.646c.2369888-.1350471.5384839-.055235.6776156.1793791.1391316.2346142.0645535.5374465-.1676156.6806209l-2.028 1.23 1.373-.792c.2352087-.125628.5276152-.0445694.664573.1842276.1369579.228797.070267.5248112-.151573.6727724l-14.64 9.1 13.008-7.51c.2346058-.1253855.5263122-.0451285.6637604.18262.1374483.2277485.0725112.523243-.1477604.67238l-16.732 10.543 16.857-9.732c.2352087-.125628.5276152-.0445694.664573.1842276.1369579.228797.070267.5248112-.151573.6727724l-10.08 6.235 10.318-5.957c.2358358-.1260453.529101-.0442222.6656159.1857118.1365149.2299339.0679517.5265795-.1556159.6732882l-25.879 15.762c.0336016.1842368-.0385695.3718044-.187.486l-4.057 3.135 3.2-1.847c.2219765-.128183.5049351-.0677387.6551637.1399529.1502285.2076917.1190618.4953507-.0721637.6660471l-2.708 2.417.563-.324c.2374252-.1242009.5305531-.0391619.6646466.1928199.1340935.2319817.0614797.5284321-.1646466.6721801l-4.767 2.752c-.0758031.044382-.1621615.067526-.25.067z"/><path id="Path" d="m10.826 13.161c-.2152152 0-.4062846-.137715-.4743416-.3418861-.0680571-.2041711.0021694-.4289848.1743416-.5581139l7.194-5.3-7.329 4.231c-.2310609.1298083-.52326795.0567757-.66608655-.1664779s-.08662801-.5191613.12808655-.6745221l4.257-2.988-3.694 2.137c-.2159307.12313412-.4895276.06894621-.64222301-.12719707s-.13811588-.47467342.03422301-.65380293l1.512-1.559c-.1553613-.01939106-.2926695-.11043641-.371-.246-.1380647-.23914015-.0561341-.54492481.183-.683l2.557-1.477c.2160105-.1246636.4908577-.07107952.6442199.12559681.1533622.19667632.1383361.47629469-.0352199.65540319l-1.257 1.291 10.359-5.979c.2310609-.12980827.523268-.05677568.6660866.16647793.1428185.2232536.086628.51916126-.1280866.67452207l-4.255 2.986 5.317-3.069c.2295527-.13149209.521805-.0614183.6667704.15987256.1449654.22129087.0924688.51720615-.1197704.67512744l-7.193 5.3 8.163-4.713c.23893-.13584515.5427102-.05337078.6801373.18465285.137427.23802363.0569695.54234426-.1801373.68134715l-15.94 9.2c-.0760345.0448136-.1627424.0683041-.251.068z"/><path id="Path" d="m16.521 5.276c-.2087291-.00011927-.3954224-.12988784-.4682725-.32549135-.07285-.19560352-.0165268-.4158805.1412725-.55250865l1.3-1.122c-.0541914-.04099984-.0997329-.09231904-.134-.151-.1380647-.23914015-.0561341-.54492481.183-.683l2.793-1.613c.2231941-.12824745.5072862-.06607757.6565145.14366969s.1148202.49851967-.0795145.66733031l-.083.071 1.749-1.011c.1549945-.09852969.351531-.10415386.5119064-.01464894s.2587712.25972968.2562855.44337398c-.0024857.18364429-.1054527.35114353-.2681919.43627496l-6.308 3.644c-.0758413.04429056-.1621742.06742779-.25.067z"/></g><path id="Path" d="m31.9 33.472c-.226294-.00001-.4243705-.1520058-.4829405-.3705888-.0585699-.2185831.0369699-.4492542.2329405-.5624112l8.731-5.04c.2244518-.1286386.5099659-.0648202.6582866.1471407.1483207.211961.1104625.5020607-.0872866.6688593l-1.6 1.339 1.369-.79c.2058333-.1201116.4678297-.0782591.626.1.1573225.1792736.1661145.4447088.021.634l-1.289 1.683.531-.306c.1549945-.0985297.351531-.1041539.5119064-.0146489.1603754.0895049.2587712.2597296.2562855.4433739s-.1054527.3511436-.2681919.436275l-2.7 1.56c-.2062518.1182441-.4672436.0749051-.6242099-.1036531-.1569663-.1785583-.1664952-.4429523-.0227901-.6323469l1.289-1.684-4.196 2.42c-.2244518.1286386-.5099659.0648202-.6582866-.1471407-.1483207-.211961-.1104625-.5020607.0872866-.6688593l1.606-1.343-3.741 2.159c-.0755201.0456395-.1617733.0704804-.25.072z" fill="#fff"/><path id="Path" d="m29.058 43.454c-.191607-.0001153-.3662971-.1097189-.4497647-.2821904-.0834677-.1724715-.0610317-.3774744.0577647-.5278096l.279-.353-1.851 1.069c-.2151117.1243892-.4889299.0719324-.6428382-.1231521s-.1411987-.4735922.0298382-.6538479l1.744-1.834-2.706 1.563c-.2219765.128183-.5049351.0677387-.6551637-.1399529-.1502285-.2076917-.1190618-.4953507.0721637-.6660471l2.064-1.844-1.724.995c-.222272.1250569-.5030453.0627806-.6515981-.1445262-.1485528-.2073069-.1172703-.4931974.0725981-.6634738l2.113-1.849-1.531.883c-.2251719.1281476-.5109328.0630663-.6584056-.14995-.1474728-.2130162-.107801-.5033971.0914056-.66905l1.266-1.042-.7.4c-.2334461.1352991-.5321345.0609722-.6749447-.1679561-.1428102-.2289282-.0782242-.5298733.1459447-.6800439l2.4-1.614-1.874 1.081c-.2274132.1273482-.5145055.05864-.6596263-.1578646-.1451209-.2165046-.0995839-.5081708.1046263-.6701354l5.242-4.057-4.706 2.717c-.2254634.1287726-.5119753.0635416-.6594703-.1501437-.1474949-.2136853-.1068861-.5047094.0934703-.6698563l3.04-2.477-4.886 2.824c-.2272713.1290292-.5155715.0612656-.6615658-.155498-.1459944-.2167636-.1004262-.5093938.1045658-.671502l2.648-2.059-5 2.886c-.2279124.1308241-.5182022.0628918-.6643976-.1554793-.1461953-.2183711-.0983971-.512647.1093976-.6735207l5.32-4.1-8.188 4.727c-.2198926.1179958-.4931214.0557887-.6402596-.1457705s-.1231296-.4807496.0562596-.6542295l2.832-2.542-3.377 1.95c-.2151117.1243892-.4889299.0719324-.6428382-.1231521s-.1411987-.4735922.0298382-.6538479l1.752-1.849-1.242.716c-.2077189.119562-.4710624.0749112-.6277607-.1064389-.1566982-.1813502-.1626716-.4483854-.0142393-.6365611l.551-.7c-.1922147-.056069-.3324451-.2213995-.3563954-.4201873-.0239504-.1987878.0729985-.3926941.2463954-.4928127l1.614-.932c.2077757-.1207758.4720846-.0766448.6293523.1050814.1572677.1817261.1629994.4496326.0136477.6379186l-.294.371 1.958-1.122c.2148145-.122858.4871855-.0700952.640583.1240916.1533976.1941868.1416695.4713733-.027583.6519084l-1.752 1.849 4.549-2.625c.2198926-.1179958.4931214-.0557887.6402596.1457705s.1231296.4807496-.0562596.6542295l-2.832 2.542 10.56-6.1c.227731-.1281621.5157443-.059345.6609391.1579231.1451949.217268.0985947.509699-.1069391.6710769l-5.322 4.1 4.769-2.752c.2271002-.1265913.5133226-.0580067.6583864.1577626.1450637.2157693.100553.506709-.1023864.6692374l-2.646 2.059 4-2.309c.2253165-.1265297.5099298-.0605202.6565485.1522715.1466186.2127916.1069324.5022515-.0915485.6677285l-3.04 2.484 5.714-3.3c.2275891-.1298897.5168511-.062032.6629348.1555172.1460838.2175492.0994243.5109773-.1069348.6724828l-5.242 4.056 8.175-4.719c.2329673-.1327691.5291919-.0581284.6714287.1691822.1422368.2273105.0798406.5263539-.1414287.6778178l-8.489 5.7c.1222495.2116154.0736134.4805941-.115.636l-1.266 1.042.7-.4c.222272-.1250569.5030453-.0627806.6515981.1445262.1485528.2073069.1172703.4931974-.0725981.6634738l-2.11 1.848 1.531-.883c.2219765-.128183.5049351-.0677387.6551637.1399529.1502285.2076917.1190618.4953507-.0721637.6660471l-2.067 1.841 1.484-.857c.2153349-.1244465.4894005-.0717052.6431691.1237719.1537685.1954771.1404869.4742551-.0311691.6542281l-1.742 1.833 1.13-.653c.207659-.1183705.470055-.0732098.6261925.1077734.1561375.1809831.1623424.4471647.0148075.6352266l-.547.69c.1223044.0355514.2259601.1173282.289.228.1382327.2388784.0567713.5445824-.182.683l-1.614.932c-.0758413.0442906-.1621742.0674278-.25.067z" fill="#fff"/><path id="Path" d="m25.03 25.96c-.2118997-.000056-.4007524-.1336762-.4713239-.333479-.0705715-.1998027-.0075341-.422392.1573239-.555521l.984-.8-.421.243c-.2221262.1265945-.5039712.0652242-.6533525-.1422642-.1493814-.2074884-.1181698-.4942439.0723525-.6647358l2.2-1.945-1.615.931c-.2208144.1342809-.5075757.0781561-.6614736-.1294633s-.1242133-.4983097.0684736-.6705367l2.021-1.915-1.428.825c-.1959807.1131314-.4435122.0805345-.6035233-.0794767-.1600112-.1600111-.1926081-.4075426-.0794767-.6035233l.992-1.721-.015.009c-.2394154.1380712-.5454288.0559154-.6835-.1835-.1380711-.2394154-.0559154-.5454288.1835-.6835l1.623-.931c.1962393-.1147294.4451727-.0826466.6059097.0780903.1607369.160737.1928197.4096704.0780903.6059097l-.991 1.72 3.486-2.014c.2208953-.136633.509623-.0813788.6644625.1271591.1548394.208538.1242214.5009064-.0704625.6728409l-2.023 1.913 2.232-1.288c.2217499-.124383.5015352-.0625469.6502105.143705.1486753.2062518.1188941.491237-.0692105.662295l-2.2 1.946 1.655-.954c.2256086-.1271264.5109479-.0609576.657579.1524896.1466312.2134471.106025.5035297-.093579.6685104l-.982.795.418-.241c.2374252-.1242009.5305531-.0391619.6646466.1928199.1340935.2319817.0614797.5284321-.1646466.6721801l-5.941 3.43c-.0751267.0433832-.1602484.0664729-.247.067z" fill="#fff"/><path id="Shape" d="m53.414 32c1.8952449-2.8016206 1.6205844-6.5376654-.664-9.032-.0044575-.0635277-.0330866-.122933-.08-.166-.0538529-.0573673-.1120232-.110523-.174-.159.008-1.42.34-2.539-.064-3.992-.591321-2.1020591-1.9944546-3.8825997-3.9-4.949-.5942131-.3808117-1.2541188-.6476903-1.946-.787-.635-.072-1.033.238-.738-.185 1.3032236-2.0000643 1.0980259-4.6265958-.5-6.4-.6954826-.74285532-1.587284-1.27335923-2.572-1.53-.8005153-.14778663-1.6200461-.16130466-2.425-.04-.005-.01-.014-.018-.02-.028-2.298-5.471-9.753-5.05-12.245-.532-2.27-4.771-9.863-4.617-12.295.545-.7363034-.10135267-1.4848148-.06985422-2.21.093-1.0340589.27786927-1.9782166.81955389-2.74 1.572-1.45337399 1.44822525-1.91391032 3.6183164-1.174 5.532-.0206614.0837289-.01183224.1720205.025.25.1177069.2419222.25133365.475769.4.7-.46325955.110756-.91997092.247302-1.368.409-.09846549.033137-.19224063.0788482-.279.136-3.62871113 1.590766-5.69105851 5.4643384-4.985 9.363-.023.022-.05.038-.073.061-.08805894.0860051-.12872661.2095005-.109.331-2.39341833 2.588826-2.59456368 6.5183139-.478 9.338-.134.118-.274.228-.4.356-.08917307.0853378-.13035654.2092626-.11.331-1.65630446 1.8048356-2.29013457 4.323545-1.6853854 6.697372s2.36642604 4.2822641 4.6843854 5.074628v.018c0 .063-.012.124-.013.187 0 .012.013.017.015.028.08405193 3.720076 2.62262989 6.9343025 6.222 7.878.006.021.014.041.02.062.0873424.3488384.1955368.6921219.324 1.028.028376.0749596.0772303.1404452.141.189 3.154 6.84 13.046 6.121 15.938-.2 2.868 6.979 14.086 6.789 16.5-1.211 3.6469324-1.0444383 6.1899337-4.3404111 6.275-8.133 0-.012.014-.023.013-.035 2.2046506-.8056721 3.9245834-2.5682723 4.676-4.792.4360431-1.4114453.4336023-2.9219712-.007-4.332-.213-.676-2.229-3.349-1.979-3.676zm-2.749 12.024c-.1139399-1.1304046-.4579976-2.2255358-1.011-3.218-.212-.38-1.586.141-1.449.388.650839 1.166153 1.0129373 2.4712154 1.056 3.806.0723947 3.1158538-1.7799968 5.9550482-4.661 7.144.1280829-.7727189.1502871-1.5592861.066-2.338-.024-.227-1.486.042-1.448.388.0981839.9088993.0492227 1.8276828-.145 2.721-1.137 4.17-5.61 6.93-9.8 5.035-2.7489861-1.3256467-4.5114675-4.0923282-4.551-7.144v-3c0-.358-1.448-.114-1.448.388v2.922c-.228 4.084-3.14 7.953-7.76 7.41-3.146989-.3987914-5.7335897-2.6744455-6.53-5.745-.2318806-.9284749-.2968916-1.8907734-.192-2.842.079-.718-1.4-.509-1.465.121-.0665078.628579-.0665078 1.262421 0 1.891-2.84139077-1.2885081-4.64803628-4.1394733-4.6-7.259.03961497-1.3336727.40269692-2.6377478 1.058-3.8.152-.274-.506-.255-.607-.242-.33195295.0179849-.6382091.1843327-.834.453-.46944729.8481708-.78753645 1.7716446-.94 2.729-1.80777152-.9661346-3.08272995-2.6967926-3.46958854-4.7096996-.38685858-2.0129069.15573861-4.0928791 1.47658854-5.6603004.06825833-.0422805.1319342-.0915455.19-.147.70697109-.7054283 1.5738933-1.2296298 2.527-1.528.282-.088.686-.336.59-.693-.091-.341-.58-.392-.858-.3-.6792835.2125289-1.32932617.5091634-1.935.883-1.68004899-2.4947939-1.52770575-5.795564.375-8.125.11274473-.0556075.21655568-.1277359.308-.214.90672841-.9006461 2.07121315-1.4968678 3.332-1.706.313-.051.777-.22.792-.608-.0109264-.163201-.09216498-.3136203-.22264875-.4122507s-.29735903-.135756-.45735125-.1017493c-1.14743266.1841999-2.24458851.6029097-3.223 1.23-.4129378-3.3200255 1.39204847-6.5200506 4.447-7.884.40635367-.1579544.8279185-.2735663 1.258-.345.5532475.6777821 1.2545538 1.2196695 2.05 1.584.643.293 1.671-.636.824-1.022-.7172011-.3309389-1.3371034-.8409807-1.8-1.481-1.090815-1.5807311-1.1449467-3.65656532-.138-5.292.5242829-.85101723 1.3381678-1.48415719 2.292-1.783.5800108-.11557742 1.1774826-.11183472 1.756.011-.2381846.86787991-.2923425 1.77596224-.159 2.666.044.294 1.5-.013 1.448-.388-.137114-.90714513-.0711959-1.83341417.193-2.712 0-.007.014-.013.017-.021 2.3-6.058 9.886-3.63 10.253 2.054v4.93c0 .751 1.468.531 1.468-.114v-5c0-.016-.01-.025-.011-.04.148-2.751 1.882-5.483 4.99-5.513 2.410437.07333388 4.5152352 1.65233268 5.26 3.946.2812694.88500811.3551753 1.82285944.216 2.741-.095.632 1.373.4 1.456-.154.1240846-.81092815.0973019-1.63780146-.079-2.439.5078914-.06524711 1.0239042-.01883326 1.512.136.8008671.27912929 1.5108297.77064187 2.054 1.422 1.3412614 1.6143086 1.4933484 3.9077153.377 5.685-.08.108-.156.218-.23.33-.009.013-.007.023-.013.035-.4065341.5309865-.9337673.9574351-1.538 1.244-.167.075-.595.273-.405.513.172.216.761.059.949-.025.6938052-.3043072 1.3277413-.7299791 1.872-1.257 2.104362.4459127 3.9265582 1.751107 5.026 3.6.7570915 1.3502165 1.0734934 2.9032076.905 4.442-.8112679-.4848831-1.7070694-.811647-2.64-.963-.3659064-.0813257-.7484799.0209427-1.025.274-.18.212-.191.526.155.58 1.310867.1970273 2.5345487.7761717 3.518 1.665l.007.009c.0123082.0193089.0286911.0356918.048.048l.011.01c2.2904707 2.232689 2.7354898 5.7513668 1.073 8.484-.5142298-.3064248-1.0626483-.5514342-1.634-.73-.3479734-.0726756-.7105409-.013139-1.017.167-.145.08-.484.345-.159.447.8141119.2536783 1.5752024.6535389 2.246 1.18 0 .006 0 .015.008.02 3.693 3.2 3.305 9-1.005 11.224z" fill="#262626"/><path id="Shape" d="m32.356 26.66c-2.627-1.621 1.527-8.136-2.264-9.833-2.325-1.04-5.237.073-5.816 2.441-.478 1.952.257 4.257 0 6.254-.134 1.036.374.879-.031 1.138-.659.422-3.388 0-4.123 0-2.752 0-5.458-.329-5.846 3.053-.588 5.12 4.873 3.224 7.979 3.627 2.412.313 2.021.624 2.021 3.175 0 1.453-.581 4.456.318 5.756 1.26 1.821 5.714 1.56 6.851-.374.912-1.55.454-5.038.279-6.647-.06-.555.031-2.111-.173-1.91.365-.358 2.887 0 3.4 0 4.083 0 6.775.331 6.775-4.534-1.208-4.46-6.666-.478-9.37-2.146zm-2.08 7.9c-.421 1.723.328 3.718 0 5.464-.5 2.672-3.513 3.865-4.552.432-.617-2.04 1.284-6.322-.591-7.739-1.519-1.148-5.455.522-7.277-.055-1.2001036-.2809545-2.0712427-1.3195747-2.139023-2.5502614-.0677803-1.2306868.6840316-2.3586913 1.846023-2.7697386 1.5-.534 3.864.109 5.464 0 1.287-.088 2.075.1 2.7-1.182.689-1.421-1.328-12.343 3.5-7.891 2.377 2.189-.709 7.237 1.593 9 2.272 1.734 8.305-2.316 9.455 1.932.001 7.259-8.729.145-9.999 5.357z" fill="#262626"/></g></svg>