<svg height="512" viewBox="0 0 60 60" width="512" xmlns="http://www.w3.org/2000/svg"><g id="004---Scrum" fill="none"><g fill="#006dd9"><path id="Path" d="m52.814 59.427c-.2114169.0001723-.4000924-.1326458-.4712423-.3317308-.0711499-.1990849-.0093945-.4214031.1542423-.5552692l1.021-.838-1.238.714c-.2251719.1281476-.5109328.0630663-.6584056-.14995-.1474728-.2130162-.107801-.5033971.0914056-.66905l.7-.578-.138.079c-.2187434.1297091-.5000021.0745628-.6535686-.128145s-.1305136-.4883932.0535686-.663855l1.132-1.094-.535.309c-.2083669.1203944-.4729381.0752795-.6296306-.1073652-.1566924-.1826446-.1610497-.4509994-.0103694-.6386348l.932-1.167-.293.169c-.1919667.1146891-.436745.0879692-.5994468-.0654353-.1627017-.1534044-.2037616-.3961893-.1005532-.5945647l.466-.909c-.2097708-.0320372-.37647-.1929966-.4158347-.4015166-.0393646-.2085201.0571809-.4191751.2408347-.5254834l1.05-.606c.1919667-.1146891.436745-.0879692.5994468.0654353.1627017.1534044.2037616.3961893.1005532.5945647l-.373.729 1.121-.647c.2081694-.1205179.4726501-.07573.6295333.1066069.1568831.1823369.1617005.4505398.0114667.6383931l-.934 1.168 1.768-1.02c.2187434-.1297091.5000021-.0745628.6535686.128145s.1305136.4883932-.0535686.663855l-1.128 1.098 1.87-1.079c.2256098-.1311968.5141774-.0668035.6626093.1478598.1484318.2146634.1067938.5073817-.0956093.6721402l-.7.575 1.238-.715c.2253151-.1304911.5130605-.0662242.6614447.1477312.1483843.2139555.1077334.5059746-.0934447.6712688l-1.024.841.672-.388c.1547852-.0907422.3463247-.0915917.5019087-.0022259.155584.0893657.2513568.2552442.2509624.4346667-.0003945.1794226-.0968957.3448784-.2528711.4335592l-5.934 3.425c-.0762699.0428037-.1625537.0645472-.25.063z"/><path id="Path" d="m9.573 48.088c-.18333138.0001678-.35205274-.1000108-.43966596-.2610522s-.08006643-.3571171.01966596-.5109478l.922-1.425-1.841 1.062c-.21236892.1214471-.4814292.0713915-.63591356-.1183044-.15448437-.1896959-.14902053-.4633181.01291356-.6466956l1.805-2.021-2.866 1.654c-.22403717.1259992-.50710823.0616068-.65459641-.1489061-.14748819-.2105129-.11133809-.4985559.08359641-.6660939l1.17-.985-1.763 1.018c-.21132343.1216732-.47959512.0731604-.6349231-.1148162-.15532798-.1879765-.15240279-.4605836.0069231-.6451838l.584-.674-.436.251c-.23742522.1242009-.53055313.0391619-.66464661-.1928199-.13409349-.2319817-.06147969-.5284321.16464661-.6721801l3.01-1.737c.21132343-.1216732.47959512-.0731604.6349231.1148162.15532798.1879765.15240279.4605836-.0069231.6451838l-.583.673 4.113-2.374c.2241703-.1280952.5090066-.0644456.6573283.1468868.1483216.2113324.1113468.5008421-.0853283.6681132l-1.172.985.641-.37c.2126491-.1227903.4829898-.0729918.6379285.1175105.1549386.1905024.1486122.4653186-.0149285.6484895l-1.8 2.019.935-.54c.1990398-.1123116.4488979-.0753715.6069237.0897301.1580259.1651017.1839931.4163373.0630763.6102699l-.922 1.427.021-.012c.23893-.1358451.5427102-.0533708.6801373.1846528.137427.2380237.0569695.5423443-.1801373.6813472l-1.819 1.052c-.07600837.0438886-.16223051.0669961-.25.067z"/><path id="Path" d="m16.979 9.527c-.1759296-.00009232-.3388651-.09263797-.4290484-.24369497s-.0943423-.33839462-.0109516-.49330503l.506-.938-1.3.747c-.2162377.12475173-.4913592.07089051-.6445905-.12619308-.1532312-.1970836-.1376138-.47699246.0365905-.65580692l.533-.547-1.02.588c-.2230421.1299097-.508313.0686909-.6584139-.14129487-.150101-.20998576-.1156933-.49971551.0794139-.66870513l.236-.206-.607.358c-.2105582.12326669-.479337.07656365-.635971-.11050639-.1566341-.18707003-.1553784-.45987336.002971-.64549361l.321-.378-.029.016c-.2394154.13807118-.5454288.05591543-.6835-.18350001-.1380712-.23941543-.0559154-.5454288.1835-.68349999l2.5-1.442c.2102941-.12201708.4778777-.0750757.6340828.11123524.156205.18631094.1557481.45798032-.0010828.64376476l-.32.379 2.56-1.478c.2227723-.12943972.5074311-.06840472.6575526.14098887s.1165485.49857997-.0775526.66801113l-.352.308c.2139615-.03866848.4283866.06536898.5304329.25736206s.0683189.4279261-.0834329.58363794l-.64.658c.1470418-.01422607.2930103.03613308.4.138.1624491.15637603.2001321.40213487.092.6l-.643 1.193c.1930534.05523032.3343382.2205926.358761.41990018s-.0727549.39389067-.246761.49409982l-1 .578c-.0764771.04093253-.1622874.06126509-.249.059z"/></g><path id="Path" d="m13.058 18.455c-.1919802.0001887-.3671157-.1095601-.4506624-.2824079-.0835467-.1728479-.0607494-.3782683.0586624-.5285921l.211-.265-.9.52c-.2153349.1244465-.4894005.0717052-.6431691-.1237719-.1537685-.1954771-.1404869-.4742551.0311691-.6542281l.281-.295-.271.157c-.2046858.1184914-.4643967.0773602-.6224526-.0985797-.1580559-.1759398-.1712186-.438558-.0315474-.6294203l.557-.766c-.2204368-.012926-.4062925-.1689218-.4572405-.3837793-.050948-.2148576.0450773-.4376943.2362405-.5482207l1.645-.95c.2046858-.1184914.4643967-.0773602.6224526.0985797.1580559.1759398.1712186.438558.0315474.6294203l-.438.6 1.252-.723c.215258-.1229472.4881008-.0696094.6412115.1253499.1531108.1949593.1402554.4726694-.0302115.6526501l-.281.3.157-.092c.2079723-.120645.4723656-.0761851.6294405.1058457.157075.1820307.1623505.4500842.0125595.6381543l-.481.6c.190991.0576396.3294401.2232985.352258.4214884s-.0743627.3909772-.247258.4905116l-1.615.932c-.075814.0445881-.1620483.0683888-.25.069z" fill="#ffc436"/><path id="Shape" d="m10.5 17.2c.1681147.3173349.4262576.5779131.742.749-5.7628256 6.400231-7.43408022 15.4985534-4.322 23.529-1.362.531-3.035 1.293-3.09 2.321-.044.837.761 1.209 1.349 1.6l2.974 2c.50942657.4446822 1.10818993.7750932 1.756.969.9517675.1678952 1.879576-.3993371 2.164-1.323.3556286-1.9275196.5708609-3.8783131.644-5.837 0-.02-.011-.032-.012-.05s.014-.032.013-.05c-.169-2.462-3.2-.734-4.348-.2l-.056.025c-3.00286798-7.7262445-1.41126728-16.4842998 4.118-22.66 1.485.067 3.206-.862 3.292-2.47-.0098751-.1329399-.031289-.2647695-.064-.394 12.289-8.191 29.265-2.158 32.94 12.368 3.427 13.523-6.789 26.323-20.522 26.745-.027 0-.049.01-.075.013h-26.736c-.614 0-1.511.93-.534.93h27.054c.0446788.0071918.0897699.0115339.135.013.076 0 .15-.01.226-.013h23.125v1.824c0 .693-.1 1.4.53 1.86 1.45 1.071 3.9-1.1 5.064-1.8 1.074-.65 4.168-2 2.242-3.527-1.6137314-1.1165686-3.2941976-2.1334644-5.032-3.045-.911177-.4355529-2.0033427-.1608312-2.6.654-.2591291.7462764-.3278737 1.545433-.2 2.325v.784h-17.431c11.843-3.44 19.877-15.691 15.839-28.435-4.661-14.712-22.074-19.428-34.458-11.588-1.344-1.563-4.964-.71-4.951 1.677.0045517.0847941.0139.1692626.028.253-2.38762843.2845356-4.77024328-.5690261-6.43404371-2.3049691-1.66380044-1.7359431-2.41552116-4.15262201-2.02995629-6.5260309 1.089-6.341 8.654-7.916 12.743-3.275l-1.439.628c-.0474587.02157741-.093251.04664622-.137.075-.0416693.02092695-.0797992.04825896-.113.081-1.977 1.342 1.522 3.052 2.478 3.7.6053065.53486614 1.4495691.70707132 2.216.452.948-.3 1.169-.857 1.307-1.755.205-1.36 1.373-4.822-1.195-4.428-.6240085.1330631-1.2259993.35392773-1.788.656-4.148-4.689-12.194-3.983-14.9 1.981-3.045 6.708 3.131 12.291 9.488 11.469zm.759 24.269-.549 4.975c.0118442.265253-.0175043.5307389-.087.787-.267.407-.012.223-.433.082-.87698319-.4509785-1.69794405-1.0034321-2.446-1.646-.70330713-.4041301-1.37730501-.8572492-2.017-1.356-1.036-.942-.079-1.3.668-1.648l1.257-.583c.29288721-.0117338.56897778-.1398801.767-.356l.892-.414c.824-.383 1.832-1.283 1.952.156zm41.676 10.045 4.293 2.6c.686.415 1.3.819.589 1.6-.7328951.5789784-1.5350741 1.064384-2.388 1.445-.494.3-1.664 1.35-2.239 1.355-.622.005-.463-1.369-.463-1.861v-3.062c0-.038-.049-2.175.208-2.077zm-39.753-37.061c.667018.3240198 1.0914416.9994508 1.094 1.741-.045.835-.6 1.764-1.517 1.319-.0450261-.0389681-.0973842-.068547-.154-.087-.5493358-.3557052-.8809896-.9655567-.881-1.62.002-.781.576-1.759 1.458-1.353zm4.318-10.844c.0254602.07730043.0589778.15170951.1.222.2147287.28386988.3268345.63217355.318.988-.0696612.6954256-.1758075 1.38671151-.318 2.071-.011899.52570346-.0915562 1.04767653-.237 1.553-.0379282.07274424-.0684161.14913149-.091.228-.0223646-.02471216-.0547275-.03795155-.088-.036-.168-.01-.536-.363-.677-.458-.56-.38-3.878-2.109-2.434-3.059l1.054-.46c.3791869.01490928.744325-.1446314.991-.433l1.154-.5c.028-.017.143-.079.228-.116z" fill="#262626"/></g></svg>