<svg height="502pt" viewBox="0 0 502 502.37728" width="502pt" xmlns="http://www.w3.org/2000/svg"><path d="m163.21875 417.714844c-1.855469.007812-3.5-1.1875-4.070312-2.953125-.570313-1.761719.0625-3.695313 1.570312-4.777344l62.769531-45.40625-87.976562 50.824219c-1.996094 1.085937-4.492188.414062-5.675781-1.523438-1.183594-1.9375-.644532-4.460937 1.230468-5.746094l14.566406-9.386718-17.921874 10.328125c-1.996094 1.097656-4.5.433593-5.691407-1.503907-1.195312-1.941406-.652343-4.476562 1.230469-5.757812l36.574219-23.894531-34.578125 19.957031c-2.003906 1.121094-4.535156.457031-5.730469-1.507812-1.191406-1.960938-.617187-4.515626 1.300781-5.777344l11.09375-7.074219-6.640625 3.824219c-1.996093 1.082031-4.488281.410156-5.675781-1.527344-1.183594-1.9375-.640625-4.460938 1.230469-5.746094l26.027343-16.800781-21.605468 12.449219c-2 1.117187-4.523438.457031-5.71875-1.496094-1.199219-1.953125-.640625-4.5 1.261718-5.773438l34.398438-22.355468-29.941406 17.261718c-2.003906 1.164063-4.570313.515626-5.78125-1.457031-1.210938-1.972656-.628906-4.554687 1.316406-5.8125l40.664062-26.566406-36.207031 20.898437c-1.984375 1.132813-4.507812.503907-5.726562-1.425781-1.21875-1.933593-.699219-4.484375 1.175781-5.785156l79.359375-54.433594-74.835937 43.203125c-2.007813 1.179688-4.589844.527344-5.800782-1.460937-1.210937-1.988281-.605468-4.582031 1.363282-5.824219l21.09375-13.578125-16.65625 9.617187c-1.972657 1.078126-4.445313.4375-5.648438-1.460937s-.726562-4.410156 1.09375-5.730469l84.238281-58.285156-79.683593 45.996094c-1.984376 1.070312-4.457032.417968-5.648438-1.496094-1.195312-1.914062-.691406-4.425781 1.144531-5.734375l61.59375-41.238281-57.089843 32.945312c-2.003907 1.140625-4.550782.484375-5.75-1.484375-1.203126-1.964843-.625-4.53125 1.304687-5.792969l19.445313-12.570312-15 8.652344c-1.964844 1.128906-4.472657.523437-5.703126-1.378906-1.234374-1.902344-.761718-4.4375 1.070313-5.773438l65.535156-47.476562-60.902343 35.15625c-1.964844 1.128906-4.472657.523437-5.703126-1.378907-1.234374-1.90625-.761718-4.4375 1.070313-5.773437l38.117187-27.527344-33.457031 19.328125c-1.921875 1.09375-4.363281.539063-5.621093-1.28125-1.257813-1.816406-.917969-4.292969.78125-5.707031l34.03125-27.914063-29.191407 16.898438c-1.867187 1.105469-4.269531.632812-5.578125-1.09375-1.3125-1.730469-1.113281-4.167969.457032-5.667969l19.53125-18.917969-14.4375 8.328125c-1.699219.960938-3.832032.644532-5.179688-.765625-1.347656-1.40625-1.570312-3.550781-.539062-5.207031l7.085937-10.972656c-2.0625.484375-4.167969-.617188-4.945313-2.582032-.78125-1.96875.003907-4.210937 1.835938-5.269531l13.929688-8.046875c1.695312-.957031 3.828124-.644531 5.175781.765625 1.351562 1.410157 1.570312 3.554688.539062 5.207031l-6.878906 10.660157 29.015625-16.761719c1.863281-1.078125 4.238281-.597656 5.539062 1.121094 1.296876 1.71875 1.105469 4.140625-.445312 5.640625l-19.523438 18.898437 44.570313-25.683594c1.921875-1.09375 4.359375-.539062 5.617187 1.277344 1.257813 1.820313.917969 4.296875-.78125 5.710938l-34.0625 27.929687 60.5-34.917969c1.964844-1.128906 4.472657-.523437 5.703126 1.378907 1.234374 1.902343.761718 4.4375-1.070313 5.769531l-38.125 27.554688 60.089844-34.703126c1.96875-1.128906 4.472656-.523437 5.703125 1.378907 1.234375 1.902343.765625 4.4375-1.070313 5.769531l-65.507812 47.464844 90.453125-52.234375c2.003906-1.140625 4.550781-.480469 5.75 1.484375 1.203125 1.96875.625 4.535156-1.304688 5.796875l-19.457031 12.527343 21.429687-12.324218c1.988282-1.113282 4.5-.46875 5.707032 1.46875 1.203125 1.933594.675781 4.476562-1.203125 5.769531l-61.585938 41.25 58.972657-34.058594c1.980468-1.117187 4.488281-.488281 5.707031 1.433594 1.214843 1.921875.710937 4.460937-1.148438 5.769531l-84.242187 58.28125 79.667968-46.003906c2.007813-1.175781 4.589844-.523438 5.800782 1.464844 1.210937 1.988281.605468 4.582031-1.363282 5.824218l-21.09375 13.578126 16.65625-9.617188c1.984376-1.136719 4.507813-.503906 5.726563 1.425781 1.21875 1.933594.699219 4.480469-1.179687 5.785157l-79.410157 54.441406 74.871094-43.214844c2.003906-1.164062 4.570313-.515625 5.78125 1.457031 1.214844 1.976563.628906 4.554688-1.316406 5.816407l-40.621094 26.527343 36.15625-20.863281c1.992187-1.070312 4.472656-.398438 5.65625 1.53125 1.183594 1.925781.65625 4.441406-1.199219 5.730469l-34.398437 22.390625 29.941406-17.277344c1.996094-1.085938 4.492187-.414062 5.675781 1.523438 1.1875 1.9375.644532 4.464843-1.230468 5.746093l-26.023438 16.800781 21.578125-12.449218c2.003906-1.121094 4.535156-.453125 5.730469 1.507812 1.191406 1.964844.617187 4.515625-1.300782 5.78125l-11.09375 7.074219 6.640626-3.824219c1.992187-1.097656 4.5-.4375 5.691406 1.503906 1.195312 1.941407.652344 4.472657-1.230469 5.757813l-36.554687 23.894531 32.09375-18.527344c2.003906-1.140624 4.550781-.484374 5.75 1.484376 1.203124 1.96875.625 4.535156-1.304688 5.796874l-14.507812 9.386719 10.105468-5.832031c1.964844-1.125 4.46875-.519531 5.703125 1.382812 1.234375 1.902344.761719 4.4375-1.070312 5.769532l-62.789063 45.414062 58.15625-33.570312c1.9375-1.085938 4.390625-.5 5.628906 1.347656 1.238282 1.847656.847657 4.335938-.894531 5.71875l-46.933593 36.265625 42.207031-24.351563c1.90625-1.085937 4.328125-.546874 5.59375 1.246094 1.265625 1.792969.964843 4.253906-.695313 5.691406l-30.167968 25.597657 25.269531-14.582031c1.863281-1.089844 4.246093-.617188 5.550781 1.105468 1.304688 1.71875 1.121094 4.144532-.429688 5.644532l-14.714843 14.191406 9.523437-5.488282c1.742188-.996093 3.945313-.640624 5.289063.847657 1.34375 1.492187 1.464843 3.71875.292969 5.347656l-5.648438 7.765625c1.855469.160156 3.390625 1.507812 3.796875 3.324219.402344 1.816406-.417969 3.6875-2.03125 4.621093l-13.816406 7.976563c-1.742188 1.015625-3.960938.664063-5.308594-.832031-1.351563-1.5-1.46875-3.738282-.28125-5.371094l4.550781-6.230469-21.710937 12.527344c-1.863281 1.089844-4.246094.617187-5.550781-1.101563-1.304688-1.722656-1.121094-4.144531.433593-5.648437l14.617188-14.214844-36.320313 20.964844c-1.90625 1.085937-4.328125.546875-5.59375-1.246094s-.964844-4.253906.695313-5.691406l30.183593-25.660156-56.472656 32.597656c-1.941406 1.109375-4.410156.53125-5.65625-1.324219-1.246094-1.859375-.847656-4.363281.910156-5.738281l46.933594-36.277344-75.058594 43.339844c-.644531.390625-1.378906.601563-2.132812.605469zm0 0" fill="#e4e8eb"/><path d="m299.164062 375.238281c-1.78125 0-3.375-1.109375-3.996093-2.777343-.621094-1.667969-.140625-3.550782 1.203125-4.714844l3.125-2.6875-3.566406 2.054687c-1.894532 1.09375-4.308594.578125-5.589844-1.195312-1.285156-1.769531-1.015625-4.226563.613281-5.683594l11.164063-9.949219-6.1875 3.566406c-1.871094 1.070313-4.242188.574219-5.53125-1.152343-1.289063-1.722657-1.089844-4.136719.460937-5.628907l16.0625-15.292968-11.011719 6.359375c-1.863281 1.105469-4.265625.632812-5.574218-1.09375-1.3125-1.730469-1.113282-4.167969.457031-5.667969l17.332031-16.773438-12.246094 7.054688c-1.914062 1.148438-4.390625.628906-5.679687-1.191406-1.289063-1.824219-.957031-4.332032.761719-5.753906l7.28125-6.238282-2.371094 1.367188c-1.851563 1.050781-4.191406.582031-5.492188-1.101563-1.300781-1.683593-1.160156-4.070312.328125-5.589843l19.917969-20.15625-14.753906 8.535156c-1.90625 1.09375-4.332032.5625-5.605469-1.226563-1.273437-1.789062-.976563-4.253906.679687-5.695312l8.089844-6.988281-3.164062 1.824218c-1.855469 1.03125-4.183594.542969-5.46875-1.140625-1.285156-1.6875-1.136719-4.058593.347656-5.574219l19.328125-19.351562-14.183594 8.183594c-1.902343 1.089844-4.320312.558594-5.59375-1.226563-1.273437-1.785156-.988281-4.242187.660157-5.6875l8.707031-7.550781-3.773438 2.167969c-1.914062 1.097656-4.351562.550781-5.617187-1.257813s-.941406-4.285156.746094-5.707031l4.726562-3.96875c-1.933594 1.015625-4.324219.40625-5.535156-1.414063-1.207032-1.820312-.851563-4.257812.832031-5.652343l3.585937-2.960938c-1.921874.394531-3.863281-.570312-4.707031-2.339843-.847656-1.769532-.375-3.886719 1.140625-5.132813l3.199219-2.613281c-1.820313.21875-3.574219-.75-4.363281-2.402344-.785156-1.65625-.429688-3.628906.890625-4.902344l17.695312-17.234375-12.59375 7.261719c-1.839843 1.046875-4.171875.589844-5.476562-1.082031-1.304688-1.671875-1.183594-4.042969.28125-5.574219l20.992187-21.703125-20.53125 11.855469c-1.835937 1.058594-4.171875.613281-5.488281-1.050782-1.3125-1.664062-1.203125-4.042968.257813-5.582031l20.964843-22.089843-39.03125 22.519531c-1.894531 1.074219-4.292969.554687-5.570312-1.210938-1.273438-1.765625-1.015625-4.210937.605469-5.667969l16.210937-14.421874-37 21.332031c-1.953125 1.121093-4.4375.53125-5.679687-1.34375-1.242188-1.875-.8125-4.394531.976562-5.753907l.238281-.179687-12.6875 7.320313c-1.882812 1.109374-4.300781.617187-5.597656-1.140626-1.296875-1.757812-1.058594-4.210937.554687-5.683593l17.867188-16.609375-40.683594 23.519531c-1.867187 1.105469-4.269531.636719-5.578125-1.09375-1.3125-1.730469-1.113281-4.167969.457031-5.664063l18.859376-18.226562-42.925782 24.769531c-1.941406 1.074219-4.378906.480469-5.609375-1.363281-1.234375-1.847656-.84375-4.328125.890625-5.710938l3.78125-2.90625c-1.894531.546876-3.917968-.277343-4.894531-1.988281-.972656-1.714843-.648437-3.875.789063-5.222656l6.445312-5.976563-1.410156.804688c-1.789063 1.019531-4.054688.617188-5.378906-.960938-1.324219-1.578124-1.335938-3.878906-.023438-5.464843l4.148438-4.976563c-.863282-.355468-1.578126-.988281-2.039063-1.800781-1.171875-2.035156-.480469-4.636719 1.554687-5.820313l13.925782-8.046874c1.789062-1.03125 4.0625-.628907 5.394531.949218 1.328125 1.582032 1.335937 3.890625.015625 5.476563l-1.023438 1.230469 13.472657-7.714844c1.882812-1.09375 4.285156-.59375 5.578125 1.15625 1.289062 1.753906 1.058594 4.195312-.542969 5.671875l-6.441406 5.972656 22.183593-12.800781c1.941407-1.074219 4.382813-.476563 5.613282 1.367187 1.230468 1.847657.84375 4.328125-.894532 5.707031l-3.042968 2.339844 16.3125-9.386718c1.867187-1.109376 4.269531-.636719 5.578125 1.09375 1.3125 1.726562 1.113281 4.167968-.457031 5.664062l-18.867188 18.21875 43.246094-25.003906c1.882812-1.109375 4.300781-.617188 5.597656 1.140625 1.300781 1.757812 1.058594 4.214843-.554688 5.6875l-17.917968 16.613281 40.59375-23.441406c1.949218-1.117188 4.433594-.527344 5.675781 1.347656s.816406 4.390625-.976563 5.753906l-.261718.1875 12.644531-7.289062c1.894531-1.078125 4.292969-.554688 5.570313 1.210937 1.273437 1.765625 1.015624 4.210938-.605469 5.667969l-16.210938 14.421875 28.332031-16.351563c1.832032-1.035156 4.144532-.582031 5.449219 1.074219 1.300781 1.652344 1.207031 4.007813-.230469 5.546875l-20.957031 22.101563 21.429688-12.363281c1.839843-1.050782 4.171875-.589844 5.476562 1.078124 1.304688 1.671876 1.183594 4.046876-.28125 5.578126l-20.976562 21.683593 15.78125-9.105469c1.863281-1.089843 4.246093-.617187 5.550781 1.105469 1.304688 1.71875 1.121094 4.144531-.433594 5.644531l-17.722656 17.261719 12.628906-7.277343c1.921875-1.074219 4.34375-.515626 5.59375 1.296874 1.253906 1.808594.921875 4.273438-.761718 5.691407l-3.203126 2.621093c1.566407-.175781 3.101563.515626 4.011719 1.796876 1.265625 1.824218.921875 4.316406-.792969 5.726562l-3.585937 2.960938c1.667969-.367188 3.390625.304687 4.363281 1.707031 1.269532 1.8125.941406 4.296875-.75 5.71875l-4.710937 3.949219c1.917969-.988282 4.269531-.386719 5.480469 1.394531 1.214843 1.785156.902343 4.191406-.71875 5.613281l-8.730469 7.585938 3.796875-2.183594c1.851562-1.019532 4.164062-.527344 5.445312 1.148437 1.28125 1.679688 1.144532 4.039063-.324218 5.558594l-19.328126 19.359375 14.179688-8.183594c1.902344-1.070312 4.308594-.535156 5.574219 1.242188s.988281 4.226562-.648438 5.671875l-8.089843 6.996093 3.164062-1.824218c1.851562-1.054688 4.191406-.585938 5.492188 1.097656 1.296874 1.6875 1.160156 4.070312-.328126 5.589844l-19.90625 20.148437 14.742188-8.53125c1.910156-1.105469 4.347656-.570312 5.617188 1.230469 1.273437 1.796875.96875 4.273438-.707032 5.707031l-7.316406 6.261719 2.40625-1.382812c1.867188-1.105469 4.269531-.636719 5.578125 1.09375 1.3125 1.730468 1.113281 4.167968-.457031 5.664062l-17.320313 16.769531 12.226563-7.050781c1.886718-1.164062 4.347656-.691406 5.671875 1.085938 1.320312 1.78125 1.058593 4.273437-.601563 5.742187l-16.078125 15.273437 11.007813-6.347656c1.875-.992187 4.195312-.457031 5.445312 1.257813 1.25 1.714843 1.050782 4.089843-.46875 5.570312l-11.128906 9.957031 6.1875-3.566406c1.902344-1.09375 4.328125-.5625 5.601562 1.226563 1.273438 1.789062.980469 4.253906-.679687 5.695312l-3.796875 3.292969c1.5625-.375 3.203125.140625 4.265625 1.347656 1.335937 1.546875 1.390625 3.820313.128906 5.425782l-4.839843 6.1875c1.671874.441406 2.910156 1.847656 3.140624 3.558593.230469 1.710938-.59375 3.390625-2.089843 4.257813l-13.816407 7.980468c-1.769531 1.023438-4.015624.648438-5.355468-.898437-1.34375-1.542969-1.402344-3.824219-.136719-5.433594l2.796875-3.566406-17.699219 10.238281c-.667969.382813-1.429687.570313-2.199219.546875zm0 0" fill="#cad0d7"/><path d="m352.488281 332.46875c-1.699219-.003906-3.234375-1.011719-3.910156-2.566406-.675781-1.558594-.363281-3.367188.796875-4.609375l6.558594-7.03125-17.355469 10.015625c-1.875 1.019531-4.21875.496094-5.480469-1.230469-1.261718-1.722656-1.050781-4.113281.488282-5.59375l12.058593-10.871094-7.066406 4.078125c-1.902344 1.09375-4.328125.5625-5.601563-1.226562-1.273437-1.789063-.980468-4.253906.679688-5.695313l8.429688-7.3125-3.507813 2.023438c-1.921875 1.078125-4.351563.515625-5.601563-1.300781-1.25-1.816407-.914062-4.285157.78125-5.699219l2.867188-2.328125c-1.464844.046875-2.851562-.648438-3.695312-1.84375-1.257813-1.839844-.886719-4.339844.851562-5.734375l2.960938-2.414063c-1.785157.113282-3.457032-.898437-4.179688-2.539062-.71875-1.644532-.339844-3.558594.957031-4.800782l16.578125-15.863281-11.503906 6.632813c-1.855469 1.054687-4.210938.574218-5.503906-1.125-1.296875-1.703125-1.128906-4.101563.386718-5.609375l18.242188-17.917969-13.125 7.574219c-1.878906 1.078125-4.269531.574219-5.554688-1.171875-1.285156-1.746094-1.054687-4.175782.53125-5.652344l14.035157-12.964844-9.011719 5.199219c-1.855469 1.042969-4.195312.558594-5.484375-1.136719-1.289063-1.691406-1.132813-4.078125.367187-5.589844l18.703126-18.53125-13.609376 7.796876c-1.851562 1.019531-4.164062.527343-5.445312-1.148438-1.28125-1.679688-1.144531-4.042969.324219-5.558594l19.242187-19.242187-14.097656 8.132812c-1.84375 1.050781-4.183594.585938-5.484375-1.097656-1.300781-1.679687-1.167969-4.058594.316406-5.585937l20.070313-20.382813-14.902344 8.601563c-1.914062 1.078124-4.332031.527343-5.589844-1.273438-1.261718-1.800781-.945312-4.265625.726563-5.691406l4.457031-3.738282c-1.867188.8125-4.050781.195313-5.210938-1.480468-1.160156-1.671875-.976562-3.933594.4375-5.394532l20.480469-20.953124-15.605469 9.011718c-1.863281 1.074219-4.230468.597656-5.53125-1.113281-1.296874-1.710937-1.121093-4.121094.410157-5.625l18.332031-17.964844-20.609375 11.894531c-1.929687 1.089844-4.371094.527344-5.621094-1.300781s-.898437-4.308593.816407-5.710937l3.847656-3.089844-11.851563 6.828125c-1.902343 1.070313-4.308593.535156-5.574219-1.242187-1.265624-1.777344-.984374-4.226563.648438-5.671876l14.125-12.226562-33.28125 19.199219c-1.945312 1.125-4.433594.542969-5.683594-1.328125-1.246094-1.871094-.828125-4.386719.957032-5.753906l2.851562-2.175782-16.121094 9.300782c-1.945312 1.078124-4.390625.484374-5.625-1.367188-1.230468-1.851562-.832031-4.339844.914063-5.714844l2.40625-1.835937-15.539063 8.960937c-1.925781 1.089844-4.367187.523438-5.621094-1.304687-1.25-1.828125-.894531-4.308594.816407-5.710938l9.386719-7.519531-25.265626 14.585938c-1.882812 1.125-4.316406.640624-5.621093-1.125-1.304688-1.761719-1.058594-4.230469.570312-5.703126l18.175781-17.066406-40.023437 23.125c-1.832031 1.046875-4.152344.601563-5.464844-1.054687-1.308593-1.652344-1.214843-4.015625.226563-5.558594l19.265625-20.4375-14.035157 8.097656c-1.746093 1.003907-3.953124.652344-5.300781-.84375-1.34375-1.496093-1.460937-3.730469-.28125-5.359375l5.640625-7.730468c-1.859375-.148438-3.410156-1.488282-3.820312-3.308594-.414063-1.824219.40625-3.699219 2.019531-4.636719l13.925781-8.046875c1.75-1.011719 3.964844-.660156 5.3125.839844 1.351563 1.503906 1.460938 3.746094.269532 5.371094l-4.554688 6.238281 21.75-12.542969c1.832031-1.046875 4.152344-.601562 5.464844 1.054688 1.308594 1.652343 1.214844 4.015624-.226563 5.558593l-19.257812 20.429688 46.855469-27.050781c1.882812-1.109376 4.300781-.617188 5.597656 1.140624 1.300781 1.757813 1.058594 4.210938-.554688 5.6875l-18.160156 17.066407 41.277344-23.871094c1.929687-1.109375 4.386718-.550781 5.648437 1.285156 1.257813 1.835938.894531 4.332031-.835937 5.730469l-9.386719 7.535156 25.207031-14.507812c1.945313-1.097656 4.414063-.511719 5.652344 1.347656 1.242188 1.863281.832031 4.363281-.933594 5.738281l-2.398437 1.832031 15.445312-8.917968c1.949219-1.125 4.4375-.542969 5.683594 1.328125 1.25 1.871093.832031 4.390625-.953125 5.757812l-2.859375 2.183594 14.992187-8.738281c1.90625-1.09375 4.328126-.566406 5.601563 1.226562 1.273437 1.789063.980469 4.253906-.675781 5.691406l-14.117188 12.214844 20.925782-12.023437c1.925781-1.09375 4.367187-.527344 5.621093 1.300781 1.25 1.828125.894531 4.308594-.816406 5.710938l-3.832031 3.089843 1.929687-1.109375c1.859375-1.074218 4.226563-.59375 5.527344 1.117188 1.300781 1.710937 1.125 4.121094-.410156 5.625l-18.335938 17.96875 13.269531-7.679688c1.84375-1.050781 4.179688-.585937 5.480469 1.09375 1.304688 1.675782 1.175781 4.054688-.300781 5.582032l-20.480469 20.921874 15.289063-8.824218c1.914062-1.078125 4.335937-.527344 5.59375 1.273437 1.261718 1.800781.945312 4.265625-.726563 5.691407l-4.488281 3.761718c1.871094-.847656 4.082031-.242187 5.257812 1.445313 1.179688 1.683593.988282 3.96875-.457031 5.433593l-20.070312 20.371094 14.902343-8.601562c1.847657-1.019532 4.164063-.527344 5.445313 1.148437 1.28125 1.679688 1.140625 4.039063-.328125 5.558594l-19.242188 19.242187 14.097657-8.132812c1.855469-1.042969 4.195312-.558594 5.488281 1.132812 1.289062 1.695313 1.132812 4.078126-.367188 5.589844l-18.664062 18.535156 13.570312-7.832031c1.878907-1.078125 4.269532-.574219 5.554688 1.171875s1.058594 4.175782-.53125 5.652344l-14.0625 12.988281 9.039062-5.214843c1.855469-1.054688 4.210938-.574219 5.503907 1.125 1.296875 1.703124 1.128906 4.101562-.386719 5.609374l-18.242188 17.917969 13.125-7.574219c1.871094-1.148437 4.304688-.683593 5.628907 1.066407s1.101562 4.21875-.511719 5.707031l-16.578125 15.863281 11.503906-6.628906c1.921875-1.082031 4.351563-.515625 5.601563 1.296875 1.25 1.816406.910156 4.289062-.78125 5.699219l-2.96875 2.425781c1.496094-.085938 2.933594.605469 3.796875 1.832031 1.25 1.839844.878906 4.332031-.855469 5.726563l-2.867188 2.328125c1.429688 0 2.777344.664062 3.652344 1.792969 1.277344 1.792968.980469 4.261718-.683594 5.699218l-8.410156 7.289063 3.488282-2.003907c1.878906-1.019531 4.21875-.496093 5.480468 1.230469 1.261719 1.722657 1.050782 4.113281-.488281 5.59375l-12.101563 10.941407 7.09375-4.097657c1.832032-1.058593 4.164063-.617187 5.480469 1.042969 1.3125 1.65625 1.214844 4.027344-.234375 5.570312l-6.570312 7.023438.71875-.410156c2.035156-1.15625 4.628906-.453125 5.800781 1.578125 1.175781 2.03125.488281 4.625-1.535156 5.8125l-25.515625 14.730469c-.648438.378906-1.382813.574218-2.132813.570312zm0 0" fill="#a9b0bb"/><g fill="#262626"><path d="m382.269531 319.90625c7.519531-12.054688 2.789063-36 2.789063-48.894531v-166.167969c-5.433594-19.988281-18.773438-18.109375-36.09375-18.722656-29.75-1.066406-59.734375 0-89.488282 0-12.640624 0-33.222656-3.609375-45.175781 3.328125-13.859375 8.035156-13.03125 22.707031-12.460937 36.835937-9.824219-1.089844-19.769532.277344-28.9375 3.976563-15.605469 8.269531-14.15625 24.355469-13.703125 39.816406-5.546875.324219-11.09375.769531-16.402344 1.546875-18.355469 2.667969-23.5 9.984375-26.09375 27.390625-5.007813 33.484375 0 71.5625 0 105.394531 0 28.28125-6.246094 64.367188 0 92.050782 5.214844 23.140624 22.367187 20.375 42.078125 20.375 36.394531 0 74.710938 3.585937 110.933594 0 17.066406-1.703126 25.941406-5.058594 30.027344-23.039063 1.273437-5.96875 2.113281-12.023437 2.511718-18.117187 14.300782.460937 29.789063.515624 37.714844-13.0625 4.039062-9.703126 5.421875-20.304688 4.003906-30.71875 14.027344.535156 30.515625.449218 38.296875-11.992188zm-105.992187 90.652344c-9.386719 4.265625-29.933594 0-40.515625 0-23.324219 0-95.683594 13.542968-106.726563-15.582032-7.492187-19.796874 0-56.261718 0-77.039062v-107.519531c0-28.894531 11.304688-32.554688 31.246094-32.710938 1.300781 1.105469 2.976562 1.660157 4.679688 1.546875h79.675781c27.628906 0 42.664062 1.339844 42.664062 32.347656v159.914063c-.015625.886719.328125 1.742187.949219 2.375-.308594 3.070313-.496094 6.175781-.855469 9.222656-1.550781 11.71875 3.945313 20.574219-11.117187 27.445313zm37.546875-43.992188c-3.695313.242188-7.402344.207032-11.09375-.101562.707031-24.855469-2.671875-51.941406-2.988281-74.914063v-62.171875c1.210937-12.875 1.183593-25.832031-.074219-38.699218v-.53125c0-.179688-.121094-.324219-.171875-.492188-.785156-4.515625-2.769532-8.738281-5.75-12.222656-10.832032-11.585938-34.042969-7.15625-48.019532-7.15625-4.265624 0-13.449218.375-23.953124.785156-17.535157-.71875-35.609376-1.828125-53.152344-1.433594-2.5625-7.640625 8.609375-29.867187 17.644531-33.09375 5.425781-1.550781 11.082031-2.128906 16.710937-1.707031.867188.339844 1.789063.523437 2.722657.539063h6.390625c6.3125.511718 12.421875 1.152343 17.175781 1.152343 4.148437 0 10.632813-.539062 18.269531-1.152343h37.839844c28.03125 0 41.972656 2.21875 44.523438 31.257812v142.113281c0 1.945313.085937 4.019531.207031 6.132813-.070313 5.054687-.128907 10.097656-.128907 15.113281 0 .582031.511719.929687 1.136719 1.179687.636719 15.496094-1.144531 30.617188-17.265625 35.402344zm29.796875-39.566406c-.519532-7.230469-1.203125-14.054688-1.203125-19.199219v-133.832031c.453125-7.222656.453125-14.464844 0-21.691406v-3.597656c0-.136719-.074219-.214844-.085938-.335938.042969-.28125.042969-.570312 0-.851562-.667969-2.402344-1.707031-4.6875-3.078125-6.765626-2.925781-5.382812-7.9375-9.324218-13.859375-10.898437-27.304687-11.734375-78.351562-2.210937-99.070312-2.210937-2.65625 0-5.726563-.179688-8.945313-.390626-6.824218-1.460937-7.933594-3.414062-3.046875-19.738281 6.433594-21.472656 26.070313-14.761719 43.828125-14.761719 21.957032 0 106.429688-14.191406 114.484375 15.410157v85.402343c0 34.207032 6.238281 74.980469 0 108.644532-1.902343 10.4375-15.472656 34.398437-28.996093 24.816406zm0 0"/><path d="m161.539062 220.050781h34.132813c3.09375.203125 6.167969-.625 8.746094-2.347656 1.457031-1.332031 2.066406-2.890625-.777344-2.890625h-34.132813c-3.09375-.203125-6.167968.621094-8.746093 2.34375-1.460938 1.332031-2.066407 2.894531.777343 2.894531zm0 0"/><path d="m161.554688 271.300781h85.332031c2.824219 0 14.054687-5.339843 7.9375-5.339843h-85.332031c-2.824219 0-14.054688 5.339843-7.9375 5.339843zm0 0"/><path d="m217.292969 366.59375h-51.199219c-6.996094 0-9.546875 8.875-1.144531 8.875h51.203125c6.996094 0 9.546875-8.875 1.140625-8.875zm0 0"/><path d="m254.867188 300.253906h-17.066407c-3.078125-.078125-6.113281.730469-8.738281 2.339844-1.765625 1.230469-1.871094 2.679688.714844 2.679688h17.066406c3.078125.082031 6.113281-.730469 8.738281-2.339844 1.769531-1.234375 1.871094-2.679688-.714843-2.679688zm0 0"/><path d="m166.136719 298.496094c-6.828125 0-9.652344 8.535156-1.226563 8.535156h34.132813c6.824219 0 9.648437-8.535156 1.226562-8.535156zm0 0"/><path d="m182.09375 341.617188c3.160156.035156 5.949219-2.070313 6.777344-5.121094.296875-3.269532-3.234375-4.265625-5.785156-4.265625h-17.070313c-3.160156-.039063-5.945313 2.066406-6.773437 5.121093-.296876 3.265626 3.234374 4.265626 5.785156 4.265626zm0 0"/><path d="m219.28125 333.960938c-3.914062 0-13.351562 5.871093-5.117188 5.871093h34.132813c3.914063 0 13.355469-5.871093 5.117187-5.871093zm0 0"/><path d="m248.40625 502.375c4.480469.113281 13.203125-6.492188 4.898438-6.6875-211.90625-5.046875-316.132813-255.148438-179.292969-410.453125v57.027344c0 2.140625 12.355469.347656 12.355469-3.3125v-68.265625c0-.4375-.621094-.675782-1.21875-.800782-1.882813-.535156-3.867188-.5625-5.761719-.078124h-63.480469c-2.71875 0-14.019531 5.1875-7.96875 5.1875h56.566406c2.46875 0 5.070313.222656 7.535156 0-153.675781 159.582031-45.039062 422.109374 176.367188 427.382812zm0 0"/><path d="m253.101562 0c-5.453124-.125-12.84375 7.988281-4.488281 8.195312 211.625 5.03125 315.730469 253.574219 179.085938 408.882813v-56.234375c0-1.65625-12.355469 0-12.355469 3.308594v66.722656c-.304688.621094-.203125 1.367188.257812 1.886719l.074219.066406c2.921875 1.777344 6.5625 1.898437 9.59375.316406h60.476563c2.472656 0 13.917968-4.769531 8.089844-4.769531h-56.570313c-2.328125 0-4.71875-.128906-7.054687 0 153.0625-159.632812 44.335937-423.101562-177.109376-428.375zm0 0"/></g></svg>