<svg height="506pt" viewBox="0 -2 506.64454 506" width="506pt" xmlns="http://www.w3.org/2000/svg"><path d="m253.773438 349.214844c-1.835938 0-3.464844-1.175782-4.046876-2.917969-.582031-1.742187.019532-3.660156 1.488282-4.761719l43.519531-33.050781-63.796875 36.828125c-1.992188 1.179688-4.558594.558594-5.789062-1.402344-1.230469-1.960937-.671876-4.546875 1.257812-5.824218l28.554688-19.371094-38.402344 22.144531c-1.992188 1.15625-4.539063.519531-5.757813-1.433594s-.667969-4.519531 1.246094-5.800781l33.550781-22.4375-40.703125 23.503906c-2.003906 1.242188-4.632812.625-5.875-1.378906-1.242187-2.003906-.625-4.632812 1.378907-5.875l36.949218-24.464844-43.007812 24.824219c-1.988282 1.152344-4.53125.523437-5.753906-1.421875-1.222657-1.945312-.6875-4.507812 1.214843-5.800781l70.40625-48.09375-77.898437 44.972656c-2 1.117187-4.523438.457031-5.722656-1.496094-1.195313-1.953125-.636719-4.5 1.265624-5.773437l37.503907-24.339844-40.046875 23.125c-1.988282 1.132812-4.515625.496094-5.726563-1.441406-1.214843-1.941406-.683593-4.492188 1.203125-5.785156l84.320313-57.171876-88.507813 51.164063c-1.988281 1.058594-4.457031.386719-5.636718-1.53125-1.179688-1.917969-.667969-4.421875 1.171874-5.722656l63.234376-41.386719-64.496094 37.207031c-1.996094 1.082031-4.492188.414063-5.675782-1.523437-1.183593-1.9375-.644531-4.464844 1.230469-5.746094l53.949219-34.859375-53.078125 30.632813c-1.304687.789062-2.933594.820312-4.265625.085937-1.335938-.734375-2.175781-2.128906-2.207031-3.652344-.03125-1.523437.753906-2.949219 2.058593-3.738281l24.882813-15.75-22.664063 13.082031c-2.007812 1.175781-4.589843.523438-5.800781-1.464843-1.210937-1.988282-.601562-4.578126 1.363281-5.824219l42.214844-26.980469-38.980468 22.507812c-1.996094 1.1875-4.574219.558594-5.800782-1.414062-1.226562-1.972656-.652344-4.5625 1.296875-5.828125l95.855469-64.078125-91.792969 53c-2.007812 1.085938-4.511719.402344-5.6875-1.550781-1.179687-1.957031-.609375-4.488281 1.292969-5.753907l7.148438-4.480468-2.753907 1.578125c-1.988281 1.117187-4.503906.472656-5.710937-1.464844-1.203125-1.933594-.675782-4.476563 1.203125-5.769531l95.574219-64.058594-91.066407 52.582031c-2.011719 1.125-4.550781.453125-5.742187-1.519531-1.1875-1.972656-.597656-4.535156 1.335937-5.785156l8.074219-5.121094-3.667969 2.117188c-2.003906 1.164062-4.570312.519531-5.78125-1.457032-1.214843-1.972656-.628906-4.554687 1.316407-5.8125l63.148437-41.191406-58.675781 33.878906c-1.988282 1.132813-4.515625.496094-5.730469-1.445312s-.679687-4.492188 1.207031-5.785156l87.039063-58.878907-82.515625 47.632813c-1.980469 1.085937-4.46875.4375-5.667969-1.476563-1.199219-1.914062-.699219-4.433593 1.144531-5.742187l79.257813-53.761719-74.742188 43.222656c-1.996093 1.113281-4.511719.460938-5.714843-1.480469-1.199219-1.945312-.65625-4.488281 1.234374-5.773437l48.640626-32.128906-44.160157 25.507812c-1.972656 1.109375-4.464843.484375-5.683593-1.421875-1.21875-1.902344-.742188-4.429687 1.089843-5.753906l75.835938-53.566406-71.15625 41.082031c-1.964844 1.101563-4.449219.484375-5.671875-1.40625s-.765625-4.40625 1.046875-5.746094l64.757812-46.710937-57.949219 33.460937c-1.988281 1.082031-4.476562.425781-5.667968-1.496093-1.195313-1.921876-.683594-4.441407 1.171875-5.742188l7.679687-5.121094c-1.875.640625-3.941406-.09375-4.992187-1.773437-1.21875-1.945313-.679688-4.503907 1.21875-5.792969l8.976562-6.070312c-1.515625.113281-2.984375-.5625-3.882812-1.789063-1.273438-1.804687-.960938-4.277344.71875-5.710937l24.925781-21.203126c-1.8125-.238281-3.269531-1.601562-3.628906-3.394531-.355469-1.789062.460937-3.609375 2.039062-4.527343l34.28125-19.796876c1.910156-1.105468 4.351563-.570312 5.625 1.234376 1.273438 1.804687.957032 4.285156-.726562 5.714843l-21.199219 18.019531 52.78125-30.480468c1.976563-1.074219 4.449219-.425782 5.648437 1.480468 1.195313 1.90625.707032 4.414063-1.117187 5.730469l-4.636719 3.15625 15.335938-8.847656c1.992187-1.132813 4.523437-.488281 5.734375 1.457031 1.210937 1.949219.664062 4.503906-1.238281 5.789063l-6.628907 4.417969 14.257813-8.234376c1.964844-1.101562 4.445312-.484374 5.667968 1.40625 1.222657 1.890626.765626 4.40625-1.042968 5.746094l-64.765625 46.703125 78.992187-45.621093c1.96875-1.09375 4.449219-.472657 5.667969 1.425781 1.214844 1.894531.746094 4.410156-1.070313 5.742187l-75.765624 53.53125 86.621093-50.007812c1.996094-1.15625 4.554688-.515625 5.769531 1.449218 1.214844 1.960938.648438 4.535157-1.28125 5.804688l-48.707031 32.171875 53.453125-30.875c1.988282-1.132813 4.515625-.496094 5.726563 1.445313 1.214843 1.941406.683593 4.492187-1.207031 5.785156l-79.265626 53.757812 84.71875-48.914062c1.988282-1.132813 4.515626-.496094 5.730469 1.445312 1.214844 1.941406.683594 4.492188-1.207031 5.785156l-87.039062 58.878907 90.171874-52.085938c2.003907-1.167969 4.570313-.519531 5.78125 1.453125 1.210938 1.976563.625 4.558594-1.320312 5.816406l-63.144531 41.214844 63.207031-36.539062c2.007812-1.125 4.550781-.453125 5.738281 1.519531 1.191407 1.972656.597657 4.535156-1.335937 5.785156l-7.925782 4.992188 6.21875-3.59375c1.984376-1.097657 4.484376-.453125 5.6875 1.472656 1.199219 1.925781.6875 4.453125-1.171874 5.757813l-95.574219 64.09375 93.234375-53.820313c2.011718-1.128906 4.550781-.453125 5.738281 1.519531 1.191406 1.972656.597656 4.53125-1.335937 5.785156l-7.183594 4.503907 3.292968-1.894531c1.988282-1.113282 4.503907-.46875 5.707032 1.46875 1.207031 1.933593.675781 4.476562-1.199219 5.769531l-95.824219 64.050781 91.308594-52.710938c1.996094-1.070312 4.480469-.390624 5.660156 1.542969 1.175782 1.933594.636719 4.453125-1.230468 5.734375l-42.222657 26.984375 37.800781-21.820312c2.003907-1.101563 4.523438-.425781 5.707032 1.53125s.613281 4.5-1.292969 5.765625l-24.960937 15.8125 20.546874-11.863282c1.996094-1.082031 4.492188-.414062 5.675782 1.523438s.644531 4.464844-1.230469 5.746094l-53.972656 34.886718 49.492187-28.585937c1.992188-1.058594 4.457032-.386719 5.636719 1.53125s.667969 4.421875-1.171875 5.71875l-63.148438 41.355469 58.71875-33.894532c1.988282-1.132812 4.515626-.496093 5.730469 1.441407 1.214844 1.941406.679688 4.492187-1.207031 5.785156l-84.328125 57.171875 79.804687-46.078125c2-1.117187 4.523438-.457031 5.71875 1.496094 1.199219 1.953125.640626 4.5-1.265624 5.773437l-37.542969 24.335938 33.054687-19.078125c1.980469-1.101563 4.480469-.464844 5.6875 1.453125 1.207032 1.917968.703125 4.445312-1.144531 5.757812l-70.382813 48.125 65.875-38.03125c1.996094-1.152344 4.546876-.507812 5.761719 1.449219 1.210938 1.960937.648438 4.53125-1.273437 5.804687l-36.957032 24.472657 32.46875-18.773438c1.988282-1.113281 4.503907-.46875 5.707032 1.46875 1.207031 1.933594.675781 4.476563-1.199219 5.769531l-33.554687 22.433594 27.683593-15.976562c1.988281-1.179688 4.558594-.554688 5.789063 1.40625 1.230468 1.960937.671875 4.542968-1.257813 5.824218l-28.554687 19.367188 20.949218-12.105469c1.953126-1.136719 4.449219-.554687 5.699219 1.324219s.820313 4.40625-.980469 5.765625l-43.519531 33.066406 28.75-16.589843c1.921875-1.078126 4.351563-.515626 5.601563 1.300781 1.25 1.816406.914062 4.285156-.78125 5.699219l-21.605469 17.527343c1.480469.636719 2.476563 2.054688 2.574219 3.664063.09375 1.613281-.726563 3.136718-2.121094 3.945312l-34.28125 19.796875c-1.921875 1.101563-4.367188.542969-5.625-1.28125-1.257812-1.820312-.914062-4.304687.796875-5.714843l13.25-10.777344-40.890625 23.644531c-.648438.378906-1.382812.574219-2.132812.574219zm0 0" fill="#a9b0bb"/><path d="m235.71875 477.496094c-1.703125-.003906-3.242188-1.015625-3.914062-2.578125-.671876-1.566407-.351563-3.378907.816406-4.617188l20.300781-21.519531-22.664063 13.03125c-1.863281 1.070312-4.230468.59375-5.53125-1.117188-1.300781-1.710937-1.125-4.121093.410157-5.625l21.894531-21.480468-14.839844 8.535156c-1.839844 1.0625-4.179687.609375-5.488281-1.0625-1.3125-1.671875-1.195313-4.050781.277344-5.585938l21.117187-21.945312-13.652344 7.867188c-1.859374 1.070312-4.230468.59375-5.527343-1.117188-1.300781-1.710938-1.125-4.121094.40625-5.625l14.054687-13.78125-7.148437 4.128906c-1.503907.867188-3.382813.738282-4.753907-.328125-1.371093-1.066406-1.957031-2.855469-1.484374-4.527343l4.265624-15.1875c-.710937-.367188-1.304687-.929688-1.707031-1.621094-1.179687-2.039063-.484375-4.648438 1.554688-5.828125l4.144531-2.398438c1.503906-.871093 3.382812-.746093 4.757812.320313 1.371094 1.0625 1.960938 2.855468 1.488282 4.527344l-3.503906 12.40625 27.304687-15.734376c1.863281-1.074218 4.230469-.597656 5.53125 1.113282 1.296875 1.710937 1.121094 4.121094-.410156 5.625l-13.976563 13.792968 10.511719-6.070312c1.839844-1.046875 4.167969-.589844 5.472656 1.078125 1.308594 1.664063 1.191407 4.039063-.265625 5.570313l-21.121094 21.964843 17.917969-10.34375c1.863281-1.070312 4.230469-.59375 5.53125 1.117188 1.296875 1.710937 1.125 4.121093-.410156 5.625l-21.90625 21.472656 18.699219-10.789063c1.828125-1.035156 4.140625-.582031 5.445312 1.066407 1.304688 1.652343 1.214844 4.003906-.214844 5.546875l-20.308593 21.539062 17.066406-9.855468c1.71875-.996094 3.898437-.667969 5.253906.785156 1.359375 1.457031 1.53125 3.660156.410157 5.308594l-6.03125 8.882812 1.277343-.742188c1.324219-.84375 3-.890624 4.371094-.125 1.367187.761719 2.207031 2.214844 2.1875 3.78125-.023437 1.566407-.902344 2.996094-2.289063 3.722657l-17.402343 10.054687c-1.722657.996094-3.90625.671875-5.261719-.785156-1.355469-1.460938-1.523438-3.664062-.402344-5.308594l6.042969-8.890625-26.164063 15.113281c-.644531.390626-1.378906.605469-2.132812.613282zm0 0" fill="#457393"/><g fill="#636c77"><path d="m315.359375 118.847656c-1.757813 0-3.335937-1.082031-3.972656-2.71875-.636719-1.636718-.207031-3.5 1.085937-4.6875l8.261719-7.585937-21.460937 12.382812c-1.816407 1.046875-4.121094.621094-5.445313-1.003906-1.320313-1.625-1.265625-3.972656.128906-5.535156l10.589844-11.859375-13.441406 7.753906c-1.75 1.007812-3.96875.644531-5.3125-.867188-1.339844-1.511718-1.4375-3.753906-.234375-5.378906l4.550781-6.058594c-1.816406-.230468-3.28125-1.597656-3.640625-3.394531-.359375-1.792969.46875-3.617187 2.050781-4.53125l14.039063-8.082031c1.753906-1.003906 3.972656-.640625 5.3125.871094 1.34375 1.507812 1.441406 3.753906.234375 5.375l-3.199219 4.269531 18.378906-10.609375c1.816406-1.046875 4.121094-.621094 5.445313 1.003906 1.320312 1.625 1.269531 3.96875-.128907 5.535156l-10.605468 11.867188 32.085937-18.515625c1.878907-1.0625 4.257813-.554687 5.535157 1.1875 1.277343 1.738281 1.054687 4.160156-.519532 5.636719l-8.257812 7.585937 5.578125-3.214843c1.585937-.914063 3.578125-.714844 4.949219.492187 1.375 1.210937 1.824218 3.160156 1.117187 4.847656l-4.597656 10.976563c2.074219-.972656 4.542969-.132813 5.597656 1.898437s.316406 4.535157-1.671875 5.667969l-10.632812 6.136719c-1.585938.914062-3.578126.714843-4.949219-.496094-1.375-1.207031-1.824219-3.15625-1.117188-4.84375l4.597657-10.949219-28.246094 16.238282c-.632813.386718-1.363282.59375-2.105469.605468zm0 0"/><path d="m156.425781 264.160156c-1.65625 0-3.160156-.957031-3.863281-2.457031-.703125-1.496094-.472656-3.265625.585938-4.539063l12.867187-15.4375-12.390625 7.074219c-1.457031.84375-3.277344.75-4.640625-.238281-1.378906-.980469-2.050781-2.683594-1.707031-4.34375l2.507812-11.757812c-.9375-.339844-1.722656-1-2.21875-1.867188-1.175781-2.042969-.476562-4.652344 1.5625-5.832031l4.265625-2.457031c1.464844-.847657 3.289063-.753907 4.65625.238281 1.367188.996093 2.015625 2.703125 1.660157 4.355469l-2.082032 9.71875 24.875-14.269532c1.789063-1.019531 4.054688-.617187 5.378906.960938 1.328126 1.578125 1.335938 3.878906.023438 5.464844l-12.851562 15.429687 33.65625-19.429687c1.710937-.988282 3.875-.671876 5.230468.765624 1.355469 1.433594 1.550782 3.613282.46875 5.265626l-10.660156 16.214843 13.125-7.578125c1.320312-.773437 2.957031-.78125 4.285156-.019531 1.324219.761719 2.144532 2.179687 2.140625 3.710937-.003906 1.53125-.828125 2.941407-2.160156 3.699219l-28.660156 16.542969c-1.710938.988281-3.875.671875-5.234375-.765625-1.355469-1.433594-1.546875-3.613281-.46875-5.265625l10.660156-16.214844-38.878906 22.445313c-.644532.382812-1.382813.585937-2.132813.585937zm0 0"/><path d="m177.210938 195.757812c-1.683594 0-3.207032-.988281-3.894532-2.527343-.6875-1.539063-.402344-3.335938.722656-4.589844l11.355469-12.652344-31.9375 18.4375c-1.785156 1.015625-4.035156.617188-5.363281-.945312s-1.355469-3.851563-.066406-5.445313l12.195312-14.90625-6.765625 3.90625c-1.496093.863282-3.367187.738282-4.734375-.316406-1.367187-1.054688-1.964844-2.828125-1.511718-4.496094l2.242187-8.171875c-1.421875-.691406-2.34375-2.109375-2.398437-3.691406-.054688-1.578125.765624-3.058594 2.132812-3.84375l4.269531-2.460937c1.496094-.867188 3.371094-.746094 4.746094.3125 1.371094 1.058593 1.964844 2.839843 1.507813 4.511718l-1.527344 5.578125 18.023437-10.375c1.78125-1.023437 4.042969-.632812 5.375.933594s1.355469 3.863281.058594 5.457031l-12.203125 14.910156 34.910156-20.164062c1.816406-1.050781 4.125-.621094 5.445313 1.007812 1.320312 1.628907 1.261719 3.972657-.136719 5.535157l-11.367188 12.664062 16.957032-9.78125c1.710937-.976562 3.867187-.65625 5.21875.777344 1.351562 1.433594 1.546875 3.605469.472656 5.257813l-5.539062 8.4375c1.800781-.355469 3.628906.464843 4.558593 2.050781 1.179688 2.039062.484375 4.644531-1.554687 5.828125l-14.019532 8.089844c-1.710937.984374-3.871093.671874-5.230468-.761719-1.359375-1.4375-1.554688-3.617188-.46875-5.273438l5.273437-8.046875-24.609375 14.207032c-.652344.371093-1.386718.558593-2.136718.546874zm0 0"/><path d="m162.851562 127.570312c-1.230468-.003906-2.398437-.535156-3.210937-1.460937-1.339844-1.53125-1.414063-3.792969-.175781-5.410156l12.933594-16.75-18.941407 10.878906c-1.492187.859375-3.351562.738281-4.71875-.308594-1.367187-1.042969-1.972656-2.804687-1.539062-4.46875l3.6875-14.0625c-1.5-.625-2.511719-2.046875-2.617188-3.667969-.101562-1.621093.722657-3.160156 2.132813-3.96875l4.480468-2.5625c1.488282-.859374 3.347657-.742187 4.71875.300782 1.367188 1.042968 1.976563 2.804687 1.542969 4.46875l-3.097656 11.792968 28.714844-16.535156c1.761719-1.007812 3.988281-.636718 5.328125.890625 1.335937 1.527344 1.414062 3.78125.183594 5.398438l-12.902344 16.75 31.683594-18.296875c1.878906-1.003906 4.210937-.476563 5.464843 1.246094 1.253907 1.71875 1.050781 4.101562-.480469 5.582031l-1.816406 1.628906 1.519532-.851563c1.8125-1.039062 4.105468-.609374 5.425781 1.007813 1.316406 1.621094 1.269531 3.953125-.109375 5.519531l-2.828125 3.164063c1.867187.144531 3.421875 1.480469 3.835937 3.304687.417969 1.820313-.398437 3.703125-2.015625 4.640625l-19.054687 10.972657c-1.8125 1.039062-4.109375.609374-5.425782-1.007813-1.320312-1.617187-1.273437-3.953125.109376-5.519531l1.246093-1.390625-13.902343 8.015625c-1.875 1.003906-4.207032.472656-5.464844-1.246094-1.253906-1.71875-1.050782-4.101562.480468-5.582031l1.808594-1.621094-14.863281 8.582031c-.648437.378906-1.382813.570313-2.132813.566406zm0 0"/><path d="m328.074219 263.914062c-1.691407.003907-3.222657-.992187-3.90625-2.535156-.6875-1.542968-.394531-3.347656.738281-4.597656l9.285156-10.242188-28.671875 16.539063c-1.835937 1.0625-4.175781.613281-5.488281-1.054687-1.3125-1.667969-1.199219-4.046876.265625-5.585938l11.445313-11.945312-18.859376 10.878906c-1.648437.945312-3.71875.6875-5.085937-.628906-1.367187-1.320313-1.695313-3.382813-.8125-5.0625l6.589844-12.441407-1.066407.617188c-2.027343 1.058593-4.527343.332031-5.671874-1.648438-1.144532-1.976562-.527344-4.507812 1.402343-5.734375l13.929688-8.046875c1.644531-.945312 3.71875-.6875 5.085937.632813 1.363282 1.316406 1.695313 3.378906.808594 5.058594l-6.585938 12.441406 31.851563-18.390625c1.839844-1.058594 4.179687-.609375 5.492187 1.058593 1.308594 1.667969 1.195313 4.046876-.269531 5.582032l-11.433593 11.945312 26.359374-15.214844c1.820313-1.046874 4.128907-.617187 5.449219 1.015626 1.320313 1.632812 1.253907 3.980468-.148437 5.539062l-9.292969 10.238281 3.925781-2.25c1.535156-.890625 3.464844-.734375 4.839844.390625s1.90625 2.984375 1.335938 4.667969l-2.816407 8.242187c.636719.371094 1.164063.902344 1.527344 1.539063.570313.980469.726563 2.144531.433594 3.242187-.292969 1.09375-1.011719 2.027344-1.992188 2.59375l-4.457031 2.558594c-1.539062.894532-3.46875.738282-4.84375-.390625-1.375-1.128906-1.90625-2.992187-1.332031-4.675781l1.707031-5.121094-17.605469 10.179688c-.644531.390625-1.382812.601562-2.132812.605468zm0 0"/><path d="m323.941406 195.648438c-1.683594 0-3.210937-.996094-3.894531-2.535157-.6875-1.539062-.398437-3.339843.730469-4.589843l12.441406-13.765626-32.921875 19.003907c-1.769531 1.023437-4.019531.648437-5.359375-.894531-1.335938-1.546876-1.390625-3.820313-.125-5.429688l11.808594-15.042969-15.964844 9.207031c-1.773438 1.011719-4.011719.628907-5.34375-.914062-1.335938-1.539062-1.390625-3.8125-.136719-5.417969l4.121094-5.246093c-1.105469-.285157-2.046875-1.003907-2.609375-1.996094-1.175781-2.039063-.480469-4.640625 1.550781-5.820313l13.929688-8.046875c1.769531-1.03125 4.027343-.65625 5.367187.894532 1.34375 1.550781 1.390625 3.835937.117188 5.445312l-2.082032 2.636719 15.898438-9.175781c1.769531-1.011719 4.007812-.632813 5.34375.90625 1.335938 1.542968 1.394531 3.808593.144531 5.417968l-11.8125 15.0625 37.308594-21.539062c1.816406-1.046875 4.128906-.617188 5.449219 1.015625 1.316406 1.628906 1.253906 3.980469-.148438 5.539062l-12.441406 13.746094 8.277344-4.769531c1.464844-.851563 3.296875-.753906 4.664062.25 1.367188 1 2.011719 2.71875 1.640625 4.375l-2.476562 10.992187c1.53125.597657 2.585937 2.019531 2.703125 3.660157.121094 1.640624-.710938 3.203124-2.136719 4.019531l-4.269531 2.449219c-1.464844.847656-3.296875.746093-4.664063-.257813-1.363281-1.003906-2.003906-2.722656-1.632812-4.378906l1.988281-8.839844-23.328125 13.433594c-.644531.390625-1.382813.597656-2.136719.605469zm0 0"/></g><path d="m177.914062 502.863281c-1.734374 0-3.296874-1.046875-3.949218-2.652343-.65625-1.605469-.277344-3.445313.960937-4.660157l18.988281-18.652343-23.398437 13.507812c-1.746094 1.035156-3.984375.675781-5.316406-.851562-1.347657-1.511719-1.449219-3.761719-.242188-5.386719l9.984375-13.398438c-1.835937.429688-3.742187-.386719-4.699218-2.011719-1.179688-2.042968-.480469-4.652343 1.558593-5.828124l16.503907-9.523438c1.753906-1.015625 3.976562-.660156 5.328124.851562 1.347657 1.511719 1.445313 3.761719.238282 5.386719l-9.722656 13.054688 34.570312-19.949219c1.859375-1.058594 4.210938-.578125 5.507812 1.125 1.292969 1.699219 1.128907 4.097656-.386718 5.605469l-19.011719 18.628906 44.003906-25.359375c1.886719-1.1875 4.367188-.726562 5.699219 1.0625 1.328125 1.789062 1.058594 4.296875-.621094 5.761719l-18.363281 17.433593 42.070313-24.285156c1.898437-1.070312 4.296874-.535156 5.566406 1.238282 1.265625 1.773437.992187 4.214843-.636719 5.664062l-15.101563 13.152344 34.738282-20.054688c1.835937-1.046875 4.160156-.59375 5.46875 1.066406 1.308594 1.660157 1.203125 4.027344-.246094 5.5625l-19.753906 20.703126 38.203125-22.050782c1.863281-1.089844 4.246093-.613281 5.550781 1.105469 1.304688 1.722656 1.121094 4.144531-.429688 5.644531l-13.40625 13.074219 16.816407-9.71875c1.660156-.957031 3.753906-.6875 5.121093.65625 1.363282 1.351563 1.65625 3.445313.71875 5.121094l-7.398437 13.164062 3.617187-2.082031c2.027344-1.058594 4.527344-.332031 5.671876 1.648438 1.144531 1.976562.523437 4.507812-1.40625 5.734374l-17.1875 9.890626c-1.664063.960937-3.765626.691406-5.132813-.660157-1.367187-1.351562-1.660156-3.449219-.71875-5.125l7.433594-13.117187-32.777344 18.902344c-1.863281 1.089843-4.25.613281-5.554687-1.105469-1.304688-1.71875-1.117188-4.144531.433593-5.644531l13.40625-13.074219-34.347656 19.824219c-1.835937 1.046874-4.160156.597656-5.46875-1.066407-1.308594-1.660156-1.203125-4.027343.246094-5.5625l19.730469-20.679687-47.386719 27.308594c-1.898438 1.070312-4.296875.535156-5.566407-1.238282-1.265624-1.773437-.992187-4.214844.636719-5.664062l15.109375-13.152344-34.738281 20.054688c-1.886719 1.1875-4.367187.722656-5.695313-1.0625-1.332031-1.789063-1.0625-4.300782.617188-5.765626l18.375-17.492187-42.046875 24.363281c-.65625.386719-1.402344.585938-2.164063.578125zm0 0" fill="#365972"/><path d="m3.78125 247.019531c4.640625-.539062 9.316406-.671875 13.976562-.394531-1.484374.519531 2.347657 5.914062 3.808594 9.558594l12.390625 30.96875c2.070313 5.203125 11.132813 2.039062 12.414063-2.21875 6.648437-22.109375 13.285156-44.214844 19.898437-66.324219 3.449219 8.632813 6.898438 17.257813 10.351563 25.875.6875 1.570313 2.246094 2.578125 3.960937 2.558594h30.0625c.789063 18.296875 4.832031 36.304687 11.945313 53.179687 19.816406 43.382813 60.109375 73.902344 107.238281 81.230469l-7.722656 70.441406c-32.75-.441406-60.167969 3.183594-60.167969 47.609375 0 2.105469 1.886719 3.011719 3.847656 3.011719h170.335938c3.667968.410156 8.875-1.585937 8.875-4.429687 0-23.570313-2.246094-41.984376-29.449219-45.679688-10.171875-1.195312-20.421875-1.578125-30.652344-1.132812-2.570312-23.484376-5.144531-46.972657-7.722656-70.460938 44.886719-7.925781 83.476563-36.398438 104.292969-76.945312 8.679687-18.367188 13.609375-38.277344 14.507812-58.574219 5.019532.105469 5.863282 1.707031 9.550782 10.890625l12.390624 30.96875c1.183594 2.976562 11.535157-.1875 12.285157-2.707032l19.867187-66.226562 10.511719 26.265625c.300781.757813 1.519531.980469 2.203125.980469h34.132812c2.773438 0 14.039063-5.273438 7.953126-5.273438h-21.332032c-3.425781.425782-6.886718.425782-10.308594 0l-.460937-.1875c.152344-.128906 0-.546875-1.023437-1.707031-7.996094-8.898437-11.402344-28.507813-15.917969-39.78125-1.183594-2.980469-11.535157.1875-12.285157 2.703125l-19.867187 66.230469-10.511719-26.265625c-.300781-.761719-1.519531-.984375-2.203125-.984375h-14.675781c1.125-21.042969 0-42.460938-.136719-63.144531h15.359375c2.558594 0 13.960938-4.933594 8.054688-4.933594h-23.953125c-1.707031-2.148438-6.527344-1.707032-9.472657 0h-21.109374c1.910156-42.425782 1.261718-87.765625-16.957032-119.140625-33.5-57.738281-113.699218-68.335938-164.0625-26.898438-19.339844 16.316407-32.195312 39.019531-36.230468 64-1 .707031-1.238282 1.28125-.324219 1.519531-.960938 5.121094-1.714844 10.3125-2.261719 15.582032-.152344.214844-.253906.464844-.300781.722656v2.699219c-1.332031 19.746093-1.507813 39.554687-.527344 59.324219h-52.496094c-7.101562 0-9.449219 9.179687-1.058593 9.179687h19.890624c-.144531 19.292969-1.253906 39.527344-.496093 59.488281h-12.339844c-3.277344.207032-6.566406.207032-9.84375 0-.085937-.148437-.085937-.207031-.191406-.367187-6.46875-12.765625-11.792969-26.078125-15.914063-39.785157-2.074218-5.203124-11.136718-2.046874-12.414062 2.21875-6.652344 22.152344-13.285156 44.28125-19.902344 66.382813-3.445312-8.628906-6.894531-17.253906-10.347656-25.875-.675782-1.582031-2.242188-2.59375-3.960938-2.558594h-17.066406c-5.53125.027344-12.765625 8.40625-4.4375 8.40625zm268.457031 204.492188h-37.640625l7.476563-68.164063c7.539062.453125 15.097656.421875 22.628906-.09375 2.503906 22.75 5.015625 45.5 7.535156 68.257813zm25.730469 8.371093c4.144531-.269531 8.304688-.269531 12.449219 0 19.53125 5.015626 21.90625 19.566407 22.1875 35.226563h-127.496094c-6.246094 0-25.292969 3.410156-32.035156.503906 2.117187-.136719-.324219-8.695312 1.253906-11.898437 5.121094-10.238282 11.597656-20.90625 22.648437-23.832032 8.226563-1.699218 16.664063-2.132812 25.019532-1.289062 1.324218 1.558594 3.320312 2.382812 5.359375 2.21875h49.089843c.582032.0625 1.167969.0625 1.75 0h.359376c1.710937.027344 3.367187-.605469 4.625-1.765625 4.925781.03125 9.847656.308594 14.746093.835937zm9.121094-271.847656c-14.089844-1.414062-19.011719-23.6875-3.652344-26.949218 5.542969-.53125 11.125-.53125 16.664062 0h29.621094v26.949218zm2.695312-76.449218c-.832031-.648438-1.84375-1.023438-2.898437-1.074219-6.675781-.199219-12.074219-5.496094-12.402344-12.167969-.328125-6.667969 4.523437-12.46875 11.144531-13.320312 5.355469-.578126 10.753906-.578126 16.105469 0h21.484375c1.988281 8.757812 3.453125 17.628906 4.394531 26.5625zm36.867188 144.894531h-19.988282c-11.09375 0-29.558593 3.253906-32.535156-11.835938-3.796875-19.207031 18.609375-15.359375 29.761719-15.359375h25.601563c-.480469 9.109375-1.425782 18.1875-2.839844 27.195313zm-95.636719-249.25c53.882813-.253907 78.679687 30.191406 89.867187 68.992187-11.855468-.238281-23.78125-.585937-35.523437.144532-27.8125 1.707031-32.480469 39.765624-2.878906 42.777343 1.558593.101563 3.109375-.273437 4.449219-1.074219h41.257812c1.046875 12.042969 1.414062 24.125 1.449219 35.753907-14.199219-.1875-28.492188-.648438-42.625.078125-11.53125-.449219-21.921875 6.933594-25.292969 17.972656-.964844 5.460938.433594 11.074219 3.855469 15.441406 3.417969 4.367188 8.53125 7.074219 14.066406 7.445313.808594.339843 1.683594.496093 2.558594.460937h47.855469c.058593 8.96875 0 18.046875-.324219 27.082032h-33.117188c-13.277343 0-29.746093.855468-34.355469 16.28125-9.113281 30.566406 40.566407 26.242187 63.078126 25.019531-8.414063 41.722656-30.914063 75.136719-89.429688 78.285156-58.496094 0-82.652344-35.796875-92.390625-79.257813 11.597656.164063 23.210937.351563 34.757813-.136718 10.585937.589844 20.59375-4.878906 25.820312-14.105469 5.394531-12.796875-4.308594-22.832031-16.058594-24.890625-.28125-.589844-1.261718-.988281-3.300781-.988281h-46.609375c-.589844-9.507813-.855469-18.96875-.855469-28.160157h40.105469c.757812.101563 1.523438.101563 2.28125 0 10.972656-1.109374 23.269531-5.71875 25.515625-18.007812 2.378906-13.070312-8.535156-21.042969-20.292969-21.570312-15.949218-.71875-32.0625-.101563-48.050781 0-.0625-9.457032 0-19.132813.417969-28.808594h31.488281c12.414063 0 27.84375.050781 34.574219-12.648438 9.59375-18.089844-9.386719-26.640625-23.890625-26.640625h-38.007813c8.234375-43.671875 30.617188-79.164062 89.605469-79.445312zm-46.136719 181.675781h-47.632812v-28.6875h25.898437c5.113281-.34375 10.246094-.34375 15.359375 0 5.792969.503906 10.863282 4.09375 13.269532 9.386719 2.492187 5.671875 1.628906 18.4375-6.894532 19.300781zm-5.121094 40.105469c.304688-.027344.605469-.070313.90625-.136719 11.449219 3.558594 19.328126 23.144531 5.117188 28.417969-5.074219.710937-10.222656.710937-15.300781 0h-28.160157c-1.765624-9.351563-3.007812-18.792969-3.726562-28.28125zm-39.246093-137.222657h23.253906c4.769531-.300781 9.550781-.300781 14.320313 0 12.550781 1.636719 23.226562 22.835938 7.738281 29.011719-4.921875.71875-9.925781.71875-14.847657 0h-23.039062c-2.945312 0-5.921875-.152343-8.859375 0-.53125.027344-1.066406 0-1.59375-.085937.503906-9.6875 1.511719-19.34375 3.027344-28.925782zm-15.90625 87.363282c.15625 5.828125.28125 11.613281.28125 17.273437 0 14.839844-.707031 30.042969 0 45.019531v2.101563c0 .109375.078125.167969.085937.273437.347656 5.941407 1.023438 11.859376 2.015625 17.730469-.214843.316407-.214843.570313.136719.742188 1.605469 10.144531 4.75 19.988281 9.324219 29.183593 18.4375 35.160157 54.886719 57.15625 94.585937 57.089844 56.132813-3.023437 96.988282-37.207031 108.003906-88.484375 1.195313-1.140625 1.597657-2.261719.683594-2.960937.859375-4.726563 1.460938-9.5 1.800782-14.292969.332031-.476563.515624-1.039063.519531-1.621094v-7.398437c.265625-16.800782 1.707031-36.359375 2.757812-56.746094h19.003907c.042968 22.117188.851562 44.371094 0 66.464844-2.476563 64.71875-46.625 121.335937-110.414063 130.449218-.757813-.203124-1.542969-.289062-2.328125-.253906-10.816406 1.121094-21.71875 1.136719-32.539062.042969-.8125-.0625-1.632813-.019531-2.4375.125-58.609376-9.480469-104.039063-56.320313-111.730469-115.191406-2.203125-26.457031-2.625-53.03125-1.261719-79.546875zm0 0" fill="#262626"/></svg>