<svg id="Layer_1" enable-background="new 0 0 91 91" viewBox="0 0 91 91" xmlns="http://www.w3.org/2000/svg"><g><path d="m38.8 23.1c-.4-2.9-.8-5.9-2.5-8.2-1.5-2.2-3.8-3.6-6.2-4.6-3.8-1.6-8.1-2.3-12.2-1.5s-8 3.1-10.3 6.6c-3 4.5-3.1 10.5-1.1 15.5s3.4 7.2 7.8 10.3c1.1.8 4.8 1.5 5.5 2.7.6 1 .8 4 1.1 5.1.8 3.9 1.6 7.7 3.4 11.2 2.8 5.3 6 10.1 9.8 14.7 1.5 1.8 2.9 3.3 5.1 5.5.9.9 2.2 1.9 3.4 2.2 1.9.5 3.5 0 5-1.2 4.7-3.8 15.8-11.2 20.5-32.2.3-1.5.7-3.1 1.7-4.3 1.6-1.9 4.4-2.4 6.6-3.6 3.9-2 6.5-6 7.8-10.2 2-6.5 1-14.6-4.4-18.8-1.7-1.3-3.6-2.2-5.6-2.9-5.4-1.8-11.7-2-16.3 1.3-5.2 3.8-6.6 11-7.1 17.4-.1.7-.1 1.4-.7 1.8-.4.3-1 .3-1.5.4-1.7 0-7.6 1.2-8.9-.1-.9-.9-.7-5.6-.9-7.1z" fill="#edcee3"/><path d="m67.2 18.2c2.1-2.9 6.6-4 9.9-2.6 2.7 1.2 4.1 4.2 4.7 7.1.1.5.1 1-.3 1.3-.6.4-1.3-.2-1.8-.7-1.8-1.7-4.7-1.2-7-.3-1.6.6-3.1 1.4-4.1 2.8-1 1.5-1.1 3.4-.8 5.1.4 1.8-9.3-.9-.6-12.7z" fill="#ecb3d2"/><path d="m27.6 27.2c.2-1.1.4-2.3.1-3.5s-1-2.3-1.7-3.3c-1.5-2-3.5-3.6-5.7-4.6s-4.9-1.2-7.3-.4c-3.1 1.2-5.3 4.1-7 6.9-.6 1.1-1.2 2.7-.1 3.4 1 .7 2.2-.2 3.2-.8 2-1.3 5.2-3.7 9.9-2.6 2.3.6 4 4 4.7 6.3.6 2.3 3.2 2.4 3.9-1.4z" fill="#ecb3d2"/><path d="m33.9 30c0 .3 4.5-.7 4.7-1.6 1.3-5-.2-10.7-3.7-14.5-3.5-3.9-8.9-5.9-14.1-5.6-1.6.1-9.1 2.1-7.1 4.7.6.8 3.4-.4 4.4-.1 2.4.8 15.5-.3 15.8 17.1z" fill="#fff"/><path d="m50.9 22.4c.6-2.8 1.9-5.8 3.8-7.9 2.1-2.4 5.3-3.5 8.4-4.4 2.4-.6 4.8-1.2 7.2-.8s4.8 2 5.4 4.3c.1.2.1.4 0 .6-.1.3-.6.7-.8.4-4.7-5.4-20.2-.2-18.5 15.1.1.4-.3.9-.7 1.1-1.6 1.1-4.7.7-5.3-1.2-.6-1.8.1-5.3.5-7.2z" fill="#fff"/><path d="m41.5 35.8c5.6-.4 11.1 1.2 16.6 1.9 1.4.2 3.3 0 3.5-1.4.2-1.1-.9-1.9-1.9-2.4-5-2.5-10.7-2.9-16.3-3.3-3.6-.2-10.4-1.1-13.2 1.9-5.6 5.7 8.9 3.4 11.3 3.3z" fill="#f3e1ee"/><path d="m59 66.6c-1.2 1.4-2.8 2.2-4.6 2.4-1.5.2-1.5.2-2.7.7-.3.1-1.5.6-1.2 1.4.1.1.2.2.3.3.5.5.5 1 .4 1.7-.1.9-1.1 1.3-2 1.4s-1.9.1-2.4.9c-.3.4-.4.9-.6 1.4-.4.6-1.2.8-1.9.9-1.1.1-2.5 0-2.9-1-.1-.3-.2-.8-.4-1.1-.4-.6-1.2-.5-1.9-.5s-1.6-.3-1.6-1c-.1-1.1 1.8-1.2 2.1-2.2.2-.8-.5-1.4-1.2-1.8-1.1-.5-2.2-.9-3.4-1.2-1.2-.2-2.7-.4-3.4-1.4-.2-.3-.4-.8-.8-.9-.5-.1-.8.4-.9.8-.3 1.3.4 2.6 1.2 3.6 2.9 4.2 6.2 8.1 9.8 11.6.3.3.6.6 1.1.8.9.4 2 0 2.9-.5 3.6-1.9 6.5-4.8 9.3-7.7.8-.8 1.6-1.6 2.4-2.4.9-.9 1.9-1.8 2.7-2.8 1.5-1.8 2.7-3.9 3.5-6.1.4-1.1-.1-2.5-1.2-1.4-1.2 1.2-1.6 2.9-2.6 4.1z" fill="#ecb3d2"/><g fill="#4e7a9f"><path d="m17.9 43.6c.9 16.2 11.6 32.7 24.2 42.4.7.5 1.7.4 2.4 0 16-8.6 23.9-25.6 27.9-42.6.7-3.2-4.2-4.5-4.9-1.3-3.3 15.9-10.6 31.8-25.4 39.9h2.4c-12.2-9.2-20.3-24-23.3-38.8-.4-1.9-3.4-1.5-3.3.4z"/><path d="m20.2 42c-5.4-2.9-10.3-6.7-11.8-13-1.6-6.7 1.7-13 7.8-15.8 5.6-2.6 13.5-.9 17.3 4 2.6 3.4 3 7.4 3.1 11.6 0 3.9 6.2 4 6.1 0-.1-6.4-1.4-12.4-6-17.1-6.1-6.2-16.9-7.3-24.4-3.3-7.6 4.2-11.7 13.1-9.5 21.7 1.9 7.5 8.5 14.9 16.8 14.4 1.2 0 1.9-1.8.6-2.5z"/><path d="m70.7 44.5c8.2.5 14.9-6.9 16.8-14.4 2.2-8.6-1.9-17.5-9.7-21.7-7.5-4-18.3-3-24.4 3.3-4.6 4.7-5.9 10.7-6 17.1 0 3.9 6.1 3.9 6.1 0 0-4 .4-7.9 2.8-11.2 3.8-5.2 11.8-7 17.6-4.3 6 2.8 9.3 8.9 7.9 15.4-1.3 6.4-6.3 10.3-11.8 13.3-1.3.7-.6 2.5.7 2.5z"/><path d="m32.2 32.8c3.7-.3 7-.6 10.8-.5 4.2.1 8.7-.3 12.7 1.2 2.5.9 3.6-3.2 1.1-4-4.7-1.6-10.1-1.1-15-1-3.3 0-8.4-.2-10.3 3.2-.3.4.1 1.2.7 1.1z"/><path d="m63.3 28.5c.8-2.3.5-4.7 1.9-6.9 1.1-1.8 2.7-3.1 4.7-3.9 4.5-1.7 8.9.4 11.8 3.9 1.6 1.9 4.4-.9 2.8-2.8-4-4.8-10.6-7-16.5-4.5-5 2.1-9.7 9-7.1 14.4.5 1.2 2.1.7 2.4-.2z"/><path d="m29.1 28.8c2.6-5.5-2.1-12.3-7.1-14.4-5.9-2.6-12.4-.4-16.5 4.4-1.6 1.9 1.2 4.7 2.8 2.8 2.9-3.5 7.3-5.6 11.8-3.9 2 .7 3.6 2.1 4.7 3.9 1.4 2.2 1.1 4.6 1.9 6.9.3.9 1.9 1.4 2.4.3z"/><g><path d="m51.8 71c3.8-.4 7.9-.2 11.6.6 1.9.4 3.7 1 5.5 1.7 1.7.7 2.6 1.5 4.5.9.8-.3 1.3-1.1 1.1-1.9-1-3.7-7.2-4.5-10.4-4.9-4.4-.6-8.9-.4-12.6 2.2-.7.4-.6 1.5.3 1.4z"/><path d="m48.9 75.7c3.6 1.1 7.2 1.3 10.7 3 1.6.8 3.1 1.8 4.5 2.9 1.3 1.1 1.9 2 3.7 1.9.8 0 1.5-.7 1.5-1.5.2-3.6-5.6-6.2-8.4-7.4-3.5-1.5-8.1-2.7-11.9-1.5-1.3.5-1.4 2.2-.1 2.6z"/></g><g><path d="m37.7 69.7c-3.7-2.6-8.2-2.8-12.6-2.2-3.2.4-9.4 1.2-10.4 4.9-.2.9.3 1.7 1.1 1.9 1.6.5 2.4 0 4-.7 1.9-.9 3.9-1.5 5.9-2 3.7-.8 7.9-1 11.6-.6.8.2.9-.9.4-1.3z"/><path d="m40.2 73.3c-3.8-1.2-8.4 0-11.9 1.5-2.8 1.2-8.6 3.8-8.4 7.4 0 .8.7 1.5 1.5 1.5 1.6.1 2.2-.6 3.3-1.6 1.5-1.3 3.1-2.3 4.8-3.2 3.4-1.7 7.1-1.9 10.7-3 1.2-.4 1.2-2.2 0-2.6z"/></g></g></g><g fill="#4e7a9f"><ellipse cx="32.2" cy="53.5" rx="2.7" ry="3.5" transform="matrix(.47 -.883 .883 .47 -30.14 56.727)"/><ellipse cx="57" cy="53.5" rx="3.5" ry="2.7" transform="matrix(.883 -.47 .47 .883 -18.431 33.081)"/></g></svg>