<svg height="506pt" viewBox="0 -2 506.47664 506" width="506pt" xmlns="http://www.w3.org/2000/svg"><path d="m243.699219 502.257812c-1.777344 0-3.367188-1.105468-3.992188-2.773437-.621093-1.664063-.144531-3.542969 1.195313-4.710937l25.703125-22.304688-47.140625 27.230469c-1.925782 1.148437-4.417969.605469-5.695313-1.242188-1.273437-1.847656-.898437-4.367187.859375-5.765625l40.207032-32.785156-60.117188 34.671875c-1.957031 1.140625-4.464844.550781-5.707031-1.34375-1.246094-1.890625-.796875-4.425781 1.023437-5.773437l43.570313-32.425782-58.257813 33.636719c-1.957031 1.121094-4.453125.523437-5.6875-1.363281-1.238281-1.886719-.789062-4.414063 1.019532-5.761719l56.382812-41.660156-71.636719 41.371093c-1.972656 1.125-4.476562.507813-5.703125-1.398437-1.230468-1.910156-.746094-4.445313 1.09375-5.769531l60.585938-43.222656-72.738282 41.992187c-1.996093 1.160156-4.554687.519531-5.769531-1.445313-1.214843-1.960937-.644531-4.535156 1.28125-5.808593l18.773438-12.335938-24.535157 14.128907c-1.988281 1.117187-4.5.46875-5.707031-1.464844-1.203125-1.9375-.675781-4.476563 1.203125-5.769532l14.242188-9.480468-18.585938 10.734375c-1.992187 1.132812-4.523437.488281-5.734375-1.460938-1.210937-1.945312-.664062-4.5 1.238281-5.785156l5.160157-3.414063-8.882813 5.121094c-1.953125 1.101563-4.425781.503906-5.660156-1.367187-1.234375-1.871094-.808594-4.382813.976562-5.742188l47.429688-35.378906-56.023438 32.34375c-1.960937 1.113281-4.457031.507813-5.6875-1.386719-1.230468-1.890625-.769531-4.417968 1.046876-5.757812l36.992187-26.871094-42.878906 24.746094c-1.984375 1.117187-4.496094.476562-5.707031-1.449219-1.210938-1.929687-.695313-4.46875 1.175781-5.769531l6.023437-4.085938-8.660156 5c-1.976562 1.136719-4.496094.523438-5.726562-1.394531-1.226563-1.917969-.734376-4.464844 1.125-5.78125l24.480468-17.308594-27.390625 15.8125c-1.957031 1.125-4.453125.527344-5.6875-1.363281-1.238281-1.886719-.789062-4.414062 1.019531-5.761719l35.15625-25.914062-39.34375 22.722656c-1.957031 1.128906-4.453124.539063-5.695312-1.34375s-.804688-4.410156 1-5.761719l37.886719-28.359375-42.425781 24.476563c-1.960938 1.105468-4.441407.5-5.671876-1.386719-1.230468-1.886719-.78125-4.402344 1.019532-5.75l31.820312-23.21875-33.875 19.558594c-1.992187 1.261719-4.628906.667969-5.886718-1.320313-1.261719-1.992187-.671876-4.628906 1.320312-5.890625l9.738281-6.699219-10.164062 5.863282c-1.953125 1.128906-4.449219.539062-5.695313-1.34375-1.242187-1.882813-.804687-4.410156 1-5.765625l39.007813-29.234375-41.839844 24.140625c-1.980469 1.117187-4.488281.488281-5.703125-1.433594s-.710938-4.457031 1.148438-5.765625l14.207031-9.839844-13.652344 7.859375c-1.949219 1.171875-4.472656.609375-5.742187-1.277343-1.269532-1.886719-.832032-4.4375.988281-5.796876l48.785156-37.769531-50.59375 29.277344c-1.953125 1.117187-4.4375.53125-5.679687-1.347656-1.242188-1.875-.816407-4.390625.976562-5.75l46.667969-35.089844-47.5625 27.425781c-1.980469 1.101563-4.476563.460938-5.6875-1.457031-1.207031-1.917969-.703125-4.445313 1.148437-5.753906l15.742188-10.777344-13.652344 7.894531c-1.953125 1.101563-4.425781.503906-5.660156-1.367187-1.234375-1.875-.808594-4.382813.972656-5.742188l53.8125-40.3125-53.265625 30.71875c-1.941406 1.0625-4.371094.460938-5.597656-1.382812-1.222657-1.84375-.835938-4.320313.898437-5.699219l55.898438-42.152344-53.929688 31.128906c-1.945312 1.21875-4.503906.675782-5.792968-1.222656-1.289063-1.898437-.84375-4.476562 1.007812-5.835937l43.160156-33.476563-39.75 23c-1.953125 1.144532-4.460937.5625-5.710937-1.324218-1.253907-1.886719-.8125-4.421876 1.003906-5.777344l22.738281-17.1875-18.96875 10.925781c-1.902344 1.070313-4.304687.539063-5.574218-1.242187-1.265626-1.777344-.984376-4.226563.652343-5.671876l24.855469-21.511718-18.773438 10.828125c-1.878906 1.035156-4.230468.511719-5.496093-1.214844-1.269531-1.730469-1.054688-4.132813.496093-5.609375l12.058594-10.957031-6.101562 3.523437c-1.835938 1.058594-4.167969.613282-5.484375-1.046875-1.3125-1.660156-1.210938-4.035156.246093-5.574219l6.601563-7c-1.222656.191407-2.46875-.160156-3.410156-.964843-1.378907-1.164063-1.875-3.070313-1.238281-4.761719l4.265624-11.277344c-.269531-.273437-.503906-.582031-.691406-.914062-1.171875-2.039063-.472656-4.644532 1.5625-5.820313l3.464844-2.003906c1.5625-.90625 3.523438-.730469 4.898438.4375 1.375 1.171875 1.867187 3.078125 1.226562 4.765625l-2.515625 6.65625 12.738281-7.355469c1.832032-1.046875 4.15625-.601562 5.464844 1.054688 1.3125 1.652343 1.214844 4.015625-.222656 5.558593l-5.898438 6.273438 15.359375-8.875c1.878907-1.035156 4.234375-.515625 5.5 1.214844 1.265625 1.730468 1.054688 4.132812-.496093 5.609375l-12.101563 10.992187 23.160156-13.371094c1.902344-1.09375 4.328125-.5625 5.601563 1.226563 1.273437 1.789063.980468 4.253906-.679688 5.695313l-24.875 21.511718 39.792969-22.972656c1.949219-1.109375 4.421875-.519531 5.664063 1.347656 1.242187 1.867188.824218 4.378906-.953126 5.742188l-22.691406 17.1875 34.277344-19.789063c1.945312-1.132812 4.433594-.5625 5.6875 1.304688 1.257812 1.867187.847656 4.386719-.933594 5.761719l-43.214844 33.476562 59.964844-34.613281c1.949219-1.09375 4.414063-.496094 5.648438 1.367187 1.234375 1.867188.816406 4.367188-.953125 5.734375l-55.894531 42.164063 55.082031-31.804688c1.953125-1.101562 4.425781-.507812 5.660156 1.367188 1.234375 1.871094.808594 4.378906-.976563 5.742187l-53.851562 40.316407 47.785156-27.601563c1.984375-1.136719 4.507813-.507813 5.726563 1.425781s.699219 4.480469-1.175781 5.78125l-15.769532 10.796875 12.335938-7.125c1.953125-1.117187 4.4375-.53125 5.679687 1.34375 1.242188 1.878907.816407 4.394531-.976562 5.753907l-46.683594 35.132812 44.253906-25.539062c1.941407-1.132813 4.429688-.5625 5.6875 1.304687 1.253907 1.867187.84375 4.386719-.9375 5.761719l-48.765625 37.765625 49.132813-28.363281c1.976562-1.078126 4.445312-.4375 5.648437 1.460937 1.207032 1.898437.726563 4.40625-1.089844 5.730469l-14.269531 9.890625 13.601563-7.847657c1.953125-1.105468 4.429687-.507812 5.660156 1.367188 1.234375 1.871094.808594 4.378906-.972656 5.738281l-38.972656 29.203125 41.113281-23.730468c1.992187-1.261719 4.628906-.671876 5.886719 1.320312 1.261718 1.992188.667968 4.628906-1.320313 5.886719l-9.789063 6.742187 10.417969-5.972656c1.964844-1.144531 4.484375-.550781 5.726563 1.359375 1.242187 1.90625.769531 4.449219-1.074219 5.785156l-31.804687 23.15625 35.355468-20.417969c1.953125-1.128906 4.449219-.539062 5.691406 1.34375 1.246094 1.882813.804688 4.410157-1 5.761719l-37.902343 28.359375 43.519531-25.097656c1.957031-1.121094 4.453125-.523438 5.6875 1.363281 1.238281 1.890625.789062 4.414063-1.019531 5.761719l-35.140625 25.890625 41.472656-23.945313c1.972656-1.136718 4.492188-.523437 5.722656 1.394532 1.230469 1.917968.734375 4.464844-1.125 5.78125l-24.507812 17.332031 30.875-17.816406c1.980468-1.085938 4.464844-.441407 5.664062 1.476562 1.199219 1.914063.699219 4.433594-1.144531 5.742188l-6.066406 4.113281 10.871093-6.273438c1.964844-1.117187 4.457032-.507812 5.6875 1.382813 1.230469 1.894531.773438 4.421875-1.042968 5.761719l-36.96875 26.863281 48.53125-28.023437c1.953125-1.105469 4.425781-.507813 5.660156 1.367187 1.234375 1.871094.808594 4.378906-.976562 5.738281l-47.445313 35.398438 65.332031-37.71875c1.996094-1.15625 4.554688-.515625 5.769532 1.445312 1.214843 1.964844.644531 4.539063-1.28125 5.808594l-5.121094 3.414062 15.761718-9.105468c1.988282-1.085938 4.472657-.429688 5.667969 1.492187 1.195313 1.921875.679688 4.441407-1.171875 5.742188l-14.214844 9.464843 33.28125-19.191406c1.992188-1.113281 4.511719-.460937 5.710938 1.480469 1.199219 1.945313.65625 4.488281-1.234375 5.773437l-18.753906 12.304688 24.386719-14.082031c1.972656-1.121094 4.476562-.507813 5.703124 1.402343 1.226563 1.90625.746094 4.441407-1.09375 5.765626l-60.585937 43.214843 60.074219-34.6875c1.957031-1.121093 4.453125-.523437 5.6875 1.363281 1.238281 1.886719.789062 4.414063-1.019532 5.761719l-56.414062 41.675781 56.039062-32.347656c1.957032-1.140625 4.460938-.550781 5.707032 1.339844s.796875 4.425781-1.023438 5.777344l-43.578125 32.425781 42.765625-24.6875c1.925782-1.097656 4.371094-.542969 5.628906 1.28125 1.257813 1.824219.914063 4.304687-.796874 5.714844l-40.183594 32.777343 39.738281-22.9375c1.902344-1.089843 4.324219-.5625 5.597656 1.222657 1.273438 1.785156.984375 4.246093-.664062 5.6875l-25.769531 22.34375 24.703124-14.253907c1.824219-1.058593 4.148438-.625 5.46875 1.019532 1.320313 1.644531 1.242188 4.007812-.1875 5.5625l-14.046874 15.359375 12.578124-7.253907c1.425782-.824218 3.199219-.753906 4.554688.179688 1.359375.933594 2.054688 2.5625 1.796875 4.1875l-1.222656 7.621094c1.609375-.070313 3.128906.746094 3.960937 2.125 1.171875 2.039062.480469 4.640625-1.554687 5.820312l-5.800781 3.355469c-1.425782.824219-3.199219.753906-4.554688-.179687-1.359375-.933594-2.054688-2.566407-1.796875-4.191407l1.128906-7.046875-28.785156 16.605469c-1.820313 1.046875-4.132813.609375-5.449219-1.027344s-1.246094-3.988281.167969-5.542969l14.039063-15.359374-39.253907 22.644531c-.636719.378906-1.359375.582031-2.101562.589843zm0 0" fill="#ac92ea"/><path d="m336.082031 159.0625c-1.8125.003906-3.429687-1.136719-4.03125-2.84375-.605469-1.710938-.0625-3.613281 1.351563-4.75l38.339844-30.855469-47.101563 27.1875c-1.96875 1.128907-4.472656.523438-5.707031-1.382812-1.230469-1.902344-.761719-4.433594 1.074218-5.769531l32.144532-23.210938-40.339844 23.28125c-1.941406 1.132812-4.429688.558594-5.6875-1.304688-1.253906-1.867187-.84375-4.390624.9375-5.761718l49.652344-38.433594-65.160156 37.546875c-1.949219 1.09375-4.414063.496094-5.644532-1.367187-1.234375-1.867188-.816406-4.367188.953125-5.734376l49.117188-36.898437-68.128907 39.339844c-2 1.15625-4.554687.515625-5.769531-1.445313-1.214843-1.964844-.648437-4.539062 1.28125-5.808594l3.71875-2.457031-14.992187 8.652344c-1.972656 1.109375-4.464844.484375-5.683594-1.421875-1.21875-1.902344-.738281-4.429688 1.09375-5.753906l47.109375-33.28125-83.421875 48.222656c-1.320312.839844-3 .890625-4.367188.125-1.367187-.765625-2.207031-2.214844-2.1875-3.785156.023438-1.566406.902344-2.996094 2.289063-3.722656l164.632813-95.050782c1.972656-1.109375 4.464843-.484375 5.683593 1.421875 1.21875 1.902344.742188 4.429688-1.089843 5.753907l-47.148438 33.28125 55.851562-32.230469c1.988282-1.101563 4.492188-.445313 5.6875 1.488281 1.199219 1.929688.671876 4.460938-1.199218 5.753906l-3.660156 2.433594 7.21875-4.171875c1.949218-1.09375 4.414062-.5 5.648437 1.367187 1.230469 1.863282.816406 4.367188-.957031 5.730469l-49.097656 36.890625 58.367187-33.707031c1.945313-1.140625 4.445313-.570313 5.703125 1.304687 1.253906 1.875.835938 4.402344-.960938 5.769532l-49.628906 38.46875 58.378906-33.699219c1.964844-1.128906 4.46875-.519531 5.703126 1.382813 1.230468 1.902343.761718 4.433593-1.070313 5.769531l-32.179687 23.246093 22.535156-13.015624c1.933594-1.117188 4.398437-.558594 5.660156 1.285156 1.257812 1.839844.886719 4.34375-.855469 5.738281l-46.472656 37.394531c1.535156.59375 2.589844 2.015625 2.714844 3.65625.121093 1.640625-.707031 3.203125-2.132813 4.023438l-36.039062 20.804687c-.648438.363281-1.386719.550781-2.132813.542969zm0 0" fill="#46ceac"/><path d="m120.34375 218.652344c-1.667969 0-3.183594-.976563-3.878906-2.492188-.695313-1.519531-.4375-3.300781.652344-4.566406l1.621093-1.867188-8.59375 4.957032c-1.898437 1.074218-4.304687.539062-5.570312-1.238282-1.269531-1.777343-.988281-4.226562.648437-5.671874l8.609375-7.460938-18.054687 10.414062c-2 1.066407-4.484375.390626-5.660156-1.546874-1.175782-1.933594-.636719-4.453126 1.230468-5.734376l113.714844-72.6875-129.074219 74.539063c-2.011719 1.230469-4.636719.597656-5.867187-1.410156-1.230469-2.011719-.597656-4.636719 1.410156-5.867188l136.59375-88.621093-155.117188 89.550781c-2 1.03125-4.457031.332031-5.617187-1.597657-1.15625-1.933593-.613281-4.429687 1.238281-5.707031l35.910156-22.1875-44.757812 25.867188c-2.015625 1.222656-4.640625.578125-5.863281-1.433594-1.222657-2.015625-.582031-4.640625 1.433593-5.863281l117.554688-74.984375-133.007812 76.800781c-2 1.117188-4.523438.457031-5.71875-1.496094-1.199219-1.953125-.640626-4.5 1.261718-5.773437l134.828125-87.261719-126.214843 72.847656c-2.007813 1.085938-4.511719.402344-5.691407-1.550781-1.175781-1.957031-.605469-4.488281 1.296875-5.753906l58.023438-36.453125-47.101563 27.195312c-2.007812 1.234375-4.636719.609375-5.871093-1.398437-1.234376-2.007813-.609376-4.636719 1.398437-5.871094l88.023437-57.378906-71 40.960937c-1.964843 1.058594-4.417968.417969-5.617187-1.464844-1.203125-1.882812-.746094-4.375 1.042969-5.710937l81.75-56.671875-54.015625 31.15625c-1.964844 1.128906-4.472657.519531-5.703125-1.382812-1.234375-1.902344-.761719-4.433594 1.070312-5.769532l40.105469-29.074218c-.867187-.351563-1.589844-.984376-2.054687-1.800782-1.179688-2.039062-.480469-4.648437 1.558593-5.828125l54.539063-31.476562c1.964844-1.101563 4.445312-.488281 5.667968 1.402343 1.222657 1.890626.765626 4.40625-1.042968 5.746094l-26.890625 19.542969 71.886719-41.496094c1.976562-1.105469 4.46875-.476562 5.683593 1.4375 1.210938 1.910157.722657 4.4375-1.117187 5.753907l-81.757813 56.679687 118.058594-68.15625c1.996094-1.136719 4.535156-.484375 5.742187 1.472656 1.203126 1.957031.640626 4.515625-1.273437 5.789063l-88.003906 57.371094 109.910156-63.457032c2.019531-1.214844 4.640625-.5625 5.859375 1.457032 1.214844 2.019531.5625 4.640624-1.457031 5.855468l-58.078125 36.4375 72.082031-41.617187c2.011719-1.226563 4.636719-.597657 5.867187 1.414062 1.230469 2.011719.597657 4.636719-1.414062 5.867188l-134.824219 87.261719 154.972657-89.429688c2.015624-1.222656 4.640624-.582031 5.863281 1.433594 1.222656 2.015625.582031 4.640625-1.433594 5.863281l-117.460937 74.921875 131.507812-75.945312c2.023438-1.210938 4.644531-.550782 5.851562 1.476562 1.210938 2.023438.546876 4.644531-1.476562 5.851562l-36.078125 22.265626 43.84375-25.3125c2.011719-1.230469 4.636719-.597657 5.867187 1.414062 1.230469 2.007812.597657 4.636719-1.414062 5.867188l-136.582031 88.59375 150.363281-86.828126c2-1.101562 4.511719-.429687 5.699219 1.515626 1.191406 1.949218.632812 4.488281-1.261719 5.761718l-214.449219 137.089844c.394531 1.558594-.117187 3.207031-1.332031 4.265625l-13.523438 11.726563c.867188.21875 1.640626.714843 2.207032 1.40625 1.324218 1.605468 1.296875 3.929687-.066406 5.503906l-6.296876 7.28125c.558594.367187 1.023438.859375 1.355469 1.441406 1.171875 2.039062.472657 4.640625-1.5625 5.820312l-12.796875 7.40625c-.652344.398438-1.398437.609376-2.160156.613282zm0 0" fill="#46ceac"/><path d="m314.042969 492.113281c-1.863281-.007812-3.507813-1.222656-4.0625-3.003906-.550781-1.777344.113281-3.710937 1.644531-4.773437l58.027344-40.105469-57.171875 32.980469c-1.984375 1.136718-4.507813.503906-5.726563-1.425782-1.21875-1.933594-.699218-4.480468 1.175782-5.785156l72.929687-50.039062-72.40625 41.816406c-2.019531 1.242187-4.660156.617187-5.90625-1.402344-1.242187-2.015625-.617187-4.660156 1.398437-5.902344l37.546876-24.339844-35.890626 20.71875c-2.007812 1.148438-4.566406.488282-5.765624-1.492187-1.199219-1.980469-.601563-4.554687 1.347656-5.800781l20.339844-12.980469-18.429688 10.648437c-1.996094 1.097657-4.5.4375-5.695312-1.503906-1.191407-1.9375-.648438-4.472656 1.230468-5.757812l63.769532-41.785156-62.660157 36.171874c-1.988281 1.113282-4.5.46875-5.707031-1.46875-1.207031-1.933593-.675781-4.476562 1.203125-5.769531l89.777344-59.953125-89.34375 51.601563c-1.992188 1.113281-4.511719.460937-5.710938-1.484375-1.203125-1.941406-.65625-4.488282 1.230469-5.769532l84.070312-55.390624-83.359374 48.128906c-1.996094 1.183594-4.578126.554687-5.804688-1.417969-1.226562-1.96875-.648438-4.5625 1.296875-5.828125l102.675781-68.683594-102.53125 59.1875c-2.003906 1.101563-4.519531.425782-5.707031-1.53125-1.183594-1.960937-.609375-4.503906 1.296875-5.765625l72.941406-46.082031c-1.378906-.664062-2.300781-2.019531-2.40625-3.546875-.105468-1.53125.617188-3 1.894532-3.851563l27.128906-18.011718-12.289063 7.082031c-1.996093 1.136719-4.535156.484375-5.742187-1.472656-1.203125-1.957031-.640625-4.515625 1.273437-5.789063l8.777344-5.777344c-2.007813.5-4.085937-.515624-4.929687-2.40625-.839844-1.894531-.199219-4.117187 1.519531-5.273437l28.328125-19.320313-19.183594 11.09375c-1.972656 1.121094-4.480469.5-5.699219-1.417968-1.222656-1.914063-.730469-4.449219 1.117188-5.765625l35.285156-24.746094-29.070313 16.785156c-1.972656 1.105469-4.464843.484375-5.683593-1.421875s-.742188-4.429687 1.089843-5.757812l34.007813-24.027344-28.785156 16.613281c-1.972657 1.136719-4.492188.523438-5.722657-1.394531-1.230468-1.917969-.734374-4.464844 1.125-5.78125l30.335938-21.445312-27.035156 15.609374c-1.96875 1.066407-4.429688.425782-5.632813-1.464843s-.734375-4.390625 1.070313-5.722657l20.195312-14.054687-17.3125 9.992187c-1.96875 1.113282-4.460937.5-5.683594-1.402343-1.226562-1.898438-.757812-4.421875 1.066407-5.753907l29.226562-20.910156-28.234375 16.300782c-1.957031 1.113281-4.441406.511718-5.675781-1.367188s-.800781-4.394531.996094-5.75l38.777343-28.75-39.101562 22.570312c-1.953125 1.128907-4.449219.539063-5.691406-1.34375-1.242188-1.882812-.804688-4.410156 1-5.761718l39.089844-29.320313-41.148438 23.722657c-1.957031 1.121093-4.449219.523437-5.6875-1.367188-1.238281-1.886719-.789062-4.410156 1.019531-5.757812l34.648438-25.601563-37.625 21.800781c-1.945313 1.117188-4.421875.539063-5.667969-1.324218-1.25-1.863282-.839844-4.375.933594-5.75l42.84375-32.859376-48.195313 27.816407c-1.988281 1.15625-4.53125.527343-5.753906-1.417969s-.6875-4.507812 1.214844-5.800781l24.746093-16.878907c-.757812-.335937-1.402343-.886718-1.859374-1.578124-1.242188-1.898438-.777344-4.4375 1.058593-5.777344l26.203125-19.207032c-.273437-.226562-.515625-.484374-.722656-.769531-1.289062-1.765625-1.03125-4.222656.597656-5.683593l26.894532-24.140626c-.183594-1.679687.644531-3.308593 2.109374-4.15625l7.484376-4.324218c1.875-1.007813 4.207031-.476563 5.460937 1.242187 1.257813 1.722657 1.050781 4.101563-.480469 5.582031l-5.324218 4.78125 6.828124-3.953124c1.960938-1.132813 4.46875-.535157 5.707032 1.363281 1.238281 1.898437.777344 4.429687-1.046875 5.773437l-5.539063 4.050782 6.945313-4c1.980469-1.101563 4.476562-.464844 5.683593 1.453124 1.207032 1.917969.707032 4.445313-1.144531 5.757813l-5.742187 3.925781 7.140625-4.125c1.945312-1.113281 4.425781-.535156 5.671875 1.328125s.839844 4.375-.933594 5.746094l-42.835938 32.847656 47.050782-27.164062c1.960937-1.121094 4.453125-.523438 5.691406 1.367187 1.234375 1.886719.789062 4.410156-1.023438 5.757813l-34.679687 25.601562 36.976563-21.332031c1.953124-1.128906 4.449218-.539062 5.691406 1.34375 1.242187 1.882812.804687 4.410156-1 5.761719l-39.074219 29.289062 41.8125-24.152343c1.957031-1.109376 4.441406-.511719 5.675781 1.367187 1.234375 1.882813.796875 4.398437-1 5.75l-38.773437 28.757813 39.644531-22.894532c1.96875-1.113281 4.460938-.496094 5.6875 1.402344 1.222656 1.898438.753906 4.425781-1.070312 5.757812l-29.210938 20.890626 29.253906-16.878907c1.972656-1.070312 4.433594-.429687 5.632813 1.460938 1.203125 1.894531.738281 4.390625-1.066407 5.722656l-20.199218 14.054687 19.738281-11.390624c1.972656-1.140626 4.492187-.527344 5.722656 1.390624 1.230469 1.921876.734375 4.464844-1.125 5.785157l-30.34375 21.445312 28.953125-16.71875c1.972656-1.109375 4.464844-.484375 5.683594 1.421875 1.21875 1.902344.742188 4.429688-1.09375 5.753906l-34.054688 24.074219 32.503907-18.773437c1.976562-1.121094 4.480469-.5 5.703125 1.417968 1.21875 1.914063.726562 4.449219-1.121094 5.765626l-35.277344 24.746093 33.714844-19.472656c1.988281-1.152344 4.53125-.523437 5.753906 1.421875 1.222656 1.941406.6875 4.507812-1.214844 5.796875l-28.191406 19.277344 25.105469-14.503907c1.992187-1.117187 4.511719-.464843 5.710937 1.480469 1.199219 1.941407.65625 4.488281-1.234374 5.769531l-6.289063 4.140626 2.5625-1.503907c1.992187-1.132812 4.523437-.488281 5.734375 1.460938 1.207031 1.945312.664062 4.503906-1.238281 5.785156l-26.972657 17.921875 23.40625-13.511719c2.003907-1.101562 4.523438-.425781 5.707032 1.53125 1.183594 1.960938.613281 4.503907-1.296875 5.765625l-34.132813 21.566406 30.207032-17.433593c1.992187-1.15625 4.542968-.523438 5.761718 1.429687 1.21875 1.957032.667969 4.523438-1.246094 5.804688l-102.664062 68.695312 96.8125-55.886718c2-1.199219 4.597656-.566407 5.820312 1.421874 1.226563 1.984376.628907 4.589844-1.34375 5.839844l-84 55.339844 77.363282-44.664062c1.992187-1.132813 4.523437-.488282 5.734375 1.457031 1.207031 1.949219.664062 4.503906-1.238281 5.789062l-89.804688 59.96875 81.066406-46.8125c1.988282-1.054687 4.457032-.386719 5.636719 1.53125s.667969 4.425781-1.171875 5.722657l-63.824219 41.8125 53.820313-31.070313c2.011718-1.148437 4.570312-.484375 5.765625 1.496094 1.199219 1.976562.605469 4.550781-1.34375 5.800781l-20.394531 13.015625 11.09375-6.402344c2.007812-1.230469 4.636718-.601562 5.871093 1.410157 1.230469 2.007812.601563 4.636718-1.410156 5.871093l-37.46875 24.277344 24.953125-14.398437c1.976562-1.089844 4.460938-.449219 5.664062 1.460937 1.207032 1.90625.714844 4.425781-1.117187 5.742187l-72.933594 50.054688 52.90625-30.53125c1.980469-1.117188 4.488281-.488281 5.703125 1.433594s.710938 4.460937-1.148437 5.769531l-58.023438 40.105469 29.746094-17.167969c1.972656-1.136719 4.492187-.523437 5.722656 1.394531 1.230469 1.917969.734375 4.464844-1.125 5.78125l-31.8125 22.484375c1.222657.824219 1.933594 2.21875 1.882813 3.691407-.054688 1.472656-.859375 2.8125-2.136719 3.546874l-54.613281 31.574219c-1.976563 1.136719-4.496094.523438-5.722656-1.394531-1.230469-1.917969-.734376-4.464844 1.121093-5.785156l10.582031-7.480469-39.917968 23.039063c-.648438.382812-1.390625.585937-2.140625.589843zm0 0" fill="#fdcd56"/><g fill="#262626"><path d="m434.429688 74.925781c-64.671876-62.5625-157.265626-86.914062-244.347657-64.257812s-156.070312 89.042969-182.054687 175.191406c-.074219.277344-.074219.574219 0 .851563-46.6875 188.058593 117.65625 344.234374 301.253906 307.492187 1.371094 1.035156 3.074219 1.53125 4.785156 1.398437 44.648438 0 99.617188-45.773437 127.445313-76.5625 41.25-46.347656 64.324219-106.0625 64.964843-168.105468-.914062-65.464844-26.445312-128.1875-71.519531-175.675782-.152343-.171874-.363281-.1875-.527343-.332031zm-69.394532 221.441407c-1.117187 2.847656-2.21875 5.714843-3.515625 8.472656l-.417969.851562c-1.621093 3.414063-3.414062 6.664063-5.296874 9.882813-.445313.742187-.855469 1.5-1.316407 2.242187-1.535156 2.503906-3.214843 4.898438-4.90625 7.289063-16.371093 22.136719-39.542969 38.304687-65.96875 46.027343-.378906.121094-.785156.324219-1.195312.503907-15.738281 3.820312-32.09375 4.363281-48.050781 1.597656-68.714844-13.320313-113.695313-79.730469-100.566407-148.480469 1.398438-6.261718 3.273438-12.40625 5.605469-18.382812 13.867188-35.816406 43.917969-62.921875 80.96875-73.035156 37.054688-10.113282 76.707031-2.035157 106.851562 21.769531 17.402344 14.882812 30.667969 34.011719 38.511719 55.527343 9.804688 27.777344 9.558594 58.117188-.703125 85.734376zm-311.507812-183.304688c85.8125-125.058594 260.085937-136.695312 368.050781-34.398438l-77.285156 75.886719c-4.941407-4.1875-10.152344-8.046875-15.601563-11.546875-28.59375-19.894531-63.925781-27.601562-98.207031-21.417968-48.683594 8.703124-88.84375 43.070312-104.960937 89.820312l-72.953126-20.265625c-2.285156-.632813-5.777343-1.210937-9.597656-1.851563l-20.574218-5.71875c-.632813-.367187-1.222657-.808593-1.757813-1.3125-5.675781-6.074218 25.214844-58.027343 32.886719-69.195312zm-34.695313 78.035156 97.765625 27.152344c8.003906 3.132812 1.824219-2.113281 4.136719 10.941406-2.527344 13.222656-2.851563 26.777344-.960937 40.105469.039062.359375 0 .734375.082031 1.09375.199219 1.425781.53125 2.808594.777343 4.214844.359376 2.03125.65625 4.070312 1.109376 6.058593 7.3125 33.390626 27.695312 62.457032 56.59375 80.707032 2.542968 1.621094 5.136718 3.152344 7.78125 4.59375 20.082031 11.40625 42.792968 17.367187 65.886718 17.296875 8.707032-.054688 17.386719-.9375 25.925782-2.636719.761718 2.316406 1.851562 4.511719 3.234374 6.519531 5.117188 19.828125 10.238282 39.664063 15.359376 59.5l11.253906 43.640625c-178.117188 35.074219-327.585938-124.664062-288.945313-299.1875zm423.449219 211.199219c-16.1875 20.746094-35.679688 38.679687-57.695312 53.085937-7.976563 5.242188-60.585938 35.125-64.230469 32.34375-6.167969-23.894531-12.339844-47.8125-18.515625-71.757812-3.136719-12.125-6.265625-24.25-9.386719-36.386719.71875-1.867187 2.167969-3.363281 4.007813-4.148437 3.277343-1.160156 6.511718-2.378906 9.660156-3.769532 4.339844-1.371093 8.542968-3.136718 12.554687-5.28125 38.972657-22.261718 64.289063-62.476562 67.515625-107.238281.289063-2.800781.648438-5.574219.777344-8.414062 0-.222657-.113281-.351563-.148438-.546875-.03125-.195313.121094-.289063.113282-.453125-.078125-1.570313-.339844-3.082031-.46875-4.632813-.5625-19.847656-5.761719-39.285156-15.183594-56.765625-2.023438-2.792969-4.203125-5.472656-6.527344-8.027343-4.246094-6.527344-9.046875-12.671876-14.351562-18.375 1.707031-1.902344 5.8125-4.90625 6.1875-5.621094.375-.71875.757812-1.1875 1.125-1.785156l21.265625-20.90625c2.558593-2.148438 5-4.265626 7.023437-6.230469l42.28125-41.511719c41.304688 45.523438 64.65625 104.503906 65.707032 165.964844-.503907 54.425781-18.648438 107.222656-51.710938 150.457031zm0 0"/><path d="m46.238281 266.789062c-.398437-5.28125-.578125-10.582031-.597656-15.871093 0-6.496094-12.550781-4.667969-12.523437.921875 0 6.101562.296874 12.183594.757812 18.261718.460938 5.640626 12.851562 2.679688 12.363281-3.3125zm0 0"/><path d="m51.804688 300.921875c-.691407-2.558594-13.066407.726563-12.367188 3.3125 20.980469 79.757813 84.933594 141 165.523438 158.515625 2.796874.636719 13.4375-3.910156 10.1875-4.652344-79.640626-17.5625-142.730469-78.269531-163.34375-157.175781zm0 0"/><path d="m256.773438 462.246094c-2.84375 0-5.6875-.054688-8.53125-.164063-3.082032-.097656-6.125.714844-8.746094 2.339844-1.84375 1.261719-1.800782 2.492187.6875 2.558594 2.847656.101562 5.691406.160156 8.535156.171875 3.078125.0625 6.113281-.75 8.746094-2.347656 1.785156-1.195313 1.859375-2.550782-.691406-2.558594zm0 0"/></g></svg>