<svg height="512" viewBox="0 0 62 60" width="512" xmlns="http://www.w3.org/2000/svg"><g id="021---Mobile-Pie-Chart" fill="none"><path id="Path" d="m11.31 59.479c-.2239873.0005517-.4210125-.1479266-.4822086-.3633927s.0283702-.4453414.2192086-.5626073l11.006-6.77-12.31 7.108c-.23617349.1361818-.537908.0580681-.67833183-.1756081-.14042384-.2336761-.06777083-.5367718.16333183-.6813919l20.514-12.875-20.462 11.814c-.2372063.1413849-.54411508.0637063-.68549997-.1735s-.06370631-.5441151.17349997-.6855l12.332-7.569-11.821 6.823c-.23583577.1260453-.52910097.0442222-.66561588-.1857118-.13651492-.2299339-.06795177-.5265795.15561588-.6732882l9.246-5.646-8.736 5.043c-.23583577.1260453-.52910097.0442222-.66561588-.1857118-.13651492-.2299339-.06795177-.5265795.15561588-.6732882l8.293-5.057-7.784 4.493c-.23583577.1260453-.52910097.0442222-.66561588-.1857118-.13651492-.2299339-.06795177-.5265795.15561588-.6732882l7.613-4.638-7.1 4.1c-.23551248.13196-.53324972.0531389-.67262044-.1780652-.13937073-.2312042-.07004227-.5312938.15662044-.6779348l20.82-13.087-20.308 11.723c-.23560872.1297647-.5316571.04988-.67000668-.1807924-.13834959-.2306723-.06941665-.5294607.15600668-.6762076l14.806-9.2-14.292 8.248c-.2372063.1413849-.54411508.0637063-.68549997-.1735s-.06370631-.5441151.17349997-.6855l7.62-4.685-7.108 4.1c-.23477127.1336383-.53323995.0566316-.67405087-.1739091-.14081092-.2305408-.07304023-.5312411.15305087-.6790909l16.938-10.892-16.418 9.479c-.2372063.141661-.54433894.0642063-.68599998-.173-.14166103-.2372063-.0642063-.544339.17299998-.686l3.854-2.382-3.341 1.929c-.23497088.1292146-.53003872.050062-.66879247-.179405-.13875376-.2294671-.07178369-.5275361.15179247-.675595l7.492-4.718-6.976 4.026c-.23520866.125628-.52761522.0445694-.66457305-.1842276-.13695782-.228797-.07026696-.5248112.15157305-.6727724l1.094-.68-.581.335c-.23308287.1306613-.52770735.0549657-.66894229-.1718661-.14123493-.2268319-.07915925-.5246238.14094229-.6761339l10.97-7.328-10.443 6.029c-.23365564.130691-.52879264.0541466-.66947868-.1736308s-.0769932-.5259521.14447868-.6763692l6.829-4.51-6.3 3.639c-.2341443.133112-.53165209.0568382-.67287099-.1725078-.1412189-.2293459-.07539606-.5293391.14887099-.6784922l3.246-2.127-2.726 1.575c-.23405687.1357068-.53360081.0606207-.67597038-.1694442-.14236958-.2300649-.07591293-.5316408.14997038-.6805558l2.261-1.495-1.736 1c-.23296731.1327691-.52919188.0581284-.67142871-.1691822-.14223683-.2273105-.07984054-.5263539.14142871-.6778178l2.207-1.5-1.677.968c-.22712724.1307942-.51670669.0640046-.66360351-.1530559-.14689683-.2170604-.10125056-.5107158.10460351-.6729441l4.443-3.487-3.885 2.246c-.22920156.1303039-.52019781.0602449-.66497921-.1600976-.14478139-.2203425-.09359105-.5152436.11697921-.6739024l.843-.627-.295.17c-.21842027.1276802-.49779411.0720852-.65069351-.1294872-.15289941-.2015724-.13113426-.4855915.05069351-.6615128l1.72-1.671-1.122.646c-.19506206.1127363-.44142814.0810927-.60166868-.0772792-.16024054-.1583718-.1947718-.4043498-.08433132-.6007208l.691-1.229c-.21561688-.0219965-.39251108-.1804032-.43807916-.3922948-.04556807-.2118916.05056711-.4290143.23807916-.5377052l1.188-.68c.1946054-.1119489.4399688-.0804606.6.077.1601101.1580917.1948985.4036571.085.6l-.6 1.065 3.024-1.742c.2184203-.1276802.4977941-.0720852.6506935.1294872s.1311343.4855915-.0506935.6615128l-1.719 1.67 4.265-2.461c.2292016-.1303039.5201978-.0602449.6649792.1600976s.0935911.5152436-.1169792.6739024l-.843.627 2.531-1.461c.2271272-.1307942.5167067-.0640046.6636035.1530559.1468968.2170604.1012506.5107158-.1046035.6729441l-4.442 3.486 7.471-4.312c.2325262-.1307666.5267591-.0559509.6685809.1700024s.0812744.5234503-.1375809.6759976l-2.212 1.5 4.068-2.346c.233204-.1287421.5263939-.0520483.6666872.1743946.1402933.226443.0784231.5231151-.1406872.6746054l-2.255 1.485 4.053-2.34c.2333291-.1269664.5252099-.0493179.6646076.1768043.1393976.2261221.0776459.5217747-.1406076.6731957l-3.25 2.126 5.158-2.977c.233204-.1287421.5263939-.0520483.6666872.1743946.1402933.226443.0784231.5231151-.1406872.6746054l-6.831 4.512 9.287-5.361c.2327769-.1270897.524286-.0503218.6642741.174934.139988.2252559.0797468.5206233-.1372741.673066l-10.962 7.326 14.159-8.175c.2356087-.1297647.5316571-.04988.6700067.1807924.1383496.2306723.0694166.5294607-.1560067.6762076l-1.111.691 2.681-1.548c.2349709-.1292146.5300387-.050062.6687925.179405.1387537.2294671.0717837.5275361-.1517925.675595l-7.485 4.714 9.649-5.57c.2362075-.133071.5354329-.0536509.6745599.1790411.1391271.2326919.0674613.5338687-.1615599.6789589l-3.869 2.388 5.625-3.246c.2343611-.1288923.5286543-.0505227.6678755.1778537.1392213.2283764.0740613.5258734-.1478755.6751463l-16.925 10.889 20.34-11.743c.2357179-.1278172.530297-.0469384.667702.1833224.137405.2302607.0687118.5279174-.155702.6746776l-7.638 4.7 9.624-5.556c.2356087-.1297647.5316571-.04988.6700067.1807924.1383496.2306723.0694166.5294607-.1560067.6762076l-14.81 9.206 16.76-9.675c.2346058-.1253855.5263122-.0451285.6637604.18262.1374483.2277485.0725112.523243-.1477604.67238l-20.813 13.08 20.9-12.063c.2354667-.1225198.5256326-.0396943.6609447.1886614.135312.2283558.0686058.5226457-.1519447.6703386l-7.638 4.653 7.129-4.115c.2358358-.1260453.529101-.0442222.6656159.1857118.1365149.2299339.0679517.5265795-.1556159.6732882l-8.265 5.038 7.751-4.475c.2358358-.1260453.529101-.0442222.6656159.1857118.1365149.2299339.0679517.5265795-.1556159.6732882l-9.252 5.651 8.743-5.048c.2353357-.1240261.5265799-.04207.6626998.1864836.1361199.2285535.0694507.5236725-.1516998.6715164l-12.324 7.566 11.813-6.82c.2361735-.1361818.537908-.0580681.6783318.1756081.1404239.2336761.0677709.5367718-.1633318.6813919l-20.51 12.873 20-11.545c.2353357-.1240261.5265799-.04207.6626998.1864836.1361199.2285535.0694507.5236725-.1516998.6715164l-11.017 6.774 10.5-6.063c.2369302-.1419371.5440628-.0649301.686.172.1419371.2369302.0649301.5440628-.172.686l-13.171 8.2 12.658-7.307c.2349709-.1292146.5300387-.050062.6687925.179405.1387537.2294671.0717837.5275361-.1517925.675595l-14.719 9.331 14.2-8.2c.2349709-.1292146.5300387-.050062.6687925.179405.1387537.2294671.0717837.5275361-.1517925.675595l-11.272 7.133 10.76-6.211c.234481-.1270728.5274228-.0477401.6657366.1802909.1383139.2280309.0733058.5244809-.1477366.6737091l-9.943 6.341 9.423-5.439c.2343611-.1288923.5286543-.0505227.6678755.1778537.1392213.2283764.0740613.5258734-.1478755.6751463l-8.522 5.48 8-4.62c.2335877-.1237383.5231326-.0442789.6608429.1813541s.0760007.5194731-.1408429.6706459l-6.085 3.919 5.565-3.212c.2340569-.1357068.5336008-.0606207.6759704.1694442s.0759129.5316408-.1499704.6805558l-6.858 4.544 6.332-3.655c.2338963-.1269547.5262491-.04845.6650871.1785941.1388379.227044.0755015.5230536-.1440871.6734059l-1.783 1.156 1.268-.731c.233204-.1287421.5263939-.0520483.6666872.1743946.1402933.226443.0784231.5231151-.1406872.6746054l-2.262 1.5 1.736-1c.2283835-.1299972.5184238-.0610156.6638282.1578813.1454044.2188968.0965443.5129964-.1118282.6731187l-5.73 4.352 5.179-2.989c.2259042-.1277621.5120042-.0614438.6586593.152678.1466552.2141217.1051039.5048532-.0956593.669322l-3.6 2.9 3.036-1.752c.2266506-.1274915.5131906-.0599635.6590607.1553189.1458701.2152823.1023667.5064398-.1000607.6696811l-.887.7.329-.189c.2154812-.1230022.4885691-.0693794.6415393.1259712.1529702.1953505.1395447.4733291-.0315393.6530288l-1.054 1.095.444-.256c.2043899-.1164622.4623195-.0746988.6195149.1003105s.1711367.435926.0334851.6266895l-.46.631c.1513453.09153.2430726.2562078.2412239.4330685-.0018487.1768608-.0969984.3395852-.2502239.4279315l-1.162.665c-.2046318.1173741-.4634625.0757527-.6209807-.0998572-.1575183-.17561-.1708642-.4374259-.0320193-.6281428l.082-.113-1.458.841c-.2155591.1245112-.4898785.0714871-.6435094-.1243861-.153631-.1958731-.1397727-.4749262.0325094-.6546139l1.055-1.1-3.248 1.879c-.2268147.12995-.5154475.0632557-.6622581-.1530278-.1468106-.2162836-.1022433-.50915.1022581-.6719722l.884-.7-2.641 1.525c-.2260575.1301558-.5141897.0646595-.6617686-.1504288-.1475789-.2150884-.1050107-.5074886.0977686-.6715712l3.6-2.9-6.451 3.723c-.2285788.1329729-.5211739.064966-.667677-.1551861-.1465031-.220152-.0962484-.5163129.114677-.6758139l5.731-4.353-8.98 5.184c-.2335451.1328438-.5303244.0573638-.6720248-.1709163s-.0776546-.5277351.1450248-.6780837l2.264-1.5-4.07 2.349c-.2342478.1308833-.5300435.0535271-.6702262-.1752769s-.074765-.527467.1482262-.6767231l1.784-1.149-3.475 2.006c-.233204.1287421-.5263939.0520483-.6666872-.1743946-.1402933-.226443-.0784231-.5231151.1406872-.6746054l6.859-4.545-9.346 5.395c-.2335877.1237383-.5231326.0442789-.6608429-.1813541s-.0760007-.5194731.1408429-.6706459l6.08-3.916-8.262 4.769c-.2343611.1288923-.5286543.0505227-.6678755-.1778537-.1392213-.2283764-.0740613-.5258734.1478755-.6751463l8.53-5.485-10.979 6.338c-.2348642.1312813-.531504.0531604-.6712412-.1767732-.1397372-.2299337-.0724576-.5292187.1522412-.6772268l9.941-6.339-12.462 7.194c-.2349709.1292146-.5300387.050062-.6687925-.179405-.1387537-.2294671-.0717837-.5275361.1517925-.675595l11.264-7.127-13.828 7.983c-.2341527.123715-.5241564.0433988-.6613045-.1831476-.1371481-.2265465-.0738659-.5207372.1443045-.6708524l14.736-9.34-17.658 10.194c-.2356087.1297647-.5316571.04988-.6700067-.1807924-.1383496-.2306723-.0694166-.5294607.1560067-.6762076l13.155-8.192-15.675 9.05c-.0754691.0444229-.1614274.0678974-.249.068z" fill="#1c85ad"/><path id="Path" d="m6.252 59.471c-.19953614.000503-.3802682-.1176791-.45981283-.3006752s-.04267096-.3957669.09381283-.5413248l1.448-1.548-3.415 1.972c-.22650697.1291681-.51424861.0625855-.66099174-.1529516-.14674314-.2155372-.10321493-.5076567.09999174-.6710484l.966-.765-1.366.788c-.22871944.1310429-.51988771.0620127-.66543532-.1577616-.14554761-.2197742-.09547523-.5147944.11443532-.6742384l.788-.594-.749.432c-.22906317.1321979-.52145682.063148-.66718057-.1575572-.14572375-.2207053-.09436905-.5167199.11718057-.6754428l1.128-.846-.744.43c-.22417026.1280952-.50900662.0644456-.65732826-.1468868-.14832165-.2113324-.11134683-.5008421.08532826-.6681132l3.665-3.094-3.093 1.786c-.22430147.1303348-.51102701.0674761-.66023074-.1447421s-.11132109-.5032983.08723074-.6702579l3.687-3.116-3.114 1.8c-.22991383.1328235-.52355008.0627731-.66874271-.1595365-.14519264-.2223096-.09129791-.5193359.12274271-.6764635l.528-.386c-.23072033.1225998-.51693435.046894-.65686513-.1737459-.13993077-.2206399-.08639509-.5118164.12286513-.6682541l1.543-1.167-.991.572c-.22744501.1317107-.51803557.064845-.66504038-.1530278-.14700482-.2178727-.10023334-.512366.10704038-.6739722l2.3-1.794-1.741 1c-.22829389.1373095-.52415411.0715078-.67272866-.1496202s-.09767809-.5199133.11572866-.6793798l2.165-1.679-1.609.933c-.22838347.1299972-.51842376.0610156-.66382816-.1578813-.14540441-.2188968-.09654436-.5129964.11182816-.6731187l1.581-1.2-1.029.594c-.22910753.1328305-.52204866.0639805-.668-.157-.14590523-.2210235-.09415717-.5174785.118-.676l1.27-.952-.72.415c-.22487263.1315945-.51310684.0684479-.6623629-.1451111-.14925605-.213559-.10949852-.5059386.0913629-.6718889l3.507-2.929-2.936 1.7c-.22575858.1294404-.51305935.0640705-.66058916-.1503047-.1475298-.2143751-.10595655-.5060712.09558916-.6706953l2.985-2.416-2.42 1.395c-.22389156.1275836-.5080784.0641108-.65641034-.1466086-.14833193-.2107193-.11222019-.4996603.08341034-.6673914l3.681-3.114-3.108 1.794c-.22805424.1290416-.51704704.0601323-.66233529-.1579314-.14528824-.2180638-.09758263-.5113034.10933529-.6720686l1.724-1.314-1.171.673c-.22914324.1380567-.52635802.0712921-.6744416-.1515028-.14808359-.2227948-.09456637-.5226782.1214416-.6804972l1.653-1.252-1.1.634c-.22315742.1321661-.5103255.0717573-.66132105-.1391158-.15099554-.2108731-.11568317-.5021938.08132105-.6708842l3.964-3.429-3.385 1.955c-.22852334.1282497-.51729518.0583047-.66180513-.1602995-.14450995-.2186041-.09572494-.5116937.11180513-.6717005l1.358-1.021-.808.466c-.2256098.1311968-.5141774.0668035-.66260926-.1478598-.14843186-.2146634-.10679385-.5073817.09560926-.6721402l3.223-2.644-2.656 1.533c-.22081444.1342809-.50757574.0781561-.66147362-.1294633s-.12421327-.4983097.06847362-.6705367l2.294-2.16-1.7.981c-.21036971.1193703-.47602238.0710392-.63086854-.1147762s-.15448043-.4558286.00086854-.6412238l.935-1.1c-.20507931-.0393096-.36413426-.2019238-.39889641-.4078227-.03476216-.2058989.06208975-.4117181.24289641-.5161773l1.933-1.116c.21070402-.121866.47855133-.0742927.63440169.1126784.15585036.186971.15441415.4590066-.00340169.6443216l-.7.82 2.893-1.67c.22081444-.1342809.50757574-.0781561.66147362.1294633s.12421327.4983097-.06847362.6705367l-2.293 2.162 4.234-2.442c.22531512-.1304911.5130605-.0662242.6614447.1477312.1483843.2139555.1077334.5059746-.0934447.6712688l-3.227 2.645 2.661-1.536c.22852334-.1282497.5172952-.0583047.6618051.1602995.14451.2186041.095725.5116937-.1118051.6717005l-1.355 1.02.806-.465c.22319408-.1282474.5072862-.0660776.6565145.1436697s.1148202.4985197-.0795145.6673303l-3.964 3.428 3.389-1.954c.22857883-.1329729.5211739-.064966.667677.1551861.1465031.220152.0962484.5163129-.114677.6758139l-1.648 1.25 1.1-.633c.22857883-.1329729.5211739-.064966.667677.1551861.1465031.220152.0962484.5163129-.114677.6758139l-1.73 1.321 1.175-.678c.22417026-.1280952.5090066-.0644456.6573283.1468868.1483216.2113324.1113468.5008421-.0853283.6681132l-3.681 3.108 3.11-1.8c.22575858-.1294404.5130594-.0640705.6605892.1503047.1475298.2143751.1059565.5060712-.0955892.6706953l-2.982 2.416 2.419-1.4c.22431645-.1264895.5080183-.0619132.6554889.1492026s.1104702.4997121-.0854889.6667974l-3.507 2.93 2.938-1.7c.22906317-.1321979.5214568-.063148.6671806.1575572.1457237.2207053.094369.5167199-.1171806.6754428l-1.274.954.726-.418c.22838347-.1299972.5184238-.0610156.6638282.1578813.1454044.2188968.0965443.5129964-.1118282.6731187l-1.575 1.201 1.024-.591c.22829389-.1373095.5241541-.0715078.6727287.1496202.1485745.221128.097678.5199133-.1157287.6793798l-2.169 1.681 1.613-.93c.22744501-.1317107.5180356-.064845.6650404.1530278.1470048.2178727.1002333.512366-.1070404.6739722l-2.3 1.8 1.747-1.008c.22838347-.1299972.5184238-.0610156.6638282.1578813.1454044.2188968.0965443.5129964-.1118282.6731187l-1.544 1.163.99-.571c.2296891-.1296297.5205695-.0585592.6646041.1623819s.0916869.5157667-.1196041.6736181l-.525.384c.22567849-.1157116.5022428-.0441345.6434524.1665307.1412095.2106652.1023318.493684-.0904524.6584693l-3.687 3.118 3.117-1.8c.22376059-.125536.506225-.0613343.6537387.148589s.1121964.4974311-.0817387.665411l-3.665 3.095 3.094-1.786c.22906317-.1321979.5214568-.063148.6671806.1575572.1457237.2207053.094369.5167199-.1171806.6754428l-1.13.847.582-.335c.22871944-.1310429.5198877-.0620127.6654353.1577616.1455476.2197742.0954752.5147944-.1144353.6742384l-.782.589.232-.133c.22634684-.1267998.5120755-.0594093.6579064.1551704.1458308.2145797.1033101.5050523-.0979064.6688296l-.968.767.409-.236c.21466809-.1242961.4880102-.0724133.6422041.1218961.154194.1943094.142615.4722908-.0272041.6531039l-1.448 1.547.834-.481c.17229571-.0992932.3870539-.0870462.5469446.0311905.1598907.1182366.2345161.3199843.1900554.5138095l-.3 1.3c.1036084.0418418.1902156.117183.246.214.1380647.2391402.0561341.5449248-.183.683l-.5.288c-.17246907.0995342-.38755853.0872401-.54756296-.0312978-.16000442-.1185379-.23441762-.3207192-.18943704-.5147022l.24-1.042-2.751 1.583c-.07482154.0454378-.16046848.0699577-.248.071z" fill="#ced2dc"/><path id="Path" d="m55.285 59.48c-.2003813-.0003954-.3811719-.1203838-.4593694-.3048777-.0781975-.1844938-.0386959-.3978529.1003694-.5421223l2.215-2.3-4.861 2.812c-.2233144.1304087-.509223.0690136-.6593121-.1415784-.150089-.2105921-.1148283-.5008847.0813121-.6694216l4-3.467-3.422 1.974c-.2287194.1310429-.5198877.0620127-.6654353-.1577616-.1455476-.2197742-.0954752-.5147944.1144353-.6742384l1.349-1.009-.8.46c-.2304184.1322364-.5240189.0611893-.6684864-.1617642-.1444674-.2229535-.0893536-.5199576.1254864-.6762358l.376-.272c-.2274305.0382334-.4515076-.0840469-.5424112-.2959972-.0909037-.2119503-.0250488-.4585799.1594112-.5970028l1.3-.98-.755.435c-.2283835.1299972-.5184238.0610156-.6638282-.1578813-.1454044-.2188968-.0965443-.5129964.1118282-.6731187l1.63-1.238-1.078.622c-.227871.1265147-.5147039.056766-.6590373-.1602571s-.0977476-.5085154.1070373-.6697429l1.679-1.279-1.12.644c-.2295527.1314921-.521805.0614183-.6667704-.1598726-.1449654-.2212908-.0924688-.5172061.1197704-.6751274l.818-.6-.271.157c-.2245855.1309436-.5120466.0679354-.6612702-.144943-.1492235-.2128783-.1104168-.5045939.0892702-.671057l3.619-3.049-3.047 1.757c-.2269587.1282325-.5143539.0605795-.6602778-.1554298-.145924-.2160093-.1014061-.5078844.1022778-.6705702l2.435-1.914-1.877 1.083c-.2231941.1282474-.5072862.0660776-.6565145-.1436697s-.1148202-.4985197.0795145-.6673303l3.989-3.458-3.412 1.969c-.2230711.126215-.5054574.0633143-.6538691-.1456472-.1484117-.2089616-.1147824-.4963073.0778691-.6653528l3.879-3.333-3.3 1.906c-.2256086.1271264-.5109479.0609576-.657579-.1524896-.1466312-.2134471-.106025-.5035297.093579-.6685104l3-2.432-2.439 1.407c-.2281943.1273484-.5159664.0574929-.6603781-.1603041-.1444117-.2177969-.0967481-.5100652.1093781-.6706959l1.485-1.123-.934.539c-.2295527.1314921-.521805.0614183-.6667704-.1598726-.1449654-.2212908-.0924688-.5172061.1197704-.6751274l.769-.567-.222.128c-.226047.126152-.5110038.0589101-.6568083-.1549885-.1458046-.2138986-.1042381-.5037159.0958083-.6680115l2.706-2.161-2.145 1.242c-.2280542.1290416-.517047.0601323-.6623353-.1579314-.1452882-.2180638-.0975826-.5113034.1093353-.6720686l1.759-1.344-1.206.7c-.2298363.1330914-.5236213.0632681-.669-.159-.1454846-.2224836-.091447-.5199102.123-.677l.6-.439-.053.03c-.2300482.1308569-.5222207.059778-.6664488-.1621318-.1442281-.2219099-.0905463-.5177734.1224488-.6748682l.352-.255c-.219841.0257928-.4304771-.0960295-.5177543-.2994454s-.0304215-.4400076.1397543-.5815546l2.652-2.217-2.082 1.2c-.2205392.1280792-.5021318.0696485-.6535046-.1356028-.1513729-.2052513-.124009-.4915375.0635046-.6643972l2.025-1.875-1.435.828c-.2167987.1191224-.4881174.0618073-.638215-.1348206s-.1338516-.473458.038215-.6511794l.482-.483c-.1506708.039188-.3109915.0071238-.435-.087-.1606861-.12464-.2298752-.3341841-.175-.53l.258-.931c-.1650336-.0820356-.271558-.2482063-.2772036-.4324183-.0056455-.184212.0905033-.356594.2502036-.4485817l.5-.288c.1758999-.1017412.3958789-.086907.5565266.0375291.1606478.1244361.2300074.3337208.1754734.5294709l-.173.622 2.057-1.189c.2167987-.1191224.4881174-.0618073.638215.1348206s.1338516.473458-.038215.6511794l-.437.436 2.005-1.157c.2205392-.1280792.5021318-.0696485.6535046.1356028.1513729.2052513.124009.4915375-.0635046.6643972l-2.024 1.875 3.22-1.859c.2244518-.1286386.5099659-.0648202.6582866.1471407.1483207.211961.1104625.5020607-.0872866.6688593l-2.655 2.22 2.81-1.621c.2294759-.1268358.5179525-.0548652.6609568.1648989.1430044.219764.0919582.5126682-.1169568.6711011l-.249.181c.1981596-.0326888.3972452.0528009.51.219.1454846.2224836.091447.5199102-.123.677l-.593.434.047-.026c.2280542-.1290416.517047-.0601323.6623353.1579314.1452882.2180638.0975826.5113034-.1093353.6720686l-1.764 1.348 1.211-.7c.226507-.1291681.5142486-.0625855.6609917.1529516.1467432.2155372.103215.5076567-.0999917.6710484l-2.706 2.157 2.145-1.238c.2295527-.1314921.521805-.0614183.6667704.1598726.1449654.2212908.0924688.5172061-.1197704.6751274l-.769.567.222-.128c.2281943-.1273484.5159664-.0574929.6603781.1603041.1444117.2177969.0967481.5100652-.1093781.6706959l-1.485 1.123.934-.539c.2256086-.1271264.5109479-.0609576.657579.1524896.1466312.2134471.106025.5035297-.093579.6685104l-3 2.432 2.44-1.41c.2230711-.126215.5054574-.0633143.6538691.1456472.1484117.2089616.1147824.4963073-.0778691.6653528l-3.879 3.333 3.3-1.907c.2231941-.1282474.5072862-.0660776.6565145.1436697s.1148202.4985197-.0795145.6673303l-3.991 3.461 3.414-1.971c.2269587-.1282325.5143539-.0605795.6602778.1554298.145924.2160093.1014061.5078844-.1022778.6705702l-2.431 1.911 1.873-1.081c.2241703-.1280952.5090066-.0644456.6573283.1468868.1483216.2113324.1113468.5008421-.0853283.6681132l-3.619 3.049 3.047-1.758c.228997-.1275142.5175965-.0565488.6613452.1626219.1437487.2191708.0938504.5121485-.1143452.6713781l-.824.609.277-.159c.227871-.1265147.5147039-.056766.6590373.1602571s.0977476.5085154-.1070373.6697429l-1.669 1.273 1.12-.646c.2283835-.1299972.5184238-.0610156.6638282.1578813.1454044.2188968.0965443.5129964-.1118282.6731187l-1.626 1.234 1.074-.619c.2285233-.1282497.5172952-.0583047.6618051.1602995.14451.2186041.095725.5116937-.1118051.6717005l-1.3.981.755-.436c.2304184-.1322364.5240189-.0611893.6684864.1617642.1444674.2229535.0893536.5199576-.1254864.6762358l-.376.272c.2274305-.0382334.4515076.0840469.5424112.2959972.0909037.2119503.0250488.4585799-.1594112.5970028l-1.348 1.014.8-.46c.2229237-.1277986.5064223-.0658196.6556784.1433455.1492561.2091652.11567.4974096-.0776784.6666545l-4 3.467 3.419-1.974c.2160105-.1246636.4908577-.0710795.6442199.1255968s.1383361.4762947-.0352199.6554032l-2.215 2.294 1.542-.89c.1549945-.0985297.351531-.1041539.5119064-.0146489.1603754.0895049.2587712.2597296.2562855.4433739s-.1054527.3511436-.2681919.436275l-4.622 2.669c-.0766792.044906-.1641455.068069-.253.067z" fill="#ced2dc"/><path id="Path" d="m23.726 42.118c-.190668-.0001635-.3646461-.1087522-.4485532-.2799652-.0839072-.1712131-.0631358-.3752435.0535532-.5260348l1.13-1.457-2.429 1.4c-.220439.1262233-.5004889.0670999-.6510942-.1374575-.1506054-.2045574-.1238973-.4895314.0620942-.6625425l2.6-2.4-3.766 2.173c-.2248836.1275609-.509928.0626394-.65739-.1497267-.1474621-.2123662-.1087026-.5021295.08939-.6682733l4.453-3.671-5.672 3.282c-.2298251.1278768-.5194281.0558458-.6625685-.1647961s-.0908781-.5144564.1195685-.6722039l4.067-2.94-4.752 2.743c-.230817.1267753-.5204005.0527915-.6621232-.1691615-.1417226-.221953-.0869993-.5157856.1251232-.6718385l5.1-3.584-5.725 3.308c-.2314518.1313128-.5252013.0583356-.6682918-.1660259-.1430904-.2243616-.0853808-.5214879.1312918-.6759741l7.629-5.36-8.313 4.8c-.2330829.1306613-.5277074.0549657-.6689423-.1718661-.1412349-.2268319-.0791592-.5246238.1409423-.6761339l5.719-3.829-6.061 3.5c-.1521951.0936036-.3427662.0989017-.4999268.0138987-.1571607-.0850031-.2570345-.2473934-.262-.426-.0049655-.1786067.0857317-.3462951.2379268-.4398987l3.906-2.553-4.053 2.34c-.2335451.1328438-.5303244.0573638-.6720248-.1709163s-.0776546-.5277351.1450248-.6780837l6.678-4.455-6.923 4c-.2354116.1379583-.5379577.061708-.6798637-.1713453-.1419059-.2330532-.070765-.5368414.1598637-.6826547l2.554-1.648-2.49 1.437c-.236654.1427656-.5442344.066654-.687-.17s-.066654-.5442344.17-.687l.216-.137-.1.056c-.2334461.1352991-.5321345.0609722-.6749447-.1679561-.1428102-.2289282-.0782242-.5298733.1459447-.6800439l8.82-5.938-8.848 5.108c-.2343611.1288923-.5286543.0505227-.6678755-.1778537-.1392213-.2283764-.0740613-.5258734.1478755-.6751463l3.495-2.245-3.277 1.89c-.234023.1252853-.5251579.0458598-.6631351-.1809119-.1379772-.2267718-.0746978-.5218373.1441351-.6720881l3.088-1.98-2.86 1.651c-.232645.1173931-.5164436.0364261-.65212499-.1860495-.13568136-.2224756-.07774662-.5118558.13312499-.6649505l2.463-1.57-2.045 1.18c-.2347713.1336383-.53323995.0566316-.67405087-.1739091-.14081092-.2305408-.07304023-.5312411.15305087-.6790909l3.894-2.5-3.483 2.007c-.2333482.1425022-.53788698.0711396-.6836338-.1601958-.14574682-.2313355-.07864387-.5368412.1506338-.6858042l10.7-7.319-10.115 5.839c-.2347713.1336383-.53323995.0566316-.67405087-.1739091-.14081092-.2305408-.07304023-.5312411.15305087-.6790909l4.71-3.047-4.063 2.346c-.2355494.1452509-.54424911.0720494-.6895-.1635s-.07204945-.5442491.1635-.6895l4.767-3.09-3.881 2.244c-.1514806.0946754-.3419632.1013451-.4996948.0174967-.1577316-.0838483-.258749-.2454762-.265-.424-.006251-.1785237.0832142-.3468213.2346948-.4414967l8.594-5.79-7.395 4.268c-.2327769.1270897-.524286.0503218-.6642741-.174934-.139988-.2252559-.0797468-.5206233.1372741-.673066l6.859-4.575-5.344 3.085c-.2325262.1307666-.5267591.0559509-.6685809-.1700024s-.0812744-.5234503.1375809-.6759976l5.464-3.715-3.332 1.924c-.2271272.1307942-.5167067.0640046-.6636035-.1530559-.1468968-.21706038-.1012506-.51071584.1046035-.6729441l4.36-3.422c-.2130528-.02671947-.3852576-.18648442-.4278471-.39693999s.0539469-.42460518.2398471-.53206001l5.222-3.015c.227445-.13171071.5180356-.06484496.6650404.15302777s.1002333.51236608-.1070404.67397223l-3.8 2.979 9.026-5.209c.2325262-.13076655.5267591-.05595091.6685809.17000241s.0812744.52345026-.1375809.67599759l-5.465 3.716 6.954-4.015c.2340027-.13899883.5362016-.06529813.6799386.16582441s.0762078.53476011-.1519386.68317559l-6.858 4.574 6.477-3.739c.23265-.12885992.5254615-.05304724.6663444.17252517s.0805297.52195667-.1373444.67447483l-8.594 5.791 8.229-4.751c.2355494-.14414631.5433537-.07004943.6875.16550001s.0700494.54335367-.1655.68749999l-4.765 3.084 4.367-2.521c.2347713-.13363828.5332399-.05663158.6740509.17390914.1408109.23054072.0730402.5312411-.1530509.67909086l-4.709 3.05 4.311-2.489c.2328603-.1351428.5309189-.06163618.6742423.16628028.1433233.22791645.080443.52839646-.1422423.67971972l-10.7 7.321 10.36-5.98c.2347713-.13363828.5332399-.05663158.6740509.1739091.1408109.2305408.0730402.5312411-.1530509.6790909l-3.894 2.5 3.49-2.014c.2348642-.1312813.531504-.0531604.6712412.1767732.1397372.2299337.0724576.5292187-.1522412.6772268l-2.46 1.569 2.049-1.183c.234023-.1252853.5251579-.0458598.6631351.1809119.1379772.2267718.0746978.5218373-.1441351.6720881l-3.095 1.988 2.686-1.55c.2358256-.1438702.5436298-.0693256.6875.1665s.0693256.5436298-.1665.6875l-3.48 2.235 3.073-1.774c.2329673-.1327691.5291919-.0581284.6714287.1691822.1422368.2273105.0798406.5263539-.1414287.6778178l-8.818 5.942 8.454-4.881c.234481-.1270728.5274228-.0477401.6657366.1802909.1383139.2280309.0733058.5244809-.1477366.6737091l-.348.221c.2237961-.0802048.4732669.0058627.6.207.1421861.2319183.0728694.5349566-.156.682l-2.562 1.642 2.152-1.242c.2340027-.1389988.5362016-.0652981.6799386.1658244s.0762078.5347601-.1519386.6831756l-6.675 4.453 6.295-3.633c.2337734-.1287456.5274505-.051198.667188.1761759.1397374.2273739.07627.5244122-.144188.6748241l-3.9 2.551 3.5-2.019c.232368-.1256461.5223842-.0488566.6621282.1753162.1397441.2241727.0809951.5183743-.1341282.6716838l-5.721 3.831 5.007-2.89c.2314518-.1313128.5252013-.0583356.6682918.1660259.1430904.2243616.0853808.5214879-.1312918.6759741l-7.633 5.362 5.759-3.328c.2317427-.1353654.5290201-.0636298.6735243.1625272.1445041.2261571.084687.5260601-.1355243.6794728l-5.1 3.582 3.434-1.983c.2304184-.1322364.5240189-.0611893.6684864.1617642.1444674.2229535.0893536.5199576-.1254864.6762358l-4.068 2.94 2.425-1.4c.2247421-.1254395.5079955-.0597743.6546194.1517571.1466238.2115314.1087109.4998143-.0876194.6662429l-4.449 3.668 2.464-1.421c.2203354-.1244491.4989119-.0646624.6487785.1392378.1498666.2039001.1237692.4876223-.0607785.6607622l-2.6 2.4.729-.421c.2068846-.1189418.4689871-.0751042.6259077.1046854.1569206.1797897.1649156.4454126.0190923.6343146l-1.428 1.84c.1082431.0404221.1988496.1175792.256.218.1373847.2389169.0555349.543953-.183.682l-1.485.858c-.0760934.0434562-.1623766.0658899-.25.065z" fill="#a083ee"/><path id="Path" d="m34.414 29.212c-.2183253-.0000793-.4113554-.1418057-.4768151-.3500867-.0654598-.2082809.0117883-.4349519.1908151-.5599133l7.272-5.067-10.12 5.839c-.2324067.1328499-.5282158.0590851-.6710333-.1673329s-.0819688-.5251514.1380333-.6776671l9.076-6.22-8.543 4.932c-.233204.1287421-.5263939.0520483-.6666872-.1743946-.1402933-.226443-.0784231-.5231151.1406872-.6746054l5.391-3.563-4.865 2.809c-.2334461.1352991-.5321345.0609722-.6749447-.1679561-.1428102-.2289282-.0782242-.5298733.1459447-.6800439l6.2-4.158-5.671 3.276c-.2327769.1270897-.524286.0503218-.6642741-.174934-.139988-.2252559-.0797468-.5206233.1372741-.673066l4.8-3.191-4.273 2.464c-.2324067.1328499-.5282158.0590851-.6710333-.1673329s-.0819688-.5251514.1380333-.6776671l6.595-4.535-6.062 3.5c-.2304519.1256553-.5188365.0517188-.6604036-.1693153-.1415671-.2210342-.088116-.5139083.1224036-.6706847l6.943-4.9-6.405 3.7c-.2329673.1327691-.5291919.0581284-.6714287-.1691822-.1422368-.2273105-.0798406-.5263539.1414287-.6778178l3.026-2.035-2.5 1.44c-.2305507.1302945-.5227069.0582293-.6662193-.1643342-.1435123-.2225634-.0886-.5184238.1252193-.6746658l5.497-3.932-4.952 2.86c-.2334461.1352991-.5321345.0609722-.6749447-.1679561-.1428102-.2289282-.0782242-.5298733.1459447-.6800439l.6-.4-.069.039c-.2318603.1330617-.527371.0602043-.6708066-.1653857-.1434357-.22559-.0840493-.5240996.1348066-.6776143l2.36-1.647-1.826 1.049c-.2313246.1263251-.5209869.0513891-.6620294-.1712679-.1410425-.2226569-.0850249-.5165645.1280294-.6717321l.734-.508-.2.115c-.2247363.1292165-.510959.0652384-.6592891-.1473681-.1483301-.2126064-.1095663-.5033193.0892891-.6696319l4.355-3.618-3.785 2.186c-.2262036.12844093-.5131028.06198425-.6597948-.15283334-.1466919-.21481759-.1041677-.50622684.0977948-.67016666l2.066-1.649-1.5.868c-.216466.12484815-.4918692.07071175-.6449718-.12678306s-.1368886-.4776996.0379718-.65621694l2.266-2.309-1.659.958c-.2167987.11912235-.4881174.06180726-.638215-.13482062-.1500976-.19662789-.1338516-.47345796.038215-.65117938l.51-.51c-.1528353.05064173-.3207057.02458646-.451-.07-.1595231-.11645775-.2355416-.31590856-.194-.509l.266-1.243c-.0884682-.04410511-.1616344-.11378719-.21-.2-.1375532-.23865551-.0561721-.54361136.182-.682l.439-.254c.1710722-.09933045.3846226-.08846285.5447273.02772123.1601047.11618407.2366578.3158375.1952727.50927877l-.2.949 2.181-1.264c.217123-.12066677.4899085-.06364101.6405105.13389861s.1333491.47568743-.0405105.65310139l-.48.478 1.541-.889c.2167744-.12657022.4937926-.07279378.6474656.12568993.1536729.1984837.1363597.48014172-.0404656.65831007l-2.262 2.308 4.106-2.37c.226047-.12615201.5110038-.05891014.6568083.15498849.1458046.21389863.1042381.50371591-.0958083.66801151l-2.068 1.651 3.111-1.8c.2245986-.12700926.5089574-.06225633.656419.14947682.1474617.21173315.109592.50090228-.087419.66752318l-4.354 3.62 5.782-3.337c.2313246-.1263251.5209869-.05138908.6620294.17126786s.0850249.51656459-.1280294.67173214l-.737.51 1.235-.713c.232192-.13787542.5319082-.06647123.6769921.16128616.1450839.22775738.0831069.529564-.1399921.68171384l-2.366 1.651 2.905-1.676c.232368-.12564615.5223842-.0488566.6621282.17531617.1397441.22417276.0809951.51837437-.1341282.67168383l-.594.4.907-.524c.2305507-.13029452.5227069-.05822926.6662193.16433419.1435123.22256344.0886.51842379-.1252193.67466581l-5.495 3.933 6.222-3.592c.2334461-.13529908.5321345-.06097219.6749447.16795606.1428102.22892826.0782242.52987333-.1459447.68004394l-3.022 2.032 3.321-1.917c.2310609-.12980827.523268-.05677568.6660866.16647793.1428185.2232536.086628.51916126-.1280866.67452207l-6.942 4.9 7.534-4.35c.2324067-.13284986.5282158-.05908515.6710333.16733285s.0819688.52515145-.1380333.67766715l-6.6 4.535 6.922-4c.2340027-.1389988.5362016-.0652981.6799386.1658244s.0762078.5347601-.1519386.6831756l-4.79 3.186 4.973-2.871c.2334461-.1352991.5321345-.0609722.6749447.1679561.1428102.2289282.0782242.5298733-.1459447.6800439l-6.204 4.166 6.267-3.618c.233204-.1287421.5263939-.0520483.6666872.1743946.1402933.226443.0784231.5231151-.1406872.6746054l-5.387 3.56 5.405-3.12c.2321092-.1290838.5246372-.0541763.6661393.170578.1415021.2247542.0825963.5209195-.1341393.674422l-9.08 6.223 9.05-5.224c.2311923-.1280141.5220815-.054013.6639947.1689178.1419132.2229309.0858401.5178012-.1279947.6730822l-7.265 5.064 7.146-4.121c.2300482-.1308569.5222207-.059778.6664488.1621318.1442281.2219099.0905463.5177734-.1224488.6748682l-5.584 4.063 5.193-3c.2269587-.1282325.5143539-.0605795.6602778.1554298.145924.2160093.1014061.5078844-.1022778.6705702l-3.848 3.008 3.369-1.943c.2244518-.1286386.5099659-.0648202.6582866.1471407.1483207.211961.1104625.5020607-.0872866.6688593l-1.838 1.538 1.16-.669c.1948982-.1130323.4413194-.0817533.6017966.0763881.1604773.1581413.195366.4040773.0852034.6006119l-.914 1.627c.2402552-.0501762.4814063.0814499.5691637.3106635.0877575.2292135-.0038297.4882329-.2161637.6113365l-1.405.812c-.1948982.1130323-.4413194.0817533-.6017966-.0763881-.1604773-.1581413-.195366-.4040773-.0852034-.6006119l.889-1.584-4.559 2.632c-.2248726.1315945-.5131068.0684479-.6623629-.1451111-.149256-.213559-.1094985-.5059386.0913629-.6718889l1.841-1.541-4.572 2.639c-.2269587.1282325-.5143539.0605795-.6602778-.1554298-.145924-.2160093-.1014061-.5078844.1022778-.6705702l3.843-3-7.217 4.16c-.2300482.1308569-.5222207.059778-.6664488-.1621318-.1442281-.2219099-.0905463-.5177734.1224488-.6748682l5.587-4.063-9.09 5.249c-.0763933.042493-.1625922.0642151-.25.063z" fill="#136b87"/><path id="Path" d="m43.257 39.225c-.2074013.0000112-.3932776-.1280198-.4671946-.3218021-.0739169-.1937823-.0205268-.4130798.1341946-.5511979l.3-.267-.662.382c-.2230421.1299097-.508313.0686909-.6584139-.1412949-.150101-.2099857-.1156933-.4997155.0794139-.6687051l3.24-2.818-4.263 2.461c-.2314518.1313128-.5252013.0583356-.6682918-.1660259-.1430904-.2243616-.0853808-.5214879.1312918-.6759741l.241-.169-.608.351c-.2300482.1308569-.5222207.059778-.6664488-.1621318-.1442281-.2219099-.0905463-.5177734.1224488-.6748682l3.6-2.623-4.355 2.513c-.2299138.1328235-.5235501.0627731-.6687427-.1595365s-.0912979-.5193359.1227427-.6764635l4-2.933-4.811 2.776c-.2300482.1308569-.5222207.059778-.6664488-.1621318-.1442281-.2219099-.0905463-.5177734.1224488-.6748682l3.136-2.282-3.835 2.219c-.2269587.1282325-.5143539.0605795-.6602778-.1554298-.145924-.2160093-.1014061-.5078844.1022778-.6705702l4.122-3.24-5.1 2.944c-.2312043.1356861-.5282776.0648879-.6734329-.160492-.1451554-.2253799-.0867349-.525133.1324329-.679508l1.187-.847-1.209.7c-.2268311.1346393-.5192384.0699075-.6680488-.1478896s-.1028302-.513733.1050488-.6761104l2.859-2.286-2.754 1.582c-.2287194.1310429-.5198877.0620127-.6654353-.1577616-.1455476-.2197742-.0954752-.5147944.1144353-.6742384l.413-.31-.175.1c-.217772.1239843-.4936884.0676117-.6453756-.131857-.1516872-.1994686-.1322878-.4804159.0453756-.657143l2.131-2.094-2.043 1.179c-.207659.1183705-.470055.0732098-.6261925-.1077734-.1561375-.1809831-.1623424-.4471647-.0148075-.6352266l1.366-1.728-1.252.723c-.2052485.117948-.4650826.0757972-.6225191-.1009864-.1574365-.1767835-.1693242-.4397458-.0284809-.6300136l.403-.538-.106.061c-.1444599.0831469-.3208536.088841-.4703752.015184-.1495216-.0736569-.2525077-.2169784-.2746248-.382184l-.177-1.332c-.1903496-.0588654-.3275824-.2251254-.3492991-.4231821-.0217168-.1980568.076228-.3901038.2492991-.4888179l.272-.156c.1446056-.0831759.3211677-.0887548.4707358-.0148742.1495682.0738807.2524383.2174879.2742642.3828742l.153 1.16 1.547-.893c.2050046-.1170078.4639131-.074707.6210179.1014628s.1696047.4382131.0299821.6285372l-.4.535 1.434-.827c.2076755-.120597.4717564-.0765136.629.105.1571205.1818974.1625804.4498533.013.638l-1.368 1.73 3.178-1.835c.217772-.1239843.4936884-.0676117.6453756.131857.1516872.1994686.1322878.4804159-.0453756.657143l-2.132 2.1 3.923-2.265c.2287194-.1310429.5198877-.0620127.6654353.1577616.1455476.2197742.0954752.5147944-.1144353.6742384l-.413.311 1.323-.764c.2268311-.1346393.5192384-.0699075.6680488.1478896s.1028302.513733-.1050488.6761104l-2.86 2.286 4.43-2.557c.2312043-.1356861.5282776-.0648879.6734329.160492.1451554.2253799.0867349.525133-.1324329.679508l-1.189.849 2.22-1.282c.2271272-.1307942.5167067-.0640046.6636035.1530559.1468968.2170604.1012506.5107158-.1046035.6729441l-4.121 3.24 5.965-3.444c.2298251-.1278768.5194281-.0558458.6625685.1647961s.0908781.5144564-.1195685.6722039l-3.129 2.273 4.531-2.616c.2299138-.1328235.5235501-.0627731.6687427.1595365s.0912979.5193359-.1227427.6764635l-4 2.935 4.619-2.666c.2300482-.1308569.5222207-.059778.6664488.1621318.1442281.2219099.0905463.5177734-.1224488.6748682l-3.6 2.622 2.3-1.326c.230817-.1267753.5204005-.0527915.6621232.1691615.1417226.221953.0869993.5157856-.1251232.6718385l-1.069.75c.2001114.0167599.3707803.1516138.433366.3424239.0625857.1908102.0049436.4005501-.146366.5325761l-3.24 2.82.387-.223c.2219765-.128183.5049351-.0677387.6551637.1399529.1502285.2076917.1190618.4953507-.0721637.6660471l-2.631 2.346c.0549931.2170453-.0410121.4441895-.235.556l-1.143.66c-.0779968.0475289-.1676639.0724556-.259.072z" fill="#92d149"/><path id="Path" d="m32.505 43.348c-.2120833.0003685-.4013254-.1331015-.4721581-.333007-.0708326-.1999054-.0078433-.4227488.1571581-.555993l3.742-3.03-6.626 3.825c-.228924.1342308-.5228351.0662362-.6695479-.1548961s-.0951128-.5183603.1175479-.6771039l4.613-3.481-6.758 3.9c-.2329673.1327691-.5291919.0581284-.6714287-.1691822-.1422368-.2273105-.0798406-.5263539.1414287-.6778178l1.566-1.06-2.669 1.541c-.2313261.1333882-.5266402.061466-.670727-.1633522-.1440867-.2248181-.0860887-.5231794.131727-.6776478l5.063-3.586-3.9 2.252c-.2283835.1299972-.5184238.0610156-.6638282-.1578813-.1454044-.2188968-.0965443-.5129964.1118282-.6731187l5.682-4.3-4.282 2.472c-.1502302.0978908-.3412727.1081987-.5011637.027041-.159891-.0811578-.2643392-.2414515-.274-.4205-.0096608-.1790486.0769335-.3496502.2271637-.447541l3.135-2.31-1.945 1.123c-.2300482.1308569-.5222207.059778-.6664488-.1621318-.1442281-.2219099-.0905463-.5177734.1224488-.6748682l1.315-.956-.246.142c-.2247421.1254395-.5079955.0597743-.6546194-.1517571-.1466238-.2115314-.1087109-.4998143.0876194-.6662429l2.86-2.353-1.572.907c-.220007.1195261-.4945025.0578939-.6422936-.1442135-.147791-.2021073-.1233056-.4823693.0572936-.6557865l2.328-2.1-1 .578c-.2148145.122858-.4871855.0700952-.640583-.1240916-.1533976-.1941868-.1416695-.4713733.027583-.6519084l1.712-1.8-.34.2c-.210704.121866-.4785513.0742927-.6344017-.1126784-.1558503-.186971-.1544141-.4590066.0034017-.6443216l.888-1.044c-.0900836-.0157181-.1741316-.0558398-.243-.116-.1613625-.1399508-.2160032-.3669506-.136-.565l.751-1.846c-.1320006-.2383674-.048842-.5385386.187-.675l.262-.151c.1849608-.1072982.4176813-.085102.5790243.0552257.1613429.1403277.2155921.3677228.1349757.5657743l-.438 1.077.687-.4c.210704-.121866.4785513-.0742927.6344017.1126784.1558503.186971.1544141.4590066-.0034017.6443216l-.667.783.823-.475c.2150358-.1228992.4876397-.0698481.6408929.1247234.1532532.1945714.1409636.4720174-.0288929.6522766l-1.712 1.8 2.109-1.217c.220007-.1195261.4945025-.0578939.6422936.1442135.147791.2021073.1233056.4823693-.0572936.6557865l-2.326 2.1 2.718-1.569c.2253151-.1304911.5130605-.0662242.6614447.1477312.1483843.2139555.1077334.5059746-.0934447.6712688l-2.861 2.353 3.251-1.877c.2300482-.1308569.5222207-.059778.6664488.1621318.1442281.2219099.0905463.5177734-.1224488.6748682l-1.317.958 1.472-.849c.2293391-.1285228.5190351-.0574922.6629121.1625395s.0927858.5139004-.1169121.6724605l-3.131 2.306 3.439-1.985c.2283835-.1299972.5184238-.0610156.6638282.1578813.1454044.2188968.0965443.5129964-.1118282.6731187l-5.683 4.302 6.258-3.613c.2313261-.1333882.5266402-.061466.670727.1633522.1440867.2248181.0860887.5231794-.131727.6776478l-5.061 3.588 5.464-3.154c.2325262-.1307666.5267591-.0559509.6685809.1700024s.0812744.5234503-.1375809.6759976l-1.563 1.062 1.711-.987c.2287194-.1310429.5198877-.0620127.6654353.1577616.1455476.2197742.0954752.5147944-.1144353.6742384l-4.612 3.476 5.08-2.932c.2256086-.1271264.5109479-.0609576.657579.1524896.1466312.2134471.106025.5035297-.093579.6685104l-3.743 3.032 4.225-2.442c.2274132-.1273482.5145055-.05864.6596263.1578646.1451209.2165046.0995839.5081708-.1046263.6701354l-.8.616.918-.53c.1549945-.0985297.351531-.1041539.5119064-.0146489.1603754.0895049.2587712.2597296.2562855.4433739s-.1054527.3511436-.2681919.436275l-7.405 4.275c-.2275891.1298897-.5168511.062032-.6629348-.1555172-.1460838-.2175492-.0994243-.5109773.1069348-.6724828l.8-.618-3.233 1.872c-.0757806.0445497-.1620945.0680271-.25.068z" fill="#ffc306"/><g fill="#262626"><path id="Shape" d="m60.732 26.214c-.641-4.4-4.519-3.8-8.053-3.723.011-.2.04-.384.046-.58 0-.021-.013-.033-.016-.052s.016-.034.015-.053c-.2362099-11.6134925-9.5925748-20.97250469-21.206-21.212-.2499813-.10029887-.5290187-.10029887-.779 0-.339.007-.68.02-1.022.043-11.2.772-20.442 10.142-20.442 21.505 0 .14.009.278.012.418-3.313-.1-7.279-.469-8.012 3.572-.787 4.339 0 9.563 0 13.957 0 5.034-.591 10.469 0 15.473.555 4.707 4.683 3.859 8.446 3.859.14922083-.0085825.2948489-.0491674.427-.119h41.252c.135479.1474139.3329611.2216553.532.2 3.641 0 8.028.842 8.8-3.737.788-4.649 0-10.125 0-14.827 0-4.732.684-10.038 0-14.724zm-17.053 11.812-11.179-15.178 17.929 4.674c-1.1502206 4.0969936-3.5012517 7.7555462-6.75 10.504zm-12.458-14.546c3.786 5.1373333 7.5706667 10.274 11.354 15.41-4.9591414 3.58015-11.3107623 4.6260424-17.156 2.825zm20.051-1.334c-.0539657 1.5232259-.2627064 3.0370145-.623 4.518l-18.92-4.932v-20.243c.542.026 1.085.066 1.634.137 10.427 1.361 17.556 10.281 17.909 20.52zm-21-20.673v20.6c0 .01.006.015.007.025-2.038 6.4013333-4.076 12.8046667-6.114 19.21-8.0276391-3.1282559-13.3368991-10.8346073-13.4-19.45-.0075916-10.9227701 8.5934973-19.91145035 19.506-20.385zm-27.547 54.395c-.10850265-.8174151-.10850265-1.6455849 0-2.463v-12.993c0-4.11-.4-8.458 0-12.548-.06302378-.6491405-.06302378-1.3028595 0-1.952 1.062-3.19 4.014-2.578 6.551-2.5v35.2c-2.545.111-5.49.409-6.551-2.744zm16.9 2.83c-2.189 0-6.334.848-8.4 0-.1449687-.0704528-.3008533-.1157642-.461-.134-.0092831-.0273261-.0209966-.0537652-.035-.079-.324-.589 0-2.225 0-2.926v-25.8c2.3673728 5.8917163 7.1881527 10.4568488 13.2 12.5.0951231.0913531.2259352.13569.357.121 2.5229418.8142324 5.1757147 1.1503227 7.822.991 4.2530535-.2497361 8.3386637-1.7451501 11.748-4.3.1076698-.0484395.2015166-.1230357.273-.217 3.2340555-2.507349 5.7080266-5.863793 7.146-9.695-.106 9.01 0 25.642.008 29.539h-31.659zm39.644-2.635c-1.071 3.026-4.068 2.55-6.544 2.451v-35.034c2.528-.108 5.48-.514 6.544 2.627.1089961.8173824.1089961 1.6456176 0 2.463v12.993c0 4.1.421 8.469 0 12.548.0651742.6490515.0648392 1.3030156-.001 1.952z"/><path id="Path" d="m6.724 36.806v-1c0-.355-1.448-.112-1.448.388v1c0 .355 1.448.112 1.448-.388z"/><path id="Path" d="m5.274 41.085v5c0 .629 1.452.336 1.452-.17v-5c0-.629-1.452-.336-1.452.17z"/><path id="Path" d="m55.275 39.089v4c0 .61 1.45.308 1.45-.178v-4c0-.611-1.45-.311-1.45.178z"/><path id="Path" d="m45.436 42.943c-8.5813882 6.280768-20.263801 6.1995188-28.757-.2-.351-.261-1.642.31-1.358.52 9.3351934 6.7799619 21.9953711 6.6989186 31.243-.2.611-.463-.83-.341-1.128-.12z"/></g></g></svg>