<svg id="Layer_1" enable-background="new 0 0 91 91" viewBox="0 0 91 91" xmlns="http://www.w3.org/2000/svg"><g><g><path d="m50.6 24.6c6-4.6 11.4-9.9 16.4-15.6-2.8 9.4-1.5 19.9 3.6 28.3 2.1 3.5 4.8 6.7 6.1 10.5 3 8.6-1.8 19.5-9.3 24.8s-14.9 7.3-24 8c-4.5.3-11.2-1-15.6-2.3-7.4-2-13.6-8-16.2-15.3s-1.8-15.6 1.8-22.4c2.1-4 5.1-7.5 6.3-11.8 1.5-5 .4-10.3-.6-15.4 4.4 3.2 11.1 4.6 14 12.1 5.7-.9 11.7-1.5 17.5-.9z" fill="#fbe488"/></g><path d="m65.4 60.5c-.8 2.4 2.9 2.2 4.8 2.8 1.6.6 3 1.5 2.6 3.1-.3 1.4-2.2 1.8-3.5 1.5-1.4-.3-2.7-1.2-4.1-1.3-.9-.1-2.1.5-2 1.4 0 .3.2.6.3.9.3 1-.7 2.4-1.7 2.9-7.5 3.3-16.2 4.6-23.2 3.9-4.8-.5-9.4-2.1-14-3.6-.6-.2-1.3-.4-1.7-.9-.5-.5-.6-1.3-.2-1.8.3-.4.9-.5 1.1-1s-.2-1.2-.8-1.4c-1.5-.8-3.4-.1-5.1.1s-4-.6-3.9-2.4c.1-1.5 1.9-2.1 3.4-2.1s4.4.3 4.1-1.2c-2.5-2.5-6-3.2-9.5-2.8-.3 0-.6.1-.7.3-.3.2-.3.4-.3.6-.5 4 1.3 8 4 11s6.4 4.9 10.1 6.3c12.2 4.7 26.4 4.3 38-1.6 4.6-2.3 9.1-5.8 11.3-10.5.9-1.8 1.9-4.5-.6-5.2-2.5-.9-5.9.2-8.4 1z" fill="#eace75"/><path d="m29.7 32.7c3.8-2.4 8.4-4.3 12.8-3.8s8.6 2.2 12.6 4.2c.7.4 2.2.7 2.9.2.3-.2 1-1.7.3-3.2-.5-1-1.2-1.9-2.1-2.6-4.6-3.5-10.5-5.2-16.3-4.7-4.6.4-9.3 2.3-12.8 5.4-1 .9-3 2.8-2.5 4.4.7 2.6 3.7 1 5.1.1z" fill="#fdf0bc"/><path d="m61.1 30.2c-.1.2-.1.4-.3.6-.3.3-.7.3-1.1.2s-.7-.3-1-.6c-.5-.4-1.1-.8-1.6-1.3-.3-.2-.5-.5-.7-.8-.3-.8 1.9-2.9 2.4-3.6s1-1.4 1.5-2c2.8-3.2 1.8 4.5.8 7.5z" fill="#eace75"/><path d="m24.5 23.7c-.1-.1-.3.1-.4.3-.4 2.6-.8 5.3-1.1 7.9 0 .2-.1.5 0 .7s.3.4.5.4.4-.2.5-.4c.6-.8 1.2-1.6 1.9-2.3.5-.5 1.5-1.1 1.6-1.9.2-1.5-2-3.8-3-4.7z" fill="#eace75"/><path d="m61.4 19.7c2.3-2.1 4.2-4.1 4.9-7.2 0-.2.1-.4 0-.6-.1-.3-.6-.5-.9-.4-.4.1-.7.3-.9.6-2.4 2.1-4.8 4.2-7.2 6.3-.7.6-6.9 6.4-4.2 6.8 1.2.2 1.7 1.1 4.1-1.2 1.1-1.3 2.8-3.1 4.2-4.3z" fill="#fff"/><path d="m20.8 21.6c-.6-1.9-1.2-3.8-1.6-5.7 0-.2-.1-.3 0-.5s.4-.2.6-.2c.9 0 1.9.2 2.7.5 3.3 1.1 6.1 3.4 7.9 6.4.9 1.4 2.1 4.7-.5 5.2-1.4.3-1.7-3-3.7-4-.9-.5-1.7-1-2.7-1.3-.1-.1-2.7-.6-2.7-.4z" fill="#fff"/><g><g fill="#4e7a9f"><path d="m88.8 58.1c-3.2-.5-6.5-.7-9.8-.7.4-1.9.5-4 .3-6.1-.6-7.1-5.6-12-8.5-18.2-3.6-7.6-4.1-16.1-2.1-24.1.4-1.6-1.8-3.2-3-1.7-4.8 5.7-10.2 10.7-16 15.3-5.2-1.5-10.9-1.1-15.9 1.1-1.8-6.6-8-9.3-13.6-12.7-1.8-1.1-4 .7-3.4 2.7 1 3.7 2.1 7.6 1.8 11.5-.4 4-2.5 7.3-4.6 10.6-3.4 5.5-5.8 11.4-5.9 18v1.4c-1.8-.2-3.6-.3-5.3-.2-3.4.1-3.4 5.5 0 5.3 2-.1 4 0 5.9.1.3 1.4.8 2.8 1.3 4.2-2.2.4-4.2.9-5.9 1.4-3.1.9-1.6 5.9 1.3 4.8 2.2-.9 4.4-1.5 6.7-2 3.2 5.2 8.1 9.2 14.1 11.2 11.9 3.7 24.8 3 36.1-2.6 3.7-1.8 7.2-4.3 10-7.4 2.4 1 4.7 2.4 6.7 3.7 2.2 1.5 4.5-2.4 2.1-3.6-2.2-1.1-4.4-2-6.7-2.6 1.5-2 2.7-4.2 3.6-6.5 3.2.3 6.4 1 9.5 1.9 3.1 1 4.4-4.3 1.3-4.8zm-22.5 12.3c-13.5 9.8-38.5 10.5-49.2-2.4 2-.1 4.1-.1 6-.7.3-.1.6-.6.2-.9-2.3-2-5.6-2.5-8.9-2.5-.5-1.1-1-2.2-1.3-3.4 2.4.2 4.7.4 7.1.6 1 .1 1.1-1.2.5-1.7-2.5-1.8-5.4-2.9-8.5-3.7-.1-1-.2-2-.2-3.1 0-3.7.8-7.4 2.3-10.8 1.4-3.1 3.6-5.9 5.2-8.9 2.6-5 2.8-10.3 2.3-15.6.9.5 1.8.9 2.7 1.4 2.7 1.6 5.1 3.6 7 6-2.6 1.5-4.9 3.5-6.7 5.9-.5.6.5 1.6 1.1 1.1 8.3-6.4 21-9.2 29.3-1.2 2.2 2 5.5-1.3 3.3-3.3-1.5-1.4-3.1-2.5-4.9-3.3 3.6-3 7.1-6.2 10.3-9.6-1.1 9.2 1.6 18.5 6.9 26.3 3.4 5 5.9 9.7 4.5 16-.1.3-.1.5-.2.8-3.2.1-7.1.4-9.5 2.2-.4.3-.4 1 .1 1.1 2.5.7 5.4.3 8.2.1-.9 2.1-2.2 4.1-3.6 5.8-1.6-.1-3.1-.2-4.7-.3-1.1-.1-1.1 1.6 0 1.7.9.1 1.9.3 2.8.6-.7.7-1.3 1.3-2.1 1.8z"/><path d="m40 61.2c-1.5 3.4.3 7.6 3.4 9.5 3.4 2.2 7.9 1.5 10.8-1.3 1.9-1.8-.9-4.6-2.9-2.9-1.6 1.5-4.3 1.9-6.1.5-1.7-1.4-1.8-3.4-2-5.3-.2-1.5-2.6-1.8-3.2-.5z"/><path d="m29.4 66.6c.4 7.2 11 8 14 2.2 1.1-2-1.7-4.5-3.3-2.6-1.2 1.4-2.3 2.7-4.4 2.5-1.8-.2-3-1.7-4.2-3-.7-.8-2.2-.2-2.1.9z"/></g><path d="m47.9 38.7c-2.6-1.6-5.5-1.2-8.3-1.3 2.3-1.4 4.7-2.7 7-4.1.9-.5.8-2.2-.3-2.3-3.3-.5-7-1-10.2.3-.5.2-.6.9 0 1.1 1.8.4 3.7.5 5.6.7-2.5 1.3-4.9 2.6-7.4 4-1.2.7-.8 2.3.4 2.7 2.9 1.1 6.2.2 9.2.8-1.3 1-2.6 2-3.7 3.2-1.2 1.3.4 3.5 1.9 2.5 2.2-1.4 4.2-3.3 6.1-5 .8-.8.5-2.1-.3-2.6z" fill="#f1afad"/></g></g><g fill="#4e7a9f"><ellipse cx="28.6" cy="51.9" rx="3.6" ry="3.5"/><ellipse cx="57.3" cy="51.9" rx="3.6" ry="3.5"/></g></svg>