<svg height="512" viewBox="0 0 61 52" width="512" xmlns="http://www.w3.org/2000/svg"><g id="026---Project-Plan" fill="none"><path id="Path" d="m22.726 51.471c-.2242747.0003879-.4213699-.1486096-.4821521-.3644912-.0607822-.2158815.0296209-.4458251.2211521-.5625088l1.318-.8-2.883 1.656c-.2350866.127347-.5287583.0472199-.6665908-.1818764-.1378325-.2290964-.071048-.5260868.1515908-.6741236l15.253-9.569-18.059 10.425c-.2349709.1292146-.5300387.050062-.6687925-.179405-.1387537-.2294671-.0717837-.5275361.1517925-.675595l20.082-12.666-23.426 13.521c-.2363825.1285498-.5321069.0469768-.6691568-.184581-.1370499-.2315579-.0662709-.5300498.1601568-.675419l5.356-3.24-7.114 4.1c-.2363825.1285498-.5321069.0469768-.6691568-.184581-.1370499-.2315579-.0662709-.5300498.1601568-.675419l3.426-2.067-5.068 2.927c-.23583577.1260453-.52910097.0442222-.66561588-.1857118-.13651492-.2299339-.06795177-.5265795.15561588-.6732882l12.228-7.435-14.37 8.294c-.23583577.1260453-.52910097.0442222-.66561588-.1857118-.13651492-.2299339-.06795177-.5265795.15561588-.6732882l18.637-11.392-21.044 12.151c-.2372063.1413849-.54411508.0637063-.68549997-.1735s-.06370631-.5441151.17349997-.6855l27.034-16.7-28.381 16.38c-.23628449.1306359-.5336041.0500916-.67163931-.181948s-.06692381-.5317553.16063931-.677052l24-14.69-24.073 13.901c-.23748244.1411088-.54439125.0629824-.6855-.1745s-.06298244-.5443912.1745-.6855l23.681-14.47-23.178 13.381c-.23583577.1260453-.52910097.0442222-.66561588-.1857118-.13651491-.2299339-.06795176-.5265795.15561588-.6732882l23.43-14.312-22.92 13.233c-.23571786.1278172-.53029699.0469384-.66770199-.1833224-.13740501-.2302607-.06871185-.5279174.15570199-.6746776l28.817-17.781-28.305 16.342c-.2353357.1240261-.52657993.04207-.66269982-.1864836-.13611989-.2285535-.06945065-.5236725.15169982-.6715164l25.841-15.85-25.33 14.624c-.2353357.1240261-.52657993.04207-.66269982-.1864836-.13611989-.2285535-.06945065-.5236725.15169982-.6715164l26.876-16.516-26.365 15.221c-.23775858.1405565-.54444353.0617586-.685-.176s-.06175858-.5444435.176-.685l13.372-8.068-12.863 7.426c-.2372063.1413849-.5441151.0637063-.6855-.1735s-.0637063-.5441151.1735-.6855l27.257-16.821-26.745 15.442c-.23775858.1405564-.54444351.0617586-.68499997-.176-.14055647-.2377586-.0617586-.5444435.17599997-.685l14.67-8.9-14.162 8.178c-.23698876.1350471-.53848394.055235-.67761558-.1793791-.13913163-.2346142-.06455352-.5374465.16761558-.6806209l15.76-9.611-15.25 8.8c-.23455577.1194599-.52156212.036609-.6563687-.1894756s-.07124209-.517969.1453687-.6675244l16.632-10.211-16.121 9.311c-.2372063.1413849-.54411508.0637063-.68549997-.1735s-.06370631-.5441151.17349997-.6855l15.8-9.745-15.288 8.825c-.23473446.1238045-.5252986.0426548-.6619149-.1848618-.13661629-.2275167-.07168534-.5221296.1479149-.6711382l17.641-11.033-17.127 9.888c-.2372063.1413849-.5441151.0637063-.6855-.1735s-.0637063-.5441151.1735-.6855l10.105-6.238-9.593 5.538c-.23775858.1405565-.54444353.0617586-.685-.176s-.06175858-.5444435.176-.685l.447-.273c-.23969456.0978342-.51442685-.0034803-.63321214-.2335131-.11878528-.2300327-.04233197-.5126939.17621214-.6514869l15.111-9.682-14.592 8.425c-.23620749.133071-.53543293.0536509-.67455994-.1790411-.13912702-.2326919-.06746126-.5338687.16155994-.6789589l3.534-2.188-3.021 1.743c-.23477127.1336383-.53323995.0566316-.67405087-.1739091-.14081092-.2305408-.07304023-.5312411.15305087-.6790909l11.263-7.295-10.742 6.2c-.2341443.133112-.53165209.0568382-.67287099-.1725078-.1412189-.2293459-.07539606-.5293391.14887099-.6784922l9.6-6.291-9.076 5.24c-.23170998.1276221-.52273121.0526794-.6639792-.1709853s-.08383998-.5186462.1309792-.6730147l10.074-6.938-9.541 5.508c-.23186034.1330617-.52737097.0602043-.67080661-.1653857-.14343565-.22559-.08404925-.5240996.13480661-.6776143l7.336-5.115-6.8 3.925c-.2313261.1333882-.5266402.061466-.67072696-.1633522-.14408676-.2248181-.08608875-.5231794.13172696-.6776478l4.96-3.511-4.417 2.55c-.2314518.13131281-.52520132.05833565-.66829177-.16602591s-.08538078-.52148787.13129177-.67597409l2.036-1.428-1.5.866c-.22852334.12824968-.51729518.05830465-.66180513-.16029949-.14450995-.21860415-.09572494-.51169373.11180513-.67170051l2.13-1.606-1.583.919c-.22053922.12807919-.50213181.06964847-.65350464-.13560283s-.12400893-.49153743.06350464-.66439717l2.161-2-1.571.9c-.21023221.12072237-.4767777.07323887-.63238783-.11265615-.15561014-.18589501-.15544667-.45663687.00038783-.64234385l.953-1.126c-.20916267-.03331015-.37464638-.1947905-.41306777-.40307488s.05855609-.4181799.24206777-.52392512l1.935-1.116c.21045795-.12608289.48130344-.08084535.63936333.10678863.1580599.18763399.15663513.46222767-.00336333.64821137l-.74.877 2.959-1.708c.22053922-.12807919.50213181-.06964847.65350464.13560283s.12400893.49153743-.06350464.66439717l-2.161 2 4.847-2.8c.22871944-.13104292.5198877-.06201267.6654353.15776159.1455476.21977425.0954752.5147944-.1144353.67423841l-2.136 1.604 4.225-2.436c.230817-.12677527.5204005-.05279146.6621232.16916153.1417226.221953.0869993.51578559-.1251232.67183847l-2.037 1.426 3.932-2.267c.2306836-.12848204.5215078-.05544038.6641078.16679333.1426.2222337.0878131.51704247-.1251078.67320667l-4.957 3.507 7.535-4.347c.2311923-.12801413.5220815-.05401297.6639947.16891785s.0858401.51780111-.1279947.67308215l-7.334 5.118 10.324-5.96c.23171-.12762208.5227312-.05267945.6639792.17098529s.08384.51864622-.1309792.67301471l-10.072 6.935 13.479-7.779c.2336556-.13069104.5287926-.05414659.6694787.17363081.140686.22777741.0769932.52595205-.1444787.67636919l-9.6 6.289 12.371-7.139c.2342478-.13088328.5300435-.05352709.6702262.17527691.1401827.22880401.074765.52746697-.1482262.67672309l-11.268 7.292 14.117-8.144c.2356087-.12976469.5316571-.04987998.6700067.18079238.1383496.23067235.0694166.52946068-.1560067.67620762l-3.531 2.182 5.273-3.039c.2343611-.12889228.5286543-.05052268.6678755.17785371.1392213.22837639.0740613.52587341-.1478755.67514629l-15.112 9.681 18.252-10.534c.2358358-.12604535.529101-.04422218.6656159.18571176s.0679517.52657952-.1556159.67328824l-.291.178 1.8-1.037c.2362075-.13307102.5354329-.05365088.6745599.17904108.1391271.23269196.0674613.53386873-.1615599.67895892l-10.095 6.227 12.277-7.085c.2350866-.12734701.5287583-.04721993.6665908.18187644.1378325.22909636.071048.52608673-.1515908.67412356l-17.65 11.036 20.604-11.892c.2362075-.13307102.5354329-.05365088.6745599.17904108.1391271.23269196.0674613.53386873-.1615599.67895892l-15.806 9.742 18.37-10.6c.2357179-.12781718.530297-.04693838.667702.18332235.137405.23026074.0687118.52791741-.155702.67467765l-16.642 10.214 19.184-11.072c.2362845-.13063592.5336041-.05009164.6716393.18194798s.0669238.53175531-.1606393.67705202l-15.742 9.6 18.117-10.459c.2363825-.12854979.5321069-.0469768.6691568.18458103.1370499.23155784.0662709.53004973-.1601568.67541897l-14.642 8.881 16.277-9.4c.2372063-.14166103.544339-.06420629.686.17300001.141661.23720629.0642063.54433895-.173.68599999l-27.29 16.839 28.167-16.26c.2363825-.12854979.5321069-.0469768.6691568.18458103.1370499.23155784.0662709.53004973-.1601568.67541897l-13.329 8.042 13.073-7.547c.2362845-.13063592.5336041-.05009165.6716393.18194798.1380352.23203962.0669238.53175531-.1606393.67705202l-26.889 16.525 26.378-15.229c.2353357-.12402605.5265799-.04207.6626998.18648356s.0694507.52367252-.1516998.67151644l-25.831 15.84 25.32-14.615c.2357179-.12781718.530297-.04693838.667702.18332235.137405.23026074.0687118.52791741-.155702.67467765l-28.817 17.78 28.305-16.341c.2358358-.1260453.529101-.0442222.6656159.1857118.1365149.2299339.0679517.5265795-.1556159.6732882l-23.43 14.312 22.92-13.233c.2358358-.1260453.529101-.0442222.6656159.1857118.1365149.2299339.0679517.5265795-.1556159.6732882l-23.687 14.475 23.177-13.381c.2369888-.1350471.5384839-.055235.6776156.1793791.1391316.2346142.0645535.5374465-.1676156.6806209l-24 14.686 23.49-13.56c.2357179-.1278172.530297-.0469384.667702.1833224.137405.2302607.0687118.5279174-.155702.6746776l-27.043 16.71 26.531-15.314c.2369888-.1350471.5384839-.055235.6776156.1793791.1391316.2346142.0645535.5374465-.1676156.6806209l-18.637 11.391 18.128-10.465c.2354667-.1225198.5256326-.0396943.6609447.1886614.135312.2283558.0686058.5226457-.1519447.6703386l-12.23 7.438 11.724-6.768c.2359602-.1244074.5280295-.041678.663696.1879935.1356664.2296716.0671501.5253981-.155696.6720065l-3.4 2.054 2.895-1.671c.2359602-.1244074.5280295-.041678.663696.1879935.1356664.2296716.0671501.5253981-.155696.6720065l-5.355 3.246 4.847-2.8c.2346058-.1253855.5263122-.0451285.6637604.18262.1374483.2277485.0725112.523243-.1477604.67238l-20.089 12.673 19.567-11.292c.2361735-.1361818.537908-.0580681.6783318.1756081.1404239.2336761.0677709.5367718-.1633318.6813919l-15.257 9.568 14.742-8.511c.2358358-.1260453.529101-.0442222.6656159.1857118.1365149.2299339.0679517.5265795-.1556159.6732882l-1.294.79.784-.452c.2355494-.1441463.5433537-.0700494.6875.1655s.0700494.5433537-.1655.6875l-16.1 10.448 15.582-9c.2355494-.1441463.5433537-.0700494.6875.1655s.0700494.5433537-.1655.6875l-12.521 8.122 11.995-6.925c.2336556-.130691.5287926-.0541466.6694787.1736308.140686.2277774.0769932.5259521-.1444787.6763692l-11.2 7.4 10.674-6.162c.2349709-.1292146.5300387-.050062.6687925.179405.1387537.2294671.0717837.5275361-.1517925.675595l-2.284 1.447 1.767-1.02c.2324067-.1328499.5282158-.0590851.6710333.1673329s.0819688.5251514-.1380333.6776671l-8.831 6.082 8.3-4.79c.2334461-.1352991.5321345-.0609722.6749447.1679561.1428102.2289282.0782242.5298733-.1459447.6800439l-4.364 2.935 3.835-2.214c.2319831-.1309881.5259285-.0570795.6683699.1680527.1424414.2251321.0833463.52241-.1343699.6759473l-3.571 2.466 3.037-1.753c.2280542-.1290416.517047-.0601323.6623353.1579314.1452882.2180638.0975826.5113034-.1093353.6720686l-4.253 3.252 3.7-2.136c.2206356-.1300292.503851-.072325.6560244.1336626s.1241014.4936554-.0650244.6663374l-3.23 3.019 2.639-1.524c.2208953-.136633.509623-.0813788.6644625.1271591.1548394.208538.1242214.5009064-.0704625.6728409l-.848.806.091-.052c.2374252-.1242009.5305531-.0391619.6646466.1928199.1340935.2319817.0614797.5284321-.1646466.6721801l-3.743 2.145c-.2208953.136633-.509623.0813788-.6644625-.1271591-.1548394-.208538-.1242214-.5009064.0704625-.6728409l.846-.8-2.768 1.6c-.2207276.1320893-.5056598.0751513-.6586724-.1316224-.1530126-.2067738-.124171-.4959044.0666724-.6683776l3.231-3.018-6.613 3.818c-.228242.1318458-.5196375.063862-.6659708-.1553737-.1463332-.2192358-.0973404-.5144185.1119708-.6746263l4.252-3.25-7.068 4.08c-.2313246.1263251-.5209869.0513891-.6620294-.1712679-.1410425-.2226569-.0850249-.5165645.1280294-.6717321l3.578-2.469-5.742 3.312c-.23265.1288599-.5254615.0530472-.6663444-.1725252s-.0805297-.5219566.1373444-.6744748l4.361-2.934-6.55 3.781c-.23171.1276221-.5227312.0526794-.6639792-.1709853s-.08384-.5186462.1309792-.6730147l8.827-6.079-12 6.924c-.2354379.13455-.5352149.0569022-.6757281-.1750261-.1405133-.2319283-.0705395-.5335888.1577281-.6799739l2.284-1.446-3.986 2.3c-.2329061.1254293-.5232086.0477402-.6623373-.1772508s-.0789338-.5194187.1373373-.6717492l11.2-7.4-14.279 8.249c-.2347034.1364868-.5354374.0607325-.6774741-.1706544-.1420368-.2313868-.073465-.5338394.1544741-.6813456l12.513-8.111-15.532 8.963c-.2347034.1364868-.5354374.0607325-.6774741-.1706544-.1420368-.2313868-.073465-.5338394.1544741-.6813456l16.107-10.448-19.576 11.3c-.0756184.0452887-.1618652.0697828-.25.071z" fill="#cdd1da"/><path id="Path" d="m8.319 21.471c-.19911775.000129-.37933271-.1179-.45878968-.3004774-.07945696-.1825773-.0430087-.3948974.09278968-.5405226l1.374-1.475-2.933 1.694c-.22621117.1327757-.51657217.0681745-.66514992-.1479864s-.10485884-.5103912.10014992-.6740136l.771-.622-.321.185c-.20771892.119562-.47106244.0749112-.6277607-.1064389-.15669825-.1813502-.16267159-.4483854-.0142393-.6365611l1.643-2.077-1 .577c-.19903982.1123116-.44889786.0753715-.60692375-.0897301-.15802589-.1651017-.18399308-.4163373-.06307625-.6102699l.321-.5c-.17947252-.0700753-.30271463-.2370356-.31680578-.4291876-.01409114-.1921519.083476-.3753049.25080578-.4708124l1.128-.65c.19903982-.1123116.44889786-.0753715.60692375.0897301.15802589.1651017.18399308.4163373.06307625.6102699l-.095.147 1.475-.844c.20744368-.1200361.47088694-.075989.628.105.15771405.1814114.16401419.4493771.015.638l-1.644 2.075 3.614-2.086c.2257586-.1294404.5130594-.0640705.6605892.1503047.1475298.2143751.1059565.5060712-.0955892.6706953l-.773.624.273-.157c.2144477-.1242599.4875608-.0726667.6419004.1212601.1543397.1939268.1433197.4716518-.0259004.6527399l-1.373 1.472.757-.436c.2010978-.1158361.4554672-.0780728.6142398.0911892.1587725.169262.1802075.4255244.0517602.6188108l-.372.556c.1421832.0284039.2652984.1165515.338.242.1373847.2389169.0555349.543953-.183.682l-1.356.782c-.2010978.1158361-.4554672.0780728-.6142398-.0911892-.1587725-.169262-.1802075-.4255244-.0517602-.6188108l.218-.326-1.797 1.034c-.07542374.0457373-.16179512.0702668-.25.071z" fill="#3c99f3"/><path id="Path" d="m10.489 31.47c-.1728587.0001703-.3335441-.0889562-.4249211-.2356885-.09137703-.1467324-.10048255-.3302546-.0240789-.4853115l.758-1.542-3.723 2.148c-.21744747.1222843-.49176288.0655717-.64289368-.1329134-.15113079-.1984852-.13282855-.4780031.04289368-.6550866l2.337-2.306-2.532 1.461c-.22502404.1298327-.51198925.0657046-.6603401-.147566s-.10865701-.5046224.0913401-.670434l.581-.483-.013.007c-.18510491.106939-.41771928.0843676-.57881118-.0561642-.16109189-.1405318-.2150201-.3679316-.13418882-.5658358l.671-1.641c-.24228637.0620774-.49317108-.0644237-.58732124-.2961391-.09415017-.2317154-.00259904-.4973543.21432124-.6218609l1.128-.65c.18529612-.1073567.41838644-.0847916.57964859.0561149.16126215.1409064.21488589.3688643.13335141.5668851l-.659 1.611 3.816-2.2c.2247363-.1292165.510959-.0652384.6592891.1473681.1483301.2126064.1095663.5033193-.0892891.6696319l-.58.483.835-.482c.2174475-.1222843.4917629-.0655717.6428937.1329134.1511308.1984852.1328285.4780031-.0428937.6550866l-2.337 2.304 1.771-1.021c.1905701-.110844.4312487-.0837916.5924567.0665924.1612079.150384.2048962.3886052.1075433.5864076l-.759 1.544.023-.014c.2394154-.1380712.5454288-.0559154.6835.1835s.0559154.5454288-.1835.6835l-1.445.833c-.076302.0440585-.1628915.067172-.251.067z" fill="#3c99f3"/><path id="Path" d="m23.029 21.471c-.2028469-.0000364-.3855705-.1226235-.4625286-.3103048-.0769582-.1876814-.0328984-.4032603.1115286-.5456952l.188-.186-1.664.96c-.2180963.1257781-.4956948.0697764-.6479698-.1307191-.1522751-.2004955-.1317242-.4829397.0479698-.6592809l2.198-2.148-2.52 1.449c-.2194143.112305-.487939.0479551-.6326179-.151602-.1446789-.1995572-.1223444-.47478.0526179-.648398l1.3-1.159-.721.416c-.1857776.1070669-.4191402.0837604-.5800735-.0579333-.1609332-.1416938-.2136048-.370226-.1309265-.5680667l.655-1.562c-.2418355.0555442-.4878196-.074671-.577851-.3058937s.0031308-.4934916.218851-.6161063l1.128-.65c.1859703-.1074949.4198175-.0841975.5809241.0578755.1611067.142073.2134679.3711703.1300759.5691245l-.64 1.526 3.715-2.145c.2222396-.1285782.5057439-.0679309.6559297.1403165.1501859.2082474.1182322.4963997-.0739297.6666835l-1.3 1.154 1.661-.959c.2180963-.1257781.4956948-.0697764.6479698.1307191.1522751.2004955.1317242.4829397-.0479698.6592809l-2.194 2.151 1.6-.921c.2174475-.1222843.4917629-.0655717.6428937.1329134.1511308.1984852.1328285.4780031-.0428937.6550866l-.361.357h.01c.226294.00001.4243705.1520058.4829405.3705888.0585699.2185831-.0369699.4492542-.2329405.5624112l-2.942 1.7c-.0773828.044862-.1655693.0676867-.255.066z" fill="#3c99f3"/><path id="Path" d="m22.792 31.471c-.200563.000005-.3817201-.1198358-.4601731-.3044182-.0784529-.1845824-.0390176-.3981814.1001731-.5425818l.72-.748-2.4 1.385c-.2207276.1320893-.5056598.0751513-.6586724-.1316224-.1530126-.2067738-.124171-.4959044.0666724-.6683776l2.24-2.103-2.125 1.227c-.2256086.1271264-.5109479.0609576-.657579-.1524896-.1466312-.2134471-.106025-.5035297.093579-.6685104l.359-.291c-.1357538.009238-.2698056-.0344902-.374-.122-.1611892-.1410116-.2146728-.3690208-.133-.567l.666-1.618c-.242023.0598748-.4911722-.0676975-.5840708-.299063-.0928987-.2313654-.0011551-.4958142.2150708-.619937l1.128-.65c.1854407-.1069994.4184263-.0840596.5794378.0570517.1610116.1411113.2143134.369075.1325622.5669483l-.653 1.587 3.787-2.187c.2256086-.1271264.5109479-.0609576.657579.1524896.1466312.2134471.106025.5035297-.093579.6685104l-.131.108.383-.222c.2207276-.1320893.5056598-.0751513.6586724.1316224.1530126.2067738.124171.4959044-.0666724.6683776l-2.242 2.102 1.719-.991c.2157843-.1245835.4903641-.0712785.6438596.1249944s.1390557.4756061-.0338596.6550056l-.719.746.109-.063c.2374252-.1242009.5305531-.0391619.6646466.1928199.1340935.2319817.0614797.5284321-.1646466.6721801l-3.177 1.833c-.0754237.0457373-.1617951.0702668-.25.071z" fill="#3c99f3"/><path id="Path" d="m38.133 21.471c-.1770754.0001651-.3410306-.0933408-.4310449-.2458307-.0900142-.1524898-.0926597-.3412162-.0069551-.4961693l.963-1.737-3.915 2.26c-.2208953.136633-.509623.0813788-.6644625-.1271591-.1548394-.208538-.1242214-.5009064.0704625-.6728409l2.321-2.2-2.191 1.264c-.2112567.1203598-.4784718.0713026-.6332004-.1162472s-.152112-.4592181.0062004-.6437528l1.568-1.8-.941.542c-.1970776.1133214-.4457958.0794292-.6053668-.0824919s-.1898236-.4111082-.0736332-.6065081l.386-.651c-.196129-.0516046-.3416593-.216569-.3684052-.417602s.070591-.3983091.2464052-.499398l1.128-.65c.1971258-.1142746.446579-.0808228.6066332.0813497.1600541.1621725.1902233.412044.0733668.6076503l-.235.395 1.878-1.075c.2112567-.1203598.4784718-.0713026.6332004.1162472s.152112.4592181-.0062004.6437528l-1.567 1.8 3.265-1.885c.2208144-.1342809.5075757-.0781561.6614736.1294633s.1242133.4983097-.0684736.6705367l-2.322 2.2 1.81-1.044c.194267-.1112084.4387767-.0797478.5985642.0770161.1597876.1567639.195913.4006281.0884358.5969839l-.963 1.736.276-.158c.2374252-.1242009.5305531-.0391619.6646466.1928199.1340935.2319817.0614797.5284321-.1646466.6721801l-1.838 1.052c-.0754237.0457373-.1617951.0702668-.25.071z" fill="#3c99f3"/><path id="Path" d="m37.846 31.471c-.1847682.0000294-.354492-.1018404-.4413657-.2649117-.0868737-.1630714-.076735-.36076.0263657-.5140883l.923-1.375-3.454 1.994c-.216926.1250668-.492915.0703862-.6457677-.1279434-.1528528-.1983296-.1354294-.4791432.0407677-.6570566l2.587-2.609-2.6 1.5c-.2145165.1213913-.4854956.0683443-.6384044-.1249743s-.1421256-.4692305.0254044-.6500257l1.392-1.476-.779.448c-.1950137.1118232-.4406794.0797527-.6004508-.078386s-.1943635-.4034621-.0845492-.599614l.43-.765c-.2068974-.0371972-.3684331-.1998333-.404225-.4069784-.0357918-.2071451.0618051-.4145558.244225-.5190216l1.128-.65c.1950621-.1127363.4414281-.0810927.6016687.0772792.1602405.1583718.1947718.4043498.0843313.6007208l-.317.562 2.15-1.24c.2145165-.1213913.4854956-.0683443.6384044.1249743s.1421256.4692305-.0254044.6500257l-1.392 1.477 2.883-1.664c.2166955-.1249531.4923876-.0705435.6453641.1273666.1529764.19791.1361605.4784164-.0393641.6566334l-2.586 2.609 2.086-1.2c.2012751-.1156035.455642-.0774893.6141943.0920306.1585524.1695199.1795934.4258643.0508057.6189694l-.922 1.374.257-.148c.2374252-.1242009.5305531-.0391619.6646466.1928199.1340935.2319817.0614797.5284321-.1646466.6721801l-2.124 1.222c-.0765867.0464355-.1644356.0709917-.254.071z" fill="#3c99f3"/><path id="Path" d="m37.258 41.471c-.1939296.0003811-.3705888-.1114117-.4532667-.2868346-.082678-.1754229-.056461-.3828326.0672667-.5321654l.952-1.154-3.065 1.77c-.2266681.1317558-.5166136.0660514-.6643416-.1505461-.1477279-.2165976-.1030619-.5105201.1023416-.6734539l.266-.212-.183.105c-.2166127.1233895-.4910237.0683675-.6433231-.1289924-.1522993-.1973599-.1359526-.4767549.0383231-.6550076l2.2-2.224-1.6.923c-.1868433.108106-.4219692.0840976-.5831073-.0595403-.161138-.1436378-.2119017-.3744704-.1258927-.5724597l.63-1.446c-.2400318.0437508-.4765901-.0921294-.5597324-.3215129-.0831422-.2293835.0114132-.485279.2237324-.6054871l1.128-.65c.1868433-.108106.4219692-.0840976.5831073.0595403.161138.1436378.2119017.3744704.1258927.5724597l-.608 1.4 3.523-2.029c.2166955-.1249531.4923876-.0705435.6453641.1273666.1529764.19791.1361605.4784164-.0393641.6566334l-2.2 2.223 2.7-1.562c.226047-.126152.5110038-.0589101.6568083.1549885.1458046.2138986.1042381.5037159-.0958083.6680115l-.407.326c.1782543-.0370508.3624185.0271568.479.167.1555302.1857411.1555302.4562589 0 .642l-.951 1.151.317-.182c.2374252-.1242009.5305531-.0391619.6646466.1928199.1340935.2319817.0614797.5284321-.1646466.6721801l-2.709 1.563c-.0754237.0457373-.1617951.0702668-.25.071z" fill="#3c99f3"/><path id="Path" d="m49.161 21.471c-.2043623.0004311-.3884169-.1235489-.4648085-.3130969s-.0297418-.4065064.1178085-.5479031l1.841-1.768-2.375 1.371c-.2149563.121451-.4863807.0678222-.6389942-.1262542-.1526135-.1940765-.1407225-.4704926.0279942-.6507458l2.131-2.236-1.519.877c-.1883612.1054763-.4231479.0781489-.5822487-.0677693-.1591009-.1459182-.206583-.3774716-.1177513-.5742307l.584-1.259c-.1924957.0100336-.3753609-.0848421-.478-.248-.0666188-.1149293-.0847639-.2516448-.0504306-.3799727.0343334-.1283278.1183225-.2377179.2334306-.3040273l1.128-.65c.1885623-.1059344.4238602-.0786212.5831421.0676906.1592819.1463117.206434.3784491.1168579.5753094l-.55 1.185 3.166-1.822c.2150358-.1228992.4876397-.0698481.6408929.1247234.1532532.1945714.1409636.4720174-.0288929.6522766l-2.126 2.228 2.922-1.687c.2190652-.1318893.5023394-.0772423.6566242.1266708s.1298566.4913741-.0566242.6663292l-1.847 1.769 1.246-.718c.1897681-.1088047.4282329-.0816206.5886437.0671031.1604108.1487238.2055222.3844554.1113563.5818969l-.647 1.341c.2425593-.0669335.4970703.0568155.5942273.2889267.0971569.2321112.006687.5002622-.2112273.6260733l-1.274.735c-.1897681.1088047-.4282329.0816206-.5886437-.0671031-.1604108-.1487238-.2055222-.3844554-.1113563-.5818969l.633-1.315-3.405 1.962c-.0754237.0457373-.1617951.0702668-.25.071z" fill="#3c99f3"/><path id="Path" d="m9.755 41.471c-.18461125.000151-.35428453-.1014356-.44133417-.2642352s-.07730978-.3603192.02533417-.5137648l1.033-1.553-3.641 2.1c-.22212621.1265945-.50397116.0652242-.65335251-.1422642-.14938136-.2074884-.11816974-.4942439.07235251-.6647358l1.733-1.529-1.6.925c-.2187434.1297091-.50000209.0745628-.6535686-.128145s-.13051364-.4883932.0535686-.663855l1.592-1.537-1 .574c-.18856234.1059344-.42386024.0786212-.5831421-.0676906-.15928186-.1463117-.20643403-.3784491-.1168579-.5753094l.582-1.254c-.23430264.0216073-.45196649-.1230718-.52275261-.3474686s.02446195-.4677841.22875261-.5845314l1.128-.65c.18876342-.106398.42457713-.0791011.58404197.0676066.15946483.1467076.20628423.3794331.11595803.5763934l-.543 1.181 3.16-1.823c.2187434-.1297091.5000021-.0745628.6535686.128145s.1305136.4883932-.0535686.663855l-1.59 1.534 2.4-1.384c.2225048-.1289965.5065753-.0681522.6567253.1406622.15015.2088145.1173946.4974755-.0757253.6673378l-1.735 1.531 1.163-.671c.2010978-.1158361.4554672-.0780728.6142398.0911892.1587725.169262.1802075.4255244.0517602.6188108l-1.033 1.552.367-.211c.2374252-.1242009.5305531-.0391619.6646466.1928199.1340935.2319817.0614797.5284321-.1646466.6721801l-2.222 1.277c-.07542374.0457373-.16179512.0702668-.25.071z" fill="#3c99f3"/><g fill="#262626"><path id="Shape" d="m59.724 8.255c0-1.905.576-5.122-.925-6.643-1.309-1.326-3.634-.969-5.314-.969h-26.679c-7.306 0-14.914-.62-22.2 0-5.621.478-4.33 6.274-4.33 10.43v29.088c0 4.364-1.573 10.854 4.3 11.2 16.855.982 34.032.009 50.923 0 .1271773.0201438.2571148.0143613.382-.017 5.844-1.18 3.839-9.6 3.839-14.064zm-3.561 42.388h-42.189c-2.736 0-5.6.241-8.323 0-2.368-.209-3.661-1.19-3.927-3.709-.759-7.2 0-14.891 0-22.128v-12.967c0-2.2-.608-5.431 0-7.568 1.422-4.992 10.588-2.914 14.581-2.914h26.795c3.634 0 14.339-1.989 15.174 3.029.409 2.463 0 5.354 0 7.841v29.463c.002 2.02 1.049 8.245-2.111 8.953z"/><path id="Shape" d="m12.16 14.815c-.6879885-.2966262-1.4461913-.3913149-2.186-.273-1.441 0-4.443-.524-4.7 1.544-.04999959.820906-.04999959 1.644094 0 2.465-.12537349.7686679-.04746045 1.5567618.226 2.286.52.778 1.61.621 2.417.621h2.674c.1085134.0189362.2194866.0189362.328 0 2.377-.383 1.813-2.734 1.813-4.564-.004-.737.121-1.601-.572-2.079zm-5.385 5.307c-.15892197-.7644566-.17485749-1.5517386-.047-2.322-.10442859-.7007502-.10071876-1.413375.011-2.113.136-.345.3-.233.757-.233h1.355c.668 0 2.106-.293 2.4.528.142.4.229 4.455-.158 4.556h-1.944c-.608.004-2.016.285-2.374-.416z"/><path id="Shape" d="m12.147 24.766c-.707317-.3312556-1.4984153-.4403846-2.269-.313-1.472 0-4.4-.529-4.613 1.616-.084.84 0 1.73 0 2.574-.12948921.7668828-.0372015 1.5547978.266 2.271.579.8 1.729.633 2.591.633h2.5c.1044118.0197045.2115882.0197045.316 0 .1201419-.0008281.2386226-.0281435.347-.08 1.95-.561 1.448-2.842 1.448-4.551.002-.768.115-1.626-.586-2.15zm-5.347 5.334c-.15327628-.74692-.17358751-1.5150233-.06-2.269 0-.411-.26-1.986.205-2.283.342-.218 1.614 0 2 0 .5 0 1.845-.253 2.205.186.316.386.321 4.654-.085 4.72h-2.125c-.595-.001-1.857.279-2.14-.354z"/><path id="Shape" d="m26.152 14.785c-.7088458-.3201083-1.4962469-.4244459-2.264-.3-1.49 0-4.349-.526-4.62 1.589-.0535005.857166-.0535005 1.716834 0 2.574 0 .67-.166 1.671.26 2.251.577.786 1.734.606 2.584.606h2.494c.1070517.0202404.2169483.0202404.324 0 .1218606-.0007998.2420464-.0284561.352-.081 1.952-.56 1.45-2.806 1.45-4.523 0-.751.119-1.601-.58-2.116zm-5.352 5.315c-.1472449-.7512529-.1685353-1.5217624-.063-2.28 0-.4-.257-2.011.2-2.309.334-.218 1.621 0 2 0 .529 0 1.845-.256 2.212.213.31.4.332 4.7-.072 4.767h-2.127c-.616-.001-1.879.289-2.15-.391z"/><path id="Shape" d="m26.158 24.809c-.6870921-.3010714-1.446435-.3975951-2.187-.278-1.448 0-4.442-.525-4.7 1.551-.0494996.8212548-.0494996 1.6447452 0 2.466-.1253362.7699907-.047433 1.5593639.226 2.29.521.787 1.606.631 2.419.631h2.674c.1085064.0190171.2194936.0190171.328 0 2.375-.383 1.811-2.746 1.811-4.572 0-.741.123-1.604-.571-2.088zm-5.383 5.313c-.1570826-.762326-.1726751-1.5470356-.046-2.315-.1035762-.6994983-.0995294-1.4107256.012-2.109.136-.341.307-.229.758-.229h1.355c.611 0 2.009-.3 2.371.409.207.407.235 4.565-.14 4.653h-1.939c-.611 0-2.009.301-2.371-.409z"/><path id="Shape" d="m40.138 14.882c-.7085987-.214095-1.455794-.2687345-2.188-.16-1.244 0-4.109-.438-4.623 1.156-.1330688.8054142-.1502427 1.6257222-.051 2.436-.1186125.7778613-.0770974 1.5717527.122 2.333.411.824 1.551.631 2.31.631h2.818.027c.1026282-.0019718.2049429-.0120027.306-.03.918-.148 1.763-.5 1.865-1.511.087-.858 0-1.77 0-2.632 0-.755.199-1.796-.586-2.223zm-5.363 5.24c-.1314611-.726203-.1486686-1.4684853-.051-2.2 0-.735-.165-1.68-.09-2.384.0145556-.0793379.0145556-.1606621 0-.24.0577959.0083865.1167846.0000586.17-.024.1628932-.0225028.3281068-.0225028.491 0h1.474c.841 0 2.208-.3 2.485.758.107.407.2 4.343-.076 4.686h-1.823c-.738.004-2.245.301-2.58-.596z"/><path id="Shape" d="m33.492 30.82c.506.71 1.633.531 2.392.531h2.671.1.05c.014 0 .032-.006.047-.007.046 0 .079 0 .134-.01.959-.154 1.748-.556 1.841-1.6.081-.9 0-1.842 0-2.745 0-.732.166-1.653-.547-2.111-.6944252-.2644552-1.4457795-.3433818-2.18-.229-1.4 0-4.469-.507-4.725 1.5-.0470021.7596069-.0470021 1.5213931 0 2.281.001.67-.204 1.8.217 2.39zm1.254-5.357c.183-.288 1.616-.112 2.076-.112.9 0 2.231-.35 2.454.843.076.407.192 4.254-.14 4.455h-1.958c-.9 0-2.231.35-2.454-.843-.0610132-.7053497-.0610132-1.4146503 0-2.12 0-.451-.234-1.82.022-2.223z"/><path id="Shape" d="m40.137 34.879c-.708367-.2169027-1.4562215-.272932-2.189-.164-1.251 0-4.11-.441-4.621 1.163-.1320781.8055056-.1492491 1.6256723-.051 2.436-.117994.7778919-.0764855 1.5716579.122 2.333.412.829 1.549.638 2.311.638h2.818.023c.1042872-.0001945.2083551-.009564.311-.028.926-.149 1.762-.5 1.863-1.52.086-.858 0-1.77 0-2.632 0-.757.198-1.796-.587-2.226zm-5.362 5.243c-.1319698-.7261513-.1491791-1.4685134-.051-2.2 0-.733-.166-1.68-.089-2.381.0156237-.0778909.0156237-.1581091 0-.236.0581225.0084126.1174389.0000875.171-.024.1628932-.0225028.3281068-.0225028.491 0h1.473c.838 0 2.208-.3 2.484.751.108.409.206 4.355-.08 4.679h-1.821c-.732.004-2.244.301-2.578-.589z"/><path id="Shape" d="m54.174 14.869c-.6912744-.2686319-1.4412885-.3497052-2.174-.235-1.408 0-4.467-.51-4.722 1.515-.0460004.7606385-.0460004 1.5233615 0 2.284 0 .674-.2 1.8.216 2.389.51.72 1.63.544 2.4.544h2.671.107.04.032c.0501586-.0002313.1002546-.0035711.15-.01.943-.152 1.775-.569 1.836-1.618.054-.908 0-1.835 0-2.745-.006-.741.158-1.66-.556-2.124zm-5.45 4.937c-.0620256-.7053056-.0620256-1.4146944 0-2.12 0-.446-.234-1.815.024-2.213.184-.284 1.626-.107 2.078-.107.892 0 2.226-.348 2.45.828.078.411.195 4.253-.146 4.44h-1.956c-.892 0-2.226.348-2.45-.828z"/><path id="Shape" d="m12.165 34.835c-.6890948-.2862563-1.4441344-.3755732-2.181-.258-1.418 0-4.447-.517-4.709 1.519-.0514985.8211934-.0514985 1.6448066 0 2.466 0 .652-.175 1.694.22 2.269.519.756 1.615.592 2.409.592h2.673c.1090824.0144382.2197512.011739.328-.008 2.384-.385 1.82-2.693 1.82-4.535 0-.726.13-1.58-.56-2.045zm-5.39 5.287c-.15439292-.7672537-.17132237-1.5558271-.05-2.329-.10190906-.7048683-.09921334-1.420919.008-2.125.134-.361.281-.245.754-.245h1.354c.7 0 2.115-.3 2.409.569.134.4.228 4.45-.145 4.585h-1.946c-.623 0-2.041.287-2.384-.455z"/><path id="Path" d="m55.467 10.692h-10.743v-6.886c0-.388-1.448-.135-1.448.388v6.5h-12.552v-6.888c0-.252-1.448-.042-1.448.388v6.5h-12.552v-6.888c0-.23-1.448-.027-1.448.388v6.5h-9.809c-.324 0-1.645.616-.934.616h10.743v35.884c0 .23 1.448.027 1.448-.388v-35.5h12.552v35.888c0 .252 1.448.042 1.448-.388v-35.5h12.552v35.888c0 .388 1.448.135 1.448-.388v-35.5h9.809c.324.002 1.645-.614.934-.614z"/><path id="Path" d="m5.732 6.462h6c.611 0 1.513-.924.536-.924h-6c-.611 0-1.513.924-.536.924z"/><path id="Path" d="m19.737 6.482h6c.637 0 1.5-.964.526-.964h-6c-.637 0-1.502.964-.526.964z"/><path id="Path" d="m33.532 6.3h6c.316 0 1.642-.6.936-.6h-6c-.316 0-1.642.6-.936.6z"/><path id="Path" d="m47.74 6.491h6c.648 0 1.5-.982.52-.982h-6c-.648 0-1.496.982-.52.982z"/></g></g></svg>