<svg id="Layer_1" enable-background="new 0 0 91 91" height="512" viewBox="0 0 91 91" width="512" xmlns="http://www.w3.org/2000/svg"><g><path d="m13.3 17.6c-1.4 1.9-5.1 7.7-6.9 15.7-2 9.3-1.5 17.3 2 28.8 1.1 3.5 4.3 20.1 31.3 25.1 17.9 3.3 31.1-7.5 34.4-12.1 5.6-7.8 5.5-20 4.9-29.6-.5-9.7-.9-20.3 5-28.1-8.3.3-16.1 5.5-19.7 12.9-1.4 2.9-1.8 5.7-4 6.2-3.6-3.7-4-8.7-3.2-13.8s2.6-8 4.9-12.6c-4.5.5-9 2.1-13 4.1s-7.6 7-9.5 11.1c-1.9 4.3-1.8 4.3-3.6 8.7-.2.4-.4.9-.8 1.1-.9.4-1.7-.7-2.1-1.6-1.8-4.2-2.7-6.2-3.2-10.8-1.6-14 2.5-14.6 1.6-18.2-.8-4.1-15.7 9.8-18.1 13.1z" fill="#e09b9c"/><path d="m26.4 71.4c.3 1.5.8 2.9 1.6 4.2 1.1 1.8 2.8 3.3 4.5 4.5 4 2.8 8.8 4.6 13.6 4.6 4.9-.1 9.8-2.2 12.7-6.1 3.1-4.1 3.6-9.5 3.3-14.6 0-.7-.1-1.4-.6-1.9-1.2 1.6-2.3 3.1-3.5 4.7-1.1 1.4-2.5 3.1-4.3 2.7-.5-3.3-1.1-6.6-2.7-9.6-1-1.8-2.3-3.3-3.2-5.1s-1.4-4-.5-5.8c-2.7 2-5.5 4.1-7.3 7-2.8 4.7-2.3 10.6-1.2 15.9-2.1-1.3-4.2-2.6-6.3-3.9-1.1-.7-2.3-1.4-3.1-2.4-.6-.8-1-2.9-2.1-2.7-2.2.3-1.2 7.1-.9 8.5z" fill="#fbe488"/><path d="m22.6 17.2c-1.2 3.9 3.1 14.5 15.2 22.8 1-7.6 6-14.7 12.4-19 1.2 8.4 6 16.8 9.6 19.3 5.2-4.8 11-10.9 17.8-12.9 1.2-3.9 2.8-5.2 4.9-8.7-9.7 2.7-18.2 9.6-22.7 18.6-4.6-7.5-5-17.4-1-25.2-5.7 1.2-10.7 5-14.2 9.7s-5.6 10.3-7.1 16c-8.9-8.3-11.5-22.5-6.1-33.5-18.7 9.5-25.4 26.3-22.3 28.3 3.6-8.3 8.1-13.2 13.5-15.4z" fill="#fff"/><path d="m37.4 74.7c1.6 1.1 3.3 1.9 5.1 2.5.3.1.7.2 1 .1.3-.2.5-.5.6-.9.9-2.8 1.4-5.8 1.4-8.7 0-.7 1-.9 1.3-.2.4 1 .9 2 1.6 3 1.6 2.3 3.9 3.9 6.5 3.2.1 0 .2.1.2.2-.6 1.1-2.1 5.4-2.6 6.1-1.2 1.6-3.5 4.6-5.6 5-4 .5-9-7-9.5-10.3z" fill="#fff7e4"/><path d="m83.2 15c-10.3 1.5-19 8.8-23.1 18.2-.9-2.4-1.7-5-1.8-7.5-.1-4.3.7-10.3 4.3-13.1 1.6-1.2.2-4-1.6-3.9-7.6.4-14 3.9-18.9 9.8-3.2 3.8-6 8.8-7.4 13.8-.8-1.1-1.5-2.2-2.1-3.4-1.4-2.9-2.3-6.1-2.5-9.3-.3-5 .7-11 3-15.7.2-.2.4-.5.7-.7.4-.4.1-1.2-.5-1.2-5.4-.1-10.5 4.2-14.5 7.6-4.6 3.9-8.5 8.7-11.2 14.1-2.2 4.7-3.1 9.7-3.6 14.7-1.3 13.1 1.1 27.7 9.8 37.9 11.1 13.1 32.3 15.8 47.9 10 12.5-4.6 18.5-15.8 19.5-28.6 1.1-13-4.9-27.4 4.2-38.9 1.4-1.9.1-4.1-2.2-3.8zm-53.7 60.1c-1.9-2.9-2.4-6.1-1.8-9.2 2.8 4.4 8.6 7.6 13 9.1 2.4.8 3.8-2.8 1.7-4-6.7-4-1.4-12.4 3.7-18.5.7 5.8 5.1 11.6 4.5 17.7-.1 1.2 1.3 2.2 2.5 1.9 3-1 5.7-2.7 7.4-5.1.4 3.2 0 6.3-1.6 9.2-1.8 3.3-5 5.7-8.5 6.7-1 .1-1.9.1-2.9.1-2.7 0-5.5-.1-8.2-.5-3.9-1.6-7.5-3.8-9.8-7.4zm38.2 2.1c-2.3 1.8-4.8 3-7.5 3.9.7-.8 1.3-1.7 1.9-2.6 3.5-5.9 2.8-13 .6-19.2-.7-2-4-1.9-4 .5 0 3.2-1.8 5.7-4.3 7.3-.4-2.6-1.4-5.1-2.4-7.7-1.6-3.7-3.8-8.7-.9-12.4 1.5-1.9-.8-4.4-2.7-2.7-5.2 4.7-14.2 14.8-13.4 22.9-2.9-2.1-5.1-4.8-4.3-7.8.7-2.6-2.6-3.7-4.1-1.7-5.8 7.7-4.3 15.8.8 21.5-1.3-.7-2.6-1.4-3.9-2.3-10.4-7.3-14-20.7-14.1-32.8 0-5 .3-10.3 1.8-15.1 1.5-4.9 4.8-9.4 8.2-13.2 2.3-2.5 4.8-4.9 7.5-6.9.6-.5 1.3-.9 1.9-1.4-1.8 3.6-2.4 8.1-2.3 11.7.2 6.4 2.8 13.8 7.4 18.6v.1c-.1 3.5 5.3 3.5 5.4 0 0-5.5 3.1-11.4 6.4-15.8 2.7-3.5 6-6.4 10-7.8-1.7 3.6-2.3 8-2.1 11.7.1 1.4 2.1 9.9 4.6 13.5.5 2.6 4.7 3.3 5.3.3 1.7-8.5 7.6-15.3 15.2-18.7-2.5 5.1-3.7 11-3.2 16.5.4 3.8 1 7.5 1.2 11.3.7 10.2-.4 21.6-9 28.3z" fill="#4e7a9f"/></g></svg>