<svg id="Layer_1" enable-background="new 0 0 91 91" height="512" viewBox="0 0 91 91" width="512" xmlns="http://www.w3.org/2000/svg"><g><path d="m27.6 24.8c-1.1.8-2.4 1.5-3.4 2.3-1.1.9-1.9 2.2-1.9 3.5 1.5.1 3.1.2 4.4 1 2 1.1 3.1 3.2 3.7 5.4s.8 4.4 1.5 6.5c.1.4.3.8.7 1 .6.3 1.3-.4 1.6-1 1.3-2.4 1.7-5.2 3.3-7.4 1.7-2.2 4.4-3.4 6.5-5.2.3-.3.6-.6.8-.9.3-.8-.1-1.7-.7-2.4-2.1-2.5-6.1-3-7.6-5.9-.6-1.3-.7-2.7-1.2-4-.4-.9-1.6-2.4-2.7-2-1.1.3-.9 2-1.1 2.9-.5 2.4-1.8 4.6-3.9 6.2z" fill="#fdf0bc"/><path d="m66.4 43.5c-.6.5-1.4.8-2 1.3s-1.1 1.2-1.1 2c.9.1 1.8.1 2.5.6 1.1.6 1.8 1.8 2.1 3.1.3 1.2.4 2.5.8 3.7.1.2.2.5.4.6.4.1.7-.2.9-.6.8-1.3 1-3 1.9-4.2 1-1.3 2.5-1.9 3.7-3 .2-.2.4-.3.4-.5.2-.5-.1-1-.4-1.4-1.2-1.4-3.5-1.7-4.4-3.4-.2-.7-.2-1.6-.5-2.3-.2-.5-.9-1.4-1.5-1.2s-.5 1.1-.6 1.7c-.4 1.4-1.1 2.7-2.2 3.6z" fill="#f9e7cf"/><path d="m43.9 67.7c-.6.5-1.4.8-2 1.3s-1.1 1.2-1.1 2c.9.1 1.8.1 2.5.6 1.1.6 1.8 1.8 2.1 3.1.3 1.2.4 2.5.8 3.7.1.2.2.5.4.6.4.1.7-.2.9-.6.8-1.3 1-3 1.9-4.2 1-1.3 2.5-1.9 3.7-3 .2-.2.4-.3.4-.5.2-.5-.1-1-.4-1.4-1.2-1.4-3.5-1.7-4.4-3.4-.4-.7-.4-1.6-.7-2.3-.2-.5-.9-1.4-1.5-1.2s-.5 1.1-.6 1.7c-.1 1.4-.8 2.7-2 3.6z" fill="#d9cfe5"/><g fill="#4e7a9f"><g><path d="m16.6 32.1c5.4-.4 11-3.3 14.5-7.4 4.5-5.3 3.8-13.4 3.5-19.8-.1-3.1-4.9-3.1-4.8 0 .2 5.1 1 12.3-2.2 16.7-2.6 3.6-7.4 5.8-11.5 7.1-1.8.4-1.6 3.5.5 3.4z"/><path d="m32.3 4.8c-4.1 4.8-2 12.9 1.1 17.7 3.5 5.5 11.6 10.5 18.2 9 2.4-.5 2-3.7 0-4.4-2.8-1-5.7-1-8.5-2.4-2.4-1.3-4.4-3.1-5.9-5.4-2.9-4.4-2.3-9-3.1-13.9 0-.9-1.3-1.2-1.8-.6z"/><path d="m51.5 29.4c-4-5.2-12.5 1.1-15.2 4.7-4.4 6-6 14.8-5.8 22 .1 3.6 5.7 3.6 5.6 0-.2-5.8.7-12.3 3.4-17.6 1.2-2.3 3-4.3 5.2-5.7 2.1-1.3 4.6-1.3 6.7-2.5.4-.1.4-.6.1-.9z"/><path d="m14.5 32.5c4.8-.1 10-.9 12.8 3.9 1.3 2.2 1.4 4.9 1.7 7.4.6 4.5 1.1 9.1 1.7 13.6.4 3.2 5.4 3.2 5 0-.7-5.5-1.5-11-2.3-16.5-.6-4.1-1.9-7.8-5.2-10.4-3.9-3.1-10.3-3-14.6-1.1-1.5.6-.7 3.1.9 3.1z"/></g><g><path d="m59.4 47.3c3.4-.3 7-2.1 9.2-4.8 2.7-3.3 2.3-8.3 2.1-12.2-.1-1.9-3.1-1.9-3 0 .1 3.2.6 7.3-1.2 10.1-1.5 2.4-4.8 3.9-7.4 4.7-1.2.3-1.1 2.3.3 2.2z"/><path d="m69.1 30.4c-5.1 7.2 4.2 17.4 11.8 16.6 1.5-.2 2.1-2.4.4-2.8-3.5-.9-6.7-1.5-8.9-4.7-1.8-2.7-1.7-5.6-2-8.7-.1-.8-.9-1-1.3-.4z"/><path d="m81.2 45.6c-2.6-2.8-7.3.2-9.1 2.5-3.1 3.8-4 9.5-4 14.3 0 2.2 3.6 2.2 3.5 0-.1-3.7.4-8 2.3-11.3 1.8-3.2 4.4-3.4 7.3-4.8.1-.2.1-.5 0-.7z"/><path d="m58 47.5c3.5 0 7.4-.5 8.6 3.8.3 1.2.4 2.5.5 3.7.3 2.7.7 5.4 1 8 .3 2.2 3.4 1.9 3.1-.4-.5-3.4-.9-6.8-1.4-10.2-.9-6.2-6.5-9.4-12.4-6.9-.9.5-.3 2 .6 2z"/></g><g><path d="m37 71.8c3.4-.3 7-2.1 9.2-4.8 2.7-3.3 2.3-8.3 2.1-12.2-.1-1.9-3.1-1.9-3 0 .1 3.2.6 7.3-1.2 10.1-1.5 2.4-4.8 3.9-7.4 4.7-1.2.4-1.1 2.4.3 2.2z"/><path d="m46.7 54.9c-5.1 7.2 4.2 17.4 11.8 16.6 1.5-.2 2.1-2.4.4-2.8-3.5-.9-6.7-1.5-8.9-4.7-1.8-2.7-1.7-5.6-2-8.7-.1-.7-.9-1-1.3-.4z"/><path d="m58.8 70.1c-2.6-2.8-7.3.2-9.1 2.5-3.1 3.8-4 9.5-4 14.3 0 2.2 3.6 2.2 3.5 0-.1-3.7.4-8 2.3-11.3 1.8-3.2 4.4-3.4 7.3-4.8.1-.2.1-.5 0-.7z"/><path d="m35.6 72.1c3.5 0 7.4-.5 8.6 3.8.3 1.2.4 2.5.5 3.7.3 2.7.7 5.4 1 8 .3 2.2 3.4 1.9 3.1-.4-.5-3.4-.9-6.8-1.4-10.2-.9-6.2-6.5-9.4-12.4-6.9-.9.4-.3 2 .6 2z"/></g></g></g></svg>