<svg id="Layer_1" enable-background="new 0 0 91 91" height="512" viewBox="0 0 91 91" width="512" xmlns="http://www.w3.org/2000/svg"><g><g><path d="m41.6 34.2c-7.7 4.8-19.8 7.8-28.6 4-8-3.5-11.7-15-7.2-22.4 2-3.4 4.9-6.8 8.6-8.3 9.8-4.2 21.7-3.8 30.5 2s14.1 17.2 11.7 27.6c-2.7 11.4-20.7 28.4-16.8 30.6 8.6.4 15.5-10.7 23.6-7.7 6.5 2.3 7.6 13 14.5 12.4 3.6-.3 8.4-5.4 10.4-8.4-.8 6.1-1.8 14.2-6.1 18.5-4.4 4.3-12.4 4.8-15.9-1.1-1.4-2.4-3.5-4.8-5.6-6.5-4.1-3.3-9.7 1.6-14.2 4.3s-10.6 5-15.8 3.9c-6.7-1.4-9.8-9.4-8-16s6.8-11.9 11.1-17.2 6.6-8.1 8.1-14.4c0-.8.1-.9-.3-1.3z" fill="#b0ddca"/></g><path d="m47.8 31.7c1.2.4 1.5 1.9 1.4 3.2-.3 3.3-2.1 6.3-3.9 9.1-2.4 3.8-4.8 7.7-7.6 11.3-2.5 3.2-5.3 6.3-6.3 10.2-1.1 3.9.4 8.9 4.2 10.2 2.1.8 4.5.2 6.7.8.5.1.9.3 1.3.6 1.1.9 1 2.6.3 3.7s-2.1 1.8-3.3 2.2c-4.7 1.6-10.3 1-14.3-1.9-4.1-2.9-6.4-8.2-5.5-13.1.4-2.3 1.4-4.3 2.5-6.3 2-3.5 4.2-6.9 6.8-10.1 3.3-4.2 7.4-8 9.7-12.9.7-1.4.9-3.2 1.9-4.4 1-1.4 4.4-3.2 6.1-2.6z" fill="#cde9df"/><path d="m33 77.3c4.5.5 8.6-2.1 12.4-4.5s8.2-4.7 12.6-3.6c3.4.9 5.9 3.6 8.5 5.9s6 4.4 9.4 3.5c3.9-1 5.8-5.5 9.3-7.7.3-.2.6-.4 1-.4 1.2 0 1.3 1.8 1 2.9-1 3.7-2.7 7.3-5.6 9.7s-7.2 3.5-10.6 1.8c-2.9-1.4-4.6-4.4-6.5-7s-4.7-5-7.9-4.6c-2.1.3-3.9 1.7-5.5 3.1-4 3.3-8.3 6.3-13.4 7.3-5 1-10.8-.3-13.8-4.5-.9-1.2-3.7-10.7.5-9.4 0 0 1.7 3.2 2.5 4.3 1.5 2.1 4 3 6.1 3.2z" fill="#96ccb2"/><path d="m23.2 10.4c3.8-.3 9 .5 12.6 1.9 4.3 1.7 10.8 5.7 13.5 9.4s5.3 9 6.2 11.7c.4 1.2 1-6.6-.7-10.6s-3.1-6.8-5.9-10c-1.3-1.5-3.9-3.5-5.5-4.6-2.4-1.6-5.3-2.4-8.2-3-9.2-1.6-19.4-.1-26.4 6.1-1.3 1.2-4.9 4.5-4.5 6.6.5 2.8 3 1 4 0 4.3-4.3 9-7.1 14.9-7.5z" fill="#fff"/><path d="m18.2 35.9c-.9.2-1.8.6-2.7.8-1.7.3-3.4-.3-5-.8-.6-.2-1.1-.4-1.6-.7-1.1-.8-1.6-2.3-1.3-3.6.4-1.3 1.6-2.3 2.9-2.4 1.6-.1 3 .9 4.6 1.2 1.5.3 3.1-.1 4.7-.4 2.2-.4 10.8-1.6 11.2 2 .4 5-10.2 3.3-12.8 3.9z" fill="#96ccb2"/><g fill="#4e7a9f"><path d="m86.4 62.7c-1.8 2.7-6 8.1-9.8 7.3-3-.6-4.7-4.8-6.4-7-4.4-6-10.5-7-17-3.6-3.4 1.8-6.5 4.3-10.1 5.5-.1 0-.4.1-.7.1.2-.4.4-.9.5-1 3.6-6 8.3-11.3 11.9-17.3 4-6.7 5.9-13.8 3.9-21.6-2-8.3-7.8-15.6-15.5-19.3-8.2-4.1-18-4.5-26.7-1.6-7.7 2.5-14.4 9.5-14.9 17.9-.5 8.2 4.5 16.4 12.5 18.9 7.5 2.3 17.1 1 24.2-3.1-3.5 8.6-11.4 14.6-15.8 22.8-3.9 7.4-4.2 18.5 4 23.3 9.5 5.5 19.2-2.4 27.2-6.7 2.8-1.5 4.5-1.7 6.9.5 2.1 2 3.3 4.6 5.3 6.6 2.7 2.8 6.7 3.9 10.5 3.3 11.3-1.8 13.1-14.6 14.2-23.8.2-2.4-3.1-2.8-4.2-1.2zm-11.4 20.7c-5 .5-6.6-3.5-9.3-6.8-2.5-3.1-5.4-5.8-9.6-5.2-3.9.6-7.2 3.3-10.5 5.3-4 2.4-8.9 4.6-13.7 4-4.2-.6-6.7-4.2-7.2-8.3-.6-4.4 1.5-8.6 3.9-12.1 5.4-8.2 13.1-14.4 15.6-24.3.7-2.8-3.1-4.2-4.5-2.2-7.8 2.8-16.2 5.8-24.4 2.9-1.9-.7-3.6-1.9-5-3.4 1.4.1 2.9.9 4.3 1.1 2.3.3 4.1-.7 6.3-1 3.7-.4 6.6 2.1 9.8-1 2.2-2.2-1.2-5.6-3.4-3.4-1.1 1-3.9-.4-5.2-.5-1.8-.1-3.3.6-5.1 1-2.1.5-3.7-.7-5.7-1-1.4-.2-2.5 0-3.8.5-1.5-3.2-1.8-7-.5-10.4 3.5-9 13.6-12 22.5-11.6 9.2.4 17.8 5.2 22.3 13.4 3.8 7 3.9 14.8.1 21.8-3.2 5.9-7.5 11.1-11.3 16.6-1.7 2.4-6.3 8.3-2.3 10.8 2.3 1.4 6.3-.3 8.5-1.3 3.2-1.5 6-3.8 9.2-5.4 3.7-1.9 7.1-1.6 9.8 1.7 2.2 2.6 3.6 5.8 6.2 8 4.4 3.5 9.1 1.6 12.9-1.7-1.1 5.9-3.5 11.9-9.9 12.5z"/><path d="m26.4 16.5c-.6-.1-1.2-.2-1.8-.1-.9.1-2 .1-2.8.6-1.1.7-2.2 2.1-1.7 3.5.7 1.7 2.1 2.4 3.8 2.7 1.6.4 4.4.6 5.5-.8 1-1.2 1.3-2.7.5-4.1-.7-1.4-2.1-1.7-3.5-1.8z"/></g></g></svg>