<svg height="512" viewBox="0 0 44 60" width="512" xmlns="http://www.w3.org/2000/svg"><g id="024---Bomb-Element" fill="none"><path id="Path" d="m22.24 59.4c-.2200148.0000521-.4142096-.1437206-.4783792-.3541696-.0641697-.210449.0167669-.4381142.1993792-.5608304l7.15-4.82-9.518 5.5c-.23265.1288599-.5254615.0530472-.6663444-.1725252s-.0805297-.5219566.1373444-.6744748l10.571-7.1-12.835 7.406c-.2354379.13455-.5352149.0569022-.6757281-.1750261-.1405133-.2319283-.0705395-.5335888.1577281-.6799739l5.406-3.423-6.5 3.755c-.2347029.1405531-.538787.0663884-.6824238-.1664401-.1436368-.2328284-.0734897-.5378644.1574238-.6845599l13.479-8.857-15.156 8.748c-.2361017.1433179-.5436821.0681017-.687-.168s-.0681017-.5436821.168-.687l11.333-7.235-12.495 7.213c-.2358256.1438702-.5436298.0693256-.6875-.1665-.1438701-.2358256-.0693256-.5436298.1665-.6875l14.127-9.083-15.197 8.773c-.23541159.1379583-.53795774.061708-.67986369-.1713453-.14190596-.2330532-.07076502-.5368414.15986369-.6826547l14.932-9.576-15.948 9.208c-.23543794.13455-.53521485.0569022-.67572813-.1750261s-.0705395-.5335888.15772813-.6799739l14.027-8.907-14.722 8.5c-.23497088.1292146-.53003872.050062-.66879247-.179405-.13875376-.2294671-.07178369-.5275361.15179247-.675595l13.291-8.39-13.885 8.017c-.23693016.1419372-.54406281.0649301-.68599999-.172-.14193717-.2369302-.06493016-.5440628.17199999-.686l8.782-5.452-9.022 5.211c-.23486417.1312813-.53150396.0531604-.67124116-.1767732-.1397372-.2299337-.07245767-.5292187.15224116-.6772268l16.276-10.39-16.809 9.7c-.23486417.1312813-.53150396.0531604-.67124116-.1767732-.1397372-.2299337-.07245767-.5292187.15224116-.6772268l16.112-10.274-16.387 9.461c-.23543794.13455-.53521485.0569022-.67572813-.1750261s-.0705395-.5335888.15772813-.6799739l13.88-8.772-14.055 8.114c-.23560872.1297647-.5316571.04988-.67000668-.1807924-.13834959-.2306723-.06941665-.5294607.15600668-.6762076l8.735-5.431-8.6 4.962c-.23473446.1238045-.5252986.0426548-.6619149-.1848618-.13661629-.2275167-.07168534-.5221296.1479149-.6711382l10.034-6.275-9.91 5.724c-.23620749.133071-.53543293.0536509-.67455995-.1790411-.13912701-.2326919-.06746125-.5338687.16155995-.6789589l4.37-2.7-4.074 2.356c-.2372063.141661-.54433894.0642063-.68599997-.173-.14166104-.2372063-.06420631-.544339.17299997-.686l3.327-2.049-2.938 1.7c-.23477127.1336383-.53323995.0566316-.67405087-.1739091-.14081092-.2305408-.07304023-.5312411.15305087-.6790909l14.422-9.32-14.045 8.104c-.23610173.1433179-.54368211.0681017-.687-.168s-.06810173-.5436821.168-.687l9.885-6.28-9.241 5.335c-.23477127.1336383-.53323995.0566316-.67405087-.1739091-.14081092-.2305408-.07304023-.5312411.15305087-.6790909l10.442-6.726-9.673 5.585c-.23405687.1357068-.53360081.0606207-.67597038-.1694442s-.07591293-.5316408.14997038-.6805558l12.523-8.26-11.388 6.574c-.23497088.1292146-.53003872.050062-.66879247-.179405-.13875376-.2294671-.07178369-.5275361.15179247-.675595l3.6-2.263-2.372 1.368c-.23508655.127347-.52875831.0472199-.66659082-.1818764-.13783251-.2290964-.071048-.5260868.15159082-.6741236l1.058-.661c-.2355336.0586739-.47918467-.0602923-.57776737-.2821034s-.02361618-.4823851.17776737-.6178966l10.338-6.856-7.591 4.381c-.22991383.1328235-.52355008.0627731-.66874271-.1595365-.14519264-.2223096-.09129791-.5193359.12274271-.6764635l3.339-2.445c-.07158047-.0432523-.13081602-.1042098-.172-.177-.13823272-.2388784-.05677133-.5445824.182-.683l5.49-3.169c.2299138-.1328235.5235501-.0627731.6687427.1595365s.0912979.5193359-.1227427.6764635l-1.4 1.028 13.616-7.865c.1518379-.0941395.3423647-.1001234.4998108-.0156977s.2578918.2464348.2635.425-.0844729.3465582-.2363108.4406977l-10.341 6.857 10.59-6.113c.2356087-.1297647.5316571-.04988.6700067.1807924.1383496.2306723.0694166.5294607-.1560067.6762076l-.591.37.083-.048c.2346058-.1253855.5263122-.0451285.6637604.18262.1374483.2277485.0725112.523243-.1477604.67238l-3.6 2.265 3.088-1.783c.233204-.1287421.5263939-.0520483.6666872.1743946.1402933.226443.0784231.5231151-.1406872.6746054l-12.52 8.258 12.927-7.463c.2347713-.1336383.5332399-.0566316.6740509.1739091.1408109.2305408.0730402.5312411-.1530509.6790909l-10.452 6.732 11.851-6.841c.2361017-.1433179.5436821-.0681017.687.168s.0681017.5436821-.168.687l-9.877 6.277 10.891-6.29c.2355494-.1441463.5433537-.0700494.6875.1655s.0700494.5433537-.1655.6875l-14.428 9.324 15.715-9.072c.2357179-.1278172.530297-.0469384.667702.1833224.137405.2302607.0687118.5279174-.155702.6746776l-3.312 2.041 3.718-2.145c.2357179-.1278172.530297-.0469384.667702.1833224.137405.2302607.0687118.5279174-.155702.6746776l-4.37 2.7 4.807-2.774c.2350866-.127347.5287583-.0472199.6665908.1818764.1378325.2290964.071048.5260868-.1515908.6741236l-10.038 6.273 10.572-6.1c.2362075-.133071.5354329-.0536509.6745599.1790411.1391271.2326919.0674613.5338687-.1615599.6789589l-8.729 5.426 9.121-5.266c.2354379-.13455.5352149-.0569022.6757281.1750261.1405133.2319283.0705395.5335888-.1577281.6799739l-13.877 8.77 14.4-8.315c.2361017-.1433179.5436821-.0681017.687.168s.0681017.5436821-.168.687l-16.117 10.275 16.594-9.58c.2348642-.1312813.531504-.0531604.6712412.1767732.1397372.2299337.0724576.5292187-.1522412.6772268l-16.276 10.386 16.626-9.6c.2369302-.1419372.5440628-.0649301.686.172.1419371.2369302.0649301.5440628-.172.686l-8.775 5.449 8.795-5.078c.2346058-.1253855.5263122-.0451285.6637604.18262.1374483.2277485.0725112.523243-.1477604.67238l-13.3 8.394 13.343-7.7c.234481-.1270728.5274228-.0477401.6657366.1802909.1383139.2280309.0733058.5244809-.1477366.6737091l-14.022 8.908 13.94-8.048c.234023-.1252853.5251579-.0458598.6631351.1809119.1379772.2267718.0746978.5218373-.1441351.6720881l-14.933 9.578 14.741-8.51c.2343611-.1288923.5286543-.0505227.6678755.1778537.1392213.2283764.0740613.5258734-.1478755.6751463l-14.129 9.086 13.773-7.952c.2348642-.1312813.531504-.0531604.6712412.1767732.1397372.2299337.0724576.5292187-.1522412.6772268l-11.332 7.236 10.75-6.206c.2336556-.130691.5287926-.0541466.6694787.1736308.140686.2277774.0769932.5259521-.1444787.6763692l-13.475 8.856 12.726-7.347c.2363779-.1427656.5437344-.0668779.6865.1695s.0668779.5437344-.1695.6865l-5.4 3.42 4.451-2.57c.2330829-.1306613.5277074-.0549657.6689423.1718661.1412349.2268319.0791592.5246238-.1409423.6761339l-10.57 7.1 9.141-5.278c.2334461-.1352991.5321345-.0609722.6749447.1679561.1428102.2289282.0782242.5298733-.1459447.6800439l-7.151 4.821 5.341-3.088c.2313261-.1333882.5266402-.061466.670727.1633522.1440867.2248181.0860887.5231794-.131727.6776478l-5.011 3.534 2.226-1.285c.1549945-.0985297.351531-.1041539.5119064-.0146489.1603754.0895049.2587712.2597296.2562855.4433739s-.1054527.3511436-.2681919.436275l-11.763 6.792c-.2310609.1298083-.523268.0567757-.6660866-.1664779-.1428185-.2232536-.086628-.5191613.1280866-.6745221l5.011-3.536-8.246 4.761c-.0757009.0448547-.1620087.0686756-.25.069z" fill="#295474"/><path id="Path" d="m16.03 17.894c-.2071785.0007474-.3933572-.1263535-.4681168-.3195748-.0747595-.1932213-.022612-.4125334.1311168-.5514252l2.462-2.239-1.876 1.083c-.1951764.1115302-.4407889.0790972-.600325-.0792728-.1595361-.1583699-.1937703-.4037378-.083675-.5997272l1.017-1.788-.037.021c-.2374252.1242009-.5305531.0391619-.6646466-.1928199-.1340935-.2319817-.0614797-.5284321.1646466-.6721801l1.632-.943c.1954377-.1130709.4424048-.0811302.6026459.0779413.1602411.1590714.1939902.4057979.0823541.6020587l-1.019 1.792 4.3-2.484c.2202286-.1227467.4973928-.0623225.6465459.1409526s.1236267.4857984-.0595459.6590474l-2.46 2.239 5.272-3.04c.1549945-.0985297.351531-.1041539.5119064-.0146489.1603754.0895049.2587712.2597296.2562855.4433739s-.1054527.3511436-.2681919.436275l-9.292 5.361c-.0757231.044686-.162075.0681737-.25.068z" fill="#295474"/><path id="Path" d="m33.378 9.37c-.2090383-.0000532-.3959807-.1301413-.4686699-.32613438-.0726891-.19599308-.0157811-.41651947.1426699-.55286562l1.542-1.329-2.619 1.512c-.2190652.13188932-.5023394.07724227-.6566242-.12667084s-.1298566-.49137409.0566242-.66632916l2.931-2.817-3.591 2.075c-.2206356.13002916-.503851.07232504-.6560244-.1336626-.1521734-.20598765-.1241014-.49365536.0650244-.6663374l2.443-2.277-2.278 1.316c-.2106402.1205642-.4774423.07244803-.6326961-.11410296-.1552538-.18655098-.1541169-.45765478.0026961-.64289704l1.408-1.65c-.2395957.04573458-.4772245-.08808924-.5623286-.31668285-.0851041-.22859362.0071572-.48523367.2183286-.60731715l2.309-1.334c.2106402-.1205642.4774423-.07244803.6326961.11410296.1552538.18655098.1541169.45765478-.0026961.64289704l-1.355 1.589 3.565-2.059c.2206356-.13002916.503851-.07232504.6560244.1336626.1521734.20598765.1241014.49365536-.0650244.6663374l-2.444 2.277 3.351-1.934c.2190652-.13188932.5023394-.07724227.6566242.12667084s.1298566.49137409-.0566242.66632916l-2.93 2.816 3.656-2.111c.2231941-.12824745.5072862-.06607757.6565145.14366969s.1148202.49851967-.0795145.66733031l-1.543 1.33 2.39-1.38c.2135746-.12418047.4858285-.073761.6407697.11866597.1549412.19242696.1461164.46916947-.0207697.65133403l-1.29 1.413 2.019-1.165c.2374252-.12420086.5305531-.03916186.6646466.19281988.1340935.23198173.0614797.52843213-.1646466.67218012l-4.8 2.773c-.2135746.12418047-.4858285.073761-.6407697-.11866597-.1549412-.19242696-.1461164-.46916947.0207697-.65133403l1.288-1.414-4.209 2.426c-.0755041.04543245-.1618817.0696182-.25.07z" fill="#f49100"/><path id="Path" d="m11.793 31.386c-.2084224-.0001822-.3948698-.1296318-.467881-.3248478-.0730113-.195216-.0172696-.4152449.139881-.5521522l3.072-2.673-4.487 2.591c-.22374237.1292278-.5090949.0666972-.65829208-.1442547-.14919718-.2109518-.11309223-.5008356.08329208-.6687453l3.551-3.049-3.721 2.149c-.21601049.1246636-.49085765.0710795-.64421986-.1255968s-.13833616-.4762947.03521986-.6554032l2.367-2.433-.172.1c-.23893.1358451-.5427102.0533708-.6801373-.1846528-.137427-.2380237-.0569695-.5423443.1801373-.6813472l3.3-1.907c.2160105-.1246636.4908577-.0710795.6442199.1255968s.1383361.4762947-.0352199.6554032l-2.366 2.427 5.238-3.023c.2233421-.1266456.5063058-.0635478.6546834.1459871.1483776.209535.1139372.4973954-.0796834.6660129l-3.547 3.052 4.327-2.5c.2229237-.1277986.5064223-.0658196.6556784.1433455.1492561.2091652.11567.4974096-.0776784.6666545l-3.073 2.674 2.487-1.434c.2248836-.1275609.509928-.0626394.65739.1497267.1474621.2123662.1087026.5021295-.08939.6682733l-1.4 1.153c.0628709.0419383.1149506.0981296.152.164.1373847.2389169.0555349.543953-.183.682l-3.351 1.935c-.2254575.1330437-.5153687.0696598-.6647344-.1453323-.1493656-.2149921-.1076129-.5087994.0957344-.6736677l.077-.063-1.771 1.022c-.0754309.0445132-.1614143.0679946-.249.068z" fill="#346d94"/><path id="Path" d="m5.991 38.145c-.18745089.0001521-.35924025-.1045562-.4450039-.2712369-.08576364-.1666807-.07109262-.3673301.0380039-.5197631l1.281-1.794-1.521.878c-.2036526.117242-.46146652.076848-.61950163-.0970628s-.17364056-.434403-.03749837-.6259372l.859-1.206c-.21561688-.0219965-.39251108-.1804032-.43807916-.3922948-.04556807-.2118916.05056711-.4290143.23807916-.5377052l1.559-.9c.20341519-.1163622.46035662-.0758339.61807822.0974918.15772161.1733258.17390179.4329402.03892178.6245082l-.727 1.021 1.525-.88c.20393941-.1192569.463519-.0794973.62241308.0953345.15889409.1748318.17373574.437019.03558692.6286655l-1.281 1.793.9-.522c.23742522-.1242009.53055313-.0391619.66464661.1928199.13409349.2319817.06147969.5284321-.16464661.6721801l-2.9 1.675c-.0745535.0439992-.15943287.0674618-.246.068z" fill="#346d94"/><g fill="#262626"><path id="Shape" d="m12.029 23.59c-1.975 1.014-4.723 3.615-3.44 6.092 1.352 2.608 5.258 1.745 7.334.766.038-.018.056-.036.088-.054.0258185-.0079595.0511888-.0173064.076-.028 1.93-1.088 4.683-3.609 3.332-6.094-1.383-2.544-5.343-1.734-7.39-.682zm3.222 6.33c-1.74.782-4.833 1.219-5.432-1.216-.483-1.962 1.4-3.823 2.967-4.612 1.714-.864 5.054-1.2 5.473 1.389.317 1.954-1.491 3.57-3.008 4.439z"/><path id="Shape" d="m7.594 32.7c-1.51498988-.0130026-2.84505665 1.0051495-3.228 2.471-.335 1.4.335 3.08 1.94 3.132 1.55326586.05609 2.93922403-.9685484 3.341-2.47.278-1.477-.336-3.141-2.053-3.133zm-1.18 4.635c-.61243812-.6412666-.84628195-1.5554178-.617-2.412.177-.768.826-2.009 1.718-1.33.67520589.6362357.94440111 1.5930324.7 2.488-.23.819-.862 2.063-1.801 1.252z"/><path id="Shape" d="m24.124 6.417c1.376-1.377 3.347-1.145 5.144-1.117-.008 3.14 3.323 4.25 6.109 3.926 2.448-.285 6.978-1.314 7.341-4.342.0065154-.05094532-.0144056-.10153616-.055-.133-.011-.031-.056-.053-.14-.065-.0186631-.00546017-.0377196-.00947208-.057-.012-2.06-.081-2.792-.794-4-2.216-.6744157-.88638173-1.6574617-1.48677511-2.754-1.682-2.644-.492-5.878.774-6.377 3.691-.013.077-.014.145-.023.219-1.7792706-.17485246-3.5731523.12355287-5.2.865-2.384 1.313-2.77 3.483-2.823 5.871-.833.071-1.565.152-2.076.184-2.246.141-3.479.481-3.932 2.875-.543 2.864.694 2.838-2.11 4.055-2.3628173 1.0413707-4.51990723 2.4977197-6.369 4.3-4.21646255 4.0741074-6.5747587 9.7010461-6.523 15.564.31145936 11.1897991 9.12008577 20.2875033 20.294 20.96 5.9342868.2953071 11.7368119-1.8155842 16.094217-5.8548893 4.3574052-4.0393052 6.9012604-9.6654904 7.055783-15.6051107 0-.018-.012-.028-.015-.045s.017-.034.016-.053c-.043576-7.4054926-3.9260677-14.2581509-10.256-18.102-1.06-.642-3.435-1.095-4.175-2.027-1.056-1.329.121-3.429-.893-4.959-.889-1.34-3.4-1.5-5.676-1.389-.005-1.785.023-3.533 1.4-4.908zm11.042-4.893c1.345.426 1.807 1.5 2.714 2.435.8969122.87527539 2.1038374 1.35991502 3.357 1.348-.628 3.21-6.954 4.345-9.153 2.463-.8599137-.74537803-1.3557501-1.82600969-1.36-2.964.007439-1.08659563.5262183-2.106227 1.4001675-2.75194996.8739493-.64572296 2.0009857-.84211303 3.0418325-.53005004zm-7.89 12.67c.2039967.9769295.221301 1.9836366.051 2.967-.624-.149-1.254-.276-1.891-.371-.3658472-.0787456-.7472438.0232082-1.025.274-.179.21-.193.52.153.572 1.1591647.1724397 2.3030095.4355808 3.421.787 8.43255 2.9264976 14.1394988 10.808302 14.288 19.733-.584 16.744-19.944 26.975-33.288 15.412-12.095-10.481-8.053-30.297 7.107-35.355.1569506-.0467229.3059589-.1168445.442-.208.7688914-.2108354 1.5491512-.3777716 2.337-.5.17-.025.839-.172.845-.411.007-.264-.418-.193-.587-.168-.8125116.1244213-1.6179484.2913166-2.413.5-.045-1.615-.47-4.062 1.155-5.033.788-.471 3.5 0 4.338 0 1.948.001 4.117-.606 5.067 1.801z"/></g></g></svg>