<svg id="Layer_1" enable-background="new 0 0 91 91" viewBox="0 0 91 91" xmlns="http://www.w3.org/2000/svg"><g><path d="m29.9 13.8c-4.6-3.5-11.6-3.2-15.9.6s-6 10.7-3.2 15.7c2.5 4.6 4.8 5.2 4.7 7.9-.1 2.1-2.9 2.6-4.4 4.1-3.7 3.7-7 8.7-6.9 13.9.1 4.8 2.4 10.1 6.1 13.2 11.2 9.2 27.6 12.5 42 10.8 22.8-2.7 31.4-15.4 33.1-17.9 2.5-3.6 2.5-8.3 1.2-12.5-1.3-4.1-4.7-7.6-8.8-9.1-1.8-.5-4.4-1.7-3.8-3.6.2-.6.7-1 1.1-1.4 1.8-1.6 3.7-3.3 4.9-5.4 2.6-4.4 1.8-10.4-1.7-14.2s-9-4.7-14-3.9c-6.1 1-9 7.2-10.7 11.9-.4 1.1-5.9-2.3-16.1.9-1.4.5-1.4-7.5-7.6-11z" fill="#b0ddca"/><path d="m17.2 19.2c2.8-1.3 6.2-1.4 9.1-.3 2.5 1 4.6 2.8 6.4 4.8.6.6 1.2 1.2 2 1.1.7-.1 1.2-.8 1.3-1.4.1-.7-.1-1.4-.3-2-1.6-4.2-5.2-7.5-9.5-8.8s-9.1-.5-12.8 2.1c-1.9 1.3-3.5 3.2-4.2 5.5-.5 1.6-.5 6.8 2.2 4.6.9-.8 1.5-2.2 2.3-3.1 1-1.1 2.2-1.9 3.5-2.5z" fill="#fff"/><path d="m64.4 18.4c4.2-.7 9.3-.1 11.2 5.5 1 2.8.1 5.3 0 7.3 0 .5 0 1 .3 1.4.7.8 2.1.1 2.8-.8 2.5-3.1 3.4-7.4 2.4-11.2s-4.1-7.1-7.9-8.1c-5.3-1.5-10.2-.9-14.5 2.3-1.7 1.2-3.9 4.4-4.8 6.2-.6 1.2-1 3.2-.4 4.5 1.1 2 1.8-.1 2.8-1.2 2.2-2.3 5-5.4 8.1-5.9z" fill="#fff"/><path d="m35.5 32.1c4.2-1.1 8.5-2.1 12.8-1.4 2.7.4 5.2 1.5 7.8 2.1.5.1 1.1.2 1.5-.1s.5-.7.6-1.2c.2-2.3-1.9-4-3.9-5.1-5.5-2.8-11.6-2.6-17.3-.5-1.6.6-3.8 1-4.9 2.5-2 2.9.6 4.5 3.4 3.7z" fill="#cde9df"/><path d="m12.5 63c1.2 1.5 3.2 1.7 5.2 1.8 7.6.5 13.6.9 19.3 4.5 1.6 1 3.1 3.6 4.8 4.5s3.7 1.6 5.6 1.1c2.1-.5 3.7-1.5 5.3-2.9 2.9-2.8 6.3-5.3 10.2-6.3 3.3-.8 6.9-.5 10.3-1 .8-.1 1.6-.3 2.2-.7s1.1-1.2 1-2c-.1-1-1.1-1.6-2.1-1.9-2.9-1-6.1-.7-9.2-.2-10.1 1.6-14.4 4.3-15.7 6.3-.4.6-1.5 2.5-2.2 2.5-.9 0-1.4-.9-1.9-1.6-1.9-2.9-5.3-4.5-8.6-5.5-4.7-1.5-9.7-2.4-14.6-2.6-1.8.1-13.3-.6-9.6 4z" fill="#96ccb2"/><g fill="#4e7a9f"><path d="m17.4 36.5c-9.8 2.6-18.2 16.7-14 26.5 3.6 8.3 12.7 13.9 20.8 16.6 11.1 3.7 24.2 4.4 35.6 1.9 11.2-2.5 24.6-9.3 28.7-20.8 1.9-5.5 1.2-11.9-2.4-16.5-3.4-4.3-8.6-6.6-13.8-7.8-2.2-.5-3 2.6-.9 3.3 8.5 2.9 15.8 8.8 12.8 18.7-3 10.1-15.4 15.7-24.8 17.9-9.7 2.3-20.1 1.6-29.8-.6-7.7-1.7-14.8-4.7-19.8-11.1-3.1-4-3.4-8.1-1.8-13 1.9-5.8 6.5-8.8 10-13.6.4-.4 0-1.7-.6-1.5z"/><path d="m18.2 36.6c-.5-1.8-2-2.9-3.1-4.3-1.3-1.7-2.4-3.7-2.8-5.9-.8-4.2.8-8.6 4.7-10.7 8-4.3 15.8 2.8 16.9 10.6.4 2.8 5.4 2.2 5.1-.7-1.5-11.7-13.2-20.6-24.6-14.4-5.2 2.9-7.9 8.7-7.4 14.5.4 4.6 4 13.1 9.6 13.1 1.1 0 1.9-1.1 1.6-2.2z"/><path d="m71.9 39.8c2.7.3 5.3-2.2 7-4 2-2.3 3.5-5.1 4.1-8.1 1.1-5.8-.9-11.6-5.8-15.1-10.2-7.3-23-.2-25.9 10.9-.8 3.2 3.7 5.9 4.7 2.8 2.3-9.2 10.7-14.3 17.9-9.7 3.8 2.4 5 7 3.7 11.2-.6 2.1-1.8 3.8-3.3 5.4-1.3 1.3-3.1 2.3-3.9 4-.5 1.3.2 2.5 1.5 2.6z"/><path d="m36.5 28.4c2.7-.7 5-2 7.8-2 2.6 0 5.4.6 7.6 2 3 1.9 5.8-2.9 2.8-4.7-3.2-1.9-6.9-2.5-10.6-2-3.2.4-7.5 1.4-9.5 4.2-.9 1.2.6 2.8 1.9 2.5z"/><path d="m43.6 56c.8-2.4-1.6-4.8-3.2-6.4-1.1-1.1-3.1-1-4 .3-1 1.3-.7 3.2.8 4 .8.5 1.6 1 2.2 1.5 1 .8 1.8 1.5 3.1 1.5.5 0 .9-.4 1.1-.9z"/><path d="m48.2 56.9c1.3 0 2.2-.6 3.1-1.5.6-.5 1.4-1 2.2-1.5 1.4-.8 1.7-2.7.8-4-1-1.3-2.9-1.4-4-.3-1.6 1.6-4 4-3.2 6.4.2.5.6.9 1.1.9z"/><path d="m13.4 62.1c5.8.3 11.6 0 17.4.4 6 .4 9.9 3.9 13 8.7.8 1.3 2.5 1.2 3.4 0 6.5-9.5 17.9-8 27.9-8.1 2.6 0 2.6-4.1 0-4.1-6.8.2-13.4-.5-20 1.8-4.7 1.7-8.4 4.4-11.3 8.4h3.4c-2.8-4.7-7.2-9.2-12.8-10.2-6.6-1.2-14.4-1.2-21-.4-2.2.3-2.3 3.4 0 3.5z"/></g></g><g fill="#4e7a9f"><ellipse cx="22.9" cy="25.4" rx="3.6" ry="3.5"/><ellipse cx="68.5" cy="25.4" rx="3.6" ry="3.5"/></g></svg>