<svg height="501pt" viewBox="0 -2 501.56576 501" width="501pt" xmlns="http://www.w3.org/2000/svg"><path d="m247.414062 110.75c-1.824218 0-3.4375-1.175781-3.996093-2.910156-.558594-1.734375.066406-3.632813 1.542969-4.695313l17.90625-12.882812-31.058594 17.910156c-1.917969 1.128906-4.386719.554687-5.617188-1.300781-1.230468-1.855469-.800781-4.351563.984375-5.683594l42.042969-31.894531-58.175781 33.574219c-1.933594 1.078124-4.375.464843-5.570313-1.398438-1.199218-1.867188-.738281-4.339844 1.046875-5.652344l33.414063-23.710937-42.445313 24.5c-1.9375 1.125-4.414062.527343-5.628906-1.351563-1.214844-1.882812-.738281-4.386718 1.082031-5.691406l37.863282-27.21875-45.101563 26.019531c-1.9375 1.089844-4.390625.476563-5.589844-1.398437-1.199219-1.871094-.726562-4.355469 1.074219-5.660156l28.949219-20.445313-32.472657 18.734375c-1.941406 1.121094-4.421874.519531-5.632812-1.371094-1.214844-1.890625-.722656-4.402344 1.117188-5.699218l20.386718-14.359376-20.90625 12.070313c-1.9375 1.121094-4.414062.527344-5.632812-1.355469-1.214844-1.878906-.738282-4.382812 1.082031-5.6875l15.402344-11.078125-12.792969 7.386719c-1.816406 1-4.09375.515625-5.355469-1.132812-1.257812-1.652344-1.125-3.972657.320313-5.464844l20.398437-20.457032-3.183593 1.839844c-1.300782.828125-2.949219.875-4.296876.121094-1.34375-.75-2.171874-2.179688-2.148437-3.71875.019531-1.542969.882813-2.949219 2.25-3.664062l30.628906-17.699219c1.816407-1 4.09375-.519531 5.355469 1.128906 1.257812 1.652344 1.125 3.976563-.320312 5.464844l-20.386719 20.457031 57.835937-33.390625c1.9375-1.121094 4.417969-.527344 5.632813 1.355469 1.214843 1.878906.738281 4.382812-1.082031 5.6875l-15.4375 11.105468 28.910156-16.6875c1.945312-1.136718 4.4375-.535156 5.652344 1.363282 1.210937 1.898437.710937 4.417968-1.136719 5.703125l-20.355469 14.347656 31.125-17.957031c1.941406-1.117188 4.417969-.515625 5.628906 1.371094 1.207032 1.890624.722656 4.394531-1.105468 5.691406l-28.925782 20.429687 38.738282-22.363281c1.929687-1.082031 4.371093-.476562 5.574218 1.382812 1.203125 1.859376.753906 4.335938-1.027344 5.652344l-37.902343 27.285156 46.714843-27c1.9375-1.09375 4.386719-.488281 5.59375 1.378907 1.203126 1.867187.742188 4.351562-1.050781 5.664062l-33.382812 23.726563 38.980469-22.5c1.914062-1.070313 4.332031-.484375 5.542968 1.34375 1.210938 1.828125.8125 4.28125-.917968 5.628906l-42.027344 31.902344 45.519531-26.277344c1.9375-1.125 4.414063-.527344 5.628906 1.351562 1.214844 1.882813.738281 4.386719-1.082031 5.691407l-17.917969 12.875 15.847657-9.125c1.925781-1.121094 4.390624-.542969 5.613281 1.320312 1.226562 1.859375.785156 4.355469-1.007813 5.679688l-8.980468 6.714843 2.175781-1.242187c1.992187-1.042969 4.453125-.328125 5.578125 1.617187 1.125 1.949219.515625 4.4375-1.382813 5.644532l-64.46875 37.207031c-1.945312 1.289063-4.570312.761719-5.859375-1.183594-1.292968-1.945312-.761718-4.566406 1.183594-5.859375l8.9375-6.648437-25.835938 14.917969c-.625.367187-1.335937.5625-2.0625.570312zm0 0" fill="#eb5463"/><path d="m252.257812 345.898438c-1.730468.003906-3.285156-1.058594-3.914062-2.667969-.628906-1.613281-.207031-3.445313 1.066406-4.617188l21.523438-19.78125-37.292969 21.542969c-1.902344 1.085938-4.316406.527344-5.546875-1.28125-1.234375-1.808594-.867188-4.261719.835938-5.632812l25.433593-20.269532-33.105469 19.109375c-1.941406 1.105469-4.40625.492188-5.605468-1.390625-1.203125-1.882812-.71875-4.378906 1.101562-5.675781l2.433594-1.679687-4.113281 2.367187c-1.941407 1.089844-4.390625.476563-5.589844-1.394531-1.199219-1.875-.730469-4.359375 1.074219-5.664063l5.414062-3.816406-5.875 3.355469c-1.914062 1.074218-4.332031.5-5.546875-1.324219-1.21875-1.824219-.828125-4.277344.894531-5.632813l26.9375-20.648437-26.652343 15.386719c-1.914063 1.089844-4.351563.511718-5.570313-1.328125-1.21875-1.835938-.808594-4.304688.9375-5.648438l18.644532-14.101562-15.503907 8.941406c-1.925781 1.117187-4.390625.539063-5.617187-1.320313-1.222656-1.863281-.78125-4.355468 1.007812-5.683593l5.875-4.355469c-1.839844.53125-3.804687-.25-4.773437-1.898438-.972657-1.648437-.707031-3.746093.644531-5.101562l14.34375-14.417969c-1.828125-.152343-3.34375-1.472656-3.746094-3.265625-.402344-1.789062.40625-3.628906 1.992188-4.550781l22.863281-13.191406c1.820313-.988281 4.082031-.507813 5.339844 1.136719 1.253906 1.644531 1.128906 3.957031-.300781 5.449218l-12.332032 12.40625 33.203125-19.171875c1.925781-1.09375 4.367188-.503906 5.582031 1.34375 1.214844 1.851563.785157 4.328125-.980468 5.65625l-4.976563 3.710938 11.566407-6.714844c1.914062-1.066406 4.328124-.480469 5.542968 1.347656 1.210938 1.828125.8125 4.28125-.917968 5.628907l-18.625 14.101562 23.929687-13.816406c1.910156-1.078125 4.328125-.5 5.546875 1.324218 1.21875 1.824219.828125 4.277344-.898438 5.632813l-26.960937 20.714844 30.402344-17.550781c1.9375-1.089844 4.390625-.476563 5.589843 1.398437 1.199219 1.875.726563 4.355469-1.074218 5.660156l-5.386719 3.804688 4.910156-2.828125c1.941407-1.136719 4.4375-.535156 5.652344 1.363281 1.210937 1.898437.710937 4.414063-1.136719 5.703125l-2.519531 1.761719.773437-.445313c1.898438-1.082031 4.316407-.523437 5.546876 1.285156 1.230468 1.808594.867187 4.261719-.839844 5.632813l-25.40625 20.234375 21.644531-12.496094c1.851563-1.046875 4.1875-.542968 5.445313 1.167969 1.257812 1.710937 1.039062 4.09375-.507813 5.546875l-21.480469 19.765625 9.351563-5.398437c1.992187-1.042969 4.453125-.328126 5.578125 1.621093 1.125 1.945313.515625 4.433594-1.382813 5.640625l-42.351562 24.441406c-.636719.375-1.359375.574219-2.097657.578126zm0 0" fill="#9ed26a"/><path d="m250.425781 496.738281c-1.71875-.003906-3.261719-1.054687-3.894531-2.652343-.632812-1.597657-.226562-3.421876 1.023438-4.601563l25.113281-23.558594-41.964844 24.207031c-1.914063 1.097657-4.351563.527344-5.578125-1.304687s-.824219-4.304687.917969-5.652344l21.136719-16.210937-26.96875 15.5625c-1.894532 1.082031-4.296876.535156-5.535157-1.257813-1.238281-1.796875-.898437-4.238281.785157-5.625l35.671874-29.039062-40.691406 23.5c-1.914062 1.160156-4.398437.617187-5.652344-1.234375-1.253906-1.851563-.835937-4.363282.949219-5.707032l30.738281-24.128906-30.902343 17.835938c-1.9375 1.078125-4.378907.464844-5.574219-1.402344-1.199219-1.863281-.738281-4.339844 1.046875-5.648438l2.109375-1.496093c-1.878906.472656-3.835938-.394531-4.738281-2.105469-.90625-1.710938-.523438-3.820312.925781-5.105469l26.398438-23.609375-17.625 10.171875c-1.871094 1.070313-4.246094.550781-5.5-1.199219-1.25-1.75-.976563-4.164062.636718-5.589843l10.914063-9.519531c-.535157-.351563-.976563-.828126-1.292969-1.382813-1.152344-2.007813-.464844-4.566406 1.535156-5.726563l23.503906-13.570312c1.863282-1.050781 4.21875-.527344 5.46875 1.210938 1.246094 1.742187.984376 4.140624-.609374 5.570312l-1.753907 1.542969 15.785157-9.113281c1.863281-1.078126 4.238281-.570313 5.5 1.175781 1.261718 1.742187 1 4.15625-.605469 5.589843l-26.40625 23.59375 41.128906-23.730468c1.941406-1.117188 4.417969-.515625 5.628906 1.371094 1.210938 1.886718.722657 4.394531-1.105469 5.6875l-.6875.480468 3.128907-1.796875c1.90625-1.074219 4.320312-.507812 5.542969 1.304688 1.226562 1.8125.851562 4.261719-.859376 5.628906l-30.753906 24.15625 35.070313-20.246094c1.894531-1.085937 4.304687-.535156 5.542969 1.261719 1.238281 1.800781.890624 4.25-.800782 5.628906l-35.640625 29.027344 36.933594-21.335938c1.910156-1.078124 4.328125-.5 5.546875 1.324219s.828125 4.277344-.898438 5.632813l-21.117187 16.214844 18.0625-10.433594c1.851563-1.105469 4.242187-.628906 5.527344 1.105468 1.285156 1.734376 1.042969 4.164063-.558594 5.609376l-25.179687 23.578124 14.058593-8.117187c1.992188-1.042969 4.453125-.328125 5.578125 1.621094 1.125 1.945312.515625 4.433593-1.382812 5.640625l-45.566406 26.304687c-.625.367188-1.339844.5625-2.066407.5625zm0 0" fill="#eb5463"/><path d="m210.398438 211.628906c-1.832032.007813-3.457032-1.179687-4.011719-2.925781-.554688-1.746094.085937-3.648437 1.585937-4.703125l19.882813-14.058594-36.59375 21.085938c-1.921875 1.082031-4.355469.496094-5.566407-1.347656-1.214843-1.839844-.796874-4.308594.957032-5.644532l32.910156-24.667968-54.859375 31.660156c-1.933594 1.109375-4.398437.511718-5.609375-1.359375-1.210938-1.871094-.75-4.363281 1.054688-5.675781l25.765624-18.617188-31.894531 18.398438c-1.9375 1.105468-4.402343.5-5.609375-1.375-1.207031-1.878907-.734375-4.371094 1.078125-5.675782l11.96875-8.503906-2.199219 1.269531c-1.90625 1.097657-4.335937.535157-5.570312-1.285156s-.851562-4.285156.878906-5.648437l11.75-9.191407c-1.761718.472657-3.625-.246093-4.613281-1.777343s-.875-3.527344.28125-4.9375l12.261719-14.679688c-1.363282-.703125-2.238282-2.09375-2.277344-3.632812-.035156-1.535157.769531-2.96875 2.101562-3.734376l12.878907-7.429687c1.757812-1.015625 3.996093-.621094 5.304687.933594 1.308594 1.554687 1.316406 3.824219.015625 5.386719l-8.6875 10.390624 28.972657-16.71875c1.90625-1.078124 4.316406-.507812 5.542968 1.304688 1.226563 1.8125.851563 4.261719-.859375 5.628906l-10.910156 8.566406 26.859375-15.5c1.9375-1.105468 4.402344-.503906 5.609375 1.375 1.207031 1.878907.734375 4.371094-1.078125 5.675782l-12.011719 8.558594 27.042969-15.609376c1.9375-1.109374 4.398438-.515624 5.613281 1.355469 1.210938 1.871094.75 4.367188-1.054687 5.675781l-25.773438 18.625 44.484375-25.65625c1.921875-1.109374 4.375-.53125 5.597657 1.320313 1.222656 1.855469.792968 4.339844-.980469 5.671875l-32.886719 24.648438 54.792969-31.640626c1.941406-1.121093 4.417969-.515624 5.628906 1.371094 1.210937 1.886719.722656 4.390625-1.105469 5.6875l-19.882812 14.058594 36.585937-21.117188c1.921875-1.09375 4.367188-.507812 5.582031 1.34375 1.214844 1.847657.785157 4.324219-.984374 5.65625l-31.355469 23.214844 49.804687-28.753906c1.898438-1.117188 4.335938-.574219 5.582032 1.242188 1.25 1.8125.882812 4.28125-.839844 5.65625l-39.019532 31.660156 32.550782-18.785156c1.875-1.050782 4.238281-.511719 5.476562 1.246093 1.242188 1.753907.949219 4.164063-.667968 5.578125l-18.089844 15.359375 3.492187-2.003906c1.78125-1.023437 4.035157-.605469 5.335938.980469 1.296875 1.585937 1.261719 3.878906-.089844 5.421875l-10.15625 11.542969c.535156.351562.976563.828124 1.292969 1.382812 1.160156 2.003906.476562 4.570312-1.527344 5.734375l-12.84375 7.402344c-1.773438 1.007812-4.019531.589843-5.316406-.988281-1.296875-1.578126-1.265625-3.863282.070312-5.410157l5.289063-6.015625-21.535157 12.398438c-1.878906 1.046875-4.242187.511718-5.480468-1.246094-1.238282-1.757812-.949219-4.167969.667968-5.578125l18.082032-15.363281-38.433594 22.1875c-1.894531 1.066406-4.289062.511718-5.519531-1.28125-1.230469-1.792969-.890625-4.226563.785156-5.613282l39.027344-31.632812-66.742188 38.527344c-1.925781 1.09375-4.367187.503906-5.582031-1.34375-1.214844-1.851563-.785156-4.328125.980469-5.660156l31.324219-23.214844-52.433594 30.21875c-.632813.382812-1.355469.589844-2.097656.601562zm0 0" fill="#4fc0e8"/><path d="m42.269531 404.671875c-1.832031 0-3.449219-1.183594-4.003906-2.929687-.554687-1.746094.089844-3.648438 1.585937-4.703126l16.957032-11.882812-31.695313 18.273438c-1.945312 1.070312-4.386719.441406-5.574219-1.4375-1.183593-1.875-.703124-4.351563 1.101563-5.648438l7.199219-4.941406-12.070313 6.964844c-1.933593 1.09375-4.386719.488281-5.589843-1.378907-1.203126-1.867187-.742188-4.351562 1.050781-5.664062l15.335937-10.984375-15.109375 8.71875c-1.863281 1.074218-4.238281.570312-5.5-1.175782-1.261719-1.742187-1-4.15625.605469-5.589843l27.3125-24.273438-22.835938 13.167969c-1.882812 1.058594-4.257812.519531-5.496093-1.25-1.238281-1.765625-.933594-4.183594.703125-5.589844l3.902344-3.28125c-1.707032.503906-3.546876-.121094-4.589844-1.5625-1.042969-1.441406-1.066406-3.386718-.050782-4.851562l6.023438-8.625c-1.519531-.023438-2.929688-.8125-3.742188-2.101563-1.152343-2.003906-.464843-4.5625 1.535157-5.722656l13.699219-7.914063c1.703124-.984374 3.859374-.652343 5.1875.796876 1.328124 1.449218 1.476562 3.625.351562 5.238281l-5.347656 7.636719 23.871094-13.75c1.882812-1.054688 4.257812-.515626 5.496093 1.25 1.238281 1.769531.933594 4.1875-.703125 5.59375l-3.355468 2.84375 16.785156-9.695313c1.863281-1.058594 4.222656-.546875 5.480468 1.191406 1.253907 1.738281.996094 4.140625-.59375 5.574219l-27.304687 24.300781 53.71875-31.058593c1.933594-1.09375 4.386719-.488282 5.589844 1.378906 1.207031 1.871094.746093 4.351562-1.050781 5.664062l-15.351563 10.996094 31.292969-18.039062c1.941406-1.046876 4.363281-.410157 5.539062 1.457031 1.175782 1.867187.707032 4.328125-1.074218 5.628906l-7.203126 4.941406 20.851563-12.027343c1.9375-1.0625 4.367187-.441407 5.554687 1.421874 1.191407 1.863282.730469 4.328126-1.046874 5.636719l-16.949219 11.863281 30.8125-17.789062c1.917969-1.105469 4.363281-.535156 5.589843 1.304688 1.230469 1.839843.816407 4.320312-.9375 5.664062l-34.019531 26.019531 40.09375-23.207031c1.894531-1.085938 4.308594-.539062 5.546875 1.261719 1.238282 1.796875.886719 4.246093-.804687 5.628906l-27.824219 22.660156 24.601562-14.207031c1.796876-1.042969 4.089844-.613281 5.386719 1.011719s1.207031 3.953125-.207031 5.476562l-18.464844 19.972657 13.292969-7.667969c1.769531-1.011719 4.011719-.605469 5.3125.960937 1.300781 1.570313 1.289063 3.847656-.03125 5.398438l-4.324219 5.039062c1.738282.304688 3.097656 1.664063 3.40625 3.398438s-.503906 3.480468-2.027344 4.363281l-16.6875 9.652344c-1.769531 1.046875-4.035156.640625-5.328124-.957031-1.300782-1.574219-1.28125-3.855469.046874-5.40625l2.378907-2.761719-15.804688 9.125c-1.796875 1.03125-4.078125.597656-5.367187-1.019531-1.292969-1.617188-1.214844-3.933594.1875-5.460938l18.464844-19.96875-45.828126 26.449219c-1.894531 1.082031-4.296874.535156-5.535156-1.261719-1.238281-1.792969-.898437-4.234375.785156-5.621094l27.847657-22.710937-51.273438 29.59375c-1.894531.9375-4.191406.320312-5.359375-1.441407-1.167968-1.765624-.84375-4.121093.757813-5.5l34.011719-25.976562-57.117188 32.917969c-.628906.375-1.34375.582031-2.074219.597656zm0 0" fill="#4fc0e8"/><path d="m358.441406 404.671875c-1.839844 0-3.46875-1.199219-4.011718-2.960937-.542969-1.757813.125-3.664063 1.644531-4.703126l5.992187-4.097656-15.449218 8.921875c-1.90625 1.09375-4.328126.53125-5.558594-1.28125-1.234375-1.816406-.859375-4.273437.855468-5.640625l35.917969-28.285156-39.015625 22.507812c-1.878906 1.058594-4.253906.519532-5.492187-1.25-1.238281-1.765624-.933594-4.183593.703125-5.589843l24.925781-20.984375-20.570313 11.878906c-1.878906 1.070312-4.265624.539062-5.511718-1.230469-1.242188-1.769531-.941406-4.195312.703125-5.601562l6.710937-5.683594-1.878906 1.082031c-1.6875.972656-3.820312.65625-5.15625-.765625-1.332031-1.417969-1.511719-3.570312-.433594-5.191406l6.574219-9.839844c-1.6875.230469-3.347656-.582031-4.199219-2.054687-1.152344-2.003906-.46875-4.5625 1.527344-5.722656l13.699219-7.917969c1.6875-.972657 3.824219-.65625 5.15625.765625s1.511719 3.574218.433593 5.195312l-6.195312 9.28125 26.515625-15.292968c1.875-1.046876 4.242187-.511719 5.480469 1.246093 1.238281 1.757813.949218 4.164063-.671875 5.578125l-6.65625 5.648438 21.640625-12.472656c1.878906-1.054688 4.253906-.515626 5.492187 1.25 1.238281 1.769531.9375 4.1875-.699219 5.59375l-24.9375 20.980468 48.195313-27.824218c1.902344-1.089844 4.324219-.53125 5.558594 1.285156 1.230469 1.816406.859375 4.273437-.859375 5.640625l-35.921875 28.292969 61.019531-35.25c1.949219-1.085938 4.402344-.457032 5.589844 1.429687s.695312 4.375-1.125 5.660156l-6 4.097657 19.371094-11.15625c1.945312-1.070313 4.386718-.441407 5.574218 1.4375 1.183594 1.875.703125 4.351562-1.101562 5.648437l-8.226563 5.648437 17.390625-10.039062c1.925782-1.09375 4.367188-.503906 5.582032 1.34375 1.214843 1.851562.785156 4.324219-.980469 5.65625l-27.261719 20.1875 29.375-16.980469c1.921875-1.085937 4.355469-.496093 5.570312 1.34375 1.214844 1.84375.792969 4.308594-.960937 5.648438l-15.285156 11.429687 11.667969-6.714844c1.84375-.988281 4.140624-.464843 5.375 1.226563 1.234374 1.691406 1.03125 4.035156-.472657 5.488281l-16.789062 15.050782 11.894531-6.867188c1.761719-1.003906 3.988281-.605469 5.292969.945312 1.304687 1.550782 1.3125 3.816407.019531 5.375l-7.453125 8.898438 1.035156-.585938c1.992188-1.042968 4.453125-.332031 5.578125 1.617188 1.125 1.945312.515625 4.433594-1.382812 5.640625l-21.570313 12.464844c-1.765625 1.015625-4 .617187-5.308593-.9375-1.308594-1.558594-1.308594-3.828125-.003907-5.390625l7.433594-8.871094-26.347656 15.199219c-1.84375.992187-4.136719.46875-5.371094-1.222657-1.234375-1.691406-1.035156-4.035156.472656-5.492187l16.828125-15.109375-37.820312 21.824219c-1.90625.960937-4.226563.34375-5.398438-1.4375-1.171875-1.785157-.824218-4.160157.8125-5.527344l15.253906-11.40625-31.894531 18.398437c-1.925781 1.09375-4.367187.503907-5.582031-1.34375-1.214844-1.851562-.785156-4.328124.980469-5.65625l27.253906-20.195312-47.136719 27.167969c-1.949218 1.101562-4.414062.480469-5.609375-1.410157-1.195312-1.890624-.703125-4.386718 1.125-5.671874l8.269531-5.667969-22.09375 12.75c-.632812.378906-1.355468.585937-2.097656.597656zm0 0" fill="#4fc0e8"/><g fill="#262626"><path d="m477.578125 330.210938c-17.082031-1.316407-34.234375-1.464844-51.332031-.433594.441406-10.914063 2.375-25.183594-3.964844-34.011719-6.882812-9.617187-18.464844-8.820313-28.847656-8.820313h-85.199219c-2.167969-26.351562-23.632813-46.957031-50.050781-48.046874v-27.035157h55.117187c.347657.03125.695313.03125 1.042969 0h.300781c1.542969.019531 3.050781-.46875 4.289063-1.390625 23.71875-10.390625 58.679687-68.515625 22-74.132812-26.113282-4.003906-55.875-.621094-82.75-.101563v-23.644531c41.035156-2.734375 80.433594-21.746094 84.027344-56.445312-.011719-.28125-.058594-.566407-.136719-.839844 0-.117188.058593-.207032 0-.324219-7.664063-74.082031-180.820313-72.648437-180.070313 2.660156.367188 36.613281 41.234375 54.773438 83.984375 55.269531v23.300782c-18.300781-.636719-40.148437-3.660156-57.285156.285156-23.59375 5.429688-61.929687 67.464844-27.84375 75.382812 24.863281 5.773438 58.160156 0 83.660156 0h1.46875v27.050782c-27.21875 1.335937-48.964843 23.140625-50.226562 50.359375-28.167969-.140625-56.414063-.753907-84.546875.050781-8.984375-.84375-17.992188 1.308594-25.617188 6.128906-9.839844 8-8.160156 22.886719-7.613281 34.992188-16.917969-1.257813-33.910156-1.179688-50.816406.234375-34.351563 4.777343-36.6875 67.25-3.808594 73.023437 18.1875 1.871094 36.519531 1.921875 54.714844.152344-.242188 11.335938-2.96875 27.34375 5.441406 35.839844 7.191406 7.265625 19.070313 5.4375 28.394531 5.4375h83.757813c1.082031 68.371094 103.304687 63.226562 112.269531 1.324218h84.144531c9.050781 1.25 18.246094-.789062 25.921875-5.738281 10.003906-8.25 8.761719-22.394531 8.207032-34.683593 17.089843-.839844 34.042968-1.90625 50.101562-1.90625.609375-.011719 1.210938-.105469 1.792969-.285157.464843-.007812.921875-.050781 1.378906-.125 23.449219-4.734375 22.066406-21.132812 22.066406-41.269531.042969-19.96875-3.046875-30.089844-23.972656-32.257812zm-301.851563-277.109376c5.699219-60.824218 146.429688-56.789062 154.078126 4.265626-7.144532 63.519531-160.121094 60.332031-154.078126-4.265626zm31.894532 150.371094c-6.714844 0-42.3125 4.890625-46.953125 0-8.21875-8.679687 15.503906-50.066406 23.566406-55.304687 11.449219-7.4375 31.058594-3.46875 44.488281-3.46875h71.433594c5.785156 0 39.222656-4.414063 43.414062 0 9.039063 9.542969-17.628906 54.25-28.757812 58.753906zm52.339844 43.199219c21.144531 5.199219 36.097656 24.039063 36.359374 45.8125-1.507812 25.078125-20.140624 48.035156-47.496093 45.03125-23.453125-3.199219-40.867188-23.335937-40.648438-47.003906-.34375-13.179688 5.308594-25.804688 15.371094-34.324219s23.445313-12.015625 36.390625-9.507812zm-231.550782 151.082031c-16.902344-5.824218-19.304687-41.078125-9.296875-54.390625 8.273438-11.011719 22.660157-6.8125 36.542969-6.8125h57.757812c9.660157 0 25.808594-3.191406 35.089844 0 13.984375 4.800781 12.660156 14.351563 13.617188 26.070313.695312 8.644531 2.617187 32.144531-9.316406 35.132812h-86.460938c-10.585938-.007812-27.859375 3.46875-37.957031-.007812zm203.980469 86.226563c-15.191406-8.96875-24.53125-25.28125-24.570313-42.925781.058594-30.214844 30.21875-54.394532 59.636719-41.628907 17.515625 8.105469 28.78125 25.585938 28.933594 44.886719-1.695313 31.425781-32.535156 57.855469-64 39.667969zm172.410156-45.054688c-7.496093 2.859375-21.722656 0-29.605469 0h-66.855468c-5.78125-66.527343-108.476563-62.265625-112.46875 1.324219h-64.773438c-9.148437 0-26.15625 2.964844-34.253906-2.851562-8.921875-6.414063-7.253906-22.539063-6.671875-33.710938h57.015625c1.082031.183594 2.191406.136719 3.257812-.132812 33.574219-6.773438 36.089844-67.835938 1.863282-72.957032-20.632813-1.730468-41.367188-1.761718-62.003906-.089844-.285157-10.074218-3.230469-31.898437 7.429687-36.613281 6.964844-3.0625 22.167969 0 29.59375 0h68.398437c1.199219 68.582031 103.566407 65.855469 112.363282 2.410157h64.386718c9.707032-1.03125 19.5-1.03125 29.207032 0 14.722656 3.53125 12.757812 20.796874 12.246094 33.707031-2.75.050781-5.546876.160156-8.257813.160156-17.292969-1.382813-34.671875-1.355469-51.964844.082031-33.277343 5.714844-36.234375 68.238282-2.8125 73.863282 20.929688 2.960937 42.109375 3.789062 63.203125 2.46875.597656 11.304687 1.980469 28.015624-9.296875 32.339843zm74.289063-41.566406h-54.917969c-1.789063-.578125-3.710937-.578125-5.5 0h-22.125c-11.179687 0-28.964844 3.484375-39.742187 0-18.121094-5.875-20.34375-40.800781-10.316407-53.71875 8.035157-10.375 20.632813-6.605469 33.878907-6.605469h34.875c2.566406 1.660156 5.871093 1.660156 8.441406 0h14.269531c10.324219 0 26.859375-3.296875 36.761719 0 16.496094 5.429688 24.878906 54.207032 4.375 60.324219zm0 0"/><path d="m241.445312 291.015625c.210938-6.128906 3.359376-11.96875 10.003907-12.195313 2.4375-.085937 6.421875-1.824218 6.785156-4.59375.394531-3.011718-3.359375-3.488281-5.472656-3.414062-12.214844-.066406-22.445313 9.21875-23.570313 21.378906-.191406 5.808594 12.085938 3.71875 12.253906-1.175781zm0 0"/><path d="m254.664062 423.1875c-12.742187-.835938-23.910156 8.445312-25.421874 21.125-.085938 2.324219 12.027343.621094 12.152343-3.257812.152344-4.398438 2.796875-12.261719 8.152344-12.445313 2.988281.085937 5.898437-.996094 8.105469-3.015625 1.460937-2.214844-1.273438-2.464844-2.988282-2.40625zm0 0"/><path d="m252.710938 35.601562c-17.855469.292969-45.492188 3.835938-56.503907 20.429688-3.570312 5.371094 8.792969 5.304688 11.554688 1.140625 7.78125-11.75 31.777343-12.949219 43.738281-13.140625 6.75-.128906 9.511719-8.578125 1.210938-8.429688zm0 0"/><path d="m120.328125 364.28125h-8.394531c-3.003906-.121094-5.929688.992188-8.097656 3.082031-1.460938 2.265625 1.273437 2.632813 3.046874 2.632813h8.394532c3.003906.125 5.929687-.984375 8.097656-3.070313 1.46875-2.300781-1.257812-2.644531-3.046875-2.644531zm0 0"/><path d="m44.828125 364.425781c-3.648437 0-13.183594 5.4375-5.117187 5.4375h33.574218c3.648438 0 13.183594-5.4375 5.117188-5.4375zm0 0"/><path d="m288.105469 170.855469h-8.394531c-3.03125-.175781-5.984376 1.007812-8.058594 3.230469-1.449219 2.367187 1.253906 3.25 3.207031 3.25h8.394531c3.03125.175781 5.988282-1.011719 8.058594-3.234376 1.449219-2.367187-1.25-3.246093-3.207031-3.246093zm0 0"/><path d="m246.121094 170.804688h-33.574219c-2.207031 0-7.101563.839843-8.050781 3.257812-.945313 2.414062.800781 3.355469 3.234375 3.355469h33.574219c2.207031 0 7.097656-.839844 8.046874-3.257813.949219-2.414062-.796874-3.355468-3.230468-3.355468zm0 0"/><path d="m462.410156 362.425781h-8.390625c-7.136719 0-9.175781 9.433594-.941406 9.433594h8.394531c7.132813 0 9.171875-9.433594.9375-9.433594zm0 0"/><path d="m420.46875 362.519531h-33.574219c-7.074219 0-9.230469 9.230469-.988281 9.230469h33.574219c7.074219.019531 9.230469-9.230469.988281-9.230469zm0 0"/></g></svg>