<svg height="506pt" viewBox="0 -2 506.9794 506" width="506pt" xmlns="http://www.w3.org/2000/svg"><path d="m112.046875 486.277344c-1.648437 0-3.152344-.949219-3.855469-2.441406-.707031-1.492188-.492187-3.257813.554688-4.53125l15.179687-18.46875-21.988281 12.714843c-1.910156 1.089844-4.335938.546875-5.601562-1.25-1.265626-1.796875-.957032-4.261719.710937-5.695312l6.109375-5.179688-1.21875.699219c-1.917969 1.085938-4.34375.53125-5.601562-1.273438-1.257813-1.808593-.9375-4.277343.746093-5.695312l3.90625-3.234375c-1.710937.480469-3.542969-.136719-4.617187-1.554687-1.289063-1.734376-1.078125-4.164063.496094-5.648438l15.855468-14.984375-10.792968 6.226563c-1.90625 1.113281-4.347657.589843-5.628907-1.207032s-.980469-4.273437.695313-5.710937l8.773437-7.605469-3.839843 2.203125c-1.886719 1.144531-4.332032.667969-5.644532-1.105469-1.316406-1.769531-1.0625-4.25.582032-5.722656l15.933593-15.09375-10.871093 6.273438c-1.875 1.144531-4.308594.683593-5.632813-1.070313-1.324219-1.75-1.101563-4.21875.511719-5.707031l16.75-16.058594-11.671875 6.730469c-1.921875 1.09375-4.363281.539062-5.621094-1.277344-1.257813-1.820313-.917969-4.296875.78125-5.710937l3.464844-2.859376c-1.648438.273438-3.304688-.421874-4.265625-1.78125-1.257813-1.839843-.886719-4.339843.851562-5.734374l2.824219-2.277344c-1.300781-.042969-2.53125-.605469-3.414063-1.5625-1.320312-1.605469-1.292968-3.933594.070313-5.503906l17.332031-19.890626-11.949218 6.902344c-1.640626.945313-3.710938.691406-5.078126-.617187-1.367187-1.3125-1.707031-3.367188-.835937-5.050781l4.183594-7.984376c-1.875-.136718-3.441407-1.480468-3.855469-3.3125-.417969-1.832031.414062-3.71875 2.046875-4.648437l9.625-5.546875c1.644531-.960938 3.722656-.710938 5.097656.605469 1.375 1.316406 1.710938 3.382812.824219 5.066406l-3.542969 6.75 21.359375-12.382813c1.804688-1.035156 4.097656-.621093 5.421875.988282 1.324219 1.605468 1.292969 3.933594-.070312 5.507812l-17.332031 19.960938 20.035156-11.554688c1.929687-1.105468 4.378906-.546875 5.640625 1.28125 1.257812 1.828125.902343 4.320313-.816407 5.722656l-2.800781 2.269532c1.457031-.097656 2.851563.605468 3.636719 1.835937 1.257812 1.824219.910156 4.308594-.804688 5.71875l-3.472656 2.867188c1.855469-.347657 3.71875.566406 4.578125 2.246093.863281 1.679688.515625 3.726563-.847656 5.03125l-16.742187 16.050782 11.691406-6.742188c1.882812-1.144531 4.332031-.664062 5.644531 1.105469 1.3125 1.773437 1.058594 4.253906-.585937 5.722656l-15.957032 15.105469 10.921875-6.300781c1.90625-1.105469 4.339844-.585938 5.621094 1.207031s.984375 4.265625-.679687 5.707031l-8.746094 7.59375 3.824218-2.210937c1.882813-1.164063 4.347657-.691406 5.667969 1.085937 1.320313 1.78125 1.0625 4.273438-.601562 5.742188l-15.871094 15.011719 10.835937-6.257813c1.917969-1.101563 4.363282-.554687 5.628907 1.257813 1.265625 1.816406.933593 4.296874-.761719 5.714843l-3.882812 3.21875c1.742187-.5 3.609374.15625 4.65625 1.636719 1.277343 1.808594.957031 4.289062-.730469 5.71875l-6.113281 5.1875 1.238281-.71875c1.785156-1.03125 4.054687-.640625 5.390625.929688 1.335937 1.574218 1.355468 3.878906.046875 5.472656l-15.183594 18.398437 9.789063-5.652343c1.691406-1 3.851562-.699219 5.207031.726562 1.363281 1.410156 1.585937 3.570312.542969 5.230469l-2.847657 4.53125c1.238281.21875 2.320313.976562 2.953125 2.066406 1.175782 2.039063.476563 4.648437-1.5625 5.828125l-10.871094 6.273438c-1.699218.992187-3.859374.691406-5.222656-.726563-1.367187-1.417969-1.585937-3.585937-.53125-5.25l1.707032-2.710937-15.238282 8.789062c-.648437.386719-1.390625.589844-2.144531.589844zm0 0" fill="#4fc0e8"/><path d="m198.328125 486.265625c-1.714844-.003906-3.261719-1.035156-3.925781-2.617187-.664063-1.582032-.3125-3.410157.890625-4.636719l7.234375-7.378907-15.257813 8.8125c-1.898437 1.085938-4.308593.558594-5.582031-1.214843-1.273438-1.777344-1-4.226563.632812-5.679688l11.273438-10.042969-6.296875 3.636719c-1.859375 1.058594-4.214844.574219-5.507813-1.125-1.296874-1.703125-1.128906-4.101562.386719-5.609375l18.449219-18.140625-13.328125 7.679688c-1.882813 1.09375-4.285156.59375-5.578125-1.15625-1.292969-1.753907-1.058594-4.195313.542969-5.671875l14.421875-13.34375-9.386719 5.417968c-1.847656 1.050782-4.1875.585938-5.488281-1.097656-1.300782-1.679687-1.164063-4.0625.316406-5.585937l20.214844-20.53125-15.042969 8.6875c-1.902344 1.089843-4.316406.5625-5.589844-1.21875-1.273437-1.78125-.992187-4.234375.648438-5.683594l9.617187-8.429687-4.675781 2.695312c-1.882813 1.0625-4.257813.550781-5.539063-1.1875-1.277343-1.742188-1.054687-4.160156.519532-5.640625l13.695312-12.542969-8.675781 5.007813c-1.847656 1.003906-4.152344.515625-5.429687-1.15625-1.277344-1.671875-1.144532-4.023438.308593-5.539063l19.710938-19.851562-14.558594 8.398437c-1.878906 1.09375-4.285156.59375-5.574219-1.15625-1.292968-1.753906-1.058594-4.195312.539063-5.671875l14.507812-13.5-9.503906 5.488282c-1.886719 1.128906-4.316406.640624-5.621094-1.125-1.308593-1.761719-1.0625-4.230469.566407-5.703126l15.558593-14.648437-10.503906 6.058594c-1.871094 1.0625-4.238281.570312-5.527344-1.148438-1.292969-1.722656-1.097656-4.132812.449219-5.628906l16.75-16.066406-11.671875 6.730469c-1.921875 1.089843-4.351563.535156-5.609375-1.277344-1.261719-1.8125-.929688-4.285156.761719-5.703125l3.558593-2.933594c-1.839843.371094-3.703124-.503906-4.597656-2.152344-.890625-1.652343-.601562-3.6875.714844-5.023437l20.171875-20.523438-15.035156 8.695313c-1.875 1.007812-4.207031.476562-5.464844-1.246094-1.253906-1.71875-1.050781-4.101563.480469-5.582031l11.613281-10.410156-6.628906 3.832031c-1.773438 1.019531-4.019531.640625-5.355469-.910157-1.339844-1.546874-1.390625-3.824218-.125-5.429687l14.378906-18.210937-8.898437 5.121093c-1.699219.972657-3.84375.667969-5.203125-.746093-1.355469-1.414063-1.574219-3.570313-.53125-5.226563l2.816406-4.429687c-.921875-.347657-1.691406-1.003907-2.183594-1.851563-.570312-.980469-.726562-2.148437-.433594-3.242187.292969-1.097657 1.011719-2.03125 1.992188-2.597657l9.625-5.542969c1.703125-.976562 3.847656-.667968 5.203125.742188 1.355469 1.414062 1.578125 3.570312.53125 5.230469l-.988281 1.550781 13.074218-7.542969c1.769532-1.019531 4.015626-.644531 5.355469.902344 1.339844 1.542969 1.394531 3.824219.128907 5.429687l-14.386719 18.21875 22.90625-13.21875c1.875-1.007812 4.207031-.476562 5.460937 1.246094 1.257813 1.71875 1.050782 4.101563-.480468 5.582032l-11.605469 10.402343 6.632812-3.824219c1.84375-1.050781 4.183594-.585937 5.484375 1.097657 1.300782 1.679687 1.167969 4.0625-.3125 5.585937l-20.183594 20.53125 15.035157-8.671875c1.921875-1.089843 4.351562-.535156 5.609375 1.277344 1.261718 1.8125.929687 4.285156-.761719 5.703125l-3.566406 2.9375c1.867187-.390625 3.761719.507812 4.648437 2.195312.882813 1.691407.539063 3.761719-.84375 5.074219l-16.757812 16.058594 11.707031-6.75c1.882813-1.125 4.316406-.640625 5.621094 1.125 1.304687 1.761719 1.058593 4.230469-.570313 5.703125l-15.539062 14.632812 10.515625-6.066406c1.878906-1.09375 4.285156-.59375 5.574219 1.15625 1.292968 1.753906 1.058593 4.195313-.542969 5.671875l-14.503907 13.5 9.523438-5.496093c1.851562-1.082032 4.222656-.621094 5.53125 1.082031 1.308594 1.699219 1.152344 4.109375-.371094 5.625l-19.726562 19.855469 14.582031-8.421876c1.878906-1.0625 4.257813-.550781 5.535156 1.1875 1.28125 1.742188 1.058594 4.160157-.515625 5.640626l-13.65625 12.558593 8.671875-5.007812c1.894531-1.066407 4.292969-.535157 5.558594 1.234375 1.269531 1.769531 1 4.207031-.617187 5.660156l-9.625 8.441406 4.699218-2.714844c1.851563-1.082031 4.214844-.621093 5.527344 1.070313 1.308594 1.695313 1.160156 4.097656-.347656 5.621094l-20.300782 20.539062 15.070313-8.707031c1.882813-1.089844 4.285156-.59375 5.578125 1.160156 1.289062 1.75 1.058594 4.195313-.542969 5.667969l-14.386719 13.320313 9.386719-5.410157c1.859375-1.058593 4.210938-.578125 5.507813 1.125 1.292968 1.703125 1.128906 4.101563-.386719 5.609375l-18.449219 18.140625 13.335938-7.679687c1.875-.996094 4.195312-.457032 5.445312 1.257812s1.050782 4.089844-.46875 5.570313l-11.273437 10.050781 6.304687-3.644531c1.847656-1.066407 4.199219-.601563 5.503906 1.082031 1.308594 1.6875 1.167969 4.078125-.324218 5.601562l-7.261719 7.398438 2.101563-1.210938c1.484374-.859374 3.339843-.742187 4.707031.296876 1.367187 1.035156 1.980469 2.792968 1.554687 4.453124l-2.40625 9.277344c.824219.367188 1.515625.984375 1.972656 1.765625.5625.980469.714844 2.148438.421876 3.238281-.296876 1.09375-1.011719 2.027344-1.992188 2.589844l-4.269531 2.484375c-1.492188.84375-3.34375.726563-4.71875-.300781-1.363281-1.039062-1.96875-2.792969-1.542969-4.453125l1.765625-6.878906-20.410156 11.777343c-.652344.382813-1.394531.578126-2.152344.570313zm0 0" fill="#fdcd56"/><path d="m276.511719 486.351562c-1.6875 0-3.214844-.992187-3.898438-2.535156-.683593-1.539062-.398437-3.339844.730469-4.589844l18.273438-20.285156-19.015626 10.941406c-1.917968 1.074219-4.339843.511719-5.59375-1.296874-1.25-1.8125-.917968-4.277344.765626-5.691407l3.234374-2.65625c-1.882812.234375-3.691406-.804687-4.441406-2.546875-.746094-1.742187-.257812-3.769531 1.207032-4.976562l3.199218-2.621094c-1.804687.214844-3.546875-.734375-4.339844-2.367188-.796874-1.632812-.472656-3.589843.808594-4.878906l20.078125-20.332031-14.925781 8.609375c-1.894531 1.078125-4.300781.554688-5.574219-1.214844-1.273437-1.769531-1.007812-4.21875.617188-5.671875l10.523437-9.300781-5.566406 3.207031c-1.878906 1.046875-4.242188.53125-5.515625-1.203125s-1.054687-4.144531.507813-5.621094l13.167968-12.007812-8.160156 4.710938c-1.878906 1.03125-4.230469.511718-5.496094-1.21875-1.269531-1.730469-1.054687-4.128907.496094-5.609376l12.800781-11.597656-7.765625 4.488282c-1.847656 1.054687-4.1875.585937-5.488281-1.09375-1.300781-1.679688-1.164063-4.0625.316406-5.585938l20.128907-20.421875-14.957032 8.628906c-1.90625 1.113281-4.34375.589844-5.625-1.207031s-.980468-4.277344.691406-5.714844l8.671876-7.515625-3.738282 2.148438c-1.914062 1.082031-4.335937.527343-5.59375-1.273438-1.257812-1.800781-.941406-4.261719.730469-5.6875l4.503906-3.765625c-1.921875.902344-4.210937.257813-5.378906-1.515625-1.167969-1.773437-.851563-4.132812.738281-5.539062l12.449219-11.351563-7.484375 4.320313c-1.914062 1.078125-4.335938.527343-5.59375-1.273438-1.257812-1.804687-.941406-4.265625.730469-5.691406l4.429687-3.703125c-1.941406.835938-4.199218.128906-5.316406-1.664062-1.113281-1.796876-.75-4.136719.859375-5.503907l6.25-5.316406-1.359375.785156c-1.847656 1.015625-4.164062.527344-5.445312-1.152343-1.28125-1.675782-1.140626-4.039063.328124-5.554688l19.308594-19.34375-14.164062 8.171875c-1.820313 1.046875-4.132813.617187-5.449219-1.019531-1.320313-1.632813-1.253906-3.984375.15625-5.542969l16.460937-18.097656-11.195312 6.453125c-1.632812.96875-3.710938.738281-5.097656-.5625-1.382813-1.300782-1.742188-3.363282-.875-5.054688l4.402344-8.679687c-1.914063-.046875-3.558594-1.367188-4.027344-3.222657-.464844-1.855468.359375-3.796874 2.023437-4.746093l9.625-5.546875c1.636719-.972656 3.71875-.746094 5.105469.558594 1.386719 1.308593 1.742188 3.375.867188 5.066406l-3.863282 7.628906 22.484375-12.972656c1.820313-1.046875 4.132813-.613282 5.449219 1.019531 1.316406 1.636719 1.25 3.988281-.160156 5.542969l-16.476563 18.117187 18.449219-10.648437c1.851562-1.03125 4.179688-.542969 5.464844 1.140625 1.285156 1.6875 1.136718 4.058593-.34375 5.574219l-19.3125 19.335937 14.191406-8.191406c1.910156-1.089844 4.335938-.546875 5.601562 1.25 1.265626 1.796875.957032 4.265625-.710937 5.695312l-6.246094 5.308594 1.363281-.785156c1.914063-1.078125 4.335938-.527344 5.59375 1.273437 1.257813 1.800782.941407 4.261719-.730468 5.6875l-4.425782 3.703125c1.914063-.839843 4.160157-.167969 5.296876 1.59375 1.136718 1.757813.828124 4.078125-.726563 5.480469l-12.484375 11.300781 7.511719-4.335937c1.917969-1.101563 4.359375-.554688 5.625 1.257812s.933593 4.296875-.761719 5.714844l-4.515625 3.769531c1.933594-.902343 4.238281-.242187 5.394531 1.546875 1.160156 1.792969.816406 4.164063-.800781 5.554688l-8.679687 7.527344 3.753906-2.167969c1.847656-1.066407 4.199218-.605469 5.503906 1.082031 1.308594 1.683594 1.167969 4.074219-.324219 5.597656l-20.09375 20.414063 14.957031-8.636719c1.878907-1.035156 4.234376-.511719 5.5 1.214844 1.265626 1.730468 1.054688 4.132812-.5 5.613281l-12.800781 11.585937 7.792969-4.488281c1.878906-1.046875 4.246094-.53125 5.515625 1.203125 1.273437 1.734375 1.054687 4.144532-.507813 5.625l-13.164062 12.003906 8.171875-4.71875c1.898437-1.097656 4.324219-.582031 5.605469 1.203126 1.28125 1.78125 1 4.242187-.644532 5.691406l-10.523437 9.304687 5.582031-3.21875c1.847656-1.066406 4.199219-.601562 5.507813 1.085938 1.304687 1.691406 1.160156 4.082031-.335938 5.605469l-20.082031 20.324218 14.933594-8.617187c1.921875-1.09375 4.359375-.539063 5.621094 1.277343 1.257812 1.820313.917968 4.296876-.78125 5.710938l-3.199219 2.628906c1.878906-.222656 3.683593.820313 4.425781 2.566406.742188 1.742188.246094 3.765626-1.21875 4.96875l-3.226562 2.636719c1.769531-.21875 3.488281.679688 4.3125 2.261719.820312 1.578125.578124 3.503906-.617188 4.828125l-18.261719 20.285156 12.988281-7.5c1.472657-.851562 3.308594-.746093 4.671876.265625 1.367187 1.011719 2 2.738282 1.617187 4.390625l-2.996094 12.914063c1.664063.453125 2.890625 1.863281 3.109375 3.574218.21875 1.710938-.613281 3.382813-2.109375 4.242188l-4.855469 2.796875c-1.472656.855469-3.316406.753906-4.683593-.261719-1.371094-1.011718-2.003907-2.746094-1.613281-4.40625l2.609374-11.210937-27.824218 16.066406c-.632813.402344-1.363282.625-2.109375.648437zm0 0" fill="#ac92ea"/><path d="m368.066406 486.277344c-1.644531-.003906-3.144531-.949219-3.851562-2.433594-.707032-1.484375-.496094-3.246094.539062-4.523438l15.472656-19.011718-22.289062 12.867187c-1.847656 1.054688-4.191406.585938-5.492188-1.101562-1.296874-1.683594-1.160156-4.066407.328126-5.585938l20.070312-20.328125-14.90625 8.617188c-1.890625 1.089844-4.296875.578125-5.582031-1.183594-1.25-1.769531-.980469-4.195312.632812-5.640625l12.160157-10.949219-7.179688 4.140625c-1.84375 1.050781-4.179688.585938-5.480469-1.09375-1.304687-1.675781-1.171875-4.054687.300781-5.582031l20.585938-21.050781-15.363281 8.890625c-1.917969 1.070312-4.332031.511718-5.585938-1.292969-1.25-1.804687-.925781-4.265625.75-5.6875l3.558594-2.933594c-1.863281.375-3.746094-.523437-4.625-2.207031-.878906-1.679688-.542969-3.742188.828125-5.054688l16.785156-16.09375-11.710937 6.757813c-1.863281 1.089844-4.246094.613281-5.550781-1.105469-1.304688-1.71875-1.121094-4.144531.433593-5.644531l17.816407-17.355469-12.714844 7.328125c-1.9375 1.382813-4.628906.933594-6.011719-1.003906-1.382813-1.933594-.933594-4.625 1.003906-6.011719l7.191407-6.152344-2.285157 1.316407c-1.878906 1.007812-4.207031.476562-5.464843-1.246094-1.253907-1.71875-1.050782-4.101563.480468-5.582031l11.613282-10.394532-6.628907 3.824219c-1.867187 1.105469-4.265625.636719-5.578125-1.09375-1.308594-1.730469-1.113281-4.167969.457032-5.664062l17.28125-16.683594-12.160157 7.015625c-1.878906 1.019531-4.21875.492188-5.480469-1.230469-1.261718-1.726562-1.054687-4.117187.488282-5.597656l12.203125-11.007813-7.210938 4.164063c-1.914062 1.109375-4.351562.574219-5.625-1.230469-1.273437-1.808594-.957031-4.285156.726563-5.714844l6.699218-5.707031-1.800781 1.03125c-1.925781 1.097657-4.371093.542969-5.628906-1.28125s-.910156-4.308593.796875-5.714843l3.089844-2.5625c-1.515625.128906-2.984375-.546876-3.875-1.78125-1.269532-1.796876-.96875-4.265626.703125-5.703126l7.746093-6.671874-2.832031 1.628906c-1.851562 1.03125-4.179687.542968-5.464843-1.140625-1.285157-1.6875-1.140626-4.058594.34375-5.574219l11.230468-11.1875-6.09375 3.507812c-1.640625.941407-3.703125.6875-5.070312-.617187-1.367188-1.308594-1.710938-3.359375-.84375-5.039063l4.269531-8.167968c-1.882813-.113282-3.46875-1.453125-3.898437-3.289063-.425782-1.835937.398437-3.734375 2.035156-4.671875l9.628906-5.546875c1.640625-.953125 3.714844-.703125 5.085938.609375 1.375 1.3125 1.714843 3.375.835937 5.054688l-3.621094 6.972656 21.675781-12.507812c1.851563-1.03125 4.179688-.542969 5.464844 1.140624 1.285156 1.6875 1.140625 4.058594-.34375 5.574219l-11.214844 11.195313 13.917969-8.03125c1.90625-1.074219 4.3125-.539063 5.582031 1.246094 1.265626 1.78125.976563 4.234374-.664062 5.675781l-7.765625 6.683593 2.855469-1.640624c1.925781-1.097657 4.371094-.542969 5.628906 1.28125 1.257812 1.824218.914062 4.308593-.796875 5.714843l-3.082031 2.511719c1.519531-.125 2.992187.554688 3.882812 1.789062 1.273438 1.804688.964844 4.277344-.714844 5.710938l-6.691406 5.699219 1.800782-1.03125c1.878906-1.019531 4.21875-.496094 5.480468 1.230469 1.261719 1.722656 1.050782 4.117187-.488281 5.59375l-12.203125 11.011718 7.226562-4.175781c1.867188-1.105469 4.269532-.636719 5.578126 1.09375 1.3125 1.730469 1.113281 4.167969-.457032 5.664063l-17.296875 16.71875 12.175781-7.03125c1.875-.996094 4.199219-.460938 5.449219 1.257812 1.25 1.714844 1.046875 4.085938-.472656 5.566406l-11.605469 10.402344 6.640625-3.839844c1.910157-1.121094 4.359375-.59375 5.640625 1.214844s.964844 4.292969-.726562 5.722656l-7.203125 6.164063 2.304687-1.332031c1.863282-1.089844 4.246094-.617188 5.550782 1.105468 1.304687 1.71875 1.121093 4.144532-.429688 5.644532l-17.828125 17.363281 12.730469-7.347657c1.875-1.144531 4.308594-.683593 5.632812 1.070313 1.324219 1.75 1.101563 4.21875-.511718 5.707031l-16.777344 16.078125 11.710937-6.757812c1.917969-1.089844 4.351563-.535157 5.609375 1.277343 1.257813 1.8125.925782 4.285157-.765625 5.699219l-3.546875 2.929688c1.839844-.382813 3.710938.484375 4.609375 2.132812.898438 1.652344.613281 3.695313-.703125 5.035157l-20.589844 21.050781 15.417969-8.898438c1.878907-1.023437 4.222657-.496093 5.480469 1.230469 1.261719 1.722656 1.054688 4.113281-.488281 5.59375l-12.183594 11.015625 7.175781-4.144531c1.851563-1.082032 4.21875-.621094 5.527344 1.078125 1.3125 1.695312 1.160156 4.101562-.355469 5.621093l-20.027343 20.308594 14.933593-8.609375c1.78125-1.027343 4.039063-.636719 5.375.925781 1.332031 1.566407 1.359375 3.859376.066407 5.457032l-15.519532 19.011718 10.058594-5.796874c1.605469-.925782 3.628906-.707032 5 .539062 1.375 1.246094 1.785156 3.234375 1.015625 4.925781l-3.078125 6.738281c1.214844.238282 2.273438.988282 2.898438 2.058594 1.179687 2.039063.480468 4.648438-1.558594 5.828125l-7.902344 4.554688c-1.605469.894531-3.597656.660156-4.953125-.578125-1.355469-1.238282-1.765625-3.203125-1.019531-4.882813l2.34375-5.117187-18.566406 10.714844c-.660157.382812-1.414063.578124-2.175782.566406zm0 0" fill="#fa6c51"/><path d="m460.003906 486.234375c-1.617187 0-3.09375-.914063-3.816406-2.359375s-.566406-3.175781.402344-4.46875l11.152344-14.976562-24.472657 14.140624c-1.84375 1.050782-4.175781.585938-5.480469-1.085937-1.300781-1.671875-1.179687-4.050781.292969-5.578125l20.921875-21.53125-15.734375 9.089844c-1.90625 1.113281-4.34375.585937-5.625-1.210938s-.980469-4.273437.691407-5.710937l8.722656-7.550781-3.789063 2.175781c-1.855469 1.042969-4.195312.558593-5.484375-1.136719-1.289062-1.691406-1.136718-4.078125.363282-5.589844l18.824218-18.625-13.703125 7.898438c-1.847656 1.054687-4.191406.585937-5.488281-1.097656-1.300781-1.6875-1.160156-4.070313.324219-5.589844l19.945312-20.132813-14.78125 8.535157c-1.851562 1.03125-4.179687.542968-5.464843-1.144532-1.285157-1.683594-1.136719-4.058594.34375-5.570312l18.945312-18.773438-13.808594 7.960938c-1.921875 1.078125-4.351562.515625-5.601562-1.300782-1.25-1.816406-.910156-4.285156.78125-5.695312l2.996094-2.441406c-1.449219.089844-2.847657-.550782-3.71875-1.707032-1.296876-1.730468-1.09375-4.160156.476562-5.648437l16.210938-15.445313-11.175782 6.449219c-1.886718 1.148438-4.332031.667969-5.644531-1.105469-1.3125-1.769531-1.0625-4.25.582031-5.71875l15.96875-15.121093-10.90625 6.296875c-1.851562 1.066406-4.203125.601562-5.507812-1.085938-1.304688-1.691406-1.164063-4.085937.335937-5.605468l20.285157-20.632813-15.105469 8.722656c-1.882813 1.109375-4.300781.617188-5.597657-1.140625-1.300781-1.757812-1.058593-4.214844.554688-5.6875l14.804688-13.789062-9.761719 5.632812c-1.902344 1.089844-4.320313.558594-5.59375-1.226562-1.277344-1.785156-.988281-4.242188.660156-5.6875l9.011719-7.84375-4.078125 2.347656c-1.898438 1.101562-4.324219.582031-5.605469-1.199219s-1-4.246093.648438-5.695312l10.128906-8.925781-5.171875 2.988281c-1.878907 1.019531-4.21875.492187-5.480469-1.230469-1.261719-1.726562-1.054688-4.117188.488281-5.597656l12.277344-11.09375-7.285156 4.207031c-1.875 1.007813-4.207031.476563-5.464844-1.242187-1.253906-1.722657-1.050781-4.105469.480469-5.585938l11.945312-10.75-6.96875 4.019531c-1.898437 1.101563-4.324218.582031-5.605468-1.199219-1.28125-1.785156-1-4.246093.644531-5.695312l10.300781-9.097656-5.339844 3.082031c-1.859375 1.058594-4.214844.574219-5.507812-1.125-1.296875-1.703125-1.128906-4.101563.386718-5.609375l18.328126-18.074219-13.199219 7.613281c-1.921875 1.109376-4.375.5625-5.640625-1.261718-1.265625-1.832032-.914063-4.328125.808594-5.734375l2.867187-2.332031c-1.347656-.015626-2.625-.605469-3.515625-1.621094-1.3125-1.660156-1.210938-4.03125.242188-5.570313l8.746093-9.285156-3.507812 2.023437c-1.699219.992188-3.859375.691407-5.222657-.726562-1.367187-1.417969-1.585937-3.585938-.527343-5.25l2.941406-4.71875c-1.578125-.542969-2.695313-1.964844-2.851563-3.628906-.160156-1.664063.667969-3.265625 2.117188-4.101563l9.625-5.546875c1.703125-.992187 3.859375-.691406 5.226562.726563 1.363282 1.417969 1.582032 3.585937.527344 5.246093l-1.273437 2.050782 13.875-8.003906c1.832031-1.050782 4.15625-.601563 5.464843 1.050781 1.3125 1.65625 1.214844 4.019531-.222656 5.5625l-8.738281 9.265625 16.433594-9.488282c1.925781-1.121093 4.386719-.570312 5.65625 1.261719 1.265625 1.832031.910156 4.328125-.816407 5.734375l-2.5625 2.058594c1.453126-.09375 2.855469.546875 3.738282 1.703125 1.300781 1.710937 1.128906 4.117187-.398438 5.625l-18.3125 18.023437 13.207032-7.628906c1.898437-1.101562 4.324218-.582031 5.605468 1.199219s1 4.246094-.648437 5.695313l-10.238281 9.0625 5.367187-3.089844c1.875-1.007813 4.207031-.476563 5.464844 1.246094 1.253906 1.71875 1.050781 4.101562-.480469 5.582031l-11.949219 10.757812 7-4.035156c1.875-1.019531 4.21875-.492187 5.480469 1.230469 1.261719 1.726562 1.050781 4.117187-.488281 5.597656l-12.273438 11.09375 7.289063-4.207031c1.898437-1.101563 4.324218-.582031 5.605468 1.199219s1 4.246093-.648437 5.695312l-10.128906 8.925781 5.1875-2.996093c1.902343-1.089844 4.324219-.5625 5.597656 1.222656s.984375 4.246094-.664063 5.691406l-8.992187 7.839844 4.058594-2.355469c1.882812-1.109375 4.300781-.617187 5.597656 1.140625 1.300781 1.757812 1.0625 4.214844-.554687 5.6875l-14.820313 13.804688 9.796875-5.648438c1.847656-1.0625 4.195312-.601562 5.503906 1.082031 1.304688 1.6875 1.167969 4.078125-.324218 5.601563l-20.269532 20.625 15.105469-8.722656c1.886719-1.164063 4.347656-.695313 5.671875 1.085937 1.320312 1.777344 1.058594 4.273437-.601562 5.742187l-15.957032 15.101563 10.894532-6.289063c1.886718-1.1875 4.367187-.722656 5.699218 1.066407 1.328125 1.789062 1.058594 4.296875-.621094 5.761719l-16.316406 15.4375 11.195313-6.46875c1.925781-1.097657 4.371093-.542969 5.628906 1.28125 1.257813 1.824218.910156 4.308593-.796875 5.714843l-3.003906 2.441407c1.785156-.136719 3.464844.855468 4.207031 2.480468.746094 1.628906.394531 3.546875-.878906 4.808594l-18.945313 18.773438 13.816406-7.980469c1.847657-1.066407 4.203126-.601563 5.507813 1.085937 1.304687 1.691406 1.160156 4.082032-.335937 5.605469l-19.945313 20.136719 14.789063-8.53125c1.855468-1.042969 4.199218-.5625 5.488281 1.132812 1.289062 1.695313 1.132812 4.078125-.367188 5.589844l-18.832031 18.636719 13.710938-7.910157c1.902343-1.089843 4.324218-.5625 5.597656 1.222657 1.273437 1.785156.984375 4.246093-.664063 5.691406l-8.695312 7.542969 3.769531-2.175782c1.84375-1.066406 4.191406-.609374 5.5 1.070313s1.179688 4.066406-.300781 5.59375l-20.914063 21.554687 15.769532-9.105468c1.75-1.015625 3.976562-.65625 5.324218.859375 1.34375 1.511719 1.441406 3.765625.230469 5.386719l-11.171875 14.976562 5.625-3.242188c1.527344-.886718 3.4375-.738281 4.8125.367188s1.929688 2.945312 1.390625 4.625l-1.921875 5.972656c.644531.378906 1.183594.917969 1.5625 1.5625.566406.980469.71875 2.144532.421875 3.238282-.292969 1.09375-1.011719 2.023437-1.992187 2.589843l-4.308594 2.480469c-1.527344.882812-3.441406.734375-4.8125-.375-1.371094-1.105469-1.921875-2.945312-1.382813-4.625l.949219-2.953125-13.988281 8.066406c-.644531.382813-1.382813.585938-2.132813.589844zm0 0" fill="#eb86be"/><g fill="#262626"><path d="m504.625 479.578125h-14.898438v-181.625c0-27.835937 6.269532-64 0-91.238281-4.269531-18.679688-14.285156-22.980469-36.539062-18.117188-35.390625 7.730469-18.484375 81.878906-18.484375 108.648438v182.332031h-30.292969v-154.820313c0-17.742187 5.496094-46.328124 0-63.558593-4.933594-15.503907-15.914062-14.847657-32.144531-13.234375-36.636719 3.660156-22.914063 49.894531-22.914063 78.207031v153.40625h-30.292968v-155.769531c0-33.382813 14.6875-86.671875-36.53125-75.460938-31.402344 6.878906-18.492188 53.660156-18.492188 78.773438v152.457031h-30.308594v-159.625c0-33.640625 16.058594-91.777344-36.539062-80.214844-32.113281 7.058594-18.484375 58.027344-18.484375 83.535157v156.304687h-30.285156v-105.644531c0-10.394532 3.328125-27.410156 0-37.445313-4.769531-14.394531-16.894531-12.304687-30.429688-11.78125-31.703125 1.21875-24.644531 25.214844-24.644531 50.609375v104.261719h-64.402344v-37.546875h23.960938c3.09375.210938 6.167968-.609375 8.738281-2.339844 1.460937-1.339844 2.066406-2.917968-.785156-2.917968h-31.914063v-45.996094h23.945313c3.09375.199218 6.167969-.625 8.746093-2.34375 1.476563-1.324219 2.066407-2.84375-.757812-2.84375h-31.933594v-43.765625h27.460938c7.261718 0 9.320312-9.609375.957031-9.609375h-28.417969v-43.519532h25.378906c3.804688 0 13.378907-5.699218 5.121094-5.699218h-30.5v-44.503906h25.601563c2.507812 0 7.039062-.765626 8.113281-3.53125 1-2.5625-.851562-4.214844-3.507812-4.214844h-30.207032v-44.425782h25.378906c3.875 0 13.363282-5.804687 5.121094-5.804687h-30.5v-44.933594h25.5c2.242188 0 7.210938-.855469 8.171875-3.3125.964844-2.457031-.808593-3.414062-3.292969-3.414062h-30.378906v-44.730469h25.429688c2.140625 0 7.253906-.851562 8.199218-3.207031.949219-2.355469-.851562-3.003907-3.179687-3.003907h-30.449219v-44.785156h25.480469c2.226563 0 7.21875-.851562 8.183594-3.292968.964843-2.441407-.851563-3.328126-3.265625-3.328126h-30.398438v-23.023437c0-5.308594-12.390625-2.765625-12.390625 1.46875v474.625h-6.824219c-2.613281 0-13.980468 5.015625-8.023437 5.015625h14.847656v15.292969c0 5.308593 12.390625 2.765625 12.390625-1.46875v-13.824219h65.117188c.824218.855469 1.972656 1.320312 3.160156 1.273438h42.359375c2.160156.1875 4.328125-.253907 6.246094-1.273438h33.320312c.996094.589844 2.140625.886719 3.296875.855469h42.253906c1.621094-.003907 3.226563-.292969 4.746094-.855469h35.039063c.996093.578125 2.132812.875 3.285156.855469h42.28125c1.558594-.03125 3.101563-.320313 4.566406-.855469h35.113281c.25.582031 1.136719.9375 2.5625 1.085938.839844.164062 1.703126.203124 2.558594.117187h41.097656c1.910157-.074219 3.792969-.484375 5.5625-1.203125h33.691407c.265625.257812.589843.445312.945312.546875.878907.273437 1.800781.367187 2.714844.28125h42.289063c1.582031-.035156 3.152343-.324219 4.644531-.851563h10.808593c2.613282.023438 13.980469-4.992187 8.023438-4.992187zm-41.0625-284.273437c20.480469 3.320312 13.804688 24.644531 13.804688 41.730468v241.695313h-30.308594v-244.964844c0-16.9375-7.707032-42.367187 16.503906-38.460937zm-101.820312 64.207031c5.65625-7.800781 25.277343-5.796875 30.277343 2.480469 5.75 9.523437 0 42.285156 0 52.746093v90.761719c0 22.75-1.820312 46.351562 0 69.035156.082031 1.335938.296875 2.664063.640625 3.957032-10.285156.910156-20.632812.910156-30.917968 0v-129.269532c0-24.894531-2.003907-50.75 0-75.574218.1875-2.25-1.585938-11.945313 0-14.136719zm-82.414063 219.238281c-.707031-.34375-1.441406-.628906-2.195313-.855469.054688-1.367187-.199218-2.726562-.742187-3.984375-5.972656-17.570312 0-48.195312 0-66.6875v-91.136718c0-10.90625-6.246094-46.933594 0-56.464844 5.402344-8.25 24.652344-7.277344 30.3125 2.253906 1.550781 2.628906-.417969 9.191406 0 12.074219 3.414063 23.414062 0 49.859375 0 73.480469v131.855468l-3.183594.292969h-21.511719c-.917968-.191406-1.816406-.46875-2.679687-.828125zm-85.335937-.050781c-.726563-.449219-1.5-.808594-2.3125-1.078125.390624-2.226563.179687-4.519532-.613282-6.636719-4.984375-20.078125 0-47.789063 0-68.429687v-97.722657c0-9.660156-5.863281-45.441406 0-53.804687 13.339844-19.011719 28.765625.855468 30.3125 15.675781 1.296875 25.566406 1.296875 51.183594 0 76.75v135.859375l-2.671875.265625h-22.304687c-.839844-.207031-1.648438-.511719-2.417969-.90625zm-88.234376-34.910157v-61.542968c0-10.984375-4.496093-33.65625 0-43.84375 3.167969-7.1875 6.179688-7.304688 15.523438-6.136719 8.105469 1.015625 11.289062.460937 14.738281 8.292969 4.726563 10.753906 0 34.289062 0 45.902344v91.84375h-12.800781c-5.972656 0-18.339844-2.558594-17.972656 1.273437h-.050782c-3.089843-7.878906.554688-28.664063.554688-35.789063zm0 0"/><path d="m506.492188 61.945312c-1.089844-1.890624-3.203126-2.953124-5.375-2.703124h-68.265626c-7.195312 0-9.386718 9.386718-1.007812 9.386718h57.582031c-36.6875 36.691406-73.378906 73.386719-110.078125 110.078125-6.359375 6.359375-17.066406 21.753907-25.292968 25.292969-11.308594 4.867188-.804688 4.148438-11.949219.394531-9.742188-3.292969-23.652344-23.664062-30.554688-30.558593-11.664062-11.664063-23.324219-23.324219-34.988281-34.988282-28.527344-28.429687-42.292969-2.796875-65.910156 20.824219l-116.164063 116.195313c-5.292969 5.300781 6.730469 6.222656 10.121094 2.835937l116.195313-116.199219c6.359374-6.359375 17.066406-21.75 25.292968-25.292968 11.308594-4.863282.804688-4.148438 11.949219-.394532 9.742187 3.296875 23.652344 23.664063 30.554687 30.558594 11.664063 11.664062 23.324219 23.324219 34.988282 34.988281 28.527344 28.433594 42.292968 2.796875 65.910156-20.820312l104.832031-104.84375v55.9375c0 6.65625 12.5625 4.984375 12.5625-.851563v-68.183594c.199219-.582031.042969-1.226562-.402343-1.65625zm0 0"/></g></svg>