<svg height="506pt" viewBox="0 -1 506.66137 506" width="506pt" xmlns="http://www.w3.org/2000/svg"><path d="m162.828125 397.199219c-1.457031 0-2.8125-.742188-3.597656-1.96875-.785157-1.226563-.890625-2.769531-.277344-4.089844l3.070313-6.65625-13.652344 7.867187c-1.847656 1.066407-4.195313.605469-5.503906-1.082031-1.304688-1.683593-1.167969-4.074219.324218-5.597656l5.617188-5.703125-13.824219 7.972656c-1.867187 1.105469-4.269531.636719-5.578125-1.09375-1.3125-1.730468-1.113281-4.167968.457031-5.664062l19.625-18.945313-31.589843 18.253907c-1.929688 1.117187-4.398438.554687-5.65625-1.285157-1.261719-1.84375-.886719-4.34375.851562-5.738281l20.164062-16.121094-28.023437 16.214844c-1.933594 1.09375-4.386719.515625-5.632813-1.328125-1.246093-1.84375-.867187-4.332031.871094-5.722656l32.992188-25.871094-41.96875 24.21875c-1.957032 1.121094-4.453125.523437-5.6875-1.367187-1.238282-1.886719-.789063-4.414063 1.019531-5.761719l35.839844-26.390625-42.578125 24.515625c-1.960938 1.105469-4.445313.5-5.671875-1.386719-1.230469-1.886719-.785157-4.402344 1.019531-5.746094l47.726562-34.859375-54.902343 31.699219c-1.988281 1.132812-4.515625.496094-5.730469-1.441406-1.214844-1.941406-.679688-4.492188 1.207031-5.785156l28.253907-19.175782-31.53125 18.230469c-1.980469 1.152344-4.519532.53125-5.75-1.40625-1.226563-1.9375-.703126-4.496094 1.183593-5.796875l52.054688-36.054688-56.507813 32.605469c-1.984375 1.101563-4.484375.453125-5.6875-1.472656-1.199218-1.921875-.6875-4.453125 1.171875-5.753906l45.492188-30.582031-48.5625 28.03125c-1.992188 1.152343-4.539063.519531-5.757813-1.433594s-.667968-4.523438 1.242188-5.804688l57.515625-38.75-59.980469 34.628906c-1.988281 1.152344-4.53125.527344-5.753906-1.417968-1.222656-1.945313-.6875-4.507813 1.214844-5.800782l75.09375-51.328124-78.292969 45.226562c-1.988281 1.085938-4.476563.429688-5.667969-1.492188-1.195312-1.921874-.683594-4.441406 1.167969-5.742187l63.488281-42.257813-64.230469 37.023438c-1.988281 1.101562-4.492187.445312-5.6875-1.484375-1.199219-1.933594-.667969-4.464844 1.199219-5.757813l64.957031-43.007812-65.648437 37.863281c-1.980469 1.132813-4.507813.503907-5.726563-1.429687s-.699219-4.480469 1.179688-5.78125l92.636719-63.300782-92.441407 53.375c-2.011719 1.226563-4.636719.589844-5.867187-1.421874-1.226563-2.011719-.589844-4.636719 1.421875-5.867188l39.96875-25.699219-38.195313 22.046875c-1.984375 1.085938-4.472656.429688-5.667968-1.492187-1.191407-1.921875-.679688-4.441407 1.171874-5.742188l82.320313-54.886719-79.570313 45.945313c-1.984374.964844-4.371093.261719-5.515624-1.621094-1.144532-1.882812-.667969-4.328125 1.101562-5.640625l22.402344-14.253906-18.835938 10.839844c-2.011718 1.222656-4.636718.578125-5.859375-1.433594-1.222656-2.015625-.582031-4.640625 1.433594-5.863281l33.5-21.375-29.320313 16.953125c-2.007812 1.179687-4.589843.527344-5.800781-1.460938-1.210937-1.988281-.605469-4.582031 1.363281-5.824218l45.449219-29.226563-39.929687 23.039063c-1.976563 1.015624-4.40625.339843-5.574219-1.554688-1.171875-1.890625-.6875-4.367188 1.105469-5.683594l67.300781-44.074218-61.199219 35.328124c-2.011718 1.179688-4.589844.527344-5.800781-1.460937s-.605469-4.582031 1.363281-5.824219l33.695313-21.511718-25.84375 14.890624c-2.019531 1.21875-4.644531.574219-5.863281-1.445312-1.222657-2.015625-.574219-4.640625 1.441406-5.859375l9.933594-6.265625-2.5625 1.453125c-2.011719 1.222656-4.636719.578125-5.859376-1.433594-1.222656-2.015625-.582031-4.640625 1.433594-5.863281l23.890625-15.214844-13.652343 7.847656c-2.003907 1.203126-4.597657.570313-5.824219-1.417968-1.226563-1.988282-.625-4.589844 1.34375-5.84375l59.496093-39.175782-45.578124 26.335938c-1.300782.792969-2.929688.832031-4.265626.101562-1.339843-.730468-2.1875-2.117187-2.222656-3.644531-.039062-1.523437.742188-2.953125 2.042969-3.746093l12.195313-7.816407c-1.511719-.035156-2.917969-.785156-3.789063-2.023437-1.21875-1.960938-.652344-4.539063 1.277344-5.808594l16.335937-10.777344c-1.71875-.257812-3.109375-1.527344-3.519531-3.210937-.410156-1.6875.242187-3.453125 1.648437-4.46875l26.042969-18.605469c-.335937-.300781-.621093-.652344-.851562-1.039062-1.171875-2.039063-.472657-4.644532 1.5625-5.820313l46.445312-26.820313c1.972657-1.15625 4.507813-.554687 5.746094 1.371094 1.238281 1.921875.742187 4.480469-1.128906 5.796875l-1.1875.851563 33.28125-19.207032c1.996093-1.15625 4.554687-.515624 5.769531 1.445313 1.214844 1.964844.648438 4.539063-1.28125 5.808594l-3.414062 2.21875 21.496093-12.382813c2-1.101562 4.511719-.429687 5.699219 1.519532 1.1875 1.945312.632812 4.484374-1.261719 5.757812l-3.300781 2.125 13.488281-7.789062c2.003907-1.199219 4.597657-.566407 5.824219 1.421874 1.226562 1.984376.628906 4.589844-1.34375 5.839844l-59.535156 39.253906 55.054687-31.820312c2.003907-1.085938 4.503907-.410156 5.683594 1.539062 1.179687 1.945313.625 4.472657-1.261719 5.746094l-23.800781 15.191406 19.378906-11.1875c2.019531-1.21875 4.640625-.570312 5.859375 1.445313s.570313 4.640625-1.445312 5.859375l-10.027344 6.332031 5.613281-3.234375c2-1.070312 4.484375-.390625 5.660157 1.542969 1.175781 1.933594.636718 4.453125-1.230469 5.734375l-33.542969 21.453125 29.113281-16.808594c2-1.136719 4.539063-.488281 5.742188 1.46875 1.207031 1.957031.644531 4.519531-1.269531 5.792969l-67.335938 44.097656 62.863281-36.292968c2-1.097657 4.511719-.429688 5.699219 1.519531 1.191406 1.949219.632812 4.488281-1.261719 5.761719l-45.457031 29.226562 41.019531-23.671875c2.003907-1.085937 4.503907-.40625 5.683594 1.539063 1.179687 1.945312.625 4.476562-1.261719 5.75l-33.605468 21.441406 29.175781-16.84375c2.007812-1.101563 4.523437-.425782 5.707031 1.53125 1.183594 1.957031.613281 4.5-1.292969 5.765625l-22.28125 14.140625 17.867188-10.308594c1.992187-1.136719 4.527343-.492188 5.734375 1.457031 1.210937 1.949219.664062 4.503907-1.238282 5.785157l-82.3125 54.90625 77.867188-44.945313c2-1.101563 4.511719-.433594 5.699219 1.515625s.632812 4.488281-1.261719 5.761719l-39.984375 25.71875 35.546875-20.519531c1.980469-1.101563 4.476562-.464844 5.6875 1.453124 1.207031 1.917969.703125 4.445313-1.148438 5.753907l-92.644531 63.292969 88.105469-50.859376c2-1.15625 4.554688-.515624 5.769531 1.445313 1.214844 1.964844.648438 4.539063-1.28125 5.808594l-64.945312 43.035156 60.457031-34.902344c1.996094-1.132812 4.527344-.488281 5.734375 1.457031 1.210937 1.949219.664063 4.503907-1.234375 5.789063l-63.507812 42.253906 59.007812-34.054687c1.980469-1.101563 4.476562-.460938 5.6875 1.457031 1.207031 1.917969.703125 4.445313-1.148438 5.753906l-75.046874 51.328125 69.734374-40.261718c1.992188-1.152344 4.539063-.519532 5.757813 1.433593s.667969 4.523438-1.246094 5.804688l-57.53125 38.730469 49.945313-28.832032c1.292968-.808594 2.917968-.867187 4.265625-.148437 1.34375.714843 2.207031 2.09375 2.261719 3.617187.050781 1.523438-.710938 2.957032-2.003907 3.765625l-45.527343 30.609375 38.214843-22.058594c1.976563-1.101562 4.46875-.472656 5.683594 1.4375 1.210937 1.914063.722656 4.4375-1.121094 5.757813l-52.027343 36.0625 44.375-25.601563c1.988281-1.132812 4.515624-.496093 5.730468 1.445313 1.210938 1.9375.679688 4.488281-1.207031 5.78125l-28.289063 19.167969 21.265626-12.28125c1.960937-1.105469 4.441406-.5 5.671874 1.386718 1.226563 1.886719.78125 4.402344-1.023437 5.75l-47.742187 34.867188 39.714843-22.914062c1.957031-1.097657 4.429688-.492188 5.65625 1.386718 1.226563 1.878906.792969 4.386719-.996093 5.738282l-35.765626 26.367187 28.03125-16.210937c1.941407-1.117188 4.410157-.546876 5.664063 1.304687s.863281 4.359375-.890625 5.742187l-32.976562 25.863282 24.917968-14.386719c1.933594-1.117187 4.398438-.554687 5.660156 1.285156 1.257813 1.84375.886719 4.34375-.855468 5.738281l-20.1875 16.136719 12.578125-7.269531c1.863281-1.105469 4.265625-.636719 5.574219 1.09375 1.3125 1.730469 1.113281 4.167969-.457032 5.664062l-19.625 18.953126 11.09375-6.382813c1.847656-1.050781 4.183594-.585937 5.484375 1.09375 1.300781 1.683594 1.167969 4.0625-.3125 5.585937l-6.230469 6.332032c1.570313-.296875 3.175782.304687 4.160157 1.5625.984375 1.257812 1.183593 2.960937.515625 4.410156l-4.609375 9.910156c.691406.371094 1.261719.925782 1.648437 1.601563 1.179688 2.042969.480469 4.652343-1.5625 5.828125l-5.972656 3.457031c-.648438.382813-1.386719.585937-2.140625.589844zm0 0" fill="#4fc0e8"/><path d="m202.636719 197.519531c-1.78125-.003906-3.371094-1.105469-3.992188-2.773437-.625-1.664063-.148437-3.542969 1.191407-4.710938l24.386718-21.207031-19.453125 11.238281c-1.964843 1.117188-4.457031.511719-5.6875-1.382812-1.230469-1.890625-.773437-4.417969 1.042969-5.757813l24.328125-17.699219-19.683594 11.34375c-1.976562 1.136719-4.496093.523438-5.722656-1.394531-1.230469-1.917969-.738281-4.464843 1.121094-5.785156l54.324219-38.449219-49.722657 28.714844c-1.980469 1.132812-4.5.511719-5.726562-1.410156-1.222657-1.925782-.714844-4.472656 1.152343-5.785156l48.734376-34.046876-44.160157 25.488282c-1.976562 1.121094-4.484375.5-5.703125-1.417969-1.222656-1.914063-.730468-4.449219 1.121094-5.765625l40.414062-28.382812-35.839843 20.695312c-1.949219 1.097656-4.414063.511719-5.652344-1.347656-1.242187-1.863282-.835937-4.363282.933594-5.738282l51.265625-39.167968-46.539063 26.863281c-1.984375 1.117187-4.496093.476563-5.707031-1.449219-1.210938-1.929687-.691406-4.46875 1.175781-5.769531l3.164063-2.148437c-1.703125.277343-3.414063-.472657-4.367188-1.914063-1.226562-1.925781-.71875-4.476563 1.152344-5.785156l7.378906-5.1875-2.796875 1.613281c-1.933593 1.082031-4.371093.507812-5.613281-1.324219-1.246094-1.832031-.882812-4.308593.832031-5.707031l25.25-20.027344-20.46875 11.816406c-1.910156 1.074219-4.320312.523438-5.578125-1.265624-1.261718-1.792969-.957031-4.246094.695313-5.679688l18.226562-15.359375-13.34375 7.679687c-1.898437 1.070313-4.300781.535157-5.566406-1.238281-1.269531-1.773437-.996094-4.214843.632813-5.664062l7.160156-6.238281-2.226563 1.289062c-1.828125 1.058594-4.152343.625-5.472656-1.023438-1.320313-1.648437-1.234375-4.015624.199219-5.566406l5.195312-5.632812c-1.480468.816406-3.300781.679687-4.644531-.347656-1.34375-1.023438-1.953125-2.742188-1.558594-4.386719l2.089844-8.703125c-1.351563-.742188-2.199219-2.15625-2.214844-3.699219s.800781-2.972656 2.136719-3.742187l3.746094-2.160157c1.480468-.851562 3.320312-.742187 4.6875.277344 1.367187 1.023437 1.992187 2.757813 1.59375 4.417969l-1.425782 5.929687 15.550782-8.976562c1.824218-1.074219 4.164062-.644531 5.488281 1.007812 1.324219 1.65625 1.238281 4.027344-.207031 5.578125l-5.207032 5.640625 16.292969-9.386719c1.902344-1.089843 4.320313-.5625 5.59375 1.222657 1.273438 1.785156.988281 4.246093-.664062 5.691406l-7.167969 6.246094 16.640625-9.609375c1.914063-1.09375 4.34375-.550782 5.609375 1.253906s.949219 4.273438-.726562 5.699219l-18.226563 15.363281 29.15625-16.828125c1.933594-1.101563 4.386719-.535156 5.640625 1.304687 1.253906 1.839844.882812 4.332032-.851562 5.726563l-25.277344 20.035156 35.730468-20.625c1.96875-1.109375 4.464844-.484375 5.683594 1.421875 1.21875 1.902344.738282 4.429688-1.09375 5.753906l-7.375 5.179688 12.390625-7.148438c1.988281-1.15625 4.53125-.527343 5.753907 1.417969 1.222656 1.945313.6875 4.507813-1.210938 5.800781l-.472656.316407 4.183594-2.410157c1.945312-1.125 4.433593-.542968 5.683593 1.328126 1.246094 1.871093.828125 4.390624-.957031 5.757812l-51.214844 39.117188 61.949219-35.765626c1.976563-1.121093 4.484375-.496093 5.703125 1.417969 1.222656 1.914063.730469 4.449219-1.121094 5.769531l-40.4375 28.386719 46.335938-26.75c1.976562-1.136719 4.5-.515625 5.722656 1.410157 1.226562 1.925781.71875 4.472656-1.148438 5.785156l-48.769531 34.082031 44.136719-25.480469c1.976562-1.179687 4.53125-.578125 5.773438 1.359375 1.242187 1.933594.726562 4.507813-1.167969 5.816407l-54.355469 38.46875 9.71875-5.617188c1.960938-1.117188 4.457031-.507812 5.6875 1.382812 1.230469 1.894532.773438 4.417969-1.046875 5.761719l-33.390625 24.300781c1.546875.382813 2.75 1.589844 3.125 3.136719s-.140625 3.171875-1.339844 4.21875l-39.339844 34.21875c.097657.132813.183594.269531.265626.410157 1.171874 2.039062.472656 4.640624-1.5625 5.820312l-17.816407 10.289062c-.648437.375-1.386719.574219-2.132812.574219zm0 0" fill="#ac92ea"/><path d="m339.765625 342.679688c-1.65625 0-3.167969-.957032-3.871094-2.460938-.703125-1.5-.46875-3.273438.59375-4.546875l14.609375-17.542969-21.066406 12.125c-1.914062 1.109375-4.355469.574219-5.628906-1.230468-1.273438-1.808594-.957032-4.285157.730468-5.714844l16.960938-14.386719-21.230469 12.253906c-1.960937 1.132813-4.464843.535157-5.707031-1.363281-1.238281-1.894531-.777344-4.429688 1.050781-5.769531l5.1875-3.796875-7.289062 4.195312c-1.953125 1.105469-4.425781.507813-5.660157-1.367187-1.234374-1.871094-.808593-4.378907.976563-5.738281l21.496094-16.070313-25.371094 14.601563c-1.949219 1.125-4.433594.542968-5.683594-1.328126-1.246093-1.867187-.828125-4.386718.957031-5.753906l40.25-30.804687-46.53125 26.878906c-1.96875 1.140625-4.488281.535156-5.722656-1.375-1.238281-1.914063-.753906-4.460937 1.097656-5.785156l34.933594-25.078125-39.695312 22.894531c-1.960938 1.074219-4.421875.453125-5.636719-1.425781-1.214844-1.882813-.769531-4.382813 1.019531-5.726563l44.902344-32.203125-50.523438 29.15625c-1.96875 1.128906-4.472656.523438-5.707031-1.378906-1.230469-1.902344-.761719-4.4375 1.070313-5.769531l57.074218-41.335938-64 36.957031c-1.992187 1.179688-4.5625.554688-5.792968-1.40625-1.226563-1.960937-.667969-4.542968 1.261718-5.820312l37.304688-25.292969-41.410156 23.890625c-1.984375 1.117188-4.496094.480469-5.707032-1.449218-1.210937-1.929688-.691406-4.464844 1.175782-5.769532l45.722656-31.179687-50.476562 29.140625c-2.011719 1.230468-4.636719.597656-5.867188-1.410156-1.230469-2.011719-.597656-4.636719 1.414062-5.867188l5.65625-3.652344-7.679687 4.445313c-1.988281 1.113281-4.503906.46875-5.707031-1.46875-1.207032-1.933594-.675782-4.476563 1.203125-5.769531l44.550781-29.863282-48.972656 28.226563c-1.988282 1.152343-4.53125.527343-5.753906-1.417969-1.222657-1.945312-.6875-4.511719 1.214843-5.800781l59.828125-40.839844-65.539062 37.835937c-1.988282 1.132813-4.515625.496094-5.726563-1.445312-1.214843-1.9375-.683593-4.488281 1.207031-5.78125l57.667969-38.949219-62.984375 36.355469c-2 1.097656-4.511718.429688-5.699218-1.519531-1.191407-1.949219-.632813-4.488281 1.261718-5.761719l4.265625-2.722656-.683593.386718c-1.976563 1.074219-4.449219.425782-5.648438-1.480468s-.707031-4.414063 1.117188-5.730469l60.527343-41.148437-18.039062 10.410156c-1.964844 1.128906-4.472657.523437-5.703125-1.378906-1.234375-1.902344-.765625-4.4375 1.070312-5.773438l42.308594-30.53125c-1.972656 1.140625-4.488281.535156-5.726562-1.375-1.234376-1.914062-.75-4.457031 1.101562-5.785156l24.550781-18.023438c-.273437-.222656-.511719-.480468-.71875-.765625-1.28125-1.757812-1.035156-4.199219.570313-5.667969l26.566406-24.257812c-.230469-1.71875.597656-3.402344 2.097656-4.269531l7.246094-4.171875c1.878906-1.046875 4.242188-.53125 5.515625 1.203125s1.054687 4.144531-.507813 5.625l-6.152343 5.613281 7.917969-4.5625c1.964843-1.136719 4.46875-.539062 5.707031 1.359375s.78125 4.433594-1.046875 5.773437l-4.035156 2.953126 5.375-3.097657c1.964843-1.128906 4.472656-.523437 5.703124 1.378907 1.234376 1.902343.765626 4.4375-1.070312 5.769531l-42.324219 30.550781 46.082031-26.582031c1.984376-1.152344 4.527344-.527344 5.75 1.417969 1.226563 1.945312.6875 4.511718-1.210937 5.800781l-60.585937 41.183593 63.382812-36.589843c1.996094-1.070313 4.480469-.394531 5.660156 1.542969 1.175782 1.933593.636719 4.453124-1.230468 5.734374l-4.265626 2.722657 4.453126-2.5625c1.980468-1.085938 4.46875-.4375 5.667968 1.476562 1.199219 1.917969.695313 4.433594-1.144531 5.746094l-57.703125 38.976563 58.667969-33.867188c1.988281-1.214844 4.589843-.605469 5.832031 1.367188 1.246094 1.972656.671875 4.582031-1.285156 5.851562l-59.835938 40.882812 60.742188-35.0625c1.980468-1.070312 4.457031-.417968 5.648437 1.496094 1.191407 1.914063.691407 4.421875-1.144531 5.730469l-44.527344 29.867187 43.699219-25.257812c2.003906-1.140625 4.550781-.484375 5.753906 1.484375 1.199219 1.96875.621094 4.53125-1.308593 5.792969l-5.65625 3.652344 3.414062-1.960938c1.984375-1.152344 4.53125-.527344 5.753906 1.417969 1.222656 1.945312.683594 4.507812-1.214844 5.800781l-45.730468 31.207031 44.375-25.601562c1.996094-1.253907 4.628906-.652344 5.882812 1.34375 1.253906 1.996093.652344 4.632812-1.34375 5.886719l-37.324218 25.316406 33.953124-19.625c1.964844-1.128906 4.472657-.523438 5.703126 1.378906 1.234374 1.902344.761718 4.4375-1.070313 5.769531l-57.085937 41.363281 53.84375-31.078124c1.960937-1.078126 4.421874-.457032 5.636718 1.425781 1.214844 1.878906.769532 4.378906-1.019531 5.722656l-44.921875 32.230469 39.253906-22.664063c1.964844-1.101562 4.445313-.484375 5.667969 1.40625 1.226563 1.890625.769531 4.40625-1.042969 5.746094l-34.875 25.042969 28.953125-16.714844c1.949219-1.125 4.433594-.546875 5.683594 1.324219 1.25 1.871093.832031 4.390625-.957031 5.757812l-40.285156 30.824219 30.917968-17.835938c1.953125-1.128906 4.449219-.539062 5.691406 1.34375 1.246094 1.882813.804688 4.410157-1 5.765626l-21.519531 16.074218 12.332031-7.117187c1.957032-1.105469 4.441407-.5 5.667969 1.386719 1.230469 1.886718.785157 4.402343-1.019531 5.75l-8.925781 6.550781c1.429687-.050781 2.785156.632812 3.59375 1.8125 1.273437 1.800781.960937 4.277343-.71875 5.707031l-16.980469 14.472656 1.339844-.769531c1.789062-1.019531 4.054687-.617187 5.378906.960937 1.328125 1.578126 1.335938 3.878907.023438 5.464844l-23.507813 28.238282c.832031 1.980468.058594 4.273437-1.800781 5.351562l-5.746094 3.308594c-.648438.382812-1.386719.585937-2.140625.589844zm0 0" fill="#fdcd56"/><path d="m189.671875 401.082031c-1.878906 0-3.539063-1.226562-4.085937-3.027343-.546876-1.800782.148437-3.746094 1.714843-4.789063l14.089844-9.386719-25.941406 14.976563c-1.992188 1.179687-4.5625.554687-5.792969-1.40625-1.226562-1.960938-.667969-4.542969 1.261719-5.824219l33.882812-22.9375-32.605469 18.824219c-1.957031 1.109375-4.441406.5-5.667968-1.382813-1.230469-1.886718-.785156-4.402344 1.019531-5.75l59.734375-43.585937-51.289062 29.609375c-1.976563 1.15625-4.511719.542968-5.746094-1.386719s-.722656-4.488281 1.15625-5.796875l33.664062-23.683594-26.300781 15.199219c-1.972656 1.105469-4.46875.472656-5.683594-1.4375-1.210937-1.910156-.71875-4.4375 1.121094-5.753906l17.457031-12.144531-10.519531 6.074218c-1.929687 1.113282-4.386719.554688-5.648437-1.28125-1.257813-1.835937-.894532-4.332031.835937-5.730468l43.210937-34.800782-34.484374 19.902344c-1.941407 1.128906-4.429688.558594-5.6875-1.308594-1.253907-1.863281-.84375-4.386718.9375-5.757812l23.652343-18.347656-16.015625 9.242187c-1.902344 1.089844-4.320312.5625-5.597656-1.222656-1.273438-1.785157-.984375-4.246094.664062-5.691407l25.429688-22.007812-17.066406 9.867188c-1.90625 1.097656-4.335938.566406-5.609375-1.230469-1.273438-1.792969-.972657-4.261719.695312-5.699219l12.800781-11.027344-5.25 3.023438c-1.855468 1.042968-4.195312.558594-5.484374-1.136719-1.292969-1.691406-1.136719-4.078125.363281-5.589844l11.878906-11.742187-3.847656 2.21875c-1.746094 1.011718-3.964844.660156-5.3125-.839844-1.347657-1.5-1.460938-3.742188-.269531-5.371094l9.753906-13.378906-.757813.433594c-1.488281.863281-3.351562.75-4.722656-.289063-1.371094-1.042969-1.984375-2.804687-1.550781-4.472656l4.652344-17.917969c-.128907-.160156-.246094-.332031-.351563-.503906-.570313-.980469-.726563-2.144531-.433594-3.242188.292969-1.09375 1.007813-2.027343 1.988281-2.59375l2.054688-1.1875c1.488281-.863281 3.347656-.746093 4.71875.289063 1.367188 1.039063 1.980469 2.800781 1.554688 4.464844l-3.363282 12.976562 9.386719-5.441406c1.746094-1.015625 3.960937-.664063 5.3125.832031 1.351563 1.5 1.464844 3.738282.277344 5.371094l-9.769531 13.378906 15.085937-8.710937c1.855469-1.042969 4.195313-.558594 5.484375 1.132812 1.292969 1.695313 1.136719 4.078125-.363281 5.589844l-11.886719 11.757813 16.023438-9.25c1.90625-1.097657 4.335937-.566407 5.609374 1.230468 1.273438 1.792969.972657 4.261719-.695312 5.699219l-12.796875 11.027344 16.425781-9.480469c1.902344-1.074219 4.304688-.539062 5.574219 1.238281 1.265625 1.777344.984375 4.226563-.652344 5.671875l-25.4375 22.023438 31.371094-18.105469c1.941406-1.132813 4.429687-.5625 5.6875 1.304687 1.253906 1.867188.84375 4.386719-.9375 5.761719l-23.609375 18.3125 28.066406-16.214843c1.933594-1.140626 4.417969-.589844 5.6875 1.261718 1.269532 1.851563.886719 4.371094-.875 5.761719l-43.222656 34.808594 50.886719-29.382813c1.972656-1.101562 4.46875-.472656 5.683593 1.4375 1.210938 1.914063.71875 4.4375-1.121093 5.757813l-17.484375 12.167969 20.480468-11.828126c1.976563-1.15625 4.515626-.542968 5.746094 1.386719 1.234375 1.929688.722656 4.488281-1.15625 5.800781l-33.65625 23.710938 38.019532-21.9375c1.964843-1.148438 4.484374-.550781 5.722656 1.355469 1.242187 1.90625.769531 4.453125-1.074219 5.785156l-59.734375 43.5625 67.074219-38.714844c1.988281-1.132812 4.515625-.496093 5.730469 1.445313 1.210937 1.9375.679687 4.492187-1.207032 5.785156l-33.894531 22.9375 37.820313-21.796875c1.988281-1.113281 4.5-.46875 5.707031 1.46875 1.203125 1.933594.675781 4.476563-1.203125 5.769531l-14.054688 9.386719 16.597656-9.574219c1.96875-1.125 4.476563-.511718 5.703126 1.398438 1.226562 1.90625.746093 4.441406-1.09375 5.769531l-33.28125 23.695313 37.769531-21.800782c1.945312-1.144531 4.445312-.570312 5.703125 1.300782 1.253906 1.875.835937 4.40625-.960938 5.773437l-28.285156 21.859375 33.277344-19.199219c2.027344-1.058593 4.527344-.332031 5.671875 1.644531 1.144531 1.980469.523437 4.511719-1.402344 5.738282l-88.066406 50.789062c-1.941407 1.085938-4.390625.5-5.628907-1.347656-1.238281-1.847656-.847656-4.335938.894532-5.71875l28.253906-21.851562-60.585938 34.984374c-1.96875 1.085938-4.4375.464844-5.652343-1.421874-1.214844-1.890626-.761719-4.398438 1.042969-5.734376l33.28125-23.707031-54.367188 31.386719c-.644531.351562-1.371094.53125-2.109375.519531zm0 0" fill="#9ed26a"/><path d="m351.933594 391.113281c-1.769532 0-3.355469-1.097656-3.980469-2.753906-.628906-1.65625-.167969-3.527344 1.15625-4.703125l6.519531-5.757812-9.035156 5.261718c-1.898438 1.097656-4.316406.582032-5.597656-1.195312s-1.011719-4.238282.628906-5.691406l6.597656-5.835938-9.148437 5.28125c-1.875 1.007812-4.207031.476562-5.464844-1.242188-1.253906-1.71875-1.050781-4.101562.480469-5.582031l7.441406-6.671875-10.238281 5.878906c-1.878907 1.019532-4.21875.492188-5.480469-1.230468-1.261719-1.726563-1.054688-4.117188.488281-5.597656l8.011719-7.246094-6.355469 3.671875c-1.882812 1.074219-4.273437.570312-5.558593-1.175781-1.285157-1.742188-1.054688-4.175782.53125-5.652344l26.453124-24.355469c-.058593-1.582031.761719-3.066406 2.132813-3.855469l5.972656-3.414062c1.882813-1.078125 4.273438-.570313 5.558594 1.175781 1.285156 1.742187 1.054687 4.175781-.53125 5.652344l-5.402344 4.964843 7.765625-4.488281c1.878906-1.019531 4.21875-.492187 5.480469 1.230469 1.261719 1.726562 1.054687 4.117188-.488281 5.597656l-8.011719 7.242188 10.90625-6.296875c1.875-1.003907 4.207031-.476563 5.460937 1.246093 1.257813 1.71875 1.050782 4.101563-.480468 5.582032l-7.4375 6.671875 10.1875-5.878907c1.894531-1.097656 4.316406-.578124 5.597656 1.199219 1.28125 1.777344 1.007812 4.234375-.632812 5.6875l-6.605469 5.855469 9.167969-5.292969c1.894531-1.078125 4.300781-.554687 5.574218 1.214844 1.273438 1.769531 1.007813 4.21875-.617187 5.671875l-7.355469 6.519531c2.039062-.390625 4.066406.746094 4.796875 2.691407.730469 1.949218-.050781 4.136718-1.84375 5.183593l-34.5 19.917969c-.65625.363281-1.394531.542969-2.144531.519531zm0 0" fill="#a38671"/><path d="m474.960938 503.984375c-1.640626-.003906-3.132813-.945313-3.84375-2.425781-.707032-1.476563-.503907-3.230469.523437-4.511719l10.488281-13.0625-21.761718 12.550781c-1.800782 1.039063-4.089844.628906-5.417969-.972656-1.324219-1.601562-1.304688-3.925781.050781-5.503906l16.640625-19.320313-23.6875 13.652344c-1.84375 1.050781-4.179687.589844-5.480469-1.082031-1.304687-1.675782-1.179687-4.050782.289063-5.582032l13.910156-14.25-18.824219 10.863282c-1.839844 1.0625-4.183594.609375-5.492187-1.066406-1.3125-1.675782-1.1875-4.058594.289062-5.589844l14.1875-14.695313-19.265625 11.09375c-1.886718 1.1875-4.367187.726563-5.699218-1.0625-1.328126-1.789062-1.058594-4.296875.621093-5.761719l10.71875-10.097656-14.386719 8.304688c-1.828124 1.058594-4.160156.621094-5.476562-1.03125-1.320312-1.648438-1.230469-4.019532.210938-5.566406l15.445312-16.722657-21.273438 12.277344c-1.917968 1.117187-4.371093.582031-5.644531-1.234375-1.273437-1.820312-.941406-4.308594.761719-5.726562l2.039062-1.707032-3.71875 2.148438c-1.84375 1.050781-4.179687.589844-5.480468-1.085938-1.304688-1.671875-1.179688-4.050781.292968-5.578125l13.957032-14.335937-15.503906 8.925781c-1.878907 1.046875-4.242188.53125-5.515626-1.203125-1.273437-1.734375-1.054687-4.144531.507813-5.625l26.121094-23.804688c-.230469-1.71875.601562-3.40625 2.105469-4.269531l7.390624-4.265625c1.878907-1.046875 4.246094-.53125 5.515626 1.203125 1.273437 1.734375 1.058593 4.144531-.507813 5.625l-5.640625 5.117188 7.996094-4.613281c1.84375-1.050782 4.179687-.589844 5.480468 1.082031 1.304688 1.675781 1.179688 4.050781-.289062 5.582031l-13.972656 14.351562 18.894531-10.90625c1.914063-1.09375 4.34375-.550781 5.609375 1.253907 1.265625 1.804687.949219 4.273437-.726562 5.703125l-2.023438 1.707031 3.675781-2.125c1.828125-1.050781 4.144531-.609375 5.457031 1.035156 1.316407 1.644531 1.234376 4-.191406 5.550781l-15.445312 16.734376 21.214844-12.210938c1.871093-1.082031 4.257812-.59375 5.550781 1.136719 1.296875 1.730469 1.09375 4.15625-.472657 5.648437l-10.734374 10.238282 14.351562-8.285157c1.839844-1.050781 4.171875-.589843 5.476562 1.078125 1.304688 1.671875 1.183594 4.046875-.28125 5.578125l-14.148437 14.652344 19.226563-11.09375c1.84375-1.050781 4.179687-.589844 5.480468 1.085937 1.304688 1.671876 1.179688 4.046876-.292968 5.578126l-13.917969 14.300781 18.773437-10.84375c1.800782-1.03125 4.078125-.617188 5.402344.976562 1.324219 1.597657 1.308594 3.910157-.035156 5.488281l-16.648438 19.328126 19.695313-11.355469c1.777343-1.019531 4.027343-.628907 5.359375.925781 1.332031 1.554688 1.371094 3.839844.09375 5.4375l-10.453125 13.015625 2.21875-1.273437c2.027343-1.058594 4.527343-.332032 5.671875 1.648437 1.144531 1.976563.523437 4.507813-1.40625 5.734375l-21.929688 12.664062c-.636718.375-1.367187.570313-2.105468.570313zm0 0" fill="#a38671"/><path d="m382.21875 421.417969c-1.769531-.003907-3.355469-1.101563-3.984375-2.757813-.625-1.65625-.164063-3.527344 1.160156-4.703125l6.5625-5.808593-9.132812 5.265624c-1.859375 1.070313-4.226563.59375-5.527344-1.117187s-1.125-4.121094.410156-5.625l12.246094-12.015625-16.472656 9.523438c-1.890625 1.09375-4.308594.578124-5.589844-1.195313s-1.015625-4.226563.617187-5.683594l6.960938-6.210937-1.703125 1.007812c-1.878906 1.019532-4.222656.492188-5.484375-1.230468-1.257812-1.726563-1.050781-4.117188.492188-5.597657l22.558593-20.371093c-.179687-1.679688.644531-3.308594 2.109375-4.152344l7.40625-4.269532c1.878906-1.019531 4.21875-.492187 5.480469 1.230469 1.261719 1.726563 1.054687 4.117188-.488281 5.597657l-1.195313 1.082031 2.65625-1.535157c1.894531-1.109374 4.324219-.601562 5.613281 1.179688 1.289063 1.777344 1.015626 4.246094-.632812 5.699219l-6.976562 6.210937 9.625-5.554687c1.859374-1.074219 4.230468-.59375 5.527343 1.117187 1.300781 1.710938 1.125 4.121094-.410156 5.625l-12.253906 12.007813 16.480469-9.507813c1.890624-1.0625 4.277343-.535156 5.546874 1.226563 1.269532 1.757812 1.015626 4.191406-.589843 5.652343l-7.601563 6.738282c2.03125-.328125 4.007813.839844 4.699219 2.777344s-.097656 4.09375-1.875 5.125l-34.132813 19.695312c-.640624.375-1.363281.570312-2.101562.574219zm0 0" fill="#cad0d7"/><g fill="#262626"><path d="m4.347656 161.441406c-23.425781 110.285156 50.457032 213.332032 158.539063 235.679688h.144531c.3125.085937.628906.15625.949219.207031 54.207031 8.859375 109.734375-3.683594 154.871093-34.988281l34.679688 34.6875c.152344.144531.375.164062.546875.300781l29.574219 29.574219c.269531.535156.621094 1.019531 1.042968 1.441406 17.214844 17.222656 34.429688 34.441406 51.652344 51.652344 18.011719 18.023437 36.214844 34.988281 61.34375 15.644531.242188-.222656.46875-.460937.675782-.71875.109374-.128906.28125-.195313.382812-.332031.101562-.136719.1875-.273438.300781-.410156.164063-.203126.316407-.421876.449219-.648438 17.707031-23.527344-.996094-40.644531-17.527344-57.171875l-51.660156-51.652344c-.222656-.230469-.535156-.230469-.785156-.394531l-28.160156-28.160156c-.109376-.167969-.09375-.339844-.265626-.511719-12.324218-12.320313-24.652343-24.644531-36.972656-36.972656 25.519532-34.484375 39.738282-76.023438 40.703125-118.914063-1.152343-51.660156-21.539062-101.03125-57.171875-138.453125-.21875-.613281-.640625-1.132812-1.195312-1.476562-.160156-.304688-.359375-.59375-.589844-.851563-38.546875-36.917968-89.648438-57.871094-143.019531-58.640625-2.035157.109375-3.953125.984375-5.367188 2.457031-91.535156 5.757813-173.40625 65.738282-193.140625 158.652344zm383.605469 197.648438-27.886719 27.886718c-10.175781-10.1875-20.359375-20.371093-30.550781-30.550781 10.1875-8.34375 19.609375-17.578125 28.160156-27.585937zm-193.332031 35.402344c-12.003906-.375-16.988282 1.921874-19.480469-6.824219 10.53125-57.292969 25.320313-115.695313 31.863281-173.636719l126.636719 126.632812c-5.023437 4.914063-10.296875 9.566407-15.796875 13.9375-.617188.507813-1.15625 1.105469-1.597656 1.773438-35 26.214844-77.917969 39.664062-121.625 38.117188zm173.519531.796874c-.597656-.472656-1.167969-.976562-1.707031-1.511718l28.203125-28.160156 23.261719 23.261718-28.160157 28.160156-10.617187-10.617187c-3.398438-3.960937-7.066406-7.679687-10.980469-11.132813zm120.574219 94.589844c-19.164063 13.910156-36.691406-11.09375-47.050782-21.460937l-36.292968-36.292969c-2.6875-2.6875-5.394532-5.367188-8.074219-8.070312 1.410156-1.390626 2.800781-2.800782 4.191406-4.191407l23.542969-23.542969 32.902344 32.921876c14.796875 14.777343 48.273437 37.417968 30.78125 60.636718zm-136.261719-169.949218c-3.480469 4.386718-7.140625 8.535156-10.902344 12.628906l-131.492187-131.539063 130.3125-130.355469c32.664062 36.464844 51.152344 83.445313 52.097656 132.394532-.835938 42.171875-14.824219 83.035156-40.015625 116.871094zm-82.660156-297.191407c23.484375 9.441407 44.976562 23.234375 63.34375 40.652344l-123.734375 123.734375c3.867187-58.921875-.554688-119.816406-.800782-178.796875l.050782-.105469c2.96875-4.035156 53.945312 11.726563 61.140625 14.515625zm-73.695313-14.503906v193.558594c0 .230469.085938.375.101563.589843v.445313l-33.277344 186.589844c-81.390625-19.566407-141.472656-88.503907-149.734375-171.804688-4.644531-52.28125 12.25-104.195312 46.78125-143.726562 34.527344-39.535157 83.695312-63.257813 136.128906-65.6875zm0 0"/><path d="m65.761719 123.679688c19.011719-34.40625 49.941406-60.679688 86.96875-73.871094 8.195312-2.9375.617187-5.882813-4.597657-4.011719-40.226562 14.128906-73.894531 42.488281-94.660156 79.726563-1.433594 2.542968 10.332032 1.636718 12.289063-1.84375zm0 0"/><path d="m50.058594 166.570312c.632812-2.867187 1.324218-5.703124 2.082031-8.535156 1.296875-4.820312-11.195313-3.097656-12.398437 1.398438-.757813 2.84375-1.449219 5.691406-2.082032 8.535156-1.09375 4.984375 11.410156 3.132812 12.398438-1.398438zm0 0"/></g></svg>