<svg id="icons" height="512" viewBox="0 0 60 60" width="512" xmlns="http://www.w3.org/2000/svg"><g fill="#eb5463"><path d="m43.551 45.471a.5.5 0 0 1 -.281-.914l1.391-.945-2.626 1.516a.5.5 0 0 1 -.537-.842l5.8-4.075-6.514 3.76a.5.5 0 0 1 -.532-.846l6.007-4.1-5.944 3.431a.5.5 0 0 1 -.525-.85l4.276-2.827-3.791 2.189a.5.5 0 0 1 -.53-.847l7.105-4.8-6.581 3.8a.5.5 0 0 1 -.523-.852l1.971-1.28-1.452.838a.5.5 0 0 1 -.535-.844l4.77-3.289-4.244 2.45a.5.5 0 0 1 -.552-.831l5.075-3.845-4.53 2.615a.5.5 0 0 1 -.558-.827l5.322-4.15-7.45 4.3a.5.5 0 0 1 -.526-.849l.27-.179-1.786 1.032a.5.5 0 0 1 -.521-.85l.915-.6-2.515 1.453a.5.5 0 0 1 -.672-.165.5.5 0 0 1 .136-.679l7.986-5.543-11.079 6.392a.5.5 0 0 1 -.519-.854l3.1-1.987-4.927 2.845a.5.5 0 0 1 -.53-.848l11.826-7.967-15.275 8.821a.5.5 0 0 1 -.517-.855l7.314-4.638-9.521 5.5a.5.5 0 0 1 -.5-.866l30.388-17.548a.5.5 0 0 1 .518.856l-7.31 4.635 6.905-3.987a.5.5 0 0 1 .529.848l-11.823 7.966 11.3-6.525a.5.5 0 0 1 .519.854l-3.112 1.994 2.6-1.5a.5.5 0 0 1 .536.844l-7.983 5.542 7.453-4.3a.5.5 0 0 1 .525.851l-.912.6.39-.226a.5.5 0 0 1 .527.85l-.426.283a.5.5 0 0 1 .461.87l-5.322 4.15 5.235-3.026a.5.5 0 0 1 .551.831l-5.071 3.841 8.1-4.672a.5.5 0 0 1 .534.845l-4.769 3.289 7.162-4.135a.5.5 0 0 1 .522.852l-1.983 1.289 2.381-1.375a.5.5 0 0 1 .53.848l-7.102 4.787 5.809-3.354a.5.5 0 0 1 .525.85l-4.277 2.828 3.131-1.807a.5.5 0 0 1 .532.845l-6.012 4.1 4.745-2.739a.5.5 0 0 1 .537.841l-5.8 4.074 4.759-2.738a.5.5 0 0 1 .532.847l-1.387.941 1.218-.7a.5.5 0 0 1 .537.842l-1.56 1.1 1.4-.807a.5.5 0 0 1 .577.811l-3.461 3 3.483-2.011a.5.5 0 0 1 .6.793l-1.85 1.781 1.77-1.021a.5.5 0 0 1 .606.783l-.448.457.214-.123a.5.5 0 0 1 .736.548l-.2.846a.5.5 0 0 1 .572.23.5.5 0 0 1 -.183.684l-.888.511a.5.5 0 0 1 -.736-.549l.2-.825-2.39 1.362a.5.5 0 0 1 -.606-.783l.444-.453-2.142 1.236a.5.5 0 0 1 -.6-.793l1.852-1.784-4.461 2.577a.5.5 0 0 1 -.578-.81l3.46-3-6.6 3.81a.5.5 0 0 1 -.537-.841l1.556-1.094-3.354 1.935a.5.5 0 0 1 -.249.071z"/><path d="m2.83 45.473a.5.5 0 0 1 -.274-.918l2.508-1.647-3.714 2.145a.5.5 0 0 1 -.515-.853l24.237-15.12-22.947 13.244a.5.5 0 0 1 -.513-.858l17.009-10.482-15.749 9.092a.5.5 0 0 1 -.515-.857l17.553-10.94-16.231 9.371a.5.5 0 0 1 -.518-.854l17.675-11.196-17.076 9.854a.5.5 0 0 1 -.516-.856l12.4-7.792-12.384 7.149a.5.5 0 0 1 -.513-.858l3.403-2.097-3.25 1.876a.5.5 0 0 1 -.6-.787l2.745-2.727-2.779 1.605a.5.5 0 0 1 -.671-.7l1.144-1.782-1.092.63a.5.5 0 0 1 -.722-.595l.163-.475a.5.5 0 0 1 -.264-.933l.891-.514a.5.5 0 0 1 .722.6l-.132.387 1.718-.992a.5.5 0 0 1 .671.7l-1.144 1.778 4.33-2.5a.5.5 0 0 1 .6.788l-2.745 2.726 30.292-17.485a.5.5 0 0 1 .513.859l-3.4 2.1 5.115-2.959a.5.5 0 0 1 .516.856l-12.395 7.79 14.976-8.646a.5.5 0 0 1 .517.856l-17.669 11.194 20.874-12.05a.5.5 0 0 1 .515.858l-17.554 10.936 20.248-11.694a.5.5 0 0 1 .513.859l-17.019 10.492 18.147-10.477a.5.5 0 0 1 .514.857l-30.227 18.856a.51.51 0 0 1 .185.176.5.5 0 0 1 -.152.681l-2.509 1.646 1.985-1.145a.5.5 0 0 1 .541.839l-5.449 3.894 4.908-2.834a.5.5 0 0 1 .561.823l-4.806 3.833 4.245-2.45a.5.5 0 0 1 .588.8l-2.959 2.72 2.371-1.37a.5.5 0 0 1 .634.753l-1.233 1.48.12-.069a.5.5 0 1 1 .5.866l-2.548 1.47a.5.5 0 0 1 -.633-.753l1.231-1.479-3.868 2.232a.5.5 0 0 1 -.588-.8l2.958-2.72-6.1 3.521a.5.5 0 0 1 -.561-.823l4.807-3.835-8.068 4.662a.5.5 0 0 1 -.541-.84l5.452-3.895-8.2 4.735a.5.5 0 0 1 -.252.068z"/><path d="m9.03 26.313a.5.5 0 0 1 -.282-.913l7.752-5.287-7.22 4.167a.5.5 0 0 1 -.522-.852l.585-.38-.064.037a.5.5 0 0 1 -.535-.843l4.111-2.863-3.576 2.065a.5.5 0 0 1 -.556-.828l4.51-3.5-3.954 2.284a.5.5 0 0 1 -.585-.8l3.056-2.752-2.471 1.417a.5.5 0 0 1 -.661-.718l1.312-1.89a.5.5 0 1 1 -.5-.866l1.933-1.117a.5.5 0 0 1 .661.719l-1.31 1.89 4.651-2.683a.5.5 0 0 1 .585.8l-3.05 2.753 6.16-3.556a.5.5 0 0 1 .556.828l-4.511 3.5 7.495-4.325a.5.5 0 0 1 .535.843l-4.115 2.865 6.426-3.708a.5.5 0 0 1 .523.852l-.577.375 2.125-1.227a.5.5 0 0 1 .532.846l-7.749 5.283 10.622-6.129a.5.5 0 0 1 .5.866l-22.142 12.781a.5.5 0 0 1 -.25.066z"/></g><path d="m2.2 45.474a.5.5 0 0 1 -.31-.892l2.835-2.248-3.225 1.866a.5.5 0 0 1 -.569-.817l3.388-2.807-2 1.153a.5.5 0 0 1 -.572-.816l2.557-2.15-1.234.712a.5.5 0 0 1 -.587-.8l2.723-2.479-1.29.745a.5.5 0 0 1 -.6-.795l2.274-2.162-1.944 1.122a.5.5 0 0 1 -.592-.8l2.421-2.274-2.393 1.385a.5.5 0 0 1 -.561-.824l.817-.648-.627.362a.5.5 0 0 1 -.6-.787l2.175-2.167-2.147 1.238a.5.5 0 0 1 -.592-.8l.205-.192a.5.5 0 0 1 -.493-.051.5.5 0 0 1 -.2-.5l.2-1.041a.5.5 0 0 1 -.441-.895l.893-.516a.5.5 0 0 1 .74.53l-.2 1.035 2.733-1.578a.5.5 0 0 1 .592.8l-.2.183 1.715-.99a.5.5 0 0 1 .6.787l-2.166 2.165 3.2-1.845a.5.5 0 0 1 .56.825l-.816.648.256-.148a.5.5 0 0 1 .592.8l-2.426 2.271 1.83-1.057a.5.5 0 0 1 .594.8l-2.264 2.152 1.67-.964a.5.5 0 0 1 .587.8l-2.725 2.48 2.138-1.23a.5.5 0 0 1 .572.815l-2.557 2.149 2.223-1.282a.5.5 0 0 1 .569.818l-3.387 2.805 3.99-2.3a.5.5 0 0 1 .56.824l-2.836 2.245 4.393-2.534a.5.5 0 0 1 .568.818l-2.569 2.119 5.09-2.938a.5.5 0 0 1 .553.831l-1.517 1.15 3.143-1.814a.5.5 0 0 1 .549.833l-1 .746 1.644-.949a.5.5 0 0 1 .549.834l-.038.028.125-.071a.5.5 0 0 1 .578.809l-1.085.943.856-.494a.5.5 0 0 1 .631.756l-.925 1.099a.5.5 0 0 1 .155.923l-1.914 1.1a.5.5 0 0 1 -.631-.756l.69-.813-2.858 1.646a.5.5 0 0 1 -.578-.809l1.087-.946-3.04 1.755a.5.5 0 0 1 -.549-.834l.038-.027-1.5.862a.5.5 0 0 1 -.55-.833l1-.747-2.734 1.579a.5.5 0 0 1 -.553-.831l1.516-1.151-3.436 1.987a.5.5 0 0 1 -.568-.818l2.569-2.119-5.09 2.938a.493.493 0 0 1 -.254.068z" fill="#f76c82"/><path d="m19.869 41.7a.5.5 0 0 1 -.5-.529l.047-.813a.5.5 0 0 1 -.705-.605l.348-1.006-1.3.753a.5.5 0 0 1 -.666-.709l1.283-1.931-4.4 2.539a.5.5 0 0 1 -.572-.815l1.854-1.554-3.82 2.2a.5.5 0 0 1 -.544-.837l.255-.185-.793.457a.5.5 0 0 1 -.591-.8l2.407-2.254-2.737 1.589a.5.5 0 0 1 -.667-.709l1.251-1.891-.091.052a.5.5 0 1 1 -.5-.865l1.933-1.116a.5.5 0 0 1 .667.709l-1.251 1.886 4.655-2.687a.5.5 0 0 1 .591.8l-2.407 2.254 5.312-3.066a.5.5 0 0 1 .544.837l-.256.187.5-.291a.5.5 0 0 1 .571.815l-1.852 1.553 1.281-.739a.5.5 0 0 1 .666.709l-1.282 1.934.617-.356a.5.5 0 0 1 .722.6l-.4 1.16a.5.5 0 0 1 .428.524l-.08 1.378a.149.149 0 0 1 .014.024.5.5 0 0 1 -.185.682l-.1.058a.5.5 0 0 1 -.247.058z" fill="#d94452"/><path d="m42.586 39.554a.5.5 0 0 1 -.25-.933l7.912-4.568a.5.5 0 0 1 .628.76l-1.939 2.235 1.681-.97a.5.5 0 1 1 .5.865l-4.261 2.457a.5.5 0 0 1 -.628-.76l1.939-2.234-5.332 3.078a.5.5 0 0 1 -.25.07z" fill="#d94452"/><path d="m40.03 41.077a.5.5 0 0 1 -.308-.893l3.715-2.92-3.157 1.822a.5.5 0 0 1 -.584-.8l2.7-2.431-2.12 1.223a.5.5 0 0 1 -.653-.137.5.5 0 0 1 .066-.665l.562-.512a.5.5 0 0 1 -.713-.555l.311-1.418a.5.5 0 0 1 -.073-.9l.5-.288a.5.5 0 0 1 .739.541l-.258 1.175 2.975-1.719a.5.5 0 0 1 .587.8l-.558.511 2.273-1.311a.5.5 0 0 1 .584.8l-2.705 2.433 5.087-2.933a.5.5 0 0 1 .559.826l-8.5 6.676a.5.5 0 0 1 -.228.29l-.558.322a.489.489 0 0 1 -.243.063z" fill="#d94452"/><path d="m47.481 45.471a.5.5 0 0 1 -.289-.908l.727-.515-2.35 1.352a.5.5 0 0 1 -.669-.159.5.5 0 0 1 .123-.677l3.79-2.784-6.085 3.52a.5.5 0 0 1 -.542-.839l5.9-4.231-7.074 4.084a.5.5 0 0 1 -.618-.771l2.247-2.452-2.32 1.339a.5.5 0 0 1 -.616-.774l.791-.85a.5.5 0 0 1 -.1-.91l2.104-1.222a.5.5 0 0 1 .616.773l-.418.45 2.252-1.3a.5.5 0 0 1 .618.77l-2.247 2.453 13.012-7.511a.5.5 0 0 1 .542.838l-5.9 4.231 5.2-3a.5.5 0 0 1 .546.836l-3.786 2.786 3.735-2.156a.5.5 0 0 1 .539.841l-.723.512.534-.307a.5.5 0 0 1 .572.814l-2.4 2.023 2.324-1.341a.5.5 0 0 1 .643.74l-1.659 2.124 1.657-.956a.5.5 0 0 1 .6.076.5.5 0 0 1 .087.6l-.369.664.108-.063a.5.5 0 1 1 .5.866l-1.673.963a.5.5 0 0 1 -.687-.675l.37-.664-2.323 1.339a.5.5 0 0 1 -.644-.74l1.662-2.126-4.966 2.866a.5.5 0 0 1 -.572-.814l2.4-2.024-4.919 2.838a.493.493 0 0 1 -.25.071z" fill="#f76c82"/><path d="m50.361 38.317a.5.5 0 0 1 -.319-.884l2.633-2.184-1.395.8a.5.5 0 0 1 -.576-.812l3.362-2.9-2.786 1.614a.5.5 0 0 1 -.562-.823l2.7-2.163-2.138 1.235a.5.5 0 0 1 -.616-.772l2.141-2.309-1.525.881a.5.5 0 0 1 -.74-.53l.33-1.677a.491.491 0 0 1 -.272-.223.5.5 0 0 1 .182-.683l.5-.289a.5.5 0 0 1 .741.529l-.288 1.457 3.443-1.984a.5.5 0 0 1 .616.773l-2.141 2.309 4.978-2.882a.5.5 0 0 1 .562.823l-2.705 2.166 1.673-.966a.5.5 0 0 1 .576.812l-3.361 2.9 1.918-1.107a.5.5 0 0 1 .569.817l-2.634 2.186 1.318-.761a.5.5 0 1 1 .5.865l-6.434 3.715a.491.491 0 0 1 -.25.067z" fill="#f76c82"/><g id="icons-2" fill="#262626" data-name="icons"><path d="m.866 45.279c.641.466 2.77.047 3.49.047h8.205c3.1 0 7.559.588 8.106-3.4a.187.187 0 0 0 .057-.119v-8.507h18.548v8.774a.342.342 0 0 0 .069.211c.73 4.886 9.036 3.232 12.463 3.232 1.75 0 4.945.617 6.629 0 1.574-.578 1.258-1.226.836-2.661-.6-2.038-2.351-4.883-2.307-7.013.048-2.346 1.914-5 2.43-7.292.293-1.3.462-1.617-.921-2.076-1.83-.607-4.625-.12-6.747-.021v-10.648c-1-4.972-9.849-3.111-13.491-3.111h-23.1c-3.567 0-6.6.088-6.858 4.471-.189 3.148-.189 6.327-.142 9.508h-6.328a1.275 1.275 0 0 0 -.441.115 1.144 1.144 0 0 0 -.29.081c-2.312 1.184 1.808 7.1 1.931 9.093.133 2.157-4.061 7.92-2.139 9.316zm18.41-6.03c-2.9-1.6-9.093 1.428-9.548-3.419.735-3.475 4.34-2.526 7.059-2.526h2.489zm23-5.945c2.814 0 7.193-.877 7.984 2.841-.444 4.159-6.632 1.4-9.534 3.22v-6.065zm14.524-5.783c1 0 1.182-.154 1.386.34.164.395-.69 2.07-.823 2.47-.546 1.637-1.652 3.671-1.8 5.4a8.877 8.877 0 0 0 .871 3.376c.34 1.018 2.095 4.272 1.789 5.338-.025.015-.038.019-.068.038-.17.113-.693 0-.891 0-.945.008-1.89 0-2.835 0-2.98 0-13.1 1.718-13.678-2.737.7-5.08 10.393.678 10.973-5.82 0-.033-.014-.054-.018-.082 0-.012.014-.023.014-.034v-8.289zm-45.123-14.221c1.242-.438 3.458 0 4.755 0h19.473c3.384 0 13.427-1.8 14.371 2.89v17.192c-1.453-.982-3.667-.682-5.676-.682h-3.963a.983.983 0 0 0 -1.062 0h-11.6c-4.681 0-9.381-.123-14.061 0a7.43 7.43 0 0 0 -4.19.928v-13.5c0-2.217-.699-5.887 1.953-6.828zm-9.589 29.892c.559-2.378 2.484-5.134 2.378-7.581-.045-1.043-2.938-7.076-2.657-8.285h6.336c.05 2.964.131 5.928.131 8.868.565 6.329 10.267-.078 10.977 5.846a3.877 3.877 0 0 1 -2.653 2.634 10.016 10.016 0 0 1 -2.155 0h-6.012a38.855 38.855 0 0 1 -5.33 0c-1.391-.2-1.374.043-1.015-1.482z"/><path d="m17.532 17.3h11c.315 0 1.641-.6.936-.6h-11c-.315 0-1.641.6-.936.6z"/><path d="m12.931 17.513h1c.305 0 .764-.236.8-.573.042-.375-.39-.453-.664-.453h-1c-.305 0-.764.236-.8.573-.042.375.39.453.664.453z"/></g></svg>