<svg id="Icons" height="512" viewBox="0 0 60 60" width="512" xmlns="http://www.w3.org/2000/svg"><g fill="#fccb55"><path d="m30.709 9.356a.5.5 0 0 1 -.395-.807l1.638-2.1-3.91 2.258a.5.5 0 0 1 -.569-.817l1.287-1.067-1.693.977a.5.5 0 0 1 -.553-.83l.129-.1-.051.029a.5.5 0 0 1 -.586-.8l2.007-1.824-1.7.984a.5.5 0 0 1 -.626-.762l1.33-1.518a.474.474 0 0 1 -.473-.249.5.5 0 0 1 .183-.682l2.306-1.335a.5.5 0 0 1 .626.762l-1.231 1.4 3.119-1.8a.5.5 0 0 1 .586.8l-2.007 1.831 2.734-1.578a.5.5 0 0 1 .554.83l-.127.1.075-.043a.5.5 0 0 1 .57.817l-1.285 1.068 1.031-.6a.5.5 0 0 1 .644.74l-1.636 2.1.1-.059a.5.5 0 1 1 .5.865l-2.327 1.343a.489.489 0 0 1 -.25.067z"/><path d="m55.274 37.324a.5.5 0 0 1 -.391-.189.5.5 0 0 1 .026-.653l1.21-1.293-2.069 1.2a.5.5 0 0 1 -.593-.8l1.186-1.119-1.214.7a.5.5 0 0 1 -.665-.712l1.236-1.841-.07.04a.5.5 0 1 1 -.5-.865l1.937-1.118a.5.5 0 0 1 .665.712l-1.232 1.84 3.052-1.762a.5.5 0 0 1 .592.8l-1.184 1.118 1.277-.737a.5.5 0 0 1 .615.774l-1.211 1.3.626-.361a.5.5 0 1 1 .5.865l-3.539 2.043a.489.489 0 0 1 -.254.058z"/><path d="m40.815 59.217a.5.5 0 0 1 -.345-.862l.934-.893-1.423.821a.5.5 0 0 1 -.617-.772l1.687-1.821-1.722.994a.5.5 0 0 1 -.639-.747l.979-1.212a.5.5 0 0 1 -.239-.933l1.937-1.118a.5.5 0 0 1 .63.107.5.5 0 0 1 .009.64l-.851 1.055 2.258-1.3a.5.5 0 0 1 .617.772l-1.686 1.822 2.164-1.249a.5.5 0 0 1 .6.794l-.935.892.478-.275a.5.5 0 1 1 .5.865l-4.082 2.356a.49.49 0 0 1 -.254.064z"/></g><path d="m29.754 23.433a.5.5 0 0 1 -.331-.875l1.283-1.131-1.787 1.031a.5.5 0 0 1 -.56-.825l.543-.428-.784.452a.5.5 0 0 1 -.653-.136.5.5 0 0 1 .065-.665l2.227-2.041-2.841 1.64a.5.5 0 0 1 -.567-.819l1.177-.967-1.519.877a.5.5 0 0 1 -.574-.814l1.605-1.366-1.729 1a.5.5 0 0 1 -.592-.8l3.529-3.31-.017-.027a.5.5 0 0 1 .184-.683l1.587-.912a.5.5 0 0 1 .592.8l-2.026 1.9 2.732-1.576a.5.5 0 0 1 .574.813l-1.606 1.368 2.034-1.179a.5.5 0 0 1 .567.819l-1.178.967 1.52-.877a.5.5 0 0 1 .588.8l-2.225 2.039 2.838-1.638a.5.5 0 0 1 .56.825l-.544.429.119-.068a.5.5 0 0 1 .581.807l-3.335 2.937a.5.5 0 0 1 -.2.647l-1.591.918a.493.493 0 0 1 -.246.068z" fill="#2783ec"/><path d="m41.047 37.471a.5.5 0 0 1 -.306-.9l.293-.225-1.814 1.054a.5.5 0 0 1 -.559-.826l1.707-1.341-2.776 1.6a.5.5 0 0 1 -.569-.817l1.907-1.578-2.3 1.327a.5.5 0 0 1 -.579-.809l1.073-.939-.833.48a.5.5 0 0 1 -.627-.761l.894-1.026a.492.492 0 0 1 -.311-.234.5.5 0 0 1 .183-.683l1.934-1.116a.5.5 0 0 1 .627.761l-.6.695 2.66-1.535a.5.5 0 0 1 .579.808l-1.073.94 3.023-1.746a.5.5 0 0 1 .568.817l-1.907 1.579 3.7-2.137a.5.5 0 0 1 .559.827l-1.7 1.336 2.232-1.289a.5.5 0 0 1 .556.829l-.29.223.239-.138a.5.5 0 0 1 .654.728l-1.445 1.979.521-.3a.5.5 0 0 1 .5.865l-2.567 1.481a.5.5 0 0 1 -.654-.727l1.439-1.973-4.685 2.7a.493.493 0 0 1 -.253.071z" fill="#9e82ec"/><path d="m16.261 37.471a.5.5 0 0 1 -.31-.893l1.175-.926-2.734 1.578a.5.5 0 0 1 -.554-.83l1.245-.951-1.908 1.1a.5.5 0 0 1 -.553-.831l.4-.307-.456.263a.5.5 0 0 1 -.593-.8l1.366-1.292-1.01.582a.5.5 0 0 1 -.61-.779l.706-.734a.489.489 0 0 1 -.182-.182.5.5 0 0 1 .183-.683l1.934-1.116a.5.5 0 0 1 .611.779l-.078.08 1.625-.937a.5.5 0 0 1 .594.8l-1.364 1.291 3.62-2.083a.5.5 0 0 1 .553.831l-.406.308 1.785-1.032a.5.5 0 0 1 .554.83l-1.243.948 2.023-1.167a.5.5 0 0 1 .559.826l-1.176.927 1.381-.8a.5.5 0 0 1 .607.783l-1.627 1.666 1.256-.725a.5.5 0 0 1 .5.865l-4.404 2.54a.5.5 0 0 1 -.607-.782l1.624-1.662-4.236 2.444a.493.493 0 0 1 -.25.071z" fill="#9e82ec"/><path d="m6.093 51.471a.5.5 0 0 1 -.338-.868l1.237-1.137-3.192 1.846a.5.5 0 0 1 -.591-.8l2.64-2.462-3.869 2.232a.5.5 0 0 1 -.606-.783l2.163-2.2-2.228 1.283a.5.5 0 0 1 -.633-.754l.931-1.108a.5.5 0 0 1 -.177-.928l1.934-1.116a.5.5 0 0 1 .636.754l-.73.87 2.943-1.7a.5.5 0 0 1 .606.783l-2.163 2.2 4.49-2.591a.5.5 0 0 1 .59.8l-2.636 2.459 3.334-1.925a.5.5 0 0 1 .588.8l-1.24 1.137.9-.521a.5.5 0 0 1 .641.122.5.5 0 0 1 -.026.653l-.762.813a.492.492 0 0 1 .212.2.5.5 0 0 1 -.183.683l-1.922 1.11a.5.5 0 0 1 -.616-.774l.241-.256-1.924 1.107a.49.49 0 0 1 -.25.071z" fill="#2783ec"/><path d="m29.23 51.471a.5.5 0 0 1 -.349-.858l2.166-2.121-4.27 2.464a.5.5 0 0 1 -.555-.828l.868-.672-1.2.692a.5.5 0 0 1 -.573-.814l1.267-1.071-1.2.692a.5.5 0 0 1 -.655-.726l1.113-1.529a.5.5 0 0 1 -.412-.905l1.934-1.116a.5.5 0 0 1 .655.726l-1.1 1.512 4.017-2.317a.5.5 0 0 1 .572.814l-1.266 1.07 2.758-1.592a.5.5 0 0 1 .556.828l-.87.674 1.291-.746a.5.5 0 0 1 .6.79l-2.171 2.122 2.253-1.3a.5.5 0 0 1 .641.74l-1 1.278a.5.5 0 0 1 .27.933l-1.925 1.112a.5.5 0 0 1 -.645-.742l.911-1.157-3.431 1.976a.49.49 0 0 1 -.25.071z" fill="#2783ec"/><path d="m53.1 51.471a.5.5 0 0 1 -.322-.883l.988-.828-2.5 1.444a.5.5 0 0 1 -.574-.813l2.157-1.838-2.9 1.674a.5.5 0 0 1 -.6-.789l2.044-2.008-2.07 1.194a.5.5 0 0 1 -.635-.751l.951-1.15a.5.5 0 0 1 -.386-.248.5.5 0 0 1 .183-.683l1.934-1.116a.5.5 0 0 1 .636.751l-.78.944 3.068-1.771a.5.5 0 0 1 .6.789l-2.044 2.011 4.234-2.445a.5.5 0 0 1 .574.814l-2.158 1.831 2.727-1.575a.5.5 0 0 1 .571.816l-.987.827.832-.48a.5.5 0 0 1 .646.737l-1.038 1.355a.5.5 0 0 1 .314.929l-1.925 1.112a.5.5 0 0 1 -.64-.734l.978-1.276-3.631 2.089a.493.493 0 0 1 -.247.071z" fill="#2783ec"/><path d="m57.413 30.661a3.989 3.989 0 0 0 -4.3 1.154 3.46 3.46 0 0 0 -.764 1.619h-3.658a3.431 3.431 0 0 0 -1.362-2.278 4.488 4.488 0 0 0 -2.8-.694h-1.797a4.588 4.588 0 0 0 -.441-2.911 2.693 2.693 0 0 0 -2.291-.91c-1.833-.027-3.669 0-5.5 0-1.257 0-2.514-.008-3.772-.014v-3.509c.024-.01.048-.019.071-.03a3.919 3.919 0 0 0 1-.84l1.4-1.4 2.189-2.189a.243.243 0 0 0 .062-.095c.738-.972-.308-1.765-.963-2.42l-2.587-2.584a6.738 6.738 0 0 0 -.644-.632 1.4 1.4 0 0 0 -.53-.239v-3.215c.042-.007.084-.007.126-.015a4.753 4.753 0 0 0 3.883-4.507 4.518 4.518 0 0 0 -2.987-4.231 5 5 0 0 0 -5.4 1.447 4.5 4.5 0 0 0 -.448 5.207 4.539 4.539 0 0 0 3.373 2.125v3.388a2.378 2.378 0 0 0 -.617.413c-.631.6-1.237 1.237-1.854 1.854-.715.715-1.472 1.406-2.153 2.153a1.166 1.166 0 0 0 -.046 1.64c.186.207.4.4.593.593l2.648 2.647c.254.255.5.524.766.767a1.505 1.505 0 0 0 .666.344v3.325c-2.884-.014-5.769-.023-8.651.02a3.693 3.693 0 0 0 -2.657.914 3.773 3.773 0 0 0 -.708 2.979c-2.049-.016-4.337-.137-5.533 1.905a3.322 3.322 0 0 0 .483 3.982 3.847 3.847 0 0 0 2.835 1.043h2.223v3.023h-6.168c-.972 0-1.956-.044-2.928 0a3.09 3.09 0 0 0 -2.39 1.13 4.287 4.287 0 0 0 -.53 2.83c-.385 0-.771-.006-1.156 0a3.982 3.982 0 0 0 -3.083 1.489 3.5 3.5 0 0 0 2.468 5.6c.746.069 1.516.018 2.263.018h2.2a3.905 3.905 0 0 0 3.723-3.057h12.665a3.455 3.455 0 0 0 3.137 2.989c.745.067 1.517.013 2.263.013h2.2a3.892 3.892 0 0 0 3.762-3.229h5.586v4.465a4.162 4.162 0 0 0 -2.227 1.311 3.238 3.238 0 0 0 -.26 3.831 3.89 3.89 0 0 0 6.935-2.074 3.237 3.237 0 0 0 -2.295-3.021 3.922 3.922 0 0 0 -.705-.137v-4.375h5.555a3.1 3.1 0 0 0 .208 1.028 3.476 3.476 0 0 0 2.837 2.131 17.726 17.726 0 0 0 2.211.027h2.2a1.825 1.825 0 0 0 .36-.043 4.048 4.048 0 0 0 3.078-1.7 3.313 3.313 0 0 0 .153-3.421 3.526 3.526 0 0 0 -3.055-1.76c-.508-.01-1.017 0-1.526 0a5.89 5.89 0 0 0 -.24-2.653 2.634 2.634 0 0 0 -2.455-1.4c-.692-.019-1.386 0-2.077 0h-7.252v-2.944h2.213a3.9 3.9 0 0 0 3.6-2.5 3.361 3.361 0 0 0 .12-.469h3.656a3.435 3.435 0 0 0 .445 1.3 3.813 3.813 0 0 0 6.974-1.911 3.51 3.51 0 0 0 -2.32-3.297zm-29.892-23.509a3.613 3.613 0 0 1 -.313-4.014 3.112 3.112 0 0 1 3.314-1.515 3.555 3.555 0 0 1 2.742 3.425 3.4 3.4 0 0 1 -2.114 3.217 3.282 3.282 0 0 1 -3.629-1.113zm-.293 12.531-.978-.983a1.342 1.342 0 0 1 -.518-.777c-.042-.4.218-.629.47-.881l.952-.952 2.334-2.334c.066-.066.238-.195.363-.317.057.038.121.077.149.1.01.009.019.02.029.029.079.072.153.153.228.229l2.515 2.514q.524.523 1.048 1.048c.372.372.661.843.235 1.33l-3.75 3.751c-.029.029-.083.07-.134.114a1.621 1.621 0 0 1 -.171-.099c-.161-.139-.3-.3-.455-.455zm17.048 36.511a2.764 2.764 0 0 1 -.5 1.538 2.481 2.481 0 0 1 -.495.523 1.86 1.86 0 0 1 -.505.282c.091-.031-.159.043-.135.037l-.052.014s0 0-.031 0a1.532 1.532 0 0 1 -.314.022 2.144 2.144 0 0 1 -.7-.134 2.789 2.789 0 0 1 -1.27-.957 2.824 2.824 0 0 1 -.178-3.056 2.466 2.466 0 0 1 1-.949 1.339 1.339 0 0 1 .46-.123 2.212 2.212 0 0 1 .731.072 2.825 2.825 0 0 1 1.989 2.731zm-29-19.658a2.61 2.61 0 0 1 -2.486-2.087 2.448 2.448 0 0 1 1.676-2.956 9.134 9.134 0 0 1 1.48-.029c1.568 0 3.14-.026 4.708 0a2.613 2.613 0 0 1 2.548 2.087 2.377 2.377 0 0 1 -2.1 2.985h-2.713a.785.785 0 0 0 -.316-.033 1.3 1.3 0 0 0 -.153.033h-.92c-.572 0-1.147.013-1.72 0zm-7.218 13.911h-3.532a2.753 2.753 0 0 1 -1.7-.426 2.612 2.612 0 0 1 -1.062-2.477 2.273 2.273 0 0 1 1.772-1.963 9.2 9.2 0 0 1 1.5-.028h2.225a3.6 3.6 0 0 1 1.493.188c2.22.959 1.879 4.648-.696 4.706zm4.749-2.947h-1.107a3.392 3.392 0 0 0 -.451-1.34 3.674 3.674 0 0 0 -3.195-1.713c-.447-.006-.894 0-1.341 0a3.766 3.766 0 0 1 .387-2.519 1.285 1.285 0 0 1 1.134-.415c.879-.053 1.778 0 2.659 0h18.372v2.98c-1.577 0-3.164.1-4.241 1.481a3.386 3.386 0 0 0 -.672 1.526zm21.434.97a2.246 2.246 0 0 1 -2.169 2.03h-3.533a2.577 2.577 0 0 1 -1.707-.45 2.676 2.676 0 0 1 -1.073-2.518 2.29 2.29 0 0 1 1.762-2 9.426 9.426 0 0 1 1.5-.027h.6a.738.738 0 0 0 .32.046 1.2 1.2 0 0 0 .212-.046h1.095a3.072 3.072 0 0 1 1.5.2 2.668 2.668 0 0 1 1.493 2.765zm22.373-2.849a2.723 2.723 0 0 1 1.645 2.728 2.278 2.278 0 0 1 -1.99 2.191h-3.533a3.086 3.086 0 0 1 -1.791-.4 2.727 2.727 0 0 1 -1.2-2.493 2.348 2.348 0 0 1 1.7-2.157 7.439 7.439 0 0 1 1.384-.035h.731a1.022 1.022 0 0 0 .665 0h.827a4.123 4.123 0 0 1 1.562.166zm-5.2-4.108a2.845 2.845 0 0 1 .659.033c1.329.311 1.256 1.821 1.211 2.986-1.534-.006-3.083.1-4.167 1.376a3.524 3.524 0 0 0 -.808 1.819h-5.628a.548.548 0 0 0 -.233-.1 1.276 1.276 0 0 0 -.539.038 1.712 1.712 0 0 0 -.2.065h-6a3.3 3.3 0 0 0 -.46-1.553 3.624 3.624 0 0 0 -3.179-1.677c-.445 0-.89 0-1.335 0v-2.987h20.676zm-10.139-1.026h-10.923a.736.736 0 0 0 -.292-.035 1.261 1.261 0 0 0 -.16.035h-11.168v-3.023h2c.039 0 .085-.006.127-.009.022 0 .035.006.058.006a3.939 3.939 0 0 0 3.6-2.44 3.314 3.314 0 0 0 -1.177-3.821 4.338 4.338 0 0 0 -2.681-.661h-1.942c-.035-1.007-.207-2.363.661-2.954a1.562 1.562 0 0 1 1.121-.223h18.251a2.8 2.8 0 0 1 1.754.295c.855.624.835 1.78.793 2.808-.732 0-1.465-.014-2.2 0a3.964 3.964 0 0 0 -3.422 2 3.414 3.414 0 0 0 .591 4.027 4 4 0 0 0 2.981 1.045h2.025zm3.787-4.025h-4.262c-.567 0-1.14.023-1.707 0a2.553 2.553 0 0 1 -2.325-2.17 2.373 2.373 0 0 1 1.728-2.718 8.719 8.719 0 0 1 1.567-.036c1.589 0 3.184-.04 4.773 0a2.539 2.539 0 0 1 2.374 2.013 2.339 2.339 0 0 1 -2.148 2.911zm12.774-.962a2.216 2.216 0 0 1 -.465.5 1.994 1.994 0 0 1 -1.846.359 2.448 2.448 0 0 1 -1.219-.825 2.6 2.6 0 0 1 -.226-2.9 2.183 2.183 0 0 1 .991-.9c.036-.017.073-.033.11-.048.018 0 .152-.048.15-.047.052-.015.1-.027.156-.039l.057-.014a.112.112 0 0 0 .027 0 2.071 2.071 0 0 1 .76.025 2.551 2.551 0 0 1 1.5 3.89z" fill="#262626"/></svg>