<svg id="Icons" height="512" viewBox="0 0 60 60" width="512" xmlns="http://www.w3.org/2000/svg"><path d="m4.535 11.471a.5.5 0 0 1 -.313-.889l1.406-1.134-3.382 1.952a.5.5 0 0 1 -.557-.828l3.154-2.443-3.563 2.058a.5.5 0 0 1 -.542-.839l1.838-1.323-1.3.748a.5.5 0 0 1 -.547-.835l2.433-1.8-1.883 1.092a.5.5 0 0 1 -.559-.825l1.9-1.5-1.339.773a.5.5 0 0 1 -.64-.744l1.711-2.152-1.073.618a.5.5 0 0 1 -.674-.7l.344-.55a.5.5 0 0 1 -.085-.9l1.128-.65a.5.5 0 0 1 .674.7l-.147.236 1.618-.936a.5.5 0 0 1 .64.744l-1.714 2.149 5.019-2.893a.5.5 0 0 1 .56.826l-1.9 1.5 3.608-2.087a.5.5 0 0 1 .546.835l-2.431 1.8 2.255-1.3a.5.5 0 0 1 .542.839l-1.838 1.317 1.3-.749a.5.5 0 0 1 .556.828l-3.158 2.445 2.6-1.5a.5.5 0 0 1 .563.822l-1.405 1.131.841-.485a.5.5 0 0 1 .636.75l-1.3 1.594.669-.387a.5.5 0 0 1 .5.866l-3.05 1.755a.5.5 0 0 1 -.637-.75l1.307-1.59-4.061 2.34a.5.5 0 0 1 -.25.071z" fill="#347584"/><path d="m27.739 11.471a.5.5 0 0 1 -.3-.9l.95-.722-2.518 1.451a.5.5 0 0 1 -.565-.822l4.464-3.623-4.49 2.593a.5.5 0 0 1 -.562-.823l4.474-3.583-3.913 2.258a.5.5 0 0 1 -.56-.825l2-1.583-1.442.832a.5.5 0 0 1 -.637-.748l1.76-2.158-1.116.644a.5.5 0 0 1 -.684-.692l.37-.61a.5.5 0 0 1 -.108-.912l1.13-.648a.5.5 0 0 1 .678.692l-.2.331 1.771-1.023a.5.5 0 0 1 .638.748l-1.754 2.16 5.038-2.908a.5.5 0 0 1 .561.825l-2.001 1.575 3.677-2.117a.5.5 0 0 1 .562.824l-4.478 3.581 4.236-2.446a.5.5 0 0 1 .565.822l-4.466 3.627 3.9-2.252a.5.5 0 0 1 .552.831l-.948.721.4-.229a.5.5 0 0 1 .613.777l-1.596 1.688.981-.567a.5.5 0 0 1 .691.668l-.475.9a.5.5 0 0 1 .2.931l-1.123.648a.5.5 0 0 1 -.692-.667l.39-.74-2.435 1.4a.5.5 0 0 1 -.613-.776l1.595-1.688-4.27 2.464a.5.5 0 0 1 -.25.071z" fill="#347584"/><path d="m50.6 11.471a.5.5 0 0 1 -.322-.883l3.979-3.333-4.972 2.87a.5.5 0 0 1 -.562-.823l4.743-3.8-4.187 2.415a.5.5 0 0 1 -.562-.823l2.918-2.335-2.356 1.36a.5.5 0 0 1 -.584-.8l1.628-1.469-1.044.6a.5.5 0 0 1 -.713-.621l.676-1.668a.5.5 0 0 1 -.378-.916l1.128-.645a.5.5 0 0 1 .713.621l-.665 1.638 3.918-2.259a.5.5 0 0 1 .584.805l-1.629 1.461 3.932-2.266a.5.5 0 0 1 .562.823l-2.917 2.331 4.17-2.407a.5.5 0 0 1 .563.823l-4.743 3.8 4.241-2.45a.5.5 0 0 1 .571.816l-3.979 3.333 3.408-1.969a.5.5 0 0 1 .562.823l-.892.715.33-.191a.5.5 0 0 1 .592.8l-.574.539a.5.5 0 0 1 .667.69l-.427.755a.493.493 0 0 1 .338.241.5.5 0 0 1 -.182.683l-1.123.648a.5.5 0 0 1 -.686-.679l.309-.546-2.122 1.222a.5.5 0 0 1 -.593-.8l.571-.537-2.311 1.337a.5.5 0 0 1 -.563-.823l.9-.717-2.672 1.54a.491.491 0 0 1 -.245.071z" fill="#347584"/><path d="m3.176 35.471a.5.5 0 0 1 -.308-.895l2.093-1.629-3.505 2.023a.5.5 0 0 1 -.547-.835l2.673-1.977-2.3 1.328a.5.5 0 0 1 -.559-.825l4.25-3.348-3.692 2.13a.5.5 0 0 1 -.556-.827l1.963-1.528-1.409.812a.5.5 0 0 1 -.646-.129.5.5 0 0 1 .044-.658l1.745-1.739-1.143.659a.5.5 0 0 1 -.7-.646l.569-1.207a.511.511 0 0 1 -.464-.249.5.5 0 0 1 .182-.683l1.126-.648a.5.5 0 0 1 .7.646l-.53 1.125 3.069-1.771a.5.5 0 0 1 .6.787l-1.745 1.74 4.381-2.527a.5.5 0 0 1 .556.828l-1.961 1.522 3.424-1.977a.5.5 0 0 1 .56.826l-4.246 3.348 3.924-2.265a.5.5 0 0 1 .547.835l-2.68 1.983 2.13-1.229a.5.5 0 0 1 .557.827l-2.092 1.63 1.535-.886a.5.5 0 0 1 .571.816l-1 .837.426-.245a.5.5 0 0 1 .633.755l-.769.913.136-.078a.5.5 0 0 1 .5.865l-2.6 1.5a.5.5 0 0 1 -.633-.755l.769-.913-2.889 1.663a.5.5 0 0 1 -.571-.815l1-.839-2.868 1.654a.493.493 0 0 1 -.25.071z" fill="#347584"/><path d="m27.693 35.471a.5.5 0 0 1 -.3-.9l.91-.69-2.452 1.419a.5.5 0 0 1 -.555-.829l3.339-2.571-3.355 1.94a.5.5 0 0 1 -.548-.834l2.9-2.147-2.351 1.357a.5.5 0 0 1 -.569-.818l3.588-2.973-3.02 1.743a.5.5 0 0 1 -.609-.781l2.068-2.132-1.459.842a.5.5 0 0 1 -.7-.642l.588-1.277a.489.489 0 0 1 -.481-.247.5.5 0 0 1 .182-.683l1.128-.651a.5.5 0 0 1 .7.642l-.554 1.206 3.2-1.849a.5.5 0 0 1 .609.781l-2.068 2.133 5.048-2.91a.5.5 0 0 1 .569.818l-3.588 2.972 4.807-2.775a.5.5 0 0 1 .548.835l-2.9 2.146 2.35-1.357a.5.5 0 0 1 .554.83l-3.34 2.565 2.787-1.609a.5.5 0 0 1 .551.832l-.912.691.361-.208a.5.5 0 0 1 .567.82l-.462.379a.5.5 0 0 1 .6.693l-.717 1.511a.5.5 0 0 1 .463.886l-1.35.778a.5.5 0 0 1 -.7-.647l.715-1.508-3.735 2.148a.5.5 0 0 1 -.568-.819l.4-.328-1.989 1.147a.493.493 0 0 1 -.25.071z" fill="#347584"/><path d="m50.332 35.471a.5.5 0 0 1 -.31-.893l3.183-2.508-3.925 2.266a.5.5 0 0 1 -.556-.827l4.2-3.268-3.646 2.1a.5.5 0 0 1 -.553-.83l2.867-2.194-2.314 1.336a.5.5 0 0 1 -.563-.823l1.4-1.127-.838.484a.5.5 0 0 1 -.586-.8l.637-.576-.051.029a.5.5 0 0 1 -.7-.66l.51-1a.5.5 0 0 1 -.23-.932l1.128-.651a.5.5 0 0 1 .7.66l-.445.873 2.66-1.53a.5.5 0 0 1 .586.8l-.638.578 2.391-1.378a.5.5 0 0 1 .564.823l-1.4 1.127 3.365-1.95a.5.5 0 0 1 .553.83l-2.865 2.192 3.264-1.884a.5.5 0 0 1 .556.827l-4.2 3.269 3.648-2.106a.5.5 0 0 1 .559.826l-3.183 2.51 2.623-1.514a.5.5 0 0 1 .6.795l-2.223 2.119 1.618-.934a.5.5 0 0 1 .6.794l-.347.333a.5.5 0 0 1 .25.933l-3.141 1.81a.5.5 0 0 1 -.6-.794l.148-.141-1.62.935a.5.5 0 0 1 -.6-.794l2.215-2.12-5.041 2.914a.493.493 0 0 1 -.25.071z" fill="#347584"/><path d="m4.685 59.471a.5.5 0 0 1 -.406-.207.5.5 0 0 1 .074-.666l2.634-2.347-5.227 3.018a.5.5 0 0 1 -.543-.838l1.494-1.078-1.431.825a.5.5 0 0 1 -.557-.826l4.329-3.387-3.773 2.177a.5.5 0 0 1 -.574-.814l3.656-3.106-3.082 1.778a.5.5 0 0 1 -.61-.779l1.918-2-1.308.754a.5.5 0 0 1 -.7-.649l.554-1.15a.554.554 0 0 1 -.452-.25.5.5 0 0 1 .183-.684l1.128-.65a.5.5 0 0 1 .7.65l-.508 1.058 2.958-1.7a.5.5 0 0 1 .61.779l-1.918 2 4.808-2.779a.5.5 0 0 1 .573.813l-3.656 3.104 5.154-2.975a.5.5 0 0 1 .558.826l-4.327 3.385 3.777-2.18a.5.5 0 0 1 .543.838l-1.5 1.081.954-.551a.5.5 0 0 1 .582.806l-2.63 2.345 2.051-1.184a.5.5 0 0 1 .585.8l-.514.462a.5.5 0 0 1 .575.771l-.378.493a.5.5 0 0 1 .232.933l-1.785 1.033a.5.5 0 0 1 -.647-.737l.256-.334-1.858 1.071a.5.5 0 0 1 -.584-.8l.493-.443-2.161 1.243a.493.493 0 0 1 -.25.071z" fill="#347584"/><path d="m28.89 59.471a.5.5 0 0 1 -.308-.895l.43-.335-2.012 1.159a.5.5 0 0 1 -.564-.821l3.289-2.664-4.431 2.558a.5.5 0 0 1 -.556-.829l4.045-3.126-3.5 2.022a.5.5 0 0 1 -.549-.834l2.51-1.87-1.961 1.132a.5.5 0 0 1 -.547-.835l.417-.308a.5.5 0 0 1 -.5-.81l1.794-2.1-1.164.672a.5.5 0 0 1 -.684-.681l.422-.739a.5.5 0 0 1 -.153-.924l1.128-.65a.5.5 0 0 1 .685.681l-.3.525 2.086-1.199a.5.5 0 0 1 .63.757l-1.794 2.1 4.948-2.857a.5.5 0 0 1 .547.835l-.277.2 1.62-.935a.5.5 0 0 1 .548.834l-2.506 1.866 2.537-1.465a.5.5 0 0 1 .555.829l-4.045 3.129 3.491-2.015a.5.5 0 0 1 .564.821l-3.285 2.665 2.726-1.573a.5.5 0 0 1 .557.827l-.475.371a.5.5 0 0 1 .562.779l-1.159 1.486.515-.3a.5.5 0 0 1 .5.865l-2.743 1.581a.5.5 0 0 1 -.644-.74l1.161-1.484-3.86 2.224a.493.493 0 0 1 -.25.071z" fill="#347584"/><path d="m50.54 59.471a.5.5 0 0 1 -.319-.885l3.879-3.213-4.816 2.78a.5.5 0 0 1 -.559-.825l4.5-3.554-3.946 2.276a.5.5 0 0 1 -.538-.841l.409-.289a.5.5 0 0 1 -.445-.866l2.171-1.848-1.6.921a.5.5 0 0 1 -.6-.785l.989-.993-.385.221a.5.5 0 0 1 -.683-.681l.414-.719a.5.5 0 0 1 -.146-.923l1.128-.65a.5.5 0 0 1 .684.682l-.284.494 2.037-1.173a.5.5 0 0 1 .6.785l-.991 1 3.084-1.78a.5.5 0 0 1 .574.813l-2.173 1.85 4.49-2.591a.5.5 0 0 1 .538.841l-.24.169.375-.216a.5.5 0 0 1 .56.825l-4.5 3.551 3.967-2.29a.5.5 0 0 1 .569.817l-3.876 3.213 3.307-1.908a.5.5 0 0 1 .6.794l-2.084 1.992 1.489-.859a.5.5 0 0 1 .614.774l-.488.522a.5.5 0 0 1 .374.917l-2.756 1.581a.5.5 0 0 1 -.614-.774l.445-.476-2.165 1.25a.5.5 0 0 1 -.6-.794l2.085-1.993-4.824 2.787a.493.493 0 0 1 -.25.071z" fill="#347584"/><g fill="#262626"><path d="m.269 8.252c0 .551-.005 1.1 0 1.655a1.489 1.489 0 0 0 1.472 1.593c1.14.062 2.3 0 3.44 0h.095v1.7c0 .1.21.155.271.166a1.3 1.3 0 0 0 .537-.046 1.267 1.267 0 0 0 .488-.229.345.345 0 0 0 .152-.279v-1.312h3.2a1.8 1.8 0 0 0 1.8-1.69c.008-.533 0-1.066 0-1.6v-1.9h.8a1.987 1.987 0 0 0 .531-.066 1.557 1.557 0 0 0 .493-.209c.066-.047.193-.129.166-.228s-.186-.115-.258-.115h-1.725v-2.507c0-.409.011-.82 0-1.229a1.517 1.517 0 0 0 -1.707-1.456h-3.9c-1.324 0-2.657-.027-3.982 0a1.819 1.819 0 0 0 -1.873 1.571c-.021.387 0 .782 0 1.169zm1.462-6.314c.035-.553.256-.438.734-.438h6.358a8.332 8.332 0 0 1 1.012 0s0 0 .006.005a.6.6 0 0 1 .285.2.734.734 0 0 1 .143.38 3.282 3.282 0 0 1 0 .329v6.942.607c-.005.23-.042.53-.2.54h-7.346c-.174 0-.348 0-.521 0a.591.591 0 0 1 -.1 0 .192.192 0 0 1 -.024 0c.176.037-.145-.13-.2-.2-.22-.283-.143-.741-.143-1.074v-4.381c-.004-.964-.064-1.948-.004-2.913z"/><path d="m.268 56.251v1.655a1.493 1.493 0 0 0 1.474 1.594c1.139.064 2.3 0 3.439 0h4.746a1.8 1.8 0 0 0 1.8-1.692c.007-.533 0-1.067 0-1.6v-1.853h.973a1.62 1.62 0 0 0 .567-.119.962.962 0 0 0 .4-.253c.053-.075.1-.175.011-.249a.6.6 0 0 0 -.38-.089h-1.566v-2.459c0-.409.01-.82 0-1.229a1.521 1.521 0 0 0 -1.709-1.457h-3.3v-1.694c0-.091-.218-.113-.258-.116a1.6 1.6 0 0 0 -.532.065 1.57 1.57 0 0 0 -.493.209c-.081.059-.165.12-.165.23v1.3c-1.045-.007-2.091-.019-3.135 0a1.82 1.82 0 0 0 -1.872 1.576c-.02.388 0 .782 0 1.17zm1.464-6.315c.015-.247.037-.4.253-.436a2.971 2.971 0 0 1 .481 0h6.358a8.556 8.556 0 0 1 1.013 0s0 0 .005 0a.593.593 0 0 1 .284.2.721.721 0 0 1 .142.378 3.009 3.009 0 0 1 0 .329v6.949c0 .21.086 1.125-.2 1.144h-7.346c-.174 0-.348 0-.521 0a.579.579 0 0 1 -.1 0 .209.209 0 0 1 -.025 0c.177.037-.144-.127-.2-.2-.22-.281-.142-.74-.142-1.072v-4.379c-.002-.964-.063-1.949-.002-2.913z"/><path d="m24.276 57.97a1.315 1.315 0 0 0 1.3 1.4c1.118.086 2.269.009 3.39.009h4.744a1.767 1.767 0 0 0 .333-.04c.87-.144 1.668-.631 1.681-1.612.007-.494 0-.989 0-1.484v-1.843h.992a1.477 1.477 0 0 0 .568-.114.875.875 0 0 0 .389-.278c.054-.091.092-.206 0-.292a.572.572 0 0 0 -.389-.122h-1.56v-2.385c0-.45.019-.9 0-1.354a1.343 1.343 0 0 0 -1.483-1.234c-1.171-.03-2.345-.008-3.517 0v-1.815c0-.112-.208-.178-.279-.194a1.2 1.2 0 0 0 -.54.034 1.163 1.163 0 0 0 -.484.241l-.094.1a.246.246 0 0 0 -.051.205v1.421c-.973-.008-1.946-.017-2.918.006-.942.021-2.056.5-2.082 1.573-.009.344 0 .689 0 1.033v2.337h-1a1.407 1.407 0 0 0 -.569.11.844.844 0 0 0 -.384.3.261.261 0 0 0 .007.321.57.57 0 0 0 .4.145h1.551v3.532zm1.448-8.162a.955.955 0 0 1 .076-.3l.078-.124c.123.006.256-.006.369-.006h3.278l.029.009a1.109 1.109 0 0 0 .4-.009h2.725a6.071 6.071 0 0 1 1.018 0c.546.1.581.674.581 1.116v3.633a.108.108 0 0 0 0 .018v3.279c0 .213.008.428 0 .641v.122a1.06 1.06 0 0 1 -.034.178.61.61 0 0 1 -.12.248l-.006.007h-7.179c-.393 0-.789.087-1.055-.284a1.941 1.941 0 0 1 -.16-1.124v-3.33a.1.1 0 0 0 0-.03v-1.037a28.454 28.454 0 0 1 0-3.007z"/><path d="m50.373 48.675c-.911.021-2.058.471-2.1 1.519-.013.343 0 .689 0 1.033v2.342h-1a1.421 1.421 0 0 0 -.568.111.849.849 0 0 0 -.386.293.255.255 0 0 0 .007.317.568.568 0 0 0 .395.141h1.552v3.539a1.257 1.257 0 0 0 1.262 1.353c1.129.066 2.28 0 3.411 0h4.754a1.789 1.789 0 0 0 .312-.037c.858-.135 1.7-.6 1.717-1.561.011-.494 0-.99 0-1.484v-5.032c0-.45.019-.9 0-1.354-.033-.831-.714-1.177-1.468-1.18-1.177 0-2.355 0-3.532 0v-1.869c0-.1-.211-.149-.269-.158a1.347 1.347 0 0 0 -.536.049c-.232.066-.643.2-.643.5v1.475c-.973-.01-1.941-.019-2.908.003zm7.307.65c.511.1.6.706.6 1.17v6.93c0 .213.006.428 0 .641v.122c-.008.087.17-.572-.029.2a.986.986 0 0 1 -.1.239c-.024.023-.034.036-.05.053h-7.147c-.465 0-.813.083-1.093-.364a2.111 2.111 0 0 1 -.137-1.1v-3.334a.141.141 0 0 0 0-.029v-1.038c0-.986-.092-2.024 0-3.007a.923.923 0 0 1 .072-.315l.058-.115a.545.545 0 0 0 .043-.047c.114 0 .232-.006.336-.006h3.206a.778.778 0 0 0 .106.027 1.256 1.256 0 0 0 .425-.027h2.692a5.583 5.583 0 0 1 1.018 0z"/><path d="m4.276 7.194c0 .1.211.15.27.159a1.332 1.332 0 0 0 .536-.048c.233-.067.642-.2.642-.5 0-.482-.009-.965 0-1.447a1.589 1.589 0 0 0 .546-.117.936.936 0 0 0 .4-.256c.053-.077.1-.179.01-.254a.6.6 0 0 0 -.38-.092c-.166 0-.333 0-.5 0a1.985 1.985 0 0 0 -1.171.387.828.828 0 0 0 -.345.553c-.028.379 0 .767 0 1.148z"/><path d="m28.526 7.279a1.89 1.89 0 0 0 .528-.078 1.866 1.866 0 0 0 .5-.2c.073-.047.174-.1.174-.2v-1.301a2.378 2.378 0 0 1 .01-.253 2.569 2.569 0 0 0 .32-.047 1.88 1.88 0 0 0 .5-.2c.058-.037.2-.111.174-.2s-.194-.085-.25-.085c-.166 0-.333 0-.5 0a2.5 2.5 0 0 0 -1.4.427.684.684 0 0 0 -.291.465 2.908 2.908 0 0 0 -.006.407v1.18c-.009.081.215.085.241.085zm1.294-2.22.007-.009c-.027.026-.015.017-.007.009z"/><path d="m52.922 7.477a1.149 1.149 0 0 0 .546-.194c.1-.079.262-.207.262-.353v-1.451h.007a1.316 1.316 0 0 0 .57-.105.807.807 0 0 0 .378-.319.318.318 0 0 0 -.018-.36.57.57 0 0 0 -.4-.174c-.166 0-.332 0-.5 0a1.712 1.712 0 0 0 -1.048.308 1.032 1.032 0 0 0 -.445.7c-.01.126 0 .257 0 .383v1.158a.332.332 0 0 0 .164.32.809.809 0 0 0 .484.087zm.348-2h.108c-.228.023-.172.002-.108.002z"/><path d="m5.73 29.469a1.344 1.344 0 0 0 .57-.106.816.816 0 0 0 .38-.314.305.305 0 0 0 -.016-.35.567.567 0 0 0 -.4-.168h-.5a1.731 1.731 0 0 0 -1.048.308 1.023 1.023 0 0 0 -.446.693c-.011.127 0 .257 0 .384v1.157a.317.317 0 0 0 .162.311.814.814 0 0 0 .485.082 1.173 1.173 0 0 0 .547-.193c.1-.077.264-.2.264-.346v-1.339c.001-.04.002-.08.002-.119zm-.463 0h.093c-.204.017-.155 0-.093 0z"/><path d="m30.073 28.5c-.166 0-.332 0-.5 0a1.5 1.5 0 0 0 -.883.325 1.047 1.047 0 0 0 -.423.71c-.021.357 0 .721 0 1.079v.449a.363.363 0 0 0 .169.338.8.8 0 0 0 .49.1 1.092 1.092 0 0 0 .546-.2c.108-.084.259-.216.259-.366v-1.435h.2a1.062 1.062 0 0 0 .546-.2.592.592 0 0 0 .259-.366.35.35 0 0 0 -.169-.338.918.918 0 0 0 -.494-.096z"/><path d="m52.276 31.194c0 .107.209.163.274.174a1.265 1.265 0 0 0 .537-.042 1.227 1.227 0 0 0 .487-.232.358.358 0 0 0 .15-.288c0-.476-.009-.952 0-1.428a1.535 1.535 0 0 0 .552-.115.906.906 0 0 0 .394-.263c.053-.083.1-.191 0-.271a.583.583 0 0 0 -.385-.106c-.166 0-.333 0-.5 0a1.938 1.938 0 0 0 -1.171.391.847.847 0 0 0 -.341.562c-.025.382 0 .771 0 1.154z"/><path d="m4.527 55.283a1.813 1.813 0 0 0 .528-.076 1.825 1.825 0 0 0 .5-.2c.074-.048.173-.1.173-.2v-1.3c0-.083 0-.168.006-.25a2.439 2.439 0 0 0 .323-.047 1.806 1.806 0 0 0 .5-.2c.06-.039.2-.114.173-.2s-.193-.089-.251-.089c-.166 0-.333 0-.5 0a2.645 2.645 0 0 0 -.662.094 2.188 2.188 0 0 0 -.659.277.754.754 0 0 0 -.371.525 2.908 2.908 0 0 0 -.006.407v1.174c-.005.078.219.085.246.085zm.5-2h.036c-.103.007-.063 0-.032 0z"/><path d="m28.266 55.056a.4.4 0 0 0 .175.361.787.787 0 0 0 .494.112 1.038 1.038 0 0 0 .545-.2.573.573 0 0 0 .254-.385v-1.312c0-.034.006-.069.006-.1h.2a1.019 1.019 0 0 0 .545-.2.606.606 0 0 0 .254-.385.389.389 0 0 0 -.175-.361.873.873 0 0 0 -.494-.112c-.166 0-.332 0-.5 0a1.309 1.309 0 0 0 -1.3 1.057c-.021.357 0 .721 0 1.079z"/><path d="m53.558 52.437a1.3 1.3 0 0 0 -1.294 1.082c-.021.357 0 .721 0 1.078v.449a.451.451 0 0 0 .182.389.771.771 0 0 0 .5.128.978.978 0 0 0 .544-.2.6.6 0 0 0 .248-.406v-1.316c0-.027.005-.055.005-.083.068 0 .137.005.2.005a.979.979 0 0 0 .544-.2.625.625 0 0 0 .248-.406c.013-.386-.357-.517-.68-.517-.165-.003-.331-.006-.497-.003z"/><path d="m48.271 6.273v1.943 1.666a1.452 1.452 0 0 0 1.329 1.582 10.348 10.348 0 0 0 1.1.009h2.577v1.721c0 .106.21.158.272.168a1.3 1.3 0 0 0 .537-.043 1.271 1.271 0 0 0 .488-.231.351.351 0 0 0 .151-.282v-1.333h3.011c.023 0 .051-.005.075-.006s.078 0 .11 0a1.8 1.8 0 0 0 1.808-1.667c.008-.533 0-1.067 0-1.6v-4.984c0-.422.01-.845 0-1.267a1.449 1.449 0 0 0 -1.529-1.422c-1.309-.03-2.622 0-3.932 0s-2.628-.006-3.942 0a1.875 1.875 0 0 0 -2.052 1.549c-.021.376 0 .759 0 1.135v2.516h-.8a2.089 2.089 0 0 0 -.527.081 1.951 1.951 0 0 0 -.5.194c-.056.035-.2.107-.175.192s.195.079.248.079zm1.519-4.8c-.022.019-.08-.006 0 0zm-.061.455c.009-.131.084-.264.092-.381 0 .058.025-.02.031-.074.139.006.283 0 .421 0h6.427a9 9 0 0 1 1.026 0c.517.06.543.54.543.943v6.948.606c-.005.223-.042.541-.187.557h-7.17c-.341 0-.806.091-1.038-.219a1.694 1.694 0 0 1 -.147-1.029v-4.341c.002-.997-.059-2.015.002-3.01z"/><path d="m40.711 6.385h2a1.541 1.541 0 0 0 .568-.116.9.9 0 0 0 .392-.269c.053-.084.094-.194 0-.276a.581.581 0 0 0 -.386-.109h-2a1.541 1.541 0 0 0 -.568.116.9.9 0 0 0 -.388.269c-.053.084-.094.194 0 .276a.581.581 0 0 0 .382.109z"/><path d="m22.942 6.554h1.334v3.416a1.279 1.279 0 0 0 1.266 1.371c1.127.083 2.285.006 3.413.006h.308v1.7a.46.46 0 0 0 .184.392.77.77 0 0 0 .5.129.972.972 0 0 0 .544-.2.6.6 0 0 0 .248-.407v-1.614h2.961a1.766 1.766 0 0 0 .321-.038c.864-.139 1.683-.612 1.7-1.582.01-.494 0-.989 0-1.484v-1.7h1.214a1.008 1.008 0 0 0 .544-.2.607.607 0 0 0 .252-.391c.017-.381-.364-.485-.672-.485h-1.335v-2.258c0-.45.019-.9 0-1.354-.033-.83-.717-1.192-1.474-1.2-1.3-.019-2.6 0-3.9 0-1.326 0-2.656-.031-3.982 0-.924.021-2.057.482-2.091 1.541-.011.344 0 .689 0 1.033v2.217h-1.219a.981.981 0 0 0 -.544.2.622.622 0 0 0 -.25.4c-.013.387.36.508.678.508zm2.782-4.746a.958.958 0 0 1 .076-.308l.075-.133.013-.014c.119 0 .244-.006.353-.006h6.429a6.179 6.179 0 0 1 1.018 0c.5.089.59.683.59 1.148v3.533c0 .008-.01.016-.01.025s.009.027.01.044v3.328c0 .213.007.428 0 .641v.122a.778.778 0 0 1 -.031.188.79.79 0 0 1 -.118.257c-.01.009-.011.012-.019.02h-3.484a.437.437 0 0 0 -.073-.09.77.77 0 0 0 -.5-.129.972.972 0 0 0 -.544.2l-.014.015h-2.547c-.443 0-.782.083-1.062-.306a1.959 1.959 0 0 1 -.162-1.134v-3.228c0-.01.011-.019.012-.03s-.01-.031-.012-.049v-1.087c0-.984-.097-2.027 0-3.007z"/><path d="m16.71 6.379h2a1.558 1.558 0 0 0 .567-.117.925.925 0 0 0 .393-.262c.053-.083.1-.191 0-.271a.583.583 0 0 0 -.385-.1h-2a1.537 1.537 0 0 0 -.567.117.925.925 0 0 0 -.388.254c-.053.083-.1.191 0 .271a.583.583 0 0 0 .38.108z"/><path d="m46.728 30.446h1.548v3.524a1.327 1.327 0 0 0 1.3 1.412c1.134.091 2.3.009 3.439.009h.249v1.659a.435.435 0 0 0 .179.379.779.779 0 0 0 .5.122 1 1 0 0 0 .544-.2.585.585 0 0 0 .25-.4v-1.56h2.978c.037 0 .081-.006.122-.009h.06s.032 0 .049-.006h.036a1.76 1.76 0 0 0 1.742-1.676c.006-.514 0-1.029 0-1.543v-4.987c0-.442.02-.889 0-1.331a1.363 1.363 0 0 0 -1.5-1.23c-1.164-.027-2.33-.008-3.5 0v-1.8c0-.1-.212-.142-.267-.149a1.363 1.363 0 0 0 -.535.052c-.224.064-.646.2-.646.485v1.403c-.977-.007-1.955-.017-2.931.006-.948.021-2.046.509-2.069 1.586-.008.355 0 .712 0 1.067v2.292h-1a1.393 1.393 0 0 0 -.569.109.829.829 0 0 0 -.383.3.274.274 0 0 0 .01.33.567.567 0 0 0 .394.156zm3.523-5.055h6.429a6.061 6.061 0 0 1 1.026 0c.544.1.57.668.57 1.1v6.93c0 .213.009.428 0 .641v.122s-.028.151-.034.175a.58.58 0 0 1 -.122.244h-3.533c-.013-.012-.017-.027-.031-.038a.779.779 0 0 0 -.5-.122 1.068 1.068 0 0 0 -.467.16h-2.653c-.385 0-.8.089-1.053-.276a1.938 1.938 0 0 1 -.159-1.12v-3.32a.137.137 0 0 0 0-.035v-3.082a8.82 8.82 0 0 1 0-.962.926.926 0 0 1 .077-.294.364.364 0 0 1 .088-.116c.122.002.253-.007.362-.007z"/><path d="m42.283 30.3h.248a2.062 2.062 0 0 0 .53-.07 1.689 1.689 0 0 0 .495-.2c.063-.044.194-.123.168-.218s-.189-.105-.255-.105h-2a2.062 2.062 0 0 0 -.53.07 1.689 1.689 0 0 0 -.495.2c-.063.044-.194.123-.168.218s.189.105.255.105z"/><path d="m16.736 30.477h2a1.314 1.314 0 0 0 .57-.105.807.807 0 0 0 .379-.318.315.315 0 0 0 -.018-.358.569.569 0 0 0 -.4-.174h-2a1.314 1.314 0 0 0 -.57.106.807.807 0 0 0 -.379.318.315.315 0 0 0 .018.358.568.568 0 0 0 .4.173z"/><path d="m40.528 54.288h2a2.06 2.06 0 0 0 .529-.075 1.78 1.78 0 0 0 .5-.2c.06-.04.2-.116.171-.207s-.191-.094-.252-.094h-2a2.06 2.06 0 0 0 -.529.075 1.78 1.78 0 0 0 -.5.2c-.06.04-.2.116-.171.207s.191.094.252.094z"/><path d="m19.3 53.668h-2a1.7 1.7 0 0 0 -.566.123 1.01 1.01 0 0 0 -.4.24c-.052.067-.106.16-.017.228a.62.62 0 0 0 .376.073h2a1.7 1.7 0 0 0 .566-.123 1.01 1.01 0 0 0 .4-.24c.052-.067.106-.16.017-.228a.62.62 0 0 0 -.376-.073z"/><path d="m6.073 19.273a1.435 1.435 0 0 0 .491-.217.316.316 0 0 0 .16-.25v-2c0-.1-.214-.131-.263-.136a1.459 1.459 0 0 0 -.534.057 1.435 1.435 0 0 0 -.491.217.316.316 0 0 0 -.16.25v2c0 .1.214.131.263.136a1.459 1.459 0 0 0 .534-.057z"/><path d="m29.263 24.615c-.968-.007-1.937-.016-2.9.006-.943.021-2.057.5-2.083 1.573-.009.344 0 .689 0 1.033v2.265h-1.21a1.055 1.055 0 0 0 -.545.2.6.6 0 0 0 -.257.372.361.361 0 0 0 .17.345.9.9 0 0 0 .492.1h1.346v3.461a1.314 1.314 0 0 0 1.3 1.4c1.118.086 2.269.009 3.39.009h.3v1.668a.449.449 0 0 0 .182.387.768.768 0 0 0 .5.126.983.983 0 0 0 .544-.2.6.6 0 0 0 .248-.4v-1.581h2.97a1.757 1.757 0 0 0 .332-.04c.87-.144 1.669-.631 1.682-1.612.007-.494 0-.989 0-1.484v-1.866h.985a1.553 1.553 0 0 0 .567-.117.913.913 0 0 0 .393-.26c.182-.278-.156-.372-.378-.372h-1.567v-2.419c0-.45.019-.9 0-1.354a1.343 1.343 0 0 0 -1.483-1.234c-1.167-.029-2.337-.008-3.5 0v-1.666a.46.46 0 0 0 -.184-.392.765.765 0 0 0 -.5-.13.972.972 0 0 0 -.544.2.6.6 0 0 0 -.248.408zm3.414.764a5.967 5.967 0 0 1 1.018 0c.546.1.581.674.581 1.116v6.93c0 .213.008.428 0 .641v.122a1.06 1.06 0 0 1 -.034.178.6.6 0 0 1 -.12.248l-.006.007h-3.516c-.017-.017-.024-.039-.045-.055a.768.768 0 0 0 -.5-.126 1 1 0 0 0 -.505.181h-2.61c-.394 0-.79.088-1.056-.284a1.941 1.941 0 0 1 -.16-1.124v-3.256c0-.006.008-.012.008-.018a.311.311 0 0 0 -.008-.044v-1.08a28.454 28.454 0 0 1 0-3.007.955.955 0 0 1 .076-.3l.078-.124c.123 0 .256-.006.369-.006h3.153c.017.019.025.042.047.058a.765.765 0 0 0 .5.13.994.994 0 0 0 .516-.188z"/><path d="m30.473 19.3c.108-.084.259-.217.259-.367v-2a.363.363 0 0 0 -.169-.338.8.8 0 0 0 -.49-.1 1.1 1.1 0 0 0 -.546.2c-.108.084-.259.217-.259.367v2a.363.363 0 0 0 .169.338.8.8 0 0 0 .49.1 1.1 1.1 0 0 0 .546-.2z"/><path d="m54.575 16.644a.864.864 0 0 0 -.479-.056 1.33 1.33 0 0 0 -.548.187c-.1.065-.273.182-.273.313v2a.252.252 0 0 0 .15.268.864.864 0 0 0 .479.056 1.33 1.33 0 0 0 .548-.187c.1-.065.273-.182.273-.313v-2a.252.252 0 0 0 -.15-.268z"/><path d="m6.733 35.435h2.992c.027 0 .059-.006.088-.007s.068 0 .095 0a1.792 1.792 0 0 0 1.818-1.64c.008-.533 0-1.067 0-1.6v-1.788h.99a1.491 1.491 0 0 0 .567-.114.881.881 0 0 0 .39-.277c.054-.09.092-.205 0-.291a.579.579 0 0 0 -.39-.12h-1.557v-2.398c0-.422.008-.845 0-1.267a1.4 1.4 0 0 0 -1.519-1.372c-1.159-.026-2.322-.007-3.483 0v-1.755c0-.083-.224-.09-.251-.091a1.82 1.82 0 0 0 -.529.076 1.8 1.8 0 0 0 -.5.2c-.074.048-.172.1-.172.2v1.371c-.981 0-1.962-.013-2.943 0-.907.012-2 .485-2.059 1.523-.021.376 0 .759 0 1.135v5.005 1.666a1.4 1.4 0 0 0 1.315 1.532c1.128.107 2.307.009 3.439.009h.239v1.623a.392.392 0 0 0 .173.355.79.79 0 0 0 .493.108 1.057 1.057 0 0 0 .545-.2.565.565 0 0 0 .255-.38zm-4.95-10h.01c-.044.028-.093-.018-.01 0zm1.142 9.13c-.363 0-.8.091-1.046-.245a1.752 1.752 0 0 1 -.153-1.053v-4.341c0-1-.061-2.015 0-3.01a2.939 2.939 0 0 1 .089-.392c-.016.084.026 0 .054-.085.129.009.271 0 .394 0h6.429a7.17 7.17 0 0 1 1.026 0c.52.076.556.581.556.992v6.948c0 .21.066 1.14-.17 1.19h-3.6a.816.816 0 0 0 -.438-.086 1.307 1.307 0 0 0 -.333.086z"/><path d="m5.938 40.768a1.651 1.651 0 0 0 -.494.2c-.079.056-.168.114-.168.221v2c0 .088.22.1.256.107a1.669 1.669 0 0 0 .53-.069 1.651 1.651 0 0 0 .494-.2c.079-.056.168-.114.168-.221v-2c0-.088-.22-.1-.256-.107a1.669 1.669 0 0 0 -.53.069z"/><path d="m29.929 40.736a1.451 1.451 0 0 0 -.491.215.306.306 0 0 0 -.162.243v2c0 .095.215.125.262.13a1.5 1.5 0 0 0 .533-.06 1.451 1.451 0 0 0 .491-.215c.085-.065.162-.128.162-.243v-2c0-.095-.215-.125-.262-.13a1.5 1.5 0 0 0 -.533.06z"/><path d="m53.928 43.5a1.088 1.088 0 0 0 .545-.2c.109-.084.259-.217.259-.367v-2a.364.364 0 0 0 -.17-.34.8.8 0 0 0 -.49-.1 1.088 1.088 0 0 0 -.545.2c-.109.084-.259.217-.259.367v2a.364.364 0 0 0 .17.34.8.8 0 0 0 .49.1z"/></g></svg>