<svg id="icons" height="512" viewBox="0 0 60 60" width="512" xmlns="http://www.w3.org/2000/svg"><path d="m39.025 37.464a.5.5 0 0 1 -.3-.9l1.9-1.405-3.845 2.22a.5.5 0 0 1 -.554-.829l3.834-2.941-6.37 3.676a.5.5 0 0 1 -.53-.847l.527-.356-1.925 1.11a.5.5 0 0 1 -.541-.838l4.139-2.966-6.286 3.629a.5.5 0 0 1 -.547-.835l6.079-4.477-8.732 5.041a.5.5 0 0 1 -.543-.838l6.8-4.92-9.4 5.424a.5.5 0 0 1 -.54-.84l7.422-5.272-8.713 5.028a.5.5 0 0 1 -.523-.851l1.435-.937-1.983 1.145a.5.5 0 0 1 -.531-.847l4.577-3.108-5.419 3.129a.5.5 0 0 1 -.525-.849l1.883-1.244-2.47 1.425a.5.5 0 0 1 -.536-.842l5.206-3.637-6.184 3.57a.5.5 0 0 1 -.533-.844l3.939-2.714-4.758 2.747a.5.5 0 0 1 -.544-.838l5.392-3.913-6.505 3.756a.5.5 0 0 1 -.545-.836l4.849-3.548-5.916 3.416a.5.5 0 0 1 -.55-.834l4.576-3.427-5.67 3.274a.5.5 0 0 1 -.547-.835l3.465-2.572-4.383 2.529a.5.5 0 0 1 -.54-.842l1.17-.828-1.739 1a.5.5 0 0 1 -.549-.834l1.815-1.339-2.5 1.441a.5.5 0 0 1 -.558-.827l1.259-.982-1.89 1.089a.5.5 0 0 1 -.707-.23l-.589-1.322-.657.379a.5.5 0 0 1 -.5-.867l1.138-.656a.5.5 0 0 1 .707.23l.589 1.322 7.639-4.411a.5.5 0 0 1 .558.827l-1.257.981 3.736-2.157a.5.5 0 0 1 .548.835l-1.816 1.348 3.609-2.084a.5.5 0 0 1 .539.842l-1.166.825 2.575-1.483a.5.5 0 0 1 .548.834l-3.462 2.572 5.39-3.113a.5.5 0 0 1 .55.834l-4.575 3.427 6.67-3.854a.5.5 0 0 1 .545.837l-4.85 3.548 6.8-3.927a.5.5 0 0 1 .544.838l-5.393 3.913 7.32-4.226a.5.5 0 0 1 .533.844l-3.934 2.714 5.365-3.1a.5.5 0 0 1 .537.843l-5.206 3.637 6.82-3.938a.5.5 0 0 1 .525.85l-1.882 1.243 2.902-1.676a.5.5 0 0 1 .531.847l-4.583 3.111 5.922-3.419a.5.5 0 0 1 .523.852l-1.428.933 2.02-1.167a.5.5 0 0 1 .54.84l-7.413 5.274 8.694-5.02a.5.5 0 0 1 .543.838l-6.8 4.923 8.084-4.667a.5.5 0 0 1 .547.836l-6.08 4.475 7.331-4.231a.5.5 0 0 1 .541.839l-4.141 2.966 5.066-2.924a.5.5 0 0 1 .531.847l-.521.352 1.014-.585a.5.5 0 0 1 .554.83l-3.836 2.941 4.873-2.813a.5.5 0 0 1 .546.835l-1.9 1.408 2.6-1.5a.5.5 0 0 1 .594.8l-3.1 2.931 4.441-2.564a.5.5 0 0 1 .6.791l-1.84 1.791 2.825-1.631a.5.5 0 0 1 .632.755l-1.1 1.3 1.987-1.147a.5.5 0 0 1 .657.723l-.4.56.957-.552a.5.5 0 0 1 .7.223l.455.984.434-.251a.5.5 0 1 1 .5.867l-.909.525a.5.5 0 0 1 -.7-.224l-.455-.984-2.472 1.426a.5.5 0 0 1 -.657-.722l.4-.56-2.474 1.428a.5.5 0 0 1 -.632-.755l1.1-1.305-3.819 2.2a.5.5 0 0 1 -.6-.791l1.84-1.791-4.656 2.688a.5.5 0 0 1 -.593-.8l3.1-2.932-6.559 3.796a.493.493 0 0 1 -.25.064z" fill="#eb5463"/><path d="m19.967 24.471a.5.5 0 0 1 -.266-.924l4.8-3-6.686 3.853a.5.5 0 0 1 -.525-.85l13.3-8.785-16.69 9.635a.5.5 0 0 1 -.524-.851l12.964-8.527-16.249 9.378a.5.5 0 0 1 -.522-.853l10.948-7.067-13.725 7.92a.5.5 0 0 1 -.521-.854l10.203-6.546-12.831 7.4a.5.5 0 0 1 -.521-.854l10.3-6.62-11.651 6.729a.5.5 0 0 1 -.515-.857l4.051-2.538-3.994 2.3a.5.5 0 0 1 -.528-.848l11.5-7.694-11 6.353a.5.5 0 0 1 -.516-.856l.4-.25a.5.5 0 0 1 -.413-.9l7.6-5.171-7.077 4.087a.5.5 0 0 1 -.531-.846l4.708-3.2-4.177 2.408a.5.5 0 0 1 -.526-.85l.474-.314a.5.5 0 0 1 -.5-.861l3.746-2.774-3.2 1.845a.5.5 0 0 1 -.548-.834l1.425-1.055-.871.5a.5.5 0 0 1 -.612-.778l2.217-2.322-1.6.926a.5.5 0 0 1 -.659-.726l.666-.916a.5.5 0 0 1 -.216-.932l1.632-.943a.5.5 0 0 1 .654.727l-.544.748 2.576-1.484a.5.5 0 0 1 .612.778l-2.218 2.322 5.378-3.1a.5.5 0 0 1 .548.834l-1.413 1.049 3.263-1.883a.5.5 0 0 1 .548.835l-3.746 2.772 6.253-3.607a.5.5 0 0 1 .527.849l-.432.287 1.968-1.136a.5.5 0 0 1 .531.846l-4.706 3.2 7.012-4.046a.5.5 0 0 1 .531.846l-7.595 5.171 10.423-6.017a.5.5 0 0 1 .517.857l-.031.018 1.516-.875a.5.5 0 0 1 .528.849l-11.5 7.7 14.798-8.549a.5.5 0 0 1 .516.857l-4.051 2.534 5.881-3.391a.5.5 0 0 1 .52.854l-10.3 6.621 12.948-7.475a.5.5 0 0 1 .52.854l-10.202 6.546 12.831-7.4a.5.5 0 0 1 .522.853l-10.944 7.064 13.721-7.917a.5.5 0 0 1 .524.85l-12.963 8.527 16.249-9.377a.5.5 0 0 1 .525.85l-13.302 8.78 16.692-9.63a.5.5 0 0 1 .515.857l-4.8 3 6.686-3.857a.5.5 0 0 1 .522.852l-11.481 7.448 14.376-8.3a.5.5 0 0 1 .52.853l-10.577 6.81 13.28-7.663a.5.5 0 0 1 .524.851l-12.606 8.259 13.149-7.589a.5.5 0 0 1 .52.855l-6.968 4.451 1.771-1.027a.5.5 0 0 1 .524.851l-3.43 2.24a.5.5 0 0 1 .479.865l-5.696 4.372 6.3-3.635a.5.5 0 0 1 .563.823l-4.169 3.342 5.017-2.9a.5.5 0 0 1 .58.809l-3.224 2.833 4.071-2.351a.5.5 0 0 1 .566.82l-1.191.973 1.595-.921a.5.5 0 0 1 .577.812l-.664.574.991-.573a.5.5 0 0 1 .677.693l-.935 1.536 1.667-.963a.5.5 0 0 1 .709.632l-.239.552.08-.047a.5.5 0 0 1 .5.867l-1.392.8a.5.5 0 0 1 -.709-.632l.24-.552-2.05 1.18a.5.5 0 0 1 -.677-.693l.935-1.535-3.86 2.228a.5.5 0 0 1 -.577-.811l.666-.576-2.4 1.387a.5.5 0 0 1 -.567-.82l1.191-.972-3.1 1.792a.5.5 0 0 1 -.58-.809l3.225-2.826-6.3 3.635a.5.5 0 0 1 -.563-.823l4.167-3.341-7.22 4.164a.5.5 0 0 1 -.554-.829l5.699-4.371-9.008 5.2a.5.5 0 0 1 -.523-.851l3.322-2.17-5.236 3.021a.5.5 0 0 1 -.52-.854l6.967-4.446-9.185 5.3a.5.5 0 0 1 -.525-.851l12.605-8.259-15.786 9.11a.5.5 0 0 1 -.52-.854l10.577-6.813-13.279 7.667a.5.5 0 0 1 -.523-.853l11.482-7.447-14.376 8.3a.5.5 0 0 1 -.25.071z" fill="#424852"/><path d="m7.614 54.472a.5.5 0 0 1 -.262-.926l.063-.039-1.555.9a.5.5 0 0 1 -.523-.851l12.347-8.076-15.445 8.92a.5.5 0 0 1 -.513-.857l3.085-1.919-3.478 2.004a.5.5 0 0 1 -.521-.853l10.034-6.495-5.839 3.37a.5.5 0 0 1 -.533-.844l8.771-6.038-4.1 2.366a.5.5 0 0 1 -.545-.834l5.036-3.81-5.74 3.315a.5.5 0 0 1 -.55-.832l3.144-2.362-3.748 2.164a.5.5 0 0 1 -.544-.837l.911-.661-1.238.715a.5.5 0 0 1 -.591-.8l2.713-2.521-3.542 2.045a.5.5 0 0 1 -.612-.778l1.661-1.738-2.347 1.349a.5.5 0 0 1 -.692-.666l.819-1.553-1.58.912a.5.5 0 0 1 -.706-.642l.186-.413a.506.506 0 0 1 -.523-.242.5.5 0 0 1 .183-.682l1.16-.663a.5.5 0 0 1 .706.637l-.166.363 1.741-1a.5.5 0 0 1 .693.666l-.82 1.552 3.846-2.218a.5.5 0 0 1 .612.777l-1.66 1.74 4.365-2.517a.5.5 0 0 1 .591.8l-2.708 2.518 5.749-3.318a.5.5 0 0 1 .544.837l-.914.663 2.6-1.5a.5.5 0 0 1 .55.832l-3.142 2.358 5.526-3.19a.5.5 0 0 1 .552.831l-5.038 3.81 8.04-4.641a.5.5 0 0 1 .533.844l-8.773 6.036 11.923-6.88a.5.5 0 0 1 .521.852l-10.036 6.5 12.73-7.352a.5.5 0 0 1 .514.857l-3.086 1.92 4.812-2.777a.5.5 0 0 1 .523.851l-12.343 8.07 15.452-8.921a.5.5 0 0 1 .512.858l-.063.039 1.554-.9a.5.5 0 0 1 .524.85l-12.479 8.169 15.624-9.016a.5.5 0 0 1 .52.853l-9.584 6.133 12.1-6.986a.5.5 0 0 1 .516.856l-5.9 3.709 7.906-4.565a.5.5 0 0 1 .519.854l-8.731 5.556 11.108-6.41a.5.5 0 0 1 .524.851l-12.12 7.906 15.17-8.757a.5.5 0 0 1 .518.854l-8.445 5.366 10.7-6.18a.5.5 0 0 1 .516.856l-5.158 3.232 5.932-3.419a.5.5 0 0 1 .522.852l-10.258 6.645 10.256-5.921a.5.5 0 0 1 .517.855l-3.72 2.353 3.2-1.85a.5.5 0 0 1 .533.845l-10.259 7.044 9.73-5.616a.5.5 0 0 1 .539.84l-8.125 5.744 7.586-4.38a.5.5 0 0 1 .537.841l-4.687 3.287 4.15-2.4a.5.5 0 0 1 .555.828l-4.571 3.53 4.016-2.306a.5.5 0 0 1 .558.826l-2.121 1.659 1.563-.9a.5.5 0 0 1 .621.768l-1.9 2.1 1.278-.737a.5.5 0 0 1 .634.752l-.494.595a.5.5 0 0 1 .059.894l-1.619.935a.5.5 0 0 1 -.635-.752l.133-.16-1.6.925a.5.5 0 0 1 -.621-.767l1.9-2.1-4.977 2.862a.5.5 0 0 1 -.559-.826l2.119-1.657-4.3 2.484a.5.5 0 0 1 -.556-.828l4.57-3.53-7.552 4.357a.5.5 0 0 1 -.537-.841l4.687-3.288-7.151 4.129a.5.5 0 0 1 -.539-.84l8.128-5.749-11.41 6.589a.5.5 0 0 1 -.533-.844l10.255-7.04-13.66 7.884a.5.5 0 0 1 -.518-.855l3.729-2.357-5.565 3.212a.5.5 0 0 1 -.521-.852l10.261-6.648-12.994 7.5a.5.5 0 0 1 -.516-.856l5.153-3.229-7.077 4.085a.5.5 0 0 1 -.518-.854l8.45-5.372-10.785 6.226a.5.5 0 0 1 -.524-.851l12.12-7.906-15.17 8.757a.5.5 0 0 1 -.518-.854l8.731-5.556-11.109 6.41a.5.5 0 0 1 -.516-.856l5.9-3.709-7.905 4.565a.5.5 0 0 1 -.519-.853l9.584-6.133-12.102 6.986a.5.5 0 0 1 -.523-.85l12.471-8.165-15.617 9.015a.5.5 0 0 1 -.25.072z" fill="#424852"/><g id="icons-2" fill="#262626" data-name="icons"><path d="m.273 21.307a3.41 3.41 0 0 0 1.2 2.536c-.1.072-.154.134-.107.162l19.339 11.614h-13.072c-1.314 0-7.13-.919-7.356 1.5-.156 1.674 4.391 4.5 5.412 5.424 1.049.943 2.6 1.759 2.094 3.3-.353 1.073-2.928 2.633-3.764 3.385-2.536 2.281-5.6 4.965-.692 5.15 13.9.524 27.922 0 41.833 0h9.128c1.167 0 2.816.233 3.9-.359 2.041-1.114 1.534-3.433 1.534-5.419v-10.8a2.66 2.66 0 0 0 -1.088-1.586c.07-.119.059-.242-.114-.346l-19.038-11.43h12.267c1.408 0 9.094 1.035 7.667-2.3a.187.187 0 0 0 -.02-.062v-.005a.212.212 0 0 0 -.051-.095c-2-1.8-4.977-3.642-6.5-5.842-1.867-2.7 3.234-5.148 5.141-7.1 2.911-2.982.76-3.463-2.352-3.463h-42.816c-2.924 0-8.144-1.08-10.931.318-1.787.887-1.614 2.462-1.614 4.197 0 3.659-.426 7.589 0 11.221zm56.927 32.312c-.607.33-2.33 0-3.023 0h-45.91c-2.83 0-8.835.958-4.483-2.955 1.316-1.184 4.752-3.23 5.466-4.926.8-1.9-1.211-2.846-2.547-4.047-.756-.68-5.691-4.22-4.9-5.31.255-.35 3.06 0 3.531 0h39.826c2.372 0 12.235-1.658 13.116 1.813v7.5c0 1.753.915 6.84-1.076 7.925zm-1.763-18.178c-1.471-.024-3.014.178-4.124.178h-28.427l-18.563-11.149c.638 0 1.32-.032 2.028-.032h30.766zm-52.137-29.003c1.124-.392 2.975 0 4.165 0h46.094c.545 0 3.609-.418 4.072 0 1.551 1.4-4.633 5.621-5.526 6.537-1.584 1.625-1.99 1.67-.8 3.554 1.394 2.212 4.693 4.229 6.674 6 .693 1.623-1.1 1.029-2.344 1.029h-45.722c-3.461 0-7.486 1.255-8.186-2.975-.512-3.087 0-6.764 0-9.894 0-1.789-.327-3.589 1.573-4.251z"/><path d="m19.706 10.366h1a1.252 1.252 0 0 0 .962-.377c.169-.278-.146-.355-.374-.355h-1a1.252 1.252 0 0 0 -.962.377c-.169.278.146.355.374.355z"/><path d="m5.733 14.943a15.817 15.817 0 0 1 0-3.779c.284-1.011 1.384-.641 2.363-.641h7.838c.821 0 1.117-1.046.132-1.046-3.071 0-6.149-.064-9.219 0-.957.023-1.995.063-2.447 1.075-.533 1.2-.136 3.223-.136 4.505.003.749 1.469.527 1.469-.114z"/><path d="m40.3 39.658h-1a1.309 1.309 0 0 0 -.964.367c-.174.271.151.317.364.317h1a1.309 1.309 0 0 0 .964-.367c.174-.275-.151-.317-.364-.317z"/><path d="m53.356 39.533h-9.089c-.618 0-1.51.934-.534.934h7.658c1.04 0 2.52-.419 2.88.828a15.554 15.554 0 0 1 0 3.778c0 .681 1.458.413 1.458-.146a19.95 19.95 0 0 0 0-4c-.303-1.35-1.195-1.394-2.373-1.394z"/></g></svg>