<?xml version="1.0"?>
<svg xmlns="http://www.w3.org/2000/svg" id="Icons" viewBox="0 0 60 60" width="512" height="512"><defs><style>.cls-1{fill:#ccd0da;}.cls-2{fill:#2dbab3;}.cls-3{fill:#1f9b92;}.cls-4{fill:#262626;}</style></defs><path class="cls-1" d="M55.9,56.472a.5.5,0,0,1-.25-.933l3.07-1.772a.5.5,0,0,1,.5.865L56.151,56.4A.5.5,0,0,1,55.9,56.472Z"/><path class="cls-1" d="M18.762,59.471a.5.5,0,0,1-.265-.925l.082-.05-1.573.907a.5.5,0,0,1-.524-.85l9.365-6.127L13.76,59.4a.5.5,0,0,1-.523-.851l8.656-5.627L10.671,59.4a.5.5,0,0,1-.52-.853L16.929,54.2,7.923,59.4a.5.5,0,0,1-.523-.851l8.647-5.62L4.836,59.4a.5.5,0,0,1-.529-.847l11.557-7.77L1.543,59.055a.5.5,0,0,1-.53-.847L12.36,50.541l-11.08,6.4a.5.5,0,0,1-.53-.847l8.4-5.693-7.87,4.543A.5.5,0,0,1,.738,54.1l7.689-5.5L1.279,52.73a.5.5,0,0,1-.533-.844L3.69,49.864,1.279,51.256a.5.5,0,0,1-.563-.822l4.623-3.715-4.06,2.344a.5.5,0,0,1-.573-.815l2.356-1.992L1.279,47.284a.5.5,0,0,1-.6-.786l1.136-1.136-.533.307a.5.5,0,0,1-.6-.075A.5.5,0,0,1,.591,45l.451-.819a.5.5,0,0,1-.178-.929l1.128-.65a.5.5,0,0,1,.689.674l-.351.637L4.6,42.6a.5.5,0,0,1,.6.786L4.067,44.521,7.4,42.6a.5.5,0,0,1,.574.814L5.618,45.4l4.861-2.8a.5.5,0,0,1,.563.822L6.42,47.134,14.278,42.6a.5.5,0,0,1,.534.844l-2.944,2.022L16.832,42.6a.5.5,0,0,1,.541.839l-7.692,5.5L20.663,42.6a.5.5,0,0,1,.53.846L12.8,49.133,24.12,42.6a.5.5,0,0,1,.53.846L13.3,51.11,28.05,42.6a.5.5,0,0,1,.529.847L17.02,51.215,31.947,42.6a.5.5,0,0,1,.523.851l-8.651,5.623L35.035,42.6a.5.5,0,0,1,.52.853l-6.772,4.342,9-5.195a.5.5,0,0,1,.523.851l-8.66,5.63L40.872,42.6a.5.5,0,0,1,.524.85l-9.365,6.127L44.118,42.6a.5.5,0,0,1,.515.857l-.07.043,1.56-.9a.5.5,0,0,1,.519.854l-5.6,3.567L48.7,42.6a.5.5,0,0,1,.523.851l-8.813,5.737L51.82,42.6a.5.5,0,0,1,.516.856l-2.255,1.414,3.849-2.221a.5.5,0,0,1,.526.849L43.964,50.45l10.757-6.21a.5.5,0,0,1,.516.856l-.405.255.008,0a.5.5,0,0,1,.53.846l-8.014,5.435,10.429-6.021a.5.5,0,0,1,.535.844l-8.742,6.067,9.142-5.279a.5.5,0,0,1,.542.839l-7.539,5.411,7-4.04a.5.5,0,0,1,.539.841l-4.012,2.839,3.473-2a.5.5,0,0,1,.546.836l-2.7,1.977L58.721,52.7a.5.5,0,0,1,.586.8L55.27,57.163a.524.524,0,0,1,.133.151.5.5,0,0,1-.182.683L52.786,59.4a.5.5,0,0,1-.586-.8l2.981-2.706L49.1,59.4a.5.5,0,0,1-.546-.836l2.7-1.979L46.382,59.4a.5.5,0,0,1-.539-.84l4.009-2.837L43.479,59.4a.5.5,0,0,1-.542-.839l7.538-5.41L39.65,59.4a.5.5,0,0,1-.535-.843l8.744-6.068L35.889,59.4a.5.5,0,0,1-.531-.846l8.01-5.432L32.493,59.4a.5.5,0,0,1-.516-.855l.422-.266L30.456,59.4a.5.5,0,0,1-.526-.849L40.421,51.6,26.9,59.4a.5.5,0,0,1-.515-.856l2.258-1.416L24.709,59.4a.5.5,0,0,1-.522-.851L33,52.815,21.587,59.4a.5.5,0,0,1-.519-.854l5.6-3.567L19.012,59.4A.5.5,0,0,1,18.762,59.471Z"/><path class="cls-1" d="M55.9,35.472a.5.5,0,0,1-.25-.933l3.07-1.772a.5.5,0,0,1,.5.865L56.151,35.4A.5.5,0,0,1,55.9,35.472Z"/><path class="cls-1" d="M7.425,38.471a.5.5,0,0,1-.27-.921l6.366-4.071L4.99,38.4a.5.5,0,0,1-.519-.853L10.652,33.6,2.333,38.4a.5.5,0,0,1-.516-.856L3.973,36.2,1.354,37.707a.5.5,0,0,1-.521-.853l6.95-4.5-6.5,3.755a.5.5,0,0,1-.528-.847l8.087-5.432L1.279,34.2a.5.5,0,0,1-.519-.853l.448-.288a.5.5,0,0,1-.464-.878l5.3-3.677L1.279,31.254a.5.5,0,0,1-.531-.846l1.806-1.23-1.275.735a.5.5,0,0,1-.532-.845l.4-.271a.5.5,0,0,1-.425-.878L3.38,25.794l-2.1,1.213a.5.5,0,0,1-.609-.78l1.917-1.985L1.279,25a.5.5,0,0,1-.7-.648l.56-1.167a.522.522,0,0,1-.457-.25.5.5,0,0,1,.183-.684l1.128-.65a.5.5,0,0,1,.7.649l-.515,1.077L5.167,21.6a.5.5,0,0,1,.609.78L3.86,24.362,8.649,21.6a.5.5,0,0,1,.562.823L6.547,24.547,11.656,21.6a.5.5,0,0,1,.532.844l-.154.107,1.65-.952a.5.5,0,0,1,.531.845L12.4,23.68,16.008,21.6a.5.5,0,0,1,.535.843l-5.3,3.678L19.071,21.6a.5.5,0,0,1,.52.853l-.326.209L21.106,21.6a.5.5,0,0,1,.529.847l-8.086,5.431L24.424,21.6a.5.5,0,0,1,.521.852l-6.958,4.5L27.26,21.6a.5.5,0,0,1,.515.856l-2.156,1.352L29.444,21.6a.5.5,0,0,1,.52.853L23.782,26.4l8.32-4.8a.5.5,0,0,1,.519.853l-6.366,4.071L34.786,21.6a.5.5,0,0,1,.518.855L30.965,25.2,37.2,21.6a.5.5,0,0,1,.527.849L27.286,29.357,40.729,21.6a.5.5,0,0,1,.525.849L30.86,29.322,44.242,21.6a.5.5,0,0,1,.522.852l-8.195,5.307L47.238,21.6a.5.5,0,0,1,.526.849l-10.346,6.84L50.738,21.6a.5.5,0,0,1,.522.852L43.443,27.5l10.22-5.9a.5.5,0,0,1,.524.851l-9.08,5.924,9.614-5.55a.5.5,0,0,1,.522.852l-6.68,4.339,6.292-3.632a.5.5,0,0,1,.521.853l-2.628,1.687L56.774,24.6a.5.5,0,0,1,.537.842l-9,6.287L58.72,25.715a.5.5,0,0,1,.519.853l-.42.27a.5.5,0,0,1,.443.882l-6.735,4.85L58.721,29a.5.5,0,0,1,.531.846l-1.424.97.893-.515a.5.5,0,0,1,.562.822L55.358,34.27l3.363-1.942a.5.5,0,0,1,.549.834l-3.847,2.864a.5.5,0,0,1-.2.647l-3,1.729a.5.5,0,0,1-.549-.834l.111-.083L50.2,38.4a.5.5,0,0,1-.562-.822l3.925-3.151L46.679,38.4a.5.5,0,0,1-.532-.845l1.432-.976L44.424,38.4a.5.5,0,0,1-.542-.838l6.729-4.846L40.763,38.4a.5.5,0,0,1-.52-.853l.19-.121-1.69.974a.5.5,0,0,1-.536-.842l9-6.289L34.86,38.4a.5.5,0,0,1-.52-.853l2.637-1.693L32.566,38.4a.5.5,0,0,1-.522-.851l6.673-4.335L29.733,38.4a.5.5,0,0,1-.523-.851L38.3,31.621,26.551,38.4a.5.5,0,0,1-.522-.852L33.846,32.5l-10.22,5.9a.5.5,0,0,1-.525-.849l10.345-6.84L20.126,38.4a.5.5,0,0,1-.522-.852l8.19-5.3L17.131,38.4a.5.5,0,0,1-.526-.849L27,30.678,13.617,38.4a.5.5,0,0,1-.526-.849l10.445-6.913L10.089,38.4a.5.5,0,0,1-.518-.855L13.9,34.809,7.675,38.4A.5.5,0,0,1,7.425,38.471Z"/><path class="cls-1" d="M55.9,14.472a.5.5,0,0,1-.25-.933l3.07-1.772a.5.5,0,0,1,.5.865L56.151,14.4A.5.5,0,0,1,55.9,14.472Z"/><path class="cls-1" d="M27.243,17.471a.5.5,0,0,1-.266-.923l3.1-1.953L25.215,17.4a.5.5,0,0,1-.528-.847l11.47-7.7L21.351,17.4a.5.5,0,0,1-.521-.852l7.61-4.907L18.463,17.4a.5.5,0,0,1-.526-.849l10.6-7.028L14.89,17.4a.5.5,0,0,1-.52-.853l6.772-4.341-9,5.194a.5.5,0,0,1-.525-.85l9.58-6.282L8.845,17.4a.5.5,0,0,1-.52-.854l6.081-3.882L6.2,17.4a.5.5,0,0,1-.518-.854l5.861-3.737L3.591,17.4a.5.5,0,0,1-.525-.85l9.752-6.406L1.368,16.758a.5.5,0,0,1-.52-.853l6.486-4.179L1.28,15.221a.5.5,0,0,1-.516-.856l.4-.251a.5.5,0,0,1-.406-.9L5.721,9.942,1.279,12.507a.5.5,0,0,1-.533-.845L6.312,7.838,1.279,10.743a.5.5,0,0,1-.526-.849L1.3,9.533l-.017.01a.5.5,0,0,1-.54-.84L3.568,6.687,1.279,8.008A.5.5,0,0,1,.71,7.19L4.044,4.429,1.279,6.024a.5.5,0,0,1-.589-.8l1.631-1.5-1.042.6A.5.5,0,0,1,.569,3.7L1.216,2.17a.5.5,0,0,1-.352-.923L1.992.6a.5.5,0,0,1,.71.629l-.63,1.486L5.735.6a.5.5,0,0,1,.589.8L4.693,2.9,8.68.6a.5.5,0,0,1,.569.817L5.914,4.178,12.116.6a.5.5,0,0,1,.54.84L9.832,3.45,14.775.6a.5.5,0,0,1,.527.849l-.546.362L16.854.6a.5.5,0,0,1,.534.844L11.821,5.266,19.909.6a.5.5,0,0,1,.526.85L15.467,4.72,22.608.6a.5.5,0,0,1,.517.855l-.03.02L24.61.6a.5.5,0,0,1,.521.852L18.646,5.628,27.36.6a.5.5,0,0,1,.525.85L18.128,7.855,30.7.6a.5.5,0,0,1,.519.854L25.359,5.188,33.313.6a.5.5,0,0,1,.52.854L27.745,5.337,35.957.6a.5.5,0,0,1,.524.85L26.9,7.729,39.255.6a.5.5,0,0,1,.519.853L33.01,5.788,42,.6a.5.5,0,0,1,.526.849l-10.6,7.03L45.575.6a.5.5,0,0,1,.521.852L38.485,6.356,48.463.6a.5.5,0,0,1,.528.847l-11.468,7.7L52.326.6a.5.5,0,0,1,.517.855L49.74,3.4,54.288.779a.5.5,0,0,1,.521.854L48.147,5.908l6.574-3.8a.5.5,0,0,1,.532.846L44.994,9.974,56.039,3.6a.5.5,0,0,1,.528.848l-6.688,4.47,8.59-4.959A.5.5,0,0,1,59,4.8L51.039,10.29,58.72,5.856a.5.5,0,0,1,.529.848L55.57,9.176l3.151-1.82a.5.5,0,0,1,.527.849l-.841.561.314-.181a.5.5,0,0,1,.544.837l-3.223,2.341,2.679-1.546a.5.5,0,0,1,.571.816L55.187,14.47a.506.506,0,0,1,.139.1.5.5,0,0,1,.075.606l-.391.663a.5.5,0,0,1,.125.918l-1.123.647a.5.5,0,0,1-.681-.687l.242-.411-1.9,1.1a.5.5,0,0,1-.571-.816l3.138-2.627L48.273,17.4a.5.5,0,0,1-.544-.837l3.222-2.339-5.5,3.176a.5.5,0,0,1-.527-.848L45.752,16l-2.433,1.4a.5.5,0,0,1-.529-.847l3.687-2.477L40.719,17.4a.5.5,0,0,1-.534-.844l7.961-5.489L37.177,17.4a.5.5,0,0,1-.529-.848l6.688-4.47L34.125,17.4a.5.5,0,0,1-.532-.845L43.852,9.543,30.237,17.4a.5.5,0,0,1-.52-.853l6.668-4.279L27.493,17.4A.5.5,0,0,1,27.243,17.471Z"/><path class="cls-2" d="M18.582,17.471a.5.5,0,0,1-.266-.924l2.7-1.7L16.6,17.4a.5.5,0,0,1-.52-.853L22.8,12.243,13.857,17.4a.5.5,0,0,1-.522-.851l8.5-5.517L10.8,17.4a.5.5,0,0,1-.525-.85l9.5-6.218L7.53,17.4a.5.5,0,0,1-.522-.852l8.438-5.474L4.488,17.4a.5.5,0,0,1-.52-.853l7.124-4.576L1.863,17.3a.5.5,0,0,1-.524-.851l9.6-6.3L1.28,15.722a.5.5,0,0,1-.518-.855l2.592-1.646-2.074,1.2a.5.5,0,0,1-.524-.851l5.25-3.449L1.279,12.846a.5.5,0,0,1-.541-.84L8.28,6.618l-7,4.042a.5.5,0,0,1-.538-.841L4.786,6.966,1.279,8.99a.5.5,0,0,1-.554-.829L4.5,5.267,1.279,7.123a.5.5,0,0,1-.571-.815L3.072,4.325,1.279,5.36a.5.5,0,0,1-.66-.147.5.5,0,0,1,.092-.671l.354-.293a.51.51,0,0,1-.371-.128.5.5,0,0,1-.122-.575l.612-1.37a.509.509,0,0,1-.5-.245.5.5,0,0,1,.183-.684L1.992.6a.5.5,0,0,1,.707.637L2.113,2.547,5.494.6a.5.5,0,0,1,.568.818l-.126.1,1.6-.924a.5.5,0,0,1,.571.815L5.744,3.392l4.85-2.8a.5.5,0,0,1,.554.829L7.38,4.313,13.831.589a.5.5,0,0,1,.538.841L10.321,4.285l6.407-3.7a.5.5,0,0,1,.67.162.5.5,0,0,1-.129.678L9.726,6.814,20.517.585a.5.5,0,0,1,.524.851L15.793,4.884l7.449-4.3a.5.5,0,0,1,.519.855L21.173,3.082l4.332-2.5a.5.5,0,0,1,.524.851l-9.6,6.308L28.827.579a.5.5,0,0,1,.521.854L22.22,6.012,31.634.577a.5.5,0,0,1,.522.853L23.72,6.9,34.679.575a.5.5,0,0,1,.524.851l-9.5,6.22L37.956.573a.5.5,0,0,1,.523.852l-8.5,5.517L41.014.571a.5.5,0,0,1,.519.854l-6.719,4.3,8.94-5.16a.5.5,0,0,1,.516.857L41.579,3.115,45.993.567a.5.5,0,0,1,.527.85L35.9,8.46,46.362,2.418a.5.5,0,0,1,.533.846L37.152,9.915,46.366,4.6a.5.5,0,0,1,.534.843l-7.229,5.006,6.7-3.867a.5.5,0,0,1,.532.846L43.124,10.01l3.249-1.876a.5.5,0,0,1,.559.826l-5.17,4.057,4.615-2.664a.5.5,0,0,1,.587.8L43.592,14.23l2.789-1.609a.5.5,0,0,1,.6.791l-1.153,1.124.558-.322a.5.5,0,0,1,.68.685l-.458.782a.5.5,0,0,1,.281.931l-1.368.79a.5.5,0,0,1-.681-.685l.4-.69L42.859,17.4a.5.5,0,0,1-.6-.791l1.153-1.123L40.1,17.4a.5.5,0,0,1-.587-.8l3.372-3.077L36.163,17.4a.5.5,0,0,1-.559-.826l5.169-4.056L32.316,17.4a.5.5,0,0,1-.532-.845l3.778-2.585L29.619,17.4a.5.5,0,0,1-.534-.843l7.227-5L26.183,17.4a.5.5,0,0,1-.533-.845L35.4,9.9,22.405,17.4a.5.5,0,0,1-.526-.849L32.5,9.514,18.832,17.4A.5.5,0,0,1,18.582,17.471Z"/><path class="cls-2" d="M4.071,38.471a.5.5,0,0,1-.307-.894l5.3-4.141L1.4,37.859a.5.5,0,0,1-.546-.835L7.518,32.1,1.28,35.7a.5.5,0,0,1-.533-.845l3.47-2.384-2.938,1.7a.5.5,0,0,1-.547-.835L7.549,28.3l-6.27,3.619a.5.5,0,0,1-.539-.84l4.678-3.323-4.139,2.39a.5.5,0,0,1-.56-.825l4.406-3.5-3.846,2.22a.5.5,0,0,1-.551-.831l1.02-.774-.469.27A.5.5,0,0,1,.7,25.9l1-.875-.423.244a.5.5,0,0,1-.709-.632L1.2,23.173a.509.509,0,0,1-.521-.242.5.5,0,0,1,.182-.683L1.993,21.6a.5.5,0,0,1,.709.632L2.09,23.642l3.556-2.054a.5.5,0,0,1,.58.809l-1,.877,2.93-1.691a.5.5,0,0,1,.552.831l-1.019.774,2.79-1.611a.5.5,0,0,1,.56.824l-4.4,3.5,7.5-4.332a.5.5,0,0,1,.539.84L9.989,25.735,14.723,23a.5.5,0,0,1,.547.835L8.455,28.872l6.272-3.62a.5.5,0,0,1,.533.845l-3.471,2.385,2.94-1.7a.5.5,0,0,1,.547.835L8.607,32.542l6.127-3.537a.5.5,0,0,1,.558.826l-5.3,4.142,4.743-2.738a.5.5,0,0,1,.574.815l-3.188,2.7,2.618-1.512a.5.5,0,0,1,.57.818l-.626.518.058-.033a.5.5,0,0,1,.705.64l-.718,1.58.017-.01a.5.5,0,1,1,.5.865l-1.367.789a.5.5,0,0,1-.7-.639l.718-1.579L10.05,38.4a.5.5,0,0,1-.57-.817l.632-.523L7.789,38.4a.5.5,0,0,1-.573-.814l3.187-2.7L4.321,38.4A.493.493,0,0,1,4.071,38.471Z"/><path class="cls-2" d="M11.244,59.471a.5.5,0,0,1-.269-.921l1.772-1.138L9.3,59.4a.5.5,0,0,1-.528-.847l9.7-6.516L5.715,59.4a.5.5,0,0,1-.515-.856l.6-.376L3.667,59.4a.5.5,0,0,1-.517-.855l2.921-1.837L1.716,59.226a.5.5,0,0,1-.529-.848L12.669,50.64,1.28,57.215a.5.5,0,0,1-.519-.854l3.247-2.08L1.28,55.855a.5.5,0,0,1-.531-.846l6.924-4.7L1.279,54a.5.5,0,0,1-.523-.852L1.75,52.5l-.471.272a.5.5,0,0,1-.54-.84l4.5-3.2L1.279,51.017a.5.5,0,0,1-.557-.828l4.023-3.137-3.466,2a.5.5,0,0,1-.558-.826l1.606-1.262-1.048.6a.5.5,0,0,1-.6-.787l1.418-1.413-.815.47a.5.5,0,0,1-.695-.66l.51-1a.5.5,0,0,1-.23-.933L1.992,42.6a.5.5,0,0,1,.7.66l-.445.871L4.9,42.594a.5.5,0,0,1,.6.787L4.085,44.8l3.818-2.2a.5.5,0,0,1,.559.826L6.855,44.679l3.623-2.091a.5.5,0,0,1,.557.827L7.011,46.554l6.874-3.969a.5.5,0,0,1,.54.84l-4.5,3.2,7-4.041a.5.5,0,0,1,.523.852l-1,.649,2.606-1.5a.5.5,0,0,1,.532.847l-6.924,4.7,9.612-5.549a.5.5,0,0,1,.52.854L19.563,45.5l5.078-2.931a.5.5,0,0,1,.529.848L13.688,51.159l14.877-8.59a.5.5,0,0,1,.517.856l-2.938,1.847,4.576-2.641a.5.5,0,0,1,.514.856l-.6.377.092-.052a.5.5,0,0,1,.528.847l-9.7,6.516,9.176-5.3a.5.5,0,0,1,.519.853l-1.768,1.135,1.251-.721a.5.5,0,0,1,.536.842l-6.789,4.742,6.256-3.613a.5.5,0,0,1,.538.842L27.1,52.885l3.634-2.1a.5.5,0,0,1,.559.826l-4.352,3.42,3.8-2.192a.5.5,0,0,1,.552.831l-1.138.862.589-.34a.5.5,0,0,1,.6.792l-1.575,1.524.98-.566a.5.5,0,0,1,.682.685l-.576.99a.5.5,0,0,1,.4.91l-1.514.874a.5.5,0,0,1-.681-.684l.564-.969L26.752,59.4a.5.5,0,0,1-.6-.792l1.575-1.522L23.717,59.4a.5.5,0,0,1-.552-.831l1.134-.859L21.371,59.4a.5.5,0,0,1-.559-.826l4.355-3.422L17.809,59.4a.5.5,0,0,1-.538-.841l4.17-2.927L14.913,59.4a.5.5,0,0,1-.536-.842l6.789-4.741L11.494,59.4A.5.5,0,0,1,11.244,59.471Z"/><path class="cls-3" d="M5.785,17.494a.5.5,0,0,1-.383-.821l1.386-1.652-1.508.87a.5.5,0,0,1-.623-.766L6.551,13l-1.271.732a.5.5,0,0,1-.589-.8l.659-.608-.07.039a.5.5,0,0,1-.616-.773L6.351,9.778,5.28,10.4a.5.5,0,0,1-.624-.765l1.9-2.138L5.28,8.229a.5.5,0,0,1-.6-.789L5.864,6.268,5.28,6.6a.5.5,0,0,1-.592-.8l.8-.753-.208.12A.5.5,0,0,1,4.7,4.369l.422-.376a.505.505,0,0,1-.381-.087.5.5,0,0,1-.2-.506l.33-1.608A.5.5,0,0,1,4.78.885L5.287.593A.508.508,0,0,1,5.83.621a.5.5,0,0,1,.2.506L5.743,2.512,8.721.793A.5.5,0,0,1,9.3,1.6l-.421.375a.508.508,0,0,1,.491.194.5.5,0,0,1-.059.662l-.8.752.21-.121a.5.5,0,0,1,.6.788L8.14,5.424l.589-.34a.5.5,0,0,1,.624.765l-1.9,2.136,1.277-.737a.5.5,0,0,1,.617.773L7.662,9.836l1.074-.62a.5.5,0,0,1,.589.8l-.66.609.074-.042a.5.5,0,0,1,.623.766L7.47,13.472l1.273-.735a.5.5,0,0,1,.633.754L7.991,15.143l.755-.436a.5.5,0,0,1,.733.564l-.264.959a.5.5,0,0,1,.034.884l-.506.292a.5.5,0,0,1-.732-.564l.181-.66L6.035,17.427A.489.489,0,0,1,5.785,17.494Z"/><path class="cls-3" d="M14.948,17.485a.494.494,0,0,1-.355-.148.5.5,0,0,1-.074-.608l1.065-1.791-2.3,1.331a.5.5,0,0,1-.608-.782L14.12,14l-.84.484a.5.5,0,0,1-.6-.791l1.1-1.073-.5.289a.5.5,0,0,1-.616-.772l1.7-1.83-1.08.624a.5.5,0,0,1-.581-.808l.373-.329a.512.512,0,0,1-.449-.207.5.5,0,0,1,.079-.668l.324-.283a.5.5,0,0,1-.361-.842l1.644-1.756L13.28,6.63a.5.5,0,0,1-.588-.8l.567-.518a.5.5,0,0,1-.572-.808l.839-.793-.246.142a.5.5,0,0,1-.739-.537l.323-1.524a.5.5,0,0,1-.267-.222A.5.5,0,0,1,12.78.885l.507-.292a.5.5,0,0,1,.739.537l-.274,1.294L16.721.71a.5.5,0,0,1,.593.8l-.836.791.245-.142a.5.5,0,0,1,.588.8l-.569.52a.5.5,0,0,1,.6.784L15.7,6.017l1.033-.6a.5.5,0,0,1,.579.809l-.324.283a.5.5,0,0,1,.328.875l-.371.327a.516.516,0,0,1,.433.186.5.5,0,0,1-.024.652l-1.7,1.832,1.086-.627a.5.5,0,0,1,.6.791l-1.1,1.073.5-.291a.5.5,0,0,1,.609.781L15.9,13.6l.843-.487a.5.5,0,0,1,.68.689l-1.066,1.79.391-.225a.5.5,0,1,1,.5.865L15.2,17.418A.489.489,0,0,1,14.948,17.485Z"/><path class="cls-3" d="M7.207,38.483a.493.493,0,0,1-.362-.156.5.5,0,0,1-.057-.616L7.442,36.7,5.28,37.95a.5.5,0,0,1-.628-.76l2.02-2.335-1.392.8a.5.5,0,0,1-.627-.761l1.989-2.284L5.28,33.4a.5.5,0,0,1-.589-.8l.651-.6-.062.035a.5.5,0,0,1-.611-.778l1.54-1.612-.929.536a.5.5,0,0,1-.627-.761L6.636,27.14l-1.356.782a.5.5,0,0,1-.621-.768l1.811-2-1.19.687a.5.5,0,0,1-.6-.787l.7-.7-.1.057a.5.5,0,0,1-.734-.558l.28-1.076a.49.49,0,0,1-.229-.206.5.5,0,0,1,.183-.683l.507-.292a.5.5,0,0,1,.734.559l-.207.793L8.2,21.571a.5.5,0,0,1,.6.787l-.7.7.625-.361a.5.5,0,0,1,.621.768l-1.811,2,1.194-.689a.5.5,0,0,1,.627.761l-1.984,2.28,1.361-.785a.5.5,0,0,1,.612.779L7.8,29.422l.929-.536a.5.5,0,0,1,.589.8l-.652.6.066-.038a.5.5,0,0,1,.627.761L7.375,33.3l1.365-.788a.5.5,0,0,1,.628.76L7.349,35.6l1.4-.806a.5.5,0,0,1,.669.7L8.76,36.51a.5.5,0,0,1,.488.872L7.457,38.416A.489.489,0,0,1,7.207,38.483Z"/><path class="cls-3" d="M13.979,38.493a.5.5,0,0,1-.388-.814l1.325-1.642-1.636.944a.5.5,0,0,1-.579-.808l.35-.307a.5.5,0,0,1-.426-.207.5.5,0,0,1,.071-.665l.45-.4a.5.5,0,0,1-.459-.85l.865-.818-.272.156a.5.5,0,0,1-.611-.778l1.543-1.615-.932.537a.5.5,0,0,1-.588-.8l.609-.559-.021.011a.5.5,0,0,1-.592-.8l.76-.71-.168.1a.5.5,0,0,1-.608-.781L14.1,26.215l-.819.473a.5.5,0,0,1-.621-.768l1.716-1.9-1.1.631a.5.5,0,0,1-.737-.545l.306-1.32a.494.494,0,0,1-.252-.216.5.5,0,0,1,.183-.683l.507-.292a.506.506,0,0,1,.548.032.5.5,0,0,1,.189.514l-.248,1.069,2.841-1.64a.5.5,0,0,1,.621.768l-1.716,1.9,1.2-.693a.5.5,0,0,1,.608.781L15.9,25.793l.824-.475a.5.5,0,0,1,.591.8l-.759.71.169-.1a.5.5,0,0,1,.588.8l-.61.561.025-.014a.5.5,0,0,1,.612.778L15.8,30.468l.932-.538a.5.5,0,0,1,.594.8l-.867.82.276-.159a.5.5,0,0,1,.584.8l-.448.4a.5.5,0,0,1,.446.862l-.348.306a.534.534,0,0,1,.4.175.5.5,0,0,1,.009.639l-1.325,1.642.69-.4a.5.5,0,0,1,.73.574l-.248.845a.5.5,0,0,1,.02.877l-.506.292a.5.5,0,0,1-.729-.573l.153-.525-1.938,1.118A.489.489,0,0,1,13.979,38.493Z"/><path class="cls-3" d="M23.177,17.483a.5.5,0,0,1-.416-.777l.628-.939L21.28,16.983a.5.5,0,0,1-.613-.775l1.617-1.715-1,.579a.5.5,0,0,1-.607-.782l1.419-1.452-.812.468a.5.5,0,0,1-.6-.792L21.731,11.5l-.451.26a.5.5,0,0,1-.615-.774l1.67-1.792L21.28,9.8a.5.5,0,0,1-.6-.787l1.235-1.231-.633.365a.5.5,0,0,1-.628-.759l1.995-2.3-1.367.789a.5.5,0,0,1-.629-.759l1.9-2.2-1.274.734a.5.5,0,0,1-.737-.545l.306-1.317a.494.494,0,0,1-.252-.216A.5.5,0,0,1,20.78.885l.507-.292a.5.5,0,0,1,.548.032.5.5,0,0,1,.189.515l-.247,1.065L24.612.568a.5.5,0,0,1,.629.759l-1.9,2.2,1.384-.8a.5.5,0,0,1,.628.76l-2,2.3L24.729,5a.5.5,0,0,1,.6.787L24.1,7.021l.634-.367a.5.5,0,0,1,.617.774L23.676,9.221l1.059-.612a.5.5,0,0,1,.6.792l-1.048,1.016.453-.262a.5.5,0,0,1,.608.783L23.928,12.39l.813-.47a.5.5,0,0,1,.613.775l-1.618,1.716,1.009-.582a.5.5,0,0,1,.666.71l-.63.943a.5.5,0,0,1,.467.883l-1.821,1.051A.489.489,0,0,1,23.177,17.483Z"/><path class="cls-3" d="M30.028,17.492a.5.5,0,0,1-.36-.846l.5-.522-.891.514a.5.5,0,0,1-.589-.8l.653-.6-.064.036a.5.5,0,0,1-.617-.771l1.733-1.88-1.116.644a.5.5,0,0,1-.619-.77l1.774-1.941-1.155.666a.5.5,0,0,1-.623-.766l1.881-2.108-1.258.725a.5.5,0,0,1-.6-.787l1.229-1.223-.627.361a.5.5,0,0,1-.594-.795l.913-.87-.319.183a.5.5,0,0,1-.588-.8l.6-.554-.015.008a.5.5,0,0,1-.627-.762l.775-.887-.148.085a.5.5,0,0,1-.725-.586l.223-.694a.5.5,0,0,1,0-.865l.507-.292a.5.5,0,0,1,.726.587l-.108.336,1.626-.94a.5.5,0,0,1,.627.762l-.775.888,1.339-.773a.5.5,0,0,1,.588.8l-.6.553.017-.009a.5.5,0,0,1,.594.8l-.913.87.321-.185a.5.5,0,0,1,.6.787L32.1,6.29l.631-.364a.5.5,0,0,1,.624.765L31.474,8.8l1.26-.728a.5.5,0,0,1,.62.77L31.58,10.783l1.158-.669a.5.5,0,0,1,.617.772l-1.733,1.881,1.12-.647a.5.5,0,0,1,.589.8l-.649.6.062-.037a.5.5,0,0,1,.61.78l-.525.545a.5.5,0,0,1,.648.613l-.244.818a.5.5,0,0,1,.2.193.5.5,0,0,1-.183.682l-.506.292a.5.5,0,0,1-.729-.575l.146-.492-1.882,1.086A.489.489,0,0,1,30.028,17.492Z"/><path class="cls-3" d="M40.311,17.476a.5.5,0,0,1-.481-.64l.339-1.166L37.28,17.337a.5.5,0,0,1-.625-.763L38.6,14.362l-1.323.763a.5.5,0,0,1-.61-.779l1.518-1.582-.908.524a.5.5,0,0,1-.628-.761l2-2.3-1.371.792a.5.5,0,0,1-.594-.795l.916-.873-.322.185a.5.5,0,0,1-.625-.763L38.573,6.6l-1.293.746a.5.5,0,0,1-.614-.776l1.615-1.715-1,.577a.5.5,0,0,1-.595-.794l.958-.919-.363.209a.5.5,0,0,1-.74-.533l.329-1.6A.5.5,0,0,1,36.78.885l.507-.292a.508.508,0,0,1,.543.028.5.5,0,0,1,.2.506l-.283,1.378L40.721.786a.5.5,0,0,1,.6.794l-.96.921.368-.212a.5.5,0,0,1,.614.775L39.725,4.778l1-.578a.5.5,0,0,1,.625.764L39.433,7.136l1.3-.749a.5.5,0,0,1,.6.8l-.915.872.323-.187a.5.5,0,0,1,.628.761l-2,2.3,1.377-.795a.5.5,0,0,1,.611.779L39.83,12.5l.911-.525a.5.5,0,0,1,.625.762l-1.947,2.213,1.326-.765a.5.5,0,0,1,.731.572l-.387,1.331a.5.5,0,0,1,.16.925l-.688.4A.506.506,0,0,1,40.311,17.476Z"/><path class="cls-3" d="M47.705,17.479a.5.5,0,0,1-.455-.707l.644-1.413L45.28,16.867a.5.5,0,0,1-.619-.769l1.777-1.944-1.158.668a.5.5,0,0,1-.59-.8l.708-.657-.118.068a.5.5,0,0,1-.6-.786l1.294-1.3-.69.4a.5.5,0,0,1-.592-.8l.788-.737-.2.112a.5.5,0,0,1-.614-.774L46.3,7.805,45.28,8.4a.5.5,0,0,1-.625-.763l1.931-2.194-1.306.753a.5.5,0,0,1-.653-.136.5.5,0,0,1,.065-.665l.564-.515a.5.5,0,0,1-.583-.8l.8-.815-.192.11a.5.5,0,0,1-.733-.561l.275-1.04a.494.494,0,0,1-.225-.2A.5.5,0,0,1,44.78.885l.507-.292a.5.5,0,0,1,.734.561l-.2.754L48.136.572a.5.5,0,0,1,.607.782l-.8.814.777-.448a.5.5,0,0,1,.588.8l-.561.513a.5.5,0,0,1,.6.777l-1.933,2.2,1.312-.757a.5.5,0,0,1,.614.774L47.706,7.77l1.026-.592a.5.5,0,0,1,.592.8l-.786.736.2-.113a.5.5,0,0,1,.605.785l-1.294,1.3.692-.4a.5.5,0,0,1,.59.8l-.707.657.12-.069a.5.5,0,0,1,.619.769l-1.777,1.944,1.162-.67a.5.5,0,0,1,.705.64l-.646,1.42a.5.5,0,0,1,.445.894l-1.294.746A.5.5,0,0,1,47.705,17.479Z"/><path class="cls-3" d="M5.3,59.5a.5.5,0,0,1-.358-.849l1.182-1.214-.839.483a.5.5,0,0,1-.628-.761l2.005-2.309-1.377.8a.5.5,0,0,1-.579-.809l.343-.3a.481.481,0,0,1-.4-.183.5.5,0,0,1,.013-.649l1.91-2.155-1.286.742a.5.5,0,0,1-.6-.787l1.233-1.229-.631.365a.5.5,0,0,1-.625-.764l1.927-2.186-1.3.751a.5.5,0,0,1-.609-.78l1.463-1.513-.854.493a.5.5,0,0,1-.624-.764l.794-.9-.17.1a.5.5,0,0,1-.727-.582l.232-.739a.5.5,0,0,1,0-.869l.507-.292a.5.5,0,0,1,.728.583l-.123.392,1.718-.992a.5.5,0,0,1,.624.764l-.792.895,1.28-.738a.5.5,0,0,1,.609.78L7.866,45.792l.86-.5a.5.5,0,0,1,.625.764L7.424,48.245l1.3-.753a.5.5,0,0,1,.6.787L8.1,49.509l.635-.366a.5.5,0,0,1,.624.764L7.448,52.061l1.288-.745a.5.5,0,0,1,.579.809l-.34.3a.508.508,0,0,1,.4.181.5.5,0,0,1-.008.647L7.359,55.563l1.384-.8a.5.5,0,0,1,.609.781L8.17,56.761l.576-.332a.5.5,0,0,1,.672.7l-.364.571a.5.5,0,0,1,.2.93L7.9,59.413a.5.5,0,0,1-.672-.7l.252-.4-1.93,1.114A.489.489,0,0,1,5.3,59.5Z"/><path class="cls-3" d="M14.4,59.489a.5.5,0,0,1-.4-.8l1.151-1.551L13.28,58.221a.5.5,0,0,1-.625-.763L14.6,55.243l-1.324.764a.5.5,0,0,1-.591-.8l.732-.681-.141.081a.5.5,0,0,1-.6-.79l1.1-1.07-.5.287a.5.5,0,0,1-.594-.795l.917-.873-.323.186a.5.5,0,0,1-.626-.762l1.96-2.241-1.334.769a.5.5,0,0,1-.581-.807l.381-.336a.512.512,0,0,1-.452-.2.5.5,0,0,1,.062-.663l.689-.64-.1.057a.5.5,0,0,1-.639-.747l.967-1.2-.328.189a.5.5,0,0,1-.723-.592l.212-.633a.512.512,0,0,1-.172-.177.5.5,0,0,1,.183-.683l.507-.292a.5.5,0,0,1,.724.593l-.086.257,1.5-.866a.5.5,0,0,1,.639.746l-.966,1.2,1.623-.936a.5.5,0,0,1,.59.8l-.691.641.1-.059a.5.5,0,0,1,.581.807l-.38.336a.511.511,0,0,1,.437.18.5.5,0,0,1-.01.647l-1.96,2.241,1.338-.773a.5.5,0,0,1,.595.8l-.914.871.321-.185a.5.5,0,0,1,.6.79l-1.1,1.071.5-.289a.5.5,0,0,1,.591.8l-.73.68.142-.083a.5.5,0,0,1,.625.763l-1.948,2.215,1.327-.766a.5.5,0,0,1,.652.731L16.243,57.35l.5-.291a.5.5,0,0,1,.724.593l-.206.606a.49.49,0,0,1,.167.174.5.5,0,0,1-.183.682l-.506.292a.5.5,0,0,1-.723-.593l.076-.224-1.444.833A.489.489,0,0,1,14.4,59.489Z"/><path class="cls-3" d="M22.136,59.491a.5.5,0,0,1-.36-.847l.366-.377-.862.5a.5.5,0,0,1-.6-.788l1.22-1.21-.618.356a.5.5,0,0,1-.6-.791l1.079-1.05-.481.278a.5.5,0,0,1-.629-.759l2.032-2.36-1.4.81a.5.5,0,0,1-.6-.786l1.278-1.28-.675.388a.5.5,0,0,1-.622-.766l1.858-2.075-1.236.713a.5.5,0,0,1-.628-.76L22.638,46.4l-1.358.784a.5.5,0,0,1-.586-.8l.493-.445a.512.512,0,0,1-.45-.07.5.5,0,0,1-.2-.507l.325-1.565a.5.5,0,0,1-.086-.9l.506-.292a.5.5,0,0,1,.739.534l-.278,1.339,2.974-1.717a.5.5,0,0,1,.586.8L24.814,44a.5.5,0,0,1,.537.8l-1.986,2.285,1.362-.786a.5.5,0,0,1,.622.766L23.49,49.143l1.241-.717a.5.5,0,0,1,.6.786l-1.277,1.28.676-.39a.5.5,0,0,1,.629.758l-2.031,2.359,1.406-.812a.5.5,0,0,1,.6.791l-1.081,1.051.485-.279a.5.5,0,0,1,.648.129.5.5,0,0,1-.045.659l-1.221,1.21.621-.359a.5.5,0,0,1,.61.781l-.444.458a.5.5,0,0,1,.56.656l-.242.7a.5.5,0,0,1,.021.878l-.57.33a.5.5,0,0,1-.723-.6l.128-.367-1.7.98A.489.489,0,0,1,22.136,59.491Z"/><path class="cls-3" d="M30.527,59.488a.5.5,0,0,1-.41-.785l1.19-1.713L29.28,58.16a.5.5,0,0,1-.626-.762l1.972-2.253-1.346.776a.5.5,0,0,1-.587-.8l.562-.514a.5.5,0,0,1-.594-.784L30.422,51.9l-1.142.66a.5.5,0,0,1-.581-.808l.382-.338a.509.509,0,0,1-.443-.187.5.5,0,0,1,.029-.654l1.591-1.682-.978.564a.5.5,0,0,1-.619-.77l1.751-1.912-1.132.654a.5.5,0,0,1-.6-.79L29.8,45.541l-.517.3a.5.5,0,0,1-.739-.536l.321-1.514a.49.49,0,0,1-.264-.221.5.5,0,0,1,.182-.682l.506-.292a.5.5,0,0,1,.739.536l-.272,1.282L32.721,42.7a.5.5,0,0,1,.6.79L32.2,44.583l.52-.3a.5.5,0,0,1,.619.771l-1.751,1.91,1.135-.654a.5.5,0,0,1,.613.776l-1.59,1.682.98-.567a.5.5,0,0,1,.582.808l-.381.337a.5.5,0,0,1,.421.835L31.59,52.1l1.146-.662a.5.5,0,0,1,.587.8l-.56.513a.5.5,0,0,1,.6.774l-1.971,2.255,1.349-.779a.5.5,0,0,1,.66.718l-1.189,1.713.533-.308a.5.5,0,1,1,.5.865l-2.47,1.426A.489.489,0,0,1,30.527,59.488Z"/><path class="cls-4" d="M55.425,16.593a1.257,1.257,0,0,1-.292.257C55.1,16.965,55.157,16.93,55.425,16.593Z"/><path class="cls-4" d="M58.588,3.693a.5.5,0,0,0-.2-.02c-.031,0-.045-.009-.082-.009-.456,0-1.756.228-2.109,0-.9-.579-.016-1.388-.469-1.858-.769-.8-.2-.7-1.422-1.142-.932-.337-2.611,0-3.583,0H49.581a1.045,1.045,0,0,0-.886,0H45.579a1.051,1.051,0,0,0-.874,0H41.586a1.033,1.033,0,0,0-.906,0H37.616a1.061,1.061,0,0,0-.681,0H29.528a1.221,1.221,0,0,0-.353,0H25.592a1.013,1.013,0,0,0-.938,0H21.6a.989.989,0,0,0-.994,0H13.63a.915.915,0,0,0-1.152,0H9.6a1.01,1.01,0,0,0-.951,0H8.635c-1.664,0-6.6-.925-8,.657-1,1.121-.354,4.15-.354,5.42,0,2.388-.991,7.266,0,9.453.973,2.15,5.972,1.242,8.142,1.151a1.022,1.022,0,0,0,.938-.009H12.37a.915.915,0,0,0,1.152,0H20.4a.989.989,0,0,0,.994,0h3.017a1.013,1.013,0,0,0,.938,0h3.126a1.22,1.22,0,0,0,.353,0h7.559a1.068,1.068,0,0,0,.681,0h3.349a1.033,1.033,0,0,0,.906,0h3.1a1.051,1.051,0,0,0,.874,0h3.124a1.045,1.045,0,0,0,.886,0h1.079a13.762,13.762,0,0,0,3.495-.019,4.732,4.732,0,0,0,1.254-.467c.11-.324,1.041-1.865.591-1.433a1.543,1.543,0,0,0-.135-1.081h1.718c1.682-.442,2.013-.368,2.417-2.123C60.147,10.381,60.648,4.546,58.588,3.693ZM48.274,16.664H45.726V1.336h2.548ZM37.724,1.336h2.55V16.664h-2.55ZM36.276,16.664H33.724V1.336h2.552Zm5.45-15.328h2.548V16.664H41.726Zm-10.042,0h.592V16.664H29.724V1.336Zm-13.96,0h2.547V16.664H17.724ZM16.276,16.664H13.735V1.336h2.541ZM21.729,1.336h2.544V16.664H21.729Zm4,0h2.549V16.664H25.727Zm-20,15.577V1.336H8.272V16.9c-.84.061-1.728.106-2.578.1A.26.26,0,0,0,5.725,16.913Zm-4-1.107c-.713-1.324,0-4.981,0-6.5,0-1.244-.874-7.13,0-7.969a7.468,7.468,0,0,1,2.551-.013v15.6C3.062,16.793,2.085,16.475,1.724,15.806Zm8,.978V1.336h2.537V16.664H11.58C11.15,16.664,10.493,16.719,9.728,16.784Zm48.548-4.84c-.565,1.99-.332,1.028-2.083,1.72-.405.16-.864-.031-1.257.279-1.078.849-.279,2.144-1.03,2.721-.607.467-2.989.124-4.18.025V1.336h.658c1.668,0,2.857-.417,3.892.858.6.738-.431,1.316.636,2.113.454.339,1.84.094,2.562.04C58.967,5.13,58.613,10.757,58.276,11.944Z"/><path class="cls-4" d="M55.4,37.789a1.344,1.344,0,0,1-.1.1C55.309,37.891,55.341,37.864,55.4,37.789Z"/><path class="cls-4" d="M.266,37.055c.89,2.478,5.222,1.474,7.336,1.474h1.12a1.033,1.033,0,0,0,.314,0H49.511c1.222,0,3.21.368,4.4,0a3.071,3.071,0,0,0,1.386-.643c-.086-.035.677-1.55.438-1.33a1.786,1.786,0,0,1,.092-1.027h1.719c2.219-.626,2.189-1.336,2.189-3.659,0-2.086,1.079-6.365-1.316-7.358a.659.659,0,0,0-.308-.035c-.017,0-.028-.006-.045-.006-.424,0-1.8.225-2.11,0-.524-.384.068-1.173-.221-1.526-.915-1.116.1-.8-1.316-1.433-.744-.332-2.16-.041-2.931-.041H9.818c-1.923,0-7.529-1.093-9.131.609C-.383,23.216.266,26.3.266,27.6.266,30.212-.62,34.588.266,37.055ZM13.724,22.529h2.552V37.471H13.724Zm19.184,0H51.125a6.776,6.776,0,0,1,2.2,0c.919.45.293.618.944,1.638,1.023,1.6,1.218,1.389,3.374,1.366,1.08.675,1.115,6.956.626,7.93-.875,1.744-2.816.231-3.959,1.955-1.009,1.522.378,1.541-1.424,2.053-1.538.436-3.909,0-5.5,0H17.724V22.529Zm-20.632,0V37.471H9.818l-.083,0V22.529Zm-4.011,0V37.556c-.792.063-1.678.139-2.541.158V22.526l.063,0Zm-6.1,0A4.287,4.287,0,0,1,4.276,22.4v15.27c-1.206-.112-2.2-.454-2.542-1.3-.789-1.92,0-5.888,0-7.923C1.734,27.28,1.119,23.265,2.16,22.529Z"/><path class="cls-4" d="M58.642,45.692a.483.483,0,0,0-.358-.1c-.455,0-1.758.228-2.11,0-.856-.554-.017-1.335-.45-1.79-.757-.8-.222-.757-1.44-1.21-.921-.342-2.62,0-3.583,0H29.408a1.141,1.141,0,0,0-.44,0H25.461a1.1,1.1,0,0,0-.555,0H13.434a1.111,1.111,0,0,0-.494,0H9.547a.974.974,0,0,0-.91,0h-.02c-1.692,0-6.6-.926-8,.686-.984,1.133-.343,4.186-.343,5.459,0,2.428-.976,7.216,0,9.453s6,1.3,8.186,1.218a.987.987,0,0,0,.9-.008h3.2a1.111,1.111,0,0,0,.494,0H24.538a1.1,1.1,0,0,0,.556,0h3.5a1.141,1.141,0,0,0,.44,0H50.4a13.725,13.725,0,0,0,3.5-.011,3.592,3.592,0,0,0,1.321-.577c.006-.183.873-1.753.5-1.4a1.366,1.366,0,0,0-.117-1.013h1.719c1.71-.416,2.019-.414,2.4-2.191C60.115,52.384,60.652,46.657,58.642,45.692ZM31.7,43.4h.574V58.6H29.725V43.4Zm-13.978,0h2.552V58.6H17.724ZM16.276,58.6h-2.55V43.4h2.55ZM21.724,43.4h2.55V58.6h-2.55Zm4,0h2.549V58.6H25.726Zm-20,15.4V43.4H8.267V58.833c-.845.062-1.739.109-2.595.1A.232.232,0,0,0,5.724,58.806Zm-4-1c-.721-1.267,0-5.024,0-6.5,0-1.268-.876-7.034.018-7.9a7.4,7.4,0,0,1,2.534-.015V58.868C3.065,58.747,2.088,58.445,1.724,57.806Zm8.009.909V43.4h2.541V58.6h-.712C11.142,58.6,10.493,58.651,9.733,58.715Zm48.543-4.771c-.783,2.61-1.707.62-3.355,1.943-1.046.84-.288,2.136-1.033,2.709-.7.537-3.761,0-4.634,0H33.724V43.4H50.4c1.588,0,2.858-.408,3.873.79.6.706-.411,1.354.646,2.152.493.372,1.878.115,2.6.067C58.947,47.269,58.624,52.781,58.276,53.944Z"/><path class="cls-4" d="M55.431,58.614a1.384,1.384,0,0,1-.211.2C55.218,58.864,55.273,58.821,55.431,58.614Z"/></svg>
