<?xml version="1.0"?>
<svg xmlns="http://www.w3.org/2000/svg" id="Icons" viewBox="0 0 60 60" width="512" height="512"><defs><style>.cls-1{fill:#b9bfcc;}.cls-2{fill:#ccd0da;}.cls-3{fill:#464c56;}.cls-4{fill:#5a616b;}.cls-5{fill:#262626;}</style></defs><path class="cls-1" d="M29.874,59.467a.5.5,0,0,1-.286-.91l.555-.387L28.1,59.349a.5.5,0,0,1-.541-.839l1.906-1.365L25.852,59.23a.5.5,0,0,1-.535-.843l.576-.4-1.9,1.1a.5.5,0,0,1-.55-.833l3.32-2.488-5.186,2.993a.5.5,0,0,1-.57-.817l4.138-3.46-6.4,3.694a.5.5,0,0,1-.578-.81l3.663-3.192-5.492,3.17a.5.5,0,0,1-.571-.817l2.038-1.7-2.884,1.665a.5.5,0,0,1-.653-.728L15.344,54.3l-.8.464a.5.5,0,0,1-.5-.866l2.87-1.657a.5.5,0,0,1,.652.729L16.49,54.427,22.3,51.074a.5.5,0,0,1,.571.817L20.829,53.6l4.97-2.869a.5.5,0,0,1,.578.809l-3.662,3.192,6.931-4a.5.5,0,0,1,.571.816l-4.14,3.461,7.41-4.277a.5.5,0,0,1,.55.833L30.72,54.048,36.1,50.939a.5.5,0,0,1,.534.844l-.578.4,1.761-1.017a.5.5,0,0,1,.541.839l-1.9,1.363,3.259-1.881a.5.5,0,0,1,.536.843l-.558.39,1.553-.9a.5.5,0,0,1,.545.836l-1.633,1.2,2.668-1.54a.5.5,0,0,1,.582.807l-2.944,2.618,4.3-2.481a.5.5,0,0,1,.656.723l-1.384,1.934,1.485-.857a.5.5,0,1,1,.5.865l-3.487,2.014a.5.5,0,0,1-.656-.724l1.384-1.934-6.542,3.777a.5.5,0,0,1-.582-.807l2.943-2.617-6.427,3.71a.5.5,0,0,1-.545-.836l1.635-1.2L30.124,59.4A.5.5,0,0,1,29.874,59.467Z"/><path class="cls-2" d="M28.581,55.471a.5.5,0,0,1-.321-.883l1.033-.868L27.1,54.982a.5.5,0,0,1-.575-.812l3.029-2.6-3.27,1.887a.5.5,0,0,1-.557-.827l2.211-1.721-1.662.959a.5.5,0,0,1-.56-.824l2.573-2.037L26.28,50.173a.5.5,0,0,1-.561-.823l1.962-1.564-1.4.809a.5.5,0,0,1-.632-.755L27.3,45.881l-1.023.59a.5.5,0,0,1-.735-.554l.285-1.141a.488.488,0,0,1-.233-.208.5.5,0,0,1,.183-.683l.5-.29a.5.5,0,0,1,.736.554l-.217.867,2.479-1.432a.5.5,0,0,1,.632.755L28.259,46.3l4.724-2.728a.5.5,0,0,1,.562.824l-1.96,1.561,2.135-1.232a.5.5,0,0,1,.56.824l-2.574,2.038,2.015-1.163a.5.5,0,0,1,.556.827l-2.212,1.722,1.656-.955a.5.5,0,0,1,.575.812l-3.028,2.6,2.453-1.416a.5.5,0,0,1,.571.815l-1.034.869.463-.266a.5.5,0,0,1,.675.7l-.881,1.426a.5.5,0,0,1,.407.907l-1.614.932a.5.5,0,0,1-.676-.7l.87-1.406L28.831,55.4A.493.493,0,0,1,28.581,55.471Z"/><path class="cls-3" d="M9.8,45.471a.5.5,0,0,1-.258-.929l2.66-1.6L7.938,45.4a.5.5,0,0,1-.509-.859l15.355-9.358L5.084,45.4a.5.5,0,0,1-.509-.86l11.253-6.8L2.779,45.276a.5.5,0,0,1-.508-.861l10.715-6.457L1.632,44.514a.5.5,0,0,1-.51-.86l20.9-12.725L1.28,42.9a.5.5,0,0,1-.512-.858l28.081-17.3L1.28,40.664a.5.5,0,0,1-.511-.858L26.79,23.841,1.28,38.568a.5.5,0,0,1-.509-.86L20.606,25.654,1.28,36.813a.5.5,0,0,1-.509-.861L16.6,26.374,1.28,35.218a.5.5,0,0,1-.509-.861l16.81-10.2-16.3,9.411a.5.5,0,0,1-.508-.86l13.15-7.974-12.642,7.3a.5.5,0,0,1-.512-.857l21.5-13.3L1.279,29.983a.5.5,0,0,1-.512-.858L17.439,18.849l-16.16,9.33a.5.5,0,0,1-.515-.857L20.24,15.105,1.279,26.052A.5.5,0,0,1,.765,25.2l15.3-9.568L1.279,24.162a.5.5,0,0,1-.514-.856l11.386-7.1L1.279,22.482a.5.5,0,0,1-.521-.852L16.325,11.586,1.279,20.272a.5.5,0,0,1-.513-.857l4.169-2.592L1.279,18.934a.5.5,0,0,1-.524-.851l12.219-8.037L1.279,16.8a.5.5,0,0,1-.52-.853l6.566-4.231L1.279,15.2a.5.5,0,0,1-.527-.849L8.606,9.106,1.279,13.337a.5.5,0,0,1-.536-.843L8.187,7.3,1.279,11.288a.5.5,0,0,1-.537-.842L5.4,7.187,1.279,9.563a.5.5,0,0,1-.532-.845l.887-.605-.355.2A.5.5,0,0,1,.715,7.5L4.244,4.637,1.279,6.349a.5.5,0,0,1-.556-.828L1.259,5.1a.5.5,0,0,1-.568-.813l.589-.538h0A.5.5,0,0,1,.647,3l.471-.559a.485.485,0,0,1-.227-.206.5.5,0,0,1,.182-.682L2.7.611a.5.5,0,0,1,.632.755l-.077.092L4.746.6a.5.5,0,0,1,.588.8l-.588.539L7.066.6a.5.5,0,0,1,.557.827l-.534.416L9.242.6a.5.5,0,0,1,.565.821L6.278,4.277,12.651.6a.5.5,0,0,1,.533.845l-.883.6L14.811.6a.5.5,0,0,1,.537.841L10.691,4.7,17.8.6a.5.5,0,0,1,.536.842l-7.445,5.2L21.347.6a.5.5,0,0,1,.527.848L14.019,6.693,24.579.6a.5.5,0,0,1,.521.852L18.531,5.682,27.34.6a.5.5,0,0,1,.524.85L15.647,9.483,31.04.6a.5.5,0,0,1,.514.857l-4.174,2.6L33.359.6a.5.5,0,0,1,.522.852L18.312,11.494,37.187.6a.5.5,0,0,1,.515.856L26.309,8.558,40.1.6a.5.5,0,0,1,.514.856l-15.3,9.567L43.37.6a.5.5,0,0,1,.516.856l-19.48,12.22L47.055.6a.5.5,0,0,1,.512.858L30.893,11.732,50.181.6a.5.5,0,0,1,.512.857L29.188,14.76,53.722.6a.5.5,0,0,1,.508.86L41.089,9.426,56.382.6a.5.5,0,0,1,.51.86L40.117,11.64l18.007-10.4a.5.5,0,0,1,.509.86L42.8,11.688,58.7,2.505a.5.5,0,0,1,.51.86L39.359,15.43,58.72,4.252a.5.5,0,0,1,.511.858L33.225,21.066,58.72,6.347a.5.5,0,0,1,.512.858L31.15,24.5,58.72,8.587a.5.5,0,0,1,.509.859L38.305,22.187,58.72,10.4a.5.5,0,0,1,.508.862L48.506,17.723l10.215-5.9a.5.5,0,0,1,.508.861L47.963,19.494l10.758-6.211a.5.5,0,0,1,.509.86L43.887,23.494l14.834-8.563a.5.5,0,0,1,.508.861l-2.663,1.6,2.155-1.244a.5.5,0,0,1,.515.857L36.917,31.019l21.8-12.588a.5.5,0,0,1,.512.858l-13.759,8.5,13.247-7.647a.5.5,0,0,1,.513.857L47.053,28.551l11.668-6.737a.5.5,0,0,1,.512.858L50.27,28.221l8.451-4.879a.5.5,0,0,1,.514.856L49.39,30.355l9.331-5.386a.5.5,0,0,1,.512.857l-3.7,2.293,3.193-1.843a.5.5,0,0,1,.516.856l-7.133,4.5,6.617-3.82a.5.5,0,0,1,.525.849L47.661,36.321l11.06-6.384a.5.5,0,0,1,.524.85l-7.873,5.18,7.349-4.242a.5.5,0,0,1,.531.845l-7.729,5.268,7.2-4.155a.5.5,0,0,1,.54.839l-6.7,4.772,6.159-3.556a.5.5,0,0,1,.552.83L53.965,40.61l4.756-2.745a.5.5,0,0,1,.552.83L56.764,40.6l1.957-1.128a.5.5,0,0,1,.59.8L57.119,42.3l1.6-.924a.5.5,0,0,1,.676.692l-.9,1.484a.5.5,0,0,1,.427.9l-1.614.932a.5.5,0,0,1-.677-.693l.9-1.471L53.75,45.4a.5.5,0,0,1-.59-.8l2.192-2.027-4.9,2.826a.5.5,0,0,1-.553-.83l2.511-1.912L47.663,45.4a.5.5,0,0,1-.553-.83l5.305-4.039L43.979,45.4a.5.5,0,0,1-.54-.84l6.7-4.77L40.42,45.4a.5.5,0,0,1-.531-.845l7.732-5.271L37.027,45.4a.5.5,0,0,1-.524-.85l7.872-5.179L33.931,45.4a.5.5,0,0,1-.526-.849l11.586-7.665L30.243,45.4a.5.5,0,0,1-.516-.855l7.135-4.5L27.591,45.4a.5.5,0,0,1-.513-.857l3.714-2.3L25.325,45.4a.5.5,0,0,1-.514-.856l9.848-6.159L22.507,45.4a.5.5,0,0,1-.513-.857L30.948,39,19.862,45.4a.5.5,0,0,1-.513-.857l12.188-7.555L16.966,45.4a.5.5,0,0,1-.513-.858L30.219,36.04,14,45.4a.5.5,0,0,1-.516-.856L35.8,30.539,10.053,45.4A.5.5,0,0,1,9.8,45.471Z"/><path class="cls-4" d="M8.292,40.471a.5.5,0,0,1-.265-.924L30.066,25.789,5.475,39.987a.5.5,0,0,1-.511-.859l14.251-8.691L5.28,38.481a.5.5,0,0,1-.511-.859L22.358,26.84,5.28,36.7a.5.5,0,0,1-.509-.859l12.4-7.549L5.28,35.158a.5.5,0,0,1-.512-.858L21.627,23.911,5.28,33.349a.5.5,0,0,1-.509-.861l.533-.321-.025.014a.5.5,0,0,1-.516-.856L23.97,19.208,5.279,30a.5.5,0,0,1-.51-.859l3.2-1.95-2.686,1.55a.5.5,0,0,1-.518-.854l15.547-9.9L5.279,26.662a.5.5,0,0,1-.513-.857L10.3,22.373l-5.021,2.9a.5.5,0,0,1-.516-.855L12.5,19.545,5.279,23.714a.5.5,0,0,1-.52-.854l8.965-5.753L5.279,21.982a.5.5,0,0,1-.527-.848l10.321-6.877L5.279,19.911a.5.5,0,0,1-.53-.847L13.105,13.4,5.279,17.919a.5.5,0,0,1-.538-.841l7.215-5.086L5.279,15.847A.5.5,0,0,1,4.745,15l3.541-2.452L5.279,14.286a.5.5,0,0,1-.539-.841L6.952,11.88l-1.673.966a.5.5,0,0,1-.557-.827l2.524-1.97L5.279,11.184a.5.5,0,0,1-.6-.788L6.7,8.39l-1.42.819a.5.5,0,0,1-.707-.635l.618-1.4a.5.5,0,0,1-.326-.928L5.992,5.6a.506.506,0,0,1,.584.061.5.5,0,0,1,.123.574L6.105,7.578,9.537,5.6a.5.5,0,0,1,.6.787L8.118,8.391,12.957,5.6a.5.5,0,0,1,.558.827L10.992,8.393l4.843-2.8a.5.5,0,0,1,.539.84L14.163,8,18.331,5.6a.5.5,0,0,1,.534.843L15.33,8.889l5.7-3.292a.5.5,0,0,1,.538.841l-7.218,5.088L24.623,5.6a.5.5,0,0,1,.53.846L16.8,12.106,28.073,5.6a.5.5,0,0,1,.528.848l-10.327,6.88L31.662,5.6a.5.5,0,0,1,.521.853l-8.96,5.75L34.66,5.6a.5.5,0,0,1,.517.855L27.429,11.33,37.359,5.6a.5.5,0,0,1,.514.857L32.344,9.882,39.768,5.6a.5.5,0,0,1,.518.854l-15.547,9.9L43.365,5.6a.5.5,0,0,1,.511.859L40.689,8.4l4.856-2.8a.5.5,0,0,1,.517.855L26.855,18.569,49.325,5.6a.5.5,0,0,1,.509.86l-.542.327L51.35,5.6a.5.5,0,0,1,.512.858L35.008,16.841,54.243,5.735a.5.5,0,0,1,.51.86l-12.4,7.545L54.72,7a.5.5,0,0,1,.511.859L37.642,18.643,54.72,8.783a.5.5,0,0,1,.51.86L40.978,18.335,54.72,10.4a.5.5,0,0,1,.514.857L33.188,25.02,54.72,12.589a.5.5,0,0,1,.515.856L34.944,26.2,54.721,14.779a.5.5,0,0,1,.51.86l-6.825,4.174,6.315-3.645a.5.5,0,0,1,.514.856L42.476,24.988l12.245-7.069a.5.5,0,0,1,.518.854L40.454,28.2l14.267-8.236a.5.5,0,0,1,.519.853l-12,7.674,11.484-6.629a.5.5,0,0,1,.517.855L47.5,27.633l7.223-4.17a.5.5,0,0,1,.515.856l-2.949,1.853,2.434-1.4a.5.5,0,0,1,.522.851l-6.871,4.468,6.349-3.665a.5.5,0,0,1,.528.848l-7.1,4.755,6.574-3.794a.5.5,0,0,1,.53.847L50.187,32.5l4.534-2.617a.5.5,0,0,1,.541.839l-5.228,3.75,4.687-2.705a.5.5,0,0,1,.535.843l-1.246.864.711-.411a.5.5,0,0,1,.579.809l-3.555,3.112,2.976-1.717a.5.5,0,0,1,.577.811l-.941.811.364-.209a.5.5,0,0,1,.6.786l-.355.356h0a.5.5,0,0,1,.25.933L52.372,40.4a.5.5,0,0,1-.6-.786l.176-.177-1.669.963a.5.5,0,0,1-.577-.811l.942-.812L47.828,40.4a.5.5,0,0,1-.579-.808L50.8,36.483,44.012,40.4a.5.5,0,0,1-.535-.843l1.246-.864L41.766,40.4a.5.5,0,0,1-.541-.839l5.229-3.751L38.5,40.4a.5.5,0,0,1-.53-.846l5.063-3.424-7.4,4.27a.5.5,0,0,1-.529-.847L42.2,34.8l-9.7,5.6a.5.5,0,0,1-.523-.851l6.882-4.475L29.637,40.4a.5.5,0,0,1-.516-.856l2.94-1.847-4.683,2.7a.5.5,0,0,1-.518-.854L34.6,34.632l-10,5.771a.5.5,0,0,1-.519-.853l12-7.67L21.321,40.4a.5.5,0,0,1-.518-.854L35.6,30.115,17.774,40.4a.5.5,0,0,1-.514-.856l12.754-7.96L14.742,40.4a.5.5,0,0,1-.511-.859l6.839-4.183L12.336,40.4a.5.5,0,0,1-.516-.856L32.1,26.8,8.542,40.4A.5.5,0,0,1,8.292,40.471Z"/><path class="cls-5" d="M.274,14.7V40.4c0,2.047-.427,4.9,2.486,5.029,1.757.077,3.535,0,5.293,0H25.268v5.208a35.866,35.866,0,0,0-7.847,1.324c-1.329.412-3.18,1-3.916,2.308-1.613,2.867,4.719,4.1,6.269,4.415a54.47,54.47,0,0,0,18.117.354A23.613,23.613,0,0,0,44.33,57.4c.962-.438,2.375-1.216,2.406-2.443.04-1.563-2.132-2.376-3.3-2.787a33.724,33.724,0,0,0-8.7-1.554V45.425h21.99a.652.652,0,0,0,.073-.012c.039,0,.066.007.11,0a2.829,2.829,0,0,0,2.821-2.843c.015-.968,0-1.938,0-2.907V3.989a4.1,4.1,0,0,0-.359-2.327A2.879,2.879,0,0,0,56.686.575h-34.3c-6.274,0-12.556-.091-18.83,0C2.19.6.7,1.131.339,2.608A8.447,8.447,0,0,0,.274,4.542ZM32.747,54.272a1.383,1.383,0,0,1-.946.22H30.468c-.791,0-1.6.052-2.39,0A1.641,1.641,0,0,1,26.8,53.338a2.483,2.483,0,0,1-.064-.681V45.508h6.536v6.875C33.268,53.051,33.332,53.8,32.747,54.272Zm12.3.3c1.391,1.982-5.447,3.09-6.383,3.242a55.337,55.337,0,0,1-15.17.264,28.842,28.842,0,0,1-6-1.222c-.764-.262-2.588-.8-2.745-1.807-.189-1.2,2.336-1.845,3.106-2.078a34.872,34.872,0,0,1,7.409-1.221v.993a2.537,2.537,0,0,0,1.344,2.489,6.633,6.633,0,0,0,2.871.28c.855,0,1.731.058,2.584,0a2.788,2.788,0,0,0,2.665-2.623c.008-.373,0-.745,0-1.118a39.335,39.335,0,0,1,6.16.921C42.148,52.991,44.244,53.42,45.05,54.568ZM1.726,3.116c.053-2.2,2.067-1.691,3.6-1.691H52.15a42.405,42.405,0,0,1,4.566,0c2.284.253,1.558,4.438,1.558,5.983v34.6c0,.934.173,2.428-1.144,2.564H34.519a.806.806,0,0,0-.441-.083H26.07a.978.978,0,0,0-.33.083H6.054c-1.575,0-4.16.5-4.328-1.748-.162-2.155,0-4.384,0-6.543V23.413C1.726,16.655,1.562,9.873,1.726,3.116Z"/><path class="cls-5" d="M4.264,16.706V39.047a.534.534,0,0,0,.018.074c0,.025-.011.047-.006.073.221,1.376,1.708,1.444,2.992,1.4v.469a.242.242,0,0,0,.037.188.276.276,0,0,0,.132.15.8.8,0,0,0,.49.1,1.1,1.1,0,0,0,.546-.2L8.6,41.19a.491.491,0,0,0,.132-.254v-.377h2.544v.635c0,.1.212.145.268.154a1.368,1.368,0,0,0,.536-.051,1.329,1.329,0,0,0,.489-.224l.1-.091a.2.2,0,0,0,.058-.176v-.247h2.552v.635a.153.153,0,0,0,.094.1.333.333,0,0,0,.177.061,1.318,1.318,0,0,0,.537-.046,1.289,1.289,0,0,0,.488-.229l.1-.094a.212.212,0,0,0,.056-.184v-.247H49.665c1.4,0,2.851.105,4.251,0,2.3-.172,1.82-2.653,1.82-4.261V26.183c0-6.3.2-12.632,0-18.927-.057-1.795-1.48-1.815-2.866-1.815H45.793c-13.077,0-26.18-.249-39.254,0a2.171,2.171,0,0,0-2.043.87,3.43,3.43,0,0,0-.232,1.8ZM5.736,6.994c.206-.857,2.3-.435,2.972-.435H52.094a7.239,7.239,0,0,1,1.645,0c.956.248.525,2.667.525,3.441V38.492c0,.375.068.775-.316.949a4.7,4.7,0,0,1-1.44,0H6.854c-.586,0-.98.146-1.118-.586V8.673A7.919,7.919,0,0,1,5.736,6.994Z"/><path class="cls-5" d="M22.46,13.27a2.1,2.1,0,0,0,.552-.173.6.6,0,0,0,.3-.224l1.233-2.629.174-.371c.112-.239-.5-.159-.581-.143a2.1,2.1,0,0,0-.552.173.607.607,0,0,0-.3.224q-.615,1.314-1.232,2.629l-.174.371C21.767,13.366,22.377,13.286,22.46,13.27Z"/><path class="cls-5" d="M13.463,30.914c-.351.75,1.11.762,1.387.172q3-6.4,6-12.793l.847-1.807c.352-.75-1.11-.762-1.386-.172l-6,12.793Z"/><path class="cls-5" d="M19.308,35.519c-.348.742,1.113.74,1.384.162l5.586-11.917.789-1.683c.348-.742-1.113-.74-1.384-.162L20.1,33.836Z"/><path class="cls-5" d="M10.345,23.493l5.586-11.916.789-1.684c.162-.345-1.242-.209-1.44.214L9.694,22.023,8.9,23.707C8.743,24.052,10.147,23.916,10.345,23.493Z"/><path class="cls-5" d="M28.938,18.065q1.643-3.5,3.286-7.009.231-.495.464-.991c.337-.718-1.122-.672-1.376-.13q-1.643,3.5-3.286,7.009-.231.5-.464.991C27.225,18.653,28.684,18.607,28.938,18.065Z"/></svg>
