<svg id="Icons" height="512" viewBox="0 0 60 60" width="512" xmlns="http://www.w3.org/2000/svg"><path d="m43.522 44.479a.5.5 0 0 1 -.293-.905l6-4.36-6.949 4.009a.5.5 0 0 1 -.545-.836l4.5-3.293-3.96 2.286a.5.5 0 0 1 -.55-.832l2.645-1.992-2.1 1.209a.5.5 0 0 1 -.584-.8l2.346-2.108-1.759 1.013a.5.5 0 0 1 -.592-.8l.518-.488a.5.5 0 0 1 -.584-.759l.481-.671a.5.5 0 0 1 -.017-.876l1.184-.682a.5.5 0 0 1 .657.724l-.151.211 1.62-.934a.5.5 0 0 1 .592.8l-.5.466 2.196-1.261a.5.5 0 0 1 .584.8l-2.346 2.11 5.046-2.91a.5.5 0 0 1 .551.832l-2.648 1.994 4.9-2.826a.5.5 0 0 1 .545.836l-4.5 3.289 7.144-4.125a.5.5 0 0 1 .544.837l-6 4.361 7.22-4.168a.5.5 0 0 1 .553.83l-5.5 4.2 4.95-2.857a.5.5 0 0 1 .564.821l-3.376 2.731 2.812-1.624a.5.5 0 0 1 .571.816l-1.351 1.133.78-.449a.5.5 0 0 1 .654.726l-1.02 1.403.367-.212a.5.5 0 0 1 .5.866l-2.408 1.386a.5.5 0 0 1 -.654-.726l1.022-1.406-3.7 2.134a.5.5 0 0 1 -.571-.815l1.353-1.135-3.382 1.952a.5.5 0 0 1 -.565-.821l3.375-2.73-6.154 3.553a.5.5 0 0 1 -.554-.83l5.5-4.2-8.716 5.032a.493.493 0 0 1 -.245.071z" fill="#347584"/><path d="m26.472 59.479a.5.5 0 0 1 -.3-.9l6.243-4.591-8.609 4.97a.5.5 0 0 1 -.529-.849l1.594-1.065-1.6.921a.5.5 0 0 1 -.546-.836l4.243-3.115-3.7 2.135a.5.5 0 0 1 -.558-.827l3-2.356-2.441 1.409a.5.5 0 0 1 -.593-.8l2.109-2-1.518.876a.5.5 0 0 1 -.7-.655l.789-1.583a.5.5 0 0 1 -.286-.933l1.184-.682a.5.5 0 0 1 .7.656l-.748 1.5 3.742-2.154a.5.5 0 0 1 .594.8l-2.108 2 4.845-2.8a.5.5 0 0 1 .559.826l-3 2.356 5.515-3.182a.5.5 0 0 1 .545.836l-4.246 3.118 6.848-3.954a.5.5 0 0 1 .528.848l-1.595 1.068 3.32-1.916a.5.5 0 0 1 .546.835l-6.239 4.586 9.393-5.421a.5.5 0 0 1 .526.849l-1.055.7 2.676-1.549a.5.5 0 0 1 .535.843l-4.429 3.072 6.784-3.915a.5.5 0 0 1 .542.839l-5.741 4.133 8.609-4.972a.5.5 0 0 1 .526.849l-1.173.776 2.818-1.625a.5.5 0 0 1 .54.84l-5.359 3.809 8.054-4.649a.5.5 0 0 1 .671.162.5.5 0 0 1 -.13.678l-5.509 3.934 6.382-3.684a.5.5 0 0 1 .54.839l-3.912 2.788 3.372-1.946a.5.5 0 0 1 .565.82l-3.973 3.24 3.409-1.968a.5.5 0 0 1 .593.8l-2.276 2.149 1.683-.97a.5.5 0 0 1 .631.756l-.766.9.135-.077a.5.5 0 0 1 .5.865l-2.641 1.514a.5.5 0 0 1 -.631-.757l.767-.9-2.872 1.657a.5.5 0 0 1 -.594-.8l2.274-2.148-5.1 2.945a.5.5 0 0 1 -.567-.82l3.974-3.239-7.031 4.067a.5.5 0 0 1 -.54-.84l3.908-2.785-6.281 3.626a.5.5 0 0 1 -.541-.84l5.51-3.934-8.276 4.775a.5.5 0 0 1 -.54-.84l5.36-3.809-8.056 4.65a.5.5 0 0 1 -.526-.849l1.182-.779-2.821 1.628a.5.5 0 0 1 -.542-.839l5.742-4.133-8.619 4.973a.5.5 0 0 1 -.535-.844l4.426-3.07-6.781 3.915a.5.5 0 0 1 -.525-.849l1.044-.69-2.667 1.54a.493.493 0 0 1 -.25.068z" fill="#347584"/><path d="m15.975 13.479a.5.5 0 0 1 -.283-.913l6.755-4.629-8.658 5a.5.5 0 0 1 -.525-.851l3.236-2.132-3.22 1.859a.5.5 0 0 1 -.524-.852l.951-.622-.428.247a.5.5 0 0 1 -.547-.836l5.148-3.789-4.6 2.657a.5.5 0 0 1 -.536-.843l.647-.451-.112.065a.5.5 0 0 1 -.571-.817l2.673-2.239-2.1 1.214a.5.5 0 0 1 -.572-.816l.524-.439a.5.5 0 0 1 -.645-.691l.737-1.388a.5.5 0 0 1 -.239-.933l1.177-.68a.5.5 0 0 1 .691.667l-.673 1.267 3.35-1.934a.5.5 0 0 1 .572.816l-.511.429 2.157-1.245a.5.5 0 0 1 .571.816l-2.673 2.236 5.292-3.052a.5.5 0 0 1 .536.843l-.651.454 2.247-1.297a.5.5 0 0 1 .547.836l-5.146 3.784 8.008-4.62a.5.5 0 0 1 .524.851l-.955.625 2.558-1.476a.5.5 0 0 1 .525.85l-3.225 2.122 5.153-2.972a.5.5 0 0 1 .532.846l-6.754 4.625 9.482-5.471a.5.5 0 0 1 .532.846l-6.547 4.465 9.205-5.311a.5.5 0 0 1 .527.85l-4.582 3.035 6.735-3.885a.5.5 0 0 1 .538.842l-7.951 5.607 11.177-6.449a.5.5 0 0 1 .532.846l-6.649 4.543 9.341-5.389a.5.5 0 0 1 .534.845l-7.094 4.9 9.944-5.745a.5.5 0 0 1 .537.842l-7.793 5.471 10.942-6.313a.5.5 0 0 1 .524.851l-3.423 2.239 4.913-2.837a.5.5 0 0 1 .525.851l-3.225 2.117 3.058-1.765a.5.5 0 0 1 .525.85l-1.845 1.22 1.325-.765a.5.5 0 0 1 .545.837l-5.03 3.667 4.481-2.587a.5.5 0 0 1 .542.839l-2.056 1.483 1.514-.874a.5.5 0 0 1 .583.806l-2.883 2.568 2.3-1.328a.5.5 0 0 1 .647.737l-1.357 1.774.71-.41a.5.5 0 0 1 .5.866l-2.879 1.661a.5.5 0 0 1 -.648-.736l1.358-1.775-4.352 2.511a.5.5 0 0 1 -.583-.806l2.883-2.567-5.851 3.378a.5.5 0 0 1 -.542-.839l2.053-1.481-4.017 2.32a.5.5 0 0 1 -.545-.837l5.025-3.668-7.8 4.5a.5.5 0 0 1 -.525-.85l1.853-1.223-3.59 2.074a.5.5 0 0 1 -.525-.851l3.226-2.118-5.143 2.969a.5.5 0 0 1 -.524-.851l3.416-2.239-5.352 3.091a.5.5 0 0 1 -.537-.843l7.8-5.477-10.947 6.32a.5.5 0 0 1 -.534-.845l7.094-4.9-9.945 5.742a.5.5 0 0 1 -.532-.846l6.642-4.536-9.34 5.393a.5.5 0 0 1 -.538-.842l7.954-5.613-11.176 6.455a.5.5 0 0 1 -.527-.849l4.574-3.034-6.726 3.884a.5.5 0 0 1 -.532-.847l6.54-4.464-9.2 5.315a.5.5 0 0 1 -.254.064z" fill="#d6dbe3"/><path d="m4.429 13.471a.5.5 0 0 1 -.293-.906l1.685-1.219-3.564 2.054a.5.5 0 0 1 -.55-.834l5.23-3.912-5.657 3.27a.5.5 0 0 1 -.529-.848l.879-.591-.35.2a.5.5 0 0 1 -.53-.848l1.2-.807-.666.385a.5.5 0 0 1 -.538-.842l2.211-1.557-1.678.969a.5.5 0 0 1 -.542-.839l1.008-.726-.466.269a.5.5 0 0 1 -.591-.8l2.406-2.24-1.815 1.051a.5.5 0 0 1 -.588-.8l.359-.328a.478.478 0 0 1 -.377-.148.5.5 0 0 1 -.073-.612l.385-.647a.5.5 0 0 1 -.12-.916l1.135-.649a.5.5 0 0 1 .68.69l-.233.388 1.872-1.088a.5.5 0 0 1 .588.8l-.164.15 1.657-.955a.5.5 0 0 1 .591.8l-2.4 2.242 5.276-3.05a.5.5 0 0 1 .542.839l-1 .723 2.711-1.568a.5.5 0 0 1 .538.842l-2.221 1.562 3.285-1.9a.5.5 0 0 1 .53.848l-1.188.8.661-.382a.5.5 0 0 1 .529.848l-.881.593.355-.2a.5.5 0 0 1 .549.834l-5.228 3.911 4.683-2.7a.5.5 0 0 1 .543.838l-1.69 1.224 1.151-.665a.5.5 0 0 1 .568.82l-2.01 1.649 1.446-.835a.5.5 0 0 1 .61.781l-1.273 1.311.667-.386a.5.5 0 0 1 .737.544l-.3 1.309a.5.5 0 0 1 .065.9l-.5.289a.5.5 0 0 1 -.737-.544l.24-1.057-2.769 1.595a.5.5 0 0 1 -.609-.78l1.274-1.316-3.631 2.096a.5.5 0 0 1 -.568-.82l2.012-1.65-4.279 2.47a.5.5 0 0 1 -.25.071z" fill="#347584"/><path d="m36.106 29.479a.5.5 0 0 1 -.3-.9l6.5-4.851-8.026 4.637a.5.5 0 0 1 -.551-.832l5.371-4.074-4.827 2.787a.5.5 0 0 1 -.552-.831l2.641-2.009-2.091 1.207a.5.5 0 0 1 -.569-.818l1.658-1.375-1.09.629a.5.5 0 0 1 -.593-.8l.708-.671-.117.067a.5.5 0 0 1 -.663-.714l.521-.764a.5.5 0 0 1 -.051-.891l1.184-.683a.5.5 0 0 1 .663.715l-.257.376 1.895-1.084a.5.5 0 0 1 .593.8l-.707.67 2.539-1.47a.5.5 0 0 1 .57.818l-1.661 1.377 3.8-2.2a.5.5 0 0 1 .553.831l-2.638 2.006 4.916-2.832a.5.5 0 0 1 .552.832l-5.377 4.068 8.5-4.9a.5.5 0 0 1 .549.834l-6.506 4.851 9.846-5.685a.5.5 0 0 1 .55.834l-6.557 4.9 9.939-5.734a.5.5 0 0 1 .537.842l-4.917 3.451 6.035-3.484a.5.5 0 0 1 .538.842l-3.914 2.749 3.416-1.973a.5.5 0 0 1 .558.826l-4.052 3.187 3.495-2.018a.5.5 0 0 1 .6.791l-2.794 2.718 2.2-1.267a.5.5 0 0 1 .677.692l-.973 1.6.3-.171a.5.5 0 0 1 .5.866l-1.992 1.149a.5.5 0 0 1 -.677-.692l.973-1.6-3.979 2.3a.5.5 0 0 1 -.6-.792l2.795-2.716-6.081 3.51a.5.5 0 0 1 -.559-.826l4.052-3.184-6.951 4.013a.5.5 0 0 1 -.538-.842l3.91-2.755-6.231 3.6a.5.5 0 0 1 -.537-.843l4.915-3.45-7.437 4.287a.5.5 0 0 1 -.55-.833l6.56-4.905-9.941 5.74a.5.5 0 0 1 -.253.067z" fill="#347584"/><path d="m4.321 29.471a.5.5 0 0 1 -.3-.9l6.49-4.831-9.056 5.228a.5.5 0 0 1 -.53-.847l2.621-1.779-2.266 1.308a.5.5 0 0 1 -.54-.84l3.029-2.161-2.49 1.437a.5.5 0 0 1 -.567-.819l3.364-2.761-2.8 1.615a.5.5 0 0 1 -.612-.777l2.048-2.155-1.436.829a.5.5 0 0 1 -.7-.648l.566-1.189a.485.485 0 0 1 -.461-.249.5.5 0 0 1 .182-.683l1.131-.649a.5.5 0 0 1 .7.648l-.524 1.1 3.04-1.754a.5.5 0 0 1 .612.777l-2.048 2.154 5.084-2.935a.5.5 0 0 1 .568.82l-3.364 2.76 6.206-3.583a.5.5 0 0 1 .54.841l-3.028 2.16 5.2-3a.5.5 0 0 1 .531.847l-2.626 1.782 4.557-2.631a.5.5 0 0 1 .549.834l-6.487 4.829 9.815-5.667a.5.5 0 0 1 .528.849l-1.889 1.258 3.651-2.109a.5.5 0 0 1 .528.849l-2.037 1.359 3.832-2.213a.5.5 0 0 1 .543.838l-5.813 4.193 8.719-5.034a.5.5 0 0 1 .531.846l-3.588 2.447 5.708-3.3a.5.5 0 0 1 .544.838l-6.049 4.4 8.2-4.733a.5.5 0 0 1 .546.836l-5.493 4.022 4.953-2.859a.5.5 0 0 1 .543.838l-2.482 1.8 1.943-1.122a.5.5 0 0 1 .59.8l-3.157 2.929 2.569-1.483a.5.5 0 0 1 .646.739l-1.314 1.7.674-.389a.5.5 0 0 1 .73.576l-.237.79a.5.5 0 0 1 .011.871l-.5.289a.5.5 0 0 1 -.729-.576l.136-.455-1.786 1.024a.5.5 0 0 1 -.645-.739l1.313-1.7-4.219 2.439a.5.5 0 0 1 -.59-.8l3.153-2.923-6.447 3.723a.5.5 0 0 1 -.543-.838l2.48-1.8-4.565 2.638a.5.5 0 0 1 -.546-.836l5.491-4.022-8.415 4.858a.5.5 0 0 1 -.544-.838l6.048-4.4-9.076 5.238a.5.5 0 0 1 -.532-.846l3.589-2.448-5.7 3.294a.5.5 0 0 1 -.543-.839l5.813-4.192-8.719 5.031a.5.5 0 0 1 -.527-.849l2.047-1.366-3.836 2.215a.5.5 0 0 1 -.527-.849l1.882-1.251-3.641 2.1a.491.491 0 0 1 -.25.071z" fill="#266677"/><path d="m6.4 44.471a.5.5 0 0 1 -.283-.912l4.091-2.817-6.346 3.658a.5.5 0 0 1 -.539-.84l5.312-3.77-7.2 4.156a.5.5 0 0 1 -.527-.846l1.9-1.277-1.528.882a.5.5 0 0 1 -.534-.844l1.881-1.3-1.348.777a.5.5 0 0 1 -.57-.818l3.771-3.136-3.2 1.847a.5.5 0 0 1 -.6-.791l2.024-1.964-1.425.824a.5.5 0 0 1 -.71-.63l.642-1.5a.5.5 0 0 1 -.528-.241.5.5 0 0 1 .182-.683l1.129-.646a.5.5 0 0 1 .582.058.5.5 0 0 1 .128.572l-.624 1.452 3.62-2.082a.5.5 0 0 1 .6.791l-2.028 1.959 4.777-2.758a.5.5 0 0 1 .57.817l-3.772 3.139 6.853-3.958a.5.5 0 0 1 .534.844l-1.88 1.3 3.72-2.147a.5.5 0 0 1 .528.848l-1.891 1.27 3.673-2.12a.5.5 0 0 1 .539.841l-5.314 3.774 7.991-4.616a.5.5 0 0 1 .534.845l-4.093 2.818 6.349-3.665a.5.5 0 0 1 .543.838l-5.911 4.28 8.878-5.121a.5.5 0 0 1 .537.843l-4.793 3.351 7.269-4.2a.5.5 0 0 1 .541.839l-5.566 3.988 8.353-4.822a.5.5 0 0 1 .542.838l-5.791 4.175 8.686-5.015a.5.5 0 0 1 .544.837l-6.016 4.374 9.031-5.214a.5.5 0 0 1 .548.834l-6.433 4.772 8.371-4.833a.5.5 0 0 1 .553.83l-5.869 4.481 5.322-3.072a.5.5 0 0 1 .544.837l-1.849 1.344 1.309-.756a.5.5 0 0 1 .565.821l-1.881 1.522 1.321-.763a.5.5 0 0 1 .64.746l-1.5 1.863.869-.5a.5.5 0 0 1 .732.569l-.268.951a.5.5 0 0 1 .041.888l-.523.3a.5.5 0 0 1 -.732-.569l.186-.659-2.13 1.221a.5.5 0 0 1 -.64-.746l1.5-1.864-4.519 2.61a.5.5 0 0 1 -.565-.821l1.879-1.519-4.057 2.34a.5.5 0 0 1 -.544-.837l1.847-1.341-3.773 2.178a.5.5 0 0 1 -.554-.83l5.873-4.48-9.2 5.313a.5.5 0 0 1 -.548-.834l6.428-4.769-9.709 5.6a.5.5 0 0 1 -.544-.837l6.015-4.374-9.026 5.211a.5.5 0 0 1 -.542-.838l5.79-4.173-8.681 5.011a.5.5 0 0 1 -.541-.839l5.569-3.982-8.352 4.821a.5.5 0 0 1 -.536-.842l4.792-3.351-7.265 4.193a.5.5 0 0 1 -.543-.838l5.917-4.286-8.877 5.124a.5.5 0 0 1 -.247.071z" fill="#266677"/><path d="m5.407 59.471a.5.5 0 0 1 -.289-.908l5.308-3.763-7.976 4.6a.5.5 0 0 1 -.54-.84l5.455-3.886-6.085 3.515a.5.5 0 0 1 -.552-.831l5.2-3.954-4.649 2.686a.5.5 0 0 1 -.579-.812l3.686-3.178-3.107 1.794a.5.5 0 0 1 -.579-.813l1.084-.929-.509.293a.5.5 0 0 1 -.713-.621l.675-1.658a.507.507 0 0 1 -.558-.234.5.5 0 0 1 .182-.683l1.133-.649a.5.5 0 0 1 .713.621l-.665 1.633 3.913-2.259a.5.5 0 0 1 .575.812l-1.085.93 3.026-1.746a.5.5 0 0 1 .576.811l-3.682 3.174 6.917-3.993a.5.5 0 0 1 .553.831l-5.2 3.954 8.3-4.79a.5.5 0 0 1 .54.84l-5.456 3.888 8.2-4.733a.5.5 0 0 1 .539.841l-5.32 3.766 7.987-4.611a.5.5 0 0 1 .54.84l-5.42 3.856 6.179-3.565a.5.5 0 0 1 .541.839l-4.087 2.932 3.551-2.05a.5.5 0 0 1 .559.825l-3.563 2.8 3.009-1.737a.5.5 0 0 1 .574.813l-1.939 1.647 1.37-.792a.5.5 0 0 1 .59.8l-.575.533a.5.5 0 0 1 .712.6l-.387 1.114a.5.5 0 0 1 .17.927l-.775.447a.507.507 0 0 1 -.569-.048.5.5 0 0 1 -.154-.549l.33-.952-2.681 1.551a.5.5 0 0 1 -.589-.8l.574-.533-2.309 1.333a.5.5 0 0 1 -.573-.813l1.938-1.647-4.26 2.46a.5.5 0 0 1 -.56-.825l3.564-2.8-6.285 3.625a.5.5 0 0 1 -.541-.839l4.09-2.933-6.537 3.772a.5.5 0 0 1 -.54-.84l5.422-3.856-8.137 4.696a.493.493 0 0 1 -.25.071z" fill="#266677"/><g fill="#262626"><path d="m.276 9.377a19.365 19.365 0 0 0 0 2.809c.216 1.427 1.7 1.219 2.775 1.219h10.384a.926.926 0 0 0 1.009 0h43.127a.919.919 0 0 0 .139 0h.01a1.168 1.168 0 0 0 .179-.01 1.925 1.925 0 0 0 1.825-2.2v-8.576c0-1.055-.158-1.92-1.442-2.024-2.8-.228-5.711 0-8.516 0h-35.2a.926.926 0 0 0 -1.009 0h-1.229c-3.297.005-6.628-.146-9.928.005a2.1 2.1 0 0 0 -2.073 1.176 9.578 9.578 0 0 0 -.051 2.685zm55.66-7.972c.912 0 2.1-.339 2.34.822a15.353 15.353 0 0 1 0 2.9v4.694c0 .205.193 2.634-.158 2.774h-43.382v-11.19zm-54.059 0a3.361 3.361 0 0 1 1.092 0h10.3v11.195h-10a3.769 3.769 0 0 1 -.913 0c-.781-.23-.631-1.053-.631-1.674v-8.379c-.001-.389-.125-.993.152-1.142z"/><path d="m1.933 29.52c2.58.138 5.206 0 7.789 0h47.889a.883.883 0 0 0 .322 0 .829.829 0 0 0 .355-.083c1.1-.3 1.445-1.081 1.445-2.233v-4.494c0-1.686.533-4.144-1.811-4.23-3.16-.117-6.347 0-9.509 0h-36.692c-3.151 0-6.362-.18-9.509 0-2.438.139-1.945 2.609-1.945 4.346v4.494c0 1.18.268 2.125 1.666 2.2zm53.271-10a8.936 8.936 0 0 1 2.658 0c.577.236.405 1.184.405 1.7v4.426c0 .219.228 2.768-.2 2.837h-22.343v-8.963h19.476zm-53.471 5.168v-4.153c0-1.174.358-1.015 1.334-1.015h31.209v8.96h-30.476c-.735 0-1.854.323-2.068-.579a15.268 15.268 0 0 1 .001-3.213z"/><path d="m58.129 33.562c-3.15-.169-6.356 0-9.509 0h-5.241a1.068 1.068 0 0 0 -.44 0h-31.01c-3.169 0-6.37-.131-9.537 0a2.062 2.062 0 0 0 -2.068 1.2 11.052 11.052 0 0 0 -.051 2.992v4.378c0 1.048-.023 2.075 1.289 2.28a14.818 14.818 0 0 0 2.24.022h38.819a1.068 1.068 0 0 0 .44 0h14.52a1.016 1.016 0 0 0 .328-.006 1.932 1.932 0 0 0 1.818-2.225v-4.375c0-1.541.58-4.15-1.598-4.266zm-54.168 10c-.8 0-1.983.3-2.234-.707a14.694 14.694 0 0 1 0-3.207v-4.02c0-.368-.123-1.05.144-1.19a3.187 3.187 0 0 1 1.027 0h39.374v9.124zm39.767 0v-9.124h11.383a10.507 10.507 0 0 1 2.562 0c.829.242.6 1.294.6 1.942v4.369c0 .189.2 2.7-.171 2.813z"/><path d="m58.092 48.533c-3.207-.161-6.464 0-9.674 0h-36.593c-3.139 0-6.3-.121-9.44 0-2.545.1-2.114 2.335-2.114 4.19v4.454c0 1.112.073 2.153 1.462 2.29 2.573.253 5.3 0 7.879 0h47.978a.95.95 0 0 0 .328 0c1.381-.223 1.811-1.007 1.811-2.276v-4.497c0-1.549.543-4.051-1.637-4.161zm-54.139 10c-.742 0-1.959.3-2.224-.632a12.961 12.961 0 0 1 0-3.106v-4.13c0-.37-.121-1.056.149-1.2a3.165 3.165 0 0 1 1.028 0h20.368v9.066zm30.66 0h-9.887v-9.066h30.393a10.608 10.608 0 0 1 2.562 0c.784.223.59 1.143.59 1.766v4.425c0 .2.212 2.785-.183 2.875z"/><path d="m7.4 9.394a3.176 3.176 0 0 0 1.27-.553l.49.327.166.112a.315.315 0 0 0 .162.083.561.561 0 0 0 .227.035 1.415 1.415 0 0 0 .567-.114.85.85 0 0 0 .391-.276c.047-.078.1-.219 0-.288l-1.163-.778-.04-.027a2.215 2.215 0 0 0 .258-.993 2.349 2.349 0 0 0 -1.628-2.236 3.1 3.1 0 0 0 -3.212.861 2.341 2.341 0 0 0 -.277 2.774 2.638 2.638 0 0 0 2.789 1.073zm-1.458-3.333a2.06 2.06 0 0 1 .132-.2l.026-.046c.03-.031.059-.063.091-.094s.067-.056.1-.087l.013-.008c.03-.018.058-.039.087-.058l.043-.026.025-.012c.032-.012.066-.027.1-.041h.011l.038-.008.028-.007a.166.166 0 0 0 .038-.011h-.007l.076-.007h.07c.047 0 .092.006.138.01h.025a.1.1 0 0 0 .024.01c.051.015.1.026.155.041l.086.032a2.091 2.091 0 0 1 .256.136 1.436 1.436 0 0 1 .369.332 1.735 1.735 0 0 1 .4 1.061 1.7 1.7 0 0 1 -.291 1s-.031.042-.049.067l-.048.055a2.13 2.13 0 0 1 -.169.16l-.009.015c-.041.025-.081.053-.121.079s-.092.038-.136.059h-.013l-.054.015c.062-.021-.141.007-.146.015h-.071c-.046 0-.092-.008-.137-.012l-.022-.007c-.052-.014-.1-.026-.155-.041-.01 0-.169-.067-.064-.021l-.095-.044a2.123 2.123 0 0 1 -.227-.131 1.716 1.716 0 0 1 -.359-.344 1.763 1.763 0 0 1 -.163-1.882z"/><path d="m6.667 5.464a.249.249 0 0 0 -.029.007l-.028.007c-.03.014.011.022.057-.014z"/></g></svg>