<svg height="449pt" viewBox="0 -20 449.68223 449" width="449pt" xmlns="http://www.w3.org/2000/svg"><path d="m192.484375 305.585938h-11.019531l.078125-.089844-42.835938 14.160156c-5.246093 1.734375-10.902343-1.113281-12.632812-6.359375l-83.726563-253.246094-26.488281 8.753907c-5.242187 1.734374-8.089844 7.390624-6.355469 12.636718l86.570313 261.855469c1.734375 5.242187 7.386719 8.089844 12.632812 6.355469l42.835938-14.15625-.078125.09375h11.019531l179.652344 63.480468c4.511719 1.59375 9.464843-.769531 11.054687-5.285156l9.867188-27.925781zm0 0" fill="#d4e1f4"/><path d="m133.429688 222.097656c-11.535157 0-22.25-6.523437-28.910157-18.199218-.011719-.023438-.019531-.039063-.03125-.058594-11.128906-19.847656-8.019531-52.054688 24.015625-79.269532.148438-.125.300782-.242187.453125-.359374 2.125-1.652344 4.757813-2.527344 7.453125-2.472657.1875 0 .359375 0 .542969.015625 41.875 2.449219 63.621094 26.535156 66.597656 49.316406 2.296875 17.3125-6.0625 31.761719-21.300781 36.800782-6.410156 2.117187-13.589844 2.339844-21.34375.65625-4.664062 5.398437-10.640625 9.496094-17.355469 11.902344-3.261719 1.09375-6.679687 1.65625-10.121093 1.667968zm-13.257813-27.089844c4.277344 7.472657 10.902344 10.589844 17.726563 8.328126 3.324218-1.097657 6.761718-3.589844 9.941406-7.207032 4.074218-4.652344 10.378906-6.6875 16.40625-5.300781 4.765625 1.101563 8.921875 1.078125 12.351562-.054687 6.839844-2.257813 10.242188-8.75 9.101563-17.359376-1.964844-15.050781-17.371094-31-47.386719-33.523437-22.53125 20.140625-25.445312 42.050781-18.140625 55.117187zm0 0" fill="#1ae5be"/><path d="m153.476562 248.953125c-3.695312 0-7.015624-2.257813-8.375-5.695313-1.355468-3.4375-.472656-7.355468 2.226563-9.878906l13.328125-12.457031c3.582031-3.351563 8.445312-4.992187 13.328125-4.492187l18.699219 1.910156c4.90625.550781 8.449218 4.949218 7.949218 9.855468-.5 4.910157-4.863281 8.5-9.777343 8.050782l-18.242188-1.863282-12.992187 12.144532c-1.664063 1.5625-3.863282 2.429687-6.144532 2.425781zm0 0" fill="#1ae5be"/><path d="m437.914062 128.015625-.125-.046875-86.785156-29.230469v-40.90625c-.011718-9.75-7.914062-17.652343-17.660156-17.664062h-109.082031l-8.859375-26.796875c-3.304688-9.953125-14.039063-15.355469-24-12.078125l-178.367188 58.96875c-9.960937 3.292969-15.367187 14.039062-12.074218 24l86.566406 261.859375c1.574218 4.789062 4.988281 8.757812 9.492187 11.023437 4.503907 2.265625 9.726563 2.644531 14.507813 1.050781l41.179687-13.613281h8.230469l178.199219 62.96875c9.199219 3.253907 19.289062-1.570312 22.535156-10.769531l87.007813-246.238281c3.234374-9.191407-1.582032-19.269531-10.765626-22.527344zm-104.910156-69.847656v260.480469h-101.832031l58.71875-19.414063c9.964844-3.292969 15.371094-14.039063 12.078125-24l-71.753906-217.066406zm-227.125 282.941406c-.523437.175781-1.085937-.109375-1.261718-.632813l-86.570313-261.863281c-.171875-.523437.113281-1.089843.636719-1.261719l178.367187-58.964843c.101563-.035157.210938-.054688.316407-.054688.429687.007813.808593.28125.945312.6875l86.570312 261.863281c.082032.25.0625.523438-.054687.761719-.121094.238281-.328125.417969-.582031.5l-110.417969 36.5h-.578125v.191407zm238.933594 49.359375-152.3125-53.820312h140.84375c9.75-.011719 17.648438-7.910157 17.660156-17.660157v-201.257812l80.589844 27.148437zm0 0" fill="#0635c9"/></svg>