<?xml version="1.0" encoding="iso-8859-1"?>
<!-- Generator: Adobe Illustrator 19.0.0, SVG Export Plug-In . SVG Version: 6.00 Build 0)  -->
<svg version="1.1" id="Capa_1" xmlns="http://www.w3.org/2000/svg" xmlns:xlink="http://www.w3.org/1999/xlink" x="0px" y="0px"
	 viewBox="0 0 460.969 460.969" style="enable-background:new 0 0 460.969 460.969;" xml:space="preserve">
<g>
	<path style="fill:#4DCFE0;" d="M350.563,110.844l-77.322,72.098v12.016h95.086c4.18,0,7.837-1.567,10.449-4.18l76.8-71.053
		c4.702-4.18,6.269-10.971,4.18-17.241c-2.612-5.747-8.359-9.927-14.629-9.927H354.22c0,0.522,0.522,0.522,0.522,1.045
		C356.833,99.872,355.265,106.664,350.563,110.844z"/>
	<path style="fill:#4DCFE0;" d="M105.012,176.15c0-4.18,1.567-8.359,5.224-11.494l77.322-72.098H92.473
		c-4.18,0-7.837,1.567-10.449,4.18l-76.8,71.053c-4.702,4.18-6.269,10.971-4.18,17.241c2.612,5.747,8.359,9.927,14.629,9.927h89.339
		V176.15z"/>
</g>
<g>
	<path style="fill:#3A2C51;" d="M15.673,224.215C6.792,224.215,0,231.007,0,239.889s6.792,15.673,15.673,15.673h94.563v-31.347
		H15.673z"/>
	<path style="fill:#3A2C51;" d="M368.327,255.562c3.657,0,6.792-1.045,9.927-3.135l76.8-60.604
		c6.792-5.224,7.837-15.151,2.612-21.943c-5.224-6.792-15.151-7.837-21.943-2.612l-72.62,57.469h-95.086v31.347L368.327,255.562
		L368.327,255.562z"/>
	<path style="fill:#3A2C51;" d="M15.673,285.342C6.792,285.342,0,292.134,0,301.015s6.792,15.673,15.673,15.673h94.563v-31.347
		H15.673z"/>
	<path style="fill:#3A2C51;" d="M368.327,316.689c3.135,0,6.269-1.045,9.404-3.135l76.8-55.38
		c6.792-5.224,8.359-14.629,3.657-21.943c-5.224-6.792-14.629-8.359-21.943-3.657l-72.62,52.245h-95.608v31.347L368.327,316.689
		L368.327,316.689z"/>
	<path style="fill:#3A2C51;" d="M15.673,345.946C6.792,345.946,0,352.738,0,361.619c0,8.882,6.792,15.673,15.673,15.673h94.563
		v-31.347H15.673z"/>
	<path style="fill:#3A2C51;" d="M458.188,303.105c-4.702-7.314-14.629-9.404-21.943-4.702l-73.143,47.543h-95.086v31.347h100.31
		c3.135,0,6.269-1.045,8.359-2.612l76.8-50.155C460.8,319.823,462.89,309.897,458.188,303.105z"/>
</g>
<path style="fill:#D4E1F4;" d="M273.241,316.689v-31.347v-29.78v-31.347v-29.257v-12.016l77.322-72.098
	c4.702-4.18,6.269-10.971,4.18-17.241c0-0.522-0.522-0.522-0.522-1.045c-2.612-5.224-7.837-8.882-14.106-8.882H203.233
	c-4.18,0-7.837,1.567-10.971,4.18l-4.702,4.702l-77.322,72.098c-3.135,3.135-5.224,7.314-5.224,11.494v18.808v29.257v31.347v29.78
	v31.347v29.257v31.347h168.229v-31.347V316.689z"/>
<g>
</g>
<g>
</g>
<g>
</g>
<g>
</g>
<g>
</g>
<g>
</g>
<g>
</g>
<g>
</g>
<g>
</g>
<g>
</g>
<g>
</g>
<g>
</g>
<g>
</g>
<g>
</g>
<g>
</g>
</svg>
