<svg height="512pt" viewBox="0 0 512 512.02133" width="512pt" xmlns="http://www.w3.org/2000/svg"><path d="m136.472656 512.019531c-21.035156 0-40.640625-14.140625-46.527344-35.453125l-88.339843-329.921875c-6.742188-25.683593 8.53125-51.96875 34.003906-58.664062l88.875-20.054688c8.660156-1.964843 17.195313 3.476563 19.113281 12.074219 1.941406 8.617188-3.453125 17.195312-12.074218 19.113281l-88.320313 19.949219c-7.871094 2.089844-12.90625 10.835938-10.664063 19.390625l88.296876 329.75c2.304687 8.40625 11.222656 13.566406 19.734374 11.261719l150.269532-36.351563c8.597656-2.023437 17.238281 3.203125 19.308594 11.796875 2.070312 8.578125-3.199219 17.238282-11.796876 19.308594l-149.972656 36.265625c-3.949218 1.046875-7.9375 1.535156-11.90625 1.535156zm0 0"/><path d="m453.335938 426.667969h-224c-32.359376 0-58.664063-26.304688-58.664063-58.667969v-309.332031c0-32.363281 26.304687-58.667969 58.664063-58.667969h224c32.363281 0 58.667968 26.304688 58.667968 58.667969v309.332031c0 32.363281-26.304687 58.667969-58.667968 58.667969zm-224-394.667969c-14.695313 0-26.664063 11.96875-26.664063 26.667969v309.332031c0 14.699219 11.96875 26.667969 26.664063 26.667969h224c14.699218 0 26.667968-11.96875 26.667968-26.667969v-309.332031c0-14.699219-11.96875-26.667969-26.667968-26.667969zm0 0"/><path d="m277.335938 192c-23.527344 0-42.664063-19.136719-42.664063-42.667969s19.136719-42.664062 42.664063-42.664062c23.53125 0 42.667968 19.132812 42.667968 42.664062s-19.136718 42.667969-42.667968 42.667969zm0-53.332031c-5.886719 0-10.664063 4.777343-10.664063 10.664062 0 5.890625 4.777344 10.667969 10.664063 10.667969 5.890624 0 10.667968-4.777344 10.667968-10.667969 0-5.886719-4.777344-10.664062-10.667968-10.664062zm0 0"/><path d="m298.671875 325.332031c-4.097656 0-8.191406-1.554687-11.308594-4.691406-6.25-6.25-6.25-16.382813 0-22.636719l112.855469-112.851562c14.589844-14.59375 38.335938-14.59375 52.90625 0l54.1875 54.1875c6.25 6.25 6.25 16.382812 0 22.632812-6.253906 6.25-16.386719 6.25-22.636719 0l-54.1875-54.1875c-2.089843-2.089844-5.589843-2.089844-7.65625 0l-112.855469 112.855469c-3.113281 3.136719-7.210937 4.691406-11.304687 4.691406zm0 0"/><path d="m186.671875 330.667969c-4.097656 0-8.191406-1.558594-11.308594-4.695313-6.25-6.25-6.25-16.382812 0-22.632812l43.519531-43.519532c14.59375-14.59375 38.335938-14.59375 52.90625 0l38.1875 38.183594c6.25 6.253906 6.25 16.386719 0 22.636719s-16.382812 6.25-22.632812 0l-38.1875-38.1875c-2.710938-2.710937-4.949219-2.710937-7.660156 0l-43.519532 43.519531c-3.113281 3.136719-7.210937 4.695313-11.304687 4.695313zm0 0"/></svg>