<svg height="512" viewBox="0 0 64 64" width="512" xmlns="http://www.w3.org/2000/svg"><g id="Art-Design-Study-Graphic_Tablet-Learning" data-name="Art-Design-Study-Graphic Tablet-Learning"><path d="m58 49v10a3.009 3.009 0 0 1 -3 3h-24a3.009 3.009 0 0 1 -3-3v-16a3.009 3.009 0 0 1 3-3h19.91v2h-19.91a1 1 0 0 0 -1 1v16a1 1 0 0 0 1 1h24a1 1 0 0 0 1-1v-10z"/><path d="m38 51a3 3 0 1 0 -3 3 3 3 0 0 0 3-3zm-3 1a1 1 0 1 1 1-1 1 1 0 0 1 -1 1z"/><path d="m33 44h4v2h-4z"/><path d="m33 56h4v2h-4z"/><path d="m61.85 39.979-2.829-2.829a1.031 1.031 0 0 0 -1.415 0l-10.606 10.608a.994.994 0 0 0 -.273.511l-.707 3.531a1 1 0 0 0 1.18 1.18l3.535-.707a.994.994 0 0 0 .507-.273l10.608-10.606a1 1 0 0 0 0-1.415zm-11.808 10.393-1.768.354.354-1.768 6.857-6.858 1.415 1.415zm8.272-8.272-1.414-1.414 1.414-1.415 1.416 1.416z"/><path d="m40 30h2v2h-2z"/><path d="m43 2h-36a5 5 0 0 0 -5 5v24a5 5 0 0 0 5 5h10.87l-.75 6h-1.12a3 3 0 0 0 0 6h10v-2h-10a1 1 0 0 1 0-2h10v-2h-6.87l.75-6h10.24l.26 2.12 1.99-.24-.24-1.88h10.87a5 5 0 0 0 5-5v-24a5 5 0 0 0 -5-5zm3 29a3.009 3.009 0 0 1 -3 3h-36a3.009 3.009 0 0 1 -3-3v-3h42zm0-5h-42v-19a3.009 3.009 0 0 1 3-3h36a3.009 3.009 0 0 1 3 3z"/><path d="m33 15h-7a3 3 0 0 0 0 6h13v-2h-13a1 1 0 0 1 0-2h7a3 3 0 0 0 0-6h-10v2h10a1 1 0 0 1 0 2z"/><path d="m41 19h2v2h-2z"/><path d="m10 15a4 4 0 1 0 -4-4 4 4 0 0 0 4 4zm0-6a2 2 0 1 1 -2 2 2 2 0 0 1 2-2z"/><path d="m17 21h-6v-4h-2v5a1 1 0 0 0 1 1h8a1 1 0 0 0 1-1v-10a1 1 0 0 0 -1-1h-2v2h1z"/></g></svg>